duration,bar,position,pitch,velocity
0.10000000000000142,0,0,60,90
0.09999999999999787,0,1,60,90
0.09999999999999787,0,2,60,90
0.10000000000000142,0,3,60,90
0.09999999999999787,0,4,60,90
0.09999999999999787,0,5,60,90
0.09999999999999787,0,6,60,90
0.10000000000000142,0,7,60,90
0.10000000000000142,0,8,60,90
0.10000000000000142,0,9,60,90
0.10000000000000142,0,10,60,90
0.10000000000000142,0,11,60,90
0.09999999999999787,0,12,60,90
0.09999999999999787,0,13,60,90
0.10000000000000142,0,14,60,90
0.10000000000000142,0,15,60,90
0.10000000000000142,1,0,60,90
0.10000000000000142,1,1,60,90
0.10000000000000142,1,2,60,90
0.10000000000000142,1,3,60,90
0.10000000000000142,1,4,60,90
0.10000000000000142,1,5,60,90
0.10000000000000142,1,6,60,90
0.10000000000000142,1,7,60,90
0.10000000000000142,1,8,60,90
0.10000000000000142,1,9,60,90
0.10000000000000142,1,10,60,90
0.10000000000000142,1,11,60,90
0.10000000000000142,1,12,60,90
0.09999999999999432,1,13,60,90
0.10000000000000142,1,14,60,90
0.10000000000000142,1,15,60,90
0.10000000000000142,2,0,60,90
0.10000000000000142,2,1,60,90
0.10000000000000142,2,2,60,90
0.10000000000000142,2,3,60,90
0.10000000000000142,2,4,60,90
0.10000000000000142,2,5,60,90
0.10000000000000142,2,6,60,90
0.10000000000000142,2,7,60,90
0.10000000000000142,2,8,60,90
0.10000000000000142,2,9,60,90
0.09999999999999432,2,10,60,90
0.09999999999999432,2,11,60,90
0.05681818181817988,2,12,60,90
0.10000000000000142,2,13,60,90
0.10000000000000142,2,14,60,90
0.09999999999999432,2,15,60,90
0.09999999999999432,3,0,60,90
0.10000000000000853,3,1,60,90
0.09999999999999432,3,2,60,90
0.09999999999999432,3,3,60,90
0.09999999999999432,3,4,60,90
0.09999999999999432,3,5,60,90
0.10000000000000853,3,6,60,90
0.09999999999999432,3,7,60,90
0.09999999999999432,3,8,60,90
0.10000000000000853,3,9,60,90
0.09999999999999432,3,10,60,90
0.10000000000000853,3,11,60,90
0.09999999999999432,3,12,60,90
0.09999999999999432,3,13,60,90
0.01590909090909065,3,14,60,90
0.09999999999999432,3,15,60,90
0.10000000000000853,4,0,60,90
0.09999999999999432,4,1,60,90
0.09999999999999432,4,2,60,90
0.09999999999999432,4,3,60,90
0.10000000000000853,4,4,60,90
0.09999999999999432,4,5,60,90
0.10000000000000853,4,6,60,90
0.09999999999999432,4,7,60,90
0.10000000000000853,4,8,60,90
0.09999999999999432,4,9,60,90
0.10000000000000853,4,10,60,90
0.09999999999999432,4,11,60,90
0.10000000000000853,4,12,60,90
0.10000000000000853,4,13,60,90
0.10000000000000853,4,14,60,90
0.09999999999999432,4,15,60,90
0.10000000000000853,5,0,60,90
0.09999999999999432,5,1,60,90
0.10000000000000853,5,2,60,90
0.09999999999999432,5,3,60,90
0.10000000000000853,5,4,60,90
0.10000000000000853,5,5,60,90
0.09999999999999432,5,6,60,90
0.09999999999999432,5,7,60,90
0.09999999999999432,5,8,60,90
0.10000000000000853,5,9,60,90
0.09999999999999432,5,10,60,90
0.09999999999999432,5,11,60,90
0.09999999999999432,5,12,60,90
0.10000000000000853,5,13,60,90
0.10000000000000853,5,14,60,90
0.10000000000000853,5,15,60,90
0.09999999999999432,6,0,60,90
0.09999999999999432,6,1,60,90
0.10000000000000853,6,2,60,90
0.10000000000000853,6,3,60,90
0.09999999999999432,6,4,60,90
0.09999999999999432,6,5,60,90
0.09999999999999432,6,6,60,90
0.10000000000000853,6,7,60,90
0.09999999999999432,6,8,60,90
0.09999999999999432,6,9,60,90
0.09999999999999432,6,10,60,90
0.10000000000000853,6,11,60,90
0.09999999999999432,6,12,60,90
0.09999999999999432,6,13,60,90
0.09999999999999432,6,14,60,90
0.09999999999999432,6,15,60,90
0.09999999999999432,7,0,60,90
0.09999999999999432,7,1,60,90
0.10000000000000853,7,2,60,90
0.09999999999999432,7,3,60,90
0.10000000000000853,7,4,60,90
0.10000000000000853,7,5,60,90
0.10000000000000853,7,6,60,90
0.09999999999999432,7,7,60,90
0.09999999999999432,7,8,60,90
0.09999999999999432,7,9,60,90
0.09999999999999432,7,10,60,90
0.10000000000000853,7,11,60,90
0.09999999999999432,7,12,60,90
0.10000000000002274,7,13,60,90
0.10000000000002274,7,14,60,90
0.09999999999999432,7,15,60,90
0.09999999999999432,8,0,60,90
0.09999999999999432,8,1,60,90
0.10000000000002274,8,2,60,90
0.09999999999999432,8,3,60,90
0.09999999999999432,8,4,60,90
0.09999999999999432,8,5,60,90
0.09999999999999432,8,6,60,90
0.09999999999999432,8,7,60,90
0.09999999999999432,8,8,60,90
0.09999999999999432,8,9,60,90
0.09999999999999432,8,10,60,90
0.09999999999999432,8,11,60,90
0.10000000000002274,8,12,60,90
0.09999999999999432,8,13,60,90
0.10000000000002274,8,14,60,90
0.09999999999999432,8,15,60,90
0.09999999999999432,9,0,60,90
0.09999999999999432,9,1,60,90
0.09999999999999432,9,2,60,90
0.10000000000002274,9,3,60,90
0.09999999999999432,9,4,60,90
0.09999999999999432,9,5,60,90
0.09999999999999432,9,6,60,90
0.09999999999999432,9,7,60,90
0.09999999999999432,9,8,60,90
0.09999999999999432,9,9,60,90
0.09999999999999432,9,10,60,90
0.09999999999999432,9,11,60,90
0.09999999999999432,9,12,60,90
0.10000000000002274,9,13,60,90
0.09999999999999432,9,14,60,90
0.09999999999999432,9,15,60,90
0.09999999999999432,10,0,60,90
0.09999999999999432,10,1,60,90
0.09999999999999432,10,2,60,90
0.03636363636363171,10,3,60,90
0.09999999999999432,10,4,60,90
0.09999999999999432,10,5,60,90
0.09999999999999432,10,6,60,90
0.09999999999999432,10,7,60,90
0.004545454545450411,10,8,60,90
0.024999999999977263,10,9,60,90
0.09999999999999432,10,10,60,90
0.10000000000002274,10,11,60,90
0.10000000000002274,10,12,60,90
0.09999999999999432,10,13,60,90
0.09999999999999432,10,14,60,90
0.09999999999999432,10,15,60,90
0.09999999999999432,11,0,60,90
0.09999999999999432,11,1,60,90
0.09999999999999432,11,2,60,90
0.09999999999999432,11,3,60,90
0.09999999999999432,11,4,60,90
0.09999999999999432,11,5,60,90
0.05909090909091219,11,6,60,90
0.09999999999999432,11,7,60,90
0.025000000000005684,11,8,60,90
0.10000000000002274,11,9,60,90
0.09999999999999432,11,10,60,90
0.09999999999999432,11,11,60,90
0.03636363636363171,11,12,60,90
0.09999999999999432,11,13,60,90
0.10000000000000142,11,14,60,90
0.09999999999999787,11,15,60,90
0.10000000000000142,12,0,60,90
0.09999999999999787,12,1,60,90
0.10000000000000142,12,2,60,90
0.10000000000000142,12,3,60,90
0.09999999999999787,12,4,60,90
0.09999999999999787,12,5,60,90
0.09999999999999787,12,6,60,90
0.09999999999999787,12,7,60,90
0.09999999999999787,12,8,60,90
0.09999999999999787,12,9,60,90
0.10000000000000142,12,10,60,90
0.10000000000000142,12,11,60,90
0.10000000000000142,12,12,60,90
0.10000000000000142,12,13,60,90
0.10000000000000142,12,14,60,90
0.10000000000000142,12,15,60,90
0.10000000000000142,13,0,60,90
0.09999999999999787,13,1,60,90
0.09999999999999787,13,2,60,90
0.10000000000000142,13,3,60,90
0.09999999999999787,13,4,60,90
0.09999999999999787,13,5,60,90
0.10000000000000142,13,6,60,90
0.09999999999999432,13,7,60,90
0.09999999999999432,13,8,60,90
0.10000000000000142,13,9,60,90
0.10000000000000142,13,10,60,90
0.10000000000000142,13,11,60,90
0.10000000000000142,13,12,60,90
0.10000000000000142,13,13,60,90
0.09999999999999432,13,14,60,90
0.10000000000000142,13,15,60,90
0.09999999999999432,14,0,60,90
0.10000000000000142,14,1,60,90
0.10000000000000142,14,2,60,90
0.10000000000000142,14,3,60,90
0.10000000000000142,14,4,60,90
0.10000000000000142,14,5,60,90
0.10000000000000142,14,6,60,90
0.10000000000000142,14,7,60,90
0.10000000000000142,14,8,60,90
0.10000000000000142,14,9,60,90
0.10000000000000142,14,10,60,90
0.10000000000000142,14,11,60,90
0.10000000000000142,14,12,60,90
0.10000000000000142,14,13,60,90
0.09999999999999432,14,14,60,90
0.10000000000000142,14,15,60,90
0.10000000000000142,15,0,60,90
0.10000000000000142,15,1,60,90
0.09999999999999432,15,2,60,90
0.09999999999999432,15,3,60,90
0.10000000000000142,15,4,60,90
0.09999999999999432,15,5,60,90
0.10000000000000142,15,6,60,90
0.10000000000000142,15,7,60,90
0.10000000000000142,15,8,60,90
0.10000000000000142,15,9,60,90
0.10000000000000142,15,10,60,90
0.10000000000000142,15,11,60,90
0.10000000000000142,15,12,60,90
0.10000000000000142,15,13,60,90
0.10000000000000142,15,14,60,90
0.10000000000000142,15,15,60,90
0.10000000000000142,16,0,60,90
0.10000000000000142,16,1,60,90
0.09999999999999432,16,2,60,90
0.09999999999999432,16,3,60,90
0.09999999999999432,16,4,60,90
0.10000000000000142,16,5,60,90
0.10000000000000142,16,6,60,90
0.09999999999999432,16,7,60,90
0.10000000000000142,16,8,60,90
0.10000000000000142,16,9,60,90
0.10000000000000142,16,10,60,90
0.10000000000000142,16,11,60,90
0.10000000000000142,16,12,60,90
0.10000000000000142,16,13,60,90
0.10000000000000142,16,14,60,90
0.10000000000000142,16,15,60,90
0.10000000000000142,17,0,60,90
0.10000000000000142,17,1,60,90
0.10000000000000142,17,2,60,90
0.10000000000000142,17,3,60,90
0.10000000000000142,17,4,60,90
0.10000000000000142,17,5,60,90
0.10000000000000142,17,6,60,90
0.10000000000000142,17,7,60,90
0.10000000000000142,17,8,60,90
0.10000000000000142,17,9,60,90
0.10000000000000142,17,10,60,90
0.09999999999999432,17,11,60,90
0.10000000000000142,17,12,60,90
0.10000000000000142,17,13,60,90
0.10000000000000142,17,14,60,90
0.10000000000000142,17,15,60,90
0.10000000000000142,18,0,60,90
0.10000000000000142,18,1,60,90
0.10000000000000142,18,2,60,90
0.10000000000000142,18,3,60,90
0.10000000000000142,18,4,60,90
0.10000000000000142,18,5,60,90
0.10000000000000142,18,6,60,90
0.10000000000000142,18,7,60,90
0.10000000000000142,18,8,60,90
0.10000000000000142,18,9,60,90
0.10000000000000142,18,10,60,90
0.09999999999999432,18,11,60,90
0.10000000000000142,18,12,60,90
0.09999999999999432,18,13,60,90
0.10000000000000142,18,14,60,90
0.09999999999999432,18,15,60,90
0.10000000000000142,19,0,60,90
0.10000000000000142,19,1,60,90
0.10000000000000142,19,2,60,90
0.10000000000000142,19,3,60,90
0.10000000000000142,19,4,60,90
0.10000000000000142,19,5,60,90
0.10000000000000142,19,6,60,90
0.10000000000000142,19,7,60,90
0.10000000000000142,19,8,60,90
0.10000000000000142,19,9,60,90
0.10000000000000142,19,10,60,90
0.10000000000000142,19,11,60,90
0.10000000000000142,19,12,60,90
0.10000000000000142,19,13,60,90
0.10000000000000142,19,14,60,90
0.09999999999999432,19,15,60,90
0.10000000000000142,20,0,60,90
0.10000000000000142,20,1,60,90
0.09999999999999432,20,2,60,90
0.10000000000000142,20,3,60,90
0.10000000000000142,20,4,60,90
0.10000000000000142,20,5,60,90
0.10000000000000142,20,6,60,90
0.10000000000000142,20,7,60,90
0.10000000000000142,20,8,60,90
0.09999999999999432,20,9,60,90
0.09999999999999432,20,10,60,90
0.10000000000000142,20,11,60,90
0.10000000000000142,20,12,60,90
0.09999999999999432,20,13,60,90
0.10000000000000853,20,14,60,90
0.10000000000000853,20,15,60,90
0.09999999999999432,21,0,60,90
0.10000000000000853,21,1,60,90
0.10000000000000853,21,2,60,90
0.09999999999999432,21,3,60,90
0.09999999999999432,21,4,60,90
0.09999999999999432,21,5,60,90
0.10000000000000853,21,6,60,90
0.10000000000000853,21,7,60,90
0.10000000000000853,21,8,60,90
0.10000000000000853,21,9,60,90
0.10000000000000853,21,10,60,90
0.09999999999999432,21,11,60,90
0.10000000000000853,21,12,60,90
0.09999999999999432,21,13,60,90
0.09999999999999432,21,14,60,90
0.10000000000000853,21,15,60,90
0.10000000000000853,22,0,60,90
0.10000000000000853,22,1,60,90
0.09999999999999432,22,2,60,90
0.10000000000000853,22,3,60,90
0.09999999999999432,22,4,60,90
0.09999999999999432,22,5,60,90
0.10000000000000853,22,6,60,90
0.09999999999999432,22,7,60,90
0.10000000000000853,22,8,60,90
0.10000000000000853,22,9,60,90
0.09999999999999432,22,10,60,90
0.10000000000000853,22,11,60,90
0.09999999999999432,22,12,60,90
0.09999999999999432,22,13,60,90
0.10000000000000853,22,14,60,90
0.10000000000000853,22,15,60,90
0.09999999999999432,23,0,60,90
0.09999999999999432,23,1,60,90
0.09999999999999432,23,2,60,90
0.10000000000000853,23,3,60,90
0.10000000000000853,23,4,60,90
0.09999999999999432,23,5,60,90
0.10000000000000853,23,6,60,90
0.09999999999999432,23,7,60,90
0.10000000000000853,23,8,60,90
0.10000000000000853,23,9,60,90
0.09999999999999432,23,10,60,90
0.09999999999999432,23,11,60,90
0.10000000000000853,23,12,60,90
0.09999999999999432,23,13,60,90
0.10000000000000853,23,14,60,90
0.10000000000000853,23,15,60,90
0.09999999999999432,24,0,60,90
0.10000000000000853,24,1,60,90
0.09999999999999432,24,2,60,90
0.09999999999999432,24,3,60,90
0.10000000000000853,24,4,60,90
0.10000000000000853,24,5,60,90
0.09999999999999432,24,6,60,90
0.10000000000000853,24,7,60,90
0.09999999999999432,24,8,60,90
0.10000000000000853,24,9,60,90
0.10000000000000853,24,10,60,90
0.09999999999999432,24,11,60,90
0.10000000000000853,24,12,60,90
0.09999999999999432,24,13,60,90
0.09999999999999432,24,14,60,90
0.10000000000000853,24,15,60,90
0.09999999999999432,25,0,60,90
0.09999999999999432,25,1,60,90
0.10000000000000853,25,2,60,90
0.10000000000000853,25,3,60,90
0.09999999999999432,25,4,60,90
0.09999999999999432,25,5,60,90
0.10000000000000853,25,6,60,90
0.10000000000000853,25,7,60,90
0.09999999999999432,25,8,60,90
0.10000000000000853,25,9,60,90
0.09999999999999432,25,10,60,90
0.10000000000000853,25,11,60,90
0.09999999999999432,25,12,60,90
0.09999999999999432,25,13,60,90
0.10000000000000853,25,14,60,90
0.09999999999999432,25,15,60,90
0.10000000000000853,26,0,60,90
0.10000000000000853,26,1,60,90
0.10000000000000853,26,2,60,90
0.10000000000000853,26,3,60,90
0.09999999999999432,26,4,60,90
0.09999999999999432,26,5,60,90
0.10000000000000853,26,6,60,90
0.09999999999999432,26,7,60,90
0.10000000000000853,26,8,60,90
0.09999999999999432,26,9,60,90
0.09999999999999432,26,10,60,90
0.09999999999999432,26,11,60,90
0.09999999999999432,26,12,60,90
0.10000000000000853,26,13,60,90
0.09999999999999432,26,14,60,90
0.09999999999999432,26,15,60,90
0.09999999999999432,27,0,60,90
0.09999999999999432,27,1,60,90
0.10000000000000853,27,2,60,90
0.09999999999999432,27,3,60,90
0.10000000000000853,27,4,60,90
0.10000000000000853,27,5,60,90
0.09999999999999432,27,6,60,90
0.10000000000000853,27,7,60,90
0.09999999999999432,27,8,60,90
0.10000000000000853,27,9,60,90
0.09999999999999432,27,10,60,90
0.09999999999999432,27,11,60,90
0.10000000000000853,27,12,60,90
0.09999999999999432,27,13,60,90
0.10000000000000853,27,14,60,90
0.10000000000000853,27,15,60,90
0.10000000000000853,28,0,60,90
0.09999999999999432,28,1,60,90
0.09999999999999432,28,2,60,90
0.09999999999999432,28,3,60,90
0.09999999999999432,28,4,60,90
0.09999999999999432,28,5,60,90
0.09999999999999432,28,6,60,90
0.09999999999999432,28,7,60,90
0.09999999999999432,28,8,60,90
0.09999999999999432,28,9,60,90
0.09999999999999432,28,10,60,90
0.10000000000000853,28,11,60,90
0.09999999999999432,28,12,60,90
0.09999999999999432,28,13,60,90
0.10000000000000853,28,14,60,90
0.09999999999999432,28,15,60,90
0.09999999999999432,29,0,60,90
0.09999999999999432,29,1,60,90
0.09999999999999432,29,2,60,90
0.10000000000000853,29,3,60,90
0.10000000000000853,29,4,60,90
0.09999999999999432,29,5,60,90
0.09999999999999432,29,6,60,90
0.09999999999999432,29,7,60,90
0.09999999999999432,29,8,60,90
0.09999999999999432,29,9,60,90
0.10000000000000853,29,10,60,90
0.09999999999999432,29,11,60,90
0.09999999999999432,29,12,60,90
0.10000000000000853,29,13,60,90
0.10000000000000853,29,14,60,90
0.09999999999999432,29,15,60,90
0.09999999999999432,30,0,60,90
0.09999999999999432,30,1,60,90
0.09999999999999432,30,2,60,90
0.09999999999999432,30,3,60,90
0.09999999999999432,30,4,60,90
0.09999999999999432,30,5,60,90
0.10000000000000853,30,6,60,90
0.09999999999999432,30,7,60,90
0.09999999999999432,30,8,60,90
0.09999999999999432,30,9,60,90
0.09999999999999432,30,10,60,90
0.09999999999999432,30,11,60,90
0.09999999999999432,30,12,60,90
0.10000000000000853,30,13,60,90
0.10000000000000853,30,14,60,90
0.09999999999999432,30,15,60,90
0.09999999999999432,31,0,60,90
0.10000000000000853,31,1,60,90
0.09999999999999432,31,2,60,90
0.10000000000000853,31,3,60,90
0.09999999999999432,31,4,60,90
0.10000000000000853,31,5,60,90
0.09999999999999432,31,6,60,90
0.10000000000000853,31,7,60,90
0.09999999999999432,31,8,60,90
0.09999999999999432,31,9,60,90
0.10000000000000853,31,10,60,90
0.10000000000000853,31,11,60,90
0.10000000000000853,31,12,60,90
0.09999999999999432,31,13,60,90
0.09999999999999432,31,14,60,90
0.09999999999999432,31,15,60,90
0.10000000000002274,32,0,60,90
0.09999999999999432,32,1,60,90
0.09999999999999432,32,2,60,90
0.10000000000002274,32,3,60,90
0.09999999999999432,32,4,60,90
0.09999999999999432,32,5,60,90
0.09999999999999432,32,6,60,90
0.09999999999999432,32,7,60,90
0.09999999999999432,32,8,60,90
0.09999999999999432,32,9,60,90
0.09999999999999432,32,10,60,90
0.09999999999999432,32,11,60,90
0.09999999999999432,32,12,60,90
0.10000000000002274,32,13,60,90
0.09999999999999432,32,14,60,90
0.09999999999999432,32,15,60,90
0.10000000000002274,33,0,60,90
0.09999999999999432,33,1,60,90
0.09999999999999432,33,2,60,90
0.09999999999999432,33,3,60,90
0.09999999999999432,33,4,60,90
0.09999999999999432,33,5,60,90
0.09999999999999432,33,6,60,90
0.09999999999999432,33,7,60,90
0.09999999999999432,33,8,60,90
0.10000000000002274,33,9,60,90
0.09999999999999432,33,10,60,90
0.09999999999999432,33,11,60,90
0.09999999999999432,33,12,60,90
0.09999999999999432,33,13,60,90
0.09999999999999432,33,14,60,90
0.09999999999999432,33,15,60,90
0.09999999999999432,34,0,60,90
0.09999999999999432,34,1,60,90
0.09999999999999432,34,2,60,90
0.09999999999999432,34,3,60,90
0.09999999999999432,34,4,60,90
0.09999999999999432,34,5,60,90
0.09999999999999432,34,6,60,90
0.09999999999999432,34,7,60,90
0.09999999999999432,34,8,60,90
0.09999999999999432,34,9,60,90
0.09999999999999432,34,10,60,90
0.09999999999999432,34,11,60,90
0.09999999999999432,34,12,60,90
0.09999999999999432,34,13,60,90
0.09999999999999432,34,14,60,90
0.09999999999999432,34,15,60,90
0.10000000000002274,35,0,60,90
0.09999999999999432,35,1,60,90
0.09999999999999432,35,2,60,90
0.09999999999999432,35,3,60,90
0.09999999999999432,35,4,60,90
0.09999999999999432,35,5,60,90
0.09999999999999432,35,6,60,90
0.09999999999999432,35,7,60,90
0.09999999999999432,35,8,60,90
0.10000000000002274,35,9,60,90
0.09999999999999432,35,10,60,90
0.09999999999999432,35,11,60,90
0.09999999999999432,35,12,60,90
0.09999999999999432,35,13,60,90
0.09999999999999432,35,14,60,90
0.09999999999999432,35,15,60,90
0.09999999999999432,36,0,60,90
0.10000000000002274,36,1,60,90
0.09999999999999432,36,2,60,90
0.09999999999999432,36,3,60,90
0.10000000000002274,36,4,60,90
0.09999999999999432,36,5,60,90
0.09999999999999432,36,6,60,90
0.09999999999999432,36,7,60,90
0.09999999999999432,36,8,60,90
0.09999999999999432,36,9,60,90
0.09999999999999432,36,10,60,90
0.09999999999999432,36,11,60,90
0.09999999999999432,36,12,60,90
0.09999999999999432,36,13,60,90
0.10000000000002274,36,14,60,90
0.09999999999999432,36,15,60,90
0.10000000000002274,37,0,60,90
0.09999999999999432,37,1,60,90
0.09999999999999432,37,2,60,90
0.09999999999999432,37,3,60,90
0.10000000000002274,37,4,60,90
0.09999999999999432,37,5,60,90
0.09999999999999432,37,6,60,90
0.09999999999999432,37,7,60,90
0.09999999999999432,37,8,60,90
0.09999999999999432,37,9,60,90
0.09999999999999432,37,10,60,90
0.09999999999999432,37,11,60,90
0.09999999999999432,37,12,60,90
0.09999999999999432,37,13,60,90
0.09999999999999432,37,14,60,90
0.10000000000002274,37,15,60,90
0.09999999999999432,38,0,60,90
0.10000000000002274,38,1,60,90
0.09999999999999432,38,2,60,90
0.09999999999999432,38,3,60,90
0.10000000000002274,38,4,60,90
0.09999999999999432,38,5,60,90
0.09999999999999432,38,6,60,90
0.09999999999999432,38,7,60,90
0.09999999999999432,38,8,60,90
0.09999999999999432,38,9,60,90
0.09999999999999432,38,10,60,90
0.10000000000002274,38,11,60,90
0.09999999999999432,38,12,60,90
0.09999999999999432,38,13,60,90
0.09999999999999432,38,14,60,90
0.10000000000002274,38,15,60,90
0.09999999999999432,39,0,60,90
0.09999999999999432,39,1,60,90
0.09999999999999432,39,2,60,90
0.09999999999999432,39,3,60,90
0.09999999999999432,39,4,60,90
0.09999999999999432,39,5,60,90
0.09999999999999432,39,6,60,90
0.09999999999999432,39,7,60,90
0.09999999999999432,39,8,60,90
0.09999999999999432,39,9,60,90
0.10000000000002274,39,10,60,90
0.09999999999999432,39,11,60,90
0.09999999999999432,39,12,60,90
0.09999999999999432,39,13,60,90
0.09999999999999432,39,14,60,90
0.10000000000002274,39,15,60,90
0.09999999999999432,40,0,60,90
0.09999999999999432,40,1,60,90
0.09999999999999432,40,2,60,90
0.09999999999999432,40,3,60,90
0.09999999999999432,40,4,60,90
0.09999999999999432,40,5,60,90
0.10000000000002274,40,6,60,90
0.09999999999999432,40,7,60,90
0.10000000000002274,40,8,60,90
0.09999999999999432,40,9,60,90
0.10000000000002274,40,10,60,90
0.09999999999999432,40,11,60,90
0.09999999999999432,40,12,60,90
0.09999999999999432,40,13,60,90
0.09999999999999432,40,14,60,90
0.09999999999999432,40,15,60,90
0.10000000000002274,41,0,60,90
0.09999999999999432,41,1,60,90
0.09999999999999432,41,2,60,90
0.10000000000002274,41,3,60,90
0.09999999999999432,41,4,60,90
0.09999999999999432,41,5,60,90
0.09999999999999432,41,6,60,90
0.09999999999999432,41,7,60,90
0.09999999999999432,41,8,60,90
0.09999999999999432,41,9,60,90
0.10000000000002274,41,10,60,90
0.09999999999999432,41,11,60,90
0.09999999999999432,41,12,60,90
0.09999999999999432,41,13,60,90
0.09999999999999432,41,14,60,90
0.09999999999999432,41,15,60,90
0.09999999999999432,42,0,60,90
0.09999999999999432,42,1,60,90
0.09999999999999432,42,2,60,90
0.10000000000002274,42,3,60,90
0.10000000000002274,42,4,60,90
0.09999999999999432,42,5,60,90
0.09999999999999432,42,6,60,90
0.09999999999999432,42,7,60,90
0.09999999999999432,42,8,60,90
0.10000000000002274,42,9,60,90
0.10000000000002274,42,10,60,90
0.09999999999999432,42,11,60,90
0.09999999999999432,42,12,60,90
0.10000000000002274,42,13,60,90
0.09999999999999432,42,14,60,90
0.10000000000002274,42,15,60,90
0.09999999999999432,43,0,60,90
0.10000000000002274,43,1,60,90
0.09999999999999432,43,2,60,90
0.09999999999999432,43,3,60,90
0.09999999999999432,43,4,60,90
0.09999999999999432,43,5,60,90
0.09999999999999432,43,6,60,90
0.09999999999999432,43,7,60,90
0.09999999999999432,43,8,60,90
0.09999999999999432,43,9,60,90
0.09999999999999432,43,10,60,90
0.10000000000002274,43,11,60,90
0.09999999999999432,43,12,60,90
0.09999999999999432,43,13,60,90
0.09999999999999432,43,14,60,90
0.09999999999999432,43,15,60,90
0.09999999999999432,44,0,60,90
0.09999999999999432,44,1,60,90
0.10000000000002274,44,2,60,90
0.09999999999999432,44,3,60,90
0.10000000000002274,44,4,60,90
0.09999999999999432,44,5,60,90
0.09999999999999432,44,6,60,90
0.09999999999999432,44,7,60,90
0.10000000000002274,44,8,60,90
0.09999999999999432,44,9,60,90
0.09999999999999432,44,10,60,90
0.10000000000002274,44,11,60,90
0.09999999999999432,44,12,60,90
0.09999999999999432,44,13,60,90
0.09999999999999432,44,14,60,90
0.10000000000002274,44,15,60,90
0.09999999999999432,45,0,60,90
0.10000000000002274,45,1,60,90
0.09999999999999432,45,2,60,90
0.09999999999999432,45,3,60,90
0.09999999999999432,45,4,60,90
0.10000000000002274,45,5,60,90
0.09999999999999432,45,6,60,90
0.09999999999999432,45,7,60,90
0.09999999999999432,45,8,60,90
0.09999999999999432,45,9,60,90
0.09999999999999432,45,10,60,90
0.09999999999999432,45,11,60,90
0.09999999999999432,45,12,60,90
0.09999999999999432,45,13,60,90
0.09999999999999432,45,14,60,90
0.09999999999999432,45,15,60,90
0.09999999999999432,46,0,60,90
0.09999999999999432,46,1,60,90
0.10000000000002274,46,2,60,90
0.09999999999999432,46,3,60,90
0.10000000000002274,46,4,60,90
0.09999999999999432,46,5,60,90
0.09999999999999432,46,6,60,90
0.09999999999999432,46,7,60,90
0.10000000000002274,46,8,60,90
0.09999999999999432,46,9,60,90
0.09999999999999432,46,10,60,90
0.09999999999999432,46,11,60,90
0.09999999999999432,46,12,60,90
0.10000000000002274,46,13,60,90
0.09999999999999432,46,14,60,90
0.09999999999999432,46,15,60,90
0.10000000000002274,47,0,60,90
0.09999999999999432,47,1,60,90
0.10000000000002274,47,2,60,90
0.09999999999999432,47,3,60,90
0.09999999999999432,47,4,60,90
0.09999999999999432,47,5,60,90
0.10000000000002274,47,6,60,90
0.09999999999999432,47,7,60,90
0.09999999999999432,47,8,60,90
0.10000000000002274,47,9,60,90
0.10000000000002274,47,10,60,90
0.09999999999999432,47,11,60,90
0.09999999999999432,47,12,60,90
0.10000000000002274,47,13,60,90
0.09999999999999432,47,14,60,90
0.10000000000002274,47,15,60,90
0.10000000000002274,48,0,60,90
0.09999999999999998,48,1,60,90
0.05681818181818177,48,2,60,90
0.09999999999999987,48,3,60,90
0.06590909090909092,48,4,60,90
0.10000000000000009,48,5,60,90
0.10000000000000009,48,6,60,90
0.09999999999999964,48,7,60,90
0.0681818181818179,48,8,60,90
0.10000000000000009,48,9,60,90
0.045454545454545414,48,10,60,90
0.10000000000000009,48,11,60,90
0.10000000000000009,48,12,60,90
0.10000000000000009,48,13,60,90
0.10000000000000009,48,14,60,90
0.10000000000000053,48,15,60,90
0.004545454545454852,49,0,60,90
0.04772727272727195,49,1,60,90
0.10000000000000053,49,2,60,90
0.056818181818182545,49,3,60,90
0.10000000000000053,49,4,60,90
0.09999999999999964,49,5,60,90
0.06818181818181834,49,6,60,90
0.09999999999999964,49,7,60,90
0.09999999999999964,49,8,60,90
0.05909090909090864,49,9,60,90
0.09999999999999964,49,10,60,90
0.06818181818181746,49,11,60,90
0.09999999999999964,49,12,60,90
0.09999999999999964,49,13,60,90
0.09999999999999964,49,14,60,90
0.09999999999999964,49,15,60,90
0.09999999999999964,50,0,60,90
0.09999999999999964,50,1,60,90
0.09999999999999964,50,2,60,90
0.09999999999999964,50,3,60,90
0.09999999999999964,50,4,60,90
0.04545454545454497,50,5,60,90
0.027272727272727337,50,6,60,90
0.09999999999999964,50,7,60,90
0.09999999999999964,50,8,60,90
0.09999999999999964,50,9,60,90
0.09999999999999964,50,10,60,90
0.09999999999999964,50,11,60,90
0.06818181818181657,50,12,60,90
0.09999999999999964,50,13,60,90
0.09999999999999964,50,14,60,90
0.09999999999999964,50,15,60,90
0.10000000000000142,51,0,60,90
0.10000000000000142,51,1,60,90
0.05681818181818343,51,2,60,90
0.09999999999999964,51,3,60,90
0.09999999999999964,51,4,60,90
0.06590909090909136,51,5,60,90
0.09999999999999964,51,6,60,90
0.06818181818181834,51,7,60,90
0.09999999999999964,51,8,60,90
0.09999999999999964,51,9,60,90
0.09999999999999964,51,10,60,90
0.06818181818181834,51,11,60,90
0.09999999999999964,51,12,60,90
0.10000000000000142,51,13,60,90
0.09999999999999964,51,14,60,90
0.004545454545453964,51,15,60,90
0.09999999999999964,52,0,60,90
0.10000000000000142,52,1,60,90
0.09999999999999787,52,2,60,90
0.10000000000000142,52,3,60,90
0.06818181818182012,52,4,60,90
0.10000000000000142,52,5,60,90
0.09999999999999787,52,6,60,90
0.05909090909090864,52,7,60,90
0.10000000000000142,52,8,60,90
0.10000000000000142,52,9,60,90
0.10000000000000142,52,10,60,90
0.10000000000000142,52,11,60,90
0.10000000000000142,52,12,60,90
0.09999999999999787,52,13,60,90
0.10000000000000142,52,14,60,90
0.10000000000000142,52,15,60,90
0.10000000000000142,53,0,60,90
0.05681818181818343,53,1,60,90
0.10000000000000142,53,2,60,90
0.10000000000000142,53,3,60,90
0.10000000000000142,53,4,60,90
0.09999999999999787,53,5,60,90
0.10000000000000142,53,6,60,90
0.10000000000000142,53,7,60,90
0.10000000000000142,53,8,60,90
0.09999999999999787,53,9,60,90
0.10000000000000142,53,10,60,90
0.10000000000000142,53,11,60,90
0.10000000000000142,53,12,60,90
0.05681818181818343,53,13,60,90
0.09999999999999787,53,14,60,90
0.10000000000000142,53,15,60,90
0.06818181818182012,54,0,60,90
0.10000000000000142,54,1,60,90
0.09999999999999787,54,2,60,90
0.10000000000000142,54,3,60,90
0.09999999999999787,54,4,60,90
0.10000000000000142,54,5,60,90
0.06818181818182012,54,6,60,90
0.09999999999999787,54,7,60,90
0.06818181818181657,54,8,60,90
0.10000000000000142,54,9,60,90
0.09999999999999787,54,10,60,90
0.045454545454543194,54,11,60,90
0.09999999999999787,54,12,60,90
0.10000000000000142,54,13,60,90
0.10000000000000142,54,14,60,90
0.10000000000000142,54,15,60,90
0.10000000000000142,55,0,60,90
0.06818181818182012,55,1,60,90
0.10000000000000142,55,2,60,90
0.06818181818182012,55,3,60,90
0.09999999999999787,55,4,60,90
0.06818181818181657,55,5,60,90
0.10000000000000142,55,6,60,90
0.10000000000000142,55,7,60,90
0.10000000000000142,55,8,60,90
0.09999999999999787,55,9,60,90
0.10000000000000142,55,10,60,90
0.02500000000000213,55,11,60,90
0.045454545454546746,55,12,60,90
0.09999999999999787,55,13,60,90
0.10000000000000142,55,14,60,90
0.10000000000000142,55,15,60,90
0.09999999999999787,56,0,60,90
0.10000000000000142,56,1,60,90
0.09999999999999787,56,2,60,90
0.10000000000000142,56,3,60,90
0.09999999999999787,56,4,60,90
0.045454545454543194,56,5,60,90
0.10000000000000142,56,6,60,90
0.10000000000000142,56,7,60,90
0.10000000000000142,56,8,60,90
0.10000000000000142,56,9,60,90
0.10000000000000142,56,10,60,90
0.05909090909090864,56,11,60,90
0.09999999999999787,56,12,60,90
0.06818181818181657,56,13,60,90
0.10000000000000142,56,14,60,90
0.09999999999999787,56,15,60,90
0.09999999999999787,57,0,60,90
0.10000000000000142,57,1,60,90
0.10000000000000142,57,2,60,90
0.10000000000000142,57,3,60,90
0.06818181818182012,57,4,60,90
0.09999999999999787,57,5,60,90
0.10000000000000142,57,6,60,90
0.06818181818182012,57,7,60,90
0.10000000000000142,57,8,60,90
0.10000000000000142,57,9,60,90
0.10000000000000142,57,10,60,90
0.09999999999999432,57,11,60,90
0.04772727272727195,57,12,60,90
0.10000000000000142,57,13,60,90
0.09999999999999432,57,14,60,90
0.10000000000000142,57,15,60,90
0.056818181818186986,58,0,60,90
0.09999999999999432,58,1,60,90
0.06818181818181301,58,2,60,90
0.10000000000000142,58,3,60,90
0.10000000000000142,58,4,60,90
0.10000000000000142,58,5,60,90
0.10000000000000142,58,6,60,90
0.10000000000000142,58,7,60,90
0.09999999999999432,58,8,60,90
0.10000000000000142,58,9,60,90
0.09999999999999432,58,10,60,90
0.10000000000000142,58,11,60,90
0.09999999999999432,58,12,60,90
0.10000000000000142,58,13,60,90
0.10000000000000142,58,14,60,90
0.10000000000000142,58,15,60,90
0.10000000000000142,59,0,60,90
0.10000000000000142,59,1,60,90
0.10000000000000142,59,2,60,90
0.10000000000000142,59,3,60,90
0.10000000000000142,59,4,60,90
0.10000000000000142,59,5,60,90
0.10000000000000142,59,6,60,90
0.09999999999999432,59,7,60,90
0.10000000000000142,59,8,60,90
0.09999999999999432,59,9,60,90
0.09999999999999432,59,10,60,90
0.10000000000000142,59,11,60,90
0.09999999999999432,59,12,60,90
0.09999999999999432,59,13,60,90
0.10000000000000853,59,14,60,90
0.09999999999999432,59,15,60,90
0.10000000000000853,60,0,60,90
0.09999999999999432,60,1,60,90
0.09999999999999432,60,2,60,90
0.10000000000000853,60,3,60,90
0.10000000000000853,60,4,60,90
0.10000000000000853,60,5,60,90
0.09999999999999432,60,6,60,90
0.10000000000000853,60,7,60,90
0.10000000000000853,60,8,60,90
0.10000000000000853,60,9,60,90
0.09999999999999432,60,10,60,90
0.10000000000002274,60,11,60,90
0.09999999999999432,60,12,60,90
0.09999999999999432,60,13,60,90
0.09999999999999432,60,14,60,90
0.09999999999999432,60,15,60,90
0.09999999999999432,61,0,60,90
0.09999999999999432,61,1,60,90
0.09999999999999432,61,2,60,90
0.09999999999999432,61,3,60,90
0.09999999999999432,61,4,60,90
0.10000000000002274,61,5,60,90
0.09999999999999432,61,6,60,90
0.09999999999999432,61,7,60,90
0.09999999999999432,61,8,60,90
0.10000000000002274,61,9,60,90
0.09999999999999432,61,10,60,90
0.09999999999999432,61,11,60,90
0.09999999999999432,61,12,60,90
0.09999999999999432,61,13,60,90
0.09999999999999432,61,14,60,90
0.09999999999999432,61,15,60,90
0.09999999999999432,62,0,60,90
0.10000000000002274,62,1,60,90
0.09999999999999432,62,2,60,90
0.09999999999999432,62,3,60,90
0.09999999999999432,62,4,60,90
0.09999999999999432,62,5,60,90
0.09999999999999432,62,6,60,90
0.10000000000002274,62,7,60,90
0.10000000000002274,62,8,60,90
0.09999999999999432,62,9,60,90
0.09999999999999432,62,10,60,90
0.09999999999999432,62,11,60,90
0.10000000000002274,62,12,60,90
0.09999999999999432,62,13,60,90
0.09999999999999432,62,14,60,90
0.09999999999999432,62,15,60,90
0.10000000000002274,63,0,60,90
0.09999999999999432,63,1,60,90
0.09999999999999432,63,2,60,90
0.09999999999999432,63,3,60,90
0.09999999999999432,63,4,60,90
0.10000000000002274,63,5,60,90
0.09999999999999432,63,6,60,90
0.10000000000002274,63,7,60,90
0.10000000000002274,63,8,60,90
0.09999999999999432,63,9,60,90
0.09999999999999432,63,10,60,90
0.09999999999999432,63,11,60,90
0.09999999999999432,63,12,60,90
0.09999999999999432,63,13,60,90
0.09999999999999432,63,14,60,90
0.09999999999999432,63,15,60,90
0.09999999999999432,64,0,60,90
0.09999999999999432,64,1,60,90
0.09999999999999432,64,2,60,90
0.09999999999999432,64,3,60,90
0.09999999999999432,64,4,60,90
0.09999999999999432,64,5,60,90
0.09999999999999432,64,6,60,90
0.09999999999999432,64,7,60,90
0.09999999999999432,64,8,60,90
0.09999999999999432,64,9,60,90
0.09999999999999432,64,10,60,90
0.09999999999999432,64,11,60,90
0.09999999999999432,64,12,60,90
0.09999999999999432,64,13,60,90
0.09999999999999432,64,14,60,90
0.10000000000000853,64,15,60,90
0.09999999999999432,65,0,60,90
0.10000000000000853,65,1,60,90
0.09999999999999432,65,2,60,90
0.09999999999999432,65,3,60,90
0.09999999999999432,65,4,60,90
0.09999999999999432,65,5,60,90
0.10000000000002274,65,6,60,90
0.09999999999999432,65,7,60,90
0.09999999999999432,65,8,60,90
0.09999999999999432,65,9,60,90
0.09999999999999432,65,10,60,90
0.09999999999999432,65,11,60,90
0.09999999999999432,65,12,60,90
0.10000000000002274,65,13,60,90
0.10000000000002274,65,14,60,90
0.09999999999999432,65,15,60,90
0.09999999999999432,66,0,60,90
0.09999999999999432,66,1,60,90
0.09999999999999432,66,2,60,90
0.10000000000002274,66,3,60,90
0.09999999999999432,66,4,60,90
0.09999999999999432,66,5,60,90
0.09999999999999432,66,6,60,90
0.09999999999999432,66,7,60,90
0.10000000000002274,66,8,60,90
0.09999999999999432,66,9,60,90
0.09999999999999432,66,10,60,90
0.10000000000002274,66,11,60,90
0.09999999999999432,66,12,60,90
0.09999999999999432,66,13,60,90
0.09999999999999432,66,14,60,90
0.09999999999999432,66,15,60,90
0.09999999999999432,67,0,60,90
0.09999999999999432,67,1,60,90
0.09999999999999432,67,2,60,90
0.09999999999999432,67,3,60,90
0.10000000000002274,67,4,60,90
0.09999999999999432,67,5,60,90
0.10000000000002274,67,6,60,90
0.09999999999999432,67,7,60,90
0.09999999999999432,67,8,60,90
0.09999999999999432,67,9,60,90
0.09999999999999432,67,10,60,90
0.09999999999999432,67,11,60,90
0.09999999999999432,67,12,60,90
0.10000000000002274,67,13,60,90
0.09999999999999432,67,14,60,90
0.09999999999999432,67,15,60,90
0.09999999999999432,68,0,60,90
0.09999999999999432,68,1,60,90
0.10000000000002274,68,2,60,90
0.09999999999999432,68,3,60,90
0.09999999999999432,68,4,60,90
0.10000000000002274,68,5,60,90
0.09999999999999432,68,6,60,90
0.09999999999999432,68,7,60,90
0.09999999999999432,68,8,60,90
0.09999999999999432,68,9,60,90
0.09999999999999432,68,10,60,90
0.09999999999999432,68,11,60,90
0.09999999999999432,68,12,60,90
0.10000000000002274,68,13,60,90
0.09999999999999432,68,14,60,90
0.09999999999999432,68,15,60,90
0.09999999999999432,69,0,60,90
0.09999999999999432,69,1,60,90
0.10000000000002274,69,2,60,90
0.09999999999999432,69,3,60,90
0.10000000000000009,69,4,60,90
0.10000000000000009,69,5,60,90
0.09999999999999964,69,6,60,90
0.09999999999999964,69,7,60,90
0.10000000000000053,69,8,60,90
0.09999999999999964,69,9,60,90
0.09999999999999964,69,10,60,90
0.09999999999999964,69,11,60,90
0.10000000000000142,69,12,60,90
0.09999999999999964,69,13,60,90
0.09999999999999964,69,14,60,90
0.09999999999999964,69,15,60,90
0.09999999999999787,70,0,60,90
0.10000000000000142,70,1,60,90
0.09999999999999787,70,2,60,90
0.10000000000000142,70,3,60,90
0.10000000000000142,70,4,60,90
0.09999999999999787,70,5,60,90
0.09999999999999787,70,6,60,90
0.09999999999999787,70,7,60,90
0.09999999999999787,70,8,60,90
0.10000000000000142,70,9,60,90
0.10000000000000142,70,10,60,90
0.10000000000000142,70,11,60,90
0.10000000000000142,70,12,60,90
0.10000000000000142,70,13,60,90
0.09999999999999787,70,14,60,90
0.09999999999999787,70,15,60,90
0.10000000000000142,71,0,60,90
0.10000000000000142,71,1,60,90
0.09999999999999787,71,2,60,90
0.10000000000000142,71,3,60,90
0.10000000000000142,71,4,60,90
0.09999999999999787,71,5,60,90
0.10000000000000142,71,6,60,90
0.09999999999999787,71,7,60,90
0.09999999999999787,71,8,60,90
0.09999999999999787,71,9,60,90
0.10000000000000142,71,10,60,90
0.10000000000000142,71,11,60,90
0.10000000000000142,71,12,60,90
0.10000000000000142,71,13,60,90
0.09999999999999787,71,14,60,90
0.10000000000000142,71,15,60,90
0.09999999999999787,72,0,60,90
0.10000000000000142,72,1,60,90
0.09999999999999787,72,2,60,90
0.10000000000000142,72,3,60,90
0.09999999999999787,72,4,60,90
0.10000000000000142,72,5,60,90
0.09999999999999787,72,6,60,90
0.10000000000000142,72,7,60,90
0.10000000000000142,72,8,60,90
0.10000000000000142,72,9,60,90
0.10000000000000142,72,10,60,90
0.09999999999999432,72,11,60,90
0.10000000000000142,72,12,60,90
0.10000000000000142,72,13,60,90
0.10000000000000142,72,14,60,90
0.09999999999999432,72,15,60,90
0.10000000000000853,73,0,60,90
0.09999999999999432,73,1,60,90
0.09999999999999432,73,2,60,90
0.10000000000000853,73,3,60,90
0.09999999999999432,73,4,60,90
0.10000000000000853,73,5,60,90
0.10000000000000853,73,6,60,90
0.10000000000000853,73,7,60,90
0.09999999999999432,73,8,60,90
0.10000000000000853,73,9,60,90
0.09999999999999432,73,10,60,90
0.09999999999999432,73,11,60,90
0.10000000000002274,73,12,60,90
0.09999999999999432,73,13,60,90
0.10000000000002274,73,14,60,90
0.09999999999999432,73,15,60,90
0.09999999999999432,74,0,60,90
0.09999999999999432,74,1,60,90
0.09999999999999432,74,2,60,90
0.09999999999999432,74,3,60,90
0.09999999999999432,74,4,60,90
0.09999999999999432,74,5,60,90
0.09999999999999432,74,6,60,90
0.09999999999999432,74,7,60,90
0.09999999999999432,74,8,60,90
0.09999999999999432,74,9,60,90
0.09999999999999432,74,10,60,90
0.09999999999999432,74,11,60,90
0.09999999999999432,74,12,60,90
0.09999999999999432,74,13,60,90
0.09999999999999432,74,14,60,90
0.09999999999999432,74,15,60,90
0.09999999999999432,75,0,60,90
0.09999999999999432,75,1,60,90
0.09999999999999432,75,2,60,90
0.09999999999999432,75,3,60,90
0.09999999999999432,75,4,60,90
0.09999999999999432,75,5,60,90
0.09999999999999432,75,6,60,90
0.09999999999999432,75,7,60,90
0.09999999999999432,75,8,60,90
0.09999999999999432,75,9,60,90
0.09999999999999432,75,10,60,90
0.09999999999999432,75,11,60,90
0.09999999999999432,75,12,60,90
0.10000000000002274,75,13,60,90
0.10000000000002274,75,14,60,90
0.10000000000002274,75,15,60,90
0.09999999999999432,76,0,60,90
0.09999999999999987,76,1,60,90
0.10000000000000009,76,2,60,90
0.10000000000000009,76,3,60,90
0.10000000000000009,76,4,60,90
0.10000000000000009,76,5,60,90
0.10000000000000009,76,6,60,90
0.10000000000000009,76,7,60,90
0.09999999999999964,76,8,60,90
0.10000000000000009,76,9,60,90
0.09999999999999964,76,10,60,90
0.09999999999999964,76,11,60,90
0.10000000000000053,76,12,60,90
0.10000000000000053,76,13,60,90
0.10000000000000053,76,14,60,90
0.09999999999999964,76,15,60,90
0.09999999999999964,77,0,60,90
0.09999999999999964,77,1,60,90
0.10000000000000053,77,2,60,90
0.09999999999999964,77,3,60,90
0.09999999999999964,77,4,60,90
0.09999999999999964,77,5,60,90
0.09999999999999964,77,6,60,90
0.09999999999999964,77,7,60,90
0.09999999999999964,77,8,60,90
0.09999999999999964,77,9,60,90
0.09999999999999964,77,10,60,90
0.09999999999999964,77,11,60,90
0.09999999999999964,77,12,60,90
0.09999999999999964,77,13,60,90
0.09999999999999964,77,14,60,90
0.09999999999999964,77,15,60,90
0.09999999999999964,78,0,60,90
0.09999999999999964,78,1,60,90
0.09999999999999964,78,2,60,90
0.09999999999999964,78,3,60,90
0.10000000000000142,78,4,60,90
0.09999999999999964,78,5,60,90
0.09999999999999964,78,6,60,90
0.09999999999999964,78,7,60,90
0.09999999999999964,78,8,60,90
0.10000000000000142,78,9,60,90
0.10000000000000142,78,10,60,90
0.09999999999999787,78,11,60,90
0.09999999999999787,78,12,60,90
0.10000000000000142,78,13,60,90
0.10000000000000142,78,14,60,90
0.09999999999999787,78,15,60,90
0.10000000000000142,79,0,60,90
0.09999999999999787,79,1,60,90
0.09999999999999787,79,2,60,90
0.10000000000000142,79,3,60,90
0.09999999999999787,79,4,60,90
0.10000000000000142,79,5,60,90
0.09999999999999787,79,6,60,90
0.09999999999999787,79,7,60,90
0.09999999999999787,79,8,60,90
0.10000000000000142,79,9,60,90
0.10000000000000142,79,10,60,90
0.09999999999999787,79,11,60,90
0.09999999999999787,79,12,60,90
0.09999999999999787,79,13,60,90
0.10000000000000142,79,14,60,90
0.10000000000000142,79,15,60,90
0.09999999999999787,80,0,60,90
0.09999999999999787,80,1,60,90
0.10000000000000142,80,2,60,90
0.10000000000000142,80,3,60,90
0.09999999999999787,80,4,60,90
0.10000000000000142,80,5,60,90
0.10000000000000142,80,6,60,90
0.10000000000000142,80,7,60,90
0.09999999999999787,80,8,60,90
0.10000000000000142,80,9,60,90
0.10000000000000142,80,10,60,90
0.09999999999999787,80,11,60,90
0.09999999999999787,80,12,60,90
0.10000000000000142,80,13,60,90
0.10000000000000142,80,14,60,90
0.09999999999999787,80,15,60,90
0.10000000000000142,81,0,60,90
0.10000000000000142,81,1,60,90
0.09999999999999787,81,2,60,90
0.09999999999999787,81,3,60,90
0.09999999999999787,81,4,60,90
0.10000000000000142,81,5,60,90
0.10000000000000142,81,6,60,90
0.09999999999999787,81,7,60,90
0.10000000000000142,81,8,60,90
0.10000000000000142,81,9,60,90
0.10000000000000142,81,10,60,90
0.10000000000000142,81,11,60,90
0.10000000000000142,81,12,60,90
0.09999999999999432,81,13,60,90
0.10000000000000142,81,14,60,90
0.10000000000000142,81,15,60,90
0.10000000000000142,82,0,60,90
0.09999999999999432,82,1,60,90
0.10000000000000142,82,2,60,90
0.10000000000000142,82,3,60,90
0.10000000000000142,82,4,60,90
0.09999999999999432,82,5,60,90
0.10000000000000142,82,6,60,90
0.10000000000000142,82,7,60,90
0.10000000000000142,82,8,60,90
0.10000000000000142,82,9,60,90
0.10000000000000142,82,10,60,90
0.10000000000000142,82,11,60,90
0.09999999999999432,82,12,60,90
0.10000000000000142,82,13,60,90
0.10000000000000142,82,14,60,90
0.10000000000000142,82,15,60,90
0.10000000000000142,83,0,60,90
0.10000000000000142,83,1,60,90
0.10000000000000142,83,2,60,90
0.10000000000000142,83,3,60,90
0.10000000000000142,83,4,60,90
0.10000000000000142,83,5,60,90
0.09999999999999432,83,6,60,90
0.10000000000000142,83,7,60,90
0.10000000000000142,83,8,60,90
0.10000000000000142,83,9,60,90
0.10000000000000142,83,10,60,90
0.10000000000000142,83,11,60,90
0.10000000000000142,83,12,60,90
0.10000000000000142,83,13,60,90
0.09999999999999432,83,14,60,90
0.10000000000000142,83,15,60,90
0.10000000000000142,84,0,60,90
0.10000000000000142,84,1,60,90
0.10000000000000142,84,2,60,90
0.10000000000000142,84,3,60,90
0.10000000000000142,84,4,60,90
0.09999999999999432,84,5,60,90
0.09999999999999432,84,6,60,90
0.10000000000000142,84,7,60,90
0.10000000000000142,84,8,60,90
0.09999999999999432,84,9,60,90
0.10000000000000142,84,10,60,90
0.10000000000000142,84,11,60,90
0.10000000000000142,84,12,60,90
0.09999999999999432,84,13,60,90
0.10000000000000142,84,14,60,90
0.10000000000000142,84,15,60,90
0.10000000000000142,85,0,60,90
0.10000000000000142,85,1,60,90
0.10000000000000142,85,2,60,90
0.09999999999999432,85,3,60,90
0.10000000000000142,85,4,60,90
0.10000000000000142,85,5,60,90
0.10000000000000142,85,6,60,90
0.09999999999999432,85,7,60,90
0.10000000000000142,85,8,60,90
0.09999999999999432,85,9,60,90
0.10000000000000853,85,10,60,90
0.10000000000000853,85,11,60,90
0.09999999999999432,85,12,60,90
0.09999999999999432,85,13,60,90
0.09999999999999432,85,14,60,90
0.10000000000000853,85,15,60,90
0.10000000000000853,86,0,60,90
0.09999999999999432,86,1,60,90
0.09999999999999432,86,2,60,90
0.10000000000000853,86,3,60,90
0.09999999999999432,86,4,60,90
0.09999999999999432,86,5,60,90
0.10000000000000853,86,6,60,90
0.10000000000000853,86,7,60,90
0.09999999999999432,86,8,60,90
0.10000000000000853,86,9,60,90
0.09999999999999432,86,10,60,90
0.09999999999999432,86,11,60,90
0.09999999999999432,86,12,60,90
0.10000000000000853,86,13,60,90
0.10000000000000853,86,14,60,90
0.09999999999999432,86,15,60,90
0.10000000000000853,87,0,60,90
0.09999999999999432,87,1,60,90
0.09999999999999432,87,2,60,90
0.10000000000000853,87,3,60,90
0.10000000000000853,87,4,60,90
0.09999999999999432,87,5,60,90
0.10000000000000853,87,6,60,90
0.10000000000000853,87,7,60,90
0.10000000000000853,87,8,60,90
0.09999999999999432,87,9,60,90
0.09999999999999432,87,10,60,90
0.10000000000000853,87,11,60,90
0.09999999999999432,87,12,60,90
0.10000000000000853,87,13,60,90
0.09999999999999432,87,14,60,90
0.09999999999999432,87,15,60,90
0.10000000000000853,88,0,60,90
0.09999999999999432,88,1,60,90
0.09999999999999432,88,2,60,90
0.10000000000000853,88,3,60,90
0.09999999999999432,88,4,60,90
0.09999999999999432,88,5,60,90
0.10000000000000853,88,6,60,90
0.09999999999999432,88,7,60,90
0.09999999999999432,88,8,60,90
0.10000000000000853,88,9,60,90
0.09999999999999432,88,10,60,90
0.09999999999999432,88,11,60,90
0.09999999999999432,88,12,60,90
0.09999999999999432,88,13,60,90
0.10000000000000853,88,14,60,90
0.09999999999999432,88,15,60,90
0.10000000000000853,89,0,60,90
0.10000000000000853,89,1,60,90
0.09999999999999432,89,2,60,90
0.09999999999999432,89,3,60,90
0.10000000000000853,89,4,60,90
0.09999999999999432,89,5,60,90
0.10000000000000853,89,6,60,90
0.09999999999999432,89,7,60,90
0.09999999999999432,89,8,60,90
0.10000000000000853,89,9,60,90
0.10000000000000853,89,10,60,90
0.09999999999999432,89,11,60,90
0.09999999999999432,89,12,60,90
0.09999999999999432,89,13,60,90
0.09999999999999432,89,14,60,90
0.10000000000000853,89,15,60,90
0.10000000000000853,90,0,60,90
0.09999999999999432,90,1,60,90
0.09999999999999432,90,2,60,90
0.09999999999999432,90,3,60,90
0.10000000000000853,90,4,60,90
0.09999999999999432,90,5,60,90
0.09999999999999432,90,6,60,90
0.10000000000000853,90,7,60,90
0.10000000000000853,90,8,60,90
0.10000000000000853,90,9,60,90
0.09999999999999432,90,10,60,90
0.10000000000000853,90,11,60,90
0.09999999999999432,90,12,60,90
0.09999999999999432,90,13,60,90
0.09999999999999432,90,14,60,90
0.09999999999999432,90,15,60,90
0.10000000000000853,91,0,60,90
0.10000000000000853,91,1,60,90
0.09999999999999432,91,2,60,90
0.09999999999999432,91,3,60,90
0.09999999999999432,91,4,60,90
0.09999999999999432,91,5,60,90
0.10000000000000853,91,6,60,90
0.09999999999999432,91,7,60,90
0.09999999999999432,91,8,60,90
0.09999999999999432,91,9,60,90
0.09999999999999432,91,10,60,90
0.10000000000000853,91,11,60,90
0.10000000000000853,91,12,60,90
0.09999999999999432,91,13,60,90
0.10000000000000853,91,14,60,90
0.10000000000000853,91,15,60,90
0.10000000000000853,92,0,60,90
0.09999999999999432,92,1,60,90
0.10000000000000853,92,2,60,90
0.09999999999999432,92,3,60,90
0.09999999999999432,92,4,60,90
0.10000000000000853,92,5,60,90
0.09999999999999432,92,6,60,90
0.09999999999999432,92,7,60,90
0.10000000000000853,92,8,60,90
0.09999999999999432,92,9,60,90
0.09999999999999432,92,10,60,90
0.10000000000000853,92,11,60,90
0.09999999999999432,92,12,60,90
0.10000000000000853,92,13,60,90
0.09999999999999432,92,14,60,90
0.09999999999999432,92,15,60,90
0.10000000000000853,93,0,60,90
0.09999999999999432,93,1,60,90
0.09999999999999432,93,2,60,90
0.09999999999999432,93,3,60,90
0.10000000000002274,93,4,60,90
0.09999999999999432,93,5,60,90
0.09999999999999432,93,6,60,90
0.10000000000002274,93,7,60,90
0.09999999999999432,93,8,60,90
0.09999999999999432,93,9,60,90
0.09999999999999432,93,10,60,90
0.09999999999999432,93,11,60,90
0.09999999999999432,93,12,60,90
0.09999999999999432,93,13,60,90
0.09999999999999432,93,14,60,90
0.10000000000002274,93,15,60,90
0.10000000000002274,94,0,60,90
0.09999999999999432,94,1,60,90
0.09999999999999432,94,2,60,90
0.09999999999999432,94,3,60,90
0.09999999999999432,94,4,60,90
0.09999999999999432,94,5,60,90
0.09999999999999432,94,6,60,90
0.10000000000002274,94,7,60,90
0.09999999999999432,94,8,60,90
0.09999999999999432,94,9,60,90
0.10000000000002274,94,10,60,90
0.10000000000002274,94,11,60,90
0.09999999999999432,94,12,60,90
0.09999999999999432,94,13,60,90
0.09999999999999432,94,14,60,90
0.10000000000002274,94,15,60,90
0.09999999999999432,95,0,60,90
0.09999999999999432,95,1,60,90
0.10000000000002274,95,2,60,90
0.10000000000002274,95,3,60,90
0.09999999999999432,95,4,60,90
0.10000000000002274,95,5,60,90
0.10000000000002274,95,6,60,90
0.09999999999999432,95,7,60,90
0.09999999999999432,95,8,60,90
0.09999999999999432,95,9,60,90
0.10000000000002274,95,10,60,90
0.09999999999999432,95,11,60,90
0.09999999999999432,95,12,60,90
0.10000000000002274,95,13,60,90
0.09999999999999432,95,14,60,90
0.09999999999999432,95,15,60,90
0.09999999999999432,96,0,60,90
0.09999999999999432,96,1,60,90
0.06818181818181301,96,2,60,90
0.09999999999999432,96,3,60,90
0.09999999999999432,96,4,60,90
0.09999999999999432,96,5,60,90
0.10000000000002274,96,6,60,90
0.09999999999999432,96,7,60,90
0.09999999999999432,96,8,60,90
0.10000000000002274,96,9,60,90
0.09999999999999432,96,10,60,90
0.056818181818186986,96,11,60,90
0.09999999999999432,96,12,60,90
0.09999999999999432,96,13,60,90
0.09999999999999432,96,14,60,90
0.09999999999999432,96,15,60,90
0.09999999999999432,97,0,60,90
0.09999999999999432,97,1,60,90
0.10000000000002274,97,2,60,90
0.09999999999999432,97,3,60,90
0.056818181818186986,97,4,60,90
0.09999999999999432,97,5,60,90
0.09999999999999432,97,6,60,90
0.09999999999999432,97,7,60,90
0.09999999999999432,97,8,60,90
0.06818181818181301,97,9,60,90
0.09999999999999432,97,10,60,90
0.09999999999999432,97,11,60,90
0.09999999999999432,97,12,60,90
0.09999999999999432,97,13,60,90
0.09999999999999432,97,14,60,90
0.09999999999999432,97,15,60,90
0.09999999999999432,98,0,60,90
0.10000000000002274,98,1,60,90
0.09999999999999432,98,2,60,90
0.10000000000002274,98,3,60,90
0.09999999999999432,98,4,60,90
0.09999999999999432,98,5,60,90
0.09999999999999432,98,6,60,90
0.09999999999999432,98,7,60,90
0.10000000000002274,98,8,60,90
0.09999999999999432,98,9,60,90
0.09999999999999432,98,10,60,90
0.09999999999999432,98,11,60,90
0.09999999999999432,98,12,60,90
0.09999999999999432,98,13,60,90
0.09999999999999432,98,14,60,90
0.09999999999999432,98,15,60,90
0.09999999999999432,99,0,60,90
0.10000000000002274,99,1,60,90
0.09999999999999432,99,2,60,90
0.09999999999999432,99,3,60,90
0.09999999999999432,99,4,60,90
0.10000000000002274,99,5,60,90
0.09999999999999432,99,6,60,90
0.10000000000002274,99,7,60,90
0.09999999999999432,99,8,60,90
0.09999999999999432,99,9,60,90
0.09999999999999432,99,10,60,90
0.09999999999999432,99,11,60,90
0.09999999999999432,99,12,60,90
0.09999999999999432,99,13,60,90
0.09999999999999432,99,14,60,90
0.09999999999999432,99,15,60,90
0.09999999999999432,100,0,60,90
0.09999999999999432,100,1,60,90
0.09999999999999432,100,2,60,90
0.09999999999999432,100,3,60,90
0.09999999999999432,100,4,60,90
0.10000000000002274,100,5,60,90
0.10000000000002274,100,6,60,90
0.10000000000002274,100,7,60,90
0.09999999999999432,100,8,60,90
0.10000000000002274,100,9,60,90
0.09999999999999432,100,10,60,90
0.09999999999999432,100,11,60,90
0.09999999999999432,100,12,60,90
0.09999999999999432,100,13,60,90
0.09999999999999432,100,14,60,90
0.09999999999999432,100,15,60,90
0.09999999999999432,101,0,60,90
0.10000000000002274,101,1,60,90
0.09999999999999432,101,2,60,90
0.09999999999999432,101,3,60,90
0.09999999999999432,101,4,60,90
0.09999999999999432,101,5,60,90
0.09999999999999432,101,6,60,90
0.09999999999999432,101,7,60,90
0.09999999999999432,101,8,60,90
0.09999999999999432,101,9,60,90
0.10000000000002274,101,10,60,90
0.09999999999999432,101,11,60,90
0.09999999999999432,101,12,60,90
0.09999999999999432,101,13,60,90
0.09999999999999432,101,14,60,90
0.09999999999999432,101,15,60,90
0.09999999999999432,102,0,60,90
0.10000000000002274,102,1,60,90
0.10000000000002274,102,2,60,90
0.10000000000002274,102,3,60,90
0.09999999999999432,102,4,60,90
0.10000000000002274,102,5,60,90
0.09999999999999432,102,6,60,90
0.09999999999999432,102,7,60,90
0.09999999999999432,102,8,60,90
0.09999999999999432,102,9,60,90
0.09999999999999432,102,10,60,90
0.09999999999999432,102,11,60,90
0.09999999999999432,102,12,60,90
0.09999999999999432,102,13,60,90
0.09999999999999432,102,14,60,90
0.09999999999999432,102,15,60,90
0.09999999999999432,103,0,60,90
0.09999999999999432,103,1,60,90
0.10000000000002274,103,2,60,90
0.09999999999999432,103,3,60,90
0.09999999999999432,103,4,60,90
0.09999999999999432,103,5,60,90
0.09999999999999432,103,6,60,90
0.09999999999999432,103,7,60,90
0.10000000000002274,103,8,60,90
0.09999999999999432,103,9,60,90
0.09999999999999432,103,10,60,90
0.09999999999999432,103,11,60,90
0.09999999999999432,103,12,60,90
0.09999999999999432,103,13,60,90
0.10000000000002274,103,14,60,90
0.09999999999999432,103,15,60,90
0.10000000000002274,104,0,60,90
0.10000000000002274,104,1,60,90
0.09999999999999432,104,2,60,90
0.09999999999999432,104,3,60,90
0.09999999999999432,104,4,60,90
0.09999999999999432,104,5,60,90
0.09999999999999432,104,6,60,90
0.10000000000002274,104,7,60,90
0.10000000000002274,104,8,60,90
0.09999999999999432,104,9,60,90
0.09999999999999432,104,10,60,90
0.09999999999999432,104,11,60,90
0.09999999999999432,104,12,60,90
0.09999999999999432,104,13,60,90
0.09999999999999432,104,14,60,90
0.09999999999999432,104,15,60,90
0.09999999999999432,105,0,60,90
0.09999999999999432,105,1,60,90
0.09999999999999432,105,2,60,90
0.09999999999999432,105,3,60,90
0.10000000000002274,105,4,60,90
0.09999999999999432,105,5,60,90
0.09999999999999432,105,6,60,90
0.09999999999999432,105,7,60,90
0.10000000000002274,105,8,60,90
0.09999999999999432,105,9,60,90
0.09999999999999432,105,10,60,90
0.09999999999999432,105,11,60,90
0.09999999999999432,105,12,60,90
0.09999999999999432,105,13,60,90
0.09999999999999432,105,14,60,90
0.10000000000002274,105,15,60,90
0.09999999999999432,106,0,60,90
0.10000000000002274,106,1,60,90
0.10000000000002274,106,2,60,90
0.09999999999999432,106,3,60,90
0.09999999999999432,106,4,60,90
0.09999999999999432,106,5,60,90
0.09999999999999432,106,6,60,90
0.10000000000002274,106,7,60,90
0.09999999999999432,106,8,60,90
0.09999999999999432,106,9,60,90
0.09999999999999432,106,10,60,90
0.09999999999999432,106,11,60,90
0.10000000000002274,106,12,60,90
0.09999999999999432,106,13,60,90
0.09999999999999432,106,14,60,90
0.09999999999999432,106,15,60,90
0.09999999999999432,107,0,60,90
0.09999999999999432,107,1,60,90
0.09999999999999432,107,2,60,90
0.09999999999999432,107,3,60,90
0.10000000000002274,107,4,60,90
0.09999999999999432,107,5,60,90
0.09999999999999432,107,6,60,90
0.09999999999999432,107,7,60,90
0.09999999999999432,107,8,60,90
0.09999999999999432,107,9,60,90
0.10000000000002274,107,10,60,90
0.09999999999999432,107,11,60,90
0.09999999999999432,107,12,60,90
0.09999999999999432,107,13,60,90
0.09999999999999432,107,14,60,90
0.09999999999999432,107,15,60,90
0.09999999999999432,108,0,60,90
0.09999999999999432,108,1,60,90
0.09999999999999432,108,2,60,90
0.09999999999999432,108,3,60,90
0.09999999999999432,108,4,60,90
0.09999999999999432,108,5,60,90
0.09999999999999432,108,6,60,90
0.09999999999999432,108,7,60,90
0.10000000000002274,108,8,60,90
0.10000000000002274,108,9,60,90
0.09999999999999432,108,10,60,90
0.09999999999999432,108,11,60,90
0.09999999999999432,108,12,60,90
0.09999999999999432,108,13,60,90
0.09999999999999432,108,14,60,90
0.09999999999999432,108,15,60,90
0.09999999999999432,109,0,60,90
0.09999999999999432,109,1,60,90
0.10000000000000009,109,2,60,90
0.09999999999999964,109,3,60,90
0.09999999999999964,109,4,60,90
0.09999999999999964,109,5,60,90
0.10000000000000142,109,6,60,90
0.10000000000000142,109,7,60,90
0.10000000000000142,109,8,60,90
0.09999999999999787,109,9,60,90
0.10000000000000142,109,10,60,90
0.09999999999999432,109,11,60,90
0.10000000000000142,109,12,60,90
0.10000000000000142,109,13,60,90
0.10000000000000142,109,14,60,90
0.10000000000000142,109,15,60,90
0.10000000000000142,110,0,60,90
0.10000000000000142,110,1,60,90
0.09999999999999432,110,2,60,90
0.09999999999999432,110,3,60,90
0.10000000000000853,110,4,60,90
0.09999999999999432,110,5,60,90
0.10000000000000853,110,6,60,90
0.10000000000000853,110,7,60,90
0.10000000000000853,110,8,60,90
0.09999999999999432,110,9,60,90
0.09999999999999432,110,10,60,90
0.10000000000000853,110,11,60,90
0.10000000000000853,110,12,60,90
0.09999999999999432,110,13,60,90
0.10000000000000853,110,14,60,90
0.09999999999999432,110,15,60,90
0.09999999999999432,111,0,60,90
0.09999999999999432,111,1,60,90
0.09999999999999432,111,2,60,90
0.09999999999999432,111,3,60,90
0.09999999999999432,111,4,60,90
0.09999999999999432,111,5,60,90
0.09999999999999432,111,6,60,90
0.09999999999999432,111,7,60,90
0.09999999999999432,111,8,60,90
0.09999999999999432,111,9,60,90
0.09999999999999432,111,10,60,90
0.10000000000002274,111,11,60,90
0.09999999999999432,111,12,60,90
0.10000000000002274,111,13,60,90
0.09999999999999432,111,14,60,90
0.09999999999999432,111,15,60,90
0.09999999999999432,112,0,60,90
0.09999999999999432,112,1,60,90
0.09999999999999432,112,2,60,90
0.10000000000002274,112,3,60,90
0.10000000000002274,112,4,60,90
0.09999999999999432,112,5,60,90
0.09999999999999432,112,6,60,90
0.09999999999999432,112,7,60,90
0.09999999999999432,112,8,60,90
0.10000000000002274,112,9,60,90
0.09999999999999432,112,10,60,90
0.09999999999999432,112,11,60,90
0.09999999999999432,112,12,60,90
0.09999999999999432,112,13,60,90
0.09999999999999432,112,14,60,90
0.09999999999999432,112,15,60,90
0.09999999999999432,113,0,60,90
0.09999999999999432,113,1,60,90
0.10000000000002274,113,2,60,90
0.09999999999999432,113,3,60,90
0.09999999999999432,113,4,60,90
0.10000000000002274,113,5,60,90
0.09999999999999432,113,6,60,90
0.09999999999999432,113,7,60,90
0.09999999999999432,113,8,60,90
0.09999999999999432,113,9,60,90
0.09999999999999432,113,10,60,90
0.10000000000002274,113,11,60,90
0.09999999999999432,113,12,60,90
0.09999999999999432,113,13,60,90
0.09999999999999432,113,14,60,90
0.09999999999999432,113,15,60,90
0.09999999999999432,114,0,60,90
0.09999999999999432,114,1,60,90
0.09999999999999432,114,2,60,90
0.09999999999999432,114,3,60,90
0.09999999999999432,114,4,60,90
0.10000000000002274,114,5,60,90
0.09999999999999432,114,6,60,90
0.10000000000002274,114,7,60,90
0.09999999999999432,114,8,60,90
0.09999999999999432,114,9,60,90
0.09999999999999432,114,10,60,90
0.10000000000002274,114,11,60,90
0.10000000000002274,114,12,60,90
0.09999999999999432,114,13,60,90
0.09999999999999432,114,14,60,90
0.09999999999999432,114,15,60,90
0.09999999999999432,115,0,60,90
0.09999999999999432,115,1,60,90
0.09999999999999432,115,2,60,90
0.09999999999999432,115,3,60,90
0.10000000000002274,115,4,60,90
0.09999999999999432,115,5,60,90
0.09999999999999432,115,6,60,90
0.10000000000000142,115,7,60,90
0.06818181818181301,115,8,60,90
0.10000000000000142,115,9,60,90
0.10000000000000142,115,10,60,90
0.09999999999999432,115,11,60,90
0.10000000000000142,115,12,60,90
0.10000000000000142,115,13,60,90
0.10000000000000142,115,14,60,90
0.09999999999999432,115,15,60,90
0.10000000000000142,116,0,60,90
0.09999999999999432,116,1,60,90
0.10000000000000853,116,2,60,90
0.09999999999999432,116,3,60,90
0.09999999999999432,116,4,60,90
0.09999999999999432,116,5,60,90
0.09999999999999432,116,6,60,90
0.10000000000000853,116,7,60,90
0.09999999999999432,116,8,60,90
0.10000000000000853,116,9,60,90
0.10000000000000853,116,10,60,90
0.09999999999999432,116,11,60,90
0.09999999999999432,116,12,60,90
0.10000000000000853,116,13,60,90
0.10000000000000853,116,14,60,90
0.09999999999999432,116,15,60,90
0.10000000000000853,117,0,60,90
0.09999999999999432,117,1,60,90
0.10000000000000853,117,2,60,90
0.10000000000000853,117,3,60,90
0.09999999999999432,117,4,60,90
0.10000000000000853,117,5,60,90
0.09999999999999432,117,6,60,90
0.09999999999999432,117,7,60,90
0.09999999999999432,117,8,60,90
0.09999999999999432,117,9,60,90
0.10000000000000853,117,10,60,90
0.10000000000000853,117,11,60,90
0.09999999999999432,117,12,60,90
0.09999999999999432,117,13,60,90
0.09999999999999432,117,14,60,90
0.09999999999999432,117,15,60,90
0.10000000000002274,118,0,60,90
0.06818181818184144,118,1,60,90
0.09999999999999432,118,2,60,90
0.09999999999999432,118,3,60,90
0.06818181818181301,118,4,60,90
0.09999999999999432,118,5,60,90
0.09999999999999432,118,6,60,90
0.10000000000002274,118,7,60,90
0.06818181818184144,118,8,60,90
0.09999999999999432,118,9,60,90
0.10000000000002274,118,10,60,90
0.09999999999999432,118,11,60,90
0.10000000000002274,118,12,60,90
0.10000000000002274,118,13,60,90
0.09999999999999432,118,14,60,90
0.10000000000002274,118,15,60,90
0.09999999999999432,119,0,60,90
0.09999999999999432,119,1,60,90
0.09999999999999432,119,2,60,90
0.09999999999999432,119,3,60,90
0.09999999999999432,119,4,60,90
0.09999999999999432,119,5,60,90
0.10000000000002274,119,6,60,90
0.09999999999999432,119,7,60,90
0.09999999999999432,119,8,60,90
0.09999999999999432,119,9,60,90
0.09999999999999432,119,10,60,90
0.06818181818181301,119,11,60,90
0.09999999999999432,119,12,60,90
0.10000000000002274,119,13,60,90
0.09999999999999432,119,14,60,90
0.09999999999999432,119,15,60,90
0.10000000000002274,120,0,60,90
0.09999999999999432,120,1,60,90
0.09999999999999432,120,2,60,90
0.09999999999999432,120,3,60,90
0.09999999999999432,120,4,60,90
0.056818181818186986,120,5,60,90
0.10000000000002274,120,6,60,90
0.09999999999999432,120,7,60,90
0.09999999999999432,120,8,60,90
0.10000000000002274,120,9,60,90
0.056818181818186986,120,10,60,90
0.09999999999999432,120,11,60,90
0.09999999999999432,120,12,60,90
0.09999999999999432,120,13,60,90
0.10000000000002274,120,14,60,90
0.09999999999999432,120,15,60,90
0.09999999999999432,121,0,60,90
0.10000000000002274,121,1,60,90
0.10000000000002274,121,2,60,90
0.09999999999999432,121,3,60,90
0.04545454545456096,121,4,60,90
0.09999999999999432,121,5,60,90
0.09999999999999432,121,6,60,90
0.06818181818181301,121,7,60,90
0.10000000000002274,121,8,60,90
0.09999999999999432,121,9,60,90
0.09999999999999432,121,10,60,90
0.10000000000002274,121,11,60,90
0.09999999999999432,121,12,60,90
0.09999999999999432,121,13,60,90
0.09999999999999432,121,14,60,90
0.10000000000002274,121,15,60,90
0.09999999999999432,122,0,60,90
0.09999999999999432,122,1,60,90
0.09999999999999432,122,2,60,90
0.09999999999999432,122,3,60,90
0.09999999999999432,122,4,60,90
0.09999999999999432,122,5,60,90
0.09999999999999432,122,6,60,90
0.09999999999999432,122,7,60,90
0.09999999999999432,122,8,60,90
0.09999999999999432,122,9,60,90
0.09999999999999432,122,10,60,90
0.09999999999999432,122,11,60,90
0.09999999999999432,122,12,60,90
0.09999999999999432,122,13,60,90
0.09999999999999432,122,14,60,90
0.09999999999999432,122,15,60,90
0.09999999999999432,123,0,60,90
0.09999999999999432,123,1,60,90
0.09999999999999432,123,2,60,90
0.10000000000002274,123,3,60,90
0.09999999999999432,123,4,60,90
0.09999999999999432,123,5,60,90
0.10000000000002274,123,6,60,90
0.09999999999999432,123,7,60,90
0.09999999999999432,123,8,60,90
0.09999999999999432,123,9,60,90
0.06818181818181301,123,10,60,90
0.10000000000000142,123,11,60,90
0.09999999999999432,123,12,60,90
0.09999999999999432,123,13,60,90
0.10000000000000142,123,14,60,90
0.10000000000000142,123,15,60,90
0.10000000000000142,124,0,60,90
0.10000000000000142,124,1,60,90
0.10000000000000142,124,2,60,90
0.10000000000000142,124,3,60,90
0.10000000000000142,124,4,60,90
0.10000000000000142,124,5,60,90
0.06818181818182012,124,6,60,90
0.10000000000000142,124,7,60,90
0.05681818181817988,124,8,60,90
0.09999999999999432,124,9,60,90
0.06818181818181301,124,10,60,90
0.10000000000000142,124,11,60,90
0.10000000000000142,124,12,60,90
0.10000000000000142,124,13,60,90
0.10000000000000142,124,14,60,90
0.10000000000000142,124,15,60,90
0.10000000000000142,125,0,60,90
0.10000000000000142,125,1,60,90
0.05909090909091219,125,2,60,90
0.10000000000000142,125,3,60,90
0.10000000000000142,125,4,60,90
0.10000000000000142,125,5,60,90
0.09999999999999432,125,6,60,90
0.10000000000000142,125,7,60,90
0.05909090909091219,125,8,60,90
0.10000000000000142,125,9,60,90
0.06818181818182012,125,10,60,90
0.10000000000000142,125,11,60,90
0.10000000000000142,125,12,60,90
0.06818181818182012,125,13,60,90
0.10000000000000142,125,14,60,90
0.10000000000000142,125,15,60,90
0.10000000000000142,126,0,60,90
0.10000000000000142,126,1,60,90
0.10000000000000142,126,2,60,90
0.10000000000000142,126,3,60,90
0.10000000000000142,126,4,60,90
0.09999999999999432,126,5,60,90
0.10000000000000142,126,6,60,90
0.10000000000000142,126,7,60,90
0.10000000000000142,126,8,60,90
0.10000000000000142,126,9,60,90
0.10000000000000142,126,10,60,90
0.10000000000000142,126,11,60,90
0.10000000000000142,126,12,60,90
0.10000000000000142,126,13,60,90
0.10000000000000142,126,14,60,90
0.10000000000000142,126,15,60,90
0.10000000000000142,127,0,60,90
0.10000000000000142,127,1,60,90
0.10000000000000142,127,2,60,90
0.10000000000000142,127,3,60,90
0.10000000000000142,127,4,60,90
0.10000000000000142,127,5,60,90
0.10000000000000142,127,6,60,90
0.06818181818181301,127,7,60,90
0.10000000000000142,127,8,60,90
0.10000000000000142,127,9,60,90
0.10000000000000142,127,10,60,90
0.06818181818182012,127,11,60,90
0.09999999999999432,127,12,60,90
0.10000000000000853,127,13,60,90
0.06590909090908781,127,14,60,90
0.09999999999999432,127,15,60,90
0.04772727272727195,128,0,60,90
0.09999999999999432,128,1,60,90
0.09999999999999432,128,2,60,90
0.09999999999999432,128,3,60,90
0.09999999999999432,128,4,60,90
0.09999999999999432,128,5,60,90
0.056818181818186986,128,6,60,90
0.10000000000000853,128,7,60,90
0.09999999999999432,128,8,60,90
0.10000000000000853,128,9,60,90
0.10000000000000853,128,10,60,90
0.09999999999999432,128,11,60,90
0.09999999999999432,128,12,60,90
0.10000000000000853,128,13,60,90
0.09999999999999432,128,14,60,90
0.09999999999999432,128,15,60,90
0.10000000000000853,129,0,60,90
0.09999999999999432,129,1,60,90
0.10000000000000853,129,2,60,90
0.09999999999999432,129,3,60,90
0.09999999999999432,129,4,60,90
0.09999999999999432,129,5,60,90
0.09999999999999432,129,6,60,90
0.10000000000000853,129,7,60,90
0.09999999999999432,129,8,60,90
0.09999999999999432,129,9,60,90
0.10000000000000853,129,10,60,90
0.09999999999999432,129,11,60,90
0.09999999999999432,129,12,60,90
0.09999999999999432,129,13,60,90
0.09999999999999432,129,14,60,90
0.10000000000000853,129,15,60,90
0.10000000000000853,130,0,60,90
0.09999999999999432,130,1,60,90
0.09999999999999432,130,2,60,90
0.09999999999999432,130,3,60,90
0.09999999999999432,130,4,60,90
0.10000000000000853,130,5,60,90
0.09999999999999432,130,6,60,90
0.09999999999999432,130,7,60,90
0.09999999999999432,130,8,60,90
0.09999999999999432,130,9,60,90
0.09999999999999432,130,10,60,90
0.09999999999999432,130,11,60,90
0.10000000000000853,130,12,60,90
0.09999999999999432,130,13,60,90
0.09999999999999432,130,14,60,90
0.09999999999999432,130,15,60,90
0.09999999999999432,131,0,60,90
0.10000000000000853,131,1,60,90
0.09999999999999432,131,2,60,90
0.09999999999999432,131,3,60,90
0.10000000000000853,131,4,60,90
0.09999999999999432,131,5,60,90
0.09999999999999432,131,6,60,90
0.09999999999999432,131,7,60,90
0.09999999999999432,131,8,60,90
0.10000000000000853,131,9,60,90
0.09999999999999432,131,10,60,90
0.09999999999999432,131,11,60,90
0.10000000000000853,131,12,60,90
0.10000000000000853,131,13,60,90
0.09999999999999432,131,14,60,90
0.10000000000000853,131,15,60,90
0.10000000000000853,132,0,60,90
0.10000000000000853,132,1,60,90
0.10000000000000853,132,2,60,90
0.09999999999999432,132,3,60,90
0.09999999999999432,132,4,60,90
0.09999999999999432,132,5,60,90
0.09999999999999432,132,6,60,90
0.10000000000000853,132,7,60,90
0.09999999999999432,132,8,60,90
0.10000000000000853,132,9,60,90
0.09999999999999432,132,10,60,90
0.09999999999999432,132,11,60,90
0.10000000000000853,132,12,60,90
0.09999999999999432,132,13,60,90
0.10000000000000853,132,14,60,90
0.09999999999999432,132,15,60,90
0.09999999999999432,133,0,60,90
0.09999999999999432,133,1,60,90
0.10000000000000853,133,2,60,90
0.09999999999999432,133,3,60,90
0.09999999999999432,133,4,60,90
0.09999999999999432,133,5,60,90
0.09999999999999432,133,6,60,90
0.10000000000000853,133,7,60,90
0.09999999999999432,133,8,60,90
0.10000000000000853,133,9,60,90
0.09999999999999432,133,10,60,90
0.10000000000000853,133,11,60,90
0.09999999999999432,133,12,60,90
0.09999999999999432,133,13,60,90
0.10000000000000853,133,14,60,90
0.09999999999999432,133,15,60,90
0.09999999999999432,134,0,60,90
0.10000000000000853,134,1,60,90
0.09999999999999432,134,2,60,90
0.09999999999999432,134,3,60,90
0.10000000000000853,134,4,60,90
0.09999999999999432,134,5,60,90
0.10000000000000853,134,6,60,90
0.09999999999999432,134,7,60,90
0.10000000000000853,134,8,60,90
0.09999999999999432,134,9,60,90
0.09999999999999432,134,10,60,90
0.10000000000000853,134,11,60,90
0.09999999999999432,134,12,60,90
0.10000000000000853,134,13,60,90
0.09999999999999432,134,14,60,90
0.03636363636363171,134,15,60,90
0.09999999999999432,135,0,60,90
0.09999999999999432,135,1,60,90
0.10000000000000853,135,2,60,90
0.09999999999999432,135,3,60,90
0.09999999999999432,135,4,60,90
0.10000000000002274,135,5,60,90
0.09999999999999432,135,6,60,90
0.09999999999999432,135,7,60,90
0.09999999999999432,135,8,60,90
0.04545454545456096,135,9,60,90
0.09999999999999432,135,10,60,90
0.09999999999999432,135,11,60,90
0.10000000000002274,135,12,60,90
0.09999999999999432,135,13,60,90
0.025000000000005684,135,14,60,90
0.09999999999999432,135,15,60,90
0.04772727272725774,136,0,60,90
0.10000000000002274,136,1,60,90
0.09999999999999432,136,2,60,90
0.09999999999999432,136,3,60,90
0.09999999999999432,136,4,60,90
0.09999999999999432,136,5,60,90
0.10000000000002274,136,6,60,90
0.09999999999999432,136,7,60,90
0.09999999999999432,136,8,60,90
0.09999999999999432,136,9,60,90
0.09999999999999432,136,10,60,90
0.09999999999999432,136,11,60,90
0.09999999999999432,136,12,60,90
0.10000000000002274,136,13,60,90
0.04545454545456096,136,14,60,90
0.09999999999999432,136,15,60,90
0.09999999999999432,137,0,60,90
0.10000000000002274,137,1,60,90
0.09999999999999432,137,2,60,90
0.10000000000002274,137,3,60,90
0.09999999999999432,137,4,60,90
0.09999999999999432,137,5,60,90
0.09999999999999432,137,6,60,90
0.09999999999999432,137,7,60,90
0.10000000000002274,137,8,60,90
0.013636363636379656,137,9,60,90
0.10000000000002274,137,10,60,90
0.09999999999999432,137,11,60,90
0.09999999999999432,137,12,60,90
0.045454545454532536,137,13,60,90
0.09999999999999432,137,14,60,90
0.03636363636363171,137,15,60,90
0.09999999999999432,138,0,60,90
0.09999999999999432,138,1,60,90
0.10000000000002274,138,2,60,90
0.09999999999999432,138,3,60,90
0.09999999999999432,138,4,60,90
0.09999999999999432,138,5,60,90
0.10000000000002274,138,6,60,90
0.09999999999999432,138,7,60,90
0.056818181818186986,138,8,60,90
0.10000000000002274,138,9,60,90
0.09999999999999432,138,10,60,90
0.10000000000002274,138,11,60,90
0.09999999999999432,138,12,60,90
0.09999999999999432,138,13,60,90
0.09999999999999432,138,14,60,90
0.09999999999999432,138,15,60,90
0.09999999999999432,139,0,60,90
0.09999999999999432,139,1,60,90
0.09999999999999432,139,2,60,90
0.09999999999999432,139,3,60,90
0.09999999999999432,139,4,60,90
0.09999999999999432,139,5,60,90
0.04772727272725774,139,6,60,90
0.09999999999999432,139,7,60,90
0.09999999999999432,139,8,60,90
0.09999999999999432,139,9,60,90
0.09999999999999432,139,10,60,90
0.09999999999999432,139,11,60,90
0.10000000000002274,139,12,60,90
0.09999999999999432,139,13,60,90
0.09999999999999432,139,14,60,90
0.056818181818158564,139,15,60,90
0.09999999999999432,140,0,60,90
0.09999999999999432,140,1,60,90
0.09999999999999432,140,2,60,90
0.09999999999999432,140,3,60,90
0.10000000000002274,140,4,60,90
0.09999999999999432,140,5,60,90
0.03409090909090651,140,6,60,90
0.09999999999999432,140,7,60,90
0.09999999999999432,140,8,60,90
0.03636363636363171,140,9,60,90
0.09999999999999432,140,10,60,90
0.10000000000002274,140,11,60,90
0.09999999999999432,140,12,60,90
0.09999999999999432,140,13,60,90
0.09999999999999432,140,14,60,90
0.10000000000002274,140,15,60,90
0.09999999999999432,141,0,60,90
0.10000000000000142,141,1,60,90
0.09999999999999432,141,2,60,90
0.09999999999999432,141,3,60,90
0.09999999999999432,141,4,60,90
0.09999999999999432,141,5,60,90
0.09999999999999432,141,6,60,90
0.09999999999999432,141,7,60,90
0.09999999999999432,141,8,60,90
0.09999999999999432,141,9,60,90
0.09999999999999432,141,10,60,90
0.10000000000000142,141,11,60,90
0.09999999999999432,141,12,60,90
0.10000000000000142,141,13,60,90
0.10000000000000142,141,14,60,90
0.10000000000000142,141,15,60,90
0.10000000000000142,142,0,60,90
0.10000000000000142,142,1,60,90
0.10000000000000142,142,2,60,90
0.10000000000000142,142,3,60,90
0.10000000000000142,142,4,60,90
0.10000000000000142,142,5,60,90
0.10000000000000142,142,6,60,90
0.10000000000000142,142,7,60,90
0.10000000000000142,142,8,60,90
0.10000000000000142,142,9,60,90
0.10000000000000142,142,10,60,90
0.10000000000000142,142,11,60,90
0.10000000000000142,142,12,60,90
0.10000000000000142,142,13,60,90
0.10000000000000142,142,14,60,90
0.10000000000000142,142,15,60,90
0.10000000000000142,143,0,60,90
0.10000000000000142,143,1,60,90
0.10000000000000142,143,2,60,90
0.10000000000000142,143,3,60,90
0.10000000000000142,143,4,60,90
0.10000000000000142,143,5,60,90
0.10000000000000142,143,6,60,90
0.10000000000000142,143,7,60,90
0.10000000000000142,143,8,60,90
0.10000000000000142,143,9,60,90
0.10000000000000142,143,10,60,90
0.10000000000000142,143,11,60,90
0.10000000000000142,143,12,60,90
0.09999999999999432,143,13,60,90
0.10000000000000142,143,14,60,90
0.09999999999999432,143,15,60,90
0.09999999999999432,144,0,60,90
0.09999999999999432,144,1,60,90
0.09999999999999432,144,2,60,90
0.09999999999999432,144,3,60,90
0.09999999999999432,144,4,60,90
0.09999999999999432,144,5,60,90
0.09999999999999432,144,6,60,90
0.09999999999999432,144,7,60,90
0.10000000000000142,144,8,60,90
0.09999999999999432,144,9,60,90
0.09999999999999432,144,10,60,90
0.10000000000000142,144,11,60,90
0.09999999999999432,144,12,60,90
0.10000000000000142,144,13,60,90
0.10000000000000142,144,14,60,90
0.10000000000000142,144,15,60,90
0.10000000000000142,145,0,60,90
0.10000000000000142,145,1,60,90
0.10000000000000142,145,2,60,90
0.10000000000000142,145,3,60,90
0.10000000000000142,145,4,60,90
0.10000000000000142,145,5,60,90
0.10000000000000142,145,6,60,90
0.10000000000000142,145,7,60,90
0.10000000000000142,145,8,60,90
0.10000000000000142,145,9,60,90
0.10000000000000142,145,10,60,90
0.10000000000000142,145,11,60,90
0.10000000000000142,145,12,60,90
0.10000000000000142,145,13,60,90
0.10000000000000142,145,14,60,90
0.10000000000000142,145,15,60,90
0.10000000000000142,146,0,60,90
0.10000000000000142,146,1,60,90
0.10000000000000142,146,2,60,90
0.10000000000000142,146,3,60,90
0.10000000000000142,146,4,60,90
0.10000000000000142,146,5,60,90
0.10000000000000142,146,6,60,90
0.10000000000000142,146,7,60,90
0.09999999999999432,146,8,60,90
0.10000000000000142,146,9,60,90
0.09999999999999432,146,10,60,90
0.09999999999999432,146,11,60,90
0.10000000000000142,146,12,60,90
0.09999999999999432,146,13,60,90
0.10000000000000142,146,14,60,90
0.09999999999999432,146,15,60,90
0.09999999999999432,147,0,60,90
0.10000000000000142,147,1,60,90
0.09999999999999432,147,2,60,90
0.09999999999999432,147,3,60,90
0.10000000000000853,147,4,60,90
0.09999999999999432,147,5,60,90
0.09999999999999432,147,6,60,90
0.09999999999999432,147,7,60,90
0.09999999999999432,147,8,60,90
0.09999999999999432,147,9,60,90
0.09999999999999432,147,10,60,90
0.09999999999999432,147,11,60,90
0.09999999999999432,147,12,60,90
0.09999999999999432,147,13,60,90
0.10000000000000853,147,14,60,90
0.09999999999999432,147,15,60,90
0.09999999999999432,148,0,60,90
0.09999999999999432,148,1,60,90
0.09999999999999432,148,2,60,90
0.09999999999999432,148,3,60,90
0.09999999999999432,148,4,60,90
0.10000000000000853,148,5,60,90
0.09999999999999432,148,6,60,90
0.09999999999999432,148,7,60,90
0.10000000000000853,148,8,60,90
0.09999999999999432,148,9,60,90
0.10000000000000853,148,10,60,90
0.10000000000000853,148,11,60,90
0.09999999999999432,148,12,60,90
0.10000000000000853,148,13,60,90
0.09999999999999432,148,14,60,90
0.10000000000000853,148,15,60,90
0.09999999999999432,149,0,60,90
0.10000000000000853,149,1,60,90
0.09999999999999432,149,2,60,90
0.09999999999999432,149,3,60,90
0.10000000000000853,149,4,60,90
0.09999999999999432,149,5,60,90
0.10000000000000853,149,6,60,90
0.09999999999999432,149,7,60,90
0.09999999999999432,149,8,60,90
0.09999999999999432,149,9,60,90
0.09999999999999432,149,10,60,90
0.10000000000000853,149,11,60,90
0.09999999999999432,149,12,60,90
0.09999999999999432,149,13,60,90
0.09999999999999432,149,14,60,90
0.09999999999999432,149,15,60,90
0.10000000000000853,150,0,60,90
0.09999999999999432,150,1,60,90
0.10000000000000853,150,2,60,90
0.09999999999999432,150,3,60,90
0.09999999999999432,150,4,60,90
0.10000000000000853,150,5,60,90
0.09999999999999432,150,6,60,90
0.10000000000000853,150,7,60,90
0.09999999999999432,150,8,60,90
0.10000000000000853,150,9,60,90
0.09999999999999432,150,10,60,90
0.10000000000000853,150,11,60,90
0.10000000000000853,150,12,60,90
0.09999999999999432,150,13,60,90
0.10000000000000853,150,14,60,90
0.09999999999999432,150,15,60,90
0.09999999999999432,151,0,60,90
0.09999999999999432,151,1,60,90
0.09999999999999432,151,2,60,90
0.10000000000000853,151,3,60,90
0.09999999999999432,151,4,60,90
0.09999999999999432,151,5,60,90
0.10000000000000853,151,6,60,90
0.09999999999999432,151,7,60,90
0.10000000000000853,151,8,60,90
0.09999999999999432,151,9,60,90
0.10000000000000853,151,10,60,90
0.09999999999999432,151,11,60,90
0.10000000000000853,151,12,60,90
0.10000000000000853,151,13,60,90
0.09999999999999432,151,14,60,90
0.10000000000000853,151,15,60,90
0.09999999999999432,152,0,60,90
0.10000000000000853,152,1,60,90
0.09999999999999432,152,2,60,90
0.10000000000000853,152,3,60,90
0.10000000000000853,152,4,60,90
0.09999999999999432,152,5,60,90
0.10000000000000853,152,6,60,90
0.09999999999999432,152,7,60,90
0.09999999999999432,152,8,60,90
0.09999999999999432,152,9,60,90
0.09999999999999432,152,10,60,90
0.10000000000000853,152,11,60,90
0.09999999999999432,152,12,60,90
0.09999999999999432,152,13,60,90
0.10000000000000853,152,14,60,90
0.09999999999999432,152,15,60,90
0.10000000000000853,153,0,60,90
0.09999999999999432,153,1,60,90
0.10000000000000853,153,2,60,90
0.09999999999999432,153,3,60,90
0.10000000000000853,153,4,60,90
0.10000000000000853,153,5,60,90
0.09999999999999432,153,6,60,90
0.10000000000000853,153,7,60,90
0.09999999999999432,153,8,60,90
0.10000000000000853,153,9,60,90
0.09999999999999432,153,10,60,90
0.09999999999999432,153,11,60,90
0.09999999999999432,153,12,60,90
0.09999999999999432,153,13,60,90
0.10000000000000853,153,14,60,90
0.09999999999999432,153,15,60,90
0.09999999999999432,154,0,60,90
0.09999999999999432,154,1,60,90
0.09999999999999432,154,2,60,90
0.10000000000000853,154,3,60,90
0.09999999999999432,154,4,60,90
0.10000000000000853,154,5,60,90
0.10000000000000853,154,6,60,90
0.09999999999999432,154,7,60,90
0.10000000000000853,154,8,60,90
0.09999999999999432,154,9,60,90
0.10000000000002274,154,10,60,90
0.10000000000002274,154,11,60,90
0.09999999999999432,154,12,60,90
0.09999999999999432,154,13,60,90
0.10000000000002274,154,14,60,90
0.09999999999999432,154,15,60,90
0.09999999999999432,155,0,60,90
0.10000000000002274,155,1,60,90
0.09999999999999432,155,2,60,90
0.09999999999999432,155,3,60,90
0.09999999999999432,155,4,60,90
0.09999999999999432,155,5,60,90
0.09999999999999432,155,6,60,90
0.09999999999999432,155,7,60,90
0.09999999999999432,155,8,60,90
0.09999999999999432,155,9,60,90
0.09999999999999432,155,10,60,90
0.09999999999999432,155,11,60,90
0.09999999999999432,155,12,60,90
0.09999999999999432,155,13,60,90
0.09999999999999432,155,14,60,90
0.09999999999999432,155,15,60,90
0.09999999999999432,156,0,60,90
0.09999999999999432,156,1,60,90
0.09999999999999432,156,2,60,90
0.09999999999999432,156,3,60,90
0.09999999999999432,156,4,60,90
0.09999999999999432,156,5,60,90
0.10000000000002274,156,6,60,90
0.09999999999999432,156,7,60,90
0.09999999999999432,156,8,60,90
0.10000000000002274,156,9,60,90
0.09999999999999432,156,10,60,90
0.09999999999999432,156,11,60,90
0.10000000000002274,156,12,60,90
0.09999999999999432,156,13,60,90
0.09999999999999432,156,14,60,90
0.10000000000002274,156,15,60,90
0.09999999999999432,157,0,60,90
0.09999999999999432,157,1,60,90
0.09999999999999432,157,2,60,90
0.09999999999999432,157,3,60,90
0.09999999999999432,157,4,60,90
0.09999999999999432,157,5,60,90
0.09999999999999432,157,6,60,90
0.10000000000002274,157,7,60,90
0.09999999999999432,157,8,60,90
0.09999999999999432,157,9,60,90
0.10000000000002274,157,10,60,90
0.09999999999999432,157,11,60,90
0.09999999999999432,157,12,60,90
0.10000000000002274,157,13,60,90
0.09999999999999432,157,14,60,90
0.09999999999999432,157,15,60,90
0.09999999999999432,158,0,60,90
0.09999999999999432,158,1,60,90
0.10000000000002274,158,2,60,90
0.09999999999999432,158,3,60,90
0.09999999999999432,158,4,60,90
0.10000000000002274,158,5,60,90
0.09999999999999432,158,6,60,90
0.09999999999999432,158,7,60,90
0.10000000000002274,158,8,60,90
0.09999999999999432,158,9,60,90
0.09999999999999432,158,10,60,90
0.09999999999999432,158,11,60,90
0.09999999999999432,158,12,60,90
0.09999999999999432,158,13,60,90
0.09999999999999432,158,14,60,90
0.09999999999999432,158,15,60,90
0.09999999999999432,159,0,60,90
0.09999999999999432,159,1,60,90
0.10000000000002274,159,2,60,90
0.09999999999999432,159,3,60,90
0.09999999999999432,159,4,60,90
0.10000000000002274,159,5,60,90
0.09999999999999432,159,6,60,90
0.09999999999999432,159,7,60,90
0.10000000000002274,159,8,60,90
0.09999999999999432,159,9,60,90
0.09999999999999432,159,10,60,90
0.09999999999999432,159,11,60,90
0.09999999999999432,159,12,60,90
0.10000000000002274,159,13,60,90
0.09999999999999432,159,14,60,90
0.09999999999999432,159,15,60,90
0.10000000000002274,160,0,60,90
0.09999999999999432,160,1,60,90
0.09999999999999432,160,2,60,90
0.10000000000002274,160,3,60,90
0.09999999999999432,160,4,60,90
0.09999999999999432,160,5,60,90
0.10000000000002274,160,6,60,90
0.09999999999999432,160,7,60,90
0.09999999999999432,160,8,60,90
0.09999999999999432,160,9,60,90
0.09999999999999432,160,10,60,90
0.10000000000002274,160,11,60,90
0.09999999999999432,160,12,60,90
0.10000000000002274,160,13,60,90
0.10000000000002274,160,14,60,90
0.09999999999999432,160,15,60,90
0.09999999999999432,161,0,60,90
0.10000000000002274,161,1,60,90
0.09999999999999432,161,2,60,90
0.09999999999999432,161,3,60,90
0.09999999999999432,161,4,60,90
0.09999999999999432,161,5,60,90
0.09999999999999432,161,6,60,90
0.09999999999999432,161,7,60,90
0.09999999999999432,161,8,60,90
0.09999999999999432,161,9,60,90
0.09999999999999432,161,10,60,90
0.10000000000002274,161,11,60,90
0.09999999999999432,161,12,60,90
0.09999999999999432,161,13,60,90
0.10000000000002274,161,14,60,90
0.09999999999999432,161,15,60,90
0.09999999999999432,162,0,60,90
0.10000000000002274,162,1,60,90
0.09999999999999432,162,2,60,90
0.09999999999999432,162,3,60,90
0.09999999999999432,162,4,60,90
0.09999999999999432,162,5,60,90
0.10000000000002274,162,6,60,90
0.09999999999999432,162,7,60,90
0.09999999999999432,162,8,60,90
0.09999999999999432,162,9,60,90
0.09999999999999432,162,10,60,90
0.09999999999999432,162,11,60,90
0.10000000000002274,162,12,60,90
0.09999999999999432,162,13,60,90
0.09999999999999432,162,14,60,90
0.09999999999999998,162,15,60,90
0.036363636363636376,163,0,60,90
0.09999999999999998,163,1,60,90
0.10000000000000009,163,2,60,90
0.10000000000000009,163,3,60,90
0.09999999999999987,163,4,60,90
0.10000000000000009,163,5,60,90
0.10000000000000009,163,6,60,90
0.09999999999999987,163,7,60,90
0.10000000000000009,163,8,60,90
0.10000000000000009,163,9,60,90
0.09999999999999964,163,10,60,90
0.09999999999999964,163,11,60,90
0.09999999999999964,163,12,60,90
0.10000000000000009,163,13,60,90
0.10000000000000009,163,14,60,90
0.10000000000000009,163,15,60,90
0.10000000000000053,164,0,60,90
0.09999999999999964,164,1,60,90
0.10000000000000053,164,2,60,90
0.09999999999999964,164,3,60,90
0.10000000000000053,164,4,60,90
0.10000000000000053,164,5,60,90
0.09999999999999964,164,6,60,90
0.09999999999999964,164,7,60,90
0.10000000000000053,164,8,60,90
0.10000000000000053,164,9,60,90
0.09999999999999964,164,10,60,90
0.10000000000000053,164,11,60,90
0.09999999999999964,164,12,60,90
0.09999999999999964,164,13,60,90
0.09999999999999964,164,14,60,90
0.10000000000000053,164,15,60,90
0.09999999999999964,165,0,60,90
0.09999999999999964,165,1,60,90
0.09999999999999964,165,2,60,90
0.09999999999999964,165,3,60,90
0.09999999999999964,165,4,60,90
0.09999999999999964,165,5,60,90
0.09999999999999964,165,6,60,90
0.09999999999999964,165,7,60,90
0.09999999999999964,165,8,60,90
0.09999999999999964,165,9,60,90
0.09999999999999964,165,10,60,90
0.10000000000000142,165,11,60,90
0.09999999999999964,165,12,60,90
0.09999999999999964,165,13,60,90
0.09999999999999964,165,14,60,90
0.09999999999999964,165,15,60,90
0.09999999999999964,166,0,60,90
0.09999999999999964,166,1,60,90
0.09999999999999964,166,2,60,90
0.09999999999999964,166,3,60,90
0.09999999999999964,166,4,60,90
0.09999999999999964,166,5,60,90
0.09999999999999964,166,6,60,90
0.09999999999999964,166,7,60,90
0.09999999999999964,166,8,60,90
0.09999999999999964,166,9,60,90
0.09999999999999964,166,10,60,90
0.09999999999999964,166,11,60,90
0.09999999999999964,166,12,60,90
0.10000000000000142,166,13,60,90
0.09999999999999964,166,14,60,90
0.09999999999999964,166,15,60,90
0.09999999999999964,167,0,60,90
0.10000000000000142,167,1,60,90
0.10000000000000142,167,2,60,90
0.09999999999999787,167,3,60,90
0.10000000000000142,167,4,60,90
0.10000000000000142,167,5,60,90
0.09999999999999787,167,6,60,90
0.10000000000000142,167,7,60,90
0.09999999999999787,167,8,60,90
0.10000000000000142,167,9,60,90
0.09999999999999787,167,10,60,90
0.036363636363635266,167,11,60,90
0.10000000000000142,167,12,60,90
0.10000000000000142,167,13,60,90
0.10000000000000142,167,14,60,90
0.10000000000000142,167,15,60,90
0.10000000000000142,168,0,60,90
0.09999999999999787,168,1,60,90
0.09999999999999787,168,2,60,90
0.09999999999999787,168,3,60,90
0.09999999999999787,168,4,60,90
0.013636363636361892,168,5,60,90
0.10000000000000142,168,6,60,90
0.10000000000000142,168,7,60,90
0.10000000000000142,168,8,60,90
0.10000000000000142,168,9,60,90
0.10000000000000142,168,10,60,90
0.09999999999999787,168,11,60,90
0.10000000000000142,168,12,60,90
0.09999999999999787,168,13,60,90
0.10000000000000142,168,14,60,90
0.10000000000000142,168,15,60,90
0.10000000000000142,169,0,60,90
0.10000000000000142,169,1,60,90
0.09999999999999787,169,2,60,90
0.10000000000000142,169,3,60,90
0.09999999999999787,169,4,60,90
0.10000000000000142,169,5,60,90
0.06818181818182012,169,6,60,90
0.09999999999999787,169,7,60,90
0.09999999999999787,169,8,60,90
0.09999999999999787,169,9,60,90
0.10000000000000142,169,10,60,90
0.10000000000000142,169,11,60,90
0.09999999999999787,169,12,60,90
0.10000000000000142,169,13,60,90
0.09999999999999787,169,14,60,90
0.10000000000000142,169,15,60,90
0.10000000000000142,170,0,60,90
0.10000000000000142,170,1,60,90
0.10000000000000142,170,2,60,90
0.09999999999999787,170,3,60,90
0.09999999999999787,170,4,60,90
0.09999999999999787,170,5,60,90
0.09999999999999787,170,6,60,90
0.10000000000000142,170,7,60,90
0.09999999999999787,170,8,60,90
0.09999999999999787,170,9,60,90
0.10000000000000142,170,10,60,90
0.09999999999999787,170,11,60,90
0.10000000000000142,170,12,60,90
0.09999999999999787,170,13,60,90
0.09999999999999787,170,14,60,90
0.09999999999999787,170,15,60,90
0.09999999999999787,171,0,60,90
0.10000000000000142,171,1,60,90
0.10000000000000142,171,2,60,90
0.10000000000000142,171,3,60,90
0.10000000000000142,171,4,60,90
0.10000000000000142,171,5,60,90
0.10000000000000142,171,6,60,90
0.06818181818182012,171,7,60,90
0.10000000000000142,171,8,60,90
0.10000000000000142,171,9,60,90
0.06818181818182012,171,10,60,90
0.10000000000000142,171,11,60,90
0.10000000000000142,171,12,60,90
0.09999999999999432,171,13,60,90
0.10000000000000142,171,14,60,90
0.10000000000000142,171,15,60,90
0.09999999999999432,172,0,60,90
0.09999999999999432,172,1,60,90
0.10000000000000142,172,2,60,90
0.09999999999999432,172,3,60,90
0.10000000000000142,172,4,60,90
0.09999999999999432,172,5,60,90
0.09999999999999432,172,6,60,90
0.09999999999999432,172,7,60,90
0.10000000000000142,172,8,60,90
0.10000000000000142,172,9,60,90
0.10000000000000142,172,10,60,90
0.10000000000000142,172,11,60,90
0.09999999999999432,172,12,60,90
0.10000000000000142,172,13,60,90
0.10000000000000142,172,14,60,90
0.09999999999999432,172,15,60,90
0.09999999999999432,173,0,60,90
0.004545454545450411,173,1,60,90
0.10000000000000142,173,2,60,90
0.10000000000000142,173,3,60,90
0.10000000000000142,173,4,60,90
0.09999999999999432,173,5,60,90
0.10000000000000142,173,6,60,90
0.09999999999999432,173,7,60,90
0.10000000000000142,173,8,60,90
0.10000000000000142,173,9,60,90
0.10000000000000142,173,10,60,90
0.10000000000000142,173,11,60,90
0.10000000000000142,173,12,60,90
0.10000000000000142,173,13,60,90
0.10000000000000142,173,14,60,90
0.10000000000000142,173,15,60,90
0.10000000000000142,174,0,60,90
0.10000000000000142,174,1,60,90
0.10000000000000142,174,2,60,90
0.10000000000000142,174,3,60,90
0.09999999999999432,174,4,60,90
0.06818181818181301,174,5,60,90
0.10000000000000142,174,6,60,90
0.09999999999999432,174,7,60,90
0.01590909090909065,174,8,60,90
0.10000000000000142,174,9,60,90
0.10000000000000142,174,10,60,90
0.09999999999999432,174,11,60,90
0.10000000000000142,174,12,60,90
0.10000000000000142,174,13,60,90
0.10000000000000142,174,14,60,90
0.10000000000000142,174,15,60,90
0.10000000000000142,175,0,60,90
0.09999999999999432,175,1,60,90
0.10000000000000142,175,2,60,90
0.10000000000000142,175,3,60,90
0.10000000000000142,175,4,60,90
0.10000000000000142,175,5,60,90
0.09999999999999432,175,6,60,90
0.10000000000000142,175,7,60,90
0.10000000000000142,175,8,60,90
0.10000000000000142,175,9,60,90
0.10000000000000142,175,10,60,90
0.10000000000000142,175,11,60,90
0.09999999999999432,175,12,60,90
0.10000000000000142,175,13,60,90
0.10000000000000142,175,14,60,90
0.10000000000000142,175,15,60,90
0.10000000000000142,176,0,60,90
0.10000000000000142,176,1,60,90
0.10000000000000142,176,2,60,90
0.09999999999999432,176,3,60,90
0.10000000000000142,176,4,60,90
0.10000000000000142,176,5,60,90
0.10000000000000142,176,6,60,90
0.10000000000000142,176,7,60,90
0.09999999999999432,176,8,60,90
0.09999999999999432,176,9,60,90
0.09999999999999432,176,10,60,90
0.10000000000000142,176,11,60,90
0.09999999999999432,176,12,60,90
0.10000000000000142,176,13,60,90
0.10000000000000142,176,14,60,90
0.10000000000000142,176,15,60,90
0.10000000000000142,177,0,60,90
0.09999999999999432,177,1,60,90
0.10000000000000142,177,2,60,90
0.02499999999999858,177,3,60,90
0.10000000000000142,177,4,60,90
0.10000000000000142,177,5,60,90
0.10000000000000142,177,6,60,90
0.10000000000000142,177,7,60,90
0.10000000000000142,177,8,60,90
0.10000000000000142,177,9,60,90
0.09999999999999432,177,10,60,90
0.10000000000000142,177,11,60,90
0.09999999999999432,177,12,60,90
0.10000000000000142,177,13,60,90
0.10000000000000142,177,14,60,90
0.10000000000000142,177,15,60,90
0.10000000000000142,178,0,60,90
0.09999999999999432,178,1,60,90
0.10000000000000142,178,2,60,90
0.10000000000000142,178,3,60,90
0.10000000000000142,178,4,60,90
0.10000000000000142,178,5,60,90
0.10000000000000142,178,6,60,90
0.10000000000000142,178,7,60,90
0.10000000000000142,178,8,60,90
0.004545454545457517,178,9,60,90
0.10000000000000142,178,10,60,90
0.10000000000000142,178,11,60,90
0.10000000000000142,178,12,60,90
0.10000000000000142,178,13,60,90
0.10000000000000142,178,14,60,90
0.09999999999999432,178,15,60,90
0.10000000000000142,179,0,60,90
0.10000000000000142,179,1,60,90
0.09999999999999432,179,2,60,90
0.10000000000000142,179,3,60,90
0.09999999999999432,179,4,60,90
0.09999999999999432,179,5,60,90
0.09999999999999432,179,6,60,90
0.10000000000000142,179,7,60,90
0.09999999999999432,179,8,60,90
0.10000000000000142,179,9,60,90
0.10000000000000142,179,10,60,90
0.10000000000000142,179,11,60,90
0.10000000000000142,179,12,60,90
0.09999999999999432,179,13,60,90
0.10000000000000142,179,14,60,90
0.09999999999999432,179,15,60,90
0.10000000000000853,180,0,60,90
0.09999999999999432,180,1,60,90
0.09999999999999432,180,2,60,90
0.09999999999999432,180,3,60,90
0.09999999999999432,180,4,60,90
0.09999999999999432,180,5,60,90
0.10000000000000853,180,6,60,90
0.09999999999999432,180,7,60,90
0.09999999999999432,180,8,60,90
0.09999999999999432,180,9,60,90
0.09999999999999432,180,10,60,90
0.09999999999999432,180,11,60,90
0.09999999999999432,180,12,60,90
0.10000000000000853,180,13,60,90
0.10000000000000853,180,14,60,90
0.10000000000000853,180,15,60,90
0.09999999999999432,181,0,60,90
0.09999999999999432,181,1,60,90
0.09999999999999432,181,2,60,90
0.10000000000000853,181,3,60,90
0.10000000000000853,181,4,60,90
0.09999999999999432,181,5,60,90
0.10000000000000853,181,6,60,90
0.09999999999999432,181,7,60,90
0.09999999999999432,181,8,60,90
0.10000000000000853,181,9,60,90
0.10000000000000853,181,10,60,90
0.09999999999999432,181,11,60,90
0.10000000000000853,181,12,60,90
0.10000000000000853,181,13,60,90
0.09999999999999432,181,14,60,90
0.10000000000000853,181,15,60,90
0.09999999999999432,182,0,60,90
0.09999999999999432,182,1,60,90
0.09999999999999432,182,2,60,90
0.09999999999999432,182,3,60,90
0.09999999999999432,182,4,60,90
0.10000000000000853,182,5,60,90
0.10000000000000853,182,6,60,90
0.09999999999999432,182,7,60,90
0.09999999999999432,182,8,60,90
0.10000000000000853,182,9,60,90
0.10000000000000853,182,10,60,90
0.09999999999999432,182,11,60,90
0.10000000000000853,182,12,60,90
0.09999999999999432,182,13,60,90
0.09999999999999432,182,14,60,90
0.10000000000000853,182,15,60,90
0.10000000000000853,183,0,60,90
0.09999999999999432,183,1,60,90
0.09999999999999432,183,2,60,90
0.09999999999999432,183,3,60,90
0.10000000000000853,183,4,60,90
0.09999999999999432,183,5,60,90
0.09999999999999432,183,6,60,90
0.10000000000000853,183,7,60,90
0.10000000000000853,183,8,60,90
0.09999999999999432,183,9,60,90
0.09999999999999432,183,10,60,90
0.10000000000000853,183,11,60,90
0.10000000000000853,183,12,60,90
0.09999999999999432,183,13,60,90
0.09999999999999432,183,14,60,90
0.06818181818181301,183,15,60,90
0.09999999999999432,184,0,60,90
0.09999999999999432,184,1,60,90
0.09999999999999432,184,2,60,90
0.10000000000000853,184,3,60,90
0.10000000000000853,184,4,60,90
0.10000000000000853,184,5,60,90
0.10000000000000853,184,6,60,90
0.05909090909091219,184,7,60,90
0.10000000000000853,184,8,60,90
0.09999999999999432,184,9,60,90
0.09999999999999432,184,10,60,90
0.09999999999999432,184,11,60,90
0.09999999999999432,184,12,60,90
0.09999999999999432,184,13,60,90
0.10000000000000853,184,14,60,90
0.09999999999999432,184,15,60,90
0.10000000000000853,185,0,60,90
0.09999999999999432,185,1,60,90
0.10000000000000853,185,2,60,90
0.09999999999999432,185,3,60,90
0.09999999999999432,185,4,60,90
0.10000000000000853,185,5,60,90
0.10000000000000853,185,6,60,90
0.09999999999999432,185,7,60,90
0.10000000000000853,185,8,60,90
0.09999999999999432,185,9,60,90
0.10000000000000853,185,10,60,90
0.09999999999999432,185,11,60,90
0.09999999999999432,185,12,60,90
0.09999999999999432,185,13,60,90
0.09999999999999432,185,14,60,90
0.10000000000000853,185,15,60,90
0.06818181818182723,186,0,60,90
0.10000000000000853,186,1,60,90
0.10000000000000853,186,2,60,90
0.09999999999999432,186,3,60,90
0.025000000000005684,186,4,60,90
0.09999999999999432,186,5,60,90
0.06590909090908781,186,6,60,90
0.09999999999999432,186,7,60,90
0.10000000000000853,186,8,60,90
0.09999999999999432,186,9,60,90
0.10000000000000853,186,10,60,90
0.09999999999999432,186,11,60,90
0.10000000000000853,186,12,60,90
0.10000000000000853,186,13,60,90
0.09999999999999432,186,14,60,90
0.10000000000000853,186,15,60,90
0.10000000000000853,187,0,60,90
0.09999999999999432,187,1,60,90
0.10000000000000853,187,2,60,90
0.10000000000000853,187,3,60,90
0.10000000000000853,187,4,60,90
0.09999999999999432,187,5,60,90
0.09999999999999432,187,6,60,90
0.10000000000000853,187,7,60,90
0.10000000000000853,187,8,60,90
0.09999999999999432,187,9,60,90
0.10000000000000853,187,10,60,90
0.10000000000000853,187,11,60,90
0.10000000000000853,187,12,60,90
0.09999999999999432,187,13,60,90
0.09999999999999432,187,14,60,90
0.09999999999999432,187,15,60,90
0.10000000000000853,188,0,60,90
0.10000000000000853,188,1,60,90
0.10000000000000853,188,2,60,90
0.09999999999999432,188,3,60,90
0.09999999999999432,188,4,60,90
0.09999999999999432,188,5,60,90
0.09999999999999432,188,6,60,90
0.09999999999999432,188,7,60,90
0.09999999999999432,188,8,60,90
0.09999999999999432,188,9,60,90
0.09999999999999432,188,10,60,90
0.10000000000000853,188,11,60,90
0.10000000000000853,188,12,60,90
0.10000000000000853,188,13,60,90
0.10000000000000853,188,14,60,90
0.10000000000000853,188,15,60,90
0.09999999999999432,189,0,60,90
0.09999999999999432,189,1,60,90
0.10000000000000853,189,2,60,90
0.09999999999999432,189,3,60,90
0.10000000000000853,189,4,60,90
0.10000000000000853,189,5,60,90
0.09999999999999432,189,6,60,90
0.09999999999999432,189,7,60,90
0.09999999999999432,189,8,60,90
0.09999999999999432,189,9,60,90
0.09999999999999432,189,10,60,90
0.09999999999999432,189,11,60,90
0.10000000000000853,189,12,60,90
0.10000000000000853,189,13,60,90
0.10000000000000853,189,14,60,90
0.10000000000000853,189,15,60,90
0.10000000000000853,190,0,60,90
0.10000000000000853,190,1,60,90
0.09999999999999432,190,2,60,90
0.09999999999999432,190,3,60,90
0.09999999999999432,190,4,60,90
0.09999999999999432,190,5,60,90
0.09999999999999432,190,6,60,90
0.09999999999999432,190,7,60,90
0.09999999999999432,190,8,60,90
0.09999999999999432,190,9,60,90
0.10000000000000853,190,10,60,90
0.09999999999999432,190,11,60,90
0.09999999999999432,190,12,60,90
0.09999999999999432,190,13,60,90
0.10000000000000853,190,14,60,90
0.10000000000000853,190,15,60,90
0.10000000000000853,191,0,60,90
0.10000000000000853,191,1,60,90
0.09999999999999432,191,2,60,90
0.09999999999999432,191,3,60,90
0.09999999999999432,191,4,60,90
0.10000000000000853,191,5,60,90
0.09999999999999432,191,6,60,90
0.09999999999999432,191,7,60,90
0.09999999999999432,191,8,60,90
0.09999999999999432,191,9,60,90
0.09999999999999432,191,10,60,90
0.09999999999999432,191,11,60,90
0.09999999999999432,191,12,60,90
0.10000000000000853,191,13,60,90
0.09999999999999432,191,14,60,90
0.056818181818186986,191,15,60,90
0.09999999999999432,192,0,60,90
0.10000000000000853,192,1,60,90
0.09999999999999432,192,2,60,90
0.09999999999999432,192,3,60,90
0.09999999999999432,192,4,60,90
0.09999999999999432,192,5,60,90
0.09999999999999432,192,6,60,90
0.09999999999999432,192,7,60,90
0.10000000000002274,192,8,60,90
0.09999999999999432,192,9,60,90
0.09999999999999432,192,10,60,90
0.09999999999999432,192,11,60,90
0.09999999999999432,192,12,60,90
0.09999999999999432,192,13,60,90
0.09999999999999432,192,14,60,90
0.10000000000002274,192,15,60,90
0.09999999999999432,193,0,60,90
0.10000000000002274,193,1,60,90
0.09999999999999432,193,2,60,90
0.09999999999999432,193,3,60,90
0.09999999999999432,193,4,60,90
0.10000000000002274,193,5,60,90
0.09999999999999432,193,6,60,90
0.004545454545450411,193,7,60,90
0.09999999999999432,193,8,60,90
0.10000000000002274,193,9,60,90
0.09999999999999432,193,10,60,90
0.09999999999999432,193,11,60,90
0.09999999999999432,193,12,60,90
0.09999999999999432,193,13,60,90
0.10000000000002274,193,14,60,90
0.06818181818181301,193,15,60,90
0.09999999999999432,194,0,60,90
0.10000000000002274,194,1,60,90
0.09999999999999432,194,2,60,90
0.09999999999999432,194,3,60,90
0.10000000000002274,194,4,60,90
0.10000000000002274,194,5,60,90
0.09999999999999432,194,6,60,90
0.09999999999999432,194,7,60,90
0.09999999999999432,194,8,60,90
0.09999999999999432,194,9,60,90
0.09999999999999432,194,10,60,90
0.09999999999999432,194,11,60,90
0.09999999999999432,194,12,60,90
0.06818181818181301,194,13,60,90
0.09999999999999432,194,14,60,90
0.09999999999999432,194,15,60,90
0.09999999999999432,195,0,60,90
0.09999999999999432,195,1,60,90
0.09999999999999432,195,2,60,90
0.09999999999999432,195,3,60,90
0.10000000000002274,195,4,60,90
0.09999999999999432,195,5,60,90
0.09999999999999432,195,6,60,90
0.10000000000002274,195,7,60,90
0.10000000000002274,195,8,60,90
0.09999999999999432,195,9,60,90
0.09999999999999432,195,10,60,90
0.09999999999999432,195,11,60,90
0.09999999999999432,195,12,60,90
0.09999999999999432,195,13,60,90
0.09999999999999432,195,14,60,90
0.09999999999999432,195,15,60,90
0.10000000000002274,196,0,60,90
0.09999999999999432,196,1,60,90
0.09999999999999432,196,2,60,90
0.10000000000002274,196,3,60,90
0.09999999999999432,196,4,60,90
0.09999999999999432,196,5,60,90
0.09999999999999432,196,6,60,90
0.09999999999999432,196,7,60,90
0.09999999999999432,196,8,60,90
0.09999999999999432,196,9,60,90
0.09999999999999432,196,10,60,90
0.10000000000002274,196,11,60,90
0.09999999999999432,196,12,60,90
0.10000000000002274,196,13,60,90
0.09999999999999432,196,14,60,90
0.09999999999999432,196,15,60,90
0.10000000000002274,197,0,60,90
0.09999999999999432,197,1,60,90
0.09999999999999432,197,2,60,90
0.09999999999999432,197,3,60,90
0.10000000000002274,197,4,60,90
0.09999999999999432,197,5,60,90
0.09999999999999432,197,6,60,90
0.09999999999999432,197,7,60,90
0.09999999999999432,197,8,60,90
0.09999999999999432,197,9,60,90
0.09999999999999432,197,10,60,90
0.10000000000002274,197,11,60,90
0.10000000000002274,197,12,60,90
0.09999999999999432,197,13,60,90
0.09999999999999432,197,14,60,90
0.09999999999999432,197,15,60,90
0.09999999999999432,198,0,60,90
0.09999999999999432,198,1,60,90
0.09999999999999432,198,2,60,90
0.09999999999999432,198,3,60,90
0.09999999999999432,198,4,60,90
0.09999999999999432,198,5,60,90
0.09999999999999432,198,6,60,90
0.09999999999999432,198,7,60,90
0.09999999999999432,198,8,60,90
0.09999999999999432,198,9,60,90
0.09999999999999432,198,10,60,90
0.09999999999999432,198,11,60,90
0.10000000000002274,198,12,60,90
0.10000000000002274,198,13,60,90
0.09999999999999432,198,14,60,90
0.09999999999999432,198,15,60,90
0.09999999999999432,199,0,60,90
0.09999999999999432,199,1,60,90
0.09999999999999432,199,2,60,90
0.09999999999999432,199,3,60,90
0.09999999999999432,199,4,60,90
0.09999999999999432,199,5,60,90
0.09999999999999432,199,6,60,90
0.09999999999999432,199,7,60,90
0.09999999999999432,199,8,60,90
0.10000000000002274,199,9,60,90
0.09999999999999432,199,10,60,90
0.09999999999999432,199,11,60,90
0.09999999999999432,199,12,60,90
0.09999999999999432,199,13,60,90
0.09999999999999432,199,14,60,90
0.09999999999999432,199,15,60,90
0.10000000000002274,200,0,60,90
0.10000000000002274,200,1,60,90
0.09999999999999432,200,2,60,90
0.09999999999999432,200,3,60,90
0.09999999999999432,200,4,60,90
0.10000000000002274,200,5,60,90
0.09999999999999432,200,6,60,90
0.09999999999999432,200,7,60,90
0.10000000000002274,200,8,60,90
0.09999999999999432,200,9,60,90
0.09999999999999432,200,10,60,90
0.10000000000002274,200,11,60,90
0.09999999999999432,200,12,60,90
0.09999999999999432,200,13,60,90
0.10000000000002274,200,14,60,90
0.10000000000002274,200,15,60,90
0.09999999999999432,201,0,60,90
0.09999999999999432,201,1,60,90
0.10000000000002274,201,2,60,90
0.09999999999999432,201,3,60,90
0.09999999999999432,201,4,60,90
0.09999999999999432,201,5,60,90
0.024999999999977263,201,6,60,90
0.09999999999999432,201,7,60,90
0.09999999999999432,201,8,60,90
0.09999999999999432,201,9,60,90
0.09999999999999432,201,10,60,90
0.09999999999999432,201,11,60,90
0.09999999999999432,201,12,60,90
0.09999999999999432,201,13,60,90
0.09999999999999432,201,14,60,90
0.09999999999999432,201,15,60,90
0.09999999999999432,202,0,60,90
0.09999999999999432,202,1,60,90
0.09999999999999432,202,2,60,90
0.10000000000002274,202,3,60,90
0.09999999999999432,202,4,60,90
0.10000000000002274,202,5,60,90
0.09999999999999432,202,6,60,90
0.09999999999999432,202,7,60,90
0.09999999999999432,202,8,60,90
0.10000000000002274,202,9,60,90
0.056818181818186986,202,10,60,90
0.09999999999999432,202,11,60,90
0.056818181818186986,202,12,60,90
0.10000000000002274,202,13,60,90
0.09999999999999432,202,14,60,90
0.09999999999999432,202,15,60,90
0.09999999999999432,203,0,60,90
0.10000000000002274,203,1,60,90
0.09999999999999432,203,2,60,90
0.10000000000002274,203,3,60,90
0.09999999999999432,203,4,60,90
0.10000000000002274,203,5,60,90
0.09999999999999432,203,6,60,90
0.09999999999999432,203,7,60,90
0.09999999999999432,203,8,60,90
0.09999999999999432,203,9,60,90
0.09999999999999432,203,10,60,90
0.09999999999999432,203,11,60,90
0.09999999999999432,203,12,60,90
0.09999999999999432,203,13,60,90
0.02727272727273089,203,14,60,90
0.09999999999999432,203,15,60,90
0.09999999999999432,204,0,60,90
0.10000000000002274,204,1,60,90
0.09999999999999432,204,2,60,90
0.10000000000000142,204,3,60,90
0.10000000000000142,204,4,60,90
0.10000000000000142,204,5,60,90
0.10000000000000142,204,6,60,90
0.10000000000000142,204,7,60,90
0.10000000000000853,204,8,60,90
0.09999999999999432,204,9,60,90
0.09999999999999432,204,10,60,90
0.09999999999999432,204,11,60,90
0.10000000000000853,204,12,60,90
0.10000000000000853,204,13,60,90
0.10000000000000853,204,14,60,90
0.09999999999999432,204,15,60,90
0.10000000000000853,205,0,60,90
0.09999999999999432,205,1,60,90
0.10000000000000853,205,2,60,90
0.10000000000000853,205,3,60,90
0.09999999999999432,205,4,60,90
0.09999999999999432,205,5,60,90
0.09999999999999432,205,6,60,90
0.09999999999999432,205,7,60,90
0.09999999999999432,205,8,60,90
0.09999999999999432,205,9,60,90
0.10000000000000853,205,10,60,90
0.09999999999999432,205,11,60,90
0.10000000000000853,205,12,60,90
0.09999999999999432,205,13,60,90
0.09999999999999432,205,14,60,90
0.10000000000000853,205,15,60,90
0.09999999999999432,206,0,60,90
0.10000000000000853,206,1,60,90
0.09999999999999432,206,2,60,90
0.10000000000000853,206,3,60,90
0.10000000000000853,206,4,60,90
0.10000000000000853,206,5,60,90
0.10000000000000853,206,6,60,90
0.09999999999999432,206,7,60,90
0.09999999999999432,206,8,60,90
0.09999999999999432,206,9,60,90
0.10000000000000853,206,10,60,90
0.09999999999999432,206,11,60,90
0.10000000000000853,206,12,60,90
0.09999999999999432,206,13,60,90
0.09999999999999432,206,14,60,90
0.10000000000000853,206,15,60,90
0.09999999999999432,207,0,60,90
0.10000000000000853,207,1,60,90
0.10000000000000853,207,2,60,90
0.09999999999999432,207,3,60,90
0.10000000000000853,207,4,60,90
0.09999999999999432,207,5,60,90
0.09999999999999432,207,6,60,90
0.10000000000000853,207,7,60,90
0.10000000000000853,207,8,60,90
0.10000000000000853,207,9,60,90
0.09999999999999432,207,10,60,90
0.09999999999999432,207,11,60,90
0.09999999999999432,207,12,60,90
0.10000000000000853,207,13,60,90
0.10000000000000853,207,14,60,90
0.10000000000000853,207,15,60,90
0.10000000000000853,208,0,60,90
0.09999999999999432,208,1,60,90
0.09999999999999432,208,2,60,90
0.10000000000000853,208,3,60,90
0.09999999999999432,208,4,60,90
0.09999999999999432,208,5,60,90
0.09999999999999432,208,6,60,90
0.10000000000000853,208,7,60,90
0.10000000000000853,208,8,60,90
0.09999999999999432,208,9,60,90
0.10000000000000853,208,10,60,90
0.09999999999999432,208,11,60,90
0.09999999999999432,208,12,60,90
0.09999999999999432,208,13,60,90
0.09999999999999432,208,14,60,90
0.09999999999999432,208,15,60,90
0.09999999999999432,209,0,60,90
0.10000000000000853,209,1,60,90
0.10000000000000853,209,2,60,90
0.10000000000000853,209,3,60,90
0.09999999999999432,209,4,60,90
0.10000000000000853,209,5,60,90
0.10000000000000853,209,6,60,90
0.10000000000000853,209,7,60,90
0.10000000000000853,209,8,60,90
0.10000000000000853,209,9,60,90
0.09999999999999432,209,10,60,90
0.09999999999999432,209,11,60,90
0.09999999999999432,209,12,60,90
0.09999999999999432,209,13,60,90
0.09999999999999432,209,14,60,90
0.09999999999999432,209,15,60,90
0.09999999999999432,210,0,60,90
0.09999999999999432,210,1,60,90
0.10000000000000853,210,2,60,90
0.09999999999999432,210,3,60,90
0.09999999999999432,210,4,60,90
0.10000000000000853,210,5,60,90
0.09999999999999432,210,6,60,90
0.10000000000000853,210,7,60,90
0.10000000000000853,210,8,60,90
0.09999999999999432,210,9,60,90
0.10000000000000853,210,10,60,90
0.10000000000000853,210,11,60,90
0.09999999999999432,210,12,60,90
0.09999999999999432,210,13,60,90
0.10000000000000853,210,14,60,90
0.09999999999999432,210,15,60,90
0.10000000000000853,211,0,60,90
0.10000000000000853,211,1,60,90
0.09999999999999432,211,2,60,90
0.09999999999999432,211,3,60,90
0.10000000000000853,211,4,60,90
0.09999999999999432,211,5,60,90
0.09999999999999432,211,6,60,90
0.09999999999999432,211,7,60,90
0.10000000000000853,211,8,60,90
0.10000000000000853,211,9,60,90
0.10000000000000853,211,10,60,90
0.10000000000000853,211,11,60,90
0.09999999999999432,211,12,60,90
0.09999999999999432,211,13,60,90
0.09999999999999432,211,14,60,90
0.09999999999999432,211,15,60,90
0.10000000000000853,212,0,60,90
0.09999999999999432,212,1,60,90
0.09999999999999432,212,2,60,90
0.09999999999999432,212,3,60,90
0.09999999999999432,212,4,60,90
0.09999999999999432,212,5,60,90
0.09999999999999432,212,6,60,90
0.09999999999999432,212,7,60,90
0.10000000000002274,212,8,60,90
0.09999999999999432,212,9,60,90
0.09999999999999432,212,10,60,90
0.09999999999999432,212,11,60,90
0.09999999999999432,212,12,60,90
0.09999999999999432,212,13,60,90
0.09999999999999432,212,14,60,90
0.10000000000002274,212,15,60,90
0.09999999999999432,213,0,60,90
0.09999999999999432,213,1,60,90
0.10000000000002274,213,2,60,90
0.09999999999999432,213,3,60,90
0.09999999999999432,213,4,60,90
0.10000000000002274,213,5,60,90
0.09999999999999432,213,6,60,90
0.10000000000002274,213,7,60,90
0.09999999999999432,213,8,60,90
0.09999999999999432,213,9,60,90
0.09999999999999432,213,10,60,90
0.09999999999999432,213,11,60,90
0.09999999999999432,213,12,60,90
0.10000000000002274,213,13,60,90
0.09999999999999432,213,14,60,90
0.10000000000002274,213,15,60,90
0.09999999999999432,214,0,60,90
0.09999999999999432,214,1,60,90
0.09999999999999432,214,2,60,90
0.10000000000002274,214,3,60,90
0.09999999999999432,214,4,60,90
0.09999999999999432,214,5,60,90
0.09999999999999432,214,6,60,90
0.09999999999999432,214,7,60,90
0.09999999999999432,214,8,60,90
0.10000000000002274,214,9,60,90
0.09999999999999432,214,10,60,90
0.09999999999999432,214,11,60,90
0.10000000000002274,214,12,60,90
0.09999999999999432,214,13,60,90
0.09999999999999432,214,14,60,90
0.09999999999999432,214,15,60,90
0.09999999999999432,215,0,60,90
0.09999999999999432,215,1,60,90
0.09999999999999432,215,2,60,90
0.09999999999999432,215,3,60,90
0.09999999999999432,215,4,60,90
0.09999999999999432,215,5,60,90
0.09999999999999432,215,6,60,90
0.09999999999999432,215,7,60,90
0.09999999999999432,215,8,60,90
0.10000000000002274,215,9,60,90
0.09999999999999432,215,10,60,90
0.09999999999999432,215,11,60,90
0.09999999999999432,215,12,60,90
0.09999999999999432,215,13,60,90
0.09999999999999432,215,14,60,90
0.09999999999999432,215,15,60,90
0.10000000000002274,216,0,60,90
0.09999999999999432,216,1,60,90
0.09999999999999432,216,2,60,90
0.09999999999999432,216,3,60,90
0.10000000000002274,216,4,60,90
0.09999999999999432,216,5,60,90
0.09999999999999432,216,6,60,90
0.09999999999999432,216,7,60,90
0.10000000000002274,216,8,60,90
0.09999999999999432,216,9,60,90
0.09999999999999432,216,10,60,90
0.09999999999999432,216,11,60,90
0.09999999999999432,216,12,60,90
0.09999999999999432,216,13,60,90
0.09999999999999432,216,14,60,90
0.09999999999999432,216,15,60,90
0.10000000000002274,217,0,60,90
0.10000000000002274,217,1,60,90
0.09999999999999432,217,2,60,90
0.10000000000002274,217,3,60,90
0.09999999999999432,217,4,60,90
0.09999999999999432,217,5,60,90
0.09999999999999432,217,6,60,90
0.09999999999999432,217,7,60,90
0.09999999999999432,217,8,60,90
0.09999999999999432,217,9,60,90
0.09999999999999432,217,10,60,90
0.09999999999999432,217,11,60,90
0.09999999999999432,217,12,60,90
0.09999999999999432,217,13,60,90
0.10000000000002274,217,14,60,90
0.09999999999999432,217,15,60,90
0.09999999999999432,218,0,60,90
0.10000000000002274,218,1,60,90
0.09999999999999432,218,2,60,90
0.09999999999999432,218,3,60,90
0.10000000000002274,218,4,60,90
0.09999999999999432,218,5,60,90
0.09999999999999432,218,6,60,90
0.10000000000002274,218,7,60,90
0.09999999999999432,218,8,60,90
0.09999999999999432,218,9,60,90
0.09999999999999432,218,10,60,90
0.09999999999999432,218,11,60,90
0.09999999999999432,218,12,60,90
0.09999999999999432,218,13,60,90
0.09999999999999432,218,14,60,90
0.10000000000002274,218,15,60,90
0.09999999999999432,219,0,60,90
0.09999999999999432,219,1,60,90
0.09999999999999432,219,2,60,90
0.10000000000002274,219,3,60,90
0.09999999999999432,219,4,60,90
0.10000000000002274,219,5,60,90
0.09999999999999432,219,6,60,90
0.09999999999999432,219,7,60,90
0.09999999999999432,219,8,60,90
0.09999999999999432,219,9,60,90
0.09999999999999432,219,10,60,90
0.09999999999999432,219,11,60,90
0.09999999999999432,219,12,60,90
0.09999999999999432,219,13,60,90
0.09999999999999432,219,14,60,90
0.10000000000002274,219,15,60,90
0.09999999999999432,220,0,60,90
0.09999999999999432,220,1,60,90
0.09999999999999432,220,2,60,90
0.10000000000000853,220,3,60,90
0.10000000000000853,220,4,60,90
0.09999999999999432,220,5,60,90
0.09999999999999432,220,6,60,90
0.09999999999999432,220,7,60,90
0.09999999999999432,220,8,60,90
0.09999999999999432,220,9,60,90
0.10000000000000853,220,10,60,90
0.10000000000000853,220,11,60,90
0.09999999999999432,220,12,60,90
0.09999999999999432,220,13,60,90
0.09999999999999432,220,14,60,90
0.10000000000000853,220,15,60,90
0.10000000000000853,221,0,60,90
0.10000000000000853,221,1,60,90
0.10000000000000853,221,2,60,90
0.09999999999999432,221,3,60,90
0.09999999999999432,221,4,60,90
0.10000000000000853,221,5,60,90
0.10000000000000853,221,6,60,90
0.10000000000000853,221,7,60,90
0.09999999999999432,221,8,60,90
0.09999999999999432,221,9,60,90
0.10000000000000853,221,10,60,90
0.09999999999999432,221,11,60,90
0.10000000000000853,221,12,60,90
0.10000000000000853,221,13,60,90
0.09999999999999432,221,14,60,90
0.09999999999999432,221,15,60,90
0.09999999999999432,222,0,60,90
0.10000000000000853,222,1,60,90
0.10000000000000853,222,2,60,90
0.10000000000000853,222,3,60,90
0.10000000000000853,222,4,60,90
0.09999999999999432,222,5,60,90
0.09999999999999432,222,6,60,90
0.10000000000000853,222,7,60,90
0.09999999999999432,222,8,60,90
0.10000000000000853,222,9,60,90
0.09999999999999432,222,10,60,90
0.09999999999999432,222,11,60,90
0.09999999999999432,222,12,60,90
0.09999999999999432,222,13,60,90
0.10000000000000853,222,14,60,90
0.09999999999999432,222,15,60,90
0.09999999999999432,223,0,60,90
0.09999999999999432,223,1,60,90
0.09999999999999432,223,2,60,90
0.10000000000000853,223,3,60,90
0.10000000000000853,223,4,60,90
0.10000000000000853,223,5,60,90
0.09999999999999432,223,6,60,90
0.09999999999999432,223,7,60,90
0.09999999999999432,223,8,60,90
0.10000000000000853,223,9,60,90
0.09999999999999432,223,10,60,90
0.10000000000000853,223,11,60,90
0.10000000000000853,223,12,60,90
0.09999999999999432,223,13,60,90
0.09999999999999432,223,14,60,90
0.09999999999999432,223,15,60,90
0.10000000000000853,224,0,60,90
0.10000000000000853,224,1,60,90
0.09999999999999432,224,2,60,90
0.09999999999999432,224,3,60,90
0.10000000000000853,224,4,60,90
0.10000000000000853,224,5,60,90
0.10000000000000853,224,6,60,90
0.09999999999999432,224,7,60,90
0.09999999999999432,224,8,60,90
0.09999999999999432,224,9,60,90
0.09999999999999432,224,10,60,90
0.10000000000000853,224,11,60,90
0.10000000000000853,224,12,60,90
0.10000000000000853,224,13,60,90
0.09999999999999432,224,14,60,90
0.09999999999999432,224,15,60,90
0.09999999999999432,225,0,60,90
0.10000000000000853,225,1,60,90
0.10000000000000853,225,2,60,90
0.10000000000000853,225,3,60,90
0.09999999999999432,225,4,60,90
0.09999999999999432,225,5,60,90
0.09999999999999432,225,6,60,90
0.10000000000000853,225,7,60,90
0.10000000000000853,225,8,60,90
0.09999999999999432,225,9,60,90
0.09999999999999432,225,10,60,90
0.09999999999999432,225,11,60,90
0.09999999999999432,225,12,60,90
0.10000000000000853,225,13,60,90
0.10000000000000853,225,14,60,90
0.10000000000000853,225,15,60,90
0.09999999999999432,226,0,60,90
0.09999999999999432,226,1,60,90
0.09999999999999432,226,2,60,90
0.10000000000000853,226,3,60,90
0.10000000000000853,226,4,60,90
0.10000000000000853,226,5,60,90
0.09999999999999432,226,6,60,90
0.09999999999999432,226,7,60,90
0.09999999999999432,226,8,60,90
0.10000000000000853,226,9,60,90
0.10000000000000853,226,10,60,90
0.10000000000000853,226,11,60,90
0.10000000000000853,226,12,60,90
0.09999999999999432,226,13,60,90
0.10000000000000853,226,14,60,90
0.10000000000000853,226,15,60,90
0.10000000000000853,227,0,60,90
0.10000000000000853,227,1,60,90
0.09999999999999432,227,2,60,90
0.09999999999999432,227,3,60,90
0.09999999999999432,227,4,60,90
0.10000000000000853,227,5,60,90
0.10000000000000853,227,6,60,90
0.10000000000000853,227,7,60,90
0.09999999999999432,227,8,60,90
0.09999999999999432,227,9,60,90
0.09999999999999432,227,10,60,90
0.10000000000000853,227,11,60,90
0.09999999999999432,227,12,60,90
0.10000000000000853,227,13,60,90
0.09999999999999432,227,14,60,90
0.09999999999999432,227,15,60,90
0.09999999999999432,228,0,60,90
0.09999999999999432,228,1,60,90
0.10000000000000853,228,2,60,90
0.09999999999999432,228,3,60,90
0.09999999999999432,228,4,60,90
0.09999999999999432,228,5,60,90
0.09999999999999432,228,6,60,90
0.10000000000000853,228,7,60,90
0.10000000000000853,228,8,60,90
0.10000000000000853,228,9,60,90
0.09999999999999432,228,10,60,90
0.09999999999999432,228,11,60,90
0.10000000000000853,228,12,60,90
0.10000000000000853,228,13,60,90
0.09999999999999432,228,14,60,90
0.10000000000000853,228,15,60,90
0.09999999999999432,229,0,60,90
0.09999999999999432,229,1,60,90
0.10000000000000853,229,2,60,90
0.09999999999999432,229,3,60,90
0.10000000000000853,229,4,60,90
0.10000000000000853,229,5,60,90
0.09999999999999432,229,6,60,90
0.09999999999999432,229,7,60,90
0.10000000000000853,229,8,60,90
0.10000000000000853,229,9,60,90
0.10000000000000853,229,10,60,90
0.09999999999999432,229,11,60,90
0.09999999999999432,229,12,60,90
0.09999999999999432,229,13,60,90
0.09999999999999432,229,14,60,90
0.10000000000000853,229,15,60,90
0.10000000000000853,230,0,60,90
0.10000000000000853,230,1,60,90
0.09999999999999432,230,2,60,90
0.09999999999999432,230,3,60,90
0.09999999999999432,230,4,60,90
0.09999999999999432,230,5,60,90
0.09999999999999432,230,6,60,90
0.10000000000000853,230,7,60,90
0.09999999999999432,230,8,60,90
0.09999999999999432,230,9,60,90
0.10000000000000853,230,10,60,90
0.10000000000000853,230,11,60,90
0.10000000000000853,230,12,60,90
0.09999999999999432,230,13,60,90
0.09999999999999432,230,14,60,90
0.10000000000000853,230,15,60,90
0.10000000000000853,231,0,60,90
0.09999999999999432,231,1,60,90
0.10000000000000853,231,2,60,90
0.09999999999999432,231,3,60,90
0.09999999999999432,231,4,60,90
0.09999999999999432,231,5,60,90
0.10000000000000853,231,6,60,90
0.10000000000000853,231,7,60,90
0.10000000000000853,231,8,60,90
0.10000000000000853,231,9,60,90
0.09999999999999432,231,10,60,90
0.09999999999999432,231,11,60,90
0.09999999999999432,231,12,60,90
0.10000000000000853,231,13,60,90
0.10000000000000853,231,14,60,90
0.09999999999999432,231,15,60,90
0.09999999999999432,232,0,60,90
0.09999999999999432,232,1,60,90
0.10000000000000853,232,2,60,90
0.09999999999999432,232,3,60,90
0.09999999999999432,232,4,60,90
0.10000000000000853,232,5,60,90
0.09999999999999432,232,6,60,90
0.09999999999999432,232,7,60,90
0.10000000000000853,232,8,60,90
0.10000000000000853,232,9,60,90
0.09999999999999432,232,10,60,90
0.09999999999999432,232,11,60,90
0.09999999999999432,232,12,60,90
0.09999999999999432,232,13,60,90
0.09999999999999432,232,14,60,90
0.10000000000000853,232,15,60,90
0.09999999999999432,233,0,60,90
0.10000000000000853,233,1,60,90
0.09999999999999432,233,2,60,90
0.09999999999999432,233,3,60,90
0.09999999999999432,233,4,60,90
0.10000000000002274,233,5,60,90
0.09999999999999432,233,6,60,90
0.09999999999999432,233,7,60,90
0.10000000000002274,233,8,60,90
0.09999999999999432,233,9,60,90
0.09999999999999432,233,10,60,90
0.09999999999999432,233,11,60,90
0.09999999999999432,233,12,60,90
0.09999999999999432,233,13,60,90
0.09999999999999432,233,14,60,90
0.09999999999999432,233,15,60,90
0.09999999999999432,234,0,60,90
0.09999999999999432,234,1,60,90
0.10000000000002274,234,2,60,90
0.09999999999999432,234,3,60,90
0.09999999999999432,234,4,60,90
0.10000000000002274,234,5,60,90
0.09999999999999432,234,6,60,90
0.09999999999999432,234,7,60,90
0.09999999999999432,234,8,60,90
0.09999999999999432,234,9,60,90
0.09999999999999432,234,10,60,90
0.09999999999999432,234,11,60,90
0.09999999999999432,234,12,60,90
0.09999999999999432,234,13,60,90
0.09999999999999432,234,14,60,90
0.09999999999999432,234,15,60,90
0.10000000000002274,235,0,60,90
0.09999999999999432,235,1,60,90
0.09999999999999432,235,2,60,90
0.09999999999999432,235,3,60,90
0.10000000000002274,235,4,60,90
0.09999999999999432,235,5,60,90
0.09999999999999432,235,6,60,90
0.09999999999999432,235,7,60,90
0.09999999999999432,235,8,60,90
0.09999999999999432,235,9,60,90
0.09999999999999432,235,10,60,90
0.09999999999999432,235,11,60,90
0.10000000000002274,235,12,60,90
0.09999999999999432,235,13,60,90
0.09999999999999432,235,14,60,90
0.09999999999999432,235,15,60,90
0.09999999999999432,236,0,60,90
0.10000000000002274,236,1,60,90
0.09999999999999432,236,2,60,90
0.10000000000002274,236,3,60,90
0.09999999999999432,236,4,60,90
0.09999999999999432,236,5,60,90
0.10000000000002274,236,6,60,90
0.10000000000002274,236,7,60,90
0.09999999999999432,236,8,60,90
0.09999999999999432,236,9,60,90
0.10000000000002274,236,10,60,90
0.09999999999999432,236,11,60,90
0.09999999999999432,236,12,60,90
0.09999999999999432,236,13,60,90
0.09999999999999432,236,14,60,90
0.09999999999999432,236,15,60,90
0.09999999999999432,237,0,60,90
0.09999999999999432,237,1,60,90
0.09999999999999432,237,2,60,90
0.09999999999999432,237,3,60,90
0.10000000000002274,237,4,60,90
0.09999999999999432,237,5,60,90
0.09999999999999432,237,6,60,90
0.10000000000002274,237,7,60,90
0.09999999999999432,237,8,60,90
0.09999999999999432,237,9,60,90
0.09999999999999432,237,10,60,90
0.09999999999999432,237,11,60,90
0.09999999999999432,237,12,60,90
0.09999999999999432,237,13,60,90
0.09999999999999432,237,14,60,90
0.09999999999999432,237,15,60,90
0.10000000000002274,238,0,60,90
0.09999999999999432,238,1,60,90
0.09999999999999432,238,2,60,90
0.10000000000002274,238,3,60,90
0.09999999999999432,238,4,60,90
0.09999999999999432,238,5,60,90
0.10000000000002274,238,6,60,90
0.09999999999999432,238,7,60,90
0.09999999999999432,238,8,60,90
0.09999999999999432,238,9,60,90
0.09999999999999432,238,10,60,90
0.09999999999999432,238,11,60,90
0.09999999999999432,238,12,60,90
0.09999999999999432,238,13,60,90
0.09999999999999432,238,14,60,90
0.09999999999999432,238,15,60,90
0.09999999999999432,239,0,60,90
0.10000000000002274,239,1,60,90
0.09999999999999432,239,2,60,90
0.10000000000002274,239,3,60,90
0.10000000000002274,239,4,60,90
0.09999999999999432,239,5,60,90
0.09999999999999432,239,6,60,90
0.09999999999999432,239,7,60,90
0.09999999999999432,239,8,60,90
0.09999999999999432,239,9,60,90
0.09999999999999432,239,10,60,90
0.10000000000002274,239,11,60,90
0.09999999999999432,239,12,60,90
0.09999999999999432,239,13,60,90
0.10000000000002274,239,14,60,90
0.09999999999999432,239,15,60,90
0.09999999999999432,240,0,60,90
0.10000000000002274,240,1,60,90
0.09999999999999432,240,2,60,90
0.09999999999999432,240,3,60,90
0.10000000000002274,240,4,60,90
0.09999999999999432,240,5,60,90
0.09999999999999432,240,6,60,90
0.09999999999999432,240,7,60,90
0.09999999999999432,240,8,60,90
0.09999999999999432,240,9,60,90
0.09999999999999432,240,10,60,90
0.09999999999999432,240,11,60,90
0.09999999999999432,240,12,60,90
0.09999999999999432,240,13,60,90
0.09999999999999432,240,14,60,90
0.09999999999999432,240,15,60,90
0.09999999999999999,241,0,60,90
0.09999999999999432,241,1,60,90
0.045454545454532536,241,2,60,90
0.03636363636363171,241,3,60,90
0.01590909090909065,241,4,60,90
0.03409090909090651,241,5,60,90
0.10000000000000853,241,6,60,90
0.03636363636363171,241,7,60,90
0.09999999999999432,241,8,60,90
0.05909090909091219,241,9,60,90
0.02727272727273089,241,10,60,90
0.09999999999999432,241,11,60,90
0.056818181818172775,241,12,60,90
0.10000000000000853,241,13,60,90
0.04772727272727195,241,14,60,90
0.024999999999991473,241,15,60,90
0.06818181818181301,242,0,60,90
0.025000000000005684,242,1,60,90
0.10000000000000853,242,2,60,90
0.045454545454546746,242,3,60,90
0.03636363636363171,242,4,60,90
0.04772727272727195,242,5,60,90
0.004545454545450411,242,6,60,90
0.01590909090909065,242,7,60,90
0.025000000000005684,242,8,60,90
0.09999999999999432,242,9,60,90
0.10000000000000853,242,10,60,90
0.056818181818186986,242,11,60,90
0.09999999999999432,242,12,60,90
0.03409090909090651,242,13,60,90
0.02727272727271668,242,14,60,90
0.09999999999999432,242,15,60,90
0.025000000000005684,243,0,60,90
0.056818181818186986,243,1,60,90
0.013636363636365445,243,2,60,90
0.09999999999999432,243,3,60,90
0.045454545454546746,243,4,60,90
0.10000000000000853,243,5,60,90
0.004545454545464622,243,6,60,90
0.056818181818186986,243,7,60,90
0.01590909090909065,243,8,60,90
0.01590909090909065,243,9,60,90
0.024999999999991473,243,10,60,90
0.10000000000000853,243,11,60,90
0.045454545454546746,243,12,60,90
0.09999999999999432,243,13,60,90
0.10000000000000853,243,14,60,90
0.06590909090910202,243,15,60,90
0.10000000000000853,244,0,60,90
0.004545454545450411,244,1,60,90
0.06818181818181301,244,2,60,90
0.013636363636365445,244,3,60,90
0.09999999999999432,244,4,60,90
0.10000000000000853,244,5,60,90
0.06818181818182723,244,6,60,90
0.013636363636365445,244,7,60,90
0.013636363636365445,244,8,60,90
0.01590909090909065,244,9,60,90
0.01590909090909065,244,10,60,90
0.09999999999999432,244,11,60,90
0.045454545454546746,244,12,60,90
0.09999999999999432,244,13,60,90
0.025000000000005684,244,14,60,90
0.06818181818182723,244,15,60,90
0.013636363636365445,245,0,60,90
0.06818181818181301,245,1,60,90
0.004545454545450411,245,2,60,90
0.004545454545450411,245,3,60,90
0.056818181818186986,245,4,60,90
0.004545454545464622,245,5,60,90
0.036363636363645924,245,6,60,90
0.03409090909090651,245,7,60,90
0.0022727272727252057,245,8,60,90
0.01590909090909065,245,9,60,90
0.045454545454532536,245,10,60,90
0.01590909090909065,245,11,60,90
0.09999999999999432,245,12,60,90
0.024999999999991473,245,13,60,90
0.013636363636365445,245,14,60,90
0.05909090909091219,245,15,60,90
0.01590909090909065,246,0,60,90
0.013636363636365445,246,1,60,90
0.09999999999999432,246,2,60,90
0.06818181818181301,246,3,60,90
0.03636363636363171,246,4,60,90
0.004545454545450411,246,5,60,90
0.10000000000000853,246,6,60,90
0.06590909090910202,246,7,60,90
0.09999999999999432,246,8,60,90
0.03409090909090651,246,9,60,90
0.10000000000000853,246,10,60,90
0.04772727272728616,246,11,60,90
0.10000000000000853,246,12,60,90
0.036363636363645924,246,13,60,90
0.004545454545464622,246,14,60,90
0.004545454545464622,246,15,60,90
0.0022727272727252057,247,0,60,90
0.06818181818181301,247,1,60,90
0.025000000000005684,247,2,60,90
0.03636363636363171,247,3,60,90
0.10000000000000853,247,4,60,90
0.04772727272727195,247,5,60,90
0.09999999999999432,247,6,60,90
0.01590909090909065,247,7,60,90
0.045454545454546746,247,8,60,90
0.03636363636363171,247,9,60,90
0.01590909090909065,247,10,60,90
0.09999999999999432,247,11,60,90
0.06818181818181301,247,12,60,90
0.03636363636363171,247,13,60,90
0.024999999999991473,247,14,60,90
0.06818181818181301,247,15,60,90
0.03636363636363171,248,0,60,90
0.09999999999999432,248,1,60,90
0.06590909090908781,248,2,60,90
0.01590909090909065,248,3,60,90
0.045454545454546746,248,4,60,90
0.013636363636365445,248,5,60,90
0.004545454545464622,248,6,60,90
0.056818181818186986,248,7,60,90
0.03636363636363171,248,8,60,90
0.056818181818186986,248,9,60,90
0.004545454545464622,248,10,60,90
0.036363636363645924,248,11,60,90
0.025000000000005684,248,12,60,90
0.06818181818181301,248,13,60,90
0.025000000000005684,248,14,60,90
0.056818181818172775,248,15,60,90
0.10000000000000853,249,0,60,90
0.06818181818182723,249,1,60,90
0.004545454545464622,249,2,60,90
0.056818181818186986,249,3,60,90
0.01590909090909065,249,4,60,90
0.03409090909090651,249,5,60,90
0.09999999999999432,249,6,60,90
0.09999999999999432,249,7,60,90
0.056818181818172775,249,8,60,90
0.09999999999999432,249,9,60,90
0.06818181818181301,249,10,60,90
0.09999999999999432,249,11,60,90
0.09999999999999432,249,12,60,90
0.09999999999999432,249,13,60,90
0.06818181818181301,249,14,60,90
0.013636363636365445,249,15,60,90
0.10000000000000853,250,0,60,90
0.09999999999999432,250,1,60,90
0.04772727272727195,250,2,60,90
0.004545454545450411,250,3,60,90
0.03636363636363171,250,4,60,90
0.036363636363645924,250,5,60,90
0.056818181818186986,250,6,60,90
0.09999999999999432,250,7,60,90
0.024999999999991473,250,8,60,90
0.09999999999999432,250,9,60,90
0.09999999999999432,250,10,60,90
0.06818181818181301,250,11,60,90
0.025000000000005684,250,12,60,90
0.004545454545450411,250,13,60,90
0.10000000000000853,250,14,60,90
0.045454545454546746,250,15,60,90
0.10000000000000853,251,0,60,90
0.05909090909091219,251,1,60,90
0.036363636363645924,251,2,60,90
0.025000000000005684,251,3,60,90
0.013636363636351234,251,4,60,90
0.04772727272727195,251,5,60,90
0.045454545454546746,251,6,60,90
0.04772727272727195,251,7,60,90
0.03636363636363171,251,8,60,90
0.056818181818172775,251,9,60,90
0.013636363636365445,251,10,60,90
0.03636363636363171,251,11,60,90
0.01590909090909065,251,12,60,90
0.045454545454546746,251,13,60,90
0.013636363636365445,251,14,60,90
0.10000000000000853,251,15,60,90
0.09999999999999432,252,0,60,90
0.056818181818172775,252,1,60,90
0.09999999999999432,252,2,60,90
0.04772727272727195,252,3,60,90
0.013636363636365445,252,4,60,90
0.05909090909089798,252,5,60,90
0.10000000000000853,252,6,60,90
0.09999999999999432,252,7,60,90
0.03636363636363171,252,8,60,90
0.03409090909092072,252,9,60,90
0.04772727272727195,252,10,60,90
0.03636363636363171,252,11,60,90
0.004545454545450411,252,12,60,90
0.10000000000000853,252,13,60,90
0.09999999999999432,252,14,60,90
0.06818181818181301,252,15,60,90
0.004545454545450411,253,0,60,90
0.004545454545464622,253,1,60,90
0.004545454545464622,253,2,60,90
0.10000000000000853,253,3,60,90
0.06818181818182723,253,4,60,90
0.09999999999999432,253,5,60,90
0.06818181818181301,253,6,60,90
0.013636363636351234,253,7,60,90
0.04772727272727195,253,8,60,90
0.01590909090909065,253,9,60,90
0.03409090909090651,253,10,60,90
0.09999999999999432,253,11,60,90
0.06590909090908781,253,12,60,90
0.10000000000000853,253,13,60,90
0.056818181818186986,253,14,60,90
0.09999999999999432,253,15,60,90
0.06818181818181301,254,0,60,90
0.10000000000000853,254,1,60,90
0.056818181818186986,254,2,60,90
0.024999999999991473,254,3,60,90
0.04772727272727195,254,4,60,90
0.004545454545450411,254,5,60,90
0.024999999999991473,254,6,60,90
0.056818181818186986,254,7,60,90
0.10000000000000853,254,8,60,90
0.06818181818182723,254,9,60,90
0.004545454545464622,254,10,60,90
0.056818181818186986,254,11,60,90
0.10000000000000853,254,12,60,90
0.056818181818186986,254,13,60,90
0.036363636363645924,254,14,60,90
0.004545454545464622,254,15,60,90
0.09999999999999432,255,0,60,90
0.04772727272727195,255,1,60,90
0.03409090909092072,255,2,60,90
0.09999999999999432,255,3,60,90
0.03636363636363171,255,4,60,90
0.056818181818172775,255,5,60,90
0.024999999999991473,255,6,60,90
0.013636363636365445,255,7,60,90
0.01590909090909065,255,8,60,90
0.03636363636363171,255,9,60,90
0.0022727272727252057,255,10,60,90
0.004545454545450411,255,11,60,90
0.10000000000000853,255,12,60,90
0.06818181818182723,255,13,60,90
0.025000000000005684,255,14,60,90
0.025000000000005684,255,15,60,90
0.03636363636363171,256,0,60,90
0.045454545454532536,256,1,60,90
0.013636363636351234,256,2,60,90
0.10000000000000853,256,3,60,90
0.09999999999999432,256,4,60,90
0.024999999999991473,256,5,60,90
0.013636363636365445,256,6,60,90
0.09999999999999432,256,7,60,90
0.01590909090909065,256,8,60,90
0.06818181818182723,256,9,60,90
0.09999999999999432,256,10,60,90
0.03636363636363171,256,11,60,90
0.024999999999991473,256,12,60,90
0.09999999999999432,256,13,60,90
0.10000000000000853,256,14,60,90
0.056818181818186986,256,15,60,90
0.09999999999999432,257,0,60,90
0.10000000000000853,257,1,60,90
0.09999999999999432,257,2,60,90
0.03636363636363171,257,3,60,90
0.03636363636363171,257,4,60,90
0.09999999999999432,257,5,60,90
0.056818181818172775,257,6,60,90
0.10000000000000853,257,7,60,90
0.06818181818182723,257,8,60,90
0.036363636363645924,257,9,60,90
0.025000000000005684,257,10,60,90
0.025000000000005684,257,11,60,90
0.10000000000000853,257,12,60,90
0.056818181818186986,257,13,60,90
0.013636363636365445,257,14,60,90
0.10000000000000853,257,15,60,90
0.06818181818182723,258,0,60,90
0.004545454545464622,258,1,60,90
0.004545454545464622,258,2,60,90
0.025000000000005684,258,3,60,90
0.056818181818172775,258,4,60,90
0.024999999999991473,258,5,60,90
0.05909090909091219,258,6,60,90
0.013636363636365445,258,7,60,90
0.024999999999991473,258,8,60,90
0.06818181818181301,258,9,60,90
0.09999999999999432,258,10,60,90
0.10000000000000853,258,11,60,90
0.09999999999999432,258,12,60,90
0.03409090909090651,258,13,60,90
0.004545454545450411,258,14,60,90
0.09999999999999432,258,15,60,90
0.056818181818172775,259,0,60,90
0.013636363636351234,259,1,60,90
0.03636363636363171,259,2,60,90
0.056818181818186986,259,3,60,90
0.10000000000000853,259,4,60,90
0.09999999999999432,259,5,60,90
0.06818181818181301,259,6,60,90
0.024999999999991473,259,7,60,90
0.10000000000000853,259,8,60,90
0.036363636363645924,259,9,60,90
0.056818181818186986,259,10,60,90
0.013636363636365445,259,11,60,90
0.04772727272727195,259,12,60,90
0.03636363636363171,259,13,60,90
0.045454545454546746,259,14,60,90
0.025000000000005684,259,15,60,90
0.04772727272727195,260,0,60,90
0.01590909090909065,260,1,60,90
0.09999999999999432,260,2,60,90
0.004545454545450411,260,3,60,90
0.10000000000000853,260,4,60,90
0.036363636363645924,260,5,60,90
0.045454545454546746,260,6,60,90
0.03636363636363171,260,7,60,90
0.04772727272727195,260,8,60,90
0.045454545454546746,260,9,60,90
0.10000000000000853,260,10,60,90
0.09999999999999432,260,11,60,90
0.09999999999999432,260,12,60,90
0.10000000000000853,260,13,60,90
0.05909090909091219,260,14,60,90
0.024999999999991473,260,15,60,90
0.013636363636365445,261,0,60,90
0.01590909090909065,261,1,60,90
0.056818181818186986,261,2,60,90
0.025000000000005684,261,3,60,90
0.09999999999999432,261,4,60,90
0.056818181818172775,261,5,60,90
0.01590909090909065,261,6,60,90
0.06818181818182723,261,7,60,90
0.036363636363645924,261,8,60,90
0.09999999999999432,261,9,60,90
0.056818181818172775,261,10,60,90
0.004545454545450411,261,11,60,90
0.03409090909090651,261,12,60,90
0.09999999999999432,261,13,60,90
0.05909090909089798,261,14,60,90
0.004545454545450411,261,15,60,90
0.09999999999999432,262,0,60,90
0.013636363636365445,262,1,60,90
0.024999999999991473,262,2,60,90
0.06818181818181301,262,3,60,90
0.10000000000000853,262,4,60,90
0.04772727272727195,262,5,60,90
0.004545454545450411,262,6,60,90
0.10000000000000853,262,7,60,90
0.056818181818186986,262,8,60,90
0.036363636363645924,262,9,60,90
0.09999999999999432,262,10,60,90
0.09999999999999432,262,11,60,90
0.10000000000000142,262,12,60,90
0.10000000000000142,262,13,60,90
0.09999999999999432,262,14,60,90
0.10000000000000142,262,15,60,90
0.10000000000000142,263,0,60,90
0.10000000000000142,263,1,60,90
0.10000000000000142,263,2,60,90
0.10000000000000142,263,3,60,90
0.10000000000000142,263,4,60,90
0.09999999999999432,263,5,60,90
0.10000000000000142,263,6,60,90
0.10000000000000142,263,7,60,90
0.10000000000000142,263,8,60,90
0.10000000000000142,263,9,60,90
0.10000000000000142,263,10,60,90
0.10000000000000142,263,11,60,90
0.09999999999999432,263,12,60,90
0.10000000000000142,263,13,60,90
0.10000000000000142,263,14,60,90
0.10000000000000142,263,15,60,90
0.10000000000000142,264,0,60,90
0.10000000000000142,264,1,60,90
0.09999999999999432,264,2,60,90
0.09999999999999432,264,3,60,90
0.10000000000000142,264,4,60,90
0.09999999999999432,264,5,60,90
0.09999999999999432,264,6,60,90
0.10000000000000142,264,7,60,90
0.10000000000000142,264,8,60,90
0.10000000000000142,264,9,60,90
0.10000000000000142,264,10,60,90
0.10000000000000142,264,11,60,90
0.10000000000000142,264,12,60,90
0.10000000000000142,264,13,60,90
0.10000000000000142,264,14,60,90
0.10000000000000142,264,15,60,90
0.10000000000000142,265,0,60,90
0.10000000000000142,265,1,60,90
0.09999999999999432,265,2,60,90
0.09999999999999432,265,3,60,90
0.09999999999999432,265,4,60,90
0.09999999999999432,265,5,60,90
0.10000000000000853,265,6,60,90
0.09999999999999432,265,7,60,90
0.10000000000000853,265,8,60,90
0.09999999999999432,265,9,60,90
0.09999999999999432,265,10,60,90
0.09999999999999432,265,11,60,90
0.09999999999999432,265,12,60,90
0.09999999999999432,265,13,60,90
0.09999999999999432,265,14,60,90
0.09999999999999432,265,15,60,90
0.09999999999999432,266,0,60,90
0.09999999999999432,266,1,60,90
0.09999999999999432,266,2,60,90
0.09999999999999432,266,3,60,90
0.09999999999999432,266,4,60,90
0.09999999999999432,266,5,60,90
0.09999999999999432,266,6,60,90
0.09999999999999432,266,7,60,90
0.09999999999999432,266,8,60,90
0.09999999999999432,266,9,60,90
0.09999999999999432,266,10,60,90
0.09999999999999432,266,11,60,90
0.10000000000002274,266,12,60,90
0.10000000000002274,266,13,60,90
0.10000000000002274,266,14,60,90
0.09999999999999432,266,15,60,90
0.09999999999999432,267,0,60,90
0.09999999999999432,267,1,60,90
0.09999999999999432,267,2,60,90
0.09999999999999432,267,3,60,90
0.09999999999999432,267,4,60,90
0.09999999999999432,267,5,60,90
0.09999999999999432,267,6,60,90
0.09999999999999432,267,7,60,90
0.09999999999999432,267,8,60,90
0.09999999999999432,267,9,60,90
0.09999999999999432,267,10,60,90
0.09999999999999432,267,11,60,90
0.09999999999999432,267,12,60,90
0.10000000000002274,267,13,60,90
0.09999999999999432,267,14,60,90
0.09999999999999432,267,15,60,90
0.09999999999999432,268,0,60,90
0.09999999999999432,268,1,60,90
0.09999999999999432,268,2,60,90
0.09999999999999432,268,3,60,90
0.10000000000002274,268,4,60,90
0.10000000000002274,268,5,60,90
0.09999999999999432,268,6,60,90
0.09999999999999432,268,7,60,90
0.10000000000002274,268,8,60,90
0.09999999999999432,268,9,60,90
0.09999999999999432,268,10,60,90
0.09999999999999432,268,11,60,90
0.09999999999999432,268,12,60,90
0.09999999999999432,268,13,60,90
0.09999999999999432,268,14,60,90
0.09999999999999432,268,15,60,90
0.10000000000002274,269,0,60,90
0.09999999999999432,269,1,60,90
0.09999999999999432,269,2,60,90
0.09999999999999432,269,3,60,90
0.09999999999999432,269,4,60,90
0.09999999999999432,269,5,60,90
0.09999999999999432,269,6,60,90
0.09999999999999432,269,7,60,90
0.10000000000002274,269,8,60,90
0.09999999999999432,269,9,60,90
0.09999999999999432,269,10,60,90
0.09999999999999432,269,11,60,90
0.09999999999999432,269,12,60,90
0.09999999999999432,269,13,60,90
0.09999999999999432,269,14,60,90
0.09999999999999432,269,15,60,90
0.09999999999999432,270,0,60,90
0.09999999999999432,270,1,60,90
0.09999999999999432,270,2,60,90
0.09999999999999432,270,3,60,90
0.09999999999999432,270,4,60,90
0.10000000000002274,270,5,60,90
0.10000000000002274,270,6,60,90
0.09999999999999432,270,7,60,90
0.10000000000002274,270,8,60,90
0.10000000000002274,270,9,60,90
0.09999999999999432,270,10,60,90
0.09999999999999432,270,11,60,90
0.09999999999999432,270,12,60,90
0.09999999999999432,270,13,60,90
0.10000000000002274,270,14,60,90
0.09999999999999432,270,15,60,90
0.09999999999999432,271,0,60,90
0.09999999999999432,271,1,60,90
0.09999999999999432,271,2,60,90
0.09999999999999432,271,3,60,90
0.09999999999999432,271,4,60,90
0.09999999999999432,271,5,60,90
0.09999999999999432,271,6,60,90
0.09999999999999432,271,7,60,90
0.09999999999999432,271,8,60,90
0.09999999999999432,271,9,60,90
0.09999999999999432,271,10,60,90
0.09999999999999432,271,11,60,90
0.09999999999999432,271,12,60,90
0.09999999999999432,271,13,60,90
0.09999999999999432,271,14,60,90
0.09999999999999432,271,15,60,90
0.10000000000002274,272,0,60,90
0.09999999999999432,272,1,60,90
0.09999999999999964,272,2,60,90
0.10000000000000142,272,3,60,90
0.09999999999999964,272,4,60,90
0.09999999999999964,272,5,60,90
0.09999999999999964,272,6,60,90
0.10000000000000142,272,7,60,90
0.10000000000000142,272,8,60,90
0.10000000000000142,272,9,60,90
0.10000000000000142,272,10,60,90
0.10000000000000142,272,11,60,90
0.09999999999999787,272,12,60,90
0.10000000000000142,272,13,60,90
0.10000000000000142,272,14,60,90
0.10000000000000142,272,15,60,90
0.09999999999999787,273,0,60,90
0.10000000000000142,273,1,60,90
0.10000000000000142,273,2,60,90
0.09999999999999787,273,3,60,90
0.09999999999999787,273,4,60,90
0.09999999999999787,273,5,60,90
0.10000000000000142,273,6,60,90
0.09999999999999787,273,7,60,90
0.09999999999999787,273,8,60,90
0.09999999999999787,273,9,60,90
0.09999999999999787,273,10,60,90
0.10000000000000142,273,11,60,90
0.10000000000000142,273,12,60,90
0.10000000000000142,273,13,60,90
0.10000000000000142,273,14,60,90
0.10000000000000142,273,15,60,90
0.10000000000000142,274,0,60,90
0.10000000000000142,274,1,60,90
0.10000000000000142,274,2,60,90
0.10000000000000142,274,3,60,90
0.10000000000000142,274,4,60,90
0.10000000000000142,274,5,60,90
0.10000000000000142,274,6,60,90
0.09999999999999432,274,7,60,90
0.09999999999999432,274,8,60,90
0.10000000000000142,274,9,60,90
0.09999999999999432,274,10,60,90
0.09999999999999432,274,11,60,90
0.09999999999999432,274,12,60,90
0.09999999999999432,274,13,60,90
0.09999999999999432,274,14,60,90
0.09999999999999432,274,15,60,90
0.10000000000000142,275,0,60,90
0.09999999999999432,275,1,60,90
0.09999999999999432,275,2,60,90
0.10000000000000142,275,3,60,90
0.10000000000000142,275,4,60,90
0.10000000000000142,275,5,60,90
0.10000000000000142,275,6,60,90
0.10000000000000142,275,7,60,90
0.10000000000000142,275,8,60,90
0.10000000000000142,275,9,60,90
0.10000000000000142,275,10,60,90
0.10000000000000142,275,11,60,90
0.10000000000000142,275,12,60,90
0.10000000000000142,275,13,60,90
0.10000000000000142,275,14,60,90
0.10000000000000142,275,15,60,90
0.10000000000000142,276,0,60,90
0.10000000000000142,276,1,60,90
0.10000000000000142,276,2,60,90
0.10000000000000142,276,3,60,90
0.09999999999999432,276,4,60,90
0.10000000000000142,276,5,60,90
0.10000000000000142,276,6,60,90
0.10000000000000142,276,7,60,90
0.10000000000000142,276,8,60,90
0.10000000000000142,276,9,60,90
0.10000000000000142,276,10,60,90
0.10000000000000142,276,11,60,90
0.10000000000000142,276,12,60,90
0.10000000000000142,276,13,60,90
0.09999999999999432,276,14,60,90
0.10000000000000142,276,15,60,90
0.10000000000000142,277,0,60,90
0.10000000000000142,277,1,60,90
0.10000000000000142,277,2,60,90
0.09999999999999432,277,3,60,90
0.09999999999999432,277,4,60,90
0.09999999999999432,277,5,60,90
0.10000000000000142,277,6,60,90
0.09999999999999432,277,7,60,90
0.09999999999999432,277,8,60,90
0.09999999999999432,277,9,60,90
0.09999999999999432,277,10,60,90
0.10000000000000142,277,11,60,90
0.09999999999999432,277,12,60,90
0.09999999999999432,277,13,60,90
0.10000000000000853,277,14,60,90
0.09999999999999432,277,15,60,90
0.10000000000000853,278,0,60,90
0.10000000000000853,278,1,60,90
0.10000000000000853,278,2,60,90
0.09999999999999432,278,3,60,90
0.09999999999999432,278,4,60,90
0.10000000000000853,278,5,60,90
0.09999999999999432,278,6,60,90
0.09999999999999432,278,7,60,90
0.09999999999999432,278,8,60,90
0.09999999999999432,278,9,60,90
0.09999999999999432,278,10,60,90
0.10000000000000853,278,11,60,90
0.10000000000000853,278,12,60,90
0.09999999999999432,278,13,60,90
0.09999999999999432,278,14,60,90
0.10000000000000853,278,15,60,90
0.10000000000000853,279,0,60,90
0.10000000000000853,279,1,60,90
0.09999999999999432,279,2,60,90
0.09999999999999432,279,3,60,90
0.10000000000000853,279,4,60,90
0.09999999999999432,279,5,60,90
0.10000000000000853,279,6,60,90
0.09999999999999432,279,7,60,90
0.10000000000000853,279,8,60,90
0.10000000000000853,279,9,60,90
0.10000000000000853,279,10,60,90
0.09999999999999432,279,11,60,90
0.10000000000000853,279,12,60,90
0.09999999999999432,279,13,60,90
0.10000000000000853,279,14,60,90
0.10000000000000853,279,15,60,90
0.09999999999999432,280,0,60,90
0.09999999999999432,280,1,60,90
0.09999999999999432,280,2,60,90
0.09999999999999432,280,3,60,90
0.09999999999999432,280,4,60,90
0.10000000000000853,280,5,60,90
0.09999999999999432,280,6,60,90
0.10000000000000853,280,7,60,90
0.09999999999999432,280,8,60,90
0.09999999999999432,280,9,60,90
0.09999999999999432,280,10,60,90
0.09999999999999432,280,11,60,90
0.09999999999999432,280,12,60,90
0.09999999999999432,280,13,60,90
0.10000000000000853,280,14,60,90
0.09999999999999432,280,15,60,90
0.10000000000000853,281,0,60,90
0.09999999999999432,281,1,60,90
0.09999999999999432,281,2,60,90
0.09999999999999432,281,3,60,90
0.09999999999999432,281,4,60,90
0.10000000000000853,281,5,60,90
0.09999999999999432,281,6,60,90
0.09999999999999432,281,7,60,90
0.09999999999999432,281,8,60,90
0.09999999999999432,281,9,60,90
0.10000000000000853,281,10,60,90
0.10000000000000853,281,11,60,90
0.10000000000000853,281,12,60,90
0.10000000000000853,281,13,60,90
0.09999999999999432,281,14,60,90
0.09999999999999432,281,15,60,90
0.09999999999999432,282,0,60,90
0.10000000000000853,282,1,60,90
0.10000000000000853,282,2,60,90
0.09999999999999432,282,3,60,90
0.10000000000000853,282,4,60,90
0.10000000000000853,282,5,60,90
0.10000000000000853,282,6,60,90
0.09999999999999432,282,7,60,90
0.09999999999999432,282,8,60,90
0.10000000000000853,282,9,60,90
0.09999999999999432,282,10,60,90
0.10000000000000853,282,11,60,90
0.09999999999999432,282,12,60,90
0.09999999999999432,282,13,60,90
0.09999999999999432,282,14,60,90
0.10000000000000853,282,15,60,90
0.09999999999999432,283,0,60,90
0.10000000000000853,283,1,60,90
0.09999999999999432,283,2,60,90
0.09999999999999432,283,3,60,90
0.10000000000000853,283,4,60,90
0.09999999999999432,283,5,60,90
0.09999999999999432,283,6,60,90
0.09999999999999432,283,7,60,90
0.09999999999999432,283,8,60,90
0.09999999999999432,283,9,60,90
0.10000000000000853,283,10,60,90
0.09999999999999432,283,11,60,90
0.09999999999999432,283,12,60,90
0.09999999999999432,283,13,60,90
0.10000000000000853,283,14,60,90
0.09999999999999432,283,15,60,90
0.10000000000000853,284,0,60,90
0.09999999999999432,284,1,60,90
0.10000000000000853,284,2,60,90
0.10000000000000853,284,3,60,90
0.056818181818186986,284,4,60,90
0.10000000000000853,284,5,60,90
0.10000000000000853,284,6,60,90
0.10000000000000853,284,7,60,90
0.09999999999999432,284,8,60,90
0.10000000000000853,284,9,60,90
0.09999999999999432,284,10,60,90
0.10000000000000853,284,11,60,90
0.09999999999999432,284,12,60,90
0.10000000000000853,284,13,60,90
0.09999999999999432,284,14,60,90
0.09999999999999432,284,15,60,90
0.10000000000002274,285,0,60,90
0.09999999999999432,285,1,60,90
0.09999999999999432,285,2,60,90
0.10000000000002274,285,3,60,90
0.09999999999999432,285,4,60,90
0.10000000000002274,285,5,60,90
0.09999999999999432,285,6,60,90
0.09999999999999432,285,7,60,90
0.09999999999999432,285,8,60,90
0.09999999999999432,285,9,60,90
0.09999999999999432,285,10,60,90
0.09999999999999432,285,11,60,90
0.09999999999999432,285,12,60,90
0.09999999999999432,285,13,60,90
0.09999999999999432,285,14,60,90
0.09999999999999432,285,15,60,90
0.09999999999999432,286,0,60,90
0.09999999999999432,286,1,60,90
0.09999999999999432,286,2,60,90
0.09999999999999432,286,3,60,90
0.09999999999999432,286,4,60,90
0.10000000000002274,286,5,60,90
0.09999999999999432,286,6,60,90
0.09999999999999432,286,7,60,90
0.09999999999999432,286,8,60,90
0.10000000000002274,286,9,60,90
0.10000000000002274,286,10,60,90
0.09999999999999432,286,11,60,90
0.09999999999999432,286,12,60,90
0.09999999999999432,286,13,60,90
0.09999999999999432,286,14,60,90
0.10000000000002274,286,15,60,90
0.09999999999999432,287,0,60,90
0.09999999999999432,287,1,60,90
0.09999999999999432,287,2,60,90
0.09999999999999432,287,3,60,90
0.10000000000002274,287,4,60,90
0.09999999999999432,287,5,60,90
0.09999999999999432,287,6,60,90
0.09999999999999432,287,7,60,90
0.09999999999999432,287,8,60,90
0.09999999999999432,287,9,60,90
0.10000000000002274,287,10,60,90
0.09999999999999432,287,11,60,90
0.10000000000002274,287,12,60,90
0.09999999999999432,287,13,60,90
0.09999999999999432,287,14,60,90
0.09999999999999432,287,15,60,90
0.09999999999999432,288,0,60,90
0.09999999999999432,288,1,60,90
0.10000000000002274,288,2,60,90
0.09999999999999432,288,3,60,90
0.09999999999999432,288,4,60,90
0.10000000000002274,288,5,60,90
0.10000000000002274,288,6,60,90
0.09999999999999432,288,7,60,90
0.09999999999999432,288,8,60,90
0.09999999999999432,288,9,60,90
0.09999999999999432,288,10,60,90
0.09999999999999432,288,11,60,90
0.09999999999999432,288,12,60,90
0.09999999999999432,288,13,60,90
0.09999999999999432,288,14,60,90
0.09999999999999432,288,15,60,90
0.09999999999999432,289,0,60,90
0.09999999999999432,289,1,60,90
0.10000000000002274,289,2,60,90
0.10000000000002274,289,3,60,90
0.10000000000002274,289,4,60,90
0.09999999999999432,289,5,60,90
0.09999999999999432,289,6,60,90
0.09999999999999432,289,7,60,90
0.10000000000002274,289,8,60,90
0.10000000000002274,289,9,60,90
0.10000000000002274,289,10,60,90
0.09999999999999432,289,11,60,90
0.10000000000002274,289,12,60,90
0.09999999999999432,289,13,60,90
0.09999999999999432,289,14,60,90
0.10000000000002274,289,15,60,90
0.09999999999999432,290,0,60,90
0.09999999999999432,290,1,60,90
0.09999999999999432,290,2,60,90
0.09999999999999432,290,3,60,90
0.09999999999999432,290,4,60,90
0.10000000000002274,290,5,60,90
0.10000000000002274,290,6,60,90
0.09999999999999432,290,7,60,90
0.10000000000002274,290,8,60,90
0.09999999999999432,290,9,60,90
0.09999999999999432,290,10,60,90
0.09999999999999432,290,11,60,90
0.10000000000002274,290,12,60,90
0.09999999999999432,290,13,60,90
0.09999999999999432,290,14,60,90
0.09999999999999432,290,15,60,90
0.1,291,0,60,90
0.09999999999999998,291,1,60,90
0.09999999999999998,291,2,60,90
0.09999999999999998,291,3,60,90
0.09999999999999998,291,4,60,90
0.10000000000000009,291,5,60,90
0.10000000000000009,291,6,60,90
0.10000000000000009,291,7,60,90
0.10000000000000009,291,8,60,90
0.09999999999999964,291,9,60,90
0.09999999999999964,291,10,60,90
0.09999999999999964,291,11,60,90
0.10000000000000009,291,12,60,90
0.09999999999999964,291,13,60,90
0.09999999999999964,291,14,60,90
0.09999999999999964,291,15,60,90
0.09999999999999964,292,0,60,90
0.09999999999999964,292,1,60,90
0.10000000000000053,292,2,60,90
0.09999999999999964,292,3,60,90
0.09999999999999964,292,4,60,90
0.10000000000000053,292,5,60,90
0.09999999999999964,292,6,60,90
0.09999999999999964,292,7,60,90
0.10000000000000053,292,8,60,90
0.10000000000000053,292,9,60,90
0.09999999999999964,292,10,60,90
0.10000000000000053,292,11,60,90
0.09999999999999964,292,12,60,90
0.09999999999999964,292,13,60,90
0.09999999999999964,292,14,60,90
0.09999999999999964,292,15,60,90
0.09999999999999964,293,0,60,90
0.10000000000000142,293,1,60,90
0.09999999999999964,293,2,60,90
0.09999999999999964,293,3,60,90
0.09999999999999964,293,4,60,90
0.10000000000000142,293,5,60,90
0.09999999999999964,293,6,60,90
0.09999999999999964,293,7,60,90
0.09999999999999964,293,8,60,90
0.09999999999999964,293,9,60,90
0.10000000000000142,293,10,60,90
0.09999999999999964,293,11,60,90
0.09999999999999964,293,12,60,90
0.10000000000000142,293,13,60,90
0.09999999999999964,293,14,60,90
0.09999999999999964,293,15,60,90
0.09999999999999964,294,0,60,90
0.09999999999999964,294,1,60,90
0.09999999999999964,294,2,60,90
0.10000000000000142,294,3,60,90
0.09999999999999964,294,4,60,90
0.09999999999999964,294,5,60,90
0.10000000000000142,294,6,60,90
0.09999999999999964,294,7,60,90
0.09999999999999787,294,8,60,90
0.10000000000000142,294,9,60,90
0.10000000000000142,294,10,60,90
0.09999999999999787,294,11,60,90
0.10000000000000142,294,12,60,90
0.10000000000000142,294,13,60,90
0.10000000000000142,294,14,60,90
0.10000000000000142,294,15,60,90
0.10000000000000142,295,0,60,90
0.10000000000000142,295,1,60,90
0.10000000000000142,295,2,60,90
0.10000000000000142,295,3,60,90
0.10000000000000142,295,4,60,90
0.10000000000000142,295,5,60,90
0.10000000000000142,295,6,60,90
0.10000000000000142,295,7,60,90
0.10000000000000142,295,8,60,90
0.10000000000000142,295,9,60,90
0.10000000000000142,295,10,60,90
0.10000000000000142,295,11,60,90
0.10000000000000142,295,12,60,90
0.10000000000000142,295,13,60,90
0.10000000000000142,295,14,60,90
0.10000000000000142,295,15,60,90
0.10000000000000142,296,0,60,90
0.10000000000000142,296,1,60,90
0.10000000000000142,296,2,60,90
0.10000000000000142,296,3,60,90
0.09999999999999787,296,4,60,90
0.10000000000000142,296,5,60,90
0.10000000000000142,296,6,60,90
0.10000000000000142,296,7,60,90
0.10000000000000142,296,8,60,90
0.09999999999999787,296,9,60,90
0.10000000000000142,296,10,60,90
0.10000000000000142,296,11,60,90
0.09999999999999787,296,12,60,90
0.10000000000000142,296,13,60,90
0.10000000000000142,296,14,60,90
0.09999999999999787,296,15,60,90
0.10000000000000142,297,0,60,90
0.09999999999999787,297,1,60,90
0.09999999999999787,297,2,60,90
0.10000000000000142,297,3,60,90
0.10000000000000142,297,4,60,90
0.10000000000000142,297,5,60,90
0.09999999999999787,297,6,60,90
0.09999999999999787,297,7,60,90
0.10000000000000142,297,8,60,90
0.10000000000000142,297,9,60,90
0.09999999999999787,297,10,60,90
0.09999999999999787,297,11,60,90
0.09999999999999787,297,12,60,90
0.09999999999999787,297,13,60,90
0.09999999999999787,297,14,60,90
0.09999999999999787,297,15,60,90
0.10000000000000142,298,0,60,90
0.10000000000000142,298,1,60,90
0.10000000000000142,298,2,60,90
0.10000000000000142,298,3,60,90
0.10000000000000142,298,4,60,90
0.10000000000000142,298,5,60,90
0.09999999999999432,298,6,60,90
0.10000000000000142,298,7,60,90
0.10000000000000142,298,8,60,90
0.10000000000000142,298,9,60,90
0.10000000000000142,298,10,60,90
0.09999999999999432,298,11,60,90
0.10000000000000142,298,12,60,90
0.10000000000000142,298,13,60,90
0.09999999999999432,298,14,60,90
0.10000000000000142,298,15,60,90
0.09999999999999432,299,0,60,90
0.10000000000000142,299,1,60,90
0.10000000000000142,299,2,60,90
0.10000000000000142,299,3,60,90
0.10000000000000142,299,4,60,90
0.10000000000000142,299,5,60,90
0.10000000000000142,299,6,60,90
0.10000000000000142,299,7,60,90
0.10000000000000142,299,8,60,90
0.10000000000000142,299,9,60,90
0.09999999999999432,299,10,60,90
0.10000000000000142,299,11,60,90
0.10000000000000142,299,12,60,90
0.10000000000000142,299,13,60,90
0.10000000000000142,299,14,60,90
0.10000000000000142,299,15,60,90
0.10000000000000142,300,0,60,90
0.10000000000000142,300,1,60,90
0.09999999999999432,300,2,60,90
0.10000000000000142,300,3,60,90
0.10000000000000142,300,4,60,90
0.10000000000000142,300,5,60,90
0.10000000000000142,300,6,60,90
0.10000000000000142,300,7,60,90
0.10000000000000142,300,8,60,90
0.10000000000000142,300,9,60,90
0.10000000000000142,300,10,60,90
0.10000000000000142,300,11,60,90
0.10000000000000142,300,12,60,90
0.10000000000000142,300,13,60,90
0.10000000000000142,300,14,60,90
0.10000000000000142,300,15,60,90
0.10000000000000142,301,0,60,90
0.09999999999999432,301,1,60,90
0.10000000000000142,301,2,60,90
0.10000000000000142,301,3,60,90
0.10000000000000142,301,4,60,90
0.10000000000000142,301,5,60,90
0.09999999999999432,301,6,60,90
0.10000000000000142,301,7,60,90
0.10000000000000142,301,8,60,90
0.09999999999999432,301,9,60,90
0.10000000000000142,301,10,60,90
0.10000000000000142,301,11,60,90
0.10000000000000142,301,12,60,90
0.10000000000000142,301,13,60,90
0.09999999999999432,301,14,60,90
0.10000000000000142,301,15,60,90
0.10000000000000142,302,0,60,90
0.10000000000000142,302,1,60,90
0.10000000000000142,302,2,60,90
0.10000000000000142,302,3,60,90
0.10000000000000142,302,4,60,90
0.10000000000000142,302,5,60,90
0.10000000000000142,302,6,60,90
0.10000000000000142,302,7,60,90
0.10000000000000142,302,8,60,90
0.09999999999999432,302,9,60,90
0.10000000000000142,302,10,60,90
0.09999999999999432,302,11,60,90
0.10000000000000142,302,12,60,90
0.10000000000000142,302,13,60,90
0.10000000000000142,302,14,60,90
0.10000000000000142,302,15,60,90
0.10000000000000142,303,0,60,90
0.09999999999999432,303,1,60,90
0.10000000000000142,303,2,60,90
0.10000000000000142,303,3,60,90
0.10000000000000142,303,4,60,90
0.10000000000000142,303,5,60,90
0.09999999999999432,303,6,60,90
0.10000000000000142,303,7,60,90
0.10000000000000142,303,8,60,90
0.10000000000000142,303,9,60,90
0.09999999999999432,303,10,60,90
0.10000000000000142,303,11,60,90
0.10000000000000142,303,12,60,90
0.10000000000000142,303,13,60,90
0.10000000000000142,303,14,60,90
0.10000000000000142,303,15,60,90
0.10000000000000142,304,0,60,90
0.10000000000000142,304,1,60,90
0.10000000000000142,304,2,60,90
0.10000000000000142,304,3,60,90
0.10000000000000142,304,4,60,90
0.10000000000000142,304,5,60,90
0.10000000000000142,304,6,60,90
0.10000000000000142,304,7,60,90
0.10000000000000142,304,8,60,90
0.10000000000000142,304,9,60,90
0.10000000000000142,304,10,60,90
0.10000000000000142,304,11,60,90
0.10000000000000142,304,12,60,90
0.10000000000000142,304,13,60,90
0.10000000000000142,304,14,60,90
0.09999999999999432,304,15,60,90
0.10000000000000142,305,0,60,90
0.09999999999999432,305,1,60,90
0.09999999999999432,305,2,60,90
0.09999999999999432,305,3,60,90
0.10000000000000142,305,4,60,90
0.09999999999999432,305,5,60,90
0.10000000000000142,305,6,60,90
0.09999999999999432,305,7,60,90
0.09999999999999432,305,8,60,90
0.09999999999999432,305,9,60,90
0.09999999999999432,305,10,60,90
0.09999999999999432,305,11,60,90
0.10000000000000142,305,12,60,90
0.10000000000000142,305,13,60,90
0.09999999999999432,305,14,60,90
0.09999999999999432,305,15,60,90
0.10000000000000142,306,0,60,90
0.10000000000000142,306,1,60,90
0.10000000000000142,306,2,60,90
0.09999999999999432,306,3,60,90
0.10000000000000142,306,4,60,90
0.09999999999999432,306,5,60,90
0.10000000000000142,306,6,60,90
0.10000000000000142,306,7,60,90
0.10000000000000142,306,8,60,90
0.10000000000000142,306,9,60,90
0.10000000000000142,306,10,60,90
0.10000000000000142,306,11,60,90
0.10000000000000142,306,12,60,90
0.09999999999999432,306,13,60,90
0.09999999999999432,306,14,60,90
0.10000000000000853,306,15,60,90
0.10000000000000853,307,0,60,90
0.09999999999999432,307,1,60,90
0.09999999999999432,307,2,60,90
0.09999999999999432,307,3,60,90
0.09999999999999432,307,4,60,90
0.10000000000000853,307,5,60,90
0.09999999999999432,307,6,60,90
0.09999999999999432,307,7,60,90
0.09999999999999432,307,8,60,90
0.10000000000000853,307,9,60,90
0.09999999999999432,307,10,60,90
0.10000000000000853,307,11,60,90
0.10000000000000853,307,12,60,90
0.09999999999999432,307,13,60,90
0.09999999999999432,307,14,60,90
0.10000000000000853,307,15,60,90
0.09999999999999432,308,0,60,90
0.09999999999999432,308,1,60,90
0.10000000000000853,308,2,60,90
0.09999999999999432,308,3,60,90
0.09999999999999432,308,4,60,90
0.10000000000000853,308,5,60,90
0.10000000000000853,308,6,60,90
0.09999999999999432,308,7,60,90
0.09999999999999432,308,8,60,90
0.10000000000000853,308,9,60,90
0.09999999999999432,308,10,60,90
0.09999999999999432,308,11,60,90
0.10000000000000853,308,12,60,90
0.10000000000000853,308,13,60,90
0.10000000000000853,308,14,60,90
0.09999999999999432,308,15,60,90
0.09999999999999432,309,0,60,90
0.10000000000000853,309,1,60,90
0.10000000000000853,309,2,60,90
0.09999999999999432,309,3,60,90
0.09999999999999432,309,4,60,90
0.09999999999999432,309,5,60,90
0.09999999999999432,309,6,60,90
0.09999999999999432,309,7,60,90
0.09999999999999432,309,8,60,90
0.09999999999999432,309,9,60,90
0.09999999999999432,309,10,60,90
0.09999999999999432,309,11,60,90
0.10000000000000853,309,12,60,90
0.09999999999999432,309,13,60,90
0.09999999999999432,309,14,60,90
0.09999999999999432,309,15,60,90
0.09999999999999432,310,0,60,90
0.09999999999999432,310,1,60,90
0.09999999999999432,310,2,60,90
0.09999999999999432,310,3,60,90
0.09999999999999432,310,4,60,90
0.10000000000000853,310,5,60,90
0.10000000000000853,310,6,60,90
0.09999999999999432,310,7,60,90
0.09999999999999432,310,8,60,90
0.09999999999999432,310,9,60,90
0.10000000000000853,310,10,60,90
0.09999999999999432,310,11,60,90
0.10000000000000853,310,12,60,90
0.09999999999999432,310,13,60,90
0.10000000000000853,310,14,60,90
0.10000000000000853,310,15,60,90
0.09999999999999432,311,0,60,90
0.09999999999999432,311,1,60,90
0.09999999999999432,311,2,60,90
0.09999999999999432,311,3,60,90
0.10000000000000853,311,4,60,90
0.09999999999999432,311,5,60,90
0.09999999999999432,311,6,60,90
0.10000000000000853,311,7,60,90
0.10000000000000853,311,8,60,90
0.09999999999999432,311,9,60,90
0.09999999999999432,311,10,60,90
0.09999999999999432,311,11,60,90
0.10000000000000853,311,12,60,90
0.10000000000000853,311,13,60,90
0.09999999999999432,311,14,60,90
0.09999999999999432,311,15,60,90
0.10000000000000853,312,0,60,90
0.10000000000000853,312,1,60,90
0.09999999999999432,312,2,60,90
0.10000000000000853,312,3,60,90
0.10000000000000853,312,4,60,90
0.09999999999999432,312,5,60,90
0.10000000000000853,312,6,60,90
0.09999999999999432,312,7,60,90
0.09999999999999432,312,8,60,90
0.10000000000000853,312,9,60,90
0.10000000000000853,312,10,60,90
0.10000000000000853,312,11,60,90
0.09999999999999432,312,12,60,90
0.10000000000000853,312,13,60,90
0.09999999999999432,312,14,60,90
0.09999999999999432,312,15,60,90
0.10000000000000853,313,0,60,90
0.10000000000000853,313,1,60,90
0.09999999999999432,313,2,60,90
0.10000000000000853,313,3,60,90
0.10000000000000853,313,4,60,90
0.09999999999999432,313,5,60,90
0.09999999999999432,313,6,60,90
0.10000000000000853,313,7,60,90
0.09999999999999432,313,8,60,90
0.09999999999999432,313,9,60,90
0.10000000000000853,313,10,60,90
0.10000000000000853,313,11,60,90
0.09999999999999432,313,12,60,90
0.10000000000000853,313,13,60,90
0.10000000000000853,313,14,60,90
0.09999999999999432,313,15,60,90
0.09999999999999432,314,0,60,90
0.10000000000000853,314,1,60,90
0.09999999999999432,314,2,60,90
0.10000000000000853,314,3,60,90
0.10000000000000853,314,4,60,90
0.09999999999999432,314,5,60,90
0.09999999999999432,314,6,60,90
0.10000000000000853,314,7,60,90
0.09999999999999432,314,8,60,90
0.09999999999999432,314,9,60,90
0.10000000000000853,314,10,60,90
0.10000000000000853,314,11,60,90
0.09999999999999432,314,12,60,90
0.10000000000000853,314,13,60,90
0.10000000000000853,314,14,60,90
0.10000000000000853,314,15,60,90
0.10000000000000853,315,0,60,90
0.09999999999999432,315,1,60,90
0.10000000000000853,315,2,60,90
0.10000000000000853,315,3,60,90
0.09999999999999432,315,4,60,90
0.09999999999999432,315,5,60,90
0.09999999999999432,315,6,60,90
0.09999999999999432,315,7,60,90
0.09999999999999432,315,8,60,90
0.10000000000000853,315,9,60,90
0.09999999999999432,315,10,60,90
0.10000000000000853,315,11,60,90
0.09999999999999432,315,12,60,90
0.09999999999999432,315,13,60,90
0.09999999999999432,315,14,60,90
0.09999999999999432,315,15,60,90
0.09999999999999432,316,0,60,90
0.09999999999999432,316,1,60,90
0.09999999999999432,316,2,60,90
0.09999999999999432,316,3,60,90
0.09999999999999432,316,4,60,90
0.09999999999999432,316,5,60,90
0.10000000000000853,316,6,60,90
0.10000000000000853,316,7,60,90
0.09999999999999432,316,8,60,90
0.09999999999999432,316,9,60,90
0.10000000000000853,316,10,60,90
0.04772727272727195,316,11,60,90
0.013636363636365445,316,12,60,90
0.10000000000000853,316,13,60,90
0.09999999999999432,316,14,60,90
0.09999999999999432,316,15,60,90
0.09999999999999432,317,0,60,90
0.10000000000000853,317,1,60,90
0.09999999999999432,317,2,60,90
0.09999999999999432,317,3,60,90
0.10000000000000853,317,4,60,90
0.10000000000000853,317,5,60,90
0.09999999999999432,317,6,60,90
0.10000000000000853,317,7,60,90
0.09999999999999432,317,8,60,90
0.09999999999999432,317,9,60,90
0.09999999999999432,317,10,60,90
0.09999999999999432,317,11,60,90
0.10000000000000853,317,12,60,90
0.09999999999999432,317,13,60,90
0.09999999999999432,317,14,60,90
0.09999999999999432,317,15,60,90
0.09999999999999432,318,0,60,90
0.10000000000000853,318,1,60,90
0.10000000000000853,318,2,60,90
0.09999999999999432,318,3,60,90
0.09999999999999432,318,4,60,90
0.10000000000000853,318,5,60,90
0.09999999999999432,318,6,60,90
0.10000000000000853,318,7,60,90
0.09999999999999432,318,8,60,90
0.09999999999999432,318,9,60,90
0.10000000000000853,318,10,60,90
0.09999999999999432,318,11,60,90
0.09999999999999432,318,12,60,90
0.09999999999999432,318,13,60,90
0.10000000000000853,318,14,60,90
0.09999999999999432,318,15,60,90
0.09999999999999432,319,0,60,90
0.10000000000000853,319,1,60,90
0.09999999999999432,319,2,60,90
0.10000000000000853,319,3,60,90
0.09999999999999432,319,4,60,90
0.09999999999999432,319,5,60,90
0.10000000000000853,319,6,60,90
0.10000000000000853,319,7,60,90
0.09999999999999432,319,8,60,90
0.10000000000000853,319,9,60,90
0.10000000000000853,319,10,60,90
0.09999999999999432,319,11,60,90
0.09999999999999432,319,12,60,90
0.09999999999999432,319,13,60,90
0.09999999999999432,319,14,60,90
0.10000000000000853,319,15,60,90
0.09999999999999432,320,0,60,90
0.10000000000000853,320,1,60,90
0.09999999999999432,320,2,60,90
0.10000000000000853,320,3,60,90
0.09999999999999432,320,4,60,90
0.10000000000000853,320,5,60,90
0.09999999999999432,320,6,60,90
0.10000000000000853,320,7,60,90
0.09999999999999432,320,8,60,90
0.10000000000000853,320,9,60,90
0.10000000000000853,320,10,60,90
0.09999999999999432,320,11,60,90
0.09999999999999432,320,12,60,90
0.09999999999999432,320,13,60,90
0.09999999999999432,320,14,60,90
0.10000000000000853,320,15,60,90
0.09999999999999432,321,0,60,90
0.09999999999999432,321,1,60,90
0.09999999999999432,321,2,60,90
0.10000000000000853,321,3,60,90
0.10000000000000853,321,4,60,90
0.09999999999999432,321,5,60,90
0.10000000000000853,321,6,60,90
0.09999999999999432,321,7,60,90
0.09999999999999432,321,8,60,90
0.09999999999999432,321,9,60,90
0.10000000000000853,321,10,60,90
0.10000000000000853,321,11,60,90
0.10000000000000853,321,12,60,90
0.09999999999999432,321,13,60,90
0.09999999999999432,321,14,60,90
0.10000000000000853,321,15,60,90
0.09999999999999432,322,0,60,90
0.09999999999999432,322,1,60,90
0.10000000000000853,322,2,60,90
0.09999999999999432,322,3,60,90
0.10000000000000853,322,4,60,90
0.09999999999999432,322,5,60,90
0.09999999999999432,322,6,60,90
0.10000000000000853,322,7,60,90
0.09999999999999432,322,8,60,90
0.09999999999999432,322,9,60,90
0.10000000000000853,322,10,60,90
0.09999999999999432,322,11,60,90
0.09999999999999432,322,12,60,90
0.09999999999999432,322,13,60,90
0.09999999999999432,322,14,60,90
0.10000000000000853,322,15,60,90
0.10000000000000853,323,0,60,90
0.09999999999999432,323,1,60,90
0.10000000000000853,323,2,60,90
0.10000000000000853,323,3,60,90
0.09999999999999432,323,4,60,90
0.09999999999999432,323,5,60,90
0.09999999999999432,323,6,60,90
0.09999999999999432,323,7,60,90
0.09999999999999432,323,8,60,90
0.09999999999999432,323,9,60,90
0.09999999999999432,323,10,60,90
0.09999999999999432,323,11,60,90
0.09999999999999432,323,12,60,90
0.10000000000000853,323,13,60,90
0.09999999999999432,323,14,60,90
0.09999999999999432,323,15,60,90
0.10000000000000853,324,0,60,90
0.10000000000000853,324,1,60,90
0.09999999999999432,324,2,60,90
0.09999999999999432,324,3,60,90
0.09999999999999432,324,4,60,90
0.10000000000000853,324,5,60,90
0.09999999999999432,324,6,60,90
0.09999999999999432,324,7,60,90
0.10000000000000853,324,8,60,90
0.10000000000000853,324,9,60,90
0.09999999999999432,324,10,60,90
0.09999999999999432,324,11,60,90
0.09999999999999432,324,12,60,90
0.09999999999999432,324,13,60,90
0.09999999999999432,324,14,60,90
0.09999999999999432,324,15,60,90
0.09999999999999432,325,0,60,90
0.09999999999999432,325,1,60,90
0.09999999999999432,325,2,60,90
0.09999999999999432,325,3,60,90
0.09999999999999432,325,4,60,90
0.10000000000002274,325,5,60,90
0.09999999999999432,325,6,60,90
0.09999999999999432,325,7,60,90
0.09999999999999432,325,8,60,90
0.09999999999999432,325,9,60,90
0.09999999999999432,325,10,60,90
0.09999999999999432,325,11,60,90
0.09999999999999432,325,12,60,90
0.09999999999999432,325,13,60,90
0.09999999999999432,325,14,60,90
0.09999999999999432,325,15,60,90
0.09999999999999432,326,0,60,90
0.09999999999999432,326,1,60,90
0.09999999999999432,326,2,60,90
0.09999999999999432,326,3,60,90
0.09999999999999432,326,4,60,90
0.09999999999999432,326,5,60,90
0.09999999999999432,326,6,60,90
0.09999999999999432,326,7,60,90
0.09999999999999432,326,8,60,90
0.09999999999999432,326,9,60,90
0.09999999999999432,326,10,60,90
0.09999999999999432,326,11,60,90
0.09999999999999432,326,12,60,90
0.09999999999999432,326,13,60,90
0.09999999999999432,326,14,60,90
0.09999999999999432,326,15,60,90
0.10000000000002274,327,0,60,90
0.09999999999999432,327,1,60,90
0.09999999999999432,327,2,60,90
0.09999999999999432,327,3,60,90
0.09999999999999432,327,4,60,90
0.10000000000002274,327,5,60,90
0.09999999999999432,327,6,60,90
0.09999999999999432,327,7,60,90
0.10000000000002274,327,8,60,90
0.09999999999999432,327,9,60,90
0.09999999999999432,327,10,60,90
0.10000000000002274,327,11,60,90
0.10000000000002274,327,12,60,90
0.09999999999999432,327,13,60,90
0.09999999999999432,327,14,60,90
0.09999999999999432,327,15,60,90
0.10000000000002274,328,0,60,90
0.09999999999999432,328,1,60,90
0.09999999999999432,328,2,60,90
0.10000000000002274,328,3,60,90
0.10000000000002274,328,4,60,90
0.09999999999999432,328,5,60,90
0.09999999999999432,328,6,60,90
0.09999999999999432,328,7,60,90
0.10000000000002274,328,8,60,90
0.09999999999999432,328,9,60,90
0.09999999999999432,328,10,60,90
0.10000000000002274,328,11,60,90
0.09999999999999432,328,12,60,90
0.09999999999999432,328,13,60,90
0.09999999999999432,328,14,60,90
0.09999999999999432,328,15,60,90
0.10000000000002274,329,0,60,90
0.09999999999999432,329,1,60,90
0.09999999999999432,329,2,60,90
0.10000000000002274,329,3,60,90
0.09999999999999432,329,4,60,90
0.09999999999999432,329,5,60,90
0.10000000000002274,329,6,60,90
0.09999999999999432,329,7,60,90
0.09999999999999432,329,8,60,90
0.09999999999999432,329,9,60,90
0.09999999999999432,329,10,60,90
0.09999999999999432,329,11,60,90
0.09999999999999432,329,12,60,90
0.09999999999999432,329,13,60,90
0.09999999999999432,329,14,60,90
0.09999999999999432,329,15,60,90
0.09999999999999432,330,0,60,90
0.10000000000002274,330,1,60,90
0.09999999999999432,330,2,60,90
0.09999999999999432,330,3,60,90
0.10000000000002274,330,4,60,90
0.09999999999999432,330,5,60,90
0.09999999999999432,330,6,60,90
0.10000000000002274,330,7,60,90
0.09999999999999432,330,8,60,90
0.09999999999999432,330,9,60,90
0.09999999999999432,330,10,60,90
0.09999999999999432,330,11,60,90
0.09999999999999432,330,12,60,90
0.09999999999999432,330,13,60,90
0.09999999999999432,330,14,60,90
0.09999999999999432,330,15,60,90
0.09999999999999432,331,0,60,90
0.09999999999999432,331,1,60,90
0.10000000000002274,331,2,60,90
0.09999999999999432,331,3,60,90
0.09999999999999432,331,4,60,90
0.09999999999999432,331,5,60,90
0.10000000000002274,331,6,60,90
0.09999999999999432,331,7,60,90
0.09999999999999432,331,8,60,90
0.09999999999999432,331,9,60,90
0.09999999999999432,331,10,60,90
0.09999999999999432,331,11,60,90
0.09999999999999432,331,12,60,90
0.09999999999999432,331,13,60,90
0.09999999999999432,331,14,60,90
0.09999999999999432,331,15,60,90
0.09999999999999432,332,0,60,90
0.10000000000002274,332,1,60,90
0.09999999999999432,332,2,60,90
0.09999999999999432,332,3,60,90
0.10000000000002274,332,4,60,90
0.09999999999999432,332,5,60,90
0.09999999999999432,332,6,60,90
0.10000000000002274,332,7,60,90
0.09999999999999432,332,8,60,90
0.09999999999999432,332,9,60,90
0.09999999999999432,332,10,60,90
0.09999999999999432,332,11,60,90
0.09999999999999432,332,12,60,90
0.09999999999999432,332,13,60,90
0.10000000000002274,332,14,60,90
0.09999999999999432,332,15,60,90
0.09999999999999432,333,0,60,90
0.09999999999999432,333,1,60,90
0.09999999999999432,333,2,60,90
0.09999999999999432,333,3,60,90
0.09999999999999432,333,4,60,90
0.09999999999999432,333,5,60,90
0.09999999999999432,333,6,60,90
0.09999999999999432,333,7,60,90
0.09999999999999432,333,8,60,90
0.09999999999999432,333,9,60,90
0.09999999999999432,333,10,60,90
0.09999999999999432,333,11,60,90
0.09999999999999432,333,12,60,90
0.09999999999999432,333,13,60,90
0.09999999999999432,333,14,60,90
0.09999999999999432,333,15,60,90
0.10000000000002274,334,0,60,90
0.09999999999999432,334,1,60,90
0.10000000000002274,334,2,60,90
0.10000000000002274,334,3,60,90
0.09999999999999432,334,4,60,90
0.10000000000002274,334,5,60,90
0.09999999999999432,334,6,60,90
0.09999999999999432,334,7,60,90
0.09999999999999432,334,8,60,90
0.10000000000002274,334,9,60,90
0.09999999999999432,334,10,60,90
0.09999999999999432,334,11,60,90
0.09999999999999432,334,12,60,90
0.09999999999999432,334,13,60,90
0.10000000000002274,334,14,60,90
0.09999999999999432,334,15,60,90
0.09999999999999432,335,0,60,90
0.09999999999999432,335,1,60,90
0.10000000000002274,335,2,60,90
0.09999999999999432,335,3,60,90
0.09999999999999432,335,4,60,90
0.09999999999999432,335,5,60,90
0.09999999999999432,335,6,60,90
0.09999999999999432,335,7,60,90
0.10000000000002274,335,8,60,90
0.09999999999999432,335,9,60,90
0.09999999999999432,335,10,60,90
0.09999999999999432,335,11,60,90
0.09999999999999432,335,12,60,90
0.09999999999999432,335,13,60,90
0.09999999999999432,335,14,60,90
0.10000000000002274,335,15,60,90
0.09999999999999432,336,0,60,90
0.09999999999999432,336,1,60,90
0.09999999999999432,336,2,60,90
0.10000000000002274,336,3,60,90
0.09999999999999432,336,4,60,90
0.10000000000002274,336,5,60,90
0.09999999999999432,336,6,60,90
0.09999999999999432,336,7,60,90
0.09999999999999432,336,8,60,90
0.09999999999999432,336,9,60,90
0.09999999999999432,336,10,60,90
0.09999999999999432,336,11,60,90
0.09999999999999432,336,12,60,90
0.09999999999999432,336,13,60,90
0.09999999999999432,336,14,60,90
0.09999999999999432,336,15,60,90
0.09999999999999432,337,0,60,90
0.09999999999999432,337,1,60,90
0.09999999999999432,337,2,60,90
0.09999999999999432,337,3,60,90
0.09999999999999432,337,4,60,90
0.09999999999999432,337,5,60,90
0.09999999999999432,337,6,60,90
0.09999999999999432,337,7,60,90
0.09999999999999432,337,8,60,90
0.09999999999999432,337,9,60,90
0.09999999999999432,337,10,60,90
0.09999999999999432,337,11,60,90
0.10000000000002274,337,12,60,90
0.09999999999999432,337,13,60,90
0.10000000000002274,337,14,60,90
0.09999999999999432,337,15,60,90
0.09999999999999432,338,0,60,90
0.10000000000002274,338,1,60,90
0.09999999999999432,338,2,60,90
0.09999999999999432,338,3,60,90
0.10000000000002274,338,4,60,90
0.09999999999999432,338,5,60,90
0.09999999999999432,338,6,60,90
0.09999999999999432,338,7,60,90
0.09999999999999432,338,8,60,90
0.09999999999999432,338,9,60,90
0.10000000000002274,338,10,60,90
0.09999999999999432,338,11,60,90
0.09999999999999432,338,12,60,90
0.09999999999999432,338,13,60,90
0.09999999999999432,338,14,60,90
0.09999999999999432,338,15,60,90
0.09999999999999432,339,0,60,90
0.09999999999999432,339,1,60,90
0.09999999999999432,339,2,60,90
0.09999999999999432,339,3,60,90
0.09999999999999432,339,4,60,90
0.10000000000002274,339,5,60,90
0.09999999999999432,339,6,60,90
0.09999999999999432,339,7,60,90
0.09999999999999432,339,8,60,90
0.09999999999999432,339,9,60,90
0.09999999999999432,339,10,60,90
0.09999999999999432,339,11,60,90
0.09999999999999432,339,12,60,90
0.09999999999999432,339,13,60,90
0.10000000000002274,339,14,60,90
0.09999999999999432,339,15,60,90
0.09999999999999432,340,0,60,90
0.09999999999999432,340,1,60,90
0.09999999999999432,340,2,60,90
0.09999999999999432,340,3,60,90
0.09999999999999432,340,4,60,90
0.09999999999999432,340,5,60,90
0.09999999999999432,340,6,60,90
0.09999999999999432,340,7,60,90
0.09999999999999432,340,8,60,90
0.09999999999999432,340,9,60,90
0.09999999999999432,340,10,60,90
0.10000000000002274,340,11,60,90
0.09999999999999432,340,12,60,90
0.10000000000002274,340,13,60,90
0.09999999999999432,340,14,60,90
0.09999999999999432,340,15,60,90
0.09999999999999432,341,0,60,90
0.09999999999999432,341,1,60,90
0.10000000000002274,341,2,60,90
0.09999999999999432,341,3,60,90
0.09999999999999432,341,4,60,90
0.09999999999999432,341,5,60,90
0.09999999999999432,341,6,60,90
0.09999999999999432,341,7,60,90
0.10000000000002274,341,8,60,90
0.09999999999999432,341,9,60,90
0.09999999999999432,341,10,60,90
0.09999999999999432,341,11,60,90
0.10000000000002274,341,12,60,90
0.09999999999999432,341,13,60,90
0.09999999999999432,341,14,60,90
0.10000000000002274,341,15,60,90
0.09999999999999432,342,0,60,90
0.09999999999999432,342,1,60,90
0.09999999999999432,342,2,60,90
0.09999999999999987,342,3,60,90
0.10000000000000009,342,4,60,90
0.09999999999999964,342,5,60,90
0.09999999999999964,342,6,60,90
0.09999999999999964,342,7,60,90
0.09999999999999964,342,8,60,90
0.10000000000000009,342,9,60,90
0.10000000000000009,342,10,60,90
0.10000000000000053,342,11,60,90
0.10000000000000053,342,12,60,90
0.09999999999999964,342,13,60,90
0.09999999999999964,342,14,60,90
0.09999999999999964,342,15,60,90
0.09999999999999964,343,0,60,90
0.09999999999999964,343,1,60,90
0.09999999999999964,343,2,60,90
0.10000000000000053,343,3,60,90
0.09999999999999964,343,4,60,90
0.09999999999999964,343,5,60,90
0.09999999999999964,343,6,60,90
0.10000000000000053,343,7,60,90
0.10000000000000053,343,8,60,90
0.10000000000000053,343,9,60,90
0.10000000000000053,343,10,60,90
0.09999999999999964,343,11,60,90
0.09999999999999964,343,12,60,90
0.09999999999999964,343,13,60,90
0.09999999999999964,343,14,60,90
0.06818181818181834,343,15,60,90
0.09999999999999964,344,0,60,90
0.09999999999999964,344,1,60,90
0.09999999999999964,344,2,60,90
0.09999999999999964,344,3,60,90
0.09999999999999964,344,4,60,90
0.09999999999999964,344,5,60,90
0.09999999999999964,344,6,60,90
0.09999999999999964,344,7,60,90
0.09999999999999964,344,8,60,90
0.10000000000000142,344,9,60,90
0.10000000000000142,344,10,60,90
0.10000000000000142,344,11,60,90
0.09999999999999964,344,12,60,90
0.09999999999999964,344,13,60,90
0.09999999999999964,344,14,60,90
0.09999999999999964,344,15,60,90
0.09999999999999964,345,0,60,90
0.10000000000000142,345,1,60,90
0.09999999999999964,345,2,60,90
0.09999999999999964,345,3,60,90
0.09999999999999964,345,4,60,90
0.09999999999999964,345,5,60,90
0.09999999999999964,345,6,60,90
0.09999999999999964,345,7,60,90
0.09999999999999964,345,8,60,90
0.09999999999999787,345,9,60,90
0.10000000000000142,345,10,60,90
0.09999999999999787,345,11,60,90
0.09999999999999787,345,12,60,90
0.10000000000000142,345,13,60,90
0.10000000000000142,345,14,60,90
0.10000000000000142,345,15,60,90
0.10000000000000142,346,0,60,90
0.10000000000000142,346,1,60,90
0.10000000000000142,346,2,60,90
0.10000000000000142,346,3,60,90
0.09999999999999787,346,4,60,90
0.10000000000000142,346,5,60,90
0.10000000000000142,346,6,60,90
0.10000000000000142,346,7,60,90
0.10000000000000142,346,8,60,90
0.10000000000000142,346,9,60,90
0.10000000000000142,346,10,60,90
0.10000000000000142,346,11,60,90
0.10000000000000142,346,12,60,90
0.09999999999999787,346,13,60,90
0.10000000000000142,346,14,60,90
0.10000000000000142,346,15,60,90
0.10000000000000142,347,0,60,90
0.10000000000000142,347,1,60,90
0.10000000000000142,347,2,60,90
0.10000000000000142,347,3,60,90
0.10000000000000142,347,4,60,90
0.10000000000000142,347,5,60,90
0.09999999999999787,347,6,60,90
0.10000000000000142,347,7,60,90
0.09999999999999787,347,8,60,90
0.10000000000000142,347,9,60,90
0.10000000000000142,347,10,60,90
0.09999999999999787,347,11,60,90
0.10000000000000142,347,12,60,90
0.09999999999999787,347,13,60,90
0.09999999999999787,347,14,60,90
0.10000000000000142,347,15,60,90
0.10000000000000142,348,0,60,90
0.10000000000000142,348,1,60,90
0.09999999999999787,348,2,60,90
0.09999999999999787,348,3,60,90
0.09999999999999787,348,4,60,90
0.10000000000000142,348,5,60,90
0.10000000000000142,348,6,60,90
0.09999999999999787,348,7,60,90
0.10000000000000142,348,8,60,90
0.09999999999999787,348,9,60,90
0.09999999999999787,348,10,60,90
0.10000000000000142,348,11,60,90
0.09999999999999787,348,12,60,90
0.10000000000000142,348,13,60,90
0.10000000000000142,348,14,60,90
0.10000000000000142,348,15,60,90
0.09999999999999787,349,0,60,90
0.09999999999999787,349,1,60,90
0.09999999999999787,349,2,60,90
0.10000000000000142,349,3,60,90
0.09999999999999787,349,4,60,90
0.09999999999999787,349,5,60,90
0.09999999999999787,349,6,60,90
0.09999999999999787,349,7,60,90
0.09999999999999787,349,8,60,90
0.10000000000000142,349,9,60,90
0.10000000000000142,349,10,60,90
0.10000000000000142,349,11,60,90
0.10000000000000142,349,12,60,90
0.10000000000000142,349,13,60,90
0.09999999999999432,349,14,60,90
0.10000000000000142,349,15,60,90
0.10000000000000142,350,0,60,90
0.10000000000000142,350,1,60,90
0.10000000000000142,350,2,60,90
0.09999999999999432,350,3,60,90
0.10000000000000142,350,4,60,90
0.09999999999999432,350,5,60,90
0.10000000000000142,350,6,60,90
0.10000000000000142,350,7,60,90
0.10000000000000142,350,8,60,90
0.09999999999999432,350,9,60,90
0.10000000000000142,350,10,60,90
0.09999999999999432,350,11,60,90
0.10000000000000142,350,12,60,90
0.10000000000000142,350,13,60,90
0.10000000000000142,350,14,60,90
0.09999999999999432,350,15,60,90
0.09999999999999432,351,0,60,90
0.10000000000000142,351,1,60,90
0.10000000000000142,351,2,60,90
0.09999999999999432,351,3,60,90
0.09999999999999432,351,4,60,90
0.09999999999999432,351,5,60,90
0.10000000000000142,351,6,60,90
0.09999999999999432,351,7,60,90
0.10000000000000142,351,8,60,90
0.10000000000000142,351,9,60,90
0.10000000000000142,351,10,60,90
0.09999999999999432,351,11,60,90
0.10000000000000142,351,12,60,90
0.10000000000000142,351,13,60,90
0.10000000000000142,351,14,60,90
0.10000000000000142,351,15,60,90
0.10000000000000142,352,0,60,90
0.10000000000000142,352,1,60,90
0.10000000000000142,352,2,60,90
0.10000000000000142,352,3,60,90
0.10000000000000142,352,4,60,90
0.10000000000000142,352,5,60,90
0.10000000000000142,352,6,60,90
0.10000000000000142,352,7,60,90
0.10000000000000142,352,8,60,90
0.10000000000000142,352,9,60,90
0.09999999999999432,352,10,60,90
0.10000000000000142,352,11,60,90
0.10000000000000142,352,12,60,90
0.10000000000000142,352,13,60,90
0.10000000000000142,352,14,60,90
0.10000000000000142,352,15,60,90
0.10000000000000142,353,0,60,90
0.09999999999999432,353,1,60,90
0.09999999999999432,353,2,60,90
0.10000000000000142,353,3,60,90
0.10000000000000142,353,4,60,90
0.09999999999999432,353,5,60,90
0.10000000000000142,353,6,60,90
0.10000000000000142,353,7,60,90
0.09999999999999432,353,8,60,90
0.09999999999999432,353,9,60,90
0.10000000000000142,353,10,60,90
0.10000000000000142,353,11,60,90
0.10000000000000142,353,12,60,90
0.10000000000000142,353,13,60,90
0.10000000000000142,353,14,60,90
0.10000000000000142,353,15,60,90
0.09999999999999432,354,0,60,90
0.10000000000000142,354,1,60,90
0.09999999999999432,354,2,60,90
0.10000000000000142,354,3,60,90
0.10000000000000142,354,4,60,90
0.09999999999999432,354,5,60,90
0.09999999999999432,354,6,60,90
0.09999999999999432,354,7,60,90
0.09999999999999432,354,8,60,90
0.09999999999999432,354,9,60,90
0.10000000000000142,354,10,60,90
0.10000000000000142,354,11,60,90
0.10000000000000142,354,12,60,90
0.09999999999999432,354,13,60,90
0.10000000000000142,354,14,60,90
0.09999999999999432,354,15,60,90
0.09999999999999432,355,0,60,90
0.10000000000000142,355,1,60,90
0.10000000000000142,355,2,60,90
0.10000000000000142,355,3,60,90
0.10000000000000142,355,4,60,90
0.09999999999999432,355,5,60,90
0.10000000000000142,355,6,60,90
0.10000000000000142,355,7,60,90
0.10000000000000142,355,8,60,90
0.09999999999999432,355,9,60,90
0.09999999999999432,355,10,60,90
0.10000000000000853,355,11,60,90
0.09999999999999432,355,12,60,90
0.09999999999999432,355,13,60,90
0.09999999999999432,355,14,60,90
0.10000000000000853,355,15,60,90
0.09999999999999432,356,0,60,90
0.09999999999999432,356,1,60,90
0.09999999999999432,356,2,60,90
0.09999999999999432,356,3,60,90
0.10000000000000853,356,4,60,90
0.09999999999999432,356,5,60,90
0.10000000000000853,356,6,60,90
0.09999999999999432,356,7,60,90
0.10000000000000853,356,8,60,90
0.10000000000000853,356,9,60,90
0.09999999999999432,356,10,60,90
0.09999999999999432,356,11,60,90
0.09999999999999432,356,12,60,90
0.10000000000000853,356,13,60,90
0.09999999999999432,356,14,60,90
0.09999999999999432,356,15,60,90
0.10000000000000853,357,0,60,90
0.10000000000000853,357,1,60,90
0.09999999999999432,357,2,60,90
0.10000000000000853,357,3,60,90
0.09999999999999432,357,4,60,90
0.10000000000000853,357,5,60,90
0.10000000000000853,357,6,60,90
0.09999999999999432,357,7,60,90
0.10000000000000853,357,8,60,90
0.10000000000000853,357,9,60,90
0.10000000000000853,357,10,60,90
0.09999999999999432,357,11,60,90
0.10000000000000853,357,12,60,90
0.10000000000000853,357,13,60,90
0.10000000000000853,357,14,60,90
0.09999999999999432,357,15,60,90
0.10000000000000853,358,0,60,90
0.09999999999999432,358,1,60,90
0.09999999999999432,358,2,60,90
0.09999999999999432,358,3,60,90
0.09999999999999432,358,4,60,90
0.10000000000000853,358,5,60,90
0.09999999999999432,358,6,60,90
0.09999999999999432,358,7,60,90
0.09999999999999432,358,8,60,90
0.09999999999999432,358,9,60,90
0.09999999999999432,358,10,60,90
0.09999999999999432,358,11,60,90
0.09999999999999432,358,12,60,90
0.09999999999999432,358,13,60,90
0.09999999999999432,358,14,60,90
0.10000000000000853,358,15,60,90
0.10000000000000853,359,0,60,90
0.09999999999999432,359,1,60,90
0.09999999999999432,359,2,60,90
0.10000000000000853,359,3,60,90
0.09999999999999432,359,4,60,90
0.09999999999999432,359,5,60,90
0.10000000000000853,359,6,60,90
0.10000000000000853,359,7,60,90
0.09999999999999432,359,8,60,90
0.10000000000000853,359,9,60,90
0.10000000000000853,359,10,60,90
0.10000000000000853,359,11,60,90
0.09999999999999432,359,12,60,90
0.09999999999999432,359,13,60,90
0.09999999999999432,359,14,60,90
0.09999999999999432,359,15,60,90
0.10000000000000853,360,0,60,90
0.10000000000000853,360,1,60,90
0.10000000000000853,360,2,60,90
0.10000000000000853,360,3,60,90
0.09999999999999432,360,4,60,90
0.10000000000000853,360,5,60,90
0.10000000000000853,360,6,60,90
0.10000000000000853,360,7,60,90
0.09999999999999432,360,8,60,90
0.10000000000000853,360,9,60,90
0.09999999999999432,360,10,60,90
0.09999999999999432,360,11,60,90
0.09999999999999432,360,12,60,90
0.09999999999999432,360,13,60,90
0.10000000000000853,360,14,60,90
0.10000000000000853,360,15,60,90
0.09999999999999432,361,0,60,90
0.10000000000000853,361,1,60,90
0.10000000000000853,361,2,60,90
0.09999999999999432,361,3,60,90
0.10000000000000853,361,4,60,90
0.09999999999999432,361,5,60,90
0.10000000000000853,361,6,60,90
0.10000000000000853,361,7,60,90
0.09999999999999432,361,8,60,90
0.09999999999999432,361,9,60,90
0.10000000000000853,361,10,60,90
0.09999999999999432,361,11,60,90
0.09999999999999432,361,12,60,90
0.10000000000000853,361,13,60,90
0.10000000000000853,361,14,60,90
0.09999999999999432,361,15,60,90
0.09999999999999432,362,0,60,90
0.09999999999999432,362,1,60,90
0.10000000000000853,362,2,60,90
0.10000000000000853,362,3,60,90
0.10000000000000853,362,4,60,90
0.045454545454546746,362,5,60,90
0.09999999999999432,362,6,60,90
0.10000000000000853,362,7,60,90
0.10000000000000853,362,8,60,90
0.10000000000000853,362,9,60,90
0.09999999999999432,362,10,60,90
0.10000000000000853,362,11,60,90
0.10000000000000853,362,12,60,90
0.09999999999999432,362,13,60,90
0.10000000000000853,362,14,60,90
0.09999999999999432,362,15,60,90
0.09999999999999432,363,0,60,90
0.09999999999999432,363,1,60,90
0.09999999999999432,363,2,60,90
0.09999999999999432,363,3,60,90
0.09999999999999432,363,4,60,90
0.09999999999999432,363,5,60,90
0.09999999999999432,363,6,60,90
0.09999999999999432,363,7,60,90
0.09999999999999432,363,8,60,90
0.09999999999999432,363,9,60,90
0.09999999999999432,363,10,60,90
0.10000000000000853,363,11,60,90
0.10000000000000853,363,12,60,90
0.10000000000000853,363,13,60,90
0.10000000000000853,363,14,60,90
0.09999999999999432,363,15,60,90
0.10000000000000853,364,0,60,90
0.10000000000000853,364,1,60,90
0.10000000000000853,364,2,60,90
0.09999999999999432,364,3,60,90
0.10000000000000853,364,4,60,90
0.09999999999999432,364,5,60,90
0.09999999999999432,364,6,60,90
0.09999999999999432,364,7,60,90
0.09999999999999432,364,8,60,90
0.09999999999999432,364,9,60,90
0.10000000000000853,364,10,60,90
0.09999999999999432,364,11,60,90
0.10000000000000853,364,12,60,90
0.10000000000000853,364,13,60,90
0.09999999999999432,364,14,60,90
0.09999999999999432,364,15,60,90
0.10000000000000853,365,0,60,90
0.10000000000000853,365,1,60,90
0.10000000000000853,365,2,60,90
0.09999999999999432,365,3,60,90
0.10000000000000853,365,4,60,90
0.09999999999999432,365,5,60,90
0.10000000000000853,365,6,60,90
0.10000000000000853,365,7,60,90
0.09999999999999432,365,8,60,90
0.09999999999999432,365,9,60,90
0.09999999999999432,365,10,60,90
0.10000000000000853,365,11,60,90
0.09999999999999432,365,12,60,90
0.10000000000000853,365,13,60,90
0.10000000000000853,365,14,60,90
0.09999999999999432,365,15,60,90
0.09999999999999432,366,0,60,90
0.09999999999999432,366,1,60,90
0.10000000000002274,366,2,60,90
0.09999999999999432,366,3,60,90
0.09999999999999432,366,4,60,90
0.09999999999999432,366,5,60,90
0.09999999999999432,366,6,60,90
0.09999999999999432,366,7,60,90
0.09999999999999432,366,8,60,90
0.09999999999999432,366,9,60,90
0.09999999999999432,366,10,60,90
0.09999999999999432,366,11,60,90
0.09999999999999432,366,12,60,90
0.09999999999999432,366,13,60,90
0.09999999999999432,366,14,60,90
0.09999999999999432,366,15,60,90
0.09999999999999432,367,0,60,90
0.10000000000002274,367,1,60,90
0.09999999999999432,367,2,60,90
0.09999999999999432,367,3,60,90
0.10000000000002274,367,4,60,90
0.09999999999999432,367,5,60,90
0.09999999999999432,367,6,60,90
0.09999999999999432,367,7,60,90
0.09999999999999432,367,8,60,90
0.09999999999999432,367,9,60,90
0.09999999999999432,367,10,60,90
0.09999999999999432,367,11,60,90
0.09999999999999432,367,12,60,90
0.10000000000002274,367,13,60,90
0.09999999999999432,367,14,60,90
0.09999999999999432,367,15,60,90
0.10000000000002274,368,0,60,90
0.09999999999999432,368,1,60,90
0.09999999999999432,368,2,60,90
0.09999999999999432,368,3,60,90
0.09999999999999432,368,4,60,90
0.10000000000002274,368,5,60,90
0.09999999999999432,368,6,60,90
0.09999999999999432,368,7,60,90
0.10000000000002274,368,8,60,90
0.09999999999999432,368,9,60,90
0.09999999999999432,368,10,60,90
0.09999999999999432,368,11,60,90
0.10000000000002274,368,12,60,90
0.10000000000002274,368,13,60,90
0.10000000000002274,368,14,60,90
0.09999999999999432,368,15,60,90
0.09999999999999432,369,0,60,90
0.09999999999999432,369,1,60,90
0.10000000000002274,369,2,60,90
0.09999999999999432,369,3,60,90
0.09999999999999432,369,4,60,90
0.09999999999999432,369,5,60,90
0.09999999999999432,369,6,60,90
0.09999999999999432,369,7,60,90
0.09999999999999432,369,8,60,90
0.10000000000002274,369,9,60,90
0.09999999999999432,369,10,60,90
0.09999999999999432,369,11,60,90
0.10000000000002274,369,12,60,90
0.09999999999999432,369,13,60,90
0.09999999999999432,369,14,60,90
0.09999999999999432,369,15,60,90
0.10000000000002274,370,0,60,90
0.09999999999999432,370,1,60,90
0.09999999999999432,370,2,60,90
0.09999999999999432,370,3,60,90
0.10000000000002274,370,4,60,90
0.09999999999999432,370,5,60,90
0.09999999999999432,370,6,60,90
0.09999999999999432,370,7,60,90
0.09999999999999432,370,8,60,90
0.06818181818181301,370,9,60,90
0.09999999999999432,370,10,60,90
0.09999999999999432,370,11,60,90
0.09999999999999432,370,12,60,90
0.10000000000002274,370,13,60,90
0.09999999999999432,370,14,60,90
0.09999999999999432,370,15,60,90
0.09999999999999432,371,0,60,90
0.09999999999999432,371,1,60,90
0.10000000000002274,371,2,60,90
0.09999999999999432,371,3,60,90
0.09999999999999432,371,4,60,90
0.09999999999999432,371,5,60,90
0.10000000000002274,371,6,60,90
0.10000000000002274,371,7,60,90
0.09999999999999432,371,8,60,90
0.09999999999999432,371,9,60,90
0.10000000000002274,371,10,60,90
0.09999999999999432,371,11,60,90
0.09999999999999432,371,12,60,90
0.09999999999999432,371,13,60,90
0.09999999999999432,371,14,60,90
0.10000000000002274,371,15,60,90
0.09999999999999432,372,0,60,90
0.09999999999999432,372,1,60,90
0.09999999999999432,372,2,60,90
0.09999999999999432,372,3,60,90
0.10000000000002274,372,4,60,90
0.09999999999999432,372,5,60,90
0.09999999999999432,372,6,60,90
0.09999999999999432,372,7,60,90
0.09999999999999432,372,8,60,90
0.09999999999999432,372,9,60,90
0.09999999999999432,372,10,60,90
0.056818181818186986,372,11,60,90
0.09999999999999432,372,12,60,90
0.06818181818181301,372,13,60,90
0.10000000000002274,372,14,60,90
0.09999999999999432,372,15,60,90
0.09999999999999432,373,0,60,90
0.09999999999999432,373,1,60,90
0.09999999999999432,373,2,60,90
0.10000000000002274,373,3,60,90
0.09999999999999432,373,4,60,90
0.09999999999999432,373,5,60,90
0.09999999999999432,373,6,60,90
0.09999999999999432,373,7,60,90
0.10000000000002274,373,8,60,90
0.09999999999999432,373,9,60,90
0.09999999999999432,373,10,60,90
0.09999999999999432,373,11,60,90
0.09999999999999432,373,12,60,90
0.09999999999999432,373,13,60,90
0.10000000000002274,373,14,60,90
0.09999999999999432,373,15,60,90
0.09999999999999432,374,0,60,90
0.09999999999999432,374,1,60,90
0.09999999999999432,374,2,60,90
0.10000000000002274,374,3,60,90
0.09999999999999432,374,4,60,90
0.09999999999999432,374,5,60,90
0.09999999999999432,374,6,60,90
0.09999999999999432,374,7,60,90
0.09999999999999432,374,8,60,90
0.09999999999999432,374,9,60,90
0.09999999999999432,374,10,60,90
0.10000000000002274,374,11,60,90
0.10000000000000009,374,12,60,90
0.10000000000000009,374,13,60,90
0.10000000000000009,374,14,60,90
0.09999999999999964,374,15,60,90
0.09999999999999964,375,0,60,90
0.10000000000000009,375,1,60,90
0.10000000000000009,375,2,60,90
0.09999999999999964,375,3,60,90
0.09999999999999964,375,4,60,90
0.10000000000000053,375,5,60,90
0.09999999999999964,375,6,60,90
0.09999999999999964,375,7,60,90
0.10000000000000053,375,8,60,90
0.09999999999999964,375,9,60,90
0.09999999999999964,375,10,60,90
0.10000000000000053,375,11,60,90
0.09999999999999964,375,12,60,90
0.10000000000000053,375,13,60,90
0.09999999999999964,375,14,60,90
0.10000000000000053,375,15,60,90
0.10000000000000053,376,0,60,90
0.09999999999999964,376,1,60,90
0.09999999999999964,376,2,60,90
0.09999999999999964,376,3,60,90
0.09999999999999964,376,4,60,90
0.10000000000000142,376,5,60,90
0.09999999999999964,376,6,60,90
0.09999999999999964,376,7,60,90
0.09999999999999964,376,8,60,90
0.09999999999999964,376,9,60,90
0.10000000000000142,376,10,60,90
0.10000000000000142,376,11,60,90
0.09999999999999964,376,12,60,90
0.09999999999999964,376,13,60,90
0.09999999999999964,376,14,60,90
0.09999999999999964,376,15,60,90
0.10000000000000142,377,0,60,90
0.10000000000000142,377,1,60,90
0.10000000000000142,377,2,60,90
0.10000000000000142,377,3,60,90
0.10000000000000142,377,4,60,90
0.10000000000000142,377,5,60,90
0.10000000000000142,377,6,60,90
0.10000000000000142,377,7,60,90
0.10000000000000142,377,8,60,90
0.10000000000000142,377,9,60,90
0.10000000000000142,377,10,60,90
0.09999999999999787,377,11,60,90
0.10000000000000142,377,12,60,90
0.10000000000000142,377,13,60,90
0.10000000000000142,377,14,60,90
0.10000000000000142,377,15,60,90
0.09999999999999787,378,0,60,90
0.10000000000000142,378,1,60,90
0.09999999999999787,378,2,60,90
0.09999999999999787,378,3,60,90
0.09999999999999787,378,4,60,90
0.10000000000000142,378,5,60,90
0.09999999999999787,378,6,60,90
0.09999999999999787,378,7,60,90
0.10000000000000142,378,8,60,90
0.09999999999999787,378,9,60,90
0.09999999999999787,378,10,60,90
0.09999999999999787,378,11,60,90
0.10000000000000142,378,12,60,90
0.10000000000000142,378,13,60,90
0.10000000000000142,378,14,60,90
0.10000000000000142,378,15,60,90
0.10000000000000142,379,0,60,90
0.09999999999999432,379,1,60,90
0.10000000000000142,379,2,60,90
0.10000000000000142,379,3,60,90
0.10000000000000142,379,4,60,90
0.09999999999999432,379,5,60,90
0.10000000000000142,379,6,60,90
0.10000000000000142,379,7,60,90
0.09999999999999432,379,8,60,90
0.10000000000000142,379,9,60,90
0.09999999999999432,379,10,60,90
0.10000000000000142,379,11,60,90
0.10000000000000853,379,12,60,90
0.09999999999999432,379,13,60,90
0.09999999999999432,379,14,60,90
0.10000000000000853,379,15,60,90
0.09999999999999432,380,0,60,90
0.10000000000000853,380,1,60,90
0.10000000000000853,380,2,60,90
0.09999999999999432,380,3,60,90
0.10000000000000853,380,4,60,90
0.10000000000000853,380,5,60,90
0.09999999999999432,380,6,60,90
0.09999999999999432,380,7,60,90
0.09999999999999432,380,8,60,90
0.09999999999999432,380,9,60,90
0.09999999999999432,380,10,60,90
0.09999999999999432,380,11,60,90
0.10000000000000853,380,12,60,90
0.09999999999999432,380,13,60,90
0.09999999999999432,380,14,60,90
0.10000000000000853,380,15,60,90
0.10000000000000853,381,0,60,90
0.09999999999999432,381,1,60,90
0.10000000000000853,381,2,60,90
0.10000000000000853,381,3,60,90
0.09999999999999432,381,4,60,90
0.09999999999999432,381,5,60,90
0.10000000000000853,381,6,60,90
0.09999999999999432,381,7,60,90
0.09999999999999432,381,8,60,90
0.09999999999999432,381,9,60,90
0.10000000000000853,381,10,60,90
0.10000000000000853,381,11,60,90
0.09999999999999432,381,12,60,90
0.09999999999999432,381,13,60,90
0.10000000000000853,381,14,60,90
0.10000000000000853,381,15,60,90
0.09999999999999432,382,0,60,90
0.09999999999999432,382,1,60,90
0.10000000000000853,382,2,60,90
0.09999999999999432,382,3,60,90
0.09999999999999432,382,4,60,90
0.10000000000000853,382,5,60,90
0.09999999999999432,382,6,60,90
0.09999999999999432,382,7,60,90
0.10000000000000853,382,8,60,90
0.09999999999999432,382,9,60,90
0.09999999999999432,382,10,60,90
0.10000000000000853,382,11,60,90
0.09999999999999432,382,12,60,90
0.10000000000000853,382,13,60,90
0.09999999999999432,382,14,60,90
0.10000000000000853,382,15,60,90
0.10000000000000853,383,0,60,90
0.09999999999999432,383,1,60,90
0.10000000000000853,383,2,60,90
0.10000000000000853,383,3,60,90
0.09999999999999432,383,4,60,90
0.10000000000002274,383,5,60,90
0.09999999999999432,383,6,60,90
0.09999999999999432,383,7,60,90
0.10000000000002274,383,8,60,90
0.09999999999999432,383,9,60,90
0.09999999999999432,383,10,60,90
0.09999999999999432,383,11,60,90
0.09999999999999432,383,12,60,90
0.09999999999999432,383,13,60,90
0.09999999999999432,383,14,60,90
0.09999999999999432,383,15,60,90
0.09999999999999432,384,0,60,90
0.09999999999999432,384,1,60,90
0.09999999999999432,384,2,60,90
0.09999999999999432,384,3,60,90
0.09999999999999432,384,4,60,90
0.09999999999999432,384,5,60,90
0.10000000000002274,384,6,60,90
0.09999999999999432,384,7,60,90
0.09999999999999432,384,8,60,90
0.09999999999999432,384,9,60,90
0.09999999999999432,384,10,60,90
0.09999999999999432,384,11,60,90
0.09999999999999432,384,12,60,90
0.09999999999999432,384,13,60,90
0.09999999999999432,384,14,60,90
0.09999999999999432,384,15,60,90
0.09999999999999432,385,0,60,90
0.10000000000002274,385,1,60,90
0.09999999999999432,385,2,60,90
0.09999999999999432,385,3,60,90
0.09999999999999432,385,4,60,90
0.10000000000002274,385,5,60,90
0.09999999999999432,385,6,60,90
0.09999999999999432,385,7,60,90
0.09999999999999432,385,8,60,90
0.09999999999999432,385,9,60,90
0.10000000000002274,385,10,60,90
0.09999999999999432,385,11,60,90
0.09999999999999432,385,12,60,90
0.10000000000002274,385,13,60,90
0.10000000000002274,385,14,60,90
0.09999999999999432,385,15,60,90
0.10000000000000009,386,0,60,90
0.10000000000000009,386,1,60,90
0.10000000000000009,386,2,60,90
0.10000000000000009,386,3,60,90
0.10000000000000009,386,4,60,90
0.10000000000000009,386,5,60,90
0.09999999999999964,386,6,60,90
0.10000000000000009,386,7,60,90
0.09999999999999964,386,8,60,90
0.09999999999999964,386,9,60,90
0.09999999999999964,386,10,60,90
0.10000000000000009,386,11,60,90
0.10000000000000009,386,12,60,90
0.10000000000000009,386,13,60,90
0.09999999999999964,386,14,60,90
0.09999999999999964,386,15,60,90
0.09999999999999964,387,0,60,90
0.10000000000000009,387,1,60,90
0.10000000000000053,387,2,60,90
0.10000000000000053,387,3,60,90
0.09999999999999964,387,4,60,90
0.09999999999999964,387,5,60,90
0.09999999999999964,387,6,60,90
0.09999999999999964,387,7,60,90
0.10000000000000053,387,8,60,90
0.09999999999999964,387,9,60,90
0.09999999999999964,387,10,60,90
0.09999999999999964,387,11,60,90
0.09999999999999964,387,12,60,90
0.10000000000000053,387,13,60,90
0.09999999999999964,387,14,60,90
0.09999999999999964,387,15,60,90
0.10000000000000053,388,0,60,90
0.10000000000000053,388,1,60,90
0.09999999999999964,388,2,60,90
0.10000000000000053,388,3,60,90
0.09999999999999964,388,4,60,90
0.09999999999999964,388,5,60,90
0.10000000000000053,388,6,60,90
0.10000000000000053,388,7,60,90
0.09999999999999964,388,8,60,90
0.10000000000000053,388,9,60,90
0.10000000000000053,388,10,60,90
0.09999999999999964,388,11,60,90
0.10000000000000053,388,12,60,90
0.09999999999999964,388,13,60,90
0.09999999999999964,388,14,60,90
0.09999999999999964,388,15,60,90
0.09999999999999964,389,0,60,90
0.09999999999999964,389,1,60,90
0.09999999999999964,389,2,60,90
0.09999999999999964,389,3,60,90
0.09999999999999964,389,4,60,90
0.09999999999999964,389,5,60,90
0.10000000000000142,389,6,60,90
0.09999999999999964,389,7,60,90
0.09999999999999964,389,8,60,90
0.09999999999999964,389,9,60,90
0.09999999999999964,389,10,60,90
0.09999999999999964,389,11,60,90
0.10000000000000142,389,12,60,90
0.10000000000000142,389,13,60,90
0.09999999999999964,389,14,60,90
0.09999999999999964,389,15,60,90
0.10000000000000142,390,0,60,90
0.10000000000000142,390,1,60,90
0.10000000000000142,390,2,60,90
0.10000000000000142,390,3,60,90
0.09999999999999432,390,4,60,90
0.10000000000000853,390,5,60,90
0.10000000000000853,390,6,60,90
0.09999999999999432,390,7,60,90
0.10000000000000853,390,8,60,90
0.09999999999999432,390,9,60,90
0.09999999999999964,390,10,60,90
0.09999999999999964,390,11,60,90
0.10000000000000053,390,12,60,90
0.10000000000000053,390,13,60,90
0.10000000000000053,390,14,60,90
0.09999999999999964,390,15,60,90
0.09999999999999964,391,0,60,90
0.09999999999999787,391,1,60,90
0.10000000000000142,391,2,60,90
0.09999999999999432,391,3,60,90
0.10000000000000853,391,4,60,90
0.09999999999999432,391,5,60,90
0.10000000000000853,391,6,60,90
0.09999999999999432,391,7,60,90
0.09999999999999432,391,8,60,90
0.10000000000000853,391,9,60,90
0.10000000000000853,391,10,60,90
0.09999999999999432,391,11,60,90
0.09999999999999432,391,12,60,90
0.09999999999999432,391,13,60,90
0.10000000000000853,391,14,60,90
0.09999999999999432,391,15,60,90
0.10000000000000853,392,0,60,90
0.09999999999999432,392,1,60,90
0.09999999999999432,392,2,60,90
0.09999999999999432,392,3,60,90
0.10000000000000853,392,4,60,90
0.09999999999999432,392,5,60,90
0.09999999999999432,392,6,60,90
0.09999999999999432,392,7,60,90
0.09999999999999432,392,8,60,90
0.09999999999999432,392,9,60,90
0.10000000000002274,392,10,60,90
0.09999999999999432,392,11,60,90
0.09999999999999432,392,12,60,90
0.09999999999999432,392,13,60,90
0.09999999999999432,392,14,60,90
0.09999999999999432,392,15,60,90
0.09999999999999432,393,0,60,90
0.09999999999999432,393,1,60,90
0.10000000000002274,393,2,60,90
0.09999999999999432,393,3,60,90
0.09999999999999432,393,4,60,90
0.09999999999999432,393,5,60,90
0.09999999999999432,393,6,60,90
0.10000000000002274,393,7,60,90
0.09999999999999432,393,8,60,90
0.09999999999999432,393,9,60,90
0.09999999999999432,393,10,60,90
0.09999999999999432,393,11,60,90
0.09999999999999432,393,12,60,90
0.09999999999999432,393,13,60,90
0.09999999999999432,393,14,60,90
0.09999999999999432,393,15,60,90
0.09999999999999432,394,0,60,90
0.09999999999999432,394,1,60,90
0.09999999999999432,394,2,60,90
0.09999999999999432,394,3,60,90
0.09999999999999432,394,4,60,90
0.09999999999999432,394,5,60,90
0.09999999999999432,394,6,60,90
0.09999999999999432,394,7,60,90
0.09999999999999432,394,8,60,90
0.09999999999999432,394,9,60,90
0.09999999999999432,394,10,60,90
0.09999999999999432,394,11,60,90
0.09999999999999432,394,12,60,90
0.09999999999999432,394,13,60,90
0.10000000000002274,394,14,60,90
0.09999999999999432,394,15,60,90
0.09999999999999432,395,0,60,90
0.09999999999999432,395,1,60,90
0.09999999999999432,395,2,60,90
0.09999999999999432,395,3,60,90
0.10000000000002274,395,4,60,90
0.09999999999999432,395,5,60,90
0.10000000000002274,395,6,60,90
0.09999999999999432,395,7,60,90
0.10000000000002274,395,8,60,90
0.09999999999999432,395,9,60,90
0.10000000000002274,395,10,60,90
0.09999999999999432,395,11,60,90
0.09999999999999432,395,12,60,90
0.09999999999999432,395,13,60,90
0.09999999999999432,395,14,60,90
0.09999999999999432,395,15,60,90
0.10000000000002274,396,0,60,90
0.09999999999999432,396,1,60,90
0.10000000000002274,396,2,60,90
0.09999999999999432,396,3,60,90
0.09999999999999432,396,4,60,90
0.10000000000002274,396,5,60,90
0.09999999999999432,396,6,60,90
0.09999999999999432,396,7,60,90
0.09999999999999432,396,8,60,90
0.09999999999999432,396,9,60,90
0.09999999999999432,396,10,60,90
0.09999999999999432,396,11,60,90
0.09999999999999432,396,12,60,90
0.09999999999999432,396,13,60,90
0.09999999999999432,396,14,60,90
0.09999999999999432,396,15,60,90
0.09999999999999432,397,0,60,90
0.09999999999999432,397,1,60,90
0.09999999999999432,397,2,60,90
0.09999999999999432,397,3,60,90
0.09999999999999432,397,4,60,90
0.10000000000002274,397,5,60,90
0.10000000000002274,397,6,60,90
0.09999999999999432,397,7,60,90
0.09999999999999432,397,8,60,90
0.09999999999999432,397,9,60,90
0.09999999999999787,397,10,60,90
0.10000000000000142,397,11,60,90
0.10000000000000142,397,12,60,90
0.10000000000000142,397,13,60,90
0.09999999999999787,397,14,60,90
0.09999999999999787,397,15,60,90
0.09999999999999787,398,0,60,90
0.10000000000000142,398,1,60,90
0.10000000000000142,398,2,60,90
0.09999999999999432,398,3,60,90
0.10000000000000142,398,4,60,90
0.10000000000000142,398,5,60,90
0.10000000000000142,398,6,60,90
0.10000000000000142,398,7,60,90
0.09999999999999432,398,8,60,90
0.10000000000000142,398,9,60,90
0.09999999999999432,398,10,60,90
0.10000000000000142,398,11,60,90
0.09999999999999432,398,12,60,90
0.09999999999999432,398,13,60,90
0.10000000000000142,398,14,60,90
0.09999999999999432,398,15,60,90
0.10000000000000142,399,0,60,90
0.10000000000000142,399,1,60,90
0.10000000000000142,399,2,60,90
0.10000000000000142,399,3,60,90
0.10000000000000142,399,4,60,90
0.10000000000000142,399,5,60,90
0.09999999999999432,399,6,60,90
0.10000000000000142,399,7,60,90
0.10000000000000142,399,8,60,90
0.10000000000000142,399,9,60,90
0.10000000000000142,399,10,60,90
0.10000000000000142,399,11,60,90
0.10000000000000142,399,12,60,90
0.10000000000000142,399,13,60,90
0.09999999999999432,399,14,60,90
0.10000000000000142,399,15,60,90
0.09999999999999432,400,0,60,90
0.10000000000000142,400,1,60,90
0.10000000000000142,400,2,60,90
0.10000000000000142,400,3,60,90
0.10000000000000142,400,4,60,90
0.09999999999999432,400,5,60,90
0.10000000000000142,400,6,60,90
0.10000000000000142,400,7,60,90
0.10000000000000142,400,8,60,90
0.0022727272727252057,400,9,60,90
0.09999999999999432,400,10,60,90
0.10000000000000142,400,11,60,90
0.10000000000000142,400,12,60,90
0.10000000000000142,400,13,60,90
0.10000000000000142,400,14,60,90
0.10000000000000142,400,15,60,90
0.10000000000000142,401,0,60,90
0.10000000000000142,401,1,60,90
0.10000000000000142,401,2,60,90
0.09999999999999432,401,3,60,90
0.10000000000000142,401,4,60,90
0.09999999999999432,401,5,60,90
0.10000000000000142,401,6,60,90
0.09999999999999432,401,7,60,90
0.10000000000000142,401,8,60,90
0.10000000000000142,401,9,60,90
0.10000000000000142,401,10,60,90
0.09999999999999432,401,11,60,90
0.10000000000000142,401,12,60,90
0.10000000000000142,401,13,60,90
0.10000000000000142,401,14,60,90
0.10000000000000142,401,15,60,90
0.10000000000000142,402,0,60,90
0.10000000000000142,402,1,60,90
0.09999999999999432,402,2,60,90
0.10000000000000142,402,3,60,90
0.09999999999999432,402,4,60,90
0.10000000000000142,402,5,60,90
0.10000000000000142,402,6,60,90
0.10000000000000142,402,7,60,90
0.09999999999999432,402,8,60,90
0.09999999999999432,402,9,60,90
0.09999999999999432,402,10,60,90
0.10000000000000142,402,11,60,90
0.10000000000000142,402,12,60,90
0.09999999999999432,402,13,60,90
0.10000000000000142,402,14,60,90
0.10000000000000142,402,15,60,90
0.10000000000000142,403,0,60,90
0.10000000000000142,403,1,60,90
0.09999999999999432,403,2,60,90
0.09999999999999432,403,3,60,90
0.09999999999999432,403,4,60,90
0.09999999999999432,403,5,60,90
0.10000000000000853,403,6,60,90
0.09999999999999432,403,7,60,90
0.10000000000000853,403,8,60,90
0.09999999999999432,403,9,60,90
0.09999999999999432,403,10,60,90
0.09999999999999432,403,11,60,90
0.09999999999999432,403,12,60,90
0.09999999999999432,403,13,60,90
0.09999999999999432,403,14,60,90
0.09999999999999432,403,15,60,90
0.09999999999999432,404,0,60,90
0.09999999999999432,404,1,60,90
0.09999999999999432,404,2,60,90
0.09999999999999432,404,3,60,90
0.09999999999999432,404,4,60,90
0.09999999999999432,404,5,60,90
0.09999999999999432,404,6,60,90
0.09999999999999432,404,7,60,90
0.09999999999999432,404,8,60,90
0.10000000000000853,404,9,60,90
0.09999999999999432,404,10,60,90
0.10000000000000853,404,11,60,90
0.09999999999999432,404,12,60,90
0.09999999999999432,404,13,60,90
0.09999999999999432,404,14,60,90
0.10000000000000853,404,15,60,90
0.10000000000000853,405,0,60,90
0.09999999999999432,405,1,60,90
0.09999999999999432,405,2,60,90
0.10000000000000853,405,3,60,90
0.09999999999999432,405,4,60,90
0.10000000000000853,405,5,60,90
0.09999999999999432,405,6,60,90
0.09999999999999432,405,7,60,90
0.10000000000000853,405,8,60,90
0.09999999999999432,405,9,60,90
0.10000000000000853,405,10,60,90
0.09999999999999432,405,11,60,90
0.09999999999999432,405,12,60,90
0.09999999999999432,405,13,60,90
0.09999999999999432,405,14,60,90
0.09999999999999432,405,15,60,90
0.09999999999999432,406,0,60,90
0.10000000000000853,406,1,60,90
0.09999999999999432,406,2,60,90
0.10000000000000853,406,3,60,90
0.09999999999999432,406,4,60,90
0.09999999999999432,406,5,60,90
0.09999999999999432,406,6,60,90
0.09999999999999432,406,7,60,90
0.09999999999999432,406,8,60,90
0.10000000000000853,406,9,60,90
0.09999999999999432,406,10,60,90
0.09999999999999432,406,11,60,90
0.09999999999999432,406,12,60,90
0.10000000000000853,406,13,60,90
0.10000000000000853,406,14,60,90
0.09999999999999432,406,15,60,90
0.09999999999999432,407,0,60,90
0.10000000000000853,407,1,60,90
0.09999999999999432,407,2,60,90
0.09999999999999432,407,3,60,90
0.10000000000000853,407,4,60,90
0.09999999999999432,407,5,60,90
0.09999999999999432,407,6,60,90
0.10000000000000853,407,7,60,90
0.10000000000000853,407,8,60,90
0.09999999999999432,407,9,60,90
0.09999999999999432,407,10,60,90
0.09999999999999432,407,11,60,90
0.09999999999999432,407,12,60,90
0.09999999999999432,407,13,60,90
0.09999999999999432,407,14,60,90
0.09999999999999432,407,15,60,90
0.09999999999999432,408,0,60,90
0.09999999999999432,408,1,60,90
0.09999999999999432,408,2,60,90
0.10000000000002274,408,3,60,90
0.10000000000002274,408,4,60,90
0.09999999999999432,408,5,60,90
0.09999999999999432,408,6,60,90
0.09999999999999432,408,7,60,90
0.09999999999999432,408,8,60,90
0.09999999999999432,408,9,60,90
0.06818181818181301,408,10,60,90
0.09999999999999432,408,11,60,90
0.10000000000002274,408,12,60,90
0.09999999999999432,408,13,60,90
0.09999999999999432,408,14,60,90
0.09999999999999432,408,15,60,90
0.10000000000002274,409,0,60,90
0.09999999999999432,409,1,60,90
0.09999999999999432,409,2,60,90
0.09999999999999432,409,3,60,90
0.09999999999999432,409,4,60,90
0.10000000000002274,409,5,60,90
0.09999999999999432,409,6,60,90
0.09999999999999432,409,7,60,90
0.09999999999999432,409,8,60,90
0.04772727272725774,409,9,60,90
0.09999999999999432,409,10,60,90
0.09999999999999432,409,11,60,90
0.09999999999999432,409,12,60,90
0.09999999999999432,409,13,60,90
0.10000000000002274,409,14,60,90
0.10000000000002274,409,15,60,90
0.09999999999999432,410,0,60,90
0.09999999999999432,410,1,60,90
0.09999999999999432,410,2,60,90
0.09999999999999432,410,3,60,90
0.09999999999999432,410,4,60,90
0.09999999999999432,410,5,60,90
0.09999999999999432,410,6,60,90
0.09999999999999432,410,7,60,90
0.10000000000002274,410,8,60,90
0.06818181818184144,410,9,60,90
0.09999999999999432,410,10,60,90
0.09999999999999432,410,11,60,90
0.09999999999999432,410,12,60,90
0.09999999999999432,410,13,60,90
0.09999999999999432,410,14,60,90
0.09999999999999432,410,15,60,90
0.10000000000002274,411,0,60,90
0.10000000000002274,411,1,60,90
0.06818181818184144,411,2,60,90
0.025000000000005684,411,3,60,90
0.09999999999999432,411,4,60,90
0.09999999999999432,411,5,60,90
0.09999999999999432,411,6,60,90
0.09999999999999432,411,7,60,90
0.09999999999999432,411,8,60,90
0.09999999999999432,411,9,60,90
0.09999999999999432,411,10,60,90
0.10000000000002274,411,11,60,90
0.09999999999999432,411,12,60,90
0.09999999999999432,411,13,60,90
0.004545454545450411,411,14,60,90
0.06818181818181301,411,15,60,90
0.10000000000002274,412,0,60,90
0.09999999999999432,412,1,60,90
0.09999999999999432,412,2,60,90
0.09999999999999432,412,3,60,90
0.09999999999999432,412,4,60,90
0.09999999999999432,412,5,60,90
0.09999999999999432,412,6,60,90
0.10000000000002274,412,7,60,90
0.09999999999999432,412,8,60,90
0.09999999999999432,412,9,60,90
0.09999999999999432,412,10,60,90
0.04772727272725774,412,11,60,90
0.004545454545450411,412,12,60,90
0.024999999999977263,412,13,60,90
0.04545454545456096,412,14,60,90
0.04772727272728616,412,15,60,90
0.10000000000002274,413,0,60,90
0.10000000000002274,413,1,60,90
0.09999999999999432,413,2,60,90
0.09999999999999432,413,3,60,90
0.09999999999999432,413,4,60,90
0.09999999999999432,413,5,60,90
0.09999999999999432,413,6,60,90
0.09999999999999432,413,7,60,90
0.06818181818181301,413,8,60,90
0.10000000000002274,413,9,60,90
0.04545454545456096,413,10,60,90
0.09999999999999432,413,11,60,90
0.09999999999999432,413,12,60,90
0.09999999999999432,413,13,60,90
0.09999999999999432,413,14,60,90
0.10000000000002274,413,15,60,90
0.10000000000002274,414,0,60,90
0.09999999999999432,414,1,60,90
0.10000000000002274,414,2,60,90
0.10000000000002274,414,3,60,90
0.09999999999999432,414,4,60,90
0.09999999999999432,414,5,60,90
0.09999999999999432,414,6,60,90
0.09999999999999432,414,7,60,90
0.09999999999999432,414,8,60,90
0.09999999999999787,414,9,60,90
0.09999999999999787,414,10,60,90
0.10000000000000142,414,11,60,90
0.09999999999999787,414,12,60,90
0.10000000000000142,414,13,60,90
0.10000000000000142,414,14,60,90
0.10000000000000142,414,15,60,90
0.09999999999999787,415,0,60,90
0.10000000000000142,415,1,60,90
0.09999999999999787,415,2,60,90
0.09999999999999787,415,3,60,90
0.09999999999999787,415,4,60,90
0.09999999999999787,415,5,60,90
0.10000000000000142,415,6,60,90
0.10000000000000142,415,7,60,90
0.10000000000000142,415,8,60,90
0.10000000000000142,415,9,60,90
0.10000000000000142,415,10,60,90
0.10000000000000142,415,11,60,90
0.10000000000000142,415,12,60,90
0.10000000000000142,415,13,60,90
0.10000000000000142,415,14,60,90
0.09999999999999432,415,15,60,90
0.10000000000000142,416,0,60,90
0.09999999999999432,416,1,60,90
0.10000000000000142,416,2,60,90
0.10000000000000142,416,3,60,90
0.10000000000000142,416,4,60,90
0.10000000000000142,416,5,60,90
0.10000000000000142,416,6,60,90
0.09999999999999432,416,7,60,90
0.10000000000000142,416,8,60,90
0.09999999999999432,416,9,60,90
0.10000000000000142,416,10,60,90
0.09999999999999432,416,11,60,90
0.10000000000000142,416,12,60,90
0.09999999999999432,416,13,60,90
0.09999999999999432,416,14,60,90
0.09999999999999432,416,15,60,90
0.10000000000000142,417,0,60,90
0.09999999999999432,417,1,60,90
0.10000000000000142,417,2,60,90
0.10000000000000142,417,3,60,90
0.10000000000000142,417,4,60,90
0.10000000000000142,417,5,60,90
0.10000000000000142,417,6,60,90
0.10000000000000142,417,7,60,90
0.10000000000000142,417,8,60,90
0.09999999999999432,417,9,60,90
0.10000000000000142,417,10,60,90
0.10000000000000142,417,11,60,90
0.10000000000000142,417,12,60,90
0.10000000000000142,417,13,60,90
0.09999999999999432,417,14,60,90
0.10000000000000142,417,15,60,90
0.10000000000000142,418,0,60,90
0.10000000000000142,418,1,60,90
0.10000000000000142,418,2,60,90
0.10000000000000142,418,3,60,90
0.10000000000000142,418,4,60,90
0.10000000000000142,418,5,60,90
0.10000000000000142,418,6,60,90
0.10000000000000142,418,7,60,90
0.10000000000000142,418,8,60,90
0.10000000000000142,418,9,60,90
0.10000000000000142,418,10,60,90
0.09999999999999432,418,11,60,90
0.10000000000000142,418,12,60,90
0.09999999999999432,418,13,60,90
0.09999999999999432,418,14,60,90
0.10000000000000142,418,15,60,90
0.10000000000000142,419,0,60,90
0.09999999999999432,419,1,60,90
0.10000000000000142,419,2,60,90
0.10000000000000142,419,3,60,90
0.10000000000000142,419,4,60,90
0.10000000000000142,419,5,60,90
0.10000000000000142,419,6,60,90
0.10000000000000142,419,7,60,90
0.09999999999999432,419,8,60,90
0.10000000000000142,419,9,60,90
0.09999999999999432,419,10,60,90
0.10000000000000142,419,11,60,90
0.09999999999999432,419,12,60,90
0.09999999999999432,419,13,60,90
0.09999999999999432,419,14,60,90
0.10000000000000142,419,15,60,90
0.09999999999999432,420,0,60,90
0.10000000000000142,420,1,60,90
0.09999999999999432,420,2,60,90
0.10000000000000142,420,3,60,90
0.10000000000000142,420,4,60,90
0.10000000000000142,420,5,60,90
0.10000000000000142,420,6,60,90
0.10000000000000142,420,7,60,90
0.10000000000000142,420,8,60,90
0.10000000000000142,420,9,60,90
0.10000000000000142,420,10,60,90
0.09999999999999432,420,11,60,90
0.10000000000000142,420,12,60,90
0.10000000000000142,420,13,60,90
0.10000000000000142,420,14,60,90
0.10000000000000142,420,15,60,90
0.10000000000000142,421,0,60,90
0.10000000000000142,421,1,60,90
0.10000000000000142,421,2,60,90
0.10000000000000142,421,3,60,90
0.10000000000000142,421,4,60,90
0.10000000000000142,421,5,60,90
0.10000000000000142,421,6,60,90
0.10000000000000142,421,7,60,90
0.10000000000000142,421,8,60,90
0.10000000000000142,421,9,60,90
0.09999999999999432,421,10,60,90
0.10000000000000142,421,11,60,90
0.09999999999999432,421,12,60,90
0.10000000000000142,421,13,60,90
0.09999999999999432,421,14,60,90
0.09999999999999432,421,15,60,90
0.09999999999999432,422,0,60,90
0.10000000000000142,422,1,60,90
0.09999999999999432,422,2,60,90
0.10000000000000142,422,3,60,90
0.09999999999999432,422,4,60,90
0.09999999999999432,422,5,60,90
0.10000000000000142,422,6,60,90
0.10000000000000142,422,7,60,90
0.10000000000000142,422,8,60,90
0.10000000000000142,422,9,60,90
0.09999999999999432,422,10,60,90
0.09999999999999432,422,11,60,90
0.09999999999999432,422,12,60,90
0.09999999999999432,422,13,60,90
0.10000000000000142,422,14,60,90
0.09999999999999432,422,15,60,90
0.09999999999999432,423,0,60,90
0.09999999999999432,423,1,60,90
0.10000000000000853,423,2,60,90
0.10000000000000853,423,3,60,90
0.09999999999999432,423,4,60,90
0.09999999999999432,423,5,60,90
0.10000000000000853,423,6,60,90
0.10000000000000853,423,7,60,90
0.10000000000000853,423,8,60,90
0.09999999999999432,423,9,60,90
0.10000000000000853,423,10,60,90
0.09999999999999432,423,11,60,90
0.10000000000000853,423,12,60,90
0.09999999999999432,423,13,60,90
0.10000000000000853,423,14,60,90
0.10000000000000853,423,15,60,90
0.10000000000000853,424,0,60,90
0.10000000000000853,424,1,60,90
0.10000000000000853,424,2,60,90
0.10000000000000853,424,3,60,90
0.09999999999999432,424,4,60,90
0.09999999999999432,424,5,60,90
0.10000000000000853,424,6,60,90
0.10000000000000853,424,7,60,90
0.09999999999999432,424,8,60,90
0.09999999999999432,424,9,60,90
0.10000000000000853,424,10,60,90
0.10000000000000853,424,11,60,90
0.10000000000000853,424,12,60,90
0.09999999999999432,424,13,60,90
0.09999999999999432,424,14,60,90
0.10000000000000853,424,15,60,90
0.10000000000000853,425,0,60,90
0.09999999999999432,425,1,60,90
0.09999999999999432,425,2,60,90
0.10000000000000853,425,3,60,90
0.09999999999999432,425,4,60,90
0.10000000000000853,425,5,60,90
0.09999999999999432,425,6,60,90
0.09999999999999432,425,7,60,90
0.09999999999999432,425,8,60,90
0.10000000000000853,425,9,60,90
0.09999999999999432,425,10,60,90
0.09999999999999432,425,11,60,90
0.10000000000000853,425,12,60,90
0.09999999999999432,425,13,60,90
0.10000000000000853,425,14,60,90
0.09999999999999432,425,15,60,90
0.10000000000000853,426,0,60,90
0.09999999999999432,426,1,60,90
0.10000000000000853,426,2,60,90
0.10000000000000853,426,3,60,90
0.09999999999999432,426,4,60,90
0.09999999999999432,426,5,60,90
0.10000000000000853,426,6,60,90
0.09999999999999432,426,7,60,90
0.09999999999999432,426,8,60,90
0.09999999999999432,426,9,60,90
0.10000000000000853,426,10,60,90
0.10000000000000853,426,11,60,90
0.10000000000000853,426,12,60,90
0.09999999999999432,426,13,60,90
0.09999999999999432,426,14,60,90
0.10000000000000853,426,15,60,90
0.09999999999999432,427,0,60,90
0.10000000000000853,427,1,60,90
0.09999999999999432,427,2,60,90
0.09999999999999432,427,3,60,90
0.10000000000000853,427,4,60,90
0.10000000000000853,427,5,60,90
0.09999999999999432,427,6,60,90
0.09999999999999432,427,7,60,90
0.09999999999999432,427,8,60,90
0.10000000000000853,427,9,60,90
0.10000000000000853,427,10,60,90
0.09999999999999432,427,11,60,90
0.09999999999999432,427,12,60,90
0.10000000000000853,427,13,60,90
0.10000000000000853,427,14,60,90
0.09999999999999432,427,15,60,90
0.09999999999999432,428,0,60,90
0.09999999999999432,428,1,60,90
0.10000000000000853,428,2,60,90
0.10000000000000853,428,3,60,90
0.10000000000000853,428,4,60,90
0.10000000000000853,428,5,60,90
0.10000000000000853,428,6,60,90
0.10000000000000853,428,7,60,90
0.09999999999999432,428,8,60,90
0.09999999999999432,428,9,60,90
0.10000000000000853,428,10,60,90
0.09999999999999432,428,11,60,90
0.09999999999999432,428,12,60,90
0.10000000000000853,428,13,60,90
0.10000000000000853,428,14,60,90
0.09999999999999432,428,15,60,90
0.10000000000000853,429,0,60,90
0.10000000000000853,429,1,60,90
0.10000000000000853,429,2,60,90
0.09999999999999432,429,3,60,90
0.09999999999999432,429,4,60,90
0.09999999999999432,429,5,60,90
0.09999999999999432,429,6,60,90
0.09999999999999432,429,7,60,90
0.10000000000000853,429,8,60,90
0.09999999999999432,429,9,60,90
0.09999999999999432,429,10,60,90
0.09999999999999432,429,11,60,90
0.10000000000000853,429,12,60,90
0.10000000000000853,429,13,60,90
0.09999999999999432,429,14,60,90
0.09999999999999432,429,15,60,90
0.10000000000000853,430,0,60,90
0.09999999999999432,430,1,60,90
0.09999999999999432,430,2,60,90
0.09999999999999432,430,3,60,90
0.10000000000000853,430,4,60,90
0.09999999999999432,430,5,60,90
0.09999999999999432,430,6,60,90
0.09999999999999432,430,7,60,90
0.10000000000000853,430,8,60,90
0.10000000000000853,430,9,60,90
0.10000000000000853,430,10,60,90
0.09999999999999432,430,11,60,90
0.10000000000000853,430,12,60,90
0.06818181818182723,430,13,60,90
0.09999999999999432,430,14,60,90
0.09999999999999432,430,15,60,90
0.10000000000000853,431,0,60,90
0.10000000000000853,431,1,60,90
0.09999999999999432,431,2,60,90
0.09999999999999432,431,3,60,90
0.10000000000000853,431,4,60,90
0.10000000000000853,431,5,60,90
0.09999999999999432,431,6,60,90
0.09999999999999432,431,7,60,90
0.09999999999999432,431,8,60,90
0.09999999999999432,431,9,60,90
0.09999999999999432,431,10,60,90
0.10000000000000853,431,11,60,90
0.09999999999999432,431,12,60,90
0.10000000000000853,431,13,60,90
0.09999999999999432,431,14,60,90
0.10000000000000853,431,15,60,90
0.09999999999999432,432,0,60,90
0.09999999999999432,432,1,60,90
0.10000000000000853,432,2,60,90
0.10000000000000853,432,3,60,90
0.09999999999999432,432,4,60,90
0.09999999999999432,432,5,60,90
0.09999999999999432,432,6,60,90
0.09999999999999432,432,7,60,90
0.09999999999999432,432,8,60,90
0.09999999999999432,432,9,60,90
0.09999999999999432,432,10,60,90
0.09999999999999432,432,11,60,90
0.09999999999999432,432,12,60,90
0.09999999999999432,432,13,60,90
0.09999999999999432,432,14,60,90
0.09999999999999432,432,15,60,90
0.09999999999999432,433,0,60,90
0.09999999999999432,433,1,60,90
0.10000000000002274,433,2,60,90
0.09999999999999432,433,3,60,90
0.09999999999999432,433,4,60,90
0.09999999999999432,433,5,60,90
0.09999999999999432,433,6,60,90
0.09999999999999432,433,7,60,90
0.09999999999999432,433,8,60,90
0.10000000000002274,433,9,60,90
0.09999999999999432,433,10,60,90
0.09999999999999432,433,11,60,90
0.10000000000002274,433,12,60,90
0.10000000000002274,433,13,60,90
0.09999999999999432,433,14,60,90
0.09999999999999432,433,15,60,90
0.09999999999999432,434,0,60,90
0.09999999999999432,434,1,60,90
0.09999999999999432,434,2,60,90
0.09999999999999432,434,3,60,90
0.09999999999999432,434,4,60,90
0.10000000000002274,434,5,60,90
0.09999999999999432,434,6,60,90
0.09999999999999432,434,7,60,90
0.09999999999999432,434,8,60,90
0.09999999999999432,434,9,60,90
0.10000000000002274,434,10,60,90
0.09999999999999432,434,11,60,90
0.09999999999999432,434,12,60,90
0.09999999999999432,434,13,60,90
0.09999999999999432,434,14,60,90
0.09999999999999432,434,15,60,90
0.09999999999999432,435,0,60,90
0.10000000000002274,435,1,60,90
0.09999999999999432,435,2,60,90
0.09999999999999432,435,3,60,90
0.10000000000002274,435,4,60,90
0.10000000000002274,435,5,60,90
0.09999999999999432,435,6,60,90
0.10000000000002274,435,7,60,90
0.09999999999999432,435,8,60,90
0.09999999999999432,435,9,60,90
0.09999999999999432,435,10,60,90
0.09999999999999432,435,11,60,90
0.10000000000002274,435,12,60,90
0.10000000000002274,435,13,60,90
0.09999999999999432,435,14,60,90
0.09999999999999432,435,15,60,90
0.09999999999999432,436,0,60,90
0.09999999999999432,436,1,60,90
0.09999999999999432,436,2,60,90
0.09999999999999432,436,3,60,90
0.09999999999999432,436,4,60,90
0.09999999999999432,436,5,60,90
0.10000000000002274,436,6,60,90
0.09999999999999432,436,7,60,90
0.09999999999999432,436,8,60,90
0.09999999999999432,436,9,60,90
0.09999999999999432,436,10,60,90
0.09999999999999432,436,11,60,90
0.10000000000002274,436,12,60,90
0.09999999999999432,436,13,60,90
0.10000000000002274,436,14,60,90
0.09999999999999432,436,15,60,90
0.09999999999999432,437,0,60,90
0.10000000000002274,437,1,60,90
0.09999999999999432,437,2,60,90
0.10000000000002274,437,3,60,90
0.09999999999999432,437,4,60,90
0.09999999999999432,437,5,60,90
0.09999999999999432,437,6,60,90
0.09999999999999432,437,7,60,90
0.09999999999999432,437,8,60,90
0.09999999999999432,437,9,60,90
0.09999999999999432,437,10,60,90
0.10000000000002274,437,11,60,90
0.09999999999999432,437,12,60,90
0.09999999999999432,437,13,60,90
0.09999999999999432,437,14,60,90
0.10000000000002274,437,15,60,90
0.09999999999999432,438,0,60,90
0.09999999999999432,438,1,60,90
0.09999999999999432,438,2,60,90
0.09999999999999432,438,3,60,90
0.09999999999999432,438,4,60,90
0.09999999999999432,438,5,60,90
0.09999999999999432,438,6,60,90
0.09999999999999432,438,7,60,90
0.09999999999999432,438,8,60,90
0.09999999999999432,438,9,60,90
0.10000000000002274,438,10,60,90
0.09999999999999432,438,11,60,90
0.10000000000002274,438,12,60,90
0.09999999999999432,438,13,60,90
0.10000000000002274,438,14,60,90
0.10000000000002274,438,15,60,90
0.09999999999999432,439,0,60,90
0.10000000000002274,439,1,60,90
0.09999999999999432,439,2,60,90
0.09999999999999432,439,3,60,90
0.10000000000002274,439,4,60,90
0.09999999999999432,439,5,60,90
0.09999999999999432,439,6,60,90
0.10000000000002274,439,7,60,90
0.09999999999999432,439,8,60,90
0.09999999999999432,439,9,60,90
0.09999999999999432,439,10,60,90
0.10000000000002274,439,11,60,90
0.09999999999999432,439,12,60,90
0.10000000000002274,439,13,60,90
0.09999999999999432,439,14,60,90
0.09999999999999432,439,15,60,90
0.09999999999999432,440,0,60,90
0.10000000000002274,440,1,60,90
0.09999999999999432,440,2,60,90
0.09999999999999432,440,3,60,90
0.09999999999999432,440,4,60,90
0.09999999999999432,440,5,60,90
0.10000000000002274,440,6,60,90
0.09999999999999432,440,7,60,90
0.09999999999999432,440,8,60,90
0.10000000000002274,440,9,60,90
0.10000000000002274,440,10,60,90
0.09999999999999432,440,11,60,90
0.09999999999999432,440,12,60,90
0.10000000000002274,440,13,60,90
0.09999999999999432,440,14,60,90
0.09999999999999432,440,15,60,90
0.10000000000002274,441,0,60,90
0.09999999999999432,441,1,60,90
0.10000000000002274,441,2,60,90
0.09999999999999432,441,3,60,90
0.09999999999999432,441,4,60,90
0.10000000000002274,441,5,60,90
0.10000000000002274,441,6,60,90
0.09999999999999432,441,7,60,90
0.10000000000002274,441,8,60,90
0.09999999999999432,441,9,60,90
0.09999999999999432,441,10,60,90
0.09999999999999432,441,11,60,90
0.10000000000002274,441,12,60,90
0.09999999999999432,441,13,60,90
0.004545454545450411,441,14,60,90
0.10000000000002274,441,15,60,90
0.09999999999999432,442,0,60,90
0.09999999999999432,442,1,60,90
0.09999999999999432,442,2,60,90
0.09999999999999432,442,3,60,90
0.09999999999999432,442,4,60,90
0.09999999999999432,442,5,60,90
0.09999999999999432,442,6,60,90
0.10000000000000009,442,7,60,90
0.09999999999999987,442,8,60,90
0.09999999999999987,442,9,60,90
0.09999999999999987,442,10,60,90
0.10000000000000009,442,11,60,90
0.09999999999999964,442,12,60,90
0.10000000000000009,442,13,60,90
0.10000000000000009,442,14,60,90
0.10000000000000009,442,15,60,90
0.09999999999999964,443,0,60,90
0.09999999999999964,443,1,60,90
0.10000000000000009,443,2,60,90
0.10000000000000009,443,3,60,90
0.09999999999999964,443,4,60,90
0.10000000000000053,443,5,60,90
0.09999999999999964,443,6,60,90
0.09999999999999964,443,7,60,90
0.09999999999999964,443,8,60,90
0.09999999999999964,443,9,60,90
0.09999999999999964,443,10,60,90
0.09999999999999964,443,11,60,90
0.10000000000000053,443,12,60,90
0.10000000000000053,443,13,60,90
0.09999999999999964,443,14,60,90
0.09999999999999964,443,15,60,90
0.10000000000000053,444,0,60,90
0.09999999999999964,444,1,60,90
0.10000000000000053,444,2,60,90
0.09999999999999964,444,3,60,90
0.09999999999999964,444,4,60,90
0.09999999999999964,444,5,60,90
0.10000000000000053,444,6,60,90
0.09999999999999964,444,7,60,90
0.09999999999999964,444,8,60,90
0.09999999999999964,444,9,60,90
0.09999999999999964,444,10,60,90
0.09999999999999964,444,11,60,90
0.09999999999999964,444,12,60,90
0.09999999999999964,444,13,60,90
0.09999999999999964,444,14,60,90
0.10000000000000142,444,15,60,90
0.10000000000000142,445,0,60,90
0.09999999999999964,445,1,60,90
0.09999999999999964,445,2,60,90
0.09999999999999964,445,3,60,90
0.09999999999999964,445,4,60,90
0.09999999999999964,445,5,60,90
0.10000000000000142,445,6,60,90
0.09999999999999964,445,7,60,90
0.09999999999999964,445,8,60,90
0.09999999999999964,445,9,60,90
0.09999999999999964,445,10,60,90
0.09999999999999964,445,11,60,90
0.10000000000000142,445,12,60,90
0.09999999999999964,445,13,60,90
0.10000000000000142,445,14,60,90
0.10000000000000142,445,15,60,90
0.10000000000000142,446,0,60,90
0.06818181818181834,446,1,60,90
0.09999999999999964,446,2,60,90
0.09999999999999964,446,3,60,90
0.09999999999999964,446,4,60,90
0.10000000000000142,446,5,60,90
0.09999999999999964,446,6,60,90
0.09999999999999964,446,7,60,90
0.10000000000000142,446,8,60,90
0.09999999999999964,446,9,60,90
0.09999999999999964,446,10,60,90
0.10000000000000142,446,11,60,90
0.09999999999999964,446,12,60,90
0.09999999999999964,446,13,60,90
0.09999999999999964,446,14,60,90
0.10000000000000142,446,15,60,90
0.10000000000000142,447,0,60,90
0.10000000000000142,447,1,60,90
0.10000000000000142,447,2,60,90
0.10000000000000142,447,3,60,90
0.10000000000000142,447,4,60,90
0.10000000000000142,447,5,60,90
0.09999999999999787,447,6,60,90
0.10000000000000142,447,7,60,90
0.06590909090909136,447,8,60,90
0.004545454545457517,447,9,60,90
0.10000000000000142,447,10,60,90
0.10000000000000142,447,11,60,90
0.10000000000000142,447,12,60,90
0.10000000000000142,447,13,60,90
0.09999999999999787,447,14,60,90
0.09999999999999787,447,15,60,90
0.10000000000000142,448,0,60,90
0.10000000000000142,448,1,60,90
0.10000000000000142,448,2,60,90
0.09999999999999787,448,3,60,90
0.10000000000000142,448,4,60,90
0.09999999999999787,448,5,60,90
0.09999999999999787,448,6,60,90
0.09999999999999787,448,7,60,90
0.10000000000000142,448,8,60,90
0.10000000000000142,448,9,60,90
0.09999999999999787,448,10,60,90
0.10000000000000142,448,11,60,90
0.09999999999999787,448,12,60,90
0.004545454545453964,448,13,60,90
0.09999999999999787,448,14,60,90
0.10000000000000142,448,15,60,90
0.10000000000000142,449,0,60,90
0.10000000000000142,449,1,60,90
0.10000000000000142,449,2,60,90
0.10000000000000142,449,3,60,90
0.09999999999999787,449,4,60,90
0.10000000000000142,449,5,60,90
0.09999999999999787,449,6,60,90
0.06818181818181657,449,7,60,90
0.10000000000000142,449,8,60,90
0.10000000000000142,449,9,60,90
0.10000000000000142,449,10,60,90
0.09999999999999787,449,11,60,90
0.10000000000000142,449,12,60,90
0.10000000000000142,449,13,60,90
0.09999999999999787,449,14,60,90
0.10000000000000142,449,15,60,90
0.10000000000000142,450,0,60,90
0.10000000000000142,450,1,60,90
0.10000000000000142,450,2,60,90
0.06818181818182012,450,3,60,90
0.10000000000000142,450,4,60,90
0.10000000000000142,450,5,60,90
0.06818181818182012,450,6,60,90
0.10000000000000142,450,7,60,90
0.09999999999999787,450,8,60,90
0.10000000000000142,450,9,60,90
0.10000000000000142,450,10,60,90
0.09999999999999787,450,11,60,90
0.09999999999999787,450,12,60,90
0.10000000000000142,450,13,60,90
0.09999999999999787,450,14,60,90
0.10000000000000142,450,15,60,90
0.10000000000000142,451,0,60,90
0.10000000000000142,451,1,60,90
0.10000000000000142,451,2,60,90
0.10000000000000142,451,3,60,90
0.10000000000000142,451,4,60,90
0.10000000000000142,451,5,60,90
0.09999999999999432,451,6,60,90
0.10000000000000142,451,7,60,90
0.10000000000000142,451,8,60,90
0.09999999999999432,451,9,60,90
0.09999999999999432,451,10,60,90
0.10000000000000142,451,11,60,90
0.10000000000000142,451,12,60,90
0.10000000000000142,451,13,60,90
0.09999999999999432,451,14,60,90
0.10000000000000142,451,15,60,90
0.10000000000000142,452,0,60,90
0.10000000000000142,452,1,60,90
0.09999999999999432,452,2,60,90
0.10000000000000142,452,3,60,90
0.10000000000000142,452,4,60,90
0.10000000000000142,452,5,60,90
0.10000000000000142,452,6,60,90
0.09999999999999432,452,7,60,90
0.09999999999999432,452,8,60,90
0.10000000000000142,452,9,60,90
0.10000000000000142,452,10,60,90
0.10000000000000142,452,11,60,90
0.10000000000000142,452,12,60,90
0.10000000000000142,452,13,60,90
0.10000000000000142,452,14,60,90
0.09999999999999432,452,15,60,90
0.10000000000000142,453,0,60,90
0.10000000000000142,453,1,60,90
0.10000000000000142,453,2,60,90
0.10000000000000142,453,3,60,90
0.10000000000000142,453,4,60,90
0.10000000000000142,453,5,60,90
0.09999999999999432,453,6,60,90
0.09999999999999432,453,7,60,90
0.10000000000000142,453,8,60,90
0.10000000000000142,453,9,60,90
0.10000000000000142,453,10,60,90
0.09999999999999432,453,11,60,90
0.10000000000000142,453,12,60,90
0.10000000000000142,453,13,60,90
0.10000000000000142,453,14,60,90
0.09999999999999432,453,15,60,90
0.10000000000000142,454,0,60,90
0.10000000000000142,454,1,60,90
0.10000000000000142,454,2,60,90
0.10000000000000142,454,3,60,90
0.10000000000000142,454,4,60,90
0.09999999999999432,454,5,60,90
0.10000000000000142,454,6,60,90
0.10000000000000142,454,7,60,90
0.10000000000000142,454,8,60,90
0.09999999999999432,454,9,60,90
0.09999999999999432,454,10,60,90
0.10000000000000142,454,11,60,90
0.10000000000000142,454,12,60,90
0.09999999999999432,454,13,60,90
0.10000000000000142,454,14,60,90
0.10000000000000142,454,15,60,90
0.09999999999999432,455,0,60,90
0.09999999999999432,455,1,60,90
0.10000000000000142,455,2,60,90
0.10000000000000142,455,3,60,90
0.10000000000000142,455,4,60,90
0.10000000000000142,455,5,60,90
0.09999999999999432,455,6,60,90
0.10000000000000142,455,7,60,90
0.10000000000000142,455,8,60,90
0.10000000000000142,455,9,60,90
0.09999999999999432,455,10,60,90
0.09999999999999432,455,11,60,90
0.10000000000000142,455,12,60,90
0.10000000000000142,455,13,60,90
0.10000000000000142,455,14,60,90
0.10000000000000142,455,15,60,90
0.09999999999999432,456,0,60,90
0.10000000000000142,456,1,60,90
0.10000000000000142,456,2,60,90
0.10000000000000142,456,3,60,90
0.09999999999999432,456,4,60,90
0.09999999999999432,456,5,60,90
0.06818181818181301,456,6,60,90
0.0022727272727252057,456,7,60,90
0.10000000000000142,456,8,60,90
0.10000000000000142,456,9,60,90
0.10000000000000142,456,10,60,90
0.10000000000000142,456,11,60,90
0.10000000000000142,456,12,60,90
0.10000000000000142,456,13,60,90
0.10000000000000142,456,14,60,90
0.09999999999999432,456,15,60,90
0.10000000000000142,457,0,60,90
0.10000000000000142,457,1,60,90
0.10000000000000142,457,2,60,90
0.10000000000000142,457,3,60,90
0.10000000000000142,457,4,60,90
0.10000000000000142,457,5,60,90
0.10000000000000142,457,6,60,90
0.10000000000000142,457,7,60,90
0.09999999999999432,457,8,60,90
0.10000000000000142,457,9,60,90
0.10000000000000142,457,10,60,90
0.10000000000000142,457,11,60,90
0.10000000000000142,457,12,60,90
0.10000000000000142,457,13,60,90
0.10000000000000142,457,14,60,90
0.10000000000000142,457,15,60,90
0.10000000000000142,458,0,60,90
0.10000000000000142,458,1,60,90
0.10000000000000142,458,2,60,90
0.10000000000000142,458,3,60,90
0.09999999999999432,458,4,60,90
0.10000000000000142,458,5,60,90
0.10000000000000142,458,6,60,90
0.09999999999999432,458,7,60,90
0.10000000000000142,458,8,60,90
0.10000000000000142,458,9,60,90
0.06590909090909491,458,10,60,90
0.09999999999999432,458,11,60,90
0.10000000000000142,458,12,60,90
0.10000000000000142,458,13,60,90
0.10000000000000142,458,14,60,90
0.09999999999999432,458,15,60,90
0.10000000000000142,459,0,60,90
0.10000000000000142,459,1,60,90
0.09999999999999432,459,2,60,90
0.10000000000000142,459,3,60,90
0.09999999999999432,459,4,60,90
0.09999999999999432,459,5,60,90
0.09999999999999432,459,6,60,90
0.10000000000000142,459,7,60,90
0.10000000000000142,459,8,60,90
0.10000000000000142,459,9,60,90
0.10000000000000142,459,10,60,90
0.09999999999999432,459,11,60,90
0.10000000000000142,459,12,60,90
0.09999999999999432,459,13,60,90
0.09999999999999432,459,14,60,90
0.09999999999999432,459,15,60,90
0.09999999999999432,460,0,60,90
0.09999999999999432,460,1,60,90
0.09999999999999432,460,2,60,90
0.09999999999999432,460,3,60,90
0.10000000000000853,460,4,60,90
0.09999999999999432,460,5,60,90
0.10000000000000853,460,6,60,90
0.10000000000000853,460,7,60,90
0.09999999999999432,460,8,60,90
0.10000000000000853,460,9,60,90
0.10000000000000853,460,10,60,90
0.09999999999999432,460,11,60,90
0.10000000000000853,460,12,60,90
0.10000000000000853,460,13,60,90
0.09999999999999432,460,14,60,90
0.09999999999999432,460,15,60,90
0.09999999999999432,461,0,60,90
0.09999999999999432,461,1,60,90
0.09999999999999432,461,2,60,90
0.10000000000000853,461,3,60,90
0.09999999999999432,461,4,60,90
0.09999999999999432,461,5,60,90
0.09999999999999432,461,6,60,90
0.09999999999999432,461,7,60,90
0.09999999999999432,461,8,60,90
0.09999999999999432,461,9,60,90
0.10000000000000853,461,10,60,90
0.09999999999999432,461,11,60,90
0.09999999999999432,461,12,60,90
0.09999999999999432,461,13,60,90
0.10000000000000853,461,14,60,90
0.09999999999999432,461,15,60,90
0.10000000000000853,462,0,60,90
0.10000000000000853,462,1,60,90
0.10000000000000853,462,2,60,90
0.09999999999999432,462,3,60,90
0.09999999999999432,462,4,60,90
0.09999999999999432,462,5,60,90
0.09999999999999432,462,6,60,90
0.10000000000000853,462,7,60,90
0.09999999999999432,462,8,60,90
0.10000000000000853,462,9,60,90
0.09999999999999432,462,10,60,90
0.09999999999999432,462,11,60,90
0.09999999999999432,462,12,60,90
0.09999999999999432,462,13,60,90
0.09999999999999432,462,14,60,90
0.09999999999999432,462,15,60,90
0.09999999999999432,463,0,60,90
0.10000000000000853,463,1,60,90
0.09999999999999432,463,2,60,90
0.09999999999999432,463,3,60,90
0.09999999999999432,463,4,60,90
0.10000000000000853,463,5,60,90
0.09999999999999432,463,6,60,90
0.09999999999999432,463,7,60,90
0.09999999999999432,463,8,60,90
0.10000000000000853,463,9,60,90
0.09999999999999432,463,10,60,90
0.09999999999999432,463,11,60,90
0.10000000000000853,463,12,60,90
0.10000000000000853,463,13,60,90
0.10000000000000853,463,14,60,90
0.10000000000000853,463,15,60,90
0.09999999999999432,464,0,60,90
0.09999999999999432,464,1,60,90
0.10000000000000853,464,2,60,90
0.09999999999999432,464,3,60,90
0.09999999999999432,464,4,60,90
0.09999999999999432,464,5,60,90
0.09999999999999432,464,6,60,90
0.10000000000000853,464,7,60,90
0.09999999999999432,464,8,60,90
0.09999999999999432,464,9,60,90
0.09999999999999432,464,10,60,90
0.10000000000000853,464,11,60,90
0.09999999999999432,464,12,60,90
0.09999999999999432,464,13,60,90
0.10000000000000853,464,14,60,90
0.09999999999999432,464,15,60,90
0.09999999999999432,465,0,60,90
0.09999999999999432,465,1,60,90
0.09999999999999432,465,2,60,90
0.10000000000000853,465,3,60,90
0.10000000000000853,465,4,60,90
0.09999999999999432,465,5,60,90
0.09999999999999432,465,6,60,90
0.10000000000000853,465,7,60,90
0.09999999999999432,465,8,60,90
0.09999999999999432,465,9,60,90
0.10000000000000853,465,10,60,90
0.09999999999999432,465,11,60,90
0.10000000000000853,465,12,60,90
0.10000000000000853,465,13,60,90
0.09999999999999432,465,14,60,90
0.09999999999999432,465,15,60,90
0.09999999999999432,466,0,60,90
0.10000000000000853,466,1,60,90
0.10000000000000853,466,2,60,90
0.10000000000000853,466,3,60,90
0.09999999999999432,466,4,60,90
0.09999999999999432,466,5,60,90
0.10000000000000853,466,6,60,90
0.09999999999999432,466,7,60,90
0.10000000000000853,466,8,60,90
0.09999999999999432,466,9,60,90
0.09999999999999432,466,10,60,90
0.09999999999999432,466,11,60,90
0.10000000000000853,466,12,60,90
0.10000000000000853,466,13,60,90
0.09999999999999432,466,14,60,90
0.09999999999999432,466,15,60,90
0.10000000000000853,467,0,60,90
0.10000000000000853,467,1,60,90
0.09999999999999432,467,2,60,90
0.10000000000000853,467,3,60,90
0.09999999999999432,467,4,60,90
0.09999999999999432,467,5,60,90
0.09999999999999432,467,6,60,90
0.10000000000000853,467,7,60,90
0.10000000000000853,467,8,60,90
0.09999999999999432,467,9,60,90
0.10000000000000853,467,10,60,90
0.09999999999999432,467,11,60,90
0.10000000000000853,467,12,60,90
0.09999999999999432,467,13,60,90
0.09999999999999432,467,14,60,90
0.09999999999999432,467,15,60,90
0.09999999999999432,468,0,60,90
0.09999999999999432,468,1,60,90
0.10000000000000853,468,2,60,90
0.09999999999999432,468,3,60,90
0.09999999999999432,468,4,60,90
0.10000000000000853,468,5,60,90
0.09999999999999432,468,6,60,90
0.10000000000000853,468,7,60,90
0.10000000000000853,468,8,60,90
0.09999999999999432,468,9,60,90
0.09999999999999432,468,10,60,90
0.09999999999999432,468,11,60,90
0.09999999999999432,468,12,60,90
0.10000000000000853,468,13,60,90
0.10000000000000853,468,14,60,90
0.09999999999999432,468,15,60,90
0.10000000000000853,469,0,60,90
0.10000000000000853,469,1,60,90
0.10000000000000853,469,2,60,90
0.10000000000000853,469,3,60,90
0.09999999999999432,469,4,60,90
0.09999999999999432,469,5,60,90
0.09999999999999432,469,6,60,90
0.09999999999999432,469,7,60,90
0.10000000000000853,469,8,60,90
0.09999999999999432,469,9,60,90
0.10000000000000853,469,10,60,90
0.09999999999999432,469,11,60,90
0.10000000000000853,469,12,60,90
0.10000000000000853,469,13,60,90
0.10000000000000853,469,14,60,90
0.10000000000000853,469,15,60,90
0.09999999999999432,470,0,60,90
0.09999999999999432,470,1,60,90
0.09999999999999432,470,2,60,90
0.09999999999999432,470,3,60,90
0.09999999999999432,470,4,60,90
0.09999999999999432,470,5,60,90
0.09999999999999432,470,6,60,90
0.09999999999999432,470,7,60,90
0.10000000000000853,470,8,60,90
0.10000000000000853,470,9,60,90
0.09999999999999432,470,10,60,90
0.09999999999999432,470,11,60,90
0.10000000000000853,470,12,60,90
0.10000000000000853,470,13,60,90
0.09999999999999432,470,14,60,90
0.09999999999999432,470,15,60,90
0.10000000000000853,471,0,60,90
0.10000000000000853,471,1,60,90
0.10000000000000853,471,2,60,90
0.10000000000000853,471,3,60,90
0.09999999999999432,471,4,60,90
0.09999999999999432,471,5,60,90
0.09999999999999432,471,6,60,90
0.09999999999999432,471,7,60,90
0.10000000000000853,471,8,60,90
0.09999999999999432,471,9,60,90
0.09999999999999432,471,10,60,90
0.10000000000000853,471,11,60,90
0.09999999999999432,471,12,60,90
0.09999999999999432,471,13,60,90
0.09999999999999432,471,14,60,90
0.10000000000000853,471,15,60,90
0.10000000000000853,472,0,60,90
0.10000000000000853,472,1,60,90
0.025000000000005684,472,2,60,90
0.09999999999999432,472,3,60,90
0.09999999999999432,472,4,60,90
0.09999999999999432,472,5,60,90
0.10000000000000853,472,6,60,90
0.10000000000000853,472,7,60,90
0.09999999999999432,472,8,60,90
0.09999999999999432,472,9,60,90
0.10000000000000853,472,10,60,90
0.10000000000000853,472,11,60,90
0.09999999999999432,472,12,60,90
0.10000000000000853,472,13,60,90
0.10000000000000853,472,14,60,90
0.10000000000000853,472,15,60,90
0.10000000000000853,473,0,60,90
0.09999999999999432,473,1,60,90
0.09999999999999432,473,2,60,90
0.10000000000000853,473,3,60,90
0.10000000000000853,473,4,60,90
0.10000000000000853,473,5,60,90
0.09999999999999432,473,6,60,90
0.09999999999999432,473,7,60,90
0.09999999999999432,473,8,60,90
0.09999999999999432,473,9,60,90
0.09999999999999432,473,10,60,90
0.10000000000000853,473,11,60,90
0.09999999999999432,473,12,60,90
0.09999999999999432,473,13,60,90
0.10000000000000853,473,14,60,90
0.09999999999999432,473,15,60,90
0.09999999999999432,474,0,60,90
0.09999999999999432,474,1,60,90
0.09999999999999432,474,2,60,90
0.09999999999999432,474,3,60,90
0.09999999999999432,474,4,60,90
0.09999999999999432,474,5,60,90
0.09999999999999432,474,6,60,90
0.09999999999999432,474,7,60,90
0.09999999999999432,474,8,60,90
0.09999999999999432,474,9,60,90
0.10000000000002274,474,10,60,90
0.09999999999999432,474,11,60,90
0.09999999999999432,474,12,60,90
0.09999999999999432,474,13,60,90
0.09999999999999432,474,14,60,90
0.09999999999999432,474,15,60,90
0.09999999999999432,475,0,60,90
0.09999999999999432,475,1,60,90
0.09999999999999432,475,2,60,90
0.10000000000002274,475,3,60,90
0.09999999999999432,475,4,60,90
0.09999999999999432,475,5,60,90
0.10000000000002274,475,6,60,90
0.10000000000002274,475,7,60,90
0.09999999999999432,475,8,60,90
0.10000000000002274,475,9,60,90
0.09999999999999432,475,10,60,90
0.09999999999999432,475,11,60,90
0.10000000000002274,475,12,60,90
0.09999999999999432,475,13,60,90
0.09999999999999432,475,14,60,90
0.09999999999999432,475,15,60,90
0.09999999999999432,476,0,60,90
0.09999999999999432,476,1,60,90
0.09999999999999432,476,2,60,90
0.09999999999999432,476,3,60,90
0.09999999999999432,476,4,60,90
0.09999999999999432,476,5,60,90
0.10000000000002274,476,6,60,90
0.10000000000002274,476,7,60,90
0.09999999999999432,476,8,60,90
0.09999999999999432,476,9,60,90
0.09999999999999432,476,10,60,90
0.09999999999999432,476,11,60,90
0.09999999999999432,476,12,60,90
0.10000000000002274,476,13,60,90
0.09999999999999432,476,14,60,90
0.10000000000002274,476,15,60,90
0.09999999999999432,477,0,60,90
0.09999999999999432,477,1,60,90
0.10000000000002274,477,2,60,90
0.09999999999999432,477,3,60,90
0.10000000000002274,477,4,60,90
0.09999999999999432,477,5,60,90
0.09999999999999432,477,6,60,90
0.09999999999999432,477,7,60,90
0.09999999999999432,477,8,60,90
0.09999999999999432,477,9,60,90
0.09999999999999432,477,10,60,90
0.09999999999999432,477,11,60,90
0.09999999999999432,477,12,60,90
0.09999999999999432,477,13,60,90
0.09999999999999432,477,14,60,90
0.09999999999999432,477,15,60,90
0.10000000000002274,478,0,60,90
0.09999999999999432,478,1,60,90
0.10000000000002274,478,2,60,90
0.09999999999999432,478,3,60,90
0.10000000000002274,478,4,60,90
0.09999999999999432,478,5,60,90
0.09999999999999432,478,6,60,90
0.09999999999999432,478,7,60,90
0.10000000000002274,478,8,60,90
0.10000000000002274,478,9,60,90
0.09999999999999432,478,10,60,90
0.09999999999999432,478,11,60,90
0.09999999999999432,478,12,60,90
0.09999999999999432,478,13,60,90
0.09999999999999432,478,14,60,90
0.09999999999999432,478,15,60,90
0.09999999999999432,479,0,60,90
0.09999999999999432,479,1,60,90
0.09999999999999432,479,2,60,90
0.09999999999999432,479,3,60,90
0.09999999999999432,479,4,60,90
0.09999999999999432,479,5,60,90
0.09999999999999432,479,6,60,90
0.10000000000002274,479,7,60,90
0.09999999999999432,479,8,60,90
0.09999999999999432,479,9,60,90
0.09999999999999432,479,10,60,90
0.10000000000002274,479,11,60,90
0.10000000000002274,479,12,60,90
0.09999999999999432,479,13,60,90
0.09999999999999432,479,14,60,90
0.09999999999999432,479,15,60,90
0.09999999999999432,480,0,60,90
0.09999999999999432,480,1,60,90
0.09999999999999432,480,2,60,90
0.10000000000002274,480,3,60,90
0.10000000000002274,480,4,60,90
0.09999999999999432,480,5,60,90
0.09999999999999432,480,6,60,90
0.09999999999999432,480,7,60,90
0.10000000000002274,480,8,60,90
0.09999999999999432,480,9,60,90
0.09999999999999432,480,10,60,90
0.09999999999999432,480,11,60,90
0.09999999999999432,480,12,60,90
0.09999999999999432,480,13,60,90
0.09999999999999432,480,14,60,90
0.09999999999999432,480,15,60,90
0.09999999999999432,481,0,60,90
0.09999999999999432,481,1,60,90
0.09999999999999432,481,2,60,90
0.09999999999999432,481,3,60,90
0.10000000000002274,481,4,60,90
0.10000000000002274,481,5,60,90
0.09999999999999432,481,6,60,90
0.09999999999999432,481,7,60,90
0.09999999999999432,481,8,60,90
0.09999999999999432,481,9,60,90
0.09999999999999432,481,10,60,90
0.09999999999999432,481,11,60,90
0.09999999999999432,481,12,60,90
0.10000000000002274,481,13,60,90
0.09999999999999432,481,14,60,90
0.09999999999999432,481,15,60,90
0.09999999999999432,482,0,60,90
0.10000000000002274,482,1,60,90
0.09999999999999432,482,2,60,90
0.09999999999999432,482,3,60,90
0.09999999999999432,482,4,60,90
0.10000000000002274,482,5,60,90
0.09999999999999432,482,6,60,90
0.09999999999999432,482,7,60,90
0.09999999999999432,482,8,60,90
0.10000000000002274,482,9,60,90
0.09999999999999432,482,10,60,90
0.09999999999999432,482,11,60,90
0.10000000000002274,482,12,60,90
0.10000000000002274,482,13,60,90
0.09999999999999432,482,14,60,90
0.10000000000002274,482,15,60,90
0.09999999999999432,483,0,60,90
0.09999999999999432,483,1,60,90
0.09999999999999432,483,2,60,90
0.10000000000002274,483,3,60,90
0.09999999999999432,483,4,60,90
0.004545454545450411,483,5,60,90
0.10000000000002274,483,6,60,90
0.10000000000002274,483,7,60,90
0.09999999999999432,483,8,60,90
0.09999999999999432,483,9,60,90
0.09999999999999432,483,10,60,90
0.10000000000002274,483,11,60,90
0.09999999999999432,483,12,60,90
0.09999999999999432,483,13,60,90
0.09999999999999432,483,14,60,90
0.09999999999999432,483,15,60,90
0.09999999999999432,484,0,60,90
0.09999999999999432,484,1,60,90
0.09999999999999432,484,2,60,90
0.10000000000002274,484,3,60,90
0.09999999999999432,484,4,60,90
0.09999999999999432,484,5,60,90
0.10000000000002274,484,6,60,90
0.09999999999999432,484,7,60,90
0.09999999999999432,484,8,60,90
0.09999999999999432,484,9,60,90
0.09999999999999432,484,10,60,90
0.10000000000002274,484,11,60,90
0.10000000000002274,484,12,60,90
0.09999999999999432,484,13,60,90
0.10000000000002274,484,14,60,90
0.09999999999999432,484,15,60,90
0.09999999999999432,485,0,60,90
0.056818181818186986,485,1,60,90
0.09999999999999432,485,2,60,90
0.09999999999999432,485,3,60,90
0.09999999999999432,485,4,60,90
0.10000000000002274,485,5,60,90
0.09999999999999432,485,6,60,90
0.09999999999999787,485,7,60,90
0.10000000000000142,485,8,60,90
0.10000000000000142,485,9,60,90
0.10000000000000142,485,10,60,90
0.10000000000000142,485,11,60,90
0.09999999999999787,485,12,60,90
0.10000000000000142,485,13,60,90
0.10000000000000142,485,14,60,90
0.09999999999999432,485,15,60,90
0.10000000000000142,486,0,60,90
0.10000000000000142,486,1,60,90
0.09999999999999432,486,2,60,90
0.10000000000000142,486,3,60,90
0.10000000000000142,486,4,60,90
0.10000000000000142,486,5,60,90
0.10000000000000142,486,6,60,90
0.10000000000000142,486,7,60,90
0.10000000000000142,486,8,60,90
0.10000000000000142,486,9,60,90
0.10000000000000142,486,10,60,90
0.10000000000000142,486,11,60,90
0.10000000000000142,486,12,60,90
0.09999999999999432,486,13,60,90
0.10000000000000142,486,14,60,90
0.10000000000000142,486,15,60,90
0.10000000000000142,487,0,60,90
0.10000000000000142,487,1,60,90
0.10000000000000142,487,2,60,90
0.10000000000000142,487,3,60,90
0.10000000000000142,487,4,60,90
0.09999999999999432,487,5,60,90
0.09999999999999432,487,6,60,90
0.09999999999999432,487,7,60,90
0.10000000000000142,487,8,60,90
0.10000000000000142,487,9,60,90
0.10000000000000142,487,10,60,90
0.10000000000000142,487,11,60,90
0.10000000000000142,487,12,60,90
0.10000000000000142,487,13,60,90
0.09999999999999432,487,14,60,90
0.10000000000000142,487,15,60,90
0.09999999999999432,488,0,60,90
0.10000000000000142,488,1,60,90
0.10000000000000142,488,2,60,90
0.10000000000000142,488,3,60,90
0.10000000000000142,488,4,60,90
0.10000000000000142,488,5,60,90
0.10000000000000142,488,6,60,90
0.09999999999999432,488,7,60,90
0.10000000000000142,488,8,60,90
0.10000000000000142,488,9,60,90
0.10000000000000853,488,10,60,90
0.10000000000000853,488,11,60,90
0.09999999999999432,488,12,60,90
0.09999999999999432,488,13,60,90
0.09999999999999432,488,14,60,90
0.09999999999999432,488,15,60,90
0.09999999999999432,489,0,60,90
0.10000000000000009,489,1,60,90
0.09999999999999964,489,2,60,90
0.09999999999999964,489,3,60,90
0.09999999999999964,489,4,60,90
0.10000000000000053,489,5,60,90
0.10000000000000053,489,6,60,90
0.09999999999999964,489,7,60,90
0.09999999999999964,489,8,60,90
0.09999999999999964,489,9,60,90
0.09999999999999964,489,10,60,90
0.09999999999999964,489,11,60,90
0.09999999999999964,489,12,60,90
0.10000000000000142,489,13,60,90
0.10000000000000142,489,14,60,90
0.10000000000000142,489,15,60,90
0.09999999999999787,490,0,60,90
0.09999999999999787,490,1,60,90
0.10000000000000142,490,2,60,90
0.09999999999999787,490,3,60,90
0.10000000000000142,490,4,60,90
0.10000000000000142,490,5,60,90
0.10000000000000142,490,6,60,90
0.10000000000000142,490,7,60,90
0.10000000000000142,490,8,60,90
0.10000000000000142,490,9,60,90
0.10000000000000142,490,10,60,90
0.10000000000000142,490,11,60,90
0.09999999999999787,490,12,60,90
0.10000000000000142,490,13,60,90
0.09999999999999787,490,14,60,90
0.10000000000000142,490,15,60,90
0.09999999999999787,491,0,60,90
0.10000000000000142,491,1,60,90
0.10000000000000142,491,2,60,90
0.10000000000000142,491,3,60,90
0.10000000000000142,491,4,60,90
0.10000000000000142,491,5,60,90
0.10000000000000142,491,6,60,90
0.10000000000000142,491,7,60,90
0.10000000000000142,491,8,60,90
0.10000000000000142,491,9,60,90
0.10000000000000142,491,10,60,90
0.10000000000000142,491,11,60,90
0.10000000000000142,491,12,60,90
0.10000000000000142,491,13,60,90
0.09999999999999432,491,14,60,90
0.10000000000000142,491,15,60,90
0.10000000000000142,492,0,60,90
0.10000000000000142,492,1,60,90
0.10000000000000142,492,2,60,90
0.09999999999999432,492,3,60,90
0.10000000000000142,492,4,60,90
0.09999999999999432,492,5,60,90
0.10000000000000142,492,6,60,90
0.10000000000000142,492,7,60,90
0.10000000000000142,492,8,60,90
0.10000000000000142,492,9,60,90
0.09999999999999432,492,10,60,90
0.10000000000000142,492,11,60,90
0.10000000000000142,492,12,60,90
0.10000000000000142,492,13,60,90
0.004545454545457517,492,14,60,90
0.10000000000000142,492,15,60,90
0.10000000000000142,493,0,60,90
0.10000000000000142,493,1,60,90
0.10000000000000142,493,2,60,90
0.10000000000000142,493,3,60,90
0.09999999999999432,493,4,60,90
0.09999999999999432,493,5,60,90
0.10000000000000142,493,6,60,90
0.10000000000000142,493,7,60,90
0.10000000000000142,493,8,60,90
0.10000000000000142,493,9,60,90
0.10000000000000142,493,10,60,90
0.10000000000000142,493,11,60,90
0.09999999999999432,493,12,60,90
0.09999999999999432,493,13,60,90
0.10000000000000142,493,14,60,90
0.10000000000000142,493,15,60,90
0.10000000000000142,494,0,60,90
0.10000000000000142,494,1,60,90
0.10000000000000142,494,2,60,90
0.10000000000000142,494,3,60,90
0.10000000000000142,494,4,60,90
0.10000000000000142,494,5,60,90
0.10000000000000142,494,6,60,90
0.10000000000000142,494,7,60,90
0.09999999999999432,494,8,60,90
0.10000000000000142,494,9,60,90
0.09999999999999432,494,10,60,90
0.10000000000000142,494,11,60,90
0.10000000000000142,494,12,60,90
0.10000000000000142,494,13,60,90
0.10000000000000142,494,14,60,90
0.09999999999999432,494,15,60,90
0.10000000000000142,495,0,60,90
0.10000000000000142,495,1,60,90
0.10000000000000142,495,2,60,90
0.10000000000000142,495,3,60,90
0.09999999999999432,495,4,60,90
0.10000000000000142,495,5,60,90
0.10000000000000142,495,6,60,90
0.10000000000000142,495,7,60,90
0.10000000000000142,495,8,60,90
0.10000000000000142,495,9,60,90
0.10000000000000142,495,10,60,90
0.10000000000000142,495,11,60,90
0.10000000000000142,495,12,60,90
0.09999999999999432,495,13,60,90
0.09999999999999432,495,14,60,90
0.10000000000000142,495,15,60,90
0.10000000000000142,496,0,60,90
0.10000000000000142,496,1,60,90
0.10000000000000142,496,2,60,90
0.09999999999999432,496,3,60,90
0.10000000000000142,496,4,60,90
0.09999999999999432,496,5,60,90
0.10000000000000142,496,6,60,90
0.09999999999999432,496,7,60,90
0.10000000000000142,496,8,60,90
0.10000000000000142,496,9,60,90
0.10000000000000142,496,10,60,90
0.09999999999999432,496,11,60,90
0.10000000000000142,496,12,60,90
0.10000000000000142,496,13,60,90
0.09999999999999432,496,14,60,90
0.10000000000000142,496,15,60,90
0.10000000000000142,497,0,60,90
0.10000000000000142,497,1,60,90
0.10000000000000142,497,2,60,90
0.10000000000000142,497,3,60,90
0.09999999999999432,497,4,60,90
0.09999999999999432,497,5,60,90
0.10000000000000142,497,6,60,90
0.10000000000000142,497,7,60,90
0.10000000000000142,497,8,60,90
0.10000000000000142,497,9,60,90
0.09999999999999432,497,10,60,90
0.10000000000000142,497,11,60,90
0.10000000000000142,497,12,60,90
0.10000000000000142,497,13,60,90
0.10000000000000142,497,14,60,90
0.10000000000000142,497,15,60,90
0.09999999999999432,498,0,60,90
0.10000000000000142,498,1,60,90
0.10000000000000142,498,2,60,90
0.10000000000000142,498,3,60,90
0.10000000000000142,498,4,60,90
0.09999999999999432,498,5,60,90
0.10000000000000142,498,6,60,90
0.09999999999999432,498,7,60,90
0.10000000000000142,498,8,60,90
0.10000000000000142,498,9,60,90
0.10000000000000142,498,10,60,90
0.10000000000000142,498,11,60,90
0.10000000000000142,498,12,60,90
0.10000000000000142,498,13,60,90
0.10000000000000142,498,14,60,90
0.10000000000000142,498,15,60,90
0.10000000000000142,499,0,60,90
0.10000000000000142,499,1,60,90
0.09999999999999432,499,2,60,90
0.10000000000000142,499,3,60,90
0.10000000000000142,499,4,60,90
0.10000000000000142,499,5,60,90
0.10000000000000142,499,6,60,90
0.10000000000000142,499,7,60,90
0.10000000000000142,499,8,60,90
0.10000000000000142,499,9,60,90
0.10000000000000142,499,10,60,90
0.10000000000000142,499,11,60,90
0.09999999999999432,499,12,60,90
0.10000000000000142,499,13,60,90
0.10000000000000142,499,14,60,90
0.10000000000000142,499,15,60,90
0.10000000000000142,500,0,60,90
0.10000000000000142,500,1,60,90
0.10000000000000142,500,2,60,90
0.09999999999999432,500,3,60,90
0.09999999999999432,500,4,60,90
0.10000000000000142,500,5,60,90
0.09999999999999432,500,6,60,90
0.09999999999999432,500,7,60,90
0.10000000000000142,500,8,60,90
0.10000000000000142,500,9,60,90
0.10000000000000142,500,10,60,90
0.10000000000000142,500,11,60,90
0.10000000000000142,500,12,60,90
0.10000000000000142,500,13,60,90
0.09999999999999432,500,14,60,90
0.10000000000000142,500,15,60,90
0.09999999999999432,501,0,60,90
0.10000000000000142,501,1,60,90
0.10000000000000142,501,2,60,90
0.10000000000000142,501,3,60,90
0.10000000000000142,501,4,60,90
0.09999999999999432,501,5,60,90
0.09999999999999432,501,6,60,90
0.10000000000000853,501,7,60,90
0.10000000000000853,501,8,60,90
0.09999999999999432,501,9,60,90
0.10000000000000853,501,10,60,90
0.09999999999999432,501,11,60,90
0.09999999999999432,501,12,60,90
0.09999999999999432,501,13,60,90
0.10000000000000853,501,14,60,90
0.10000000000000853,501,15,60,90
0.10000000000000853,502,0,60,90
0.10000000000000853,502,1,60,90
0.10000000000000853,502,2,60,90
0.10000000000000853,502,3,60,90
0.09999999999999432,502,4,60,90
0.10000000000000853,502,5,60,90
0.09999999999999432,502,6,60,90
0.10000000000000853,502,7,60,90
0.10000000000000853,502,8,60,90
0.09999999999999432,502,9,60,90
0.10000000000000853,502,10,60,90
0.09999999999999432,502,11,60,90
0.10000000000000853,502,12,60,90
0.10000000000000853,502,13,60,90
0.09999999999999432,502,14,60,90
0.10000000000000853,502,15,60,90
0.10000000000000853,503,0,60,90
0.09999999999999432,503,1,60,90
0.10000000000000853,503,2,60,90
0.10000000000000853,503,3,60,90
0.10000000000000853,503,4,60,90
0.10000000000000853,503,5,60,90
0.10000000000000853,503,6,60,90
0.09999999999999432,503,7,60,90
0.09999999999999432,503,8,60,90
0.10000000000000853,503,9,60,90
0.09999999999999432,503,10,60,90
0.10000000000000853,503,11,60,90
0.10000000000000853,503,12,60,90
0.10000000000000853,503,13,60,90
0.09999999999999432,503,14,60,90
0.10000000000000853,503,15,60,90
0.10000000000000853,504,0,60,90
0.09999999999999432,504,1,60,90
0.09999999999999432,504,2,60,90
0.09999999999999432,504,3,60,90
0.10000000000000853,504,4,60,90
0.09999999999999432,504,5,60,90
0.09999999999999432,504,6,60,90
0.10000000000000853,504,7,60,90
0.09999999999999432,504,8,60,90
0.10000000000000853,504,9,60,90
0.10000000000000853,504,10,60,90
0.10000000000000853,504,11,60,90
0.09999999999999432,504,12,60,90
0.10000000000000853,504,13,60,90
0.004545454545464622,504,14,60,90
0.10000000000000853,504,15,60,90
0.10000000000000853,505,0,60,90
0.10000000000000853,505,1,60,90
0.10000000000000853,505,2,60,90
0.09999999999999432,505,3,60,90
0.09999999999999432,505,4,60,90
0.10000000000000853,505,5,60,90
0.09999999999999432,505,6,60,90
0.10000000000000853,505,7,60,90
0.10000000000000853,505,8,60,90
0.09999999999999432,505,9,60,90
0.09999999999999432,505,10,60,90
0.09999999999999432,505,11,60,90
0.10000000000000853,505,12,60,90
0.10000000000000853,505,13,60,90
0.09999999999999432,505,14,60,90
0.10000000000000853,505,15,60,90
0.09999999999999432,506,0,60,90
0.09999999999999432,506,1,60,90
0.09999999999999432,506,2,60,90
0.10000000000000853,506,3,60,90
0.09999999999999432,506,4,60,90
0.09999999999999432,506,5,60,90
0.10000000000000853,506,6,60,90
0.09999999999999432,506,7,60,90
0.09999999999999432,506,8,60,90
0.09999999999999432,506,9,60,90
0.10000000000000853,506,10,60,90
0.09999999999999432,506,11,60,90
0.10000000000000853,506,12,60,90
0.10000000000000853,506,13,60,90
0.10000000000000853,506,14,60,90
0.09999999999999432,506,15,60,90
0.09999999999999432,507,0,60,90
0.10000000000000853,507,1,60,90
0.09999999999999432,507,2,60,90
0.09999999999999432,507,3,60,90
0.10000000000000853,507,4,60,90
0.09999999999999432,507,5,60,90
0.09999999999999432,507,6,60,90
0.09999999999999432,507,7,60,90
0.10000000000000853,507,8,60,90
0.10000000000000853,507,9,60,90
0.10000000000000853,507,10,60,90
0.10000000000000853,507,11,60,90
0.09999999999999432,507,12,60,90
0.09999999999999432,507,13,60,90
0.09999999999999432,507,14,60,90
0.10000000000000853,507,15,60,90
0.09999999999999432,508,0,60,90
0.10000000000000853,508,1,60,90
0.09999999999999432,508,2,60,90
0.09999999999999432,508,3,60,90
0.09999999999999432,508,4,60,90
0.10000000000000853,508,5,60,90
0.09999999999999432,508,6,60,90
0.09999999999999432,508,7,60,90
0.10000000000000853,508,8,60,90
0.10000000000000853,508,9,60,90
0.10000000000000853,508,10,60,90
0.10000000000000853,508,11,60,90
0.10000000000000853,508,12,60,90
0.10000000000000853,508,13,60,90
0.10000000000000853,508,14,60,90
0.09999999999999432,508,15,60,90
0.09999999999999432,509,0,60,90
0.10000000000000853,509,1,60,90
0.09999999999999432,509,2,60,90
0.09999999999999432,509,3,60,90
0.10000000000000853,509,4,60,90
0.10000000000000853,509,5,60,90
0.09999999999999432,509,6,60,90
0.10000000000000853,509,7,60,90
0.10000000000000853,509,8,60,90
0.10000000000000853,509,9,60,90
0.09999999999999432,509,10,60,90
0.10000000000000853,509,11,60,90
0.10000000000000853,509,12,60,90
0.09999999999999432,509,13,60,90
0.10000000000000853,509,14,60,90
0.10000000000000853,509,15,60,90
0.10000000000000853,510,0,60,90
0.10000000000000853,510,1,60,90
0.09999999999999432,510,2,60,90
0.09999999999999432,510,3,60,90
0.09999999999999432,510,4,60,90
0.10000000000000853,510,5,60,90
0.09999999999999432,510,6,60,90
0.10000000000000853,510,7,60,90
0.10000000000000853,510,8,60,90
0.09999999999999432,510,9,60,90
0.09999999999999432,510,10,60,90
0.10000000000000853,510,11,60,90
0.10000000000000853,510,12,60,90
0.10000000000000853,510,13,60,90
0.09999999999999432,510,14,60,90
0.09999999999999432,510,15,60,90
0.09999999999999432,511,0,60,90
0.09999999999999432,511,1,60,90
0.10000000000000853,511,2,60,90
0.09999999999999432,511,3,60,90
0.10000000000000853,511,4,60,90
0.09999999999999432,511,5,60,90
0.0022727272727252057,511,6,60,90
0.09999999999999432,511,7,60,90
0.09999999999999432,511,8,60,90
0.10000000000000853,511,9,60,90
0.10000000000000853,511,10,60,90
0.10000000000000853,511,11,60,90
0.10000000000000853,511,12,60,90
0.09999999999999432,511,13,60,90
0.09999999999999432,511,14,60,90
0.09999999999999432,511,15,60,90
0.09999999999999432,512,0,60,90
0.09999999999999432,512,1,60,90
0.10000000000000853,512,2,60,90
0.09999999999999432,512,3,60,90
0.09999999999999432,512,4,60,90
0.09999999999999432,512,5,60,90
0.09999999999999432,512,6,60,90
0.10000000000000853,512,7,60,90
0.09999999999999432,512,8,60,90
0.10000000000000853,512,9,60,90
0.10000000000000853,512,10,60,90
0.09999999999999432,512,11,60,90
0.09999999999999432,512,12,60,90
0.09999999999999432,512,13,60,90
0.10000000000000853,512,14,60,90
0.09999999999999432,512,15,60,90
0.10000000000000853,513,0,60,90
0.09999999999999432,513,1,60,90
0.004545454545450411,513,2,60,90
0.09999999999999432,513,3,60,90
0.10000000000002274,513,4,60,90
0.09999999999999432,513,5,60,90
0.09999999999999432,513,6,60,90
0.09999999999999432,513,7,60,90
0.09999999999999432,513,8,60,90
0.09999999999999432,513,9,60,90
0.09999999999999432,513,10,60,90
0.10000000000002274,513,11,60,90
0.09999999999999432,513,12,60,90
0.09999999999999432,513,13,60,90
0.09999999999999432,513,14,60,90
0.10000000000002274,513,15,60,90
0.09999999999999432,514,0,60,90
0.09999999999999432,514,1,60,90
0.09999999999999432,514,2,60,90
0.09999999999999432,514,3,60,90
0.09999999999999432,514,4,60,90
0.09999999999999432,514,5,60,90
0.09999999999999432,514,6,60,90
0.10000000000002274,514,7,60,90
0.09999999999999432,514,8,60,90
0.09999999999999432,514,9,60,90
0.09999999999999432,514,10,60,90
0.09999999999999432,514,11,60,90
0.09999999999999432,514,12,60,90
0.10000000000002274,514,13,60,90
0.09999999999999432,514,14,60,90
0.09999999999999432,514,15,60,90
0.09999999999999432,515,0,60,90
0.10000000000002274,515,1,60,90
0.10000000000002274,515,2,60,90
0.10000000000002274,515,3,60,90
0.09999999999999432,515,4,60,90
0.09999999999999432,515,5,60,90
0.09999999999999432,515,6,60,90
0.09999999999999432,515,7,60,90
0.09999999999999432,515,8,60,90
0.09999999999999432,515,9,60,90
0.10000000000002274,515,10,60,90
0.09999999999999432,515,11,60,90
0.09999999999999432,515,12,60,90
0.09999999999999432,515,13,60,90
0.09999999999999432,515,14,60,90
0.09999999999999432,515,15,60,90
0.10000000000002274,516,0,60,90
0.09999999999999432,516,1,60,90
0.09999999999999432,516,2,60,90
0.10000000000002274,516,3,60,90
0.09999999999999432,516,4,60,90
0.10000000000002274,516,5,60,90
0.09999999999999432,516,6,60,90
0.09999999999999432,516,7,60,90
0.09999999999999432,516,8,60,90
0.09999999999999432,516,9,60,90
0.09999999999999432,516,10,60,90
0.09999999999999432,516,11,60,90
0.10000000000002274,516,12,60,90
0.09999999999999432,516,13,60,90
0.09999999999999432,516,14,60,90
0.09999999999999432,516,15,60,90
0.10000000000002274,517,0,60,90
0.004545454545450411,517,1,60,90
0.10000000000002274,517,2,60,90
0.09999999999999432,517,3,60,90
0.09999999999999432,517,4,60,90
0.09999999999999432,517,5,60,90
0.09999999999999432,517,6,60,90
0.09999999999999432,517,7,60,90
0.10000000000002274,517,8,60,90
0.10000000000002274,517,9,60,90
0.09999999999999432,517,10,60,90
0.09999999999999432,517,11,60,90
0.09999999999999432,517,12,60,90
0.09999999999999432,517,13,60,90
0.09999999999999432,517,14,60,90
0.09999999999999432,517,15,60,90
0.10000000000002274,518,0,60,90
0.09999999999999432,518,1,60,90
0.09999999999999432,518,2,60,90
0.10000000000002274,518,3,60,90
0.0022727272727252057,518,4,60,90
0.10000000000002274,518,5,60,90
0.09999999999999432,518,6,60,90
0.09999999999999432,518,7,60,90
0.10000000000002274,518,8,60,90
0.09999999999999432,518,9,60,90
0.09999999999999432,518,10,60,90
0.10000000000002274,518,11,60,90
0.09999999999999432,518,12,60,90
0.10000000000002274,518,13,60,90
0.09999999999999432,518,14,60,90
0.09999999999999432,518,15,60,90
0.09999999999999432,519,0,60,90
0.09999999999999432,519,1,60,90
0.10000000000002274,519,2,60,90
0.09999999999999432,519,3,60,90
0.09999999999999432,519,4,60,90
0.09999999999999432,519,5,60,90
0.09999999999999432,519,6,60,90
0.09999999999999432,519,7,60,90
0.10000000000002274,519,8,60,90
0.10000000000002274,519,9,60,90
0.09999999999999432,519,10,60,90
0.09999999999999432,519,11,60,90
0.09999999999999432,519,12,60,90
0.09999999999999432,519,13,60,90
0.09999999999999432,519,14,60,90
0.09999999999999432,519,15,60,90
0.09999999999999432,520,0,60,90
0.10000000000002274,520,1,60,90
0.09999999999999432,520,2,60,90
0.09999999999999432,520,3,60,90
0.09999999999999432,520,4,60,90
0.10000000000002274,520,5,60,90
0.09999999999999432,520,6,60,90
0.10000000000002274,520,7,60,90
0.09999999999999432,520,8,60,90
0.09999999999999432,520,9,60,90
0.09999999999999432,520,10,60,90
0.10000000000002274,520,11,60,90
0.09999999999999432,520,12,60,90
0.09999999999999432,520,13,60,90
0.09999999999999432,520,14,60,90
0.09999999999999432,520,15,60,90
0.09999999999999432,521,0,60,90
0.09999999999999432,521,1,60,90
0.09999999999999432,521,2,60,90
0.09999999999999432,521,3,60,90
0.09999999999999432,521,4,60,90
0.10000000000002274,521,5,60,90
0.09999999999999432,521,6,60,90
0.09999999999999432,521,7,60,90
0.09999999999999432,521,8,60,90
0.09999999999999432,521,9,60,90
0.09999999999999432,521,10,60,90
0.09999999999999432,521,11,60,90
0.09999999999999432,521,12,60,90
0.09999999999999432,521,13,60,90
0.09999999999999432,521,14,60,90
0.10000000000002274,521,15,60,90
0.09999999999999432,522,0,60,90
0.10000000000002274,522,1,60,90
0.10000000000002274,522,2,60,90
0.09999999999999432,522,3,60,90
0.10000000000002274,522,4,60,90
0.10000000000002274,522,5,60,90
0.09999999999999432,522,6,60,90
0.10000000000002274,522,7,60,90
0.10000000000002274,522,8,60,90
0.09999999999999432,522,9,60,90
0.10000000000002274,522,10,60,90
0.10000000000002274,522,11,60,90
0.09999999999999432,522,12,60,90
0.09999999999999432,522,13,60,90
0.09999999999999432,522,14,60,90
0.09999999999999432,522,15,60,90
0.09999999999999432,523,0,60,90
0.09999999999999432,523,1,60,90
0.10000000000002274,523,2,60,90
0.10000000000002274,523,3,60,90
0.09999999999999432,523,4,60,90
0.09999999999999432,523,5,60,90
0.09999999999999787,523,6,60,90
0.10000000000000142,523,7,60,90
0.09999999999999787,523,8,60,90
0.09999999999999787,523,9,60,90
0.10000000000000142,523,10,60,90
0.10000000000000142,523,11,60,90
0.09999999999999787,523,12,60,90
0.10000000000000497,523,13,60,90
0.10000000000000142,523,14,60,90
0.10000000000000142,523,15,60,90
0.10000000000000142,524,0,60,90
0.10000000000000142,524,1,60,90
0.09999999999999432,524,2,60,90
0.10000000000000142,524,3,60,90
0.10000000000000142,524,4,60,90
0.09999999999999432,524,5,60,90
0.10000000000000142,524,6,60,90
0.10000000000000142,524,7,60,90
0.10000000000000142,524,8,60,90
0.10000000000000142,524,9,60,90
0.10000000000000142,524,10,60,90
0.10000000000000142,524,11,60,90
0.03636363636363171,524,12,60,90
0.10000000000000142,524,13,60,90
0.10000000000000142,524,14,60,90
0.09999999999999432,524,15,60,90
0.10000000000000142,525,0,60,90
0.10000000000000142,525,1,60,90
0.09999999999999432,525,2,60,90
0.10000000000000142,525,3,60,90
0.056818181818186986,525,4,60,90
0.10000000000000142,525,5,60,90
0.10000000000000142,525,6,60,90
0.10000000000000142,525,7,60,90
0.10000000000000142,525,8,60,90
0.10000000000000142,525,9,60,90
0.09999999999999432,525,10,60,90
0.10000000000000142,525,11,60,90
0.10000000000000142,525,12,60,90
0.10000000000000142,525,13,60,90
0.10000000000000142,525,14,60,90
0.10000000000000142,525,15,60,90
0.10000000000000142,526,0,60,90
0.02499999999999858,526,1,60,90
0.10000000000000142,526,2,60,90
0.09999999999999432,526,3,60,90
0.09999999999999432,526,4,60,90
0.10000000000000142,526,5,60,90
0.09999999999999432,526,6,60,90
0.09999999999999432,526,7,60,90
0.10000000000000142,526,8,60,90
0.09999999999999432,526,9,60,90
0.004545454545450411,526,10,60,90
0.10000000000000142,526,11,60,90
0.10000000000000142,526,12,60,90
0.10000000000000142,526,13,60,90
0.09999999999999432,526,14,60,90
0.10000000000000142,526,15,60,90
0.09999999999999432,527,0,60,90
0.10000000000000142,527,1,60,90
0.10000000000000142,527,2,60,90
0.10000000000000142,527,3,60,90
0.09999999999999432,527,4,60,90
0.10000000000000142,527,5,60,90
0.10000000000000142,527,6,60,90
0.09999999999999432,527,7,60,90
0.10000000000000142,527,8,60,90
0.10000000000000142,527,9,60,90
0.09999999999999432,527,10,60,90
0.09999999999999432,527,11,60,90
0.10000000000000142,527,12,60,90
0.10000000000000142,527,13,60,90
0.09999999999999432,527,14,60,90
0.10000000000000142,527,15,60,90
0.10000000000000142,528,0,60,90
0.10000000000000142,528,1,60,90
0.10000000000000142,528,2,60,90
0.09999999999999432,528,3,60,90
0.10000000000000142,528,4,60,90
0.10000000000000142,528,5,60,90
0.10000000000000142,528,6,60,90
0.09999999999999432,528,7,60,90
0.10000000000000142,528,8,60,90
0.10000000000000142,528,9,60,90
0.10000000000000142,528,10,60,90
0.10000000000000142,528,11,60,90
0.10000000000000142,528,12,60,90
0.10000000000000142,528,13,60,90
0.10000000000000142,528,14,60,90
0.10000000000000142,528,15,60,90
0.09999999999999432,529,0,60,90
0.10000000000000142,529,1,60,90
0.10000000000000142,529,2,60,90
0.10000000000000142,529,3,60,90
0.10000000000000853,529,4,60,90
0.10000000000000853,529,5,60,90
0.09999999999999432,529,6,60,90
0.10000000000000853,529,7,60,90
0.09999999999999432,529,8,60,90
0.10000000000000853,529,9,60,90
0.09999999999999432,529,10,60,90
0.09999999999999432,529,11,60,90
0.10000000000000853,529,12,60,90
0.09999999999999432,529,13,60,90
0.10000000000000853,529,14,60,90
0.09999999999999432,529,15,60,90
0.10000000000000853,530,0,60,90
0.09999999999999432,530,1,60,90
0.10000000000000853,530,2,60,90
0.09999999999999432,530,3,60,90
0.09999999999999432,530,4,60,90
0.10000000000000853,530,5,60,90
0.09999999999999432,530,6,60,90
0.10000000000000853,530,7,60,90
0.09999999999999432,530,8,60,90
0.09999999999999432,530,9,60,90
0.09999999999999432,530,10,60,90
0.10000000000000853,530,11,60,90
0.09999999999999432,530,12,60,90
0.10000000000000853,530,13,60,90
0.09999999999999432,530,14,60,90
0.10000000000002274,530,15,60,90
0.06818181818184144,531,0,60,90
0.09999999999999432,531,1,60,90
0.09999999999999432,531,2,60,90
0.09999999999999432,531,3,60,90
0.004545454545450411,531,4,60,90
0.09999999999999432,531,5,60,90
0.09999999999999432,531,6,60,90
0.09999999999999432,531,7,60,90
0.09999999999999432,531,8,60,90
0.09999999999999432,531,9,60,90
0.09999999999999432,531,10,60,90
0.09999999999999432,531,11,60,90
0.09999999999999432,531,12,60,90
0.10000000000002274,531,13,60,90
0.09999999999999432,531,14,60,90
0.09999999999999432,531,15,60,90
0.09999999999999432,532,0,60,90
0.09999999999999432,532,1,60,90
0.09999999999999432,532,2,60,90
0.10000000000002274,532,3,60,90
0.10000000000002274,532,4,60,90
0.09999999999999432,532,5,60,90
0.09999999999999432,532,6,60,90
0.09999999999999432,532,7,60,90
0.09999999999999432,532,8,60,90
0.09999999999999432,532,9,60,90
0.09999999999999432,532,10,60,90
0.09999999999999432,532,11,60,90
0.09999999999999432,532,12,60,90
0.09999999999999432,532,13,60,90
0.09999999999999432,532,14,60,90
0.10000000000002274,532,15,60,90
0.09999999999999432,533,0,60,90
0.10000000000002274,533,1,60,90
0.09999999999999432,533,2,60,90
0.09999999999999432,533,3,60,90
0.09999999999999432,533,4,60,90
0.09999999999999432,533,5,60,90
0.09999999999999432,533,6,60,90
0.09999999999999432,533,7,60,90
0.10000000000002274,533,8,60,90
0.09999999999999432,533,9,60,90
0.10000000000002274,533,10,60,90
0.09999999999999432,533,11,60,90
0.09999999999999432,533,12,60,90
0.09999999999999432,533,13,60,90
0.09999999999999432,533,14,60,90
0.09999999999999432,533,15,60,90
0.09999999999999432,534,0,60,90
0.09999999999999432,534,1,60,90
0.09999999999999432,534,2,60,90
0.09999999999999432,534,3,60,90
0.09999999999999432,534,4,60,90
0.10000000000002274,534,5,60,90
0.09999999999999432,534,6,60,90
0.09999999999999432,534,7,60,90
0.09999999999999432,534,8,60,90
0.10000000000002274,534,9,60,90
0.09999999999999432,534,10,60,90
0.09999999999999432,534,11,60,90
0.09999999999999432,534,12,60,90
0.09999999999999432,534,13,60,90
0.09999999999999432,534,14,60,90
0.10000000000002274,534,15,60,90
0.09999999999999432,535,0,60,90
0.10000000000000142,535,1,54,39
0.09999999999999787,535,2,54,50
0.09999999999999787,535,3,54,72
0.10000000000000142,535,4,54,65
0.09999999999999787,535,5,54,50
0.09999999999999787,535,6,54,66
0.09999999999999787,535,7,54,74
0.10000000000000142,535,8,54,74
0.10000000000000142,535,9,54,72
0.10000000000000142,535,10,54,47
0.10000000000000142,535,11,54,58
0.10000000000000142,535,12,54,73
0.09999999999999787,535,13,54,40
0.09999999999999787,535,14,54,61
0.10000000000000142,535,15,54,39
0.10000000000000142,536,0,54,93
0.10000000000000142,536,1,54,100
0.10000000000000142,536,2,54,86
0.10000000000000142,536,3,54,49
0.10000000000000142,536,4,54,102
0.10000000000000142,536,5,54,127
0.10000000000000142,536,6,54,80
0.10000000000000142,536,7,54,90
0.10000000000000142,536,8,54,82
0.10000000000000142,536,9,54,107
0.10000000000000142,536,10,54,119
0.10000000000000142,536,11,54,90
0.10000000000000142,536,12,54,89
0.10000000000000142,536,13,54,104
0.09999999999999432,536,14,54,112
0.10000000000000142,536,15,54,122
0.10000000000000142,537,0,54,119
0.10000000000000142,537,1,54,127
0.10000000000000142,537,2,54,127
0.10000000000000142,537,3,54,117
0.10000000000000142,537,4,54,95
0.10000000000000142,537,5,54,119
0.10000000000000142,537,6,54,101
0.10000000000000142,537,7,54,99
0.10000000000000142,537,8,54,127
0.10000000000000142,537,9,54,96
0.10000000000000142,537,10,54,100
0.09999999999999432,537,11,54,112
0.09999999999999432,537,12,54,121
0.05681818181817988,537,13,54,100
0.10000000000000142,537,14,54,126
0.10000000000000142,537,15,54,71
0.09999999999999432,538,0,54,27
0.09999999999999432,538,1,54,51
0.10000000000000853,538,2,54,44
0.09999999999999432,538,3,54,41
0.09999999999999432,538,4,54,45
0.09999999999999432,538,5,54,50
0.09999999999999432,538,6,54,41
0.10000000000000853,538,7,54,48
0.09999999999999432,538,8,54,92
0.09999999999999432,538,9,54,123
0.10000000000000853,538,10,54,106
0.09999999999999432,538,11,54,122
0.10000000000000853,538,12,54,127
0.09999999999999432,538,13,54,107
0.09999999999999432,538,14,54,115
0.01590909090909065,538,15,54,114
0.09999999999999432,539,0,54,127
0.10000000000000853,539,1,54,127
0.09999999999999432,539,2,54,124
0.09999999999999432,539,3,54,123
0.09999999999999432,539,4,54,127
0.10000000000000853,539,5,54,109
0.09999999999999432,539,6,54,122
0.10000000000000853,539,7,54,88
0.09999999999999432,539,8,54,104
0.10000000000000853,539,9,54,127
0.09999999999999432,539,10,54,109
0.10000000000000853,539,11,54,121
0.09999999999999432,539,12,54,106
0.10000000000000853,539,13,54,96
0.10000000000000853,539,14,54,118
0.10000000000000853,539,15,54,106
0.09999999999999432,540,0,54,126
0.10000000000000853,540,1,54,127
0.09999999999999432,540,2,54,121
0.10000000000000853,540,3,54,116
0.09999999999999432,540,4,54,120
0.10000000000000853,540,5,54,102
0.10000000000000853,540,6,54,37
0.09999999999999432,540,7,54,127
0.09999999999999432,540,8,54,114
0.09999999999999432,540,9,54,109
0.10000000000000853,540,10,54,100
0.09999999999999432,540,11,54,88
0.09999999999999432,540,12,54,79
0.09999999999999432,540,13,54,77
0.10000000000000853,540,14,54,92
0.10000000000000853,540,15,54,92
0.10000000000000853,541,0,54,95
0.09999999999999432,541,1,54,74
0.09999999999999432,541,2,54,91
0.10000000000000853,541,3,54,81
0.10000000000000853,541,4,54,95
0.09999999999999432,541,5,54,79
0.09999999999999432,541,6,54,77
0.09999999999999432,541,7,54,81
0.10000000000000853,541,8,54,48
0.09999999999999432,541,9,54,106
0.09999999999999432,541,10,54,96
0.09999999999999432,541,11,54,107
0.10000000000000853,541,12,54,127
0.09999999999999432,541,13,54,97
0.09999999999999432,541,14,54,80
0.09999999999999432,541,15,54,75
0.09999999999999432,542,0,54,98
0.09999999999999432,542,1,54,83
0.09999999999999432,542,2,54,127
0.10000000000000853,542,3,54,127
0.09999999999999432,542,4,54,127
0.10000000000000853,542,5,54,127
0.10000000000000853,542,6,54,127
0.10000000000000853,542,7,54,127
0.09999999999999432,542,8,54,104
0.09999999999999432,542,9,54,118
0.09999999999999432,542,10,54,36
0.09999999999999432,542,11,54,84
0.10000000000000853,542,12,54,89
0.09999999999999432,542,13,54,71
0.10000000000002274,542,14,54,70
0.10000000000002274,542,15,54,60
0.09999999999999432,543,0,54,93
0.09999999999999432,543,1,54,91
0.09999999999999432,543,2,54,69
0.10000000000002274,543,3,54,76
0.09999999999999432,543,4,54,117
0.09999999999999432,543,5,54,93
0.09999999999999432,543,6,54,68
0.09999999999999432,543,7,54,92
0.09999999999999432,543,8,54,73
0.09999999999999432,543,9,54,67
0.09999999999999432,543,10,54,36
0.09999999999999432,543,11,54,88
0.09999999999999432,543,12,54,33
0.10000000000002274,543,13,54,42
0.09999999999999432,543,14,54,75
0.10000000000002274,543,15,54,33
0.09999999999999432,544,0,54,90
0.09999999999999432,544,1,54,37
0.09999999999999432,544,2,54,37
0.09999999999999432,544,3,54,59
0.10000000000002274,544,4,54,32
0.09999999999999432,544,5,54,45
0.09999999999999432,544,6,54,59
0.09999999999999432,544,7,54,65
0.09999999999999432,544,8,54,71
0.09999999999999432,544,9,54,81
0.09999999999999432,544,10,54,61
0.09999999999999432,544,11,54,81
0.09999999999999432,544,12,54,51
0.09999999999999432,544,13,54,43
0.10000000000002274,544,14,54,43
0.09999999999999432,544,15,54,68
0.09999999999999432,545,0,54,96
0.09999999999999432,545,1,54,76
0.09999999999999432,545,2,54,72
0.09999999999999432,545,3,54,30
0.03636363636363171,545,4,54,49
0.09999999999999432,545,5,54,74
0.09999999999999432,545,6,54,95
0.09999999999999432,545,7,54,73
0.09999999999999432,545,8,54,48
0.004545454545450411,545,9,54,55
0.024999999999977263,545,10,54,62
0.09999999999999432,545,11,54,48
0.10000000000002274,545,12,54,54
0.10000000000002274,545,13,54,58
0.09999999999999432,545,14,54,63
0.09999999999999432,545,15,54,54
0.09999999999999432,546,0,54,49
0.09999999999999432,546,1,54,83
0.09999999999999432,546,2,54,56
0.09999999999999432,546,3,54,69
0.09999999999999432,546,4,54,67
0.09999999999999432,546,5,54,82
0.09999999999999432,546,6,54,84
0.05909090909091219,546,7,54,86
0.09999999999999432,546,8,54,72
0.025000000000005684,546,9,54,82
0.10000000000002274,546,10,54,88
0.09999999999999432,546,11,54,63
0.09999999999999432,546,12,54,116
0.03636363636363171,546,13,54,119
0.09999999999999432,546,14,54,76
0.10000000000000142,546,15,89,127
0.09999999999999787,547,0,89,45
0.10000000000000142,547,1,89,127
0.09999999999999787,547,2,89,110
0.10000000000000142,547,3,89,127
0.10000000000000142,547,4,89,64
0.09999999999999787,547,5,89,127
0.09999999999999787,547,6,89,64
0.09999999999999787,547,7,89,127
0.09999999999999787,547,8,89,127
0.09999999999999787,547,9,89,127
0.09999999999999787,547,10,89,65
0.10000000000000142,547,11,89,127
0.10000000000000142,547,12,89,64
0.10000000000000142,547,13,89,127
0.10000000000000142,547,14,89,126
0.10000000000000142,547,15,89,127
0.10000000000000142,548,0,89,58
0.10000000000000142,548,1,89,127
0.09999999999999787,548,2,89,60
0.09999999999999787,548,3,89,127
0.10000000000000142,548,4,89,76
0.09999999999999787,548,5,89,127
0.09999999999999787,548,6,89,60
0.10000000000000142,548,7,89,115
0.09999999999999432,548,8,89,69
0.09999999999999432,548,9,89,115
0.10000000000000142,548,10,89,1
0.10000000000000142,548,11,89,86
0.10000000000000142,548,12,89,125
0.10000000000000142,548,13,89,65
0.10000000000000142,548,14,89,113
0.09999999999999432,548,15,89,69
0.10000000000000142,549,0,89,127
0.09999999999999432,549,1,89,102
0.10000000000000142,549,2,89,127
0.10000000000000142,549,3,89,74
0.10000000000000142,549,4,89,119
0.10000000000000142,549,5,89,6
0.10000000000000142,549,6,89,104
0.10000000000000142,549,7,89,127
0.10000000000000142,549,8,89,5
0.10000000000000142,549,9,89,123
0.10000000000000142,549,10,89,127
0.10000000000000142,549,11,89,121
0.10000000000000142,549,12,89,127
0.10000000000000142,549,13,89,97
0.10000000000000142,549,14,89,5
0.09999999999999432,549,15,89,2
0.10000000000000142,550,0,89,127
0.10000000000000142,550,1,89,5
0.10000000000000142,550,2,89,127
0.09999999999999432,550,3,89,127
0.09999999999999432,550,4,89,5
0.10000000000000142,550,5,89,127
0.09999999999999432,550,6,89,127
0.10000000000000142,550,7,89,117
0.10000000000000142,550,8,89,127
0.10000000000000142,550,9,89,92
0.10000000000000142,550,10,89,5
0.10000000000000142,550,11,89,119
0.10000000000000142,550,12,89,5
0.10000000000000142,550,13,89,117
0.10000000000000142,550,14,89,127
0.10000000000000142,550,15,89,5
0.10000000000000142,551,0,89,127
0.10000000000000142,551,1,89,127
0.10000000000000142,551,2,89,125
0.09999999999999432,551,3,89,127
0.09999999999999432,551,4,89,106
0.09999999999999432,551,5,89,5
0.10000000000000142,551,6,89,123
0.10000000000000142,551,7,89,5
0.09999999999999432,551,8,89,112
0.10000000000000142,551,9,89,127
0.10000000000000142,551,10,89,2
0.10000000000000142,551,11,89,113
0.10000000000000142,551,12,89,123
0.10000000000000142,551,13,89,112
0.10000000000000142,551,14,89,127
0.10000000000000142,551,15,89,103
0.10000000000000142,552,0,89,5
0.10000000000000142,552,1,89,2
0.10000000000000142,552,2,89,127
0.10000000000000142,552,3,89,6
0.10000000000000142,552,4,89,127
0.10000000000000142,552,5,89,127
0.10000000000000142,552,6,89,5
0.10000000000000142,552,7,89,127
0.10000000000000142,552,8,89,124
0.10000000000000142,552,9,89,123
0.10000000000000142,552,10,89,127
0.10000000000000142,552,11,89,101
0.09999999999999432,552,12,89,5
0.10000000000000142,552,13,89,110
0.10000000000000142,552,14,89,5
0.10000000000000142,552,15,89,119
0.10000000000000142,553,0,89,127
0.10000000000000142,553,1,89,5
0.10000000000000142,553,2,89,124
0.10000000000000142,553,3,89,127
0.10000000000000142,553,4,89,120
0.10000000000000142,553,5,89,127
0.10000000000000142,553,6,89,100
0.10000000000000142,553,7,89,5
0.10000000000000142,553,8,89,1
0.10000000000000142,553,9,89,127
0.10000000000000142,553,10,89,5
0.10000000000000142,553,11,89,114
0.09999999999999432,553,12,89,127
0.10000000000000142,553,13,89,5
0.09999999999999432,553,14,89,119
0.10000000000000142,553,15,89,124
0.09999999999999432,554,0,89,114
0.10000000000000142,554,1,89,127
0.10000000000000142,554,2,89,99
0.10000000000000142,554,3,89,5
0.10000000000000142,554,4,89,126
0.10000000000000142,554,5,89,5
0.10000000000000142,554,6,89,127
0.10000000000000142,554,7,89,127
0.10000000000000142,554,8,89,5
0.10000000000000142,554,9,89,127
0.10000000000000142,554,10,89,127
0.10000000000000142,554,11,89,127
0.10000000000000142,554,12,89,127
0.10000000000000142,554,13,89,45
0.10000000000000142,554,14,89,100
0.10000000000000142,554,15,89,127
0.09999999999999432,555,0,89,76
0.10000000000000142,555,1,89,2
0.10000000000000142,555,2,89,2
0.09999999999999432,555,3,89,1
0.10000000000000142,555,4,89,127
0.10000000000000142,555,5,89,45
0.10000000000000142,555,6,89,65
0.10000000000000142,555,7,89,127
0.10000000000000142,555,8,89,1
0.10000000000000142,555,9,89,68
0.09999999999999432,555,10,89,2
0.09999999999999432,555,11,89,2
0.10000000000000142,555,12,89,1
0.10000000000000142,555,13,89,127
0.09999999999999432,555,14,89,53
0.10000000000000853,555,15,89,73
0.10000000000000853,556,0,89,127
0.09999999999999432,556,1,89,2
0.10000000000000853,556,2,89,74
0.10000000000000853,556,3,89,2
0.09999999999999432,556,4,89,2
0.09999999999999432,556,5,89,127
0.09999999999999432,556,6,89,37
0.10000000000000853,556,7,89,77
0.10000000000000853,556,8,89,1
0.10000000000000853,556,9,89,127
0.10000000000000853,556,10,89,3
0.10000000000000853,556,11,89,73
0.09999999999999432,556,12,89,3
0.10000000000000853,556,13,89,2
0.09999999999999432,556,14,89,127
0.09999999999999432,556,15,89,48
0.10000000000000853,557,0,89,79
0.10000000000000853,557,1,89,127
0.10000000000000853,557,2,89,17
0.09999999999999432,557,3,89,2
0.10000000000000853,557,4,89,76
0.09999999999999432,557,5,89,5
0.09999999999999432,557,6,89,2
0.10000000000000853,557,7,89,4
0.09999999999999432,557,8,89,127
0.10000000000000853,557,9,89,54
0.10000000000000853,557,10,89,78
0.09999999999999432,557,11,89,5
0.10000000000000853,557,12,89,126
0.09999999999999432,557,13,89,17
0.09999999999999432,557,14,89,5
0.10000000000000853,557,15,89,67
0.10000000000000853,558,0,89,5
0.09999999999999432,558,1,89,1
0.09999999999999432,558,2,89,3
0.09999999999999432,558,3,89,127
0.10000000000000853,558,4,89,53
0.10000000000000853,558,5,89,79
0.09999999999999432,558,6,89,5
0.10000000000000853,558,7,89,127
0.09999999999999432,558,8,89,16
0.10000000000000853,558,9,89,2
0.10000000000000853,558,10,89,70
0.09999999999999432,558,11,89,5
0.09999999999999432,558,12,89,2
0.10000000000000853,558,13,89,4
0.09999999999999432,558,14,89,127
0.10000000000000853,558,15,89,48
0.10000000000000853,559,0,89,72
0.09999999999999432,559,1,89,5
0.10000000000000853,559,2,89,115
0.09999999999999432,559,3,89,17
0.09999999999999432,559,4,89,5
0.10000000000000853,559,5,89,68
0.10000000000000853,559,6,89,5
0.09999999999999432,559,7,89,2
0.10000000000000853,559,8,89,4
0.09999999999999432,559,9,89,127
0.10000000000000853,559,10,89,49
0.10000000000000853,559,11,89,67
0.09999999999999432,559,12,89,127
0.10000000000000853,559,13,89,67
0.09999999999999432,559,14,89,118
0.09999999999999432,559,15,89,72
0.10000000000000853,560,0,89,6
0.09999999999999432,560,1,89,17
0.09999999999999432,560,2,89,107
0.10000000000000853,560,3,89,16
0.10000000000000853,560,4,89,60
0.09999999999999432,560,5,89,4
0.09999999999999432,560,6,89,5
0.10000000000000853,560,7,89,3
0.10000000000000853,560,8,89,122
0.09999999999999432,560,9,89,5
0.10000000000000853,560,10,89,3
0.09999999999999432,560,11,89,56
0.10000000000000853,560,12,89,3
0.09999999999999432,560,13,89,117
0.09999999999999432,560,14,89,76
0.10000000000000853,560,15,89,5
0.09999999999999432,561,0,89,21
0.10000000000000853,561,1,89,100
0.10000000000000853,561,2,89,23
0.10000000000000853,561,3,89,58
0.10000000000000853,561,4,89,3
0.09999999999999432,561,5,89,5
0.09999999999999432,561,6,89,3
0.10000000000000853,561,7,89,106
0.09999999999999432,561,8,89,3
0.10000000000000853,561,9,89,1
0.09999999999999432,561,10,89,55
0.09999999999999432,561,11,89,3
0.09999999999999432,561,12,89,108
0.09999999999999432,561,13,89,75
0.10000000000000853,561,14,89,5
0.09999999999999432,561,15,89,24
0.09999999999999432,562,0,89,108
0.09999999999999432,562,1,89,29
0.09999999999999432,562,2,89,56
0.10000000000000853,562,3,89,4
0.09999999999999432,562,4,89,5
0.10000000000000853,562,5,89,3
0.10000000000000853,562,6,89,117
0.09999999999999432,562,7,89,4
0.10000000000000853,562,8,89,2
0.09999999999999432,562,9,89,56
0.10000000000000853,562,10,89,3
0.09999999999999432,562,11,89,108
0.09999999999999432,562,12,89,73
0.10000000000000853,562,13,89,114
0.09999999999999432,562,14,89,127
0.10000000000000853,562,15,89,127
0.10000000000000853,563,0,89,101
0.10000000000000853,563,1,89,83
0.09999999999999432,563,2,89,88
0.09999999999999432,563,3,89,127
0.09999999999999432,563,4,89,95
0.09999999999999432,563,5,89,101
0.09999999999999432,563,6,89,3
0.09999999999999432,563,7,89,112
0.09999999999999432,563,8,89,127
0.09999999999999432,563,9,89,1
0.09999999999999432,563,10,89,97
0.09999999999999432,563,11,89,85
0.10000000000000853,563,12,89,81
0.09999999999999432,563,13,89,126
0.09999999999999432,563,14,89,95
0.10000000000000853,563,15,89,79
0.09999999999999432,564,0,89,3
0.09999999999999432,564,1,89,111
0.09999999999999432,564,2,89,127
0.09999999999999432,564,3,89,115
0.10000000000000853,564,4,89,83
0.10000000000000853,564,5,89,76
0.09999999999999432,564,6,89,127
0.09999999999999432,564,7,89,93
0.09999999999999432,564,8,89,105
0.09999999999999432,564,9,89,2
0.09999999999999432,564,10,89,120
0.10000000000000853,564,11,89,127
0.09999999999999432,564,12,89,2
0.09999999999999432,564,13,89,126
0.10000000000000853,564,14,89,127
0.10000000000000853,564,15,89,95
0.09999999999999432,565,0,89,127
0.09999999999999432,565,1,89,99
0.09999999999999432,565,2,89,127
0.09999999999999432,565,3,89,28
0.09999999999999432,565,4,89,2
0.09999999999999432,565,5,89,127
0.09999999999999432,565,6,89,127
0.10000000000000853,565,7,89,127
0.09999999999999432,565,8,89,58
0.09999999999999432,565,9,89,29
0.09999999999999432,565,10,89,2
0.09999999999999432,565,11,89,127
0.09999999999999432,565,12,89,6
0.09999999999999432,565,13,89,25
0.10000000000000853,565,14,89,2
0.10000000000000853,565,15,89,127
0.09999999999999432,566,0,89,127
0.09999999999999432,566,1,89,117
0.10000000000000853,566,2,89,52
0.09999999999999432,566,3,89,29
0.10000000000000853,566,4,89,2
0.09999999999999432,566,5,89,127
0.10000000000000853,566,6,89,8
0.09999999999999432,566,7,89,27
0.10000000000000853,566,8,89,2
0.09999999999999432,566,9,89,127
0.09999999999999432,566,10,89,127
0.10000000000000853,566,11,89,127
0.10000000000000853,566,12,89,71
0.10000000000000853,566,13,89,30
0.09999999999999432,566,14,89,3
0.09999999999999432,566,15,89,127
0.09999999999999432,567,0,89,9
0.10000000000002274,567,1,89,8
0.09999999999999432,567,2,89,2
0.09999999999999432,567,3,89,127
0.10000000000002274,567,4,89,127
0.09999999999999432,567,5,89,123
0.09999999999999432,567,6,89,55
0.09999999999999432,567,7,89,30
0.09999999999999432,567,8,89,7
0.09999999999999432,567,9,89,127
0.09999999999999432,567,10,89,127
0.09999999999999432,567,11,89,127
0.09999999999999432,567,12,89,6
0.09999999999999432,567,13,89,127
0.10000000000002274,567,14,89,107
0.09999999999999432,567,15,89,127
0.09999999999999432,568,0,89,127
0.10000000000002274,568,1,89,117
0.09999999999999432,568,2,89,4
0.09999999999999432,568,3,89,127
0.09999999999999432,568,4,89,10
0.09999999999999432,568,5,89,122
0.09999999999999432,568,6,89,127
0.09999999999999432,568,7,89,1
0.09999999999999432,568,8,89,127
0.09999999999999432,568,9,89,113
0.10000000000002274,568,10,89,110
0.09999999999999432,568,11,89,127
0.09999999999999432,568,12,89,109
0.09999999999999432,568,13,89,4
0.09999999999999432,568,14,89,127
0.09999999999999432,568,15,89,11
0.09999999999999432,569,0,89,127
0.09999999999999432,569,1,89,127
0.09999999999999432,569,2,89,4
0.09999999999999432,569,3,89,127
0.09999999999999432,569,4,89,127
0.09999999999999432,569,5,89,127
0.09999999999999432,569,6,89,127
0.09999999999999432,569,7,89,106
0.09999999999999432,569,8,89,4
0.09999999999999432,569,9,89,127
0.09999999999999432,569,10,89,9
0.09999999999999432,569,11,89,124
0.09999999999999432,569,12,89,127
0.09999999999999432,569,13,89,4
0.09999999999999432,569,14,89,127
0.09999999999999432,569,15,89,127
0.09999999999999432,570,0,89,127
0.10000000000002274,570,1,89,127
0.09999999999999432,570,2,89,113
0.09999999999999432,570,3,89,4
0.09999999999999432,570,4,89,127
0.09999999999999432,570,5,89,127
0.09999999999999432,570,6,89,127
0.09999999999999432,570,7,89,7
0.09999999999999432,570,8,89,127
0.09999999999999432,570,9,89,96
0.10000000000002274,570,10,89,116
0.09999999999999432,570,11,89,127
0.09999999999999432,570,12,89,113
0.09999999999999432,570,13,89,4
0.09999999999999432,570,14,89,127
0.09999999999999432,570,15,89,8
0.09999999999999432,571,0,89,127
0.09999999999999432,571,1,89,127
0.10000000000002274,571,2,89,4
0.09999999999999432,571,3,89,127
0.09999999999999432,571,4,89,126
0.10000000000002274,571,5,89,127
0.09999999999999432,571,6,89,127
0.09999999999999432,571,7,89,104
0.09999999999999432,571,8,89,4
0.09999999999999432,571,9,89,97
0.09999999999999432,571,10,89,4
0.09999999999999432,571,11,89,93
0.09999999999999432,571,12,89,111
0.09999999999999432,571,13,89,3
0.09999999999999432,571,14,89,90
0.10000000000002274,571,15,89,57
0.09999999999999432,572,0,89,77
0.10000000000002274,572,1,89,127
0.09999999999999432,572,2,89,75
0.09999999999999432,572,3,89,3
0.09999999999999432,572,4,89,120
0.10000000000002274,572,5,89,5
0.09999999999999432,572,6,89,100
0.09999999999999432,572,7,89,109
0.09999999999999432,572,8,89,3
0.09999999999999432,572,9,89,88
0.09999999999999432,572,10,89,101
0.09999999999999432,572,11,89,87
0.09999999999999432,572,12,89,127
0.09999999999999432,572,13,89,88
0.09999999999999432,572,14,89,117
0.09999999999999432,572,15,89,96
0.10000000000002274,573,0,89,116
0.09999999999999432,573,1,89,6
0.10000000000002274,573,2,89,89
0.09999999999999432,573,3,89,127
0.09999999999999432,573,4,89,88
0.10000000000002274,573,5,89,3
0.09999999999999432,573,6,89,117
0.09999999999999432,573,7,89,4
0.09999999999999432,573,8,89,91
0.09999999999999432,573,9,89,119
0.09999999999999432,573,10,89,5
0.09999999999999432,573,11,89,82
0.10000000000002274,573,12,89,127
0.09999999999999432,573,13,89,92
0.09999999999999432,573,14,89,2
0.09999999999999432,573,15,89,116
0.10000000000002274,574,0,89,4
0.09999999999999432,574,1,89,90
0.09999999999999432,574,2,89,127
0.09999999999999432,574,3,89,5
0.09999999999999432,574,4,89,81
0.09999999999999432,574,5,89,127
0.09999999999999432,574,6,89,92
0.09999999999999432,574,7,89,2
0.09999999999999432,574,8,89,117
0.09999999999999432,574,9,89,4
0.09999999999999432,574,10,89,93
0.10000000000002274,574,11,89,121
0.09999999999999432,574,12,89,3
0.09999999999999432,574,13,89,84
0.09999999999999432,574,14,89,127
0.09999999999999432,574,15,89,98
0.10000000000002274,575,0,89,3
0.09999999999999432,575,1,89,102
0.09999999999999432,575,2,89,4
0.09999999999999432,575,3,89,85
0.09999999999999432,575,4,89,123
0.09999999999999432,575,5,89,5
0.09999999999999432,575,6,89,80
0.10000000000002274,575,7,89,127
0.09999999999999432,575,8,89,94
0.10000000000002274,575,9,89,3
0.09999999999999432,575,10,89,110
0.10000000000002274,575,11,89,4
0.09999999999999432,575,12,89,86
0.09999999999999432,575,13,89,127
0.09999999999999432,575,14,89,6
0.09999999999999432,575,15,89,82
0.09999999999999432,576,0,89,127
0.10000000000002274,576,1,89,87
0.09999999999999432,576,2,89,2
0.09999999999999432,576,3,89,113
0.10000000000002274,576,4,89,4
0.09999999999999432,576,5,89,102
0.09999999999999432,576,6,89,120
0.09999999999999432,576,7,89,5
0.09999999999999432,576,8,89,78
0.09999999999999432,576,9,89,124
0.09999999999999432,576,10,89,94
0.10000000000002274,576,11,89,2
0.09999999999999432,576,12,89,127
0.09999999999999432,576,13,89,4
0.09999999999999432,576,14,89,96
0.09999999999999432,576,15,89,127
0.09999999999999432,577,0,89,5
0.09999999999999432,577,1,89,84
0.09999999999999432,577,2,89,127
0.09999999999999432,577,3,89,87
0.10000000000002274,577,4,89,109
0.10000000000002274,577,5,89,103
0.09999999999999432,577,6,89,111
0.09999999999999432,577,7,89,101
0.09999999999999432,577,8,89,67
0.09999999999999432,577,9,89,91
0.10000000000002274,577,10,89,127
0.10000000000002274,577,11,89,87
0.09999999999999432,577,12,89,5
0.09999999999999432,577,13,89,114
0.10000000000002274,577,14,89,6
0.09999999999999432,577,15,89,82
0.10000000000002274,578,0,89,106
0.09999999999999432,578,1,89,4
0.10000000000002274,578,2,89,97
0.09999999999999432,578,3,89,60
0.09999999999999432,578,4,89,78
0.09999999999999432,578,5,89,127
0.09999999999999432,578,6,89,86
0.09999999999999432,578,7,89,6
0.09999999999999432,578,8,89,110
0.09999999999999432,578,9,89,6
0.09999999999999432,578,10,89,122
0.09999999999999432,578,11,89,125
0.10000000000002274,578,12,89,6
0.09999999999999432,578,13,89,75
0.09999999999999432,578,14,89,73
0.09999999999999432,578,15,89,99
0.09999999999999432,579,0,89,127
0.09999999999999432,579,1,89,82
0.09999999999999432,579,2,89,5
0.10000000000002274,579,3,89,98
0.09999999999999432,579,4,89,6
0.10000000000002274,579,5,89,113
0.09999999999999432,579,6,89,127
0.09999999999999432,579,7,89,7
0.09999999999999432,579,8,89,125
0.10000000000002274,579,9,89,90
0.09999999999999432,579,10,89,115
0.09999999999999432,579,11,89,127
0.10000000000002274,579,12,89,84
0.09999999999999432,579,13,89,7
0.09999999999999432,579,14,89,91
0.09999999999999432,579,15,89,107
0.10000000000002274,580,0,89,116
0.09999999999999432,580,1,89,7
0.10000000000002274,580,2,89,110
0.09999999999999432,580,3,89,86
0.09999999999999432,580,4,89,104
0.09999999999999432,580,5,89,127
0.10000000000002274,580,6,89,84
0.09999999999999432,580,7,89,7
0.09999999999999432,580,8,89,116
0.09999999999999432,580,9,89,6
0.09999999999999432,580,10,89,118
0.09999999999999432,580,11,89,127
0.09999999999999432,580,12,89,7
0.09999999999999432,580,13,89,114
0.09999999999999432,580,14,89,85
0.09999999999999432,580,15,89,108
0.09999999999999432,581,0,89,127
0.09999999999999432,581,1,89,89
0.09999999999999432,581,2,89,7
0.10000000000002274,581,3,89,111
0.09999999999999432,581,4,89,10
0.10000000000002274,581,5,89,123
0.09999999999999432,581,6,89,127
0.09999999999999432,581,7,89,7
0.09999999999999432,581,8,89,123
0.10000000000002274,581,9,89,89
0.09999999999999432,581,10,89,112
0.09999999999999432,581,11,89,127
0.09999999999999432,581,12,89,94
0.09999999999999432,581,13,89,7
0.10000000000002274,581,14,89,122
0.09999999999999432,581,15,89,5
0.09999999999999432,582,0,89,112
0.10000000000002274,582,1,89,127
0.09999999999999432,582,2,89,8
0.10000000000002274,582,3,89,123
0.09999999999999432,582,4,89,127
0.09999999999999432,582,5,89,114
0.09999999999999432,582,6,89,127
0.10000000000002274,582,7,89,102
0.09999999999999432,582,8,89,11
0.09999999999999432,582,9,89,18
0.10000000000002274,582,10,89,36
0.10000000000002274,582,11,89,25
0.09999999999999432,582,12,89,33
0.09999999999999432,582,13,89,38
0.10000000000002274,582,14,89,32
0.09999999999999432,582,15,89,37
0.10000000000002274,583,0,89,39
0.10000000000002274,583,1,89,36
0.09999999999999998,583,2,65,24
0.05681818181818177,583,3,65,32
0.09999999999999987,583,4,65,17
0.06590909090909092,583,5,65,20
0.10000000000000009,583,6,65,35
0.10000000000000009,583,7,65,14
0.09999999999999964,583,8,65,21
0.0681818181818179,583,9,65,26
0.10000000000000009,583,10,65,13
0.045454545454545414,583,11,65,11
0.10000000000000009,583,12,65,3
0.10000000000000009,583,13,65,11
0.10000000000000009,583,14,65,42
0.10000000000000009,583,15,65,16
0.10000000000000053,584,0,65,6
0.004545454545454852,584,1,65,16
0.04772727272727195,584,2,65,47
0.10000000000000053,584,3,65,6
0.056818181818182545,584,4,65,21
0.10000000000000053,584,5,65,14
0.09999999999999964,584,6,65,8
0.06818181818181834,584,7,65,6
0.09999999999999964,584,8,65,7
0.09999999999999964,584,9,65,20
0.05909090909090864,584,10,65,36
0.09999999999999964,584,11,65,10
0.06818181818181746,584,12,65,11
0.09999999999999964,584,13,65,3
0.09999999999999964,584,14,65,30
0.09999999999999964,584,15,65,24
0.09999999999999964,585,0,65,12
0.09999999999999964,585,1,65,9
0.09999999999999964,585,2,65,35
0.09999999999999964,585,3,65,3
0.09999999999999964,585,4,65,31
0.09999999999999964,585,5,65,14
0.04545454545454497,585,6,65,19
0.027272727272727337,585,7,65,12
0.09999999999999964,585,8,65,11
0.09999999999999964,585,9,65,8
0.09999999999999964,585,10,65,31
0.09999999999999964,585,11,65,5
0.09999999999999964,585,12,65,16
0.06818181818181657,585,13,65,17
0.09999999999999964,585,14,65,4
0.09999999999999964,585,15,65,2
0.09999999999999964,586,0,65,51
0.10000000000000142,586,1,65,12
0.10000000000000142,586,2,65,11
0.05681818181818343,586,3,65,16
0.09999999999999964,586,4,65,10
0.09999999999999964,586,5,65,20
0.06590909090909136,586,6,65,31
0.09999999999999964,586,7,65,13
0.06818181818181834,586,8,65,14
0.09999999999999964,586,9,65,4
0.09999999999999964,586,10,65,1
0.09999999999999964,586,11,65,38
0.06818181818181834,586,12,65,50
0.09999999999999964,586,13,65,18
0.10000000000000142,586,14,65,16
0.09999999999999964,586,15,65,12
0.004545454545453964,587,0,65,6
0.09999999999999964,587,1,65,7
0.10000000000000142,587,2,65,1
0.09999999999999787,587,3,65,31
0.10000000000000142,587,4,65,14
0.06818181818182012,587,5,65,15
0.10000000000000142,587,6,65,1
0.09999999999999787,587,7,65,17
0.05909090909090864,587,8,65,35
0.10000000000000142,587,9,65,14
0.10000000000000142,587,10,65,10
0.10000000000000142,587,11,65,9
0.10000000000000142,587,12,65,31
0.10000000000000142,587,13,65,15
0.09999999999999787,587,14,65,5
0.10000000000000142,587,15,65,3
0.10000000000000142,588,0,65,36
0.10000000000000142,588,1,65,15
0.05681818181818343,588,2,65,17
0.10000000000000142,588,3,65,10
0.10000000000000142,588,4,65,1
0.10000000000000142,588,5,65,16
0.09999999999999787,588,6,65,15
0.10000000000000142,588,7,65,10
0.10000000000000142,588,8,65,1
0.10000000000000142,588,9,65,2
0.09999999999999787,588,10,65,14
0.10000000000000142,588,11,65,9
0.10000000000000142,588,12,65,8
0.10000000000000142,588,13,65,10
0.05681818181818343,588,14,65,13
0.09999999999999787,588,15,65,11
0.10000000000000142,589,0,65,14
0.06818181818182012,589,1,65,14
0.10000000000000142,589,2,65,10
0.09999999999999787,589,3,65,2
0.10000000000000142,589,4,65,9
0.09999999999999787,589,5,65,8
0.10000000000000142,589,6,65,7
0.06818181818182012,589,7,65,8
0.09999999999999787,589,8,65,4
0.06818181818181657,589,9,65,3
0.10000000000000142,589,10,65,4
0.09999999999999787,589,11,65,11
0.045454545454543194,589,12,65,22
0.09999999999999787,589,13,65,15
0.10000000000000142,589,14,65,15
0.10000000000000142,589,15,65,9
0.10000000000000142,590,0,65,14
0.10000000000000142,590,1,65,24
0.06818181818182012,590,2,65,29
0.10000000000000142,590,3,65,23
0.06818181818182012,590,4,65,19
0.09999999999999787,590,5,65,17
0.06818181818181657,590,6,65,23
0.10000000000000142,590,7,65,23
0.10000000000000142,590,8,65,13
0.10000000000000142,590,9,65,8
0.09999999999999787,590,10,65,3
0.10000000000000142,590,11,65,2
0.02500000000000213,590,12,65,3
0.045454545454546746,590,13,65,10
0.09999999999999787,590,14,65,8
0.10000000000000142,590,15,65,6
0.10000000000000142,591,0,65,8
0.09999999999999787,591,1,65,15
0.10000000000000142,591,2,65,19
0.09999999999999787,591,3,65,4
0.10000000000000142,591,4,65,5
0.09999999999999787,591,5,65,4
0.045454545454543194,591,6,65,6
0.10000000000000142,591,7,65,7
0.10000000000000142,591,8,65,14
0.10000000000000142,591,9,65,8
0.10000000000000142,591,10,65,6
0.10000000000000142,591,11,65,7
0.05909090909090864,591,12,65,11
0.09999999999999787,591,13,65,8
0.06818181818181657,591,14,65,10
0.10000000000000142,591,15,65,17
0.09999999999999787,592,0,65,9
0.09999999999999787,592,1,65,14
0.10000000000000142,592,2,65,22
0.10000000000000142,592,3,65,8
0.10000000000000142,592,4,65,4
0.06818181818182012,592,5,65,4
0.09999999999999787,592,6,65,10
0.10000000000000142,592,7,65,10
0.06818181818182012,592,8,65,11
0.10000000000000142,592,9,65,9
0.10000000000000142,592,10,65,8
0.10000000000000142,592,11,65,5
0.09999999999999432,592,12,65,5
0.04772727272727195,592,13,65,12
0.10000000000000142,592,14,65,14
0.09999999999999432,592,15,65,15
0.10000000000000142,593,0,65,10
0.056818181818186986,593,1,65,8
0.09999999999999432,593,2,65,10
0.06818181818181301,593,3,65,11
0.10000000000000142,593,4,65,17
0.10000000000000142,593,5,65,21
0.10000000000000142,593,6,65,8
0.10000000000000142,593,7,65,5
0.10000000000000142,593,8,65,9
0.09999999999999432,593,9,65,13
0.10000000000000142,593,10,65,20
0.09999999999999432,593,11,65,29
0.10000000000000142,593,12,65,21
0.09999999999999432,593,13,65,25
0.10000000000000142,593,14,65,39
0.10000000000000142,593,15,65,12
0.10000000000000142,594,0,65,16
0.10000000000000142,594,1,65,18
0.10000000000000142,594,2,65,14
0.10000000000000142,594,3,65,18
0.10000000000000142,594,4,65,18
0.10000000000000142,594,5,65,23
0.10000000000000142,594,6,65,22
0.10000000000000142,594,7,65,22
0.09999999999999432,594,8,65,18
0.10000000000000142,594,9,65,24
0.09999999999999432,594,10,65,21
0.09999999999999432,594,11,65,18
0.10000000000000142,594,12,65,24
0.09999999999999432,594,13,65,2
0.09999999999999432,594,14,65,10
0.10000000000000853,594,15,65,13
0.09999999999999432,595,0,65,14
0.10000000000000853,595,1,65,11
0.09999999999999432,595,2,65,17
0.09999999999999432,595,3,65,17
0.10000000000000853,595,4,65,17
0.10000000000000853,595,5,65,15
0.10000000000000853,595,6,65,18
0.09999999999999432,595,7,65,16
0.10000000000000853,595,8,65,15
0.10000000000000853,595,9,65,9
0.10000000000000853,595,10,65,13
0.09999999999999432,595,11,65,8
0.10000000000002274,595,12,65,11
0.09999999999999432,595,13,65,1
0.09999999999999432,595,14,65,7
0.09999999999999432,595,15,65,15
0.09999999999999432,596,0,65,11
0.09999999999999432,596,1,65,8
0.09999999999999432,596,2,65,14
0.09999999999999432,596,3,65,1
0.09999999999999432,596,4,65,7
0.09999999999999432,596,5,65,16
0.10000000000002274,596,6,65,11
0.09999999999999432,596,7,65,2
0.09999999999999432,596,8,65,8
0.09999999999999432,596,9,65,12
0.10000000000002274,596,10,65,1
0.09999999999999432,596,11,65,7
0.09999999999999432,596,12,65,15
0.09999999999999432,596,13,65,12
0.09999999999999432,596,14,65,8
0.09999999999999432,596,15,65,15
0.09999999999999432,597,0,65,1
0.09999999999999432,597,1,65,6
0.10000000000002274,597,2,65,10
0.09999999999999432,597,3,65,1
0.09999999999999432,597,4,65,8
0.09999999999999432,597,5,65,11
0.09999999999999432,597,6,65,1
0.09999999999999432,597,7,65,3
0.10000000000002274,597,8,65,7
0.10000000000002274,597,9,65,8
0.09999999999999432,597,10,65,5
0.09999999999999432,597,11,65,10
0.09999999999999432,597,12,65,1
0.10000000000002274,597,13,65,4
0.09999999999999432,597,14,65,7
0.09999999999999432,597,15,65,10
0.09999999999999432,598,0,65,10
0.10000000000002274,598,1,65,4
0.09999999999999432,598,2,65,5
0.09999999999999432,598,3,65,8
0.09999999999999432,598,4,65,15
0.09999999999999432,598,5,65,3
0.10000000000002274,598,6,65,13
0.09999999999999432,598,7,65,10
0.10000000000002274,598,8,65,14
0.10000000000002274,598,9,65,10
0.09999999999999432,598,10,65,13
0.09999999999999432,598,11,65,12
0.09999999999999432,598,12,65,11
0.09999999999999432,598,13,65,10
0.09999999999999432,598,14,66,28
0.09999999999999432,598,15,66,24
0.09999999999999432,599,0,66,27
0.09999999999999432,599,1,66,21
0.09999999999999432,599,2,66,28
0.09999999999999432,599,3,66,16
0.09999999999999432,599,4,66,33
0.09999999999999432,599,5,66,24
0.09999999999999432,599,6,66,25
0.09999999999999432,599,7,66,33
0.09999999999999432,599,8,66,26
0.09999999999999432,599,9,66,37
0.09999999999999432,599,10,66,36
0.09999999999999432,599,11,66,19
0.09999999999999432,599,12,66,24
0.09999999999999432,599,13,66,20
0.09999999999999432,599,14,66,21
0.09999999999999432,599,15,66,8
0.10000000000000853,600,0,66,9
0.09999999999999432,600,1,66,17
0.10000000000000853,600,2,66,12
0.09999999999999432,600,3,66,11
0.09999999999999432,600,4,66,14
0.09999999999999432,600,5,66,21
0.09999999999999432,600,6,66,6
0.10000000000002274,600,7,66,6
0.09999999999999432,600,8,66,6
0.09999999999999432,600,9,66,5
0.09999999999999432,600,10,66,10
0.09999999999999432,600,11,66,7
0.09999999999999432,600,12,66,6
0.09999999999999432,600,13,66,6
0.10000000000002274,600,14,66,4
0.10000000000002274,600,15,66,3
0.09999999999999432,601,0,66,13
0.09999999999999432,601,1,66,11
0.09999999999999432,601,2,66,15
0.09999999999999432,601,3,66,12
0.10000000000002274,601,4,66,6
0.09999999999999432,601,5,66,39
0.09999999999999432,601,6,66,27
0.09999999999999432,601,7,66,47
0.09999999999999432,601,8,66,8
0.10000000000002274,601,9,66,31
0.09999999999999432,601,10,66,8
0.09999999999999432,601,11,66,33
0.10000000000002274,601,12,66,24
0.09999999999999432,601,13,66,9
0.09999999999999432,601,14,66,23
0.09999999999999432,601,15,66,26
0.09999999999999432,602,0,66,13
0.09999999999999432,602,1,66,33
0.09999999999999432,602,2,66,16
0.09999999999999432,602,3,66,33
0.09999999999999432,602,4,66,18
0.10000000000002274,602,5,66,21
0.09999999999999432,602,6,66,29
0.10000000000002274,602,7,66,25
0.09999999999999432,602,8,66,12
0.09999999999999432,602,9,66,15
0.09999999999999432,602,10,66,29
0.09999999999999432,602,11,66,14
0.09999999999999432,602,12,66,18
0.09999999999999432,602,13,66,32
0.10000000000002274,602,14,66,49
0.09999999999999432,602,15,66,8
0.09999999999999432,603,0,66,11
0.09999999999999432,603,1,66,11
0.09999999999999432,603,2,66,15
0.10000000000002274,603,3,66,9
0.09999999999999432,603,4,66,7
0.09999999999999432,603,5,66,5
0.10000000000002274,603,6,66,8
0.09999999999999432,603,7,66,5
0.09999999999999432,603,8,66,8
0.09999999999999432,603,9,66,5
0.09999999999999432,603,10,66,7
0.09999999999999432,603,11,66,14
0.09999999999999432,603,12,66,9
0.09999999999999432,603,13,66,14
0.10000000000002274,603,14,66,13
0.09999999999999432,603,15,66,12
0.09999999999999432,604,0,66,11
0.09999999999999432,604,1,66,16
0.09999999999999432,604,2,66,9
0.10000000000002274,604,3,66,8
0.09999999999999432,604,4,66,13
0.10000000000000009,604,5,63,25
0.10000000000000009,604,6,63,27
0.09999999999999964,604,7,63,27
0.09999999999999964,604,8,63,23
0.10000000000000053,604,9,63,27
0.09999999999999964,604,10,63,26
0.09999999999999964,604,11,63,26
0.09999999999999964,604,12,63,36
0.10000000000000142,604,13,63,27
0.09999999999999964,604,14,63,26
0.09999999999999964,604,15,63,22
0.09999999999999964,605,0,63,27
0.09999999999999787,605,1,63,25
0.10000000000000142,605,2,63,27
0.09999999999999787,605,3,63,25
0.10000000000000142,605,4,63,29
0.10000000000000142,605,5,63,3
0.09999999999999787,605,6,63,1
0.09999999999999787,605,7,63,24
0.09999999999999787,605,8,63,1
0.09999999999999787,605,9,63,2
0.10000000000000142,605,10,63,1
0.10000000000000142,605,11,63,40
0.10000000000000142,605,12,63,1
0.10000000000000142,605,13,63,2
0.10000000000000142,605,14,63,1
0.09999999999999787,605,15,63,41
0.09999999999999787,606,0,63,1
0.10000000000000142,606,1,63,1
0.10000000000000142,606,2,63,1
0.09999999999999787,606,3,63,40
0.10000000000000142,606,4,63,1
0.10000000000000142,606,5,63,2
0.09999999999999787,606,6,63,1
0.10000000000000142,606,7,63,43
0.09999999999999787,606,8,63,1
0.09999999999999787,606,9,63,2
0.09999999999999787,606,10,63,1
0.10000000000000142,606,11,63,39
0.10000000000000142,606,12,63,1
0.10000000000000142,606,13,63,3
0.10000000000000142,606,14,63,1
0.09999999999999787,606,15,63,41
0.10000000000000142,607,0,62,34
0.09999999999999787,607,1,62,42
0.10000000000000142,607,2,62,48
0.09999999999999787,607,3,62,21
0.10000000000000142,607,4,62,47
0.09999999999999787,607,5,62,33
0.10000000000000142,607,6,62,36
0.09999999999999787,607,7,62,22
0.10000000000000142,607,8,62,18
0.10000000000000142,607,9,62,12
0.10000000000000142,607,10,62,25
0.10000000000000142,607,11,62,7
0.09999999999999432,607,12,62,14
0.10000000000000142,607,13,62,13
0.10000000000000142,607,14,62,4
0.10000000000000142,607,15,62,18
0.09999999999999432,608,0,62,12
0.10000000000000853,608,1,62,15
0.09999999999999432,608,2,62,12
0.09999999999999432,608,3,62,16
0.10000000000000853,608,4,62,10
0.09999999999999432,608,5,62,23
0.10000000000000853,608,6,62,2
0.10000000000000853,608,7,62,12
0.10000000000000853,608,8,62,5
0.09999999999999432,608,9,62,23
0.10000000000000853,608,10,62,11
0.09999999999999432,608,11,62,10
0.09999999999999432,608,12,62,14
0.10000000000002274,608,13,62,34
0.09999999999999432,608,14,62,32
0.10000000000002274,608,15,62,33
0.09999999999999432,609,0,62,47
0.09999999999999432,609,1,62,31
0.09999999999999432,609,2,62,24
0.09999999999999432,609,3,62,10
0.09999999999999432,609,4,62,7
0.09999999999999432,609,5,62,18
0.09999999999999432,609,6,62,8
0.09999999999999432,609,7,62,7
0.09999999999999432,609,8,62,16
0.09999999999999432,609,9,62,11
0.09999999999999432,609,10,62,7
0.09999999999999432,609,11,62,14
0.09999999999999432,609,12,62,9
0.09999999999999432,609,13,62,8
0.09999999999999432,609,14,62,13
0.09999999999999432,609,15,62,15
0.09999999999999432,610,0,62,19
0.09999999999999432,610,1,62,8
0.09999999999999432,610,2,62,11
0.09999999999999432,610,3,62,10
0.09999999999999432,610,4,62,8
0.09999999999999432,610,5,62,10
0.09999999999999432,610,6,62,11
0.09999999999999432,610,7,62,12
0.09999999999999432,610,8,62,25
0.09999999999999432,610,9,62,17
0.09999999999999432,610,10,62,20
0.09999999999999432,610,11,62,22
0.09999999999999432,610,12,62,22
0.09999999999999432,610,13,62,26
0.10000000000002274,610,14,62,27
0.10000000000002274,610,15,62,16
0.10000000000002274,611,0,62,22
0.09999999999999432,611,1,62,1
0.09999999999999987,611,2,92,1
0.10000000000000009,611,3,92,1
0.10000000000000009,611,4,92,7
0.10000000000000009,611,5,92,1
0.10000000000000009,611,6,92,1
0.10000000000000009,611,7,92,1
0.10000000000000009,611,8,92,7
0.09999999999999964,611,9,92,1
0.10000000000000009,611,10,92,5
0.09999999999999964,611,11,92,1
0.09999999999999964,611,12,92,7
0.10000000000000053,611,13,92,6
0.10000000000000053,611,14,92,2
0.10000000000000053,611,15,92,1
0.09999999999999964,612,0,92,6
0.09999999999999964,612,1,92,1
0.09999999999999964,612,2,92,4
0.10000000000000053,612,3,92,5
0.09999999999999964,612,4,92,5
0.09999999999999964,612,5,92,1
0.09999999999999964,612,6,92,1
0.09999999999999964,612,7,92,1
0.09999999999999964,612,8,92,1
0.09999999999999964,612,9,92,7
0.09999999999999964,612,10,92,5
0.09999999999999964,612,11,92,7
0.09999999999999964,612,12,92,1
0.09999999999999964,612,13,92,1
0.09999999999999964,612,14,92,6
0.09999999999999964,612,15,92,4
0.09999999999999964,613,0,92,1
0.09999999999999964,613,1,92,7
0.09999999999999964,613,2,92,1
0.09999999999999964,613,3,92,1
0.09999999999999964,613,4,92,8
0.10000000000000142,613,5,92,8
0.09999999999999964,613,6,92,7
0.09999999999999964,613,7,92,1
0.09999999999999964,613,8,92,1
0.09999999999999964,613,9,92,6
0.10000000000000142,613,10,92,7
0.10000000000000142,613,11,92,8
0.09999999999999787,613,12,92,1
0.09999999999999787,613,13,92,6
0.10000000000000142,613,14,92,1
0.10000000000000142,613,15,92,1
0.09999999999999787,614,0,92,5
0.10000000000000142,614,1,92,1
0.09999999999999787,614,2,92,1
0.09999999999999787,614,3,92,1
0.10000000000000142,614,4,92,5
0.09999999999999787,614,5,92,5
0.10000000000000142,614,6,92,1
0.09999999999999787,614,7,92,4
0.09999999999999787,614,8,92,1
0.09999999999999787,614,9,92,1
0.10000000000000142,614,10,92,1
0.10000000000000142,614,11,92,7
0.09999999999999787,614,12,92,4
0.09999999999999787,614,13,92,1
0.09999999999999787,614,14,92,4
0.10000000000000142,614,15,92,1
0.10000000000000142,615,0,92,6
0.09999999999999787,615,1,92,5
0.09999999999999787,615,2,92,6
0.10000000000000142,615,3,92,1
0.10000000000000142,615,4,92,1
0.09999999999999787,615,5,92,7
0.10000000000000142,615,6,92,5
0.10000000000000142,615,7,92,4
0.10000000000000142,615,8,92,1
0.09999999999999787,615,9,92,7
0.10000000000000142,615,10,92,6
0.10000000000000142,615,11,92,6
0.09999999999999787,615,12,92,1
0.09999999999999787,615,13,92,8
0.10000000000000142,615,14,92,5
0.10000000000000142,615,15,92,1
0.09999999999999787,616,0,92,1
0.10000000000000142,616,1,92,5
0.10000000000000142,616,2,92,1
0.09999999999999787,616,3,92,2
0.09999999999999787,616,4,92,1
0.09999999999999787,616,5,92,6
0.10000000000000142,616,6,92,1
0.10000000000000142,616,7,92,1
0.09999999999999787,616,8,92,3
0.10000000000000142,616,9,92,1
0.10000000000000142,616,10,92,1
0.10000000000000142,616,11,92,1
0.10000000000000142,616,12,92,5
0.10000000000000142,616,13,92,1
0.09999999999999432,616,14,92,1
0.10000000000000142,616,15,92,1
0.10000000000000142,617,0,92,6
0.10000000000000142,617,1,92,1
0.09999999999999432,617,2,92,7
0.10000000000000142,617,3,92,6
0.10000000000000142,617,4,92,127
0.10000000000000142,617,5,92,125
0.09999999999999432,617,6,92,123
0.10000000000000142,617,7,92,127
0.10000000000000142,617,8,92,127
0.10000000000000142,617,9,92,127
0.10000000000000142,617,10,92,127
0.10000000000000142,617,11,92,127
0.10000000000000142,617,12,92,127
0.09999999999999432,617,13,92,127
0.10000000000000142,617,14,92,127
0.10000000000000142,617,15,92,127
0.10000000000000142,618,0,92,127
0.10000000000000142,618,1,92,127
0.10000000000000142,618,2,92,127
0.10000000000000142,618,3,92,127
0.10000000000000142,618,4,92,115
0.10000000000000142,618,5,92,127
0.10000000000000142,618,6,92,117
0.09999999999999432,618,7,92,127
0.10000000000000142,618,8,92,127
0.10000000000000142,618,9,92,125
0.10000000000000142,618,10,92,127
0.10000000000000142,618,11,92,127
0.10000000000000142,618,12,92,125
0.10000000000000142,618,13,92,127
0.10000000000000142,618,14,92,127
0.09999999999999432,618,15,92,127
0.10000000000000142,619,0,92,127
0.10000000000000142,619,1,92,127
0.10000000000000142,619,2,92,124
0.10000000000000142,619,3,92,127
0.10000000000000142,619,4,92,127
0.10000000000000142,619,5,92,127
0.09999999999999432,619,6,92,124
0.09999999999999432,619,7,92,127
0.10000000000000142,619,8,92,127
0.10000000000000142,619,9,92,127
0.09999999999999432,619,10,92,127
0.10000000000000142,619,11,92,127
0.10000000000000142,619,12,92,127
0.10000000000000142,619,13,92,126
0.09999999999999432,619,14,92,127
0.10000000000000142,619,15,92,124
0.10000000000000142,620,0,92,127
0.10000000000000142,620,1,92,127
0.10000000000000142,620,2,92,107
0.10000000000000142,620,3,92,122
0.09999999999999432,620,4,92,114
0.10000000000000142,620,5,92,112
0.10000000000000142,620,6,92,127
0.10000000000000142,620,7,92,126
0.09999999999999432,620,8,92,116
0.10000000000000142,620,9,92,102
0.09999999999999432,620,10,92,126
0.10000000000000853,620,11,92,4
0.10000000000000853,620,12,92,127
0.09999999999999432,620,13,92,115
0.09999999999999432,620,14,92,111
0.09999999999999432,620,15,92,114
0.10000000000000853,621,0,92,108
0.10000000000000853,621,1,92,109
0.09999999999999432,621,2,92,116
0.09999999999999432,621,3,92,109
0.10000000000000853,621,4,92,96
0.09999999999999432,621,5,92,94
0.09999999999999432,621,6,92,127
0.10000000000000853,621,7,92,15
0.10000000000000853,621,8,92,127
0.09999999999999432,621,9,92,117
0.10000000000000853,621,10,92,113
0.09999999999999432,621,11,92,108
0.09999999999999432,621,12,92,125
0.09999999999999432,621,13,92,114
0.10000000000000853,621,14,92,2
0.10000000000000853,621,15,92,127
0.09999999999999432,622,0,92,127
0.10000000000000853,622,1,92,93
0.09999999999999432,622,2,92,127
0.09999999999999432,622,3,92,127
0.10000000000000853,622,4,92,127
0.10000000000000853,622,5,92,15
0.09999999999999432,622,6,92,127
0.10000000000000853,622,7,92,123
0.10000000000000853,622,8,92,117
0.10000000000000853,622,9,92,127
0.09999999999999432,622,10,92,125
0.09999999999999432,622,11,92,127
0.10000000000000853,622,12,92,127
0.09999999999999432,622,13,92,127
0.10000000000000853,622,14,92,127
0.09999999999999432,622,15,92,127
0.09999999999999432,623,0,92,127
0.10000000000000853,623,1,92,127
0.09999999999999432,623,2,92,127
0.09999999999999432,623,3,92,127
0.10000000000000853,623,4,92,127
0.09999999999999432,623,5,92,127
0.09999999999999432,623,6,92,127
0.10000000000000853,623,7,92,110
0.09999999999999432,623,8,92,127
0.09999999999999432,623,9,92,127
0.10000000000000853,623,10,92,127
0.09999999999999432,623,11,92,127
0.09999999999999432,623,12,92,127
0.09999999999999432,623,13,92,127
0.09999999999999432,623,14,92,127
0.10000000000000853,623,15,92,120
0.09999999999999432,624,0,92,127
0.10000000000000853,624,1,92,127
0.10000000000000853,624,2,92,127
0.09999999999999432,624,3,92,127
0.09999999999999432,624,4,92,127
0.10000000000000853,624,5,92,127
0.09999999999999432,624,6,92,127
0.10000000000000853,624,7,92,127
0.09999999999999432,624,8,92,127
0.09999999999999432,624,9,92,127
0.10000000000000853,624,10,92,9
0.10000000000000853,624,11,92,127
0.09999999999999432,624,12,92,127
0.09999999999999432,624,13,92,11
0.09999999999999432,624,14,92,127
0.09999999999999432,624,15,92,11
0.10000000000000853,625,0,92,127
0.10000000000000853,625,1,92,4
0.09999999999999432,625,2,92,127
0.09999999999999432,625,3,92,12
0.09999999999999432,625,4,92,127
0.10000000000000853,625,5,92,119
0.09999999999999432,625,6,92,9
0.09999999999999432,625,7,92,127
0.10000000000000853,625,8,92,2
0.10000000000000853,625,9,92,127
0.10000000000000853,625,10,92,127
0.09999999999999432,625,11,92,127
0.10000000000000853,625,12,92,127
0.09999999999999432,625,13,92,14
0.09999999999999432,625,14,92,127
0.09999999999999432,625,15,92,4
0.09999999999999432,626,0,92,127
0.10000000000000853,626,1,92,7
0.10000000000000853,626,2,92,93
0.09999999999999432,626,3,92,13
0.09999999999999432,626,4,92,127
0.09999999999999432,626,5,92,4
0.09999999999999432,626,6,92,127
0.10000000000000853,626,7,92,127
0.09999999999999432,626,8,92,11
0.09999999999999432,626,9,92,127
0.09999999999999432,626,10,92,13
0.09999999999999432,626,11,92,127
0.10000000000000853,626,12,92,14
0.10000000000000853,626,13,92,127
0.09999999999999432,626,14,92,12
0.10000000000000853,626,15,92,125
0.10000000000000853,627,0,92,7
0.10000000000000853,627,1,92,127
0.09999999999999432,627,2,92,127
0.10000000000000853,627,3,92,111
0.09999999999999432,627,4,92,127
0.09999999999999432,627,5,92,127
0.10000000000000853,627,6,92,127
0.09999999999999432,627,7,92,127
0.09999999999999432,627,8,92,127
0.10000000000000853,627,9,92,127
0.09999999999999432,627,10,92,127
0.09999999999999432,627,11,92,127
0.10000000000000853,627,12,92,110
0.09999999999999432,627,13,92,127
0.10000000000000853,627,14,92,127
0.09999999999999432,627,15,92,127
0.09999999999999432,628,0,92,127
0.10000000000000853,628,1,92,127
0.09999999999999432,628,2,92,127
0.09999999999999432,628,3,92,127
0.09999999999999432,628,4,92,127
0.10000000000002274,628,5,92,99
0.09999999999999432,628,6,92,127
0.09999999999999432,628,7,92,127
0.10000000000002274,628,8,92,122
0.09999999999999432,628,9,92,127
0.09999999999999432,628,10,92,125
0.09999999999999432,628,11,92,127
0.09999999999999432,628,12,92,127
0.09999999999999432,628,13,92,127
0.09999999999999432,628,14,92,127
0.09999999999999432,628,15,92,127
0.10000000000002274,629,0,92,125
0.10000000000002274,629,1,92,127
0.09999999999999432,629,2,92,127
0.09999999999999432,629,3,92,119
0.09999999999999432,629,4,92,127
0.09999999999999432,629,5,92,127
0.09999999999999432,629,6,92,127
0.09999999999999432,629,7,92,127
0.10000000000002274,629,8,92,127
0.09999999999999432,629,9,92,127
0.09999999999999432,629,10,92,127
0.10000000000002274,629,11,92,127
0.10000000000002274,629,12,92,127
0.09999999999999432,629,13,92,127
0.09999999999999432,629,14,92,127
0.09999999999999432,629,15,92,127
0.10000000000002274,630,0,92,127
0.09999999999999432,630,1,92,127
0.09999999999999432,630,2,92,127
0.10000000000002274,630,3,92,127
0.10000000000002274,630,4,92,127
0.09999999999999432,630,5,92,127
0.10000000000002274,630,6,92,127
0.10000000000002274,630,7,92,127
0.09999999999999432,630,8,92,127
0.09999999999999432,630,9,92,127
0.09999999999999432,630,10,92,127
0.10000000000002274,630,11,92,127
0.09999999999999432,630,12,92,127
0.09999999999999432,630,13,92,127
0.10000000000002274,630,14,92,127
0.09999999999999432,630,15,92,114
0.09999999999999432,631,0,92,127
0.09999999999999432,631,1,92,112
0.09999999999999432,631,2,92,90
0.06818181818181301,631,3,92,127
0.09999999999999432,631,4,92,124
0.09999999999999432,631,5,92,118
0.09999999999999432,631,6,92,127
0.10000000000002274,631,7,92,125
0.09999999999999432,631,8,92,125
0.09999999999999432,631,9,92,127
0.10000000000002274,631,10,92,116
0.09999999999999432,631,11,92,81
0.056818181818186986,631,12,92,126
0.09999999999999432,631,13,92,127
0.09999999999999432,631,14,92,127
0.09999999999999432,631,15,92,127
0.09999999999999432,632,0,92,127
0.09999999999999432,632,1,92,127
0.09999999999999432,632,2,92,127
0.10000000000002274,632,3,92,127
0.09999999999999432,632,4,92,77
0.056818181818186986,632,5,92,127
0.09999999999999432,632,6,92,127
0.09999999999999432,632,7,92,127
0.09999999999999432,632,8,92,127
0.09999999999999432,632,9,92,98
0.06818181818181301,632,10,92,127
0.09999999999999432,632,11,92,127
0.09999999999999432,632,12,92,127
0.09999999999999432,632,13,92,15
0.09999999999999432,632,14,92,127
0.09999999999999432,632,15,92,127
0.09999999999999432,633,0,92,6
0.09999999999999432,633,1,92,127
0.10000000000002274,633,2,92,9
0.09999999999999432,633,3,92,127
0.10000000000002274,633,4,92,11
0.09999999999999432,633,5,92,5
0.09999999999999432,633,6,92,127
0.09999999999999432,633,7,92,12
0.09999999999999432,633,8,92,127
0.10000000000002274,633,9,92,127
0.09999999999999432,633,10,92,4
0.09999999999999432,633,11,92,127
0.09999999999999432,633,12,92,7
0.09999999999999432,633,13,92,127
0.09999999999999432,633,14,92,12
0.09999999999999432,633,15,92,5
0.09999999999999432,634,0,92,127
0.09999999999999432,634,1,92,9
0.10000000000002274,634,2,92,127
0.09999999999999432,634,3,92,127
0.09999999999999432,634,4,92,3
0.09999999999999432,634,5,92,127
0.10000000000002274,634,6,92,7
0.09999999999999432,634,7,92,127
0.10000000000002274,634,8,92,9
0.09999999999999432,634,9,92,4
0.09999999999999432,634,10,92,127
0.09999999999999432,634,11,92,11
0.09999999999999432,634,12,92,127
0.09999999999999432,634,13,92,127
0.09999999999999432,634,14,92,3
0.09999999999999432,634,15,92,127
0.09999999999999432,635,0,92,7
0.09999999999999432,635,1,92,127
0.09999999999999432,635,2,92,11
0.09999999999999432,635,3,92,3
0.09999999999999432,635,4,92,127
0.09999999999999432,635,5,92,12
0.10000000000002274,635,6,92,127
0.10000000000002274,635,7,92,127
0.10000000000002274,635,8,92,4
0.09999999999999432,635,9,92,127
0.10000000000002274,635,10,92,6
0.09999999999999432,635,11,92,127
0.09999999999999432,635,12,92,8
0.09999999999999432,635,13,92,4
0.09999999999999432,635,14,92,127
0.09999999999999432,635,15,92,13
0.09999999999999432,636,0,92,127
0.09999999999999432,636,1,92,127
0.10000000000002274,636,2,92,4
0.09999999999999432,636,3,92,127
0.09999999999999432,636,4,92,11
0.09999999999999432,636,5,92,127
0.09999999999999432,636,6,92,8
0.09999999999999432,636,7,92,4
0.09999999999999432,636,8,92,127
0.09999999999999432,636,9,92,11
0.09999999999999432,636,10,92,127
0.10000000000002274,636,11,92,127
0.09999999999999432,636,12,92,4
0.09999999999999432,636,13,92,127
0.09999999999999432,636,14,92,5
0.09999999999999432,636,15,92,127
0.09999999999999432,637,0,92,11
0.09999999999999432,637,1,92,4
0.10000000000002274,637,2,92,127
0.10000000000002274,637,3,92,10
0.10000000000002274,637,4,92,127
0.09999999999999432,637,5,92,127
0.10000000000002274,637,6,92,3
0.09999999999999432,637,7,92,127
0.09999999999999432,637,8,92,6
0.09999999999999432,637,9,92,127
0.09999999999999432,637,10,92,127
0.09999999999999432,637,11,92,15
0.09999999999999432,637,12,92,127
0.09999999999999432,637,13,92,127
0.09999999999999432,637,14,92,10
0.09999999999999432,637,15,92,127
0.09999999999999432,638,0,92,10
0.09999999999999432,638,1,92,127
0.09999999999999432,638,2,92,14
0.10000000000002274,638,3,92,127
0.09999999999999432,638,4,92,106
0.09999999999999432,638,5,92,127
0.09999999999999432,638,6,92,12
0.09999999999999432,638,7,92,127
0.09999999999999432,638,8,92,127
0.10000000000002274,638,9,92,14
0.09999999999999432,638,10,92,127
0.09999999999999432,638,11,92,97
0.09999999999999432,638,12,92,127
0.09999999999999432,638,13,92,12
0.09999999999999432,638,14,92,127
0.10000000000002274,638,15,92,127
0.09999999999999432,639,0,92,15
0.10000000000002274,639,1,92,127
0.10000000000002274,639,2,92,106
0.09999999999999432,639,3,92,9
0.09999999999999432,639,4,92,127
0.09999999999999432,639,5,92,12
0.09999999999999432,639,6,92,127
0.09999999999999432,639,7,92,10
0.10000000000002274,639,8,92,127
0.10000000000002274,639,9,92,14
0.09999999999999432,639,10,92,127
0.09999999999999432,639,11,92,127
0.09999999999999432,639,12,92,11
0.09999999999999432,639,13,92,127
0.09999999999999432,639,14,92,127
0.09999999999999432,639,15,92,14
0.09999999999999432,640,0,92,127
0.09999999999999432,640,1,92,127
0.09999999999999432,640,2,92,13
0.09999999999999432,640,3,92,127
0.09999999999999432,640,4,92,127
0.10000000000002274,640,5,92,14
0.09999999999999432,640,6,92,127
0.09999999999999432,640,7,92,127
0.09999999999999432,640,8,92,12
0.10000000000002274,640,9,92,127
0.09999999999999432,640,10,92,67
0.09999999999999432,640,11,92,127
0.09999999999999432,640,12,92,14
0.09999999999999432,640,13,92,127
0.09999999999999432,640,14,92,127
0.09999999999999432,640,15,92,12
0.10000000000002274,641,0,92,127
0.09999999999999432,641,1,92,10
0.10000000000002274,641,2,92,127
0.10000000000002274,641,3,92,15
0.09999999999999432,641,4,92,127
0.09999999999999432,641,5,92,115
0.09999999999999432,641,6,92,127
0.09999999999999432,641,7,92,12
0.10000000000002274,641,8,92,127
0.09999999999999432,641,9,92,127
0.09999999999999432,641,10,92,15
0.09999999999999432,641,11,92,127
0.09999999999999432,641,12,92,127
0.10000000000002274,641,13,92,13
0.09999999999999432,641,14,92,127
0.09999999999999432,641,15,92,10
0.09999999999999432,642,0,92,127
0.09999999999999432,642,1,92,13
0.09999999999999432,642,2,92,127
0.09999999999999432,642,3,92,127
0.09999999999999432,642,4,92,11
0.10000000000002274,642,5,92,127
0.09999999999999432,642,6,92,127
0.09999999999999432,642,7,92,14
0.09999999999999432,642,8,92,127
0.09999999999999432,642,9,92,102
0.09999999999999432,642,10,92,127
0.10000000000002274,642,11,92,12
0.09999999999999432,642,12,92,127
0.09999999999999432,642,13,92,10
0.09999999999999432,642,14,92,127
0.09999999999999432,642,15,92,14
0.09999999999999432,643,0,92,127
0.09999999999999432,643,1,92,107
0.09999999999999432,643,2,92,127
0.09999999999999432,643,3,92,12
0.09999999999999432,643,4,92,127
0.09999999999999432,643,5,92,127
0.09999999999999432,643,6,92,14
0.09999999999999432,643,7,92,127
0.09999999999999432,643,8,92,113
0.10000000000002274,643,9,92,127
0.10000000000002274,643,10,92,12
0.09999999999999432,643,11,92,127
0.09999999999999432,643,12,92,127
0.09999999999999432,643,13,92,14
0.09999999999999432,643,14,92,127
0.09999999999999432,643,15,92,127
0.09999999999999432,644,0,92,12
0.09999999999999432,644,1,92,127
0.09999999999999432,644,2,92,95
0.10000000000000009,644,3,62,52
0.09999999999999964,644,4,62,42
0.09999999999999964,644,5,62,34
0.09999999999999964,644,6,62,62
0.10000000000000142,644,7,62,35
0.10000000000000142,644,8,62,44
0.10000000000000142,644,9,62,29
0.09999999999999787,644,10,62,68
0.10000000000000142,644,11,62,30
0.09999999999999432,644,12,62,19
0.10000000000000142,644,13,62,38
0.10000000000000142,644,14,62,52
0.10000000000000142,644,15,62,37
0.10000000000000142,645,0,62,43
0.10000000000000142,645,1,62,41
0.10000000000000142,645,2,62,42
0.09999999999999432,645,3,62,23
0.09999999999999432,645,4,62,37
0.10000000000000853,645,5,62,35
0.09999999999999432,645,6,62,27
0.10000000000000853,645,7,62,28
0.10000000000000853,645,8,62,36
0.10000000000000853,645,9,62,48
0.09999999999999432,645,10,62,51
0.09999999999999432,645,11,62,39
0.10000000000000853,645,12,62,25
0.10000000000000853,645,13,62,32
0.09999999999999432,645,14,62,28
0.10000000000000853,645,15,62,41
0.09999999999999432,646,0,62,30
0.09999999999999432,646,1,62,51
0.09999999999999432,646,2,62,29
0.09999999999999432,646,3,62,30
0.09999999999999432,646,4,62,30
0.09999999999999432,646,5,62,18
0.09999999999999432,646,6,62,37
0.09999999999999432,646,7,62,36
0.09999999999999432,646,8,62,26
0.09999999999999432,646,9,62,46
0.09999999999999432,646,10,62,38
0.09999999999999432,646,11,62,30
0.10000000000002274,646,12,62,6
0.09999999999999432,646,13,62,27
0.10000000000002274,646,14,62,28
0.09999999999999432,646,15,62,34
0.09999999999999432,647,0,62,58
0.09999999999999432,647,1,62,31
0.09999999999999432,647,2,62,25
0.09999999999999432,647,3,62,41
0.10000000000002274,647,4,62,34
0.10000000000002274,647,5,62,77
0.09999999999999432,647,6,62,74
0.09999999999999432,647,7,62,45
0.09999999999999432,647,8,62,55
0.09999999999999432,647,9,62,29
0.10000000000002274,647,10,62,22
0.09999999999999432,647,11,62,57
0.09999999999999432,647,12,62,32
0.09999999999999432,647,13,62,77
0.09999999999999432,647,14,62,69
0.09999999999999432,647,15,62,20
0.09999999999999432,648,0,62,49
0.09999999999999432,648,1,62,30
0.09999999999999432,648,2,62,27
0.10000000000002274,648,3,62,18
0.09999999999999432,648,4,62,18
0.09999999999999432,648,5,62,34
0.10000000000002274,648,6,62,36
0.09999999999999432,648,7,62,15
0.09999999999999432,648,8,62,16
0.09999999999999432,648,9,62,38
0.09999999999999432,648,10,62,40
0.09999999999999432,648,11,62,19
0.10000000000002274,648,12,62,53
0.09999999999999432,648,13,62,24
0.09999999999999432,648,14,62,18
0.09999999999999432,648,15,62,18
0.09999999999999432,649,0,62,38
0.09999999999999432,649,1,62,33
0.09999999999999432,649,2,62,20
0.09999999999999432,649,3,62,15
0.09999999999999432,649,4,62,42
0.09999999999999432,649,5,62,27
0.10000000000002274,649,6,62,33
0.09999999999999432,649,7,62,32
0.10000000000002274,649,8,62,25
0.09999999999999432,649,9,62,48
0.09999999999999432,649,10,62,31
0.09999999999999432,649,11,62,23
0.10000000000002274,649,12,62,15
0.10000000000002274,649,13,62,40
0.09999999999999432,649,14,62,35
0.09999999999999432,649,15,62,16
0.09999999999999432,650,0,62,47
0.09999999999999432,650,1,62,18
0.09999999999999432,650,2,62,50
0.09999999999999432,650,3,62,29
0.09999999999999432,650,4,62,23
0.10000000000002274,650,5,62,19
0.09999999999999432,650,6,62,18
0.09999999999999432,650,7,62,26
0.10000000000000142,650,8,61,9
0.06818181818181301,650,9,61,18
0.10000000000000142,650,10,61,32
0.10000000000000142,650,11,61,11
0.09999999999999432,650,12,61,27
0.10000000000000142,650,13,61,23
0.10000000000000142,650,14,61,19
0.10000000000000142,650,15,61,29
0.09999999999999432,651,0,61,43
0.10000000000000142,651,1,61,60
0.09999999999999432,651,2,61,51
0.10000000000000853,651,3,61,75
0.09999999999999432,651,4,61,28
0.09999999999999432,651,5,61,93
0.09999999999999432,651,6,61,51
0.09999999999999432,651,7,61,60
0.10000000000000853,651,8,61,43
0.09999999999999432,651,9,61,7
0.10000000000000853,651,10,61,14
0.10000000000000853,651,11,61,26
0.09999999999999432,651,12,61,23
0.09999999999999432,651,13,61,24
0.10000000000000853,651,14,61,26
0.10000000000000853,651,15,61,18
0.09999999999999432,652,0,61,23
0.10000000000000853,652,1,61,26
0.09999999999999432,652,2,61,43
0.10000000000000853,652,3,61,31
0.10000000000000853,652,4,61,43
0.09999999999999432,652,5,61,47
0.10000000000000853,652,6,61,25
0.09999999999999432,652,7,61,43
0.09999999999999432,652,8,61,36
0.09999999999999432,652,9,61,29
0.09999999999999432,652,10,61,29
0.10000000000000853,652,11,61,20
0.10000000000000853,652,12,61,35
0.09999999999999432,652,13,61,16
0.09999999999999432,652,14,61,23
0.09999999999999432,652,15,61,36
0.09999999999999432,653,0,61,30
0.10000000000002274,653,1,61,16
0.06818181818184144,653,2,61,19
0.09999999999999432,653,3,61,16
0.09999999999999432,653,4,61,19
0.06818181818181301,653,5,61,26
0.09999999999999432,653,6,61,39
0.09999999999999432,653,7,61,14
0.10000000000002274,653,8,61,33
0.06818181818184144,653,9,61,44
0.09999999999999432,653,10,61,39
0.10000000000002274,653,11,61,14
0.09999999999999432,653,12,61,8
0.10000000000002274,653,13,61,18
0.10000000000002274,653,14,61,14
0.09999999999999432,653,15,61,49
0.10000000000002274,654,0,61,69
0.09999999999999432,654,1,61,58
0.09999999999999432,654,2,61,86
0.09999999999999432,654,3,61,67
0.09999999999999432,654,4,61,72
0.09999999999999432,654,5,61,80
0.09999999999999432,654,6,61,67
0.10000000000002274,654,7,61,44
0.09999999999999432,654,8,61,117
0.09999999999999432,654,9,61,87
0.09999999999999432,654,10,61,108
0.09999999999999432,654,11,61,111
0.06818181818181301,654,12,61,91
0.09999999999999432,654,13,61,75
0.10000000000002274,654,14,61,56
0.09999999999999432,654,15,61,57
0.09999999999999432,655,0,61,81
0.10000000000002274,655,1,61,59
0.09999999999999432,655,2,61,62
0.09999999999999432,655,3,61,65
0.09999999999999432,655,4,61,127
0.09999999999999432,655,5,61,113
0.056818181818186986,655,6,61,93
0.10000000000002274,655,7,61,96
0.09999999999999432,655,8,61,106
0.09999999999999432,655,9,61,65
0.10000000000002274,655,10,61,92
0.056818181818186986,655,11,61,71
0.09999999999999432,655,12,61,92
0.09999999999999432,655,13,61,102
0.09999999999999432,655,14,61,75
0.10000000000002274,655,15,61,46
0.09999999999999432,656,0,61,49
0.09999999999999432,656,1,61,42
0.10000000000002274,656,2,61,47
0.10000000000002274,656,3,61,50
0.09999999999999432,656,4,61,37
0.04545454545456096,656,5,61,37
0.09999999999999432,656,6,61,37
0.09999999999999432,656,7,61,91
0.06818181818181301,656,8,61,85
0.10000000000002274,656,9,61,60
0.09999999999999432,656,10,61,67
0.09999999999999432,656,11,61,71
0.10000000000002274,656,12,61,80
0.09999999999999432,656,13,61,50
0.09999999999999432,656,14,61,38
0.09999999999999432,656,15,61,39
0.10000000000002274,657,0,61,42
0.09999999999999432,657,1,61,62
0.09999999999999432,657,2,61,84
0.09999999999999432,657,3,61,41
0.09999999999999432,657,4,61,46
0.09999999999999432,657,5,61,35
0.09999999999999432,657,6,61,44
0.09999999999999432,657,7,61,53
0.09999999999999432,657,8,61,46
0.09999999999999432,657,9,61,54
0.09999999999999432,657,10,61,54
0.09999999999999432,657,11,61,62
0.09999999999999432,657,12,61,46
0.09999999999999432,657,13,61,39
0.09999999999999432,657,14,61,66
0.09999999999999432,657,15,61,76
0.09999999999999432,658,0,61,51
0.09999999999999432,658,1,61,60
0.09999999999999432,658,2,61,94
0.09999999999999432,658,3,61,52
0.10000000000002274,658,4,61,62
0.09999999999999432,658,5,61,63
0.09999999999999432,658,6,61,68
0.10000000000002274,658,7,61,27
0.09999999999999432,658,8,61,25
0.09999999999999432,658,9,61,63
0.09999999999999432,658,10,54,75
0.06818181818181301,658,11,54,105
0.10000000000000142,658,12,54,94
0.09999999999999432,658,13,54,121
0.09999999999999432,658,14,54,101
0.10000000000000142,658,15,54,93
0.10000000000000142,659,0,54,71
0.10000000000000142,659,1,54,91
0.10000000000000142,659,2,54,86
0.10000000000000142,659,3,54,93
0.10000000000000142,659,4,54,78
0.10000000000000142,659,5,54,100
0.10000000000000142,659,6,54,74
0.06818181818182012,659,7,54,85
0.10000000000000142,659,8,54,79
0.05681818181817988,659,9,54,99
0.09999999999999432,659,10,54,88
0.06818181818181301,659,11,54,85
0.10000000000000142,659,12,54,85
0.10000000000000142,659,13,54,83
0.10000000000000142,659,14,54,82
0.10000000000000142,659,15,54,109
0.10000000000000142,660,0,54,66
0.10000000000000142,660,1,54,105
0.10000000000000142,660,2,54,92
0.05909090909091219,660,3,54,84
0.10000000000000142,660,4,54,113
0.10000000000000142,660,5,54,96
0.10000000000000142,660,6,54,83
0.09999999999999432,660,7,54,85
0.10000000000000142,660,8,54,87
0.05909090909091219,660,9,54,99
0.10000000000000142,660,10,54,92
0.06818181818182012,660,11,54,105
0.10000000000000142,660,12,54,95
0.10000000000000142,660,13,54,66
0.06818181818182012,660,14,54,55
0.10000000000000142,660,15,54,80
0.10000000000000142,661,0,54,116
0.10000000000000142,661,1,54,90
0.10000000000000142,661,2,54,82
0.10000000000000142,661,3,54,91
0.10000000000000142,661,4,54,75
0.10000000000000142,661,5,54,70
0.09999999999999432,661,6,54,108
0.10000000000000142,661,7,54,96
0.10000000000000142,661,8,54,108
0.10000000000000142,661,9,54,99
0.10000000000000142,661,10,54,127
0.10000000000000142,661,11,54,97
0.10000000000000142,661,12,54,89
0.10000000000000142,661,13,54,75
0.10000000000000142,661,14,54,91
0.10000000000000142,661,15,54,94
0.10000000000000142,662,0,54,102
0.10000000000000142,662,1,54,75
0.10000000000000142,662,2,54,65
0.10000000000000142,662,3,54,70
0.10000000000000142,662,4,54,64
0.10000000000000142,662,5,54,70
0.10000000000000142,662,6,54,73
0.10000000000000142,662,7,54,81
0.06818181818181301,662,8,54,86
0.10000000000000142,662,9,54,90
0.10000000000000142,662,10,54,67
0.10000000000000142,662,11,54,89
0.06818181818182012,662,12,54,91
0.09999999999999432,662,13,54,63
0.10000000000000853,662,14,54,60
0.06590909090908781,662,15,54,65
0.09999999999999432,663,0,54,53
0.04772727272727195,663,1,54,64
0.09999999999999432,663,2,54,72
0.09999999999999432,663,3,54,65
0.09999999999999432,663,4,54,45
0.09999999999999432,663,5,54,63
0.09999999999999432,663,6,54,85
0.056818181818186986,663,7,54,89
0.10000000000000853,663,8,54,58
0.09999999999999432,663,9,54,79
0.10000000000000853,663,10,54,76
0.10000000000000853,663,11,54,103
0.09999999999999432,663,12,54,65
0.09999999999999432,663,13,54,83
0.10000000000000853,663,14,54,84
0.09999999999999432,663,15,54,67
0.09999999999999432,664,0,54,48
0.10000000000000853,664,1,54,94
0.09999999999999432,664,2,54,58
0.10000000000000853,664,3,54,87
0.09999999999999432,664,4,54,61
0.09999999999999432,664,5,54,62
0.09999999999999432,664,6,54,40
0.09999999999999432,664,7,54,51
0.10000000000000853,664,8,54,69
0.09999999999999432,664,9,54,73
0.09999999999999432,664,10,54,84
0.10000000000000853,664,11,54,66
0.09999999999999432,664,12,54,49
0.09999999999999432,664,13,54,97
0.09999999999999432,664,14,54,71
0.09999999999999432,664,15,54,33
0.10000000000000853,665,0,54,27
0.10000000000000853,665,1,54,46
0.09999999999999432,665,2,54,45
0.09999999999999432,665,3,54,65
0.09999999999999432,665,4,54,76
0.09999999999999432,665,5,54,81
0.10000000000000853,665,6,54,72
0.09999999999999432,665,7,54,59
0.09999999999999432,665,8,54,76
0.09999999999999432,665,9,54,28
0.09999999999999432,665,10,54,64
0.09999999999999432,665,11,54,62
0.09999999999999432,665,12,54,46
0.10000000000000853,665,13,54,69
0.09999999999999432,665,14,54,31
0.09999999999999432,665,15,54,41
0.09999999999999432,666,0,54,54
0.09999999999999432,666,1,54,56
0.10000000000000853,666,2,54,55
0.09999999999999432,666,3,54,51
0.09999999999999432,666,4,54,64
0.10000000000000853,666,5,54,87
0.09999999999999432,666,6,54,66
0.09999999999999432,666,7,54,68
0.09999999999999432,666,8,54,64
0.09999999999999432,666,9,54,61
0.10000000000000853,666,10,54,44
0.09999999999999432,666,11,54,63
0.09999999999999432,666,12,54,69
0.10000000000000853,666,13,54,74
0.10000000000000853,666,14,54,61
0.09999999999999432,666,15,54,66
0.10000000000000853,667,0,54,56
0.10000000000000853,667,1,54,83
0.10000000000000853,667,2,54,73
0.10000000000000853,667,3,54,69
0.09999999999999432,667,4,54,83
0.09999999999999432,667,5,54,57
0.09999999999999432,667,6,54,73
0.09999999999999432,667,7,54,89
0.10000000000000853,667,8,54,62
0.09999999999999432,667,9,54,62
0.10000000000000853,667,10,54,89
0.09999999999999432,667,11,54,80
0.09999999999999432,667,12,54,84
0.10000000000000853,667,13,54,88
0.09999999999999432,667,14,54,86
0.10000000000000853,667,15,54,71
0.09999999999999432,668,0,54,58
0.09999999999999432,668,1,54,50
0.09999999999999432,668,2,54,75
0.10000000000000853,668,3,54,73
0.09999999999999432,668,4,54,68
0.09999999999999432,668,5,54,89
0.09999999999999432,668,6,54,45
0.09999999999999432,668,7,54,96
0.10000000000000853,668,8,54,68
0.09999999999999432,668,9,54,89
0.10000000000000853,668,10,54,65
0.09999999999999432,668,11,54,66
0.10000000000000853,668,12,54,56
0.09999999999999432,668,13,54,78
0.09999999999999432,668,14,54,60
0.10000000000000853,668,15,54,63
0.09999999999999432,669,0,54,65
0.09999999999999432,669,1,54,74
0.10000000000000853,669,2,54,80
0.09999999999999432,669,3,54,79
0.09999999999999432,669,4,54,58
0.10000000000000853,669,5,54,76
0.09999999999999432,669,6,54,53
0.10000000000000853,669,7,54,68
0.09999999999999432,669,8,54,74
0.10000000000000853,669,9,54,60
0.09999999999999432,669,10,54,55
0.09999999999999432,669,11,54,56
0.10000000000000853,669,12,54,69
0.09999999999999432,669,13,54,80
0.10000000000000853,669,14,54,48
0.09999999999999432,669,15,54,60
0.03636363636363171,670,0,54,64
0.09999999999999432,670,1,54,71
0.09999999999999432,670,2,54,77
0.10000000000000853,670,3,54,86
0.09999999999999432,670,4,54,61
0.09999999999999432,670,5,54,62
0.10000000000002274,670,6,54,67
0.09999999999999432,670,7,54,51
0.09999999999999432,670,8,54,101
0.09999999999999432,670,9,54,79
0.04545454545456096,670,10,54,78
0.09999999999999432,670,11,54,74
0.09999999999999432,670,12,54,59
0.10000000000002274,670,13,54,69
0.09999999999999432,670,14,54,73
0.025000000000005684,670,15,54,64
0.09999999999999432,671,0,54,67
0.04772727272725774,671,1,54,71
0.10000000000002274,671,2,54,74
0.09999999999999432,671,3,54,59
0.09999999999999432,671,4,54,61
0.09999999999999432,671,5,54,56
0.09999999999999432,671,6,54,60
0.10000000000002274,671,7,54,61
0.09999999999999432,671,8,54,37
0.09999999999999432,671,9,54,62
0.09999999999999432,671,10,54,55
0.09999999999999432,671,11,54,64
0.09999999999999432,671,12,54,49
0.09999999999999432,671,13,54,69
0.10000000000002274,671,14,54,21
0.04545454545456096,671,15,54,68
0.09999999999999432,672,0,54,63
0.09999999999999432,672,1,54,66
0.10000000000002274,672,2,54,63
0.09999999999999432,672,3,54,47
0.10000000000002274,672,4,54,74
0.09999999999999432,672,5,54,83
0.09999999999999432,672,6,54,63
0.09999999999999432,672,7,54,73
0.09999999999999432,672,8,54,80
0.10000000000002274,672,9,54,38
0.013636363636379656,672,10,54,78
0.10000000000002274,672,11,54,70
0.09999999999999432,672,12,54,101
0.09999999999999432,672,13,54,72
0.045454545454532536,672,14,54,69
0.09999999999999432,672,15,54,64
0.03636363636363171,673,0,54,90
0.09999999999999432,673,1,54,99
0.09999999999999432,673,2,54,98
0.10000000000002274,673,3,54,81
0.09999999999999432,673,4,54,87
0.09999999999999432,673,5,54,74
0.09999999999999432,673,6,54,81
0.10000000000002274,673,7,54,79
0.09999999999999432,673,8,54,35
0.056818181818186986,673,9,54,48
0.10000000000002274,673,10,54,76
0.09999999999999432,673,11,54,75
0.10000000000002274,673,12,54,45
0.09999999999999432,673,13,54,42
0.09999999999999432,673,14,54,79
0.09999999999999432,673,15,54,79
0.09999999999999432,674,0,54,81
0.09999999999999432,674,1,54,85
0.09999999999999432,674,2,54,105
0.09999999999999432,674,3,54,64
0.09999999999999432,674,4,54,96
0.09999999999999432,674,5,54,64
0.09999999999999432,674,6,54,57
0.04772727272725774,674,7,54,66
0.09999999999999432,674,8,54,76
0.09999999999999432,674,9,54,89
0.09999999999999432,674,10,54,97
0.09999999999999432,674,11,54,117
0.09999999999999432,674,12,54,102
0.10000000000002274,674,13,54,92
0.09999999999999432,674,14,54,116
0.09999999999999432,674,15,54,47
0.056818181818158564,675,0,54,25
0.09999999999999432,675,1,54,97
0.09999999999999432,675,2,54,66
0.09999999999999432,675,3,54,68
0.09999999999999432,675,4,54,50
0.10000000000002274,675,5,54,67
0.09999999999999432,675,6,54,59
0.03409090909090651,675,7,54,102
0.09999999999999432,675,8,54,96
0.09999999999999432,675,9,54,41
0.03636363636363171,675,10,54,127
0.09999999999999432,675,11,54,98
0.10000000000002274,675,12,54,50
0.09999999999999432,675,13,54,60
0.09999999999999432,675,14,54,95
0.09999999999999432,675,15,54,127
0.10000000000002274,676,0,54,39
0.09999999999999432,676,1,87,127
0.10000000000000142,676,2,87,18
0.09999999999999432,676,3,87,127
0.09999999999999432,676,4,87,22
0.09999999999999432,676,5,87,127
0.09999999999999432,676,6,87,19
0.09999999999999432,676,7,87,127
0.09999999999999432,676,8,87,20
0.09999999999999432,676,9,87,127
0.09999999999999432,676,10,87,21
0.09999999999999432,676,11,87,127
0.10000000000000142,676,12,87,25
0.09999999999999432,676,13,87,127
0.10000000000000142,676,14,87,23
0.10000000000000142,676,15,87,127
0.10000000000000142,677,0,87,22
0.10000000000000142,677,1,87,127
0.10000000000000142,677,2,87,24
0.10000000000000142,677,3,87,127
0.10000000000000142,677,4,87,20
0.10000000000000142,677,5,87,127
0.10000000000000142,677,6,87,24
0.10000000000000142,677,7,87,127
0.10000000000000142,677,8,87,21
0.10000000000000142,677,9,87,127
0.10000000000000142,677,10,87,21
0.10000000000000142,677,11,87,127
0.10000000000000142,677,12,87,25
0.10000000000000142,677,13,87,127
0.10000000000000142,677,14,87,23
0.10000000000000142,677,15,87,127
0.10000000000000142,678,0,87,22
0.10000000000000142,678,1,87,127
0.10000000000000142,678,2,87,23
0.10000000000000142,678,3,87,127
0.10000000000000142,678,4,87,20
0.10000000000000142,678,5,87,127
0.10000000000000142,678,6,87,25
0.10000000000000142,678,7,87,127
0.10000000000000142,678,8,87,20
0.10000000000000142,678,9,87,127
0.10000000000000142,678,10,87,22
0.10000000000000142,678,11,87,127
0.10000000000000142,678,12,87,21
0.10000000000000142,678,13,87,127
0.09999999999999432,678,14,87,22
0.10000000000000142,678,15,87,127
0.09999999999999432,679,0,87,21
0.09999999999999432,679,1,87,127
0.09999999999999432,679,2,87,23
0.09999999999999432,679,3,87,127
0.09999999999999432,679,4,87,23
0.09999999999999432,679,5,87,127
0.09999999999999432,679,6,87,20
0.09999999999999432,679,7,87,127
0.09999999999999432,679,8,87,21
0.10000000000000142,679,9,87,127
0.09999999999999432,679,10,87,20
0.09999999999999432,679,11,87,127
0.10000000000000142,679,12,87,27
0.09999999999999432,679,13,87,127
0.10000000000000142,679,14,87,21
0.10000000000000142,679,15,87,127
0.10000000000000142,680,0,87,21
0.10000000000000142,680,1,87,127
0.10000000000000142,680,2,87,25
0.10000000000000142,680,3,87,127
0.10000000000000142,680,4,87,22
0.10000000000000142,680,5,87,127
0.10000000000000142,680,6,87,23
0.10000000000000142,680,7,87,127
0.10000000000000142,680,8,87,20
0.10000000000000142,680,9,87,127
0.10000000000000142,680,10,87,22
0.10000000000000142,680,11,87,127
0.10000000000000142,680,12,87,25
0.10000000000000142,680,13,87,127
0.10000000000000142,680,14,87,25
0.10000000000000142,680,15,87,127
0.10000000000000142,681,0,87,22
0.10000000000000142,681,1,87,127
0.10000000000000142,681,2,87,27
0.10000000000000142,681,3,87,127
0.10000000000000142,681,4,87,12
0.10000000000000142,681,5,87,127
0.10000000000000142,681,6,87,14
0.10000000000000142,681,7,87,127
0.10000000000000142,681,8,87,13
0.09999999999999432,681,9,87,127
0.10000000000000142,681,10,87,5
0.09999999999999432,681,11,87,127
0.09999999999999432,681,12,87,14
0.10000000000000142,681,13,87,127
0.09999999999999432,681,14,87,14
0.10000000000000142,681,15,87,127
0.09999999999999432,682,0,87,12
0.09999999999999432,682,1,87,127
0.10000000000000142,682,2,87,13
0.09999999999999432,682,3,87,127
0.09999999999999432,682,4,87,13
0.10000000000000853,682,5,87,127
0.09999999999999432,682,6,87,13
0.09999999999999432,682,7,87,127
0.09999999999999432,682,8,87,13
0.09999999999999432,682,9,87,127
0.09999999999999432,682,10,87,15
0.09999999999999432,682,11,87,127
0.09999999999999432,682,12,87,14
0.09999999999999432,682,13,87,127
0.09999999999999432,682,14,87,15
0.10000000000000853,682,15,87,127
0.09999999999999432,683,0,87,14
0.09999999999999432,683,1,87,127
0.09999999999999432,683,2,87,16
0.09999999999999432,683,3,87,127
0.09999999999999432,683,4,87,15
0.09999999999999432,683,5,87,126
0.10000000000000853,683,6,87,13
0.09999999999999432,683,7,87,127
0.09999999999999432,683,8,87,13
0.10000000000000853,683,9,87,127
0.09999999999999432,683,10,87,127
0.10000000000000853,683,11,87,127
0.10000000000000853,683,12,87,127
0.09999999999999432,683,13,87,127
0.10000000000000853,683,14,87,91
0.09999999999999432,683,15,87,127
0.10000000000000853,684,0,87,127
0.09999999999999432,684,1,87,126
0.10000000000000853,684,2,87,127
0.09999999999999432,684,3,87,123
0.09999999999999432,684,4,87,127
0.10000000000000853,684,5,87,127
0.09999999999999432,684,6,87,127
0.10000000000000853,684,7,87,127
0.09999999999999432,684,8,87,127
0.09999999999999432,684,9,87,127
0.09999999999999432,684,10,87,111
0.09999999999999432,684,11,87,127
0.10000000000000853,684,12,87,127
0.09999999999999432,684,13,87,127
0.09999999999999432,684,14,87,127
0.09999999999999432,684,15,87,127
0.09999999999999432,685,0,87,127
0.10000000000000853,685,1,87,125
0.09999999999999432,685,2,87,127
0.10000000000000853,685,3,87,127
0.09999999999999432,685,4,87,127
0.09999999999999432,685,5,87,127
0.10000000000000853,685,6,87,127
0.09999999999999432,685,7,87,127
0.10000000000000853,685,8,87,127
0.09999999999999432,685,9,87,127
0.10000000000000853,685,10,87,127
0.09999999999999432,685,11,87,127
0.10000000000000853,685,12,87,127
0.10000000000000853,685,13,87,124
0.09999999999999432,685,14,87,125
0.10000000000000853,685,15,87,124
0.09999999999999432,686,0,87,127
0.09999999999999432,686,1,87,120
0.09999999999999432,686,2,87,127
0.09999999999999432,686,3,87,123
0.10000000000000853,686,4,87,123
0.09999999999999432,686,5,87,127
0.09999999999999432,686,6,87,121
0.10000000000000853,686,7,87,127
0.09999999999999432,686,8,87,127
0.10000000000000853,686,9,87,127
0.09999999999999432,686,10,87,98
0.10000000000000853,686,11,87,127
0.09999999999999432,686,12,87,123
0.10000000000000853,686,13,87,127
0.10000000000000853,686,14,87,121
0.09999999999999432,686,15,87,127
0.10000000000000853,687,0,87,125
0.09999999999999432,687,1,87,127
0.10000000000000853,687,2,87,118
0.09999999999999432,687,3,87,127
0.10000000000000853,687,4,87,124
0.10000000000000853,687,5,87,127
0.09999999999999432,687,6,87,119
0.10000000000000853,687,7,87,126
0.09999999999999432,687,8,87,116
0.09999999999999432,687,9,87,127
0.09999999999999432,687,10,87,124
0.09999999999999432,687,11,87,127
0.10000000000000853,687,12,87,127
0.09999999999999432,687,13,87,127
0.09999999999999432,687,14,87,127
0.10000000000000853,687,15,87,127
0.09999999999999432,688,0,87,127
0.10000000000000853,688,1,87,127
0.09999999999999432,688,2,87,122
0.10000000000000853,688,3,87,127
0.09999999999999432,688,4,87,127
0.10000000000000853,688,5,87,127
0.10000000000000853,688,6,87,119
0.09999999999999432,688,7,87,127
0.10000000000000853,688,8,87,107
0.09999999999999432,688,9,87,127
0.10000000000000853,688,10,87,119
0.09999999999999432,688,11,87,127
0.09999999999999432,688,12,87,116
0.09999999999999432,688,13,87,120
0.09999999999999432,688,14,87,127
0.10000000000000853,688,15,87,109
0.09999999999999432,689,0,87,114
0.09999999999999432,689,1,87,114
0.09999999999999432,689,2,87,107
0.09999999999999432,689,3,87,123
0.10000000000000853,689,4,87,127
0.09999999999999432,689,5,87,122
0.10000000000000853,689,6,87,88
0.10000000000000853,689,7,87,111
0.09999999999999432,689,8,87,121
0.10000000000000853,689,9,87,113
0.09999999999999432,689,10,87,97
0.10000000000002274,689,11,87,29
0.10000000000002274,689,12,87,114
0.09999999999999432,689,13,87,26
0.09999999999999432,689,14,87,109
0.10000000000002274,689,15,87,24
0.09999999999999432,690,0,87,115
0.09999999999999432,690,1,87,23
0.10000000000002274,690,2,87,117
0.09999999999999432,690,3,87,23
0.09999999999999432,690,4,87,125
0.09999999999999432,690,5,87,24
0.09999999999999432,690,6,87,125
0.09999999999999432,690,7,87,22
0.09999999999999432,690,8,87,127
0.09999999999999432,690,9,87,21
0.09999999999999432,690,10,87,127
0.09999999999999432,690,11,87,22
0.09999999999999432,690,12,87,124
0.09999999999999432,690,13,87,23
0.09999999999999432,690,14,87,107
0.09999999999999432,690,15,87,25
0.09999999999999432,691,0,87,109
0.09999999999999432,691,1,87,20
0.09999999999999432,691,2,87,114
0.09999999999999432,691,3,87,26
0.09999999999999432,691,4,87,115
0.09999999999999432,691,5,87,14
0.09999999999999432,691,6,87,112
0.10000000000002274,691,7,87,23
0.09999999999999432,691,8,87,106
0.09999999999999432,691,9,87,22
0.10000000000002274,691,10,87,111
0.09999999999999432,691,11,87,21
0.09999999999999432,691,12,87,119
0.10000000000002274,691,13,87,23
0.09999999999999432,691,14,87,110
0.09999999999999432,691,15,87,27
0.10000000000002274,692,0,87,114
0.09999999999999432,692,1,87,24
0.09999999999999432,692,2,87,102
0.09999999999999432,692,3,87,9
0.09999999999999432,692,4,87,114
0.09999999999999432,692,5,87,19
0.09999999999999432,692,6,87,102
0.09999999999999432,692,7,87,23
0.10000000000002274,692,8,87,119
0.09999999999999432,692,9,87,28
0.09999999999999432,692,10,87,117
0.10000000000002274,692,11,87,23
0.09999999999999432,692,12,87,111
0.09999999999999432,692,13,87,18
0.10000000000002274,692,14,87,111
0.09999999999999432,692,15,87,23
0.09999999999999432,693,0,87,105
0.09999999999999432,693,1,87,22
0.09999999999999432,693,2,87,110
0.10000000000002274,693,3,87,22
0.09999999999999432,693,4,87,109
0.09999999999999432,693,5,87,20
0.10000000000002274,693,6,87,123
0.09999999999999432,693,7,87,25
0.09999999999999432,693,8,87,127
0.10000000000002274,693,9,87,22
0.09999999999999432,693,10,87,118
0.09999999999999432,693,11,87,23
0.09999999999999432,693,12,87,122
0.09999999999999432,693,13,87,23
0.09999999999999432,693,14,87,103
0.09999999999999432,693,15,87,20
0.09999999999999432,694,0,87,80
0.09999999999999432,694,1,87,19
0.09999999999999432,694,2,87,97
0.10000000000002274,694,3,87,18
0.09999999999999432,694,4,87,89
0.09999999999999432,694,5,87,15
0.10000000000002274,694,6,87,110
0.09999999999999432,694,7,87,17
0.09999999999999432,694,8,87,101
0.10000000000002274,694,9,87,19
0.09999999999999432,694,10,87,110
0.09999999999999432,694,11,87,20
0.09999999999999432,694,12,87,104
0.09999999999999432,694,13,87,20
0.10000000000002274,694,14,87,105
0.09999999999999432,694,15,87,21
0.09999999999999432,695,0,87,96
0.10000000000002274,695,1,87,17
0.09999999999999432,695,2,87,62
0.09999999999999432,695,3,87,15
0.10000000000002274,695,4,87,101
0.09999999999999432,695,5,87,17
0.09999999999999432,695,6,87,108
0.10000000000002274,695,7,87,17
0.09999999999999432,695,8,87,95
0.09999999999999432,695,9,87,19
0.09999999999999432,695,10,87,96
0.09999999999999432,695,11,87,16
0.10000000000002274,695,12,87,97
0.09999999999999432,695,13,87,16
0.10000000000002274,695,14,87,110
0.10000000000002274,695,15,87,19
0.09999999999999432,696,0,87,90
0.09999999999999432,696,1,87,20
0.10000000000002274,696,2,87,93
0.09999999999999432,696,3,87,15
0.09999999999999432,696,4,87,97
0.09999999999999432,696,5,87,21
0.09999999999999432,696,6,87,97
0.09999999999999432,696,7,87,14
0.09999999999999432,696,8,87,91
0.09999999999999432,696,9,87,21
0.09999999999999432,696,10,87,122
0.09999999999999432,696,11,87,19
0.10000000000002274,696,12,87,97
0.09999999999999432,696,13,87,12
0.09999999999999432,696,14,87,93
0.10000000000002274,696,15,87,21
0.09999999999999432,697,0,87,104
0.09999999999999432,697,1,87,16
0.10000000000002274,697,2,87,121
0.09999999999999432,697,3,87,16
0.09999999999999432,697,4,87,97
0.09999999999999432,697,5,87,18
0.09999999999999432,697,6,87,97
0.10000000000002274,697,7,87,16
0.09999999999999432,697,8,87,104
0.09999999999999432,697,9,87,17
0.09999999999999432,697,10,87,112
0.09999999999999432,697,11,87,2
0.09999999999999432,697,12,87,108
0.10000000000002274,697,13,87,103
0.09999999999999432,697,14,87,100
0.09999999999999432,697,15,87,118
0.09999999999999998,698,0,59,19
0.036363636363636376,698,1,59,84
0.09999999999999998,698,2,59,107
0.10000000000000009,698,3,59,103
0.10000000000000009,698,4,59,76
0.09999999999999987,698,5,59,52
0.10000000000000009,698,6,59,91
0.10000000000000009,698,7,59,89
0.09999999999999987,698,8,59,63
0.10000000000000009,698,9,59,73
0.10000000000000009,698,10,59,75
0.09999999999999964,698,11,59,61
0.09999999999999964,698,12,59,63
0.09999999999999964,698,13,59,69
0.10000000000000009,698,14,59,75
0.10000000000000009,698,15,59,64
0.10000000000000009,699,0,59,71
0.10000000000000053,699,1,59,72
0.09999999999999964,699,2,59,46
0.10000000000000053,699,3,59,28
0.09999999999999964,699,4,59,64
0.10000000000000053,699,5,59,67
0.10000000000000053,699,6,59,55
0.09999999999999964,699,7,59,56
0.09999999999999964,699,8,59,68
0.10000000000000053,699,9,59,83
0.10000000000000053,699,10,59,48
0.09999999999999964,699,11,59,44
0.10000000000000053,699,12,59,59
0.09999999999999964,699,13,59,40
0.09999999999999964,699,14,59,36
0.09999999999999964,699,15,59,37
0.10000000000000053,700,0,59,54
0.09999999999999964,700,1,59,53
0.09999999999999964,700,2,59,32
0.09999999999999964,700,3,59,41
0.09999999999999964,700,4,59,63
0.09999999999999964,700,5,59,24
0.09999999999999964,700,6,59,48
0.09999999999999964,700,7,59,38
0.09999999999999964,700,8,59,43
0.09999999999999964,700,9,59,34
0.09999999999999964,700,10,59,34
0.09999999999999964,700,11,59,23
0.10000000000000142,700,12,59,44
0.09999999999999964,700,13,59,35
0.09999999999999964,700,14,59,46
0.09999999999999964,700,15,59,55
0.09999999999999964,701,0,59,36
0.09999999999999964,701,1,59,45
0.09999999999999964,701,2,59,44
0.09999999999999964,701,3,59,34
0.09999999999999964,701,4,59,32
0.09999999999999964,701,5,59,26
0.09999999999999964,701,6,59,66
0.09999999999999964,701,7,59,70
0.09999999999999964,701,8,59,63
0.09999999999999964,701,9,59,56
0.09999999999999964,701,10,59,29
0.09999999999999964,701,11,59,36
0.09999999999999964,701,12,59,59
0.09999999999999964,701,13,59,46
0.10000000000000142,701,14,59,23
0.09999999999999964,701,15,59,48
0.09999999999999964,702,0,59,37
0.09999999999999964,702,1,59,71
0.10000000000000142,702,2,59,53
0.10000000000000142,702,3,59,51
0.09999999999999787,702,4,59,36
0.10000000000000142,702,5,59,41
0.10000000000000142,702,6,59,44
0.09999999999999787,702,7,59,32
0.10000000000000142,702,8,59,43
0.09999999999999787,702,9,59,29
0.10000000000000142,702,10,59,35
0.09999999999999787,702,11,59,24
0.036363636363635266,702,12,59,60
0.10000000000000142,702,13,59,37
0.10000000000000142,702,14,59,35
0.10000000000000142,702,15,59,34
0.10000000000000142,703,0,59,44
0.10000000000000142,703,1,59,34
0.09999999999999787,703,2,59,48
0.09999999999999787,703,3,59,39
0.09999999999999787,703,4,59,41
0.09999999999999787,703,5,59,39
0.013636363636361892,703,6,59,52
0.10000000000000142,703,7,59,63
0.10000000000000142,703,8,59,51
0.10000000000000142,703,9,59,34
0.10000000000000142,703,10,59,26
0.10000000000000142,703,11,59,73
0.09999999999999787,703,12,59,58
0.10000000000000142,703,13,59,82
0.09999999999999787,703,14,59,62
0.10000000000000142,703,15,59,38
0.10000000000000142,704,0,59,48
0.10000000000000142,704,1,59,59
0.10000000000000142,704,2,59,51
0.09999999999999787,704,3,59,76
0.10000000000000142,704,4,59,74
0.09999999999999787,704,5,59,59
0.10000000000000142,704,6,59,44
0.06818181818182012,704,7,59,47
0.09999999999999787,704,8,59,46
0.09999999999999787,704,9,59,39
0.09999999999999787,704,10,59,47
0.10000000000000142,704,11,59,49
0.10000000000000142,704,12,59,63
0.09999999999999787,704,13,59,46
0.10000000000000142,704,14,59,55
0.09999999999999787,704,15,59,72
0.10000000000000142,705,0,59,64
0.10000000000000142,705,1,59,65
0.10000000000000142,705,2,59,57
0.10000000000000142,705,3,59,47
0.09999999999999787,705,4,59,51
0.09999999999999787,705,5,59,44
0.09999999999999787,705,6,59,77
0.09999999999999787,705,7,59,47
0.10000000000000142,705,8,59,79
0.09999999999999787,705,9,59,77
0.09999999999999787,705,10,59,51
0.10000000000000142,705,11,59,44
0.09999999999999787,705,12,59,38
0.10000000000000142,705,13,59,51
0.09999999999999787,705,14,59,78
0.09999999999999787,705,15,59,64
0.09999999999999787,706,0,59,76
0.09999999999999787,706,1,59,51
0.10000000000000142,706,2,59,27
0.10000000000000142,706,3,59,65
0.10000000000000142,706,4,59,49
0.10000000000000142,706,5,59,34
0.10000000000000142,706,6,59,47
0.10000000000000142,706,7,59,40
0.06818181818182012,706,8,59,49
0.10000000000000142,706,9,59,92
0.10000000000000142,706,10,59,90
0.06818181818182012,706,11,59,89
0.10000000000000142,706,12,59,62
0.10000000000000142,706,13,59,71
0.09999999999999432,706,14,59,44
0.10000000000000142,706,15,59,56
0.10000000000000142,707,0,59,72
0.09999999999999432,707,1,59,40
0.09999999999999432,707,2,59,27
0.10000000000000142,707,3,59,47
0.09999999999999432,707,4,59,28
0.10000000000000142,707,5,59,27
0.09999999999999432,707,6,59,47
0.09999999999999432,707,7,59,52
0.09999999999999432,707,8,59,49
0.10000000000000142,707,9,59,35
0.10000000000000142,707,10,59,40
0.10000000000000142,707,11,59,64
0.10000000000000142,707,12,59,42
0.09999999999999432,707,13,59,37
0.10000000000000142,707,14,59,24
0.10000000000000142,707,15,59,25
0.09999999999999432,708,0,59,52
0.09999999999999432,708,1,59,16
0.004545454545450411,708,2,59,34
0.10000000000000142,708,3,59,54
0.10000000000000142,708,4,59,40
0.10000000000000142,708,5,59,54
0.09999999999999432,708,6,59,36
0.10000000000000142,708,7,59,38
0.09999999999999432,708,8,59,30
0.10000000000000142,708,9,59,25
0.10000000000000142,708,10,59,38
0.10000000000000142,708,11,59,50
0.10000000000000142,708,12,59,29
0.10000000000000142,708,13,59,39
0.10000000000000142,708,14,59,25
0.10000000000000142,708,15,59,19
0.10000000000000142,709,0,59,61
0.10000000000000142,709,1,59,24
0.10000000000000142,709,2,59,37
0.10000000000000142,709,3,59,36
0.10000000000000142,709,4,59,39
0.09999999999999432,709,5,59,35
0.06818181818181301,709,6,59,46
0.10000000000000142,709,7,59,59
0.09999999999999432,709,8,59,22
0.01590909090909065,709,9,59,43
0.10000000000000142,709,10,59,58
0.10000000000000142,709,11,59,31
0.09999999999999432,709,12,59,35
0.10000000000000142,709,13,59,38
0.10000000000000142,709,14,59,40
0.10000000000000142,709,15,59,49
0.10000000000000142,710,0,59,27
0.10000000000000142,710,1,59,25
0.09999999999999432,710,2,59,24
0.10000000000000142,710,3,59,57
0.10000000000000142,710,4,59,43
0.10000000000000142,710,5,59,29
0.10000000000000142,710,6,59,47
0.09999999999999432,710,7,59,27
0.10000000000000142,710,8,59,50
0.10000000000000142,710,9,59,68
0.10000000000000142,710,10,59,54
0.10000000000000142,710,11,59,43
0.10000000000000142,710,12,59,26
0.09999999999999432,710,13,59,28
0.10000000000000142,710,14,59,81
0.10000000000000142,710,15,59,38
0.10000000000000142,711,0,59,38
0.10000000000000142,711,1,59,47
0.10000000000000142,711,2,59,66
0.10000000000000142,711,3,59,42
0.09999999999999432,711,4,59,37
0.10000000000000142,711,5,59,28
0.10000000000000142,711,6,59,34
0.10000000000000142,711,7,59,41
0.10000000000000142,711,8,59,27
0.09999999999999432,711,9,59,41
0.09999999999999432,711,10,59,48
0.09999999999999432,711,11,59,30
0.10000000000000142,711,12,59,47
0.09999999999999432,711,13,59,78
0.10000000000000142,711,14,59,32
0.10000000000000142,711,15,59,54
0.10000000000000142,712,0,59,30
0.10000000000000142,712,1,59,32
0.09999999999999432,712,2,59,39
0.10000000000000142,712,3,59,23
0.02499999999999858,712,4,59,68
0.10000000000000142,712,5,59,84
0.10000000000000142,712,6,59,48
0.10000000000000142,712,7,59,55
0.10000000000000142,712,8,59,74
0.10000000000000142,712,9,59,39
0.10000000000000142,712,10,59,27
0.09999999999999432,712,11,59,45
0.10000000000000142,712,12,59,34
0.09999999999999432,712,13,59,31
0.10000000000000142,712,14,59,49
0.10000000000000142,712,15,59,48
0.10000000000000142,713,0,59,57
0.10000000000000142,713,1,59,38
0.09999999999999432,713,2,59,41
0.10000000000000142,713,3,59,62
0.10000000000000142,713,4,59,43
0.10000000000000142,713,5,59,57
0.10000000000000142,713,6,59,27
0.10000000000000142,713,7,59,44
0.10000000000000142,713,8,59,56
0.10000000000000142,713,9,59,22
0.004545454545457517,713,10,59,36
0.10000000000000142,713,11,59,61
0.10000000000000142,713,12,59,50
0.10000000000000142,713,13,59,53
0.10000000000000142,713,14,59,49
0.10000000000000142,713,15,59,41
0.09999999999999432,714,0,59,38
0.10000000000000142,714,1,59,18
0.10000000000000142,714,2,59,67
0.09999999999999432,714,3,59,29
0.10000000000000142,714,4,59,37
0.09999999999999432,714,5,59,16
0.09999999999999432,714,6,59,23
0.09999999999999432,714,7,59,35
0.10000000000000142,714,8,59,25
0.09999999999999432,714,9,59,32
0.10000000000000142,714,10,59,39
0.10000000000000142,714,11,59,34
0.10000000000000142,714,12,59,30
0.10000000000000142,714,13,59,49
0.09999999999999432,714,14,59,23
0.10000000000000142,714,15,59,42
0.09999999999999432,715,0,59,29
0.10000000000000853,715,1,59,43
0.09999999999999432,715,2,59,58
0.09999999999999432,715,3,59,42
0.09999999999999432,715,4,59,63
0.09999999999999432,715,5,59,29
0.09999999999999432,715,6,59,36
0.10000000000000853,715,7,59,50
0.09999999999999432,715,8,59,29
0.09999999999999432,715,9,59,52
0.09999999999999432,715,10,59,29
0.09999999999999432,715,11,59,41
0.09999999999999432,715,12,59,45
0.09999999999999432,715,13,59,25
0.10000000000000853,715,14,59,72
0.10000000000000853,715,15,59,65
0.10000000000000853,716,0,59,42
0.09999999999999432,716,1,59,38
0.09999999999999432,716,2,59,54
0.09999999999999432,716,3,59,25
0.10000000000000853,716,4,59,39
0.10000000000000853,716,5,59,33
0.09999999999999432,716,6,59,42
0.10000000000000853,716,7,59,56
0.09999999999999432,716,8,59,48
0.09999999999999432,716,9,59,43
0.10000000000000853,716,10,59,62
0.10000000000000853,716,11,59,69
0.09999999999999432,716,12,59,33
0.10000000000000853,716,13,59,42
0.10000000000000853,716,14,59,30
0.09999999999999432,716,15,59,35
0.10000000000000853,717,0,59,19
0.09999999999999432,717,1,59,31
0.09999999999999432,717,2,59,44
0.09999999999999432,717,3,59,34
0.09999999999999432,717,4,59,6
0.09999999999999432,717,5,59,65
0.10000000000000853,717,6,59,59
0.10000000000000853,717,7,59,41
0.09999999999999432,717,8,59,38
0.09999999999999432,717,9,59,32
0.10000000000000853,717,10,59,42
0.10000000000000853,717,11,59,51
0.09999999999999432,717,12,59,8
0.10000000000000853,717,13,59,54
0.09999999999999432,717,14,59,47
0.09999999999999432,717,15,59,45
0.10000000000000853,718,0,59,61
0.10000000000000853,718,1,59,46
0.09999999999999432,718,2,59,40
0.09999999999999432,718,3,59,50
0.09999999999999432,718,4,59,51
0.10000000000000853,718,5,59,43
0.09999999999999432,718,6,59,42
0.09999999999999432,718,7,59,30
0.10000000000000853,718,8,59,7
0.10000000000000853,718,9,59,34
0.09999999999999432,718,10,59,66
0.09999999999999432,718,11,59,46
0.10000000000000853,718,12,59,71
0.10000000000000853,718,13,59,54
0.09999999999999432,718,14,59,54
0.09999999999999432,718,15,59,66
0.06818181818181301,719,0,59,55
0.09999999999999432,719,1,59,50
0.09999999999999432,719,2,59,59
0.09999999999999432,719,3,59,58
0.10000000000000853,719,4,59,49
0.10000000000000853,719,5,59,48
0.10000000000000853,719,6,59,31
0.10000000000000853,719,7,59,54
0.05909090909091219,719,8,59,74
0.10000000000000853,719,9,59,38
0.09999999999999432,719,10,59,42
0.09999999999999432,719,11,59,50
0.09999999999999432,719,12,59,45
0.09999999999999432,719,13,59,17
0.09999999999999432,719,14,59,38
0.10000000000000853,719,15,59,54
0.09999999999999432,720,0,59,48
0.10000000000000853,720,1,59,58
0.09999999999999432,720,2,59,27
0.10000000000000853,720,3,59,38
0.09999999999999432,720,4,59,50
0.09999999999999432,720,5,59,66
0.10000000000000853,720,6,59,55
0.10000000000000853,720,7,59,49
0.09999999999999432,720,8,59,62
0.10000000000000853,720,9,59,43
0.09999999999999432,720,10,59,42
0.10000000000000853,720,11,59,45
0.09999999999999432,720,12,59,25
0.09999999999999432,720,13,59,48
0.09999999999999432,720,14,59,68
0.09999999999999432,720,15,59,47
0.10000000000000853,721,0,59,49
0.06818181818182723,721,1,59,65
0.10000000000000853,721,2,59,31
0.10000000000000853,721,3,59,41
0.09999999999999432,721,4,59,8
0.025000000000005684,721,5,59,93
0.09999999999999432,721,6,59,40
0.06590909090908781,721,7,59,43
0.09999999999999432,721,8,59,59
0.10000000000000853,721,9,59,27
0.09999999999999432,721,10,59,42
0.10000000000000853,721,11,59,54
0.09999999999999432,721,12,59,63
0.10000000000000853,721,13,59,53
0.10000000000000853,721,14,59,41
0.09999999999999432,721,15,59,44
0.10000000000000853,722,0,59,46
0.10000000000000853,722,1,59,57
0.09999999999999432,722,2,59,80
0.10000000000000853,722,3,59,48
0.10000000000000853,722,4,59,52
0.10000000000000853,722,5,59,58
0.09999999999999432,722,6,59,38
0.09999999999999432,722,7,59,84
0.10000000000000853,722,8,59,63
0.10000000000000853,722,9,59,78
0.09999999999999432,722,10,59,42
0.10000000000000853,722,11,59,66
0.10000000000000853,722,12,59,70
0.10000000000000853,722,13,59,66
0.09999999999999432,722,14,59,81
0.09999999999999432,722,15,59,57
0.09999999999999432,723,0,59,41
0.10000000000000853,723,1,59,49
0.10000000000000853,723,2,59,59
0.10000000000000853,723,3,59,54
0.09999999999999432,723,4,59,79
0.09999999999999432,723,5,59,68
0.09999999999999432,723,6,59,77
0.09999999999999432,723,7,59,45
0.09999999999999432,723,8,59,47
0.09999999999999432,723,9,59,58
0.09999999999999432,723,10,59,49
0.09999999999999432,723,11,59,48
0.10000000000000853,723,12,59,54
0.10000000000000853,723,13,59,44
0.10000000000000853,723,14,59,59
0.10000000000000853,723,15,59,45
0.10000000000000853,724,0,59,81
0.09999999999999432,724,1,59,46
0.09999999999999432,724,2,59,54
0.10000000000000853,724,3,59,61
0.09999999999999432,724,4,59,53
0.10000000000000853,724,5,59,63
0.10000000000000853,724,6,59,68
0.09999999999999432,724,7,59,52
0.09999999999999432,724,8,59,51
0.09999999999999432,724,9,59,72
0.09999999999999432,724,10,59,80
0.09999999999999432,724,11,59,51
0.09999999999999432,724,12,59,30
0.10000000000000853,724,13,59,58
0.10000000000000853,724,14,59,61
0.10000000000000853,724,15,59,54
0.10000000000000853,725,0,59,91
0.10000000000000853,725,1,59,70
0.10000000000000853,725,2,59,63
0.09999999999999432,725,3,59,80
0.09999999999999432,725,4,59,53
0.09999999999999432,725,5,59,89
0.09999999999999432,725,6,59,68
0.09999999999999432,725,7,59,87
0.09999999999999432,725,8,59,73
0.09999999999999432,725,9,59,65
0.09999999999999432,725,10,59,77
0.10000000000000853,725,11,59,45
0.09999999999999432,725,12,59,60
0.09999999999999432,725,13,59,67
0.09999999999999432,725,14,59,59
0.10000000000000853,725,15,59,52
0.10000000000000853,726,0,59,24
0.10000000000000853,726,1,59,35
0.10000000000000853,726,2,59,36
0.09999999999999432,726,3,59,35
0.09999999999999432,726,4,59,54
0.09999999999999432,726,5,59,44
0.10000000000000853,726,6,59,62
0.09999999999999432,726,7,59,48
0.09999999999999432,726,8,59,44
0.09999999999999432,726,9,59,37
0.09999999999999432,726,10,59,38
0.09999999999999432,726,11,59,50
0.09999999999999432,726,12,59,29
0.09999999999999432,726,13,59,41
0.10000000000000853,726,14,59,34
0.09999999999999432,726,15,59,44
0.056818181818186986,727,0,59,51
0.09999999999999432,727,1,59,37
0.10000000000000853,727,2,59,36
0.09999999999999432,727,3,59,25
0.09999999999999432,727,4,59,38
0.09999999999999432,727,5,59,27
0.09999999999999432,727,6,59,27
0.09999999999999432,727,7,59,45
0.09999999999999432,727,8,59,47
0.10000000000002274,727,9,59,48
0.09999999999999432,727,10,59,43
0.09999999999999432,727,11,59,53
0.09999999999999432,727,12,59,62
0.09999999999999432,727,13,59,60
0.09999999999999432,727,14,59,40
0.09999999999999432,727,15,59,46
0.10000000000002274,728,0,59,38
0.09999999999999432,728,1,59,61
0.10000000000002274,728,2,59,53
0.09999999999999432,728,3,59,51
0.09999999999999432,728,4,59,58
0.09999999999999432,728,5,59,46
0.10000000000002274,728,6,59,44
0.09999999999999432,728,7,59,20
0.004545454545450411,728,8,59,28
0.09999999999999432,728,9,59,37
0.10000000000002274,728,10,59,37
0.09999999999999432,728,11,59,41
0.09999999999999432,728,12,59,48
0.09999999999999432,728,13,59,38
0.09999999999999432,728,14,59,39
0.10000000000002274,728,15,59,43
0.06818181818181301,729,0,59,45
0.09999999999999432,729,1,59,44
0.10000000000002274,729,2,59,47
0.09999999999999432,729,3,59,33
0.09999999999999432,729,4,59,32
0.10000000000002274,729,5,59,46
0.10000000000002274,729,6,59,53
0.09999999999999432,729,7,59,42
0.09999999999999432,729,8,59,35
0.09999999999999432,729,9,59,44
0.09999999999999432,729,10,59,36
0.09999999999999432,729,11,59,38
0.09999999999999432,729,12,59,40
0.09999999999999432,729,13,59,25
0.06818181818181301,729,14,59,34
0.09999999999999432,729,15,59,58
0.09999999999999432,730,0,59,45
0.09999999999999432,730,1,59,31
0.09999999999999432,730,2,59,37
0.09999999999999432,730,3,59,34
0.09999999999999432,730,4,59,47
0.10000000000002274,730,5,59,34
0.09999999999999432,730,6,59,34
0.09999999999999432,730,7,59,49
0.10000000000002274,730,8,59,27
0.10000000000002274,730,9,59,51
0.09999999999999432,730,10,59,49
0.09999999999999432,730,11,59,31
0.09999999999999432,730,12,59,46
0.09999999999999432,730,13,59,27
0.09999999999999432,730,14,59,56
0.09999999999999432,730,15,59,52
0.09999999999999432,731,0,59,49
0.10000000000002274,731,1,59,61
0.09999999999999432,731,2,59,45
0.09999999999999432,731,3,59,50
0.10000000000002274,731,4,59,46
0.09999999999999432,731,5,59,36
0.09999999999999432,731,6,59,48
0.09999999999999432,731,7,59,47
0.09999999999999432,731,8,59,46
0.09999999999999432,731,9,59,31
0.09999999999999432,731,10,59,41
0.09999999999999432,731,11,59,44
0.10000000000002274,731,12,59,29
0.09999999999999432,731,13,59,43
0.10000000000002274,731,14,59,37
0.09999999999999432,731,15,59,28
0.09999999999999432,732,0,59,52
0.10000000000002274,732,1,59,86
0.09999999999999432,732,2,59,47
0.09999999999999432,732,3,59,32
0.09999999999999432,732,4,59,45
0.10000000000002274,732,5,59,53
0.09999999999999432,732,6,59,21
0.09999999999999432,732,7,59,45
0.09999999999999432,732,8,59,43
0.09999999999999432,732,9,59,34
0.09999999999999432,732,10,59,45
0.09999999999999432,732,11,59,29
0.10000000000002274,732,12,59,26
0.10000000000002274,732,13,59,24
0.09999999999999432,732,14,59,23
0.09999999999999432,732,15,59,26
0.09999999999999432,733,0,59,35
0.09999999999999432,733,1,59,57
0.09999999999999432,733,2,59,62
0.09999999999999432,733,3,59,32
0.09999999999999432,733,4,59,50
0.09999999999999432,733,5,59,44
0.09999999999999432,733,6,59,29
0.09999999999999432,733,7,59,25
0.09999999999999432,733,8,59,32
0.09999999999999432,733,9,59,34
0.09999999999999432,733,10,59,40
0.09999999999999432,733,11,59,34
0.09999999999999432,733,12,59,43
0.10000000000002274,733,13,59,36
0.10000000000002274,733,14,59,36
0.09999999999999432,733,15,59,38
0.09999999999999432,734,0,59,35
0.09999999999999432,734,1,59,27
0.09999999999999432,734,2,59,23
0.09999999999999432,734,3,59,41
0.09999999999999432,734,4,59,47
0.09999999999999432,734,5,59,45
0.09999999999999432,734,6,59,44
0.09999999999999432,734,7,59,23
0.09999999999999432,734,8,59,34
0.09999999999999432,734,9,59,29
0.10000000000002274,734,10,59,27
0.09999999999999432,734,11,59,29
0.09999999999999432,734,12,59,23
0.09999999999999432,734,13,59,53
0.09999999999999432,734,14,59,52
0.09999999999999432,734,15,59,45
0.09999999999999432,735,0,59,45
0.10000000000002274,735,1,59,34
0.10000000000002274,735,2,59,35
0.09999999999999432,735,3,59,53
0.09999999999999432,735,4,59,43
0.09999999999999432,735,5,59,43
0.10000000000002274,735,6,59,41
0.09999999999999432,735,7,59,40
0.09999999999999432,735,8,59,35
0.10000000000002274,735,9,59,42
0.09999999999999432,735,10,59,47
0.09999999999999432,735,11,59,41
0.10000000000002274,735,12,59,34
0.09999999999999432,735,13,59,32
0.09999999999999432,735,14,59,49
0.10000000000002274,735,15,59,48
0.10000000000002274,736,0,59,46
0.09999999999999432,736,1,59,39
0.09999999999999432,736,2,59,20
0.10000000000002274,736,3,59,60
0.09999999999999432,736,4,59,43
0.09999999999999432,736,5,59,33
0.09999999999999432,736,6,59,25
0.024999999999977263,736,7,59,42
0.09999999999999432,736,8,59,39
0.09999999999999432,736,9,59,52
0.09999999999999432,736,10,59,28
0.09999999999999432,736,11,59,35
0.09999999999999432,736,12,59,33
0.09999999999999432,736,13,59,38
0.09999999999999432,736,14,59,53
0.09999999999999432,736,15,59,8
0.09999999999999432,737,0,59,23
0.09999999999999432,737,1,59,36
0.09999999999999432,737,2,59,40
0.09999999999999432,737,3,59,44
0.10000000000002274,737,4,59,56
0.09999999999999432,737,5,59,26
0.10000000000002274,737,6,59,1
0.09999999999999432,737,7,59,43
0.09999999999999432,737,8,59,37
0.09999999999999432,737,9,59,4
0.10000000000002274,737,10,59,35
0.056818181818186986,737,11,59,53
0.09999999999999432,737,12,59,49
0.056818181818186986,737,13,59,45
0.10000000000002274,737,14,59,24
0.09999999999999432,737,15,59,53
0.09999999999999432,738,0,59,32
0.09999999999999432,738,1,59,63
0.10000000000002274,738,2,59,13
0.09999999999999432,738,3,59,42
0.10000000000002274,738,4,59,74
0.09999999999999432,738,5,59,52
0.10000000000002274,738,6,59,60
0.09999999999999432,738,7,59,42
0.09999999999999432,738,8,59,58
0.09999999999999432,738,9,59,71
0.09999999999999432,738,10,59,88
0.09999999999999432,738,11,59,57
0.09999999999999432,738,12,59,55
0.09999999999999432,738,13,59,39
0.09999999999999432,738,14,59,35
0.02727272727273089,738,15,59,65
0.09999999999999432,739,0,59,47
0.09999999999999432,739,1,59,47
0.10000000000002274,739,2,59,29
0.09999999999999432,739,3,64,31
0.10000000000000142,739,4,64,39
0.10000000000000142,739,5,64,1
0.10000000000000142,739,6,64,1
0.10000000000000142,739,7,64,26
0.10000000000000142,739,8,64,7
0.10000000000000853,739,9,64,18
0.09999999999999432,739,10,64,18
0.09999999999999432,739,11,64,12
0.09999999999999432,739,12,64,36
0.10000000000000853,739,13,64,37
0.10000000000000853,739,14,64,23
0.10000000000000853,739,15,64,28
0.09999999999999432,740,0,64,37
0.10000000000000853,740,1,64,35
0.09999999999999432,740,2,64,31
0.10000000000000853,740,3,64,27
0.10000000000000853,740,4,64,2
0.09999999999999432,740,5,64,7
0.09999999999999432,740,6,64,11
0.09999999999999432,740,7,64,10
0.09999999999999432,740,8,64,6
0.09999999999999432,740,9,64,9
0.09999999999999432,740,10,64,2
0.10000000000000853,740,11,64,2
0.09999999999999432,740,12,64,16
0.10000000000000853,740,13,64,18
0.09999999999999432,740,14,64,9
0.09999999999999432,740,15,64,5
0.10000000000000853,741,0,64,2
0.09999999999999432,741,1,64,4
0.10000000000000853,741,2,64,6
0.09999999999999432,741,3,64,1
0.10000000000000853,741,4,64,1
0.10000000000000853,741,5,64,5
0.10000000000000853,741,6,64,2
0.10000000000000853,741,7,64,9
0.09999999999999432,741,8,64,8
0.09999999999999432,741,9,64,8
0.09999999999999432,741,10,64,9
0.10000000000000853,741,11,64,4
0.09999999999999432,741,12,64,2
0.10000000000000853,741,13,64,6
0.09999999999999432,741,14,64,1
0.09999999999999432,741,15,64,22
0.10000000000000853,742,0,64,20
0.09999999999999432,742,1,64,7
0.10000000000000853,742,2,64,9
0.10000000000000853,742,3,64,6
0.09999999999999432,742,4,64,6
0.10000000000000853,742,5,64,10
0.09999999999999432,742,6,64,3
0.09999999999999432,742,7,64,14
0.10000000000000853,742,8,64,18
0.10000000000000853,742,9,64,26
0.10000000000000853,742,10,64,21
0.09999999999999432,742,11,64,40
0.09999999999999432,742,12,64,40
0.09999999999999432,742,13,64,54
0.10000000000000853,742,14,64,46
0.10000000000000853,742,15,64,29
0.10000000000000853,743,0,64,34
0.10000000000000853,743,1,64,47
0.09999999999999432,743,2,64,25
0.09999999999999432,743,3,64,19
0.10000000000000853,743,4,64,11
0.09999999999999432,743,5,64,12
0.09999999999999432,743,6,64,42
0.09999999999999432,743,7,64,28
0.10000000000000853,743,8,64,33
0.10000000000000853,743,9,64,25
0.09999999999999432,743,10,64,9
0.10000000000000853,743,11,64,6
0.09999999999999432,743,12,64,15
0.09999999999999432,743,13,64,23
0.09999999999999432,743,14,64,27
0.09999999999999432,743,15,64,2
0.09999999999999432,744,0,64,9
0.09999999999999432,744,1,64,10
0.10000000000000853,744,2,64,16
0.10000000000000853,744,3,64,16
0.10000000000000853,744,4,64,11
0.09999999999999432,744,5,64,18
0.10000000000000853,744,6,64,9
0.10000000000000853,744,7,64,1
0.10000000000000853,744,8,64,12
0.10000000000000853,744,9,64,1
0.10000000000000853,744,10,64,12
0.09999999999999432,744,11,64,12
0.09999999999999432,744,12,64,7
0.09999999999999432,744,13,64,13
0.09999999999999432,744,14,64,12
0.09999999999999432,744,15,64,9
0.09999999999999432,745,0,64,21
0.09999999999999432,745,1,64,2
0.09999999999999432,745,2,64,10
0.10000000000000853,745,3,64,5
0.09999999999999432,745,4,64,2
0.09999999999999432,745,5,64,7
0.10000000000000853,745,6,64,9
0.09999999999999432,745,7,64,1
0.10000000000000853,745,8,64,2
0.10000000000000853,745,9,64,16
0.09999999999999432,745,10,64,9
0.10000000000000853,745,11,64,12
0.10000000000000853,745,12,64,4
0.09999999999999432,745,13,64,30
0.09999999999999432,745,14,64,12
0.10000000000000853,745,15,64,6
0.09999999999999432,746,0,64,12
0.10000000000000853,746,1,64,23
0.10000000000000853,746,2,64,24
0.09999999999999432,746,3,64,5
0.09999999999999432,746,4,64,9
0.10000000000000853,746,5,64,27
0.09999999999999432,746,6,64,12
0.09999999999999432,746,7,64,24
0.09999999999999432,746,8,64,18
0.10000000000000853,746,9,64,18
0.10000000000000853,746,10,64,25
0.10000000000000853,746,11,64,9
0.10000000000000853,746,12,64,24
0.09999999999999432,746,13,64,16
0.09999999999999432,746,14,64,23
0.09999999999999432,746,15,64,28
0.09999999999999432,747,0,64,12
0.10000000000000853,747,1,64,6
0.09999999999999432,747,2,64,17
0.09999999999999432,747,3,64,13
0.09999999999999432,747,4,64,10
0.09999999999999432,747,5,64,2
0.09999999999999432,747,6,64,20
0.09999999999999432,747,7,64,9
0.09999999999999432,747,8,64,25
0.10000000000002274,747,9,64,11
0.09999999999999432,747,10,64,29
0.09999999999999432,747,11,64,17
0.09999999999999432,747,12,64,17
0.09999999999999432,747,13,64,19
0.09999999999999432,747,14,64,18
0.09999999999999432,747,15,64,19
0.10000000000002274,748,0,64,11
0.09999999999999432,748,1,64,21
0.09999999999999432,748,2,64,10
0.10000000000002274,748,3,64,13
0.09999999999999432,748,4,64,17
0.09999999999999432,748,5,64,27
0.10000000000002274,748,6,64,11
0.09999999999999432,748,7,64,24
0.10000000000002274,748,8,64,17
0.09999999999999432,748,9,64,28
0.09999999999999432,748,10,64,8
0.09999999999999432,748,11,64,6
0.09999999999999432,748,12,64,16
0.09999999999999432,748,13,64,13
0.10000000000002274,748,14,64,8
0.09999999999999432,748,15,64,7
0.10000000000002274,749,0,64,16
0.09999999999999432,749,1,64,13
0.09999999999999432,749,2,64,20
0.09999999999999432,749,3,64,6
0.10000000000002274,749,4,64,15
0.09999999999999432,749,5,64,16
0.09999999999999432,749,6,64,21
0.09999999999999432,749,7,64,10
0.09999999999999432,749,8,64,16
0.09999999999999432,749,9,64,11
0.10000000000002274,749,10,64,13
0.09999999999999432,749,11,64,9
0.09999999999999432,749,12,64,10
0.10000000000002274,749,13,64,8
0.09999999999999432,749,14,64,17
0.09999999999999432,749,15,64,28
0.09999999999999432,750,0,64,29
0.09999999999999432,750,1,64,25
0.09999999999999432,750,2,64,39
0.09999999999999432,750,3,64,20
0.09999999999999432,750,4,64,30
0.09999999999999432,750,5,64,32
0.09999999999999432,750,6,64,20
0.09999999999999432,750,7,64,20
0.09999999999999432,750,8,64,15
0.09999999999999432,750,9,64,15
0.10000000000002274,750,10,64,18
0.09999999999999432,750,11,64,11
0.09999999999999432,750,12,64,12
0.09999999999999432,750,13,64,3
0.09999999999999432,750,14,64,9
0.09999999999999432,750,15,64,23
0.09999999999999432,751,0,64,19
0.10000000000002274,751,1,64,25
0.09999999999999432,751,2,64,29
0.09999999999999432,751,3,64,26
0.09999999999999432,751,4,64,28
0.10000000000002274,751,5,64,26
0.09999999999999432,751,6,64,38
0.09999999999999432,751,7,64,25
0.09999999999999432,751,8,64,20
0.10000000000002274,751,9,64,33
0.09999999999999432,751,10,64,13
0.09999999999999432,751,11,64,16
0.09999999999999432,751,12,64,12
0.09999999999999432,751,13,64,24
0.09999999999999432,751,14,64,22
0.09999999999999432,751,15,64,29
0.09999999999999432,752,0,64,22
0.10000000000002274,752,1,64,30
0.10000000000002274,752,2,64,27
0.09999999999999432,752,3,64,19
0.10000000000002274,752,4,64,23
0.09999999999999432,752,5,64,23
0.09999999999999432,752,6,64,18
0.09999999999999432,752,7,64,14
0.09999999999999432,752,8,64,5
0.09999999999999432,752,9,64,33
0.09999999999999432,752,10,64,22
0.09999999999999432,752,11,64,39
0.09999999999999432,752,12,64,29
0.09999999999999432,752,13,64,31
0.09999999999999432,752,14,64,22
0.10000000000002274,752,15,64,29
0.09999999999999432,753,0,64,23
0.09999999999999432,753,1,64,25
0.10000000000002274,753,2,64,17
0.09999999999999432,753,3,64,31
0.09999999999999432,753,4,64,28
0.10000000000002274,753,5,64,30
0.09999999999999432,753,6,64,29
0.09999999999999432,753,7,64,28
0.10000000000002274,753,8,64,16
0.09999999999999432,753,9,64,22
0.09999999999999432,753,10,64,14
0.09999999999999432,753,11,64,14
0.09999999999999432,753,12,64,19
0.09999999999999432,753,13,64,19
0.09999999999999432,753,14,64,13
0.09999999999999432,753,15,64,18
0.10000000000002274,754,0,64,31
0.09999999999999432,754,1,64,11
0.09999999999999432,754,2,64,14
0.09999999999999432,754,3,64,16
0.10000000000002274,754,4,64,12
0.09999999999999432,754,5,64,8
0.10000000000002274,754,6,64,8
0.09999999999999432,754,7,64,23
0.09999999999999432,754,8,64,16
0.09999999999999432,754,9,64,16
0.09999999999999432,754,10,64,21
0.09999999999999432,754,11,64,28
0.09999999999999432,754,12,64,31
0.09999999999999432,754,13,64,56
0.09999999999999432,754,14,64,6
0.09999999999999432,754,15,64,1
0.10000000000002274,755,0,64,8
0.09999999999999432,755,1,64,1
0.09999999999999432,755,2,67,5
0.09999999999999432,755,3,67,2
0.10000000000000853,755,4,67,4
0.10000000000000853,755,5,67,2
0.09999999999999432,755,6,67,23
0.09999999999999432,755,7,67,5
0.09999999999999432,755,8,67,2
0.09999999999999432,755,9,67,7
0.09999999999999432,755,10,67,2
0.10000000000000853,755,11,67,5
0.10000000000000853,755,12,67,3
0.09999999999999432,755,13,67,24
0.09999999999999432,755,14,67,6
0.09999999999999432,755,15,67,2
0.10000000000000853,756,0,67,7
0.10000000000000853,756,1,67,3
0.10000000000000853,756,2,67,5
0.10000000000000853,756,3,67,3
0.09999999999999432,756,4,67,24
0.09999999999999432,756,5,67,5
0.10000000000000853,756,6,67,2
0.10000000000000853,756,7,67,5
0.10000000000000853,756,8,67,2
0.09999999999999432,756,9,67,5
0.09999999999999432,756,10,67,3
0.10000000000000853,756,11,67,24
0.09999999999999432,756,12,67,6
0.10000000000000853,756,13,67,2
0.10000000000000853,756,14,67,7
0.09999999999999432,756,15,67,3
0.09999999999999432,757,0,67,6
0.09999999999999432,757,1,67,3
0.10000000000000853,757,2,67,23
0.10000000000000853,757,3,67,5
0.10000000000000853,757,4,67,2
0.10000000000000853,757,5,67,7
0.09999999999999432,757,6,67,2
0.09999999999999432,757,7,67,5
0.10000000000000853,757,8,67,3
0.09999999999999432,757,9,67,26
0.10000000000000853,757,10,67,7
0.09999999999999432,757,11,67,3
0.09999999999999432,757,12,67,7
0.09999999999999432,757,13,67,2
0.09999999999999432,757,14,67,4
0.10000000000000853,757,15,67,3
0.09999999999999432,758,0,67,24
0.09999999999999432,758,1,67,6
0.09999999999999432,758,2,67,2
0.09999999999999432,758,3,67,6
0.10000000000000853,758,4,67,3
0.10000000000000853,758,5,67,5
0.10000000000000853,758,6,67,3
0.09999999999999432,758,7,67,26
0.09999999999999432,758,8,67,5
0.09999999999999432,758,9,67,3
0.10000000000000853,758,10,67,7
0.09999999999999432,758,11,67,3
0.10000000000000853,758,12,67,5
0.10000000000000853,758,13,67,2
0.09999999999999432,758,14,67,24
0.09999999999999432,758,15,67,5
0.09999999999999432,759,0,67,2
0.10000000000000853,759,1,67,7
0.10000000000000853,759,2,67,2
0.09999999999999432,759,3,67,5
0.09999999999999432,759,4,67,3
0.10000000000000853,759,5,67,25
0.10000000000000853,759,6,67,6
0.10000000000000853,759,7,67,1
0.09999999999999432,759,8,67,6
0.09999999999999432,759,9,67,3
0.09999999999999432,759,10,67,4
0.09999999999999432,759,11,67,2
0.10000000000000853,759,12,67,22
0.10000000000000853,759,13,67,6
0.10000000000000853,759,14,67,2
0.09999999999999432,759,15,67,6
0.09999999999999432,760,0,67,2
0.09999999999999432,760,1,67,6
0.10000000000000853,760,2,67,2
0.10000000000000853,760,3,67,26
0.10000000000000853,760,4,67,6
0.09999999999999432,760,5,67,2
0.09999999999999432,760,6,67,7
0.09999999999999432,760,7,67,2
0.10000000000000853,760,8,67,6
0.10000000000000853,760,9,67,2
0.09999999999999432,760,10,67,23
0.09999999999999432,760,11,67,5
0.09999999999999432,760,12,67,2
0.09999999999999432,760,13,67,7
0.10000000000000853,760,14,67,2
0.10000000000000853,760,15,67,4
0.10000000000000853,761,0,67,2
0.09999999999999432,761,1,67,23
0.09999999999999432,761,2,67,6
0.09999999999999432,761,3,67,2
0.10000000000000853,761,4,67,7
0.10000000000000853,761,5,67,3
0.10000000000000853,761,6,67,4
0.09999999999999432,761,7,67,3
0.09999999999999432,761,8,67,23
0.09999999999999432,761,9,67,6
0.10000000000000853,761,10,67,2
0.10000000000000853,761,11,67,5
0.10000000000000853,761,12,67,2
0.10000000000000853,761,13,67,5
0.09999999999999432,761,14,67,2
0.10000000000000853,761,15,67,22
0.10000000000000853,762,0,67,6
0.10000000000000853,762,1,67,2
0.10000000000000853,762,2,67,6
0.09999999999999432,762,3,67,2
0.09999999999999432,762,4,67,4
0.09999999999999432,762,5,67,3
0.10000000000000853,762,6,67,24
0.10000000000000853,762,7,67,3
0.10000000000000853,762,8,67,2
0.09999999999999432,762,9,67,7
0.09999999999999432,762,10,67,2
0.09999999999999432,762,11,67,5
0.10000000000000853,762,12,67,3
0.09999999999999432,762,13,67,22
0.10000000000000853,762,14,67,7
0.09999999999999432,762,15,67,2
0.09999999999999432,763,0,67,7
0.09999999999999432,763,1,67,2
0.09999999999999432,763,2,67,4
0.10000000000000853,763,3,67,3
0.09999999999999432,763,4,67,22
0.09999999999999432,763,5,67,6
0.09999999999999432,763,6,67,2
0.09999999999999432,763,7,67,7
0.10000000000000853,763,8,67,2
0.10000000000000853,763,9,67,6
0.10000000000000853,763,10,67,3
0.09999999999999432,763,11,67,26
0.09999999999999432,763,12,67,6
0.10000000000000853,763,13,67,2
0.10000000000000853,763,14,67,6
0.09999999999999432,763,15,67,2
0.10000000000000853,764,0,67,4
0.09999999999999432,764,1,67,3
0.09999999999999432,764,2,67,27
0.10000000000000853,764,3,67,5
0.09999999999999432,764,4,67,2
0.10000000000000853,764,5,67,6
0.10000000000000853,764,6,67,2
0.09999999999999432,764,7,67,5
0.09999999999999432,764,8,67,2
0.10000000000000853,764,9,67,24
0.10000000000000853,764,10,67,6
0.10000000000000853,764,11,67,2
0.09999999999999432,764,12,67,6
0.09999999999999432,764,13,67,2
0.09999999999999432,764,14,67,4
0.09999999999999432,764,15,67,3
0.10000000000000853,765,0,67,24
0.10000000000000853,765,1,67,5
0.10000000000000853,765,2,67,2
0.09999999999999432,765,3,67,6
0.09999999999999432,765,4,67,2
0.09999999999999432,765,5,67,5
0.09999999999999432,765,6,67,2
0.09999999999999432,765,7,67,27
0.10000000000000853,765,8,67,3
0.09999999999999432,765,9,67,2
0.09999999999999432,765,10,67,4
0.10000000000000853,765,11,67,2
0.10000000000000853,765,12,67,3
0.10000000000000853,765,13,67,2
0.09999999999999432,765,14,67,29
0.09999999999999432,765,15,67,4
0.10000000000000853,766,0,67,2
0.10000000000000853,766,1,67,4
0.09999999999999432,766,2,67,1
0.10000000000000853,766,3,67,3
0.09999999999999432,766,4,67,2
0.09999999999999432,766,5,67,29
0.09999999999999432,766,6,67,3
0.10000000000000853,766,7,67,2
0.10000000000000853,766,8,67,4
0.10000000000000853,766,9,67,2
0.10000000000000853,766,10,67,3
0.09999999999999432,766,11,67,2
0.09999999999999432,766,12,67,29
0.09999999999999432,766,13,67,4
0.10000000000000853,766,14,67,2
0.10000000000000853,766,15,67,4
0.09999999999999432,767,0,67,2
0.09999999999999432,767,1,67,3
0.09999999999999432,767,2,67,2
0.10000000000000853,767,3,67,26
0.09999999999999432,767,4,67,4
0.09999999999999432,767,5,67,2
0.10000000000000853,767,6,67,4
0.09999999999999432,767,7,67,2
0.09999999999999432,767,8,67,3
0.10000000000000853,767,9,67,2
0.10000000000000853,767,10,67,19
0.09999999999999432,767,11,67,3
0.09999999999999432,767,12,67,2
0.09999999999999432,767,13,67,4
0.09999999999999432,767,14,67,2
0.09999999999999432,767,15,67,3
0.10000000000000853,768,0,67,2
0.09999999999999432,768,1,67,31
0.10000000000000853,768,2,67,3
0.09999999999999432,768,3,67,2
0.09999999999999432,768,4,67,1
0.09999999999999432,768,5,67,3
0.10000000000002274,768,6,67,2
0.09999999999999432,768,7,67,3
0.09999999999999432,768,8,67,2
0.10000000000002274,768,9,67,3
0.09999999999999432,768,10,67,4
0.09999999999999432,768,11,67,3
0.09999999999999432,768,12,67,3
0.09999999999999432,768,13,67,3
0.09999999999999432,768,14,67,3
0.09999999999999432,768,15,67,2
0.09999999999999432,769,0,67,3
0.09999999999999432,769,1,67,3
0.09999999999999432,769,2,67,2
0.10000000000002274,769,3,67,4
0.09999999999999432,769,4,67,3
0.09999999999999432,769,5,67,3
0.10000000000002274,769,6,67,2
0.09999999999999432,769,7,67,4
0.09999999999999432,769,8,67,3
0.09999999999999432,769,9,67,3
0.09999999999999432,769,10,67,3
0.09999999999999432,769,11,67,3
0.09999999999999432,769,12,67,3
0.09999999999999432,769,13,67,3
0.09999999999999432,769,14,67,2
0.09999999999999432,769,15,67,2
0.09999999999999432,770,0,67,3
0.10000000000002274,770,1,67,3
0.09999999999999432,770,2,67,3
0.09999999999999432,770,3,67,4
0.09999999999999432,770,4,67,4
0.10000000000002274,770,5,67,3
0.09999999999999432,770,6,67,2
0.09999999999999432,770,7,67,3
0.09999999999999432,770,8,67,3
0.09999999999999432,770,9,67,4
0.09999999999999432,770,10,67,3
0.09999999999999432,770,11,67,1
0.09999999999999432,770,12,67,3
0.10000000000002274,770,13,67,3
0.09999999999999432,770,14,67,4
0.09999999999999432,770,15,67,3
0.09999999999999432,771,0,67,4
0.09999999999999432,771,1,67,4
0.10000000000002274,771,2,67,3
0.09999999999999432,771,3,67,4
0.10000000000002274,771,4,67,3
0.09999999999999432,771,5,67,3
0.09999999999999432,771,6,67,4
0.10000000000002274,771,7,67,2
0.10000000000002274,771,8,67,3
0.09999999999999432,771,9,67,2
0.09999999999999432,771,10,67,3
0.10000000000002274,771,11,67,4
0.09999999999999432,771,12,67,3
0.09999999999999432,771,13,67,3
0.09999999999999432,771,14,67,4
0.09999999999999432,771,15,67,5
0.09999999999999432,772,0,67,4
0.09999999999999432,772,1,67,4
0.09999999999999432,772,2,67,5
0.09999999999999432,772,3,67,2
0.09999999999999432,772,4,67,6
0.10000000000002274,772,5,67,2
0.09999999999999432,772,6,67,6
0.09999999999999432,772,7,67,2
0.10000000000002274,772,8,67,5
0.09999999999999432,772,9,67,2
0.09999999999999432,772,10,67,1
0.09999999999999432,772,11,67,6
0.09999999999999432,772,12,67,2
0.09999999999999432,772,13,67,6
0.09999999999999432,772,14,67,2
0.09999999999999432,772,15,67,7
0.09999999999999432,773,0,67,2
0.10000000000002274,773,1,67,6
0.09999999999999432,773,2,67,2
0.09999999999999432,773,3,67,6
0.10000000000002274,773,4,67,2
0.09999999999999432,773,5,67,7
0.09999999999999432,773,6,67,2
0.10000000000002274,773,7,67,6
0.09999999999999432,773,8,67,1
0.09999999999999432,773,9,67,7
0.09999999999999432,773,10,67,3
0.09999999999999432,773,11,67,6
0.09999999999999432,773,12,67,2
0.09999999999999432,773,13,67,6
0.09999999999999432,773,14,67,2
0.09999999999999432,773,15,67,6
0.09999999999999432,774,0,67,3
0.09999999999999432,774,1,67,6
0.10000000000002274,774,2,67,3
0.09999999999999432,774,3,67,7
0.10000000000002274,774,4,67,2
0.10000000000002274,774,5,67,6
0.09999999999999432,774,6,67,2
0.09999999999999432,774,7,67,6
0.09999999999999432,774,8,67,2
0.09999999999999432,774,9,67,5
0.09999999999999432,774,10,67,2
0.09999999999999432,774,11,67,6
0.10000000000002274,774,12,67,2
0.09999999999999432,774,13,67,7
0.09999999999999432,774,14,67,2
0.10000000000002274,774,15,67,6
0.09999999999999432,775,0,67,3
0.09999999999999432,775,1,67,6
0.10000000000002274,775,2,67,3
0.09999999999999432,775,3,67,5
0.09999999999999432,775,4,67,2
0.10000000000002274,775,5,67,7
0.09999999999999432,775,6,67,2
0.09999999999999432,775,7,67,6
0.09999999999999432,775,8,67,2
0.09999999999999432,775,9,67,7
0.09999999999999432,775,10,67,2
0.09999999999999432,775,11,67,6
0.09999999999999432,775,12,67,2
0.09999999999999432,775,13,67,7
0.09999999999999432,775,14,67,2
0.09999999999999432,775,15,67,6
0.09999999999999432,776,0,67,3
0.09999999999999999,776,1,61,1
0.09999999999999432,776,2,61,1
0.045454545454532536,776,3,61,4
0.03636363636363171,776,4,61,7
0.01590909090909065,776,5,61,8
0.03409090909090651,776,6,61,13
0.10000000000000853,776,7,61,23
0.03636363636363171,776,8,61,34
0.09999999999999432,776,9,61,36
0.05909090909091219,776,10,61,31
0.02727272727273089,776,11,61,29
0.09999999999999432,776,12,61,21
0.056818181818172775,776,13,61,15
0.10000000000000853,776,14,61,14
0.04772727272727195,776,15,61,11
0.024999999999991473,777,0,61,9
0.06818181818181301,777,1,61,11
0.025000000000005684,777,2,61,14
0.10000000000000853,777,3,61,16
0.045454545454546746,777,4,61,15
0.03636363636363171,777,5,61,11
0.04772727272727195,777,6,61,7
0.004545454545450411,777,7,61,6
0.01590909090909065,777,8,61,12
0.025000000000005684,777,9,61,15
0.09999999999999432,777,10,61,15
0.10000000000000853,777,11,61,10
0.056818181818186986,777,12,61,10
0.09999999999999432,777,13,61,7
0.03409090909090651,777,14,61,5
0.02727272727271668,777,15,61,7
0.09999999999999432,778,0,61,12
0.025000000000005684,778,1,61,12
0.056818181818186986,778,2,61,9
0.013636363636365445,778,3,61,7
0.09999999999999432,778,4,61,8
0.045454545454546746,778,5,61,6
0.10000000000000853,778,6,61,5
0.004545454545464622,778,7,61,8
0.056818181818186986,778,8,61,10
0.01590909090909065,778,9,61,11
0.01590909090909065,778,10,61,12
0.024999999999991473,778,11,61,12
0.10000000000000853,778,12,61,9
0.045454545454546746,778,13,61,10
0.09999999999999432,778,14,61,14
0.10000000000000853,778,15,61,11
0.06590909090910202,779,0,61,11
0.10000000000000853,779,1,61,9
0.004545454545450411,779,2,61,10
0.06818181818181301,779,3,61,12
0.013636363636365445,779,4,61,12
0.09999999999999432,779,5,61,9
0.10000000000000853,779,6,61,7
0.06818181818182723,779,7,61,8
0.013636363636365445,779,8,61,10
0.013636363636365445,779,9,61,13
0.01590909090909065,779,10,61,17
0.01590909090909065,779,11,61,17
0.09999999999999432,779,12,61,18
0.045454545454546746,779,13,61,24
0.09999999999999432,779,14,61,22
0.025000000000005684,779,15,61,21
0.06818181818182723,780,0,61,21
0.013636363636365445,780,1,61,18
0.06818181818181301,780,2,61,19
0.004545454545450411,780,3,61,23
0.004545454545450411,780,4,61,23
0.056818181818186986,780,5,61,23
0.004545454545464622,780,6,61,20
0.036363636363645924,780,7,61,18
0.03409090909090651,780,8,61,18
0.0022727272727252057,780,9,61,21
0.01590909090909065,780,10,61,27
0.045454545454532536,780,11,61,23
0.01590909090909065,780,12,61,13
0.09999999999999432,780,13,61,16
0.024999999999991473,780,14,61,27
0.013636363636365445,780,15,61,28
0.05909090909091219,781,0,61,22
0.01590909090909065,781,1,61,14
0.013636363636365445,781,2,61,10
0.09999999999999432,781,3,61,12
0.06818181818181301,781,4,61,12
0.03636363636363171,781,5,61,13
0.004545454545450411,781,6,61,13
0.10000000000000853,781,7,61,6
0.06590909090910202,781,8,61,6
0.09999999999999432,781,9,61,11
0.03409090909090651,781,10,61,9
0.10000000000000853,781,11,61,10
0.04772727272728616,781,12,61,16
0.10000000000000853,781,13,61,11
0.036363636363645924,781,14,61,14
0.004545454545464622,781,15,61,15
0.004545454545464622,782,0,61,14
0.0022727272727252057,782,1,61,15
0.06818181818181301,782,2,61,15
0.025000000000005684,782,3,61,22
0.03636363636363171,782,4,61,24
0.10000000000000853,782,5,61,27
0.04772727272727195,782,6,61,30
0.09999999999999432,782,7,61,23
0.01590909090909065,782,8,61,24
0.045454545454546746,782,9,61,24
0.03636363636363171,782,10,61,25
0.01590909090909065,782,11,61,21
0.09999999999999432,782,12,61,15
0.06818181818181301,782,13,61,16
0.03636363636363171,782,14,61,16
0.024999999999991473,782,15,61,18
0.06818181818181301,783,0,61,19
0.03636363636363171,783,1,61,20
0.09999999999999432,783,2,61,21
0.06590909090908781,783,3,61,20
0.01590909090909065,783,4,61,13
0.045454545454546746,783,5,61,8
0.013636363636365445,783,6,61,8
0.004545454545464622,783,7,61,14
0.056818181818186986,783,8,61,17
0.03636363636363171,783,9,61,23
0.056818181818186986,783,10,61,27
0.004545454545464622,783,11,61,29
0.036363636363645924,783,12,61,30
0.025000000000005684,783,13,61,43
0.06818181818181301,783,14,61,43
0.025000000000005684,783,15,61,30
0.056818181818172775,784,0,61,26
0.10000000000000853,784,1,61,39
0.06818181818182723,784,2,61,40
0.004545454545464622,784,3,61,41
0.056818181818186986,784,4,61,42
0.01590909090909065,784,5,61,43
0.03409090909090651,784,6,61,42
0.09999999999999432,784,7,61,26
0.09999999999999432,784,8,61,24
0.056818181818172775,784,9,61,25
0.09999999999999432,784,10,61,27
0.06818181818181301,784,11,61,34
0.09999999999999432,784,12,61,28
0.09999999999999432,784,13,61,19
0.09999999999999432,784,14,61,24
0.06818181818181301,784,15,61,26
0.013636363636365445,785,0,61,35
0.10000000000000853,785,1,61,20
0.09999999999999432,785,2,61,9
0.04772727272727195,785,3,61,10
0.004545454545450411,785,4,61,12
0.03636363636363171,785,5,61,15
0.036363636363645924,785,6,61,16
0.056818181818186986,785,7,61,15
0.09999999999999432,785,8,61,22
0.024999999999991473,785,9,61,25
0.09999999999999432,785,10,61,15
0.09999999999999432,785,11,61,10
0.06818181818181301,785,12,61,10
0.025000000000005684,785,13,61,11
0.004545454545450411,785,14,61,14
0.10000000000000853,785,15,61,18
0.045454545454546746,786,0,61,19
0.10000000000000853,786,1,61,22
0.05909090909091219,786,2,61,24
0.036363636363645924,786,3,61,29
0.025000000000005684,786,4,61,30
0.013636363636351234,786,5,61,17
0.04772727272727195,786,6,61,14
0.045454545454546746,786,7,61,18
0.04772727272727195,786,8,61,19
0.03636363636363171,786,9,61,17
0.056818181818172775,786,10,61,14
0.013636363636365445,786,11,61,12
0.03636363636363171,786,12,61,14
0.01590909090909065,786,13,61,23
0.045454545454546746,786,14,61,31
0.013636363636365445,786,15,61,34
0.10000000000000853,787,0,61,9
0.09999999999999432,787,1,61,8
0.056818181818172775,787,2,61,10
0.09999999999999432,787,3,61,9
0.04772727272727195,787,4,61,14
0.013636363636365445,787,5,61,30
0.05909090909089798,787,6,61,34
0.10000000000000853,787,7,61,22
0.09999999999999432,787,8,61,38
0.03636363636363171,787,9,61,36
0.03409090909092072,787,10,61,37
0.04772727272727195,787,11,61,36
0.03636363636363171,787,12,61,31
0.004545454545450411,787,13,61,23
0.10000000000000853,787,14,61,15
0.09999999999999432,787,15,61,14
0.06818181818181301,788,0,61,13
0.004545454545450411,788,1,61,21
0.004545454545464622,788,2,61,23
0.004545454545464622,788,3,61,18
0.10000000000000853,788,4,61,19
0.06818181818182723,788,5,61,20
0.09999999999999432,788,6,61,23
0.06818181818181301,788,7,61,24
0.013636363636351234,788,8,61,26
0.04772727272727195,788,9,61,34
0.01590909090909065,788,10,61,37
0.03409090909090651,788,11,61,37
0.09999999999999432,788,12,61,19
0.06590909090908781,788,13,61,17
0.10000000000000853,788,14,61,15
0.056818181818186986,788,15,61,14
0.09999999999999432,789,0,61,14
0.06818181818181301,789,1,61,13
0.10000000000000853,789,2,61,19
0.056818181818186986,789,3,61,21
0.024999999999991473,789,4,61,17
0.04772727272727195,789,5,61,12
0.004545454545450411,789,6,61,10
0.024999999999991473,789,7,61,7
0.056818181818186986,789,8,61,6
0.10000000000000853,789,9,61,4
0.06818181818182723,789,10,61,6
0.004545454545464622,789,11,61,11
0.056818181818186986,789,12,61,13
0.10000000000000853,789,13,61,17
0.056818181818186986,789,14,61,22
0.036363636363645924,789,15,61,27
0.004545454545464622,790,0,61,31
0.09999999999999432,790,1,61,29
0.04772727272727195,790,2,61,30
0.03409090909092072,790,3,61,28
0.09999999999999432,790,4,61,17
0.03636363636363171,790,5,61,11
0.056818181818172775,790,6,61,14
0.024999999999991473,790,7,61,17
0.013636363636365445,790,8,61,20
0.01590909090909065,790,9,61,26
0.03636363636363171,790,10,61,25
0.0022727272727252057,790,11,61,23
0.004545454545450411,790,12,61,23
0.10000000000000853,790,13,61,13
0.06818181818182723,790,14,61,9
0.025000000000005684,790,15,61,10
0.025000000000005684,791,0,61,16
0.03636363636363171,791,1,61,18
0.045454545454532536,791,2,61,22
0.013636363636351234,791,3,61,27
0.10000000000000853,791,4,61,38
0.09999999999999432,791,5,61,71
0.024999999999991473,791,6,61,72
0.013636363636365445,791,7,61,66
0.09999999999999432,791,8,61,38
0.01590909090909065,791,9,61,28
0.06818181818182723,791,10,61,27
0.09999999999999432,791,11,61,10
0.03636363636363171,791,12,61,21
0.024999999999991473,791,13,61,26
0.09999999999999432,791,14,61,12
0.10000000000000853,791,15,61,9
0.056818181818186986,792,0,61,15
0.09999999999999432,792,1,61,15
0.10000000000000853,792,2,61,21
0.09999999999999432,792,3,61,26
0.03636363636363171,792,4,61,32
0.03636363636363171,792,5,61,39
0.09999999999999432,792,6,61,39
0.056818181818172775,792,7,61,36
0.10000000000000853,792,8,61,23
0.06818181818182723,792,9,61,17
0.036363636363645924,792,10,61,13
0.025000000000005684,792,11,61,14
0.025000000000005684,792,12,61,15
0.10000000000000853,792,13,61,12
0.056818181818186986,792,14,61,9
0.013636363636365445,792,15,61,10
0.10000000000000853,793,0,61,26
0.06818181818182723,793,1,61,29
0.004545454545464622,793,2,61,28
0.004545454545464622,793,3,61,26
0.025000000000005684,793,4,61,18
0.056818181818172775,793,5,61,11
0.024999999999991473,793,6,61,7
0.05909090909091219,793,7,61,7
0.013636363636365445,793,8,61,13
0.024999999999991473,793,9,61,13
0.06818181818181301,793,10,61,14
0.09999999999999432,793,11,61,13
0.10000000000000853,793,12,61,16
0.09999999999999432,793,13,61,17
0.03409090909090651,793,14,61,14
0.004545454545450411,793,15,61,13
0.09999999999999432,794,0,61,19
0.056818181818172775,794,1,61,22
0.013636363636351234,794,2,61,21
0.03636363636363171,794,3,61,16
0.056818181818186986,794,4,61,12
0.10000000000000853,794,5,61,13
0.09999999999999432,794,6,61,8
0.06818181818181301,794,7,61,9
0.024999999999991473,794,8,61,10
0.10000000000000853,794,9,61,13
0.036363636363645924,794,10,61,19
0.056818181818186986,794,11,61,24
0.013636363636365445,794,12,61,27
0.04772727272727195,794,13,61,29
0.03636363636363171,794,14,61,33
0.045454545454546746,794,15,61,37
0.025000000000005684,795,0,61,27
0.04772727272727195,795,1,61,18
0.01590909090909065,795,2,61,21
0.09999999999999432,795,3,61,40
0.004545454545450411,795,4,61,37
0.10000000000000853,795,5,61,35
0.036363636363645924,795,6,61,27
0.045454545454546746,795,7,61,18
0.03636363636363171,795,8,61,13
0.04772727272727195,795,9,61,19
0.045454545454546746,795,10,61,26
0.10000000000000853,795,11,61,25
0.09999999999999432,795,12,61,19
0.09999999999999432,795,13,61,17
0.10000000000000853,795,14,61,20
0.05909090909091219,795,15,61,26
0.024999999999991473,796,0,61,29
0.013636363636365445,796,1,61,24
0.01590909090909065,796,2,61,28
0.056818181818186986,796,3,61,29
0.025000000000005684,796,4,61,25
0.09999999999999432,796,5,61,12
0.056818181818172775,796,6,61,13
0.01590909090909065,796,7,61,18
0.06818181818182723,796,8,61,19
0.036363636363645924,796,9,61,18
0.09999999999999432,796,10,61,19
0.056818181818172775,796,11,61,23
0.004545454545450411,796,12,61,32
0.03409090909090651,796,13,61,34
0.09999999999999432,796,14,61,23
0.05909090909089798,796,15,61,23
0.004545454545450411,797,0,61,24
0.09999999999999432,797,1,61,27
0.013636363636365445,797,2,61,26
0.024999999999991473,797,3,61,24
0.06818181818181301,797,4,61,24
0.10000000000000853,797,5,61,22
0.04772727272727195,797,6,61,22
0.004545454545450411,797,7,61,23
0.10000000000000853,797,8,61,17
0.056818181818186986,797,9,61,16
0.036363636363645924,797,10,61,14
0.09999999999999432,797,11,63,26
0.09999999999999432,797,12,63,47
0.10000000000000142,797,13,63,51
0.10000000000000142,797,14,63,39
0.09999999999999432,797,15,63,44
0.10000000000000142,798,0,63,36
0.10000000000000142,798,1,63,41
0.10000000000000142,798,2,63,40
0.10000000000000142,798,3,63,37
0.10000000000000142,798,4,63,26
0.10000000000000142,798,5,63,47
0.09999999999999432,798,6,63,53
0.10000000000000142,798,7,63,29
0.10000000000000142,798,8,63,52
0.10000000000000142,798,9,63,26
0.10000000000000142,798,10,63,35
0.10000000000000142,798,11,63,37
0.10000000000000142,798,12,63,40
0.09999999999999432,798,13,63,42
0.10000000000000142,798,14,63,19
0.10000000000000142,798,15,63,33
0.10000000000000142,799,0,63,18
0.10000000000000142,799,1,63,23
0.10000000000000142,799,2,63,58
0.09999999999999432,799,3,63,24
0.09999999999999432,799,4,63,34
0.10000000000000142,799,5,63,34
0.09999999999999432,799,6,63,50
0.09999999999999432,799,7,63,30
0.10000000000000142,799,8,63,22
0.10000000000000142,799,9,63,20
0.10000000000000142,799,10,63,25
0.10000000000000142,799,11,63,53
0.10000000000000142,799,12,63,39
0.10000000000000142,799,13,63,35
0.10000000000000142,799,14,63,36
0.10000000000000142,799,15,63,44
0.10000000000000142,800,0,63,32
0.10000000000000142,800,1,63,31
0.10000000000000142,800,2,63,46
0.09999999999999432,800,3,63,17
0.09999999999999432,800,4,63,12
0.09999999999999432,800,5,63,16
0.09999999999999432,800,6,63,18
0.10000000000000853,800,7,63,35
0.09999999999999432,800,8,63,40
0.10000000000000853,800,9,63,63
0.09999999999999432,800,10,63,60
0.09999999999999432,800,11,63,43
0.09999999999999432,800,12,63,43
0.09999999999999432,800,13,63,38
0.09999999999999432,800,14,63,6
0.09999999999999432,800,15,63,56
0.09999999999999432,801,0,63,56
0.09999999999999432,801,1,63,42
0.09999999999999432,801,2,63,52
0.09999999999999432,801,3,63,55
0.09999999999999432,801,4,63,59
0.09999999999999432,801,5,63,58
0.09999999999999432,801,6,63,34
0.09999999999999432,801,7,63,48
0.09999999999999432,801,8,63,45
0.09999999999999432,801,9,63,63
0.09999999999999432,801,10,63,41
0.09999999999999432,801,11,63,41
0.09999999999999432,801,12,63,51
0.10000000000002274,801,13,63,34
0.10000000000002274,801,14,63,45
0.10000000000002274,801,15,63,30
0.09999999999999432,802,0,63,79
0.09999999999999432,802,1,63,47
0.09999999999999432,802,2,63,62
0.09999999999999432,802,3,63,25
0.09999999999999432,802,4,63,54
0.09999999999999432,802,5,63,44
0.09999999999999432,802,6,63,38
0.09999999999999432,802,7,63,62
0.09999999999999432,802,8,63,56
0.09999999999999432,802,9,63,26
0.09999999999999432,802,10,63,47
0.09999999999999432,802,11,63,56
0.09999999999999432,802,12,63,58
0.09999999999999432,802,13,63,34
0.10000000000002274,802,14,63,63
0.09999999999999432,802,15,63,47
0.09999999999999432,803,0,63,52
0.09999999999999432,803,1,63,61
0.09999999999999432,803,2,63,58
0.09999999999999432,803,3,63,53
0.09999999999999432,803,4,63,65
0.10000000000002274,803,5,63,37
0.10000000000002274,803,6,63,47
0.09999999999999432,803,7,63,40
0.09999999999999432,803,8,63,61
0.10000000000002274,803,9,63,37
0.09999999999999432,803,10,63,47
0.09999999999999432,803,11,63,72
0.09999999999999432,803,12,63,41
0.09999999999999432,803,13,63,50
0.09999999999999432,803,14,63,40
0.09999999999999432,803,15,63,64
0.09999999999999432,804,0,63,42
0.10000000000002274,804,1,63,74
0.09999999999999432,804,2,63,54
0.09999999999999432,804,3,63,57
0.09999999999999432,804,4,63,74
0.09999999999999432,804,5,63,86
0.09999999999999432,804,6,63,53
0.09999999999999432,804,7,63,58
0.09999999999999432,804,8,63,41
0.10000000000002274,804,9,63,62
0.09999999999999432,804,10,63,67
0.09999999999999432,804,11,63,34
0.09999999999999432,804,12,63,21
0.09999999999999432,804,13,63,53
0.09999999999999432,804,14,63,40
0.09999999999999432,804,15,63,52
0.09999999999999432,805,0,63,53
0.09999999999999432,805,1,63,46
0.09999999999999432,805,2,63,49
0.09999999999999432,805,3,63,44
0.09999999999999432,805,4,63,35
0.09999999999999432,805,5,63,17
0.10000000000002274,805,6,63,47
0.10000000000002274,805,7,63,36
0.09999999999999432,805,8,63,48
0.10000000000002274,805,9,63,47
0.10000000000002274,805,10,63,42
0.09999999999999432,805,11,63,54
0.09999999999999432,805,12,63,55
0.09999999999999432,805,13,63,39
0.09999999999999432,805,14,63,40
0.10000000000002274,805,15,63,33
0.09999999999999432,806,0,63,43
0.09999999999999432,806,1,63,22
0.09999999999999432,806,2,63,45
0.09999999999999432,806,3,63,43
0.09999999999999432,806,4,63,33
0.09999999999999432,806,5,63,51
0.09999999999999432,806,6,63,26
0.09999999999999432,806,7,63,26
0.09999999999999432,806,8,63,59
0.09999999999999432,806,9,63,55
0.09999999999999432,806,10,63,40
0.09999999999999432,806,11,63,64
0.09999999999999432,806,12,63,32
0.09999999999999432,806,13,63,29
0.09999999999999432,806,14,63,17
0.09999999999999432,806,15,63,33
0.09999999999999432,807,0,63,41
0.10000000000002274,807,1,63,52
0.09999999999999432,807,2,63,54
0.09999999999999964,807,3,56,101
0.10000000000000142,807,4,56,58
0.09999999999999964,807,5,56,60
0.09999999999999964,807,6,56,74
0.09999999999999964,807,7,56,72
0.10000000000000142,807,8,56,79
0.10000000000000142,807,9,56,70
0.10000000000000142,807,10,56,69
0.10000000000000142,807,11,56,78
0.10000000000000142,807,12,56,79
0.09999999999999787,807,13,56,97
0.10000000000000142,807,14,56,127
0.10000000000000142,807,15,56,66
0.10000000000000142,808,0,56,68
0.09999999999999787,808,1,56,72
0.10000000000000142,808,2,56,84
0.10000000000000142,808,3,56,82
0.09999999999999787,808,4,56,99
0.09999999999999787,808,5,56,17
0.09999999999999787,808,6,56,15
0.10000000000000142,808,7,56,51
0.09999999999999787,808,8,56,56
0.09999999999999787,808,9,56,68
0.09999999999999787,808,10,56,72
0.09999999999999787,808,11,56,49
0.10000000000000142,808,12,56,48
0.10000000000000142,808,13,56,66
0.10000000000000142,808,14,56,49
0.10000000000000142,808,15,56,64
0.10000000000000142,809,0,56,67
0.10000000000000142,809,1,56,71
0.10000000000000142,809,2,56,35
0.10000000000000142,809,3,56,88
0.10000000000000142,809,4,56,46
0.10000000000000142,809,5,56,71
0.10000000000000142,809,6,56,72
0.10000000000000142,809,7,56,50
0.09999999999999432,809,8,56,38
0.09999999999999432,809,9,56,47
0.10000000000000142,809,10,56,15
0.09999999999999432,809,11,56,23
0.09999999999999432,809,12,56,34
0.09999999999999432,809,13,56,24
0.09999999999999432,809,14,56,43
0.09999999999999432,809,15,56,57
0.09999999999999432,810,0,56,54
0.10000000000000142,810,1,56,37
0.09999999999999432,810,2,56,42
0.09999999999999432,810,3,56,53
0.10000000000000142,810,4,56,33
0.10000000000000142,810,5,56,40
0.10000000000000142,810,6,56,29
0.10000000000000142,810,7,56,35
0.10000000000000142,810,8,56,47
0.10000000000000142,810,9,56,33
0.10000000000000142,810,10,56,40
0.10000000000000142,810,11,56,51
0.10000000000000142,810,12,56,40
0.10000000000000142,810,13,56,34
0.10000000000000142,810,14,56,22
0.10000000000000142,810,15,56,26
0.10000000000000142,811,0,56,23
0.10000000000000142,811,1,56,35
0.10000000000000142,811,2,56,41
0.10000000000000142,811,3,56,29
0.10000000000000142,811,4,56,33
0.09999999999999432,811,5,56,43
0.10000000000000142,811,6,56,18
0.10000000000000142,811,7,56,40
0.10000000000000142,811,8,56,44
0.10000000000000142,811,9,56,52
0.10000000000000142,811,10,56,44
0.10000000000000142,811,11,56,35
0.10000000000000142,811,12,56,46
0.10000000000000142,811,13,56,36
0.10000000000000142,811,14,56,37
0.09999999999999432,811,15,56,30
0.10000000000000142,812,0,56,55
0.10000000000000142,812,1,56,29
0.10000000000000142,812,2,56,31
0.10000000000000142,812,3,56,33
0.09999999999999432,812,4,56,34
0.09999999999999432,812,5,56,38
0.09999999999999432,812,6,56,53
0.10000000000000142,812,7,56,70
0.09999999999999432,812,8,56,43
0.09999999999999432,812,9,56,21
0.09999999999999432,812,10,56,32
0.09999999999999432,812,11,56,37
0.10000000000000142,812,12,56,28
0.09999999999999432,812,13,56,55
0.09999999999999432,812,14,56,45
0.10000000000000853,812,15,56,39
0.09999999999999432,813,0,56,45
0.10000000000000853,813,1,56,44
0.10000000000000853,813,2,56,32
0.10000000000000853,813,3,56,44
0.09999999999999432,813,4,56,39
0.09999999999999432,813,5,56,48
0.10000000000000853,813,6,56,57
0.09999999999999432,813,7,56,44
0.09999999999999432,813,8,56,50
0.09999999999999432,813,9,56,53
0.09999999999999432,813,10,56,57
0.09999999999999432,813,11,56,58
0.10000000000000853,813,12,56,61
0.10000000000000853,813,13,56,66
0.09999999999999432,813,14,56,52
0.09999999999999432,813,15,56,59
0.10000000000000853,814,0,56,35
0.10000000000000853,814,1,56,29
0.10000000000000853,814,2,56,54
0.09999999999999432,814,3,56,59
0.09999999999999432,814,4,56,57
0.10000000000000853,814,5,56,46
0.09999999999999432,814,6,56,35
0.10000000000000853,814,7,56,55
0.09999999999999432,814,8,56,37
0.10000000000000853,814,9,56,49
0.10000000000000853,814,10,56,75
0.10000000000000853,814,11,56,44
0.09999999999999432,814,12,56,53
0.10000000000000853,814,13,56,67
0.09999999999999432,814,14,56,100
0.10000000000000853,814,15,56,56
0.10000000000000853,815,0,56,61
0.09999999999999432,815,1,56,47
0.09999999999999432,815,2,56,88
0.09999999999999432,815,3,56,65
0.09999999999999432,815,4,56,22
0.09999999999999432,815,5,56,72
0.10000000000000853,815,6,56,39
0.09999999999999432,815,7,56,82
0.10000000000000853,815,8,56,59
0.09999999999999432,815,9,56,31
0.09999999999999432,815,10,56,51
0.09999999999999432,815,11,56,23
0.09999999999999432,815,12,56,17
0.09999999999999432,815,13,56,26
0.09999999999999432,815,14,56,33
0.10000000000000853,815,15,56,44
0.09999999999999432,816,0,56,23
0.10000000000000853,816,1,56,61
0.09999999999999432,816,2,56,28
0.09999999999999432,816,3,56,52
0.09999999999999432,816,4,56,48
0.09999999999999432,816,5,56,36
0.10000000000000853,816,6,56,41
0.09999999999999432,816,7,56,24
0.09999999999999432,816,8,56,14
0.09999999999999432,816,9,56,19
0.09999999999999432,816,10,56,35
0.10000000000000853,816,11,56,27
0.10000000000000853,816,12,56,37
0.10000000000000853,816,13,56,36
0.10000000000000853,816,14,56,30
0.09999999999999432,816,15,56,25
0.09999999999999432,817,0,56,39
0.09999999999999432,817,1,56,40
0.10000000000000853,817,2,56,41
0.10000000000000853,817,3,56,39
0.09999999999999432,817,4,56,15
0.10000000000000853,817,5,56,29
0.10000000000000853,817,6,56,30
0.10000000000000853,817,7,56,33
0.09999999999999432,817,8,56,32
0.09999999999999432,817,9,56,24
0.10000000000000853,817,10,56,36
0.09999999999999432,817,11,56,59
0.10000000000000853,817,12,56,34
0.09999999999999432,817,13,56,37
0.09999999999999432,817,14,56,47
0.09999999999999432,817,15,56,51
0.10000000000000853,818,0,56,39
0.09999999999999432,818,1,56,13
0.10000000000000853,818,2,56,42
0.09999999999999432,818,3,56,35
0.09999999999999432,818,4,56,60
0.10000000000000853,818,5,56,55
0.09999999999999432,818,6,56,53
0.09999999999999432,818,7,56,43
0.09999999999999432,818,8,56,53
0.09999999999999432,818,9,56,40
0.09999999999999432,818,10,56,47
0.10000000000000853,818,11,56,49
0.09999999999999432,818,12,56,66
0.09999999999999432,818,13,56,57
0.09999999999999432,818,14,56,44
0.10000000000000853,818,15,56,61
0.09999999999999432,819,0,56,61
0.10000000000000853,819,1,56,70
0.09999999999999432,819,2,56,60
0.10000000000000853,819,3,56,37
0.10000000000000853,819,4,56,48
0.056818181818186986,819,5,56,57
0.10000000000000853,819,6,56,57
0.10000000000000853,819,7,56,56
0.10000000000000853,819,8,56,58
0.09999999999999432,819,9,56,68
0.10000000000000853,819,10,56,77
0.09999999999999432,819,11,56,53
0.10000000000000853,819,12,56,46
0.09999999999999432,819,13,56,61
0.10000000000000853,819,14,56,54
0.09999999999999432,819,15,56,72
0.09999999999999432,820,0,56,58
0.10000000000002274,820,1,56,42
0.09999999999999432,820,2,56,73
0.09999999999999432,820,3,56,53
0.10000000000002274,820,4,56,58
0.09999999999999432,820,5,56,56
0.10000000000002274,820,6,56,59
0.09999999999999432,820,7,56,37
0.09999999999999432,820,8,56,60
0.09999999999999432,820,9,56,50
0.09999999999999432,820,10,56,35
0.09999999999999432,820,11,56,57
0.09999999999999432,820,12,56,53
0.09999999999999432,820,13,56,32
0.09999999999999432,820,14,56,58
0.09999999999999432,820,15,56,51
0.09999999999999432,821,0,56,44
0.09999999999999432,821,1,56,51
0.09999999999999432,821,2,56,63
0.09999999999999432,821,3,56,58
0.09999999999999432,821,4,56,60
0.09999999999999432,821,5,56,68
0.10000000000002274,821,6,56,54
0.09999999999999432,821,7,56,29
0.09999999999999432,821,8,56,41
0.09999999999999432,821,9,56,51
0.10000000000002274,821,10,56,47
0.10000000000002274,821,11,56,65
0.09999999999999432,821,12,56,41
0.09999999999999432,821,13,56,62
0.09999999999999432,821,14,56,57
0.09999999999999432,821,15,56,50
0.10000000000002274,822,0,56,58
0.09999999999999432,822,1,56,55
0.09999999999999432,822,2,56,44
0.09999999999999432,822,3,56,41
0.09999999999999432,822,4,56,33
0.10000000000002274,822,5,56,41
0.09999999999999432,822,6,56,49
0.09999999999999432,822,7,56,42
0.09999999999999432,822,8,56,42
0.09999999999999432,822,9,56,26
0.09999999999999432,822,10,56,58
0.10000000000002274,822,11,56,39
0.09999999999999432,822,12,56,71
0.10000000000002274,822,13,56,49
0.09999999999999432,822,14,56,54
0.09999999999999432,822,15,56,49
0.09999999999999432,823,0,56,58
0.09999999999999432,823,1,56,43
0.09999999999999432,823,2,56,51
0.10000000000002274,823,3,56,61
0.09999999999999432,823,4,56,66
0.09999999999999432,823,5,56,55
0.10000000000002274,823,6,56,44
0.10000000000002274,823,7,56,42
0.09999999999999432,823,8,56,27
0.09999999999999432,823,9,56,30
0.09999999999999432,823,10,56,48
0.09999999999999432,823,11,56,49
0.09999999999999432,823,12,56,54
0.09999999999999432,823,13,56,44
0.09999999999999432,823,14,56,45
0.09999999999999432,823,15,56,54
0.09999999999999432,824,0,56,41
0.09999999999999432,824,1,56,75
0.09999999999999432,824,2,56,74
0.10000000000002274,824,3,56,61
0.10000000000002274,824,4,56,75
0.10000000000002274,824,5,56,59
0.09999999999999432,824,6,56,54
0.09999999999999432,824,7,56,84
0.09999999999999432,824,8,56,70
0.10000000000002274,824,9,56,65
0.10000000000002274,824,10,56,44
0.10000000000002274,824,11,56,44
0.09999999999999432,824,12,56,39
0.10000000000002274,824,13,56,69
0.09999999999999432,824,14,56,68
0.09999999999999432,824,15,56,51
0.10000000000002274,825,0,56,59
0.09999999999999432,825,1,56,51
0.09999999999999432,825,2,56,36
0.09999999999999432,825,3,56,45
0.09999999999999432,825,4,56,78
0.09999999999999432,825,5,56,45
0.10000000000002274,825,6,56,62
0.10000000000002274,825,7,56,54
0.09999999999999432,825,8,56,65
0.10000000000002274,825,9,56,43
0.09999999999999432,825,10,56,54
0.09999999999999432,825,11,56,54
0.09999999999999432,825,12,56,62
0.10000000000002274,825,13,56,58
0.09999999999999432,825,14,56,41
0.09999999999999432,825,15,56,47
0.09999999999999432,826,0,56,60
0.1,826,1,90,37
0.09999999999999998,826,2,90,113
0.09999999999999998,826,3,90,124
0.09999999999999998,826,4,90,127
0.09999999999999998,826,5,90,127
0.10000000000000009,826,6,90,115
0.10000000000000009,826,7,90,108
0.10000000000000009,826,8,90,127
0.10000000000000009,826,9,90,123
0.09999999999999964,826,10,90,15
0.09999999999999964,826,11,90,49
0.09999999999999964,826,12,90,127
0.10000000000000009,826,13,90,119
0.09999999999999964,826,14,90,11
0.09999999999999964,826,15,90,127
0.09999999999999964,827,0,90,14
0.09999999999999964,827,1,90,127
0.09999999999999964,827,2,90,11
0.10000000000000053,827,3,90,43
0.09999999999999964,827,4,90,127
0.09999999999999964,827,5,90,119
0.10000000000000053,827,6,90,9
0.09999999999999964,827,7,90,127
0.09999999999999964,827,8,90,15
0.10000000000000053,827,9,90,123
0.10000000000000053,827,10,90,17
0.09999999999999964,827,11,90,41
0.10000000000000053,827,12,90,127
0.09999999999999964,827,13,90,121
0.09999999999999964,827,14,90,10
0.09999999999999964,827,15,90,127
0.09999999999999964,828,0,90,17
0.09999999999999964,828,1,90,127
0.10000000000000142,828,2,90,9
0.09999999999999964,828,3,90,75
0.09999999999999964,828,4,90,110
0.09999999999999964,828,5,90,96
0.10000000000000142,828,6,90,127
0.09999999999999964,828,7,90,127
0.09999999999999964,828,8,90,127
0.09999999999999964,828,9,90,122
0.09999999999999964,828,10,90,9
0.10000000000000142,828,11,90,11
0.09999999999999964,828,12,90,127
0.09999999999999964,828,13,90,105
0.10000000000000142,828,14,90,5
0.09999999999999964,828,15,90,127
0.09999999999999964,829,0,90,9
0.09999999999999964,829,1,90,108
0.09999999999999964,829,2,90,6
0.09999999999999964,829,3,90,9
0.10000000000000142,829,4,90,127
0.09999999999999964,829,5,90,103
0.09999999999999964,829,6,90,121
0.10000000000000142,829,7,90,127
0.09999999999999964,829,8,90,7
0.09999999999999787,829,9,90,112
0.10000000000000142,829,10,90,8
0.10000000000000142,829,11,90,8
0.09999999999999787,829,12,90,127
0.10000000000000142,829,13,90,104
0.10000000000000142,829,14,90,6
0.10000000000000142,829,15,90,127
0.10000000000000142,830,0,90,5
0.10000000000000142,830,1,90,103
0.10000000000000142,830,2,90,8
0.10000000000000142,830,3,90,9
0.10000000000000142,830,4,90,127
0.10000000000000142,830,5,90,99
0.10000000000000142,830,6,90,127
0.10000000000000142,830,7,90,127
0.10000000000000142,830,8,90,7
0.10000000000000142,830,9,90,97
0.10000000000000142,830,10,90,9
0.10000000000000142,830,11,90,10
0.10000000000000142,830,12,90,127
0.10000000000000142,830,13,90,87
0.10000000000000142,830,14,90,6
0.10000000000000142,830,15,90,127
0.10000000000000142,831,0,90,8
0.10000000000000142,831,1,90,95
0.10000000000000142,831,2,90,8
0.10000000000000142,831,3,90,9
0.10000000000000142,831,4,90,127
0.09999999999999787,831,5,90,108
0.10000000000000142,831,6,90,127
0.10000000000000142,831,7,90,127
0.10000000000000142,831,8,90,7
0.10000000000000142,831,9,90,98
0.09999999999999787,831,10,90,9
0.10000000000000142,831,11,90,8
0.10000000000000142,831,12,90,127
0.09999999999999787,831,13,90,93
0.10000000000000142,831,14,90,6
0.10000000000000142,831,15,90,127
0.09999999999999787,832,0,90,8
0.10000000000000142,832,1,90,93
0.09999999999999787,832,2,90,63
0.09999999999999787,832,3,90,30
0.10000000000000142,832,4,90,8
0.10000000000000142,832,5,90,127
0.10000000000000142,832,6,90,127
0.09999999999999787,832,7,90,112
0.09999999999999787,832,8,90,127
0.10000000000000142,832,9,90,73
0.10000000000000142,832,10,90,127
0.09999999999999787,832,11,90,80
0.09999999999999787,832,12,90,7
0.09999999999999787,832,13,90,8
0.09999999999999787,832,14,90,127
0.09999999999999787,832,15,90,66
0.09999999999999787,833,0,90,12
0.10000000000000142,833,1,90,127
0.10000000000000142,833,2,90,8
0.10000000000000142,833,3,90,80
0.10000000000000142,833,4,90,8
0.10000000000000142,833,5,90,8
0.10000000000000142,833,6,90,127
0.09999999999999432,833,7,90,76
0.10000000000000142,833,8,90,91
0.10000000000000142,833,9,90,127
0.10000000000000142,833,10,90,8
0.10000000000000142,833,11,90,75
0.09999999999999432,833,12,90,9
0.10000000000000142,833,13,90,8
0.10000000000000142,833,14,90,126
0.09999999999999432,833,15,90,46
0.10000000000000142,834,0,90,127
0.09999999999999432,834,1,90,127
0.10000000000000142,834,2,90,127
0.10000000000000142,834,3,90,82
0.10000000000000142,834,4,90,101
0.10000000000000142,834,5,90,82
0.10000000000000142,834,6,90,104
0.10000000000000142,834,7,90,127
0.10000000000000142,834,8,90,71
0.10000000000000142,834,9,90,81
0.10000000000000142,834,10,90,127
0.09999999999999432,834,11,90,15
0.10000000000000142,834,12,90,86
0.10000000000000142,834,13,90,13
0.10000000000000142,834,14,90,4
0.10000000000000142,834,15,90,8
0.10000000000000142,835,0,90,20
0.10000000000000142,835,1,90,127
0.10000000000000142,835,2,90,73
0.09999999999999432,835,3,90,9
0.10000000000000142,835,4,90,127
0.10000000000000142,835,5,90,13
0.10000000000000142,835,6,90,83
0.10000000000000142,835,7,90,13
0.10000000000000142,835,8,90,12
0.10000000000000142,835,9,90,8
0.10000000000000142,835,10,90,32
0.10000000000000142,835,11,90,127
0.10000000000000142,835,12,90,73
0.10000000000000142,835,13,90,76
0.10000000000000142,835,14,90,35
0.10000000000000142,835,15,90,127
0.10000000000000142,836,0,90,10
0.10000000000000142,836,1,90,1
0.09999999999999432,836,2,90,86
0.10000000000000142,836,3,90,14
0.10000000000000142,836,4,90,11
0.10000000000000142,836,5,90,9
0.10000000000000142,836,6,90,28
0.09999999999999432,836,7,90,127
0.10000000000000142,836,8,90,67
0.10000000000000142,836,9,90,8
0.09999999999999432,836,10,90,127
0.10000000000000142,836,11,90,13
0.10000000000000142,836,12,90,2
0.10000000000000142,836,13,90,85
0.10000000000000142,836,14,90,14
0.09999999999999432,836,15,90,8
0.10000000000000142,837,0,90,8
0.10000000000000142,837,1,90,48
0.10000000000000142,837,2,90,127
0.10000000000000142,837,3,90,72
0.10000000000000142,837,4,90,81
0.10000000000000142,837,5,90,62
0.10000000000000142,837,6,90,127
0.10000000000000142,837,7,90,12
0.10000000000000142,837,8,90,88
0.10000000000000142,837,9,90,15
0.09999999999999432,837,10,90,9
0.10000000000000142,837,11,90,9
0.09999999999999432,837,12,90,19
0.10000000000000142,837,13,90,127
0.10000000000000142,837,14,90,75
0.10000000000000142,837,15,90,8
0.10000000000000142,838,0,90,127
0.10000000000000142,838,1,90,13
0.09999999999999432,838,2,90,2
0.10000000000000142,838,3,90,80
0.10000000000000142,838,4,90,13
0.10000000000000142,838,5,90,10
0.10000000000000142,838,6,90,8
0.09999999999999432,838,7,90,10
0.10000000000000142,838,8,90,127
0.10000000000000142,838,9,90,76
0.10000000000000142,838,10,90,80
0.09999999999999432,838,11,90,33
0.10000000000000142,838,12,90,127
0.10000000000000142,838,13,90,12
0.10000000000000142,838,14,90,89
0.10000000000000142,838,15,90,14
0.10000000000000142,839,0,90,13
0.10000000000000142,839,1,90,9
0.10000000000000142,839,2,90,8
0.10000000000000142,839,3,90,127
0.10000000000000142,839,4,90,65
0.10000000000000142,839,5,90,7
0.10000000000000142,839,6,90,127
0.10000000000000142,839,7,90,13
0.10000000000000142,839,8,90,2
0.10000000000000142,839,9,90,78
0.10000000000000142,839,10,90,15
0.10000000000000142,839,11,90,127
0.10000000000000142,839,12,90,75
0.10000000000000142,839,13,90,37
0.10000000000000142,839,14,90,127
0.10000000000000142,839,15,90,63
0.09999999999999432,840,0,90,71
0.10000000000000142,840,1,90,118
0.09999999999999432,840,2,90,127
0.09999999999999432,840,3,90,75
0.09999999999999432,840,4,90,14
0.10000000000000142,840,5,90,13
0.09999999999999432,840,6,90,9
0.10000000000000142,840,7,90,18
0.09999999999999432,840,8,90,127
0.09999999999999432,840,9,90,71
0.09999999999999432,840,10,90,7
0.09999999999999432,840,11,90,127
0.09999999999999432,840,12,90,7
0.10000000000000142,840,13,90,2
0.10000000000000142,840,14,90,84
0.09999999999999432,840,15,90,6
0.09999999999999432,841,0,90,5
0.10000000000000142,841,1,90,45
0.10000000000000142,841,2,90,127
0.10000000000000142,841,3,90,71
0.09999999999999432,841,4,90,6
0.10000000000000142,841,5,90,127
0.09999999999999432,841,6,90,66
0.10000000000000142,841,7,90,7
0.10000000000000142,841,8,90,79
0.10000000000000142,841,9,90,7
0.10000000000000142,841,10,90,3
0.10000000000000142,841,11,90,6
0.10000000000000142,841,12,90,127
0.10000000000000142,841,13,90,72
0.09999999999999432,841,14,90,6
0.09999999999999432,841,15,90,127
0.10000000000000853,842,0,90,64
0.10000000000000853,842,1,90,6
0.09999999999999432,842,2,90,2
0.09999999999999432,842,3,90,73
0.09999999999999432,842,4,90,5
0.09999999999999432,842,5,90,3
0.10000000000000853,842,6,90,4
0.09999999999999432,842,7,90,43
0.09999999999999432,842,8,90,127
0.09999999999999432,842,9,90,61
0.10000000000000853,842,10,90,59
0.09999999999999432,842,11,90,127
0.10000000000000853,842,12,90,84
0.10000000000000853,842,13,90,5
0.09999999999999432,842,14,90,3
0.09999999999999432,842,15,90,6
0.10000000000000853,843,0,90,127
0.09999999999999432,843,1,90,64
0.09999999999999432,843,2,90,10
0.10000000000000853,843,3,90,127
0.09999999999999432,843,4,90,6
0.09999999999999432,843,5,90,2
0.10000000000000853,843,6,90,78
0.10000000000000853,843,7,90,6
0.09999999999999432,843,8,90,3
0.09999999999999432,843,9,90,6
0.10000000000000853,843,10,90,127
0.09999999999999432,843,11,90,70
0.09999999999999432,843,12,90,117
0.10000000000000853,843,13,90,89
0.10000000000000853,843,14,90,127
0.10000000000000853,843,15,90,11
0.09999999999999432,844,0,90,4
0.09999999999999432,844,1,90,80
0.10000000000000853,844,2,90,7
0.10000000000000853,844,3,90,3
0.09999999999999432,844,4,90,72
0.09999999999999432,844,5,90,19
0.09999999999999432,844,6,90,127
0.09999999999999432,844,7,90,120
0.09999999999999432,844,8,90,110
0.09999999999999432,844,9,90,60
0.09999999999999432,844,10,90,127
0.09999999999999432,844,11,90,97
0.09999999999999432,844,12,90,27
0.10000000000000853,844,13,90,13
0.09999999999999432,844,14,90,14
0.09999999999999432,844,15,90,28
0.09999999999999432,845,0,90,127
0.09999999999999432,845,1,90,95
0.09999999999999432,845,2,90,66
0.09999999999999432,845,3,90,36
0.09999999999999432,845,4,90,127
0.09999999999999432,845,5,90,52
0.10000000000000853,845,6,90,56
0.10000000000000853,845,7,90,115
0.09999999999999432,845,8,90,26
0.09999999999999432,845,9,90,17
0.09999999999999432,845,10,90,22
0.10000000000000853,845,11,90,41
0.09999999999999432,845,12,90,127
0.10000000000000853,845,13,90,87
0.09999999999999432,845,14,90,11
0.10000000000000853,845,15,90,127
0.10000000000000853,846,0,90,11
0.09999999999999432,846,1,90,4
0.09999999999999432,846,2,90,99
0.09999999999999432,846,3,90,27
0.09999999999999432,846,4,90,13
0.10000000000000853,846,5,90,16
0.09999999999999432,846,6,90,34
0.09999999999999432,846,7,90,127
0.10000000000000853,846,8,90,105
0.10000000000000853,846,9,90,69
0.09999999999999432,846,10,90,26
0.09999999999999432,846,11,90,127
0.09999999999999432,846,12,90,72
0.10000000000000853,846,13,90,49
0.10000000000000853,846,14,90,71
0.09999999999999432,846,15,90,119
0.09999999999999432,847,0,90,16
0.10000000000000853,847,1,90,24
0.10000000000000853,847,2,90,35
0.09999999999999432,847,3,90,45
0.10000000000000853,847,4,90,78
0.10000000000000853,847,5,90,71
0.09999999999999432,847,6,90,86
0.10000000000000853,847,7,90,86
0.09999999999999432,847,8,90,71
0.09999999999999432,847,9,90,34
0.10000000000000853,847,10,90,127
0.10000000000000853,847,11,90,79
0.10000000000000853,847,12,90,11
0.09999999999999432,847,13,90,11
0.10000000000000853,847,14,90,127
0.09999999999999432,847,15,90,73
0.09999999999999432,848,0,90,9
0.10000000000000853,848,1,90,127
0.10000000000000853,848,2,90,5
0.09999999999999432,848,3,90,77
0.10000000000000853,848,4,90,8
0.10000000000000853,848,5,90,11
0.09999999999999432,848,6,90,127
0.09999999999999432,848,7,90,80
0.10000000000000853,848,8,90,56
0.09999999999999432,848,9,90,127
0.09999999999999432,848,10,90,10
0.10000000000000853,848,11,90,78
0.10000000000000853,848,12,90,8
0.09999999999999432,848,13,90,10
0.10000000000000853,848,14,90,127
0.10000000000000853,848,15,90,82
0.09999999999999432,849,0,90,6
0.09999999999999432,849,1,90,3
0.10000000000000853,849,2,90,127
0.09999999999999432,849,3,90,6
0.10000000000000853,849,4,90,74
0.10000000000000853,849,5,90,6
0.09999999999999432,849,6,90,9
0.09999999999999432,849,7,90,2
0.10000000000000853,849,8,90,127
0.09999999999999432,849,9,90,69
0.09999999999999432,849,10,90,100
0.10000000000000853,849,11,90,127
0.10000000000000853,849,12,90,7
0.09999999999999432,849,13,90,85
0.10000000000000853,849,14,90,5
0.10000000000000853,849,15,90,4
0.10000000000000853,850,0,90,8
0.10000000000000853,850,1,90,2
0.09999999999999432,850,2,90,127
0.10000000000000853,850,3,90,84
0.10000000000000853,850,4,90,6
0.09999999999999432,850,5,90,5
0.09999999999999432,850,6,90,127
0.09999999999999432,850,7,90,7
0.09999999999999432,850,8,90,83
0.09999999999999432,850,9,90,5
0.10000000000000853,850,10,90,6
0.09999999999999432,850,11,90,8
0.10000000000000853,850,12,90,1
0.09999999999999432,850,13,90,127
0.09999999999999432,850,14,90,91
0.09999999999999432,850,15,90,109
0.09999999999999432,851,0,90,23
0.09999999999999432,851,1,90,127
0.09999999999999432,851,2,90,7
0.09999999999999432,851,3,90,94
0.09999999999999432,851,4,90,10
0.09999999999999432,851,5,90,4
0.09999999999999432,851,6,90,11
0.10000000000000853,851,7,90,2
0.10000000000000853,851,8,90,127
0.09999999999999432,851,9,90,81
0.09999999999999432,851,10,90,100
0.10000000000000853,851,11,90,34
0.04772727272727195,851,12,90,5
0.013636363636365445,851,13,90,127
0.10000000000000853,851,14,90,7
0.09999999999999432,851,15,90,87
0.09999999999999432,852,0,90,6
0.09999999999999432,852,1,90,4
0.10000000000000853,852,2,90,60
0.09999999999999432,852,3,90,24
0.09999999999999432,852,4,90,127
0.10000000000000853,852,5,90,87
0.10000000000000853,852,6,90,97
0.09999999999999432,852,7,90,58
0.10000000000000853,852,8,90,121
0.09999999999999432,852,9,90,127
0.09999999999999432,852,10,90,16
0.09999999999999432,852,11,90,86
0.09999999999999432,852,12,90,12
0.10000000000000853,852,13,90,12
0.09999999999999432,852,14,90,14
0.09999999999999432,852,15,90,31
0.09999999999999432,853,0,90,127
0.09999999999999432,853,1,90,58
0.10000000000000853,853,2,90,12
0.10000000000000853,853,3,90,2
0.09999999999999432,853,4,90,127
0.09999999999999432,853,5,90,12
0.10000000000000853,853,6,90,88
0.09999999999999432,853,7,90,13
0.10000000000000853,853,8,90,7
0.09999999999999432,853,9,90,12
0.09999999999999432,853,10,90,22
0.10000000000000853,853,11,90,127
0.09999999999999432,853,12,90,78
0.09999999999999432,853,13,90,114
0.09999999999999432,853,14,90,80
0.10000000000000853,853,15,90,127
0.09999999999999432,854,0,90,10
0.09999999999999432,854,1,90,86
0.10000000000000853,854,2,90,11
0.09999999999999432,854,3,90,8
0.10000000000000853,854,4,90,12
0.09999999999999432,854,5,90,16
0.09999999999999432,854,6,90,127
0.10000000000000853,854,7,90,74
0.10000000000000853,854,8,90,102
0.09999999999999432,854,9,90,127
0.10000000000000853,854,10,90,127
0.10000000000000853,854,11,90,82
0.09999999999999432,854,12,90,12
0.09999999999999432,854,13,90,7
0.09999999999999432,854,14,90,12
0.09999999999999432,854,15,90,47
0.10000000000000853,855,0,90,127
0.09999999999999432,855,1,90,76
0.10000000000000853,855,2,90,120
0.09999999999999432,855,3,90,40
0.10000000000000853,855,4,90,127
0.09999999999999432,855,5,90,10
0.10000000000000853,855,6,90,78
0.09999999999999432,855,7,90,11
0.10000000000000853,855,8,90,11
0.09999999999999432,855,9,90,11
0.10000000000000853,855,10,90,3
0.10000000000000853,855,11,90,127
0.09999999999999432,855,12,90,81
0.09999999999999432,855,13,90,127
0.09999999999999432,855,14,90,8
0.09999999999999432,855,15,90,127
0.10000000000000853,856,0,90,127
0.09999999999999432,856,1,90,94
0.09999999999999432,856,2,90,8
0.09999999999999432,856,3,90,115
0.10000000000000853,856,4,90,111
0.10000000000000853,856,5,90,65
0.09999999999999432,856,6,90,99
0.10000000000000853,856,7,90,89
0.09999999999999432,856,8,90,127
0.09999999999999432,856,9,90,18
0.09999999999999432,856,10,90,96
0.10000000000000853,856,11,90,12
0.10000000000000853,856,12,90,10
0.10000000000000853,856,13,90,14
0.09999999999999432,856,14,90,127
0.09999999999999432,856,15,90,87
0.10000000000000853,857,0,90,11
0.09999999999999432,857,1,90,127
0.09999999999999432,857,2,90,10
0.10000000000000853,857,3,90,93
0.09999999999999432,857,4,90,10
0.10000000000000853,857,5,90,18
0.09999999999999432,857,6,90,16
0.09999999999999432,857,7,90,12
0.10000000000000853,857,8,90,127
0.09999999999999432,857,9,90,70
0.09999999999999432,857,10,90,82
0.10000000000000853,857,11,90,127
0.09999999999999432,857,12,90,5
0.09999999999999432,857,13,90,78
0.09999999999999432,857,14,90,3
0.09999999999999432,857,15,90,7
0.10000000000000853,858,0,90,5
0.10000000000000853,858,1,90,10
0.09999999999999432,858,2,90,127
0.10000000000000853,858,3,90,73
0.10000000000000853,858,4,90,6
0.09999999999999432,858,5,90,127
0.09999999999999432,858,6,90,5
0.09999999999999432,858,7,90,76
0.09999999999999432,858,8,90,5
0.09999999999999432,858,9,90,5
0.09999999999999432,858,10,90,6
0.09999999999999432,858,11,90,7
0.09999999999999432,858,12,90,127
0.09999999999999432,858,13,90,74
0.10000000000000853,858,14,90,82
0.09999999999999432,858,15,90,127
0.09999999999999432,859,0,90,4
0.10000000000000853,859,1,90,79
0.10000000000000853,859,2,90,6
0.09999999999999432,859,3,90,7
0.09999999999999432,859,4,90,5
0.09999999999999432,859,5,90,10
0.10000000000000853,859,6,90,127
0.09999999999999432,859,7,90,71
0.09999999999999432,859,8,90,6
0.10000000000000853,859,9,90,127
0.10000000000000853,859,10,90,5
0.09999999999999432,859,11,90,71
0.09999999999999432,859,12,90,6
0.09999999999999432,859,13,90,8
0.09999999999999432,859,14,90,6
0.09999999999999432,859,15,90,5
0.09999999999999432,860,0,90,127
0.09999999999999432,860,1,90,71
0.09999999999999432,860,2,90,74
0.09999999999999432,860,3,90,127
0.09999999999999432,860,4,90,5
0.09999999999999432,860,5,90,74
0.10000000000002274,860,6,90,6
0.09999999999999432,860,7,90,7
0.09999999999999432,860,8,90,6
0.09999999999999432,860,9,90,7
0.09999999999999432,860,10,90,127
0.09999999999999432,860,11,90,73
0.09999999999999432,860,12,90,7
0.09999999999999432,860,13,90,127
0.09999999999999432,860,14,90,6
0.09999999999999432,860,15,90,71
0.09999999999999432,861,0,90,6
0.09999999999999432,861,1,90,127
0.09999999999999432,861,2,90,63
0.09999999999999432,861,3,90,33
0.09999999999999432,861,4,90,127
0.09999999999999432,861,5,90,78
0.09999999999999432,861,6,90,110
0.09999999999999432,861,7,90,127
0.09999999999999432,861,8,90,77
0.09999999999999432,861,9,90,7
0.09999999999999432,861,10,90,5
0.09999999999999432,861,11,90,17
0.09999999999999432,861,12,90,127
0.09999999999999432,861,13,90,74
0.09999999999999432,861,14,90,6
0.09999999999999432,861,15,90,127
0.09999999999999432,862,0,90,5
0.10000000000002274,862,1,90,46
0.09999999999999432,862,2,90,6
0.09999999999999432,862,3,90,7
0.09999999999999432,862,4,90,6
0.09999999999999432,862,5,90,11
0.10000000000002274,862,6,90,127
0.09999999999999432,862,7,90,72
0.09999999999999432,862,8,90,74
0.10000000000002274,862,9,90,127
0.09999999999999432,862,10,90,5
0.09999999999999432,862,11,90,74
0.10000000000002274,862,12,90,6
0.10000000000002274,862,13,90,7
0.09999999999999432,862,14,90,7
0.09999999999999432,862,15,90,9
0.09999999999999432,863,0,90,127
0.10000000000002274,863,1,90,73
0.09999999999999432,863,2,90,6
0.09999999999999432,863,3,90,127
0.10000000000002274,863,4,90,6
0.10000000000002274,863,5,90,78
0.09999999999999432,863,6,90,6
0.09999999999999432,863,7,90,6
0.09999999999999432,863,8,90,7
0.10000000000002274,863,9,90,127
0.09999999999999432,863,10,90,69
0.09999999999999432,863,11,90,80
0.10000000000002274,863,12,90,127
0.09999999999999432,863,13,90,82
0.09999999999999432,863,14,90,8
0.09999999999999432,863,15,90,6
0.09999999999999432,864,0,90,127
0.10000000000002274,864,1,90,67
0.09999999999999432,864,2,90,5
0.09999999999999432,864,3,90,127
0.10000000000002274,864,4,90,5
0.09999999999999432,864,5,90,73
0.09999999999999432,864,6,90,6
0.10000000000002274,864,7,90,6
0.09999999999999432,864,8,90,11
0.09999999999999432,864,9,90,127
0.09999999999999432,864,10,90,68
0.09999999999999432,864,11,90,66
0.09999999999999432,864,12,90,88
0.09999999999999432,864,13,90,127
0.09999999999999432,864,14,90,127
0.09999999999999432,864,15,90,17
0.09999999999999432,865,0,90,9
0.09999999999999432,865,1,90,114
0.10000000000002274,865,2,90,4
0.09999999999999432,865,3,90,18
0.09999999999999432,865,4,90,127
0.10000000000002274,865,5,90,25
0.09999999999999432,865,6,90,26
0.09999999999999432,865,7,90,16
0.10000000000002274,865,8,90,127
0.09999999999999432,865,9,90,13
0.09999999999999432,865,10,90,127
0.09999999999999432,865,11,90,18
0.09999999999999432,865,12,90,111
0.09999999999999432,865,13,90,2
0.09999999999999432,865,14,90,127
0.09999999999999432,865,15,90,118
0.09999999999999432,866,0,90,127
0.09999999999999432,866,1,90,110
0.09999999999999432,866,2,90,29
0.10000000000002274,866,3,90,2
0.09999999999999432,866,4,90,127
0.09999999999999432,866,5,90,120
0.09999999999999432,866,6,90,5
0.10000000000002274,866,7,90,22
0.09999999999999432,866,8,90,127
0.09999999999999432,866,9,90,23
0.09999999999999432,866,10,90,26
0.09999999999999432,866,11,90,11
0.09999999999999432,866,12,90,119
0.09999999999999432,866,13,90,9
0.09999999999999432,866,14,90,13
0.09999999999999432,866,15,90,127
0.09999999999999432,867,0,90,125
0.09999999999999432,867,1,90,127
0.10000000000002274,867,2,90,96
0.09999999999999432,867,3,90,17
0.09999999999999432,867,4,90,53
0.10000000000002274,867,5,90,127
0.09999999999999432,867,6,90,85
0.09999999999999432,867,7,90,10
0.10000000000002274,867,8,90,127
0.09999999999999432,867,9,90,6
0.09999999999999432,867,10,90,116
0.09999999999999432,867,11,90,8
0.09999999999999432,867,12,90,71
0.09999999999999432,867,13,90,49
0.09999999999999432,867,14,90,127
0.10000000000002274,867,15,90,111
0.09999999999999432,868,0,90,127
0.09999999999999432,868,1,90,48
0.09999999999999432,868,2,90,90
0.09999999999999432,868,3,90,127
0.09999999999999432,868,4,90,26
0.09999999999999432,868,5,90,89
0.09999999999999432,868,6,90,26
0.09999999999999432,868,7,90,45
0.09999999999999432,868,8,90,20
0.09999999999999432,868,9,90,24
0.09999999999999432,868,10,90,44
0.09999999999999432,868,11,90,7
0.09999999999999432,868,12,90,89
0.09999999999999432,868,13,90,38
0.09999999999999432,868,14,90,50
0.09999999999999432,868,15,90,22
0.09999999999999432,869,0,90,94
0.10000000000002274,869,1,90,17
0.09999999999999432,869,2,90,56
0.10000000000002274,869,3,90,22
0.10000000000002274,869,4,90,9
0.09999999999999432,869,5,90,58
0.10000000000002274,869,6,90,92
0.09999999999999432,869,7,90,81
0.09999999999999432,869,8,90,43
0.09999999999999432,869,9,90,54
0.10000000000002274,869,10,90,43
0.09999999999999432,869,11,90,3
0.09999999999999432,869,12,90,94
0.09999999999999432,869,13,90,30
0.09999999999999432,869,14,90,39
0.10000000000002274,869,15,90,20
0.09999999999999432,870,0,90,11
0.09999999999999432,870,1,90,43
0.09999999999999432,870,2,90,87
0.10000000000002274,870,3,90,30
0.09999999999999432,870,4,90,22
0.09999999999999432,870,5,90,2
0.09999999999999432,870,6,90,46
0.09999999999999432,870,7,90,83
0.09999999999999432,870,8,90,87
0.10000000000002274,870,9,90,49
0.09999999999999432,870,10,90,14
0.09999999999999432,870,11,90,42
0.09999999999999432,870,12,90,127
0.09999999999999432,870,13,90,87
0.09999999999999432,870,14,90,16
0.09999999999999432,870,15,90,7
0.10000000000002274,871,0,90,21
0.09999999999999432,871,1,90,127
0.09999999999999432,871,2,90,92
0.09999999999999432,871,3,90,4
0.10000000000002274,871,4,90,2
0.09999999999999432,871,5,90,127
0.10000000000002274,871,6,90,4
0.09999999999999432,871,7,90,2
0.09999999999999432,871,8,90,90
0.09999999999999432,871,9,90,4
0.09999999999999432,871,10,90,28
0.09999999999999432,871,11,90,6
0.09999999999999432,871,12,90,38
0.09999999999999432,871,13,90,127
0.09999999999999432,871,14,90,91
0.09999999999999432,871,15,90,62
0.09999999999999432,872,0,90,127
0.09999999999999432,872,1,90,4
0.09999999999999432,872,2,90,92
0.09999999999999432,872,3,90,4
0.09999999999999432,872,4,90,16
0.09999999999999432,872,5,90,8
0.09999999999999432,872,6,90,25
0.09999999999999432,872,7,90,127
0.09999999999999432,872,8,90,81
0.09999999999999432,872,9,90,5
0.09999999999999432,872,10,90,3
0.09999999999999432,872,11,90,127
0.09999999999999432,872,12,90,3
0.10000000000002274,872,13,90,80
0.09999999999999432,872,14,90,7
0.10000000000002274,872,15,90,23
0.09999999999999432,873,0,90,4
0.09999999999999432,873,1,90,33
0.10000000000002274,873,2,90,127
0.09999999999999432,873,3,90,76
0.09999999999999432,873,4,90,18
0.10000000000002274,873,5,90,119
0.09999999999999432,873,6,90,85
0.09999999999999432,873,7,90,8
0.09999999999999432,873,8,90,11
0.09999999999999432,873,9,90,7
0.09999999999999432,873,10,90,127
0.10000000000002274,873,11,90,80
0.09999999999999432,873,12,90,5
0.09999999999999432,873,13,90,126
0.09999999999999432,873,14,90,4
0.09999999999999432,873,15,90,85
0.09999999999999432,874,0,90,5
0.09999999999999432,874,1,90,11
0.09999999999999432,874,2,90,4
0.09999999999999432,874,3,90,127
0.09999999999999432,874,4,90,64
0.09999999999999432,874,5,90,88
0.10000000000002274,874,6,90,45
0.09999999999999432,874,7,90,102
0.09999999999999432,874,8,90,127
0.09999999999999432,874,9,90,2
0.09999999999999432,874,10,90,91
0.09999999999999432,874,11,90,2
0.09999999999999432,874,12,90,3
0.09999999999999432,874,13,90,65
0.09999999999999432,874,14,90,105
0.10000000000002274,874,15,90,95
0.09999999999999432,875,0,90,2
0.09999999999999432,875,1,90,127
0.09999999999999432,875,2,90,20
0.09999999999999432,875,3,90,96
0.09999999999999432,875,4,90,9
0.09999999999999432,875,5,90,3
0.09999999999999432,875,6,90,127
0.09999999999999432,875,7,90,102
0.09999999999999432,875,8,90,127
0.09999999999999432,875,9,90,8
0.09999999999999432,875,10,90,106
0.09999999999999432,875,11,90,3
0.10000000000002274,875,12,90,8
0.09999999999999432,875,13,90,3
0.10000000000002274,875,14,90,127
0.09999999999999432,875,15,90,105
0.09999999999999432,876,0,90,50
0.09999999999999432,876,1,90,127
0.09999999999999432,876,2,90,103
0.10000000000002274,876,3,90,9
0.09999999999999432,876,4,90,10
0.09999999999999432,876,5,90,3
0.09999999999999432,876,6,90,127
0.09999999999999432,876,7,90,104
0.09999999999999432,876,8,90,127
0.10000000000002274,876,9,90,3
0.09999999999999432,876,10,90,106
0.09999999999999432,876,11,90,3
0.09999999999999432,876,12,90,27
0.10000000000002274,876,13,90,3
0.09999999999999432,876,14,90,3
0.09999999999999432,876,15,90,127
0.10000000000002274,877,0,90,105
0.09999999999999432,877,1,90,32
0.09999999999999432,877,2,90,8
0.09999999999999432,877,3,90,71
0.09999999999999987,877,4,66,11
0.10000000000000009,877,5,66,52
0.09999999999999964,877,6,66,46
0.09999999999999964,877,7,66,14
0.09999999999999964,877,8,66,53
0.09999999999999964,877,9,66,62
0.10000000000000009,877,10,66,47
0.10000000000000009,877,11,66,85
0.10000000000000053,877,12,66,63
0.10000000000000053,877,13,66,8
0.09999999999999964,877,14,66,49
0.09999999999999964,877,15,66,70
0.09999999999999964,878,0,66,13
0.09999999999999964,878,1,66,50
0.09999999999999964,878,2,66,66
0.09999999999999964,878,3,66,57
0.10000000000000053,878,4,66,41
0.09999999999999964,878,5,66,122
0.09999999999999964,878,6,66,66
0.09999999999999964,878,7,66,50
0.10000000000000053,878,8,66,48
0.10000000000000053,878,9,66,15
0.10000000000000053,878,10,66,54
0.10000000000000053,878,11,66,56
0.09999999999999964,878,12,66,52
0.09999999999999964,878,13,66,111
0.09999999999999964,878,14,66,50
0.09999999999999964,878,15,66,52
0.06818181818181834,879,0,66,52
0.09999999999999964,879,1,66,45
0.09999999999999964,879,2,66,41
0.09999999999999964,879,3,66,8
0.09999999999999964,879,4,66,24
0.09999999999999964,879,5,66,43
0.09999999999999964,879,6,66,34
0.09999999999999964,879,7,66,49
0.09999999999999964,879,8,66,4
0.09999999999999964,879,9,66,3
0.10000000000000142,879,10,66,2
0.10000000000000142,879,11,66,6
0.10000000000000142,879,12,66,6
0.09999999999999964,879,13,66,29
0.09999999999999964,879,14,66,14
0.09999999999999964,879,15,66,14
0.09999999999999964,880,0,66,12
0.09999999999999964,880,1,66,30
0.10000000000000142,880,2,66,44
0.09999999999999964,880,3,66,2
0.09999999999999964,880,4,66,3
0.09999999999999964,880,5,66,10
0.09999999999999964,880,6,66,25
0.09999999999999964,880,7,66,23
0.09999999999999964,880,8,66,20
0.09999999999999964,880,9,66,35
0.09999999999999787,880,10,66,24
0.10000000000000142,880,11,66,7
0.09999999999999787,880,12,66,9
0.09999999999999787,880,13,66,10
0.10000000000000142,880,14,66,21
0.10000000000000142,880,15,66,15
0.10000000000000142,881,0,66,19
0.10000000000000142,881,1,66,14
0.10000000000000142,881,2,66,39
0.10000000000000142,881,3,66,51
0.10000000000000142,881,4,66,2
0.09999999999999787,881,5,66,13
0.10000000000000142,881,6,66,7
0.10000000000000142,881,7,66,25
0.10000000000000142,881,8,66,33
0.10000000000000142,881,9,66,17
0.10000000000000142,881,10,66,23
0.10000000000000142,881,11,66,17
0.10000000000000142,881,12,66,37
0.10000000000000142,881,13,66,3
0.09999999999999787,881,14,66,4
0.10000000000000142,881,15,66,20
0.10000000000000142,882,0,66,16
0.10000000000000142,882,1,66,40
0.10000000000000142,882,2,66,6
0.10000000000000142,882,3,66,14
0.10000000000000142,882,4,66,20
0.10000000000000142,882,5,66,38
0.10000000000000142,882,6,66,3
0.09999999999999787,882,7,66,6
0.10000000000000142,882,8,66,30
0.09999999999999787,882,9,66,18
0.10000000000000142,882,10,66,34
0.10000000000000142,882,11,66,9
0.09999999999999787,882,12,66,11
0.10000000000000142,882,13,66,20
0.09999999999999787,882,14,66,20
0.09999999999999787,882,15,66,8
0.10000000000000142,883,0,66,37
0.10000000000000142,883,1,66,18
0.10000000000000142,883,2,66,23
0.09999999999999787,883,3,66,16
0.09999999999999787,883,4,66,2
0.09999999999999787,883,5,66,11
0.10000000000000142,883,6,66,45
0.10000000000000142,883,7,66,50
0.09999999999999787,883,8,66,2
0.10000000000000142,883,9,66,12
0.09999999999999787,883,10,66,23
0.09999999999999787,883,11,66,40
0.10000000000000142,883,12,66,5
0.09999999999999787,883,13,66,44
0.10000000000000142,883,14,66,7
0.10000000000000142,883,15,66,8
0.10000000000000142,884,0,66,9
0.09999999999999787,884,1,66,25
0.09999999999999787,884,2,66,31
0.09999999999999787,884,3,66,8
0.10000000000000142,884,4,66,18
0.09999999999999787,884,5,66,16
0.09999999999999787,884,6,66,26
0.09999999999999787,884,7,66,18
0.09999999999999787,884,8,66,29
0.09999999999999787,884,9,66,22
0.10000000000000142,884,10,66,33
0.10000000000000142,884,11,66,27
0.10000000000000142,884,12,66,10
0.10000000000000142,884,13,66,15
0.10000000000000142,884,14,66,12
0.09999999999999432,884,15,66,4
0.10000000000000142,885,0,66,31
0.10000000000000142,885,1,66,20
0.10000000000000142,885,2,66,32
0.10000000000000142,885,3,66,24
0.09999999999999432,885,4,66,25
0.10000000000000142,885,5,66,27
0.09999999999999432,885,6,66,8
0.10000000000000142,885,7,66,22
0.10000000000000142,885,8,66,16
0.10000000000000142,885,9,66,26
0.09999999999999432,885,10,66,15
0.10000000000000142,885,11,66,29
0.09999999999999432,885,12,66,19
0.10000000000000142,885,13,66,23
0.10000000000000142,885,14,66,26
0.10000000000000142,885,15,66,26
0.09999999999999432,886,0,66,22
0.09999999999999432,886,1,66,29
0.10000000000000142,886,2,66,21
0.10000000000000142,886,3,66,30
0.09999999999999432,886,4,66,19
0.09999999999999432,886,5,66,23
0.09999999999999432,886,6,66,24
0.10000000000000142,886,7,66,26
0.09999999999999432,886,8,66,24
0.10000000000000142,886,9,66,39
0.10000000000000142,886,10,66,30
0.10000000000000142,886,11,66,26
0.09999999999999432,886,12,66,27
0.10000000000000142,886,13,66,27
0.10000000000000142,886,14,66,29
0.10000000000000142,886,15,66,29
0.10000000000000142,887,0,66,22
0.10000000000000142,887,1,66,24
0.10000000000000142,887,2,66,22
0.10000000000000142,887,3,66,23
0.10000000000000142,887,4,66,32
0.10000000000000142,887,5,66,28
0.10000000000000142,887,6,66,33
0.10000000000000142,887,7,66,21
0.10000000000000142,887,8,66,29
0.10000000000000142,887,9,66,21
0.10000000000000142,887,10,66,22
0.09999999999999432,887,11,66,30
0.10000000000000142,887,12,66,24
0.10000000000000142,887,13,66,20
0.10000000000000142,887,14,66,19
0.10000000000000142,887,15,66,27
0.10000000000000142,888,0,66,20
0.10000000000000142,888,1,66,36
0.09999999999999432,888,2,66,30
0.09999999999999432,888,3,66,20
0.10000000000000142,888,4,66,32
0.10000000000000142,888,5,66,23
0.09999999999999432,888,6,66,22
0.10000000000000142,888,7,66,20
0.10000000000000142,888,8,66,21
0.09999999999999432,888,9,66,23
0.09999999999999432,888,10,66,23
0.10000000000000142,888,11,66,27
0.10000000000000142,888,12,66,22
0.10000000000000142,888,13,66,26
0.10000000000000142,888,14,66,29
0.10000000000000142,888,15,66,32
0.10000000000000142,889,0,66,17
0.09999999999999432,889,1,66,32
0.10000000000000142,889,2,66,22
0.09999999999999432,889,3,66,22
0.10000000000000142,889,4,66,28
0.10000000000000142,889,5,66,22
0.09999999999999432,889,6,66,26
0.09999999999999432,889,7,66,22
0.09999999999999432,889,8,66,17
0.09999999999999432,889,9,66,18
0.09999999999999432,889,10,66,27
0.10000000000000142,889,11,66,21
0.10000000000000142,889,12,66,27
0.10000000000000142,889,13,66,31
0.09999999999999432,889,14,66,24
0.10000000000000142,889,15,66,31
0.09999999999999432,890,0,66,37
0.09999999999999432,890,1,66,19
0.10000000000000142,890,2,66,15
0.10000000000000142,890,3,66,19
0.10000000000000142,890,4,66,19
0.10000000000000142,890,5,66,20
0.09999999999999432,890,6,66,18
0.10000000000000142,890,7,66,19
0.10000000000000142,890,8,66,17
0.10000000000000142,890,9,66,20
0.09999999999999432,890,10,66,21
0.09999999999999432,890,11,66,14
0.10000000000000853,890,12,66,23
0.09999999999999432,890,13,66,28
0.09999999999999432,890,14,66,36
0.09999999999999432,890,15,66,24
0.10000000000000853,891,0,66,27
0.09999999999999432,891,1,66,27
0.09999999999999432,891,2,66,21
0.09999999999999432,891,3,66,27
0.09999999999999432,891,4,66,27
0.10000000000000853,891,5,66,26
0.09999999999999432,891,6,66,15
0.10000000000000853,891,7,66,20
0.09999999999999432,891,8,66,40
0.10000000000000853,891,9,66,36
0.10000000000000853,891,10,66,27
0.09999999999999432,891,11,66,26
0.09999999999999432,891,12,66,29
0.09999999999999432,891,13,66,32
0.10000000000000853,891,14,66,22
0.09999999999999432,891,15,66,33
0.09999999999999432,892,0,66,28
0.10000000000000853,892,1,66,17
0.10000000000000853,892,2,66,18
0.09999999999999432,892,3,66,22
0.10000000000000853,892,4,66,15
0.09999999999999432,892,5,66,19
0.10000000000000853,892,6,66,26
0.10000000000000853,892,7,66,20
0.09999999999999432,892,8,66,18
0.10000000000000853,892,9,66,26
0.10000000000000853,892,10,66,18
0.10000000000000853,892,11,66,31
0.09999999999999432,892,12,66,30
0.10000000000000853,892,13,66,17
0.10000000000000853,892,14,66,20
0.10000000000000853,892,15,66,35
0.09999999999999432,893,0,66,30
0.10000000000000853,893,1,66,12
0.09999999999999432,893,2,66,22
0.09999999999999432,893,3,66,57
0.09999999999999432,893,4,66,73
0.09999999999999432,893,5,66,42
0.10000000000000853,893,6,66,18
0.09999999999999432,893,7,66,93
0.09999999999999432,893,8,66,88
0.09999999999999432,893,9,66,15
0.09999999999999432,893,10,66,91
0.09999999999999432,893,11,66,81
0.09999999999999432,893,12,66,46
0.09999999999999432,893,13,66,72
0.09999999999999432,893,14,66,14
0.09999999999999432,893,15,66,82
0.10000000000000853,894,0,66,44
0.10000000000000853,894,1,66,60
0.09999999999999432,894,2,66,35
0.09999999999999432,894,3,66,19
0.10000000000000853,894,4,66,55
0.09999999999999432,894,5,66,68
0.09999999999999432,894,6,66,94
0.10000000000000853,894,7,66,20
0.10000000000000853,894,8,66,71
0.09999999999999432,894,9,66,101
0.10000000000000853,894,10,66,13
0.10000000000000853,894,11,66,84
0.10000000000000853,894,12,66,84
0.09999999999999432,894,13,66,73
0.09999999999999432,894,14,66,86
0.09999999999999432,894,15,66,55
0.09999999999999432,895,0,66,72
0.10000000000000853,895,1,66,32
0.10000000000000853,895,2,66,49
0.10000000000000853,895,3,66,25
0.10000000000000853,895,4,66,58
0.09999999999999432,895,5,66,52
0.10000000000000853,895,6,66,18
0.10000000000000853,895,7,66,34
0.10000000000000853,895,8,66,11
0.09999999999999432,895,9,66,29
0.10000000000000853,895,10,66,19
0.09999999999999432,895,11,66,44
0.09999999999999432,895,12,66,27
0.09999999999999432,895,13,66,38
0.09999999999999432,895,14,66,14
0.10000000000000853,895,15,66,40
0.10000000000000853,896,0,66,18
0.09999999999999432,896,1,66,28
0.10000000000000853,896,2,66,14
0.10000000000000853,896,3,66,12
0.09999999999999432,896,4,66,7
0.10000000000000853,896,5,66,8
0.09999999999999432,896,6,66,9
0.10000000000000853,896,7,66,14
0.10000000000000853,896,8,66,8
0.09999999999999432,896,9,66,13
0.09999999999999432,896,10,66,10
0.10000000000000853,896,11,66,9
0.09999999999999432,896,12,66,13
0.09999999999999432,896,13,66,8
0.10000000000000853,896,14,66,7
0.10000000000000853,896,15,66,10
0.09999999999999432,897,0,66,9
0.09999999999999432,897,1,66,13
0.09999999999999432,897,2,66,10
0.10000000000000853,897,3,66,11
0.10000000000000853,897,4,66,11
0.10000000000000853,897,5,66,9
0.045454545454546746,897,6,66,8
0.09999999999999432,897,7,66,11
0.10000000000000853,897,8,66,8
0.10000000000000853,897,9,66,7
0.10000000000000853,897,10,66,11
0.09999999999999432,897,11,66,11
0.10000000000000853,897,12,66,15
0.10000000000000853,897,13,66,9
0.09999999999999432,897,14,66,7
0.10000000000000853,897,15,66,10
0.09999999999999432,898,0,66,10
0.09999999999999432,898,1,66,9
0.09999999999999432,898,2,66,13
0.09999999999999432,898,3,66,18
0.09999999999999432,898,4,66,17
0.09999999999999432,898,5,66,23
0.09999999999999432,898,6,66,37
0.09999999999999432,898,7,66,16
0.09999999999999432,898,8,66,6
0.09999999999999432,898,9,66,2
0.09999999999999432,898,10,66,2
0.09999999999999432,898,11,66,14
0.10000000000000853,898,12,66,16
0.10000000000000853,898,13,66,11
0.10000000000000853,898,14,66,9
0.10000000000000853,898,15,66,10
0.09999999999999432,899,0,66,8
0.10000000000000853,899,1,66,13
0.10000000000000853,899,2,66,14
0.10000000000000853,899,3,66,19
0.09999999999999432,899,4,66,32
0.10000000000000853,899,5,66,34
0.09999999999999432,899,6,66,30
0.09999999999999432,899,7,66,28
0.09999999999999432,899,8,66,7
0.09999999999999432,899,9,66,14
0.09999999999999432,899,10,66,15
0.10000000000000853,899,11,66,11
0.09999999999999432,899,12,66,14
0.10000000000000853,899,13,66,9
0.10000000000000853,899,14,66,6
0.09999999999999432,899,15,66,7
0.09999999999999432,900,0,66,12
0.10000000000000853,900,1,66,16
0.10000000000000853,900,2,66,16
0.10000000000000853,900,3,66,20
0.09999999999999432,900,4,66,10
0.10000000000000853,900,5,66,12
0.09999999999999432,900,6,66,13
0.10000000000000853,900,7,66,7
0.10000000000000853,900,8,66,8
0.09999999999999432,900,9,66,15
0.09999999999999432,900,10,66,11
0.09999999999999432,900,11,66,11
0.10000000000000853,900,12,66,14
0.09999999999999432,900,13,66,17
0.10000000000000853,900,14,66,7
0.10000000000000853,900,15,66,7
0.09999999999999432,901,0,66,7
0.09999999999999432,901,1,66,12
0.09999999999999432,901,2,66,8
0.10000000000002274,901,3,66,9
0.09999999999999432,901,4,66,14
0.09999999999999432,901,5,66,12
0.09999999999999432,901,6,66,11
0.09999999999999432,901,7,66,11
0.09999999999999432,901,8,66,10
0.09999999999999432,901,9,66,16
0.09999999999999432,901,10,66,16
0.09999999999999432,901,11,66,9
0.09999999999999432,901,12,66,12
0.09999999999999432,901,13,66,15
0.09999999999999432,901,14,66,9
0.09999999999999432,901,15,66,8
0.09999999999999432,902,0,66,16
0.09999999999999432,902,1,66,8
0.10000000000002274,902,2,66,10
0.09999999999999432,902,3,66,9
0.09999999999999432,902,4,66,9
0.10000000000002274,902,5,66,9
0.09999999999999432,902,6,66,16
0.09999999999999432,902,7,66,10
0.09999999999999432,902,8,66,6
0.09999999999999432,902,9,66,13
0.09999999999999432,902,10,66,14
0.09999999999999432,902,11,66,9
0.09999999999999432,902,12,66,11
0.09999999999999432,902,13,66,12
0.10000000000002274,902,14,66,7
0.09999999999999432,902,15,66,5
0.09999999999999432,903,0,66,4
0.10000000000002274,903,1,66,9
0.09999999999999432,903,2,66,13
0.09999999999999432,903,3,66,9
0.09999999999999432,903,4,66,9
0.09999999999999432,903,5,66,14
0.10000000000002274,903,6,66,7
0.09999999999999432,903,7,66,3
0.09999999999999432,903,8,66,6
0.10000000000002274,903,9,66,17
0.09999999999999432,903,10,66,13
0.09999999999999432,903,11,66,12
0.09999999999999432,903,12,66,13
0.10000000000002274,903,13,66,16
0.10000000000002274,903,14,66,9
0.10000000000002274,903,15,66,9
0.09999999999999432,904,0,66,11
0.09999999999999432,904,1,66,16
0.09999999999999432,904,2,66,9
0.10000000000002274,904,3,66,7
0.09999999999999432,904,4,66,16
0.09999999999999432,904,5,66,6
0.09999999999999432,904,6,66,6
0.09999999999999432,904,7,66,17
0.09999999999999432,904,8,66,8
0.09999999999999432,904,9,66,5
0.10000000000002274,904,10,66,14
0.09999999999999432,904,11,66,10
0.09999999999999432,904,12,66,5
0.10000000000002274,904,13,66,4
0.09999999999999432,904,14,66,20
0.09999999999999432,904,15,66,15
0.09999999999999432,905,0,66,12
0.10000000000002274,905,1,66,17
0.09999999999999432,905,2,66,8
0.09999999999999432,905,3,66,9
0.09999999999999432,905,4,66,3
0.10000000000002274,905,5,66,1
0.09999999999999432,905,6,66,1
0.09999999999999432,905,7,66,2
0.09999999999999432,905,8,66,5
0.09999999999999432,905,9,66,5
0.06818181818181301,905,10,66,6
0.09999999999999432,905,11,66,4
0.09999999999999432,905,12,66,1
0.09999999999999432,905,13,66,1
0.10000000000002274,905,14,66,4
0.09999999999999432,905,15,66,1
0.09999999999999432,906,0,66,3
0.09999999999999432,906,1,66,2
0.09999999999999432,906,2,66,2
0.10000000000002274,906,3,66,3
0.09999999999999432,906,4,66,2
0.09999999999999432,906,5,66,4
0.09999999999999432,906,6,66,12
0.10000000000002274,906,7,66,1
0.10000000000002274,906,8,66,4
0.09999999999999432,906,9,66,2
0.09999999999999432,906,10,66,8
0.10000000000002274,906,11,66,9
0.09999999999999432,906,12,66,9
0.09999999999999432,906,13,66,10
0.09999999999999432,906,14,66,8
0.09999999999999432,906,15,66,2
0.10000000000002274,907,0,66,6
0.09999999999999432,907,1,66,6
0.09999999999999432,907,2,66,8
0.09999999999999432,907,3,66,16
0.09999999999999432,907,4,66,11
0.10000000000002274,907,5,66,35
0.09999999999999432,907,6,66,57
0.09999999999999432,907,7,66,49
0.09999999999999432,907,8,66,34
0.09999999999999432,907,9,66,56
0.09999999999999432,907,10,66,74
0.09999999999999432,907,11,66,64
0.056818181818186986,907,12,66,63
0.09999999999999432,907,13,66,70
0.06818181818181301,907,14,66,74
0.10000000000002274,907,15,66,70
0.09999999999999432,908,0,66,60
0.09999999999999432,908,1,66,53
0.09999999999999432,908,2,66,61
0.09999999999999432,908,3,66,75
0.10000000000002274,908,4,66,29
0.09999999999999432,908,5,66,54
0.09999999999999432,908,6,66,70
0.09999999999999432,908,7,66,60
0.09999999999999432,908,8,66,72
0.10000000000002274,908,9,66,63
0.09999999999999432,908,10,66,47
0.09999999999999432,908,11,66,63
0.09999999999999432,908,12,66,78
0.09999999999999432,908,13,66,41
0.09999999999999432,908,14,66,61
0.10000000000002274,908,15,66,72
0.09999999999999432,909,0,66,56
0.09999999999999432,909,1,66,68
0.09999999999999432,909,2,66,90
0.09999999999999432,909,3,66,76
0.10000000000002274,909,4,66,50
0.09999999999999432,909,5,66,56
0.09999999999999432,909,6,66,67
0.09999999999999432,909,7,66,27
0.09999999999999432,909,8,66,68
0.09999999999999432,909,9,66,54
0.09999999999999432,909,10,66,65
0.09999999999999432,909,11,66,38
0.10000000000002274,909,12,66,42
0.10000000000000009,909,13,67,34
0.10000000000000009,909,14,67,50
0.10000000000000009,909,15,67,13
0.09999999999999964,910,0,67,36
0.09999999999999964,910,1,67,33
0.10000000000000009,910,2,67,26
0.10000000000000009,910,3,67,19
0.09999999999999964,910,4,67,30
0.09999999999999964,910,5,67,25
0.10000000000000053,910,6,67,42
0.09999999999999964,910,7,67,22
0.09999999999999964,910,8,67,26
0.10000000000000053,910,9,67,30
0.09999999999999964,910,10,67,24
0.09999999999999964,910,11,67,25
0.10000000000000053,910,12,67,15
0.09999999999999964,910,13,67,12
0.10000000000000053,910,14,67,33
0.09999999999999964,910,15,67,19
0.10000000000000053,911,0,67,19
0.10000000000000053,911,1,67,14
0.09999999999999964,911,2,67,28
0.09999999999999964,911,3,67,14
0.09999999999999964,911,4,67,35
0.09999999999999964,911,5,67,28
0.10000000000000142,911,6,67,19
0.09999999999999964,911,7,67,28
0.09999999999999964,911,8,67,17
0.09999999999999964,911,9,67,17
0.09999999999999964,911,10,67,4
0.10000000000000142,911,11,67,34
0.10000000000000142,911,12,67,26
0.09999999999999964,911,13,67,22
0.09999999999999964,911,14,67,40
0.09999999999999964,911,15,67,20
0.09999999999999964,912,0,67,22
0.10000000000000142,912,1,67,16
0.10000000000000142,912,2,67,6
0.10000000000000142,912,3,67,13
0.10000000000000142,912,4,67,49
0.10000000000000142,912,5,67,25
0.10000000000000142,912,6,67,8
0.10000000000000142,912,7,67,21
0.10000000000000142,912,8,67,15
0.10000000000000142,912,9,67,14
0.10000000000000142,912,10,67,12
0.10000000000000142,912,11,67,43
0.09999999999999787,912,12,67,17
0.10000000000000142,912,13,67,23
0.10000000000000142,912,14,67,19
0.10000000000000142,912,15,67,15
0.10000000000000142,913,0,67,46
0.09999999999999787,913,1,67,45
0.10000000000000142,913,2,67,45
0.09999999999999787,913,3,67,42
0.09999999999999787,913,4,67,17
0.09999999999999787,913,5,67,27
0.10000000000000142,913,6,67,22
0.09999999999999787,913,7,67,18
0.09999999999999787,913,8,67,30
0.10000000000000142,913,9,67,30
0.09999999999999787,913,10,67,23
0.09999999999999787,913,11,67,34
0.09999999999999787,913,12,67,28
0.10000000000000142,913,13,67,26
0.10000000000000142,913,14,67,20
0.10000000000000142,913,15,67,27
0.10000000000000142,914,0,67,22
0.10000000000000142,914,1,67,33
0.09999999999999432,914,2,67,13
0.10000000000000142,914,3,67,24
0.10000000000000142,914,4,67,28
0.10000000000000142,914,5,67,23
0.09999999999999432,914,6,67,22
0.10000000000000142,914,7,67,27
0.10000000000000142,914,8,67,29
0.09999999999999432,914,9,67,17
0.10000000000000142,914,10,67,27
0.09999999999999432,914,11,67,26
0.10000000000000142,914,12,67,31
0.10000000000000853,914,13,67,4
0.09999999999999432,914,14,67,46
0.09999999999999432,914,15,67,38
0.10000000000000853,915,0,67,41
0.09999999999999432,915,1,67,54
0.10000000000000853,915,2,67,35
0.10000000000000853,915,3,67,36
0.09999999999999432,915,4,67,40
0.10000000000000853,915,5,67,52
0.10000000000000853,915,6,67,26
0.09999999999999432,915,7,67,40
0.09999999999999432,915,8,67,54
0.09999999999999432,915,9,67,36
0.09999999999999432,915,10,67,43
0.09999999999999432,915,11,67,34
0.09999999999999432,915,12,67,46
0.10000000000000853,915,13,67,43
0.09999999999999432,915,14,67,39
0.09999999999999432,915,15,67,28
0.10000000000000853,916,0,67,46
0.10000000000000853,916,1,67,28
0.09999999999999432,916,2,67,47
0.10000000000000853,916,3,67,46
0.10000000000000853,916,4,67,53
0.09999999999999432,916,5,67,51
0.09999999999999432,916,6,67,34
0.10000000000000853,916,7,67,42
0.09999999999999432,916,8,67,45
0.09999999999999432,916,9,67,47
0.09999999999999432,916,10,67,48
0.10000000000000853,916,11,67,42
0.10000000000000853,916,12,67,35
0.09999999999999432,916,13,67,27
0.09999999999999432,916,14,67,32
0.10000000000000853,916,15,67,13
0.10000000000000853,917,0,67,11
0.09999999999999432,917,1,67,18
0.09999999999999432,917,2,67,1
0.10000000000000853,917,3,67,2
0.09999999999999432,917,4,67,13
0.09999999999999432,917,5,67,1
0.10000000000000853,917,6,67,1
0.09999999999999432,917,7,67,5
0.09999999999999432,917,8,67,10
0.10000000000000853,917,9,67,3
0.09999999999999432,917,10,67,10
0.09999999999999432,917,11,67,2
0.10000000000000853,917,12,67,9
0.09999999999999432,917,13,67,8
0.10000000000000853,917,14,67,10
0.09999999999999432,917,15,67,5
0.10000000000000853,918,0,67,7
0.10000000000000853,918,1,67,1
0.09999999999999432,918,2,67,2
0.10000000000000853,918,3,67,10
0.10000000000000853,918,4,67,1
0.09999999999999432,918,5,67,10
0.10000000000002274,918,6,67,6
0.09999999999999432,918,7,67,5
0.09999999999999432,918,8,67,1
0.10000000000002274,918,9,67,9
0.09999999999999432,918,10,67,9
0.09999999999999432,918,11,67,1
0.09999999999999432,918,12,67,5
0.09999999999999432,918,13,67,1
0.09999999999999432,918,14,67,11
0.09999999999999432,918,15,67,9
0.09999999999999432,919,0,67,10
0.09999999999999432,919,1,67,8
0.09999999999999432,919,2,67,7
0.09999999999999432,919,3,67,4
0.09999999999999432,919,4,67,1
0.09999999999999432,919,5,67,7
0.09999999999999432,919,6,67,3
0.10000000000002274,919,7,67,1
0.09999999999999432,919,8,67,8
0.09999999999999432,919,9,67,5
0.09999999999999432,919,10,67,7
0.09999999999999432,919,11,67,1
0.09999999999999432,919,12,67,5
0.09999999999999432,919,13,67,7
0.09999999999999432,919,14,67,6
0.09999999999999432,919,15,67,2
0.09999999999999432,920,0,67,1
0.09999999999999432,920,1,67,13
0.10000000000002274,920,2,67,8
0.09999999999999432,920,3,67,12
0.09999999999999432,920,4,67,15
0.09999999999999432,920,5,67,5
0.10000000000002274,920,6,67,7
0.09999999999999432,920,7,67,2
0.09999999999999432,920,8,67,10
0.09999999999999432,920,9,67,9
0.09999999999999432,920,10,67,1
0.10000000000002274,920,11,67,9
0.09999999999999432,920,12,67,2
0.09999999999999432,920,13,67,12
0.10000000000002274,920,14,67,3
0.10000000000002274,920,15,67,7
0.09999999999999432,921,0,67,8
0.10000000000000009,921,1,62,4
0.10000000000000009,921,2,62,3
0.10000000000000009,921,3,62,3
0.10000000000000009,921,4,62,2
0.10000000000000009,921,5,62,2
0.10000000000000009,921,6,62,3
0.09999999999999964,921,7,62,4
0.10000000000000009,921,8,62,3
0.09999999999999964,921,9,62,3
0.09999999999999964,921,10,62,3
0.09999999999999964,921,11,62,4
0.10000000000000009,921,12,62,3
0.10000000000000009,921,13,62,4
0.10000000000000009,921,14,62,3
0.09999999999999964,921,15,62,4
0.09999999999999964,922,0,62,3
0.09999999999999964,922,1,62,4
0.10000000000000009,922,2,62,3
0.10000000000000053,922,3,62,4
0.10000000000000053,922,4,62,3
0.09999999999999964,922,5,62,3
0.09999999999999964,922,6,62,3
0.09999999999999964,922,7,62,3
0.09999999999999964,922,8,62,3
0.10000000000000053,922,9,62,3
0.09999999999999964,922,10,62,3
0.09999999999999964,922,11,62,3
0.09999999999999964,922,12,62,3
0.09999999999999964,922,13,62,3
0.10000000000000053,922,14,62,3
0.09999999999999964,922,15,62,3
0.09999999999999964,923,0,62,3
0.10000000000000053,923,1,62,3
0.10000000000000053,923,2,62,3
0.09999999999999964,923,3,62,3
0.10000000000000053,923,4,62,3
0.09999999999999964,923,5,62,3
0.09999999999999964,923,6,62,3
0.10000000000000053,923,7,62,4
0.10000000000000053,923,8,62,3
0.09999999999999964,923,9,62,3
0.10000000000000053,923,10,62,3
0.10000000000000053,923,11,62,3
0.09999999999999964,923,12,62,3
0.10000000000000053,923,13,62,4
0.09999999999999964,923,14,62,3
0.09999999999999964,923,15,62,4
0.09999999999999964,924,0,62,3
0.09999999999999964,924,1,62,4
0.09999999999999964,924,2,62,3
0.09999999999999964,924,3,62,4
0.09999999999999964,924,4,62,3
0.09999999999999964,924,5,62,4
0.09999999999999964,924,6,62,3
0.10000000000000142,924,7,62,4
0.09999999999999964,924,8,62,3
0.09999999999999964,924,9,62,4
0.09999999999999964,924,10,62,3
0.09999999999999964,924,11,62,2
0.09999999999999964,924,12,62,3
0.10000000000000142,924,13,62,4
0.10000000000000142,924,14,62,3
0.09999999999999964,924,15,62,5
0.09999999999999964,925,0,62,1
0.10000000000000142,925,1,62,1
0.10000000000000142,925,2,62,4
0.10000000000000142,925,3,62,27
0.10000000000000142,925,4,62,6
0.09999999999999432,925,5,62,3
0.10000000000000853,925,6,62,9
0.10000000000000853,925,7,62,4
0.09999999999999432,925,8,62,8
0.10000000000000853,925,9,62,1
0.09999999999999432,925,10,62,6
0.09999999999999964,925,11,63,12
0.09999999999999964,925,12,63,18
0.10000000000000053,925,13,63,6
0.10000000000000053,925,14,63,9
0.10000000000000053,925,15,63,8
0.09999999999999964,926,0,63,17
0.09999999999999964,926,1,63,3
0.09999999999999787,926,2,63,6
0.10000000000000142,926,3,63,17
0.09999999999999432,926,4,63,17
0.10000000000000853,926,5,63,25
0.09999999999999432,926,6,63,23
0.10000000000000853,926,7,63,56
0.09999999999999432,926,8,63,28
0.09999999999999432,926,9,63,22
0.10000000000000853,926,10,63,25
0.10000000000000853,926,11,63,30
0.09999999999999432,926,12,63,31
0.09999999999999432,926,13,63,20
0.09999999999999432,926,14,63,37
0.10000000000000853,926,15,63,13
0.09999999999999432,927,0,63,33
0.10000000000000853,927,1,63,36
0.09999999999999432,927,2,63,29
0.09999999999999432,927,3,63,34
0.09999999999999432,927,4,63,15
0.10000000000000853,927,5,63,28
0.09999999999999432,927,6,63,21
0.09999999999999432,927,7,63,17
0.09999999999999432,927,8,63,32
0.09999999999999432,927,9,63,28
0.09999999999999432,927,10,63,46
0.10000000000002274,927,11,63,33
0.09999999999999432,927,12,63,47
0.09999999999999432,927,13,63,32
0.09999999999999432,927,14,63,31
0.09999999999999432,927,15,63,38
0.09999999999999432,928,0,63,45
0.09999999999999432,928,1,63,42
0.09999999999999432,928,2,63,19
0.10000000000002274,928,3,63,38
0.09999999999999432,928,4,63,29
0.09999999999999432,928,5,63,28
0.09999999999999432,928,6,63,30
0.09999999999999432,928,7,63,37
0.10000000000002274,928,8,63,43
0.09999999999999432,928,9,63,23
0.09999999999999432,928,10,63,26
0.09999999999999432,928,11,63,30
0.09999999999999432,928,12,63,37
0.09999999999999432,928,13,63,32
0.09999999999999432,928,14,63,43
0.09999999999999432,928,15,63,33
0.09999999999999432,929,0,63,34
0.09999999999999432,929,1,63,36
0.09999999999999432,929,2,63,43
0.09999999999999432,929,3,63,39
0.09999999999999432,929,4,63,44
0.09999999999999432,929,5,63,28
0.09999999999999432,929,6,63,28
0.09999999999999432,929,7,63,38
0.09999999999999432,929,8,63,18
0.09999999999999432,929,9,63,20
0.09999999999999432,929,10,63,25
0.09999999999999432,929,11,63,13
0.09999999999999432,929,12,63,32
0.09999999999999432,929,13,63,43
0.09999999999999432,929,14,63,20
0.10000000000002274,929,15,63,22
0.09999999999999432,930,0,63,32
0.09999999999999432,930,1,63,32
0.09999999999999432,930,2,63,50
0.09999999999999432,930,3,63,41
0.09999999999999432,930,4,63,53
0.10000000000002274,930,5,63,37
0.09999999999999432,930,6,63,39
0.10000000000002274,930,7,63,40
0.09999999999999432,930,8,63,42
0.10000000000002274,930,9,63,40
0.09999999999999432,930,10,63,37
0.10000000000002274,930,11,63,41
0.09999999999999432,930,12,63,44
0.09999999999999432,930,13,63,31
0.09999999999999432,930,14,63,43
0.09999999999999432,930,15,63,46
0.09999999999999432,931,0,63,49
0.10000000000002274,931,1,63,41
0.09999999999999432,931,2,63,38
0.10000000000002274,931,3,63,34
0.09999999999999432,931,4,63,38
0.09999999999999432,931,5,63,42
0.10000000000002274,931,6,63,47
0.09999999999999432,931,7,63,21
0.09999999999999432,931,8,63,50
0.09999999999999432,931,9,63,65
0.09999999999999432,931,10,63,65
0.09999999999999432,931,11,63,73
0.09999999999999432,931,12,63,21
0.09999999999999432,931,13,63,11
0.09999999999999432,931,14,63,10
0.09999999999999432,931,15,63,11
0.09999999999999432,932,0,63,5
0.09999999999999432,932,1,63,7
0.09999999999999432,932,2,63,5
0.09999999999999432,932,3,63,10
0.09999999999999432,932,4,63,7
0.09999999999999432,932,5,63,9
0.10000000000002274,932,6,63,9
0.10000000000002274,932,7,63,7
0.09999999999999432,932,8,63,8
0.09999999999999432,932,9,63,9
0.09999999999999432,932,10,63,5
0.09999999999999787,932,11,54,60
0.10000000000000142,932,12,54,99
0.10000000000000142,932,13,54,94
0.10000000000000142,932,14,54,74
0.09999999999999787,932,15,54,98
0.09999999999999787,933,0,54,102
0.09999999999999787,933,1,54,54
0.10000000000000142,933,2,54,71
0.10000000000000142,933,3,54,106
0.09999999999999432,933,4,54,50
0.10000000000000142,933,5,54,81
0.10000000000000142,933,6,54,78
0.10000000000000142,933,7,54,92
0.10000000000000142,933,8,54,87
0.09999999999999432,933,9,54,63
0.10000000000000142,933,10,54,85
0.09999999999999432,933,11,54,66
0.10000000000000142,933,12,54,71
0.09999999999999432,933,13,54,103
0.09999999999999432,933,14,54,65
0.10000000000000142,933,15,54,105
0.09999999999999432,934,0,54,75
0.10000000000000142,934,1,54,96
0.10000000000000142,934,2,54,111
0.10000000000000142,934,3,54,81
0.10000000000000142,934,4,54,85
0.10000000000000142,934,5,54,85
0.10000000000000142,934,6,54,71
0.09999999999999432,934,7,54,99
0.10000000000000142,934,8,54,80
0.10000000000000142,934,9,54,99
0.10000000000000142,934,10,54,69
0.10000000000000142,934,11,54,93
0.10000000000000142,934,12,54,83
0.10000000000000142,934,13,54,82
0.10000000000000142,934,14,54,69
0.09999999999999432,934,15,54,68
0.10000000000000142,935,0,54,49
0.09999999999999432,935,1,54,110
0.10000000000000142,935,2,54,10
0.10000000000000142,935,3,54,97
0.10000000000000142,935,4,54,85
0.10000000000000142,935,5,54,51
0.09999999999999432,935,6,54,87
0.10000000000000142,935,7,54,89
0.10000000000000142,935,8,54,101
0.10000000000000142,935,9,54,26
0.0022727272727252057,935,10,54,73
0.09999999999999432,935,11,54,110
0.10000000000000142,935,12,54,86
0.10000000000000142,935,13,54,93
0.10000000000000142,935,14,54,105
0.10000000000000142,935,15,54,100
0.10000000000000142,936,0,54,91
0.10000000000000142,936,1,54,91
0.10000000000000142,936,2,54,78
0.10000000000000142,936,3,54,71
0.09999999999999432,936,4,54,63
0.10000000000000142,936,5,54,75
0.09999999999999432,936,6,54,66
0.10000000000000142,936,7,54,90
0.09999999999999432,936,8,54,97
0.10000000000000142,936,9,54,83
0.10000000000000142,936,10,54,92
0.10000000000000142,936,11,54,69
0.09999999999999432,936,12,54,64
0.10000000000000142,936,13,54,97
0.10000000000000142,936,14,54,65
0.10000000000000142,936,15,54,74
0.10000000000000142,937,0,54,91
0.10000000000000142,937,1,54,53
0.10000000000000142,937,2,54,51
0.09999999999999432,937,3,54,101
0.10000000000000142,937,4,54,108
0.09999999999999432,937,5,54,72
0.10000000000000142,937,6,54,89
0.10000000000000142,937,7,54,77
0.10000000000000142,937,8,54,67
0.09999999999999432,937,9,54,78
0.09999999999999432,937,10,54,62
0.09999999999999432,937,11,54,68
0.10000000000000142,937,12,54,20
0.10000000000000142,937,13,54,29
0.09999999999999432,937,14,54,40
0.10000000000000142,937,15,54,81
0.10000000000000142,938,0,54,36
0.10000000000000142,938,1,54,31
0.10000000000000142,938,2,54,80
0.09999999999999432,938,3,54,35
0.09999999999999432,938,4,54,55
0.09999999999999432,938,5,54,26
0.09999999999999432,938,6,54,73
0.10000000000000853,938,7,54,29
0.09999999999999432,938,8,54,85
0.10000000000000853,938,9,54,46
0.09999999999999432,938,10,54,59
0.09999999999999432,938,11,54,49
0.09999999999999432,938,12,54,47
0.09999999999999432,938,13,54,104
0.09999999999999432,938,14,54,75
0.09999999999999432,938,15,54,36
0.09999999999999432,939,0,54,64
0.09999999999999432,939,1,54,27
0.09999999999999432,939,2,54,71
0.09999999999999432,939,3,54,82
0.09999999999999432,939,4,54,45
0.09999999999999432,939,5,54,75
0.09999999999999432,939,6,54,24
0.09999999999999432,939,7,54,84
0.09999999999999432,939,8,54,66
0.09999999999999432,939,9,54,42
0.10000000000000853,939,10,54,63
0.09999999999999432,939,11,54,96
0.10000000000000853,939,12,54,58
0.09999999999999432,939,13,54,72
0.09999999999999432,939,14,54,73
0.09999999999999432,939,15,54,84
0.10000000000000853,940,0,54,96
0.10000000000000853,940,1,54,35
0.09999999999999432,940,2,54,50
0.09999999999999432,940,3,54,76
0.10000000000000853,940,4,54,45
0.09999999999999432,940,5,54,41
0.10000000000000853,940,6,54,71
0.09999999999999432,940,7,54,84
0.09999999999999432,940,8,54,86
0.10000000000000853,940,9,54,57
0.09999999999999432,940,10,54,61
0.10000000000000853,940,11,54,79
0.09999999999999432,940,12,54,76
0.09999999999999432,940,13,54,53
0.09999999999999432,940,14,54,57
0.09999999999999432,940,15,54,51
0.09999999999999432,941,0,54,48
0.09999999999999432,941,1,54,127
0.10000000000000853,941,2,54,77
0.09999999999999432,941,3,54,110
0.10000000000000853,941,4,54,88
0.09999999999999432,941,5,54,41
0.09999999999999432,941,6,54,72
0.09999999999999432,941,7,54,37
0.09999999999999432,941,8,54,77
0.09999999999999432,941,9,54,76
0.10000000000000853,941,10,54,74
0.09999999999999432,941,11,54,64
0.09999999999999432,941,12,54,99
0.09999999999999432,941,13,54,93
0.10000000000000853,941,14,54,92
0.10000000000000853,941,15,54,97
0.09999999999999432,942,0,54,110
0.09999999999999432,942,1,54,86
0.10000000000000853,942,2,54,80
0.09999999999999432,942,3,54,99
0.09999999999999432,942,4,54,107
0.10000000000000853,942,5,54,57
0.09999999999999432,942,6,54,110
0.09999999999999432,942,7,54,36
0.10000000000000853,942,8,54,64
0.10000000000000853,942,9,54,101
0.09999999999999432,942,10,54,122
0.09999999999999432,942,11,54,64
0.09999999999999432,942,12,54,81
0.09999999999999432,942,13,54,74
0.09999999999999432,942,14,54,96
0.09999999999999432,942,15,54,82
0.09999999999999432,943,0,54,98
0.09999999999999432,943,1,54,98
0.09999999999999432,943,2,54,56
0.09999999999999432,943,3,54,71
0.10000000000002274,943,4,54,98
0.10000000000002274,943,5,54,93
0.09999999999999432,943,6,54,71
0.09999999999999432,943,7,54,41
0.09999999999999432,943,8,54,72
0.09999999999999432,943,9,54,89
0.09999999999999432,943,10,54,77
0.06818181818181301,943,11,54,68
0.09999999999999432,943,12,54,93
0.10000000000002274,943,13,54,95
0.09999999999999432,943,14,54,35
0.09999999999999432,943,15,54,34
0.09999999999999432,944,0,54,119
0.10000000000002274,944,1,54,108
0.09999999999999432,944,2,54,78
0.09999999999999432,944,3,54,79
0.09999999999999432,944,4,54,62
0.09999999999999432,944,5,54,93
0.10000000000002274,944,6,54,76
0.09999999999999432,944,7,54,95
0.09999999999999432,944,8,54,90
0.09999999999999432,944,9,54,65
0.04772727272725774,944,10,54,86
0.09999999999999432,944,11,54,85
0.09999999999999432,944,12,54,73
0.09999999999999432,944,13,54,82
0.09999999999999432,944,14,54,106
0.10000000000002274,944,15,54,91
0.10000000000002274,945,0,54,87
0.09999999999999432,945,1,54,62
0.09999999999999432,945,2,54,60
0.09999999999999432,945,3,54,67
0.09999999999999432,945,4,54,74
0.09999999999999432,945,5,54,71
0.09999999999999432,945,6,54,91
0.09999999999999432,945,7,54,45
0.09999999999999432,945,8,54,72
0.10000000000002274,945,9,54,98
0.06818181818184144,945,10,54,94
0.09999999999999432,945,11,54,110
0.09999999999999432,945,12,54,66
0.09999999999999432,945,13,54,95
0.09999999999999432,945,14,54,52
0.09999999999999432,945,15,54,49
0.09999999999999432,946,0,54,71
0.10000000000002274,946,1,54,51
0.10000000000002274,946,2,54,66
0.06818181818184144,946,3,54,58
0.025000000000005684,946,4,54,53
0.09999999999999432,946,5,54,86
0.09999999999999432,946,6,54,58
0.09999999999999432,946,7,54,72
0.09999999999999432,946,8,54,58
0.09999999999999432,946,9,54,84
0.09999999999999432,946,10,54,62
0.09999999999999432,946,11,54,90
0.10000000000002274,946,12,54,76
0.09999999999999432,946,13,54,63
0.09999999999999432,946,14,54,58
0.004545454545450411,946,15,54,94
0.06818181818181301,947,0,54,100
0.10000000000002274,947,1,54,116
0.09999999999999432,947,2,54,71
0.09999999999999432,947,3,54,87
0.09999999999999432,947,4,54,72
0.09999999999999432,947,5,54,56
0.09999999999999432,947,6,54,68
0.09999999999999432,947,7,54,97
0.10000000000002274,947,8,54,82
0.09999999999999432,947,9,54,55
0.09999999999999432,947,10,54,28
0.09999999999999432,947,11,54,91
0.04772727272725774,947,12,54,96
0.004545454545450411,947,13,54,100
0.024999999999977263,947,14,54,102
0.04545454545456096,947,15,54,93
0.04772727272728616,948,0,54,82
0.10000000000002274,948,1,54,43
0.10000000000002274,948,2,54,64
0.09999999999999432,948,3,54,79
0.09999999999999432,948,4,54,63
0.09999999999999432,948,5,54,71
0.09999999999999432,948,6,54,65
0.09999999999999432,948,7,54,59
0.09999999999999432,948,8,54,31
0.06818181818181301,948,9,54,57
0.10000000000002274,948,10,54,66
0.04545454545456096,948,11,54,36
0.09999999999999432,948,12,54,73
0.09999999999999432,948,13,54,49
0.09999999999999432,948,14,54,46
0.09999999999999432,948,15,54,65
0.10000000000002274,949,0,54,43
0.10000000000002274,949,1,54,84
0.09999999999999432,949,2,54,97
0.10000000000002274,949,3,54,63
0.10000000000002274,949,4,54,92
0.09999999999999432,949,5,54,73
0.09999999999999432,949,6,54,32
0.09999999999999432,949,7,54,74
0.09999999999999432,949,8,54,86
0.09999999999999432,949,9,54,1
0.09999999999999787,949,10,65,127
0.09999999999999787,949,11,65,127
0.10000000000000142,949,12,65,127
0.09999999999999787,949,13,65,127
0.10000000000000142,949,14,65,127
0.10000000000000142,949,15,65,22
0.10000000000000142,950,0,65,127
0.09999999999999787,950,1,65,6
0.10000000000000142,950,2,65,87
0.09999999999999787,950,3,65,127
0.09999999999999787,950,4,65,127
0.09999999999999787,950,5,65,127
0.09999999999999787,950,6,65,2
0.10000000000000142,950,7,65,127
0.10000000000000142,950,8,65,16
0.10000000000000142,950,9,65,126
0.10000000000000142,950,10,65,5
0.10000000000000142,950,11,65,127
0.10000000000000142,950,12,65,127
0.10000000000000142,950,13,65,127
0.10000000000000142,950,14,65,127
0.10000000000000142,950,15,65,4
0.09999999999999432,951,0,65,127
0.10000000000000142,951,1,65,16
0.09999999999999432,951,2,65,119
0.10000000000000142,951,3,65,5
0.10000000000000142,951,4,65,127
0.10000000000000142,951,5,65,127
0.10000000000000142,951,6,65,127
0.10000000000000142,951,7,65,125
0.09999999999999432,951,8,65,5
0.10000000000000142,951,9,65,127
0.09999999999999432,951,10,65,17
0.10000000000000142,951,11,65,127
0.09999999999999432,951,12,65,5
0.10000000000000142,951,13,65,127
0.09999999999999432,951,14,65,127
0.09999999999999432,951,15,65,127
0.09999999999999432,952,0,65,127
0.10000000000000142,952,1,65,5
0.09999999999999432,952,2,65,127
0.10000000000000142,952,3,65,16
0.10000000000000142,952,4,65,116
0.10000000000000142,952,5,65,4
0.10000000000000142,952,6,65,127
0.10000000000000142,952,7,65,127
0.10000000000000142,952,8,65,127
0.10000000000000142,952,9,65,127
0.09999999999999432,952,10,65,5
0.10000000000000142,952,11,65,127
0.10000000000000142,952,12,65,16
0.10000000000000142,952,13,65,120
0.10000000000000142,952,14,65,4
0.09999999999999432,952,15,65,127
0.10000000000000142,953,0,65,127
0.10000000000000142,953,1,65,127
0.10000000000000142,953,2,65,127
0.10000000000000142,953,3,65,4
0.10000000000000142,953,4,65,127
0.10000000000000142,953,5,65,17
0.10000000000000142,953,6,65,127
0.10000000000000142,953,7,65,5
0.10000000000000142,953,8,65,127
0.10000000000000142,953,9,65,127
0.10000000000000142,953,10,65,127
0.10000000000000142,953,11,65,127
0.09999999999999432,953,12,65,4
0.10000000000000142,953,13,65,127
0.09999999999999432,953,14,65,18
0.09999999999999432,953,15,65,127
0.10000000000000142,954,0,65,5
0.10000000000000142,954,1,65,127
0.09999999999999432,954,2,65,127
0.10000000000000142,954,3,65,107
0.10000000000000142,954,4,65,127
0.10000000000000142,954,5,65,123
0.10000000000000142,954,6,65,10
0.10000000000000142,954,7,65,127
0.10000000000000142,954,8,65,127
0.09999999999999432,954,9,65,6
0.10000000000000142,954,10,65,127
0.09999999999999432,954,11,65,127
0.10000000000000142,954,12,65,127
0.09999999999999432,954,13,65,127
0.09999999999999432,954,14,65,6
0.09999999999999432,954,15,65,127
0.10000000000000142,955,0,65,16
0.09999999999999432,955,1,65,127
0.10000000000000142,955,2,65,2
0.09999999999999432,955,3,65,127
0.10000000000000142,955,4,65,127
0.10000000000000142,955,5,65,127
0.10000000000000142,955,6,65,127
0.10000000000000142,955,7,65,4
0.10000000000000142,955,8,65,127
0.10000000000000142,955,9,65,17
0.10000000000000142,955,10,65,127
0.10000000000000142,955,11,65,4
0.09999999999999432,955,12,65,127
0.10000000000000142,955,13,65,127
0.10000000000000142,955,14,65,127
0.10000000000000142,955,15,65,127
0.10000000000000142,956,0,65,4
0.10000000000000142,956,1,65,127
0.10000000000000142,956,2,65,13
0.10000000000000142,956,3,65,127
0.10000000000000142,956,4,65,4
0.10000000000000142,956,5,65,127
0.10000000000000142,956,6,65,127
0.10000000000000142,956,7,65,127
0.10000000000000142,956,8,65,124
0.10000000000000142,956,9,65,5
0.10000000000000142,956,10,65,127
0.09999999999999432,956,11,65,17
0.10000000000000142,956,12,65,127
0.09999999999999432,956,13,65,5
0.10000000000000142,956,14,65,127
0.09999999999999432,956,15,65,127
0.09999999999999432,957,0,65,127
0.09999999999999432,957,1,65,100
0.10000000000000142,957,2,65,6
0.09999999999999432,957,3,65,127
0.10000000000000142,957,4,65,7
0.09999999999999432,957,5,65,115
0.09999999999999432,957,6,65,6
0.10000000000000142,957,7,65,127
0.10000000000000142,957,8,65,127
0.10000000000000142,957,9,65,127
0.10000000000000142,957,10,65,104
0.09999999999999432,957,11,65,5
0.09999999999999432,957,12,65,127
0.09999999999999432,957,13,65,7
0.09999999999999432,957,14,65,116
0.10000000000000142,957,15,65,5
0.09999999999999432,958,0,65,127
0.09999999999999432,958,1,65,127
0.09999999999999432,958,2,65,127
0.10000000000000853,958,3,65,109
0.10000000000000853,958,4,65,7
0.09999999999999432,958,5,65,127
0.09999999999999432,958,6,65,8
0.10000000000000853,958,7,65,107
0.10000000000000853,958,8,65,7
0.10000000000000853,958,9,65,127
0.09999999999999432,958,10,65,127
0.10000000000000853,958,11,65,97
0.09999999999999432,958,12,65,127
0.10000000000000853,958,13,65,127
0.09999999999999432,958,14,65,9
0.10000000000000853,958,15,65,66
0.10000000000000853,959,0,65,127
0.10000000000000853,959,1,65,10
0.10000000000000853,959,2,65,127
0.10000000000000853,959,3,65,9
0.10000000000000853,959,4,65,127
0.09999999999999432,959,5,65,127
0.09999999999999432,959,6,65,127
0.10000000000000853,959,7,65,116
0.10000000000000853,959,8,65,7
0.09999999999999432,959,9,65,127
0.09999999999999432,959,10,65,8
0.10000000000000853,959,11,65,122
0.10000000000000853,959,12,65,7
0.10000000000000853,959,13,65,127
0.09999999999999432,959,14,65,127
0.09999999999999432,959,15,65,127
0.10000000000000853,960,0,65,94
0.10000000000000853,960,1,65,8
0.09999999999999432,960,2,65,127
0.09999999999999432,960,3,65,7
0.10000000000000853,960,4,65,121
0.09999999999999432,960,5,65,6
0.10000000000000853,960,6,65,127
0.09999999999999432,960,7,65,127
0.09999999999999432,960,8,65,127
0.09999999999999432,960,9,65,117
0.10000000000000853,960,10,65,6
0.09999999999999432,960,11,65,127
0.09999999999999432,960,12,65,8
0.10000000000000853,960,13,65,112
0.09999999999999432,960,14,65,6
0.10000000000000853,960,15,65,127
0.09999999999999432,961,0,65,127
0.10000000000000853,961,1,65,107
0.09999999999999432,961,2,65,127
0.10000000000000853,961,3,65,113
0.10000000000000853,961,4,65,6
0.09999999999999432,961,5,65,127
0.09999999999999432,961,6,65,8
0.10000000000000853,961,7,65,119
0.09999999999999432,961,8,65,2
0.09999999999999432,961,9,65,127
0.09999999999999432,961,10,65,127
0.10000000000000853,961,11,65,127
0.10000000000000853,961,12,65,120
0.10000000000000853,961,13,65,6
0.09999999999999432,961,14,65,127
0.09999999999999432,961,15,65,7
0.10000000000000853,962,0,65,117
0.09999999999999432,962,1,65,6
0.10000000000000853,962,2,65,127
0.09999999999999432,962,3,65,127
0.09999999999999432,962,4,65,127
0.10000000000000853,962,5,65,126
0.10000000000000853,962,6,65,6
0.09999999999999432,962,7,65,127
0.09999999999999432,962,8,65,7
0.09999999999999432,962,9,65,117
0.10000000000000853,962,10,65,6
0.10000000000000853,962,11,65,127
0.09999999999999432,962,12,65,127
0.09999999999999432,962,13,65,127
0.10000000000000853,962,14,65,108
0.10000000000000853,962,15,65,6
0.09999999999999432,963,0,65,127
0.09999999999999432,963,1,65,127
0.09999999999999432,963,2,65,127
0.10000000000000853,963,3,65,58
0.10000000000000853,963,4,65,55
0.10000000000000853,963,5,65,58
0.10000000000000853,963,6,65,38
0.10000000000000853,963,7,65,16
0.10000000000000853,963,8,65,39
0.09999999999999432,963,9,65,42
0.09999999999999432,963,10,65,37
0.10000000000000853,963,11,65,39
0.09999999999999432,963,12,65,39
0.09999999999999432,963,13,65,36
0.10000000000000853,963,14,65,37
0.10000000000000853,963,15,65,39
0.09999999999999432,964,0,65,37
0.10000000000000853,964,1,65,35
0.10000000000000853,964,2,65,34
0.10000000000000853,964,3,65,127
0.09999999999999432,964,4,65,127
0.09999999999999432,964,5,65,5
0.09999999999999432,964,6,65,40
0.09999999999999432,964,7,65,4
0.09999999999999432,964,8,65,4
0.10000000000000853,964,9,65,3
0.09999999999999432,964,10,65,41
0.09999999999999432,964,11,65,2
0.09999999999999432,964,12,65,127
0.10000000000000853,964,13,65,5
0.10000000000000853,964,14,65,44
0.09999999999999432,964,15,65,4
0.09999999999999432,965,0,65,4
0.10000000000000853,965,1,65,4
0.09999999999999432,965,2,65,40
0.09999999999999432,965,3,65,2
0.09999999999999432,965,4,65,127
0.10000000000000853,965,5,65,5
0.09999999999999432,965,6,65,44
0.09999999999999432,965,7,65,4
0.09999999999999432,965,8,65,4
0.10000000000000853,965,9,65,5
0.10000000000000853,965,10,65,19
0.10000000000000853,965,11,65,8
0.09999999999999432,965,12,65,38
0.10000000000000853,965,13,65,110
0.06818181818182723,965,14,65,127
0.09999999999999432,965,15,65,127
0.09999999999999432,966,0,65,127
0.10000000000000853,966,1,65,127
0.10000000000000853,966,2,65,127
0.09999999999999432,966,3,65,127
0.09999999999999432,966,4,65,124
0.10000000000000853,966,5,65,127
0.10000000000000853,966,6,65,4
0.09999999999999432,966,7,65,127
0.09999999999999432,966,8,65,1
0.09999999999999432,966,9,65,127
0.09999999999999432,966,10,65,127
0.09999999999999432,966,11,65,127
0.10000000000000853,966,12,65,119
0.09999999999999432,966,13,65,127
0.10000000000000853,966,14,65,126
0.09999999999999432,966,15,65,127
0.10000000000000853,967,0,65,127
0.09999999999999432,967,1,65,127
0.09999999999999432,967,2,65,119
0.10000000000000853,967,3,65,127
0.10000000000000853,967,4,65,4
0.09999999999999432,967,5,65,127
0.09999999999999432,967,6,65,1
0.09999999999999432,967,7,65,127
0.09999999999999432,967,8,65,127
0.09999999999999432,967,9,65,127
0.09999999999999432,967,10,65,127
0.09999999999999432,967,11,65,1
0.09999999999999432,967,12,65,127
0.09999999999999432,967,13,65,4
0.09999999999999432,967,14,65,117
0.09999999999999432,967,15,65,127
0.09999999999999432,968,0,65,127
0.09999999999999432,968,1,65,127
0.09999999999999432,968,2,65,127
0.10000000000002274,968,3,65,1
0.09999999999999432,968,4,65,127
0.09999999999999432,968,5,65,4
0.09999999999999432,968,6,65,127
0.09999999999999432,968,7,65,1
0.09999999999999432,968,8,65,127
0.09999999999999432,968,9,65,127
0.10000000000002274,968,10,65,127
0.09999999999999432,968,11,65,127
0.09999999999999432,968,12,65,118
0.10000000000002274,968,13,65,127
0.10000000000002274,968,14,65,127
0.09999999999999432,968,15,65,127
0.09999999999999432,969,0,65,127
0.09999999999999432,969,1,65,124
0.09999999999999432,969,2,65,1
0.09999999999999432,969,3,65,127
0.09999999999999432,969,4,65,4
0.09999999999999432,969,5,65,127
0.10000000000002274,969,6,65,1
0.09999999999999432,969,7,65,127
0.09999999999999432,969,8,65,127
0.09999999999999432,969,9,65,127
0.09999999999999432,969,10,65,127
0.10000000000002274,969,11,65,121
0.09999999999999432,969,12,65,127
0.09999999999999432,969,13,65,127
0.09999999999999432,969,14,65,127
0.09999999999999432,969,15,65,127
0.09999999999999432,970,0,65,127
0.09999999999999432,970,1,65,127
0.10000000000002274,970,2,65,1
0.09999999999999432,970,3,65,127
0.09999999999999432,970,4,65,4
0.10000000000002274,970,5,65,127
0.10000000000002274,970,6,65,127
0.09999999999999432,970,7,65,127
0.10000000000002274,970,8,65,127
0.09999999999999432,970,9,65,127
0.09999999999999432,970,10,65,127
0.09999999999999432,970,11,65,4
0.09999999999999432,970,12,65,125
0.10000000000002274,970,13,65,1
0.10000000000002274,970,14,65,127
0.09999999999999432,970,15,65,127
0.09999999999999432,971,0,65,127
0.09999999999999432,971,1,65,124
0.09999999999999432,971,2,65,127
0.09999999999999432,971,3,65,127
0.09999999999999432,971,4,65,127
0.09999999999999432,971,5,65,127
0.09999999999999432,971,6,65,127
0.10000000000002274,971,7,65,126
0.09999999999999432,971,8,65,127
0.09999999999999432,971,9,65,4
0.09999999999999432,971,10,65,127
0.09999999999999432,971,11,65,127
0.09999999999999432,971,12,65,127
0.10000000000002274,971,13,65,127
0.09999999999999432,971,14,65,104
0.10000000000002274,971,15,65,9
0.09999999999999432,972,0,65,127
0.09999999999999432,972,1,65,7
0.10000000000002274,972,2,65,104
0.09999999999999432,972,3,65,7
0.10000000000002274,972,4,65,127
0.09999999999999432,972,5,65,127
0.09999999999999432,972,6,65,127
0.09999999999999432,972,7,65,104
0.09999999999999432,972,8,65,7
0.09999999999999432,972,9,65,127
0.09999999999999432,972,10,65,8
0.09999999999999432,972,11,65,109
0.10000000000002274,972,12,65,7
0.09999999999999432,972,13,65,127
0.09999999999999432,972,14,65,127
0.09999999999999432,972,15,65,127
0.10000000000002274,973,0,65,108
0.09999999999999432,973,1,65,8
0.09999999999999432,973,2,65,127
0.09999999999999432,973,3,65,9
0.09999999999999432,973,4,65,118
0.09999999999999432,973,5,65,7
0.09999999999999432,973,6,65,127
0.09999999999999432,973,7,65,127
0.09999999999999432,973,8,65,127
0.09999999999999432,973,9,65,127
0.09999999999999432,973,10,65,108
0.10000000000002274,973,11,65,6
0.09999999999999432,973,12,65,16
0.10000000000002274,973,13,65,50
0.09999999999999432,973,14,65,46
0.10000000000002274,973,15,65,50
0.10000000000002274,974,0,65,46
0.09999999999999432,974,1,65,50
0.10000000000002274,974,2,65,48
0.09999999999999432,974,3,65,47
0.09999999999999432,974,4,65,50
0.10000000000002274,974,5,65,50
0.09999999999999432,974,6,65,48
0.09999999999999432,974,7,65,50
0.10000000000002274,974,8,65,48
0.09999999999999432,974,9,65,45
0.09999999999999432,974,10,65,50
0.09999999999999432,974,11,65,84
0.10000000000002274,974,12,65,62
0.09999999999999432,974,13,65,127
0.10000000000002274,974,14,65,116
0.09999999999999432,974,15,65,127
0.09999999999999432,975,0,65,127
0.09999999999999432,975,1,65,127
0.10000000000002274,975,2,65,108
0.09999999999999432,975,3,65,127
0.09999999999999432,975,4,65,117
0.09999999999999432,975,5,65,127
0.09999999999999432,975,6,65,127
0.10000000000002274,975,7,65,25
0.09999999999999432,975,8,65,127
0.09999999999999432,975,9,65,22
0.10000000000002274,975,10,65,108
0.10000000000002274,975,11,65,5
0.09999999999999432,975,12,65,2
0.09999999999999432,975,13,65,127
0.10000000000002274,975,14,65,21
0.09999999999999432,975,15,65,8
0.09999999999999432,976,0,65,2
0.10000000000002274,976,1,65,102
0.09999999999999432,976,2,65,5
0.10000000000002274,976,3,65,127
0.09999999999999432,976,4,65,127
0.09999999999999432,976,5,65,23
0.10000000000002274,976,6,65,127
0.10000000000002274,976,7,65,22
0.09999999999999432,976,8,65,114
0.10000000000002274,976,9,65,7
0.09999999999999432,976,10,65,2
0.09999999999999432,976,11,65,127
0.09999999999999432,976,12,65,11
0.10000000000002274,976,13,65,127
0.09999999999999432,976,14,65,5
0.004545454545450411,976,15,65,8
0.10000000000002274,977,0,65,127
0.09999999999999432,977,1,65,127
0.09999999999999432,977,2,65,40
0.09999999999999432,977,3,65,127
0.09999999999999432,977,4,65,24
0.09999999999999432,977,5,65,123
0.09999999999999432,977,6,65,10
0.09999999999999432,977,7,65,4
0.10000000000000009,977,8,60,3
0.09999999999999987,977,9,60,30
0.09999999999999987,977,10,60,7
0.09999999999999987,977,11,60,11
0.10000000000000009,977,12,60,9
0.09999999999999964,977,13,60,2
0.10000000000000009,977,14,60,14
0.10000000000000009,977,15,60,13
0.10000000000000009,978,0,60,24
0.09999999999999964,978,1,60,7
0.09999999999999964,978,2,60,11
0.10000000000000009,978,3,60,15
0.10000000000000009,978,4,60,12
0.09999999999999964,978,5,60,32
0.10000000000000053,978,6,60,8
0.09999999999999964,978,7,60,11
0.09999999999999964,978,8,60,12
0.09999999999999964,978,9,60,33
0.09999999999999964,978,10,60,14
0.09999999999999964,978,11,60,17
0.09999999999999964,978,12,60,10
0.10000000000000053,978,13,60,9
0.10000000000000053,978,14,60,10
0.09999999999999964,978,15,60,9
0.09999999999999964,979,0,60,14
0.10000000000000053,979,1,60,6
0.09999999999999964,979,2,60,8
0.10000000000000053,979,3,60,7
0.09999999999999964,979,4,60,13
0.09999999999999964,979,5,60,8
0.09999999999999964,979,6,60,17
0.10000000000000053,979,7,60,6
0.09999999999999964,979,8,60,9
0.09999999999999964,979,9,60,10
0.09999999999999964,979,10,60,8
0.09999999999999964,979,11,60,20
0.09999999999999964,979,12,60,11
0.09999999999999964,979,13,60,10
0.09999999999999964,979,14,60,7
0.09999999999999964,979,15,60,4
0.10000000000000142,980,0,60,17
0.10000000000000142,980,1,60,6
0.09999999999999964,980,2,60,11
0.09999999999999964,980,3,60,8
0.09999999999999964,980,4,60,10
0.09999999999999964,980,5,60,13
0.09999999999999964,980,6,60,13
0.10000000000000142,980,7,60,16
0.09999999999999964,980,8,60,10
0.09999999999999964,980,9,60,10
0.09999999999999964,980,10,60,3
0.09999999999999964,980,11,60,16
0.09999999999999964,980,12,60,7
0.10000000000000142,980,13,60,14
0.09999999999999964,980,14,60,10
0.10000000000000142,980,15,60,14
0.10000000000000142,981,0,60,16
0.10000000000000142,981,1,60,8
0.06818181818181834,981,2,60,13
0.09999999999999964,981,3,60,20
0.09999999999999964,981,4,60,8
0.09999999999999964,981,5,60,10
0.10000000000000142,981,6,60,8
0.09999999999999964,981,7,60,15
0.09999999999999964,981,8,60,11
0.10000000000000142,981,9,60,23
0.09999999999999964,981,10,60,13
0.09999999999999964,981,11,60,9
0.10000000000000142,981,12,60,11
0.09999999999999964,981,13,60,8
0.09999999999999964,981,14,60,19
0.09999999999999964,981,15,60,9
0.10000000000000142,982,0,60,8
0.10000000000000142,982,1,60,8
0.10000000000000142,982,2,60,13
0.10000000000000142,982,3,60,7
0.10000000000000142,982,4,60,15
0.10000000000000142,982,5,60,8
0.10000000000000142,982,6,60,6
0.09999999999999787,982,7,60,7
0.10000000000000142,982,8,60,8
0.06590909090909136,982,9,60,9
0.004545454545457517,982,10,60,13
0.10000000000000142,982,11,60,9
0.10000000000000142,982,12,60,9
0.10000000000000142,982,13,60,11
0.10000000000000142,982,14,60,9
0.09999999999999787,982,15,60,15
0.09999999999999787,983,0,60,8
0.10000000000000142,983,1,60,7
0.10000000000000142,983,2,60,6
0.10000000000000142,983,3,60,14
0.09999999999999787,983,4,60,32
0.10000000000000142,983,5,60,14
0.09999999999999787,983,6,60,19
0.09999999999999787,983,7,60,10
0.09999999999999787,983,8,60,20
0.10000000000000142,983,9,60,13
0.10000000000000142,983,10,60,11
0.09999999999999787,983,11,60,12
0.10000000000000142,983,12,60,7
0.09999999999999787,983,13,60,16
0.004545454545453964,983,14,60,25
0.09999999999999787,983,15,60,21
0.10000000000000142,984,0,60,19
0.10000000000000142,984,1,60,18
0.10000000000000142,984,2,60,10
0.10000000000000142,984,3,60,15
0.10000000000000142,984,4,60,12
0.09999999999999787,984,5,60,7
0.10000000000000142,984,6,60,7
0.09999999999999787,984,7,60,10
0.06818181818181657,984,8,60,12
0.10000000000000142,984,9,60,30
0.10000000000000142,984,10,60,25
0.10000000000000142,984,11,60,25
0.09999999999999787,984,12,60,21
0.10000000000000142,984,13,60,20
0.10000000000000142,984,14,60,13
0.09999999999999787,984,15,60,18
0.10000000000000142,985,0,60,14
0.10000000000000142,985,1,60,11
0.10000000000000142,985,2,60,19
0.10000000000000142,985,3,60,13
0.06818181818182012,985,4,60,21
0.10000000000000142,985,5,60,23
0.10000000000000142,985,6,60,31
0.06818181818182012,985,7,60,33
0.10000000000000142,985,8,60,20
0.09999999999999787,985,9,60,48
0.10000000000000142,985,10,60,22
0.10000000000000142,985,11,60,32
0.09999999999999787,985,12,60,34
0.09999999999999787,985,13,60,32
0.10000000000000142,985,14,60,30
0.09999999999999787,985,15,60,21
0.10000000000000142,986,0,60,23
0.10000000000000142,986,1,60,36
0.10000000000000142,986,2,60,28
0.10000000000000142,986,3,60,21
0.10000000000000142,986,4,60,31
0.10000000000000142,986,5,60,22
0.10000000000000142,986,6,60,28
0.09999999999999432,986,7,60,33
0.10000000000000142,986,8,60,30
0.10000000000000142,986,9,60,28
0.09999999999999432,986,10,60,32
0.09999999999999432,986,11,60,36
0.10000000000000142,986,12,60,27
0.10000000000000142,986,13,60,18
0.10000000000000142,986,14,60,31
0.09999999999999432,986,15,60,21
0.10000000000000142,987,0,60,21
0.10000000000000142,987,1,60,23
0.10000000000000142,987,2,60,17
0.09999999999999432,987,3,60,16
0.10000000000000142,987,4,60,10
0.10000000000000142,987,5,60,27
0.10000000000000142,987,6,60,23
0.10000000000000142,987,7,60,22
0.09999999999999432,987,8,60,20
0.09999999999999432,987,9,60,35
0.10000000000000142,987,10,60,36
0.10000000000000142,987,11,60,29
0.10000000000000142,987,12,60,26
0.10000000000000142,987,13,60,24
0.10000000000000142,987,14,60,20
0.10000000000000142,987,15,60,29
0.09999999999999432,988,0,60,19
0.10000000000000142,988,1,60,20
0.10000000000000142,988,2,60,24
0.10000000000000142,988,3,60,28
0.10000000000000142,988,4,60,34
0.10000000000000142,988,5,60,37
0.10000000000000142,988,6,60,21
0.09999999999999432,988,7,60,28
0.09999999999999432,988,8,60,28
0.10000000000000142,988,9,60,19
0.10000000000000142,988,10,60,40
0.10000000000000142,988,11,60,13
0.09999999999999432,988,12,60,22
0.10000000000000142,988,13,60,21
0.10000000000000142,988,14,60,41
0.10000000000000142,988,15,60,27
0.09999999999999432,989,0,60,35
0.10000000000000142,989,1,60,35
0.10000000000000142,989,2,60,30
0.10000000000000142,989,3,60,34
0.10000000000000142,989,4,60,28
0.10000000000000142,989,5,60,22
0.09999999999999432,989,6,60,26
0.10000000000000142,989,7,60,24
0.10000000000000142,989,8,60,20
0.10000000000000142,989,9,60,26
0.09999999999999432,989,10,60,26
0.09999999999999432,989,11,60,34
0.10000000000000142,989,12,60,35
0.10000000000000142,989,13,60,28
0.09999999999999432,989,14,60,21
0.10000000000000142,989,15,60,19
0.10000000000000142,990,0,60,33
0.09999999999999432,990,1,60,29
0.09999999999999432,990,2,60,24
0.10000000000000142,990,3,60,28
0.10000000000000142,990,4,60,27
0.10000000000000142,990,5,60,28
0.10000000000000142,990,6,60,29
0.09999999999999432,990,7,60,33
0.10000000000000142,990,8,60,35
0.10000000000000142,990,9,60,47
0.10000000000000142,990,10,60,43
0.09999999999999432,990,11,60,49
0.09999999999999432,990,12,60,47
0.10000000000000142,990,13,60,30
0.10000000000000142,990,14,60,7
0.10000000000000142,990,15,60,41
0.10000000000000142,991,0,60,32
0.09999999999999432,991,1,60,37
0.10000000000000142,991,2,60,32
0.10000000000000142,991,3,60,36
0.10000000000000142,991,4,60,36
0.09999999999999432,991,5,60,37
0.09999999999999432,991,6,60,25
0.06818181818181301,991,7,60,32
0.0022727272727252057,991,8,60,34
0.10000000000000142,991,9,60,36
0.10000000000000142,991,10,60,25
0.10000000000000142,991,11,60,42
0.10000000000000142,991,12,60,42
0.10000000000000142,991,13,60,27
0.10000000000000142,991,14,60,31
0.10000000000000142,991,15,60,35
0.09999999999999432,992,0,60,26
0.10000000000000142,992,1,60,28
0.10000000000000142,992,2,60,49
0.10000000000000142,992,3,60,34
0.10000000000000142,992,4,60,38
0.10000000000000142,992,5,60,20
0.10000000000000142,992,6,60,30
0.10000000000000142,992,7,60,32
0.10000000000000142,992,8,60,27
0.09999999999999432,992,9,60,27
0.10000000000000142,992,10,60,22
0.10000000000000142,992,11,60,14
0.10000000000000142,992,12,60,30
0.10000000000000142,992,13,60,35
0.10000000000000142,992,14,60,30
0.10000000000000142,992,15,60,34
0.10000000000000142,993,0,60,35
0.10000000000000142,993,1,60,33
0.10000000000000142,993,2,60,37
0.10000000000000142,993,3,60,23
0.10000000000000142,993,4,60,14
0.09999999999999432,993,5,60,54
0.10000000000000142,993,6,60,45
0.10000000000000142,993,7,60,41
0.09999999999999432,993,8,60,42
0.10000000000000142,993,9,60,24
0.10000000000000142,993,10,60,33
0.06590909090909491,993,11,60,39
0.09999999999999432,993,12,60,50
0.10000000000000142,993,13,60,25
0.10000000000000142,993,14,60,22
0.10000000000000142,993,15,60,16
0.09999999999999432,994,0,60,36
0.10000000000000142,994,1,60,47
0.10000000000000142,994,2,60,34
0.09999999999999432,994,3,60,36
0.10000000000000142,994,4,60,28
0.09999999999999432,994,5,60,31
0.09999999999999432,994,6,60,32
0.09999999999999432,994,7,60,28
0.10000000000000142,994,8,60,21
0.10000000000000142,994,9,60,30
0.10000000000000142,994,10,60,20
0.10000000000000142,994,11,60,33
0.09999999999999432,994,12,60,21
0.10000000000000142,994,13,60,27
0.09999999999999432,994,14,60,40
0.09999999999999432,994,15,60,31
0.09999999999999432,995,0,60,37
0.09999999999999432,995,1,60,19
0.09999999999999432,995,2,60,36
0.09999999999999432,995,3,60,15
0.09999999999999432,995,4,60,28
0.10000000000000853,995,5,60,20
0.09999999999999432,995,6,60,23
0.10000000000000853,995,7,60,28
0.10000000000000853,995,8,60,28
0.09999999999999432,995,9,60,25
0.10000000000000853,995,10,60,32
0.10000000000000853,995,11,60,15
0.09999999999999432,995,12,60,35
0.10000000000000853,995,13,60,22
0.10000000000000853,995,14,60,12
0.09999999999999432,995,15,60,13
0.09999999999999432,996,0,60,26
0.09999999999999432,996,1,60,25
0.09999999999999432,996,2,60,29
0.09999999999999432,996,3,60,19
0.10000000000000853,996,4,60,12
0.09999999999999432,996,5,60,21
0.09999999999999432,996,6,60,31
0.09999999999999432,996,7,60,24
0.09999999999999432,996,8,60,21
0.09999999999999432,996,9,60,15
0.09999999999999432,996,10,60,23
0.10000000000000853,996,11,60,16
0.09999999999999432,996,12,60,28
0.09999999999999432,996,13,60,25
0.09999999999999432,996,14,60,21
0.10000000000000853,996,15,60,29
0.09999999999999432,997,0,60,31
0.10000000000000853,997,1,60,12
0.10000000000000853,997,2,60,27
0.10000000000000853,997,3,60,33
0.09999999999999432,997,4,60,25
0.09999999999999432,997,5,60,24
0.09999999999999432,997,6,60,19
0.09999999999999432,997,7,60,19
0.10000000000000853,997,8,60,28
0.09999999999999432,997,9,60,16
0.10000000000000853,997,10,60,38
0.09999999999999432,997,11,60,14
0.09999999999999432,997,12,60,32
0.09999999999999432,997,13,60,30
0.09999999999999432,997,14,60,31
0.09999999999999432,997,15,60,8
0.09999999999999432,998,0,60,22
0.09999999999999432,998,1,60,40
0.10000000000000853,998,2,60,26
0.09999999999999432,998,3,60,22
0.09999999999999432,998,4,60,28
0.09999999999999432,998,5,60,38
0.10000000000000853,998,6,60,24
0.09999999999999432,998,7,60,33
0.09999999999999432,998,8,60,16
0.09999999999999432,998,9,60,9
0.10000000000000853,998,10,60,19
0.09999999999999432,998,11,60,34
0.09999999999999432,998,12,60,23
0.10000000000000853,998,13,60,34
0.10000000000000853,998,14,60,22
0.10000000000000853,998,15,60,29
0.10000000000000853,999,0,60,28
0.09999999999999432,999,1,60,25
0.09999999999999432,999,2,60,27
0.10000000000000853,999,3,60,21
0.09999999999999432,999,4,60,21
0.09999999999999432,999,5,60,39
0.09999999999999432,999,6,60,37
0.09999999999999432,999,7,60,25
0.10000000000000853,999,8,60,29
0.09999999999999432,999,9,60,26
0.09999999999999432,999,10,60,39
0.09999999999999432,999,11,60,46
0.10000000000000853,999,12,60,44
0.09999999999999432,999,13,60,24
0.09999999999999432,999,14,60,21
0.10000000000000853,999,15,60,22
0.09999999999999432,1000,0,60,9
0.09999999999999432,1000,1,60,51
0.09999999999999432,1000,2,60,9
0.09999999999999432,1000,3,60,34
0.10000000000000853,1000,4,60,23
0.10000000000000853,1000,5,60,44
0.09999999999999432,1000,6,60,30
0.09999999999999432,1000,7,60,30
0.10000000000000853,1000,8,60,39
0.09999999999999432,1000,9,60,6
0.09999999999999432,1000,10,60,37
0.10000000000000853,1000,11,60,31
0.09999999999999432,1000,12,60,20
0.10000000000000853,1000,13,60,27
0.10000000000000853,1000,14,60,8
0.09999999999999432,1000,15,60,28
0.09999999999999432,1001,0,60,20
0.09999999999999432,1001,1,60,22
0.10000000000000853,1001,2,60,10
0.10000000000000853,1001,3,60,36
0.10000000000000853,1001,4,60,6
0.09999999999999432,1001,5,60,24
0.09999999999999432,1001,6,60,13
0.10000000000000853,1001,7,60,21
0.09999999999999432,1001,8,60,10
0.10000000000000853,1001,9,60,33
0.09999999999999432,1001,10,60,17
0.09999999999999432,1001,11,60,34
0.09999999999999432,1001,12,60,6
0.10000000000000853,1001,13,60,40
0.10000000000000853,1001,14,60,10
0.09999999999999432,1001,15,60,18
0.09999999999999432,1002,0,60,23
0.10000000000000853,1002,1,60,26
0.10000000000000853,1002,2,60,17
0.09999999999999432,1002,3,60,10
0.10000000000000853,1002,4,60,32
0.09999999999999432,1002,5,60,18
0.09999999999999432,1002,6,60,24
0.09999999999999432,1002,7,60,5
0.10000000000000853,1002,8,60,20
0.10000000000000853,1002,9,60,8
0.09999999999999432,1002,10,60,41
0.10000000000000853,1002,11,60,12
0.09999999999999432,1002,12,60,23
0.10000000000000853,1002,13,60,15
0.09999999999999432,1002,14,60,7
0.09999999999999432,1002,15,60,33
0.09999999999999432,1003,0,60,17
0.09999999999999432,1003,1,60,14
0.09999999999999432,1003,2,60,3
0.10000000000000853,1003,3,60,41
0.09999999999999432,1003,4,60,8
0.09999999999999432,1003,5,60,15
0.10000000000000853,1003,6,60,33
0.09999999999999432,1003,7,60,21
0.10000000000000853,1003,8,60,21
0.10000000000000853,1003,9,60,13
0.09999999999999432,1003,10,60,36
0.09999999999999432,1003,11,60,22
0.09999999999999432,1003,12,60,22
0.09999999999999432,1003,13,60,10
0.10000000000000853,1003,14,60,32
0.10000000000000853,1003,15,60,13
0.09999999999999432,1004,0,60,24
0.10000000000000853,1004,1,60,20
0.10000000000000853,1004,2,60,23
0.10000000000000853,1004,3,60,20
0.10000000000000853,1004,4,60,10
0.09999999999999432,1004,5,60,26
0.09999999999999432,1004,6,60,23
0.09999999999999432,1004,7,60,37
0.09999999999999432,1004,8,60,19
0.10000000000000853,1004,9,60,37
0.09999999999999432,1004,10,60,22
0.10000000000000853,1004,11,60,28
0.09999999999999432,1004,12,60,22
0.10000000000000853,1004,13,60,26
0.10000000000000853,1004,14,60,24
0.10000000000000853,1004,15,60,12
0.10000000000000853,1005,0,60,27
0.09999999999999432,1005,1,60,30
0.09999999999999432,1005,2,60,36
0.09999999999999432,1005,3,60,27
0.09999999999999432,1005,4,60,44
0.09999999999999432,1005,5,60,15
0.09999999999999432,1005,6,60,21
0.09999999999999432,1005,7,60,33
0.09999999999999432,1005,8,60,34
0.10000000000000853,1005,9,60,31
0.10000000000000853,1005,10,60,22
0.09999999999999432,1005,11,60,25
0.09999999999999432,1005,12,60,25
0.10000000000000853,1005,13,60,13
0.10000000000000853,1005,14,60,23
0.09999999999999432,1005,15,60,10
0.09999999999999432,1006,0,60,23
0.10000000000000853,1006,1,60,38
0.10000000000000853,1006,2,60,37
0.10000000000000853,1006,3,60,23
0.10000000000000853,1006,4,60,10
0.09999999999999432,1006,5,60,19
0.09999999999999432,1006,6,60,28
0.09999999999999432,1006,7,60,32
0.09999999999999432,1006,8,60,20
0.10000000000000853,1006,9,60,28
0.09999999999999432,1006,10,60,23
0.09999999999999432,1006,11,60,38
0.10000000000000853,1006,12,60,20
0.09999999999999432,1006,13,60,21
0.09999999999999432,1006,14,60,25
0.09999999999999432,1006,15,60,12
0.10000000000000853,1007,0,60,28
0.10000000000000853,1007,1,60,18
0.10000000000000853,1007,2,60,10
0.025000000000005684,1007,3,60,24
0.09999999999999432,1007,4,60,62
0.09999999999999432,1007,5,60,19
0.09999999999999432,1007,6,60,11
0.10000000000000853,1007,7,60,63
0.10000000000000853,1007,8,60,33
0.09999999999999432,1007,9,60,22
0.09999999999999432,1007,10,60,26
0.10000000000000853,1007,11,60,32
0.10000000000000853,1007,12,60,21
0.09999999999999432,1007,13,60,11
0.10000000000000853,1007,14,60,75
0.10000000000000853,1007,15,60,31
0.10000000000000853,1008,0,60,49
0.10000000000000853,1008,1,60,24
0.09999999999999432,1008,2,60,21
0.09999999999999432,1008,3,60,22
0.10000000000000853,1008,4,60,34
0.10000000000000853,1008,5,60,29
0.10000000000000853,1008,6,60,19
0.09999999999999432,1008,7,60,17
0.09999999999999432,1008,8,60,17
0.09999999999999432,1008,9,60,13
0.09999999999999432,1008,10,60,34
0.09999999999999432,1008,11,60,19
0.10000000000000853,1008,12,60,38
0.09999999999999432,1008,13,60,20
0.09999999999999432,1008,14,60,27
0.10000000000000853,1008,15,60,19
0.09999999999999432,1009,0,60,15
0.09999999999999432,1009,1,60,24
0.09999999999999432,1009,2,60,13
0.09999999999999432,1009,3,60,45
0.09999999999999432,1009,4,60,35
0.09999999999999432,1009,5,60,45
0.09999999999999432,1009,6,60,25
0.09999999999999432,1009,7,60,29
0.09999999999999432,1009,8,60,24
0.09999999999999432,1009,9,60,28
0.09999999999999432,1009,10,60,30
0.10000000000002274,1009,11,60,31
0.09999999999999432,1009,12,60,32
0.09999999999999432,1009,13,60,39
0.09999999999999432,1009,14,60,18
0.09999999999999432,1009,15,60,29
0.09999999999999432,1010,0,60,24
0.09999999999999432,1010,1,60,41
0.09999999999999432,1010,2,60,27
0.09999999999999432,1010,3,60,34
0.10000000000002274,1010,4,60,27
0.09999999999999432,1010,5,60,19
0.09999999999999432,1010,6,60,25
0.10000000000002274,1010,7,60,41
0.10000000000002274,1010,8,60,36
0.09999999999999432,1010,9,60,42
0.10000000000002274,1010,10,60,33
0.09999999999999432,1010,11,60,41
0.09999999999999432,1010,12,60,34
0.10000000000002274,1010,13,60,23
0.09999999999999432,1010,14,60,57
0.09999999999999432,1010,15,60,31
0.09999999999999432,1011,0,60,28
0.09999999999999432,1011,1,60,29
0.09999999999999432,1011,2,60,44
0.09999999999999432,1011,3,60,34
0.09999999999999432,1011,4,60,127
0.09999999999999432,1011,5,60,33
0.09999999999999432,1011,6,60,21
0.10000000000002274,1011,7,60,24
0.10000000000002274,1011,8,60,19
0.09999999999999432,1011,9,60,42
0.09999999999999432,1011,10,60,20
0.09999999999999432,1011,11,60,37
0.09999999999999432,1011,12,60,24
0.09999999999999432,1011,13,60,21
0.10000000000002274,1011,14,60,18
0.09999999999999432,1011,15,60,20
0.10000000000002274,1012,0,60,13
0.09999999999999432,1012,1,60,36
0.09999999999999432,1012,2,60,25
0.10000000000002274,1012,3,60,40
0.09999999999999432,1012,4,60,39
0.10000000000002274,1012,5,60,24
0.09999999999999432,1012,6,60,17
0.09999999999999432,1012,7,60,25
0.09999999999999432,1012,8,60,10
0.09999999999999432,1012,9,60,50
0.09999999999999432,1012,10,60,33
0.09999999999999432,1012,11,60,29
0.09999999999999432,1012,12,60,15
0.09999999999999432,1012,13,60,35
0.09999999999999432,1012,14,60,54
0.09999999999999432,1012,15,60,47
0.09999999999999432,1013,0,60,37
0.10000000000002274,1013,1,60,31
0.09999999999999432,1013,2,60,35
0.10000000000002274,1013,3,60,39
0.09999999999999432,1013,4,60,34
0.10000000000002274,1013,5,60,26
0.09999999999999432,1013,6,60,41
0.09999999999999432,1013,7,60,34
0.09999999999999432,1013,8,60,40
0.10000000000002274,1013,9,60,80
0.10000000000002274,1013,10,60,36
0.09999999999999432,1013,11,60,40
0.09999999999999432,1013,12,60,38
0.09999999999999432,1013,13,60,16
0.09999999999999432,1013,14,60,62
0.09999999999999432,1013,15,60,32
0.09999999999999432,1014,0,60,51
0.09999999999999432,1014,1,60,29
0.09999999999999432,1014,2,60,62
0.09999999999999432,1014,3,60,64
0.09999999999999432,1014,4,60,19
0.09999999999999432,1014,5,60,19
0.09999999999999432,1014,6,60,12
0.09999999999999432,1014,7,60,10
0.10000000000002274,1014,8,60,10
0.09999999999999432,1014,9,60,6
0.09999999999999432,1014,10,60,8
0.09999999999999432,1014,11,60,59
0.10000000000002274,1014,12,60,35
0.10000000000002274,1014,13,60,26
0.09999999999999432,1014,14,60,15
0.09999999999999432,1014,15,60,10
0.09999999999999432,1015,0,60,10
0.09999999999999432,1015,1,60,8
0.09999999999999432,1015,2,60,14
0.09999999999999432,1015,3,60,39
0.10000000000002274,1015,4,60,16
0.10000000000002274,1015,5,60,21
0.09999999999999432,1015,6,60,8
0.09999999999999432,1015,7,60,8
0.09999999999999432,1015,8,60,8
0.10000000000002274,1015,9,60,4
0.09999999999999432,1015,10,60,7
0.09999999999999432,1015,11,60,24
0.09999999999999432,1015,12,60,16
0.09999999999999432,1015,13,60,19
0.09999999999999432,1015,14,60,7
0.09999999999999432,1015,15,60,5
0.09999999999999432,1016,0,60,6
0.09999999999999432,1016,1,60,4
0.09999999999999432,1016,2,60,12
0.09999999999999432,1016,3,60,46
0.09999999999999432,1016,4,60,31
0.10000000000002274,1016,5,60,27
0.10000000000002274,1016,6,60,20
0.09999999999999432,1016,7,60,16
0.09999999999999432,1016,8,60,16
0.09999999999999432,1016,9,60,15
0.09999999999999432,1016,10,60,10
0.09999999999999432,1016,11,60,23
0.09999999999999432,1016,12,60,44
0.09999999999999432,1016,13,60,23
0.10000000000002274,1016,14,60,23
0.09999999999999432,1016,15,60,16
0.09999999999999432,1017,0,60,11
0.09999999999999432,1017,1,60,12
0.10000000000002274,1017,2,60,7
0.09999999999999432,1017,3,60,16
0.09999999999999432,1017,4,60,38
0.09999999999999432,1017,5,60,16
0.10000000000002274,1017,6,60,21
0.09999999999999432,1017,7,60,10
0.09999999999999432,1017,8,60,10
0.09999999999999432,1017,9,60,19
0.10000000000002274,1017,10,60,17
0.09999999999999432,1017,11,60,21
0.09999999999999432,1017,12,60,5
0.10000000000002274,1017,13,60,25
0.10000000000002274,1017,14,60,24
0.09999999999999432,1017,15,60,41
0.10000000000002274,1018,0,60,28
0.09999999999999432,1018,1,60,39
0.09999999999999432,1018,2,60,30
0.09999999999999432,1018,3,60,35
0.10000000000002274,1018,4,60,38
0.09999999999999432,1018,5,60,34
0.004545454545450411,1018,6,60,22
0.10000000000002274,1018,7,60,33
0.10000000000002274,1018,8,60,50
0.09999999999999432,1018,9,60,40
0.09999999999999432,1018,10,60,60
0.09999999999999432,1018,11,60,48
0.10000000000002274,1018,12,60,41
0.09999999999999432,1018,13,60,21
0.09999999999999432,1018,14,60,45
0.09999999999999432,1018,15,60,41
0.09999999999999432,1019,0,60,41
0.09999999999999432,1019,1,60,59
0.09999999999999432,1019,2,60,48
0.09999999999999432,1019,3,60,39
0.10000000000002274,1019,4,60,29
0.09999999999999432,1019,5,60,24
0.09999999999999432,1019,6,60,83
0.10000000000002274,1019,7,60,43
0.09999999999999432,1019,8,60,19
0.09999999999999432,1019,9,60,61
0.09999999999999432,1019,10,60,35
0.09999999999999432,1019,11,60,48
0.10000000000002274,1019,12,60,50
0.10000000000002274,1019,13,60,42
0.09999999999999432,1019,14,60,38
0.10000000000002274,1019,15,60,51
0.09999999999999432,1020,0,60,30
0.09999999999999432,1020,1,60,22
0.056818181818186986,1020,2,60,29
0.09999999999999432,1020,3,60,70
0.09999999999999432,1020,4,60,28
0.09999999999999432,1020,5,60,70
0.10000000000002274,1020,6,60,46
0.09999999999999432,1020,7,60,37
0.09999999999999787,1020,8,62,23
0.10000000000000142,1020,9,62,19
0.10000000000000142,1020,10,62,21
0.10000000000000142,1020,11,62,25
0.10000000000000142,1020,12,62,19
0.09999999999999787,1020,13,62,2
0.10000000000000142,1020,14,62,2
0.10000000000000142,1020,15,62,2
0.09999999999999432,1021,0,62,3
0.10000000000000142,1021,1,62,4
0.10000000000000142,1021,2,62,1
0.09999999999999432,1021,3,62,3
0.10000000000000142,1021,4,62,4
0.10000000000000142,1021,5,62,6
0.10000000000000142,1021,6,62,3
0.10000000000000142,1021,7,62,4
0.10000000000000142,1021,8,62,7
0.10000000000000142,1021,9,62,2
0.10000000000000142,1021,10,62,8
0.10000000000000142,1021,11,62,9
0.10000000000000142,1021,12,62,15
0.10000000000000142,1021,13,62,3
0.09999999999999432,1021,14,62,4
0.10000000000000142,1021,15,62,5
0.10000000000000142,1022,0,62,6
0.10000000000000142,1022,1,62,5
0.10000000000000142,1022,2,62,10
0.10000000000000142,1022,3,62,8
0.10000000000000142,1022,4,62,7
0.10000000000000142,1022,5,62,8
0.09999999999999432,1022,6,62,5
0.09999999999999432,1022,7,62,8
0.09999999999999432,1022,8,62,9
0.10000000000000142,1022,9,62,2
0.10000000000000142,1022,10,62,14
0.10000000000000142,1022,11,62,3
0.10000000000000142,1022,12,62,4
0.10000000000000142,1022,13,62,7
0.10000000000000142,1022,14,62,4
0.09999999999999432,1022,15,62,16
0.10000000000000142,1023,0,62,13
0.09999999999999432,1023,1,62,4
0.10000000000000142,1023,2,62,4
0.10000000000000142,1023,3,62,5
0.10000000000000142,1023,4,62,12
0.10000000000000142,1023,5,62,14
0.10000000000000142,1023,6,62,3
0.10000000000000142,1023,7,62,4
0.09999999999999432,1023,8,62,6
0.10000000000000142,1023,9,62,5
0.10000000000000142,1023,10,62,21
0.10000000000000853,1023,11,62,1
0.10000000000000853,1023,12,62,1
0.09999999999999432,1023,13,62,1
0.09999999999999432,1023,14,62,12
0.09999999999999432,1023,15,62,1
0.09999999999999432,1024,0,62,1
0.09999999999999432,1024,1,62,1
0.10000000000000009,1024,2,89,23
0.09999999999999964,1024,3,89,50
0.09999999999999964,1024,4,89,51
0.09999999999999964,1024,5,89,49
0.10000000000000053,1024,6,89,49
0.10000000000000053,1024,7,89,48
0.09999999999999964,1024,8,89,49
0.09999999999999964,1024,9,89,43
0.09999999999999964,1024,10,89,45
0.09999999999999964,1024,11,89,44
0.09999999999999964,1024,12,89,44
0.09999999999999964,1024,13,89,46
0.10000000000000142,1024,14,89,44
0.10000000000000142,1024,15,89,45
0.10000000000000142,1025,0,89,44
0.09999999999999787,1025,1,89,45
0.09999999999999787,1025,2,89,43
0.10000000000000142,1025,3,89,20
0.09999999999999787,1025,4,89,39
0.10000000000000142,1025,5,89,42
0.10000000000000142,1025,6,89,47
0.10000000000000142,1025,7,89,44
0.10000000000000142,1025,8,89,1
0.10000000000000142,1025,9,89,2
0.10000000000000142,1025,10,89,2
0.10000000000000142,1025,11,89,41
0.10000000000000142,1025,12,89,1
0.09999999999999787,1025,13,89,3
0.10000000000000142,1025,14,89,2
0.09999999999999787,1025,15,89,2
0.10000000000000142,1026,0,89,2
0.09999999999999787,1026,1,89,44
0.10000000000000142,1026,2,89,1
0.10000000000000142,1026,3,89,2
0.10000000000000142,1026,4,89,2
0.10000000000000142,1026,5,89,2
0.10000000000000142,1026,6,89,2
0.10000000000000142,1026,7,89,44
0.10000000000000142,1026,8,89,1
0.10000000000000142,1026,9,89,2
0.10000000000000142,1026,10,89,2
0.10000000000000142,1026,11,89,2
0.10000000000000142,1026,12,89,2
0.10000000000000142,1026,13,89,42
0.10000000000000142,1026,14,89,1
0.09999999999999432,1026,15,89,1
0.10000000000000142,1027,0,89,2
0.10000000000000142,1027,1,89,2
0.10000000000000142,1027,2,89,2
0.10000000000000142,1027,3,89,2
0.09999999999999432,1027,4,89,44
0.10000000000000142,1027,5,89,2
0.09999999999999432,1027,6,89,2
0.10000000000000142,1027,7,89,1
0.10000000000000142,1027,8,89,2
0.10000000000000142,1027,9,89,46
0.10000000000000142,1027,10,89,2
0.09999999999999432,1027,11,89,2
0.10000000000000142,1027,12,89,2
0.10000000000000142,1027,13,89,2
0.10000000000000142,1027,14,89,2
0.004545454545457517,1027,15,89,42
0.10000000000000142,1028,0,89,2
0.10000000000000142,1028,1,89,3
0.10000000000000142,1028,2,89,2
0.10000000000000142,1028,3,89,2
0.10000000000000142,1028,4,89,2
0.09999999999999432,1028,5,89,42
0.09999999999999432,1028,6,89,1
0.10000000000000142,1028,7,89,2
0.10000000000000142,1028,8,89,2
0.10000000000000142,1028,9,89,2
0.10000000000000142,1028,10,89,2
0.10000000000000142,1028,11,89,40
0.10000000000000142,1028,12,89,2
0.09999999999999432,1028,13,89,3
0.09999999999999432,1028,14,89,2
0.10000000000000142,1028,15,89,2
0.10000000000000142,1029,0,89,3
0.10000000000000142,1029,1,89,43
0.10000000000000142,1029,2,89,2
0.10000000000000142,1029,3,89,2
0.10000000000000142,1029,4,89,2
0.10000000000000142,1029,5,89,2
0.10000000000000142,1029,6,89,2
0.10000000000000142,1029,7,89,3
0.10000000000000142,1029,8,89,45
0.09999999999999432,1029,9,89,1
0.10000000000000142,1029,10,89,3
0.09999999999999432,1029,11,89,2
0.10000000000000142,1029,12,89,2
0.10000000000000142,1029,13,89,2
0.10000000000000142,1029,14,89,43
0.10000000000000142,1029,15,89,1
0.09999999999999432,1030,0,89,2
0.10000000000000142,1030,1,89,2
0.10000000000000142,1030,2,89,2
0.10000000000000142,1030,3,89,43
0.10000000000000142,1030,4,89,2
0.09999999999999432,1030,5,89,3
0.10000000000000142,1030,6,89,2
0.10000000000000142,1030,7,89,2
0.10000000000000142,1030,8,89,2
0.10000000000000142,1030,9,89,45
0.10000000000000142,1030,10,89,1
0.10000000000000142,1030,11,89,3
0.10000000000000142,1030,12,89,2
0.10000000000000142,1030,13,89,2
0.09999999999999432,1030,14,89,2
0.09999999999999432,1030,15,89,41
0.10000000000000142,1031,0,89,1
0.10000000000000142,1031,1,89,3
0.10000000000000142,1031,2,89,2
0.10000000000000142,1031,3,89,1
0.09999999999999432,1031,4,89,40
0.10000000000000142,1031,5,89,2
0.09999999999999432,1031,6,89,3
0.10000000000000142,1031,7,89,2
0.09999999999999432,1031,8,89,2
0.10000000000000142,1031,9,89,2
0.10000000000000142,1031,10,89,43
0.10000000000000142,1031,11,89,2
0.09999999999999432,1031,12,89,3
0.10000000000000142,1031,13,89,2
0.10000000000000142,1031,14,89,2
0.09999999999999432,1031,15,89,45
0.10000000000000142,1032,0,89,1
0.10000000000000142,1032,1,89,2
0.10000000000000142,1032,2,89,2
0.10000000000000142,1032,3,89,2
0.10000000000000142,1032,4,89,2
0.09999999999999432,1032,5,89,43
0.09999999999999432,1032,6,89,1
0.10000000000000142,1032,7,89,3
0.10000000000000142,1032,8,89,2
0.10000000000000142,1032,9,89,3
0.10000000000000142,1032,10,89,45
0.09999999999999432,1032,11,89,1
0.10000000000000142,1032,12,89,3
0.10000000000000142,1032,13,89,2
0.10000000000000142,1032,14,89,2
0.10000000000000142,1032,15,89,2
0.10000000000000142,1033,0,89,44
0.09999999999999432,1033,1,89,2
0.10000000000000142,1033,2,89,3
0.10000000000000142,1033,3,89,2
0.10000000000000142,1033,4,89,2
0.10000000000000142,1033,5,89,43
0.09999999999999432,1033,6,89,2
0.10000000000000142,1033,7,89,2
0.09999999999999432,1033,8,89,1
0.10000000000000142,1033,9,89,2
0.10000000000000142,1033,10,89,2
0.10000000000000142,1033,11,89,46
0.10000000000000142,1033,12,89,1
0.10000000000000142,1033,13,89,3
0.10000000000000142,1033,14,89,2
0.10000000000000142,1033,15,89,2
0.10000000000000142,1034,0,89,2
0.10000000000000142,1034,1,89,45
0.10000000000000142,1034,2,89,1
0.09999999999999432,1034,3,89,2
0.10000000000000142,1034,4,89,2
0.10000000000000142,1034,5,89,2
0.10000000000000142,1034,6,89,2
0.10000000000000142,1034,7,89,43
0.10000000000000142,1034,8,89,2
0.10000000000000142,1034,9,89,3
0.10000000000000142,1034,10,89,2
0.10000000000000142,1034,11,89,2
0.10000000000000142,1034,12,89,2
0.09999999999999432,1034,13,89,37
0.10000000000000142,1034,14,89,3
0.10000000000000142,1034,15,89,2
0.10000000000000142,1035,0,89,3
0.10000000000000142,1035,1,89,2
0.10000000000000142,1035,2,89,3
0.10000000000000142,1035,3,89,2
0.09999999999999432,1035,4,89,36
0.09999999999999432,1035,5,89,3
0.10000000000000142,1035,6,89,2
0.09999999999999432,1035,7,89,3
0.09999999999999432,1035,8,89,3
0.10000000000000142,1035,9,89,3
0.10000000000000142,1035,10,89,37
0.10000000000000142,1035,11,89,3
0.10000000000000142,1035,12,89,2
0.10000000000000142,1035,13,89,3
0.10000000000000142,1035,14,89,2
0.09999999999999432,1035,15,89,3
0.10000000000000142,1036,0,89,2
0.09999999999999432,1036,1,89,38
0.10000000000000142,1036,2,89,3
0.10000000000000142,1036,3,89,2
0.10000000000000142,1036,4,89,3
0.10000000000000142,1036,5,89,3
0.09999999999999432,1036,6,89,3
0.09999999999999432,1036,7,89,2
0.10000000000000853,1036,8,89,39
0.10000000000000853,1036,9,89,3
0.09999999999999432,1036,10,89,2
0.10000000000000853,1036,11,89,3
0.09999999999999432,1036,12,89,3
0.09999999999999432,1036,13,89,4
0.09999999999999432,1036,14,89,2
0.10000000000000853,1036,15,89,32
0.10000000000000853,1037,0,89,3
0.10000000000000853,1037,1,89,2
0.10000000000000853,1037,2,89,3
0.10000000000000853,1037,3,89,2
0.10000000000000853,1037,4,89,3
0.09999999999999432,1037,5,89,3
0.10000000000000853,1037,6,89,37
0.09999999999999432,1037,7,89,3
0.10000000000000853,1037,8,89,2
0.10000000000000853,1037,9,89,3
0.09999999999999432,1037,10,89,2
0.10000000000000853,1037,11,89,3
0.09999999999999432,1037,12,89,3
0.10000000000000853,1037,13,89,36
0.10000000000000853,1037,14,89,3
0.09999999999999432,1037,15,89,2
0.10000000000000853,1038,0,89,3
0.10000000000000853,1038,1,89,3
0.09999999999999432,1038,2,89,3
0.10000000000000853,1038,3,89,37
0.10000000000000853,1038,4,89,3
0.10000000000000853,1038,5,89,1
0.10000000000000853,1038,6,89,3
0.10000000000000853,1038,7,89,2
0.09999999999999432,1038,8,89,3
0.09999999999999432,1038,9,89,3
0.10000000000000853,1038,10,89,40
0.09999999999999432,1038,11,89,3
0.10000000000000853,1038,12,89,2
0.10000000000000853,1038,13,89,3
0.10000000000000853,1038,14,89,3
0.09999999999999432,1038,15,89,3
0.10000000000000853,1039,0,89,2
0.10000000000000853,1039,1,89,37
0.09999999999999432,1039,2,89,3
0.09999999999999432,1039,3,89,2
0.09999999999999432,1039,4,89,3
0.10000000000000853,1039,5,89,2
0.09999999999999432,1039,6,89,4
0.09999999999999432,1039,7,89,3
0.10000000000000853,1039,8,89,37
0.09999999999999432,1039,9,89,3
0.10000000000000853,1039,10,89,2
0.10000000000000853,1039,11,89,3
0.10000000000000853,1039,12,89,2
0.09999999999999432,1039,13,89,3
0.10000000000000853,1039,14,89,2
0.004545454545464622,1039,15,89,36
0.10000000000000853,1040,0,89,3
0.10000000000000853,1040,1,89,2
0.10000000000000853,1040,2,89,3
0.10000000000000853,1040,3,89,2
0.09999999999999432,1040,4,89,3
0.09999999999999432,1040,5,89,2
0.10000000000000853,1040,6,89,36
0.09999999999999432,1040,7,89,3
0.10000000000000853,1040,8,89,2
0.10000000000000853,1040,9,89,3
0.09999999999999432,1040,10,89,2
0.09999999999999432,1040,11,89,3
0.09999999999999432,1040,12,89,2
0.10000000000000853,1040,13,89,35
0.10000000000000853,1040,14,89,3
0.09999999999999432,1040,15,89,2
0.10000000000000853,1041,0,89,3
0.09999999999999432,1041,1,89,2
0.09999999999999432,1041,2,89,3
0.09999999999999432,1041,3,89,2
0.10000000000000853,1041,4,89,37
0.09999999999999432,1041,5,89,1
0.09999999999999432,1041,6,89,2
0.10000000000000853,1041,7,89,3
0.09999999999999432,1041,8,89,3
0.09999999999999432,1041,9,89,3
0.09999999999999432,1041,10,89,2
0.10000000000000853,1041,11,89,36
0.09999999999999432,1041,12,89,3
0.10000000000000853,1041,13,89,2
0.10000000000000853,1041,14,89,3
0.10000000000000853,1041,15,89,3
0.09999999999999432,1042,0,89,3
0.09999999999999432,1042,1,89,3
0.10000000000000853,1042,2,89,37
0.09999999999999432,1042,3,89,3
0.09999999999999432,1042,4,89,2
0.10000000000000853,1042,5,89,3
0.09999999999999432,1042,6,89,2
0.09999999999999432,1042,7,89,3
0.09999999999999432,1042,8,89,2
0.10000000000000853,1042,9,89,37
0.10000000000000853,1042,10,89,3
0.10000000000000853,1042,11,89,2
0.10000000000000853,1042,12,89,3
0.09999999999999432,1042,13,89,3
0.09999999999999432,1042,14,89,2
0.09999999999999432,1042,15,89,37
0.10000000000000853,1043,0,89,3
0.09999999999999432,1043,1,89,2
0.10000000000000853,1043,2,89,3
0.09999999999999432,1043,3,89,3
0.09999999999999432,1043,4,89,3
0.09999999999999432,1043,5,89,3
0.10000000000000853,1043,6,89,35
0.09999999999999432,1043,7,89,3
0.09999999999999432,1043,8,89,2
0.10000000000000853,1043,9,89,29
0.10000000000000853,1043,10,89,46
0.10000000000000853,1043,11,89,40
0.10000000000000853,1043,12,89,43
0.10000000000000853,1043,13,89,53
0.10000000000000853,1043,14,89,23
0.10000000000000853,1043,15,89,31
0.09999999999999432,1044,0,89,40
0.09999999999999432,1044,1,89,44
0.10000000000000853,1044,2,89,41
0.09999999999999432,1044,3,89,33
0.09999999999999432,1044,4,89,37
0.10000000000000853,1044,5,89,48
0.10000000000000853,1044,6,89,41
0.09999999999999432,1044,7,89,31
0.10000000000000853,1044,8,89,37
0.10000000000000853,1044,9,89,44
0.10000000000000853,1044,10,89,41
0.09999999999999432,1044,11,89,34
0.10000000000000853,1044,12,89,32
0.10000000000000853,1044,13,89,41
0.09999999999999432,1044,14,89,38
0.10000000000000853,1044,15,89,15
0.10000000000000853,1045,0,89,1
0.10000000000000853,1045,1,89,1
0.10000000000000853,1045,2,89,1
0.09999999999999432,1045,3,89,17
0.09999999999999432,1045,4,89,1
0.09999999999999432,1045,5,89,1
0.10000000000000853,1045,6,89,3
0.09999999999999432,1045,7,89,1
0.10000000000000853,1045,8,89,1
0.10000000000000853,1045,9,89,1
0.09999999999999432,1045,10,89,19
0.09999999999999432,1045,11,89,1
0.10000000000000853,1045,12,89,3
0.10000000000000853,1045,13,89,1
0.10000000000000853,1045,14,89,1
0.09999999999999432,1045,15,89,1
0.09999999999999432,1046,0,89,20
0.09999999999999432,1046,1,89,1
0.09999999999999432,1046,2,89,1
0.10000000000000853,1046,3,89,3
0.09999999999999432,1046,4,89,1
0.10000000000000853,1046,5,89,1
0.09999999999999432,1046,6,89,1
0.0022727272727252057,1046,7,89,18
0.09999999999999432,1046,8,89,2
0.09999999999999432,1046,9,89,1
0.10000000000000853,1046,10,89,3
0.10000000000000853,1046,11,89,1
0.10000000000000853,1046,12,89,1
0.10000000000000853,1046,13,89,1
0.09999999999999432,1046,14,89,20
0.09999999999999432,1046,15,89,1
0.09999999999999432,1047,0,89,1
0.09999999999999432,1047,1,89,3
0.09999999999999432,1047,2,89,1
0.10000000000000853,1047,3,89,1
0.09999999999999432,1047,4,89,1
0.09999999999999432,1047,5,89,18
0.09999999999999432,1047,6,89,2
0.09999999999999432,1047,7,89,1
0.10000000000000853,1047,8,89,3
0.09999999999999432,1047,9,89,1
0.10000000000000853,1047,10,89,1
0.10000000000000853,1047,11,89,1
0.09999999999999432,1047,12,89,16
0.09999999999999432,1047,13,89,1
0.09999999999999432,1047,14,89,1
0.10000000000000853,1047,15,89,3
0.09999999999999432,1048,0,89,1
0.10000000000000853,1048,1,89,1
0.09999999999999432,1048,2,89,1
0.004545454545450411,1048,3,89,18
0.09999999999999432,1048,4,89,2
0.10000000000002274,1048,5,89,1
0.09999999999999432,1048,6,89,3
0.09999999999999432,1048,7,89,1
0.09999999999999432,1048,8,89,1
0.09999999999999432,1048,9,89,16
0.09999999999999432,1048,10,89,1
0.09999999999999432,1048,11,89,3
0.10000000000002274,1048,12,89,1
0.09999999999999432,1048,13,89,1
0.09999999999999432,1048,14,89,1
0.09999999999999432,1048,15,89,17
0.10000000000002274,1049,0,89,2
0.09999999999999432,1049,1,89,1
0.09999999999999432,1049,2,89,3
0.09999999999999432,1049,3,89,1
0.09999999999999432,1049,4,89,1
0.09999999999999432,1049,5,89,1
0.09999999999999432,1049,6,89,17
0.09999999999999432,1049,7,89,2
0.10000000000002274,1049,8,89,1
0.09999999999999432,1049,9,89,3
0.09999999999999432,1049,10,89,1
0.09999999999999432,1049,11,89,2
0.09999999999999432,1049,12,89,1
0.09999999999999432,1049,13,89,16
0.10000000000002274,1049,14,89,2
0.09999999999999432,1049,15,89,1
0.09999999999999432,1050,0,89,1
0.09999999999999432,1050,1,89,2
0.10000000000002274,1050,2,89,17
0.10000000000002274,1050,3,89,1
0.10000000000002274,1050,4,89,1
0.09999999999999432,1050,5,89,2
0.09999999999999432,1050,6,89,1
0.09999999999999432,1050,7,89,1
0.09999999999999432,1050,8,89,1
0.09999999999999432,1050,9,89,16
0.09999999999999432,1050,10,89,2
0.10000000000002274,1050,11,89,1
0.09999999999999432,1050,12,89,3
0.09999999999999432,1050,13,89,1
0.09999999999999432,1050,14,89,1
0.09999999999999432,1050,15,89,1
0.09999999999999432,1051,0,89,17
0.10000000000002274,1051,1,89,2
0.09999999999999432,1051,2,89,1
0.09999999999999432,1051,3,89,3
0.10000000000002274,1051,4,89,1
0.09999999999999432,1051,5,89,1
0.10000000000002274,1051,6,89,16
0.09999999999999432,1051,7,89,2
0.09999999999999432,1051,8,89,1
0.09999999999999432,1051,9,89,2
0.09999999999999432,1051,10,89,1
0.09999999999999432,1051,11,89,1
0.09999999999999432,1051,12,89,18
0.10000000000002274,1051,13,89,1
0.09999999999999432,1051,14,89,3
0.09999999999999432,1051,15,89,1
0.09999999999999432,1052,0,89,1
0.10000000000002274,1052,1,89,1
0.004545454545450411,1052,2,89,16
0.10000000000002274,1052,3,89,2
0.09999999999999432,1052,4,89,1
0.09999999999999432,1052,5,89,3
0.09999999999999432,1052,6,89,1
0.09999999999999432,1052,7,89,1
0.09999999999999432,1052,8,89,1
0.10000000000002274,1052,9,89,18
0.10000000000002274,1052,10,89,1
0.09999999999999432,1052,11,89,3
0.09999999999999432,1052,12,89,1
0.09999999999999432,1052,13,89,1
0.09999999999999432,1052,14,89,1
0.09999999999999432,1052,15,89,16
0.09999999999999432,1053,0,89,2
0.10000000000002274,1053,1,89,1
0.09999999999999432,1053,2,89,3
0.09999999999999432,1053,3,89,1
0.10000000000002274,1053,4,89,1
0.0022727272727252057,1053,5,89,15
0.10000000000002274,1053,6,89,1
0.09999999999999432,1053,7,89,1
0.09999999999999432,1053,8,89,3
0.10000000000002274,1053,9,89,1
0.09999999999999432,1053,10,89,1
0.09999999999999432,1053,11,89,1
0.10000000000002274,1053,12,89,18
0.09999999999999432,1053,13,89,2
0.10000000000002274,1053,14,89,1
0.09999999999999432,1053,15,89,3
0.09999999999999432,1054,0,89,1
0.09999999999999432,1054,1,89,1
0.09999999999999432,1054,2,89,19
0.10000000000002274,1054,3,89,2
0.09999999999999432,1054,4,89,1
0.09999999999999432,1054,5,89,3
0.09999999999999432,1054,6,89,1
0.09999999999999432,1054,7,89,2
0.09999999999999432,1054,8,89,1
0.10000000000002274,1054,9,89,18
0.10000000000002274,1054,10,89,2
0.09999999999999432,1054,11,89,1
0.09999999999999432,1054,12,89,3
0.09999999999999432,1054,13,89,1
0.09999999999999432,1054,14,89,1
0.09999999999999432,1054,15,89,2
0.09999999999999432,1055,0,89,16
0.09999999999999432,1055,1,89,1
0.10000000000002274,1055,2,89,1
0.09999999999999432,1055,3,89,3
0.09999999999999432,1055,4,89,1
0.09999999999999432,1055,5,89,1
0.10000000000002274,1055,6,89,1
0.09999999999999432,1055,7,89,9
0.10000000000002274,1055,8,89,2
0.09999999999999432,1055,9,89,3
0.09999999999999432,1055,10,89,2
0.09999999999999432,1055,11,89,2
0.10000000000002274,1055,12,89,9
0.09999999999999432,1055,13,89,2
0.09999999999999432,1055,14,89,1
0.09999999999999432,1055,15,89,2
0.09999999999999432,1056,0,89,9
0.09999999999999432,1056,1,89,2
0.09999999999999432,1056,2,89,3
0.09999999999999432,1056,3,89,2
0.09999999999999432,1056,4,89,10
0.09999999999999432,1056,5,89,3
0.10000000000002274,1056,6,89,9
0.09999999999999432,1056,7,89,2
0.09999999999999432,1056,8,89,2
0.09999999999999432,1056,9,89,2
0.09999999999999432,1056,10,89,8
0.09999999999999432,1056,11,89,3
0.09999999999999432,1056,12,89,2
0.09999999999999432,1056,13,89,3
0.09999999999999432,1056,14,89,11
0.09999999999999432,1056,15,89,2
0.10000000000002274,1057,0,89,33
0.09999999999999432,1057,1,89,27
0.10000000000002274,1057,2,89,35
0.10000000000002274,1057,3,89,31
0.09999999999999432,1057,4,89,37
0.10000000000002274,1057,5,89,29
0.10000000000002274,1057,6,89,34
0.09999999999999432,1057,7,89,32
0.10000000000002274,1057,8,89,30
0.10000000000002274,1057,9,89,33
0.09999999999999432,1057,10,89,34
0.10000000000002274,1057,11,89,34
0.10000000000002274,1057,12,89,29
0.09999999999999432,1057,13,89,30
0.09999999999999432,1057,14,89,3
0.09999999999999432,1057,15,89,2
0.09999999999999432,1058,0,89,10
0.09999999999999432,1058,1,89,3
0.09999999999999432,1058,2,89,2
0.10000000000002274,1058,3,89,10
0.10000000000002274,1058,4,89,3
0.09999999999999432,1058,5,89,2
0.09999999999999432,1058,6,89,11
0.09999999999999787,1058,7,63,2
0.10000000000000142,1058,8,63,9
0.09999999999999787,1058,9,63,4
0.09999999999999787,1058,10,63,27
0.10000000000000142,1058,11,63,22
0.10000000000000142,1058,12,63,6
0.09999999999999787,1058,13,63,11
0.10000000000000497,1058,14,63,12
0.10000000000000142,1058,15,63,10
0.10000000000000142,1059,0,63,4
0.10000000000000142,1059,1,63,20
0.10000000000000142,1059,2,63,10
0.09999999999999432,1059,3,63,22
0.10000000000000142,1059,4,63,22
0.10000000000000142,1059,5,63,15
0.09999999999999432,1059,6,63,3
0.10000000000000142,1059,7,63,17
0.10000000000000142,1059,8,63,9
0.10000000000000142,1059,9,63,16
0.10000000000000142,1059,10,63,6
0.10000000000000142,1059,11,63,8
0.10000000000000142,1059,12,63,4
0.03636363636363171,1059,13,63,5
0.10000000000000142,1059,14,63,13
0.10000000000000142,1059,15,63,5
0.09999999999999432,1060,0,63,13
0.10000000000000142,1060,1,63,11
0.10000000000000142,1060,2,63,9
0.09999999999999432,1060,3,63,24
0.10000000000000142,1060,4,63,5
0.056818181818186986,1060,5,63,8
0.10000000000000142,1060,6,63,27
0.10000000000000142,1060,7,63,11
0.10000000000000142,1060,8,63,9
0.10000000000000142,1060,9,63,2
0.10000000000000142,1060,10,63,14
0.09999999999999432,1060,11,63,7
0.10000000000000142,1060,12,63,19
0.10000000000000142,1060,13,63,5
0.10000000000000142,1060,14,63,7
0.10000000000000142,1060,15,63,4
0.10000000000000142,1061,0,63,11
0.10000000000000142,1061,1,63,6
0.02499999999999858,1061,2,63,7
0.10000000000000142,1061,3,63,4
0.09999999999999432,1061,4,63,9
0.09999999999999432,1061,5,63,3
0.10000000000000142,1061,6,63,5
0.09999999999999432,1061,7,63,6
0.09999999999999432,1061,8,63,5
0.10000000000000142,1061,9,63,8
0.09999999999999432,1061,10,63,3
0.004545454545450411,1061,11,63,5
0.10000000000000142,1061,12,63,3
0.10000000000000142,1061,13,63,7
0.10000000000000142,1061,14,63,3
0.09999999999999432,1061,15,63,5
0.10000000000000142,1062,0,63,4
0.09999999999999432,1062,1,63,3
0.10000000000000142,1062,2,63,4
0.10000000000000142,1062,3,63,5
0.10000000000000142,1062,4,63,5
0.09999999999999432,1062,5,63,19
0.10000000000000142,1062,6,63,5
0.10000000000000142,1062,7,63,10
0.09999999999999432,1062,8,63,16
0.10000000000000142,1062,9,63,5
0.10000000000000142,1062,10,63,10
0.09999999999999432,1062,11,63,18
0.09999999999999432,1062,12,63,19
0.10000000000000142,1062,13,63,24
0.10000000000000142,1062,14,63,4
0.09999999999999432,1062,15,63,19
0.10000000000000142,1063,0,63,15
0.10000000000000142,1063,1,63,18
0.10000000000000142,1063,2,63,4
0.10000000000000142,1063,3,63,16
0.09999999999999432,1063,4,63,14
0.10000000000000142,1063,5,63,14
0.10000000000000142,1063,6,63,7
0.10000000000000142,1063,7,63,16
0.09999999999999432,1063,8,63,19
0.10000000000000142,1063,9,63,5
0.10000000000000142,1063,10,63,13
0.10000000000000142,1063,11,63,17
0.10000000000000142,1063,12,63,13
0.10000000000000142,1063,13,63,22
0.10000000000000142,1063,14,63,37
0.10000000000000142,1063,15,63,22
0.10000000000000142,1064,0,63,6
0.09999999999999432,1064,1,63,34
0.10000000000000142,1064,2,63,21
0.10000000000000142,1064,3,63,9
0.10000000000000142,1064,4,63,23
0.10000000000000853,1064,5,63,20
0.10000000000000853,1064,6,63,29
0.09999999999999432,1064,7,63,57
0.10000000000000853,1064,8,63,25
0.09999999999999432,1064,9,63,18
0.10000000000000853,1064,10,63,43
0.09999999999999432,1064,11,63,17
0.09999999999999432,1064,12,63,59
0.10000000000000853,1064,13,63,51
0.09999999999999432,1064,14,63,61
0.10000000000000853,1064,15,63,17
0.09999999999999432,1065,0,63,28
0.10000000000000853,1065,1,63,30
0.09999999999999432,1065,2,63,15
0.10000000000000853,1065,3,63,19
0.09999999999999432,1065,4,63,55
0.09999999999999432,1065,5,63,40
0.10000000000000853,1065,6,63,24
0.09999999999999432,1065,7,63,17
0.10000000000000853,1065,8,63,41
0.09999999999999432,1065,9,63,28
0.09999999999999432,1065,10,63,16
0.09999999999999432,1065,11,63,29
0.10000000000000853,1065,12,63,24
0.09999999999999432,1065,13,63,33
0.10000000000000853,1065,14,63,35
0.09999999999999432,1065,15,63,44
0.10000000000002274,1066,0,63,17
0.06818181818184144,1066,1,63,17
0.09999999999999432,1066,2,63,7
0.09999999999999432,1066,3,63,28
0.09999999999999432,1066,4,63,21
0.004545454545450411,1066,5,63,46
0.09999999999999432,1066,6,63,27
0.09999999999999432,1066,7,63,28
0.09999999999999432,1066,8,63,25
0.09999999999999432,1066,9,63,40
0.09999999999999432,1066,10,63,16
0.09999999999999432,1066,11,63,33
0.09999999999999432,1066,12,63,25
0.09999999999999432,1066,13,63,31
0.10000000000002274,1066,14,63,21
0.09999999999999432,1066,15,63,31
0.09999999999999432,1067,0,63,22
0.09999999999999432,1067,1,63,26
0.09999999999999432,1067,2,63,26
0.09999999999999432,1067,3,63,37
0.10000000000002274,1067,4,63,27
0.10000000000002274,1067,5,63,40
0.09999999999999432,1067,6,63,34
0.09999999999999432,1067,7,63,44
0.09999999999999432,1067,8,63,36
0.09999999999999432,1067,9,63,47
0.09999999999999432,1067,10,63,30
0.09999999999999432,1067,11,63,22
0.09999999999999432,1067,12,63,53
0.09999999999999432,1067,13,63,57
0.09999999999999432,1067,14,63,40
0.09999999999999432,1067,15,63,23
0.10000000000002274,1068,0,63,22
0.09999999999999432,1068,1,63,51
0.10000000000002274,1068,2,63,25
0.09999999999999432,1068,3,63,24
0.09999999999999432,1068,4,63,80
0.09999999999999432,1068,5,63,33
0.09999999999999432,1068,6,63,24
0.09999999999999432,1068,7,63,39
0.09999999999999432,1068,8,63,53
0.10000000000002274,1068,9,63,26
0.09999999999999432,1068,10,63,27
0.10000000000002274,1068,11,63,36
0.09999999999999432,1068,12,63,24
0.09999999999999432,1068,13,63,15
0.09999999999999432,1068,14,63,27
0.09999999999999432,1068,15,63,20
0.09999999999999432,1069,0,63,40
0.09999999999999432,1069,1,63,30
0.09999999999999432,1069,2,63,24
0.09999999999999432,1069,3,63,41
0.09999999999999432,1069,4,63,47
0.09999999999999432,1069,5,63,53
0.10000000000002274,1069,6,63,20
0.09999999999999432,1069,7,63,28
0.09999999999999432,1069,8,63,66
0.09999999999999432,1069,9,63,35
0.10000000000002274,1069,10,63,4
0.09999999999999432,1069,11,63,1
0.09999999999999432,1069,12,63,1
0.09999999999999432,1069,13,63,4
0.09999999999999432,1069,14,63,2
0.09999999999999432,1069,15,63,1
0.10000000000002274,1070,0,63,8
0.09999999999999432,1070,1,63,10
0.09999999999999787,1070,2,53,8
0.04772727272727195,1070,3,53,45
0.09999999999999787,1070,4,53,38
0.09999999999999787,1070,5,53,38
0.06818181818181657,1070,6,53,29
0.10000000000000142,1070,7,53,20
0.09999999999999787,1070,8,53,41
0.036363636363635266,1070,9,53,44
0.10000000000000142,1070,10,53,31
0.10000000000000142,1070,11,53,16
0.02500000000000213,1070,12,53,57
0.10000000000000142,1070,13,53,26
0.10000000000000142,1070,14,53,32
0.10000000000000142,1070,15,53,49
0.06818181818182012,1071,0,53,59
0.10000000000000142,1071,1,53,43
0.10000000000000142,1071,2,53,35
0.02500000000000213,1071,3,53,39
0.10000000000000142,1071,4,53,24
0.10000000000000142,1071,5,53,50
0.09999999999999787,1071,6,53,38
0.05681818181817988,1071,7,53,33
0.09999999999999787,1071,8,53,122
0.10000000000000142,1071,9,53,43
0.05681818181818343,1071,10,53,32
0.10000000000000142,1071,11,53,35
0.045454545454546746,1071,12,53,52
0.10000000000000142,1071,13,53,48
0.10000000000000142,1071,14,53,34
0.10000000000000142,1071,15,53,34
0.10000000000000142,1072,0,53,30
0.09999999999999787,1072,1,53,55
0.10000000000000497,1072,2,53,23
0.10000000000000142,1072,3,53,21
0.10000000000000142,1072,4,53,24
0.06818181818182012,1072,5,53,40
0.10000000000000142,1072,6,53,26
0.004545454545457517,1072,7,53,91
0.10000000000000142,1072,8,53,31
0.10000000000000142,1072,9,53,20
0.10000000000000142,1072,10,53,29
0.10000000000000142,1072,11,53,59
0.10000000000000142,1072,12,53,34
0.10000000000000142,1072,13,53,24
0.06818181818182012,1072,14,53,38
0.10000000000000142,1072,15,53,33
0.10000000000000142,1073,0,53,26
0.10000000000000142,1073,1,53,32
0.10000000000000142,1073,2,53,24
0.06818181818182012,1073,3,53,31
0.10000000000000142,1073,4,53,40
0.10000000000000142,1073,5,53,55
0.10000000000000142,1073,6,53,32
0.10000000000000142,1073,7,53,45
0.10000000000000142,1073,8,53,21
0.10000000000000142,1073,9,53,6
0.10000000000000142,1073,10,53,25
0.10000000000000142,1073,11,53,41
0.10000000000000142,1073,12,53,37
0.10000000000000142,1073,13,53,82
0.10000000000000142,1073,14,53,32
0.10000000000000142,1073,15,53,30
0.10000000000000142,1074,0,53,44
0.10000000000000142,1074,1,53,49
0.10000000000000142,1074,2,53,27
0.10000000000000142,1074,3,53,20
0.09999999999999432,1074,4,53,26
0.09999999999999432,1074,5,53,34
0.10000000000000142,1074,6,53,35
0.10000000000000142,1074,7,53,81
0.10000000000000142,1074,8,53,84
0.09999999999999432,1074,9,53,84
0.10000000000000142,1074,10,53,34
0.045454545454546746,1074,11,53,58
0.004545454545457517,1074,12,53,84
0.09999999999999432,1074,13,53,31
0.06818181818181301,1074,14,53,43
0.09999999999999432,1074,15,53,88
0.09999999999999432,1075,0,53,37
0.06818181818181301,1075,1,53,51
0.10000000000000142,1075,2,53,84
0.004545454545450411,1075,3,53,77
0.10000000000000142,1075,4,53,22
0.10000000000000142,1075,5,53,40
0.10000000000000142,1075,6,53,36
0.10000000000000142,1075,7,53,42
0.10000000000000142,1075,8,53,26
0.056818181818186986,1075,9,53,45
0.10000000000000142,1075,10,53,28
0.10000000000000142,1075,11,53,50
0.06590909090909491,1075,12,53,77
0.10000000000000142,1075,13,53,45
0.10000000000000142,1075,14,53,127
0.10000000000000142,1075,15,53,32
0.10000000000000142,1076,0,53,33
0.09999999999999432,1076,1,53,37
0.06818181818181301,1076,2,53,58
0.09999999999999432,1076,3,53,36
0.10000000000000142,1076,4,53,33
0.10000000000000853,1076,5,53,29
0.09999999999999432,1076,6,53,30
0.09999999999999432,1076,7,53,70
0.10000000000000853,1076,8,53,24
0.045454545454546746,1076,9,53,46
0.09999999999999432,1076,10,53,76
0.045454545454546746,1076,11,53,75
0.004545454545464622,1076,12,53,78
0.10000000000000853,1076,13,53,71
0.10000000000000853,1076,14,53,70
0.10000000000000853,1076,15,53,64
0.013636363636365445,1077,0,53,33
0.09999999999999432,1077,1,53,11
0.09999999999999432,1077,2,53,40
0.09999999999999432,1077,3,53,27
0.004545454545450411,1077,4,53,67
0.024999999999991473,1077,5,53,77
0.09999999999999432,1077,6,53,79
0.024999999999991473,1077,7,53,75
0.09999999999999432,1077,8,53,35
0.09999999999999432,1077,9,53,30
0.10000000000000853,1077,10,53,88
0.09999999999999432,1077,11,53,50
0.10000000000000853,1077,12,53,81
0.09999999999999432,1077,13,53,78
0.09999999999999432,1077,14,53,24
0.04772727272727195,1077,15,53,48
0.09999999999999432,1078,0,53,83
0.004545454545450411,1078,1,53,25
0.09999999999999432,1078,2,53,75
0.09999999999999432,1078,3,53,54
0.10000000000000853,1078,4,53,40
0.10000000000000853,1078,5,53,32
0.10000000000000853,1078,6,53,79
0.09999999999999432,1078,7,53,92
0.06818181818181301,1078,8,53,82
0.10000000000000853,1078,9,53,49
0.09999999999999432,1078,10,53,78
0.025000000000005684,1078,11,53,75
0.09999999999999432,1078,12,53,17
0.06818181818181301,1078,13,53,36
0.10000000000000853,1078,14,53,55
0.10000000000000853,1078,15,53,32
0.09999999999999432,1079,0,53,25
0.10000000000000853,1079,1,53,31
0.10000000000000853,1079,2,53,112
0.09999999999999432,1079,3,53,106
0.10000000000000853,1079,4,53,26
0.09999999999999432,1079,5,53,27
0.10000000000000853,1079,6,53,97
0.09999999999999432,1079,7,53,29
0.10000000000000853,1079,8,53,28
0.05909090909091219,1079,9,53,50
0.01590909090909065,1079,10,53,70
0.09999999999999432,1079,11,53,31
0.09999999999999432,1079,12,53,31
0.09999999999999432,1079,13,53,30
0.10000000000000853,1079,14,53,32
0.10000000000000853,1079,15,53,19
0.09999999999999432,1080,0,53,37
0.09999999999999432,1080,1,53,29
0.09999999999999432,1080,2,53,83
0.09999999999999432,1080,3,53,9
0.06818181818181301,1080,4,53,21
0.10000000000000853,1080,5,53,85
0.10000000000000853,1080,6,53,26
0.09999999999999432,1080,7,53,28
0.09999999999999432,1080,8,53,22
0.10000000000000853,1080,9,53,56
0.10000000000000853,1080,10,53,74
0.09999999999999432,1080,11,53,69
0.09999999999999432,1080,12,53,27
0.09999999999999432,1080,13,53,20
0.10000000000000853,1080,14,53,20
0.09999999999999432,1080,15,53,24
0.09999999999999432,1081,0,53,20
0.10000000000000853,1081,1,53,30
0.10000000000000853,1081,2,53,67
0.09999999999999432,1081,3,53,29
0.06590909090908781,1081,4,53,49
0.09999999999999432,1081,5,53,23
0.09999999999999432,1081,6,53,22
0.09999999999999432,1081,7,53,28
0.09999999999999432,1081,8,53,8
0.06818181818181301,1081,9,53,20
0.10000000000000853,1081,10,53,105
0.10000000000000853,1081,11,53,113
0.09999999999999432,1081,12,53,1
0.05909090909091219,1081,13,53,1
0.09999999999999432,1081,14,53,25
0.09999999999999432,1081,15,53,29
0.09999999999999432,1082,0,53,46
0.09999999999999432,1082,1,53,58
0.10000000000000853,1082,2,53,66
0.09999999999999432,1082,3,53,41
0.09999999999999432,1082,4,53,93
0.09999999999999432,1082,5,53,42
0.09999999999999432,1082,6,53,34
0.10000000000000853,1082,7,53,64
0.09999999999999432,1082,8,53,36
0.09999999999999432,1082,9,53,57
0.10000000000002274,1082,10,53,46
0.10000000000002274,1082,11,53,34
0.09999999999999432,1082,12,53,49
0.09999999999999432,1082,13,53,22
0.09999999999999432,1082,14,53,47
0.09999999999999432,1082,15,53,59
0.09999999999999432,1083,0,53,42
0.10000000000002274,1083,1,53,83
0.09999999999999432,1083,2,53,83
0.09999999999999432,1083,3,53,32
0.09999999999999432,1083,4,53,85
0.10000000000002274,1083,5,53,46
0.10000000000002274,1083,6,53,63
0.10000000000002274,1083,7,53,60
0.09999999999999432,1083,8,53,103
0.09999999999999432,1083,9,53,36
0.10000000000002274,1083,10,53,41
0.09999999999999432,1083,11,53,33
0.10000000000002274,1083,12,53,23
0.10000000000002274,1083,13,53,8
0.09999999999999432,1083,14,53,6
0.09999999999999432,1083,15,53,26
0.09999999999999432,1084,0,53,63
0.09999999999999432,1084,1,53,18
0.09999999999999432,1084,2,53,7
0.09999999999999432,1084,3,53,40
0.09999999999999432,1084,4,53,23
0.09999999999999432,1084,5,53,24
0.09999999999999432,1084,6,53,69
0.09999999999999432,1084,7,53,45
0.03636363636363171,1084,8,53,24
0.10000000000002274,1084,9,53,55
0.10000000000002274,1084,10,53,25
0.10000000000002274,1084,11,53,28
0.09999999999999432,1084,12,53,76
0.09999999999999432,1084,13,53,20
0.09999999999999432,1084,14,53,31
0.09999999999999432,1084,15,53,24
0.09999999999999432,1085,0,53,42
0.004545454545450411,1085,1,53,24
0.10000000000002274,1085,2,53,21
0.09999999999999432,1085,3,53,28
0.09999999999999432,1085,4,53,25
0.09999999999999432,1085,5,53,26
0.09999999999999432,1085,6,53,25
0.09999999999999432,1085,7,53,41
0.09999999999999432,1085,8,53,23
0.10000000000002274,1085,9,53,22
0.09999999999999432,1085,10,53,23
0.10000000000002274,1085,11,53,51
0.09999999999999432,1085,12,53,16
0.10000000000002274,1085,13,53,15
0.09999999999999432,1085,14,53,20
0.09999999999999432,1085,15,53,16
0.09999999999999432,1086,0,53,28
0.04545454545456096,1086,1,53,19
0.09999999999999432,1086,2,53,37
0.10000000000002274,1086,3,53,28
0.09999999999999432,1086,4,53,37
0.09999999999999432,1086,5,53,31
0.09999999999999432,1086,6,53,115
0.09999999999999432,1086,7,53,25
0.06818181818181301,1086,8,53,43
0.025000000000005684,1086,9,53,85
0.09999999999999432,1086,10,53,115
0.09999999999999432,1086,11,53,44
0.09999999999999432,1086,12,53,34
0.056818181818186986,1086,13,53,64
0.10000000000002274,1086,14,53,23
0.09999999999999432,1086,15,53,34
0.10000000000002274,1087,0,53,24
0.09999999999999432,1087,1,53,28
0.09999999999999432,1087,2,53,56
0.01590909090907644,1087,3,53,31
0.09999999999999432,1087,4,53,114
0.09999999999999432,1087,5,53,112
0.09999999999999432,1087,6,53,27
0.02727272727273089,1087,7,53,69
0.10000000000002274,1087,8,53,127
0.01590909090910486,1087,9,53,126
0.09999999999999432,1087,10,53,40
0.10000000000002274,1087,11,53,25
0.09999999999999432,1087,12,53,48
0.09999999999999432,1087,13,53,22
0.09999999999999432,1087,14,53,67
0.09999999999999432,1087,15,53,33
0.09999999999999432,1088,0,53,33
0.09999999999999432,1088,1,53,120
0.09999999999999432,1088,2,53,36
0.09999999999999432,1088,3,53,113
0.10000000000002274,1088,4,53,37
0.06818181818184144,1088,5,53,54
0.0022727272727252057,1088,6,53,111
0.09999999999999432,1088,7,53,39
0.09999999999999432,1088,8,53,127
0.09999999999999432,1088,9,53,7
0.056818181818186986,1088,10,53,20
0.004545454545450411,1088,11,53,69
0.09999999999999432,1088,12,53,127
0.09999999999999432,1088,13,53,34
0.024999999999977263,1088,14,53,77
0.09999999999999432,1088,15,53,109
0.09999999999999432,1089,0,53,109
0.09999999999999432,1089,1,53,32
0.09999999999999432,1089,2,53,127
0.09999999999999432,1089,3,53,38
0.09999999999999432,1089,4,53,92
0.10000000000002274,1089,5,53,30
0.09999999999999432,1089,6,53,73
0.09999999999999432,1089,7,53,21
0.09999999999999432,1089,8,53,111
0.09999999999999432,1089,9,53,18
0.09999999999999432,1089,10,53,94
0.09999999999999432,1089,11,53,20
0.09999999999999432,1089,12,53,57
0.09999999999999432,1089,13,53,63
0.09999999999999432,1089,14,53,92
0.09999999999999432,1089,15,53,24
0.10000000000002274,1090,0,53,33
0.09999999999999432,1090,1,53,28
0.09999999999999432,1090,2,53,69
0.09999999999999432,1090,3,53,25
0.09999999999999432,1090,4,53,36
0.09999999999999432,1090,5,53,5
0.09999999999999432,1090,6,53,34
0.10000000000002274,1090,7,53,19
0.09999999999999432,1090,8,53,102
0.09999999999999432,1090,9,53,28
0.025000000000005684,1090,10,53,78
0.09999999999999432,1090,11,53,20
0.09999999999999432,1090,12,53,12
0.10000000000002274,1090,13,53,19
0.02727272727273089,1090,14,53,61
0.025000000000005684,1090,15,53,98
0.09999999999999432,1091,0,53,25
0.10000000000002274,1091,1,53,81
0.09999999999999432,1091,2,53,47
0.09999999999999432,1091,3,53,8
0.10000000000002274,1091,4,53,122
0.09999999999999432,1091,5,53,97
0.09999999999999432,1091,6,53,68
0.10000000000002274,1091,7,53,80
0.10000000000002274,1091,8,53,81
0.025000000000005684,1091,9,53,22
0.09999999999999432,1091,10,53,28
0.09999999999999432,1091,11,53,25
0.09999999999999432,1091,12,53,79
0.09999999999999432,1091,13,53,99
0.10000000000002274,1091,14,53,91
0.09999999999999432,1091,15,53,84
0.09999999999999432,1092,0,53,73
0.09999999999999432,1092,1,53,81
0.09999999999999432,1092,2,53,18
0.09999999999999432,1092,3,53,116
0.09999999999999432,1092,4,53,22
0.09999999999999432,1092,5,53,74
0.10000000000002274,1092,6,53,52
0.09999999999999432,1092,7,53,29
0.09999999999999432,1092,8,53,127
0.10000000000002274,1092,9,53,10
0.10000000000002274,1092,10,53,11
0.09999999999999432,1092,11,53,81
0.03636363636363171,1092,12,53,13
0.09999999999999432,1092,13,53,105
0.09999999999999432,1092,14,53,46
0.025000000000005684,1092,15,53,10
0.09999999999999432,1093,0,53,14
0.09999999999999432,1093,1,53,101
0.06818181818181301,1093,2,53,86
0.09999999999999432,1093,3,53,13
0.09999999999999432,1093,4,53,81
0.10000000000002274,1093,5,53,16
0.09999999999999432,1093,6,53,12
0.02727272727273089,1093,7,53,62
0.024999999999977263,1093,8,53,101
0.09999999999999432,1093,9,53,118
0.09999999999999432,1093,10,53,16
0.09999999999999432,1093,11,53,95
0.09999999999999432,1093,12,53,85
0.10000000000002274,1093,13,53,124
0.10000000000002274,1093,14,53,115
0.10000000000002274,1093,15,53,4
0.04545454545456096,1094,0,53,15
0.04772727272725774,1094,1,53,44
0.045454545454532536,1094,2,53,81
0.004545454545450411,1094,3,53,113
0.025000000000005684,1094,4,53,118
0.004545454545450411,1094,5,53,124
0.004545454545450411,1094,6,53,124
0.09999999999999432,1094,7,53,20
0.04772727272725774,1094,8,53,56
0.0022727272727252057,1094,9,53,116
0.02727272727273089,1094,10,53,114
0.09999999999999432,1094,11,53,85
0.025000000000005684,1094,12,53,112
0.024999999999977263,1094,13,53,102
0.09999999999999432,1094,14,53,14
0.09999999999999432,1094,15,53,13
0.02727272727273089,1095,0,53,65
0.09999999999999432,1095,1,53,123
0.02727272727273089,1095,2,53,123
0.09999999999999432,1095,3,53,122
0.09999999999999432,1095,4,53,21
0.004545454545450411,1095,5,53,96
0.004545454545450411,1095,6,53,122
0.025000000000005684,1095,7,53,121
0.004545454545450411,1095,8,53,125
0.024999999999977263,1095,9,53,122
0.10000000000002274,1095,10,53,86
0.09999999999999432,1095,11,53,21
0.10000000000002274,1095,12,53,11
0.04772727272728616,1095,13,53,44
0.09999999999999432,1095,14,53,75
0.045454545454532536,1095,15,53,99
0.02727272727273089,1096,0,53,117
0.09999999999999432,1096,1,53,83
0.025000000000005684,1096,2,53,18
0.004545454545450411,1096,3,53,89
0.09999999999999432,1096,4,53,127
0.025000000000005684,1096,5,53,127
0.09999999999999432,1096,6,53,102
0.09999999999999432,1096,7,53,14
0.09999999999999432,1096,8,53,15
0.02727272727273089,1096,9,53,69
0.0022727272727252057,1096,10,53,117
0.02727272727273089,1096,11,53,126
0.0022727272727252057,1096,12,53,127
0.004545454545450411,1096,13,53,127
0.025000000000005684,1096,14,53,127
0.004545454545450411,1096,15,53,127
0.025000000000005684,1097,0,53,127
0.004545454545450411,1097,1,53,127
0.004545454545450411,1097,2,53,127
0.0022727272727252057,1097,3,53,127
0.02727272727270247,1097,4,53,127
0.0022727272727252057,1097,5,53,127
0.025000000000005684,1097,6,53,127
0.004545454545450411,1097,7,53,127
0.004545454545450411,1097,8,53,127
0.004545454545450411,1097,9,53,122
0.024999999999977263,1097,10,53,120
0.004545454545450411,1097,11,53,117
0.0022727272727252057,1097,12,53,114
0.10000000000002274,1097,13,53,22
0.09999999999999787,1097,14,96,33
0.10000000000000142,1097,15,96,6
0.10000000000000142,1098,0,96,22
0.10000000000000142,1098,1,96,7
0.09999999999999787,1098,2,96,31
0.10000000000000142,1098,3,96,7
0.09999999999999787,1098,4,96,127
0.10000000000000142,1098,5,96,20
0.10000000000000142,1098,6,96,11
0.09999999999999787,1098,7,96,127
0.09999999999999787,1098,8,96,25
0.10000000000000142,1098,9,96,127
0.09999999999999787,1098,10,96,18
0.10000000000000142,1098,11,96,10
0.09999999999999787,1098,12,96,119
0.09999999999999787,1098,13,96,20
0.10000000000000142,1098,14,96,5
0.09999999999999787,1098,15,96,127
0.09999999999999787,1099,0,96,17
0.10000000000000142,1099,1,96,11
0.09999999999999787,1099,2,96,127
0.09999999999999787,1099,3,96,25
0.09999999999999787,1099,4,96,127
0.10000000000000142,1099,5,96,25
0.10000000000000142,1099,6,96,124
0.09999999999999787,1099,7,96,127
0.09999999999999787,1099,8,96,24
0.10000000000000142,1099,9,96,3
0.09999999999999787,1099,10,96,127
0.09999999999999787,1099,11,96,19
0.09999999999999787,1099,12,96,9
0.10000000000000142,1099,13,96,127
0.09999999999999787,1099,14,96,23
0.09999999999999787,1099,15,96,127
0.10000000000000142,1100,0,96,18
0.10000000000000142,1100,1,96,9
0.09999999999999787,1100,2,96,127
0.10000000000000142,1100,3,96,21
0.10000000000000142,1100,4,96,1
0.10000000000000142,1100,5,96,127
0.09999999999999787,1100,6,96,19
0.10000000000000142,1100,7,96,14
0.09999999999999787,1100,8,96,127
0.10000000000000142,1100,9,96,19
0.09999999999999787,1100,10,96,127
0.10000000000000142,1100,11,96,18
0.09999999999999787,1100,12,96,127
0.10000000000000142,1100,13,96,127
0.09999999999999787,1100,14,96,25
0.10000000000000142,1100,15,96,127
0.10000000000000142,1101,0,96,9
0.09999999999999787,1101,1,96,5
0.10000000000000142,1101,2,96,127
0.10000000000000142,1101,3,96,8
0.09999999999999787,1101,4,96,36
0.10000000000000142,1101,5,96,115
0.10000000000000142,1101,6,96,13
0.09999999999999787,1101,7,96,5
0.10000000000000142,1101,8,96,127
0.10000000000000142,1101,9,96,24
0.09999999999999787,1101,10,96,23
0.10000000000000142,1101,11,96,120
0.10000000000000142,1101,12,96,11
0.10000000000000142,1101,13,96,33
0.10000000000000142,1101,14,96,127
0.10000000000000142,1101,15,96,63
0.10000000000000142,1102,0,96,7
0.10000000000000142,1102,1,96,40
0.10000000000000142,1102,2,96,127
0.09999999999999432,1102,3,96,12
0.10000000000000142,1102,4,96,112
0.09999999999999432,1102,5,96,127
0.10000000000000142,1102,6,96,64
0.10000000000000142,1102,7,96,28
0.10000000000000142,1102,8,96,3
0.09999999999999432,1102,9,96,125
0.10000000000000142,1102,10,96,14
0.10000000000000142,1102,11,96,5
0.10000000000000142,1102,12,96,127
0.10000000000000142,1102,13,96,68
0.09999999999999432,1102,14,96,7
0.10000000000000142,1102,15,96,39
0.09999999999999432,1103,0,96,122
0.10000000000000142,1103,1,96,14
0.10000000000000142,1103,2,96,1
0.09999999999999432,1103,3,96,127
0.10000000000000142,1103,4,96,74
0.09999999999999432,1103,5,96,26
0.09999999999999432,1103,6,96,39
0.10000000000000142,1103,7,96,119
0.09999999999999432,1103,8,96,13
0.09999999999999432,1103,9,96,4
0.10000000000000142,1103,10,96,127
0.10000000000000142,1103,11,96,7
0.10000000000000142,1103,12,96,39
0.09999999999999432,1103,13,96,127
0.10000000000000142,1103,14,96,14
0.09999999999999432,1103,15,96,122
0.10000000000000142,1104,0,96,127
0.09999999999999432,1104,1,96,68
0.10000000000000142,1104,2,96,29
0.09999999999999432,1104,3,96,5
0.10000000000000142,1104,4,96,117
0.10000000000000142,1104,5,96,14
0.10000000000000142,1104,6,96,5
0.10000000000000142,1104,7,96,6
0.10000000000000142,1104,8,96,5
0.09999999999999432,1104,9,96,43
0.10000000000000142,1104,10,96,116
0.10000000000000142,1104,11,96,14
0.09999999999999432,1104,12,96,5
0.10000000000000142,1104,13,96,7
0.10000000000000142,1104,14,96,31
0.10000000000000142,1104,15,96,37
0.10000000000000142,1105,0,96,115
0.09999999999999432,1105,1,96,127
0.10000000000000142,1105,2,96,6
0.09999999999999432,1105,3,96,127
0.10000000000000142,1105,4,96,4
0.10000000000000142,1105,5,96,5
0.10000000000000142,1105,6,96,127
0.10000000000000142,1105,7,96,67
0.09999999999999432,1105,8,96,5
0.10000000000000142,1105,9,96,3
0.09999999999999432,1105,10,96,127
0.09999999999999432,1105,11,96,4
0.10000000000000142,1105,12,96,6
0.09999999999999432,1105,13,96,127
0.10000000000000142,1105,14,96,69
0.09999999999999432,1105,15,96,6
0.10000000000000142,1106,0,96,3
0.10000000000000142,1106,1,96,127
0.09999999999999432,1106,2,96,4
0.10000000000000142,1106,3,96,5
0.10000000000000142,1106,4,96,127
0.10000000000000142,1106,5,96,74
0.09999999999999432,1106,6,96,6
0.10000000000000142,1106,7,96,126
0.10000000000000142,1106,8,96,127
0.10000000000000142,1106,9,96,7
0.10000000000000142,1106,10,96,6
0.10000000000000142,1106,11,96,125
0.10000000000000142,1106,12,96,62
0.09999999999999432,1106,13,96,6
0.10000000000000142,1106,14,96,3
0.10000000000000142,1106,15,96,127
0.09999999999999432,1107,0,96,4
0.10000000000000142,1107,1,96,5
0.10000000000000142,1107,2,96,121
0.10000000000000142,1107,3,96,53
0.10000000000000142,1107,4,96,6
0.10000000000000142,1107,5,96,3
0.10000000000000142,1107,6,96,127
0.10000000000000142,1107,7,96,4
0.10000000000000142,1107,8,96,5
0.10000000000000142,1107,9,96,127
0.10000000000000142,1107,10,96,67
0.10000000000000142,1107,11,96,5
0.10000000000000142,1107,12,96,2
0.10000000000000142,1107,13,96,127
0.10000000000000142,1107,14,96,4
0.10000000000000142,1107,15,96,5
0.10000000000000142,1108,0,96,127
0.10000000000000142,1108,1,96,73
0.10000000000000142,1108,2,96,7
0.10000000000000142,1108,3,96,127
0.10000000000000142,1108,4,96,127
0.10000000000000142,1108,5,96,5
0.10000000000000142,1108,6,96,4
0.10000000000000142,1108,7,96,127
0.10000000000000142,1108,8,96,7
0.10000000000000142,1108,9,96,127
0.10000000000000142,1108,10,96,4
0.10000000000000142,1108,11,96,5
0.10000000000000142,1108,12,96,127
0.10000000000000142,1108,13,96,64
0.10000000000000142,1108,14,96,5
0.10000000000000142,1108,15,96,4
0.10000000000000142,1109,0,96,127
0.10000000000000142,1109,1,96,4
0.09999999999999432,1109,2,96,6
0.10000000000000142,1109,3,96,126
0.10000000000000142,1109,4,96,64
0.10000000000000142,1109,5,96,5
0.10000000000000142,1109,6,96,2
0.09999999999999432,1109,7,96,127
0.10000000000000142,1109,8,96,4
0.10000000000000142,1109,9,96,5
0.10000000000000142,1109,10,96,127
0.09999999999999432,1109,11,96,70
0.10000000000000142,1109,12,96,6
0.09999999999999432,1109,13,96,127
0.10000000000000142,1109,14,96,127
0.10000000000000142,1109,15,96,7
0.09999999999999432,1110,0,96,2
0.10000000000000142,1110,1,96,124
0.10000000000000142,1110,2,96,44
0.10000000000000142,1110,3,96,2
0.09999999999999432,1110,4,96,2
0.10000000000000142,1110,5,96,123
0.10000000000000142,1110,6,96,2
0.09999999999999432,1110,7,96,2
0.10000000000000142,1110,8,96,126
0.09999999999999432,1110,9,96,47
0.10000000000000142,1110,10,96,2
0.09999999999999432,1110,11,96,2
0.10000000000000142,1110,12,96,102
0.10000000000000142,1110,13,96,2
0.09999999999999432,1110,14,96,2
0.10000000000000142,1110,15,96,127
0.10000000000000142,1111,0,96,118
0.10000000000000142,1111,1,96,127
0.09999999999999432,1111,2,96,127
0.09999999999999432,1111,3,96,127
0.09999999999999432,1111,4,96,42
0.10000000000000853,1111,5,96,3
0.10000000000000853,1111,6,96,117
0.10000000000000853,1111,7,96,2
0.09999999999999432,1111,8,96,115
0.10000000000000853,1111,9,96,47
0.09999999999999432,1111,10,96,2
0.09999999999999432,1111,11,96,96
0.09999999999999432,1111,12,96,119
0.09999999999999432,1111,13,96,2
0.10000000000000853,1111,14,96,2
0.10000000000000853,1111,15,96,127
0.09999999999999432,1112,0,96,50
0.10000000000000853,1112,1,96,2
0.09999999999999432,1112,2,96,2
0.09999999999999432,1112,3,96,127
0.09999999999999432,1112,4,96,2
0.09999999999999432,1112,5,96,2
0.10000000000000853,1112,6,96,127
0.09999999999999432,1112,7,96,127
0.09999999999999432,1112,8,96,15
0.09999999999999432,1112,9,96,127
0.09999999999999432,1112,10,96,20
0.10000000000000853,1112,11,96,124
0.09999999999999432,1112,12,96,60
0.10000000000000853,1112,13,96,13
0.09999999999999432,1112,14,96,127
0.10000000000000853,1112,15,96,18
0.09999999999999432,1113,0,96,3
0.09999999999999432,1113,1,96,124
0.10000000000000853,1113,2,96,62
0.09999999999999432,1113,3,96,12
0.09999999999999432,1113,4,96,3
0.10000000000000853,1113,5,96,127
0.09999999999999432,1113,6,96,20
0.10000000000000853,1113,7,96,4
0.09999999999999432,1113,8,96,127
0.09999999999999432,1113,9,96,58
0.09999999999999432,1113,10,96,13
0.09999999999999432,1113,11,96,87
0.09999999999999432,1113,12,96,127
0.09999999999999432,1113,13,96,11
0.10000000000000853,1113,14,96,3
0.10000000000000853,1113,15,96,127
0.09999999999999432,1114,0,96,64
0.09999999999999432,1114,1,96,13
0.10000000000000853,1114,2,96,3
0.09999999999999432,1114,3,96,127
0.10000000000000853,1114,4,96,18
0.09999999999999432,1114,5,96,3
0.09999999999999432,1114,6,96,124
0.10000000000000853,1114,7,96,54
0.09999999999999432,1114,8,96,13
0.09999999999999432,1114,9,96,3
0.10000000000000853,1114,10,96,127
0.09999999999999432,1114,11,96,18
0.09999999999999432,1114,12,96,3
0.09999999999999432,1114,13,96,127
0.09999999999999432,1114,14,96,62
0.10000000000000853,1114,15,96,13
0.09999999999999432,1115,0,96,3
0.09999999999999432,1115,1,96,126
0.09999999999999432,1115,2,96,19
0.09999999999999432,1115,3,96,3
0.10000000000000853,1115,4,96,127
0.10000000000000853,1115,5,96,127
0.09999999999999432,1115,6,96,10
0.10000000000000853,1115,7,96,127
0.10000000000000853,1115,8,96,9
0.09999999999999432,1115,9,96,127
0.09999999999999432,1115,10,96,10
0.09999999999999432,1115,11,96,1
0.09999999999999432,1115,12,96,127
0.09999999999999432,1115,13,96,9
0.10000000000000853,1115,14,96,3
0.10000000000000853,1115,15,96,127
0.10000000000000853,1116,0,96,11
0.09999999999999432,1116,1,96,127
0.10000000000000853,1116,2,96,8
0.09999999999999432,1116,3,96,4
0.09999999999999432,1116,4,96,127
0.09999999999999432,1116,5,96,10
0.09999999999999432,1116,6,96,102
0.10000000000000853,1116,7,96,127
0.10000000000000853,1116,8,96,10
0.10000000000000853,1116,9,96,4
0.10000000000000853,1116,10,96,127
0.10000000000000853,1116,11,96,10
0.09999999999999432,1116,12,96,127
0.09999999999999432,1116,13,96,9
0.10000000000000853,1116,14,96,4
0.10000000000000853,1116,15,96,127
0.10000000000000853,1117,0,96,48
0.09999999999999432,1117,1,96,10
0.09999999999999432,1117,2,96,1
0.09999999999999432,1117,3,96,127
0.10000000000000853,1117,4,96,10
0.09999999999999432,1117,5,96,5
0.09999999999999432,1117,6,96,127
0.09999999999999432,1117,7,96,40
0.09999999999999432,1117,8,96,9
0.10000000000000853,1117,9,96,127
0.09999999999999432,1117,10,96,10
0.10000000000000853,1117,11,96,4
0.09999999999999432,1117,12,96,127
0.09999999999999432,1117,13,96,127
0.09999999999999432,1117,14,96,8
0.09999999999999432,1117,15,96,127
0.09999999999999432,1118,0,96,8
0.09999999999999432,1118,1,96,3
0.09999999999999432,1118,2,96,127
0.09999999999999432,1118,3,96,48
0.09999999999999432,1118,4,96,10
0.10000000000000853,1118,5,96,3
0.10000000000000853,1118,6,96,122
0.09999999999999432,1118,7,96,44
0.09999999999999432,1118,8,96,6
0.09999999999999432,1118,9,96,2
0.09999999999999432,1118,10,96,112
0.09999999999999432,1118,11,96,8
0.09999999999999432,1118,12,96,2
0.09999999999999432,1118,13,96,116
0.09999999999999432,1118,14,96,9
0.10000000000000853,1118,15,96,2
0.10000000000000853,1119,0,96,91
0.09999999999999432,1119,1,96,24
0.10000000000000853,1119,2,96,9
0.10000000000000853,1119,3,96,86
0.09999999999999432,1119,4,96,122
0.10000000000000853,1119,5,96,6
0.09999999999999432,1119,6,96,3
0.09999999999999432,1119,7,96,98
0.09999999999999432,1119,8,96,7
0.10000000000000853,1119,9,96,2
0.10000000000000853,1119,10,96,124
0.10000000000000853,1119,11,96,39
0.10000000000000853,1119,12,96,8
0.09999999999999432,1119,13,96,2
0.09999999999999432,1119,14,96,108
0.10000000000000853,1119,15,96,36
0.10000000000000853,1120,0,96,8
0.09999999999999432,1120,1,96,1
0.09999999999999432,1120,2,96,122
0.09999999999999432,1120,3,96,43
0.09999999999999432,1120,4,96,6
0.10000000000000853,1120,5,96,2
0.10000000000000853,1120,6,96,106
0.10000000000000853,1120,7,96,7
0.09999999999999432,1120,8,96,2
0.10000000000000853,1120,9,96,100
0.10000000000000853,1120,10,96,10
0.09999999999999432,1120,11,96,2
0.09999999999999432,1120,12,96,104
0.10000000000000853,1120,13,96,45
0.09999999999999432,1120,14,96,6
0.09999999999999432,1120,15,96,103
0.10000000000000853,1121,0,96,127
0.09999999999999432,1121,1,96,7
0.09999999999999432,1121,2,96,2
0.09999999999999432,1121,3,96,97
0.10000000000000853,1121,4,96,7
0.09999999999999432,1121,5,96,3
0.10000000000000853,1121,6,96,7
0.09999999999999432,1121,7,96,3
0.09999999999999432,1121,8,96,54
0.10000000000000853,1121,9,96,7
0.09999999999999432,1121,10,96,3
0.10000000000000853,1121,11,96,108
0.09999999999999432,1121,12,96,6
0.09999999999999432,1121,13,96,42
0.10000000000000853,1121,14,96,127
0.09999999999999432,1121,15,96,86
0.10000000000000853,1122,0,96,28
0.09999999999999432,1122,1,96,1
0.09999999999999432,1122,2,96,117
0.10000000000000853,1122,3,96,115
0.09999999999999432,1122,4,96,127
0.09999999999999432,1122,5,96,9
0.09999999999999432,1122,6,96,110
0.09999999999999432,1122,7,96,7
0.10000000000000853,1122,8,96,127
0.09999999999999432,1122,9,96,7
0.09999999999999432,1122,10,96,3
0.09999999999999432,1122,11,96,115
0.10000000000000853,1122,12,96,8
0.09999999999999432,1122,13,96,2
0.09999999999999432,1122,14,96,122
0.09999999999999432,1122,15,96,8
0.10000000000000853,1123,0,96,2
0.10000000000000853,1123,1,96,112
0.09999999999999432,1123,2,96,41
0.09999999999999432,1123,3,96,6
0.10000000000000853,1123,4,96,111
0.09999999999999432,1123,5,96,119
0.10000000000000853,1123,6,96,7
0.09999999999999432,1123,7,96,3
0.09999999999999432,1123,8,96,105
0.09999999999999432,1123,9,96,33
0.09999999999999432,1123,10,96,6
0.10000000000000853,1123,11,96,2
0.10000000000000853,1123,12,96,127
0.09999999999999432,1123,13,96,5
0.10000000000000853,1123,14,96,2
0.09999999999999432,1123,15,96,106
0.09999999999999432,1124,0,96,48
0.10000000000000853,1124,1,96,8
0.09999999999999432,1124,2,96,2
0.09999999999999432,1124,3,96,127
0.09999999999999432,1124,4,96,6
0.09999999999999432,1124,5,96,2
0.09999999999999432,1124,6,96,102
0.09999999999999432,1124,7,96,37
0.09999999999999432,1124,8,96,7
0.10000000000000853,1124,9,96,2
0.09999999999999432,1124,10,96,119
0.09999999999999432,1124,11,96,7
0.09999999999999432,1124,12,96,2
0.09999999999999432,1124,13,96,111
0.10000000000000853,1124,14,96,42
0.09999999999999432,1124,15,96,7
0.10000000000000853,1125,0,96,105
0.10000000000000853,1125,1,96,120
0.09999999999999432,1125,2,96,7
0.09999999999999432,1125,3,96,3
0.09999999999999432,1125,4,96,110
0.10000000000000853,1125,5,96,31
0.09999999999999432,1125,6,96,3
0.09999999999999432,1125,7,96,2
0.09999999999999432,1125,8,96,113
0.09999999999999432,1125,9,96,7
0.10000000000000853,1125,10,96,2
0.10000000000000853,1125,11,96,103
0.09999999999999432,1125,12,96,46
0.10000000000000853,1125,13,96,7
0.09999999999999432,1125,14,96,2
0.09999999999999432,1125,15,96,125
0.10000000000000853,1126,0,96,7
0.09999999999999432,1126,1,96,2
0.09999999999999432,1126,2,96,105
0.09999999999999432,1126,3,96,37
0.09999999999999432,1126,4,96,7
0.10000000000000853,1126,5,96,2
0.10000000000000853,1126,6,96,119
0.10000000000000853,1126,7,96,7
0.09999999999999432,1126,8,96,2
0.09999999999999432,1126,9,96,115
0.10000000000000853,1126,10,96,121
0.10000000000000853,1126,11,96,15
0.10000000000000853,1126,12,96,124
0.10000000000000853,1126,13,96,11
0.09999999999999432,1126,14,96,114
0.09999999999999432,1126,15,96,8
0.10000000000000853,1127,0,96,127
0.09999999999999432,1127,1,96,7
0.09999999999999432,1127,2,96,88
0.09999999999999432,1127,3,96,127
0.10000000000000853,1127,4,96,100
0.09999999999999432,1127,5,96,8
0.09999999999999432,1127,6,96,7
0.09999999999999432,1127,7,96,2
0.10000000000000853,1127,8,96,127
0.09999999999999432,1127,9,96,80
0.09999999999999432,1127,10,96,93
0.09999999999999432,1127,11,96,7
0.09999999999999432,1127,12,96,2
0.10000000000000853,1127,13,96,127
0.09999999999999432,1127,14,96,70
0.09999999999999432,1127,15,96,7
0.10000000000000853,1128,0,96,1
0.10000000000000853,1128,1,96,94
0.10000000000000853,1128,2,96,8
0.09999999999999432,1128,3,96,2
0.09999999999999432,1128,4,96,6
0.10000000000000853,1128,5,96,1
0.10000000000000853,1128,6,96,127
0.09999999999999432,1128,7,96,127
0.10000000000000853,1128,8,96,94
0.09999999999999432,1128,9,96,8
0.10000000000000853,1128,10,96,2
0.10000000000000853,1128,11,96,127
0.10000000000000853,1128,12,96,48
0.10000000000000853,1128,13,96,7
0.09999999999999432,1128,14,96,1
0.09999999999999432,1128,15,96,97
0.10000000000000853,1129,0,96,7
0.10000000000000853,1129,1,96,2
0.10000000000000853,1129,2,96,6
0.09999999999999432,1129,3,96,1
0.09999999999999432,1129,4,96,127
0.10000000000000853,1129,5,96,76
0.09999999999999432,1129,6,96,92
0.09999999999999432,1129,7,96,8
0.09999999999999432,1129,8,96,2
0.09999999999999432,1129,9,96,127
0.10000000000000853,1129,10,96,70
0.09999999999999432,1129,11,96,7
0.10000000000000853,1129,12,96,1
0.09999999999999432,1129,13,96,95
0.10000000000002274,1129,14,96,7
0.09999999999999432,1129,15,96,2
0.09999999999999432,1130,0,96,6
0.09999999999999432,1130,1,96,1
0.09999999999999432,1130,2,96,127
0.09999999999999432,1130,3,96,127
0.10000000000002274,1130,4,96,83
0.09999999999999432,1130,5,96,8
0.10000000000002274,1130,6,96,2
0.09999999999999432,1130,7,96,127
0.09999999999999432,1130,8,96,64
0.09999999999999432,1130,9,96,8
0.09999999999999432,1130,10,96,1
0.09999999999999432,1130,11,96,86
0.09999999999999432,1130,12,96,7
0.09999999999999432,1130,13,96,2
0.10000000000002274,1130,14,96,5
0.09999999999999432,1130,15,96,1
0.09999999999999432,1131,0,96,127
0.09999999999999432,1131,1,96,73
0.09999999999999432,1131,2,96,90
0.09999999999999432,1131,3,96,7
0.09999999999999432,1131,4,96,2
0.09999999999999432,1131,5,96,127
0.09999999999999432,1131,6,96,67
0.09999999999999432,1131,7,96,8
0.09999999999999432,1131,8,96,1
0.09999999999999432,1131,9,96,91
0.10000000000002274,1131,10,96,8
0.09999999999999432,1131,11,96,2
0.09999999999999432,1131,12,96,3
0.10000000000002274,1131,13,96,1
0.09999999999999432,1131,14,96,127
0.09999999999999432,1131,15,96,127
0.09999999999999432,1132,0,96,95
0.09999999999999432,1132,1,96,8
0.10000000000002274,1132,2,96,2
0.09999999999999432,1132,3,96,127
0.09999999999999432,1132,4,96,60
0.09999999999999432,1132,5,96,7
0.09999999999999432,1132,6,96,1
0.09999999999999432,1132,7,96,99
0.09999999999999432,1132,8,96,7
0.09999999999999432,1132,9,96,2
0.10000000000002274,1132,10,96,6
0.09999999999999432,1132,11,96,1
0.09999999999999432,1132,12,96,127
0.10000000000002274,1132,13,96,68
0.09999999999999432,1132,14,96,89
0.09999999999999432,1132,15,96,7
0.09999999999999432,1133,0,96,2
0.09999999999999432,1133,1,96,127
0.10000000000002274,1133,2,96,66
0.09999999999999432,1133,3,96,8
0.09999999999999432,1133,4,96,93
0.09999999999999432,1133,5,96,8
0.10000000000002274,1133,6,96,2
0.09999999999999432,1133,7,96,7
0.09999999999999432,1133,8,96,1
0.09999999999999432,1133,9,96,127
0.09999999999999432,1133,10,96,127
0.10000000000002274,1133,11,96,99
0.09999999999999432,1133,12,96,7
0.09999999999999432,1133,13,96,2
0.09999999999999432,1133,14,96,127
0.09999999999999432,1133,15,96,62
0.09999999999999432,1134,0,96,7
0.10000000000002274,1134,1,96,1
0.09999999999999432,1134,2,96,127
0.09999999999999432,1134,3,96,7
0.09999999999999432,1134,4,96,127
0.09999999999999432,1134,5,96,127
0.10000000000002274,1134,6,96,11
0.09999999999999432,1134,7,96,127
0.09999999999999432,1134,8,96,10
0.09999999999999432,1134,9,96,127
0.09999999999999432,1134,10,96,9
0.10000000000002274,1134,11,96,127
0.09999999999999432,1134,12,96,10
0.09999999999999432,1134,13,96,1
0.09999999999999432,1134,14,96,127
0.10000000000002274,1134,15,96,61
0.10000000000002274,1135,0,96,10
0.09999999999999432,1135,1,96,1
0.09999999999999432,1135,2,96,127
0.09999999999999432,1135,3,96,12
0.09999999999999432,1135,4,96,1
0.10000000000002274,1135,5,96,127
0.09999999999999432,1135,6,96,65
0.09999999999999432,1135,7,96,6
0.10000000000002274,1135,8,96,109
0.09999999999999432,1135,9,96,127
0.10000000000002274,1135,10,96,11
0.09999999999999432,1135,11,96,2
0.09999999999999432,1135,12,96,127
0.09999999999999432,1135,13,96,65
0.09999999999999432,1135,14,96,9
0.09999999999999432,1135,15,96,1
0.10000000000002274,1136,0,96,127
0.09999999999999432,1136,1,96,12
0.09999999999999432,1136,2,96,2
0.09999999999999432,1136,3,96,127
0.09999999999999432,1136,4,96,67
0.10000000000002274,1136,5,96,10
0.09999999999999432,1136,6,96,1
0.09999999999999432,1136,7,96,127
0.09999999999999432,1136,8,96,12
0.09999999999999432,1136,9,96,2
0.10000000000002274,1136,10,96,127
0.09999999999999432,1136,11,96,71
0.09999999999999432,1136,12,96,10
0.09999999999999432,1136,13,96,1
0.09999999999999432,1136,14,96,127
0.10000000000002274,1136,15,96,10
0.09999999999999432,1137,0,96,1
0.09999999999999432,1137,1,96,127
0.09999999999999432,1137,2,96,59
0.09999999999999432,1137,3,96,10
0.09999999999999432,1137,4,96,95
0.09999999999999432,1137,5,96,127
0.09999999999999432,1137,6,96,10
0.09999999999999432,1137,7,96,1
0.09999999999999432,1137,8,96,127
0.09999999999999432,1137,9,96,58
0.09999999999999432,1137,10,96,3
0.09999999999999432,1137,11,96,1
0.09999999999999432,1137,12,96,127
0.09999999999999432,1137,13,96,10
0.09999999999999432,1137,14,96,1
0.09999999999999432,1137,15,96,127
0.09999999999999432,1138,0,96,61
0.09999999999999432,1138,1,96,9
0.09999999999999432,1138,2,96,2
0.09999999999999432,1138,3,96,127
0.09999999999999432,1138,4,96,10
0.09999999999999432,1138,5,96,1
0.09999999999999432,1138,6,96,127
0.09999999999999432,1138,7,96,52
0.09999999999999432,1138,8,96,9
0.09999999999999432,1138,9,96,1
0.09999999999999432,1138,10,96,127
0.10000000000002274,1138,11,96,10
0.09999999999999432,1138,12,96,1
0.09999999999999432,1138,13,96,127
0.09999999999999432,1138,14,96,56
0.09999999999999432,1138,15,96,9
0.09999999999999432,1139,0,96,96
0.09999999999999432,1139,1,96,127
0.09999999999999432,1139,2,96,9
0.09999999999999432,1139,3,96,1
0.09999999999999432,1139,4,96,127
0.09999999999999432,1139,5,96,56
0.09999999999999432,1139,6,96,10
0.09999999999999432,1139,7,96,1
0.09999999999999432,1139,8,96,127
0.09999999999999432,1139,9,96,10
0.09999999999999432,1139,10,96,1
0.09999999999999432,1139,11,96,127
0.09999999999999432,1139,12,96,59
0.09999999999999432,1139,13,96,12
0.10000000000002274,1139,14,96,2
0.09999999999999432,1139,15,96,127
0.09999999999999432,1140,0,96,17
0.09999999999999432,1140,1,96,1
0.09999999999999432,1140,2,96,127
0.10000000000002274,1140,3,96,59
0.09999999999999432,1140,4,96,21
0.09999999999999432,1140,5,96,2
0.09999999999999432,1140,6,96,127
0.10000000000002274,1140,7,96,26
0.10000000000002274,1140,8,96,2
0.09999999999999432,1140,9,96,127
0.09999999999999432,1140,10,96,52
0.09999999999999432,1140,11,96,28
0.09999999999999432,1140,12,96,2
0.10000000000002274,1140,13,96,127
0.09999999999999432,1140,14,96,27
0.09999999999999432,1140,15,96,2
0.09999999999999432,1141,0,96,127
0.09999999999999432,1141,1,96,127
0.09999999999999432,1141,2,96,15
0.09999999999999432,1141,3,96,127
0.09999999999999432,1141,4,96,15
0.09999999999999432,1141,5,96,127
0.09999999999999432,1141,6,96,15
0.09999999999999432,1141,7,96,127
0.09999999999999432,1141,8,96,53
0.09999999999999432,1141,9,96,16
0.09999999999999432,1141,10,96,2
0.09999999999999432,1141,11,96,127
0.09999999999999432,1141,12,96,16
0.09999999999999432,1141,13,96,3
0.09999999999999432,1141,14,96,127
0.09999999999999432,1141,15,96,54
0.09999999999999432,1142,0,96,15
0.09999999999999432,1142,1,96,114
0.09999999999999432,1142,2,96,127
0.09999999999999432,1142,3,96,13
0.09999999999999432,1142,4,96,2
0.09999999999999432,1142,5,96,127
0.10000000000002274,1142,6,96,57
0.09999999999999432,1142,7,96,15
0.09999999999999432,1142,8,96,3
0.09999999999999432,1142,9,96,127
0.09999999999999432,1142,10,96,14
0.10000000000002274,1142,11,96,3
0.10000000000002274,1142,12,96,127
0.09999999999999432,1142,13,96,65
0.09999999999999432,1142,14,96,14
0.09999999999999432,1142,15,96,3
0.09999999999999432,1143,0,96,127
0.09999999999999432,1143,1,96,16
0.09999999999999432,1143,2,96,2
0.09999999999999432,1143,3,96,111
0.09999999999999432,1143,4,96,54
0.09999999999999432,1143,5,96,15
0.10000000000002274,1143,6,96,2
0.10000000000002274,1143,7,96,127
0.09999999999999432,1143,8,96,15
0.09999999999999432,1143,9,96,3
0.09999999999999432,1143,10,96,127
0.10000000000002274,1143,11,96,55
0.09999999999999432,1143,12,96,14
0.09999999999999432,1143,13,96,98
0.09999999999999432,1143,14,96,127
0.09999999999999432,1143,15,96,14
0.09999999999999432,1144,0,96,3
0.10000000000002274,1144,1,96,127
0.09999999999999432,1144,2,96,55
0.09999999999999432,1144,3,96,14
0.09999999999999432,1144,4,96,2
0.09999999999999432,1144,5,96,127
0.09999999999999432,1144,6,96,15
0.09999999999999432,1144,7,96,2
0.09999999999999432,1144,8,96,127
0.09999999999999432,1144,9,96,57
0.10000000000002274,1144,10,96,14
0.09999999999999432,1144,11,96,127
0.09999999999999432,1144,12,96,13
0.09999999999999432,1144,13,96,2
0.09999999999999432,1144,14,96,127
0.09999999999999432,1144,15,96,61
0.09999999999999432,1145,0,96,16
0.09999999999999432,1145,1,96,3
0.09999999999999432,1145,2,96,127
0.10000000000002274,1145,3,96,14
0.09999999999999432,1145,4,96,2
0.09999999999999432,1145,5,96,127
0.09999999999999432,1145,6,96,56
0.09999999999999432,1145,7,96,15
0.10000000000002274,1145,8,96,116
0.09999999999999432,1145,9,96,127
0.09999999999999432,1145,10,96,14
0.10000000000002274,1145,11,96,2
0.09999999999999432,1145,12,96,127
0.09999999999999432,1145,13,96,127
0.09999999999999432,1145,14,96,127
0.09999999999999432,1145,15,96,10
0.09999999999999432,1146,0,96,127
0.10000000000002274,1146,1,96,14
0.09999999999999432,1146,2,96,2
0.09999999999999432,1146,3,96,127
0.09999999999999432,1146,4,96,14
0.09999999999999432,1146,5,96,127
0.10000000000002274,1146,6,96,45
0.09999999999999432,1146,7,96,13
0.09999999999999432,1146,8,96,2
0.09999999999999432,1146,9,96,127
0.10000000000002274,1146,10,96,12
0.10000000000002274,1146,11,96,2
0.09999999999999432,1146,12,96,106
0.09999999999999432,1146,13,96,53
0.09999999999999432,1146,14,96,13
0.09999999999999432,1146,15,96,92
0.10000000000002274,1147,0,96,127
0.09999999999999432,1147,1,96,9
0.09999999999999432,1147,2,96,1
0.09999999999999432,1147,3,96,120
0.10000000000002274,1147,4,96,13
0.09999999999999432,1147,5,96,2
0.09999999999999432,1147,6,96,127
0.09999999999999432,1147,7,96,13
0.09999999999999432,1147,8,96,2
0.09999999999999432,1147,9,96,124
0.09999999999999432,1147,10,96,12
0.09999999999999432,1147,11,96,2
0.09999999999999432,1147,12,96,127
0.09999999999999432,1147,13,96,13
0.09999999999999432,1147,14,96,2
0.09999999999999432,1147,15,96,111
0.09999999999999432,1148,0,96,13
0.09999999999999432,1148,1,96,2
0.09999999999999432,1148,2,96,127
0.09999999999999432,1148,3,96,13
0.09999999999999432,1148,4,96,2
0.09999999999999432,1148,5,96,120
0.09999999999999432,1148,6,96,55
0.09999999999999432,1148,7,96,9
0.09999999999999432,1148,8,96,97
0.09999999999999432,1148,9,96,127
0.09999999999999432,1148,10,96,11
0.09999999999999432,1148,11,96,3
0.09999999999999432,1148,12,96,116
0.09999999999999432,1148,13,96,18
0.09999999999999432,1148,14,96,127
0.09999999999999432,1148,15,96,14
0.10000000000002274,1149,0,96,124
0.09999999999999432,1149,1,96,14
0.09999999999999432,1149,2,96,4
0.09999999999999432,1149,3,96,127
0.09999999999999432,1149,4,96,13
0.09999999999999432,1149,5,96,3
0.09999999999999432,1149,6,96,115
0.09999999999999432,1149,7,96,50
0.09999999999999432,1149,8,96,12
0.09999999999999432,1149,9,96,2
0.10000000000002274,1149,10,96,127
0.10000000000002274,1149,11,96,10
0.10000000000002274,1149,12,96,2
0.09999999999999432,1149,13,96,120
0.09999999999999432,1149,14,96,49
0.09999999999999432,1149,15,96,12
0.09999999999999432,1150,0,96,94
0.09999999999999432,1150,1,96,127
0.09999999999999432,1150,2,96,13
0.09999999999999432,1150,3,96,2
0.09999999999999432,1150,4,96,109
0.09999999999999432,1150,5,96,52
0.09999999999999432,1150,6,96,13
0.10000000000002274,1150,7,96,2
0.09999999999999432,1150,8,96,127
0.09999999999999432,1150,9,96,13
0.09999999999999432,1150,10,96,2
0.09999999999999432,1150,11,96,127
0.09999999999999432,1150,12,96,11
0.09999999999999432,1150,13,96,2
0.09999999999999432,1150,14,96,75
0.09999999999999432,1150,15,96,127
0.09999999999999432,1151,0,96,127
0.09999999999999432,1151,1,96,19
0.09999999999999432,1151,2,96,127
0.09999999999999432,1151,3,96,23
0.10000000000002274,1151,4,96,19
0.09999999999999432,1151,5,96,127
0.09999999999999432,1151,6,96,17
0.09999999999999432,1151,7,96,8
0.09999999999999432,1151,8,96,121
0.09999999999999432,1151,9,96,17
0.09999999999999432,1151,10,96,6
0.09999999999999432,1151,11,96,127
0.09999999999999432,1151,12,96,17
0.10000000000002274,1151,13,96,6
0.09999999999999432,1151,14,96,127
0.09999999999999432,1151,15,96,59
0.09999999999999432,1152,0,96,17
0.09999999999999432,1152,1,96,100
0.09999999999999432,1152,2,96,124
0.10000000000002274,1152,3,96,21
0.09999999999999432,1152,4,96,12
0.09999999999999432,1152,5,96,127
0.09999999999999432,1152,6,96,64
0.09999999999999432,1152,7,96,18
0.09999999999999432,1152,8,96,7
0.10000000000002274,1152,9,96,127
0.09999999999999432,1152,10,96,65
0.09999999999999432,1152,11,96,19
0.09999999999999432,1152,12,96,8
0.09999999999999432,1152,13,96,127
0.10000000000002274,1152,14,96,51
0.10000000000002274,1152,15,96,20
0.09999999999999432,1153,0,96,8
0.09999999999999432,1153,1,96,127
0.09999999999999432,1153,2,96,15
0.09999999999999432,1153,3,96,6
0.10000000000002274,1153,4,96,126
0.09999999999999432,1153,5,96,50
0.09999999999999432,1153,6,96,18
0.09999999999999432,1153,7,96,6
0.09999999999999432,1153,8,96,127
0.10000000000002274,1153,9,96,59
0.10000000000002274,1153,10,96,19
0.09999999999999432,1153,11,96,9
0.09999999999999432,1153,12,96,103
0.09999999999999432,1153,13,96,127
0.09999999999999432,1153,14,96,127
0.09999999999999432,1153,15,96,18
0.09999999999999432,1154,0,96,8
0.10000000000002274,1154,1,96,127
0.09999999999999432,1154,2,96,63
0.09999999999999432,1154,3,96,22
0.09999999999999432,1154,4,96,19
0.09999999999999432,1154,5,96,127
0.10000000000002274,1154,6,96,16
0.09999999999999432,1154,7,96,8
0.09999999999999432,1154,8,96,127
0.09999999999999432,1154,9,96,17
0.09999999999999432,1154,10,96,4
0.10000000000002274,1154,11,96,127
0.09999999999999432,1154,12,96,17
0.09999999999999432,1154,13,96,5
0.09999999999999432,1154,14,96,126
0.09999999999999432,1154,15,96,58
0.09999999999999432,1155,0,96,17
0.09999999999999432,1155,1,96,95
0.09999999999999432,1155,2,96,127
0.09999999999999432,1155,3,96,51
0.09999999999999432,1155,4,96,20
0.09999999999999432,1155,5,96,10
0.09999999999999432,1155,6,96,118
0.09999999999999432,1155,7,96,61
0.09999999999999432,1155,8,96,16
0.09999999999999432,1155,9,96,6
0.09999999999999432,1155,10,96,127
0.09999999999999432,1155,11,96,59
0.09999999999999432,1155,12,96,16
0.09999999999999432,1155,13,96,8
0.09999999999999432,1155,14,96,127
0.09999999999999432,1155,15,96,59
0.09999999999999432,1156,0,96,18
0.10000000000002274,1156,1,96,8
0.09999999999999432,1156,2,96,127
0.10000000000002274,1156,3,96,15
0.09999999999999432,1156,4,96,9
0.09999999999999432,1156,5,96,113
0.09999999999999432,1156,6,96,35
0.09999999999999432,1156,7,96,16
0.09999999999999432,1156,8,96,7
0.10000000000002274,1156,9,96,122
0.09999999999999432,1156,10,96,43
0.10000000000002274,1156,11,96,16
0.09999999999999432,1156,12,96,8
0.09999999999999432,1156,13,96,110
0.09999999999999432,1156,14,96,33
0.09999999999999432,1156,15,96,15
0.09999999999999432,1157,0,96,94
0.10000000000002274,1157,1,96,107
0.09999999999999432,1157,2,96,35
0.09999999999999432,1157,3,96,13
0.09999999999999432,1157,4,96,107
0.09999999999999432,1157,5,96,127
0.10000000000002274,1157,6,96,18
0.09999999999999432,1157,7,96,114
0.09999999999999432,1157,8,96,17
0.09999999999999432,1157,9,96,9
0.09999999999999432,1157,10,96,118
0.09999999999999432,1157,11,96,39
0.09999999999999432,1157,12,96,18
0.10000000000002274,1157,13,96,10
0.09999999999999432,1157,14,96,117
0.09999999999999432,1157,15,96,43
0.09999999999999432,1158,0,96,17
0.09999999999999432,1158,1,96,10
0.09999999999999432,1158,2,96,127
0.10000000000002274,1158,3,96,39
0.09999999999999432,1158,4,96,17
0.09999999999999432,1158,5,96,111
0.09999999999999432,1158,6,96,34
0.09999999999999432,1158,7,96,16
0.10000000000002274,1158,8,96,89
0.09999999999999432,1158,9,96,120
0.09999999999999432,1158,10,96,35
0.09999999999999432,1158,11,96,15
0.09999999999999432,1158,12,96,6
0.09999999999999432,1158,13,96,10
0.09999999999999432,1158,14,96,2
0.09999999999999432,1158,15,96,1
0.09999999999999432,1159,0,96,45
0.09999999999999432,1159,1,96,8
0.09999999999999432,1159,2,96,8
0.09999999999999432,1159,3,96,5
0.09999999999999432,1159,4,96,1
0.09999999999999432,1159,5,96,41
0.09999999999999432,1159,6,96,7
0.09999999999999432,1159,7,96,9
0.09999999999999432,1159,8,96,2
0.10000000000002274,1159,9,96,1
0.10000000000002274,1159,10,96,39
0.09999999999999432,1159,11,96,4
0.09999999999999432,1159,12,96,10
0.09999999999999432,1159,13,96,4
0.09999999999999432,1159,14,96,1
0.09999999999999432,1159,15,96,41
0.09999999999999432,1160,0,96,8
0.10000000000002274,1160,1,96,9
0.09999999999999432,1160,2,96,2
0.09999999999999432,1160,3,96,1
0.09999999999999432,1160,4,96,43
0.10000000000002274,1160,5,96,7
0.09999999999999432,1160,6,96,9
0.09999999999999432,1160,7,96,5
0.09999999999999432,1160,8,96,1
0.10000000000002274,1160,9,96,39
0.09999999999999432,1160,10,96,6
0.09999999999999432,1160,11,96,1
0.09999999999999432,1160,12,96,7
0.09999999999999432,1160,13,96,2
0.10000000000002274,1160,14,96,1
0.09999999999999432,1160,15,96,43
0.09999999999999432,1161,0,96,8
0.10000000000002274,1161,1,96,9
0.09999999999999432,1161,2,96,6
0.09999999999999432,1161,3,96,1
0.09999999999999432,1161,4,96,37
0.10000000000002274,1161,5,96,8
0.09999999999999432,1161,6,96,8
0.09999999999999432,1161,7,96,2
0.09999999999999432,1161,8,96,1
0.09999999999999432,1161,9,96,41
0.10000000000002274,1161,10,96,8
0.09999999999999432,1161,11,96,7
0.10000000000002274,1161,12,96,4
0.10000000000002274,1161,13,96,1
0.10000000000002274,1161,14,96,36
0.09999999999999432,1161,15,96,8
0.09999999999999432,1162,0,96,7
0.09999999999999432,1162,1,96,2
0.09999999999999432,1162,2,96,1
0.09999999999999432,1162,3,96,39
0.09999999999999432,1162,4,96,8
0.10000000000002274,1162,5,96,10
0.09999999999999432,1162,6,96,5
0.09999999999999432,1162,7,96,1
0.09999999999999432,1162,8,96,41
0.10000000000002274,1162,9,96,8
0.09999999999999432,1162,10,96,10
0.09999999999999432,1162,11,96,2
0.10000000000002274,1162,12,96,1
0.09999999999999432,1162,13,96,41
0.09999999999999432,1162,14,96,7
0.09999999999999432,1162,15,96,3
0.10000000000002274,1163,0,96,6
0.09999999999999432,1163,1,96,1
0.09999999999999432,1163,2,96,43
0.09999999999999432,1163,3,96,6
0.09999999999999432,1163,4,96,1
0.09999999999999432,1163,5,96,10
0.09999999999999432,1163,6,96,2
0.09999999999999432,1163,7,96,1
0.09999999999999432,1163,8,96,42
0.09999999999999432,1163,9,96,8
0.09999999999999432,1163,10,96,9
0.09999999999999432,1163,11,96,111
0.09999999999999432,1163,12,96,127
0.09999999999999432,1163,13,96,5
0.09999999999999432,1163,14,96,127
0.09999999999999432,1163,15,96,57
0.09999999999999432,1164,0,96,4
0.10000000000002274,1164,1,96,2
0.09999999999999432,1164,2,96,127
0.09999999999999432,1164,3,96,4
0.09999999999999432,1164,4,96,2
0.09999999999999432,1164,5,96,103
0.10000000000002274,1164,6,96,58
0.09999999999999432,1164,7,96,4
0.09999999999999432,1164,8,96,2
0.09999999999999432,1164,9,96,127
0.09999999999999432,1164,10,96,4
0.10000000000002274,1164,11,96,2
0.10000000000002274,1164,12,96,127
0.09999999999999432,1164,13,96,61
0.09999999999999432,1164,14,96,4
0.10000000000002274,1164,15,96,88
0.09999999999999432,1165,0,96,127
0.09999999999999432,1165,1,96,4
0.09999999999999432,1165,2,96,2
0.09999999999999432,1165,3,96,127
0.09999999999999432,1165,4,96,61
0.09999999999999432,1165,5,96,4
0.09999999999999432,1165,6,96,2
0.09999999999999432,1165,7,96,127
0.09999999999999432,1165,8,96,5
0.09999999999999432,1165,9,96,2
0.09999999999999432,1165,10,96,127
0.09999999999999432,1165,11,96,65
0.10000000000002274,1165,12,96,4
0.09999999999999432,1165,13,96,125
0.09999999999999432,1165,14,96,4
0.09999999999999432,1165,15,96,2
0.10000000000002274,1166,0,96,127
0.09999999999999432,1166,1,96,59
0.09999999999999432,1166,2,96,4
0.09999999999999432,1166,3,96,2
0.10000000000002274,1166,4,96,127
0.10000000000002274,1166,5,96,4
0.09999999999999432,1166,6,96,2
0.09999999999999432,1166,7,96,127
0.09999999999999432,1166,8,96,61
0.09999999999999432,1166,9,96,127
0.09999999999999432,1166,10,96,127
0.09999999999999432,1166,11,96,4
0.10000000000002274,1166,12,96,127
0.09999999999999432,1166,13,96,63
0.09999999999999432,1166,14,96,4
0.09999999999999432,1166,15,96,2
0.10000000000002274,1167,0,96,127
0.10000000000002274,1167,1,96,4
0.09999999999999432,1167,2,96,2
0.09999999999999432,1167,3,96,127
0.09999999999999432,1167,4,96,59
0.09999999999999432,1167,5,96,5
0.09999999999999432,1167,6,96,2
0.09999999999999432,1167,7,96,127
0.09999999999999432,1167,8,96,4
0.09999999999999432,1167,9,96,2
0.09999999999999432,1167,10,96,127
0.10000000000002274,1167,11,96,4
0.09999999999999432,1167,12,96,95
0.09999999999999432,1167,13,96,127
0.09999999999999432,1167,14,96,4
0.09999999999999432,1167,15,96,2
0.09999999999999432,1168,0,96,127
0.09999999999999432,1168,1,96,59
0.10000000000002274,1168,2,96,2
0.09999999999999432,1168,3,96,2
0.10000000000002274,1168,4,96,127
0.09999999999999432,1168,5,96,4
0.09999999999999432,1168,6,96,2
0.10000000000002274,1168,7,96,127
0.09999999999999432,1168,8,96,59
0.09999999999999432,1168,9,96,4
0.09999999999999432,1168,10,96,2
0.09999999999999432,1168,11,96,127
0.10000000000002274,1168,12,96,4
0.09999999999999432,1168,13,96,2
0.09999999999999432,1168,14,96,127
0.10000000000000009,1168,15,63,34
0.09999999999999987,1169,0,63,62
0.09999999999999964,1169,1,63,53
0.09999999999999964,1169,2,63,40
0.09999999999999964,1169,3,63,33
0.10000000000000009,1169,4,63,47
0.09999999999999964,1169,5,63,47
0.10000000000000009,1169,6,63,50
0.10000000000000009,1169,7,63,26
0.10000000000000009,1169,8,63,24
0.10000000000000009,1169,9,63,38
0.10000000000000053,1169,10,63,42
0.09999999999999964,1169,11,63,34
0.09999999999999964,1169,12,63,24
0.09999999999999964,1169,13,63,31
0.09999999999999964,1169,14,63,42
0.10000000000000053,1169,15,63,48
0.09999999999999964,1170,0,63,49
0.09999999999999964,1170,1,63,34
0.10000000000000053,1170,2,63,33
0.10000000000000053,1170,3,63,33
0.10000000000000053,1170,4,63,63
0.10000000000000053,1170,5,63,47
0.09999999999999964,1170,6,63,37
0.09999999999999964,1170,7,63,19
0.09999999999999964,1170,8,63,37
0.09999999999999964,1170,9,63,47
0.09999999999999964,1170,10,63,46
0.09999999999999964,1170,11,63,31
0.09999999999999964,1170,12,63,16
0.09999999999999964,1170,13,63,44
0.09999999999999964,1170,14,63,58
0.09999999999999964,1170,15,63,54
0.09999999999999964,1171,0,63,40
0.09999999999999964,1171,1,63,35
0.09999999999999964,1171,2,63,27
0.09999999999999964,1171,3,63,37
0.10000000000000142,1171,4,63,29
0.09999999999999964,1171,5,63,18
0.10000000000000142,1171,6,63,27
0.09999999999999964,1171,7,63,24
0.09999999999999964,1171,8,63,40
0.09999999999999964,1171,9,63,37
0.09999999999999964,1171,10,63,24
0.10000000000000142,1171,11,63,29
0.09999999999999964,1171,12,63,30
0.09999999999999964,1171,13,63,31
0.09999999999999964,1171,14,63,27
0.09999999999999964,1171,15,63,29
0.09999999999999964,1172,0,63,32
0.09999999999999964,1172,1,63,45
0.09999999999999964,1172,2,63,39
0.10000000000000142,1172,3,63,34
0.09999999999999964,1172,4,63,35
0.10000000000000142,1172,5,63,44
0.10000000000000142,1172,6,63,39
0.09999999999999964,1172,7,63,24
0.09999999999999964,1172,8,63,25
0.09999999999999964,1172,9,63,42
0.10000000000000142,1172,10,63,41
0.09999999999999787,1172,11,63,38
0.10000000000000142,1172,12,63,34
0.10000000000000142,1172,13,63,30
0.09999999999999787,1172,14,63,39
0.09999999999999787,1172,15,63,28
0.09999999999999787,1173,0,63,50
0.09999999999999787,1173,1,63,41
0.09999999999999787,1173,2,63,53
0.10000000000000142,1173,3,63,51
0.10000000000000142,1173,4,63,31
0.09999999999999787,1173,5,63,40
0.09999999999999787,1173,6,63,25
0.10000000000000142,1173,7,63,36
0.09999999999999787,1173,8,63,25
0.10000000000000142,1173,9,63,23
0.09999999999999787,1173,10,63,45
0.09999999999999787,1173,11,63,28
0.09999999999999787,1173,12,63,44
0.10000000000000142,1173,13,63,49
0.09999999999999787,1173,14,63,30
0.10000000000000142,1173,15,63,21
0.09999999999999787,1174,0,63,31
0.09999999999999787,1174,1,63,22
0.10000000000000142,1174,2,63,29
0.10000000000000142,1174,3,63,38
0.09999999999999787,1174,4,63,39
0.10000000000000142,1174,5,63,42
0.10000000000000142,1174,6,63,53
0.10000000000000142,1174,7,63,36
0.09999999999999787,1174,8,63,33
0.10000000000000142,1174,9,63,31
0.10000000000000142,1174,10,63,21
0.10000000000000142,1174,11,63,20
0.10000000000000142,1174,12,63,32
0.09999999999999787,1174,13,63,32
0.09999999999999787,1174,14,63,21
0.09999999999999787,1174,15,63,37
0.10000000000000142,1175,0,63,29
0.10000000000000142,1175,1,63,25
0.09999999999999787,1175,2,63,28
0.09999999999999787,1175,3,63,29
0.10000000000000142,1175,4,63,48
0.09999999999999787,1175,5,63,37
0.10000000000000142,1175,6,63,34
0.09999999999999787,1175,7,63,43
0.09999999999999787,1175,8,63,31
0.10000000000000142,1175,9,63,46
0.10000000000000142,1175,10,63,24
0.09999999999999787,1175,11,63,42
0.10000000000000142,1175,12,63,31
0.10000000000000142,1175,13,63,34
0.09999999999999787,1175,14,63,41
0.10000000000000142,1175,15,63,33
0.10000000000000142,1176,0,63,30
0.10000000000000142,1176,1,63,36
0.10000000000000142,1176,2,63,32
0.09999999999999787,1176,3,63,18
0.10000000000000142,1176,4,63,24
0.10000000000000142,1176,5,63,28
0.09999999999999787,1176,6,63,29
0.10000000000000142,1176,7,63,18
0.10000000000000142,1176,8,63,22
0.10000000000000142,1176,9,63,23
0.10000000000000142,1176,10,63,15
0.10000000000000142,1176,11,63,23
0.10000000000000142,1176,12,63,22
0.10000000000000142,1176,13,63,26
0.10000000000000142,1176,14,63,23
0.10000000000000142,1176,15,63,29
0.10000000000000142,1177,0,63,26
0.09999999999999432,1177,1,63,25
0.10000000000000142,1177,2,63,14
0.10000000000000142,1177,3,63,28
0.09999999999999432,1177,4,63,18
0.09999999999999432,1177,5,63,16
0.10000000000000142,1177,6,63,35
0.10000000000000142,1177,7,63,23
0.10000000000000142,1177,8,63,27
0.10000000000000142,1177,9,63,27
0.10000000000000142,1177,10,63,29
0.10000000000000142,1177,11,63,21
0.10000000000000142,1177,12,63,25
0.10000000000000142,1177,13,63,20
0.10000000000000142,1177,14,63,25
0.10000000000000142,1177,15,63,38
0.10000000000000142,1178,0,63,32
0.10000000000000142,1178,1,63,27
0.10000000000000142,1178,2,63,29
0.10000000000000142,1178,3,63,30
0.09999999999999432,1178,4,63,30
0.04545454545453964,1178,5,63,35
0.03636363636363171,1178,6,63,51
0.10000000000000142,1178,7,63,31
0.10000000000000142,1178,8,63,51
0.10000000000000142,1178,9,63,37
0.10000000000000142,1178,10,63,43
0.10000000000000142,1178,11,63,42
0.10000000000000142,1178,12,63,32
0.09999999999999432,1178,13,63,5
0.10000000000000142,1178,14,63,40
0.10000000000000142,1178,15,63,39
0.10000000000000142,1179,0,63,32
0.09999999999999432,1179,1,63,45
0.10000000000000142,1179,2,63,16
0.09999999999999432,1179,3,63,19
0.10000000000000142,1179,4,63,34
0.10000000000000142,1179,5,63,33
0.09999999999999432,1179,6,63,31
0.10000000000000142,1179,7,63,32
0.10000000000000142,1179,8,63,32
0.10000000000000142,1179,9,63,20
0.09999999999999432,1179,10,63,29
0.10000000000000142,1179,11,63,22
0.10000000000000142,1179,12,63,34
0.09999999999999432,1179,13,63,17
0.09999999999999432,1179,14,63,24
0.10000000000000142,1179,15,63,30
0.10000000000000142,1180,0,63,23
0.10000000000000142,1180,1,63,27
0.10000000000000142,1180,2,63,33
0.09999999999999432,1180,3,63,38
0.10000000000000142,1180,4,63,33
0.09999999999999432,1180,5,63,24
0.10000000000000142,1180,6,63,19
0.10000000000000142,1180,7,63,20
0.10000000000000142,1180,8,63,28
0.09999999999999432,1180,9,63,33
0.10000000000000142,1180,10,63,28
0.10000000000000142,1180,11,63,20
0.09999999999999432,1180,12,63,28
0.10000000000000142,1180,13,63,20
0.10000000000000142,1180,14,63,26
0.09999999999999432,1180,15,63,21
0.10000000000000142,1181,0,63,28
0.10000000000000142,1181,1,63,21
0.10000000000000142,1181,2,63,32
0.10000000000000142,1181,3,63,22
0.10000000000000142,1181,4,63,24
0.10000000000000142,1181,5,63,22
0.10000000000000142,1181,6,63,17
0.10000000000000142,1181,7,63,32
0.10000000000000142,1181,8,63,32
0.10000000000000142,1181,9,63,25
0.10000000000000142,1181,10,63,34
0.10000000000000142,1181,11,63,33
0.10000000000000142,1181,12,63,34
0.10000000000000142,1181,13,63,22
0.10000000000000142,1181,14,63,31
0.10000000000000142,1181,15,63,23
0.09999999999999432,1182,0,63,37
0.10000000000000142,1182,1,63,19
0.10000000000000142,1182,2,63,24
0.10000000000000142,1182,3,63,29
0.09999999999999432,1182,4,63,22
0.10000000000000142,1182,5,63,30
0.10000000000000142,1182,6,63,30
0.10000000000000142,1182,7,63,39
0.10000000000000142,1182,8,63,31
0.10000000000000142,1182,9,63,22
0.10000000000000142,1182,10,63,19
0.10000000000000142,1182,11,63,29
0.10000000000000142,1182,12,63,25
0.09999999999999432,1182,13,63,25
0.10000000000000142,1182,14,63,24
0.10000000000000142,1182,15,63,30
0.10000000000000142,1183,0,63,31
0.10000000000000142,1183,1,63,30
0.10000000000000142,1183,2,63,23
0.10000000000000142,1183,3,63,38
0.10000000000000142,1183,4,63,25
0.10000000000000142,1183,5,63,36
0.10000000000000142,1183,6,63,36
0.10000000000000142,1183,7,63,42
0.10000000000000142,1183,8,63,31
0.10000000000000142,1183,9,63,29
0.09999999999999432,1183,10,63,31
0.09999999999999432,1183,11,63,27
0.10000000000000853,1183,12,63,30
0.09999999999999432,1183,13,63,24
0.09999999999999432,1183,14,63,33
0.09999999999999432,1183,15,63,31
0.09999999999999432,1184,0,63,29
0.09999999999999432,1184,1,63,24
0.09999999999999432,1184,2,63,22
0.09999999999999432,1184,3,63,39
0.09999999999999432,1184,4,63,39
0.10000000000000853,1184,5,63,35
0.10000000000000853,1184,6,63,30
0.10000000000000853,1184,7,63,27
0.09999999999999432,1184,8,63,36
0.10000000000000853,1184,9,63,65
0.10000000000000853,1184,10,63,75
0.10000000000000853,1184,11,63,57
0.09999999999999432,1184,12,63,72
0.10000000000000853,1184,13,63,69
0.10000000000000853,1184,14,63,45
0.09999999999999432,1184,15,63,66
0.10000000000000853,1185,0,63,58
0.10000000000000853,1185,1,63,54
0.09999999999999432,1185,2,63,67
0.09999999999999432,1185,3,63,54
0.09999999999999432,1185,4,63,73
0.10000000000000853,1185,5,63,67
0.09999999999999432,1185,6,63,53
0.10000000000000853,1185,7,63,73
0.10000000000000853,1185,8,63,67
0.10000000000000853,1185,9,63,61
0.09999999999999432,1185,10,63,62
0.10000000000000853,1185,11,63,61
0.09999999999999432,1185,12,63,62
0.09999999999999432,1185,13,63,70
0.09999999999999432,1185,14,63,66
0.10000000000000853,1185,15,63,90
0.09999999999999432,1186,0,63,60
0.09999999999999432,1186,1,63,43
0.10000000000000853,1186,2,63,70
0.09999999999999432,1186,3,63,67
0.09999999999999432,1186,4,63,59
0.09999999999999432,1186,5,63,57
0.10000000000000853,1186,6,63,71
0.09999999999999432,1186,7,63,73
0.09999999999999432,1186,8,63,59
0.09999999999999432,1186,9,63,97
0.10000000000000853,1186,10,63,26
0.09999999999999432,1186,11,63,43
0.09999999999999432,1186,12,63,38
0.09999999999999432,1186,13,63,35
0.10000000000000853,1186,14,63,49
0.09999999999999432,1186,15,63,37
0.09999999999999432,1187,0,63,42
0.09999999999999432,1187,1,63,45
0.09999999999999432,1187,2,63,31
0.10000000000000853,1187,3,63,31
0.10000000000000853,1187,4,63,34
0.10000000000000853,1187,5,63,39
0.09999999999999432,1187,6,63,35
0.10000000000000853,1187,7,63,23
0.09999999999999432,1187,8,63,36
0.09999999999999432,1187,9,63,35
0.10000000000000853,1187,10,63,32
0.10000000000000853,1187,11,63,24
0.09999999999999432,1187,12,63,19
0.10000000000000853,1187,13,63,27
0.09999999999999432,1187,14,63,26
0.10000000000000853,1187,15,63,41
0.09999999999999432,1188,0,63,44
0.09999999999999432,1188,1,63,20
0.09999999999999432,1188,2,63,45
0.10000000000000853,1188,3,63,32
0.10000000000000853,1188,4,63,45
0.10000000000000853,1188,5,63,46
0.10000000000000853,1188,6,63,27
0.09999999999999432,1188,7,63,32
0.09999999999999432,1188,8,63,35
0.09999999999999432,1188,9,63,44
0.10000000000000853,1188,10,63,45
0.09999999999999432,1188,11,63,34
0.10000000000000853,1188,12,63,38
0.10000000000000853,1188,13,63,18
0.10000000000000853,1188,14,63,36
0.10000000000000853,1188,15,63,28
0.09999999999999432,1189,0,63,36
0.09999999999999432,1189,1,63,34
0.09999999999999432,1189,2,63,42
0.10000000000000853,1189,3,63,49
0.09999999999999432,1189,4,63,32
0.09999999999999432,1189,5,63,42
0.09999999999999432,1189,6,63,24
0.09999999999999432,1189,7,63,33
0.09999999999999432,1189,8,63,50
0.09999999999999432,1189,9,63,65
0.09999999999999432,1189,10,63,63
0.10000000000000853,1189,11,63,32
0.10000000000000853,1189,12,63,32
0.10000000000000853,1189,13,63,29
0.10000000000000853,1189,14,63,25
0.09999999999999432,1189,15,63,38
0.09999999999999432,1190,0,63,39
0.09999999999999432,1190,1,63,32
0.09999999999999432,1190,2,63,33
0.09999999999999432,1190,3,63,22
0.09999999999999432,1190,4,63,30
0.09999999999999432,1190,5,63,24
0.10000000000000853,1190,6,63,31
0.09999999999999432,1190,7,63,43
0.10000000000000853,1190,8,63,32
0.09999999999999432,1190,9,63,33
0.10000000000000853,1190,10,63,30
0.09999999999999432,1190,11,63,28
0.10000000000000853,1190,12,63,26
0.10000000000000853,1190,13,63,22
0.10000000000000853,1190,14,63,40
0.09999999999999432,1190,15,63,28
0.09999999999999432,1191,0,63,26
0.09999999999999432,1191,1,63,31
0.09999999999999432,1191,2,63,32
0.09999999999999432,1191,3,63,38
0.09999999999999432,1191,4,63,40
0.03409090909090651,1191,5,63,41
0.09999999999999432,1191,6,63,33
0.09999999999999432,1191,7,63,35
0.09999999999999432,1191,8,63,47
0.09999999999999432,1191,9,63,42
0.10000000000000853,1191,10,63,39
0.09999999999999432,1191,11,63,24
0.10000000000000853,1191,12,63,38
0.09999999999999432,1191,13,63,49
0.10000000000000853,1191,14,63,42
0.10000000000000853,1191,15,63,55
0.09999999999999432,1192,0,63,46
0.09999999999999432,1192,1,63,58
0.09999999999999432,1192,2,63,45
0.10000000000000853,1192,3,63,41
0.10000000000000853,1192,4,63,38
0.09999999999999432,1192,5,63,48
0.10000000000000853,1192,6,63,44
0.10000000000000853,1192,7,63,42
0.09999999999999432,1192,8,63,45
0.09999999999999432,1192,9,63,37
0.09999999999999432,1192,10,63,40
0.09999999999999432,1192,11,63,57
0.09999999999999432,1192,12,63,49
0.09999999999999432,1192,13,63,28
0.09999999999999432,1192,14,63,50
0.09999999999999432,1192,15,63,37
0.10000000000000853,1193,0,63,67
0.10000000000000853,1193,1,63,46
0.09999999999999432,1193,2,63,38
0.10000000000000853,1193,3,63,31
0.09999999999999432,1193,4,63,38
0.09999999999999432,1193,5,63,31
0.09999999999999432,1193,6,63,43
0.09999999999999432,1193,7,63,37
0.09999999999999432,1193,8,63,33
0.10000000000000853,1193,9,63,25
0.10000000000000853,1193,10,63,31
0.09999999999999432,1193,11,63,39
0.10000000000000853,1193,12,63,40
0.09999999999999432,1193,13,63,50
0.09999999999999432,1193,14,63,37
0.10000000000000853,1193,15,63,56
0.09999999999999432,1194,0,63,37
0.10000000000000853,1194,1,63,33
0.10000000000000853,1194,2,63,42
0.10000000000000853,1194,3,63,54
0.10000000000000853,1194,4,63,64
0.10000000000000853,1194,5,63,87
0.09999999999999432,1194,6,63,82
0.09999999999999432,1194,7,63,73
0.10000000000000853,1194,8,63,59
0.10000000000000853,1194,9,63,69
0.09999999999999432,1194,10,63,49
0.09999999999999432,1194,11,63,48
0.09999999999999432,1194,12,63,50
0.10000000000000853,1194,13,63,44
0.09999999999999432,1194,14,63,26
0.09999999999999432,1194,15,63,33
0.09999999999999432,1195,0,63,36
0.09999999999999432,1195,1,63,49
0.10000000000000853,1195,2,63,39
0.09999999999999432,1195,3,63,37
0.09999999999999432,1195,4,63,21
0.09999999999999432,1195,5,63,37
0.10000000000000853,1195,6,63,36
0.09999999999999432,1195,7,63,44
0.10000000000000853,1195,8,63,32
0.10000000000000853,1195,9,63,27
0.10000000000000853,1195,10,63,35
0.10000000000000853,1195,11,63,30
0.09999999999999432,1195,12,63,28
0.09999999999999432,1195,13,63,43
0.10000000000000853,1195,14,63,25
0.09999999999999432,1195,15,63,35
0.09999999999999432,1196,0,63,45
0.09999999999999432,1196,1,63,35
0.09999999999999432,1196,2,63,43
0.09999999999999432,1196,3,63,58
0.09999999999999432,1196,4,63,36
0.09999999999999432,1196,5,63,34
0.10000000000000853,1196,6,63,27
0.10000000000000853,1196,7,63,56
0.09999999999999432,1196,8,63,33
0.09999999999999432,1196,9,63,28
0.09999999999999432,1196,10,63,34
0.09999999999999432,1196,11,63,29
0.09999999999999432,1196,12,63,30
0.09999999999999432,1196,13,63,28
0.09999999999999432,1196,14,63,36
0.09999999999999432,1196,15,63,41
0.09999999999999432,1197,0,63,29
0.09999999999999432,1197,1,63,36
0.09999999999999432,1197,2,63,31
0.10000000000002274,1197,3,63,32
0.09999999999999432,1197,4,63,32
0.09999999999999432,1197,5,63,21
0.09999999999999432,1197,6,63,30
0.10000000000002274,1197,7,63,30
0.09999999999999432,1197,8,63,25
0.09999999999999432,1197,9,63,28
0.09999999999999432,1197,10,63,32
0.10000000000002274,1197,11,63,32
0.09999999999999432,1197,12,63,36
0.09999999999999432,1197,13,63,43
0.09999999999999432,1197,14,63,35
0.09999999999999432,1197,15,63,39
0.09999999999999432,1198,0,63,43
0.09999999999999432,1198,1,63,44
0.09999999999999432,1198,2,63,45
0.09999999999999432,1198,3,63,33
0.09999999999999432,1198,4,63,23
0.09999999999999432,1198,5,63,34
0.10000000000002274,1198,6,63,35
0.09999999999999432,1198,7,63,26
0.10000000000002274,1198,8,63,39
0.09999999999999432,1198,9,63,27
0.10000000000002274,1198,10,63,36
0.09999999999999432,1198,11,63,34
0.10000000000002274,1198,12,63,37
0.09999999999999432,1198,13,63,22
0.09999999999999432,1198,14,63,23
0.09999999999999432,1198,15,63,30
0.09999999999999432,1199,0,63,43
0.09999999999999432,1199,1,63,36
0.09999999999999432,1199,2,63,22
0.10000000000002274,1199,3,63,22
0.09999999999999432,1199,4,63,27
0.10000000000002274,1199,5,63,29
0.09999999999999432,1199,6,63,30
0.09999999999999432,1199,7,63,24
0.09999999999999432,1199,8,63,32
0.10000000000002274,1199,9,63,24
0.09999999999999432,1199,10,63,19
0.10000000000002274,1199,11,63,35
0.09999999999999432,1199,12,63,16
0.09999999999999432,1199,13,63,15
0.09999999999999432,1199,14,63,19
0.09999999999999432,1199,15,63,30
0.10000000000002274,1200,0,63,29
0.09999999999999432,1200,1,63,25
0.09999999999999432,1200,2,63,24
0.09999999999999432,1200,3,63,23
0.09999999999999432,1200,4,63,29
0.09999999999999432,1200,5,63,39
0.10000000000002274,1200,6,63,37
0.09999999999999432,1200,7,63,22
0.09999999999999432,1200,8,63,35
0.09999999999999432,1200,9,63,37
0.09999999999999432,1200,10,63,44
0.09999999999999432,1200,11,63,25
0.10000000000002274,1200,12,63,19
0.09999999999999432,1200,13,63,24
0.09999999999999432,1200,14,63,26
0.09999999999999432,1200,15,63,25
0.09999999999999432,1201,0,63,37
0.09999999999999432,1201,1,63,22
0.09999999999999432,1201,2,63,26
0.09999999999999432,1201,3,63,25
0.09999999999999432,1201,4,63,29
0.09999999999999432,1201,5,63,28
0.09999999999999432,1201,6,63,24
0.10000000000002274,1201,7,63,27
0.09999999999999432,1201,8,63,25
0.09999999999999432,1201,9,63,29
0.10000000000002274,1201,10,63,24
0.09999999999999432,1201,11,63,34
0.10000000000002274,1201,12,63,29
0.09999999999999432,1201,13,63,12
0.09999999999999432,1201,14,63,17
0.09999999999999432,1201,15,63,10
0.09999999999999432,1202,0,63,9
0.09999999999999432,1202,1,63,17
0.09999999999999432,1202,2,63,18
0.09999999999999432,1202,3,63,16
0.09999999999999432,1202,4,63,14
0.09999999999999432,1202,5,63,12
0.09999999999999432,1202,6,63,12
0.10000000000002274,1202,7,63,19
0.09999999999999432,1202,8,63,16
0.09999999999999432,1202,9,63,14
0.09999999999999432,1202,10,63,14
0.09999999999999432,1202,11,63,22
0.09999999999999432,1202,12,63,20
0.09999999999999432,1202,13,63,20
0.09999999999999432,1202,14,63,17
0.09999999999999432,1202,15,63,27
0.09999999999999432,1203,0,63,22
0.09999999999999432,1203,1,63,21
0.09999999999999432,1203,2,63,23
0.09999999999999432,1203,3,63,18
0.09999999999999432,1203,4,63,18
0.09999999999999432,1203,5,63,15
0.09999999999999432,1203,6,63,14
0.09999999999999432,1203,7,63,16
0.09999999999999432,1203,8,63,25
0.09999999999999432,1203,9,63,26
0.10000000000002274,1203,10,63,23
0.09999999999999432,1203,11,63,23
0.09999999999999432,1203,12,63,21
0.09999999999999432,1203,13,63,12
0.10000000000002274,1203,14,63,18
0.09999999999999432,1203,15,63,10
0.10000000000002274,1204,0,63,7
0.09999999999999432,1204,1,63,9
0.10000000000002274,1204,2,63,12
0.09999999999999432,1204,3,63,15
0.09999999999999432,1204,4,63,14
0.09999999999999432,1204,5,63,10
0.09999999999999432,1204,6,63,12
0.09999999999999432,1204,7,63,17
0.09999999999999432,1204,8,63,13
0.09999999999999432,1204,9,63,14
0.09999999999999432,1204,10,63,15
0.09999999999999432,1204,11,63,16
0.10000000000002274,1204,12,63,16
0.09999999999999432,1204,13,63,14
0.09999999999999432,1204,14,63,13
0.09999999999999432,1204,15,63,15
0.09999999999999432,1205,0,63,14
0.09999999999999432,1205,1,63,11
0.09999999999999432,1205,2,63,13
0.09999999999999432,1205,3,63,14
0.09999999999999432,1205,4,63,17
0.09999999999999432,1205,5,63,10
0.09999999999999432,1205,6,63,11
0.09999999999999432,1205,7,63,11
0.09999999999999432,1205,8,63,14
0.09999999999999432,1205,9,63,10
0.09999999999999432,1205,10,63,13
0.09999999999999432,1205,11,63,15
0.10000000000002274,1205,12,63,18
0.09999999999999432,1205,13,63,12
0.09999999999999432,1205,14,63,15
0.09999999999999432,1205,15,63,13
0.09999999999999432,1206,0,63,14
0.10000000000002274,1206,1,63,13
0.09999999999999432,1206,2,63,12
0.09999999999999432,1206,3,63,13
0.09999999999999432,1206,4,63,15
0.09999999999999432,1206,5,63,11
0.10000000000002274,1206,6,63,11
0.09999999999999432,1206,7,63,12
0.10000000000002274,1206,8,63,13
0.09999999999999432,1206,9,63,10
0.09999999999999432,1206,10,63,15
0.10000000000002274,1206,11,63,15
0.09999999999999432,1206,12,63,18
0.09999999999999432,1206,13,63,13
0.10000000000002274,1206,14,63,11
0.09999999999999432,1206,15,63,12
0.09999999999999432,1207,0,63,14
0.09999999999999432,1207,1,63,16
0.09999999999999432,1207,2,63,15
0.10000000000002274,1207,3,63,13
0.09999999999999432,1207,4,63,11
0.09999999999999432,1207,5,63,21
0.09999999999999432,1207,6,63,21
0.09999999999999432,1207,7,63,15
0.09999999999999432,1207,8,63,19
0.10000000000002274,1207,9,63,17
0.09999999999999432,1207,10,63,14
0.09999999999999432,1207,11,63,13
0.10000000000002274,1207,12,63,14
0.09999999999999432,1207,13,63,13
0.09999999999999432,1207,14,63,12
0.09999999999999432,1207,15,63,14
0.09999999999999432,1208,0,63,15
0.09999999999999432,1208,1,63,15
0.09999999999999432,1208,2,63,12
0.09999999999999432,1208,3,63,12
0.10000000000002274,1208,4,63,12
0.09999999999999432,1208,5,63,16
0.09999999999999432,1208,6,63,15
0.09999999999999432,1208,7,63,12
0.09999999999999432,1208,8,63,12
0.09999999999999432,1208,9,63,15
0.09999999999999432,1208,10,63,16
0.10000000000002274,1208,11,63,16
0.09999999999999432,1208,12,63,14
0.09999999999999432,1208,13,63,11
0.09999999999999432,1208,14,63,13
0.09999999999999432,1208,15,63,12
0.09999999999999432,1209,0,63,14
0.10000000000002274,1209,1,63,13
0.09999999999999432,1209,2,63,12
0.09999999999999432,1209,3,63,12
0.10000000000002274,1209,4,63,12
0.09999999999999432,1209,5,63,15
0.09999999999999432,1209,6,63,12
0.09999999999999432,1209,7,63,10
0.09999999999999432,1209,8,63,11
0.10000000000002274,1209,9,63,15
0.10000000000002274,1209,10,63,13
0.09999999999999432,1209,11,63,12
0.09999999999999432,1209,12,63,13
0.09999999999999432,1209,13,63,17
0.09999999999999432,1209,14,63,14
0.09999999999999432,1209,15,63,14
0.09999999999999432,1210,0,63,17
0.09999999999999432,1210,1,63,18
0.09999999999999432,1210,2,63,12
0.10000000000002274,1210,3,63,15
0.09999999999999432,1210,4,63,17
0.09999999999999432,1210,5,63,16
0.09999999999999432,1210,6,63,12
0.09999999999999432,1210,7,63,15
0.09999999999999432,1210,8,63,15
0.10000000000002274,1210,9,63,12
0.09999999999999432,1210,10,63,13
0.10000000000002274,1210,11,63,13
0.09999999999999432,1210,12,63,14
0.09999999999999432,1210,13,63,14
0.09999999999999432,1210,14,63,12
0.10000000000002274,1210,15,63,22
0.09999999999999432,1211,0,63,7
0.10000000000002274,1211,1,63,9
0.09999999999999432,1211,2,63,10
0.10000000000002274,1211,3,63,7
0.09999999999999432,1211,4,63,11
0.09999999999999432,1211,5,63,10
0.09999999999999432,1211,6,63,9
0.09999999999999432,1211,7,63,5
0.10000000000002274,1211,8,63,8
0.09999999999999432,1211,9,63,5
0.10000000000002274,1211,10,63,10
0.09999999999999432,1211,11,63,7
0.09999999999999432,1211,12,63,9
0.09999999999999432,1211,13,63,13
0.09999999999999432,1211,14,63,7
0.09999999999999432,1211,15,63,12
0.10000000000002274,1212,0,63,10
0.09999999999999432,1212,1,63,12
0.10000000000002274,1212,2,63,8
0.09999999999999432,1212,3,63,6
0.09999999999999432,1212,4,63,7
0.10000000000002274,1212,5,63,9
0.10000000000002274,1212,6,63,13
0.09999999999999432,1212,7,63,10
0.09999999999999432,1212,8,63,8
0.09999999999999432,1212,9,63,10
0.09999999999999432,1212,10,63,12
0.09999999999999432,1212,11,63,7
0.09999999999999432,1212,12,63,14
0.09999999999999432,1212,13,63,10
0.09999999999999432,1212,14,63,7
0.09999999999999432,1212,15,63,8
0.09999999999999432,1213,0,63,6
0.09999999999999432,1213,1,63,11
0.10000000000002274,1213,2,63,7
0.09999999999999432,1213,3,63,10
0.09999999999999432,1213,4,63,13
0.09999999999999432,1213,5,63,6
0.09999999999999432,1213,6,63,11
0.10000000000002274,1213,7,63,8
0.09999999999999432,1213,8,63,8
0.09999999999999432,1213,9,63,7
0.09999999999999432,1213,10,63,10
0.09999999999999432,1213,11,63,13
0.10000000000002274,1213,12,63,7
0.09999999999999432,1213,13,63,12
0.09999999999999432,1213,14,63,13
0.10000000000002274,1213,15,63,10
0.09999999999999432,1214,0,63,5
0.10000000000002274,1214,1,63,8
0.09999999999999432,1214,2,63,6
0.10000000000002274,1214,3,63,9
0.09999999999999432,1214,4,63,7
0.09999999999999432,1214,5,63,9
0.09999999999999432,1214,6,63,11
0.09999999999999432,1214,7,63,7
0.09999999999999432,1214,8,63,8
0.09999999999999432,1214,9,63,6
0.09999999999999432,1214,10,63,12
0.09999999999999432,1214,11,63,8
0.09999999999999432,1214,12,63,6
0.09999999999999432,1214,13,63,9
0.10000000000002274,1214,14,63,10
0.09999999999999432,1214,15,63,14
0.09999999999999432,1215,0,63,10
0.10000000000002274,1215,1,63,8
0.09999999999999432,1215,2,63,10
0.09999999999999432,1215,3,63,11
0.09999999999999432,1215,4,63,7
0.09999999999999432,1215,5,63,14
0.10000000000002274,1215,6,63,14
0.09999999999999432,1215,7,63,11
0.09999999999999432,1215,8,63,7
0.09999999999999432,1215,9,63,9
0.09999999999999432,1215,10,63,4
0.09999999999999432,1215,11,63,49
0.09999999999999432,1215,12,63,74
0.09999999999999432,1215,13,63,85
0.09999999999999432,1215,14,63,77
0.09999999999999432,1215,15,63,67
0.09999999999999432,1216,0,63,62
0.09999999999999432,1216,1,63,65
0.09999999999999432,1216,2,63,55
0.09999999999999432,1216,3,63,53
0.10000000000002274,1216,4,63,41
0.09999999999999432,1216,5,63,52
0.09999999999999432,1216,6,63,35
0.10000000000002274,1216,7,63,46
0.10000000000002274,1216,8,63,49
0.09999999999999432,1216,9,63,50
0.10000000000002274,1216,10,63,47
0.09999999999999432,1216,11,63,69
0.09999999999999432,1216,12,63,65
0.09999999999999432,1216,13,63,61
0.10000000000002274,1216,14,63,42
0.09999999999999432,1216,15,63,46
0.09999999999999432,1217,0,63,50
0.09999999999999432,1217,1,63,75
0.10000000000002274,1217,2,63,81
0.09999999999999432,1217,3,63,74
0.09999999999999432,1217,4,63,65
0.09999999999999432,1217,5,63,48
0.09999999999999432,1217,6,63,57
0.09999999999999432,1217,7,63,61
0.09999999999999432,1217,8,63,65
0.10000000000002274,1217,9,63,56
0.09999999999999432,1217,10,63,49
0.09999999999999432,1217,11,63,28
0.09999999999999432,1217,12,63,45
0.09999999999999432,1217,13,63,51
0.09999999999999432,1217,14,63,36
0.09999999999999432,1217,15,63,46
0.10000000000002274,1218,0,63,43
0.09999999999999432,1218,1,63,49
0.10000000000002274,1218,2,63,64
0.09999999999999432,1218,3,63,60
0.10000000000002274,1218,4,63,61
0.09999999999999432,1218,5,63,51
0.09999999999999432,1218,6,63,42
0.09999999999999432,1218,7,63,49
0.09999999999999432,1218,8,63,34
0.09999999999999432,1218,9,63,37
0.09999999999999432,1218,10,63,64
0.09999999999999432,1218,11,63,46
0.09999999999999432,1218,12,63,41
0.09999999999999432,1218,13,63,46
0.09999999999999432,1218,14,63,44
0.10000000000002274,1218,15,63,41
0.09999999999999432,1219,0,63,43
0.09999999999999432,1219,1,63,35
0.09999999999999432,1219,2,63,47
0.09999999999999432,1219,3,63,45
0.09999999999999432,1219,4,63,52
0.10000000000002274,1219,5,63,67
0.09999999999999432,1219,6,63,74
0.09999999999999432,1219,7,63,44
0.09999999999999432,1219,8,63,58
0.09999999999999432,1219,9,63,50
0.10000000000002274,1219,10,63,68
0.09999999999999432,1219,11,63,47
0.10000000000002274,1219,12,63,44
0.09999999999999432,1219,13,63,37
0.09999999999999432,1219,14,63,40
0.09999999999999432,1219,15,63,39
0.09999999999999432,1220,0,63,45
0.09999999999999432,1220,1,63,64
0.10000000000002274,1220,2,63,51
0.10000000000002274,1220,3,63,40
0.09999999999999432,1220,4,63,42
0.10000000000002274,1220,5,63,31
0.09999999999999432,1220,6,63,33
0.09999999999999432,1220,7,63,31
0.10000000000002274,1220,8,63,38
0.09999999999999432,1220,9,63,33
0.10000000000002274,1220,10,63,39
0.09999999999999432,1220,11,63,32
0.09999999999999432,1220,12,63,35
0.09999999999999432,1220,13,63,25
0.09999999999999432,1220,14,63,32
0.09999999999999432,1220,15,63,39
0.09999999999999432,1221,0,63,33
0.09999999999999432,1221,1,63,32
0.09999999999999432,1221,2,63,32
0.09999999999999432,1221,3,63,39
0.09999999999999432,1221,4,63,34
0.09999999999999432,1221,5,63,37
0.09999999999999432,1221,6,63,32
0.09999999999999432,1221,7,63,30
0.10000000000002274,1221,8,63,39
0.09999999999999432,1221,9,63,50
0.10000000000002274,1221,10,63,32
0.09999999999999432,1221,11,63,31
0.09999999999999432,1221,12,63,28
0.09999999999999432,1221,13,63,38
0.09999999999999432,1221,14,63,42
0.09999999999999432,1221,15,63,31
0.10000000000002274,1222,0,63,26
0.09999999999999432,1222,1,63,27
0.09999999999999432,1222,2,63,28
0.09999999999999432,1222,3,63,47
0.09999999999999432,1222,4,63,56
0.09999999999999432,1222,5,63,37
0.09999999999999432,1222,6,63,31
0.09999999999999432,1222,7,63,30
0.09999999999999432,1222,8,63,28
0.10000000000002274,1222,9,63,33
0.09999999999999432,1222,10,63,24
0.09999999999999432,1222,11,63,38
0.10000000000002274,1222,12,63,26
0.09999999999999432,1222,13,63,46
0.09999999999999432,1222,14,63,44
0.10000000000002274,1222,15,63,43
0.09999999999999432,1223,0,63,32
0.10000000000002274,1223,1,63,40
0.09999999999999432,1223,2,63,44
0.09999999999999432,1223,3,63,48
0.09999999999999432,1223,4,63,29
0.10000000000002274,1223,5,63,40
0.09999999999999432,1223,6,63,38
0.09999999999999432,1223,7,63,32
0.09999999999999432,1223,8,63,37
0.09999999999999432,1223,9,63,52
0.09999999999999432,1223,10,63,48
0.09999999999999432,1223,11,63,65
0.10000000000002274,1223,12,63,47
0.09999999999999432,1223,13,63,38
0.10000000000002274,1223,14,63,62
0.09999999999999432,1223,15,63,47
0.06818181818181301,1224,0,63,42
0.09999999999999432,1224,1,63,57
0.09999999999999432,1224,2,63,48
0.09999999999999432,1224,3,63,37
0.09999999999999432,1224,4,63,43
0.09999999999999432,1224,5,63,65
0.09999999999999432,1224,6,63,55
0.10000000000002274,1224,7,63,50
0.09999999999999432,1224,8,63,52
0.09999999999999432,1224,9,63,64
0.09999999999999432,1224,10,63,53
0.09999999999999432,1224,11,63,41
0.09999999999999432,1224,12,63,41
0.09999999999999432,1224,13,63,41
0.10000000000002274,1224,14,63,48
0.09999999999999432,1224,15,63,41
0.09999999999999432,1225,0,63,32
0.09999999999999432,1225,1,63,33
0.09999999999999432,1225,2,63,59
0.09999999999999432,1225,3,63,50
0.09999999999999432,1225,4,63,49
0.09999999999999432,1225,5,63,62
0.09999999999999432,1225,6,63,50
0.09999999999999432,1225,7,63,41
0.09999999999999432,1225,8,63,58
0.09999999999999432,1225,9,63,54
0.09999999999999787,1225,10,60,1
0.10000000000000142,1225,11,60,1
0.10000000000000142,1225,12,60,1
0.06818181818182012,1225,13,60,1
0.0022727272727287584,1225,14,60,1
0.10000000000000142,1225,15,60,1
0.10000000000000142,1226,0,60,1
0.013636363636365445,1226,1,60,1
0.10000000000000142,1226,2,60,1
0.06818181818182012,1226,3,60,1
0.0022727272727287584,1226,4,60,1
0.027272727272727337,1226,5,60,1
0.05681818181817988,1226,6,60,1
0.036363636363635266,1226,7,60,1
0.0022727272727287584,1226,8,60,1
0.027272727272727337,1226,9,60,1
0.09999999999999787,1226,10,60,1
0.004545454545453964,1226,11,60,1
0.09999999999999787,1226,12,60,1
0.036363636363635266,1226,13,60,1
0.10000000000000142,1226,14,60,1
0.05681818181818343,1226,15,60,1
0.02500000000000213,1227,0,60,1
0.01590909090909065,1227,1,60,1
0.02499999999999858,1227,2,60,1
0.05681818181818343,1227,3,60,1
0.10000000000000142,1227,4,60,1
0.04772727272727195,1227,5,60,1
0.004545454545453964,1227,6,60,1
0.013636363636365445,1227,7,60,1
0.04772727272727195,1227,8,60,1
0.10000000000000142,1227,9,60,1
0.05681818181818343,1227,10,60,1
0.004545454545453964,1227,11,60,1
0.045454545454543194,1227,12,60,1
0.02499999999999858,1227,13,60,1
0.05681818181818343,1227,14,60,1
0.004545454545457517,1227,15,60,1
0.045454545454546746,1228,0,60,1
0.04772727272727195,1228,1,60,1
0.004545454545453964,1228,2,60,1
0.013636363636361892,1228,3,60,1
0.02499999999999858,1228,4,60,1
0.10000000000000142,1228,5,60,1
0.05909090909090864,1228,6,60,1
0.027272727272727337,1228,7,60,1
0.02499999999999858,1228,8,60,1
0.10000000000000142,1228,9,60,1
0.09999999999999787,1228,10,60,1
0.036363636363635266,1228,11,60,1
0.004545454545453964,1228,12,60,1
0.013636363636365445,1228,13,60,1
0.036363636363635266,1228,14,60,1
0.004545454545453964,1228,15,60,1
0.06818181818182012,1229,0,60,1
0.02500000000000213,1229,1,60,1
0.09999999999999787,1229,2,60,1
0.01590909090909065,1229,3,60,1
0.05681818181818343,1229,4,60,1
0.036363636363635266,1229,5,60,1
0.036363636363635266,1229,6,60,1
0.10000000000000142,1229,7,60,1
0.09999999999999787,1229,8,60,1
0.04772727272727195,1229,9,60,1
0.004545454545453964,1229,10,60,1
0.09999999999999787,1229,11,60,1
0.10000000000000142,1229,12,60,1
0.03636363636363882,1229,13,60,1
0.01590909090909065,1229,14,60,1
0.10000000000000142,1229,15,60,1
0.09999999999999787,1230,0,60,1
0.09999999999999787,1230,1,60,1
0.09999999999999787,1230,2,60,1
0.05681818181817988,1230,3,60,1
0.02500000000000213,1230,4,60,1
0.027272727272727337,1230,5,60,1
0.05681818181817988,1230,6,60,1
0.02499999999999858,1230,7,60,1
0.10000000000000142,1230,8,60,1
0.09999999999999787,1230,9,60,1
0.09999999999999787,1230,10,60,1
0.013636363636361892,1230,11,60,1
0.10000000000000142,1230,12,60,1
0.02499999999999858,1230,13,60,1
0.09999999999999787,1230,14,60,1
0.05681818181817988,1230,15,60,1
0.10000000000000142,1231,0,60,1
0.10000000000000142,1231,1,60,1
0.10000000000000142,1231,2,60,1
0.10000000000000142,1231,3,60,1
0.09999999999999787,1231,4,60,1
0.10000000000000142,1231,5,60,1
0.10000000000000142,1231,6,60,1
0.09999999999999432,1231,7,60,1
0.10000000000000142,1231,8,60,1
0.09999999999999432,1231,9,60,1
0.09999999999999432,1231,10,60,1
0.09999999999999432,1231,11,60,1
0.09999999999999432,1231,12,60,1
0.09999999999999432,1231,13,60,1
0.09999999999999432,1231,14,60,1
0.06818181818181301,1231,15,60,1
0.09999999999999432,1232,0,60,1
0.09999999999999432,1232,1,60,1
0.09999999999999432,1232,2,60,1
0.09999999999999432,1232,3,60,1
0.09999999999999432,1232,4,60,1
0.09999999999999432,1232,5,60,1
0.02727272727273089,1232,6,60,1
0.045454545454532536,1232,7,60,1
0.10000000000002274,1232,8,60,1
0.09999999999999432,1232,9,60,1
0.09999999999999432,1232,10,60,1
0.09999999999999432,1232,11,60,1
0.056818181818186986,1232,12,60,1
0.10000000000002274,1232,13,60,1
0.10000000000002274,1232,14,60,1
0.09999999999999432,1232,15,60,1
0.10000000000002274,1233,0,60,1
0.09999999999999432,1233,1,60,1
0.09999999999999432,1233,2,60,1
0.09999999999999432,1233,3,60,1
0.024999999999977263,1233,4,60,1
0.10000000000002274,1233,5,60,1
0.10000000000002274,1233,6,60,1
0.09999999999999432,1233,7,60,1
0.09999999999999432,1233,8,60,1
0.03636363636363171,1233,9,60,1
0.09999999999999432,1233,10,60,1
0.09999999999999432,1233,11,60,1
0.09999999999999432,1233,12,60,1
0.10000000000002274,1233,13,60,1
0.09999999999999432,1233,14,60,1
0.09999999999999432,1233,15,60,1
0.025000000000005684,1234,0,60,1
0.04772727272725774,1234,1,60,1
0.025000000000005684,1234,2,60,1
0.03636363636363171,1234,3,60,1
0.10000000000002274,1234,4,60,1
0.10000000000002274,1234,5,60,1
0.09999999999999432,1234,6,60,1
0.056818181818186986,1234,7,60,1
0.013636363636379656,1234,8,60,1
0.09999999999999432,1234,9,60,1
0.10000000000002274,1234,10,60,1
0.09999999999999432,1234,11,60,1
0.09999999999999432,1234,12,60,1
0.09999999999999432,1234,13,60,1
0.09999999999999432,1234,14,60,1
0.09999999999999432,1234,15,60,1
0.024999999999977263,1235,0,60,1
0.03636363636363171,1235,1,60,1
0.09999999999999432,1235,2,60,1
0.09999999999999432,1235,3,60,1
0.09999999999999432,1235,4,60,1
0.09999999999999432,1235,5,60,1
0.09999999999999432,1235,6,60,1
0.10000000000002274,1235,7,60,1
0.09999999999999432,1235,8,60,1
0.09999999999999432,1235,9,60,1
0.056818181818186986,1235,10,60,1
0.09999999999999432,1235,11,60,1
0.10000000000002274,1235,12,60,1
0.10000000000002274,1235,13,60,1
0.09999999999999432,1235,14,60,1
0.09999999999999432,1235,15,60,1
0.10000000000002274,1236,0,60,1
0.025000000000005684,1236,1,60,1
0.09999999999999432,1236,2,60,1
0.01590909090907644,1236,3,60,1
0.056818181818186986,1236,4,60,1
0.09999999999999432,1236,5,60,1
0.06818181818181301,1236,6,60,1
0.09999999999999432,1236,7,60,1
0.06818181818181301,1236,8,60,1
0.013636363636351234,1236,9,60,1
0.056818181818186986,1236,10,60,1
0.09999999999999432,1236,11,60,1
0.09999999999999432,1236,12,60,1
0.06818181818181301,1236,13,60,1
0.004545454545450411,1236,14,60,1
0.09999999999999432,1236,15,60,1
0.10000000000002274,1237,0,60,1
0.04772727272728616,1237,1,60,1
0.09999999999999432,1237,2,60,1
0.09999999999999432,1237,3,60,1
0.05909090909091219,1237,4,60,1
0.10000000000002274,1237,5,60,1
0.09999999999999432,1237,6,60,1
0.09999999999999432,1237,7,60,1
0.025000000000005684,1237,8,60,1
0.09999999999999432,1237,9,60,1
0.056818181818186986,1237,10,60,1
0.09999999999999432,1237,11,60,1
0.024999999999977263,1237,12,60,1
0.03636363636363171,1237,13,60,1
0.09999999999999432,1237,14,60,1
0.09999999999999432,1237,15,60,1
0.10000000000002274,1238,0,60,1
0.06818181818184144,1238,1,60,1
0.09999999999999432,1238,2,60,1
0.09999999999999432,1238,3,60,1
0.09999999999999432,1238,4,60,1
0.10000000000002274,1238,5,60,1
0.09999999999999432,1238,6,60,1
0.10000000000002274,1238,7,60,1
0.09999999999999432,1238,8,60,1
0.10000000000002274,1238,9,60,1
0.09999999999999432,1238,10,60,1
0.10000000000002274,1238,11,60,1
0.06818181818184144,1238,12,60,1
0.013636363636379656,1238,13,60,1
0.09999999999999432,1238,14,60,1
0.09999999999999432,1238,15,60,1
0.06818181818181301,1239,0,60,1
0.013636363636351234,1239,1,60,1
0.09999999999999432,1239,2,60,1
0.06818181818181301,1239,3,60,1
0.09999999999999432,1239,4,60,1
0.09999999999999432,1239,5,60,1
0.09999999999999432,1239,6,60,1
0.09999999999999432,1239,7,60,1
0.09999999999999432,1239,8,60,1
0.09999999999999432,1239,9,60,1
0.024999999999977263,1239,10,60,1
0.09999999999999432,1239,11,60,1
0.09999999999999432,1239,12,60,1
0.09999999999999432,1239,13,60,1
0.06818181818181301,1239,14,60,1
0.10000000000002274,1239,15,60,1
0.09999999999999432,1240,0,60,3
0.09999999999999432,1240,1,60,5
0.09999999999999432,1240,2,60,3
0.09999999999999432,1240,3,60,3
0.09999999999999432,1240,4,60,4
0.09999999999999432,1240,5,60,6
0.09999999999999432,1240,6,60,8
0.09999999999999432,1240,7,60,3
0.09999999999999432,1240,8,60,3
0.10000000000002274,1240,9,60,2
0.056818181818186986,1240,10,60,2
0.09999999999999432,1240,11,60,1
0.09999999999999432,1240,12,60,4
0.09999999999999432,1240,13,60,3
0.09999999999999432,1240,14,60,2
0.09999999999999432,1240,15,60,4
0.10000000000002274,1241,0,60,5
0.09999999999999432,1241,1,60,8
0.09999999999999432,1241,2,60,1
0.09999999999999432,1241,3,60,3
0.09999999999999432,1241,4,60,2
0.09999999999999432,1241,5,60,1
0.09999999999999432,1241,6,60,1
0.09999999999999432,1241,7,60,1
0.09999999999999432,1241,8,60,1
0.09999999999999432,1241,9,60,1
0.10000000000002274,1241,10,60,1
0.10000000000000009,1241,11,64,8
0.09999999999999987,1241,12,64,1
0.10000000000000009,1241,13,64,4
0.10000000000000009,1241,14,64,2
0.10000000000000009,1241,15,64,37
0.09999999999999964,1242,0,64,2
0.09999999999999964,1242,1,64,7
0.10000000000000009,1242,2,64,6
0.09999999999999964,1242,3,64,6
0.10000000000000009,1242,4,64,1
0.10000000000000009,1242,5,64,5
0.10000000000000009,1242,6,64,5
0.10000000000000009,1242,7,64,38
0.10000000000000009,1242,8,64,2
0.10000000000000009,1242,9,64,7
0.10000000000000009,1242,10,64,6
0.09999999999999964,1242,11,64,7
0.10000000000000053,1242,12,64,1
0.10000000000000053,1242,13,64,5
0.10000000000000053,1242,14,64,5
0.10000000000000053,1242,15,64,38
0.09999999999999964,1243,0,64,2
0.09999999999999964,1243,1,64,7
0.09999999999999964,1243,2,64,8
0.09999999999999964,1243,3,64,7
0.10000000000000053,1243,4,64,1
0.10000000000000053,1243,5,64,6
0.09999999999999964,1243,6,64,5
0.09999999999999964,1243,7,64,38
0.09999999999999964,1243,8,64,2
0.09999999999999964,1243,9,64,3
0.09999999999999964,1243,10,64,6
0.10000000000000053,1243,11,64,7
0.09999999999999964,1243,12,64,1
0.09999999999999964,1243,13,64,5
0.10000000000000053,1243,14,64,5
0.09999999999999964,1243,15,64,38
0.10000000000000053,1244,0,64,2
0.10000000000000053,1244,1,64,7
0.09999999999999964,1244,2,64,6
0.09999999999999964,1244,3,64,7
0.09999999999999964,1244,4,64,1
0.09999999999999964,1244,5,64,6
0.09999999999999964,1244,6,64,5
0.09999999999999964,1244,7,64,36
0.09999999999999964,1244,8,64,2
0.09999999999999964,1244,9,64,7
0.09999999999999964,1244,10,64,7
0.09999999999999964,1244,11,64,8
0.09999999999999964,1244,12,64,1
0.09999999999999964,1244,13,64,5
0.09999999999999964,1244,14,64,5
0.09999999999999964,1244,15,64,38
0.09999999999999964,1245,0,64,2
0.09999999999999964,1245,1,64,8
0.09999999999999964,1245,2,64,7
0.09999999999999964,1245,3,64,8
0.09999999999999964,1245,4,64,1
0.09999999999999964,1245,5,64,2
0.09999999999999964,1245,6,64,5
0.09999999999999964,1245,7,64,36
0.10000000000000142,1245,8,64,2
0.09999999999999964,1245,9,64,7
0.10000000000000142,1245,10,64,6
0.09999999999999964,1245,11,64,6
0.09999999999999964,1245,12,64,1
0.09999999999999964,1245,13,64,5
0.09999999999999964,1245,14,64,4
0.09999999999999964,1245,15,64,33
0.09999999999999964,1246,0,64,1
0.09999999999999964,1246,1,64,5
0.09999999999999964,1246,2,64,4
0.09999999999999964,1246,3,64,5
0.09999999999999964,1246,4,64,1
0.10000000000000142,1246,5,64,5
0.09999999999999964,1246,6,64,4
0.09999999999999964,1246,7,64,34
0.09999999999999964,1246,8,64,1
0.09999999999999964,1246,9,64,5
0.10000000000000142,1246,10,64,4
0.10000000000000142,1246,11,64,5
0.09999999999999964,1246,12,64,1
0.09999999999999964,1246,13,64,4
0.09999999999999964,1246,14,64,4
0.09999999999999964,1246,15,64,34
0.10000000000000142,1247,0,64,5
0.09999999999999964,1247,1,64,5
0.09999999999999964,1247,2,64,5
0.09999999999999964,1247,3,64,1
0.09999999999999964,1247,4,64,5
0.09999999999999964,1247,5,64,3
0.10000000000000142,1247,6,64,33
0.09999999999999964,1247,7,64,1
0.09999999999999964,1247,8,64,5
0.09999999999999964,1247,9,64,4
0.09999999999999964,1247,10,64,6
0.10000000000000142,1247,11,64,1
0.10000000000000142,1247,12,64,5
0.10000000000000142,1247,13,64,4
0.09999999999999787,1247,14,64,32
0.09999999999999787,1247,15,64,1
0.10000000000000142,1248,0,64,5
0.09999999999999787,1248,1,64,4
0.10000000000000142,1248,2,64,6
0.10000000000000142,1248,3,64,1
0.10000000000000142,1248,4,64,5
0.09999999999999787,1248,5,64,4
0.10000000000000142,1248,6,64,33
0.09999999999999787,1248,7,64,5
0.10000000000000142,1248,8,64,4
0.10000000000000142,1248,9,64,4
0.09999999999999787,1248,10,64,1
0.10000000000000142,1248,11,64,4
0.09999999999999787,1248,12,64,4
0.10000000000000142,1248,13,64,31
0.10000000000000142,1248,14,64,5
0.09999999999999787,1248,15,64,4
0.10000000000000142,1249,0,64,6
0.10000000000000142,1249,1,64,1
0.09999999999999787,1249,2,64,5
0.10000000000000142,1249,3,64,3
0.10000000000000142,1249,4,64,37
0.10000000000000142,1249,5,64,5
0.10000000000000142,1249,6,64,4
0.09999999999999787,1249,7,64,4
0.10000000000000142,1249,8,64,1
0.10000000000000142,1249,9,64,4
0.10000000000000142,1249,10,64,3
0.09999999999999787,1249,11,64,31
0.10000000000000142,1249,12,64,3
0.09999999999999787,1249,13,64,5
0.10000000000000142,1249,14,64,4
0.10000000000000142,1249,15,64,4
0.10000000000000142,1250,0,64,1
0.09999999999999787,1250,1,64,5
0.10000000000000142,1250,2,64,4
0.09999999999999787,1250,3,64,27
0.10000000000000142,1250,4,64,2
0.09999999999999787,1250,5,64,5
0.10000000000000142,1250,6,64,5
0.09999999999999787,1250,7,64,4
0.10000000000000142,1250,8,64,1
0.09999999999999787,1250,9,64,5
0.10000000000000142,1250,10,64,4
0.09999999999999787,1250,11,64,31
0.10000000000000142,1250,12,64,2
0.09999999999999787,1250,13,64,6
0.10000000000000142,1250,14,64,5
0.09999999999999787,1250,15,64,4
0.10000000000000142,1251,0,64,1
0.10000000000000142,1251,1,64,5
0.10000000000000142,1251,2,64,4
0.09999999999999787,1251,3,64,33
0.10000000000000142,1251,4,64,3
0.09999999999999787,1251,5,64,5
0.10000000000000142,1251,6,64,5
0.09999999999999787,1251,7,64,4
0.10000000000000142,1251,8,64,1
0.09999999999999787,1251,9,64,5
0.09999999999999787,1251,10,64,3
0.10000000000000142,1251,11,64,29
0.10000000000000142,1251,12,64,2
0.09999999999999787,1251,13,64,5
0.10000000000000142,1251,14,64,3
0.09999999999999787,1251,15,64,3
0.10000000000000142,1252,0,64,1
0.10000000000000142,1252,1,64,5
0.10000000000000142,1252,2,64,4
0.09999999999999787,1252,3,64,30
0.09999999999999787,1252,4,64,2
0.10000000000000142,1252,5,64,5
0.09999999999999787,1252,6,64,4
0.10000000000000142,1252,7,64,5
0.10000000000000142,1252,8,64,1
0.09999999999999787,1252,9,64,5
0.10000000000000142,1252,10,64,4
0.09999999999999787,1252,11,64,28
0.10000000000000142,1252,12,64,2
0.10000000000000142,1252,13,64,6
0.10000000000000142,1252,14,64,5
0.09999999999999787,1252,15,64,5
0.09999999999999787,1253,0,64,1
0.10000000000000142,1253,1,64,5
0.09999999999999787,1253,2,64,4
0.10000000000000142,1253,3,64,32
0.09999999999999787,1253,4,64,2
0.09999999999999787,1253,5,64,6
0.09999999999999787,1253,6,64,5
0.10000000000000142,1253,7,64,5
0.10000000000000142,1253,8,64,1
0.10000000000000142,1253,9,64,1
0.10000000000000142,1253,10,64,7
0.10000000000000142,1253,11,64,7
0.09999999999999787,1253,12,64,5
0.10000000000000142,1253,13,64,4
0.10000000000000142,1253,14,64,14
0.09999999999999432,1253,15,64,6
0.10000000000000142,1254,0,64,9
0.09999999999999432,1254,1,64,2
0.10000000000000142,1254,2,64,18
0.10000000000000142,1254,3,64,8
0.10000000000000142,1254,4,64,7
0.10000000000000142,1254,5,64,18
0.10000000000000142,1254,6,64,6
0.10000000000000142,1254,7,64,5
0.10000000000000142,1254,8,64,2
0.09999999999999432,1254,9,64,9
0.10000000000000142,1254,10,64,6
0.10000000000000142,1254,11,64,3
0.10000000000000142,1254,12,64,3
0.10000000000000142,1254,13,64,5
0.10000000000000142,1254,14,64,5
0.10000000000000142,1254,15,64,9
0.10000000000000142,1255,0,64,4
0.09999999999999432,1255,1,64,12
0.09999999999999432,1255,2,64,8
0.09999999999999432,1255,3,64,4
0.09999999999999432,1255,4,64,11
0.09999999999999432,1255,5,64,6
0.09999999999999432,1255,6,64,4
0.09999999999999432,1255,7,64,9
0.09999999999999432,1255,8,64,3
0.09999999999999432,1255,9,64,7
0.10000000000002274,1255,10,64,5
0.09999999999999432,1255,11,64,10
0.09999999999999432,1255,12,64,7
0.09999999999999432,1255,13,64,4
0.09999999999999432,1255,14,64,8
0.09999999999999432,1255,15,64,8
0.10000000000002274,1256,0,64,5
0.09999999999999432,1256,1,64,8
0.09999999999999432,1256,2,64,6
0.09999999999999432,1256,3,64,4
0.09999999999999432,1256,4,64,10
0.09999999999999432,1256,5,64,9
0.09999999999999432,1256,6,64,5
0.09999999999999432,1256,7,64,10
0.09999999999999432,1256,8,64,8
0.10000000000002274,1256,9,64,4
0.09999999999999432,1256,10,64,10
0.10000000000002274,1256,11,64,9
0.09999999999999432,1256,12,64,5
0.09999999999999432,1256,13,64,10
0.09999999999999432,1256,14,64,8
0.09999999999999432,1256,15,64,4
0.10000000000002274,1257,0,64,9
0.09999999999999432,1257,1,64,3
0.09999999999999432,1257,2,64,8
0.10000000000002274,1257,3,64,4
0.09999999999999432,1257,4,64,10
0.09999999999999432,1257,5,64,8
0.09999999999999432,1257,6,64,4
0.09999999999999432,1257,7,64,4
0.09999999999999432,1257,8,64,8
0.09999999999999432,1257,9,64,4
0.10000000000002274,1257,10,64,12
0.09999999999999432,1257,11,64,8
0.10000000000002274,1257,12,64,5
0.09999999999999432,1257,13,64,9
0.09999999999999432,1257,14,64,8
0.09999999999999432,1257,15,64,5
0.09999999999999432,1258,0,64,11
0.09999999999999432,1258,1,64,7
0.09999999999999432,1258,2,64,5
0.10000000000002274,1258,3,64,7
0.09999999999999432,1258,4,64,8
0.10000000000002274,1258,5,64,5
0.09999999999999432,1258,6,64,9
0.09999999999999432,1258,7,64,6
0.09999999999999432,1258,8,64,4
0.09999999999999432,1258,9,64,9
0.09999999999999432,1258,10,64,7
0.09999999999999432,1258,11,64,4
0.09999999999999432,1258,12,64,10
0.09999999999999432,1258,13,64,8
0.09999999999999432,1258,14,64,4
0.09999999999999432,1258,15,64,8
0.09999999999999432,1259,0,64,8
0.09999999999999432,1259,1,64,5
0.09999999999999432,1259,2,64,10
0.10000000000002274,1259,3,64,6
0.09999999999999432,1259,4,64,5
0.09999999999999432,1259,5,64,9
0.09999999999999432,1259,6,64,8
0.09999999999999432,1259,7,64,5
0.09999999999999432,1259,8,64,8
0.09999999999999432,1259,9,64,8
0.09999999999999432,1259,10,64,4
0.09999999999999432,1259,11,64,11
0.09999999999999432,1259,12,64,8
0.09999999999999432,1259,13,64,5
0.09999999999999432,1259,14,64,11
0.09999999999999432,1259,15,64,7
0.09999999999999432,1260,0,64,5
0.09999999999999432,1260,1,64,8
0.09999999999999432,1260,2,64,3
0.10000000000002274,1260,3,64,8
0.09999999999999432,1260,4,64,4
0.09999999999999432,1260,5,64,11
0.09999999999999432,1260,6,64,8
0.09999999999999432,1260,7,64,4
0.10000000000002274,1260,8,64,7
0.09999999999999787,1260,9,64,6
0.04772727272727195,1260,10,64,20
0.09999999999999787,1260,11,64,38
0.09999999999999787,1260,12,64,29
0.10000000000000142,1260,13,64,30
0.09999999999999787,1260,14,64,33
0.09999999999999787,1260,15,64,22
0.09999999999999787,1261,0,64,31
0.09999999999999432,1261,1,64,37
0.10000000000000142,1261,2,64,38
0.10000000000000142,1261,3,64,22
0.10000000000000142,1261,4,64,27
0.10000000000000142,1261,5,64,39
0.10000000000000142,1261,6,64,18
0.10000000000000142,1261,7,64,30
0.10000000000000142,1261,8,64,40
0.10000000000000142,1261,9,64,40
0.10000000000000142,1261,10,64,26
0.09999999999999432,1261,11,64,41
0.10000000000000142,1261,12,64,26
0.10000000000000142,1261,13,64,29
0.10000000000000142,1261,14,64,25
0.10000000000000142,1261,15,64,33
0.10000000000000142,1262,0,64,48
0.10000000000000142,1262,1,64,68
0.10000000000000142,1262,2,64,29
0.10000000000000142,1262,3,64,36
0.10000000000000142,1262,4,64,38
0.10000000000000142,1262,5,64,38
0.10000000000000142,1262,6,64,35
0.10000000000000142,1262,7,64,39
0.10000000000000142,1262,8,64,42
0.10000000000000142,1262,9,64,41
0.10000000000000142,1262,10,64,32
0.10000000000000142,1262,11,64,29
0.10000000000000142,1262,12,64,31
0.10000000000000142,1262,13,64,28
0.09999999999999432,1262,14,64,32
0.10000000000000142,1262,15,64,33
0.09999999999999432,1263,0,64,36
0.10000000000000142,1263,1,64,34
0.10000000000000142,1263,2,64,37
0.10000000000000142,1263,3,64,45
0.09999999999999432,1263,4,64,34
0.10000000000000142,1263,5,64,41
0.10000000000000142,1263,6,64,35
0.10000000000000142,1263,7,64,29
0.10000000000000142,1263,8,64,37
0.10000000000000142,1263,9,64,37
0.10000000000000142,1263,10,64,36
0.10000000000000142,1263,11,64,42
0.10000000000000142,1263,12,64,33
0.09999999999999432,1263,13,64,15
0.10000000000000142,1263,14,64,12
0.09999999999999432,1263,15,64,13
0.10000000000000853,1264,0,64,19
0.10000000000000853,1264,1,64,11
0.09999999999999432,1264,2,64,12
0.09999999999999432,1264,3,64,4
0.09999999999999432,1264,4,64,2
0.10000000000000853,1264,5,64,11
0.09999999999999432,1264,6,64,16
0.09999999999999432,1264,7,64,7
0.10000000000000853,1264,8,64,11
0.09999999999999432,1264,9,64,14
0.09999999999999432,1264,10,64,32
0.09999999999999432,1264,11,64,26
0.10000000000000853,1264,12,64,12
0.09999999999999432,1264,13,64,17
0.09999999999999432,1264,14,64,21
0.09999999999999432,1264,15,64,23
0.09999999999999432,1265,0,64,31
0.10000000000000853,1265,1,64,20
0.09999999999999432,1265,2,64,16
0.09999999999999432,1265,3,64,20
0.09999999999999432,1265,4,64,14
0.09999999999999432,1265,5,64,14
0.10000000000000853,1265,6,64,17
0.10000000000000853,1265,7,64,33
0.10000000000000853,1265,8,64,24
0.09999999999999432,1265,9,64,20
0.09999999999999432,1265,10,64,13
0.09999999999999432,1265,11,64,10
0.09999999999999432,1265,12,64,13
0.09999999999999432,1265,13,64,23
0.10000000000000853,1265,14,64,25
0.09999999999999432,1265,15,64,24
0.09999999999999432,1266,0,64,25
0.09999999999999432,1266,1,64,28
0.10000000000000853,1266,2,64,10
0.09999999999999432,1266,3,64,14
0.09999999999999432,1266,4,64,24
0.09999999999999432,1266,5,64,20
0.09999999999999432,1266,6,64,27
0.10000000000000853,1266,7,64,21
0.09999999999999432,1266,8,64,15
0.09999999999999432,1266,9,64,22
0.10000000000000853,1266,10,64,28
0.10000000000000853,1266,11,64,37
0.10000000000000853,1266,12,64,21
0.10000000000000853,1266,13,64,28
0.09999999999999432,1266,14,64,18
0.09999999999999432,1266,15,64,10
0.09999999999999432,1267,0,64,15
0.10000000000000853,1267,1,64,39
0.09999999999999432,1267,2,64,31
0.09999999999999432,1267,3,64,32
0.10000000000002274,1267,4,64,23
0.09999999999999432,1267,5,64,10
0.09999999999999432,1267,6,64,11
0.09999999999999432,1267,7,64,13
0.09999999999999432,1267,8,64,18
0.09999999999999432,1267,9,64,24
0.09999999999999432,1267,10,64,29
0.09999999999999432,1267,11,64,24
0.10000000000002274,1267,12,64,15
0.09999999999999432,1267,13,64,17
0.09999999999999432,1267,14,64,16
0.09999999999999432,1267,15,64,25
0.10000000000002274,1268,0,64,11
0.09999999999999432,1268,1,64,17
0.09999999999999432,1268,2,64,21
0.10000000000002274,1268,3,64,17
0.09999999999999432,1268,4,64,18
0.09999999999999432,1268,5,64,12
0.09999999999999432,1268,6,64,18
0.09999999999999432,1268,7,64,22
0.10000000000002274,1268,8,64,20
0.09999999999999432,1268,9,64,17
0.09999999999999432,1268,10,64,14
0.09999999999999432,1268,11,64,19
0.09999999999999432,1268,12,64,22
0.09999999999999432,1268,13,64,31
0.09999999999999432,1268,14,64,16
0.09999999999999432,1268,15,64,16
0.09999999999999432,1269,0,64,14
0.09999999999999432,1269,1,64,12
0.09999999999999432,1269,2,64,17
0.09999999999999432,1269,3,64,12
0.09999999999999432,1269,4,64,17
0.09999999999999432,1269,5,64,21
0.09999999999999432,1269,6,64,28
0.10000000000002274,1269,7,64,36
0.09999999999999432,1269,8,64,19
0.09999999999999432,1269,9,64,19
0.09999999999999432,1269,10,64,21
0.10000000000002274,1269,11,64,32
0.09999999999999432,1269,12,64,26
0.09999999999999432,1269,13,64,16
0.10000000000002274,1269,14,64,22
0.09999999999999432,1269,15,64,23
0.09999999999999432,1270,0,64,18
0.10000000000002274,1270,1,64,19
0.09999999999999432,1270,2,64,17
0.10000000000002274,1270,3,64,23
0.09999999999999432,1270,4,64,26
0.09999999999999432,1270,5,64,20
0.10000000000002274,1270,6,64,26
0.09999999999999432,1270,7,64,21
0.09999999999999432,1270,8,64,21
0.09999999999999432,1270,9,64,27
0.09999999999999432,1270,10,64,24
0.10000000000002274,1270,11,64,16
0.09999999999999432,1270,12,64,18
0.09999999999999432,1270,13,64,10
0.10000000000002274,1270,14,64,17
0.09999999999999432,1270,15,64,34
0.09999999999999432,1271,0,64,23
0.10000000000002274,1271,1,64,32
0.09999999999999432,1271,2,64,21
0.09999999999999432,1271,3,64,21
0.10000000000002274,1271,4,64,13
0.09999999999999432,1271,5,64,5
0.10000000000002274,1271,6,64,18
0.09999999999999432,1271,7,64,19
0.09999999999999432,1271,8,64,23
0.10000000000002274,1271,9,64,13
0.09999999999999432,1271,10,64,11
0.09999999999999432,1271,11,64,14
0.09999999999999432,1271,12,64,16
0.09999999999999432,1271,13,64,11
0.10000000000002274,1271,14,64,18
0.09999999999999432,1271,15,64,19
0.09999999999999432,1272,0,64,8
0.09999999999999432,1272,1,64,24
0.09999999999999432,1272,2,64,31
0.10000000000002274,1272,3,64,21
0.09999999999999432,1272,4,64,15
0.09999999999999432,1272,5,64,20
0.09999999999999432,1272,6,64,19
0.10000000000002274,1272,7,64,15
0.09999999999999432,1272,8,64,13
0.09999999999999432,1272,9,64,15
0.09999999999999432,1272,10,64,22
0.10000000000002274,1272,11,64,27
0.09999999999999432,1272,12,64,18
0.09999999999999432,1272,13,64,18
0.09999999999999432,1272,14,64,16
0.09999999999999432,1272,15,64,32
0.09999999999999432,1273,0,64,14
0.09999999999999432,1273,1,64,19
0.09999999999999432,1273,2,64,24
0.09999999999999432,1273,3,64,16
0.09999999999999432,1273,4,64,20
0.09999999999999432,1273,5,64,18
0.09999999999999432,1273,6,64,26
0.09999999999999432,1273,7,64,21
0.10000000000002274,1273,8,64,24
0.09999999999999432,1273,9,64,29
0.09999999999999432,1273,10,64,30
0.10000000000002274,1273,11,64,27
0.09999999999999432,1273,12,64,23
0.09999999999999432,1273,13,64,17
0.10000000000002274,1273,14,64,20
0.09999999999999432,1273,15,64,16
0.09999999999999432,1274,0,64,23
0.09999999999999432,1274,1,64,27
0.09999999999999432,1274,2,64,23
0.09999999999999432,1274,3,64,27
0.10000000000002274,1274,4,64,31
0.10000000000002274,1274,5,64,31
0.09999999999999432,1274,6,64,21
0.09999999999999432,1274,7,64,22
0.09999999999999432,1274,8,64,24
0.09999999999999432,1274,9,64,25
0.09999999999999432,1274,10,64,28
0.10000000000002274,1274,11,64,25
0.09999999999999432,1274,12,64,28
0.09999999999999432,1274,13,64,23
0.09999999999999432,1274,14,64,25
0.09999999999999432,1274,15,64,19
0.09999999999999432,1275,0,64,25
0.09999999999999432,1275,1,64,18
0.09999999999999432,1275,2,64,23
0.09999999999999432,1275,3,64,39
0.09999999999999432,1275,4,64,23
0.10000000000002274,1275,5,64,37
0.09999999999999432,1275,6,64,30
0.10000000000002274,1275,7,64,32
0.09999999999999432,1275,8,64,35
0.09999999999999432,1275,9,64,16
0.09999999999999432,1275,10,64,17
0.09999999999999432,1275,11,64,21
0.09999999999999432,1275,12,64,23
0.09999999999999432,1275,13,64,24
0.09999999999999432,1275,14,64,21
0.09999999999999432,1275,15,64,17
0.09999999999999432,1276,0,64,20
0.10000000000002274,1276,1,64,25
0.09999999999999432,1276,2,64,27
0.10000000000002274,1276,3,64,18
0.09999999999999432,1276,4,64,16
0.09999999999999432,1276,5,64,11
0.10000000000002274,1276,6,64,8
0.09999999999999432,1276,7,64,30
0.09999999999999432,1276,8,64,35
0.09999999999999432,1276,9,64,28
0.10000000000002274,1276,10,64,33
0.09999999999999432,1276,11,64,24
0.09999999999999432,1276,12,64,30
0.09999999999999432,1276,13,64,33
0.09999999999999432,1276,14,64,29
0.09999999999999432,1276,15,64,35
0.10000000000002274,1277,0,64,29
0.09999999999999432,1277,1,64,18
0.10000000000002274,1277,2,64,29
0.10000000000002274,1277,3,64,24
0.09999999999999432,1277,4,64,28
0.09999999999999432,1277,5,64,24
0.09999999999999432,1277,6,64,28
0.10000000000002274,1277,7,64,29
0.09999999999999432,1277,8,64,23
0.09999999999999432,1277,9,64,27
0.09999999999999432,1277,10,64,30
0.09999999999999432,1277,11,64,18
0.09999999999999432,1277,12,64,17
0.10000000000002274,1277,13,64,17
0.10000000000002274,1277,14,64,31
0.09999999999999432,1277,15,64,23
0.10000000000002274,1278,0,64,21
0.09999999999999432,1278,1,64,27
0.09999999999999432,1278,2,64,27
0.09999999999999432,1278,3,64,29
0.09999999999999432,1278,4,64,18
0.09999999999999432,1278,5,64,23
0.09999999999999432,1278,6,64,18
0.09999999999999432,1278,7,64,22
0.09999999999999432,1278,8,64,30
0.09999999999999432,1278,9,64,22
0.09999999999999432,1278,10,64,18
0.09999999999999432,1278,11,64,26
0.09999999999999432,1278,12,64,28
0.09999999999999432,1278,13,64,13
0.09999999999999432,1278,14,64,18
0.10000000000002274,1278,15,64,21
0.09999999999999432,1279,0,64,25
0.09999999999999432,1279,1,64,37
0.09999999999999432,1279,2,64,32
0.09999999999999432,1279,3,64,14
0.09999999999999432,1279,4,64,27
0.09999999999999432,1279,5,64,21
0.10000000000002274,1279,6,64,16
0.09999999999999432,1279,7,64,15
0.09999999999999432,1279,8,64,20
0.09999999999999432,1279,9,64,21
0.09999999999999432,1279,10,64,42
0.10000000000002274,1279,11,64,34
0.09999999999999432,1279,12,64,10
0.09999999999999432,1279,13,64,22
0.09999999999999432,1279,14,64,25
0.09999999999999432,1279,15,64,27
0.09999999999999432,1280,0,64,35
0.10000000000002274,1280,1,64,22
0.10000000000002274,1280,2,64,40
0.09999999999999432,1280,3,64,42
0.10000000000002274,1280,4,64,39
0.09999999999999432,1280,5,64,41
0.09999999999999432,1280,6,64,39
0.09999999999999432,1280,7,64,28
0.09999999999999432,1280,8,64,35
0.09999999999999432,1280,9,64,29
0.09999999999999432,1280,10,64,24
0.09999999999999432,1280,11,64,24
0.09999999999999432,1280,12,64,23
0.09999999999999432,1280,13,64,24
0.10000000000002274,1280,14,64,20
0.10000000000002274,1280,15,64,42
0.09999999999999432,1281,0,64,43
0.09999999999999432,1281,1,64,53
0.09999999999999432,1281,2,64,53
0.09999999999999432,1281,3,64,46
0.10000000000002274,1281,4,64,37
0.09999999999999432,1281,5,64,30
0.09999999999999432,1281,6,64,29
0.09999999999999432,1281,7,64,24
0.09999999999999432,1281,8,64,23
0.09999999999999432,1281,9,64,17
0.10000000000002274,1281,10,64,23
0.09999999999999432,1281,11,64,30
0.09999999999999432,1281,12,64,26
0.10000000000002274,1281,13,64,21
0.09999999999999432,1281,14,64,19
0.09999999999999432,1281,15,64,18
0.09999999999999432,1282,0,64,21
0.09999999999999432,1282,1,64,17
0.09999999999999432,1282,2,64,17
0.09999999999999432,1282,3,64,24
0.09999999999999432,1282,4,64,31
0.09999999999999432,1282,5,64,31
0.09999999999999432,1282,6,64,24
0.09999999999999432,1282,7,64,23
0.10000000000002274,1282,8,64,30
0.09999999999999432,1282,9,64,32
0.10000000000002274,1282,10,64,41
0.09999999999999432,1282,11,64,41
0.09999999999999432,1282,12,64,19
0.09999999999999432,1282,13,64,17
0.10000000000002274,1282,14,64,17
0.09999999999999432,1282,15,64,19
0.09999999999999432,1283,0,64,54
0.09999999999999432,1283,1,64,43
0.09999999999999432,1283,2,64,34
0.09999999999999432,1283,3,64,28
0.09999999999999432,1283,4,64,47
0.09999999999999432,1283,5,64,47
0.10000000000002274,1283,6,64,33
0.09999999999999432,1283,7,64,26
0.09999999999999432,1283,8,64,49
0.09999999999999432,1283,9,64,42
0.09999999999999432,1283,10,64,47
0.09999999999999432,1283,11,64,40
0.09999999999999432,1283,12,64,40
0.09999999999999432,1283,13,64,42
0.09999999999999432,1283,14,64,27
0.09999999999999432,1283,15,64,33
0.09999999999999432,1284,0,64,30
0.10000000000002274,1284,1,64,33
0.09999999999999432,1284,2,64,58
0.09999999999999432,1284,3,64,41
0.09999999999999432,1284,4,64,54
0.10000000000002274,1284,5,64,39
0.09999999999999432,1284,6,64,42
0.09999999999999432,1284,7,64,29
0.09999999999999432,1284,8,64,29
0.09999999999999432,1284,9,64,46
0.09999999999999432,1284,10,64,52
0.09999999999999432,1284,11,64,40
0.09999999999999432,1284,12,64,46
0.09999999999999432,1284,13,64,27
0.10000000000002274,1284,14,64,54
0.09999999999999432,1284,15,64,36
0.09999999999999432,1285,0,64,40
0.09999999999999432,1285,1,64,35
0.09999999999999432,1285,2,64,30
0.09999999999999432,1285,3,64,44
0.09999999999999432,1285,4,64,32
0.09999999999999432,1285,5,64,40
0.09999999999999432,1285,6,64,43
0.09999999999999432,1285,7,64,36
0.09999999999999432,1285,8,64,37
0.10000000000002274,1285,9,64,38
0.09999999999999432,1285,10,64,22
0.09999999999999432,1285,11,64,30
0.09999999999999432,1285,12,64,35
0.09999999999999432,1285,13,64,48
0.09999999999999432,1285,14,64,36
0.09999999999999432,1285,15,64,41
0.09999999999999432,1286,0,64,29
0.09999999999999432,1286,1,64,45
0.10000000000002274,1286,2,64,20
0.09999999999999432,1286,3,64,25
0.09999999999999432,1286,4,64,39
0.10000000000002274,1286,5,64,39
0.09999999999999432,1286,6,64,42
0.09999999999999432,1286,7,64,27
0.10000000000002274,1286,8,64,30
0.09999999999999432,1286,9,64,37
0.09999999999999432,1286,10,64,42
0.10000000000002274,1286,11,64,39
0.09999999999999432,1286,12,64,21
0.09999999999999432,1286,13,64,30
0.10000000000002274,1286,14,64,35
0.09999999999999432,1286,15,64,32
0.09999999999999432,1287,0,64,43
0.10000000000002274,1287,1,64,36
0.09999999999999432,1287,2,64,11
0.09999999999999432,1287,3,64,13
0.09999999999999432,1287,4,64,17
0.09999999999999432,1287,5,64,22
0.09999999999999432,1287,6,64,24
0.09999999999999432,1287,7,64,20
0.09999999999999432,1287,8,64,18
0.09999999999999432,1287,9,64,18
0.10000000000002274,1287,10,64,17
0.09999999999999432,1287,11,64,15
0.09999999999999432,1287,12,64,12
0.09999999999999432,1287,13,64,14
0.09999999999999432,1287,14,64,20
0.09999999999999432,1287,15,64,18
0.09999999999999432,1288,0,64,21
0.09999999999999432,1288,1,64,19
0.09999999999999432,1288,2,64,14
0.09999999999999787,1288,3,56,51
0.09999999999999787,1288,4,56,81
0.09999999999999787,1288,5,56,42
0.10000000000000142,1288,6,56,40
0.10000000000000142,1288,7,56,38
0.09999999999999432,1288,8,56,57
0.09999999999999432,1288,9,56,77
0.09999999999999432,1288,10,56,56
0.10000000000000142,1288,11,56,56
0.10000000000000142,1288,12,56,17
0.10000000000000142,1288,13,56,33
0.04772727272727195,1288,14,56,52
0.10000000000000142,1288,15,56,57
0.09999999999999432,1289,0,56,70
0.10000000000000142,1289,1,56,71
0.10000000000000142,1289,2,56,91
0.10000000000000142,1289,3,56,66
0.10000000000000142,1289,4,56,61
0.10000000000000142,1289,5,56,109
0.10000000000000142,1289,6,56,127
0.09999999999999432,1289,7,56,79
0.09999999999999432,1289,8,56,113
0.10000000000000142,1289,9,56,64
0.09999999999999432,1289,10,56,117
0.10000000000000142,1289,11,56,127
0.10000000000000142,1289,12,56,127
0.09999999999999432,1289,13,56,124
0.10000000000000853,1289,14,56,127
0.10000000000000853,1289,15,56,115
0.10000000000000853,1290,0,56,121
0.09999999999999432,1290,1,56,86
0.09999999999999432,1290,2,56,43
0.10000000000000853,1290,3,56,127
0.09999999999999432,1290,4,56,127
0.09999999999999432,1290,5,56,127
0.09999999999999432,1290,6,56,109
0.10000000000000853,1290,7,56,127
0.09999999999999432,1290,8,56,127
0.10000000000000853,1290,9,56,127
0.09999999999999432,1290,10,56,80
0.10000000000000853,1290,11,56,108
0.10000000000000853,1290,12,56,127
0.09999999999999432,1290,13,56,127
0.04772727272727195,1290,14,56,127
0.09999999999999432,1290,15,56,127
0.10000000000000853,1291,0,56,127
0.10000000000000853,1291,1,56,102
0.09999999999999432,1291,2,56,70
0.09999999999999432,1291,3,56,64
0.10000000000000853,1291,4,56,43
0.09999999999999432,1291,5,56,52
0.09999999999999432,1291,6,56,106
0.10000000000000853,1291,7,56,127
0.09999999999999432,1291,8,56,69
0.09999999999999432,1291,9,56,73
0.03636363636363171,1291,10,56,87
0.04772727272727195,1291,11,56,102
0.013636363636365445,1291,12,56,104
0.09999999999999432,1291,13,56,112
0.06818181818181301,1291,14,56,110
0.013636363636351234,1291,15,56,110
0.01590909090909065,1292,0,56,110
0.09999999999999432,1292,1,56,105
0.10000000000000853,1292,2,56,99
0.09999999999999432,1292,3,56,71
0.10000000000000853,1292,4,56,127
0.10000000000000853,1292,5,56,87
0.10000000000000853,1292,6,56,127
0.09999999999999432,1292,7,56,73
0.09999999999999432,1292,8,56,71
0.09999999999999432,1292,9,56,127
0.09999999999999432,1292,10,56,127
0.013636363636379656,1292,11,56,127
0.09999999999999432,1292,12,56,127
0.09999999999999432,1292,13,56,85
0.09999999999999432,1292,14,56,123
0.09999999999999432,1292,15,56,127
0.09999999999999432,1293,0,56,127
0.09999999999999432,1293,1,56,122
0.09999999999999432,1293,2,56,121
0.09999999999999432,1293,3,56,64
0.10000000000002274,1293,4,56,122
0.09999999999999432,1293,5,56,127
0.09999999999999432,1293,6,56,100
0.09999999999999432,1293,7,56,127
0.09999999999999432,1293,8,56,127
0.09999999999999432,1293,9,56,112
0.09999999999999432,1293,10,56,83
0.09999999999999964,1293,11,98,127
0.10000000000000142,1293,12,98,127
0.09999999999999964,1293,13,98,127
0.09999999999999964,1293,14,98,127
0.09999999999999964,1293,15,98,127
0.10000000000000142,1294,0,98,127
0.09999999999999787,1294,1,98,127
0.09999999999999787,1294,2,98,127
0.10000000000000142,1294,3,98,127
0.10000000000000142,1294,4,98,127
0.10000000000000142,1294,5,98,127
0.10000000000000142,1294,6,98,127
0.09999999999999787,1294,7,98,127
0.09999999999999787,1294,8,98,127
0.10000000000000142,1294,9,98,127
0.09999999999999787,1294,10,98,127
0.10000000000000142,1294,11,98,4
0.10000000000000142,1294,12,98,65
0.09999999999999787,1294,13,98,9
0.10000000000000142,1294,14,98,9
0.09999999999999787,1294,15,98,127
0.10000000000000142,1295,0,98,74
0.09999999999999787,1295,1,98,51
0.10000000000000142,1295,2,98,7
0.09999999999999787,1295,3,98,66
0.09999999999999787,1295,4,98,127
0.09999999999999787,1295,5,98,3
0.10000000000000142,1295,6,98,49
0.10000000000000142,1295,7,98,57
0.10000000000000142,1295,8,98,7
0.10000000000000142,1295,9,98,68
0.09999999999999432,1295,10,98,8
0.10000000000000142,1295,11,98,9
0.09999999999999432,1295,12,98,127
0.10000000000000142,1295,13,98,81
0.10000000000000142,1295,14,98,52
0.10000000000000142,1295,15,98,7
0.09999999999999432,1296,0,98,64
0.10000000000000142,1296,1,98,8
0.09999999999999432,1296,2,98,127
0.10000000000000142,1296,3,98,7
0.10000000000000142,1296,4,98,41
0.10000000000000142,1296,5,98,49
0.10000000000000142,1296,6,98,7
0.09999999999999432,1296,7,98,73
0.09999999999999432,1296,8,98,9
0.10000000000000142,1296,9,98,9
0.10000000000000142,1296,10,98,127
0.10000000000000142,1296,11,98,81
0.09999999999999432,1296,12,98,56
0.09999999999999432,1296,13,98,5
0.10000000000000142,1296,14,98,67
0.09999999999999432,1296,15,98,127
0.10000000000000142,1297,0,98,8
0.10000000000000142,1297,1,98,39
0.10000000000000142,1297,2,98,51
0.09999999999999432,1297,3,98,8
0.10000000000000142,1297,4,98,67
0.10000000000000142,1297,5,98,22
0.10000000000000142,1297,6,98,9
0.10000000000000142,1297,7,98,127
0.09999999999999432,1297,8,98,78
0.10000000000000142,1297,9,98,56
0.10000000000000142,1297,10,98,6
0.10000000000000142,1297,11,98,49
0.10000000000000142,1297,12,98,8
0.10000000000000142,1297,13,98,23
0.10000000000000142,1297,14,98,8
0.10000000000000142,1297,15,98,32
0.10000000000000142,1298,0,98,50
0.10000000000000142,1298,1,98,7
0.10000000000000142,1298,2,98,39
0.10000000000000142,1298,3,98,4
0.09999999999999432,1298,4,98,12
0.10000000000000142,1298,5,98,9
0.09999999999999432,1298,6,98,9
0.10000000000000142,1298,7,98,32
0.10000000000000142,1298,8,98,56
0.10000000000000142,1298,9,98,6
0.09999999999999432,1298,10,98,43
0.10000000000000142,1298,11,98,7
0.09999999999999432,1298,12,98,23
0.10000000000000142,1298,13,98,8
0.10000000000000142,1298,14,98,29
0.10000000000000142,1298,15,98,46
0.10000000000000142,1299,0,98,7
0.10000000000000142,1299,1,98,40
0.10000000000000142,1299,2,98,8
0.09999999999999432,1299,3,98,17
0.10000000000000142,1299,4,98,9
0.10000000000000142,1299,5,98,9
0.10000000000000142,1299,6,98,30
0.10000000000000142,1299,7,98,55
0.09999999999999432,1299,8,98,7
0.10000000000000142,1299,9,98,44
0.09999999999999432,1299,10,98,7
0.10000000000000142,1299,11,98,26
0.10000000000000142,1299,12,98,31
0.10000000000000142,1299,13,98,56
0.10000000000000142,1299,14,98,7
0.10000000000000142,1299,15,98,37
0.10000000000000142,1300,0,98,7
0.10000000000000142,1300,1,98,12
0.10000000000000142,1300,2,98,9
0.10000000000000142,1300,3,98,9
0.09999999999999432,1300,4,98,29
0.09999999999999432,1300,5,98,52
0.10000000000000142,1300,6,98,7
0.10000000000000142,1300,7,98,40
0.10000000000000142,1300,8,98,7
0.10000000000000142,1300,9,98,24
0.09999999999999432,1300,10,98,9
0.10000000000000142,1300,11,98,36
0.09999999999999432,1300,12,98,49
0.10000000000000142,1300,13,98,7
0.10000000000000142,1300,14,98,42
0.10000000000000142,1300,15,98,8
0.10000000000000142,1301,0,98,14
0.10000000000000142,1301,1,98,10
0.09999999999999432,1301,2,98,8
0.10000000000000142,1301,3,98,33
0.10000000000000142,1301,4,98,48
0.10000000000000142,1301,5,98,5
0.10000000000000142,1301,6,98,43
0.10000000000000142,1301,7,98,8
0.10000000000000142,1301,8,98,63
0.09999999999999432,1301,9,98,38
0.10000000000000142,1301,10,98,33
0.10000000000000142,1301,11,98,65
0.10000000000000142,1301,12,98,52
0.10000000000000142,1301,13,98,52
0.10000000000000142,1301,14,98,127
0.10000000000000142,1301,15,98,68
0.10000000000000142,1302,0,98,18
0.10000000000000142,1302,1,98,127
0.10000000000000142,1302,2,98,127
0.10000000000000142,1302,3,98,11
0.10000000000000142,1302,4,98,127
0.09999999999999432,1302,5,98,60
0.09999999999999432,1302,6,98,27
0.10000000000000142,1302,7,98,13
0.10000000000000142,1302,8,98,127
0.10000000000000142,1302,9,98,78
0.10000000000000142,1302,10,98,125
0.10000000000000142,1302,11,98,13
0.09999999999999432,1302,12,98,27
0.10000000000000142,1302,13,98,11
0.09999999999999432,1302,14,98,127
0.10000000000000142,1302,15,98,73
0.10000000000000142,1303,0,98,19
0.10000000000000142,1303,1,98,127
0.09999999999999432,1303,2,98,127
0.10000000000000142,1303,3,98,13
0.09999999999999432,1303,4,98,127
0.10000000000000142,1303,5,98,56
0.10000000000000142,1303,6,98,28
0.10000000000000142,1303,7,98,13
0.10000000000000142,1303,8,98,127
0.09999999999999432,1303,9,98,69
0.10000000000000142,1303,10,98,127
0.10000000000000142,1303,11,98,14
0.10000000000000142,1303,12,98,30
0.10000000000000142,1303,13,98,12
0.10000000000000142,1303,14,98,127
0.10000000000000142,1303,15,98,75
0.10000000000000142,1304,0,98,3
0.09999999999999432,1304,1,98,127
0.10000000000000142,1304,2,98,127
0.09999999999999432,1304,3,98,15
0.10000000000000142,1304,4,98,127
0.10000000000000142,1304,5,98,60
0.10000000000000142,1304,6,98,29
0.09999999999999432,1304,7,98,13
0.10000000000000142,1304,8,98,127
0.10000000000000142,1304,9,98,70
0.10000000000000142,1304,10,98,127
0.10000000000000142,1304,11,98,14
0.10000000000000142,1304,12,98,25
0.10000000000000142,1304,13,98,11
0.10000000000000142,1304,14,98,127
0.09999999999999432,1304,15,98,72
0.09999999999999432,1305,0,98,18
0.10000000000000142,1305,1,98,127
0.10000000000000142,1305,2,98,127
0.10000000000000142,1305,3,98,15
0.10000000000000142,1305,4,98,127
0.10000000000000142,1305,5,98,69
0.09999999999999432,1305,6,98,30
0.10000000000000142,1305,7,98,14
0.09999999999999432,1305,8,98,127
0.10000000000000142,1305,9,98,127
0.056818181818186986,1305,10,98,55
0.10000000000000142,1305,11,98,106
0.10000000000000142,1305,12,98,127
0.10000000000000142,1305,13,98,67
0.10000000000000142,1305,14,98,16
0.09999999999999432,1305,15,98,127
0.10000000000000142,1306,0,98,50
0.10000000000000142,1306,1,98,21
0.10000000000000142,1306,2,98,127
0.10000000000000142,1306,3,98,126
0.10000000000000142,1306,4,98,17
0.10000000000000142,1306,5,98,127
0.09999999999999432,1306,6,98,69
0.10000000000000142,1306,7,98,20
0.10000000000000142,1306,8,98,16
0.10000000000000142,1306,9,98,127
0.10000000000000142,1306,10,98,71
0.10000000000000142,1306,11,98,108
0.09999999999999432,1306,12,98,17
0.10000000000000142,1306,13,98,21
0.10000000000000142,1306,14,98,15
0.10000000000000142,1306,15,98,127
0.10000000000000142,1307,0,98,56
0.10000000000000142,1307,1,98,17
0.10000000000000142,1307,2,98,127
0.10000000000000142,1307,3,98,122
0.09999999999999432,1307,4,98,15
0.10000000000000142,1307,5,98,127
0.10000000000000142,1307,6,98,67
0.09999999999999432,1307,7,98,22
0.09999999999999432,1307,8,98,17
0.10000000000000853,1307,9,98,127
0.09999999999999432,1307,10,98,72
0.10000000000000853,1307,11,98,106
0.10000000000000853,1307,12,98,15
0.09999999999999432,1307,13,98,20
0.09999999999999432,1307,14,98,19
0.10000000000000853,1307,15,98,127
0.09999999999999432,1308,0,98,64
0.10000000000000853,1308,1,98,18
0.10000000000000853,1308,2,98,127
0.10000000000000853,1308,3,98,123
0.09999999999999432,1308,4,98,14
0.09999999999999432,1308,5,98,127
0.09999999999999432,1308,6,98,73
0.09999999999999432,1308,7,98,23
0.09999999999999432,1308,8,98,16
0.09999999999999432,1308,9,98,127
0.09999999999999432,1308,10,98,54
0.09999999999999432,1308,11,98,109
0.09999999999999432,1308,12,98,15
0.09999999999999432,1308,13,98,21
0.10000000000000853,1308,14,98,18
0.09999999999999432,1308,15,98,127
0.10000000000000853,1309,0,98,68
0.09999999999999432,1309,1,98,15
0.10000000000000853,1309,2,98,127
0.09999999999999432,1309,3,98,127
0.10000000000000853,1309,4,98,14
0.10000000000000853,1309,5,98,127
0.10000000000000853,1309,6,98,50
0.09999999999999432,1309,7,98,22
0.10000000000000853,1309,8,98,16
0.10000000000000853,1309,9,98,127
0.09999999999999432,1309,10,98,67
0.10000000000000853,1309,11,98,107
0.09999999999999432,1309,12,98,127
0.10000000000000853,1309,13,98,38
0.09999999999999432,1309,14,98,17
0.10000000000000853,1309,15,98,127
0.09999999999999432,1310,0,98,127
0.09999999999999432,1310,1,98,127
0.09999999999999432,1310,2,98,127
0.10000000000000853,1310,3,98,49
0.036363636363645924,1310,4,98,24
0.013636363636365445,1310,5,98,25
0.09999999999999432,1310,6,98,127
0.09999999999999432,1310,7,98,127
0.10000000000000853,1310,8,98,15
0.10000000000000853,1310,9,98,127
0.10000000000000853,1310,10,98,70
0.09999999999999432,1310,11,98,17
0.09999999999999432,1310,12,98,12
0.10000000000000853,1310,13,98,127
0.09999999999999432,1310,14,98,69
0.10000000000000853,1310,15,98,111
0.09999999999999432,1311,0,98,14
0.10000000000000853,1311,1,98,22
0.09999999999999432,1311,2,98,17
0.10000000000000853,1311,3,98,127
0.09999999999999432,1311,4,98,59
0.10000000000000853,1311,5,98,18
0.10000000000000853,1311,6,98,127
0.10000000000000853,1311,7,98,122
0.09999999999999432,1311,8,98,13
0.10000000000000853,1311,9,98,127
0.09999999999999432,1311,10,98,71
0.09999999999999432,1311,11,98,22
0.10000000000000853,1311,12,98,14
0.09999999999999432,1311,13,98,127
0.09999999999999432,1311,14,98,56
0.09999999999999432,1311,15,98,105
0.10000000000000853,1312,0,98,13
0.09999999999999432,1312,1,98,23
0.10000000000000853,1312,2,98,17
0.09999999999999432,1312,3,98,127
0.10000000000000853,1312,4,98,64
0.09999999999999432,1312,5,98,19
0.10000000000000853,1312,6,98,127
0.09999999999999432,1312,7,98,126
0.09999999999999432,1312,8,98,15
0.09999999999999432,1312,9,98,127
0.10000000000000853,1312,10,98,48
0.10000000000000853,1312,11,98,22
0.10000000000000853,1312,12,98,14
0.10000000000000853,1312,13,98,127
0.09999999999999432,1312,14,98,59
0.09999999999999432,1312,15,98,111
0.09999999999999432,1313,0,98,16
0.10000000000000853,1313,1,98,23
0.09999999999999432,1313,2,98,17
0.10000000000000853,1313,3,98,127
0.09999999999999432,1313,4,98,69
0.09999999999999432,1313,5,98,18
0.10000000000000853,1313,6,98,127
0.09999999999999432,1313,7,98,127
0.09999999999999432,1313,8,98,15
0.09999999999999432,1313,9,98,127
0.09999999999999432,1313,10,98,54
0.09999999999999432,1313,11,98,22
0.09999999999999432,1313,12,98,16
0.09999999999999432,1313,13,98,127
0.10000000000000853,1313,14,98,68
0.09999999999999432,1313,15,98,105
0.10000000000000853,1314,0,98,127
0.09999999999999432,1314,1,98,38
0.10000000000000853,1314,2,98,15
0.09999999999999432,1314,3,98,127
0.10000000000000853,1314,4,98,52
0.02727272727273089,1314,5,98,22
0.024999999999991473,1314,6,98,23
0.09999999999999432,1314,7,98,127
0.10000000000000853,1314,8,98,127
0.10000000000000853,1314,9,98,16
0.10000000000000853,1314,10,98,127
0.09999999999999432,1314,11,98,62
0.10000000000000853,1314,12,98,21
0.09999999999999432,1314,13,98,17
0.10000000000000853,1314,14,98,127
0.09999999999999432,1314,15,98,73
0.10000000000000853,1315,0,98,112
0.09999999999999432,1315,1,98,17
0.10000000000000853,1315,2,98,23
0.09999999999999432,1315,3,98,18
0.09999999999999432,1315,4,98,127
0.09999999999999432,1315,5,98,51
0.10000000000000853,1315,6,98,17
0.10000000000000853,1315,7,98,127
0.09999999999999432,1315,8,98,127
0.09999999999999432,1315,9,98,15
0.09999999999999432,1315,10,98,127
0.10000000000000853,1315,11,98,71
0.09999999999999432,1315,12,98,15
0.10000000000000853,1315,13,98,14
0.09999999999999432,1315,14,98,127
0.10000000000000853,1315,15,98,73
0.09999999999999432,1316,0,98,110
0.10000000000000853,1316,1,98,16
0.09999999999999432,1316,2,98,23
0.10000000000000853,1316,3,98,16
0.10000000000000853,1316,4,98,127
0.10000000000000853,1316,5,98,61
0.09999999999999432,1316,6,98,18
0.09999999999999432,1316,7,98,127
0.10000000000000853,1316,8,98,127
0.09999999999999432,1316,9,98,15
0.10000000000000853,1316,10,98,127
0.09999999999999432,1316,11,98,74
0.10000000000000853,1316,12,98,22
0.09999999999999432,1316,13,98,17
0.10000000000000853,1316,14,98,127
0.09999999999999432,1316,15,98,59
0.10000000000000853,1317,0,98,109
0.09999999999999432,1317,1,98,18
0.10000000000000853,1317,2,98,26
0.09999999999999432,1317,3,98,18
0.10000000000000853,1317,4,98,47
0.09999999999999432,1317,5,98,28
0.05909090909089798,1317,6,98,29
0.10000000000000853,1317,7,98,43
0.09999999999999432,1317,8,98,33
0.09999999999999432,1317,9,98,57
0.10000000000000853,1317,10,98,37
0.09999999999999432,1317,11,98,51
0.10000000000000853,1317,12,98,38
0.09999999999999432,1317,13,98,46
0.10000000000000853,1317,14,98,31
0.025000000000005684,1317,15,98,28
0.024999999999991473,1318,0,98,64
0.09999999999999432,1318,1,98,112
0.09999999999999432,1318,2,98,127
0.09999999999999432,1318,3,98,10
0.09999999999999432,1318,4,98,6
0.10000000000000853,1318,5,98,119
0.09999999999999432,1318,6,98,10
0.09999999999999432,1318,7,98,16
0.10000000000000853,1318,8,98,127
0.10000000000000853,1318,9,98,116
0.10000000000000853,1318,10,98,14
0.09999999999999432,1318,11,98,127
0.10000000000000853,1318,12,98,17
0.10000000000000853,1318,13,98,127
0.10000000000000853,1318,14,98,127
0.10000000000000853,1318,15,98,127
0.10000000000000853,1319,0,98,74
0.09999999999999432,1319,1,98,14
0.09999999999999432,1319,2,98,127
0.09999999999999432,1319,3,98,127
0.09999999999999432,1319,4,98,12
0.10000000000000853,1319,5,98,127
0.10000000000000853,1319,6,98,53
0.09999999999999432,1319,7,98,21
0.09999999999999432,1319,8,98,16
0.09999999999999432,1319,9,98,127
0.09999999999999432,1319,10,98,61
0.10000000000000853,1319,11,98,110
0.09999999999999432,1319,12,98,15
0.10000000000000853,1319,13,98,27
0.09999999999999432,1319,14,98,14
0.09999999999999432,1319,15,98,127
0.09999999999999432,1320,0,98,84
0.09999999999999432,1320,1,98,15
0.10000000000000853,1320,2,98,127
0.09999999999999432,1320,3,98,120
0.09999999999999432,1320,4,98,14
0.09999999999999432,1320,5,98,127
0.09999999999999432,1320,6,98,57
0.09999999999999432,1320,7,98,21
0.10000000000000853,1320,8,98,16
0.09999999999999432,1320,9,98,127
0.10000000000000853,1320,10,98,77
0.09999999999999432,1320,11,98,108
0.10000000000000853,1320,12,98,13
0.09999999999999432,1320,13,98,27
0.09999999999999432,1320,14,98,14
0.10000000000000853,1320,15,98,127
0.10000000000000853,1321,0,98,55
0.10000000000000853,1321,1,98,13
0.09999999999999432,1321,2,98,127
0.10000000000000853,1321,3,98,127
0.09999999999999432,1321,4,98,11
0.10000000000000853,1321,5,98,127
0.09999999999999432,1321,6,98,70
0.10000000000000853,1321,7,98,23
0.09999999999999432,1321,8,98,15
0.10000000000000853,1321,9,98,127
0.09999999999999432,1321,10,98,81
0.10000000000000853,1321,11,98,116
0.09999999999999432,1321,12,98,17
0.09999999999999432,1321,13,98,24
0.09999999999999432,1321,14,98,3
0.09999999999999432,1321,15,98,47
0.10000000000000853,1322,0,98,9
0.09999999999999432,1322,1,98,8
0.09999999999999432,1322,2,98,48
0.10000000000000853,1322,3,98,43
0.10000000000000853,1322,4,98,3
0.10000000000000853,1322,5,98,51
0.09999999999999432,1322,6,98,5
0.10000000000000853,1322,7,98,45
0.09999999999999432,1322,8,98,3
0.10000000000000853,1322,9,98,4
0.09999999999999432,1322,10,98,46
0.10000000000000853,1322,11,98,42
0.09999999999999432,1322,12,98,4
0.10000000000000853,1322,13,98,47
0.09999999999999432,1322,14,98,7
0.10000000000000853,1322,15,98,47
0.09999999999999432,1323,0,98,4
0.10000000000000853,1323,1,98,4
0.10000000000000853,1323,2,98,45
0.09999999999999432,1323,3,98,42
0.09999999999999432,1323,4,98,3
0.09999999999999432,1323,5,98,51
0.10000000000000853,1323,6,98,4
0.09999999999999432,1323,7,98,44
0.10000000000000853,1323,8,98,4
0.09999999999999432,1323,9,98,4
0.10000000000000853,1323,10,98,55
0.09999999999999432,1323,11,98,39
0.10000000000000853,1323,12,98,3
0.09999999999999432,1323,13,98,55
0.10000000000000853,1323,14,98,7
0.09999999999999432,1323,15,98,39
0.10000000000000853,1324,0,98,4
0.09999999999999432,1324,1,98,3
0.09999999999999432,1324,2,98,48
0.09999999999999432,1324,3,98,33
0.09999999999999432,1324,4,98,3
0.09999999999999432,1324,5,98,46
0.09999999999999432,1324,6,98,4
0.10000000000000853,1324,7,98,46
0.09999999999999432,1324,8,98,6
0.09999999999999432,1324,9,98,3
0.09999999999999432,1324,10,98,58
0.10000000000000853,1324,11,98,48
0.09999999999999432,1324,12,98,3
0.09999999999999432,1324,13,98,54
0.09999999999999432,1324,14,98,10
0.09999999999999432,1324,15,98,52
0.09999999999999432,1325,0,98,50
0.10000000000000853,1325,1,98,56
0.10000000000000853,1325,2,98,62
0.09999999999999432,1325,3,98,41
0.10000000000000853,1325,4,98,47
0.09999999999999432,1325,5,98,57
0.10000000000000853,1325,6,98,8
0.09999999999999432,1325,7,98,41
0.10000000000000853,1325,8,98,50
0.09999999999999432,1325,9,98,59
0.09999999999999432,1325,10,98,64
0.09999999999999432,1325,11,98,36
0.10000000000000853,1325,12,98,44
0.10000000000000853,1325,13,98,56
0.10000000000000853,1325,14,98,6
0.10000000000000853,1325,15,98,64
0.09999999999999432,1326,0,98,33
0.09999999999999432,1326,1,98,3
0.09999999999999432,1326,2,98,127
0.09999999999999432,1326,3,98,57
0.10000000000000853,1326,4,98,21
0.10000000000000853,1326,5,98,127
0.09999999999999432,1326,6,98,127
0.09999999999999432,1326,7,98,17
0.09999999999999432,1326,8,98,127
0.10000000000000853,1326,9,98,58
0.09999999999999432,1326,10,98,19
0.10000000000000853,1326,11,98,11
0.10000000000000853,1326,12,98,127
0.10000000000000853,1326,13,98,91
0.09999999999999432,1326,14,98,98
0.09999999999999432,1326,15,98,13
0.10000000000000853,1327,0,98,25
0.09999999999999432,1327,1,98,12
0.10000000000000853,1327,2,98,127
0.10000000000000853,1327,3,98,70
0.09999999999999432,1327,4,98,20
0.09999999999999432,1327,5,98,127
0.10000000000000853,1327,6,98,127
0.09999999999999432,1327,7,98,8
0.10000000000000853,1327,8,98,127
0.09999999999999432,1327,9,98,85
0.10000000000000853,1327,10,98,19
0.09999999999999432,1327,11,98,11
0.10000000000000853,1327,12,98,127
0.09999999999999432,1327,13,98,97
0.09999999999999432,1327,14,98,96
0.09999999999999432,1327,15,98,12
0.09999999999999432,1328,0,98,22
0.09999999999999432,1328,1,98,12
0.09999999999999432,1328,2,98,127
0.09999999999999432,1328,3,98,77
0.09999999999999432,1328,4,98,22
0.10000000000000853,1328,5,98,127
0.09999999999999432,1328,6,98,127
0.10000000000000853,1328,7,98,12
0.09999999999999432,1328,8,98,127
0.10000000000000853,1328,9,98,96
0.09999999999999432,1328,10,98,24
0.10000000000000853,1328,11,98,11
0.025000000000005684,1328,12,98,12
0.03636363636363171,1328,13,98,127
0.09999999999999432,1328,14,98,97
0.10000000000000853,1328,15,98,93
0.10000000000000853,1329,0,98,13
0.09999999999999432,1329,1,98,31
0.10000000000000853,1329,2,98,11
0.10000000000000853,1329,3,98,127
0.09999999999999432,1329,4,98,90
0.10000000000000853,1329,5,98,17
0.09999999999999432,1329,6,98,127
0.10000000000000853,1329,7,98,127
0.09999999999999432,1329,8,98,13
0.10000000000000853,1329,9,98,127
0.09999999999999432,1329,10,98,96
0.10000000000000853,1329,11,98,21
0.09999999999999432,1329,12,98,12
0.024999999999991473,1329,13,98,10
0.03636363636363171,1329,14,98,127
0.09999999999999432,1329,15,98,77
0.09999999999999432,1330,0,98,89
0.10000000000000853,1330,1,98,127
0.10000000000000853,1330,2,98,95
0.09999999999999432,1330,3,98,12
0.09999999999999432,1330,4,98,127
0.10000000000000853,1330,5,98,97
0.09999999999999432,1330,6,98,22
0.09999999999999432,1330,7,98,127
0.09999999999999432,1330,8,98,127
0.09999999999999432,1330,9,98,12
0.10000000000002274,1330,10,98,127
0.09999999999999432,1330,11,98,73
0.10000000000002274,1330,12,98,21
0.09999999999999432,1330,13,98,11
0.024999999999977263,1330,14,98,11
0.03636363636363171,1330,15,98,127
0.09999999999999432,1331,0,98,80
0.09999999999999432,1331,1,98,93
0.10000000000002274,1331,2,98,12
0.09999999999999432,1331,3,98,30
0.09999999999999432,1331,4,98,12
0.09999999999999432,1331,5,98,127
0.10000000000002274,1331,6,98,110
0.09999999999999432,1331,7,98,20
0.09999999999999432,1331,8,98,127
0.09999999999999432,1331,9,98,127
0.09999999999999432,1331,10,98,13
0.09999999999999432,1331,11,98,127
0.10000000000002274,1331,12,98,85
0.09999999999999432,1331,13,98,23
0.09999999999999432,1331,14,98,10
0.025000000000005684,1331,15,98,11
0.036363636363660135,1332,0,98,127
0.09999999999999432,1332,1,98,98
0.10000000000002274,1332,2,98,90
0.09999999999999432,1332,3,98,12
0.09999999999999432,1332,4,98,26
0.09999999999999432,1332,5,98,12
0.10000000000002274,1332,6,98,127
0.09999999999999432,1332,7,98,74
0.10000000000002274,1332,8,98,19
0.09999999999999432,1332,9,98,127
0.09999999999999432,1332,10,98,117
0.09999999999999432,1332,11,98,7
0.09999999999999432,1332,12,98,127
0.09999999999999432,1332,13,98,97
0.09999999999999432,1332,14,98,23
0.09999999999999432,1332,15,98,10
0.01590909090910486,1333,0,98,12
0.036363636363660135,1333,1,98,127
0.09999999999999432,1333,2,98,102
0.09999999999999432,1333,3,98,95
0.09999999999999432,1333,4,98,12
0.09999999999999432,1333,5,98,26
0.09999999999999432,1333,6,98,13
0.09999999999999432,1333,7,98,127
0.10000000000002274,1333,8,98,88
0.09999999999999432,1333,9,98,18
0.09999999999999432,1333,10,98,127
0.09999999999999432,1333,11,98,127
0.10000000000002274,1333,12,98,13
0.09999999999999432,1333,13,98,127
0.09999999999999432,1333,14,98,99
0.09999999999999432,1333,15,98,21
0.09999999999999432,1334,0,98,12
0.025000000000005684,1334,1,98,10
0.03636363636363171,1334,2,98,127
0.10000000000002274,1334,3,98,77
0.09999999999999432,1334,4,98,88
0.09999999999999432,1334,5,98,127
0.09999999999999432,1334,6,98,91
0.09999999999999432,1334,7,98,13
0.10000000000002274,1334,8,98,20
0.09999999999999432,1334,9,98,35
0.09999999999999432,1334,10,98,11
0.10000000000002274,1334,11,98,75
0.09999999999999432,1334,12,98,30
0.09999999999999432,1334,13,98,1
0.09999999999999432,1334,14,98,33
0.10000000000002274,1334,15,98,31
0.09999999999999432,1335,0,98,78
0.09999999999999432,1335,1,98,33
0.09999999999999432,1335,2,98,1
0.09999999999999432,1335,3,98,41
0.09999999999999432,1335,4,98,31
0.10000000000002274,1335,5,98,22
0.09999999999999432,1335,6,98,71
0.09999999999999432,1335,7,98,35
0.09999999999999432,1335,8,98,1
0.09999999999999432,1335,9,98,29
0.10000000000002274,1335,10,98,4
0.09999999999999432,1335,11,98,34
0.09999999999999432,1335,12,98,85
0.09999999999999432,1335,13,98,1
0.10000000000002274,1335,14,98,39
0.10000000000002274,1335,15,98,7
0.09999999999999432,1336,0,98,39
0.09999999999999432,1336,1,98,29
0.09999999999999432,1336,2,98,23
0.09999999999999432,1336,3,98,66
0.10000000000002274,1336,4,98,1
0.09999999999999432,1336,5,98,36
0.09999999999999432,1336,6,98,2
0.09999999999999432,1336,7,98,27
0.09999999999999432,1336,8,98,11
0.09999999999999432,1336,9,98,47
0.09999999999999432,1336,10,98,83
0.09999999999999432,1336,11,98,40
0.09999999999999432,1336,12,98,16
0.09999999999999432,1336,13,98,41
0.09999999999999432,1336,14,98,34
0.10000000000002274,1336,15,98,34
0.09999999999999432,1337,0,98,62
0.09999999999999432,1337,1,98,34
0.09999999999999432,1337,2,98,1
0.10000000000002274,1337,3,98,28
0.10000000000002274,1337,4,98,7
0.09999999999999432,1337,5,98,44
0.09999999999999432,1337,6,98,12
0.10000000000002274,1337,7,98,73
0.09999999999999432,1337,8,98,4
0.10000000000002274,1337,9,98,54
0.09999999999999432,1337,10,98,10
0.10000000000002274,1337,11,98,47
0.09999999999999432,1337,12,98,1
0.10000000000002274,1337,13,98,39
0.09999999999999432,1337,14,98,33
0.09999999999999432,1337,15,98,58
0.09999999999999432,1338,0,98,1
0.09999999999999432,1338,1,98,50
0.10000000000002274,1338,2,98,20
0.09999999999999432,1338,3,98,30
0.09999999999999432,1338,4,98,4
0.09999999999999432,1338,5,98,39
0.09999999999999432,1338,6,98,34
0.09999999999999432,1338,7,98,64
0.09999999999999432,1338,8,98,47
0.09999999999999432,1338,9,98,27
0.09999999999999432,1338,10,98,29
0.10000000000002274,1338,11,98,25
0.09999999999999432,1338,12,98,24
0.09999999999999432,1338,13,98,25
0.09999999999999432,1338,14,98,79
0.09999999999999432,1338,15,98,9
0.10000000000002274,1339,0,98,38
0.09999999999999432,1339,1,98,29
0.09999999999999432,1339,2,98,27
0.09999999999999432,1339,3,98,26
0.09999999999999432,1339,4,98,38
0.09999999999999432,1339,5,98,27
0.10000000000002274,1339,6,98,32
0.09999999999999432,1339,7,98,27
0.09999999999999432,1339,8,98,32
0.09999999999999432,1339,9,98,28
0.10000000000002274,1339,10,98,45
0.09999999999999432,1339,11,98,29
0.09999999999999432,1339,12,98,34
0.09999999999999432,1339,13,98,27
0.09999999999999432,1339,14,98,85
0.10000000000002274,1339,15,98,26
0.10000000000002274,1340,0,98,38
0.09999999999999432,1340,1,98,30
0.09999999999999432,1340,2,98,36
0.09999999999999432,1340,3,98,26
0.09999999999999432,1340,4,98,27
0.10000000000002274,1340,5,98,25
0.09999999999999432,1340,6,98,67
0.09999999999999432,1340,7,98,27
0.09999999999999432,1340,8,98,29
0.10000000000002274,1340,9,98,27
0.09999999999999432,1340,10,98,36
0.09999999999999432,1340,11,98,37
0.09999999999999432,1340,12,98,46
0.09999999999999432,1340,13,98,33
0.09999999999999432,1340,14,98,72
0.10000000000002274,1340,15,98,41
0.09999999999999432,1341,0,98,37
0.09999999999999432,1341,1,98,27
0.09999999999999432,1341,2,98,47
0.09999999999999432,1341,3,98,55
0.03636363636363171,1341,4,98,53
0.09999999999999432,1341,5,98,63
0.09999999999999432,1341,6,98,50
0.09999999999999432,1341,7,98,127
0.10000000000002274,1341,8,98,95
0.09999999999999432,1341,9,98,20
0.09999999999999432,1341,10,98,127
0.09999999999999432,1341,11,98,127
0.09999999999999432,1341,12,98,12
0.09999999999999432,1341,13,98,127
0.09999999999999432,1341,14,98,98
0.09999999999999432,1341,15,98,20
0.09999999999999432,1342,0,98,13
0.09999999999999432,1342,1,98,127
0.09999999999999432,1342,2,98,102
0.09999999999999432,1342,3,98,93
0.09999999999999432,1342,4,98,12
0.09999999999999432,1342,5,98,17
0.10000000000002274,1342,6,98,13
0.09999999999999432,1342,7,98,127
0.09999999999999432,1342,8,98,115
0.09999999999999432,1342,9,98,16
0.09999999999999432,1342,10,98,127
0.10000000000002274,1342,11,98,127
0.10000000000002274,1342,12,98,10
0.09999999999999432,1342,13,98,127
0.09999999999999432,1342,14,98,103
0.09999999999999432,1342,15,98,20
0.09999999999999432,1343,0,98,13
0.09999999999999432,1343,1,98,127
0.09999999999999432,1343,2,98,125
0.09999999999999432,1343,3,98,90
0.09999999999999432,1343,4,98,12
0.10000000000002274,1343,5,98,19
0.09999999999999432,1343,6,98,16
0.09999999999999432,1343,7,98,127
0.09999999999999432,1343,8,98,127
0.09999999999999432,1343,9,98,16
0.10000000000002274,1343,10,98,127
0.09999999999999432,1343,11,98,127
0.09999999999999432,1343,12,98,12
0.09999999999999432,1343,13,98,127
0.09999999999999432,1343,14,98,119
0.09999999999999432,1343,15,98,19
0.10000000000002274,1344,0,98,12
0.09999999999999432,1344,1,98,127
0.09999999999999432,1344,2,98,127
0.09999999999999432,1344,3,98,50
0.10000000000002274,1344,4,98,12
0.09999999999999432,1344,5,98,18
0.09999999999999432,1344,6,98,13
0.09999999999999432,1344,7,98,127
0.09999999999999432,1344,8,98,109
0.09999999999999432,1344,9,98,17
0.09999999999999432,1344,10,98,127
0.09999999999999432,1344,11,98,127
0.09999999999999432,1344,12,98,11
0.10000000000002274,1344,13,98,127
0.09999999999999432,1344,14,98,127
0.10000000000002274,1344,15,98,19
0.09999999999999432,1345,0,98,12
0.09999999999999432,1345,1,98,127
0.09999999999999432,1345,2,98,127
0.10000000000002274,1345,3,98,92
0.09999999999999432,1345,4,98,12
0.10000000000002274,1345,5,98,17
0.09999999999999432,1345,6,98,15
0.09999999999999432,1345,7,98,50
0.09999999999999432,1345,8,98,53
0.09999999999999432,1345,9,98,66
0.10000000000002274,1345,10,98,51
0.09999999999999432,1345,11,98,54
0.09999999999999432,1345,12,98,52
0.10000000000002274,1345,13,98,57
0.10000000000002274,1345,14,98,27
0.09999999999999432,1345,15,98,54
0.09999999999999432,1346,0,98,54
0.10000000000002274,1346,1,98,59
0.09999999999999998,1346,2,66,23
0.09999999999999964,1346,3,66,16
0.10000000000000009,1346,4,66,28
0.04545454545454586,1346,5,66,24
0.013636363636363669,1346,6,66,19
0.10000000000000009,1346,7,66,28
0.09999999999999964,1346,8,66,33
0.09999999999999964,1346,9,66,8
0.10000000000000053,1346,10,66,26
0.06818181818181834,1346,11,66,26
0.09999999999999964,1346,12,66,10
0.09999999999999964,1346,13,66,29
0.10000000000000053,1346,14,66,27
0.10000000000000053,1346,15,66,34
0.10000000000000053,1347,0,66,32
0.09999999999999964,1347,1,66,33
0.10000000000000053,1347,2,66,28
0.10000000000000142,1347,3,66,39
0.09999999999999964,1347,4,66,25
0.09999999999999964,1347,5,66,22
0.09999999999999964,1347,6,66,34
0.10000000000000142,1347,7,66,21
0.09999999999999964,1347,8,66,21
0.09999999999999964,1347,9,66,17
0.09999999999999964,1347,10,66,23
0.10000000000000142,1347,11,66,37
0.03636363636363704,1347,12,66,28
0.004545454545453964,1347,13,66,10
0.09999999999999964,1347,14,66,6
0.10000000000000142,1347,15,66,7
0.09999999999999964,1348,0,66,7
0.09999999999999964,1348,1,66,5
0.09999999999999964,1348,2,66,4
0.09999999999999964,1348,3,66,45
0.09999999999999964,1348,4,66,49
0.09999999999999964,1348,5,66,52
0.09999999999999964,1348,6,66,36
0.10000000000000142,1348,7,66,50
0.10000000000000142,1348,8,66,54
0.09999999999999787,1348,9,66,53
0.09999999999999787,1348,10,66,54
0.10000000000000142,1348,11,66,7
0.09999999999999787,1348,12,66,12
0.09999999999999787,1348,13,66,18
0.10000000000000142,1348,14,66,55
0.10000000000000142,1348,15,66,51
0.10000000000000142,1349,0,66,49
0.09999999999999787,1349,1,66,53
0.09999999999999787,1349,2,66,55
0.10000000000000142,1349,3,66,44
0.10000000000000142,1349,4,66,58
0.09999999999999787,1349,5,66,54
0.09999999999999787,1349,6,66,29
0.05681818181817988,1349,7,66,29
0.10000000000000142,1349,8,66,34
0.10000000000000142,1349,9,66,34
0.10000000000000142,1349,10,66,36
0.09999999999999432,1349,11,66,36
0.10000000000000142,1349,12,66,27
0.10000000000000142,1349,13,66,30
0.10000000000000142,1349,14,66,33
0.10000000000000853,1349,15,66,74
0.09999999999999432,1350,0,66,69
0.09999999999999432,1350,1,66,84
0.09999999999999432,1350,2,66,97
0.10000000000000853,1350,3,66,39
0.09999999999999432,1350,4,66,46
0.09999999999999432,1350,5,66,121
0.09999999999999432,1350,6,66,23
0.09999999999999432,1350,7,66,1
0.09999999999999432,1350,8,66,3
0.10000000000002274,1350,9,66,2
0.09999999999999432,1350,10,66,3
0.09999999999999432,1350,11,66,2
0.10000000000002274,1350,12,66,2
0.09999999999999432,1350,13,66,2
0.09999999999999432,1350,14,66,4
0.09999999999999432,1350,15,66,1
0.09999999999999432,1351,0,66,1
0.09999999999999432,1351,1,66,2
0.09999999999999432,1351,2,66,3
0.09999999999999432,1351,3,66,2
0.09999999999999432,1351,4,66,1
0.09999999999999432,1351,5,66,3
0.09999999999999432,1351,6,66,7
0.10000000000002274,1351,7,66,1
0.09999999999999432,1351,8,66,1
0.10000000000002274,1351,9,66,1
0.09999999999999432,1351,10,66,1
0.09999999999999432,1351,11,66,1
0.09999999999999432,1351,12,66,1
0.09999999999999432,1351,13,66,1
0.09999999999999432,1351,14,66,9
0.09999999999999432,1351,15,66,1
0.09999999999999432,1352,0,66,2
0.10000000000002274,1352,1,66,9
0.10000000000002274,1352,2,66,1
0.10000000000002274,1352,3,66,4
0.09999999999999432,1352,4,66,62
0.09999999999999432,1352,5,66,2
0.09999999999999432,1352,6,66,1
0.10000000000002274,1352,7,66,4
0.09999999999999432,1352,8,66,5
0.09999999999999432,1352,9,66,63
0.10000000000002274,1352,10,66,12
0.09999999999999432,1352,11,66,16
0.09999999999999432,1352,12,66,26
0.09999999999999432,1352,13,66,3
0.09999999999999432,1352,14,66,58
0.09999999999999432,1352,15,66,29
0.09999999999999432,1353,0,66,1
0.09999999999999432,1353,1,66,9
0.10000000000002274,1353,2,66,58
0.09999999999999432,1353,3,66,3
0.09999999999999432,1353,4,66,28
0.09999999999999432,1353,5,66,42
0.10000000000000003,1353,6,63,35
0.09999999999999998,1353,7,63,63
0.10000000000000009,1353,8,63,22
0.10000000000000009,1353,9,63,43
0.10000000000000009,1353,10,63,24
0.09999999999999987,1353,11,63,44
0.10000000000000009,1353,12,63,26
0.09999999999999964,1353,13,63,54
0.10000000000000009,1353,14,63,30
0.10000000000000009,1353,15,63,61
0.10000000000000009,1354,0,63,19
0.10000000000000009,1354,1,63,46
0.10000000000000009,1354,2,63,25
0.10000000000000053,1354,3,63,46
0.09999999999999964,1354,4,63,20
0.09999999999999964,1354,5,63,35
0.09999999999999964,1354,6,63,39
0.09999999999999964,1354,7,63,54
0.09999999999999964,1354,8,63,21
0.10000000000000053,1354,9,63,52
0.09999999999999964,1354,10,63,26
0.09999999999999964,1354,11,63,48
0.09999999999999964,1354,12,63,29
0.09999999999999964,1354,13,63,42
0.09999999999999964,1354,14,63,64
0.10000000000000053,1354,15,63,44
0.10000000000000053,1355,0,63,47
0.09999999999999964,1355,1,63,23
0.09999999999999964,1355,2,63,56
0.10000000000000142,1355,3,63,28
0.09999999999999964,1355,4,63,67
0.09999999999999964,1355,5,63,32
0.09999999999999964,1355,6,63,42
0.09999999999999964,1355,7,63,45
0.09999999999999964,1355,8,63,47
0.09999999999999964,1355,9,63,54
0.09999999999999964,1355,10,63,42
0.10000000000000142,1355,11,63,42
0.09999999999999964,1355,12,63,49
0.09999999999999964,1355,13,63,48
0.10000000000000142,1355,14,63,52
0.09999999999999964,1355,15,63,65
0.09999999999999964,1356,0,63,29
0.09999999999999964,1356,1,63,51
0.09999999999999964,1356,2,63,45
0.09999999999999964,1356,3,63,46
0.09999999999999964,1356,4,63,56
0.10000000000000142,1356,5,63,49
0.10000000000000142,1356,6,63,58
0.10000000000000142,1356,7,63,55
0.09999999999999787,1356,8,63,31
0.10000000000000142,1356,9,63,42
0.09999999999999787,1356,10,63,45
0.10000000000000142,1356,11,63,60
0.09999999999999787,1356,12,63,41
0.09999999999999787,1356,13,63,39
0.10000000000000142,1356,14,63,63
0.09999999999999787,1356,15,63,37
0.10000000000000142,1357,0,63,54
0.09999999999999787,1357,1,63,43
0.10000000000000142,1357,2,63,42
0.10000000000000142,1357,3,63,39
0.10000000000000142,1357,4,63,33
0.09999999999999787,1357,5,63,48
0.09999999999999787,1357,6,63,41
0.10000000000000142,1357,7,63,56
0.09999999999999787,1357,8,63,46
0.10000000000000142,1357,9,63,52
0.09999999999999787,1357,10,63,45
0.10000000000000142,1357,11,63,46
0.09999999999999787,1357,12,63,62
0.10000000000000142,1357,13,63,43
0.10000000000000142,1357,14,63,33
0.09999999999999787,1357,15,63,49
0.10000000000000142,1358,0,63,55
0.09999999999999787,1358,1,63,50
0.10000000000000142,1358,2,63,54
0.09999999999999787,1358,3,63,92
0.09999999999999787,1358,4,63,100
0.09999999999999787,1358,5,63,43
0.10000000000000142,1358,6,63,56
0.09999999999999787,1358,7,63,44
0.09999999999999787,1358,8,63,39
0.09999999999999787,1358,9,63,37
0.09999999999999787,1358,10,63,50
0.10000000000000142,1358,11,63,57
0.10000000000000142,1358,12,63,62
0.10000000000000142,1358,13,63,51
0.10000000000000142,1358,14,63,39
0.09999999999999432,1358,15,63,57
0.10000000000000142,1359,0,63,53
0.09999999999999432,1359,1,63,65
0.10000000000000142,1359,2,63,48
0.10000000000000142,1359,3,63,48
0.10000000000000142,1359,4,63,46
0.10000000000000142,1359,5,63,52
0.10000000000000142,1359,6,63,64
0.10000000000000142,1359,7,63,49
0.10000000000000142,1359,8,63,53
0.09999999999999432,1359,9,63,5
0.10000000000000142,1359,10,63,75
0.10000000000000142,1359,11,63,41
0.10000000000000142,1359,12,63,71
0.10000000000000142,1359,13,63,45
0.10000000000000142,1359,14,63,46
0.10000000000000142,1359,15,63,35
0.09999999999999432,1360,0,63,44
0.10000000000000142,1360,1,63,30
0.10000000000000142,1360,2,63,33
0.10000000000000142,1360,3,63,47
0.10000000000000142,1360,4,63,29
0.09999999999999432,1360,5,63,38
0.10000000000000142,1360,6,63,38
0.09999999999999432,1360,7,63,33
0.10000000000000142,1360,8,63,28
0.10000000000000142,1360,9,63,45
0.10000000000000142,1360,10,63,28
0.09999999999999432,1360,11,63,46
0.10000000000000142,1360,12,63,35
0.09999999999999432,1360,13,63,48
0.10000000000000142,1360,14,63,25
0.10000000000000142,1360,15,63,43
0.10000000000000142,1361,0,63,36
0.10000000000000142,1361,1,63,29
0.10000000000000142,1361,2,63,47
0.10000000000000142,1361,3,63,30
0.09999999999999432,1361,4,63,39
0.10000000000000142,1361,5,63,31
0.10000000000000142,1361,6,63,43
0.10000000000000142,1361,7,63,49
0.10000000000000142,1361,8,63,35
0.09999999999999432,1361,9,63,36
0.10000000000000142,1361,10,63,40
0.10000000000000142,1361,11,63,46
0.09999999999999432,1361,12,63,28
0.10000000000000142,1361,13,63,21
0.10000000000000142,1361,14,63,56
0.10000000000000142,1361,15,63,42
0.09999999999999432,1362,0,63,29
0.10000000000000142,1362,1,63,40
0.10000000000000142,1362,2,63,30
0.10000000000000142,1362,3,63,38
0.10000000000000142,1362,4,63,36
0.10000000000000142,1362,5,63,29
0.09999999999999432,1362,6,63,31
0.09999999999999432,1362,7,63,31
0.10000000000000142,1362,8,63,27
0.10000000000000142,1362,9,63,37
0.10000000000000142,1362,10,63,49
0.10000000000000142,1362,11,63,54
0.10000000000000142,1362,12,63,38
0.10000000000000142,1362,13,63,50
0.10000000000000142,1362,14,63,30
0.10000000000000142,1362,15,63,39
0.10000000000000142,1363,0,63,61
0.10000000000000142,1363,1,63,42
0.10000000000000142,1363,2,63,44
0.10000000000000142,1363,3,63,51
0.09999999999999432,1363,4,63,43
0.10000000000000142,1363,5,63,40
0.10000000000000142,1363,6,63,48
0.10000000000000142,1363,7,63,42
0.10000000000000142,1363,8,63,47
0.10000000000000142,1363,9,63,26
0.10000000000000142,1363,10,63,36
0.10000000000000142,1363,11,63,41
0.10000000000000142,1363,12,63,39
0.10000000000000142,1363,13,63,36
0.10000000000000142,1363,14,63,38
0.09999999999999432,1363,15,63,32
0.10000000000000142,1364,0,63,25
0.09999999999999432,1364,1,63,32
0.10000000000000142,1364,2,63,31
0.10000000000000142,1364,3,63,35
0.10000000000000142,1364,4,63,41
0.10000000000000142,1364,5,63,36
0.10000000000000142,1364,6,63,41
0.10000000000000142,1364,7,63,51
0.10000000000000142,1364,8,63,29
0.09999999999999432,1364,9,63,41
0.09999999999999432,1364,10,63,37
0.09999999999999432,1364,11,63,35
0.09999999999999432,1364,12,63,35
0.09999999999999432,1364,13,63,33
0.09999999999999432,1364,14,63,36
0.10000000000000853,1364,15,63,33
0.10000000000000853,1365,0,63,28
0.09999999999999432,1365,1,63,31
0.10000000000000853,1365,2,63,33
0.09999999999999432,1365,3,63,32
0.10000000000000853,1365,4,63,33
0.09999999999999432,1365,5,63,38
0.09999999999999432,1365,6,63,43
0.09999999999999432,1365,7,63,46
0.09999999999999432,1365,8,63,42
0.09999999999999432,1365,9,63,53
0.10000000000000853,1365,10,63,40
0.09999999999999432,1365,11,63,50
0.10000000000000853,1365,12,63,43
0.10000000000000853,1365,13,63,55
0.10000000000000853,1365,14,63,46
0.10000000000000853,1365,15,63,37
0.09999999999999432,1366,0,63,33
0.09999999999999432,1366,1,63,41
0.10000000000000853,1366,2,63,42
0.09999999999999432,1366,3,63,45
0.09999999999999432,1366,4,63,49
0.09999999999999432,1366,5,63,60
0.09999999999999432,1366,6,63,39
0.09999999999999432,1366,7,63,34
0.09999999999999432,1366,8,63,33
0.09999999999999432,1366,9,63,34
0.10000000000000853,1366,10,63,28
0.10000000000000853,1366,11,63,40
0.09999999999999432,1366,12,63,40
0.10000000000000853,1366,13,63,47
0.10000000000000853,1366,14,63,39
0.10000000000000853,1366,15,63,46
0.09999999999999432,1367,0,63,40
0.10000000000000853,1367,1,63,58
0.09999999999999432,1367,2,63,39
0.10000000000000853,1367,3,63,54
0.09999999999999432,1367,4,63,46
0.10000000000000853,1367,5,63,43
0.09999999999999432,1367,6,63,42
0.09999999999999432,1367,7,63,39
0.10000000000000853,1367,8,63,52
0.10000000000000853,1367,9,63,46
0.09999999999999432,1367,10,63,42
0.09999999999999432,1367,11,63,39
0.09999999999999432,1367,12,63,44
0.09999999999999432,1367,13,63,50
0.09999999999999432,1367,14,63,69
0.09999999999999432,1367,15,63,51
0.09999999999999432,1368,0,63,64
0.10000000000000853,1368,1,63,67
0.09999999999999432,1368,2,63,68
0.09999999999999432,1368,3,63,95
0.09999999999999432,1368,4,63,10
0.09999999999999432,1368,5,63,58
0.10000000000000853,1368,6,63,28
0.09999999999999432,1368,7,63,29
0.09999999999999432,1368,8,63,8
0.10000000000000853,1368,9,63,7
0.10000000000000853,1368,10,63,46
0.09999999999999432,1368,11,63,25
0.10000000000000853,1368,12,63,39
0.09999999999999432,1368,13,63,52
0.09999999999999432,1368,14,63,54
0.10000000000000853,1368,15,63,39
0.09999999999999432,1369,0,63,37
0.10000000000000853,1369,1,63,29
0.09999999999999432,1369,2,63,29
0.10000000000000853,1369,3,63,10
0.09999999999999432,1369,4,63,9
0.09999999999999432,1369,5,63,21
0.10000000000000853,1369,6,63,46
0.09999999999999432,1369,7,63,61
0.10000000000000853,1369,8,63,60
0.09999999999999432,1369,9,63,47
0.09999999999999432,1369,10,63,31
0.09999999999999432,1369,11,63,54
0.09999999999999432,1369,12,63,34
0.10000000000000853,1369,13,63,55
0.10000000000000853,1369,14,63,60
0.09999999999999432,1369,15,63,49
0.09999999999999432,1370,0,63,65
0.10000000000000853,1370,1,63,57
0.09999999999999432,1370,2,63,47
0.10000000000000853,1370,3,63,55
0.10000000000000853,1370,4,63,58
0.10000000000000853,1370,5,63,64
0.09999999999999432,1370,6,63,38
0.09999999999999432,1370,7,63,60
0.10000000000000853,1370,8,63,37
0.10000000000000853,1370,9,63,53
0.09999999999999432,1370,10,63,55
0.10000000000000853,1370,11,63,40
0.09999999999999432,1370,12,63,62
0.10000000000000853,1370,13,63,46
0.09999999999999432,1370,14,63,49
0.09999999999999432,1370,15,63,49
0.10000000000000853,1371,0,63,71
0.10000000000000853,1371,1,63,65
0.10000000000000853,1371,2,63,50
0.10000000000000853,1371,3,63,51
0.09999999999999432,1371,4,63,56
0.09999999999999432,1371,5,63,62
0.10000000000000853,1371,6,63,50
0.09999999999999432,1371,7,63,47
0.10000000000000853,1371,8,63,81
0.10000000000000853,1371,9,63,49
0.09999999999999432,1371,10,63,51
0.10000000000000853,1371,11,63,64
0.09999999999999432,1371,12,63,57
0.09999999999999432,1371,13,63,41
0.09999999999999432,1371,14,63,51
0.09999999999999432,1371,15,63,65
0.09999999999999432,1372,0,63,42
0.10000000000000853,1372,1,63,50
0.09999999999999432,1372,2,63,56
0.09999999999999432,1372,3,63,44
0.10000000000000853,1372,4,63,55
0.09999999999999432,1372,5,63,45
0.10000000000000853,1372,6,63,29
0.09999999999999432,1372,7,63,51
0.09999999999999432,1372,8,63,47
0.09999999999999432,1372,9,63,57
0.09999999999999432,1372,10,63,39
0.09999999999999432,1372,11,63,54
0.10000000000000853,1372,12,63,41
0.09999999999999432,1372,13,63,57
0.09999999999999432,1372,14,63,53
0.09999999999999432,1372,15,63,46
0.09999999999999432,1373,0,63,36
0.09999999999999432,1373,1,63,50
0.09999999999999432,1373,2,63,50
0.10000000000000853,1373,3,63,48
0.10000000000000853,1373,4,63,56
0.09999999999999432,1373,5,63,39
0.10000000000000853,1373,6,63,58
0.10000000000000853,1373,7,63,46
0.09999999999999432,1373,8,63,46
0.09999999999999432,1373,9,63,50
0.10000000000000853,1373,10,63,39
0.09999999999999432,1373,11,63,41
0.09999999999999432,1373,12,63,57
0.09999999999999432,1373,13,63,38
0.09999999999999432,1373,14,63,72
0.09999999999999432,1373,15,63,47
0.09999999999999432,1374,0,63,40
0.09999999999999432,1374,1,63,38
0.10000000000000853,1374,2,63,38
0.09999999999999432,1374,3,63,36
0.10000000000000853,1374,4,63,42
0.09999999999999432,1374,5,63,62
0.09999999999999432,1374,6,63,34
0.10000000000000853,1374,7,63,55
0.10000000000000853,1374,8,63,54
0.10000000000000853,1374,9,63,35
0.10000000000000853,1374,10,63,42
0.10000000000002274,1374,11,63,47
0.09999999999999432,1374,12,63,47
0.09999999999999432,1374,13,63,33
0.09999999999999432,1374,14,63,45
0.10000000000002274,1374,15,63,43
0.09999999999999432,1375,0,63,39
0.09999999999999432,1375,1,63,49
0.10000000000002274,1375,2,63,50
0.09999999999999432,1375,3,63,41
0.09999999999999432,1375,4,63,51
0.09999999999999432,1375,5,63,45
0.09999999999999432,1375,6,63,54
0.09999999999999432,1375,7,63,47
0.09999999999999432,1375,8,63,53
0.09999999999999432,1375,9,63,32
0.09999999999999432,1375,10,63,30
0.09999999999999432,1375,11,63,53
0.09999999999999432,1375,12,63,39
0.09999999999999432,1375,13,63,46
0.09999999999999432,1375,14,63,30
0.10000000000002274,1375,15,63,39
0.09999999999999432,1376,0,63,42
0.10000000000002274,1376,1,63,36
0.09999999999999432,1376,2,63,55
0.09999999999999432,1376,3,63,39
0.09999999999999432,1376,4,63,40
0.10000000000002274,1376,5,63,52
0.09999999999999432,1376,6,63,44
0.09999999999999432,1376,7,63,35
0.10000000000002274,1376,8,63,34
0.09999999999999432,1376,9,63,47
0.09999999999999432,1376,10,63,35
0.09999999999999432,1376,11,63,33
0.10000000000002274,1376,12,63,55
0.09999999999999432,1376,13,63,32
0.09999999999999432,1376,14,63,42
0.09999999999999432,1376,15,63,63
0.09999999999999432,1377,0,63,45
0.10000000000002274,1377,1,63,82
0.09999999999999432,1377,2,63,15
0.09999999999999432,1377,3,63,69
0.09999999999999432,1377,4,63,23
0.09999999999999432,1377,5,63,11
0.10000000000002274,1377,6,63,75
0.09999999999999432,1377,7,63,30
0.09999999999999432,1377,8,63,11
0.09999999999999432,1377,9,63,79
0.09999999999999432,1377,10,63,35
0.09999999999999432,1377,11,63,77
0.09999999999999432,1377,12,63,41
0.09999999999999432,1377,13,63,89
0.09999999999999432,1377,14,63,32
0.09999999999999432,1377,15,63,66
0.09999999999999432,1378,0,63,31
0.09999999999999432,1378,1,63,13
0.10000000000002274,1378,2,63,75
0.09999999999999432,1378,3,63,27
0.10000000000002274,1378,4,63,10
0.09999999999999432,1378,5,63,65
0.09999999999999432,1378,6,63,27
0.09999999999999432,1378,7,63,9
0.10000000000002274,1378,8,63,82
0.10000000000002274,1378,9,63,7
0.09999999999999432,1378,10,63,87
0.09999999999999432,1378,11,63,38
0.10000000000002274,1378,12,63,81
0.09999999999999432,1378,13,63,69
0.09999999999999432,1378,14,63,22
0.09999999999999432,1378,15,63,76
0.09999999999999432,1379,0,63,23
0.09999999999999432,1379,1,63,18
0.09999999999999432,1379,2,63,69
0.09999999999999432,1379,3,63,15
0.09999999999999432,1379,4,63,69
0.09999999999999432,1379,5,63,15
0.09999999999999432,1379,6,63,69
0.09999999999999432,1379,7,63,83
0.09999999999999432,1379,8,63,77
0.09999999999999432,1379,9,63,36
0.09999999999999432,1379,10,63,15
0.10000000000002274,1379,11,63,65
0.09999999999999432,1379,12,63,29
0.09999999999999432,1379,13,63,8
0.09999999999999432,1379,14,63,73
0.09999999999999432,1379,15,63,18
0.09999999999999432,1380,0,63,79
0.09999999999999432,1380,1,63,19
0.09999999999999432,1380,2,63,94
0.09999999999999432,1380,3,63,39
0.10000000000002274,1380,4,63,60
0.10000000000002274,1380,5,63,38
0.09999999999999432,1380,6,63,63
0.09999999999999432,1380,7,63,33
0.09999999999999432,1380,8,63,23
0.09999999999999432,1380,9,63,79
0.10000000000002274,1380,10,63,37
0.09999999999999432,1380,11,63,19
0.09999999999999432,1380,12,63,64
0.10000000000002274,1380,13,63,53
0.09999999999999432,1380,14,63,39
0.09999999999999432,1380,15,63,24
0.09999999999999432,1381,0,63,64
0.09999999999999432,1381,1,63,34
0.09999999999999432,1381,2,63,18
0.09999999999999432,1381,3,63,67
0.09999999999999432,1381,4,63,77
0.09999999999999432,1381,5,63,87
0.09999999999999432,1381,6,63,99
0.09999999999999432,1381,7,63,116
0.09999999999999432,1381,8,63,113
0.09999999999999432,1381,9,63,92
0.10000000000002274,1381,10,63,106
0.09999999999999432,1381,11,63,99
0.10000000000002274,1381,12,63,111
0.09999999999999432,1381,13,63,96
0.09999999999999432,1381,14,63,51
0.09999999999999432,1381,15,63,78
0.09999999999999432,1382,0,63,99
0.09999999999999432,1382,1,63,120
0.09999999999999432,1382,2,63,123
0.09999999999999432,1382,3,63,103
0.10000000000002274,1382,4,63,31
0.10000000000002274,1382,5,63,53
0.10000000000002274,1382,6,63,50
0.09999999999999432,1382,7,63,45
0.09999999999999432,1382,8,63,56
0.09999999999999432,1382,9,63,54
0.09999999999999432,1382,10,63,37
0.09999999999999432,1382,11,63,54
0.10000000000002274,1382,12,63,53
0.09999999999999432,1382,13,63,42
0.09999999999999432,1382,14,63,81
0.09999999999999432,1382,15,63,74
0.09999999999999432,1383,0,63,70
0.09999999999999432,1383,1,63,76
0.09999999999999432,1383,2,63,70
0.09999999999999432,1383,3,63,65
0.10000000000002274,1383,4,63,59
0.09999999999999432,1383,5,63,72
0.10000000000002274,1383,6,63,72
0.09999999999999432,1383,7,63,73
0.10000000000002274,1383,8,63,60
0.09999999999999432,1383,9,63,65
0.10000000000002274,1383,10,63,65
0.09999999999999432,1383,11,63,55
0.09999999999999432,1383,12,63,74
0.09999999999999432,1383,13,63,63
0.09999999999999432,1383,14,63,75
0.09999999999999432,1383,15,63,46
0.09999999999999432,1384,0,63,63
0.09999999999999432,1384,1,63,55
0.09999999999999432,1384,2,63,56
0.09999999999999432,1384,3,63,71
0.09999999999999432,1384,4,63,49
0.09999999999999432,1384,5,63,52
0.10000000000002274,1384,6,63,74
0.10000000000002274,1384,7,63,51
0.09999999999999432,1384,8,63,65
0.10000000000002274,1384,9,63,60
0.09999999999999432,1384,10,63,56
0.09999999999999432,1384,11,63,59
0.09999999999999432,1384,12,63,65
0.09999999999999432,1384,13,63,74
0.09999999999999432,1384,14,63,49
0.09999999999999432,1384,15,63,43
0.10000000000002274,1385,0,63,45
0.09999999999999432,1385,1,63,8
0.09999999999999432,1385,2,63,51
0.09999999999999432,1385,3,63,18
0.10000000000002274,1385,4,63,51
0.09999999999999432,1385,5,63,45
0.09999999999999432,1385,6,63,46
0.09999999999999432,1385,7,63,43
0.09999999999999432,1385,8,63,48
0.10000000000002274,1385,9,63,6
0.09999999999999432,1385,10,63,50
0.09999999999999432,1385,11,63,16
0.09999999999999432,1385,12,63,52
0.10000000000002274,1385,13,63,37
0.09999999999999432,1385,14,63,65
0.09999999999999787,1385,15,56,11
0.09999999999999432,1386,0,56,55
0.10000000000000853,1386,1,56,44
0.09999999999999432,1386,2,56,41
0.10000000000000853,1386,3,56,39
0.09999999999999432,1386,4,56,28
0.10000000000000853,1386,5,56,35
0.09999999999999432,1386,6,56,28
0.10000000000000853,1386,7,56,38
0.10000000000000853,1386,8,56,27
0.09999999999999432,1386,9,56,28
0.09999999999999432,1386,10,56,33
0.10000000000000853,1386,11,56,43
0.09999999999999432,1386,12,56,31
0.10000000000000853,1386,13,56,36
0.09999999999999432,1386,14,56,44
0.10000000000000853,1386,15,56,43
0.10000000000000853,1387,0,56,22
0.09999999999999432,1387,1,56,35
0.09999999999999432,1387,2,56,39
0.10000000000000853,1387,3,56,53
0.10000000000000853,1387,4,56,26
0.09999999999999432,1387,5,56,38
0.09999999999999432,1387,6,56,57
0.10000000000000853,1387,7,56,52
0.10000000000000853,1387,8,56,27
0.09999999999999432,1387,9,56,29
0.10000000000000853,1387,10,56,40
0.09999999999999432,1387,11,56,44
0.09999999999999432,1387,12,56,52
0.09999999999999432,1387,13,56,55
0.10000000000000853,1387,14,56,30
0.09999999999999432,1387,15,56,32
0.09999999999999432,1388,0,56,33
0.10000000000000853,1388,1,56,30
0.09999999999999432,1388,2,56,29
0.10000000000000853,1388,3,56,42
0.09999999999999432,1388,4,56,48
0.10000000000000853,1388,5,56,25
0.09999999999999432,1388,6,56,25
0.09999999999999432,1388,7,56,25
0.09999999999999432,1388,8,56,30
0.10000000000000853,1388,9,56,40
0.09999999999999432,1388,10,56,48
0.10000000000000853,1388,11,56,30
0.09999999999999432,1388,12,56,35
0.10000000000000853,1388,13,56,38
0.09999999999999432,1388,14,56,44
0.09999999999999432,1388,15,56,22
0.09999999999999432,1389,0,56,29
0.10000000000000853,1389,1,56,5
0.09999999999999432,1389,2,56,41
0.10000000000000853,1389,3,56,29
0.10000000000000853,1389,4,56,28
0.10000000000000853,1389,5,56,36
0.10000000000000853,1389,6,56,32
0.09999999999999432,1389,7,56,29
0.09999999999999432,1389,8,56,18
0.10000000000000853,1389,9,56,27
0.09999999999999432,1389,10,56,30
0.09999999999999432,1389,11,56,27
0.10000000000000853,1389,12,56,48
0.10000000000000853,1389,13,56,55
0.09999999999999432,1389,14,56,56
0.09999999999999432,1389,15,56,59
0.10000000000000853,1390,0,56,25
0.10000000000000853,1390,1,56,43
0.10000000000000853,1390,2,56,47
0.09999999999999432,1390,3,56,41
0.09999999999999432,1390,4,56,46
0.09999999999999432,1390,5,56,59
0.10000000000002274,1390,6,56,44
0.09999999999999432,1390,7,56,51
0.10000000000002274,1390,8,56,43
0.09999999999999432,1390,9,56,46
0.09999999999999432,1390,10,56,51
0.09999999999999432,1390,11,56,36
0.09999999999999432,1390,12,56,35
0.09999999999999432,1390,13,56,63
0.09999999999999432,1390,14,56,47
0.10000000000002274,1390,15,56,54
0.09999999999999432,1391,0,56,45
0.10000000000002274,1391,1,56,51
0.09999999999999432,1391,2,56,50
0.09999999999999432,1391,3,56,43
0.10000000000002274,1391,4,56,56
0.09999999999999432,1391,5,56,65
0.09999999999999432,1391,6,56,47
0.09999999999999432,1391,7,56,51
0.09999999999999432,1391,8,56,43
0.09999999999999432,1391,9,56,59
0.09999999999999432,1391,10,56,48
0.10000000000002274,1391,11,56,44
0.09999999999999432,1391,12,56,45
0.10000000000002274,1391,13,56,72
0.09999999999999432,1391,14,56,45
0.09999999999999432,1391,15,56,46
0.10000000000002274,1392,0,56,42
0.09999999999999432,1392,1,56,45
0.10000000000002274,1392,2,56,56
0.09999999999999432,1392,3,56,45
0.09999999999999432,1392,4,56,41
0.09999999999999432,1392,5,56,47
0.09999999999999432,1392,6,56,57
0.10000000000002274,1392,7,56,66
0.09999999999999432,1392,8,56,47
0.09999999999999432,1392,9,56,42
0.09999999999999432,1392,10,56,34
0.09999999999999432,1392,11,56,50
0.09999999999999432,1392,12,56,36
0.09999999999999432,1392,13,56,41
0.09999999999999432,1392,14,56,31
0.09999999999999432,1392,15,56,48
0.09999999999999432,1393,0,56,37
0.09999999999999432,1393,1,56,25
0.09999999999999432,1393,2,56,30
0.0022727272727252057,1393,3,56,47
0.10000000000002274,1393,4,56,36
0.09999999999999432,1393,5,56,48
0.09999999999999432,1393,6,56,41
0.09999999999999432,1393,7,56,56
0.10000000000002274,1393,8,56,38
0.09999999999999432,1393,9,56,30
0.09999999999999432,1393,10,56,26
0.09999999999999432,1393,11,56,52
0.09999999999999432,1393,12,56,42
0.09999999999999432,1393,13,56,36
0.09999999999999432,1393,14,56,49
0.09999999999999432,1393,15,56,60
0.10000000000002274,1394,0,56,37
0.09999999999999432,1394,1,56,46
0.09999999999999432,1394,2,56,28
0.0022727272727252057,1394,3,56,51
0.09999999999999432,1394,4,56,28
0.09999999999999432,1394,5,56,50
0.09999999999999432,1394,6,56,42
0.09999999999999432,1394,7,56,76
0.09999999999999432,1394,8,56,37
0.09999999999999432,1394,9,56,46
0.09999999999999432,1394,10,56,57
0.09999999999999432,1394,11,56,53
0.09999999999999432,1394,12,56,62
0.09999999999999432,1394,13,56,82
0.09999999999999432,1394,14,56,42
0.09999999999999432,1394,15,56,41
0.09999999999999432,1395,0,56,45
0.09999999999999432,1395,1,56,77
0.09999999999999432,1395,2,56,47
0.09999999999999432,1395,3,56,51
0.09999999999999432,1395,4,56,52
0.09999999999999432,1395,5,56,88
0.10000000000002274,1395,6,56,45
0.09999999999999432,1395,7,56,49
0.10000000000002274,1395,8,56,44
0.09999999999999432,1395,9,56,70
0.09999999999999432,1395,10,56,39
0.09999999999999998,1395,11,97,65
0.09999999999999964,1395,12,97,41
0.10000000000000009,1395,13,97,65
0.09999999999999964,1395,14,97,65
0.09999999999999964,1395,15,97,68
0.10000000000000053,1396,0,97,77
0.09999999999999964,1396,1,97,72
0.09999999999999964,1396,2,97,75
0.09999999999999964,1396,3,97,127
0.10000000000000142,1396,4,97,6
0.09999999999999964,1396,5,97,67
0.09999999999999964,1396,6,97,7
0.09999999999999964,1396,7,97,16
0.09999999999999964,1396,8,97,127
0.09999999999999964,1396,9,97,69
0.09999999999999964,1396,10,97,6
0.09999999999999964,1396,11,97,127
0.09999999999999964,1396,12,97,6
0.09999999999999964,1396,13,97,66
0.09999999999999964,1396,14,97,6
0.09999999999999964,1396,15,97,16
0.09999999999999964,1397,0,97,127
0.09999999999999964,1397,1,97,72
0.10000000000000142,1397,2,97,7
0.09999999999999964,1397,3,97,127
0.10000000000000142,1397,4,97,6
0.09999999999999787,1397,5,97,63
0.10000000000000142,1397,6,97,7
0.10000000000000142,1397,7,97,16
0.10000000000000142,1397,8,97,127
0.10000000000000142,1397,9,97,65
0.09999999999999787,1397,10,97,6
0.09999999999999787,1397,11,97,127
0.10000000000000142,1397,12,97,7
0.10000000000000142,1397,13,97,72
0.10000000000000142,1397,14,97,7
0.10000000000000142,1397,15,97,127
0.09999999999999787,1398,0,97,127
0.09999999999999787,1398,1,97,5
0.09999999999999787,1398,2,97,69
0.10000000000000142,1398,3,97,7
0.10000000000000142,1398,4,97,16
0.10000000000000142,1398,5,97,127
0.10000000000000142,1398,6,97,61
0.10000000000000142,1398,7,97,6
0.10000000000000142,1398,8,97,127
0.09999999999999787,1398,9,97,6
0.10000000000000142,1398,10,97,66
0.09999999999999787,1398,11,97,7
0.10000000000000142,1398,12,97,18
0.10000000000000142,1398,13,97,127
0.10000000000000142,1398,14,97,62
0.10000000000000142,1398,15,97,7
0.09999999999999787,1399,0,97,127
0.10000000000000142,1399,1,97,4
0.09999999999999787,1399,2,97,62
0.09999999999999787,1399,3,97,7
0.10000000000000142,1399,4,97,18
0.10000000000000142,1399,5,97,127
0.10000000000000142,1399,6,97,60
0.10000000000000142,1399,7,97,7
0.10000000000000142,1399,8,97,127
0.09999999999999787,1399,9,97,6
0.09999999999999787,1399,10,97,58
0.09999999999999787,1399,11,97,7
0.09999999999999787,1399,12,97,17
0.10000000000000142,1399,13,97,101
0.10000000000000142,1399,14,97,63
0.09999999999999787,1399,15,97,58
0.10000000000000142,1400,0,97,55
0.09999999999999432,1400,1,97,127
0.09999999999999432,1400,2,97,127
0.10000000000000142,1400,3,97,122
0.10000000000000142,1400,4,97,127
0.10000000000000142,1400,5,97,127
0.10000000000000142,1400,6,97,125
0.10000000000000142,1400,7,97,10
0.10000000000000142,1400,8,97,119
0.10000000000000142,1400,9,97,12
0.10000000000000142,1400,10,97,127
0.10000000000000142,1400,11,97,12
0.10000000000000142,1400,12,97,127
0.10000000000000142,1400,13,97,127
0.10000000000000142,1400,14,97,119
0.10000000000000142,1400,15,97,12
0.09999999999999432,1401,0,97,127
0.10000000000000142,1401,1,97,11
0.10000000000000142,1401,2,97,126
0.10000000000000142,1401,3,97,11
0.10000000000000142,1401,4,97,105
0.09999999999999432,1401,5,97,127
0.10000000000000142,1401,6,97,127
0.10000000000000142,1401,7,97,127
0.10000000000000142,1401,8,97,12
0.10000000000000142,1401,9,97,127
0.10000000000000142,1401,10,97,11
0.09999999999999432,1401,11,97,125
0.10000000000000142,1401,12,97,12
0.10000000000000142,1401,13,97,127
0.10000000000000142,1401,14,97,127
0.10000000000000142,1401,15,97,127
0.10000000000000142,1402,0,97,112
0.10000000000000142,1402,1,97,127
0.10000000000000142,1402,2,97,126
0.10000000000000142,1402,3,97,6
0.10000000000000142,1402,4,97,106
0.09999999999999432,1402,5,97,10
0.10000000000000142,1402,6,97,127
0.10000000000000142,1402,7,97,127
0.10000000000000142,1402,8,97,127
0.10000000000000142,1402,9,97,105
0.10000000000000142,1402,10,97,11
0.10000000000000142,1402,11,97,12
0.10000000000000142,1402,12,97,29
0.10000000000000142,1402,13,97,127
0.09999999999999432,1402,14,97,127
0.10000000000000142,1402,15,97,127
0.10000000000000142,1403,0,97,127
0.10000000000000142,1403,1,97,127
0.10000000000000142,1403,2,97,127
0.10000000000000142,1403,3,97,127
0.10000000000000142,1403,4,97,127
0.09999999999999432,1403,5,97,12
0.09999999999999432,1403,6,97,127
0.10000000000000142,1403,7,97,11
0.10000000000000142,1403,8,97,79
0.10000000000000142,1403,9,97,11
0.10000000000000142,1403,10,97,127
0.10000000000000142,1403,11,97,127
0.10000000000000142,1403,12,97,127
0.10000000000000142,1403,13,97,122
0.10000000000000142,1403,14,97,12
0.10000000000000142,1403,15,97,127
0.10000000000000142,1404,0,97,11
0.10000000000000142,1404,1,97,125
0.10000000000000142,1404,2,97,11
0.10000000000000142,1404,3,97,127
0.10000000000000142,1404,4,97,127
0.10000000000000142,1404,5,97,127
0.09999999999999432,1404,6,97,122
0.10000000000000142,1404,7,97,12
0.09999999999999432,1404,8,97,127
0.09999999999999432,1404,9,97,11
0.10000000000000142,1404,10,97,127
0.10000000000000142,1404,11,97,12
0.09999999999999432,1404,12,97,127
0.10000000000000142,1404,13,97,127
0.10000000000000142,1404,14,97,127
0.10000000000000142,1404,15,97,127
0.10000000000000142,1405,0,97,11
0.09999999999999432,1405,1,97,127
0.09999999999999432,1405,2,97,22
0.10000000000000142,1405,3,97,55
0.10000000000000142,1405,4,97,11
0.10000000000000142,1405,5,97,14
0.10000000000000142,1405,6,97,11
0.10000000000000142,1405,7,97,73
0.10000000000000142,1405,8,97,9
0.10000000000000142,1405,9,97,127
0.09999999999999432,1405,10,97,10
0.10000000000000142,1405,11,97,67
0.10000000000000142,1405,12,97,10
0.10000000000000142,1405,13,97,16
0.10000000000000142,1405,14,97,127
0.10000000000000142,1405,15,97,75
0.10000000000000142,1406,0,97,9
0.10000000000000142,1406,1,97,127
0.09999999999999432,1406,2,97,9
0.10000000000000853,1406,3,97,63
0.09999999999999432,1406,4,97,11
0.10000000000000853,1406,5,97,14
0.10000000000000853,1406,6,97,7
0.09999999999999432,1406,7,97,69
0.09999999999999432,1406,8,97,9
0.10000000000000853,1406,9,97,127
0.09999999999999432,1406,10,97,91
0.09999999999999432,1406,11,97,127
0.10000000000000853,1406,12,97,127
0.09999999999999432,1406,13,97,127
0.09999999999999432,1406,14,97,127
0.10000000000000853,1406,15,97,127
0.09999999999999432,1407,0,97,127
0.09999999999999432,1407,1,97,127
0.09999999999999432,1407,2,97,127
0.09999999999999432,1407,3,97,127
0.09999999999999432,1407,4,97,127
0.09999999999999432,1407,5,97,19
0.09999999999999432,1407,6,97,127
0.10000000000000853,1407,7,97,17
0.09999999999999432,1407,8,97,127
0.10000000000000853,1407,9,97,20
0.09999999999999432,1407,10,97,126
0.004545454545450411,1407,11,97,127
0.09999999999999432,1407,12,97,127
0.09999999999999432,1407,13,97,125
0.10000000000000853,1407,14,97,18
0.09999999999999432,1407,15,97,127
0.10000000000000853,1408,0,97,15
0.09999999999999432,1408,1,97,127
0.09999999999999432,1408,2,97,18
0.09999999999999432,1408,3,97,127
0.0022727272727252057,1408,4,97,127
0.10000000000000853,1408,5,97,127
0.09999999999999432,1408,6,97,127
0.09999999999999432,1408,7,97,16
0.10000000000000853,1408,8,97,127
0.10000000000000853,1408,9,97,15
0.09999999999999432,1408,10,97,127
0.10000000000000853,1408,11,97,17
0.09999999999999432,1408,12,97,119
0.004545454545450411,1408,13,97,127
0.10000000000000853,1408,14,97,127
0.09999999999999432,1408,15,97,127
0.09999999999999432,1409,0,97,99
0.09999999999999432,1409,1,97,127
0.09999999999999432,1409,2,97,127
0.10000000000000853,1409,3,97,27
0.09999999999999432,1409,4,97,127
0.10000000000000853,1409,5,97,127
0.10000000000000853,1409,6,97,127
0.09999999999999432,1409,7,97,127
0.10000000000000853,1409,8,97,17
0.09999999999999432,1409,9,97,127
0.09999999999999432,1409,10,97,15
0.09999999999999432,1409,11,97,122
0.10000000000000853,1409,12,97,23
0.09999999999999432,1409,13,97,127
0.09999999999999432,1409,14,97,127
0.10000000000000853,1409,15,97,127
0.09999999999999432,1410,0,97,125
0.09999999999999432,1410,1,97,20
0.09999999999999432,1410,2,97,127
0.10000000000000853,1410,3,97,16
0.09999999999999432,1410,4,97,127
0.10000000000000853,1410,5,97,17
0.09999999999999432,1410,6,97,127
0.09999999999999432,1410,7,97,127
0.10000000000000853,1410,8,97,127
0.09999999999999432,1410,9,97,127
0.10000000000000853,1410,10,97,127
0.09999999999999432,1410,11,97,125
0.10000000000000853,1410,12,97,18
0.09999999999999432,1410,13,97,127
0.09999999999999432,1410,14,97,21
0.10000000000000853,1410,15,97,127
0.10000000000000853,1411,0,97,23
0.09999999999999432,1411,1,97,88
0.004545454545450411,1411,2,97,127
0.10000000000000853,1411,3,97,127
0.09999999999999432,1411,4,97,127
0.09999999999999432,1411,5,97,25
0.09999999999999432,1411,6,97,127
0.09999999999999432,1411,7,97,21
0.09999999999999432,1411,8,97,127
0.09999999999999432,1411,9,97,22
0.10000000000000853,1411,10,97,79
0.09999999999999432,1411,11,97,127
0.10000000000000853,1411,12,97,124
0.09999999999999432,1411,13,97,116
0.10000000000000853,1411,14,97,24
0.09999999999999432,1411,15,97,127
0.09999999999999432,1412,0,97,127
0.09999999999999432,1412,1,97,127
0.09999999999999432,1412,2,97,127
0.10000000000000853,1412,3,97,90
0.09999999999999432,1412,4,97,127
0.10000000000000853,1412,5,97,127
0.09999999999999432,1412,6,97,121
0.10000000000000853,1412,7,97,25
0.10000000000000853,1412,8,97,127
0.09999999999999432,1412,9,97,18
0.10000000000000853,1412,10,97,126
0.09999999999999432,1412,11,97,23
0.10000000000000853,1412,12,97,92
0.09999999999999432,1412,13,97,127
0.09999999999999432,1412,14,97,114
0.09999999999999432,1412,15,97,119
0.09999999999999432,1413,0,97,23
0.10000000000000853,1413,1,97,127
0.09999999999999432,1413,2,97,22
0.10000000000000853,1413,3,97,127
0.09999999999999432,1413,4,97,23
0.10000000000000853,1413,5,97,60
0.10000000000000853,1413,6,97,127
0.09999999999999432,1413,7,97,127
0.10000000000000853,1413,8,97,126
0.09999999999999432,1413,9,97,24
0.09999999999999432,1413,10,97,116
0.09999999999999432,1413,11,97,21
0.10000000000000853,1413,12,97,127
0.09999999999999432,1413,13,97,22
0.09999999999999432,1413,14,97,87
0.10000000000000853,1413,15,97,127
0.09999999999999432,1414,0,97,121
0.09999999999999432,1414,1,97,127
0.09999999999999432,1414,2,97,23
0.10000000000000853,1414,3,97,97
0.09999999999999432,1414,4,97,20
0.10000000000000853,1414,5,97,124
0.09999999999999432,1414,6,97,22
0.09999999999999432,1414,7,97,82
0.09999999999999432,1414,8,97,127
0.09999999999999432,1414,9,97,127
0.10000000000000853,1414,10,97,112
0.09999999999999432,1414,11,97,79
0.09999999999999432,1414,12,97,56
0.10000000000000853,1414,13,97,46
0.10000000000000853,1414,14,97,15
0.09999999999999432,1414,15,97,12
0.10000000000000853,1415,0,97,56
0.09999999999999432,1415,1,97,19
0.10000000000000853,1415,2,97,14
0.10000000000000853,1415,3,97,14
0.10000000000000853,1415,4,97,52
0.10000000000000853,1415,5,97,14
0.09999999999999432,1415,6,97,15
0.09999999999999432,1415,7,97,18
0.09999999999999432,1415,8,97,50
0.09999999999999432,1415,9,97,19
0.09999999999999432,1415,10,97,17
0.09999999999999432,1415,11,97,127
0.10000000000000853,1415,12,97,63
0.09999999999999432,1415,13,97,39
0.10000000000000853,1415,14,97,127
0.10000000000000853,1415,15,97,61
0.10000000000000853,1416,0,97,61
0.09999999999999432,1416,1,97,16
0.10000000000000853,1416,2,97,71
0.09999999999999432,1416,3,97,15
0.09999999999999432,1416,4,97,127
0.09999999999999432,1416,5,97,13
0.10000000000000853,1416,6,97,63
0.09999999999999432,1416,7,97,13
0.09999999999999432,1416,8,97,58
0.10000000000000853,1416,9,97,126
0.10000000000000853,1416,10,97,63
0.10000000000000853,1416,11,97,100
0.10000000000000853,1416,12,97,127
0.09999999999999432,1416,13,97,115
0.09999999999999432,1416,14,97,81
0.10000000000000853,1416,15,97,127
0.09999999999999432,1417,0,97,42
0.09999999999999432,1417,1,97,67
0.10000000000000853,1417,2,97,127
0.09999999999999432,1417,3,97,112
0.09999999999999432,1417,4,97,104
0.09999999999999432,1417,5,97,127
0.10000000000002274,1417,6,97,127
0.10000000000002274,1417,7,97,123
0.09999999999999432,1417,8,97,123
0.10000000000002274,1417,9,97,16
0.10000000000002274,1417,10,97,112
0.10000000000002274,1417,11,97,99
0.09999999999999432,1417,12,97,127
0.09999999999999432,1417,13,97,127
0.09999999999999432,1417,14,97,115
0.09999999999999432,1417,15,97,127
0.10000000000002274,1418,0,97,16
0.09999999999999432,1418,1,97,120
0.10000000000002274,1418,2,97,16
0.09999999999999432,1418,3,97,99
0.09999999999999432,1418,4,97,127
0.09999999999999432,1418,5,97,123
0.09999999999999432,1418,6,97,127
0.10000000000002274,1418,7,97,127
0.09999999999999432,1418,8,97,15
0.09999999999999432,1418,9,97,127
0.10000000000002274,1418,10,97,15
0.10000000000002274,1418,11,97,127
0.09999999999999432,1418,12,97,124
0.10000000000002274,1418,13,97,127
0.09999999999999432,1418,14,97,127
0.09999999999999432,1418,15,97,108
0.10000000000002274,1419,0,97,94
0.09999999999999432,1419,1,97,127
0.09999999999999432,1419,2,97,124
0.10000000000002274,1419,3,97,108
0.09999999999999432,1419,4,97,16
0.09999999999999432,1419,5,97,127
0.10000000000002274,1419,6,97,16
0.09999999999999432,1419,7,97,101
0.09999999999999432,1419,8,97,14
0.09999999999999432,1419,9,97,100
0.09999999999999432,1419,10,97,127
0.09999999999999432,1419,11,97,115
0.09999999999999432,1419,12,97,117
0.10000000000002274,1419,13,97,124
0.09999999999999432,1419,14,97,14
0.09999999999999432,1419,15,97,101
0.09999999999999432,1420,0,97,91
0.10000000000002274,1420,1,97,127
0.09999999999999432,1420,2,97,127
0.09999999999999432,1420,3,97,127
0.09999999999999432,1420,4,97,125
0.09999999999999432,1420,5,97,13
0.10000000000002274,1420,6,97,127
0.09999999999999432,1420,7,97,13
0.09999999999999432,1420,8,97,119
0.09999999999999432,1420,9,97,15
0.10000000000002274,1420,10,97,127
0.09999999999999432,1420,11,97,127
0.10000000000002274,1420,12,97,112
0.09999999999999432,1420,13,97,31
0.09999999999999432,1420,14,97,81
0.09999999999999432,1420,15,97,122
0.09999999999999432,1421,0,97,117
0.09999999999999432,1421,1,97,108
0.09999999999999432,1421,2,97,35
0.10000000000002274,1421,3,97,127
0.09999999999999432,1421,4,97,127
0.09999999999999432,1421,5,97,72
0.10000000000002274,1421,6,97,127
0.09999999999999432,1421,7,97,28
0.10000000000002274,1421,8,97,105
0.09999999999999432,1421,9,97,26
0.09999999999999432,1421,10,97,84
0.09999999999999432,1421,11,97,105
0.09999999999999432,1421,12,97,11
0.09999999999999432,1421,13,97,106
0.10000000000002274,1421,14,97,8
0.10000000000002274,1421,15,97,96
0.09999999999999432,1422,0,97,29
0.09999999999999432,1422,1,97,8
0.09999999999999432,1422,2,97,121
0.09999999999999432,1422,3,97,12
0.09999999999999432,1422,4,97,27
0.10000000000002274,1422,5,97,7
0.10000000000002274,1422,6,97,108
0.09999999999999432,1422,7,97,29
0.09999999999999432,1422,8,97,87
0.09999999999999432,1422,9,97,101
0.09999999999999432,1422,10,97,11
0.09999999999999432,1422,11,97,119
0.09999999999999432,1422,12,97,11
0.09999999999999432,1422,13,97,108
0.09999999999999432,1422,14,97,27
0.10000000000002274,1422,15,97,8
0.09999999999999432,1423,0,97,127
0.09999999999999432,1423,1,97,12
0.09999999999999432,1423,2,97,26
0.09999999999999432,1423,3,97,7
0.09999999999999432,1423,4,97,70
0.09999999999999432,1423,5,97,29
0.10000000000002274,1423,6,97,74
0.09999999999999432,1423,7,97,111
0.09999999999999432,1423,8,97,14
0.10000000000002274,1423,9,97,105
0.09999999999999432,1423,10,97,14
0.09999999999999432,1423,11,97,104
0.09999999999999432,1423,12,97,24
0.09999999999999432,1423,13,97,7
0.09999999999999432,1423,14,97,127
0.09999999999999432,1423,15,97,14
0.10000000000002274,1424,0,97,28
0.10000000000002274,1424,1,97,8
0.09999999999999432,1424,2,97,99
0.09999999999999432,1424,3,97,28
0.09999999999999432,1424,4,97,74
0.09999999999999432,1424,5,97,108
0.09999999999999432,1424,6,97,11
0.10000000000002274,1424,7,97,120
0.10000000000002274,1424,8,97,10
0.09999999999999432,1424,9,97,99
0.09999999999999432,1424,10,97,27
0.09999999999999432,1424,11,97,9
0.09999999999999432,1424,12,97,127
0.09999999999999432,1424,13,97,15
0.09999999999999432,1424,14,97,26
0.10000000000002274,1424,15,97,6
0.09999999999999432,1425,0,97,116
0.09999999999999432,1425,1,97,28
0.09999999999999432,1425,2,97,83
0.09999999999999432,1425,3,97,114
0.09999999999999432,1425,4,97,11
0.09999999999999432,1425,5,97,112
0.09999999999999432,1425,6,97,10
0.09999999999999432,1425,7,97,96
0.10000000000002274,1425,8,97,26
0.10000000000002274,1425,9,97,6
0.09999999999999432,1425,10,97,127
0.09999999999999432,1425,11,97,11
0.09999999999999432,1425,12,97,28
0.09999999999999432,1425,13,97,7
0.09999999999999432,1425,14,97,103
0.09999999999999432,1425,15,97,21
0.10000000000002274,1426,0,97,79
0.09999999999999432,1426,1,97,100
0.10000000000002274,1426,2,97,12
0.10000000000002274,1426,3,97,99
0.09999999999999432,1426,4,97,9
0.09999999999999432,1426,5,97,109
0.09999999999999432,1426,6,97,28
0.09999999999999432,1426,7,97,8
0.09999999999999432,1426,8,97,127
0.10000000000002274,1426,9,97,12
0.10000000000002274,1426,10,97,26
0.09999999999999432,1426,11,97,7
0.09999999999999432,1426,12,97,105
0.09999999999999432,1426,13,97,29
0.09999999999999432,1426,14,97,81
0.09999999999999432,1426,15,97,108
0.09999999999999432,1427,0,97,11
0.09999999999999432,1427,1,97,115
0.09999999999999432,1427,2,97,14
0.09999999999999432,1427,3,97,99
0.09999999999999432,1427,4,97,24
0.09999999999999432,1427,5,97,4
0.09999999999999432,1427,6,97,127
0.09999999999999432,1427,7,97,13
0.09999999999999432,1427,8,97,26
0.10000000000002274,1427,9,97,8
0.09999999999999432,1427,10,97,126
0.10000000000002274,1427,11,97,30
0.09999999999999432,1427,12,97,95
0.09999999999999432,1427,13,97,114
0.09999999999999432,1427,14,97,92
0.09999999999999432,1427,15,97,127
0.10000000000002274,1428,0,97,52
0.09999999999999432,1428,1,97,116
0.10000000000002274,1428,2,97,59
0.09999999999999432,1428,3,97,38
0.10000000000002274,1428,4,97,23
0.09999999999999432,1428,5,97,2
0.09999999999999432,1428,6,97,4
0.09999999999999432,1428,7,97,3
0.10000000000002274,1428,8,97,26
0.09999999999999432,1428,9,97,3
0.09999999999999432,1428,10,97,4
0.09999999999999432,1428,11,97,3
0.09999999999999432,1428,12,97,21
0.09999999999999432,1428,13,97,3
0.09999999999999432,1428,14,97,4
0.09999999999999432,1428,15,97,3
0.09999999999999432,1429,0,97,32
0.09999999999999432,1429,1,97,1
0.10000000000002274,1429,2,97,24
0.09999999999999432,1429,3,97,28
0.09999999999999432,1429,4,97,7
0.09999999999999432,1429,5,97,4
0.10000000000002274,1429,6,97,17
0.09999999999999432,1429,7,97,22
0.09999999999999432,1429,8,97,38
0.09999999999999432,1429,9,97,24
0.10000000000002274,1429,10,97,32
0.09999999999999432,1429,11,97,13
0.09999999999999432,1429,12,97,30
0.09999999999999432,1429,13,97,28
0.10000000000002274,1429,14,97,14
0.09999999999999432,1429,15,97,29
0.10000000000002274,1430,0,97,29
0.09999999999999432,1430,1,97,26
0.09999999999999432,1430,2,97,127
0.09999999999999432,1430,3,97,127
0.09999999999999432,1430,4,97,127
0.09999999999999432,1430,5,97,127
0.10000000000002274,1430,6,97,127
0.09999999999999432,1430,7,97,116
0.09999999999999432,1430,8,97,100
0.09999999999999432,1430,9,97,127
0.09999999999999432,1430,10,97,12
0.0022727272727252057,1430,11,97,96
0.10000000000002274,1430,12,97,97
0.09999999999999432,1430,13,97,95
0.09999999999999432,1430,14,97,127
0.09999999999999432,1430,15,97,118
0.09999999999999432,1431,0,97,101
0.09999999999999432,1431,1,97,119
0.09999999999999432,1431,2,97,95
0.09999999999999432,1431,3,97,107
0.09999999999999432,1431,4,97,34
0.09999999999999432,1431,5,97,127
0.09999999999999432,1431,6,97,30
0.09999999999999432,1431,7,97,113
0.09999999999999432,1431,8,97,30
0.09999999999999432,1431,9,97,98
0.09999999999999432,1431,10,97,127
0.09999999999999432,1431,11,97,15
0.09999999999999432,1431,12,97,127
0.09999999999999432,1431,13,97,97
0.10000000000002274,1431,14,97,36
0.09999999999999432,1431,15,97,16
0.004545454545450411,1432,0,97,127
0.09999999999999432,1432,1,97,127
0.10000000000002274,1432,2,97,127
0.09999999999999432,1432,3,97,127
0.10000000000002274,1432,4,97,127
0.09999999999999432,1432,5,97,104
0.09999999999999432,1432,6,97,37
0.09999999999999432,1432,7,97,127
0.10000000000002274,1432,8,97,35
0.09999999999999432,1432,9,97,118
0.09999999999999432,1432,10,97,34
0.10000000000002274,1432,11,97,123
0.09999999999999432,1432,12,97,127
0.09999999999999432,1432,13,97,17
0.09999999999999432,1432,14,97,127
0.09999999999999432,1432,15,97,101
0.09999999999999432,1433,0,97,26
0.09999999999999432,1433,1,97,46
0.09999999999999432,1433,2,97,29
0.09999999999999432,1433,3,97,127
0.09999999999999432,1433,4,97,76
0.09999999999999432,1433,5,97,57
0.09999999999999432,1433,6,97,46
0.09999999999999432,1433,7,97,35
0.056818181818186986,1433,8,97,36
0.09999999999999999,1433,9,61,19
0.04772727272727273,1433,10,61,90
0.10000000000000003,1433,11,61,83
0.09999999999999998,1433,12,61,16
0.09999999999999987,1433,13,61,83
0.09999999999999987,1433,14,61,30
0.10000000000000009,1433,15,61,88
0.06818181818181812,1434,0,61,104
0.004545454545454408,1434,1,61,91
0.09999999999999964,1434,2,61,66
0.10000000000000009,1434,3,61,96
0.10000000000000009,1434,4,61,69
0.10000000000000009,1434,5,61,78
0.10000000000000009,1434,6,61,83
0.10000000000000009,1434,7,61,104
0.10000000000000053,1434,8,61,83
0.09999999999999964,1434,9,61,116
0.10000000000000053,1434,10,61,68
0.10000000000000053,1434,11,61,71
0.09999999999999964,1434,12,61,100
0.09999999999999964,1434,13,61,79
0.09999999999999964,1434,14,61,106
0.09999999999999964,1434,15,61,88
0.09999999999999964,1435,0,61,18
0.10000000000000053,1435,1,61,83
0.10000000000000053,1435,2,61,109
0.10000000000000053,1435,3,61,84
0.09999999999999964,1435,4,61,77
0.09999999999999964,1435,5,61,74
0.10000000000000053,1435,6,61,67
0.09999999999999964,1435,7,61,92
0.09999999999999964,1435,8,61,85
0.09999999999999964,1435,9,61,63
0.013636363636363669,1435,10,61,78
0.10000000000000142,1435,11,61,99
0.09999999999999964,1435,12,61,32
0.09999999999999964,1435,13,61,72
0.09999999999999964,1435,14,61,16
0.09999999999999964,1435,15,61,81
0.09999999999999964,1436,0,61,40
0.09999999999999964,1436,1,61,59
0.09999999999999964,1436,2,61,9
0.09999999999999964,1436,3,61,65
0.09999999999999964,1436,4,61,28
0.09999999999999964,1436,5,61,91
0.09999999999999964,1436,6,61,13
0.10000000000000142,1436,7,61,69
0.09999999999999964,1436,8,61,26
0.09999999999999964,1436,9,61,50
0.09999999999999964,1436,10,61,12
0.09999999999999964,1436,11,61,100
0.09999999999999964,1436,12,61,37
0.09999999999999964,1436,13,61,74
0.09999999999999787,1436,14,61,14
0.10000000000000142,1436,15,61,81
0.10000000000000142,1437,0,61,51
0.10000000000000142,1437,1,61,48
0.09999999999999787,1437,2,61,9
0.10000000000000142,1437,3,61,68
0.09999999999999787,1437,4,61,32
0.10000000000000142,1437,5,61,70
0.10000000000000142,1437,6,61,13
0.10000000000000142,1437,7,61,91
0.10000000000000142,1437,8,61,55
0.10000000000000142,1437,9,61,42
0.09999999999999787,1437,10,61,36
0.09999999999999787,1437,11,61,87
0.09999999999999787,1437,12,61,16
0.10000000000000142,1437,13,61,86
0.10000000000000142,1437,14,61,35
0.10000000000000142,1437,15,61,63
0.10000000000000142,1438,0,61,10
0.10000000000000142,1438,1,61,68
0.09999999999999787,1438,2,61,29
0.09999999999999787,1438,3,61,75
0.10000000000000142,1438,4,61,14
0.10000000000000142,1438,5,61,81
0.10000000000000142,1438,6,61,24
0.10000000000000142,1438,7,61,66
0.10000000000000142,1438,8,61,15
0.10000000000000142,1438,9,61,85
0.09999999999999787,1438,10,61,36
0.09999999999999787,1438,11,61,65
0.09999999999999787,1438,12,61,19
0.09999999999999787,1438,13,61,65
0.10000000000000142,1438,14,61,34
0.09999999999999787,1438,15,61,53
0.10000000000000142,1439,0,61,9
0.10000000000000142,1439,1,61,80
0.10000000000000142,1439,2,61,29
0.09999999999999787,1439,3,61,54
0.10000000000000142,1439,4,61,10
0.09999999999999787,1439,5,61,90
0.09999999999999787,1439,6,61,20
0.10000000000000142,1439,7,61,33
0.10000000000000142,1439,8,61,15
0.10000000000000142,1439,9,61,71
0.09999999999999787,1439,10,61,79
0.09999999999999787,1439,11,61,21
0.09999999999999787,1439,12,61,62
0.10000000000000142,1439,13,61,49
0.09999999999999432,1439,14,61,47
0.10000000000000142,1439,15,61,53
0.10000000000000142,1440,0,61,38
0.10000000000000142,1440,1,61,52
0.10000000000000142,1440,2,61,48
0.09999999999999432,1440,3,61,43
0.10000000000000142,1440,4,61,40
0.10000000000000142,1440,5,61,34
0.09999999999999432,1440,6,61,48
0.10000000000000142,1440,7,61,48
0.10000000000000142,1440,8,61,42
0.10000000000000142,1440,9,61,44
0.09999999999999432,1440,10,61,58
0.09999999999999432,1440,11,61,51
0.10000000000000142,1440,12,61,38
0.10000000000000142,1440,13,61,51
0.10000000000000142,1440,14,61,39
0.10000000000000142,1440,15,61,44
0.10000000000000142,1441,0,61,43
0.09999999999999432,1441,1,61,43
0.10000000000000142,1441,2,61,36
0.10000000000000142,1441,3,61,41
0.10000000000000142,1441,4,61,36
0.10000000000000142,1441,5,61,41
0.10000000000000142,1441,6,61,45
0.10000000000000142,1441,7,61,56
0.10000000000000142,1441,8,61,56
0.10000000000000142,1441,9,61,33
0.06818181818182012,1441,10,61,45
0.10000000000000142,1441,11,61,67
0.10000000000000142,1441,12,61,22
0.10000000000000142,1441,13,61,53
0.10000000000000142,1441,14,61,58
0.10000000000000142,1441,15,61,46
0.10000000000000142,1442,0,61,36
0.10000000000000142,1442,1,61,16
0.10000000000000142,1442,2,61,33
0.10000000000000142,1442,3,61,49
0.10000000000000142,1442,4,61,41
0.10000000000000142,1442,5,61,47
0.10000000000000142,1442,6,61,42
0.09999999999999432,1442,7,61,54
0.09999999999999432,1442,8,61,28
0.10000000000000142,1442,9,61,31
0.10000000000000142,1442,10,61,35
0.10000000000000142,1442,11,61,45
0.10000000000000142,1442,12,61,43
0.10000000000000142,1442,13,61,51
0.10000000000000142,1442,14,61,45
0.10000000000000142,1442,15,61,20
0.10000000000000142,1443,0,61,48
0.09999999999999432,1443,1,61,45
0.10000000000000142,1443,2,61,31
0.09999999999999432,1443,3,61,51
0.09999999999999432,1443,4,61,20
0.10000000000000142,1443,5,61,25
0.10000000000000142,1443,6,61,52
0.09999999999999432,1443,7,61,40
0.10000000000000142,1443,8,61,8
0.10000000000000142,1443,9,61,41
0.10000000000000142,1443,10,61,7
0.10000000000000142,1443,11,61,42
0.10000000000000142,1443,12,61,11
0.09999999999999432,1443,13,61,45
0.10000000000000142,1443,14,61,7
0.10000000000000142,1443,15,61,54
0.10000000000000142,1444,0,61,7
0.10000000000000142,1444,1,61,39
0.10000000000000142,1444,2,61,8
0.10000000000000142,1444,3,61,55
0.10000000000000142,1444,4,61,17
0.09999999999999432,1444,5,61,56
0.09999999999999432,1444,6,61,5
0.09999999999999432,1444,7,61,42
0.09999999999999432,1444,8,61,8
0.09999999999999432,1444,9,61,32
0.09999999999999432,1444,10,61,5
0.09999999999999432,1444,11,61,40
0.10000000000000853,1444,12,61,13
0.09999999999999432,1444,13,61,60
0.10000000000000853,1444,14,61,5
0.09999999999999432,1444,15,61,43
0.10000000000000853,1445,0,61,16
0.09999999999999432,1445,1,61,43
0.10000000000000853,1445,2,61,5
0.09999999999999432,1445,3,61,40
0.10000000000000853,1445,4,61,12
0.09999999999999432,1445,5,61,46
0.10000000000000853,1445,6,61,7
0.09999999999999432,1445,7,61,60
0.09999999999999432,1445,8,61,13
0.10000000000000853,1445,9,61,50
0.10000000000000853,1445,10,61,7
0.09999999999999432,1445,11,61,55
0.10000000000000853,1445,12,61,9
0.10000000000000853,1445,13,61,41
0.09999999999999432,1445,14,61,7
0.09999999999999432,1445,15,61,40
0.10000000000000853,1446,0,61,14
0.09999999999999432,1446,1,61,39
0.10000000000000853,1446,2,61,5
0.09999999999999432,1446,3,61,43
0.10000000000000853,1446,4,61,10
0.09999999999999432,1446,5,61,54
0.10000000000000853,1446,6,61,9
0.09999999999999432,1446,7,61,36
0.10000000000000853,1446,8,61,17
0.09999999999999432,1446,9,61,70
0.10000000000000853,1446,10,61,6
0.09999999999999432,1446,11,61,50
0.10000000000000853,1446,12,61,8
0.10000000000000853,1446,13,61,45
0.09999999999999432,1446,14,61,36
0.10000000000000853,1446,15,61,67
0.10000000000000853,1447,0,61,40
0.09999999999999432,1447,1,61,47
0.10000000000000853,1447,2,61,32
0.09999999999999432,1447,3,61,49
0.09999999999999432,1447,4,61,15
0.09999999999999432,1447,5,61,49
0.10000000000000853,1447,6,61,25
0.09999999999999432,1447,7,61,65
0.10000000000000853,1447,8,61,22
0.10000000000000853,1447,9,61,45
0.09999999999999432,1447,10,61,8
0.09999999999999432,1447,11,61,66
0.10000000000000853,1447,12,61,9
0.09999999999999432,1447,13,61,64
0.09999999999999432,1447,14,61,7
0.09999999999999432,1447,15,61,37
0.09999999999999432,1448,0,61,79
0.10000000000000853,1448,1,61,91
0.06818181818182723,1448,2,61,104
0.09999999999999432,1448,3,61,36
0.10000000000000853,1448,4,61,57
0.10000000000000853,1448,5,61,46
0.10000000000000853,1448,6,61,115
0.09999999999999432,1448,7,61,92
0.09999999999999432,1448,8,61,74
0.10000000000000853,1448,9,61,92
0.09999999999999432,1448,10,61,76
0.09999999999999432,1448,11,61,102
0.09999999999999432,1448,12,61,25
0.09999999999999432,1448,13,61,98
0.09999999999999432,1448,14,61,68
0.09999999999999432,1448,15,61,90
0.09999999999999432,1449,0,61,89
0.09999999999999432,1449,1,61,97
0.10000000000000853,1449,2,61,81
0.10000000000000853,1449,3,61,101
0.09999999999999432,1449,4,61,82
0.09999999999999432,1449,5,61,89
0.09999999999999432,1449,6,61,22
0.10000000000000853,1449,7,61,72
0.10000000000000853,1449,8,61,110
0.09999999999999432,1449,9,61,85
0.10000000000000853,1449,10,61,74
0.10000000000000853,1449,11,61,57
0.09999999999999432,1449,12,61,69
0.10000000000000853,1449,13,61,85
0.09999999999999432,1449,14,61,89
0.10000000000000853,1449,15,61,83
0.10000000000000853,1450,0,61,52
0.09999999999999432,1450,1,61,12
0.10000000000000853,1450,2,61,58
0.09999999999999432,1450,3,61,23
0.10000000000000853,1450,4,61,65
0.09999999999999432,1450,5,61,24
0.10000000000000853,1450,6,61,41
0.09999999999999432,1450,7,61,18
0.10000000000000853,1450,8,61,80
0.10000000000000853,1450,9,61,52
0.09999999999999432,1450,10,61,18
0.10000000000000853,1450,11,61,58
0.10000000000000853,1450,12,61,43
0.09999999999999432,1450,13,61,18
0.10000000000000853,1450,14,61,54
0.10000000000000853,1450,15,61,55
0.09999999999999432,1451,0,61,19
0.10000000000000853,1451,1,61,61
0.09999999999999432,1451,2,61,20
0.10000000000000853,1451,3,61,36
0.09999999999999432,1451,4,61,20
0.09999999999999432,1451,5,61,72
0.10000000000000853,1451,6,61,50
0.10000000000000853,1451,7,61,23
0.10000000000000853,1451,8,61,66
0.09999999999999432,1451,9,61,41
0.09999999999999432,1451,10,61,22
0.09999999999999432,1451,11,61,54
0.09999999999999432,1451,12,61,47
0.09999999999999432,1451,13,61,23
0.10000000000000853,1451,14,61,54
0.09999999999999432,1451,15,61,25
0.10000000000000853,1452,0,61,46
0.10000000000000853,1452,1,61,32
0.06818181818182723,1452,2,61,45
0.10000000000000853,1452,3,61,29
0.09999999999999432,1452,4,61,74
0.09999999999999432,1452,5,61,28
0.09999999999999432,1452,6,61,83
0.09999999999999432,1452,7,61,39
0.09999999999999432,1452,8,61,67
0.10000000000000853,1452,9,61,22
0.09999999999999432,1452,10,61,59
0.09999999999999432,1452,11,61,31
0.09999999999999432,1452,12,61,73
0.10000000000000853,1452,13,61,65
0.09999999999999432,1452,14,61,86
0.09999999999999432,1452,15,61,70
0.09999999999999432,1453,0,61,33
0.10000000000000853,1453,1,61,70
0.09999999999999432,1453,2,61,63
0.10000000000000853,1453,3,61,21
0.09999999999999432,1453,4,61,33
0.09999999999999432,1453,5,61,26
0.09999999999999432,1453,6,61,22
0.09999999999999432,1453,7,61,44
0.09999999999999432,1453,8,61,40
0.09999999999999432,1453,9,61,27
0.09999999999999432,1453,10,61,35
0.10000000000000853,1453,11,61,30
0.10000000000000853,1453,12,61,34
0.09999999999999432,1453,13,61,13
0.09999999999999432,1453,14,61,25
0.09999999999999432,1453,15,61,28
0.10000000000000853,1454,0,61,35
0.09999999999999432,1454,1,61,42
0.09999999999999432,1454,2,61,24
0.10000000000000853,1454,3,61,24
0.09999999999999432,1454,4,61,30
0.09999999999999432,1454,5,61,45
0.09999999999999432,1454,6,61,33
0.10000000000002274,1454,7,61,43
0.09999999999999432,1454,8,61,40
0.09999999999999432,1454,9,61,48
0.09999999999999432,1454,10,61,35
0.09999999999999432,1454,11,61,48
0.09999999999999432,1454,12,61,25
0.10000000000002274,1454,13,61,38
0.10000000000002274,1454,14,61,44
0.09999999999999432,1454,15,61,56
0.09999999999999432,1455,0,61,33
0.10000000000002274,1455,1,61,50
0.09999999999999432,1455,2,61,34
0.09999999999999432,1455,3,61,53
0.10000000000002274,1455,4,61,36
0.09999999999999432,1455,5,61,49
0.09999999999999432,1455,6,61,39
0.10000000000002274,1455,7,61,40
0.10000000000002274,1455,8,61,31
0.09999999999999432,1455,9,61,42
0.09999999999999432,1455,10,61,30
0.10000000000002274,1455,11,61,41
0.09999999999999432,1455,12,61,44
0.09999999999999432,1455,13,61,25
0.10000000000002274,1455,14,61,36
0.09999999999999432,1455,15,61,50
0.09999999999999432,1456,0,61,41
0.09999999999999432,1456,1,61,48
0.09999999999999432,1456,2,61,39
0.09999999999999432,1456,3,61,47
0.09999999999999432,1456,4,61,30
0.10000000000002274,1456,5,61,54
0.10000000000002274,1456,6,61,30
0.09999999999999432,1456,7,61,46
0.09999999999999432,1456,8,61,42
0.09999999999999432,1456,9,61,37
0.09999999999999432,1456,10,61,47
0.10000000000002274,1456,11,61,39
0.10000000000002274,1456,12,61,44
0.09999999999999432,1456,13,61,41
0.10000000000002274,1456,14,61,52
0.10000000000002274,1456,15,61,34
0.09999999999999432,1457,0,61,52
0.09999999999999432,1457,1,61,37
0.10000000000002274,1457,2,61,40
0.09999999999999432,1457,3,61,46
0.09999999999999432,1457,4,61,34
0.10000000000002274,1457,5,61,44
0.09999999999999432,1457,6,61,30
0.09999999999999432,1457,7,61,28
0.09999999999999432,1457,8,61,37
0.09999999999999432,1457,9,61,26
0.09999999999999432,1457,10,61,40
0.10000000000002274,1457,11,61,33
0.09999999999999432,1457,12,61,53
0.09999999999999432,1457,13,61,51
0.09999999999999432,1457,14,61,51
0.09999999999999432,1457,15,61,45
0.09999999999999432,1458,0,61,4
0.10000000000002274,1458,1,61,35
0.09999999999999432,1458,2,61,81
0.10000000000002274,1458,3,61,54
0.09999999999999432,1458,4,61,52
0.09999999999999432,1458,5,61,69
0.09999999999999432,1458,6,61,46
0.10000000000002274,1458,7,61,43
0.09999999999999432,1458,8,61,49
0.09999999999999432,1458,9,61,43
0.10000000000002274,1458,10,61,57
0.09999999999999432,1458,11,61,62
0.09999999999999432,1458,12,61,43
0.09999999999999432,1458,13,61,91
0.09999999999999432,1458,14,61,56
0.09999999999999432,1458,15,61,43
0.09999999999999432,1459,0,61,47
0.09999999999999432,1459,1,61,54
0.09999999999999432,1459,2,61,50
0.09999999999999432,1459,3,61,43
0.09999999999999432,1459,4,61,70
0.09999999999999432,1459,5,61,45
0.09999999999999432,1459,6,61,50
0.10000000000002274,1459,7,61,43
0.09999999999999432,1459,8,61,44
0.09999999999999432,1459,9,61,43
0.09999999999999432,1459,10,61,70
0.09999999999999432,1459,11,61,54
0.10000000000002274,1459,12,61,61
0.09999999999999432,1459,13,61,35
0.10000000000002274,1459,14,61,40
0.09999999999999432,1459,15,61,10
0.09999999999999432,1460,0,61,19
0.09999999999999432,1460,1,61,18
0.09999999999999432,1460,2,61,37
0.09999999999999432,1460,3,61,21
0.09999999999999432,1460,4,61,22
0.03636363636363171,1460,5,61,26
0.09999999999999432,1460,6,61,40
0.09999999999999432,1460,7,61,37
0.10000000000002274,1460,8,61,30
0.10000000000002274,1460,9,61,32
0.09999999999999432,1460,10,61,45
0.10000000000002274,1460,11,61,38
0.09999999999999432,1460,12,61,30
0.09999999999999432,1460,13,61,30
0.09999999999999432,1460,14,61,40
0.09999999999999432,1460,15,61,37
0.09999999999999432,1461,0,61,25
0.09999999999999432,1461,1,61,44
0.09999999999999432,1461,2,61,37
0.10000000000002274,1461,3,61,31
0.09999999999999432,1461,4,61,27
0.09999999999999432,1461,5,61,50
0.10000000000002274,1461,6,61,35
0.09999999999999432,1461,7,61,36
0.09999999999999432,1461,8,61,37
0.09999999999999432,1461,9,61,56
0.09999999999999432,1461,10,61,40
0.09999999999999432,1461,11,61,36
0.09999999999999432,1461,12,61,38
0.09999999999999432,1461,13,61,37
0.09999999999999432,1461,14,61,25
0.09999999999999432,1461,15,61,30
0.09999999999999432,1462,0,61,51
0.024999999999977263,1462,1,61,61
0.09999999999999432,1462,2,61,48
0.09999999999999432,1462,3,61,35
0.09999999999999432,1462,4,61,34
0.09999999999999432,1462,5,61,36
0.10000000000002274,1462,6,61,30
0.09999999999999432,1462,7,61,29
0.09999999999999432,1462,8,61,25
0.09999999999999432,1462,9,61,39
0.10000000000002274,1462,10,61,24
0.09999999999999432,1462,11,61,22
0.09999999999999432,1462,12,61,23
0.06818181818181301,1462,13,61,33
0.09999999999999432,1462,14,61,55
0.09999999999999432,1462,15,61,51
0.09999999999999432,1463,0,61,53
0.09999999999999432,1463,1,61,52
0.09999999999999432,1463,2,61,55
0.09999999999999432,1463,3,61,67
0.09999999999999432,1463,4,61,60
0.09999999999999432,1463,5,61,39
0.10000000000002274,1463,6,61,50
0.09999999999999432,1463,7,61,38
0.09999999999999432,1463,8,61,41
0.10000000000002274,1463,9,61,57
0.09999999999999432,1463,10,61,73
0.10000000000002274,1463,11,61,64
0.10000000000002274,1463,12,61,95
0.10000000000002274,1463,13,61,84
0.09999999999999432,1463,14,61,98
0.09999999999999432,1463,15,61,72
0.09999999999999432,1464,0,61,91
0.09999999999999432,1464,1,61,106
0.09999999999999432,1464,2,61,95
0.10000000000002274,1464,3,61,82
0.09999999999999432,1464,4,61,66
0.09999999999999432,1464,5,61,65
0.09999999999999432,1464,6,61,73
0.09999999999999432,1464,7,61,78
0.09999999999999432,1464,8,61,39
0.10000000000002274,1464,9,61,54
0.01590909090910486,1464,10,61,73
0.06818181818181301,1464,11,61,78
0.09999999999999432,1464,12,61,66
0.09999999999999432,1464,13,61,54
0.09999999999999432,1464,14,61,47
0.09999999999999432,1464,15,61,57
0.09999999999999432,1465,0,61,58
0.09999999999999432,1465,1,61,61
0.09999999999999432,1465,2,61,71
0.09999999999999432,1465,3,61,82
0.09999999999999432,1465,4,61,52
0.09999999999999432,1465,5,61,56
0.09999999999999964,1465,6,61,1
0.09999999999999964,1465,7,61,6
0.09999999999999964,1465,8,61,2
0.10000000000000142,1465,9,61,1
0.10000000000000142,1465,10,61,3
0.10000000000000142,1465,11,61,1
0.10000000000000142,1465,12,61,1
0.10000000000000142,1465,13,61,1
0.10000000000000142,1465,14,61,1
0.10000000000000142,1465,15,61,1
0.10000000000000142,1466,0,61,55
0.09999999999999787,1466,1,61,51
0.10000000000000497,1466,2,61,52
0.10000000000000142,1466,3,61,45
0.10000000000000142,1466,4,61,42
0.09999999999999432,1466,5,61,31
0.10000000000000142,1466,6,61,26
0.10000000000000142,1466,7,61,24
0.10000000000000142,1466,8,61,25
0.10000000000000142,1466,9,61,21
0.10000000000000142,1466,10,61,23
0.10000000000000142,1466,11,61,27
0.10000000000000142,1466,12,61,26
0.10000000000000142,1466,13,61,27
0.09999999999999432,1466,14,61,23
0.09999999999999432,1466,15,61,23
0.10000000000000142,1467,0,61,36
0.09999999999999432,1467,1,61,25
0.10000000000000142,1467,2,61,31
0.10000000000000142,1467,3,61,25
0.10000000000000142,1467,4,61,28
0.10000000000000142,1467,5,61,25
0.09999999999999432,1467,6,61,24
0.10000000000000142,1467,7,61,29
0.10000000000000142,1467,8,61,24
0.10000000000000142,1467,9,61,24
0.10000000000000142,1467,10,61,21
0.10000000000000142,1467,11,61,30
0.09999999999999432,1467,12,61,25
0.10000000000000142,1467,13,61,32
0.10000000000000142,1467,14,61,24
0.10000000000000142,1467,15,61,28
0.10000000000000142,1468,0,61,35
0.10000000000000142,1468,1,61,27
0.10000000000000142,1468,2,61,28
0.10000000000000142,1468,3,61,22
0.10000000000000142,1468,4,61,20
0.10000000000000142,1468,5,61,25
0.10000000000000142,1468,6,61,23
0.10000000000000142,1468,7,61,13
0.10000000000000142,1468,8,61,27
0.10000000000000142,1468,9,61,32
0.10000000000000142,1468,10,61,32
0.10000000000000142,1468,11,61,29
0.10000000000000142,1468,12,61,24
0.09999999999999998,1468,13,65,33
0.10000000000000009,1468,14,65,11
0.10000000000000009,1468,15,65,12
0.10000000000000053,1469,0,65,17
0.09999999999999964,1469,1,65,25
0.09999999999999964,1469,2,65,20
0.09999999999999964,1469,3,65,16
0.09999999999999964,1469,4,65,36
0.09999999999999964,1469,5,65,33
0.09999999999999964,1469,6,65,31
0.09999999999999964,1469,7,65,15
0.09999999999999964,1469,8,65,28
0.10000000000000142,1469,9,65,27
0.09999999999999787,1469,10,65,12
0.09999999999999787,1469,11,65,23
0.09999999999999787,1469,12,65,24
0.09999999999999787,1469,13,65,31
0.10000000000000142,1469,14,65,32
0.09999999999999787,1469,15,65,28
0.10000000000000142,1470,0,65,28
0.10000000000000142,1470,1,65,27
0.10000000000000142,1470,2,65,9
0.09999999999999787,1470,3,65,29
0.10000000000000853,1470,4,65,1
0.09999999999999432,1470,5,65,1
0.09999999999999432,1470,6,65,1
0.10000000000000853,1470,7,65,2
0.09999999999999432,1470,8,65,2
0.09999999999999432,1470,9,65,1
0.10000000000000853,1470,10,65,1
0.10000000000000853,1470,11,65,1
0.09999999999999432,1470,12,65,2
0.09999999999999432,1470,13,65,1
0.10000000000000853,1470,14,65,1
0.09999999999999432,1470,15,65,1
0.09999999999999432,1471,0,65,1
0.10000000000000853,1471,1,65,1
0.09999999999999432,1471,2,65,2
0.10000000000000853,1471,3,65,1
0.10000000000000853,1471,4,65,2
0.10000000000000853,1471,5,65,1
0.09999999999999432,1471,6,65,1
0.10000000000000853,1471,7,65,1
0.10000000000000853,1471,8,65,2
0.10000000000000853,1471,9,65,1
0.09999999999999432,1471,10,65,2
0.10000000000000853,1471,11,65,1
0.09999999999999432,1471,12,65,2
0.09999999999999432,1471,13,65,1
0.09999999999999432,1471,14,65,2
0.10000000000000853,1471,15,65,1
0.09999999999999432,1472,0,65,2
0.09999999999999432,1472,1,65,1
0.09999999999999432,1472,2,65,2
0.09999999999999432,1472,3,65,1
0.09999999999999432,1472,4,65,2
0.10000000000000853,1472,5,65,1
0.09999999999999432,1472,6,65,2
0.09999999999999432,1472,7,65,2
0.09999999999999432,1472,8,65,2
0.10000000000000853,1472,9,65,1
0.09999999999999432,1472,10,65,2
0.09999999999999432,1472,11,65,1
0.09999999999999432,1472,12,65,2
0.09999999999999432,1472,13,65,1
0.09999999999999432,1472,14,65,1
0.10000000000000853,1472,15,65,1
0.10000000000000853,1473,0,65,2
0.09999999999999432,1473,1,65,1
0.09999999999999432,1473,2,65,1
0.09999999999999432,1473,3,65,16
0.09999999999999432,1473,4,65,14
0.09999999999999432,1473,5,65,7
0.09999999999999432,1473,6,65,11
0.10000000000002274,1473,7,65,10
0.09999999999999432,1473,8,65,10
0.09999999999999432,1473,9,65,10
0.09999999999999432,1473,10,65,11
0.09999999999999432,1473,11,65,9
0.09999999999999432,1473,12,65,2
0.09999999999999432,1473,13,65,3
0.10000000000002274,1473,14,65,7
0.09999999999999432,1473,15,65,9
0.10000000000002274,1474,0,65,9
0.09999999999999432,1474,1,65,8
0.09999999999999432,1474,2,65,9
0.09999999999999432,1474,3,65,8
0.09999999999999432,1474,4,65,8
0.09999999999999432,1474,5,65,4
0.09999999999999432,1474,6,65,8
0.09999999999999432,1474,7,65,8
0.09999999999999432,1474,8,65,8
0.09999999999999432,1474,9,65,8
0.10000000000002274,1474,10,65,8
0.10000000000002274,1474,11,65,4
0.09999999999999432,1474,12,65,8
0.09999999999999432,1474,13,65,3
0.09999999999999432,1474,14,65,8
0.09999999999999432,1474,15,65,8
0.09999999999999432,1475,0,65,8
0.09999999999999432,1475,1,65,7
0.10000000000002274,1475,2,65,9
0.10000000000002274,1475,3,65,7
0.09999999999999432,1475,4,65,8
0.09999999999999432,1475,5,65,2
0.09999999999999432,1475,6,65,8
0.09999999999999432,1475,7,65,9
0.09999999999999432,1475,8,65,9
0.09999999999999432,1475,9,65,8
0.09999999999999432,1475,10,65,9
0.10000000000002274,1475,11,65,8
0.09999999999999432,1475,12,65,8
0.09999999999999432,1475,13,65,4
0.10000000000002274,1475,14,65,7
0.10000000000002274,1475,15,65,8
0.09999999999999432,1476,0,65,8
0.09999999999999432,1476,1,65,7
0.09999999999999432,1476,2,65,9
0.09999999999999432,1476,3,65,7
0.09999999999999432,1476,4,65,8
0.09999999999999432,1476,5,65,4
0.10000000000002274,1476,6,65,9
0.10000000000002274,1476,7,65,9
0.09999999999999432,1476,8,65,8
0.09999999999999432,1476,9,65,8
0.09999999999999432,1476,10,65,8
0.09999999999999432,1476,11,65,7
0.09999999999999432,1476,12,65,9
0.09999999999999432,1476,13,65,5
0.10000000000002274,1476,14,65,2
0.10000000000002274,1476,15,65,9
0.09999999999999432,1477,0,65,9
0.10000000000002274,1477,1,65,8
0.09999999999999432,1477,2,65,10
0.09999999999999432,1477,3,65,9
0.09999999999999432,1477,4,65,10
0.09999999999999432,1477,5,65,5
0.09999999999999432,1477,6,65,10
0.09999999999999432,1477,7,65,10
0.09999999999999432,1477,8,65,9
0.09999999999999432,1477,9,65,9
0.10000000000002274,1477,10,65,10
0.09999999999999432,1477,11,65,9
0.09999999999999432,1477,12,65,8
0.09999999999999432,1477,13,65,4
0.09999999999999432,1477,14,65,7
0.09999999999999432,1477,15,65,9
0.09999999999999432,1478,0,65,9
0.09999999999999432,1478,1,65,7
0.10000000000002274,1478,2,65,9
0.10000000000002274,1478,3,65,7
0.09999999999999432,1478,4,65,7
0.09999999999999432,1478,5,65,4
0.09999999999999432,1478,6,65,9
0.09999999999999432,1478,7,65,4
0.09999999999999432,1478,8,65,9
0.09999999999999432,1478,9,65,8
0.10000000000002274,1478,10,65,8
0.09999999999999432,1478,11,65,6
0.09999999999999432,1478,12,65,9
0.09999999999999432,1478,13,65,4
0.09999999999999432,1478,14,65,8
0.09999999999999432,1478,15,65,8
0.09999999999999432,1479,0,65,9
0.09999999999999432,1479,1,65,8
0.09999999999999432,1479,2,65,10
0.09999999999999432,1479,3,65,9
0.09999999999999432,1479,4,65,10
0.09999999999999432,1479,5,65,6
0.10000000000002274,1479,6,65,10
0.09999999999999432,1479,7,65,9
0.09999999999999432,1479,8,65,10
0.09999999999999432,1479,9,65,10
0.09999999999999432,1479,10,65,10
0.09999999999999432,1479,11,65,9
0.09999999999999432,1479,12,65,9
0.09999999999999432,1479,13,65,4
0.10000000000002274,1479,14,65,7
0.10000000000002274,1479,15,65,9
0.09999999999999432,1480,0,65,6
0.10000000000002274,1480,1,65,9
0.09999999999999432,1480,2,65,9
0.09999999999999432,1480,3,65,7
0.09999999999999432,1480,4,65,8
0.09999999999999432,1480,5,65,4
0.09999999999999432,1480,6,65,9
0.09999999999999432,1480,7,65,8
0.09999999999999432,1480,8,65,9
0.10000000000002274,1480,9,65,8
0.10000000000002274,1480,10,65,10
0.09999999999999432,1480,11,65,8
0.09999999999999432,1480,12,65,9
0.09999999999999432,1480,13,65,4
0.09999999999999432,1480,14,65,9
0.09999999999999432,1480,15,65,8
0.09999999999999432,1481,0,65,9
0.10000000000002274,1481,1,65,7
0.10000000000002274,1481,2,65,10
0.09999999999999432,1481,3,65,8
0.09999999999999432,1481,4,65,10
0.09999999999999432,1481,5,65,5
0.09999999999999432,1481,6,65,9
0.09999999999999432,1481,7,65,9
0.10000000000002274,1481,8,65,1
0.10000000000002274,1481,9,65,14
0.10000000000002274,1481,10,65,12
0.09999999999999432,1481,11,65,21
0.09999999999999432,1481,12,65,19
0.09999999999999432,1481,13,65,11
0.09999999999999432,1481,14,65,13
0.09999999999999432,1481,15,65,17
0.09999999999999432,1482,0,65,13
0.09999999999999432,1482,1,65,10
0.09999999999999432,1482,2,65,10
0.09999999999999432,1482,3,65,9
0.09999999999999432,1482,4,65,9
0.09999999999999432,1482,5,65,13
0.09999999999999432,1482,6,65,13
0.09999999999999432,1482,7,65,13
0.09999999999999432,1482,8,65,18
0.09999999999999432,1482,9,65,1
0.09999999999999432,1482,10,65,16
0.09999999999999787,1482,11,65,15
0.10000000000000142,1482,12,65,5
0.10000000000000142,1482,13,65,26
0.10000000000000142,1482,14,65,28
0.09999999999999787,1482,15,65,2
0.10000000000000142,1483,0,65,9
0.10000000000000142,1483,1,65,1
0.10000000000000142,1483,2,65,16
0.004545454545450411,1483,3,65,38
0.10000000000000142,1483,4,65,40
0.10000000000000142,1483,5,65,26
0.10000000000000142,1483,6,65,43
0.10000000000000142,1483,7,65,35
0.10000000000000142,1483,8,65,26
0.10000000000000142,1483,9,65,29
0.10000000000000142,1483,10,65,32
0.10000000000000142,1483,11,65,5
0.09999999999999432,1483,12,65,29
0.10000000000000142,1483,13,65,28
0.10000000000000142,1483,14,65,23
0.10000000000000142,1483,15,65,24
0.10000000000000142,1484,0,65,31
0.10000000000000142,1484,1,65,25
0.10000000000000142,1484,2,65,27
0.10000000000000142,1484,3,65,37
0.10000000000000142,1484,4,65,25
0.09999999999999432,1484,5,65,21
0.10000000000000142,1484,6,65,30
0.10000000000000142,1484,7,65,6
0.09999999999999432,1484,8,65,24
0.10000000000000142,1484,9,65,30
0.10000000000000142,1484,10,65,7
0.10000000000000142,1484,11,65,20
0.10000000000000142,1484,12,65,29
0.10000000000000142,1484,13,65,31
0.10000000000000142,1484,14,65,38
0.10000000000000142,1484,15,65,37
0.10000000000000142,1485,0,65,7
0.10000000000000142,1485,1,65,27
0.09999999999999432,1485,2,65,21
0.09999999999999432,1485,3,65,18
0.10000000000000142,1485,4,65,33
0.10000000000000142,1485,5,65,33
0.10000000000000142,1485,6,65,27
0.10000000000000142,1485,7,65,30
0.10000000000000142,1485,8,65,26
0.09999999999999432,1485,9,65,25
0.10000000000000142,1485,10,65,29
0.10000000000000142,1485,11,65,32
0.10000000000000142,1485,12,65,21
0.10000000000000142,1485,13,65,37
0.10000000000000142,1485,14,65,31
0.10000000000000142,1485,15,65,19
0.10000000000000142,1486,0,65,49
0.10000000000000142,1486,1,65,38
0.10000000000000142,1486,2,65,47
0.10000000000000142,1486,3,65,36
0.10000000000000142,1486,4,65,36
0.09999999999999432,1486,5,65,27
0.09999999999999432,1486,6,65,15
0.10000000000000142,1486,7,65,36
0.09999999999999432,1486,8,65,30
0.10000000000000142,1486,9,65,31
0.10000000000000142,1486,10,65,31
0.10000000000000142,1486,11,65,27
0.10000000000000142,1486,12,65,30
0.10000000000000142,1486,13,65,40
0.10000000000000853,1486,14,65,10
0.09999999999999432,1486,15,65,7
0.09999999999999432,1487,0,65,8
0.10000000000000853,1487,1,65,12
0.10000000000000853,1487,2,65,11
0.09999999999999432,1487,3,65,18
0.10000000000000853,1487,4,65,6
0.10000000000000853,1487,5,65,15
0.10000000000000853,1487,6,65,7
0.09999999999999432,1487,7,65,7
0.10000000000000853,1487,8,65,8
0.09999999999999432,1487,9,65,9
0.10000000000000853,1487,10,65,13
0.09999999999999432,1487,11,65,8
0.09999999999999432,1487,12,65,17
0.10000000000000853,1487,13,65,16
0.10000000000000853,1487,14,65,22
0.09999999999999432,1487,15,65,16
0.09999999999999432,1488,0,65,37
0.09999999999999432,1488,1,65,52
0.09999999999999432,1488,2,65,28
0.10000000000000853,1488,3,65,19
0.10000000000000853,1488,4,65,17
0.09999999999999432,1488,5,65,12
0.10000000000000853,1488,6,65,20
0.09999999999999432,1488,7,65,43
0.10000000000000853,1488,8,65,39
0.10000000000000853,1488,9,65,28
0.10000000000000853,1488,10,65,27
0.10000000000000853,1488,11,65,36
0.10000000000000853,1488,12,65,35
0.10000000000000853,1488,13,65,17
0.10000000000002274,1488,14,65,17
0.09999999999999432,1488,15,65,16
0.09999999999999432,1489,0,65,16
0.09999999999999432,1489,1,54,74
0.10000000000000142,1489,2,54,110
0.10000000000000142,1489,3,54,40
0.10000000000000142,1489,4,54,120
0.10000000000000142,1489,5,54,49
0.10000000000000142,1489,6,54,79
0.10000000000000142,1489,7,54,126
0.10000000000000142,1489,8,54,127
0.10000000000000142,1489,9,54,61
0.10000000000000142,1489,10,54,87
0.10000000000000142,1489,11,54,45
0.10000000000000142,1489,12,54,59
0.10000000000000142,1489,13,54,37
0.09999999999999432,1489,14,54,47
0.09999999999999432,1489,15,54,57
0.10000000000000853,1490,0,54,44
0.09999999999999432,1490,1,54,66
0.10000000000000853,1490,2,54,56
0.10000000000000853,1490,3,54,38
0.09999999999999432,1490,4,54,46
0.09999999999999432,1490,5,54,44
0.09999999999999432,1490,6,54,53
0.09999999999999432,1490,7,54,61
0.10000000000000853,1490,8,54,59
0.10000000000000853,1490,9,54,86
0.09999999999999432,1490,10,54,106
0.09999999999999432,1490,11,54,80
0.10000000000000853,1490,12,54,76
0.10000000000000853,1490,13,54,62
0.09999999999999432,1490,14,54,71
0.09999999999999432,1490,15,54,55
0.09999999999999432,1491,0,54,84
0.10000000000000853,1491,1,54,76
0.10000000000000853,1491,2,54,79
0.09999999999999432,1491,3,54,58
0.09999999999999432,1491,4,54,89
0.10000000000000853,1491,5,54,55
0.09999999999999432,1491,6,54,121
0.09999999999999432,1491,7,54,84
0.09999999999999432,1491,8,54,74
0.09999999999999432,1491,9,54,75
0.10000000000000853,1491,10,54,62
0.10000000000000853,1491,11,54,56
0.09999999999999432,1491,12,54,67
0.09999999999999432,1491,13,54,58
0.09999999999999432,1491,14,54,62
0.09999999999999432,1491,15,54,73
0.09999999999999432,1492,0,54,42
0.10000000000002274,1492,1,54,71
0.10000000000002274,1492,2,54,63
0.10000000000002274,1492,3,54,62
0.09999999999999432,1492,4,54,87
0.09999999999999432,1492,5,54,63
0.09999999999999432,1492,6,54,66
0.09999999999999432,1492,7,54,72
0.09999999999999432,1492,8,54,35
0.09999999999999432,1492,9,54,56
0.09999999999999432,1492,10,54,64
0.09999999999999432,1492,11,54,74
0.09999999999999432,1492,12,54,70
0.09999999999999432,1492,13,54,52
0.09999999999999432,1492,14,54,44
0.10000000000002274,1492,15,54,54
0.09999999999999432,1493,0,54,56
0.09999999999999432,1493,1,54,69
0.09999999999999432,1493,2,54,47
0.09999999999999432,1493,3,54,37
0.09999999999999432,1493,4,54,44
0.09999999999999432,1493,5,54,50
0.09999999999999432,1493,6,54,49
0.09999999999999432,1493,7,54,36
0.09999999999999432,1493,8,54,46
0.09999999999999432,1493,9,54,57
0.10000000000002274,1493,10,54,41
0.10000000000002274,1493,11,54,65
0.10000000000002274,1493,12,54,59
0.10000000000002274,1493,13,54,47
0.09999999999999432,1493,14,54,51
0.09999999999999432,1493,15,54,50
0.09999999999999432,1494,0,54,38
0.09999999999999432,1494,1,54,67
0.09999999999999432,1494,2,54,57
0.09999999999999432,1494,3,54,76
0.09999999999999432,1494,4,54,47
0.09999999999999432,1494,5,54,53
0.09999999999999432,1494,6,54,40
0.09999999999999432,1494,7,54,87
0.09999999999999432,1494,8,54,72
0.10000000000002274,1494,9,54,34
0.09999999999999432,1494,10,54,87
0.09999999999999432,1494,11,54,50
0.09999999999999432,1494,12,54,33
0.09999999999999432,1494,13,54,36
0.09999999999999432,1494,14,54,48
0.09999999999999432,1494,15,54,56
0.09999999999999432,1495,0,54,74
0.09999999999999432,1495,1,54,42
0.09999999999999432,1495,2,54,87
0.09999999999999432,1495,3,54,66
0.09999999999999432,1495,4,54,39
0.09999999999999432,1495,5,54,51
0.09999999999999432,1495,6,54,60
0.09999999999999432,1495,7,54,75
0.09999999999999432,1495,8,54,44
0.10000000000002274,1495,9,54,82
0.10000000000002274,1495,10,54,46
0.10000000000002274,1495,11,54,32
0.10000000000002274,1495,12,54,46
0.09999999999999432,1495,13,54,49
0.09999999999999432,1495,14,54,56
0.09999999999999432,1495,15,54,79
0.09999999999999432,1496,0,54,52
0.09999999999999432,1496,1,54,55
0.09999999999999432,1496,2,54,84
0.10000000000002274,1496,3,54,29
0.09999999999999432,1496,4,54,95
0.09999999999999432,1496,5,54,108
0.09999999999999432,1496,6,54,84
0.10000000000002274,1496,7,54,79
0.09999999999999432,1496,8,54,95
0.09999999999999432,1496,9,54,91
0.10000000000000142,1496,10,69,127
0.10000000000000142,1496,11,69,127
0.10000000000000142,1496,12,69,3
0.10000000000000142,1496,13,69,4
0.10000000000000142,1496,14,69,127
0.10000000000000142,1496,15,69,127
0.09999999999999432,1497,0,69,2
0.10000000000000142,1497,1,69,127
0.10000000000000142,1497,2,69,127
0.10000000000000142,1497,3,69,3
0.10000000000000142,1497,4,69,4
0.09999999999999432,1497,5,69,127
0.10000000000000142,1497,6,69,126
0.09999999999999432,1497,7,69,4
0.10000000000000142,1497,8,69,127
0.10000000000000142,1497,9,69,127
0.09999999999999432,1497,10,69,3
0.10000000000000142,1497,11,69,4
0.10000000000000142,1497,12,69,127
0.10000000000000142,1497,13,69,101
0.10000000000000142,1497,14,69,2
0.10000000000000142,1497,15,69,127
0.10000000000000142,1498,0,69,127
0.10000000000000142,1498,1,69,2
0.10000000000000142,1498,2,69,5
0.10000000000000142,1498,3,69,127
0.09999999999999432,1498,4,69,124
0.10000000000000142,1498,5,69,2
0.09999999999999432,1498,6,69,127
0.10000000000000142,1498,7,69,127
0.10000000000000142,1498,8,69,4
0.10000000000000142,1498,9,69,127
0.09999999999999432,1498,10,69,127
0.10000000000000142,1498,11,69,2
0.09999999999999432,1498,12,69,127
0.10000000000000142,1498,13,69,2
0.09999999999999432,1498,14,69,88
0.09999999999999432,1498,15,69,2
0.10000000000000142,1499,0,69,127
0.10000000000000142,1499,1,69,100
0.10000000000000142,1499,2,69,3
0.09999999999999432,1499,3,69,127
0.09999999999999432,1499,4,69,127
0.09999999999999432,1499,5,69,127
0.09999999999999432,1499,6,69,54
0.09999999999999432,1499,7,69,127
0.09999999999999432,1499,8,69,36
0.09999999999999432,1499,9,69,102
0.09999999999999432,1499,10,69,9
0.10000000000000853,1499,11,69,127
0.09999999999999432,1499,12,69,127
0.09999999999999432,1499,13,69,3
0.10000000000000853,1499,14,69,102
0.10000000000000853,1499,15,69,3
0.10000000000000853,1500,0,69,127
0.09999999999999432,1500,1,69,3
0.10000000000000853,1500,2,69,119
0.10000000000000853,1500,3,69,3
0.09999999999999432,1500,4,69,127
0.10000000000000853,1500,5,69,127
0.10000000000000853,1500,6,69,3
0.09999999999999432,1500,7,69,113
0.09999999999999432,1500,8,69,4
0.09999999999999432,1500,9,69,127
0.09999999999999432,1500,10,69,9
0.10000000000000853,1500,11,69,127
0.10000000000000853,1500,12,69,3
0.10000000000000853,1500,13,69,127
0.10000000000000853,1500,14,69,3
0.10000000000000853,1500,15,69,127
0.09999999999999432,1501,0,69,4
0.10000000000000853,1501,1,69,2
0.09999999999999432,1501,2,69,127
0.09999999999999432,1501,3,69,127
0.09999999999999432,1501,4,69,2
0.09999999999999432,1501,5,69,110
0.09999999999999432,1501,6,69,127
0.09999999999999432,1501,7,69,3
0.09999999999999432,1501,8,69,114
0.09999999999999432,1501,9,69,3
0.09999999999999432,1501,10,69,3
0.09999999999999432,1501,11,69,127
0.10000000000000853,1501,12,69,127
0.10000000000000853,1501,13,69,3
0.10000000000000853,1501,14,69,127
0.10000000000000853,1501,15,69,3
0.09999999999999432,1502,0,69,116
0.10000000000000853,1502,1,69,3
0.09999999999999432,1502,2,69,3
0.09999999999999432,1502,3,69,127
0.09999999999999432,1502,4,69,127
0.10000000000000853,1502,5,69,1
0.10000000000000853,1502,6,69,127
0.09999999999999432,1502,7,69,127
0.09999999999999432,1502,8,69,127
0.09999999999999432,1502,9,69,1
0.09999999999999432,1502,10,69,3
0.10000000000000853,1502,11,69,127
0.09999999999999432,1502,12,69,127
0.09999999999999432,1502,13,69,1
0.10000000000000853,1502,14,69,127
0.09999999999999432,1502,15,69,3
0.10000000000000853,1503,0,69,102
0.10000000000000853,1503,1,69,1
0.10000000000000853,1503,2,69,2
0.09999999999999432,1503,3,69,127
0.09999999999999432,1503,4,69,127
0.09999999999999432,1503,5,69,1
0.10000000000000853,1503,6,69,103
0.09999999999999432,1503,7,69,127
0.09999999999999432,1503,8,69,2
0.09999999999999432,1503,9,69,127
0.09999999999999432,1503,10,69,1
0.10000000000000853,1503,11,69,127
0.09999999999999432,1503,12,69,3
0.10000000000000853,1503,13,69,116
0.09999999999999432,1503,14,69,1
0.10000000000000853,1503,15,69,127
0.09999999999999432,1504,0,69,3
0.10000000000000853,1504,1,69,126
0.09999999999999432,1504,2,69,47
0.10000000000000853,1504,3,69,13
0.09999999999999432,1504,4,69,2
0.09999999999999432,1504,5,69,127
0.10000000000000853,1504,6,69,2
0.09999999999999432,1504,7,69,127
0.09999999999999432,1504,8,69,1
0.10000000000000853,1504,9,69,127
0.09999999999999432,1504,10,69,127
0.09999999999999432,1504,11,69,127
0.09999999999999432,1504,12,69,121
0.09999999999999432,1504,13,69,1
0.10000000000000853,1504,14,69,1
0.10000000000000853,1504,15,69,127
0.09999999999999432,1505,0,69,3
0.10000000000000853,1505,1,69,120
0.10000000000000853,1505,2,69,1
0.09999999999999432,1505,3,69,127
0.10000000000000853,1505,4,69,127
0.09999999999999432,1505,5,69,127
0.10000000000000853,1505,6,69,127
0.10000000000000853,1505,7,69,1
0.09999999999999432,1505,8,69,1
0.09999999999999432,1505,9,69,127
0.10000000000000853,1505,10,69,3
0.09999999999999432,1505,11,69,1
0.09999999999999432,1505,12,69,127
0.10000000000000853,1505,13,69,127
0.09999999999999432,1505,14,69,127
0.09999999999999432,1505,15,69,127
0.09999999999999432,1506,0,69,127
0.09999999999999432,1506,1,69,1
0.09999999999999432,1506,2,69,127
0.09999999999999432,1506,3,69,1
0.10000000000000853,1506,4,69,1
0.10000000000000853,1506,5,69,127
0.09999999999999432,1506,6,69,1
0.09999999999999432,1506,7,69,127
0.09999999999999432,1506,8,69,127
0.09999999999999432,1506,9,69,90
0.10000000000000853,1506,10,69,127
0.09999999999999432,1506,11,69,127
0.10000000000000853,1506,12,69,1
0.09999999999999432,1506,13,69,127
0.10000000000000853,1506,14,69,2
0.09999999999999432,1506,15,69,1
0.09999999999999432,1507,0,69,127
0.10000000000000853,1507,1,69,1
0.10000000000000853,1507,2,69,127
0.09999999999999432,1507,3,69,127
0.09999999999999432,1507,4,69,127
0.09999999999999432,1507,5,69,127
0.09999999999999432,1507,6,69,3
0.10000000000000853,1507,7,69,3
0.09999999999999432,1507,8,69,127
0.09999999999999432,1507,9,69,4
0.09999999999999432,1507,10,69,2
0.09999999999999432,1507,11,69,127
0.09999999999999432,1507,12,69,2
0.09999999999999432,1507,13,69,127
0.09999999999999432,1507,14,69,127
0.09999999999999432,1507,15,69,4
0.10000000000000853,1508,0,69,127
0.09999999999999432,1508,1,69,127
0.10000000000000853,1508,2,69,2
0.09999999999999432,1508,3,69,3
0.09999999999999432,1508,4,69,127
0.10000000000000853,1508,5,69,5
0.09999999999999432,1508,6,69,2
0.09999999999999432,1508,7,69,127
0.09999999999999432,1508,8,69,2
0.10000000000000853,1508,9,69,127
0.09999999999999432,1508,10,69,127
0.10000000000000853,1508,11,69,16
0.09999999999999432,1508,12,69,127
0.10000000000000853,1508,13,69,127
0.09999999999999432,1508,14,69,2
0.09999999999999432,1508,15,69,3
0.10000000000000853,1509,0,69,127
0.09999999999999432,1509,1,69,4
0.09999999999999432,1509,2,69,2
0.09999999999999432,1509,3,69,127
0.09999999999999432,1509,4,69,2
0.09999999999999432,1509,5,69,127
0.09999999999999432,1509,6,69,127
0.09999999999999432,1509,7,69,39
0.09999999999999432,1509,8,69,127
0.10000000000002274,1509,9,69,127
0.09999999999999432,1509,10,69,2
0.09999999999999432,1509,11,69,3
0.10000000000002274,1509,12,69,127
0.09999999999999432,1509,13,69,5
0.10000000000002274,1509,14,69,2
0.09999999999999432,1509,15,69,127
0.10000000000002274,1510,0,69,2
0.09999999999999432,1510,1,69,127
0.09999999999999432,1510,2,69,127
0.09999999999999432,1510,3,69,4
0.09999999999999432,1510,4,69,127
0.09999999999999432,1510,5,69,127
0.09999999999999432,1510,6,69,2
0.09999999999999432,1510,7,69,3
0.09999999999999432,1510,8,69,127
0.09999999999999432,1510,9,69,7
0.09999999999999432,1510,10,69,2
0.09999999999999432,1510,11,69,127
0.09999999999999432,1510,12,69,2
0.10000000000002274,1510,13,69,127
0.09999999999999432,1510,14,69,127
0.09999999999999432,1510,15,69,4
0.09999999999999432,1511,0,69,127
0.09999999999999432,1511,1,69,127
0.09999999999999432,1511,2,69,2
0.09999999999999432,1511,3,69,3
0.09999999999999432,1511,4,69,127
0.09999999999999432,1511,5,69,15
0.09999999999999432,1511,6,69,127
0.09999999999999432,1511,7,69,127
0.09999999999999432,1511,8,69,127
0.09999999999999432,1511,9,69,74
0.09999999999999432,1511,10,69,65
0.10000000000002274,1511,11,69,62
0.09999999999999432,1511,12,69,127
0.09999999999999432,1511,13,69,127
0.10000000000002274,1511,14,69,127
0.10000000000002274,1511,15,69,65
0.09999999999999432,1512,0,69,127
0.10000000000002274,1512,1,69,45
0.09999999999999432,1512,2,69,127
0.09999999999999432,1512,3,69,127
0.09999999999999432,1512,4,69,2
0.09999999999999432,1512,5,69,58
0.09999999999999432,1512,6,69,127
0.09999999999999432,1512,7,69,15
0.09999999999999432,1512,8,69,2
0.10000000000002274,1512,9,69,127
0.09999999999999432,1512,10,69,127
0.09999999999999432,1512,11,69,70
0.10000000000002274,1512,12,69,127
0.09999999999999432,1512,13,69,64
0.10000000000002274,1512,14,69,127
0.09999999999999432,1512,15,69,127
0.09999999999999432,1513,0,69,2
0.09999999999999432,1513,1,69,79
0.09999999999999432,1513,2,69,127
0.09999999999999432,1513,3,69,5
0.10000000000002274,1513,4,69,2
0.09999999999999432,1513,5,69,127
0.09999999999999432,1513,6,69,127
0.09999999999999432,1513,7,69,84
0.09999999999999432,1513,8,69,127
0.09999999999999432,1513,9,69,89
0.09999999999999432,1513,10,69,127
0.10000000000002274,1513,11,69,127
0.09999999999999432,1513,12,69,2
0.09999999999999432,1513,13,69,2
0.10000000000002274,1513,14,69,54
0.09999999999999432,1513,15,69,127
0.09999999999999432,1514,0,69,10
0.09999999999999432,1514,1,69,3
0.10000000000002274,1514,2,69,1
0.09999999999999432,1514,3,69,127
0.09999999999999432,1514,4,69,1
0.10000000000002274,1514,5,69,127
0.09999999999999432,1514,6,69,90
0.10000000000002274,1514,7,69,127
0.09999999999999432,1514,8,69,79
0.09999999999999432,1514,9,69,3
0.09999999999999432,1514,10,69,61
0.09999999999999432,1514,11,69,127
0.09999999999999432,1514,12,69,127
0.09999999999999432,1514,13,69,127
0.09999999999999432,1514,14,69,127
0.09999999999999432,1514,15,69,127
0.09999999999999432,1515,0,69,9
0.09999999999999432,1515,1,69,3
0.09999999999999432,1515,2,69,1
0.09999999999999432,1515,3,69,127
0.09999999999999432,1515,4,69,2
0.09999999999999432,1515,5,69,127
0.10000000000002274,1515,6,69,60
0.09999999999999432,1515,7,69,127
0.10000000000002274,1515,8,69,49
0.09999999999999432,1515,9,69,127
0.09999999999999432,1515,10,69,8
0.09999999999999432,1515,11,69,127
0.10000000000002274,1515,12,69,2
0.09999999999999432,1515,13,69,2
0.09999999999999432,1515,14,69,48
0.09999999999999432,1515,15,69,127
0.10000000000002274,1516,0,69,8
0.09999999999999432,1516,1,69,3
0.10000000000002274,1516,2,69,1
0.10000000000002274,1516,3,69,127
0.09999999999999432,1516,4,69,2
0.09999999999999432,1516,5,69,127
0.09999999999999432,1516,6,69,106
0.09999999999999432,1516,7,69,127
0.09999999999999432,1516,8,69,79
0.09999999999999432,1516,9,69,127
0.09999999999999432,1516,10,69,7
0.09999999999999432,1516,11,69,127
0.09999999999999432,1516,12,69,2
0.09999999999999432,1516,13,69,2
0.09999999999999432,1516,14,69,51
0.10000000000002274,1516,15,69,127
0.10000000000002274,1517,0,69,10
0.10000000000002274,1517,1,69,3
0.09999999999999432,1517,2,69,1
0.09999999999999432,1517,3,69,127
0.10000000000002274,1517,4,69,2
0.09999999999999432,1517,5,69,127
0.09999999999999432,1517,6,69,104
0.09999999999999432,1517,7,69,127
0.09999999999999432,1517,8,69,110
0.09999999999999432,1517,9,69,127
0.09999999999999432,1517,10,69,5
0.10000000000002274,1517,11,69,127
0.09999999999999432,1517,12,69,2
0.09999999999999432,1517,13,69,38
0.09999999999999432,1517,14,69,127
0.09999999999999432,1517,15,69,127
0.09999999999999432,1518,0,69,4
0.09999999999999432,1518,1,69,2
0.10000000000002274,1518,2,69,127
0.10000000000002274,1518,3,69,127
0.09999999999999432,1518,4,69,33
0.09999999999999432,1518,5,69,67
0.09999999999999432,1518,6,69,127
0.10000000000002274,1518,7,69,127
0.09999999999999432,1518,8,69,38
0.10000000000002274,1518,9,69,53
0.09999999999999432,1518,10,69,42
0.09999999999999432,1518,11,69,127
0.09999999999999432,1518,12,69,127
0.09999999999999432,1518,13,69,127
0.09999999999999432,1518,14,69,127
0.09999999999999432,1518,15,69,127
0.09999999999999432,1519,0,69,127
0.10000000000002274,1519,1,69,127
0.10000000000002274,1519,2,69,127
0.09999999999999432,1519,3,69,127
0.09999999999999432,1519,4,69,127
0.09999999999999432,1519,5,69,127
0.09999999999999432,1519,6,69,127
0.09999999999999432,1519,7,69,127
0.09999999999999432,1519,8,69,127
0.09999999999999432,1519,9,69,127
0.09999999999999432,1519,10,69,127
0.10000000000000142,1519,11,60,7
0.10000000000000142,1519,12,60,16
0.09999999999999432,1519,13,60,6
0.09999999999999432,1519,14,60,14
0.09999999999999432,1519,15,60,7
0.10000000000000142,1520,0,60,15
0.10000000000000142,1520,1,60,7
0.10000000000000142,1520,2,60,12
0.10000000000000142,1520,3,60,12
0.10000000000000142,1520,4,60,13
0.10000000000000142,1520,5,60,11
0.10000000000000142,1520,6,60,7
0.10000000000000142,1520,7,60,15
0.10000000000000142,1520,8,60,11
0.10000000000000142,1520,9,60,8
0.10000000000000142,1520,10,60,6
0.09999999999999432,1520,11,60,8
0.10000000000000142,1520,12,60,9
0.09999999999999432,1520,13,60,7
0.10000000000000142,1520,14,60,9
0.10000000000000142,1520,15,60,12
0.09999999999999432,1521,0,60,1
0.09999999999999432,1521,1,60,8
0.09999999999999432,1521,2,60,2
0.09999999999999432,1521,3,60,3
0.09999999999999432,1521,4,60,5
0.09999999999999432,1521,5,60,2
0.06818181818181301,1521,6,60,2
0.09999999999999432,1521,7,60,4
0.10000000000002274,1521,8,60,6
0.09999999999999432,1521,9,60,4
0.09999999999999432,1521,10,60,10
0.10000000000002274,1521,11,60,4
0.09999999999999432,1521,12,60,4
0.09999999999999432,1521,13,60,10
0.09999999999999432,1521,14,60,3
0.09999999999999432,1521,15,60,13
0.09999999999999432,1522,0,60,3
0.06818181818181301,1522,1,60,3
0.09999999999999432,1522,2,60,6
0.10000000000002274,1522,3,60,3
0.09999999999999432,1522,4,60,7
0.10000000000002274,1522,5,60,11
0.10000000000002274,1522,6,60,4
0.09999999999999432,1522,7,60,19
0.09999999999999432,1522,8,60,6
0.09999999999999432,1522,9,60,4
0.09999999999999432,1522,10,60,4
0.09999999999999432,1522,11,60,10
0.10000000000002274,1522,12,60,3
0.09999999999999432,1522,13,60,9
0.06818181818181301,1522,14,60,10
0.09999999999999432,1522,15,60,3
0.10000000000002274,1523,0,60,18
0.09999999999999432,1523,1,60,4
0.09999999999999432,1523,2,60,5
0.10000000000002274,1523,3,60,9
0.09999999999999432,1523,4,60,4
0.10000000000002274,1523,5,60,21
0.10000000000002274,1523,6,60,5
0.09999999999999432,1523,7,60,1
0.09999999999999432,1523,8,60,3
0.056818181818186986,1523,9,60,3
0.09999999999999432,1523,10,60,9
0.09999999999999432,1523,11,60,4
0.10000000000002274,1523,12,60,12
0.09999999999999432,1523,13,60,3
0.09999999999999432,1523,14,60,5
0.06590909090908781,1523,15,60,6
0.09999999999999432,1524,0,60,3
0.10000000000002274,1524,1,60,2
0.09999999999999432,1524,2,60,8
0.09999999999999432,1524,3,60,2
0.09999999999999432,1524,4,60,7
0.09999999999999432,1524,5,60,6
0.06818181818181301,1524,6,60,6
0.09999999999999998,1524,7,70,64
0.10000000000000009,1524,8,70,39
0.10000000000000009,1524,9,70,29
0.09999999999999964,1524,10,70,109
0.09999999999999964,1524,11,70,57
0.09999999999999964,1524,12,70,34
0.09999999999999964,1524,13,70,27
0.09999999999999964,1524,14,70,63
0.10000000000000053,1524,15,70,50
0.10000000000000142,1525,0,70,71
0.09999999999999964,1525,1,70,83
0.09999999999999964,1525,2,70,50
0.09999999999999964,1525,3,70,97
0.09999999999999964,1525,4,70,53
0.09999999999999964,1525,5,70,59
0.09999999999999964,1525,6,70,58
0.09999999999999964,1525,7,70,57
0.10000000000000142,1525,8,70,45
0.10000000000000142,1525,9,70,65
0.09999999999999787,1525,10,70,59
0.09999999999999787,1525,11,70,48
0.09999999999999787,1525,12,70,46
0.09999999999999787,1525,13,70,49
0.09999999999999787,1525,14,70,52
0.10000000000000142,1525,15,70,46
0.09999999999999787,1526,0,70,45
0.09999999999999787,1526,1,70,50
0.09999999999999787,1526,2,70,52
0.09999999999999787,1526,3,70,39
0.09999999999999787,1526,4,70,43
0.10000000000000142,1526,5,70,53
0.10000000000000142,1526,6,70,78
0.10000000000000142,1526,7,70,52
0.10000000000000142,1526,8,70,57
0.10000000000000142,1526,9,70,48
0.10000000000000142,1526,10,70,52
0.10000000000000142,1526,11,70,76
0.09999999999999432,1526,12,70,82
0.09999999999999432,1526,13,70,53
0.10000000000000142,1526,14,70,51
0.09999999999999432,1526,15,70,68
0.10000000000000142,1527,0,70,97
0.10000000000000142,1527,1,70,92
0.09999999999999432,1527,2,70,54
0.10000000000000142,1527,3,70,42
0.09999999999999432,1527,4,70,81
0.10000000000000142,1527,5,70,34
0.10000000000000142,1527,6,70,30
0.10000000000000142,1527,7,70,54
0.10000000000000142,1527,8,70,56
0.10000000000000142,1527,9,70,47
0.10000000000000142,1527,10,70,52
0.10000000000000142,1527,11,70,44
0.10000000000000142,1527,12,70,56
0.10000000000000142,1527,13,70,44
0.10000000000000142,1527,14,70,54
0.10000000000000142,1527,15,70,38
0.10000000000000142,1528,0,70,52
0.10000000000000142,1528,1,70,45
0.10000000000000142,1528,2,70,42
0.10000000000000142,1528,3,70,28
0.10000000000000142,1528,4,70,49
0.10000000000000142,1528,5,70,48
0.10000000000000142,1528,6,70,48
0.10000000000000142,1528,7,70,27
0.09999999999999432,1528,8,70,53
0.10000000000000142,1528,9,70,46
0.10000000000000142,1528,10,70,40
0.09999999999999432,1528,11,70,53
0.10000000000000142,1528,12,70,53
0.09999999999999432,1528,13,70,71
0.09999999999999432,1528,14,70,54
0.09999999999999432,1528,15,70,53
0.09999999999999432,1529,0,70,49
0.09999999999999432,1529,1,70,44
0.09999999999999432,1529,2,70,79
0.10000000000000853,1529,3,70,83
0.10000000000000853,1529,4,70,52
0.09999999999999432,1529,5,70,49
0.09999999999999432,1529,6,70,78
0.10000000000000853,1529,7,70,47
0.09999999999999432,1529,8,70,45
0.09999999999999432,1529,9,70,57
0.10000000000000853,1529,10,70,67
0.10000000000000853,1529,11,70,35
0.10000000000000853,1529,12,70,29
0.10000000000000853,1529,13,70,30
0.09999999999999432,1529,14,70,54
0.09999999999999432,1529,15,70,25
0.09999999999999432,1530,0,70,59
0.09999999999999432,1530,1,70,63
0.09999999999999432,1530,2,70,36
0.10000000000000853,1530,3,70,33
0.10000000000000853,1530,4,70,31
0.09999999999999432,1530,5,70,11
0.10000000000000853,1530,6,70,40
0.10000000000000853,1530,7,70,25
0.09999999999999432,1530,8,70,31
0.09999999999999432,1530,9,70,27
0.09999999999999432,1530,10,70,27
0.09999999999999432,1530,11,70,19
0.09999999999999432,1530,12,70,19
0.09999999999999432,1530,13,70,44
0.09999999999999432,1530,14,70,24
0.09999999999999432,1530,15,70,20
0.09999999999999432,1531,0,70,28
0.09999999999999432,1531,1,70,18
0.09999999999999432,1531,2,70,26
0.09999999999999432,1531,3,70,25
0.10000000000000853,1531,4,70,15
0.09999999999999432,1531,5,70,24
0.10000000000000853,1531,6,70,34
0.09999999999999432,1531,7,70,18
0.10000000000000853,1531,8,70,20
0.09999999999999432,1531,9,70,26
0.09999999999999432,1531,10,70,32
0.09999999999999432,1531,11,70,23
0.09999999999999432,1531,12,70,14
0.10000000000000853,1531,13,70,42
0.10000000000000853,1531,14,70,33
0.09999999999999432,1531,15,70,34
0.10000000000000853,1532,0,70,19
0.09999999999999432,1532,1,70,39
0.09999999999999432,1532,2,70,35
0.09999999999999432,1532,3,70,30
0.10000000000000853,1532,4,70,29
0.10000000000000853,1532,5,70,34
0.10000000000000853,1532,6,70,32
0.10000000000000853,1532,7,70,33
0.09999999999999432,1532,8,70,32
0.09999999999999432,1532,9,70,30
0.09999999999999432,1532,10,70,15
0.09999999999999432,1532,11,70,20
0.10000000000000853,1532,12,70,27
0.09999999999999432,1532,13,70,23
0.10000000000000853,1532,14,70,48
0.10000000000000853,1532,15,70,24
0.09999999999999432,1533,0,70,42
0.09999999999999432,1533,1,70,21
0.09999999999999432,1533,2,70,27
0.09999999999999432,1533,3,70,29
0.09999999999999432,1533,4,70,30
0.10000000000000853,1533,5,70,19
0.10000000000000853,1533,6,70,35
0.09999999999999432,1533,7,70,27
0.09999999999999432,1533,8,70,71
0.09999999999999432,1533,9,70,36
0.09999999999999432,1533,10,70,55
0.10000000000000853,1533,11,70,45
0.09999999999999432,1533,12,70,49
0.09999999999999432,1533,13,70,26
0.09999999999999432,1533,14,70,33
0.09999999999999432,1533,15,70,44
0.10000000000002274,1534,0,70,38
0.09999999999999432,1534,1,70,52
0.09999999999999432,1534,2,70,110
0.09999999999999432,1534,3,70,63
0.09999999999999432,1534,4,70,76
0.09999999999999432,1534,5,70,30
0.09999999999999432,1534,6,70,36
0.09999999999999432,1534,7,70,21
0.09999999999999432,1534,8,70,29
0.09999999999999432,1534,9,70,20
0.09999999999999432,1534,10,70,31
0.09999999999999432,1534,11,70,44
0.09999999999999432,1534,12,70,18
0.09999999999999432,1534,13,70,17
0.10000000000002274,1534,14,70,26
0.09999999999999432,1534,15,70,31
0.10000000000002274,1535,0,70,39
0.09999999999999432,1535,1,70,29
0.09999999999999432,1535,2,70,69
0.09999999999999432,1535,3,70,44
0.10000000000002274,1535,4,70,43
0.09999999999999432,1535,5,70,29
0.09999999999999432,1535,6,70,33
0.09999999999999432,1535,7,70,19
0.09999999999999432,1535,8,70,12
0.09999999999999432,1535,9,70,19
0.09999999999999432,1535,10,70,23
0.09999999999999432,1535,11,70,33
0.10000000000002274,1535,12,70,40
0.09999999999999432,1535,13,70,27
0.09999999999999432,1535,14,70,41
0.09999999999999432,1535,15,70,82
0.09999999999999432,1536,0,70,74
0.10000000000002274,1536,1,70,43
0.09999999999999432,1536,2,70,41
0.09999999999999432,1536,3,70,72
0.09999999999999432,1536,4,70,41
0.09999999999999432,1536,5,70,38
0.09999999999999432,1536,6,70,60
0.09999999999999432,1536,7,70,40
0.09999999999999432,1536,8,70,23
0.09999999999999432,1536,9,70,34
0.09999999999999432,1536,10,70,34
0.09999999999999432,1536,11,70,50
0.09999999999999432,1536,12,70,20
0.09999999999999432,1536,13,70,48
0.09999999999999432,1536,14,70,21
0.09999999999999432,1536,15,70,25
0.09999999999999432,1537,0,70,19
0.09999999999999432,1537,1,70,18
0.09999999999999432,1537,2,70,22
0.09999999999999432,1537,3,70,38
0.10000000000002274,1537,4,70,46
0.10000000000002274,1537,5,70,82
0.10000000000002274,1537,6,70,53
0.10000000000002274,1537,7,70,59
0.09999999999999432,1537,8,70,32
0.09999999999999432,1537,9,70,54
0.09999999999999432,1537,10,70,82
0.09999999999999432,1537,11,70,59
0.09999999999999432,1537,12,70,51
0.09999999999999432,1537,13,70,51
0.09999999999999432,1537,14,70,26
0.09999999999999432,1537,15,70,25
0.09999999999999432,1538,0,70,27
0.09999999999999432,1538,1,70,50
0.09999999999999432,1538,2,70,41
0.09999999999999432,1538,3,70,40
0.09999999999999432,1538,4,70,12
0.09999999999999432,1538,5,70,14
0.09999999999999432,1538,6,70,17
0.09999999999999432,1538,7,70,19
0.10000000000002274,1538,8,70,29
0.09999999999999432,1538,9,70,23
0.09999999999999432,1538,10,70,12
0.09999999999999432,1538,11,70,54
0.09999999999999432,1538,12,70,17
0.09999999999999432,1538,13,70,26
0.09999999999999432,1538,14,70,18
0.10000000000002274,1538,15,70,41
0.10000000000002274,1539,0,70,22
0.09999999999999432,1539,1,70,23
0.09999999999999432,1539,2,70,39
0.09999999999999432,1539,3,70,22
0.09999999999999432,1539,4,70,34
0.09999999999999432,1539,5,70,25
0.09999999999999432,1539,6,70,23
0.09999999999999432,1539,7,70,18
0.09999999999999432,1539,8,70,34
0.09999999999999432,1539,9,70,22
0.09999999999999432,1539,10,70,23
0.09999999999999432,1539,11,70,54
0.09999999999999432,1539,12,70,37
0.09999999999999432,1539,13,70,31
0.09999999999999432,1539,14,70,64
0.09999999999999432,1539,15,70,47
0.09999999999999432,1540,0,70,64
0.10000000000002274,1540,1,70,57
0.09999999999999432,1540,2,70,81
0.09999999999999432,1540,3,70,66
0.09999999999999432,1540,4,70,46
0.09999999999999432,1540,5,70,21
0.10000000000002274,1540,6,70,84
0.10000000000002274,1540,7,70,115
0.09999999999999432,1540,8,70,56
0.09999999999999432,1540,9,70,16
0.09999999999999432,1540,10,70,18
0.09999999999999787,1540,11,63,1
0.09999999999999432,1540,12,63,46
0.10000000000000142,1540,13,63,30
0.10000000000000142,1540,14,63,42
0.10000000000000142,1540,15,63,72
0.10000000000000142,1541,0,63,58
0.09999999999999432,1541,1,63,47
0.10000000000000853,1541,2,63,26
0.09999999999999432,1541,3,63,32
0.09999999999999432,1541,4,63,23
0.09999999999999432,1541,5,63,50
0.09999999999999432,1541,6,63,30
0.09999999999999432,1541,7,63,37
0.09999999999999432,1541,8,63,29
0.09999999999999432,1541,9,63,36
0.10000000000000853,1541,10,63,37
0.10000000000000853,1541,11,63,46
0.10000000000000853,1541,12,63,51
0.09999999999999432,1541,13,63,49
0.09999999999999432,1541,14,63,49
0.09999999999999432,1541,15,63,34
0.10000000000000853,1542,0,63,46
0.10000000000000853,1542,1,63,49
0.10000000000000853,1542,2,63,62
0.10000000000000853,1542,3,63,31
0.09999999999999432,1542,4,63,57
0.09999999999999432,1542,5,63,42
0.09999999999999432,1542,6,63,47
0.09999999999999432,1542,7,63,47
0.09999999999999432,1542,8,63,45
0.10000000000000853,1542,9,63,50
0.10000000000000853,1542,10,63,51
0.09999999999999432,1542,11,63,48
0.09999999999999432,1542,12,63,61
0.09999999999999432,1542,13,63,42
0.09999999999999432,1542,14,63,52
0.09999999999999432,1542,15,63,66
0.09999999999999432,1543,0,63,39
0.09999999999999432,1543,1,63,51
0.09999999999999432,1543,2,63,43
0.09999999999999432,1543,3,63,56
0.09999999999999432,1543,4,63,49
0.09999999999999432,1543,5,63,64
0.09999999999999432,1543,6,63,58
0.09999999999999432,1543,7,63,58
0.09999999999999432,1543,8,63,63
0.09999999999999432,1543,9,63,41
0.09999999999999432,1543,10,63,49
0.09999999999999432,1543,11,63,30
0.09999999999999432,1543,12,63,39
0.09999999999999432,1543,13,63,45
0.10000000000002274,1543,14,63,50
0.09999999999999432,1543,15,63,38
0.09999999999999432,1544,0,63,44
0.09999999999999432,1544,1,63,52
0.09999999999999432,1544,2,63,45
0.09999999999999432,1544,3,63,38
0.09999999999999432,1544,4,63,44
0.09999999999999432,1544,5,63,58
0.09999999999999432,1544,6,63,37
0.09999999999999432,1544,7,63,58
0.10000000000002274,1544,8,63,37
0.10000000000002274,1544,9,63,31
0.09999999999999432,1544,10,63,44
0.09999999999999432,1544,11,63,54
0.09999999999999432,1544,12,63,64
0.10000000000002274,1544,13,63,50
0.09999999999999432,1544,14,63,28
0.09999999999999432,1544,15,63,30
0.09999999999999432,1545,0,63,46
0.09999999999999432,1545,1,63,29
0.09999999999999432,1545,2,63,40
0.09999999999999432,1545,3,63,64
0.09999999999999432,1545,4,63,45
0.09999999999999432,1545,5,63,46
0.09999999999999432,1545,6,63,52
0.09999999999999432,1545,7,63,64
0.09999999999999432,1545,8,63,42
0.10000000000002274,1545,9,63,52
0.10000000000002274,1545,10,63,30
0.09999999999999432,1545,11,63,45
0.09999999999999432,1545,12,63,60
0.09999999999999432,1545,13,63,52
0.10000000000002274,1545,14,63,56
0.09999999999999432,1545,15,63,48
0.09999999999999432,1546,0,63,49
0.10000000000002274,1546,1,63,50
0.10000000000002274,1546,2,63,49
0.09999999999999432,1546,3,63,41
0.09999999999999432,1546,4,63,55
0.09999999999999432,1546,5,63,45
0.09999999999999432,1546,6,63,32
0.09999999999999432,1546,7,63,29
0.09999999999999432,1546,8,63,36
0.09999999999999432,1546,9,63,44
0.09999999999999432,1546,10,63,41
0.09999999999999432,1546,11,63,32
0.09999999999999432,1546,12,63,74
0.09999999999999432,1546,13,63,67
0.10000000000002274,1546,14,63,38
0.09999999999999432,1546,15,63,34
0.10000000000002274,1547,0,63,32
0.09999999999999432,1547,1,63,50
0.09999999999999432,1547,2,63,48
0.10000000000002274,1547,3,63,24
0.09999999999999432,1547,4,63,37
0.10000000000002274,1547,5,63,38
0.09999999999999432,1547,6,63,36
0.09999999999999432,1547,7,63,29
0.09999999999999432,1547,8,63,33
0.10000000000002274,1547,9,63,33
0.10000000000002274,1547,10,63,39
0.09999999999999432,1547,11,63,26
0.09999999999999432,1547,12,63,23
0.10000000000002274,1547,13,63,26
0.10000000000002274,1547,14,63,21
0.09999999999999432,1547,15,63,77
0.10000000000002274,1548,0,63,46
0.09999999999999432,1548,1,63,39
0.09999999999999432,1548,2,63,54
0.09999999999999432,1548,3,63,75
0.10000000000002274,1548,4,63,72
0.09999999999999432,1548,5,63,41
0.09999999999999432,1548,6,63,95
0.10000000000002274,1548,7,63,97
0.09999999999999432,1548,8,63,80
0.09999999999999432,1548,9,63,54
0.09999999999999432,1548,10,63,68
0.09999999999999432,1548,11,63,74
0.10000000000002274,1548,12,63,62
0.10000000000002274,1548,13,63,80
0.10000000000002274,1548,14,63,102
0.09999999999999432,1548,15,63,121
0.09999999999999432,1549,0,63,71
0.09999999999999432,1549,1,63,108
0.09999999999999432,1549,2,63,72
0.09999999999999432,1549,3,63,103
0.09999999999999432,1549,4,63,106
0.09999999999999432,1549,5,63,77
0.09999999999999432,1549,6,63,62
0.09999999999999432,1549,7,63,80
0.09999999999999432,1549,8,63,96
0.10000000000000142,1549,9,60,8
0.09999999999999432,1549,10,60,15
0.09999999999999432,1549,11,60,10
0.09999999999999432,1549,12,60,1
0.09999999999999432,1549,13,60,11
0.09999999999999432,1549,14,60,25
0.10000000000000853,1549,15,60,8
0.10000000000000853,1550,0,60,19
0.09999999999999432,1550,1,60,9
0.10000000000000853,1550,2,60,17
0.09999999999999432,1550,3,60,21
0.09999999999999432,1550,4,60,31
0.10000000000000853,1550,5,60,17
0.09999999999999432,1550,6,60,10
0.10000000000000853,1550,7,60,16
0.10000000000000853,1550,8,60,6
0.03636363636363171,1550,9,60,13
0.09999999999999432,1550,10,60,18
0.09999999999999432,1550,11,60,36
0.09999999999999432,1550,12,60,15
0.10000000000000853,1550,13,60,4
0.09999999999999432,1550,14,60,7
0.09999999999999432,1550,15,60,7
0.09999999999999432,1551,0,60,8
0.09999999999999432,1551,1,60,5
0.10000000000000853,1551,2,60,9
0.10000000000000853,1551,3,60,38
0.09999999999999432,1551,4,60,9
0.10000000000000853,1551,5,60,13
0.10000000000000853,1551,6,60,21
0.10000000000000853,1551,7,60,50
0.09999999999999432,1551,8,60,3
0.024999999999991473,1551,9,60,31
0.10000000000000853,1551,10,60,26
0.09999999999999432,1551,11,60,2
0.09999999999999432,1551,12,60,34
0.09999999999999432,1551,13,60,7
0.10000000000000853,1551,14,60,4
0.10000000000000853,1551,15,60,6
0.09999999999999432,1552,0,60,26
0.09999999999999432,1552,1,60,6
0.10000000000000853,1552,2,60,8
0.09999999999999432,1552,3,60,11
0.10000000000000853,1552,4,60,9
0.09999999999999432,1552,5,60,1
0.056818181818186986,1552,6,60,2
0.09999999999999432,1552,7,60,11
0.09999999999999432,1552,8,60,8
0.09999999999999432,1552,9,60,8
0.09999999999999432,1552,10,60,1
0.09999999999999432,1552,11,60,15
0.09999999999999432,1552,12,60,13
0.09999999999999432,1552,13,60,10
0.09999999999999432,1552,14,60,16
0.09999999999999432,1552,15,60,11
0.09999999999999432,1553,0,60,11
0.09999999999999432,1553,1,60,4
0.09999999999999432,1553,2,60,1
0.09999999999999432,1553,3,60,5
0.09999999999999432,1553,4,60,9
0.09999999999999432,1553,5,60,12
0.09999999999999432,1553,6,60,22
0.09999999999999432,1553,7,60,11
0.09999999999999432,1553,8,55,62
0.10000000000000142,1553,9,55,86
0.025000000000005684,1553,10,55,68
0.10000000000000142,1553,11,55,62
0.10000000000000142,1553,12,55,32
0.10000000000000142,1553,13,55,56
0.10000000000000142,1553,14,55,30
0.10000000000000142,1553,15,55,64
0.10000000000000142,1554,0,55,51
0.10000000000000142,1554,1,55,45
0.10000000000000142,1554,2,55,26
0.09999999999999432,1554,3,55,33
0.10000000000000142,1554,4,55,43
0.10000000000000142,1554,5,55,32
0.10000000000000142,1554,6,55,29
0.10000000000000142,1554,7,55,43
0.10000000000000142,1554,8,55,47
0.10000000000000142,1554,9,55,61
0.10000000000000142,1554,10,55,51
0.10000000000000142,1554,11,55,49
0.10000000000000142,1554,12,55,29
0.10000000000000142,1554,13,55,53
0.10000000000000142,1554,14,55,49
0.10000000000000142,1554,15,55,55
0.10000000000000142,1555,0,55,18
0.09999999999999432,1555,1,55,27
0.10000000000000142,1555,2,55,24
0.09999999999999432,1555,3,55,69
0.10000000000000142,1555,4,55,54
0.09999999999999432,1555,5,55,52
0.09999999999999432,1555,6,55,40
0.09999999999999432,1555,7,55,41
0.09999999999999432,1555,8,55,48
0.10000000000000853,1555,9,55,34
0.09999999999999432,1555,10,55,76
0.09999999999999432,1555,11,55,47
0.09999999999999432,1555,12,55,31
0.09999999999999432,1555,13,55,35
0.09999999999999432,1555,14,55,46
0.10000000000000853,1555,15,55,59
0.10000000000000853,1556,0,55,33
0.09999999999999432,1556,1,55,66
0.09999999999999432,1556,2,55,56
0.09999999999999432,1556,3,55,69
0.09999999999999432,1556,4,55,69
0.09999999999999432,1556,5,55,47
0.09999999999999432,1556,6,55,31
0.09999999999999432,1556,7,55,24
0.10000000000000853,1556,8,55,32
0.09999999999999432,1556,9,55,67
0.10000000000000853,1556,10,55,35
0.09999999999999432,1556,11,55,37
0.10000000000000853,1556,12,55,37
0.10000000000000853,1556,13,55,70
0.10000000000000853,1556,14,55,33
0.09999999999999432,1556,15,55,43
0.004545454545450411,1557,0,55,62
0.09999999999999432,1557,1,55,50
0.056818181818172775,1557,2,55,92
0.09999999999999432,1557,3,55,68
0.09999999999999432,1557,4,55,51
0.09999999999999432,1557,5,55,63
0.09999999999999432,1557,6,55,119
0.09999999999999432,1557,7,55,55
0.10000000000000853,1557,8,55,64
0.10000000000000853,1557,9,55,80
0.09999999999999432,1557,10,55,45
0.09999999999999432,1557,11,55,98
0.09999999999999432,1557,12,55,81
0.10000000000000853,1557,13,55,36
0.10000000000000853,1557,14,55,75
0.06818181818182723,1557,15,55,99
0.10000000000000853,1558,0,55,62
0.09999999999999432,1558,1,55,37
0.10000000000000853,1558,2,55,69
0.09999999999999432,1558,3,55,41
0.013636363636365445,1558,4,55,51
0.09999999999999432,1558,5,55,84
0.09999999999999432,1558,6,55,67
0.013636363636365445,1558,7,55,58
0.09999999999999432,1558,8,55,79
0.09999999999999432,1558,9,55,62
0.10000000000000853,1558,10,55,52
0.10000000000000853,1558,11,55,29
0.10000000000000853,1558,12,55,52
0.09999999999999432,1558,13,55,107
0.10000000000000853,1558,14,55,75
0.09999999999999432,1558,15,55,81
0.10000000000000853,1559,0,55,114
0.10000000000000853,1559,1,55,78
0.06818181818182723,1559,2,55,102
0.10000000000000853,1559,3,55,88
0.09999999999999432,1559,4,55,47
0.10000000000000853,1559,5,55,79
0.09999999999999432,1559,6,55,71
0.10000000000000853,1559,7,55,73
0.09999999999999432,1559,8,55,79
0.09999999999999432,1559,9,55,75
0.09999999999999432,1559,10,55,61
0.09999999999999432,1559,11,55,75
0.09999999999999432,1559,12,55,71
0.09999999999999432,1559,13,55,59
0.10000000000000853,1559,14,55,50
0.10000000000000853,1559,15,55,61
0.10000000000000853,1560,0,55,70
0.09999999999999432,1560,1,55,67
0.09999999999999432,1560,2,55,48
0.09999999999999432,1560,3,55,53
0.10000000000000853,1560,4,55,79
0.09999999999999432,1560,5,55,55
0.09999999999999432,1560,6,55,77
0.09999999999999432,1560,7,55,46
0.09999999999999432,1560,8,55,54
0.09999999999999432,1560,9,55,70
0.09999999999999432,1560,10,55,33
0.09999999999999432,1560,11,55,53
0.09999999999999432,1560,12,55,82
0.09999999999999432,1560,13,55,65
0.10000000000002274,1560,14,55,89
0.09999999999999432,1560,15,55,77
0.09999999999999432,1561,0,55,101
0.10000000000002274,1561,1,55,75
0.09999999999999432,1561,2,55,65
0.09999999999999432,1561,3,55,83
0.09999999999999432,1561,4,55,50
0.09999999999999432,1561,5,55,65
0.09999999999999432,1561,6,55,43
0.10000000000002274,1561,7,55,41
0.09999999999999432,1561,8,55,61
0.09999999999999432,1561,9,55,11
0.09999999999999432,1561,10,55,47
0.09999999999999432,1561,11,55,50
0.09999999999999432,1561,12,55,45
0.09999999999999432,1561,13,55,66
0.09999999999999432,1561,14,55,55
0.10000000000002274,1561,15,55,48
0.09999999999999432,1562,0,55,50
0.09999999999999432,1562,1,55,81
0.09999999999999432,1562,2,55,56
0.09999999999999432,1562,3,55,52
0.09999999999999432,1562,4,55,53
0.09999999999999432,1562,5,55,76
0.09999999999999432,1562,6,55,76
0.04545454545456096,1562,7,55,56
0.09999999999999432,1562,8,55,52
0.09999999999999432,1562,9,55,43
0.10000000000002274,1562,10,55,51
0.10000000000002274,1562,11,55,81
0.09999999999999432,1562,12,55,46
0.09999999999999432,1562,13,55,69
0.09999999999999432,1562,14,55,64
0.10000000000002274,1562,15,55,64
0.09999999999999432,1563,0,55,87
0.09999999999999432,1563,1,55,82
0.10000000000002274,1563,2,55,63
0.09999999999999432,1563,3,55,39
0.09999999999999432,1563,4,55,64
0.09999999999999432,1563,5,55,44
0.09999999999999432,1563,6,55,42
0.09999999999999432,1563,7,55,69
0.09999999999999432,1563,8,55,71
0.09999999999999432,1563,9,55,58
0.09999999999999432,1563,10,55,80
0.09999999999999432,1563,11,55,81
0.09999999999999432,1563,12,55,69
0.09999999999999432,1563,13,55,73
0.09999999999999432,1563,14,55,65
0.09999999999999432,1563,15,55,80
0.09999999999999432,1564,0,55,58
0.10000000000002274,1564,1,55,45
0.09999999999999432,1564,2,55,68
0.09999999999999432,1564,3,55,63
0.09999999999999432,1564,4,55,126
0.09999999999999432,1564,5,55,121
0.09999999999999432,1564,6,55,109
0.09999999999999432,1564,7,55,115
0.09999999999999432,1564,8,55,93
0.09999999999999432,1564,9,55,114
0.09999999999999432,1564,10,55,110
0.10000000000000142,1564,11,97,12
0.10000000000000142,1564,12,97,12
0.10000000000000142,1564,13,97,6
0.10000000000000142,1564,14,97,8
0.09999999999999964,1564,15,97,12
0.09999999999999964,1565,0,97,3
0.09999999999999964,1565,1,97,7
0.09999999999999964,1565,2,97,6
0.09999999999999964,1565,3,97,8
0.10000000000000142,1565,4,97,2
0.10000000000000142,1565,5,97,1
0.09999999999999787,1565,6,97,3
0.10000000000000142,1565,7,97,7
0.10000000000000142,1565,8,97,3
0.10000000000000142,1565,9,97,4
0.09999999999999787,1565,10,97,6
0.10000000000000142,1565,11,97,2
0.10000000000000142,1565,12,97,2
0.10000000000000142,1565,13,97,7
0.10000000000000142,1565,14,97,8
0.10000000000000142,1565,15,97,2
0.10000000000000142,1566,0,97,7
0.10000000000000142,1566,1,97,3
0.09999999999999787,1566,2,97,8
0.09999999999999787,1566,3,97,7
0.09999999999999787,1566,4,97,3
0.10000000000000142,1566,5,97,2
0.09999999999999787,1566,6,97,8
0.10000000000000142,1566,7,97,3
0.10000000000000142,1566,8,97,4
0.10000000000000142,1566,9,97,5
0.10000000000000142,1566,10,97,5
0.10000000000000142,1566,11,97,2
0.09999999999999787,1566,12,97,2
0.10000000000000142,1566,13,97,7
0.09999999999999787,1566,14,97,2
0.09999999999999787,1566,15,97,6
0.10000000000000142,1567,0,97,8
0.10000000000000142,1567,1,97,2
0.10000000000000142,1567,2,97,4
0.10000000000000142,1567,3,97,2
0.10000000000000142,1567,4,97,31
0.10000000000000142,1567,5,97,127
0.10000000000000142,1567,6,97,33
0.09999999999999432,1567,7,97,127
0.10000000000000142,1567,8,97,13
0.10000000000000142,1567,9,97,3
0.10000000000000142,1567,10,97,2
0.10000000000000142,1567,11,97,2
0.10000000000000142,1567,12,97,5
0.10000000000000142,1567,13,97,31
0.10000000000000142,1567,14,97,4
0.10000000000000142,1567,15,97,2
0.10000000000000142,1568,0,97,127
0.10000000000000142,1568,1,97,3
0.10000000000000142,1568,2,97,13
0.10000000000000142,1568,3,97,127
0.10000000000000142,1568,4,97,12
0.09999999999999432,1568,5,97,5
0.10000000000000142,1568,6,97,2
0.10000000000000142,1568,7,97,127
0.10000000000000142,1568,8,97,29
0.10000000000000142,1568,9,97,4
0.10000000000000142,1568,10,97,2
0.10000000000000142,1568,11,97,127
0.10000000000000142,1568,12,97,2
0.10000000000000142,1568,13,97,28
0.10000000000000142,1568,14,97,127
0.10000000000000142,1568,15,97,10
0.10000000000000142,1569,0,97,3
0.10000000000000142,1569,1,97,4
0.10000000000000142,1569,2,97,1
0.10000000000000142,1569,3,97,1
0.09999999999999432,1569,4,97,28
0.10000000000000142,1569,5,97,4
0.10000000000000142,1569,6,97,2
0.10000000000000142,1569,7,97,127
0.10000000000000142,1569,8,97,13
0.10000000000000142,1569,9,97,3
0.10000000000000142,1569,10,97,14
0.10000000000000142,1569,11,97,127
0.10000000000000142,1569,12,97,12
0.09999999999999432,1569,13,97,4
0.10000000000000142,1569,14,97,2
0.10000000000000142,1569,15,97,127
0.10000000000000142,1570,0,97,13
0.10000000000000142,1570,1,97,29
0.10000000000000142,1570,2,97,1
0.10000000000000142,1570,3,97,2
0.09999999999999432,1570,4,97,127
0.09999999999999432,1570,5,97,3
0.10000000000000142,1570,6,97,21
0.10000000000000142,1570,7,97,127
0.10000000000000142,1570,8,97,12
0.10000000000000142,1570,9,97,2
0.10000000000000142,1570,10,97,1
0.10000000000000142,1570,11,97,1
0.10000000000000142,1570,12,97,5
0.09999999999999432,1570,13,97,30
0.09999999999999432,1570,14,97,2
0.10000000000000142,1570,15,97,2
0.10000000000000142,1571,0,97,127
0.10000000000000142,1571,1,97,2
0.10000000000000142,1571,2,97,13
0.09999999999999432,1571,3,97,4
0.10000000000000142,1571,4,97,1
0.10000000000000142,1571,5,97,127
0.09999999999999432,1571,6,97,13
0.10000000000000142,1571,7,97,3
0.10000000000000142,1571,8,97,32
0.09999999999999432,1571,9,97,4
0.10000000000000142,1571,10,97,2
0.09999999999999432,1571,11,97,127
0.09999999999999432,1571,12,97,3
0.10000000000000142,1571,13,97,10
0.10000000000000142,1571,14,97,127
0.10000000000000142,1571,15,97,12
0.10000000000000142,1572,0,97,2
0.10000000000000142,1572,1,97,3
0.09999999999999432,1572,2,97,127
0.10000000000000142,1572,3,97,12
0.10000000000000142,1572,4,97,17
0.10000000000000142,1572,5,97,3
0.10000000000000142,1572,6,97,2
0.10000000000000142,1572,7,97,127
0.09999999999999432,1572,8,97,22
0.09999999999999432,1572,9,97,127
0.10000000000000142,1572,10,97,72
0.10000000000000142,1572,11,97,127
0.10000000000000142,1572,12,97,127
0.10000000000000142,1572,13,97,127
0.10000000000000142,1572,14,97,127
0.10000000000000142,1572,15,97,127
0.10000000000000142,1573,0,97,127
0.10000000000000142,1573,1,97,117
0.09999999999999432,1573,2,97,120
0.10000000000000142,1573,3,97,127
0.10000000000000142,1573,4,97,117
0.10000000000000142,1573,5,97,127
0.10000000000000142,1573,6,97,127
0.10000000000000142,1573,7,97,127
0.10000000000000142,1573,8,97,116
0.10000000000000142,1573,9,97,3
0.10000000000000142,1573,10,97,127
0.10000000000000142,1573,11,97,4
0.10000000000000142,1573,12,97,126
0.10000000000000142,1573,13,97,4
0.10000000000000142,1573,14,97,127
0.10000000000000142,1573,15,97,126
0.10000000000000142,1574,0,97,127
0.09999999999999432,1574,1,97,119
0.10000000000000853,1574,2,97,127
0.09999999999999432,1574,3,97,10
0.09999999999999432,1574,4,97,112
0.10000000000000853,1574,5,97,10
0.10000000000000853,1574,6,97,122
0.10000000000000853,1574,7,97,127
0.09999999999999432,1574,8,97,127
0.09999999999999432,1574,9,97,124
0.10000000000000853,1574,10,97,12
0.10000000000000853,1574,11,97,127
0.09999999999999432,1574,12,97,8
0.09999999999999432,1574,13,97,125
0.10000000000000853,1574,14,97,5
0.10000000000000853,1574,15,97,84
0.09999999999999432,1575,0,97,127
0.09999999999999432,1575,1,97,106
0.09999999999999432,1575,2,97,127
0.09999999999999432,1575,3,97,101
0.10000000000000853,1575,4,97,127
0.10000000000000853,1575,5,97,68
0.10000000000000853,1575,6,97,127
0.09999999999999432,1575,7,97,126
0.10000000000000853,1575,8,97,127
0.10000000000000853,1575,9,97,74
0.09999999999999432,1575,10,97,127
0.09999999999999432,1575,11,97,127
0.09999999999999432,1575,12,97,118
0.10000000000000853,1575,13,97,13
0.09999999999999432,1575,14,97,127
0.10000000000000853,1575,15,97,6
0.09999999999999432,1576,0,97,122
0.10000000000000853,1576,1,97,13
0.09999999999999432,1576,2,97,127
0.09999999999999432,1576,3,97,109
0.09999999999999432,1576,4,97,127
0.10000000000000853,1576,5,97,115
0.09999999999999432,1576,6,97,11
0.09999999999999432,1576,7,97,127
0.09999999999999432,1576,8,97,12
0.10000000000000853,1576,9,97,127
0.09999999999999432,1576,10,97,11
0.10000000000000853,1576,11,97,127
0.09999999999999432,1576,12,97,127
0.10000000000000853,1576,13,97,44
0.09999999999999432,1576,14,97,127
0.10000000000000853,1576,15,97,10
0.10000000000000853,1577,0,97,76
0.09999999999999432,1577,1,97,10
0.10000000000000853,1577,2,97,127
0.10000000000000853,1577,3,97,73
0.10000000000000853,1577,4,97,13
0.09999999999999432,1577,5,97,127
0.10000000000000853,1577,6,97,11
0.10000000000000853,1577,7,97,75
0.09999999999999432,1577,8,97,16
0.09999999999999432,1577,9,97,127
0.09999999999999432,1577,10,97,22
0.10000000000000853,1577,11,97,127
0.09999999999999432,1577,12,97,71
0.09999999999999432,1577,13,97,13
0.10000000000000853,1577,14,97,127
0.10000000000000853,1577,15,97,127
0.10000000000000853,1578,0,97,67
0.09999999999999432,1578,1,97,127
0.10000000000000853,1578,2,97,127
0.10000000000000853,1578,3,97,127
0.09999999999999432,1578,4,97,65
0.10000000000000853,1578,5,97,127
0.10000000000000853,1578,6,97,11
0.09999999999999432,1578,7,97,127
0.10000000000000853,1578,8,97,15
0.10000000000000853,1578,9,97,127
0.09999999999999432,1578,10,97,100
0.10000000000000853,1578,11,97,22
0.09999999999999432,1578,12,97,127
0.09999999999999432,1578,13,97,15
0.09999999999999432,1578,14,97,27
0.09999999999999432,1578,15,97,24
0.10000000000000853,1579,0,97,127
0.09999999999999432,1579,1,97,127
0.09999999999999432,1579,2,97,109
0.10000000000000853,1579,3,97,17
0.10000000000000853,1579,4,97,127
0.09999999999999432,1579,5,97,18
0.09999999999999432,1579,6,97,23
0.10000000000000853,1579,7,97,22
0.10000000000000853,1579,8,97,19
0.09999999999999432,1579,9,97,127
0.09999999999999432,1579,10,97,95
0.09999999999999432,1579,11,97,18
0.09999999999999432,1579,12,97,127
0.09999999999999432,1579,13,97,20
0.09999999999999432,1579,14,97,22
0.10000000000000853,1579,15,97,25
0.09999999999999432,1580,0,97,127
0.09999999999999432,1580,1,97,127
0.09999999999999432,1580,2,97,52
0.10000000000000853,1580,3,97,127
0.09999999999999432,1580,4,97,81
0.10000000000000853,1580,5,97,125
0.09999999999999432,1580,6,97,127
0.09999999999999432,1580,7,97,127
0.10000000000000853,1580,8,97,90
0.09999999999999432,1580,9,97,127
0.09999999999999432,1580,10,97,127
0.09999999999999432,1580,11,97,95
0.10000000000000853,1580,12,97,8
0.09999999999999432,1580,13,97,7
0.09999999999999432,1580,14,97,127
0.10000000000000853,1580,15,97,6
0.09999999999999432,1581,0,97,127
0.10000000000000853,1581,1,97,9
0.09999999999999432,1581,2,97,7
0.09999999999999432,1581,3,97,127
0.09999999999999432,1581,4,97,92
0.09999999999999432,1581,5,97,127
0.10000000000000853,1581,6,97,14
0.10000000000000853,1581,7,97,114
0.10000000000000853,1581,8,97,9
0.09999999999999432,1581,9,97,7
0.09999999999999432,1581,10,97,127
0.10000000000000853,1581,11,97,6
0.10000000000000853,1581,12,97,127
0.09999999999999432,1581,13,97,9
0.09999999999999432,1581,14,97,127
0.09999999999999432,1581,15,97,127
0.09999999999999432,1582,0,97,127
0.10000000000000853,1582,1,97,13
0.09999999999999432,1582,2,97,75
0.10000000000000853,1582,3,97,9
0.09999999999999432,1582,4,97,7
0.09999999999999432,1582,5,97,127
0.10000000000000853,1582,6,97,31
0.10000000000000853,1582,7,97,125
0.10000000000000853,1582,8,97,127
0.09999999999999432,1582,9,97,127
0.09999999999999432,1582,10,97,127
0.09999999999999432,1582,11,97,127
0.10000000000000853,1582,12,97,127
0.09999999999999432,1582,13,97,120
0.09999999999999432,1582,14,97,127
0.10000000000000853,1582,15,97,127
0.10000000000000853,1583,0,97,99
0.09999999999999432,1583,1,97,9
0.09999999999999432,1583,2,97,6
0.09999999999999432,1583,3,97,127
0.10000000000000853,1583,4,97,3
0.10000000000000853,1583,5,97,4
0.10000000000000853,1583,6,97,81
0.09999999999999432,1583,7,97,8
0.10000000000000853,1583,8,97,2
0.09999999999999432,1583,9,97,127
0.10000000000000853,1583,10,97,92
0.10000000000000853,1583,11,97,127
0.10000000000000853,1583,12,97,93
0.09999999999999432,1583,13,97,127
0.10000000000000853,1583,14,97,96
0.09999999999999432,1583,15,97,11
0.09999999999999432,1584,0,97,89
0.09999999999999432,1584,1,97,127
0.10000000000000853,1584,2,97,127
0.10000000000000853,1584,3,97,13
0.09999999999999432,1584,4,97,100
0.09999999999999432,1584,5,97,9
0.10000000000000853,1584,6,97,6
0.10000000000000853,1584,7,97,127
0.10000000000000853,1584,8,97,8
0.10000000000000853,1584,9,97,8
0.10000000000000853,1584,10,97,83
0.09999999999999432,1584,11,97,10
0.09999999999999432,1584,12,97,9
0.09999999999999432,1584,13,97,127
0.10000000000000853,1584,14,97,127
0.10000000000000853,1584,15,97,95
0.09999999999999432,1585,0,97,82
0.09999999999999432,1585,1,97,113
0.09999999999999432,1585,2,97,51
0.09999999999999432,1585,3,97,127
0.10000000000002274,1585,4,97,98
0.09999999999999432,1585,5,97,9
0.09999999999999432,1585,6,97,92
0.09999999999999432,1585,7,97,127
0.09999999999999432,1585,8,97,127
0.09999999999999432,1585,9,97,16
0.09999999999999432,1585,10,97,89
0.09999999999999432,1585,11,97,10
0.09999999999999432,1585,12,97,8
0.09999999999999432,1585,13,97,127
0.09999999999999432,1585,14,97,7
0.10000000000002274,1585,15,97,8
0.09999999999999432,1586,0,97,111
0.09999999999999432,1586,1,97,9
0.09999999999999432,1586,2,97,8
0.09999999999999432,1586,3,97,127
0.09999999999999432,1586,4,97,102
0.09999999999999432,1586,5,97,127
0.09999999999999432,1586,6,97,14
0.09999999999999432,1586,7,97,90
0.09999999999999432,1586,8,97,10
0.09999999999999432,1586,9,97,8
0.09999999999999432,1586,10,97,127
0.09999999999999432,1586,11,97,9
0.10000000000002274,1586,12,97,8
0.09999999999999432,1586,13,97,89
0.09999999999999432,1586,14,97,11
0.09999999999999432,1586,15,97,94
0.09999999999999432,1587,0,97,127
0.09999999999999432,1587,1,97,127
0.09999999999999432,1587,2,97,16
0.09999999999999432,1587,3,97,95
0.09999999999999432,1587,4,97,83
0.09999999999999432,1587,5,97,100
0.09999999999999432,1587,6,97,50
0.09999999999999432,1587,7,97,127
0.10000000000002274,1587,8,97,25
0.09999999999999432,1587,9,97,13
0.09999999999999432,1587,10,97,103
0.09999999999999432,1587,11,97,13
0.09999999999999432,1587,12,97,9
0.09999999999999432,1587,13,97,127
0.10000000000002274,1587,14,97,127
0.09999999999999432,1587,15,97,15
0.10000000000002274,1588,0,97,98
0.09999999999999432,1588,1,97,127
0.09999999999999432,1588,2,97,30
0.09999999999999432,1588,3,97,63
0.10000000000002274,1588,4,97,127
0.09999999999999432,1588,5,97,127
0.09999999999999432,1588,6,97,127
0.09999999999999432,1588,7,97,39
0.09999999999999432,1588,8,97,120
0.10000000000002274,1588,9,97,69
0.09999999999999432,1588,10,97,118
0.10000000000002274,1588,11,97,103
0.09999999999999432,1588,12,97,127
0.09999999999999432,1588,13,97,127
0.09999999999999432,1588,14,97,127
0.10000000000002274,1588,15,97,33
0.10000000000002274,1589,0,97,127
0.09999999999999432,1589,1,97,127
0.09999999999999432,1589,2,97,125
0.09999999999999432,1589,3,97,127
0.09999999999999432,1589,4,97,127
0.10000000000002274,1589,5,97,33
0.09999999999999432,1589,6,97,127
0.09999999999999432,1589,7,97,127
0.09999999999999432,1589,8,97,127
0.09999999999999432,1589,9,97,31
0.09999999999999432,1589,10,97,127
0.09999999999999432,1589,11,97,127
0.09999999999999432,1589,12,97,125
0.09999999999999432,1589,13,97,127
0.09999999999999432,1589,14,97,127
0.09999999999999432,1589,15,97,127
0.09999999999999432,1590,0,97,32
0.10000000000002274,1590,1,97,127
0.09999999999999432,1590,2,97,42
0.09999999999999432,1590,3,97,119
0.09999999999999432,1590,4,97,38
0.09999999999999432,1590,5,97,127
0.09999999999999432,1590,6,97,115
0.09999999999999432,1590,7,97,127
0.09999999999999432,1590,8,97,127
0.09999999999999432,1590,9,97,34
0.09999999999999432,1590,10,97,127
0.09999999999999432,1590,11,97,127
0.09999999999999432,1590,12,97,114
0.09999999999999432,1590,13,97,31
0.10000000000002274,1590,14,97,127
0.09999999999999432,1590,15,97,124
0.09999999999999432,1591,0,97,127
0.10000000000002274,1591,1,97,127
0.09999999999999432,1591,2,97,121
0.10000000000002274,1591,3,97,127
0.09999999999999432,1591,4,97,127
0.09999999999999432,1591,5,97,127
0.09999999999999432,1591,6,97,127
0.10000000000000142,1591,7,61,14
0.10000000000000009,1591,8,57,11
0.02499999999999991,1591,9,57,23
0.09999999999999964,1591,10,57,21
0.09999999999999964,1591,11,57,25
0.10000000000000009,1591,12,57,23
0.09999999999999964,1591,13,57,32
0.09999999999999964,1591,14,57,20
0.10000000000000053,1591,15,57,22
0.09999999999999964,1592,0,57,23
0.10000000000000053,1592,1,57,37
0.09999999999999964,1592,2,57,26
0.09999999999999964,1592,3,57,14
0.10000000000000053,1592,4,57,28
0.09999999999999964,1592,5,57,14
0.09999999999999964,1592,6,57,34
0.09999999999999964,1592,7,57,26
0.09999999999999964,1592,8,57,19
0.09999999999999964,1592,9,57,20
0.06818181818181834,1592,10,57,28
0.10000000000000142,1592,11,57,14
0.10000000000000142,1592,12,57,10
0.10000000000000142,1592,13,57,9
0.09999999999999964,1592,14,57,10
0.09999999999999964,1592,15,57,18
0.10000000000000142,1593,0,57,41
0.09999999999999964,1593,1,57,29
0.09999999999999964,1593,2,57,23
0.09999999999999964,1593,3,57,22
0.09999999999999787,1593,4,57,13
0.09999999999999787,1593,5,57,40
0.10000000000000142,1593,6,57,44
0.09999999999999787,1593,7,57,43
0.10000000000000142,1593,8,57,14
0.09999999999999787,1593,9,57,21
0.09999999999999787,1593,10,57,21
0.10000000000000142,1593,11,57,37
0.10000000000000142,1593,12,57,18
0.09999999999999787,1593,13,57,18
0.09999999999999787,1593,14,57,30
0.10000000000000142,1593,15,57,18
0.09999999999999787,1594,0,57,36
0.10000000000000142,1594,1,57,36
0.09999999999999787,1594,2,57,9
0.09999999999999787,1594,3,57,22
0.10000000000000142,1594,4,57,23
0.10000000000000142,1594,5,57,24
0.10000000000000142,1594,6,57,23
0.10000000000000142,1594,7,57,9
0.09999999999999787,1594,8,57,27
0.10000000000000142,1594,9,57,32
0.10000000000000142,1594,10,57,33
0.10000000000000142,1594,11,57,12
0.09999999999999787,1594,12,57,16
0.10000000000000142,1594,13,57,31
0.10000000000000142,1594,14,57,11
0.10000000000000142,1594,15,57,28
0.10000000000000142,1595,0,57,11
0.10000000000000142,1595,1,57,8
0.10000000000000142,1595,2,57,35
0.10000000000000142,1595,3,57,53
0.09999999999999432,1595,4,57,42
0.10000000000000142,1595,5,57,35
0.056818181818186986,1595,6,57,37
0.09999999999999432,1595,7,57,27
0.10000000000000142,1595,8,57,31
0.10000000000000142,1595,9,57,42
0.10000000000000142,1595,10,57,32
0.10000000000000142,1595,11,57,34
0.10000000000000142,1595,12,57,35
0.10000000000000142,1595,13,57,48
0.10000000000000142,1595,14,57,29
0.10000000000000142,1595,15,57,25
0.10000000000000142,1596,0,57,26
0.10000000000000142,1596,1,57,24
0.10000000000000142,1596,2,57,48
0.10000000000000142,1596,3,57,28
0.10000000000000142,1596,4,57,29
0.10000000000000142,1596,5,57,39
0.10000000000000142,1596,6,57,25
0.10000000000000142,1596,7,57,17
0.10000000000000142,1596,8,57,24
0.09999999999999432,1596,9,57,28
0.10000000000000142,1596,10,57,18
0.10000000000000142,1596,11,57,22
0.10000000000000142,1596,12,57,17
0.10000000000000142,1596,13,57,11
0.09999999999999432,1596,14,57,7
0.05681818181817988,1596,15,57,23
0.10000000000000142,1597,0,57,55
0.10000000000000142,1597,1,57,30
0.10000000000000142,1597,2,57,36
0.10000000000000142,1597,3,57,21
0.09999999999999432,1597,4,57,23
0.10000000000000142,1597,5,57,23
0.10000000000000142,1597,6,57,19
0.05681818181817988,1597,7,57,21
0.10000000000000142,1597,8,57,19
0.10000000000000142,1597,9,57,33
0.09999999999999432,1597,10,57,31
0.09999999999999432,1597,11,57,24
0.10000000000000142,1597,12,57,14
0.10000000000000142,1597,13,57,40
0.09999999999999432,1597,14,57,33
0.10000000000000142,1597,15,57,36
0.10000000000000142,1598,0,57,27
0.10000000000000142,1598,1,57,22
0.10000000000000142,1598,2,57,30
0.09999999999999432,1598,3,57,23
0.10000000000000142,1598,4,57,13
0.09999999999999432,1598,5,57,29
0.09999999999999432,1598,6,57,34
0.10000000000000142,1598,7,57,33
0.10000000000000142,1598,8,57,24
0.10000000000000142,1598,9,57,19
0.10000000000000142,1598,10,57,20
0.09999999999999432,1598,11,57,43
0.10000000000000142,1598,12,57,42
0.10000000000000142,1598,13,57,37
0.09999999999999432,1598,14,57,29
0.09999999999999432,1598,15,57,26
0.09999999999999432,1599,0,57,23
0.10000000000000142,1599,1,57,30
0.10000000000000142,1599,2,57,21
0.10000000000000142,1599,3,57,29
0.10000000000000853,1599,4,57,25
0.10000000000000853,1599,5,57,25
0.10000000000000853,1599,6,57,26
0.10000000000000853,1599,7,57,16
0.09999999999999432,1599,8,57,24
0.09999999999999432,1599,9,57,26
0.10000000000000853,1599,10,57,18
0.10000000000000853,1599,11,57,19
0.09999999999999432,1599,12,57,22
0.10000000000000853,1599,13,57,17
0.09999999999999432,1599,14,57,27
0.10000000000000853,1599,15,57,18
0.09999999999999432,1600,0,57,37
0.10000000000000853,1600,1,57,34
0.09999999999999432,1600,2,57,34
0.09999999999999432,1600,3,57,24
0.09999999999999432,1600,4,57,30
0.09999999999999432,1600,5,57,42
0.06818181818181301,1600,6,57,57
0.09999999999999432,1600,7,57,1
0.10000000000000853,1600,8,57,32
0.09999999999999432,1600,9,57,40
0.09999999999999432,1600,10,57,35
0.09999999999999432,1600,11,57,34
0.09999999999999432,1600,12,57,34
0.09999999999999432,1600,13,57,47
0.10000000000000853,1600,14,57,57
0.10000000000000853,1600,15,57,47
0.10000000000000853,1601,0,57,37
0.09999999999999432,1601,1,57,37
0.09999999999999432,1601,2,57,34
0.10000000000000853,1601,3,57,58
0.10000000000000853,1601,4,57,57
0.10000000000000853,1601,5,57,33
0.10000000000000853,1601,6,57,34
0.09999999999999432,1601,7,57,28
0.10000000000000853,1601,8,57,25
0.09999999999999432,1601,9,57,31
0.10000000000000853,1601,10,57,22
0.10000000000000853,1601,11,57,37
0.10000000000000853,1601,12,57,36
0.09999999999999432,1601,13,57,26
0.09999999999999432,1601,14,57,18
0.09999999999999432,1601,15,57,12
0.10000000000000853,1602,0,57,8
0.056818181818186986,1602,1,57,15
0.09999999999999432,1602,2,57,24
0.09999999999999432,1602,3,57,7
0.10000000000000853,1602,4,57,19
0.10000000000000853,1602,5,57,32
0.10000000000000853,1602,6,57,16
0.09999999999999432,1602,7,57,18
0.09999999999999432,1602,8,57,32
0.09999999999999432,1602,9,57,26
0.10000000000000853,1602,10,57,16
0.06818181818182723,1602,11,57,39
0.01590909090909065,1602,12,57,53
0.09999999999999432,1602,13,57,26
0.09999999999999432,1602,14,57,21
0.06818181818181301,1602,15,57,23
0.10000000000000853,1603,0,57,39
0.10000000000000853,1603,1,57,39
0.06818181818182723,1603,2,57,47
0.09999999999999432,1603,3,57,21
0.10000000000000853,1603,4,57,21
0.09999999999999432,1603,5,57,37
0.10000000000000853,1603,6,57,16
0.10000000000000853,1603,7,57,45
0.10000000000000853,1603,8,57,14
0.04772727272727195,1603,9,57,43
0.10000000000000853,1603,10,57,36
0.10000000000000853,1603,11,57,47
0.10000000000000853,1603,12,57,39
0.09999999999999432,1603,13,57,39
0.10000000000000853,1603,14,57,12
0.09999999999999432,1603,15,57,39
0.09999999999999432,1604,0,57,42
0.09999999999999432,1604,1,57,15
0.10000000000000853,1604,2,57,37
0.10000000000000853,1604,3,57,30
0.09999999999999432,1604,4,57,21
0.10000000000000853,1604,5,57,17
0.09999999999999432,1604,6,57,21
0.056818181818172775,1604,7,57,30
0.09999999999999432,1604,8,57,23
0.09999999999999432,1604,9,57,30
0.09999999999999432,1604,10,57,11
0.06818181818181301,1604,11,57,11
0.09999999999999432,1604,12,57,19
0.09999999999999432,1604,13,57,68
0.09999999999999432,1604,14,57,23
0.056818181818186986,1604,15,57,21
0.10000000000000853,1605,0,57,15
0.06818181818182723,1605,1,57,15
0.09999999999999432,1605,2,57,29
0.09999999999999432,1605,3,57,28
0.10000000000000853,1605,4,57,49
0.09999999999999432,1605,5,57,29
0.09999999999999432,1605,6,57,80
0.09999999999999432,1605,7,57,56
0.10000000000000853,1605,8,57,19
0.09999999999999432,1605,9,57,13
0.10000000000000853,1605,10,57,23
0.09999999999999432,1605,11,57,34
0.09999999999999432,1605,12,57,25
0.09999999999999432,1605,13,57,46
0.09999999999999432,1605,14,57,24
0.09999999999999432,1605,15,57,45
0.10000000000000853,1606,0,57,29
0.09999999999999432,1606,1,57,34
0.09999999999999432,1606,2,57,46
0.10000000000000853,1606,3,57,16
0.09999999999999432,1606,4,57,24
0.09999999999999432,1606,5,57,23
0.10000000000000853,1606,6,57,43
0.10000000000000853,1606,7,57,22
0.09999999999999432,1606,8,57,39
0.09999999999999432,1606,9,57,38
0.10000000000000853,1606,10,57,28
0.09999999999999432,1606,11,57,30
0.09999999999999432,1606,12,57,18
0.10000000000000853,1606,13,57,15
0.10000000000000853,1606,14,57,46
0.09999999999999432,1606,15,57,5
0.10000000000000853,1607,0,57,27
0.09999999999999432,1607,1,57,27
0.10000000000000853,1607,2,57,36
0.09999999999999432,1607,3,57,22
0.09999999999999432,1607,4,57,31
0.09999999999999432,1607,5,57,18
0.09999999999999432,1607,6,57,15
0.09999999999999432,1607,7,57,31
0.09999999999999432,1607,8,57,36
0.10000000000000853,1607,9,57,21
0.09999999999999432,1607,10,57,25
0.10000000000000853,1607,11,57,20
0.09999999999999432,1607,12,57,34
0.10000000000000853,1607,13,57,20
0.09999999999999432,1607,14,57,22
0.09999999999999432,1607,15,57,24
0.10000000000000853,1608,0,57,33
0.10000000000000853,1608,1,57,30
0.10000000000000853,1608,2,57,43
0.10000000000000853,1608,3,57,16
0.09999999999999432,1608,4,57,38
0.10000000000000853,1608,5,57,51
0.09999999999999432,1608,6,57,29
0.10000000000000853,1608,7,57,20
0.09999999999999432,1608,8,57,22
0.09999999999999432,1608,9,57,23
0.10000000000000853,1608,10,57,35
0.10000000000000853,1608,11,57,19
0.09999999999999432,1608,12,57,15
0.09999999999999432,1608,13,57,38
0.09999999999999432,1608,14,57,41
0.09999999999999432,1608,15,57,18
0.09999999999999432,1609,0,57,25
0.09999999999999432,1609,1,57,45
0.09999999999999432,1609,2,57,17
0.09999999999999432,1609,3,57,19
0.10000000000002274,1609,4,57,47
0.09999999999999432,1609,5,57,38
0.09999999999999432,1609,6,57,37
0.09999999999999432,1609,7,57,15
0.09999999999999432,1609,8,57,33
0.09999999999999432,1609,9,57,46
0.09999999999999432,1609,10,57,20
0.09999999999999432,1609,11,57,38
0.10000000000002274,1609,12,57,19
0.09999999999999432,1609,13,57,45
0.09999999999999432,1609,14,57,24
0.10000000000002274,1609,15,57,38
0.09999999999999432,1610,0,57,40
0.09999999999999432,1610,1,57,15
0.10000000000002274,1610,2,57,36
0.10000000000002274,1610,3,57,33
0.09999999999999432,1610,4,57,28
0.09999999999999432,1610,5,57,45
0.09999999999999432,1610,6,57,41
0.09999999999999432,1610,7,57,24
0.09999999999999432,1610,8,57,52
0.09999999999999432,1610,9,57,25
0.10000000000002274,1610,10,57,48
0.09999999999999432,1610,11,57,14
0.06818181818181301,1610,12,57,37
0.01590909090910486,1610,13,57,50
0.09999999999999432,1610,14,57,45
0.09999999999999432,1610,15,57,78
0.09999999999999432,1611,0,57,19
0.10000000000002274,1611,1,57,55
0.09999999999999432,1611,2,57,60
0.10000000000002274,1611,3,57,15
0.09999999999999432,1611,4,57,22
0.10000000000002274,1611,5,57,48
0.09999999999999432,1611,6,57,51
0.09999999999999432,1611,7,57,30
0.09999999999999432,1611,8,57,20
0.10000000000002274,1611,9,57,51
0.09999999999999432,1611,10,57,67
0.09999999999999432,1611,11,57,32
0.10000000000002274,1611,12,57,26
0.10000000000002274,1611,13,57,49
0.10000000000002274,1611,14,57,18
0.09999999999999432,1611,15,57,67
0.10000000000002274,1612,0,57,15
0.09999999999999432,1612,1,57,15
0.10000000000002274,1612,2,57,41
0.10000000000002274,1612,3,57,17
0.09999999999999432,1612,4,57,67
0.09999999999999432,1612,5,57,26
0.10000000000002274,1612,6,57,24
0.10000000000002274,1612,7,57,30
0.09999999999999432,1612,8,57,29
0.09999999999999432,1612,9,57,80
0.09999999999999432,1612,10,57,24
0.09999999999999432,1612,11,57,23
0.06818181818181301,1612,12,57,28
0.09999999999999432,1612,13,57,71
0.10000000000002274,1612,14,57,50
0.09999999999999432,1612,15,57,66
0.09999999999999432,1613,0,57,63
0.09999999999999432,1613,1,57,56
0.09999999999999432,1613,2,57,54
0.10000000000002274,1613,3,57,60
0.09999999999999432,1613,4,57,54
0.09999999999999432,1613,5,57,37
0.09999999999999432,1613,6,57,63
0.09999999999999432,1613,7,57,59
0.09999999999999432,1613,8,57,49
0.09999999999999432,1613,9,57,71
0.09999999999999432,1613,10,57,39
0.09999999999999432,1613,11,57,51
0.10000000000002274,1613,12,57,65
0.09999999999999432,1613,13,57,62
0.09999999999999432,1613,14,57,42
0.10000000000002274,1613,15,57,46
0.09999999999999432,1614,0,57,43
0.09999999999999432,1614,1,57,48
0.09999999999999432,1614,2,57,54
0.09999999999999432,1614,3,57,64
0.09999999999999432,1614,4,57,50
0.09999999999999432,1614,5,57,77
0.09999999999999432,1614,6,57,57
0.09999999999999432,1614,7,57,46
0.09999999999999432,1614,8,57,70
0.09999999999999432,1614,9,57,50
0.09999999999999432,1614,10,57,56
0.09999999999999432,1614,11,57,48
0.10000000000002274,1614,12,57,42
0.10000000000002274,1614,13,57,83
0.09999999999999432,1614,14,57,57
0.09999999999999432,1614,15,57,63
0.09999999999999432,1615,0,57,59
0.09999999999999432,1615,1,57,78
0.09999999999999432,1615,2,57,12
0.03636363636363171,1615,3,57,53
0.09999999999999432,1615,4,57,28
0.09999999999999432,1615,5,57,37
0.056818181818186986,1615,6,57,59
0.09999999999999432,1615,7,57,54
0.09999999999999432,1615,8,57,34
0.09999999999999432,1615,9,57,19
0.05909090909088377,1615,10,57,27
0.004545454545450411,1615,11,57,33
0.09999999999999432,1615,12,57,38
0.09999999999999432,1615,13,57,31
0.10000000000002274,1615,14,57,23
0.09999999999999432,1615,15,57,27
0.05909090909091219,1616,0,57,32
0.024999999999977263,1616,1,57,69
0.09999999999999432,1616,2,57,36
0.09999999999999432,1616,3,57,60
0.09999999999999432,1616,4,57,42
0.04772727272728616,1616,5,57,41
0.09999999999999432,1616,6,57,43
0.09999999999999432,1616,7,57,43
0.09999999999999432,1616,8,57,35
0.09999999999999432,1616,9,57,16
0.03409090909090651,1616,10,57,15
0.03636363636363171,1616,11,57,14
0.024999999999977263,1616,12,57,14
0.025000000000005684,1616,13,57,51
0.03636363636363171,1616,14,57,75
0.09999999999999432,1616,15,57,83
0.04772727272725774,1617,0,57,80
0.09999999999999432,1617,1,57,73
0.09999999999999432,1617,2,57,66
0.09999999999999432,1617,3,57,55
0.10000000000000009,1617,4,69,34
0.10000000000000009,1617,5,69,20
0.09999999999999964,1617,6,69,24
0.10000000000000053,1617,7,69,7
0.09999999999999964,1617,8,69,16
0.10000000000000053,1617,9,69,14
0.05681818181818166,1617,10,69,21
0.09999999999999964,1617,11,69,20
0.09999999999999964,1617,12,69,18
0.09999999999999964,1617,13,69,14
0.10000000000000142,1617,14,69,19
0.10000000000000142,1617,15,69,8
0.06818181818181834,1618,0,69,18
0.09999999999999964,1618,1,69,20
0.10000000000000142,1618,2,69,17
0.09999999999999964,1618,3,69,24
0.10000000000000142,1618,4,69,25
0.09999999999999787,1618,5,69,37
0.10000000000000142,1618,6,69,9
0.004545454545453964,1618,7,69,42
0.10000000000000142,1618,8,69,30
0.10000000000000142,1618,9,69,22
0.09999999999999787,1618,10,69,26
0.10000000000000142,1618,11,69,33
0.09999999999999432,1618,12,69,34
0.10000000000000142,1618,13,69,50
0.10000000000000142,1618,14,69,24
0.10000000000000142,1618,15,69,38
0.10000000000000142,1619,0,69,15
0.09999999999999432,1619,1,69,26
0.10000000000000142,1619,2,69,20
0.10000000000000142,1619,3,69,14
0.09999999999999432,1619,4,69,16
0.10000000000000142,1619,5,69,23
0.10000000000000142,1619,6,69,16
0.10000000000000142,1619,7,69,14
0.10000000000000142,1619,8,69,24
0.09999999999999432,1619,9,69,20
0.09999999999999432,1619,10,69,10
0.09999999999999432,1619,11,69,40
0.10000000000000142,1619,12,69,32
0.10000000000000142,1619,13,69,26
0.10000000000000142,1619,14,69,28
0.10000000000000142,1619,15,69,20
0.10000000000000142,1620,0,69,16
0.10000000000000142,1620,1,69,42
0.10000000000000142,1620,2,69,13
0.10000000000000142,1620,3,69,18
0.10000000000000142,1620,4,69,28
0.09999999999999432,1620,5,69,31
0.10000000000000142,1620,6,69,17
0.10000000000000142,1620,7,69,13
0.10000000000000142,1620,8,69,12
0.09999999999999432,1620,9,69,10
0.10000000000000853,1620,10,69,10
0.09999999999999432,1620,11,69,10
0.09999999999999432,1620,12,69,16
0.09999999999999432,1620,13,69,16
0.09999999999999432,1620,14,69,11
0.09999999999999432,1620,15,69,11
0.09999999999999432,1621,0,69,12
0.10000000000000853,1621,1,69,18
0.10000000000000853,1621,2,69,15
0.09999999999999432,1621,3,69,13
0.09999999999999432,1621,4,69,13
0.09999999999999432,1621,5,69,13
0.09999999999999432,1621,6,69,9
0.10000000000000853,1621,7,69,17
0.09999999999999432,1621,8,69,12
0.10000000000000853,1621,9,69,21
0.09999999999999432,1621,10,69,19
0.10000000000000853,1621,11,69,16
0.09999999999999432,1621,12,69,18
0.10000000000000853,1621,13,69,10
0.09999999999999432,1621,14,69,12
0.09999999999999432,1621,15,69,8
0.09999999999999432,1622,0,69,16
0.09999999999999432,1622,1,69,15
0.10000000000000853,1622,2,69,6
0.09999999999999432,1622,3,69,14
0.09999999999999432,1622,4,69,3
0.09999999999999432,1622,5,69,6
0.09999999999999432,1622,6,69,2
0.09999999999999432,1622,7,69,22
0.09999999999999432,1622,8,69,17
0.10000000000000853,1622,9,69,10
0.09999999999999432,1622,10,69,13
0.09999999999999432,1622,11,69,7
0.09999999999999432,1622,12,69,5
0.09999999999999432,1622,13,69,13
0.10000000000000853,1622,14,69,12
0.09999999999999432,1622,15,69,15
0.09999999999999432,1623,0,69,17
0.09999999999999432,1623,1,69,10
0.10000000000000853,1623,2,69,13
0.10000000000000853,1623,3,69,10
0.09999999999999432,1623,4,69,7
0.09999999999999432,1623,5,69,10
0.09999999999999432,1623,6,69,6
0.09999999999999432,1623,7,69,5
0.10000000000000853,1623,8,69,7
0.09999999999999432,1623,9,69,7
0.10000000000000853,1623,10,69,6
0.09999999999999432,1623,11,69,8
0.09999999999999432,1623,12,69,5
0.09999999999999432,1623,13,69,5
0.09999999999999432,1623,14,69,6
0.09999999999999432,1623,15,69,5
0.10000000000002274,1624,0,69,4
0.09999999999999432,1624,1,69,6
0.09999999999999432,1624,2,69,7
0.09999999999999432,1624,3,69,6
0.09999999999999432,1624,4,69,7
0.09999999999999432,1624,5,69,7
0.09999999999999432,1624,6,69,6
0.10000000000002274,1624,7,69,8
0.09999999999999432,1624,8,69,5
0.10000000000002274,1624,9,69,5
0.09999999999999432,1624,10,69,5
0.10000000000002274,1624,11,69,5
0.09999999999999432,1624,12,69,5
0.10000000000002274,1624,13,69,6
0.09999999999999432,1624,14,69,7
0.09999999999999432,1624,15,69,6
0.09999999999999432,1625,0,69,6
0.09999999999999432,1625,1,69,7
0.09999999999999432,1625,2,69,7
0.09999999999999432,1625,3,69,7
0.09999999999999432,1625,4,69,14
0.09999999999999432,1625,5,69,10
0.09999999999999432,1625,6,69,12
0.10000000000002274,1625,7,69,5
0.09999999999999432,1625,8,69,12
0.10000000000002274,1625,9,69,16
0.09999999999999432,1625,10,69,12
0.10000000000002274,1625,11,69,17
0.09999999999999432,1625,12,69,11
0.09999999999999432,1625,13,69,12
0.09999999999999432,1625,14,69,16
0.09999999999999432,1625,15,69,9
0.09999999999999432,1626,0,69,12
0.09999999999999432,1626,1,69,14
0.09999999999999432,1626,2,69,15
0.09999999999999432,1626,3,69,17
0.09999999999999432,1626,4,69,18
0.09999999999999432,1626,5,69,19
0.09999999999999432,1626,6,69,12
0.09999999999999432,1626,7,69,19
0.09999999999999432,1626,8,69,16
0.09999999999999432,1626,9,69,12
0.09999999999999432,1626,10,69,42
0.09999999999999432,1626,11,69,44
0.09999999999999432,1626,12,69,37
0.1,1626,13,65,1
0.09999999999999964,1626,14,65,1
0.10000000000000142,1626,15,65,1
0.09999999999999787,1627,0,65,1
0.09999999999999787,1627,1,65,1
0.10000000000000142,1627,2,65,1
0.10000000000000142,1627,3,65,1
0.10000000000000142,1627,4,65,1
0.10000000000000142,1627,5,65,1
0.10000000000000142,1627,6,65,1
0.10000000000000142,1627,7,65,1
0.10000000000000142,1627,8,65,1
0.10000000000000142,1627,9,65,1
0.09999999999999432,1627,10,65,1
0.10000000000000142,1627,11,65,1
0.09999999999999432,1627,12,65,1
0.10000000000000142,1627,13,65,1
0.09999999999999432,1627,14,65,1
0.10000000000000142,1627,15,65,1
0.10000000000000142,1628,0,65,1
0.10000000000000142,1628,1,65,1
0.10000000000000142,1628,2,65,1
0.09999999999999432,1628,3,65,1
0.10000000000000142,1628,4,65,1
0.10000000000000142,1628,5,65,1
0.10000000000000142,1628,6,65,1
0.09999999999999432,1628,7,65,1
0.10000000000000142,1628,8,65,1
0.10000000000000142,1628,9,65,1
0.10000000000000142,1628,10,65,1
0.10000000000000142,1628,11,65,8
0.10000000000000142,1628,12,65,10
0.10000000000000142,1628,13,65,4
0.10000000000000142,1628,14,65,9
0.10000000000000142,1628,15,65,8
0.09999999999999432,1629,0,65,10
0.09999999999999432,1629,1,65,4
0.10000000000000142,1629,2,65,9
0.10000000000000142,1629,3,65,7
0.10000000000000142,1629,4,65,10
0.10000000000000142,1629,5,65,3
0.10000000000000142,1629,6,65,6
0.10000000000000142,1629,7,65,7
0.10000000000000142,1629,8,65,9
0.10000000000000142,1629,9,65,4
0.10000000000000142,1629,10,65,9
0.10000000000000142,1629,11,65,7
0.10000000000000142,1629,12,65,10
0.09999999999999432,1629,13,65,4
0.10000000000000142,1629,14,65,9
0.10000000000000142,1629,15,65,7
0.10000000000000142,1630,0,65,10
0.10000000000000142,1630,1,65,3
0.10000000000000142,1630,2,65,8
0.10000000000000142,1630,3,65,7
0.09999999999999432,1630,4,65,10
0.09999999999999432,1630,5,65,4
0.09999999999999432,1630,6,65,9
0.09999999999999432,1630,7,65,8
0.09999999999999432,1630,8,65,9
0.10000000000000853,1630,9,65,4
0.10000000000000853,1630,10,65,9
0.10000000000000853,1630,11,65,8
0.09999999999999432,1630,12,65,10
0.09999999999999432,1630,13,65,2
0.09999999999999432,1630,14,65,9
0.09999999999999432,1630,15,65,7
0.10000000000000853,1631,0,65,10
0.09999999999999432,1631,1,65,4
0.10000000000000853,1631,2,65,9
0.09999999999999432,1631,3,65,7
0.09999999999999432,1631,4,65,10
0.09999999999999432,1631,5,65,4
0.09999999999999432,1631,6,65,9
0.09999999999999432,1631,7,65,7
0.10000000000000853,1631,8,65,9
0.10000000000000853,1631,9,65,4
0.09999999999999432,1631,10,65,9
0.09999999999999432,1631,11,65,8
0.09999999999999432,1631,12,65,10
0.09999999999999432,1631,13,65,3
0.09999999999999432,1631,14,65,9
0.09999999999999432,1631,15,65,7
0.10000000000000853,1632,0,65,9
0.09999999999999432,1632,1,65,3
0.09999999999999432,1632,2,65,8
0.10000000000000853,1632,3,65,7
0.09999999999999432,1632,4,65,8
0.09999999999999432,1632,5,65,4
0.09999999999999432,1632,6,65,9
0.09999999999999432,1632,7,65,8
0.10000000000000853,1632,8,65,9
0.10000000000000853,1632,9,65,4
0.10000000000000853,1632,10,65,9
0.09999999999999432,1632,11,65,8
0.09999999999999432,1632,12,65,10
0.09999999999999432,1632,13,65,3
0.09999999999999432,1632,14,65,9
0.09999999999999432,1632,15,65,7
0.10000000000000853,1633,0,65,9
0.09999999999999432,1633,1,65,4
0.10000000000000853,1633,2,65,8
0.09999999999999432,1633,3,65,7
0.09999999999999432,1633,4,65,10
0.09999999999999432,1633,5,65,4
0.09999999999999432,1633,6,65,9
0.09999999999999432,1633,7,65,7
0.10000000000000853,1633,8,65,10
0.09999999999999432,1633,9,65,4
0.10000000000000853,1633,10,65,8
0.09999999999999432,1633,11,65,6
0.09999999999999432,1633,12,65,9
0.09999999999999432,1633,13,65,4
0.09999999999999432,1633,14,65,9
0.09999999999999432,1633,15,65,7
0.09999999999999432,1634,0,65,10
0.09999999999999432,1634,1,65,3
0.10000000000000853,1634,2,65,8
0.09999999999999432,1634,3,65,7
0.09999999999999432,1634,4,65,10
0.09999999999999432,1634,5,65,4
0.09999999999999432,1634,6,65,7
0.10000000000000853,1634,7,65,7
0.09999999999999432,1634,8,65,9
0.09999999999999432,1634,9,65,3
0.10000000000000853,1634,10,65,8
0.09999999999999432,1634,11,65,8
0.09999999999999432,1634,12,65,10
0.10000000000000853,1634,13,65,3
0.09999999999999432,1634,14,65,9
0.09999999999999432,1634,15,65,7
0.10000000000000853,1635,0,65,9
0.09999999999999432,1635,1,65,4
0.09999999999999432,1635,2,65,1
0.09999999999999432,1635,3,65,1
0.10000000000000853,1635,4,65,1
0.10000000000000853,1635,5,65,2
0.09999999999999432,1635,6,65,1
0.10000000000000853,1635,7,65,1
0.10000000000000853,1635,8,65,2
0.09999999999999432,1635,9,65,1
0.09999999999999432,1635,10,65,1
0.09999999999999432,1635,11,65,1
0.10000000000000853,1635,12,65,1
0.09999999999999432,1635,13,65,1
0.09999999999999432,1635,14,65,1
0.10000000000000853,1635,15,65,1
0.10000000000000853,1636,0,65,1
0.09999999999999432,1636,1,65,1
0.09999999999999432,1636,2,65,1
0.09999999999999432,1636,3,65,1
0.10000000000000853,1636,4,65,1
0.09999999999999432,1636,5,65,3
0.09999999999999432,1636,6,65,1
0.10000000000000853,1636,7,65,1
0.09999999999999432,1636,8,65,1
0.09999999999999432,1636,9,65,1
0.10000000000000853,1636,10,65,1
0.10000000000000853,1636,11,65,1
0.09999999999999432,1636,12,65,1
0.056818181818186986,1636,13,65,1
0.09999999999999432,1636,14,65,1
0.09999999999999432,1636,15,65,1
0.09999999999999432,1637,0,65,1
0.09999999999999432,1637,1,65,3
0.09999999999999432,1637,2,65,5
0.10000000000000853,1637,3,65,9
0.09999999999999432,1637,4,65,3
0.09999999999999432,1637,5,65,5
0.09999999999999432,1637,6,65,3
0.10000000000000853,1637,7,65,1
0.09999999999999432,1637,8,65,6
0.09999999999999432,1637,9,65,9
0.09999999999999432,1637,10,65,2
0.10000000000000853,1637,11,65,5
0.09999999999999432,1637,12,65,4
0.10000000000000853,1637,13,65,1
0.09999999999999432,1637,14,65,3
0.09999999999999432,1637,15,65,5
0.10000000000000853,1638,0,65,5
0.10000000000000853,1638,1,65,3
0.09999999999999432,1638,2,65,5
0.09999999999999432,1638,3,65,4
0.09999999999999432,1638,4,65,1
0.09999999999999432,1638,5,65,3
0.10000000000000853,1638,6,65,6
0.09999999999999432,1638,7,65,9
0.09999999999999432,1638,8,65,3
0.09999999999999432,1638,9,65,5
0.09999999999999432,1638,10,65,1
0.10000000000000853,1638,11,65,1
0.10000000000000853,1638,12,65,1
0.09999999999999432,1638,13,65,1
0.10000000000000853,1638,14,65,1
0.10000000000000853,1638,15,65,1
0.09999999999999432,1639,0,65,1
0.09999999999999432,1639,1,65,1
0.09999999999999432,1639,2,65,1
0.09999999999999432,1639,3,65,1
0.09999999999999432,1639,4,65,1
0.09999999999999432,1639,5,65,1
0.09999999999999432,1639,6,65,1
0.10000000000000853,1639,7,65,1
0.09999999999999432,1639,8,65,1
0.09999999999999432,1639,9,65,1
0.10000000000000853,1639,10,65,1
0.10000000000000853,1639,11,65,1
0.09999999999999432,1639,12,65,1
0.10000000000000853,1639,13,65,1
0.09999999999999432,1639,14,65,1
0.09999999999999432,1639,15,65,1
0.09999999999999432,1640,0,65,1
0.09999999999999432,1640,1,65,1
0.10000000000002274,1640,2,65,1
0.09999999999999432,1640,3,65,1
0.09999999999999432,1640,4,65,1
0.09999999999999432,1640,5,65,1
0.09999999999999432,1640,6,65,1
0.10000000000002274,1640,7,65,1
0.09999999999999432,1640,8,65,1
0.0022727272727252057,1640,9,65,1
0.09999999999999432,1640,10,65,1
0.09999999999999432,1640,11,65,1
0.09999999999999432,1640,12,65,1
0.09999999999999432,1640,13,65,1
0.09999999999999432,1640,14,65,1
0.056818181818186986,1640,15,65,1
0.09999999999999432,1641,0,65,1
0.10000000000002274,1641,1,65,1
0.09999999999999432,1641,2,65,1
0.09999999999999432,1641,3,65,1
0.09999999999999432,1641,4,65,1
0.09999999999999432,1641,5,65,1
0.10000000000002274,1641,6,65,1
0.09999999999999432,1641,7,65,1
0.09999999999999432,1641,8,65,1
0.03636363636363171,1641,9,65,1
0.09999999999999432,1641,10,65,1
0.09999999999999432,1641,11,65,1
0.09999999999999432,1641,12,65,1
0.09999999999999432,1641,13,65,1
0.09999999999999432,1641,14,65,1
0.09999999999999432,1641,15,65,1
0.09999999999999432,1642,0,65,1
0.10000000000002274,1642,1,65,1
0.09999999999999432,1642,2,65,1
0.09999999999999432,1642,3,65,1
0.10000000000002274,1642,4,65,1
0.09999999999999432,1642,5,65,1
0.09999999999999432,1642,6,65,1
0.09999999999999432,1642,7,65,1
0.09999999999999432,1642,8,65,1
0.09999999999999432,1642,9,65,1
0.09999999999999432,1642,10,65,1
0.10000000000002274,1642,11,65,1
0.09999999999999432,1642,12,65,1
0.09999999999999432,1642,13,65,1
0.10000000000002274,1642,14,65,1
0.09999999999999432,1642,15,65,1
0.10000000000000142,1643,0,65,10
0.10000000000000142,1643,1,65,11
0.09999999999999432,1643,2,65,24
0.10000000000000853,1643,3,65,29
0.09999999999999432,1643,4,65,47
0.09999999999999432,1643,5,65,37
0.09999999999999432,1643,6,65,27
0.09999999999999432,1643,7,65,15
0.10000000000000853,1643,8,65,21
0.10000000000000853,1643,9,65,20
0.10000000000000853,1643,10,65,29
0.10000000000000853,1643,11,65,22
0.10000000000000853,1643,12,65,35
0.10000000000000853,1643,13,65,23
0.09999999999999432,1643,14,65,20
0.10000000000000853,1643,15,65,27
0.09999999999999432,1644,0,65,3
0.09999999999999432,1644,1,65,10
0.10000000000000853,1644,2,65,16
0.10000000000000853,1644,3,65,12
0.09999999999999432,1644,4,65,22
0.09999999999999432,1644,5,65,10
0.09999999999999432,1644,6,65,23
0.09999999999999432,1644,7,65,14
0.09999999999999432,1644,8,65,9
0.10000000000000853,1644,9,65,15
0.09999999999999432,1644,10,65,24
0.10000000000000853,1644,11,65,19
0.10000000000000853,1644,12,65,34
0.09999999999999432,1644,13,65,33
0.10000000000000853,1644,14,65,27
0.09999999999999432,1644,15,65,27
0.09999999999999432,1645,0,65,24
0.09999999999999432,1645,1,65,30
0.10000000000000853,1645,2,65,37
0.09999999999999432,1645,3,65,21
0.10000000000000853,1645,4,65,20
0.09999999999999432,1645,5,65,25
0.09999999999999432,1645,6,65,14
0.09999999999999432,1645,7,65,15
0.09999999999999432,1645,8,65,13
0.10000000000000853,1645,9,65,13
0.09999999999999432,1645,10,65,26
0.09999999999999432,1645,11,65,23
0.10000000000000853,1645,12,65,19
0.09999999999999432,1645,13,65,21
0.09999999999999432,1645,14,65,23
0.10000000000000853,1645,15,65,25
0.09999999999999432,1646,0,65,31
0.10000000000000853,1646,1,65,27
0.10000000000000853,1646,2,65,26
0.10000000000000853,1646,3,65,26
0.10000000000000853,1646,4,65,25
0.09999999999999432,1646,5,65,29
0.09999999999999432,1646,6,65,35
0.09999999999999432,1646,7,65,23
0.10000000000002274,1646,8,65,26
0.09999999999999432,1646,9,65,28
0.09999999999999432,1646,10,65,29
0.09999999999999432,1646,11,65,13
0.10000000000002274,1646,12,65,24
0.09999999999999432,1646,13,65,28
0.09999999999999432,1646,14,65,1
0.09999999999999432,1646,15,65,3
0.10000000000002274,1647,0,65,2
0.10000000000002274,1647,1,65,3
0.09999999999999432,1647,2,65,5
0.10000000000002274,1647,3,65,5
0.09999999999999964,1647,4,71,2
0.09999999999999964,1647,5,71,75
0.09999999999999964,1647,6,71,66
0.09999999999999964,1647,7,71,68
0.09999999999999964,1647,8,71,74
0.09999999999999964,1647,9,71,54
0.10000000000000142,1647,10,71,80
0.09999999999999964,1647,11,71,73
0.10000000000000142,1647,12,71,66
0.09999999999999964,1647,13,71,63
0.09999999999999964,1647,14,71,57
0.09999999999999964,1647,15,71,58
0.09999999999999964,1648,0,71,102
0.10000000000000142,1648,1,71,92
0.10000000000000142,1648,2,71,94
0.10000000000000142,1648,3,71,78
0.10000000000000142,1648,4,71,95
0.09999999999999787,1648,5,71,67
0.10000000000000142,1648,6,71,11
0.10000000000000142,1648,7,71,45
0.09999999999999787,1648,8,71,65
0.10000000000000142,1648,9,71,59
0.09999999999999787,1648,10,71,48
0.09999999999999787,1648,11,71,56
0.10000000000000142,1648,12,71,61
0.09999999999999787,1648,13,71,37
0.10000000000000142,1648,14,71,2
0.09999999999999787,1648,15,71,58
0.09999999999999787,1649,0,71,69
0.10000000000000142,1649,1,71,49
0.10000000000000142,1649,2,71,60
0.10000000000000142,1649,3,71,89
0.09999999999999787,1649,4,71,92
0.10000000000000142,1649,5,71,9
0.09999999999999787,1649,6,71,58
0.09999999999999787,1649,7,71,101
0.10000000000000142,1649,8,71,87
0.10000000000000142,1649,9,71,48
0.09999999999999787,1649,10,71,39
0.09999999999999787,1649,11,71,48
0.09999999999999787,1649,12,71,49
0.004545454545453964,1649,13,71,64
0.09999999999999787,1649,14,71,65
0.10000000000000142,1649,15,71,53
0.10000000000000142,1650,0,71,12
0.09999999999999787,1650,1,71,59
0.10000000000000142,1650,2,71,87
0.09999999999999787,1650,3,71,68
0.10000000000000142,1650,4,71,38
0.10000000000000142,1650,5,71,75
0.05681818181818343,1650,6,71,70
0.09999999999999787,1650,7,71,39
0.10000000000000142,1650,8,71,88
0.09999999999999787,1650,9,71,81
0.10000000000000142,1650,10,71,73
0.09999999999999787,1650,11,71,52
0.10000000000000142,1650,12,71,68
0.09999999999999787,1650,13,71,107
0.10000000000000142,1650,14,71,103
0.10000000000000142,1650,15,71,71
0.09999999999999787,1651,0,71,60
0.10000000000000142,1651,1,71,69
0.09999999999999787,1651,2,71,50
0.09999999999999432,1651,3,71,82
0.10000000000000142,1651,4,71,51
0.03409090909090651,1651,5,71,84
0.10000000000000142,1651,6,71,11
0.10000000000000142,1651,7,71,67
0.10000000000000142,1651,8,71,22
0.09999999999999432,1651,9,71,57
0.10000000000000142,1651,10,71,67
0.09999999999999432,1651,11,71,123
0.09999999999999432,1651,12,71,90
0.09999999999999432,1651,13,71,93
0.10000000000000142,1651,14,71,75
0.10000000000000142,1651,15,71,56
0.10000000000000142,1652,0,71,94
0.10000000000000142,1652,1,71,65
0.10000000000000142,1652,2,71,91
0.10000000000000142,1652,3,71,74
0.10000000000000142,1652,4,71,113
0.10000000000000142,1652,5,71,94
0.10000000000000142,1652,6,71,87
0.10000000000000142,1652,7,71,36
0.10000000000000142,1652,8,71,59
0.10000000000000142,1652,9,71,127
0.10000000000000142,1652,10,71,127
0.09999999999999432,1652,11,71,83
0.10000000000000142,1652,12,71,18
0.10000000000000142,1652,13,71,104
0.10000000000000142,1652,14,71,117
0.10000000000000142,1652,15,71,118
0.10000000000000142,1653,0,71,49
0.10000000000000142,1653,1,71,65
0.10000000000000142,1653,2,71,102
0.10000000000000142,1653,3,71,71
0.10000000000000142,1653,4,71,103
0.10000000000000142,1653,5,71,31
0.10000000000000142,1653,6,71,70
0.10000000000000142,1653,7,71,71
0.10000000000000142,1653,8,71,124
0.10000000000000142,1653,9,71,68
0.09999999999999432,1653,10,71,115
0.10000000000000142,1653,11,71,127
0.10000000000000142,1653,12,71,107
0.10000000000000142,1653,13,71,20
0.10000000000000142,1653,14,71,71
0.09999999999999432,1653,15,71,114
0.10000000000000142,1654,0,71,65
0.10000000000000142,1654,1,71,101
0.10000000000000142,1654,2,71,62
0.10000000000000142,1654,3,71,81
0.10000000000000142,1654,4,71,112
0.10000000000000142,1654,5,71,59
0.10000000000000142,1654,6,71,13
0.09999999999999432,1654,7,71,104
0.06818181818181301,1654,8,71,120
0.10000000000000142,1654,9,71,71
0.10000000000000142,1654,10,71,99
0.10000000000000142,1654,11,71,115
0.10000000000000142,1654,12,71,97
0.10000000000000142,1654,13,71,99
0.10000000000000142,1654,14,71,47
0.09999999999999432,1654,15,71,51
0.10000000000000142,1655,0,71,71
0.10000000000000142,1655,1,71,112
0.10000000000000142,1655,2,71,40
0.10000000000000142,1655,3,71,112
0.10000000000000142,1655,4,71,127
0.10000000000000142,1655,5,71,127
0.10000000000000142,1655,6,71,122
0.10000000000000142,1655,7,71,103
0.09999999999999432,1655,8,71,33
0.09999999999999432,1655,9,71,127
0.10000000000000142,1655,10,71,84
0.10000000000000142,1655,11,71,105
0.09999999999999432,1655,12,71,127
0.10000000000000142,1655,13,71,112
0.10000000000000142,1655,14,71,125
0.09999999999999432,1655,15,71,103
0.09999999999999432,1656,0,71,107
0.10000000000000853,1656,1,71,115
0.04772727272728616,1656,2,71,104
0.09999999999999432,1656,3,71,127
0.09999999999999432,1656,4,71,112
0.09999999999999432,1656,5,71,84
0.09999999999999432,1656,6,71,97
0.09999999999999432,1656,7,71,97
0.10000000000000853,1656,8,71,109
0.10000000000000853,1656,9,71,127
0.09999999999999432,1656,10,71,50
0.10000000000000853,1656,11,71,110
0.056818181818186986,1656,12,71,126
0.10000000000000853,1656,13,71,127
0.10000000000000853,1656,14,71,127
0.09999999999999432,1656,15,71,127
0.09999999999999432,1657,0,71,64
0.09999999999999432,1657,1,71,127
0.10000000000000853,1657,2,71,127
0.09999999999999432,1657,3,71,127
0.10000000000000853,1657,4,71,100
0.10000000000000853,1657,5,71,84
0.10000000000000853,1657,6,71,127
0.10000000000000853,1657,7,71,86
0.10000000000000853,1657,8,71,127
0.10000000000000853,1657,9,71,127
0.10000000000000853,1657,10,71,127
0.10000000000000853,1657,11,71,90
0.10000000000000853,1657,12,71,91
0.09999999999999432,1657,13,71,99
0.09999999999999432,1657,14,71,102
0.09999999999999432,1657,15,71,99
0.09999999999999432,1658,0,71,86
0.09999999999999432,1658,1,71,110
0.10000000000000853,1658,2,71,109
0.09999999999999432,1658,3,71,116
0.09999999999999432,1658,4,71,106
0.09999999999999432,1658,5,71,90
0.09999999999999432,1658,6,71,125
0.004545454545450411,1658,7,71,103
0.10000000000000853,1658,8,71,67
0.09999999999999432,1658,9,71,97
0.03636363636363171,1658,10,71,112
0.10000000000000853,1658,11,71,124
0.10000000000000853,1658,12,71,127
0.09999999999999432,1658,13,71,89
0.10000000000000853,1658,14,71,76
0.10000000000000853,1658,15,71,94
0.10000000000000853,1659,0,71,50
0.09999999999999432,1659,1,71,107
0.09999999999999432,1659,2,71,127
0.09999999999999432,1659,3,71,127
0.10000000000000853,1659,4,71,57
0.10000000000000853,1659,5,71,48
0.06818181818182723,1659,6,71,79
0.10000000000000853,1659,7,71,127
0.09999999999999432,1659,8,71,108
0.09999999999999432,1659,9,71,127
0.09999999999999432,1659,10,71,64
0.10000000000000853,1659,11,71,34
0.09999999999999432,1659,12,71,85
0.09999999999999432,1659,13,71,89
0.09999999999999432,1659,14,71,127
0.10000000000000853,1659,15,71,88
0.09999999999999432,1660,0,71,76
0.09999999999999432,1660,1,71,126
0.09999999999999432,1660,2,71,85
0.09999999999999432,1660,3,71,89
0.09999999999999432,1660,4,71,76
0.09999999999999432,1660,5,71,38
0.09999999999999432,1660,6,71,75
0.09999999999999432,1660,7,71,110
0.09999999999999432,1660,8,71,127
0.10000000000000853,1660,9,71,127
0.09999999999999432,1660,10,71,104
0.09999999999999432,1660,11,71,86
0.10000000000000853,1660,12,71,127
0.09999999999999432,1660,13,71,126
0.10000000000000853,1660,14,71,67
0.09999999999999432,1660,15,71,127
0.10000000000000853,1661,0,71,110
0.09999999999999432,1661,1,71,49
0.06590909090908781,1661,2,71,74
0.09999999999999432,1661,3,71,127
0.10000000000000853,1661,4,71,127
0.09999999999999432,1661,5,71,16
0.09999999999999432,1661,6,71,78
0.05909090909091219,1661,7,71,127
0.10000000000000853,1661,8,71,127
0.10000000000000853,1661,9,71,64
0.10000000000000853,1661,10,71,112
0.09999999999999432,1661,11,71,27
0.09999999999999432,1661,12,71,83
0.09999999999999432,1661,13,71,126
0.09999999999999432,1661,14,71,127
0.09999999999999432,1661,15,71,98
0.09999999999999432,1662,0,71,80
0.09999999999999432,1662,1,71,123
0.09999999999999432,1662,2,71,117
0.09999999999999432,1662,3,71,79
0.09999999999999432,1662,4,71,68
0.09999999999999432,1662,5,71,64
0.10000000000000853,1662,6,71,92
0.09999999999999432,1662,7,71,72
0.09999999999999432,1662,8,71,111
0.09999999999999432,1662,9,71,127
0.10000000000000853,1662,10,71,127
0.10000000000000853,1662,11,71,127
0.09999999999999432,1662,12,71,123
0.09999999999999432,1662,13,71,127
0.09999999999999432,1662,14,71,127
0.09999999999999432,1662,15,71,79
0.025000000000005684,1663,0,71,127
0.10000000000000853,1663,1,71,116
0.09999999999999432,1663,2,71,119
0.10000000000000853,1663,3,71,120
0.013636363636365445,1663,4,71,111
0.10000000000000853,1663,5,71,127
0.09999999999999432,1663,6,71,83
0.10000000000000853,1663,7,71,127
0.10000000000000853,1663,8,71,127
0.09999999999999432,1663,9,71,82
0.01590909090909065,1663,10,71,127
0.09999999999999432,1663,11,71,105
0.10000000000000853,1663,12,71,115
0.004545454545464622,1663,13,71,83
0.013636363636365445,1663,14,71,127
0.09999999999999432,1663,15,71,127
0.09999999999999432,1664,0,71,116
0.09999999999999432,1664,1,71,127
0.09999999999999432,1664,2,71,127
0.10000000000000853,1664,3,71,127
0.09999999999999432,1664,4,71,86
0.09999999999999432,1664,5,71,115
0.09999999999999432,1664,6,71,91
0.09999999999999432,1664,7,71,118
0.09999999999999432,1664,8,71,117
0.09999999999999432,1664,9,71,97
0.09999999999999432,1664,10,71,127
0.09999999999999432,1664,11,71,119
0.10000000000000853,1664,12,71,81
0.09999999999999432,1664,13,71,76
0.09999999999999432,1664,14,71,88
0.09999999999999432,1664,15,71,122
0.10000000000000853,1665,0,71,79
0.10000000000000853,1665,1,71,127
0.09999999999999432,1665,2,71,106
0.09999999999999432,1665,3,71,127
0.09999999999999432,1665,4,71,121
0.09999999999999432,1665,5,71,127
0.09999999999999432,1665,6,71,127
0.10000000000000853,1665,7,71,127
0.09999999999999432,1665,8,71,127
0.10000000000000853,1665,9,71,127
0.09999999999999432,1665,10,71,127
0.09999999999999432,1665,11,71,25
0.09999999999999432,1665,12,71,119
0.10000000000000853,1665,13,71,111
0.09999999999999432,1665,14,71,102
0.10000000000000853,1665,15,71,24
0.09999999999999432,1666,0,71,97
0.056818181818172775,1666,1,71,126
0.01590909090909065,1666,2,71,126
0.10000000000000853,1666,3,71,127
0.10000000000000853,1666,4,71,117
0.10000000000000853,1666,5,71,117
0.09999999999999432,1666,6,71,124
0.09999999999999432,1666,7,71,127
0.10000000000000853,1666,8,71,127
0.09999999999999432,1666,9,71,107
0.10000000000000853,1666,10,71,107
0.09999999999999432,1666,11,71,127
0.10000000000000853,1666,12,71,36
0.10000000000000853,1666,13,71,127
0.10000000000000853,1666,14,71,97
0.025000000000005684,1666,15,71,121
0.09999999999999432,1667,0,71,90
0.10000000000000853,1667,1,71,120
0.09999999999999432,1667,2,71,108
0.09999999999999432,1667,3,71,127
0.09999999999999432,1667,4,71,127
0.09999999999999432,1667,5,71,106
0.10000000000000853,1667,6,71,104
0.09999999999999432,1667,7,71,12
0.10000000000002274,1667,8,71,121
0.09999999999999432,1667,9,71,126
0.09999999999999432,1667,10,71,83
0.09999999999999432,1667,11,71,27
0.09999999999999432,1667,12,71,101
0.09999999999999432,1667,13,71,127
0.09999999999999432,1667,14,71,127
0.09999999999999432,1667,15,71,102
0.09999999999999432,1668,0,71,118
0.09999999999999432,1668,1,71,108
0.09999999999999432,1668,2,71,127
0.09999999999999432,1668,3,71,29
0.10000000000002274,1668,4,71,92
0.09999999999999432,1668,5,71,75
0.09999999999999432,1668,6,71,127
0.10000000000002274,1668,7,71,123
0.10000000000002274,1668,8,71,45
0.09999999999999432,1668,9,71,121
0.09999999999999432,1668,10,71,127
0.09999999999999432,1668,11,71,109
0.09999999999999432,1668,12,71,98
0.045454545454532536,1668,13,71,116
0.09999999999999432,1668,14,71,89
0.09999999999999432,1668,15,71,86
0.09999999999999432,1669,0,71,19
0.09999999999999432,1669,1,71,39
0.056818181818186986,1669,2,71,75
0.10000000000002274,1669,3,71,71
0.09999999999999432,1669,4,71,90
0.09999999999999432,1669,5,71,61
0.09999999999999432,1669,6,71,40
0.05909090909091219,1669,7,71,91
0.09999999999999432,1669,8,71,126
0.10000000000002274,1669,9,71,83
0.09999999999999432,1669,10,71,127
0.10000000000002274,1669,11,71,51
0.09999999999999432,1669,12,71,109
0.09999999999999432,1669,13,71,50
0.09999999999999432,1669,14,71,98
0.09999999999999432,1669,15,71,39
0.09999999999999432,1670,0,71,94
0.10000000000002274,1670,1,71,17
0.09999999999999432,1670,2,71,7
0.05909090909091219,1670,3,71,64
0.01590909090907644,1670,4,71,91
0.09999999999999432,1670,5,71,88
0.09999999999999432,1670,6,71,82
0.10000000000002274,1670,7,71,10
0.09999999999999432,1670,8,71,72
0.09999999999999432,1670,9,71,66
0.09999999999999432,1670,10,71,82
0.09999999999999432,1670,11,71,71
0.09999999999999432,1670,12,71,86
0.09999999999999432,1670,13,71,44
0.09999999999999432,1670,14,71,55
0.10000000000002274,1670,15,71,14
0.10000000000002274,1671,0,71,106
0.10000000000002274,1671,1,71,70
0.10000000000002274,1671,2,71,111
0.09999999999999432,1671,3,71,108
0.09999999999999432,1671,4,71,92
0.09999999999999432,1671,5,71,69
0.09999999999999432,1671,6,71,76
0.09999999999999432,1671,7,71,123
0.09999999999999432,1671,8,71,110
0.004545454545450411,1671,9,71,53
0.09999999999999432,1671,10,71,73
0.09999999999999432,1671,11,71,97
0.09999999999999432,1671,12,71,106
0.10000000000002274,1671,13,71,127
0.09999999999999432,1671,14,71,113
0.09999999999999432,1671,15,71,127
0.10000000000002274,1672,0,71,14
0.06818181818184144,1672,1,71,23
0.09999999999999432,1672,2,71,101
0.09999999999999432,1672,3,71,127
0.09999999999999432,1672,4,71,127
0.10000000000002274,1672,5,71,114
0.09999999999999432,1672,6,71,125
0.09999999999999432,1672,7,71,23
0.09999999999999432,1672,8,71,78
0.09999999999999432,1672,9,71,87
0.10000000000002274,1672,10,71,4
0.10000000000002274,1672,11,71,33
0.10000000000002274,1672,12,71,82
0.09999999999999432,1672,13,71,62
0.09999999999999432,1672,14,71,52
0.10000000000002274,1672,15,71,100
0.09999999999999432,1673,0,71,72
0.09999999999999432,1673,1,71,38
0.10000000000002274,1673,2,71,69
0.09999999999999432,1673,3,71,65
0.10000000000002274,1673,4,71,96
0.09999999999999432,1673,5,71,86
0.10000000000002274,1673,6,71,71
0.09999999999999432,1673,7,71,27
0.09999999999999998,1673,8,86,28
0.09999999999999998,1673,9,86,64
0.10000000000000009,1673,10,86,64
0.10000000000000009,1673,11,86,34
0.09999999999999964,1673,12,86,69
0.09999999999999964,1673,13,86,36
0.09999999999999964,1673,14,86,40
0.09999999999999964,1673,15,86,75
0.10000000000000053,1674,0,86,40
0.10000000000000142,1674,1,86,81
0.09999999999999964,1674,2,86,97
0.09999999999999964,1674,3,86,28
0.10000000000000142,1674,4,86,31
0.10000000000000142,1674,5,86,52
0.10000000000000142,1674,6,86,43
0.10000000000000142,1674,7,86,42
0.10000000000000142,1674,8,86,40
0.09999999999999432,1674,9,86,42
0.10000000000000142,1674,10,86,25
0.09999999999999432,1674,11,86,53
0.10000000000000853,1674,12,86,55
0.09999999999999432,1674,13,86,53
0.10000000000000853,1674,14,86,53
0.09999999999999432,1674,15,86,58
0.10000000000002274,1675,0,86,38
0.10000000000002274,1675,1,86,97
0.09999999999999432,1675,2,86,58
0.10000000000002274,1675,3,86,40
0.09999999999999432,1675,4,86,107
0.09999999999999432,1675,5,86,127
0.09999999999999432,1675,6,86,127
0.09999999999999432,1675,7,86,71
0.10000000000002274,1675,8,86,99
0.10000000000000142,1675,9,68,11
0.06818181818182012,1675,10,68,18
0.10000000000000142,1675,11,68,16
0.10000000000000142,1675,12,68,18
0.09999999999999432,1675,13,68,26
0.10000000000000142,1675,14,68,8
0.09999999999999432,1675,15,68,7
0.10000000000000142,1676,0,68,11
0.09999999999999432,1676,1,68,11
0.10000000000000142,1676,2,68,6
0.10000000000000142,1676,3,68,17
0.10000000000000142,1676,4,68,12
0.09999999999999432,1676,5,68,7
0.09999999999999432,1676,6,68,13
0.09999999999999432,1676,7,68,10
0.09999999999999432,1676,8,68,13
0.10000000000000142,1676,9,68,7
0.10000000000000142,1676,10,68,17
0.10000000000000142,1676,11,68,15
0.10000000000000142,1676,12,68,21
0.10000000000000142,1676,13,68,10
0.09999999999999432,1676,14,68,3
0.10000000000000142,1676,15,68,8
0.10000000000000142,1677,0,68,6
0.10000000000000142,1677,1,68,9
0.09999999999999432,1677,2,68,14
0.10000000000000853,1677,3,68,6
0.09999999999999432,1677,4,68,5
0.10000000000000853,1677,5,68,10
0.10000000000000853,1677,6,68,16
0.09999999999999432,1677,7,68,13
0.09999999999999432,1677,8,68,7
0.09999999999999432,1677,9,68,15
0.09999999999999432,1677,10,68,2
0.10000000000000853,1677,11,68,9
0.10000000000000853,1677,12,68,14
0.09999999999999432,1677,13,68,23
0.09999999999999432,1677,14,68,13
0.10000000000000853,1677,15,68,12
0.09999999999999432,1678,0,68,8
0.10000000000000853,1678,1,68,12
0.09999999999999432,1678,2,68,9
0.10000000000000853,1678,3,68,16
0.10000000000000853,1678,4,68,4
0.09999999999999432,1678,5,68,7
0.09999999999999432,1678,6,68,7
0.10000000000000853,1678,7,68,20
0.09999999999999432,1678,8,68,26
0.10000000000000853,1678,9,68,17
0.09999999999999432,1678,10,68,7
0.10000000000000853,1678,11,68,12
0.10000000000000853,1678,12,68,11
0.10000000000000853,1678,13,68,2
0.09999999999999432,1678,14,68,6
0.09999999999999432,1678,15,68,4
0.10000000000000853,1679,0,68,29
0.09999999999999432,1679,1,68,9
0.09999999999999432,1679,2,68,16
0.10000000000000853,1679,3,68,9
0.09999999999999432,1679,4,68,11
0.09999999999999432,1679,5,68,11
0.10000000000000853,1679,6,68,10
0.09999999999999432,1679,7,68,8
0.09999999999999432,1679,8,68,6
0.10000000000000853,1679,9,68,8
0.09999999999999432,1679,10,68,9
0.09999999999999432,1679,11,68,19
0.09999999999999432,1679,12,68,26
0.09999999999999432,1679,13,68,17
0.09999999999999432,1679,14,68,24
0.09999999999999432,1679,15,68,6
0.09999999999999432,1680,0,68,3
0.09999999999999432,1680,1,68,10
0.10000000000000853,1680,2,68,14
0.10000000000000853,1680,3,68,16
0.09999999999999432,1680,4,68,10
0.09999999999999432,1680,5,68,14
0.10000000000000853,1680,6,68,15
0.10000000000000853,1680,7,68,2
0.10000000000000853,1680,8,68,12
0.09999999999999432,1680,9,68,19
0.09999999999999432,1680,10,68,21
0.09999999999999432,1680,11,68,10
0.10000000000000853,1680,12,68,9
0.10000000000000853,1680,13,68,11
0.09999999999999432,1680,14,68,11
0.09999999999999432,1680,15,68,12
0.10000000000000853,1681,0,68,28
0.10000000000000853,1681,1,68,5
0.09999999999999432,1681,2,68,17
0.10000000000000853,1681,3,68,10
0.10000000000000853,1681,4,68,18
0.10000000000000853,1681,5,68,10
0.09999999999999432,1681,6,68,13
0.09999999999999432,1681,7,68,17
0.10000000000000853,1681,8,68,8
0.09999999999999432,1681,9,68,10
0.10000000000000853,1681,10,68,6
0.09999999999999432,1681,11,68,6
0.056818181818172775,1681,12,68,15
0.09999999999999432,1681,13,68,15
0.09999999999999432,1681,14,68,8
0.09999999999999432,1681,15,68,12
0.10000000000000853,1682,0,68,10
0.10000000000000853,1682,1,68,2
0.09999999999999432,1682,2,68,12
0.09999999999999432,1682,3,68,15
0.09999999999999432,1682,4,68,7
0.09999999999999432,1682,5,68,11
0.09999999999999432,1682,6,68,19
0.09999999999999432,1682,7,68,8
0.10000000000000853,1682,8,68,25
0.09999999999999432,1682,9,68,20
0.10000000000000853,1682,10,68,15
0.09999999999999432,1682,11,68,11
0.10000000000000853,1682,12,68,8
0.10000000000000853,1682,13,68,19
0.09999999999999432,1682,14,68,14
0.09999999999999432,1682,15,68,12
0.10000000000000853,1683,0,68,11
0.10000000000000853,1683,1,68,9
0.09999999999999432,1683,2,68,15
0.10000000000000853,1683,3,68,19
0.09999999999999432,1683,4,68,11
0.09999999999999432,1683,5,68,19
0.09999999999999432,1683,6,68,25
0.10000000000000853,1683,7,68,4
0.10000000000000853,1683,8,68,9
0.10000000000000853,1683,9,68,11
0.09999999999999432,1683,10,68,13
0.09999999999999432,1683,11,68,17
0.10000000000000853,1683,12,68,7
0.056818181818186986,1683,13,68,17
0.10000000000000853,1683,14,68,10
0.10000000000000853,1683,15,68,13
0.09999999999999432,1684,0,68,15
0.09999999999999432,1684,1,68,17
0.09999999999999432,1684,2,68,12
0.09999999999999432,1684,3,68,17
0.09999999999999432,1684,4,68,10
0.09999999999999432,1684,5,68,11
0.09999999999999432,1684,6,68,6
0.09999999999999432,1684,7,68,15
0.09999999999999432,1684,8,68,15
0.09999999999999432,1684,9,68,13
0.09999999999999432,1684,10,68,11
0.10000000000002274,1684,11,68,10
0.09999999999999432,1684,12,68,11
0.10000000000002274,1684,13,68,7
0.06818181818184144,1684,14,68,11
0.09999999999999432,1684,15,68,3
0.09999999999999432,1685,0,68,4
0.09999999999999432,1685,1,68,9
0.09999999999999432,1685,2,68,12
0.09999999999999432,1685,3,68,3
0.09999999999999432,1685,4,68,10
0.09999999999999432,1685,5,68,10
0.09999999999999432,1685,6,68,10
0.09999999999999432,1685,7,68,9
0.09999999999999432,1685,8,68,11
0.09999999999999432,1685,9,68,2
0.09999999999999432,1685,10,68,9
0.09999999999999432,1685,11,68,15
0.10000000000000142,1685,12,57,45
0.10000000000000142,1685,13,57,44
0.09999999999999432,1685,14,57,35
0.10000000000000142,1685,15,57,55
0.10000000000000142,1686,0,57,50
0.10000000000000142,1686,1,57,34
0.10000000000000853,1686,2,57,44
0.09999999999999432,1686,3,57,39
0.09999999999999432,1686,4,57,59
0.09999999999999432,1686,5,57,70
0.09999999999999432,1686,6,57,50
0.10000000000000853,1686,7,57,46
0.09999999999999432,1686,8,57,61
0.09999999999999432,1686,9,57,51
0.09999999999999432,1686,10,57,67
0.09999999999999432,1686,11,57,66
0.10000000000000853,1686,12,57,41
0.09999999999999432,1686,13,57,52
0.09999999999999432,1686,14,57,57
0.10000000000000853,1686,15,57,50
0.10000000000000853,1687,0,57,66
0.09999999999999432,1687,1,57,63
0.10000000000000853,1687,2,57,54
0.10000000000000853,1687,3,57,59
0.09999999999999432,1687,4,57,51
0.09999999999999432,1687,5,57,59
0.10000000000000853,1687,6,57,51
0.09999999999999432,1687,7,57,56
0.09999999999999432,1687,8,57,60
0.10000000000000853,1687,9,57,46
0.10000000000000853,1687,10,57,61
0.09999999999999432,1687,11,57,41
0.09999999999999432,1687,12,57,29
0.09999999999999432,1687,13,57,93
0.09999999999999432,1687,14,57,81
0.09999999999999432,1687,15,57,86
0.09999999999999432,1688,0,57,110
0.10000000000000853,1688,1,57,84
0.09999999999999432,1688,2,57,75
0.10000000000000853,1688,3,57,93
0.09999999999999432,1688,4,57,73
0.09999999999999432,1688,5,57,93
0.09999999999999432,1688,6,57,103
0.10000000000000853,1688,7,57,92
0.09999999999999432,1688,8,57,74
0.09999999999999432,1688,9,57,45
0.10000000000002274,1688,10,57,72
0.09999999999999432,1688,11,57,85
0.09999999999999432,1688,12,57,98
0.09999999999999432,1688,13,57,85
0.09999999999999432,1688,14,57,26
0.09999999999999432,1688,15,57,90
0.09999999999999432,1689,0,57,86
0.10000000000002274,1689,1,57,77
0.10000000000002274,1689,2,57,61
0.09999999999999432,1689,3,57,66
0.09999999999999432,1689,4,57,63
0.09999999999999432,1689,5,57,68
0.10000000000002274,1689,6,57,61
0.09999999999999432,1689,7,57,80
0.09999999999999432,1689,8,57,74
0.09999999999999432,1689,9,57,78
0.09999999999999432,1689,10,57,61
0.09999999999999432,1689,11,57,59
0.09999999999999432,1689,12,57,31
0.09999999999999432,1689,13,57,72
0.09999999999999432,1689,14,57,53
0.09999999999999432,1689,15,57,82
0.09999999999999432,1690,0,57,66
0.09999999999999432,1690,1,57,64
0.09999999999999432,1690,2,57,85
0.09999999999999432,1690,3,57,87
0.09999999999999432,1690,4,57,95
0.09999999999999432,1690,5,57,64
0.09999999999999432,1690,6,57,79
0.09999999999999787,1690,7,102,16
0.10000000000000142,1690,8,102,127
0.10000000000000142,1690,9,102,2
0.10000000000000142,1690,10,102,3
0.09999999999999787,1690,11,102,1
0.10000000000000142,1690,12,102,11
0.10000000000000142,1690,13,102,12
0.10000000000000142,1690,14,102,10
0.10000000000000142,1690,15,102,13
0.10000000000000142,1691,0,102,12
0.10000000000000142,1691,1,102,11
0.10000000000000142,1691,2,102,10
0.10000000000000142,1691,3,102,27
0.10000000000000142,1691,4,102,18
0.09999999999999787,1691,5,102,22
0.10000000000000142,1691,6,102,10
0.10000000000000142,1691,7,102,5
0.10000000000000142,1691,8,102,27
0.10000000000000142,1691,9,102,127
0.10000000000000142,1691,10,102,23
0.09999999999999432,1691,11,102,127
0.10000000000000142,1691,12,102,12
0.10000000000000142,1691,13,102,24
0.10000000000000142,1691,14,102,127
0.10000000000000142,1691,15,102,127
0.10000000000000142,1692,0,102,127
0.10000000000000142,1692,1,102,11
0.09999999999999432,1692,2,102,127
0.10000000000000142,1692,3,102,127
0.10000000000000142,1692,4,102,18
0.10000000000000142,1692,5,102,127
0.10000000000000142,1692,6,102,19
0.10000000000000142,1692,7,102,10
0.10000000000000142,1692,8,102,12
0.10000000000000142,1692,9,102,20
0.10000000000000142,1692,10,102,127
0.10000000000000142,1692,11,102,127
0.10000000000000142,1692,12,102,14
0.10000000000000142,1692,13,102,7
0.10000000000000142,1692,14,102,7
0.10000000000000142,1692,15,102,19
0.10000000000000142,1693,0,102,127
0.10000000000000142,1693,1,102,127
0.09999999999999432,1693,2,102,9
0.10000000000000142,1693,3,102,127
0.10000000000000142,1693,4,102,6
0.10000000000000142,1693,5,102,10
0.09999999999999432,1693,6,102,127
0.10000000000000142,1693,7,102,12
0.10000000000000142,1693,8,102,127
0.10000000000000142,1693,9,102,127
0.10000000000000142,1693,10,102,13
0.10000000000000142,1693,11,102,127
0.09999999999999432,1693,12,102,12
0.09999999999999432,1693,13,102,127
0.10000000000000142,1693,14,102,8
0.10000000000000142,1693,15,102,13
0.09999999999999432,1694,0,102,127
0.10000000000000142,1694,1,102,10
0.10000000000000142,1694,2,102,127
0.10000000000000142,1694,3,102,127
0.09999999999999432,1694,4,102,17
0.10000000000000142,1694,5,102,127
0.09999999999999432,1694,6,102,9
0.10000000000000142,1694,7,102,127
0.09999999999999432,1694,8,102,6
0.10000000000000142,1694,9,102,12
0.10000000000000142,1694,10,102,127
0.10000000000000142,1694,11,102,11
0.10000000000000142,1694,12,102,127
0.10000000000000142,1694,13,102,14
0.10000000000000142,1694,14,102,127
0.10000000000000142,1694,15,102,10
0.10000000000000142,1695,0,102,127
0.10000000000000142,1695,1,102,4
0.10000000000000142,1695,2,102,3
0.10000000000000142,1695,3,102,127
0.10000000000000142,1695,4,102,127
0.10000000000000142,1695,5,102,127
0.10000000000000142,1695,6,102,127
0.10000000000000853,1695,7,102,127
0.10000000000000853,1695,8,102,119
0.10000000000000853,1695,9,102,127
0.09999999999999432,1695,10,102,50
0.09999999999999432,1695,11,102,127
0.09999999999999432,1695,12,102,43
0.09999999999999432,1695,13,102,127
0.10000000000000853,1695,14,102,38
0.09999999999999432,1695,15,102,127
0.09999999999999432,1696,0,102,127
0.09999999999999432,1696,1,102,42
0.09999999999999432,1696,2,102,127
0.09999999999999432,1696,3,102,40
0.10000000000000853,1696,4,102,127
0.09999999999999432,1696,5,102,39
0.10000000000000853,1696,6,102,127
0.10000000000000853,1696,7,102,39
0.09999999999999432,1696,8,102,127
0.10000000000000853,1696,9,102,127
0.09999999999999432,1696,10,102,37
0.09999999999999432,1696,11,102,127
0.09999999999999432,1696,12,102,41
0.10000000000000853,1696,13,102,120
0.10000000000000853,1696,14,102,127
0.10000000000000853,1696,15,102,36
0.09999999999999432,1697,0,102,127
0.09999999999999432,1697,1,102,40
0.09999999999999432,1697,2,102,127
0.09999999999999432,1697,3,102,42
0.09999999999999432,1697,4,102,127
0.10000000000000853,1697,5,102,42
0.10000000000000853,1697,6,102,127
0.09999999999999432,1697,7,102,127
0.09999999999999432,1697,8,102,127
0.09999999999999432,1697,9,102,57
0.10000000000000853,1697,10,102,127
0.10000000000000853,1697,11,102,2
0.10000000000000853,1697,12,102,2
0.09999999999999432,1697,13,102,59
0.09999999999999432,1697,14,102,2
0.10000000000000853,1697,15,102,2
0.10000000000000853,1698,0,102,127
0.09999999999999432,1698,1,102,20
0.09999999999999432,1698,2,102,2
0.09999999999999432,1698,3,102,127
0.10000000000000853,1698,4,102,60
0.10000000000000853,1698,5,102,127
0.10000000000000853,1698,6,102,2
0.10000000000000853,1698,7,102,1
0.09999999999999432,1698,8,102,3
0.09999999999999432,1698,9,102,2
0.09999999999999432,1698,10,102,54
0.10000000000000853,1698,11,102,2
0.09999999999999432,1698,12,102,2
0.09999999999999432,1698,13,102,127
0.09999999999999432,1698,14,102,22
0.10000000000000853,1698,15,102,3
0.09999999999999432,1699,0,102,2
0.10000000000000853,1699,1,102,54
0.09999999999999432,1699,2,102,127
0.10000000000000853,1699,3,102,15
0.09999999999999432,1699,4,102,2
0.09999999999999432,1699,5,102,1
0.09999999999999432,1699,6,102,3
0.10000000000000853,1699,7,102,2
0.10000000000000853,1699,8,102,56
0.09999999999999432,1699,9,102,2
0.09999999999999432,1699,10,102,2
0.09999999999999432,1699,11,102,127
0.09999999999999432,1699,12,102,2
0.09999999999999432,1699,13,102,127
0.09999999999999432,1699,14,102,69
0.10000000000000853,1699,15,102,127
0.09999999999999432,1700,0,102,20
0.09999999999999432,1700,1,102,1
0.10000000000000853,1700,2,102,1
0.10000000000000853,1700,3,102,3
0.09999999999999432,1700,4,102,2
0.09999999999999432,1700,5,102,46
0.09999999999999432,1700,6,102,2
0.10000000000000853,1700,7,102,3
0.10000000000000853,1700,8,102,2
0.10000000000000853,1700,9,102,127
0.10000000000000853,1700,10,102,2
0.10000000000000853,1700,11,102,49
0.09999999999999432,1700,12,102,127
0.10000000000000853,1700,13,102,1
0.09999999999999432,1700,14,102,1
0.09999999999999432,1700,15,102,3
0.09999999999999432,1701,0,102,2
0.09999999999999432,1701,1,102,51
0.10000000000000853,1701,2,102,2
0.09999999999999432,1701,3,102,2
0.09999999999999432,1701,4,102,127
0.10000000000000853,1701,5,102,21
0.10000000000000853,1701,6,102,2
0.09999999999999432,1701,7,102,127
0.09999999999999432,1701,8,102,60
0.09999999999999432,1701,9,102,127
0.09999999999999432,1701,10,102,2
0.09999999999999432,1701,11,102,1
0.09999999999999432,1701,12,102,3
0.10000000000000853,1701,13,102,2
0.10000000000000853,1701,14,102,54
0.09999999999999432,1701,15,102,2
0.10000000000000853,1702,0,102,2
0.09999999999999432,1702,1,102,127
0.09999999999999432,1702,2,102,22
0.09999999999999432,1702,3,102,2
0.09999999999999432,1702,4,102,2
0.09999999999999432,1702,5,102,53
0.10000000000000853,1702,6,102,127
0.09999999999999432,1702,7,102,18
0.09999999999999432,1702,8,102,2
0.10000000000000853,1702,9,102,1
0.09999999999999432,1702,10,102,3
0.09999999999999432,1702,11,102,2
0.09999999999999432,1702,12,102,86
0.09999999999999432,1702,13,102,127
0.09999999999999432,1702,14,102,127
0.10000000000000853,1702,15,102,94
0.10000000000000853,1703,0,102,127
0.09999999999999432,1703,1,102,127
0.09999999999999432,1703,2,102,82
0.09999999999999432,1703,3,102,127
0.09999999999999432,1703,4,102,127
0.10000000000000853,1703,5,102,78
0.09999999999999432,1703,6,102,5
0.10000000000000853,1703,7,102,127
0.09999999999999432,1703,8,102,7
0.09999999999999432,1703,9,102,127
0.09999999999999432,1703,10,102,117
0.09999999999999432,1703,11,102,127
0.10000000000000853,1703,12,102,5
0.10000000000000853,1703,13,102,1
0.09999999999999432,1703,14,102,127
0.09999999999999432,1703,15,102,72
0.10000000000000853,1704,0,102,3
0.09999999999999432,1704,1,102,127
0.10000000000000853,1704,2,102,118
0.09999999999999432,1704,3,102,6
0.10000000000000853,1704,4,102,1
0.10000000000000853,1704,5,102,77
0.09999999999999432,1704,6,102,127
0.09999999999999432,1704,7,102,6
0.09999999999999432,1704,8,102,2
0.09999999999999432,1704,9,102,127
0.09999999999999432,1704,10,102,70
0.09999999999999432,1704,11,102,3
0.09999999999999432,1704,12,102,127
0.09999999999999432,1704,13,102,106
0.09999999999999432,1704,14,102,8
0.10000000000000853,1704,15,102,127
0.09999999999999432,1705,0,102,125
0.10000000000000853,1705,1,102,127
0.09999999999999432,1705,2,102,102
0.09999999999999432,1705,3,102,11
0.09999999999999432,1705,4,102,9
0.09999999999999432,1705,5,102,127
0.10000000000000853,1705,6,102,107
0.10000000000000853,1705,7,102,63
0.10000000000000853,1705,8,102,8
0.10000000000000853,1705,9,102,3
0.10000000000000853,1705,10,102,127
0.09999999999999432,1705,11,102,103
0.09999999999999432,1705,12,102,9
0.09999999999999432,1705,13,102,8
0.10000000000000853,1705,14,102,70
0.10000000000000853,1705,15,102,127
0.09999999999999432,1706,0,102,99
0.10000000000000853,1706,1,102,9
0.10000000000000853,1706,2,102,9
0.10000000000000853,1706,3,102,127
0.09999999999999432,1706,4,102,108
0.09999999999999432,1706,5,102,71
0.10000000000000853,1706,6,102,7
0.09999999999999432,1706,7,102,6
0.09999999999999432,1706,8,102,127
0.09999999999999432,1706,9,102,102
0.10000000000000853,1706,10,102,10
0.10000000000000853,1706,11,102,127
0.10000000000000853,1706,12,102,122
0.10000000000000853,1706,13,102,127
0.10000000000000853,1706,14,102,102
0.10000000000000853,1706,15,102,10
0.09999999999999432,1707,0,102,10
0.09999999999999432,1707,1,102,127
0.09999999999999432,1707,2,102,103
0.10000000000000853,1707,3,102,58
0.09999999999999432,1707,4,102,9
0.09999999999999432,1707,5,102,7
0.09999999999999432,1707,6,102,127
0.10000000000000853,1707,7,102,101
0.10000000000000853,1707,8,102,9
0.09999999999999432,1707,9,102,9
0.09999999999999432,1707,10,102,69
0.10000000000000853,1707,11,102,127
0.09999999999999432,1707,12,102,99
0.09999999999999432,1707,13,102,9
0.09999999999999432,1707,14,102,9
0.10000000000000853,1707,15,102,127
0.09999999999999432,1708,0,102,101
0.10000000000000853,1708,1,102,69
0.10000000000000853,1708,2,102,9
0.09999999999999432,1708,3,102,5
0.09999999999999432,1708,4,102,127
0.09999999999999432,1708,5,102,103
0.09999999999999432,1708,6,102,9
0.09999999999999432,1708,7,102,127
0.09999999999999432,1708,8,102,126
0.10000000000002274,1708,9,102,127
0.09999999999999432,1708,10,102,98
0.09999999999999432,1708,11,102,3
0.09999999999999432,1708,12,102,10
0.09999999999999432,1708,13,102,127
0.10000000000002274,1708,14,102,102
0.10000000000002274,1708,15,102,70
0.09999999999999432,1709,0,102,8
0.10000000000002274,1709,1,102,5
0.09999999999999432,1709,2,102,127
0.10000000000002274,1709,3,102,111
0.09999999999999432,1709,4,102,9
0.09999999999999432,1709,5,102,7
0.09999999999999432,1709,6,102,74
0.09999999999999432,1709,7,102,127
0.09999999999999432,1709,8,102,102
0.09999999999999432,1709,9,102,9
0.10000000000002274,1709,10,102,8
0.09999999999999432,1709,11,102,127
0.09999999999999432,1709,12,102,104
0.09999999999999432,1709,13,102,70
0.10000000000002274,1709,14,102,8
0.09999999999999432,1709,15,102,5
0.09999999999999432,1710,0,102,127
0.09999999999999432,1710,1,102,106
0.10000000000002274,1710,2,102,9
0.09999999999999432,1710,3,102,127
0.09999999999999432,1710,4,102,125
0.09999999999999432,1710,5,102,127
0.09999999999999432,1710,6,102,109
0.10000000000002274,1710,7,102,10
0.09999999999999432,1710,8,102,10
0.09999999999999432,1710,9,102,127
0.09999999999999432,1710,10,102,113
0.09999999999999432,1710,11,102,73
0.09999999999999432,1710,12,102,8
0.09999999999999432,1710,13,102,8
0.10000000000002274,1710,14,102,37
0.09999999999999432,1710,15,102,40
0.09999999999999432,1711,0,102,36
0.09999999999999432,1711,1,102,31
0.09999999999999432,1711,2,102,38
0.09999999999999432,1711,3,102,38
0.09999999999999432,1711,4,102,38
0.09999999999999432,1711,5,102,40
0.09999999999999432,1711,6,102,127
0.09999999999999432,1711,7,102,3
0.09999999999999432,1711,8,102,38
0.09999999999999432,1711,9,102,2
0.10000000000002274,1711,10,102,35
0.10000000000002274,1711,11,102,127
0.09999999999999432,1711,12,102,34
0.09999999999999432,1711,13,102,2
0.09999999999999432,1711,14,102,2
0.09999999999999432,1711,15,102,2
0.09999999999999432,1712,0,102,1
0.09999999999999432,1712,1,102,44
0.09999999999999432,1712,2,102,1
0.09999999999999432,1712,3,102,2
0.09999999999999432,1712,4,102,127
0.09999999999999432,1712,5,102,1
0.09999999999999432,1712,6,102,38
0.09999999999999432,1712,7,102,1
0.09999999999999432,1712,8,102,127
0.09999999999999432,1712,9,102,7
0.09999999999999432,1712,10,102,1
0.09999999999999432,1712,11,102,41
0.09999999999999432,1712,12,102,1
0.09999999999999432,1712,13,102,1
0.09999999999999432,1712,14,102,127
0.09999999999999432,1712,15,102,5
0.09999999999999432,1713,0,102,1
0.09999999999999432,1713,1,102,44
0.10000000000002274,1713,2,102,1
0.10000000000002274,1713,3,102,2
0.09999999999999432,1713,4,102,2
0.09999999999999432,1713,5,102,2
0.09999999999999432,1713,6,102,1
0.09999999999999432,1713,7,102,42
0.09999999999999432,1713,8,102,1
0.09999999999999432,1713,9,102,127
0.10000000000002274,1713,10,102,89
0.09999999999999432,1713,11,102,127
0.10000000000002274,1713,12,102,127
0.09999999999999432,1713,13,102,111
0.013636363636351234,1713,14,102,61
0.04772727272725774,1713,15,102,83
0.09999999999999432,1714,0,102,5
0.09999999999999432,1714,1,102,4
0.09999999999999432,1714,2,102,127
0.09999999999999432,1714,3,102,127
0.09999999999999432,1714,4,102,6
0.09999999999999432,1714,5,102,127
0.09999999999999432,1714,6,102,127
0.09999999999999432,1714,7,102,127
0.10000000000002274,1714,8,102,111
0.09999999999999432,1714,9,102,6
0.09999999999999432,1714,10,102,7
0.09999999999999432,1714,11,102,127
0.10000000000002274,1714,12,102,112
0.013636363636379656,1714,13,102,63
0.04772727272725774,1714,14,102,88
0.09999999999999432,1714,15,102,5
0.09999999999999432,1715,0,102,5
0.09999999999999432,1715,1,102,127
0.10000000000002274,1715,2,102,127
0.09999999999999432,1715,3,102,6
0.09999999999999432,1715,4,102,2
0.09999999999999432,1715,5,102,81
0.10000000000002274,1715,6,102,127
0.09999999999999432,1715,7,102,115
0.09999999999999432,1715,8,102,7
0.09999999999999432,1715,9,102,6
0.10000000000002274,1715,10,102,127
0.09999999999999432,1715,11,102,112
0.013636363636351234,1715,12,102,58
0.04772727272728616,1715,13,102,81
0.10000000000002274,1715,14,102,5
0.09999999999999432,1715,15,102,4
0.10000000000002274,1716,0,102,127
0.09999999999999432,1716,1,102,122
0.09999999999999432,1716,2,102,7
0.09999999999999432,1716,3,102,127
0.10000000000002274,1716,4,102,127
0.09999999999999432,1716,5,102,127
0.09999999999999432,1716,6,102,120
0.09999999999999432,1716,7,102,6
0.09999999999999432,1716,8,102,7
0.09999999999999432,1716,9,102,127
0.09999999999999432,1716,10,102,122
0.013636363636351234,1716,11,102,52
0.04772727272725774,1716,12,102,84
0.09999999999999432,1716,13,102,5
0.09999999999999432,1716,14,102,3
0.09999999999999432,1716,15,102,127
0.10000000000002274,1717,0,102,125
0.09999999999999432,1717,1,102,8
0.10000000000002274,1717,2,102,4
0.09999999999999432,1717,3,102,76
0.09999999999999432,1717,4,102,127
0.09999999999999432,1717,5,102,107
0.09999999999999432,1717,6,102,6
0.09999999999999432,1717,7,102,6
0.09999999999999432,1717,8,102,127
0.09999999999999432,1717,9,102,116
0.013636363636351234,1717,10,102,64
0.04772727272728616,1717,11,102,81
0.09999999999999432,1717,12,102,5
0.09999999999999432,1717,13,102,4
0.10000000000002274,1717,14,102,127
0.09999999999999432,1717,15,102,127
0.09999999999999432,1718,0,102,6
0.09999999999999432,1718,1,102,127
0.10000000000002274,1718,2,102,127
0.10000000000002274,1718,3,102,127
0.09999999999999432,1718,4,102,108
0.09999999999999432,1718,5,102,7
0.09999999999999432,1718,6,102,7
0.10000000000002274,1718,7,102,127
0.09999999999999432,1718,8,102,104
0.09999999999999432,1718,9,102,78
0.09999999999999432,1718,10,102,5
0.10000000000002274,1718,11,102,5
0.09999999999999432,1718,12,102,127
0.09999999999999432,1718,13,102,127
0.09999999999999999,1718,14,62,1
0.004545454545454547,1718,15,62,1
0.025000000000000022,1719,0,62,1
0.05681818181818182,1719,1,62,1
0.036363636363636376,1719,2,62,1
0.05681818181818182,1719,3,62,1
0.025000000000000022,1719,4,62,1
0.024999999999999967,1719,5,62,1
0.013636363636363669,1719,6,62,1
0.02499999999999991,1719,7,62,1
0.025000000000000022,1719,8,62,1
0.015909090909090873,1719,9,62,1
0.015909090909090984,1719,10,62,1
0.013636363636363669,1719,11,62,1
0.036363636363636376,1719,12,62,1
0.004545454545454519,1719,13,62,1
0.036363636363636265,1719,14,62,1
0.013636363636363669,1719,15,62,1
0.027272727272727226,1720,0,62,1
0.05681818181818188,1720,1,62,1
0.02499999999999991,1720,2,62,1
0.05681818181818188,1720,3,62,1
0.013636363636363669,1720,4,62,1
0.00454545454545463,1720,5,62,1
0.00454545454545463,1720,6,62,1
0.036363636363636376,1720,7,62,1
0.05681818181818188,1720,8,62,1
0.025000000000000133,1720,9,62,1
0.02499999999999991,1720,10,62,1
0.015909090909090873,1720,11,62,1
0.02499999999999991,1720,12,62,1
0.05681818181818166,1720,13,62,1
0.02499999999999991,1720,14,62,1
0.05681818181818166,1720,15,62,1
0.015909090909090873,1721,0,62,1
0.002272727272727426,1721,1,62,1
0.05909090909090908,1721,2,62,1
0.02499999999999991,1721,3,62,1
0.01590909090909065,1721,4,62,1
0.013636363636363669,1721,5,62,1
0.05909090909090908,1721,6,62,1
0.10000000000000009,1721,7,62,1
0.02499999999999991,1721,8,62,1
0.0568181818181821,1721,9,62,1
0.004545454545454408,1721,10,62,1
0.05681818181818166,1721,11,62,1
0.02499999999999991,1721,12,62,1
0.0363636363636366,1721,13,62,1
0.02499999999999991,1721,14,62,1
0.0363636363636366,1721,15,62,1
0.004545454545454852,1722,0,62,1
0.015909090909091095,1722,1,62,1
0.045454545454545414,1722,2,62,1
0.04772727272727284,1722,3,62,1
0.004545454545454408,1722,4,62,1
0.013636363636363669,1722,5,62,1
0.02499999999999991,1722,6,62,1
0.05909090909090908,1722,7,62,1
0.004545454545454408,1722,8,62,1
0.002272727272726982,1722,9,62,1
0.02499999999999991,1722,10,62,1
0.01590909090909065,1722,11,62,1
0.01590909090909065,1722,12,62,1
0.025000000000000355,1722,13,62,1
0.013636363636363669,1722,14,62,1
0.0363636363636366,1722,15,62,1
0.04772727272727284,1723,0,62,1
0.013636363636363669,1723,1,62,1
0.013636363636363669,1723,2,62,1
0.045454545454545414,1723,3,62,1
0.004545454545454852,1723,4,62,1
0.002272727272726982,1723,5,62,1
0.0681818181818179,1723,6,62,1
0.01590909090909065,1723,7,62,1
0.0363636363636366,1723,8,62,1
0.004545454545454852,1723,9,62,1
0.025000000000000355,1723,10,62,1
0.013636363636363669,1723,11,62,1
0.036363636363636154,1723,12,62,1
0.004545454545453964,1723,13,62,1
0.036363636363636154,1723,14,62,1
0.10000000000000053,1723,15,62,1
0.04772727272727284,1724,0,62,1
0.013636363636363669,1724,1,62,1
0.036363636363636154,1724,2,62,1
0.004545454545454852,1724,3,62,1
0.036363636363636154,1724,4,62,1
0.004545454545454852,1724,5,62,1
0.013636363636363669,1724,6,62,1
0.01590909090909154,1724,7,62,1
0.04545454545454586,1724,8,62,1
0.013636363636363669,1724,9,62,1
0.024999999999999467,1724,10,62,1
0.05909090909090953,1724,11,62,1
0.01590909090909065,1724,12,62,1
0.013636363636363669,1724,13,62,1
0.025000000000000355,1724,14,62,1
0.024999999999999467,1724,15,62,1
0.025000000000000355,1725,0,62,1
0.01590909090909065,1725,1,62,1
0.03409090909090917,1725,2,62,1
0.002272727272726982,1725,3,62,1
0.03636363636363704,1725,4,62,1
0.004545454545453964,1725,5,62,1
0.04772727272727284,1725,6,62,1
0.01590909090909065,1725,7,62,1
0.034090909090908283,1725,8,62,1
0.025000000000000355,1725,9,62,1
0.036363636363636154,1725,10,62,1
0.05681818181818166,1725,11,62,1
0.013636363636363669,1725,12,62,1
0.024999999999999467,1725,13,62,1
0.10000000000000053,1725,14,62,1
0.06818181818181834,1725,15,62,1
0.004545454545454852,1726,0,62,1
0.10000000000000053,1726,1,62,1
0.05681818181818166,1726,2,62,1
0.025000000000000355,1726,3,62,1
0.01590909090909065,1726,4,62,1
0.01590909090909154,1726,5,62,1
0.013636363636363669,1726,6,62,1
0.04772727272727284,1726,7,62,1
0.01590909090909065,1726,8,62,1
0.013636363636363669,1726,9,62,1
0.056818181818182545,1726,10,62,1
0.004545454545454852,1726,11,62,1
0.04545454545454497,1726,12,62,1
0.004545454545453964,1726,13,62,1
0.002272727272726982,1726,14,62,1
0.05681818181818166,1726,15,62,1
0.01590909090909065,1727,0,62,1
0.01590909090909065,1727,1,62,1
0.024999999999999467,1727,2,62,1
0.025000000000000355,1727,3,62,1
0.05681818181818166,1727,4,62,1
0.013636363636363669,1727,5,62,1
0.09999999999999964,1727,6,62,1
0.04545454545454586,1727,7,62,1
0.036363636363636154,1727,8,62,1
0.05681818181818166,1727,9,62,1
0.01590909090909065,1727,10,62,1
0.025000000000000355,1727,11,62,1
0.004545454545454852,1727,12,62,1
0.06590909090909136,1727,13,62,1
0.025000000000000355,1727,14,62,1
0.01590909090909154,1727,15,62,1
0.013636363636363669,1728,0,62,1
0.025000000000000355,1728,1,62,1
0.05909090909090953,1728,2,62,1
0.025000000000000355,1728,3,62,1
0.025000000000000355,1728,4,62,1
0.09999999999999964,1728,5,62,1
0.04545454545454497,1728,6,62,1
0.013636363636363669,1728,7,62,1
0.025000000000000355,1728,8,62,1
0.025000000000000355,1728,9,62,1
0.01590909090909065,1728,10,62,1
0.004545454545453964,1728,11,62,1
0.025000000000000355,1728,12,62,1
0.02499999999999858,1728,13,62,1
0.0045454545454557405,1728,14,62,1
0.04545454545454497,1728,15,62,1
0.036363636363635266,1729,0,62,1
0.004545454545453964,1729,1,62,1
0.09999999999999964,1729,2,62,1
0.05681818181818166,1729,3,62,1
0.004545454545453964,1729,4,62,1
0.01590909090909065,1729,5,62,1
0.013636363636363669,1729,6,62,1
0.09999999999999964,1729,7,62,1
0.036363636363635266,1729,8,62,1
0.09999999999999964,1729,9,62,1
0.05681818181818166,1729,10,62,1
0.09999999999999964,1729,11,62,1
0.06590909090909136,1729,12,62,1
0.03409090909091006,1729,13,62,1
0.002272727272726982,1729,14,62,1
0.01590909090909065,1729,15,62,1
0.004545454545453964,1730,0,62,1
0.01590909090909065,1730,1,62,1
0.05681818181818166,1730,2,62,1
0.025000000000000355,1730,3,62,1
0.06818181818181834,1730,4,62,1
0.036363636363635266,1730,5,62,1
0.025000000000000355,1730,6,62,1
0.004545454545453964,1730,7,62,1
0.025000000000000355,1730,8,62,1
0.09999999999999964,1730,9,62,1
0.013636363636363669,1730,10,62,1
0.04772727272727195,1730,11,62,1
0.09999999999999964,1730,12,62,1
0.036363636363635266,1730,13,62,1
0.004545454545453964,1730,14,62,1
0.03636363636363704,1730,15,62,1
0.025000000000000355,1731,0,62,1
0.10000000000000142,1731,1,62,1
0.09999999999999964,1731,2,62,1
0.04772727272727195,1731,3,62,1
0.004545454545453964,1731,4,62,1
0.025000000000000355,1731,5,62,1
0.03636363636363704,1731,6,62,1
0.025000000000000355,1731,7,62,1
0.025000000000000355,1731,8,62,1
0.04772727272727195,1731,9,62,1
0.025000000000000355,1731,10,62,1
0.03636363636363704,1731,11,62,1
0.0045454545454557405,1731,12,62,1
0.036363636363635266,1731,13,62,1
0.09999999999999964,1731,14,62,1
0.036363636363635266,1731,15,62,1
0.002272727272726982,1732,0,62,1
0.01590909090909065,1732,1,62,1
0.025000000000000355,1732,2,62,1
0.10000000000000142,1732,3,62,1
0.045454545454546746,1732,4,62,1
0.013636363636363669,1732,5,62,1
0.013636363636363669,1732,6,62,1
0.05909090909090864,1732,7,62,1
0.013636363636363669,1732,8,62,1
0.036363636363635266,1732,9,62,1
0.025000000000000355,1732,10,62,1
0.04772727272727195,1732,11,62,1
0.025000000000000355,1732,12,62,1
0.06818181818181834,1732,13,62,1
0.013636363636363669,1732,14,62,1
0.04772727272727373,1732,15,62,1
0.04545454545454497,1733,0,62,1
0.013636363636363669,1733,1,62,1
0.025000000000000355,1733,2,62,1
0.03636363636363704,1733,3,62,1
0.0045454545454557405,1733,4,62,1
0.004545454545453964,1733,5,62,1
0.05681818181818166,1733,6,62,1
0.004545454545453964,1733,7,62,1
0.04545454545454497,1733,8,62,1
0.027272727272727337,1733,9,62,1
0.04545454545454497,1733,10,62,1
0.002272727272726982,1733,11,62,1
0.013636363636363669,1733,12,62,1
0.01590909090909065,1733,13,62,1
0.027272727272727337,1733,14,62,1
0.09999999999999964,1733,15,62,1
0.05681818181818166,1734,0,62,1
0.013636363636363669,1734,1,62,1
0.036363636363635266,1734,2,62,1
0.004545454545453964,1734,3,62,1
0.013636363636363669,1734,4,62,1
0.004545454545453964,1734,5,62,1
0.09999999999999964,1734,6,62,1
0.04545454545454497,1734,7,62,1
0.013636363636363669,1734,8,62,1
0.004545454545453964,1734,9,62,1
0.04545454545454497,1734,10,62,1
0.013636363636363669,1734,11,62,1
0.004545454545453964,1734,12,62,1
0.04772727272727195,1734,13,62,1
0.004545454545453964,1734,14,62,1
0.025000000000000355,1734,15,62,1
0.013636363636363669,1735,0,62,1
0.036363636363635266,1735,1,62,1
0.04772727272727373,1735,2,62,1
0.01590909090909065,1735,3,62,1
0.004545454545453964,1735,4,62,1
0.034090909090908283,1735,5,62,1
0.002272727272726982,1735,6,62,1
0.027272727272727337,1735,7,62,1
0.01590909090909065,1735,8,62,1
0.036363636363635266,1735,9,62,1
0.002272727272726982,1735,10,62,1
0.025000000000000355,1735,11,62,1
0.01590909090909065,1735,12,62,1
0.02499999999999858,1735,13,62,1
0.025000000000000355,1735,14,62,1
0.025000000000000355,1735,15,62,1
0.004545454545453964,1736,0,62,1
0.0045454545454557405,1736,1,62,1
0.045454545454546746,1736,2,62,1
0.025000000000000355,1736,3,62,1
0.025000000000000355,1736,4,62,1
0.01590909090909065,1736,5,62,1
0.05681818181818166,1736,6,62,1
0.004545454545453964,1736,7,62,1
0.034090909090908283,1736,8,62,1
0.01590909090909065,1736,9,62,1
0.025000000000000355,1736,10,62,1
0.04772727272727195,1736,11,62,1
0.04545454545454497,1736,12,62,1
0.013636363636363669,1736,13,62,1
0.02499999999999858,1736,14,62,1
0.004545454545453964,1736,15,62,1
0.01590909090909065,1737,0,62,1
0.03636363636363882,1737,1,62,1
0.09999999999999787,1737,2,62,1
0.10000000000000142,1737,3,62,1
0.045454545454546746,1737,4,62,1
0.04772727272727195,1737,5,62,1
0.045454545454543194,1737,6,62,1
0.10000000000000142,1737,7,62,1
0.05681818181818343,1737,8,62,1
0.013636363636365445,1737,9,62,1
0.01590909090909065,1737,10,62,1
0.03409090909091006,1737,11,62,1
0.0022727272727287584,1737,12,62,1
0.02500000000000213,1737,13,62,1
0.03636363636363882,1737,14,62,1
0.05909090909090864,1737,15,62,1
0.004545454545453964,1738,0,62,1
0.04772727272727195,1738,1,62,1
0.013636363636361892,1738,2,62,1
0.02500000000000213,1738,3,62,1
0.01590909090909065,1738,4,62,1
0.036363636363635266,1738,5,62,1
0.013636363636361892,1738,6,62,1
0.03636363636363882,1738,7,62,1
0.04772727272727195,1738,8,62,1
0.01590909090909065,1738,9,62,1
0.02499999999999858,1738,10,62,1
0.02499999999999858,1738,11,62,1
0.02499999999999858,1738,12,62,1
0.004545454545457517,1738,13,62,1
0.06818181818181657,1738,14,62,1
0.0022727272727287584,1738,15,62,1
0.05909090909090864,1739,0,62,1
0.01590909090909065,1739,1,62,1
0.10000000000000142,1739,2,62,1
0.01590909090909065,1739,3,62,1
0.06818181818181657,1739,4,62,1
0.02499999999999858,1739,5,62,1
0.013636363636361892,1739,6,62,1
0.03636363636363882,1739,7,62,1
0.036363636363635266,1739,8,62,1
0.004545454545453964,1739,9,62,1
0.02499999999999858,1739,10,62,1
0.013636363636361892,1739,11,62,1
0.013636363636361892,1739,12,62,1
0.02499999999999858,1739,13,62,1
0.036363636363635266,1739,14,62,1
0.004545454545453964,1739,15,62,1
0.02500000000000213,1740,0,62,1
0.02499999999999858,1740,1,62,1
0.10000000000000142,1740,2,62,1
0.05681818181818343,1740,3,62,1
0.02500000000000213,1740,4,62,1
0.02500000000000213,1740,5,62,1
0.01590909090909065,1740,6,62,1
0.004545454545453964,1740,7,62,1
0.10000000000000142,1740,8,62,1
0.06818181818181657,1740,9,62,1
0.02499999999999858,1740,10,62,1
0.01590909090909065,1740,11,62,1
0.013636363636365445,1740,12,62,1
0.013636363636361892,1740,13,62,1
0.05909090909090864,1740,14,62,1
0.03409090909091006,1740,15,62,1
0.01590909090909065,1741,0,62,1
0.045454545454546746,1741,1,62,1
0.004545454545453964,1741,2,62,1
0.027272727272727337,1741,3,62,1
0.013636363636365445,1741,4,62,1
0.02500000000000213,1741,5,62,1
0.09999999999999787,1741,6,62,1
0.05681818181817988,1741,7,62,1
0.004545454545453964,1741,8,62,1
0.004545454545457517,1741,9,62,1
0.036363636363635266,1741,10,62,1
0.036363636363635266,1741,11,62,1
0.02500000000000213,1741,12,62,1
0.045454545454546746,1741,13,62,1
0.0022727272727287584,1741,14,62,1
0.01590909090909065,1741,15,62,1
0.01590909090909065,1742,0,62,1
0.02499999999999858,1742,1,62,1
0.02499999999999858,1742,2,62,1
0.02499999999999858,1742,3,62,1
0.036363636363635266,1742,4,62,1
0.004545454545453964,1742,5,62,1
0.02500000000000213,1742,6,62,1
0.10000000000000142,1742,7,62,1
0.05681818181818343,1742,8,62,1
0.013636363636365445,1742,9,62,1
0.004545454545457517,1742,10,62,1
0.036363636363635266,1742,11,62,1
0.0022727272727287584,1742,12,62,1
0.027272727272727337,1742,13,62,1
0.05681818181818343,1742,14,62,1
0.03636363636363882,1742,15,62,1
0.045454545454546746,1743,0,62,1
0.04772727272727195,1743,1,62,1
0.004545454545453964,1743,2,62,1
0.02499999999999858,1743,3,62,1
0.10000000000000142,1743,4,62,1
0.05681818181818343,1743,5,62,1
0.004545454545453964,1743,6,62,1
0.02499999999999858,1743,7,62,1
0.05909090909091219,1743,8,62,1
0.004545454545457517,1743,9,62,1
0.036363636363635266,1743,10,62,1
0.045454545454543194,1743,11,62,1
0.036363636363635266,1743,12,62,1
0.05909090909091219,1743,13,62,1
0.02500000000000213,1743,14,62,1
0.02499999999999858,1743,15,62,1
0.01590909090909065,1744,0,62,1
0.013636363636361892,1744,1,62,1
0.004545454545453964,1744,2,62,1
0.03636363636363882,1744,3,62,1
0.05681818181817988,1744,4,62,1
0.013636363636361892,1744,5,62,1
0.0022727272727252057,1744,6,62,1
0.10000000000000142,1744,7,62,1
0.06590909090909136,1744,8,62,1
0.02500000000000213,1744,9,62,1
0.01590909090909065,1744,10,62,1
0.013636363636361892,1744,11,62,1
0.02499999999999858,1744,12,62,1
0.02499999999999858,1744,13,62,1
0.01590909090909065,1744,14,62,1
0.02499999999999858,1744,15,62,1
0.013636363636365445,1745,0,62,1
0.004545454545453964,1745,1,62,1
0.05681818181817988,1745,2,62,1
0.004545454545453964,1745,3,62,1
0.02500000000000213,1745,4,62,1
0.09999999999999787,1745,5,62,1
0.045454545454543194,1745,6,62,1
0.10000000000000142,1745,7,62,1
0.06818181818182012,1745,8,62,1
0.013636363636365445,1745,9,62,1
0.027272727272727337,1745,10,62,1
0.06590909090909136,1745,11,62,1
0.013636363636365445,1745,12,62,1
0.004545454545453964,1745,13,62,1
0.013636363636365445,1745,14,62,1
0.004545454545453964,1745,15,62,1
0.01590909090909065,1746,0,62,1
0.02499999999999858,1746,1,62,1
0.013636363636361892,1746,2,62,1
0.02499999999999858,1746,3,62,1
0.03636363636363882,1746,4,62,1
0.004545454545457517,1746,5,62,1
0.02500000000000213,1746,6,62,1
0.02499999999999858,1746,7,62,1
0.036363636363635266,1746,8,62,1
0.05909090909090864,1746,9,62,1
0.01590909090909065,1746,10,62,1
0.013636363636365445,1746,11,62,1
0.013636363636361892,1746,12,62,1
0.013636363636361892,1746,13,62,1
0.01590909090909065,1746,14,62,1
0.01590909090909065,1746,15,62,1
0.0022727272727287584,1747,0,62,1
0.004545454545453964,1747,1,62,1
0.004545454545457517,1747,2,62,1
0.013636363636361892,1747,3,62,1
0.036363636363635266,1747,4,62,1
0.01590909090909065,1747,5,62,1
0.013636363636361892,1747,6,62,1
0.01590909090909065,1747,7,62,1
0.10000000000000142,1747,8,62,1
0.02500000000000213,1747,9,62,1
0.05681818181818343,1747,10,62,1
0.09999999999999787,1747,11,62,1
0.04772727272727195,1747,12,62,1
0.02499999999999858,1747,13,62,1
0.05681818181818343,1747,14,62,1
0.02500000000000213,1747,15,62,1
0.04772727272727195,1748,0,62,1
0.01590909090909065,1748,1,62,1
0.013636363636361892,1748,2,62,1
0.004545454545457517,1748,3,62,1
0.036363636363635266,1748,4,62,1
0.004545454545453964,1748,5,62,1
0.02499999999999858,1748,6,62,1
0.036363636363635266,1748,7,62,1
0.004545454545453964,1748,8,62,1
0.03636363636363882,1748,9,62,1
0.004545454545453964,1748,10,62,1
0.02499999999999858,1748,11,62,1
0.045454545454543194,1748,12,62,1
0.013636363636361892,1748,13,62,1
0.027272727272727337,1748,14,62,1
0.013636363636361892,1748,15,62,1
0.06818181818181657,1749,0,62,1
0.02499999999999858,1749,1,62,1
0.02499999999999858,1749,2,62,1
0.02499999999999858,1749,3,62,1
0.02499999999999858,1749,4,62,1
0.03636363636363882,1749,5,62,1
0.09999999999999787,1749,6,62,1
0.05681818181817988,1749,7,62,1
0.004545454545453964,1749,8,62,1
0.01590909090909065,1749,9,62,1
0.02500000000000213,1749,10,62,1
0.013636363636361892,1749,11,62,1
0.04772727272727195,1749,12,62,1
0.004545454545453964,1749,13,62,1
0.013636363636365445,1749,14,62,1
0.03636363636363882,1749,15,62,1
0.10000000000000142,1750,0,62,1
0.06818181818182012,1750,1,62,1
0.02500000000000213,1750,2,62,1
0.02500000000000213,1750,3,62,1
0.02500000000000213,1750,4,62,1
0.02499999999999858,1750,5,62,1
0.09999999999999787,1750,6,62,1
0.06818181818181657,1750,7,62,1
0.027272727272727337,1750,8,62,1
0.02500000000000213,1750,9,62,1
0.02499999999999858,1750,10,62,1
0.01590909090909065,1750,11,62,1
0.036363636363635266,1750,12,62,1
0.03636363636363882,1750,13,62,1
0.0022727272727287584,1750,14,62,1
0.02499999999999858,1750,15,62,1
0.01590909090909065,1751,0,62,1
0.0022727272727252057,1751,1,62,1
0.004545454545453964,1751,2,62,1
0.01590909090909065,1751,3,62,1
0.03636363636363882,1751,4,62,1
0.004545454545453964,1751,5,62,1
0.03409090909090651,1751,6,62,1
0.0022727272727252057,1751,7,62,1
0.036363636363635266,1751,8,62,1
0.004545454545453964,1751,9,62,1
0.05681818181818343,1751,10,62,1
0.01590909090909065,1751,11,62,1
0.01590909090909065,1751,12,62,1
0.013636363636361892,1751,13,62,1
0.047727272727275505,1751,14,62,1
0.004545454545457517,1751,15,62,1
0.013636363636365445,1752,0,62,1
0.02499999999999858,1752,1,62,1
0.02499999999999858,1752,2,62,1
0.01590909090909065,1752,3,62,1
0.01590909090909065,1752,4,62,1
0.02500000000000213,1752,5,62,1
0.036363636363635266,1752,6,62,1
0.045454545454543194,1752,7,62,1
0.013636363636361892,1752,8,62,1
0.02499999999999858,1752,9,62,1
0.02499999999999858,1752,10,62,1
0.036363636363635266,1752,11,62,1
0.015909090909094203,1752,12,62,1
0.02499999999999858,1752,13,62,1
0.004545454545453964,1752,14,62,1
0.06818181818182012,1752,15,62,1
0.02500000000000213,1753,0,62,1
0.09999999999999787,1753,1,62,1
0.05681818181817988,1753,2,62,1
0.01590909090909065,1753,3,62,1
0.027272727272727337,1753,4,62,1
0.013636363636365445,1753,5,62,1
0.04772727272727195,1753,6,62,1
0.013636363636361892,1753,7,62,1
0.004545454545453964,1753,8,62,1
0.036363636363635266,1753,9,62,1
0.05681818181817988,1753,10,62,1
0.004545454545453964,1753,11,62,1
0.05681818181818343,1753,12,62,1
0.013636363636365445,1753,13,62,1
0.01590909090909065,1753,14,62,1
0.02499999999999858,1753,15,62,1
0.02499999999999858,1754,0,62,1
0.03636363636363882,1754,1,62,1
0.02499999999999858,1754,2,62,1
0.045454545454543194,1754,3,62,1
0.013636363636361892,1754,4,62,1
0.02499999999999858,1754,5,62,1
0.036363636363635266,1754,6,62,1
0.02500000000000213,1754,7,62,1
0.04772727272727195,1754,8,62,1
0.045454545454543194,1754,9,62,1
0.004545454545453964,1754,10,62,1
0.0022727272727287584,1754,11,62,1
0.05909090909090864,1754,12,62,1
0.004545454545457517,1754,13,62,1
0.0022727272727252057,1754,14,62,1
0.03636363636363882,1754,15,62,1
0.04772727272727195,1755,0,62,1
0.004545454545457517,1755,1,62,1
0.02499999999999858,1755,2,62,1
0.025000000000005684,1755,3,62,1
0.04772727272727195,1755,4,62,1
0.004545454545450411,1755,5,62,1
0.10000000000000142,1755,6,62,1
0.05681818181817988,1755,7,62,1
0.004545454545450411,1755,8,62,1
0.01590909090909065,1755,9,62,1
0.03636363636363171,1755,10,62,1
0.02499999999999858,1755,11,62,1
0.013636363636365445,1755,12,62,1
0.027272727272723785,1755,13,62,1
0.05681818181817988,1755,14,62,1
0.013636363636365445,1755,15,62,1
0.06818181818182012,1756,0,62,1
0.03636363636363882,1756,1,62,1
0.02499999999999858,1756,2,62,1
0.013636363636365445,1756,3,62,1
0.01590909090909065,1756,4,62,1
0.03636363636363171,1756,5,62,1
0.0022727272727252057,1756,6,62,1
0.004545454545457517,1756,7,62,1
0.05681818181817988,1756,8,62,1
0.004545454545457517,1756,9,62,1
0.05681818181817988,1756,10,62,1
0.01590909090909065,1756,11,62,1
0.01590909090909065,1756,12,62,1
0.013636363636365445,1756,13,62,1
0.027272727272723785,1756,14,62,1
0.056818181818186986,1756,15,62,1
0.02499999999999858,1757,0,62,1
0.06818181818182012,1757,1,62,1
0.025000000000005684,1757,2,62,1
0.013636363636365445,1757,3,62,1
0.09999999999999432,1757,4,62,1
0.06818181818181301,1757,5,62,1
0.02499999999999858,1757,6,62,1
0.01590909090909065,1757,7,62,1
0.06818181818182012,1757,8,62,1
0.02499999999999858,1757,9,62,1
0.06818181818182012,1757,10,62,1
0.03636363636363882,1757,11,62,1
0.09999999999999432,1757,12,62,1
0.09999999999999432,1757,13,62,1
0.01590909090909065,1757,14,62,1
0.06818181818182012,1757,15,62,1
0.013636363636365445,1758,0,62,1
0.01363636363635834,1758,1,62,1
0.02499999999999858,1758,2,62,1
0.10000000000000142,1758,3,62,1
0.025000000000005684,1758,4,62,1
0.06818181818182012,1758,5,62,1
0.03636363636363171,1758,6,62,1
0.004545454545450411,1758,7,62,1
0.004545454545450411,1758,8,62,1
0.025000000000005684,1758,9,62,1
0.059090909090905086,1758,10,62,1
0.09999999999999432,1758,11,62,1
0.04772727272727195,1758,12,62,1
0.01590909090909065,1758,13,62,1
0.013636363636365445,1758,14,62,1
0.10000000000000142,1758,15,62,1
0.06818181818182012,1759,0,62,1
0.004545454545457517,1759,1,62,1
0.05681818181817988,1759,2,62,1
0.02499999999999858,1759,3,62,1
0.05681818181817988,1759,4,62,1
0.02499999999999858,1759,5,62,1
0.01590909090909065,1759,6,62,1
0.01363636363635834,1759,7,62,1
0.10000000000000142,1759,8,62,1
0.03636363636363882,1759,9,62,1
0.05681818181817988,1759,10,62,1
0.09999999999999432,1759,11,62,1
0.04772727272727195,1759,12,62,1
0.004545454545450411,1759,13,62,1
0.02499999999999858,1759,14,62,1
0.025000000000005684,1759,15,62,1
0.004545454545450411,1760,0,62,1
0.06818181818181301,1760,1,62,1
0.02499999999999858,1760,2,62,1
0.01590909090909065,1760,3,62,1
0.06818181818182012,1760,4,62,1
0.03409090909091361,1760,5,62,1
0.0022727272727252057,1760,6,62,1
0.02499999999999858,1760,7,62,1
0.06818181818182012,1760,8,62,1
0.02727272727273089,1760,9,62,1
0.01590909090909065,1760,10,62,1
0.09999999999999432,1760,11,62,1
0.10000000000000142,1760,12,62,1
0.05681818181817988,1760,13,62,1
0.013636363636365445,1760,14,62,1
0.02499999999999858,1760,15,62,1
0.02499999999999858,1761,0,62,1
0.013636363636365445,1761,1,62,1
0.02499999999999858,1761,2,62,1
0.01590909090909065,1761,3,62,1
0.02499999999999858,1761,4,62,1
0.05681818181817988,1761,5,62,1
0.03636363636363882,1761,6,62,1
0.02499999999999858,1761,7,62,1
0.04772727272727195,1761,8,62,1
0.04545454545453964,1761,9,62,1
0.004545454545450411,1761,10,62,1
0.10000000000000142,1761,11,62,1
0.05909090909091219,1761,12,62,1
0.0022727272727252057,1761,13,62,1
0.06818181818181301,1761,14,62,1
0.03636363636363171,1761,15,62,1
0.01590909090909065,1762,0,62,1
0.03409090909090651,1762,1,62,1
0.04772727272727195,1762,2,62,1
0.10000000000000142,1762,3,62,1
0.06818181818182012,1762,4,62,1
0.004545454545450411,1762,5,62,1
0.10000000000000142,1762,6,62,1
0.056818181818186986,1762,7,62,1
0.01590909090909065,1762,8,62,1
0.09999999999999432,1762,9,62,1
0.059090909090905086,1762,10,62,1
0.004545454545450411,1762,11,62,1
0.002272727272732311,1762,12,62,1
0.09999999999999432,1762,13,62,1
0.04772727272727195,1762,14,62,1
0.01590909090909065,1762,15,62,1
0.0022727272727252057,1763,0,62,1
0.03636363636363882,1763,1,62,1
0.04772727272727195,1763,2,62,1
0.03636363636363171,1763,3,62,1
0.03636363636363882,1763,4,62,1
0.002272727272732311,1763,5,62,1
0.02499999999999858,1763,6,62,1
0.01363636363635834,1763,7,62,1
0.02499999999999858,1763,8,62,1
0.03636363636363882,1763,9,62,1
0.04772727272727195,1763,10,62,1
0.03409090909091361,1763,11,62,1
0.059090909090905086,1763,12,62,1
0.004545454545450411,1763,13,62,1
0.10000000000000142,1763,14,62,1
0.06818181818182012,1763,15,62,1
0.09999999999999432,1764,0,62,1
0.06818181818181301,1764,1,62,1
0.013636363636365445,1764,2,62,1
0.10000000000000142,1764,3,62,1
0.06818181818181301,1764,4,62,1
0.02499999999999858,1764,5,62,1
0.01590909090909065,1764,6,62,1
0.02499999999999858,1764,7,62,1
0.056818181818186986,1764,8,62,1
0.01590909090909065,1764,9,62,1
0.05681818181817988,1764,10,62,1
0.025000000000005684,1764,11,62,1
0.03636363636363882,1764,12,62,1
0.05681818181817988,1764,13,62,1
0.09999999999999432,1764,14,62,1
0.01363636363635834,1764,15,62,1
0.05909090909091219,1765,0,62,1
0.013636363636365445,1765,1,62,1
0.05681818181817988,1765,2,62,1
0.02499999999999858,1765,3,62,1
0.01590909090909065,1765,4,62,1
0.03636363636363171,1765,5,62,1
0.10000000000000142,1765,6,62,1
0.045454545454546746,1765,7,62,1
0.0022727272727252057,1765,8,62,1
0.015909090909097756,1765,9,62,1
0.004545454545450411,1765,10,62,1
0.05681818181817988,1765,11,62,1
0.01363636363635834,1765,12,62,1
0.02499999999999858,1765,13,62,1
0.025000000000005684,1765,14,62,1
0.013636363636365445,1765,15,62,1
0.01590909090909065,1766,0,62,1
0.10000000000000142,1766,1,62,1
0.06818181818182012,1766,2,62,1
0.025000000000005684,1766,3,62,1
0.025000000000005684,1766,4,62,1
0.027272727272723785,1766,5,62,1
0.045454545454546746,1766,6,62,1
0.10000000000000142,1766,7,62,1
0.04772727272727195,1766,8,62,1
0.03409090909090651,1766,9,62,1
0.059090909090905086,1766,10,62,1
0.004545454545450411,1766,11,62,1
0.10000000000000142,1766,12,62,1
0.05909090909091219,1766,13,62,1
0.02499999999999858,1766,14,62,1
0.056818181818186986,1766,15,62,1
0.02499999999999858,1767,0,62,1
0.09999999999999432,1767,1,62,1
0.059090909090905086,1767,2,62,1
0.004545454545450411,1767,3,62,1
0.10000000000000142,1767,4,62,1
0.045454545454546746,1767,5,62,1
0.0022727272727252057,1767,6,62,1
0.004545454545457517,1767,7,62,1
0.004545454545457517,1767,8,62,1
0.02499999999999858,1767,9,62,1
0.004545454545457517,1767,10,62,1
0.045454545454546746,1767,11,62,1
0.004545454545457517,1767,12,62,1
0.027272727272723785,1767,13,62,1
0.0022727272727252057,1767,14,62,1
0.06818181818182012,1767,15,62,1
0.01590909090909065,1768,0,62,1
0.056818181818186986,1768,1,62,1
0.025000000000005684,1768,2,62,1
0.01363636363635834,1768,3,62,1
0.10000000000000142,1768,4,62,1
0.013636363636365445,1768,5,62,1
0.05681818181817988,1768,6,62,1
0.01590909090909065,1768,7,62,1
0.045454545454546746,1768,8,62,1
0.013636363636365445,1768,9,62,1
0.02499999999999858,1768,10,62,1
0.01590909090909065,1768,11,62,1
0.02499999999999858,1768,12,62,1
0.10000000000000142,1768,13,62,1
0.10000000000000142,1768,14,62,1
0.06590909090909491,1768,15,62,1
0.027272727272723785,1769,0,62,1
0.025000000000005684,1769,1,62,1
0.03636363636363171,1769,2,62,1
0.045454545454546746,1769,3,62,1
0.0022727272727252057,1769,4,62,1
0.10000000000000142,1769,5,62,1
0.05681818181817988,1769,6,62,1
0.01590909090909065,1769,7,62,1
0.03409090909091361,1769,8,62,1
0.04772727272727195,1769,9,62,1
0.10000000000000142,1769,10,62,1
0.05681818181817988,1769,11,62,1
0.03636363636363882,1769,12,62,1
0.004545454545457517,1769,13,62,1
0.06818181818182012,1769,14,62,1
0.02499999999999858,1769,15,62,1
0.10000000000000142,1770,0,62,1
0.06590909090909491,1770,1,62,1
0.10000000000000142,1770,2,62,1
0.06590909090908781,1770,3,62,1
0.10000000000000142,1770,4,62,1
0.02499999999999858,1770,5,62,1
0.056818181818186986,1770,6,62,1
0.015909090909097756,1770,7,62,1
0.01590909090909065,1770,8,62,1
0.03636363636363882,1770,9,62,1
0.045454545454546746,1770,10,62,1
0.01590909090909065,1770,11,62,1
0.06818181818182012,1770,12,62,1
0.025000000000005684,1770,13,62,1
0.02499999999999858,1770,14,62,1
0.02499999999999858,1770,15,62,1
0.01363636363635834,1771,0,62,1
0.02499999999999858,1771,1,62,1
0.01590909090909065,1771,2,62,1
0.045454545454546746,1771,3,62,1
0.0022727272727252057,1771,4,62,1
0.02499999999999858,1771,5,62,1
0.03636363636363882,1771,6,62,1
0.004545454545457517,1771,7,62,1
0.05681818181817988,1771,8,62,1
0.02499999999999858,1771,9,62,1
0.015909090909097756,1771,10,62,1
0.10000000000000142,1771,11,62,1
0.056818181818186986,1771,12,62,1
0.025000000000005684,1771,13,62,1
0.10000000000000142,1771,14,62,1
0.09999999999999432,1771,15,62,1
0.059090909090905086,1772,0,62,1
0.10000000000000142,1772,1,62,1
0.06818181818182012,1772,2,62,1
0.10000000000000142,1772,3,62,1
0.02499999999999858,1772,4,62,1
0.05909090909091219,1772,5,62,1
0.02499999999999858,1772,6,62,1
0.05681818181817988,1772,7,62,1
0.03636363636363882,1772,8,62,1
0.004545454545457517,1772,9,62,1
0.03636363636363882,1772,10,62,1
0.013636363636365445,1772,11,62,1
0.01590909090909065,1772,12,62,1
0.05681818181817988,1772,13,62,1
0.004545454545450411,1772,14,62,1
0.06818181818182012,1772,15,62,1
0.03636363636363882,1773,0,62,1
0.013636363636365445,1773,1,62,1
0.05681818181817988,1773,2,62,1
0.004545454545457517,1773,3,62,1
0.004545454545450411,1773,4,62,1
0.02499999999999858,1773,5,62,1
0.03636363636363882,1773,6,62,1
0.013636363636365445,1773,7,62,1
0.013636363636365445,1773,8,62,1
0.01590909090909065,1773,9,62,1
0.045454545454546746,1773,10,62,1
0.04772727272727906,1773,11,62,1
0.004545454545450411,1773,12,62,1
0.10000000000000142,1773,13,62,1
0.05681818181817988,1773,14,62,1
0.013636363636365445,1773,15,62,1
0.025000000000005684,1774,0,62,1
0.02499999999999858,1774,1,62,1
0.01590909090909065,1774,2,62,1
0.056818181818186986,1774,3,62,1
0.10000000000000142,1774,4,62,1
0.06818181818181301,1774,5,62,1
0.004545454545450411,1774,6,62,1
0.02499999999999858,1774,7,62,1
0.10000000000000142,1774,8,62,1
0.004545454545457517,1774,9,62,1
0.03636363636363882,1774,10,62,1
0.004545454545450411,1774,11,62,1
0.04545454545453964,1774,12,62,1
0.01590909090909065,1774,13,62,1
0.045454545454546746,1774,14,62,1
0.04772727272727195,1774,15,62,1
0.03409090909091361,1775,0,62,1
0.03636363636363171,1775,1,62,1
0.059090909090905086,1775,2,62,1
0.025000000000005684,1775,3,62,1
0.06818181818182012,1775,4,62,1
0.0022727272727252057,1775,5,62,1
0.02499999999999858,1775,6,62,1
0.059090909090905086,1775,7,62,1
0.03636363636363882,1775,8,62,1
0.09999999999999432,1775,9,62,1
0.06818181818181301,1775,10,62,1
0.10000000000000142,1775,11,62,1
0.05681818181817988,1775,12,62,1
0.01363636363635834,1775,13,62,1
0.03636363636363171,1775,14,62,1
0.04545454545453964,1775,15,62,1
0.04772727272727195,1776,0,62,1
0.01590909090909065,1776,1,62,1
0.10000000000000142,1776,2,62,1
0.05909090909091219,1776,3,62,1
0.01590909090909065,1776,4,62,1
0.025000000000005684,1776,5,62,1
0.05681818181817988,1776,6,62,1
0.01590909090909065,1776,7,62,1
0.03409090909090651,1776,8,62,1
0.004545454545450411,1776,9,62,1
0.03636363636363882,1776,10,62,1
0.004545454545457517,1776,11,62,1
0.06818181818182012,1776,12,62,1
0.02499999999999858,1776,13,62,1
0.10000000000000142,1776,14,62,1
0.059090909090905086,1776,15,62,1
0.027272727272723785,1777,0,62,1
0.10000000000000142,1777,1,62,1
0.03636363636363171,1777,2,62,1
0.05681818181817988,1777,3,62,1
0.02499999999999858,1777,4,62,1
0.02499999999999858,1777,5,62,1
0.004545454545450411,1777,6,62,1
0.056818181818186986,1777,7,62,1
0.013636363636365445,1777,8,62,1
0.059090909090905086,1777,9,62,1
0.0022727272727252057,1777,10,62,1
0.05909090909091219,1777,11,62,1
0.01590909090909065,1777,12,62,1
0.02499999999999858,1777,13,62,1
0.10000000000000142,1777,14,62,1
0.06818181818182012,1777,15,62,1
0.10000000000000142,1778,0,62,1
0.06818181818182012,1778,1,62,1
0.004545454545457517,1778,2,62,1
0.045454545454546746,1778,3,62,1
0.0022727272727252057,1778,4,62,1
0.03636363636363882,1778,5,62,1
0.056818181818186986,1778,6,62,1
0.004545454545450411,1778,7,62,1
0.05681818181817988,1778,8,62,1
0.01590909090909065,1778,9,62,1
0.10000000000000142,1778,10,62,1
0.05681818181817988,1778,11,62,1
0.10000000000000142,1778,12,62,1
0.045454545454546746,1778,13,62,1
0.04772727272727195,1778,14,62,1
0.04545454545453964,1778,15,62,1
0.10000000000000142,1779,0,62,1
0.025000000000005684,1779,1,62,1
0.03636363636363171,1779,2,62,1
0.004545454545450411,1779,3,62,1
0.10000000000000142,1779,4,62,1
0.05681818181817988,1779,5,62,1
0.10000000000000142,1779,6,62,1
0.05909090909091219,1779,7,62,1
0.004545454545457517,1779,8,62,1
0.02499999999999858,1779,9,62,1
0.05909090909091219,1779,10,62,1
0.013636363636365445,1779,11,62,1
0.10000000000000142,1779,12,62,1
0.025000000000005684,1779,13,62,1
0.05681818181817988,1779,14,62,1
0.03636363636363882,1779,15,62,1
0.004545454545457517,1780,0,62,1
0.004545454545457517,1780,1,62,1
0.013636363636365445,1780,2,62,1
0.059090909090905086,1780,3,62,1
0.027272727272723785,1780,4,62,1
0.03636363636363171,1780,5,62,1
0.025000000000005684,1780,6,62,1
0.025000000000005684,1780,7,62,1
0.02499999999999858,1780,8,62,1
0.045454545454546746,1780,9,62,1
0.01590909090909065,1780,10,62,1
0.06818181818182012,1780,11,62,1
0.025000000000005684,1780,12,62,1
0.025000000000005684,1780,13,62,1
0.013636363636365445,1780,14,62,1
0.01363636363635834,1780,15,62,1
0.004545454545450411,1781,0,62,1
0.04772727272727195,1781,1,62,1
0.0022727272727252057,1781,2,62,1
0.05909090909091219,1781,3,62,1
0.03636363636363882,1781,4,62,1
0.0022727272727252057,1781,5,62,1
0.013636363636365445,1781,6,62,1
0.04772727272727195,1781,7,62,1
0.004545454545450411,1781,8,62,1
0.002272727272732311,1781,9,62,1
0.03636363636363171,1781,10,62,1
0.10000000000000142,1781,11,62,1
0.03636363636363882,1781,12,62,1
0.004545454545457517,1781,13,62,1
0.004545454545457517,1781,14,62,1
0.05681818181817988,1781,15,62,1
0.10000000000000142,1782,0,62,1
0.06818181818182012,1782,1,62,1
0.01590909090909065,1782,2,62,1
0.03636363636363882,1782,3,62,1
0.10000000000000142,1782,4,62,1
0.045454545454546746,1782,5,62,1
0.002272727272732311,1782,6,62,1
0.025000000000005684,1782,7,62,1
0.01590909090909065,1782,8,62,1
0.01590909090909065,1782,9,62,1
0.03636363636363882,1782,10,62,1
0.013636363636365445,1782,11,62,1
0.04772727272727195,1782,12,62,1
0.02499999999999858,1782,13,62,1
0.004545454545450411,1782,14,62,1
0.025000000000005684,1782,15,62,1
0.09999999999999432,1783,0,62,1
0.03636363636363171,1783,1,62,1
0.05681818181817988,1783,2,62,1
0.03636363636363882,1783,3,62,1
0.004545454545450411,1783,4,62,1
0.04545454545453964,1783,5,62,1
0.03636363636363171,1783,6,62,1
0.059090909090905086,1783,7,62,1
0.02499999999999858,1783,8,62,1
0.02499999999999858,1783,9,62,1
0.01590909090909065,1783,10,62,1
0.01363636363635834,1783,11,62,1
0.013636363636365445,1783,12,62,1
0.004545454545450411,1783,13,62,1
0.045454545454546746,1783,14,62,1
0.04772727272727906,1783,15,62,1
0.01590909090909065,1784,0,62,1
0.02499999999999858,1784,1,62,1
0.01363636363635834,1784,2,62,1
0.01590909090909065,1784,3,62,1
0.02499999999999858,1784,4,62,1
0.025000000000005684,1784,5,62,1
0.01590909090909065,1784,6,62,1
0.02499999999999858,1784,7,62,1
0.004545454545457517,1784,8,62,1
0.045454545454546746,1784,9,62,1
0.03636363636363882,1784,10,62,1
0.004545454545457517,1784,11,62,1
0.10000000000000142,1784,12,62,1
0.06818181818182012,1784,13,62,1
0.03636363636363882,1784,14,62,1
0.013636363636365445,1784,15,62,1
0.06818181818182012,1785,0,62,1
0.01590909090909065,1785,1,62,1
0.045454545454546746,1785,2,62,1
0.004545454545457517,1785,3,62,1
0.0022727272727252057,1785,4,62,1
0.004545454545457517,1785,5,62,1
0.02499999999999858,1785,6,62,1
0.04772727272727195,1785,7,62,1
0.01590909090909065,1785,8,62,1
0.004545454545457517,1785,9,62,1
0.03409090909090651,1785,10,62,1
0.02727272727273089,1785,11,62,1
0.06590909090908781,1785,12,62,1
0.013636363636365445,1785,13,62,1
0.004545454545450411,1785,14,62,1
0.02499999999999858,1785,15,62,1
0.025000000000005684,1786,0,62,1
0.01590909090909065,1786,1,62,1
0.06818181818182012,1786,2,62,1
0.013636363636365445,1786,3,62,1
0.10000000000000142,1786,4,62,1
0.045454545454546746,1786,5,62,1
0.03636363636363882,1786,6,62,1
0.045454545454546746,1786,7,62,1
0.03636363636363882,1786,8,62,1
0.059090909090905086,1786,9,62,1
0.01363636363635834,1786,10,62,1
0.03636363636363171,1786,11,62,1
0.004545454545450411,1786,12,62,1
0.013636363636365445,1786,13,62,1
0.002272727272732311,1786,14,62,1
0.027272727272723785,1786,15,62,1
0.10000000000000142,1787,0,62,1
0.056818181818186986,1787,1,62,1
0.01590909090909065,1787,2,62,1
0.024999999999991473,1787,3,62,1
0.06818181818181301,1787,4,62,1
0.09999999999999432,1787,5,62,1
0.025000000000005684,1787,6,62,1
0.04772727272727195,1787,7,62,1
0.013636363636365445,1787,8,62,1
0.025000000000005684,1787,9,62,1
0.056818181818172775,1787,10,62,1
0.004545454545450411,1787,11,62,1
0.004545454545450411,1787,12,62,1
0.025000000000005684,1787,13,62,1
0.09999999999999432,1787,14,62,1
0.06818181818181301,1787,15,62,1
0.03636363636363171,1788,0,62,1
0.024999999999991473,1788,1,62,1
0.024999999999991473,1788,2,62,1
0.01590909090909065,1788,3,62,1
0.013636363636351234,1788,4,62,1
0.06818181818181301,1788,5,62,1
0.013636363636365445,1788,6,62,1
0.05909090909089798,1788,7,62,1
0.01590909090909065,1788,8,62,1
0.024999999999991473,1788,9,62,1
0.025000000000005684,1788,10,62,1
0.025000000000005684,1788,11,62,1
0.056818181818172775,1788,12,62,1
0.01590909090909065,1788,13,62,1
0.09999999999999432,1788,14,62,1
0.06818181818181301,1788,15,62,1
0.004545454545450411,1789,0,62,1
0.045454545454546746,1789,1,62,1
0.10000000000000853,1789,2,62,1
0.05909090909091219,1789,3,62,1
0.004545454545464622,1789,4,62,1
0.09999999999999432,1789,5,62,1
0.05909090909089798,1789,6,62,1
0.02727272727271668,1789,7,62,1
0.03409090909090651,1789,8,62,1
0.0022727272727252057,1789,9,62,1
0.10000000000000853,1789,10,62,1
0.056818181818186986,1789,11,62,1
0.013636363636365445,1789,12,62,1
0.025000000000005684,1789,13,62,1
0.09999999999999432,1789,14,62,1
0.10000000000000853,1789,15,62,1
0.036363636363645924,1790,0,62,1
0.036363636363645924,1790,1,62,1
0.025000000000005684,1790,2,62,1
0.025000000000005684,1790,3,62,1
0.09999999999999432,1790,4,62,1
0.0022727272727252057,1790,5,62,1
0.01590909090909065,1790,6,62,1
0.025000000000005684,1790,7,62,1
0.10000000000000853,1790,8,62,1
0.05909090909091219,1790,9,62,1
0.03636363636363171,1790,10,62,1
0.045454545454546746,1790,11,62,1
0.0022727272727394165,1790,12,62,1
0.01590909090909065,1790,13,62,1
0.025000000000005684,1790,14,62,1
0.024999999999991473,1790,15,62,1
0.02727272727273089,1791,0,62,1
0.0022727272727252057,1791,1,62,1
0.10000000000000853,1791,2,62,1
0.06818181818181301,1791,3,62,1
0.013636363636365445,1791,4,62,1
0.013636363636365445,1791,5,62,1
0.024999999999991473,1791,6,62,1
0.024999999999991473,1791,7,62,1
0.09999999999999432,1791,8,62,1
0.013636363636351234,1791,9,62,1
0.02727272727273089,1791,10,62,1
0.06590909090910202,1791,11,62,1
0.025000000000005684,1791,12,62,1
0.013636363636351234,1791,13,62,1
0.04772727272727195,1791,14,62,1
0.0022727272727252057,1791,15,62,1
0.04772727272728616,1792,0,62,1
0.004545454545464622,1792,1,62,1
0.036363636363645924,1792,2,62,1
0.004545454545464622,1792,3,62,1
0.013636363636365445,1792,4,62,1
0.04772727272727195,1792,5,62,1
0.09999999999999432,1792,6,62,1
0.03636363636363171,1792,7,62,1
0.004545454545450411,1792,8,62,1
0.024999999999991473,1792,9,62,1
0.09999999999999432,1792,10,62,1
0.09999999999999432,1792,11,62,1
0.06818181818181301,1792,12,62,1
0.03636363636363171,1792,13,62,1
0.024999999999991473,1792,14,62,1
0.03636363636363171,1792,15,62,1
0.013636363636365445,1793,0,62,1
0.06818181818182723,1793,1,62,1
0.025000000000005684,1793,2,62,1
0.025000000000005684,1793,3,62,1
0.025000000000005684,1793,4,62,1
0.01590909090909065,1793,5,62,1
0.024999999999991473,1793,6,62,1
0.025000000000005684,1793,7,62,1
0.01590909090909065,1793,8,62,1
0.013636363636365445,1793,9,62,1
0.025000000000005684,1793,10,62,1
0.03636363636363171,1793,11,62,1
0.013636363636365445,1793,12,62,1
0.004545454545450411,1793,13,62,1
0.024999999999991473,1793,14,62,1
0.056818181818172775,1793,15,62,1
0.025000000000005684,1794,0,62,1
0.01590909090909065,1794,1,62,1
0.056818181818172775,1794,2,62,1
0.024999999999991473,1794,3,62,1
0.025000000000005684,1794,4,62,1
0.01590909090909065,1794,5,62,1
0.056818181818172775,1794,6,62,1
0.024999999999991473,1794,7,62,1
0.025000000000005684,1794,8,62,1
0.025000000000005684,1794,9,62,1
0.056818181818186986,1794,10,62,1
0.013636363636365445,1794,11,62,1
0.01590909090909065,1794,12,62,1
0.01590909090909065,1794,13,62,1
0.024999999999991473,1794,14,62,1
0.056818181818172775,1794,15,62,1
0.01590909090909065,1795,0,62,1
0.013636363636365445,1795,1,62,1
0.06818181818181301,1795,2,62,1
0.013636363636365445,1795,3,62,1
0.02727272727273089,1795,4,62,1
0.056818181818172775,1795,5,62,1
0.024999999999991473,1795,6,62,1
0.056818181818186986,1795,7,62,1
0.025000000000005684,1795,8,62,1
0.025000000000005684,1795,9,62,1
0.024999999999991473,1795,10,62,1
0.09999999999999432,1795,11,62,1
0.056818181818172775,1795,12,62,1
0.004545454545450411,1795,13,62,1
0.01590909090909065,1795,14,62,1
0.025000000000005684,1795,15,62,1
0.024999999999991473,1796,0,62,1
0.01590909090909065,1796,1,62,1
0.06590909090910202,1796,2,62,1
0.03409090909092072,1796,3,62,1
0.0022727272727394165,1796,4,62,1
0.09999999999999432,1796,5,62,1
0.06590909090908781,1796,6,62,1
0.024999999999991473,1796,7,62,1
0.01590909090909065,1796,8,62,1
0.025000000000005684,1796,9,62,1
0.09999999999999432,1796,10,62,1
0.04772727272727195,1796,11,62,1
0.004545454545450411,1796,12,62,1
0.09999999999999432,1796,13,62,1
0.03636363636363171,1796,14,62,1
0.004545454545450411,1796,15,62,1
0.024999999999991473,1797,0,62,1
0.013636363636351234,1797,1,62,1
0.024999999999991473,1797,2,62,1
0.03636363636363171,1797,3,62,1
0.025000000000005684,1797,4,62,1
0.01590909090909065,1797,5,62,1
0.025000000000005684,1797,6,62,1
0.03409090909090651,1797,7,62,1
0.01590909090909065,1797,8,62,1
0.004545454545464622,1797,9,62,1
0.025000000000005684,1797,10,62,1
0.025000000000005684,1797,11,62,1
0.025000000000005684,1797,12,62,1
0.025000000000005684,1797,13,62,1
0.01590909090909065,1797,14,62,1
0.02727272727271668,1797,15,62,1
0.025000000000005684,1798,0,62,1
0.10000000000000853,1798,1,62,1
0.056818181818186986,1798,2,62,1
0.025000000000005684,1798,3,62,1
0.024999999999991473,1798,4,62,1
0.013636363636365445,1798,5,62,1
0.09999999999999432,1798,6,62,1
0.10000000000000853,1798,7,62,1
0.01590909090909065,1798,8,62,1
0.03636363636363171,1798,9,62,1
0.0022727272727252057,1798,10,62,1
0.004545454545464622,1798,11,62,1
0.04772727272727195,1798,12,62,1
0.013636363636365445,1798,13,62,1
0.056818181818186986,1798,14,62,1
0.01590909090909065,1798,15,62,1
0.06818181818182723,1799,0,62,1
0.10000000000000853,1799,1,62,1
0.06590909090910202,1799,2,62,1
0.025000000000005684,1799,3,62,1
0.09999999999999432,1799,4,62,1
0.056818181818186986,1799,5,62,1
0.025000000000005684,1799,6,62,1
0.01590909090909065,1799,7,62,1
0.06818181818181301,1799,8,62,1
0.025000000000005684,1799,9,62,1
0.025000000000005684,1799,10,62,1
0.09999999999999432,1799,11,62,1
0.024999999999991473,1799,12,62,1
0.02727272727273089,1799,13,62,1
0.06590909090908781,1799,14,62,1
0.0022727272727252057,1799,15,62,1
0.09999999999999432,1800,0,62,1
0.02727272727273089,1800,1,62,1
0.025000000000005684,1800,2,62,1
0.056818181818172775,1800,3,62,1
0.004545454545450411,1800,4,62,1
0.06818181818181301,1800,5,62,1
0.03409090909090651,1800,6,62,1
0.024999999999991473,1800,7,62,1
0.01590909090909065,1800,8,62,1
0.025000000000005684,1800,9,62,1
0.004545454545450411,1800,10,62,1
0.045454545454546746,1800,11,62,1
0.04772727272727195,1800,12,62,1
0.004545454545464622,1800,13,62,1
0.045454545454546746,1800,14,62,1
0.03636363636363171,1800,15,62,1
0.09999999999999432,1801,0,62,1
0.024999999999991473,1801,1,62,1
0.025000000000005684,1801,2,62,1
0.06818181818181301,1801,3,62,1
0.01590909090909065,1801,4,62,1
0.01590909090909065,1801,5,62,1
0.024999999999991473,1801,6,62,1
0.024999999999991473,1801,7,62,1
0.10000000000000853,1801,8,62,1
0.056818181818186986,1801,9,62,1
0.01590909090909065,1801,10,62,1
0.09999999999999432,1801,11,62,1
0.056818181818186986,1801,12,62,1
0.025000000000005684,1801,13,62,1
0.013636363636365445,1801,14,62,1
0.004545454545464622,1801,15,62,1
0.024999999999991473,1802,0,62,1
0.0022727272727252057,1802,1,62,1
0.056818181818186986,1802,2,62,1
0.025000000000005684,1802,3,62,1
0.02727272727273089,1802,4,62,1
0.01590909090909065,1802,5,62,1
0.10000000000000853,1802,6,62,1
0.056818181818186986,1802,7,62,1
0.01590909090909065,1802,8,62,1
0.024999999999991473,1802,9,62,1
0.06818181818181301,1802,10,62,1
0.03636363636363171,1802,11,62,1
0.10000000000000853,1802,12,62,1
0.06818181818182723,1802,13,62,1
0.025000000000005684,1802,14,62,1
0.025000000000005684,1802,15,62,1
0.024999999999991473,1803,0,62,1
0.013636363636365445,1803,1,62,1
0.01590909090909065,1803,2,62,1
0.013636363636365445,1803,3,62,1
0.01590909090909065,1803,4,62,1
0.045454545454546746,1803,5,62,1
0.04772727272727195,1803,6,62,1
0.01590909090909065,1803,7,62,1
0.013636363636351234,1803,8,62,1
0.0022727272727252057,1803,9,62,1
0.004545454545450411,1803,10,62,1
0.01590909090909065,1803,11,62,1
0.10000000000000853,1803,12,62,1
0.06818181818182723,1803,13,62,1
0.025000000000005684,1803,14,62,1
0.024999999999991473,1803,15,62,1
0.05909090909091219,1804,0,62,1
0.09999999999999432,1804,1,62,1
0.05909090909091219,1804,2,62,1
0.024999999999991473,1804,3,62,1
0.025000000000005684,1804,4,62,1
0.02727272727273089,1804,5,62,1
0.013636363636365445,1804,6,62,1
0.056818181818172775,1804,7,62,1
0.024999999999991473,1804,8,62,1
0.09999999999999432,1804,9,62,1
0.056818181818172775,1804,10,62,1
0.09999999999999432,1804,11,62,1
0.09999999999999432,1804,12,62,1
0.03636363636363171,1804,13,62,1
0.045454545454546746,1804,14,62,1
0.013636363636365445,1804,15,62,1
0.10000000000000853,1805,0,62,1
0.056818181818186986,1805,1,62,1
0.025000000000005684,1805,2,62,1
0.09999999999999432,1805,3,62,1
0.06818181818181301,1805,4,62,1
0.025000000000005684,1805,5,62,1
0.013636363636365445,1805,6,62,1
0.09999999999999432,1805,7,62,1
0.03636363636363171,1805,8,62,1
0.056818181818186986,1805,9,62,1
0.0022727272727252057,1805,10,62,1
0.10000000000000853,1805,11,62,1
0.056818181818186986,1805,12,62,1
0.09999999999999432,1805,13,62,1
0.05909090909091219,1805,14,62,1
0.02727272727273089,1805,15,62,1
0.0022727272727252057,1806,0,62,1
0.06818181818181301,1806,1,62,1
0.09999999999999432,1806,2,62,1
0.056818181818172775,1806,3,62,1
0.013636363636351234,1806,4,62,1
0.024999999999991473,1806,5,62,1
0.004545454545450411,1806,6,62,1
0.004545454545450411,1806,7,62,1
0.10000000000000853,1806,8,62,1
0.056818181818186986,1806,9,62,1
0.025000000000005684,1806,10,62,1
0.02727272727271668,1806,11,62,1
0.025000000000005684,1806,12,62,1
0.0022727272727252057,1806,13,62,1
0.03636363636363171,1806,14,62,1
0.024999999999991473,1806,15,62,1
0.01590909090909065,1807,0,62,1
0.06818181818182723,1807,1,62,1
0.025000000000005684,1807,2,62,1
0.09999999999999432,1807,3,62,1
0.09999999999999432,1807,4,62,1
0.056818181818172775,1807,5,62,1
0.013636363636351234,1807,6,62,1
0.013636363636365445,1807,7,62,1
0.036363636363645924,1807,8,62,1
0.004545454545464622,1807,9,62,1
0.036363636363645924,1807,10,62,1
0.004545454545464622,1807,11,62,1
0.004545454545450411,1807,12,62,1
0.013636363636365445,1807,13,62,1
0.06818181818181301,1807,14,62,1
0.004545454545450411,1807,15,62,1
0.10000000000000853,1808,0,62,1
0.045454545454546746,1808,1,62,1
0.004545454545450411,1808,2,62,1
0.03636363636363171,1808,3,62,1
0.03636363636363171,1808,4,62,1
0.056818181818186986,1808,5,62,1
0.013636363636365445,1808,6,62,1
0.024999999999991473,1808,7,62,1
0.025000000000005684,1808,8,62,1
0.025000000000005684,1808,9,62,1
0.06818181818182723,1808,10,62,1
0.01590909090909065,1808,11,62,1
0.10000000000000853,1808,12,62,1
0.04772727272727195,1808,13,62,1
0.013636363636365445,1808,14,62,1
0.06818181818181301,1808,15,62,1
0.004545454545464622,1809,0,62,1
0.056818181818186986,1809,1,62,1
0.025000000000005684,1809,2,62,1
0.024999999999991473,1809,3,62,1
0.09999999999999432,1809,4,62,1
0.03636363636363171,1809,5,62,1
0.03636363636363171,1809,6,62,1
0.045454545454546746,1809,7,62,1
0.01590909090909065,1809,8,62,1
0.045454545454546746,1809,9,62,1
0.0022727272727252057,1809,10,62,1
0.02727272727271668,1809,11,62,1
0.056818181818186986,1809,12,62,1
0.013636363636365445,1809,13,62,1
0.025000000000005684,1809,14,62,1
0.04772727272727195,1809,15,62,1
0.004545454545450411,1810,0,62,1
0.024999999999991473,1810,1,62,1
0.06818181818181301,1810,2,62,1
0.024999999999991473,1810,3,62,1
0.013636363636365445,1810,4,62,1
0.02727272727273089,1810,5,62,1
0.056818181818172775,1810,6,62,1
0.024999999999991473,1810,7,62,1
0.056818181818186986,1810,8,62,1
0.013636363636365445,1810,9,62,1
0.01590909090909065,1810,10,62,1
0.09999999999999432,1810,11,62,1
0.025000000000005684,1810,12,62,1
0.056818181818186986,1810,13,62,1
0.004545454545464622,1810,14,62,1
0.045454545454546746,1810,15,62,1
0.10000000000000853,1811,0,62,1
0.06818181818182723,1811,1,62,1
0.013636363636365445,1811,2,62,1
0.013636363636365445,1811,3,62,1
0.024999999999991473,1811,4,62,1
0.004545454545450411,1811,5,62,1
0.01590909090909065,1811,6,62,1
0.03636363636363171,1811,7,62,1
0.004545454545450411,1811,8,62,1
0.024999999999991473,1811,9,62,1
0.09999999999999432,1811,10,62,1
0.06590909090908781,1811,11,62,1
0.01590909090909065,1811,12,62,1
0.06818181818181301,1811,13,62,1
0.013636363636365445,1811,14,62,1
0.013636363636365445,1811,15,62,1
0.024999999999991473,1812,0,62,1
0.02727272727273089,1812,1,62,1
0.056818181818186986,1812,2,62,1
0.013636363636365445,1812,3,62,1
0.024999999999991473,1812,4,62,1
0.06818181818181301,1812,5,62,1
0.03636363636363171,1812,6,62,1
0.004545454545450411,1812,7,62,1
0.004545454545450411,1812,8,62,1
0.024999999999991473,1812,9,62,1
0.09999999999999432,1812,10,62,1
0.045454545454546746,1812,11,62,1
0.04772727272727195,1812,12,62,1
0.004545454545464622,1812,13,62,1
0.004545454545450411,1812,14,62,1
0.013636363636365445,1812,15,62,1
0.024999999999991473,1813,0,62,1
0.02727272727271668,1813,1,62,1
0.10000000000000853,1813,2,62,1
0.04772727272727195,1813,3,62,1
0.045454545454546746,1813,4,62,1
0.013636363636365445,1813,5,62,1
0.09999999999999432,1813,6,62,1
0.05909090909091219,1813,7,62,1
0.025000000000005684,1813,8,62,1
0.10000000000000853,1813,9,62,1
0.06818181818182723,1813,10,62,1
0.036363636363645924,1813,11,62,1
0.025000000000005684,1813,12,62,1
0.01590909090909065,1813,13,62,1
0.10000000000000853,1813,14,62,1
0.056818181818186986,1813,15,62,1
0.025000000000005684,1814,0,62,1
0.025000000000005684,1814,1,62,1
0.09999999999999432,1814,2,62,1
0.06818181818181301,1814,3,62,1
0.01590909090909065,1814,4,62,1
0.004545454545464622,1814,5,62,1
0.056818181818186986,1814,6,62,1
0.0022727272727252057,1814,7,62,1
0.0022727272727394165,1814,8,62,1
0.01590909090909065,1814,9,62,1
0.01590909090909065,1814,10,62,1
0.024999999999991473,1814,11,62,1
0.056818181818186986,1814,12,62,1
0.025000000000005684,1814,13,62,1
0.025000000000005684,1814,14,62,1
0.01590909090909065,1814,15,62,1
0.09999999999999432,1815,0,62,1
0.03636363636363171,1815,1,62,1
0.045454545454546746,1815,2,62,1
0.013636363636365445,1815,3,62,1
0.025000000000005684,1815,4,62,1
0.056818181818172775,1815,5,62,1
0.004545454545450411,1815,6,62,1
0.045454545454546746,1815,7,62,1
0.013636363636365445,1815,8,62,1
0.10000000000000853,1815,9,62,1
0.05909090909091219,1815,10,62,1
0.013636363636351234,1815,11,62,1
0.06818181818181301,1815,12,62,1
0.10000000000000853,1815,13,62,1
0.01590909090909065,1815,14,62,1
0.03636363636363171,1815,15,62,1
0.025000000000005684,1816,0,62,1
0.013636363636365445,1816,1,62,1
0.04772727272727195,1816,2,62,1
0.01590909090909065,1816,3,62,1
0.036363636363645924,1816,4,62,1
0.013636363636365445,1816,5,62,1
0.056818181818172775,1816,6,62,1
0.024999999999991473,1816,7,62,1
0.024999999999991473,1816,8,62,1
0.03636363636363171,1816,9,62,1
0.10000000000000853,1816,10,62,1
0.02727272727273089,1816,11,62,1
0.06590909090910202,1816,12,62,1
0.013636363636365445,1816,13,62,1
0.013636363636365445,1816,14,62,1
0.05909090909091219,1816,15,62,1
0.004545454545464622,1817,0,62,1
0.04772727272727195,1817,1,62,1
0.01590909090909065,1817,2,62,1
0.013636363636365445,1817,3,62,1
0.013636363636365445,1817,4,62,1
0.025000000000005684,1817,5,62,1
0.056818181818172775,1817,6,62,1
0.01590909090909065,1817,7,62,1
0.056818181818186986,1817,8,62,1
0.004545454545464622,1817,9,62,1
0.10000000000000853,1817,10,62,1
0.056818181818186986,1817,11,62,1
0.03636363636363171,1817,12,62,1
0.004545454545450411,1817,13,62,1
0.03409090909090651,1817,14,62,1
0.024999999999991473,1817,15,62,1
0.024999999999991473,1818,0,62,1
0.013636363636365445,1818,1,62,1
0.05909090909091219,1818,2,62,1
0.01590909090909065,1818,3,62,1
0.024999999999991473,1818,4,62,1
0.03636363636363171,1818,5,62,1
0.025000000000005684,1818,6,62,1
0.025000000000005684,1818,7,62,1
0.004545454545464622,1818,8,62,1
0.056818181818186986,1818,9,62,1
0.09999999999999432,1818,10,62,1
0.056818181818172775,1818,11,62,1
0.013636363636351234,1818,12,62,1
0.01590909090909065,1818,13,62,1
0.056818181818172775,1818,14,62,1
0.013636363636365445,1818,15,62,1
0.06818181818182723,1819,0,62,1
0.02727272727273089,1819,1,62,1
0.004545454545464622,1819,2,62,1
0.004545454545450411,1819,3,62,1
0.004545454545450411,1819,4,62,1
0.056818181818186986,1819,5,62,1
0.013636363636365445,1819,6,62,1
0.01590909090909065,1819,7,62,1
0.03409090909090651,1819,8,62,1
0.0022727272727252057,1819,9,62,1
0.03636363636363171,1819,10,62,1
0.01590909090909065,1819,11,62,1
0.025000000000005684,1819,12,62,1
0.056818181818172775,1819,13,62,1
0.013636363636351234,1819,14,62,1
0.01590909090909065,1819,15,62,1
0.01590909090909065,1820,0,62,1
0.03636363636363171,1820,1,62,1
0.09999999999999432,1820,2,62,1
0.04772727272727195,1820,3,62,1
0.013636363636365445,1820,4,62,1
0.04772727272727195,1820,5,62,1
0.004545454545450411,1820,6,62,1
0.024999999999991473,1820,7,62,1
0.013636363636365445,1820,8,62,1
0.03636363636363171,1820,9,62,1
0.004545454545450411,1820,10,62,1
0.025000000000005684,1820,11,62,1
0.056818181818172775,1820,12,62,1
0.013636363636351234,1820,13,62,1
0.03636363636363171,1820,14,62,1
0.025000000000005684,1820,15,62,1
0.06818181818182723,1821,0,62,1
0.01590909090909065,1821,1,62,1
0.01590909090909065,1821,2,62,1
0.024999999999991473,1821,3,62,1
0.024999999999991473,1821,4,62,1
0.03636363636363171,1821,5,62,1
0.025000000000005684,1821,6,62,1
0.025000000000005684,1821,7,62,1
0.036363636363645924,1821,8,62,1
0.004545454545450411,1821,9,62,1
0.056818181818186986,1821,10,62,1
0.025000000000005684,1821,11,62,1
0.013636363636365445,1821,12,62,1
0.06818181818181301,1821,13,62,1
0.01590909090909065,1821,14,62,1
0.045454545454546746,1821,15,62,1
0.004545454545450411,1822,0,62,1
0.09999999999999432,1822,1,62,1
0.04772727272727195,1822,2,62,1
0.01590909090909065,1822,3,62,1
0.025000000000005684,1822,4,62,1
0.025000000000005684,1822,5,62,1
0.024999999999991473,1822,6,62,1
0.013636363636365445,1822,7,62,1
0.013636363636365445,1822,8,62,1
0.01590909090909065,1822,9,62,1
0.01590909090909065,1822,10,62,1
0.0022727272727252057,1822,11,62,1
0.04772727272728616,1822,12,62,1
0.025000000000005684,1822,13,62,1
0.036363636363645924,1822,14,62,1
0.004545454545464622,1822,15,62,1
0.013636363636365445,1823,0,62,1
0.01590909090909065,1823,1,62,1
0.045454545454546746,1823,2,62,1
0.04772727272727195,1823,3,62,1
0.013636363636365445,1823,4,62,1
0.025000000000005684,1823,5,62,1
0.01590909090909065,1823,6,62,1
0.024999999999991473,1823,7,62,1
0.024999999999991473,1823,8,62,1
0.10000000000000853,1823,9,62,1
0.05909090909091219,1823,10,62,1
0.025000000000005684,1823,11,62,1
0.02727272727271668,1823,12,62,1
0.013636363636365445,1823,13,62,1
0.025000000000005684,1823,14,62,1
0.06818181818181301,1823,15,62,1
0.01590909090909065,1824,0,62,1
0.09999999999999432,1824,1,62,1
0.004545454545450411,1824,2,62,1
0.056818181818172775,1824,3,62,1
0.004545454545450411,1824,4,62,1
0.013636363636365445,1824,5,62,1
0.02727272727273089,1824,6,62,1
0.013636363636365445,1824,7,62,1
0.06818181818181301,1824,8,62,1
0.03636363636363171,1824,9,62,1
0.09999999999999432,1824,10,62,1
0.03409090909090651,1824,11,62,1
0.05909090909089798,1824,12,62,1
0.0022727272727252057,1824,13,62,1
0.04772727272727195,1824,14,62,1
0.01590909090909065,1824,15,62,1
0.025000000000005684,1825,0,62,1
0.056818181818172775,1825,1,62,1
0.004545454545450411,1825,2,62,1
0.01590909090909065,1825,3,62,1
0.013636363636351234,1825,4,62,1
0.04772727272727195,1825,5,62,1
0.01590909090909065,1825,6,62,1
0.024999999999991473,1825,7,62,1
0.013636363636351234,1825,8,62,1
0.03636363636363171,1825,9,62,1
0.004545454545450411,1825,10,62,1
0.025000000000005684,1825,11,62,1
0.025000000000005684,1825,12,62,1
0.056818181818186986,1825,13,62,1
0.03636363636363171,1825,14,62,1
0.01590909090909065,1825,15,62,1
0.045454545454546746,1826,0,62,1
0.013636363636365445,1826,1,62,1
0.01590909090909065,1826,2,62,1
0.056818181818186986,1826,3,62,1
0.03636363636363171,1826,4,62,1
0.09999999999999432,1826,5,62,1
0.04772727272727195,1826,6,62,1
0.013636363636351234,1826,7,62,1
0.056818181818186986,1826,8,62,1
0.025000000000005684,1826,9,62,1
0.05909090909091219,1826,10,62,1
0.01590909090909065,1826,11,62,1
0.03636363636363171,1826,12,62,1
0.013636363636365445,1826,13,62,1
0.056818181818186986,1826,14,62,1
0.004545454545464622,1826,15,62,1
0.013636363636365445,1827,0,62,1
0.05909090909091219,1827,1,62,1
0.02727272727273089,1827,2,62,1
0.10000000000000853,1827,3,62,1
0.045454545454546746,1827,4,62,1
0.013636363636365445,1827,5,62,1
0.024999999999991473,1827,6,62,1
0.056818181818186986,1827,7,62,1
0.01590909090909065,1827,8,62,1
0.024999999999991473,1827,9,62,1
0.03636363636363171,1827,10,62,1
0.025000000000005684,1827,11,62,1
0.04772727272727195,1827,12,62,1
0.013636363636365445,1827,13,62,1
0.04772727272727195,1827,14,62,1
0.013636363636365445,1827,15,62,1
0.04772727272727195,1828,0,62,1
0.013636363636365445,1828,1,62,1
0.013636363636351234,1828,2,62,1
0.05909090909091219,1828,3,62,1
0.0022727272727394165,1828,4,62,1
0.09999999999999432,1828,5,62,1
0.004545454545450411,1828,6,62,1
0.06590909090908781,1828,7,62,1
0.03409090909090651,1828,8,62,1
0.0022727272727252057,1828,9,62,1
0.10000000000000853,1828,10,62,1
0.056818181818186986,1828,11,62,1
0.10000000000000853,1828,12,62,1
0.036363636363645924,1828,13,62,1
0.03409090909090651,1828,14,62,1
0.10000000000000853,1828,15,62,1
0.03409090909090651,1829,0,62,1
0.03636363636363171,1829,1,62,1
0.025000000000005684,1829,2,62,1
0.02727272727273089,1829,3,62,1
0.024999999999991473,1829,4,62,1
0.03636363636363171,1829,5,62,1
0.0022727272727252057,1829,6,62,1
0.03409090909090651,1829,7,62,1
0.02727272727273089,1829,8,62,1
0.004545454545464622,1829,9,62,1
0.09999999999999432,1829,10,62,1
0.004545454545450411,1829,11,62,1
0.036363636363645924,1829,12,62,1
0.004545454545464622,1829,13,62,1
0.0022727272727252057,1829,14,62,1
0.02727272727273089,1829,15,62,1
0.056818181818186986,1830,0,62,1
0.025000000000005684,1830,1,62,1
0.004545454545450411,1830,2,62,1
0.10000000000000853,1830,3,62,1
0.01590909090909065,1830,4,62,1
0.056818181818172775,1830,5,62,1
0.024999999999991473,1830,6,62,1
0.025000000000005684,1830,7,62,1
0.013636363636365445,1830,8,62,1
0.01590909090909065,1830,9,62,1
0.01590909090909065,1830,10,62,1
0.013636363636365445,1830,11,62,1
0.025000000000005684,1830,12,62,1
0.025000000000005684,1830,13,62,1
0.004545454545464622,1830,14,62,1
0.025000000000005684,1830,15,62,1
0.025000000000005684,1831,0,62,1
0.04772727272727195,1831,1,62,1
0.045454545454546746,1831,2,62,1
0.04772727272727195,1831,3,62,1
0.013636363636365445,1831,4,62,1
0.025000000000005684,1831,5,62,1
0.024999999999991473,1831,6,62,1
0.056818181818172775,1831,7,62,1
0.03636363636363171,1831,8,62,1
0.004545454545450411,1831,9,62,1
0.03636363636363171,1831,10,62,1
0.025000000000005684,1831,11,62,1
0.10000000000000853,1831,12,62,1
0.056818181818186986,1831,13,62,1
0.004545454545450411,1831,14,62,1
0.004545454545464622,1831,15,62,1
0.09999999999999432,1832,0,62,1
0.05909090909091219,1832,1,62,1
0.025000000000005684,1832,2,62,1
0.056818181818172775,1832,3,62,1
0.013636363636365445,1832,4,62,1
0.025000000000005684,1832,5,62,1
0.05909090909091219,1832,6,62,1
0.013636363636365445,1832,7,62,1
0.025000000000005684,1832,8,62,1
0.036363636363645924,1832,9,62,1
0.04772727272727195,1832,10,62,1
0.004545454545464622,1832,11,62,1
0.013636363636365445,1832,12,62,1
0.025000000000005684,1832,13,62,1
0.004545454545464622,1832,14,62,1
0.036363636363645924,1832,15,62,1
0.045454545454546746,1833,0,62,1
0.10000000000000853,1833,1,62,1
0.09999999999999432,1833,2,62,1
0.06818181818181301,1833,3,62,1
0.024999999999991473,1833,4,62,1
0.004545454545450411,1833,5,62,1
0.056818181818172775,1833,6,62,1
0.03636363636363171,1833,7,62,1
0.004545454545450411,1833,8,62,1
0.013636363636365445,1833,9,62,1
0.013636363636365445,1833,10,62,1
0.025000000000005684,1833,11,62,1
0.05909090909089798,1833,12,62,1
0.02727272727271668,1833,13,62,1
0.013636363636365445,1833,14,62,1
0.013636363636365445,1833,15,62,1
0.01590909090909065,1834,0,62,1
0.045454545454532536,1834,1,62,1
0.013636363636351234,1834,2,62,1
0.09999999999999432,1834,3,62,1
0.06818181818181301,1834,4,62,1
0.09999999999999432,1834,5,62,1
0.0022727272727252057,1834,6,62,1
0.06818181818182723,1834,7,62,1
0.02727272727273089,1834,8,62,1
0.024999999999991473,1834,9,62,1
0.03636363636363171,1834,10,62,1
0.0022727272727252057,1834,11,62,1
0.025000000000005684,1834,12,62,1
0.025000000000005684,1834,13,62,1
0.056818181818186986,1834,14,62,1
0.013636363636365445,1834,15,62,1
0.004545454545450411,1835,0,62,1
0.004545454545450411,1835,1,62,1
0.024999999999991473,1835,2,62,1
0.056818181818186986,1835,3,62,1
0.10000000000000853,1835,4,62,1
0.05909090909091219,1835,5,62,1
0.10000000000000853,1835,6,62,1
0.04772727272727195,1835,7,62,1
0.03636363636363171,1835,8,62,1
0.045454545454546746,1835,9,62,1
0.036363636363645924,1835,10,62,1
0.025000000000005684,1835,11,62,1
0.03636363636363171,1835,12,62,1
0.056818181818172775,1835,13,62,1
0.03636363636363171,1835,14,62,1
0.004545454545450411,1835,15,62,1
0.004545454545450411,1836,0,62,1
0.024999999999991473,1836,1,62,1
0.04772727272727195,1836,2,62,1
0.045454545454546746,1836,3,62,1
0.0022727272727394165,1836,4,62,1
0.025000000000005684,1836,5,62,1
0.03636363636363171,1836,6,62,1
0.004545454545450411,1836,7,62,1
0.04772727272727195,1836,8,62,1
0.01590909090909065,1836,9,62,1
0.09999999999999432,1836,10,62,1
0.06818181818181301,1836,11,62,1
0.013636363636365445,1836,12,62,1
0.03636363636363171,1836,13,62,1
0.056818181818186986,1836,14,62,1
0.024999999999991473,1836,15,62,1
0.05909090909091219,1837,0,62,1
0.09999999999999432,1837,1,62,1
0.04772727272727195,1837,2,62,1
0.01590909090909065,1837,3,62,1
0.013636363636351234,1837,4,62,1
0.06818181818181301,1837,5,62,1
0.025000000000005684,1837,6,62,1
0.09999999999999432,1837,7,62,1
0.045454545454546746,1837,8,62,1
0.04772727272727195,1837,9,62,1
0.045454545454546746,1837,10,62,1
0.03636363636363171,1837,11,62,1
0.04772727272727195,1837,12,62,1
0.03636363636363171,1837,13,62,1
0.056818181818186986,1837,14,62,1
0.013636363636365445,1837,15,62,1
0.013636363636365445,1838,0,62,1
0.024999999999991473,1838,1,62,1
0.02727272727273089,1838,2,62,1
0.06818181818182723,1838,3,62,1
0.0022727272727252057,1838,4,62,1
0.05909090909091219,1838,5,62,1
0.01590909090909065,1838,6,62,1
0.013636363636351234,1838,7,62,1
0.06818181818181301,1838,8,62,1
0.025000000000005684,1838,9,62,1
0.01590909090909065,1838,10,62,1
0.03409090909090651,1838,11,62,1
0.0022727272727252057,1838,12,62,1
0.02727272727273089,1838,13,62,1
0.004545454545464622,1838,14,62,1
0.01590909090909065,1838,15,62,1
0.06590909090908781,1839,0,62,1
0.025000000000005684,1839,1,62,1
0.01590909090909065,1839,2,62,1
0.025000000000005684,1839,3,62,1
0.10000000000000853,1839,4,62,1
0.06818181818182723,1839,5,62,1
0.036363636363645924,1839,6,62,1
0.013636363636365445,1839,7,62,1
0.013636363636365445,1839,8,62,1
0.01590909090909065,1839,9,62,1
0.013636363636365445,1839,10,62,1
0.03409090909092072,1839,11,62,1
0.01590909090909065,1839,12,62,1
0.09999999999999432,1839,13,62,1
0.03636363636363171,1839,14,62,1
0.056818181818186986,1839,15,62,1
0.025000000000005684,1840,0,62,1
0.036363636363645924,1840,1,62,1
0.004545454545450411,1840,2,62,1
0.056818181818186986,1840,3,62,1
0.0022727272727252057,1840,4,62,1
0.01590909090909065,1840,5,62,1
0.045454545454546746,1840,6,62,1
0.01590909090909065,1840,7,62,1
0.03636363636363171,1840,8,62,1
0.056818181818186986,1840,9,62,1
0.013636363636365445,1840,10,62,1
0.05909090909091219,1840,11,62,1
0.024999999999991473,1840,12,62,1
0.09999999999999432,1840,13,62,1
0.06818181818181301,1840,14,62,1
0.09999999999999432,1840,15,62,1
0.056818181818186986,1841,0,62,1
0.025000000000005684,1841,1,62,1
0.04772727272728616,1841,2,62,1
0.004545454545464622,1841,3,62,1
0.025000000000005684,1841,4,62,1
0.036363636363645924,1841,5,62,1
0.025000000000005684,1841,6,62,1
0.056818181818186986,1841,7,62,1
0.09999999999999432,1841,8,62,1
0.06818181818181301,1841,9,62,1
0.024999999999991473,1841,10,62,1
0.013636363636351234,1841,11,62,1
0.004545454545450411,1841,12,62,1
0.004545454545450411,1841,13,62,1
0.013636363636365445,1841,14,62,1
0.025000000000005684,1841,15,62,1
0.05909090909091219,1842,0,62,1
0.01590909090909065,1842,1,62,1
0.03636363636363171,1842,2,62,1
0.056818181818186986,1842,3,62,1
0.024999999999991473,1842,4,62,1
0.025000000000005684,1842,5,62,1
0.025000000000005684,1842,6,62,1
0.004545454545464622,1842,7,62,1
0.045454545454546746,1842,8,62,1
0.004545454545450411,1842,9,62,1
0.024999999999991473,1842,10,62,1
0.024999999999991473,1842,11,62,1
0.05909090909091219,1842,12,62,1
0.01590909090909065,1842,13,62,1
0.013636363636365445,1842,14,62,1
0.013636363636351234,1842,15,62,1
0.025000000000005684,1843,0,62,1
0.06818181818182723,1843,1,62,1
0.004545454545464622,1843,2,62,1
0.04772727272727195,1843,3,62,1
0.0022727272727252057,1843,4,62,1
0.024999999999991473,1843,5,62,1
0.02727272727271668,1843,6,62,1
0.045454545454546746,1843,7,62,1
0.01590909090909065,1843,8,62,1
0.025000000000005684,1843,9,62,1
0.056818181818186986,1843,10,62,1
0.013636363636365445,1843,11,62,1
0.004545454545450411,1843,12,62,1
0.09999999999999432,1843,13,62,1
0.10000000000000853,1843,14,62,1
0.06818181818182723,1843,15,62,1
0.004545454545450411,1844,0,62,1
0.06818181818181301,1844,1,62,1
0.004545454545450411,1844,2,62,1
0.045454545454546746,1844,3,62,1
0.0022727272727252057,1844,4,62,1
0.025000000000005684,1844,5,62,1
0.02727272727271668,1844,6,62,1
0.01590909090909065,1844,7,62,1
0.025000000000005684,1844,8,62,1
0.025000000000005684,1844,9,62,1
0.013636363636365445,1844,10,62,1
0.025000000000005684,1844,11,62,1
0.024999999999991473,1844,12,62,1
0.013636363636351234,1844,13,62,1
0.01590909090909065,1844,14,62,1
0.02727272727273089,1844,15,62,1
0.013636363636365445,1845,0,62,1
0.013636363636365445,1845,1,62,1
0.025000000000005684,1845,2,62,1
0.01590909090909065,1845,3,62,1
0.025000000000005684,1845,4,62,1
0.03409090909090651,1845,5,62,1
0.02727272727273089,1845,6,62,1
0.024999999999991473,1845,7,62,1
0.03636363636363171,1845,8,62,1
0.056818181818172775,1845,9,62,1
0.10000000000000853,1845,10,62,1
0.056818181818186986,1845,11,62,1
0.025000000000005684,1845,12,62,1
0.056818181818172775,1845,13,62,1
0.01590909090909065,1845,14,62,1
0.09999999999999432,1845,15,62,1
0.06818181818181301,1846,0,62,1
0.024999999999991473,1846,1,62,1
0.013636363636365445,1846,2,62,1
0.01590909090909065,1846,3,62,1
0.01590909090909065,1846,4,62,1
0.024999999999991473,1846,5,62,1
0.024999999999991473,1846,6,62,1
0.013636363636365445,1846,7,62,1
0.01590909090909065,1846,8,62,1
0.03409090909090651,1846,9,62,1
0.0022727272727252057,1846,10,62,1
0.036363636363645924,1846,11,62,1
0.025000000000005684,1846,12,62,1
0.01590909090909065,1846,13,62,1
0.01590909090909065,1846,14,62,1
0.0022727272727252057,1846,15,62,1
0.09999999999999432,1847,0,62,1
0.05909090909091219,1847,1,62,1
0.01590909090909065,1847,2,62,1
0.0022727272727252057,1847,3,62,1
0.004545454545464622,1847,4,62,1
0.01590909090909065,1847,5,62,1
0.025000000000005684,1847,6,62,1
0.024999999999991473,1847,7,62,1
0.013636363636351234,1847,8,62,1
0.01590909090909065,1847,9,62,1
0.01590909090909065,1847,10,62,1
0.025000000000005684,1847,11,62,1
0.013636363636351234,1847,12,62,1
0.06818181818181301,1847,13,62,1
0.025000000000005684,1847,14,62,1
0.013636363636365445,1847,15,62,1
0.025000000000005684,1848,0,62,1
0.02727272727271668,1848,1,62,1
0.01590909090909065,1848,2,62,1
0.013636363636365445,1848,3,62,1
0.025000000000005684,1848,4,62,1
0.025000000000005684,1848,5,62,1
0.013636363636365445,1848,6,62,1
0.01590909090909065,1848,7,62,1
0.02727272727273089,1848,8,62,1
0.025000000000005684,1848,9,62,1
0.013636363636365445,1848,10,62,1
0.013636363636365445,1848,11,62,1
0.01590909090909065,1848,12,62,1
0.01590909090909065,1848,13,62,1
0.025000000000005684,1848,14,62,1
0.056818181818172775,1848,15,62,1
0.024999999999991473,1849,0,62,1
0.013636363636365445,1849,1,62,1
0.05909090909091219,1849,2,62,1
0.01590909090909065,1849,3,62,1
0.024999999999991473,1849,4,62,1
0.013636363636365445,1849,5,62,1
0.06818181818182723,1849,6,62,1
0.025000000000005684,1849,7,62,1
0.01590909090909065,1849,8,62,1
0.01590909090909065,1849,9,62,1
0.025000000000005684,1849,10,62,1
0.025000000000005684,1849,11,62,1
0.013636363636365445,1849,12,62,1
0.01590909090909065,1849,13,62,1
0.01590909090909065,1849,14,62,1
0.025000000000005684,1849,15,62,1
0.036363636363645924,1850,0,62,1
0.013636363636365445,1850,1,62,1
0.0022727272727252057,1850,2,62,1
0.024999999999991473,1850,3,62,1
0.025000000000005684,1850,4,62,1
0.01590909090909065,1850,5,62,1
0.02727272727273089,1850,6,62,1
0.025000000000005684,1850,7,62,1
0.013636363636365445,1850,8,62,1
0.025000000000005684,1850,9,62,1
0.056818181818186986,1850,10,62,1
0.01590909090909065,1850,11,62,1
0.02727272727273089,1850,12,62,1
0.024999999999991473,1850,13,62,1
0.013636363636365445,1850,14,62,1
0.013636363636365445,1850,15,62,1
0.01590909090909065,1851,0,62,1
0.025000000000005684,1851,1,62,1
0.024999999999991473,1851,2,62,1
0.01590909090909065,1851,3,62,1
0.025000000000005684,1851,4,62,1
0.025000000000005684,1851,5,62,1
0.013636363636365445,1851,6,62,1
0.013636363636365445,1851,7,62,1
0.024999999999991473,1851,8,62,1
0.02727272727273089,1851,9,62,1
0.01590909090909065,1851,10,62,1
0.013636363636365445,1851,11,62,1
0.06818181818181301,1851,12,62,1
0.03636363636363171,1851,13,62,1
0.025000000000005684,1851,14,62,1
0.01590909090909065,1851,15,62,1
0.056818181818172775,1852,0,62,1
0.024999999999991473,1852,1,62,1
0.01590909090909065,1852,2,62,1
0.045454545454546746,1852,3,62,1
0.025000000000005684,1852,4,62,1
0.056818181818186986,1852,5,62,1
0.01590909090909065,1852,6,62,1
0.09999999999999432,1852,7,62,1
0.024999999999991473,1852,8,62,1
0.05909090909091219,1852,9,62,1
0.01590909090909065,1852,10,62,1
0.025000000000005684,1852,11,62,1
0.004545454545464622,1852,12,62,1
0.056818181818186986,1852,13,62,1
0.013636363636365445,1852,14,62,1
0.013636363636351234,1852,15,62,1
0.024999999999991473,1853,0,62,1
0.03636363636363171,1853,1,62,1
0.01590909090909065,1853,2,62,1
0.056818181818172775,1853,3,62,1
0.013636363636351234,1853,4,62,1
0.024999999999991473,1853,5,62,1
0.025000000000005684,1853,6,62,1
0.025000000000005684,1853,7,62,1
0.025000000000005684,1853,8,62,1
0.004545454545464622,1853,9,62,1
0.004545454545464622,1853,10,62,1
0.025000000000005684,1853,11,62,1
0.025000000000005684,1853,12,62,1
0.024999999999991473,1853,13,62,1
0.05909090909091219,1853,14,62,1
0.02727272727273089,1853,15,62,1
0.025000000000005684,1854,0,62,1
0.013636363636365445,1854,1,62,1
0.013636363636365445,1854,2,62,1
0.01590909090909065,1854,3,62,1
0.024999999999991473,1854,4,62,1
0.025000000000005684,1854,5,62,1
0.01590909090909065,1854,6,62,1
0.013636363636365445,1854,7,62,1
0.024999999999991473,1854,8,62,1
0.024999999999991473,1854,9,62,1
0.013636363636365445,1854,10,62,1
0.01590909090909065,1854,11,62,1
0.01590909090909065,1854,12,62,1
0.024999999999991473,1854,13,62,1
0.025000000000005684,1854,14,62,1
0.013636363636365445,1854,15,62,1
0.01590909090909065,1855,0,62,1
0.025000000000005684,1855,1,62,1
0.024999999999991473,1855,2,62,1
0.02727272727271668,1855,3,62,1
0.013636363636365445,1855,4,62,1
0.013636363636365445,1855,5,62,1
0.025000000000005684,1855,6,62,1
0.01590909090909065,1855,7,62,1
0.024999999999991473,1855,8,62,1
0.025000000000005684,1855,9,62,1
0.09999999999999432,1855,10,62,1
0.06818181818181301,1855,11,62,1
0.025000000000005684,1855,12,62,1
0.02727272727273089,1855,13,62,1
0.056818181818186986,1855,14,62,1
0.013636363636365445,1855,15,62,1
0.013636363636365445,1856,0,62,1
0.01590909090909065,1856,1,62,1
0.025000000000005684,1856,2,62,1
0.024999999999991473,1856,3,62,1
0.01590909090907644,1856,4,62,1
0.025000000000005684,1856,5,62,1
0.025000000000005684,1856,6,62,1
0.013636363636351234,1856,7,62,1
0.01590909090907644,1856,8,62,1
0.025000000000005684,1856,9,62,1
0.025000000000005684,1856,10,62,1
0.01590909090907644,1856,11,62,1
0.013636363636351234,1856,12,62,1
0.025000000000005684,1856,13,62,1
0.025000000000005684,1856,14,62,1
0.013636363636351234,1856,15,62,1
0.02727272727273089,1857,0,62,1
0.056818181818158564,1857,1,62,1
0.013636363636379656,1857,2,62,1
0.06818181818184144,1857,3,62,1
0.025000000000005684,1857,4,62,1
0.01590909090910486,1857,5,62,1
0.01590909090910486,1857,6,62,1
0.013636363636351234,1857,7,62,1
0.025000000000005684,1857,8,62,1
0.025000000000005684,1857,9,62,1
0.01590909090910486,1857,10,62,1
0.004545454545450411,1857,11,62,1
0.024999999999977263,1857,12,62,1
0.056818181818186986,1857,13,62,1
0.01590909090910486,1857,14,62,1
0.004545454545450411,1857,15,62,1
0.04772727272725774,1858,0,62,1
0.09999999999999432,1858,1,62,1
0.10000000000002274,1858,2,62,1
0.05909090909091219,1858,3,62,1
0.01590909090910486,1858,4,62,1
0.025000000000005684,1858,5,62,1
0.013636363636351234,1858,6,62,1
0.013636363636351234,1858,7,62,1
0.02727272727273089,1858,8,62,1
0.025000000000005684,1858,9,62,1
0.025000000000005684,1858,10,62,1
0.013636363636379656,1858,11,62,1
0.06818181818181301,1858,12,62,1
0.024999999999977263,1858,13,62,1
0.03636363636363171,1858,14,62,1
0.056818181818186986,1858,15,62,1
0.03636363636363171,1859,0,62,1
0.09999999999999432,1859,1,62,1
0.06590909090908781,1859,2,62,1
0.025000000000005684,1859,3,62,1
0.024999999999977263,1859,4,62,1
0.056818181818186986,1859,5,62,1
0.013636363636379656,1859,6,62,1
0.01590909090907644,1859,7,62,1
0.025000000000005684,1859,8,62,1
0.025000000000005684,1859,9,62,1
0.01590909090910486,1859,10,62,1
0.025000000000005684,1859,11,62,1
0.025000000000005684,1859,12,62,1
0.013636363636379656,1859,13,62,1
0.013636363636351234,1859,14,62,1
0.01590909090907644,1859,15,62,1
0.02727272727273089,1860,0,62,1
0.025000000000005684,1860,1,62,1
0.013636363636351234,1860,2,62,1
0.025000000000005684,1860,3,62,1
0.025000000000005684,1860,4,62,1
0.09999999999999432,1860,5,62,1
0.056818181818186986,1860,6,62,1
0.013636363636351234,1860,7,62,1
0.013636363636351234,1860,8,62,1
0.025000000000005684,1860,9,62,1
0.025000000000005684,1860,10,62,1
0.01590909090907644,1860,11,62,1
0.01590909090910486,1860,12,62,1
0.025000000000005684,1860,13,62,1
0.025000000000005684,1860,14,62,1
0.013636363636351234,1860,15,62,1
0.09999999999999432,1861,0,62,1
0.056818181818186986,1861,1,62,1
0.013636363636351234,1861,2,62,1
0.05909090909091219,1861,3,62,1
0.025000000000005684,1861,4,62,1
0.025000000000005684,1861,5,62,1
0.01590909090907644,1861,6,62,1
0.025000000000005684,1861,7,62,1
0.025000000000005684,1861,8,62,1
0.013636363636351234,1861,9,62,1
0.024999999999977263,1861,10,62,1
0.01590909090910486,1861,11,62,1
0.01590909090910486,1861,12,62,1
0.024999999999977263,1861,13,62,1
0.013636363636351234,1861,14,62,1
0.025000000000005684,1861,15,62,1
0.025000000000005684,1862,0,62,1
0.025000000000005684,1862,1,62,1
0.01590909090910486,1862,2,62,1
0.024999999999977263,1862,3,62,1
0.056818181818186986,1862,4,62,1
0.025000000000005684,1862,5,62,1
0.01590909090910486,1862,6,62,1
0.06818181818181301,1862,7,62,1
0.013636363636351234,1862,8,62,1
0.056818181818186986,1862,9,62,1
0.01590909090910486,1862,10,62,1
0.004545454545450411,1862,11,62,1
0.024999999999977263,1862,12,62,1
0.056818181818186986,1862,13,62,1
0.01590909090907644,1862,14,62,1
0.013636363636379656,1862,15,62,1
0.09999999999999432,1863,0,62,1
0.0022727272727252057,1863,1,62,1
0.05909090909088377,1863,2,62,1
0.01590909090907644,1863,3,62,1
0.013636363636379656,1863,4,62,1
0.025000000000005684,1863,5,62,1
0.025000000000005684,1863,6,62,1
0.01590909090910486,1863,7,62,1
0.025000000000005684,1863,8,62,1
0.025000000000005684,1863,9,62,1
0.01590909090907644,1863,10,62,1
0.013636363636379656,1863,11,62,1
0.025000000000005684,1863,12,62,1
0.024999999999977263,1863,13,62,1
0.013636363636351234,1863,14,62,1
0.01590909090910486,1863,15,62,1
0.02727272727273089,1864,0,62,1
0.025000000000005684,1864,1,62,1
0.025000000000005684,1864,2,62,1
0.013636363636379656,1864,3,62,1
0.004545454545450411,1864,4,62,1
0.09999999999999432,1864,5,62,1
0.045454545454532536,1864,6,62,1
0.013636363636351234,1864,7,62,1
0.025000000000005684,1864,8,62,1
0.01590909090907644,1864,9,62,1
0.01590909090910486,1864,10,62,1
0.025000000000005684,1864,11,62,1
0.025000000000005684,1864,12,62,1
0.013636363636351234,1864,13,62,1
0.025000000000005684,1864,14,62,1
0.025000000000005684,1864,15,62,1
0.013636363636351234,1865,0,62,1
0.01590909090907644,1865,1,62,1
0.02727272727273089,1865,2,62,1
0.025000000000005684,1865,3,62,1
0.013636363636351234,1865,4,62,1
0.025000000000005684,1865,5,62,1
0.025000000000005684,1865,6,62,1
0.013636363636379656,1865,7,62,1
0.01590909090907644,1865,8,62,1
0.01590909090910486,1865,9,62,1
0.025000000000005684,1865,10,62,1
0.024999999999977263,1865,11,62,1
0.013636363636351234,1865,12,62,1
0.025000000000005684,1865,13,62,1
0.05909090909091219,1865,14,62,1
0.01590909090910486,1865,15,62,1
0.013636363636379656,1866,0,62,1
0.025000000000005684,1866,1,62,1
0.025000000000005684,1866,2,62,1
0.013636363636379656,1866,3,62,1
0.01590909090907644,1866,4,62,1
0.02727272727270247,1866,5,62,1
0.025000000000005684,1866,6,62,1
0.013636363636379656,1866,7,62,1
0.025000000000005684,1866,8,62,1
0.025000000000005684,1866,9,62,1
0.013636363636379656,1866,10,62,1
0.03636363636363171,1866,11,62,1
0.05909090909091219,1866,12,62,1
0.09999999999999432,1866,13,62,1
0.03409090909090651,1866,14,62,1
0.09999999999999432,1866,15,62,1
0.056818181818186986,1867,0,62,1
0.09999999999999432,1867,1,62,1
0.09999999999999432,1867,2,62,1
0.06818181818181301,1867,3,62,1
0.013636363636379656,1867,4,62,2
0.10000000000002274,1867,5,62,2
0.10000000000002274,1867,6,62,2
0.04545454545456096,1867,7,62,2
0.10000000000002274,1867,8,62,2
0.09999999999999432,1867,9,62,2
0.09999999999999432,1867,10,62,1
0.09999999999999432,1867,11,62,1
0.10000000000002274,1867,12,62,1
0.09999999999999432,1867,13,62,1
0.09999999999999432,1867,14,62,1
0.09999999999999432,1867,15,62,1
0.056818181818186986,1868,0,62,1
0.013636363636351234,1868,1,62,1
0.09999999999999432,1868,2,62,1
0.045454545454532536,1868,3,62,1
0.025000000000005684,1868,4,62,1
0.10000000000002274,1868,5,62,1
0.06818181818184144,1868,6,62,1
0.025000000000005684,1868,7,62,1
0.004545454545478833,1868,8,62,1
0.004545454545478833,1868,9,62,1
0.09999999999999432,1868,10,62,1
0.013636363636351234,1868,11,62,1
0.004545454545450411,1868,12,62,1
0.056818181818186986,1868,13,62,1
0.004545454545450411,1868,14,62,1
0.045454545454532536,1868,15,62,1
0.03636363636363171,1869,0,62,1
0.004545454545450411,1869,1,62,1
0.10000000000002274,1869,2,62,1
0.056818181818186986,1869,3,62,1
0.01590909090910486,1869,4,62,1
0.01590909090910486,1869,5,62,1
0.013636363636379656,1869,6,62,1
0.06818181818181301,1869,7,62,1
0.024999999999977263,1869,8,62,1
0.024999999999977263,1869,9,62,1
0.01590909090910486,1869,10,62,1
0.004545454545450411,1869,11,62,1
0.056818181818186986,1869,12,62,1
0.0022727272727536274,1869,13,62,1
0.01590909090910486,1869,14,62,1
0.056818181818158564,1869,15,62,1
0.025000000000005684,1870,0,62,1
0.056818181818186986,1870,1,62,1
0.01590909090907644,1870,2,62,1
0.06818181818181301,1870,3,62,1
0.025000000000005684,1870,4,62,1
0.036363636363660135,1870,5,62,1
0.036363636363660135,1870,6,62,1
0.056818181818186986,1870,7,62,1
0.025000000000005684,1870,8,62,1
0.013636363636351234,1870,9,62,1
0.03636363636363171,1870,10,62,1
0.10000000000002274,1870,11,62,1
0.04772727272728616,1870,12,62,1
0.004545454545450411,1870,13,62,1
0.013636363636351234,1870,14,62,1
0.01590909090907644,1870,15,62,1
0.06818181818181301,1871,0,62,1
0.013636363636379656,1871,1,62,1
0.036363636363660135,1871,2,62,1
0.056818181818186986,1871,3,62,1
0.025000000000005684,1871,4,62,1
0.03636363636363171,1871,5,62,1
0.004545454545450411,1871,6,62,1
0.09999999999999432,1871,7,62,1
0.056818181818158564,1871,8,62,1
0.03636363636363171,1871,9,62,1
0.03636363636363171,1871,10,62,1
0.04772727272728616,1871,11,62,1
0.04545454545456096,1871,12,62,1
0.004545454545450411,1871,13,62,1
0.06818181818181301,1871,14,62,1
0.03636363636363171,1871,15,62,1
0.024999999999977263,1872,0,62,1
0.056818181818186986,1872,1,62,1
0.004545454545450411,1872,2,62,1
0.025000000000005684,1872,3,62,1
0.06818181818181301,1872,4,62,1
0.013636363636351234,1872,5,62,1
0.06818181818181301,1872,6,62,1
0.01590909090907644,1872,7,62,1
0.004545454545450411,1872,8,62,1
0.013636363636379656,1872,9,62,1
0.024999999999977263,1872,10,62,1
0.06818181818181301,1872,11,62,1
0.01590909090910486,1872,12,62,1
0.09999999999999432,1872,13,62,1
0.04772727272725774,1872,14,62,1
0.004545454545450411,1872,15,62,1
0.024999999999977263,1873,0,62,1
0.10000000000002274,1873,1,62,1
0.025000000000005684,1873,2,62,1
0.04772727272725774,1873,3,62,1
0.004545454545450411,1873,4,62,1
0.025000000000005684,1873,5,62,1
0.01590909090907644,1873,6,62,1
0.013636363636351234,1873,7,62,1
0.03409090909090651,1873,8,62,1
0.004545454545450411,1873,9,62,1
0.06818181818181301,1873,10,62,1
0.01590909090910486,1873,11,62,1
0.09999999999999432,1873,12,62,1
0.06818181818181301,1873,13,62,1
0.09999999999999432,1873,14,62,1
0.04545454545456096,1873,15,62,1
0.036363636363660135,1874,0,62,1
0.01590909090910486,1874,1,62,1
0.09999999999999432,1874,2,62,1
0.03636363636363171,1874,3,62,1
0.004545454545450411,1874,4,62,1
0.0022727272727252057,1874,5,62,1
0.06818181818181301,1874,6,62,1
0.03636363636363171,1874,7,62,1
0.01590909090910486,1874,8,62,1
0.004545454545450411,1874,9,62,1
0.025000000000005684,1874,10,62,1
0.013636363636351234,1874,11,62,1
0.056818181818186986,1874,12,62,1
0.03636363636363171,1874,13,62,1
0.10000000000002274,1874,14,62,1
0.06818181818184144,1874,15,62,1
0.004545454545450411,1875,0,62,1
0.056818181818186986,1875,1,62,1
0.03636363636363171,1875,2,62,1
0.056818181818186986,1875,3,62,1
0.025000000000005684,1875,4,62,1
0.01590909090910486,1875,5,62,1
0.025000000000005684,1875,6,62,1
0.036363636363660135,1875,7,62,1
0.09999999999999432,1875,8,62,1
0.05909090909091219,1875,9,62,1
0.013636363636351234,1875,10,62,1
0.06818181818181301,1875,11,62,1
0.025000000000005684,1875,12,62,1
0.056818181818186986,1875,13,62,1
0.01590909090907644,1875,14,62,1
0.025000000000005684,1875,15,62,1
0.06818181818181301,1876,0,62,1
0.013636363636351234,1876,1,62,1
0.0022727272727252057,1876,2,62,1
0.01590909090910486,1876,3,62,1
0.004545454545450411,1876,4,62,1
0.045454545454532536,1876,5,62,1
0.01590909090907644,1876,6,62,1
0.013636363636379656,1876,7,62,1
0.056818181818158564,1876,8,62,1
0.09999999999999432,1876,9,62,1
0.01590909090907644,1876,10,62,1
0.013636363636351234,1876,11,62,1
0.06818181818181301,1876,12,62,1
0.025000000000005684,1876,13,62,1
0.01590909090907644,1876,14,62,1
0.10000000000002274,1876,15,62,1
0.06818181818184144,1877,0,62,1
0.025000000000005684,1877,1,62,1
0.01590909090910486,1877,2,62,1
0.004545454545450411,1877,3,62,1
0.01590909090907644,1877,4,62,1
0.03409090909090651,1877,5,62,1
0.0022727272727252057,1877,6,62,1
0.004545454545450411,1877,7,62,1
0.025000000000005684,1877,8,62,1
0.09999999999999432,1877,9,62,1
0.056818181818186986,1877,10,62,1
0.013636363636351234,1877,11,62,1
0.06818181818181301,1877,12,62,1
0.03636363636363171,1877,13,62,1
0.025000000000005684,1877,14,62,1
0.025000000000005684,1877,15,62,1
0.02727272727273089,1878,0,62,1
0.01590909090910486,1878,1,62,1
0.013636363636379656,1878,2,62,1
0.013636363636351234,1878,3,62,1
0.03636363636363171,1878,4,62,1
0.04772727272725774,1878,5,62,1
0.004545454545450411,1878,6,62,1
0.013636363636379656,1878,7,62,1
0.025000000000005684,1878,8,62,1
0.01590909090910486,1878,9,62,1
0.056818181818186986,1878,10,62,1
0.025000000000005684,1878,11,62,1
0.025000000000005684,1878,12,62,1
0.024999999999977263,1878,13,62,1
0.01590909090910486,1878,14,62,1
0.025000000000005684,1878,15,62,1
0.056818181818186986,1879,0,62,1
0.013636363636379656,1879,1,62,1
0.025000000000005684,1879,2,62,1
0.025000000000005684,1879,3,62,1
0.03636363636363171,1879,4,62,1
0.05909090909091219,1879,5,62,1
0.01590909090907644,1879,6,62,1
0.024999999999977263,1879,7,62,1
0.025000000000005684,1879,8,62,1
0.013636363636379656,1879,9,62,1
0.09999999999999432,1879,10,62,1
0.04772727272728616,1879,11,62,1
0.01590909090910486,1879,12,62,1
0.025000000000005684,1879,13,62,1
0.025000000000005684,1879,14,62,1
0.04772727272725774,1879,15,62,1
0.013636363636351234,1880,0,62,1
0.10000000000002274,1880,1,62,1
0.025000000000005684,1880,2,62,1
0.056818181818186986,1880,3,62,1
0.024999999999977263,1880,4,62,1
0.03636363636363171,1880,5,62,1
0.013636363636379656,1880,6,62,1
0.06818181818184144,1880,7,62,1
0.09999999999999432,1880,8,62,1
0.06818181818181301,1880,9,62,1
0.025000000000005684,1880,10,62,1
0.01590909090907644,1880,11,62,1
0.02727272727270247,1880,12,62,1
0.025000000000005684,1880,13,62,1
0.10000000000002274,1880,14,62,1
0.04545454545456096,1880,15,62,1
0.01590909090907644,1881,0,62,1
0.056818181818186986,1881,1,62,1
0.09999999999999432,1881,2,62,1
0.03636363636363171,1881,3,62,1
0.04772727272725774,1881,4,62,1
0.04545454545456096,1881,5,62,1
0.036363636363660135,1881,6,62,1
0.004545454545478833,1881,7,62,1
0.025000000000005684,1881,8,62,1
0.03636363636363171,1881,9,62,1
0.004545454545450411,1881,10,62,1
0.10000000000002274,1881,11,62,1
0.056818181818186986,1881,12,62,1
0.01590909090910486,1881,13,62,1
0.025000000000005684,1881,14,62,1
0.025000000000005684,1881,15,62,1
0.01590909090907644,1882,0,62,1
0.013636363636379656,1882,1,62,1
0.024999999999977263,1882,2,62,1
0.05909090909091219,1882,3,62,1
0.013636363636351234,1882,4,62,1
0.004545454545450411,1882,5,62,1
0.025000000000005684,1882,6,62,1
0.056818181818186986,1882,7,62,1
0.01590909090910486,1882,8,62,1
0.06590909090908781,1882,9,62,1
0.024999999999977263,1882,10,62,1
0.01590909090907644,1882,11,62,1
0.025000000000005684,1882,12,62,1
0.025000000000005684,1882,13,62,1
0.09999999999999432,1882,14,62,1
0.09999999999999432,1882,15,62,1
0.025000000000005684,1883,0,62,1
0.06818181818181301,1883,1,62,1
0.013636363636351234,1883,2,62,1
0.04772727272725774,1883,3,62,1
0.10000000000002274,1883,4,62,1
0.04772727272728616,1883,5,62,1
0.01590909090910486,1883,6,62,1
0.024999999999977263,1883,7,62,1
0.013636363636351234,1883,8,62,1
0.09999999999999432,1883,9,62,1
0.04772727272728616,1883,10,62,1
0.04772727272728616,1883,11,62,1
0.013636363636379656,1883,12,62,1
0.013636363636351234,1883,13,62,1
0.01590909090907644,1883,14,62,1
0.025000000000005684,1883,15,62,1
0.056818181818158564,1884,0,62,1
0.01590909090910486,1884,1,62,1
0.025000000000005684,1884,2,62,1
0.03636363636363171,1884,3,62,1
0.03636363636363171,1884,4,62,1
0.025000000000005684,1884,5,62,1
0.056818181818158564,1884,6,62,1
0.0022727272727252057,1884,7,62,1
0.004545454545450411,1884,8,62,1
0.004545454545478833,1884,9,62,1
0.04772727272728616,1884,10,62,1
0.045454545454532536,1884,11,62,1
0.0022727272727252057,1884,12,62,1
0.01590909090910486,1884,13,62,1
0.025000000000005684,1884,14,62,1
0.056818181818186986,1884,15,62,1
0.025000000000005684,1885,0,62,1
0.09999999999999432,1885,1,62,1
0.05909090909091219,1885,2,62,1
0.004545454545450411,1885,3,62,1
0.013636363636379656,1885,4,62,1
0.024999999999977263,1885,5,62,1
0.024999999999977263,1885,6,62,1
0.025000000000005684,1885,7,62,1
0.025000000000005684,1885,8,62,1
0.02727272727273089,1885,9,62,1
0.025000000000005684,1885,10,62,1
0.03409090909090651,1885,11,62,1
0.0022727272727252057,1885,12,62,1
0.025000000000005684,1885,13,62,1
0.004545454545450411,1885,14,62,1
0.025000000000005684,1885,15,62,1
0.06818181818181301,1886,0,62,1
0.03636363636363171,1886,1,62,1
0.024999999999977263,1886,2,62,1
0.01590909090910486,1886,3,62,1
0.036363636363660135,1886,4,62,1
0.056818181818186986,1886,5,62,1
0.025000000000005684,1886,6,62,1
0.025000000000005684,1886,7,62,1
0.025000000000005684,1886,8,62,1
0.024999999999977263,1886,9,62,1
0.004545454545450411,1886,10,62,1
0.056818181818186986,1886,11,62,1
0.09999999999999432,1886,12,62,1
0.04545454545456096,1886,13,62,1
0.013636363636379656,1886,14,62,1
0.025000000000005684,1886,15,62,1
0.01590909090910486,1887,0,62,1
0.025000000000005684,1887,1,62,1
0.0022727272727252057,1887,2,62,1
0.05909090909088377,1887,3,62,1
0.01590909090907644,1887,4,62,1
0.0022727272727252057,1887,5,62,1
0.004545454545450411,1887,6,62,1
0.01590909090910486,1887,7,62,1
0.0022727272727252057,1887,8,62,1
0.03636363636363171,1887,9,62,1
0.04772727272725774,1887,10,62,1
0.004545454545450411,1887,11,62,1
0.09999999999999432,1887,12,62,1
0.09999999999999432,1887,13,62,1
0.09999999999999432,1887,14,62,1
0.025000000000005684,1887,15,62,1
0.09999999999999432,1888,0,62,1
0.045454545454532536,1888,1,62,1
0.09999999999999432,1888,2,62,1
0.09999999999999432,1888,3,62,1
0.013636363636351234,1888,4,62,1
0.10000000000002274,1888,5,62,1
0.056818181818186986,1888,6,62,1
0.025000000000005684,1888,7,62,1
0.09999999999999432,1888,8,62,1
0.10000000000002274,1888,9,62,1
0.09999999999999432,1888,10,62,1
0.025000000000005684,1888,11,62,1
0.09999999999999432,1888,12,62,1
0.09999999999999432,1888,13,62,1
0.004545454545450411,1888,14,62,1
0.056818181818186986,1888,15,62,1
0.10000000000002274,1889,0,62,1
0.09999999999999432,1889,1,62,1
0.10000000000002274,1889,2,62,1
0.10000000000002274,1889,3,62,1
0.09999999999999432,1889,4,62,1
0.09999999999999432,1889,5,62,1
0.004545454545450411,1889,6,62,1
0.09999999999999432,1889,7,62,1
0.025000000000005684,1889,8,62,1
0.05909090909091219,1889,9,62,1
0.09999999999999432,1889,10,62,1
0.056818181818186986,1889,11,62,1
0.025000000000005684,1889,12,62,1
0.05909090909091219,1889,13,62,1
0.024999999999977263,1889,14,62,1
0.04545454545456096,1889,15,62,1
0.013636363636379656,1890,0,62,1
0.09999999999999432,1890,1,62,1
0.025000000000005684,1890,2,62,1
0.056818181818158564,1890,3,62,1
0.10000000000002274,1890,4,62,1
0.10000000000002274,1890,5,62,1
0.01590909090910486,1890,6,62,1
0.06818181818181301,1890,7,62,1
0.09999999999999432,1890,8,62,1
0.025000000000005684,1890,9,62,1
0.01590909090910486,1890,10,62,1
0.09999999999999432,1890,11,62,1
0.09999999999999432,1890,12,62,1
0.09999999999999432,1890,13,62,1
0.09999999999999432,1890,14,62,1
0.09999999999999432,1890,15,62,1
0.09999999999999432,1891,0,62,1
0.09999999999999432,1891,1,62,1
0.02727272727273089,1891,2,62,1
0.013636363636379656,1891,3,62,1
0.09999999999999432,1891,4,62,1
0.03636363636363171,1891,5,62,1
0.04772727272725774,1891,6,62,1
0.09999999999999432,1891,7,62,1
0.09999999999999432,1891,8,62,1
0.013636363636351234,1891,9,62,1
0.03636363636363171,1891,10,62,1
0.04772727272728616,1891,11,62,1
0.10000000000002274,1891,12,62,1
0.025000000000005684,1891,13,62,1
0.09999999999999432,1891,14,62,1
0.004545454545450411,1891,15,62,1
0.09999999999999432,1892,0,62,1
0.056818181818158564,1892,1,62,1
0.09999999999999432,1892,2,62,1
0.004545454545450411,1892,3,62,1
0.10000000000002274,1892,4,62,1
0.09999999999999432,1892,5,62,1
0.09999999999999432,1892,6,62,1
0.09999999999999432,1892,7,62,1
0.056818181818186986,1892,8,62,1
0.02727272727273089,1892,9,62,1
0.10000000000002274,1892,10,62,1
0.09999999999999432,1892,11,62,1
0.09999999999999432,1892,12,62,1
0.10000000000002274,1892,13,62,1
0.06818181818184144,1892,14,62,1
0.09999999999999432,1892,15,62,1
0.03636363636363171,1893,0,62,1
0.056818181818186986,1893,1,62,1
0.09999999999999432,1893,2,62,1
0.06818181818181301,1893,3,62,1
0.025000000000005684,1893,4,62,1
0.024999999999977263,1893,5,62,1
0.05909090909091219,1893,6,62,1
0.02727272727273089,1893,7,62,1
0.0022727272727252057,1893,8,62,1
0.06818181818181301,1893,9,62,1
0.01590909090907644,1893,10,62,1
0.01590909090907644,1893,11,62,1
0.025000000000005684,1893,12,62,1
0.09999999999999432,1893,13,62,1
0.024999999999977263,1893,14,62,1
0.10000000000002274,1893,15,62,1
0.04772727272728616,1894,0,62,1
0.025000000000005684,1894,1,62,1
0.056818181818186986,1894,2,62,1
0.09999999999999432,1894,3,62,1
0.09999999999999432,1894,4,62,1
0.09999999999999432,1894,5,62,1
0.04772727272725774,1894,6,62,1
0.09999999999999432,1894,7,62,1
0.056818181818186986,1894,8,62,1
0.025000000000005684,1894,9,62,1
0.09999999999999432,1894,10,62,1
0.004545454545450411,1894,11,62,1
0.04772727272725774,1894,12,62,1
0.004545454545450411,1894,13,62,1
0.09999999999999432,1894,14,62,1
0.056818181818158564,1894,15,62,1
0.013636363636351234,1895,0,62,1
0.02727272727273089,1895,1,62,1
0.10000000000002274,1895,2,62,1
0.06818181818184144,1895,3,62,1
0.09999999999999432,1895,4,62,1
0.09999999999999432,1895,5,62,1
0.09999999999999432,1895,6,62,1
0.04772727272725774,1895,7,62,1
0.025000000000005684,1895,8,62,1
0.03636363636363171,1895,9,62,1
0.013636363636351234,1895,10,62,1
0.09999999999999432,1895,11,62,1
0.056818181818186986,1895,12,62,1
0.004545454545450411,1895,13,62,1
0.03636363636363171,1895,14,62,1
0.025000000000005684,1895,15,62,1
0.056818181818186986,1896,0,62,1
0.025000000000005684,1896,1,62,1
0.01590909090907644,1896,2,62,1
0.03409090909090651,1896,3,62,1
0.04772727272728616,1896,4,62,1
0.025000000000005684,1896,5,62,1
0.056818181818186986,1896,6,62,1
0.01590909090910486,1896,7,62,1
0.01590909090907644,1896,8,62,1
0.09999999999999432,1896,9,62,1
0.013636363636351234,1896,10,62,1
0.10000000000002274,1896,11,62,1
0.09999999999999432,1896,12,62,1
0.06590909090908781,1896,13,62,1
0.09999999999999432,1896,14,62,1
0.09999999999999432,1896,15,62,1
0.056818181818186986,1897,0,62,1
0.01590909090907644,1897,1,62,1
0.09999999999999432,1897,2,62,1
0.025000000000005684,1897,3,62,1
0.09999999999999432,1897,4,62,1
0.09999999999999432,1897,5,62,1
0.004545454545450411,1897,6,62,1
0.09999999999999432,1897,7,62,1
0.09999999999999432,1897,8,62,1
0.06818181818181301,1897,9,62,1
0.02727272727273089,1897,10,62,1
0.013636363636351234,1897,11,62,1
0.09999999999999432,1897,12,62,1
0.09999999999999432,1897,13,62,1
0.056818181818158564,1897,14,62,1
0.024999999999977263,1897,15,62,1
0.01590909090910486,1898,0,62,1
0.004545454545450411,1898,1,62,1
0.10000000000002274,1898,2,62,1
0.10000000000002274,1898,3,62,1
0.09999999999999432,1898,4,62,1
0.09999999999999432,1898,5,62,1
0.09999999999999432,1898,6,62,1
0.06818181818181301,1898,7,62,1
0.03636363636363171,1898,8,62,1
0.01590909090910486,1898,9,62,1
0.013636363636351234,1898,10,62,1
0.056818181818186986,1898,11,62,1
0.036363636363660135,1898,12,62,1
0.01590909090910486,1898,13,62,1
0.056818181818186986,1898,14,62,1
0.013636363636351234,1898,15,62,1
0.013636363636379656,1899,0,62,1
0.01590909090907644,1899,1,62,1
0.025000000000005684,1899,2,62,1
0.036363636363660135,1899,3,62,1
0.004545454545478833,1899,4,62,1
0.06590909090908781,1899,5,62,1
0.02727272727273089,1899,6,62,1
0.06590909090908781,1899,7,62,1
0.03409090909090651,1899,8,62,1
0.01590909090907644,1899,9,62,1
0.004545454545450411,1899,10,62,1
0.004545454545450411,1899,11,62,1
0.004545454545450411,1899,12,62,1
0.03636363636363171,1899,13,62,1
0.004545454545450411,1899,14,62,1
0.024999999999977263,1899,15,62,1
0.013636363636351234,1900,0,62,1
0.004545454545450411,1900,1,62,1
0.004545454545450411,1900,2,62,1
0.025000000000005684,1900,3,62,1
0.004545454545450411,1900,4,62,1
0.03636363636363171,1900,5,62,1
0.03409090909090651,1900,6,62,1
0.0022727272727252057,1900,7,62,1
0.024999999999977263,1900,8,62,1
0.01590909090907644,1900,9,62,1
0.013636363636351234,1900,10,62,1
0.04772727272728616,1900,11,62,1
0.004545454545450411,1900,12,62,1
0.013636363636379656,1900,13,62,1
0.06818181818184144,1900,14,62,1
0.004545454545478833,1900,15,62,1
0.01590909090910486,1901,0,62,1
0.03409090909090651,1901,1,62,1
0.05909090909088377,1901,2,62,1
0.004545454545450411,1901,3,62,1
0.09999999999999432,1901,4,62,1
0.025000000000005684,1901,5,62,1
0.06818181818181301,1901,6,62,1
0.02727272727273089,1901,7,62,1
0.004545454545450411,1901,8,62,1
0.01590909090907644,1901,9,62,1
0.06590909090908781,1901,10,62,1
0.025000000000005684,1901,11,62,1
0.02727272727273089,1901,12,62,1
0.09999999999999432,1901,13,62,1
0.03636363636363171,1901,14,62,1
0.056818181818186986,1901,15,62,1
0.025000000000005684,1902,0,62,1
0.09999999999999432,1902,1,62,1
0.056818181818186986,1902,2,62,1
0.0022727272727252057,1902,3,62,1
0.004545454545450411,1902,4,62,1
0.01590909090910486,1902,5,62,1
0.025000000000005684,1902,6,62,1
0.004545454545478833,1902,7,62,1
0.025000000000005684,1902,8,62,1
0.056818181818186986,1902,9,62,1
0.01590909090907644,1902,10,62,1
0.025000000000005684,1902,11,62,1
0.036363636363660135,1902,12,62,1
0.0022727272727252057,1902,13,62,1
0.01590909090910486,1902,14,62,1
0.06818181818181301,1902,15,62,1
0.024999999999977263,1903,0,62,1
0.013636363636351234,1903,1,62,1
0.025000000000005684,1903,2,62,1
0.025000000000005684,1903,3,62,1
0.04772727272728616,1903,4,62,1
0.025000000000005684,1903,5,62,1
0.004545454545450411,1903,6,62,1
0.06818181818181301,1903,7,62,1
0.025000000000005684,1903,8,62,1
0.025000000000005684,1903,9,62,1
0.10000000000000009,1903,10,61,24
0.10000000000000009,1903,11,61,43
0.09999999999999987,1903,12,61,26
0.10000000000000009,1903,13,61,34
0.10000000000000009,1903,14,61,33
0.10000000000000009,1903,15,61,47
0.09999999999999964,1904,0,61,32
0.10000000000000009,1904,1,61,27
0.09999999999999964,1904,2,61,28
0.09999999999999964,1904,3,61,47
0.10000000000000009,1904,4,61,44
0.09999999999999964,1904,5,61,30
0.10000000000000053,1904,6,61,34
0.09999999999999964,1904,7,61,41
0.09999999999999964,1904,8,61,48
0.09999999999999964,1904,9,61,30
0.10000000000000053,1904,10,61,47
0.09999999999999964,1904,11,61,52
0.09999999999999964,1904,12,61,46
0.09999999999999964,1904,13,61,36
0.09999999999999964,1904,14,61,34
0.09999999999999964,1904,15,61,33
0.10000000000000053,1905,0,61,25
0.09999999999999964,1905,1,61,24
0.10000000000000053,1905,2,61,27
0.10000000000000053,1905,3,61,43
0.09999999999999964,1905,4,61,52
0.09999999999999964,1905,5,61,48
0.09999999999999964,1905,6,61,38
0.09999999999999964,1905,7,61,34
0.09999999999999964,1905,8,61,52
0.10000000000000142,1905,9,61,39
0.09999999999999964,1905,10,61,30
0.09999999999999964,1905,11,61,39
0.09999999999999964,1905,12,61,52
0.09999999999999964,1905,13,61,32
0.09999999999999964,1905,14,61,47
0.09999999999999964,1905,15,61,42
0.10000000000000142,1906,0,61,41
0.10000000000000142,1906,1,61,37
0.09999999999999964,1906,2,61,35
0.09999999999999964,1906,3,61,28
0.09999999999999964,1906,4,61,26
0.09999999999999964,1906,5,61,33
0.09999999999999964,1906,6,61,37
0.09999999999999964,1906,7,61,42
0.10000000000000142,1906,8,61,37
0.09999999999999964,1906,9,61,39
0.09999999999999964,1906,10,61,33
0.09999999999999964,1906,11,61,36
0.09999999999999964,1906,12,61,19
0.09999999999999964,1906,13,61,50
0.09999999999999964,1906,14,61,47
0.09999999999999964,1906,15,61,37
0.09999999999999964,1907,0,61,39
0.09999999999999964,1907,1,61,40
0.09999999999999964,1907,2,61,37
0.09999999999999964,1907,3,61,39
0.10000000000000142,1907,4,61,35
0.09999999999999787,1907,5,61,33
0.09999999999999787,1907,6,61,32
0.10000000000000142,1907,7,61,28
0.10000000000000142,1907,8,61,28
0.09999999999999787,1907,9,61,45
0.10000000000000142,1907,10,61,33
0.09999999999999787,1907,11,61,38
0.09999999999999787,1907,12,61,46
0.09999999999999787,1907,13,61,33
0.09999999999999787,1907,14,61,51
0.09999999999999787,1907,15,61,27
0.09999999999999787,1908,0,61,40
0.10000000000000142,1908,1,61,31
0.09999999999999787,1908,2,61,35
0.09999999999999787,1908,3,61,43
0.10000000000000142,1908,4,61,22
0.10000000000000142,1908,5,61,24
0.09999999999999787,1908,6,61,32
0.09999999999999787,1908,7,61,34
0.09999999999999787,1908,8,61,36
0.10000000000000142,1908,9,61,40
0.10000000000000142,1908,10,61,35
0.09999999999999787,1908,11,61,44
0.10000000000000142,1908,12,61,39
0.10000000000000142,1908,13,61,29
0.09999999999999787,1908,14,61,33
0.09999999999999787,1908,15,61,37
0.10000000000000142,1909,0,61,19
0.10000000000000142,1909,1,61,14
0.10000000000000142,1909,2,61,50
0.09999999999999787,1909,3,61,43
0.10000000000000142,1909,4,61,20
0.10000000000000142,1909,5,61,33
0.09999999999999787,1909,6,61,38
0.10000000000000142,1909,7,61,37
0.10000000000000142,1909,8,61,26
0.10000000000000142,1909,9,61,35
0.09999999999999787,1909,10,61,45
0.10000000000000142,1909,11,61,21
0.10000000000000142,1909,12,61,38
0.09999999999999787,1909,13,61,37
0.10000000000000142,1909,14,61,21
0.10000000000000142,1909,15,61,31
0.09999999999999787,1910,0,61,40
0.10000000000000142,1910,1,61,34
0.10000000000000142,1910,2,61,41
0.09999999999999787,1910,3,61,34
0.09999999999999432,1910,4,61,59
0.09999999999999432,1910,5,61,60
0.09999999999999432,1910,6,61,47
0.09999999999999432,1910,7,61,51
0.09999999999999432,1910,8,61,70
0.09999999999999432,1910,9,61,52
0.09999999999999432,1910,10,61,44
0.09999999999999432,1910,11,61,54
0.09999999999999432,1910,12,61,60
0.09999999999999432,1910,13,61,45
0.09999999999999432,1910,14,61,48
0.09999999999999432,1910,15,61,49
0.10000000000002274,1911,0,61,56
0.09999999999999432,1911,1,61,58
0.10000000000002274,1911,2,61,49
0.09999999999999432,1911,3,61,51
0.09999999999999432,1911,4,61,54
0.09999999999999432,1911,5,61,60
0.09999999999999432,1911,6,61,61
0.09999999999999432,1911,7,61,44
0.09999999999999432,1911,8,61,60
0.09999999999999432,1911,9,61,54
0.09999999999999432,1911,10,61,74
0.10000000000002274,1911,11,61,61
0.09999999999999432,1911,12,61,72
0.10000000000002274,1911,13,61,61
0.09999999999999432,1911,14,61,67
0.09999999999999432,1911,15,61,57
0.10000000000002274,1912,0,61,49
0.09999999999999432,1912,1,61,55
0.09999999999999432,1912,2,61,49
0.09999999999999432,1912,3,61,58
0.09999999999999432,1912,4,61,48
0.09999999999999432,1912,5,61,51
0.09999999999999432,1912,6,61,36
0.09999999999999432,1912,7,61,51
0.10000000000002274,1912,8,61,53
0.09999999999999432,1912,9,61,49
0.10000000000000009,1912,10,100,35
0.10000000000000009,1912,11,100,27
0.09999999999999964,1912,12,100,35
0.10000000000000053,1912,13,100,30
0.10000000000000053,1912,14,100,28
0.09999999999999964,1912,15,100,28
0.09999999999999964,1913,0,100,37
0.09999999999999964,1913,1,100,42
0.10000000000000142,1913,2,100,40
0.09999999999999964,1913,3,100,41
0.09999999999999964,1913,4,100,36
0.09999999999999964,1913,5,100,33
0.09999999999999964,1913,6,100,37
0.10000000000000142,1913,7,100,36
0.09999999999999787,1913,8,100,32
0.09999999999999787,1913,9,100,29
0.10000000000000142,1913,10,100,32
0.09999999999999787,1913,11,100,33
0.10000000000000142,1913,12,100,36
0.10000000000000142,1913,13,100,34
0.10000000000000142,1913,14,100,34
0.10000000000000142,1913,15,100,38
0.10000000000000142,1914,0,100,38
0.10000000000000142,1914,1,100,35
0.10000000000000142,1914,2,100,35
0.10000000000000142,1914,3,100,35
0.10000000000000142,1914,4,100,34
0.10000000000000142,1914,5,100,33
0.10000000000000142,1914,6,100,17
0.10000000000000142,1914,7,100,32
0.10000000000000142,1914,8,100,33
0.10000000000000142,1914,9,100,33
0.10000000000000142,1914,10,100,32
0.10000000000000142,1914,11,100,35
0.10000000000000142,1914,12,100,3
0.10000000000000142,1914,13,100,3
0.10000000000000142,1914,14,100,2
0.10000000000000142,1914,15,100,4
0.10000000000000142,1915,0,100,54
0.10000000000000142,1915,1,100,3
0.10000000000000142,1915,2,100,4
0.10000000000000142,1915,3,100,4
0.10000000000000142,1915,4,100,1
0.09999999999999432,1915,5,100,2
0.09999999999999432,1915,6,100,10
0.10000000000000142,1915,7,100,59
0.10000000000000142,1915,8,100,4
0.10000000000000142,1915,9,100,5
0.09999999999999432,1915,10,100,3
0.10000000000000142,1915,11,100,3
0.09999999999999432,1915,12,100,2
0.10000000000000142,1915,13,100,4
0.09999999999999432,1915,14,100,51
0.10000000000000142,1915,15,100,2
0.10000000000000142,1916,0,100,3
0.10000000000000142,1916,1,100,5
0.09999999999999432,1916,2,100,4
0.10000000000000142,1916,3,100,1
0.10000000000000142,1916,4,100,2
0.10000000000000142,1916,5,100,9
0.09999999999999432,1916,6,100,51
0.06818181818181301,1916,7,100,63
0.09999999999999432,1916,8,100,4
0.10000000000000142,1916,9,100,4
0.09999999999999432,1916,10,100,3
0.10000000000000142,1916,11,100,3
0.10000000000000142,1916,12,100,2
0.10000000000000142,1916,13,100,4
0.09999999999999432,1916,14,100,52
0.09999999999999432,1916,15,100,3
0.10000000000000142,1917,0,100,4
0.10000000000000142,1917,1,100,4
0.10000000000000142,1917,2,100,1
0.09999999999999432,1917,3,100,2
0.10000000000000142,1917,4,100,14
0.10000000000000142,1917,5,100,45
0.05681818181817988,1917,6,100,57
0.10000000000000142,1917,7,100,4
0.10000000000000142,1917,8,100,4
0.10000000000000142,1917,9,100,3
0.10000000000000142,1917,10,100,3
0.09999999999999432,1917,11,100,2
0.10000000000000142,1917,12,100,3
0.10000000000000142,1917,13,100,52
0.10000000000000142,1917,14,100,1
0.10000000000000142,1917,15,100,3
0.10000000000000142,1918,0,100,4
0.10000000000000142,1918,1,100,5
0.10000000000000142,1918,2,100,1
0.10000000000000142,1918,3,100,3
0.10000000000000142,1918,4,100,2
0.09999999999999432,1918,5,100,62
0.09999999999999432,1918,6,100,4
0.10000000000000142,1918,7,100,4
0.10000000000000142,1918,8,100,3
0.10000000000000142,1918,9,100,3
0.10000000000000142,1918,10,100,2
0.10000000000000142,1918,11,100,4
0.10000000000000142,1918,12,100,48
0.10000000000000142,1918,13,100,1
0.10000000000000142,1918,14,100,3
0.10000000000000142,1918,15,100,4
0.10000000000000142,1919,0,100,5
0.10000000000000142,1919,1,100,1
0.10000000000000142,1919,2,100,2
0.10000000000000142,1919,3,100,11
0.10000000000000142,1919,4,100,49
0.06818181818182012,1919,5,100,56
0.10000000000000142,1919,6,100,4
0.10000000000000142,1919,7,100,4
0.10000000000000142,1919,8,100,3
0.10000000000000142,1919,9,100,1
0.09999999999999432,1919,10,100,2
0.10000000000000142,1919,11,100,4
0.10000000000000142,1919,12,100,52
0.10000000000000142,1919,13,100,3
0.10000000000000142,1919,14,100,4
0.10000000000000142,1919,15,100,4
0.09999999999999432,1920,0,100,1
0.10000000000000142,1920,1,100,3
0.10000000000000142,1920,2,100,7
0.10000000000000142,1920,3,100,48
0.056818181818186986,1920,4,100,58
0.10000000000000142,1920,5,100,4
0.09999999999999432,1920,6,100,4
0.09999999999999432,1920,7,100,3
0.10000000000000142,1920,8,100,3
0.10000000000000142,1920,9,100,2
0.10000000000000142,1920,10,100,4
0.10000000000000142,1920,11,100,48
0.10000000000000142,1920,12,100,3
0.10000000000000142,1920,13,100,4
0.10000000000000142,1920,14,100,5
0.10000000000000142,1920,15,100,1
0.10000000000000142,1921,0,100,3
0.09999999999999432,1921,1,100,14
0.10000000000000142,1921,2,100,53
0.06818181818182012,1921,3,100,64
0.10000000000000142,1921,4,100,5
0.10000000000000142,1921,5,100,9
0.10000000000000142,1921,6,100,9
0.10000000000000142,1921,7,100,8
0.09999999999999432,1921,8,100,8
0.10000000000000142,1921,9,100,8
0.09999999999999432,1921,10,100,9
0.10000000000000142,1921,11,100,75
0.09999999999999432,1921,12,100,6
0.10000000000000142,1921,13,100,8
0.10000000000000142,1921,14,100,7
0.10000000000000142,1921,15,100,8
0.09999999999999432,1922,0,100,8
0.10000000000000142,1922,1,100,5
0.09999999999999432,1922,2,100,6
0.004545454545450411,1922,3,100,60
0.056818181818186986,1922,4,100,74
0.10000000000000142,1922,5,100,5
0.10000000000000142,1922,6,100,9
0.09999999999999432,1922,7,100,9
0.10000000000000142,1922,8,100,9
0.10000000000000142,1922,9,100,8
0.10000000000000142,1922,10,100,7
0.10000000000000142,1922,11,100,8
0.10000000000000142,1922,12,100,72
0.10000000000000142,1922,13,100,5
0.10000000000000142,1922,14,100,7
0.09999999999999432,1922,15,100,8
0.10000000000000142,1923,0,100,9
0.10000000000000142,1923,1,100,9
0.10000000000000142,1923,2,100,7
0.10000000000000142,1923,3,100,6
0.10000000000000853,1923,4,100,64
0.06818181818182723,1923,5,100,74
0.09999999999999432,1923,6,100,7
0.09999999999999432,1923,7,100,8
0.09999999999999432,1923,8,100,10
0.10000000000000853,1923,9,100,8
0.09999999999999432,1923,10,100,7
0.09999999999999432,1923,11,100,8
0.09999999999999432,1923,12,100,9
0.09999999999999432,1923,13,100,62
0.10000000000000853,1923,14,100,5
0.10000000000000853,1923,15,100,6
0.09999999999999432,1924,0,100,6
0.09999999999999432,1924,1,100,9
0.10000000000000853,1924,2,100,5
0.10000000000000853,1924,3,100,12
0.09999999999999432,1924,4,100,9
0.03636363636363171,1924,5,100,17
0.03409090909090651,1924,6,100,72
0.10000000000000853,1924,7,100,13
0.10000000000000853,1924,8,100,6
0.09999999999999432,1924,9,100,6
0.09999999999999432,1924,10,100,11
0.09999999999999432,1924,11,100,5
0.09999999999999432,1924,12,100,73
0.09999999999999432,1924,13,100,3
0.09999999999999432,1924,14,100,11
0.09999999999999432,1924,15,100,5
0.09999999999999432,1925,0,100,11
0.10000000000000853,1925,1,100,6
0.09999999999999432,1925,2,100,11
0.09999999999999432,1925,3,100,5
0.09999999999999432,1925,4,100,68
0.06818181818181301,1925,5,100,76
0.10000000000000853,1925,6,100,3
0.10000000000000853,1925,7,100,10
0.10000000000000853,1925,8,100,2
0.09999999999999432,1925,9,100,10
0.09999999999999432,1925,10,100,6
0.10000000000000853,1925,11,100,11
0.10000000000000853,1925,12,100,5
0.10000000000000853,1925,13,100,71
0.09999999999999432,1925,14,100,10
0.10000000000000853,1925,15,100,5
0.09999999999999432,1926,0,100,11
0.09999999999999432,1926,1,100,5
0.09999999999999432,1926,2,100,10
0.09999999999999432,1926,3,100,4
0.10000000000000853,1926,4,100,64
0.06818181818181301,1926,5,100,73
0.09999999999999432,1926,6,100,11
0.09999999999999432,1926,7,100,5
0.10000000000000853,1926,8,100,10
0.10000000000000853,1926,9,100,5
0.10000000000000853,1926,10,100,12
0.09999999999999432,1926,11,100,5
0.09999999999999432,1926,12,100,64
0.10000000000000853,1926,13,100,11
0.09999999999999432,1926,14,100,5
0.09999999999999432,1926,15,100,11
0.09999999999999432,1927,0,100,6
0.10000000000000853,1927,1,100,11
0.09999999999999432,1927,2,100,3
0.004545454545450411,1927,3,100,55
0.06818181818182723,1927,4,100,67
0.09999999999999432,1927,5,100,10
0.10000000000000853,1927,6,100,5
0.10000000000000853,1927,7,100,10
0.09999999999999432,1927,8,100,5
0.09999999999999432,1927,9,100,12
0.10000000000000853,1927,10,100,5
0.09999999999999432,1927,11,100,66
0.09999999999999432,1927,12,100,3
0.09999999999999432,1927,13,100,10
0.09999999999999432,1927,14,100,4
0.10000000000000853,1927,15,100,11
0.10000000000000853,1928,0,100,6
0.09999999999999432,1928,1,100,10
0.09999999999999432,1928,2,100,5
0.09999999999999432,1928,3,100,65
0.06818181818181301,1928,4,100,71
0.10000000000000853,1928,5,100,3
0.10000000000000853,1928,6,100,11
0.09999999999999432,1928,7,100,7
0.09999999999999432,1928,8,100,6
0.10000000000000853,1928,9,100,8
0.013636363636365445,1928,10,100,10
0.04772727272727195,1928,11,100,10
0.10000000000000853,1928,12,100,10
0.09999999999999432,1928,13,100,63
0.09999999999999432,1928,14,100,5
0.10000000000000853,1928,15,100,9
0.10000000000000853,1929,0,100,7
0.09999999999999432,1929,1,100,8
0.10000000000000853,1929,2,100,12
0.10000000000000853,1929,3,100,4
0.10000000000000853,1929,4,100,36
0.09999999999999432,1929,5,100,11
0.10000000000000853,1929,6,100,5
0.10000000000000853,1929,7,100,11
0.10000000000000853,1929,8,100,6
0.10000000000000853,1929,9,100,11
0.09999999999999432,1929,10,100,5
0.004545454545450411,1929,11,100,63
0.06818181818181301,1929,12,100,72
0.09999999999999432,1929,13,100,3
0.09999999999999432,1929,14,100,11
0.09999999999999432,1929,15,100,5
0.09999999999999432,1930,0,100,11
0.09999999999999432,1930,1,100,7
0.10000000000000853,1930,2,100,12
0.09999999999999432,1930,3,100,5
0.09999999999999432,1930,4,100,66
0.10000000000000853,1930,5,100,3
0.10000000000000853,1930,6,100,11
0.10000000000000853,1930,7,100,6
0.09999999999999432,1930,8,100,10
0.09999999999999432,1930,9,100,6
0.09999999999999432,1930,10,100,12
0.10000000000000853,1930,11,100,5
0.10000000000000853,1930,12,100,63
0.06590909090910202,1930,13,100,71
0.09999999999999432,1930,14,100,4
0.09999999999999432,1930,15,100,11
0.10000000000000853,1931,0,100,8
0.0022727272727252057,1931,1,100,11
0.10000000000000853,1931,2,100,9
0.09999999999999432,1931,3,100,11
0.09999999999999432,1931,4,100,9
0.09999999999999432,1931,5,100,11
0.10000000000000853,1931,6,100,8
0.09999999999999432,1931,7,100,11
0.09999999999999432,1931,8,100,10
0.09999999999999432,1931,9,100,11
0.10000000000000853,1931,10,100,11
0.10000000000000853,1931,11,100,10
0.10000000000000853,1931,12,100,11
0.09999999999999432,1931,13,100,9
0.10000000000000853,1931,14,100,6
0.10000000000000853,1931,15,100,9
0.10000000000000853,1932,0,100,11
0.09999999999999432,1932,1,100,8
0.09999999999999432,1932,2,100,9
0.09999999999999432,1932,3,100,8
0.10000000000000853,1932,4,100,7
0.09999999999999432,1932,5,100,7
0.09999999999999432,1932,6,100,8
0.10000000000000853,1932,7,100,8
0.09999999999999432,1932,8,100,8
0.10000000000000853,1932,9,100,7
0.09999999999999432,1932,10,100,7
0.09999999999999432,1932,11,100,9
0.10000000000000853,1932,12,100,8
0.10000000000000853,1932,13,100,7
0.10000000000000853,1932,14,100,7
0.09999999999999432,1932,15,100,9
0.09999999999999432,1933,0,100,6
0.013636363636365445,1933,1,100,9
0.10000000000000853,1933,2,100,1
0.09999999999999432,1933,3,100,4
0.10000000000000853,1933,4,100,2
0.09999999999999432,1933,5,100,16
0.10000000000000853,1933,6,100,2
0.09999999999999432,1933,7,100,4
0.10000000000000853,1933,8,100,2
0.10000000000000853,1933,9,100,4
0.09999999999999432,1933,10,100,1
0.09999999999999432,1933,11,100,4
0.09999999999999432,1933,12,100,2
0.10000000000000853,1933,13,100,14
0.09999999999999432,1933,14,100,1
0.09999999999999432,1933,15,100,4
0.09999999999999432,1934,0,100,3
0.10000000000000853,1934,1,100,3
0.10000000000000853,1934,2,100,1
0.09999999999999432,1934,3,100,4
0.09999999999999432,1934,4,100,1
0.09999999999999432,1934,5,100,17
0.09999999999999432,1934,6,100,2
0.10000000000000853,1934,7,100,4
0.09999999999999432,1934,8,100,2
0.09999999999999432,1934,9,100,4
0.10000000000000853,1934,10,100,2
0.10000000000000853,1934,11,100,4
0.09999999999999432,1934,12,100,2
0.10000000000000853,1934,13,100,15
0.09999999999999432,1934,14,100,4
0.09999999999999432,1934,15,100,3
0.09999999999999432,1935,0,100,4
0.09999999999999432,1935,1,100,2
0.09999999999999432,1935,2,100,4
0.10000000000000853,1935,3,100,2
0.10000000000000853,1935,4,100,15
0.09999999999999432,1935,5,100,4
0.10000000000000853,1935,6,100,2
0.10000000000000853,1935,7,100,4
0.10000000000000853,1935,8,100,2
0.09999999999999432,1935,9,100,6
0.09999999999999432,1935,10,100,2
0.09999999999999432,1935,11,100,17
0.10000000000000853,1935,12,100,4
0.09999999999999432,1935,13,100,3
0.09999999999999432,1935,14,100,4
0.10000000000000853,1935,15,100,2
0.10000000000000853,1936,0,100,4
0.09999999999999432,1936,1,100,2
0.09999999999999432,1936,2,100,17
0.09999999999999432,1936,3,100,2
0.09999999999999432,1936,4,100,4
0.10000000000000853,1936,5,100,2
0.09999999999999432,1936,6,100,5
0.09999999999999432,1936,7,100,2
0.09999999999999432,1936,8,100,5
0.10000000000000853,1936,9,100,2
0.10000000000000853,1936,10,100,16
0.09999999999999432,1936,11,100,2
0.09999999999999432,1936,12,100,5
0.09999999999999432,1936,13,100,4
0.10000000000000853,1936,14,100,4
0.09999999999999432,1936,15,100,1
0.09999999999999432,1937,0,100,2
0.09999999999999432,1937,1,100,2
0.09999999999999432,1937,2,100,17
0.09999999999999432,1937,3,100,2
0.09999999999999432,1937,4,100,4
0.09999999999999432,1937,5,100,1
0.09999999999999432,1937,6,100,4
0.10000000000000853,1937,7,100,1
0.10000000000000853,1937,8,100,4
0.09999999999999432,1937,9,100,2
0.09999999999999432,1937,10,100,17
0.10000000000000853,1937,11,100,2
0.10000000000000853,1937,12,100,4
0.10000000000000853,1937,13,100,4
0.09999999999999432,1937,14,100,4
0.09999999999999432,1937,15,100,2
0.09999999999999432,1938,0,100,4
0.10000000000000853,1938,1,100,2
0.10000000000000853,1938,2,100,17
0.09999999999999432,1938,3,100,2
0.09999999999999432,1938,4,100,4
0.10000000000000853,1938,5,100,2
0.10000000000000853,1938,6,100,4
0.09999999999999432,1938,7,100,2
0.09999999999999432,1938,8,100,4
0.10000000000000853,1938,9,100,2
0.09999999999999432,1938,10,100,16
0.10000000000000853,1938,11,100,1
0.09999999999999432,1938,12,100,4
0.09999999999999432,1938,13,100,4
0.10000000000000853,1938,14,100,1
0.10000000000000853,1938,15,100,4
0.09999999999999432,1939,0,100,2
0.09999999999999432,1939,1,100,18
0.10000000000000853,1939,2,100,4
0.09999999999999432,1939,3,100,2
0.09999999999999432,1939,4,100,4
0.10000000000000853,1939,5,100,2
0.09999999999999432,1939,6,100,4
0.10000000000000853,1939,7,100,2
0.10000000000000853,1939,8,100,15
0.09999999999999432,1939,9,100,3
0.10000000000000853,1939,10,100,2
0.09999999999999432,1939,11,100,9
0.10000000000000853,1939,12,100,8
0.09999999999999432,1939,13,100,7
0.10000000000000853,1939,14,100,10
0.09999999999999432,1939,15,100,37
0.09999999999999432,1940,0,100,6
0.10000000000000853,1940,1,100,10
0.09999999999999432,1940,2,100,5
0.09999999999999432,1940,3,100,5
0.10000000000000853,1940,4,100,6
0.10000000000000853,1940,5,100,9
0.10000000000000853,1940,6,100,33
0.09999999999999432,1940,7,100,4
0.09999999999999432,1940,8,100,6
0.10000000000000853,1940,9,100,11
0.09999999999999432,1940,10,100,6
0.10000000000000853,1940,11,100,7
0.09999999999999432,1940,12,100,7
0.09999999999999432,1940,13,100,11
0.09999999999999432,1940,14,100,36
0.10000000000000853,1940,15,100,5
0.09999999999999432,1941,0,100,5
0.09999999999999432,1941,1,100,11
0.10000000000000853,1941,2,100,7
0.10000000000000853,1941,3,100,7
0.09999999999999432,1941,4,100,8
0.09999999999999432,1941,5,100,10
0.09999999999999432,1941,6,100,34
0.10000000000000853,1941,7,100,7
0.10000000000000853,1941,8,100,12
0.09999999999999432,1941,9,100,7
0.09999999999999432,1941,10,100,9
0.09999999999999432,1941,11,100,7
0.10000000000000853,1941,12,100,11
0.09999999999999432,1941,13,100,35
0.09999999999999432,1941,14,100,7
0.09999999999999432,1941,15,100,15
0.09999999999999432,1942,0,100,7
0.09999999999999432,1942,1,100,8
0.09999999999999432,1942,2,100,9
0.09999999999999432,1942,3,100,11
0.10000000000000853,1942,4,100,37
0.10000000000000853,1942,5,100,6
0.09999999999999432,1942,6,100,8
0.09999999999999432,1942,7,100,14
0.10000000000000853,1942,8,100,7
0.10000000000000853,1942,9,100,8
0.09999999999999432,1942,10,100,5
0.09999999999999432,1942,11,100,3
0.09999999999999432,1942,12,100,6
0.10000000000000853,1942,13,100,5
0.09999999999999432,1942,14,100,4
0.09999999999999432,1942,15,100,5
0.10000000000000853,1943,0,100,3
0.10000000000000853,1943,1,100,5
0.10000000000000853,1943,2,100,3
0.09999999999999432,1943,3,100,5
0.10000000000000853,1943,4,100,4
0.10000000000000853,1943,5,100,3
0.10000000000000853,1943,6,100,3
0.09999999999999432,1943,7,100,3
0.09999999999999432,1943,8,100,5
0.09999999999999432,1943,9,100,4
0.10000000000000853,1943,10,100,5
0.09999999999999432,1943,11,100,3
0.09999999999999432,1943,12,100,4
0.09999999999999432,1943,13,100,4
0.10000000000000853,1943,14,100,4
0.09999999999999432,1943,15,100,3
0.09999999999999432,1944,0,100,5
0.09999999999999432,1944,1,100,6
0.10000000000000853,1944,2,100,4
0.09999999999999432,1944,3,100,4
0.09999999999999432,1944,4,100,4
0.09999999999999432,1944,5,100,4
0.10000000000000853,1944,6,100,5
0.10000000000000853,1944,7,100,3
0.10000000000000853,1944,8,100,6
0.10000000000000853,1944,9,100,5
0.09999999999999432,1944,10,100,4
0.09999999999999432,1944,11,100,5
0.09999999999999432,1944,12,100,3
0.09999999999999432,1944,13,100,5
0.10000000000000853,1944,14,100,3
0.10000000000000853,1944,15,100,3
0.09999999999999432,1945,0,100,5
0.10000000000000853,1945,1,100,4
0.10000000000000853,1945,2,100,4
0.10000000000000853,1945,3,100,4
0.10000000000000853,1945,4,100,5
0.09999999999999432,1945,5,100,4
0.10000000000000853,1945,6,100,5
0.10000000000000853,1945,7,100,5
0.09999999999999432,1945,8,100,4
0.09999999999999432,1945,9,100,4
0.09999999999999432,1945,10,100,3
0.10000000000000853,1945,11,100,5
0.09999999999999432,1945,12,100,3
0.09999999999999432,1945,13,100,5
0.10000000000000853,1945,14,100,5
0.09999999999999432,1945,15,100,4
0.09999999999999432,1946,0,100,4
0.09999999999999432,1946,1,100,4
0.09999999999999432,1946,2,100,5
0.09999999999999432,1946,3,100,3
0.09999999999999432,1946,4,100,5
0.09999999999999432,1946,5,100,5
0.09999999999999432,1946,6,100,3
0.09999999999999432,1946,7,100,3
0.09999999999999432,1946,8,100,5
0.10000000000002274,1946,9,100,4
0.09999999999999432,1946,10,100,5
0.09999999999999432,1946,11,100,5
0.10000000000002274,1946,12,100,4
0.09999999999999432,1946,13,100,4
0.09999999999999432,1946,14,100,4
0.09999999999999432,1946,15,100,5
0.09999999999999432,1947,0,100,4
0.09999999999999432,1947,1,100,5
0.09999999999999432,1947,2,100,5
0.09999999999999432,1947,3,100,4
0.09999999999999432,1947,4,100,4
0.09999999999999432,1947,5,100,3
0.09999999999999432,1947,6,100,5
0.09999999999999432,1947,7,100,4
0.09999999999999432,1947,8,100,5
0.10000000000002274,1947,9,100,5
0.09999999999999432,1947,10,100,5
0.09999999999999432,1947,11,100,4
0.09999999999999432,1947,12,100,4
0.10000000000002274,1947,13,100,5
0.09999999999999432,1947,14,100,3
0.09999999999999432,1947,15,100,5
0.10000000000002274,1948,0,100,4
0.09999999999999432,1948,1,100,5
0.09999999999999432,1948,2,100,3
0.09999999999999432,1948,3,100,5
0.10000000000002274,1948,4,100,3
0.09999999999999432,1948,5,100,5
0.09999999999999432,1948,6,100,3
0.10000000000002274,1948,7,100,3
0.09999999999999432,1948,8,100,1
0.09999999999999432,1948,9,100,6
0.09999999999999432,1948,10,100,2
0.09999999999999432,1948,11,100,13
0.09999999999999432,1948,12,100,2
0.10000000000002274,1948,13,100,1
0.09999999999999432,1948,14,100,1
0.09999999999999432,1948,15,100,3
0.09999999999999432,1949,0,100,4
0.09999999999999432,1949,1,100,14
0.09999999999999432,1949,2,100,3
0.10000000000002274,1949,3,100,5
0.09999999999999432,1949,4,100,2
0.09999999999999432,1949,5,100,14
0.09999999999999432,1949,6,100,2
0.10000000000002274,1949,7,100,3
0.09999999999999432,1949,8,100,3
0.10000000000002274,1949,9,100,16
0.09999999999999432,1949,10,100,3
0.09999999999999787,1949,11,61,9
0.10000000000000142,1949,12,61,21
0.09999999999999787,1949,13,61,19
0.10000000000000142,1949,14,61,21
0.09999999999999787,1949,15,61,16
0.10000000000000142,1950,0,61,36
0.10000000000000142,1950,1,61,53
0.10000000000000142,1950,2,61,28
0.10000000000000142,1950,3,61,35
0.10000000000000142,1950,4,61,29
0.10000000000000142,1950,5,61,44
0.10000000000000142,1950,6,61,25
0.10000000000000142,1950,7,61,31
0.10000000000000142,1950,8,61,32
0.09999999999999432,1950,9,61,42
0.10000000000000142,1950,10,61,47
0.09999999999999432,1950,11,61,38
0.10000000000000142,1950,12,61,46
0.10000000000000142,1950,13,61,30
0.10000000000000142,1950,14,61,54
0.10000000000000142,1950,15,61,38
0.10000000000000142,1951,0,61,27
0.10000000000000142,1951,1,61,34
0.10000000000000142,1951,2,61,29
0.09999999999999432,1951,3,61,38
0.09999999999999432,1951,4,61,10
0.10000000000000142,1951,5,61,28
0.10000000000000142,1951,6,61,22
0.10000000000000142,1951,7,61,13
0.10000000000000142,1951,8,61,25
0.10000000000000142,1951,9,61,33
0.10000000000000142,1951,10,61,41
0.10000000000000142,1951,11,61,30
0.10000000000000142,1951,12,61,45
0.10000000000000142,1951,13,61,23
0.10000000000000142,1951,14,61,40
0.10000000000000142,1951,15,61,29
0.10000000000000142,1952,0,61,30
0.09999999999999432,1952,1,61,63
0.10000000000000142,1952,2,61,41
0.10000000000000142,1952,3,61,41
0.10000000000000142,1952,4,61,51
0.10000000000000142,1952,5,61,48
0.10000000000000142,1952,6,61,32
0.10000000000000142,1952,7,61,3
0.09999999999999432,1952,8,61,6
0.10000000000000142,1952,9,61,9
0.09999999999999432,1952,10,61,10
0.10000000000000142,1952,11,61,24
0.10000000000000142,1952,12,61,36
0.10000000000000142,1952,13,61,30
0.10000000000000142,1952,14,61,39
0.10000000000000142,1952,15,61,45
0.10000000000000142,1953,0,61,59
0.10000000000000142,1953,1,61,41
0.09999999999999432,1953,2,61,28
0.10000000000000142,1953,3,61,31
0.09999999999999432,1953,4,61,34
0.10000000000000142,1953,5,61,35
0.10000000000000142,1953,6,61,38
0.10000000000000142,1953,7,61,41
0.10000000000000142,1953,8,61,38
0.09999999999999432,1953,9,61,32
0.10000000000000142,1953,10,61,30
0.10000000000000142,1953,11,61,34
0.09999999999999432,1953,12,61,31
0.10000000000000142,1953,13,61,32
0.10000000000000142,1953,14,61,43
0.10000000000000142,1953,15,61,53
0.09999999999999432,1954,0,61,45
0.10000000000000142,1954,1,61,28
0.10000000000000142,1954,2,61,43
0.10000000000000142,1954,3,61,28
0.10000000000000142,1954,4,61,37
0.09999999999999432,1954,5,61,52
0.10000000000000142,1954,6,61,39
0.10000000000000142,1954,7,61,57
0.10000000000000142,1954,8,61,33
0.10000000000000142,1954,9,61,29
0.10000000000000142,1954,10,61,38
0.10000000000000142,1954,11,61,37
0.10000000000000142,1954,12,61,28
0.10000000000000142,1954,13,61,48
0.09999999999999432,1954,14,61,34
0.10000000000000853,1954,15,61,29
0.10000000000000853,1955,0,61,34
0.09999999999999432,1955,1,61,23
0.10000000000000853,1955,2,61,28
0.09999999999999432,1955,3,61,27
0.10000000000000853,1955,4,61,33
0.09999999999999432,1955,5,61,60
0.10000000000000853,1955,6,61,44
0.09999999999999432,1955,7,61,39
0.10000000000000853,1955,8,61,41
0.10000000000000853,1955,9,61,28
0.09999999999999432,1955,10,61,35
0.09999999999999432,1955,11,61,34
0.10000000000000853,1955,12,61,32
0.09999999999999432,1955,13,61,37
0.10000000000000853,1955,14,61,30
0.09999999999999432,1955,15,61,28
0.10000000000000853,1956,0,61,45
0.09999999999999432,1956,1,61,29
0.10000000000000853,1956,2,61,42
0.09999999999999432,1956,3,61,33
0.09999999999999432,1956,4,61,43
0.09999999999999432,1956,5,61,31
0.09999999999999432,1956,6,61,27
0.10000000000000853,1956,7,61,42
0.10000000000000853,1956,8,61,38
0.09999999999999432,1956,9,61,32
0.10000000000000853,1956,10,61,39
0.09999999999999432,1956,11,61,66
0.09999999999999432,1956,12,61,53
0.09999999999999432,1956,13,61,52
0.10000000000000853,1956,14,61,46
0.10000000000000853,1956,15,61,51
0.09999999999999432,1957,0,61,31
0.09999999999999432,1957,1,61,33
0.10000000000000853,1957,2,61,21
0.09999999999999432,1957,3,61,26
0.09999999999999432,1957,4,61,24
0.10000000000000853,1957,5,61,31
0.09999999999999432,1957,6,61,26
0.09999999999999432,1957,7,61,30
0.09999999999999432,1957,8,61,28
0.10000000000000853,1957,9,61,16
0.10000000000000853,1957,10,61,28
0.10000000000000853,1957,11,61,14
0.10000000000000853,1957,12,61,16
0.10000000000000853,1957,13,61,30
0.09999999999999432,1957,14,61,21
0.10000000000000853,1957,15,61,34
0.09999999999999432,1958,0,61,38
0.09999999999999432,1958,1,61,20
0.09999999999999432,1958,2,61,27
0.10000000000000853,1958,3,61,25
0.10000000000000853,1958,4,61,28
0.09999999999999432,1958,5,61,22
0.10000000000000853,1958,6,61,21
0.09999999999999432,1958,7,61,34
0.09999999999999432,1958,8,61,24
0.09999999999999432,1958,9,61,26
0.10000000000000853,1958,10,61,37
0.10000000000000853,1958,11,61,23
0.10000000000000853,1958,12,61,23
0.10000000000000853,1958,13,61,37
0.09999999999999432,1958,14,61,34
0.10000000000000853,1958,15,61,32
0.10000000000000853,1959,0,61,33
0.09999999999999432,1959,1,61,35
0.09999999999999432,1959,2,61,44
0.09999999999999432,1959,3,61,42
0.09999999999999432,1959,4,61,45
0.10000000000002274,1959,5,61,26
0.09999999999999432,1959,6,61,32
0.09999999999999432,1959,7,61,32
0.09999999999999432,1959,8,61,20
0.09999999999999432,1959,9,61,25
0.10000000000002274,1959,10,61,34
0.09999999999999432,1959,11,61,29
0.09999999999999432,1959,12,61,20
0.09999999999999432,1959,13,61,28
0.09999999999999432,1959,14,61,24
0.09999999999999432,1959,15,61,19
0.09999999999999432,1960,0,61,33
0.09999999999999432,1960,1,61,32
0.10000000000002274,1960,2,61,36
0.09999999999999432,1960,3,61,35
0.09999999999999432,1960,4,61,49
0.09999999999999432,1960,5,61,31
0.10000000000002274,1960,6,61,29
0.09999999999999432,1960,7,61,20
0.09999999999999432,1960,8,61,28
0.09999999999999432,1960,9,61,39
0.09999999999999432,1960,10,61,32
0.10000000000002274,1960,11,61,25
0.09999999999999432,1960,12,61,36
0.10000000000002274,1960,13,61,32
0.09999999999999432,1960,14,61,37
0.10000000000002274,1960,15,61,37
0.09999999999999432,1961,0,61,41
0.09999999999999432,1961,1,61,35
0.10000000000002274,1961,2,61,30
0.09999999999999432,1961,3,61,37
0.09999999999999432,1961,4,61,61
0.09999999999999432,1961,5,61,40
0.09999999999999432,1961,6,61,45
0.09999999999999432,1961,7,61,18
0.09999999999999432,1961,8,61,26
0.09999999999999432,1961,9,61,50
0.10000000000002274,1961,10,61,21
0.10000000000002274,1961,11,61,19
0.09999999999999432,1961,12,61,32
0.09999999999999432,1961,13,61,39
0.09999999999999432,1961,14,61,17
0.10000000000002274,1961,15,61,30
0.09999999999999432,1962,0,61,46
0.09999999999999432,1962,1,61,46
0.09999999999999432,1962,2,61,32
0.09999999999999432,1962,3,61,31
0.09999999999999432,1962,4,61,45
0.10000000000002274,1962,5,61,53
0.09999999999999432,1962,6,61,32
0.10000000000002274,1962,7,61,53
0.10000000000002274,1962,8,61,34
0.09999999999999432,1962,9,61,41
0.09999999999999432,1962,10,61,32
0.10000000000002274,1962,11,61,24
0.09999999999999432,1962,12,61,41
0.09999999999999432,1962,13,61,26
0.09999999999999432,1962,14,61,25
0.09999999999999432,1962,15,61,47
0.09999999999999432,1963,0,61,21
0.09999999999999432,1963,1,61,30
0.09999999999999432,1963,2,61,54
0.09999999999999432,1963,3,61,42
0.10000000000002274,1963,4,61,30
0.10000000000002274,1963,5,61,43
0.09999999999999432,1963,6,61,45
0.09999999999999432,1963,7,61,28
0.10000000000002274,1963,8,61,44
0.09999999999999432,1963,9,61,44
0.09999999999999432,1963,10,61,53
0.09999999999999432,1963,11,61,46
0.09999999999999432,1963,12,61,32
0.09999999999999432,1963,13,61,37
0.09999999999999998,1963,14,74,48
0.09999999999999998,1963,15,74,99
0.09999999999999987,1964,0,74,65
0.10000000000000009,1964,1,74,106
0.10000000000000009,1964,2,74,107
0.10000000000000009,1964,3,74,37
0.10000000000000009,1964,4,74,102
0.10000000000000009,1964,5,74,102
0.09999999999999964,1964,6,74,51
0.10000000000000009,1964,7,74,42
0.002272727272727426,1964,8,74,78
0.10000000000000009,1964,9,74,108
0.10000000000000009,1964,10,74,94
0.10000000000000009,1964,11,74,93
0.09999999999999964,1964,12,74,17
0.09999999999999964,1964,13,74,56
0.09999999999999964,1964,14,74,103
0.10000000000000053,1964,15,74,103
0.10000000000000053,1965,0,74,84
0.10000000000000053,1965,1,74,84
0.10000000000000053,1965,2,74,123
0.10000000000000053,1965,3,74,95
0.10000000000000053,1965,4,74,25
0.10000000000000053,1965,5,74,72
0.10000000000000053,1965,6,74,88
0.10000000000000053,1965,7,74,99
0.09999999999999964,1965,8,74,67
0.10000000000000142,1965,9,74,69
0.10000000000000142,1965,10,74,109
0.09999999999999964,1965,11,74,103
0.09999999999999964,1965,12,74,3
0.01590909090909065,1965,13,74,41
0.10000000000000142,1965,14,74,15
0.09999999999999964,1965,15,74,61
0.09999999999999964,1966,0,74,95
0.09999999999999964,1966,1,74,64
0.09999999999999964,1966,2,74,112
0.09999999999999964,1966,3,74,76
0.09999999999999964,1966,4,74,29
0.10000000000000142,1966,5,74,69
0.09999999999999964,1966,6,74,96
0.09999999999999964,1966,7,74,87
0.09999999999999964,1966,8,74,61
0.09999999999999964,1966,9,74,73
0.10000000000000142,1966,10,74,67
0.09999999999999964,1966,11,74,78
0.09999999999999964,1966,12,74,67
0.09999999999999964,1966,13,74,73
0.09999999999999964,1966,14,74,77
0.09999999999999964,1966,15,74,98
0.09999999999999964,1967,0,74,58
0.04772727272727195,1967,1,74,97
0.10000000000000142,1967,2,74,89
0.09999999999999964,1967,3,74,26
0.09999999999999787,1967,4,74,83
0.10000000000000142,1967,5,74,89
0.10000000000000142,1967,6,74,87
0.10000000000000142,1967,7,74,43
0.045454545454546746,1967,8,74,87
0.10000000000000142,1967,9,74,34
0.09999999999999787,1967,10,74,93
0.09999999999999787,1967,11,74,96
0.10000000000000142,1967,12,74,68
0.09999999999999787,1967,13,74,67
0.10000000000000142,1967,14,74,55
0.09999999999999787,1967,15,74,97
0.09999999999999787,1968,0,74,86
0.09999999999999787,1968,1,74,66
0.10000000000000142,1968,2,74,93
0.10000000000000142,1968,3,74,74
0.09999999999999787,1968,4,74,91
0.09999999999999787,1968,5,74,13
0.10000000000000142,1968,6,74,62
0.10000000000000142,1968,7,74,89
0.10000000000000142,1968,8,74,89
0.09999999999999787,1968,9,74,77
0.0022727272727252057,1968,10,74,55
0.10000000000000142,1968,11,74,84
0.09999999999999787,1968,12,74,95
0.09999999999999787,1968,13,74,98
0.10000000000000142,1968,14,74,83
0.10000000000000142,1968,15,74,87
0.10000000000000142,1969,0,74,100
0.09999999999999787,1969,1,74,73
0.10000000000000142,1969,2,74,76
0.10000000000000142,1969,3,74,72
0.09999999999999787,1969,4,74,96
0.09999999999999787,1969,5,74,83
0.10000000000000142,1969,6,74,68
0.09999999999999787,1969,7,74,106
0.10000000000000142,1969,8,74,96
0.10000000000000142,1969,9,74,95
0.10000000000000142,1969,10,74,79
0.09999999999999787,1969,11,74,104
0.09999999999999787,1969,12,74,98
0.10000000000000142,1969,13,74,98
0.10000000000000142,1969,14,74,109
0.09999999999999787,1969,15,74,38
0.10000000000000142,1970,0,74,123
0.10000000000000142,1970,1,74,75
0.09999999999999787,1970,2,74,70
0.10000000000000142,1970,3,74,80
0.10000000000000142,1970,4,74,14
0.10000000000000142,1970,5,74,87
0.10000000000000142,1970,6,74,91
0.10000000000000142,1970,7,74,84
0.10000000000000142,1970,8,74,84
0.09999999999999432,1970,9,74,83
0.10000000000000142,1970,10,74,115
0.09999999999999432,1970,11,74,77
0.09999999999999432,1970,12,74,101
0.10000000000000142,1970,13,74,90
0.10000000000000142,1970,14,74,102
0.10000000000000142,1970,15,74,80
0.10000000000000142,1971,0,74,75
0.10000000000000142,1971,1,74,96
0.10000000000000142,1971,2,74,48
0.10000000000000142,1971,3,74,83
0.10000000000000142,1971,4,74,80
0.09999999999999432,1971,5,74,80
0.10000000000000142,1971,6,74,86
0.10000000000000142,1971,7,74,94
0.10000000000000142,1971,8,74,87
0.09999999999999432,1971,9,74,84
0.10000000000000142,1971,10,74,61
0.10000000000000142,1971,11,74,77
0.10000000000000142,1971,12,74,85
0.10000000000000142,1971,13,74,73
0.10000000000000142,1971,14,74,108
0.10000000000000142,1971,15,74,86
0.09999999999999432,1972,0,74,106
0.10000000000000142,1972,1,74,76
0.10000000000000142,1972,2,74,108
0.10000000000000142,1972,3,74,105
0.10000000000000142,1972,4,74,67
0.10000000000000142,1972,5,74,72
0.10000000000000142,1972,6,74,69
0.10000000000000142,1972,7,74,104
0.09999999999999432,1972,8,74,10
0.10000000000000142,1972,9,74,120
0.10000000000000142,1972,10,74,111
0.10000000000000142,1972,11,74,112
0.09999999999999432,1972,12,74,120
0.09999999999999432,1972,13,74,95
0.10000000000000142,1972,14,74,107
0.09999999999999432,1972,15,74,67
0.09999999999999432,1973,0,74,101
0.10000000000000142,1973,1,74,125
0.09999999999999432,1973,2,74,127
0.09999999999999432,1973,3,74,86
0.09999999999999432,1973,4,74,127
0.10000000000000142,1973,5,74,75
0.10000000000000142,1973,6,74,117
0.10000000000000142,1973,7,74,127
0.10000000000000142,1973,8,74,97
0.10000000000000142,1973,9,74,72
0.10000000000000142,1973,10,74,120
0.10000000000000142,1973,11,74,120
0.10000000000000142,1973,12,74,85
0.09999999999999432,1973,13,74,109
0.09999999999999432,1973,14,74,118
0.10000000000000142,1973,15,74,127
0.10000000000000142,1974,0,74,81
0.10000000000000142,1974,1,74,127
0.10000000000000142,1974,2,74,86
0.10000000000000142,1974,3,74,112
0.10000000000000142,1974,4,74,123
0.10000000000000142,1974,5,74,93
0.10000000000000142,1974,6,74,74
0.10000000000000142,1974,7,74,68
0.10000000000000142,1974,8,74,127
0.10000000000000142,1974,9,74,98
0.10000000000000142,1974,10,74,19
0.10000000000000142,1974,11,74,127
0.10000000000000853,1974,12,74,81
0.09999999999999432,1974,13,74,89
0.10000000000000853,1974,14,74,93
0.09999999999999432,1974,15,74,50
0.10000000000000853,1975,0,74,18
0.09999999999999432,1975,1,74,106
0.06818181818181301,1975,2,74,127
0.09999999999999432,1975,3,74,105
0.09999999999999432,1975,4,74,105
0.09999999999999432,1975,5,74,126
0.09999999999999432,1975,6,74,111
0.09999999999999432,1975,7,74,43
0.06818181818181301,1975,8,74,84
0.09999999999999432,1975,9,74,127
0.09999999999999432,1975,10,74,120
0.10000000000000853,1975,11,74,91
0.10000000000000853,1975,12,74,94
0.10000000000000853,1975,13,74,102
0.10000000000000853,1975,14,74,121
0.09999999999999432,1975,15,74,88
0.10000000000000853,1976,0,74,60
0.10000000000000853,1976,1,74,60
0.09999999999999432,1976,2,74,119
0.10000000000000853,1976,3,74,103
0.09999999999999432,1976,4,74,84
0.09999999999999432,1976,5,74,124
0.10000000000000853,1976,6,74,103
0.09999999999999432,1976,7,74,79
0.09999999999999432,1976,8,74,72
0.10000000000000853,1976,9,74,72
0.09999999999999432,1976,10,74,92
0.09999999999999432,1976,11,74,95
0.09999999999999432,1976,12,74,57
0.09999999999999432,1976,13,74,90
0.10000000000000853,1976,14,74,61
0.09999999999999432,1976,15,74,99
0.09999999999999432,1977,0,74,125
0.09999999999999432,1977,1,74,93
0.10000000000000853,1977,2,74,111
0.10000000000000853,1977,3,74,70
0.09999999999999432,1977,4,74,98
0.09999999999999432,1977,5,74,127
0.09999999999999432,1977,6,74,106
0.09999999999999432,1977,7,74,79
0.10000000000000853,1977,8,74,127
0.10000000000000853,1977,9,74,15
0.09999999999999432,1977,10,74,55
0.09999999999999432,1977,11,74,105
0.09999999999999432,1977,12,74,101
0.10000000000000853,1977,13,74,112
0.09999999999999432,1977,14,74,114
0.09999999999999432,1977,15,74,110
0.10000000000000853,1978,0,74,127
0.10000000000000853,1978,1,74,107
0.09999999999999432,1978,2,74,94
0.10000000000000853,1978,3,74,15
0.10000000000000853,1978,4,74,70
0.10000000000000853,1978,5,74,111
0.10000000000000853,1978,6,74,97
0.09999999999999432,1978,7,74,103
0.09999999999999432,1978,8,74,84
0.09999999999999432,1978,9,74,118
0.09999999999999432,1978,10,74,81
0.10000000000000853,1978,11,74,107
0.09999999999999432,1978,12,74,71
0.10000000000000853,1978,13,74,108
0.09999999999999432,1978,14,74,95
0.09999999999999432,1978,15,74,94
0.09999999999999432,1979,0,74,111
0.10000000000000853,1979,1,74,105
0.09999999999999432,1979,2,74,91
0.10000000000000853,1979,3,74,103
0.10000000000000853,1979,4,74,105
0.09999999999999432,1979,5,74,61
0.09999999999999432,1979,6,74,89
0.10000000000000853,1979,7,74,127
0.09999999999999432,1979,8,74,120
0.10000000000000853,1979,9,74,73
0.10000000000000853,1979,10,74,77
0.10000000000000853,1979,11,74,115
0.09999999999999432,1979,12,74,106
0.10000000000000853,1979,13,74,49
0.10000000000000853,1979,14,74,100
0.10000000000000853,1979,15,74,113
0.10000000000000853,1980,0,74,93
0.09999999999999432,1980,1,74,87
0.10000000000000853,1980,2,74,65
0.10000000000000853,1980,3,74,125
0.04772727272727195,1980,4,74,127
0.09999999999999432,1980,5,74,96
0.09999999999999432,1980,6,74,57
0.09999999999999432,1980,7,74,107
0.09999999999999432,1980,8,74,11
0.09999999999999432,1980,9,74,73
0.09999999999999432,1980,10,74,124
0.09999999999999432,1980,11,74,91
0.10000000000000853,1980,12,74,106
0.10000000000000853,1980,13,74,78
0.045454545454546746,1980,14,74,103
0.09999999999999432,1980,15,74,115
0.10000000000000853,1981,0,74,127
0.10000000000000853,1981,1,74,13
0.09999999999999432,1981,2,74,122
0.09999999999999432,1981,3,74,83
0.09999999999999432,1981,4,74,57
0.024999999999991473,1981,5,74,88
0.09999999999999432,1981,6,74,108
0.10000000000000853,1981,7,74,89
0.09999999999999432,1981,8,74,94
0.09999999999999432,1981,9,74,114
0.10000000000000853,1981,10,74,77
0.09999999999999432,1981,11,74,94
0.09999999999999432,1981,12,74,120
0.09999999999999432,1981,13,74,114
0.09999999999999432,1981,14,74,92
0.09999999999999432,1981,15,74,79
0.10000000000000853,1982,0,74,111
0.10000000000000853,1982,1,74,85
0.09999999999999432,1982,2,74,107
0.10000000000000853,1982,3,74,78
0.09999999999999432,1982,4,74,24
0.09999999999999432,1982,5,74,93
0.056818181818172775,1982,6,74,109
0.10000000000000853,1982,7,74,84
0.09999999999999432,1982,8,74,89
0.09999999999999432,1982,9,74,67
0.10000000000000853,1982,10,74,94
0.09999999999999432,1982,11,74,78
0.10000000000000853,1982,12,74,92
0.10000000000000853,1982,13,74,86
0.09999999999999432,1982,14,74,89
0.09999999999999432,1982,15,74,81
0.09999999999999432,1983,0,74,87
0.09999999999999432,1983,1,74,116
0.09999999999999432,1983,2,74,22
0.10000000000000853,1983,3,74,74
0.10000000000000853,1983,4,74,94
0.10000000000000853,1983,5,74,96
0.10000000000000853,1983,6,74,58
0.09999999999999432,1983,7,74,66
0.09999999999999432,1983,8,74,107
0.10000000000000853,1983,9,74,79
0.10000000000000853,1983,10,74,76
0.10000000000000853,1983,11,74,90
0.10000000000000853,1983,12,74,75
0.09999999999999432,1983,13,74,84
0.09999999999999432,1983,14,74,90
0.09999999999999432,1983,15,74,6
0.09999999999999432,1984,0,74,100
0.10000000000002274,1984,1,74,81
0.09999999999999432,1984,2,74,76
0.09999999999999432,1984,3,74,115
0.10000000000002274,1984,4,74,120
0.09999999999999432,1984,5,74,65
0.09999999999999432,1984,6,74,79
0.09999999999999432,1984,7,74,90
0.056818181818186986,1984,8,74,109
0.09999999999999432,1984,9,74,15
0.09999999999999432,1984,10,74,64
0.09999999999999432,1984,11,74,72
0.09999999999999432,1984,12,74,15
0.09999999999999432,1984,13,74,50
0.10000000000002274,1984,14,74,87
0.09999999999999432,1984,15,74,60
0.09999999999999432,1985,0,74,84
0.09999999999999432,1985,1,74,86
0.09999999999999432,1985,2,74,51
0.09999999999999432,1985,3,74,59
0.10000000000002274,1985,4,74,54
0.09999999999999432,1985,5,74,91
0.09999999999999432,1985,6,74,58
0.09999999999999432,1985,7,74,20
0.09999999999999432,1985,8,74,73
0.09999999999999432,1985,9,74,76
0.09999999999999432,1985,10,74,69
0.10000000000002274,1985,11,74,88
0.09999999999999432,1985,12,74,96
0.10000000000002274,1985,13,74,85
0.09999999999999432,1985,14,74,74
0.09999999999999432,1985,15,74,50
0.10000000000002274,1986,0,74,81
0.10000000000002274,1986,1,74,89
0.10000000000002274,1986,2,74,58
0.09999999999999432,1986,3,74,12
0.10000000000002274,1986,4,74,65
0.09999999999999432,1986,5,74,77
0.10000000000002274,1986,6,74,95
0.09999999999999432,1986,7,74,23
0.09999999999999432,1986,8,74,83
0.09999999999999432,1986,9,74,76
0.09999999999999432,1986,10,74,91
0.09999999999999432,1986,11,74,78
0.09999999999999432,1986,12,74,81
0.09999999999999432,1986,13,74,106
0.09999999999999432,1986,14,74,97
0.09999999999999432,1986,15,74,19
0.09999999999999432,1987,0,74,94
0.10000000000002274,1987,1,74,78
0.09999999999999432,1987,2,74,82
0.10000000000002274,1987,3,74,66
0.10000000000002274,1987,4,74,83
0.09999999999999432,1987,5,74,91
0.09999999999999432,1987,6,74,42
0.09999999999999432,1987,7,74,77
0.10000000000002274,1987,8,74,64
0.10000000000002274,1987,9,74,62
0.09999999999999432,1987,10,74,49
0.09999999999999432,1987,11,74,69
0.10000000000002274,1987,12,74,59
0.10000000000002274,1987,13,74,76
0.09999999999999432,1987,14,74,70
0.09999999999999432,1987,15,74,19
0.056818181818186986,1988,0,74,72
0.025000000000005684,1988,1,74,88
0.10000000000002274,1988,2,74,53
0.09999999999999432,1988,3,74,71
0.09999999999999432,1988,4,74,102
0.09999999999999432,1988,5,74,46
0.09999999999999432,1988,6,74,64
0.09999999999999432,1988,7,74,66
0.09999999999999432,1988,8,74,49
0.10000000000000142,1988,9,72,14
0.09999999999999432,1988,10,72,15
0.10000000000000142,1988,11,72,39
0.09999999999999432,1988,12,72,12
0.10000000000000142,1988,13,72,20
0.10000000000000142,1988,14,72,11
0.10000000000000142,1988,15,72,27
0.09999999999999432,1989,0,72,10
0.10000000000000142,1989,1,72,24
0.10000000000000142,1989,2,72,1
0.09999999999999432,1989,3,72,16
0.06818181818181301,1989,4,72,19
0.10000000000000142,1989,5,72,7
0.09999999999999432,1989,6,72,16
0.10000000000000142,1989,7,72,8
0.06818181818182012,1989,8,72,16
0.10000000000000142,1989,9,72,10
0.10000000000000142,1989,10,72,28
0.10000000000000142,1989,11,72,8
0.10000000000000142,1989,12,72,27
0.10000000000000142,1989,13,72,10
0.10000000000000142,1989,14,72,14
0.10000000000000142,1989,15,72,15
0.10000000000000853,1990,0,72,31
0.09999999999999432,1990,1,72,22
0.09999999999999432,1990,2,72,48
0.10000000000000853,1990,3,72,17
0.09999999999999432,1990,4,72,40
0.09999999999999432,1990,5,72,17
0.09999999999999432,1990,6,72,46
0.09999999999999432,1990,7,72,29
0.09999999999999432,1990,8,72,58
0.09999999999999432,1990,9,72,5
0.09999999999999432,1990,10,72,17
0.09999999999999432,1990,11,72,19
0.09999999999999432,1990,12,72,31
0.10000000000000853,1990,13,72,25
0.10000000000000853,1990,14,72,23
0.09999999999999432,1990,15,72,28
0.09999999999999432,1991,0,72,34
0.09999999999999432,1991,1,72,13
0.04772727272727195,1991,2,72,44
0.09999999999999432,1991,3,72,43
0.09999999999999432,1991,4,72,30
0.09999999999999432,1991,5,72,28
0.09999999999999432,1991,6,72,22
0.10000000000000853,1991,7,72,16
0.09999999999999432,1991,8,72,20
0.09999999999999432,1991,9,72,21
0.10000000000000853,1991,10,72,24
0.10000000000000853,1991,11,72,7
0.09999999999999432,1991,12,72,18
0.09999999999999432,1991,13,72,24
0.10000000000000853,1991,14,72,11
0.10000000000000853,1991,15,72,19
0.10000000000000853,1992,0,72,18
0.10000000000000853,1992,1,72,14
0.09999999999999432,1992,2,72,20
0.10000000000000853,1992,3,72,28
0.09999999999999432,1992,4,72,19
0.09999999999999432,1992,5,72,14
0.09999999999999432,1992,6,72,22
0.09999999999999432,1992,7,72,30
0.09999999999999432,1992,8,72,19
0.10000000000000853,1992,9,72,10
0.09999999999999432,1992,10,72,13
0.09999999999999432,1992,11,72,24
0.10000000000000853,1992,12,72,24
0.09999999999999432,1992,13,72,12
0.10000000000000853,1992,14,72,31
0.09999999999999432,1992,15,72,18
0.09999999999999432,1993,0,72,54
0.10000000000000853,1993,1,72,40
0.09999999999999432,1993,2,72,22
0.09999999999999432,1993,3,72,48
0.09999999999999432,1993,4,72,19
0.10000000000000853,1993,5,72,23
0.09999999999999432,1993,6,72,4
0.09999999999999432,1993,7,72,25
0.09999999999999432,1993,8,72,30
0.09999999999999432,1993,9,72,31
0.09999999999999432,1993,10,72,32
0.09999999999999432,1993,11,72,66
0.09999999999999432,1993,12,72,13
0.10000000000000853,1993,13,72,24
0.09999999999999432,1993,14,72,27
0.10000000000000853,1993,15,72,33
0.09999999999999432,1994,0,72,38
0.09999999999999432,1994,1,72,18
0.09999999999999432,1994,2,72,12
0.10000000000000853,1994,3,72,35
0.09999999999999432,1994,4,72,14
0.09999999999999432,1994,5,72,25
0.10000000000000853,1994,6,72,25
0.09999999999999432,1994,7,72,17
0.056818181818186986,1994,8,72,24
0.09999999999999432,1994,9,72,28
0.09999999999999432,1994,10,72,48
0.10000000000002274,1994,11,72,19
0.09999999999999432,1994,12,72,16
0.09999999999999432,1994,13,72,29
0.09999999999999432,1994,14,72,45
0.09999999999999432,1994,15,72,23
0.09999999999999432,1995,0,72,41
0.09999999999999432,1995,1,72,37
0.10000000000002274,1995,2,72,34
0.09999999999999432,1995,3,72,36
0.10000000000002274,1995,4,72,3
0.09999999999999432,1995,5,72,10
0.09999999999999432,1995,6,72,14
0.025000000000005684,1995,7,72,23
0.09999999999999432,1995,8,72,25
0.09999999999999432,1995,9,72,20
0.10000000000002274,1995,10,72,19
0.09999999999999432,1995,11,72,13
0.09999999999999432,1995,12,72,13
0.09999999999999432,1995,13,72,29
0.09999999999999432,1995,14,72,19
0.09999999999999432,1995,15,72,42
0.09999999999999432,1996,0,72,30
0.09999999999999432,1996,1,72,14
0.06818181818181301,1996,2,72,50
0.10000000000002274,1996,3,72,31
0.09999999999999432,1996,4,72,20
0.056818181818186986,1996,5,72,45
0.09999999999999432,1996,6,72,24
0.09999999999999432,1996,7,72,26
0.10000000000002274,1996,8,72,4
0.09999999999999432,1996,9,72,14
0.10000000000002274,1996,10,72,34
0.09999999999999432,1996,11,72,27
0.10000000000002274,1996,12,72,25
0.09999999999999432,1996,13,72,20
0.09999999999999432,1996,14,72,26
0.10000000000002274,1996,15,72,34
0.09999999999999432,1997,0,72,24
0.09999999999999432,1997,1,72,32
0.09999999999999432,1997,2,72,27
0.10000000000002274,1997,3,72,17
0.09999999999999432,1997,4,72,14
0.09999999999999432,1997,5,72,17
0.10000000000002274,1997,6,72,25
0.09999999999999432,1997,7,72,5
0.09999999999999432,1997,8,72,11
0.09999999999999432,1997,9,72,31
0.09999999999999432,1997,10,72,30
0.09999999999999432,1997,11,72,14
0.09999999999999432,1997,12,72,12
0.09999999999999432,1997,13,72,15
0.10000000000002274,1997,14,72,26
0.09999999999999432,1997,15,72,17
0.09999999999999432,1998,0,72,34
0.09999999999999432,1998,1,72,22
0.09999999999999432,1998,2,72,11
0.10000000000002274,1998,3,72,13
0.09999999999999432,1998,4,72,10
0.09999999999999432,1998,5,72,6
0.10000000000002274,1998,6,72,11
0.09999999999999432,1998,7,72,19
0.09999999999999432,1998,8,72,19
0.09999999999999432,1998,9,72,22
0.09999999999999432,1998,10,72,29
0.09999999999999432,1998,11,72,14
0.09999999999999432,1998,12,72,29
0.10000000000002274,1998,13,72,16
0.09999999999999432,1998,14,72,29
0.09999999999999432,1998,15,72,13
0.09999999999999432,1999,0,72,10
0.10000000000002274,1999,1,72,8
0.09999999999999432,1999,2,72,13
0.10000000000002274,1999,3,72,18
0.09999999999999432,1999,4,72,12
0.09999999999999432,1999,5,72,11
0.09999999999999432,1999,6,72,20
0.09999999999999432,1999,7,72,11
0.09999999999999432,1999,8,72,23
0.09999999999999432,1999,9,72,10
0.09999999999999432,1999,10,72,5
0.09999999999999432,1999,11,72,8
0.09999999999999432,1999,12,72,16
0.09999999999999432,1999,13,72,9
0.09999999999999432,1999,14,72,4
0.09999999999999432,1999,15,72,7
0.09999999999999432,2000,0,72,17
0.09999999999999432,2000,1,72,19
0.09999999999999432,2000,2,72,22
0.09999999999999432,2000,3,72,26
0.09999999999999432,2000,4,72,14
0.09999999999999432,2000,5,72,13
0.09999999999999432,2000,6,72,35
0.09999999999999432,2000,7,72,15
0.09999999999999432,2000,8,72,9
0.10000000000002274,2000,9,72,13
0.09999999999999432,2000,10,72,19
0.09999999999999432,2000,11,72,28
0.09999999999999432,2000,12,72,14
0.09999999999999964,2000,13,52,97
0.10000000000000142,2000,14,52,106
0.09999999999999964,2000,15,52,96
0.09999999999999964,2001,0,52,71
0.10000000000000142,2001,1,52,89
0.09999999999999787,2001,2,52,106
0.10000000000000142,2001,3,52,112
0.10000000000000142,2001,4,52,127
0.10000000000000142,2001,5,52,38
0.09999999999999787,2001,6,52,96
0.10000000000000142,2001,7,52,87
0.09999999999999787,2001,8,52,92
0.09999999999999787,2001,9,52,59
0.09999999999999787,2001,10,52,84
0.09999999999999787,2001,11,52,116
0.10000000000000142,2001,12,52,83
0.10000000000000142,2001,13,52,92
0.10000000000000142,2001,14,52,95
0.10000000000000142,2001,15,52,63
0.10000000000000142,2002,0,52,77
0.09999999999999432,2002,1,52,101
0.09999999999999432,2002,2,52,95
0.09999999999999432,2002,3,52,90
0.10000000000000142,2002,4,52,69
0.09999999999999432,2002,5,52,79
0.10000000000000142,2002,6,52,52
0.10000000000000142,2002,7,52,101
0.10000000000000142,2002,8,52,67
0.10000000000000142,2002,9,52,73
0.10000000000000142,2002,10,52,78
0.10000000000000142,2002,11,52,79
0.10000000000000142,2002,12,52,90
0.10000000000000142,2002,13,52,43
0.10000000000000142,2002,14,52,93
0.10000000000000142,2002,15,52,101
0.10000000000000142,2003,0,52,77
0.09999999999999432,2003,1,52,73
0.09999999999999432,2003,2,52,73
0.10000000000000142,2003,3,52,76
0.09999999999999432,2003,4,52,115
0.10000000000000142,2003,5,52,108
0.09999999999999432,2003,6,52,119
0.09999999999999432,2003,7,52,119
0.10000000000000142,2003,8,52,119
0.10000000000000142,2003,9,52,99
0.10000000000000142,2003,10,52,82
0.10000000000000142,2003,11,52,70
0.09999999999999432,2003,12,52,82
0.10000000000000142,2003,13,52,73
0.10000000000000142,2003,14,52,127
0.10000000000000142,2003,15,52,127
0.10000000000000142,2004,0,52,122
0.10000000000000142,2004,1,52,108
0.09999999999999432,2004,2,52,66
0.05681818181817988,2004,3,52,67
0.10000000000000142,2004,4,52,76
0.10000000000000142,2004,5,52,79
0.09999999999999432,2004,6,52,82
0.10000000000000142,2004,7,52,77
0.10000000000000142,2004,8,52,95
0.10000000000000142,2004,9,52,60
0.10000000000000142,2004,10,52,74
0.10000000000000142,2004,11,52,73
0.10000000000000142,2004,12,52,47
0.10000000000000142,2004,13,52,65
0.10000000000000142,2004,14,52,96
0.10000000000000142,2004,15,52,105
0.09999999999999432,2005,0,52,77
0.09999999999999432,2005,1,52,66
0.10000000000000853,2005,2,52,65
0.09999999999999432,2005,3,52,65
0.09999999999999432,2005,4,52,46
0.09999999999999432,2005,5,52,58
0.09999999999999432,2005,6,52,61
0.10000000000000853,2005,7,52,50
0.09999999999999432,2005,8,52,60
0.09999999999999432,2005,9,52,56
0.09999999999999432,2005,10,52,59
0.10000000000000853,2005,11,52,60
0.09999999999999432,2005,12,52,62
0.09999999999999432,2005,13,52,53
0.10000000000000853,2005,14,52,54
0.09999999999999432,2005,15,52,56
0.09999999999999432,2006,0,52,56
0.09999999999999432,2006,1,52,50
0.09999999999999432,2006,2,52,71
0.09999999999999432,2006,3,52,74
0.05909090909089798,2006,4,52,88
0.09999999999999432,2006,5,52,79
0.10000000000000853,2006,6,52,53
0.09999999999999432,2006,7,52,63
0.09999999999999432,2006,8,52,73
0.10000000000000853,2006,9,52,74
0.10000000000000853,2006,10,52,107
0.10000000000000853,2006,11,52,76
0.10000000000000853,2006,12,52,63
0.09999999999999432,2006,13,52,74
0.10000000000000853,2006,14,52,70
0.09999999999999432,2006,15,52,75
0.09999999999999432,2007,0,52,64
0.09999999999999432,2007,1,52,88
0.10000000000000853,2007,2,52,110
0.10000000000000853,2007,3,52,103
0.09999999999999432,2007,4,52,70
0.10000000000000853,2007,5,52,60
0.09999999999999432,2007,6,52,65
0.09999999999999432,2007,7,52,60
0.09999999999999432,2007,8,52,67
0.10000000000000853,2007,9,52,71
0.09999999999999432,2007,10,52,62
0.09999999999999432,2007,11,52,73
0.10000000000000853,2007,12,52,80
0.09999999999999432,2007,13,52,76
0.09999999999999432,2007,14,52,71
0.09999999999999432,2007,15,52,86
0.10000000000000853,2008,0,52,87
0.09999999999999432,2008,1,52,87
0.09999999999999432,2008,2,52,92
0.10000000000000853,2008,3,52,85
0.10000000000000853,2008,4,52,80
0.09999999999999432,2008,5,52,71
0.09999999999999432,2008,6,52,64
0.10000000000000853,2008,7,52,81
0.09999999999999432,2008,8,52,80
0.09999999999999432,2008,9,52,77
0.10000000000000853,2008,10,52,63
0.056818181818186986,2008,11,52,51
0.09999999999999432,2008,12,52,64
0.09999999999999432,2008,13,52,45
0.10000000000000853,2008,14,52,95
0.09999999999999432,2008,15,52,90
0.09999999999999432,2009,0,52,73
0.10000000000000853,2009,1,52,68
0.09999999999999432,2009,2,52,51
0.09999999999999432,2009,3,52,79
0.10000000000000853,2009,4,52,73
0.09999999999999432,2009,5,52,80
0.09999999999999432,2009,6,52,77
0.10000000000000853,2009,7,52,77
0.09999999999999432,2009,8,52,71
0.10000000000000853,2009,9,52,60
0.09999999999999432,2009,10,52,62
0.10000000000000853,2009,11,52,69
0.09999999999999432,2009,12,52,62
0.09999999999999432,2009,13,52,60
0.10000000000000853,2009,14,52,73
0.09999999999999432,2009,15,52,89
0.09999999999999432,2010,0,52,85
0.09999999999999432,2010,1,52,63
0.09999999999999432,2010,2,52,51
0.10000000000000853,2010,3,52,65
0.09999999999999432,2010,4,52,48
0.09999999999999432,2010,5,52,63
0.10000000000002274,2010,6,52,66
0.09999999999999432,2010,7,52,60
0.10000000000002274,2010,8,52,46
0.10000000000002274,2010,9,52,63
0.09999999999999432,2010,10,52,78
0.09999999999999432,2010,11,52,78
0.10000000000002274,2010,12,52,55
0.09999999999999432,2010,13,52,56
0.09999999999999432,2010,14,52,83
0.09999999999999432,2010,15,52,47
0.09999999999999432,2011,0,52,85
0.09999999999999432,2011,1,52,88
0.09999999999999432,2011,2,52,52
0.09999999999999432,2011,3,52,78
0.09999999999999432,2011,4,52,88
0.09999999999999432,2011,5,52,81
0.09999999999999432,2011,6,52,57
0.09999999999999432,2011,7,52,87
0.09999999999999432,2011,8,52,77
0.09999999999999432,2011,9,52,88
0.09999999999999432,2011,10,52,79
0.10000000000002274,2011,11,52,80
0.09999999999999432,2011,12,52,81
0.06818181818181301,2011,13,52,90
0.09999999999999432,2011,14,52,81
0.09999999999999432,2011,15,52,57
0.09999999999999432,2012,0,52,69
0.09999999999999432,2012,1,52,86
0.09999999999999432,2012,2,52,80
0.10000000000002274,2012,3,52,78
0.09999999999999432,2012,4,52,73
0.09999999999999432,2012,5,52,84
0.09999999999999432,2012,6,52,95
0.09999999999999432,2012,7,52,87
0.10000000000002274,2012,8,52,27
0.09999999999999432,2012,9,52,64
0.09999999999999432,2012,10,52,50
0.09999999999999432,2012,11,52,78
0.10000000000002274,2012,12,52,76
0.09999999999999432,2012,13,52,70
0.10000000000002274,2012,14,52,69
0.10000000000002274,2012,15,52,64
0.09999999999999432,2013,0,52,52
0.09999999999999432,2013,1,52,77
0.09999999999999432,2013,2,52,42
0.09999999999999432,2013,3,52,39
0.09999999999999432,2013,4,52,61
0.10000000000002274,2013,5,52,61
0.09999999999999432,2013,6,52,57
0.09999999999999432,2013,7,52,73
0.09999999999999432,2013,8,52,69
0.09999999999999432,2013,9,52,62
0.09999999999999432,2013,10,52,69
0.09999999999999432,2013,11,52,71
0.10000000000002274,2013,12,52,69
0.09999999999999432,2013,13,52,68
0.09999999999999432,2013,14,52,49
0.056818181818186986,2013,15,52,51
0.09999999999999432,2014,0,52,71
0.09999999999999432,2014,1,52,67
0.09999999999999432,2014,2,52,67
0.09999999999999432,2014,3,52,68
0.09999999999999432,2014,4,52,78
0.09999999999999432,2014,5,52,68
0.09999999999999432,2014,6,52,48
0.09999999999999432,2014,7,52,71
0.09999999999999432,2014,8,52,64
0.10000000000002274,2014,9,52,63
0.09999999999999432,2014,10,52,72
0.09999999999999432,2014,11,52,66
0.09999999999999432,2014,12,52,63
0.09999999999999432,2014,13,52,65
0.09999999999999432,2014,14,52,67
0.09999999999999432,2014,15,52,70
0.09999999999999432,2015,0,52,77
0.09999999999999432,2015,1,52,76
0.09999999999999432,2015,2,52,67
0.09999999999999432,2015,3,52,61
0.10000000000002274,2015,4,52,65
0.09999999999999432,2015,5,52,48
0.10000000000002274,2015,6,52,59
0.10000000000002274,2015,7,52,63
0.09999999999999432,2015,8,52,74
0.09999999999999432,2015,9,52,83
0.10000000000002274,2015,10,52,76
0.06818181818181301,2015,11,52,79
0.09999999999999432,2015,12,52,79
0.09999999999999432,2015,13,52,65
0.09999999999999432,2015,14,52,73
0.09999999999999432,2015,15,52,67
0.09999999999999432,2016,0,52,46
0.09999999999999432,2016,1,52,66
0.09999999999999432,2016,2,52,77
0.06818181818181301,2016,3,52,70
0.09999999999999432,2016,4,52,75
0.09999999999999432,2016,5,52,73
0.10000000000002274,2016,6,52,63
0.09999999999999432,2016,7,52,69
0.09999999999999432,2016,8,52,62
0.09999999999999432,2016,9,52,48
0.09999999999999432,2016,10,52,57
0.09999999999999432,2016,11,52,67
0.09999999999999432,2016,12,52,72
0.09999999999999432,2016,13,52,72
0.10000000000002274,2016,14,52,77
0.10000000000002274,2016,15,52,73
0.09999999999999432,2017,0,52,77
0.10000000000002274,2017,1,52,73
0.09999999999999432,2017,2,52,75
0.09999999999999432,2017,3,52,57
0.09999999999999432,2017,4,52,78
0.09999999999999432,2017,5,52,78
0.056818181818186986,2017,6,52,75
0.09999999999999432,2017,7,52,81
0.09999999999999432,2017,8,52,63
0.09999999999999432,2017,9,52,58
0.09999999999999432,2017,10,52,71
0.09999999999999432,2017,11,52,59
0.09999999999999432,2017,12,52,71
0.09999999999999432,2017,13,52,56
0.06818181818181301,2017,14,52,46
0.09999999999999987,2017,15,99,2
0.09999999999999987,2018,0,99,1
0.09999999999999987,2018,1,99,2
0.10000000000000009,2018,2,99,3
0.10000000000000009,2018,3,99,2
0.10000000000000009,2018,4,99,4
0.10000000000000009,2018,5,99,2
0.09999999999999964,2018,6,99,2
0.10000000000000009,2018,7,99,4
0.10000000000000009,2018,8,99,1
0.10000000000000009,2018,9,99,3
0.10000000000000009,2018,10,99,4
0.10000000000000009,2018,11,99,2
0.09999999999999964,2018,12,99,3
0.09999999999999964,2018,13,99,4
0.10000000000000053,2018,14,99,2
0.10000000000000053,2018,15,99,3
0.09999999999999964,2019,0,99,4
0.10000000000000053,2019,1,99,2
0.09999999999999964,2019,2,99,4
0.10000000000000053,2019,3,99,2
0.09999999999999964,2019,4,99,2
0.09999999999999964,2019,5,99,2
0.09999999999999964,2019,6,99,2
0.09999999999999964,2019,7,99,2
0.09999999999999964,2019,8,99,5
0.10000000000000053,2019,9,99,2
0.09999999999999964,2019,10,99,2
0.09999999999999964,2019,11,99,4
0.10000000000000053,2019,12,99,2
0.09999999999999964,2019,13,99,2
0.09999999999999964,2019,14,99,4
0.09999999999999964,2019,15,99,1
0.09999999999999964,2020,0,99,2
0.09999999999999964,2020,1,99,4
0.09999999999999964,2020,2,99,2
0.09999999999999964,2020,3,99,4
0.09999999999999964,2020,4,99,1
0.09999999999999964,2020,5,99,2
0.09999999999999964,2020,6,99,4
0.09999999999999964,2020,7,99,1
0.09999999999999964,2020,8,99,2
0.09999999999999964,2020,9,99,1
0.09999999999999964,2020,10,99,2
0.09999999999999964,2020,11,99,4
0.10000000000000142,2020,12,99,1
0.09999999999999964,2020,13,99,3
0.09999999999999964,2020,14,99,1
0.09999999999999964,2020,15,99,4
0.09999999999999964,2021,0,99,2
0.10000000000000142,2021,1,99,3
0.10000000000000142,2021,2,99,127
0.09999999999999964,2021,3,99,15
0.09999999999999964,2021,4,99,127
0.10000000000000142,2021,5,99,20
0.09999999999999964,2021,6,99,127
0.09999999999999964,2021,7,99,19
0.09999999999999964,2021,8,99,4
0.10000000000000142,2021,9,99,127
0.09999999999999964,2021,10,99,21
0.09999999999999964,2021,11,99,127
0.09999999999999964,2021,12,99,22
0.10000000000000142,2021,13,99,4
0.09999999999999964,2021,14,99,127
0.09999999999999964,2021,15,99,22
0.10000000000000142,2022,0,99,127
0.10000000000000142,2022,1,99,20
0.10000000000000142,2022,2,99,94
0.10000000000000142,2022,3,99,127
0.10000000000000142,2022,4,99,21
0.10000000000000142,2022,5,99,1
0.10000000000000142,2022,6,99,127
0.10000000000000142,2022,7,99,21
0.09999999999999787,2022,8,99,3
0.10000000000000142,2022,9,99,127
0.09999999999999787,2022,10,99,21
0.10000000000000142,2022,11,99,127
0.10000000000000142,2022,12,99,23
0.10000000000000142,2022,13,99,3
0.09999999999999787,2022,14,99,127
0.10000000000000142,2022,15,99,21
0.09999999999999787,2023,0,99,127
0.09999999999999787,2023,1,99,20
0.10000000000000142,2023,2,99,4
0.10000000000000142,2023,3,99,127
0.09999999999999787,2023,4,99,20
0.10000000000000142,2023,5,99,1
0.09999999999999787,2023,6,99,127
0.09999999999999787,2023,7,99,127
0.09999999999999787,2023,8,99,13
0.10000000000000142,2023,9,99,3
0.10000000000000142,2023,10,99,127
0.09999999999999787,2023,11,99,12
0.10000000000000142,2023,12,99,2
0.09999999999999787,2023,13,99,127
0.10000000000000142,2023,14,99,12
0.10000000000000142,2023,15,99,3
0.09999999999999787,2024,0,99,127
0.09999999999999787,2024,1,99,11
0.10000000000000142,2024,2,99,3
0.09999999999999787,2024,3,99,127
0.09999999999999787,2024,4,99,12
0.10000000000000142,2024,5,99,3
0.09999999999999787,2024,6,99,127
0.09999999999999787,2024,7,99,12
0.10000000000000142,2024,8,99,3
0.09999999999999787,2024,9,99,127
0.10000000000000142,2024,10,99,12
0.10000000000000142,2024,11,99,90
0.09999999999999787,2024,12,99,127
0.10000000000000142,2024,13,99,39
0.09999999999999787,2024,14,99,10
0.10000000000000142,2024,15,99,3
0.09999999999999787,2025,0,99,127
0.09999999999999787,2025,1,99,13
0.10000000000000142,2025,2,99,4
0.09999999999999787,2025,3,99,127
0.09999999999999787,2025,4,99,38
0.10000000000000142,2025,5,99,10
0.10000000000000142,2025,6,99,3
0.09999999999999787,2025,7,99,127
0.09999999999999787,2025,8,99,12
0.09999999999999787,2025,9,99,4
0.10000000000000142,2025,10,99,127
0.10000000000000142,2025,11,99,36
0.09999999999999787,2025,12,99,10
0.10000000000000142,2025,13,99,3
0.10000000000000142,2025,14,99,127
0.10000000000000142,2025,15,99,12
0.10000000000000142,2026,0,99,4
0.10000000000000142,2026,1,99,127
0.10000000000000142,2026,2,99,3
0.09999999999999787,2026,3,99,3
0.10000000000000142,2026,4,99,127
0.10000000000000142,2026,5,99,3
0.09999999999999787,2026,6,99,104
0.10000000000000142,2026,7,99,127
0.09999999999999787,2026,8,99,32
0.10000000000000142,2026,9,99,3
0.10000000000000142,2026,10,99,3
0.09999999999999787,2026,11,99,127
0.10000000000000142,2026,12,99,3
0.10000000000000142,2026,13,99,3
0.10000000000000142,2026,14,99,127
0.10000000000000142,2026,15,99,32
0.09999999999999432,2027,0,99,3
0.10000000000000142,2027,1,99,3
0.10000000000000142,2027,2,99,127
0.10000000000000142,2027,3,99,2
0.10000000000000142,2027,4,99,3
0.10000000000000142,2027,5,99,127
0.10000000000000142,2027,6,99,27
0.09999999999999432,2027,7,99,3
0.10000000000000142,2027,8,99,2
0.10000000000000142,2027,9,99,127
0.10000000000000142,2027,10,99,2
0.10000000000000142,2027,11,99,2
0.10000000000000142,2027,12,99,127
0.10000000000000142,2027,13,99,30
0.10000000000000142,2027,14,99,3
0.10000000000000142,2027,15,99,3
0.10000000000000142,2028,0,99,127
0.10000000000000142,2028,1,99,2
0.10000000000000142,2028,2,99,110
0.10000000000000142,2028,3,99,127
0.10000000000000142,2028,4,99,33
0.10000000000000142,2028,5,99,2
0.10000000000000142,2028,6,99,1
0.10000000000000142,2028,7,99,127
0.10000000000000142,2028,8,99,2
0.10000000000000142,2028,9,99,3
0.10000000000000142,2028,10,99,127
0.10000000000000142,2028,11,99,31
0.10000000000000142,2028,12,99,3
0.10000000000000142,2028,13,99,3
0.10000000000000142,2028,14,99,127
0.10000000000000142,2028,15,99,3
0.10000000000000142,2029,0,99,3
0.10000000000000142,2029,1,99,127
0.10000000000000142,2029,2,99,33
0.10000000000000142,2029,3,99,3
0.10000000000000142,2029,4,99,3
0.10000000000000142,2029,5,99,127
0.10000000000000142,2029,6,99,2
0.10000000000000142,2029,7,99,3
0.09999999999999432,2029,8,99,127
0.10000000000000142,2029,9,99,35
0.10000000000000142,2029,10,99,3
0.09999999999999432,2029,11,99,3
0.10000000000000142,2029,12,99,127
0.09999999999999432,2029,13,99,127
0.10000000000000142,2029,14,99,25
0.10000000000000142,2029,15,99,127
0.10000000000000142,2030,0,99,25
0.10000000000000142,2030,1,99,24
0.09999999999999432,2030,2,99,2
0.10000000000000142,2030,3,99,124
0.09999999999999432,2030,4,99,18
0.10000000000000142,2030,5,99,24
0.09999999999999432,2030,6,99,3
0.10000000000000142,2030,7,99,127
0.10000000000000142,2030,8,99,25
0.10000000000000142,2030,9,99,25
0.09999999999999432,2030,10,99,2
0.10000000000000142,2030,11,99,127
0.10000000000000142,2030,12,99,19
0.10000000000000142,2030,13,99,24
0.10000000000000142,2030,14,99,3
0.10000000000000142,2030,15,99,127
0.10000000000000142,2031,0,99,20
0.10000000000000142,2031,1,99,11
0.10000000000000142,2031,2,99,2
0.10000000000000142,2031,3,99,127
0.10000000000000142,2031,4,99,19
0.10000000000000142,2031,5,99,24
0.10000000000000142,2031,6,99,127
0.10000000000000142,2031,7,99,123
0.10000000000000142,2031,8,99,22
0.10000000000000142,2031,9,99,25
0.10000000000000142,2031,10,99,2
0.10000000000000142,2031,11,99,127
0.10000000000000142,2031,12,99,19
0.10000000000000142,2031,13,99,26
0.10000000000000142,2031,14,99,2
0.10000000000000142,2031,15,99,127
0.10000000000000142,2032,0,99,23
0.10000000000000142,2032,1,99,25
0.10000000000000142,2032,2,99,2
0.10000000000000142,2032,3,99,127
0.10000000000000142,2032,4,99,17
0.10000000000000142,2032,5,99,25
0.10000000000000142,2032,6,99,2
0.10000000000000142,2032,7,99,127
0.09999999999999432,2032,8,99,24
0.10000000000000142,2032,9,99,25
0.10000000000000142,2032,10,99,2
0.10000000000000142,2032,11,99,126
0.10000000000000142,2032,12,99,12
0.10000000000000142,2032,13,99,23
0.10000000000000142,2032,14,99,2
0.10000000000000142,2032,15,99,127
0.10000000000000142,2033,0,99,21
0.10000000000000142,2033,1,99,28
0.10000000000000142,2033,2,99,3
0.10000000000000142,2033,3,99,127
0.10000000000000142,2033,4,99,19
0.09999999999999432,2033,5,99,127
0.09999999999999432,2033,6,99,26
0.10000000000000142,2033,7,99,127
0.09999999999999432,2033,8,99,26
0.09999999999999432,2033,9,99,127
0.10000000000000142,2033,10,99,17
0.09999999999999432,2033,11,99,25
0.10000000000000142,2033,12,99,3
0.09999999999999432,2033,13,99,127
0.10000000000000142,2033,14,99,12
0.09999999999999432,2033,15,99,25
0.10000000000000142,2034,0,99,2
0.09999999999999432,2034,1,99,127
0.10000000000000142,2034,2,99,18
0.09999999999999432,2034,3,99,24
0.10000000000000142,2034,4,99,3
0.09999999999999432,2034,5,99,127
0.10000000000000142,2034,6,99,19
0.10000000000000142,2034,7,99,26
0.10000000000000142,2034,8,99,2
0.09999999999999432,2034,9,99,127
0.10000000000000142,2034,10,99,18
0.09999999999999432,2034,11,99,26
0.10000000000000142,2034,12,99,2
0.10000000000000142,2034,13,99,127
0.10000000000000142,2034,14,99,21
0.10000000000000142,2034,15,99,24
0.10000000000000142,2035,0,99,2
0.10000000000000142,2035,1,99,127
0.10000000000000142,2035,2,99,19
0.10000000000000142,2035,3,99,24
0.10000000000000142,2035,4,99,2
0.10000000000000142,2035,5,99,127
0.10000000000000142,2035,6,99,23
0.10000000000000142,2035,7,99,25
0.10000000000000142,2035,8,99,3
0.10000000000000142,2035,9,99,111
0.10000000000000142,2035,10,99,16
0.10000000000000142,2035,11,99,24
0.10000000000000142,2035,12,99,3
0.10000000000000142,2035,13,99,127
0.10000000000000142,2035,14,99,25
0.10000000000000142,2035,15,99,26
0.10000000000000142,2036,0,99,3
0.10000000000000142,2036,1,99,127
0.10000000000000142,2036,2,99,18
0.10000000000000142,2036,3,99,24
0.10000000000000142,2036,4,99,2
0.10000000000000142,2036,5,99,127
0.10000000000000142,2036,6,99,19
0.10000000000000142,2036,7,99,25
0.10000000000000142,2036,8,99,2
0.10000000000000142,2036,9,99,127
0.10000000000000142,2036,10,99,18
0.10000000000000142,2036,11,99,25
0.10000000000000142,2036,12,99,3
0.10000000000000142,2036,13,99,127
0.09999999999999432,2036,14,99,21
0.10000000000000142,2036,15,99,26
0.10000000000000142,2037,0,99,2
0.10000000000000142,2037,1,99,127
0.10000000000000142,2037,2,99,19
0.10000000000000142,2037,3,99,24
0.10000000000000142,2037,4,99,127
0.10000000000000142,2037,5,99,29
0.10000000000000142,2037,6,99,19
0.10000000000000142,2037,7,99,2
0.10000000000000142,2037,8,99,127
0.10000000000000142,2037,9,99,27
0.10000000000000142,2037,10,99,18
0.10000000000000142,2037,11,99,125
0.10000000000000142,2037,12,99,30
0.10000000000000142,2037,13,99,18
0.10000000000000142,2037,14,99,2
0.10000000000000142,2037,15,99,120
0.10000000000000142,2038,0,99,20
0.10000000000000142,2038,1,99,2
0.10000000000000142,2038,2,99,127
0.10000000000000142,2038,3,99,26
0.10000000000000142,2038,4,99,17
0.10000000000000142,2038,5,99,124
0.10000000000000142,2038,6,99,31
0.10000000000000142,2038,7,99,19
0.10000000000000142,2038,8,99,2
0.10000000000000142,2038,9,99,127
0.10000000000000142,2038,10,99,25
0.10000000000000142,2038,11,99,16
0.10000000000000142,2038,12,99,120
0.09999999999999432,2038,13,99,17
0.10000000000000853,2038,14,99,2
0.10000000000000853,2038,15,99,127
0.10000000000000853,2039,0,99,26
0.09999999999999432,2039,1,99,17
0.09999999999999432,2039,2,99,2
0.09999999999999432,2039,3,99,127
0.09999999999999432,2039,4,99,27
0.10000000000000853,2039,5,99,17
0.09999999999999432,2039,6,99,109
0.09999999999999432,2039,7,99,29
0.09999999999999432,2039,8,99,17
0.10000000000000853,2039,9,99,2
0.10000000000000853,2039,10,99,127
0.10000000000000853,2039,11,99,28
0.09999999999999432,2039,12,99,17
0.09999999999999432,2039,13,99,2
0.09999999999999432,2039,14,99,127
0.10000000000000853,2039,15,99,32
0.09999999999999432,2040,0,99,18
0.10000000000000853,2040,1,99,2
0.09999999999999432,2040,2,99,123
0.09999999999999432,2040,3,99,118
0.09999999999999432,2040,4,99,21
0.09999999999999432,2040,5,99,127
0.09999999999999432,2040,6,99,19
0.09999999999999432,2040,7,99,127
0.10000000000000853,2040,8,99,25
0.09999999999999432,2040,9,99,23
0.09999999999999432,2040,10,99,3
0.09999999999999432,2040,11,99,123
0.09999999999999432,2040,12,99,19
0.09999999999999432,2040,13,99,3
0.09999999999999432,2040,14,99,127
0.09999999999999432,2040,15,99,26
0.09999999999999432,2041,0,99,21
0.10000000000000853,2041,1,99,3
0.10000000000000853,2041,2,99,112
0.10000000000000853,2041,3,99,19
0.09999999999999432,2041,4,99,3
0.09999999999999432,2041,5,99,127
0.10000000000000853,2041,6,99,29
0.10000000000000853,2041,7,99,20
0.09999999999999432,2041,8,99,127
0.10000000000000853,2041,9,99,127
0.09999999999999432,2041,10,99,20
0.10000000000000853,2041,11,99,3
0.10000000000000853,2041,12,99,119
0.10000000000000853,2041,13,99,29
0.10000000000000853,2041,14,99,15
0.09999999999999432,2041,15,99,2
0.09999999999999432,2042,0,99,117
0.10000000000000853,2042,1,99,21
0.09999999999999432,2042,2,99,3
0.10000000000000853,2042,3,99,127
0.09999999999999432,2042,4,99,26
0.09999999999999432,2042,5,99,20
0.10000000000000853,2042,6,99,3
0.10000000000000853,2042,7,99,123
0.09999999999999432,2042,8,99,20
0.09999999999999432,2042,9,99,3
0.09999999999999432,2042,10,99,127
0.10000000000000853,2042,11,99,22
0.09999999999999432,2042,12,99,93
0.10000000000000853,2042,13,99,127
0.09999999999999432,2042,14,99,76
0.10000000000000853,2042,15,99,127
0.09999999999999432,2043,0,99,115
0.09999999999999432,2043,1,99,26
0.10000000000000853,2043,2,99,127
0.10000000000000853,2043,3,99,23
0.09999999999999432,2043,4,99,126
0.10000000000000853,2043,5,99,23
0.09999999999999432,2043,6,99,4
0.10000000000000853,2043,7,99,127
0.09999999999999432,2043,8,99,21
0.09999999999999432,2043,9,99,2
0.10000000000000853,2043,10,99,127
0.10000000000000853,2043,11,99,28
0.10000000000000853,2043,12,99,20
0.09999999999999432,2043,13,99,3
0.09999999999999432,2043,14,99,123
0.09999999999999432,2043,15,99,20
0.09999999999999432,2044,0,99,3
0.10000000000000853,2044,1,99,127
0.09999999999999432,2044,2,99,22
0.09999999999999432,2044,3,99,17
0.09999999999999432,2044,4,99,127
0.10000000000000853,2044,5,99,122
0.10000000000000853,2044,6,99,20
0.09999999999999432,2044,7,99,3
0.09999999999999432,2044,8,99,127
0.09999999999999432,2044,9,99,28
0.10000000000000853,2044,10,99,21
0.09999999999999432,2044,11,99,3
0.10000000000000853,2044,12,99,127
0.09999999999999432,2044,13,99,21
0.10000000000000853,2044,14,99,3
0.10000000000000853,2044,15,99,127
0.09999999999999432,2045,0,99,32
0.10000000000000853,2045,1,99,20
0.09999999999999432,2045,2,99,3
0.09999999999999432,2045,3,99,127
0.10000000000000853,2045,4,99,23
0.09999999999999432,2045,5,99,3
0.10000000000000853,2045,6,99,127
0.09999999999999432,2045,7,99,28
0.09999999999999432,2045,8,99,21
0.10000000000000853,2045,9,99,3
0.10000000000000853,2045,10,99,122
0.09999999999999432,2045,11,99,21
0.09999999999999432,2045,12,99,3
0.09999999999999432,2045,13,99,127
0.09999999999999432,2045,14,99,28
0.10000000000000853,2045,15,99,20
0.09999999999999432,2046,0,99,127
0.09999999999999432,2046,1,99,123
0.09999999999999432,2046,2,99,20
0.10000000000000853,2046,3,99,3
0.10000000000000853,2046,4,99,124
0.10000000000000853,2046,5,99,26
0.09999999999999432,2046,6,99,21
0.10000000000000853,2046,7,99,3
0.09999999999999432,2046,8,99,127
0.10000000000000853,2046,9,99,21
0.09999999999999432,2046,10,99,3
0.09999999999999432,2046,11,99,127
0.09999999999999432,2046,12,99,31
0.09999999999999432,2046,13,99,21
0.10000000000000853,2046,14,99,4
0.09999999999999432,2046,15,99,127
0.09999999999999432,2047,0,99,21
0.10000000000000853,2047,1,99,1
0.09999999999999432,2047,2,99,107
0.09999999999999432,2047,3,99,16
0.09999999999999432,2047,4,99,112
0.09999999999999432,2047,5,99,19
0.09999999999999432,2047,6,99,112
0.09999999999999432,2047,7,99,15
0.09999999999999432,2047,8,99,101
0.09999999999999432,2047,9,99,18
0.09999999999999432,2047,10,99,111
0.09999999999999432,2047,11,99,15
0.09999999999999432,2047,12,99,108
0.09999999999999432,2047,13,99,18
0.09999999999999432,2047,14,99,1
0.09999999999999432,2047,15,99,106
0.10000000000000853,2048,0,99,29
0.09999999999999432,2048,1,99,19
0.10000000000000853,2048,2,99,111
0.09999999999999432,2048,3,99,18
0.10000000000000853,2048,4,99,127
0.10000000000000853,2048,5,99,28
0.09999999999999432,2048,6,99,122
0.09999999999999432,2048,7,99,127
0.10000000000000853,2048,8,99,106
0.10000000000000853,2048,9,99,127
0.09999999999999432,2048,10,99,17
0.10000000000000853,2048,11,99,30
0.10000000000000853,2048,12,99,38
0.09999999999999432,2048,13,99,113
0.10000000000000853,2048,14,99,14
0.09999999999999432,2048,15,99,111
0.09999999999999432,2049,0,99,17
0.10000000000000853,2049,1,99,110
0.09999999999999432,2049,2,99,17
0.09999999999999432,2049,3,99,114
0.10000000000000853,2049,4,99,17
0.09999999999999432,2049,5,99,109
0.09999999999999432,2049,6,99,15
0.10000000000000853,2049,7,99,86
0.09999999999999432,2049,8,99,17
0.09999999999999432,2049,9,99,111
0.10000000000000853,2049,10,99,29
0.10000000000000853,2049,11,99,17
0.09999999999999432,2049,12,99,125
0.09999999999999432,2049,13,99,108
0.09999999999999432,2049,14,99,18
0.10000000000000853,2049,15,99,114
0.10000000000000853,2050,0,99,16
0.09999999999999432,2050,1,99,104
0.10000000000000853,2050,2,99,19
0.10000000000000853,2050,3,99,113
0.09999999999999432,2050,4,99,17
0.09999999999999432,2050,5,99,121
0.10000000000000853,2050,6,99,17
0.09999999999999432,2050,7,99,101
0.10000000000000853,2050,8,99,18
0.10000000000000853,2050,9,99,110
0.09999999999999432,2050,10,99,17
0.10000000000000853,2050,11,99,105
0.09999999999999432,2050,12,99,31
0.10000000000000853,2050,13,99,17
0.10000000000000853,2050,14,99,110
0.09999999999999432,2050,15,99,118
0.10000000000000853,2051,0,99,18
0.10000000000000853,2051,1,99,127
0.09999999999999432,2051,2,99,25
0.10000000000000853,2051,3,99,113
0.10000000000000853,2051,4,99,127
0.09999999999999432,2051,5,99,114
0.09999999999999432,2051,6,99,127
0.09999999999999432,2051,7,99,3
0.09999999999999432,2051,8,99,13
0.10000000000000853,2051,9,99,4
0.10000000000000853,2051,10,99,15
0.09999999999999432,2051,11,99,3
0.09999999999999432,2051,12,99,14
0.10000000000000853,2051,13,99,3
0.09999999999999432,2051,14,99,17
0.10000000000000853,2051,15,99,3
0.10000000000000853,2052,0,99,18
0.09999999999999432,2052,1,99,3
0.10000000000000853,2052,2,99,15
0.09999999999999432,2052,3,99,3
0.09999999999999432,2052,4,99,20
0.10000000000000853,2052,5,99,4
0.09999999999999432,2052,6,99,19
0.09999999999999432,2052,7,99,127
0.10000000000000853,2052,8,99,127
0.09999999999999432,2052,9,99,3
0.10000000000000853,2052,10,99,118
0.10000000000000853,2052,11,99,3
0.09999999999999432,2052,12,99,1
0.09999999999999432,2052,13,99,127
0.09999999999999432,2052,14,99,127
0.10000000000000853,2052,15,99,127
0.09999999999999432,2053,0,99,127
0.09999999999999432,2053,1,99,124
0.09999999999999432,2053,2,99,127
0.10000000000000853,2053,3,99,127
0.09999999999999432,2053,4,99,127
0.09999999999999432,2053,5,99,127
0.09999999999999432,2053,6,99,127
0.09999999999999432,2053,7,99,121
0.09999999999999432,2053,8,99,127
0.10000000000000853,2053,9,99,127
0.09999999999999432,2053,10,99,127
0.10000000000000853,2053,11,99,127
0.10000000000000853,2053,12,99,127
0.09999999999999432,2053,13,99,127
0.09999999999999432,2053,14,99,111
0.10000000000002274,2053,15,99,127
0.09999999999999432,2054,0,99,127
0.09999999999999432,2054,1,99,127
0.09999999999999432,2054,2,99,127
0.09999999999999432,2054,3,99,127
0.09999999999999432,2054,4,99,127
0.10000000000002274,2054,5,99,96
0.09999999999999432,2054,6,99,127
0.09999999999999432,2054,7,99,43
0.09999999999999432,2054,8,99,75
0.09999999999999432,2054,9,99,127
0.09999999999999432,2054,10,99,127
0.09999999999999432,2054,11,99,127
0.09999999999999432,2054,12,99,127
0.09999999999999432,2054,13,99,127
0.09999999999999432,2054,14,99,127
0.09999999999999432,2054,15,99,127
0.09999999999999432,2055,0,99,1
0.09999999999999432,2055,1,99,127
0.10000000000002274,2055,2,99,2
0.10000000000002274,2055,3,99,127
0.09999999999999432,2055,4,99,1
0.09999999999999432,2055,5,99,127
0.09999999999999432,2055,6,99,1
0.09999999999999432,2055,7,99,125
0.09999999999999432,2055,8,99,127
0.10000000000002274,2055,9,99,2
0.10000000000002274,2055,10,99,127
0.09999999999999432,2055,11,99,2
0.09999999999999432,2055,12,99,127
0.09999999999999432,2055,13,99,1
0.09999999999999432,2055,14,99,127
0.10000000000002274,2055,15,99,2
0.10000000000002274,2056,0,99,127
0.09999999999999432,2056,1,99,127
0.09999999999999432,2056,2,99,1
0.09999999999999432,2056,3,99,116
0.09999999999999432,2056,4,99,127
0.09999999999999432,2056,5,99,2
0.10000000000002274,2056,6,99,126
0.09999999999999432,2056,7,99,127
0.09999999999999432,2056,8,99,127
0.10000000000002274,2056,9,99,127
0.09999999999999432,2056,10,99,93
0.09999999999999432,2056,11,99,127
0.09999999999999432,2056,12,99,127
0.09999999999999432,2056,13,99,84
0.09999999999999432,2056,14,99,82
0.09999999999999432,2056,15,99,125
0.09999999999999432,2057,0,99,127
0.09999999999999432,2057,1,99,127
0.09999999999999432,2057,2,99,127
0.09999999999999432,2057,3,99,121
0.10000000000002274,2057,4,99,127
0.09999999999999432,2057,5,99,115
0.09999999999999432,2057,6,99,87
0.09999999999999432,2057,7,99,127
0.10000000000002274,2057,8,99,111
0.09999999999999432,2057,9,99,121
0.09999999999999432,2057,10,99,93
0.10000000000002274,2057,11,99,127
0.09999999999999432,2057,12,99,116
0.09999999999999432,2057,13,99,127
0.10000000000002274,2057,14,99,122
0.10000000000002274,2057,15,99,127
0.09999999999999432,2058,0,99,127
0.09999999999999432,2058,1,99,127
0.09999999999999432,2058,2,99,98
0.09999999999999432,2058,3,99,127
0.09999999999999432,2058,4,99,127
0.09999999999999432,2058,5,99,122
0.09999999999999432,2058,6,99,124
0.10000000000002274,2058,7,99,121
0.10000000000002274,2058,8,99,98
0.09999999999999432,2058,9,99,127
0.09999999999999432,2058,10,99,106
0.09999999999999432,2058,11,99,126
0.09999999999999432,2058,12,99,112
0.10000000000002274,2058,13,99,123
0.09999999999999432,2058,14,99,109
0.09999999999999432,2058,15,99,127
0.09999999999999432,2059,0,99,123
0.09999999999999432,2059,1,99,68
0.09999999999999432,2059,2,99,126
0.09999999999999432,2059,3,99,127
0.09999999999999432,2059,4,99,127
0.09999999999999432,2059,5,99,96
0.09999999999999432,2059,6,99,127
0.09999999999999432,2059,7,99,127
0.10000000000002274,2059,8,99,58
0.10000000000002274,2059,9,99,44
0.10000000000002274,2059,10,99,44
0.09999999999999432,2059,11,99,118
0.10000000000002274,2059,12,99,122
0.09999999999999432,2059,13,99,127
0.10000000000002274,2059,14,99,4
0.09999999999999432,2059,15,99,119
0.09999999999999432,2060,0,99,5
0.10000000000002274,2060,1,99,123
0.09999999999999432,2060,2,99,7
0.09999999999999432,2060,3,99,114
0.10000000000002274,2060,4,99,5
0.09999999999999432,2060,5,99,122
0.09999999999999432,2060,6,99,6
0.09999999999999432,2060,7,99,94
0.09999999999999432,2060,8,99,114
0.10000000000002274,2060,9,99,5
0.09999999999999432,2060,10,99,119
0.09999999999999432,2060,11,99,7
0.10000000000002274,2060,12,99,108
0.09999999999999432,2060,13,99,5
0.09999999999999432,2060,14,99,108
0.10000000000002274,2060,15,99,7
0.09999999999999432,2061,0,99,112
0.09999999999999432,2061,1,99,5
0.10000000000002274,2061,2,99,110
0.09999999999999432,2061,3,99,7
0.09999999999999432,2061,4,99,104
0.10000000000002274,2061,5,99,5
0.09999999999999432,2061,6,99,113
0.09999999999999432,2061,7,99,6
0.09999999999999432,2061,8,99,88
0.09999999999999432,2061,9,99,108
0.09999999999999432,2061,10,99,5
0.09999999999999432,2061,11,99,88
0.09999999999999432,2061,12,99,7
0.09999999999999432,2061,13,99,107
0.09999999999999432,2061,14,99,5
0.09999999999999432,2061,15,99,100
0.09999999999999432,2062,0,99,6
0.09999999999999432,2062,1,99,102
0.09999999999999432,2062,2,99,5
0.09999999999999432,2062,3,99,96
0.09999999999999432,2062,4,99,6
0.09999999999999432,2062,5,99,103
0.09999999999999432,2062,6,99,5
0.09999999999999432,2062,7,99,105
0.09999999999999432,2062,8,99,6
0.09999999999999432,2062,9,99,89
0.09999999999999432,2062,10,99,77
0.09999999999999432,2062,11,99,5
0.09999999999999432,2062,12,99,102
0.09999999999999998,2062,13,62,47
0.09999999999999987,2062,14,62,27
0.10000000000000009,2062,15,62,37
0.09999999999999987,2063,0,62,34
0.10000000000000009,2063,1,62,35
0.10000000000000009,2063,2,62,53
0.10000000000000009,2063,3,62,36
0.10000000000000009,2063,4,62,33
0.10000000000000009,2063,5,62,45
0.10000000000000009,2063,6,62,47
0.10000000000000009,2063,7,62,43
0.09999999999999964,2063,8,62,40
0.10000000000000053,2063,9,62,47
0.10000000000000053,2063,10,62,44
0.10000000000000053,2063,11,62,57
0.09999999999999964,2063,12,62,47
0.09999999999999964,2063,13,62,43
0.10000000000000053,2063,14,62,39
0.10000000000000053,2063,15,62,34
0.09999999999999964,2064,0,62,33
0.10000000000000053,2064,1,62,45
0.09999999999999964,2064,2,62,56
0.10000000000000053,2064,3,62,35
0.09999999999999964,2064,4,62,31
0.09999999999999964,2064,5,62,46
0.09999999999999964,2064,6,62,40
0.09999999999999964,2064,7,62,26
0.09999999999999964,2064,8,62,28
0.09999999999999964,2064,9,62,28
0.09999999999999964,2064,10,62,34
0.10000000000000142,2064,11,62,40
0.09999999999999964,2064,12,62,29
0.09999999999999964,2064,13,62,41
0.10000000000000142,2064,14,62,32
0.09999999999999964,2064,15,62,39
0.10000000000000142,2065,0,62,44
0.10000000000000142,2065,1,62,28
0.09999999999999964,2065,2,62,38
0.09999999999999964,2065,3,62,40
0.09999999999999964,2065,4,62,65
0.10000000000000142,2065,5,62,30
0.10000000000000142,2065,6,62,38
0.09999999999999964,2065,7,62,40
0.09999999999999964,2065,8,62,45
0.09999999999999964,2065,9,62,32
0.09999999999999964,2065,10,62,43
0.10000000000000142,2065,11,62,37
0.10000000000000142,2065,12,62,47
0.10000000000000142,2065,13,62,53
0.09999999999999787,2065,14,62,62
0.10000000000000142,2065,15,62,40
0.10000000000000142,2066,0,62,29
0.03636363636363882,2066,1,62,48
0.10000000000000142,2066,2,62,37
0.10000000000000142,2066,3,62,18
0.09999999999999787,2066,4,62,34
0.10000000000000142,2066,5,62,36
0.10000000000000142,2066,6,62,39
0.09999999999999787,2066,7,62,36
0.10000000000000142,2066,8,62,32
0.09999999999999787,2066,9,62,48
0.09999999999999787,2066,10,62,56
0.10000000000000142,2066,11,62,36
0.10000000000000142,2066,12,62,36
0.09999999999999787,2066,13,62,34
0.10000000000000142,2066,14,62,18
0.09999999999999787,2066,15,62,22
0.10000000000000142,2067,0,62,20
0.10000000000000142,2067,1,62,32
0.09999999999999787,2067,2,62,22
0.10000000000000142,2067,3,62,12
0.09999999999999787,2067,4,62,29
0.10000000000000142,2067,5,62,25
0.10000000000000142,2067,6,62,38
0.10000000000000142,2067,7,62,20
0.10000000000000142,2067,8,62,7
0.09999999999999787,2067,9,62,21
0.09999999999999787,2067,10,62,22
0.10000000000000142,2067,11,62,23
0.10000000000000142,2067,12,62,35
0.09999999999999787,2067,13,62,43
0.10000000000000142,2067,14,62,13
0.09999999999999787,2067,15,62,28
0.10000000000000142,2068,0,62,36
0.09999999999999787,2068,1,62,26
0.09999999999999787,2068,2,62,13
0.10000000000000142,2068,3,62,18
0.10000000000000142,2068,4,62,23
0.09999999999999787,2068,5,62,33
0.10000000000000142,2068,6,62,31
0.09999999999999787,2068,7,62,25
0.10000000000000142,2068,8,62,22
0.10000000000000142,2068,9,62,29
0.10000000000000142,2068,10,62,27
0.10000000000000142,2068,11,62,19
0.10000000000000142,2068,12,62,35
0.09999999999999787,2068,13,62,18
0.09999999999999787,2068,14,62,21
0.10000000000000142,2068,15,62,32
0.10000000000000142,2069,0,62,24
0.09999999999999787,2069,1,62,28
0.10000000000000142,2069,2,62,32
0.10000000000000142,2069,3,62,17
0.10000000000000142,2069,4,62,7
0.10000000000000142,2069,5,62,23
0.10000000000000142,2069,6,62,30
0.09999999999999787,2069,7,62,29
0.09999999999999787,2069,8,62,24
0.10000000000000142,2069,9,62,19
0.09999999999999787,2069,10,62,17
0.10000000000000142,2069,11,62,23
0.10000000000000142,2069,12,62,39
0.10000000000000142,2069,13,62,34
0.10000000000000142,2069,14,62,18
0.10000000000000142,2069,15,62,22
0.10000000000000142,2070,0,62,31
0.09999999999999432,2070,1,62,27
0.10000000000000142,2070,2,62,24
0.10000000000000142,2070,3,62,34
0.10000000000000142,2070,4,62,19
0.09999999999999432,2070,5,62,26
0.10000000000000142,2070,6,62,21
0.10000000000000142,2070,7,62,15
0.10000000000000142,2070,8,62,16
0.10000000000000142,2070,9,62,27
0.10000000000000142,2070,10,62,17
0.10000000000000142,2070,11,62,27
0.10000000000000142,2070,12,62,25
0.09999999999999432,2070,13,62,24
0.10000000000000142,2070,14,62,30
0.10000000000000142,2070,15,62,30
0.10000000000000142,2071,0,62,21
0.10000000000000142,2071,1,62,22
0.10000000000000142,2071,2,62,19
0.10000000000000142,2071,3,62,13
0.10000000000000142,2071,4,62,31
0.10000000000000142,2071,5,62,36
0.10000000000000142,2071,6,62,38
0.06818181818182012,2071,7,62,40
0.10000000000000142,2071,8,62,31
0.09999999999999432,2071,9,62,29
0.10000000000000142,2071,10,62,25
0.10000000000000142,2071,11,62,26
0.10000000000000142,2071,12,62,23
0.10000000000000142,2071,13,62,42
0.09999999999999432,2071,14,62,20
0.10000000000000142,2071,15,62,17
0.09999999999999432,2072,0,62,17
0.10000000000000142,2072,1,62,30
0.10000000000000142,2072,2,62,19
0.10000000000000142,2072,3,62,18
0.10000000000000142,2072,4,62,32
0.10000000000000142,2072,5,62,29
0.09999999999999432,2072,6,62,17
0.10000000000000142,2072,7,62,27
0.09999999999999432,2072,8,62,16
0.09999999999999432,2072,9,62,40
0.10000000000000142,2072,10,62,45
0.10000000000000142,2072,11,62,50
0.10000000000000142,2072,12,62,58
0.09999999999999432,2072,13,62,53
0.10000000000000142,2072,14,62,43
0.10000000000000142,2072,15,62,48
0.10000000000000142,2073,0,62,54
0.10000000000000142,2073,1,62,60
0.10000000000000142,2073,2,62,59
0.10000000000000142,2073,3,62,44
0.10000000000000142,2073,4,62,45
0.10000000000000142,2073,5,62,55
0.10000000000000142,2073,6,62,43
0.09999999999999432,2073,7,62,57
0.10000000000000142,2073,8,62,35
0.10000000000000142,2073,9,62,39
0.10000000000000142,2073,10,62,45
0.09999999999999432,2073,11,62,57
0.10000000000000142,2073,12,62,45
0.10000000000000142,2073,13,62,36
0.10000000000000142,2073,14,62,36
0.10000000000000142,2073,15,62,31
0.10000000000000142,2074,0,62,51
0.10000000000000142,2074,1,62,77
0.10000000000000142,2074,2,62,36
0.10000000000000142,2074,3,62,44
0.10000000000000142,2074,4,62,36
0.10000000000000142,2074,5,62,53
0.10000000000000142,2074,6,62,32
0.10000000000000142,2074,7,62,32
0.10000000000000142,2074,8,62,32
0.10000000000000142,2074,9,62,54
0.10000000000000142,2074,10,62,73
0.10000000000000142,2074,11,62,65
0.10000000000000142,2074,12,62,72
0.10000000000000142,2074,13,62,41
0.10000000000000142,2074,14,62,53
0.10000000000000142,2074,15,62,45
0.10000000000000142,2075,0,62,52
0.09999999999999432,2075,1,62,43
0.10000000000000142,2075,2,62,35
0.09999999999999432,2075,3,62,44
0.10000000000000142,2075,4,62,47
0.10000000000000142,2075,5,62,53
0.10000000000000142,2075,6,62,43
0.09999999999999432,2075,7,62,54
0.09999999999999432,2075,8,62,45
0.10000000000000142,2075,9,62,47
0.10000000000000142,2075,10,62,39
0.10000000000000142,2075,11,62,47
0.09999999999999432,2075,12,62,47
0.09999999999999432,2075,13,62,48
0.09999999999999432,2075,14,62,35
0.10000000000000142,2075,15,62,40
0.10000000000000142,2076,0,62,34
0.10000000000000142,2076,1,62,32
0.10000000000000142,2076,2,62,38
0.10000000000000142,2076,3,62,36
0.10000000000000142,2076,4,62,29
0.10000000000000142,2076,5,62,43
0.10000000000000142,2076,6,62,38
0.10000000000000142,2076,7,62,36
0.10000000000000142,2076,8,62,42
0.09999999999999432,2076,9,62,49
0.10000000000000142,2076,10,62,36
0.10000000000000142,2076,11,62,31
0.10000000000000142,2076,12,62,39
0.10000000000000142,2076,13,62,33
0.09999999999999432,2076,14,62,39
0.10000000000000142,2076,15,62,38
0.10000000000000142,2077,0,62,32
0.10000000000000142,2077,1,62,35
0.10000000000000142,2077,2,62,56
0.10000000000000142,2077,3,62,55
0.10000000000000142,2077,4,62,44
0.10000000000000142,2077,5,62,42
0.10000000000000142,2077,6,62,41
0.10000000000000142,2077,7,62,47
0.10000000000000142,2077,8,62,49
0.10000000000000142,2077,9,62,47
0.10000000000000142,2077,10,62,53
0.10000000000000142,2077,11,62,48
0.09999999999999432,2077,12,62,41
0.10000000000000142,2077,13,62,41
0.10000000000000142,2077,14,62,47
0.09999999999999432,2077,15,62,55
0.10000000000000142,2078,0,62,36
0.10000000000000142,2078,1,62,21
0.10000000000000142,2078,2,62,31
0.10000000000000142,2078,3,62,28
0.10000000000000142,2078,4,62,39
0.09999999999999432,2078,5,62,34
0.10000000000000142,2078,6,62,48
0.09999999999999432,2078,7,62,37
0.10000000000000142,2078,8,62,29
0.10000000000000142,2078,9,62,38
0.10000000000000142,2078,10,62,40
0.09999999999999432,2078,11,62,21
0.10000000000000142,2078,12,62,30
0.10000000000000142,2078,13,62,42
0.09999999999999432,2078,14,62,48
0.10000000000000142,2078,15,62,26
0.10000000000000142,2079,0,62,31
0.10000000000000142,2079,1,62,35
0.10000000000000142,2079,2,62,22
0.10000000000000142,2079,3,62,28
0.10000000000000142,2079,4,62,46
0.10000000000000142,2079,5,62,56
0.10000000000000142,2079,6,62,39
0.09999999999999432,2079,7,62,28
0.10000000000000142,2079,8,62,38
0.10000000000000142,2079,9,62,34
0.10000000000000142,2079,10,62,39
0.10000000000000142,2079,11,62,44
0.10000000000000142,2079,12,62,45
0.10000000000000142,2079,13,62,23
0.10000000000000142,2079,14,62,29
0.10000000000000142,2079,15,62,31
0.09999999999999432,2080,0,62,22
0.10000000000000142,2080,1,62,33
0.09999999999999432,2080,2,62,41
0.09999999999999432,2080,3,62,36
0.09999999999999432,2080,4,62,27
0.10000000000000853,2080,5,62,23
0.10000000000000853,2080,6,62,32
0.09999999999999432,2080,7,62,30
0.09999999999999432,2080,8,62,34
0.10000000000000853,2080,9,62,38
0.10000000000000853,2080,10,62,33
0.09999999999999432,2080,11,62,28
0.09999999999999432,2080,12,62,42
0.09999999999999432,2080,13,62,39
0.09999999999999432,2080,14,62,28
0.10000000000000853,2080,15,62,27
0.10000000000000853,2081,0,62,42
0.09999999999999432,2081,1,62,34
0.10000000000000853,2081,2,62,28
0.09999999999999432,2081,3,62,38
0.09999999999999432,2081,4,62,37
0.09999999999999432,2081,5,62,43
0.09999999999999432,2081,6,62,43
0.09999999999999432,2081,7,62,46
0.09999999999999432,2081,8,62,42
0.10000000000000853,2081,9,62,49
0.09999999999999432,2081,10,62,50
0.09999999999999432,2081,11,62,60
0.09999999999999432,2081,12,62,67
0.09999999999999432,2081,13,62,51
0.10000000000000853,2081,14,62,46
0.09999999999999432,2081,15,62,48
0.09999999999999432,2082,0,62,33
0.09999999999999432,2082,1,62,59
0.10000000000000853,2082,2,62,37
0.09999999999999432,2082,3,62,33
0.09999999999999432,2082,4,62,28
0.10000000000000853,2082,5,62,45
0.09999999999999432,2082,6,62,42
0.09999999999999432,2082,7,62,42
0.10000000000000853,2082,8,62,50
0.09999999999999432,2082,9,62,43
0.09999999999999432,2082,10,62,43
0.10000000000000853,2082,11,62,33
0.10000000000000853,2082,12,62,34
0.09999999999999432,2082,13,62,39
0.09999999999999432,2082,14,62,34
0.10000000000000853,2082,15,62,38
0.10000000000000853,2083,0,62,35
0.09999999999999432,2083,1,62,35
0.09999999999999432,2083,2,62,35
0.10000000000000853,2083,3,62,38
0.09999999999999432,2083,4,62,49
0.10000000000000853,2083,5,62,38
0.09999999999999432,2083,6,62,39
0.09999999999999432,2083,7,62,40
0.09999999999999432,2083,8,62,27
0.10000000000000853,2083,9,62,28
0.10000000000000853,2083,10,62,33
0.10000000000000853,2083,11,62,35
0.09999999999999432,2083,12,62,32
0.09999999999999432,2083,13,62,36
0.09999999999999432,2083,14,62,46
0.10000000000000853,2083,15,62,39
0.09999999999999432,2084,0,62,32
0.09999999999999432,2084,1,62,61
0.10000000000000853,2084,2,62,35
0.09999999999999432,2084,3,62,34
0.09999999999999432,2084,4,62,51
0.09999999999999432,2084,5,62,59
0.10000000000000853,2084,6,62,47
0.09999999999999432,2084,7,62,43
0.09999999999999432,2084,8,62,36
0.09999999999999432,2084,9,62,37
0.09999999999999432,2084,10,62,47
0.10000000000000853,2084,11,62,66
0.10000000000000853,2084,12,62,60
0.09999999999999432,2084,13,62,61
0.10000000000000853,2084,14,62,70
0.09999999999999432,2084,15,62,74
0.09999999999999432,2085,0,62,58
0.10000000000000853,2085,1,62,52
0.10000000000000853,2085,2,62,66
0.10000000000000853,2085,3,62,84
0.09999999999999432,2085,4,62,73
0.09999999999999432,2085,5,62,63
0.09999999999999432,2085,6,62,68
0.10000000000000853,2085,7,62,47
0.09999999999999432,2085,8,62,38
0.10000000000000853,2085,9,62,56
0.09999999999999432,2085,10,62,38
0.09999999999999432,2085,11,62,61
0.09999999999999432,2085,12,62,60
0.09999999999999432,2085,13,62,58
0.09999999999999432,2085,14,62,47
0.10000000000000853,2085,15,62,46
0.09999999999999432,2086,0,62,38
0.09999999999999432,2086,1,62,37
0.10000000000000853,2086,2,62,47
0.10000000000000853,2086,3,62,52
0.10000000000000853,2086,4,62,48
0.10000000000000853,2086,5,62,51
0.10000000000000853,2086,6,62,45
0.09999999999999432,2086,7,62,43
0.10000000000000853,2086,8,62,36
0.10000000000000853,2086,9,62,40
0.09999999999999432,2086,10,62,60
0.09999999999999432,2086,11,62,64
0.09999999999999432,2086,12,62,54
0.09999999999999432,2086,13,62,47
0.09999999999999432,2086,14,62,67
0.09999999999999432,2086,15,62,58
0.09999999999999432,2087,0,62,54
0.10000000000000853,2087,1,62,50
0.09999999999999432,2087,2,62,60
0.10000000000000853,2087,3,62,64
0.09999999999999432,2087,4,62,70
0.10000000000000853,2087,5,62,58
0.09999999999999432,2087,6,62,58
0.09999999999999432,2087,7,62,64
0.09999999999999432,2087,8,62,65
0.10000000000000853,2087,9,62,61
0.10000000000000853,2087,10,62,56
0.10000000000000853,2087,11,62,68
0.10000000000000853,2087,12,62,51
0.09999999999999432,2087,13,62,59
0.09999999999999432,2087,14,62,52
0.10000000000000853,2087,15,62,60
0.10000000000000853,2088,0,62,52
0.09999999999999432,2088,1,62,44
0.09999999999999432,2088,2,62,44
0.09999999999999432,2088,3,62,38
0.09999999999999432,2088,4,62,45
0.10000000000000853,2088,5,62,42
0.09999999999999432,2088,6,62,47
0.10000000000000853,2088,7,62,43
0.09999999999999432,2088,8,62,64
0.09999999999999432,2088,9,62,48
0.09999999999999432,2088,10,62,59
0.09999999999999432,2088,11,62,60
0.09999999999999432,2088,12,62,55
0.09999999999999432,2088,13,62,54
0.09999999999999432,2088,14,62,39
0.09999999999999432,2088,15,62,54
0.09999999999999432,2089,0,62,38
0.09999999999999432,2089,1,62,44
0.09999999999999432,2089,2,62,78
0.09999999999999432,2089,3,62,58
0.10000000000000853,2089,4,62,37
0.09999999999999432,2089,5,62,50
0.09999999999999432,2089,6,62,48
0.09999999999999432,2089,7,62,54
0.10000000000000853,2089,8,62,49
0.09999999999999432,2089,9,62,49
0.10000000000000853,2089,10,62,54
0.09999999999999432,2089,11,62,46
0.09999999999999432,2089,12,62,45
0.10000000000000853,2089,13,62,68
0.09999999999999432,2089,14,62,49
0.09999999999999432,2089,15,62,44
0.09999999999999432,2090,0,62,46
0.09999999999999432,2090,1,62,52
0.09999999999999432,2090,2,62,71
0.10000000000000853,2090,3,62,61
0.09999999999999432,2090,4,62,61
0.09999999999999432,2090,5,62,62
0.10000000000000853,2090,6,62,42
0.10000000000000853,2090,7,62,47
0.10000000000000853,2090,8,62,52
0.09999999999999432,2090,9,62,42
0.09999999999999432,2090,10,62,37
0.09999999999999432,2090,11,62,44
0.10000000000000853,2090,12,62,54
0.10000000000000853,2090,13,62,44
0.09999999999999432,2090,14,62,38
0.10000000000000853,2090,15,62,24
0.10000000000000853,2091,0,62,5
0.045454545454546746,2091,1,62,10
0.024999999999991473,2091,2,62,38
0.03636363636363171,2091,3,62,56
0.09999999999999432,2091,4,62,52
0.10000000000000853,2091,5,62,47
0.09999999999999432,2091,6,62,47
0.10000000000000853,2091,7,62,53
0.10000000000000853,2091,8,62,47
0.09999999999999432,2091,9,62,48
0.09999999999999432,2091,10,62,58
0.09999999999999432,2091,11,62,53
0.09999999999999432,2091,12,62,59
0.09999999999999432,2091,13,62,50
0.10000000000000853,2091,14,62,58
0.10000000000000853,2091,15,62,76
0.09999999999999432,2092,0,62,81
0.09999999999999432,2092,1,62,53
0.09999999999999432,2092,2,62,86
0.09999999999999432,2092,3,62,88
0.10000000000000853,2092,4,62,42
0.10000000000000853,2092,5,62,51
0.10000000000000853,2092,6,62,74
0.09999999999999432,2092,7,62,52
0.09999999999999432,2092,8,62,40
0.10000000000000853,2092,9,62,82
0.09999999999999432,2092,10,62,56
0.09999999999999432,2092,11,62,67
0.09999999999999432,2092,12,62,57
0.09999999999999432,2092,13,62,40
0.10000000000000853,2092,14,62,53
0.10000000000000853,2092,15,62,74
0.10000000000000853,2093,0,62,73
0.09999999999999432,2093,1,62,73
0.09999999999999432,2093,2,62,45
0.09999999999999432,2093,3,62,49
0.10000000000000853,2093,4,62,60
0.09999999999999432,2093,5,62,53
0.10000000000000853,2093,6,62,44
0.09999999999999432,2093,7,62,44
0.09999999999999432,2093,8,62,50
0.09999999999999432,2093,9,62,53
0.09999999999999432,2093,10,62,42
0.09999999999999432,2093,11,62,52
0.10000000000000853,2093,12,62,51
0.09999999999999432,2093,13,62,53
0.09999999999999432,2093,14,62,57
0.10000000000000853,2093,15,62,39
0.09999999999999432,2094,0,62,32
0.09999999999999432,2094,1,62,36
0.10000000000000853,2094,2,62,36
0.09999999999999432,2094,3,62,39
0.10000000000000853,2094,4,62,61
0.09999999999999432,2094,5,62,49
0.09999999999999432,2094,6,62,54
0.10000000000000853,2094,7,62,61
0.10000000000000853,2094,8,62,49
0.09999999999999432,2094,9,62,41
0.10000000000000853,2094,10,62,55
0.09999999999999432,2094,11,62,84
0.10000000000000853,2094,12,62,74
0.09999999999999432,2094,13,62,52
0.10000000000000853,2094,14,62,47
0.10000000000000853,2094,15,62,48
0.09999999999999432,2095,0,62,58
0.03636363636363171,2095,1,62,50
0.09999999999999432,2095,2,62,1
0.09999999999999432,2095,3,62,6
0.09999999999999432,2095,4,62,3
0.03409090909090651,2095,5,62,12
0.10000000000000853,2095,6,62,6
0.036363636363645924,2095,7,62,18
0.09999999999999432,2095,8,62,8
0.09999999999999432,2095,9,62,3
0.04772727272727195,2095,10,62,11
0.10000000000000853,2095,11,62,9
0.09999999999999432,2095,12,62,12
0.10000000000000853,2095,13,62,6
0.09999999999999432,2095,14,62,7
0.09999999999999432,2095,15,62,21
0.09999999999999432,2096,0,62,30
0.10000000000002274,2096,1,62,20
0.09999999999999432,2096,2,62,6
0.10000000000002274,2096,3,62,17
0.10000000000002274,2096,4,62,20
0.09999999999999432,2096,5,62,23
0.09999999999999432,2096,6,62,24
0.10000000000002274,2096,7,62,18
0.09999999999999432,2096,8,62,25
0.09999999999999432,2096,9,62,32
0.09999999999999432,2096,10,62,31
0.09999999999999432,2096,11,62,22
0.09999999999999432,2096,12,62,17
0.09999999999999432,2096,13,62,12
0.09999999999999432,2096,14,62,40
0.09999999999999432,2096,15,62,35
0.09999999999999432,2097,0,62,28
0.09999999999999432,2097,1,62,33
0.09999999999999432,2097,2,62,47
0.09999999999999432,2097,3,62,34
0.09999999999999432,2097,4,62,94
0.09999999999999432,2097,5,62,50
0.09999999999999432,2097,6,62,47
0.09999999999999432,2097,7,62,40
0.10000000000002274,2097,8,62,21
0.09999999999999432,2097,9,62,25
0.10000000000002274,2097,10,62,41
0.09999999999999432,2097,11,62,37
0.09999999999999432,2097,12,62,27
0.09999999999999432,2097,13,62,17
0.09999999999999432,2097,14,62,24
0.09999999999999432,2097,15,62,35
0.09999999999999432,2098,0,62,40
0.09999999999999432,2098,1,62,30
0.10000000000002274,2098,2,62,26
0.09999999999999432,2098,3,62,36
0.09999999999999432,2098,4,62,40
0.09999999999999432,2098,5,62,31
0.10000000000002274,2098,6,62,37
0.09999999999999432,2098,7,62,39
0.09999999999999432,2098,8,62,37
0.09999999999999432,2098,9,62,32
0.09999999999999432,2098,10,62,31
0.10000000000002274,2098,11,62,43
0.09999999999999432,2098,12,62,50
0.09999999999999432,2098,13,62,42
0.09999999999999432,2098,14,62,41
0.09999999999999432,2098,15,62,29
0.09999999999999432,2099,0,62,27
0.09999999999999432,2099,1,62,23
0.09999999999999432,2099,2,62,42
0.09999999999999432,2099,3,62,29
0.10000000000002274,2099,4,62,26
0.09999999999999432,2099,5,62,27
0.09999999999999432,2099,6,62,24
0.09999999999999432,2099,7,62,22
0.10000000000002274,2099,8,62,24
0.09999999999999432,2099,9,62,19
0.09999999999999432,2099,10,62,29
0.09999999999999432,2099,11,62,37
0.09999999999999432,2099,12,62,32
0.10000000000002274,2099,13,62,26
0.09999999999999432,2099,14,62,31
0.09999999999999432,2099,15,62,25
0.09999999999999432,2100,0,62,24
0.09999999999999432,2100,1,62,41
0.09999999999999432,2100,2,62,22
0.09999999999999432,2100,3,62,46
0.09999999999999432,2100,4,62,22
0.09999999999999432,2100,5,62,38
0.09999999999999432,2100,6,62,32
0.09999999999999432,2100,7,62,24
0.10000000000002274,2100,8,62,26
0.09999999999999432,2100,9,62,45
0.09999999999999432,2100,10,62,44
0.09999999999999432,2100,11,62,41
0.09999999999999432,2100,12,62,39
0.10000000000002274,2100,13,62,25
0.09999999999999432,2100,14,62,30
0.09999999999999432,2100,15,62,47
0.09999999999999432,2101,0,62,53
0.09999999999999432,2101,1,62,35
0.09999999999999432,2101,2,62,22
0.09999999999999432,2101,3,62,22
0.10000000000002274,2101,4,62,29
0.09999999999999432,2101,5,62,38
0.10000000000002274,2101,6,62,35
0.09999999999999432,2101,7,62,29
0.10000000000002274,2101,8,62,18
0.09999999999999432,2101,9,62,14
0.09999999999999432,2101,10,62,30
0.10000000000002274,2101,11,62,32
0.09999999999999432,2101,12,62,28
0.10000000000002274,2101,13,62,28
0.09999999999999432,2101,14,62,29
0.10000000000002274,2101,15,62,38
0.09999999999999432,2102,0,62,26
0.09999999999999432,2102,1,62,31
0.09999999999999432,2102,2,62,21
0.09999999999999432,2102,3,62,21
0.10000000000002274,2102,4,62,40
0.09999999999999432,2102,5,62,59
0.09999999999999432,2102,6,62,41
0.09999999999999432,2102,7,62,38
0.09999999999999432,2102,8,62,39
0.09999999999999432,2102,9,62,50
0.09999999999999432,2102,10,62,36
0.10000000000002274,2102,11,62,47
0.09999999999999432,2102,12,62,34
0.10000000000002274,2102,13,62,24
0.09999999999999432,2102,14,62,51
0.09999999999999432,2102,15,62,52
0.09999999999999432,2103,0,62,77
0.09999999999999432,2103,1,62,93
0.09999999999999432,2103,2,62,70
0.09999999999999432,2103,3,62,55
0.10000000000002274,2103,4,62,28
0.09999999999999432,2103,5,62,17
0.09999999999999432,2103,6,62,17
0.10000000000002274,2103,7,62,27
0.09999999999999432,2103,8,62,22
0.10000000000002274,2103,9,62,12
0.09999999999999432,2103,10,62,8
0.09999999999999432,2103,11,62,12
0.09999999999999432,2103,12,62,21
0.10000000000002274,2103,13,62,13
0.10000000000002274,2103,14,62,16
0.09999999999999432,2103,15,62,12
0.10000000000002274,2104,0,62,13
0.10000000000002274,2104,1,62,20
0.09999999999999432,2104,2,62,17
0.09999999999999432,2104,3,62,25
0.09999999999999432,2104,4,62,27
0.10000000000002274,2104,5,62,16
0.09999999999999432,2104,6,62,16
0.09999999999999432,2104,7,62,15
0.10000000000002274,2104,8,62,13
0.09999999999999432,2104,9,62,19
0.09999999999999432,2104,10,62,17
0.09999999999999432,2104,11,62,16
0.09999999999999432,2104,12,62,30
0.09999999999999432,2104,13,62,22
0.09999999999999432,2104,14,62,16
0.09999999999999432,2104,15,62,13
0.09999999999999432,2105,0,62,28
0.09999999999999432,2105,1,62,15
0.09999999999999432,2105,2,62,16
0.09999999999999432,2105,3,62,7
0.09999999999999432,2105,4,62,45
0.09999999999999432,2105,5,62,31
0.10000000000002274,2105,6,62,20
0.09999999999999432,2105,7,62,46
0.09999999999999432,2105,8,62,60
0.09999999999999432,2105,9,62,73
0.10000000000002274,2105,10,62,51
0.09999999999999432,2105,11,62,36
0.09999999999999432,2105,12,62,28
0.09999999999999432,2105,13,62,27
0.09999999999999432,2105,14,62,41
0.025000000000005684,2105,15,62,66
0.09999999999999432,2106,0,62,38
0.09999999999999432,2106,1,62,43
0.09999999999999432,2106,2,62,20
0.09999999999999998,2106,3,64,34
0.10000000000000009,2106,4,64,25
0.10000000000000009,2106,5,64,36
0.09999999999999964,2106,6,64,35
0.09999999999999964,2106,7,64,32
0.09999999999999964,2106,8,64,25
0.09999999999999964,2106,9,64,19
0.10000000000000142,2106,10,64,48
0.09999999999999964,2106,11,64,76
0.09999999999999964,2106,12,64,112
0.10000000000000142,2106,13,64,78
0.09999999999999964,2106,14,64,71
0.09999999999999964,2106,15,64,87
0.09999999999999964,2107,0,64,82
0.09999999999999964,2107,1,64,89
0.10000000000000142,2107,2,64,95
0.09999999999999964,2107,3,64,71
0.10000000000000142,2107,4,64,84
0.10000000000000142,2107,5,64,55
0.10000000000000142,2107,6,64,64
0.10000000000000142,2107,7,64,76
0.10000000000000142,2107,8,64,77
0.10000000000000142,2107,9,64,81
0.10000000000000142,2107,10,64,84
0.10000000000000142,2107,11,64,86
0.09999999999999787,2107,12,64,52
0.10000000000000142,2107,13,64,72
0.09999999999999787,2107,14,64,97
0.10000000000000142,2107,15,64,66
0.09999999999999787,2108,0,64,7
0.10000000000000142,2108,1,64,28
0.09999999999999787,2108,2,64,15
0.10000000000000142,2108,3,64,16
0.09999999999999787,2108,4,64,12
0.10000000000000142,2108,5,64,28
0.09999999999999787,2108,6,64,21
0.09999999999999787,2108,7,64,23
0.10000000000000142,2108,8,64,34
0.10000000000000142,2108,9,64,21
0.10000000000000142,2108,10,64,23
0.10000000000000142,2108,11,64,33
0.10000000000000142,2108,12,64,4
0.09999999999999787,2108,13,64,6
0.10000000000000142,2108,14,64,4
0.10000000000000142,2108,15,64,9
0.10000000000000142,2109,0,64,5
0.09999999999999432,2109,1,64,10
0.10000000000000142,2109,2,64,8
0.09999999999999432,2109,3,64,2
0.10000000000000142,2109,4,64,6
0.10000000000000142,2109,5,64,3
0.09999999999999432,2109,6,64,4
0.10000000000000142,2109,7,64,8
0.10000000000000142,2109,8,64,6
0.10000000000000142,2109,9,64,14
0.10000000000000142,2109,10,64,14
0.10000000000000142,2109,11,64,10
0.10000000000000142,2109,12,64,5
0.10000000000000142,2109,13,64,3
0.10000000000000142,2109,14,64,7
0.10000000000000142,2109,15,64,5
0.10000000000000142,2110,0,64,1
0.09999999999999432,2110,1,64,25
0.10000000000000142,2110,2,64,36
0.10000000000000142,2110,3,64,40
0.10000000000000142,2110,4,64,40
0.10000000000000142,2110,5,64,29
0.10000000000000142,2110,6,64,45
0.10000000000000142,2110,7,64,29
0.10000000000000142,2110,8,64,32
0.10000000000000142,2110,9,64,31
0.10000000000000142,2110,10,64,51
0.10000000000000142,2110,11,64,49
0.10000000000000142,2110,12,64,50
0.10000000000000142,2110,13,64,40
0.10000000000000142,2110,14,64,38
0.10000000000000142,2110,15,64,37
0.09999999999999432,2111,0,64,16
0.09999999999999432,2111,1,64,20
0.09999999999999432,2111,2,64,25
0.09999999999999432,2111,3,64,18
0.10000000000000142,2111,4,64,23
0.10000000000000142,2111,5,64,20
0.09999999999999432,2111,6,64,27
0.10000000000000142,2111,7,64,26
0.10000000000000142,2111,8,64,24
0.10000000000000142,2111,9,64,25
0.10000000000000142,2111,10,64,22
0.10000000000000142,2111,11,64,20
0.10000000000000142,2111,12,64,18
0.10000000000000142,2111,13,64,16
0.10000000000000853,2111,14,64,17
0.10000000000000853,2111,15,64,22
0.09999999999999432,2112,0,64,14
0.10000000000000853,2112,1,64,23
0.09999999999999432,2112,2,64,21
0.09999999999999432,2112,3,64,15
0.09999999999999432,2112,4,64,23
0.09999999999999432,2112,5,64,20
0.09999999999999432,2112,6,64,19
0.09999999999999432,2112,7,64,18
0.09999999999999432,2112,8,64,24
0.09999999999999432,2112,9,64,20
0.09999999999999432,2112,10,64,16
0.10000000000000853,2112,11,64,20
0.09999999999999432,2112,12,64,22
0.09999999999999432,2112,13,64,18
0.10000000000000853,2112,14,64,17
0.10000000000000853,2112,15,64,19
0.09999999999999432,2113,0,64,19
0.10000000000000853,2113,1,64,20
0.10000000000000853,2113,2,64,20
0.09999999999999432,2113,3,64,30
0.09999999999999432,2113,4,64,33
0.10000000000000853,2113,5,64,24
0.09999999999999432,2113,6,64,27
0.09999999999999432,2113,7,64,21
0.10000000000000853,2113,8,64,24
0.10000000000000853,2113,9,64,15
0.09999999999999432,2113,10,64,14
0.10000000000000853,2113,11,64,19
0.09999999999999432,2113,12,64,25
0.09999999999999432,2113,13,64,28
0.09999999999999432,2113,14,64,31
0.09999999999999432,2113,15,64,23
0.10000000000000853,2114,0,64,31
0.10000000000000853,2114,1,64,18
0.09999999999999432,2114,2,64,31
0.10000000000000853,2114,3,64,30
0.09999999999999432,2114,4,64,38
0.09999999999999432,2114,5,64,31
0.09999999999999432,2114,6,64,29
0.09999999999999432,2114,7,64,26
0.09999999999999432,2114,8,64,25
0.09999999999999432,2114,9,64,29
0.09999999999999432,2114,10,64,29
0.10000000000000853,2114,11,64,27
0.09999999999999432,2114,12,64,38
0.09999999999999432,2114,13,64,31
0.09999999999999432,2114,14,64,32
0.09999999999999432,2114,15,64,31
0.09999999999999432,2115,0,64,38
0.09999999999999432,2115,1,64,28
0.10000000000000853,2115,2,64,35
0.09999999999999432,2115,3,64,26
0.09999999999999432,2115,4,64,38
0.10000000000000853,2115,5,64,28
0.09999999999999432,2115,6,64,27
0.09999999999999432,2115,7,64,27
0.10000000000000853,2115,8,64,34
0.09999999999999432,2115,9,64,28
0.10000000000000853,2115,10,64,37
0.10000000000000853,2115,11,64,39
0.09999999999999432,2115,12,64,47
0.10000000000000853,2115,13,64,45
0.09999999999999432,2115,14,64,34
0.10000000000000853,2115,15,64,27
0.10000000000000853,2116,0,64,28
0.10000000000000853,2116,1,64,36
0.09999999999999432,2116,2,64,33
0.10000000000000853,2116,3,64,38
0.10000000000000853,2116,4,64,36
0.10000000000000853,2116,5,64,32
0.10000000000000853,2116,6,64,34
0.09999999999999432,2116,7,64,42
0.10000000000000853,2116,8,64,62
0.10000000000000853,2116,9,64,70
0.09999999999999432,2116,10,64,54
0.10000000000000853,2116,11,64,59
0.09999999999999432,2116,12,64,69
0.09999999999999432,2116,13,64,64
0.09999999999999432,2116,14,64,60
0.10000000000000853,2116,15,64,69
0.09999999999999432,2117,0,64,60
0.09999999999999432,2117,1,64,67
0.10000000000000853,2117,2,64,48
0.09999999999999432,2117,3,64,31
0.09999999999999432,2117,4,64,44
0.10000000000000853,2117,5,64,30
0.09999999999999432,2117,6,64,35
0.09999999999999432,2117,7,64,40
0.09999999999999432,2117,8,64,44
0.10000000000000853,2117,9,64,54
0.09999999999999432,2117,10,64,41
0.09999999999999432,2117,11,64,58
0.10000000000002274,2117,12,64,51
0.09999999999999432,2117,13,64,55
0.09999999999999432,2117,14,64,30
0.10000000000002274,2117,15,64,69
0.09999999999999432,2118,0,64,29
0.10000000000002274,2118,1,64,41
0.09999999999999432,2118,2,64,48
0.10000000000002274,2118,3,64,58
0.09999999999999432,2118,4,64,44
0.09999999999999432,2118,5,64,42
0.09999999999999432,2118,6,64,38
0.09999999999999432,2118,7,64,50
0.09999999999999432,2118,8,64,39
0.10000000000002274,2118,9,64,47
0.09999999999999432,2118,10,64,37
0.09999999999999432,2118,11,64,42
0.09999999999999432,2118,12,64,45
0.09999999999999432,2118,13,64,43
0.09999999999999432,2118,14,64,36
0.10000000000002274,2118,15,64,63
0.09999999999999432,2119,0,64,59
0.09999999999999432,2119,1,64,66
0.09999999999999432,2119,2,64,53
0.09999999999999432,2119,3,64,62
0.09999999999999432,2119,4,64,81
0.09999999999999432,2119,5,64,58
0.09999999999999432,2119,6,64,64
0.09999999999999432,2119,7,64,58
0.10000000000002274,2119,8,64,57
0.09999999999999432,2119,9,64,48
0.09999999999999432,2119,10,64,54
0.10000000000002274,2119,11,64,50
0.09999999999999432,2119,12,64,40
0.09999999999999432,2119,13,64,58
0.09999999999999432,2119,14,64,51
0.09999999999999432,2119,15,64,46
0.09999999999999432,2120,0,64,65
0.09999999999999432,2120,1,64,60
0.09999999999999432,2120,2,64,58
0.09999999999999432,2120,3,64,41
0.09999999999999432,2120,4,64,41
0.10000000000002274,2120,5,64,41
0.09999999999999432,2120,6,64,39
0.09999999999999432,2120,7,64,46
0.09999999999999432,2120,8,64,52
0.10000000000002274,2120,9,64,62
0.09999999999999432,2120,10,64,41
0.09999999999999432,2120,11,64,35
0.09999999999999432,2120,12,64,31
0.10000000000002274,2120,13,64,57
0.09999999999999432,2120,14,64,32
0.09999999999999432,2120,15,64,44
0.10000000000002274,2121,0,64,44
0.09999999999999432,2121,1,64,41
0.10000000000002274,2121,2,64,39
0.09999999999999432,2121,3,64,50
0.09999999999999432,2121,4,64,66
0.09999999999999432,2121,5,64,34
0.09999999999999432,2121,6,64,36
0.10000000000002274,2121,7,64,31
0.09999999999999432,2121,8,64,37
0.10000000000002274,2121,9,64,59
0.09999999999999432,2121,10,64,40
0.09999999999999432,2121,11,64,54
0.09999999999999432,2121,12,64,31
0.09999999999999432,2121,13,64,43
0.09999999999999432,2121,14,64,31
0.10000000000002274,2121,15,64,36
0.09999999999999432,2122,0,64,29
0.09999999999999432,2122,1,64,33
0.09999999999999432,2122,2,64,35
0.10000000000002274,2122,3,64,36
0.09999999999999432,2122,4,64,39
0.10000000000002274,2122,5,64,29
0.09999999999999432,2122,6,64,24
0.09999999999999432,2122,7,64,37
0.09999999999999432,2122,8,64,47
0.09999999999999432,2122,9,64,32
0.10000000000002274,2122,10,64,52
0.09999999999999432,2122,11,64,44
0.09999999999999432,2122,12,64,29
0.09999999999999432,2122,13,64,39
0.09999999999999432,2122,14,64,34
0.10000000000002274,2122,15,64,50
0.10000000000002274,2123,0,64,27
0.09999999999999432,2123,1,64,58
0.09999999999999432,2123,2,64,46
0.09999999999999432,2123,3,64,44
0.09999999999999432,2123,4,64,37
0.09999999999999432,2123,5,64,42
0.10000000000002274,2123,6,64,45
0.09999999999999432,2123,7,64,26
0.09999999999999432,2123,8,64,56
0.09999999999999432,2123,9,64,72
0.09999999999999432,2123,10,64,57
0.09999999999999432,2123,11,64,44
0.10000000000002274,2123,12,64,38
0.10000000000002274,2123,13,64,27
0.09999999999999432,2123,14,64,48
0.09999999999999432,2123,15,64,72
0.10000000000002274,2124,0,64,53
0.09999999999999432,2124,1,64,34
0.09999999999999432,2124,2,64,28
0.09999999999999432,2124,3,64,41
0.09999999999999432,2124,4,64,39
0.09999999999999432,2124,5,64,33
0.09999999999999432,2124,6,64,41
0.09999999999999432,2124,7,64,35
0.09999999999999432,2124,8,64,48
0.10000000000002274,2124,9,64,39
0.09999999999999432,2124,10,67,23
0.09999999999999432,2124,11,67,3
0.09999999999999432,2124,12,67,15
0.09999999999999432,2124,13,67,1
0.09999999999999432,2124,14,67,3
0.10000000000000853,2124,15,67,2
0.10000000000000853,2125,0,67,25
0.10000000000000853,2125,1,67,3
0.09999999999999432,2125,2,67,1
0.09999999999999432,2125,3,67,2
0.09999999999999432,2125,4,67,6
0.09999999999999432,2125,5,67,26
0.10000000000000853,2125,6,67,1
0.10000000000000853,2125,7,67,6
0.09999999999999432,2125,8,67,1
0.09999999999999432,2125,9,67,19
0.10000000000000853,2125,10,67,3
0.09999999999999432,2125,11,67,1
0.09999999999999432,2125,12,67,3
0.09999999999999432,2125,13,67,25
0.10000000000000853,2125,14,67,1
0.09999999999999432,2125,15,67,13
0.09999999999999432,2126,0,67,4
0.09999999999999432,2126,1,67,3
0.09999999999999432,2126,2,67,17
0.09999999999999432,2126,3,67,1
0.09999999999999432,2126,4,67,8
0.10000000000000853,2126,5,67,2
0.09999999999999432,2126,6,67,5
0.09999999999999432,2126,7,67,12
0.09999999999999432,2126,8,67,4
0.09999999999999432,2126,9,67,31
0.10000000000000853,2126,10,67,5
0.10000000000000853,2126,11,67,17
0.10000000000000853,2126,12,67,6
0.09999999999999432,2126,13,67,29
0.09999999999999432,2126,14,67,5
0.10000000000000853,2126,15,67,9
0.09999999999999432,2127,0,67,4
0.09999999999999432,2127,1,67,29
0.09999999999999432,2127,2,67,4
0.09999999999999432,2127,3,67,17
0.10000000000002274,2127,4,67,6
0.10000000000002274,2127,5,67,27
0.09999999999999432,2127,6,67,5
0.09999999999999432,2127,7,67,6
0.10000000000002274,2127,8,67,4
0.09999999999999432,2127,9,67,34
0.10000000000002274,2127,10,67,4
0.10000000000002274,2127,11,67,17
0.09999999999999432,2127,12,67,6
0.09999999999999432,2127,13,67,29
0.09999999999999432,2127,14,67,10
0.09999999999999432,2127,15,67,4
0.09999999999999432,2128,0,67,30
0.09999999999999432,2128,1,67,4
0.09999999999999432,2128,2,67,16
0.09999999999999432,2128,3,67,6
0.09999999999999432,2128,4,67,29
0.09999999999999432,2128,5,67,5
0.09999999999999432,2128,6,67,9
0.09999999999999432,2128,7,67,4
0.09999999999999432,2128,8,67,33
0.09999999999999432,2128,9,67,5
0.09999999999999432,2128,10,67,16
0.09999999999999432,2128,11,67,25
0.09999999999999432,2128,12,67,5
0.09999999999999432,2128,13,67,10
0.10000000000002274,2128,14,67,4
0.09999999999999432,2128,15,67,28
0.09999999999999432,2129,0,67,5
0.10000000000002274,2129,1,67,10
0.09999999999999432,2129,2,67,30
0.09999999999999432,2129,3,67,5
0.09999999999999432,2129,4,67,9
0.09999999999999432,2129,5,67,5
0.09999999999999432,2129,6,67,29
0.09999999999999432,2129,7,67,4
0.09999999999999432,2129,8,67,17
0.09999999999999432,2129,9,67,6
0.09999999999999432,2129,10,67,31
0.09999999999999432,2129,11,67,4
0.09999999999999432,2129,12,67,15
0.09999999999999432,2129,13,67,11
0.09999999999999432,2129,14,67,4
0.10000000000002274,2129,15,67,32
0.09999999999999432,2130,0,67,4
0.09999999999999432,2130,1,67,17
0.09999999999999432,2130,2,67,30
0.09999999999999432,2130,3,67,8
0.09999999999999432,2130,4,67,4
0.09999999999999432,2130,5,67,30
0.09999999999999432,2130,6,67,5
0.09999999999999432,2130,7,67,16
0.09999999999999432,2130,8,67,27
0.09999999999999432,2130,9,67,5
0.09999999999999432,2130,10,67,9
0.09999999999999432,2130,11,67,4
0.09999999999999432,2130,12,67,28
0.09999999999999432,2130,13,67,4
0.10000000000002274,2130,14,67,18
0.09999999999999432,2130,15,67,6
0.09999999999999432,2131,0,67,31
0.09999999999999432,2131,1,67,5
0.09999999999999432,2131,2,67,9
0.09999999999999432,2131,3,67,4
0.10000000000002274,2131,4,67,30
0.09999999999999432,2131,5,67,5
0.09999999999999432,2131,6,67,16
0.09999999999999432,2131,7,67,26
0.10000000000002274,2131,8,67,9
0.10000000000002274,2131,9,67,4
0.09999999999999432,2131,10,67,27
0.09999999999999432,2131,11,67,4
0.09999999999999432,2131,12,67,16
0.10000000000002274,2131,13,67,28
0.10000000000002274,2131,14,67,5
0.09999999999999432,2131,15,67,11
0.09999999999999432,2132,0,67,4
0.09999999999999432,2132,1,67,31
0.09999999999999432,2132,2,67,5
0.10000000000002274,2132,3,67,16
0.09999999999999432,2132,4,67,31
0.09999999999999432,2132,5,67,4
0.09999999999999432,2132,6,67,9
0.09999999999999432,2132,7,67,4
0.10000000000002274,2132,8,67,28
0.10000000000002274,2132,9,67,5
0.09999999999999432,2132,10,67,17
0.09999999999999432,2132,11,67,6
0.09999999999999432,2132,12,67,30
0.09999999999999432,2132,13,67,9
0.10000000000002274,2132,14,67,4
0.09999999999999432,2132,15,67,31
0.09999999999999432,2133,0,67,4
0.09999999999999432,2133,1,67,16
0.09999999999999432,2133,2,67,6
0.09999999999999432,2133,3,67,18
0.10000000000002274,2133,4,67,5
0.09999999999999432,2133,5,67,8
0.09999999999999432,2133,6,67,5
0.09999999999999432,2133,7,67,35
0.09999999999999432,2133,8,67,5
0.09999999999999432,2133,9,67,19
0.10000000000002274,2133,10,67,6
0.09999999999999432,2133,11,67,26
0.09999999999999432,2133,12,67,4
0.09999999999999432,2133,13,67,31
0.09999999999999432,2133,14,67,18
0.09999999999999432,2133,15,67,3
0.09999999999999432,2134,0,67,2
0.10000000000002274,2134,1,67,19
0.09999999999999432,2134,2,67,5
0.09999999999999432,2134,3,67,12
0.09999999999999432,2134,4,67,4
0.09999999999999432,2134,5,67,19
0.10000000000002274,2134,6,67,5
0.09999999999999432,2134,7,67,11
0.09999999999999432,2134,8,67,4
0.09999999999999432,2134,9,67,22
0.09999999999999432,2134,10,67,5
0.09999999999999432,2134,11,67,10
0.10000000000002274,2134,12,67,2
0.10000000000002274,2134,13,67,19
0.09999999999999432,2134,14,67,5
0.09999999999999432,2134,15,67,12
0.09999999999999432,2135,0,67,4
0.09999999999999432,2135,1,67,21
0.10000000000002274,2135,2,67,4
0.09999999999999432,2135,3,67,12
0.09999999999999432,2135,4,67,4
0.09999999999999432,2135,5,67,18
0.09999999999999432,2135,6,67,5
0.09999999999999432,2135,7,67,10
0.09999999999999432,2135,8,67,4
0.10000000000002274,2135,9,67,20
0.09999999999999432,2135,10,67,5
0.09999999999999432,2135,11,67,10
0.09999999999999432,2135,12,67,4
0.09999999999999432,2135,13,67,21
0.10000000000002274,2135,14,67,5
0.09999999999999432,2135,15,67,10
0.09999999999999432,2136,0,67,4
0.09999999999999432,2136,1,67,21
0.09999999999999432,2136,2,67,4
0.09999999999999432,2136,3,67,12
0.09999999999999432,2136,4,67,3
0.10000000000002274,2136,5,67,22
0.10000000000002274,2136,6,67,5
0.09999999999999432,2136,7,67,7
0.10000000000002274,2136,8,67,4
0.09999999999999432,2136,9,67,19
0.09999999999999432,2136,10,67,8
0.09999999999999432,2136,11,67,11
0.09999999999999432,2136,12,67,4
0.09999999999999432,2136,13,67,21
0.09999999999999432,2136,14,67,5
0.09999999999999432,2136,15,67,10
0.09999999999999432,2137,0,67,4
0.10000000000002274,2137,1,67,18
0.10000000000002274,2137,2,67,4
0.09999999999999432,2137,3,67,12
0.09999999999999432,2137,4,67,4
0.09999999999999432,2137,5,67,20
0.09999999999999432,2137,6,67,5
0.10000000000002274,2137,7,67,10
0.09999999999999432,2137,8,67,4
0.09999999999999432,2137,9,67,18
0.10000000000002274,2137,10,67,7
0.09999999999999432,2137,11,67,11
0.09999999999999432,2137,12,67,3
0.09999999999999432,2137,13,67,18
0.10000000000002274,2137,14,67,4
0.09999999999999432,2137,15,67,11
0.10000000000002274,2138,0,67,4
0.09999999999999432,2138,1,67,20
0.09999999999999432,2138,2,67,4
0.09999999999999432,2138,3,67,5
0.09999999999999432,2138,4,67,4
0.09999999999999432,2138,5,67,18
0.09999999999999432,2138,6,67,4
0.09999999999999432,2138,7,67,11
0.10000000000002274,2138,8,67,4
0.09999999999999432,2138,9,67,20
0.10000000000002274,2138,10,67,5
0.09999999999999432,2138,11,67,11
0.09999999999999432,2138,12,67,3
0.09999999999999432,2138,13,67,19
0.09999999999999432,2138,14,67,4
0.09999999999999432,2138,15,67,10
0.09999999999999432,2139,0,67,4
0.09999999999999432,2139,1,67,21
0.09999999999999432,2139,2,67,4
0.09999999999999432,2139,3,67,10
0.10000000000002274,2139,4,67,4
0.09999999999999432,2139,5,67,19
0.09999999999999432,2139,6,67,5
0.10000000000002274,2139,7,67,11
0.09999999999999432,2139,8,67,4
0.09999999999999432,2139,9,67,21
0.09999999999999432,2139,10,67,4
0.09999999999999432,2139,11,67,11
0.09999999999999432,2139,12,67,3
0.10000000000002274,2139,13,67,20
0.09999999999999432,2139,14,67,3
0.09999999999999432,2139,15,67,10
0.10000000000002274,2140,0,67,4
0.09999999999999432,2140,1,67,20
0.09999999999999432,2140,2,67,5
0.10000000000002274,2140,3,67,12
0.09999999999999432,2140,4,67,3
0.09999999999999432,2140,5,67,20
0.09999999999999432,2140,6,67,5
0.09999999999999432,2140,7,67,9
0.09999999999999432,2140,8,67,4
0.09999999999999432,2140,9,67,21
0.09999999999999432,2140,10,67,5
0.09999999999999432,2140,11,67,12
0.10000000000002274,2140,12,67,4
0.09999999999999432,2140,13,67,23
0.09999999999999432,2140,14,67,5
0.10000000000002274,2140,15,67,9
0.09999999999999432,2141,0,67,4
0.10000000000002274,2141,1,67,16
0.09999999999999432,2141,2,67,4
0.09999999999999432,2141,3,67,12
0.09999999999999432,2141,4,67,4
0.09999999999999432,2141,5,67,20
0.09999999999999432,2141,6,67,4
0.09999999999999432,2141,7,67,10
0.10000000000002274,2141,8,67,4
0.09999999999999432,2141,9,67,17
0.09999999999999432,2141,10,67,3
0.10000000000002274,2141,11,67,12
0.09999999999999432,2141,12,67,4
0.09999999999999432,2141,13,67,21
0.10000000000002274,2141,14,67,6
0.09999999999999432,2141,15,67,11
0.09999999999999432,2142,0,67,4
0.09999999999999432,2142,1,67,20
0.09999999999999432,2142,2,67,5
0.09999999999999432,2142,3,67,11
0.10000000000002274,2142,4,67,4
0.09999999999999432,2142,5,67,16
0.09999999999999432,2142,6,67,4
0.10000000000002274,2142,7,67,12
0.09999999999999432,2142,8,67,8
0.09999999999999432,2142,9,67,18
0.10000000000002274,2142,10,67,9
0.10000000000002274,2142,11,67,4
0.09999999999999432,2142,12,67,20
0.09999999999999432,2142,13,67,9
0.10000000000002274,2142,14,67,12
0.10000000000002274,2142,15,67,4
0.09999999999999432,2143,0,67,9
0.09999999999999432,2143,1,67,4
0.09999999999999432,2143,2,67,20
0.10000000000002274,2143,3,67,9
0.09999999999999432,2143,4,67,21
0.09999999999999432,2143,5,67,4
0.09999999999999432,2143,6,67,9
0.09999999999999432,2143,7,67,4
0.10000000000002274,2143,8,67,19
0.10000000000002274,2143,9,67,4
0.09999999999999432,2143,10,67,9
0.09999999999999432,2143,11,67,17
0.09999999999999432,2143,12,67,4
0.10000000000002274,2143,13,67,9
0.09999999999999432,2143,14,67,4
0.10000000000002274,2143,15,67,17
0.09999999999999432,2144,0,67,9
0.10000000000002274,2144,1,67,19
0.09999999999999432,2144,2,67,4
0.10000000000002274,2144,3,67,8
0.09999999999999432,2144,4,67,19
0.09999999999999432,2144,5,67,9
0.10000000000002274,2144,6,67,19
0.09999999999999432,2144,7,67,4
0.09999999999999432,2144,8,67,8
0.09999999999999432,2144,9,67,4
0.09999999999999432,2144,10,67,18
0.10000000000002274,2144,11,67,8
0.09999999999999432,2144,12,67,20
0.09999999999999432,2144,13,67,4
0.09999999999999432,2144,14,67,8
0.09999999999999432,2144,15,67,4
0.10000000000002274,2145,0,67,19
0.09999999999999432,2145,1,67,9
0.09999999999999432,2145,2,67,19
0.09999999999999432,2145,3,67,4
0.10000000000002274,2145,4,67,8
0.09999999999999432,2145,5,67,19
0.09999999999999432,2145,6,67,7
0.09999999999999432,2145,7,67,18
0.09999999999999432,2145,8,67,8
0.09999999999999432,2145,9,67,18
0.09999999999999432,2145,10,67,4
0.10000000000002274,2145,11,67,9
0.09999999999999432,2145,12,67,4
0.09999999999999432,2145,13,67,19
0.09999999999999432,2145,14,67,9
0.09999999999999432,2145,15,67,4
0.09999999999999432,2146,0,67,17
0.09999999999999432,2146,1,67,9
0.09999999999999432,2146,2,67,18
0.09999999999999432,2146,3,67,4
0.09999999999999432,2146,4,67,8
0.09999999999999432,2146,5,67,4
0.09999999999999432,2146,6,67,19
0.09999999999999432,2146,7,67,9
0.09999999999999432,2146,8,67,19
0.09999999999999432,2146,9,67,4
0.09999999999999432,2146,10,67,7
0.09999999999999432,2146,11,67,19
0.10000000000000142,2146,12,61,1
0.09999999999999432,2146,13,61,1
0.09999999999999432,2146,14,61,33
0.09999999999999432,2146,15,61,39
0.10000000000000853,2147,0,61,25
0.09999999999999432,2147,1,61,16
0.09999999999999432,2147,2,61,34
0.10000000000000853,2147,3,61,17
0.09999999999999432,2147,4,61,20
0.10000000000000853,2147,5,61,17
0.09999999999999432,2147,6,61,16
0.09999999999999432,2147,7,61,13
0.09999999999999432,2147,8,61,2
0.10000000000000853,2147,9,61,1
0.09999999999999432,2147,10,61,1
0.09999999999999432,2147,11,61,1
0.09999999999999432,2147,12,61,1
0.10000000000000853,2147,13,61,22
0.09999999999999432,2147,14,61,46
0.10000000000000853,2147,15,61,64
0.09999999999999432,2148,0,61,38
0.10000000000000853,2148,1,61,40
0.09999999999999432,2148,2,61,52
0.09999999999999432,2148,3,61,54
0.09999999999999432,2148,4,61,63
0.09999999999999432,2148,5,61,67
0.10000000000000853,2148,6,61,46
0.09999999999999432,2148,7,61,46
0.10000000000000853,2148,8,61,35
0.09999999999999432,2148,9,61,62
0.09999999999999432,2148,10,61,49
0.09999999999999432,2148,11,61,46
0.09999999999999432,2148,12,61,4
0.05909090909091219,2148,13,61,8
0.09999999999999432,2148,14,61,50
0.09999999999999432,2148,15,61,52
0.09999999999999432,2149,0,61,55
0.09999999999999432,2149,1,61,44
0.10000000000002274,2149,2,61,38
0.10000000000002274,2149,3,61,39
0.09999999999999432,2149,4,61,51
0.09999999999999432,2149,5,61,45
0.09999999999999432,2149,6,61,34
0.10000000000002274,2149,7,61,43
0.09999999999999432,2149,8,61,43
0.09999999999999432,2149,9,61,34
0.09999999999999432,2149,10,61,50
0.10000000000002274,2149,11,61,52
0.09999999999999432,2149,12,61,60
0.09999999999999432,2149,13,61,36
0.09999999999999432,2149,14,61,41
0.09999999999999432,2149,15,61,49
0.09999999999999432,2150,0,61,64
0.09999999999999432,2150,1,61,55
0.09999999999999432,2150,2,61,46
0.10000000000002274,2150,3,61,39
0.09999999999999432,2150,4,61,43
0.10000000000002274,2150,5,61,50
0.10000000000002274,2150,6,61,47
0.10000000000002274,2150,7,61,71
0.09999999999999432,2150,8,61,2
0.09999999999999432,2150,9,61,11
0.05909090909091219,2150,10,61,24
0.0022727272727252057,2150,11,61,57
0.09999999999999432,2150,12,61,74
0.09999999999999432,2150,13,61,64
0.09999999999999432,2150,14,61,71
0.09999999999999432,2150,15,61,55
0.10000000000002274,2151,0,61,55
0.09999999999999432,2151,1,61,84
0.09999999999999432,2151,2,61,64
0.09999999999999432,2151,3,61,54
0.09999999999999432,2151,4,61,64
0.10000000000002274,2151,5,61,60
0.09999999999999432,2151,6,61,78
0.09999999999999432,2151,7,61,75
0.09999999999999432,2151,8,61,80
0.09999999999999432,2151,9,61,68
0.10000000000002274,2151,10,61,76
0.09999999999999432,2151,11,61,64
0.09999999999999432,2151,12,61,45
0.09999999999999432,2151,13,61,60
0.09999999999999432,2151,14,61,69
0.09999999999999432,2151,15,61,49
0.09999999999999432,2152,0,61,60
0.09999999999999432,2152,1,61,75
0.09999999999999432,2152,2,61,63
0.10000000000002274,2152,3,61,45
0.09999999999999432,2152,4,61,63
0.09999999999999432,2152,5,61,62
0.09999999999999432,2152,6,61,64
0.09999999999999432,2152,7,61,67
0.10000000000002274,2152,8,61,56
0.09999999999999432,2152,9,61,57
0.09999999999999432,2152,10,61,53
0.09999999999999432,2152,11,61,45
0.09999999999999432,2152,12,61,29
0.09999999999999432,2152,13,61,58
0.10000000000002274,2152,14,61,38
0.09999999999999432,2152,15,61,63
0.09999999999999432,2153,0,61,73
0.09999999999999432,2153,1,61,68
0.09999999999999432,2153,2,61,59
0.10000000000000003,2153,3,77,50
0.09999999999999998,2153,4,77,55
0.10000000000000009,2153,5,77,79
0.09999999999999964,2153,6,77,60
0.10000000000000009,2153,7,77,55
0.10000000000000009,2153,8,77,52
0.10000000000000009,2153,9,77,59
0.10000000000000009,2153,10,77,86
0.10000000000000009,2153,11,77,42
0.10000000000000009,2153,12,77,54
0.09999999999999964,2153,13,77,69
0.09999999999999964,2153,14,77,73
0.09999999999999964,2153,15,77,52
0.10000000000000053,2154,0,77,57
0.09999999999999964,2154,1,77,9
0.09999999999999964,2154,2,77,69
0.09999999999999964,2154,3,77,44
0.09999999999999964,2154,4,77,60
0.09999999999999964,2154,5,77,41
0.09999999999999964,2154,6,77,7
0.10000000000000142,2154,7,77,21
0.09999999999999964,2154,8,77,60
0.09999999999999964,2154,9,77,81
0.09999999999999964,2154,10,77,50
0.10000000000000142,2154,11,77,88
0.09999999999999787,2154,12,77,60
0.05681818181817988,2154,13,77,74
0.10000000000000142,2154,14,77,99
0.09999999999999787,2154,15,77,55
0.09999999999999787,2155,0,77,90
0.10000000000000142,2155,1,77,64
0.10000000000000142,2155,2,77,21
0.10000000000000142,2155,3,77,60
0.10000000000000142,2155,4,77,108
0.10000000000000142,2155,5,77,104
0.10000000000000142,2155,6,77,25
0.09999999999999787,2155,7,77,53
0.09999999999999787,2155,8,77,73
0.09999999999999787,2155,9,77,80
0.10000000000000142,2155,10,77,66
0.10000000000000142,2155,11,77,65
0.10000000000000142,2155,12,77,69
0.09999999999999787,2155,13,77,61
0.09999999999999787,2155,14,77,50
0.09999999999999787,2155,15,77,82
0.10000000000000142,2156,0,77,75
0.09999999999999787,2156,1,77,76
0.09999999999999787,2156,2,77,86
0.10000000000000142,2156,3,77,68
0.09999999999999787,2156,4,77,65
0.10000000000000142,2156,5,77,62
0.10000000000000142,2156,6,77,69
0.10000000000000142,2156,7,77,89
0.10000000000000142,2156,8,77,56
0.10000000000000142,2156,9,77,29
0.09999999999999432,2156,10,77,83
0.10000000000000142,2156,11,77,54
0.10000000000000142,2156,12,77,76
0.09999999999999432,2156,13,77,90
0.10000000000000142,2156,14,77,77
0.09999999999999432,2156,15,77,97
0.10000000000000142,2157,0,77,71
0.10000000000000142,2157,1,77,40
0.10000000000000142,2157,2,77,60
0.10000000000000142,2157,3,77,95
0.10000000000000142,2157,4,77,99
0.10000000000000142,2157,5,77,10
0.10000000000000142,2157,6,77,41
0.09999999999999432,2157,7,77,72
0.10000000000000142,2157,8,77,58
0.10000000000000142,2157,9,77,28
0.10000000000000142,2157,10,77,67
0.10000000000000142,2157,11,77,88
0.10000000000000142,2157,12,77,56
0.10000000000000142,2157,13,77,73
0.10000000000000142,2157,14,77,65
0.10000000000000142,2157,15,77,61
0.10000000000000142,2158,0,77,66
0.10000000000000142,2158,1,77,64
0.10000000000000142,2158,2,77,35
0.09999999999999432,2158,3,77,73
0.10000000000000142,2158,4,77,62
0.10000000000000142,2158,5,77,65
0.10000000000000142,2158,6,77,81
0.10000000000000142,2158,7,77,64
0.10000000000000142,2158,8,77,52
0.10000000000000142,2158,9,77,83
0.10000000000000142,2158,10,77,57
0.10000000000000142,2158,11,77,70
0.10000000000000142,2158,12,77,53
0.10000000000000142,2158,13,77,45
0.10000000000000142,2158,14,77,73
0.09999999999999432,2158,15,77,113
0.10000000000000142,2159,0,77,67
0.09999999999999432,2159,1,77,67
0.09999999999999432,2159,2,77,95
0.10000000000000142,2159,3,77,33
0.10000000000000142,2159,4,77,48
0.09999999999999432,2159,5,77,85
0.10000000000000142,2159,6,77,98
0.09999999999999432,2159,7,77,65
0.10000000000000142,2159,8,77,31
0.10000000000000142,2159,9,77,88
0.10000000000000142,2159,10,77,54
0.10000000000000142,2159,11,77,64
0.10000000000000142,2159,12,77,101
0.10000000000000142,2159,13,77,13
0.10000000000000142,2159,14,77,113
0.09999999999999432,2159,15,77,70
0.09999999999999432,2160,0,77,60
0.09999999999999432,2160,1,77,74
0.10000000000000142,2160,2,77,39
0.10000000000000142,2160,3,77,58
0.10000000000000142,2160,4,77,86
0.10000000000000142,2160,5,77,82
0.10000000000000142,2160,6,77,15
0.10000000000000142,2160,7,77,44
0.01590909090909065,2160,8,77,82
0.09999999999999432,2160,9,77,63
0.10000000000000142,2160,10,77,85
0.09999999999999432,2160,11,77,31
0.10000000000000142,2160,12,77,71
0.10000000000000142,2160,13,77,72
0.10000000000000142,2160,14,77,101
0.10000000000000142,2160,15,77,84
0.10000000000000142,2161,0,77,28
0.10000000000000142,2161,1,77,90
0.10000000000000142,2161,2,77,70
0.10000000000000142,2161,3,77,67
0.09999999999999432,2161,4,77,48
0.10000000000000142,2161,5,77,99
0.10000000000000142,2161,6,77,86
0.10000000000000142,2161,7,77,39
0.10000000000000142,2161,8,77,62
0.10000000000000142,2161,9,77,9
0.10000000000000142,2161,10,77,62
0.10000000000000142,2161,11,77,95
0.09999999999999432,2161,12,77,79
0.09999999999999432,2161,13,77,77
0.10000000000000853,2161,14,77,42
0.004545454545450411,2161,15,77,69
0.09999999999999432,2162,0,77,68
0.10000000000000853,2162,1,77,100
0.09999999999999432,2162,2,77,108
0.09999999999999432,2162,3,77,28
0.10000000000000853,2162,4,77,70
0.10000000000000853,2162,5,77,118
0.10000000000000853,2162,6,77,75
0.09999999999999432,2162,7,77,69
0.10000000000000853,2162,8,77,10
0.09999999999999432,2162,9,77,34
0.09999999999999432,2162,10,77,66
0.10000000000000853,2162,11,77,91
0.09999999999999432,2162,12,77,81
0.10000000000000853,2162,13,77,95
0.09999999999999432,2162,14,77,78
0.09999999999999432,2162,15,77,92
0.09999999999999432,2163,0,77,62
0.10000000000000853,2163,1,77,86
0.09999999999999432,2163,2,77,70
0.10000000000000853,2163,3,77,34
0.09999999999999432,2163,4,77,71
0.09999999999999432,2163,5,77,73
0.10000000000000853,2163,6,77,100
0.09999999999999432,2163,7,77,70
0.10000000000000853,2163,8,77,99
0.10000000000000853,2163,9,77,17
0.09999999999999432,2163,10,77,71
0.10000000000000853,2163,11,77,79
0.045454545454546746,2163,12,77,106
0.10000000000000853,2163,13,77,87
0.09999999999999432,2163,14,77,66
0.09999999999999432,2163,15,77,88
0.09999999999999432,2164,0,77,114
0.06818181818181301,2164,1,77,112
0.09999999999999432,2164,2,77,36
0.09999999999999432,2164,3,77,90
0.09999999999999432,2164,4,77,69
0.10000000000000853,2164,5,77,80
0.09999999999999432,2164,6,77,85
0.09999999999999432,2164,7,77,34
0.10000000000000853,2164,8,77,100
0.09999999999999432,2164,9,77,81
0.09999999999999432,2164,10,77,58
0.10000000000000853,2164,11,77,87
0.09999999999999432,2164,12,77,8
0.09999999999999432,2164,13,77,65
0.10000000000000853,2164,14,77,77
0.09999999999999432,2164,15,77,66
0.09999999999999432,2165,0,77,65
0.09999999999999432,2165,1,77,87
0.10000000000000853,2165,2,77,69
0.09999999999999432,2165,3,77,63
0.09999999999999432,2165,4,77,93
0.10000000000000853,2165,5,77,37
0.10000000000000853,2165,6,77,85
0.10000000000000853,2165,7,77,90
0.09999999999999432,2165,8,77,65
0.09999999999999432,2165,9,77,96
0.09999999999999432,2165,10,77,52
0.10000000000000853,2165,11,77,82
0.10000000000000853,2165,12,77,89
0.10000000000000853,2165,13,77,26
0.10000000000000853,2165,14,77,89
0.09999999999999432,2165,15,77,69
0.09999999999999432,2166,0,77,85
0.09999999999999432,2166,1,77,58
0.09999999999999432,2166,2,77,64
0.09999999999999432,2166,3,77,27
0.09999999999999432,2166,4,77,91
0.09999999999999432,2166,5,77,49
0.09999999999999432,2166,6,77,83
0.09999999999999432,2166,7,77,104
0.10000000000000853,2166,8,77,77
0.09999999999999432,2166,9,77,69
0.10000000000000853,2166,10,77,89
0.10000000000000853,2166,11,77,77
0.10000000000000853,2166,12,77,68
0.09999999999999432,2166,13,77,61
0.10000000000000853,2166,14,77,114
0.10000000000000853,2166,15,77,67
0.09999999999999432,2167,0,77,81
0.10000000000000853,2167,1,77,14
0.09999999999999432,2167,2,77,40
0.04772727272727195,2167,3,77,61
0.09999999999999432,2167,4,77,56
0.10000000000000853,2167,5,77,29
0.025000000000005684,2167,6,77,83
0.10000000000000853,2167,7,77,48
0.09999999999999432,2167,8,77,58
0.09999999999999432,2167,9,77,72
0.09999999999999432,2167,10,77,63
0.10000000000000853,2167,11,77,94
0.10000000000000853,2167,12,77,69
0.09999999999999432,2167,13,77,107
0.10000000000000853,2167,14,77,57
0.09999999999999432,2167,15,77,96
0.10000000000000853,2168,0,77,80
0.09999999999999432,2168,1,77,33
0.09999999999999432,2168,2,77,80
0.09999999999999432,2168,3,77,47
0.10000000000000853,2168,4,77,105
0.09999999999999432,2168,5,77,77
0.10000000000000853,2168,6,77,91
0.09999999999999432,2168,7,77,76
0.024999999999991473,2168,8,77,99
0.09999999999999432,2168,9,77,46
0.09999999999999432,2168,10,77,102
0.10000000000000853,2168,11,77,69
0.10000000000000853,2168,12,77,67
0.10000000000000853,2168,13,77,5
0.09999999999999432,2168,14,77,32
0.09999999999999432,2168,15,77,76
0.10000000000000853,2169,0,77,68
0.09999999999999432,2169,1,77,59
0.09999999999999432,2169,2,77,73
0.09999999999999432,2169,3,77,92
0.10000000000000853,2169,4,77,77
0.09999999999999432,2169,5,77,70
0.10000000000000853,2169,6,77,104
0.09999999999999432,2169,7,77,17
0.10000000000000853,2169,8,77,49
0.09999999999999432,2169,9,77,97
0.09999999999999432,2169,10,77,48
0.10000000000000853,2169,11,77,99
0.10000000000000853,2169,12,77,90
0.09999999999999432,2169,13,77,16
0.09999999999999432,2169,14,77,97
0.09999999999999432,2169,15,77,63
0.09999999999999432,2170,0,77,81
0.09999999999999432,2170,1,77,74
0.09999999999999432,2170,2,77,72
0.10000000000000853,2170,3,77,20
0.04772727272727195,2170,4,77,61
0.10000000000000853,2170,5,77,77
0.10000000000000853,2170,6,77,70
0.10000000000000853,2170,7,77,99
0.09999999999999432,2170,8,77,86
0.09999999999999432,2170,9,77,76
0.10000000000000853,2170,10,77,49
0.06818181818181301,2170,11,77,72
0.10000000000000853,2170,12,77,56
0.09999999999999432,2170,13,77,66
0.09999999999999432,2170,14,77,69
0.09999999999999432,2170,15,77,92
0.09999999999999432,2171,0,77,67
0.09999999999999432,2171,1,77,60
0.09999999999999432,2171,2,77,58
0.10000000000002274,2171,3,77,101
0.10000000000002274,2171,4,77,84
0.09999999999999432,2171,5,77,93
0.10000000000002274,2171,6,77,69
0.10000000000002274,2171,7,77,72
0.09999999999999432,2171,8,77,83
0.09999999999999432,2171,9,77,75
0.09999999999999432,2171,10,77,82
0.09999999999999432,2171,11,77,63
0.09999999999999432,2171,12,77,85
0.10000000000002274,2171,13,77,96
0.09999999999999432,2171,14,77,44
0.09999999999999432,2171,15,77,66
0.09999999999999432,2172,0,77,92
0.09999999999999432,2172,1,77,86
0.09999999999999432,2172,2,77,84
0.09999999999999432,2172,3,77,71
0.10000000000002274,2172,4,77,84
0.09999999999999432,2172,5,77,83
0.09999999999999432,2172,6,77,61
0.09999999999999432,2172,7,77,71
0.09999999999999432,2172,8,77,83
0.10000000000002274,2172,9,77,16
0.09999999999999432,2172,10,77,72
0.10000000000002274,2172,11,77,76
0.09999999999999432,2172,12,77,61
0.09999999999999432,2172,13,77,65
0.09999999999999432,2172,14,77,67
0.09999999999999432,2172,15,77,45
0.09999999999999432,2173,0,77,102
0.09999999999999432,2173,1,77,77
0.09999999999999432,2173,2,77,82
0.09999999999999432,2173,3,77,74
0.10000000000002274,2173,4,77,19
0.09999999999999432,2173,5,77,67
0.09999999999999432,2173,6,77,80
0.09999999999999432,2173,7,77,49
0.09999999999999432,2173,8,77,83
0.09999999999999432,2173,9,77,81
0.09999999999999432,2173,10,77,70
0.09999999999999432,2173,11,77,1
0.025000000000005684,2173,12,77,51
0.09999999999999432,2173,13,77,96
0.09999999999999432,2173,14,77,82
0.10000000000002274,2173,15,77,64
0.09999999999999432,2174,0,77,65
0.09999999999999432,2174,1,77,61
0.09999999999999432,2174,2,77,90
0.10000000000002274,2174,3,77,82
0.025000000000005684,2174,4,77,61
0.01590909090910486,2174,5,77,90
0.10000000000002274,2174,6,77,99
0.09999999999999432,2174,7,77,102
0.06818181818181301,2174,8,77,94
0.09999999999999432,2174,9,77,102
0.10000000000002274,2174,10,77,87
0.09999999999999432,2174,11,77,75
0.10000000000002274,2174,12,77,73
0.09999999999999432,2174,13,77,78
0.09999999999999432,2174,14,77,87
0.09999999999999432,2174,15,77,77
0.09999999999999432,2175,0,77,60
0.004545454545450411,2175,1,77,75
0.09999999999999432,2175,2,77,97
0.10000000000002274,2175,3,77,108
0.09999999999999432,2175,4,77,75
0.09999999999999432,2175,5,77,12
0.10000000000002274,2175,6,77,71
0.09999999999999432,2175,7,77,98
0.10000000000002274,2175,8,77,91
0.09999999999999432,2175,9,77,80
0.09999999999999432,2175,10,77,75
0.09999999999999432,2175,11,77,103
0.09999999999999432,2175,12,77,67
0.09999999999999432,2175,13,77,62
0.09999999999999432,2175,14,77,43
0.09999999999999432,2175,15,77,87
0.09999999999999432,2176,0,77,62
0.10000000000002274,2176,1,77,84
0.09999999999999432,2176,2,77,76
0.09999999999999432,2176,3,77,66
0.06818181818181301,2176,4,77,101
0.09999999999999432,2176,5,77,124
0.09999999999999432,2176,6,77,104
0.09999999999999432,2176,7,77,102
0.10000000000002274,2176,8,77,82
0.09999999999999432,2176,9,77,84
0.09999999999999432,2176,10,77,16
0.09999999999999432,2176,11,77,68
0.09999999999999432,2176,12,77,82
0.09999999999999432,2176,13,77,87
0.004545454545450411,2176,14,77,17
0.09999999999999432,2176,15,77,55
0.05909090909088377,2177,0,77,98
0.09999999999999432,2177,1,77,95
0.09999999999999432,2177,2,77,69
0.09999999999999432,2177,3,77,92
0.09999999999999432,2177,4,77,84
0.10000000000002274,2177,5,77,80
0.09999999999999432,2177,6,77,68
0.10000000000002274,2177,7,77,64
0.09999999999999432,2177,8,77,110
0.10000000000002274,2177,9,77,93
0.09999999999999432,2177,10,77,67
0.09999999999999432,2177,11,77,66
0.09999999999999432,2177,12,77,79
0.09999999999999432,2177,13,77,76
0.09999999999999432,2177,14,77,70
0.09999999999999432,2177,15,77,104
0.09999999999999432,2178,0,77,57
0.09999999999999432,2178,1,77,87
0.09999999999999432,2178,2,77,48
0.10000000000002274,2178,3,77,74
0.09999999999999432,2178,4,77,38
0.10000000000002274,2178,5,77,66
0.09999999999999432,2178,6,77,80
0.09999999999999432,2178,7,77,66
0.09999999999999432,2178,8,77,73
0.10000000000002274,2178,9,77,96
0.10000000000002274,2178,10,77,96
0.09999999999999432,2178,11,77,62
0.09999999999999432,2178,12,77,83
0.09999999999999432,2178,13,77,58
0.09999999999999432,2178,14,77,38
0.09999999999999432,2178,15,77,92
0.09999999999999432,2179,0,77,88
0.09999999999999432,2179,1,77,86
0.09999999999999432,2179,2,77,94
0.09999999999999432,2179,3,77,66
0.09999999999999432,2179,4,77,74
0.10000000000002274,2179,5,77,14
0.09999999999999432,2179,6,77,74
0.09999999999999432,2179,7,77,103
0.09999999999999432,2179,8,77,92
0.09999999999999432,2179,9,77,67
0.09999999999999432,2179,10,77,115
0.09999999999999432,2179,11,77,83
0.09999999999999432,2179,12,77,77
0.09999999999999432,2179,13,77,63
0.09999999999999432,2179,14,77,60
0.09999999999999432,2179,15,77,91
0.09999999999999432,2180,0,77,57
0.09999999999999432,2180,1,77,62
0.10000000000002274,2180,2,77,69
0.10000000000002274,2180,3,77,56
0.09999999999999432,2180,4,77,65
0.09999999999999432,2180,5,77,63
0.09999999999999432,2180,6,77,98
0.09999999999999432,2180,7,77,63
0.09999999999999432,2180,8,77,125
0.09999999999999432,2180,9,77,54
0.10000000000002274,2180,10,77,31
0.10000000000002274,2180,11,77,57
0.10000000000000853,2180,12,61,11
0.09999999999999432,2180,13,61,26
0.09999999999999432,2180,14,61,17
0.09999999999999432,2180,15,61,49
0.09999999999999432,2181,0,61,1
0.10000000000000853,2181,1,61,2
0.056818181818186986,2181,2,61,15
0.09999999999999432,2181,3,61,12
0.09999999999999432,2181,4,61,12
0.056818181818186986,2181,5,61,16
0.09999999999999432,2181,6,61,9
0.09999999999999432,2181,7,61,15
0.09999999999999432,2181,8,56,67
0.10000000000000142,2181,9,56,93
0.10000000000000142,2181,10,56,71
0.10000000000000142,2181,11,56,58
0.056818181818186986,2181,12,56,71
0.10000000000000142,2181,13,56,89
0.10000000000000142,2181,14,56,103
0.10000000000000142,2181,15,56,73
0.10000000000000142,2182,0,56,99
0.10000000000000142,2182,1,56,93
0.10000000000000142,2182,2,56,94
0.10000000000000142,2182,3,56,84
0.10000000000000142,2182,4,56,98
0.10000000000000142,2182,5,56,74
0.09999999999999432,2182,6,56,95
0.10000000000000142,2182,7,56,59
0.10000000000000142,2182,8,56,61
0.10000000000000142,2182,9,56,98
0.10000000000000142,2182,10,56,80
0.10000000000000142,2182,11,56,95
0.10000000000000142,2182,12,56,75
0.10000000000000142,2182,13,56,92
0.09999999999999432,2182,14,56,91
0.10000000000000142,2182,15,56,64
0.10000000000000142,2183,0,56,82
0.10000000000000142,2183,1,56,59
0.10000000000000142,2183,2,56,82
0.09999999999999432,2183,3,56,79
0.09999999999999432,2183,4,56,55
0.09999999999999432,2183,5,56,58
0.10000000000000853,2183,6,56,57
0.09999999999999432,2183,7,56,79
0.09999999999999432,2183,8,56,65
0.10000000000000853,2183,9,56,52
0.10000000000000853,2183,10,56,52
0.09999999999999432,2183,11,56,66
0.09999999999999432,2183,12,56,52
0.09999999999999432,2183,13,56,51
0.10000000000000853,2183,14,56,61
0.09999999999999432,2183,15,56,71
0.09999999999999432,2184,0,56,68
0.10000000000000853,2184,1,56,65
0.09999999999999432,2184,2,56,63
0.09999999999999432,2184,3,56,51
0.09999999999999432,2184,4,56,63
0.09999999999999432,2184,5,56,58
0.10000000000000853,2184,6,56,60
0.09999999999999432,2184,7,56,72
0.10000000000000853,2184,8,56,74
0.09999999999999432,2184,9,56,68
0.09999999999999432,2184,10,56,69
0.10000000000000853,2184,11,56,71
0.10000000000000853,2184,12,56,52
0.09999999999999432,2184,13,56,66
0.09999999999999432,2184,14,56,62
0.10000000000000853,2184,15,56,71
0.09999999999999432,2185,0,56,71
0.09999999999999432,2185,1,56,55
0.09999999999999432,2185,2,56,56
0.10000000000000853,2185,3,56,72
0.09999999999999432,2185,4,56,56
0.09999999999999432,2185,5,56,77
0.10000000000000853,2185,6,56,63
0.09999999999999432,2185,7,56,99
0.10000000000000853,2185,8,56,62
0.09999999999999432,2185,9,56,52
0.10000000000000853,2185,10,56,57
0.09999999999999432,2185,11,56,74
0.10000000000000853,2185,12,56,21
0.09999999999999432,2185,13,56,38
0.10000000000000853,2185,14,56,77
0.09999999999999432,2185,15,56,103
0.10000000000000853,2186,0,56,43
0.09999999999999432,2186,1,56,94
0.09999999999999432,2186,2,56,44
0.10000000000000853,2186,3,56,72
0.10000000000000853,2186,4,56,63
0.09999999999999432,2186,5,56,41
0.09999999999999432,2186,6,56,53
0.10000000000000853,2186,7,56,57
0.09999999999999432,2186,8,56,66
0.10000000000000853,2186,9,56,46
0.09999999999999432,2186,10,56,42
0.09999999999999432,2186,11,56,56
0.09999999999999432,2186,12,56,66
0.10000000000000853,2186,13,56,56
0.10000000000000853,2186,14,56,61
0.025000000000005684,2186,15,56,67
0.09999999999999432,2187,0,56,44
0.04772727272727195,2187,1,56,61
0.036363636363645924,2187,2,56,81
0.09999999999999432,2187,3,56,44
0.09999999999999432,2187,4,56,86
0.09999999999999432,2187,5,56,66
0.09999999999999432,2187,6,56,77
0.09999999999999432,2187,7,56,63
0.10000000000000853,2187,8,56,52
0.10000000000000853,2187,9,56,85
0.09999999999999432,2187,10,56,66
0.09999999999999432,2187,11,56,66
0.10000000000000853,2187,12,56,62
0.10000000000000853,2187,13,56,76
0.09999999999999432,2187,14,56,103
0.10000000000000853,2187,15,56,64
0.09999999999999432,2188,0,56,92
0.09999999999999432,2188,1,56,127
0.013636363636365445,2188,2,56,124
0.03636363636363171,2188,3,56,123
0.10000000000000853,2188,4,56,124
0.10000000000000853,2188,5,56,127
0.013636363636379656,2188,6,56,127
0.056818181818158564,2188,7,56,127
0.01590909090907644,2188,8,56,127
0.10000000000002274,2188,9,56,106
0.10000000000002274,2188,10,56,124
0.10000000000002274,2188,11,56,79
0.09999999999999432,2188,12,56,113
0.09999999999999432,2188,13,56,80
0.09999999999999432,2188,14,56,115
0.03636363636363171,2188,15,56,115
0.09999999999999432,2189,0,56,78
0.09999999999999432,2189,1,56,75
0.09999999999999432,2189,2,56,62
0.09999999999999432,2189,3,56,84
0.09999999999999432,2189,4,56,78
0.10000000000002274,2189,5,56,60
0.09999999999999432,2189,6,56,70
0.09999999999999432,2189,7,56,61
0.10000000000002274,2189,8,56,83
0.09999999999999432,2189,9,56,52
0.09999999999999432,2189,10,56,86
0.09999999999999432,2189,11,56,104
0.01590909090910486,2189,12,56,110
0.03636363636363171,2189,13,56,113
0.09999999999999432,2189,14,56,60
0.09999999999999432,2189,15,56,89
0.09999999999999432,2190,0,56,78
0.09999999999999432,2190,1,56,109
0.056818181818186986,2190,2,56,115
0.013636363636351234,2190,3,56,118
0.013636363636379656,2190,4,56,121
0.03636363636363171,2190,5,56,119
0.09999999999999432,2190,6,56,75
0.09999999999999432,2190,7,56,71
0.09999999999999432,2190,8,56,61
0.10000000000002274,2190,9,56,80
0.09999999999999432,2190,10,56,77
0.09999999999999432,2190,11,56,91
0.10000000000000142,2190,12,64,127
0.10000000000000142,2190,13,64,36
0.10000000000000142,2190,14,64,127
0.10000000000000142,2190,15,64,16
0.10000000000000142,2191,0,64,12
0.09999999999999432,2191,1,64,127
0.10000000000000142,2191,2,64,127
0.10000000000000142,2191,3,64,1
0.10000000000000142,2191,4,64,127
0.10000000000000142,2191,5,64,2
0.10000000000000142,2191,6,64,127
0.09999999999999432,2191,7,64,3
0.10000000000000142,2191,8,64,3
0.10000000000000142,2191,9,64,127
0.10000000000000142,2191,10,64,127
0.10000000000000142,2191,11,64,2
0.10000000000000142,2191,12,64,127
0.10000000000000142,2191,13,64,2
0.10000000000000142,2191,14,64,127
0.10000000000000142,2191,15,64,3
0.10000000000000142,2192,0,64,127
0.10000000000000142,2192,1,64,127
0.10000000000000142,2192,2,64,2
0.10000000000000142,2192,3,64,127
0.10000000000000142,2192,4,64,2
0.09999999999999432,2192,5,64,127
0.09999999999999432,2192,6,64,2
0.10000000000000142,2192,7,64,17
0.10000000000000142,2192,8,64,3
0.10000000000000142,2192,9,64,127
0.10000000000000142,2192,10,64,127
0.10000000000000142,2192,11,64,2
0.09999999999999432,2192,12,64,127
0.09999999999999432,2192,13,64,41
0.10000000000000142,2192,14,64,127
0.10000000000000142,2192,15,64,16
0.10000000000000142,2193,0,64,13
0.10000000000000142,2193,1,64,127
0.09999999999999432,2193,2,64,127
0.09999999999999432,2193,3,64,3
0.10000000000000142,2193,4,64,127
0.10000000000000142,2193,5,64,2
0.10000000000000142,2193,6,64,127
0.10000000000000142,2193,7,64,3
0.10000000000000142,2193,8,64,3
0.10000000000000142,2193,9,64,127
0.10000000000000142,2193,10,64,127
0.10000000000000142,2193,11,64,2
0.09999999999999432,2193,12,64,127
0.09999999999999432,2193,13,64,2
0.10000000000000142,2193,14,64,127
0.10000000000000142,2193,15,64,2
0.10000000000000142,2194,0,64,3
0.10000000000000142,2194,1,64,127
0.09999999999999432,2194,2,64,127
0.10000000000000853,2194,3,64,2
0.10000000000000853,2194,4,64,127
0.10000000000000853,2194,5,64,127
0.10000000000000853,2194,6,64,127
0.09999999999999432,2194,7,64,127
0.09999999999999432,2194,8,64,8
0.09999999999999432,2194,9,64,127
0.09999999999999432,2194,10,64,127
0.10000000000000853,2194,11,64,127
0.09999999999999432,2194,12,64,2
0.09999999999999432,2194,13,64,127
0.09999999999999432,2194,14,64,2
0.09999999999999432,2194,15,64,127
0.09999999999999432,2195,0,64,10
0.10000000000000853,2195,1,64,127
0.10000000000000853,2195,2,64,127
0.09999999999999432,2195,3,64,2
0.09999999999999432,2195,4,64,127
0.09999999999999432,2195,5,64,2
0.09999999999999432,2195,6,64,127
0.09999999999999432,2195,7,64,127
0.10000000000000853,2195,8,64,8
0.10000000000000853,2195,9,64,127
0.09999999999999432,2195,10,64,127
0.09999999999999432,2195,11,64,1
0.09999999999999432,2195,12,64,1
0.09999999999999432,2195,13,64,127
0.10000000000000853,2195,14,64,2
0.09999999999999432,2195,15,64,127
0.09999999999999432,2196,0,64,2
0.09999999999999432,2196,1,64,127
0.10000000000000853,2196,2,64,8
0.10000000000000853,2196,3,64,127
0.10000000000000853,2196,4,64,127
0.09999999999999432,2196,5,64,52
0.09999999999999432,2196,6,64,57
0.09999999999999432,2196,7,64,127
0.09999999999999432,2196,8,64,127
0.10000000000000853,2196,9,64,127
0.09999999999999432,2196,10,64,7
0.09999999999999432,2196,11,64,127
0.09999999999999432,2196,12,64,127
0.10000000000000853,2196,13,64,2
0.09999999999999432,2196,14,64,127
0.10000000000000853,2196,15,64,2
0.10000000000000853,2197,0,64,127
0.09999999999999432,2197,1,64,2
0.09999999999999432,2197,2,64,127
0.09999999999999432,2197,3,64,8
0.09999999999999432,2197,4,64,127
0.09999999999999432,2197,5,64,127
0.10000000000000853,2197,6,64,2
0.10000000000000853,2197,7,64,127
0.09999999999999432,2197,8,64,2
0.10000000000000853,2197,9,64,127
0.09999999999999432,2197,10,64,2
0.10000000000000853,2197,11,64,127
0.09999999999999432,2197,12,64,8
0.09999999999999432,2197,13,64,127
0.09999999999999432,2197,14,64,125
0.09999999999999432,2197,15,64,1
0.10000000000000853,2198,0,64,127
0.09999999999999432,2198,1,64,127
0.09999999999999432,2198,2,64,2
0.09999999999999432,2198,3,64,127
0.09999999999999432,2198,4,64,11
0.09999999999999432,2198,5,64,127
0.10000000000000853,2198,6,64,127
0.10000000000000853,2198,7,64,52
0.10000000000000853,2198,8,64,66
0.10000000000000853,2198,9,64,127
0.09999999999999432,2198,10,64,127
0.09999999999999432,2198,11,64,10
0.10000000000000853,2198,12,64,20
0.10000000000000853,2198,13,64,6
0.10000000000000853,2198,14,64,24
0.10000000000000853,2198,15,64,127
0.10000000000000853,2199,0,64,127
0.09999999999999432,2199,1,64,2
0.09999999999999432,2199,2,64,127
0.09999999999999432,2199,3,64,2
0.09999999999999432,2199,4,64,127
0.09999999999999432,2199,5,64,3
0.10000000000000853,2199,6,64,4
0.10000000000000853,2199,7,64,3
0.09999999999999432,2199,8,64,1
0.10000000000000853,2199,9,64,127
0.10000000000000853,2199,10,64,127
0.09999999999999432,2199,11,64,3
0.09999999999999432,2199,12,64,2
0.09999999999999432,2199,13,64,127
0.09999999999999432,2199,14,64,2
0.09999999999999432,2199,15,64,127
0.10000000000000853,2200,0,64,1
0.10000000000000853,2200,1,64,6
0.09999999999999432,2200,2,64,3
0.09999999999999432,2200,3,64,2
0.10000000000000853,2200,4,64,127
0.09999999999999432,2200,5,64,127
0.09999999999999432,2200,6,64,3
0.09999999999999432,2200,7,64,2
0.09999999999999432,2200,8,64,127
0.10000000000000853,2200,9,64,2
0.09999999999999432,2200,10,64,127
0.10000000000000853,2200,11,64,2
0.09999999999999432,2200,12,64,6
0.10000000000000853,2200,13,64,3
0.09999999999999432,2200,14,64,2
0.09999999999999432,2200,15,64,127
0.09999999999999432,2201,0,64,127
0.09999999999999432,2201,1,64,2
0.10000000000000853,2201,2,64,2
0.09999999999999432,2201,3,64,127
0.10000000000000853,2201,4,64,2
0.10000000000000853,2201,5,64,127
0.09999999999999432,2201,6,64,3
0.09999999999999432,2201,7,64,12
0.09999999999999432,2201,8,64,2
0.09999999999999432,2201,9,64,26
0.09999999999999432,2201,10,64,127
0.09999999999999432,2201,11,64,123
0.10000000000000853,2201,12,64,3
0.09999999999999432,2201,13,64,2
0.10000000000000853,2201,14,64,127
0.09999999999999432,2201,15,64,2
0.10000000000000853,2202,0,64,127
0.09999999999999432,2202,1,64,2
0.09999999999999432,2202,2,64,4
0.09999999999999432,2202,3,64,3
0.10000000000000853,2202,4,64,1
0.09999999999999432,2202,5,64,127
0.09999999999999432,2202,6,64,127
0.09999999999999432,2202,7,64,65
0.09999999999999432,2202,8,64,91
0.09999999999999432,2202,9,64,127
0.09999999999999432,2202,10,64,4
0.09999999999999432,2202,11,64,127
0.10000000000000853,2202,12,64,6
0.09999999999999432,2202,13,64,24
0.09999999999999432,2202,14,64,127
0.10000000000000853,2202,15,64,126
0.10000000000000853,2203,0,64,3
0.09999999999999432,2203,1,64,2
0.10000000000000853,2203,2,64,127
0.09999999999999432,2203,3,64,2
0.09999999999999432,2203,4,64,127
0.09999999999999432,2203,5,64,2
0.09999999999999432,2203,6,64,127
0.10000000000000853,2203,7,64,7
0.09999999999999432,2203,8,64,2
0.10000000000000853,2203,9,64,127
0.10000000000000853,2203,10,64,127
0.09999999999999432,2203,11,64,3
0.09999999999999432,2203,12,64,2
0.09999999999999432,2203,13,64,127
0.09999999999999432,2203,14,64,2
0.09999999999999432,2203,15,64,125
0.10000000000000853,2204,0,64,3
0.09999999999999432,2204,1,64,127
0.10000000000000853,2204,2,64,7
0.10000000000000853,2204,3,64,20
0.10000000000000853,2204,4,64,127
0.10000000000000853,2204,5,64,127
0.09999999999999432,2204,6,64,2
0.09999999999999432,2204,7,64,2
0.09999999999999432,2204,8,64,127
0.10000000000000853,2204,9,64,2
0.09999999999999432,2204,10,64,127
0.10000000000000853,2204,11,64,2
0.10000000000000853,2204,12,64,127
0.09999999999999432,2204,13,64,6
0.09999999999999432,2204,14,64,2
0.10000000000000853,2204,15,64,127
0.09999999999999432,2205,0,64,127
0.09999999999999432,2205,1,64,62
0.09999999999999432,2205,2,64,89
0.09999999999999432,2205,3,64,127
0.10000000000000853,2205,4,64,127
0.10000000000000853,2205,5,64,127
0.09999999999999432,2205,6,64,7
0.09999999999999432,2205,7,64,19
0.09999999999999432,2205,8,64,127
0.09999999999999432,2205,9,64,127
0.09999999999999432,2205,10,64,3
0.10000000000000853,2205,11,64,2
0.10000000000000853,2205,12,64,127
0.10000000000000853,2205,13,64,4
0.09999999999999432,2205,14,64,105
0.09999999999999432,2205,15,64,3
0.10000000000000853,2206,0,64,127
0.09999999999999432,2206,1,64,6
0.09999999999999432,2206,2,64,127
0.09999999999999432,2206,3,64,100
0.10000000000000853,2206,4,64,3
0.10000000000000853,2206,5,64,1
0.09999999999999432,2206,6,64,127
0.09999999999999432,2206,7,64,5
0.10000000000000853,2206,8,64,4
0.10000000000000853,2206,9,64,101
0.09999999999999432,2206,10,64,3
0.09999999999999432,2206,11,64,127
0.09999999999999432,2206,12,64,7
0.09999999999999432,2206,13,64,127
0.10000000000000853,2206,14,64,4
0.09999999999999432,2206,15,64,113
0.10000000000000853,2207,0,64,3
0.09999999999999432,2207,1,64,1
0.10000000000000853,2207,2,64,127
0.09999999999999432,2207,3,64,4
0.09999999999999432,2207,4,64,3
0.09999999999999432,2207,5,64,1
0.09999999999999432,2207,6,64,88
0.09999999999999432,2207,7,64,3
0.09999999999999432,2207,8,64,127
0.09999999999999432,2207,9,64,6
0.10000000000000853,2207,10,64,127
0.09999999999999432,2207,11,64,3
0.09999999999999432,2207,12,64,101
0.10000000000000853,2207,13,64,70
0.09999999999999432,2207,14,64,52
0.09999999999999432,2207,15,64,127
0.09999999999999432,2208,0,64,9
0.09999999999999432,2208,1,64,114
0.09999999999999432,2208,2,64,5
0.09999999999999432,2208,3,64,127
0.09999999999999432,2208,4,64,6
0.09999999999999432,2208,5,64,127
0.09999999999999432,2208,6,64,57
0.09999999999999432,2208,7,64,4
0.10000000000002274,2208,8,64,2
0.09999999999999432,2208,9,64,127
0.10000000000002274,2208,10,64,5
0.09999999999999432,2208,11,64,3
0.10000000000002274,2208,12,64,107
0.09999999999999432,2208,13,64,3
0.09999999999999432,2208,14,64,127
0.09999999999999432,2208,15,64,7
0.09999999999999432,2209,0,64,127
0.09999999999999432,2209,1,64,4
0.09999999999999432,2209,2,64,110
0.09999999999999432,2209,3,64,3
0.09999999999999432,2209,4,64,1
0.09999999999999432,2209,5,64,127
0.09999999999999432,2209,6,64,3
0.09999999999999432,2209,7,64,4
0.09999999999999432,2209,8,64,106
0.09999999999999432,2209,9,64,3
0.09999999999999432,2209,10,64,127
0.09999999999999432,2209,11,64,6
0.09999999999999432,2209,12,64,127
0.10000000000002274,2209,13,64,4
0.09999999999999432,2209,14,64,111
0.10000000000002274,2209,15,64,3
0.09999999999999432,2210,0,64,2
0.09999999999999432,2210,1,64,127
0.09999999999999432,2210,2,64,4
0.09999999999999432,2210,3,64,4
0.09999999999999432,2210,4,64,109
0.09999999999999432,2210,5,64,3
0.09999999999999432,2210,6,64,127
0.09999999999999432,2210,7,64,6
0.09999999999999432,2210,8,64,127
0.10000000000002274,2210,9,64,108
0.10000000000002274,2210,10,64,39
0.09999999999999432,2210,11,64,38
0.09999999999999432,2210,12,64,14
0.10000000000002274,2210,13,64,127
0.09999999999999432,2210,14,64,11
0.09999999999999432,2210,15,64,124
0.10000000000002274,2211,0,64,7
0.09999999999999432,2211,1,64,127
0.10000000000002274,2211,2,64,8
0.09999999999999432,2211,3,64,127
0.09999999999999432,2211,4,64,114
0.09999999999999432,2211,5,64,5
0.09999999999999432,2211,6,64,5
0.09999999999999432,2211,7,64,127
0.10000000000002274,2211,8,64,4
0.09999999999999432,2211,9,64,2
0.10000000000002274,2211,10,64,1
0.09999999999999432,2211,11,64,106
0.10000000000002274,2211,12,64,3
0.09999999999999432,2211,13,64,127
0.10000000000002274,2211,14,64,6
0.10000000000002274,2211,15,64,127
0.09999999999999432,2212,0,64,3
0.09999999999999432,2212,1,64,111
0.09999999999999432,2212,2,64,3
0.09999999999999432,2212,3,64,1
0.09999999999999432,2212,4,64,127
0.09999999999999432,2212,5,64,3
0.09999999999999432,2212,6,64,3
0.09999999999999432,2212,7,64,103
0.09999999999999432,2212,8,64,3
0.10000000000002274,2212,9,64,127
0.09999999999999432,2212,10,64,6
0.09999999999999432,2212,11,64,127
0.09999999999999432,2212,12,64,104
0.10000000000002274,2212,13,64,3
0.09999999999999432,2212,14,64,1
0.10000000000000142,2212,15,59,1
0.045454545454546746,2213,0,59,2
0.10000000000000142,2213,1,59,7
0.10000000000000142,2213,2,59,1
0.10000000000000142,2213,3,59,1
0.002272727272732311,2213,4,59,3
0.09999999999999432,2213,5,59,1
0.10000000000000142,2213,6,59,5
0.10000000000000142,2213,7,59,2
0.10000000000000142,2213,8,59,1
0.10000000000000142,2213,9,59,1
0.03636363636363882,2213,10,59,6
0.09999999999999432,2213,11,59,1
0.10000000000000142,2213,12,59,1
0.02499999999999858,2213,13,59,1
0.06818181818182012,2213,14,59,1
0.10000000000000142,2213,15,59,7
0.10000000000000142,2214,0,59,6
0.10000000000000142,2214,1,59,5
0.10000000000000142,2214,2,59,5
0.10000000000000142,2214,3,59,7
0.10000000000000142,2214,4,59,5
0.10000000000000142,2214,5,59,8
0.09999999999999432,2214,6,59,9
0.10000000000000142,2214,7,59,10
0.10000000000000142,2214,8,59,4
0.10000000000000142,2214,9,59,6
0.05681818181817988,2214,10,59,8
0.10000000000000142,2214,11,59,7
0.10000000000000142,2214,12,59,9
0.10000000000000142,2214,13,59,9
0.06818181818182012,2214,14,59,12
0.10000000000000142,2214,15,59,19
0.10000000000000142,2215,0,59,11
0.10000000000000142,2215,1,59,4
0.10000000000000142,2215,2,59,5
0.09999999999999432,2215,3,59,13
0.10000000000000142,2215,4,59,7
0.10000000000000142,2215,5,59,8
0.10000000000000142,2215,6,59,6
0.10000000000000142,2215,7,59,9
0.10000000000000142,2215,8,59,5
0.10000000000000009,2215,9,66,28
0.10000000000000009,2215,10,66,23
0.09999999999999987,2215,11,66,34
0.09999999999999964,2215,12,66,39
0.10000000000000009,2215,13,66,37
0.10000000000000009,2215,14,66,27
0.10000000000000009,2215,15,66,33
0.09999999999999964,2216,0,66,27
0.09999999999999964,2216,1,66,40
0.10000000000000053,2216,2,66,22
0.10000000000000053,2216,3,66,30
0.09999999999999964,2216,4,66,27
0.10000000000000053,2216,5,66,38
0.09999999999999964,2216,6,66,34
0.09999999999999964,2216,7,66,39
0.09999999999999964,2216,8,66,24
0.09999999999999964,2216,9,66,43
0.09999999999999964,2216,10,66,35
0.09999999999999964,2216,11,66,42
0.09999999999999964,2216,12,66,35
0.09999999999999964,2216,13,66,42
0.10000000000000142,2216,14,66,37
0.10000000000000142,2216,15,66,40
0.10000000000000142,2217,0,66,45
0.10000000000000142,2217,1,66,49
0.09999999999999787,2217,2,66,46
0.10000000000000142,2217,3,66,63
0.09999999999999787,2217,4,66,38
0.09999999999999787,2217,5,66,30
0.09999999999999787,2217,6,66,39
0.10000000000000142,2217,7,66,44
0.10000000000000142,2217,8,66,49
0.09999999999999787,2217,9,66,56
0.10000000000000142,2217,10,66,72
0.09999999999999787,2217,11,66,66
0.09999999999999787,2217,12,66,49
0.09999999999999787,2217,13,66,43
0.10000000000000142,2217,14,66,46
0.09999999999999787,2217,15,66,49
0.10000000000000142,2218,0,66,45
0.09999999999999787,2218,1,66,48
0.10000000000000142,2218,2,66,55
0.10000000000000142,2218,3,66,50
0.09999999999999787,2218,4,66,40
0.09999999999999787,2218,5,66,42
0.09999999999999787,2218,6,66,44
0.10000000000000142,2218,7,66,46
0.09999999999999787,2218,8,66,35
0.10000000000000142,2218,9,66,40
0.10000000000000142,2218,10,66,40
0.10000000000000142,2218,11,66,43
0.10000000000000142,2218,12,66,36
0.10000000000000142,2218,13,66,25
0.10000000000000142,2218,14,66,34
0.10000000000000142,2218,15,66,34
0.10000000000000142,2219,0,66,40
0.10000000000000142,2219,1,66,41
0.10000000000000142,2219,2,66,38
0.10000000000000142,2219,3,66,37
0.09999999999999432,2219,4,66,41
0.10000000000000142,2219,5,66,43
0.10000000000000142,2219,6,66,49
0.09999999999999432,2219,7,66,49
0.10000000000000142,2219,8,66,49
0.09999999999999432,2219,9,66,39
0.10000000000000142,2219,10,66,33
0.09999999999999432,2219,11,66,35
0.09999999999999432,2219,12,66,27
0.10000000000000142,2219,13,66,33
0.10000000000000142,2219,14,66,15
0.09999999999999432,2219,15,66,34
0.10000000000000142,2220,0,66,33
0.10000000000000142,2220,1,66,36
0.10000000000000142,2220,2,66,19
0.10000000000000142,2220,3,66,31
0.09999999999999432,2220,4,66,18
0.10000000000000142,2220,5,66,48
0.10000000000000142,2220,6,66,27
0.10000000000000142,2220,7,66,50
0.09999999999999432,2220,8,66,59
0.10000000000000142,2220,9,66,31
0.09999999999999432,2220,10,66,23
0.10000000000000142,2220,11,66,43
0.09999999999999432,2220,12,66,17
0.10000000000000142,2220,13,66,20
0.10000000000000142,2220,14,66,31
0.09999999999999432,2220,15,66,26
0.10000000000000142,2221,0,66,28
0.09999999999999432,2221,1,66,40
0.10000000000000142,2221,2,66,28
0.10000000000000142,2221,3,66,27
0.09999999999999432,2221,4,66,24
0.10000000000000142,2221,5,66,24
0.10000000000000142,2221,6,66,26
0.10000000000000142,2221,7,66,28
0.10000000000000853,2221,8,66,25
0.10000000000000853,2221,9,66,25
0.10000000000000853,2221,10,66,27
0.09999999999999432,2221,11,66,40
0.09999999999999432,2221,12,66,32
0.10000000000000853,2221,13,66,20
0.10000000000000853,2221,14,66,25
0.09999999999999432,2221,15,66,27
0.09999999999999432,2222,0,66,35
0.10000000000000853,2222,1,66,43
0.10000000000000853,2222,2,66,25
0.10000000000000853,2222,3,66,29
0.10000000000000853,2222,4,66,37
0.09999999999999432,2222,5,66,32
0.10000000000000853,2222,6,66,21
0.10000000000000853,2222,7,66,23
0.09999999999999432,2222,8,66,19
0.09999999999999432,2222,9,66,31
0.09999999999999432,2222,10,66,29
0.10000000000000853,2222,11,66,28
0.09999999999999432,2222,12,66,31
0.09999999999999432,2222,13,66,25
0.09999999999999432,2222,14,66,38
0.10000000000000853,2222,15,66,36
0.09999999999999432,2223,0,66,41
0.09999999999999432,2223,1,66,28
0.09999999999999432,2223,2,66,28
0.09999999999999432,2223,3,66,36
0.09999999999999432,2223,4,66,35
0.09999999999999432,2223,5,66,42
0.09999999999999432,2223,6,66,30
0.10000000000000853,2223,7,66,34
0.09999999999999432,2223,8,66,34
0.10000000000000853,2223,9,66,34
0.10000000000000853,2223,10,66,33
0.09999999999999432,2223,11,66,33
0.10000000000000853,2223,12,66,37
0.10000000000000853,2223,13,66,33
0.09999999999999432,2223,14,66,39
0.09999999999999432,2223,15,66,33
0.10000000000000853,2224,0,66,25
0.09999999999999432,2224,1,66,34
0.09999999999999432,2224,2,66,33
0.09999999999999432,2224,3,66,24
0.09999999999999432,2224,4,66,32
0.10000000000000853,2224,5,66,25
0.09999999999999432,2224,6,66,29
0.09999999999999432,2224,7,66,28
0.10000000000000853,2224,8,66,46
0.09999999999999432,2224,9,66,39
0.09999999999999432,2224,10,66,27
0.10000000000000853,2224,11,66,39
0.10000000000000853,2224,12,66,38
0.10000000000000853,2224,13,66,53
0.09999999999999432,2224,14,66,43
0.09999999999999432,2224,15,66,56
0.10000000000000853,2225,0,66,41
0.09999999999999432,2225,1,66,52
0.09999999999999432,2225,2,66,33
0.10000000000000853,2225,3,66,40
0.10000000000000853,2225,4,66,37
0.09999999999999432,2225,5,66,33
0.09999999999999432,2225,6,66,43
0.10000000000000853,2225,7,66,52
0.09999999999999432,2225,8,66,42
0.10000000000000853,2225,9,66,34
0.09999999999999432,2225,10,66,41
0.09999999999999432,2225,11,66,44
0.10000000000000853,2225,12,66,53
0.10000000000000853,2225,13,66,52
0.09999999999999432,2225,14,66,59
0.09999999999999432,2225,15,66,62
0.09999999999999432,2226,0,66,60
0.10000000000000853,2226,1,66,54
0.10000000000000853,2226,2,66,46
0.10000000000000853,2226,3,66,47
0.10000000000000853,2226,4,66,26
0.09999999999999432,2226,5,66,38
0.09999999999999432,2226,6,66,28
0.09999999999999432,2226,7,66,38
0.09999999999999432,2226,8,66,61
0.09999999999999432,2226,9,66,42
0.10000000000002274,2226,10,66,42
0.09999999999999432,2226,11,66,47
0.09999999999999432,2226,12,66,44
0.09999999999999432,2226,13,66,42
0.10000000000002274,2226,14,66,70
0.09999999999999432,2226,15,66,52
0.10000000000002274,2227,0,66,52
0.09999999999999432,2227,1,66,46
0.09999999999999432,2227,2,66,47
0.10000000000002274,2227,3,66,34
0.09999999999999432,2227,4,66,42
0.09999999999999432,2227,5,66,66
0.09999999999999432,2227,6,66,41
0.10000000000002274,2227,7,66,60
0.09999999999999432,2227,8,66,75
0.09999999999999432,2227,9,66,45
0.09999999999999432,2227,10,66,61
0.09999999999999432,2227,11,66,52
0.09999999999999432,2227,12,66,50
0.09999999999999432,2227,13,66,59
0.09999999999999432,2227,14,66,49
0.09999999999999432,2227,15,66,39
0.09999999999999432,2228,0,66,57
0.09999999999999432,2228,1,66,44
0.09999999999999432,2228,2,66,45
0.09999999999999432,2228,3,66,37
0.09999999999999432,2228,4,66,46
0.09999999999999432,2228,5,66,25
0.09999999999999432,2228,6,66,48
0.09999999999999432,2228,7,66,50
0.09999999999999432,2228,8,66,79
0.09999999999999432,2228,9,66,89
0.09999999999999432,2228,10,66,52
0.10000000000002274,2228,11,66,49
0.09999999999999432,2228,12,66,47
0.09999999999999432,2228,13,66,46
0.09999999999999432,2228,14,66,63
0.09999999999999432,2228,15,66,39
0.09999999999999432,2229,0,66,38
0.09999999999999432,2229,1,66,41
0.10000000000002274,2229,2,66,48
0.10000000000002274,2229,3,66,120
0.10000000000002274,2229,4,66,86
0.09999999999999432,2229,5,66,37
0.09999999999999432,2229,6,66,57
0.09999999999999432,2229,7,66,40
0.10000000000002274,2229,8,66,111
0.09999999999999432,2229,9,66,112
0.09999999999999432,2229,10,66,64
0.09999999999999432,2229,11,66,60
0.09999999999999432,2229,12,66,67
0.09999999999999432,2229,13,66,61
0.10000000000002274,2229,14,66,45
0.09999999999999432,2229,15,66,57
0.10000000000002274,2230,0,66,74
0.09999999999999432,2230,1,66,85
0.09999999999999432,2230,2,66,127
0.09999999999999432,2230,3,66,127
0.09999999999999432,2230,4,66,50
0.09999999999999432,2230,5,66,52
0.09999999999999432,2230,6,66,69
0.10000000000002274,2230,7,66,66
0.09999999999999432,2230,8,66,47
0.09999999999999432,2230,9,66,39
0.09999999999999432,2230,10,66,52
0.09999999999999432,2230,11,66,65
0.09999999999999432,2230,12,66,48
0.09999999999999432,2230,13,66,49
0.10000000000002274,2230,14,66,47
0.09999999999999432,2230,15,66,50
0.09999999999999432,2231,0,66,67
0.09999999999999432,2231,1,66,77
0.10000000000002274,2231,2,66,67
0.09999999999999432,2231,3,66,54
0.10000000000002274,2231,4,66,57
0.10000000000002274,2231,5,66,55
0.09999999999999432,2231,6,66,50
0.09999999999999432,2231,7,66,49
0.09999999999999432,2231,8,66,41
0.09999999999999432,2231,9,66,40
0.09999999999999432,2231,10,66,38
0.09999999999999432,2231,11,66,26
0.09999999999999964,2231,12,69,1
0.09999999999999787,2231,13,69,23
0.09999999999999432,2231,14,69,3
0.10000000000000142,2231,15,69,6
0.09999999999999432,2232,0,69,14
0.09999999999999432,2232,1,69,4
0.10000000000000853,2232,2,69,34
0.09999999999999432,2232,3,69,52
0.10000000000000853,2232,4,69,48
0.10000000000000853,2232,5,69,39
0.10000000000000853,2232,6,69,45
0.09999999999999432,2232,7,69,48
0.09999999999999432,2232,8,69,46
0.09999999999999432,2232,9,69,50
0.09999999999999432,2232,10,69,27
0.09999999999999432,2232,11,69,34
0.09999999999999964,2232,12,78,12
0.06590909090909047,2232,13,78,18
0.09999999999999964,2232,14,78,34
0.09999999999999964,2232,15,78,127
0.10000000000000142,2233,0,78,79
0.09999999999999964,2233,1,78,21
0.09999999999999964,2233,2,78,109
0.09999999999999964,2233,3,78,29
0.09999999999999964,2233,4,78,31
0.09999999999999964,2233,5,78,97
0.09999999999999964,2233,6,78,63
0.10000000000000142,2233,7,78,41
0.09999999999999964,2233,8,78,114
0.09999999999999964,2233,9,78,79
0.09999999999999964,2233,10,78,94
0.10000000000000142,2233,11,78,111
0.09999999999999787,2233,12,78,72
0.09999999999999787,2233,13,78,15
0.10000000000000142,2233,14,78,74
0.05681818181817988,2233,15,78,81
0.10000000000000142,2234,0,78,60
0.10000000000000142,2234,1,78,91
0.10000000000000142,2234,2,78,97
0.09999999999999787,2234,3,78,68
0.09999999999999787,2234,4,78,83
0.10000000000000142,2234,5,78,107
0.09999999999999787,2234,6,78,127
0.10000000000000142,2234,7,78,18
0.01590909090909065,2234,8,78,78
0.10000000000000142,2234,9,78,4
0.10000000000000142,2234,10,78,72
0.09999999999999787,2234,11,78,113
0.10000000000000142,2234,12,78,127
0.10000000000000142,2234,13,78,68
0.09999999999999787,2234,14,78,29
0.10000000000000142,2234,15,78,123
0.09999999999999787,2235,0,78,127
0.10000000000000142,2235,1,78,127
0.10000000000000142,2235,2,78,97
0.09999999999999787,2235,3,78,18
0.09999999999999787,2235,4,78,111
0.10000000000000142,2235,5,78,114
0.09999999999999787,2235,6,78,67
0.05681818181817988,2235,7,78,110
0.10000000000000142,2235,8,78,97
0.10000000000000142,2235,9,78,72
0.09999999999999787,2235,10,78,109
0.10000000000000142,2235,11,78,62
0.013636363636365445,2235,12,78,61
0.09999999999999787,2235,13,78,112
0.09999999999999787,2235,14,78,21
0.09999999999999787,2235,15,78,127
0.09999999999999787,2236,0,78,113
0.10000000000000142,2236,1,78,46
0.09999999999999787,2236,2,78,96
0.09999999999999787,2236,3,78,36
0.09999999999999787,2236,4,78,88
0.10000000000000142,2236,5,78,86
0.09999999999999787,2236,6,78,18
0.10000000000000142,2236,7,78,25
0.10000000000000142,2236,8,78,114
0.10000000000000142,2236,9,78,117
0.09999999999999432,2236,10,78,102
0.10000000000000142,2236,11,78,57
0.10000000000000142,2236,12,78,29
0.09999999999999432,2236,13,78,98
0.10000000000000142,2236,14,78,20
0.06818181818182012,2236,15,78,65
0.03636363636363882,2237,0,78,106
0.10000000000000142,2237,1,78,48
0.10000000000000142,2237,2,78,87
0.013636363636365445,2237,3,78,42
0.09999999999999432,2237,4,78,87
0.10000000000000142,2237,5,78,44
0.10000000000000142,2237,6,78,127
0.10000000000000142,2237,7,78,127
0.09999999999999432,2237,8,78,124
0.09999999999999432,2237,9,78,35
0.09999999999999432,2237,10,78,80
0.10000000000000142,2237,11,78,105
0.10000000000000142,2237,12,78,118
0.09999999999999432,2237,13,78,84
0.10000000000000142,2237,14,78,127
0.09999999999999432,2237,15,78,86
0.10000000000000142,2238,0,78,89
0.10000000000000142,2238,1,78,72
0.09999999999999432,2238,2,78,104
0.10000000000000142,2238,3,78,106
0.10000000000000142,2238,4,78,37
0.10000000000000142,2238,5,78,77
0.10000000000000142,2238,6,78,92
0.10000000000000142,2238,7,78,90
0.09999999999999432,2238,8,78,103
0.06818181818181301,2238,9,78,92
0.10000000000000142,2238,10,78,26
0.09999999999999432,2238,11,78,75
0.10000000000000142,2238,12,78,126
0.10000000000000142,2238,13,78,127
0.10000000000000142,2238,14,78,40
0.10000000000000142,2238,15,78,103
0.10000000000000142,2239,0,78,108
0.04772727272727195,2239,1,78,105
0.10000000000000142,2239,2,78,63
0.10000000000000142,2239,3,78,92
0.10000000000000142,2239,4,78,125
0.10000000000000142,2239,5,78,102
0.09999999999999432,2239,6,78,64
0.10000000000000142,2239,7,78,12
0.10000000000000142,2239,8,78,97
0.02499999999999858,2239,9,78,115
0.10000000000000142,2239,10,78,41
0.10000000000000142,2239,11,78,127
0.09999999999999432,2239,12,78,104
0.10000000000000142,2239,13,78,127
0.10000000000000142,2239,14,78,127
0.10000000000000142,2239,15,78,21
0.045454545454546746,2240,0,78,40
0.10000000000000142,2240,1,78,103
0.02727272727273089,2240,2,78,116
0.10000000000000142,2240,3,78,81
0.09999999999999432,2240,4,78,127
0.10000000000000142,2240,5,78,30
0.10000000000000142,2240,6,78,94
0.10000000000000142,2240,7,78,120
0.10000000000000142,2240,8,78,46
0.10000000000000142,2240,9,78,119
0.10000000000000142,2240,10,78,127
0.10000000000000142,2240,11,78,111
0.10000000000000142,2240,12,78,127
0.10000000000000142,2240,13,78,80
0.09999999999999432,2240,14,78,127
0.09999999999999432,2240,15,78,55
0.10000000000000142,2241,0,78,84
0.10000000000000142,2241,1,78,41
0.01363636363635834,2241,2,78,18
0.09999999999999432,2241,3,78,84
0.05681818181817988,2241,4,78,95
0.10000000000000142,2241,5,78,58
0.10000000000000142,2241,6,78,109
0.10000000000000142,2241,7,78,127
0.09999999999999432,2241,8,78,74
0.10000000000000142,2241,9,78,127
0.10000000000000142,2241,10,78,85
0.10000000000000142,2241,11,78,47
0.09999999999999432,2241,12,78,17
0.09999999999999432,2241,13,78,104
0.056818181818186986,2241,14,78,127
0.10000000000000853,2241,15,78,90
0.09999999999999432,2242,0,78,118
0.09999999999999432,2242,1,78,106
0.09999999999999432,2242,2,78,64
0.01590909090909065,2242,3,78,25
0.10000000000000853,2242,4,78,82
0.09999999999999432,2242,5,78,127
0.09999999999999432,2242,6,78,103
0.10000000000000853,2242,7,78,103
0.09999999999999432,2242,8,78,83
0.09999999999999432,2242,9,78,127
0.09999999999999432,2242,10,78,43
0.10000000000000853,2242,11,78,110
0.09999999999999432,2242,12,78,107
0.09999999999999432,2242,13,78,127
0.10000000000000853,2242,14,78,84
0.10000000000000853,2242,15,78,127
0.09999999999999432,2243,0,78,51
0.09999999999999432,2243,1,78,110
0.10000000000000853,2243,2,78,105
0.09999999999999432,2243,3,78,127
0.09999999999999432,2243,4,78,68
0.10000000000000853,2243,5,78,23
0.10000000000000853,2243,6,78,62
0.03409090909092072,2243,7,78,114
0.10000000000000853,2243,8,78,82
0.09999999999999432,2243,9,78,74
0.09999999999999432,2243,10,78,125
0.004545454545450411,2243,11,78,64
0.09999999999999432,2243,12,78,127
0.09999999999999432,2243,13,78,88
0.10000000000000853,2243,14,78,83
0.09999999999999432,2243,15,78,119
0.10000000000000853,2244,0,78,98
0.09999999999999432,2244,1,78,120
0.09999999999999432,2244,2,78,116
0.09999999999999432,2244,3,78,99
0.09999999999999432,2244,4,78,121
0.09999999999999432,2244,5,78,115
0.09999999999999432,2244,6,78,110
0.09999999999999432,2244,7,78,60
0.10000000000000853,2244,8,78,91
0.10000000000000853,2244,9,78,119
0.10000000000000853,2244,10,78,54
0.09999999999999432,2244,11,78,105
0.09999999999999432,2244,12,78,127
0.10000000000000853,2244,13,78,28
0.10000000000000853,2244,14,78,80
0.09999999999999432,2244,15,78,53
0.10000000000000853,2245,0,78,127
0.10000000000000853,2245,1,78,61
0.09999999999999432,2245,2,78,95
0.09999999999999432,2245,3,78,127
0.10000000000000853,2245,4,78,127
0.09999999999999432,2245,5,78,116
0.09999999999999432,2245,6,78,94
0.056818181818186986,2245,7,78,127
0.09999999999999432,2245,8,78,104
0.10000000000000853,2245,9,78,117
0.09999999999999432,2245,10,78,127
0.10000000000000853,2245,11,78,102
0.09999999999999432,2245,12,78,30
0.09999999999999432,2245,13,78,99
0.09999999999999432,2245,14,78,127
0.10000000000000853,2245,15,78,63
0.09999999999999432,2246,0,78,102
0.09999999999999432,2246,1,78,91
0.09999999999999432,2246,2,78,125
0.09999999999999432,2246,3,78,127
0.09999999999999432,2246,4,78,127
0.10000000000000853,2246,5,78,38
0.09999999999999432,2246,6,78,127
0.09999999999999432,2246,7,78,53
0.09999999999999432,2246,8,78,78
0.10000000000000853,2246,9,78,123
0.09999999999999432,2246,10,78,127
0.10000000000000853,2246,11,78,108
0.10000000000000853,2246,12,78,83
0.10000000000000853,2246,13,78,113
0.09999999999999432,2246,14,78,106
0.09999999999999432,2246,15,78,127
0.06818181818181301,2247,0,78,127
0.09999999999999432,2247,1,78,68
0.10000000000000853,2247,2,78,33
0.09999999999999432,2247,3,78,127
0.09999999999999432,2247,4,78,127
0.09999999999999432,2247,5,78,110
0.10000000000000853,2247,6,78,107
0.09999999999999432,2247,7,78,127
0.09999999999999432,2247,8,78,127
0.09999999999999432,2247,9,78,127
0.09999999999999432,2247,10,78,81
0.10000000000000853,2247,11,78,24
0.10000000000000853,2247,12,78,54
0.10000000000000853,2247,13,78,98
0.09999999999999432,2247,14,78,127
0.10000000000000853,2247,15,78,110
0.10000000000000853,2248,0,78,112
0.056818181818186986,2248,1,78,87
0.10000000000000853,2248,2,78,103
0.013636363636365445,2248,3,78,75
0.09999999999999432,2248,4,78,118
0.09999999999999432,2248,5,78,127
0.09999999999999432,2248,6,78,112
0.10000000000000853,2248,7,78,127
0.09999999999999432,2248,8,78,111
0.10000000000000853,2248,9,78,113
0.045454545454546746,2248,10,78,77
0.03636363636363171,2248,11,78,56
0.09999999999999432,2248,12,78,115
0.09999999999999432,2248,13,78,115
0.09999999999999432,2248,14,78,127
0.09999999999999432,2248,15,78,127
0.09999999999999432,2249,0,78,51
0.09999999999999432,2249,1,78,118
0.09999999999999432,2249,2,78,99
0.10000000000000853,2249,3,78,127
0.09999999999999432,2249,4,78,63
0.09999999999999432,2249,5,78,100
0.09999999999999432,2249,6,78,127
0.09999999999999432,2249,7,78,127
0.10000000000000853,2249,8,78,99
0.09999999999999432,2249,9,78,88
0.09999999999999432,2249,10,78,99
0.09999999999999432,2249,11,78,9
0.10000000000000853,2249,12,78,95
0.10000000000000853,2249,13,78,102
0.09999999999999432,2249,14,78,109
0.09999999999999432,2249,15,78,91
0.09999999999999432,2250,0,78,45
0.09999999999999432,2250,1,78,25
0.09999999999999432,2250,2,78,127
0.09999999999999432,2250,3,78,101
0.10000000000000853,2250,4,78,86
0.09999999999999432,2250,5,78,104
0.10000000000000853,2250,6,78,79
0.025000000000005684,2250,7,78,33
0.10000000000000853,2250,8,78,37
0.09999999999999432,2250,9,78,124
0.09999999999999432,2250,10,78,127
0.10000000000000853,2250,11,78,127
0.10000000000000853,2250,12,78,87
0.10000000000000853,2250,13,78,120
0.10000000000000853,2250,14,78,78
0.09999999999999432,2250,15,78,127
0.10000000000000853,2251,0,78,90
0.09999999999999432,2251,1,78,120
0.10000000000000853,2251,2,78,100
0.10000000000000853,2251,3,78,127
0.10000000000000853,2251,4,78,113
0.10000000000000853,2251,5,78,117
0.09999999999999432,2251,6,78,31
0.10000000000000853,2251,7,78,44
0.09999999999999432,2251,8,78,102
0.09999999999999432,2251,9,78,110
0.09999999999999432,2251,10,78,97
0.09999999999999432,2251,11,78,100
0.10000000000000853,2251,12,78,127
0.09999999999999432,2251,13,78,77
0.09999999999999432,2251,14,78,114
0.10000000000000853,2251,15,78,38
0.025000000000005684,2252,0,78,113
0.10000000000000853,2252,1,78,127
0.10000000000000853,2252,2,78,123
0.10000000000000853,2252,3,78,27
0.09999999999999432,2252,4,78,89
0.10000000000000853,2252,5,78,127
0.09999999999999432,2252,6,78,116
0.09999999999999432,2252,7,78,76
0.10000000000000853,2252,8,78,118
0.10000000000000853,2252,9,78,36
0.10000000000000853,2252,10,78,83
0.10000000000000853,2252,11,78,127
0.09999999999999432,2252,12,78,127
0.09999999999999432,2252,13,78,127
0.09999999999999432,2252,14,78,38
0.09999999999999432,2252,15,78,104
0.09999999999999432,2253,0,78,127
0.10000000000000853,2253,1,78,114
0.09999999999999432,2253,2,78,33
0.09999999999999432,2253,3,78,123
0.09999999999999432,2253,4,78,118
0.09999999999999432,2253,5,78,127
0.06818181818181301,2253,6,78,127
0.09999999999999432,2253,7,78,113
0.09999999999999432,2253,8,78,119
0.09999999999999432,2253,9,78,127
0.09999999999999432,2253,10,78,124
0.10000000000000853,2253,11,78,85
0.09999999999999432,2253,12,78,26
0.09999999999999432,2253,13,78,39
0.045454545454546746,2253,14,78,106
0.09999999999999432,2253,15,78,116
0.09999999999999432,2254,0,78,122
0.09999999999999432,2254,1,78,127
0.03636363636363171,2254,2,78,127
0.09999999999999432,2254,3,78,87
0.06590909090908781,2254,4,78,105
0.09999999999999432,2254,5,78,127
0.10000000000000853,2254,6,78,127
0.09999999999999432,2254,7,78,119
0.10000000000000853,2254,8,78,125
0.09999999999999432,2254,9,78,41
0.01590909090909065,2254,10,78,41
0.09999999999999432,2254,11,78,110
0.09999999999999432,2254,12,78,127
0.09999999999999432,2254,13,78,97
0.09999999999999432,2254,14,78,78
0.09999999999999432,2254,15,78,118
0.09999999999999432,2255,0,78,127
0.10000000000000853,2255,1,78,87
0.10000000000000853,2255,2,78,26
0.09999999999999432,2255,3,78,54
0.04772727272727195,2255,4,78,127
0.10000000000000853,2255,5,78,122
0.09999999999999432,2255,6,78,127
0.09999999999999432,2255,7,78,113
0.09999999999999432,2255,8,78,127
0.10000000000002274,2255,9,78,88
0.10000000000002274,2255,10,78,81
0.09999999999999432,2255,11,78,92
0.09999999999999432,2255,12,78,87
0.10000000000002274,2255,13,78,85
0.10000000000002274,2255,14,78,127
0.09999999999999432,2255,15,78,111
0.10000000000002274,2256,0,78,95
0.025000000000005684,2256,1,78,32
0.09999999999999432,2256,2,78,110
0.056818181818186986,2256,3,78,127
0.09999999999999432,2256,4,78,89
0.02727272727273089,2256,5,78,127
0.09999999999999432,2256,6,78,123
0.09999999999999432,2256,7,78,121
0.10000000000002274,2256,8,78,107
0.09999999999999432,2256,9,78,97
0.09999999999999432,2256,10,78,104
0.10000000000002274,2256,11,78,127
0.09999999999999432,2256,12,78,127
0.09999999999999432,2256,13,78,117
0.09999999999999432,2256,14,78,76
0.09999999999999432,2256,15,78,91
0.09999999999999432,2257,0,78,127
0.09999999999999432,2257,1,78,71
0.004545454545450411,2257,2,78,84
0.09999999999999432,2257,3,78,92
0.10000000000002274,2257,4,78,127
0.09999999999999432,2257,5,78,123
0.09999999999999432,2257,6,78,86
0.09999999999999432,2257,7,78,80
0.10000000000002274,2257,8,78,122
0.09999999999999432,2257,9,78,95
0.10000000000002274,2257,10,78,88
0.09999999999999432,2257,11,78,25
0.10000000000002274,2257,12,78,111
0.09999999999999432,2257,13,78,127
0.09999999999999432,2257,14,78,95
0.09999999999999432,2257,15,78,93
0.10000000000002274,2258,0,78,127
0.09999999999999432,2258,1,78,112
0.09999999999999432,2258,2,78,127
0.09999999999999432,2258,3,78,84
0.05909090909091219,2258,4,78,47
0.09999999999999432,2258,5,78,121
0.09999999999999432,2258,6,78,115
0.10000000000002274,2258,7,78,127
0.09999999999999432,2258,8,78,127
0.09999999999999432,2258,9,78,127
0.09999999999999432,2258,10,78,115
0.09999999999999432,2258,11,78,122
0.09999999999999432,2258,12,78,24
0.09999999999999432,2258,13,78,127
0.09999999999999432,2258,14,78,127
0.09999999999999432,2258,15,78,69
0.004545454545450411,2259,0,78,127
0.10000000000002274,2259,1,78,116
0.09999999999999432,2259,2,78,127
0.10000000000002274,2259,3,78,56
0.056818181818186986,2259,4,78,107
0.09999999999999432,2259,5,78,115
0.056818181818158564,2259,6,78,127
0.09999999999999432,2259,7,78,101
0.09999999999999432,2259,8,78,83
0.056818181818158564,2259,9,78,127
0.09999999999999432,2259,10,78,44
0.03636363636363171,2259,11,78,107
0.09999999999999432,2259,12,78,38
0.09999999999999432,2259,13,78,102
0.10000000000002274,2259,14,78,4
0.10000000000002274,2259,15,78,26
0.10000000000002274,2260,0,78,50
0.09999999999999432,2260,1,78,39
0.09999999999999432,2260,2,78,118
0.09999999999999432,2260,3,78,9
0.09999999999999432,2260,4,78,23
0.0022727272727252057,2260,5,78,88
0.09999999999999432,2260,6,78,108
0.09999999999999432,2260,7,78,88
0.09999999999999432,2260,8,78,114
0.09999999999999432,2260,9,78,101
0.10000000000002274,2260,10,78,99
0.09999999999999432,2260,11,78,57
0.10000000000002274,2260,12,78,99
0.09999999999999432,2260,13,78,15
0.09999999999999432,2260,14,78,33
0.10000000000002274,2260,15,78,45
0.025000000000005684,2261,0,78,24
0.10000000000002274,2261,1,78,119
0.09999999999999432,2261,2,78,106
0.09999999999999432,2261,3,78,127
0.09999999999999432,2261,4,78,9
0.09999999999999432,2261,5,78,72
0.10000000000002274,2261,6,78,61
0.09999999999999432,2261,7,78,82
0.09999999999999432,2261,8,78,82
0.09999999999999432,2261,9,78,6
0.09999999999999432,2261,10,78,101
0.09999999999999432,2261,11,78,99
0.10000000000002274,2261,12,78,77
0.10000000000002274,2261,13,78,110
0.09999999999999432,2261,14,78,119
0.09999999999999432,2261,15,78,49
0.0022727272727252057,2262,0,78,100
0.09999999999999432,2262,1,78,74
0.09999999999999432,2262,2,78,100
0.09999999999999432,2262,3,78,15
0.09999999999999432,2262,4,78,75
0.025000000000005684,2262,5,78,65
0.09999999999999432,2262,6,78,115
0.09999999999999432,2262,7,78,108
0.09999999999999432,2262,8,78,54
0.09999999999999432,2262,9,78,86
0.10000000000002274,2262,10,78,121
0.09999999999999432,2262,11,78,127
0.09999999999999432,2262,12,78,25
0.09999999999999432,2262,13,78,82
0.10000000000002274,2262,14,78,126
0.09999999999999432,2262,15,78,95
0.10000000000002274,2263,0,78,105
0.09999999999999432,2263,1,78,100
0.09999999999999432,2263,2,78,120
0.09999999999999432,2263,3,78,91
0.10000000000002274,2263,4,78,107
0.10000000000002274,2263,5,78,21
0.09999999999999432,2263,6,78,85
0.10000000000002274,2263,7,78,127
0.09999999999999432,2263,8,78,113
0.09999999999999432,2263,9,78,114
0.09999999999999432,2263,10,78,127
0.09999999999999432,2263,11,78,101
0.09999999999999432,2263,12,78,14
0.09999999999999432,2263,13,78,103
0.09999999999999432,2263,14,78,62
0.04772727272725774,2263,15,78,125
0.09999999999999432,2264,0,78,18
0.09999999999999432,2264,1,78,110
0.09999999999999432,2264,2,78,88
0.10000000000002274,2264,3,78,11
0.09999999999999432,2264,4,78,79
0.04545454545456096,2264,5,78,127
0.004545454545478833,2264,6,78,77
0.09999999999999432,2264,7,78,121
0.09999999999999432,2264,8,78,115
0.10000000000002274,2264,9,78,78
0.09999999999999432,2264,10,78,121
0.01590909090907644,2264,11,78,59
0.10000000000002274,2264,12,78,91
0.09999999999999432,2264,13,78,117
0.09999999999999432,2264,14,78,77
0.09999999999999432,2264,15,78,21
0.09999999999999998,2265,0,62,3
0.10000000000000003,2265,1,62,11
0.10000000000000009,2265,2,62,3
0.09999999999999964,2265,3,62,12
0.10000000000000009,2265,4,62,1
0.10000000000000053,2265,5,62,5
0.10000000000000053,2265,6,62,1
0.06818181818181834,2265,7,62,2
0.09999999999999964,2265,8,62,1
0.09999999999999964,2265,9,62,26
0.10000000000000142,2265,10,62,35
0.09999999999999787,2265,11,62,43
0.10000000000000142,2265,12,62,17
0.10000000000000142,2265,13,62,40
0.09999999999999787,2265,14,62,29
0.09999999999999787,2265,15,62,1
0.09999999999999432,2266,0,62,4
0.10000000000000142,2266,1,62,5
0.06818181818182012,2266,2,62,9
0.10000000000000142,2266,3,62,7
0.09999999999999432,2266,4,62,7
0.10000000000000142,2266,5,62,8
0.09999999999999432,2266,6,62,15
0.10000000000000142,2266,7,62,3
0.10000000000000142,2266,8,62,5
0.10000000000000142,2266,9,62,4
0.10000000000000142,2266,10,62,7
0.10000000000000142,2266,11,62,6
0.10000000000000142,2266,12,62,9
0.10000000000000142,2266,13,62,3
0.10000000000000142,2266,14,62,47
0.09999999999999432,2266,15,62,33
0.10000000000000142,2267,0,62,39
0.10000000000000142,2267,1,62,26
0.10000000000000142,2267,2,62,25
0.09999999999999432,2267,3,62,26
0.10000000000000142,2267,4,62,17
0.10000000000000142,2267,5,62,12
0.10000000000000142,2267,6,62,16
0.09999999999999432,2267,7,62,19
0.10000000000000142,2267,8,62,14
0.09999999999999432,2267,9,62,40
0.09999999999999432,2267,10,62,33
0.09999999999999432,2267,11,62,28
0.10000000000000853,2267,12,62,41
0.10000000000000853,2267,13,62,35
0.09999999999999432,2267,14,62,42
0.10000000000000853,2267,15,62,32
0.09999999999999432,2268,0,62,40
0.09999999999999432,2268,1,62,3
0.09999999999999432,2268,2,62,22
0.10000000000000853,2268,3,62,26
0.10000000000000853,2268,4,62,33
0.10000000000000853,2268,5,62,25
0.09999999999999432,2268,6,62,23
0.09999999999999432,2268,7,62,30
0.09999999999999432,2268,8,62,22
0.10000000000000853,2268,9,62,19
0.09999999999999432,2268,10,62,14
0.05909090909091219,2268,11,62,18
0.10000000000000853,2268,12,62,24
0.09999999999999432,2268,13,62,29
0.10000000000000853,2268,14,62,32
0.10000000000000853,2268,15,62,29
0.10000000000000853,2269,0,62,21
0.09999999999999432,2269,1,62,29
0.10000000000000853,2269,2,62,20
0.09999999999999432,2269,3,62,1
0.10000000000000853,2269,4,62,1
0.09999999999999432,2269,5,62,1
0.10000000000000009,2269,6,54,30
0.10000000000000009,2269,7,54,99
0.10000000000000053,2269,8,54,30
0.09999999999999964,2269,9,54,35
0.09999999999999964,2269,10,54,38
0.09999999999999964,2269,11,54,34
0.09999999999999964,2269,12,54,47
0.10000000000000142,2269,13,54,24
0.05909090909090864,2269,14,54,48
0.10000000000000142,2269,15,54,54
0.10000000000000142,2270,0,54,38
0.06818181818182012,2270,1,54,72
0.09999999999999787,2270,2,54,89
0.10000000000000142,2270,3,54,127
0.013636363636365445,2270,4,54,122
0.10000000000000142,2270,5,54,38
0.09999999999999787,2270,6,54,21
0.10000000000000142,2270,7,54,57
0.09999999999999432,2270,8,54,31
0.10000000000000142,2270,9,54,106
0.10000000000000142,2270,10,54,57
0.10000000000000142,2270,11,54,28
0.10000000000000142,2270,12,54,33
0.10000000000000142,2270,13,54,79
0.09999999999999432,2270,14,54,34
0.059090909090905086,2270,15,54,80
0.10000000000000142,2271,0,54,34
0.10000000000000142,2271,1,54,127
0.10000000000000142,2271,2,54,32
0.10000000000000142,2271,3,54,115
0.045454545454546746,2271,4,54,125
0.10000000000000142,2271,5,54,103
0.10000000000000142,2271,6,54,127
0.045454545454546746,2271,7,54,127
0.09999999999999432,2271,8,54,127
0.04772727272727195,2271,9,54,127
0.02499999999999858,2271,10,54,127
0.09999999999999432,2271,11,54,100
0.10000000000000142,2271,12,54,39
0.10000000000000142,2271,13,54,99
0.10000000000000142,2271,14,54,89
0.10000000000000142,2271,15,54,30
0.10000000000000142,2272,0,54,120
0.10000000000000142,2272,1,54,89
0.09999999999999432,2272,2,54,30
0.10000000000000142,2272,3,54,127
0.10000000000000142,2272,4,54,86
0.09999999999999432,2272,5,54,127
0.045454545454546746,2272,6,54,127
0.10000000000000142,2272,7,54,127
0.09999999999999432,2272,8,54,19
0.10000000000000142,2272,9,54,97
0.04772727272727906,2272,10,54,113
0.02499999999999858,2272,11,54,109
0.04772727272727195,2272,12,54,117
0.045454545454546746,2272,13,54,124
0.025000000000005684,2272,14,54,121
0.04772727272727195,2272,15,54,127
0.02499999999999858,2273,0,54,125
0.04545454545453964,2273,1,54,127
0.027272727272723785,2273,2,54,127
0.045454545454546746,2273,3,54,127
0.04772727272727195,2273,4,54,127
0.02499999999999858,2273,5,54,91
0.10000000000000142,2273,6,54,16
0.10000000000000142,2273,7,54,49
0.09999999999999432,2273,8,54,22
0.10000000000000853,2273,9,54,14
0.056818181818186986,2273,10,54,29
0.09999999999999432,2273,11,54,95
0.04772727272727195,2273,12,54,124
0.025000000000005684,2273,13,54,127
0.045454545454546746,2273,14,54,127
0.024999999999991473,2273,15,54,127
0.04772727272727195,2274,0,54,127
0.045454545454546746,2274,1,54,127
0.02727272727273089,2274,2,54,106
0.10000000000000853,2274,3,54,21
0.10000000000000853,2274,4,54,96
0.04772727272727195,2274,5,54,119
0.045454545454546746,2274,6,54,125
0.025000000000005684,2274,7,54,117
0.04772727272727195,2274,8,54,127
0.025000000000005684,2274,9,54,127
0.04772727272727195,2274,10,54,127
0.045454545454546746,2274,11,54,127
0.024999999999991473,2274,12,54,127
0.04772727272727195,2274,13,54,127
0.025000000000005684,2274,14,54,127
0.045454545454532536,2274,15,54,127
0.02727272727273089,2275,0,54,120
0.025000000000005684,2275,1,54,50
0.09999999999999432,2275,2,54,19
0.10000000000000853,2275,3,54,45
0.09999999999999432,2275,4,54,21
0.10000000000000853,2275,5,54,20
0.10000000000000853,2275,6,54,60
0.045454545454546746,2275,7,54,92
0.02727272727273089,2275,8,54,119
0.045454545454546746,2275,9,54,122
0.024999999999991473,2275,10,54,125
0.04772727272727195,2275,11,54,123
0.045454545454546746,2275,12,54,127
0.025000000000005684,2275,13,54,125
0.04772727272727195,2275,14,54,102
0.10000000000000853,2275,15,54,21
0.09999999999999432,2276,0,54,92
0.025000000000005684,2276,1,54,115
0.045454545454546746,2276,2,54,111
0.02727272727273089,2276,3,54,109
0.045454545454546746,2276,4,54,120
0.04772727272727195,2276,5,54,127
0.025000000000005684,2276,6,54,127
0.045454545454546746,2276,7,54,127
0.02727272727273089,2276,8,54,127
0.045454545454546746,2276,9,54,127
0.04772727272727195,2276,10,54,127
0.025000000000005684,2276,11,54,127
0.045454545454546746,2276,12,54,119
0.09999999999999432,2276,13,54,99
0.10000000000000853,2276,14,54,20
0.10000000000000853,2276,15,54,40
0.10000000000000853,2277,0,54,20
0.10000000000000853,2277,1,54,60
0.09999999999999432,2277,2,54,72
0.10000000000000853,2277,3,54,14
0.013636363636365445,2277,4,54,53
0.04772727272727195,2277,5,54,80
0.04772727272728616,2277,6,54,106
0.025000000000005684,2277,7,54,124
0.045454545454546746,2277,8,54,127
0.04772727272727195,2277,9,54,127
0.024999999999991473,2277,10,54,127
0.045454545454546746,2277,11,54,127
0.02727272727273089,2277,12,54,118
0.056818181818172775,2277,13,54,78
0.09999999999999432,2277,14,54,17
0.04772727272727195,2277,15,54,38
0.045454545454546746,2278,0,54,64
0.025000000000005684,2278,1,54,106
0.04772727272727195,2278,2,54,125
0.045454545454546746,2278,3,54,127
0.02727272727271668,2278,4,54,127
0.045454545454546746,2278,5,54,127
0.025000000000005684,2278,6,54,127
0.04772727272727195,2278,7,54,127
0.025000000000005684,2278,8,54,127
0.045454545454546746,2278,9,54,127
0.04772727272727195,2278,10,54,127
0.024999999999991473,2278,11,54,127
0.04772727272727195,2278,12,54,127
0.025000000000005684,2278,13,54,103
0.09999999999999432,2278,14,54,16
0.09999999999999432,2278,15,54,52
0.10000000000000853,2279,0,54,11
0.10000000000000853,2279,1,54,21
0.09999999999999432,2279,2,54,16
0.09999999999999432,2279,3,54,70
0.03636363636363171,2279,4,54,35
0.024999999999991473,2279,5,54,74
0.04772727272727195,2279,6,54,102
0.045454545454546746,2279,7,54,124
0.024999999999991473,2279,8,54,127
0.04772727272727195,2279,9,54,127
0.045454545454546746,2279,10,54,127
0.02727272727273089,2279,11,54,127
0.045454545454532536,2279,12,54,127
0.025000000000005684,2279,13,54,89
0.10000000000000853,2279,14,54,11
0.06818181818182723,2279,15,54,22
0.01590909090910486,2280,0,54,44
0.045454545454546746,2280,1,54,75
0.04772727272727195,2280,2,54,104
0.025000000000005684,2280,3,54,121
0.04772727272728616,2280,4,54,127
0.025000000000005684,2280,5,54,127
0.045454545454546746,2280,6,54,127
0.04772727272727195,2280,7,54,127
0.025000000000005684,2280,8,54,127
0.04772727272727195,2280,9,54,127
0.025000000000005684,2280,10,54,127
0.045454545454532536,2280,11,54,127
0.025000000000005684,2280,12,54,127
0.04772727272727195,2280,13,54,127
0.045454545454546746,2280,14,54,103
0.09999999999999432,2280,15,54,12
0.10000000000000853,2281,0,54,70
0.09999999999999432,2281,1,54,9
0.10000000000000853,2281,2,54,9
0.09999999999999432,2281,3,54,28
0.09999999999999432,2281,4,54,86
0.09999999999999432,2281,5,54,70
0.06818181818181301,2281,6,54,70
0.03636363636363171,2281,7,54,71
0.10000000000002274,2281,8,54,13
0.10000000000002274,2281,9,54,104
0.025000000000005684,2281,10,54,119
0.04545454545456096,2281,11,54,126
0.02727272727273089,2281,12,54,127
0.045454545454532536,2281,13,54,127
0.04772727272728616,2281,14,54,127
0.024999999999977263,2281,15,54,113
0.10000000000002274,2282,0,54,15
0.10000000000002274,2282,1,54,90
0.04545454545456096,2282,2,54,112
0.04772727272725774,2282,3,54,124
0.025000000000005684,2282,4,54,125
0.04772727272728616,2282,5,54,127
0.025000000000005684,2282,6,54,125
0.04545454545456096,2282,7,54,127
0.004545454545450411,2282,8,54,109
0.04772727272725774,2282,9,54,103
0.045454545454532536,2282,10,54,101
0.04772727272728616,2282,11,54,103
0.024999999999977263,2282,12,54,104
0.04545454545456096,2282,13,54,83
0.09999999999999432,2282,14,54,20
0.09999999999999432,2282,15,54,27
0.10000000000002274,2283,0,54,23
0.09999999999999432,2283,1,54,35
0.04772727272725774,2283,2,54,49
0.045454545454532536,2283,3,54,71
0.02727272727273089,2283,4,54,86
0.045454545454532536,2283,5,54,95
0.025000000000005684,2283,6,54,97
0.04772727272725774,2283,7,54,100
0.025000000000005684,2283,8,54,101
0.045454545454532536,2283,9,54,101
0.04772727272725774,2283,10,54,90
0.09999999999999432,2283,11,54,24
0.02727272727270247,2283,12,54,49
0.04545454545456096,2283,13,54,73
0.025000000000005684,2283,14,54,93
0.04772727272728616,2283,15,54,101
0.025000000000005684,2284,0,54,97
0.045454545454532536,2284,1,54,100
0.04772727272728616,2284,2,54,94
0.024999999999977263,2284,3,54,64
0.025000000000005684,2284,4,54,90
0.04772727272725774,2284,5,54,103
0.04545454545456096,2284,6,54,109
0.02727272727273089,2284,7,54,106
0.045454545454532536,2284,8,54,107
0.04772727272728616,2284,9,54,110
0.024999999999977263,2284,10,54,67
0.09999999999999432,2284,11,54,17
0.09999999999999432,2284,12,54,16
0.09999999999999432,2284,13,54,18
0.09999999999999432,2284,14,54,47
0.10000000000000009,2284,15,101,33
0.09999999999999964,2285,0,101,23
0.02499999999999991,2285,1,101,29
0.027272727272727337,2285,2,101,71
0.09999999999999964,2285,3,101,79
0.10000000000000009,2285,4,101,32
0.10000000000000009,2285,5,101,127
0.09999999999999964,2285,6,101,9
0.10000000000000009,2285,7,101,79
0.09999999999999964,2285,8,101,127
0.09999999999999964,2285,9,101,10
0.10000000000000053,2285,10,101,127
0.09999999999999964,2285,11,101,83
0.09999999999999964,2285,12,101,7
0.10000000000000053,2285,13,101,127
0.10000000000000053,2285,14,101,9
0.09999999999999964,2285,15,101,78
0.09999999999999964,2286,0,101,127
0.09999999999999964,2286,1,101,10
0.09999999999999964,2286,2,101,127
0.10000000000000053,2286,3,101,84
0.10000000000000053,2286,4,101,6
0.09999999999999964,2286,5,101,127
0.09999999999999964,2286,6,101,10
0.09999999999999964,2286,7,101,85
0.10000000000000142,2286,8,101,127
0.10000000000000142,2286,9,101,9
0.09999999999999964,2286,10,101,127
0.09999999999999964,2286,11,101,91
0.09999999999999964,2286,12,101,5
0.09999999999999964,2286,13,101,127
0.09999999999999964,2286,14,101,10
0.10000000000000142,2286,15,101,106
0.09999999999999964,2287,0,101,127
0.10000000000000142,2287,1,101,10
0.09999999999999964,2287,2,101,127
0.09999999999999964,2287,3,101,110
0.09999999999999964,2287,4,101,6
0.09999999999999964,2287,5,101,127
0.09999999999999964,2287,6,101,9
0.09999999999999964,2287,7,101,88
0.10000000000000142,2287,8,101,127
0.09999999999999964,2287,9,101,9
0.09999999999999964,2287,10,101,127
0.09999999999999964,2287,11,101,98
0.09999999999999964,2287,12,101,6
0.09999999999999964,2287,13,101,127
0.09999999999999964,2287,14,101,9
0.10000000000000142,2287,15,101,104
0.10000000000000142,2288,0,101,127
0.10000000000000142,2288,1,101,9
0.10000000000000142,2288,2,101,127
0.10000000000000142,2288,3,101,100
0.10000000000000142,2288,4,101,6
0.09999999999999787,2288,5,101,127
0.09999999999999787,2288,6,101,9
0.09999999999999787,2288,7,101,88
0.09999999999999787,2288,8,101,127
0.10000000000000142,2288,9,101,10
0.10000000000000142,2288,10,101,127
0.10000000000000142,2288,11,101,92
0.10000000000000142,2288,12,101,7
0.10000000000000142,2288,13,101,127
0.10000000000000142,2288,14,101,8
0.09999999999999787,2288,15,101,106
0.09999999999999787,2289,0,101,127
0.09999999999999787,2289,1,101,9
0.09999999999999787,2289,2,101,127
0.09999999999999787,2289,3,101,102
0.10000000000000142,2289,4,101,6
0.10000000000000142,2289,5,101,127
0.10000000000000142,2289,6,101,9
0.09999999999999787,2289,7,101,90
0.09999999999999787,2289,8,101,127
0.09999999999999787,2289,9,101,9
0.09999999999999787,2289,10,101,127
0.09999999999999787,2289,11,101,98
0.09999999999999787,2289,12,101,6
0.10000000000000142,2289,13,101,127
0.10000000000000142,2289,14,101,9
0.10000000000000142,2289,15,101,127
0.10000000000000142,2290,0,101,10
0.10000000000000142,2290,1,101,92
0.10000000000000142,2290,2,101,127
0.10000000000000142,2290,3,101,10
0.10000000000000142,2290,4,101,127
0.10000000000000142,2290,5,101,80
0.10000000000000142,2290,6,101,10
0.09999999999999787,2290,7,101,11
0.10000000000000142,2290,8,101,17
0.09999999999999787,2290,9,101,127
0.09999999999999787,2290,10,101,4
0.10000000000000142,2290,11,101,9
0.10000000000000142,2290,12,101,80
0.09999999999999787,2290,13,101,6
0.10000000000000142,2290,14,101,127
0.10000000000000142,2290,15,101,4
0.10000000000000142,2291,0,101,6
0.09999999999999432,2291,1,101,127
0.10000000000000142,2291,2,101,83
0.09999999999999432,2291,3,101,5
0.09999999999999432,2291,4,101,7
0.10000000000000142,2291,5,101,127
0.10000000000000142,2291,6,101,4
0.09999999999999432,2291,7,101,4
0.10000000000000142,2291,8,101,84
0.10000000000000142,2291,9,101,10
0.10000000000000142,2291,10,101,127
0.10000000000000142,2291,11,101,78
0.10000000000000142,2291,12,101,7
0.10000000000000142,2291,13,101,9
0.10000000000000142,2291,14,101,127
0.10000000000000142,2291,15,101,76
0.10000000000000142,2292,0,101,85
0.10000000000000142,2292,1,101,7
0.09999999999999432,2292,2,101,6
0.10000000000000142,2292,3,101,7
0.10000000000000142,2292,4,101,127
0.10000000000000142,2292,5,101,5
0.10000000000000142,2292,6,101,11
0.10000000000000142,2292,7,101,80
0.09999999999999432,2292,8,101,6
0.10000000000000142,2292,9,101,127
0.10000000000000142,2292,10,101,81
0.10000000000000142,2292,11,101,7
0.10000000000000142,2292,12,101,7
0.10000000000000142,2292,13,101,127
0.10000000000000142,2292,14,101,81
0.10000000000000142,2292,15,101,4
0.10000000000000142,2293,0,101,5
0.10000000000000142,2293,1,101,6
0.10000000000000142,2293,2,101,127
0.10000000000000142,2293,3,101,6
0.10000000000000142,2293,4,101,11
0.09999999999999432,2293,5,101,77
0.10000000000000142,2293,6,101,5
0.10000000000000142,2293,7,101,127
0.10000000000000142,2293,8,101,75
0.10000000000000142,2293,9,101,5
0.10000000000000142,2293,10,101,17
0.10000000000000142,2293,11,101,122
0.09999999999999432,2293,12,101,74
0.10000000000000142,2293,13,101,81
0.09999999999999432,2293,14,101,9
0.10000000000000142,2293,15,101,10
0.10000000000000142,2294,0,101,13
0.10000000000000142,2294,1,101,127
0.10000000000000142,2294,2,101,5
0.10000000000000142,2294,3,101,11
0.10000000000000142,2294,4,101,85
0.10000000000000142,2294,5,101,7
0.10000000000000142,2294,6,101,127
0.10000000000000142,2294,7,101,10
0.10000000000000142,2294,8,101,11
0.09999999999999432,2294,9,101,127
0.10000000000000142,2294,10,101,83
0.10000000000000142,2294,11,101,4
0.10000000000000142,2294,12,101,4
0.10000000000000142,2294,13,101,8
0.10000000000000142,2294,14,101,127
0.10000000000000142,2294,15,101,5
0.09999999999999432,2295,0,101,51
0.10000000000000142,2295,1,101,9
0.09999999999999432,2295,2,101,127
0.10000000000000142,2295,3,101,84
0.09999999999999432,2295,4,101,7
0.10000000000000142,2295,5,101,10
0.10000000000000142,2295,6,101,127
0.10000000000000142,2295,7,101,78
0.09999999999999432,2295,8,101,84
0.10000000000000142,2295,9,101,8
0.10000000000000142,2295,10,101,5
0.10000000000000142,2295,11,101,7
0.09999999999999432,2295,12,101,110
0.10000000000000142,2295,13,101,127
0.10000000000000142,2295,14,101,103
0.10000000000000142,2295,15,101,127
0.10000000000000142,2296,0,101,77
0.10000000000000142,2296,1,101,9
0.10000000000000142,2296,2,101,7
0.10000000000000142,2296,3,101,127
0.09999999999999432,2296,4,101,89
0.10000000000000142,2296,5,101,92
0.10000000000000142,2296,6,101,6
0.10000000000000142,2296,7,101,7
0.10000000000000142,2296,8,101,4
0.10000000000000142,2296,9,101,127
0.10000000000000142,2296,10,101,74
0.09999999999999432,2296,11,101,6
0.10000000000000142,2296,12,101,4
0.10000000000000142,2296,13,101,93
0.10000000000000142,2296,14,101,127
0.09999999999999432,2296,15,101,67
0.10000000000000142,2297,0,101,8
0.10000000000000142,2297,1,101,6
0.10000000000000142,2297,2,101,127
0.10000000000000142,2297,3,101,79
0.10000000000000142,2297,4,101,92
0.10000000000000142,2297,5,101,7
0.10000000000000142,2297,6,101,4
0.10000000000000142,2297,7,101,127
0.10000000000000142,2297,8,101,82
0.10000000000000142,2297,9,101,5
0.10000000000000142,2297,10,101,4
0.09999999999999432,2297,11,101,99
0.10000000000000142,2297,12,101,5
0.09999999999999432,2297,13,101,127
0.10000000000000142,2297,14,101,74
0.10000000000000142,2297,15,101,7
0.10000000000000142,2298,0,101,4
0.10000000000000142,2298,1,101,127
0.10000000000000142,2298,2,101,82
0.10000000000000142,2298,3,101,92
0.10000000000000142,2298,4,101,7
0.09999999999999432,2298,5,101,3
0.10000000000000142,2298,6,101,127
0.10000000000000142,2298,7,101,75
0.10000000000000142,2298,8,101,5
0.10000000000000142,2298,9,101,3
0.10000000000000142,2298,10,101,95
0.10000000000000142,2298,11,101,127
0.10000000000000142,2298,12,101,98
0.10000000000000142,2298,13,101,6
0.10000000000000142,2298,14,101,4
0.09999999999999432,2298,15,101,127
0.10000000000000142,2299,0,101,71
0.09999999999999432,2299,1,101,101
0.09999999999999432,2299,2,101,6
0.10000000000000142,2299,3,101,4
0.10000000000000142,2299,4,101,127
0.09999999999999432,2299,5,101,92
0.10000000000000142,2299,6,101,6
0.09999999999999432,2299,7,101,3
0.10000000000000142,2299,8,101,105
0.09999999999999432,2299,9,101,5
0.10000000000000142,2299,10,101,127
0.10000000000000142,2299,11,101,90
0.09999999999999432,2299,12,101,2
0.10000000000000142,2299,13,101,5
0.10000000000000142,2299,14,101,127
0.10000000000000142,2299,15,101,66
0.09999999999999432,2300,0,101,70
0.10000000000000142,2300,1,101,2
0.10000000000000142,2300,2,101,3
0.09999999999999432,2300,3,101,127
0.10000000000000142,2300,4,101,63
0.09999999999999432,2300,5,101,3
0.10000000000000142,2300,6,101,3
0.10000000000000142,2300,7,101,63
0.10000000000000142,2300,8,101,127
0.09999999999999432,2300,9,101,74
0.10000000000000142,2300,10,101,2
0.09999999999999432,2300,11,101,4
0.10000000000000142,2300,12,101,127
0.09999999999999432,2300,13,101,63
0.10000000000000142,2300,14,101,65
0.09999999999999432,2300,15,101,2
0.10000000000000142,2301,0,101,4
0.10000000000000142,2301,1,101,127
0.10000000000000142,2301,2,101,77
0.10000000000000142,2301,3,101,2
0.10000000000000142,2301,4,101,3
0.09999999999999432,2301,5,101,72
0.09999999999999432,2301,6,101,127
0.09999999999999432,2301,7,101,73
0.09999999999999432,2301,8,101,3
0.10000000000000853,2301,9,101,4
0.09999999999999432,2301,10,101,127
0.09999999999999432,2301,11,101,80
0.10000000000000853,2301,12,101,69
0.09999999999999432,2301,13,101,1
0.10000000000000853,2301,14,101,4
0.10000000000000853,2301,15,101,127
0.09999999999999432,2302,0,101,71
0.09999999999999432,2302,1,101,7
0.10000000000000853,2302,2,101,1
0.10000000000000853,2302,3,101,7
0.09999999999999432,2302,4,101,5
0.10000000000000853,2302,5,101,38
0.09999999999999432,2302,6,101,2
0.10000000000000853,2302,7,101,127
0.09999999999999432,2302,8,101,69
0.10000000000000853,2302,9,101,127
0.10000000000000853,2302,10,101,1
0.09999999999999432,2302,11,101,1
0.09999999999999432,2302,12,101,127
0.09999999999999432,2302,13,101,69
0.09999999999999432,2302,14,101,1
0.09999999999999432,2302,15,101,1
0.10000000000000853,2303,0,101,127
0.10000000000000853,2303,1,101,68
0.10000000000000853,2303,2,101,1
0.09999999999999432,2303,3,101,1
0.10000000000000853,2303,4,101,69
0.09999999999999432,2303,5,101,127
0.09999999999999432,2303,6,101,67
0.10000000000000853,2303,7,101,1
0.09999999999999432,2303,8,101,2
0.10000000000000853,2303,9,101,127
0.09999999999999432,2303,10,101,68
0.09999999999999432,2303,11,101,1
0.10000000000000853,2303,12,101,1
0.10000000000000853,2303,13,101,2
0.09999999999999432,2303,14,101,127
0.10000000000000853,2303,15,101,1
0.09999999999999432,2304,0,101,2
0.10000000000000853,2304,1,101,72
0.09999999999999432,2304,2,101,127
0.09999999999999432,2304,3,101,62
0.10000000000000853,2304,4,101,1
0.09999999999999432,2304,5,101,1
0.09999999999999432,2304,6,101,127
0.09999999999999432,2304,7,101,65
0.09999999999999432,2304,8,101,1
0.10000000000000853,2304,9,101,2
0.09999999999999432,2304,10,101,127
0.09999999999999432,2304,11,101,66
0.09999999999999432,2304,12,101,1
0.10000000000000853,2304,13,101,72
0.09999999999999432,2304,14,101,127
0.10000000000000853,2304,15,101,2
0.10000000000000853,2305,0,101,1
0.09999999999999432,2305,1,101,127
0.09999999999999432,2305,2,101,70
0.09999999999999432,2305,3,101,1
0.09999999999999432,2305,4,101,3
0.09999999999999432,2305,5,101,127
0.09999999999999432,2305,6,101,62
0.09999999999999432,2305,7,101,2
0.10000000000000853,2305,8,101,3
0.09999999999999432,2305,9,101,69
0.09999999999999432,2305,10,101,2
0.10000000000000853,2305,11,101,127
0.09999999999999432,2305,12,101,71
0.09999999999999432,2305,13,101,2
0.09999999999999432,2305,14,101,3
0.09999999999999432,2305,15,101,127
0.10000000000000853,2306,0,101,67
0.10000000000000853,2306,1,101,2
0.09999999999999432,2306,2,101,2
0.09999999999999432,2306,3,101,2
0.10000000000000853,2306,4,101,127
0.09999999999999432,2306,5,101,1
0.09999999999999432,2306,6,101,70
0.09999999999999432,2306,7,101,127
0.10000000000000853,2306,8,101,71
0.09999999999999432,2306,9,101,2
0.09999999999999432,2306,10,101,2
0.10000000000000853,2306,11,101,127
0.10000000000000853,2306,12,101,67
0.10000000000000853,2306,13,101,2
0.10000000000000853,2306,14,101,1
0.09999999999999432,2306,15,101,1
0.10000000000000853,2307,0,101,127
0.10000000000000853,2307,1,101,67
0.09999999999999432,2307,2,101,1
0.09999999999999432,2307,3,101,1
0.09999999999999432,2307,4,101,69
0.10000000000000853,2307,5,101,127
0.10000000000000853,2307,6,101,69
0.10000000000000853,2307,7,101,1
0.09999999999999432,2307,8,101,2
0.09999999999999432,2307,9,101,127
0.09999999999999432,2307,10,101,57
0.09999999999999432,2307,11,101,1
0.09999999999999432,2307,12,101,1
0.09999999999999432,2307,13,101,2
0.10000000000000853,2307,14,101,127
0.10000000000000853,2307,15,101,65
0.10000000000000853,2308,0,101,1
0.09999999999999432,2308,1,101,2
0.09999999999999432,2308,2,101,68
0.09999999999999432,2308,3,101,127
0.09999999999999432,2308,4,101,68
0.10000000000000853,2308,5,101,1
0.09999999999999432,2308,6,101,2
0.10000000000000853,2308,7,101,127
0.09999999999999432,2308,8,101,69
0.09999999999999432,2308,9,101,2
0.10000000000000853,2308,10,101,2
0.10000000000000853,2308,11,101,3
0.09999999999999432,2308,12,101,67
0.01590909090909065,2308,13,101,56
0.025000000000005684,2308,14,101,67
0.024999999999991473,2308,15,101,76
0.024999999999991473,2309,0,101,127
0.09999999999999432,2309,1,101,127
0.10000000000000853,2309,2,101,127
0.10000000000000853,2309,3,101,127
0.09999999999999432,2309,4,101,127
0.10000000000000853,2309,5,101,75
0.09999999999999432,2309,6,101,127
0.09999999999999432,2309,7,101,13
0.09999999999999432,2309,8,101,127
0.10000000000000853,2309,9,101,60
0.09999999999999432,2309,10,101,65
0.10000000000000853,2309,11,101,8
0.09999999999999432,2309,12,101,3
0.09999999999999432,2309,13,101,127
0.09999999999999432,2309,14,101,46
0.10000000000000853,2309,15,101,4
0.09999999999999432,2310,0,101,6
0.09999999999999432,2310,1,101,71
0.10000000000000853,2310,2,101,127
0.09999999999999432,2310,3,101,54
0.10000000000000853,2310,4,101,7
0.10000000000000853,2310,5,101,2
0.09999999999999432,2310,6,101,127
0.09999999999999432,2310,7,101,57
0.09999999999999432,2310,8,101,64
0.09999999999999432,2310,9,101,6
0.10000000000000853,2310,10,101,2
0.10000000000000853,2310,11,101,127
0.09999999999999432,2310,12,101,57
0.09999999999999432,2310,13,101,4
0.09999999999999432,2310,14,101,5
0.09999999999999432,2310,15,101,67
0.10000000000000853,2311,0,101,127
0.10000000000000853,2311,1,101,52
0.09999999999999432,2311,2,101,5
0.09999999999999432,2311,3,101,1
0.10000000000000853,2311,4,101,127
0.09999999999999432,2311,5,101,61
0.10000000000000853,2311,6,101,62
0.09999999999999432,2311,7,101,6
0.09999999999999432,2311,8,101,2
0.09999999999999432,2311,9,101,127
0.10000000000000853,2311,10,101,53
0.09999999999999432,2311,11,101,3
0.10000000000000853,2311,12,101,5
0.09999999999999432,2311,13,101,67
0.10000000000000853,2311,14,101,127
0.09999999999999432,2311,15,101,67
0.09999999999999432,2312,0,101,5
0.09999999999999432,2312,1,101,1
0.10000000000000853,2312,2,101,127
0.09999999999999432,2312,3,101,52
0.09999999999999432,2312,4,101,64
0.09999999999999432,2312,5,101,7
0.09999999999999432,2312,6,101,2
0.10000000000000853,2312,7,101,127
0.10000000000000853,2312,8,101,55
0.09999999999999432,2312,9,101,4
0.09999999999999432,2312,10,101,4
0.09999999999999432,2312,11,101,69
0.09999999999999432,2312,12,101,127
0.10000000000000853,2312,13,101,62
0.09999999999999432,2312,14,101,4
0.09999999999999432,2312,15,101,1
0.10000000000000853,2313,0,101,127
0.09999999999999432,2313,1,101,63
0.09999999999999432,2313,2,101,58
0.09999999999999432,2313,3,101,3
0.10000000000000853,2313,4,101,5
0.10000000000000853,2313,5,101,1
0.10000000000000853,2313,6,101,120
0.09999999999999432,2313,7,101,45
0.09999999999999432,2313,8,101,8
0.09999999999999432,2313,9,101,10
0.10000000000000853,2313,10,101,98
0.09999999999999432,2313,11,101,127
0.10000000000000853,2313,12,101,80
0.10000000000000853,2313,13,101,8
0.09999999999999432,2313,14,101,12
0.10000000000000853,2313,15,101,127
0.10000000000000853,2314,0,101,80
0.09999999999999432,2314,1,101,100
0.09999999999999432,2314,2,101,1
0.09999999999999432,2314,3,101,10
0.09999999999999432,2314,4,101,127
0.10000000000000853,2314,5,101,9
0.09999999999999432,2314,6,101,11
0.10000000000000853,2314,7,101,90
0.09999999999999432,2314,8,101,127
0.09999999999999432,2314,9,101,75
0.09999999999999432,2314,10,101,10
0.09999999999999432,2314,11,101,13
0.09999999999999432,2314,12,101,127
0.10000000000000853,2314,13,101,77
0.09999999999999432,2314,14,101,86
0.09999999999999432,2314,15,101,11
0.10000000000000853,2315,0,101,10
0.09999999999999432,2315,1,101,127
0.10000000000000853,2315,2,101,9
0.09999999999999432,2315,3,101,11
0.09999999999999432,2315,4,101,93
0.10000000000000853,2315,5,101,127
0.09999999999999432,2315,6,101,58
0.09999999999999432,2315,7,101,10
0.10000000000000853,2315,8,101,12
0.09999999999999432,2315,9,101,127
0.09999999999999432,2315,10,101,76
0.09999999999999432,2315,11,101,93
0.09999999999999432,2315,12,101,11
0.10000000000000853,2315,13,101,13
0.09999999999999432,2315,14,101,9
0.04772727272725774,2315,15,101,10
0.004545454545450411,2316,0,101,15
0.04545454545456096,2316,1,101,15
0.09999999999999432,2316,2,101,77
0.09999999999999432,2316,3,101,83
0.09999999999999432,2316,4,101,82
0.09999999999999432,2316,5,101,68
0.09999999999999432,2316,6,101,81
0.09999999999999432,2316,7,101,79
0.10000000000002274,2316,8,101,127
0.09999999999999432,2316,9,101,84
0.09999999999999432,2316,10,101,127
0.09999999999999432,2316,11,101,20
0.09999999999999432,2316,12,101,127
0.09999999999999432,2316,13,101,70
0.09999999999999432,2316,14,101,84
0.09999999999999432,2316,15,101,15
0.09999999999999432,2317,0,101,7
0.09999999999999432,2317,1,101,127
0.09999999999999432,2317,2,101,63
0.10000000000002274,2317,3,101,11
0.10000000000002274,2317,4,101,9
0.09999999999999432,2317,5,101,82
0.09999999999999432,2317,6,101,3
0.10000000000002274,2317,7,101,127
0.09999999999999432,2317,8,101,81
0.09999999999999432,2317,9,101,12
0.09999999999999432,2317,10,101,3
0.09999999999999432,2317,11,101,127
0.09999999999999432,2317,12,101,65
0.09999999999999432,2317,13,101,71
0.09999999999999432,2317,14,101,3
0.09999999999999432,2317,15,101,12
0.09999999999999432,2318,0,101,7
0.09999999999999432,2318,1,101,127
0.10000000000002274,2318,2,101,64
0.09999999999999432,2318,3,101,10
0.09999999999999432,2318,4,101,9
0.09999999999999432,2318,5,101,79
0.09999999999999432,2318,6,101,3
0.10000000000002274,2318,7,101,127
0.10000000000002274,2318,8,101,76
0.09999999999999432,2318,9,101,12
0.09999999999999432,2318,10,101,3
0.10000000000002274,2318,11,101,127
0.09999999999999432,2318,12,101,84
0.09999999999999432,2318,13,101,71
0.09999999999999432,2318,14,101,3
0.09999999999999432,2318,15,101,12
0.09999999999999432,2319,0,101,7
0.09999999999999432,2319,1,101,127
0.10000000000002274,2319,2,101,63
0.09999999999999432,2319,3,101,11
0.09999999999999432,2319,4,101,10
0.09999999999999432,2319,5,101,36
0.10000000000002274,2319,6,101,3
0.09999999999999432,2319,7,101,127
0.10000000000002274,2319,8,101,72
0.10000000000002274,2319,9,101,12
0.09999999999999432,2319,10,101,3
0.10000000000002274,2319,11,101,127
0.09999999999999432,2319,12,101,80
0.09999999999999432,2319,13,101,69
0.09999999999999432,2319,14,101,3
0.10000000000002274,2319,15,101,13
0.09999999999999432,2320,0,101,8
0.09999999999999432,2320,1,101,127
0.09999999999999432,2320,2,101,11
0.09999999999999432,2320,3,101,9
0.09999999999999432,2320,4,101,86
0.10000000000002274,2320,5,101,3
0.09999999999999432,2320,6,101,127
0.09999999999999432,2320,7,101,74
0.09999999999999432,2320,8,101,12
0.10000000000002274,2320,9,101,3
0.09999999999999432,2320,10,101,127
0.10000000000002274,2320,11,101,76
0.09999999999999432,2320,12,101,68
0.10000000000002274,2320,13,101,12
0.09999999999999432,2320,14,101,8
0.09999999999999432,2320,15,101,127
0.09999999999999432,2321,0,101,12
0.09999999999999432,2321,1,101,9
0.09999999999999432,2321,2,101,96
0.09999999999999432,2321,3,101,3
0.09999999999999432,2321,4,101,127
0.09999999999999432,2321,5,101,68
0.09999999999999432,2321,6,101,12
0.10000000000002274,2321,7,101,3
0.09999999999999432,2321,8,101,127
0.09999999999999432,2321,9,101,74
0.09999999999999432,2321,10,101,80
0.09999999999999432,2321,11,101,2
0.10000000000002274,2321,12,101,13
0.10000000000002274,2321,13,101,7
0.09999999999999432,2321,14,101,127
0.10000000000002274,2321,15,101,10
0.09999999999999432,2322,0,101,9
0.10000000000002274,2322,1,101,85
0.09999999999999432,2322,2,101,3
0.09999999999999432,2322,3,101,127
0.09999999999999432,2322,4,101,50
0.09999999999999432,2322,5,101,12
0.09999999999999432,2322,6,101,3
0.09999999999999432,2322,7,101,127
0.09999999999999432,2322,8,101,65
0.09999999999999432,2322,9,101,75
0.10000000000002274,2322,10,101,3
0.09999999999999432,2322,11,101,13
0.09999999999999432,2322,12,101,7
0.09999999999999432,2322,13,101,127
0.09999999999999432,2322,14,101,64
0.10000000000002274,2322,15,101,10
0.10000000000002274,2323,0,101,10
0.09999999999999432,2323,1,101,82
0.10000000000002274,2323,2,101,127
0.09999999999999432,2323,3,101,84
0.09999999999999432,2323,4,101,12
0.09999999999999432,2323,5,101,3
0.09999999999999432,2323,6,101,127
0.09999999999999432,2323,7,101,65
0.09999999999999432,2323,8,101,74
0.10000000000002274,2323,9,101,3
0.09999999999999432,2323,10,101,13
0.09999999999999432,2323,11,101,8
0.10000000000000053,2323,12,67,1
0.09999999999999964,2323,13,67,1
0.09999999999999964,2323,14,67,4
0.09999999999999964,2323,15,67,2
0.09999999999999964,2324,0,67,4
0.09999999999999787,2324,1,67,1
0.10000000000000142,2324,2,67,1
0.09999999999999787,2324,3,67,9
0.10000000000000142,2324,4,67,1
0.09999999999999787,2324,5,67,13
0.10000000000000142,2324,6,67,1
0.10000000000000142,2324,7,67,1
0.10000000000000142,2324,8,67,1
0.10000000000000142,2324,9,67,1
0.10000000000000142,2324,10,67,1
0.10000000000000142,2324,11,67,1
0.10000000000000142,2324,12,67,4
0.10000000000000142,2324,13,67,3
0.09999999999999432,2324,14,67,2
0.10000000000000142,2324,15,67,3
0.09999999999999432,2325,0,67,4
0.10000000000000142,2325,1,67,3
0.10000000000000142,2325,2,67,2
0.10000000000000142,2325,3,67,2
0.09999999999999432,2325,4,67,2
0.10000000000000142,2325,5,67,3
0.10000000000000142,2325,6,67,6
0.10000000000000142,2325,7,67,6
0.09999999999999432,2325,8,67,3
0.09999999999999432,2325,9,67,4
0.10000000000000142,2325,10,67,4
0.10000000000000142,2325,11,67,2
0.10000000000000142,2325,12,67,1
0.09999999999999432,2325,13,67,2
0.10000000000000142,2325,14,67,1
0.10000000000000142,2325,15,67,1
0.10000000000000142,2326,0,67,4
0.10000000000000142,2326,1,67,3
0.10000000000000142,2326,2,67,2
0.10000000000000142,2326,3,67,2
0.09999999999999432,2326,4,67,4
0.10000000000000142,2326,5,67,3
0.10000000000000142,2326,6,67,2
0.10000000000000142,2326,7,67,1
0.10000000000000142,2326,8,67,3
0.10000000000000142,2326,9,67,7
0.10000000000000142,2326,10,67,1
0.10000000000000142,2326,11,67,2
0.10000000000000142,2326,12,67,3
0.10000000000000142,2326,13,67,2
0.10000000000000142,2326,14,67,1
0.10000000000000142,2326,15,67,8
0.10000000000000142,2327,0,67,7
0.10000000000000142,2327,1,67,5
0.10000000000000142,2327,2,67,3
0.09999999999999432,2327,3,67,9
0.10000000000000142,2327,4,67,1
0.09999999999999432,2327,5,67,2
0.10000000000000142,2327,6,67,13
0.09999999999999432,2327,7,67,2
0.10000000000000142,2327,8,67,8
0.10000000000000142,2327,9,67,1
0.10000000000000142,2327,10,67,1
0.09999999999999432,2327,11,67,1
0.10000000000000142,2327,12,67,8
0.10000000000000142,2327,13,67,1
0.09999999999999432,2327,14,67,4
0.09999999999999432,2327,15,67,1
0.10000000000000142,2328,0,67,1
0.10000000000000142,2328,1,67,7
0.10000000000000142,2328,2,67,1
0.10000000000000142,2328,3,67,1
0.10000000000000142,2328,4,67,1
0.09999999999999432,2328,5,67,15
0.10000000000000853,2328,6,67,2
0.09999999999999432,2328,7,67,8
0.09999999999999432,2328,8,67,1
0.09999999999999432,2328,9,67,1
0.09999999999999432,2328,10,67,2
0.09999999999999432,2328,11,67,11
0.09999999999999432,2328,12,67,2
0.10000000000000853,2328,13,67,5
0.09999999999999432,2328,14,67,1
0.09999999999999432,2328,15,67,9
0.09999999999999432,2329,0,67,2
0.09999999999999432,2329,1,67,12
0.09999999999999432,2329,2,67,2
0.09999999999999432,2329,3,67,2
0.09999999999999432,2329,4,67,6
0.09999999999999432,2329,5,67,3
0.10000000000000853,2329,6,67,12
0.09999999999999432,2329,7,67,2
0.10000000000000853,2329,8,67,9
0.09999999999999432,2329,9,67,2
0.09999999999999432,2329,10,67,15
0.09999999999999432,2329,11,67,1
0.10000000000000853,2329,12,67,6
0.09999999999999432,2329,13,67,1
0.09999999999999432,2329,14,67,1
0.09999999999999432,2329,15,67,9
0.09999999999999432,2330,0,67,4
0.10000000000000853,2330,1,67,2
0.10000000000000853,2330,2,67,7
0.09999999999999432,2330,3,67,2
0.10000000000000853,2330,4,67,11
0.09999999999999432,2330,5,67,1
0.09999999999999432,2330,6,67,5
0.10000000000000853,2330,7,67,1
0.10000000000000853,2330,8,67,10
0.09999999999999432,2330,9,67,7
0.09999999999999432,2330,10,67,3
0.10000000000000853,2330,11,67,1
0.10000000000000853,2330,12,67,1
0.09999999999999432,2330,13,67,5
0.09999999999999432,2330,14,67,1
0.09999999999999432,2330,15,67,2
0.10000000000000853,2331,0,67,9
0.10000000000000853,2331,1,67,3
0.09999999999999432,2331,2,67,7
0.09999999999999432,2331,3,67,1
0.10000000000000853,2331,4,67,1
0.09999999999999432,2331,5,67,1
0.09999999999999432,2331,6,67,10
0.10000000000000853,2331,7,67,3
0.09999999999999432,2331,8,67,3
0.10000000000000853,2331,9,67,1
0.09999999999999432,2331,10,67,1
0.10000000000000853,2331,11,67,1
0.09999999999999432,2331,12,67,8
0.09999999999999432,2331,13,67,1
0.10000000000000853,2331,14,67,1
0.09999999999999432,2331,15,67,1
0.10000000000000853,2332,0,67,15
0.10000000000000853,2332,1,67,2
0.09999999999999432,2332,2,67,7
0.09999999999999432,2332,3,67,1
0.10000000000000853,2332,4,67,1
0.10000000000000853,2332,5,67,1
0.09999999999999432,2332,6,67,5
0.09999999999999432,2332,7,67,1
0.10000000000000853,2332,8,67,3
0.10000000000000853,2332,9,67,2
0.09999999999999432,2332,10,67,8
0.09999999999999432,2332,11,67,1
0.09999999999999432,2332,12,67,2
0.09999999999999432,2332,13,67,17
0.10000000000000853,2332,14,67,2
0.10000000000000853,2332,15,67,7
0.10000000000000853,2333,0,67,1
0.09999999999999432,2333,1,67,1
0.09999999999999432,2333,2,67,1
0.09999999999999432,2333,3,67,9
0.09999999999999432,2333,4,67,1
0.10000000000000853,2333,5,67,4
0.09999999999999432,2333,6,67,1
0.09999999999999432,2333,7,67,8
0.09999999999999432,2333,8,67,2
0.09999999999999432,2333,9,67,14
0.09999999999999432,2333,10,67,2
0.09999999999999432,2333,11,67,7
0.10000000000000853,2333,12,67,1
0.09999999999999432,2333,13,67,1
0.10000000000000853,2333,14,67,9
0.09999999999999432,2333,15,67,2
0.10000000000000853,2334,0,67,5
0.09999999999999432,2334,1,67,1
0.09999999999999432,2334,2,67,1
0.10000000000000853,2334,3,67,8
0.10000000000000853,2334,4,67,1
0.09999999999999432,2334,5,67,1
0.10000000000000853,2334,6,67,15
0.09999999999999432,2334,7,67,1
0.10000000000000853,2334,8,67,6
0.10000000000000853,2334,9,67,1
0.09999999999999432,2334,10,67,1
0.09999999999999432,2334,11,67,1
0.09999999999999432,2334,12,67,9
0.10000000000000853,2334,13,67,1
0.09999999999999432,2334,14,67,4
0.09999999999999432,2334,15,67,1
0.09999999999999432,2335,0,67,1
0.09999999999999432,2335,1,67,1
0.10000000000000853,2335,2,67,8
0.10000000000000853,2335,3,67,1
0.09999999999999432,2335,4,67,2
0.09999999999999432,2335,5,67,1
0.09999999999999432,2335,6,67,15
0.09999999999999432,2335,7,67,1
0.09999999999999432,2335,8,67,7
0.09999999999999432,2335,9,67,1
0.10000000000000853,2335,10,67,1
0.10000000000000853,2335,11,67,11
0.10000000000000853,2335,12,67,2
0.09999999999999432,2335,13,67,4
0.09999999999999432,2335,14,67,1
0.10000000000000853,2335,15,67,1
0.10000000000000853,2336,0,67,1
0.09999999999999432,2336,1,67,7
0.09999999999999432,2336,2,67,2
0.09999999999999432,2336,3,67,1
0.09999999999999964,2336,4,58,87
0.10000000000000009,2336,5,58,58
0.10000000000000009,2336,6,58,48
0.09999999999999964,2336,7,58,32
0.10000000000000009,2336,8,58,1
0.09999999999999964,2336,9,58,15
0.10000000000000053,2336,10,58,6
0.10000000000000053,2336,11,58,7
0.09999999999999964,2336,12,58,3
0.10000000000000053,2336,13,58,1
0.10000000000000053,2336,14,58,60
0.09999999999999964,2336,15,58,29
0.09999999999999964,2337,0,58,34
0.09999999999999964,2337,1,58,12
0.09999999999999964,2337,2,58,10
0.10000000000000053,2337,3,58,4
0.10000000000000053,2337,4,58,1
0.09999999999999964,2337,5,58,49
0.09999999999999964,2337,6,58,48
0.09999999999999964,2337,7,58,22
0.09999999999999964,2337,8,58,22
0.06818181818181834,2337,9,58,21
0.10000000000000142,2337,10,58,17
0.09999999999999964,2337,11,58,12
0.09999999999999964,2337,12,58,4
0.09999999999999964,2337,13,58,38
0.09999999999999964,2337,14,58,10
0.09999999999999964,2337,15,58,18
0.09999999999999964,2338,0,58,52
0.09999999999999964,2338,1,58,39
0.09999999999999964,2338,2,58,58
0.09999999999999964,2338,3,58,37
0.09999999999999964,2338,4,58,28
0.09999999999999964,2338,5,58,32
0.09999999999999964,2338,6,58,21
0.09999999999999964,2338,7,58,38
0.10000000000000142,2338,8,58,46
0.10000000000000142,2338,9,58,43
0.09999999999999964,2338,10,58,29
0.09999999999999964,2338,11,58,44
0.09999999999999964,2338,12,58,49
0.09999999999999964,2338,13,58,31
0.09999999999999964,2338,14,58,25
0.10000000000000142,2338,15,58,42
0.09999999999999964,2339,0,58,23
0.09999999999999964,2339,1,58,14
0.09999999999999964,2339,2,58,18
0.09999999999999964,2339,3,58,17
0.10000000000000142,2339,4,58,18
0.10000000000000142,2339,5,58,6
0.09999999999999964,2339,6,58,5
0.10000000000000142,2339,7,58,3
0.10000000000000142,2339,8,58,46
0.09999999999999964,2339,9,58,52
0.09999999999999964,2339,10,58,40
0.10000000000000142,2339,11,58,30
0.10000000000000142,2339,12,58,47
0.09999999999999787,2339,13,58,31
0.10000000000000142,2339,14,58,14
0.10000000000000142,2339,15,58,11
0.10000000000000142,2340,0,58,6
0.10000000000000142,2340,1,58,4
0.09999999999999787,2340,2,58,36
0.09999999999999787,2340,3,58,45
0.09999999999999787,2340,4,58,37
0.09999999999999787,2340,5,58,27
0.09999999999999787,2340,6,58,34
0.09999999999999787,2340,7,58,52
0.10000000000000142,2340,8,58,11
0.09999999999999787,2340,9,58,19
0.06590909090908781,2340,10,58,30
0.10000000000000142,2340,11,58,42
0.10000000000000142,2340,12,58,31
0.10000000000000142,2340,13,58,21
0.09999999999999787,2340,14,58,44
0.10000000000000142,2340,15,58,45
0.10000000000000142,2341,0,58,45
0.10000000000000142,2341,1,58,39
0.09999999999999787,2341,2,58,32
0.10000000000000142,2341,3,58,32
0.09999999999999787,2341,4,58,49
0.10000000000000142,2341,5,58,16
0.09999999999999787,2341,6,58,43
0.10000000000000142,2341,7,58,41
0.09999999999999787,2341,8,58,59
0.10000000000000142,2341,9,58,19
0.10000000000000142,2341,10,58,12
0.10000000000000142,2341,11,58,11
0.09999999999999787,2341,12,58,26
0.09999999999999787,2341,13,58,14
0.10000000000000142,2341,14,58,1
0.09999999999999787,2341,15,58,17
0.10000000000000142,2342,0,58,2
0.09999999999999787,2342,1,58,8
0.10000000000000142,2342,2,58,11
0.10000000000000142,2342,3,58,42
0.10000000000000142,2342,4,58,39
0.09999999999999787,2342,5,58,29
0.10000000000000142,2342,6,58,18
0.10000000000000142,2342,7,58,17
0.10000000000000142,2342,8,58,16
0.10000000000000142,2342,9,58,42
0.09999999999999787,2342,10,58,62
0.10000000000000142,2342,11,58,20
0.10000000000000142,2342,12,58,25
0.10000000000000142,2342,13,58,6
0.09999999999999787,2342,14,58,37
0.10000000000000142,2342,15,58,22
0.10000000000000142,2343,0,58,17
0.10000000000000142,2343,1,58,11
0.10000000000000142,2343,2,58,28
0.10000000000000142,2343,3,58,24
0.09999999999999432,2343,4,58,27
0.09999999999999432,2343,5,58,28
0.10000000000000142,2343,6,58,19
0.10000000000000142,2343,7,58,22
0.09999999999999432,2343,8,58,33
0.10000000000000142,2343,9,58,20
0.10000000000000142,2343,10,58,14
0.10000000000000142,2343,11,58,30
0.10000000000000142,2343,12,58,9
0.10000000000000142,2343,13,58,8
0.10000000000000142,2343,14,58,25
0.10000000000000142,2343,15,58,45
0.10000000000000142,2344,0,58,50
0.10000000000000142,2344,1,58,27
0.10000000000000142,2344,2,58,19
0.05909090909091219,2344,3,58,19
0.10000000000000142,2344,4,58,25
0.10000000000000142,2344,5,58,35
0.10000000000000142,2344,6,58,20
0.10000000000000142,2344,7,58,13
0.10000000000000142,2344,8,58,28
0.09999999999999432,2344,9,58,46
0.10000000000000142,2344,10,58,28
0.10000000000000142,2344,11,58,8
0.06590909090908781,2344,12,58,10
0.10000000000000142,2344,13,58,19
0.10000000000000142,2344,14,58,35
0.10000000000000142,2344,15,58,29
0.10000000000000142,2345,0,58,37
0.06818181818181301,2345,1,58,35
0.10000000000000142,2345,2,58,11
0.09999999999999432,2345,3,58,29
0.10000000000000142,2345,4,58,30
0.10000000000000142,2345,5,58,26
0.10000000000000142,2345,6,58,28
0.10000000000000142,2345,7,58,27
0.10000000000000142,2345,8,58,18
0.10000000000000142,2345,9,58,11
0.10000000000000142,2345,10,58,20
0.10000000000000142,2345,11,58,20
0.10000000000000142,2345,12,58,18
0.09999999999999432,2345,13,58,35
0.10000000000000142,2345,14,58,17
0.10000000000000142,2345,15,58,9
0.10000000000000142,2346,0,58,15
0.10000000000000142,2346,1,58,12
0.06818181818182012,2346,2,58,12
0.10000000000000142,2346,3,58,6
0.10000000000000142,2346,4,58,14
0.10000000000000142,2346,5,58,18
0.10000000000000142,2346,6,58,13
0.10000000000000142,2346,7,58,11
0.10000000000000142,2346,8,58,12
0.10000000000000142,2346,9,58,22
0.09999999999999432,2346,10,58,38
0.10000000000000142,2346,11,58,69
0.10000000000000142,2346,12,58,54
0.10000000000000142,2346,13,58,25
0.10000000000000142,2346,14,58,41
0.10000000000000142,2346,15,58,48
0.09999999999999432,2347,0,58,57
0.10000000000000142,2347,1,58,43
0.10000000000000142,2347,2,58,82
0.10000000000000142,2347,3,58,48
0.10000000000000142,2347,4,58,31
0.10000000000000142,2347,5,58,39
0.10000000000000142,2347,6,58,42
0.10000000000000142,2347,7,58,61
0.10000000000000142,2347,8,58,32
0.10000000000000142,2347,9,58,45
0.10000000000000142,2347,10,58,28
0.10000000000000142,2347,11,58,57
0.06818181818181301,2347,12,58,67
0.10000000000000142,2347,13,58,37
0.10000000000000142,2347,14,58,61
0.10000000000000142,2347,15,58,46
0.10000000000000142,2348,0,58,27
0.10000000000000142,2348,1,58,33
0.10000000000000142,2348,2,58,34
0.10000000000000142,2348,3,58,65
0.10000000000000142,2348,4,58,51
0.10000000000000142,2348,5,58,42
0.10000000000000142,2348,6,58,57
0.10000000000000142,2348,7,58,65
0.10000000000000142,2348,8,58,72
0.10000000000000142,2348,9,58,67
0.10000000000000142,2348,10,58,44
0.09999999999999432,2348,11,58,38
0.10000000000000142,2348,12,58,59
0.10000000000000142,2348,13,58,32
0.10000000000000142,2348,14,58,77
0.09999999999999432,2348,15,58,37
0.10000000000000142,2349,0,58,32
0.10000000000000142,2349,1,58,22
0.10000000000000142,2349,2,58,57
0.10000000000000142,2349,3,58,46
0.10000000000000142,2349,4,58,44
0.10000000000000142,2349,5,58,30
0.10000000000000142,2349,6,58,45
0.10000000000000142,2349,7,58,42
0.10000000000000142,2349,8,58,39
0.09999999999999432,2349,9,58,28
0.10000000000000142,2349,10,58,55
0.10000000000000142,2349,11,58,36
0.10000000000000142,2349,12,58,52
0.09999999999999432,2349,13,58,37
0.09999999999999432,2349,14,58,34
0.10000000000000142,2349,15,58,44
0.10000000000000142,2350,0,58,31
0.10000000000000142,2350,1,58,33
0.10000000000000142,2350,2,58,26
0.10000000000000142,2350,3,58,32
0.09999999999999432,2350,4,58,39
0.10000000000000853,2350,5,58,35
0.10000000000000853,2350,6,58,50
0.09999999999999432,2350,7,58,36
0.10000000000000853,2350,8,58,28
0.10000000000000853,2350,9,58,20
0.10000000000000853,2350,10,58,18
0.09999999999999432,2350,11,58,40
0.09999999999999432,2350,12,58,35
0.09999999999999432,2350,13,58,55
0.09999999999999432,2350,14,58,49
0.09999999999999432,2350,15,58,50
0.09999999999999432,2351,0,58,39
0.09999999999999432,2351,1,58,38
0.10000000000000853,2351,2,58,25
0.10000000000000853,2351,3,58,40
0.09999999999999432,2351,4,58,24
0.09999999999999432,2351,5,58,32
0.10000000000000853,2351,6,58,23
0.10000000000000853,2351,7,58,20
0.09999999999999432,2351,8,58,17
0.09999999999999432,2351,9,58,33
0.09999999999999432,2351,10,58,44
0.09999999999999432,2351,11,58,37
0.09999999999999432,2351,12,58,28
0.09999999999999432,2351,13,58,34
0.09999999999999432,2351,14,58,29
0.09999999999999432,2351,15,58,35
0.10000000000000853,2352,0,58,20
0.09999999999999432,2352,1,58,40
0.09999999999999432,2352,2,58,51
0.09999999999999432,2352,3,58,58
0.09999999999999432,2352,4,58,52
0.10000000000000853,2352,5,58,54
0.10000000000000853,2352,6,58,50
0.09999999999999432,2352,7,58,26
0.10000000000000853,2352,8,58,29
0.10000000000000853,2352,9,58,37
0.09999999999999432,2352,10,58,30
0.10000000000000853,2352,11,58,32
0.09999999999999432,2352,12,58,33
0.09999999999999432,2352,13,58,19
0.10000000000000853,2352,14,58,22
0.10000000000000853,2352,15,58,32
0.10000000000000853,2353,0,58,45
0.09999999999999432,2353,1,58,47
0.09999999999999432,2353,2,58,47
0.09999999999999432,2353,3,58,16
0.09999999999999432,2353,4,58,31
0.09999999999999432,2353,5,58,29
0.09999999999999432,2353,6,58,41
0.10000000000000853,2353,7,58,31
0.09999999999999432,2353,8,58,25
0.09999999999999432,2353,9,58,42
0.09999999999999432,2353,10,58,73
0.10000000000000853,2353,11,58,26
0.09999999999999432,2353,12,58,36
0.10000000000000853,2353,13,58,19
0.09999999999999432,2353,14,58,16
0.09999999999999432,2353,15,58,31
0.10000000000000853,2354,0,58,21
0.10000000000000853,2354,1,58,30
0.10000000000000853,2354,2,58,35
0.09999999999999432,2354,3,58,36
0.09999999999999432,2354,4,58,26
0.10000000000000853,2354,5,58,28
0.09999999999999432,2354,6,58,33
0.09999999999999432,2354,7,58,27
0.10000000000000853,2354,8,58,26
0.09999999999999432,2354,9,58,13
0.10000000000000853,2354,10,58,21
0.09999999999999432,2354,11,58,16
0.09999999999999432,2354,12,58,15
0.09999999999999432,2354,13,58,15
0.06818181818181301,2354,14,58,18
0.09999999999999432,2354,15,58,23
0.09999999999999432,2355,0,58,20
0.10000000000000853,2355,1,58,26
0.10000000000000853,2355,2,58,20
0.10000000000000853,2355,3,58,15
0.06818181818181301,2355,4,58,16
0.10000000000000853,2355,5,58,21
0.06818181818182723,2355,6,58,30
0.09999999999999432,2355,7,58,18
0.10000000000000853,2355,8,58,27
0.09999999999999432,2355,9,58,30
0.09999999999999432,2355,10,58,30
0.10000000000000853,2355,11,58,27
0.09999999999999432,2355,12,58,17
0.06818181818181301,2355,13,58,15
0.09999999999999432,2355,14,58,21
0.06818181818181301,2355,15,58,25
0.09999999999999432,2356,0,58,13
0.09999999999999432,2356,1,58,20
0.06818181818181301,2356,2,58,18
0.10000000000000853,2356,3,58,16
0.10000000000000853,2356,4,58,16
0.09999999999999432,2356,5,58,21
0.10000000000000853,2356,6,58,21
0.10000000000000853,2356,7,58,28
0.10000000000000853,2356,8,58,22
0.10000000000000853,2356,9,58,28
0.09999999999999432,2356,10,58,21
0.10000000000000853,2356,11,58,24
0.09999999999999432,2356,12,58,28
0.10000000000000853,2356,13,58,31
0.09999999999999432,2356,14,58,20
0.09999999999999432,2356,15,58,23
0.09999999999999432,2357,0,58,16
0.10000000000000853,2357,1,58,28
0.09999999999999432,2357,2,58,18
0.09999999999999432,2357,3,58,36
0.09999999999999432,2357,4,58,46
0.09999999999999432,2357,5,58,44
0.09999999999999432,2357,6,58,15
0.09999999999999432,2357,7,58,39
0.09999999999999432,2357,8,58,11
0.10000000000000853,2357,9,58,18
0.10000000000000853,2357,10,58,15
0.09999999999999432,2357,11,58,22
0.10000000000000853,2357,12,58,13
0.09999999999999432,2357,13,58,12
0.09999999999999432,2357,14,58,14
0.10000000000000853,2357,15,58,7
0.10000000000000853,2358,0,58,11
0.10000000000000853,2358,1,58,17
0.10000000000000853,2358,2,58,15
0.09999999999999432,2358,3,58,9
0.10000000000000853,2358,4,58,19
0.10000000000000853,2358,5,58,11
0.10000000000000853,2358,6,58,22
0.09999999999999432,2358,7,58,15
0.10000000000000853,2358,8,58,20
0.06818181818182723,2358,9,58,23
0.09999999999999432,2358,10,58,17
0.10000000000000853,2358,11,58,23
0.09999999999999432,2358,12,58,23
0.09999999999999432,2358,13,58,25
0.09999999999999432,2358,14,58,30
0.10000000000000853,2358,15,58,26
0.09999999999999432,2359,0,58,17
0.10000000000000853,2359,1,58,14
0.10000000000000853,2359,2,58,19
0.10000000000000853,2359,3,58,21
0.09999999999999432,2359,4,58,34
0.09999999999999432,2359,5,58,31
0.10000000000000853,2359,6,58,25
0.09999999999999432,2359,7,58,23
0.09999999999999432,2359,8,58,16
0.09999999999999432,2359,9,58,24
0.09999999999999432,2359,10,58,22
0.09999999999999432,2359,11,58,23
0.09999999999999432,2359,12,58,41
0.09999999999999432,2359,13,58,36
0.10000000000000853,2359,14,58,42
0.10000000000000853,2359,15,58,24
0.09999999999999432,2360,0,58,25
0.09999999999999432,2360,1,58,37
0.09999999999999432,2360,2,58,30
0.10000000000002274,2360,3,58,34
0.09999999999999432,2360,4,58,29
0.09999999999999432,2360,5,58,34
0.09999999999999432,2360,6,58,26
0.09999999999999432,2360,7,58,27
0.09999999999999432,2360,8,58,27
0.10000000000002274,2360,9,58,21
0.09999999999999432,2360,10,58,20
0.10000000000002274,2360,11,58,21
0.09999999999999432,2360,12,58,31
0.09999999999999432,2360,13,58,27
0.056818181818158564,2360,14,58,34
0.09999999999999432,2360,15,58,34
0.09999999999999432,2361,0,58,29
0.09999999999999432,2361,1,58,39
0.09999999999999432,2361,2,58,25
0.09999999999999432,2361,3,58,25
0.09999999999999432,2361,4,58,27
0.10000000000002274,2361,5,58,17
0.09999999999999432,2361,6,58,22
0.09999999999999432,2361,7,58,31
0.09999999999999432,2361,8,58,19
0.09999999999999432,2361,9,58,28
0.09999999999999432,2361,10,58,33
0.10000000000002274,2361,11,58,35
0.09999999999999432,2361,12,58,37
0.10000000000002274,2361,13,58,34
0.09999999999999432,2361,14,58,28
0.09999999999999432,2361,15,58,21
0.09999999999999432,2362,0,58,35
0.09999999999999432,2362,1,58,34
0.09999999999999432,2362,2,58,34
0.09999999999999432,2362,3,58,21
0.09999999999999432,2362,4,58,25
0.10000000000002274,2362,5,58,37
0.09999999999999432,2362,6,58,22
0.09999999999999432,2362,7,58,21
0.09999999999999432,2362,8,58,28
0.09999999999999432,2362,9,58,26
0.09999999999999432,2362,10,58,25
0.09999999999999432,2362,11,58,31
0.10000000000002274,2362,12,58,32
0.09999999999999432,2362,13,58,27
0.09999999999999432,2362,14,58,33
0.09999999999999432,2362,15,58,39
0.09999999999999432,2363,0,58,38
0.09999999999999432,2363,1,58,30
0.09999999999999432,2363,2,58,46
0.09999999999999432,2363,3,58,22
0.10000000000002274,2363,4,58,22
0.09999999999999432,2363,5,58,25
0.09999999999999432,2363,6,58,26
0.09999999999999432,2363,7,58,27
0.09999999999999432,2363,8,58,27
0.09999999999999432,2363,9,58,29
0.09999999999999432,2363,10,58,39
0.09999999999999432,2363,11,58,38
0.09999999999999432,2363,12,58,37
0.10000000000002274,2363,13,58,31
0.09999999999999432,2363,14,58,30
0.10000000000002274,2363,15,58,30
0.09999999999999432,2364,0,58,33
0.09999999999999432,2364,1,58,25
0.10000000000002274,2364,2,58,28
0.09999999999999432,2364,3,58,32
0.09999999999999432,2364,4,58,43
0.09999999999999432,2364,5,58,39
0.06818181818181301,2364,6,58,32
0.09999999999999432,2364,7,58,33
0.09999999999999432,2364,8,58,24
0.09999999999999432,2364,9,58,43
0.09999999999999432,2364,10,58,36
0.09999999999999432,2364,11,58,29
0.09999999999999432,2364,12,58,23
0.09999999999999432,2364,13,58,36
0.10000000000002274,2364,14,58,35
0.10000000000002274,2364,15,58,30
0.09999999999999432,2365,0,58,63
0.10000000000002274,2365,1,58,44
0.09999999999999432,2365,2,58,25
0.09999999999999432,2365,3,58,24
0.09999999999999432,2365,4,58,36
0.09999999999999432,2365,5,58,36
0.09999999999999432,2365,6,58,27
0.09999999999999432,2365,7,58,25
0.10000000000002274,2365,8,58,31
0.09999999999999432,2365,9,58,36
0.09999999999999432,2365,10,58,34
0.09999999999999432,2365,11,58,30
0.09999999999999432,2365,12,58,21
0.09999999999999432,2365,13,58,24
0.10000000000002274,2365,14,58,24
0.09999999999999432,2365,15,58,35
0.09999999999999432,2366,0,58,23
0.09999999999999432,2366,1,58,12
0.09999999999999432,2366,2,58,26
0.09999999999999432,2366,3,58,39
0.10000000000002274,2366,4,58,33
0.06818181818184144,2366,5,58,32
0.10000000000002274,2366,6,58,37
0.10000000000002274,2366,7,58,32
0.09999999999999432,2366,8,58,15
0.09999999999999787,2366,9,59,1
0.09999999999999787,2366,10,59,20
0.10000000000000142,2366,11,59,14
0.09999999999999432,2366,12,59,16
0.10000000000000142,2366,13,59,17
0.10000000000000142,2366,14,59,21
0.10000000000000142,2366,15,59,14
0.09999999999999432,2367,0,59,16
0.10000000000000142,2367,1,59,22
0.09999999999999432,2367,2,59,10
0.10000000000000142,2367,3,59,12
0.10000000000000142,2367,4,59,21
0.10000000000000142,2367,5,59,22
0.10000000000000853,2367,6,59,14
0.09999999999999432,2367,7,59,61
0.09999999999999432,2367,8,59,51
0.10000000000000853,2367,9,59,53
0.09999999999999432,2367,10,59,43
0.09999999999999432,2367,11,59,47
0.10000000000002274,2367,12,59,37
0.09999999999999432,2367,13,59,44
0.09999999999999432,2367,14,59,47
0.09999999999999432,2367,15,59,37
0.10000000000002274,2368,0,59,46
0.10000000000002274,2368,1,59,13
0.10000000000002274,2368,2,59,12
0.09999999999999432,2368,3,59,5
0.09999999999999432,2368,4,59,9
0.09999999999999432,2368,5,59,11
0.09999999999999432,2368,6,59,11
0.09999999999999432,2368,7,59,12
0.10000000000002274,2368,8,59,9
0.10000000000000009,2368,9,69,1
0.10000000000000009,2368,10,69,1
0.10000000000000009,2368,11,69,1
0.10000000000000009,2368,12,69,1
0.10000000000000009,2368,13,69,1
0.09999999999999964,2368,14,69,1
0.10000000000000053,2368,15,69,1
0.10000000000000053,2369,0,69,1
0.09999999999999964,2369,1,69,1
0.10000000000000053,2369,2,69,1
0.09999999999999964,2369,3,69,2
0.09999999999999964,2369,4,69,1
0.09999999999999964,2369,5,69,1
0.10000000000000053,2369,6,69,1
0.09999999999999964,2369,7,69,1
0.10000000000000053,2369,8,69,1
0.10000000000000053,2369,9,69,1
0.10000000000000053,2369,10,69,1
0.09999999999999964,2369,11,69,1
0.09999999999999964,2369,12,69,1
0.10000000000000053,2369,13,69,1
0.09999999999999964,2369,14,69,1
0.10000000000000053,2369,15,69,2
0.09999999999999964,2370,0,69,1
0.10000000000000053,2370,1,69,1
0.09999999999999964,2370,2,69,1
0.10000000000000142,2370,3,69,1
0.10000000000000142,2370,4,69,1
0.09999999999999964,2370,5,69,1
0.10000000000000142,2370,6,69,1
0.09999999999999964,2370,7,69,1
0.09999999999999964,2370,8,69,1
0.09999999999999964,2370,9,69,1
0.09999999999999964,2370,10,69,2
0.09999999999999964,2370,11,69,1
0.09999999999999964,2370,12,69,1
0.09999999999999964,2370,13,69,1
0.09999999999999964,2370,14,69,1
0.09999999999999964,2370,15,69,1
0.10000000000000142,2371,0,69,1
0.09999999999999964,2371,1,69,1
0.09999999999999964,2371,2,69,1
0.09999999999999964,2371,3,69,1
0.09999999999999964,2371,4,69,1
0.09999999999999964,2371,5,69,1
0.09999999999999964,2371,6,69,1
0.09999999999999964,2371,7,69,1
0.09999999999999964,2371,8,69,2
0.09999999999999964,2371,9,69,1
0.09999999999999964,2371,10,69,1
0.10000000000000142,2371,11,69,1
0.09999999999999964,2371,12,69,1
0.09999999999999964,2371,13,69,1
0.10000000000000142,2371,14,69,1
0.09999999999999964,2371,15,69,1
0.09999999999999964,2372,0,69,1
0.09999999999999964,2372,1,69,1
0.09999999999999964,2372,2,69,1
0.09999999999999964,2372,3,69,1
0.09999999999999964,2372,4,69,2
0.09999999999999964,2372,5,69,1
0.10000000000000142,2372,6,69,1
0.09999999999999964,2372,7,69,1
0.09999999999999964,2372,8,69,1
0.09999999999999787,2372,9,69,1
0.10000000000000142,2372,10,69,1
0.09999999999999787,2372,11,69,1
0.10000000000000142,2372,12,69,1
0.09999999999999787,2372,13,69,1
0.10000000000000142,2372,14,69,1
0.09999999999999787,2372,15,69,1
0.10000000000000142,2373,0,69,2
0.09999999999999787,2373,1,69,1
0.10000000000000142,2373,2,69,1
0.09999999999999787,2373,3,69,1
0.09999999999999787,2373,4,69,1
0.09999999999999787,2373,5,69,1
0.10000000000000142,2373,6,69,1
0.10000000000000142,2373,7,69,1
0.09999999999999787,2373,8,69,1
0.10000000000000142,2373,9,69,1
0.09999999999999787,2373,10,69,1
0.10000000000000142,2373,11,69,1
0.09999999999999787,2373,12,69,1
0.10000000000000142,2373,13,69,2
0.09999999999999787,2373,14,69,1
0.09999999999999787,2373,15,69,1
0.10000000000000142,2374,0,69,1
0.09999999999999787,2374,1,69,1
0.09999999999999787,2374,2,69,1
0.10000000000000142,2374,3,69,1
0.10000000000000142,2374,4,69,1
0.10000000000000142,2374,5,69,1
0.10000000000000142,2374,6,69,1
0.10000000000000142,2374,7,69,1
0.09999999999999787,2374,8,69,1
0.09999999999999787,2374,9,69,1
0.09999999999999787,2374,10,69,2
0.10000000000000142,2374,11,69,1
0.09999999999999787,2374,12,69,1
0.10000000000000142,2374,13,69,1
0.10000000000000142,2374,14,69,1
0.10000000000000142,2374,15,69,1
0.10000000000000142,2375,0,69,1
0.10000000000000142,2375,1,69,1
0.10000000000000142,2375,2,69,1
0.10000000000000142,2375,3,69,1
0.09999999999999787,2375,4,69,1
0.10000000000000142,2375,5,69,1
0.10000000000000142,2375,6,69,1
0.10000000000000142,2375,7,69,1
0.09999999999999787,2375,8,69,2
0.10000000000000142,2375,9,69,1
0.10000000000000142,2375,10,69,1
0.09999999999999787,2375,11,69,1
0.09999999999999787,2375,12,69,1
0.09999999999999787,2375,13,69,2
0.10000000000000142,2375,14,69,1
0.09999999999999787,2375,15,69,2
0.10000000000000142,2376,0,69,1
0.09999999999999787,2376,1,69,1
0.10000000000000142,2376,2,69,1
0.10000000000000853,2376,3,69,2
0.09999999999999432,2376,4,69,2
0.10000000000000853,2376,5,69,4
0.10000000000000853,2376,6,69,4
0.09999999999999432,2376,7,69,2
0.10000000000000853,2376,8,69,3
0.10000000000000853,2376,9,69,4
0.09999999999999432,2376,10,69,16
0.09999999999999432,2376,11,69,2
0.10000000000000853,2376,12,69,2
0.09999999999999432,2376,13,69,3
0.10000000000000853,2376,14,69,8
0.09999999999999432,2376,15,69,2
0.09999999999999432,2377,0,69,4
0.09999999999999432,2377,1,69,13
0.10000000000000853,2377,2,69,3
0.09999999999999432,2377,3,69,3
0.10000000000000853,2377,4,69,4
0.10000000000000853,2377,5,69,4
0.10000000000000853,2377,6,69,1
0.09999999999999432,2377,7,69,3
0.09999999999999432,2377,8,69,4
0.09999999999999432,2377,9,69,14
0.09999999999999432,2377,10,69,3
0.10000000000000853,2377,11,69,3
0.10000000000000853,2377,12,69,3
0.09999999999999432,2377,13,69,8
0.10000000000000853,2377,14,69,3
0.09999999999999432,2377,15,69,4
0.09999999999999432,2378,0,69,13
0.10000000000000853,2378,1,69,3
0.10000000000000853,2378,2,69,3
0.09999999999999432,2378,3,69,3
0.09999999999999432,2378,4,69,4
0.10000000000000853,2378,5,69,2
0.09999999999999432,2378,6,69,1
0.09999999999999432,2378,7,69,4
0.10000000000000853,2378,8,69,15
0.10000000000000853,2378,9,69,2
0.09999999999999432,2378,10,69,2
0.10000000000000853,2378,11,69,3
0.09999999999999432,2378,12,69,8
0.10000000000000853,2378,13,69,2
0.09999999999999432,2378,14,69,4
0.09999999999999432,2378,15,69,14
0.09999999999999432,2379,0,69,3
0.10000000000000853,2379,1,69,2
0.09999999999999432,2379,2,69,4
0.09999999999999432,2379,3,69,4
0.09999999999999432,2379,4,69,2
0.09999999999999432,2379,5,69,3
0.09999999999999432,2379,6,69,4
0.10000000000000853,2379,7,69,15
0.10000000000000853,2379,8,69,3
0.09999999999999432,2379,9,69,2
0.10000000000000853,2379,10,69,3
0.09999999999999432,2379,11,69,7
0.09999999999999432,2379,12,69,2
0.10000000000000853,2379,13,69,4
0.10000000000000853,2379,14,69,5
0.09999999999999432,2379,15,69,3
0.09999999999999432,2380,0,69,2
0.09999999999999432,2380,1,69,4
0.09999999999999432,2380,2,69,4
0.09999999999999432,2380,3,69,2
0.10000000000000853,2380,4,69,3
0.10000000000000853,2380,5,69,3
0.09999999999999432,2380,6,69,12
0.10000000000000853,2380,7,69,2
0.09999999999999432,2380,8,69,2
0.10000000000000853,2380,9,69,3
0.10000000000000853,2380,10,69,9
0.10000000000000853,2380,11,69,3
0.09999999999999432,2380,12,69,2
0.09999999999999432,2380,13,69,2
0.09999999999999432,2380,14,69,11
0.09999999999999432,2380,15,69,1
0.10000000000000853,2381,0,69,2
0.10000000000000853,2381,1,69,4
0.10000000000000853,2381,2,69,4
0.09999999999999432,2381,3,69,2
0.10000000000000853,2381,4,69,2
0.09999999999999432,2381,5,69,4
0.09999999999999432,2381,6,69,13
0.09999999999999432,2381,7,69,1
0.10000000000000853,2381,8,69,2
0.09999999999999432,2381,9,69,2
0.10000000000000853,2381,10,69,7
0.09999999999999432,2381,11,69,25
0.09999999999999432,2381,12,69,3
0.10000000000000853,2381,13,69,17
0.09999999999999432,2381,14,69,10
0.10000000000000853,2381,15,69,58
0.10000000000000853,2382,0,69,4
0.09999999999999432,2382,1,69,15
0.09999999999999432,2382,2,69,8
0.10000000000000853,2382,3,69,22
0.10000000000000853,2382,4,69,7
0.09999999999999432,2382,5,69,16
0.10000000000000853,2382,6,69,7
0.09999999999999432,2382,7,69,60
0.09999999999999432,2382,8,69,5
0.10000000000000853,2382,9,69,12
0.10000000000000853,2382,10,69,9
0.09999999999999432,2382,11,69,22
0.09999999999999432,2382,12,69,4
0.10000000000000853,2382,13,69,17
0.09999999999999432,2382,14,69,9
0.09999999999999432,2382,15,69,67
0.09999999999999432,2383,0,69,5
0.10000000000000853,2383,1,69,19
0.09999999999999432,2383,2,69,9
0.10000000000000853,2383,3,69,23
0.10000000000000853,2383,4,69,8
0.09999999999999432,2383,5,69,16
0.09999999999999432,2383,6,69,9
0.09999999999999432,2383,7,69,63
0.10000000000000853,2383,8,69,4
0.09999999999999432,2383,9,69,12
0.10000000000000853,2383,10,69,9
0.10000000000000853,2383,11,69,11
0.09999999999999432,2383,12,69,4
0.10000000000000853,2383,13,69,18
0.09999999999999432,2383,14,69,9
0.09999999999999432,2383,15,69,64
0.10000000000000853,2384,0,69,21
0.10000000000000853,2384,1,69,9
0.09999999999999432,2384,2,69,23
0.10000000000000853,2384,3,69,7
0.10000000000000853,2384,4,69,15
0.09999999999999432,2384,5,69,9
0.10000000000000853,2384,6,69,65
0.10000000000000853,2384,7,69,4
0.09999999999999432,2384,8,69,13
0.09999999999999432,2384,9,69,10
0.10000000000000853,2384,10,69,26
0.10000000000000853,2384,11,69,4
0.09999999999999432,2384,12,69,16
0.10000000000000853,2384,13,69,9
0.09999999999999432,2384,14,69,59
0.10000000000000853,2384,15,69,17
0.09999999999999432,2385,0,69,10
0.09999999999999432,2385,1,69,24
0.09999999999999432,2385,2,69,5
0.10000000000000853,2385,3,69,16
0.09999999999999432,2385,4,69,9
0.09999999999999432,2385,5,69,64
0.09999999999999432,2385,6,69,4
0.09999999999999432,2385,7,69,13
0.09999999999999432,2385,8,69,11
0.10000000000000853,2385,9,69,25
0.10000000000000853,2385,10,69,3
0.09999999999999432,2385,11,69,16
0.09999999999999432,2385,12,69,10
0.09999999999999432,2385,13,69,58
0.10000000000000853,2385,14,69,5
0.09999999999999432,2385,15,69,19
0.10000000000000853,2386,0,69,8
0.09999999999999432,2386,1,69,20
0.09999999999999432,2386,2,69,7
0.10000000000000853,2386,3,69,16
0.09999999999999432,2386,4,69,10
0.09999999999999432,2386,5,69,64
0.09999999999999432,2386,6,69,4
0.10000000000000853,2386,7,69,14
0.09999999999999432,2386,8,69,10
0.10000000000000853,2386,9,69,25
0.09999999999999432,2386,10,69,5
0.09999999999999432,2386,11,69,12
0.09999999999999432,2386,12,69,8
0.10000000000000853,2386,13,69,31
0.09999999999999432,2386,14,69,14
0.10000000000000853,2386,15,69,15
0.09999999999999432,2387,0,69,6
0.09999999999999432,2387,1,69,12
0.09999999999999432,2387,2,69,6
0.09999999999999432,2387,3,69,34
0.10000000000000853,2387,4,69,5
0.10000000000000853,2387,5,69,9
0.09999999999999432,2387,6,69,10
0.10000000000000853,2387,7,69,13
0.09999999999999432,2387,8,69,8
0.10000000000000853,2387,9,69,31
0.09999999999999432,2387,10,69,13
0.09999999999999432,2387,11,69,14
0.10000000000000853,2387,12,69,7
0.09999999999999432,2387,13,69,14
0.09999999999999432,2387,14,69,31
0.10000000000000853,2387,15,69,15
0.09999999999999432,2388,0,69,9
0.09999999999999432,2388,1,69,10
0.10000000000000853,2388,2,69,14
0.10000000000000853,2388,3,69,8
0.09999999999999432,2388,4,69,33
0.10000000000000853,2388,5,69,13
0.10000000000000853,2388,6,69,15
0.10000000000000853,2388,7,69,7
0.09999999999999432,2388,8,69,14
0.09999999999999432,2388,9,69,35
0.09999999999999432,2388,10,69,15
0.10000000000000853,2388,11,69,11
0.10000000000000853,2388,12,69,14
0.09999999999999432,2388,13,69,4
0.10000000000000853,2388,14,69,3
0.09999999999999432,2388,15,69,9
0.10000000000000853,2389,0,69,7
0.09999999999999432,2389,1,69,4
0.09999999999999432,2389,2,69,11
0.10000000000002274,2389,3,69,4
0.09999999999999432,2389,4,69,7
0.10000000000002274,2389,5,69,4
0.10000000000002274,2389,6,69,9
0.10000000000002274,2389,7,69,4
0.10000000000002274,2389,8,69,4
0.09999999999999432,2389,9,69,11
0.09999999999999432,2389,10,69,6
0.09999999999999432,2389,11,69,4
0.09999999999999432,2389,12,69,12
0.09999999999999432,2389,13,69,9
0.09999999999999432,2389,14,69,4
0.09999999999999432,2389,15,69,11
0.09999999999999432,2390,0,69,4
0.09999999999999432,2390,1,69,6
0.09999999999999432,2390,2,69,4
0.09999999999999432,2390,3,69,12
0.09999999999999432,2390,4,69,6
0.10000000000002274,2390,5,69,4
0.09999999999999432,2390,6,69,12
0.09999999999999432,2390,7,69,4
0.09999999999999432,2390,8,69,4
0.09999999999999432,2390,9,69,10
0.09999999999999432,2390,10,69,9
0.09999999999999432,2390,11,69,4
0.09999999999999432,2390,12,69,12
0.09999999999999432,2390,13,69,3
0.09999999999999432,2390,14,69,3
0.09999999999999432,2390,15,69,3
0.09999999999999432,2391,0,69,13
0.09999999999999432,2391,1,69,5
0.09999999999999432,2391,2,69,4
0.09999999999999432,2391,3,69,15
0.10000000000002274,2391,4,69,6
0.10000000000002274,2391,5,69,4
0.09999999999999432,2391,6,69,11
0.10000000000002274,2391,7,69,9
0.09999999999999432,2391,8,69,4
0.09999999999999432,2391,9,69,11
0.09999999999999432,2391,10,69,4
0.09999999999999432,2391,11,69,6
0.09999999999999432,2391,12,69,4
0.09999999999999432,2391,13,69,13
0.09999999999999432,2391,14,69,6
0.09999999999999432,2391,15,69,3
0.09999999999999432,2392,0,69,12
0.09999999999999432,2392,1,69,4
0.09999999999999432,2392,2,69,3
0.10000000000002274,2392,3,69,9
0.10000000000002274,2392,4,69,8
0.10000000000002274,2392,5,69,4
0.09999999999999432,2392,6,69,12
0.09999999999999432,2392,7,69,4
0.09999999999999432,2392,8,69,7
0.09999999999999432,2392,9,69,4
0.09999999999999432,2392,10,69,14
0.09999999999999432,2392,11,69,5
0.09999999999999432,2392,12,69,4
0.09999999999999432,2392,13,69,14
0.09999999999999432,2392,14,69,6
0.09999999999999432,2392,15,69,4
0.09999999999999432,2393,0,69,11
0.09999999999999432,2393,1,69,10
0.10000000000002274,2393,2,69,4
0.10000000000002274,2393,3,69,12
0.09999999999999432,2393,4,69,4
0.10000000000002274,2393,5,69,6
0.10000000000002274,2393,6,69,4
0.09999999999999432,2393,7,69,10
0.09999999999999432,2393,8,69,7
0.09999999999999432,2393,9,69,4
0.09999999999999432,2393,10,69,14
0.09999999999999432,2393,11,69,5
0.09999999999999432,2393,12,69,4
0.09999999999999432,2393,13,69,11
0.09999999999999432,2393,14,69,8
0.09999999999999432,2393,15,69,4
0.10000000000002274,2394,0,69,14
0.09999999999999432,2394,1,69,4
0.09999999999999432,2394,2,69,9
0.10000000000002274,2394,3,69,4
0.10000000000002274,2394,4,69,13
0.10000000000002274,2394,5,69,4
0.09999999999999432,2394,6,69,5
0.09999999999999432,2394,7,69,6
0.10000000000002274,2394,8,69,18
0.09999999999999432,2394,9,69,12
0.09999999999999432,2394,10,69,36
0.09999999999999432,2394,11,69,16
0.09999999999999432,2394,12,69,9
0.09999999999999432,2394,13,69,11
0.09999999999999432,2394,14,69,7
0.09999999999999432,2394,15,69,18
0.09999999999999432,2395,0,69,8
0.09999999999999432,2395,1,69,37
0.10000000000002274,2395,2,69,6
0.10000000000000009,2395,3,62,74
0.10000000000000009,2395,4,62,62
0.09999999999999964,2395,5,62,68
0.09999999999999964,2395,6,62,66
0.10000000000000009,2395,7,62,60
0.09999999999999964,2395,8,62,35
0.09999999999999964,2395,9,62,38
0.10000000000000053,2395,10,62,61
0.10000000000000053,2395,11,62,73
0.10000000000000053,2395,12,62,69
0.10000000000000053,2395,13,62,69
0.09999999999999964,2395,14,62,52
0.09999999999999964,2395,15,62,29
0.09999999999999964,2396,0,62,29
0.10000000000000053,2396,1,62,40
0.09999999999999964,2396,2,62,60
0.09999999999999964,2396,3,62,60
0.09999999999999964,2396,4,62,71
0.10000000000000142,2396,5,62,63
0.10000000000000142,2396,6,62,48
0.10000000000000142,2396,7,62,31
0.09999999999999964,2396,8,62,39
0.09999999999999964,2396,9,62,37
0.09999999999999964,2396,10,62,69
0.09999999999999964,2396,11,62,69
0.09999999999999964,2396,12,62,57
0.09999999999999964,2396,13,62,77
0.09999999999999964,2396,14,62,53
0.10000000000000142,2396,15,62,42
0.09999999999999964,2397,0,62,32
0.09999999999999964,2397,1,62,41
0.09999999999999964,2397,2,62,41
0.09999999999999964,2397,3,62,38
0.09999999999999964,2397,4,62,65
0.09999999999999964,2397,5,62,66
0.09999999999999964,2397,6,62,39
0.10000000000000142,2397,7,62,88
0.09999999999999964,2397,8,62,54
0.09999999999999964,2397,9,62,38
0.09999999999999964,2397,10,62,38
0.09999999999999964,2397,11,62,45
0.09999999999999964,2397,12,62,78
0.09999999999999964,2397,13,62,82
0.10000000000000142,2397,14,62,60
0.10000000000000142,2397,15,62,71
0.10000000000000142,2398,0,62,56
0.10000000000000142,2398,1,62,50
0.10000000000000142,2398,2,62,40
0.10000000000000142,2398,3,62,36
0.10000000000000142,2398,4,62,59
0.09999999999999787,2398,5,62,71
0.10000000000000142,2398,6,62,67
0.10000000000000142,2398,7,62,71
0.10000000000000142,2398,8,62,52
0.10000000000000142,2398,9,62,48
0.10000000000000142,2398,10,62,55
0.10000000000000142,2398,11,62,48
0.10000000000000142,2398,12,62,79
0.10000000000000142,2398,13,62,80
0.09999999999999787,2398,14,62,68
0.09999999999999787,2398,15,62,54
0.09999999999999787,2399,0,62,56
0.09999999999999787,2399,1,62,52
0.09999999999999787,2399,2,62,42
0.10000000000000142,2399,3,62,45
0.10000000000000142,2399,4,62,44
0.10000000000000142,2399,5,62,43
0.10000000000000142,2399,6,62,33
0.09999999999999787,2399,7,62,40
0.09999999999999787,2399,8,62,46
0.09999999999999787,2399,9,62,29
0.09999999999999787,2399,10,62,33
0.09999999999999787,2399,11,62,51
0.10000000000000142,2399,12,62,41
0.10000000000000142,2399,13,62,23
0.09999999999999787,2399,14,62,31
0.10000000000000142,2399,15,62,64
0.10000000000000142,2400,0,62,61
0.10000000000000142,2400,1,62,86
0.10000000000000142,2400,2,62,63
0.09999999999999787,2400,3,62,48
0.09999999999999787,2400,4,62,32
0.10000000000000142,2400,5,62,33
0.10000000000000142,2400,6,62,27
0.09999999999999787,2400,7,62,42
0.10000000000000142,2400,8,62,23
0.09999999999999787,2400,9,62,33
0.09999999999999787,2400,10,62,53
0.10000000000000142,2400,11,62,50
0.10000000000000142,2400,12,62,46
0.10000000000000142,2400,13,62,39
0.10000000000000142,2400,14,62,30
0.09999999999999432,2400,15,62,38
0.09999999999999432,2401,0,62,37
0.10000000000000142,2401,1,62,28
0.10000000000000142,2401,2,62,33
0.10000000000000142,2401,3,62,49
0.10000000000000142,2401,4,62,46
0.10000000000000142,2401,5,62,43
0.09999999999999432,2401,6,62,45
0.10000000000000142,2401,7,62,36
0.10000000000000142,2401,8,62,42
0.10000000000000142,2401,9,62,54
0.10000000000000142,2401,10,62,47
0.09999999999999432,2401,11,62,41
0.09999999999999432,2401,12,62,48
0.09999999999999432,2401,13,62,84
0.10000000000000142,2401,14,62,74
0.10000000000000142,2401,15,62,52
0.10000000000000142,2402,0,62,84
0.10000000000000142,2402,1,62,53
0.10000000000000142,2402,2,62,35
0.10000000000000142,2402,3,62,20
0.10000000000000142,2402,4,62,51
0.10000000000000142,2402,5,62,29
0.10000000000000142,2402,6,62,35
0.10000000000000142,2402,7,62,71
0.10000000000000142,2402,8,62,66
0.10000000000000142,2402,9,62,50
0.10000000000000142,2402,10,62,65
0.10000000000000142,2402,11,62,29
0.09999999999999432,2402,12,62,27
0.10000000000000142,2402,13,62,33
0.09999999999999432,2402,14,62,35
0.10000000000000142,2402,15,62,41
0.10000000000000142,2403,0,62,47
0.10000000000000142,2403,1,62,51
0.10000000000000142,2403,2,62,48
0.10000000000000142,2403,3,62,62
0.10000000000000142,2403,4,62,57
0.10000000000000142,2403,5,62,58
0.10000000000000142,2403,6,62,54
0.10000000000000142,2403,7,62,58
0.10000000000000142,2403,8,62,56
0.09999999999999432,2403,9,62,57
0.10000000000000142,2403,10,62,33
0.10000000000000142,2403,11,62,38
0.10000000000000142,2403,12,62,29
0.10000000000000142,2403,13,62,34
0.10000000000000142,2403,14,62,30
0.10000000000000142,2403,15,62,43
0.10000000000000142,2404,0,62,84
0.10000000000000142,2404,1,62,53
0.09999999999999432,2404,2,62,83
0.09999999999999432,2404,3,62,46
0.09999999999999432,2404,4,62,51
0.10000000000000142,2404,5,62,45
0.10000000000000142,2404,6,62,40
0.10000000000000142,2404,7,62,27
0.09999999999999432,2404,8,62,44
0.10000000000000142,2404,9,62,40
0.10000000000000142,2404,10,62,72
0.10000000000000142,2404,11,62,72
0.10000000000000142,2404,12,62,67
0.10000000000000142,2404,13,62,35
0.10000000000000142,2404,14,62,65
0.10000000000000142,2404,15,62,54
0.09999999999999432,2405,0,62,49
0.09999999999999432,2405,1,62,61
0.09999999999999432,2405,2,62,68
0.10000000000000142,2405,3,62,47
0.10000000000000142,2405,4,62,58
0.10000000000000142,2405,5,62,51
0.10000000000000142,2405,6,62,41
0.10000000000000142,2405,7,62,77
0.10000000000000142,2405,8,62,53
0.10000000000000142,2405,9,62,59
0.10000000000000142,2405,10,62,35
0.10000000000000142,2405,11,62,54
0.10000000000000142,2405,12,62,51
0.10000000000000142,2405,13,62,73
0.10000000000000142,2405,14,62,49
0.10000000000000142,2405,15,62,70
0.10000000000000142,2406,0,62,50
0.10000000000000142,2406,1,62,51
0.09999999999999432,2406,2,62,51
0.10000000000000142,2406,3,62,35
0.10000000000000142,2406,4,62,75
0.10000000000000142,2406,5,62,79
0.10000000000000142,2406,6,62,62
0.09999999999999432,2406,7,62,55
0.10000000000000142,2406,8,62,44
0.09999999999999432,2406,9,62,41
0.10000000000000142,2406,10,62,47
0.10000000000000142,2406,11,62,52
0.09999999999999432,2406,12,62,47
0.09999999999999432,2406,13,62,50
0.09999999999999432,2406,14,62,52
0.10000000000000142,2406,15,62,42
0.10000000000000142,2407,0,62,56
0.10000000000000142,2407,1,62,48
0.09999999999999432,2407,2,62,39
0.09999999999999432,2407,3,62,47
0.10000000000000142,2407,4,62,62
0.10000000000000142,2407,5,62,84
0.09999999999999432,2407,6,62,86
0.10000000000000853,2407,7,62,49
0.09999999999999432,2407,8,62,64
0.09999999999999432,2407,9,62,51
0.10000000000000853,2407,10,62,44
0.09999999999999432,2407,11,62,31
0.10000000000000853,2407,12,62,64
0.09999999999999432,2407,13,62,82
0.09999999999999432,2407,14,62,58
0.09999999999999432,2407,15,62,63
0.10000000000000853,2408,0,62,66
0.09999999999999432,2408,1,62,81
0.09999999999999432,2408,2,62,77
0.09999999999999432,2408,3,62,45
0.10000000000000853,2408,4,62,49
0.09999999999999432,2408,5,62,55
0.09999999999999432,2408,6,62,44
0.10000000000000853,2408,7,62,54
0.09999999999999432,2408,8,62,45
0.10000000000000853,2408,9,62,67
0.10000000000000853,2408,10,62,50
0.10000000000000853,2408,11,62,55
0.09999999999999432,2408,12,62,70
0.09999999999999432,2408,13,62,41
0.09999999999999432,2408,14,62,51
0.10000000000000853,2408,15,62,105
0.09999999999999432,2409,0,62,71
0.10000000000000853,2409,1,62,40
0.10000000000000853,2409,2,62,85
0.09999999999999432,2409,3,62,81
0.09999999999999432,2409,4,62,67
0.09999999999999432,2409,5,62,74
0.09999999999999432,2409,6,62,44
0.10000000000000853,2409,7,62,63
0.10000000000000853,2409,8,62,50
0.10000000000000853,2409,9,62,69
0.09999999999999432,2409,10,62,61
0.09999999999999432,2409,11,62,41
0.09999999999999432,2409,12,62,71
0.10000000000000853,2409,13,62,48
0.09999999999999432,2409,14,62,51
0.10000000000000853,2409,15,62,41
0.10000000000000853,2410,0,62,62
0.09999999999999432,2410,1,62,59
0.10000000000000853,2410,2,62,77
0.09999999999999432,2410,3,62,52
0.09999999999999432,2410,4,62,74
0.10000000000000853,2410,5,62,37
0.09999999999999432,2410,6,62,48
0.09999999999999432,2410,7,62,66
0.10000000000000853,2410,8,62,62
0.09999999999999432,2410,9,62,55
0.10000000000000853,2410,10,62,55
0.10000000000000853,2410,11,62,51
0.10000000000000853,2410,12,62,84
0.09999999999999432,2410,13,62,57
0.09999999999999432,2410,14,62,61
0.10000000000000853,2410,15,62,56
0.09999999999999432,2411,0,62,56
0.10000000000000853,2411,1,62,75
0.09999999999999432,2411,2,62,53
0.10000000000000853,2411,3,62,47
0.09999999999999432,2411,4,62,43
0.10000000000000853,2411,5,62,43
0.09999999999999432,2411,6,62,47
0.10000000000000853,2411,7,62,30
0.09999999999999432,2411,8,62,28
0.09999999999999432,2411,9,62,37
0.10000000000000853,2411,10,62,43
0.10000000000000853,2411,11,62,41
0.09999999999999432,2411,12,62,38
0.10000000000000853,2411,13,62,40
0.09999999999999432,2411,14,62,49
0.09999999999999432,2411,15,62,40
0.09999999999999432,2412,0,62,37
0.09999999999999432,2412,1,62,41
0.10000000000000853,2412,2,62,29
0.09999999999999432,2412,3,62,35
0.09999999999999432,2412,4,62,72
0.09999999999999432,2412,5,62,99
0.09999999999999432,2412,6,62,114
0.10000000000000853,2412,7,62,89
0.10000000000000853,2412,8,62,93
0.09999999999999432,2412,9,62,59
0.09999999999999432,2412,10,62,108
0.09999999999999432,2412,11,62,66
0.09999999999999432,2412,12,62,74
0.10000000000000853,2412,13,62,86
0.10000000000000853,2412,14,62,67
0.09999999999999432,2412,15,62,81
0.10000000000000853,2413,0,62,73
0.09999999999999432,2413,1,62,102
0.09999999999999432,2413,2,62,78
0.10000000000000853,2413,3,62,120
0.09999999999999432,2413,4,62,123
0.10000000000000853,2413,5,62,125
0.09999999999999432,2413,6,62,79
0.10000000000000853,2413,7,62,102
0.09999999999999432,2413,8,62,93
0.09999999999999432,2413,9,62,99
0.09999999999999432,2413,10,62,99
0.09999999999999432,2413,11,62,64
0.09999999999999432,2413,12,62,92
0.09999999999999432,2413,13,62,79
0.09999999999999432,2413,14,62,71
0.10000000000000853,2413,15,62,96
0.09999999999999432,2414,0,62,51
0.10000000000000853,2414,1,62,66
0.09999999999999432,2414,2,62,68
0.09999999999999432,2414,3,62,80
0.09999999999999432,2414,4,62,75
0.10000000000000853,2414,5,62,79
0.09999999999999432,2414,6,62,78
0.09999999999999432,2414,7,62,118
0.09999999999999432,2414,8,62,123
0.10000000000000853,2414,9,62,66
0.10000000000000853,2414,10,62,33
0.09999999999999432,2414,11,62,34
0.10000000000002274,2414,12,62,39
0.10000000000002274,2414,13,62,29
0.09999999999999432,2414,14,62,28
0.09999999999999432,2414,15,62,28
0.09999999999999432,2415,0,62,31
0.10000000000002274,2415,1,62,30
0.10000000000002274,2415,2,62,23
0.09999999999999432,2415,3,62,26
0.09999999999999432,2415,4,62,33
0.09999999999999432,2415,5,62,30
0.09999999999999432,2415,6,62,37
0.09999999999999432,2415,7,62,30
0.09999999999999432,2415,8,62,34
0.10000000000002274,2415,9,62,37
0.10000000000002274,2415,10,62,36
0.09999999999999432,2415,11,62,28
0.09999999999999432,2415,12,62,33
0.09999999999999432,2415,13,62,33
0.09999999999999432,2415,14,62,28
0.09999999999999432,2415,15,62,24
0.09999999999999432,2416,0,62,37
0.10000000000002274,2416,1,62,43
0.09999999999999432,2416,2,62,35
0.09999999999999432,2416,3,62,45
0.09999999999999432,2416,4,62,26
0.09999999999999432,2416,5,62,26
0.09999999999999432,2416,6,62,46
0.09999999999999432,2416,7,62,31
0.10000000000002274,2416,8,62,30
0.09999999999999432,2416,9,62,24
0.09999999999999432,2416,10,62,37
0.09999999999999432,2416,11,62,33
0.09999999999999432,2416,12,62,19
0.09999999999999432,2416,13,62,32
0.09999999999999432,2416,14,62,24
0.09999999999999432,2416,15,62,32
0.09999999999999432,2417,0,62,29
0.09999999999999432,2417,1,62,32
0.10000000000002274,2417,2,62,26
0.09999999999999432,2417,3,62,94
0.09999999999999432,2417,4,62,122
0.09999999999999432,2417,5,62,86
0.09999999999999432,2417,6,62,102
0.09999999999999432,2417,7,62,64
0.09999999999999432,2417,8,62,127
0.09999999999999432,2417,9,62,72
0.10000000000002274,2417,10,62,90
0.09999999999999432,2417,11,62,66
0.09999999999999432,2417,12,62,61
0.10000000000002274,2417,13,62,63
0.09999999999999432,2417,14,62,61
0.09999999999999432,2417,15,62,76
0.09999999999999432,2418,0,62,91
0.09999999999999432,2418,1,62,89
0.09999999999999432,2418,2,62,70
0.09999999999999432,2418,3,62,79
0.10000000000002274,2418,4,62,56
0.10000000000002274,2418,5,62,79
0.09999999999999432,2418,6,62,55
0.09999999999999432,2418,7,62,57
0.09999999999999432,2418,8,62,66
0.10000000000002274,2418,9,62,49
0.09999999999999432,2418,10,62,63
0.09999999999999432,2418,11,62,74
0.09999999999999432,2418,12,62,82
0.09999999999999432,2418,13,62,51
0.09999999999999432,2418,14,62,59
0.09999999999999964,2418,15,76,82
0.047727272727272396,2419,0,76,127
0.09999999999999964,2419,1,76,96
0.10000000000000009,2419,2,76,127
0.10000000000000009,2419,3,76,113
0.09999999999999964,2419,4,76,95
0.10000000000000053,2419,5,76,67
0.10000000000000053,2419,6,76,78
0.10000000000000053,2419,7,76,127
0.09999999999999964,2419,8,76,106
0.09999999999999964,2419,9,76,20
0.09999999999999964,2419,10,76,108
0.09999999999999964,2419,11,76,104
0.10000000000000053,2419,12,76,124
0.09999999999999964,2419,13,76,122
0.09999999999999964,2419,14,76,125
0.10000000000000053,2419,15,76,101
0.09999999999999964,2420,0,76,35
0.09999999999999964,2420,1,76,108
0.10000000000000053,2420,2,76,127
0.09999999999999964,2420,3,76,75
0.09999999999999964,2420,4,76,68
0.09999999999999964,2420,5,76,78
0.09999999999999964,2420,6,76,127
0.10000000000000142,2420,7,76,102
0.09999999999999964,2420,8,76,1
0.09999999999999964,2420,9,76,96
0.09999999999999964,2420,10,76,29
0.09999999999999964,2420,11,76,81
0.09999999999999964,2420,12,76,125
0.09999999999999964,2420,13,76,72
0.09999999999999964,2420,14,76,127
0.09999999999999964,2420,15,76,120
0.09999999999999964,2421,0,76,107
0.09999999999999964,2421,1,76,104
0.10000000000000142,2421,2,76,107
0.10000000000000142,2421,3,76,92
0.09999999999999964,2421,4,76,98
0.10000000000000142,2421,5,76,105
0.09999999999999787,2421,6,76,107
0.09999999999999787,2421,7,76,95
0.09999999999999787,2421,8,76,109
0.10000000000000142,2421,9,76,93
0.10000000000000142,2421,10,76,121
0.10000000000000142,2421,11,76,124
0.09999999999999787,2421,12,76,121
0.10000000000000142,2421,13,76,86
0.09999999999999787,2421,14,76,62
0.09999999999999787,2421,15,76,106
0.10000000000000142,2422,0,76,108
0.09999999999999787,2422,1,76,97
0.09999999999999787,2422,2,76,100
0.10000000000000142,2422,3,76,73
0.09999999999999787,2422,4,76,125
0.10000000000000142,2422,5,76,127
0.10000000000000142,2422,6,76,123
0.10000000000000142,2422,7,76,98
0.10000000000000142,2422,8,76,119
0.10000000000000142,2422,9,76,112
0.09999999999999787,2422,10,76,102
0.09999999999999787,2422,11,76,91
0.10000000000000142,2422,12,76,111
0.09999999999999787,2422,13,76,96
0.10000000000000142,2422,14,76,114
0.10000000000000142,2422,15,76,107
0.09999999999999787,2423,0,76,105
0.10000000000000142,2423,1,76,70
0.10000000000000142,2423,2,76,71
0.10000000000000142,2423,3,76,107
0.10000000000000142,2423,4,76,123
0.09999999999999787,2423,5,76,114
0.10000000000000142,2423,6,76,107
0.09999999999999787,2423,7,76,86
0.10000000000000142,2423,8,76,90
0.10000000000000142,2423,9,76,91
0.10000000000000142,2423,10,76,78
0.09999999999999787,2423,11,76,93
0.09999999999999787,2423,12,76,100
0.10000000000000142,2423,13,76,74
0.09999999999999787,2423,14,76,97
0.10000000000000142,2423,15,76,97
0.10000000000000142,2424,0,76,83
0.09999999999999432,2424,1,76,101
0.10000000000000142,2424,2,76,59
0.10000000000000142,2424,3,76,120
0.09999999999999432,2424,4,76,114
0.10000000000000142,2424,5,76,32
0.10000000000000142,2424,6,76,39
0.10000000000000142,2424,7,76,105
0.09999999999999432,2424,8,76,49
0.10000000000000142,2424,9,76,109
0.10000000000000142,2424,10,76,127
0.10000000000000142,2424,11,76,97
0.10000000000000142,2424,12,76,89
0.10000000000000142,2424,13,76,45
0.10000000000000142,2424,14,76,57
0.10000000000000142,2424,15,76,25
0.10000000000000142,2425,0,76,14
0.10000000000000142,2425,1,76,87
0.09999999999999432,2425,2,76,87
0.10000000000000142,2425,3,76,96
0.10000000000000142,2425,4,76,127
0.10000000000000142,2425,5,76,104
0.09999999999999432,2425,6,76,127
0.10000000000000142,2425,7,76,113
0.10000000000000142,2425,8,76,85
0.10000000000000142,2425,9,76,101
0.10000000000000142,2425,10,76,74
0.10000000000000142,2425,11,76,99
0.10000000000000142,2425,12,76,93
0.09999999999999432,2425,13,76,81
0.10000000000000142,2425,14,76,95
0.10000000000000142,2425,15,76,114
0.10000000000000142,2426,0,76,86
0.10000000000000142,2426,1,76,86
0.10000000000000142,2426,2,76,92
0.09999999999999432,2426,3,76,111
0.10000000000000142,2426,4,76,127
0.10000000000000142,2426,5,76,21
0.09999999999999432,2426,6,76,127
0.10000000000000142,2426,7,76,86
0.10000000000000142,2426,8,76,84
0.10000000000000142,2426,9,76,127
0.10000000000000142,2426,10,76,52
0.10000000000000142,2426,11,76,107
0.10000000000000142,2426,12,76,121
0.10000000000000142,2426,13,76,55
0.09999999999999432,2426,14,76,99
0.10000000000000142,2426,15,76,82
0.10000000000000142,2427,0,76,114
0.09999999999999432,2427,1,76,82
0.10000000000000142,2427,2,76,117
0.10000000000000142,2427,3,76,127
0.09999999999999432,2427,4,76,71
0.09999999999999432,2427,5,76,84
0.10000000000000142,2427,6,76,77
0.10000000000000142,2427,7,76,83
0.10000000000000142,2427,8,76,59
0.10000000000000142,2427,9,76,82
0.10000000000000142,2427,10,76,102
0.10000000000000142,2427,11,76,76
0.09999999999999432,2427,12,76,122
0.10000000000000142,2427,13,76,105
0.10000000000000142,2427,14,76,127
0.10000000000000142,2427,15,76,76
0.10000000000000142,2428,0,76,115
0.10000000000000142,2428,1,76,127
0.10000000000000142,2428,2,76,127
0.09999999999999432,2428,3,76,127
0.10000000000000142,2428,4,76,127
0.10000000000000142,2428,5,76,96
0.10000000000000142,2428,6,76,101
0.10000000000000142,2428,7,76,53
0.09999999999999432,2428,8,76,127
0.10000000000000853,2428,9,76,127
0.10000000000000853,2428,10,76,90
0.10000000000000853,2428,11,76,98
0.09999999999999432,2428,12,76,104
0.09999999999999432,2428,13,76,84
0.10000000000000853,2428,14,76,78
0.10000000000000853,2428,15,76,70
0.09999999999999432,2429,0,76,111
0.10000000000000853,2429,1,76,127
0.10000000000000853,2429,2,76,127
0.09999999999999432,2429,3,76,127
0.09999999999999432,2429,4,76,127
0.09999999999999432,2429,5,76,89
0.09999999999999432,2429,6,76,110
0.09999999999999432,2429,7,76,127
0.10000000000000853,2429,8,76,99
0.09999999999999432,2429,9,76,107
0.10000000000000853,2429,10,76,113
0.09999999999999432,2429,11,76,82
0.09999999999999432,2429,12,76,85
0.10000000000000853,2429,13,76,57
0.10000000000000853,2429,14,76,127
0.10000000000000853,2429,15,76,127
0.10000000000000853,2430,0,76,96
0.09999999999999432,2430,1,76,100
0.09999999999999432,2430,2,76,127
0.09999999999999432,2430,3,76,127
0.09999999999999432,2430,4,76,99
0.10000000000000853,2430,5,76,91
0.10000000000000853,2430,6,76,90
0.09999999999999432,2430,7,76,80
0.09999999999999432,2430,8,76,90
0.10000000000000853,2430,9,76,107
0.10000000000000853,2430,10,76,115
0.10000000000000853,2430,11,76,93
0.09999999999999432,2430,12,76,105
0.09999999999999432,2430,13,76,105
0.09999999999999432,2430,14,76,77
0.10000000000000853,2430,15,76,116
0.10000000000000853,2431,0,76,121
0.09999999999999432,2431,1,76,127
0.10000000000000853,2431,2,76,89
0.09999999999999432,2431,3,76,120
0.10000000000000853,2431,4,76,48
0.09999999999999432,2431,5,76,127
0.09999999999999432,2431,6,76,80
0.09999999999999432,2431,7,76,91
0.09999999999999432,2431,8,76,122
0.10000000000000853,2431,9,76,127
0.09999999999999432,2431,10,76,96
0.10000000000000853,2431,11,76,127
0.10000000000000853,2431,12,76,80
0.09999999999999432,2431,13,76,102
0.09999999999999432,2431,14,76,116
0.09999999999999432,2431,15,76,50
0.09999999999999432,2432,0,76,116
0.09999999999999432,2432,1,76,68
0.09999999999999432,2432,2,76,64
0.09999999999999432,2432,3,76,83
0.09999999999999432,2432,4,76,80
0.10000000000000853,2432,5,76,86
0.09999999999999432,2432,6,76,81
0.10000000000000853,2432,7,76,122
0.09999999999999432,2432,8,76,101
0.09999999999999432,2432,9,76,71
0.10000000000000853,2432,10,76,127
0.09999999999999432,2432,11,76,127
0.10000000000000853,2432,12,76,127
0.09999999999999432,2432,13,76,93
0.10000000000000853,2432,14,76,76
0.09999999999999432,2432,15,76,57
0.10000000000000853,2433,0,76,103
0.09999999999999432,2433,1,76,53
0.09999999999999432,2433,2,76,104
0.09999999999999432,2433,3,76,119
0.09999999999999432,2433,4,76,83
0.09999999999999432,2433,5,76,102
0.09999999999999432,2433,6,76,45
0.10000000000000853,2433,7,76,95
0.09999999999999432,2433,8,76,127
0.09999999999999432,2433,9,76,62
0.09999999999999432,2433,10,76,99
0.09999999999999432,2433,11,76,122
0.10000000000000853,2433,12,76,127
0.10000000000000853,2433,13,76,66
0.10000000000000853,2433,14,76,127
0.10000000000000853,2433,15,76,90
0.09999999999999432,2434,0,76,87
0.09999999999999432,2434,1,76,79
0.09999999999999432,2434,2,76,29
0.09999999999999432,2434,3,76,90
0.10000000000000853,2434,4,76,90
0.09999999999999432,2434,5,76,124
0.09999999999999432,2434,6,76,63
0.06818181818181301,2434,7,76,91
0.10000000000000853,2434,8,76,116
0.09999999999999432,2434,9,76,49
0.09999999999999432,2434,10,76,84
0.09999999999999432,2434,11,76,66
0.09999999999999432,2434,12,76,56
0.09999999999999432,2434,13,76,87
0.09999999999999432,2434,14,76,82
0.09999999999999432,2434,15,76,58
0.10000000000000853,2435,0,76,110
0.10000000000000853,2435,1,76,73
0.056818181818186986,2435,2,76,126
0.09999999999999432,2435,3,76,25
0.10000000000000853,2435,4,76,111
0.09999999999999432,2435,5,76,127
0.10000000000000853,2435,6,76,127
0.10000000000000853,2435,7,76,116
0.09999999999999432,2435,8,76,127
0.10000000000000853,2435,9,76,106
0.10000000000000853,2435,10,76,94
0.10000000000000853,2435,11,76,102
0.10000000000000853,2435,12,76,29
0.09999999999999432,2435,13,76,91
0.06818181818181301,2435,14,76,117
0.10000000000000853,2435,15,76,98
0.09999999999999432,2436,0,76,109
0.10000000000000853,2436,1,76,117
0.09999999999999432,2436,2,76,94
0.09999999999999432,2436,3,76,91
0.10000000000000853,2436,4,76,100
0.09999999999999432,2436,5,76,107
0.09999999999999432,2436,6,76,80
0.10000000000000853,2436,7,76,104
0.10000000000000853,2436,8,76,34
0.09999999999999432,2436,9,76,115
0.09999999999999432,2436,10,76,112
0.09999999999999432,2436,11,76,80
0.09999999999999432,2436,12,76,101
0.10000000000000853,2436,13,76,127
0.09999999999999432,2436,14,76,127
0.10000000000000853,2436,15,76,100
0.10000000000000853,2437,0,76,127
0.10000000000000853,2437,1,76,82
0.09999999999999432,2437,2,76,81
0.10000000000000853,2437,3,76,109
0.09999999999999432,2437,4,76,127
0.10000000000000853,2437,5,76,106
0.09999999999999432,2437,6,76,67
0.09999999999999432,2437,7,76,127
0.09999999999999432,2437,8,76,83
0.09999999999999432,2437,9,76,106
0.09999999999999432,2437,10,76,99
0.09999999999999432,2437,11,76,127
0.10000000000000853,2437,12,76,125
0.10000000000000853,2437,13,76,102
0.10000000000000853,2437,14,76,127
0.10000000000000853,2437,15,76,127
0.09999999999999432,2438,0,76,60
0.10000000000000853,2438,1,76,111
0.10000000000000853,2438,2,76,95
0.06818181818182723,2438,3,76,108
0.10000000000000853,2438,4,76,79
0.10000000000000853,2438,5,76,112
0.09999999999999432,2438,6,76,32
0.09999999999999432,2438,7,76,47
0.09999999999999432,2438,8,76,78
0.09999999999999432,2438,9,76,97
0.09999999999999432,2438,10,76,111
0.09999999999999432,2438,11,76,24
0.09999999999999432,2438,12,76,61
0.013636363636351234,2438,13,76,109
0.10000000000002274,2438,14,76,107
0.09999999999999432,2438,15,76,127
0.09999999999999432,2439,0,76,127
0.09999999999999432,2439,1,76,58
0.09999999999999432,2439,2,76,120
0.09999999999999432,2439,3,76,37
0.09999999999999432,2439,4,76,78
0.03636363636363171,2439,5,76,123
0.09999999999999432,2439,6,76,26
0.10000000000002274,2439,7,76,73
0.09999999999999432,2439,8,76,124
0.09999999999999432,2439,9,76,113
0.09999999999999432,2439,10,76,38
0.09999999999999432,2439,11,76,83
0.09999999999999432,2439,12,76,101
0.09999999999999432,2439,13,76,107
0.10000000000002274,2439,14,76,32
0.09999999999999432,2439,15,76,66
0.09999999999999432,2440,0,76,114
0.09999999999999432,2440,1,76,117
0.09999999999999432,2440,2,76,127
0.10000000000002274,2440,3,76,127
0.09999999999999432,2440,4,76,76
0.10000000000002274,2440,5,76,79
0.09999999999999432,2440,6,76,47
0.09999999999999432,2440,7,76,86
0.09999999999999432,2440,8,76,59
0.09999999999999432,2440,9,76,79
0.10000000000002274,2440,10,76,78
0.09999999999999432,2440,11,76,78
0.09999999999999432,2440,12,76,124
0.10000000000002274,2440,13,76,104
0.09999999999999432,2440,14,76,122
0.09999999999999432,2440,15,76,87
0.09999999999999432,2441,0,76,125
0.09999999999999432,2441,1,76,103
0.004545454545450411,2441,2,76,33
0.10000000000002274,2441,3,76,85
0.09999999999999432,2441,4,76,127
0.09999999999999432,2441,5,76,127
0.10000000000002274,2441,6,76,127
0.09999999999999432,2441,7,76,127
0.09999999999999432,2441,8,76,127
0.09999999999999432,2441,9,76,50
0.09999999999999432,2441,10,76,88
0.09999999999999432,2441,11,76,35
0.10000000000002274,2441,12,76,67
0.06818181818184144,2441,13,76,89
0.09999999999999432,2441,14,76,127
0.09999999999999432,2441,15,76,87
0.10000000000002274,2442,0,76,102
0.09999999999999432,2442,1,76,30
0.09999999999999432,2442,2,76,83
0.09999999999999432,2442,3,76,127
0.09999999999999432,2442,4,76,101
0.09999999999999432,2442,5,76,109
0.10000000000002274,2442,6,76,111
0.10000000000002274,2442,7,76,73
0.09999999999999432,2442,8,76,31
0.09999999999999432,2442,9,76,54
0.09999999999999432,2442,10,76,97
0.09999999999999432,2442,11,76,124
0.10000000000002274,2442,12,76,81
0.09999999999999432,2442,13,76,48
0.09999999999999432,2442,14,76,57
0.09999999999999432,2442,15,76,78
0.09999999999999432,2443,0,76,27
0.05909090909091219,2443,1,76,51
0.09999999999999432,2443,2,76,50
0.09999999999999432,2443,3,76,48
0.10000000000000142,2443,4,61,2
0.10000000000000142,2443,5,61,13
0.10000000000000853,2443,6,61,11
0.10000000000000853,2443,7,61,26
0.09999999999999432,2443,8,61,13
0.09999999999999432,2443,9,61,14
0.09999999999999432,2443,10,61,14
0.09999999999999432,2443,11,61,13
0.09999999999999432,2443,12,61,1
0.10000000000000853,2443,13,61,17
0.09999999999999432,2443,14,61,24
0.10000000000000853,2443,15,61,42
0.09999999999999432,2444,0,61,73
0.09999999999999432,2444,1,61,14
0.10000000000000853,2444,2,61,44
0.10000000000000853,2444,3,61,25
0.10000000000000853,2444,4,61,19
0.09999999999999432,2444,5,61,49
0.09999999999999432,2444,6,61,47
0.10000000000000853,2444,7,61,7
0.09999999999999432,2444,8,61,16
0.09999999999999432,2444,9,61,20
0.10000000000000853,2444,10,61,26
0.09999999999999432,2444,11,61,33
0.09999999999999432,2444,12,61,46
0.09999999999999432,2444,13,61,17
0.09999999999999432,2444,14,61,10
0.09999999999999432,2444,15,61,22
0.09999999999999432,2445,0,61,15
0.10000000000000853,2445,1,61,19
0.10000000000000853,2445,2,61,5
0.056818181818186986,2445,3,61,8
0.09999999999999432,2445,4,61,4
0.10000000000000853,2445,5,61,11
0.09999999999999432,2445,6,61,5
0.09999999999999432,2445,7,61,1
0.09999999999999432,2445,8,61,9
0.013636363636351234,2445,9,61,21
0.10000000000000853,2445,10,61,25
0.10000000000000853,2445,11,61,26
0.09999999999999432,2445,12,61,11
0.10000000000000853,2445,13,61,17
0.09999999999999432,2445,14,61,27
0.10000000000000853,2445,15,61,21
0.10000000000000853,2446,0,61,23
0.10000000000000853,2446,1,61,35
0.09999999999999432,2446,2,61,16
0.10000000000000853,2446,3,61,28
0.09999999999999432,2446,4,61,12
0.09999999999999432,2446,5,61,35
0.09999999999999432,2446,6,61,36
0.10000000000002274,2446,7,61,19
0.09999999999999432,2446,8,61,7
0.09999999999999432,2446,9,61,11
0.09999999999999432,2446,10,61,7
0.09999999999999432,2446,11,61,35
0.09999999999999432,2446,12,61,3
0.09999999999999432,2446,13,61,10
0.10000000000002274,2446,14,61,17
0.10000000000002274,2446,15,61,7
0.09999999999999432,2447,0,61,14
0.09999999999999432,2447,1,61,30
0.09999999999999432,2447,2,61,12
0.10000000000002274,2447,3,61,9
0.09999999999999432,2447,4,61,16
0.09999999999999432,2447,5,61,10
0.09999999999999432,2447,6,61,15
0.09999999999999432,2447,7,61,31
0.10000000000002274,2447,8,61,13
0.09999999999999432,2447,9,61,23
0.10000000000002274,2447,10,61,18
0.09999999999999432,2447,11,61,17
0.09999999999999432,2447,12,61,24
0.09999999999999432,2447,13,61,25
0.09999999999999432,2447,14,61,10
0.10000000000002274,2447,15,61,11
0.09999999999999432,2448,0,61,31
0.09999999999999432,2448,1,61,6
0.10000000000002274,2448,2,61,5
0.09999999999999432,2448,3,61,7
0.03636363636363171,2448,4,61,22
0.09999999999999432,2448,5,61,11
0.09999999999999432,2448,6,61,19
0.09999999999999432,2448,7,61,13
0.09999999999999432,2448,8,61,7
0.09999999999999432,2448,9,61,20
0.09999999999999432,2448,10,61,27
0.09999999999999432,2448,11,61,18
0.09999999999999432,2448,12,61,18
0.09999999999999432,2448,13,61,7
0.09999999999999432,2448,14,61,18
0.09999999999999432,2448,15,61,13
0.09999999999999432,2449,0,61,3
0.09999999999999432,2449,1,61,9
0.09999999999999432,2449,2,61,14
0.09999999999999432,2449,3,61,8
0.09999999999999432,2449,4,61,2
0.10000000000002274,2449,5,61,3
0.10000000000002274,2449,6,61,30
0.09999999999999432,2449,7,61,1
0.09999999999999432,2449,8,61,14
0.09999999999999432,2449,9,61,18
0.09999999999999432,2449,10,61,4
0.045454545454532536,2449,11,61,11
0.09999999999999432,2449,12,61,11
0.09999999999999432,2449,13,61,3
0.09999999999999432,2449,14,61,5
0.09999999999999998,2449,15,54,27
0.09999999999999987,2450,0,54,30
0.10000000000000009,2450,1,54,4
0.036363636363636376,2450,2,54,56
0.10000000000000009,2450,3,54,36
0.05681818181818166,2450,4,54,59
0.10000000000000009,2450,5,54,80
0.10000000000000009,2450,6,54,36
0.10000000000000009,2450,7,54,19
0.09999999999999964,2450,8,54,48
0.10000000000000053,2450,9,54,51
0.10000000000000053,2450,10,54,52
0.10000000000000053,2450,11,54,27
0.10000000000000053,2450,12,54,65
0.09999999999999964,2450,13,54,26
0.09999999999999964,2450,14,54,69
0.09999999999999964,2450,15,54,54
0.09999999999999964,2451,0,54,36
0.09999999999999964,2451,1,54,47
0.09999999999999964,2451,2,54,22
0.09999999999999964,2451,3,54,44
0.09999999999999964,2451,4,54,39
0.09999999999999964,2451,5,54,39
0.09999999999999964,2451,6,54,51
0.02499999999999858,2451,7,54,52
0.09999999999999787,2451,8,54,33
0.09999999999999787,2451,9,54,47
0.10000000000000142,2451,10,54,29
0.10000000000000142,2451,11,54,3
0.04772727272727195,2451,12,54,18
0.10000000000000142,2451,13,54,26
0.10000000000000142,2451,14,54,28
0.09999999999999787,2451,15,54,26
0.09999999999999787,2452,0,54,37
0.10000000000000142,2452,1,54,29
0.10000000000000142,2452,2,54,19
0.10000000000000142,2452,3,54,39
0.09999999999999787,2452,4,54,16
0.10000000000000142,2452,5,54,16
0.05681818181818343,2452,6,54,41
0.10000000000000142,2452,7,54,10
0.10000000000000142,2452,8,54,34
0.10000000000000142,2452,9,54,26
0.10000000000000142,2452,10,54,44
0.10000000000000142,2452,11,54,1
0.10000000000000142,2452,12,54,56
0.10000000000000142,2452,13,54,23
0.10000000000000142,2452,14,54,49
0.10000000000000142,2452,15,54,51
0.10000000000000142,2453,0,54,65
0.10000000000000142,2453,1,54,59
0.09999999999999432,2453,2,54,36
0.10000000000000142,2453,3,54,44
0.10000000000000142,2453,4,54,28
0.09999999999999432,2453,5,54,40
0.10000000000000142,2453,6,54,21
0.10000000000000142,2453,7,54,30
0.10000000000000142,2453,8,54,30
0.10000000000000142,2453,9,54,25
0.10000000000000142,2453,10,54,48
0.10000000000000142,2453,11,54,42
0.10000000000000142,2453,12,54,44
0.10000000000000142,2453,13,54,32
0.10000000000000142,2453,14,54,42
0.10000000000000142,2453,15,54,41
0.10000000000000142,2454,0,54,21
0.10000000000000142,2454,1,54,35
0.06818181818182012,2454,2,54,36
0.10000000000000142,2454,3,54,35
0.10000000000000142,2454,4,54,28
0.09999999999999432,2454,5,54,33
0.10000000000000142,2454,6,54,1
0.09999999999999432,2454,7,54,21
0.10000000000000142,2454,8,54,31
0.10000000000000142,2454,9,54,51
0.10000000000000142,2454,10,54,51
0.09999999999999432,2454,11,54,28
0.10000000000000142,2454,12,54,10
0.04772727272727195,2454,13,54,40
0.10000000000000142,2454,14,54,38
0.10000000000000142,2454,15,54,54
0.10000000000000142,2455,0,54,44
0.10000000000000142,2455,1,54,62
0.10000000000000142,2455,2,54,53
0.09999999999999432,2455,3,54,31
0.10000000000000142,2455,4,54,30
0.10000000000000142,2455,5,54,35
0.10000000000000142,2455,6,54,35
0.10000000000000142,2455,7,54,42
0.10000000000000142,2455,8,54,34
0.10000000000000142,2455,9,54,43
0.10000000000000142,2455,10,54,43
0.10000000000000142,2455,11,54,36
0.10000000000000142,2455,12,54,35
0.10000000000000142,2455,13,54,34
0.10000000000000142,2455,14,54,58
0.10000000000000142,2455,15,54,36
0.10000000000000142,2456,0,54,60
0.10000000000000142,2456,1,54,39
0.10000000000000142,2456,2,54,33
0.10000000000000142,2456,3,54,22
0.10000000000000142,2456,4,54,49
0.10000000000000142,2456,5,54,53
0.10000000000000142,2456,6,54,26
0.10000000000000142,2456,7,54,41
0.10000000000000142,2456,8,54,6
0.01590909090909065,2456,9,54,26
0.10000000000000853,2456,10,54,68
0.10000000000000853,2456,11,54,59
0.10000000000000853,2456,12,54,40
0.09999999999999432,2456,13,54,4
0.025000000000005684,2456,14,54,28
0.09999999999999432,2456,15,54,66
0.09999999999999432,2457,0,54,63
0.09999999999999432,2457,1,54,46
0.10000000000000853,2457,2,54,54
0.09999999999999432,2457,3,54,39
0.10000000000000853,2457,4,54,64
0.10000000000000853,2457,5,54,60
0.09999999999999432,2457,6,54,2
0.10000000000000853,2457,7,54,35
0.10000000000000853,2457,8,54,35
0.09999999999999432,2457,9,54,62
0.10000000000000853,2457,10,54,33
0.09999999999999432,2457,11,54,58
0.09999999999999432,2457,12,54,15
0.09999999999999432,2457,13,54,56
0.01590909090909065,2457,14,54,46
0.09999999999999432,2457,15,54,36
0.09999999999999432,2458,0,54,11
0.09999999999999432,2458,1,54,20
0.09999999999999432,2458,2,54,45
0.03636363636363171,2458,3,54,56
0.10000000000000853,2458,4,54,24
0.09999999999999432,2458,5,54,32
0.09999999999999432,2458,6,54,39
0.09999999999999432,2458,7,54,49
0.06818181818181301,2458,8,54,38
0.10000000000000853,2458,9,54,32
0.10000000000000853,2458,10,54,23
0.09999999999999432,2458,11,54,48
0.10000000000000853,2458,12,54,22
0.10000000000000853,2458,13,54,55
0.09999999999999432,2458,14,54,59
0.025000000000005684,2458,15,54,62
0.09999999999999432,2459,0,54,57
0.01590909090909065,2459,1,54,33
0.10000000000000853,2459,2,54,21
0.09999999999999432,2459,3,54,58
0.09999999999999432,2459,4,54,47
0.09999999999999432,2459,5,54,53
0.03636363636363171,2459,6,54,36
0.09999999999999432,2459,7,54,75
0.10000000000000853,2459,8,54,60
0.09999999999999432,2459,9,54,37
0.09999999999999432,2459,10,54,39
0.10000000000000853,2459,11,54,61
0.10000000000000853,2459,12,54,41
0.09999999999999432,2459,13,54,54
0.10000000000000853,2459,14,54,49
0.09999999999999432,2459,15,54,41
0.01590909090909065,2460,0,54,68
0.10000000000000853,2460,1,54,26
0.09999999999999432,2460,2,54,12
0.09999999999999432,2460,3,54,28
0.013636363636365445,2460,4,54,24
0.09999999999999432,2460,5,54,57
0.09999999999999432,2460,6,54,21
0.09999999999999432,2460,7,54,58
0.10000000000000853,2460,8,54,56
0.10000000000000853,2460,9,54,30
0.09999999999999432,2460,10,54,23
0.09999999999999432,2460,11,54,38
0.09999999999999432,2460,12,54,79
0.09999999999999432,2460,13,54,23
0.09999999999999432,2460,14,54,54
0.09999999999999432,2460,15,54,55
0.03636363636363171,2461,0,54,56
0.10000000000000853,2461,1,54,74
0.01590909090909065,2461,2,54,48
0.10000000000000853,2461,3,54,24
0.09999999999999432,2461,4,54,68
0.10000000000000853,2461,5,54,79
0.056818181818186986,2461,6,54,83
0.10000000000000853,2461,7,54,33
0.10000000000000853,2461,8,54,34
0.09999999999999432,2461,9,54,27
0.10000000000000853,2461,10,54,18
0.10000000000000853,2461,11,54,27
0.09999999999999432,2461,12,54,30
0.09999999999999432,2461,13,54,21
0.09999999999999432,2461,14,54,30
0.09999999999999432,2461,15,54,22
0.09999999999999432,2462,0,54,34
0.10000000000000853,2462,1,54,40
0.09999999999999432,2462,2,54,21
0.10000000000000853,2462,3,54,16
0.09999999999999432,2462,4,54,42
0.09999999999999432,2462,5,54,39
0.09999999999999432,2462,6,54,50
0.10000000000000853,2462,7,54,52
0.09999999999999432,2462,8,54,41
0.10000000000000853,2462,9,54,18
0.10000000000000853,2462,10,54,21
0.10000000000000853,2462,11,54,40
0.10000000000000853,2462,12,54,29
0.10000000000000853,2462,13,54,20
0.09999999999999432,2462,14,54,22
0.056818181818172775,2462,15,54,40
0.10000000000000853,2463,0,54,20
0.09999999999999432,2463,1,54,33
0.10000000000000853,2463,2,54,35
0.10000000000000853,2463,3,54,9
0.09999999999999432,2463,4,54,38
0.10000000000000853,2463,5,54,47
0.10000000000000853,2463,6,54,55
0.10000000000000853,2463,7,54,38
0.09999999999999432,2463,8,54,38
0.10000000000000853,2463,9,54,56
0.10000000000000853,2463,10,54,63
0.09999999999999432,2463,11,54,31
0.10000000000000853,2463,12,54,38
0.09999999999999432,2463,13,54,22
0.09999999999999432,2463,14,54,22
0.10000000000000853,2463,15,54,55
0.04772727272727195,2464,0,54,54
0.09999999999999432,2464,1,54,54
0.10000000000000853,2464,2,54,36
0.09999999999999432,2464,3,54,57
0.09999999999999432,2464,4,54,22
0.10000000000000853,2464,5,54,19
0.004545454545464622,2464,6,54,24
0.10000000000000853,2464,7,54,47
0.09999999999999432,2464,8,54,33
0.09999999999999432,2464,9,54,34
0.10000000000000853,2464,10,54,37
0.10000000000000853,2464,11,54,41
0.10000000000000853,2464,12,54,24
0.09999999999999432,2464,13,54,1
0.10000000000000853,2464,14,54,27
0.09999999999999432,2464,15,54,36
0.10000000000000853,2465,0,54,1
0.02727272727273089,2465,1,54,25
0.10000000000000853,2465,2,54,45
0.09999999999999432,2465,3,54,8
0.09999999999999432,2465,4,54,25
0.09999999999999432,2465,5,54,60
0.09999999999999432,2465,6,54,47
0.09999999999999432,2465,7,54,50
0.10000000000000853,2465,8,54,44
0.09999999999999432,2465,9,54,85
0.04772727272727195,2465,10,54,92
0.036363636363645924,2465,11,54,80
0.09999999999999432,2465,12,54,87
0.09999999999999432,2465,13,54,30
0.09999999999999432,2465,14,54,10
0.06818181818181301,2465,15,54,20
0.09999999999999432,2466,0,54,60
0.09999999999999432,2466,1,54,38
0.045454545454532536,2466,2,54,33
0.09999999999999432,2466,3,54,27
0.09999999999999432,2466,4,54,53
0.10000000000002274,2466,5,54,53
0.10000000000002274,2466,6,54,40
0.09999999999999432,2466,7,54,47
0.10000000000002274,2466,8,54,40
0.09999999999999432,2466,9,54,21
0.09999999999999432,2466,10,54,50
0.09999999999999432,2466,11,54,39
0.09999999999999432,2466,12,54,21
0.09999999999999432,2466,13,54,42
0.09999999999999432,2466,14,54,48
0.10000000000002274,2466,15,54,55
0.10000000000002274,2467,0,54,24
0.09999999999999432,2467,1,54,46
0.09999999999999432,2467,2,54,21
0.09999999999999432,2467,3,54,38
0.09999999999999432,2467,4,54,45
0.10000000000002274,2467,5,54,1
0.09999999999999432,2467,6,54,43
0.09999999999999432,2467,7,54,47
0.10000000000002274,2467,8,54,44
0.09999999999999432,2467,9,54,35
0.09999999999999432,2467,10,54,27
0.09999999999999432,2467,11,54,34
0.09999999999999432,2467,12,54,57
0.09999999999999432,2467,13,54,73
0.09999999999999432,2467,14,54,54
0.09999999999999432,2467,15,54,17
0.09999999999999432,2468,0,54,36
0.10000000000002274,2468,1,54,12
0.09999999999999432,2468,2,54,41
0.09999999999999432,2468,3,54,30
0.09999999999999432,2468,4,54,34
0.10000000000002274,2468,5,54,47
0.09999999999999432,2468,6,54,23
0.09999999999999432,2468,7,54,26
0.09999999999999432,2468,8,54,56
0.03636363636363171,2468,9,54,69
0.10000000000002274,2468,10,54,57
0.09999999999999432,2468,11,54,66
0.09999999999999432,2468,12,54,36
0.10000000000002274,2468,13,54,17
0.09999999999999432,2468,14,54,40
0.09999999999999432,2468,15,54,39
0.09999999999999432,2469,0,54,24
0.09999999999999432,2469,1,54,65
0.09999999999999432,2469,2,54,24
0.09999999999999432,2469,3,54,57
0.09999999999999432,2469,4,54,65
0.09999999999999432,2469,5,54,46
0.09999999999999432,2469,6,54,45
0.09999999999999432,2469,7,54,55
0.09999999999999432,2469,8,54,37
0.09999999999999432,2469,9,54,1
0.10000000000002274,2469,10,54,28
0.09999999999999432,2469,11,54,34
0.09999999999999432,2469,12,54,13
0.04772727272728616,2469,13,54,31
0.09999999999999432,2469,14,54,30
0.09999999999999432,2469,15,54,46
0.09999999999999432,2470,0,54,42
0.09999999999999432,2470,1,54,13
0.09999999999999432,2470,2,54,13
0.10000000000002274,2470,3,54,25
0.09999999999999432,2470,4,54,25
0.10000000000002274,2470,5,54,41
0.09999999999999432,2470,6,54,37
0.10000000000002274,2470,7,54,20
0.09999999999999432,2470,8,54,39
0.10000000000002274,2470,9,54,34
0.09999999999999432,2470,10,54,43
0.05909090909091219,2470,11,54,28
0.09999999999999432,2470,12,54,46
0.09999999999999432,2470,13,54,16
0.09999999999999432,2470,14,54,20
0.09999999999999432,2470,15,54,58
0.09999999999999432,2471,0,54,47
0.10000000000002274,2471,1,54,21
0.09999999999999432,2471,2,54,5
0.09999999999999432,2471,3,54,28
0.09999999999999432,2471,4,54,33
0.09999999999999432,2471,5,54,42
0.06818181818181301,2471,6,54,50
0.09999999999999432,2471,7,54,58
0.09999999999999432,2471,8,54,67
0.09999999999999432,2471,9,54,57
0.09999999999999432,2471,10,54,1
0.10000000000002274,2471,11,54,59
0.09999999999999432,2471,12,54,52
0.09999999999999432,2471,13,54,67
0.09999999999999432,2471,14,54,64
0.01590909090910486,2471,15,54,82
0.09999999999999432,2472,0,54,57
0.09999999999999432,2472,1,54,75
0.09999999999999432,2472,2,54,54
0.10000000000002274,2472,3,54,81
0.09999999999999432,2472,4,54,50
0.09999999999999432,2472,5,54,79
0.09999999999999432,2472,6,54,33
0.09999999999999432,2472,7,54,36
0.09999999999999432,2472,8,54,32
0.09999999999999432,2472,9,54,39
0.09999999999999432,2472,10,54,75
0.09999999999999432,2472,11,54,34
0.10000000000002274,2472,12,54,59
0.09999999999999432,2472,13,54,25
0.09999999999999432,2472,14,54,58
0.09999999999999432,2472,15,54,58
0.09999999999999432,2473,0,54,63
0.09999999999999432,2473,1,54,60
0.09999999999999432,2473,2,54,48
0.09999999999999432,2473,3,54,47
0.09999999999999432,2473,4,54,41
0.09999999999999432,2473,5,54,50
0.09999999999999432,2473,6,54,37
0.09999999999999432,2473,7,54,16
0.10000000000002274,2473,8,54,25
0.09999999999999432,2473,9,54,42
0.10000000000002274,2473,10,54,51
0.09999999999999432,2473,11,54,59
0.09999999999999432,2473,12,54,36
0.09999999999999432,2473,13,54,50
0.09999999999999432,2473,14,54,44
0.09999999999999432,2473,15,54,29
0.09999999999999432,2474,0,54,41
0.09999999999999432,2474,1,54,38
0.09999999999999432,2474,2,54,70
0.10000000000002274,2474,3,54,51
0.09999999999999432,2474,4,54,90
0.09999999999999432,2474,5,54,54
0.10000000000002274,2474,6,54,35
0.09999999999999432,2474,7,54,36
0.09999999999999432,2474,8,54,38
0.09999999999999432,2474,9,54,60
0.09999999999999432,2474,10,54,56
0.09999999999999432,2474,11,54,24
0.10000000000002274,2474,12,54,50
0.09999999999999432,2474,13,54,44
0.09999999999999432,2474,14,54,46
0.09999999999999432,2474,15,54,64
0.01590909090907644,2475,0,54,89
0.09999999999999432,2475,1,54,60
0.09999999999999432,2475,2,54,58
0.09999999999999432,2475,3,54,10
0.09999999999999432,2475,4,54,40
0.10000000000002274,2475,5,54,53
0.09999999999999432,2475,6,54,45
0.09999999999999432,2475,7,54,55
0.10000000000002274,2475,8,54,63
0.10000000000002274,2475,9,54,42
0.09999999999999432,2475,10,54,25
0.10000000000002274,2475,11,54,44
0.09999999999999432,2475,12,54,34
0.09999999999999432,2475,13,54,50
0.09999999999999432,2475,14,54,57
0.10000000000002274,2475,15,54,45
0.09999999999999432,2476,0,54,59
0.09999999999999432,2476,1,54,51
0.09999999999999432,2476,2,54,1
0.09999999999999432,2476,3,54,60
0.10000000000002274,2476,4,54,50
0.09999999999999432,2476,5,54,42
0.09999999999999432,2476,6,54,46
0.09999999999999432,2476,7,54,52
0.09999999999999432,2476,8,54,45
0.09999999999999432,2476,9,54,53
0.09999999999999432,2476,10,54,41
0.10000000000002274,2476,11,54,55
0.09999999999999432,2476,12,54,5
0.09999999999999432,2476,13,54,52
0.10000000000002274,2476,14,54,51
0.09999999999999432,2476,15,54,37
0.05909090909091219,2477,0,54,69
0.09999999999999432,2477,1,54,1
0.09999999999999998,2477,2,63,1
0.09999999999999998,2477,3,63,49
0.09999999999999987,2477,4,63,45
0.09999999999999987,2477,5,63,41
0.10000000000000009,2477,6,63,51
0.10000000000000009,2477,7,63,62
0.10000000000000009,2477,8,63,57
0.10000000000000009,2477,9,63,45
0.09999999999999964,2477,10,63,41
0.10000000000000053,2477,11,63,48
0.10000000000000053,2477,12,63,43
0.09999999999999964,2477,13,63,39
0.09999999999999964,2477,14,63,42
0.09999999999999964,2477,15,63,61
0.09999999999999964,2478,0,63,39
0.09999999999999964,2478,1,63,44
0.09999999999999964,2478,2,63,44
0.10000000000000053,2478,3,63,51
0.10000000000000053,2478,4,63,53
0.09999999999999964,2478,5,63,34
0.09999999999999964,2478,6,63,37
0.10000000000000142,2478,7,63,38
0.09999999999999964,2478,8,63,45
0.09999999999999964,2478,9,63,40
0.09999999999999964,2478,10,63,65
0.10000000000000142,2478,11,63,44
0.09999999999999964,2478,12,63,27
0.06818181818181834,2478,13,63,35
0.09999999999999964,2478,14,63,36
0.09999999999999964,2478,15,63,35
0.09999999999999964,2479,0,63,57
0.10000000000000142,2479,1,63,59
0.09999999999999964,2479,2,63,44
0.09999999999999964,2479,3,63,50
0.09999999999999964,2479,4,63,11
0.06818181818181834,2479,5,63,24
0.03636363636363704,2479,6,63,36
0.09999999999999964,2479,7,63,34
0.09999999999999964,2479,8,63,56
0.09999999999999964,2479,9,63,48
0.10000000000000142,2479,10,63,48
0.10000000000000142,2479,11,63,40
0.09999999999999964,2479,12,63,40
0.09999999999999787,2479,13,63,50
0.10000000000000142,2479,14,63,50
0.10000000000000142,2479,15,63,50
0.10000000000000142,2480,0,63,41
0.10000000000000142,2480,1,63,36
0.10000000000000142,2480,2,63,53
0.09999999999999787,2480,3,63,49
0.10000000000000142,2480,4,63,28
0.10000000000000142,2480,5,63,29
0.09999999999999432,2480,6,63,18
0.09999999999999432,2480,7,63,19
0.09999999999999432,2480,8,63,23
0.10000000000000003,2480,9,103,67
0.10000000000000009,2480,10,103,119
0.09999999999999998,2480,11,103,127
0.09999999999999998,2480,12,103,29
0.10000000000000009,2480,13,103,107
0.10000000000000009,2480,14,103,127
0.09999999999999987,2480,15,103,31
0.10000000000000009,2481,0,103,107
0.09999999999999987,2481,1,103,127
0.10000000000000009,2481,2,103,117
0.10000000000000009,2481,3,103,113
0.09999999999999964,2481,4,103,127
0.09999999999999964,2481,5,103,123
0.09999999999999964,2481,6,103,11
0.10000000000000009,2481,7,103,127
0.10000000000000009,2481,8,103,113
0.09999999999999964,2481,9,103,127
0.10000000000000053,2481,10,103,78
0.10000000000000053,2481,11,103,116
0.09999999999999964,2481,12,103,11
0.09999999999999964,2481,13,103,2
0.10000000000000053,2481,14,103,127
0.09999999999999964,2481,15,103,23
0.10000000000000053,2482,0,103,114
0.10000000000000053,2482,1,103,9
0.09999999999999964,2482,2,103,127
0.09999999999999964,2482,3,103,85
0.10000000000000053,2482,4,103,127
0.09999999999999964,2482,5,103,96
0.09999999999999964,2482,6,103,11
0.10000000000000053,2482,7,103,2
0.09999999999999964,2482,8,103,127
0.10000000000000053,2482,9,103,18
0.09999999999999964,2482,10,103,127
0.10000000000000053,2482,11,103,10
0.09999999999999964,2482,12,103,127
0.10000000000000142,2482,13,103,119
0.10000000000000142,2482,14,103,4
0.013636363636363669,2482,15,103,127
0.09999999999999964,2483,0,103,80
0.09999999999999964,2483,1,103,109
0.09999999999999964,2483,2,103,11
0.09999999999999964,2483,3,103,2
0.09999999999999964,2483,4,103,127
0.10000000000000142,2483,5,103,15
0.09999999999999964,2483,6,103,119
0.09999999999999964,2483,7,103,9
0.09999999999999964,2483,8,103,127
0.09999999999999964,2483,9,103,121
0.09999999999999964,2483,10,103,4
0.0045454545454557405,2483,11,103,127
0.10000000000000142,2483,12,103,115
0.09999999999999964,2483,13,103,9
0.09999999999999964,2483,14,103,2
0.09999999999999964,2483,15,103,127
0.10000000000000142,2484,0,103,127
0.10000000000000142,2484,1,103,9
0.09999999999999964,2484,2,103,127
0.09999999999999964,2484,3,103,127
0.09999999999999964,2484,4,103,127
0.09999999999999964,2484,5,103,119
0.09999999999999964,2484,6,103,10
0.09999999999999964,2484,7,103,2
0.004545454545453964,2484,8,103,127
0.10000000000000142,2484,9,103,8
0.09999999999999964,2484,10,103,127
0.09999999999999964,2484,11,103,8
0.09999999999999964,2484,12,103,127
0.09999999999999964,2484,13,103,125
0.09999999999999964,2484,14,103,6
0.10000000000000142,2484,15,103,127
0.10000000000000142,2485,0,103,107
0.09999999999999964,2485,1,103,10
0.09999999999999964,2485,2,103,2
0.09999999999999964,2485,3,103,127
0.10000000000000142,2485,4,103,14
0.10000000000000142,2485,5,103,123
0.10000000000000142,2485,6,103,9
0.10000000000000142,2485,7,103,127
0.10000000000000142,2485,8,103,127
0.09999999999999787,2485,9,103,61
0.004545454545453964,2485,10,103,127
0.09999999999999787,2485,11,103,82
0.10000000000000142,2485,12,103,127
0.10000000000000142,2485,13,103,127
0.10000000000000142,2485,14,103,127
0.10000000000000142,2485,15,103,127
0.10000000000000142,2486,0,103,8
0.09999999999999787,2486,1,103,121
0.09999999999999787,2486,2,103,3
0.09999999999999787,2486,3,103,127
0.09999999999999787,2486,4,103,127
0.09999999999999787,2486,5,103,4
0.0022727272727252057,2486,6,103,127
0.09999999999999787,2486,7,103,121
0.10000000000000142,2486,8,103,3
0.09999999999999787,2486,9,103,5
0.10000000000000142,2486,10,103,2
0.004545454545453964,2486,11,103,127
0.09999999999999787,2486,12,103,8
0.09999999999999787,2486,13,103,122
0.10000000000000142,2486,14,103,3
0.09999999999999787,2486,15,103,5
0.10000000000000142,2487,0,103,127
0.09999999999999787,2487,1,103,127
0.10000000000000142,2487,2,103,5
0.0022727272727287584,2487,3,103,127
0.10000000000000142,2487,4,103,124
0.10000000000000142,2487,5,103,4
0.10000000000000142,2487,6,103,4
0.004545454545457517,2487,7,103,127
0.10000000000000142,2487,8,103,10
0.10000000000000142,2487,9,103,127
0.10000000000000142,2487,10,103,4
0.10000000000000142,2487,11,103,127
0.10000000000000142,2487,12,103,127
0.09999999999999787,2487,13,103,4
0.01590909090909065,2487,14,103,127
0.10000000000000142,2487,15,103,108
0.10000000000000142,2488,0,103,4
0.09999999999999787,2488,1,103,1
0.10000000000000142,2488,2,103,127
0.10000000000000142,2488,3,103,11
0.10000000000000142,2488,4,103,127
0.09999999999999787,2488,5,103,3
0.0022727272727252057,2488,6,103,4
0.09999999999999787,2488,7,103,127
0.10000000000000142,2488,8,103,127
0.10000000000000142,2488,9,103,127
0.10000000000000142,2488,10,103,127
0.09999999999999787,2488,11,103,5
0.09999999999999787,2488,12,103,1
0.10000000000000142,2488,13,103,127
0.09999999999999787,2488,14,103,7
0.09999999999999787,2488,15,103,127
0.09999999999999787,2489,0,103,4
0.09999999999999787,2489,1,103,127
0.09999999999999787,2489,2,103,127
0.10000000000000142,2489,3,103,4
0.013636363636361892,2489,4,103,127
0.10000000000000142,2489,5,103,125
0.09999999999999787,2489,6,103,4
0.10000000000000142,2489,7,103,2
0.004545454545457517,2489,8,103,127
0.10000000000000142,2489,9,103,10
0.10000000000000142,2489,10,103,127
0.10000000000000142,2489,11,103,1
0.10000000000000142,2489,12,103,5
0.10000000000000142,2489,13,103,127
0.10000000000000142,2489,14,103,103
0.10000000000000142,2489,15,103,127
0.10000000000000142,2490,0,103,119
0.10000000000000142,2490,1,103,5
0.10000000000000142,2490,2,103,1
0.0022727272727287584,2490,3,103,127
0.10000000000000142,2490,4,103,16
0.10000000000000142,2490,5,103,97
0.10000000000000142,2490,6,103,1
0.0022727272727252057,2490,7,103,5
0.10000000000000142,2490,8,103,2
0.013636363636365445,2490,9,103,127
0.09999999999999432,2490,10,103,127
0.10000000000000142,2490,11,103,103
0.10000000000000142,2490,12,103,1
0.10000000000000142,2490,13,103,4
0.10000000000000142,2490,14,103,1
0.004545454545457517,2490,15,103,127
0.10000000000000142,2491,0,103,11
0.10000000000000142,2491,1,103,118
0.10000000000000142,2491,2,103,4
0.10000000000000142,2491,3,103,127
0.10000000000000142,2491,4,103,109
0.10000000000000142,2491,5,103,127
0.10000000000000142,2491,6,103,112
0.09999999999999432,2491,7,103,1
0.004545454545450411,2491,8,103,5
0.10000000000000142,2491,9,103,1
0.004545454545457517,2491,10,103,127
0.10000000000000142,2491,11,103,15
0.10000000000000142,2491,12,103,122
0.10000000000000142,2491,13,103,5
0.10000000000000142,2491,14,103,127
0.10000000000000142,2491,15,103,105
0.10000000000000142,2492,0,103,127
0.10000000000000142,2492,1,103,111
0.10000000000000142,2492,2,103,1
0.004545454545457517,2492,3,103,4
0.09999999999999432,2492,4,103,1
0.01363636363635834,2492,5,103,127
0.09999999999999432,2492,6,103,9
0.09999999999999432,2492,7,103,120
0.10000000000000142,2492,8,103,1
0.10000000000000142,2492,9,103,5
0.10000000000000142,2492,10,103,127
0.09999999999999432,2492,11,103,109
0.09999999999999432,2492,12,103,127
0.10000000000000142,2492,13,103,110
0.10000000000000142,2492,14,103,3
0.10000000000000142,2492,15,103,1
0.004545454545457517,2493,0,103,127
0.09999999999999432,2493,1,103,13
0.10000000000000142,2493,2,103,111
0.10000000000000142,2493,3,103,5
0.10000000000000142,2493,4,103,1
0.0022727272727252057,2493,5,103,127
0.10000000000000142,2493,6,103,127
0.10000000000000142,2493,7,103,122
0.10000000000000142,2493,8,103,1
0.004545454545457517,2493,9,103,5
0.09999999999999432,2493,10,103,1
0.01590909090909065,2493,11,103,127
0.10000000000000142,2493,12,103,11
0.10000000000000142,2493,13,103,110
0.10000000000000142,2493,14,103,5
0.09999999999999432,2493,15,103,127
0.10000000000000142,2494,0,103,105
0.09999999999999432,2494,1,103,127
0.10000000000000142,2494,2,103,122
0.10000000000000142,2494,3,103,5
0.10000000000000142,2494,4,103,1
0.10000000000000142,2494,5,103,127
0.10000000000000142,2494,6,103,9
0.09999999999999432,2494,7,103,1
0.01363636363635834,2494,8,103,110
0.10000000000000142,2494,9,103,1
0.09999999999999432,2494,10,103,5
0.10000000000000142,2494,11,103,127
0.09999999999999432,2494,12,103,100
0.10000000000000142,2494,13,103,127
0.10000000000000142,2494,14,103,111
0.10000000000000142,2494,15,103,4
0.10000000000000142,2495,0,103,1
0.01590909090909065,2495,1,103,127
0.10000000000000142,2495,2,103,9
0.10000000000000142,2495,3,103,115
0.10000000000000142,2495,4,103,1
0.0022727272727252057,2495,5,103,5
0.10000000000000142,2495,6,103,127
0.10000000000000142,2495,7,103,73
0.10000000000000142,2495,8,103,127
0.10000000000000142,2495,9,103,125
0.10000000000000142,2495,10,103,1
0.10000000000000142,2495,11,103,4
0.09999999999999432,2495,12,103,1
0.004545454545450411,2495,13,103,127
0.10000000000000142,2495,14,103,13
0.10000000000000142,2495,15,103,109
0.10000000000000142,2496,0,103,5
0.09999999999999432,2496,1,103,127
0.10000000000000142,2496,2,103,112
0.10000000000000142,2496,3,103,127
0.10000000000000142,2496,4,103,116
0.10000000000000142,2496,5,103,4
0.10000000000000142,2496,6,103,2
0.004545454545457517,2496,7,103,127
0.10000000000000142,2496,8,103,127
0.10000000000000142,2496,9,103,44
0.10000000000000142,2496,10,103,121
0.10000000000000142,2496,11,103,127
0.10000000000000142,2496,12,103,45
0.09999999999999432,2496,13,103,127
0.10000000000000142,2496,14,103,127
0.10000000000000142,2496,15,103,36
0.09999999999999432,2497,0,103,127
0.10000000000000142,2497,1,103,96
0.10000000000000142,2497,2,103,93
0.10000000000000142,2497,3,103,127
0.10000000000000142,2497,4,103,127
0.09999999999999432,2497,5,103,127
0.09999999999999432,2497,6,103,105
0.10000000000000142,2497,7,103,127
0.10000000000000142,2497,8,103,127
0.10000000000000142,2497,9,103,4
0.10000000000000142,2497,10,103,127
0.09999999999999432,2497,11,103,117
0.10000000000000142,2497,12,103,3
0.10000000000000142,2497,13,103,127
0.09999999999999432,2497,14,103,109
0.10000000000000142,2497,15,103,127
0.09999999999999432,2498,0,103,127
0.10000000000000142,2498,1,103,3
0.10000000000000142,2498,2,103,1
0.0022727272727252057,2498,3,103,127
0.09999999999999432,2498,4,103,19
0.09999999999999432,2498,5,103,95
0.10000000000000142,2498,6,103,5
0.10000000000000142,2498,7,103,127
0.09999999999999432,2498,8,103,105
0.10000000000000142,2498,9,103,127
0.09999999999999432,2498,10,103,126
0.09999999999999432,2498,11,103,3
0.10000000000000142,2498,12,103,3
0.10000000000000142,2498,13,103,127
0.10000000000000142,2498,14,103,65
0.09999999999999432,2498,15,103,9
0.10000000000000142,2499,0,103,2
0.004545454545457517,2499,1,103,106
0.09999999999999432,2499,2,103,2
0.10000000000000142,2499,3,103,3
0.10000000000000142,2499,4,103,127
0.10000000000000142,2499,5,103,106
0.10000000000000142,2499,6,103,11
0.10000000000000142,2499,7,103,127
0.10000000000000142,2499,8,103,70
0.004545454545457517,2499,9,103,75
0.10000000000000142,2499,10,103,2
0.10000000000000142,2499,11,103,4
0.09999999999999432,2499,12,103,3
0.10000000000000142,2499,13,103,127
0.10000000000000142,2499,14,103,67
0.10000000000000142,2499,15,103,11
0.10000000000000142,2500,0,103,2
0.10000000000000142,2500,1,103,94
0.10000000000000142,2500,2,103,2
0.10000000000000142,2500,3,103,3
0.10000000000000142,2500,4,103,127
0.10000000000000142,2500,5,103,105
0.10000000000000142,2500,6,103,10
0.004545454545457517,2500,7,103,127
0.10000000000000142,2500,8,103,69
0.004545454545450411,2500,9,103,84
0.10000000000000142,2500,10,103,2
0.10000000000000853,2500,11,103,3
0.10000000000000853,2500,12,103,2
0.10000000000000853,2500,13,103,127
0.10000000000000853,2500,14,103,62
0.09999999999999432,2500,15,103,8
0.09999999999999432,2501,0,103,2
0.004545454545450411,2501,1,103,95
0.09999999999999432,2501,2,103,2
0.09999999999999432,2501,3,103,4
0.09999999999999432,2501,4,103,127
0.10000000000000853,2501,5,103,106
0.10000000000000853,2501,6,103,127
0.10000000000000853,2501,7,103,103
0.09999999999999432,2501,8,103,3
0.09999999999999432,2501,9,103,5
0.09999999999999432,2501,10,103,3
0.09999999999999432,2501,11,103,127
0.09999999999999432,2501,12,103,68
0.10000000000000853,2501,13,103,12
0.09999999999999432,2501,14,103,2
0.10000000000000853,2501,15,103,92
0.10000000000000853,2502,0,103,2
0.10000000000000853,2502,1,103,5
0.10000000000000853,2502,2,103,127
0.09999999999999432,2502,3,103,105
0.09999999999999432,2502,4,103,9
0.004545454545450411,2502,5,103,127
0.09999999999999432,2502,6,103,76
0.09999999999999432,2502,7,103,92
0.10000000000000853,2502,8,103,2
0.10000000000000853,2502,9,103,3
0.10000000000000853,2502,10,103,3
0.0022727272727252057,2502,11,103,97
0.09999999999999432,2502,12,103,127
0.09999999999999432,2502,13,103,107
0.10000000000000853,2502,14,103,38
0.10000000000000853,2502,15,103,127
0.09999999999999432,2503,0,103,127
0.10000000000000853,2503,1,103,93
0.09999999999999432,2503,2,103,37
0.09999999999999432,2503,3,103,127
0.09999999999999432,2503,4,103,127
0.09999999999999432,2503,5,103,117
0.09999999999999432,2503,6,103,13
0.10000000000000853,2503,7,103,106
0.10000000000000853,2503,8,103,87
0.09999999999999432,2503,9,103,127
0.09999999999999432,2503,10,103,102
0.10000000000000853,2503,11,103,127
0.09999999999999432,2503,12,103,127
0.09999999999999432,2503,13,103,118
0.09999999999999432,2503,14,103,5
0.10000000000000853,2503,15,103,127
0.10000000000000853,2504,0,103,77
0.09999999999999432,2504,1,103,10
0.09999999999999432,2504,2,103,91
0.09999999999999432,2504,3,103,2
0.10000000000000853,2504,4,103,4
0.09999999999999432,2504,5,103,127
0.10000000000000853,2504,6,103,111
0.10000000000000853,2504,7,103,9
0.004545454545464622,2504,8,103,127
0.10000000000000853,2504,9,103,69
0.004545454545464622,2504,10,103,95
0.09999999999999432,2504,11,103,4
0.09999999999999432,2504,12,103,2
0.004545454545450411,2504,13,103,127
0.09999999999999432,2504,14,103,76
0.10000000000000853,2504,15,103,11
0.09999999999999432,2505,0,103,2
0.004545454545450411,2505,1,103,89
0.09999999999999432,2505,2,103,4
0.09999999999999432,2505,3,103,3
0.004545454545450411,2505,4,103,127
0.09999999999999432,2505,5,103,69
0.09999999999999432,2505,6,103,127
0.09999999999999432,2505,7,103,67
0.004545454545450411,2505,8,103,87
0.09999999999999432,2505,9,103,2
0.09999999999999432,2505,10,103,4
0.10000000000000853,2505,11,103,2
0.004545454545464622,2505,12,103,127
0.10000000000000853,2505,13,103,73
0.09999999999999432,2505,14,103,9
0.09999999999999432,2505,15,103,2
0.013636363636365445,2506,0,103,94
0.09999999999999432,2506,1,103,2
0.10000000000000853,2506,2,103,3
0.09999999999999432,2506,3,103,127
0.10000000000000853,2506,4,103,111
0.09999999999999432,2506,5,103,11
0.09999999999999432,2506,6,103,127
0.10000000000000853,2506,7,103,92
0.09999999999999432,2506,8,103,4
0.09999999999999432,2506,9,103,2
0.09999999999999432,2506,10,103,127
0.09999999999999432,2506,11,103,102
0.09999999999999432,2506,12,103,4
0.10000000000000853,2506,13,103,127
0.09999999999999432,2506,14,103,108
0.09999999999999432,2506,15,103,127
0.09999999999999432,2507,0,103,69
0.0022727272727252057,2507,1,103,90
0.09999999999999432,2507,2,103,4
0.10000000000000853,2507,3,103,3
0.0022727272727394165,2507,4,103,127
0.09999999999999432,2507,5,103,83
0.09999999999999432,2507,6,103,12
0.09999999999999432,2507,7,103,3
0.004545454545450411,2507,8,103,93
0.09999999999999432,2507,9,103,2
0.09999999999999432,2507,10,103,4
0.09999999999999432,2507,11,103,127
0.10000000000000853,2507,12,103,115
0.09999999999999432,2507,13,103,11
0.10000000000000853,2507,14,103,127
0.10000000000000853,2507,15,103,76
0.10000000000000853,2508,0,103,102
0.09999999999999432,2508,1,103,4
0.09999999999999432,2508,2,103,2
0.09999999999999432,2508,3,103,127
0.09999999999999432,2508,4,103,76
0.10000000000000853,2508,5,103,14
0.10000000000000853,2508,6,103,1
0.004545454545464622,2508,7,103,97
0.09999999999999432,2508,8,103,4
0.10000000000000853,2508,9,103,2
0.09999999999999432,2508,10,103,127
0.09999999999999432,2508,11,103,67
0.09999999999999432,2508,12,103,127
0.09999999999999432,2508,13,103,53
0.004545454545450411,2508,14,103,86
0.10000000000000853,2508,15,103,2
0.10000000000000853,2509,0,103,4
0.10000000000000853,2509,1,103,2
0.10000000000000853,2509,2,103,127
0.10000000000000853,2509,3,103,80
0.09999999999999432,2509,4,103,11
0.09999999999999432,2509,5,103,2
0.09999999999999432,2509,6,103,98
0.09999999999999432,2509,7,103,2
0.09999999999999432,2509,8,103,4
0.09999999999999432,2509,9,103,2
0.09999999999999432,2509,10,103,127
0.10000000000000853,2509,11,103,75
0.10000000000000853,2509,12,103,127
0.10000000000000853,2509,13,103,69
0.09999999999999432,2509,14,103,106
0.10000000000000853,2509,15,103,9
0.09999999999999432,2510,0,103,127
0.10000000000000853,2510,1,103,127
0.10000000000000853,2510,2,103,127
0.09999999999999432,2510,3,103,127
0.09999999999999432,2510,4,103,127
0.09999999999999432,2510,5,103,127
0.09999999999999432,2510,6,103,46
0.013636363636365445,2510,7,103,55
0.09999999999999432,2510,8,103,101
0.09999999999999432,2510,9,103,71
0.09999999999999432,2510,10,103,69
0.09999999999999432,2510,11,103,127
0.10000000000000853,2510,12,103,92
0.10000000000000853,2510,13,103,127
0.09999999999999432,2510,14,103,95
0.09999999999999432,2510,15,103,127
0.09999999999999432,2511,0,103,93
0.10000000000000853,2511,1,103,7
0.10000000000000853,2511,2,103,127
0.09999999999999432,2511,3,103,7
0.09999999999999432,2511,4,103,98
0.10000000000000853,2511,5,103,5
0.09999999999999432,2511,6,103,127
0.10000000000000853,2511,7,103,88
0.10000000000000853,2511,8,103,127
0.10000000000000853,2511,9,103,100
0.09999999999999432,2511,10,103,7
0.09999999999999432,2511,11,103,2
0.004545454545450411,2511,12,103,127
0.10000000000000853,2511,13,103,12
0.10000000000000853,2511,14,103,2
0.09999999999999432,2511,15,103,93
0.09999999999999432,2512,0,103,5
0.10000000000000853,2512,1,103,127
0.09999999999999432,2512,2,103,101
0.09999999999999432,2512,3,103,127
0.09999999999999432,2512,4,103,89
0.10000000000000853,2512,5,103,5
0.10000000000000853,2512,6,103,2
0.004545454545464622,2512,7,103,127
0.09999999999999432,2512,8,103,57
0.09999999999999432,2512,9,103,9
0.09999999999999432,2512,10,103,2
0.06818181818181301,2512,11,103,2
0.013636363636365445,2512,12,103,100
0.09999999999999432,2512,13,103,5
0.10000000000000853,2512,14,103,127
0.10000000000000853,2512,15,103,105
0.10000000000000853,2513,0,103,127
0.10000000000000853,2513,1,103,100
0.09999999999999432,2513,2,103,7
0.10000000000000853,2513,3,103,3
0.06590909090908781,2513,4,103,4
0.004545454545450411,2513,5,103,127
0.10000000000000853,2513,6,103,12
0.10000000000000853,2513,7,103,2
0.10000000000000853,2513,8,103,90
0.09999999999999432,2513,9,103,5
0.10000000000000853,2513,10,103,127
0.09999999999999432,2513,11,103,109
0.09999999999999432,2513,12,103,127
0.10000000000000853,2513,13,103,71
0.10000000000000853,2513,14,103,6
0.09999999999999432,2513,15,103,4
0.0022727272727252057,2514,0,103,127
0.09999999999999432,2514,1,103,55
0.0022727272727252057,2514,2,103,15
0.09999999999999432,2514,3,103,2
0.06818181818181301,2514,4,103,2
0.0022727272727252057,2514,5,103,93
0.09999999999999432,2514,6,103,5
0.09999999999999432,2514,7,103,127
0.09999999999999432,2514,8,103,103
0.10000000000000853,2514,9,103,127
0.09999999999999432,2514,10,103,98
0.09999999999999432,2514,11,103,5
0.09999999999999432,2514,12,103,127
0.10000000000000853,2514,13,103,12
0.10000000000000853,2514,14,103,85
0.10000000000000853,2514,15,103,5
0.09999999999999432,2515,0,103,3
0.06818181818181301,2515,1,103,4
0.0022727272727252057,2515,2,103,127
0.09999999999999432,2515,3,103,127
0.09999999999999432,2515,4,103,91
0.10000000000000853,2515,5,103,6
0.10000000000000853,2515,6,103,127
0.09999999999999432,2515,7,103,13
0.09999999999999432,2515,8,103,97
0.10000000000000853,2515,9,103,5
0.09999999999999432,2515,10,103,127
0.10000000000000853,2515,11,103,109
0.09999999999999432,2515,12,103,18
0.10000000000000853,2515,13,103,127
0.09999999999999432,2515,14,103,93
0.09999999999999432,2515,15,103,8
0.10000000000000853,2516,0,103,3
0.10000000000000853,2516,1,103,127
0.10000000000000853,2516,2,103,12
0.10000000000000853,2516,3,103,2
0.004545454545464622,2516,4,103,97
0.09999999999999432,2516,5,103,1
0.10000000000000853,2516,6,103,127
0.09999999999999432,2516,7,103,101
0.09999999999999432,2516,8,103,7
0.09999999999999432,2516,9,103,127
0.10000000000000853,2516,10,103,62
0.004545454545450411,2516,11,103,79
0.10000000000000853,2516,12,103,6
0.10000000000000853,2516,13,103,3
0.09999999999999432,2516,14,103,127
0.09999999999999432,2516,15,103,13
0.09999999999999432,2517,0,103,87
0.10000000000000853,2517,1,103,5
0.09999999999999432,2517,2,103,127
0.10000000000000853,2517,3,103,107
0.10000000000000853,2517,4,103,127
0.09999999999999432,2517,5,103,101
0.09999999999999432,2517,6,103,6
0.09999999999999432,2517,7,103,4
0.10000000000000853,2517,8,103,127
0.10000000000000853,2517,9,103,11
0.10000000000000853,2517,10,103,88
0.09999999999999432,2517,11,103,5
0.09999999999999432,2517,12,103,5
0.10000000000000853,2517,13,103,127
0.10000000000000853,2517,14,103,127
0.09999999999999432,2517,15,103,84
0.10000000000000853,2518,0,103,7
0.09999999999999432,2518,1,103,2
0.06818181818181301,2518,2,103,3
0.0022727272727252057,2518,3,103,127
0.09999999999999432,2518,4,103,11
0.09999999999999432,2518,5,103,92
0.10000000000000853,2518,6,103,5
0.09999999999999432,2518,7,103,127
0.10000000000000853,2518,8,103,109
0.09999999999999432,2518,9,103,14
0.10000000000000853,2518,10,103,127
0.09999999999999432,2518,11,103,83
0.09999999999999432,2518,12,103,7
0.09999999999999432,2518,13,103,127
0.09999999999999432,2518,14,103,9
0.09999999999999432,2518,15,103,1
0.10000000000000853,2519,0,103,100
0.10000000000000853,2519,1,103,127
0.09999999999999432,2519,2,103,95
0.09999999999999432,2519,3,103,127
0.10000000000000853,2519,4,103,88
0.10000000000000853,2519,5,103,127
0.09999999999999432,2519,6,103,93
0.09999999999999432,2519,7,103,127
0.09999999999999432,2519,8,103,109
0.09999999999999432,2519,9,103,127
0.10000000000000853,2519,10,103,81
0.09999999999999432,2519,11,103,127
0.09999999999999432,2519,12,103,1
0.10000000000000853,2519,13,103,96
0.09999999999999432,2519,14,103,127
0.09999999999999432,2519,15,103,96
0.09999999999999432,2520,0,103,127
0.10000000000000853,2520,1,103,89
0.10000000000000853,2520,2,103,80
0.10000000000000853,2520,3,103,127
0.09999999999999432,2520,4,103,108
0.09999999999999432,2520,5,103,127
0.10000000000000853,2520,6,103,12
0.10000000000000853,2520,7,103,105
0.10000000000000853,2520,8,103,127
0.10000000000000853,2520,9,103,30
0.09999999999999432,2520,10,103,79
0.09999999999999432,2520,11,103,2
0.004545454545450411,2520,12,103,127
0.09999999999999432,2520,13,103,98
0.09999999999999432,2520,14,103,127
0.10000000000002274,2520,15,103,91
0.10000000000002274,2521,0,103,127
0.09999999999999432,2521,1,103,86
0.09999999999999432,2521,2,103,127
0.09999999999999432,2521,3,103,1
0.10000000000002274,2521,4,103,87
0.09999999999999432,2521,5,103,127
0.09999999999999432,2521,6,103,104
0.09999999999999432,2521,7,103,127
0.10000000000002274,2521,8,103,87
0.09999999999999432,2521,9,103,127
0.09999999999999432,2521,10,103,1
0.09999999999999432,2521,11,103,78
0.09999999999999432,2521,12,103,127
0.10000000000002274,2521,13,103,106
0.09999999999999432,2521,14,103,127
0.09999999999999432,2521,15,103,88
0.09999999999999432,2522,0,103,127
0.09999999999999432,2522,1,103,1
0.09999999999999432,2522,2,103,96
0.09999999999999432,2522,3,103,127
0.09999999999999432,2522,4,103,103
0.09999999999999432,2522,5,103,127
0.10000000000002274,2522,6,103,87
0.09999999999999432,2522,7,103,127
0.09999999999999432,2522,8,103,93
0.09999999999999432,2522,9,103,127
0.09999999999999432,2522,10,103,102
0.09999999999999432,2522,11,103,127
0.09999999999999432,2522,12,103,86
0.09999999999999432,2522,13,103,127
0.09999999999999432,2522,14,103,1
0.09999999999999432,2522,15,103,92
0.09999999999999432,2523,0,103,127
0.09999999999999432,2523,1,103,95
0.09999999999999432,2523,2,103,127
0.10000000000002274,2523,3,103,85
0.09999999999999432,2523,4,103,127
0.09999999999999432,2523,5,103,1
0.09999999999999432,2523,6,103,89
0.09999999999999432,2523,7,103,127
0.09999999999999432,2523,8,103,100
0.09999999999999432,2523,9,103,127
0.09999999999999432,2523,10,103,89
0.10000000000002274,2523,11,103,81
0.09999999999999432,2523,12,103,127
0.09999999999999432,2523,13,103,96
0.09999999999999432,2523,14,103,127
0.09999999999999432,2523,15,103,29
0.09999999999999432,2524,0,103,104
0.09999999999999432,2524,1,103,127
0.09999999999999432,2524,2,103,22
0.10000000000002274,2524,3,103,82
0.09999999999999432,2524,4,103,117
0.09999999999999432,2524,5,103,127
0.09999999999999432,2524,6,103,95
0.10000000000002274,2524,7,103,127
0.09999999999999432,2524,8,103,94
0.09999999999999432,2524,9,103,127
0.09999999999999432,2524,10,103,86
0.09999999999999432,2524,11,103,127
0.09999999999999432,2524,12,103,7
0.09999999999999432,2524,13,103,98
0.09999999999999432,2524,14,103,127
0.09999999999999432,2524,15,103,98
0.10000000000002274,2525,0,103,127
0.09999999999999432,2525,1,103,92
0.09999999999999432,2525,2,103,3
0.09999999999999432,2525,3,103,127
0.09999999999999432,2525,4,103,10
0.10000000000002274,2525,5,103,84
0.09999999999999432,2525,6,103,1
0.09999999999999432,2525,7,103,5
0.0022727272727252057,2525,8,103,127
0.09999999999999432,2525,9,103,127
0.09999999999999432,2525,10,103,91
0.09999999999999432,2525,11,103,2
0.09999999999999432,2525,12,103,127
0.09999999999999432,2525,13,103,12
0.09999999999999432,2525,14,103,87
0.09999999999999432,2525,15,103,2
0.09999999999999432,2526,0,103,127
0.09999999999999432,2526,1,103,106
0.09999999999999432,2526,2,103,127
0.09999999999999432,2526,3,103,102
0.09999999999999432,2526,4,103,3
0.09999999999999432,2526,5,103,127
0.10000000000002274,2526,6,103,47
0.09999999999999432,2526,7,103,127
0.09999999999999432,2526,8,103,52
0.10000000000002274,2526,9,103,127
0.09999999999999432,2526,10,103,41
0.09999999999999432,2526,11,103,127
0.09999999999999432,2526,12,103,48
0.09999999999999432,2526,13,103,127
0.09999999999999432,2526,14,103,55
0.09999999999999432,2526,15,103,127
0.09999999999999432,2527,0,103,46
0.09999999999999432,2527,1,103,127
0.09999999999999432,2527,2,103,48
0.09999999999999432,2527,3,103,127
0.09999999999999432,2527,4,103,47
0.09999999999999432,2527,5,103,127
0.09999999999999432,2527,6,103,127
0.09999999999999432,2527,7,103,127
0.09999999999999432,2527,8,103,41
0.09999999999999432,2527,9,103,127
0.09999999999999432,2527,10,103,127
0.09999999999999432,2527,11,103,46
0.09999999999999432,2527,12,103,126
0.09999999999999432,2527,13,103,127
0.09999999999999432,2527,14,103,32
0.004545454545450411,2527,15,103,123
0.09999999999999432,2528,0,103,127
0.09999999999999432,2528,1,103,59
0.09999999999999432,2528,2,103,116
0.10000000000002274,2528,3,103,66
0.09999999999999432,2528,4,103,127
0.09999999999999432,2528,5,103,117
0.09999999999999432,2528,6,103,3
0.09999999999999432,2528,7,103,127
0.09999999999999432,2528,8,103,105
0.09999999999999432,2528,9,103,127
0.09999999999999432,2528,10,103,85
0.10000000000002274,2528,11,103,2
0.09999999999999432,2528,12,103,127
0.09999999999999432,2528,13,103,11
0.10000000000002274,2528,14,103,100
0.09999999999999432,2528,15,103,2
0.09999999999999432,2529,0,103,127
0.09999999999999432,2529,1,103,103
0.09999999999999432,2529,2,103,127
0.10000000000002274,2529,3,103,102
0.09999999999999432,2529,4,103,3
0.09999999999999432,2529,5,103,127
0.10000000000002274,2529,6,103,10
0.09999999999999432,2529,7,103,112
0.09999999999999432,2529,8,103,2
0.09999999999999432,2529,9,103,127
0.10000000000002274,2529,10,103,103
0.09999999999999432,2529,11,103,127
0.09999999999999432,2529,12,103,96
0.09999999999999432,2529,13,103,2
0.09999999999999432,2529,14,103,127
0.09999999999999432,2529,15,103,10
0.09999999999999432,2530,0,103,92
0.09999999999999432,2530,1,103,2
0.10000000000002274,2530,2,103,127
0.09999999999999432,2530,3,103,110
0.09999999999999432,2530,4,103,127
0.10000000000002274,2530,5,103,106
0.09999999999999432,2530,6,103,2
0.09999999999999432,2530,7,103,127
0.09999999999999432,2530,8,103,11
0.09999999999999432,2530,9,103,95
0.09999999999999432,2530,10,103,2
0.10000000000002274,2530,11,103,127
0.09999999999999432,2530,12,103,127
0.09999999999999432,2530,13,103,86
0.09999999999999432,2530,14,103,2
0.10000000000002274,2530,15,103,127
0.09999999999999432,2531,0,103,10
0.09999999999999432,2531,1,103,94
0.10000000000002274,2531,2,103,3
0.09999999999999432,2531,3,103,127
0.09999999999999432,2531,4,103,127
0.10000000000002274,2531,5,103,92
0.09999999999999432,2531,6,103,2
0.09999999999999432,2531,7,103,127
0.10000000000002274,2531,8,103,11
0.09999999999999432,2531,9,103,105
0.09999999999999432,2531,10,103,3
0.09999999999999432,2531,11,103,127
0.09999999999999432,2531,12,103,109
0.09999999999999432,2531,13,103,127
0.09999999999999432,2531,14,103,101
0.09999999999999432,2531,15,103,4
0.10000000000002274,2532,0,103,127
0.09999999999999432,2532,1,103,14
0.09999999999999432,2532,2,103,95
0.10000000000002274,2532,3,103,3
0.09999999999999432,2532,4,103,127
0.09999999999999432,2532,5,103,114
0.10000000000002274,2532,6,103,127
0.10000000000002274,2532,7,103,100
0.09999999999999432,2532,8,103,4
0.09999999999999432,2532,9,103,20
0.10000000000002274,2532,10,103,121
0.10000000000002274,2532,11,103,127
0.09999999999999432,2532,12,103,25
0.004545454545450411,2532,13,103,127
0.09999999999999432,2532,14,103,127
0.09999999999999432,2532,15,103,29
0.10000000000002274,2533,0,103,127
0.09999999999999432,2533,1,103,127
0.10000000000002274,2533,2,103,46
0.09999999999999432,2533,3,103,102
0.09999999999999432,2533,4,103,45
0.09999999999999432,2533,5,103,127
0.09999999999999432,2533,6,103,119
0.10000000000002274,2533,7,103,127
0.10000000000002274,2533,8,103,91
0.09999999999999432,2533,9,103,127
0.10000000000002274,2533,10,103,91
0.10000000000002274,2533,11,103,2
0.09999999999999432,2533,12,103,127
0.09999999999999432,2533,13,103,9
0.09999999999999432,2533,14,103,86
0.10000000000002274,2533,15,103,3
0.09999999999999432,2534,0,103,127
0.10000000000002274,2534,1,103,116
0.09999999999999432,2534,2,103,127
0.09999999999999432,2534,3,103,79
0.09999999999999432,2534,4,103,3
0.09999999999999432,2534,5,103,127
0.10000000000002274,2534,6,103,12
0.09999999999999432,2534,7,103,90
0.09999999999999432,2534,8,103,3
0.09999999999999432,2534,9,103,127
0.09999999999999432,2534,10,103,120
0.09999999999999432,2534,11,103,127
0.10000000000002274,2534,12,103,88
0.10000000000002274,2534,13,103,3
0.09999999999999432,2534,14,103,127
0.09999999999999432,2534,15,103,15
0.09999999999999432,2535,0,103,52
0.09999999999999432,2535,1,103,3
0.09999999999999432,2535,2,103,127
0.10000000000002274,2535,3,103,125
0.09999999999999432,2535,4,103,127
0.09999999999999432,2535,5,103,93
0.09999999999999432,2535,6,103,3
0.09999999999999432,2535,7,103,127
0.10000000000002274,2535,8,103,10
0.09999999999999432,2535,9,103,92
0.09999999999999432,2535,10,103,4
0.09999999999999432,2535,11,103,127
0.09999999999999432,2535,12,103,113
0.09999999999999432,2535,13,103,127
0.09999999999999432,2535,14,103,83
0.10000000000002274,2535,15,103,3
0.09999999999999432,2536,0,103,127
0.09999999999999432,2536,1,103,13
0.09999999999999432,2536,2,103,97
0.10000000000002274,2536,3,103,4
0.09999999999999432,2536,4,103,127
0.10000000000002274,2536,5,103,118
0.09999999999999432,2536,6,103,127
0.09999999999999432,2536,7,103,86
0.09999999999999432,2536,8,103,3
0.10000000000002274,2536,9,103,127
0.10000000000002274,2536,10,103,11
0.09999999999999432,2536,11,103,93
0.09999999999999432,2536,12,103,3
0.09999999999999432,2536,13,103,127
0.09999999999999432,2536,14,103,124
0.09999999999999432,2536,15,103,127
0.09999999999999432,2537,0,103,81
0.10000000000002274,2537,1,103,26
0.09999999999999432,2537,2,103,104
0.09999999999999432,2537,3,103,127
0.09999999999999432,2537,4,103,31
0.09999999999999432,2537,5,103,113
0.09999999999999432,2537,6,103,127
0.09999999999999432,2537,7,103,31
0.0022727272727252057,2537,8,103,115
0.10000000000002274,2537,9,103,127
0.09999999999999432,2537,10,103,29
0.09999999999999432,2537,11,103,93
0.09999999999999432,2537,12,103,57
0.10000000000002274,2537,13,103,127
0.09999999999999432,2537,14,103,127
0.09999999999999432,2537,15,103,127
0.10000000000002274,2538,0,103,34
0.09999999999999432,2538,1,103,112
0.09999999999999432,2538,2,103,127
0.09999999999999432,2538,3,103,29
0.09999999999999432,2538,4,103,109
0.09999999999999432,2538,5,103,127
0.10000000000002274,2538,6,103,31
0.09999999999999432,2538,7,103,103
0.10000000000002274,2538,8,103,127
0.09999999999999432,2538,9,103,35
0.09999999999999432,2538,10,103,96
0.09999999999999432,2538,11,103,64
0.09999999999999432,2538,12,103,127
0.09999999999999432,2538,13,103,107
0.09999999999999432,2538,14,103,127
0.09999999999999432,2538,15,103,99
0.09999999999999432,2539,0,103,127
0.09999999999999432,2539,1,103,87
0.09999999999999432,2539,2,103,2
0.09999999999999432,2539,3,103,127
0.09999999999999432,2539,4,103,12
0.09999999999999432,2539,5,103,92
0.09999999999999432,2539,6,103,4
0.09999999999999432,2539,7,103,127
0.09999999999999432,2539,8,103,119
0.09999999999999432,2539,9,103,127
0.09999999999999432,2539,10,103,94
0.10000000000002274,2539,11,103,3
0.09999999999999432,2539,12,103,127
0.09999999999999432,2539,13,103,12
0.09999999999999432,2539,14,103,95
0.09999999999999432,2539,15,103,3
0.09999999999999432,2540,0,103,127
0.09999999999999432,2540,1,103,116
0.09999999999999432,2540,2,103,127
0.09999999999999432,2540,3,103,91
0.09999999999999432,2540,4,103,2
0.09999999999999432,2540,5,103,127
0.09999999999999432,2540,6,103,9
0.09999999999999432,2540,7,103,90
0.09999999999999432,2540,8,103,4
0.09999999999999432,2540,9,103,127
0.09999999999999432,2540,10,103,113
0.09999999999999432,2540,11,103,127
0.09999999999999432,2540,12,103,87
0.09999999999999432,2540,13,103,3
0.09999999999999432,2540,14,103,127
0.10000000000002274,2540,15,103,97
0.09999999999999432,2541,0,103,127
0.09999999999999432,2541,1,103,127
0.09999999999999432,2541,2,103,78
0.09999999999999432,2541,3,103,127
0.09999999999999432,2541,4,103,9
0.09999999999999432,2541,5,103,83
0.09999999999999432,2541,6,103,127
0.09999999999999432,2541,7,103,119
0.09999999999999432,2541,8,103,127
0.09999999999999432,2541,9,103,85
0.10000000000002274,2541,10,103,1
0.09999999999999432,2541,11,103,127
0.09999999999999432,2541,12,103,7
0.10000000000002274,2541,13,103,87
0.09999999999999432,2541,14,103,1
0.09999999999999432,2541,15,103,127
0.10000000000002274,2542,0,103,127
0.09999999999999432,2542,1,103,127
0.10000000000002274,2542,2,103,86
0.09999999999999432,2542,3,103,127
0.09999999999999998,2542,4,60,1
0.09999999999999987,2542,5,60,1
0.10000000000000009,2542,6,60,5
0.10000000000000009,2542,7,60,2
0.10000000000000009,2542,8,60,11
0.10000000000000009,2542,9,60,1
0.10000000000000009,2542,10,60,4
0.10000000000000009,2542,11,60,36
0.09999999999999964,2542,12,60,8
0.09999999999999964,2542,13,60,2
0.09999999999999964,2542,14,60,2
0.10000000000000053,2542,15,60,13
0.10000000000000053,2543,0,60,1
0.09999999999999964,2543,1,60,47
0.09999999999999964,2543,2,60,8
0.09999999999999964,2543,3,60,3
0.09999999999999964,2543,4,60,1
0.004545454545453964,2543,5,60,12
0.10000000000000053,2543,6,60,5
0.10000000000000053,2543,7,60,1
0.09999999999999964,2543,8,60,1
0.10000000000000053,2543,9,60,20
0.09999999999999964,2543,10,60,4
0.09999999999999964,2543,11,60,1
0.10000000000000053,2543,12,60,10
0.10000000000000053,2543,13,60,1
0.09999999999999964,2543,14,60,1
0.10000000000000053,2543,15,60,44
0.09999999999999964,2544,0,60,12
0.09999999999999964,2544,1,60,1
0.10000000000000053,2544,2,60,1
0.004545454545454852,2544,3,60,12
0.10000000000000053,2544,4,60,4
0.10000000000000053,2544,5,60,1
0.09999999999999964,2544,6,60,1
0.10000000000000053,2544,7,60,41
0.09999999999999964,2544,8,60,6
0.10000000000000142,2544,9,60,2
0.09999999999999964,2544,10,60,1
0.002272727272726982,2544,11,60,10
0.09999999999999964,2544,12,60,8
0.09999999999999964,2544,13,60,3
0.09999999999999964,2544,14,60,43
0.09999999999999964,2544,15,60,10
0.09999999999999964,2545,0,60,2
0.09999999999999964,2545,1,60,1
0.09999999999999964,2545,2,60,5
0.09999999999999964,2545,3,60,2
0.10000000000000142,2545,4,60,1
0.09999999999999964,2545,5,60,1
0.09999999999999964,2545,6,60,14
0.09999999999999964,2545,7,60,2
0.09999999999999964,2545,8,60,1
0.0045454545454557405,2545,9,60,22
0.09999999999999964,2545,10,60,3
0.09999999999999964,2545,11,60,1
0.09999999999999964,2545,12,60,26
0.10000000000000142,2545,13,60,4
0.10000000000000142,2545,14,60,1
0.015909090909092427,2545,15,60,4
0.09999999999999964,2546,0,60,1
0.09999999999999964,2546,1,60,1
0.09999999999999964,2546,2,60,1
0.10000000000000142,2546,3,60,30
0.09999999999999964,2546,4,60,9
0.09999999999999964,2546,5,60,1
0.09999999999999964,2546,6,60,17
0.09999999999999964,2546,7,60,1
0.09999999999999964,2546,8,60,1
0.09999999999999964,2546,9,60,38
0.09999999999999964,2546,10,60,10
0.09999999999999964,2546,11,60,4
0.10000000000000142,2546,12,60,6
0.09999999999999964,2546,13,60,2
0.09999999999999964,2546,14,60,24
0.09999999999999964,2546,15,60,6
0.10000000000000142,2547,0,60,3
0.09999999999999964,2547,1,60,1
0.09999999999999964,2547,2,60,8
0.09999999999999964,2547,3,60,2
0.09999999999999964,2547,4,60,1
0.09999999999999964,2547,5,60,38
0.09999999999999964,2547,6,60,9
0.09999999999999964,2547,7,60,2
0.09999999999999787,2547,8,60,1
0.09999999999999787,2547,9,60,8
0.10000000000000142,2547,10,60,1
0.09999999999999787,2547,11,60,1
0.10000000000000142,2547,12,60,21
0.09999999999999787,2547,13,60,3
0.10000000000000142,2547,14,60,1
0.09999999999999787,2547,15,60,2
0.004545454545453964,2548,0,60,10
0.09999999999999787,2548,1,60,1
0.10000000000000142,2548,2,60,1
0.10000000000000142,2548,3,60,1
0.10000000000000142,2548,4,60,14
0.09999999999999998,2548,5,56,5
0.06818181818181823,2548,6,56,10
0.10000000000000009,2548,7,56,20
0.10000000000000009,2548,8,56,12
0.10000000000000009,2548,9,56,16
0.09999999999999964,2548,10,56,24
0.09999999999999964,2548,11,56,36
0.10000000000000009,2548,12,56,35
0.09999999999999964,2548,13,56,30
0.10000000000000009,2548,14,56,25
0.10000000000000009,2548,15,56,21
0.10000000000000053,2549,0,56,12
0.09999999999999964,2549,1,56,12
0.09999999999999964,2549,2,56,6
0.10000000000000053,2549,3,56,2
0.01590909090909065,2549,4,56,6
0.10000000000000053,2549,5,56,14
0.09999999999999964,2549,6,56,28
0.09999999999999964,2549,7,56,22
0.09999999999999964,2549,8,56,15
0.09999999999999964,2549,9,56,8
0.09999999999999964,2549,10,56,12
0.10000000000000053,2549,11,56,15
0.06818181818181834,2549,12,56,16
0.09999999999999964,2549,13,56,12
0.09999999999999964,2549,14,56,8
0.09999999999999964,2549,15,56,11
0.09999999999999964,2550,0,56,11
0.09999999999999964,2550,1,56,18
0.10000000000000053,2550,2,56,32
0.10000000000000053,2550,3,56,25
0.10000000000000053,2550,4,56,13
0.09999999999999964,2550,5,56,23
0.09999999999999964,2550,6,56,14
0.09999999999999964,2550,7,56,10
0.10000000000000142,2550,8,56,8
0.09999999999999964,2550,9,56,14
0.09999999999999964,2550,10,56,20
0.09999999999999964,2550,11,56,31
0.09999999999999964,2550,12,56,12
0.09999999999999964,2550,13,56,12
0.09999999999999964,2550,14,56,12
0.09999999999999964,2550,15,56,10
0.09999999999999964,2551,0,56,18
0.09999999999999964,2551,1,56,24
0.09999999999999964,2551,2,56,17
0.09999999999999964,2551,3,56,3
0.10000000000000142,2551,4,56,21
0.09999999999999964,2551,5,56,11
0.10000000000000142,2551,6,56,10
0.10000000000000142,2551,7,56,9
0.09999999999999964,2551,8,56,6
0.09999999999999964,2551,9,56,9
0.09999999999999964,2551,10,56,15
0.09999999999999964,2551,11,56,21
0.09999999999999964,2551,12,56,12
0.09999999999999964,2551,13,56,7
0.10000000000000142,2551,14,56,9
0.09999999999999964,2551,15,56,18
0.09999999999999964,2552,0,56,15
0.09999999999999964,2552,1,56,20
0.09999999999999964,2552,2,56,23
0.09999999999999964,2552,3,56,14
0.09999999999999964,2552,4,56,3
0.10000000000000142,2552,5,56,5
0.09999999999999964,2552,6,56,15
0.09999999999999964,2552,7,56,11
0.09999999999999964,2552,8,56,9
0.09999999999999964,2552,9,56,16
0.09999999999999964,2552,10,56,14
0.09999999999999964,2552,11,56,7
0.10000000000000142,2552,12,56,6
0.10000000000000142,2552,13,56,3
0.09999999999999964,2552,14,56,4
0.10000000000000142,2552,15,56,5
0.09999999999999964,2553,0,56,4
0.002272727272726982,2553,1,56,8
0.09999999999999964,2553,2,56,5
0.09999999999999964,2553,3,56,1
0.025000000000000355,2553,4,56,5
0.09999999999999964,2553,5,56,8
0.09999999999999964,2553,6,56,9
0.09999999999999964,2553,7,56,3
0.0045454545454557405,2553,8,56,13
0.09999999999999964,2553,9,56,13
0.09999999999999964,2553,10,56,9
0.09999999999999787,2553,11,56,14
0.09999999999999787,2553,12,56,14
0.10000000000000142,2553,13,56,25
0.10000000000000142,2553,14,56,38
0.10000000000000142,2553,15,56,37
0.09999999999999787,2554,0,56,21
0.10000000000000142,2554,1,56,19
0.10000000000000142,2554,2,56,26
0.10000000000000142,2554,3,56,11
0.09999999999999787,2554,4,56,25
0.10000000000000142,2554,5,56,19
0.09999999999999787,2554,6,56,9
0.10000000000000142,2554,7,56,8
0.10000000000000142,2554,8,56,3
0.10000000000000142,2554,9,56,7
0.09999999999999787,2554,10,56,4
0.09999999999999787,2554,11,56,9
0.09999999999999787,2554,12,56,2
0.09999999999999787,2554,13,56,8
0.10000000000000142,2554,14,56,9
0.10000000000000142,2554,15,56,5
0.09999999999999787,2555,0,56,4
0.09999999999999787,2555,1,56,5
0.09999999999999787,2555,2,56,5
0.10000000000000142,2555,3,56,6
0.10000000000000142,2555,4,56,7
0.10000000000000142,2555,5,56,14
0.09999999999999787,2555,6,56,12
0.10000000000000142,2555,7,56,4
0.09999999999999787,2555,8,56,5
0.10000000000000142,2555,9,56,7
0.10000000000000142,2555,10,56,2
0.09999999999999787,2555,11,56,7
0.10000000000000142,2555,12,56,10
0.09999999999999787,2555,13,56,4
0.10000000000000142,2555,14,56,3
0.10000000000000142,2555,15,56,7
0.10000000000000142,2556,0,56,8
0.10000000000000142,2556,1,56,6
0.10000000000000142,2556,2,56,4
0.09999999999999787,2556,3,56,11
0.09999999999999787,2556,4,56,3
0.10000000000000142,2556,5,56,10
0.09999999999999787,2556,6,56,8
0.10000000000000142,2556,7,56,4
0.09999999999999787,2556,8,56,1
0.10000000000000142,2556,9,56,5
0.09999999999999787,2556,10,56,3
0.09999999999999787,2556,11,56,8
0.09999999999999787,2556,12,56,9
0.10000000000000142,2556,13,56,2
0.09999999999999787,2556,14,56,6
0.10000000000000142,2556,15,56,5
0.09999999999999787,2557,0,56,4
0.10000000000000142,2557,1,56,6
0.10000000000000142,2557,2,56,6
0.10000000000000142,2557,3,56,5
0.09999999999999787,2557,4,56,6
0.10000000000000142,2557,5,56,8
0.10000000000000142,2557,6,56,5
0.10000000000000142,2557,7,56,7
0.09999999999999787,2557,8,56,14
0.10000000000000142,2557,9,56,4
0.09999999999999787,2557,10,56,4
0.10000000000000142,2557,11,56,10
0.10000000000000142,2557,12,56,3
0.004545454545453964,2557,13,56,11
0.10000000000000142,2557,14,56,15
0.09999999999999787,2557,15,56,14
0.10000000000000142,2558,0,56,24
0.09999999999999787,2558,1,56,20
0.10000000000000142,2558,2,56,7
0.09999999999999787,2558,3,56,2
0.09999999999999787,2558,4,56,7
0.10000000000000142,2558,5,56,11
0.10000000000000142,2558,6,56,2
0.10000000000000142,2558,7,56,4
0.09999999999999787,2558,8,56,2
0.10000000000000142,2558,9,56,4
0.10000000000000142,2558,10,56,6
0.10000000000000142,2558,11,56,4
0.09999999999999432,2558,12,56,6
0.10000000000000142,2558,13,56,5
0.10000000000000142,2558,14,56,2
0.09999999999999432,2558,15,56,4
0.10000000000000142,2559,0,56,4
0.10000000000000142,2559,1,56,10
0.10000000000000142,2559,2,56,12
0.09999999999999432,2559,3,56,4
0.09999999999999432,2559,4,56,8
0.10000000000000142,2559,5,56,5
0.10000000000000142,2559,6,56,6
0.10000000000000142,2559,7,56,10
0.10000000000000142,2559,8,56,6
0.10000000000000142,2559,9,56,6
0.10000000000000142,2559,10,56,9
0.09999999999999432,2559,11,56,2
0.10000000000000142,2559,12,56,2
0.09999999999999432,2559,13,56,1
0.10000000000000142,2559,14,56,7
0.10000000000000142,2559,15,56,3
0.10000000000000142,2560,0,56,3
0.10000000000000142,2560,1,56,1
0.004545454545450411,2560,2,56,4
0.10000000000000142,2560,3,56,7
0.09999999999999432,2560,4,56,2
0.10000000000000142,2560,5,56,3
0.10000000000000142,2560,6,56,5
0.10000000000000142,2560,7,56,2
0.10000000000000142,2560,8,56,8
0.10000000000000142,2560,9,56,3
0.09999999999999432,2560,10,56,3
0.10000000000000142,2560,11,56,3
0.10000000000000142,2560,12,56,4
0.10000000000000142,2560,13,56,2
0.10000000000000142,2560,14,56,5
0.10000000000000142,2560,15,56,6
0.10000000000000142,2561,0,56,3
0.10000000000000142,2561,1,56,3
0.10000000000000142,2561,2,56,1
0.09999999999999432,2561,3,56,1
0.10000000000000142,2561,4,56,4
0.10000000000000142,2561,5,56,4
0.10000000000000142,2561,6,56,3
0.10000000000000142,2561,7,56,7
0.09999999999999432,2561,8,56,3
0.10000000000000142,2561,9,56,2
0.10000000000000142,2561,10,56,8
0.10000000000000142,2561,11,56,5
0.10000000000000142,2561,12,56,2
0.09999999999999432,2561,13,56,3
0.10000000000000142,2561,14,56,12
0.09999999999999432,2561,15,56,3
0.10000000000000142,2562,0,56,4
0.09999999999999432,2562,1,56,6
0.10000000000000142,2562,2,56,5
0.10000000000000142,2562,3,56,2
0.09999999999999432,2562,4,56,2
0.09999999999999432,2562,5,56,4
0.10000000000000142,2562,6,56,9
0.10000000000000142,2562,7,56,4
0.10000000000000142,2562,8,56,5
0.10000000000000142,2562,9,56,4
0.10000000000000142,2562,10,56,8
0.10000000000000142,2562,11,56,2
0.10000000000000142,2562,12,56,7
0.10000000000000142,2562,13,56,7
0.10000000000000142,2562,14,56,5
0.10000000000000142,2562,15,56,5
0.09999999999999432,2563,0,56,3
0.10000000000000142,2563,1,56,4
0.10000000000000142,2563,2,56,2
0.004545454545450411,2563,3,56,3
0.10000000000000142,2563,4,56,13
0.10000000000000142,2563,5,56,8
0.10000000000000142,2563,6,56,12
0.10000000000000142,2563,7,56,8
0.09999999999999432,2563,8,56,11
0.10000000000000142,2563,9,56,7
0.002272727272732311,2563,10,56,10
0.10000000000000142,2563,11,56,8
0.10000000000000142,2563,12,56,4
0.10000000000000142,2563,13,56,7
0.10000000000000142,2563,14,56,4
0.10000000000000142,2563,15,56,7
0.10000000000000142,2564,0,56,7
0.10000000000000142,2564,1,56,9
0.09999999999999432,2564,2,56,5
0.10000000000000142,2564,3,56,4
0.09999999999999432,2564,4,56,7
0.10000000000000142,2564,5,56,6
0.10000000000000142,2564,6,56,4
0.10000000000000142,2564,7,56,8
0.09999999999999432,2564,8,56,6
0.10000000000000142,2564,9,56,4
0.09999999999999432,2564,10,56,5
0.10000000000000142,2564,11,56,3
0.09999999999999432,2564,12,56,7
0.10000000000000142,2564,13,56,4
0.10000000000000142,2564,14,56,4
0.10000000000000142,2564,15,56,5
0.10000000000000853,2565,0,56,25
0.10000000000000853,2565,1,56,2
0.10000000000000853,2565,2,56,3
0.09999999999999432,2565,3,56,32
0.09999999999999432,2565,4,56,22
0.09999999999999432,2565,5,56,18
0.10000000000000853,2565,6,56,20
0.09999999999999432,2565,7,56,23
0.09999999999999432,2565,8,56,19
0.09999999999999432,2565,9,56,33
0.10000000000000853,2565,10,56,24
0.09999999999999432,2565,11,56,34
0.09999999999999432,2565,12,56,11
0.09999999999999432,2565,13,56,11
0.09999999999999432,2565,14,56,12
0.10000000000000853,2565,15,56,9
0.10000000000000853,2566,0,56,9
0.09999999999999432,2566,1,56,6
0.10000000000000853,2566,2,56,24
0.09999999999999432,2566,3,56,16
0.09999999999999432,2566,4,56,26
0.09999999999999432,2566,5,56,41
0.09999999999999432,2566,6,56,6
0.09999999999999432,2566,7,56,12
0.09999999999999432,2566,8,56,10
0.10000000000000853,2566,9,56,8
0.09999999999999432,2566,10,56,5
0.10000000000000853,2566,11,56,10
0.09999999999999432,2566,12,56,5
0.10000000000000853,2566,13,56,18
0.10000000000000853,2566,14,56,13
0.025000000000005684,2566,15,56,26
0.10000000000000853,2567,0,56,11
0.09999999999999432,2567,1,56,22
0.09999999999999432,2567,2,56,9
0.10000000000000853,2567,3,56,8
0.10000000000000853,2567,4,56,26
0.06818181818182723,2567,5,56,27
0.10000000000000853,2567,6,56,5
0.10000000000000853,2567,7,56,6
0.10000000000000853,2567,8,56,13
0.09999999999999432,2567,9,56,13
0.09999999999999432,2567,10,56,24
0.09999999999999432,2567,11,56,19
0.10000000000000853,2567,12,56,16
0.10000000000000853,2567,13,56,13
0.09999999999999432,2567,14,56,12
0.10000000000000853,2567,15,56,14
0.10000000000000853,2568,0,56,7
0.10000000000000853,2568,1,56,22
0.09999999999999432,2568,2,56,15
0.09999999999999432,2568,3,56,14
0.09999999999999432,2568,4,56,12
0.09999999999999432,2568,5,56,12
0.09999999999999432,2568,6,56,16
0.09999999999999432,2568,7,56,22
0.09999999999999432,2568,8,56,13
0.10000000000000853,2568,9,56,12
0.10000000000000853,2568,10,56,25
0.10000000000000853,2568,11,56,19
0.09999999999999432,2568,12,56,23
0.09999999999999432,2568,13,56,15
0.10000000000000853,2568,14,56,18
0.09999999999999432,2568,15,56,21
0.10000000000000853,2569,0,56,16
0.10000000000000853,2569,1,56,7
0.09999999999999432,2569,2,56,20
0.10000000000000853,2569,3,56,19
0.09999999999999432,2569,4,56,28
0.10000000000000853,2569,5,56,12
0.10000000000000853,2569,6,56,15
0.10000000000000853,2569,7,56,20
0.09999999999999432,2569,8,56,19
0.09999999999999432,2569,9,56,11
0.09999999999999432,2569,10,56,12
0.10000000000000853,2569,11,56,12
0.09999999999999432,2569,12,56,11
0.10000000000000853,2569,13,56,15
0.10000000000000853,2569,14,56,12
0.09999999999999432,2569,15,56,18
0.09999999999999432,2570,0,56,16
0.09999999999999432,2570,1,56,21
0.10000000000000853,2570,2,56,25
0.10000000000000853,2570,3,56,9
0.09999999999999432,2570,4,56,6
0.09999999999999432,2570,5,56,23
0.10000000000000853,2570,6,56,26
0.09999999999999432,2570,7,56,12
0.09999999999999432,2570,8,56,8
0.10000000000000853,2570,9,56,8
0.10000000000000853,2570,10,56,11
0.09999999999999432,2570,11,56,16
0.09999999999999432,2570,12,56,13
0.09999999999999432,2570,13,56,6
0.09999999999999432,2570,14,56,28
0.09999999999999432,2570,15,56,6
0.09999999999999432,2571,0,56,18
0.09999999999999432,2571,1,56,10
0.09999999999999432,2571,2,56,12
0.09999999999999432,2571,3,56,5
0.09999999999999432,2571,4,56,7
0.09999999999999432,2571,5,56,30
0.10000000000002274,2571,6,56,19
0.09999999999999432,2571,7,56,16
0.10000000000002274,2571,8,56,15
0.09999999999999432,2571,9,56,26
0.09999999999999432,2571,10,56,15
0.09999999999999432,2571,11,56,7
0.10000000000002274,2571,12,56,15
0.09999999999999432,2571,13,56,9
0.09999999999999432,2571,14,56,11
0.09999999999999432,2571,15,56,4
0.09999999999999432,2572,0,56,5
0.09999999999999432,2572,1,56,7
0.09999999999999432,2572,2,56,5
0.09999999999999432,2572,3,56,2
0.09999999999999432,2572,4,56,13
0.09999999999999432,2572,5,56,13
0.09999999999999432,2572,6,56,16
0.09999999999999432,2572,7,56,9
0.09999999999999432,2572,8,56,20
0.09999999999999432,2572,9,56,27
0.09999999999999432,2572,10,56,10
0.10000000000002274,2572,11,56,27
0.09999999999999432,2572,12,56,16
0.09999999999999432,2572,13,56,9
0.004545454545450411,2572,14,56,15
0.09999999999999432,2572,15,56,11
0.10000000000002274,2573,0,56,5
0.09999999999999432,2573,1,56,2
0.09999999999999432,2573,2,56,5
0.10000000000002274,2573,3,56,6
0.09999999999999432,2573,4,56,7
0.09999999999999432,2573,5,56,21
0.10000000000002274,2573,6,56,7
0.09999999999999432,2573,7,56,12
0.09999999999999432,2573,8,56,14
0.09999999999999432,2573,9,56,6
0.09999999999999432,2573,10,56,12
0.09999999999999432,2573,11,56,7
0.09999999999999432,2573,12,56,10
0.10000000000002274,2573,13,56,24
0.09999999999999432,2573,14,56,13
0.10000000000002274,2573,15,56,9
0.09999999999999432,2574,0,56,5
0.09999999999999432,2574,1,56,9
0.10000000000002274,2574,2,56,6
0.09999999999999432,2574,3,56,11
0.10000000000002274,2574,4,56,8
0.09999999999999432,2574,5,56,7
0.09999999999999432,2574,6,56,9
0.09999999999999432,2574,7,56,13
0.10000000000002274,2574,8,56,12
0.09999999999999432,2574,9,56,15
0.09999999999999432,2574,10,56,14
0.10000000000002274,2574,11,56,17
0.10000000000002274,2574,12,56,15
0.10000000000002274,2574,13,56,16
0.09999999999999432,2574,14,56,14
0.09999999999999432,2574,15,56,10
0.10000000000002274,2575,0,56,8
0.10000000000002274,2575,1,56,5
0.10000000000002274,2575,2,56,21
0.09999999999999432,2575,3,56,17
0.09999999999999432,2575,4,56,17
0.09999999999999432,2575,5,56,5
0.09999999999999432,2575,6,56,5
0.09999999999999432,2575,7,56,14
0.09999999999999432,2575,8,56,16
0.09999999999999432,2575,9,56,11
0.10000000000002274,2575,10,56,15
0.09999999999999432,2575,11,56,12
0.09999999999999432,2575,12,56,15
0.09999999999999432,2575,13,56,7
0.10000000000002274,2575,14,56,7
0.09999999999999432,2575,15,56,14
0.09999999999999432,2576,0,56,14
0.09999999999999432,2576,1,56,13
0.09999999999999432,2576,2,56,28
0.09999999999999432,2576,3,56,18
0.09999999999999432,2576,4,56,37
0.09999999999999432,2576,5,56,24
0.10000000000002274,2576,6,56,20
0.09999999999999432,2576,7,56,8
0.09999999999999432,2576,8,56,19
0.09999999999999432,2576,9,56,22
0.06818181818181301,2576,10,56,39
0.09999999999999432,2576,11,56,1
0.10000000000002274,2576,12,56,40
0.09999999999999432,2576,13,56,16
0.10000000000002274,2576,14,56,14
0.09999999999999432,2576,15,56,26
0.09999999999999432,2577,0,56,12
0.09999999999999432,2577,1,56,10
0.09999999999999432,2577,2,56,6
0.10000000000002274,2577,3,56,13
0.09999999999999432,2577,4,56,17
0.09999999999999432,2577,5,56,11
0.09999999999999432,2577,6,56,5
0.09999999999999432,2577,7,56,7
0.09999999999999432,2577,8,56,6
0.09999999999999432,2577,9,56,8
0.09999999999999432,2577,10,56,7
0.09999999999999432,2577,11,56,5
0.09999999999999432,2577,12,56,12
0.09999999999999432,2577,13,56,9
0.09999999999999432,2577,14,56,11
0.09999999999999432,2577,15,56,3
0.09999999999999432,2578,0,56,3
0.09999999999999432,2578,1,56,9
0.09999999999999432,2578,2,56,3
0.09999999999999432,2578,3,56,5
0.10000000000002274,2578,4,56,17
0.09999999999999432,2578,5,56,8
0.09999999999999432,2578,6,56,10
0.09999999999999432,2578,7,56,6
0.09999999999999432,2578,8,56,10
0.10000000000002274,2578,9,56,11
0.10000000000002274,2578,10,56,10
0.09999999999999432,2578,11,56,15
0.10000000000002274,2578,12,56,1
0.01590909090910486,2578,13,56,23
0.09999999999999432,2578,14,56,12
0.10000000000002274,2578,15,56,13
0.10000000000002274,2579,0,56,11
0.10000000000002274,2579,1,56,7
0.09999999999999432,2579,2,56,5
0.10000000000002274,2579,3,56,11
0.09999999999999432,2579,4,56,21
0.09999999999999432,2579,5,56,9
0.10000000000002274,2579,6,56,6
0.09999999999999432,2579,7,56,15
0.09999999999999432,2579,8,56,14
0.09999999999999432,2579,9,56,9
0.10000000000002274,2579,10,56,11
0.10000000000002274,2579,11,56,9
0.09999999999999432,2579,12,56,28
0.10000000000002274,2579,13,56,6
0.09999999999999432,2579,14,56,22
0.09999999999999432,2579,15,56,15
0.09999999999999432,2580,0,56,20
0.09999999999999432,2580,1,56,20
0.10000000000002274,2580,2,56,18
0.09999999999999432,2580,3,56,10
0.09999999999999432,2580,4,56,40
0.10000000000002274,2580,5,56,15
0.09999999999999432,2580,6,56,10
0.10000000000002274,2580,7,56,12
0.09999999999999432,2580,8,56,16
0.09999999999999432,2580,9,56,11
0.09999999999999432,2580,10,56,6
0.09999999999999432,2580,11,56,10
0.09999999999999432,2580,12,56,5
0.09999999999999432,2580,13,56,2
0.09999999999999432,2580,14,56,6
0.09999999999999432,2580,15,56,6
0.06818181818181301,2581,0,56,6
0.09999999999999432,2581,1,56,3
0.10000000000002274,2581,2,56,1
0.09999999999999432,2581,3,56,13
0.09999999999999432,2581,4,56,3
0.09999999999999432,2581,5,56,9
0.09999999999999432,2581,6,56,8
0.09999999999999432,2581,7,56,10
0.09999999999999432,2581,8,56,12
0.10000000000002274,2581,9,56,4
0.09999999999999432,2581,10,56,9
0.10000000000002274,2581,11,56,11
0.09999999999999432,2581,12,56,5
0.09999999999999432,2581,13,56,7
0.09999999999999432,2581,14,56,17
0.09999999999999432,2581,15,56,8
0.09999999999999432,2582,0,56,13
0.09999999999999432,2582,1,56,8
0.10000000000002274,2582,2,56,10
0.09999999999999432,2582,3,56,6
0.10000000000002274,2582,4,56,2
0.09999999999999432,2582,5,56,10
0.09999999999999432,2582,6,56,8
0.09999999999999432,2582,7,56,15
0.10000000000002274,2582,8,56,10
0.10000000000002274,2582,9,56,14
0.09999999999999432,2582,10,56,10
0.10000000000002274,2582,11,56,4
0.09999999999999432,2582,12,56,6
0.09999999999999432,2582,13,56,13
0.09999999999999432,2582,14,56,6
0.09999999999999432,2582,15,56,5
0.09999999999999432,2583,0,56,3
0.09999999999999432,2583,1,56,4
0.10000000000002274,2583,2,56,6
0.10000000000002274,2583,3,56,1
0.09999999999999432,2583,4,56,7
0.09999999999999432,2583,5,56,5
0.004545454545450411,2583,6,56,9
0.09999999999999432,2583,7,56,6
0.09999999999999432,2583,8,56,11
0.10000000000002274,2583,9,56,9
0.09999999999999432,2583,10,56,7
0.09999999999999432,2583,11,56,6
0.09999999999999432,2583,12,56,4
0.09999999999999432,2583,13,56,3
0.10000000000002274,2583,14,56,9
0.09999999999999432,2583,15,56,16
0.09999999999999432,2584,0,56,1
0.09999999999999432,2584,1,56,15
0.09999999999999432,2584,2,56,1
0.09999999999999432,2584,3,56,8
0.09999999999999432,2584,4,56,11
0.09999999999999432,2584,5,56,6
0.09999999999999432,2584,6,56,12
0.09999999999999432,2584,7,56,13
0.09999999999999432,2584,8,56,6
0.09999999999999432,2584,9,56,18
0.10000000000002274,2584,10,56,15
0.10000000000002274,2584,11,56,9
0.09999999999999432,2584,12,56,8
0.09999999999999432,2584,13,56,20
0.09999999999999432,2584,14,56,10
0.09999999999999432,2584,15,56,10
0.09999999999999432,2585,0,56,14
0.09999999999999432,2585,1,56,14
0.09999999999999432,2585,2,56,10
0.09999999999999432,2585,3,56,5
0.09999999999999432,2585,4,56,3
0.06818181818181301,2585,5,56,3
0.004545454545450411,2585,6,56,5
0.09999999999999432,2585,7,56,12
0.09999999999999432,2585,8,56,4
0.09999999999999432,2585,9,56,7
0.09999999999999432,2585,10,56,5
0.10000000000002274,2585,11,56,3
0.09999999999999432,2585,12,56,8
0.09999999999999432,2585,13,56,4
0.09999999999999432,2585,14,56,7
0.09999999999999432,2585,15,56,7
0.09999999999999432,2586,0,56,11
0.09999999999999432,2586,1,56,8
0.09999999999999432,2586,2,56,6
0.09999999999999432,2586,3,56,24
0.09999999999999432,2586,4,56,5
0.09999999999999432,2586,5,56,6
0.09999999999999432,2586,6,56,7
0.06818181818181301,2586,7,56,7
0.09999999999999432,2586,8,56,10
0.09999999999999432,2586,9,56,4
0.09999999999999432,2586,10,56,4
0.09999999999999432,2586,11,56,5
0.06818181818181301,2586,12,56,6
0.09999999999999432,2586,13,56,4
0.09999999999999432,2586,14,56,13
0.10000000000002274,2586,15,56,5
0.09999999999999432,2587,0,56,7
0.09999999999999432,2587,1,56,6
0.06818181818181301,2587,2,56,8
0.004545454545450411,2587,3,56,9
0.09999999999999432,2587,4,56,4
0.09999999999999432,2587,5,56,4
0.09999999999999432,2587,6,56,3
0.09999999999999432,2587,7,56,11
0.09999999999999432,2587,8,56,2
0.09999999999999432,2587,9,56,6
0.09999999999999432,2587,10,56,5
0.10000000000002274,2587,11,56,7
0.09999999999999432,2587,12,56,1
0.09999999999999432,2587,13,56,5
0.09999999999999432,2587,14,56,13
0.09999999999999432,2587,15,56,6
0.09999999999999432,2588,0,56,8
0.09999999999999432,2588,1,56,9
0.06818181818181301,2588,2,56,13
0.09999999999999998,2588,3,71,24
0.10000000000000009,2588,4,71,27
0.09999999999999987,2588,5,71,27
0.09999999999999964,2588,6,71,34
0.10000000000000053,2588,7,71,31
0.09999999999999964,2588,8,71,22
0.10000000000000053,2588,9,71,24
0.09999999999999964,2588,10,71,32
0.09999999999999964,2588,11,71,41
0.09999999999999964,2588,12,71,38
0.10000000000000142,2588,13,71,32
0.09999999999999964,2588,14,71,32
0.09999999999999964,2588,15,71,29
0.10000000000000142,2589,0,71,34
0.09999999999999964,2589,1,71,27
0.10000000000000142,2589,2,71,31
0.10000000000000142,2589,3,71,13
0.09999999999999964,2589,4,71,24
0.10000000000000142,2589,5,71,17
0.09999999999999964,2589,6,71,28
0.10000000000000142,2589,7,71,31
0.09999999999999964,2589,8,71,31
0.10000000000000142,2589,9,71,47
0.10000000000000142,2589,10,71,55
0.09999999999999787,2589,11,71,41
0.10000000000000142,2589,12,71,20
0.09999999999999787,2589,13,71,29
0.09999999999999787,2589,14,71,27
0.09999999999999787,2589,15,71,23
0.09999999999999787,2590,0,71,24
0.10000000000000142,2590,1,71,25
0.10000000000000142,2590,2,71,22
0.10000000000000142,2590,3,71,17
0.10000000000000142,2590,4,71,25
0.10000000000000142,2590,5,71,22
0.10000000000000142,2590,6,71,16
0.10000000000000142,2590,7,71,26
0.09999999999999787,2590,8,71,20
0.09999999999999787,2590,9,71,15
0.10000000000000142,2590,10,71,15
0.10000000000000142,2590,11,71,20
0.09999999999999787,2590,12,71,25
0.10000000000000142,2590,13,71,16
0.09999999999999787,2590,14,71,19
0.10000000000000142,2590,15,71,32
0.10000000000000142,2591,0,71,36
0.10000000000000142,2591,1,71,10
0.10000000000000142,2591,2,71,9
0.10000000000000142,2591,3,71,20
0.10000000000000142,2591,4,71,24
0.10000000000000142,2591,5,71,12
0.10000000000000142,2591,6,71,11
0.10000000000000142,2591,7,71,18
0.10000000000000142,2591,8,71,18
0.10000000000000142,2591,9,71,14
0.10000000000000142,2591,10,71,13
0.10000000000000142,2591,11,71,15
0.10000000000000142,2591,12,71,18
0.10000000000000142,2591,13,71,24
0.09999999999999432,2591,14,71,18
0.09999999999999432,2591,15,71,18
0.10000000000000142,2592,0,71,11
0.09999999999999432,2592,1,71,13
0.09999999999999432,2592,2,71,15
0.10000000000000142,2592,3,71,20
0.10000000000000142,2592,4,71,30
0.10000000000000142,2592,5,71,15
0.10000000000000142,2592,6,71,25
0.10000000000000142,2592,7,71,15
0.10000000000000142,2592,8,71,24
0.10000000000000142,2592,9,71,9
0.10000000000000142,2592,10,71,22
0.10000000000000142,2592,11,71,13
0.10000000000000142,2592,12,71,10
0.10000000000000142,2592,13,71,13
0.10000000000000142,2592,14,71,12
0.10000000000000142,2592,15,71,12
0.09999999999999432,2593,0,71,18
0.10000000000000142,2593,1,71,17
0.09999999999999432,2593,2,71,15
0.10000000000000142,2593,3,71,16
0.10000000000000142,2593,4,71,25
0.10000000000000142,2593,5,71,24
0.10000000000000142,2593,6,71,38
0.10000000000000142,2593,7,71,30
0.10000000000000142,2593,8,71,21
0.10000000000000142,2593,9,71,19
0.10000000000000142,2593,10,71,15
0.10000000000000142,2593,11,71,15
0.10000000000000142,2593,12,71,19
0.10000000000000142,2593,13,71,12
0.10000000000000142,2593,14,71,17
0.10000000000000142,2593,15,71,23
0.10000000000000142,2594,0,71,15
0.10000000000000142,2594,1,71,19
0.10000000000000142,2594,2,71,16
0.10000000000000142,2594,3,71,20
0.10000000000000142,2594,4,71,16
0.09999999999999432,2594,5,71,13
0.10000000000000142,2594,6,71,7
0.10000000000000853,2594,7,71,14
0.09999999999999432,2594,8,71,5
0.10000000000000853,2594,9,71,8
0.09999999999999432,2594,10,71,16
0.10000000000000853,2594,11,71,12
0.10000000000000853,2594,12,71,12
0.10000000000000853,2594,13,71,14
0.09999999999999432,2594,14,71,19
0.10000000000000853,2594,15,71,3
0.09999999999999432,2595,0,71,15
0.09999999999999432,2595,1,71,17
0.09999999999999432,2595,2,71,23
0.09999999999999432,2595,3,71,2
0.09999999999999432,2595,4,71,19
0.10000000000000853,2595,5,71,20
0.09999999999999432,2595,6,71,12
0.10000000000000853,2595,7,71,13
0.09999999999999432,2595,8,71,10
0.10000000000000853,2595,9,71,9
0.10000000000000853,2595,10,71,25
0.10000000000000853,2595,11,71,18
0.09999999999999432,2595,12,71,14
0.10000000000000853,2595,13,71,14
0.09999999999999432,2595,14,71,17
0.09999999999999432,2595,15,71,13
0.09999999999999432,2596,0,71,16
0.10000000000000853,2596,1,71,14
0.09999999999999432,2596,2,71,14
0.10000000000000853,2596,3,71,19
0.09999999999999432,2596,4,71,12
0.09999999999999432,2596,5,71,15
0.10000000000000853,2596,6,71,15
0.10000000000000853,2596,7,71,20
0.09999999999999432,2596,8,71,17
0.09999999999999432,2596,9,71,8
0.09999999999999432,2596,10,71,13
0.10000000000000853,2596,11,71,14
0.10000000000000853,2596,12,71,16
0.09999999999999432,2596,13,71,9
0.09999999999999432,2596,14,71,17
0.10000000000000853,2596,15,71,16
0.09999999999999432,2597,0,71,26
0.09999999999999432,2597,1,71,24
0.10000000000000853,2597,2,71,20
0.09999999999999432,2597,3,71,19
0.10000000000000853,2597,4,71,7
0.09999999999999432,2597,5,71,13
0.09999999999999432,2597,6,71,14
0.10000000000000853,2597,7,71,31
0.09999999999999432,2597,8,71,35
0.09999999999999432,2597,9,71,34
0.09999999999999432,2597,10,71,49
0.09999999999999432,2597,11,71,22
0.09999999999999432,2597,12,71,7
0.10000000000000853,2597,13,71,16
0.10000000000000853,2597,14,71,23
0.10000000000000853,2597,15,71,15
0.10000000000000853,2598,0,71,11
0.09999999999999432,2598,1,71,25
0.09999999999999432,2598,2,71,16
0.10000000000000853,2598,3,71,16
0.09999999999999432,2598,4,71,32
0.09999999999999432,2598,5,71,26
0.09999999999999432,2598,6,71,9
0.10000000000000853,2598,7,71,16
0.10000000000000853,2598,8,71,9
0.09999999999999432,2598,9,71,8
0.09999999999999432,2598,10,71,21
0.09999999999999432,2598,11,71,22
0.10000000000000853,2598,12,71,26
0.10000000000000853,2598,13,71,25
0.10000000000000853,2598,14,71,39
0.09999999999999432,2598,15,71,19
0.10000000000000853,2599,0,71,26
0.09999999999999432,2599,1,71,14
0.09999999999999432,2599,2,71,36
0.09999999999999432,2599,3,71,19
0.09999999999999432,2599,4,71,30
0.10000000000000853,2599,5,71,24
0.10000000000000853,2599,6,71,47
0.10000000000000853,2599,7,71,26
0.09999999999999432,2599,8,71,43
0.09999999999999432,2599,9,71,21
0.10000000000000853,2599,10,71,22
0.10000000000000853,2599,11,71,17
0.09999999999999432,2599,12,71,22
0.09999999999999432,2599,13,71,20
0.10000000000000853,2599,14,71,20
0.10000000000000853,2599,15,71,24
0.09999999999999432,2600,0,71,20
0.09999999999999432,2600,1,71,24
0.09999999999999432,2600,2,71,30
0.09999999999999432,2600,3,71,19
0.09999999999999432,2600,4,71,20
0.09999999999999432,2600,5,71,1
0.09999999999999432,2600,6,71,15
0.09999999999999432,2600,7,71,15
0.10000000000002274,2600,8,71,28
0.09999999999999432,2600,9,71,22
0.09999999999999432,2600,10,71,11
0.09999999999999432,2600,11,71,22
0.09999999999999432,2600,12,71,15
0.09999999999999432,2600,13,71,18
0.09999999999999432,2600,14,71,17
0.09999999999999432,2600,15,71,27
0.09999999999999432,2601,0,71,21
0.10000000000002274,2601,1,71,26
0.09999999999999432,2601,2,71,15
0.10000000000002274,2601,3,71,18
0.09999999999999432,2601,4,71,9
0.09999999999999432,2601,5,71,15
0.10000000000002274,2601,6,71,30
0.09999999999999432,2601,7,71,24
0.09999999999999432,2601,8,71,17
0.09999999999999432,2601,9,71,18
0.10000000000002274,2601,10,71,12
0.09999999999999432,2601,11,71,11
0.09999999999999432,2601,12,71,7
0.09999999999999432,2601,13,71,17
0.09999999999999432,2601,14,71,13
0.10000000000002274,2601,15,71,11
0.09999999999999432,2602,0,71,11
0.09999999999999432,2602,1,71,6
0.09999999999999432,2602,2,71,12
0.09999999999999432,2602,3,71,13
0.09999999999999432,2602,4,71,24
0.09999999999999432,2602,5,71,19
0.09999999999999432,2602,6,71,26
0.09999999999999432,2602,7,71,36
0.09999999999999432,2602,8,71,25
0.09999999999999432,2602,9,71,10
0.09999999999999432,2602,10,71,42
0.09999999999999432,2602,11,71,13
0.09999999999999432,2602,12,71,26
0.10000000000002274,2602,13,71,16
0.09999999999999432,2602,14,71,29
0.10000000000002274,2602,15,71,16
0.10000000000002274,2603,0,71,23
0.09999999999999432,2603,1,71,36
0.09999999999999432,2603,2,71,35
0.09999999999999432,2603,3,71,17
0.09999999999999432,2603,4,71,19
0.09999999999999432,2603,5,71,23
0.09999999999999432,2603,6,71,27
0.09999999999999432,2603,7,71,20
0.09999999999999432,2603,8,71,12
0.09999999999999432,2603,9,71,14
0.09999999999999432,2603,10,71,13
0.10000000000002274,2603,11,71,16
0.10000000000002274,2603,12,71,11
0.10000000000002274,2603,13,71,11
0.09999999999999432,2603,14,71,11
0.09999999999999432,2603,15,71,25
0.09999999999999432,2604,0,71,12
0.09999999999999432,2604,1,71,18
0.09999999999999432,2604,2,71,20
0.10000000000002274,2604,3,71,42
0.09999999999999432,2604,4,71,33
0.09999999999999432,2604,5,71,51
0.09999999999999432,2604,6,71,48
0.10000000000002274,2604,7,71,22
0.09999999999999432,2604,8,71,36
0.09999999999999432,2604,9,71,33
0.09999999999999432,2604,10,71,48
0.10000000000002274,2604,11,71,30
0.10000000000002274,2604,12,71,31
0.09999999999999432,2604,13,71,19
0.09999999999999432,2604,14,71,18
0.09999999999999432,2604,15,71,25
0.09999999999999432,2605,0,71,25
0.10000000000002274,2605,1,71,35
0.09999999999999432,2605,2,71,23
0.09999999999999432,2605,3,71,15
0.09999999999999432,2605,4,71,18
0.10000000000002274,2605,5,71,26
0.09999999999999432,2605,6,71,19
0.10000000000002274,2605,7,71,15
0.10000000000002274,2605,8,71,23
0.10000000000002274,2605,9,71,18
0.09999999999999432,2605,10,71,13
0.10000000000002274,2605,11,71,15
0.10000000000002274,2605,12,71,15
0.09999999999999432,2605,13,71,18
0.09999999999999432,2605,14,71,15
0.10000000000002274,2605,15,71,23
0.09999999999999432,2606,0,71,18
0.09999999999999432,2606,1,71,17
0.09999999999999432,2606,2,71,21
0.09999999999999432,2606,3,71,17
0.10000000000002274,2606,4,71,23
0.09999999999999432,2606,5,71,15
0.10000000000002274,2606,6,71,20
0.09999999999999432,2606,7,71,23
0.10000000000002274,2606,8,71,17
0.09999999999999432,2606,9,71,12
0.09999999999999432,2606,10,71,23
0.09999999999999432,2606,11,71,18
0.10000000000002274,2606,12,71,21
0.09999999999999432,2606,13,71,17
0.09999999999999432,2606,14,71,17
0.09999999999999432,2606,15,71,17
0.09999999999999432,2607,0,71,15
0.09999999999999432,2607,1,71,8
0.09999999999999432,2607,2,71,20
0.09999999999999432,2607,3,71,19
0.09999999999999432,2607,4,71,24
0.09999999999999432,2607,5,71,18
0.09999999999999432,2607,6,71,16
0.09999999999999432,2607,7,71,16
0.09999999999999432,2607,8,71,19
0.10000000000002274,2607,9,71,16
0.09999999999999432,2607,10,71,16
0.09999999999999432,2607,11,71,20
0.09999999999999432,2607,12,71,14
0.09999999999999432,2607,13,71,15
0.09999999999999432,2607,14,71,23
0.10000000000002274,2607,15,71,16
0.09999999999999432,2608,0,71,16
0.09999999999999432,2608,1,71,25
0.09999999999999432,2608,2,71,17
0.09999999999999432,2608,3,71,16
0.09999999999999432,2608,4,71,17
0.09999999999999432,2608,5,71,27
0.09999999999999432,2608,6,71,18
0.10000000000002274,2608,7,71,5
0.09999999999999432,2608,8,71,1
0.09999999999999432,2608,9,71,1
0.09999999999999432,2608,10,71,1
0.09999999999999432,2608,11,71,3
0.09999999999999432,2608,12,71,1
0.09999999999999432,2608,13,71,1
0.09999999999999432,2608,14,71,2
0.09999999999999432,2608,15,71,1
0.09999999999999432,2609,0,71,1
0.09999999999999432,2609,1,71,1
0.10000000000002274,2609,2,71,1
0.10000000000000009,2609,3,76,15
0.09999999999999964,2609,4,76,8
0.10000000000000053,2609,5,76,10
0.09999999999999964,2609,6,76,31
0.09999999999999964,2609,7,76,24
0.09999999999999964,2609,8,76,18
0.10000000000000053,2609,9,76,3
0.09999999999999964,2609,10,76,3
0.09999999999999964,2609,11,76,26
0.10000000000000053,2609,12,76,21
0.09999999999999964,2609,13,76,12
0.09999999999999964,2609,14,76,2
0.09999999999999964,2609,15,76,2
0.10000000000000142,2610,0,76,14
0.09999999999999964,2610,1,76,25
0.10000000000000142,2610,2,76,32
0.09999999999999964,2610,3,76,4
0.10000000000000142,2610,4,76,22
0.10000000000000142,2610,5,76,4
0.10000000000000142,2610,6,76,6
0.10000000000000142,2610,7,76,5
0.10000000000000142,2610,8,76,7
0.10000000000000142,2610,9,76,6
0.10000000000000142,2610,10,76,31
0.10000000000000142,2610,11,76,5
0.10000000000000142,2610,12,76,37
0.10000000000000142,2610,13,76,2
0.10000000000000142,2610,14,76,35
0.10000000000000142,2610,15,76,24
0.10000000000000142,2611,0,76,26
0.10000000000000142,2611,1,76,40
0.10000000000000142,2611,2,76,22
0.10000000000000142,2611,3,76,15
0.10000000000000142,2611,4,76,18
0.10000000000000142,2611,5,76,37
0.10000000000000142,2611,6,76,5
0.10000000000000142,2611,7,76,25
0.10000000000000142,2611,8,76,9
0.09999999999999432,2611,9,76,22
0.10000000000000142,2611,10,76,25
0.10000000000000142,2611,11,76,4
0.10000000000000142,2611,12,76,13
0.09999999999999432,2611,13,76,20
0.10000000000000142,2611,14,76,24
0.10000000000000142,2611,15,76,13
0.10000000000000142,2612,0,76,21
0.10000000000000142,2612,1,76,21
0.10000000000000142,2612,2,76,18
0.10000000000000142,2612,3,76,41
0.10000000000000142,2612,4,76,8
0.10000000000000142,2612,5,76,22
0.09999999999999432,2612,6,76,43
0.10000000000000142,2612,7,76,17
0.10000000000000142,2612,8,76,27
0.10000000000000142,2612,9,76,4
0.10000000000000142,2612,10,76,33
0.10000000000000142,2612,11,76,23
0.004545454545450411,2612,12,76,19
0.10000000000000142,2612,13,76,25
0.10000000000000142,2612,14,76,12
0.09999999999999432,2612,15,76,11
0.10000000000000142,2613,0,76,16
0.10000000000000142,2613,1,76,38
0.10000000000000142,2613,2,76,8
0.09999999999999432,2613,3,76,24
0.10000000000000142,2613,4,76,10
0.10000000000000142,2613,5,76,3
0.10000000000000142,2613,6,76,17
0.10000000000000142,2613,7,76,9
0.10000000000000142,2613,8,76,19
0.10000000000000142,2613,9,76,2
0.10000000000000142,2613,10,76,19
0.10000000000000142,2613,11,76,11
0.10000000000000142,2613,12,76,6
0.10000000000000142,2613,13,76,17
0.09999999999999432,2613,14,76,4
0.10000000000000142,2613,15,76,25
0.10000000000000142,2614,0,76,3
0.10000000000000142,2614,1,76,10
0.10000000000000142,2614,2,76,29
0.10000000000000142,2614,3,76,3
0.10000000000000142,2614,4,76,27
0.10000000000000142,2614,5,76,5
0.10000000000000142,2614,6,76,17
0.10000000000000142,2614,7,76,12
0.10000000000000142,2614,8,76,26
0.10000000000000142,2614,9,76,48
0.10000000000000142,2614,10,76,26
0.10000000000000142,2614,11,76,17
0.09999999999999432,2614,12,76,7
0.10000000000000142,2614,13,76,23
0.10000000000000142,2614,14,76,2
0.004545454545457517,2614,15,76,21
0.09999999999999432,2615,0,76,11
0.10000000000000853,2615,1,76,2
0.09999999999999432,2615,2,76,24
0.09999999999999432,2615,3,76,4
0.10000000000000853,2615,4,76,18
0.09999999999999432,2615,5,76,23
0.09999999999999432,2615,6,76,9
0.10000000000000853,2615,7,76,11
0.09999999999999432,2615,8,76,11
0.10000000000000853,2615,9,76,1
0.10000000000000853,2615,10,76,24
0.09999999999999432,2615,11,76,2
0.10000000000000853,2615,12,76,18
0.09999999999999432,2615,13,76,35
0.10000000000000853,2615,14,76,3
0.09999999999999432,2615,15,76,17
0.10000000000000853,2616,0,76,3
0.09999999999999432,2616,1,76,20
0.09999999999999432,2616,2,76,11
0.004545454545450411,2616,3,76,28
0.10000000000000853,2616,4,76,39
0.09999999999999432,2616,5,76,19
0.09999999999999432,2616,6,76,10
0.09999999999999432,2616,7,76,10
0.09999999999999432,2616,8,76,24
0.09999999999999432,2616,9,76,17
0.09999999999999432,2616,10,76,6
0.09999999999999432,2616,11,76,8
0.09999999999999432,2616,12,76,15
0.09999999999999432,2616,13,76,22
0.10000000000000853,2616,14,76,19
0.09999999999999432,2616,15,76,17
0.10000000000000853,2617,0,76,17
0.09999999999999432,2617,1,76,26
0.10000000000000853,2617,2,76,22
0.10000000000000853,2617,3,76,27
0.09999999999999432,2617,4,76,3
0.09999999999999432,2617,5,76,25
0.09999999999999432,2617,6,76,2
0.004545454545450411,2617,7,76,27
0.10000000000000853,2617,8,76,43
0.09999999999999432,2617,9,76,11
0.09999999999999432,2617,10,76,6
0.09999999999999432,2617,11,76,25
0.10000000000000853,2617,12,76,2
0.09999999999999432,2617,13,76,18
0.09999999999999432,2617,14,76,8
0.09999999999999432,2617,15,76,4
0.10000000000000853,2618,0,76,23
0.09999999999999432,2618,1,76,7
0.10000000000000853,2618,2,76,25
0.09999999999999432,2618,3,76,26
0.09999999999999432,2618,4,76,7
0.10000000000000853,2618,5,76,7
0.09999999999999432,2618,6,76,18
0.09999999999999432,2618,7,76,3
0.10000000000000853,2618,8,76,19
0.10000000000000853,2618,9,76,2
0.10000000000000853,2618,10,76,13
0.10000000000000853,2618,11,76,35
0.09999999999999432,2618,12,76,3
0.10000000000000853,2618,13,76,17
0.10000000000000853,2618,14,76,5
0.09999999999999432,2618,15,76,21
0.09999999999999432,2619,0,76,11
0.09999999999999432,2619,1,76,23
0.09999999999999432,2619,2,76,46
0.09999999999999432,2619,3,76,15
0.10000000000000853,2619,4,76,12
0.09999999999999432,2619,5,76,6
0.10000000000000853,2619,6,76,19
0.09999999999999432,2619,7,76,2
0.004545454545450411,2619,8,76,24
0.09999999999999432,2619,9,76,7
0.10000000000000853,2619,10,76,4
0.10000000000000853,2619,11,76,27
0.09999999999999432,2619,12,76,10
0.09999999999999432,2619,13,76,19
0.09999999999999432,2619,14,76,2
0.0022727272727252057,2619,15,76,28
0.09999999999999432,2620,0,76,7
0.10000000000000853,2620,1,76,11
0.09999999999999432,2620,2,76,11
0.09999999999999432,2620,3,76,4
0.09999999999999432,2620,4,76,20
0.10000000000000853,2620,5,76,15
0.10000000000000853,2620,6,76,38
0.10000000000000853,2620,7,76,3
0.09999999999999432,2620,8,76,24
0.10000000000000853,2620,9,76,6
0.09999999999999432,2620,10,76,26
0.09999999999999432,2620,11,76,22
0.09999999999999432,2620,12,76,16
0.09999999999999432,2620,13,76,13
0.09999999999999432,2620,14,76,11
0.09999999999999432,2620,15,76,20
0.09999999999999432,2621,0,76,6
0.09999999999999432,2621,1,76,19
0.09999999999999432,2621,2,76,2
0.0022727272727252057,2621,3,76,15
0.09999999999999432,2621,4,76,6
0.10000000000000853,2621,5,76,10
0.10000000000000853,2621,6,76,37
0.09999999999999432,2621,7,76,8
0.10000000000000853,2621,8,76,16
0.09999999999999432,2621,9,76,5
0.004545454545450411,2621,10,76,36
0.09999999999999432,2621,11,76,8
0.10000000000000853,2621,12,76,12
0.09999999999999432,2621,13,76,22
0.10000000000000853,2621,14,76,5
0.10000000000000853,2621,15,76,22
0.10000000000000853,2622,0,76,2
0.004545454545464622,2622,1,76,22
0.10000000000000853,2622,2,76,28
0.10000000000000853,2622,3,76,7
0.09999999999999432,2622,4,76,17
0.10000000000000853,2622,5,76,3
0.09999999999999432,2622,6,76,19
0.09999999999999432,2622,7,76,2
0.10000000000000853,2622,8,76,24
0.09999999999999432,2622,9,76,37
0.09999999999999432,2622,10,76,10
0.10000000000000853,2622,11,76,11
0.10000000000000853,2622,12,76,5
0.09999999999999432,2622,13,76,12
0.09999999999999432,2622,14,76,2
0.004545454545450411,2622,15,76,17
0.09999999999999432,2623,0,76,7
0.10000000000000853,2623,1,76,4
0.10000000000000853,2623,2,76,28
0.09999999999999432,2623,3,76,8
0.10000000000000853,2623,4,76,21
0.09999999999999432,2623,5,76,2
0.004545454545450411,2623,6,76,23
0.09999999999999432,2623,7,76,17
0.10000000000000853,2623,8,76,14
0.09999999999999432,2623,9,76,21
0.10000000000000853,2623,10,76,7
0.10000000000000853,2623,11,76,25
0.10000000000000853,2623,12,76,2
0.0022727272727394165,2623,13,76,26
0.10000000000000853,2623,14,76,8
0.09999999999999432,2623,15,76,4
0.10000000000000853,2624,0,76,10
0.09999999999999432,2624,1,76,4
0.10000000000000853,2624,2,76,9
0.09999999999999432,2624,3,76,6
0.10000000000000853,2624,4,76,4
0.10000000000000853,2624,5,76,42
0.09999999999999432,2624,6,76,12
0.09999999999999432,2624,7,76,5
0.09999999999999432,2624,8,76,10
0.09999999999999432,2624,9,76,21
0.10000000000000853,2624,10,76,2
0.004545454545464622,2624,11,76,14
0.10000000000000853,2624,12,76,10
0.10000000000000853,2624,13,76,5
0.09999999999999432,2624,14,76,9
0.09999999999999432,2624,15,76,5
0.09999999999999432,2625,0,76,5
0.09999999999999432,2625,1,76,40
0.10000000000000853,2625,2,76,8
0.10000000000000853,2625,3,76,5
0.09999999999999432,2625,4,76,10
0.09999999999999432,2625,5,76,26
0.09999999999999432,2625,6,76,2
0.004545454545450411,2625,7,76,24
0.09999999999999432,2625,8,76,10
0.09999999999999432,2625,9,76,5
0.10000000000000853,2625,10,76,8
0.10000000000000853,2625,11,76,6
0.10000000000000853,2625,12,76,4
0.004545454545464622,2625,13,76,42
0.10000000000000853,2625,14,76,11
0.09999999999999432,2625,15,76,5
0.09999999999999432,2626,0,76,9
0.09999999999999432,2626,1,76,16
0.10000000000000853,2626,2,76,13
0.09999999999999432,2626,3,76,3
0.004545454545450411,2626,4,76,11
0.09999999999999432,2626,5,76,5
0.0022727272727252057,2626,6,76,38
0.09999999999999432,2626,7,76,40
0.09999999999999432,2626,8,76,5
0.10000000000000853,2626,9,76,34
0.09999999999999432,2626,10,76,2
0.09999999999999432,2626,11,76,34
0.09999999999999432,2626,12,76,5
0.09999999999999432,2626,13,76,4
0.09999999999999432,2626,14,76,7
0.09999999999999432,2626,15,76,4
0.0022727272727252057,2627,0,76,52
0.10000000000002274,2627,1,76,5
0.0022727272727252057,2627,2,76,9
0.09999999999999432,2627,3,76,2
0.09999999999999432,2627,4,76,7
0.09999999999999432,2627,5,76,4
0.10000000000002274,2627,6,76,22
0.09999999999999432,2627,7,76,5
0.09999999999999432,2627,8,76,34
0.09999999999999432,2627,9,76,5
0.09999999999999432,2627,10,76,10
0.09999999999999432,2627,11,76,4
0.09999999999999432,2627,12,76,6
0.09999999999999432,2627,13,76,4
0.10000000000002274,2627,14,76,6
0.09999999999999432,2627,15,76,4
0.10000000000002274,2628,0,76,52
0.09999999999999432,2628,1,76,6
0.09999999999999432,2628,2,76,9
0.09999999999999432,2628,3,76,6
0.10000000000002274,2628,4,76,9
0.09999999999999432,2628,5,76,5
0.004545454545450411,2628,6,76,25
0.10000000000002274,2628,7,76,4
0.004545454545478833,2628,8,76,32
0.09999999999999432,2628,9,76,5
0.004545454545450411,2628,10,76,8
0.09999999999999432,2628,11,76,4
0.09999999999999432,2628,12,76,7
0.09999999999999432,2628,13,76,4
0.09999999999999432,2628,14,76,7
0.09999999999999432,2628,15,76,4
0.004545454545450411,2629,0,76,29
0.10000000000002274,2629,1,76,5
0.004545454545450411,2629,2,76,9
0.09999999999999432,2629,3,76,5
0.09999999999999432,2629,4,76,8
0.09999999999999432,2629,5,76,5
0.09999999999999432,2629,6,76,22
0.09999999999999432,2629,7,76,4
0.004545454545450411,2629,8,76,29
0.09999999999999432,2629,9,76,5
0.004545454545450411,2629,10,76,9
0.09999999999999432,2629,11,76,4
0.09999999999999432,2629,12,76,7
0.09999999999999432,2629,13,76,4
0.10000000000002274,2629,14,76,7
0.09999999999999432,2629,15,76,5
0.09999999999999432,2630,0,76,38
0.09999999999999432,2630,1,76,6
0.09999999999999432,2630,2,76,9
0.09999999999999432,2630,3,76,6
0.09999999999999432,2630,4,76,7
0.09999999999999432,2630,5,76,5
0.004545454545450411,2630,6,76,25
0.09999999999999432,2630,7,76,4
0.10000000000002274,2630,8,76,27
0.09999999999999432,2630,9,76,5
0.004545454545450411,2630,10,76,8
0.09999999999999432,2630,11,76,3
0.09999999999999432,2630,12,76,7
0.09999999999999432,2630,13,76,2
0.004545454545450411,2630,14,76,6
0.09999999999999432,2630,15,76,4
0.09999999999999432,2631,0,76,42
0.10000000000002274,2631,1,76,5
0.004545454545478833,2631,2,76,8
0.09999999999999432,2631,3,76,4
0.09999999999999432,2631,4,76,7
0.09999999999999432,2631,5,76,4
0.0022727272727252057,2631,6,76,23
0.09999999999999432,2631,7,76,4
0.0022727272727252057,2631,8,76,26
0.09999999999999432,2631,9,76,4
0.0022727272727252057,2631,10,76,10
0.09999999999999432,2631,11,76,4
0.09999999999999432,2631,12,76,7
0.09999999999999432,2631,13,76,4
0.10000000000002274,2631,14,76,6
0.09999999999999432,2631,15,76,5
0.004545454545450411,2632,0,76,38
0.09999999999999432,2632,1,76,5
0.09999999999999432,2632,2,76,9
0.09999999999999432,2632,3,76,5
0.09999999999999432,2632,4,76,8
0.09999999999999432,2632,5,76,5
0.09999999999999432,2632,6,76,19
0.09999999999999432,2632,7,76,4
0.10000000000002274,2632,8,76,29
0.09999999999999432,2632,9,76,4
0.004545454545450411,2632,10,76,5
0.09999999999999432,2632,11,76,3
0.09999999999999432,2632,12,76,6
0.10000000000002274,2632,13,76,4
0.09999999999999432,2632,14,76,6
0.09999999999999432,2632,15,76,4
0.09999999999999432,2633,0,76,37
0.10000000000002274,2633,1,76,5
0.0022727272727536274,2633,2,76,8
0.09999999999999432,2633,3,76,6
0.09999999999999432,2633,4,76,8
0.09999999999999432,2633,5,76,4
0.004545454545450411,2633,6,76,25
0.09999999999999432,2633,7,76,4
0.004545454545450411,2633,8,76,23
0.09999999999999432,2633,9,76,5
0.004545454545450411,2633,10,76,8
0.09999999999999432,2633,11,76,4
0.10000000000002274,2633,12,76,30
0.09999999999999432,2633,13,76,5
0.09999999999999432,2633,14,76,27
0.09999999999999432,2633,15,76,5
0.004545454545450411,2634,0,76,8
0.09999999999999432,2634,1,76,3
0.004545454545450411,2634,2,76,37
0.10000000000002274,2634,3,76,3
0.09999999999999432,2634,4,76,4
0.10000000000002274,2634,5,76,26
0.09999999999999432,2634,6,76,18
0.09999999999999432,2634,7,76,3
0.10000000000002274,2634,8,76,6
0.09999999999999432,2634,9,76,4
0.09999999999999432,2634,10,76,7
0.09999999999999432,2634,11,76,5
0.09999999999999432,2634,12,76,38
0.10000000000002274,2634,13,76,5
0.004545454545478833,2634,14,76,9
0.09999999999999432,2634,15,76,5
0.09999999999999432,2635,0,76,9
0.09999999999999432,2635,1,76,5
0.004545454545450411,2635,2,76,31
0.09999999999999432,2635,3,76,5
0.09999999999999432,2635,4,76,32
0.10000000000002274,2635,5,76,5
0.004545454545450411,2635,6,76,9
0.09999999999999432,2635,7,76,4
0.09999999999999432,2635,8,76,7
0.09999999999999432,2635,9,76,4
0.09999999999999432,2635,10,76,6
0.10000000000002274,2635,11,76,5
0.09999999999999432,2635,12,76,40
0.09999999999999432,2635,13,76,5
0.004545454545450411,2635,14,76,10
0.09999999999999432,2635,15,76,3
0.004545454545450411,2636,0,76,7
0.09999999999999432,2636,1,76,4
0.10000000000002274,2636,2,76,8
0.09999999999999432,2636,3,76,4
0.004545454545450411,2636,4,76,20
0.09999999999999432,2636,5,76,4
0.004545454545450411,2636,6,76,9
0.10000000000002274,2636,7,76,4
0.09999999999999432,2636,8,76,5
0.09999999999999432,2636,9,76,4
0.004545454545450411,2636,10,76,12
0.09999999999999432,2636,11,76,4
0.10000000000002274,2636,12,76,7
0.09999999999999432,2636,13,76,3
0.10000000000002274,2636,14,76,5
0.09999999999999432,2636,15,76,4
0.09999999999999432,2637,0,76,4
0.09999999999999432,2637,1,76,3
0.0022727272727252057,2637,2,76,19
0.09999999999999432,2637,3,76,4
0.09999999999999432,2637,4,76,15
0.09999999999999432,2637,5,76,3
0.09999999999999432,2637,6,76,10
0.09999999999999432,2637,7,76,4
0.09999999999999432,2637,8,76,4
0.09999999999999432,2637,9,76,4
0.004545454545450411,2637,10,76,18
0.09999999999999432,2637,11,76,3
0.004545454545450411,2637,12,76,16
0.09999999999999432,2637,13,76,4
0.09999999999999432,2637,14,76,5
0.09999999999999432,2637,15,76,4
0.09999999999999432,2638,0,76,4
0.09999999999999432,2638,1,76,3
0.004545454545450411,2638,2,76,9
0.09999999999999432,2638,3,76,3
0.0022727272727252057,2638,4,76,18
0.10000000000002274,2638,5,76,3
0.09999999999999432,2638,6,76,10
0.09999999999999432,2638,7,76,5
0.09999999999999432,2638,8,76,7
0.09999999999999432,2638,9,76,2
0.09999999999999432,2638,10,76,26
0.10000000000002274,2638,11,76,8
0.09999999999999432,2638,12,76,2
0.09999999999999432,2638,13,76,1
0.09999999999999432,2638,14,76,20
0.09999999999999432,2638,15,76,9
0.09999999999999432,2639,0,76,4
0.10000000000002274,2639,1,76,6
0.09999999999999432,2639,2,76,23
0.10000000000002274,2639,3,76,7
0.09999999999999432,2639,4,76,5
0.09999999999999432,2639,5,76,6
0.09999999999999432,2639,6,76,23
0.09999999999999432,2639,7,76,8
0.10000000000002274,2639,8,76,34
0.09999999999999432,2639,9,76,6
0.09999999999999432,2639,10,76,4
0.004545454545450411,2639,11,76,14
0.09999999999999432,2639,12,76,3
0.004545454545450411,2639,13,76,18
0.10000000000002274,2639,14,76,3
0.09999999999999432,2639,15,76,6
0.10000000000002274,2640,0,76,3
0.09999999999999432,2640,1,76,4
0.09999999999999432,2640,2,76,4
0.004545454545450411,2640,3,76,16
0.09999999999999432,2640,4,76,3
0.004545454545450411,2640,5,76,9
0.09999999999999432,2640,6,76,4
0.09999999999999432,2640,7,76,13
0.10000000000002274,2640,8,76,3
0.09999999999999432,2640,9,76,7
0.10000000000002274,2640,10,76,3
0.09999999999999432,2640,11,76,14
0.09999999999999432,2640,12,76,3
0.09999999999999432,2640,13,76,8
0.09999999999999432,2640,14,76,4
0.004545454545450411,2640,15,76,7
0.09999999999999432,2641,0,76,2
0.10000000000002274,2641,1,76,4
0.09999999999999432,2641,2,76,4
0.09999999999999432,2641,3,76,19
0.10000000000002274,2641,4,76,3
0.004545454545478833,2641,5,76,16
0.09999999999999432,2641,6,76,3
0.004545454545450411,2641,7,76,10
0.09999999999999432,2641,8,76,3
0.09999999999999432,2641,9,76,4
0.09999999999999432,2641,10,76,3
0.09999999999999432,2641,11,76,20
0.09999999999999432,2641,12,76,3
0.09999999999999432,2641,13,76,16
0.10000000000002274,2641,14,76,6
0.09999999999999432,2641,15,76,6
0.09999999999999432,2642,0,76,3
0.09999999999999432,2642,1,76,5
0.09999999999999432,2642,2,76,4
0.0022727272727252057,2642,3,76,13
0.09999999999999432,2642,4,76,3
0.09999999999999432,2642,5,76,17
0.09999999999999432,2642,6,76,4
0.09999999999999432,2642,7,76,8
0.10000000000002274,2642,8,76,3
0.09999999999999432,2642,9,76,5
0.10000000000002274,2642,10,76,4
0.09999999999999432,2642,11,76,25
0.09999999999999432,2642,12,76,4
0.004545454545450411,2642,13,76,6
0.09999999999999432,2642,14,76,4
0.004545454545450411,2642,15,76,6
0.09999999999999432,2643,0,76,4
0.09999999999999432,2643,1,76,5
0.10000000000002274,2643,2,76,3
0.0022727272727252057,2643,3,76,19
0.10000000000002274,2643,4,76,3
0.0022727272727536274,2643,5,76,14
0.09999999999999432,2643,6,76,3
0.0022727272727252057,2643,7,76,14
0.09999999999999432,2643,8,76,4
0.09999999999999432,2643,9,76,6
0.09999999999999432,2643,10,76,3
0.0022727272727252057,2643,11,76,21
0.09999999999999432,2643,12,76,3
0.09999999999999432,2643,13,76,11
0.10000000000002274,2643,14,76,4
0.09999999999999432,2643,15,76,7
0.09999999999999432,2644,0,76,4
0.09999999999999432,2644,1,76,6
0.09999999999999432,2644,2,76,3
0.004545454545450411,2644,3,76,20
0.09999999999999432,2644,4,76,4
0.09999999999999432,2644,5,76,6
0.09999999999999432,2644,6,76,4
0.09999999999999432,2644,7,76,10
0.10000000000002274,2644,8,76,3
0.09999999999999432,2644,9,76,10
0.09999999999999432,2644,10,76,15
0.09999999999999432,2644,11,76,8
0.09999999999999432,2644,12,76,9
0.09999999999999432,2644,13,76,6
0.09999999999999432,2644,14,76,6
0.10000000000002274,2644,15,76,5
0.09999999999999432,2645,0,76,12
0.09999999999999432,2645,1,76,9
0.09999999999999432,2645,2,76,2
0.09999999999999432,2645,3,76,5
0.09999999999999432,2645,4,76,3
0.09999999999999432,2645,5,76,8
0.09999999999999432,2645,6,76,16
0.09999999999999432,2645,7,76,9
0.10000000000002274,2645,8,76,2
0.09999999999999432,2645,9,76,9
0.09999999999999432,2645,10,76,4
0.09999999999999432,2645,11,76,10
0.09999999999999432,2645,12,76,14
0.09999999999999432,2645,13,76,7
0.09999999999999432,2645,14,76,2
0.09999999999999432,2645,15,76,10
0.09999999999999432,2646,0,76,5
0.10000000000002274,2646,1,76,7
0.10000000000002274,2646,2,76,12
0.09999999999999432,2646,3,76,10
0.09999999999999432,2646,4,76,9
0.09999999999999432,2646,5,76,3
0.09999999999999432,2646,6,76,9
0.09999999999999432,2646,7,76,3
0.10000000000002274,2646,8,76,12
0.10000000000002274,2646,9,76,6
0.09999999999999432,2646,10,76,7
0.10000000000002274,2646,11,76,4
0.09999999999999432,2646,12,76,6
0.09999999999999432,2646,13,76,14
0.10000000000002274,2646,14,76,18
0.09999999999999432,2646,15,76,12
0.09999999999999432,2647,0,76,10
0.10000000000002274,2647,1,76,5
0.09999999999999432,2647,2,76,5
0.09999999999999432,2647,3,76,1
0.09999999999999432,2647,4,76,13
0.09999999999999432,2647,5,76,14
0.10000000000002274,2647,6,76,23
0.09999999999999432,2647,7,76,1
0.10000000000002274,2647,8,76,6
0.10000000000002274,2647,9,76,6
0.09999999999999432,2647,10,76,4
0.10000000000002274,2647,11,76,1
0.09999999999999432,2647,12,76,25
0.09999999999999432,2647,13,76,2
0.09999999999999432,2647,14,76,21
0.09999999999999432,2647,15,76,3
0.10000000000002274,2648,0,76,13
0.09999999999999432,2648,1,76,2
0.10000000000002274,2648,2,76,4
0.09999999999999432,2648,3,76,4
0.09999999999999432,2648,4,76,20
0.10000000000002274,2648,5,76,2
0.09999999999999432,2648,6,76,25
0.09999999999999432,2648,7,76,1
0.09999999999999432,2648,8,76,13
0.09999999999999432,2648,9,76,6
0.09999999999999432,2648,10,76,3
0.09999999999999432,2648,11,76,1
0.10000000000002274,2648,12,76,18
0.09999999999999432,2648,13,76,2
0.10000000000002274,2648,14,76,19
0.09999999999999432,2648,15,76,1
0.09999999999999432,2649,0,76,10
0.09999999999999432,2649,1,76,7
0.09999999999999432,2649,2,76,5
0.09999999999999432,2649,3,76,1
0.09999999999999432,2649,4,76,11
0.09999999999999432,2649,5,76,19
0.10000000000002274,2649,6,76,22
0.09999999999999432,2649,7,76,1
0.10000000000002274,2649,8,76,4
0.10000000000002274,2649,9,76,3
0.09999999999999432,2649,10,76,4
0.10000000000002274,2649,11,76,1
0.09999999999999432,2649,12,76,20
0.09999999999999432,2649,13,76,2
0.09999999999999432,2649,14,76,8
0.09999999999999432,2649,15,76,1
0.09999999999999432,2650,0,76,11
0.09999999999999432,2650,1,76,4
0.10000000000002274,2650,2,76,5
0.10000000000002274,2650,3,76,1
0.09999999999999432,2650,4,76,15
0.10000000000002274,2650,5,76,16
0.09999999999999432,2650,6,76,27
0.09999999999999432,2650,7,76,1
0.09999999999999432,2650,8,76,4
0.09999999999999432,2650,9,76,4
0.09999999999999432,2650,10,76,3
0.09999999999999432,2650,11,76,1
0.10000000000002274,2650,12,76,14
0.10000000000002274,2650,13,76,2
0.09999999999999432,2650,14,76,27
0.10000000000002274,2650,15,76,2
0.09999999999999432,2651,0,76,10
0.09999999999999432,2651,1,76,6
0.09999999999999432,2651,2,76,5
0.09999999999999432,2651,3,76,1
0.09999999999999432,2651,4,76,14
0.09999999999999432,2651,5,76,2
0.09999999999999432,2651,6,76,22
0.09999999999999432,2651,7,76,1
0.10000000000002274,2651,8,76,4
0.10000000000002274,2651,9,76,3
0.09999999999999432,2651,10,76,3
0.09999999999999432,2651,11,76,1
0.004545454545450411,2651,12,76,22
0.09999999999999432,2651,13,76,2
0.09999999999999432,2651,14,76,23
0.09999999999999432,2651,15,76,4
0.10000000000002274,2652,0,76,14
0.09999999999999432,2652,1,76,4
0.09999999999999432,2652,2,76,5
0.10000000000002274,2652,3,76,5
0.09999999999999432,2652,4,76,8
0.09999999999999432,2652,5,76,21
0.09999999999999432,2652,6,76,29
0.09999999999999432,2652,7,76,1
0.09999999999999432,2652,8,76,9
0.09999999999999432,2652,9,76,7
0.10000000000002274,2652,10,76,4
0.09999999999999432,2652,11,76,1
0.10000000000002274,2652,12,76,17
0.10000000000002274,2652,13,76,2
0.09999999999999432,2652,14,76,21
0.10000000000002274,2652,15,76,2
0.09999999999999432,2653,0,76,12
0.09999999999999432,2653,1,76,7
0.09999999999999432,2653,2,76,4
0.09999999999999432,2653,3,76,1
0.09999999999999432,2653,4,76,17
0.09999999999999432,2653,5,76,2
0.09999999999999432,2653,6,76,30
0.10000000000002274,2653,7,76,1
0.10000000000002274,2653,8,76,5
0.09999999999999432,2653,9,76,3
0.09999999999999432,2653,10,76,1
0.09999999999999432,2653,11,76,3
0.09999999999999432,2653,12,76,5
0.09999999999999432,2653,13,76,3
0.09999999999999432,2653,14,76,2
0.09999999999999432,2653,15,76,4
0.09999999999999432,2654,0,76,5
0.09999999999999432,2654,1,76,2
0.10000000000002274,2654,2,76,6
0.09999999999999432,2654,3,76,3
0.09999999999999432,2654,4,76,3
0.09999999999999432,2654,5,76,34
0.09999999999999432,2654,6,76,2
0.09999999999999432,2654,7,76,4
0.09999999999999432,2654,8,76,10
0.09999999999999432,2654,9,76,2
0.004545454545450411,2654,10,76,3
0.10000000000002274,2654,11,76,1
0.09999999999999432,2654,12,76,20
0.10000000000002274,2654,13,76,2
0.09999999999999432,2654,14,76,18
0.09999999999999432,2654,15,76,2
0.09999999999999432,2655,0,76,13
0.09999999999999432,2655,1,76,9
0.09999999999999432,2655,2,76,2
0.09999999999999432,2655,3,76,1
0.09999999999999432,2655,4,76,11
0.09999999999999432,2655,5,76,18
0.09999999999999432,2655,6,76,21
0.10000000000002274,2655,7,76,1
0.09999999999999432,2655,8,76,5
0.09999999999999432,2655,9,76,5
0.09999999999999432,2655,10,76,4
0.09999999999999432,2655,11,76,1
0.09999999999999432,2655,12,76,20
0.09999999999999432,2655,13,76,2
0.09999999999999432,2655,14,76,28
0.09999999999999432,2655,15,76,1
0.10000000000002274,2656,0,76,13
0.10000000000002274,2656,1,76,5
0.09999999999999432,2656,2,76,5
0.09999999999999432,2656,3,76,3
0.09999999999999432,2656,4,76,5
0.09999999999999432,2656,5,76,15
0.09999999999999432,2656,6,76,22
0.09999999999999432,2656,7,76,1
0.10000000000002274,2656,8,76,10
0.09999999999999432,2656,9,76,5
0.09999999999999432,2656,10,76,3
0.10000000000002274,2656,11,76,1
0.09999999999999432,2656,12,76,25
0.10000000000002274,2656,13,76,2
0.09999999999999432,2656,14,76,27
0.09999999999999432,2656,15,76,1
0.09999999999999432,2657,0,76,13
0.09999999999999432,2657,1,76,4
0.09999999999999432,2657,2,76,4
0.09999999999999432,2657,3,76,1
0.09999999999999432,2657,4,76,17
0.09999999999999432,2657,5,76,21
0.09999999999999432,2657,6,76,23
0.10000000000002274,2657,7,76,1
0.09999999999999432,2657,8,76,6
0.09999999999999432,2657,9,76,4
0.09999999999999432,2657,10,76,4
0.09999999999999432,2657,11,76,1
0.09999999999999432,2657,12,76,25
0.09999999999999432,2657,13,76,2
0.09999999999999432,2657,14,76,27
0.09999999999999432,2657,15,76,4
0.09999999999999432,2658,0,76,15
0.10000000000002274,2658,1,76,4
0.09999999999999432,2658,2,76,4
0.10000000000002274,2658,3,76,2
0.09999999999999432,2658,4,76,9
0.09999999999999432,2658,5,76,15
0.09999999999999432,2658,6,76,21
0.09999999999999432,2658,7,76,1
0.10000000000002274,2658,8,76,11
0.09999999999999432,2658,9,76,6
0.09999999999999432,2658,10,76,3
0.10000000000002274,2658,11,76,1
0.09999999999999432,2658,12,76,17
0.10000000000002274,2658,13,76,2
0.004545454545478833,2658,14,76,19
0.09999999999999432,2658,15,76,1
0.09999999999999432,2659,0,76,8
0.09999999999999432,2659,1,76,4
0.10000000000002274,2659,2,76,4
0.09999999999999432,2659,3,76,2
0.09999999999999432,2659,4,76,19
0.10000000000002274,2659,5,76,1
0.09999999999999432,2659,6,76,18
0.10000000000002274,2659,7,76,1
0.09999999999999432,2659,8,76,5
0.09999999999999432,2659,9,76,2
0.09999999999999432,2659,10,76,3
0.09999999999999432,2659,11,76,1
0.09999999999999432,2659,12,76,21
0.09999999999999432,2659,13,76,2
0.09999999999999432,2659,14,76,20
0.09999999999999432,2659,15,76,1
0.004545454545450411,2660,0,76,5
0.09999999999999432,2660,1,76,4
0.09999999999999432,2660,2,76,3
0.09999999999999432,2660,3,76,2
0.09999999999999432,2660,4,76,16
0.09999999999999432,2660,5,76,2
0.09999999999999432,2660,6,76,16
0.09999999999999432,2660,7,76,1
0.004545454545450411,2660,8,76,5
0.09999999999999432,2660,9,76,4
0.09999999999999432,2660,10,76,3
0.10000000000002274,2660,11,76,1
0.09999999999999432,2660,12,76,17
0.10000000000002274,2660,13,76,3
0.004545454545478833,2660,14,76,22
0.09999999999999432,2660,15,76,1
0.09999999999999432,2661,0,76,5
0.10000000000002274,2661,1,76,4
0.09999999999999432,2661,2,76,4
0.09999999999999432,2661,3,76,2
0.09999999999999432,2661,4,76,17
0.10000000000002274,2661,5,76,2
0.004545454545478833,2661,6,76,15
0.10000000000002274,2661,7,76,1
0.09999999999999432,2661,8,76,3
0.10000000000000009,2661,9,62,3
0.013636363636363669,2661,10,62,8
0.10000000000000009,2661,11,62,14
0.03409090909090917,2661,12,62,16
0.004545454545454852,2661,13,62,19
0.06818181818181834,2661,14,62,17
0.01590909090909065,2661,15,62,14
0.09999999999999964,2662,0,62,1
0.05681818181818166,2662,1,62,3
0.025000000000000355,2662,2,62,5
0.03636363636363704,2662,3,62,8
0.09999999999999964,2662,4,62,16
0.09999999999999964,2662,5,62,16
0.004545454545453964,2662,6,62,18
0.09999999999999964,2662,7,62,25
0.05681818181818166,2662,8,62,25
0.09999999999999964,2662,9,62,23
0.09999999999999964,2662,10,62,24
0.05681818181818166,2662,11,62,24
0.03636363636363704,2662,12,62,16
0.09999999999999964,2662,13,62,1
0.09999999999999964,2662,14,62,7
0.04545454545454497,2662,15,62,8
0.10000000000000142,2663,0,62,9
0.09999999999999787,2663,1,62,15
0.05681818181817988,2663,2,62,17
0.10000000000000142,2663,3,62,17
0.09999999999999787,2663,4,62,26
0.10000000000000142,2663,5,62,31
0.10000000000000142,2663,6,62,33
0.036363636363635266,2663,7,62,28
0.09999999999999998,2663,8,65,28
0.09999999999999987,2663,9,65,32
0.10000000000000009,2663,10,65,23
0.09999999999999964,2663,11,65,31
0.09999999999999964,2663,12,65,23
0.10000000000000142,2663,13,65,25
0.09999999999999787,2663,14,65,19
0.09999999999999787,2663,15,65,7
0.10000000000000142,2664,0,65,27
0.10000000000000142,2664,1,65,33
0.10000000000000142,2664,2,65,39
0.10000000000000142,2664,3,65,45
0.10000000000000142,2664,4,65,32
0.10000000000000142,2664,5,65,39
0.10000000000000142,2664,6,65,36
0.10000000000000142,2664,7,65,35
0.10000000000000142,2664,8,65,35
0.10000000000000142,2664,9,65,15
0.10000000000000142,2664,10,65,34
0.10000000000000142,2664,11,65,24
0.10000000000000142,2664,12,65,30
0.10000000000000142,2664,13,65,28
0.10000000000000142,2664,14,65,38
0.10000000000000142,2664,15,65,37
0.10000000000000142,2665,0,65,29
0.10000000000000142,2665,1,65,31
0.10000000000000142,2665,2,65,31
0.09999999999999432,2665,3,65,31
0.09999999999999432,2665,4,65,30
0.10000000000000142,2665,5,65,31
0.10000000000000142,2665,6,65,21
0.10000000000000142,2665,7,65,38
0.10000000000000142,2665,8,65,27
0.10000000000000142,2665,9,65,34
0.10000000000000142,2665,10,65,35
0.10000000000000142,2665,11,65,30
0.10000000000000142,2665,12,65,31
0.09999999999999432,2665,13,65,30
0.10000000000000142,2665,14,65,50
0.10000000000000142,2665,15,65,41
0.10000000000000142,2666,0,65,25
0.10000000000000142,2666,1,65,56
0.10000000000000142,2666,2,65,40
0.10000000000000142,2666,3,65,25
0.10000000000000142,2666,4,65,27
0.10000000000000142,2666,5,65,37
0.10000000000000142,2666,6,65,35
0.10000000000000142,2666,7,65,47
0.09999999999999432,2666,8,65,35
0.10000000000000142,2666,9,65,26
0.10000000000000142,2666,10,65,44
0.10000000000000142,2666,11,65,37
0.10000000000000142,2666,12,65,41
0.10000000000000142,2666,13,65,31
0.09999999999999432,2666,14,65,22
0.09999999999999432,2666,15,65,19
0.10000000000000853,2667,0,65,27
0.09999999999999432,2667,1,65,26
0.09999999999999432,2667,2,65,40
0.10000000000000853,2667,3,65,34
0.09999999999999432,2667,4,65,36
0.09999999999999432,2667,5,65,38
0.09999999999999432,2667,6,65,47
0.09999999999999432,2667,7,65,34
0.09999999999999432,2667,8,65,45
0.09999999999999432,2667,9,65,27
0.10000000000000853,2667,10,65,28
0.10000000000000853,2667,11,65,24
0.10000000000000853,2667,12,65,34
0.10000000000000853,2667,13,65,27
0.09999999999999432,2667,14,65,30
0.09999999999999432,2667,15,65,32
0.09999999999999432,2668,0,65,37
0.10000000000000853,2668,1,65,40
0.10000000000000853,2668,2,65,24
0.09999999999999432,2668,3,65,22
0.09999999999999432,2668,4,65,40
0.10000000000000853,2668,5,65,36
0.10000000000000853,2668,6,65,37
0.10000000000000853,2668,7,65,34
0.10000000000000853,2668,8,65,22
0.10000000000000853,2668,9,65,3
0.09999999999999432,2668,10,65,8
0.09999999999999432,2668,11,65,4
0.09999999999999432,2668,12,65,6
0.09999999999999432,2668,13,65,23
0.09999999999999432,2668,14,65,12
0.09999999999999432,2668,15,65,7
0.09999999999999432,2669,0,65,10
0.09999999999999432,2669,1,65,9
0.09999999999999432,2669,2,65,3
0.09999999999999432,2669,3,65,21
0.09999999999999432,2669,4,65,20
0.09999999999999432,2669,5,65,23
0.09999999999999432,2669,6,65,27
0.09999999999999432,2669,7,65,23
0.09999999999999432,2669,8,65,23
0.10000000000002274,2669,9,65,29
0.09999999999999432,2669,10,65,11
0.09999999999999432,2669,11,65,14
0.09999999999999432,2669,12,65,23
0.09999999999999432,2669,13,65,19
0.09999999999999432,2669,14,65,27
0.09999999999999432,2669,15,65,29
0.10000000000002274,2670,0,65,32
0.10000000000002274,2670,1,65,32
0.09999999999999432,2670,2,65,37
0.09999999999999432,2670,3,65,39
0.09999999999999432,2670,4,65,25
0.10000000000002274,2670,5,65,38
0.09999999999999432,2670,6,65,24
0.09999999999999432,2670,7,65,37
0.09999999999999432,2670,8,65,35
0.09999999999999432,2670,9,65,69
0.09999999999999432,2670,10,65,35
0.09999999999999432,2670,11,65,34
0.09999999999999432,2670,12,65,24
0.09999999999999432,2670,13,65,30
0.09999999999999432,2670,14,65,22
0.09999999999999432,2670,15,65,40
0.09999999999999432,2671,0,65,22
0.10000000000002274,2671,1,65,31
0.09999999999999432,2671,2,65,34
0.09999999999999432,2671,3,65,35
0.09999999999999432,2671,4,65,46
0.10000000000002274,2671,5,65,38
0.09999999999999432,2671,6,65,30
0.09999999999999432,2671,7,65,30
0.09999999999999432,2671,8,65,26
0.09999999999999432,2671,9,65,54
0.09999999999999432,2671,10,65,35
0.09999999999999432,2671,11,65,42
0.09999999999999432,2671,12,65,29
0.09999999999999432,2671,13,65,29
0.10000000000002274,2671,14,65,26
0.09999999999999432,2671,15,65,38
0.10000000000002274,2672,0,65,36
0.09999999999999432,2672,1,65,32
0.09999999999999432,2672,2,65,28
0.09999999999999964,2672,3,73,127
0.09999999999999964,2672,4,73,127
0.09999999999999964,2672,5,73,127
0.09999999999999964,2672,6,73,122
0.09999999999999964,2672,7,73,127
0.09999999999999964,2672,8,73,127
0.09999999999999964,2672,9,73,127
0.09999999999999964,2672,10,73,127
0.10000000000000142,2672,11,73,127
0.09999999999999964,2672,12,73,127
0.09999999999999964,2672,13,73,123
0.09999999999999964,2672,14,73,113
0.09999999999999964,2672,15,73,127
0.09999999999999964,2673,0,73,127
0.09999999999999964,2673,1,73,127
0.09999999999999964,2673,2,73,127
0.09999999999999964,2673,3,73,22
0.04772727272727373,2673,4,73,110
0.09999999999999964,2673,5,73,112
0.06590909090909136,2673,6,73,127
0.09999999999999964,2673,7,73,127
0.09999999999999964,2673,8,73,97
0.10000000000000142,2673,9,73,68
0.10000000000000142,2673,10,73,86
0.09999999999999787,2673,11,73,104
0.10000000000000142,2673,12,73,95
0.09999999999999787,2673,13,73,74
0.10000000000000142,2673,14,73,89
0.09999999999999787,2673,15,73,67
0.10000000000000142,2674,0,73,75
0.09999999999999787,2674,1,73,54
0.09999999999999787,2674,2,73,96
0.09999999999999787,2674,3,73,85
0.10000000000000142,2674,4,73,82
0.10000000000000142,2674,5,73,37
0.10000000000000142,2674,6,73,48
0.09999999999999787,2674,7,73,13
0.10000000000000142,2674,8,73,49
0.10000000000000142,2674,9,73,73
0.10000000000000142,2674,10,73,59
0.09999999999999787,2674,11,73,59
0.09999999999999787,2674,12,73,79
0.10000000000000142,2674,13,73,45
0.015909090909094203,2674,14,73,35
0.10000000000000142,2674,15,73,71
0.10000000000000142,2675,0,73,41
0.10000000000000142,2675,1,73,50
0.10000000000000142,2675,2,73,15
0.10000000000000142,2675,3,73,63
0.10000000000000142,2675,4,73,53
0.045454545454546746,2675,5,73,74
0.10000000000000142,2675,6,73,56
0.10000000000000142,2675,7,73,68
0.10000000000000142,2675,8,73,102
0.10000000000000142,2675,9,73,77
0.10000000000000142,2675,10,73,36
0.09999999999999787,2675,11,73,43
0.09999999999999787,2675,12,73,65
0.06818181818181657,2675,13,73,72
0.10000000000000142,2675,14,73,80
0.10000000000000142,2675,15,73,16
0.09999999999999787,2676,0,73,45
0.05681818181817988,2676,1,73,63
0.09999999999999787,2676,2,73,69
0.10000000000000142,2676,3,73,37
0.02499999999999858,2676,4,73,31
0.09999999999999787,2676,5,73,76
0.09999999999999787,2676,6,73,45
0.10000000000000142,2676,7,73,45
0.09999999999999787,2676,8,73,77
0.09999999999999787,2676,9,73,20
0.10000000000000142,2676,10,73,38
0.09999999999999787,2676,11,73,84
0.10000000000000142,2676,12,73,58
0.01590909090909065,2676,13,73,78
0.10000000000000142,2676,14,73,86
0.10000000000000142,2676,15,73,48
0.10000000000000142,2677,0,73,66
0.09999999999999787,2677,1,73,64
0.10000000000000142,2677,2,73,74
0.10000000000000142,2677,3,73,77
0.10000000000000142,2677,4,73,78
0.10000000000000142,2677,5,73,16
0.10000000000000142,2677,6,73,39
0.10000000000000142,2677,7,73,96
0.10000000000000142,2677,8,73,76
0.10000000000000142,2677,9,73,93
0.10000000000000142,2677,10,73,23
0.02499999999999858,2677,11,73,34
0.10000000000000142,2677,12,73,31
0.10000000000000142,2677,13,73,110
0.10000000000000142,2677,14,73,50
0.10000000000000142,2677,15,73,79
0.10000000000000142,2678,0,73,83
0.10000000000000142,2678,1,73,107
0.10000000000000142,2678,2,73,83
0.10000000000000142,2678,3,73,94
0.10000000000000142,2678,4,73,103
0.10000000000000142,2678,5,73,79
0.10000000000000142,2678,6,73,83
0.10000000000000142,2678,7,73,99
0.10000000000000142,2678,8,73,113
0.10000000000000142,2678,9,73,76
0.10000000000000142,2678,10,73,116
0.10000000000000142,2678,11,73,92
0.10000000000000142,2678,12,73,115
0.09999999999999432,2678,13,73,113
0.10000000000000142,2678,14,73,91
0.10000000000000142,2678,15,73,125
0.10000000000000142,2679,0,73,102
0.10000000000000142,2679,1,73,64
0.10000000000000142,2679,2,73,94
0.10000000000000142,2679,3,73,100
0.10000000000000142,2679,4,73,113
0.10000000000000142,2679,5,73,110
0.10000000000000142,2679,6,73,108
0.10000000000000142,2679,7,73,97
0.10000000000000142,2679,8,73,57
0.04772727272727195,2679,9,73,92
0.09999999999999432,2679,10,73,66
0.10000000000000142,2679,11,73,79
0.10000000000000142,2679,12,73,66
0.10000000000000142,2679,13,73,59
0.09999999999999432,2679,14,73,94
0.10000000000000142,2679,15,73,71
0.10000000000000142,2680,0,73,96
0.10000000000000142,2680,1,73,53
0.10000000000000142,2680,2,73,67
0.10000000000000142,2680,3,73,81
0.09999999999999432,2680,4,73,122
0.10000000000000142,2680,5,73,10
0.09999999999999432,2680,6,73,73
0.10000000000000142,2680,7,73,121
0.09999999999999432,2680,8,73,50
0.10000000000000142,2680,9,73,7
0.10000000000000142,2680,10,73,60
0.10000000000000142,2680,11,73,94
0.10000000000000142,2680,12,73,80
0.10000000000000142,2680,13,73,82
0.10000000000000142,2680,14,73,1
0.10000000000000142,2680,15,73,77
0.10000000000000142,2681,0,73,127
0.10000000000000142,2681,1,73,84
0.10000000000000142,2681,2,73,59
0.10000000000000142,2681,3,73,39
0.013636363636365445,2681,4,73,114
0.09999999999999432,2681,5,73,127
0.10000000000000142,2681,6,73,97
0.10000000000000142,2681,7,73,114
0.10000000000000142,2681,8,73,62
0.10000000000000142,2681,9,73,127
0.10000000000000142,2681,10,73,125
0.10000000000000142,2681,11,73,127
0.10000000000000142,2681,12,73,19
0.09999999999999432,2681,13,73,96
0.10000000000000142,2681,14,73,63
0.09999999999999432,2681,15,73,103
0.10000000000000142,2682,0,73,60
0.10000000000000142,2682,1,73,66
0.09999999999999432,2682,2,73,64
0.09999999999999432,2682,3,73,39
0.09999999999999432,2682,4,73,97
0.10000000000000142,2682,5,73,98
0.10000000000000142,2682,6,73,118
0.10000000000000142,2682,7,73,103
0.10000000000000142,2682,8,73,123
0.10000000000000142,2682,9,73,84
0.10000000000000142,2682,10,73,118
0.09999999999999432,2682,11,73,74
0.09999999999999432,2682,12,73,127
0.10000000000000853,2682,13,73,99
0.09999999999999432,2682,14,73,73
0.09999999999999432,2682,15,73,108
0.09999999999999432,2683,0,73,66
0.09999999999999432,2683,1,73,123
0.09999999999999432,2683,2,73,92
0.09999999999999432,2683,3,73,67
0.09999999999999432,2683,4,73,93
0.09999999999999432,2683,5,73,68
0.09999999999999432,2683,6,73,9
0.09999999999999432,2683,7,73,48
0.09999999999999432,2683,8,73,125
0.10000000000000853,2683,9,73,106
0.09999999999999432,2683,10,73,45
0.10000000000000853,2683,11,73,59
0.09999999999999432,2683,12,73,85
0.09999999999999432,2683,13,73,88
0.09999999999999432,2683,14,73,53
0.10000000000000853,2683,15,73,59
0.09999999999999432,2684,0,73,115
0.09999999999999432,2684,1,73,17
0.09999999999999432,2684,2,73,71
0.10000000000000853,2684,3,73,62
0.10000000000000853,2684,4,73,111
0.10000000000000853,2684,5,73,126
0.10000000000000853,2684,6,73,21
0.09999999999999432,2684,7,73,65
0.09999999999999432,2684,8,73,51
0.09999999999999432,2684,9,73,77
0.09999999999999432,2684,10,73,65
0.024999999999991473,2684,11,73,87
0.09999999999999432,2684,12,73,87
0.09999999999999432,2684,13,73,104
0.10000000000000853,2684,14,73,91
0.09999999999999432,2684,15,73,99
0.09999999999999432,2685,0,73,77
0.0022727272727252057,2685,1,73,80
0.10000000000000853,2685,2,73,127
0.09999999999999432,2685,3,73,93
0.09999999999999432,2685,4,73,127
0.09999999999999432,2685,5,73,71
0.09999999999999432,2685,6,73,90
0.10000000000000853,2685,7,73,117
0.09999999999999432,2685,8,73,78
0.09999999999999432,2685,9,73,87
0.09999999999999432,2685,10,73,77
0.09999999999999432,2685,11,73,79
0.10000000000000853,2685,12,73,90
0.10000000000000853,2685,13,73,127
0.09999999999999432,2685,14,73,13
0.10000000000000853,2685,15,73,50
0.09999999999999432,2686,0,73,100
0.03636363636363171,2686,1,73,60
0.03636363636363171,2686,2,73,57
0.09999999999999432,2686,3,73,51
0.10000000000000853,2686,4,73,107
0.10000000000000853,2686,5,73,59
0.09999999999999432,2686,6,73,103
0.10000000000000853,2686,7,73,14
0.10000000000000853,2686,8,73,53
0.09999999999999432,2686,9,73,68
0.09999999999999432,2686,10,73,112
0.09999999999999432,2686,11,73,82
0.09999999999999432,2686,12,73,81
0.09999999999999432,2686,13,73,83
0.09999999999999432,2686,14,73,66
0.10000000000000853,2686,15,73,106
0.10000000000000853,2687,0,73,50
0.10000000000000853,2687,1,73,85
0.09999999999999432,2687,2,73,127
0.10000000000000853,2687,3,73,56
0.09999999999999432,2687,4,73,96
0.10000000000000853,2687,5,73,64
0.10000000000000853,2687,6,73,89
0.10000000000000853,2687,7,73,52
0.10000000000000853,2687,8,73,78
0.09999999999999432,2687,9,73,81
0.10000000000000853,2687,10,73,29
0.10000000000000853,2687,11,73,117
0.09999999999999432,2687,12,73,34
0.10000000000000853,2687,13,73,83
0.09999999999999432,2687,14,73,86
0.09999999999999432,2687,15,73,111
0.10000000000000853,2688,0,73,57
0.10000000000000853,2688,1,73,106
0.10000000000000853,2688,2,73,117
0.09999999999999432,2688,3,73,121
0.09999999999999432,2688,4,73,40
0.04772727272727195,2688,5,73,88
0.10000000000000853,2688,6,73,59
0.09999999999999432,2688,7,73,107
0.10000000000000853,2688,8,73,104
0.10000000000000853,2688,9,73,88
0.10000000000000853,2688,10,73,3
0.09999999999999432,2688,11,73,116
0.10000000000000853,2688,12,73,88
0.10000000000000853,2688,13,73,71
0.10000000000000853,2688,14,73,55
0.09999999999999432,2688,15,73,121
0.10000000000000853,2689,0,73,77
0.10000000000000853,2689,1,73,31
0.09999999999999432,2689,2,73,47
0.09999999999999432,2689,3,73,97
0.09999999999999432,2689,4,73,95
0.10000000000000853,2689,5,73,85
0.09999999999999432,2689,6,73,7
0.09999999999999432,2689,7,73,43
0.10000000000000853,2689,8,73,83
0.10000000000000853,2689,9,73,52
0.10000000000000853,2689,10,73,105
0.09999999999999432,2689,11,73,66
0.09999999999999432,2689,12,73,93
0.09999999999999432,2689,13,73,87
0.09999999999999432,2689,14,73,73
0.09999999999999432,2689,15,73,95
0.09999999999999432,2690,0,73,104
0.09999999999999432,2690,1,73,95
0.10000000000000853,2690,2,73,94
0.10000000000000853,2690,3,73,107
0.10000000000000853,2690,4,73,104
0.09999999999999432,2690,5,73,101
0.09999999999999432,2690,6,73,116
0.09999999999999432,2690,7,73,58
0.10000000000000853,2690,8,73,96
0.09999999999999432,2690,9,73,76
0.10000000000000853,2690,10,73,82
0.10000000000000853,2690,11,73,10
0.10000000000000853,2690,12,73,39
0.09999999999999432,2690,13,73,96
0.10000000000000853,2690,14,73,43
0.10000000000000853,2690,15,73,96
0.09999999999999432,2691,0,73,6
0.09999999999999432,2691,1,73,107
0.09999999999999432,2691,2,73,35
0.09999999999999432,2691,3,73,49
0.09999999999999432,2691,4,73,125
0.10000000000000853,2691,5,73,67
0.10000000000000853,2691,6,73,45
0.10000000000000853,2691,7,73,85
0.09999999999999432,2691,8,73,8
0.09999999999999432,2691,9,73,60
0.09999999999999432,2691,10,73,127
0.09999999999999432,2691,11,73,48
0.10000000000000853,2691,12,73,118
0.09999999999999432,2691,13,73,1
0.09999999999999432,2691,14,73,60
0.09999999999999432,2691,15,73,37
0.10000000000000853,2692,0,73,111
0.09999999999999432,2692,1,73,78
0.10000000000000853,2692,2,73,72
0.09999999999999432,2692,3,73,104
0.10000000000000853,2692,4,73,90
0.09999999999999432,2692,5,73,118
0.10000000000000853,2692,6,73,53
0.09999999999999432,2692,7,73,127
0.09999999999999432,2692,8,73,127
0.09999999999999432,2692,9,73,111
0.09999999999999432,2692,10,73,71
0.10000000000000853,2692,11,73,115
0.10000000000000853,2692,12,73,119
0.09999999999999432,2692,13,73,113
0.09999999999999432,2692,14,73,61
0.10000000000000853,2692,15,73,40
0.09999999999999432,2693,0,73,89
0.09999999999999432,2693,1,73,66
0.10000000000000853,2693,2,73,78
0.10000000000000853,2693,3,73,79
0.10000000000000853,2693,4,73,57
0.09999999999999432,2693,5,73,102
0.10000000000000853,2693,6,73,36
0.10000000000000853,2693,7,73,81
0.004545454545450411,2693,8,73,56
0.10000000000000853,2693,9,73,62
0.10000000000000853,2693,10,73,78
0.09999999999999432,2693,11,73,42
0.10000000000000853,2693,12,73,57
0.09999999999999432,2693,13,73,91
0.10000000000000853,2693,14,73,19
0.09999999999999432,2693,15,73,55
0.09999999999999432,2694,0,73,62
0.10000000000000853,2694,1,73,101
0.09999999999999432,2694,2,73,46
0.10000000000000853,2694,3,73,41
0.10000000000000853,2694,4,73,45
0.10000000000000853,2694,5,73,72
0.045454545454546746,2694,6,73,71
0.10000000000000853,2694,7,73,66
0.09999999999999432,2694,8,73,68
0.09999999999999432,2694,9,73,66
0.10000000000000853,2694,10,73,73
0.09999999999999432,2694,11,73,88
0.09999999999999432,2694,12,73,103
0.09999999999999432,2694,13,73,104
0.10000000000000853,2694,14,73,111
0.10000000000000853,2694,15,73,19
0.10000000000000853,2695,0,73,84
0.09999999999999432,2695,1,73,66
0.09999999999999432,2695,2,73,110
0.09999999999999432,2695,3,73,73
0.10000000000000853,2695,4,73,121
0.09999999999999432,2695,5,73,43
0.09999999999999432,2695,6,73,38
0.09999999999999432,2695,7,73,68
0.09999999999999432,2695,8,73,50
0.09999999999999432,2695,9,73,97
0.10000000000000853,2695,10,73,122
0.09999999999999432,2695,11,73,101
0.09999999999999432,2695,12,73,83
0.10000000000000853,2695,13,73,83
0.09999999999999432,2695,14,73,109
0.09999999999999432,2695,15,73,77
0.09999999999999432,2696,0,73,99
0.10000000000000853,2696,1,73,127
0.10000000000000853,2696,2,73,114
0.10000000000000853,2696,3,73,87
0.10000000000000853,2696,4,73,123
0.10000000000000853,2696,5,73,90
0.09999999999999432,2696,6,73,77
0.10000000000002274,2696,7,73,90
0.09999999999999432,2696,8,73,121
0.09999999999999432,2696,9,73,76
0.09999999999999432,2696,10,73,80
0.09999999999999432,2696,11,73,48
0.09999999999999432,2696,12,73,97
0.09999999999999432,2696,13,73,107
0.10000000000002274,2696,14,73,108
0.10000000000002274,2696,15,73,26
0.09999999999999432,2697,0,73,41
0.09999999999999432,2697,1,73,75
0.10000000000002274,2697,2,73,92
0.09999999999999432,2697,3,73,72
0.09999999999999432,2697,4,73,71
0.10000000000002274,2697,5,73,127
0.09999999999999432,2697,6,73,74
0.09999999999999432,2697,7,73,124
0.09999999999999432,2697,8,73,45
0.09999999999999432,2697,9,73,85
0.09999999999999432,2697,10,73,66
0.09999999999999432,2697,11,73,119
0.09999999999999432,2697,12,73,39
0.09999999999999432,2697,13,73,71
0.09999999999999432,2697,14,73,72
0.10000000000002274,2697,15,73,91
0.09999999999999432,2698,0,73,91
0.09999999999999432,2698,1,73,78
0.024999999999977263,2698,2,73,66
0.09999999999999432,2698,3,73,88
0.09999999999999432,2698,4,73,84
0.09999999999999432,2698,5,73,37
0.09999999999999432,2698,6,73,65
0.09999999999999432,2698,7,73,78
0.09999999999999432,2698,8,73,38
0.09999999999999432,2698,9,73,47
0.09999999999999432,2698,10,73,81
0.09999999999999432,2698,11,73,113
0.09999999999999432,2698,12,73,94
0.10000000000002274,2698,13,73,124
0.10000000000002274,2698,14,73,82
0.10000000000002274,2698,15,73,116
0.09999999999999432,2699,0,73,76
0.004545454545450411,2699,1,73,66
0.09999999999999432,2699,2,73,94
0.09999999999999432,2699,3,73,111
0.09999999999999432,2699,4,73,63
0.09999999999999432,2699,5,73,118
0.09999999999999432,2699,6,73,88
0.09999999999999432,2699,7,73,76
0.10000000000002274,2699,8,73,107
0.09999999999999432,2699,9,73,95
0.09999999999999432,2699,10,73,68
0.09999999999999432,2699,11,73,111
0.09999999999999432,2699,12,73,78
0.09999999999999432,2699,13,73,96
0.09999999999999432,2699,14,73,105
0.09999999999999432,2699,15,73,46
0.09999999999999432,2700,0,73,67
0.09999999999999432,2700,1,73,86
0.09999999999999432,2700,2,73,8
0.09999999999999432,2700,3,73,51
0.10000000000002274,2700,4,73,112
0.09999999999999432,2700,5,73,62
0.09999999999999432,2700,6,73,98
0.09999999999999432,2700,7,73,90
0.09999999999999432,2700,8,73,96
0.10000000000002274,2700,9,73,12
0.09999999999999432,2700,10,73,88
0.09999999999999432,2700,11,73,95
0.09999999999999432,2700,12,73,73
0.09999999999999432,2700,13,73,41
0.0022727272727252057,2700,14,73,45
0.09999999999999432,2700,15,73,124
0.10000000000002274,2701,0,73,40
0.09999999999999432,2701,1,73,90
0.10000000000002274,2701,2,73,127
0.09999999999999432,2701,3,73,103
0.09999999999999432,2701,4,73,75
0.09999999999999432,2701,5,73,118
0.09999999999999432,2701,6,73,100
0.10000000000002274,2701,7,73,61
0.09999999999999432,2701,8,73,19
0.09999999999999432,2701,9,73,87
0.09999999999999432,2701,10,73,84
0.09999999999999432,2701,11,73,73
0.09999999999999432,2701,12,73,104
0.10000000000002274,2701,13,73,127
0.10000000000002274,2701,14,73,127
0.09999999999999432,2701,15,73,91
0.09999999999999432,2702,0,73,46
0.09999999999999432,2702,1,73,14
0.09999999999999432,2702,2,73,122
0.09999999999999432,2702,3,73,127
0.09999999999999432,2702,4,73,75
0.09999999999999432,2702,5,73,102
0.09999999999999432,2702,6,73,63
0.10000000000002274,2702,7,73,88
0.09999999999999432,2702,8,73,85
0.09999999999999432,2702,9,73,118
0.09999999999999432,2702,10,73,73
0.09999999999999432,2702,11,73,106
0.09999999999999432,2702,12,73,92
0.09999999999999432,2702,13,73,93
0.09999999999999432,2702,14,73,60
0.09999999999999432,2702,15,73,113
0.09999999999999432,2703,0,73,112
0.09999999999999432,2703,1,73,80
0.056818181818158564,2703,2,73,81
0.09999999999999432,2703,3,73,65
0.09999999999999432,2703,4,73,92
0.09999999999999432,2703,5,73,92
0.10000000000002274,2703,6,73,106
0.09999999999999432,2703,7,73,69
0.10000000000002274,2703,8,73,61
0.09999999999999432,2703,9,73,113
0.09999999999999432,2703,10,73,118
0.09999999999999432,2703,11,73,65
0.09999999999999432,2703,12,73,58
0.004545454545450411,2703,13,73,75
0.09999999999999432,2703,14,73,115
0.09999999999999432,2703,15,73,65
0.09999999999999432,2704,0,73,27
0.09999999999999432,2704,1,73,103
0.09999999999999432,2704,2,73,121
0.09999999999999432,2704,3,73,86
0.09999999999999432,2704,4,73,106
0.10000000000002274,2704,5,73,123
0.09999999999999432,2704,6,73,91
0.09999999999999432,2704,7,73,73
0.10000000000002274,2704,8,73,126
0.09999999999999432,2704,9,73,80
0.09999999999999432,2704,10,73,110
0.09999999999999432,2704,11,73,62
0.09999999999999432,2704,12,73,103
0.09999999999999432,2704,13,73,98
0.09999999999999432,2704,14,73,58
0.09999999999999432,2704,15,73,126
0.09999999999999432,2705,0,73,74
0.09999999999999432,2705,1,73,61
0.09999999999999432,2705,2,73,84
0.09999999999999432,2705,3,73,108
0.09999999999999432,2705,4,73,89
0.10000000000002274,2705,5,73,100
0.09999999999999432,2705,6,73,80
0.09999999999999432,2705,7,73,35
0.09999999999999432,2705,8,73,127
0.09999999999999432,2705,9,73,112
0.09999999999999432,2705,10,73,10
0.10000000000002274,2705,11,73,72
0.09999999999999432,2705,12,73,93
0.09999999999999432,2705,13,73,55
0.10000000000002274,2705,14,73,102
0.10000000000002274,2705,15,73,96
0.09999999999999432,2706,0,73,63
0.09999999999999432,2706,1,73,70
0.10000000000002274,2706,2,73,25
0.10000000000002274,2706,3,73,87
0.09999999999999432,2706,4,73,12
0.10000000000002274,2706,5,73,86
0.09999999999999432,2706,6,73,71
0.09999999999999432,2706,7,73,73
0.09999999999999432,2706,8,73,62
0.09999999999999432,2706,9,73,75
0.09999999999999432,2706,10,73,127
0.09999999999999432,2706,11,73,71
0.10000000000002274,2706,12,73,80
0.09999999999999432,2706,13,73,59
0.10000000000002274,2706,14,73,14
0.09999999999999432,2706,15,73,54
0.10000000000002274,2707,0,73,48
0.09999999999999432,2707,1,73,88
0.09999999999999432,2707,2,73,30
0.09999999999999432,2707,3,73,48
0.09999999999999432,2707,4,73,43
0.09999999999999432,2707,5,73,46
0.09999999999999432,2707,6,73,46
0.09999999999999432,2707,7,73,106
0.09999999999999432,2707,8,73,4
0.09999999999999432,2707,9,73,83
0.09999999999999432,2707,10,73,41
0.013636363636351234,2707,11,73,80
0.10000000000002274,2707,12,73,115
0.09999999999999432,2707,13,73,87
0.10000000000002274,2707,14,73,85
0.09999999999999432,2707,15,73,96
0.10000000000002274,2708,0,73,105
0.10000000000002274,2708,1,73,127
0.09999999999999432,2708,2,73,106
0.09999999999999432,2708,3,73,54
0.09999999999999432,2708,4,73,83
0.09999999999999432,2708,5,73,110
0.09999999999999432,2708,6,73,90
0.09999999999999432,2708,7,73,120
0.09999999999999432,2708,8,73,14
0.09999999999999432,2708,9,73,33
0.09999999999999432,2708,10,73,96
0.09999999999999432,2708,11,73,86
0.09999999999999432,2708,12,73,97
0.09999999999999432,2708,13,73,71
0.09999999999999432,2708,14,73,42
0.09999999999999432,2708,15,73,97
0.09999999999999432,2709,0,73,65
0.10000000000002274,2709,1,73,77
0.025000000000005684,2709,2,73,107
0.09999999999999432,2709,3,73,112
0.09999999999999432,2709,4,73,116
0.09999999999999432,2709,5,73,117
0.09999999999999432,2709,6,73,100
0.09999999999999432,2709,7,73,78
0.09999999999999432,2709,8,73,74
0.09999999999999432,2709,9,73,123
0.10000000000002274,2709,10,73,127
0.09999999999999432,2709,11,73,77
0.10000000000002274,2709,12,73,101
0.09999999999999432,2709,13,73,127
0.10000000000002274,2709,14,73,121
0.09999999999999432,2709,15,73,96
0.09999999999999432,2710,0,73,48
0.10000000000002274,2710,1,73,87
0.10000000000002274,2710,2,73,127
0.09999999999999432,2710,3,73,100
0.10000000000002274,2710,4,73,91
0.09999999999999432,2710,5,73,46
0.06818181818181301,2710,6,73,63
0.10000000000002274,2710,7,73,101
0.09999999999999432,2710,8,73,74
0.10000000000002274,2710,9,73,45
0.09999999999999432,2710,10,73,80
0.09999999999999432,2710,11,73,101
0.09999999999999432,2710,12,73,84
0.09999999999999432,2710,13,73,75
0.09999999999999432,2710,14,73,84
0.09999999999999432,2710,15,73,63
0.09999999999999432,2711,0,73,81
0.10000000000002274,2711,1,73,111
0.10000000000002274,2711,2,73,68
0.09999999999999432,2711,3,73,40
0.09999999999999432,2711,4,73,62
0.09999999999999432,2711,5,73,75
0.09999999999999432,2711,6,73,74
0.09999999999999432,2711,7,73,10
0.09999999999999432,2711,8,73,47
0.09999999999999432,2711,9,73,62
0.09999999999999432,2711,10,73,91
0.09999999999999432,2711,11,73,80
0.09999999999999432,2711,12,73,106
0.10000000000002274,2711,13,73,127
0.09999999999999432,2711,14,73,98
0.09999999999999432,2711,15,73,78
0.09999999999999432,2712,0,73,127
0.09999999999999432,2712,1,73,77
0.09999999999999432,2712,2,73,105
0.09999999999999432,2712,3,73,60
0.09999999999999432,2712,4,73,37
0.09999999999999432,2712,5,73,97
0.09999999999999432,2712,6,73,127
0.09999999999999432,2712,7,73,92
0.09999999999999432,2712,8,73,91
0.10000000000002274,2712,9,73,91
0.09999999999999432,2712,10,73,67
0.09999999999999432,2712,11,73,59
0.09999999999999432,2712,12,73,76
0.09999999999999432,2712,13,73,73
0.09999999999999432,2712,14,73,22
0.09999999999999432,2712,15,73,61
0.10000000000002274,2713,0,73,114
0.09999999999999432,2713,1,73,127
0.09999999999999432,2713,2,73,77
0.09999999999999432,2713,3,73,63
0.004545454545450411,2713,4,73,82
0.10000000000002274,2713,5,73,108
0.09999999999999432,2713,6,73,127
0.09999999999999432,2713,7,73,108
0.09999999999999432,2713,8,73,74
0.09999999999999432,2713,9,73,93
0.09999999999999432,2713,10,73,47
0.09999999999999432,2713,11,73,94
0.09999999999999432,2713,12,73,43
0.09999999999999432,2713,13,73,48
0.10000000000002274,2713,14,73,114
0.09999999999999432,2713,15,73,127
0.09999999999999432,2714,0,73,93
0.09999999999999432,2714,1,73,35
0.09999999999999432,2714,2,73,64
0.09999999999999432,2714,3,73,77
0.09999999999999432,2714,4,73,90
0.09999999999999432,2714,5,73,124
0.09999999999999432,2714,6,73,113
0.09999999999999432,2714,7,73,106
0.09999999999999432,2714,8,63,9
0.09999999999999432,2714,9,63,8
0.10000000000000142,2714,10,63,12
0.10000000000000142,2714,11,63,9
0.10000000000000142,2714,12,63,10
0.10000000000000142,2714,13,63,6
0.10000000000000142,2714,14,63,7
0.10000000000000142,2714,15,63,11
0.09999999999999432,2715,0,63,13
0.09999999999999432,2715,1,63,6
0.10000000000000142,2715,2,63,5
0.06818181818182012,2715,3,63,12
0.09999999999999432,2715,4,63,7
0.09999999999999432,2715,5,63,8
0.10000000000000142,2715,6,63,9
0.10000000000000142,2715,7,63,11
0.10000000000000142,2715,8,63,12
0.10000000000000142,2715,9,63,8
0.10000000000000142,2715,10,63,7
0.09999999999999432,2715,11,63,10
0.10000000000000142,2715,12,63,5
0.10000000000000142,2715,13,63,7
0.10000000000000142,2715,14,63,7
0.10000000000000142,2715,15,63,6
0.10000000000000142,2716,0,63,5
0.10000000000000142,2716,1,63,16
0.10000000000000142,2716,2,63,8
0.10000000000000142,2716,3,63,10
0.09999999999999432,2716,4,63,12
0.10000000000000142,2716,5,63,11
0.10000000000000142,2716,6,63,1
0.10000000000000142,2716,7,63,12
0.10000000000000142,2716,8,63,10
0.10000000000000142,2716,9,63,12
0.09999999999999432,2716,10,63,9
0.10000000000000142,2716,11,63,12
0.10000000000000142,2716,12,63,6
0.10000000000000142,2716,13,63,8
0.10000000000000142,2716,14,63,2
0.10000000000000142,2716,15,63,12
0.10000000000000142,2717,0,63,12
0.10000000000000142,2717,1,63,12
0.09999999999999432,2717,2,63,18
0.10000000000000142,2717,3,63,11
0.10000000000000142,2717,4,63,12
0.10000000000000142,2717,5,63,9
0.09999999999999432,2717,6,63,6
0.10000000000000142,2717,7,63,22
0.10000000000000142,2717,8,63,14
0.10000000000000142,2717,9,63,9
0.10000000000000142,2717,10,63,16
0.09999999999999432,2717,11,63,13
0.10000000000000142,2717,12,63,14
0.10000000000000142,2717,13,63,21
0.10000000000000142,2717,14,63,19
0.09999999999999432,2717,15,63,15
0.09999999999999432,2718,0,63,12
0.10000000000000142,2718,1,63,1
0.09999999999999432,2718,2,63,3
0.09999999999999432,2718,3,63,13
0.10000000000000142,2718,4,63,12
0.10000000000000142,2718,5,63,13
0.10000000000000142,2718,6,63,4
0.09999999999999432,2718,7,63,20
0.10000000000000142,2718,8,63,5
0.09999999999999432,2718,9,63,10
0.09999999999999432,2718,10,63,27
0.09999999999999432,2718,11,63,17
0.09999999999999432,2718,12,63,35
0.09999999999999432,2718,13,63,26
0.10000000000000142,2718,14,54,39
0.09999999999999787,2718,15,54,50
0.09999999999999787,2719,0,54,72
0.10000000000000142,2719,1,54,65
0.09999999999999787,2719,2,54,50
0.09999999999999787,2719,3,54,66
0.09999999999999787,2719,4,54,74
0.10000000000000142,2719,5,54,74
0.10000000000000142,2719,6,54,72
0.10000000000000142,2719,7,54,47
0.10000000000000142,2719,8,54,58
0.10000000000000142,2719,9,54,73
0.09999999999999787,2719,10,54,40
0.09999999999999787,2719,11,54,61
0.10000000000000142,2719,12,54,39
0.10000000000000142,2719,13,54,93
0.10000000000000142,2719,14,54,100
0.10000000000000142,2719,15,54,86
0.10000000000000142,2720,0,54,49
0.10000000000000142,2720,1,54,102
0.10000000000000142,2720,2,54,127
0.10000000000000142,2720,3,54,80
0.10000000000000142,2720,4,54,90
0.10000000000000142,2720,5,54,82
0.10000000000000142,2720,6,54,107
0.10000000000000142,2720,7,54,119
0.10000000000000142,2720,8,54,90
0.10000000000000142,2720,9,54,89
0.10000000000000142,2720,10,54,104
0.09999999999999432,2720,11,54,112
0.10000000000000142,2720,12,54,122
0.10000000000000142,2720,13,54,119
0.10000000000000142,2720,14,54,127
0.10000000000000142,2720,15,54,127
0.10000000000000142,2721,0,54,117
0.10000000000000142,2721,1,54,95
0.10000000000000142,2721,2,54,119
0.10000000000000142,2721,3,54,101
0.10000000000000142,2721,4,54,99
0.10000000000000142,2721,5,54,127
0.10000000000000142,2721,6,54,96
0.10000000000000142,2721,7,54,100
0.09999999999999432,2721,8,54,112
0.09999999999999432,2721,9,54,121
0.05681818181817988,2721,10,54,100
0.10000000000000142,2721,11,54,126
0.10000000000000142,2721,12,54,71
0.09999999999999432,2721,13,54,27
0.09999999999999432,2721,14,54,51
0.10000000000000853,2721,15,54,44
0.09999999999999432,2722,0,54,41
0.09999999999999432,2722,1,54,45
0.09999999999999432,2722,2,54,50
0.09999999999999432,2722,3,54,41
0.10000000000000853,2722,4,54,48
0.09999999999999432,2722,5,54,92
0.09999999999999432,2722,6,54,123
0.10000000000000853,2722,7,54,106
0.09999999999999432,2722,8,54,122
0.10000000000000853,2722,9,54,127
0.09999999999999432,2722,10,54,107
0.09999999999999432,2722,11,54,115
0.01590909090909065,2722,12,54,114
0.09999999999999432,2722,13,54,127
0.10000000000000853,2722,14,54,127
0.09999999999999432,2722,15,54,124
0.09999999999999432,2723,0,54,123
0.09999999999999432,2723,1,54,127
0.10000000000000853,2723,2,54,109
0.09999999999999432,2723,3,54,122
0.10000000000000853,2723,4,54,88
0.09999999999999432,2723,5,54,104
0.10000000000000853,2723,6,54,127
0.09999999999999432,2723,7,54,109
0.10000000000000853,2723,8,54,121
0.09999999999999432,2723,9,54,106
0.10000000000000853,2723,10,54,96
0.10000000000000853,2723,11,54,118
0.10000000000000853,2723,12,54,106
0.09999999999999432,2723,13,54,126
0.10000000000000853,2723,14,54,127
0.09999999999999432,2723,15,54,121
0.10000000000000853,2724,0,54,116
0.09999999999999432,2724,1,54,120
0.10000000000000853,2724,2,54,102
0.10000000000000853,2724,3,54,37
0.09999999999999432,2724,4,54,127
0.09999999999999432,2724,5,54,114
0.09999999999999432,2724,6,54,109
0.10000000000000853,2724,7,54,100
0.09999999999999432,2724,8,54,88
0.09999999999999432,2724,9,54,79
0.09999999999999432,2724,10,54,77
0.10000000000000853,2724,11,54,92
0.10000000000000853,2724,12,54,92
0.10000000000000853,2724,13,54,95
0.09999999999999432,2724,14,54,74
0.09999999999999432,2724,15,54,91
0.10000000000000853,2725,0,54,81
0.10000000000000853,2725,1,54,95
0.09999999999999432,2725,2,54,79
0.09999999999999432,2725,3,54,77
0.09999999999999432,2725,4,54,81
0.10000000000000853,2725,5,54,48
0.09999999999999432,2725,6,54,106
0.09999999999999432,2725,7,54,96
0.09999999999999432,2725,8,54,107
0.10000000000000853,2725,9,54,127
0.09999999999999432,2725,10,54,97
0.09999999999999432,2725,11,54,80
0.09999999999999432,2725,12,54,75
0.09999999999999432,2725,13,54,98
0.09999999999999432,2725,14,54,83
0.09999999999999432,2725,15,54,127
0.10000000000000853,2726,0,54,127
0.09999999999999432,2726,1,54,127
0.10000000000000853,2726,2,54,127
0.10000000000000853,2726,3,54,127
0.10000000000000853,2726,4,54,127
0.09999999999999432,2726,5,54,104
0.09999999999999432,2726,6,54,118
0.09999999999999432,2726,7,54,36
0.09999999999999432,2726,8,54,84
0.10000000000000853,2726,9,54,89
0.09999999999999432,2726,10,54,71
0.10000000000002274,2726,11,54,70
0.10000000000002274,2726,12,54,60
0.09999999999999432,2726,13,54,93
0.09999999999999432,2726,14,54,91
0.09999999999999432,2726,15,54,69
0.10000000000002274,2727,0,54,76
0.09999999999999432,2727,1,54,117
0.09999999999999432,2727,2,54,93
0.09999999999999432,2727,3,54,68
0.09999999999999432,2727,4,54,92
0.09999999999999432,2727,5,54,73
0.09999999999999432,2727,6,54,67
0.09999999999999432,2727,7,54,36
0.09999999999999432,2727,8,54,88
0.09999999999999432,2727,9,54,33
0.10000000000002274,2727,10,54,42
0.09999999999999432,2727,11,54,75
0.10000000000002274,2727,12,54,33
0.09999999999999432,2727,13,54,90
0.09999999999999432,2727,14,54,37
0.09999999999999432,2727,15,54,37
0.09999999999999432,2728,0,54,59
0.10000000000002274,2728,1,54,32
0.09999999999999432,2728,2,54,45
0.09999999999999432,2728,3,54,59
0.09999999999999432,2728,4,54,65
0.09999999999999432,2728,5,54,71
0.09999999999999432,2728,6,54,81
0.09999999999999432,2728,7,54,61
0.09999999999999432,2728,8,54,81
0.09999999999999432,2728,9,54,51
0.09999999999999432,2728,10,54,43
0.10000000000002274,2728,11,54,43
0.09999999999999432,2728,12,54,68
0.09999999999999432,2728,13,54,96
0.09999999999999432,2728,14,54,76
0.09999999999999432,2728,15,54,72
0.09999999999999432,2729,0,54,30
0.03636363636363171,2729,1,54,49
0.09999999999999432,2729,2,54,74
0.09999999999999432,2729,3,54,95
0.09999999999999432,2729,4,54,73
0.09999999999999432,2729,5,54,48
0.004545454545450411,2729,6,54,55
0.024999999999977263,2729,7,54,62
0.09999999999999432,2729,8,54,48
0.10000000000002274,2729,9,54,54
0.10000000000002274,2729,10,54,58
0.09999999999999432,2729,11,54,63
0.09999999999999432,2729,12,54,54
0.09999999999999432,2729,13,54,49
0.09999999999999432,2729,14,54,83
0.09999999999999432,2729,15,54,56
0.09999999999999432,2730,0,54,69
0.09999999999999432,2730,1,54,67
0.09999999999999432,2730,2,54,82
0.09999999999999432,2730,3,54,84
0.05909090909091219,2730,4,54,86
0.09999999999999432,2730,5,54,72
0.025000000000005684,2730,6,54,82
0.10000000000002274,2730,7,54,88
0.09999999999999432,2730,8,54,63
0.09999999999999432,2730,9,54,116
0.03636363636363171,2730,10,54,119
0.09999999999999432,2730,11,54,76
0.10000000000000142,2730,12,89,127
0.09999999999999787,2730,13,89,45
0.10000000000000142,2730,14,89,127
0.09999999999999787,2730,15,89,110
0.10000000000000142,2731,0,89,127
0.10000000000000142,2731,1,89,64
0.09999999999999787,2731,2,89,127
0.09999999999999787,2731,3,89,64
0.09999999999999787,2731,4,89,127
0.09999999999999787,2731,5,89,127
0.09999999999999787,2731,6,89,127
0.09999999999999787,2731,7,89,65
0.10000000000000142,2731,8,89,127
0.10000000000000142,2731,9,89,64
0.10000000000000142,2731,10,89,127
0.10000000000000142,2731,11,89,126
0.10000000000000142,2731,12,89,127
0.10000000000000142,2731,13,89,58
0.10000000000000142,2731,14,89,127
0.09999999999999787,2731,15,89,60
0.09999999999999787,2732,0,89,127
0.10000000000000142,2732,1,89,76
0.09999999999999787,2732,2,89,127
0.09999999999999787,2732,3,89,60
0.10000000000000142,2732,4,89,115
0.09999999999999432,2732,5,89,69
0.09999999999999432,2732,6,89,115
0.10000000000000142,2732,7,89,1
0.10000000000000142,2732,8,89,86
0.10000000000000142,2732,9,89,125
0.10000000000000142,2732,10,89,65
0.10000000000000142,2732,11,89,113
0.09999999999999432,2732,12,89,69
0.10000000000000142,2732,13,89,127
0.09999999999999432,2732,14,89,102
0.10000000000000142,2732,15,89,127
0.10000000000000142,2733,0,89,74
0.10000000000000142,2733,1,89,119
0.10000000000000142,2733,2,89,6
0.10000000000000142,2733,3,89,104
0.10000000000000142,2733,4,89,127
0.10000000000000142,2733,5,89,5
0.10000000000000142,2733,6,89,123
0.10000000000000142,2733,7,89,127
0.10000000000000142,2733,8,89,121
0.10000000000000142,2733,9,89,127
0.10000000000000142,2733,10,89,97
0.10000000000000142,2733,11,89,5
0.09999999999999432,2733,12,89,2
0.10000000000000142,2733,13,89,127
0.10000000000000142,2733,14,89,5
0.10000000000000142,2733,15,89,127
0.09999999999999432,2734,0,89,127
0.09999999999999432,2734,1,89,5
0.10000000000000142,2734,2,89,127
0.09999999999999432,2734,3,89,127
0.10000000000000142,2734,4,89,117
0.10000000000000142,2734,5,89,127
0.10000000000000142,2734,6,89,92
0.10000000000000142,2734,7,89,5
0.10000000000000142,2734,8,89,119
0.10000000000000142,2734,9,89,5
0.10000000000000142,2734,10,89,117
0.10000000000000142,2734,11,89,127
0.10000000000000142,2734,12,89,5
0.10000000000000142,2734,13,89,127
0.10000000000000142,2734,14,89,127
0.10000000000000142,2734,15,89,125
0.09999999999999432,2735,0,89,127
0.09999999999999432,2735,1,89,106
0.09999999999999432,2735,2,89,5
0.10000000000000142,2735,3,89,123
0.10000000000000142,2735,4,89,5
0.09999999999999432,2735,5,89,112
0.10000000000000142,2735,6,89,127
0.10000000000000142,2735,7,89,2
0.10000000000000142,2735,8,89,113
0.10000000000000142,2735,9,89,123
0.10000000000000142,2735,10,89,112
0.10000000000000142,2735,11,89,127
0.10000000000000142,2735,12,89,103
0.10000000000000142,2735,13,89,5
0.10000000000000142,2735,14,89,2
0.10000000000000142,2735,15,89,127
0.10000000000000142,2736,0,89,6
0.10000000000000142,2736,1,89,127
0.10000000000000142,2736,2,89,127
0.10000000000000142,2736,3,89,5
0.10000000000000142,2736,4,89,127
0.10000000000000142,2736,5,89,124
0.10000000000000142,2736,6,89,123
0.10000000000000142,2736,7,89,127
0.10000000000000142,2736,8,89,101
0.09999999999999432,2736,9,89,5
0.10000000000000142,2736,10,89,110
0.10000000000000142,2736,11,89,5
0.10000000000000142,2736,12,89,119
0.10000000000000142,2736,13,89,127
0.10000000000000142,2736,14,89,5
0.10000000000000142,2736,15,89,124
0.10000000000000142,2737,0,89,127
0.10000000000000142,2737,1,89,120
0.10000000000000142,2737,2,89,127
0.10000000000000142,2737,3,89,100
0.10000000000000142,2737,4,89,5
0.10000000000000142,2737,5,89,1
0.10000000000000142,2737,6,89,127
0.10000000000000142,2737,7,89,5
0.10000000000000142,2737,8,89,114
0.09999999999999432,2737,9,89,127
0.10000000000000142,2737,10,89,5
0.09999999999999432,2737,11,89,119
0.10000000000000142,2737,12,89,124
0.09999999999999432,2737,13,89,114
0.10000000000000142,2737,14,89,127
0.10000000000000142,2737,15,89,99
0.10000000000000142,2738,0,89,5
0.10000000000000142,2738,1,89,126
0.10000000000000142,2738,2,89,5
0.10000000000000142,2738,3,89,127
0.10000000000000142,2738,4,89,127
0.10000000000000142,2738,5,89,5
0.10000000000000142,2738,6,89,127
0.10000000000000142,2738,7,89,127
0.10000000000000142,2738,8,89,127
0.10000000000000142,2738,9,89,127
0.10000000000000142,2738,10,89,45
0.10000000000000142,2738,11,89,100
0.10000000000000142,2738,12,89,127
0.09999999999999432,2738,13,89,76
0.10000000000000142,2738,14,89,2
0.10000000000000142,2738,15,89,2
0.09999999999999432,2739,0,89,1
0.10000000000000142,2739,1,89,127
0.10000000000000142,2739,2,89,45
0.10000000000000142,2739,3,89,65
0.10000000000000142,2739,4,89,127
0.10000000000000142,2739,5,89,1
0.10000000000000142,2739,6,89,68
0.09999999999999432,2739,7,89,2
0.09999999999999432,2739,8,89,2
0.10000000000000142,2739,9,89,1
0.10000000000000142,2739,10,89,127
0.09999999999999432,2739,11,89,53
0.10000000000000853,2739,12,89,73
0.10000000000000853,2739,13,89,127
0.09999999999999432,2739,14,89,2
0.10000000000000853,2739,15,89,74
0.10000000000000853,2740,0,89,2
0.09999999999999432,2740,1,89,2
0.09999999999999432,2740,2,89,127
0.09999999999999432,2740,3,89,37
0.10000000000000853,2740,4,89,77
0.10000000000000853,2740,5,89,1
0.10000000000000853,2740,6,89,127
0.10000000000000853,2740,7,89,3
0.10000000000000853,2740,8,89,73
0.09999999999999432,2740,9,89,3
0.10000000000000853,2740,10,89,2
0.09999999999999432,2740,11,89,127
0.09999999999999432,2740,12,89,48
0.10000000000000853,2740,13,89,79
0.10000000000000853,2740,14,89,127
0.10000000000000853,2740,15,89,17
0.09999999999999432,2741,0,89,2
0.10000000000000853,2741,1,89,76
0.09999999999999432,2741,2,89,5
0.09999999999999432,2741,3,89,2
0.10000000000000853,2741,4,89,4
0.09999999999999432,2741,5,89,127
0.10000000000000853,2741,6,89,54
0.10000000000000853,2741,7,89,78
0.09999999999999432,2741,8,89,5
0.10000000000000853,2741,9,89,126
0.09999999999999432,2741,10,89,17
0.09999999999999432,2741,11,89,5
0.10000000000000853,2741,12,89,67
0.10000000000000853,2741,13,89,5
0.09999999999999432,2741,14,89,1
0.09999999999999432,2741,15,89,3
0.09999999999999432,2742,0,89,127
0.10000000000000853,2742,1,89,53
0.10000000000000853,2742,2,89,79
0.09999999999999432,2742,3,89,5
0.10000000000000853,2742,4,89,127
0.09999999999999432,2742,5,89,16
0.10000000000000853,2742,6,89,2
0.10000000000000853,2742,7,89,70
0.09999999999999432,2742,8,89,5
0.09999999999999432,2742,9,89,2
0.10000000000000853,2742,10,89,4
0.09999999999999432,2742,11,89,127
0.10000000000000853,2742,12,89,48
0.10000000000000853,2742,13,89,72
0.09999999999999432,2742,14,89,5
0.10000000000000853,2742,15,89,115
0.09999999999999432,2743,0,89,17
0.09999999999999432,2743,1,89,5
0.10000000000000853,2743,2,89,68
0.10000000000000853,2743,3,89,5
0.09999999999999432,2743,4,89,2
0.10000000000000853,2743,5,89,4
0.09999999999999432,2743,6,89,127
0.10000000000000853,2743,7,89,49
0.10000000000000853,2743,8,89,67
0.09999999999999432,2743,9,89,127
0.10000000000000853,2743,10,89,67
0.09999999999999432,2743,11,89,118
0.09999999999999432,2743,12,89,72
0.10000000000000853,2743,13,89,6
0.09999999999999432,2743,14,89,17
0.09999999999999432,2743,15,89,107
0.10000000000000853,2744,0,89,16
0.10000000000000853,2744,1,89,60
0.09999999999999432,2744,2,89,4
0.09999999999999432,2744,3,89,5
0.10000000000000853,2744,4,89,3
0.10000000000000853,2744,5,89,122
0.09999999999999432,2744,6,89,5
0.10000000000000853,2744,7,89,3
0.09999999999999432,2744,8,89,56
0.10000000000000853,2744,9,89,3
0.09999999999999432,2744,10,89,117
0.09999999999999432,2744,11,89,76
0.10000000000000853,2744,12,89,5
0.09999999999999432,2744,13,89,21
0.10000000000000853,2744,14,89,100
0.10000000000000853,2744,15,89,23
0.10000000000000853,2745,0,89,58
0.10000000000000853,2745,1,89,3
0.09999999999999432,2745,2,89,5
0.09999999999999432,2745,3,89,3
0.10000000000000853,2745,4,89,106
0.09999999999999432,2745,5,89,3
0.10000000000000853,2745,6,89,1
0.09999999999999432,2745,7,89,55
0.09999999999999432,2745,8,89,3
0.09999999999999432,2745,9,89,108
0.09999999999999432,2745,10,89,75
0.10000000000000853,2745,11,89,5
0.09999999999999432,2745,12,89,24
0.09999999999999432,2745,13,89,108
0.09999999999999432,2745,14,89,29
0.09999999999999432,2745,15,89,56
0.10000000000000853,2746,0,89,4
0.09999999999999432,2746,1,89,5
0.10000000000000853,2746,2,89,3
0.10000000000000853,2746,3,89,117
0.09999999999999432,2746,4,89,4
0.10000000000000853,2746,5,89,2
0.09999999999999432,2746,6,89,56
0.10000000000000853,2746,7,89,3
0.09999999999999432,2746,8,89,108
0.09999999999999432,2746,9,89,73
0.10000000000000853,2746,10,89,114
0.09999999999999432,2746,11,89,127
0.10000000000000853,2746,12,89,127
0.10000000000000853,2746,13,89,101
0.10000000000000853,2746,14,89,83
0.09999999999999432,2746,15,89,88
0.09999999999999432,2747,0,89,127
0.09999999999999432,2747,1,89,95
0.09999999999999432,2747,2,89,101
0.09999999999999432,2747,3,89,3
0.09999999999999432,2747,4,89,112
0.09999999999999432,2747,5,89,127
0.09999999999999432,2747,6,89,1
0.09999999999999432,2747,7,89,97
0.09999999999999432,2747,8,89,85
0.10000000000000853,2747,9,89,81
0.09999999999999432,2747,10,89,126
0.09999999999999432,2747,11,89,95
0.10000000000000853,2747,12,89,79
0.09999999999999432,2747,13,89,3
0.09999999999999432,2747,14,89,111
0.09999999999999432,2747,15,89,127
0.09999999999999432,2748,0,89,115
0.10000000000000853,2748,1,89,83
0.10000000000000853,2748,2,89,76
0.09999999999999432,2748,3,89,127
0.09999999999999432,2748,4,89,93
0.09999999999999432,2748,5,89,105
0.09999999999999432,2748,6,89,2
0.09999999999999432,2748,7,89,120
0.10000000000000853,2748,8,89,127
0.09999999999999432,2748,9,89,2
0.09999999999999432,2748,10,89,126
0.10000000000000853,2748,11,89,127
0.10000000000000853,2748,12,89,95
0.09999999999999432,2748,13,89,127
0.09999999999999432,2748,14,89,99
0.09999999999999432,2748,15,89,127
0.09999999999999432,2749,0,89,28
0.09999999999999432,2749,1,89,2
0.09999999999999432,2749,2,89,127
0.09999999999999432,2749,3,89,127
0.10000000000000853,2749,4,89,127
0.09999999999999432,2749,5,89,58
0.09999999999999432,2749,6,89,29
0.09999999999999432,2749,7,89,2
0.09999999999999432,2749,8,89,127
0.09999999999999432,2749,9,89,6
0.09999999999999432,2749,10,89,25
0.10000000000000853,2749,11,89,2
0.10000000000000853,2749,12,89,127
0.09999999999999432,2749,13,89,127
0.09999999999999432,2749,14,89,117
0.10000000000000853,2749,15,89,52
0.09999999999999432,2750,0,89,29
0.10000000000000853,2750,1,89,2
0.09999999999999432,2750,2,89,127
0.10000000000000853,2750,3,89,8
0.09999999999999432,2750,4,89,27
0.10000000000000853,2750,5,89,2
0.09999999999999432,2750,6,89,127
0.09999999999999432,2750,7,89,127
0.10000000000000853,2750,8,89,127
0.10000000000000853,2750,9,89,71
0.10000000000000853,2750,10,89,30
0.09999999999999432,2750,11,89,3
0.09999999999999432,2750,12,89,127
0.09999999999999432,2750,13,89,9
0.10000000000002274,2750,14,89,8
0.09999999999999432,2750,15,89,2
0.09999999999999432,2751,0,89,127
0.10000000000002274,2751,1,89,127
0.09999999999999432,2751,2,89,123
0.09999999999999432,2751,3,89,55
0.09999999999999432,2751,4,89,30
0.09999999999999432,2751,5,89,7
0.09999999999999432,2751,6,89,127
0.09999999999999432,2751,7,89,127
0.09999999999999432,2751,8,89,127
0.09999999999999432,2751,9,89,6
0.09999999999999432,2751,10,89,127
0.10000000000002274,2751,11,89,107
0.09999999999999432,2751,12,89,127
0.09999999999999432,2751,13,89,127
0.10000000000002274,2751,14,89,117
0.09999999999999432,2751,15,89,4
0.09999999999999432,2752,0,89,127
0.09999999999999432,2752,1,89,10
0.09999999999999432,2752,2,89,122
0.09999999999999432,2752,3,89,127
0.09999999999999432,2752,4,89,1
0.09999999999999432,2752,5,89,127
0.09999999999999432,2752,6,89,113
0.10000000000002274,2752,7,89,110
0.09999999999999432,2752,8,89,127
0.09999999999999432,2752,9,89,109
0.09999999999999432,2752,10,89,4
0.09999999999999432,2752,11,89,127
0.09999999999999432,2752,12,89,11
0.09999999999999432,2752,13,89,127
0.09999999999999432,2752,14,89,127
0.09999999999999432,2752,15,89,4
0.09999999999999432,2753,0,89,127
0.09999999999999432,2753,1,89,127
0.09999999999999432,2753,2,89,127
0.09999999999999432,2753,3,89,127
0.09999999999999432,2753,4,89,106
0.09999999999999432,2753,5,89,4
0.09999999999999432,2753,6,89,127
0.09999999999999432,2753,7,89,9
0.09999999999999432,2753,8,89,124
0.09999999999999432,2753,9,89,127
0.09999999999999432,2753,10,89,4
0.09999999999999432,2753,11,89,127
0.09999999999999432,2753,12,89,127
0.09999999999999432,2753,13,89,127
0.10000000000002274,2753,14,89,127
0.09999999999999432,2753,15,89,113
0.09999999999999432,2754,0,89,4
0.09999999999999432,2754,1,89,127
0.09999999999999432,2754,2,89,127
0.09999999999999432,2754,3,89,127
0.09999999999999432,2754,4,89,7
0.09999999999999432,2754,5,89,127
0.09999999999999432,2754,6,89,96
0.10000000000002274,2754,7,89,116
0.09999999999999432,2754,8,89,127
0.09999999999999432,2754,9,89,113
0.09999999999999432,2754,10,89,4
0.09999999999999432,2754,11,89,127
0.09999999999999432,2754,12,89,8
0.09999999999999432,2754,13,89,127
0.09999999999999432,2754,14,89,127
0.10000000000002274,2754,15,89,4
0.09999999999999432,2755,0,89,127
0.09999999999999432,2755,1,89,126
0.10000000000002274,2755,2,89,127
0.09999999999999432,2755,3,89,127
0.09999999999999432,2755,4,89,104
0.09999999999999432,2755,5,89,4
0.09999999999999432,2755,6,89,97
0.09999999999999432,2755,7,89,4
0.09999999999999432,2755,8,89,93
0.09999999999999432,2755,9,89,111
0.09999999999999432,2755,10,89,3
0.09999999999999432,2755,11,89,90
0.10000000000002274,2755,12,89,57
0.09999999999999432,2755,13,89,77
0.10000000000002274,2755,14,89,127
0.09999999999999432,2755,15,89,75
0.09999999999999432,2756,0,89,3
0.09999999999999432,2756,1,89,120
0.10000000000002274,2756,2,89,5
0.09999999999999432,2756,3,89,100
0.09999999999999432,2756,4,89,109
0.09999999999999432,2756,5,89,3
0.09999999999999432,2756,6,89,88
0.09999999999999432,2756,7,89,101
0.09999999999999432,2756,8,89,87
0.09999999999999432,2756,9,89,127
0.09999999999999432,2756,10,89,88
0.09999999999999432,2756,11,89,117
0.09999999999999432,2756,12,89,96
0.10000000000002274,2756,13,89,116
0.09999999999999432,2756,14,89,6
0.10000000000002274,2756,15,89,89
0.09999999999999432,2757,0,89,127
0.09999999999999432,2757,1,89,88
0.10000000000002274,2757,2,89,3
0.09999999999999432,2757,3,89,117
0.09999999999999432,2757,4,89,4
0.09999999999999432,2757,5,89,91
0.09999999999999432,2757,6,89,119
0.09999999999999432,2757,7,89,5
0.09999999999999432,2757,8,89,82
0.10000000000002274,2757,9,89,127
0.09999999999999432,2757,10,89,92
0.09999999999999432,2757,11,89,2
0.09999999999999432,2757,12,89,116
0.10000000000002274,2757,13,89,4
0.09999999999999432,2757,14,89,90
0.09999999999999432,2757,15,89,127
0.09999999999999432,2758,0,89,5
0.09999999999999432,2758,1,89,81
0.09999999999999432,2758,2,89,127
0.09999999999999432,2758,3,89,92
0.09999999999999432,2758,4,89,2
0.09999999999999432,2758,5,89,117
0.09999999999999432,2758,6,89,4
0.09999999999999432,2758,7,89,93
0.10000000000002274,2758,8,89,121
0.09999999999999432,2758,9,89,3
0.09999999999999432,2758,10,89,84
0.09999999999999432,2758,11,89,127
0.09999999999999432,2758,12,89,98
0.10000000000002274,2758,13,89,3
0.09999999999999432,2758,14,89,102
0.09999999999999432,2758,15,89,4
0.09999999999999432,2759,0,89,85
0.09999999999999432,2759,1,89,123
0.09999999999999432,2759,2,89,5
0.09999999999999432,2759,3,89,80
0.10000000000002274,2759,4,89,127
0.09999999999999432,2759,5,89,94
0.10000000000002274,2759,6,89,3
0.09999999999999432,2759,7,89,110
0.10000000000002274,2759,8,89,4
0.09999999999999432,2759,9,89,86
0.09999999999999432,2759,10,89,127
0.09999999999999432,2759,11,89,6
0.09999999999999432,2759,12,89,82
0.09999999999999432,2759,13,89,127
0.10000000000002274,2759,14,89,87
0.09999999999999432,2759,15,89,2
0.09999999999999432,2760,0,89,113
0.10000000000002274,2760,1,89,4
0.09999999999999432,2760,2,89,102
0.09999999999999432,2760,3,89,120
0.09999999999999432,2760,4,89,5
0.09999999999999432,2760,5,89,78
0.09999999999999432,2760,6,89,124
0.09999999999999432,2760,7,89,94
0.10000000000002274,2760,8,89,2
0.09999999999999432,2760,9,89,127
0.09999999999999432,2760,10,89,4
0.09999999999999432,2760,11,89,96
0.09999999999999432,2760,12,89,127
0.09999999999999432,2760,13,89,5
0.09999999999999432,2760,14,89,84
0.09999999999999432,2760,15,89,127
0.09999999999999432,2761,0,89,87
0.10000000000002274,2761,1,89,109
0.10000000000002274,2761,2,89,103
0.09999999999999432,2761,3,89,111
0.09999999999999432,2761,4,89,101
0.09999999999999432,2761,5,89,67
0.09999999999999432,2761,6,89,91
0.10000000000002274,2761,7,89,127
0.10000000000002274,2761,8,89,87
0.09999999999999432,2761,9,89,5
0.09999999999999432,2761,10,89,114
0.10000000000002274,2761,11,89,6
0.09999999999999432,2761,12,89,82
0.10000000000002274,2761,13,89,106
0.09999999999999432,2761,14,89,4
0.10000000000002274,2761,15,89,97
0.09999999999999432,2762,0,89,60
0.09999999999999432,2762,1,89,78
0.09999999999999432,2762,2,89,127
0.09999999999999432,2762,3,89,86
0.09999999999999432,2762,4,89,6
0.09999999999999432,2762,5,89,110
0.09999999999999432,2762,6,89,6
0.09999999999999432,2762,7,89,122
0.09999999999999432,2762,8,89,125
0.10000000000002274,2762,9,89,6
0.09999999999999432,2762,10,89,75
0.09999999999999432,2762,11,89,73
0.09999999999999432,2762,12,89,99
0.09999999999999432,2762,13,89,127
0.09999999999999432,2762,14,89,82
0.09999999999999432,2762,15,89,5
0.10000000000002274,2763,0,89,98
0.09999999999999432,2763,1,89,6
0.10000000000002274,2763,2,89,113
0.09999999999999432,2763,3,89,127
0.09999999999999432,2763,4,89,7
0.09999999999999432,2763,5,89,125
0.10000000000002274,2763,6,89,90
0.09999999999999432,2763,7,89,115
0.09999999999999432,2763,8,89,127
0.10000000000002274,2763,9,89,84
0.09999999999999432,2763,10,89,7
0.09999999999999432,2763,11,89,91
0.09999999999999432,2763,12,89,107
0.10000000000002274,2763,13,89,116
0.09999999999999432,2763,14,89,7
0.10000000000002274,2763,15,89,110
0.09999999999999432,2764,0,89,86
0.09999999999999432,2764,1,89,104
0.09999999999999432,2764,2,89,127
0.10000000000002274,2764,3,89,84
0.09999999999999432,2764,4,89,7
0.09999999999999432,2764,5,89,116
0.09999999999999432,2764,6,89,6
0.09999999999999432,2764,7,89,118
0.09999999999999432,2764,8,89,127
0.09999999999999432,2764,9,89,7
0.09999999999999432,2764,10,89,114
0.09999999999999432,2764,11,89,85
0.09999999999999432,2764,12,89,108
0.09999999999999432,2764,13,89,127
0.09999999999999432,2764,14,89,89
0.09999999999999432,2764,15,89,7
0.10000000000002274,2765,0,89,111
0.09999999999999432,2765,1,89,10
0.10000000000002274,2765,2,89,123
0.09999999999999432,2765,3,89,127
0.09999999999999432,2765,4,89,7
0.09999999999999432,2765,5,89,123
0.10000000000002274,2765,6,89,89
0.09999999999999432,2765,7,89,112
0.09999999999999432,2765,8,89,127
0.09999999999999432,2765,9,89,94
0.09999999999999432,2765,10,89,7
0.10000000000002274,2765,11,89,122
0.09999999999999432,2765,12,89,5
0.09999999999999432,2765,13,89,112
0.10000000000002274,2765,14,89,127
0.09999999999999432,2765,15,89,8
0.10000000000002274,2766,0,89,123
0.09999999999999432,2766,1,89,127
0.09999999999999432,2766,2,89,114
0.09999999999999432,2766,3,89,127
0.10000000000002274,2766,4,89,102
0.09999999999999432,2766,5,89,11
0.09999999999999432,2766,6,89,18
0.10000000000002274,2766,7,89,36
0.10000000000002274,2766,8,89,25
0.09999999999999432,2766,9,89,33
0.09999999999999432,2766,10,89,38
0.10000000000002274,2766,11,89,32
0.09999999999999432,2766,12,89,37
0.10000000000002274,2766,13,89,39
0.10000000000002274,2766,14,89,36
0.09999999999999432,2766,15,74,1
0.10000000000000142,2767,0,74,2
0.10000000000000142,2767,1,74,2
0.10000000000000142,2767,2,74,2
0.02499999999999858,2767,3,74,1
0.10000000000000142,2767,4,74,3
0.10000000000000142,2767,5,74,3
0.10000000000000142,2767,6,74,7
0.10000000000000142,2767,7,74,14
0.10000000000000142,2767,8,74,6
0.10000000000000142,2767,9,74,22
0.10000000000000142,2767,10,74,1
0.10000000000000142,2767,11,74,1
0.10000000000000142,2767,12,74,1
0.10000000000000142,2767,13,74,2
0.10000000000000142,2767,14,74,3
0.10000000000000142,2767,15,74,1
0.10000000000000142,2768,0,74,1
0.10000000000000142,2768,1,74,3
0.10000000000000142,2768,2,74,18
0.10000000000000142,2768,3,74,10
0.10000000000000853,2768,4,74,1
0.10000000000000853,2768,5,74,1
0.09999999999999998,2768,6,65,24
0.05681818181818177,2768,7,65,32
0.09999999999999987,2768,8,65,17
0.06590909090909092,2768,9,65,20
0.10000000000000009,2768,10,65,35
0.10000000000000009,2768,11,65,14
0.09999999999999964,2768,12,65,21
0.0681818181818179,2768,13,65,26
0.10000000000000009,2768,14,65,13
0.045454545454545414,2768,15,65,11
0.10000000000000009,2769,0,65,3
0.10000000000000009,2769,1,65,11
0.10000000000000009,2769,2,65,42
0.10000000000000009,2769,3,65,16
0.10000000000000053,2769,4,65,6
0.004545454545454852,2769,5,65,16
0.04772727272727195,2769,6,65,47
0.10000000000000053,2769,7,65,6
0.056818181818182545,2769,8,65,21
0.10000000000000053,2769,9,65,14
0.09999999999999964,2769,10,65,8
0.06818181818181834,2769,11,65,6
0.09999999999999964,2769,12,65,7
0.09999999999999964,2769,13,65,20
0.05909090909090864,2769,14,65,36
0.09999999999999964,2769,15,65,10
0.06818181818181746,2770,0,65,11
0.09999999999999964,2770,1,65,3
0.09999999999999964,2770,2,65,30
0.09999999999999964,2770,3,65,24
0.09999999999999964,2770,4,65,12
0.09999999999999964,2770,5,65,9
0.09999999999999964,2770,6,65,35
0.09999999999999964,2770,7,65,3
0.09999999999999964,2770,8,65,31
0.09999999999999964,2770,9,65,14
0.04545454545454497,2770,10,65,19
0.027272727272727337,2770,11,65,12
0.09999999999999964,2770,12,65,11
0.09999999999999964,2770,13,65,8
0.09999999999999964,2770,14,65,31
0.09999999999999964,2770,15,65,5
0.09999999999999964,2771,0,65,16
0.06818181818181657,2771,1,65,17
0.09999999999999964,2771,2,65,4
0.09999999999999964,2771,3,65,2
0.09999999999999964,2771,4,65,51
0.10000000000000142,2771,5,65,12
0.10000000000000142,2771,6,65,11
0.05681818181818343,2771,7,65,16
0.09999999999999964,2771,8,65,10
0.09999999999999964,2771,9,65,20
0.06590909090909136,2771,10,65,31
0.09999999999999964,2771,11,65,13
0.06818181818181834,2771,12,65,14
0.09999999999999964,2771,13,65,4
0.09999999999999964,2771,14,65,1
0.09999999999999964,2771,15,65,38
0.06818181818181834,2772,0,65,50
0.09999999999999964,2772,1,65,18
0.10000000000000142,2772,2,65,16
0.09999999999999964,2772,3,65,12
0.004545454545453964,2772,4,65,6
0.09999999999999964,2772,5,65,7
0.10000000000000142,2772,6,65,1
0.09999999999999787,2772,7,65,31
0.10000000000000142,2772,8,65,14
0.06818181818182012,2772,9,65,15
0.10000000000000142,2772,10,65,1
0.09999999999999787,2772,11,65,17
0.05909090909090864,2772,12,65,35
0.10000000000000142,2772,13,65,14
0.10000000000000142,2772,14,65,10
0.10000000000000142,2772,15,65,9
0.10000000000000142,2773,0,65,31
0.10000000000000142,2773,1,65,15
0.09999999999999787,2773,2,65,5
0.10000000000000142,2773,3,65,3
0.10000000000000142,2773,4,65,36
0.10000000000000142,2773,5,65,15
0.05681818181818343,2773,6,65,17
0.10000000000000142,2773,7,65,10
0.10000000000000142,2773,8,65,1
0.10000000000000142,2773,9,65,16
0.09999999999999787,2773,10,65,15
0.10000000000000142,2773,11,65,10
0.10000000000000142,2773,12,65,1
0.10000000000000142,2773,13,65,2
0.09999999999999787,2773,14,65,14
0.10000000000000142,2773,15,65,9
0.10000000000000142,2774,0,65,8
0.10000000000000142,2774,1,65,10
0.05681818181818343,2774,2,65,13
0.09999999999999787,2774,3,65,11
0.10000000000000142,2774,4,65,14
0.06818181818182012,2774,5,65,14
0.10000000000000142,2774,6,65,10
0.09999999999999787,2774,7,65,2
0.10000000000000142,2774,8,65,9
0.09999999999999787,2774,9,65,8
0.10000000000000142,2774,10,65,7
0.06818181818182012,2774,11,65,8
0.09999999999999787,2774,12,65,4
0.06818181818181657,2774,13,65,3
0.10000000000000142,2774,14,65,4
0.09999999999999787,2774,15,65,11
0.045454545454543194,2775,0,65,22
0.09999999999999787,2775,1,65,15
0.10000000000000142,2775,2,65,15
0.10000000000000142,2775,3,65,9
0.10000000000000142,2775,4,65,14
0.10000000000000142,2775,5,65,24
0.06818181818182012,2775,6,65,29
0.10000000000000142,2775,7,65,23
0.06818181818182012,2775,8,65,19
0.09999999999999787,2775,9,65,17
0.06818181818181657,2775,10,65,23
0.10000000000000142,2775,11,65,23
0.10000000000000142,2775,12,65,13
0.10000000000000142,2775,13,65,8
0.09999999999999787,2775,14,65,3
0.10000000000000142,2775,15,65,2
0.02500000000000213,2776,0,65,3
0.045454545454546746,2776,1,65,10
0.09999999999999787,2776,2,65,8
0.10000000000000142,2776,3,65,6
0.10000000000000142,2776,4,65,8
0.09999999999999787,2776,5,65,15
0.10000000000000142,2776,6,65,19
0.09999999999999787,2776,7,65,4
0.10000000000000142,2776,8,65,5
0.09999999999999787,2776,9,65,4
0.045454545454543194,2776,10,65,6
0.10000000000000142,2776,11,65,7
0.10000000000000142,2776,12,65,14
0.10000000000000142,2776,13,65,8
0.10000000000000142,2776,14,65,6
0.10000000000000142,2776,15,65,7
0.05909090909090864,2777,0,65,11
0.09999999999999787,2777,1,65,8
0.06818181818181657,2777,2,65,10
0.10000000000000142,2777,3,65,17
0.09999999999999787,2777,4,65,9
0.09999999999999787,2777,5,65,14
0.10000000000000142,2777,6,65,22
0.10000000000000142,2777,7,65,8
0.10000000000000142,2777,8,65,4
0.06818181818182012,2777,9,65,4
0.09999999999999787,2777,10,65,10
0.10000000000000142,2777,11,65,10
0.06818181818182012,2777,12,65,11
0.10000000000000142,2777,13,65,9
0.10000000000000142,2777,14,65,8
0.10000000000000142,2777,15,65,5
0.09999999999999432,2778,0,65,5
0.04772727272727195,2778,1,65,12
0.10000000000000142,2778,2,65,14
0.09999999999999432,2778,3,65,15
0.10000000000000142,2778,4,65,10
0.056818181818186986,2778,5,65,8
0.09999999999999432,2778,6,65,10
0.06818181818181301,2778,7,65,11
0.10000000000000142,2778,8,65,17
0.10000000000000142,2778,9,65,21
0.10000000000000142,2778,10,65,8
0.10000000000000142,2778,11,65,5
0.10000000000000142,2778,12,65,9
0.09999999999999432,2778,13,65,13
0.10000000000000142,2778,14,65,20
0.09999999999999432,2778,15,65,29
0.10000000000000142,2779,0,65,21
0.09999999999999432,2779,1,65,25
0.10000000000000142,2779,2,65,39
0.10000000000000142,2779,3,65,12
0.10000000000000142,2779,4,65,16
0.10000000000000142,2779,5,65,18
0.10000000000000142,2779,6,65,14
0.10000000000000142,2779,7,65,18
0.10000000000000142,2779,8,65,18
0.10000000000000142,2779,9,65,23
0.10000000000000142,2779,10,65,22
0.10000000000000142,2779,11,65,22
0.09999999999999432,2779,12,65,18
0.10000000000000142,2779,13,65,24
0.09999999999999432,2779,14,65,21
0.09999999999999432,2779,15,65,18
0.10000000000000142,2780,0,65,24
0.09999999999999432,2780,1,65,2
0.09999999999999432,2780,2,65,10
0.10000000000000853,2780,3,65,13
0.09999999999999432,2780,4,65,14
0.10000000000000853,2780,5,65,11
0.09999999999999432,2780,6,65,17
0.09999999999999432,2780,7,65,17
0.10000000000000853,2780,8,65,17
0.10000000000000853,2780,9,65,15
0.10000000000000853,2780,10,65,18
0.09999999999999432,2780,11,65,16
0.10000000000000853,2780,12,65,15
0.10000000000000853,2780,13,65,9
0.10000000000000853,2780,14,65,13
0.09999999999999432,2780,15,65,8
0.10000000000002274,2781,0,65,11
0.09999999999999432,2781,1,65,1
0.09999999999999432,2781,2,65,7
0.09999999999999432,2781,3,65,15
0.09999999999999432,2781,4,65,11
0.09999999999999432,2781,5,65,8
0.09999999999999432,2781,6,65,14
0.09999999999999432,2781,7,65,1
0.09999999999999432,2781,8,65,7
0.09999999999999432,2781,9,65,16
0.10000000000002274,2781,10,65,11
0.09999999999999432,2781,11,65,2
0.09999999999999432,2781,12,65,8
0.09999999999999432,2781,13,65,12
0.10000000000002274,2781,14,65,1
0.09999999999999432,2781,15,65,7
0.09999999999999432,2782,0,65,15
0.09999999999999432,2782,1,65,12
0.09999999999999432,2782,2,65,8
0.09999999999999432,2782,3,65,15
0.09999999999999432,2782,4,65,1
0.09999999999999432,2782,5,65,6
0.10000000000002274,2782,6,65,10
0.09999999999999432,2782,7,65,1
0.09999999999999432,2782,8,65,8
0.09999999999999432,2782,9,65,11
0.09999999999999432,2782,10,65,1
0.09999999999999432,2782,11,65,3
0.10000000000002274,2782,12,65,7
0.10000000000002274,2782,13,65,8
0.09999999999999432,2782,14,65,5
0.09999999999999432,2782,15,65,10
0.09999999999999432,2783,0,65,1
0.10000000000002274,2783,1,65,4
0.09999999999999432,2783,2,65,7
0.09999999999999432,2783,3,65,10
0.09999999999999432,2783,4,65,10
0.10000000000002274,2783,5,65,4
0.09999999999999432,2783,6,65,5
0.09999999999999432,2783,7,65,8
0.09999999999999432,2783,8,65,15
0.09999999999999432,2783,9,65,3
0.10000000000002274,2783,10,65,13
0.09999999999999432,2783,11,65,10
0.10000000000002274,2783,12,65,14
0.10000000000002274,2783,13,65,10
0.09999999999999432,2783,14,65,13
0.09999999999999432,2783,15,65,12
0.09999999999999432,2784,0,65,11
0.09999999999999432,2784,1,65,10
0.09999999999999432,2784,2,66,28
0.09999999999999432,2784,3,66,24
0.09999999999999432,2784,4,66,27
0.09999999999999432,2784,5,66,21
0.09999999999999432,2784,6,66,28
0.09999999999999432,2784,7,66,16
0.09999999999999432,2784,8,66,33
0.09999999999999432,2784,9,66,24
0.09999999999999432,2784,10,66,25
0.09999999999999432,2784,11,66,33
0.09999999999999432,2784,12,66,26
0.09999999999999432,2784,13,66,37
0.09999999999999432,2784,14,66,36
0.09999999999999432,2784,15,66,19
0.09999999999999432,2785,0,66,24
0.09999999999999432,2785,1,66,20
0.09999999999999432,2785,2,66,21
0.09999999999999432,2785,3,66,8
0.10000000000000853,2785,4,66,9
0.09999999999999432,2785,5,66,17
0.10000000000000853,2785,6,66,12
0.09999999999999432,2785,7,66,11
0.09999999999999432,2785,8,66,14
0.09999999999999432,2785,9,66,21
0.09999999999999432,2785,10,66,6
0.10000000000002274,2785,11,66,6
0.09999999999999432,2785,12,66,6
0.09999999999999432,2785,13,66,5
0.09999999999999432,2785,14,66,10
0.09999999999999432,2785,15,66,7
0.09999999999999432,2786,0,66,6
0.09999999999999432,2786,1,66,6
0.10000000000002274,2786,2,66,4
0.10000000000002274,2786,3,66,3
0.09999999999999432,2786,4,66,13
0.09999999999999432,2786,5,66,11
0.09999999999999432,2786,6,66,15
0.09999999999999432,2786,7,66,12
0.10000000000002274,2786,8,66,6
0.09999999999999432,2786,9,66,39
0.09999999999999432,2786,10,66,27
0.09999999999999432,2786,11,66,47
0.09999999999999432,2786,12,66,8
0.10000000000002274,2786,13,66,31
0.09999999999999432,2786,14,66,8
0.09999999999999432,2786,15,66,33
0.10000000000002274,2787,0,66,24
0.09999999999999432,2787,1,66,9
0.09999999999999432,2787,2,66,23
0.09999999999999432,2787,3,66,26
0.09999999999999432,2787,4,66,13
0.09999999999999432,2787,5,66,33
0.09999999999999432,2787,6,66,16
0.09999999999999432,2787,7,66,33
0.09999999999999432,2787,8,66,18
0.10000000000002274,2787,9,66,21
0.09999999999999432,2787,10,66,29
0.10000000000002274,2787,11,66,25
0.09999999999999432,2787,12,66,12
0.09999999999999432,2787,13,66,15
0.09999999999999432,2787,14,66,29
0.09999999999999432,2787,15,66,14
0.09999999999999432,2788,0,66,18
0.09999999999999432,2788,1,66,32
0.10000000000002274,2788,2,66,49
0.09999999999999432,2788,3,66,8
0.09999999999999432,2788,4,66,11
0.09999999999999432,2788,5,66,11
0.09999999999999432,2788,6,66,15
0.10000000000002274,2788,7,66,9
0.09999999999999432,2788,8,66,7
0.09999999999999432,2788,9,66,5
0.10000000000002274,2788,10,66,8
0.09999999999999432,2788,11,66,5
0.09999999999999432,2788,12,66,8
0.09999999999999432,2788,13,66,5
0.09999999999999432,2788,14,66,7
0.09999999999999432,2788,15,66,14
0.09999999999999432,2789,0,66,9
0.09999999999999432,2789,1,66,14
0.10000000000002274,2789,2,66,13
0.09999999999999432,2789,3,66,12
0.09999999999999432,2789,4,66,11
0.09999999999999432,2789,5,66,16
0.09999999999999432,2789,6,66,9
0.10000000000002274,2789,7,66,8
0.09999999999999432,2789,8,66,13
0.10000000000000009,2789,9,63,25
0.10000000000000009,2789,10,63,27
0.09999999999999964,2789,11,63,27
0.09999999999999964,2789,12,63,23
0.10000000000000053,2789,13,63,27
0.09999999999999964,2789,14,63,26
0.09999999999999964,2789,15,63,26
0.09999999999999964,2790,0,63,36
0.10000000000000142,2790,1,63,27
0.09999999999999964,2790,2,63,26
0.09999999999999964,2790,3,63,22
0.09999999999999964,2790,4,63,27
0.09999999999999787,2790,5,63,25
0.10000000000000142,2790,6,63,27
0.09999999999999787,2790,7,63,25
0.10000000000000142,2790,8,63,29
0.10000000000000142,2790,9,63,3
0.09999999999999787,2790,10,63,1
0.09999999999999787,2790,11,63,24
0.09999999999999787,2790,12,63,1
0.09999999999999787,2790,13,63,2
0.10000000000000142,2790,14,63,1
0.10000000000000142,2790,15,63,40
0.10000000000000142,2791,0,63,1
0.10000000000000142,2791,1,63,2
0.10000000000000142,2791,2,63,1
0.09999999999999787,2791,3,63,41
0.09999999999999787,2791,4,63,1
0.10000000000000142,2791,5,63,1
0.10000000000000142,2791,6,63,1
0.09999999999999787,2791,7,63,40
0.10000000000000142,2791,8,63,1
0.10000000000000142,2791,9,63,2
0.09999999999999787,2791,10,63,1
0.10000000000000142,2791,11,63,43
0.09999999999999787,2791,12,63,1
0.09999999999999787,2791,13,63,2
0.09999999999999787,2791,14,63,1
0.10000000000000142,2791,15,63,39
0.10000000000000142,2792,0,63,1
0.10000000000000142,2792,1,63,3
0.10000000000000142,2792,2,63,1
0.09999999999999787,2792,3,63,41
0.10000000000000142,2792,4,62,34
0.09999999999999787,2792,5,62,42
0.10000000000000142,2792,6,62,48
0.09999999999999787,2792,7,62,21
0.10000000000000142,2792,8,62,47
0.09999999999999787,2792,9,62,33
0.10000000000000142,2792,10,62,36
0.09999999999999787,2792,11,62,22
0.10000000000000142,2792,12,62,18
0.10000000000000142,2792,13,62,12
0.10000000000000142,2792,14,62,25
0.10000000000000142,2792,15,62,7
0.09999999999999432,2793,0,62,14
0.10000000000000142,2793,1,62,13
0.10000000000000142,2793,2,62,4
0.10000000000000142,2793,3,62,18
0.09999999999999432,2793,4,62,12
0.10000000000000853,2793,5,62,15
0.09999999999999432,2793,6,62,12
0.09999999999999432,2793,7,62,16
0.10000000000000853,2793,8,62,10
0.09999999999999432,2793,9,62,23
0.10000000000000853,2793,10,62,2
0.10000000000000853,2793,11,62,12
0.10000000000000853,2793,12,62,5
0.09999999999999432,2793,13,62,23
0.10000000000000853,2793,14,62,11
0.09999999999999432,2793,15,62,10
0.09999999999999432,2794,0,62,14
0.10000000000002274,2794,1,62,34
0.09999999999999432,2794,2,62,32
0.10000000000002274,2794,3,62,33
0.09999999999999432,2794,4,62,47
0.09999999999999432,2794,5,62,31
0.09999999999999432,2794,6,62,24
0.09999999999999432,2794,7,62,10
0.09999999999999432,2794,8,62,7
0.09999999999999432,2794,9,62,18
0.09999999999999432,2794,10,62,8
0.09999999999999432,2794,11,62,7
0.09999999999999432,2794,12,62,16
0.09999999999999432,2794,13,62,11
0.09999999999999432,2794,14,62,7
0.09999999999999432,2794,15,62,14
0.09999999999999432,2795,0,62,9
0.09999999999999432,2795,1,62,8
0.09999999999999432,2795,2,62,13
0.09999999999999432,2795,3,62,15
0.09999999999999432,2795,4,62,19
0.09999999999999432,2795,5,62,8
0.09999999999999432,2795,6,62,11
0.09999999999999432,2795,7,62,10
0.09999999999999432,2795,8,62,8
0.09999999999999432,2795,9,62,10
0.09999999999999432,2795,10,62,11
0.09999999999999432,2795,11,62,12
0.09999999999999432,2795,12,62,25
0.09999999999999432,2795,13,62,17
0.09999999999999432,2795,14,62,20
0.09999999999999432,2795,15,62,22
0.09999999999999432,2796,0,62,22
0.09999999999999432,2796,1,62,26
0.10000000000002274,2796,2,62,27
0.10000000000002274,2796,3,62,16
0.10000000000002274,2796,4,62,22
0.09999999999999432,2796,5,62,1
0.09999999999999998,2796,6,79,11
0.09999999999999998,2796,7,79,51
0.10000000000000009,2796,8,79,45
0.09999999999999987,2796,9,79,49
0.09999999999999987,2796,10,79,55
0.10000000000000009,2796,11,79,46
0.10000000000000009,2796,12,79,44
0.09999999999999964,2796,13,79,28
0.09999999999999964,2796,14,79,63
0.10000000000000009,2796,15,79,39
0.10000000000000009,2797,0,79,64
0.10000000000000009,2797,1,79,56
0.09999999999999964,2797,2,79,51
0.10000000000000053,2797,3,79,53
0.10000000000000053,2797,4,79,25
0.10000000000000053,2797,5,79,32
0.10000000000000053,2797,6,79,32
0.10000000000000053,2797,7,79,13
0.09999999999999964,2797,8,79,33
0.09999999999999964,2797,9,79,63
0.10000000000000053,2797,10,79,44
0.10000000000000053,2797,11,79,80
0.10000000000000053,2797,12,79,35
0.09999999999999964,2797,13,79,16
0.09999999999999964,2797,14,79,63
0.09999999999999964,2797,15,79,47
0.09999999999999964,2798,0,79,47
0.09999999999999964,2798,1,79,40
0.10000000000000142,2798,2,79,53
0.10000000000000142,2798,3,79,70
0.09999999999999964,2798,4,79,59
0.09999999999999964,2798,5,79,17
0.10000000000000142,2798,6,79,49
0.09999999999999964,2798,7,79,44
0.09999999999999964,2798,8,79,13
0.036363636363635266,2798,9,79,33
0.09999999999999964,2798,10,79,33
0.09999999999999964,2798,11,79,79
0.09999999999999964,2798,12,79,80
0.09999999999999964,2798,13,79,10
0.09999999999999964,2798,14,79,17
0.027272727272727337,2798,15,79,56
0.10000000000000142,2799,0,79,73
0.09999999999999964,2799,1,79,68
0.09999999999999964,2799,2,79,5
0.09999999999999964,2799,3,79,44
0.09999999999999964,2799,4,79,78
0.09999999999999964,2799,5,79,52
0.09999999999999964,2799,6,79,43
0.09999999999999964,2799,7,79,86
0.10000000000000142,2799,8,79,44
0.10000000000000142,2799,9,79,83
0.10000000000000142,2799,10,79,18
0.09999999999999964,2799,11,79,20
0.10000000000000142,2799,12,79,55
0.09999999999999787,2799,13,79,67
0.09999999999999787,2799,14,79,91
0.09999999999999787,2799,15,79,48
0.10000000000000142,2800,0,79,83
0.10000000000000142,2800,1,79,59
0.10000000000000142,2800,2,79,40
0.10000000000000142,2800,3,79,74
0.10000000000000142,2800,4,79,4
0.09999999999999787,2800,5,79,27
0.10000000000000142,2800,6,79,90
0.10000000000000142,2800,7,79,94
0.10000000000000142,2800,8,79,106
0.09999999999999787,2800,9,79,55
0.10000000000000142,2800,10,79,71
0.09999999999999787,2800,11,79,14
0.10000000000000142,2800,12,79,43
0.09999999999999787,2800,13,79,78
0.10000000000000142,2800,14,79,81
0.10000000000000142,2800,15,79,66
0.09999999999999787,2801,0,79,19
0.10000000000000142,2801,1,79,43
0.06818181818181657,2801,2,79,62
0.10000000000000142,2801,3,79,49
0.09999999999999787,2801,4,79,95
0.10000000000000142,2801,5,79,27
0.10000000000000142,2801,6,79,101
0.10000000000000142,2801,7,79,74
0.09999999999999787,2801,8,79,91
0.10000000000000142,2801,9,79,49
0.09999999999999787,2801,10,79,74
0.09999999999999787,2801,11,79,66
0.09999999999999787,2801,12,79,51
0.09999999999999787,2801,13,79,53
0.10000000000000142,2801,14,79,46
0.10000000000000142,2801,15,79,74
0.10000000000000142,2802,0,79,68
0.09999999999999787,2802,1,79,53
0.10000000000000142,2802,2,79,48
0.10000000000000142,2802,3,79,42
0.10000000000000142,2802,4,79,101
0.09999999999999787,2802,5,79,79
0.10000000000000142,2802,6,79,98
0.09999999999999787,2802,7,79,71
0.10000000000000142,2802,8,79,72
0.10000000000000142,2802,9,79,26
0.09999999999999787,2802,10,79,26
0.036363636363635266,2802,11,79,72
0.10000000000000142,2802,12,79,100
0.09999999999999787,2802,13,79,61
0.10000000000000142,2802,14,79,73
0.09999999999999787,2802,15,79,55
0.10000000000000142,2803,0,79,87
0.10000000000000142,2803,1,79,90
0.10000000000000142,2803,2,79,83
0.09999999999999787,2803,3,79,93
0.09999999999999787,2803,4,79,80
0.09999999999999787,2803,5,79,67
0.09999999999999787,2803,6,79,39
0.09999999999999787,2803,7,79,50
0.01590909090909065,2803,8,79,91
0.10000000000000142,2803,9,79,58
0.10000000000000142,2803,10,79,63
0.10000000000000142,2803,11,79,92
0.10000000000000142,2803,12,79,53
0.10000000000000142,2803,13,79,103
0.10000000000000142,2803,14,79,87
0.10000000000000142,2803,15,79,56
0.10000000000000142,2804,0,79,7
0.10000000000000142,2804,1,79,57
0.09999999999999432,2804,2,79,115
0.10000000000000142,2804,3,79,119
0.10000000000000142,2804,4,79,77
0.10000000000000142,2804,5,79,113
0.10000000000000142,2804,6,79,81
0.10000000000000142,2804,7,79,28
0.09999999999999432,2804,8,79,81
0.10000000000000142,2804,9,79,82
0.09999999999999432,2804,10,79,112
0.09999999999999432,2804,11,79,61
0.10000000000000142,2804,12,79,87
0.09999999999999432,2804,13,79,114
0.10000000000000142,2804,14,79,96
0.10000000000000142,2804,15,79,94
0.09999999999999432,2805,0,79,93
0.10000000000000142,2805,1,79,111
0.09999999999999432,2805,2,79,83
0.10000000000000142,2805,3,79,101
0.10000000000000142,2805,4,79,88
0.10000000000000142,2805,5,79,96
0.10000000000000142,2805,6,79,88
0.10000000000000142,2805,7,79,70
0.10000000000000142,2805,8,79,72
0.10000000000000142,2805,9,79,72
0.10000000000000142,2805,10,79,84
0.10000000000000142,2805,11,79,118
0.10000000000000142,2805,12,79,96
0.10000000000000142,2805,13,79,84
0.09999999999999432,2805,14,79,63
0.10000000000000142,2805,15,79,127
0.09999999999999432,2806,0,79,34
0.09999999999999432,2806,1,79,72
0.10000000000000142,2806,2,79,94
0.10000000000000142,2806,3,79,72
0.10000000000000142,2806,4,79,112
0.09999999999999432,2806,5,79,88
0.10000000000000142,2806,6,79,111
0.10000000000000142,2806,7,79,88
0.10000000000000142,2806,8,79,69
0.10000000000000142,2806,9,79,105
0.10000000000000142,2806,10,79,42
0.10000000000000142,2806,11,79,6
0.03636363636363171,2806,12,79,85
0.09999999999999432,2806,13,79,73
0.10000000000000142,2806,14,79,36
0.10000000000000142,2806,15,79,74
0.10000000000000142,2807,0,79,91
0.09999999999999432,2807,1,79,107
0.10000000000000142,2807,2,79,93
0.10000000000000142,2807,3,79,86
0.10000000000000142,2807,4,79,93
0.03636363636363882,2807,5,79,71
0.10000000000000142,2807,6,79,75
0.10000000000000142,2807,7,79,81
0.10000000000000142,2807,8,79,96
0.09999999999999432,2807,9,79,84
0.10000000000000142,2807,10,79,109
0.10000000000000142,2807,11,79,94
0.09999999999999432,2807,12,79,115
0.09999999999999432,2807,13,79,73
0.10000000000000142,2807,14,79,83
0.09999999999999432,2807,15,79,37
0.09999999999999432,2808,0,79,45
0.10000000000000142,2808,1,79,109
0.10000000000000142,2808,2,79,40
0.10000000000000142,2808,3,79,98
0.10000000000000142,2808,4,79,91
0.10000000000000142,2808,5,79,92
0.10000000000000142,2808,6,79,14
0.09999999999999432,2808,7,79,38
0.10000000000000142,2808,8,79,42
0.09999999999999432,2808,9,79,57
0.10000000000000142,2808,10,79,58
0.10000000000000142,2808,11,79,80
0.10000000000000142,2808,12,79,32
0.09999999999999432,2808,13,79,40
0.10000000000000142,2808,14,79,43
0.09999999999999432,2808,15,79,58
0.09999999999999432,2809,0,79,86
0.10000000000000142,2809,1,79,56
0.10000000000000142,2809,2,79,28
0.10000000000000142,2809,3,79,23
0.10000000000000142,2809,4,79,29
0.10000000000000142,2809,5,79,42
0.06818181818181301,2809,6,79,57
0.09999999999999432,2809,7,79,45
0.10000000000000142,2809,8,79,32
0.10000000000000142,2809,9,79,17
0.10000000000000142,2809,10,79,36
0.09999999999999432,2809,11,79,68
0.09999999999999432,2809,12,79,32
0.10000000000000142,2809,13,79,26
0.10000000000000853,2809,14,79,9
0.09999999999999432,2809,15,79,26
0.09999999999999432,2810,0,79,45
0.09999999999999432,2810,1,79,35
0.09999999999999432,2810,2,79,79
0.024999999999991473,2810,3,79,46
0.09999999999999432,2810,4,79,48
0.09999999999999432,2810,5,79,76
0.10000000000000853,2810,6,79,30
0.10000000000000853,2810,7,79,43
0.09999999999999432,2810,8,79,54
0.10000000000000853,2810,9,79,38
0.09999999999999432,2810,10,79,45
0.10000000000000853,2810,11,79,45
0.10000000000000853,2810,12,79,46
0.09999999999999432,2810,13,79,84
0.10000000000000853,2810,14,79,74
0.10000000000000853,2810,15,79,19
0.10000000000000853,2811,0,79,47
0.09999999999999432,2811,1,79,84
0.09999999999999432,2811,2,79,30
0.09999999999999432,2811,3,79,50
0.09999999999999432,2811,4,79,30
0.10000000000000853,2811,5,79,32
0.09999999999999432,2811,6,79,10
0.09999999999999432,2811,7,79,36
0.10000000000000853,2811,8,79,37
0.10000000000000853,2811,9,79,26
0.10000000000000853,2811,10,79,69
0.10000000000000853,2811,11,79,84
0.10000000000000853,2811,12,79,17
0.10000000000000853,2811,13,79,33
0.09999999999999432,2811,14,79,93
0.10000000000000853,2811,15,79,41
0.09999999999999432,2812,0,79,53
0.09999999999999432,2812,1,79,60
0.09999999999999432,2812,2,79,75
0.09999999999999432,2812,3,79,13
0.09999999999999432,2812,4,79,36
0.024999999999991473,2812,5,79,54
0.09999999999999432,2812,6,79,38
0.10000000000000853,2812,7,79,54
0.09999999999999432,2812,8,79,31
0.09999999999999432,2812,9,79,30
0.10000000000000853,2812,10,79,65
0.09999999999999432,2812,11,79,86
0.09999999999999432,2812,12,79,76
0.09999999999999432,2812,13,79,41
0.09999999999999432,2812,14,79,56
0.09999999999999432,2812,15,79,52
0.10000000000000853,2813,0,79,54
0.10000000000000853,2813,1,79,2
0.10000000000000853,2813,2,79,30
0.09999999999999432,2813,3,79,97
0.09999999999999432,2813,4,79,18
0.09999999999999432,2813,5,79,109
0.10000000000000853,2813,6,79,125
0.10000000000000853,2813,7,79,120
0.09999999999999432,2813,8,79,112
0.09999999999999432,2813,9,79,36
0.10000000000000853,2813,10,79,29
0.025000000000005684,2813,11,79,43
0.09999999999999432,2813,12,79,72
0.10000000000000853,2813,13,79,81
0.09999999999999432,2813,14,79,81
0.09999999999999432,2813,15,79,117
0.09999999999999432,2814,0,79,111
0.09999999999999432,2814,1,79,86
0.10000000000000853,2814,2,79,112
0.09999999999999432,2814,3,79,71
0.10000000000000853,2814,4,79,81
0.10000000000000853,2814,5,79,77
0.09999999999999432,2814,6,79,52
0.09999999999999432,2814,7,79,82
0.09999999999999432,2814,8,79,3
0.056818181818172775,2814,9,79,8
0.10000000000000853,2814,10,79,103
0.10000000000000853,2814,11,79,92
0.09999999999999432,2814,12,79,86
0.10000000000000853,2814,13,79,68
0.09999999999999432,2814,14,79,35
0.09999999999999432,2814,15,79,109
0.10000000000000853,2815,0,79,70
0.09999999999999432,2815,1,79,67
0.10000000000000853,2815,2,79,69
0.10000000000000853,2815,3,79,54
0.09999999999999432,2815,4,79,101
0.09999999999999432,2815,5,79,62
0.10000000000000853,2815,6,79,84
0.09999999999999432,2815,7,79,79
0.09999999999999432,2815,8,79,62
0.10000000000000853,2815,9,79,94
0.09999999999999432,2815,10,79,69
0.09999999999999432,2815,11,79,101
0.09999999999999432,2815,12,79,76
0.09999999999999432,2815,13,79,113
0.10000000000000853,2815,14,79,94
0.09999999999999432,2815,15,79,30
0.09999999999999432,2816,0,79,44
0.09999999999999432,2816,1,79,78
0.09999999999999432,2816,2,79,83
0.10000000000000853,2816,3,79,72
0.09999999999999432,2816,4,79,69
0.09999999999999432,2816,5,79,65
0.10000000000000853,2816,6,79,74
0.10000000000000853,2816,7,79,92
0.09999999999999432,2816,8,79,58
0.10000000000000853,2816,9,79,56
0.09999999999999432,2816,10,79,59
0.10000000000000853,2816,11,79,99
0.09999999999999432,2816,12,79,95
0.10000000000000853,2816,13,79,42
0.09999999999999432,2816,14,79,62
0.09999999999999432,2816,15,79,90
0.10000000000000853,2817,0,79,53
0.09999999999999432,2817,1,79,28
0.09999999999999432,2817,2,79,58
0.09999999999999432,2817,3,79,36
0.09999999999999432,2817,4,79,18
0.09999999999999432,2817,5,79,61
0.09999999999999432,2817,6,79,39
0.09999999999999432,2817,7,79,13
0.09999999999999432,2817,8,79,78
0.10000000000000853,2817,9,79,57
0.09999999999999432,2817,10,79,44
0.09999999999999432,2817,11,79,94
0.09999999999999432,2817,12,79,46
0.09999999999999432,2817,13,79,47
0.09999999999999432,2817,14,79,85
0.10000000000000853,2817,15,79,60
0.10000000000000853,2818,0,79,50
0.10000000000000853,2818,1,79,13
0.10000000000000853,2818,2,79,74
0.09999999999999432,2818,3,79,45
0.09999999999999432,2818,4,79,50
0.10000000000000853,2818,5,79,70
0.09999999999999432,2818,6,79,45
0.09999999999999432,2818,7,79,24
0.09999999999999432,2818,8,79,37
0.10000000000000853,2818,9,79,78
0.10000000000000853,2818,10,79,37
0.10000000000000853,2818,11,79,25
0.09999999999999432,2818,12,79,24
0.09999999999999432,2818,13,79,81
0.09999999999999432,2818,14,79,113
0.09999999999999432,2818,15,79,29
0.09999999999999432,2819,0,79,73
0.09999999999999432,2819,1,79,101
0.09999999999999432,2819,2,79,60
0.10000000000000853,2819,3,79,80
0.10000000000000853,2819,4,79,68
0.10000000000000853,2819,5,79,66
0.09999999999999432,2819,6,79,58
0.10000000000000853,2819,7,79,23
0.06818181818182723,2819,8,79,27
0.09999999999999432,2819,9,79,65
0.10000000000000853,2819,10,79,44
0.09999999999999432,2819,11,79,105
0.09999999999999432,2819,12,79,48
0.004545454545450411,2819,13,79,64
0.09999999999999432,2819,14,79,54
0.09999999999999432,2819,15,79,52
0.09999999999999432,2820,0,79,59
0.09999999999999432,2820,1,79,63
0.09999999999999432,2820,2,79,50
0.09999999999999432,2820,3,79,71
0.09999999999999432,2820,4,79,22
0.10000000000000853,2820,5,79,35
0.09999999999999432,2820,6,79,66
0.10000000000000853,2820,7,79,48
0.09999999999999432,2820,8,79,49
0.10000000000000853,2820,9,79,42
0.09999999999999432,2820,10,79,33
0.09999999999999432,2820,11,79,56
0.10000000000000853,2820,12,79,73
0.09999999999999432,2820,13,79,70
0.09999999999999432,2820,14,79,69
0.10000000000000853,2820,15,79,91
0.09999999999999432,2821,0,79,61
0.10000000000000853,2821,1,79,40
0.09999999999999432,2821,2,79,52
0.09999999999999432,2821,3,79,59
0.09999999999999432,2821,4,79,52
0.09999999999999432,2821,5,79,87
0.09999999999999432,2821,6,79,40
0.10000000000002274,2821,7,79,61
0.09999999999999432,2821,8,79,77
0.09999999999999432,2821,9,79,90
0.09999999999999432,2821,10,79,60
0.09999999999999432,2821,11,79,56
0.10000000000002274,2821,12,79,90
0.09999999999999432,2821,13,79,110
0.09999999999999432,2821,14,79,53
0.09999999999999432,2821,15,79,26
0.06818181818181301,2822,0,79,46
0.03636363636363171,2822,1,79,61
0.09999999999999432,2822,2,79,70
0.09999999999999432,2822,3,79,80
0.10000000000002274,2822,4,79,65
0.09999999999999432,2822,5,79,68
0.09999999999999432,2822,6,79,58
0.09999999999999432,2822,7,79,108
0.09999999999999432,2822,8,79,106
0.09999999999999432,2822,9,79,67
0.09999999999999432,2822,10,79,101
0.09999999999999432,2822,11,79,88
0.10000000000002274,2822,12,79,127
0.09999999999999432,2822,13,79,127
0.09999999999999432,2822,14,79,103
0.09999999999999432,2822,15,79,46
0.09999999999999432,2823,0,79,89
0.09999999999999432,2823,1,79,87
0.09999999999999432,2823,2,79,109
0.10000000000002274,2823,3,79,67
0.10000000000002274,2823,4,79,101
0.10000000000002274,2823,5,79,65
0.09999999999999432,2823,6,79,85
0.10000000000002274,2823,7,79,71
0.09999999999999432,2823,8,79,73
0.045454545454532536,2823,9,79,80
0.09999999999999432,2823,10,79,44
0.09999999999999432,2823,11,79,100
0.09999999999999432,2823,12,79,48
0.09999999999999432,2823,13,79,51
0.09999999999999432,2823,14,79,111
0.09999999999999432,2823,15,79,101
0.09999999999999432,2824,0,79,127
0.10000000000002274,2824,1,79,90
0.09999999999999432,2824,2,79,104
0.09999999999999432,2824,3,79,74
0.056818181818158564,2824,4,79,109
0.10000000000002274,2824,5,79,74
0.09999999999999432,2824,6,79,76
0.09999999999999432,2824,7,79,67
0.09999999999999432,2824,8,79,51
0.09999999999999432,2824,9,79,101
0.10000000000002274,2824,10,79,127
0.09999999999999432,2824,11,79,91
0.09999999999999432,2824,12,79,94
0.09999999999999432,2824,13,79,95
0.10000000000002274,2824,14,79,83
0.09999999999999432,2824,15,79,72
0.10000000000002274,2825,0,79,83
0.09999999999999432,2825,1,79,127
0.09999999999999432,2825,2,79,95
0.10000000000002274,2825,3,79,32
0.0022727272727252057,2825,4,79,50
0.01590909090910486,2825,5,79,106
0.09999999999999432,2825,6,79,127
0.09999999999999432,2825,7,79,70
0.09999999999999432,2825,8,79,113
0.09999999999999432,2825,9,79,44
0.013636363636351234,2825,10,79,33
0.09999999999999432,2825,11,79,70
0.09999999999999432,2825,12,79,98
0.10000000000002274,2825,13,79,82
0.10000000000002274,2825,14,79,75
0.09999999999999432,2825,15,79,90
0.09999999999999432,2826,0,79,9
0.09999999999999432,2826,1,79,61
0.09999999999999432,2826,2,79,89
0.09999999999999432,2826,3,79,97
0.09999999999999432,2826,4,79,103
0.09999999999999432,2826,5,79,70
0.09999999999999432,2826,6,79,11
0.09999999999999432,2826,7,79,80
0.09999999999999432,2826,8,79,63
0.09999999999999432,2826,9,79,104
0.10000000000002274,2826,10,79,35
0.09999999999999432,2826,11,79,68
0.10000000000002274,2826,12,79,96
0.10000000000002274,2826,13,79,65
0.09999999999999432,2826,14,79,82
0.10000000000002274,2826,15,79,78
0.09999999999999432,2827,0,79,36
0.10000000000002274,2827,1,79,73
0.09999999999999432,2827,2,79,77
0.09999999999999432,2827,3,79,64
0.10000000000002274,2827,4,79,55
0.09999999999999432,2827,5,79,70
0.10000000000002274,2827,6,79,96
0.09999999999999432,2827,7,79,97
0.09999999999999432,2827,8,79,39
0.10000000000002274,2827,9,79,66
0.09999999999999432,2827,10,79,77
0.09999999999999432,2827,11,79,56
0.10000000000002274,2827,12,79,65
0.09999999999999432,2827,13,79,83
0.09999999999999432,2827,14,79,69
0.09999999999999432,2827,15,79,71
0.09999999999999432,2828,0,79,60
0.09999999999999432,2828,1,79,34
0.09999999999999432,2828,2,79,82
0.09999999999999432,2828,3,79,100
0.09999999999999432,2828,4,79,72
0.09999999999999432,2828,5,79,100
0.09999999999999432,2828,6,79,73
0.09999999999999432,2828,7,79,84
0.09999999999999432,2828,8,79,61
0.10000000000002274,2828,9,79,77
0.09999999999999432,2828,10,79,58
0.09999999999999432,2828,11,79,75
0.09999999999999432,2828,12,79,91
0.09999999999999432,2828,13,79,127
0.10000000000002274,2828,14,79,64
0.09999999999999432,2828,15,79,65
0.10000000000002274,2829,0,79,102
0.09999999999999432,2829,1,79,55
0.10000000000002274,2829,2,79,103
0.09999999999999432,2829,3,79,94
0.09999999999999432,2829,4,79,79
0.09999999999999432,2829,5,79,88
0.09999999999999432,2829,6,79,103
0.10000000000002274,2829,7,79,111
0.09999999999999432,2829,8,79,102
0.09999999999999432,2829,9,79,58
0.10000000000002274,2829,10,79,43
0.09999999999999432,2829,11,79,97
0.09999999999999432,2829,12,79,122
0.09999999999999432,2829,13,79,107
0.10000000000002274,2829,14,79,74
0.09999999999999432,2829,15,79,77
0.10000000000002274,2830,0,79,127
0.09999999999999432,2830,1,79,69
0.09999999999999432,2830,2,79,84
0.09999999999999432,2830,3,79,115
0.09999999999999432,2830,4,79,94
0.09999999999999432,2830,5,79,24
0.09999999999999432,2830,6,79,65
0.10000000000002274,2830,7,79,115
0.09999999999999432,2830,8,79,106
0.09999999999999432,2830,9,79,97
0.10000000000002274,2830,10,79,67
0.09999999999999432,2830,11,79,80
0.09999999999999432,2830,12,79,91
0.09999999999999432,2830,13,79,84
0.10000000000002274,2830,14,79,67
0.09999999999999432,2830,15,79,70
0.10000000000002274,2831,0,79,126
0.09999999999999432,2831,1,79,42
0.09999999999999432,2831,2,79,101
0.09999999999999432,2831,3,79,110
0.09999999999999432,2831,4,79,51
0.01590909090907644,2831,5,79,96
0.09999999999999432,2831,6,79,105
0.09999999999999432,2831,7,79,50
0.09999999999999432,2831,8,79,83
0.09999999999999432,2831,9,79,74
0.09999999999999432,2831,10,79,96
0.10000000000002274,2831,11,79,59
0.09999999999999432,2831,12,79,67
0.09999999999999432,2831,13,79,101
0.09999999999999432,2831,14,79,102
0.10000000000002274,2831,15,79,80
0.09999999999999432,2832,0,79,73
0.09999999999999432,2832,1,79,98
0.10000000000002274,2832,2,79,54
0.09999999999999432,2832,3,79,84
0.09999999999999432,2832,4,79,106
0.09999999999999432,2832,5,79,47
0.09999999999999432,2832,6,79,81
0.10000000000002274,2832,7,79,97
0.09999999999999432,2832,8,79,49
0.10000000000002274,2832,9,79,64
0.09999999999999432,2832,10,79,90
0.10000000000002274,2832,11,79,83
0.004545454545478833,2832,12,79,81
0.09999999999999432,2832,13,79,123
0.09999999999999432,2832,14,79,101
0.10000000000002274,2832,15,79,89
0.09999999999999432,2833,0,79,46
0.09999999999999432,2833,1,79,58
0.10000000000002274,2833,2,79,91
0.10000000000002274,2833,3,79,51
0.09999999999999432,2833,4,79,97
0.09999999999999432,2833,5,79,81
0.045454545454532536,2833,6,79,105
0.09999999999999432,2833,7,79,94
0.09999999999999432,2833,8,79,83
0.10000000000002274,2833,9,79,102
0.09999999999999432,2833,10,79,81
0.09999999999999432,2833,11,79,125
0.10000000000002274,2833,12,79,54
0.09999999999999432,2833,13,79,78
0.09999999999999432,2833,14,79,91
0.01590909090907644,2833,15,79,81
0.025000000000005684,2834,0,79,98
0.09999999999999432,2834,1,79,109
0.10000000000002274,2834,2,79,61
0.09999999999999432,2834,3,79,86
0.10000000000002274,2834,4,79,47
0.09999999999999432,2834,5,79,78
0.10000000000002274,2834,6,79,67
0.09999999999999432,2834,7,79,60
0.09999999999999432,2834,8,79,81
0.09999999999999432,2834,9,79,61
0.09999999999999432,2834,10,79,78
0.09999999999999432,2834,11,79,5
0.09999999999999432,2834,12,79,65
0.09999999999999432,2834,13,79,52
0.09999999999999432,2834,14,79,116
0.09999999999999432,2834,15,79,127
0.09999999999999432,2835,0,79,112
0.10000000000002274,2835,1,79,82
0.09999999999999432,2835,2,79,127
0.09999999999999432,2835,3,79,123
0.09999999999999432,2835,4,79,118
0.09999999999999432,2835,5,79,87
0.09999999999999432,2835,6,79,107
0.09999999999999432,2835,7,79,82
0.09999999999999432,2835,8,79,122
0.09999999999999432,2835,9,79,83
0.09999999999999432,2835,10,79,107
0.10000000000002274,2835,11,79,71
0.10000000000002274,2835,12,79,63
0.09999999999999432,2835,13,79,125
0.09999999999999432,2835,14,79,32
0.09999999999999432,2835,15,79,94
0.09999999999999432,2836,0,79,127
0.09999999999999432,2836,1,79,98
0.10000000000002274,2836,2,79,124
0.09999999999999432,2836,3,79,81
0.09999999999999432,2836,4,79,76
0.09999999999999432,2836,5,79,19
0.09999999999999432,2836,6,79,69
0.09999999999999432,2836,7,79,72
0.09999999999999432,2836,8,79,76
0.09999999999999432,2836,9,79,51
0.09999999999999432,2836,10,79,89
0.09999999999999432,2836,11,79,84
0.09999999999999432,2836,12,79,5
0.09999999999999432,2836,13,79,43
0.10000000000002274,2836,14,79,59
0.09999999999999432,2836,15,79,55
0.09999999999999432,2837,0,79,117
0.10000000000002274,2837,1,79,41
0.09999999999999432,2837,2,79,47
0.10000000000002274,2837,3,79,51
0.09999999999999432,2837,4,79,34
0.09999999999999432,2837,5,79,48
0.09999999999999432,2837,6,79,89
0.10000000000002274,2837,7,79,64
0.09999999999999432,2837,8,79,4
0.09999999999999432,2837,9,79,28
0.09999999999999964,2837,10,68,1
0.09999999999999964,2837,11,68,1
0.10000000000000142,2837,12,68,15
0.09999999999999964,2837,13,68,19
0.10000000000000142,2837,14,68,15
0.10000000000000142,2837,15,68,7
0.004545454545453964,2838,0,68,13
0.10000000000000142,2838,1,68,23
0.09999999999999787,2838,2,68,18
0.10000000000000142,2838,3,68,7
0.10000000000000142,2838,4,68,10
0.10000000000000142,2838,5,68,8
0.09999999999999787,2838,6,68,9
0.10000000000000142,2838,7,68,41
0.09999999999999787,2838,8,68,3
0.09999999999999787,2838,9,68,28
0.10000000000000142,2838,10,68,24
0.10000000000000142,2838,11,68,6
0.09999999999999787,2838,12,68,28
0.10000000000000142,2838,13,68,19
0.10000000000000142,2838,14,68,5
0.09999999999999787,2838,15,68,16
0.09999999999999787,2839,0,68,13
0.09999999999999787,2839,1,68,16
0.09999999999999787,2839,2,68,7
0.09999999999999787,2839,3,68,7
0.09999999999999787,2839,4,68,24
0.10000000000000142,2839,5,68,25
0.10000000000000142,2839,6,68,9
0.06818181818182012,2839,7,68,17
0.10000000000000142,2839,8,68,29
0.10000000000000142,2839,9,68,20
0.09999999999999787,2839,10,68,7
0.09999999999999787,2839,11,68,8
0.10000000000000142,2839,12,68,26
0.09999999999999787,2839,13,68,11
0.09999999999999787,2839,14,68,24
0.09999999999999787,2839,15,68,20
0.10000000000000142,2840,0,68,5
0.10000000000000142,2840,1,68,3
0.10000000000000142,2840,2,68,8
0.09999999999999432,2840,3,68,8
0.09999999999999432,2840,4,68,1
0.10000000000000142,2840,5,68,8
0.10000000000000142,2840,6,68,10
0.10000000000000142,2840,7,68,7
0.10000000000000142,2840,8,68,21
0.10000000000000142,2840,9,68,7
0.03636363636363882,2840,10,68,16
0.10000000000000142,2840,11,68,11
0.09999999999999432,2840,12,68,14
0.10000000000000142,2840,13,68,3
0.10000000000000142,2840,14,68,5
0.10000000000000142,2840,15,68,9
0.09999999999999432,2841,0,68,9
0.10000000000000142,2841,1,68,3
0.10000000000000142,2841,2,68,7
0.10000000000000142,2841,3,68,6
0.10000000000000142,2841,4,68,13
0.10000000000000142,2841,5,68,11
0.10000000000000142,2841,6,68,3
0.09999999999999432,2841,7,68,10
0.10000000000000142,2841,8,68,3
0.06818181818182012,2841,9,68,4
0.10000000000000142,2841,10,68,4
0.09999999999999432,2841,11,68,13
0.10000000000000142,2841,12,68,10
0.10000000000000142,2841,13,68,11
0.10000000000000142,2841,14,68,11
0.10000000000000142,2841,15,68,2
0.10000000000000142,2842,0,68,18
0.10000000000000142,2842,1,68,30
0.10000000000000142,2842,2,68,1
0.10000000000000142,2842,3,68,3
0.03409090909091361,2842,4,68,10
0.09999999999999432,2842,5,68,13
0.10000000000000142,2842,6,68,4
0.027272727272723785,2842,7,68,7
0.10000000000000142,2842,8,68,11
0.10000000000000142,2842,9,68,17
0.10000000000000142,2842,10,68,8
0.10000000000000142,2842,11,68,1
0.10000000000000142,2842,12,68,10
0.10000000000000142,2842,13,68,7
0.09999999999999432,2842,14,68,17
0.10000000000000853,2842,15,68,7
0.09999999999999432,2843,0,68,19
0.09999999999999432,2843,1,68,10
0.10000000000000853,2843,2,68,17
0.09999999999999432,2843,3,68,22
0.09999999999999432,2843,4,68,9
0.09999999999999432,2843,5,68,13
0.10000000000000853,2843,6,68,4
0.013636363636365445,2843,7,68,1
0.09999999999999432,2843,8,68,12
0.10000000000000853,2843,9,68,21
0.10000000000000853,2843,10,68,2
0.09999999999999432,2843,11,68,11
0.09999999999999432,2843,12,68,15
0.09999999999999432,2843,13,68,9
0.10000000000000853,2843,14,68,18
0.09999999999999432,2843,15,68,1
0.10000000000000853,2844,0,68,7
0.10000000000000853,2844,1,68,12
0.09999999999999432,2844,2,68,11
0.09999999999999432,2844,3,68,16
0.10000000000000853,2844,4,68,12
0.10000000000000853,2844,5,68,4
0.09999999999999432,2844,6,68,16
0.09999999999999432,2844,7,68,12
0.09999999999999432,2844,8,68,8
0.10000000000000853,2844,9,68,8
0.09999999999999432,2844,10,68,1
0.09999999999999432,2844,11,68,18
0.10000000000000853,2844,12,68,10
0.09999999999999432,2844,13,68,10
0.09999999999999432,2844,14,68,9
0.09999999999999432,2844,15,68,17
0.09999999999999432,2845,0,68,5
0.09999999999999432,2845,1,68,9
0.10000000000000853,2845,2,68,4
0.09999999999999432,2845,3,68,6
0.10000000000000853,2845,4,68,6
0.10000000000000853,2845,5,68,1
0.09999999999999432,2845,6,68,7
0.10000000000000853,2845,7,68,8
0.09999999999999432,2845,8,68,9
0.09999999999999432,2845,9,68,10
0.10000000000000853,2845,10,68,1
0.10000000000000853,2845,11,68,4
0.09999999999999432,2845,12,68,6
0.09999999999999432,2845,13,68,5
0.10000000000000853,2845,14,68,4
0.10000000000000853,2845,15,68,1
0.09999999999999432,2846,0,68,4
0.10000000000000853,2846,1,68,8
0.09999999999999432,2846,2,68,6
0.09999999999999432,2846,3,68,10
0.09999999999999432,2846,4,68,10
0.09999999999999432,2846,5,68,15
0.10000000000000853,2846,6,68,5
0.10000000000000853,2846,7,68,11
0.10000000000000853,2846,8,68,9
0.09999999999999432,2846,9,68,7
0.10000000000000853,2846,10,68,7
0.10000000000000853,2846,11,68,6
0.09999999999999432,2846,12,68,3
0.09999999999999432,2846,13,68,5
0.10000000000000853,2846,14,68,8
0.09999999999999432,2846,15,68,7
0.10000000000000853,2847,0,68,14
0.09999999999999432,2847,1,68,7
0.10000000000000853,2847,2,68,9
0.10000000000000853,2847,3,68,15
0.10000000000000853,2847,4,68,3
0.10000000000000853,2847,5,68,9
0.09999999999999432,2847,6,68,23
0.09999999999999432,2847,7,68,8
0.09999999999999432,2847,8,68,11
0.09999999999999432,2847,9,68,14
0.10000000000000853,2847,10,68,6
0.06818181818182723,2847,11,68,9
0.10000000000000853,2847,12,68,11
0.09999999999999432,2847,13,68,12
0.10000000000000853,2847,14,68,14
0.056818181818186986,2847,15,68,20
0.09999999999999432,2848,0,68,11
0.09999999999999432,2848,1,68,9
0.10000000000000853,2848,2,68,18
0.09999999999999432,2848,3,68,11
0.09999999999999432,2848,4,68,18
0.10000000000000853,2848,5,68,23
0.10000000000000853,2848,6,68,11
0.09999999999999432,2848,7,68,17
0.09999999999999432,2848,8,68,15
0.09999999999999432,2848,9,68,18
0.09999999999999432,2848,10,68,5
0.09999999999999432,2848,11,68,11
0.09999999999999432,2848,12,68,19
0.09999999999999432,2848,13,68,22
0.10000000000000853,2848,14,68,16
0.09999999999999432,2848,15,68,18
0.09999999999999432,2849,0,68,16
0.09999999999999432,2849,1,68,19
0.10000000000000853,2849,2,68,6
0.09999999999999432,2849,3,68,1
0.09999999999999432,2849,4,68,1
0.10000000000000853,2849,5,68,1
0.09999999999999432,2849,6,68,1
0.09999999999999432,2849,7,68,5
0.10000000000000853,2849,8,68,2
0.10000000000000853,2849,9,68,4
0.09999999999999432,2849,10,68,3
0.10000000000000853,2849,11,68,7
0.09999999999999432,2849,12,68,3
0.09999999999999432,2849,13,68,5
0.10000000000000853,2849,14,68,2
0.10000000000000853,2849,15,68,2
0.04772727272727195,2850,0,68,2
0.09999999999999432,2850,1,68,5
0.09999999999999432,2850,2,68,2
0.10000000000000853,2850,3,68,4
0.09999999999999432,2850,4,68,8
0.09999999999999432,2850,5,68,4
0.09999999999999432,2850,6,68,5
0.10000000000000853,2850,7,68,2
0.10000000000000853,2850,8,68,6
0.09999999999999432,2850,9,68,22
0.09999999999999432,2850,10,68,20
0.10000000000000853,2850,11,68,25
0.09999999999999432,2850,12,68,4
0.09999999999999432,2850,13,68,8
0.09999999999999432,2850,14,68,11
0.10000000000000853,2850,15,68,10
0.10000000000000853,2851,0,68,8
0.09999999999999432,2851,1,68,13
0.10000000000000853,2851,2,68,4
0.10000000000000853,2851,3,68,33
0.09999999999999432,2851,4,68,11
0.06818181818181301,2851,5,68,18
0.09999999999999432,2851,6,68,12
0.10000000000000853,2851,7,68,11
0.09999999999999432,2851,8,68,12
0.09999999999999432,2851,9,68,11
0.09999999999999432,2851,10,68,11
0.09999999999999432,2851,11,68,17
0.10000000000000853,2851,12,68,13
0.10000000000000853,2851,13,68,11
0.09999999999999432,2851,14,68,10
0.10000000000000853,2851,15,68,13
0.09999999999999432,2852,0,68,21
0.10000000000000853,2852,1,68,11
0.09999999999999432,2852,2,68,15
0.09999999999999432,2852,3,68,7
0.10000000000000853,2852,4,68,5
0.004545454545464622,2852,5,68,26
0.10000000000000853,2852,6,68,25
0.09999999999999432,2852,7,68,31
0.10000000000000853,2852,8,68,29
0.10000000000000853,2852,9,68,11
0.10000000000000853,2852,10,68,37
0.09999999999999432,2852,11,68,24
0.10000000000000853,2852,12,68,15
0.09999999999999432,2852,13,68,11
0.10000000000000853,2852,14,68,16
0.09999999999999432,2852,15,68,12
0.09999999999999432,2853,0,68,14
0.09999999999999432,2853,1,68,19
0.09999999999999432,2853,2,68,16
0.10000000000000853,2853,3,68,24
0.09999999999999432,2853,4,68,31
0.10000000000000853,2853,5,68,27
0.10000000000000853,2853,6,68,11
0.09999999999999432,2853,7,68,11
0.09999999999999432,2853,8,68,41
0.09999999999999432,2853,9,68,21
0.09999999999999432,2853,10,68,25
0.10000000000002274,2853,11,68,22
0.09999999999999432,2853,12,68,19
0.09999999999999432,2853,13,68,12
0.056818181818158564,2853,14,68,14
0.004545454545450411,2853,15,68,13
0.09999999999999432,2854,0,68,20
0.09999999999999432,2854,1,68,21
0.09999999999999432,2854,2,68,14
0.09999999999999432,2854,3,68,12
0.09999999999999432,2854,4,68,45
0.09999999999999432,2854,5,68,29
0.09999999999999432,2854,6,68,16
0.09999999999999432,2854,7,68,10
0.10000000000002274,2854,8,68,17
0.09999999999999432,2854,9,68,13
0.09999999999999432,2854,10,68,13
0.10000000000002274,2854,11,68,19
0.09999999999999432,2854,12,68,11
0.09999999999999432,2854,13,68,19
0.09999999999999432,2854,14,68,30
0.09999999999999432,2854,15,68,11
0.09999999999999432,2855,0,68,12
0.09999999999999432,2855,1,68,13
0.09999999999999432,2855,2,68,30
0.09999999999999432,2855,3,68,5
0.09999999999999432,2855,4,68,16
0.09999999999999432,2855,5,68,10
0.045454545454532536,2855,6,68,15
0.004545454545450411,2855,7,68,26
0.10000000000002274,2855,8,68,13
0.09999999999999432,2855,9,68,11
0.09999999999999432,2855,10,68,15
0.09999999999999432,2855,11,68,48
0.09999999999999432,2855,12,68,9
0.09999999999999432,2855,13,68,10
0.09999999999999432,2855,14,68,15
0.09999999999999432,2855,15,68,30
0.09999999999999432,2856,0,68,18
0.10000000000002274,2856,1,68,9
0.09999999999999432,2856,2,68,30
0.10000000000002274,2856,3,68,32
0.09999999999999432,2856,4,68,27
0.09999999999999432,2856,5,68,41
0.10000000000002274,2856,6,68,26
0.10000000000002274,2856,7,68,21
0.09999999999999432,2856,8,68,23
0.09999999999999432,2856,9,68,28
0.09999999999999432,2856,10,68,14
0.09999999999999432,2856,11,68,4
0.09999999999999432,2856,12,68,9
0.056818181818186986,2856,13,68,18
0.09999999999999432,2856,14,68,19
0.09999999999999432,2856,15,68,15
0.09999999999999432,2857,0,68,17
0.09999999999999432,2857,1,68,8
0.09999999999999432,2857,2,68,12
0.10000000000002274,2857,3,68,28
0.09999999999999432,2857,4,68,36
0.09999999999999432,2857,5,68,17
0.09999999999999432,2857,6,68,20
0.09999999999999432,2857,7,68,17
0.09999999999999432,2857,8,68,3
0.09999999999999432,2857,9,68,8
0.09999999999999432,2857,10,68,18
0.09999999999999432,2857,11,68,8
0.06818181818181301,2857,12,68,12
0.10000000000002274,2857,13,68,15
0.09999999999999432,2857,14,68,24
0.09999999999999432,2857,15,68,18
0.09999999999999432,2858,0,68,20
0.09999999999999432,2858,1,68,25
0.09999999999999432,2858,2,68,22
0.10000000000002274,2858,3,68,21
0.09999999999999432,2858,4,68,31
0.09999999999999432,2858,5,68,19
0.09999999999999432,2858,6,68,9
0.09999999999999432,2858,7,68,14
0.09999999999999432,2858,8,68,21
0.09999999999999432,2858,9,68,22
0.09999999999999432,2858,10,68,9
0.09999999999999432,2858,11,68,9
0.09999999999999432,2858,12,68,18
0.09999999999999432,2858,13,68,20
0.10000000000002274,2858,14,68,16
0.09999999999999432,2858,15,68,17
0.09999999999999432,2859,0,68,21
0.10000000000002274,2859,1,68,18
0.056818181818186986,2859,2,68,22
0.09999999999999432,2859,3,68,10
0.06818181818181301,2859,4,68,14
0.09999999999999432,2859,5,68,11
0.09999999999999432,2859,6,68,8
0.04772727272725774,2859,7,68,17
0.09999999999999432,2859,8,68,13
0.06818181818181301,2859,9,68,16
0.09999999999999432,2859,10,68,16
0.09999999999999432,2859,11,68,23
0.09999999999999432,2859,12,68,31
0.09999999999999432,2859,13,68,20
0.03636363636363171,2859,14,68,24
0.09999999999999432,2859,15,68,11
0.10000000000002274,2860,0,68,20
0.10000000000002274,2860,1,68,12
0.10000000000002274,2860,2,68,17
0.09999999999999432,2860,3,68,8
0.09999999999999432,2860,4,68,23
0.09999999999999432,2860,5,68,20
0.09999999999999432,2860,6,68,17
0.10000000000002274,2860,7,68,21
0.09999999999999432,2860,8,68,23
0.09999999999999432,2860,9,68,19
0.10000000000002274,2860,10,68,12
0.09999999999999432,2860,11,68,25
0.09999999999999432,2860,12,68,4
0.09999999999999432,2860,13,68,17
0.09999999999999432,2860,14,68,20
0.10000000000002274,2860,15,68,31
0.09999999999999432,2861,0,68,10
0.09999999999999432,2861,1,68,9
0.10000000000002274,2861,2,68,13
0.10000000000002274,2861,3,68,16
0.004545454545450411,2861,4,68,26
0.10000000000002274,2861,5,68,14
0.10000000000002274,2861,6,68,15
0.09999999999999432,2861,7,68,18
0.09999999999999432,2861,8,68,14
0.10000000000002274,2861,9,68,9
0.10000000000002274,2861,10,68,22
0.09999999999999432,2861,11,68,24
0.09999999999999432,2861,12,68,16
0.10000000000000142,2861,13,54,35
0.10000000000000142,2861,14,54,51
0.10000000000000142,2861,15,54,76
0.09999999999999432,2862,0,54,100
0.10000000000000142,2862,1,54,59
0.02499999999999858,2862,2,54,34
0.10000000000000142,2862,3,54,89
0.10000000000000142,2862,4,54,84
0.02499999999999858,2862,5,54,63
0.10000000000000142,2862,6,54,68
0.10000000000000142,2862,7,54,28
0.10000000000000142,2862,8,54,56
0.10000000000000142,2862,9,54,68
0.10000000000000142,2862,10,54,68
0.10000000000000142,2862,11,54,67
0.10000000000000142,2862,12,54,60
0.10000000000000142,2862,13,54,40
0.09999999999999432,2862,14,54,69
0.10000000000000142,2862,15,54,60
0.09999999999999432,2863,0,54,57
0.09999999999999432,2863,1,54,75
0.10000000000000853,2863,2,54,70
0.09999999999999432,2863,3,54,69
0.10000000000000853,2863,4,54,55
0.10000000000000853,2863,5,54,69
0.05909090909091219,2863,6,54,69
0.09999999999999432,2863,7,54,70
0.06818181818181301,2863,8,54,69
0.10000000000000853,2863,9,54,74
0.09999999999999432,2863,10,54,71
0.09999999999999432,2863,11,54,67
0.09999999999999432,2863,12,54,73
0.09999999999999432,2863,13,54,73
0.056818181818172775,2863,14,54,80
0.10000000000000853,2863,15,54,71
0.10000000000000853,2864,0,54,65
0.09999999999999432,2864,1,54,44
0.09999999999999432,2864,2,54,55
0.10000000000000853,2864,3,54,52
0.09999999999999432,2864,4,54,60
0.09999999999999432,2864,5,54,63
0.10000000000000853,2864,6,54,65
0.09999999999999432,2864,7,54,91
0.09999999999999432,2864,8,54,78
0.09999999999999432,2864,9,54,76
0.10000000000000853,2864,10,54,74
0.06818181818182723,2864,11,54,79
0.09999999999999432,2864,12,54,79
0.09999999999999432,2864,13,54,82
0.10000000000000853,2864,14,54,87
0.09999999999999432,2864,15,54,66
0.09999999999999432,2865,0,54,82
0.09999999999999432,2865,1,54,66
0.09999999999999432,2865,2,54,59
0.10000000000000853,2865,3,54,79
0.10000000000000853,2865,4,54,71
0.10000000000000853,2865,5,54,71
0.10000000000000853,2865,6,54,59
0.09999999999999432,2865,7,54,75
0.09999999999999432,2865,8,54,54
0.09999999999999432,2865,9,54,66
0.09999999999999432,2865,10,54,53
0.09999999999999432,2865,11,54,59
0.10000000000000853,2865,12,54,56
0.10000000000000853,2865,13,54,51
0.09999999999999432,2865,14,54,53
0.10000000000000853,2865,15,54,56
0.10000000000000853,2866,0,54,62
0.09999999999999432,2866,1,54,68
0.10000000000000853,2866,2,54,71
0.09999999999999432,2866,3,54,66
0.09999999999999432,2866,4,54,49
0.10000000000000853,2866,5,54,70
0.09999999999999432,2866,6,54,62
0.09999999999999432,2866,7,54,55
0.10000000000000853,2866,8,54,67
0.06818181818181301,2866,9,54,65
0.09999999999999432,2866,10,54,67
0.09999999999999432,2866,11,54,66
0.09999999999999432,2866,12,54,60
0.09999999999999432,2866,13,54,79
0.10000000000000853,2866,14,54,59
0.10000000000000853,2866,15,54,68
0.09999999999999432,2867,0,54,57
0.10000000000000853,2867,1,54,67
0.09999999999999432,2867,2,54,57
0.10000000000000853,2867,3,54,52
0.10000000000000853,2867,4,54,58
0.06818181818182723,2867,5,54,54
0.09999999999999432,2867,6,54,77
0.06818181818181301,2867,7,54,76
0.09999999999999432,2867,8,54,73
0.10000000000000853,2867,9,54,69
0.09999999999999432,2867,10,54,58
0.10000000000000853,2867,11,54,68
0.09999999999999432,2867,12,54,59
0.10000000000000853,2867,13,54,68
0.06818181818182723,2867,14,54,70
0.10000000000000853,2867,15,54,54
0.09999999999999432,2868,0,54,71
0.09999999999999432,2868,1,54,69
0.09999999999999432,2868,2,54,67
0.10000000000000853,2868,3,54,79
0.10000000000000853,2868,4,54,62
0.10000000000000853,2868,5,54,60
0.09999999999999432,2868,6,54,61
0.056818181818172775,2868,7,54,52
0.09999999999999432,2868,8,54,41
0.056818181818172775,2868,9,54,47
0.09999999999999432,2868,10,54,45
0.06590909090908781,2868,11,54,47
0.09999999999999432,2868,12,54,56
0.09999999999999432,2868,13,54,40
0.10000000000000853,2868,14,54,49
0.013636363636365445,2868,15,54,67
0.09999999999999432,2869,0,54,70
0.10000000000000853,2869,1,54,69
0.10000000000000853,2869,2,54,59
0.09999999999999432,2869,3,54,53
0.10000000000000853,2869,4,54,64
0.09999999999999432,2869,5,54,32
0.06818181818181301,2869,6,54,56
0.10000000000000853,2869,7,54,67
0.10000000000000853,2869,8,54,65
0.045454545454546746,2869,9,54,67
0.10000000000000853,2869,10,54,61
0.025000000000005684,2869,11,54,66
0.10000000000000853,2869,12,54,63
0.10000000000000853,2869,13,54,72
0.09999999999999432,2869,14,54,66
0.09999999999999432,2869,15,54,69
0.10000000000002274,2870,0,54,56
0.09999999999999432,2870,1,54,86
0.03636363636363171,2870,2,54,79
0.056818181818186986,2870,3,54,80
0.09999999999999432,2870,4,54,69
0.09999999999999432,2870,5,54,89
0.09999999999999432,2870,6,54,70
0.09999999999999432,2870,7,54,66
0.10000000000002274,2870,8,54,74
0.09999999999999432,2870,9,54,61
0.09999999999999432,2870,10,54,60
0.06818181818181301,2870,11,54,71
0.10000000000002274,2870,12,54,69
0.09999999999999432,2870,13,54,64
0.024999999999977263,2870,14,54,55
0.09999999999999432,2870,15,54,62
0.09999999999999432,2871,0,54,68
0.09999999999999432,2871,1,54,65
0.09999999999999432,2871,2,54,72
0.09999999999999432,2871,3,54,64
0.09999999999999432,2871,4,54,55
0.09999999999999432,2871,5,54,77
0.10000000000002274,2871,6,54,84
0.10000000000002274,2871,7,54,78
0.10000000000002274,2871,8,54,66
0.09999999999999432,2871,9,54,68
0.09999999999999432,2871,10,54,74
0.03636363636363171,2871,11,54,57
0.09999999999999432,2871,12,54,63
0.09999999999999432,2871,13,54,67
0.09999999999999432,2871,14,54,65
0.09999999999999432,2871,15,54,75
0.09999999999999432,2872,0,54,68
0.09999999999999432,2872,1,54,65
0.09999999999999432,2872,2,54,60
0.10000000000002274,2872,3,54,52
0.09999999999999432,2872,4,54,54
0.10000000000002274,2872,5,54,40
0.09999999999999432,2872,6,54,53
0.10000000000002274,2872,7,54,56
0.10000000000002274,2872,8,54,67
0.09999999999999432,2872,9,54,65
0.10000000000002274,2872,10,54,60
0.10000000000002274,2872,11,54,60
0.09999999999999432,2872,12,54,52
0.09999999999999432,2872,13,54,62
0.09999999999999432,2872,14,54,59
0.09999999999999432,2872,15,54,57
0.10000000000002274,2873,0,54,49
0.09999999999999432,2873,1,54,66
0.09999999999999432,2873,2,54,65
0.09999999999999432,2873,3,54,60
0.09999999999999432,2873,4,54,77
0.10000000000002274,2873,5,54,65
0.09999999999999432,2873,6,54,63
0.09999999999999787,2873,7,76,80
0.10000000000000142,2873,8,76,40
0.10000000000000142,2873,9,76,33
0.09999999999999787,2873,10,76,61
0.10000000000000142,2873,11,76,70
0.10000000000000142,2873,12,76,37
0.09999999999999787,2873,13,76,57
0.09999999999999787,2873,14,76,20
0.10000000000000142,2873,15,76,43
0.10000000000000142,2874,0,76,3
0.09999999999999787,2874,1,76,6
0.10000000000000142,2874,2,76,4
0.09999999999999787,2874,3,76,1
0.10000000000000142,2874,4,76,3
0.09999999999999787,2874,5,76,1
0.10000000000000142,2874,6,76,41
0.10000000000000142,2874,7,76,3
0.09999999999999787,2874,8,76,1
0.10000000000000142,2874,9,76,17
0.10000000000000142,2874,10,76,1
0.09999999999999787,2874,11,76,1
0.09999999999999787,2874,12,76,71
0.10000000000000142,2874,13,76,2
0.10000000000000142,2874,14,76,5
0.10000000000000142,2874,15,76,3
0.10000000000000142,2875,0,76,2
0.10000000000000142,2875,1,76,2
0.10000000000000142,2875,2,76,1
0.10000000000000142,2875,3,76,40
0.09999999999999432,2875,4,76,3
0.10000000000000142,2875,5,76,1
0.09999999999999432,2875,6,76,4
0.10000000000000142,2875,7,76,1
0.10000000000000142,2875,8,76,2
0.10000000000000142,2875,9,76,2
0.09999999999999432,2875,10,76,48
0.10000000000000142,2875,11,76,3
0.10000000000000142,2875,12,76,5
0.10000000000000142,2875,13,76,4
0.09999999999999432,2875,14,76,2
0.10000000000000142,2875,15,76,2
0.09999999999999432,2876,0,76,1
0.10000000000000142,2876,1,76,49
0.10000000000000142,2876,2,76,1
0.09999999999999432,2876,3,76,1
0.10000000000000142,2876,4,76,4
0.09999999999999432,2876,5,76,1
0.10000000000000142,2876,6,76,1
0.09999999999999432,2876,7,76,1
0.10000000000000142,2876,8,76,46
0.10000000000000142,2876,9,76,3
0.10000000000000142,2876,10,76,5
0.10000000000000142,2876,11,76,4
0.10000000000000142,2876,12,76,2
0.10000000000000142,2876,13,76,5
0.10000000000000142,2876,14,76,17
0.09999999999999432,2876,15,76,2
0.10000000000000142,2877,0,76,17
0.10000000000000142,2877,1,76,19
0.10000000000000142,2877,2,76,124
0.10000000000000142,2877,3,76,7
0.10000000000000142,2877,4,76,4
0.09999999999999432,2877,5,76,46
0.10000000000000142,2877,6,76,3
0.10000000000000142,2877,7,76,4
0.10000000000000142,2877,8,76,3
0.10000000000000142,2877,9,76,1
0.09999999999999432,2877,10,76,2
0.10000000000000142,2877,11,76,2
0.10000000000000142,2877,12,76,50
0.10000000000000142,2877,13,76,2
0.10000000000000142,2877,14,76,1
0.09999999999999432,2877,15,76,28
0.10000000000000142,2878,0,76,3
0.10000000000000142,2878,1,76,2
0.10000000000000142,2878,2,76,44
0.09999999999999432,2878,3,76,2
0.10000000000000142,2878,4,76,5
0.10000000000000142,2878,5,76,3
0.10000000000000142,2878,6,76,2
0.09999999999999432,2878,7,76,3
0.09999999999999432,2878,8,76,1
0.10000000000000142,2878,9,76,48
0.10000000000000142,2878,10,76,2
0.09999999999999432,2878,11,76,1
0.10000000000000142,2878,12,76,4
0.10000000000000142,2878,13,76,2
0.10000000000000142,2878,14,76,1
0.10000000000000142,2878,15,76,29
0.10000000000000142,2879,0,76,2
0.10000000000000142,2879,1,76,5
0.10000000000000142,2879,2,76,4
0.10000000000000142,2879,3,76,1
0.10000000000000142,2879,4,76,2
0.10000000000000142,2879,5,76,1
0.10000000000000142,2879,6,76,31
0.10000000000000142,2879,7,76,2
0.09999999999999432,2879,8,76,1
0.10000000000000142,2879,9,76,18
0.10000000000000142,2879,10,76,1
0.10000000000000142,2879,11,76,1
0.10000000000000142,2879,12,76,29
0.10000000000000142,2879,13,76,2
0.10000000000000142,2879,14,76,5
0.09999999999999432,2879,15,76,3
0.10000000000000142,2880,0,76,1
0.10000000000000142,2880,1,76,16
0.10000000000000142,2880,2,76,1
0.09999999999999432,2880,3,76,24
0.10000000000000142,2880,4,76,9
0.10000000000000142,2880,5,76,3
0.10000000000000142,2880,6,76,1
0.10000000000000142,2880,7,76,40
0.10000000000000142,2880,8,76,21
0.09999999999999432,2880,9,76,1
0.10000000000000142,2880,10,76,4
0.10000000000000142,2880,11,76,51
0.10000000000000142,2880,12,76,16
0.10000000000000142,2880,13,76,1
0.09999999999999432,2880,14,76,1
0.10000000000000142,2880,15,76,45
0.09999999999999432,2881,0,76,2
0.10000000000000142,2881,1,76,19
0.10000000000000142,2881,2,76,1
0.09999999999999432,2881,3,76,3
0.10000000000000142,2881,4,76,50
0.09999999999999432,2881,5,76,2
0.10000000000000142,2881,6,76,12
0.10000000000000142,2881,7,76,1
0.10000000000000142,2881,8,76,49
0.10000000000000142,2881,9,76,2
0.10000000000000142,2881,10,76,22
0.10000000000000142,2881,11,76,1
0.10000000000000142,2881,12,76,4
0.10000000000000142,2881,13,76,3
0.10000000000000142,2881,14,76,1
0.10000000000000142,2881,15,76,1
0.10000000000000142,2882,0,76,13
0.10000000000000142,2882,1,76,1
0.10000000000000142,2882,2,76,127
0.10000000000000142,2882,3,76,14
0.10000000000000142,2882,4,76,117
0.10000000000000142,2882,5,76,92
0.10000000000000142,2882,6,76,65
0.10000000000000142,2882,7,76,127
0.10000000000000142,2882,8,76,127
0.10000000000000142,2882,9,76,127
0.10000000000000142,2882,10,76,127
0.09999999999999432,2882,11,76,8
0.10000000000000142,2882,12,76,127
0.10000000000000142,2882,13,76,20
0.09999999999999432,2882,14,76,10
0.10000000000000142,2882,15,76,96
0.10000000000000142,2883,0,76,22
0.10000000000000142,2883,1,76,7
0.10000000000000142,2883,2,76,127
0.10000000000000142,2883,3,76,21
0.09999999999999432,2883,4,76,9
0.10000000000000142,2883,5,76,85
0.10000000000000142,2883,6,76,25
0.10000000000000142,2883,7,76,7
0.10000000000000142,2883,8,76,127
0.10000000000000142,2883,9,76,19
0.10000000000000142,2883,10,76,10
0.10000000000000142,2883,11,76,85
0.10000000000000142,2883,12,76,23
0.09999999999999432,2883,13,76,7
0.10000000000000142,2883,14,76,127
0.09999999999999432,2883,15,76,20
0.10000000000000142,2884,0,76,10
0.10000000000000142,2884,1,76,105
0.09999999999999432,2884,2,76,23
0.10000000000000853,2884,3,76,7
0.09999999999999432,2884,4,76,127
0.09999999999999432,2884,5,76,22
0.10000000000000853,2884,6,76,9
0.10000000000000853,2884,7,76,92
0.10000000000000853,2884,8,76,19
0.10000000000000853,2884,9,76,127
0.09999999999999432,2884,10,76,20
0.10000000000000853,2884,11,76,11
0.09999999999999432,2884,12,76,83
0.10000000000000853,2884,13,76,98
0.09999999999999432,2884,14,76,32
0.10000000000000853,2884,15,76,9
0.10000000000000853,2885,0,76,127
0.09999999999999432,2885,1,76,39
0.10000000000000853,2885,2,76,97
0.09999999999999432,2885,3,76,23
0.09999999999999432,2885,4,76,127
0.09999999999999432,2885,5,76,24
0.10000000000000853,2885,6,76,10
0.10000000000000853,2885,7,76,96
0.10000000000000853,2885,8,76,22
0.09999999999999432,2885,9,76,7
0.10000000000000853,2885,10,76,127
0.10000000000000853,2885,11,76,7
0.09999999999999432,2885,12,76,9
0.09999999999999432,2885,13,76,92
0.09999999999999432,2885,14,76,22
0.10000000000000853,2885,15,76,8
0.10000000000000853,2886,0,76,127
0.10000000000000853,2886,1,76,22
0.09999999999999432,2886,2,76,9
0.10000000000000853,2886,3,76,102
0.09999999999999432,2886,4,76,24
0.10000000000000853,2886,5,76,8
0.09999999999999432,2886,6,76,127
0.09999999999999432,2886,7,76,17
0.09999999999999432,2886,8,76,20
0.10000000000000853,2886,9,76,11
0.10000000000000853,2886,10,76,93
0.09999999999999432,2886,11,76,23
0.09999999999999432,2886,12,76,6
0.10000000000000853,2886,13,76,127
0.09999999999999432,2886,14,76,22
0.10000000000000853,2886,15,76,11
0.09999999999999432,2887,0,76,97
0.09999999999999432,2887,1,76,26
0.10000000000000853,2887,2,76,7
0.09999999999999432,2887,3,76,126
0.10000000000000853,2887,4,76,21
0.10000000000000853,2887,5,76,102
0.09999999999999432,2887,6,76,117
0.09999999999999432,2887,7,76,21
0.09999999999999432,2887,8,76,85
0.09999999999999432,2887,9,76,71
0.10000000000000853,2887,10,76,127
0.10000000000000853,2887,11,76,86
0.10000000000000853,2887,12,76,23
0.10000000000000853,2887,13,76,22
0.09999999999999432,2887,14,76,88
0.10000000000000853,2887,15,76,90
0.09999999999999432,2888,0,76,36
0.10000000000000853,2888,1,76,127
0.09999999999999432,2888,2,76,80
0.09999999999999432,2888,3,76,105
0.09999999999999432,2888,4,76,12
0.10000000000000853,2888,5,76,100
0.09999999999999432,2888,6,76,12
0.09999999999999432,2888,7,76,126
0.10000000000000853,2888,8,76,11
0.09999999999999432,2888,9,76,10
0.09999999999999432,2888,10,76,82
0.09999999999999432,2888,11,76,10
0.09999999999999432,2888,12,76,127
0.10000000000000853,2888,13,76,14
0.09999999999999432,2888,14,76,13
0.09999999999999432,2888,15,76,98
0.10000000000000853,2889,0,76,12
0.09999999999999432,2889,1,76,125
0.09999999999999432,2889,2,76,13
0.10000000000000853,2889,3,76,7
0.09999999999999432,2889,4,76,80
0.09999999999999432,2889,5,76,12
0.09999999999999432,2889,6,76,127
0.09999999999999432,2889,7,76,14
0.09999999999999432,2889,8,76,11
0.09999999999999432,2889,9,76,93
0.09999999999999432,2889,10,76,11
0.09999999999999432,2889,11,76,122
0.10000000000000853,2889,12,76,12
0.09999999999999432,2889,13,76,12
0.09999999999999432,2889,14,76,78
0.10000000000000853,2889,15,76,12
0.09999999999999432,2890,0,76,125
0.09999999999999432,2890,1,76,16
0.09999999999999432,2890,2,76,12
0.10000000000000853,2890,3,76,96
0.10000000000000853,2890,4,76,10
0.09999999999999432,2890,5,76,124
0.09999999999999432,2890,6,76,14
0.09999999999999432,2890,7,76,11
0.09999999999999432,2890,8,76,76
0.09999999999999432,2890,9,76,12
0.10000000000000853,2890,10,76,127
0.10000000000000853,2890,11,76,14
0.09999999999999432,2890,12,76,13
0.09999999999999432,2890,13,76,97
0.09999999999999432,2890,14,76,11
0.09999999999999432,2890,15,76,124
0.09999999999999432,2891,0,76,13
0.10000000000000853,2891,1,76,12
0.09999999999999432,2891,2,76,78
0.09999999999999432,2891,3,76,12
0.10000000000000853,2891,4,76,86
0.10000000000000853,2891,5,76,9
0.09999999999999432,2891,6,76,7
0.09999999999999432,2891,7,76,113
0.09999999999999432,2891,8,76,8
0.10000000000000853,2891,9,76,5
0.09999999999999432,2891,10,76,93
0.10000000000000853,2891,11,76,7
0.09999999999999432,2891,12,76,6
0.10000000000000853,2891,13,76,79
0.10000000000000853,2891,14,76,8
0.09999999999999432,2891,15,76,5
0.09999999999999432,2892,0,76,90
0.09999999999999432,2892,1,76,7
0.10000000000000853,2892,2,76,6
0.10000000000000853,2892,3,76,104
0.09999999999999432,2892,4,76,9
0.10000000000000853,2892,5,76,7
0.10000000000000853,2892,6,76,92
0.10000000000000853,2892,7,76,8
0.09999999999999432,2892,8,76,6
0.09999999999999432,2892,9,76,112
0.09999999999999432,2892,10,76,102
0.10000000000000853,2892,11,76,85
0.10000000000000853,2892,12,76,8
0.10000000000000853,2892,13,76,6
0.10000000000000853,2892,14,76,77
0.10000000000000853,2892,15,76,8
0.09999999999999432,2893,0,76,4
0.10000000000000853,2893,1,76,68
0.09999999999999432,2893,2,76,8
0.10000000000000853,2893,3,76,5
0.09999999999999432,2893,4,76,73
0.09999999999999432,2893,5,76,7
0.10000000000000853,2893,6,76,4
0.10000000000000853,2893,7,76,89
0.10000000000000853,2893,8,76,8
0.09999999999999432,2893,9,76,7
0.09999999999999432,2893,10,76,118
0.09999999999999432,2893,11,76,9
0.10000000000000853,2893,12,76,5
0.09999999999999432,2893,13,76,92
0.10000000000000853,2893,14,76,8
0.10000000000000853,2893,15,76,7
0.10000000000000853,2894,0,76,93
0.09999999999999432,2894,1,76,9
0.09999999999999432,2894,2,76,5
0.09999999999999432,2894,3,76,84
0.09999999999999432,2894,4,76,6
0.10000000000000853,2894,5,76,4
0.09999999999999432,2894,6,76,105
0.09999999999999432,2894,7,76,8
0.10000000000000853,2894,8,76,5
0.10000000000000853,2894,9,76,92
0.10000000000000853,2894,10,76,7
0.09999999999999432,2894,11,76,5
0.09999999999999432,2894,12,76,93
0.09999999999999432,2894,13,76,9
0.10000000000000853,2894,14,76,6
0.09999999999999432,2894,15,76,92
0.09999999999999432,2895,0,76,8
0.10000000000000853,2895,1,76,6
0.10000000000000853,2895,2,76,115
0.10000000000000853,2895,3,76,9
0.09999999999999432,2895,4,76,4
0.10000000000000853,2895,5,76,91
0.09999999999999432,2895,6,76,7
0.10000000000000853,2895,7,76,6
0.09999999999999432,2895,8,76,70
0.09999999999999432,2895,9,76,7
0.10000000000000853,2895,10,76,5
0.10000000000000853,2895,11,76,92
0.10000000000000853,2895,12,76,7
0.09999999999999432,2895,13,76,7
0.10000000000000853,2895,14,76,110
0.10000000000000853,2895,15,76,8
0.10000000000000853,2896,0,76,4
0.09999999999999432,2896,1,76,91
0.09999999999999432,2896,2,76,7
0.10000000000000853,2896,3,76,6
0.10000000000000853,2896,4,76,95
0.09999999999999432,2896,5,76,10
0.09999999999999432,2896,6,76,5
0.09999999999999432,2896,7,76,90
0.09999999999999432,2896,8,76,7
0.10000000000000853,2896,9,76,5
0.09999999999999432,2896,10,76,105
0.09999999999999432,2896,11,76,7
0.10000000000000853,2896,12,76,5
0.10000000000000853,2896,13,76,72
0.10000000000000853,2896,14,76,8
0.09999999999999432,2896,15,76,6
0.09999999999999432,2897,0,76,75
0.10000000000000853,2897,1,76,9
0.09999999999999432,2897,2,76,5
0.09999999999999432,2897,3,76,94
0.09999999999999432,2897,4,76,6
0.10000000000000853,2897,5,76,6
0.10000000000000853,2897,6,76,114
0.10000000000000853,2897,7,76,9
0.09999999999999432,2897,8,76,5
0.09999999999999432,2897,9,76,90
0.09999999999999432,2897,10,76,9
0.10000000000000853,2897,11,76,7
0.09999999999999432,2897,12,76,81
0.09999999999999432,2897,13,76,9
0.10000000000000853,2897,14,76,4
0.09999999999999432,2897,15,76,86
0.10000000000000853,2898,0,76,8
0.09999999999999432,2898,1,76,4
0.10000000000000853,2898,2,76,102
0.10000000000000853,2898,3,76,9
0.09999999999999432,2898,4,76,5
0.09999999999999432,2898,5,76,94
0.09999999999999432,2898,6,76,7
0.10000000000000853,2898,7,76,6
0.09999999999999432,2898,8,76,100
0.09999999999999432,2898,9,76,8
0.09999999999999432,2898,10,76,5
0.09999999999999432,2898,11,76,98
0.09999999999999432,2898,12,76,7
0.09999999999999432,2898,13,76,5
0.09999999999999432,2898,14,76,106
0.09999999999999432,2898,15,76,8
0.10000000000000853,2899,0,76,5
0.09999999999999432,2899,1,76,91
0.09999999999999432,2899,2,76,7
0.09999999999999432,2899,3,76,4
0.09999999999999432,2899,4,76,95
0.10000000000000853,2899,5,76,5
0.09999999999999432,2899,6,76,5
0.09999999999999432,2899,7,76,90
0.09999999999999432,2899,8,76,8
0.10000000000000853,2899,9,76,7
0.09999999999999432,2899,10,76,107
0.09999999999999432,2899,11,76,7
0.09999999999999432,2899,12,76,5
0.10000000000000853,2899,13,76,99
0.10000000000000853,2899,14,76,7
0.09999999999999432,2899,15,76,6
0.09999999999999432,2900,0,76,79
0.09999999999999432,2900,1,76,8
0.09999999999999432,2900,2,76,7
0.09999999999999432,2900,3,76,88
0.10000000000000853,2900,4,76,7
0.09999999999999432,2900,5,76,5
0.09999999999999432,2900,6,76,90
0.09999999999999432,2900,7,76,89
0.09999999999999432,2900,8,76,97
0.09999999999999432,2900,9,76,86
0.10000000000000853,2900,10,76,92
0.10000000000000853,2900,11,76,124
0.09999999999999432,2900,12,76,89
0.09999999999999432,2900,13,76,26
0.09999999999999432,2900,14,76,79
0.09999999999999432,2900,15,76,23
0.10000000000000853,2901,0,76,5
0.10000000000000853,2901,1,76,88
0.10000000000000853,2901,2,76,22
0.09999999999999432,2901,3,76,3
0.10000000000000853,2901,4,76,121
0.09999999999999432,2901,5,76,22
0.09999999999999432,2901,6,76,3
0.09999999999999432,2901,7,76,94
0.09999999999999432,2901,8,76,18
0.10000000000000853,2901,9,76,3
0.10000000000000853,2901,10,76,109
0.10000000000000853,2901,11,76,21
0.10000000000000853,2901,12,76,3
0.09999999999999432,2901,13,76,94
0.09999999999999432,2901,14,76,20
0.09999999999999432,2901,15,76,3
0.10000000000002274,2902,0,76,96
0.09999999999999432,2902,1,76,22
0.09999999999999432,2902,2,76,1
0.09999999999999432,2902,3,76,94
0.09999999999999432,2902,4,76,22
0.09999999999999432,2902,5,76,4
0.09999999999999432,2902,6,76,112
0.09999999999999432,2902,7,76,20
0.09999999999999432,2902,8,76,3
0.09999999999999432,2902,9,76,75
0.09999999999999432,2902,10,76,22
0.09999999999999432,2902,11,76,4
0.09999999999999432,2902,12,76,108
0.09999999999999432,2902,13,76,21
0.09999999999999432,2902,14,76,3
0.09999999999999432,2902,15,76,95
0.09999999999999432,2903,0,76,21
0.09999999999999432,2903,1,76,4
0.10000000000002274,2903,2,76,116
0.09999999999999432,2903,3,76,20
0.09999999999999432,2903,4,76,3
0.09999999999999432,2903,5,76,79
0.09999999999999432,2903,6,76,85
0.09999999999999432,2903,7,76,5
0.09999999999999432,2903,8,76,111
0.09999999999999432,2903,9,76,21
0.09999999999999432,2903,10,76,3
0.09999999999999432,2903,11,76,83
0.09999999999999432,2903,12,76,21
0.09999999999999432,2903,13,76,3
0.09999999999999432,2903,14,76,110
0.09999999999999432,2903,15,76,20
0.09999999999999432,2904,0,76,4
0.09999999999999432,2904,1,76,102
0.09999999999999432,2904,2,76,20
0.09999999999999432,2904,3,76,3
0.10000000000002274,2904,4,76,117
0.09999999999999432,2904,5,76,22
0.09999999999999432,2904,6,76,5
0.09999999999999432,2904,7,76,93
0.09999999999999432,2904,8,76,20
0.09999999999999432,2904,9,76,3
0.09999999999999432,2904,10,76,109
0.09999999999999432,2904,11,76,20
0.09999999999999432,2904,12,76,3
0.10000000000002274,2904,13,76,73
0.09999999999999432,2904,14,76,21
0.09999999999999432,2904,15,76,3
0.10000000000002274,2905,0,76,106
0.09999999999999432,2905,1,76,19
0.09999999999999432,2905,2,76,3
0.09999999999999432,2905,3,76,101
0.09999999999999432,2905,4,76,18
0.09999999999999432,2905,5,76,4
0.10000000000002274,2905,6,76,110
0.09999999999999432,2905,7,76,19
0.09999999999999432,2905,8,76,3
0.09999999999999432,2905,9,76,100
0.09999999999999432,2905,10,76,15
0.09999999999999432,2905,11,76,3
0.09999999999999432,2905,12,76,122
0.09999999999999432,2905,13,76,15
0.09999999999999432,2905,14,76,2
0.10000000000002274,2905,15,76,39
0.09999999999999432,2906,0,76,77
0.09999999999999432,2906,1,76,7
0.10000000000002274,2906,2,76,117
0.09999999999999432,2906,3,76,97
0.10000000000002274,2906,4,76,114
0.09999999999999432,2906,5,76,12
0.09999999999999432,2906,6,76,4
0.10000000000002274,2906,7,76,83
0.09999999999999432,2906,8,76,15
0.09999999999999432,2906,9,76,4
0.09999999999999432,2906,10,76,103
0.09999999999999432,2906,11,76,12
0.09999999999999432,2906,12,76,3
0.10000000000002274,2906,13,76,96
0.09999999999999432,2906,14,76,11
0.10000000000002274,2906,15,76,118
0.09999999999999432,2907,0,76,13
0.09999999999999432,2907,1,76,3
0.09999999999999432,2907,2,76,91
0.09999999999999432,2907,3,76,16
0.09999999999999432,2907,4,76,5
0.10000000000002274,2907,5,76,117
0.09999999999999432,2907,6,76,14
0.09999999999999432,2907,7,76,3
0.10000000000002274,2907,8,76,91
0.09999999999999432,2907,9,76,15
0.09999999999999432,2907,10,76,3
0.09999999999999432,2907,11,76,102
0.09999999999999432,2907,12,76,16
0.09999999999999432,2907,13,76,4
0.09999999999999432,2907,14,76,101
0.09999999999999432,2907,15,76,14
0.09999999999999432,2908,0,76,3
0.10000000000002274,2908,1,76,108
0.09999999999999432,2908,2,76,16
0.09999999999999432,2908,3,76,9
0.09999999999999432,2908,4,76,101
0.09999999999999432,2908,5,76,14
0.09999999999999432,2908,6,76,6
0.09999999999999432,2908,7,76,71
0.09999999999999432,2908,8,76,14
0.09999999999999432,2908,9,76,6
0.10000000000002274,2908,10,76,98
0.09999999999999432,2908,11,76,10
0.09999999999999432,2908,12,76,5
0.09999999999999432,2908,13,76,64
0.09999999999999432,2908,14,76,14
0.09999999999999432,2908,15,76,5
0.10000000000002274,2909,0,76,77
0.10000000000002274,2909,1,76,68
0.10000000000002274,2909,2,76,112
0.09999999999999432,2909,3,76,116
0.09999999999999432,2909,4,76,29
0.09999999999999432,2909,5,76,91
0.09999999999999432,2909,6,76,23
0.09999999999999432,2909,7,76,13
0.10000000000002274,2909,8,76,123
0.10000000000002274,2909,9,76,17
0.09999999999999432,2909,10,76,8
0.09999999999999432,2909,11,76,89
0.09999999999999432,2909,12,76,19
0.09999999999999432,2909,13,76,6
0.10000000000002274,2909,14,76,106
0.09999999999999432,2909,15,76,17
0.09999999999999432,2910,0,76,7
0.10000000000002274,2910,1,76,95
0.09999999999999432,2910,2,76,18
0.09999999999999432,2910,3,76,5
0.09999999999999432,2910,4,76,107
0.09999999999999432,2910,5,76,16
0.09999999999999432,2910,6,76,6
0.09999999999999432,2910,7,76,87
0.09999999999999432,2910,8,76,15
0.09999999999999432,2910,9,76,5
0.10000000000002274,2910,10,76,103
0.10000000000002274,2910,11,76,15
0.09999999999999432,2910,12,76,6
0.09999999999999432,2910,13,76,90
0.09999999999999432,2910,14,76,16
0.09999999999999432,2910,15,76,6
0.09999999999999432,2911,0,76,64
0.09999999999999432,2911,1,76,15
0.09999999999999432,2911,2,76,6
0.09999999999999432,2911,3,76,80
0.09999999999999432,2911,4,76,15
0.09999999999999432,2911,5,76,5
0.09999999999999432,2911,6,76,123
0.09999999999999432,2911,7,76,16
0.09999999999999432,2911,8,76,6
0.09999999999999432,2911,9,76,85
0.09999999999999432,2911,10,76,15
0.09999999999999432,2911,11,76,5
0.10000000000002274,2911,12,76,112
0.09999999999999432,2911,13,76,47
0.10000000000002274,2911,14,76,19
0.09999999999999432,2911,15,76,5
0.09999999999999432,2912,0,76,88
0.09999999999999432,2912,1,76,15
0.09999999999999432,2912,2,76,6
0.09999999999999432,2912,3,76,102
0.09999999999999432,2912,4,76,14
0.09999999999999432,2912,5,76,3
0.09999999999999432,2912,6,76,94
0.10000000000002274,2912,7,76,16
0.09999999999999432,2912,8,76,5
0.09999999999999432,2912,9,76,120
0.10000000000002274,2912,10,76,16
0.09999999999999432,2912,11,76,5
0.09999999999999432,2912,12,76,96
0.09999999999999432,2912,13,76,16
0.09999999999999432,2912,14,76,5
0.10000000000002274,2912,15,76,115
0.10000000000002274,2913,0,76,15
0.09999999999999432,2913,1,76,6
0.09999999999999432,2913,2,76,86
0.09999999999999432,2913,3,76,15
0.09999999999999432,2913,4,76,5
0.09999999999999432,2913,5,76,101
0.09999999999999432,2913,6,76,15
0.09999999999999432,2913,7,76,6
0.09999999999999432,2913,8,76,94
0.10000000000002274,2913,9,76,9
0.09999999999999432,2913,10,76,6
0.09999999999999432,2913,11,76,114
0.10000000000002274,2913,12,76,14
0.09999999999999432,2913,13,76,6
0.09999999999999432,2913,14,76,91
0.09999999999999432,2913,15,76,15
0.09999999999999432,2914,0,76,5
0.10000000000002274,2914,1,76,125
0.10000000000002274,2914,2,76,15
0.09999999999999432,2914,3,76,6
0.09999999999999432,2914,4,76,77
0.09999999999999432,2914,5,76,14
0.09999999999999432,2914,6,76,6
0.09999999999999432,2914,7,76,98
0.09999999999999432,2914,8,76,7
0.09999999999999432,2914,9,76,6
0.09999999999999432,2914,10,76,86
0.09999999999999999,2914,11,59,12
0.09999999999999998,2914,12,59,11
0.09999999999999998,2914,13,59,31
0.09999999999999987,2914,14,59,34
0.09999999999999987,2914,15,59,20
0.10000000000000009,2915,0,59,18
0.09999999999999987,2915,1,59,13
0.09999999999999987,2915,2,59,36
0.09999999999999964,2915,3,59,36
0.09999999999999964,2915,4,59,23
0.09999999999999964,2915,5,59,32
0.10000000000000009,2915,6,59,34
0.10000000000000009,2915,7,59,18
0.09999999999999964,2915,8,59,17
0.09999999999999964,2915,9,59,25
0.09999999999999964,2915,10,59,42
0.09999999999999964,2915,11,59,31
0.09999999999999964,2915,12,59,35
0.10000000000000053,2915,13,59,15
0.09999999999999964,2915,14,59,21
0.09999999999999964,2915,15,59,12
0.09999999999999964,2916,0,59,27
0.09999999999999964,2916,1,59,27
0.10000000000000053,2916,2,59,34
0.09999999999999964,2916,3,59,21
0.09999999999999964,2916,4,59,24
0.06818181818181746,2916,5,59,30
0.09999999999999964,2916,6,59,32
0.09999999999999964,2916,7,59,43
0.09999999999999964,2916,8,59,12
0.09999999999999964,2916,9,59,17
0.06590909090908958,2916,10,59,24
0.09999999999999964,2916,11,59,28
0.09999999999999964,2916,12,59,38
0.10000000000000142,2916,13,59,35
0.09999999999999964,2916,14,59,47
0.09999999999999964,2916,15,59,21
0.10000000000000142,2917,0,59,16
0.09999999999999964,2917,1,59,29
0.09999999999999964,2917,2,59,38
0.10000000000000142,2917,3,59,19
0.06818181818181834,2917,4,59,16
0.09999999999999964,2917,5,59,38
0.10000000000000142,2917,6,59,38
0.09999999999999964,2917,7,59,27
0.10000000000000142,2917,8,59,34
0.09999999999999964,2917,9,59,19
0.10000000000000142,2917,10,59,14
0.09999999999999964,2917,11,59,24
0.09999999999999964,2917,12,59,27
0.09999999999999964,2917,13,59,35
0.09999999999999964,2917,14,59,28
0.06818181818181657,2917,15,59,26
0.09999999999999964,2918,0,59,32
0.09999999999999964,2918,1,59,32
0.09999999999999964,2918,2,59,13
0.09999999999999964,2918,3,59,21
0.10000000000000142,2918,4,59,34
0.10000000000000142,2918,5,59,23
0.10000000000000142,2918,6,59,33
0.10000000000000142,2918,7,59,39
0.10000000000000142,2918,8,59,19
0.09999999999999787,2918,9,59,15
0.10000000000000142,2918,10,59,23
0.09999999999999787,2918,11,59,44
0.10000000000000142,2918,12,59,26
0.09999999999999787,2918,13,59,34
0.09999999999999787,2918,14,59,31
0.09999999999999787,2918,15,59,38
0.10000000000000142,2919,0,59,29
0.10000000000000142,2919,1,59,21
0.10000000000000142,2919,2,59,33
0.10000000000000142,2919,3,59,23
0.10000000000000142,2919,4,59,32
0.10000000000000142,2919,5,59,21
0.10000000000000142,2919,6,59,32
0.10000000000000142,2919,7,59,16
0.09999999999999787,2919,8,59,27
0.10000000000000142,2919,9,59,26
0.10000000000000142,2919,10,59,30
0.10000000000000142,2919,11,59,23
0.10000000000000142,2919,12,59,32
0.10000000000000142,2919,13,59,33
0.10000000000000142,2919,14,59,31
0.09999999999999787,2919,15,59,28
0.10000000000000142,2920,0,59,34
0.09999999999999787,2920,1,59,24
0.09999999999999787,2920,2,59,19
0.10000000000000142,2920,3,59,21
0.10000000000000142,2920,4,59,33
0.10000000000000142,2920,5,59,19
0.10000000000000142,2920,6,59,23
0.10000000000000142,2920,7,59,25
0.10000000000000142,2920,8,59,17
0.10000000000000142,2920,9,59,14
0.10000000000000142,2920,10,59,22
0.10000000000000142,2920,11,59,32
0.09999999999999432,2920,12,59,25
0.10000000000000142,2920,13,59,23
0.10000000000000142,2920,14,59,28
0.10000000000000142,2920,15,59,20
0.10000000000000142,2921,0,59,18
0.10000000000000142,2921,1,59,20
0.10000000000000142,2921,2,59,29
0.10000000000000142,2921,3,59,18
0.10000000000000142,2921,4,59,26
0.10000000000000142,2921,5,59,31
0.10000000000000142,2921,6,59,21
0.10000000000000142,2921,7,59,18
0.10000000000000142,2921,8,59,20
0.09999999999999432,2921,9,59,41
0.10000000000000142,2921,10,59,23
0.09999999999999432,2921,11,59,21
0.10000000000000142,2921,12,59,32
0.09999999999999432,2921,13,59,21
0.10000000000000142,2921,14,59,19
0.09999999999999432,2921,15,59,11
0.10000000000000142,2922,0,59,30
0.10000000000000142,2922,1,59,35
0.09999999999999432,2922,2,59,39
0.10000000000000142,2922,3,59,34
0.09999999999999432,2922,4,59,26
0.10000000000000142,2922,5,59,30
0.10000000000000142,2922,6,59,22
0.10000000000000142,2922,7,59,29
0.10000000000000142,2922,8,59,40
0.10000000000000142,2922,9,59,28
0.10000000000000142,2922,10,59,31
0.10000000000000142,2922,11,59,28
0.10000000000000142,2922,12,59,23
0.10000000000000142,2922,13,59,24
0.10000000000000142,2922,14,59,9
0.10000000000000142,2922,15,59,19
0.06818181818182012,2923,0,59,27
0.10000000000000142,2923,1,59,24
0.10000000000000142,2923,2,59,35
0.10000000000000142,2923,3,59,25
0.10000000000000142,2923,4,59,31
0.10000000000000142,2923,5,59,26
0.10000000000000142,2923,6,59,21
0.09999999999999432,2923,7,59,40
0.10000000000000142,2923,8,59,33
0.10000000000000142,2923,9,59,20
0.10000000000000142,2923,10,59,18
0.10000000000000142,2923,11,59,20
0.10000000000000142,2923,12,59,15
0.09999999999999432,2923,13,59,22
0.10000000000000142,2923,14,59,20
0.09999999999999432,2923,15,59,24
0.10000000000000142,2924,0,59,15
0.10000000000000142,2924,1,59,16
0.10000000000000142,2924,2,59,24
0.10000000000000142,2924,3,59,24
0.10000000000000142,2924,4,59,25
0.09999999999999432,2924,5,59,27
0.10000000000000142,2924,6,59,20
0.10000000000000142,2924,7,59,18
0.10000000000000142,2924,8,59,21
0.10000000000000142,2924,9,59,28
0.10000000000000142,2924,10,59,8
0.09999999999999432,2924,11,59,14
0.09999999999999432,2924,12,59,12
0.09999999999999432,2924,13,59,21
0.10000000000000142,2924,14,59,29
0.10000000000000142,2924,15,59,37
0.10000000000000142,2925,0,59,28
0.10000000000000142,2925,1,59,34
0.10000000000000142,2925,2,59,24
0.10000000000000142,2925,3,59,33
0.10000000000000142,2925,4,59,48
0.10000000000000142,2925,5,59,47
0.10000000000000142,2925,6,59,38
0.10000000000000142,2925,7,59,36
0.10000000000000142,2925,8,59,44
0.10000000000000142,2925,9,59,44
0.09999999999999432,2925,10,59,33
0.10000000000000142,2925,11,59,31
0.10000000000000142,2925,12,59,40
0.10000000000000142,2925,13,59,37
0.10000000000000142,2925,14,59,32
0.09999999999999432,2925,15,59,30
0.10000000000000142,2926,0,59,39
0.09999999999999432,2926,1,59,41
0.09999999999999432,2926,2,59,40
0.10000000000000853,2926,3,59,35
0.10000000000000853,2926,4,59,35
0.10000000000000853,2926,5,59,39
0.10000000000000853,2926,6,59,38
0.09999999999999432,2926,7,59,33
0.09999999999999432,2926,8,59,42
0.09999999999999432,2926,9,59,41
0.09999999999999432,2926,10,59,36
0.09999999999999432,2926,11,59,33
0.09999999999999432,2926,12,59,38
0.09999999999999432,2926,13,59,31
0.09999999999999432,2926,14,59,35
0.10000000000000853,2926,15,59,36
0.10000000000000853,2927,0,59,36
0.10000000000000853,2927,1,59,37
0.10000000000000853,2927,2,59,35
0.10000000000000853,2927,3,59,40
0.10000000000000853,2927,4,59,55
0.10000000000000853,2927,5,59,57
0.09999999999999432,2927,6,59,37
0.09999999999999432,2927,7,59,42
0.09999999999999432,2927,8,59,39
0.09999999999999432,2927,9,59,38
0.10000000000000853,2927,10,59,40
0.09999999999999432,2927,11,59,47
0.10000000000000853,2927,12,59,43
0.10000000000000853,2927,13,59,32
0.09999999999999432,2927,14,59,33
0.09999999999999432,2927,15,59,34
0.09999999999999432,2928,0,59,50
0.10000000000000853,2928,1,59,40
0.09999999999999432,2928,2,59,37
0.09999999999999432,2928,3,59,43
0.09999999999999432,2928,4,59,41
0.09999999999999432,2928,5,59,48
0.09999999999999432,2928,6,59,26
0.09999999999999432,2928,7,59,37
0.10000000000000853,2928,8,59,30
0.10000000000000853,2928,9,59,40
0.09999999999999432,2928,10,59,36
0.09999999999999432,2928,11,59,32
0.09999999999999432,2928,12,59,49
0.10000000000000853,2928,13,59,26
0.09999999999999432,2928,14,59,15
0.10000000000000853,2928,15,59,22
0.10000000000000853,2929,0,59,23
0.10000000000000853,2929,1,59,28
0.10000000000000853,2929,2,59,22
0.10000000000000853,2929,3,59,27
0.09999999999999432,2929,4,59,34
0.09999999999999432,2929,5,59,18
0.10000000000000853,2929,6,59,29
0.09999999999999432,2929,7,59,22
0.10000000000000853,2929,8,59,16
0.09999999999999432,2929,9,59,14
0.09999999999999432,2929,10,59,32
0.09999999999999432,2929,11,59,25
0.09999999999999432,2929,12,59,24
0.09999999999999432,2929,13,59,34
0.09999999999999432,2929,14,59,17
0.09999999999999432,2929,15,59,35
0.10000000000000853,2930,0,59,19
0.09999999999999432,2930,1,59,25
0.10000000000000853,2930,2,59,18
0.09999999999999432,2930,3,59,18
0.10000000000000853,2930,4,59,29
0.09999999999999432,2930,5,59,21
0.09999999999999432,2930,6,59,21
0.09999999999999432,2930,7,59,31
0.10000000000000853,2930,8,59,19
0.09999999999999432,2930,9,59,16
0.09999999999999432,2930,10,59,24
0.09999999999999432,2930,11,59,28
0.09999999999999432,2930,12,59,23
0.09999999999999432,2930,13,59,15
0.09999999999999432,2930,14,59,15
0.10000000000000853,2930,15,59,27
0.10000000000000853,2931,0,59,23
0.09999999999999432,2931,1,59,26
0.09999999999999432,2931,2,59,30
0.10000000000000853,2931,3,59,22
0.09999999999999432,2931,4,59,28
0.09999999999999432,2931,5,59,20
0.09999999999999432,2931,6,59,16
0.10000000000000853,2931,7,59,28
0.10000000000000853,2931,8,59,18
0.09999999999999432,2931,9,59,13
0.10000000000000853,2931,10,59,26
0.10000000000000853,2931,11,59,22
0.10000000000000853,2931,12,59,22
0.10000000000000853,2931,13,59,25
0.09999999999999432,2931,14,59,25
0.09999999999999432,2931,15,59,30
0.10000000000000853,2932,0,59,23
0.10000000000000853,2932,1,59,23
0.09999999999999432,2932,2,59,27
0.09999999999999432,2932,3,59,32
0.09999999999999432,2932,4,59,21
0.10000000000000853,2932,5,59,19
0.09999999999999432,2932,6,59,23
0.10000000000000853,2932,7,59,22
0.09999999999999432,2932,8,59,26
0.09999999999999432,2932,9,59,22
0.09999999999999432,2932,10,59,21
0.10000000000000853,2932,11,59,20
0.09999999999999432,2932,12,59,24
0.10000000000000853,2932,13,59,29
0.09999999999999432,2932,14,59,29
0.09999999999999432,2932,15,59,24
0.10000000000000853,2933,0,59,23
0.09999999999999432,2933,1,59,27
0.10000000000000853,2933,2,59,26
0.10000000000000853,2933,3,59,21
0.10000000000000853,2933,4,59,28
0.09999999999999432,2933,5,59,30
0.09999999999999432,2933,6,59,28
0.10000000000000853,2933,7,59,29
0.10000000000000853,2933,8,59,19
0.09999999999999432,2933,9,59,26
0.10000000000000853,2933,10,59,30
0.09999999999999432,2933,11,59,36
0.10000000000000853,2933,12,59,31
0.10000000000000853,2933,13,59,28
0.10000000000000853,2933,14,59,22
0.09999999999999432,2933,15,59,32
0.10000000000000853,2934,0,59,24
0.09999999999999432,2934,1,59,18
0.10000000000000853,2934,2,59,22
0.09999999999999432,2934,3,59,25
0.10000000000000853,2934,4,59,27
0.09999999999999432,2934,5,59,24
0.09999999999999432,2934,6,59,24
0.09999999999999432,2934,7,59,27
0.09999999999999432,2934,8,59,26
0.09999999999999432,2934,9,59,20
0.09999999999999432,2934,10,59,20
0.10000000000000853,2934,11,59,23
0.09999999999999432,2934,12,59,24
0.09999999999999432,2934,13,59,24
0.09999999999999432,2934,14,59,22
0.10000000000000853,2934,15,59,25
0.09999999999999432,2935,0,59,24
0.10000000000000853,2935,1,59,24
0.10000000000000853,2935,2,59,27
0.09999999999999432,2935,3,59,40
0.09999999999999432,2935,4,59,30
0.10000000000000853,2935,5,59,31
0.09999999999999432,2935,6,59,32
0.10000000000000853,2935,7,59,35
0.09999999999999432,2935,8,59,40
0.10000000000000853,2935,9,59,32
0.09999999999999432,2935,10,59,32
0.09999999999999432,2935,11,59,51
0.09999999999999432,2935,12,59,42
0.09999999999999432,2935,13,59,31
0.09999999999999432,2935,14,59,36
0.09999999999999432,2935,15,59,36
0.10000000000000853,2936,0,59,40
0.09999999999999432,2936,1,59,31
0.09999999999999432,2936,2,59,33
0.09999999999999432,2936,3,59,34
0.09999999999999432,2936,4,59,39
0.09999999999999432,2936,5,59,33
0.09999999999999432,2936,6,59,19
0.09999999999999432,2936,7,59,16
0.09999999999999432,2936,8,59,15
0.10000000000000853,2936,9,59,11
0.10000000000000853,2936,10,59,16
0.10000000000000853,2936,11,59,14
0.09999999999999432,2936,12,59,12
0.09999999999999432,2936,13,59,13
0.09999999999999432,2936,14,59,19
0.09999999999999432,2936,15,59,17
0.10000000000000853,2937,0,59,21
0.09999999999999432,2937,1,59,9
0.10000000000000853,2937,2,59,20
0.09999999999999432,2937,3,59,41
0.10000000000000853,2937,4,59,41
0.10000000000000853,2937,5,59,33
0.09999999999999432,2937,6,59,37
0.09999999999999432,2937,7,59,30
0.10000000000000853,2937,8,59,34
0.10000000000000853,2937,9,59,39
0.09999999999999432,2937,10,59,33
0.09999999999999432,2937,11,59,33
0.09999999999999432,2937,12,59,29
0.10000000000000853,2937,13,59,44
0.09999999999999432,2937,14,59,57
0.10000000000002274,2937,15,59,36
0.09999999999999432,2938,0,59,38
0.09999999999999432,2938,1,59,36
0.09999999999999432,2938,2,59,42
0.10000000000002274,2938,3,59,30
0.09999999999999432,2938,4,59,36
0.09999999999999432,2938,5,59,40
0.09999999999999432,2938,6,59,30
0.09999999999999432,2938,7,59,37
0.09999999999999432,2938,8,59,35
0.09999999999999432,2938,9,59,29
0.10000000000002274,2938,10,59,43
0.09999999999999432,2938,11,59,44
0.09999999999999432,2938,12,59,40
0.09999999999999432,2938,13,59,39
0.09999999999999432,2938,14,59,36
0.09999999999999432,2938,15,59,35
0.09999999999999432,2939,0,59,31
0.09999999999999432,2939,1,59,36
0.10000000000002274,2939,2,59,43
0.10000000000002274,2939,3,59,52
0.09999999999999432,2939,4,59,45
0.09999999999999432,2939,5,59,35
0.10000000000002274,2939,6,59,36
0.09999999999999432,2939,7,59,32
0.09999999999999432,2939,8,59,42
0.09999999999999432,2939,9,59,35
0.09999999999999432,2939,10,59,41
0.09999999999999432,2939,11,59,27
0.09999999999999432,2939,12,59,36
0.09999999999999432,2939,13,59,44
0.09999999999999432,2939,14,59,48
0.09999999999999432,2939,15,59,41
0.09999999999999432,2940,0,59,40
0.09999999999999432,2940,1,59,43
0.09999999999999432,2940,2,59,50
0.09999999999999432,2940,3,59,39
0.09999999999999432,2940,4,59,25
0.10000000000002274,2940,5,59,37
0.09999999999999432,2940,6,59,35
0.09999999999999432,2940,7,59,36
0.09999999999999432,2940,8,59,36
0.10000000000002274,2940,9,59,40
0.10000000000002274,2940,10,59,56
0.09999999999999432,2940,11,59,42
0.09999999999999432,2940,12,59,47
0.09999999999999432,2940,13,59,43
0.09999999999999432,2940,14,59,34
0.09999999999999432,2940,15,59,39
0.09999999999999432,2941,0,59,37
0.09999999999999432,2941,1,59,35
0.09999999999999432,2941,2,59,31
0.10000000000002274,2941,3,59,41
0.09999999999999432,2941,4,59,29
0.10000000000002274,2941,5,59,31
0.09999999999999432,2941,6,59,36
0.09999999999999432,2941,7,59,47
0.09999999999999432,2941,8,59,50
0.09999999999999432,2941,9,59,56
0.09999999999999432,2941,10,59,45
0.09999999999999432,2941,11,59,43
0.09999999999999432,2941,12,59,31
0.09999999999999432,2941,13,59,48
0.09999999999999432,2941,14,59,39
0.09999999999999432,2941,15,59,35
0.10000000000002274,2942,0,59,58
0.09999999999999432,2942,1,59,26
0.09999999999999432,2942,2,59,37
0.09999999999999432,2942,3,59,32
0.09999999999999432,2942,4,59,49
0.10000000000002274,2942,5,59,47
0.09999999999999432,2942,6,59,30
0.09999999999999432,2942,7,59,35
0.10000000000002274,2942,8,59,40
0.10000000000002274,2942,9,59,36
0.09999999999999432,2942,10,59,38
0.10000000000002274,2942,11,59,36
0.09999999999999432,2942,12,59,39
0.09999999999999432,2942,13,59,33
0.10000000000002274,2942,14,59,38
0.09999999999999432,2942,15,59,45
0.09999999999999432,2943,0,59,47
0.10000000000002274,2943,1,59,33
0.09999999999999432,2943,2,59,35
0.10000000000002274,2943,3,59,33
0.09999999999999432,2943,4,59,33
0.10000000000002274,2943,5,59,35
0.09999999999999432,2943,6,59,34
0.09999999999999432,2943,7,59,39
0.10000000000002274,2943,8,59,39
0.10000000000002274,2943,9,59,38
0.09999999999999432,2943,10,59,22
0.10000000000002274,2943,11,59,24
0.09999999999999432,2943,12,59,49
0.09999999999999432,2943,13,59,37
0.10000000000002274,2943,14,59,31
0.09999999999999787,2943,15,59,23
0.09999999999999787,2944,0,59,28
0.09999999999999787,2944,1,59,29
0.10000000000000142,2944,2,59,17
0.10000000000002274,2944,3,59,29
0.09999999999999432,2944,4,59,36
0.09999999999999432,2944,5,59,46
0.10000000000002274,2944,6,59,42
0.10000000000002274,2944,7,59,36
0.09999999999999432,2944,8,59,26
0.10000000000002274,2944,9,59,39
0.10000000000002274,2944,10,59,46
0.09999999999999432,2944,11,59,41
0.09999999999999432,2944,12,59,52
0.09999999999999432,2944,13,59,57
0.09999999999999432,2944,14,59,17
0.09999999999999432,2944,15,59,21
0.10000000000002274,2945,0,59,44
0.09999999999999432,2945,1,59,37
0.10000000000002274,2945,2,59,26
0.09999999999999432,2945,3,59,31
0.09999999999999432,2945,4,59,57
0.1,2945,5,71,15
0.09999999999999998,2945,6,71,56
0.10000000000000003,2945,7,71,115
0.09999999999999998,2945,8,71,94
0.10000000000000009,2945,9,71,102
0.10000000000000009,2945,10,71,81
0.09999999999999987,2945,11,71,83
0.10000000000000009,2945,12,71,103
0.10000000000000009,2945,13,71,79
0.10000000000000009,2945,14,71,103
0.09999999999999964,2945,15,71,71
0.10000000000000009,2946,0,71,98
0.10000000000000009,2946,1,71,94
0.10000000000000009,2946,2,71,97
0.10000000000000009,2946,3,71,78
0.09999999999999964,2946,4,71,89
0.10000000000000053,2946,5,71,34
0.09999999999999964,2946,6,71,83
0.03409090909090917,2946,7,71,109
0.09999999999999964,2946,8,71,74
0.09999999999999964,2946,9,71,117
0.09999999999999964,2946,10,71,103
0.09999999999999964,2946,11,71,103
0.10000000000000053,2946,12,71,126
0.09999999999999964,2946,13,71,79
0.09999999999999964,2946,14,71,62
0.09999999999999964,2946,15,71,67
0.09999999999999964,2947,0,71,31
0.09999999999999964,2947,1,71,85
0.09999999999999964,2947,2,71,74
0.09999999999999964,2947,3,71,116
0.09999999999999964,2947,4,71,42
0.05681818181818166,2947,5,71,88
0.025000000000000355,2947,6,71,89
0.09999999999999964,2947,7,71,107
0.09999999999999964,2947,8,71,103
0.09999999999999964,2947,9,71,90
0.09999999999999964,2947,10,71,70
0.10000000000000142,2947,11,71,78
0.10000000000000142,2947,12,71,39
0.10000000000000142,2947,13,71,104
0.09999999999999964,2947,14,71,108
0.10000000000000142,2947,15,71,102
0.09999999999999964,2948,0,71,79
0.10000000000000142,2948,1,71,69
0.09999999999999964,2948,2,71,103
0.09999999999999964,2948,3,71,52
0.10000000000000142,2948,4,71,88
0.04772727272727373,2948,5,71,110
0.10000000000000142,2948,6,71,68
0.10000000000000142,2948,7,71,39
0.10000000000000142,2948,8,71,102
0.059090909090910415,2948,9,71,127
0.09999999999999964,2948,10,71,112
0.09999999999999964,2948,11,71,71
0.09999999999999964,2948,12,71,31
0.002272727272726982,2948,13,71,43
0.05681818181818166,2948,14,71,64
0.09999999999999964,2948,15,71,70
0.09999999999999964,2949,0,71,25
0.10000000000000142,2949,1,71,13
0.09999999999999964,2949,2,71,86
0.09999999999999964,2949,3,71,102
0.09999999999999964,2949,4,71,106
0.10000000000000142,2949,5,71,117
0.09999999999999787,2949,6,71,83
0.10000000000000142,2949,7,71,86
0.10000000000000142,2949,8,71,82
0.09999999999999787,2949,9,71,90
0.10000000000000142,2949,10,71,65
0.05909090909090864,2949,11,71,81
0.09999999999999787,2949,12,71,71
0.10000000000000142,2949,13,71,78
0.09999999999999787,2949,14,71,71
0.10000000000000142,2949,15,71,127
0.10000000000000142,2950,0,71,45
0.09999999999999787,2950,1,71,66
0.045454545454543194,2950,2,71,120
0.10000000000000142,2950,3,71,102
0.10000000000000142,2950,4,71,106
0.10000000000000142,2950,5,71,104
0.09999999999999787,2950,6,71,38
0.10000000000000142,2950,7,71,70
0.10000000000000142,2950,8,71,95
0.09999999999999787,2950,9,71,56
0.09999999999999787,2950,10,71,112
0.10000000000000142,2950,11,71,24
0.09999999999999787,2950,12,71,88
0.10000000000000142,2950,13,71,109
0.09999999999999787,2950,14,71,127
0.10000000000000142,2950,15,71,125
0.10000000000000142,2951,0,71,60
0.05681818181818343,2951,1,71,79
0.10000000000000142,2951,2,71,127
0.10000000000000142,2951,3,71,127
0.09999999999999787,2951,4,71,99
0.0022727272727252057,2951,5,71,41
0.09999999999999787,2951,6,71,92
0.10000000000000142,2951,7,71,108
0.09999999999999787,2951,8,71,70
0.09999999999999787,2951,9,71,102
0.09999999999999787,2951,10,71,111
0.10000000000000142,2951,11,71,3
0.09999999999999787,2951,12,71,96
0.10000000000000142,2951,13,71,127
0.10000000000000142,2951,14,71,127
0.09999999999999787,2951,15,71,79
0.10000000000000142,2952,0,71,45
0.10000000000000142,2952,1,71,81
0.09999999999999787,2952,2,71,84
0.10000000000000142,2952,3,71,112
0.10000000000000142,2952,4,71,88
0.10000000000000142,2952,5,71,114
0.10000000000000142,2952,6,71,113
0.10000000000000142,2952,7,71,69
0.09999999999999787,2952,8,71,105
0.10000000000000142,2952,9,71,89
0.03636363636363882,2952,10,71,91
0.10000000000000142,2952,11,71,70
0.10000000000000142,2952,12,71,47
0.004545454545457517,2952,13,71,112
0.10000000000000142,2952,14,71,112
0.004545454545457517,2952,15,71,73
0.09999999999999432,2953,0,71,37
0.09999999999999432,2953,1,71,98
0.10000000000000142,2953,2,71,101
0.10000000000000142,2953,3,71,86
0.10000000000000142,2953,4,71,118
0.10000000000000142,2953,5,71,127
0.10000000000000142,2953,6,71,105
0.09999999999999432,2953,7,71,33
0.10000000000000142,2953,8,71,56
0.06818181818182012,2953,9,71,56
0.01590909090909065,2953,10,71,68
0.10000000000000142,2953,11,71,94
0.10000000000000142,2953,12,71,32
0.056818181818186986,2953,13,71,51
0.10000000000000142,2953,14,71,113
0.09999999999999432,2953,15,71,117
0.10000000000000142,2954,0,71,112
0.10000000000000142,2954,1,71,9
0.10000000000000142,2954,2,71,63
0.10000000000000142,2954,3,71,109
0.10000000000000142,2954,4,71,115
0.10000000000000142,2954,5,71,116
0.10000000000000142,2954,6,71,115
0.10000000000000142,2954,7,71,121
0.10000000000000142,2954,8,71,67
0.10000000000000142,2954,9,71,93
0.09999999999999432,2954,10,71,59
0.10000000000000142,2954,11,71,96
0.10000000000000142,2954,12,71,45
0.10000000000000142,2954,13,71,71
0.10000000000000142,2954,14,71,94
0.09999999999999432,2954,15,71,124
0.09999999999999432,2955,0,71,127
0.10000000000000142,2955,1,71,38
0.10000000000000142,2955,2,71,17
0.10000000000000142,2955,3,71,76
0.02499999999999858,2955,4,71,109
0.10000000000000142,2955,5,71,72
0.10000000000000142,2955,6,71,89
0.10000000000000142,2955,7,71,90
0.10000000000000142,2955,8,71,127
0.10000000000000142,2955,9,71,79
0.09999999999999432,2955,10,71,127
0.10000000000000142,2955,11,71,105
0.10000000000000142,2955,12,71,104
0.10000000000000142,2955,13,71,89
0.10000000000000142,2955,14,71,46
0.10000000000000142,2955,15,71,73
0.10000000000000142,2956,0,71,108
0.10000000000000142,2956,1,71,92
0.10000000000000142,2956,2,71,127
0.09999999999999432,2956,3,71,127
0.10000000000000142,2956,4,71,127
0.10000000000000142,2956,5,71,75
0.10000000000000142,2956,6,71,12
0.10000000000000142,2956,7,71,69
0.10000000000000142,2956,8,71,100
0.10000000000000142,2956,9,71,121
0.10000000000000142,2956,10,71,82
0.09999999999999432,2956,11,71,127
0.10000000000000142,2956,12,71,114
0.10000000000000142,2956,13,71,127
0.10000000000000142,2956,14,71,35
0.10000000000000142,2956,15,71,14
0.10000000000000142,2957,0,71,95
0.10000000000000142,2957,1,71,116
0.10000000000000142,2957,2,71,126
0.10000000000000142,2957,3,71,97
0.09999999999999432,2957,4,71,97
0.10000000000000142,2957,5,71,95
0.05909090909091219,2957,6,71,94
0.10000000000000142,2957,7,71,118
0.10000000000000142,2957,8,71,40
0.09999999999999432,2957,9,71,82
0.10000000000000142,2957,10,71,114
0.10000000000000142,2957,11,71,126
0.10000000000000142,2957,12,71,127
0.10000000000000142,2957,13,71,125
0.10000000000000142,2957,14,71,93
0.10000000000000142,2957,15,71,43
0.10000000000000142,2958,0,71,124
0.09999999999999432,2958,1,71,102
0.004545454545450411,2958,2,71,81
0.10000000000000142,2958,3,71,122
0.10000000000000142,2958,4,71,108
0.10000000000000142,2958,5,71,96
0.10000000000000142,2958,6,71,28
0.09999999999999432,2958,7,71,63
0.09999999999999432,2958,8,71,91
0.10000000000000142,2958,9,71,90
0.10000000000000142,2958,10,71,106
0.10000000000000142,2958,11,71,97
0.09999999999999432,2958,12,71,98
0.10000000000000142,2958,13,71,31
0.10000000000000142,2958,14,71,93
0.09999999999999432,2958,15,71,104
0.10000000000000142,2959,0,71,63
0.004545454545457517,2959,1,71,86
0.10000000000000142,2959,2,71,81
0.10000000000000142,2959,3,71,80
0.10000000000000142,2959,4,71,45
0.10000000000000142,2959,5,71,101
0.09999999999999432,2959,6,71,82
0.09999999999999432,2959,7,71,96
0.09999999999999432,2959,8,71,94
0.09999999999999432,2959,9,71,112
0.09999999999999432,2959,10,71,78
0.09999999999999432,2959,11,71,72
0.10000000000000853,2959,12,71,106
0.09999999999999432,2959,13,71,108
0.10000000000000853,2959,14,71,82
0.09999999999999432,2959,15,71,109
0.09999999999999432,2960,0,71,86
0.10000000000000853,2960,1,71,17
0.09999999999999432,2960,2,71,101
0.10000000000000853,2960,3,71,90
0.09999999999999432,2960,4,71,102
0.09999999999999432,2960,5,71,86
0.09999999999999432,2960,6,71,38
0.09999999999999432,2960,7,71,86
0.09999999999999432,2960,8,71,94
0.10000000000000853,2960,9,71,105
0.09999999999999432,2960,10,71,64
0.06818181818181301,2960,11,71,87
0.10000000000000853,2960,12,71,26
0.10000000000000853,2960,13,71,81
0.09999999999999432,2960,14,71,62
0.09999999999999432,2960,15,71,105
0.09999999999999432,2961,0,71,125
0.09999999999999432,2961,1,71,33
0.025000000000005684,2961,2,71,44
0.10000000000000853,2961,3,71,70
0.10000000000000853,2961,4,71,103
0.10000000000000853,2961,5,71,88
0.09999999999999432,2961,6,71,78
0.10000000000000853,2961,7,71,82
0.10000000000000853,2961,8,71,101
0.10000000000000853,2961,9,71,110
0.09999999999999432,2961,10,71,108
0.09999999999999432,2961,11,71,71
0.09999999999999432,2961,12,71,119
0.09999999999999432,2961,13,71,111
0.09999999999999432,2961,14,71,109
0.10000000000000853,2961,15,71,43
0.09999999999999432,2962,0,71,92
0.09999999999999432,2962,1,71,83
0.09999999999999432,2962,2,71,101
0.09999999999999432,2962,3,71,96
0.09999999999999432,2962,4,71,79
0.10000000000000853,2962,5,71,98
0.056818181818186986,2962,6,71,113
0.09999999999999432,2962,7,71,103
0.10000000000000853,2962,8,71,89
0.09999999999999432,2962,9,71,39
0.09999999999999432,2962,10,71,72
0.056818181818172775,2962,11,71,96
0.10000000000000853,2962,12,71,91
0.09999999999999432,2962,13,71,99
0.10000000000000853,2962,14,71,82
0.09999999999999432,2962,15,71,93
0.09999999999999432,2963,0,71,80
0.10000000000000853,2963,1,71,93
0.09999999999999432,2963,2,71,99
0.09999999999999432,2963,3,71,44
0.09999999999999432,2963,4,71,91
0.10000000000000853,2963,5,71,96
0.09999999999999432,2963,6,71,95
0.09999999999999432,2963,7,71,82
0.10000000000000853,2963,8,71,89
0.04772727272727195,2963,9,71,104
0.09999999999999432,2963,10,71,96
0.09999999999999432,2963,11,71,86
0.013636363636351234,2963,12,71,32
0.10000000000000853,2963,13,71,92
0.09999999999999432,2963,14,71,127
0.09999999999999432,2963,15,71,82
0.09999999999999432,2964,0,71,124
0.09999999999999432,2964,1,71,89
0.09999999999999432,2964,2,71,82
0.09999999999999432,2964,3,71,78
0.09999999999999432,2964,4,71,50
0.09999999999999432,2964,5,71,75
0.10000000000000853,2964,6,71,92
0.10000000000000853,2964,7,71,98
0.09999999999999432,2964,8,71,107
0.10000000000000853,2964,9,71,11
0.036363636363645924,2964,10,71,85
0.09999999999999432,2964,11,71,101
0.09999999999999432,2964,12,71,110
0.09999999999999432,2964,13,71,115
0.10000000000000853,2964,14,71,107
0.09999999999999432,2964,15,71,112
0.09999999999999432,2965,0,71,71
0.03636363636363171,2965,1,71,56
0.09999999999999432,2965,2,71,83
0.09999999999999432,2965,3,71,102
0.10000000000000853,2965,4,71,71
0.10000000000000853,2965,5,71,112
0.09999999999999432,2965,6,71,116
0.10000000000000853,2965,7,71,95
0.09999999999999432,2965,8,71,8
0.09999999999999432,2965,9,71,86
0.09999999999999432,2965,10,71,84
0.09999999999999432,2965,11,71,62
0.10000000000000853,2965,12,71,108
0.09999999999999432,2965,13,71,127
0.09999999999999432,2965,14,71,51
0.10000000000000853,2965,15,71,83
0.09999999999999432,2966,0,71,62
0.004545454545450411,2966,1,71,79
0.09999999999999432,2966,2,71,88
0.09999999999999432,2966,3,71,100
0.09999999999999432,2966,4,71,59
0.10000000000000853,2966,5,71,85
0.09999999999999432,2966,6,71,59
0.09999999999999432,2966,7,71,86
0.056818181818172775,2966,8,71,115
0.09999999999999432,2966,9,71,66
0.09999999999999432,2966,10,71,79
0.09999999999999432,2966,11,71,83
0.10000000000000853,2966,12,71,78
0.10000000000000853,2966,13,71,112
0.09999999999999432,2966,14,71,79
0.09999999999999432,2966,15,71,89
0.10000000000000853,2967,0,71,74
0.013636363636365445,2967,1,71,59
0.10000000000000853,2967,2,71,83
0.10000000000000853,2967,3,71,87
0.09999999999999432,2967,4,71,53
0.0022727272727252057,2967,5,71,51
0.10000000000000853,2967,6,71,86
0.09999999999999432,2967,7,71,57
0.09999999999999432,2967,8,71,92
0.10000000000000853,2967,9,71,86
0.09999999999999432,2967,10,71,112
0.10000000000000853,2967,11,71,79
0.09999999999999432,2967,12,71,118
0.09999999999999432,2967,13,71,99
0.09999999999999432,2967,14,71,78
0.05909090909091219,2967,15,71,90
0.09999999999999432,2968,0,71,80
0.09999999999999432,2968,1,71,74
0.10000000000000853,2968,2,71,64
0.09999999999999432,2968,3,71,91
0.10000000000000853,2968,4,71,67
0.09999999999999432,2968,5,71,96
0.09999999999999432,2968,6,71,88
0.10000000000000853,2968,7,71,50
0.10000000000000853,2968,8,71,84
0.10000000000000853,2968,9,71,79
0.09999999999999432,2968,10,71,70
0.10000000000000853,2968,11,71,63
0.04772727272727195,2968,12,71,85
0.09999999999999432,2968,13,71,86
0.09999999999999432,2968,14,71,104
0.09999999999999432,2968,15,71,103
0.09999999999999432,2969,0,71,88
0.09999999999999432,2969,1,71,87
0.10000000000000853,2969,2,71,33
0.09999999999999432,2969,3,71,81
0.09999999999999432,2969,4,71,89
0.10000000000000853,2969,5,71,103
0.10000000000000853,2969,6,71,120
0.09999999999999432,2969,7,71,99
0.09999999999999432,2969,8,71,54
0.09999999999999432,2969,9,71,74
0.10000000000000853,2969,10,71,84
0.10000000000000853,2969,11,71,90
0.09999999999999432,2969,12,71,100
0.10000000000000853,2969,13,71,72
0.09999999999999432,2969,14,71,97
0.10000000000000853,2969,15,71,78
0.10000000000000853,2970,0,71,10
0.09999999999999432,2970,1,71,22
0.10000000000000853,2970,2,71,92
0.10000000000000853,2970,3,71,113
0.10000000000000853,2970,4,71,102
0.10000000000000853,2970,5,71,93
0.09999999999999432,2970,6,71,72
0.09999999999999432,2970,7,71,74
0.09999999999999432,2970,8,71,86
0.10000000000000853,2970,9,71,57
0.09999999999999432,2970,10,71,59
0.10000000000000853,2970,11,71,81
0.09999999999999432,2970,12,71,68
0.09999999999999432,2970,13,71,80
0.09999999999999432,2970,14,71,64
0.09999999999999432,2970,15,71,83
0.10000000000000853,2971,0,71,64
0.01590909090909065,2971,1,71,58
0.09999999999999432,2971,2,71,70
0.09999999999999432,2971,3,71,84
0.10000000000000853,2971,4,71,82
0.10000000000000853,2971,5,71,42
0.10000000000000853,2971,6,71,123
0.004545454545464622,2971,7,71,116
0.09999999999999432,2971,8,71,85
0.09999999999999432,2971,9,71,119
0.10000000000000853,2971,10,71,99
0.10000000000000853,2971,11,71,104
0.09999999999999432,2971,12,71,99
0.09999999999999432,2971,13,71,77
0.10000000000000853,2971,14,71,88
0.10000000000000853,2971,15,71,59
0.09999999999999432,2972,0,71,97
0.09999999999999432,2972,1,71,64
0.025000000000005684,2972,2,71,91
0.10000000000000853,2972,3,71,79
0.004545454545464622,2972,4,71,63
0.10000000000000853,2972,5,71,56
0.09999999999999432,2972,6,71,89
0.10000000000000853,2972,7,71,123
0.09999999999999432,2972,8,71,89
0.10000000000000853,2972,9,71,66
0.09999999999999432,2972,10,71,92
0.09999999999999432,2972,11,71,87
0.10000000000000853,2972,12,71,70
0.10000000000000853,2972,13,71,90
0.09999999999999432,2972,14,71,62
0.10000000000000853,2972,15,71,74
0.09999999999999432,2973,0,71,91
0.09999999999999432,2973,1,71,77
0.09999999999999432,2973,2,71,92
0.09999999999999432,2973,3,71,113
0.10000000000000853,2973,4,71,47
0.10000000000000853,2973,5,71,89
0.09999999999999432,2973,6,71,84
0.004545454545450411,2973,7,71,73
0.09999999999999432,2973,8,71,104
0.09999999999999432,2973,9,71,98
0.09999999999999432,2973,10,71,64
0.045454545454532536,2973,11,71,56
0.09999999999999432,2973,12,71,73
0.09999999999999432,2973,13,71,91
0.09999999999999432,2973,14,71,63
0.09999999999999432,2973,15,71,84
0.10000000000002274,2974,0,71,90
0.09999999999999432,2974,1,71,94
0.09999999999999432,2974,2,71,53
0.09999999999999432,2974,3,71,86
0.09999999999999432,2974,4,71,98
0.09999999999999432,2974,5,71,116
0.10000000000002274,2974,6,71,84
0.09999999999999432,2974,7,71,58
0.09999999999999432,2974,8,71,90
0.09999999999999432,2974,9,71,86
0.10000000000002274,2974,10,71,85
0.09999999999999432,2974,11,71,48
0.004545454545450411,2974,12,71,85
0.09999999999999432,2974,13,71,86
0.09999999999999432,2974,14,71,57
0.09999999999999432,2974,15,71,96
0.09999999999999432,2975,0,71,55
0.09999999999999432,2975,1,71,101
0.10000000000002274,2975,2,71,88
0.09999999999999432,2975,3,71,84
0.09999999999999432,2975,4,71,117
0.09999999999999432,2975,5,71,70
0.013636363636379656,2975,6,71,67
0.09999999999999432,2975,7,71,105
0.09999999999999432,2975,8,71,93
0.09999999999999432,2975,9,71,100
0.09999999999999432,2975,10,71,73
0.10000000000002274,2975,11,71,68
0.10000000000002274,2975,12,71,85
0.09999999999999432,2975,13,71,120
0.10000000000002274,2975,14,71,95
0.09999999999999432,2975,15,71,46
0.10000000000002274,2976,0,71,67
0.09999999999999432,2976,1,71,86
0.09999999999999432,2976,2,71,118
0.09999999999999432,2976,3,71,97
0.09999999999999432,2976,4,71,89
0.09999999999999432,2976,5,71,60
0.09999999999999432,2976,6,71,110
0.09999999999999432,2976,7,71,105
0.09999999999999432,2976,8,71,69
0.09999999999999432,2976,9,71,91
0.10000000000002274,2976,10,71,109
0.10000000000002274,2976,11,71,89
0.09999999999999432,2976,12,71,105
0.10000000000002274,2976,13,71,87
0.09999999999999432,2976,14,71,102
0.09999999999999432,2976,15,71,99
0.09999999999999432,2977,0,71,80
0.09999999999999432,2977,1,71,63
0.09999999999999432,2977,2,71,87
0.09999999999999432,2977,3,71,82
0.09999999999999432,2977,4,71,78
0.10000000000002274,2977,5,71,80
0.09999999999999432,2977,6,71,50
0.09999999999999432,2977,7,71,91
0.10000000000002274,2977,8,71,110
0.036363636363660135,2977,9,71,119
0.09999999999999432,2977,10,71,85
0.09999999999999432,2977,11,71,93
0.09999999999999432,2977,12,71,73
0.09999999999999432,2977,13,71,114
0.09999999999999432,2977,14,71,55
0.09999999999999432,2977,15,71,90
0.09999999999999432,2978,0,71,87
0.09999999999999432,2978,1,71,98
0.10000000000002274,2978,2,71,91
0.09999999999999432,2978,3,71,64
0.09999999999999432,2978,4,71,55
0.10000000000002274,2978,5,71,81
0.09999999999999432,2978,6,71,73
0.10000000000002274,2978,7,71,102
0.09999999999999432,2978,8,71,80
0.09999999999999432,2978,9,71,84
0.09999999999999432,2978,10,71,103
0.09999999999999432,2978,11,71,56
0.10000000000002274,2978,12,71,112
0.09999999999999432,2978,13,71,102
0.09999999999999432,2978,14,71,108
0.10000000000002274,2978,15,71,73
0.10000000000002274,2979,0,71,89
0.09999999999999432,2979,1,71,98
0.09999999999999432,2979,2,71,71
0.09999999999999432,2979,3,71,93
0.09999999999999432,2979,4,71,76
0.09999999999999432,2979,5,71,73
0.09999999999999432,2979,6,71,85
0.09999999999999432,2979,7,71,70
0.09999999999999432,2979,8,71,96
0.09999999999999432,2979,9,71,87
0.09999999999999432,2979,10,71,63
0.09999999999999432,2979,11,71,83
0.09999999999999432,2979,12,71,84
0.09999999999999432,2979,13,71,91
0.024999999999977263,2979,14,71,90
0.09999999999999432,2979,15,71,63
0.004545454545450411,2980,0,71,97
0.09999999999999432,2980,1,71,100
0.09999999999999432,2980,2,71,86
0.09999999999999432,2980,3,71,95
0.10000000000002274,2980,4,71,76
0.04772727272728616,2980,5,71,99
0.10000000000002274,2980,6,71,71
0.10000000000002274,2980,7,71,82
0.09999999999999432,2980,8,71,63
0.10000000000002274,2980,9,71,89
0.09999999999999432,2980,10,71,87
0.0022727272727252057,2980,11,71,69
0.09999999999999432,2980,12,71,62
0.09999999999999432,2980,13,71,107
0.09999999999999432,2980,14,71,95
0.09999999999999432,2980,15,71,83
0.10000000000002274,2981,0,71,85
0.09999999999999432,2981,1,71,69
0.09999999999999432,2981,2,71,93
0.10000000000002274,2981,3,71,110
0.09999999999999432,2981,4,71,75
0.09999999999999432,2981,5,71,83
0.09999999999999432,2981,6,71,82
0.10000000000002274,2981,7,71,103
0.09999999999999432,2981,8,71,68
0.10000000000002274,2981,9,71,64
0.09999999999999432,2981,10,71,52
0.09999999999999432,2981,11,71,81
0.10000000000002274,2981,12,71,92
0.10000000000002274,2981,13,71,81
0.09999999999999432,2981,14,71,88
0.09999999999999432,2981,15,71,76
0.004545454545450411,2982,0,71,77
0.09999999999999432,2982,1,71,89
0.10000000000002274,2982,2,71,89
0.09999999999999432,2982,3,71,102
0.09999999999999432,2982,4,71,95
0.10000000000002274,2982,5,71,86
0.09999999999999432,2982,6,71,31
0.09999999999999432,2982,7,71,94
0.09999999999999432,2982,8,71,93
0.09999999999999432,2982,9,71,93
0.09999999999999432,2982,10,71,92
0.09999999999999432,2982,11,71,70
0.09999999999999432,2982,12,71,91
0.09999999999999432,2982,13,71,82
0.09999999999999432,2982,14,71,90
0.09999999999999432,2982,15,71,48
0.09999999999999432,2983,0,71,74
0.09999999999999432,2983,1,71,90
0.09999999999999432,2983,2,71,105
0.09999999999999432,2983,3,71,104
0.09999999999999432,2983,4,71,109
0.09999999999999432,2983,5,71,71
0.10000000000002274,2983,6,71,76
0.09999999999999432,2983,7,71,89
0.09999999999999432,2983,8,71,78
0.09999999999999432,2983,9,71,96
0.10000000000002274,2983,10,71,94
0.02727272727273089,2983,11,71,118
0.10000000000000142,2983,12,67,2
0.10000000000000142,2983,13,67,10
0.10000000000000142,2983,14,67,5
0.10000000000000142,2983,15,67,2
0.059090909090905086,2984,0,67,2
0.10000000000000142,2984,1,67,1
0.10000000000000142,2984,2,67,1
0.10000000000000142,2984,3,67,2
0.09999999999999432,2984,4,67,1
0.09999999999999432,2984,5,67,2
0.10000000000000853,2984,6,67,3
0.10000000000000853,2984,7,67,9
0.10000000000000853,2984,8,67,3
0.09999999999999432,2984,9,67,10
0.10000000000000853,2984,10,67,1
0.10000000000000853,2984,11,67,3
0.10000000000000853,2984,12,67,1
0.10000000000000853,2984,13,67,1
0.10000000000000853,2984,14,67,1
0.09999999999999432,2984,15,67,1
0.10000000000000853,2985,0,67,3
0.09999999999999432,2985,1,67,4
0.09999999999999432,2985,2,67,6
0.10000000000000853,2985,3,67,1
0.10000000000000853,2985,4,67,2
0.10000000000000853,2985,5,67,6
0.09999999999999432,2985,6,67,1
0.01590909090909065,2985,7,67,1
0.09999999999999432,2985,8,67,1
0.10000000000000853,2985,9,67,2
0.09999999999999432,2985,10,67,3
0.09999999999999432,2985,11,67,10
0.09999999999999432,2985,12,67,16
0.09999999999999432,2985,13,67,4
0.09999999999999432,2985,14,67,13
0.09999999999999432,2985,15,67,25
0.10000000000000853,2986,0,67,10
0.10000000000000853,2986,1,67,6
0.10000000000000853,2986,2,67,5
0.09999999999999432,2986,3,67,6
0.09999999999999432,2986,4,67,4
0.10000000000000853,2986,5,67,2
0.10000000000000853,2986,6,67,3
0.09999999999999432,2986,7,67,2
0.10000000000000853,2986,8,67,1
0.09999999999999432,2986,9,67,1
0.02727272727271668,2986,10,67,1
0.10000000000000853,2986,11,67,1
0.10000000000000853,2986,12,67,6
0.09999999999999432,2986,13,67,8
0.10000000000000853,2986,14,67,6
0.09999999999999432,2986,15,67,6
0.10000000000000853,2987,0,67,5
0.09999999999999432,2987,1,67,6
0.10000000000000853,2987,2,67,9
0.10000000000000853,2987,3,67,3
0.06818181818182723,2987,4,67,7
0.10000000000000853,2987,5,67,5
0.10000000000000853,2987,6,67,1
0.09999999999999432,2987,7,67,5
0.09999999999999432,2987,8,67,1
0.09999999999999432,2987,9,67,2
0.10000000000002274,2987,10,67,15
0.09999999999999432,2987,11,67,10
0.09999999999999432,2987,12,67,16
0.09999999999999432,2987,13,67,22
0.09999999999999432,2987,14,67,16
0.09999999999999432,2987,15,67,15
0.09999999999999432,2988,0,67,14
0.09999999999999432,2988,1,67,23
0.09999999999999432,2988,2,67,10
0.10000000000002274,2988,3,67,17
0.05909090909091219,2988,4,67,18
0.09999999999999432,2988,5,67,18
0.09999999999999432,2988,6,67,15
0.09999999999999432,2988,7,67,24
0.09999999999999432,2988,8,67,19
0.09999999999999432,2988,9,67,5
0.09999999999999432,2988,10,67,14
0.09999999999999432,2988,11,67,26
0.09999999999999432,2988,12,67,16
0.10000000000002274,2988,13,67,17
0.10000000000002274,2988,14,67,13
0.10000000000002274,2988,15,67,12
0.09999999999999432,2989,0,67,8
0.09999999999999432,2989,1,67,15
0.10000000000002274,2989,2,67,20
0.09999999999999432,2989,3,67,20
0.09999999999999432,2989,4,67,5
0.10000000000002274,2989,5,67,20
0.09999999999999432,2989,6,67,13
0.09999999999999432,2989,7,67,9
0.09999999999999432,2989,8,67,11
0.10000000000002274,2989,9,67,3
0.09999999999999432,2989,10,67,4
0.09999999999999432,2989,11,67,7
0.06818181818181301,2989,12,67,5
0.09999999999999432,2989,13,67,4
0.09999999999999432,2989,14,67,5
0.09999999999999432,2989,15,67,5
0.09999999999999432,2990,0,67,7
0.09999999999999432,2990,1,67,4
0.09999999999999432,2990,2,67,11
0.10000000000002274,2990,3,67,7
0.09999999999999432,2990,4,67,10
0.09999999999999432,2990,5,67,9
0.10000000000002274,2990,6,67,5
0.09999999999999432,2990,7,67,6
0.10000000000002274,2990,8,67,4
0.10000000000002274,2990,9,67,5
0.09999999999999432,2990,10,67,7
0.09999999999999432,2990,11,67,7
0.10000000000002274,2990,12,67,16
0.09999999999999432,2990,13,67,6
0.09999999999999432,2990,14,67,9
0.09999999999999432,2990,15,67,9
0.09999999999999432,2991,0,67,13
0.09999999999999432,2991,1,67,9
0.10000000000002274,2991,2,67,5
0.09999999999999432,2991,3,67,7
0.10000000000002274,2991,4,67,7
0.09999999999999432,2991,5,67,12
0.09999999999999432,2991,6,67,14
0.09999999999999432,2991,7,67,8
0.09999999999999432,2991,8,67,7
0.09999999999999432,2991,9,67,8
0.09999999999999432,2991,10,67,8
0.09999999999999432,2991,11,67,5
0.09999999999999432,2991,12,67,4
0.10000000000002274,2991,13,67,10
0.10000000000002274,2991,14,67,5
0.09999999999999432,2991,15,67,10
0.09999999999999432,2992,0,67,4
0.06590909090908781,2992,1,67,8
0.09999999999999432,2992,2,67,5
0.10000000000002274,2992,3,67,10
0.09999999999999432,2992,4,67,4
0.09999999999999432,2992,5,67,8
0.09999999999999432,2992,6,67,4
0.09999999999999432,2992,7,67,12
0.09999999999999432,2992,8,67,6
0.056818181818158564,2992,9,67,13
0.09999999999999432,2992,10,67,5
0.10000000000002274,2992,11,67,9
0.09999999999999432,2992,12,67,7
0.09999999999999432,2992,13,67,12
0.09999999999999432,2992,14,67,7
0.09999999999999432,2992,15,67,5
0.10000000000002274,2993,0,67,6
0.09999999999999432,2993,1,67,8
0.09999999999999432,2993,2,67,8
0.10000000000002274,2993,3,67,2
0.09999999999999432,2993,4,67,1
0.01590909090910486,2993,5,67,6
0.10000000000002274,2993,6,67,10
0.09999999999999432,2993,7,67,9
0.09999999999999432,2993,8,67,6
0.09999999999999432,2993,9,67,1
0.10000000000002274,2993,10,67,1
0.09999999999999432,2993,11,67,9
0.09999999999999432,2993,12,67,7
0.09999999999999432,2993,13,67,2
0.09999999999999432,2993,14,67,8
0.09999999999999432,2993,15,67,6
0.09999999999999432,2994,0,67,5
0.09999999999999432,2994,1,67,10
0.10000000000002274,2994,2,67,12
0.10000000000002274,2994,3,67,10
0.10000000000002274,2994,4,67,11
0.10000000000002274,2994,5,67,5
0.09999999999999432,2994,6,67,8
0.09999999999999432,2994,7,67,15
0.06818181818181301,2994,8,67,21
0.10000000000002274,2994,9,67,4
0.09999999999999432,2994,10,67,8
0.09999999999999432,2994,11,67,3
0.09999999999999432,2994,12,67,4
0.09999999999999432,2994,13,67,1
0.10000000000002274,2994,14,67,3
0.09999999999999432,2994,15,67,5
0.10000000000002274,2995,0,67,7
0.10000000000002274,2995,1,67,11
0.09999999999999432,2995,2,67,12
0.09999999999999432,2995,3,67,9
0.09999999999999432,2995,4,67,4
0.09999999999999432,2995,5,67,15
0.09999999999999432,2995,6,67,3
0.10000000000002274,2995,7,67,4
0.10000000000002274,2995,8,67,3
0.09999999999999432,2995,9,67,6
0.09999999999999432,2995,10,67,6
0.09999999999999432,2995,11,67,4
0.09999999999999432,2995,12,67,2
0.09999999999999432,2995,13,67,6
0.09999999999999432,2995,14,67,1
0.004545454545450411,2995,15,67,7
0.09999999999999432,2996,0,67,12
0.09999999999999432,2996,1,67,6
0.10000000000000142,2996,2,55,12
0.10000000000000142,2996,3,55,66
0.0022727272727287584,2996,4,55,53
0.09999999999999787,2996,5,55,58
0.10000000000000142,2996,6,55,43
0.10000000000000142,2996,7,55,51
0.10000000000000142,2996,8,55,25
0.09999999999999787,2996,9,55,51
0.10000000000000142,2996,10,55,45
0.10000000000000142,2996,11,55,35
0.10000000000000142,2996,12,55,64
0.09999999999999787,2996,13,55,61
0.10000000000000142,2996,14,55,55
0.10000000000000142,2996,15,55,32
0.09999999999999787,2997,0,55,73
0.027272727272727337,2997,1,55,68
0.09999999999999787,2997,2,55,48
0.10000000000000142,2997,3,55,77
0.02500000000000213,2997,4,55,72
0.10000000000000142,2997,5,55,47
0.10000000000000142,2997,6,55,30
0.10000000000000142,2997,7,55,45
0.10000000000000142,2997,8,55,46
0.10000000000000142,2997,9,55,45
0.013636363636365445,2997,10,55,33
0.09999999999999432,2997,11,55,37
0.10000000000000142,2997,12,55,37
0.10000000000000142,2997,13,55,31
0.10000000000000142,2997,14,55,29
0.09999999999999432,2997,15,55,37
0.10000000000000142,2998,0,55,38
0.10000000000000142,2998,1,55,40
0.10000000000000142,2998,2,55,28
0.09999999999999432,2998,3,55,27
0.10000000000000142,2998,4,55,41
0.09999999999999432,2998,5,55,47
0.01363636363635834,2998,6,55,41
0.10000000000000142,2998,7,55,42
0.10000000000000142,2998,8,55,32
0.10000000000000142,2998,9,55,37
0.10000000000000142,2998,10,55,30
0.09999999999999432,2998,11,55,37
0.10000000000000142,2998,12,55,28
0.10000000000000142,2998,13,55,31
0.02499999999999858,2998,14,55,34
0.10000000000000142,2998,15,55,31
0.10000000000000142,2999,0,55,42
0.10000000000000142,2999,1,55,28
0.09999999999999432,2999,2,55,29
0.10000000000000142,2999,3,55,27
0.10000000000000142,2999,4,55,38
0.10000000000000142,2999,5,55,16
0.09999999999999432,2999,6,55,91
0.01363636363635834,2999,7,55,85
0.10000000000000142,2999,8,55,35
0.10000000000000142,2999,9,55,48
0.10000000000000142,2999,10,55,18
0.10000000000000142,2999,11,55,35
0.10000000000000142,2999,12,55,14
0.10000000000000142,2999,13,55,13
0.04772727272727195,2999,14,55,24
0.02499999999999858,2999,15,55,39
0.10000000000000142,3000,0,55,84
0.02499999999999858,3000,1,55,104
0.10000000000000142,3000,2,55,42
0.10000000000000142,3000,3,55,92
0.02727272727273089,3000,4,55,74
0.013636363636365445,3000,5,55,13
0.06818181818181301,3000,6,55,19
0.09999999999999432,3000,7,55,33
0.09999999999999432,3000,8,55,12
0.09999999999999432,3000,9,55,33
0.06818181818181301,3000,10,55,43
0.01590909090909065,3000,11,55,73
0.09999999999999432,3000,12,55,59
0.10000000000000853,3000,13,55,18
0.09999999999999432,3000,14,55,92
0.056818181818172775,3000,15,55,91
0.10000000000000853,3001,0,55,65
0.10000000000000853,3001,1,55,16
0.09999999999999432,3001,2,55,64
0.10000000000000853,3001,3,55,81
0.09999999999999432,3001,4,55,16
0.04772727272727195,3001,5,55,26
0.09999999999999432,3001,6,55,41
0.013636363636365445,3001,7,55,64
0.09999999999999432,3001,8,55,78
0.09999999999999432,3001,9,55,65
0.01590909090909065,3001,10,55,66
0.10000000000000853,3001,11,55,16
0.09999999999999432,3001,12,55,88
0.09999999999999432,3001,13,55,81
0.09999999999999432,3001,14,55,10
0.10000000000000853,3001,15,55,90
0.10000000000000853,3002,0,55,101
0.10000000000000853,3002,1,55,14
0.056818181818186986,3002,2,55,24
0.10000000000000853,3002,3,55,51
0.09999999999999432,3002,4,55,11
0.10000000000000853,3002,5,55,88
0.09999999999999432,3002,6,55,87
0.10000000000000853,3002,7,55,10
0.06818181818182723,3002,8,55,19
0.09999999999999432,3002,9,55,18
0.09999999999999432,3002,10,55,78
0.10000000000000853,3002,11,55,127
0.09999999999999432,3002,12,55,87
0.10000000000000853,3002,13,55,85
0.10000000000000853,3002,14,55,3
0.06590909090910202,3002,15,55,14
0.09999999999999432,3003,0,55,69
0.09999999999999432,3003,1,55,59
0.06818181818181301,3003,2,55,73
0.09999999999999432,3003,3,55,87
0.09999999999999432,3003,4,55,17
0.09999999999999432,3003,5,55,77
0.10000000000000853,3003,6,55,15
0.10000000000000853,3003,7,55,44
0.056818181818186986,3003,8,55,48
0.10000000000000853,3003,9,55,58
0.013636363636365445,3003,10,55,83
0.09999999999999432,3003,11,55,97
0.09999999999999432,3003,12,55,40
0.09999999999999432,3003,13,55,75
0.03409090909090651,3003,14,55,94
0.09999999999999432,3003,15,55,19
0.10000000000000853,3004,0,55,64
0.10000000000000853,3004,1,55,72
0.09999999999999432,3004,2,55,18
0.09999999999999432,3004,3,55,59
0.09999999999999432,3004,4,55,75
0.10000000000000853,3004,5,55,15
0.10000000000000853,3004,6,55,42
0.09999999999999432,3004,7,55,84
0.004545454545450411,3004,8,55,98
0.024999999999991473,3004,9,55,101
0.0022727272727252057,3004,10,55,70
0.10000000000000853,3004,11,55,48
0.09999999999999432,3004,12,55,15
0.04772727272727195,3004,13,55,30
0.0022727272727394165,3004,14,55,53
0.09999999999999432,3004,15,55,121
0.09999999999999432,3005,0,55,127
0.06818181818181301,3005,1,55,127
0.09999999999999432,3005,2,55,100
0.09999999999999432,3005,3,55,110
0.10000000000000853,3005,4,55,127
0.09999999999999432,3005,5,55,127
0.09999999999999432,3005,6,55,127
0.09999999999999432,3005,7,55,23
0.10000000000000853,3005,8,55,92
0.09999999999999432,3005,9,55,127
0.09999999999999432,3005,10,55,27
0.09999999999999432,3005,11,55,117
0.09999999999999432,3005,12,55,31
0.06818181818181301,3005,13,55,32
0.03636363636363171,3005,14,55,38
0.10000000000000853,3005,15,55,80
0.045454545454546746,3006,0,55,83
0.01590909090909065,3006,1,55,75
0.09999999999999432,3006,2,55,14
0.10000000000000853,3006,3,55,53
0.09999999999999432,3006,4,55,7
0.06818181818181301,3006,5,55,11
0.03636363636363171,3006,6,55,14
0.10000000000000853,3006,7,55,33
0.09999999999999432,3006,8,55,3
0.09999999999999432,3006,9,55,14
0.10000000000000853,3006,10,55,15
0.10000000000000853,3006,11,55,30
0.036363636363645924,3006,12,55,43
0.09999999999999432,3006,13,55,49
0.09999999999999432,3006,14,55,103
0.09999999999999432,3006,15,55,120
0.013636363636365445,3007,0,55,80
0.09999999999999432,3007,1,55,30
0.03636363636363171,3007,2,55,42
0.09999999999999432,3007,3,55,101
0.09999999999999432,3007,4,55,87
0.09999999999999432,3007,5,55,22
0.09999999999999432,3007,6,55,35
0.09999999999999432,3007,7,55,31
0.10000000000000853,3007,8,55,85
0.10000000000000853,3007,9,55,108
0.013636363636365445,3007,10,55,12
0.10000000000000853,3007,11,55,14
0.03636363636363171,3007,12,55,29
0.10000000000000853,3007,13,55,83
0.013636363636365445,3007,14,55,9
0.09999999999999432,3007,15,55,80
0.09999999999999432,3008,0,55,91
0.09999999999999432,3008,1,55,10
0.06818181818181301,3008,2,55,16
0.09999999999999432,3008,3,55,3
0.05909090909089798,3008,4,55,9
0.10000000000000853,3008,5,55,55
0.03409090909090651,3008,6,55,86
0.10000000000000853,3008,7,55,21
0.004545454545450411,3008,8,55,34
0.056818181818186986,3008,9,55,58
0.10000000000000853,3008,10,55,99
0.10000000000000853,3008,11,55,15
0.045454545454546746,3008,12,55,27
0.013636363636365445,3008,13,55,36
0.01590909090909065,3008,14,55,50
0.045454545454546746,3008,15,55,59
0.04772727272727195,3009,0,55,65
0.01590909090909065,3009,1,55,71
0.09999999999999432,3009,2,55,74
0.045454545454546746,3009,3,55,63
0.10000000000000853,3009,4,55,12
0.06818181818182723,3009,5,55,16
0.036363636363645924,3009,6,55,21
0.01590909090909065,3009,7,55,32
0.045454545454546746,3009,8,55,44
0.04772727272727195,3009,9,55,52
0.01590909090909065,3009,10,55,56
0.013636363636365445,3009,11,55,58
0.04772727272727195,3009,12,55,62
0.045454545454546746,3009,13,55,65
0.013636363636365445,3009,14,55,68
0.01590909090909065,3009,15,55,52
0.025000000000005684,3010,0,55,12
0.056818181818172775,3010,1,55,20
0.004545454545450411,3010,2,55,30
0.045454545454532536,3010,3,55,42
0.013636363636351234,3010,4,55,49
0.01590909090909065,3010,5,55,57
0.045454545454546746,3010,6,55,61
0.04772727272727195,3010,7,55,59
0.045454545454546746,3010,8,55,53
0.004545454545464622,3010,9,55,20
0.036363636363645924,3010,10,55,5
0.056818181818186986,3010,11,55,10
0.004545454545450411,3010,12,55,20
0.045454545454546746,3010,13,55,32
0.04772727272727195,3010,14,55,39
0.045454545454546746,3010,15,55,42
0.013636363636365445,3011,0,55,45
0.01590909090909065,3011,1,55,49
0.10000000000000853,3011,2,55,58
0.06818181818182723,3011,3,55,57
0.10000000000000853,3011,4,55,18
0.10000000000000853,3011,5,55,32
0.06818181818182723,3011,6,55,38
0.036363636363645924,3011,7,55,43
0.10000000000000853,3011,8,55,44
0.06818181818182723,3011,9,55,44
0.10000000000000853,3011,10,55,9
0.10000000000000853,3011,11,55,16
0.09999999999999432,3011,12,55,22
0.09999999999999432,3011,13,55,14
0.045454545454532536,3011,14,55,26
0.04772727272725774,3011,15,55,40
0.01590909090907644,3012,0,55,50
0.013636363636379656,3012,1,55,62
0.04772727272728616,3012,2,55,65
0.045454545454532536,3012,3,55,65
0.04772727272725774,3012,4,55,70
0.04772727272728616,3012,5,55,74
0.10000000000002274,3012,6,55,32
0.06818181818184144,3012,7,55,39
0.036363636363660135,3012,8,55,46
0.013636363636379656,3012,9,55,55
0.04772727272725774,3012,10,55,61
0.045454545454532536,3012,11,55,64
0.09999999999999432,3012,12,55,42
0.09999999999999432,3012,13,55,13
0.045454545454532536,3012,14,55,25
0.04772727272728616,3012,15,55,40
0.01590909090910486,3013,0,55,50
0.013636363636351234,3013,1,55,57
0.04772727272725774,3013,2,55,58
0.04545454545456096,3013,3,55,57
0.013636363636379656,3013,4,55,59
0.01590909090910486,3013,5,55,60
0.10000000000002274,3013,6,55,8
0.06818181818181301,3013,7,55,11
0.013636363636379656,3013,8,55,19
0.10000000000002274,3013,9,55,49
0.0022727272727536274,3013,10,55,58
0.06818181818181301,3013,11,55,59
0.01590909090910486,3013,12,55,55
0.09999999999999432,3013,13,55,16
0.04545454545456096,3013,14,55,25
0.09999999999999432,3013,15,55,43
0.06818181818181301,3014,0,55,43
0.03409090909090651,3014,1,55,42
0.10000000000002274,3014,2,55,9
0.06818181818184144,3014,3,55,9
0.036363636363660135,3014,4,55,11
0.013636363636379656,3014,5,55,17
0.013636363636379656,3014,6,55,22
0.01590909090907644,3014,7,55,28
0.01590909090907644,3014,8,55,32
0.03636363636363171,3014,9,55,37
0.0022727272727252057,3014,10,55,41
0.013636363636351234,3014,11,55,47
0.10000000000002274,3014,12,55,55
0.09999999999999432,3014,13,55,17
0.06818181818181301,3014,14,55,14
0.09999999999999432,3014,15,55,3
0.09999999999999432,3015,0,55,17
0.09999999999999432,3015,1,55,65
0.06818181818181301,3015,2,55,82
0.01590909090910486,3015,3,55,96
0.04545454545456096,3015,4,55,102
0.04772727272725774,3015,5,55,104
0.01590909090907644,3015,6,55,106
0.013636363636351234,3015,7,55,76
0.09999999999999432,3015,8,55,9
0.06818181818181301,3015,9,55,15
0.10000000000002274,3015,10,55,9
0.04545454545456096,3015,11,55,13
0.09999999999999432,3015,12,55,41
0.06818181818181301,3015,13,55,48
0.10000000000002274,3015,14,55,69
0.03409090909090651,3015,15,55,51
0.09999999999999432,3016,0,55,49
0.025000000000005684,3016,1,55,62
0.025000000000005684,3016,2,55,71
0.004545454545450411,3016,3,55,64
0.10000000000002274,3016,4,55,20
0.09999999999999432,3016,5,55,62
0.09999999999999432,3016,6,55,53
0.10000000000002274,3016,7,55,9
0.10000000000002274,3016,8,55,51
0.09999999999999432,3016,9,55,57
0.03636363636363171,3016,10,55,4
0.09999999999999432,3016,11,55,14
0.09999999999999432,3016,12,55,33
0.09999999999999432,3016,13,55,84
0.06818181818181301,3016,14,55,91
0.09999999999999432,3016,15,55,87
0.10000000000002274,3017,0,55,11
0.09999999999999432,3017,1,55,67
0.09999999999999432,3017,2,55,42
0.10000000000002274,3017,3,55,62
0.09999999999999432,3017,4,55,56
0.09999999999999432,3017,5,55,8
0.10000000000002274,3017,6,55,41
0.09999999999999432,3017,7,55,37
0.09999999999999432,3017,8,55,9
0.09999999999999432,3017,9,55,9
0.09999999999999432,3017,10,55,91
0.09999999999999432,3017,11,55,9
0.06818181818181301,3017,12,55,18
0.10000000000002274,3017,13,55,87
0.09999999999999432,3017,14,55,23
0.09999999999999432,3017,15,55,46
0.045454545454532536,3018,0,55,67
0.09999999999999432,3018,1,55,13
0.09999999999999432,3018,2,55,85
0.013636363636351234,3018,3,55,5
0.02727272727273089,3018,4,55,11
0.03409090909090651,3018,5,55,18
0.10000000000002274,3018,6,55,40
0.09999999999999432,3018,7,55,49
0.025000000000005684,3018,8,55,51
0.10000000000002274,3018,9,55,6
0.09999999999999432,3018,10,55,41
0.10000000000002274,3018,11,55,49
0.04772727272728616,3018,12,55,51
0.025000000000005684,3018,13,55,35
0.09999999999999432,3018,14,55,36
0.004545454545450411,3018,15,55,60
0.09999999999999432,3019,0,55,5
0.10000000000002274,3019,1,55,40
0.09999999999999432,3019,2,55,4
0.03636363636363171,3019,3,55,12
0.056818181818186986,3019,4,55,19
0.03636363636363171,3019,5,55,34
0.10000000000002274,3019,6,55,69
0.01590909090910486,3019,7,55,8
0.03409090909090651,3019,8,55,12
0.09999999999999432,3019,9,55,6
0.10000000000002274,3019,10,55,7
0.09999999999999432,3019,11,55,24
0.045454545454532536,3019,12,55,33
0.10000000000002274,3019,13,55,5
0.056818181818186986,3019,14,55,7
0.09999999999999432,3019,15,55,26
0.09999999999999432,3020,0,55,8
0.06818181818181301,3020,1,55,10
0.10000000000002274,3020,2,55,41
0.04772727272728616,3020,3,55,50
0.013636363636351234,3020,4,55,55
0.09999999999999432,3020,5,55,44
0.09999999999999432,3020,6,55,5
0.09999999999999432,3020,7,55,50
0.013636363636351234,3020,8,55,50
0.09999999999999432,3020,9,55,7
0.09999999999999432,3020,10,55,70
0.09999999999999432,3020,11,55,3
0.09999999999999432,3020,12,55,69
0.09999999999999432,3020,13,55,66
0.09999999999999432,3020,14,55,6
0.09999999999999432,3020,15,55,38
0.06818181818181301,3021,0,55,45
0.09999999999999432,3021,1,55,59
0.10000000000002274,3021,2,55,33
0.04545454545456096,3021,3,55,46
0.04772727272725774,3021,4,55,57
0.09999999999999432,3021,5,55,11
0.10000000000002274,3021,6,55,10
0.09999999999999432,3021,7,55,7
0.09999999999999432,3021,8,55,11
0.09999999999999432,3021,9,55,81
0.09999999999999432,3021,10,55,17
0.09999999999999432,3021,11,55,58
0.10000000000002274,3021,12,55,92
0.09999999999999432,3021,13,55,10
0.09999999999999432,3021,14,55,6
0.09999999999999432,3021,15,55,73
0.09999999999999432,3022,0,55,80
0.09999999999999432,3022,1,55,6
0.09999999999999432,3022,2,55,26
0.09999999999999432,3022,3,55,11
0.04545454545456096,3022,4,55,14
0.09999999999999432,3022,5,55,44
0.10000000000002274,3022,6,55,4
0.10000000000002274,3022,7,55,10
0.09999999999999432,3022,8,55,7
0.09999999999999432,3022,9,55,26
0.056818181818186986,3022,10,55,31
0.09999999999999432,3022,11,55,10
0.10000000000002274,3022,12,55,7
0.09999999999999432,3022,13,55,48
0.09999999999999432,3022,14,55,70
0.09999999999999432,3022,15,55,9
0.09999999999999432,3023,0,55,58
0.09999999999999432,3023,1,55,7
0.09999999999999432,3023,2,55,10
0.09999999999999432,3023,3,55,10
0.09999999999999432,3023,4,55,11
0.10000000000002274,3023,5,55,7
0.09999999999999432,3023,6,55,103
0.09999999999999432,3023,7,55,6
0.056818181818186986,3023,8,55,12
0.09999999999999432,3023,9,55,7
0.056818181818186986,3023,10,55,15
0.09999999999999432,3023,11,55,54
0.09999999999999432,3023,12,55,17
0.09999999999999432,3023,13,55,7
0.09999999999999432,3023,14,55,34
0.10000000000002274,3023,15,55,5
0.10000000000002274,3024,0,55,3
0.09999999999999432,3024,1,55,33
0.09999999999999432,3024,2,55,1
0.06818181818181301,3024,3,55,2
0.10000000000002274,3024,4,55,7
0.10000000000002274,3024,5,55,4
0.04545454545456096,3024,6,55,8
0.09999999999999432,3024,7,55,4
0.09999999999999432,3024,8,55,9
0.09999999999999432,3024,9,55,46
0.10000000000002274,3024,10,55,45
0.09999999999999432,3024,11,55,6
0.09999999999999432,3024,12,55,84
0.09999999999999432,3024,13,55,7
0.09999999999999432,3024,14,55,7
0.09999999999999432,3024,15,55,5
0.09999999999999432,3025,0,55,64
0.09999999999999432,3025,1,55,70
0.09999999999999432,3025,2,55,8
0.10000000000000142,3025,3,100,127
0.10000000000000142,3025,4,100,10
0.10000000000000142,3025,5,100,127
0.10000000000000142,3025,6,100,9
0.10000000000000142,3025,7,100,127
0.10000000000000142,3025,8,100,10
0.10000000000000142,3025,9,100,127
0.10000000000000142,3025,10,100,10
0.10000000000000142,3025,11,100,127
0.10000000000000142,3025,12,100,9
0.10000000000000142,3025,13,100,127
0.10000000000000142,3025,14,100,10
0.10000000000000142,3025,15,100,127
0.10000000000000142,3026,0,100,11
0.10000000000000142,3026,1,100,127
0.10000000000000142,3026,2,100,127
0.10000000000000142,3026,3,100,8
0.10000000000000142,3026,4,100,127
0.10000000000000142,3026,5,100,11
0.10000000000000142,3026,6,100,127
0.10000000000000142,3026,7,100,9
0.10000000000000142,3026,8,100,127
0.10000000000000142,3026,9,100,10
0.10000000000000142,3026,10,100,127
0.10000000000000142,3026,11,100,9
0.10000000000000142,3026,12,100,127
0.10000000000000142,3026,13,100,10
0.10000000000000142,3026,14,100,127
0.10000000000000142,3026,15,100,9
0.10000000000000142,3027,0,100,127
0.10000000000000142,3027,1,100,8
0.10000000000000142,3027,2,100,127
0.10000000000000142,3027,3,100,9
0.10000000000000142,3027,4,100,127
0.10000000000000142,3027,5,100,10
0.10000000000000142,3027,6,100,127
0.10000000000000142,3027,7,100,9
0.09999999999999787,3027,8,100,127
0.09999999999999787,3027,9,100,9
0.10000000000000142,3027,10,100,127
0.10000000000000142,3027,11,100,9
0.10000000000000142,3027,12,100,127
0.10000000000000142,3027,13,100,10
0.09999999999999787,3027,14,100,122
0.10000000000000142,3027,15,100,16
0.10000000000000142,3028,0,100,127
0.10000000000000142,3028,1,100,14
0.10000000000000142,3028,2,100,127
0.10000000000000142,3028,3,100,14
0.10000000000000142,3028,4,100,127
0.10000000000000142,3028,5,100,2
0.10000000000000142,3028,6,100,127
0.10000000000000142,3028,7,100,14
0.10000000000000142,3028,8,100,127
0.10000000000000142,3028,9,100,14
0.10000000000000142,3028,10,100,127
0.10000000000000142,3028,11,100,15
0.10000000000000142,3028,12,100,127
0.10000000000000142,3028,13,100,13
0.10000000000000142,3028,14,100,127
0.10000000000000142,3028,15,100,14
0.09999999999999432,3029,0,100,127
0.10000000000000142,3029,1,100,14
0.10000000000000142,3029,2,100,127
0.10000000000000142,3029,3,100,3
0.10000000000000142,3029,4,100,127
0.10000000000000142,3029,5,100,13
0.10000000000000142,3029,6,100,127
0.10000000000000142,3029,7,100,13
0.10000000000000142,3029,8,100,127
0.10000000000000142,3029,9,100,14
0.10000000000000142,3029,10,100,127
0.10000000000000142,3029,11,100,13
0.10000000000000142,3029,12,100,127
0.10000000000000142,3029,13,100,13
0.09999999999999432,3029,14,100,127
0.10000000000000142,3029,15,100,15
0.10000000000000142,3030,0,100,127
0.10000000000000142,3030,1,100,2
0.10000000000000142,3030,2,100,127
0.10000000000000142,3030,3,100,15
0.10000000000000142,3030,4,100,127
0.10000000000000142,3030,5,100,14
0.10000000000000142,3030,6,100,127
0.10000000000000142,3030,7,100,14
0.10000000000000142,3030,8,100,127
0.10000000000000142,3030,9,100,14
0.10000000000000142,3030,10,100,127
0.10000000000000142,3030,11,100,13
0.09999999999999432,3030,12,100,127
0.10000000000000142,3030,13,100,14
0.10000000000000142,3030,14,100,127
0.10000000000000142,3030,15,100,2
0.10000000000000142,3031,0,100,127
0.09999999999999432,3031,1,100,95
0.10000000000000142,3031,2,100,16
0.10000000000000142,3031,3,100,127
0.10000000000000142,3031,4,100,15
0.10000000000000142,3031,5,100,127
0.10000000000000142,3031,6,100,14
0.10000000000000142,3031,7,100,125
0.10000000000000142,3031,8,100,13
0.10000000000000142,3031,9,100,127
0.10000000000000142,3031,10,100,14
0.10000000000000142,3031,11,100,127
0.10000000000000142,3031,12,100,15
0.10000000000000142,3031,13,100,127
0.10000000000000142,3031,14,100,3
0.10000000000000142,3031,15,100,127
0.10000000000000142,3032,0,100,15
0.10000000000000142,3032,1,100,127
0.10000000000000142,3032,2,100,85
0.10000000000000142,3032,3,100,14
0.10000000000000142,3032,4,100,127
0.10000000000000142,3032,5,100,16
0.10000000000000142,3032,6,100,127
0.10000000000000142,3032,7,100,16
0.10000000000000142,3032,8,100,127
0.10000000000000142,3032,9,100,14
0.10000000000000142,3032,10,100,127
0.10000000000000142,3032,11,100,15
0.10000000000000142,3032,12,100,127
0.10000000000000142,3032,13,100,2
0.10000000000000142,3032,14,100,127
0.10000000000000142,3032,15,100,15
0.10000000000000142,3033,0,100,127
0.10000000000000142,3033,1,100,14
0.10000000000000142,3033,2,100,127
0.10000000000000142,3033,3,100,82
0.10000000000000142,3033,4,100,14
0.10000000000000142,3033,5,100,127
0.10000000000000142,3033,6,100,15
0.10000000000000142,3033,7,100,127
0.10000000000000142,3033,8,100,13
0.10000000000000142,3033,9,100,127
0.10000000000000142,3033,10,100,16
0.10000000000000142,3033,11,100,127
0.10000000000000142,3033,12,100,2
0.10000000000000142,3033,13,100,127
0.10000000000000142,3033,14,100,15
0.10000000000000142,3033,15,100,127
0.10000000000000142,3034,0,100,15
0.10000000000000142,3034,1,100,127
0.10000000000000142,3034,2,100,18
0.10000000000000142,3034,3,100,127
0.10000000000000142,3034,4,100,100
0.10000000000000142,3034,5,100,23
0.10000000000000142,3034,6,100,127
0.10000000000000142,3034,7,100,4
0.10000000000000142,3034,8,100,127
0.10000000000000142,3034,9,100,2
0.09999999999999432,3034,10,100,2
0.10000000000000142,3034,11,100,127
0.10000000000000142,3034,12,100,3
0.10000000000000142,3034,13,100,2
0.10000000000000142,3034,14,100,127
0.10000000000000142,3034,15,100,4
0.09999999999999432,3035,0,100,2
0.10000000000000142,3035,1,100,127
0.10000000000000142,3035,2,100,3
0.09999999999999432,3035,3,100,1
0.10000000000000142,3035,4,100,127
0.10000000000000142,3035,5,100,4
0.10000000000000142,3035,6,100,2
0.10000000000000853,3035,7,100,127
0.09999999999999432,3035,8,100,3
0.09999999999999432,3035,9,100,13
0.10000000000000853,3035,10,100,127
0.06818181818182723,3035,11,100,127
0.09999999999999432,3035,12,100,6
0.10000000000000853,3035,13,100,2
0.10000000000000853,3035,14,100,127
0.09999999999999432,3035,15,100,1
0.10000000000000853,3036,0,100,1
0.09999999999999432,3036,1,100,127
0.09999999999999432,3036,2,100,4
0.09999999999999432,3036,3,100,2
0.10000000000000853,3036,4,100,127
0.09999999999999432,3036,5,100,3
0.10000000000000853,3036,6,100,1
0.09999999999999432,3036,7,100,127
0.09999999999999432,3036,8,100,4
0.10000000000000853,3036,9,100,2
0.10000000000000853,3036,10,100,127
0.09999999999999432,3036,11,100,3
0.10000000000000853,3036,12,100,2
0.09999999999999432,3036,13,100,127
0.09999999999999432,3036,14,100,4
0.10000000000000853,3036,15,100,2
0.10000000000000853,3037,0,100,127
0.09999999999999432,3037,1,100,3
0.10000000000000853,3037,2,100,12
0.10000000000000853,3037,3,100,127
0.06818181818182723,3037,4,100,127
0.09999999999999432,3037,5,100,2
0.10000000000000853,3037,6,100,2
0.09999999999999432,3037,7,100,127
0.09999999999999432,3037,8,100,3
0.10000000000000853,3037,9,100,2
0.10000000000000853,3037,10,100,127
0.09999999999999432,3037,11,100,4
0.10000000000000853,3037,12,100,2
0.10000000000000853,3037,13,100,127
0.09999999999999432,3037,14,100,3
0.10000000000000853,3037,15,100,1
0.10000000000000853,3038,0,100,127
0.09999999999999432,3038,1,100,4
0.10000000000000853,3038,2,100,2
0.10000000000000853,3038,3,100,127
0.09999999999999432,3038,4,100,3
0.10000000000000853,3038,5,100,2
0.10000000000000853,3038,6,100,127
0.09999999999999432,3038,7,100,4
0.10000000000000853,3038,8,100,2
0.10000000000000853,3038,9,100,127
0.10000000000000853,3038,10,100,2
0.10000000000000853,3038,11,100,10
0.09999999999999432,3038,12,100,127
0.06818181818181301,3038,13,100,127
0.09999999999999432,3038,14,100,5
0.10000000000000853,3038,15,100,2
0.10000000000000853,3039,0,100,127
0.09999999999999432,3039,1,100,3
0.10000000000000853,3039,2,100,1
0.09999999999999432,3039,3,100,127
0.09999999999999432,3039,4,100,4
0.10000000000000853,3039,5,100,2
0.10000000000000853,3039,6,100,127
0.09999999999999432,3039,7,100,3
0.10000000000000853,3039,8,100,2
0.09999999999999432,3039,9,100,127
0.09999999999999432,3039,10,100,4
0.10000000000000853,3039,11,100,2
0.10000000000000853,3039,12,100,127
0.09999999999999432,3039,13,100,3
0.10000000000000853,3039,14,100,1
0.10000000000000853,3039,15,100,127
0.09999999999999432,3040,0,100,3
0.10000000000000853,3040,1,100,2
0.10000000000000853,3040,2,100,127
0.09999999999999432,3040,3,100,4
0.10000000000000853,3040,4,100,127
0.09999999999999432,3040,5,100,4
0.10000000000000853,3040,6,100,3
0.10000000000000853,3040,7,100,127
0.09999999999999432,3040,8,100,3
0.10000000000000853,3040,9,100,2
0.10000000000000853,3040,10,100,127
0.09999999999999432,3040,11,100,4
0.10000000000000853,3040,12,100,2
0.10000000000000853,3040,13,100,127
0.09999999999999432,3040,14,100,2
0.10000000000000853,3040,15,100,1
0.09999999999999432,3041,0,100,127
0.09999999999999432,3041,1,100,4
0.10000000000000853,3041,2,100,2
0.10000000000000853,3041,3,100,127
0.09999999999999432,3041,4,100,3
0.10000000000000853,3041,5,100,13
0.09999999999999432,3041,6,100,127
0.06818181818181301,3041,7,100,127
0.09999999999999432,3041,8,100,6
0.10000000000000853,3041,9,100,2
0.10000000000000853,3041,10,100,127
0.09999999999999432,3041,11,100,3
0.10000000000000853,3041,12,100,2
0.09999999999999432,3041,13,100,127
0.09999999999999432,3041,14,100,3
0.10000000000000853,3041,15,100,2
0.10000000000000853,3042,0,100,127
0.09999999999999432,3042,1,100,3
0.10000000000000853,3042,2,100,1
0.10000000000000853,3042,3,100,127
0.09999999999999432,3042,4,100,3
0.10000000000000853,3042,5,100,2
0.09999999999999432,3042,6,100,127
0.09999999999999432,3042,7,100,3
0.10000000000000853,3042,8,100,2
0.10000000000000853,3042,9,100,127
0.09999999999999432,3042,10,100,4
0.10000000000000853,3042,11,100,2
0.10000000000000853,3042,12,100,127
0.09999999999999432,3042,13,100,3
0.10000000000000853,3042,14,100,40
0.10000000000000853,3042,15,100,127
0.09999999999999432,3043,0,100,4
0.10000000000000853,3043,1,100,2
0.10000000000000853,3043,2,100,127
0.09999999999999432,3043,3,100,8
0.10000000000000853,3043,4,100,6
0.09999999999999432,3043,5,100,12
0.09999999999999432,3043,6,100,127
0.10000000000000853,3043,7,100,127
0.09999999999999432,3043,8,100,127
0.09999999999999432,3043,9,100,127
0.10000000000000853,3043,10,100,127
0.09999999999999432,3043,11,100,127
0.10000000000000853,3043,12,100,127
0.09999999999999432,3043,13,100,127
0.10000000000000853,3043,14,100,127
0.09999999999999432,3043,15,100,127
0.09999999999999432,3044,0,100,127
0.10000000000000853,3044,1,100,127
0.09999999999999432,3044,2,100,127
0.10000000000000853,3044,3,100,127
0.09999999999999432,3044,4,100,6
0.10000000000000853,3044,5,100,127
0.10000000000000853,3044,6,100,3
0.10000000000000853,3044,7,100,4
0.10000000000000853,3044,8,100,127
0.09999999999999432,3044,9,100,2
0.09999999999999432,3044,10,100,4
0.10000000000000853,3044,11,100,127
0.10000000000000853,3044,12,100,69
0.10000000000000853,3044,13,100,2
0.10000000000000853,3044,14,100,3
0.10000000000000853,3044,15,100,127
0.10000000000000853,3045,0,100,2
0.09999999999999432,3045,1,100,3
0.10000000000000853,3045,2,100,127
0.10000000000000853,3045,3,100,75
0.10000000000000853,3045,4,100,2
0.10000000000000853,3045,5,100,3
0.10000000000000853,3045,6,100,127
0.10000000000000853,3045,7,100,2
0.09999999999999432,3045,8,100,1
0.10000000000000853,3045,9,100,127
0.09999999999999432,3045,10,100,78
0.10000000000000853,3045,11,100,2
0.10000000000000853,3045,12,100,4
0.10000000000000853,3045,13,100,127
0.10000000000000853,3045,14,100,2
0.09999999999999432,3045,15,100,4
0.10000000000000853,3046,0,100,127
0.09999999999999432,3046,1,100,84
0.09999999999999432,3046,2,100,2
0.09999999999999432,3046,3,100,3
0.10000000000000853,3046,4,100,127
0.10000000000000853,3046,5,100,2
0.10000000000000853,3046,6,100,4
0.10000000000000853,3046,7,100,127
0.09999999999999432,3046,8,100,86
0.10000000000000853,3046,9,100,2
0.09999999999999432,3046,10,100,4
0.10000000000000853,3046,11,100,127
0.10000000000000853,3046,12,100,2
0.09999999999999432,3046,13,100,4
0.09999999999999432,3046,14,100,127
0.09999999999999432,3046,15,100,88
0.10000000000000853,3047,0,100,5
0.09999999999999432,3047,1,100,2
0.10000000000000853,3047,2,100,127
0.10000000000000853,3047,3,100,5
0.09999999999999432,3047,4,100,1
0.10000000000000853,3047,5,100,127
0.09999999999999432,3047,6,100,81
0.10000000000000853,3047,7,100,5
0.09999999999999432,3047,8,100,2
0.10000000000000853,3047,9,100,127
0.10000000000000853,3047,10,100,6
0.09999999999999432,3047,11,100,1
0.10000000000000853,3047,12,100,127
0.09999999999999432,3047,13,100,81
0.10000000000000853,3047,14,100,5
0.09999999999999432,3047,15,100,2
0.10000000000000853,3048,0,100,127
0.10000000000000853,3048,1,100,7
0.10000000000000853,3048,2,100,127
0.09999999999999432,3048,3,100,81
0.10000000000000853,3048,4,100,6
0.09999999999999432,3048,5,100,1
0.09999999999999432,3048,6,100,127
0.09999999999999432,3048,7,100,52
0.10000000000000853,3048,8,100,6
0.10000000000000853,3048,9,100,127
0.09999999999999432,3048,10,100,81
0.10000000000000853,3048,11,100,6
0.10000000000000853,3048,12,100,127
0.09999999999999432,3048,13,100,55
0.10000000000000853,3048,14,100,6
0.10000000000000853,3048,15,100,127
0.09999999999999432,3049,0,100,56
0.10000000000000853,3049,1,100,5
0.09999999999999432,3049,2,100,1
0.10000000000000853,3049,3,100,127
0.09999999999999432,3049,4,100,52
0.09999999999999432,3049,5,100,6
0.10000000000000853,3049,6,100,127
0.09999999999999432,3049,7,100,55
0.10000000000000853,3049,8,100,6
0.10000000000000853,3049,9,100,127
0.10000000000000853,3049,10,100,41
0.10000000000000853,3049,11,100,6
0.09999999999999432,3049,12,100,127
0.09999999999999432,3049,13,100,54
0.10000000000000853,3049,14,100,6
0.09999999999999432,3049,15,100,2
0.10000000000000853,3050,0,100,127
0.09999999999999432,3050,1,100,43
0.10000000000000853,3050,2,100,6
0.09999999999999432,3050,3,100,127
0.09999999999999432,3050,4,100,59
0.09999999999999432,3050,5,100,6
0.09999999999999432,3050,6,100,127
0.09999999999999432,3050,7,100,46
0.09999999999999432,3050,8,100,7
0.09999999999999432,3050,9,100,127
0.09999999999999432,3050,10,100,68
0.10000000000002274,3050,11,100,6
0.09999999999999432,3050,12,100,2
0.09999999999999432,3050,13,100,127
0.09999999999999432,3050,14,100,53
0.09999999999999432,3050,15,100,6
0.09999999999999432,3051,0,100,127
0.09999999999999432,3051,1,100,42
0.09999999999999432,3051,2,100,4
0.09999999999999432,3051,3,100,127
0.09999999999999432,3051,4,100,127
0.09999999999999432,3051,5,100,127
0.09999999999999432,3051,6,100,127
0.09999999999999432,3051,7,100,127
0.09999999999999432,3051,8,100,127
0.09999999999999432,3051,9,100,127
0.09999999999999432,3051,10,100,127
0.09999999999999432,3051,11,100,127
0.09999999999999432,3051,12,100,5
0.09999999999999432,3051,13,100,127
0.09999999999999432,3051,14,100,4
0.09999999999999432,3051,15,100,127
0.09999999999999432,3052,0,100,9
0.09999999999999432,3052,1,100,127
0.09999999999999432,3052,2,100,4
0.09999999999999432,3052,3,100,127
0.09999999999999432,3052,4,100,5
0.09999999999999432,3052,5,100,4
0.09999999999999432,3052,6,100,127
0.09999999999999432,3052,7,100,72
0.09999999999999432,3052,8,100,5
0.09999999999999432,3052,9,100,127
0.09999999999999432,3052,10,100,7
0.09999999999999432,3052,11,100,127
0.09999999999999432,3052,12,100,67
0.09999999999999432,3052,13,100,3
0.09999999999999432,3052,14,100,127
0.09999999999999432,3052,15,100,5
0.09999999999999432,3053,0,100,127
0.09999999999999432,3053,1,100,69
0.09999999999999432,3053,2,100,5
0.09999999999999432,3053,3,100,127
0.09999999999999432,3053,4,100,7
0.09999999999999432,3053,5,100,127
0.09999999999999432,3053,6,100,73
0.09999999999999432,3053,7,100,5
0.09999999999999432,3053,8,100,127
0.09999999999999432,3053,9,100,7
0.09999999999999432,3053,10,100,127
0.09999999999999432,3053,11,100,71
0.09999999999999432,3053,12,100,6
0.09999999999999432,3053,13,100,127
0.09999999999999432,3053,14,100,9
0.09999999999999432,3053,15,100,127
0.09999999999999432,3054,0,100,78
0.09999999999999432,3054,1,100,5
0.09999999999999432,3054,2,100,3
0.09999999999999432,3054,3,100,127
0.09999999999999432,3054,4,100,54
0.09999999999999432,3054,5,100,13
0.09999999999999432,3054,6,100,2
0.09999999999999432,3054,7,100,127
0.09999999999999432,3054,8,100,82
0.09999999999999432,3054,9,100,13
0.10000000000002274,3054,10,100,4
0.09999999999999432,3054,11,100,127
0.09999999999999432,3054,12,100,58
0.09999999999999432,3054,13,100,13
0.09999999999999432,3054,14,100,2
0.09999999999999432,3054,15,100,127
0.09999999999999432,3055,0,100,73
0.09999999999999432,3055,1,100,13
0.09999999999999432,3055,2,100,3
0.09999999999999432,3055,3,100,127
0.09999999999999432,3055,4,100,56
0.09999999999999432,3055,5,100,13
0.10000000000002274,3055,6,100,2
0.09999999999999432,3055,7,100,127
0.09999999999999432,3055,8,100,81
0.09999999999999432,3055,9,100,13
0.10000000000002274,3055,10,100,4
0.09999999999999432,3055,11,100,127
0.09999999999999432,3055,12,100,67
0.09999999999999432,3055,13,100,12
0.09999999999999432,3055,14,100,2
0.09999999999999432,3055,15,100,127
0.09999999999999432,3056,0,100,80
0.09999999999999432,3056,1,100,13
0.09999999999999432,3056,2,100,3
0.09999999999999432,3056,3,100,127
0.09999999999999432,3056,4,100,67
0.09999999999999432,3056,5,100,13
0.10000000000002274,3056,6,100,2
0.09999999999999432,3056,7,100,127
0.10000000000002274,3056,8,100,78
0.09999999999999432,3056,9,100,12
0.10000000000002274,3056,10,100,4
0.09999999999999432,3056,11,100,127
0.09999999999999432,3056,12,100,67
0.09999999999999432,3056,13,100,13
0.09999999999999432,3056,14,100,2
0.09999999999999432,3056,15,100,127
0.09999999999999432,3057,0,100,94
0.09999999999999432,3057,1,100,12
0.09999999999999432,3057,2,100,3
0.09999999999999432,3057,3,100,127
0.09999999999999432,3057,4,100,70
0.09999999999999432,3057,5,100,13
0.10000000000002274,3057,6,100,3
0.09999999999999432,3057,7,100,127
0.09999999999999432,3057,8,100,127
0.09999999999999432,3057,9,100,15
0.09999999999999432,3057,10,100,127
0.09999999999999432,3057,11,100,75
0.09999999999999432,3057,12,100,13
0.09999999999999432,3057,13,100,127
0.09999999999999432,3057,14,100,57
0.09999999999999432,3057,15,100,12
0.09999999999999432,3058,0,100,127
0.09999999999999432,3058,1,100,72
0.09999999999999432,3058,2,100,13
0.10000000000002274,3058,3,100,4
0.09999999999999432,3058,4,100,127
0.09999999999999432,3058,5,100,57
0.09999999999999432,3058,6,100,13
0.09999999999999432,3058,7,100,2
0.09999999999999432,3058,8,100,127
0.09999999999999432,3058,9,100,76
0.09999999999999432,3058,10,100,14
0.09999999999999432,3058,11,100,3
0.09999999999999432,3058,12,100,127
0.09999999999999432,3058,13,100,60
0.09999999999999432,3058,14,100,12
0.10000000000002274,3058,15,100,2
0.10000000000002274,3059,0,100,127
0.09999999999999432,3059,1,100,80
0.09999999999999432,3059,2,100,13
0.10000000000002274,3059,3,100,4
0.09999999999999432,3059,4,100,127
0.09999999999999432,3059,5,100,69
0.09999999999999432,3059,6,100,13
0.09999999999999432,3059,7,100,2
0.09999999999999432,3059,8,100,127
0.09999999999999432,3059,9,100,87
0.09999999999999432,3059,10,100,13
0.09999999999999432,3059,11,100,3
0.09999999999999432,3059,12,100,127
0.09999999999999432,3059,13,100,72
0.09999999999999432,3059,14,100,13
0.10000000000002274,3059,15,100,2
0.09999999999999432,3060,0,100,127
0.10000000000002274,3060,1,100,84
0.09999999999999432,3060,2,100,12
0.10000000000002274,3060,3,100,4
0.09999999999999432,3060,4,100,127
0.09999999999999432,3060,5,100,66
0.09999999999999432,3060,6,100,13
0.09999999999999432,3060,7,100,2
0.09999999999999432,3060,8,100,127
0.09999999999999432,3060,9,100,91
0.09999999999999432,3060,10,100,12
0.09999999999999432,3060,11,100,3
0.10000000000002274,3060,12,100,127
0.09999999999999432,3060,13,100,73
0.09999999999999432,3060,14,100,12
0.10000000000002274,3060,15,100,2
0.09999999999999432,3061,0,100,127
0.09999999999999432,3061,1,100,69
0.09999999999999432,3061,2,100,13
0.09999999999999432,3061,3,100,3
0.09999999999999432,3061,4,100,127
0.09999999999999432,3061,5,100,54
0.09999999999999432,3061,6,100,13
0.09999999999999432,3061,7,100,2
0.09999999999999432,3061,8,100,127
0.09999999999999432,3061,9,100,83
0.09999999999999432,3061,10,100,13
0.10000000000002274,3061,11,100,3
0.09999999999999432,3061,12,100,127
0.09999999999999432,3061,13,100,62
0.09999999999999432,3061,14,100,12
0.09999999999999432,3061,15,100,2
0.09999999999999432,3062,0,100,127
0.09999999999999432,3062,1,100,72
0.09999999999999432,3062,2,100,14
0.09999999999999432,3062,3,100,4
0.09999999999999432,3062,4,100,127
0.09999999999999432,3062,5,100,61
0.09999999999999432,3062,6,100,13
0.10000000000002274,3062,7,100,2
0.10000000000002274,3062,8,100,127
0.09999999999999432,3062,9,100,79
0.09999999999999432,3062,10,100,12
0.10000000000002274,3062,11,100,3
0.09999999999999432,3062,12,100,127
0.09999999999999432,3062,13,100,68
0.09999999999999432,3062,14,100,13
0.09999999999999432,3062,15,100,2
0.09999999999999432,3063,0,100,127
0.09999999999999432,3063,1,100,75
0.09999999999999432,3063,2,100,13
0.09999999999999432,3063,3,100,4
0.09999999999999432,3063,4,100,127
0.09999999999999432,3063,5,100,69
0.09999999999999432,3063,6,100,13
0.10000000000002274,3063,7,100,2
0.10000000000002274,3063,8,100,127
0.09999999999999432,3063,9,100,82
0.09999999999999432,3063,10,100,14
0.10000000000002274,3063,11,100,5
0.09999999999999432,3063,12,100,127
0.09999999999999432,3063,13,100,11
0.09999999999999432,3063,14,100,116
0.09999999999999432,3063,15,100,68
0.09999999999999432,3064,0,100,10
0.10000000000002274,3064,1,100,127
0.09999999999999432,3064,2,100,10
0.09999999999999432,3064,3,100,102
0.09999999999999432,3064,4,100,51
0.09999999999999432,3064,5,100,10
0.09999999999999432,3064,6,100,6
0.09999999999999432,3064,7,100,127
0.09999999999999432,3064,8,100,51
0.09999999999999432,3064,9,100,10
0.09999999999999432,3064,10,100,127
0.09999999999999432,3064,11,100,4
0.10000000000002274,3064,12,100,127
0.09999999999999432,3064,13,100,127
0.09999999999999432,3064,14,100,127
0.09999999999999432,3064,15,100,2
0.09999999999999432,3065,0,100,127
0.09999999999999432,3065,1,100,2
0.10000000000002274,3065,2,100,127
0.09999999999999432,3065,3,100,3
0.09999999999999432,3065,4,100,127
0.10000000000002274,3065,5,100,2
0.09999999999999432,3065,6,100,127
0.09999999999999432,3065,7,100,2
0.10000000000002274,3065,8,100,127
0.09999999999999432,3065,9,100,2
0.10000000000002274,3065,10,100,127
0.09999999999999432,3065,11,100,3
0.09999999999999432,3065,12,100,127
0.10000000000002274,3065,13,100,2
0.09999999999999432,3065,14,100,127
0.09999999999999432,3065,15,100,3
0.10000000000002274,3066,0,100,127
0.09999999999999432,3066,1,100,2
0.09999999999999432,3066,2,100,127
0.10000000000002274,3066,3,100,2
0.09999999999999432,3066,4,100,127
0.09999999999999432,3066,5,100,2
0.10000000000002274,3066,6,100,127
0.09999999999999432,3066,7,100,2
0.10000000000002274,3066,8,100,127
0.09999999999999432,3066,9,100,2
0.10000000000002274,3066,10,100,2
0.09999999999999432,3066,11,100,3
0.09999999999999432,3066,12,100,3
0.09999999999999432,3066,13,100,3
0.09999999999999432,3066,14,100,3
0.09999999999999432,3066,15,100,3
0.09999999999999432,3067,0,100,2
0.10000000000002274,3067,1,100,127
0.09999999999999432,3067,2,100,127
0.09999999999999432,3067,3,100,11
0.09999999999999432,3067,4,100,127
0.09999999999999432,3067,5,100,77
0.09999999999999432,3067,6,100,11
0.09999999999999432,3067,7,100,3
0.10000000000002274,3067,8,100,127
0.09999999999999432,3067,9,100,54
0.09999999999999432,3067,10,100,11
0.10000000000002274,3067,11,100,2
0.09999999999999432,3067,12,100,127
0.09999999999999432,3067,13,100,81
0.09999999999999432,3067,14,100,11
0.09999999999999432,3067,15,100,3
0.09999999999999432,3068,0,100,127
0.09999999999999432,3068,1,100,58
0.09999999999999432,3068,2,100,12
0.09999999999999432,3068,3,100,3
0.10000000000002274,3068,4,100,127
0.09999999999999432,3068,5,100,74
0.09999999999999432,3068,6,100,12
0.10000000000002274,3068,7,100,3
0.10000000000002274,3068,8,100,127
0.09999999999999432,3068,9,100,51
0.09999999999999432,3068,10,100,11
0.09999999999999432,3068,11,100,2
0.09999999999999432,3068,12,100,127
0.09999999999999432,3068,13,100,77
0.09999999999999432,3068,14,100,12
0.09999999999999432,3068,15,100,3
0.09999999999999432,3069,0,100,127
0.09999999999999432,3069,1,100,69
0.09999999999999432,3069,2,100,12
0.09999999999999432,3069,3,100,3
0.10000000000002274,3069,4,100,127
0.09999999999999432,3069,5,100,80
0.09999999999999432,3069,6,100,11
0.10000000000002274,3069,7,100,3
0.09999999999999432,3069,8,100,127
0.09999999999999432,3069,9,100,66
0.09999999999999432,3069,10,100,12
0.09999999999999432,3069,11,100,3
0.09999999999999432,3069,12,100,127
0.09999999999999432,3069,13,100,87
0.09999999999999432,3069,14,100,13
0.09999999999999432,3069,15,100,3
0.10000000000002274,3070,0,100,127
0.09999999999999432,3070,1,100,69
0.09999999999999432,3070,2,100,12
0.10000000000002274,3070,3,100,2
0.10000000000000009,3070,4,58,15
0.10000000000000009,3070,5,58,18
0.09999999999999987,3070,6,58,23
0.10000000000000009,3070,7,58,1
0.10000000000000009,3070,8,58,31
0.10000000000000009,3070,9,58,24
0.10000000000000009,3070,10,58,20
0.10000000000000009,3070,11,58,26
0.10000000000000009,3070,12,58,14
0.10000000000000053,3070,13,58,19
0.09999999999999964,3070,14,58,15
0.10000000000000053,3070,15,58,32
0.10000000000000053,3071,0,58,26
0.10000000000000053,3071,1,58,22
0.09999999999999964,3071,2,58,25
0.10000000000000053,3071,3,58,27
0.09999999999999964,3071,4,58,15
0.09999999999999964,3071,5,58,19
0.09999999999999964,3071,6,58,22
0.09999999999999964,3071,7,58,11
0.09999999999999964,3071,8,58,21
0.09999999999999964,3071,9,58,25
0.09999999999999964,3071,10,58,29
0.09999999999999964,3071,11,58,9
0.09999999999999964,3071,12,58,39
0.09999999999999964,3071,13,58,8
0.09999999999999964,3071,14,58,11
0.09999999999999964,3071,15,58,21
0.09999999999999964,3072,0,58,17
0.09999999999999964,3072,1,58,23
0.09999999999999964,3072,2,58,20
0.09999999999999964,3072,3,58,18
0.09999999999999964,3072,4,58,24
0.09999999999999964,3072,5,58,18
0.09999999999999964,3072,6,58,12
0.09999999999999964,3072,7,58,20
0.10000000000000142,3072,8,58,30
0.09999999999999964,3072,9,58,29
0.09999999999999964,3072,10,58,35
0.10000000000000142,3072,11,58,39
0.09999999999999964,3072,12,58,16
0.05681818181818166,3072,13,58,29
0.10000000000000142,3072,14,58,21
0.09999999999999787,3072,15,58,26
0.05909090909090864,3073,0,58,30
0.10000000000000142,3073,1,58,12
0.10000000000000142,3073,2,58,63
0.10000000000000142,3073,3,58,41
0.09999999999999787,3073,4,58,41
0.09999999999999787,3073,5,58,24
0.10000000000000142,3073,6,58,28
0.10000000000000142,3073,7,58,47
0.10000000000000142,3073,8,58,29
0.09999999999999787,3073,9,58,50
0.09999999999999787,3073,10,58,28
0.10000000000000142,3073,11,58,21
0.10000000000000142,3073,12,58,61
0.10000000000000142,3073,13,58,43
0.09999999999999787,3073,14,58,36
0.06818181818181657,3073,15,58,33
0.09999999999999787,3074,0,58,37
0.10000000000000142,3074,1,58,42
0.10000000000000142,3074,2,58,14
0.10000000000000142,3074,3,58,49
0.10000000000000142,3074,4,58,34
0.09999999999999787,3074,5,58,36
0.09999999999999787,3074,6,58,29
0.10000000000000142,3074,7,58,25
0.10000000000000142,3074,8,58,42
0.10000000000000142,3074,9,58,11
0.09999999999999787,3074,10,58,9
0.10000000000000142,3074,11,58,9
0.10000000000000142,3074,12,58,5
0.09999999999999787,3074,13,58,7
0.10000000000000142,3074,14,58,16
0.10000000000000142,3074,15,58,9
0.10000000000000142,3075,0,58,7
0.10000000000000142,3075,1,58,7
0.10000000000000142,3075,2,58,8
0.09999999999999787,3075,3,58,7
0.10000000000000142,3075,4,58,24
0.10000000000000142,3075,5,58,9
0.09999999999999787,3075,6,58,7
0.10000000000000142,3075,7,58,5
0.10000000000000142,3075,8,58,3
0.09999999999999787,3075,9,58,6
0.10000000000000142,3075,10,58,44
0.10000000000000142,3075,11,58,9
0.09999999999999787,3075,12,58,13
0.10000000000000142,3075,13,58,9
0.10000000000000142,3075,14,58,2
0.10000000000000142,3075,15,58,12
0.10000000000000142,3076,0,58,21
0.10000000000000142,3076,1,58,5
0.09999999999999787,3076,2,58,8
0.10000000000000142,3076,3,58,9
0.10000000000000142,3076,4,58,5
0.10000000000000142,3076,5,58,5
0.10000000000000142,3076,6,58,16
0.09999999999999787,3076,7,58,5
0.09999999999999787,3076,8,58,9
0.10000000000000142,3076,9,58,13
0.10000000000000142,3076,10,58,9
0.10000000000000142,3076,11,58,7
0.10000000000000142,3076,12,58,31
0.10000000000000142,3076,13,58,12
0.09999999999999787,3076,14,58,10
0.09999999999999787,3076,15,58,13
0.09999999999999787,3077,0,58,5
0.09999999999999787,3077,1,58,7
0.09999999999999787,3077,2,58,6
0.09999999999999787,3077,3,58,23
0.10000000000000142,3077,4,58,13
0.10000000000000142,3077,5,58,4
0.10000000000000142,3077,6,58,27
0.09999999999999787,3077,7,58,15
0.09999999999999787,3077,8,58,3
0.10000000000000142,3077,9,58,16
0.10000000000000142,3077,10,58,8
0.10000000000000142,3077,11,58,4
0.10000000000000142,3077,12,58,8
0.09999999999999787,3077,13,58,1
0.09999999999999787,3077,14,58,3
0.09999999999999787,3077,15,58,4
0.10000000000000142,3078,0,58,19
0.09999999999999432,3078,1,58,14
0.10000000000000142,3078,2,58,2
0.09999999999999432,3078,3,58,11
0.10000000000000142,3078,4,58,3
0.10000000000000142,3078,5,58,9
0.10000000000000142,3078,6,58,19
0.10000000000000142,3078,7,58,9
0.10000000000000142,3078,8,58,8
0.09999999999999432,3078,9,58,10
0.10000000000000142,3078,10,58,3
0.09999999999999432,3078,11,58,3
0.10000000000000142,3078,12,58,15
0.10000000000000142,3078,13,58,8
0.10000000000000142,3078,14,58,4
0.09999999999999432,3078,15,58,7
0.10000000000000142,3079,0,58,2
0.10000000000000142,3079,1,58,2
0.10000000000000142,3079,2,58,2
0.10000000000000142,3079,3,58,19
0.09999999999999432,3079,4,58,6
0.10000000000000142,3079,5,58,8
0.10000000000000142,3079,6,58,2
0.10000000000000142,3079,7,58,1
0.10000000000000142,3079,8,58,7
0.10000000000000142,3079,9,58,12
0.10000000000000142,3079,10,58,14
0.10000000000000142,3079,11,58,15
0.10000000000000142,3079,12,58,16
0.10000000000000142,3079,13,58,4
0.10000000000000142,3079,14,58,12
0.09999999999999432,3079,15,58,26
0.10000000000000142,3080,0,58,10
0.09999999999999432,3080,1,58,8
0.10000000000000142,3080,2,58,19
0.06818181818182012,3080,3,58,27
0.10000000000000142,3080,4,58,13
0.10000000000000142,3080,5,58,10
0.10000000000000142,3080,6,58,22
0.10000000000000142,3080,7,58,11
0.09999999999999432,3080,8,58,11
0.10000000000000142,3080,9,58,36
0.10000000000000142,3080,10,58,11
0.10000000000000142,3080,11,58,6
0.10000000000000142,3080,12,58,19
0.10000000000000142,3080,13,58,27
0.10000000000000142,3080,14,58,19
0.10000000000000142,3080,15,58,19
0.09999999999999432,3081,0,58,25
0.10000000000000142,3081,1,58,19
0.10000000000000142,3081,2,58,21
0.10000000000000142,3081,3,58,19
0.10000000000000142,3081,4,58,16
0.10000000000000142,3081,5,58,24
0.10000000000000142,3081,6,58,29
0.10000000000000142,3081,7,58,24
0.10000000000000142,3081,8,58,17
0.10000000000000142,3081,9,58,23
0.09999999999999432,3081,10,58,26
0.09999999999999432,3081,11,58,18
0.10000000000000142,3081,12,58,15
0.09999999999999432,3081,13,58,20
0.10000000000000142,3081,14,58,27
0.09999999999999432,3081,15,58,22
0.10000000000000142,3082,0,58,21
0.09999999999999432,3082,1,58,25
0.10000000000000142,3082,2,58,19
0.10000000000000142,3082,3,58,12
0.10000000000000142,3082,4,58,24
0.10000000000000142,3082,5,58,16
0.10000000000000142,3082,6,58,16
0.10000000000000142,3082,7,58,26
0.10000000000000142,3082,8,58,17
0.09999999999999432,3082,9,58,16
0.10000000000000142,3082,10,58,17
0.10000000000000142,3082,11,58,18
0.10000000000000142,3082,12,58,19
0.09999999999999432,3082,13,58,24
0.10000000000000142,3082,14,58,13
0.09999999999999432,3082,15,58,13
0.10000000000000142,3083,0,58,27
0.10000000000000142,3083,1,58,30
0.10000000000000142,3083,2,58,26
0.10000000000000142,3083,3,58,33
0.10000000000000142,3083,4,58,36
0.10000000000000142,3083,5,58,22
0.10000000000000142,3083,6,58,21
0.10000000000000142,3083,7,58,33
0.10000000000000142,3083,8,58,23
0.10000000000000142,3083,9,58,12
0.10000000000000142,3083,10,58,29
0.10000000000000142,3083,11,58,23
0.10000000000000142,3083,12,58,20
0.10000000000000142,3083,13,58,21
0.10000000000000142,3083,14,58,37
0.09999999999999432,3083,15,58,32
0.10000000000000142,3084,0,58,22
0.10000000000000142,3084,1,58,16
0.09999999999999432,3084,2,58,15
0.10000000000000142,3084,3,58,18
0.10000000000000142,3084,4,58,18
0.09999999999999432,3084,5,58,14
0.10000000000000142,3084,6,58,14
0.10000000000000142,3084,7,58,18
0.10000000000000142,3084,8,58,18
0.10000000000000142,3084,9,58,19
0.10000000000000142,3084,10,58,18
0.10000000000000142,3084,11,58,19
0.10000000000000142,3084,12,58,19
0.09999999999999432,3084,13,58,23
0.10000000000000142,3084,14,58,29
0.10000000000000142,3084,15,58,15
0.10000000000000142,3085,0,58,16
0.10000000000000142,3085,1,58,30
0.09999999999999432,3085,2,58,34
0.10000000000000142,3085,3,58,22
0.10000000000000142,3085,4,58,15
0.10000000000000142,3085,5,58,28
0.10000000000000142,3085,6,58,24
0.10000000000000142,3085,7,58,31
0.10000000000000142,3085,8,58,32
0.10000000000000142,3085,9,58,34
0.10000000000000142,3085,10,58,19
0.09999999999999432,3085,11,58,21
0.10000000000000142,3085,12,58,26
0.10000000000000142,3085,13,58,21
0.10000000000000142,3085,14,58,22
0.10000000000000142,3085,15,58,25
0.10000000000000142,3086,0,58,28
0.10000000000000142,3086,1,58,22
0.09999999999999432,3086,2,58,30
0.10000000000000142,3086,3,58,29
0.10000000000000142,3086,4,58,22
0.10000000000000142,3086,5,58,29
0.10000000000000142,3086,6,58,34
0.10000000000000142,3086,7,58,29
0.10000000000000142,3086,8,58,31
0.10000000000000142,3086,9,58,36
0.10000000000000142,3086,10,58,27
0.10000000000000142,3086,11,58,28
0.10000000000000142,3086,12,58,33
0.10000000000000142,3086,13,58,38
0.10000000000000142,3086,14,58,28
0.09999999999999432,3086,15,58,21
0.10000000000000142,3087,0,58,29
0.09999999999999432,3087,1,58,36
0.10000000000000142,3087,2,58,43
0.10000000000000142,3087,3,58,16
0.10000000000000142,3087,4,58,35
0.10000000000000142,3087,5,58,25
0.10000000000000142,3087,6,58,18
0.10000000000000142,3087,7,58,30
0.10000000000000142,3087,8,58,20
0.10000000000000142,3087,9,58,22
0.09999999999999432,3087,10,58,27
0.10000000000000142,3087,11,58,22
0.10000000000000142,3087,12,58,19
0.10000000000000142,3087,13,58,19
0.10000000000000142,3087,14,58,22
0.10000000000000142,3087,15,58,19
0.09999999999999432,3088,0,58,25
0.10000000000000853,3088,1,58,16
0.09999999999999432,3088,2,58,22
0.09999999999999432,3088,3,58,18
0.09999999999999432,3088,4,58,22
0.09999999999999432,3088,5,58,23
0.09999999999999432,3088,6,58,13
0.10000000000000853,3088,7,58,19
0.09999999999999432,3088,8,58,15
0.09999999999999432,3088,9,58,26
0.09999999999999432,3088,10,58,18
0.10000000000000853,3088,11,58,15
0.10000000000000853,3088,12,58,22
0.09999999999999432,3088,13,58,20
0.09999999999999432,3088,14,58,19
0.09999999999999432,3088,15,58,22
0.10000000000000853,3089,0,58,18
0.09999999999999432,3089,1,58,14
0.09999999999999432,3089,2,58,19
0.09999999999999432,3089,3,58,21
0.09999999999999432,3089,4,58,30
0.09999999999999432,3089,5,58,22
0.09999999999999432,3089,6,58,15
0.09999999999999432,3089,7,58,23
0.09999999999999432,3089,8,58,21
0.10000000000000853,3089,9,58,29
0.09999999999999432,3089,10,58,29
0.10000000000000853,3089,11,58,24
0.09999999999999432,3089,12,58,26
0.10000000000000853,3089,13,58,14
0.10000000000000853,3089,14,58,19
0.09999999999999432,3089,15,58,20
0.10000000000000853,3090,0,58,18
0.09999999999999432,3090,1,58,29
0.09999999999999432,3090,2,58,21
0.10000000000000853,3090,3,58,21
0.09999999999999432,3090,4,58,22
0.09999999999999432,3090,5,58,21
0.09999999999999432,3090,6,58,15
0.09999999999999432,3090,7,58,18
0.09999999999999432,3090,8,58,12
0.10000000000000853,3090,9,58,20
0.09999999999999432,3090,10,58,31
0.09999999999999432,3090,11,58,18
0.09999999999999432,3090,12,58,20
0.09999999999999432,3090,13,58,12
0.09999999999999432,3090,14,58,16
0.09999999999999432,3090,15,58,23
0.10000000000000853,3091,0,58,14
0.10000000000000853,3091,1,58,19
0.10000000000000853,3091,2,58,16
0.10000000000000853,3091,3,58,20
0.09999999999999432,3091,4,58,21
0.10000000000000853,3091,5,58,23
0.10000000000000853,3091,6,58,22
0.10000000000000853,3091,7,58,25
0.10000000000000853,3091,8,58,21
0.09999999999999432,3091,9,58,23
0.10000000000000853,3091,10,58,10
0.10000000000000853,3091,11,58,10
0.09999999999999432,3091,12,58,28
0.09999999999999432,3091,13,58,22
0.10000000000000853,3091,14,58,20
0.10000000000000853,3091,15,58,16
0.10000000000000853,3092,0,58,16
0.10000000000000853,3092,1,58,22
0.09999999999999432,3092,2,58,21
0.09999999999999432,3092,3,58,23
0.10000000000000853,3092,4,58,15
0.09999999999999432,3092,5,58,19
0.09999999999999432,3092,6,58,17
0.09999999999999432,3092,7,58,19
0.09999999999999432,3092,8,58,22
0.09999999999999432,3092,9,58,16
0.09999999999999432,3092,10,58,29
0.09999999999999432,3092,11,58,19
0.09999999999999432,3092,12,58,25
0.09999999999999432,3092,13,58,25
0.10000000000000853,3092,14,58,21
0.09999999999999432,3092,15,58,19
0.09999999999999432,3093,0,58,30
0.10000000000000853,3093,1,58,17
0.09999999999999432,3093,2,58,23
0.10000000000000853,3093,3,58,16
0.10000000000000853,3093,4,58,13
0.09999999999999432,3093,5,58,22
0.10000000000000853,3093,6,58,21
0.09999999999999432,3093,7,58,25
0.10000000000000853,3093,8,58,24
0.10000000000000853,3093,9,58,16
0.09999999999999432,3093,10,58,16
0.10000000000000853,3093,11,58,22
0.10000000000000853,3093,12,58,26
0.10000000000000853,3093,13,58,18
0.10000000000000853,3093,14,58,12
0.09999999999999432,3093,15,58,24
0.10000000000000853,3094,0,58,17
0.09999999999999432,3094,1,58,14
0.09999999999999432,3094,2,58,28
0.10000000000000853,3094,3,58,21
0.09999999999999432,3094,4,58,29
0.10000000000000853,3094,5,58,21
0.09999999999999432,3094,6,58,30
0.09999999999999432,3094,7,58,34
0.09999999999999432,3094,8,58,20
0.09999999999999432,3094,9,58,28
0.10000000000000853,3094,10,58,28
0.10000000000000853,3094,11,58,26
0.09999999999999432,3094,12,58,24
0.10000000000000853,3094,13,58,25
0.10000000000000853,3094,14,58,44
0.09999999999999432,3094,15,58,4
0.03636363636363171,3095,0,58,32
0.09999999999999432,3095,1,58,12
0.09999999999999432,3095,2,58,28
0.09999999999999432,3095,3,58,6
0.10000000000000853,3095,4,58,19
0.09999999999999432,3095,5,58,36
0.09999999999999432,3095,6,58,5
0.10000000000000853,3095,7,58,11
0.036363636363645924,3095,8,58,25
0.09999999999999432,3095,9,58,27
0.10000000000000853,3095,10,58,28
0.09999999999999432,3095,11,58,42
0.10000000000000853,3095,12,58,29
0.10000000000000853,3095,13,58,28
0.10000000000000853,3095,14,58,21
0.09999999999999432,3095,15,58,22
0.09999999999999432,3096,0,58,27
0.10000000000000853,3096,1,58,20
0.09999999999999432,3096,2,58,21
0.09999999999999432,3096,3,58,21
0.10000000000000853,3096,4,58,35
0.09999999999999432,3096,5,58,24
0.10000000000000853,3096,6,58,25
0.09999999999999432,3096,7,58,25
0.10000000000000853,3096,8,58,16
0.09999999999999432,3096,9,58,21
0.09999999999999432,3096,10,58,26
0.09999999999999432,3096,11,58,26
0.09999999999999432,3096,12,58,31
0.10000000000000853,3096,13,58,29
0.10000000000000853,3096,14,58,19
0.09999999999999432,3096,15,58,27
0.09999999999999432,3097,0,58,34
0.09999999999999432,3097,1,58,25
0.10000000000000853,3097,2,58,27
0.10000000000000853,3097,3,58,18
0.10000000000000853,3097,4,58,12
0.09999999999999432,3097,5,58,13
0.09999999999999432,3097,6,58,22
0.10000000000000853,3097,7,58,28
0.09999999999999432,3097,8,58,20
0.10000000000000853,3097,9,58,24
0.09999999999999432,3097,10,58,28
0.10000000000000853,3097,11,58,15
0.09999999999999432,3097,12,58,22
0.10000000000000853,3097,13,58,26
0.09999999999999432,3097,14,58,18
0.09999999999999432,3097,15,58,20
0.10000000000000853,3098,0,58,21
0.10000000000000853,3098,1,58,19
0.09999999999999432,3098,2,58,23
0.09999999999999432,3098,3,58,20
0.10000000000000853,3098,4,58,29
0.09999999999999432,3098,5,58,24
0.09999999999999432,3098,6,58,27
0.10000000000000853,3098,7,58,29
0.10000000000000853,3098,8,58,23
0.09999999999999432,3098,9,58,47
0.10000000000000853,3098,10,58,19
0.09999999999999432,3098,11,58,21
0.09999999999999432,3098,12,58,19
0.09999999999999432,3098,13,58,30
0.09999999999999432,3098,14,58,23
0.09999999999999432,3098,15,58,34
0.09999999999999432,3099,0,58,30
0.09999999999999432,3099,1,58,18
0.09999999999999432,3099,2,58,16
0.09999999999999432,3099,3,58,24
0.10000000000000853,3099,4,58,23
0.09999999999999432,3099,5,58,25
0.09999999999999432,3099,6,58,6
0.10000000000000853,3099,7,58,19
0.10000000000000853,3099,8,58,14
0.10000000000000853,3099,9,58,2
0.10000000000000853,3099,10,58,13
0.10000000000000853,3099,11,58,7
0.09999999999999432,3099,12,58,9
0.10000000000000853,3099,13,58,5
0.09999999999999432,3099,14,58,14
0.09999999999999432,3099,15,58,6
0.09999999999999432,3100,0,58,1
0.09999999999999432,3100,1,58,20
0.09999999999999432,3100,2,58,29
0.10000000000002274,3100,3,58,28
0.09999999999999432,3100,4,58,25
0.09999999999999432,3100,5,58,17
0.09999999999999432,3100,6,58,31
0.09999999999999432,3100,7,58,15
0.09999999999999432,3100,8,58,14
0.09999999999999432,3100,9,58,13
0.09999999999999432,3100,10,58,14
0.09999999999999432,3100,11,58,15
0.09999999999999432,3100,12,58,12
0.09999999999999432,3100,13,58,23
0.09999999999999432,3100,14,58,22
0.09999999999999432,3100,15,58,20
0.10000000000002274,3101,0,58,16
0.09999999999999432,3101,1,58,23
0.09999999999999432,3101,2,58,20
0.09999999999999432,3101,3,58,32
0.09999999999999432,3101,4,58,32
0.09999999999999432,3101,5,58,27
0.10000000000002274,3101,6,58,21
0.09999999999999432,3101,7,58,21
0.09999999999999432,3101,8,58,15
0.09999999999999432,3101,9,58,37
0.10000000000002274,3101,10,58,26
0.09999999999999432,3101,11,58,17
0.09999999999999432,3101,12,58,19
0.09999999999999432,3101,13,58,18
0.09999999999999432,3101,14,58,17
0.06818181818181301,3101,15,58,17
0.09999999999999432,3102,0,58,18
0.10000000000002274,3102,1,58,46
0.09999999999999432,3102,2,58,30
0.10000000000002274,3102,3,58,10
0.09999999999999432,3102,4,58,38
0.10000000000002274,3102,5,58,15
0.10000000000002274,3102,6,58,29
0.09999999999999432,3102,7,58,24
0.09999999999999432,3102,8,58,26
0.09999999999999432,3102,9,58,17
0.09999999999999432,3102,10,58,17
0.09999999999999432,3102,11,58,27
0.09999999999999432,3102,12,58,21
0.10000000000002274,3102,13,58,26
0.09999999999999432,3102,14,58,22
0.09999999999999432,3102,15,58,17
0.09999999999999432,3103,0,58,13
0.09999999999999432,3103,1,58,13
0.10000000000002274,3103,2,58,38
0.10000000000002274,3103,3,58,32
0.10000000000002274,3103,4,58,13
0.09999999999999432,3103,5,58,16
0.10000000000002274,3103,6,58,15
0.09999999999999432,3103,7,58,36
0.09999999999999432,3103,8,58,38
0.09999999999999432,3103,9,58,19
0.10000000000002274,3103,10,58,32
0.09999999999999432,3103,11,58,33
0.10000000000002274,3103,12,58,35
0.09999999999999432,3103,13,58,26
0.10000000000002274,3103,14,58,19
0.09999999999999432,3103,15,58,29
0.09999999999999432,3104,0,58,19
0.09999999999999432,3104,1,58,32
0.09999999999999432,3104,2,58,33
0.09999999999999432,3104,3,58,18
0.09999999999999432,3104,4,58,25
0.09999999999999432,3104,5,58,16
0.09999999999999432,3104,6,58,14
0.09999999999999432,3104,7,58,13
0.09999999999999432,3104,8,58,28
0.10000000000002274,3104,9,58,22
0.09999999999999432,3104,10,58,27
0.09999999999999432,3104,11,58,37
0.09999999999999432,3104,12,58,20
0.10000000000002274,3104,13,58,13
0.10000000000002274,3104,14,58,31
0.09999999999999432,3104,15,58,19
0.09999999999999432,3105,0,58,26
0.09999999999999432,3105,1,58,26
0.09999999999999432,3105,2,58,21
0.09999999999999432,3105,3,58,17
0.09999999999999432,3105,4,58,27
0.10000000000002274,3105,5,58,14
0.10000000000002274,3105,6,58,21
0.09999999999999432,3105,7,58,25
0.09999999999999432,3105,8,58,16
0.09999999999999432,3105,9,58,17
0.10000000000002274,3105,10,58,42
0.09999999999999432,3105,11,58,18
0.10000000000002274,3105,12,58,29
0.09999999999999432,3105,13,58,21
0.09999999999999432,3105,14,58,17
0.09999999999999432,3105,15,58,18
0.09999999999999432,3106,0,58,34
0.10000000000002274,3106,1,58,21
0.09999999999999432,3106,2,58,34
0.10000000000002274,3106,3,58,44
0.09999999999999432,3106,4,58,22
0.10000000000002274,3106,5,58,22
0.09999999999999432,3106,6,58,16
0.10000000000002274,3106,7,58,26
0.09999999999999432,3106,8,58,26
0.09999999999999432,3106,9,58,29
0.09999999999999432,3106,10,58,19
0.09999999999999432,3106,11,58,30
0.09999999999999432,3106,12,58,31
0.10000000000002274,3106,13,58,29
0.09999999999999432,3106,14,58,34
0.09999999999999432,3106,15,58,12
0.09999999999999432,3107,0,58,44
0.09999999999999432,3107,1,58,50
0.09999999999999432,3107,2,58,62
0.10000000000002274,3107,3,58,59
0.09999999999999432,3107,4,58,43
0.06818181818181301,3107,5,58,41
0.09999999999999432,3107,6,58,45
0.09999999999999432,3107,7,58,48
0.09999999999999432,3107,8,58,36
0.09999999999999432,3107,9,58,14
0.09999999999999432,3107,10,58,26
0.09999999999999432,3107,11,58,27
0.09999999999999432,3107,12,58,32
0.09999999999999432,3107,13,58,33
0.10000000000002274,3107,14,58,21
0.09999999999999432,3107,15,58,24
0.09999999999999432,3108,0,58,44
0.09999999999999432,3108,1,58,48
0.09999999999999432,3108,2,58,25
0.09999999999999432,3108,3,58,29
0.09999999999999432,3108,4,58,36
0.09999999999999432,3108,5,58,22
0.09999999999999432,3108,6,58,25
0.10000000000002274,3108,7,58,25
0.09999999999999432,3108,8,58,31
0.09999999999999432,3108,9,58,20
0.09999999999999432,3108,10,58,29
0.09999999999999432,3108,11,58,26
0.09999999999999432,3108,12,58,30
0.10000000000002274,3108,13,58,18
0.10000000000002274,3108,14,58,25
0.09999999999999432,3108,15,58,22
0.10000000000002274,3109,0,58,30
0.09999999999999432,3109,1,58,36
0.10000000000002274,3109,2,58,22
0.09999999999999432,3109,3,58,30
0.09999999999999432,3109,4,58,26
0.09999999999999432,3109,5,58,28
0.09999999999999432,3109,6,58,13
0.09999999999999432,3109,7,58,20
0.09999999999999432,3109,8,58,28
0.09999999999999432,3109,9,58,16
0.10000000000002274,3109,10,58,23
0.09999999999999432,3109,11,58,37
0.09999999999999432,3109,12,58,35
0.10000000000002274,3109,13,58,22
0.09999999999999432,3109,14,58,31
0.09999999999999432,3109,15,58,30
0.10000000000002274,3110,0,58,30
0.09999999999999432,3110,1,58,16
0.09999999999999432,3110,2,58,29
0.09999999999999432,3110,3,58,20
0.10000000000002274,3110,4,58,27
0.09999999999999432,3110,5,58,30
0.09999999999999432,3110,6,58,22
0.09999999999999432,3110,7,58,34
0.09999999999999432,3110,8,58,17
0.10000000000002274,3110,9,58,26
0.09999999999999432,3110,10,58,33
0.10000000000002274,3110,11,58,27
0.09999999999999432,3110,12,58,22
0.09999999999999432,3110,13,58,40
0.09999999999999432,3110,14,58,23
0.09999999999999432,3110,15,58,29
0.09999999999999432,3111,0,58,27
0.09999999999999432,3111,1,58,20
0.10000000000002274,3111,2,58,31
0.10000000000002274,3111,3,58,37
0.09999999999999432,3111,4,58,40
0.10000000000002274,3111,5,58,24
0.09999999999999432,3111,6,58,43
0.09999999999999432,3111,7,58,24
0.09999999999999432,3111,8,58,27
0.09999999999999432,3111,9,58,37
0.09999999999999432,3111,10,58,36
0.09999999999999432,3111,11,58,27
0.10000000000002274,3111,12,58,28
0.09999999999999432,3111,13,58,15
0.10000000000002274,3111,14,58,18
0.09999999999999432,3111,15,58,20
0.09999999999999432,3112,0,58,17
0.09999999999999432,3112,1,58,21
0.09999999999999432,3112,2,58,19
0.09999999999999432,3112,3,58,15
0.09999999999999432,3112,4,58,18
0.09999999999999432,3112,5,58,20
0.09999999999999432,3112,6,58,12
0.09999999999999432,3112,7,58,28
0.09999999999999432,3112,8,58,19
0.09999999999999432,3112,9,58,18
0.10000000000002274,3112,10,58,20
0.09999999999999432,3112,11,58,12
0.10000000000002274,3112,12,58,17
0.09999999999999432,3112,13,58,13
0.10000000000002274,3112,14,58,20
0.09999999999999432,3112,15,58,18
0.10000000000002274,3113,0,58,5
0.09999999999999432,3113,1,58,8
0.09999999999999432,3113,2,58,5
0.10000000000002274,3113,3,58,16
0.09999999999999432,3113,4,58,8
0.09999999999999432,3113,5,58,5
0.09999999999999432,3113,6,58,12
0.09999999999999432,3113,7,58,13
0.09999999999999432,3113,8,58,9
0.09999999999999432,3113,9,58,21
0.09999999999999432,3113,10,58,16
0.10000000000002274,3113,11,58,7
0.09999999999999432,3113,12,58,15
0.09999999999999432,3113,13,58,7
0.10000000000002274,3113,14,58,5
0.09999999999999432,3113,15,58,16
0.09999999999999432,3114,0,58,18
0.09999999999999432,3114,1,58,6
0.09999999999999432,3114,2,58,18
0.09999999999999432,3114,3,58,6
0.09999999999999432,3114,4,58,6
0.09999999999999432,3114,5,58,4
0.09999999999999432,3114,6,58,4
0.09999999999999432,3114,7,58,6
0.10000000000002274,3114,8,58,5
0.10000000000002274,3114,9,58,12
0.09999999999999432,3114,10,58,10
0.09999999999999432,3114,11,58,4
0.09999999999999432,3114,12,58,12
0.10000000000002274,3114,13,58,15
0.09999999999999432,3114,14,58,8
0.09999999999999432,3114,15,58,13
0.09999999999999432,3115,0,58,5
0.09999999999999432,3115,1,58,4
0.09999999999999432,3115,2,58,16
0.10000000000002274,3115,3,58,10
0.09999999999999432,3115,4,58,21
0.09999999999999432,3115,5,58,14
0.10000000000002274,3115,6,58,16
0.09999999999999432,3115,7,58,15
0.09999999999999432,3115,8,58,3
0.09999999999999432,3115,9,58,21
0.09999999999999432,3115,10,58,6
0.10000000000002274,3115,11,58,9
0.09999999999999432,3115,12,58,4
0.09999999999999432,3115,13,58,8
0.09999999999999432,3115,14,58,20
0.09999999999999432,3115,15,58,11
0.09999999999999432,3116,0,58,9
0.10000000000002274,3116,1,58,5
0.09999999999999432,3116,2,58,22
0.09999999999999432,3116,3,58,7
0.10000000000002274,3116,4,58,6
0.09999999999999432,3116,5,58,8
0.09999999999999432,3116,6,58,5
0.10000000000002274,3116,7,58,5
0.10000000000002274,3116,8,58,10
0.09999999999999432,3116,9,58,6
0.09999999999999432,3116,10,58,5
0.09999999999999432,3116,11,58,7
0.09999999999999432,3116,12,58,23
0.09999999999999432,3116,13,58,23
0.09999999999999432,3116,14,58,21
0.10000000000002274,3116,15,58,13
0.09999999999999432,3117,0,58,19
0.09999999999999432,3117,1,58,25
0.09999999999999432,3117,2,58,19
0.09999999999999432,3117,3,58,27
0.10000000000002274,3117,4,58,15
0.09999999999999432,3117,5,58,22
0.09999999999999432,3117,6,58,21
0.09999999999999432,3117,7,58,11
0.10000000000002274,3117,8,58,21
0.09999999999999432,3117,9,58,15
0.09999999999999432,3117,10,58,13
0.09999999999999432,3117,11,58,15
0.10000000000002274,3117,12,58,13
0.10000000000002274,3117,13,58,23
0.09999999999999432,3117,14,58,14
0.10000000000002274,3117,15,58,22
0.09999999999999432,3118,0,58,12
0.09999999999999432,3118,1,58,12
0.09999999999999432,3118,2,58,7
0.10000000000002274,3118,3,58,19
0.09999999999999432,3118,4,58,31
0.09999999999999432,3118,5,58,12
0.09999999999999432,3118,6,58,17
0.09999999999999432,3118,7,58,22
0.09999999999999432,3118,8,58,54
0.10000000000000009,3118,9,91,14
0.10000000000000009,3118,10,91,15
0.05681818181818166,3118,11,91,15
0.09999999999999964,3118,12,91,13
0.09999999999999964,3118,13,91,12
0.09999999999999964,3118,14,91,14
0.10000000000000053,3118,15,91,13
0.09999999999999964,3119,0,91,14
0.09999999999999964,3119,1,91,14
0.09999999999999964,3119,2,91,33
0.09999999999999964,3119,3,91,34
0.09999999999999964,3119,4,91,30
0.09999999999999964,3119,5,91,37
0.10000000000000142,3119,6,91,37
0.10000000000000142,3119,7,91,34
0.10000000000000142,3119,8,91,1
0.10000000000000142,3119,9,91,19
0.09999999999999787,3119,10,91,4
0.10000000000000142,3119,11,91,21
0.10000000000000142,3119,12,91,19
0.09999999999999787,3119,13,91,3
0.10000000000000142,3119,14,91,1
0.09999999999999787,3119,15,91,1
0.10000000000000142,3120,0,91,18
0.09999999999999787,3120,1,91,5
0.10000000000000142,3120,2,91,16
0.09999999999999787,3120,3,91,1
0.10000000000000142,3120,4,91,23
0.09999999999999787,3120,5,91,5
0.10000000000000142,3120,6,91,1
0.09999999999999787,3120,7,91,8
0.10000000000000142,3120,8,91,18
0.09999999999999787,3120,9,91,6
0.10000000000000142,3120,10,91,20
0.09999999999999787,3120,11,91,1
0.10000000000000142,3120,12,91,19
0.09999999999999787,3120,13,91,5
0.10000000000000142,3120,14,91,1
0.09999999999999787,3120,15,91,1
0.10000000000000142,3121,0,91,33
0.09999999999999787,3121,1,91,26
0.10000000000000142,3121,2,91,11
0.10000000000000142,3121,3,91,32
0.10000000000000142,3121,4,91,34
0.09999999999999787,3121,5,91,6
0.10000000000000142,3121,6,91,13
0.10000000000000142,3121,7,91,14
0.10000000000000142,3121,8,91,17
0.10000000000000142,3121,9,91,4
0.10000000000000142,3121,10,91,8
0.10000000000000142,3121,11,91,19
0.10000000000000142,3121,12,91,22
0.10000000000000142,3121,13,91,11
0.10000000000000142,3121,14,91,17
0.10000000000000142,3121,15,91,18
0.09999999999999787,3122,0,91,12
0.10000000000000142,3122,1,91,20
0.10000000000000142,3122,2,91,16
0.10000000000000142,3122,3,91,13
0.10000000000000142,3122,4,91,14
0.10000000000000142,3122,5,91,19
0.10000000000000142,3122,6,91,7
0.10000000000000142,3122,7,91,13
0.10000000000000142,3122,8,91,15
0.10000000000000142,3122,9,91,21
0.10000000000000142,3122,10,91,12
0.09999999999999787,3122,11,91,1
0.09999999999999787,3122,12,91,17
0.10000000000000142,3122,13,91,9
0.10000000000000142,3122,14,91,17
0.10000000000000142,3122,15,91,1
0.10000000000000142,3123,0,91,12
0.09999999999999787,3123,1,91,15
0.10000000000000142,3123,2,91,27
0.10000000000000142,3123,3,91,16
0.10000000000000142,3123,4,91,13
0.10000000000000142,3123,5,91,5
0.10000000000000142,3123,6,91,21
0.09999999999999432,3123,7,91,15
0.09999999999999432,3123,8,91,27
0.10000000000000142,3123,9,91,16
0.10000000000000142,3123,10,91,19
0.10000000000000142,3123,11,91,17
0.09999999999999432,3123,12,91,29
0.10000000000000142,3123,13,91,16
0.10000000000000142,3123,14,91,23
0.10000000000000142,3123,15,91,15
0.09999999999999432,3124,0,91,39
0.09999999999999432,3124,1,91,18
0.10000000000000142,3124,2,91,14
0.10000000000000142,3124,3,91,5
0.10000000000000142,3124,4,91,24
0.09999999999999432,3124,5,91,16
0.10000000000000142,3124,6,91,12
0.10000000000000142,3124,7,91,16
0.10000000000000142,3124,8,91,26
0.10000000000000142,3124,9,91,16
0.09999999999999432,3124,10,91,19
0.10000000000000142,3124,11,91,16
0.10000000000000142,3124,12,91,17
0.10000000000000142,3124,13,91,14
0.09999999999999432,3124,14,91,26
0.10000000000000142,3124,15,91,20
0.09999999999999432,3125,0,91,5
0.10000000000000142,3125,1,91,26
0.10000000000000142,3125,2,91,6
0.10000000000000142,3125,3,91,3
0.10000000000000142,3125,4,91,18
0.10000000000000142,3125,5,91,1
0.09999999999999432,3125,6,91,31
0.10000000000000142,3125,7,91,4
0.10000000000000142,3125,8,91,36
0.09999999999999432,3125,9,91,1
0.10000000000000142,3125,10,91,30
0.10000000000000142,3125,11,91,4
0.10000000000000142,3125,12,91,42
0.10000000000000142,3125,13,91,1
0.10000000000000142,3125,14,91,38
0.10000000000000142,3125,15,91,5
0.10000000000000142,3126,0,91,26
0.09999999999999432,3126,1,91,2
0.10000000000000142,3126,2,91,33
0.09999999999999432,3126,3,91,4
0.10000000000000142,3126,4,91,25
0.10000000000000142,3126,5,91,1
0.10000000000000142,3126,6,91,32
0.10000000000000142,3126,7,91,4
0.10000000000000142,3126,8,91,30
0.10000000000000142,3126,9,91,1
0.10000000000000142,3126,10,91,32
0.09999999999999432,3126,11,91,6
0.10000000000000142,3126,12,91,40
0.09999999999999432,3126,13,91,1
0.10000000000000142,3126,14,91,18
0.10000000000000142,3126,15,91,4
0.10000000000000142,3127,0,91,38
0.10000000000000142,3127,1,91,1
0.10000000000000142,3127,2,91,35
0.09999999999999432,3127,3,91,5
0.10000000000000142,3127,4,91,15
0.09999999999999432,3127,5,91,1
0.10000000000000142,3127,6,91,34
0.10000000000000142,3127,7,91,4
0.10000000000000142,3127,8,91,28
0.10000000000000142,3127,9,91,2
0.10000000000000142,3127,10,91,36
0.10000000000000142,3127,11,91,4
0.10000000000000142,3127,12,91,33
0.09999999999999432,3127,13,91,1
0.10000000000000142,3127,14,91,35
0.09999999999999432,3127,15,91,3
0.10000000000000142,3128,0,91,33
0.10000000000000142,3128,1,91,1
0.10000000000000142,3128,2,91,33
0.10000000000000142,3128,3,91,4
0.10000000000000142,3128,4,91,32
0.09999999999999432,3128,5,91,1
0.10000000000000142,3128,6,91,32
0.09999999999999432,3128,7,91,5
0.10000000000000142,3128,8,91,33
0.09999999999999432,3128,9,91,1
0.10000000000000142,3128,10,91,16
0.10000000000000142,3128,11,91,6
0.10000000000000142,3128,12,91,43
0.10000000000000142,3128,13,91,1
0.10000000000000142,3128,14,91,32
0.09999999999999432,3128,15,91,6
0.10000000000000142,3129,0,91,20
0.09999999999999432,3129,1,91,1
0.10000000000000142,3129,2,91,31
0.10000000000000142,3129,3,91,4
0.10000000000000142,3129,4,91,31
0.10000000000000142,3129,5,91,1
0.10000000000000142,3129,6,91,33
0.09999999999999432,3129,7,91,5
0.10000000000000142,3129,8,91,30
0.10000000000000142,3129,9,91,2
0.10000000000000142,3129,10,91,35
0.09999999999999432,3129,11,91,4
0.10000000000000142,3129,12,91,29
0.10000000000000142,3129,13,91,1
0.10000000000000142,3129,14,91,32
0.10000000000000142,3129,15,91,5
0.10000000000000142,3130,0,91,20
0.10000000000000142,3130,1,91,2
0.10000000000000142,3130,2,91,33
0.09999999999999432,3130,3,91,6
0.10000000000000142,3130,4,91,37
0.09999999999999432,3130,5,91,1
0.10000000000000142,3130,6,91,17
0.10000000000000142,3130,7,91,5
0.10000000000000142,3130,8,91,11
0.10000000000000142,3130,9,91,1
0.10000000000000142,3130,10,91,32
0.09999999999999432,3130,11,91,5
0.10000000000000142,3130,12,91,33
0.10000000000000142,3130,13,91,1
0.10000000000000142,3130,14,91,33
0.10000000000000142,3130,15,91,4
0.10000000000000142,3131,0,91,40
0.10000000000000142,3131,1,91,1
0.10000000000000142,3131,2,91,33
0.09999999999999432,3131,3,91,5
0.10000000000000142,3131,4,91,34
0.09999999999999432,3131,5,91,1
0.10000000000000142,3131,6,91,30
0.09999999999999432,3131,7,91,4
0.10000000000000142,3131,8,91,40
0.10000000000000142,3131,9,91,2
0.10000000000000142,3131,10,91,31
0.09999999999999432,3131,11,91,6
0.10000000000000142,3131,12,91,26
0.10000000000000142,3131,13,91,1
0.10000000000000142,3131,14,91,34
0.09999999999999432,3131,15,91,5
0.10000000000000142,3132,0,91,24
0.09999999999999432,3132,1,91,1
0.10000000000000142,3132,2,91,16
0.10000000000000142,3132,3,91,7
0.10000000000000142,3132,4,91,34
0.09999999999999432,3132,5,91,1
0.10000000000000142,3132,6,91,35
0.09999999999999432,3132,7,91,5
0.10000000000000142,3132,8,91,18
0.09999999999999432,3132,9,91,2
0.10000000000000142,3132,10,91,32
0.10000000000000142,3132,11,91,7
0.10000000000000142,3132,12,91,42
0.10000000000000142,3132,13,91,1
0.10000000000000142,3132,14,91,36
0.09999999999999432,3132,15,91,4
0.10000000000000142,3133,0,91,25
0.10000000000000142,3133,1,91,1
0.10000000000000142,3133,2,91,10
0.09999999999999432,3133,3,91,1
0.09999999999999432,3133,4,91,1
0.10000000000000142,3133,5,91,33
0.10000000000000142,3133,6,91,23
0.10000000000000142,3133,7,91,30
0.09999999999999432,3133,8,91,19
0.10000000000000142,3133,9,91,5
0.10000000000000142,3133,10,91,33
0.10000000000000142,3133,11,91,22
0.10000000000000142,3133,12,91,5
0.10000000000000142,3133,13,91,30
0.10000000000000142,3133,14,91,3
0.10000000000000142,3133,15,91,26
0.09999999999999432,3134,0,91,4
0.10000000000000142,3134,1,91,32
0.09999999999999432,3134,2,91,2
0.10000000000000142,3134,3,91,23
0.09999999999999432,3134,4,91,4
0.10000000000000142,3134,5,91,31
0.10000000000000142,3134,6,91,2
0.10000000000000142,3134,7,91,26
0.10000000000000142,3134,8,91,4
0.10000000000000853,3134,9,91,35
0.09999999999999432,3134,10,91,2
0.09999999999999432,3134,11,91,23
0.09999999999999432,3134,12,91,4
0.10000000000000853,3134,13,91,32
0.09999999999999432,3134,14,91,3
0.09999999999999432,3134,15,91,26
0.10000000000000853,3135,0,91,4
0.10000000000000853,3135,1,91,33
0.09999999999999432,3135,2,91,2
0.09999999999999432,3135,3,91,16
0.10000000000000853,3135,4,91,3
0.09999999999999432,3135,5,91,28
0.09999999999999432,3135,6,91,2
0.09999999999999432,3135,7,91,24
0.10000000000000853,3135,8,91,4
0.10000000000000853,3135,9,91,31
0.09999999999999432,3135,10,91,2
0.09999999999999432,3135,11,91,24
0.10000000000000853,3135,12,91,4
0.10000000000000853,3135,13,91,27
0.09999999999999432,3135,14,91,2
0.09999999999999432,3135,15,91,26
0.10000000000000853,3136,0,91,4
0.10000000000000853,3136,1,91,36
0.09999999999999432,3136,2,91,3
0.09999999999999432,3136,3,91,23
0.10000000000000853,3136,4,91,4
0.10000000000000853,3136,5,91,29
0.09999999999999432,3136,6,91,2
0.09999999999999432,3136,7,91,27
0.10000000000000853,3136,8,91,4
0.10000000000000853,3136,9,91,34
0.09999999999999432,3136,10,91,2
0.09999999999999432,3136,11,91,23
0.10000000000000853,3136,12,91,4
0.10000000000000853,3136,13,91,34
0.09999999999999432,3136,14,91,3
0.09999999999999432,3136,15,91,20
0.10000000000000853,3137,0,91,4
0.10000000000000853,3137,1,91,34
0.09999999999999432,3137,2,91,2
0.09999999999999432,3137,3,91,24
0.10000000000000853,3137,4,91,4
0.10000000000000853,3137,5,91,26
0.09999999999999432,3137,6,91,2
0.09999999999999432,3137,7,91,25
0.10000000000000853,3137,8,91,4
0.10000000000000853,3137,9,91,31
0.09999999999999432,3137,10,91,2
0.09999999999999432,3137,11,91,24
0.09999999999999432,3137,12,91,4
0.10000000000000853,3137,13,91,30
0.09999999999999432,3137,14,91,3
0.09999999999999432,3137,15,91,27
0.10000000000000853,3138,0,91,4
0.10000000000000853,3138,1,91,33
0.09999999999999432,3138,2,91,2
0.09999999999999432,3138,3,91,22
0.10000000000000853,3138,4,91,4
0.10000000000000853,3138,5,91,29
0.09999999999999432,3138,6,91,2
0.09999999999999432,3138,7,91,26
0.10000000000000853,3138,8,91,4
0.10000000000000853,3138,9,91,33
0.09999999999999432,3138,10,91,2
0.09999999999999432,3138,11,91,16
0.10000000000000853,3138,12,91,4
0.09999999999999432,3138,13,91,29
0.09999999999999432,3138,14,91,2
0.09999999999999432,3138,15,91,25
0.10000000000000853,3139,0,91,4
0.10000000000000853,3139,1,91,32
0.09999999999999432,3139,2,91,2
0.09999999999999432,3139,3,91,24
0.10000000000000853,3139,4,91,4
0.10000000000000853,3139,5,91,29
0.09999999999999432,3139,6,91,2
0.09999999999999432,3139,7,91,24
0.10000000000000853,3139,8,91,4
0.10000000000000853,3139,9,91,33
0.09999999999999432,3139,10,91,3
0.09999999999999432,3139,11,91,23
0.10000000000000853,3139,12,91,4
0.10000000000000853,3139,13,91,30
0.09999999999999432,3139,14,91,2
0.09999999999999432,3139,15,91,27
0.10000000000000853,3140,0,91,4
0.10000000000000853,3140,1,91,35
0.09999999999999432,3140,2,91,2
0.09999999999999432,3140,3,91,24
0.10000000000000853,3140,4,91,4
0.10000000000000853,3140,5,91,29
0.09999999999999432,3140,6,91,2
0.09999999999999432,3140,7,91,19
0.10000000000000853,3140,8,91,4
0.10000000000000853,3140,9,91,2
0.10000000000000853,3140,10,91,34
0.09999999999999432,3140,11,91,24
0.10000000000000853,3140,12,91,32
0.09999999999999432,3140,13,91,26
0.10000000000000853,3140,14,91,37
0.09999999999999432,3140,15,91,24
0.10000000000000853,3141,0,91,5
0.10000000000000853,3141,1,91,32
0.09999999999999432,3141,2,91,3
0.09999999999999432,3141,3,91,28
0.09999999999999432,3141,4,91,4
0.10000000000000853,3141,5,91,35
0.09999999999999432,3141,6,91,2
0.09999999999999432,3141,7,91,16
0.10000000000000853,3141,8,91,3
0.09999999999999432,3141,9,91,29
0.09999999999999432,3141,10,91,2
0.09999999999999432,3141,11,91,26
0.10000000000000853,3141,12,91,4
0.10000000000000853,3141,13,91,31
0.09999999999999432,3141,14,91,2
0.09999999999999432,3141,15,91,24
0.10000000000000853,3142,0,91,4
0.10000000000000853,3142,1,91,29
0.09999999999999432,3142,2,91,3
0.09999999999999432,3142,3,91,25
0.10000000000000853,3142,4,91,4
0.10000000000000853,3142,5,91,36
0.09999999999999432,3142,6,91,2
0.09999999999999432,3142,7,91,24
0.10000000000000853,3142,8,91,4
0.10000000000000853,3142,9,91,29
0.09999999999999432,3142,10,91,2
0.09999999999999432,3142,11,91,25
0.10000000000000853,3142,12,91,4
0.10000000000000853,3142,13,91,31
0.09999999999999432,3142,14,91,2
0.09999999999999432,3142,15,91,24
0.10000000000000853,3143,0,91,4
0.10000000000000853,3143,1,91,32
0.09999999999999432,3143,2,91,3
0.09999999999999432,3143,3,91,22
0.10000000000000853,3143,4,91,4
0.09999999999999432,3143,5,91,35
0.09999999999999432,3143,6,91,2
0.09999999999999432,3143,7,91,22
0.10000000000000853,3143,8,91,4
0.10000000000000853,3143,9,91,29
0.09999999999999432,3143,10,91,2
0.09999999999999432,3143,11,91,27
0.10000000000000853,3143,12,91,4
0.10000000000000853,3143,13,91,30
0.09999999999999432,3143,14,91,2
0.09999999999999432,3143,15,91,23
0.10000000000000853,3144,0,91,4
0.10000000000000853,3144,1,91,30
0.09999999999999432,3144,2,91,3
0.09999999999999432,3144,3,91,26
0.10000000000000853,3144,4,91,4
0.10000000000000853,3144,5,91,33
0.09999999999999432,3144,6,91,29
0.09999999999999432,3144,7,91,24
0.10000000000000853,3144,8,91,29
0.09999999999999432,3144,9,91,16
0.09999999999999432,3144,10,91,5
0.09999999999999432,3144,11,91,22
0.09999999999999432,3144,12,91,4
0.09999999999999432,3144,13,91,19
0.09999999999999432,3144,14,91,5
0.09999999999999432,3144,15,91,19
0.10000000000000853,3145,0,91,2
0.09999999999999432,3145,1,91,17
0.09999999999999432,3145,2,91,5
0.10000000000000853,3145,3,91,5
0.10000000000000853,3145,4,91,5
0.09999999999999432,3145,5,91,18
0.10000000000000853,3145,6,91,5
0.09999999999999432,3145,7,91,34
0.10000000000000853,3145,8,91,29
0.10000000000000853,3145,9,91,14
0.09999999999999432,3145,10,91,19
0.10000000000000853,3145,11,91,9
0.09999999999999432,3145,12,91,20
0.10000000000000853,3145,13,91,10
0.09999999999999432,3145,14,91,20
0.10000000000000853,3145,15,91,8
0.09999999999999432,3146,0,91,20
0.09999999999999432,3146,1,91,10
0.09999999999999432,3146,2,91,21
0.10000000000000853,3146,3,91,10
0.09999999999999432,3146,4,91,20
0.09999999999999432,3146,5,91,10
0.09999999999999432,3146,6,91,17
0.10000000000000853,3146,7,91,9
0.09999999999999432,3146,8,91,18
0.10000000000000853,3146,9,91,10
0.10000000000000853,3146,10,91,20
0.10000000000000853,3146,11,91,10
0.09999999999999432,3146,12,91,20
0.10000000000000853,3146,13,91,10
0.09999999999999432,3146,14,91,18
0.10000000000000853,3146,15,91,9
0.09999999999999432,3147,0,91,21
0.10000000000000853,3147,1,91,10
0.09999999999999432,3147,2,91,20
0.09999999999999432,3147,3,91,9
0.09999999999999432,3147,4,91,22
0.09999999999999432,3147,5,91,19
0.09999999999999432,3147,6,91,18
0.09999999999999432,3147,7,91,20
0.09999999999999432,3147,8,91,13
0.09999999999999432,3147,9,91,22
0.09999999999999432,3147,10,91,11
0.10000000000000853,3147,11,91,28
0.09999999999999432,3147,12,91,15
0.09999999999999432,3147,13,91,14
0.10000000000000853,3147,14,91,8
0.09999999999999432,3147,15,91,16
0.09999999999999432,3148,0,91,2
0.09999999999999432,3148,1,91,17
0.10000000000000853,3148,2,91,2
0.09999999999999432,3148,3,91,1
0.09999999999999432,3148,4,91,1
0.09999999999999432,3148,5,91,19
0.10000000000000853,3148,6,91,5
0.10000000000000853,3148,7,91,12
0.09999999999999432,3148,8,91,4
0.09999999999999432,3148,9,91,18
0.09999999999999432,3148,10,91,1
0.09999999999999432,3148,11,91,1
0.09999999999999432,3148,12,91,1
0.09999999999999432,3148,13,91,17
0.10000000000000853,3148,14,91,5
0.10000000000000853,3148,15,91,9
0.09999999999999432,3149,0,91,6
0.09999999999999432,3149,1,91,21
0.09999999999999432,3149,2,91,2
0.09999999999999432,3149,3,91,2
0.09999999999999432,3149,4,91,2
0.09999999999999432,3149,5,91,19
0.10000000000000853,3149,6,91,6
0.10000000000000853,3149,7,91,21
0.09999999999999432,3149,8,91,6
0.09999999999999432,3149,9,91,17
0.09999999999999432,3149,10,91,3
0.09999999999999432,3149,11,91,3
0.09999999999999432,3149,12,91,2
0.10000000000000853,3149,13,91,18
0.10000000000000853,3149,14,91,7
0.09999999999999432,3149,15,91,16
0.09999999999999432,3150,0,91,4
0.09999999999999432,3150,1,91,18
0.09999999999999432,3150,2,91,2
0.09999999999999432,3150,3,91,1
0.09999999999999432,3150,4,91,1
0.10000000000002274,3150,5,91,16
0.09999999999999432,3150,6,91,5
0.09999999999999432,3150,7,91,16
0.10000000000002274,3150,8,91,4
0.09999999999999432,3150,9,91,18
0.09999999999999432,3150,10,91,1
0.10000000000002274,3150,11,91,1
0.09999999999999432,3150,12,91,2
0.09999999999999432,3150,13,91,16
0.09999999999999432,3150,14,91,6
0.10000000000002274,3150,15,91,12
0.09999999999999432,3151,0,91,3
0.10000000000002274,3151,1,91,19
0.09999999999999432,3151,2,91,3
0.09999999999999432,3151,3,91,5
0.10000000000002274,3151,4,91,4
0.09999999999999432,3151,5,91,24
0.09999999999999432,3151,6,91,10
0.09999999999999432,3151,7,91,18
0.09999999999999432,3151,8,91,26
0.09999999999999432,3151,9,91,2
0.09999999999999432,3151,10,91,27
0.09999999999999432,3151,11,91,10
0.09999999999999432,3151,12,91,18
0.09999999999999432,3151,13,91,12
0.10000000000002274,3151,14,91,1
0.09999999999999432,3151,15,91,8
0.09999999999999432,3152,0,91,1
0.09999999999999432,3152,1,91,25
0.09999999999999432,3152,2,91,10
0.09999999999999432,3152,3,91,1
0.10000000000002274,3152,4,91,25
0.10000000000002274,3152,5,91,13
0.09999999999999432,3152,6,91,7
0.09999999999999432,3152,7,91,13
0.09999999999999432,3152,8,91,5
0.09999999999999432,3152,9,91,6
0.09999999999999432,3152,10,91,7
0.09999999999999432,3152,11,91,5
0.09999999999999432,3152,12,91,6
0.09999999999999432,3152,13,91,10
0.09999999999999432,3152,14,91,1
0.09999999999999432,3152,15,91,5
0.09999999999999432,3153,0,91,1
0.10000000000002274,3153,1,91,1
0.09999999999999432,3153,2,91,1
0.09999999999999432,3153,3,91,6
0.09999999999999432,3153,4,91,1
0.10000000000002274,3153,5,91,11
0.09999999999999432,3153,6,91,5
0.09999999999999432,3153,7,91,6
0.09999999999999432,3153,8,91,11
0.09999999999999432,3153,9,91,5
0.10000000000002274,3153,10,91,1
0.09999999999999432,3153,11,91,6
0.10000000000002274,3153,12,91,12
0.09999999999999432,3153,13,91,5
0.09999999999999432,3153,14,91,1
0.09999999999999432,3153,15,91,8
0.09999999999999432,3154,0,91,11
0.09999999999999432,3154,1,91,5
0.10000000000002274,3154,2,91,1
0.09999999999999432,3154,3,91,1
0.09999999999999432,3154,4,91,13
0.09999999999999432,3154,5,91,3
0.09999999999999432,3154,6,91,12
0.09999999999999432,3154,7,91,6
0.10000000000002274,3154,8,91,1
0.09999999999999432,3154,9,91,1
0.09999999999999432,3154,10,91,3
0.09999999999999999,3154,11,62,1
0.05681818181818181,3154,12,62,1
0.03636363636363635,3154,13,62,1
0.03636363636363635,3154,14,62,1
0.04772727272727273,3154,15,62,1
0.04545454545454547,3155,0,62,1
0.0022727272727272596,3155,1,62,1
0.036363636363636376,3155,2,62,1
0.004545454545454519,3155,3,62,1
0.09999999999999998,3155,4,62,1
0.06818181818181812,3155,5,62,1
0.036363636363636376,3155,6,62,1
0.025000000000000022,3155,7,62,1
0.10000000000000009,3155,8,62,1
0.05681818181818188,3155,9,62,1
0.013636363636363669,3155,10,62,1
0.02499999999999991,3155,11,62,1
0.013636363636363669,3155,12,62,1
0.05909090909090908,3155,13,62,1
0.027272727272727337,3155,14,62,1
0.025000000000000133,3155,15,62,1
0.013636363636363669,3156,0,62,1
0.025000000000000133,3156,1,62,1
0.09999999999999987,3156,2,62,1
0.013636363636363447,3156,3,62,1
0.05681818181818188,3156,4,62,1
0.015909090909090873,3156,5,62,1
0.09999999999999987,3156,6,62,1
0.05681818181818188,3156,7,62,1
0.013636363636363669,3156,8,62,1
0.02499999999999991,3156,9,62,1
0.02499999999999991,3156,10,62,1
0.04772727272727284,3156,11,62,1
0.013636363636363669,3156,12,62,1
0.025000000000000355,3156,13,62,1
0.10000000000000009,3156,14,62,1
0.10000000000000009,3156,15,62,1
0.004545454545454852,3157,0,62,1
0.10000000000000009,3157,1,62,1
0.02499999999999991,3157,2,62,1
0.06818181818181834,3157,3,62,1
0.004545454545454408,3157,4,62,1
0.05681818181818166,3157,5,62,1
0.02499999999999991,3157,6,62,1
0.0363636363636366,3157,7,62,1
0.015909090909091095,3157,8,62,1
0.05681818181818166,3157,9,62,1
0.025000000000000355,3157,10,62,1
0.05681818181818166,3157,11,62,1
0.10000000000000009,3157,12,62,1
0.06818181818181834,3157,13,62,1
0.027272727272727337,3157,14,62,1
0.01590909090909065,3157,15,62,1
0.09999999999999964,3158,0,62,1
0.05681818181818166,3158,1,62,1
0.10000000000000009,3158,2,62,1
0.05909090909090908,3158,3,62,1
0.10000000000000009,3158,4,62,1
0.06590909090909092,3158,5,62,1
0.025000000000000355,3158,6,62,1
0.01590909090909154,3158,7,62,1
0.10000000000000053,3158,8,62,1
0.05681818181818166,3158,9,62,1
0.004545454545454852,3158,10,62,1
0.024999999999999467,3158,11,62,1
0.06818181818181834,3158,12,62,1
0.013636363636363669,3158,13,62,1
0.05681818181818166,3158,14,62,1
0.01590909090909065,3158,15,62,1
0.02727272727272645,3159,0,62,1
0.03409090909090917,3159,1,62,1
0.025000000000000355,3159,2,62,1
0.01590909090909065,3159,3,62,1
0.013636363636363669,3159,4,62,1
0.025000000000000355,3159,5,62,1
0.024999999999999467,3159,6,62,1
0.10000000000000053,3159,7,62,1
0.05681818181818166,3159,8,62,1
0.013636363636363669,3159,9,62,1
0.01590909090909065,3159,10,62,1
0.024999999999999467,3159,11,62,1
0.05681818181818166,3159,12,62,1
0.025000000000000355,3159,13,62,1
0.024999999999999467,3159,14,62,1
0.013636363636363669,3159,15,62,1
0.09999999999999964,3160,0,62,1
0.036363636363636154,3160,1,62,1
0.05681818181818166,3160,2,62,1
0.027272727272727337,3160,3,62,1
0.025000000000000355,3160,4,62,1
0.05681818181818166,3160,5,62,1
0.025000000000000355,3160,6,62,1
0.013636363636363669,3160,7,62,1
0.036363636363636154,3160,8,62,1
0.056818181818182545,3160,9,62,1
0.004545454545454852,3160,10,62,1
0.01590909090909065,3160,11,62,1
0.013636363636363669,3160,12,62,1
0.013636363636363669,3160,13,62,1
0.004545454545454852,3160,14,62,1
0.04772727272727284,3160,15,62,1
0.004545454545454852,3161,0,62,1
0.024999999999999467,3161,1,62,1
0.06818181818181834,3161,2,62,1
0.10000000000000053,3161,3,62,1
0.03636363636363704,3161,4,62,1
0.04772727272727284,3161,5,62,1
0.036363636363636154,3161,6,62,1
0.004545454545453964,3161,7,62,1
0.09999999999999964,3161,8,62,1
0.06818181818181746,3161,9,62,1
0.036363636363636154,3161,10,62,1
0.004545454545454852,3161,11,62,1
0.05681818181818166,3161,12,62,1
0.01590909090909065,3161,13,62,1
0.024999999999999467,3161,14,62,1
0.024999999999999467,3161,15,62,1
0.01590909090909065,3162,0,62,1
0.036363636363636154,3162,1,62,1
0.056818181818182545,3162,2,62,1
0.004545454545454852,3162,3,62,1
0.06818181818181746,3162,4,62,1
0.036363636363636154,3162,5,62,1
0.0022727272727278702,3162,6,62,1
0.025000000000000355,3162,7,62,1
0.01590909090909154,3162,8,62,1
0.056818181818182545,3162,9,62,1
0.025000000000000355,3162,10,62,1
0.004545454545454852,3162,11,62,1
0.05681818181818166,3162,12,62,1
0.09999999999999964,3162,13,62,1
0.05909090909090864,3162,14,62,1
0.01590909090909065,3162,15,62,1
0.013636363636363669,3163,0,62,1
0.025000000000000355,3163,1,62,1
0.025000000000000355,3163,2,62,1
0.036363636363635266,3163,3,62,1
0.04545454545454497,3163,4,62,1
0.013636363636363669,3163,5,62,1
0.03636363636363704,3163,6,62,1
0.027272727272727337,3163,7,62,1
0.09999999999999964,3163,8,62,1
0.03636363636363704,3163,9,62,1
0.09999999999999964,3163,10,62,1
0.034090909090908283,3163,11,62,1
0.05909090909090864,3163,12,62,1
0.025000000000000355,3163,13,62,1
0.05681818181818166,3163,14,62,1
0.013636363636363669,3163,15,62,1
0.025000000000000355,3164,0,62,1
0.05909090909090864,3164,1,62,1
0.01590909090909065,3164,2,62,1
0.013636363636363669,3164,3,62,1
0.004545454545453964,3164,4,62,1
0.013636363636363669,3164,5,62,1
0.01590909090909065,3164,6,62,1
0.06818181818181657,3164,7,62,1
0.036363636363635266,3164,8,62,1
0.004545454545453964,3164,9,62,1
0.025000000000000355,3164,10,62,1
0.013636363636363669,3164,11,62,1
0.02499999999999858,3164,12,62,1
0.025000000000000355,3164,13,62,1
0.05681818181818166,3164,14,62,1
0.01590909090909065,3164,15,62,1
0.01590909090909065,3165,0,62,1
0.02499999999999858,3165,1,62,1
0.025000000000000355,3165,2,62,1
0.004545454545453964,3165,3,62,1
0.06818181818181834,3165,4,62,1
0.013636363636363669,3165,5,62,1
0.04772727272727195,3165,6,62,1
0.004545454545453964,3165,7,62,1
0.025000000000000355,3165,8,62,1
0.09999999999999964,3165,9,62,1
0.05681818181818166,3165,10,62,1
0.036363636363635266,3165,11,62,1
0.04772727272727373,3165,12,62,1
0.03636363636363704,3165,13,62,1
0.025000000000000355,3165,14,62,1
0.05681818181818343,3165,15,62,1
0.025000000000000355,3166,0,62,1
0.025000000000000355,3166,1,62,1
0.013636363636363669,3166,2,62,1
0.09999999999999964,3166,3,62,1
0.03636363636363704,3166,4,62,1
0.03636363636363704,3166,5,62,1
0.0045454545454557405,3166,6,62,1
0.025000000000000355,3166,7,62,1
0.09999999999999964,3166,8,62,1
0.06818181818181834,3166,9,62,1
0.025000000000000355,3166,10,62,1
0.01590909090909065,3166,11,62,1
0.025000000000000355,3166,12,62,1
0.02499999999999858,3166,13,62,1
0.025000000000000355,3166,14,62,1
0.05681818181818166,3166,15,62,1
0.025000000000000355,3167,0,62,1
0.027272727272727337,3167,1,62,1
0.025000000000000355,3167,2,62,1
0.013636363636363669,3167,3,62,1
0.01590909090909065,3167,4,62,1
0.025000000000000355,3167,5,62,1
0.025000000000000355,3167,6,62,1
0.025000000000000355,3167,7,62,1
0.015909090909092427,3167,8,62,1
0.015909090909092427,3167,9,62,1
0.09999999999999964,3167,10,62,1
0.06818181818181834,3167,11,62,1
0.027272727272727337,3167,12,62,1
0.002272727272726982,3167,13,62,1
0.036363636363635266,3167,14,62,1
0.025000000000000355,3167,15,62,1
0.036363636363635266,3168,0,62,1
0.004545454545453964,3168,1,62,1
0.025000000000000355,3168,2,62,1
0.01590909090909065,3168,3,62,1
0.034090909090908283,3168,4,62,1
0.04772727272727373,3168,5,62,1
0.004545454545453964,3168,6,62,1
0.013636363636363669,3168,7,62,1
0.025000000000000355,3168,8,62,1
0.025000000000000355,3168,9,62,1
0.01590909090909065,3168,10,62,1
0.036363636363635266,3168,11,62,1
0.05681818181818166,3168,12,62,1
0.025000000000000355,3168,13,62,1
0.025000000000000355,3168,14,62,1
0.004545454545453964,3168,15,62,1
0.036363636363635266,3169,0,62,1
0.05681818181818166,3169,1,62,1
0.025000000000000355,3169,2,62,1
0.025000000000000355,3169,3,62,1
0.013636363636363669,3169,4,62,1
0.013636363636363669,3169,5,62,1
0.03636363636363704,3169,6,62,1
0.05681818181818166,3169,7,62,1
0.01590909090909065,3169,8,62,1
0.013636363636363669,3169,9,62,1
0.04772727272727195,3169,10,62,1
0.036363636363635266,3169,11,62,1
0.025000000000000355,3169,12,62,1
0.05681818181818166,3169,13,62,1
0.036363636363635266,3169,14,62,1
0.004545454545453964,3169,15,62,1
0.03636363636363704,3170,0,62,1
0.004545454545453964,3170,1,62,1
0.09999999999999964,3170,2,62,1
0.06818181818181657,3170,3,62,1
0.013636363636363669,3170,4,62,1
0.05681818181818166,3170,5,62,1
0.025000000000000355,3170,6,62,1
0.05909090909090864,3170,7,62,1
0.02727272727272556,3170,8,62,1
0.02499999999999858,3170,9,62,1
0.013636363636363669,3170,10,62,1
0.013636363636363669,3170,11,62,1
0.01590909090909065,3170,12,62,1
0.025000000000000355,3170,13,62,1
0.025000000000000355,3170,14,62,1
0.01590909090909065,3170,15,62,1
0.013636363636363669,3171,0,62,1
0.02499999999999858,3171,1,62,1
0.025000000000000355,3171,2,62,1
0.01590909090909065,3171,3,62,1
0.01590909090909065,3171,4,62,1
0.025000000000000355,3171,5,62,1
0.013636363636363669,3171,6,62,1
0.05681818181818343,3171,7,62,1
0.025000000000000355,3171,8,62,1
0.025000000000000355,3171,9,62,1
0.01590909090909065,3171,10,62,1
0.027272727272727337,3171,11,62,1
0.013636363636363669,3171,12,62,1
0.05681818181818166,3171,13,62,1
0.02499999999999858,3171,14,62,1
0.025000000000000355,3171,15,62,1
0.01590909090909065,3172,0,62,1
0.01590909090909065,3172,1,62,1
0.013636363636361892,3172,2,62,1
0.02500000000000213,3172,3,62,1
0.02500000000000213,3172,4,62,1
0.01590909090909065,3172,5,62,1
0.02500000000000213,3172,6,62,1
0.02499999999999858,3172,7,62,1
0.01590909090909065,3172,8,62,1
0.013636363636361892,3172,9,62,1
0.02500000000000213,3172,10,62,1
0.03636363636363882,3172,11,62,1
0.02500000000000213,3172,12,62,1
0.004545454545453964,3172,13,62,1
0.004545454545453964,3172,14,62,1
0.013636363636361892,3172,15,62,1
0.02499999999999858,3173,0,62,1
0.036363636363635266,3173,1,62,1
0.004545454545457517,3173,2,62,1
0.036363636363635266,3173,3,62,1
0.036363636363635266,3173,4,62,1
0.0022727272727252057,3173,5,62,1
0.0022727272727287584,3173,6,62,1
0.02500000000000213,3173,7,62,1
0.01590909090909065,3173,8,62,1
0.06818181818181657,3173,9,62,1
0.036363636363635266,3173,10,62,1
0.02499999999999858,3173,11,62,1
0.013636363636365445,3173,12,62,1
0.03636363636363882,3173,13,62,1
0.09999999999999787,3173,14,62,1
0.10000000000000142,3173,15,62,1
0.09999999999999787,3174,0,62,1
0.10000000000000142,3174,1,62,1
0.10000000000000142,3174,2,62,1
0.10000000000000142,3174,3,62,1
0.10000000000000142,3174,4,62,1
0.05681818181818343,3174,5,62,1
0.10000000000000142,3174,6,62,1
0.10000000000000142,3174,7,62,1
0.10000000000000142,3174,8,62,1
0.06818181818181657,3174,9,62,1
0.09999999999999787,3174,10,62,1
0.10000000000000142,3174,11,62,1
0.10000000000000142,3174,12,62,1
0.045454545454546746,3174,13,62,1
0.10000000000000142,3174,14,62,1
0.036363636363635266,3174,15,62,1
0.10000000000000142,3175,0,62,1
0.10000000000000142,3175,1,62,1
0.10000000000000142,3175,2,62,1
0.015909090909094203,3175,3,62,1
0.10000000000000142,3175,4,62,1
0.09999999999999787,3175,5,62,1
0.05681818181817988,3175,6,62,1
0.036363636363635266,3175,7,62,1
0.013636363636361892,3175,8,62,1
0.015909090909094203,3175,9,62,1
0.045454545454546746,3175,10,62,1
0.013636363636361892,3175,11,62,1
0.02499999999999858,3175,12,62,1
0.036363636363635266,3175,13,62,1
0.004545454545457517,3175,14,62,1
0.10000000000000142,3175,15,62,1
0.09999999999999787,3176,0,62,1
0.10000000000000142,3176,1,62,1
0.05681818181818343,3176,2,62,1
0.03636363636363882,3176,3,62,1
0.004545454545457517,3176,4,62,1
0.02499999999999858,3176,5,62,1
0.01590909090909065,3176,6,62,1
0.01590909090909065,3176,7,62,1
0.02500000000000213,3176,8,62,1
0.02500000000000213,3176,9,62,1
0.013636363636365445,3176,10,62,1
0.01590909090909065,3176,11,62,1
0.01590909090909065,3176,12,62,1
0.02499999999999858,3176,13,62,1
0.02499999999999858,3176,14,62,1
0.013636363636365445,3176,15,62,1
0.013636363636365445,3177,0,62,1
0.02500000000000213,3177,1,62,1
0.02500000000000213,3177,2,62,1
0.01590909090909065,3177,3,62,1
0.01590909090909065,3177,4,62,1
0.02499999999999858,3177,5,62,1
0.013636363636365445,3177,6,62,1
0.06818181818182012,3177,7,62,1
0.02500000000000213,3177,8,62,1
0.01590909090909065,3177,9,62,1
0.01590909090909065,3177,10,62,1
0.02499999999999858,3177,11,62,1
0.02499999999999858,3177,12,62,1
0.013636363636365445,3177,13,62,1
0.01590909090909065,3177,14,62,1
0.09999999999999787,3177,15,62,1
0.06818181818181657,3178,0,62,1
0.02499999999999858,3178,1,62,1
0.013636363636365445,3178,2,62,1
0.01590909090909065,3178,3,62,1
0.01590909090909065,3178,4,62,1
0.02499999999999858,3178,5,62,1
0.02499999999999858,3178,6,62,1
0.013636363636361892,3178,7,62,1
0.01590909090909065,3178,8,62,1
0.02499999999999858,3178,9,62,1
0.05681818181817988,3178,10,62,1
0.013636363636361892,3178,11,62,1
0.02499999999999858,3178,12,62,1
0.02499999999999858,3178,13,62,1
0.01590909090909065,3178,14,62,1
0.02499999999999858,3178,15,62,1
0.013636363636365445,3179,0,62,1
0.01590909090909065,3179,1,62,1
0.02499999999999858,3179,2,62,1
0.013636363636361892,3179,3,62,1
0.02499999999999858,3179,4,62,1
0.02499999999999858,3179,5,62,1
0.01590909090909065,3179,6,62,1
0.01590909090909065,3179,7,62,1
0.02499999999999858,3179,8,62,1
0.013636363636361892,3179,9,62,1
0.06818181818181657,3179,10,62,1
0.02499999999999858,3179,11,62,1
0.01590909090909065,3179,12,62,1
0.01590909090909065,3179,13,62,1
0.02499999999999858,3179,14,62,1
0.036363636363635266,3179,15,62,1
0.004545454545453964,3180,0,62,1
0.02499999999999858,3180,1,62,1
0.013636363636361892,3180,2,62,1
0.013636363636361892,3180,3,62,1
0.03636363636363882,3180,4,62,1
0.05681818181818343,3180,5,62,1
0.004545454545453964,3180,6,62,1
0.01590909090909065,3180,7,62,1
0.013636363636361892,3180,8,62,1
0.03636363636363882,3180,9,62,1
0.09999999999999787,3180,10,62,1
0.05681818181817988,3180,11,62,1
0.036363636363635266,3180,12,62,1
0.004545454545453964,3180,13,62,1
0.02499999999999858,3180,14,62,1
0.04772727272727195,3180,15,62,1
0.004545454545453964,3181,0,62,1
0.02500000000000213,3181,1,62,1
0.10000000000000142,3181,2,62,1
0.05681818181818343,3181,3,62,1
0.036363636363635266,3181,4,62,1
0.05909090909090864,3181,5,62,1
0.0022727272727287584,3181,6,62,1
0.05909090909090864,3181,7,62,1
0.02500000000000213,3181,8,62,1
0.02499999999999858,3181,9,62,1
0.013636363636365445,3181,10,62,1
0.06818181818182012,3181,11,62,1
0.02500000000000213,3181,12,62,1
0.01590909090909065,3181,13,62,1
0.03409090909090651,3181,14,62,1
0.004545454545453964,3181,15,62,1
0.05681818181818343,3182,0,62,1
0.03636363636363882,3182,1,62,1
0.04772727272727195,3182,2,62,1
0.10000000000000142,3182,3,62,1
0.05681818181818343,3182,4,62,1
0.01590909090909065,3182,5,62,1
0.02500000000000213,3182,6,62,1
0.02499999999999858,3182,7,62,1
0.036363636363635266,3182,8,62,1
0.05681818181818343,3182,9,62,1
0.0022727272727287584,3182,10,62,1
0.004545454545457517,3182,11,62,1
0.02499999999999858,3182,12,62,1
0.05681818181817988,3182,13,62,1
0.013636363636361892,3182,14,62,1
0.013636363636361892,3182,15,62,1
0.02499999999999858,3183,0,62,1
0.004545454545453964,3183,1,62,1
0.036363636363635266,3183,2,62,1
0.013636363636361892,3183,3,62,1
0.06818181818181657,3183,4,62,1
0.027272727272727337,3183,5,62,1
0.02499999999999858,3183,6,62,1
0.02500000000000213,3183,7,62,1
0.01590909090909065,3183,8,62,1
0.013636363636361892,3183,9,62,1
0.02499999999999858,3183,10,62,1
0.02499999999999858,3183,11,62,1
0.02499999999999858,3183,12,62,1
0.02499999999999858,3183,13,62,1
0.015909090909094203,3183,14,62,1
0.01590909090909065,3183,15,62,1
0.02499999999999858,3184,0,62,1
0.05681818181817988,3184,1,62,1
0.013636363636361892,3184,2,62,1
0.01590909090909065,3184,3,62,1
0.027272727272727337,3184,4,62,1
0.02499999999999858,3184,5,62,1
0.013636363636361892,3184,6,62,1
0.013636363636361892,3184,7,62,1
0.01590909090909065,3184,8,62,1
0.02499999999999858,3184,9,62,1
0.02500000000000213,3184,10,62,1
0.01590909090909065,3184,11,62,1
0.09999999999999787,3184,12,62,1
0.01590909090909065,3184,13,62,1
0.02500000000000213,3184,14,62,1
0.036363636363635266,3184,15,62,1
0.045454545454543194,3185,0,62,1
0.036363636363635266,3185,1,62,1
0.02499999999999858,3185,2,62,1
0.06818181818182012,3185,3,62,1
0.02500000000000213,3185,4,62,1
0.01590909090909065,3185,5,62,1
0.03409090909090651,3185,6,62,1
0.036363636363635266,3185,7,62,1
0.05909090909090864,3185,8,62,1
0.0022727272727287584,3185,9,62,1
0.05909090909090864,3185,10,62,1
0.01590909090909065,3185,11,62,1
0.02499999999999858,3185,12,62,1
0.013636363636365445,3185,13,62,1
0.02500000000000213,3185,14,62,1
0.02500000000000213,3185,15,62,1
0.10000000000000142,3186,0,62,1
0.05681818181818343,3186,1,62,1
0.013636363636365445,3186,2,62,1
0.02500000000000213,3186,3,62,1
0.01590909090909065,3186,4,62,1
0.05681818181817988,3186,5,62,1
0.03636363636363882,3186,6,62,1
0.05681818181818343,3186,7,62,1
0.013636363636365445,3186,8,62,1
0.02500000000000213,3186,9,62,1
0.01590909090909065,3186,10,62,1
0.004545454545453964,3186,11,62,1
0.02499999999999858,3186,12,62,1
0.02499999999999858,3186,13,62,1
0.004545454545457517,3186,14,62,1
0.03409090909091006,3186,15,62,1
0.04772727272727195,3187,0,62,1
0.045454545454543194,3187,1,62,1
0.04772727272727195,3187,2,62,1
0.02500000000000213,3187,3,62,1
0.06818181818181657,3187,4,62,1
0.004545454545450411,3187,5,62,1
0.056818181818186986,3187,6,62,1
0.013636363636365445,3187,7,62,1
0.02499999999999858,3187,8,62,1
0.02727272727273089,3187,9,62,1
0.02499999999999858,3187,10,62,1
0.013636363636365445,3187,11,62,1
0.004545454545457517,3187,12,62,1
0.045454545454546746,3187,13,62,1
0.04772727272727195,3187,14,62,1
0.01590909090909065,3187,15,62,1
0.03636363636363882,3188,0,62,1
0.004545454545457517,3188,1,62,1
0.013636363636365445,3188,2,62,1
0.10000000000000142,3188,3,62,1
0.01590909090909065,3188,4,62,1
0.06818181818182012,3188,5,62,1
0.10000000000000142,3188,6,62,1
0.04772727272727195,3188,7,62,1
0.03636363636363171,3188,8,62,1
0.056818181818186986,3188,9,62,1
0.013636363636365445,3188,10,62,1
0.013636363636365445,3188,11,62,1
0.01590909090909065,3188,12,62,1
0.027272727272723785,3188,13,62,1
0.10000000000000142,3188,14,62,1
0.10000000000000142,3188,15,62,1
0.10000000000000142,3189,0,62,1
0.06818181818182012,3189,1,62,1
0.004545454545457517,3189,2,62,1
0.02499999999999858,3189,3,62,1
0.04772727272727195,3189,4,62,1
0.045454545454546746,3189,5,62,1
0.01590909090909065,3189,6,62,1
0.06818181818182012,3189,7,62,1
0.03636363636363882,3189,8,62,1
0.013636363636365445,3189,9,62,1
0.10000000000000142,3189,10,62,1
0.03636363636363882,3189,11,62,1
0.004545454545457517,3189,12,62,1
0.02499999999999858,3189,13,62,1
0.013636363636365445,3189,14,62,1
0.01590909090909065,3189,15,62,1
0.02499999999999858,3190,0,62,1
0.01590909090909065,3190,1,62,1
0.10000000000000142,3190,2,62,1
0.06590909090909491,3190,3,62,1
0.025000000000005684,3190,4,62,1
0.013636363636365445,3190,5,62,1
0.03636363636363171,3190,6,62,1
0.05681818181817988,3190,7,62,1
0.004545454545450411,3190,8,62,1
0.025000000000005684,3190,9,62,1
0.06818181818181301,3190,10,62,1
0.03636363636363171,3190,11,62,1
0.004545454545450411,3190,12,62,1
0.025000000000005684,3190,13,62,1
0.05681818181817988,3190,14,62,1
0.10000000000000142,3190,15,62,1
0.013636363636365445,3191,0,62,1
0.05681818181817988,3191,1,62,1
0.013636363636365445,3191,2,62,1
0.004545454545457517,3191,3,62,1
0.01590909090909065,3191,4,62,1
0.013636363636365445,3191,5,62,1
0.04772727272727195,3191,6,62,1
0.004545454545457517,3191,7,62,1
0.013636363636365445,3191,8,62,1
0.02499999999999858,3191,9,62,1
0.02727272727273089,3191,10,62,1
0.004545454545457517,3191,11,62,1
0.0022727272727252057,3191,12,62,1
0.03636363636363171,3191,13,62,1
0.10000000000000142,3191,14,62,1
0.04772727272727195,3191,15,62,1
0.004545454545457517,3192,0,62,1
0.03636363636363882,3192,1,62,1
0.01590909090909065,3192,2,62,1
0.10000000000000142,3192,3,62,1
0.06818181818182012,3192,4,62,1
0.01590909090909065,3192,5,62,1
0.02499999999999858,3192,6,62,1
0.03636363636363882,3192,7,62,1
0.10000000000000142,3192,8,62,1
0.06818181818181301,3192,9,62,1
0.02499999999999858,3192,10,62,1
0.10000000000000142,3192,11,62,1
0.02499999999999858,3192,12,62,1
0.06818181818182012,3192,13,62,1
0.004545454545457517,3192,14,62,1
0.10000000000000142,3192,15,62,1
0.02499999999999858,3193,0,62,1
0.06818181818181301,3193,1,62,1
0.03636363636363171,3193,2,62,1
0.02499999999999858,3193,3,62,1
0.01363636363635834,3193,4,62,1
0.10000000000000142,3193,5,62,1
0.03636363636363171,3193,6,62,1
0.05681818181817988,3193,7,62,1
0.02499999999999858,3193,8,62,1
0.02499999999999858,3193,9,62,1
0.056818181818186986,3193,10,62,1
0.015909090909097756,3193,11,62,1
0.027272727272723785,3193,12,62,1
0.02499999999999858,3193,13,62,1
0.10000000000000142,3193,14,62,1
0.02499999999999858,3193,15,62,1
0.03636363636363171,3194,0,62,1
0.04772727272727906,3194,1,62,1
0.004545454545457517,3194,2,62,1
0.013636363636365445,3194,3,62,1
0.06818181818182012,3194,4,62,1
0.01590909090909065,3194,5,62,1
0.056818181818186986,3194,6,62,1
0.013636363636365445,3194,7,62,1
0.02499999999999858,3194,8,62,1
0.01590909090909065,3194,9,62,1
0.04545454545453964,3194,10,62,1
0.02499999999999858,3194,11,62,1
0.03636363636363882,3194,12,62,1
0.05681818181817988,3194,13,62,1
0.02499999999999858,3194,14,62,1
0.03636363636363882,3194,15,62,1
0.004545454545457517,3195,0,62,1
0.05681818181817988,3195,1,62,1
0.013636363636365445,3195,2,62,1
0.01590909090909065,3195,3,62,1
0.004545454545450411,3195,4,62,1
0.01363636363635834,3195,5,62,1
0.02499999999999858,3195,6,62,1
0.004545454545457517,3195,7,62,1
0.03636363636363171,3195,8,62,1
0.004545454545450411,3195,9,62,1
0.01363636363635834,3195,10,62,1
0.004545454545450411,3195,11,62,1
0.025000000000005684,3195,12,62,1
0.03636363636363171,3195,13,62,1
0.05681818181817988,3195,14,62,1
0.10000000000000142,3195,15,62,1
0.02499999999999858,3196,0,62,1
0.03636363636363171,3196,1,62,1
0.004545454545450411,3196,2,62,1
0.10000000000000142,3196,3,62,1
0.01590909090909065,3196,4,62,1
0.02499999999999858,3196,5,62,1
0.045454545454546746,3196,6,62,1
0.002272727272732311,3196,7,62,1
0.004545454545450411,3196,8,62,1
0.02499999999999858,3196,9,62,1
0.01590909090909065,3196,10,62,1
0.03636363636363882,3196,11,62,1
0.013636363636365445,3196,12,62,1
0.06818181818182012,3196,13,62,1
0.02499999999999858,3196,14,62,1
0.01590909090909065,3196,15,62,1
0.02499999999999858,3197,0,62,1
0.03636363636363171,3197,1,62,1
0.04545454545453964,3197,2,62,1
0.04772727272727195,3197,3,62,1
0.01363636363635834,3197,4,62,1
0.02499999999999858,3197,5,62,1
0.015909090909097756,3197,6,62,1
0.02499999999999858,3197,7,62,1
0.02499999999999858,3197,8,62,1
0.01590909090909065,3197,9,62,1
0.056818181818186986,3197,10,62,1
0.03636363636363171,3197,11,62,1
0.04545454545453964,3197,12,62,1
0.10000000000000142,3197,13,62,1
0.056818181818186986,3197,14,62,1
0.013636363636365445,3197,15,62,1
0.09999999999999432,3198,0,62,1
0.05681818181817988,3198,1,62,1
0.01590909090909065,3198,2,62,1
0.02727272727273089,3198,3,62,1
0.02499999999999858,3198,4,62,1
0.10000000000000142,3198,5,62,1
0.05681818181817988,3198,6,62,1
0.03636363636363171,3198,7,62,1
0.03636363636363882,3198,8,62,1
0.004545454545457517,3198,9,62,1
0.02499999999999858,3198,10,62,1
0.01590909090909065,3198,11,62,1
0.02499999999999858,3198,12,62,1
0.025000000000005684,3198,13,62,1
0.01590909090909065,3198,14,62,1
0.013636363636365445,3198,15,62,1
0.004545454545457517,3199,0,62,1
0.03409090909090651,3199,1,62,1
0.04772727272727195,3199,2,62,1
0.004545454545450411,3199,3,62,1
0.004545454545457517,3199,4,62,1
0.06818181818182012,3199,5,62,1
0.013636363636365445,3199,6,62,1
0.01590909090909065,3199,7,62,1
0.045454545454546746,3199,8,62,1
0.03636363636363882,3199,9,62,1
0.10000000000000142,3199,10,62,1
0.06818181818182012,3199,11,62,1
0.02499999999999858,3199,12,62,1
0.004545454545457517,3199,13,62,1
0.01590909090909065,3199,14,62,1
0.03409090909090651,3199,15,62,1
0.02727272727273089,3200,0,62,1
0.05681818181817988,3200,1,62,1
0.013636363636365445,3200,2,62,1
0.03636363636363882,3200,3,62,1
0.045454545454546746,3200,4,62,1
0.004545454545450411,3200,5,62,1
0.02499999999999858,3200,6,62,1
0.05681818181817988,3200,7,62,1
0.01590909090909065,3200,8,62,1
0.05681818181817988,3200,9,62,1
0.03636363636363882,3200,10,62,1
0.045454545454546746,3200,11,62,1
0.01590909090909065,3200,12,62,1
0.02499999999999858,3200,13,62,1
0.0022727272727252057,3200,14,62,1
0.03636363636363882,3200,15,62,1
0.04772727272727195,3201,0,62,1
0.004545454545457517,3201,1,62,1
0.025000000000005684,3201,2,62,1
0.03636363636363171,3201,3,62,1
0.02499999999999858,3201,4,62,1
0.05681818181817988,3201,5,62,1
0.01590909090909065,3201,6,62,1
0.02499999999999858,3201,7,62,1
0.002272727272732311,3201,8,62,1
0.059090909090905086,3201,9,62,1
0.01363636363635834,3201,10,62,1
0.004545454545457517,3201,11,62,1
0.10000000000000142,3201,12,62,1
0.02499999999999858,3201,13,62,1
0.05681818181817988,3201,14,62,1
0.10000000000000142,3201,15,62,1
0.045454545454546746,3202,0,62,1
0.02727272727273089,3202,1,62,1
0.06590909090908781,3202,2,62,1
0.01590909090909065,3202,3,62,1
0.09999999999999432,3202,4,62,1
0.10000000000000142,3202,5,62,1
0.01590909090909065,3202,6,62,1
0.045454545454546746,3202,7,62,1
0.004545454545457517,3202,8,62,1
0.02499999999999858,3202,9,62,1
0.0022727272727252057,3202,10,62,1
0.05909090909091219,3202,11,62,1
0.004545454545457517,3202,12,62,1
0.002272727272732311,3202,13,62,1
0.02499999999999858,3202,14,62,1
0.01590909090909065,3202,15,62,1
0.045454545454546746,3203,0,62,1
0.01590909090909065,3203,1,62,1
0.013636363636365445,3203,2,62,1
0.02499999999999858,3203,3,62,1
0.056818181818186986,3203,4,62,1
0.015909090909097756,3203,5,62,1
0.004545454545457517,3203,6,62,1
0.01363636363635834,3203,7,62,1
0.03636363636363171,3203,8,62,1
0.02499999999999858,3203,9,62,1
0.01590909090909065,3203,10,62,1
0.045454545454546746,3203,11,62,1
0.004545454545457517,3203,12,62,1
0.025000000000005684,3203,13,62,1
0.01590909090909065,3203,14,62,1
0.013636363636365445,3203,15,62,1
0.06818181818182012,3204,0,62,1
0.02499999999999858,3204,1,62,1
0.01590909090909065,3204,2,62,1
0.02499999999999858,3204,3,62,1
0.013636363636365445,3204,4,62,1
0.04772727272727906,3204,5,62,1
0.01590909090909065,3204,6,62,1
0.03636363636363171,3204,7,62,1
0.10000000000000142,3204,8,62,1
0.05681818181817988,3204,9,62,1
0.013636363636365445,3204,10,62,1
0.03636363636363882,3204,11,62,1
0.04772727272727195,3204,12,62,1
0.04545454545453964,3204,13,62,1
0.02499999999999858,3204,14,62,1
0.059090909090905086,3204,15,62,1
0.09999999999999432,3205,0,62,1
0.01590909090909065,3205,1,62,1
0.045454545454546746,3205,2,62,1
0.03636363636363171,3205,3,62,1
0.04545454545453964,3205,4,62,1
0.027272727272723785,3205,5,62,1
0.10000000000000142,3205,6,62,1
0.06818181818181301,3205,7,62,1
0.02499999999999858,3205,8,62,1
0.05681818181817988,3205,9,62,1
0.10000000000000142,3205,10,62,1
0.06818181818182012,3205,11,62,1
0.10000000000000142,3205,12,62,1
0.025000000000005684,3205,13,62,1
0.10000000000000142,3205,14,62,1
0.004545454545457517,3205,15,62,1
0.10000000000000142,3206,0,62,1
0.05681818181817988,3206,1,62,1
0.09999999999999432,3206,2,62,1
0.02499999999999858,3206,3,62,1
0.06818181818182012,3206,4,62,1
0.03636363636363882,3206,5,62,1
0.004545454545450411,3206,6,62,1
0.10000000000000142,3206,7,62,1
0.10000000000000142,3206,8,62,1
0.02499999999999858,3206,9,62,1
0.03636363636363882,3206,10,62,1
0.004545454545457517,3206,11,62,1
0.03636363636363882,3206,12,62,1
0.10000000000000142,3206,13,62,1
0.04772727272727195,3206,14,62,1
0.004545454545450411,3206,15,62,1
0.013636363636365445,3207,0,62,1
0.09999999999999432,3207,1,62,1
0.04772727272727195,3207,2,62,1
0.0022727272727252057,3207,3,62,1
0.06818181818182012,3207,4,62,1
0.03636363636363882,3207,5,62,1
0.025000000000005684,3207,6,62,1
0.10000000000000142,3207,7,62,1
0.06818181818182012,3207,8,62,1
0.03636363636363882,3207,9,62,1
0.013636363636365445,3207,10,62,1
0.10000000000000142,3207,11,62,1
0.04772727272727195,3207,12,62,1
0.03409090909091361,3207,13,62,1
0.04772727272727195,3207,14,62,1
0.01590909090909065,3207,15,62,1
0.02499999999999858,3208,0,62,1
0.06818181818182012,3208,1,62,1
0.10000000000000142,3208,2,62,1
0.10000000000000142,3208,3,62,1
0.10000000000000142,3208,4,62,1
0.05681818181817988,3208,5,62,1
0.01363636363635834,3208,6,62,1
0.02499999999999858,3208,7,62,1
0.10000000000000142,3208,8,62,1
0.05909090909091219,3208,9,62,1
0.02499999999999858,3208,10,62,1
0.01363636363635834,3208,11,62,1
0.004545454545450411,3208,12,62,1
0.10000000000000142,3208,13,62,1
0.0022727272727252057,3208,14,62,1
0.04772727272727906,3208,15,62,1
0.004545454545457517,3209,0,62,1
0.013636363636365445,3209,1,62,1
0.02499999999999858,3209,2,62,1
0.027272727272723785,3209,3,62,1
0.01590909090909065,3209,4,62,1
0.025000000000005684,3209,5,62,1
0.004545454545450411,3209,6,62,1
0.04545454545453964,3209,7,62,1
0.0022727272727252057,3209,8,62,1
0.01590909090909065,3209,9,62,1
0.01590909090909065,3209,10,62,1
0.025000000000005684,3209,11,62,1
0.05681818181817988,3209,12,62,1
0.013636363636365445,3209,13,62,1
0.02499999999999858,3209,14,62,1
0.10000000000000142,3209,15,62,1
0.06818181818182012,3210,0,62,1
0.025000000000005684,3210,1,62,1
0.013636363636365445,3210,2,62,1
0.02499999999999858,3210,3,62,1
0.004545454545457517,3210,4,62,1
0.10000000000000142,3210,5,62,1
0.025000000000005684,3210,6,62,1
0.10000000000000142,3210,7,62,1
0.10000000000000142,3210,8,62,1
0.056818181818186986,3210,9,62,1
0.02499999999999858,3210,10,62,1
0.02499999999999858,3210,11,62,1
0.02499999999999858,3210,12,62,1
0.05681818181817988,3210,13,62,1
0.01590909090909065,3210,14,62,1
0.03636363636363171,3210,15,62,1
0.04545454545453964,3211,0,62,1
0.01363636363635834,3211,1,62,1
0.01590909090909065,3211,2,62,1
0.045454545454546746,3211,3,62,1
0.01590909090909065,3211,4,62,1
0.05681818181817988,3211,5,62,1
0.10000000000000142,3211,6,62,1
0.10000000000000142,3211,7,62,1
0.10000000000000142,3211,8,62,1
0.06818181818182012,3211,9,62,1
0.025000000000005684,3211,10,62,1
0.03636363636363882,3211,11,62,1
0.004545454545450411,3211,12,62,1
0.01590909090909065,3211,13,62,1
0.03636363636363882,3211,14,62,1
0.05681818181817988,3211,15,62,1
0.01363636363635834,3212,0,62,1
0.02499999999999858,3212,1,62,1
0.03636363636363171,3212,2,62,1
0.004545454545450411,3212,3,62,1
0.10000000000000142,3212,4,62,1
0.02499999999999858,3212,5,62,1
0.10000000000000142,3212,6,62,1
0.045454545454546746,3212,7,62,1
0.004545454545457517,3212,8,62,1
0.015909090909097756,3212,9,62,1
0.013636363636365445,3212,10,62,1
0.01363636363635834,3212,11,62,1
0.10000000000000142,3212,12,62,1
0.03636363636363882,3212,13,62,1
0.04772727272727195,3212,14,62,1
0.013636363636365445,3212,15,62,1
0.05681818181817988,3213,0,62,1
0.03636363636363171,3213,1,62,1
0.004545454545457517,3213,2,62,1
0.04772727272727195,3213,3,62,1
0.10000000000000142,3213,4,62,1
0.06818181818182012,3213,5,62,1
0.025000000000005684,3213,6,62,1
0.10000000000000142,3213,7,62,1
0.03636363636363882,3213,8,62,1
0.02499999999999858,3213,9,62,1
0.056818181818186986,3213,10,62,1
0.013636363636365445,3213,11,62,1
0.01590909090909065,3213,12,62,1
0.0022727272727252057,3213,13,62,1
0.10000000000000142,3213,14,62,1
0.06590909090908781,3213,15,62,1
0.02499999999999858,3214,0,62,1
0.025000000000005684,3214,1,62,1
0.09999999999999432,3214,2,62,1
0.06590909090908781,3214,3,62,1
0.02499999999999858,3214,4,62,1
0.01590909090909065,3214,5,62,1
0.0022727272727252057,3214,6,62,1
0.013636363636365445,3214,7,62,1
0.03636363636363882,3214,8,62,1
0.025000000000005684,3214,9,62,1
0.004545454545457517,3214,10,62,1
0.03636363636363882,3214,11,62,1
0.05681818181817988,3214,12,62,1
0.013636363636365445,3214,13,62,1
0.025000000000005684,3214,14,62,1
0.10000000000000142,3214,15,62,1
0.0022727272727252057,3215,0,62,1
0.02727272727273089,3215,1,62,1
0.03409090909091361,3215,2,62,1
0.03636363636363171,3215,3,62,1
0.004545454545450411,3215,4,62,1
0.02499999999999858,3215,5,62,1
0.02499999999999858,3215,6,62,1
0.05909090909091219,3215,7,62,1
0.01590909090909065,3215,8,62,1
0.02499999999999858,3215,9,62,1
0.02499999999999858,3215,10,62,1
0.02499999999999858,3215,11,62,1
0.04772727272727906,3215,12,62,1
0.02499999999999858,3215,13,62,1
0.02499999999999858,3215,14,62,1
0.02499999999999858,3215,15,62,1
0.05681818181817988,3216,0,62,1
0.02499999999999858,3216,1,62,1
0.01590909090909065,3216,2,62,1
0.01590909090909065,3216,3,62,1
0.01363636363635834,3216,4,62,1
0.04772727272727195,3216,5,62,1
0.02499999999999858,3216,6,62,1
0.03636363636363882,3216,7,62,1
0.03636363636363882,3216,8,62,1
0.05681818181817988,3216,9,62,1
0.03636363636363882,3216,10,62,1
0.045454545454546746,3216,11,62,1
0.09999999999999432,3216,12,62,1
0.02499999999999858,3216,13,62,1
0.03636363636363882,3216,14,62,1
0.02499999999999858,3216,15,62,1
0.09999999999999432,3217,0,62,1
0.05681818181817988,3217,1,62,1
0.10000000000000142,3217,2,62,1
0.06818181818182012,3217,3,62,1
0.02499999999999858,3217,4,62,1
0.03636363636363171,3217,5,62,1
0.056818181818186986,3217,6,62,1
0.015909090909097756,3217,7,62,1
0.01363636363635834,3217,8,62,1
0.06818181818181301,3217,9,62,1
0.02499999999999858,3217,10,62,1
0.01590909090909065,3217,11,62,1
0.056818181818186986,3217,12,62,1
0.01363636363635834,3217,13,62,1
0.04772727272727195,3217,14,62,1
0.01590909090909065,3217,15,62,1
0.0022727272727252057,3218,0,62,1
0.05909090909091219,3218,1,62,1
0.02727272727273089,3218,2,62,1
0.09999999999999432,3218,3,62,1
0.06818181818181301,3218,4,62,1
0.03636363636363171,3218,5,62,1
0.004545454545450411,3218,6,62,1
0.025000000000005684,3218,7,62,1
0.10000000000000142,3218,8,62,1
0.045454545454546746,3218,9,62,1
0.04772727272727195,3218,10,62,1
0.09999999999999432,3218,11,62,1
0.02499999999999858,3218,12,62,1
0.045454545454546746,3218,13,62,1
0.004545454545457517,3218,14,62,1
0.09999999999999432,3218,15,62,1
0.056818181818172775,3219,0,62,1
0.004545454545450411,3219,1,62,1
0.013636363636365445,3219,2,62,1
0.013636363636365445,3219,3,62,1
0.004545454545464622,3219,4,62,1
0.013636363636365445,3219,5,62,1
0.036363636363645924,3219,6,62,1
0.01590909090909065,3219,7,62,1
0.025000000000005684,3219,8,62,1
0.056818181818186986,3219,9,62,1
0.01590909090909065,3219,10,62,1
0.06590909090908781,3219,11,62,1
0.03409090909090651,3219,12,62,1
0.10000000000000853,3219,13,62,1
0.06818181818182723,3219,14,62,1
0.013636363636365445,3219,15,62,1
0.04772727272727195,3220,0,62,1
0.024999999999991473,3220,1,62,1
0.056818181818172775,3220,2,62,1
0.013636363636365445,3220,3,62,1
0.02727272727273089,3220,4,62,1
0.03409090909090651,3220,5,62,1
0.0022727272727252057,3220,6,62,1
0.09999999999999432,3220,7,62,1
0.03409090909090651,3220,8,62,1
0.02727272727271668,3220,9,62,1
0.013636363636365445,3220,10,62,1
0.06818181818182723,3220,11,62,1
0.004545454545464622,3220,12,62,1
0.045454545454546746,3220,13,62,1
0.004545454545464622,3220,14,62,1
0.004545454545450411,3220,15,62,1
0.0022727272727252057,3221,0,62,1
0.01590909090909065,3221,1,62,1
0.03409090909092072,3221,2,62,1
0.10000000000000853,3221,3,62,1
0.004545454545464622,3221,4,62,1
0.056818181818186986,3221,5,62,1
0.01590909090909065,3221,6,62,1
0.056818181818186986,3221,7,62,1
0.025000000000005684,3221,8,62,1
0.025000000000005684,3221,9,62,1
0.004545454545450411,3221,10,62,1
0.025000000000005684,3221,11,62,1
0.036363636363645924,3221,12,62,1
0.045454545454546746,3221,13,62,1
0.09999999999999432,3221,14,62,1
0.004545454545450411,3221,15,62,1
0.056818181818186986,3222,0,62,1
0.013636363636365445,3222,1,62,1
0.10000000000000853,3222,2,62,1
0.06818181818181301,3222,3,62,1
0.03636363636363171,3222,4,62,1
0.10000000000000853,3222,5,62,1
0.06818181818182723,3222,6,62,1
0.004545454545464622,3222,7,62,1
0.09999999999999432,3222,8,62,1
0.05909090909091219,3222,9,62,1
0.10000000000000853,3222,10,62,1
0.06818181818182723,3222,11,62,1
0.025000000000005684,3222,12,62,1
0.013636363636351234,3222,13,62,1
0.05909090909091219,3222,14,62,1
0.09999999999999432,3222,15,62,1
0.013636363636365445,3223,0,62,1
0.05909090909091219,3223,1,62,1
0.01590909090909065,3223,2,62,1
0.024999999999991473,3223,3,62,1
0.013636363636365445,3223,4,62,1
0.056818181818186986,3223,5,62,1
0.01590909090909065,3223,6,62,1
0.013636363636365445,3223,7,62,1
0.10000000000000853,3223,8,62,1
0.045454545454546746,3223,9,62,1
0.0022727272727252057,3223,10,62,1
0.01590909090909065,3223,11,62,1
0.09999999999999432,3223,12,62,1
0.06818181818181301,3223,13,62,1
0.024999999999991473,3223,14,62,1
0.03636363636363171,3223,15,62,1
0.04772727272727195,3224,0,62,1
0.004545454545450411,3224,1,62,1
0.013636363636351234,3224,2,62,1
0.0022727272727252057,3224,3,62,1
0.04772727272727195,3224,4,62,1
0.04772727272727195,3224,5,62,1
0.013636363636365445,3224,6,62,1
0.10000000000000853,3224,7,62,1
0.056818181818186986,3224,8,62,1
0.10000000000000853,3224,9,62,1
0.06818181818182723,3224,10,62,1
0.025000000000005684,3224,11,62,1
0.025000000000005684,3224,12,62,1
0.013636363636365445,3224,13,62,1
0.04772727272727195,3224,14,62,1
0.01590909090909065,3224,15,62,1
0.09999999999999432,3225,0,62,1
0.024999999999991473,3225,1,62,1
0.045454545454546746,3225,2,62,1
0.004545454545450411,3225,3,62,1
0.09999999999999432,3225,4,62,1
0.06818181818181301,3225,5,62,1
0.01590909090909065,3225,6,62,1
0.013636363636365445,3225,7,62,1
0.056818181818172775,3225,8,62,1
0.01590909090909065,3225,9,62,1
0.004545454545464622,3225,10,62,1
0.045454545454546746,3225,11,62,1
0.03636363636363171,3225,12,62,1
0.03636363636363171,3225,13,62,1
0.045454545454546746,3225,14,62,1
0.013636363636365445,3225,15,62,1
0.02727272727273089,3226,0,62,1
0.004545454545450411,3226,1,62,1
0.025000000000005684,3226,2,62,1
0.04772727272727195,3226,3,62,1
0.01590909090909065,3226,4,62,1
0.03636363636363171,3226,5,62,1
0.024999999999991473,3226,6,62,1
0.013636363636365445,3226,7,62,1
0.10000000000000853,3226,8,62,1
0.056818181818186986,3226,9,62,1
0.025000000000005684,3226,10,62,1
0.03636363636363171,3226,11,62,1
0.004545454545450411,3226,12,62,1
0.024999999999991473,3226,13,62,1
0.01590909090909065,3226,14,62,1
0.06590909090910202,3226,15,62,1
0.01590909090909065,3227,0,62,1
0.09999999999999432,3227,1,62,1
0.10000000000000853,3227,2,62,1
0.06818181818182723,3227,3,62,1
0.02727272727273089,3227,4,62,1
0.01590909090909065,3227,5,62,1
0.024999999999991473,3227,6,62,1
0.013636363636365445,3227,7,62,1
0.04772727272728616,3227,8,62,1
0.025000000000005684,3227,9,62,1
0.056818181818186986,3227,10,62,1
0.025000000000005684,3227,11,62,1
0.024999999999991473,3227,12,62,1
0.024999999999991473,3227,13,62,1
0.004545454545450411,3227,14,62,1
0.04772727272727195,3227,15,62,1
0.013636363636365445,3228,0,62,1
0.09999999999999432,3228,1,62,1
0.004545454545450411,3228,2,62,1
0.024999999999991473,3228,3,62,1
0.056818181818186986,3228,4,62,1
0.10000000000000853,3228,5,62,1
0.036363636363645924,3228,6,62,1
0.004545454545464622,3228,7,62,1
0.004545454545464622,3228,8,62,1
0.056818181818186986,3228,9,62,1
0.01590909090910486,3228,10,62,1
0.025000000000005684,3228,11,62,1
0.06818181818182723,3228,12,62,1
0.025000000000005684,3228,13,62,1
0.004545454545450411,3228,14,62,1
0.045454545454546746,3228,15,62,1
0.0022727272727394165,3229,0,62,1
0.025000000000005684,3229,1,62,1
0.10000000000000853,3229,2,62,1
0.06818181818182723,3229,3,62,1
0.01590909090909065,3229,4,62,1
0.045454545454546746,3229,5,62,1
0.013636363636365445,3229,6,62,1
0.03636363636363171,3229,7,62,1
0.02727272727271668,3229,8,62,1
0.024999999999991473,3229,9,62,1
0.025000000000005684,3229,10,62,1
0.01590909090909065,3229,11,62,1
0.036363636363645924,3229,12,62,1
0.004545454545464622,3229,13,62,1
0.025000000000005684,3229,14,62,1
0.013636363636365445,3229,15,62,1
0.024999999999991473,3230,0,62,1
0.04772727272727195,3230,1,62,1
0.004545454545450411,3230,2,62,1
0.013636363636351234,3230,3,62,1
0.024999999999991473,3230,4,62,1
0.025000000000005684,3230,5,62,1
0.004545454545450411,3230,6,62,1
0.10000000000000853,3230,7,62,1
0.036363636363645924,3230,8,62,1
0.004545454545464622,3230,9,62,1
0.025000000000005684,3230,10,62,1
0.025000000000005684,3230,11,62,1
0.01590909090909065,3230,12,62,1
0.056818181818186986,3230,13,62,1
0.013636363636365445,3230,14,62,1
0.013636363636365445,3230,15,62,1
0.004545454545450411,3231,0,62,1
0.036363636363645924,3231,1,62,1
0.004545454545464622,3231,2,62,1
0.0022727272727252057,3231,3,62,1
0.05909090909091219,3231,4,62,1
0.01590909090909065,3231,5,62,1
0.024999999999991473,3231,6,62,1
0.056818181818186986,3231,7,62,1
0.004545454545450411,3231,8,62,1
0.03636363636363171,3231,9,62,1
0.004545454545450411,3231,10,62,1
0.025000000000005684,3231,11,62,1
0.04772727272727195,3231,12,62,1
0.013636363636365445,3231,13,62,1
0.013636363636365445,3231,14,62,1
0.01590909090909065,3231,15,62,1
0.036363636363645924,3232,0,62,1
0.004545454545450411,3232,1,62,1
0.03409090909090651,3232,2,62,1
0.05909090909091219,3232,3,62,1
0.01590909090909065,3232,4,62,1
0.0022727272727252057,3232,5,62,1
0.03636363636363171,3232,6,62,1
0.025000000000005684,3232,7,62,1
0.05909090909091219,3232,8,62,1
0.024999999999991473,3232,9,62,1
0.03636363636363171,3232,10,62,1
0.03636363636363171,3232,11,62,1
0.03409090909090651,3232,12,62,1
0.01590909090909065,3232,13,62,1
0.013636363636365445,3232,14,62,1
0.025000000000005684,3232,15,62,1
0.10000000000000853,3233,0,62,1
0.036363636363645924,3233,1,62,1
0.004545454545464622,3233,2,62,1
0.0022727272727252057,3233,3,62,1
0.04772727272727195,3233,4,62,1
0.03636363636363171,3233,5,62,1
0.036363636363645924,3233,6,62,1
0.0022727272727394165,3233,7,62,1
0.09999999999999432,3233,8,62,1
0.013636363636365445,3233,9,62,1
0.056818181818186986,3233,10,62,1
0.01590909090909065,3233,11,62,1
0.025000000000005684,3233,12,62,1
0.024999999999991473,3233,13,62,1
0.013636363636365445,3233,14,62,1
0.056818181818186986,3233,15,62,1
0.025000000000005684,3234,0,62,1
0.024999999999991473,3234,1,62,1
0.04772727272727195,3234,2,62,1
0.04772727272727195,3234,3,62,1
0.004545454545450411,3234,4,62,1
0.025000000000005684,3234,5,62,1
0.025000000000005684,3234,6,62,1
0.004545454545450411,3234,7,62,1
0.056818181818172775,3234,8,62,1
0.024999999999991473,3234,9,62,1
0.024999999999991473,3234,10,62,1
0.013636363636365445,3234,11,62,1
0.025000000000005684,3234,12,62,1
0.10000000000000853,3234,13,62,1
0.06818181818182723,3234,14,62,1
0.01590909090909065,3234,15,62,1
0.01590909090909065,3235,0,62,1
0.025000000000005684,3235,1,62,1
0.025000000000005684,3235,2,62,1
0.004545454545464622,3235,3,62,1
0.013636363636365445,3235,4,62,1
0.06818181818181301,3235,5,62,1
0.024999999999991473,3235,6,62,1
0.03636363636363171,3235,7,62,1
0.03636363636363171,3235,8,62,1
0.004545454545450411,3235,9,62,1
0.013636363636351234,3235,10,62,1
0.04772727272727195,3235,11,62,1
0.01590909090909065,3235,12,62,1
0.013636363636365445,3235,13,62,1
0.056818181818186986,3235,14,62,1
0.025000000000005684,3235,15,62,1
0.036363636363645924,3236,0,62,1
0.013636363636365445,3236,1,62,1
0.04772727272727195,3236,2,62,1
0.10000000000000853,3236,3,62,1
0.056818181818186986,3236,4,62,1
0.025000000000005684,3236,5,62,1
0.024999999999991473,3236,6,62,1
0.013636363636365445,3236,7,62,1
0.025000000000005684,3236,8,62,1
0.02727272727273089,3236,9,62,1
0.03409090909092072,3236,10,62,1
0.036363636363645924,3236,11,62,1
0.036363636363645924,3236,12,62,1
0.056818181818186986,3236,13,62,1
0.01590909090909065,3236,14,62,1
0.025000000000005684,3236,15,62,1
0.03409090909090651,3237,0,62,1
0.09999999999999432,3237,1,62,1
0.05909090909089798,3237,2,62,1
0.10000000000000853,3237,3,62,1
0.045454545454546746,3237,4,62,1
0.04772727272727195,3237,5,62,1
0.01590909090909065,3237,6,62,1
0.025000000000005684,3237,7,62,1
0.09999999999999432,3237,8,62,1
0.04772727272727195,3237,9,62,1
0.004545454545450411,3237,10,62,1
0.056818181818172775,3237,11,62,1
0.03636363636363171,3237,12,62,1
0.045454545454546746,3237,13,62,1
0.025000000000005684,3237,14,62,1
0.02727272727273089,3237,15,62,1
0.03409090909090651,3238,0,62,1
0.09999999999999432,3238,1,62,1
0.05909090909091219,3238,2,62,1
0.02727272727273089,3238,3,62,1
0.013636363636365445,3238,4,62,1
0.004545454545450411,3238,5,62,1
0.056818181818172775,3238,6,62,1
0.004545454545450411,3238,7,62,1
0.004545454545450411,3238,8,62,1
0.025000000000005684,3238,9,62,1
0.03636363636363171,3238,10,62,1
0.013636363636351234,3238,11,62,1
0.025000000000005684,3238,12,62,1
0.02727272727273089,3238,13,62,1
0.045454545454546746,3238,14,62,1
0.04772727272727195,3238,15,62,1
0.01590909090909065,3239,0,62,1
0.10000000000000853,3239,1,62,1
0.10000000000000853,3239,2,62,1
0.013636363636365445,3239,3,62,1
0.04772727272727195,3239,4,62,1
0.025000000000005684,3239,5,62,1
0.03636363636363171,3239,6,62,1
0.045454545454546746,3239,7,62,1
0.013636363636351234,3239,8,62,1
0.02727272727273089,3239,9,62,1
0.013636363636365445,3239,10,62,1
0.03636363636363171,3239,11,62,1
0.056818181818172775,3239,12,62,1
0.025000000000005684,3239,13,62,1
0.04772727272727195,3239,14,62,1
0.013636363636365445,3239,15,62,1
0.05909090909091219,3240,0,62,1
0.03409090909090651,3240,1,62,1
0.04772727272727195,3240,2,62,1
0.01590909090909065,3240,3,62,1
0.036363636363645924,3240,4,62,1
0.004545454545464622,3240,5,62,1
0.013636363636365445,3240,6,62,1
0.03636363636363171,3240,7,62,1
0.03636363636363171,3240,8,62,1
0.004545454545450411,3240,9,62,1
0.036363636363645924,3240,10,62,1
0.025000000000005684,3240,11,62,1
0.03636363636363171,3240,12,62,1
0.03636363636363171,3240,13,62,1
0.045454545454532536,3240,14,62,1
0.03636363636363171,3240,15,62,1
0.04772727272727195,3241,0,62,1
0.03409090909090651,3241,1,62,1
0.04772727272727195,3241,2,62,1
0.10000000000000853,3241,3,62,1
0.056818181818186986,3241,4,62,1
0.004545454545450411,3241,5,62,1
0.04772727272727195,3241,6,62,1
0.045454545454546746,3241,7,62,1
0.013636363636365445,3241,8,62,1
0.024999999999991473,3241,9,62,1
0.06818181818181301,3241,10,62,1
0.09999999999999432,3241,11,62,1
0.09999999999999432,3241,12,62,1
0.013636363636365445,3241,13,62,1
0.01590909090909065,3241,14,62,1
0.025000000000005684,3241,15,62,1
0.056818181818186986,3242,0,62,1
0.004545454545464622,3242,1,62,1
0.056818181818186986,3242,2,62,1
0.025000000000005684,3242,3,62,1
0.03636363636363171,3242,4,62,1
0.004545454545450411,3242,5,62,1
0.025000000000005684,3242,6,62,1
0.01590909090909065,3242,7,62,1
0.056818181818186986,3242,8,62,1
0.09999999999999432,3242,9,62,1
0.045454545454546746,3242,10,62,1
0.04772727272727195,3242,11,62,1
0.04772727272727195,3242,12,62,1
0.013636363636365445,3242,13,62,1
0.025000000000005684,3242,14,62,1
0.02727272727273089,3242,15,62,1
0.024999999999991473,3243,0,62,1
0.0022727272727252057,3243,1,62,1
0.036363636363645924,3243,2,62,1
0.04772727272727195,3243,3,62,1
0.09999999999999432,3243,4,62,1
0.03636363636363171,3243,5,62,1
0.05909090909089798,3243,6,62,1
0.01590909090909065,3243,7,62,1
0.036363636363645924,3243,8,62,1
0.045454545454546746,3243,9,62,1
0.03636363636363171,3243,10,62,1
0.09999999999999432,3243,11,62,1
0.03636363636363171,3243,12,62,1
0.09999999999999432,3243,13,62,1
0.06818181818181301,3243,14,62,1
0.024999999999991473,3243,15,62,1
0.013636363636365445,3244,0,62,1
0.036363636363645924,3244,1,62,1
0.025000000000005684,3244,2,62,1
0.056818181818186986,3244,3,62,1
0.01590909090909065,3244,4,62,1
0.024999999999991473,3244,5,62,1
0.0022727272727252057,3244,6,62,1
0.04772727272727195,3244,7,62,1
0.004545454545450411,3244,8,62,1
0.004545454545464622,3244,9,62,1
0.01590909090909065,3244,10,62,1
0.025000000000005684,3244,11,62,1
0.013636363636365445,3244,12,62,1
0.025000000000005684,3244,13,62,1
0.004545454545450411,3244,14,62,1
0.03636363636363171,3244,15,62,1
0.056818181818172775,3245,0,62,1
0.024999999999991473,3245,1,62,1
0.024999999999991473,3245,2,62,1
0.024999999999991473,3245,3,62,1
0.013636363636365445,3245,4,62,1
0.09999999999999432,3245,5,62,1
0.04772727272727195,3245,6,62,1
0.036363636363645924,3245,7,62,1
0.013636363636365445,3245,8,62,1
0.01590909090909065,3245,9,62,1
0.036363636363645924,3245,10,62,1
0.045454545454546746,3245,11,62,1
0.01590909090909065,3245,12,62,1
0.06590909090910202,3245,13,62,1
0.03409090909090651,3245,14,62,1
0.004545454545450411,3245,15,62,1
0.004545454545450411,3246,0,62,1
0.004545454545450411,3246,1,62,1
0.024999999999991473,3246,2,62,1
0.045454545454546746,3246,3,62,1
0.02727272727273089,3246,4,62,1
0.045454545454546746,3246,5,62,1
0.04772727272727195,3246,6,62,1
0.025000000000005684,3246,7,62,1
0.056818181818186986,3246,8,62,1
0.013636363636365445,3246,9,62,1
0.013636363636365445,3246,10,62,1
0.004545454545450411,3246,11,62,1
0.03636363636363171,3246,12,62,1
0.03636363636363171,3246,13,62,1
0.03636363636363171,3246,14,62,1
0.024999999999991473,3246,15,62,1
0.06818181818181301,3247,0,62,1
0.013636363636365445,3247,1,62,1
0.10000000000000853,3247,2,62,1
0.036363636363645924,3247,3,62,1
0.09999999999999432,3247,4,62,1
0.045454545454546746,3247,5,62,1
0.0022727272727252057,3247,6,62,1
0.025000000000005684,3247,7,62,1
0.02727272727271668,3247,8,62,1
0.01590909090909065,3247,9,62,1
0.025000000000005684,3247,10,62,1
0.0022727272727252057,3247,11,62,1
0.05909090909091219,3247,12,62,1
0.01590909090909065,3247,13,62,1
0.025000000000005684,3247,14,62,1
0.024999999999991473,3247,15,62,1
0.004545454545450411,3248,0,62,1
0.03636363636363171,3248,1,62,1
0.10000000000000853,3248,2,62,1
0.06818181818182723,3248,3,62,1
0.10000000000000853,3248,4,62,1
0.06818181818182723,3248,5,62,1
0.02727272727273089,3248,6,62,1
0.004545454545464622,3248,7,62,1
0.025000000000005684,3248,8,62,1
0.04772727272727195,3248,9,62,1
0.01590909090909065,3248,10,62,1
0.025000000000005684,3248,11,62,1
0.025000000000005684,3248,12,62,1
0.025000000000005684,3248,13,62,1
0.013636363636351234,3248,14,62,1
0.01590909090909065,3248,15,62,1
0.06818181818181301,3249,0,62,1
0.024999999999991473,3249,1,62,1
0.013636363636365445,3249,2,62,1
0.01590909090909065,3249,3,62,1
0.004545454545450411,3249,4,62,1
0.013636363636365445,3249,5,62,1
0.01590909090909065,3249,6,62,1
0.03409090909090651,3249,7,62,1
0.05909090909091219,3249,8,62,1
0.025000000000005684,3249,9,62,1
0.03409090909090651,3249,10,62,1
0.004545454545450411,3249,11,62,1
0.036363636363645924,3249,12,62,1
0.004545454545464622,3249,13,62,1
0.036363636363645924,3249,14,62,1
0.025000000000005684,3249,15,62,1
0.056818181818172775,3250,0,62,1
0.024999999999991473,3250,1,62,1
0.03636363636363171,3250,2,62,1
0.04772727272727195,3250,3,62,1
0.09999999999999432,3250,4,62,1
0.03636363636363171,3250,5,62,1
0.045454545454546746,3250,6,62,1
0.02727272727273089,3250,7,62,1
0.056818181818172775,3250,8,62,1
0.0022727272727252057,3250,9,62,1
0.013636363636365445,3250,10,62,1
0.09999999999999432,3250,11,62,1
0.045454545454546746,3250,12,62,1
0.09999999999999432,3250,13,62,1
0.04772727272727195,3250,14,62,1
0.036363636363645924,3250,15,62,1
0.056818181818186986,3251,0,62,1
0.013636363636365445,3251,1,62,1
0.024999999999991473,3251,2,62,1
0.024999999999991473,3251,3,62,1
0.013636363636365445,3251,4,62,1
0.01590909090909065,3251,5,62,1
0.01590909090909065,3251,6,62,1
0.024999999999991473,3251,7,62,1
0.024999999999991473,3251,8,62,1
0.013636363636365445,3251,9,62,1
0.01590909090909065,3251,10,62,1
0.01590909090909065,3251,11,62,1
0.013636363636365445,3251,12,62,1
0.025000000000005684,3251,13,62,1
0.01590909090909065,3251,14,62,1
0.045454545454546746,3251,15,62,1
0.013636363636365445,3252,0,62,1
0.01590909090909065,3252,1,62,1
0.03409090909090651,3252,2,62,1
0.024999999999991473,3252,3,62,1
0.05909090909091219,3252,4,62,1
0.01590909090909065,3252,5,62,1
0.025000000000005684,3252,6,62,1
0.013636363636351234,3252,7,62,1
0.05909090909091219,3252,8,62,1
0.025000000000005684,3252,9,62,1
0.03409090909092072,3252,10,62,1
0.0022727272727394165,3252,11,62,1
0.02727272727273089,3252,12,62,1
0.004545454545450411,3252,13,62,1
0.0022727272727252057,3252,14,62,1
0.01590909090909065,3252,15,62,1
0.06818181818181301,3253,0,62,1
0.025000000000005684,3253,1,62,1
0.025000000000005684,3253,2,62,1
0.013636363636365445,3253,3,62,1
0.013636363636365445,3253,4,62,1
0.024999999999991473,3253,5,62,1
0.024999999999991473,3253,6,62,1
0.09999999999999432,3253,7,62,1
0.06818181818181301,3253,8,62,1
0.01590909090909065,3253,9,62,1
0.024999999999991473,3253,10,62,1
0.03636363636363171,3253,11,62,1
0.056818181818172775,3253,12,62,1
0.013636363636365445,3253,13,62,1
0.004545454545450411,3253,14,62,1
0.01590909090909065,3253,15,62,1
0.024999999999991473,3254,0,62,1
0.06818181818181301,3254,1,62,1
0.025000000000005684,3254,2,62,1
0.013636363636365445,3254,3,62,1
0.013636363636365445,3254,4,62,1
0.01590909090909065,3254,5,62,1
0.02727272727271668,3254,6,62,1
0.013636363636365445,3254,7,62,1
0.013636363636365445,3254,8,62,1
0.025000000000005684,3254,9,62,1
0.025000000000005684,3254,10,62,1
0.024999999999991473,3254,11,62,1
0.01590909090909065,3254,12,62,1
0.004545454545450411,3254,13,62,1
0.04772727272727195,3254,14,62,1
0.045454545454546746,3254,15,62,1
0.004545454545464622,3255,0,62,1
0.004545454545450411,3255,1,62,1
0.03636363636363171,3255,2,62,1
0.013636363636365445,3255,3,62,1
0.09999999999999432,3255,4,62,1
0.06818181818181301,3255,5,62,1
0.013636363636365445,3255,6,62,1
0.06818181818181301,3255,7,62,1
0.02727272727271668,3255,8,62,1
0.0022727272727252057,3255,9,62,1
0.03636363636363171,3255,10,62,1
0.004545454545450411,3255,11,62,1
0.024999999999991473,3255,12,62,1
0.004545454545450411,3255,13,62,1
0.01590909090909065,3255,14,62,1
0.025000000000005684,3255,15,62,1
0.06818181818181301,3256,0,62,1
0.013636363636351234,3256,1,62,1
0.004545454545450411,3256,2,62,1
0.01590909090909065,3256,3,62,1
0.025000000000005684,3256,4,62,1
0.024999999999991473,3256,5,62,1
0.024999999999991473,3256,6,62,1
0.024999999999991473,3256,7,62,1
0.013636363636365445,3256,8,62,1
0.025000000000005684,3256,9,62,1
0.05909090909091219,3256,10,62,1
0.10000000000000853,3256,11,62,1
0.04772727272727195,3256,12,62,1
0.045454545454546746,3256,13,62,1
0.013636363636365445,3256,14,62,1
0.004545454545464622,3256,15,62,1
0.036363636363645924,3257,0,62,1
0.025000000000005684,3257,1,62,1
0.056818181818186986,3257,2,62,1
0.025000000000005684,3257,3,62,1
0.013636363636365445,3257,4,62,1
0.03636363636363171,3257,5,62,1
0.025000000000005684,3257,6,62,1
0.05909090909091219,3257,7,62,1
0.03409090909090651,3257,8,62,1
0.01590909090909065,3257,9,62,1
0.06818181818181301,3257,10,62,1
0.013636363636365445,3257,11,62,1
0.04772727272727195,3257,12,62,1
0.004545454545450411,3257,13,62,1
0.013636363636365445,3257,14,62,1
0.024999999999991473,3257,15,62,1
0.06818181818181301,3258,0,62,1
0.01590909090909065,3258,1,62,1
0.09999999999999432,3258,2,62,1
0.05909090909091219,3258,3,62,1
0.024999999999991473,3258,4,62,1
0.013636363636365445,3258,5,62,1
0.024999999999991473,3258,6,62,1
0.06818181818181301,3258,7,62,1
0.09999999999999432,3258,8,62,1
0.03636363636363171,3258,9,62,1
0.045454545454546746,3258,10,62,1
0.013636363636365445,3258,11,62,1
0.05909090909089798,3258,12,62,1
0.01590909090909065,3258,13,62,1
0.025000000000005684,3258,14,62,1
0.06818181818182723,3258,15,62,1
0.01590909090909065,3259,0,62,1
0.013636363636365445,3259,1,62,1
0.09999999999999432,3259,2,62,1
0.056818181818172775,3259,3,62,1
0.024999999999991473,3259,4,62,1
0.02727272727273089,3259,5,62,1
0.01590909090909065,3259,6,62,1
0.025000000000005684,3259,7,62,1
0.024999999999991473,3259,8,62,1
0.004545454545450411,3259,9,62,1
0.09999999999999432,3259,10,62,1
0.03409090909090651,3259,11,62,1
0.0022727272727252057,3259,12,62,1
0.02727272727271668,3259,13,62,1
0.02727272727271668,3259,14,62,1
0.03409090909090651,3259,15,62,1
0.024999999999991473,3260,0,62,1
0.004545454545450411,3260,1,62,1
0.013636363636365445,3260,2,62,1
0.03636363636363171,3260,3,62,1
0.01590909090909065,3260,4,62,1
0.09999999999999432,3260,5,62,1
0.056818181818172775,3260,6,62,1
0.024999999999991473,3260,7,62,1
0.09999999999999432,3260,8,62,1
0.056818181818172775,3260,9,62,1
0.024999999999991473,3260,10,62,1
0.09999999999999432,3260,11,62,1
0.06590909090908781,3260,12,62,1
0.0022727272727252057,3260,13,62,1
0.01590909090909065,3260,14,62,1
0.03636363636363171,3260,15,62,1
0.056818181818186986,3261,0,62,1
0.0022727272727252057,3261,1,62,1
0.01590909090909065,3261,2,62,1
0.06818181818182723,3261,3,62,1
0.025000000000005684,3261,4,62,1
0.004545454545450411,3261,5,62,1
0.06818181818182723,3261,6,62,1
0.013636363636365445,3261,7,62,1
0.056818181818186986,3261,8,62,1
0.024999999999991473,3261,9,62,1
0.025000000000005684,3261,10,62,1
0.01590909090909065,3261,11,62,1
0.013636363636365445,3261,12,62,1
0.06818181818182723,3261,13,62,1
0.036363636363645924,3261,14,62,1
0.025000000000005684,3261,15,62,1
0.01590909090909065,3262,0,62,1
0.06818181818182723,3262,1,62,1
0.036363636363645924,3262,2,62,1
0.0022727272727252057,3262,3,62,1
0.04772727272727195,3262,4,62,1
0.013636363636351234,3262,5,62,1
0.004545454545450411,3262,6,62,1
0.03636363636363171,3262,7,62,1
0.03636363636363171,3262,8,62,1
0.004545454545450411,3262,9,62,1
0.013636363636365445,3262,10,62,1
0.013636363636365445,3262,11,62,1
0.02727272727273089,3262,12,62,1
0.013636363636351234,3262,13,62,1
0.04772727272727195,3262,14,62,1
0.013636363636365445,3262,15,62,1
0.0022727272727252057,3263,0,62,1
0.056818181818186986,3263,1,62,1
0.01590909090909065,3263,2,62,1
0.025000000000005684,3263,3,62,1
0.056818181818186986,3263,4,62,1
0.10000000000000853,3263,5,62,1
0.06818181818182723,3263,6,62,1
0.013636363636365445,3263,7,62,1
0.06818181818181301,3263,8,62,1
0.024999999999991473,3263,9,62,1
0.09999999999999432,3263,10,62,1
0.056818181818186986,3263,11,62,1
0.01590909090909065,3263,12,62,1
0.025000000000005684,3263,13,62,1
0.013636363636365445,3263,14,62,1
0.03636363636363171,3263,15,62,1
0.056818181818186986,3264,0,62,1
0.09999999999999432,3264,1,62,1
0.05909090909089798,3264,2,62,1
0.10000000000000853,3264,3,62,1
0.045454545454546746,3264,4,62,1
0.024999999999991473,3264,5,62,1
0.05909090909091219,3264,6,62,1
0.004545454545450411,3264,7,62,1
0.09999999999999432,3264,8,62,1
0.10000000000000853,3264,9,62,1
0.04772727272727195,3264,10,62,1
0.045454545454546746,3264,11,62,1
0.004545454545450411,3264,12,62,1
0.01590909090909065,3264,13,62,1
0.013636363636365445,3264,14,62,1
0.09999999999999432,3264,15,62,1
0.0022727272727252057,3265,0,62,1
0.03636363636363171,3265,1,62,1
0.056818181818172775,3265,2,62,1
0.004545454545450411,3265,3,62,1
0.03636363636363171,3265,4,62,1
0.024999999999991473,3265,5,62,1
0.03636363636363171,3265,6,62,1
0.03636363636363171,3265,7,62,1
0.056818181818172775,3265,8,62,1
0.01590909090909065,3265,9,62,1
0.045454545454546746,3265,10,62,1
0.10000000000000853,3265,11,62,1
0.036363636363645924,3265,12,62,1
0.004545454545464622,3265,13,62,1
0.025000000000005684,3265,14,62,1
0.025000000000005684,3265,15,62,1
0.013636363636365445,3266,0,62,1
0.01590909090909065,3266,1,62,1
0.06818181818182723,3266,2,62,1
0.025000000000005684,3266,3,62,1
0.004545454545464622,3266,4,62,1
0.01590909090909065,3266,5,62,1
0.013636363636365445,3266,6,62,1
0.06818181818181301,3266,7,62,1
0.024999999999991473,3266,8,62,1
0.013636363636365445,3266,9,62,1
0.02727272727273089,3266,10,62,1
0.056818181818172775,3266,11,62,1
0.024999999999991473,3266,12,62,1
0.056818181818186986,3266,13,62,1
0.013636363636365445,3266,14,62,1
0.01590909090909065,3266,15,62,1
0.10000000000000853,3267,0,62,1
0.056818181818186986,3267,1,62,1
0.004545454545464622,3267,2,62,1
0.004545454545464622,3267,3,62,1
0.09999999999999432,3267,4,62,1
0.06818181818181301,3267,5,62,1
0.024999999999991473,3267,6,62,1
0.024999999999991473,3267,7,62,1
0.01590909090909065,3267,8,62,1
0.045454545454532536,3267,9,62,1
0.013636363636351234,3267,10,62,1
0.01590909090909065,3267,11,62,1
0.0022727272727252057,3267,12,62,1
0.05909090909091219,3267,13,62,1
0.01590909090909065,3267,14,62,1
0.013636363636365445,3267,15,62,1
0.06818181818181301,3268,0,62,1
0.01590909090909065,3268,1,62,1
0.025000000000005684,3268,2,62,1
0.06818181818182723,3268,3,62,1
0.025000000000005684,3268,4,62,1
0.10000000000000853,3268,5,62,1
0.09999999999999432,3268,6,62,1
0.06818181818181301,3268,7,62,1
0.01590909090909065,3268,8,62,1
0.013636363636365445,3268,9,62,1
0.09999999999999432,3268,10,62,1
0.03636363636363171,3268,11,62,1
0.0022727272727252057,3268,12,62,1
0.06818181818181301,3268,13,62,1
0.09999999999999432,3268,14,62,1
0.02727272727271668,3268,15,62,1
0.0022727272727252057,3269,0,62,1
0.02727272727271668,3269,1,62,1
0.03409090909090651,3269,2,62,1
0.0022727272727252057,3269,3,62,1
0.024999999999991473,3269,4,62,1
0.02727272727273089,3269,5,62,1
0.056818181818186986,3269,6,62,1
0.004545454545450411,3269,7,62,1
0.056818181818172775,3269,8,62,1
0.03636363636363171,3269,9,62,1
0.056818181818172775,3269,10,62,1
0.013636363636365445,3269,11,62,1
0.025000000000005684,3269,12,62,1
0.025000000000005684,3269,13,62,1
0.056818181818186986,3269,14,62,1
0.004545454545464622,3269,15,62,1
0.01590909090909065,3270,0,62,1
0.025000000000005684,3270,1,62,1
0.04772727272727195,3270,2,62,1
0.03409090909090651,3270,3,62,1
0.09999999999999432,3270,4,62,1
0.004545454545450411,3270,5,62,1
0.056818181818186986,3270,6,62,1
0.02727272727273089,3270,7,62,1
0.045454545454546746,3270,8,62,1
0.0022727272727394165,3270,9,62,1
0.02727272727273089,3270,10,62,1
0.024999999999991473,3270,11,62,1
0.056818181818172775,3270,12,62,1
0.025000000000005684,3270,13,62,1
0.036363636363645924,3270,14,62,1
0.004545454545450411,3270,15,62,1
0.013636363636365445,3271,0,62,1
0.004545454545450411,3271,1,62,1
0.09999999999999432,3271,2,62,1
0.10000000000000853,3271,3,62,1
0.056818181818186986,3271,4,62,1
0.10000000000000853,3271,5,62,1
0.025000000000005684,3271,6,62,1
0.045454545454532536,3271,7,62,1
0.0022727272727252057,3271,8,62,1
0.01590909090909065,3271,9,62,1
0.01590909090909065,3271,10,62,1
0.004545454545450411,3271,11,62,1
0.06818181818181301,3271,12,62,1
0.013636363636365445,3271,13,62,1
0.013636363636365445,3271,14,62,1
0.05909090909091219,3271,15,62,1
0.01590909090909065,3272,0,62,1
0.013636363636365445,3272,1,62,1
0.06818181818181301,3272,2,62,1
0.02727272727273089,3272,3,62,1
0.024999999999991473,3272,4,62,1
0.01590909090909065,3272,5,62,1
0.09999999999999432,3272,6,62,1
0.01590909090909065,3272,7,62,1
0.045454545454546746,3272,8,62,1
0.0022727272727252057,3272,9,62,1
0.01590909090909065,3272,10,62,1
0.03636363636363171,3272,11,62,1
0.056818181818172775,3272,12,62,1
0.0022727272727252057,3272,13,62,1
0.004545454545450411,3272,14,62,1
0.09999999999999432,3272,15,62,1
0.045454545454546746,3273,0,62,1
0.013636363636365445,3273,1,62,1
0.09999999999999432,3273,2,62,1
0.004545454545450411,3273,3,62,1
0.056818181818186986,3273,4,62,1
0.025000000000005684,3273,5,62,1
0.013636363636365445,3273,6,62,1
0.05909090909091219,3273,7,62,1
0.013636363636351234,3273,8,62,1
0.056818181818186986,3273,9,62,1
0.10000000000000853,3273,10,62,1
0.09999999999999432,3273,11,62,1
0.03636363636363171,3273,12,62,1
0.10000000000000853,3273,13,62,1
0.06818181818182723,3273,14,62,1
0.10000000000000853,3273,15,62,1
0.025000000000005684,3274,0,62,1
0.04772727272727195,3274,1,62,1
0.004545454545450411,3274,2,62,1
0.025000000000005684,3274,3,62,1
0.03636363636363171,3274,4,62,1
0.024999999999991473,3274,5,62,1
0.0022727272727394165,3274,6,62,1
0.10000000000000853,3274,7,62,1
0.036363636363645924,3274,8,62,1
0.004545454545464622,3274,9,62,1
0.01590909090909065,3274,10,62,1
0.03409090909090651,3274,11,62,1
0.05909090909089798,3274,12,62,1
0.01590909090909065,3274,13,62,1
0.025000000000005684,3274,14,62,1
0.025000000000005684,3274,15,62,1
0.01590909090909065,3275,0,62,1
0.056818181818186986,3275,1,62,1
0.025000000000005684,3275,2,62,1
0.06818181818181301,3275,3,62,1
0.013636363636351234,3275,4,62,1
0.013636363636351234,3275,5,62,1
0.02727272727273089,3275,6,62,1
0.025000000000005684,3275,7,62,1
0.025000000000005684,3275,8,62,1
0.013636363636351234,3275,9,62,1
0.056818181818186986,3275,10,62,1
0.025000000000005684,3275,11,62,1
0.025000000000005684,3275,12,62,1
0.02727272727273089,3275,13,62,1
0.045454545454546746,3275,14,62,1
0.013636363636365445,3275,15,62,1
0.025000000000005684,3276,0,62,1
0.01590909090909065,3276,1,62,1
0.024999999999991473,3276,2,62,1
0.025000000000005684,3276,3,62,1
0.013636363636365445,3276,4,62,1
0.06818181818181301,3276,5,62,1
0.024999999999991473,3276,6,62,1
0.01590909090909065,3276,7,62,1
0.025000000000005684,3276,8,62,1
0.056818181818186986,3276,9,62,1
0.013636363636365445,3276,10,62,1
0.013636363636351234,3276,11,62,1
0.024999999999991473,3276,12,62,1
0.025000000000005684,3276,13,62,1
0.004545454545450411,3276,14,62,1
0.004545454545464622,3276,15,62,1
0.036363636363645924,3277,0,62,1
0.056818181818186986,3277,1,62,1
0.01590909090909065,3277,2,62,1
0.025000000000005684,3277,3,62,1
0.03409090909090651,3277,4,62,1
0.01590909090909065,3277,5,62,1
0.03636363636363171,3277,6,62,1
0.004545454545450411,3277,7,62,1
0.013636363636365445,3277,8,62,1
0.004545454545450411,3277,9,62,1
0.04772727272728616,3277,10,62,1
0.004545454545464622,3277,11,62,1
0.025000000000005684,3277,12,62,1
0.025000000000005684,3277,13,62,1
0.013636363636365445,3277,14,62,1
0.004545454545450411,3277,15,62,1
0.045454545454546746,3278,0,62,1
0.013636363636365445,3278,1,62,1
0.03636363636363171,3278,2,62,1
0.004545454545450411,3278,3,62,1
0.056818181818172775,3278,4,62,1
0.004545454545450411,3278,5,62,1
0.09999999999999432,3278,6,62,1
0.06818181818181301,3278,7,62,1
0.0022727272727252057,3278,8,62,1
0.02727272727271668,3278,9,62,1
0.06590909090908781,3278,10,62,1
0.02727272727271668,3278,11,62,1
0.025000000000005684,3278,12,62,1
0.056818181818186986,3278,13,62,1
0.024999999999991473,3278,14,62,1
0.09999999999999432,3278,15,62,1
0.004545454545450411,3279,0,62,1
0.004545454545450411,3279,1,62,1
0.03636363636363171,3279,2,62,1
0.0022727272727252057,3279,3,62,1
0.013636363636351234,3279,4,62,1
0.03636363636363171,3279,5,62,1
0.03636363636363171,3279,6,62,1
0.056818181818186986,3279,7,62,1
0.10000000000000853,3279,8,62,1
0.056818181818186986,3279,9,62,1
0.013636363636365445,3279,10,62,1
0.004545454545450411,3279,11,62,1
0.025000000000005684,3279,12,62,1
0.056818181818172775,3279,13,62,1
0.024999999999991473,3279,14,62,1
0.05909090909091219,3279,15,62,1
0.0022727272727394165,3280,0,62,1
0.004545454545464622,3280,1,62,1
0.03636363636363171,3280,2,62,1
0.056818181818186986,3280,3,62,1
0.036363636363645924,3280,4,62,1
0.004545454545464622,3280,5,62,1
0.036363636363645924,3280,6,62,1
0.013636363636365445,3280,7,62,1
0.01590909090909065,3280,8,62,1
0.013636363636365445,3280,9,62,1
0.02727272727271668,3280,10,62,1
0.06590909090908781,3280,11,62,1
0.025000000000005684,3280,12,62,1
0.0022727272727252057,3280,13,62,1
0.02727272727273089,3280,14,62,1
0.056818181818186986,3280,15,62,1
0.013636363636351234,3281,0,62,1
0.06818181818181301,3281,1,62,1
0.025000000000005684,3281,2,62,1
0.004545454545450411,3281,3,62,1
0.01590909090909065,3281,4,62,1
0.03636363636363171,3281,5,62,1
0.004545454545450411,3281,6,62,1
0.024999999999991473,3281,7,62,1
0.03636363636363171,3281,8,62,1
0.045454545454546746,3281,9,62,1
0.036363636363645924,3281,10,62,1
0.04772727272727195,3281,11,62,1
0.045454545454546746,3281,12,62,1
0.013636363636365445,3281,13,62,1
0.004545454545450411,3281,14,62,1
0.045454545454546746,3281,15,62,1
0.013636363636365445,3282,0,62,1
0.03636363636363171,3282,1,62,1
0.004545454545450411,3282,2,62,1
0.004545454545450411,3282,3,62,1
0.045454545454546746,3282,4,62,1
0.04772727272727195,3282,5,62,1
0.045454545454546746,3282,6,62,1
0.004545454545450411,3282,7,62,1
0.02727272727273089,3282,8,62,1
0.013636363636365445,3282,9,62,1
0.09999999999999432,3282,10,62,1
0.056818181818172775,3282,11,62,1
0.024999999999991473,3282,12,62,1
0.10000000000000853,3282,13,62,1
0.045454545454546746,3282,14,62,1
0.09999999999999432,3282,15,62,1
0.024999999999991473,3283,0,62,1
0.02727272727273089,3283,1,62,1
0.06818181818182723,3283,2,62,1
0.025000000000005684,3283,3,62,1
0.025000000000005684,3283,4,62,1
0.024999999999991473,3283,5,62,1
0.024999999999991473,3283,6,62,1
0.03636363636363171,3283,7,62,1
0.056818181818186986,3283,8,62,1
0.025000000000005684,3283,9,62,1
0.06818181818182723,3283,10,62,1
0.10000000000000853,3283,11,62,1
0.056818181818186986,3283,12,62,1
0.01590909090909065,3283,13,62,1
0.025000000000005684,3283,14,62,1
0.025000000000005684,3283,15,62,1
0.056818181818186986,3284,0,62,1
0.013636363636365445,3284,1,62,1
0.02727272727273089,3284,2,62,1
0.045454545454546746,3284,3,62,1
0.0022727272727252057,3284,4,62,1
0.004545454545450411,3284,5,62,1
0.004545454545450411,3284,6,62,1
0.004545454545450411,3284,7,62,1
0.004545454545450411,3284,8,62,1
0.013636363636351234,3284,9,62,1
0.004545454545450411,3284,10,62,1
0.013636363636365445,3284,11,62,1
0.04772727272727195,3284,12,62,1
0.0022727272727252057,3284,13,62,1
0.03636363636363171,3284,14,62,1
0.004545454545450411,3284,15,62,1
0.025000000000005684,3285,0,62,1
0.024999999999991473,3285,1,62,1
0.05909090909091219,3285,2,62,1
0.01590909090909065,3285,3,62,1
0.025000000000005684,3285,4,62,1
0.025000000000005684,3285,5,62,1
0.004545454545464622,3285,6,62,1
0.004545454545450411,3285,7,62,1
0.013636363636351234,3285,8,62,1
0.004545454545450411,3285,9,62,1
0.045454545454546746,3285,10,62,1
0.01590909090909065,3285,11,62,1
0.013636363636365445,3285,12,62,1
0.05909090909089798,3285,13,62,1
0.01590909090909065,3285,14,62,1
0.013636363636365445,3285,15,62,1
0.09999999999999432,3286,0,62,1
0.03636363636363171,3286,1,62,1
0.05909090909091219,3286,2,62,1
0.01590909090909065,3286,3,62,1
0.025000000000005684,3286,4,62,1
0.036363636363645924,3286,5,62,1
0.013636363636365445,3286,6,62,1
0.01590909090909065,3286,7,62,1
0.025000000000005684,3286,8,62,1
0.06818181818181301,3286,9,62,1
0.03636363636363171,3286,10,62,1
0.013636363636351234,3286,11,62,1
0.04772727272728616,3286,12,62,1
0.03409090909090651,3286,13,62,1
0.0022727272727252057,3286,14,62,1
0.03636363636363171,3286,15,62,1
0.09999999999999432,3287,0,62,1
0.06818181818181301,3287,1,62,1
0.004545454545450411,3287,2,62,1
0.03409090909090651,3287,3,62,1
0.09999999999999432,3287,4,62,1
0.056818181818186986,3287,5,62,1
0.03636363636363171,3287,6,62,1
0.056818181818186986,3287,7,62,1
0.025000000000005684,3287,8,62,1
0.025000000000005684,3287,9,62,1
0.025000000000005684,3287,10,62,1
0.01590909090910486,3287,11,62,1
0.056818181818186986,3287,12,62,1
0.09999999999999432,3287,13,62,1
0.056818181818158564,3287,14,62,1
0.024999999999977263,3287,15,62,1
0.01590909090910486,3288,0,62,1
0.004545454545450411,3288,1,62,1
0.013636363636379656,3288,2,62,1
0.04772727272728616,3288,3,62,1
0.013636363636351234,3288,4,62,1
0.025000000000005684,3288,5,62,1
0.036363636363660135,3288,6,62,1
0.04772727272728616,3288,7,62,1
0.004545454545478833,3288,8,62,1
0.09999999999999432,3288,9,62,1
0.09999999999999432,3288,10,62,1
0.03636363636363171,3288,11,62,1
0.0022727272727252057,3288,12,62,1
0.06818181818181301,3288,13,62,1
0.02727272727273089,3288,14,62,1
0.09999999999999432,3288,15,62,1
0.09999999999999432,3289,0,62,1
0.0022727272727252057,3289,1,62,1
0.04772727272728616,3289,2,62,1
0.01590909090910486,3289,3,62,1
0.03636363636363171,3289,4,62,1
0.013636363636351234,3289,5,62,1
0.013636363636351234,3289,6,62,1
0.004545454545450411,3289,7,62,1
0.03636363636363171,3289,8,62,1
0.056818181818186986,3289,9,62,1
0.03636363636363171,3289,10,62,1
0.013636363636379656,3289,11,62,1
0.03636363636363171,3289,12,62,1
0.004545454545450411,3289,13,62,1
0.06818181818181301,3289,14,62,1
0.01590909090907644,3289,15,62,1
0.03409090909090651,3290,0,62,1
0.02727272727273089,3290,1,62,1
0.06590909090908781,3290,2,62,1
0.09999999999999432,3290,3,62,1
0.045454545454532536,3290,4,62,1
0.0022727272727252057,3290,5,62,1
0.025000000000005684,3290,6,62,1
0.09999999999999432,3290,7,62,1
0.03636363636363171,3290,8,62,1
0.045454545454532536,3290,9,62,1
0.01590909090910486,3290,10,62,1
0.03409090909090651,3290,11,62,1
0.0022727272727252057,3290,12,62,1
0.01590909090910486,3290,13,62,1
0.01590909090910486,3290,14,62,1
0.013636363636351234,3290,15,62,1
0.013636363636351234,3291,0,62,1
0.02727272727273089,3291,1,62,1
0.09999999999999432,3291,2,62,1
0.06590909090908781,3291,3,62,1
0.025000000000005684,3291,4,62,1
0.02727272727273089,3291,5,62,1
0.024999999999977263,3291,6,62,1
0.09999999999999432,3291,7,62,1
0.056818181818186986,3291,8,62,1
0.004545454545450411,3291,9,62,1
0.09999999999999432,3291,10,62,1
0.04772727272725774,3291,11,62,1
0.045454545454532536,3291,12,62,1
0.03636363636363171,3291,13,62,1
0.03636363636363171,3291,14,62,1
0.056818181818186986,3291,15,62,1
0.004545454545450411,3292,0,62,1
0.04545454545456096,3292,1,62,1
0.036363636363660135,3292,2,62,1
0.025000000000005684,3292,3,62,1
0.04772727272725774,3292,4,62,1
0.013636363636379656,3292,5,62,1
0.06818181818184144,3292,6,62,1
0.01590909090910486,3292,7,62,1
0.004545454545478833,3292,8,62,1
0.004545454545450411,3292,9,62,1
0.03409090909090651,3292,10,62,1
0.05909090909091219,3292,11,62,1
0.013636363636379656,3292,12,62,1
0.04772727272725774,3292,13,62,1
0.0022727272727252057,3292,14,62,1
0.04772727272725774,3292,15,62,1
0.004545454545450411,3293,0,62,1
0.056818181818186986,3293,1,62,1
0.0022727272727252057,3293,2,62,1
0.01590909090907644,3293,3,62,1
0.04545454545456096,3293,4,62,1
0.036363636363660135,3293,5,62,1
0.004545454545478833,3293,6,62,1
0.025000000000005684,3293,7,62,1
0.01590909090910486,3293,8,62,1
0.025000000000005684,3293,9,62,1
0.06818181818184144,3293,10,62,1
0.025000000000005684,3293,11,62,1
0.06818181818181301,3293,12,62,1
0.013636363636351234,3293,13,62,1
0.025000000000005684,3293,14,62,1
0.05909090909091219,3293,15,62,1
0.02727272727273089,3294,0,62,1
0.025000000000005684,3294,1,62,1
0.09999999999999432,3294,2,62,1
0.06818181818181301,3294,3,62,1
0.004545454545450411,3294,4,62,1
0.056818181818158564,3294,5,62,1
0.025000000000005684,3294,6,62,1
0.03636363636363171,3294,7,62,1
0.045454545454532536,3294,8,62,1
0.03636363636363171,3294,9,62,1
0.025000000000005684,3294,10,62,1
0.05909090909088377,3294,11,62,1
0.01590909090907644,3294,12,62,1
0.025000000000005684,3294,13,62,1
0.004545454545478833,3294,14,62,1
0.06818181818184144,3294,15,62,1
0.09999999999999432,3295,0,62,1
0.004545454545450411,3295,1,62,1
0.06818181818181301,3295,2,62,1
0.004545454545450411,3295,3,62,1
0.004545454545450411,3295,4,62,1
0.024999999999977263,3295,5,62,1
0.09999999999999432,3295,6,62,1
0.06818181818181301,3295,7,62,1
0.013636363636351234,3295,8,62,1
0.04772727272725774,3295,9,62,1
0.04545454545456096,3295,10,62,1
0.04772727272725774,3295,11,62,1
0.09999999999999432,3295,12,62,1
0.06818181818181301,3295,13,62,1
0.10000000000002274,3295,14,62,1
0.06590909090908781,3295,15,62,1
0.0022727272727252057,3296,0,62,1
0.01590909090910486,3296,1,62,1
0.056818181818158564,3296,2,62,1
0.024999999999977263,3296,3,62,1
0.004545454545450411,3296,4,62,1
0.06818181818181301,3296,5,62,1
0.025000000000005684,3296,6,62,1
0.06818181818181301,3296,7,62,1
0.024999999999977263,3296,8,62,1
0.03636363636363171,3296,9,62,1
0.04545454545456096,3296,10,62,1
0.036363636363660135,3296,11,62,1
0.036363636363660135,3296,12,62,1
0.004545454545478833,3296,13,62,1
0.03636363636363171,3296,14,62,1
0.056818181818186986,3296,15,62,1
0.03636363636363171,3297,0,62,1
0.056818181818186986,3297,1,62,1
0.0022727272727252057,3297,2,62,1
0.004545454545478833,3297,3,62,1
0.025000000000005684,3297,4,62,1
0.004545454545450411,3297,5,62,1
0.04772727272728616,3297,6,62,1
0.03636363636363171,3297,7,62,1
0.10000000000002274,3297,8,62,1
0.09999999999999432,3297,9,62,1
0.03636363636363171,3297,10,62,1
0.045454545454532536,3297,11,62,1
0.03636363636363171,3297,12,62,1
0.025000000000005684,3297,13,62,1
0.013636363636351234,3297,14,62,1
0.06818181818181301,3297,15,62,1
0.02727272727273089,3298,0,62,1
0.04545454545456096,3298,1,62,1
0.04772727272725774,3298,2,62,1
0.03409090909090651,3298,3,62,1
0.09999999999999432,3298,4,62,1
0.06818181818181301,3298,5,62,1
0.025000000000005684,3298,6,62,1
0.004545454545478833,3298,7,62,1
0.013636363636379656,3298,8,62,1
0.004545454545450411,3298,9,62,1
0.06818181818181301,3298,10,62,1
0.024999999999977263,3298,11,62,1
0.06818181818181301,3298,12,62,1
0.025000000000005684,3298,13,62,1
0.01590909090910486,3298,14,62,1
0.02727272727273089,3298,15,62,1
0.09999999999999432,3299,0,62,1
0.004545454545450411,3299,1,62,1
0.056818181818158564,3299,2,62,1
0.013636363636351234,3299,3,62,1
0.03636363636363171,3299,4,62,1
0.004545454545450411,3299,5,62,1
0.03636363636363171,3299,6,62,1
0.004545454545450411,3299,7,62,1
0.024999999999977263,3299,8,62,1
0.024999999999977263,3299,9,62,1
0.013636363636379656,3299,10,62,1
0.04772727272725774,3299,11,62,1
0.10000000000002274,3299,12,62,1
0.036363636363660135,3299,13,62,1
0.04545454545456096,3299,14,62,1
0.04772727272725774,3299,15,62,1
0.004545454545450411,3300,0,62,1
0.025000000000005684,3300,1,62,1
0.013636363636351234,3300,2,62,1
0.004545454545450411,3300,3,62,1
0.03636363636363171,3300,4,62,1
0.056818181818186986,3300,5,62,1
0.09999999999999432,3300,6,62,1
0.09999999999999432,3300,7,62,1
0.03636363636363171,3300,8,62,1
0.03636363636363171,3300,9,62,1
0.025000000000005684,3300,10,62,1
0.04545454545456096,3300,11,62,1
0.03636363636363171,3300,12,62,1
0.04772727272725774,3300,13,62,1
0.09999999999999432,3300,14,62,1
0.01590909090907644,3300,15,62,1
0.025000000000005684,3301,0,62,1
0.056818181818158564,3301,1,62,1
0.01590909090910486,3301,2,62,1
0.0022727272727252057,3301,3,62,1
0.05909090909091219,3301,4,62,1
0.013636363636379656,3301,5,62,1
0.056818181818186986,3301,6,62,1
0.025000000000005684,3301,7,62,1
0.02727272727273089,3301,8,62,1
0.025000000000005684,3301,9,62,1
0.024999999999977263,3301,10,62,1
0.025000000000005684,3301,11,62,1
0.06818181818181301,3301,12,62,1
0.03636363636363171,3301,13,62,1
0.0022727272727252057,3301,14,62,1
0.04772727272725774,3301,15,62,1
0.01590909090907644,3302,0,62,1
0.013636363636379656,3302,1,62,1
0.004545454545450411,3302,2,62,1
0.01590909090910486,3302,3,62,1
0.013636363636351234,3302,4,62,1
0.024999999999977263,3302,5,62,1
0.004545454545450411,3302,6,62,1
0.013636363636379656,3302,7,62,1
0.01590909090910486,3302,8,62,1
0.06818181818181301,3302,9,62,1
0.03636363636363171,3302,10,62,1
0.025000000000005684,3302,11,62,1
0.025000000000005684,3302,12,62,1
0.004545454545450411,3302,13,62,1
0.09999999999999432,3302,14,62,1
0.03409090909090651,3302,15,62,1
0.05909090909091219,3303,0,62,1
0.01590909090907644,3303,1,62,1
0.013636363636379656,3303,2,62,1
0.004545454545450411,3303,3,62,1
0.013636363636351234,3303,4,62,1
0.056818181818186986,3303,5,62,1
0.01590909090907644,3303,6,62,1
0.09999999999999432,3303,7,62,1
0.025000000000005684,3303,8,62,1
0.06818181818181301,3303,9,62,1
0.013636363636379656,3303,10,62,1
0.06818181818181301,3303,11,62,1
0.024999999999977263,3303,12,62,1
0.01590909090907644,3303,13,62,1
0.004545454545450411,3303,14,62,1
0.04772727272728616,3303,15,62,1
0.036363636363660135,3304,0,62,1
0.056818181818186986,3304,1,62,1
0.025000000000005684,3304,2,62,1
0.04772727272725774,3304,3,62,1
0.013636363636351234,3304,4,62,1
0.025000000000005684,3304,5,62,1
0.01590909090907644,3304,6,62,1
0.10000000000002274,3304,7,62,1
0.06818181818184144,3304,8,62,1
0.01590909090910486,3304,9,62,1
0.09999999999999432,3304,10,62,1
0.06818181818181301,3304,11,62,1
0.025000000000005684,3304,12,62,1
0.025000000000005684,3304,13,62,1
0.025000000000005684,3304,14,62,1
0.0022727272727252057,3304,15,62,1
0.03636363636363171,3305,0,62,1
0.05909090909091219,3305,1,62,1
0.01590909090907644,3305,2,62,1
0.025000000000005684,3305,3,62,1
0.06818181818181301,3305,4,62,1
0.024999999999977263,3305,5,62,1
0.06818181818181301,3305,6,62,1
0.10000000000002274,3305,7,62,1
0.056818181818186986,3305,8,62,1
0.09999999999999432,3305,9,62,1
0.056818181818186986,3305,10,62,1
0.013636363636379656,3305,11,62,1
0.036363636363660135,3305,12,62,1
0.004545454545478833,3305,13,62,1
0.025000000000005684,3305,14,62,1
0.025000000000005684,3305,15,62,1
0.025000000000005684,3306,0,62,1
0.09999999999999432,3306,1,62,1
0.06818181818181301,3306,2,62,1
0.03636363636363171,3306,3,62,1
0.10000000000002274,3306,4,62,1
0.02727272727273089,3306,5,62,1
0.0022727272727252057,3306,6,62,1
0.09999999999999432,3306,7,62,1
0.025000000000005684,3306,8,62,1
0.056818181818186986,3306,9,62,1
0.036363636363660135,3306,10,62,1
0.04545454545456096,3306,11,62,1
0.04772727272725774,3306,12,62,1
0.045454545454532536,3306,13,62,1
0.004545454545450411,3306,14,62,1
0.03636363636363171,3306,15,62,1
0.056818181818186986,3307,0,62,1
0.01590909090910486,3307,1,62,1
0.01590909090907644,3307,2,62,1
0.013636363636379656,3307,3,62,1
0.025000000000005684,3307,4,62,1
0.013636363636351234,3307,5,62,1
0.03636363636363171,3307,6,62,1
0.04772727272725774,3307,7,62,1
0.03636363636363171,3307,8,62,1
0.025000000000005684,3307,9,62,1
0.09999999999999432,3307,10,62,1
0.06818181818181301,3307,11,62,1
0.03636363636363171,3307,12,62,1
0.013636363636379656,3307,13,62,1
0.013636363636379656,3307,14,62,1
0.004545454545450411,3307,15,62,1
0.025000000000005684,3308,0,62,1
0.06818181818181301,3308,1,62,1
0.03636363636363171,3308,2,62,1
0.004545454545450411,3308,3,62,1
0.013636363636351234,3308,4,62,1
0.04772727272728616,3308,5,62,1
0.03636363636363171,3308,6,62,1
0.045454545454532536,3308,7,62,1
0.013636363636351234,3308,8,62,1
0.025000000000005684,3308,9,62,1
0.01590909090907644,3308,10,62,1
0.01590909090910486,3308,11,62,1
0.025000000000005684,3308,12,62,1
0.025000000000005684,3308,13,62,1
0.013636363636351234,3308,14,62,1
0.025000000000005684,3308,15,62,1
0.025000000000005684,3309,0,62,1
0.01590909090907644,3309,1,62,1
0.01590909090907644,3309,2,62,1
0.025000000000005684,3309,3,62,1
0.025000000000005684,3309,4,62,1
0.013636363636351234,3309,5,62,1
0.01590909090910486,3309,6,62,1
0.01590909090910486,3309,7,62,1
0.025000000000005684,3309,8,62,1
0.025000000000005684,3309,9,62,1
0.013636363636379656,3309,10,62,1
0.03636363636363171,3309,11,62,1
0.004545454545450411,3309,12,62,1
0.06818181818184144,3309,13,62,1
0.036363636363660135,3309,14,62,1
0.0022727272727536274,3309,15,62,1
0.06818181818184144,3310,0,62,1
0.025000000000005684,3310,1,62,1
0.01590909090910486,3310,2,62,1
0.01590909090907644,3310,3,62,1
0.025000000000005684,3310,4,62,1
0.056818181818186986,3310,5,62,1
0.01590909090907644,3310,6,62,1
0.025000000000005684,3310,7,62,1
0.025000000000005684,3310,8,62,1
0.01590909090910486,3310,9,62,1
0.013636363636351234,3310,10,62,1
0.09999999999999432,3310,11,62,1
0.056818181818158564,3310,12,62,1
0.024999999999977263,3310,13,62,1
0.03636363636363171,3310,14,62,1
0.09999999999999432,3310,15,62,1
0.06818181818181301,3311,0,62,1
0.004545454545450411,3311,1,62,1
0.06818181818181301,3311,2,62,1
0.013636363636351234,3311,3,62,1
0.0022727272727252057,3311,4,62,1
0.01590909090910486,3311,5,62,1
0.01590909090907644,3311,6,62,1
0.024999999999977263,3311,7,62,1
0.025000000000005684,3311,8,62,1
0.013636363636379656,3311,9,62,1
0.013636363636351234,3311,10,62,1
0.025000000000005684,3311,11,62,1
0.025000000000005684,3311,12,62,1
0.01590909090907644,3311,13,62,1
0.025000000000005684,3311,14,62,1
0.056818181818186986,3311,15,62,1
0.013636363636351234,3312,0,62,1
0.01590909090907644,3312,1,62,1
0.025000000000005684,3312,2,62,1
0.025000000000005684,3312,3,62,1
0.01590909090907644,3312,4,62,1
0.013636363636379656,3312,5,62,1
0.024999999999977263,3312,6,62,1
0.05909090909091219,3312,7,62,1
0.01590909090910486,3312,8,62,1
0.025000000000005684,3312,9,62,1
0.024999999999977263,3312,10,62,1
0.013636363636351234,3312,11,62,1
0.013636363636379656,3312,12,62,1
0.025000000000005684,3312,13,62,1
0.025000000000005684,3312,14,62,1
0.01590909090910486,3312,15,62,1
0.02727272727273089,3313,0,62,1
0.024999999999977263,3313,1,62,1
0.013636363636351234,3313,2,62,1
0.01590909090907644,3313,3,62,1
0.06590909090908781,3313,4,62,1
0.025000000000005684,3313,5,62,1
0.01590909090910486,3313,6,62,1
0.013636363636351234,3313,7,62,1
0.025000000000005684,3313,8,62,1
0.025000000000005684,3313,9,62,1
0.01590909090910486,3313,10,62,1
0.01590909090907644,3313,11,62,1
0.025000000000005684,3313,12,62,1
0.025000000000005684,3313,13,62,1
0.013636363636351234,3313,14,62,1
0.013636363636351234,3313,15,62,1
0.025000000000005684,3314,0,62,1
0.025000000000005684,3314,1,62,1
0.01590909090907644,3314,2,62,1
0.01590909090910486,3314,3,62,1
0.025000000000005684,3314,4,62,1
0.025000000000005684,3314,5,62,1
0.013636363636351234,3314,6,62,1
0.025000000000005684,3314,7,62,1
0.025000000000005684,3314,8,62,1
0.01590909090907644,3314,9,62,1
0.01590909090907644,3314,10,62,1
0.013636363636379656,3314,11,62,1
0.025000000000005684,3314,12,62,1
0.025000000000005684,3314,13,62,1
0.01590909090910486,3314,14,62,1
0.025000000000005684,3314,15,62,1
0.025000000000005684,3315,0,62,1
0.01590909090907644,3315,1,62,1
0.013636363636379656,3315,2,62,1
0.013636363636351234,3315,3,62,1
0.024999999999977263,3315,4,62,1
0.025000000000005684,3315,5,62,1
0.01590909090910486,3315,6,62,1
0.01590909090907644,3315,7,62,1
0.025000000000005684,3315,8,62,1
0.025000000000005684,3315,9,62,1
0.013636363636379656,3315,10,62,1
0.025000000000005684,3315,11,62,1
0.025000000000005684,3315,12,62,1
0.01590909090910486,3315,13,62,1
0.01590909090907644,3315,14,62,1
0.013636363636351234,3315,15,62,1
0.025000000000005684,3316,0,62,1
0.025000000000005684,3316,1,62,1
0.025000000000005684,3316,2,62,1
0.05909090909091219,3316,3,62,1
0.01590909090910486,3316,4,62,1
0.025000000000005684,3316,5,62,1
0.013636363636379656,3316,6,62,1
0.013636363636379656,3316,7,62,1
0.03636363636363171,3316,8,62,1
0.024999999999977263,3316,9,62,1
0.024999999999977263,3316,10,62,1
0.02727272727273089,3316,11,62,1
0.025000000000005684,3316,12,62,1
0.10000000000002274,3316,13,62,1
0.02727272727273089,3316,14,62,1
0.06818181818181301,3316,15,62,1
0.03409090909090651,3317,0,62,1
0.0022727272727252057,3317,1,62,1
0.0022727272727252057,3317,2,62,1
0.02727272727273089,3317,3,62,1
0.025000000000005684,3317,4,62,1
0.024999999999977263,3317,5,62,1
0.01590909090910486,3317,6,62,1
0.013636363636379656,3317,7,62,1
0.025000000000005684,3317,8,62,1
0.056818181818186986,3317,9,62,1
0.01590909090910486,3317,10,62,1
0.01590909090907644,3317,11,62,1
0.025000000000005684,3317,12,62,1
0.025000000000005684,3317,13,62,1
0.013636363636351234,3317,14,62,1
0.01590909090907644,3317,15,62,1
0.025000000000005684,3318,0,62,1
0.025000000000005684,3318,1,62,1
0.01590909090907644,3318,2,62,1
0.013636363636379656,3318,3,62,1
0.025000000000005684,3318,4,62,1
0.024999999999977263,3318,5,62,1
0.01590909090907644,3318,6,62,1
0.025000000000005684,3318,7,62,1
0.01590909090907644,3318,8,62,1
0.056818181818186986,3318,9,62,1
0.013636363636379656,3318,10,62,1
0.025000000000005684,3318,11,62,1
0.025000000000005684,3318,12,62,1
0.02727272727273089,3318,13,62,1
0.056818181818186986,3318,14,62,1
0.013636363636351234,3318,15,62,1
0.013636363636379656,3319,0,62,1
0.01590909090907644,3319,1,62,1
0.024999999999977263,3319,2,62,1
0.025000000000005684,3319,3,62,1
0.01590909090910486,3319,4,62,1
0.025000000000005684,3319,5,62,1
0.025000000000005684,3319,6,62,1
0.013636363636379656,3319,7,62,1
0.01590909090910486,3319,8,62,1
0.024999999999977263,3319,9,62,1
0.01590909090910486,3319,10,62,1
0.056818181818158564,3319,11,62,1
0.013636363636351234,3319,12,62,1
0.025000000000005684,3319,13,62,1
0.05909090909091219,3319,14,62,1
0.025000000000005684,3319,15,62,1
0.056818181818186986,3320,0,62,1
0.013636363636351234,3320,1,62,1
0.01590909090910486,3320,2,62,1
0.025000000000005684,3320,3,62,1
0.024999999999977263,3320,4,62,1
0.01590909090907644,3320,5,62,1
0.013636363636379656,3320,6,62,1
0.025000000000005684,3320,7,62,1
0.025000000000005684,3320,8,62,1
0.01590909090910486,3320,9,62,1
0.025000000000005684,3320,10,62,1
0.025000000000005684,3320,11,62,1
0.025000000000005684,3320,12,62,1
0.045454545454532536,3320,13,62,1
0.013636363636351234,3320,14,62,1
0.025000000000005684,3320,15,62,1
0.01590909090910486,3321,0,62,1
0.02727272727273089,3321,1,62,1
0.013636363636351234,3321,2,62,1
0.013636363636379656,3321,3,62,1
0.025000000000005684,3321,4,62,1
0.01590909090907644,3321,5,62,1
0.025000000000005684,3321,6,62,1
0.02727272727273089,3321,7,62,1
0.045454545454532536,3321,8,62,1
0.013636363636351234,3321,9,62,1
0.025000000000005684,3321,10,62,1
0.01590909090907644,3321,11,62,1
0.01590909090910486,3321,12,62,1
0.025000000000005684,3321,13,62,1
0.025000000000005684,3321,14,62,1
0.013636363636351234,3321,15,62,1
0.09999999999999432,3322,0,62,1
0.06818181818181301,3322,1,62,1
0.024999999999977263,3322,2,62,1
0.024999999999977263,3322,3,62,1
0.09999999999999432,3322,4,62,1
0.056818181818186986,3322,5,62,1
0.03636363636363171,3322,6,62,1
0.04772727272725774,3322,7,62,1
0.03409090909090651,3322,8,62,1
0.0022727272727252057,3322,9,62,1
0.02727272727273089,3322,10,62,1
0.01590909090907644,3322,11,62,1
0.024999999999977263,3322,12,62,1
0.025000000000005684,3322,13,62,1
0.013636363636379656,3322,14,62,1
0.013636363636351234,3322,15,62,1
0.025000000000005684,3323,0,62,1
0.025000000000005684,3323,1,62,1
0.01590909090910486,3323,2,62,1
0.01590909090907644,3323,3,62,1
0.025000000000005684,3323,4,62,1
0.025000000000005684,3323,5,62,1
0.09999999999999432,3323,6,62,1
0.05909090909091219,3323,7,62,1
0.09999999999999432,3323,8,62,1
0.06818181818181301,3323,9,62,1
0.013636363636351234,3323,10,62,1
0.01590909090907644,3323,11,62,1
0.056818181818186986,3323,12,62,1
0.013636363636379656,3323,13,62,1
0.013636363636351234,3323,14,62,1
0.01590909090910486,3323,15,62,1
0.09999999999999432,3324,0,62,1
0.05909090909088377,3324,1,62,1
0.024999999999977263,3324,2,62,1
0.025000000000005684,3324,3,62,1
0.01590909090910486,3324,4,62,1
0.025000000000005684,3324,5,62,1
0.013636363636379656,3324,6,62,1
0.013636363636379656,3324,7,62,1
0.024999999999977263,3324,8,62,1
0.05909090909091219,3324,9,62,1
0.013636363636351234,3324,10,62,1
0.056818181818186986,3324,11,62,1
0.025000000000005684,3324,12,62,1
0.025000000000005684,3324,13,62,1
0.01590909090907644,3324,14,62,1
0.02727272727273089,3324,15,62,1
0.025000000000005684,3325,0,62,1
0.013636363636379656,3325,1,62,1
0.013636363636351234,3325,2,62,1
0.01590909090910486,3325,3,62,1
0.025000000000005684,3325,4,62,1
0.024999999999977263,3325,5,62,1
0.01590909090907644,3325,6,62,1
0.013636363636379656,3325,7,62,1
0.025000000000005684,3325,8,62,1
0.025000000000005684,3325,9,62,1
0.01590909090910486,3325,10,62,1
0.01590909090910486,3325,11,62,1
0.025000000000005684,3325,12,62,1
0.09999999999999432,3325,13,62,1
0.04772727272725774,3325,14,62,1
0.013636363636351234,3325,15,62,1
0.025000000000005684,3326,0,62,1
0.02727272727273089,3326,1,62,1
0.024999999999977263,3326,2,62,1
0.013636363636379656,3326,3,62,1
0.025000000000005684,3326,4,62,1
0.056818181818186986,3326,5,62,1
0.01590909090910486,3326,6,62,1
0.01590909090907644,3326,7,62,1
0.013636363636351234,3326,8,62,1
0.025000000000005684,3326,9,62,1
0.025000000000005684,3326,10,62,1
0.025000000000005684,3326,11,62,1
0.01590909090910486,3326,12,62,1
0.01590909090910486,3326,13,62,1
0.025000000000005684,3326,14,62,1
0.013636363636379656,3326,15,62,1
0.05909090909091219,3327,0,62,1
0.013636363636379656,3327,1,62,1
0.056818181818158564,3327,2,62,1
0.004545454545450411,3327,3,62,1
0.056818181818186986,3327,4,62,1
0.025000000000005684,3327,5,62,1
0.004545454545450411,3327,6,62,1
0.04772727272725774,3327,7,62,1
0.03409090909090651,3327,8,62,1
0.0022727272727252057,3327,9,62,1
0.02727272727273089,3327,10,62,1
0.025000000000005684,3327,11,62,1
0.024999999999977263,3327,12,62,1
0.01590909090910486,3327,13,62,1
0.013636363636379656,3327,14,62,1
0.013636363636351234,3327,15,62,1
0.025000000000005684,3328,0,62,1
0.025000000000005684,3328,1,62,1
0.01590909090910486,3328,2,62,1
0.01590909090907644,3328,3,62,1
0.025000000000005684,3328,4,62,1
0.025000000000005684,3328,5,62,1
0.025000000000005684,3328,6,62,1
0.024999999999977263,3328,7,62,1
0.013636363636351234,3328,8,62,1
0.01590909090910486,3328,9,62,1
0.01590909090907644,3328,10,62,1
0.013636363636379656,3328,11,62,1
0.025000000000005684,3328,12,62,1
0.024999999999977263,3328,13,62,1
0.01590909090907644,3328,14,62,1
0.025000000000005684,3328,15,62,1
0.013636363636351234,3329,0,62,1
0.025000000000005684,3329,1,62,1
0.025000000000005684,3329,2,62,1
0.056818181818186986,3329,3,62,1
0.01590909090910486,3329,4,62,1
0.02727272727273089,3329,5,62,1
0.025000000000005684,3329,6,62,1
0.013636363636351234,3329,7,62,1
0.013636363636379656,3329,8,62,1
0.025000000000005684,3329,9,62,1
0.024999999999977263,3329,10,62,1
0.01590909090907644,3329,11,62,1
0.025000000000005684,3329,12,62,1
0.04545454545456096,3329,13,62,1
0.013636363636379656,3329,14,62,1
0.02727272727273089,3329,15,62,1
0.01590909090907644,3330,0,62,1
0.025000000000005684,3330,1,62,1
0.025000000000005684,3330,2,62,1
0.013636363636351234,3330,3,62,1
0.01590909090910486,3330,4,62,1
0.06590909090908781,3330,5,62,1
0.024999999999977263,3330,6,62,1
0.02727272727273089,3330,7,62,1
0.025000000000005684,3330,8,62,1
0.013636363636379656,3330,9,62,1
0.013636363636351234,3330,10,62,1
0.025000000000005684,3330,11,62,1
0.05909090909088377,3330,12,62,1
0.025000000000005684,3330,13,62,1
0.056818181818186986,3330,14,62,1
0.013636363636351234,3330,15,62,1
0.01590909090910486,3331,0,62,1
0.01590909090910486,3331,1,62,1
0.025000000000005684,3331,2,62,1
0.025000000000005684,3331,3,62,1
0.013636363636379656,3331,4,62,1
0.013636363636351234,3331,5,62,1
0.024999999999977263,3331,6,62,1
0.025000000000005684,3331,7,62,1
0.025000000000005684,3331,8,62,1
0.02727272727273089,3331,9,62,1
0.01590909090907644,3331,10,62,1
0.013636363636351234,3331,11,62,1
0.025000000000005684,3331,12,62,1
0.056818181818186986,3331,13,62,1
0.01590909090910486,3331,14,62,1
0.01590909090907644,3331,15,62,1
0.024999999999977263,3332,0,62,1
0.025000000000005684,3332,1,62,1
0.013636363636379656,3332,2,62,1
0.01590909090907644,3332,3,62,1
0.025000000000005684,3332,4,62,1
0.025000000000005684,3332,5,62,1
0.013636363636351234,3332,6,62,1
0.056818181818186986,3332,7,62,1
0.03636363636363171,3332,8,62,1
0.024999999999977263,3332,9,62,1
0.05909090909091219,3332,10,62,1
0.025000000000005684,3332,11,62,1
0.025000000000005684,3332,12,62,1
0.025000000000005684,3332,13,62,1
0.024999999999977263,3332,14,62,1
0.06818181818181301,3332,15,62,1
0.025000000000005684,3333,0,62,1
0.01590909090910486,3333,1,62,1
0.01590909090907644,3333,2,62,1
0.024999999999977263,3333,3,62,1
0.013636363636379656,3333,4,62,1
0.056818181818186986,3333,5,62,1
0.01590909090910486,3333,6,62,1
0.01590909090910486,3333,7,62,1
0.025000000000005684,3333,8,62,1
0.025000000000005684,3333,9,62,1
0.025000000000005684,3333,10,62,1
0.025000000000005684,3333,11,62,1
0.013636363636351234,3333,12,62,1
0.024999999999977263,3333,13,62,1
0.025000000000005684,3333,14,62,1
0.01590909090910486,3333,15,62,1
0.01590909090907644,3334,0,62,1
0.013636363636379656,3334,1,62,1
0.025000000000005684,3334,2,62,1
0.024999999999977263,3334,3,62,1
0.01590909090907644,3334,4,62,1
0.025000000000005684,3334,5,62,1
0.025000000000005684,3334,6,62,1
0.01590909090907644,3334,7,62,1
0.013636363636351234,3334,8,62,1
0.013636363636379656,3334,9,62,1
0.025000000000005684,3334,10,62,1
0.025000000000005684,3334,11,62,1
0.01590909090910486,3334,12,62,1
0.02727272727273089,3334,13,62,1
0.025000000000005684,3334,14,62,1
0.013636363636351234,3334,15,62,1
0.013636363636379656,3335,0,62,1
0.025000000000005684,3335,1,62,1
0.024999999999977263,3335,2,62,1
0.01590909090907644,3335,3,62,1
0.01590909090910486,3335,4,62,1
0.013636363636351234,3335,5,62,1
0.025000000000005684,3335,6,62,1
0.025000000000005684,3335,7,62,1
0.01590909090910486,3335,8,62,1
0.024999999999977263,3335,9,62,1
0.025000000000005684,3335,10,62,1
0.01590909090910486,3335,11,62,1
0.013636363636351234,3335,12,62,1
0.024999999999977263,3335,13,62,1
0.025000000000005684,3335,14,62,1
0.013636363636379656,3335,15,62,1
0.02727272727273089,3336,0,62,1
0.056818181818186986,3336,1,62,1
0.013636363636379656,3336,2,62,1
0.013636363636351234,3336,3,62,1
0.01590909090910486,3336,4,62,1
0.025000000000005684,3336,5,62,1
0.024999999999977263,3336,6,62,1
0.01590909090907644,3336,7,62,1
0.013636363636379656,3336,8,62,1
0.025000000000005684,3336,9,62,1
0.025000000000005684,3336,10,62,1
0.01590909090910486,3336,11,62,1
0.025000000000005684,3336,12,62,1
0.025000000000005684,3336,13,62,1
0.01590909090907644,3336,14,62,1
0.013636363636379656,3336,15,62,1
0.004545454545450411,3337,0,62,1
0.013636363636351234,3337,1,62,1
0.09999999999999432,3337,2,62,1
0.056818181818186986,3337,3,62,1
0.036363636363660135,3337,4,62,1
0.04772727272728616,3337,5,62,1
0.01590909090910486,3337,6,62,1
0.024999999999977263,3337,7,62,1
0.013636363636351234,3337,8,62,1
0.025000000000005684,3337,9,62,1
0.025000000000005684,3337,10,62,1
0.01590909090907644,3337,11,62,1
0.025000000000005684,3337,12,62,1
0.056818181818186986,3337,13,62,1
0.013636363636351234,3337,14,62,1
0.013636363636379656,3337,15,62,1
0.09999999999999432,3338,0,62,1
0.06818181818181301,3338,1,62,1
0.03636363636363171,3338,2,62,1
0.025000000000005684,3338,3,62,1
0.01590909090907644,3338,4,62,1
0.06818181818181301,3338,5,62,1
0.025000000000005684,3338,6,62,1
0.04772727272725774,3338,7,62,1
0.045454545454532536,3338,8,62,1
0.0022727272727252057,3338,9,62,1
0.01590909090910486,3338,10,62,1
0.024999999999977263,3338,11,62,1
0.056818181818186986,3338,12,62,1
0.013636363636379656,3338,13,62,1
0.013636363636351234,3338,14,62,1
0.025000000000005684,3338,15,62,1
0.025000000000005684,3339,0,62,1
0.01590909090910486,3339,1,62,1
0.01590909090907644,3339,2,62,1
0.025000000000005684,3339,3,62,1
0.025000000000005684,3339,4,62,1
0.013636363636351234,3339,5,62,1
0.01590909090907644,3339,6,62,1
0.01590909090910486,3339,7,62,1
0.025000000000005684,3339,8,62,1
0.025000000000005684,3339,9,62,1
0.025000000000005684,3339,10,62,1
0.025000000000005684,3339,11,62,1
0.013636363636351234,3339,12,62,1
0.01590909090907644,3339,13,62,1
0.025000000000005684,3339,14,62,1
0.013636363636351234,3339,15,62,1
0.01590909090907644,3340,0,62,1
0.025000000000005684,3340,1,62,1
0.013636363636379656,3340,2,62,1
0.025000000000005684,3340,3,62,1
0.025000000000005684,3340,4,62,1
0.01590909090910486,3340,5,62,1
0.01590909090910486,3340,6,62,1
0.025000000000005684,3340,7,62,1
0.025000000000005684,3340,8,62,1
0.013636363636379656,3340,9,62,1
0.01590909090907644,3340,10,62,1
0.01590909090907644,3340,11,62,1
0.025000000000005684,3340,12,62,1
0.025000000000005684,3340,13,62,1
0.013636363636351234,3340,14,62,1
0.025000000000005684,3340,15,62,1
0.05909090909091219,3341,0,62,1
0.024999999999977263,3341,1,62,1
0.025000000000005684,3341,2,62,1
0.01590909090910486,3341,3,62,1
0.013636363636351234,3341,4,62,1
0.013636363636351234,3341,5,62,1
0.025000000000005684,3341,6,62,1
0.025000000000005684,3341,7,62,1
0.01590909090907644,3341,8,62,1
0.02727272727273089,3341,9,62,1
0.025000000000005684,3341,10,62,1
0.013636363636379656,3341,11,62,1
0.013636363636351234,3341,12,62,1
0.01590909090910486,3341,13,62,1
0.025000000000005684,3341,14,62,1
0.024999999999977263,3341,15,62,1
0.01590909090907644,3342,0,62,1
0.025000000000005684,3342,1,62,1
0.025000000000005684,3342,2,62,1
0.013636363636351234,3342,3,62,1
0.01590909090910486,3342,4,62,1
0.025000000000005684,3342,5,62,1
0.025000000000005684,3342,6,62,1
0.01590909090907644,3342,7,62,1
0.013636363636379656,3342,8,62,1
0.013636363636351234,3342,9,62,1
0.024999999999977263,3342,10,62,1
0.025000000000005684,3342,11,62,1
0.01590909090910486,3342,12,62,1
0.02727272727273089,3342,13,62,1
0.024999999999977263,3342,14,62,1
0.013636363636351234,3342,15,62,1
0.013636363636379656,3343,0,62,1
0.01590909090907644,3343,1,62,1
0.025000000000005684,3343,2,62,1
0.025000000000005684,3343,3,62,1
0.01590909090907644,3343,4,62,1
0.013636363636351234,3343,5,62,1
0.025000000000005684,3343,6,62,1
0.025000000000005684,3343,7,62,1
0.01590909090907644,3343,8,62,1
0.025000000000005684,3343,9,62,1
0.025000000000005684,3343,10,62,1
0.01590909090910486,3343,11,62,1
0.013636363636351234,3343,12,62,1
0.013636363636379656,3343,13,62,1
0.004545454545450411,3343,14,62,1
0.004545454545450411,3343,15,62,1
0.013636363636351234,3344,0,62,1
0.024999999999977263,3344,1,62,1
0.025000000000005684,3344,2,62,1
0.004545454545450411,3344,3,62,1
0.004545454545450411,3344,4,62,1
0.025000000000005684,3344,5,62,1
0.01590909090907644,3344,6,62,1
0.06818181818181301,3344,7,62,1
0.025000000000005684,3344,8,62,1
0.0022727272727252057,3344,9,62,1
0.004545454545450411,3344,10,62,1
0.025000000000005684,3344,11,62,1
0.024999999999977263,3344,12,62,1
0.01590909090910486,3344,13,62,1
0.013636363636351234,3344,14,62,1
0.06818181818181301,3344,15,62,1
0.025000000000005684,3345,0,62,1
0.01590909090910486,3345,1,62,1
0.02727272727273089,3345,2,62,1
0.025000000000005684,3345,3,62,1
0.013636363636379656,3345,4,62,1
0.013636363636351234,3345,5,62,1
0.01590909090907644,3345,6,62,1
0.025000000000005684,3345,7,62,1
0.025000000000005684,3345,8,62,1
0.01590909090907644,3345,9,62,1
0.013636363636379656,3345,10,62,1
0.025000000000005684,3345,11,62,1
0.025000000000005684,3345,12,62,1
0.01590909090907644,3345,13,62,1
0.01590909090910486,3345,14,62,1
0.025000000000005684,3345,15,62,1
0.024999999999977263,3346,0,62,1
0.013636363636351234,3346,1,62,1
0.013636363636379656,3346,2,62,1
0.025000000000005684,3346,3,62,1
0.025000000000005684,3346,4,62,1
0.01590909090910486,3346,5,62,1
0.025000000000005684,3346,6,62,1
0.056818181818186986,3346,7,62,1
0.013636363636379656,3346,8,62,1
0.01590909090907644,3346,9,62,1
0.024999999999977263,3346,10,62,1
0.025000000000005684,3346,11,62,1
0.01590909090910486,3346,12,62,1
0.025000000000005684,3346,13,62,1
0.025000000000005684,3346,14,62,1
0.013636363636379656,3346,15,62,1
0.01590909090910486,3347,0,62,1
0.025000000000005684,3347,1,62,1
0.025000000000005684,3347,2,62,1
0.01590909090910486,3347,3,62,1
0.013636363636351234,3347,4,62,1
0.024999999999977263,3347,5,62,1
0.025000000000005684,3347,6,62,1
0.013636363636379656,3347,7,62,1
0.01590909090907644,3347,8,62,1
0.01590909090910486,3347,9,62,1
0.025000000000005684,3347,10,62,1
0.025000000000005684,3347,11,62,1
0.025000000000005684,3347,12,62,1
0.025000000000005684,3347,13,62,1
0.013636363636379656,3347,14,62,1
0.01590909090907644,3347,15,62,1
0.01590909090907644,3348,0,62,1
0.013636363636379656,3348,1,62,1
0.025000000000005684,3348,2,62,1
0.024999999999977263,3348,3,62,1
0.01590909090910486,3348,4,62,1
0.01590909090910486,3348,5,62,1
0.025000000000005684,3348,6,62,1
0.025000000000005684,3348,7,62,1
0.013636363636379656,3348,8,62,1
0.025000000000005684,3348,9,62,1
0.024999999999977263,3348,10,62,1
0.013636363636351234,3348,11,62,1
0.01590909090910486,3348,12,62,1
0.01590909090907644,3348,13,62,1
0.024999999999977263,3348,14,62,1
0.025000000000005684,3348,15,62,1
0.025000000000005684,3349,0,62,1
0.025000000000005684,3349,1,62,1
0.013636363636351234,3349,2,62,1
0.01590909090910486,3349,3,62,1
0.01590909090907644,3349,4,62,1
0.013636363636351234,3349,5,62,1
0.025000000000005684,3349,6,62,1
0.025000000000005684,3349,7,62,1
0.01590909090907644,3349,8,62,1
0.01590909090907644,3349,9,62,1
0.025000000000005684,3349,10,62,1
0.025000000000005684,3349,11,62,1
0.013636363636351234,3349,12,62,1
0.013636363636379656,3349,13,62,1
0.025000000000005684,3349,14,62,1
0.024999999999977263,3349,15,62,1
0.01590909090907644,3350,0,62,1
0.02727272727273089,3350,1,62,1
0.025000000000005684,3350,2,62,1
0.013636363636351234,3350,3,62,1
0.10000000000002274,3350,4,62,1
0.05909090909091219,3350,5,62,1
0.09999999999999432,3350,6,62,1
0.056818181818186986,3350,7,62,1
0.01590909090910486,3350,8,62,1
0.01590909090907644,3350,9,62,1
0.024999999999977263,3350,10,62,1
0.025000000000005684,3350,11,62,1
0.013636363636379656,3350,12,62,1
0.01590909090910486,3350,13,62,1
0.06590909090908781,3350,14,62,1
0.03409090909090651,3350,15,62,1
0.02727272727273089,3351,0,62,1
0.01590909090907644,3351,1,62,1
0.013636363636379656,3351,2,62,1
0.024999999999977263,3351,3,62,1
0.09999999999999432,3351,4,62,1
0.01590909090907644,3351,5,62,1
0.04545454545456096,3351,6,62,1
0.004545454545450411,3351,7,62,1
0.004545454545450411,3351,8,62,1
0.03636363636363171,3351,9,62,1
0.056818181818186986,3351,10,62,1
0.025000000000005684,3351,11,62,1
0.025000000000005684,3351,12,62,1
0.013636363636351234,3351,13,62,1
0.01590909090910486,3351,14,62,1
0.01590909090910486,3351,15,62,1
0.025000000000005684,3352,0,62,1
0.004545454545478833,3352,1,62,1
0.025000000000005684,3352,2,62,1
0.056818181818186986,3352,3,62,1
0.025000000000005684,3352,4,62,1
0.09999999999999432,3352,5,62,1
0.06818181818181301,3352,6,62,1
0.025000000000005684,3352,7,62,1
0.056818181818158564,3352,8,62,1
0.024999999999977263,3352,9,62,1
0.004545454545450411,3352,10,62,1
0.056818181818186986,3352,11,62,1
0.025000000000005684,3352,12,62,1
0.025000000000005684,3352,13,62,1
0.01590909090907644,3352,14,62,1
0.01590909090910486,3352,15,62,1
0.025000000000005684,3353,0,62,1
0.025000000000005684,3353,1,62,1
0.013636363636351234,3353,2,62,1
0.01590909090910486,3353,3,62,1
0.025000000000005684,3353,4,62,1
0.024999999999977263,3353,5,62,1
0.02727272727270247,3353,6,62,1
0.013636363636379656,3353,7,62,1
0.013636363636379656,3353,8,62,1
0.024999999999977263,3353,9,62,1
0.01590909090910486,3353,10,62,1
0.01590909090910486,3353,11,62,1
0.025000000000005684,3353,12,62,1
0.025000000000005684,3353,13,62,1
0.013636363636379656,3353,14,62,1
0.025000000000005684,3353,15,62,1
0.024999999999977263,3354,0,62,1
0.013636363636351234,3354,1,62,1
0.09999999999999432,3354,2,62,1
0.056818181818186986,3354,3,62,1
0.013636363636379656,3354,4,62,1
0.025000000000005684,3354,5,62,1
0.025000000000005684,3354,6,62,1
0.01590909090910486,3354,7,62,1
0.01590909090907644,3354,8,62,1
0.024999999999977263,3354,9,62,1
0.013636363636379656,3354,10,62,1
0.05909090909088377,3354,11,62,1
0.024999999999977263,3354,12,62,1
0.025000000000005684,3354,13,62,1
0.01590909090910486,3354,14,62,1
0.013636363636351234,3354,15,62,1
0.025000000000005684,3355,0,62,1
0.025000000000005684,3355,1,62,1
0.013636363636351234,3355,2,62,1
0.01590909090907644,3355,3,62,1
0.02727272727273089,3355,4,62,1
0.025000000000005684,3355,5,62,1
0.013636363636351234,3355,6,62,1
0.013636363636351234,3355,7,62,1
0.025000000000005684,3355,8,62,1
0.025000000000005684,3355,9,62,1
0.01590909090907644,3355,10,62,1
0.02727272727273089,3355,11,62,1
0.013636363636379656,3355,12,62,1
0.013636363636351234,3355,13,62,1
0.025000000000005684,3355,14,62,1
0.025000000000005684,3355,15,62,1
0.05909090909088377,3356,0,62,1
0.01590909090907644,3356,1,62,1
0.013636363636379656,3356,2,62,1
0.025000000000005684,3356,3,62,1
0.025000000000005684,3356,4,62,1
0.013636363636379656,3356,5,62,1
0.01590909090907644,3356,6,62,1
0.06818181818181301,3356,7,62,1
0.025000000000005684,3356,8,62,1
0.013636363636351234,3356,9,62,1
0.024999999999977263,3356,10,62,1
0.025000000000005684,3356,11,62,1
0.01590909090910486,3356,12,62,1
0.01590909090907644,3356,13,62,1
0.025000000000005684,3356,14,62,1
0.025000000000005684,3356,15,62,1
0.013636363636379656,3357,0,62,1
0.025000000000005684,3357,1,62,1
0.05909090909091219,3357,2,62,1
0.01590909090907644,3357,3,62,1
0.025000000000005684,3357,4,62,1
0.056818181818186986,3357,5,62,1
0.013636363636351234,3357,6,62,1
0.02727272727273089,3357,7,62,1
0.056818181818186986,3357,8,62,1
0.036363636363660135,3357,9,62,1
0.056818181818186986,3357,10,62,1
0.025000000000005684,3357,11,62,1
0.025000000000005684,3357,12,62,1
0.013636363636351234,3357,13,62,1
0.01590909090907644,3357,14,62,1
0.01590909090910486,3357,15,62,1
0.025000000000005684,3358,0,62,1
0.004545454545478833,3358,1,62,1
0.03409090909090651,3358,2,62,1
0.04772727272728616,3358,3,62,1
0.004545454545450411,3358,4,62,1
0.024999999999977263,3358,5,62,1
0.025000000000005684,3358,6,62,1
0.013636363636379656,3358,7,62,1
0.01590909090907644,3358,8,62,1
0.025000000000005684,3358,9,62,1
0.056818181818186986,3358,10,62,1
0.013636363636351234,3358,11,62,1
0.025000000000005684,3358,12,62,1
0.025000000000005684,3358,13,62,1
0.01590909090907644,3358,14,62,1
0.01590909090907644,3358,15,62,1
0.025000000000005684,3359,0,62,1
0.025000000000005684,3359,1,62,1
0.013636363636351234,3359,2,62,1
0.01590909090910486,3359,3,62,1
0.025000000000005684,3359,4,62,1
0.025000000000005684,3359,5,62,1
0.01590909090907644,3359,6,62,1
0.013636363636379656,3359,7,62,1
0.025000000000005684,3359,8,62,1
0.024999999999977263,3359,9,62,1
0.013636363636351234,3359,10,62,1
0.01590909090910486,3359,11,62,1
0.01590909090907644,3359,12,62,1
0.024999999999977263,3359,13,62,1
0.013636363636379656,3359,14,62,1
0.06818181818184144,3359,15,62,1
0.025000000000005684,3360,0,62,1
0.01590909090910486,3360,1,62,1
0.01590909090910486,3360,2,62,1
0.024999999999977263,3360,3,62,1
0.025000000000005684,3360,4,62,1
0.013636363636379656,3360,5,62,1
0.01590909090907644,3360,6,62,1
0.024999999999977263,3360,7,62,1
0.025000000000005684,3360,8,62,1
0.01590909090910486,3360,9,62,1
0.013636363636379656,3360,10,62,1
0.06818181818181301,3360,11,62,1
0.024999999999977263,3360,12,62,1
0.01590909090907644,3360,13,62,1
0.02727272727273089,3360,14,62,1
0.013636363636351234,3360,15,62,1
0.013636363636351234,3361,0,62,1
0.025000000000005684,3361,1,62,1
0.025000000000005684,3361,2,62,1
0.025000000000005684,3361,3,62,1
0.01590909090907644,3361,4,62,1
0.01590909090910486,3361,5,62,1
0.013636363636379656,3361,6,62,1
0.025000000000005684,3361,7,62,1
0.01590909090910486,3361,8,62,1
0.06590909090908781,3361,9,62,1
0.024999999999977263,3361,10,62,1
0.01590909090907644,3361,11,62,1
0.013636363636379656,3361,12,62,1
0.013636363636351234,3361,13,62,1
0.025000000000005684,3361,14,62,1
0.025000000000005684,3361,15,62,1
0.025000000000005684,3362,0,62,1
0.02727272727273089,3362,1,62,1
0.01590909090907644,3362,2,62,1
0.013636363636379656,3362,3,62,1
0.013636363636351234,3362,4,62,1
0.01590909090907644,3362,5,62,1
0.025000000000005684,3362,6,62,1
0.025000000000005684,3362,7,62,1
0.025000000000005684,3362,8,62,1
0.04545454545456096,3362,9,62,1
0.013636363636379656,3362,10,62,1
0.02727272727273089,3362,11,62,1
0.025000000000005684,3362,12,62,1
0.013636363636351234,3362,13,62,1
0.01590909090907644,3362,14,62,1
0.03636363636363171,3362,15,62,1
0.013636363636379656,3363,0,62,1
0.013636363636379656,3363,1,62,1
0.025000000000005684,3363,2,62,1
0.01590909090910486,3363,3,62,1
0.01590909090910486,3363,4,62,1
0.013636363636351234,3363,5,62,1
0.004545454545478833,3363,6,62,1
0.004545454545450411,3363,7,62,1
0.025000000000005684,3363,8,62,1
0.025000000000005684,3363,9,62,1
0.013636363636351234,3363,10,62,1
0.01590909090907644,3363,11,62,1
0.025000000000005684,3363,12,62,1
0.10000000000002274,3363,13,62,1
0.03636363636363171,3363,14,62,1
0.004545454545450411,3363,15,62,1
0.025000000000005684,3364,0,62,1
0.025000000000005684,3364,1,62,1
0.025000000000005684,3364,2,62,1
0.025000000000005684,3364,3,62,1
0.02727272727273089,3364,4,62,1
0.01590909090910486,3364,5,62,1
0.013636363636379656,3364,6,62,1
0.013636363636351234,3364,7,62,1
0.01590909090910486,3364,8,62,1
0.025000000000005684,3364,9,62,1
0.02727272727270247,3364,10,62,1
0.056818181818186986,3364,11,62,1
0.013636363636379656,3364,12,62,1
0.013636363636351234,3364,13,62,1
0.024999999999977263,3364,14,62,1
0.025000000000005684,3364,15,62,1
0.01590909090910486,3365,0,62,1
0.01590909090907644,3365,1,62,1
0.03636363636363171,3365,2,62,1
0.056818181818186986,3365,3,62,1
0.024999999999977263,3365,4,62,1
0.04772727272728616,3365,5,62,1
0.045454545454532536,3365,6,62,1
0.10000000000002274,3365,7,62,1
0.056818181818186986,3365,8,62,1
0.01590909090910486,3365,9,62,1
0.09999999999999432,3365,10,62,1
0.056818181818186986,3365,11,62,1
0.025000000000005684,3365,12,62,1
0.024999999999977263,3365,13,62,1
0.004545454545450411,3365,14,62,1
0.01590909090910486,3365,15,62,1
0.025000000000005684,3366,0,62,1
0.025000000000005684,3366,1,62,1
0.025000000000005684,3366,2,62,1
0.013636363636351234,3366,3,62,1
0.024999999999977263,3366,4,62,1
0.01590909090910486,3366,5,62,1
0.06818181818181301,3366,6,62,1
0.013636363636351234,3366,7,62,1
0.013636363636351234,3366,8,62,1
0.025000000000005684,3366,9,62,1
0.01590909090907644,3366,10,62,1
0.02727272727273089,3366,11,62,1
0.013636363636379656,3366,12,62,1
0.013636363636379656,3366,13,62,1
0.025000000000005684,3366,14,62,1
0.01590909090910486,3366,15,62,1
0.01590909090907644,3367,0,62,1
0.024999999999977263,3367,1,62,1
0.025000000000005684,3367,2,62,1
0.013636363636379656,3367,3,62,1
0.025000000000005684,3367,4,62,1
0.025000000000005684,3367,5,62,1
0.013636363636379656,3367,6,62,1
0.01590909090910486,3367,7,62,1
0.02727272727273089,3367,8,62,1
0.025000000000005684,3367,9,62,1
0.013636363636379656,3367,10,62,1
0.013636363636351234,3367,11,62,1
0.01590909090907644,3367,12,62,1
0.025000000000005684,3367,13,62,1
0.025000000000005684,3367,14,62,1
0.01590909090907644,3367,15,62,1
0.025000000000005684,3368,0,62,1
0.025000000000005684,3368,1,62,1
0.013636363636379656,3368,2,62,1
0.01590909090907644,3368,3,62,1
0.025000000000005684,3368,4,62,1
0.025000000000005684,3368,5,62,1
0.01590909090907644,3368,6,62,1
0.013636363636351234,3368,7,62,1
0.025000000000005684,3368,8,62,1
0.013636363636351234,3368,9,62,1
0.05909090909091219,3368,10,62,1
0.01590909090910486,3368,11,62,1
0.013636363636351234,3368,12,62,1
0.004545454545478833,3368,13,62,1
0.025000000000005684,3368,14,62,1
0.056818181818186986,3368,15,62,1
0.025000000000005684,3369,0,62,1
0.01590909090907644,3369,1,62,1
0.025000000000005684,3369,2,62,1
0.025000000000005684,3369,3,62,1
0.013636363636351234,3369,4,62,1
0.04772727272728616,3369,5,62,1
0.004545454545450411,3369,6,62,1
0.013636363636351234,3369,7,62,1
0.013636363636379656,3369,8,62,1
0.01590909090907644,3369,9,62,1
0.02727272727273089,3369,10,62,1
0.025000000000005684,3369,11,62,1
0.025000000000005684,3369,12,62,1
0.056818181818186986,3369,13,62,1
0.013636363636379656,3369,14,62,1
0.01590909090907644,3369,15,62,1
0.02727272727270247,3370,0,62,1
0.013636363636379656,3370,1,62,1
0.013636363636379656,3370,2,62,1
0.024999999999977263,3370,3,62,1
0.025000000000005684,3370,4,62,1
0.05909090909091219,3370,5,62,1
0.01590909090907644,3370,6,62,1
0.013636363636379656,3370,7,62,1
0.024999999999977263,3370,8,62,1
0.056818181818186986,3370,9,62,1
0.02727272727273089,3370,10,62,1
0.056818181818158564,3370,11,62,1
0.013636363636351234,3370,12,62,1
0.013636363636379656,3370,13,62,1
0.025000000000005684,3370,14,62,1
0.025000000000005684,3370,15,62,1
0.01590909090910486,3371,0,62,1
0.01590909090910486,3371,1,62,1
0.013636363636351234,3371,2,62,1
0.025000000000005684,3371,3,62,1
0.025000000000005684,3371,4,62,1
0.01590909090907644,3371,5,62,1
0.01590909090907644,3371,6,62,1
0.013636363636379656,3371,7,62,1
0.025000000000005684,3371,8,62,1
0.025000000000005684,3371,9,62,1
0.025000000000005684,3371,10,62,1
0.025000000000005684,3371,11,62,1
0.004545454545450411,3371,12,62,1
0.01590909090907644,3371,13,62,1
0.025000000000005684,3371,14,62,1
0.025000000000005684,3371,15,62,1
0.024999999999977263,3372,0,62,1
0.013636363636351234,3372,1,62,1
0.025000000000005684,3372,2,62,1
0.025000000000005684,3372,3,62,1
0.01590909090907644,3372,4,62,1
0.01590909090910486,3372,5,62,1
0.013636363636379656,3372,6,62,1
0.025000000000005684,3372,7,62,1
0.025000000000005684,3372,8,62,1
0.025000000000005684,3372,9,62,1
0.025000000000005684,3372,10,62,1
0.01590909090907644,3372,11,62,1
0.01590909090907644,3372,12,62,1
0.013636363636379656,3372,13,62,1
0.025000000000005684,3372,14,62,1
0.025000000000005684,3372,15,62,1
0.013636363636379656,3373,0,62,1
0.01590909090910486,3373,1,62,1
0.01590909090907644,3373,2,62,1
0.025000000000005684,3373,3,62,1
0.025000000000005684,3373,4,62,1
0.013636363636351234,3373,5,62,1
0.024999999999977263,3373,6,62,1
0.025000000000005684,3373,7,62,1
0.01590909090910486,3373,8,62,1
0.01590909090907644,3373,9,62,1
0.025000000000005684,3373,10,62,1
0.025000000000005684,3373,11,62,1
0.013636363636379656,3373,12,62,1
0.01590909090907644,3373,13,62,1
0.01590909090910486,3373,14,62,1
0.025000000000005684,3373,15,62,1
0.024999999999977263,3374,0,62,1
0.025000000000005684,3374,1,62,1
0.056818181818186986,3374,2,62,1
0.025000000000005684,3374,3,62,1
0.01590909090910486,3374,4,62,1
0.004545454545478833,3374,5,62,1
0.013636363636351234,3374,6,62,1
0.004545454545478833,3374,7,62,1
0.025000000000005684,3374,8,62,1
0.056818181818186986,3374,9,62,1
0.09999999999999432,3374,10,62,1
0.03636363636363171,3374,11,62,1
0.013636363636379656,3374,12,62,1
0.004545454545450411,3374,13,62,1
0.056818181818186986,3374,14,62,1
0.025000000000005684,3374,15,62,1
0.03636363636363171,3375,0,62,1
0.025000000000005684,3375,1,62,1
0.01590909090907644,3375,2,62,1
0.004545454545478833,3375,3,62,1
0.013636363636379656,3375,4,62,1
0.025000000000005684,3375,5,62,1
0.025000000000005684,3375,6,62,1
0.025000000000005684,3375,7,62,1
0.01590909090910486,3375,8,62,1
0.01590909090907644,3375,9,62,1
0.025000000000005684,3375,10,62,1
0.025000000000005684,3375,11,62,1
0.013636363636351234,3375,12,62,1
0.024999999999977263,3375,13,62,1
0.01590909090910486,3375,14,62,1
0.01590909090910486,3375,15,62,1
0.025000000000005684,3376,0,62,1
0.025000000000005684,3376,1,62,1
0.013636363636351234,3376,2,62,1
0.025000000000005684,3376,3,62,1
0.01590909090907644,3376,4,62,1
0.06818181818181301,3376,5,62,1
0.025000000000005684,3376,6,62,1
0.013636363636379656,3376,7,62,1
0.025000000000005684,3376,8,62,1
0.025000000000005684,3376,9,62,1
0.01590909090910486,3376,10,62,1
0.01590909090910486,3376,11,62,1
0.013636363636351234,3376,12,62,1
0.025000000000005684,3376,13,62,1
0.025000000000005684,3376,14,62,1
0.01590909090907644,3376,15,62,1
0.024999999999977263,3377,0,62,1
0.025000000000005684,3377,1,62,1
0.025000000000005684,3377,2,62,1
0.056818181818186986,3377,3,62,1
0.013636363636379656,3377,4,62,1
0.013636363636351234,3377,5,62,1
0.01590909090907644,3377,6,62,1
0.02727272727273089,3377,7,62,1
0.025000000000005684,3377,8,62,1
0.013636363636351234,3377,9,62,1
0.013636363636351234,3377,10,62,1
0.01590909090910486,3377,11,62,1
0.025000000000005684,3377,12,62,1
0.024999999999977263,3377,13,62,1
0.01590909090910486,3377,14,62,1
0.013636363636379656,3377,15,62,1
0.025000000000005684,3378,0,62,1
0.025000000000005684,3378,1,62,1
0.01590909090910486,3378,2,62,1
0.025000000000005684,3378,3,62,1
0.024999999999977263,3378,4,62,1
0.01590909090907644,3378,5,62,1
0.013636363636379656,3378,6,62,1
0.025000000000005684,3378,7,62,1
0.025000000000005684,3378,8,62,1
0.013636363636379656,3378,9,62,1
0.025000000000005684,3378,10,62,1
0.02727272727273089,3378,11,62,1
0.01590909090907644,3378,12,62,1
0.013636363636379656,3378,13,62,1
0.013636363636351234,3378,14,62,1
0.024999999999977263,3378,15,62,1
0.025000000000005684,3379,0,62,1
0.025000000000005684,3379,1,62,1
0.02727272727273089,3379,2,62,1
0.025000000000005684,3379,3,62,1
0.056818181818186986,3379,4,62,1
0.004545454545450411,3379,5,62,1
0.004545454545450411,3379,6,62,1
0.09999999999999432,3379,7,62,1
0.06818181818181301,3379,8,62,1
0.013636363636351234,3379,9,62,1
0.06818181818181301,3379,10,62,1
0.01590909090910486,3379,11,62,1
0.01590909090910486,3379,12,62,1
0.025000000000005684,3379,13,62,1
0.04772727272728616,3379,14,62,1
0.04545454545456096,3379,15,62,1
0.01590909090907644,3380,0,62,1
0.056818181818186986,3380,1,62,1
0.013636363636351234,3380,2,62,1
0.025000000000005684,3380,3,62,1
0.056818181818186986,3380,4,62,1
0.004545454545450411,3380,5,62,1
0.004545454545450411,3380,6,62,1
0.024999999999977263,3380,7,62,1
0.013636363636379656,3380,8,62,1
0.02727272727273089,3380,9,62,1
0.056818181818186986,3380,10,62,1
0.013636363636379656,3380,11,62,1
0.025000000000005684,3380,12,62,1
0.025000000000005684,3380,13,62,1
0.013636363636379656,3380,14,62,1
0.01590909090910486,3380,15,62,1
0.01590909090907644,3381,0,62,1
0.013636363636379656,3381,1,62,1
0.025000000000005684,3381,2,62,1
0.024999999999977263,3381,3,62,1
0.025000000000005684,3381,4,62,1
0.05909090909091219,3381,5,62,1
0.01590909090907644,3381,6,62,1
0.013636363636379656,3381,7,62,1
0.013636363636351234,3381,8,62,1
0.024999999999977263,3381,9,62,1
0.025000000000005684,3381,10,62,1
0.01590909090910486,3381,11,62,1
0.01590909090907644,3381,12,62,1
0.024999999999977263,3381,13,62,1
0.025000000000005684,3381,14,62,1
0.025000000000005684,3381,15,62,1
0.025000000000005684,3382,0,62,1
0.013636363636351234,3382,1,62,1
0.01590909090910486,3382,2,62,1
0.01590909090910486,3382,3,62,1
0.025000000000005684,3382,4,62,1
0.025000000000005684,3382,5,62,1
0.013636363636379656,3382,6,62,1
0.025000000000005684,3382,7,62,1
0.024999999999977263,3382,8,62,1
0.01590909090907644,3382,9,62,1
0.01590909090910486,3382,10,62,1
0.013636363636351234,3382,11,62,1
0.025000000000005684,3382,12,62,1
0.025000000000005684,3382,13,62,1
0.013636363636351234,3382,14,62,1
0.01590909090907644,3382,15,62,1
0.02727272727273089,3383,0,62,1
0.025000000000005684,3383,1,62,1
0.013636363636351234,3383,2,62,1
0.013636363636351234,3383,3,62,1
0.025000000000005684,3383,4,62,1
0.01590909090907644,3383,5,62,1
0.056818181818186986,3383,6,62,1
0.025000000000005684,3383,7,62,1
0.09999999999999432,3383,8,62,1
0.056818181818158564,3383,9,62,1
0.024999999999977263,3383,10,62,1
0.013636363636379656,3383,11,62,1
0.06818181818184144,3383,12,62,1
0.01590909090910486,3383,13,62,1
0.013636363636379656,3383,14,62,1
0.025000000000005684,3383,15,62,1
0.02727272727273089,3384,0,62,1
0.025000000000005684,3384,1,62,1
0.013636363636379656,3384,2,62,1
0.013636363636351234,3384,3,62,1
0.024999999999977263,3384,4,62,1
0.025000000000005684,3384,5,62,1
0.01590909090910486,3384,6,62,1
0.01590909090907644,3384,7,62,1
0.024999999999977263,3384,8,62,1
0.013636363636379656,3384,9,62,1
0.013636363636379656,3384,10,62,1
0.036363636363660135,3384,11,62,1
0.01590909090910486,3384,12,62,1
0.004545454545450411,3384,13,62,1
0.024999999999977263,3384,14,62,1
0.025000000000005684,3384,15,62,1
0.025000000000005684,3385,0,62,1
0.025000000000005684,3385,1,62,1
0.013636363636351234,3385,2,62,1
0.025000000000005684,3385,3,62,1
0.01590909090910486,3385,4,62,1
0.01590909090910486,3385,5,62,1
0.004545454545478833,3385,6,62,1
0.025000000000005684,3385,7,62,1
0.056818181818186986,3385,8,62,1
0.025000000000005684,3385,9,62,1
0.004545454545450411,3385,10,62,1
0.056818181818186986,3385,11,62,1
0.03636363636363171,3385,12,62,1
0.04545454545456096,3385,13,62,1
0.01590909090910486,3385,14,62,1
0.056818181818158564,3385,15,62,1
0.09999999999999432,3386,0,62,1
0.06818181818181301,3386,1,62,1
0.025000000000005684,3386,2,62,1
0.013636363636379656,3386,3,62,1
0.025000000000005684,3386,4,62,1
0.056818181818186986,3386,5,62,1
0.01590909090907644,3386,6,62,1
0.056818181818186986,3386,7,62,1
0.025000000000005684,3386,8,62,1
0.01590909090907644,3386,9,62,1
0.056818181818186986,3386,10,62,1
0.025000000000005684,3386,11,62,1
0.09999999999999432,3386,12,62,1
0.056818181818158564,3386,13,62,1
0.013636363636351234,3386,14,62,1
0.01590909090910486,3386,15,62,1
0.02727272727273089,3387,0,62,1
0.024999999999977263,3387,1,62,1
0.013636363636351234,3387,2,62,1
0.013636363636379656,3387,3,62,1
0.025000000000005684,3387,4,62,1
0.025000000000005684,3387,5,62,1
0.01590909090910486,3387,6,62,1
0.01590909090910486,3387,7,62,1
0.013636363636351234,3387,8,62,1
0.025000000000005684,3387,9,62,1
0.01590909090907644,3387,10,62,1
0.06590909090908781,3387,11,62,1
0.025000000000005684,3387,12,62,1
0.01590909090910486,3387,13,62,1
0.013636363636351234,3387,14,62,1
0.013636363636379656,3387,15,62,1
0.025000000000005684,3388,0,62,1
0.024999999999977263,3388,1,62,1
0.01590909090907644,3388,2,62,1
0.02727272727273089,3388,3,62,1
0.025000000000005684,3388,4,62,1
0.013636363636351234,3388,5,62,1
0.013636363636351234,3388,6,62,1
0.025000000000005684,3388,7,62,1
0.01590909090907644,3388,8,62,1
0.01590909090907644,3388,9,62,1
0.025000000000005684,3388,10,62,1
0.025000000000005684,3388,11,62,1
0.025000000000005684,3388,12,62,1
0.013636363636351234,3388,13,62,1
0.01590909090910486,3388,14,62,1
0.025000000000005684,3388,15,62,1
0.024999999999977263,3389,0,62,1
0.01590909090907644,3389,1,62,1
0.013636363636379656,3389,2,62,1
0.025000000000005684,3389,3,62,1
0.025000000000005684,3389,4,62,1
0.013636363636379656,3389,5,62,1
0.01590909090910486,3389,6,62,1
0.01590909090907644,3389,7,62,1
0.025000000000005684,3389,8,62,1
0.025000000000005684,3389,9,62,1
0.013636363636351234,3389,10,62,1
0.024999999999977263,3389,11,62,1
0.025000000000005684,3389,12,62,1
0.01590909090907644,3389,13,62,1
0.06818181818181301,3389,14,62,1
0.025000000000005684,3389,15,62,1
0.013636363636379656,3390,0,62,1
0.01590909090907644,3390,1,62,1
0.025000000000005684,3390,2,62,1
0.025000000000005684,3390,3,62,1
0.01590909090907644,3390,4,62,1
0.024999999999977263,3390,5,62,1
0.013636363636379656,3390,6,62,1
0.013636363636379656,3390,7,62,1
0.01590909090910486,3390,8,62,1
0.06818181818181301,3390,9,62,1
0.025000000000005684,3390,10,62,1
0.013636363636351234,3390,11,62,1
0.01590909090910486,3390,12,62,1
0.06590909090908781,3390,13,62,1
0.02727272727273089,3390,14,62,1
0.10000000000002274,3390,15,62,1
0.04545454545456096,3391,0,62,1
0.004545454545450411,3391,1,62,1
0.024999999999977263,3391,2,62,1
0.056818181818186986,3391,3,62,1
0.004545454545450411,3391,4,62,1
0.04545454545456096,3391,5,62,1
0.01590909090910486,3391,6,62,1
0.06818181818181301,3391,7,62,1
0.004545454545450411,3391,8,62,1
0.056818181818186986,3391,9,62,1
0.025000000000005684,3391,10,62,1
0.06818181818181301,3391,11,62,1
0.013636363636351234,3391,12,62,1
0.10000000000002274,3391,13,62,1
0.06818181818184144,3391,14,62,1
0.036363636363660135,3391,15,62,1
0.013636363636379656,3392,0,62,1
0.013636363636379656,3392,1,62,1
0.024999999999977263,3392,2,62,1
0.03636363636363171,3392,3,62,1
0.056818181818186986,3392,4,62,1
0.004545454545450411,3392,5,62,1
0.025000000000005684,3392,6,62,1
0.10000000000000142,3392,7,63,42
0.10000000000000142,3392,8,63,56
0.10000000000000142,3392,9,63,45
0.10000000000000142,3392,10,63,42
0.10000000000000142,3392,11,63,48
0.10000000000000142,3392,12,63,30
0.10000000000000142,3392,13,63,50
0.10000000000000142,3392,14,63,43
0.10000000000000853,3392,15,63,61
0.09999999999999432,3393,0,63,61
0.10000000000000853,3393,1,63,62
0.09999999999999432,3393,2,63,39
0.10000000000000853,3393,3,63,48
0.09999999999999432,3393,4,63,48
0.09999999999999432,3393,5,63,54
0.10000000000000853,3393,6,63,51
0.09999999999999432,3393,7,63,46
0.10000000000000853,3393,8,63,51
0.09999999999999432,3393,9,63,49
0.10000000000000853,3393,10,63,56
0.09999999999999432,3393,11,63,60
0.09999999999999432,3393,12,63,54
0.09999999999999432,3393,13,63,51
0.09999999999999432,3393,14,63,50
0.10000000000000853,3393,15,63,60
0.09999999999999432,3394,0,63,68
0.10000000000000853,3394,1,63,46
0.09999999999999432,3394,2,63,50
0.09999999999999432,3394,3,63,44
0.10000000000000853,3394,4,63,54
0.09999999999999432,3394,5,63,70
0.10000000000000853,3394,6,63,45
0.09999999999999432,3394,7,63,24
0.09999999999999432,3394,8,63,50
0.09999999999999432,3394,9,63,41
0.09999999999999432,3394,10,63,56
0.09999999999999432,3394,11,63,49
0.10000000000000853,3394,12,63,45
0.09999999999999432,3394,13,63,58
0.10000000000000853,3394,14,63,44
0.09999999999999432,3394,15,63,46
0.09999999999999432,3395,0,63,54
0.10000000000000853,3395,1,63,58
0.09999999999999432,3395,2,63,28
0.09999999999999432,3395,3,63,45
0.10000000000000853,3395,4,63,54
0.09999999999999432,3395,5,63,47
0.10000000000000853,3395,6,63,37
0.09999999999999432,3395,7,63,49
0.09999999999999432,3395,8,63,42
0.10000000000000853,3395,9,63,52
0.09999999999999432,3395,10,63,16
0.10000000000000853,3395,11,63,3
0.09999999999999432,3395,12,63,11
0.10000000000000853,3395,13,63,8
0.09999999999999432,3395,14,63,13
0.09999999999999432,3395,15,63,7
0.09999999999999432,3396,0,63,8
0.09999999999999432,3396,1,63,30
0.10000000000000853,3396,2,63,54
0.09999999999999432,3396,3,63,31
0.09999999999999432,3396,4,63,48
0.10000000000000853,3396,5,63,70
0.09999999999999432,3396,6,63,34
0.09999999999999432,3396,7,63,59
0.09999999999999432,3396,8,63,38
0.09999999999999432,3396,9,63,52
0.10000000000000853,3396,10,63,52
0.10000000000000853,3396,11,63,28
0.09999999999999432,3396,12,63,64
0.09999999999999432,3396,13,63,32
0.10000000000000853,3396,14,63,60
0.09999999999999432,3396,15,63,43
0.09999999999999432,3397,0,63,54
0.10000000000000853,3397,1,63,42
0.10000000000000853,3397,2,63,52
0.09999999999999432,3397,3,63,32
0.09999999999999432,3397,4,63,50
0.10000000000000853,3397,5,63,44
0.10000000000000853,3397,6,63,59
0.09999999999999432,3397,7,63,37
0.10000000000000853,3397,8,63,49
0.10000000000000853,3397,9,63,35
0.09999999999999432,3397,10,63,35
0.09999999999999432,3397,11,63,44
0.09999999999999432,3397,12,63,43
0.10000000000000853,3397,13,63,55
0.09999999999999432,3397,14,63,46
0.09999999999999432,3397,15,63,64
0.09999999999999432,3398,0,63,47
0.10000000000000853,3398,1,63,51
0.09999999999999432,3398,2,63,39
0.09999999999999432,3398,3,63,49
0.10000000000000853,3398,4,63,30
0.10000000000000853,3398,5,63,40
0.09999999999999432,3398,6,63,33
0.10000000000000853,3398,7,63,46
0.10000000000000853,3398,8,63,28
0.09999999999999432,3398,9,63,47
0.10000000000000853,3398,10,63,39
0.09999999999999432,3398,11,63,41
0.10000000000000853,3398,12,63,42
0.09999999999999432,3398,13,63,32
0.10000000000000853,3398,14,63,41
0.09999999999999432,3398,15,63,39
0.09999999999999432,3399,0,63,35
0.09999999999999432,3399,1,63,22
0.10000000000000853,3399,2,63,28
0.09999999999999432,3399,3,63,29
0.09999999999999432,3399,4,63,31
0.09999999999999432,3399,5,63,31
0.09999999999999432,3399,6,63,32
0.09999999999999432,3399,7,63,38
0.09999999999999432,3399,8,63,39
0.09999999999999432,3399,9,63,35
0.09999999999999432,3399,10,63,41
0.10000000000000853,3399,11,63,35
0.09999999999999432,3399,12,63,38
0.09999999999999432,3399,13,63,30
0.09999999999999432,3399,14,63,32
0.09999999999999432,3399,15,63,28
0.09999999999999432,3400,0,63,36
0.09999999999999432,3400,1,63,49
0.09999999999999432,3400,2,63,29
0.09999999999999432,3400,3,63,38
0.09999999999999432,3400,4,63,33
0.10000000000002274,3400,5,63,38
0.10000000000002274,3400,6,63,33
0.09999999999999432,3400,7,63,33
0.09999999999999432,3400,8,63,46
0.09999999999999432,3400,9,63,38
0.09999999999999432,3400,10,63,15
0.09999999999999432,3400,11,63,41
0.09999999999999432,3400,12,63,34
0.09999999999999432,3400,13,63,43
0.09999999999999432,3400,14,63,67
0.09999999999999432,3400,15,63,34
0.09999999999999432,3401,0,63,47
0.09999999999999432,3401,1,63,45
0.09999999999999432,3401,2,63,31
0.09999999999999432,3401,3,63,60
0.09999999999999432,3401,4,63,45
0.09999999999999432,3401,5,63,53
0.09999999999999432,3401,6,63,47
0.09999999999999432,3401,7,63,63
0.10000000000002274,3401,8,63,28
0.09999999999999432,3401,9,63,39
0.09999999999999432,3401,10,63,71
0.09999999999999432,3401,11,63,36
0.09999999999999432,3401,12,63,41
0.09999999999999432,3401,13,63,46
0.09999999999999432,3401,14,63,59
0.09999999999999432,3401,15,63,51
0.09999999999999432,3402,0,63,33
0.09999999999999432,3402,1,63,39
0.09999999999999432,3402,2,63,35
0.09999999999999432,3402,3,63,41
0.09999999999999432,3402,4,63,41
0.09999999999999432,3402,5,63,23
0.09999999999999432,3402,6,63,43
0.09999999999999432,3402,7,63,44
0.09999999999999432,3402,8,63,37
0.09999999999999432,3402,9,63,39
0.09999999999999432,3402,10,63,38
0.09999999999999432,3402,11,63,31
0.09999999999999432,3402,12,63,35
0.09999999999999432,3402,13,63,33
0.09999999999999432,3402,14,63,29
0.09999999999999432,3402,15,63,49
0.09999999999999432,3403,0,63,5
0.03636363636363171,3403,1,63,19
0.10000000000002274,3403,2,63,35
0.09999999999999432,3403,3,63,58
0.09999999999999432,3403,4,63,44
0.09999999999999432,3403,5,63,56
0.09999999999999432,3403,6,63,49
0.10000000000002274,3403,7,63,28
0.09999999999999432,3403,8,63,30
0.09999999999999432,3403,9,63,36
0.09999999999999432,3403,10,63,54
0.09999999999999432,3403,11,63,40
0.09999999999999432,3403,12,63,43
0.09999999999999432,3403,13,63,42
0.09999999999999432,3403,14,63,44
0.09999999999999432,3403,15,63,32
0.09999999999999432,3404,0,63,39
0.09999999999999432,3404,1,63,48
0.09999999999999432,3404,2,63,19
0.09999999999999432,3404,3,63,44
0.09999999999999432,3404,4,63,38
0.09999999999999432,3404,5,63,33
0.09999999999999432,3404,6,63,35
0.09999999999999432,3404,7,63,33
0.09999999999999432,3404,8,63,37
0.09999999999999432,3404,9,63,49
0.09999999999999432,3404,10,63,49
0.10000000000002274,3404,11,63,31
0.09999999999999432,3404,12,63,41
0.09999999999999432,3404,13,63,39
0.09999999999999432,3404,14,63,54
0.09999999999999432,3404,15,63,43
0.09999999999999432,3405,0,63,41
0.09999999999999432,3405,1,63,46
0.09999999999999432,3405,2,63,43
0.09999999999999432,3405,3,63,19
0.09999999999999432,3405,4,63,43
0.09999999999999432,3405,5,63,30
0.09999999999999432,3405,6,63,38
0.10000000000002274,3405,7,63,26
0.09999999999999432,3405,8,63,36
0.09999999999999432,3405,9,63,39
0.09999999999999432,3405,10,63,40
0.09999999999999432,3405,11,63,25
0.09999999999999432,3405,12,63,44
0.10000000000002274,3405,13,63,33
0.09999999999999432,3405,14,63,46
0.10000000000002274,3405,15,63,8
0.09999999999999432,3406,0,63,16
0.09999999999999432,3406,1,63,9
0.10000000000002274,3406,2,63,14
0.09999999999999432,3406,3,63,4
0.10000000000002274,3406,4,63,7
0.10000000000002274,3406,5,63,6
0.09999999999999432,3406,6,63,11
0.09999999999999432,3406,7,63,7
0.09999999999999432,3406,8,63,7
0.10000000000002274,3406,9,63,18
0.09999999999999432,3406,10,63,18
0.10000000000002274,3406,11,63,9
0.09999999999999432,3406,12,63,13
0.10000000000002274,3406,13,63,20
0.09999999999999432,3406,14,63,66
0.10000000000002274,3406,15,63,40
0.09999999999999432,3407,0,63,43
0.10000000000002274,3407,1,63,28
0.09999999999999432,3407,2,63,50
0.09999999999999432,3407,3,63,28
0.09999999999999432,3407,4,63,61
0.09999999999999432,3407,5,63,35
0.09999999999999432,3407,6,63,50
0.10000000000002274,3407,7,63,33
0.09999999999999432,3407,8,63,47
0.09999999999999432,3407,9,63,33
0.09999999999999432,3407,10,63,47
0.09999999999999432,3407,11,63,48
0.10000000000002274,3407,12,63,46
0.09999999999999432,3407,13,63,52
0.09999999999999432,3407,14,63,31
0.09999999999999432,3407,15,63,65
0.09999999999999432,3408,0,63,37
0.09999999999999432,3408,1,63,57
0.09999999999999432,3408,2,63,30
0.09999999999999432,3408,3,63,65
0.10000000000002274,3408,4,63,30
0.09999999999999432,3408,5,63,45
0.09999999999999432,3408,6,63,29
0.09999999999999432,3408,7,63,41
0.09999999999999432,3408,8,63,48
0.1,3408,9,71,1
0.09999999999999998,3408,10,71,21
0.045454545454545525,3408,11,71,58
0.09999999999999998,3408,12,71,71
0.09999999999999987,3408,13,71,82
0.09999999999999987,3408,14,71,66
0.10000000000000009,3408,15,71,68
0.10000000000000009,3409,0,71,71
0.10000000000000009,3409,1,71,62
0.10000000000000009,3409,2,71,73
0.10000000000000009,3409,3,71,22
0.05909090909090908,3409,4,71,31
0.09999999999999964,3409,5,71,86
0.10000000000000009,3409,6,71,47
0.10000000000000053,3409,7,71,70
0.10000000000000053,3409,8,71,15
0.10000000000000053,3409,9,71,15
0.09999999999999964,3409,10,71,65
0.09999999999999964,3409,11,71,46
0.09999999999999964,3409,12,71,66
0.09999999999999964,3409,13,71,51
0.10000000000000053,3409,14,71,26
0.09999999999999964,3409,15,71,64
0.09999999999999964,3410,0,71,24
0.09999999999999964,3410,1,71,2
0.09999999999999964,3410,2,71,40
0.10000000000000142,3410,3,71,74
0.09999999999999964,3410,4,71,95
0.09999999999999964,3410,5,71,53
0.09999999999999964,3410,6,71,80
0.09999999999999964,3410,7,71,69
0.09999999999999964,3410,8,71,68
0.09999999999999964,3410,9,71,54
0.09999999999999964,3410,10,71,11
0.10000000000000142,3410,11,71,54
0.045454545454546746,3410,12,71,93
0.09999999999999964,3410,13,71,68
0.09999999999999964,3410,14,71,82
0.09999999999999964,3410,15,71,10
0.025000000000000355,3411,0,71,42
0.09999999999999964,3411,1,71,85
0.10000000000000142,3411,2,71,87
0.10000000000000142,3411,3,71,67
0.09999999999999787,3411,4,71,59
0.10000000000000142,3411,5,71,82
0.09999999999999787,3411,6,71,52
0.09999999999999787,3411,7,71,4
0.10000000000000142,3411,8,71,80
0.10000000000000142,3411,9,71,77
0.09999999999999787,3411,10,71,69
0.10000000000000142,3411,11,71,54
0.10000000000000142,3411,12,71,96
0.09999999999999787,3411,13,71,90
0.09999999999999787,3411,14,71,67
0.09999999999999787,3411,15,71,10
0.10000000000000142,3412,0,71,74
0.10000000000000142,3412,1,71,73
0.09999999999999787,3412,2,71,95
0.10000000000000142,3412,3,71,92
0.10000000000000142,3412,4,71,80
0.02500000000000213,3412,5,71,64
0.09999999999999787,3412,6,71,67
0.10000000000000142,3412,7,71,102
0.10000000000000142,3412,8,71,66
0.09999999999999787,3412,9,71,54
0.09999999999999787,3412,10,71,47
0.09999999999999787,3412,11,71,38
0.004545454545453964,3412,12,71,86
0.10000000000000142,3412,13,71,104
0.09999999999999787,3412,14,71,70
0.09999999999999787,3412,15,71,81
0.10000000000000142,3413,0,71,61
0.09999999999999787,3413,1,71,88
0.09999999999999787,3413,2,71,59
0.10000000000000142,3413,3,71,80
0.10000000000000142,3413,4,71,17
0.09999999999999787,3413,5,71,27
0.05909090909090864,3413,6,71,57
0.10000000000000142,3413,7,71,65
0.10000000000000142,3413,8,71,73
0.10000000000000142,3413,9,71,80
0.09999999999999787,3413,10,71,48
0.045454545454543194,3413,11,71,69
0.09999999999999787,3413,12,71,50
0.09999999999999787,3413,13,71,81
0.09999999999999787,3413,14,71,67
0.09999999999999787,3413,15,71,11
0.09999999999999787,3414,0,71,100
0.036363636363635266,3414,1,71,127
0.10000000000000142,3414,2,71,35
0.10000000000000142,3414,3,71,80
0.09999999999999787,3414,4,71,10
0.10000000000000142,3414,5,71,35
0.05681818181817988,3414,6,71,55
0.09999999999999432,3414,7,71,62
0.09999999999999432,3414,8,71,83
0.10000000000000142,3414,9,71,93
0.10000000000000142,3414,10,71,24
0.10000000000000142,3414,11,71,63
0.03636363636363882,3414,12,71,106
0.10000000000000142,3414,13,71,78
0.10000000000000142,3414,14,71,61
0.10000000000000142,3414,15,71,71
0.10000000000000142,3415,0,71,58
0.004545454545457517,3415,1,71,60
0.10000000000000142,3415,2,71,99
0.10000000000000142,3415,3,71,20
0.10000000000000142,3415,4,71,58
0.10000000000000142,3415,5,71,84
0.10000000000000142,3415,6,71,74
0.10000000000000142,3415,7,71,111
0.10000000000000142,3415,8,71,72
0.10000000000000142,3415,9,71,69
0.10000000000000142,3415,10,71,26
0.10000000000000142,3415,11,71,107
0.10000000000000142,3415,12,71,40
0.09999999999999432,3415,13,71,74
0.10000000000000142,3415,14,71,50
0.10000000000000142,3415,15,71,101
0.10000000000000142,3416,0,71,86
0.09999999999999432,3416,1,71,61
0.10000000000000142,3416,2,71,11
0.10000000000000142,3416,3,71,92
0.10000000000000142,3416,4,71,99
0.10000000000000142,3416,5,71,92
0.10000000000000142,3416,6,71,64
0.10000000000000142,3416,7,71,50
0.09999999999999432,3416,8,71,90
0.10000000000000142,3416,9,71,103
0.10000000000000142,3416,10,71,86
0.10000000000000142,3416,11,71,80
0.10000000000000142,3416,12,71,17
0.10000000000000142,3416,13,71,23
0.10000000000000142,3416,14,71,67
0.10000000000000142,3416,15,71,85
0.10000000000000142,3417,0,71,61
0.10000000000000142,3417,1,71,53
0.10000000000000142,3417,2,71,6
0.10000000000000142,3417,3,71,93
0.10000000000000142,3417,4,71,68
0.10000000000000142,3417,5,71,100
0.10000000000000142,3417,6,71,14
0.10000000000000142,3417,7,71,78
0.10000000000000142,3417,8,71,91
0.10000000000000142,3417,9,71,98
0.10000000000000142,3417,10,71,59
0.10000000000000142,3417,11,71,69
0.10000000000000142,3417,12,71,39
0.10000000000000142,3417,13,71,66
0.10000000000000142,3417,14,71,63
0.10000000000000142,3417,15,71,36
0.09999999999999432,3418,0,71,25
0.10000000000000142,3418,1,71,102
0.10000000000000142,3418,2,71,71
0.10000000000000142,3418,3,71,114
0.10000000000000142,3418,4,71,49
0.10000000000000142,3418,5,71,115
0.10000000000000142,3418,6,71,62
0.10000000000000142,3418,7,71,92
0.10000000000000142,3418,8,71,119
0.10000000000000142,3418,9,71,121
0.09999999999999432,3418,10,71,85
0.09999999999999432,3418,11,71,93
0.10000000000000142,3418,12,71,82
0.10000000000000142,3418,13,71,91
0.09999999999999432,3418,14,71,30
0.09999999999999432,3418,15,71,99
0.10000000000000853,3419,0,71,88
0.09999999999999432,3419,1,71,72
0.056818181818186986,3419,2,71,100
0.10000000000000853,3419,3,71,40
0.09999999999999432,3419,4,71,109
0.09999999999999432,3419,5,71,83
0.09999999999999432,3419,6,71,89
0.10000000000000853,3419,7,71,17
0.10000000000000853,3419,8,71,40
0.013636363636365445,3419,9,71,114
0.10000000000000853,3419,10,71,95
0.09999999999999432,3419,11,71,98
0.09999999999999432,3419,12,71,127
0.09999999999999432,3419,13,71,95
0.10000000000000853,3419,14,71,26
0.09999999999999432,3419,15,71,84
0.09999999999999432,3420,0,71,74
0.10000000000000853,3420,1,71,107
0.10000000000000853,3420,2,71,90
0.09999999999999432,3420,3,71,109
0.09999999999999432,3420,4,71,117
0.10000000000000853,3420,5,71,101
0.09999999999999432,3420,6,71,91
0.09999999999999432,3420,7,71,100
0.10000000000000853,3420,8,71,77
0.10000000000000853,3420,9,71,77
0.09999999999999432,3420,10,71,127
0.10000000000000853,3420,11,71,127
0.09999999999999432,3420,12,71,11
0.10000000000000853,3420,13,71,119
0.01590909090909065,3420,14,71,127
0.09999999999999432,3420,15,71,36
0.09999999999999432,3421,0,71,109
0.09999999999999432,3421,1,71,125
0.09999999999999432,3421,2,71,127
0.09999999999999432,3421,3,71,15
0.09999999999999432,3421,4,71,93
0.10000000000000853,3421,5,71,127
0.09999999999999432,3421,6,71,76
0.09999999999999432,3421,7,71,123
0.09999999999999432,3421,8,71,74
0.09999999999999432,3421,9,71,98
0.09999999999999432,3421,10,71,124
0.10000000000000853,3421,11,71,118
0.09999999999999432,3421,12,71,103
0.09999999999999432,3421,13,71,112
0.10000000000000853,3421,14,71,100
0.09999999999999432,3421,15,71,127
0.10000000000000853,3422,0,71,93
0.10000000000000853,3422,1,71,127
0.09999999999999432,3422,2,71,116
0.004545454545450411,3422,3,71,46
0.10000000000000853,3422,4,71,100
0.09999999999999432,3422,5,71,83
0.09999999999999432,3422,6,71,102
0.10000000000000853,3422,7,71,103
0.09999999999999432,3422,8,71,112
0.09999999999999432,3422,9,71,117
0.09999999999999432,3422,10,71,103
0.09999999999999432,3422,11,71,121
0.09999999999999432,3422,12,71,125
0.09999999999999432,3422,13,71,27
0.09999999999999432,3422,14,71,98
0.10000000000000853,3422,15,71,99
0.10000000000000853,3423,0,71,91
0.09999999999999432,3423,1,71,69
0.09999999999999432,3423,2,71,110
0.09999999999999432,3423,3,71,104
0.09999999999999432,3423,4,71,72
0.09999999999999432,3423,5,71,62
0.10000000000000853,3423,6,71,87
0.10000000000000853,3423,7,71,81
0.10000000000000853,3423,8,71,61
0.013636363636365445,3423,9,71,105
0.10000000000000853,3423,10,71,127
0.09999999999999432,3423,11,71,42
0.10000000000000853,3423,12,71,104
0.09999999999999432,3423,13,71,28
0.09999999999999432,3423,14,71,80
0.06818181818181301,3423,15,71,104
0.09999999999999432,3424,0,71,116
0.10000000000000853,3424,1,71,70
0.09999999999999432,3424,2,71,18
0.09999999999999432,3424,3,71,89
0.09999999999999432,3424,4,71,119
0.09999999999999432,3424,5,71,77
0.09999999999999432,3424,6,71,76
0.09999999999999432,3424,7,71,77
0.10000000000000853,3424,8,71,83
0.09999999999999432,3424,9,71,115
0.09999999999999432,3424,10,71,81
0.10000000000000853,3424,11,71,15
0.09999999999999432,3424,12,71,79
0.09999999999999432,3424,13,71,92
0.09999999999999432,3424,14,71,49
0.09999999999999432,3424,15,71,89
0.10000000000000853,3425,0,71,59
0.09999999999999432,3425,1,71,95
0.10000000000000853,3425,2,71,72
0.09999999999999432,3425,3,71,68
0.09999999999999432,3425,4,71,90
0.09999999999999432,3425,5,71,43
0.09999999999999432,3425,6,71,89
0.09999999999999432,3425,7,71,89
0.09999999999999432,3425,8,71,108
0.09999999999999432,3425,9,71,102
0.10000000000000853,3425,10,71,76
0.09999999999999432,3425,11,71,76
0.09999999999999432,3425,12,71,85
0.10000000000000853,3425,13,71,73
0.10000000000000853,3425,14,71,96
0.10000000000000853,3425,15,71,84
0.10000000000000853,3426,0,71,60
0.09999999999999432,3426,1,71,110
0.09999999999999432,3426,2,71,97
0.09999999999999432,3426,3,71,80
0.09999999999999432,3426,4,71,115
0.10000000000000853,3426,5,71,101
0.10000000000000853,3426,6,71,88
0.10000000000000853,3426,7,71,31
0.10000000000000853,3426,8,71,44
0.10000000000000853,3426,9,71,42
0.10000000000000853,3426,10,71,112
0.09999999999999432,3426,11,71,88
0.09999999999999432,3426,12,71,47
0.09999999999999432,3426,13,71,76
0.10000000000000853,3426,14,71,109
0.09999999999999432,3426,15,71,109
0.10000000000000853,3427,0,71,98
0.10000000000000853,3427,1,71,86
0.09999999999999432,3427,2,71,83
0.09999999999999432,3427,3,71,89
0.10000000000000853,3427,4,71,104
0.10000000000000853,3427,5,71,72
0.09999999999999432,3427,6,71,16
0.10000000000000853,3427,7,71,95
0.10000000000000853,3427,8,71,94
0.09999999999999432,3427,9,71,105
0.09999999999999432,3427,10,71,79
0.09999999999999432,3427,11,71,79
0.10000000000000853,3427,12,71,73
0.09999999999999432,3427,13,71,127
0.10000000000000853,3427,14,71,26
0.09999999999999432,3427,15,71,80
0.10000000000000853,3428,0,71,55
0.09999999999999432,3428,1,71,81
0.09999999999999432,3428,2,71,105
0.09999999999999432,3428,3,71,70
0.10000000000000853,3428,4,71,12
0.09999999999999432,3428,5,71,89
0.04772727272727195,3428,6,71,102
0.10000000000000853,3428,7,71,123
0.10000000000000853,3428,8,71,101
0.09999999999999432,3428,9,71,73
0.09999999999999432,3428,10,71,80
0.10000000000000853,3428,11,71,20
0.09999999999999432,3428,12,71,67
0.09999999999999432,3428,13,71,121
0.09999999999999432,3428,14,71,81
0.09999999999999432,3428,15,71,84
0.09999999999999432,3429,0,71,63
0.09999999999999432,3429,1,71,64
0.10000000000000853,3429,2,71,59
0.09999999999999432,3429,3,71,42
0.09999999999999432,3429,4,71,43
0.09999999999999432,3429,5,71,109
0.10000000000000853,3429,6,71,110
0.10000000000000853,3429,7,71,31
0.10000000000000853,3429,8,71,50
0.09999999999999432,3429,9,71,89
0.09999999999999432,3429,10,71,99
0.09999999999999432,3429,11,71,106
0.10000000000000853,3429,12,71,78
0.10000000000000853,3429,13,71,54
0.09999999999999432,3429,14,71,117
0.09999999999999432,3429,15,71,97
0.10000000000000853,3430,0,71,65
0.10000000000000853,3430,1,71,116
0.09999999999999432,3430,2,71,86
0.09999999999999432,3430,3,71,77
0.09999999999999432,3430,4,71,122
0.09999999999999432,3430,5,71,86
0.10000000000000853,3430,6,71,83
0.10000000000000853,3430,7,71,80
0.10000000000000853,3430,8,71,83
0.09999999999999432,3430,9,71,118
0.09999999999999432,3430,10,71,76
0.10000000000000853,3430,11,71,121
0.10000000000000853,3430,12,71,68
0.09999999999999432,3430,13,71,82
0.09999999999999432,3430,14,71,127
0.09999999999999432,3430,15,71,102
0.09999999999999432,3431,0,71,91
0.10000000000000853,3431,1,71,94
0.09999999999999432,3431,2,71,54
0.09999999999999432,3431,3,71,118
0.10000000000002274,3431,4,71,73
0.10000000000002274,3431,5,71,36
0.09999999999999432,3431,6,71,86
0.10000000000002274,3431,7,71,78
0.09999999999999432,3431,8,71,82
0.09999999999999432,3431,9,71,115
0.10000000000002274,3431,10,71,76
0.10000000000002274,3431,11,71,78
0.10000000000002274,3431,12,71,88
0.09999999999999432,3431,13,71,21
0.05909090909091219,3431,14,71,79
0.09999999999999432,3431,15,71,126
0.10000000000002274,3432,0,71,79
0.09999999999999432,3432,1,71,22
0.09999999999999432,3432,2,71,88
0.09999999999999432,3432,3,71,99
0.09999999999999432,3432,4,71,119
0.09999999999999432,3432,5,71,77
0.09999999999999432,3432,6,71,68
0.09999999999999432,3432,7,71,120
0.10000000000002274,3432,8,71,99
0.10000000000002274,3432,9,71,110
0.09999999999999432,3432,10,71,78
0.10000000000002274,3432,11,71,97
0.09999999999999432,3432,12,71,80
0.10000000000002274,3432,13,71,93
0.10000000000002274,3432,14,71,107
0.09999999999999432,3432,15,71,79
0.10000000000002274,3433,0,71,76
0.09999999999999432,3433,1,71,114
0.09999999999999432,3433,2,71,111
0.09999999999999432,3433,3,71,118
0.09999999999999432,3433,4,71,75
0.09999999999999432,3433,5,71,81
0.09999999999999432,3433,6,71,54
0.09999999999999432,3433,7,71,95
0.09999999999999432,3433,8,71,5
0.013636363636379656,3433,9,71,7
0.09999999999999432,3433,10,71,54
0.06818181818181301,3433,11,71,75
0.09999999999999432,3433,12,71,127
0.09999999999999432,3433,13,71,45
0.09999999999999432,3433,14,71,127
0.09999999999999432,3433,15,71,116
0.09999999999999432,3434,0,71,90
0.09999999999999432,3434,1,71,73
0.09999999999999432,3434,2,71,127
0.10000000000002274,3434,3,71,75
0.10000000000002274,3434,4,71,127
0.09999999999999432,3434,5,71,124
0.09999999999999432,3434,6,71,100
0.09999999999999432,3434,7,71,111
0.10000000000002274,3434,8,71,93
0.09999999999999432,3434,9,71,120
0.10000000000002274,3434,10,71,112
0.09999999999999432,3434,11,71,40
0.09999999999999432,3434,12,71,109
0.09999999999999432,3434,13,71,127
0.10000000000002274,3434,14,71,82
0.09999999999999432,3434,15,71,127
0.09999999999999432,3435,0,71,79
0.09999999999999432,3435,1,71,95
0.10000000000002274,3435,2,71,127
0.09999999999999432,3435,3,71,93
0.09999999999999432,3435,4,71,100
0.09999999999999432,3435,5,71,113
0.09999999999999432,3435,6,71,119
0.09999999999999432,3435,7,71,116
0.10000000000002274,3435,8,71,120
0.10000000000002274,3435,9,71,56
0.10000000000002274,3435,10,71,108
0.09999999999999432,3435,11,71,77
0.09999999999999432,3435,12,71,125
0.09999999999999432,3435,13,71,83
0.10000000000002274,3435,14,71,127
0.09999999999999432,3435,15,71,4
0.09999999999999432,3436,0,71,92
0.10000000000002274,3436,1,71,85
0.09999999999999432,3436,2,71,75
0.09999999999999432,3436,3,71,72
0.10000000000002274,3436,4,71,100
0.09999999999999432,3436,5,71,86
0.10000000000002274,3436,6,71,96
0.09999999999999432,3436,7,71,78
0.09999999999999432,3436,8,71,89
0.09999999999999432,3436,9,71,122
0.09999999999999432,3436,10,71,74
0.09999999999999432,3436,11,71,70
0.10000000000002274,3436,12,71,93
0.10000000000002274,3436,13,71,85
0.09999999999999432,3436,14,71,103
0.09999999999999432,3436,15,71,85
0.09999999999999432,3437,0,71,88
0.0022727272727252057,3437,1,71,67
0.09999999999999432,3437,2,71,71
0.09999999999999432,3437,3,71,78
0.10000000000002274,3437,4,71,94
0.09999999999999432,3437,5,71,110
0.09999999999999432,3437,6,71,63
0.10000000000002274,3437,7,71,117
0.09999999999999432,3437,8,71,72
0.09999999999999432,3437,9,71,97
0.09999999999999432,3437,10,71,74
0.004545454545450411,3437,11,71,102
0.09999999999999432,3437,12,71,86
0.10000000000002274,3437,13,71,71
0.09999999999999432,3437,14,71,58
0.09999999999999432,3437,15,71,109
0.09999999999999432,3438,0,71,114
0.10000000000002274,3438,1,71,70
0.09999999999999432,3438,2,71,91
0.09999999999999432,3438,3,71,108
0.09999999999999432,3438,4,71,82
0.09999999999999432,3438,5,71,91
0.09999999999999432,3438,6,71,81
0.09999999999999432,3438,7,71,89
0.06818181818181301,3438,8,71,87
0.09999999999999432,3438,9,71,105
0.10000000000002274,3438,10,71,32
0.04772727272728616,3438,11,71,61
0.10000000000002274,3438,12,71,98
0.10000000000002274,3438,13,71,7
0.09999999999999432,3438,14,71,116
0.09999999999999432,3438,15,71,81
0.09999999999999432,3439,0,71,54
0.10000000000002274,3439,1,71,71
0.09999999999999432,3439,2,71,73
0.09999999999999432,3439,3,71,7
0.10000000000002274,3439,4,71,97
0.09999999999999432,3439,5,71,121
0.09999999999999432,3439,6,71,127
0.09999999999999432,3439,7,71,81
0.10000000000002274,3439,8,71,25
0.09999999999999432,3439,9,71,61
0.06818181818181301,3439,10,71,95
0.09999999999999432,3439,11,71,105
0.09999999999999432,3439,12,71,76
0.09999999999999432,3439,13,71,81
0.09999999999999432,3439,14,71,66
0.09999999999999432,3439,15,71,72
0.09999999999999432,3440,0,71,44
0.09999999999999432,3440,1,71,26
0.09999999999999432,3440,2,71,103
0.09999999999999432,3440,3,71,89
0.09999999999999432,3440,4,71,48
0.03636363636363171,3440,5,71,92
0.09999999999999432,3440,6,71,71
0.10000000000002274,3440,7,71,100
0.09999999999999432,3440,8,71,97
0.09999999999999432,3440,9,71,48
0.10000000000002274,3440,10,71,90
0.09999999999999432,3440,11,71,85
0.09999999999999432,3440,12,71,111
0.09999999999999432,3440,13,71,81
0.09999999999999432,3440,14,71,105
0.10000000000002274,3440,15,71,67
0.09999999999999432,3441,0,71,58
0.09999999999999432,3441,1,71,110
0.09999999999999432,3441,2,71,38
0.09999999999999432,3441,3,71,59
0.013636363636351234,3441,4,71,91
0.10000000000002274,3441,5,71,106
0.09999999999999432,3441,6,71,77
0.10000000000002274,3441,7,71,96
0.09999999999999432,3441,8,71,97
0.09999999999999432,3441,9,71,87
0.09999999999999432,3441,10,71,79
0.09999999999999432,3441,11,71,25
0.09999999999999432,3441,12,71,107
0.10000000000002274,3441,13,71,126
0.09999999999999432,3441,14,71,80
0.09999999999999432,3441,15,71,72
0.09999999999999432,3442,0,71,97
0.09999999999999432,3442,1,71,92
0.10000000000002274,3442,2,71,92
0.09999999999999432,3442,3,71,104
0.09999999999999432,3442,4,71,113
0.09999999999999432,3442,5,71,118
0.10000000000002274,3442,6,71,94
0.09999999999999432,3442,7,71,13
0.09999999999999432,3442,8,71,89
0.09999999999999432,3442,9,71,107
0.09999999999999432,3442,10,71,89
0.10000000000002274,3442,11,71,102
0.004545454545478833,3442,12,71,56
0.09999999999999432,3442,13,71,92
0.09999999999999432,3442,14,71,89
0.09999999999999432,3442,15,71,85
0.09999999999999432,3443,0,71,117
0.09999999999999432,3443,1,71,94
0.09999999999999432,3443,2,71,94
0.09999999999999432,3443,3,71,67
0.09999999999999432,3443,4,71,91
0.09999999999999432,3443,5,71,74
0.09999999999999432,3443,6,71,80
0.09999999999999432,3443,7,71,103
0.09999999999999432,3443,8,71,97
0.09999999999999432,3443,9,71,89
0.013636363636379656,3443,10,71,69
0.10000000000002274,3443,11,71,71
0.09999999999999432,3443,12,71,72
0.09999999999999432,3443,13,71,121
0.10000000000002274,3443,14,71,84
0.10000000000002274,3443,15,71,96
0.09999999999999432,3444,0,71,64
0.09999999999999432,3444,1,71,104
0.09999999999999432,3444,2,71,103
0.09999999999999432,3444,3,71,113
0.09999999999999432,3444,4,71,81
0.09999999999999432,3444,5,71,65
0.10000000000002274,3444,6,71,83
0.10000000000002274,3444,7,71,70
0.09999999999999432,3444,8,71,103
0.09999999999999432,3444,9,71,107
0.09999999999999432,3444,10,71,61
0.09999999999999432,3444,11,71,127
0.09999999999999432,3444,12,71,87
0.10000000000002274,3444,13,71,22
0.09999999999999432,3444,14,71,100
0.09999999999999432,3444,15,71,50
0.09999999999999432,3445,0,71,107
0.09999999999999432,3445,1,71,98
0.09999999999999432,3445,2,71,66
0.09999999999999432,3445,3,71,70
0.10000000000002274,3445,4,71,68
0.09999999999999432,3445,5,71,113
0.10000000000002274,3445,6,71,77
0.09999999999999432,3445,7,71,91
0.09999999999999432,3445,8,71,106
0.09999999999999432,3445,9,71,91
0.09999999999999432,3445,10,71,99
0.013636363636351234,3445,11,71,77
0.004545454545450411,3445,12,71,97
0.09999999999999432,3445,13,71,103
0.09999999999999432,3445,14,71,104
0.09999999999999432,3445,15,71,118
0.09999999999999432,3446,0,71,10
0.09999999999999432,3446,1,71,87
0.09999999999999432,3446,2,71,108
0.09999999999999432,3446,3,71,89
0.10000000000002274,3446,4,71,77
0.10000000000002274,3446,5,71,75
0.09999999999999432,3446,6,71,81
0.10000000000002274,3446,7,71,86
0.09999999999999432,3446,8,71,101
0.09999999999999432,3446,9,71,80
0.10000000000002274,3446,10,71,102
0.09999999999999432,3446,11,71,119
0.09999999999999432,3446,12,71,20
0.09999999999999432,3446,13,71,109
0.04545454545456096,3446,14,71,127
0.09999999999999432,3446,15,71,36
0.09999999999999432,3447,0,71,88
0.09999999999999432,3447,1,71,100
0.10000000000002274,3447,2,71,12
0.09999999999999432,3447,3,71,87
0.09999999999999432,3447,4,71,120
0.09999999999999432,3447,5,71,53
0.09999999999999432,3447,6,61,4
0.09999999999999432,3447,7,61,11
0.10000000000002274,3447,8,61,7
0.09999999999999432,3447,9,61,18
0.09999999999999432,3447,10,61,10
0.10000000000002274,3447,11,61,6
0.09999999999999432,3447,12,61,5
0.10000000000002274,3447,13,61,24
0.09999999999999432,3447,14,61,3
0.10000000000002274,3447,15,61,21
0.09999999999999432,3448,0,61,21
0.09999999999999432,3448,1,61,25
0.09999999999999432,3448,2,61,18
0.09999999999999432,3448,3,61,10
0.09999999999999432,3448,4,61,32
0.10000000000002274,3448,5,61,39
0.09999999999999432,3448,6,61,17
0.10000000000002274,3448,7,61,23
0.025000000000005684,3448,8,61,27
0.09999999999999432,3448,9,61,13
0.10000000000002274,3448,10,61,27
0.09999999999999432,3448,11,61,6
0.09999999999999432,3448,12,61,2
0.09999999999999432,3448,13,61,6
0.09999999999999432,3448,14,61,10
0.09999999999999432,3448,15,61,10
0.09999999999999432,3449,0,61,9
0.09999999999999432,3449,1,61,11
0.09999999999999432,3449,2,61,21
0.09999999999999432,3449,3,61,33
0.09999999999999432,3449,4,61,9
0.10000000000000142,3449,5,55,39
0.09999999999999787,3449,6,55,89
0.09999999999999787,3449,7,55,71
0.09999999999999787,3449,8,55,84
0.09999999999999787,3449,9,55,77
0.10000000000000142,3449,10,55,59
0.10000000000000142,3449,11,55,86
0.09999999999999787,3449,12,55,53
0.10000000000000142,3449,13,55,65
0.10000000000000142,3449,14,55,68
0.10000000000000142,3449,15,55,91
0.10000000000000142,3450,0,55,65
0.05681818181818343,3450,1,55,78
0.09999999999999787,3450,2,55,71
0.09999999999999787,3450,3,55,52
0.09999999999999787,3450,4,55,53
0.09999999999999787,3450,5,55,81
0.10000000000000142,3450,6,55,63
0.10000000000000142,3450,7,55,71
0.09999999999999787,3450,8,55,68
0.04772727272727195,3450,9,55,73
0.09999999999999787,3450,10,55,60
0.10000000000000142,3450,11,55,62
0.09999999999999432,3450,12,55,78
0.10000000000000142,3450,13,55,81
0.10000000000000142,3450,14,55,43
0.09999999999999432,3450,15,55,63
0.09999999999999432,3451,0,55,68
0.10000000000000142,3451,1,55,62
0.09999999999999432,3451,2,55,62
0.10000000000000142,3451,3,55,72
0.10000000000000142,3451,4,55,52
0.10000000000000142,3451,5,55,60
0.09999999999999432,3451,6,55,68
0.10000000000000142,3451,7,55,45
0.10000000000000142,3451,8,55,67
0.10000000000000142,3451,9,55,48
0.10000000000000142,3451,10,55,55
0.10000000000000142,3451,11,55,58
0.056818181818186986,3451,12,55,55
0.10000000000000142,3451,13,55,74
0.09999999999999432,3451,14,55,42
0.10000000000000142,3451,15,55,57
0.10000000000000142,3452,0,55,52
0.10000000000000142,3452,1,55,65
0.09999999999999432,3452,2,55,63
0.09999999999999432,3452,3,55,73
0.10000000000000142,3452,4,55,64
0.10000000000000142,3452,5,55,45
0.10000000000000142,3452,6,55,52
0.09999999999999432,3452,7,55,51
0.10000000000000142,3452,8,55,74
0.10000000000000142,3452,9,55,89
0.10000000000000142,3452,10,55,72
0.10000000000000142,3452,11,55,62
0.10000000000000142,3452,12,55,76
0.10000000000000142,3452,13,55,64
0.10000000000000142,3452,14,55,57
0.10000000000000142,3452,15,55,67
0.10000000000000142,3453,0,55,63
0.10000000000000142,3453,1,55,61
0.10000000000000142,3453,2,55,78
0.10000000000000142,3453,3,55,56
0.09999999999999432,3453,4,55,48
0.09999999999999432,3453,5,55,56
0.09999999999999432,3453,6,55,64
0.09999999999999432,3453,7,55,60
0.10000000000000142,3453,8,55,70
0.10000000000000142,3453,9,55,59
0.10000000000000142,3453,10,55,75
0.09999999999999432,3453,11,55,46
0.10000000000000142,3453,12,55,81
0.09999999999999432,3453,13,55,68
0.10000000000000142,3453,14,55,77
0.10000000000000142,3453,15,55,57
0.09999999999999432,3454,0,55,71
0.09999999999999432,3454,1,55,85
0.10000000000000142,3454,2,55,65
0.10000000000000142,3454,3,55,65
0.10000000000000142,3454,4,55,82
0.10000000000000142,3454,5,55,79
0.10000000000000142,3454,6,55,71
0.10000000000000142,3454,7,55,63
0.10000000000000142,3454,8,55,65
0.09999999999999432,3454,9,55,53
0.09999999999999432,3454,10,55,74
0.10000000000000142,3454,11,55,58
0.10000000000000142,3454,12,55,75
0.10000000000000142,3454,13,55,62
0.09999999999999432,3454,14,55,92
0.10000000000000142,3454,15,55,73
0.09999999999999432,3455,0,55,56
0.09999999999999432,3455,1,55,69
0.10000000000000142,3455,2,55,51
0.10000000000000142,3455,3,55,45
0.10000000000000142,3455,4,55,47
0.09999999999999432,3455,5,55,44
0.10000000000000853,3455,6,55,61
0.10000000000000853,3455,7,55,52
0.09999999999999432,3455,8,55,48
0.10000000000000853,3455,9,55,55
0.09999999999999432,3455,10,55,60
0.09999999999999432,3455,11,55,52
0.09999999999999432,3455,12,55,36
0.09999999999999432,3455,13,55,59
0.09999999999999432,3455,14,55,56
0.09999999999999432,3455,15,55,55
0.09999999999999432,3456,0,55,31
0.09999999999999432,3456,1,55,48
0.09999999999999432,3456,2,55,42
0.10000000000000853,3456,3,55,60
0.10000000000000853,3456,4,55,67
0.10000000000000853,3456,5,55,67
0.09999999999999432,3456,6,55,64
0.10000000000000853,3456,7,55,41
0.09999999999999432,3456,8,55,67
0.09999999999999432,3456,9,55,39
0.09999999999999432,3456,10,55,51
0.10000000000000853,3456,11,55,48
0.10000000000000853,3456,12,55,35
0.09999999999999432,3456,13,55,49
0.10000000000000853,3456,14,55,65
0.09999999999999432,3456,15,55,49
0.10000000000000853,3457,0,55,64
0.09999999999999432,3457,1,55,41
0.10000000000000853,3457,2,55,36
0.09999999999999432,3457,3,55,69
0.09999999999999432,3457,4,55,65
0.09999999999999432,3457,5,55,42
0.10000000000000853,3457,6,55,57
0.09999999999999432,3457,7,55,45
0.09999999999999432,3457,8,55,64
0.09999999999999432,3457,9,55,51
0.09999999999999432,3457,10,55,65
0.09999999999999432,3457,11,55,25
0.09999999999999432,3457,12,55,39
0.09999999999999432,3457,13,55,40
0.09999999999999432,3457,14,55,41
0.09999999999999432,3457,15,55,34
0.09999999999999432,3458,0,55,44
0.09999999999999432,3458,1,55,28
0.10000000000000853,3458,2,55,58
0.10000000000000853,3458,3,55,32
0.09999999999999432,3458,4,55,48
0.10000000000000853,3458,5,55,37
0.10000000000000853,3458,6,55,39
0.10000000000000853,3458,7,55,21
0.10000000000000853,3458,8,55,57
0.09999999999999432,3458,9,55,40
0.10000000000000853,3458,10,55,51
0.09999999999999432,3458,11,55,22
0.09999999999999432,3458,12,55,29
0.09999999999999432,3458,13,55,40
0.004545454545450411,3458,14,55,27
0.10000000000002274,3458,15,55,30
0.09999999999999432,3459,0,55,28
0.056818181818186986,3459,1,55,33
0.09999999999999432,3459,2,55,29
0.09999999999999432,3459,3,55,24
0.06818181818181301,3459,4,55,33
0.09999999999999432,3459,5,55,35
0.09999999999999432,3459,6,55,28
0.056818181818186986,3459,7,55,29
0.09999999999999432,3459,8,55,35
0.09999999999999432,3459,9,55,27
0.06818181818181301,3459,10,55,33
0.10000000000002274,3459,11,55,32
0.09999999999999432,3459,12,55,36
0.01590909090910486,3459,13,55,22
0.06818181818184144,3459,14,55,39
0.10000000000002274,3459,15,55,27
0.09999999999999432,3460,0,55,33
0.09999999999999432,3460,1,55,35
0.09999999999999432,3460,2,55,31
0.06818181818181301,3460,3,55,34
0.10000000000002274,3460,4,55,27
0.09999999999999432,3460,5,55,27
0.09999999999999432,3460,6,55,34
0.09999999999999432,3460,7,55,23
0.10000000000002274,3460,8,55,35
0.09999999999999432,3460,9,55,28
0.10000000000002274,3460,10,55,35
0.09999999999999432,3460,11,55,32
0.09999999999999432,3460,12,55,39
0.10000000000002274,3460,13,55,37
0.09999999999999432,3460,14,55,35
0.09999999999999432,3460,15,55,30
0.10000000000002274,3461,0,55,34
0.09999999999999432,3461,1,55,19
0.10000000000002274,3461,2,55,24
0.10000000000002274,3461,3,55,23
0.09999999999999432,3461,4,55,23
0.09999999999999432,3461,5,55,30
0.09999999999999432,3461,6,55,27
0.09999999999999432,3461,7,55,30
0.09999999999999432,3461,8,55,31
0.09999999999999432,3461,9,55,29
0.09999999999999432,3461,10,55,29
0.09999999999999432,3461,11,55,31
0.10000000000002274,3461,12,55,31
0.09999999999999432,3461,13,55,28
0.09999999999999432,3461,14,55,31
0.10000000000002274,3461,15,55,51
0.09999999999999432,3462,0,55,48
0.09999999999999432,3462,1,55,48
0.09999999999999432,3462,2,55,29
0.10000000000000142,3462,3,97,127
0.10000000000000142,3462,4,97,77
0.10000000000000142,3462,5,97,127
0.10000000000000142,3462,6,97,127
0.09999999999999787,3462,7,97,62
0.10000000000000142,3462,8,97,89
0.10000000000000142,3462,9,97,99
0.10000000000000142,3462,10,97,127
0.10000000000000142,3462,11,97,55
0.09999999999999787,3462,12,97,67
0.10000000000000142,3462,13,97,125
0.09999999999999787,3462,14,97,127
0.10000000000000142,3462,15,97,60
0.09999999999999787,3463,0,97,93
0.10000000000000142,3463,1,97,52
0.013636363636365445,3463,2,97,28
0.036363636363635266,3463,3,97,127
0.10000000000000142,3463,4,97,57
0.10000000000000142,3463,5,97,67
0.10000000000000142,3463,6,97,107
0.09999999999999787,3463,7,97,127
0.10000000000000142,3463,8,97,75
0.004545454545453964,3463,9,97,27
0.04772727272727195,3463,10,97,80
0.09999999999999787,3463,11,97,74
0.10000000000000142,3463,12,97,127
0.10000000000000142,3463,13,97,38
0.09999999999999787,3463,14,97,99
0.10000000000000142,3463,15,97,127
0.10000000000000142,3464,0,97,57
0.09999999999999787,3464,1,97,37
0.09999999999999787,3464,2,97,127
0.10000000000000142,3464,3,97,78
0.10000000000000142,3464,4,97,57
0.10000000000000142,3464,5,97,97
0.09999999999999787,3464,6,97,127
0.10000000000000142,3464,7,97,31
0.09999999999999787,3464,8,97,47
0.10000000000000142,3464,9,97,19
0.09999999999999787,3464,10,97,127
0.09999999999999787,3464,11,97,23
0.10000000000000142,3464,12,97,79
0.09999999999999787,3464,13,97,127
0.10000000000000142,3464,14,97,33
0.10000000000000142,3464,15,97,46
0.10000000000000142,3465,0,97,16
0.09999999999999787,3465,1,97,127
0.10000000000000142,3465,2,97,11
0.10000000000000142,3465,3,97,87
0.10000000000000142,3465,4,97,127
0.10000000000000142,3465,5,97,32
0.10000000000000142,3465,6,97,51
0.10000000000000142,3465,7,97,127
0.10000000000000142,3465,8,97,20
0.10000000000000142,3465,9,97,72
0.09999999999999432,3465,10,97,127
0.10000000000000142,3465,11,97,35
0.10000000000000142,3465,12,97,57
0.10000000000000142,3465,13,97,29
0.10000000000000142,3465,14,97,127
0.10000000000000142,3465,15,97,33
0.10000000000000142,3466,0,97,23
0.10000000000000142,3466,1,97,86
0.10000000000000142,3466,2,97,127
0.09999999999999432,3466,3,97,34
0.10000000000000142,3466,4,97,47
0.10000000000000142,3466,5,97,12
0.10000000000000142,3466,6,97,127
0.10000000000000142,3466,7,97,23
0.09999999999999432,3466,8,97,69
0.10000000000000142,3466,9,97,127
0.10000000000000142,3466,10,97,35
0.10000000000000142,3466,11,97,50
0.10000000000000142,3466,12,97,18
0.10000000000000142,3466,13,97,127
0.10000000000000142,3466,14,97,20
0.10000000000000142,3466,15,97,85
0.10000000000000142,3467,0,97,127
0.10000000000000142,3467,1,97,32
0.09999999999999432,3467,2,97,45
0.10000000000000142,3467,3,97,20
0.10000000000000142,3467,4,97,127
0.10000000000000142,3467,5,97,22
0.10000000000000142,3467,6,97,66
0.09999999999999432,3467,7,97,127
0.10000000000000142,3467,8,97,33
0.10000000000000142,3467,9,97,43
0.10000000000000142,3467,10,97,16
0.09999999999999432,3467,11,97,127
0.10000000000000142,3467,12,97,35
0.09999999999999432,3467,13,97,21
0.10000000000000142,3467,14,97,89
0.10000000000000142,3467,15,97,127
0.10000000000000142,3468,0,97,31
0.09999999999999432,3468,1,97,56
0.10000000000000142,3468,2,97,14
0.10000000000000142,3468,3,97,127
0.10000000000000142,3468,4,97,22
0.10000000000000142,3468,5,97,82
0.10000000000000142,3468,6,97,127
0.10000000000000142,3468,7,97,35
0.10000000000000142,3468,8,97,59
0.09999999999999432,3468,9,97,13
0.10000000000000142,3468,10,97,127
0.10000000000000142,3468,11,97,29
0.10000000000000142,3468,12,97,94
0.10000000000000142,3468,13,97,127
0.09999999999999432,3468,14,97,32
0.10000000000000142,3468,15,97,57
0.10000000000000142,3469,0,97,14
0.10000000000000142,3469,1,97,127
0.10000000000000142,3469,2,97,22
0.10000000000000142,3469,3,97,84
0.10000000000000142,3469,4,97,127
0.10000000000000142,3469,5,97,34
0.10000000000000142,3469,6,97,63
0.10000000000000142,3469,7,97,24
0.09999999999999432,3469,8,97,127
0.10000000000000142,3469,9,97,25
0.10000000000000142,3469,10,97,30
0.10000000000000142,3469,11,97,88
0.09999999999999432,3469,12,97,127
0.10000000000000142,3469,13,97,37
0.09999999999999432,3469,14,97,43
0.10000000000000142,3469,15,97,28
0.09999999999999432,3470,0,97,127
0.10000000000000142,3470,1,97,127
0.10000000000000142,3470,2,97,127
0.09999999999999432,3470,3,97,127
0.10000000000000142,3470,4,97,33
0.10000000000000142,3470,5,97,31
0.09999999999999432,3470,6,97,127
0.10000000000000142,3470,7,97,21
0.10000000000000142,3470,8,97,127
0.10000000000000142,3470,9,97,40
0.10000000000000142,3470,10,97,25
0.10000000000000142,3470,11,97,20
0.10000000000000142,3470,12,97,127
0.09999999999999432,3470,13,97,33
0.10000000000000142,3470,14,97,17
0.10000000000000142,3470,15,97,127
0.09999999999999432,3471,0,97,36
0.10000000000000142,3471,1,97,19
0.10000000000000142,3471,2,97,27
0.10000000000000142,3471,3,97,127
0.10000000000000142,3471,4,97,39
0.10000000000000142,3471,5,97,25
0.10000000000000142,3471,6,97,127
0.10000000000000142,3471,7,97,22
0.10000000000000142,3471,8,97,25
0.10000000000000142,3471,9,97,127
0.10000000000000142,3471,10,97,26
0.10000000000000142,3471,11,97,11
0.10000000000000142,3471,12,97,127
0.10000000000000142,3471,13,97,11
0.09999999999999432,3471,14,97,127
0.10000000000000142,3471,15,97,11
0.10000000000000142,3472,0,97,127
0.10000000000000142,3472,1,97,19
0.10000000000000142,3472,2,97,11
0.10000000000000142,3472,3,97,124
0.10000000000000142,3472,4,97,11
0.10000000000000142,3472,5,97,127
0.10000000000000142,3472,6,97,10
0.10000000000000142,3472,7,97,123
0.10000000000000142,3472,8,97,10
0.10000000000000142,3472,9,97,127
0.10000000000000142,3472,10,97,58
0.09999999999999432,3472,11,97,53
0.10000000000000853,3472,12,97,127
0.10000000000000853,3472,13,97,12
0.10000000000000853,3472,14,97,127
0.10000000000000853,3472,15,97,10
0.10000000000000853,3473,0,97,127
0.10000000000000853,3473,1,97,11
0.10000000000000853,3473,2,97,127
0.10000000000000853,3473,3,97,11
0.10000000000000853,3473,4,97,127
0.10000000000000853,3473,5,97,10
0.10000000000000853,3473,6,97,127
0.10000000000000853,3473,7,97,18
0.10000000000000853,3473,8,97,11
0.10000000000000853,3473,9,97,127
0.09999999999999432,3473,10,97,12
0.10000000000000853,3473,11,97,127
0.09999999999999432,3473,12,97,12
0.09999999999999432,3473,13,97,127
0.10000000000000853,3473,14,97,12
0.10000000000000853,3473,15,97,127
0.09999999999999432,3474,0,97,10
0.10000000000000853,3474,1,97,122
0.09999999999999432,3474,2,97,11
0.09999999999999432,3474,3,97,127
0.10000000000000853,3474,4,97,41
0.09999999999999432,3474,5,97,60
0.10000000000000853,3474,6,97,74
0.09999999999999432,3474,7,97,127
0.09999999999999432,3474,8,97,127
0.09999999999999432,3474,9,97,13
0.09999999999999432,3474,10,97,127
0.09999999999999432,3474,11,97,11
0.10000000000000853,3474,12,97,127
0.09999999999999432,3474,13,97,16
0.09999999999999432,3474,14,97,8
0.09999999999999432,3474,15,97,127
0.09999999999999432,3475,0,97,12
0.09999999999999432,3475,1,97,127
0.09999999999999432,3475,2,97,11
0.09999999999999432,3475,3,97,127
0.09999999999999432,3475,4,97,11
0.09999999999999432,3475,5,97,127
0.09999999999999432,3475,6,97,12
0.09999999999999432,3475,7,97,127
0.09999999999999432,3475,8,97,11
0.09999999999999432,3475,9,97,127
0.09999999999999432,3475,10,97,17
0.09999999999999432,3475,11,97,11
0.09999999999999432,3475,12,97,127
0.09999999999999432,3475,13,97,11
0.09999999999999432,3475,14,97,127
0.10000000000000853,3475,15,97,11
0.09999999999999432,3476,0,97,127
0.09999999999999432,3476,1,97,11
0.10000000000000853,3476,2,97,127
0.10000000000000853,3476,3,97,11
0.10000000000000853,3476,4,97,127
0.09999999999999432,3476,5,97,11
0.09999999999999432,3476,6,97,127
0.10000000000000853,3476,7,97,59
0.09999999999999432,3476,8,97,60
0.09999999999999432,3476,9,97,127
0.09999999999999432,3476,10,97,127
0.10000000000000853,3476,11,97,13
0.10000000000000853,3476,12,97,127
0.10000000000000853,3476,13,97,11
0.10000000000000853,3476,14,97,127
0.10000000000000853,3476,15,97,11
0.10000000000000853,3477,0,97,127
0.10000000000000853,3477,1,97,11
0.10000000000000853,3477,2,97,127
0.10000000000000853,3477,3,97,16
0.10000000000000853,3477,4,97,10
0.10000000000000853,3477,5,97,127
0.10000000000000853,3477,6,97,11
0.10000000000000853,3477,7,97,127
0.09999999999999432,3477,8,97,12
0.10000000000000853,3477,9,97,127
0.10000000000000853,3477,10,97,11
0.10000000000000853,3477,11,97,127
0.10000000000000853,3477,12,97,11
0.10000000000000853,3477,13,97,127
0.09999999999999432,3477,14,97,11
0.10000000000000853,3477,15,97,127
0.09999999999999432,3478,0,97,18
0.09999999999999432,3478,1,97,10
0.10000000000000853,3478,2,97,127
0.09999999999999432,3478,3,97,11
0.09999999999999432,3478,4,97,127
0.09999999999999432,3478,5,97,12
0.09999999999999432,3478,6,97,115
0.09999999999999432,3478,7,97,61
0.09999999999999432,3478,8,97,17
0.10000000000000853,3478,9,97,124
0.10000000000000853,3478,10,97,58
0.09999999999999432,3478,11,97,25
0.09999999999999432,3478,12,97,61
0.09999999999999432,3478,13,97,127
0.10000000000000853,3478,14,97,127
0.10000000000000853,3478,15,97,127
0.10000000000000853,3479,0,97,127
0.10000000000000853,3479,1,97,127
0.09999999999999432,3479,2,97,122
0.10000000000000853,3479,3,97,127
0.10000000000000853,3479,4,97,126
0.10000000000000853,3479,5,97,127
0.10000000000000853,3479,6,97,127
0.09999999999999432,3479,7,97,127
0.10000000000000853,3479,8,97,127
0.09999999999999432,3479,9,97,127
0.09999999999999432,3479,10,97,127
0.09999999999999432,3479,11,97,127
0.10000000000000853,3479,12,97,127
0.09999999999999432,3479,13,97,127
0.09999999999999432,3479,14,97,9
0.09999999999999432,3479,15,97,127
0.09999999999999432,3480,0,97,8
0.09999999999999432,3480,1,97,2
0.09999999999999432,3480,2,97,127
0.09999999999999432,3480,3,97,7
0.09999999999999432,3480,4,97,2
0.09999999999999432,3480,5,97,127
0.09999999999999432,3480,6,97,9
0.09999999999999432,3480,7,97,8
0.10000000000000853,3480,8,97,1
0.09999999999999432,3480,9,97,127
0.09999999999999432,3480,10,97,9
0.09999999999999432,3480,11,97,2
0.09999999999999432,3480,12,97,124
0.09999999999999432,3480,13,97,11
0.09999999999999432,3480,14,97,8
0.09999999999999432,3480,15,97,2
0.09999999999999432,3481,0,97,127
0.09999999999999432,3481,1,97,8
0.09999999999999432,3481,2,97,1
0.09999999999999432,3481,3,97,127
0.09999999999999432,3481,4,97,8
0.10000000000000853,3481,5,97,5
0.09999999999999432,3481,6,97,1
0.09999999999999432,3481,7,97,127
0.10000000000000853,3481,8,97,8
0.09999999999999432,3481,9,97,1
0.10000000000000853,3481,10,97,125
0.09999999999999432,3481,11,97,8
0.09999999999999432,3481,12,97,8
0.09999999999999432,3481,13,97,1
0.09999999999999432,3481,14,97,127
0.10000000000000853,3481,15,97,8
0.09999999999999432,3482,0,97,1
0.09999999999999432,3482,1,97,124
0.09999999999999432,3482,2,97,11
0.10000000000000853,3482,3,97,9
0.09999999999999432,3482,4,97,1
0.09999999999999432,3482,5,97,125
0.10000000000000853,3482,6,97,9
0.10000000000000853,3482,7,97,2
0.09999999999999432,3482,8,97,127
0.09999999999999432,3482,9,97,67
0.10000000000000853,3482,10,97,13
0.09999999999999432,3482,11,97,27
0.10000000000000853,3482,12,97,127
0.10000000000002274,3482,13,97,127
0.09999999999999432,3482,14,97,127
0.09999999999999432,3482,15,97,127
0.10000000000002274,3483,0,97,127
0.09999999999999432,3483,1,97,127
0.10000000000002274,3483,2,97,127
0.09999999999999432,3483,3,97,127
0.09999999999999432,3483,4,97,127
0.10000000000002274,3483,5,97,127
0.09999999999999432,3483,6,97,127
0.09999999999999432,3483,7,97,127
0.09999999999999432,3483,8,97,127
0.09999999999999432,3483,9,97,127
0.10000000000002274,3483,10,97,127
0.09999999999999432,3483,11,97,127
0.09999999999999432,3483,12,97,127
0.09999999999999432,3483,13,97,127
0.09999999999999432,3483,14,97,127
0.10000000000002274,3483,15,97,4
0.09999999999999432,3484,0,97,3
0.09999999999999432,3484,1,97,103
0.09999999999999432,3484,2,97,3
0.09999999999999432,3484,3,97,3
0.09999999999999432,3484,4,97,127
0.09999999999999432,3484,5,97,3
0.09999999999999432,3484,6,97,3
0.09999999999999432,3484,7,97,127
0.10000000000002274,3484,8,97,3
0.09999999999999432,3484,9,97,3
0.09999999999999432,3484,10,97,127
0.09999999999999432,3484,11,97,3
0.09999999999999432,3484,12,97,3
0.09999999999999432,3484,13,97,127
0.10000000000002274,3484,14,97,3
0.09999999999999432,3484,15,97,3
0.09999999999999432,3485,0,97,127
0.09999999999999432,3485,1,97,3
0.09999999999999432,3485,2,97,3
0.09999999999999432,3485,3,97,127
0.09999999999999432,3485,4,97,2
0.09999999999999432,3485,5,97,127
0.09999999999999432,3485,6,97,5
0.10000000000002274,3485,7,97,3
0.09999999999999432,3485,8,97,127
0.09999999999999432,3485,9,97,3
0.09999999999999432,3485,10,97,2
0.10000000000002274,3485,11,97,127
0.09999999999999432,3485,12,97,5
0.10000000000002274,3485,13,97,3
0.09999999999999432,3485,14,97,3
0.09999999999999432,3485,15,97,127
0.09999999999999432,3486,0,97,3
0.09999999999999432,3486,1,97,3
0.09999999999999432,3486,2,97,127
0.09999999999999432,3486,3,97,3
0.09999999999999432,3486,4,97,3
0.10000000000002274,3486,5,97,127
0.09999999999999432,3486,6,97,57
0.09999999999999432,3486,7,97,58
0.09999999999999432,3486,8,97,127
0.09999999999999432,3486,9,97,127
0.09999999999999432,3486,10,97,127
0.10000000000002274,3486,11,97,1
0.09999999999999432,3486,12,97,116
0.10000000000002274,3486,13,97,120
0.09999999999999432,3486,14,97,125
0.10000000000002274,3486,15,97,127
0.10000000000002274,3487,0,97,122
0.09999999999999432,3487,1,97,127
0.09999999999999432,3487,2,97,1
0.10000000000002274,3487,3,97,127
0.09999999999999432,3487,4,97,127
0.09999999999999432,3487,5,97,2
0.09999999999999432,3487,6,97,127
0.09999999999999432,3487,7,97,61
0.09999999999999432,3487,8,97,67
0.09999999999999432,3487,9,97,127
0.10000000000002274,3487,10,97,61
0.09999999999999432,3487,11,97,2
0.10000000000002274,3487,12,97,1
0.09999999999999432,3487,13,97,127
0.09999999999999432,3487,14,97,1
0.09999999999999432,3487,15,97,127
0.09999999999999432,3488,0,97,68
0.09999999999999432,3488,1,97,5
0.09999999999999432,3488,2,97,127
0.10000000000002274,3488,3,97,54
0.09999999999999432,3488,4,97,53
0.10000000000002274,3488,5,97,56
0.10000000000002274,3488,6,97,127
0.09999999999999432,3488,7,97,2
0.09999999999999432,3488,8,97,1
0.10000000000002274,3488,9,97,1
0.09999999999999432,3488,10,97,1
0.10000000000002274,3488,11,97,1
0.09999999999999432,3488,12,97,2
0.09999999999999432,3488,13,97,127
0.09999999999999432,3488,14,97,2
0.09999999999999432,3488,15,97,2
0.09999999999999432,3489,0,97,2
0.09999999999999432,3489,1,97,1
0.09999999999999432,3489,2,97,3
0.09999999999999432,3489,3,97,127
0.09999999999999432,3489,4,97,2
0.10000000000002274,3489,5,97,5
0.09999999999999432,3489,6,97,2
0.09999999999999432,3489,7,97,2
0.09999999999999432,3489,8,97,7
0.09999999999999432,3489,9,97,127
0.10000000000002274,3489,10,97,127
0.09999999999999432,3489,11,97,127
0.09999999999999432,3489,12,97,127
0.09999999999999432,3489,13,97,127
0.09999999999999432,3489,14,97,127
0.10000000000002274,3489,15,97,127
0.09999999999999432,3490,0,97,127
0.09999999999999432,3490,1,97,125
0.09999999999999432,3490,2,97,127
0.09999999999999432,3490,3,97,127
0.09999999999999432,3490,4,97,127
0.09999999999999432,3490,5,97,54
0.09999999999999432,3490,6,97,46
0.10000000000000142,3490,7,61,21
0.10000000000000142,3490,8,61,47
0.10000000000000142,3490,9,61,17
0.09999999999999787,3490,10,61,38
0.04772727272727195,3490,11,61,31
0.10000000000000142,3490,12,61,31
0.05681818181817988,3490,13,61,28
0.09999999999999787,3490,14,61,37
0.10000000000000142,3490,15,61,43
0.05909090909090864,3491,0,61,42
0.10000000000000142,3491,1,61,54
0.10000000000000142,3491,2,61,27
0.10000000000000142,3491,3,61,47
0.09999999999999787,3491,4,61,32
0.10000000000000142,3491,5,61,46
0.047727272727275505,3491,6,61,43
0.09999999999999787,3491,7,61,31
0.045454545454543194,3491,8,61,26
0.01590909090909065,3491,9,61,36
0.09999999999999787,3491,10,61,37
0.10000000000000142,3491,11,61,43
0.10000000000000142,3491,12,61,22
0.04772727272727195,3491,13,61,25
0.10000000000000142,3491,14,61,56
0.10000000000000142,3491,15,61,28
0.10000000000000142,3492,0,61,44
0.09999999999999787,3492,1,61,38
0.10000000000000142,3492,2,61,62
0.09999999999999787,3492,3,61,58
0.10000000000000142,3492,4,61,64
0.004545454545453964,3492,5,61,27
0.09999999999999787,3492,6,61,5
0.10000000000000142,3492,7,61,11
0.10000000000000142,3492,8,61,16
0.10000000000000142,3492,9,61,5
0.09999999999999787,3492,10,61,15
0.09999999999999787,3492,11,61,8
0.10000000000000142,3492,12,61,17
0.10000000000000142,3492,13,61,6
0.10000000000000142,3492,14,61,19
0.09999999999999787,3492,15,61,13
0.05681818181817988,3493,0,61,8
0.09999999999999987,3493,1,58,41
0.10000000000000009,3493,2,58,46
0.09999999999999964,3493,3,58,49
0.09999999999999964,3493,4,58,42
0.09999999999999964,3493,5,58,33
0.09999999999999964,3493,6,58,35
0.09999999999999964,3493,7,58,40
0.10000000000000053,3493,8,58,30
0.09999999999999964,3493,9,58,35
0.10000000000000053,3493,10,58,50
0.09999999999999964,3493,11,58,36
0.09999999999999964,3493,12,58,46
0.09999999999999964,3493,13,58,48
0.09999999999999964,3493,14,58,26
0.09999999999999964,3493,15,58,53
0.09999999999999964,3494,0,58,29
0.10000000000000142,3494,1,58,26
0.10000000000000142,3494,2,58,32
0.09999999999999964,3494,3,58,41
0.09999999999999964,3494,4,58,51
0.10000000000000142,3494,5,58,59
0.09999999999999964,3494,6,58,32
0.09999999999999964,3494,7,58,47
0.09999999999999964,3494,8,58,43
0.10000000000000142,3494,9,58,39
0.10000000000000142,3494,10,58,53
0.10000000000000142,3494,11,58,42
0.10000000000000142,3494,12,58,29
0.10000000000000142,3494,13,58,37
0.09999999999999787,3494,14,58,29
0.10000000000000142,3494,15,58,32
0.09999999999999787,3495,0,58,28
0.09999999999999787,3495,1,58,30
0.10000000000000142,3495,2,58,18
0.09999999999999787,3495,3,58,19
0.09999999999999787,3495,4,58,29
0.09999999999999787,3495,5,58,19
0.10000000000000142,3495,6,58,30
0.09999999999999787,3495,7,58,20
0.10000000000000142,3495,8,58,38
0.10000000000000142,3495,9,58,24
0.05681818181818343,3495,10,58,18
0.10000000000000142,3495,11,58,21
0.10000000000000142,3495,12,58,18
0.10000000000000142,3495,13,58,30
0.09999999999999787,3495,14,58,16
0.10000000000000142,3495,15,58,23
0.09999999999999787,3496,0,58,16
0.10000000000000142,3496,1,58,18
0.09999999999999787,3496,2,58,31
0.10000000000000142,3496,3,58,26
0.09999999999999787,3496,4,58,24
0.09999999999999787,3496,5,58,26
0.09999999999999787,3496,6,58,23
0.10000000000000142,3496,7,58,25
0.10000000000000142,3496,8,58,20
0.10000000000000142,3496,9,58,19
0.09999999999999787,3496,10,58,23
0.10000000000000142,3496,11,58,33
0.10000000000000142,3496,12,58,23
0.10000000000000142,3496,13,58,27
0.10000000000000142,3496,14,58,18
0.10000000000000142,3496,15,58,28
0.09999999999999432,3497,0,58,28
0.10000000000000142,3497,1,58,21
0.10000000000000142,3497,2,58,29
0.10000000000000142,3497,3,58,22
0.09999999999999432,3497,4,58,20
0.09999999999999432,3497,5,58,24
0.10000000000000142,3497,6,58,14
0.10000000000000142,3497,7,58,22
0.10000000000000142,3497,8,58,24
0.10000000000000142,3497,9,58,18
0.10000000000000142,3497,10,58,28
0.10000000000000142,3497,11,58,30
0.10000000000000142,3497,12,58,32
0.10000000000000142,3497,13,58,20
0.10000000000000142,3497,14,58,45
0.10000000000000142,3497,15,58,39
0.10000000000000142,3498,0,58,30
0.09999999999999432,3498,1,58,27
0.10000000000000142,3498,2,58,19
0.10000000000000142,3498,3,58,23
0.10000000000000142,3498,4,58,35
0.10000000000000142,3498,5,58,22
0.10000000000000142,3498,6,58,23
0.10000000000000142,3498,7,58,22
0.10000000000000142,3498,8,58,18
0.09999999999999432,3498,9,58,26
0.10000000000000142,3498,10,58,42
0.10000000000000142,3498,11,58,39
0.10000000000000142,3498,12,58,31
0.10000000000000142,3498,13,58,27
0.10000000000000142,3498,14,58,26
0.09999999999999432,3498,15,58,19
0.05681818181817988,3499,0,58,25
0.10000000000000142,3499,1,58,38
0.10000000000000142,3499,2,58,39
0.10000000000000142,3499,3,58,26
0.09999999999999432,3499,4,58,22
0.10000000000000142,3499,5,58,41
0.10000000000000142,3499,6,58,29
0.10000000000000142,3499,7,58,33
0.10000000000000142,3499,8,58,37
0.10000000000000142,3499,9,58,24
0.09999999999999432,3499,10,58,30
0.10000000000000142,3499,11,58,31
0.10000000000000142,3499,12,58,20
0.10000000000000142,3499,13,58,15
0.10000000000000142,3499,14,58,25
0.10000000000000142,3499,15,58,26
0.10000000000000142,3500,0,58,20
0.10000000000000142,3500,1,58,20
0.09999999999999432,3500,2,58,20
0.10000000000000142,3500,3,58,20
0.10000000000000142,3500,4,58,19
0.09999999999999432,3500,5,58,21
0.10000000000000142,3500,6,58,17
0.10000000000000142,3500,7,58,27
0.10000000000000142,3500,8,58,21
0.10000000000000142,3500,9,58,44
0.10000000000000142,3500,10,58,28
0.10000000000000142,3500,11,58,34
0.10000000000000142,3500,12,58,30
0.10000000000000142,3500,13,58,36
0.10000000000000142,3500,14,58,28
0.10000000000000142,3500,15,58,33
0.10000000000000142,3501,0,58,26
0.10000000000000142,3501,1,58,22
0.10000000000000142,3501,2,58,20
0.10000000000000142,3501,3,58,23
0.10000000000000142,3501,4,58,31
0.09999999999999432,3501,5,58,25
0.10000000000000142,3501,6,58,29
0.10000000000000142,3501,7,58,24
0.10000000000000142,3501,8,58,37
0.10000000000000142,3501,9,58,35
0.10000000000000142,3501,10,58,25
0.10000000000000142,3501,11,58,25
0.10000000000000142,3501,12,58,33
0.10000000000000142,3501,13,58,35
0.10000000000000142,3501,14,58,20
0.09999999999999432,3501,15,58,30
0.09999999999999432,3502,0,58,16
0.10000000000000142,3502,1,58,28
0.10000000000000142,3502,2,58,24
0.09999999999999432,3502,3,58,25
0.10000000000000142,3502,4,58,22
0.10000000000000142,3502,5,58,31
0.10000000000000142,3502,6,58,17
0.10000000000000142,3502,7,58,24
0.10000000000000142,3502,8,58,32
0.10000000000000142,3502,9,58,18
0.10000000000000142,3502,10,58,21
0.10000000000000142,3502,11,58,14
0.10000000000000142,3502,12,58,19
0.10000000000000142,3502,13,58,26
0.10000000000000142,3502,14,58,20
0.10000000000000142,3502,15,58,24
0.10000000000000142,3503,0,58,23
0.10000000000000142,3503,1,58,18
0.10000000000000142,3503,2,58,21
0.10000000000000142,3503,3,58,25
0.09999999999999432,3503,4,58,15
0.09999999999999432,3503,5,58,23
0.10000000000000142,3503,6,58,26
0.09999999999999432,3503,7,58,25
0.09999999999999432,3503,8,58,27
0.10000000000000142,3503,9,58,37
0.10000000000000142,3503,10,58,30
0.10000000000000142,3503,11,58,16
0.10000000000000142,3503,12,58,24
0.10000000000000142,3503,13,58,26
0.10000000000000142,3503,14,58,35
0.10000000000000142,3503,15,58,35
0.10000000000000142,3504,0,58,32
0.10000000000000142,3504,1,58,28
0.10000000000000142,3504,2,58,23
0.09999999999999432,3504,3,58,30
0.09999999999999432,3504,4,58,32
0.10000000000000853,3504,5,58,31
0.09999999999999432,3504,6,58,24
0.09999999999999432,3504,7,58,21
0.09999999999999432,3504,8,58,23
0.09999999999999432,3504,9,58,26
0.09999999999999432,3504,10,58,34
0.09999999999999432,3504,11,58,25
0.09999999999999432,3504,12,58,16
0.10000000000000853,3504,13,58,24
0.09999999999999432,3504,14,58,23
0.09999999999999432,3504,15,58,23
0.10000000000000853,3505,0,58,33
0.10000000000000853,3505,1,58,46
0.10000000000000853,3505,2,58,29
0.09999999999999432,3505,3,58,31
0.10000000000000853,3505,4,58,44
0.09999999999999432,3505,5,58,34
0.10000000000000853,3505,6,58,17
0.09999999999999432,3505,7,58,24
0.09999999999999432,3505,8,58,28
0.09999999999999432,3505,9,58,21
0.09999999999999432,3505,10,58,23
0.09999999999999432,3505,11,58,27
0.09999999999999432,3505,12,58,37
0.10000000000000853,3505,13,58,26
0.09999999999999432,3505,14,58,22
0.09999999999999432,3505,15,58,21
0.09999999999999432,3506,0,58,25
0.10000000000000853,3506,1,58,25
0.09999999999999432,3506,2,58,25
0.10000000000000853,3506,3,58,23
0.09999999999999432,3506,4,58,21
0.09999999999999432,3506,5,58,24
0.10000000000000853,3506,6,58,26
0.09999999999999432,3506,7,58,32
0.09999999999999432,3506,8,58,29
0.09999999999999432,3506,9,58,47
0.09999999999999432,3506,10,58,49
0.09999999999999432,3506,11,58,32
0.10000000000000853,3506,12,58,37
0.10000000000000853,3506,13,58,40
0.09999999999999432,3506,14,58,45
0.09999999999999432,3506,15,58,48
0.10000000000000853,3507,0,58,42
0.10000000000000853,3507,1,58,33
0.09999999999999432,3507,2,58,38
0.09999999999999432,3507,3,58,33
0.09999999999999432,3507,4,58,31
0.10000000000000853,3507,5,58,39
0.09999999999999432,3507,6,58,42
0.09999999999999432,3507,7,58,35
0.09999999999999432,3507,8,58,41
0.09999999999999432,3507,9,58,41
0.09999999999999432,3507,10,58,47
0.09999999999999432,3507,11,58,46
0.09999999999999432,3507,12,58,43
0.09999999999999432,3507,13,58,38
0.10000000000000853,3507,14,58,44
0.09999999999999432,3507,15,58,44
0.09999999999999432,3508,0,58,31
0.09999999999999432,3508,1,58,42
0.09999999999999432,3508,2,58,29
0.10000000000000853,3508,3,58,39
0.10000000000000853,3508,4,58,34
0.10000000000000853,3508,5,58,34
0.09999999999999432,3508,6,58,41
0.09999999999999432,3508,7,58,32
0.10000000000000853,3508,8,58,46
0.09999999999999432,3508,9,58,46
0.09999999999999432,3508,10,58,42
0.09999999999999432,3508,11,58,54
0.09999999999999432,3508,12,58,61
0.10000000000000853,3508,13,58,47
0.09999999999999432,3508,14,58,48
0.09999999999999432,3508,15,58,30
0.09999999999999432,3509,0,58,45
0.10000000000000853,3509,1,58,56
0.10000000000000853,3509,2,58,35
0.10000000000000853,3509,3,58,40
0.10000000000000853,3509,4,58,54
0.10000000000000853,3509,5,58,50
0.10000000000000853,3509,6,58,41
0.10000000000000853,3509,7,58,33
0.10000000000000853,3509,8,58,52
0.09999999999999432,3509,9,58,52
0.10000000000000853,3509,10,58,41
0.10000000000000853,3509,11,58,42
0.10000000000000853,3509,12,58,39
0.10000000000000853,3509,13,58,40
0.10000000000000853,3509,14,58,33
0.10000000000000853,3509,15,58,34
0.09999999999999432,3510,0,58,40
0.10000000000000853,3510,1,58,33
0.09999999999999432,3510,2,58,33
0.09999999999999432,3510,3,58,35
0.09999999999999432,3510,4,58,38
0.10000000000000853,3510,5,58,35
0.10000000000000853,3510,6,58,37
0.09999999999999432,3510,7,58,39
0.10000000000000853,3510,8,58,48
0.09999999999999432,3510,9,58,43
0.09999999999999432,3510,10,58,59
0.09999999999999432,3510,11,58,41
0.10000000000000853,3510,12,58,41
0.09999999999999432,3510,13,58,54
0.10000000000000853,3510,14,58,79
0.10000000000000853,3510,15,58,66
0.09999999999999432,3511,0,58,60
0.09999999999999432,3511,1,58,123
0.09999999999999432,3511,2,58,27
0.09999999999999432,3511,3,58,13
0.09999999999999432,3511,4,58,25
0.09999999999999432,3511,5,58,24
0.09999999999999432,3511,6,58,42
0.10000000000000853,3511,7,58,43
0.09999999999999432,3511,8,58,28
0.09999999999999432,3511,9,58,22
0.10000000000000853,3511,10,58,52
0.10000000000000853,3511,11,58,41
0.10000000000000853,3511,12,58,46
0.10000000000000853,3511,13,58,37
0.10000000000000853,3511,14,58,48
0.10000000000000853,3511,15,58,36
0.09999999999999432,3512,0,58,38
0.09999999999999432,3512,1,58,26
0.10000000000000853,3512,2,58,29
0.10000000000000853,3512,3,58,24
0.10000000000000853,3512,4,58,34
0.09999999999999432,3512,5,58,34
0.10000000000000853,3512,6,58,41
0.09999999999999432,3512,7,58,20
0.10000000000000853,3512,8,58,35
0.10000000000000853,3512,9,58,27
0.09999999999999432,3512,10,58,59
0.10000000000000853,3512,11,58,46
0.10000000000000853,3512,12,58,54
0.10000000000000853,3512,13,58,36
0.09999999999999432,3512,14,58,50
0.10000000000000853,3512,15,58,46
0.09999999999999432,3513,0,58,45
0.09999999999999432,3513,1,58,47
0.09999999999999432,3513,2,58,55
0.09999999999999432,3513,3,58,52
0.09999999999999432,3513,4,58,51
0.06818181818181301,3513,5,58,52
0.10000000000000853,3513,6,58,53
0.09999999999999432,3513,7,58,42
0.09999999999999432,3513,8,58,33
0.09999999999999432,3513,9,58,45
0.10000000000000853,3513,10,58,43
0.09999999999999432,3513,11,58,42
0.09999999999999432,3513,12,58,37
0.09999999999999432,3513,13,58,35
0.09999999999999432,3513,14,58,44
0.10000000000000853,3513,15,58,41
0.09999999999999432,3514,0,58,50
0.10000000000000853,3514,1,58,69
0.09999999999999432,3514,2,58,55
0.09999999999999432,3514,3,58,52
0.10000000000000853,3514,4,58,46
0.09999999999999432,3514,5,58,53
0.09999999999999432,3514,6,58,51
0.10000000000000853,3514,7,58,46
0.10000000000000853,3514,8,58,44
0.10000000000000853,3514,9,58,67
0.09999999999999432,3514,10,58,54
0.09999999999999432,3514,11,58,47
0.09999999999999432,3514,12,58,46
0.09999999999999432,3514,13,58,50
0.09999999999999432,3514,14,58,37
0.09999999999999432,3514,15,58,26
0.10000000000000853,3515,0,58,40
0.10000000000000853,3515,1,58,54
0.10000000000000853,3515,2,58,62
0.06818181818182723,3515,3,58,69
0.09999999999999432,3515,4,58,67
0.09999999999999432,3515,5,58,59
0.10000000000000853,3515,6,58,48
0.09999999999999432,3515,7,58,37
0.09999999999999432,3515,8,58,25
0.09999999999999432,3515,9,58,26
0.10000000000000853,3515,10,58,47
0.10000000000000853,3515,11,58,37
0.09999999999999432,3515,12,58,41
0.09999999999999432,3515,13,58,32
0.10000000000000853,3515,14,58,36
0.09999999999999432,3515,15,58,20
0.09999999999999432,3516,0,58,16
0.09999999999999432,3516,1,58,41
0.09999999999999432,3516,2,58,46
0.09999999999999432,3516,3,58,47
0.10000000000000853,3516,4,58,37
0.06818181818182723,3516,5,58,42
0.10000000000000853,3516,6,58,61
0.10000000000000853,3516,7,58,64
0.09999999999999432,3516,8,58,60
0.10000000000000853,3516,9,58,45
0.09999999999999432,3516,10,58,50
0.09999999999999432,3516,11,58,58
0.09999999999999432,3516,12,58,45
0.09999999999999432,3516,13,58,66
0.10000000000000853,3516,14,58,74
0.09999999999999432,3516,15,58,57
0.10000000000000853,3517,0,58,45
0.09999999999999432,3517,1,58,27
0.09999999999999432,3517,2,58,40
0.09999999999999432,3517,3,58,42
0.10000000000000853,3517,4,58,52
0.10000000000000853,3517,5,58,41
0.09999999999999432,3517,6,58,58
0.09999999999999432,3517,7,58,41
0.10000000000000853,3517,8,58,26
0.09999999999999432,3517,9,58,47
0.09999999999999432,3517,10,58,43
0.09999999999999432,3517,11,58,27
0.10000000000000853,3517,12,58,28
0.09999999999999432,3517,13,58,32
0.10000000000000853,3517,14,58,58
0.10000000000000853,3517,15,58,31
0.10000000000000853,3518,0,58,19
0.09999999999999432,3518,1,58,34
0.09999999999999432,3518,2,58,42
0.09999999999999432,3518,3,58,26
0.09999999999999432,3518,4,58,30
0.09999999999999432,3518,5,58,34
0.06818181818181301,3518,6,58,42
0.10000000000002274,3518,7,58,55
0.09999999999999432,3518,8,58,40
0.09999999999999432,3518,9,58,36
0.10000000000002274,3518,10,58,38
0.09999999999999432,3518,11,58,35
0.09999999999999432,3518,12,58,29
0.09999999999999432,3518,13,58,35
0.09999999999999432,3518,14,58,31
0.06818181818181301,3518,15,58,44
0.09999999999999432,3519,0,58,48
0.09999999999999432,3519,1,58,43
0.09999999999999432,3519,2,58,36
0.10000000000002274,3519,3,58,59
0.09999999999999432,3519,4,58,53
0.09999999999999432,3519,5,58,61
0.10000000000002274,3519,6,58,35
0.09999999999999432,3519,7,58,43
0.09999999999999432,3519,8,58,55
0.09999999999999432,3519,9,58,39
0.09999999999999432,3519,10,58,42
0.09999999999999432,3519,11,58,59
0.09999999999999432,3519,12,58,34
0.09999999999999432,3519,13,58,24
0.09999999999999432,3519,14,58,31
0.09999999999999432,3519,15,58,24
0.09999999999999432,3520,0,58,47
0.09999999999999432,3520,1,58,37
0.10000000000002274,3520,2,58,44
0.09999999999999432,3520,3,58,42
0.10000000000002274,3520,4,58,28
0.09999999999999432,3520,5,58,21
0.09999999999999432,3520,6,58,39
0.09999999999999432,3520,7,58,31
0.09999999999999432,3520,8,58,38
0.09999999999999432,3520,9,58,26
0.09999999999999432,3520,10,58,29
0.09999999999999432,3520,11,58,34
0.09999999999999432,3520,12,58,34
0.09999999999999432,3520,13,58,41
0.09999999999999432,3520,14,58,46
0.09999999999999432,3520,15,58,34
0.09999999999999432,3521,0,58,35
0.09999999999999432,3521,1,58,44
0.09999999999999432,3521,2,58,26
0.09999999999999432,3521,3,58,41
0.09999999999999432,3521,4,58,37
0.09999999999999432,3521,5,58,25
0.10000000000002274,3521,6,58,43
0.10000000000002274,3521,7,58,43
0.09999999999999432,3521,8,58,46
0.09999999999999432,3521,9,58,44
0.09999999999999432,3521,10,58,40
0.09999999999999432,3521,11,58,57
0.09999999999999432,3521,12,58,40
0.09999999999999432,3521,13,58,42
0.09999999999999432,3521,14,58,40
0.09999999999999432,3521,15,58,26
0.09999999999999432,3522,0,58,34
0.09999999999999432,3522,1,58,33
0.10000000000002274,3522,2,58,24
0.09999999999999432,3522,3,58,36
0.09999999999999432,3522,4,58,38
0.09999999999999432,3522,5,58,34
0.09999999999999432,3522,6,58,42
0.09999999999999432,3522,7,58,34
0.10000000000002274,3522,8,58,36
0.09999999999999432,3522,9,58,24
0.06818181818181301,3522,10,58,16
0.09999999999999432,3522,11,58,48
0.09999999999999432,3522,12,58,64
0.09999999999999432,3522,13,58,62
0.09999999999999432,3522,14,58,56
0.09999999999999432,3522,15,58,50
0.09999999999999432,3523,0,58,61
0.09999999999999432,3523,1,58,68
0.09999999999999432,3523,2,58,74
0.09999999999999432,3523,3,58,58
0.09999999999999432,3523,4,58,56
0.09999999999999432,3523,5,58,69
0.09999999999999432,3523,6,58,50
0.10000000000002274,3523,7,58,47
0.09999999999999432,3523,8,58,39
0.09999999999999432,3523,9,58,60
0.10000000000002274,3523,10,58,45
0.09999999999999432,3523,11,58,66
0.10000000000002274,3523,12,58,64
0.10000000000002274,3523,13,58,44
0.09999999999999432,3523,14,58,50
0.09999999999999432,3523,15,58,49
0.09999999999999432,3524,0,58,53
0.09999999999999432,3524,1,58,59
0.09999999999999432,3524,2,58,43
0.10000000000002274,3524,3,58,43
0.09999999999999432,3524,4,58,43
0.09999999999999432,3524,5,58,54
0.09999999999999432,3524,6,58,45
0.10000000000002274,3524,7,58,50
0.09999999999999432,3524,8,58,53
0.10000000000002274,3524,9,58,59
0.09999999999999432,3524,10,58,48
0.09999999999999432,3524,11,58,64
0.10000000000002274,3524,12,58,56
0.09999999999999432,3524,13,58,67
0.09999999999999432,3524,14,58,44
0.09999999999999432,3524,15,58,41
0.09999999999999432,3525,0,58,48
0.10000000000002274,3525,1,58,47
0.09999999999999432,3525,2,58,97
0.09999999999999432,3525,3,58,56
0.10000000000002274,3525,4,58,54
0.09999999999999432,3525,5,58,44
0.10000000000002274,3525,6,58,64
0.10000000000002274,3525,7,58,66
0.09999999999999432,3525,8,58,53
0.09999999999999432,3525,9,58,55
0.10000000000002274,3525,10,58,66
0.09999999999999432,3525,11,58,60
0.09999999999999432,3525,12,58,55
0.09999999999999432,3525,13,58,61
0.09999999999999432,3525,14,58,45
0.09999999999999432,3525,15,58,53
0.09999999999999432,3526,0,58,61
0.09999999999999432,3526,1,58,58
0.09999999999999432,3526,2,58,48
0.09999999999999432,3526,3,58,43
0.09999999999999432,3526,4,58,45
0.10000000000002274,3526,5,58,54
0.09999999999999432,3526,6,58,40
0.045454545454532536,3526,7,58,42
0.004545454545450411,3526,8,58,56
0.025000000000005684,3526,9,58,68
0.03409090909090651,3526,10,58,73
0.02727272727273089,3526,11,58,61
0.10000000000002274,3526,12,58,37
0.10000000000002274,3526,13,58,22
0.09999999999999432,3526,14,58,35
0.09999999999999432,3526,15,58,48
0.09999999999999432,3527,0,58,32
0.09999999999999432,3527,1,58,62
0.09999999999999432,3527,2,58,47
0.10000000000002274,3527,3,58,41
0.09999999999999432,3527,4,58,37
0.09999999999999432,3527,5,58,33
0.09999999999999432,3527,6,58,49
0.09999999999999432,3527,7,58,28
0.09999999999999432,3527,8,58,42
0.09999999999999432,3527,9,58,61
0.10000000000002274,3527,10,58,44
0.09999999999999432,3527,11,58,44
0.09999999999999432,3527,12,58,49
0.09999999999999432,3527,13,58,34
0.09999999999999432,3527,14,58,61
0.09999999999999432,3527,15,58,76
0.09999999999999432,3528,0,58,48
0.10000000000002274,3528,1,58,57
0.10000000000002274,3528,2,58,67
0.10000000000002274,3528,3,58,53
0.09999999999999432,3528,4,58,55
0.10000000000002274,3528,5,58,79
0.09999999999999432,3528,6,58,45
0.10000000000002274,3528,7,58,60
0.09999999999999432,3528,8,58,38
0.10000000000002274,3528,9,58,39
0.09999999999999432,3528,10,58,46
0.09999999999999432,3528,11,58,48
0.09999999999999432,3528,12,58,45
0.10000000000002274,3528,13,58,39
0.09999999999999432,3528,14,58,34
0.09999999999999432,3528,15,58,40
0.10000000000002274,3529,0,58,39
0.09999999999999432,3529,1,58,39
0.09999999999999432,3529,2,58,45
0.09999999999999432,3529,3,58,42
0.10000000000002274,3529,4,58,36
0.09999999999999432,3529,5,58,68
0.09999999999999432,3529,6,58,47
0.09999999999999432,3529,7,58,41
0.10000000000002274,3529,8,58,49
0.09999999999999432,3529,9,58,46
0.10000000000002274,3529,10,58,47
0.09999999999999432,3529,11,58,40
0.09999999999999432,3529,12,58,54
0.10000000000002274,3529,13,58,55
0.10000000000002274,3529,14,58,56
0.09999999999999432,3529,15,58,58
0.09999999999999432,3530,0,58,47
0.10000000000002274,3530,1,58,58
0.09999999999999432,3530,2,58,43
0.10000000000002274,3530,3,58,47
0.09999999999999432,3530,4,58,59
0.09999999999999432,3530,5,58,44
0.09999999999999432,3530,6,58,74
0.10000000000002274,3530,7,58,73
0.09999999999999432,3530,8,58,40
0.09999999999999432,3530,9,58,31
0.09999999999999432,3530,10,58,40
0.09999999999999432,3530,11,58,61
0.09999999999999432,3530,12,58,56
0.09999999999999432,3530,13,58,55
0.09999999999999432,3530,14,58,47
0.09999999999999432,3530,15,58,49
0.09999999999999432,3531,0,58,57
0.10000000000002274,3531,1,58,45
0.09999999999999432,3531,2,58,66
0.09999999999999432,3531,3,58,75
0.09999999999999432,3531,4,58,70
0.09999999999999432,3531,5,58,68
0.10000000000002274,3531,6,58,56
0.09999999999999432,3531,7,58,37
0.09999999999999432,3531,8,58,55
0.09999999999999432,3531,9,58,47
0.10000000000002274,3531,10,58,35
0.09999999999999432,3531,11,58,45
0.09999999999999432,3531,12,58,67
0.09999999999999432,3531,13,58,58
0.10000000000002274,3531,14,58,68
0.09999999999999432,3531,15,58,63
0.09999999999999432,3532,0,58,77
0.10000000000002274,3532,1,58,58
0.09999999999999432,3532,2,58,66
0.09999999999999432,3532,3,58,69
0.09999999999999432,3532,4,58,72
0.10000000000002274,3532,5,58,67
0.09999999999999432,3532,6,58,72
0.09999999999999432,3532,7,58,68
0.10000000000002274,3532,8,58,75
0.09999999999999432,3532,9,58,71
0.09999999999999432,3532,10,58,68
0.09999999999999432,3532,11,58,56
0.09999999999999432,3532,12,58,1
0.09999999999999787,3532,13,67,2
0.09999999999999787,3532,14,67,33
0.10000000000000142,3532,15,67,27
0.10000000000000142,3533,0,67,26
0.10000000000000142,3533,1,67,25
0.10000000000000142,3533,2,67,32
0.10000000000000142,3533,3,67,23
0.09999999999999432,3533,4,67,31
0.10000000000000142,3533,5,67,31
0.10000000000000142,3533,6,67,21
0.10000000000000142,3533,7,67,19
0.09999999999999432,3533,8,67,24
0.10000000000000142,3533,9,67,22
0.10000000000000142,3533,10,67,17
0.09999999999999432,3533,11,67,29
0.10000000000000142,3533,12,67,11
0.10000000000000142,3533,13,67,29
0.10000000000000142,3533,14,67,11
0.10000000000000142,3533,15,67,22
0.09999999999999432,3534,0,67,32
0.10000000000000142,3534,1,67,27
0.09999999999999432,3534,2,67,32
0.09999999999999432,3534,3,67,24
0.10000000000000142,3534,4,67,16
0.09999999999999432,3534,5,67,13
0.10000000000000142,3534,6,67,21
0.09999999999999432,3534,7,67,10
0.10000000000000142,3534,8,67,18
0.10000000000000142,3534,9,67,11
0.10000000000000142,3534,10,67,11
0.10000000000000142,3534,11,67,13
0.10000000000000142,3534,12,67,12
0.10000000000000853,3534,13,67,15
0.09999999999999432,3534,14,67,9
0.09999999999999432,3534,15,67,19
0.09999999999999432,3535,0,67,18
0.10000000000000853,3535,1,67,15
0.09999999999999432,3535,2,67,13
0.09999999999999432,3535,3,67,18
0.10000000000000853,3535,4,67,21
0.09999999999999432,3535,5,67,17
0.10000000000000853,3535,6,67,19
0.09999999999999432,3535,7,67,13
0.09999999999999432,3535,8,67,23
0.09999999999999432,3535,9,67,17
0.09999999999999432,3535,10,67,11
0.09999999999999432,3535,11,67,10
0.09999999999999432,3535,12,67,19
0.09999999999999432,3535,13,67,12
0.10000000000000853,3535,14,67,20
0.10000000000000853,3535,15,67,14
0.09999999999999432,3536,0,67,19
0.09999999999999432,3536,1,67,18
0.10000000000000853,3536,2,67,21
0.09999999999999432,3536,3,67,24
0.10000000000000853,3536,4,67,18
0.09999999999999432,3536,5,67,23
0.10000000000000853,3536,6,67,18
0.09999999999999432,3536,7,67,8
0.10000000000000853,3536,8,67,17
0.09999999999999432,3536,9,67,15
0.09999999999999432,3536,10,67,14
0.09999999999999432,3536,11,67,18
0.09999999999999432,3536,12,67,14
0.09999999999999432,3536,13,67,20
0.09999999999999432,3536,14,67,16
0.09999999999999432,3536,15,67,28
0.10000000000000853,3537,0,67,27
0.09999999999999432,3537,1,62,1
0.09999999999999432,3537,2,62,1
0.10000000000000853,3537,3,62,1
0.10000000000000853,3537,4,62,10
0.10000000000000853,3537,5,62,1
0.09999999999999432,3537,6,62,22
0.10000000000000853,3537,7,62,13
0.10000000000000853,3537,8,62,9
0.09999999999999432,3537,9,62,1
0.10000000000000853,3537,10,62,13
0.10000000000000853,3537,11,62,10
0.09999999999999432,3537,12,62,1
0.10000000000000853,3537,13,62,9
0.10000000000000853,3537,14,62,9
0.09999999999999432,3537,15,62,9
0.10000000000000853,3538,0,62,9
0.09999999999999432,3538,1,62,1
0.10000000000000853,3538,2,62,9
0.09999999999999432,3538,3,62,1
0.10000000000000853,3538,4,62,8
0.10000000000000853,3538,5,62,1
0.09999999999999432,3538,6,62,9
0.09999999999999432,3538,7,62,10
0.09999999999999432,3538,8,62,1
0.09999999999999432,3538,9,62,8
0.09999999999999432,3538,10,62,8
0.09999999999999432,3538,11,62,9
0.09999999999999432,3538,12,62,11
0.09999999999999432,3538,13,62,1
0.10000000000002274,3538,14,62,7
0.10000000000002274,3538,15,62,1
0.09999999999999432,3539,0,62,12
0.09999999999999432,3539,1,62,1
0.09999999999999432,3539,2,62,11
0.10000000000002274,3539,3,62,12
0.10000000000002274,3539,4,62,1
0.09999999999999432,3539,5,62,10
0.09999999999999432,3539,6,62,1
0.10000000000002274,3539,7,62,13
0.09999999999999432,3539,8,62,1
0.09999999999999432,3539,9,62,15
0.09999999999999432,3539,10,62,13
0.09999999999999432,3539,11,62,1
0.10000000000002274,3539,12,62,13
0.09999999999999432,3539,13,62,15
0.09999999999999432,3539,14,62,13
0.09999999999999432,3539,15,62,12
0.09999999999999432,3540,0,62,1
0.09999999999999432,3540,1,62,22
0.09999999999999432,3540,2,62,1
0.09999999999999432,3540,3,62,1
0.09999999999999432,3540,4,62,1
0.09999999999999432,3540,5,62,2
0.09999999999999432,3540,6,62,1
0.09999999999999432,3540,7,62,7
0.09999999999999432,3540,8,62,1
0.09999999999999432,3540,9,62,1
0.09999999999999432,3540,10,62,1
0.09999999999999432,3540,11,62,1
0.10000000000002274,3540,12,62,2
0.09999999999999432,3540,13,62,1
0.09999999999999432,3540,14,62,1
0.09999999999999432,3540,15,62,1
0.09999999999999432,3541,0,62,1
0.10000000000002274,3541,1,62,1
0.09999999999999432,3541,2,62,1
0.09999999999999432,3541,3,62,2
0.09999999999999432,3541,4,62,1
0.09999999999999432,3541,5,62,6
0.10000000000002274,3541,6,62,1
0.09999999999999432,3541,7,62,1
0.10000000000002274,3541,8,62,1
0.09999999999999432,3541,9,62,1
0.09999999999999432,3541,10,62,2
0.09999999999999432,3541,11,62,1
0.10000000000002274,3541,12,62,7
0.10000000000002274,3541,13,62,1
0.09999999999999432,3541,14,62,1
0.09999999999999432,3541,15,62,1
0.09999999999999432,3542,0,62,1
0.10000000000002274,3542,1,62,2
0.09999999999999432,3542,2,62,1
0.09999999999999432,3542,3,62,7
0.09999999999999432,3542,4,62,1
0.09999999999999432,3542,5,62,1
0.09999999999999432,3542,6,62,1
0.09999999999999432,3542,7,62,1
0.10000000000002274,3542,8,62,1
0.09999999999999432,3542,9,62,8
0.09999999999999432,3542,10,62,1
0.09999999999999432,3542,11,62,1
0.09999999999999432,3542,12,62,2
0.09999999999999432,3542,13,62,1
0.10000000000002274,3542,14,62,2
0.09999999999999432,3542,15,62,1
0.09999999999999432,3543,0,62,7
0.09999999999999432,3543,1,62,1
0.09999999999999432,3543,2,62,1
0.10000000000002274,3543,3,62,1
0.10000000000002274,3543,4,62,1
0.09999999999999432,3543,5,62,2
0.09999999999999432,3543,6,62,1
0.10000000000002274,3543,7,62,7
0.10000000000002274,3543,8,62,1
0.10000000000002274,3543,9,62,1
0.10000000000002274,3543,10,62,1
0.09999999999999432,3543,11,62,1
0.10000000000002274,3543,12,62,1
0.09999999999999432,3543,13,62,1
0.09999999999999432,3543,14,62,1
0.09999999999999432,3543,15,62,1
0.09999999999999432,3544,0,62,1
0.09999999999999432,3544,1,62,1
0.09999999999999432,3544,2,62,1
0.09999999999999432,3544,3,62,1
0.09999999999999432,3544,4,62,1
0.09999999999999432,3544,5,62,1
0.09999999999999432,3544,6,62,1
0.09999999999999432,3544,7,62,1
0.10000000000002274,3544,8,62,1
0.10000000000002274,3544,9,62,1
0.09999999999999432,3544,10,62,1
0.10000000000002274,3544,11,62,1
0.09999999999999432,3544,12,62,1
0.09999999999999432,3544,13,62,1
0.09999999999999432,3544,14,62,1
0.10000000000000142,3544,15,69,88
0.10000000000000142,3545,0,69,37
0.10000000000000142,3545,1,69,32
0.10000000000000142,3545,2,69,16
0.09999999999999432,3545,3,69,9
0.10000000000000853,3545,4,69,7
0.09999999999999432,3545,5,69,6
0.09999999999999432,3545,6,69,4
0.10000000000000853,3545,7,69,7
0.10000000000000853,3545,8,69,15
0.09999999999999432,3545,9,69,14
0.10000000000000853,3545,10,69,10
0.09999999999999432,3545,11,69,19
0.09999999999999432,3545,12,69,27
0.10000000000000853,3545,13,69,22
0.09999999999999432,3545,14,69,1
0.09999999999999432,3545,15,69,1
0.09999999999999432,3546,0,69,1
0.10000000000000853,3546,1,69,13
0.09999999999999432,3546,2,69,14
0.09999999999999432,3546,3,69,25
0.09999999999999432,3546,4,69,12
0.09999999999999432,3546,5,69,15
0.09999999999999432,3546,6,69,11
0.10000000000002274,3546,7,69,17
0.09999999999999432,3546,8,69,15
0.09999999999999432,3546,9,69,13
0.09999999999999432,3546,10,69,15
0.10000000000002274,3546,11,69,11
0.09999999999999432,3546,12,69,14
0.09999999999999432,3546,13,69,15
0.10000000000000003,3546,14,75,5
0.09999999999999987,3546,15,75,12
0.10000000000000009,3547,0,75,19
0.10000000000000009,3547,1,75,92
0.10000000000000009,3547,2,75,34
0.10000000000000009,3547,3,75,75
0.10000000000000009,3547,4,75,69
0.10000000000000009,3547,5,75,27
0.09999999999999964,3547,6,75,65
0.10000000000000053,3547,7,75,29
0.09999999999999964,3547,8,75,84
0.09999999999999964,3547,9,75,24
0.10000000000000053,3547,10,75,29
0.09999999999999964,3547,11,75,43
0.09999999999999964,3547,12,75,27
0.10000000000000053,3547,13,75,73
0.09999999999999964,3547,14,75,19
0.09999999999999964,3547,15,75,27
0.09999999999999964,3548,0,75,37
0.09999999999999964,3548,1,75,29
0.09999999999999964,3548,2,75,48
0.09999999999999964,3548,3,75,9
0.09999999999999964,3548,4,75,28
0.09999999999999964,3548,5,75,29
0.10000000000000142,3548,6,75,64
0.09999999999999964,3548,7,75,24
0.09999999999999964,3548,8,75,54
0.09999999999999964,3548,9,75,74
0.09999999999999964,3548,10,75,80
0.09999999999999964,3548,11,75,59
0.09999999999999964,3548,12,75,32
0.09999999999999964,3548,13,75,17
0.10000000000000142,3548,14,75,15
0.09999999999999964,3548,15,75,51
0.06818181818181834,3549,0,75,58
0.09999999999999964,3549,1,75,82
0.09999999999999964,3549,2,75,69
0.09999999999999964,3549,3,75,17
0.09999999999999787,3549,4,75,15
0.09999999999999787,3549,5,75,16
0.10000000000000142,3549,6,75,44
0.09999999999999787,3549,7,75,49
0.10000000000000142,3549,8,75,85
0.10000000000000142,3549,9,75,8
0.09999999999999787,3549,10,75,31
0.10000000000000142,3549,11,75,53
0.10000000000000142,3549,12,75,110
0.09999999999999787,3549,13,75,90
0.10000000000000142,3549,14,75,90
0.09999999999999787,3549,15,75,54
0.09999999999999787,3550,0,75,119
0.06818181818181657,3550,1,75,127
0.10000000000000142,3550,2,75,123
0.10000000000000142,3550,3,75,107
0.10000000000000142,3550,4,75,127
0.09999999999999787,3550,5,75,101
0.09999999999999787,3550,6,75,28
0.10000000000000142,3550,7,75,85
0.10000000000000142,3550,8,75,85
0.10000000000000142,3550,9,75,127
0.09999999999999787,3550,10,75,125
0.09999999999999787,3550,11,75,99
0.10000000000000142,3550,12,75,89
0.10000000000000142,3550,13,75,52
0.09999999999999787,3550,14,75,126
0.10000000000000142,3550,15,75,123
0.10000000000000142,3551,0,75,71
0.09999999999999787,3551,1,75,30
0.10000000000000142,3551,2,75,97
0.09999999999999787,3551,3,75,61
0.10000000000000142,3551,4,75,110
0.09999999999999432,3551,5,75,104
0.10000000000000142,3551,6,75,78
0.10000000000000142,3551,7,75,110
0.10000000000000142,3551,8,75,127
0.09999999999999432,3551,9,75,78
0.09999999999999432,3551,10,75,102
0.10000000000000142,3551,11,75,94
0.10000000000000142,3551,12,75,20
0.10000000000000142,3551,13,75,87
0.09999999999999432,3551,14,75,60
0.10000000000000142,3551,15,75,87
0.10000000000000142,3552,0,75,81
0.09999999999999432,3552,1,75,89
0.10000000000000142,3552,2,75,96
0.10000000000000142,3552,3,75,95
0.10000000000000142,3552,4,75,83
0.10000000000000142,3552,5,75,24
0.10000000000000142,3552,6,75,106
0.10000000000000142,3552,7,75,65
0.10000000000000142,3552,8,75,93
0.10000000000000142,3552,9,75,20
0.09999999999999432,3552,10,75,85
0.10000000000000142,3552,11,75,93
0.09999999999999432,3552,12,75,103
0.10000000000000142,3552,13,75,26
0.09999999999999432,3552,14,75,95
0.09999999999999432,3552,15,75,76
0.09999999999999432,3553,0,75,72
0.10000000000000142,3553,1,75,90
0.10000000000000142,3553,2,75,44
0.10000000000000142,3553,3,75,109
0.10000000000000142,3553,4,75,71
0.10000000000000142,3553,5,75,117
0.10000000000000142,3553,6,75,14
0.10000000000000142,3553,7,75,88
0.09999999999999432,3553,8,75,122
0.10000000000000142,3553,9,75,89
0.10000000000000142,3553,10,75,127
0.10000000000000142,3553,11,75,83
0.10000000000000142,3553,12,75,14
0.10000000000000142,3553,13,75,49
0.10000000000000142,3553,14,75,127
0.10000000000000142,3553,15,75,65
0.10000000000000142,3554,0,75,89
0.10000000000000142,3554,1,75,86
0.10000000000000142,3554,2,75,68
0.10000000000000142,3554,3,75,77
0.10000000000000142,3554,4,75,93
0.09999999999999432,3554,5,75,73
0.10000000000000142,3554,6,75,35
0.10000000000000142,3554,7,75,7
0.09999999999999432,3554,8,75,93
0.10000000000000142,3554,9,75,127
0.10000000000000142,3554,10,75,97
0.09999999999999432,3554,11,75,127
0.10000000000000142,3554,12,75,114
0.09999999999999432,3554,13,75,89
0.10000000000000142,3554,14,75,95
0.10000000000000142,3554,15,75,90
0.10000000000000142,3555,0,75,100
0.10000000000000142,3555,1,75,47
0.10000000000000142,3555,2,75,15
0.10000000000000142,3555,3,75,73
0.09999999999999432,3555,4,75,75
0.09999999999999432,3555,5,75,88
0.06818181818181301,3555,6,75,92
0.10000000000000142,3555,7,75,125
0.10000000000000142,3555,8,75,118
0.09999999999999432,3555,9,75,114
0.10000000000000142,3555,10,75,123
0.10000000000000142,3555,11,75,127
0.09999999999999432,3555,12,75,127
0.09999999999999432,3555,13,75,105
0.10000000000000142,3555,14,75,29
0.10000000000000142,3555,15,75,77
0.10000000000000142,3556,0,75,100
0.10000000000000142,3556,1,75,78
0.10000000000000142,3556,2,75,111
0.10000000000000142,3556,3,75,127
0.10000000000000142,3556,4,75,102
0.10000000000000142,3556,5,75,21
0.10000000000000142,3556,6,75,64
0.09999999999999432,3556,7,75,122
0.10000000000000142,3556,8,75,99
0.10000000000000142,3556,9,75,112
0.10000000000000142,3556,10,75,69
0.10000000000000142,3556,11,75,127
0.10000000000000142,3556,12,75,122
0.10000000000000142,3556,13,75,75
0.10000000000000142,3556,14,75,89
0.10000000000000142,3556,15,75,109
0.10000000000000142,3557,0,75,127
0.10000000000000142,3557,1,75,110
0.10000000000000142,3557,2,75,72
0.09999999999999432,3557,3,75,95
0.10000000000000142,3557,4,75,70
0.10000000000000142,3557,5,75,86
0.09999999999999432,3557,6,75,39
0.10000000000000142,3557,7,75,122
0.10000000000000142,3557,8,75,124
0.10000000000000142,3557,9,75,75
0.10000000000000142,3557,10,75,73
0.10000000000000142,3557,11,75,78
0.10000000000000142,3557,12,75,44
0.10000000000000142,3557,13,75,62
0.10000000000000142,3557,14,75,110
0.09999999999999432,3557,15,75,60
0.09999999999999432,3558,0,75,35
0.10000000000000142,3558,1,75,88
0.10000000000000142,3558,2,75,86
0.10000000000000142,3558,3,75,77
0.10000000000000142,3558,4,75,120
0.10000000000000142,3558,5,75,70
0.10000000000000142,3558,6,75,69
0.10000000000000142,3558,7,75,109
0.10000000000000853,3558,8,75,83
0.10000000000000853,3558,9,75,110
0.10000000000000853,3558,10,75,108
0.09999999999999432,3558,11,75,127
0.10000000000000853,3558,12,75,36
0.10000000000000853,3558,13,75,110
0.10000000000000853,3558,14,75,86
0.10000000000000853,3558,15,75,70
0.10000000000000853,3559,0,75,75
0.09999999999999432,3559,1,75,111
0.056818181818172775,3559,2,75,100
0.10000000000000853,3559,3,75,127
0.10000000000000853,3559,4,75,127
0.09999999999999432,3559,5,75,127
0.09999999999999432,3559,6,75,91
0.06818181818181301,3559,7,75,103
0.09999999999999432,3559,8,75,51
0.09999999999999432,3559,9,75,60
0.09999999999999432,3559,10,75,120
0.09999999999999432,3559,11,75,30
0.10000000000000853,3559,12,75,73
0.09999999999999432,3559,13,75,101
0.09999999999999432,3559,14,75,127
0.10000000000000853,3559,15,75,103
0.09999999999999432,3560,0,75,67
0.10000000000000853,3560,1,75,127
0.10000000000000853,3560,2,75,113
0.10000000000000853,3560,3,75,70
0.09999999999999432,3560,4,75,127
0.09999999999999432,3560,5,75,127
0.10000000000000853,3560,6,75,70
0.10000000000000853,3560,7,75,23
0.10000000000000853,3560,8,75,67
0.013636363636365445,3560,9,75,106
0.09999999999999432,3560,10,75,72
0.10000000000000853,3560,11,75,127
0.09999999999999432,3560,12,75,96
0.09999999999999432,3560,13,75,127
0.09999999999999432,3560,14,75,103
0.09999999999999432,3560,15,75,61
0.10000000000000853,3561,0,75,38
0.09999999999999432,3561,1,75,47
0.09999999999999432,3561,2,75,91
0.10000000000000853,3561,3,75,104
0.09999999999999432,3561,4,75,108
0.024999999999991473,3561,5,75,86
0.10000000000000853,3561,6,75,107
0.10000000000000853,3561,7,75,53
0.09999999999999432,3561,8,75,53
0.09999999999999432,3561,9,75,107
0.10000000000000853,3561,10,75,66
0.09999999999999432,3561,11,75,66
0.09999999999999432,3561,12,75,83
0.09999999999999432,3561,13,75,104
0.09999999999999432,3561,14,75,79
0.09999999999999432,3561,15,75,67
0.09999999999999432,3562,0,75,92
0.09999999999999432,3562,1,75,89
0.10000000000000853,3562,2,75,77
0.09999999999999432,3562,3,75,33
0.10000000000000853,3562,4,75,60
0.09999999999999432,3562,5,75,103
0.09999999999999432,3562,6,75,58
0.09999999999999432,3562,7,75,112
0.10000000000000853,3562,8,75,52
0.04772727272727195,3562,9,75,82
0.09999999999999432,3562,10,75,127
0.09999999999999432,3562,11,75,122
0.09999999999999432,3562,12,75,119
0.004545454545450411,3562,13,75,35
0.09999999999999432,3562,14,75,85
0.09999999999999432,3562,15,75,127
0.09999999999999432,3563,0,75,66
0.09999999999999432,3563,1,75,101
0.09999999999999432,3563,2,75,90
0.10000000000000853,3563,3,75,127
0.09999999999999432,3563,4,75,61
0.09999999999999432,3563,5,75,68
0.09999999999999432,3563,6,75,42
0.09999999999999432,3563,7,75,73
0.10000000000000853,3563,8,75,48
0.09999999999999432,3563,9,75,58
0.09999999999999432,3563,10,75,36
0.10000000000000853,3563,11,75,94
0.10000000000000853,3563,12,75,55
0.09999999999999432,3563,13,75,54
0.056818181818186986,3563,14,75,84
0.09999999999999432,3563,15,75,59
0.10000000000000853,3564,0,75,24
0.10000000000000853,3564,1,75,59
0.09999999999999432,3564,2,75,76
0.09999999999999432,3564,3,75,88
0.09999999999999432,3564,4,75,92
0.10000000000000853,3564,5,75,59
0.09999999999999432,3564,6,75,47
0.09999999999999432,3564,7,75,23
0.09999999999999432,3564,8,75,49
0.10000000000000853,3564,9,75,69
0.10000000000000853,3564,10,75,23
0.10000000000000853,3564,11,75,66
0.10000000000000853,3564,12,75,112
0.10000000000000853,3564,13,75,100
0.10000000000000853,3564,14,75,80
0.09999999999999432,3564,15,75,62
0.09999999999999432,3565,0,75,19
0.09999999999999432,3565,1,75,33
0.09999999999999432,3565,2,75,127
0.10000000000000853,3565,3,75,38
0.09999999999999432,3565,4,75,86
0.09999999999999432,3565,5,75,45
0.10000000000000853,3565,6,75,63
0.09999999999999432,3565,7,75,62
0.09999999999999432,3565,8,75,103
0.09999999999999432,3565,9,75,89
0.09999999999999432,3565,10,75,79
0.10000000000000853,3565,11,75,22
0.10000000000000853,3565,12,75,63
0.10000000000000853,3565,13,75,83
0.09999999999999432,3565,14,75,32
0.09999999999999432,3565,15,75,14
0.09999999999999432,3566,0,75,43
0.004545454545450411,3566,1,75,99
0.09999999999999432,3566,2,75,81
0.09999999999999432,3566,3,75,44
0.09999999999999432,3566,4,75,53
0.09999999999999432,3566,5,75,66
0.09999999999999432,3566,6,75,17
0.09999999999999432,3566,7,75,72
0.09999999999999432,3566,8,75,112
0.09999999999999432,3566,9,75,35
0.09999999999999432,3566,10,75,65
0.09999999999999432,3566,11,75,67
0.09999999999999432,3566,12,75,82
0.09999999999999432,3566,13,75,92
0.09999999999999432,3566,14,75,69
0.10000000000000853,3566,15,75,64
0.09999999999999432,3567,0,75,3
0.10000000000000853,3567,1,75,90
0.10000000000000853,3567,2,75,89
0.045454545454546746,3567,3,75,127
0.09999999999999432,3567,4,75,127
0.10000000000000853,3567,5,75,127
0.09999999999999432,3567,6,75,127
0.09999999999999432,3567,7,75,96
0.09999999999999432,3567,8,75,27
0.10000000000000853,3567,9,75,85
0.10000000000000853,3567,10,75,62
0.10000000000000853,3567,11,75,59
0.09999999999999432,3567,12,75,19
0.10000000000000853,3567,13,75,60
0.10000000000000853,3567,14,75,90
0.10000000000000853,3567,15,75,98
0.09999999999999432,3568,0,75,83
0.09999999999999432,3568,1,75,90
0.09999999999999432,3568,2,75,110
0.09999999999999432,3568,3,75,64
0.10000000000000853,3568,4,75,75
0.09999999999999432,3568,5,75,76
0.09999999999999432,3568,6,75,55
0.09999999999999432,3568,7,75,68
0.09999999999999432,3568,8,75,97
0.10000000000000853,3568,9,75,43
0.09999999999999432,3568,10,75,46
0.09999999999999432,3568,11,75,126
0.09999999999999432,3568,12,75,117
0.09999999999999432,3568,13,75,22
0.10000000000000853,3568,14,75,55
0.10000000000000853,3568,15,75,104
0.09999999999999432,3569,0,75,99
0.10000000000000853,3569,1,75,101
0.10000000000000853,3569,2,75,51
0.09999999999999432,3569,3,75,57
0.10000000000000853,3569,4,75,103
0.09999999999999432,3569,5,75,104
0.10000000000000853,3569,6,75,99
0.09999999999999432,3569,7,75,116
0.09999999999999432,3569,8,75,105
0.10000000000000853,3569,9,75,36
0.10000000000000853,3569,10,75,93
0.10000000000000853,3569,11,75,56
0.09999999999999432,3569,12,75,62
0.06818181818181301,3569,13,75,72
0.09999999999999432,3569,14,75,30
0.09999999999999432,3569,15,75,91
0.09999999999999432,3570,0,75,111
0.09999999999999432,3570,1,75,60
0.09999999999999432,3570,2,75,17
0.10000000000000853,3570,3,75,58
0.10000000000000853,3570,4,75,112
0.09999999999999432,3570,5,75,86
0.09999999999999432,3570,6,75,69
0.09999999999999432,3570,7,75,79
0.09999999999999432,3570,8,75,78
0.10000000000000853,3570,9,75,42
0.10000000000000853,3570,10,75,116
0.09999999999999432,3570,11,75,107
0.09999999999999432,3570,12,75,50
0.10000000000000853,3570,13,75,100
0.09999999999999432,3570,14,75,37
0.09999999999999432,3570,15,75,93
0.09999999999999432,3571,0,75,93
0.09999999999999432,3571,1,75,94
0.09999999999999432,3571,2,75,116
0.09999999999999432,3571,3,75,50
0.09999999999999432,3571,4,75,95
0.09999999999999432,3571,5,75,82
0.09999999999999432,3571,6,75,80
0.10000000000002274,3571,7,75,75
0.10000000000002274,3571,8,75,74
0.09999999999999432,3571,9,75,91
0.09999999999999432,3571,10,75,46
0.10000000000002274,3571,11,75,81
0.10000000000002274,3571,12,75,84
0.09999999999999432,3571,13,75,95
0.09999999999999432,3571,14,75,17
0.10000000000002274,3571,15,75,60
0.04772727272728616,3572,0,75,102
0.09999999999999432,3572,1,75,83
0.09999999999999432,3572,2,75,107
0.09999999999999432,3572,3,75,116
0.09999999999999432,3572,4,75,100
0.09999999999999432,3572,5,75,78
0.10000000000002274,3572,6,75,25
0.09999999999999432,3572,7,75,44
0.09999999999999432,3572,8,75,65
0.09999999999999432,3572,9,75,91
0.09999999999999432,3572,10,75,36
0.09999999999999432,3572,11,75,57
0.10000000000002274,3572,12,75,101
0.09999999999999432,3572,13,75,102
0.09999999999999432,3572,14,75,118
0.10000000000002274,3572,15,75,44
0.09999999999999432,3573,0,75,92
0.09999999999999432,3573,1,75,35
0.09999999999999432,3573,2,75,67
0.09999999999999432,3573,3,75,113
0.09999999999999432,3573,4,75,66
0.09999999999999432,3573,5,75,96
0.09999999999999432,3573,6,75,90
0.10000000000002274,3573,7,75,100
0.09999999999999432,3573,8,75,87
0.10000000000002274,3573,9,75,68
0.10000000000002274,3573,10,75,118
0.09999999999999432,3573,11,75,125
0.09999999999999432,3573,12,75,70
0.025000000000005684,3573,13,75,79
0.01590909090910486,3573,14,75,111
0.004545454545450411,3573,15,75,63
0.09999999999999432,3574,0,75,85
0.10000000000002274,3574,1,75,97
0.09999999999999432,3574,2,75,90
0.09999999999999432,3574,3,75,94
0.09999999999999432,3574,4,75,102
0.09999999999999432,3574,5,75,37
0.09999999999999432,3574,6,75,77
0.09999999999999432,3574,7,75,127
0.09999999999999432,3574,8,75,103
0.09999999999999432,3574,9,75,109
0.09999999999999432,3574,10,75,81
0.10000000000002274,3574,11,75,127
0.09999999999999432,3574,12,75,127
0.09999999999999432,3574,13,75,105
0.09999999999999432,3574,14,75,127
0.09999999999999432,3574,15,75,45
0.09999999999999432,3575,0,75,70
0.10000000000002274,3575,1,75,62
0.09999999999999432,3575,2,75,88
0.09999999999999432,3575,3,75,123
0.09999999999999432,3575,4,75,76
0.10000000000002274,3575,5,75,30
0.09999999999999432,3575,6,75,89
0.09999999999999432,3575,7,75,90
0.09999999999999432,3575,8,75,127
0.09999999999999432,3575,9,75,121
0.056818181818186986,3575,10,75,88
0.09999999999999432,3575,11,75,109
0.09999999999999432,3575,12,75,127
0.09999999999999432,3575,13,75,127
0.09999999999999432,3575,14,75,127
0.09999999999999432,3575,15,75,127
0.10000000000002274,3576,0,75,127
0.09999999999999432,3576,1,75,28
0.09999999999999432,3576,2,75,62
0.10000000000002274,3576,3,75,127
0.10000000000002274,3576,4,75,69
0.09999999999999432,3576,5,75,70
0.10000000000002274,3576,6,75,120
0.09999999999999432,3576,7,75,127
0.09999999999999432,3576,8,75,105
0.09999999999999432,3576,9,75,122
0.09999999999999432,3576,10,75,122
0.09999999999999432,3576,11,75,115
0.09999999999999432,3576,12,75,85
0.09999999999999432,3576,13,75,104
0.10000000000002274,3576,14,75,52
0.09999999999999432,3576,15,75,119
0.10000000000002274,3577,0,75,77
0.09999999999999432,3577,1,75,52
0.09999999999999432,3577,2,75,93
0.09999999999999432,3577,3,75,122
0.09999999999999432,3577,4,75,115
0.09999999999999432,3577,5,75,50
0.09999999999999432,3577,6,75,50
0.09999999999999432,3577,7,75,108
0.09999999999999432,3577,8,75,89
0.09999999999999432,3577,9,75,121
0.09999999999999432,3577,10,75,127
0.10000000000002274,3577,11,75,116
0.09999999999999432,3577,12,75,79
0.09999999999999432,3577,13,75,108
0.10000000000002274,3577,14,75,127
0.09999999999999432,3577,15,75,127
0.004545454545450411,3578,0,75,90
0.10000000000002274,3578,1,75,67
0.09999999999999432,3578,2,75,96
0.09999999999999432,3578,3,75,32
0.09999999999999432,3578,4,75,57
0.09999999999999432,3578,5,75,48
0.09999999999999432,3578,6,75,78
0.09999999999999432,3578,7,75,2
0.09999999999999432,3578,8,75,62
0.10000000000002274,3578,9,75,103
0.09999999999999432,3578,10,75,105
0.09999999999999432,3578,11,75,71
0.09999999999999432,3578,12,75,85
0.09999999999999432,3578,13,75,79
0.09999999999999432,3578,14,75,94
0.09999999999999432,3578,15,75,57
0.10000000000002274,3579,0,75,60
0.09999999999999432,3579,1,75,94
0.09999999999999432,3579,2,75,66
0.09999999999999432,3579,3,75,49
0.09999999999999432,3579,4,75,47
0.09999999999999432,3579,5,75,82
0.09999999999999432,3579,6,75,95
0.10000000000002274,3579,7,75,61
0.09999999999999432,3579,8,75,58
0.09999999999999432,3579,9,75,84
0.10000000000002274,3579,10,75,105
0.09999999999999432,3579,11,75,37
0.09999999999999432,3579,12,75,81
0.09999999999999432,3579,13,75,65
0.09999999999999432,3579,14,75,22
0.09999999999999432,3579,15,75,54
0.09999999999999432,3580,0,75,97
0.045454545454532536,3580,1,75,70
0.09999999999999432,3580,2,75,75
0.09999999999999432,3580,3,75,101
0.09999999999999432,3580,4,75,31
0.10000000000002274,3580,5,75,123
0.09999999999999432,3580,6,75,77
0.09999999999999432,3580,7,75,108
0.09999999999999432,3580,8,75,77
0.004545454545450411,3580,9,75,79
0.09999999999999432,3580,10,75,94
0.04545454545456096,3580,11,75,80
0.09999999999999432,3580,12,75,36
0.10000000000002274,3580,13,75,70
0.09999999999999432,3580,14,75,84
0.09999999999999432,3580,15,75,3
0.09999999999999432,3581,0,75,67
0.09999999999999432,3581,1,75,90
0.10000000000002274,3581,2,75,60
0.09999999999999432,3581,3,75,82
0.09999999999999432,3581,4,75,73
0.10000000000002274,3581,5,75,25
0.09999999999999432,3581,6,75,56
0.004545454545450411,3581,7,75,72
0.09999999999999432,3581,8,75,110
0.10000000000002274,3581,9,75,62
0.09999999999999432,3581,10,75,82
0.09999999999999432,3581,11,75,53
0.09999999999999432,3581,12,75,69
0.10000000000002274,3581,13,75,111
0.09999999999999432,3581,14,75,24
0.10000000000002274,3581,15,75,61
0.09999999999999432,3582,0,75,34
0.10000000000002274,3582,1,75,104
0.09999999999999432,3582,2,75,57
0.09999999999999432,3582,3,75,49
0.09999999999999432,3582,4,75,89
0.09999999999999432,3582,5,75,78
0.10000000000002274,3582,6,75,46
0.09999999999999432,3582,7,75,50
0.09999999999999432,3582,8,75,89
0.09999999999999432,3582,9,75,72
0.10000000000002274,3582,10,75,85
0.09999999999999432,3582,11,75,111
0.09999999999999432,3582,12,75,62
0.10000000000002274,3582,13,75,127
0.10000000000002274,3582,14,75,112
0.10000000000002274,3582,15,75,127
0.09999999999999432,3583,0,75,120
0.09999999999999432,3583,1,75,74
0.09999999999999432,3583,2,75,31
0.09999999999999432,3583,3,75,53
0.09999999999999432,3583,4,75,32
0.09999999999999432,3583,5,75,92
0.09999999999999432,3583,6,75,94
0.09999999999999432,3583,7,75,91
0.09999999999999432,3583,8,75,47
0.10000000000002274,3583,9,75,127
0.10000000000002274,3583,10,75,106
0.09999999999999432,3583,11,75,37
0.09999999999999432,3583,12,75,127
0.09999999999999432,3583,13,75,95
0.09999999999999432,3583,14,75,105
0.10000000000002274,3583,15,75,111
0.09999999999999432,3584,0,75,63
0.10000000000002274,3584,1,75,120
0.09999999999999432,3584,2,75,76
0.10000000000002274,3584,3,75,119
0.036363636363660135,3584,4,75,98
0.09999999999999432,3584,5,75,127
0.10000000000002274,3584,6,75,114
0.09999999999999432,3584,7,75,97
0.09999999999999432,3584,8,75,102
0.056818181818186986,3584,9,75,102
0.09999999999999432,3584,10,75,116
0.09999999999999432,3584,11,75,117
0.10000000000002274,3584,12,75,127
0.09999999999999432,3584,13,75,127
0.09999999999999432,3584,14,75,33
0.09999999999999432,3584,15,75,66
0.09999999999999432,3585,0,75,127
0.09999999999999432,3585,1,75,73
0.10000000000002274,3585,2,75,71
0.09999999999999432,3585,3,75,108
0.09999999999999432,3585,4,75,113
0.10000000000002274,3585,5,75,96
0.09999999999999432,3585,6,75,104
0.09999999999999432,3585,7,75,26
0.09999999999999432,3585,8,75,63
0.09999999999999432,3585,9,75,113
0.10000000000002274,3585,10,75,83
0.09999999999999432,3585,11,75,35
0.06818181818181301,3585,12,75,48
0.09999999999999432,3585,13,75,72
0.09999999999999432,3585,14,75,34
0.09999999999999432,3585,15,75,122
0.09999999999999432,3586,0,75,121
0.09999999999999432,3586,1,75,44
0.09999999999999432,3586,2,75,10
0.09999999999999432,3586,3,75,1
0.10000000000000142,3586,4,68,2
0.10000000000000142,3586,5,68,11
0.10000000000000142,3586,6,68,15
0.09999999999999787,3586,7,68,1
0.09999999999999432,3586,8,68,10
0.10000000000000142,3586,9,68,18
0.10000000000000142,3586,10,68,9
0.10000000000000142,3586,11,68,31
0.10000000000000142,3586,12,68,1
0.10000000000000142,3586,13,68,22
0.10000000000000142,3586,14,68,24
0.10000000000000142,3586,15,68,24
0.10000000000000142,3587,0,68,8
0.10000000000000142,3587,1,68,34
0.10000000000000142,3587,2,68,17
0.09999999999999432,3587,3,68,34
0.10000000000000142,3587,4,68,17
0.10000000000000142,3587,5,68,15
0.10000000000000142,3587,6,68,34
0.09999999999999432,3587,7,68,32
0.09999999999999432,3587,8,68,29
0.10000000000000142,3587,9,68,22
0.09999999999999432,3587,10,68,13
0.10000000000000142,3587,11,68,35
0.09999999999999432,3587,12,68,13
0.09999999999999432,3587,13,68,13
0.10000000000000853,3587,14,68,15
0.09999999999999432,3587,15,68,13
0.10000000000000853,3588,0,68,42
0.10000000000000853,3588,1,68,11
0.09999999999999432,3588,2,68,23
0.09999999999999432,3588,3,68,7
0.09999999999999432,3588,4,68,26
0.10000000000000853,3588,5,68,13
0.10000000000000853,3588,6,68,11
0.09999999999999432,3588,7,68,14
0.09999999999999432,3588,8,68,23
0.10000000000000853,3588,9,68,15
0.09999999999999432,3588,10,68,13
0.09999999999999432,3588,11,68,23
0.10000000000000853,3588,12,68,12
0.09999999999999432,3588,13,68,32
0.10000000000000853,3588,14,68,21
0.09999999999999432,3588,15,68,22
0.10000000000000853,3589,0,68,26
0.09999999999999432,3589,1,68,16
0.01590909090909065,3589,2,68,25
0.10000000000000853,3589,3,68,20
0.10000000000000853,3589,4,68,16
0.09999999999999432,3589,5,68,20
0.10000000000000853,3589,6,68,35
0.09999999999999432,3589,7,68,19
0.10000000000000853,3589,8,68,35
0.10000000000000853,3589,9,68,23
0.09999999999999432,3589,10,68,14
0.09999999999999432,3589,11,68,17
0.10000000000000853,3589,12,68,22
0.09999999999999432,3589,13,68,12
0.056818181818172775,3589,14,68,20
0.10000000000000853,3589,15,68,33
0.09999999999999432,3590,0,68,14
0.10000000000000853,3590,1,68,21
0.09999999999999432,3590,2,68,23
0.10000000000000853,3590,3,68,24
0.10000000000000853,3590,4,68,17
0.09999999999999432,3590,5,68,26
0.10000000000000853,3590,6,68,6
0.09999999999999432,3590,7,68,9
0.09999999999999432,3590,8,68,9
0.09999999999999432,3590,9,68,16
0.06818181818181301,3590,10,68,21
0.09999999999999432,3590,11,68,17
0.09999999999999432,3590,12,68,10
0.10000000000000853,3590,13,68,6
0.025000000000005684,3590,14,68,11
0.10000000000000853,3590,15,68,15
0.10000000000000853,3591,0,68,9
0.09999999999999432,3591,1,68,9
0.09999999999999432,3591,2,68,21
0.10000000000000853,3591,3,68,20
0.09999999999999432,3591,4,68,29
0.09999999999999432,3591,5,68,37
0.09999999999999432,3591,6,68,18
0.10000000000000853,3591,7,68,12
0.09999999999999432,3591,8,68,39
0.09999999999999432,3591,9,68,5
0.056818181818172775,3591,10,68,13
0.09999999999999432,3591,11,68,29
0.10000000000000853,3591,12,68,12
0.05909090909091219,3591,13,68,16
0.10000000000000853,3591,14,68,18
0.09999999999999432,3591,15,68,7
0.09999999999999432,3592,0,68,22
0.09999999999999432,3592,1,68,30
0.09999999999999432,3592,2,68,26
0.09999999999999432,3592,3,68,16
0.09999999999999432,3592,4,68,14
0.09999999999999432,3592,5,68,23
0.10000000000002274,3592,6,68,26
0.09999999999999432,3592,7,68,19
0.09999999999999432,3592,8,68,29
0.10000000000002274,3592,9,68,20
0.09999999999999432,3592,10,68,21
0.10000000000002274,3592,11,68,22
0.09999999999999432,3592,12,68,28
0.10000000000002274,3592,13,68,39
0.09999999999999432,3592,14,68,4
0.09999999999999432,3592,15,68,22
0.09999999999999432,3593,0,68,22
0.09999999999999432,3593,1,68,25
0.09999999999999432,3593,2,68,31
0.09999999999999432,3593,3,68,30
0.09999999999999432,3593,4,68,13
0.09999999999999432,3593,5,68,22
0.09999999999999432,3593,6,68,11
0.09999999999999432,3593,7,68,23
0.09999999999999432,3593,8,68,18
0.09999999999999432,3593,9,68,31
0.09999999999999432,3593,10,68,44
0.09999999999999432,3593,11,68,20
0.10000000000002274,3593,12,68,27
0.10000000000002274,3593,13,68,11
0.09999999999999432,3593,14,68,27
0.09999999999999432,3593,15,68,9
0.09999999999999432,3594,0,68,39
0.10000000000002274,3594,1,68,15
0.09999999999999432,3594,2,68,16
0.09999999999999432,3594,3,68,15
0.09999999999999432,3594,4,68,7
0.045454545454532536,3594,5,68,15
0.09999999999999432,3594,6,68,14
0.09999999999999432,3594,7,68,33
0.09999999999999432,3594,8,68,20
0.09999999999999432,3594,9,68,30
0.09999999999999987,3594,10,92,1
0.10000000000000009,3594,11,92,1
0.10000000000000009,3594,12,92,7
0.10000000000000009,3594,13,92,1
0.10000000000000009,3594,14,92,1
0.10000000000000009,3594,15,92,1
0.10000000000000009,3595,0,92,7
0.09999999999999964,3595,1,92,1
0.10000000000000009,3595,2,92,5
0.09999999999999964,3595,3,92,1
0.09999999999999964,3595,4,92,7
0.10000000000000053,3595,5,92,6
0.10000000000000053,3595,6,92,2
0.10000000000000053,3595,7,92,1
0.09999999999999964,3595,8,92,6
0.09999999999999964,3595,9,92,1
0.09999999999999964,3595,10,92,4
0.10000000000000053,3595,11,92,5
0.09999999999999964,3595,12,92,5
0.09999999999999964,3595,13,92,1
0.09999999999999964,3595,14,92,1
0.09999999999999964,3595,15,92,1
0.09999999999999964,3596,0,92,1
0.09999999999999964,3596,1,92,7
0.09999999999999964,3596,2,92,5
0.09999999999999964,3596,3,92,7
0.09999999999999964,3596,4,92,1
0.09999999999999964,3596,5,92,1
0.09999999999999964,3596,6,92,6
0.09999999999999964,3596,7,92,4
0.09999999999999964,3596,8,92,1
0.09999999999999964,3596,9,92,7
0.09999999999999964,3596,10,92,1
0.09999999999999964,3596,11,92,1
0.09999999999999964,3596,12,92,8
0.10000000000000142,3596,13,92,8
0.09999999999999964,3596,14,92,7
0.09999999999999964,3596,15,92,1
0.09999999999999964,3597,0,92,1
0.09999999999999964,3597,1,92,6
0.10000000000000142,3597,2,92,7
0.10000000000000142,3597,3,92,8
0.09999999999999787,3597,4,92,1
0.09999999999999787,3597,5,92,6
0.10000000000000142,3597,6,92,1
0.10000000000000142,3597,7,92,1
0.09999999999999787,3597,8,92,5
0.10000000000000142,3597,9,92,1
0.09999999999999787,3597,10,92,1
0.09999999999999787,3597,11,92,1
0.10000000000000142,3597,12,92,5
0.09999999999999787,3597,13,92,5
0.10000000000000142,3597,14,92,1
0.09999999999999787,3597,15,92,4
0.09999999999999787,3598,0,92,1
0.09999999999999787,3598,1,92,1
0.10000000000000142,3598,2,92,1
0.10000000000000142,3598,3,92,7
0.09999999999999787,3598,4,92,4
0.09999999999999787,3598,5,92,1
0.09999999999999787,3598,6,92,4
0.10000000000000142,3598,7,92,1
0.10000000000000142,3598,8,92,6
0.09999999999999787,3598,9,92,5
0.09999999999999787,3598,10,92,6
0.10000000000000142,3598,11,92,1
0.10000000000000142,3598,12,92,1
0.09999999999999787,3598,13,92,7
0.10000000000000142,3598,14,92,5
0.10000000000000142,3598,15,92,4
0.10000000000000142,3599,0,92,1
0.09999999999999787,3599,1,92,7
0.10000000000000142,3599,2,92,6
0.10000000000000142,3599,3,92,6
0.09999999999999787,3599,4,92,1
0.09999999999999787,3599,5,92,8
0.10000000000000142,3599,6,92,5
0.10000000000000142,3599,7,92,1
0.09999999999999787,3599,8,92,1
0.10000000000000142,3599,9,92,5
0.10000000000000142,3599,10,92,1
0.09999999999999787,3599,11,92,2
0.09999999999999787,3599,12,92,1
0.09999999999999787,3599,13,92,6
0.10000000000000142,3599,14,92,1
0.10000000000000142,3599,15,92,1
0.09999999999999787,3600,0,92,3
0.10000000000000142,3600,1,92,1
0.10000000000000142,3600,2,92,1
0.10000000000000142,3600,3,92,1
0.10000000000000142,3600,4,92,5
0.10000000000000142,3600,5,92,1
0.09999999999999432,3600,6,92,1
0.10000000000000142,3600,7,92,1
0.10000000000000142,3600,8,92,6
0.10000000000000142,3600,9,92,1
0.09999999999999432,3600,10,92,7
0.10000000000000142,3600,11,92,6
0.10000000000000142,3600,12,92,127
0.10000000000000142,3600,13,92,125
0.09999999999999432,3600,14,92,123
0.10000000000000142,3600,15,92,127
0.10000000000000142,3601,0,92,127
0.10000000000000142,3601,1,92,127
0.10000000000000142,3601,2,92,127
0.10000000000000142,3601,3,92,127
0.10000000000000142,3601,4,92,127
0.09999999999999432,3601,5,92,127
0.10000000000000142,3601,6,92,127
0.10000000000000142,3601,7,92,127
0.10000000000000142,3601,8,92,127
0.10000000000000142,3601,9,92,127
0.10000000000000142,3601,10,92,127
0.10000000000000142,3601,11,92,127
0.10000000000000142,3601,12,92,115
0.10000000000000142,3601,13,92,127
0.10000000000000142,3601,14,92,117
0.09999999999999432,3601,15,92,127
0.10000000000000142,3602,0,92,127
0.10000000000000142,3602,1,92,125
0.10000000000000142,3602,2,92,127
0.10000000000000142,3602,3,92,127
0.10000000000000142,3602,4,92,125
0.10000000000000142,3602,5,92,127
0.10000000000000142,3602,6,92,127
0.09999999999999432,3602,7,92,127
0.10000000000000142,3602,8,92,127
0.10000000000000142,3602,9,92,127
0.10000000000000142,3602,10,92,124
0.10000000000000142,3602,11,92,127
0.10000000000000142,3602,12,92,127
0.10000000000000142,3602,13,92,127
0.09999999999999432,3602,14,92,124
0.09999999999999432,3602,15,92,127
0.10000000000000142,3603,0,92,127
0.10000000000000142,3603,1,92,127
0.09999999999999432,3603,2,92,127
0.10000000000000142,3603,3,92,127
0.10000000000000142,3603,4,92,127
0.10000000000000142,3603,5,92,126
0.09999999999999432,3603,6,92,127
0.10000000000000142,3603,7,92,124
0.10000000000000142,3603,8,92,127
0.10000000000000142,3603,9,92,127
0.10000000000000142,3603,10,92,107
0.10000000000000142,3603,11,92,122
0.09999999999999432,3603,12,92,114
0.10000000000000142,3603,13,92,112
0.10000000000000142,3603,14,92,127
0.10000000000000142,3603,15,92,126
0.09999999999999432,3604,0,92,116
0.10000000000000142,3604,1,92,102
0.09999999999999432,3604,2,92,126
0.10000000000000853,3604,3,92,4
0.10000000000000853,3604,4,92,127
0.09999999999999432,3604,5,92,115
0.09999999999999432,3604,6,92,111
0.09999999999999432,3604,7,92,114
0.10000000000000853,3604,8,92,108
0.10000000000000853,3604,9,92,109
0.09999999999999432,3604,10,92,116
0.09999999999999432,3604,11,92,109
0.10000000000000853,3604,12,92,96
0.09999999999999432,3604,13,92,94
0.09999999999999432,3604,14,92,127
0.10000000000000853,3604,15,92,15
0.10000000000000853,3605,0,92,127
0.09999999999999432,3605,1,92,117
0.10000000000000853,3605,2,92,113
0.09999999999999432,3605,3,92,108
0.09999999999999432,3605,4,92,125
0.09999999999999432,3605,5,92,114
0.10000000000000853,3605,6,92,2
0.10000000000000853,3605,7,92,127
0.09999999999999432,3605,8,92,127
0.10000000000000853,3605,9,92,93
0.09999999999999432,3605,10,92,127
0.09999999999999432,3605,11,92,127
0.10000000000000853,3605,12,92,127
0.10000000000000853,3605,13,92,15
0.09999999999999432,3605,14,92,127
0.10000000000000853,3605,15,92,123
0.10000000000000853,3606,0,92,117
0.10000000000000853,3606,1,92,127
0.09999999999999432,3606,2,92,125
0.09999999999999432,3606,3,92,127
0.10000000000000853,3606,4,92,127
0.09999999999999432,3606,5,92,127
0.10000000000000853,3606,6,92,127
0.09999999999999432,3606,7,92,127
0.09999999999999432,3606,8,92,127
0.10000000000000853,3606,9,92,127
0.09999999999999432,3606,10,92,127
0.09999999999999432,3606,11,92,127
0.10000000000000853,3606,12,92,127
0.09999999999999432,3606,13,92,127
0.09999999999999432,3606,14,92,127
0.10000000000000853,3606,15,92,110
0.09999999999999432,3607,0,92,127
0.09999999999999432,3607,1,92,127
0.10000000000000853,3607,2,92,127
0.09999999999999432,3607,3,92,127
0.09999999999999432,3607,4,92,127
0.09999999999999432,3607,5,92,127
0.09999999999999432,3607,6,92,127
0.10000000000000853,3607,7,92,120
0.09999999999999432,3607,8,92,127
0.10000000000000853,3607,9,92,127
0.10000000000000853,3607,10,92,127
0.09999999999999432,3607,11,92,127
0.09999999999999432,3607,12,92,127
0.10000000000000853,3607,13,92,127
0.09999999999999432,3607,14,92,127
0.10000000000000853,3607,15,92,127
0.09999999999999432,3608,0,92,127
0.09999999999999432,3608,1,92,127
0.10000000000000853,3608,2,92,9
0.10000000000000853,3608,3,92,127
0.09999999999999432,3608,4,92,127
0.09999999999999432,3608,5,92,11
0.09999999999999432,3608,6,92,127
0.09999999999999432,3608,7,92,11
0.10000000000000853,3608,8,92,127
0.10000000000000853,3608,9,92,4
0.09999999999999432,3608,10,92,127
0.09999999999999432,3608,11,92,12
0.09999999999999432,3608,12,92,127
0.10000000000000853,3608,13,92,119
0.09999999999999432,3608,14,92,9
0.09999999999999432,3608,15,92,127
0.10000000000000853,3609,0,92,2
0.10000000000000853,3609,1,92,127
0.10000000000000853,3609,2,92,127
0.09999999999999432,3609,3,92,127
0.10000000000000853,3609,4,92,127
0.09999999999999432,3609,5,92,14
0.09999999999999432,3609,6,92,127
0.09999999999999432,3609,7,92,4
0.09999999999999432,3609,8,92,127
0.10000000000000853,3609,9,92,7
0.10000000000000853,3609,10,92,93
0.09999999999999432,3609,11,92,13
0.09999999999999432,3609,12,92,127
0.09999999999999432,3609,13,92,4
0.09999999999999432,3609,14,92,127
0.10000000000000853,3609,15,92,127
0.09999999999999432,3610,0,92,11
0.09999999999999432,3610,1,92,127
0.09999999999999432,3610,2,92,13
0.09999999999999432,3610,3,92,127
0.10000000000000853,3610,4,92,14
0.10000000000000853,3610,5,92,127
0.09999999999999432,3610,6,92,12
0.10000000000000853,3610,7,92,125
0.10000000000000853,3610,8,92,7
0.10000000000000853,3610,9,92,127
0.09999999999999432,3610,10,92,127
0.10000000000000853,3610,11,92,111
0.09999999999999432,3610,12,92,127
0.09999999999999432,3610,13,92,127
0.10000000000000853,3610,14,92,127
0.09999999999999432,3610,15,92,127
0.09999999999999432,3611,0,92,127
0.10000000000000853,3611,1,92,127
0.09999999999999432,3611,2,92,127
0.09999999999999432,3611,3,92,127
0.10000000000000853,3611,4,92,110
0.09999999999999432,3611,5,92,127
0.10000000000000853,3611,6,92,127
0.09999999999999432,3611,7,92,127
0.09999999999999432,3611,8,92,127
0.10000000000000853,3611,9,92,127
0.09999999999999432,3611,10,92,127
0.09999999999999432,3611,11,92,127
0.09999999999999432,3611,12,92,127
0.10000000000002274,3611,13,92,99
0.09999999999999432,3611,14,92,127
0.09999999999999432,3611,15,92,127
0.10000000000002274,3612,0,92,122
0.09999999999999432,3612,1,92,127
0.09999999999999432,3612,2,92,125
0.09999999999999432,3612,3,92,127
0.09999999999999432,3612,4,92,127
0.09999999999999432,3612,5,92,127
0.09999999999999432,3612,6,92,127
0.09999999999999432,3612,7,92,127
0.10000000000002274,3612,8,92,125
0.10000000000002274,3612,9,92,127
0.09999999999999432,3612,10,92,127
0.09999999999999432,3612,11,92,119
0.09999999999999432,3612,12,92,127
0.09999999999999432,3612,13,92,127
0.09999999999999432,3612,14,92,127
0.09999999999999432,3612,15,92,127
0.10000000000002274,3613,0,92,127
0.09999999999999432,3613,1,92,127
0.09999999999999432,3613,2,92,127
0.10000000000002274,3613,3,92,127
0.10000000000002274,3613,4,92,127
0.09999999999999432,3613,5,92,127
0.09999999999999432,3613,6,92,127
0.09999999999999432,3613,7,92,127
0.10000000000002274,3613,8,92,127
0.09999999999999432,3613,9,92,127
0.09999999999999432,3613,10,92,127
0.10000000000002274,3613,11,92,127
0.10000000000002274,3613,12,92,127
0.09999999999999432,3613,13,92,127
0.10000000000002274,3613,14,92,127
0.10000000000002274,3613,15,92,127
0.09999999999999432,3614,0,92,127
0.09999999999999432,3614,1,92,127
0.09999999999999432,3614,2,92,127
0.10000000000002274,3614,3,92,127
0.09999999999999432,3614,4,92,127
0.09999999999999432,3614,5,92,127
0.10000000000002274,3614,6,92,127
0.09999999999999432,3614,7,92,114
0.09999999999999432,3614,8,92,127
0.09999999999999432,3614,9,92,112
0.09999999999999432,3614,10,92,90
0.06818181818181301,3614,11,92,127
0.09999999999999432,3614,12,92,124
0.09999999999999432,3614,13,92,118
0.09999999999999432,3614,14,92,127
0.10000000000002274,3614,15,92,125
0.09999999999999432,3615,0,92,125
0.09999999999999432,3615,1,92,127
0.10000000000002274,3615,2,92,116
0.09999999999999432,3615,3,92,81
0.056818181818186986,3615,4,92,126
0.09999999999999432,3615,5,92,127
0.09999999999999432,3615,6,92,127
0.09999999999999432,3615,7,92,127
0.09999999999999432,3615,8,92,127
0.09999999999999432,3615,9,92,127
0.09999999999999432,3615,10,92,127
0.10000000000002274,3615,11,92,127
0.09999999999999432,3615,12,92,77
0.056818181818186986,3615,13,92,127
0.09999999999999432,3615,14,92,127
0.09999999999999432,3615,15,92,127
0.09999999999999432,3616,0,92,127
0.09999999999999432,3616,1,92,98
0.06818181818181301,3616,2,92,127
0.09999999999999432,3616,3,92,127
0.09999999999999432,3616,4,92,127
0.09999999999999432,3616,5,92,15
0.09999999999999432,3616,6,92,127
0.09999999999999432,3616,7,92,127
0.09999999999999432,3616,8,92,6
0.09999999999999432,3616,9,92,127
0.10000000000002274,3616,10,92,9
0.09999999999999432,3616,11,92,127
0.10000000000002274,3616,12,92,11
0.09999999999999432,3616,13,92,5
0.09999999999999432,3616,14,92,127
0.09999999999999432,3616,15,92,12
0.09999999999999432,3617,0,92,127
0.10000000000002274,3617,1,92,127
0.09999999999999432,3617,2,92,4
0.09999999999999432,3617,3,92,127
0.09999999999999432,3617,4,92,7
0.09999999999999432,3617,5,92,127
0.09999999999999432,3617,6,92,12
0.09999999999999432,3617,7,92,5
0.09999999999999432,3617,8,92,127
0.09999999999999432,3617,9,92,9
0.10000000000002274,3617,10,92,127
0.09999999999999432,3617,11,92,127
0.09999999999999432,3617,12,92,3
0.09999999999999432,3617,13,92,127
0.10000000000002274,3617,14,92,7
0.09999999999999432,3617,15,92,127
0.10000000000002274,3618,0,92,9
0.09999999999999432,3618,1,92,4
0.09999999999999432,3618,2,92,127
0.09999999999999432,3618,3,92,11
0.09999999999999432,3618,4,92,127
0.09999999999999432,3618,5,92,127
0.09999999999999432,3618,6,92,3
0.09999999999999432,3618,7,92,127
0.09999999999999432,3618,8,92,7
0.09999999999999432,3618,9,92,127
0.09999999999999432,3618,10,92,11
0.09999999999999432,3618,11,92,3
0.09999999999999432,3618,12,92,127
0.09999999999999432,3618,13,92,12
0.10000000000002274,3618,14,92,127
0.10000000000002274,3618,15,92,127
0.10000000000002274,3619,0,92,4
0.09999999999999432,3619,1,92,127
0.10000000000002274,3619,2,92,6
0.09999999999999432,3619,3,92,127
0.09999999999999432,3619,4,92,8
0.09999999999999432,3619,5,92,4
0.09999999999999432,3619,6,92,127
0.09999999999999432,3619,7,92,13
0.09999999999999432,3619,8,92,127
0.09999999999999432,3619,9,92,127
0.10000000000002274,3619,10,92,4
0.09999999999999432,3619,11,92,127
0.09999999999999432,3619,12,92,11
0.09999999999999432,3619,13,92,127
0.09999999999999432,3619,14,92,8
0.09999999999999432,3619,15,92,4
0.09999999999999432,3620,0,92,127
0.09999999999999432,3620,1,92,11
0.09999999999999432,3620,2,92,127
0.10000000000002274,3620,3,92,127
0.09999999999999432,3620,4,92,4
0.09999999999999432,3620,5,92,127
0.09999999999999432,3620,6,92,5
0.09999999999999432,3620,7,92,127
0.09999999999999432,3620,8,92,11
0.09999999999999432,3620,9,92,4
0.10000000000002274,3620,10,92,127
0.10000000000002274,3620,11,92,10
0.10000000000002274,3620,12,92,127
0.09999999999999432,3620,13,92,127
0.10000000000002274,3620,14,92,3
0.09999999999999432,3620,15,92,127
0.09999999999999432,3621,0,92,6
0.09999999999999432,3621,1,92,127
0.09999999999999432,3621,2,92,127
0.09999999999999432,3621,3,92,15
0.09999999999999432,3621,4,92,127
0.09999999999999432,3621,5,92,127
0.09999999999999432,3621,6,92,10
0.09999999999999432,3621,7,92,127
0.09999999999999432,3621,8,92,10
0.09999999999999432,3621,9,92,127
0.09999999999999432,3621,10,92,14
0.10000000000002274,3621,11,92,127
0.09999999999999432,3621,12,92,106
0.09999999999999432,3621,13,92,127
0.09999999999999432,3621,14,92,12
0.09999999999999432,3621,15,92,127
0.09999999999999432,3622,0,92,127
0.10000000000002274,3622,1,92,14
0.09999999999999432,3622,2,92,127
0.09999999999999432,3622,3,92,97
0.09999999999999432,3622,4,92,127
0.09999999999999432,3622,5,92,12
0.09999999999999432,3622,6,92,127
0.10000000000002274,3622,7,92,127
0.09999999999999432,3622,8,92,15
0.10000000000002274,3622,9,92,127
0.10000000000002274,3622,10,92,106
0.09999999999999432,3622,11,92,9
0.09999999999999432,3622,12,92,127
0.09999999999999432,3622,13,92,12
0.09999999999999432,3622,14,92,127
0.09999999999999432,3622,15,92,10
0.10000000000002274,3623,0,92,127
0.10000000000002274,3623,1,92,14
0.09999999999999432,3623,2,92,127
0.09999999999999432,3623,3,92,127
0.09999999999999432,3623,4,92,11
0.09999999999999432,3623,5,92,127
0.09999999999999432,3623,6,92,127
0.09999999999999432,3623,7,92,14
0.09999999999999432,3623,8,92,127
0.09999999999999432,3623,9,92,127
0.09999999999999432,3623,10,92,13
0.09999999999999432,3623,11,92,127
0.09999999999999432,3623,12,92,127
0.10000000000002274,3623,13,92,14
0.09999999999999432,3623,14,92,127
0.09999999999999432,3623,15,92,127
0.09999999999999432,3624,0,92,12
0.10000000000002274,3624,1,92,127
0.09999999999999432,3624,2,92,67
0.09999999999999432,3624,3,92,127
0.09999999999999432,3624,4,92,14
0.09999999999999432,3624,5,92,127
0.09999999999999432,3624,6,92,127
0.09999999999999432,3624,7,92,12
0.10000000000002274,3624,8,92,127
0.09999999999999432,3624,9,92,10
0.10000000000002274,3624,10,92,127
0.10000000000002274,3624,11,92,15
0.09999999999999432,3624,12,92,127
0.09999999999999432,3624,13,92,115
0.09999999999999432,3624,14,92,127
0.09999999999999432,3624,15,92,12
0.10000000000002274,3625,0,92,127
0.09999999999999432,3625,1,92,127
0.09999999999999432,3625,2,92,15
0.09999999999999432,3625,3,92,127
0.09999999999999432,3625,4,92,127
0.10000000000002274,3625,5,92,13
0.09999999999999432,3625,6,92,127
0.09999999999999432,3625,7,92,10
0.09999999999999432,3625,8,92,127
0.09999999999999432,3625,9,92,13
0.09999999999999432,3625,10,92,127
0.09999999999999432,3625,11,92,127
0.09999999999999432,3625,12,92,11
0.10000000000002274,3625,13,92,127
0.09999999999999432,3625,14,92,127
0.09999999999999432,3625,15,92,14
0.09999999999999432,3626,0,92,127
0.09999999999999432,3626,1,92,102
0.09999999999999432,3626,2,92,127
0.10000000000002274,3626,3,92,12
0.09999999999999432,3626,4,92,127
0.09999999999999432,3626,5,92,10
0.09999999999999432,3626,6,92,127
0.09999999999999432,3626,7,92,14
0.09999999999999432,3626,8,92,127
0.09999999999999432,3626,9,92,107
0.09999999999999432,3626,10,92,127
0.09999999999999432,3626,11,92,12
0.09999999999999432,3626,12,92,127
0.09999999999999432,3626,13,92,127
0.09999999999999432,3626,14,92,14
0.09999999999999432,3626,15,92,127
0.09999999999999432,3627,0,92,113
0.10000000000002274,3627,1,92,127
0.10000000000002274,3627,2,92,12
0.09999999999999432,3627,3,92,127
0.09999999999999432,3627,4,92,127
0.09999999999999432,3627,5,92,14
0.09999999999999432,3627,6,92,127
0.09999999999999432,3627,7,92,127
0.09999999999999432,3627,8,92,12
0.09999999999999432,3627,9,92,127
0.09999999999999432,3627,10,92,95
0.10000000000000009,3627,11,62,52
0.09999999999999964,3627,12,62,42
0.09999999999999964,3627,13,62,34
0.09999999999999964,3627,14,62,62
0.10000000000000142,3627,15,62,35
0.10000000000000142,3628,0,62,44
0.10000000000000142,3628,1,62,29
0.09999999999999787,3628,2,62,68
0.10000000000000142,3628,3,62,30
0.09999999999999432,3628,4,62,19
0.10000000000000142,3628,5,62,38
0.10000000000000142,3628,6,62,52
0.10000000000000142,3628,7,62,37
0.10000000000000142,3628,8,62,43
0.10000000000000142,3628,9,62,41
0.10000000000000142,3628,10,62,42
0.09999999999999432,3628,11,62,23
0.09999999999999432,3628,12,62,37
0.10000000000000853,3628,13,62,35
0.09999999999999432,3628,14,62,27
0.10000000000000853,3628,15,62,28
0.10000000000000853,3629,0,62,36
0.10000000000000853,3629,1,62,48
0.09999999999999432,3629,2,62,51
0.09999999999999432,3629,3,62,39
0.10000000000000853,3629,4,62,25
0.10000000000000853,3629,5,62,32
0.09999999999999432,3629,6,62,28
0.10000000000000853,3629,7,62,41
0.09999999999999432,3629,8,62,30
0.09999999999999432,3629,9,62,51
0.09999999999999432,3629,10,62,29
0.09999999999999432,3629,11,62,30
0.09999999999999432,3629,12,62,30
0.09999999999999432,3629,13,62,18
0.09999999999999432,3629,14,62,37
0.09999999999999432,3629,15,62,36
0.09999999999999432,3630,0,62,26
0.09999999999999432,3630,1,62,46
0.09999999999999432,3630,2,62,38
0.09999999999999432,3630,3,62,30
0.10000000000002274,3630,4,62,6
0.09999999999999432,3630,5,62,27
0.10000000000002274,3630,6,62,28
0.09999999999999432,3630,7,62,34
0.09999999999999432,3630,8,62,58
0.09999999999999432,3630,9,62,31
0.09999999999999432,3630,10,62,25
0.09999999999999432,3630,11,62,41
0.10000000000002274,3630,12,62,34
0.10000000000002274,3630,13,62,77
0.09999999999999432,3630,14,62,74
0.09999999999999432,3630,15,62,45
0.09999999999999432,3631,0,62,55
0.09999999999999432,3631,1,62,29
0.10000000000002274,3631,2,62,22
0.09999999999999432,3631,3,62,57
0.09999999999999432,3631,4,62,32
0.09999999999999432,3631,5,62,77
0.09999999999999432,3631,6,62,69
0.09999999999999432,3631,7,62,20
0.09999999999999432,3631,8,62,49
0.09999999999999432,3631,9,62,30
0.09999999999999432,3631,10,62,27
0.10000000000002274,3631,11,62,18
0.09999999999999432,3631,12,62,18
0.09999999999999432,3631,13,62,34
0.10000000000002274,3631,14,62,36
0.09999999999999432,3631,15,62,15
0.09999999999999432,3632,0,62,16
0.09999999999999432,3632,1,62,38
0.09999999999999432,3632,2,62,40
0.09999999999999432,3632,3,62,19
0.10000000000002274,3632,4,62,53
0.09999999999999432,3632,5,62,24
0.09999999999999432,3632,6,62,18
0.09999999999999432,3632,7,62,18
0.09999999999999432,3632,8,62,38
0.09999999999999432,3632,9,62,33
0.09999999999999432,3632,10,62,20
0.09999999999999432,3632,11,62,15
0.09999999999999432,3632,12,62,42
0.09999999999999432,3632,13,62,27
0.10000000000002274,3632,14,62,33
0.09999999999999432,3632,15,62,32
0.10000000000002274,3633,0,62,25
0.09999999999999432,3633,1,62,48
0.09999999999999432,3633,2,62,31
0.09999999999999432,3633,3,62,23
0.10000000000002274,3633,4,62,15
0.10000000000002274,3633,5,62,40
0.09999999999999432,3633,6,62,35
0.09999999999999432,3633,7,62,16
0.09999999999999432,3633,8,62,47
0.09999999999999432,3633,9,62,18
0.09999999999999432,3633,10,62,50
0.09999999999999432,3633,11,62,29
0.09999999999999432,3633,12,62,23
0.10000000000002274,3633,13,62,19
0.09999999999999432,3633,14,62,18
0.09999999999999432,3633,15,62,26
0.10000000000000142,3634,0,61,9
0.06818181818181301,3634,1,61,18
0.10000000000000142,3634,2,61,32
0.10000000000000142,3634,3,61,11
0.09999999999999432,3634,4,61,27
0.10000000000000142,3634,5,61,23
0.10000000000000142,3634,6,61,19
0.10000000000000142,3634,7,61,29
0.09999999999999432,3634,8,61,43
0.10000000000000142,3634,9,61,60
0.09999999999999432,3634,10,61,51
0.10000000000000853,3634,11,61,75
0.09999999999999432,3634,12,61,28
0.09999999999999432,3634,13,61,93
0.09999999999999432,3634,14,61,51
0.09999999999999432,3634,15,61,60
0.10000000000000853,3635,0,61,43
0.09999999999999432,3635,1,61,7
0.10000000000000853,3635,2,61,14
0.10000000000000853,3635,3,61,26
0.09999999999999432,3635,4,61,23
0.09999999999999432,3635,5,61,24
0.10000000000000853,3635,6,61,26
0.10000000000000853,3635,7,61,18
0.09999999999999432,3635,8,61,23
0.10000000000000853,3635,9,61,26
0.09999999999999432,3635,10,61,43
0.10000000000000853,3635,11,61,31
0.10000000000000853,3635,12,61,43
0.09999999999999432,3635,13,61,47
0.10000000000000853,3635,14,61,25
0.09999999999999432,3635,15,61,43
0.09999999999999432,3636,0,61,36
0.09999999999999432,3636,1,61,29
0.09999999999999432,3636,2,61,29
0.10000000000000853,3636,3,61,20
0.10000000000000853,3636,4,61,35
0.09999999999999432,3636,5,61,16
0.09999999999999432,3636,6,61,23
0.09999999999999432,3636,7,61,36
0.09999999999999432,3636,8,61,30
0.10000000000002274,3636,9,61,16
0.06818181818184144,3636,10,61,19
0.09999999999999432,3636,11,61,16
0.09999999999999432,3636,12,61,19
0.06818181818181301,3636,13,61,26
0.09999999999999432,3636,14,61,39
0.09999999999999432,3636,15,61,14
0.10000000000002274,3637,0,61,33
0.06818181818184144,3637,1,61,44
0.09999999999999432,3637,2,61,39
0.10000000000002274,3637,3,61,14
0.09999999999999432,3637,4,61,8
0.10000000000002274,3637,5,61,18
0.10000000000002274,3637,6,61,14
0.09999999999999432,3637,7,61,49
0.10000000000002274,3637,8,61,69
0.09999999999999432,3637,9,61,58
0.09999999999999432,3637,10,61,86
0.09999999999999432,3637,11,61,67
0.09999999999999432,3637,12,61,72
0.09999999999999432,3637,13,61,80
0.09999999999999432,3637,14,61,67
0.10000000000002274,3637,15,61,44
0.09999999999999432,3638,0,61,117
0.09999999999999432,3638,1,61,87
0.09999999999999432,3638,2,61,108
0.09999999999999432,3638,3,61,111
0.06818181818181301,3638,4,61,91
0.09999999999999432,3638,5,61,75
0.10000000000002274,3638,6,61,56
0.09999999999999432,3638,7,61,57
0.09999999999999432,3638,8,61,81
0.10000000000002274,3638,9,61,59
0.09999999999999432,3638,10,61,62
0.09999999999999432,3638,11,61,65
0.09999999999999432,3638,12,61,127
0.09999999999999432,3638,13,61,113
0.056818181818186986,3638,14,61,93
0.10000000000002274,3638,15,61,96
0.09999999999999432,3639,0,61,106
0.09999999999999432,3639,1,61,65
0.10000000000002274,3639,2,61,92
0.056818181818186986,3639,3,61,71
0.09999999999999432,3639,4,61,92
0.09999999999999432,3639,5,61,102
0.09999999999999432,3639,6,61,75
0.10000000000002274,3639,7,61,46
0.09999999999999432,3639,8,61,49
0.09999999999999432,3639,9,61,42
0.10000000000002274,3639,10,61,47
0.10000000000002274,3639,11,61,50
0.09999999999999432,3639,12,61,37
0.04545454545456096,3639,13,61,37
0.09999999999999432,3639,14,61,37
0.09999999999999432,3639,15,61,91
0.06818181818181301,3640,0,61,85
0.10000000000002274,3640,1,61,60
0.09999999999999432,3640,2,61,67
0.09999999999999432,3640,3,61,71
0.10000000000002274,3640,4,61,80
0.09999999999999432,3640,5,61,50
0.09999999999999432,3640,6,61,38
0.09999999999999432,3640,7,61,39
0.10000000000002274,3640,8,61,42
0.09999999999999432,3640,9,61,62
0.09999999999999432,3640,10,61,84
0.09999999999999432,3640,11,61,41
0.09999999999999432,3640,12,61,46
0.09999999999999432,3640,13,61,35
0.09999999999999432,3640,14,61,44
0.09999999999999432,3640,15,61,53
0.09999999999999432,3641,0,61,46
0.09999999999999432,3641,1,61,54
0.09999999999999432,3641,2,61,54
0.09999999999999432,3641,3,61,62
0.09999999999999432,3641,4,61,46
0.09999999999999432,3641,5,61,39
0.09999999999999432,3641,6,61,66
0.09999999999999432,3641,7,61,76
0.09999999999999432,3641,8,61,51
0.09999999999999432,3641,9,61,60
0.09999999999999432,3641,10,61,94
0.09999999999999432,3641,11,61,52
0.10000000000002274,3641,12,61,62
0.09999999999999432,3641,13,61,63
0.09999999999999432,3641,14,61,68
0.10000000000002274,3641,15,61,27
0.09999999999999432,3642,0,61,25
0.09999999999999432,3642,1,61,63
0.09999999999999998,3642,2,73,58
0.09999999999999987,3642,3,73,65
0.09999999999999987,3642,4,73,98
0.10000000000000009,3642,5,73,36
0.10000000000000009,3642,6,73,63
0.10000000000000009,3642,7,73,63
0.10000000000000009,3642,8,73,96
0.09999999999999964,3642,9,73,73
0.10000000000000053,3642,10,73,63
0.09999999999999964,3642,11,73,89
0.09999999999999964,3642,12,73,87
0.09999999999999964,3642,13,73,75
0.09999999999999964,3642,14,73,85
0.09999999999999964,3642,15,73,46
0.09999999999999964,3643,0,73,89
0.10000000000000053,3643,1,73,32
0.09999999999999964,3643,2,73,11
0.09999999999999964,3643,3,73,14
0.09999999999999964,3643,4,73,32
0.05681818181818166,3643,5,73,74
0.09999999999999964,3643,6,73,80
0.09999999999999964,3643,7,73,111
0.09999999999999964,3643,8,73,109
0.09999999999999964,3643,9,73,41
0.09999999999999964,3643,10,73,65
0.09999999999999964,3643,11,73,103
0.10000000000000142,3643,12,73,20
0.09999999999999964,3643,13,73,101
0.09999999999999964,3643,14,73,80
0.09999999999999964,3643,15,73,34
0.10000000000000142,3644,0,73,127
0.10000000000000142,3644,1,73,36
0.10000000000000142,3644,2,73,9
0.09999999999999964,3644,3,73,1
0.10000000000000142,3644,4,73,121
0.10000000000000142,3644,5,73,88
0.10000000000000142,3644,6,73,24
0.10000000000000142,3644,7,73,28
0.10000000000000142,3644,8,73,95
0.09999999999999787,3644,9,73,41
0.09999999999999787,3644,10,73,55
0.10000000000000142,3644,11,73,8
0.10000000000000142,3644,12,73,35
0.09999999999999787,3644,13,73,47
0.09999999999999787,3644,14,73,41
0.09999999999999787,3644,15,73,28
0.09999999999999787,3645,0,73,8
0.10000000000000142,3645,1,73,70
0.09999999999999787,3645,2,73,85
0.10000000000000142,3645,3,73,62
0.10000000000000142,3645,4,73,14
0.10000000000000142,3645,5,73,11
0.09999999999999787,3645,6,73,69
0.10000000000000142,3645,7,73,106
0.09999999999999787,3645,8,73,81
0.09999999999999787,3645,9,73,125
0.09999999999999787,3645,10,73,127
0.09999999999999787,3645,11,73,31
0.10000000000000142,3645,12,73,106
0.10000000000000142,3645,13,73,44
0.10000000000000142,3645,14,73,50
0.015909090909094203,3645,15,73,58
0.10000000000000142,3646,0,73,115
0.10000000000000142,3646,1,73,88
0.10000000000000142,3646,2,73,127
0.09999999999999787,3646,3,73,23
0.09999999999999787,3646,4,73,73
0.05681818181817988,3646,5,73,127
0.10000000000000142,3646,6,73,85
0.09999999999999787,3646,7,73,127
0.10000000000000142,3646,8,73,70
0.09999999999999787,3646,9,73,121
0.09999999999999787,3646,10,73,127
0.09999999999999787,3646,11,73,36
0.10000000000000142,3646,12,73,127
0.10000000000000142,3646,13,73,110
0.10000000000000142,3646,14,73,20
0.10000000000000142,3646,15,73,31
0.10000000000000142,3647,0,73,86
0.10000000000000142,3647,1,73,118
0.09999999999999432,3647,2,73,47
0.09999999999999432,3647,3,73,103
0.09999999999999432,3647,4,73,20
0.10000000000000142,3647,5,73,49
0.056818181818186986,3647,6,73,68
0.09999999999999432,3647,7,73,98
0.10000000000000142,3647,8,73,65
0.10000000000000142,3647,9,73,92
0.10000000000000142,3647,10,73,57
0.09999999999999432,3647,11,73,68
0.10000000000000142,3647,12,73,75
0.10000000000000142,3647,13,73,73
0.10000000000000142,3647,14,73,81
0.10000000000000142,3647,15,73,48
0.10000000000000142,3648,0,73,60
0.10000000000000142,3648,1,73,85
0.09999999999999432,3648,2,73,93
0.10000000000000142,3648,3,73,76
0.09999999999999432,3648,4,73,50
0.10000000000000142,3648,5,73,67
0.10000000000000142,3648,6,73,82
0.10000000000000142,3648,7,73,46
0.10000000000000142,3648,8,73,13
0.10000000000000142,3648,9,73,25
0.10000000000000142,3648,10,73,91
0.10000000000000142,3648,11,73,111
0.10000000000000142,3648,12,73,22
0.10000000000000142,3648,13,73,38
0.10000000000000142,3648,14,73,68
0.10000000000000142,3648,15,73,89
0.09999999999999432,3649,0,73,32
0.10000000000000142,3649,1,73,65
0.10000000000000142,3649,2,73,116
0.10000000000000142,3649,3,73,77
0.06818181818182012,3649,4,73,109
0.10000000000000142,3649,5,73,87
0.10000000000000142,3649,6,73,86
0.10000000000000142,3649,7,73,44
0.09999999999999432,3649,8,73,91
0.10000000000000142,3649,9,73,47
0.09999999999999432,3649,10,73,127
0.10000000000000142,3649,11,73,34
0.09999999999999432,3649,12,73,66
0.10000000000000142,3649,13,73,97
0.10000000000000142,3649,14,73,33
0.10000000000000142,3649,15,73,91
0.10000000000000142,3650,0,73,19
0.09999999999999432,3650,1,73,110
0.10000000000000142,3650,2,73,43
0.09999999999999432,3650,3,73,38
0.03636363636363171,3650,4,73,125
0.10000000000000142,3650,5,73,74
0.10000000000000853,3650,6,73,125
0.09999999999999432,3650,7,73,122
0.09999999999999432,3650,8,73,77
0.09999999999999432,3650,9,73,31
0.09999999999999432,3650,10,73,74
0.09999999999999432,3650,11,73,104
0.09999999999999432,3650,12,73,66
0.09999999999999432,3650,13,73,125
0.09999999999999432,3650,14,73,115
0.09999999999999432,3650,15,73,13
0.09999999999999432,3651,0,73,50
0.10000000000000853,3651,1,73,127
0.09999999999999432,3651,2,73,113
0.10000000000000853,3651,3,73,72
0.09999999999999432,3651,4,73,46
0.004545454545450411,3651,5,73,107
0.10000000000000853,3651,6,73,113
0.10000000000000853,3651,7,73,74
0.09999999999999432,3651,8,73,97
0.09999999999999432,3651,9,73,65
0.09999999999999432,3651,10,73,88
0.09999999999999432,3651,11,73,42
0.09999999999999432,3651,12,73,27
0.10000000000000853,3651,13,73,73
0.09999999999999432,3651,14,73,90
0.09999999999999432,3651,15,73,88
0.10000000000000853,3652,0,73,78
0.09999999999999432,3652,1,73,83
0.09999999999999432,3652,2,73,70
0.09999999999999432,3652,3,73,47
0.09999999999999432,3652,4,73,113
0.09999999999999432,3652,5,73,11
0.09999999999999432,3652,6,73,76
0.10000000000000853,3652,7,73,33
0.09999999999999432,3652,8,73,61
0.09999999999999432,3652,9,73,117
0.09999999999999432,3652,10,73,21
0.10000000000000853,3652,11,73,62
0.09999999999999432,3652,12,73,78
0.09999999999999432,3652,13,73,122
0.09999999999999432,3652,14,73,45
0.09999999999999432,3652,15,73,107
0.09999999999999432,3653,0,73,71
0.09999999999999432,3653,1,73,93
0.10000000000000853,3653,2,73,33
0.09999999999999432,3653,3,73,75
0.10000000000000853,3653,4,73,127
0.09999999999999432,3653,5,73,44
0.09999999999999432,3653,6,73,29
0.09999999999999432,3653,7,73,127
0.09999999999999432,3653,8,73,57
0.10000000000000853,3653,9,73,39
0.09999999999999432,3653,10,73,84
0.09999999999999432,3653,11,73,82
0.10000000000000853,3653,12,73,87
0.056818181818186986,3653,13,73,64
0.09999999999999432,3653,14,73,39
0.09999999999999432,3653,15,73,39
0.10000000000000853,3654,0,73,88
0.09999999999999432,3654,1,73,118
0.10000000000000853,3654,2,73,126
0.10000000000000853,3654,3,73,35
0.10000000000000853,3654,4,73,121
0.09999999999999432,3654,5,73,44
0.09999999999999432,3654,6,73,127
0.09999999999999432,3654,7,73,123
0.10000000000000853,3654,8,73,83
0.09999999999999432,3654,9,73,85
0.10000000000000853,3654,10,73,127
0.09999999999999432,3654,11,73,104
0.09999999999999432,3654,12,73,123
0.10000000000000853,3654,13,73,127
0.09999999999999432,3654,14,73,118
0.09999999999999432,3654,15,73,26
0.09999999999999432,3655,0,73,110
0.09999999999999432,3655,1,73,58
0.10000000000000853,3655,2,73,24
0.09999999999999432,3655,3,73,127
0.10000000000000853,3655,4,73,98
0.09999999999999432,3655,5,73,111
0.09999999999999432,3655,6,73,117
0.09999999999999432,3655,7,73,127
0.10000000000000853,3655,8,73,71
0.10000000000000853,3655,9,73,101
0.10000000000000853,3655,10,73,107
0.10000000000000853,3655,11,73,33
0.09999999999999432,3655,12,73,77
0.09999999999999432,3655,13,73,98
0.09999999999999432,3655,14,73,35
0.10000000000000853,3655,15,73,56
0.09999999999999432,3656,0,73,101
0.10000000000000853,3656,1,73,127
0.10000000000000853,3656,2,73,42
0.09999999999999432,3656,3,73,31
0.09999999999999432,3656,4,73,85
0.09999999999999432,3656,5,73,119
0.09999999999999432,3656,6,73,33
0.09999999999999432,3656,7,73,95
0.10000000000000853,3656,8,73,127
0.10000000000000853,3656,9,73,86
0.10000000000000853,3656,10,73,68
0.09999999999999432,3656,11,73,80
0.10000000000000853,3656,12,73,42
0.09999999999999432,3656,13,73,127
0.09999999999999432,3656,14,73,75
0.09999999999999432,3656,15,73,85
0.10000000000000853,3657,0,73,114
0.09999999999999432,3657,1,73,60
0.10000000000000853,3657,2,73,56
0.05909090909091219,3657,3,73,94
0.09999999999999432,3657,4,73,127
0.10000000000000853,3657,5,73,46
0.09999999999999432,3657,6,73,127
0.09999999999999432,3657,7,73,127
0.09999999999999432,3657,8,73,39
0.09999999999999432,3657,9,73,73
0.10000000000000853,3657,10,73,88
0.09999999999999432,3657,11,73,19
0.09999999999999432,3657,12,73,99
0.09999999999999432,3657,13,73,98
0.10000000000000853,3657,14,73,127
0.09999999999999432,3657,15,73,82
0.09999999999999432,3658,0,73,95
0.09999999999999432,3658,1,73,64
0.04772727272725774,3658,2,73,35
0.09999999999999432,3658,3,73,37
0.10000000000002274,3658,4,73,120
0.09999999999999432,3658,5,73,37
0.09999999999999432,3658,6,73,120
0.10000000000002274,3658,7,73,127
0.09999999999999432,3658,8,73,37
0.09999999999999432,3658,9,73,77
0.09999999999999432,3658,10,73,114
0.09999999999999432,3658,11,73,42
0.09999999999999432,3658,12,73,127
0.09999999999999432,3658,13,73,91
0.09999999999999432,3658,14,73,91
0.09999999999999432,3658,15,73,110
0.09999999999999432,3659,0,73,127
0.09999999999999432,3659,1,73,48
0.10000000000002274,3659,2,73,63
0.09999999999999432,3659,3,73,112
0.09999999999999432,3659,4,73,53
0.03636363636363171,3659,5,73,39
0.10000000000002274,3659,6,73,109
0.09999999999999432,3659,7,73,51
0.09999999999999432,3659,8,73,127
0.09999999999999432,3659,9,73,48
0.09999999999999432,3659,10,73,127
0.10000000000002274,3659,11,73,74
0.10000000000002274,3659,12,73,45
0.09999999999999432,3659,13,73,86
0.09999999999999432,3659,14,73,44
0.10000000000002274,3659,15,73,40
0.09999999999999432,3660,0,73,127
0.10000000000002274,3660,1,73,36
0.03409090909093493,3660,2,73,52
0.09999999999999432,3660,3,73,47
0.09999999999999432,3660,4,73,30
0.09999999999999432,3660,5,73,85
0.09999999999999432,3660,6,73,127
0.09999999999999432,3660,7,73,34
0.10000000000002274,3660,8,73,40
0.09999999999999432,3660,9,73,109
0.09999999999999432,3660,10,73,58
0.09999999999999432,3660,11,73,102
0.09999999999999432,3660,12,73,107
0.09999999999999432,3660,13,73,90
0.09999999999999432,3660,14,73,102
0.09999999999999432,3660,15,73,127
0.09999999999999432,3661,0,73,39
0.09999999999999432,3661,1,73,22
0.09999999999999432,3661,2,73,95
0.09999999999999432,3661,3,73,127
0.10000000000002274,3661,4,73,93
0.09999999999999432,3661,5,73,127
0.09999999999999432,3661,6,73,112
0.10000000000002274,3661,7,73,118
0.09999999999999432,3661,8,73,30
0.09999999999999432,3661,9,73,75
0.09999999999999432,3661,10,73,28
0.09999999999999432,3661,11,73,98
0.09999999999999432,3661,12,73,103
0.09999999999999432,3661,13,73,29
0.10000000000002274,3661,14,73,68
0.09999999999999432,3661,15,73,116
0.10000000000002274,3662,0,73,55
0.025000000000005684,3662,1,73,18
0.09999999999999432,3662,2,73,109
0.09999999999999432,3662,3,73,93
0.09999999999999432,3662,4,73,30
0.09999999999999432,3662,5,73,61
0.056818181818158564,3662,6,73,95
0.09999999999999432,3662,7,73,68
0.09999999999999432,3662,8,73,127
0.09999999999999432,3662,9,73,26
0.10000000000002274,3662,10,73,107
0.10000000000002274,3662,11,73,51
0.025000000000005684,3662,12,73,21
0.09999999999999432,3662,13,73,86
0.09999999999999432,3662,14,73,127
0.10000000000002274,3662,15,73,82
0.10000000000002274,3663,0,73,59
0.09999999999999432,3663,1,73,30
0.09999999999999432,3663,2,73,100
0.09999999999999432,3663,3,73,105
0.10000000000002274,3663,4,73,109
0.10000000000002274,3663,5,73,49
0.09999999999999432,3663,6,73,127
0.10000000000002274,3663,7,73,18
0.09999999999999432,3663,8,73,110
0.09999999999999432,3663,9,73,94
0.10000000000002274,3663,10,73,32
0.09999999999999432,3663,11,73,33
0.09999999999999432,3663,12,73,27
0.10000000000002274,3663,13,73,76
0.09999999999999432,3663,14,73,102
0.09999999999999432,3663,15,73,36
0.09999999999999432,3664,0,73,90
0.10000000000002274,3664,1,73,19
0.09999999999999432,3664,2,73,113
0.09999999999999432,3664,3,73,127
0.09999999999999432,3664,4,73,58
0.04772727272728616,3664,5,73,100
0.09999999999999432,3664,6,73,83
0.09999999999999432,3664,7,73,127
0.09999999999999432,3664,8,73,51
0.09999999999999432,3664,9,73,31
0.0022727272727252057,3664,10,73,47
0.10000000000002274,3664,11,73,105
0.09999999999999432,3664,12,73,127
0.09999999999999432,3664,13,73,15
0.09999999999999432,3664,14,73,106
0.09999999999999432,3664,15,73,107
0.09999999999999432,3665,0,73,57
0.09999999999999432,3665,1,73,127
0.09999999999999432,3665,2,73,18
0.09999999999999432,3665,3,73,101
0.10000000000002274,3665,4,73,127
0.10000000000002274,3665,5,73,18
0.09999999999999432,3665,6,73,44
0.05909090909091219,3665,7,73,81
0.09999999999999432,3665,8,73,88
0.09999999999999432,3665,9,73,121
0.09999999999999432,3665,10,73,54
0.04772727272725774,3665,11,73,126
0.09999999999999432,3665,12,73,29
0.10000000000002274,3665,13,73,116
0.09999999999999432,3665,14,73,89
0.09999999999999432,3665,15,73,127
0.10000000000002274,3666,0,73,23
0.09999999999999432,3666,1,73,103
0.09999999999999432,3666,2,73,110
0.09999999999999432,3666,3,73,74
0.09999999999999787,3666,4,71,4
0.10000000000000142,3666,5,71,10
0.09999999999999787,3666,6,71,1
0.09999999999999787,3666,7,71,7
0.09999999999999787,3666,8,71,15
0.09999999999999787,3666,9,71,14
0.10000000000000142,3666,10,71,15
0.10000000000000142,3666,11,71,1
0.10000000000000142,3666,12,71,6
0.06818181818182012,3666,13,71,15
0.10000000000000142,3666,14,71,44
0.10000000000000142,3666,15,71,27
0.09999999999999787,3667,0,71,18
0.10000000000000142,3667,1,71,27
0.09999999999999787,3667,2,71,9
0.09999999999999787,3667,3,71,30
0.10000000000000142,3667,4,71,21
0.10000000000000142,3667,5,71,31
0.10000000000000142,3667,6,71,32
0.10000000000000142,3667,7,71,16
0.10000000000000142,3667,8,71,34
0.10000000000000142,3667,9,71,5
0.10000000000000142,3667,10,71,20
0.10000000000000142,3667,11,71,21
0.10000000000000142,3667,12,71,23
0.10000000000000142,3667,13,71,18
0.10000000000000142,3667,14,71,20
0.10000000000000142,3667,15,71,19
0.10000000000000142,3668,0,71,14
0.09999999999999432,3668,1,71,11
0.09999999999999432,3668,2,71,18
0.10000000000000142,3668,3,71,3
0.09999999999999432,3668,4,71,2
0.10000000000000142,3668,5,71,6
0.06818181818182012,3668,6,71,12
0.09999999999999432,3668,7,71,10
0.10000000000000142,3668,8,71,17
0.10000000000000142,3668,9,71,11
0.09999999999999432,3668,10,71,24
0.10000000000000142,3668,11,71,18
0.025000000000005684,3668,12,71,18
0.10000000000000142,3668,13,71,10
0.10000000000000142,3668,14,71,8
0.09999999999999432,3668,15,71,21
0.004545454545450411,3669,0,71,10
0.10000000000000142,3669,1,71,13
0.09999999999999432,3669,2,71,11
0.01590909090909065,3669,3,71,14
0.10000000000000142,3669,4,71,16
0.10000000000000142,3669,5,71,21
0.10000000000000142,3669,6,71,12
0.09999999999999432,3669,7,71,7
0.10000000000000142,3669,8,71,15
0.10000000000000142,3669,9,71,8
0.10000000000000142,3669,10,71,16
0.10000000000000142,3669,11,71,8
0.10000000000000142,3669,12,71,16
0.056818181818186986,3669,13,71,16
0.004545454545457517,3669,14,71,9
0.10000000000000142,3669,15,71,18
0.10000000000000142,3670,0,71,13
0.10000000000000142,3670,1,71,16
0.10000000000000142,3670,2,71,13
0.10000000000000142,3670,3,71,14
0.10000000000000142,3670,4,71,5
0.10000000000000142,3670,5,71,7
0.10000000000000142,3670,6,71,8
0.10000000000000142,3670,7,71,9
0.09999999999999432,3670,8,71,9
0.10000000000000142,3670,9,71,10
0.10000000000000142,3670,10,71,9
0.09999999999999432,3670,11,71,13
0.10000000000000142,3670,12,71,8
0.10000000000000142,3670,13,71,7
0.10000000000000142,3670,14,71,10
0.10000000000000142,3670,15,71,8
0.013636363636365445,3671,0,71,4
0.10000000000000142,3671,1,71,2
0.10000000000000142,3671,2,71,5
0.10000000000000142,3671,3,71,7
0.10000000000000142,3671,4,71,6
0.10000000000000142,3671,5,71,5
0.10000000000000142,3671,6,71,7
0.09999999999999432,3671,7,71,12
0.10000000000000142,3671,8,71,6
0.04772727272727195,3671,9,71,8
0.01590909090909065,3671,10,71,13
0.09999999999999432,3671,11,71,4
0.09999999999999432,3671,12,71,5
0.09999999999999432,3671,13,71,7
0.09999999999999432,3671,14,71,11
0.09999999999999432,3671,15,71,5
0.09999999999999432,3672,0,71,5
0.10000000000000853,3672,1,71,8
0.10000000000000853,3672,2,71,5
0.10000000000000853,3672,3,71,9
0.10000000000000853,3672,4,71,3
0.09999999999999432,3672,5,71,10
0.09999999999999432,3672,6,71,15
0.10000000000000853,3672,7,71,8
0.04772727272727195,3672,8,71,6
0.09999999999999432,3672,9,71,5
0.09999999999999432,3672,10,71,4
0.10000000000000853,3672,11,71,5
0.09999999999999432,3672,12,71,3
0.09999999999999432,3672,13,71,1
0.10000000000000853,3672,14,71,4
0.09999999999999432,3672,15,71,4
0.09999999999999432,3673,0,71,5
0.10000000000000853,3673,1,71,5
0.09999999999999432,3673,2,71,1
0.10000000000000853,3673,3,71,10
0.025000000000005684,3673,4,71,10
0.09999999999999432,3673,5,71,6
0.09999999999999432,3673,6,71,7
0.09999999999999432,3673,7,71,15
0.004545454545450411,3673,8,71,12
0.09999999999999432,3673,9,71,14
0.10000000000000853,3673,10,71,4
0.10000000000000853,3673,11,71,10
0.10000000000000853,3673,12,71,6
0.10000000000000853,3673,13,71,5
0.09999999999999432,3673,14,71,5
0.10000000000000853,3673,15,71,3
0.09999999999999432,3674,0,71,1
0.09999999999999432,3674,1,71,7
0.10000000000000853,3674,2,71,7
0.09999999999999432,3674,3,71,3
0.10000000000000853,3674,4,71,7
0.10000000000000853,3674,5,71,13
0.10000000000000853,3674,6,71,10
0.09999999999999432,3674,7,71,5
0.09999999999999432,3674,8,71,12
0.10000000000000853,3674,9,71,18
0.09999999999999432,3674,10,71,8
0.10000000000000853,3674,11,71,5
0.10000000000000853,3674,12,71,8
0.09999999999999432,3674,13,71,6
0.10000000000000853,3674,14,71,8
0.09999999999999432,3674,15,71,6
0.004545454545450411,3675,0,71,8
0.09999999999999432,3675,1,71,6
0.10000000000000853,3675,2,71,4
0.09999999999999432,3675,3,71,7
0.09999999999999432,3675,4,71,18
0.09999999999999432,3675,5,71,15
0.09999999999999432,3675,6,71,12
0.09999999999999432,3675,7,71,8
0.10000000000000853,3675,8,71,4
0.10000000000000853,3675,9,71,5
0.09999999999999432,3675,10,71,11
0.10000000000000853,3675,11,71,7
0.09999999999999432,3675,12,71,5
0.10000000000000853,3675,13,71,4
0.09999999999999432,3675,14,71,5
0.09999999999999432,3675,15,71,3
0.10000000000000853,3676,0,71,4
0.09999999999999432,3676,1,71,5
0.09999999999999432,3676,2,71,5
0.10000000000000853,3676,3,71,2
0.09999999999999432,3676,4,71,15
0.09999999999999432,3676,5,71,7
0.10000000000000853,3676,6,71,4
0.10000000000000853,3676,7,71,3
0.09999999999999432,3676,8,71,1
0.10000000000000853,3676,9,71,1
0.09999999999999432,3676,10,71,1
0.10000000000000853,3676,11,71,1
0.10000000000000853,3676,12,71,3
0.06590909090910202,3676,13,71,3
0.10000000000000853,3676,14,71,2
0.10000000000000853,3676,15,71,1
0.09999999999999432,3677,0,71,1
0.09999999999999432,3677,1,71,1
0.10000000000000853,3677,2,71,6
0.056818181818186986,3677,3,71,10
0.10000000000000853,3677,4,71,19
0.09999999999999432,3677,5,71,10
0.09999999999999432,3677,6,71,3
0.09999999999999432,3677,7,71,1
0.09999999999999432,3677,8,71,2
0.09999999999999432,3677,9,71,3
0.10000000000000853,3677,10,71,3
0.09999999999999432,3677,11,71,2
0.10000000000000853,3677,12,71,6
0.09999999999999432,3677,13,71,8
0.09999999999999432,3677,14,71,11
0.09999999999999432,3677,15,71,13
0.09999999999999432,3678,0,71,11
0.10000000000002274,3678,1,71,5
0.09999999999999432,3678,2,71,14
0.09999999999999432,3678,3,71,8
0.09999999999999432,3678,4,71,7
0.09999999999999432,3678,5,71,13
0.10000000000002274,3678,6,71,3
0.056818181818186986,3678,7,71,4
0.10000000000002274,3678,8,71,3
0.09999999999999432,3678,9,71,13
0.09999999999999432,3678,10,71,1
0.10000000000002274,3678,11,71,31
0.025000000000005684,3678,12,71,31
0.09999999999999432,3678,13,71,9
0.09999999999999432,3678,14,71,5
0.10000000000002274,3678,15,71,8
0.09999999999999432,3679,0,71,5
0.09999999999999432,3679,1,71,11
0.09999999999999432,3679,2,71,1
0.04772727272728616,3679,3,71,1
0.09999999999999432,3679,4,71,8
0.025000000000005684,3679,5,71,10
0.09999999999999432,3679,6,71,4
0.09999999999999432,3679,7,71,6
0.10000000000002274,3679,8,71,3
0.09999999999999432,3679,9,71,5
0.09999999999999432,3679,10,71,5
0.09999999999999432,3679,11,71,7
0.09999999999999432,3679,12,71,4
0.09999999999999432,3679,13,71,3
0.09999999999999432,3679,14,71,2
0.10000000000002274,3679,15,71,2
0.09999999999999432,3680,0,71,3
0.09999999999999432,3680,1,71,4
0.09999999999999432,3680,2,71,4
0.09999999999999432,3680,3,71,5
0.09999999999999432,3680,4,71,15
0.09999999999999432,3680,5,71,18
0.056818181818158564,3680,6,71,18
0.09999999999999432,3680,7,71,3
0.09999999999999432,3680,8,71,2
0.09999999999999432,3680,9,71,4
0.004545454545450411,3680,10,71,6
0.09999999999999432,3680,11,71,8
0.09999999999999432,3680,12,71,4
0.056818181818186986,3680,13,71,4
0.025000000000005684,3680,14,71,5
0.09999999999999432,3680,15,71,7
0.09999999999999432,3681,0,71,2
0.09999999999999432,3681,1,71,1
0.10000000000000142,3681,2,54,25
0.09999999999999787,3681,3,54,40
0.09999999999999787,3681,4,54,20
0.10000000000000142,3681,5,54,15
0.09999999999999787,3681,6,54,49
0.09999999999999787,3681,7,54,16
0.013636363636361892,3681,8,54,46
0.10000000000000142,3681,9,54,50
0.10000000000000142,3681,10,54,38
0.09999999999999787,3681,11,54,50
0.10000000000000142,3681,12,54,43
0.10000000000000142,3681,13,54,42
0.10000000000000142,3681,14,54,55
0.09999999999999787,3681,15,54,99
0.09999999999999787,3682,0,54,56
0.10000000000000142,3682,1,54,44
0.09999999999999787,3682,2,54,57
0.09999999999999432,3682,3,54,39
0.10000000000000142,3682,4,54,49
0.10000000000000142,3682,5,54,84
0.09999999999999432,3682,6,54,51
0.10000000000000142,3682,7,54,42
0.10000000000000142,3682,8,54,23
0.10000000000000142,3682,9,54,57
0.10000000000000142,3682,10,54,61
0.10000000000000142,3682,11,54,58
0.10000000000000142,3682,12,54,66
0.10000000000000142,3682,13,54,73
0.10000000000000142,3682,14,54,77
0.10000000000000142,3682,15,54,66
0.10000000000000142,3683,0,54,44
0.10000000000000142,3683,1,54,76
0.10000000000000142,3683,2,54,78
0.09999999999999432,3683,3,54,44
0.09999999999999432,3683,4,54,87
0.10000000000000142,3683,5,54,58
0.10000000000000142,3683,6,54,61
0.10000000000000142,3683,7,54,84
0.10000000000000142,3683,8,54,56
0.10000000000000142,3683,9,54,67
0.09999999999999432,3683,10,54,41
0.10000000000000142,3683,11,54,70
0.10000000000000142,3683,12,54,73
0.10000000000000142,3683,13,54,74
0.10000000000000142,3683,14,54,78
0.09999999999999432,3683,15,54,54
0.10000000000000142,3684,0,54,71
0.09999999999999432,3684,1,54,76
0.10000000000000142,3684,2,54,88
0.10000000000000142,3684,3,54,97
0.10000000000000142,3684,4,54,79
0.10000000000000142,3684,5,54,81
0.10000000000000142,3684,6,54,79
0.10000000000000142,3684,7,54,48
0.10000000000000142,3684,8,54,55
0.10000000000000142,3684,9,54,76
0.10000000000000142,3684,10,54,50
0.10000000000000142,3684,11,54,70
0.10000000000000142,3684,12,54,46
0.10000000000000142,3684,13,54,33
0.10000000000000142,3684,14,54,39
0.10000000000000142,3684,15,54,75
0.10000000000000142,3685,0,54,55
0.10000000000000142,3685,1,54,68
0.10000000000000142,3685,2,54,44
0.10000000000000142,3685,3,54,40
0.10000000000000142,3685,4,54,69
0.10000000000000142,3685,5,54,77
0.09999999999999432,3685,6,54,75
0.09999999999999432,3685,7,54,60
0.10000000000000142,3685,8,54,40
0.10000000000000142,3685,9,54,51
0.09999999999999432,3685,10,54,82
0.10000000000000142,3685,11,54,51
0.09999999999999432,3685,12,54,51
0.09999999999999432,3685,13,54,75
0.09999999999999432,3685,14,54,62
0.10000000000000853,3685,15,54,84
0.10000000000000853,3686,0,54,49
0.09999999999999432,3686,1,54,64
0.10000000000000853,3686,2,54,91
0.10000000000000853,3686,3,54,88
0.09999999999999432,3686,4,54,65
0.10000000000000853,3686,5,54,66
0.09999999999999432,3686,6,54,45
0.10000000000000853,3686,7,54,90
0.10000000000000853,3686,8,54,35
0.09999999999999432,3686,9,54,82
0.10000000000000853,3686,10,54,104
0.09999999999999432,3686,11,54,97
0.09999999999999432,3686,12,54,60
0.09999999999999432,3686,13,54,62
0.10000000000000853,3686,14,54,78
0.10000000000000853,3686,15,54,84
0.10000000000000853,3687,0,54,73
0.09999999999999432,3687,1,54,89
0.10000000000000853,3687,2,54,82
0.09999999999999432,3687,3,54,49
0.09999999999999432,3687,4,54,63
0.09999999999999432,3687,5,54,86
0.09999999999999432,3687,6,54,44
0.06818181818181301,3687,7,54,64
0.09999999999999432,3687,8,54,70
0.09999999999999432,3687,9,54,33
0.10000000000000853,3687,10,54,47
0.10000000000000853,3687,11,54,49
0.10000000000000853,3687,12,54,84
0.09999999999999432,3687,13,54,64
0.10000000000000853,3687,14,54,82
0.09999999999999432,3687,15,54,77
0.10000000000000853,3688,0,54,64
0.10000000000000853,3688,1,54,75
0.10000000000000853,3688,2,54,106
0.10000000000000853,3688,3,54,67
0.09999999999999432,3688,4,54,84
0.10000000000000853,3688,5,54,90
0.09999999999999432,3688,6,54,86
0.10000000000000853,3688,7,54,72
0.09999999999999432,3688,8,54,64
0.10000000000000853,3688,9,54,87
0.10000000000000853,3688,10,54,96
0.09999999999999432,3688,11,54,88
0.10000000000000853,3688,12,54,77
0.10000000000000853,3688,13,54,100
0.09999999999999432,3688,14,54,64
0.10000000000000853,3688,15,54,93
0.10000000000000853,3689,0,54,81
0.09999999999999432,3689,1,54,98
0.09999999999999432,3689,2,54,55
0.09999999999999432,3689,3,54,114
0.09999999999999432,3689,4,54,94
0.09999999999999432,3689,5,54,87
0.10000000000000853,3689,6,54,83
0.09999999999999432,3689,7,54,63
0.10000000000000853,3689,8,54,78
0.10000000000000853,3689,9,54,74
0.09999999999999432,3689,10,54,75
0.10000000000000853,3689,11,54,87
0.10000000000000853,3689,12,54,98
0.10000000000000853,3689,13,54,87
0.09999999999999432,3689,14,54,93
0.10000000000000853,3689,15,54,74
0.09999999999999432,3690,0,54,110
0.09999999999999432,3690,1,54,123
0.09999999999999432,3690,2,54,124
0.09999999999999432,3690,3,54,77
0.10000000000000853,3690,4,54,83
0.09999999999999432,3690,5,54,81
0.09999999999999432,3690,6,54,74
0.09999999999999432,3690,7,54,69
0.10000000000000853,3690,8,54,69
0.004545454545464622,3690,9,54,72
0.10000000000000853,3690,10,54,86
0.10000000000000853,3690,11,54,77
0.09999999999999432,3690,12,54,24
0.04772727272727195,3690,13,54,69
0.09999999999999432,3690,14,54,88
0.09999999999999432,3690,15,54,102
0.10000000000000853,3691,0,54,67
0.10000000000000853,3691,1,54,75
0.10000000000000853,3691,2,54,59
0.09999999999999432,3691,3,54,74
0.09999999999999432,3691,4,54,69
0.10000000000000853,3691,5,54,48
0.09999999999999432,3691,6,54,74
0.10000000000000853,3691,7,54,68
0.09999999999999432,3691,8,54,83
0.10000000000000853,3691,9,54,65
0.10000000000002274,3691,10,54,51
0.09999999999999432,3691,11,54,83
0.09999999999999432,3691,12,54,54
0.09999999999999432,3691,13,54,67
0.09999999999999432,3691,14,54,63
0.09999999999999432,3691,15,54,69
0.09999999999999432,3692,0,54,69
0.10000000000002274,3692,1,54,80
0.10000000000002274,3692,2,54,67
0.10000000000002274,3692,3,54,68
0.09999999999999432,3692,4,54,68
0.09999999999999432,3692,5,54,80
0.09999999999999432,3692,6,54,85
0.09999999999999432,3692,7,54,83
0.06818181818181301,3692,8,54,60
0.10000000000002274,3692,9,54,32
0.04545454545456096,3692,10,54,81
0.09999999999999432,3692,11,54,73
0.09999999999999432,3692,12,54,83
0.09999999999999432,3692,13,54,90
0.09999999999999432,3692,14,54,87
0.09999999999999432,3692,15,54,76
0.013636363636351234,3693,0,54,51
0.09999999999999432,3693,1,54,31
0.06818181818181301,3693,2,54,58
0.10000000000002274,3693,3,54,79
0.10000000000002274,3693,4,54,68
0.09999999999999432,3693,5,54,79
0.09999999999999432,3693,6,54,68
0.09999999999999432,3693,7,54,75
0.09999999999999432,3693,8,54,74
0.09999999999999432,3693,9,54,71
0.10000000000002274,3693,10,54,48
0.09999999999999432,3693,11,54,90
0.10000000000002274,3693,12,54,76
0.09999999999999432,3693,13,54,62
0.056818181818186986,3693,14,54,49
0.09999999999999432,3693,15,54,88
0.09999999999999432,3694,0,54,71
0.09999999999999432,3694,1,54,75
0.09999999999999432,3694,2,54,80
0.09999999999999432,3694,3,54,92
0.03636363636363171,3694,4,54,91
0.09999999999999432,3694,5,54,98
0.09999999999999432,3694,6,54,86
0.09999999999999432,3694,7,54,89
0.09999999999999432,3694,8,54,106
0.09999999999999432,3694,9,54,73
0.10000000000002274,3694,10,54,82
0.09999999999999432,3694,11,54,71
0.09999999999999432,3694,12,54,72
0.10000000000002274,3694,13,54,96
0.09999999999999432,3694,14,54,89
0.09999999999999432,3694,15,54,61
0.004545454545450411,3695,0,54,71
0.09999999999999432,3695,1,54,87
0.09999999999999432,3695,2,54,89
0.09999999999999432,3695,3,54,88
0.09999999999999432,3695,4,54,84
0.05909090909091219,3695,5,54,76
0.10000000000002274,3695,6,54,50
0.09999999999999432,3695,7,54,72
0.10000000000002274,3695,8,54,62
0.09999999999999432,3695,9,54,76
0.09999999999999432,3695,10,54,50
0.10000000000002274,3695,11,54,89
0.09999999999999432,3695,12,54,81
0.09999999999999432,3695,13,54,84
0.056818181818186986,3695,14,54,91
0.09999999999999432,3695,15,54,95
0.09999999999999432,3696,0,54,67
0.09999999999999432,3696,1,54,88
0.09999999999999432,3696,2,54,81
0.10000000000002274,3696,3,54,104
0.09999999999999432,3696,4,54,64
0.10000000000002274,3696,5,54,94
0.09999999999999432,3696,6,54,86
0.09999999999999432,3696,7,54,91
0.09999999999999432,3696,8,54,99
0.10000000000002274,3696,9,54,89
0.10000000000002274,3696,10,54,75
0.09999999999999432,3696,11,54,86
0.09999999999999432,3696,12,54,101
0.10000000000002274,3696,13,54,67
0.09999999999999432,3696,14,54,71
0.10000000000002274,3696,15,54,92
0.056818181818186986,3697,0,54,73
0.09999999999999432,3697,1,54,39
0.09999999999999432,3697,2,54,28
0.09999999999999787,3697,3,96,127
0.10000000000000142,3697,4,96,127
0.10000000000000142,3697,5,96,106
0.10000000000000142,3697,6,96,127
0.10000000000000142,3697,7,96,107
0.09999999999999787,3697,8,96,127
0.09999999999999787,3697,9,96,127
0.09999999999999787,3697,10,96,127
0.10000000000000142,3697,11,96,115
0.10000000000000142,3697,12,96,11
0.10000000000000142,3697,13,96,92
0.10000000000000142,3697,14,96,9
0.10000000000000142,3697,15,96,127
0.09999999999999787,3698,0,96,109
0.09999999999999787,3698,1,96,10
0.09999999999999787,3698,2,96,127
0.10000000000000142,3698,3,96,4
0.09999999999999787,3698,4,96,108
0.10000000000000142,3698,5,96,3
0.09999999999999787,3698,6,96,68
0.10000000000000142,3698,7,96,8
0.10000000000000142,3698,8,96,127
0.10000000000000142,3698,9,96,99
0.10000000000000142,3698,10,96,127
0.09999999999999787,3698,11,96,3
0.09999999999999787,3698,12,96,127
0.09999999999999787,3698,13,96,2
0.09999999999999787,3698,14,96,86
0.09999999999999787,3698,15,96,1
0.10000000000000142,3699,0,96,57
0.10000000000000142,3699,1,96,4
0.10000000000000142,3699,2,96,127
0.10000000000000142,3699,3,96,77
0.10000000000000142,3699,4,96,3
0.09999999999999432,3699,5,96,127
0.10000000000000142,3699,6,96,2
0.10000000000000142,3699,7,96,80
0.10000000000000142,3699,8,96,1
0.10000000000000142,3699,9,96,5
0.10000000000000142,3699,10,96,15
0.10000000000000142,3699,11,96,120
0.09999999999999432,3699,12,96,70
0.10000000000000142,3699,13,96,127
0.09999999999999432,3699,14,96,10
0.10000000000000142,3699,15,96,127
0.09999999999999432,3700,0,96,109
0.10000000000000142,3700,1,96,86
0.09999999999999432,3700,2,96,124
0.10000000000000142,3700,3,96,125
0.10000000000000142,3700,4,96,122
0.10000000000000142,3700,5,96,103
0.10000000000000142,3700,6,96,127
0.10000000000000142,3700,7,96,122
0.10000000000000142,3700,8,96,120
0.10000000000000142,3700,9,96,121
0.10000000000000142,3700,10,96,96
0.10000000000000142,3700,11,96,127
0.10000000000000142,3700,12,96,127
0.10000000000000142,3700,13,96,103
0.09999999999999432,3700,14,96,111
0.10000000000000142,3700,15,96,106
0.10000000000000142,3701,0,96,126
0.10000000000000142,3701,1,96,122
0.10000000000000142,3701,2,96,127
0.09999999999999432,3701,3,96,44
0.10000000000000142,3701,4,96,127
0.09999999999999432,3701,5,96,67
0.10000000000000142,3701,6,96,127
0.10000000000000142,3701,7,96,76
0.10000000000000142,3701,8,96,127
0.10000000000000142,3701,9,96,78
0.10000000000000142,3701,10,96,127
0.10000000000000142,3701,11,96,127
0.10000000000000142,3701,12,96,100
0.10000000000000142,3701,13,96,68
0.10000000000000142,3701,14,96,127
0.10000000000000142,3701,15,96,76
0.09999999999999432,3702,0,96,8
0.10000000000000142,3702,1,96,14
0.10000000000000142,3702,2,96,127
0.10000000000000142,3702,3,96,23
0.10000000000000142,3702,4,96,8
0.09999999999999432,3702,5,96,90
0.10000000000000142,3702,6,96,6
0.10000000000000142,3702,7,96,42
0.10000000000000142,3702,8,96,11
0.10000000000000142,3702,9,96,127
0.10000000000000142,3702,10,96,85
0.09999999999999432,3702,11,96,127
0.10000000000000142,3702,12,96,10
0.09999999999999432,3702,13,96,127
0.10000000000000142,3702,14,96,19
0.10000000000000142,3702,15,96,7
0.09999999999999432,3703,0,96,92
0.09999999999999432,3703,1,96,5
0.10000000000000142,3703,2,96,19
0.10000000000000142,3703,3,96,11
0.10000000000000142,3703,4,96,6
0.10000000000000142,3703,5,96,127
0.10000000000000142,3703,6,96,83
0.10000000000000142,3703,7,96,11
0.10000000000000142,3703,8,96,127
0.10000000000000142,3703,9,96,24
0.10000000000000142,3703,10,96,10
0.10000000000000142,3703,11,96,4
0.10000000000000142,3703,12,96,92
0.09999999999999432,3703,13,96,8
0.10000000000000142,3703,14,96,79
0.10000000000000142,3703,15,96,25
0.09999999999999432,3704,0,96,127
0.10000000000000142,3704,1,96,84
0.09999999999999432,3704,2,96,78
0.10000000000000142,3704,3,96,91
0.10000000000000142,3704,4,96,127
0.10000000000000142,3704,5,96,87
0.10000000000000142,3704,6,96,5
0.10000000000000142,3704,7,96,47
0.10000000000000142,3704,8,96,7
0.09999999999999432,3704,9,96,127
0.10000000000000142,3704,10,96,79
0.09999999999999432,3704,11,96,4
0.10000000000000142,3704,12,96,127
0.10000000000000142,3704,13,96,5
0.10000000000000142,3704,14,96,2
0.10000000000000142,3704,15,96,33
0.10000000000000142,3705,0,96,5
0.10000000000000142,3705,1,96,55
0.10000000000000142,3705,2,96,7
0.10000000000000142,3705,3,96,127
0.10000000000000142,3705,4,96,84
0.09999999999999432,3705,5,96,8
0.10000000000000142,3705,6,96,127
0.09999999999999432,3705,7,96,4
0.10000000000000142,3705,8,96,3
0.09999999999999432,3705,9,96,82
0.09999999999999432,3705,10,96,5
0.09999999999999432,3705,11,96,50
0.10000000000000853,3705,12,96,7
0.10000000000000853,3705,13,96,127
0.10000000000000853,3705,14,96,83
0.10000000000000853,3705,15,96,5
0.09999999999999432,3706,0,96,66
0.10000000000000853,3706,1,96,127
0.09999999999999432,3706,2,96,4
0.10000000000000853,3706,3,96,42
0.09999999999999432,3706,4,96,127
0.09999999999999432,3706,5,96,102
0.09999999999999432,3706,6,96,66
0.10000000000000853,3706,7,96,95
0.10000000000000853,3706,8,96,81
0.10000000000000853,3706,9,96,127
0.09999999999999432,3706,10,96,122
0.09999999999999432,3706,11,96,79
0.10000000000000853,3706,12,96,127
0.09999999999999432,3706,13,96,90
0.10000000000000853,3706,14,96,51
0.09999999999999432,3706,15,96,8
0.09999999999999432,3707,0,96,127
0.10000000000000853,3707,1,96,88
0.09999999999999432,3707,2,96,5
0.09999999999999432,3707,3,96,127
0.09999999999999432,3707,4,96,2
0.09999999999999432,3707,5,96,3
0.09999999999999432,3707,6,96,96
0.09999999999999432,3707,7,96,5
0.09999999999999432,3707,8,96,47
0.09999999999999432,3707,9,96,8
0.10000000000000853,3707,10,96,127
0.09999999999999432,3707,11,96,78
0.09999999999999432,3707,12,96,9
0.10000000000000853,3707,13,96,127
0.09999999999999432,3707,14,96,4
0.09999999999999432,3707,15,96,81
0.09999999999999432,3708,0,96,5
0.10000000000000853,3708,1,96,51
0.10000000000000853,3708,2,96,8
0.09999999999999432,3708,3,96,127
0.10000000000000853,3708,4,96,91
0.09999999999999432,3708,5,96,6
0.10000000000000853,3708,6,96,2
0.09999999999999432,3708,7,96,127
0.10000000000000853,3708,8,96,90
0.10000000000000853,3708,9,96,77
0.09999999999999432,3708,10,96,83
0.09999999999999432,3708,11,96,56
0.09999999999999432,3708,12,96,78
0.09999999999999432,3708,13,96,70
0.09999999999999432,3708,14,96,127
0.09999999999999432,3708,15,96,127
0.09999999999999432,3709,0,96,70
0.10000000000000853,3709,1,96,127
0.09999999999999432,3709,2,96,82
0.10000000000000853,3709,3,96,44
0.09999999999999432,3709,4,96,16
0.09999999999999432,3709,5,96,127
0.09999999999999432,3709,6,96,73
0.10000000000000853,3709,7,96,127
0.10000000000000853,3709,8,96,127
0.10000000000000853,3709,9,96,88
0.09999999999999432,3709,10,96,52
0.10000000000000853,3709,11,96,14
0.09999999999999432,3709,12,96,127
0.09999999999999432,3709,13,96,75
0.09999999999999432,3709,14,96,127
0.09999999999999432,3709,15,96,127
0.09999999999999432,3710,0,96,90
0.10000000000000853,3710,1,96,50
0.09999999999999432,3710,2,96,16
0.09999999999999432,3710,3,96,127
0.09999999999999432,3710,4,96,84
0.10000000000000853,3710,5,96,53
0.10000000000000853,3710,6,96,64
0.10000000000000853,3710,7,96,81
0.09999999999999432,3710,8,96,112
0.10000000000000853,3710,9,96,73
0.10000000000000853,3710,10,96,93
0.09999999999999432,3710,11,96,106
0.09999999999999432,3710,12,96,127
0.09999999999999432,3710,13,96,87
0.09999999999999432,3710,14,96,59
0.10000000000000853,3710,15,96,16
0.10000000000000853,3711,0,96,127
0.09999999999999432,3711,1,96,77
0.10000000000000853,3711,2,96,127
0.09999999999999432,3711,3,96,89
0.09999999999999432,3711,4,96,51
0.10000000000000853,3711,5,96,13
0.09999999999999432,3711,6,96,127
0.10000000000000853,3711,7,96,80
0.09999999999999432,3711,8,96,127
0.10000000000000853,3711,9,96,86
0.09999999999999432,3711,10,96,60
0.09999999999999432,3711,11,96,12
0.10000000000000853,3711,12,96,127
0.09999999999999432,3711,13,96,91
0.10000000000000853,3711,14,96,127
0.09999999999999432,3711,15,96,8
0.09999999999999432,3712,0,96,86
0.09999999999999432,3712,1,96,43
0.09999999999999432,3712,2,96,14
0.09999999999999432,3712,3,96,118
0.10000000000000853,3712,4,96,86
0.09999999999999432,3712,5,96,127
0.10000000000000853,3712,6,96,87
0.09999999999999432,3712,7,96,31
0.10000000000000853,3712,8,96,15
0.09999999999999432,3712,9,96,28
0.10000000000000853,3712,10,96,127
0.09999999999999432,3712,11,96,81
0.10000000000000853,3712,12,96,127
0.09999999999999432,3712,13,96,7
0.09999999999999432,3712,14,96,83
0.09999999999999432,3712,15,96,31
0.09999999999999432,3713,0,96,12
0.10000000000000853,3713,1,96,21
0.09999999999999432,3713,2,96,127
0.09999999999999432,3713,3,96,89
0.10000000000000853,3713,4,96,84
0.09999999999999432,3713,5,96,59
0.10000000000000853,3713,6,96,127
0.09999999999999432,3713,7,96,90
0.10000000000000853,3713,8,96,96
0.09999999999999432,3713,9,96,57
0.10000000000000853,3713,10,96,39
0.09999999999999432,3713,11,96,127
0.10000000000000853,3713,12,96,127
0.09999999999999432,3713,13,96,127
0.09999999999999432,3713,14,96,127
0.09999999999999432,3713,15,96,127
0.09999999999999432,3714,0,96,127
0.10000000000000853,3714,1,96,121
0.09999999999999432,3714,2,96,124
0.10000000000000853,3714,3,96,124
0.10000000000000853,3714,4,96,119
0.09999999999999432,3714,5,96,120
0.10000000000000853,3714,6,96,125
0.09999999999999432,3714,7,96,116
0.09999999999999432,3714,8,96,124
0.09999999999999432,3714,9,96,4
0.09999999999999432,3714,10,96,63
0.09999999999999432,3714,11,96,11
0.09999999999999432,3714,12,96,127
0.10000000000000853,3714,13,96,4
0.09999999999999432,3714,14,96,71
0.10000000000000853,3714,15,96,127
0.10000000000000853,3715,0,96,26
0.09999999999999432,3715,1,96,62
0.10000000000000853,3715,2,96,127
0.10000000000000853,3715,3,96,34
0.10000000000000853,3715,4,96,11
0.10000000000000853,3715,5,96,8
0.09999999999999432,3715,6,96,127
0.09999999999999432,3715,7,96,35
0.09999999999999432,3715,8,96,19
0.09999999999999432,3715,9,96,10
0.10000000000000853,3715,10,96,127
0.09999999999999432,3715,11,96,5
0.09999999999999432,3715,12,96,71
0.09999999999999432,3715,13,96,127
0.10000000000000853,3715,14,96,60
0.09999999999999432,3715,15,96,117
0.09999999999999432,3716,0,96,55
0.09999999999999432,3716,1,96,25
0.10000000000000853,3716,2,96,120
0.09999999999999432,3716,3,96,10
0.09999999999999432,3716,4,96,121
0.09999999999999432,3716,5,96,3
0.10000000000000853,3716,6,96,84
0.10000000000000853,3716,7,96,127
0.09999999999999432,3716,8,96,13
0.09999999999999432,3716,9,96,42
0.10000000000000853,3716,10,96,127
0.10000000000000853,3716,11,96,33
0.10000000000000853,3716,12,96,35
0.10000000000000853,3716,13,96,21
0.09999999999999432,3716,14,96,109
0.09999999999999432,3716,15,96,34
0.09999999999999432,3717,0,96,24
0.10000000000000853,3717,1,96,44
0.10000000000000853,3717,2,96,114
0.10000000000000853,3717,3,96,16
0.09999999999999432,3717,4,96,61
0.09999999999999432,3717,5,96,72
0.09999999999999432,3717,6,96,122
0.09999999999999432,3717,7,96,65
0.10000000000000853,3717,8,96,56
0.09999999999999432,3717,9,96,127
0.09999999999999432,3717,10,96,44
0.09999999999999432,3717,11,96,47
0.10000000000000853,3717,12,96,114
0.10000000000000853,3717,13,96,59
0.10000000000000853,3717,14,96,71
0.09999999999999432,3717,15,96,56
0.09999999999999432,3718,0,96,92
0.09999999999999432,3718,1,96,74
0.10000000000000853,3718,2,96,115
0.10000000000000853,3718,3,96,72
0.09999999999999432,3718,4,96,127
0.10000000000000853,3718,5,96,81
0.09999999999999432,3718,6,96,127
0.09999999999999432,3718,7,96,84
0.09999999999999432,3718,8,96,125
0.10000000000000853,3718,9,96,81
0.10000000000000853,3718,10,96,127
0.09999999999999432,3718,11,96,89
0.09999999999999432,3718,12,96,127
0.09999999999999432,3718,13,96,87
0.09999999999999432,3718,14,96,127
0.09999999999999432,3718,15,96,91
0.09999999999999432,3719,0,96,6
0.09999999999999432,3719,1,96,22
0.10000000000002274,3719,2,96,31
0.09999999999999432,3719,3,96,88
0.09999999999999432,3719,4,96,83
0.09999999999999432,3719,5,96,113
0.09999999999999432,3719,6,96,127
0.09999999999999432,3719,7,96,93
0.10000000000002274,3719,8,96,124
0.09999999999999432,3719,9,96,73
0.09999999999999432,3719,10,96,35
0.09999999999999432,3719,11,96,39
0.09999999999999432,3719,12,96,124
0.09999999999999432,3719,13,96,68
0.09999999999999432,3719,14,96,114
0.09999999999999432,3719,15,96,70
0.10000000000002274,3720,0,96,32
0.09999999999999432,3720,1,96,25
0.09999999999999432,3720,2,96,127
0.09999999999999432,3720,3,96,55
0.09999999999999432,3720,4,96,28
0.09999999999999432,3720,5,96,29
0.09999999999999432,3720,6,96,127
0.09999999999999432,3720,7,96,8
0.10000000000002274,3720,8,96,86
0.09999999999999432,3720,9,96,26
0.09999999999999432,3720,10,96,31
0.09999999999999432,3720,11,96,127
0.10000000000002274,3720,12,96,80
0.09999999999999432,3720,13,96,70
0.09999999999999432,3720,14,96,127
0.10000000000002274,3720,15,96,127
0.09999999999999432,3721,0,96,13
0.09999999999999432,3721,1,96,127
0.09999999999999432,3721,2,96,101
0.09999999999999432,3721,3,96,62
0.10000000000002274,3721,4,96,75
0.10000000000002274,3721,5,96,127
0.09999999999999432,3721,6,96,127
0.09999999999999432,3721,7,96,86
0.10000000000002274,3721,8,96,127
0.09999999999999432,3721,9,96,90
0.09999999999999432,3721,10,96,50
0.09999999999999432,3721,11,96,27
0.09999999999999432,3721,12,96,127
0.09999999999999432,3721,13,96,74
0.09999999999999432,3721,14,96,127
0.09999999999999432,3721,15,96,127
0.09999999999999432,3722,0,96,7
0.09999999999999432,3722,1,96,78
0.09999999999999432,3722,2,96,59
0.09999999999999432,3722,3,96,27
0.09999999999999432,3722,4,96,127
0.09999999999999432,3722,5,96,71
0.09999999999999432,3722,6,96,127
0.10000000000002274,3722,7,96,40
0.09999999999999432,3722,8,96,127
0.09999999999999432,3722,9,96,83
0.09999999999999432,3722,10,96,55
0.09999999999999432,3722,11,96,9
0.09999999999999432,3722,12,96,34
0.09999999999999432,3722,13,96,127
0.10000000000002274,3722,14,96,69
0.09999999999999432,3722,15,96,116
0.09999999999999432,3723,0,96,95
0.09999999999999432,3723,1,96,99
0.10000000000002274,3723,2,96,108
0.09999999999999432,3723,3,96,97
0.09999999999999432,3723,4,96,111
0.09999999999999432,3723,5,96,88
0.10000000000002274,3723,6,96,127
0.10000000000002274,3723,7,96,127
0.09999999999999432,3723,8,96,127
0.09999999999999432,3723,9,96,127
0.09999999999999432,3723,10,96,106
0.09999999999999432,3723,11,96,58
0.10000000000002274,3723,12,96,13
0.09999999999999432,3723,13,96,127
0.09999999999999432,3723,14,96,78
0.09999999999999432,3723,15,96,127
0.10000000000002274,3724,0,96,127
0.09999999999999432,3724,1,96,8
0.09999999999999432,3724,2,96,81
0.09999999999999432,3724,3,96,57
0.09999999999999432,3724,4,96,10
0.10000000000002274,3724,5,96,29
0.09999999999999432,3724,6,96,127
0.09999999999999432,3724,7,96,74
0.10000000000002274,3724,8,96,127
0.10000000000002274,3724,9,96,127
0.09999999999999432,3724,10,96,127
0.09999999999999987,3724,11,61,34
0.10000000000000009,3724,12,61,33
0.10000000000000009,3724,13,61,23
0.09999999999999987,3724,14,61,26
0.10000000000000009,3724,15,61,32
0.10000000000000009,3725,0,61,27
0.10000000000000009,3725,1,61,15
0.10000000000000009,3725,2,61,30
0.10000000000000009,3725,3,61,26
0.09999999999999964,3725,4,61,18
0.10000000000000009,3725,5,61,37
0.10000000000000053,3725,6,61,34
0.09999999999999964,3725,7,61,28
0.10000000000000053,3725,8,61,13
0.09999999999999964,3725,9,61,34
0.09999999999999964,3725,10,61,28
0.09999999999999964,3725,11,61,29
0.10000000000000053,3725,12,61,26
0.09999999999999964,3725,13,61,36
0.10000000000000053,3725,14,61,27
0.09999999999999964,3725,15,61,16
0.09999999999999964,3726,0,61,31
0.09999999999999964,3726,1,61,38
0.09999999999999964,3726,2,61,35
0.09999999999999964,3726,3,61,41
0.09999999999999964,3726,4,61,39
0.09999999999999964,3726,5,61,30
0.09999999999999964,3726,6,61,32
0.10000000000000142,3726,7,61,31
0.10000000000000142,3726,8,61,24
0.09999999999999964,3726,9,61,39
0.10000000000000142,3726,10,61,41
0.10000000000000142,3726,11,61,37
0.09999999999999964,3726,12,61,20
0.09999999999999964,3726,13,61,4
0.09999999999999964,3726,14,61,32
0.10000000000000142,3726,15,61,23
0.10000000000000142,3727,0,61,24
0.09999999999999964,3727,1,61,39
0.09999999999999964,3727,2,61,27
0.09999999999999964,3727,3,61,27
0.09999999999999964,3727,4,61,31
0.09999999999999964,3727,5,61,37
0.09999999999999964,3727,6,61,38
0.09999999999999964,3727,7,61,28
0.09999999999999964,3727,8,61,25
0.09999999999999964,3727,9,61,39
0.10000000000000142,3727,10,61,26
0.09999999999999964,3727,11,61,24
0.09999999999999964,3727,12,61,24
0.09999999999999964,3727,13,61,21
0.09999999999999964,3727,14,61,43
0.09999999999999964,3727,15,61,31
0.10000000000000142,3728,0,61,21
0.10000000000000142,3728,1,61,39
0.10000000000000142,3728,2,61,26
0.09999999999999787,3728,3,61,25
0.10000000000000142,3728,4,61,23
0.09999999999999787,3728,5,61,16
0.09999999999999787,3728,6,61,37
0.10000000000000142,3728,7,61,31
0.09999999999999787,3728,8,61,28
0.10000000000000142,3728,9,61,40
0.09999999999999787,3728,10,61,26
0.10000000000000142,3728,11,61,39
0.10000000000000142,3728,12,61,29
0.09999999999999787,3728,13,61,44
0.10000000000000142,3728,14,61,37
0.09999999999999787,3728,15,61,23
0.10000000000000142,3729,0,61,31
0.09999999999999787,3729,1,61,32
0.10000000000000142,3729,2,61,27
0.10000000000000142,3729,3,61,19
0.10000000000000142,3729,4,61,20
0.10000000000000142,3729,5,61,31
0.10000000000000142,3729,6,61,31
0.10000000000000142,3729,7,61,20
0.09999999999999787,3729,8,61,26
0.10000000000000142,3729,9,61,28
0.10000000000000142,3729,10,61,27
0.10000000000000142,3729,11,61,17
0.10000000000000142,3729,12,61,50
0.10000000000000142,3729,13,61,63
0.10000000000000142,3729,14,61,59
0.09999999999999787,3729,15,61,48
0.09999999999999787,3730,0,61,72
0.10000000000000142,3730,1,61,17
0.10000000000000142,3730,2,61,43
0.10000000000000142,3730,3,61,34
0.10000000000000142,3730,4,61,43
0.10000000000000142,3730,5,61,26
0.09999999999999787,3730,6,61,37
0.09999999999999787,3730,7,61,40
0.10000000000000142,3730,8,61,33
0.10000000000000142,3730,9,61,25
0.10000000000000142,3730,10,61,45
0.09999999999999787,3730,11,61,37
0.10000000000000142,3730,12,61,41
0.10000000000000142,3730,13,61,33
0.09999999999999787,3730,14,61,25
0.09999999999999787,3730,15,61,21
0.10000000000000142,3731,0,61,31
0.09999999999999787,3731,1,61,22
0.10000000000000142,3731,2,61,25
0.10000000000000142,3731,3,61,24
0.10000000000000142,3731,4,61,19
0.09999999999999787,3731,5,61,19
0.10000000000000142,3731,6,61,23
0.10000000000000142,3731,7,61,45
0.10000000000000142,3731,8,61,40
0.10000000000000142,3731,9,61,46
0.10000000000000142,3731,10,61,57
0.10000000000000142,3731,11,61,47
0.10000000000000142,3731,12,61,59
0.09999999999999432,3731,13,61,33
0.10000000000000142,3731,14,61,18
0.10000000000000142,3731,15,61,23
0.10000000000000142,3732,0,61,49
0.10000000000000142,3732,1,61,29
0.10000000000000142,3732,2,61,20
0.09999999999999432,3732,3,61,26
0.10000000000000142,3732,4,61,26
0.09999999999999432,3732,5,61,53
0.10000000000000142,3732,6,61,43
0.10000000000000142,3732,7,61,41
0.10000000000000142,3732,8,61,47
0.10000000000000142,3732,9,61,23
0.09999999999999432,3732,10,61,21
0.10000000000000142,3732,11,61,64
0.10000000000000142,3732,12,61,54
0.10000000000000142,3732,13,61,34
0.09999999999999432,3732,14,61,39
0.10000000000000142,3732,15,61,43
0.09999999999999432,3733,0,61,41
0.10000000000000142,3733,1,61,35
0.10000000000000142,3733,2,61,22
0.10000000000000142,3733,3,61,19
0.10000000000000142,3733,4,61,42
0.10000000000000142,3733,5,61,52
0.10000000000000142,3733,6,61,74
0.10000000000000142,3733,7,61,72
0.09999999999999432,3733,8,61,59
0.09999999999999432,3733,9,61,45
0.10000000000000142,3733,10,61,48
0.09999999999999432,3733,11,61,30
0.10000000000000142,3733,12,61,33
0.09999999999999432,3733,13,61,23
0.10000000000000142,3733,14,61,35
0.09999999999999432,3733,15,61,30
0.10000000000000142,3734,0,61,37
0.10000000000000142,3734,1,61,42
0.10000000000000142,3734,2,61,58
0.10000000000000142,3734,3,61,53
0.10000000000000142,3734,4,61,53
0.10000000000000142,3734,5,61,52
0.10000000000000142,3734,6,61,17
0.10000000000000142,3734,7,61,32
0.10000000000000142,3734,8,61,34
0.004545454545457517,3734,9,61,21
0.10000000000000142,3734,10,61,27
0.09999999999999432,3734,11,61,36
0.10000000000000142,3734,12,61,26
0.10000000000000142,3734,13,61,14
0.10000000000000142,3734,14,61,19
0.10000000000000142,3734,15,61,21
0.10000000000000142,3735,0,61,22
0.09999999999999432,3735,1,61,15
0.10000000000000142,3735,2,61,21
0.10000000000000142,3735,3,61,17
0.10000000000000142,3735,4,61,40
0.09999999999999432,3735,5,61,26
0.10000000000000142,3735,6,61,23
0.10000000000000142,3735,7,61,21
0.10000000000000142,3735,8,61,26
0.10000000000000142,3735,9,61,21
0.10000000000000142,3735,10,61,24
0.10000000000000142,3735,11,61,38
0.10000000000000142,3735,12,61,27
0.10000000000000142,3735,13,61,17
0.10000000000000142,3735,14,61,14
0.09999999999999432,3735,15,61,26
0.10000000000000142,3736,0,61,16
0.09999999999999432,3736,1,61,14
0.09999999999999432,3736,2,61,21
0.10000000000000142,3736,3,61,26
0.10000000000000142,3736,4,61,23
0.10000000000000142,3736,5,61,20
0.10000000000000142,3736,6,61,24
0.10000000000000142,3736,7,61,20
0.10000000000000142,3736,8,61,29
0.10000000000000142,3736,9,61,26
0.10000000000000142,3736,10,61,19
0.10000000000000142,3736,11,61,16
0.09999999999999432,3736,12,61,21
0.10000000000000142,3736,13,61,11
0.10000000000000142,3736,14,61,17
0.10000000000000142,3736,15,61,10
0.10000000000000142,3737,0,61,12
0.10000000000000142,3737,1,61,12
0.10000000000000142,3737,2,61,17
0.10000000000000142,3737,3,61,27
0.10000000000000142,3737,4,61,26
0.09999999999999432,3737,5,61,28
0.10000000000000142,3737,6,61,26
0.10000000000000142,3737,7,61,19
0.10000000000000142,3737,8,61,23
0.09999999999999432,3737,9,61,20
0.10000000000000853,3737,10,61,24
0.09999999999999432,3737,11,61,17
0.09999999999999432,3737,12,61,29
0.09999999999999432,3737,13,61,20
0.10000000000000853,3737,14,61,26
0.10000000000000853,3737,15,61,26
0.09999999999999432,3738,0,61,29
0.09999999999999432,3738,1,61,18
0.10000000000000853,3738,2,61,22
0.09999999999999432,3738,3,61,19
0.10000000000000853,3738,4,61,37
0.10000000000000853,3738,5,61,37
0.09999999999999432,3738,6,61,46
0.09999999999999432,3738,7,61,31
0.09999999999999432,3738,8,61,45
0.09999999999999432,3738,9,61,36
0.09999999999999432,3738,10,61,32
0.10000000000000853,3738,11,61,41
0.09999999999999432,3738,12,61,30
0.09999999999999432,3738,13,61,25
0.09999999999999432,3738,14,61,41
0.09999999999999432,3738,15,61,32
0.09999999999999432,3739,0,61,43
0.09999999999999432,3739,1,61,27
0.09999999999999432,3739,2,61,18
0.09999999999999432,3739,3,61,57
0.10000000000000853,3739,4,61,25
0.10000000000000853,3739,5,61,28
0.10000000000000853,3739,6,61,27
0.09999999999999432,3739,7,61,14
0.10000000000000853,3739,8,61,24
0.09999999999999432,3739,9,61,38
0.10000000000000853,3739,10,61,42
0.09999999999999432,3739,11,61,28
0.09999999999999432,3739,12,61,42
0.10000000000000853,3739,13,61,29
0.09999999999999432,3739,14,61,31
0.09999999999999432,3739,15,61,27
0.09999999999999432,3740,0,61,26
0.10000000000000853,3740,1,61,37
0.09999999999999432,3740,2,61,33
0.09999999999999432,3740,3,61,28
0.09999999999999432,3740,4,61,31
0.09999999999999432,3740,5,61,35
0.09999999999999432,3740,6,61,31
0.09999999999999432,3740,7,61,34
0.09999999999999432,3740,8,61,34
0.10000000000000853,3740,9,61,29
0.10000000000000853,3740,10,61,31
0.09999999999999432,3740,11,61,33
0.09999999999999432,3740,12,61,20
0.10000000000000853,3740,13,61,30
0.10000000000000853,3740,14,61,27
0.10000000000000853,3740,15,61,23
0.10000000000000853,3741,0,61,43
0.09999999999999432,3741,1,61,27
0.09999999999999432,3741,2,61,23
0.10000000000000853,3741,3,61,37
0.09999999999999432,3741,4,61,40
0.09999999999999432,3741,5,61,36
0.10000000000000853,3741,6,61,45
0.09999999999999432,3741,7,61,37
0.10000000000000853,3741,8,61,24
0.09999999999999432,3741,9,61,29
0.09999999999999432,3741,10,61,28
0.09999999999999432,3741,11,61,29
0.10000000000000853,3741,12,61,32
0.10000000000000853,3741,13,61,24
0.10000000000000853,3741,14,61,19
0.10000000000000853,3741,15,61,24
0.09999999999999432,3742,0,61,28
0.09999999999999432,3742,1,61,18
0.10000000000000853,3742,2,61,20
0.10000000000000853,3742,3,61,22
0.09999999999999432,3742,4,61,17
0.09999999999999432,3742,5,61,17
0.10000000000000853,3742,6,61,24
0.09999999999999432,3742,7,61,15
0.10000000000000853,3742,8,61,19
0.10000000000000853,3742,9,61,19
0.09999999999999432,3742,10,61,17
0.09999999999999432,3742,11,61,30
0.09999999999999432,3742,12,61,19
0.09999999999999432,3742,13,61,24
0.09999999999999432,3742,14,61,16
0.09999999999999432,3742,15,61,22
0.10000000000000853,3743,0,61,21
0.10000000000000853,3743,1,61,18
0.10000000000000853,3743,2,61,20
0.10000000000000853,3743,3,61,24
0.09999999999999432,3743,4,61,20
0.09999999999999432,3743,5,61,9
0.09999999999999432,3743,6,61,18
0.10000000000000853,3743,7,61,4
0.10000000000000853,3743,8,61,11
0.10000000000000853,3743,9,61,28
0.09999999999999432,3743,10,61,22
0.09999999999999432,3743,11,61,16
0.10000000000000853,3743,12,61,5
0.09999999999999432,3743,13,61,13
0.09999999999999432,3743,14,61,4
0.09999999999999432,3743,15,61,17
0.09999999999999432,3744,0,61,19
0.09999999999999432,3744,1,61,14
0.09999999999999432,3744,2,61,9
0.09999999999999432,3744,3,61,12
0.10000000000000853,3744,4,61,9
0.09999999999999432,3744,5,61,13
0.10000000000000853,3744,6,61,12
0.09999999999999432,3744,7,61,16
0.10000000000000853,3744,8,61,9
0.09999999999999432,3744,9,61,25
0.10000000000000853,3744,10,61,5
0.10000000000000853,3744,11,61,9
0.09999999999999432,3744,12,61,14
0.10000000000000853,3744,13,61,9
0.09999999999999432,3744,14,61,16
0.10000000000000853,3744,15,61,11
0.10000000000000853,3745,0,61,11
0.10000000000000853,3745,1,61,11
0.10000000000000853,3745,2,61,13
0.09999999999999432,3745,3,61,18
0.10000000000000853,3745,4,61,17
0.09999999999999432,3745,5,61,11
0.10000000000000853,3745,6,61,14
0.10000000000000853,3745,7,61,15
0.10000000000000853,3745,8,61,12
0.09999999999999432,3745,9,61,10
0.09999999999999432,3745,10,61,14
0.09999999999999432,3745,11,61,11
0.09999999999999432,3745,12,61,12
0.09999999999999432,3745,13,61,14
0.10000000000000853,3745,14,61,17
0.09999999999999432,3745,15,61,22
0.09999999999999432,3746,0,61,20
0.10000000000000853,3746,1,61,15
0.09999999999999432,3746,2,61,14
0.10000000000000853,3746,3,61,8
0.09999999999999432,3746,4,61,10
0.09999999999999432,3746,5,61,12
0.09999999999999432,3746,6,61,13
0.10000000000000853,3746,7,61,10
0.09999999999999432,3746,8,61,13
0.09999999999999432,3746,9,61,16
0.10000000000000853,3746,10,61,13
0.09999999999999432,3746,11,61,20
0.10000000000000853,3746,12,61,12
0.09999999999999432,3746,13,61,16
0.10000000000000853,3746,14,61,18
0.09999999999999432,3746,15,61,23
0.09999999999999432,3747,0,61,35
0.10000000000000853,3747,1,61,38
0.10000000000000853,3747,2,61,53
0.09999999999999432,3747,3,61,57
0.09999999999999432,3747,4,61,17
0.09999999999999432,3747,5,61,1
0.09999999999999432,3747,6,61,7
0.03636363636363171,3747,7,61,20
0.03636363636363171,3747,8,61,41
0.09999999999999432,3747,9,61,22
0.03636363636363171,3747,10,61,28
0.04772727272725774,3747,11,61,32
0.09999999999999432,3747,12,61,34
0.004545454545450411,3747,13,61,49
0.09999999999999432,3747,14,61,28
0.10000000000002274,3747,15,61,24
0.09999999999999432,3748,0,61,12
0.03409090909090651,3748,1,61,19
0.09999999999999432,3748,2,61,36
0.09999999999999432,3748,3,61,26
0.04545454545456096,3748,4,61,47
0.09999999999999432,3748,5,61,23
0.10000000000002274,3748,6,61,18
0.10000000000002274,3748,7,61,33
0.09999999999999432,3748,8,61,27
0.09999999999999432,3748,9,61,19
0.09999999999999432,3748,10,61,30
0.09999999999999432,3748,11,61,24
0.10000000000002274,3748,12,61,28
0.09999999999999432,3748,13,61,30
0.09999999999999432,3748,14,61,26
0.09999999999999432,3748,15,61,32
0.09999999999999432,3749,0,61,27
0.09999999999999432,3749,1,61,23
0.09999999999999432,3749,2,61,30
0.09999999999999432,3749,3,61,22
0.09999999999999432,3749,4,61,28
0.09999999999999432,3749,5,61,23
0.09999999999999432,3749,6,61,26
0.09999999999999432,3749,7,61,37
0.09999999999999432,3749,8,61,38
0.09999999999999432,3749,9,61,44
0.09999999999999432,3749,10,61,28
0.10000000000002274,3749,11,61,32
0.09999999999999432,3749,12,61,36
0.10000000000002274,3749,13,61,33
0.09999999999999432,3749,14,61,32
0.09999999999999432,3749,15,61,33
0.10000000000002274,3750,0,61,46
0.09999999999999432,3750,1,61,38
0.10000000000002274,3750,2,61,34
0.09999999999999432,3750,3,61,34
0.09999999999999432,3750,4,61,31
0.09999999999999432,3750,5,61,30
0.09999999999999432,3750,6,61,29
0.09999999999999432,3750,7,61,37
0.10000000000002274,3750,8,61,38
0.09999999999999432,3750,9,61,29
0.09999999999999432,3750,10,61,36
0.09999999999999432,3750,11,61,36
0.09999999999999432,3750,12,61,36
0.09999999999999432,3750,13,61,36
0.09999999999999432,3750,14,61,41
0.09999999999999432,3750,15,61,33
0.09999999999999432,3751,0,61,26
0.09999999999999432,3751,1,61,34
0.09999999999999432,3751,2,61,41
0.09999999999999432,3751,3,61,36
0.09999999999999432,3751,4,61,49
0.09999999999999432,3751,5,61,28
0.10000000000002274,3751,6,61,49
0.09999999999999432,3751,7,61,50
0.09999999999999432,3751,8,61,41
0.09999999999999432,3751,9,61,28
0.09999999999999432,3751,10,61,33
0.09999999999999432,3751,11,61,39
0.09999999999999432,3751,12,61,34
0.09999999999999432,3751,13,61,39
0.09999999999999432,3751,14,61,33
0.10000000000002274,3751,15,61,44
0.09999999999999432,3752,0,61,49
0.09999999999999432,3752,1,61,36
0.10000000000002274,3752,2,61,34
0.09999999999999432,3752,3,61,33
0.09999999999999432,3752,4,61,40
0.09999999999999432,3752,5,61,47
0.09999999999999432,3752,6,61,26
0.09999999999999432,3752,7,61,52
0.09999999999999432,3752,8,61,43
0.09999999999999432,3752,9,61,32
0.10000000000002274,3752,10,61,42
0.10000000000002274,3752,11,61,34
0.10000000000002274,3752,12,61,24
0.09999999999999432,3752,13,61,40
0.09999999999999432,3752,14,61,33
0.09999999999999432,3752,15,61,36
0.09999999999999432,3753,0,61,27
0.09999999999999432,3753,1,61,40
0.09999999999999432,3753,2,61,29
0.09999999999999432,3753,3,61,23
0.10000000000002274,3753,4,61,48
0.09999999999999432,3753,5,61,41
0.09999999999999432,3753,6,61,56
0.09999999999999964,3753,7,67,1
0.10000000000000142,3753,8,67,1
0.09999999999999964,3753,9,67,4
0.09999999999999964,3753,10,67,6
0.09999999999999964,3753,11,67,5
0.09999999999999964,3753,12,67,5
0.09999999999999964,3753,13,67,4
0.09999999999999964,3753,14,67,3
0.10000000000000142,3753,15,67,2
0.09999999999999964,3754,0,67,18
0.09999999999999964,3754,1,67,11
0.09999999999999964,3754,2,67,13
0.09999999999999964,3754,3,67,9
0.10000000000000142,3754,4,67,12
0.09999999999999964,3754,5,67,16
0.10000000000000142,3754,6,67,14
0.10000000000000142,3754,7,67,15
0.09999999999999787,3754,8,67,12
0.10000000000000142,3754,9,67,21
0.09999999999999787,3754,10,67,26
0.09999999999999787,3754,11,67,21
0.10000000000000142,3754,12,67,9
0.09999999999999787,3754,13,67,11
0.10000000000000142,3754,14,67,15
0.10000000000000142,3754,15,67,40
0.10000000000000142,3755,0,67,41
0.10000000000000142,3755,1,67,40
0.09999999999999787,3755,2,67,41
0.09999999999999787,3755,3,67,40
0.09999999999999787,3755,4,67,45
0.09999999999999787,3755,5,67,49
0.10000000000000142,3755,6,67,45
0.10000000000000142,3755,7,67,34
0.09999999999999787,3755,8,67,21
0.09999999999999787,3755,9,67,36
0.09999999999999787,3755,10,67,20
0.10000000000000142,3755,11,67,19
0.10000000000000142,3755,12,67,22
0.09999999999999787,3755,13,67,19
0.10000000000000142,3755,14,67,6
0.09999999999999787,3755,15,67,7
0.09999999999999432,3756,0,67,6
0.10000000000000142,3756,1,67,9
0.09999999999999432,3756,2,67,9
0.10000000000000142,3756,3,67,3
0.10000000000000142,3756,4,67,5
0.10000000000000142,3756,5,67,9
0.10000000000000142,3756,6,67,7
0.10000000000000142,3756,7,67,2
0.10000000000000142,3756,8,67,3
0.10000000000000142,3756,9,67,8
0.10000000000000142,3756,10,67,4
0.10000000000000142,3756,11,67,4
0.09999999999999432,3756,12,67,7
0.10000000000000142,3756,13,67,2
0.10000000000000142,3756,14,67,1
0.10000000000000142,3756,15,67,9
0.09999999999999432,3757,0,67,8
0.10000000000000142,3757,1,67,7
0.10000000000000142,3757,2,67,5
0.10000000000000142,3757,3,67,14
0.10000000000000142,3757,4,67,14
0.10000000000000142,3757,5,67,12
0.10000000000000142,3757,6,67,9
0.10000000000000142,3757,7,67,7
0.10000000000000142,3757,8,67,7
0.09999999999999432,3757,9,67,1
0.10000000000000142,3757,10,67,1
0.09999999999999432,3757,11,67,1
0.10000000000000142,3757,12,67,1
0.10000000000000142,3757,13,67,2
0.10000000000000142,3757,14,67,1
0.10000000000000142,3757,15,67,1
0.10000000000000142,3758,0,67,1
0.10000000000000142,3758,1,67,1
0.10000000000000142,3758,2,67,2
0.10000000000000142,3758,3,67,1
0.10000000000000142,3758,4,67,2
0.10000000000000142,3758,5,67,4
0.10000000000000142,3758,6,67,2
0.10000000000000142,3758,7,67,6
0.10000000000000142,3758,8,67,3
0.10000000000000853,3758,9,67,3
0.09999999999999432,3758,10,67,4
0.09999999999999432,3758,11,67,3
0.10000000000000853,3758,12,67,7
0.09999999999999432,3758,13,67,2
0.09999999999999432,3758,14,67,4
0.10000000000000853,3758,15,67,4
0.09999999999999432,3759,0,67,4
0.10000000000000853,3759,1,67,4
0.10000000000000853,3759,2,67,2
0.10000000000000853,3759,3,67,5
0.10000000000000853,3759,4,67,6
0.09999999999999432,3759,5,67,8
0.10000000000000853,3759,6,67,6
0.09999999999999432,3759,7,67,3
0.09999999999999432,3759,8,67,9
0.09999999999999432,3759,9,67,4
0.09999999999999432,3759,10,67,4
0.09999999999999432,3759,11,67,11
0.09999999999999432,3759,12,67,2
0.10000000000000853,3759,13,67,5
0.10000000000000853,3759,14,67,3
0.10000000000000853,3759,15,67,9
0.10000000000000853,3760,0,67,3
0.09999999999999432,3760,1,67,8
0.10000000000000853,3760,2,67,9
0.10000000000000853,3760,3,67,7
0.09999999999999432,3760,4,67,15
0.10000000000000853,3760,5,67,2
0.10000000000000853,3760,6,67,10
0.10000000000000853,3760,7,67,16
0.09999999999999432,3760,8,67,15
0.10000000000000853,3760,9,67,14
0.09999999999999432,3760,10,67,26
0.09999999999999432,3760,11,67,17
0.09999999999999432,3760,12,67,26
0.10000000000000853,3760,13,67,27
0.09999999999999432,3760,14,67,18
0.10000000000000853,3760,15,67,6
0.10000000000000853,3761,0,67,6
0.09999999999999432,3761,1,67,15
0.10000000000000853,3761,2,67,15
0.09999999999999432,3761,3,67,23
0.09999999999999432,3761,4,67,11
0.10000000000000853,3761,5,67,9
0.09999999999999432,3761,6,67,23
0.09999999999999432,3761,7,67,13
0.10000000000000853,3761,8,67,10
0.09999999999999432,3761,9,67,9
0.09999999999999432,3761,10,67,4
0.10000000000000853,3761,11,67,12
0.09999999999999432,3761,12,67,7
0.09999999999999432,3761,13,67,14
0.09999999999999432,3761,14,67,15
0.10000000000000853,3761,15,67,18
0.09999999999999432,3762,0,67,10
0.09999999999999432,3762,1,67,5
0.10000000000002274,3762,2,67,10
0.09999999999999432,3762,3,67,7
0.09999999999999432,3762,4,67,6
0.09999999999999432,3762,5,67,7
0.09999999999999432,3762,6,67,11
0.10000000000002274,3762,7,67,7
0.09999999999999432,3762,8,67,9
0.09999999999999432,3762,9,67,13
0.09999999999999432,3762,10,67,15
0.09999999999999432,3762,11,67,5
0.09999999999999432,3762,12,67,9
0.09999999999999432,3762,13,67,5
0.09999999999999432,3762,14,67,8
0.09999999999999432,3762,15,67,13
0.09999999999999432,3763,0,67,6
0.10000000000002274,3763,1,67,6
0.09999999999999432,3763,2,67,6
0.09999999999999432,3763,3,67,9
0.09999999999999432,3763,4,67,7
0.09999999999999432,3763,5,67,8
0.09999999999999432,3763,6,67,6
0.09999999999999432,3763,7,67,7
0.09999999999999432,3763,8,67,9
0.09999999999999432,3763,9,67,9
0.09999999999999432,3763,10,67,7
0.10000000000002274,3763,11,67,11
0.09999999999999432,3763,12,67,14
0.10000000000002274,3763,13,67,10
0.09999999999999432,3763,14,67,12
0.09999999999999432,3763,15,67,17
0.09999999999999432,3764,0,67,11
0.09999999999999432,3764,1,67,15
0.09999999999999432,3764,2,67,13
0.09999999999999432,3764,3,67,11
0.09999999999999432,3764,4,67,10
0.09999999999999432,3764,5,67,12
0.09999999999999432,3764,6,67,15
0.09999999999999432,3764,7,67,11
0.10000000000002274,3764,8,67,11
0.09999999999999432,3764,9,67,14
0.09999999999999432,3764,10,67,9
0.10000000000002274,3764,11,67,12
0.09999999999999432,3764,12,67,12
0.09999999999999432,3764,13,67,10
0.09999999999999432,3764,14,67,14
0.09999999999999432,3764,15,67,8
0.09999999999999432,3765,0,67,9
0.10000000000002274,3765,1,67,13
0.10000000000002274,3765,2,67,11
0.09999999999999432,3765,3,67,7
0.09999999999999432,3765,4,67,10
0.09999999999999432,3765,5,67,14
0.09999999999999432,3765,6,67,3
0.09999999999999987,3765,7,65,14
0.09999999999999964,3765,8,65,16
0.10000000000000009,3765,9,65,14
0.09999999999999964,3765,10,65,15
0.09999999999999964,3765,11,65,12
0.09999999999999964,3765,12,65,14
0.10000000000000053,3765,13,65,14
0.09999999999999964,3765,14,65,1
0.09999999999999964,3765,15,65,2
0.09999999999999964,3766,0,65,11
0.09999999999999964,3766,1,65,13
0.09999999999999964,3766,2,65,13
0.09999999999999964,3766,3,65,3
0.09999999999999964,3766,4,65,15
0.09999999999999964,3766,5,65,13
0.09999999999999964,3766,6,65,12
0.09999999999999964,3766,7,65,2
0.09999999999999964,3766,8,65,14
0.09999999999999964,3766,9,65,4
0.09999999999999964,3766,10,65,1
0.10000000000000142,3766,11,65,1
0.09999999999999964,3766,12,65,16
0.10000000000000142,3766,13,65,11
0.10000000000000142,3766,14,65,3
0.09999999999999787,3766,15,65,5
0.10000000000000142,3767,0,65,10
0.10000000000000142,3767,1,65,13
0.09999999999999787,3767,2,65,3
0.10000000000000142,3767,3,65,34
0.10000000000000142,3767,4,65,5
0.10000000000000142,3767,5,65,32
0.10000000000000142,3767,6,65,1
0.09999999999999787,3767,7,65,32
0.10000000000000142,3767,8,65,2
0.10000000000000142,3767,9,65,30
0.10000000000000142,3767,10,65,1
0.09999999999999787,3767,11,65,32
0.10000000000000142,3767,12,65,1
0.10000000000000142,3767,13,65,33
0.10000000000000142,3767,14,65,16
0.09999999999999787,3767,15,65,7
0.10000000000000142,3768,0,65,16
0.10000000000000142,3768,1,65,30
0.10000000000000142,3768,2,65,14
0.10000000000000142,3768,3,65,6
0.09999999999999787,3768,4,65,14
0.10000000000000142,3768,5,65,12
0.09999999999999787,3768,6,65,29
0.09999999999999787,3768,7,65,10
0.10000000000000142,3768,8,65,18
0.09999999999999787,3768,9,65,13
0.09999999999999787,3768,10,65,12
0.10000000000000142,3768,11,65,10
0.10000000000000142,3768,12,65,10
0.09999999999999787,3768,13,65,28
0.10000000000000142,3768,14,65,11
0.10000000000000142,3768,15,65,7
0.09999999999999787,3769,0,65,11
0.10000000000000142,3769,1,65,17
0.09999999999999787,3769,2,65,31
0.09999999999999787,3769,3,65,9
0.09999999999999787,3769,4,65,10
0.09999999999999787,3769,5,65,10
0.09999999999999787,3769,6,65,20
0.09999999999999787,3769,7,65,9
0.10000000000000142,3769,8,65,10
0.10000000000000142,3769,9,65,9
0.10000000000000142,3769,10,65,22
0.10000000000000142,3769,11,65,9
0.09999999999999432,3769,12,65,11
0.10000000000000142,3769,13,65,10
0.10000000000000142,3769,14,65,25
0.10000000000000142,3769,15,65,9
0.10000000000000142,3770,0,65,11
0.10000000000000142,3770,1,65,1
0.09999999999999432,3770,2,65,10
0.10000000000000142,3770,3,65,11
0.10000000000000142,3770,4,65,17
0.10000000000000142,3770,5,65,19
0.10000000000000142,3770,6,65,19
0.10000000000000142,3770,7,65,21
0.09999999999999432,3770,8,65,1
0.10000000000000142,3770,9,65,19
0.10000000000000142,3770,10,65,17
0.10000000000000142,3770,11,65,34
0.10000000000000142,3770,12,65,9
0.10000000000000142,3770,13,65,20
0.10000000000000142,3770,14,65,22
0.09999999999999432,3770,15,65,12
0.10000000000000142,3771,0,65,8
0.10000000000000142,3771,1,65,5
0.10000000000000142,3771,2,65,12
0.10000000000000142,3771,3,65,23
0.10000000000000142,3771,4,65,12
0.10000000000000142,3771,5,65,2
0.10000000000000142,3771,6,65,16
0.10000000000000142,3771,7,65,6
0.10000000000000142,3771,8,65,14
0.10000000000000142,3771,9,65,5
0.10000000000000142,3771,10,65,4
0.10000000000000142,3771,11,65,9
0.10000000000000142,3771,12,65,4
0.10000000000000142,3771,13,65,13
0.09999999999999432,3771,14,65,19
0.10000000000000142,3771,15,65,8
0.10000000000000142,3772,0,65,1
0.10000000000000142,3772,1,65,5
0.10000000000000142,3772,2,65,1
0.10000000000000142,3772,3,65,12
0.10000000000000142,3772,4,65,22
0.10000000000000142,3772,5,65,4
0.10000000000000142,3772,6,65,9
0.10000000000000142,3772,7,65,5
0.09999999999999432,3772,8,65,5
0.10000000000000142,3772,9,65,5
0.09999999999999432,3772,10,65,23
0.10000000000000142,3772,11,65,7
0.10000000000000142,3772,12,65,6
0.10000000000000142,3772,13,65,12
0.10000000000000142,3772,14,65,7
0.10000000000000142,3772,15,65,24
0.10000000000000142,3773,0,65,4
0.09999999999999432,3773,1,65,5
0.10000000000000142,3773,2,65,5
0.10000000000000142,3773,3,65,5
0.09999999999999432,3773,4,65,9
0.10000000000000142,3773,5,65,17
0.10000000000000142,3773,6,65,10
0.10000000000000142,3773,7,65,2
0.10000000000000142,3773,8,65,8
0.10000000000000142,3773,9,65,5
0.10000000000000142,3773,10,65,24
0.09999999999999432,3773,11,65,5
0.10000000000000142,3773,12,65,10
0.10000000000000142,3773,13,65,2
0.10000000000000142,3773,14,65,5
0.09999999999999432,3773,15,65,5
0.10000000000000142,3774,0,65,8
0.09999999999999432,3774,1,65,23
0.09999999999999432,3774,2,65,19
0.09999999999999432,3774,3,65,25
0.09999999999999432,3774,4,65,11
0.10000000000002274,3774,5,65,24
0.09999999999999432,3774,6,65,18
0.10000000000002274,3774,7,65,21
0.09999999999999432,3774,8,65,11
0.09999999999999787,3774,9,61,1
0.10000000000000142,3774,10,61,6
0.10000000000000142,3774,11,61,17
0.10000000000000142,3774,12,61,19
0.10000000000000142,3774,13,61,20
0.10000000000000142,3774,14,61,12
0.10000000000000142,3774,15,61,8
0.10000000000000142,3775,0,61,4
0.10000000000000142,3775,1,61,17
0.10000000000000142,3775,2,61,16
0.10000000000000142,3775,3,61,13
0.09999999999999432,3775,4,61,21
0.10000000000000142,3775,5,61,19
0.09999999999999432,3775,6,61,14
0.10000000000000142,3775,7,61,23
0.10000000000000142,3775,8,61,20
0.09999999999999432,3775,9,61,6
0.06818181818181301,3775,10,61,10
0.09999999999999432,3775,11,61,19
0.10000000000000853,3775,12,61,9
0.09999999999999432,3775,13,61,22
0.10000000000000853,3775,14,61,17
0.09999999999999432,3775,15,61,13
0.10000000000000853,3776,0,61,23
0.09999999999999432,3776,1,61,24
0.10000000000000853,3776,2,61,39
0.10000000000000853,3776,3,61,31
0.10000000000000853,3776,4,61,14
0.09999999999999432,3776,5,61,21
0.09999999999999432,3776,6,61,31
0.09999999999999432,3776,7,61,29
0.09999999999999432,3776,8,61,21
0.10000000000000853,3776,9,61,30
0.10000000000000853,3776,10,61,31
0.09999999999999432,3776,11,61,27
0.10000000000000853,3776,12,61,18
0.09999999999999432,3776,13,61,24
0.09999999999999432,3776,14,61,20
0.09999999999999432,3776,15,61,9
0.09999999999999432,3777,0,61,17
0.09999999999999432,3777,1,61,19
0.09999999999999432,3777,2,61,17
0.09999999999999432,3777,3,61,18
0.09999999999999432,3777,4,61,12
0.10000000000000853,3777,5,61,18
0.09999999999999998,3777,6,79,6
0.09999999999999998,3777,7,79,39
0.09999999999999998,3777,8,79,30
0.09999999999999987,3777,9,79,39
0.10000000000000009,3777,10,79,38
0.10000000000000009,3777,11,79,54
0.10000000000000009,3777,12,79,51
0.10000000000000009,3777,13,79,53
0.10000000000000009,3777,14,79,12
0.10000000000000053,3777,15,79,42
0.004545454545454852,3778,0,79,51
0.09999999999999964,3778,1,79,74
0.09999999999999964,3778,2,79,70
0.09999999999999964,3778,3,79,25
0.04772727272727195,3778,4,79,42
0.10000000000000053,3778,5,79,70
0.10000000000000053,3778,6,79,40
0.10000000000000053,3778,7,79,36
0.10000000000000053,3778,8,79,47
0.10000000000000053,3778,9,79,78
0.09999999999999964,3778,10,79,40
0.09999999999999964,3778,11,79,9
0.09999999999999964,3778,12,79,58
0.025000000000000355,3778,13,79,90
0.09999999999999964,3778,14,79,46
0.09999999999999964,3778,15,79,81
0.09999999999999964,3779,0,79,76
0.10000000000000142,3779,1,79,58
0.09999999999999964,3779,2,79,46
0.09999999999999964,3779,3,79,64
0.09999999999999964,3779,4,79,73
0.09999999999999964,3779,5,79,33
0.09999999999999964,3779,6,79,59
0.09999999999999964,3779,7,79,70
0.09999999999999964,3779,8,79,28
0.09999999999999964,3779,9,79,11
0.10000000000000142,3779,10,79,70
0.10000000000000142,3779,11,79,32
0.09999999999999964,3779,12,79,13
0.09999999999999964,3779,13,79,67
0.10000000000000142,3779,14,79,52
0.09999999999999964,3779,15,79,50
0.09999999999999964,3780,0,79,15
0.09999999999999964,3780,1,79,85
0.09999999999999787,3780,2,79,62
0.10000000000000142,3780,3,79,78
0.10000000000000142,3780,4,79,50
0.10000000000000142,3780,5,79,57
0.09999999999999787,3780,6,79,49
0.09999999999999787,3780,7,79,56
0.09999999999999787,3780,8,79,36
0.10000000000000142,3780,9,79,72
0.10000000000000142,3780,10,79,49
0.09999999999999787,3780,11,79,57
0.09999999999999787,3780,12,79,57
0.10000000000000142,3780,13,79,63
0.09999999999999787,3780,14,79,60
0.10000000000000142,3780,15,79,52
0.10000000000000142,3781,0,79,50
0.10000000000000142,3781,1,79,57
0.10000000000000142,3781,2,79,64
0.10000000000000142,3781,3,79,77
0.10000000000000142,3781,4,79,8
0.09999999999999787,3781,5,79,69
0.09999999999999787,3781,6,79,96
0.10000000000000142,3781,7,79,84
0.10000000000000142,3781,8,79,90
0.10000000000000142,3781,9,79,66
0.10000000000000142,3781,10,79,50
0.02499999999999858,3781,11,79,93
0.09999999999999787,3781,12,79,62
0.10000000000000142,3781,13,79,57
0.10000000000000142,3781,14,79,119
0.09999999999999787,3781,15,79,76
0.10000000000000142,3782,0,79,109
0.10000000000000142,3782,1,79,65
0.09999999999999787,3782,2,79,78
0.10000000000000142,3782,3,79,85
0.09999999999999787,3782,4,79,24
0.09999999999999787,3782,5,79,101
0.10000000000000142,3782,6,79,70
0.10000000000000142,3782,7,79,98
0.10000000000000142,3782,8,79,83
0.10000000000000142,3782,9,79,62
0.09999999999999787,3782,10,79,61
0.10000000000000142,3782,11,79,62
0.09999999999999787,3782,12,79,60
0.09999999999999787,3782,13,79,70
0.10000000000000142,3782,14,79,83
0.09999999999999787,3782,15,79,68
0.10000000000000142,3783,0,79,60
0.09999999999999787,3783,1,79,54
0.10000000000000142,3783,2,79,68
0.09999999999999432,3783,3,79,80
0.10000000000000142,3783,4,79,59
0.10000000000000142,3783,5,79,87
0.10000000000000142,3783,6,79,37
0.10000000000000142,3783,7,79,72
0.09999999999999432,3783,8,79,21
0.09999999999999432,3783,9,79,74
0.10000000000000142,3783,10,79,28
0.10000000000000142,3783,11,79,60
0.09999999999999432,3783,12,79,70
0.09999999999999432,3783,13,79,61
0.10000000000000142,3783,14,79,73
0.10000000000000142,3783,15,79,43
0.10000000000000142,3784,0,79,51
0.10000000000000142,3784,1,79,85
0.10000000000000142,3784,2,79,15
0.09999999999999432,3784,3,79,49
0.10000000000000142,3784,4,79,84
0.09999999999999432,3784,5,79,49
0.10000000000000142,3784,6,79,73
0.10000000000000142,3784,7,79,43
0.10000000000000142,3784,8,79,23
0.10000000000000142,3784,9,79,57
0.06818181818181301,3784,10,79,83
0.10000000000000142,3784,11,79,76
0.10000000000000142,3784,12,79,64
0.10000000000000142,3784,13,79,60
0.10000000000000142,3784,14,79,75
0.10000000000000142,3784,15,79,44
0.10000000000000142,3785,0,79,73
0.10000000000000142,3785,1,79,22
0.10000000000000142,3785,2,79,56
0.10000000000000142,3785,3,79,64
0.10000000000000142,3785,4,79,81
0.10000000000000142,3785,5,79,64
0.10000000000000142,3785,6,79,64
0.10000000000000142,3785,7,79,70
0.10000000000000142,3785,8,79,18
0.09999999999999432,3785,9,79,52
0.09999999999999432,3785,10,79,77
0.10000000000000142,3785,11,79,80
0.10000000000000142,3785,12,79,41
0.10000000000000142,3785,13,79,73
0.09999999999999432,3785,14,79,59
0.10000000000000142,3785,15,79,84
0.10000000000000142,3786,0,79,69
0.09999999999999432,3786,1,79,68
0.10000000000000142,3786,2,79,46
0.10000000000000142,3786,3,79,72
0.10000000000000142,3786,4,79,103
0.10000000000000142,3786,5,79,99
0.10000000000000142,3786,6,79,67
0.10000000000000142,3786,7,79,73
0.10000000000000142,3786,8,79,64
0.10000000000000142,3786,9,79,19
0.10000000000000142,3786,10,79,55
0.025000000000005684,3786,11,79,73
0.10000000000000142,3786,12,79,79
0.09999999999999432,3786,13,79,21
0.09999999999999432,3786,14,79,43
0.10000000000000142,3786,15,79,83
0.09999999999999432,3787,0,79,90
0.10000000000000142,3787,1,79,71
0.10000000000000142,3787,2,79,63
0.09999999999999432,3787,3,79,85
0.004545454545450411,3787,4,79,82
0.10000000000000142,3787,5,79,104
0.10000000000000142,3787,6,79,79
0.09999999999999432,3787,7,79,40
0.10000000000000142,3787,8,79,84
0.09999999999999432,3787,9,79,67
0.01590909090909065,3787,10,79,21
0.10000000000000142,3787,11,79,84
0.10000000000000142,3787,12,79,52
0.10000000000000142,3787,13,79,53
0.025000000000005684,3787,14,79,72
0.10000000000000142,3787,15,79,95
0.10000000000000142,3788,0,79,56
0.10000000000000142,3788,1,79,63
0.10000000000000142,3788,2,79,103
0.10000000000000142,3788,3,79,19
0.10000000000000142,3788,4,79,68
0.10000000000000142,3788,5,79,61
0.10000000000000142,3788,6,79,116
0.09999999999999432,3788,7,79,63
0.10000000000000142,3788,8,79,63
0.09999999999999432,3788,9,79,97
0.10000000000000142,3788,10,79,36
0.03636363636363171,3788,11,79,72
0.10000000000000142,3788,12,79,101
0.09999999999999432,3788,13,79,82
0.09999999999999432,3788,14,79,23
0.10000000000000142,3788,15,79,83
0.10000000000000142,3789,0,79,92
0.10000000000000142,3789,1,79,55
0.10000000000000142,3789,2,79,52
0.10000000000000142,3789,3,79,70
0.09999999999999432,3789,4,79,20
0.10000000000000142,3789,5,79,45
0.10000000000000142,3789,6,79,63
0.10000000000000142,3789,7,79,73
0.10000000000000142,3789,8,79,81
0.10000000000000142,3789,9,79,63
0.10000000000000142,3789,10,79,89
0.10000000000000142,3789,11,79,20
0.10000000000000142,3789,12,79,34
0.06818181818182012,3789,13,79,52
0.0022727272727252057,3789,14,79,84
0.09999999999999432,3789,15,79,52
0.10000000000000142,3790,0,79,65
0.10000000000000853,3790,1,79,84
0.09999999999999432,3790,2,79,47
0.10000000000000853,3790,3,79,57
0.09999999999999432,3790,4,79,68
0.09999999999999432,3790,5,79,45
0.09999999999999432,3790,6,79,79
0.10000000000000853,3790,7,79,39
0.10000000000000853,3790,8,79,98
0.09999999999999432,3790,9,79,70
0.09999999999999432,3790,10,79,63
0.10000000000000853,3790,11,79,13
0.09999999999999432,3790,12,79,55
0.09999999999999432,3790,13,79,84
0.10000000000000853,3790,14,79,77
0.09999999999999432,3790,15,79,70
0.09999999999999432,3791,0,79,22
0.10000000000000853,3791,1,79,66
0.09999999999999432,3791,2,79,71
0.10000000000000853,3791,3,79,62
0.09999999999999432,3791,4,79,73
0.10000000000000853,3791,5,79,54
0.09999999999999432,3791,6,79,18
0.10000000000000853,3791,7,79,63
0.09999999999999432,3791,8,79,82
0.10000000000000853,3791,9,79,66
0.05909090909091219,3791,10,79,76
0.10000000000000853,3791,11,79,60
0.09999999999999432,3791,12,79,42
0.09999999999999432,3791,13,79,52
0.09999999999999432,3791,14,79,56
0.09999999999999432,3791,15,79,33
0.01590909090909065,3792,0,79,77
0.09999999999999432,3792,1,79,73
0.09999999999999432,3792,2,79,65
0.10000000000000853,3792,3,79,54
0.10000000000000853,3792,4,79,26
0.06818181818182723,3792,5,79,54
0.09999999999999432,3792,6,79,71
0.10000000000000853,3792,7,79,51
0.09999999999999432,3792,8,79,121
0.09999999999999432,3792,9,79,82
0.09999999999999432,3792,10,79,46
0.09999999999999432,3792,11,79,53
0.10000000000000853,3792,12,79,37
0.09999999999999432,3792,13,79,81
0.10000000000000853,3792,14,79,84
0.09999999999999432,3792,15,79,69
0.09999999999999432,3793,0,79,84
0.10000000000000853,3793,1,79,95
0.09999999999999432,3793,2,79,84
0.10000000000000853,3793,3,79,63
0.09999999999999432,3793,4,79,66
0.10000000000000853,3793,5,79,66
0.10000000000000853,3793,6,79,74
0.09999999999999432,3793,7,79,76
0.09999999999999432,3793,8,79,82
0.10000000000000853,3793,9,79,66
0.10000000000000853,3793,10,79,78
0.09999999999999432,3793,11,79,82
0.09999999999999432,3793,12,79,68
0.10000000000000853,3793,13,79,105
0.09999999999999432,3793,14,79,66
0.09999999999999432,3793,15,79,61
0.09999999999999432,3794,0,79,40
0.10000000000000853,3794,1,79,71
0.09999999999999432,3794,2,79,27
0.09999999999999432,3794,3,79,115
0.09999999999999432,3794,4,79,94
0.10000000000000853,3794,5,79,90
0.09999999999999432,3794,6,79,71
0.01590909090909065,3794,7,79,76
0.0022727272727252057,3794,8,79,68
0.09999999999999432,3794,9,79,72
0.09999999999999432,3794,10,79,86
0.09999999999999432,3794,11,79,61
0.09999999999999432,3794,12,79,60
0.09999999999999432,3794,13,79,44
0.09999999999999432,3794,14,79,16
0.09999999999999432,3794,15,79,113
0.04772727272727195,3795,0,79,127
0.10000000000000853,3795,1,79,83
0.09999999999999432,3795,2,79,85
0.09999999999999432,3795,3,79,72
0.09999999999999432,3795,4,79,31
0.10000000000000853,3795,5,79,101
0.10000000000000853,3795,6,79,81
0.09999999999999432,3795,7,79,66
0.09999999999999432,3795,8,79,88
0.09999999999999432,3795,9,79,93
0.09999999999999432,3795,10,79,63
0.09999999999999432,3795,11,79,52
0.10000000000000853,3795,12,79,47
0.09999999999999432,3795,13,79,38
0.10000000000000853,3795,14,79,58
0.10000000000000853,3795,15,79,32
0.09999999999999432,3796,0,79,76
0.10000000000000853,3796,1,79,70
0.10000000000000853,3796,2,79,82
0.09999999999999432,3796,3,79,77
0.09999999999999432,3796,4,79,48
0.09999999999999432,3796,5,79,70
0.09999999999999432,3796,6,79,97
0.10000000000000853,3796,7,79,68
0.10000000000000853,3796,8,79,46
0.10000000000000853,3796,9,79,89
0.10000000000000853,3796,10,79,74
0.10000000000000853,3796,11,79,67
0.09999999999999432,3796,12,79,65
0.09999999999999432,3796,13,79,82
0.09999999999999432,3796,14,79,85
0.10000000000000853,3796,15,79,60
0.09999999999999432,3797,0,79,58
0.10000000000000853,3797,1,79,47
0.09999999999999432,3797,2,79,82
0.09999999999999432,3797,3,79,10
0.10000000000000853,3797,4,79,98
0.05909090909091219,3797,5,79,118
0.09999999999999432,3797,6,79,96
0.10000000000000853,3797,7,79,95
0.09999999999999432,3797,8,79,65
0.09999999999999432,3797,9,79,53
0.09999999999999432,3797,10,79,66
0.10000000000000853,3797,11,79,63
0.09999999999999432,3797,12,79,74
0.10000000000000853,3797,13,79,12
0.09999999999999432,3797,14,79,68
0.10000000000000853,3797,15,79,70
0.10000000000000853,3798,0,79,58
0.09999999999999432,3798,1,79,80
0.09999999999999432,3798,2,79,53
0.09999999999999432,3798,3,79,59
0.09999999999999432,3798,4,79,72
0.10000000000000853,3798,5,79,72
0.09999999999999432,3798,6,79,17
0.10000000000000853,3798,7,79,77
0.09999999999999432,3798,8,79,106
0.10000000000000853,3798,9,79,54
0.09999999999999432,3798,10,79,72
0.10000000000000853,3798,11,79,100
0.10000000000000853,3798,12,79,63
0.10000000000000853,3798,13,79,94
0.10000000000000853,3798,14,79,104
0.09999999999999432,3798,15,79,14
0.10000000000000853,3799,0,79,32
0.09999999999999432,3799,1,79,69
0.09999999999999432,3799,2,79,87
0.09999999999999432,3799,3,79,91
0.09999999999999432,3799,4,79,86
0.09999999999999432,3799,5,79,72
0.09999999999999432,3799,6,79,86
0.09999999999999432,3799,7,79,47
0.09999999999999432,3799,8,79,70
0.09999999999999432,3799,9,79,68
0.09999999999999432,3799,10,79,49
0.09999999999999432,3799,11,79,62
0.10000000000000853,3799,12,79,76
0.09999999999999432,3799,13,79,87
0.09999999999999432,3799,14,79,36
0.004545454545450411,3799,15,79,85
0.09999999999999432,3800,0,79,96
0.10000000000000853,3800,1,79,100
0.09999999999999432,3800,2,79,91
0.09999999999999432,3800,3,79,107
0.10000000000000853,3800,4,79,23
0.09999999999999432,3800,5,79,62
0.09999999999999432,3800,6,79,98
0.09999999999999432,3800,7,79,94
0.09999999999999432,3800,8,79,49
0.10000000000002274,3800,9,79,50
0.09999999999999432,3800,10,79,80
0.09999999999999432,3800,11,79,56
0.09999999999999432,3800,12,79,64
0.10000000000002274,3800,13,79,60
0.09999999999999432,3800,14,79,8
0.09999999999999432,3800,15,79,47
0.09999999999999432,3801,0,79,46
0.09999999999999432,3801,1,79,62
0.09999999999999432,3801,2,79,75
0.09999999999999432,3801,3,79,65
0.09999999999999432,3801,4,79,2
0.09999999999999432,3801,5,79,5
0.09999999999999432,3801,6,79,46
0.09999999999999432,3801,7,79,78
0.09999999999999432,3801,8,79,88
0.10000000000002274,3801,9,79,74
0.09999999999999432,3801,10,79,72
0.09999999999999432,3801,11,79,49
0.10000000000002274,3801,12,79,60
0.09999999999999432,3801,13,79,40
0.09999999999999432,3801,14,79,60
0.09999999999999432,3801,15,79,102
0.09999999999999432,3802,0,79,78
0.09999999999999432,3802,1,79,34
0.09999999999999432,3802,2,79,13
0.09999999999999432,3802,3,79,38
0.004545454545450411,3802,4,79,87
0.09999999999999432,3802,5,79,59
0.09999999999999432,3802,6,79,93
0.09999999999999432,3802,7,79,64
0.10000000000002274,3802,8,79,26
0.04545454545456096,3802,9,79,53
0.09999999999999432,3802,10,79,61
0.09999999999999432,3802,11,79,61
0.09999999999999432,3802,12,79,56
0.10000000000002274,3802,13,79,82
0.09999999999999432,3802,14,79,80
0.09999999999999432,3802,15,79,54
0.09999999999999432,3803,0,79,91
0.09999999999999432,3803,1,79,52
0.09999999999999432,3803,2,79,86
0.09999999999999432,3803,3,79,32
0.09999999999999432,3803,4,79,64
0.09999999999999432,3803,5,79,34
0.09999999999999432,3803,6,79,52
0.10000000000002274,3803,7,79,70
0.09999999999999432,3803,8,79,54
0.09999999999999432,3803,9,79,34
0.10000000000002274,3803,10,79,66
0.09999999999999432,3803,11,79,26
0.09999999999999432,3803,12,79,52
0.09999999999999432,3803,13,79,64
0.09999999999999432,3803,14,79,81
0.09999999999999432,3803,15,79,72
0.09999999999999432,3804,0,79,41
0.09999999999999432,3804,1,79,62
0.09999999999999432,3804,2,79,65
0.09999999999999432,3804,3,79,56
0.09999999999999432,3804,4,79,66
0.09999999999999432,3804,5,79,45
0.09999999999999432,3804,6,79,18
0.09999999999999432,3804,7,79,61
0.09999999999999432,3804,8,79,71
0.09999999999999432,3804,9,79,66
0.10000000000002274,3804,10,79,54
0.09999999999999432,3804,11,79,48
0.09999999999999432,3804,12,79,59
0.09999999999999432,3804,13,79,27
0.09999999999999432,3804,14,79,45
0.09999999999999432,3804,15,79,61
0.10000000000002274,3805,0,79,63
0.09999999999999432,3805,1,79,39
0.09999999999999432,3805,2,79,63
0.09999999999999432,3805,3,79,7
0.09999999999999432,3805,4,79,19
0.004545454545450411,3805,5,79,47
0.10000000000002274,3805,6,79,71
0.09999999999999432,3805,7,79,59
0.09999999999999432,3805,8,79,81
0.09999999999999432,3805,9,79,63
0.09999999999999432,3805,10,79,74
0.09999999999999432,3805,11,79,24
0.09999999999999432,3805,12,79,56
0.04772727272728616,3805,13,79,89
0.09999999999999432,3805,14,79,69
0.09999999999999432,3805,15,79,55
0.09999999999999432,3806,0,79,47
0.10000000000002274,3806,1,79,80
0.004545454545478833,3806,2,79,65
0.09999999999999432,3806,3,79,71
0.09999999999999432,3806,4,79,57
0.09999999999999432,3806,5,79,35
0.09999999999999432,3806,6,79,43
0.10000000000000142,3806,7,54,47
0.09999999999999787,3806,8,54,56
0.09999999999999787,3806,9,54,54
0.10000000000000142,3806,10,54,76
0.10000000000000142,3806,11,54,81
0.10000000000000142,3806,12,54,104
0.09999999999999787,3806,13,54,40
0.10000000000000142,3806,14,54,87
0.09999999999999787,3806,15,54,45
0.10000000000000142,3807,0,54,61
0.10000000000000142,3807,1,54,75
0.10000000000000142,3807,2,54,55
0.10000000000000142,3807,3,54,83
0.10000000000000142,3807,4,54,37
0.10000000000000142,3807,5,54,47
0.10000000000000142,3807,6,54,70
0.10000000000000142,3807,7,54,40
0.10000000000000142,3807,8,54,60
0.10000000000000142,3807,9,54,63
0.10000000000000142,3807,10,54,53
0.10000000000000142,3807,11,54,40
0.10000000000000142,3807,12,54,85
0.05681818181817988,3807,13,54,88
0.10000000000000142,3807,14,54,58
0.10000000000000142,3807,15,54,69
0.10000000000000142,3808,0,54,49
0.10000000000000142,3808,1,54,69
0.10000000000000142,3808,2,54,52
0.10000000000000142,3808,3,54,39
0.09999999999999432,3808,4,54,76
0.06818181818181301,3808,5,54,78
0.09999999999999432,3808,6,54,51
0.10000000000000142,3808,7,54,69
0.10000000000000142,3808,8,54,55
0.10000000000000142,3808,9,54,73
0.10000000000000142,3808,10,54,55
0.09999999999999432,3808,11,54,68
0.09999999999999432,3808,12,54,48
0.09999999999999432,3808,13,54,52
0.10000000000000142,3808,14,54,52
0.10000000000000142,3808,15,54,64
0.10000000000000142,3809,0,54,51
0.10000000000000142,3809,1,54,73
0.10000000000000142,3809,2,54,55
0.10000000000000142,3809,3,54,72
0.10000000000000142,3809,4,54,46
0.10000000000000142,3809,5,54,46
0.10000000000000142,3809,6,54,65
0.10000000000000142,3809,7,54,47
0.10000000000000142,3809,8,54,67
0.10000000000000142,3809,9,54,42
0.09999999999999432,3809,10,54,59
0.09999999999999432,3809,11,54,88
0.10000000000000142,3809,12,54,52
0.10000000000000142,3809,13,54,51
0.10000000000000142,3809,14,54,84
0.10000000000000142,3809,15,54,52
0.10000000000000142,3810,0,54,41
0.09999999999999432,3810,1,54,41
0.10000000000000142,3810,2,54,71
0.10000000000000142,3810,3,54,50
0.10000000000000142,3810,4,54,65
0.10000000000000142,3810,5,54,70
0.10000000000000142,3810,6,54,63
0.10000000000000142,3810,7,54,63
0.10000000000000142,3810,8,54,69
0.10000000000000142,3810,9,54,61
0.10000000000000142,3810,10,54,58
0.10000000000000142,3810,11,54,45
0.10000000000000142,3810,12,54,77
0.10000000000000142,3810,13,54,41
0.10000000000000142,3810,14,54,56
0.10000000000000142,3810,15,54,40
0.10000000000000142,3811,0,54,45
0.10000000000000142,3811,1,54,55
0.09999999999999432,3811,2,54,54
0.10000000000000142,3811,3,54,68
0.10000000000000142,3811,4,54,79
0.10000000000000142,3811,5,54,38
0.10000000000000142,3811,6,54,65
0.10000000000000142,3811,7,54,52
0.09999999999999432,3811,8,54,45
0.09999999999999432,3811,9,54,64
0.10000000000000142,3811,10,54,44
0.10000000000000142,3811,11,54,31
0.10000000000000142,3811,12,54,58
0.10000000000000142,3811,13,54,67
0.10000000000000142,3811,14,54,72
0.10000000000000142,3811,15,54,24
0.09999999999999432,3812,0,54,57
0.10000000000000142,3812,1,54,51
0.10000000000000142,3812,2,54,59
0.09999999999999432,3812,3,54,61
0.09999999999999432,3812,4,54,61
0.10000000000000142,3812,5,54,58
0.10000000000000142,3812,6,54,68
0.10000000000000142,3812,7,54,65
0.10000000000000142,3812,8,54,45
0.10000000000000142,3812,9,54,50
0.10000000000000142,3812,10,54,54
0.10000000000000142,3812,11,54,59
0.10000000000000142,3812,12,54,79
0.10000000000000142,3812,13,54,77
0.10000000000000853,3812,14,54,70
0.09999999999999432,3812,15,54,76
0.09999999999999432,3813,0,54,68
0.09999999999999432,3813,1,54,59
0.09999999999999432,3813,2,54,71
0.10000000000000853,3813,3,54,58
0.09999999999999432,3813,4,54,57
0.10000000000000853,3813,5,54,61
0.09999999999999432,3813,6,54,65
0.09999999999999432,3813,7,54,65
0.10000000000000853,3813,8,54,71
0.09999999999999432,3813,9,54,50
0.10000000000000853,3813,10,54,57
0.09999999999999432,3813,11,54,74
0.09999999999999432,3813,12,54,74
0.09999999999999432,3813,13,54,70
0.10000000000000853,3813,14,54,65
0.09999999999999432,3813,15,54,69
0.09999999999999432,3814,0,54,76
0.10000000000000853,3814,1,54,51
0.09999999999999432,3814,2,54,62
0.09999999999999432,3814,3,54,80
0.10000000000000853,3814,4,54,91
0.09999999999999432,3814,5,54,86
0.09999999999999432,3814,6,54,75
0.004545454545450411,3814,7,54,70
0.09999999999999432,3814,8,54,73
0.09999999999999432,3814,9,54,69
0.09999999999999432,3814,10,54,105
0.09999999999999432,3814,11,54,78
0.10000000000000853,3814,12,54,97
0.09999999999999432,3814,13,54,81
0.09999999999999432,3814,14,54,81
0.10000000000000853,3814,15,54,70
0.09999999999999432,3815,0,54,36
0.10000000000000853,3815,1,54,91
0.10000000000000853,3815,2,54,72
0.09999999999999432,3815,3,54,70
0.09999999999999432,3815,4,54,50
0.10000000000000853,3815,5,54,41
0.09999999999999432,3815,6,54,62
0.09999999999999432,3815,7,54,47
0.10000000000000853,3815,8,54,66
0.09999999999999432,3815,9,54,54
0.09999999999999432,3815,10,54,55
0.09999999999999432,3815,11,54,78
0.09999999999999432,3815,12,54,46
0.09999999999999432,3815,13,54,63
0.10000000000000853,3815,14,54,76
0.09999999999999432,3815,15,54,61
0.09999999999999432,3816,0,54,53
0.09999999999999432,3816,1,54,62
0.09999999999999432,3816,2,54,59
0.09999999999999432,3816,3,54,59
0.09999999999999432,3816,4,54,64
0.09999999999999432,3816,5,54,73
0.09999999999999432,3816,6,54,69
0.10000000000000853,3816,7,54,68
0.10000000000000853,3816,8,54,69
0.09999999999999432,3816,9,54,60
0.10000000000000853,3816,10,54,50
0.09999999999999432,3816,11,54,71
0.09999999999999432,3816,12,54,77
0.09999999999999432,3816,13,54,71
0.10000000000000853,3816,14,54,67
0.09999999999999432,3816,15,54,57
0.09999999999999432,3817,0,54,65
0.10000000000000853,3817,1,54,58
0.10000000000000853,3817,2,54,52
0.09999999999999432,3817,3,54,58
0.09999999999999432,3817,4,54,52
0.004545454545450411,3817,5,54,51
0.10000000000000853,3817,6,54,62
0.09999999999999432,3817,7,54,54
0.10000000000000853,3817,8,54,65
0.10000000000000853,3817,9,54,58
0.09999999999999432,3817,10,54,64
0.09999999999999432,3817,11,54,55
0.09999999999999432,3817,12,54,84
0.09999999999999432,3817,13,54,66
0.09999999999999432,3817,14,54,80
0.09999999999999432,3817,15,54,64
0.10000000000000853,3818,0,54,59
0.09999999999999432,3818,1,54,78
0.10000000000000853,3818,2,54,67
0.09999999999999432,3818,3,54,61
0.10000000000000853,3818,4,54,56
0.10000000000000853,3818,5,54,80
0.09999999999999432,3818,6,54,67
0.10000000000000853,3818,7,54,79
0.10000000000000853,3818,8,54,63
0.09999999999999432,3818,9,54,57
0.10000000000000853,3818,10,54,98
0.09999999999999432,3818,11,54,71
0.09999999999999432,3818,12,54,87
0.10000000000000853,3818,13,54,75
0.10000000000000853,3818,14,54,59
0.04772727272728616,3818,15,54,82
0.09999999999999432,3819,0,54,64
0.10000000000000853,3819,1,54,54
0.10000000000000853,3819,2,54,57
0.09999999999999432,3819,3,54,49
0.09999999999999432,3819,4,54,63
0.09999999999999432,3819,5,54,92
0.09999999999999432,3819,6,54,71
0.09999999999999432,3819,7,54,51
0.10000000000000853,3819,8,54,73
0.09999999999999432,3819,9,54,89
0.09999999999999432,3819,10,54,78
0.10000000000000853,3819,11,54,68
0.09999999999999432,3819,12,54,71
0.09999999999999432,3819,13,54,70
0.10000000000000853,3819,14,54,51
0.10000000000000853,3819,15,54,60
0.10000000000000853,3820,0,54,67
0.09999999999999432,3820,1,54,81
0.10000000000000853,3820,2,54,64
0.09999999999999432,3820,3,54,60
0.10000000000000853,3820,4,54,78
0.10000000000000853,3820,5,54,84
0.10000000000000853,3820,6,54,84
0.09999999999999432,3820,7,54,77
0.10000000000000853,3820,8,54,78
0.09999999999999432,3820,9,54,75
0.09999999999999432,3820,10,54,93
0.09999999999999432,3820,11,54,61
0.09999999999999432,3820,12,54,75
0.10000000000000853,3820,13,54,70
0.09999999999999432,3820,14,54,33
0.09999999999999432,3820,15,54,61
0.10000000000000853,3821,0,54,83
0.10000000000000853,3821,1,54,68
0.10000000000000853,3821,2,54,85
0.09999999999999432,3821,3,54,53
0.09999999999999432,3821,4,54,57
0.10000000000000853,3821,5,54,78
0.10000000000000853,3821,6,54,58
0.09999999999999432,3821,7,54,74
0.10000000000000853,3821,8,54,86
0.09999999999999432,3821,9,54,80
0.09999999999999432,3821,10,54,92
0.09999999999999432,3821,11,54,58
0.09999999999999432,3821,12,54,74
0.09999999999999432,3821,13,54,81
0.09999999999999432,3821,14,54,90
0.09999999999999432,3821,15,54,67
0.09999999999999432,3822,0,54,41
0.10000000000000853,3822,1,54,79
0.10000000000000853,3822,2,54,58
0.013636363636365445,3822,3,54,64
0.09999999999999432,3822,4,54,80
0.10000000000000853,3822,5,54,71
0.09999999999999432,3822,6,54,66
0.09999999999999432,3822,7,54,56
0.09999999999999432,3822,8,54,49
0.10000000000000853,3822,9,54,48
0.09999999999999432,3822,10,54,57
0.09999999999999432,3822,11,54,56
0.10000000000000853,3822,12,54,67
0.09999999999999432,3822,13,54,62
0.09999999999999432,3822,14,54,84
0.09999999999999432,3822,15,54,71
0.09999999999999432,3823,0,54,90
0.09999999999999432,3823,1,54,82
0.09999999999999432,3823,2,54,91
0.10000000000000853,3823,3,54,75
0.09999999999999432,3823,4,54,94
0.09999999999999432,3823,5,54,66
0.10000000000000853,3823,6,54,63
0.09999999999999432,3823,7,54,65
0.09999999999999432,3823,8,54,79
0.09999999999999432,3823,9,54,62
0.09999999999999432,3823,10,54,81
0.09999999999999432,3823,11,54,73
0.013636363636351234,3823,12,54,78
0.09999999999999432,3823,13,54,101
0.09999999999999432,3823,14,54,75
0.10000000000002274,3823,15,54,57
0.09999999999999432,3824,0,54,55
0.09999999999999432,3824,1,54,50
0.09999999999999432,3824,2,54,53
0.09999999999999432,3824,3,54,68
0.09999999999999432,3824,4,54,87
0.09999999999999432,3824,5,54,91
0.09999999999999432,3824,6,54,66
0.09999999999999432,3824,7,54,61
0.09999999999999432,3824,8,54,55
0.09999999999999432,3824,9,54,51
0.10000000000002274,3824,10,54,61
0.09999999999999432,3824,11,54,52
0.09999999999999432,3824,12,54,87
0.09999999999999432,3824,13,54,84
0.10000000000002274,3824,14,54,94
0.09999999999999432,3824,15,54,79
0.09999999999999432,3825,0,54,58
0.09999999999999432,3825,1,54,63
0.09999999999999432,3825,2,54,67
0.09999999999999432,3825,3,54,63
0.09999999999999432,3825,4,54,81
0.09999999999999432,3825,5,54,73
0.09999999999999432,3825,6,54,75
0.09999999999999432,3825,7,54,65
0.09999999999999432,3825,8,54,55
0.09999999999999432,3825,9,54,56
0.09999999999999432,3825,10,54,66
0.09999999999999432,3825,11,54,45
0.09999999999999432,3825,12,54,67
0.10000000000002274,3825,13,54,69
0.09999999999999432,3825,14,54,68
0.09999999999999432,3825,15,54,82
0.09999999999999432,3826,0,54,79
0.09999999999999432,3826,1,54,81
0.09999999999999432,3826,2,54,68
0.09999999999999432,3826,3,54,65
0.10000000000002274,3826,4,54,54
0.09999999999999432,3826,5,54,63
0.10000000000002274,3826,6,54,66
0.09999999999999432,3826,7,54,68
0.09999999999999432,3826,8,54,88
0.09999999999999432,3826,9,54,111
0.09999999999999432,3826,10,54,77
0.09999999999999432,3826,11,54,73
0.10000000000002274,3826,12,54,64
0.10000000000002274,3826,13,54,54
0.09999999999999432,3826,14,54,75
0.09999999999999432,3826,15,54,108
0.10000000000002274,3827,0,54,91
0.09999999999999432,3827,1,54,102
0.09999999999999432,3827,2,54,97
0.09999999999999432,3827,3,54,81
0.10000000000002274,3827,4,54,73
0.10000000000002274,3827,5,54,86
0.09999999999999432,3827,6,54,76
0.09999999999999432,3827,7,54,89
0.09999999999999432,3827,8,54,91
0.09999999999999432,3827,9,54,88
0.10000000000002274,3827,10,54,91
0.09999999999999432,3827,11,54,75
0.09999999999999432,3827,12,54,85
0.09999999999999432,3827,13,54,120
0.09999999999999432,3827,14,54,50
0.09999999999999432,3827,15,54,60
0.09999999999999432,3828,0,54,81
0.10000000000002274,3828,1,54,47
0.09999999999999432,3828,2,54,76
0.10000000000002274,3828,3,54,80
0.09999999999999432,3828,4,54,78
0.09999999999999432,3828,5,54,74
0.09999999999999432,3828,6,54,84
0.09999999999999432,3828,7,54,80
0.09999999999999432,3828,8,54,61
0.09999999999999432,3828,9,54,49
0.09999999999999432,3828,10,54,65
0.09999999999999432,3828,11,54,53
0.09999999999999432,3828,12,54,76
0.09999999999999432,3828,13,54,54
0.10000000000002274,3828,14,54,73
0.09999999999999432,3828,15,54,71
0.09999999999999432,3829,0,54,58
0.09999999999999432,3829,1,54,62
0.10000000000002274,3829,2,54,73
0.09999999999999432,3829,3,54,80
0.09999999999999432,3829,4,54,77
0.10000000000002274,3829,5,54,84
0.09999999999999432,3829,6,54,81
0.10000000000002274,3829,7,54,80
0.09999999999999432,3829,8,54,78
0.09999999999999432,3829,9,54,92
0.09999999999999432,3829,10,54,66
0.09999999999999432,3829,11,54,67
0.09999999999999432,3829,12,54,49
0.09999999999999432,3829,13,54,60
0.09999999999999432,3829,14,54,55
0.09999999999999432,3829,15,54,67
0.09999999999999432,3830,0,54,59
0.09999999999999432,3830,1,54,52
0.09999999999999432,3830,2,54,73
0.09999999999999432,3830,3,54,74
0.10000000000002274,3830,4,54,80
0.09999999999999432,3830,5,54,55
0.09999999999999432,3830,6,54,79
0.09999999999999432,3830,7,54,64
0.09999999999999432,3830,8,54,49
0.10000000000002274,3830,9,54,54
0.09999999999999432,3830,10,54,63
0.09999999999999432,3830,11,54,59
0.09999999999999432,3830,12,54,74
0.10000000000002274,3830,13,54,73
0.09999999999999432,3830,14,54,77
0.09999999999999432,3830,15,54,72
0.09999999999999432,3831,0,54,66
0.09999999999999432,3831,1,54,47
0.09999999999999432,3831,2,54,55
0.10000000000002274,3831,3,54,56
0.10000000000002274,3831,4,54,70
0.09999999999999432,3831,5,54,77
0.09999999999999432,3831,6,54,64
0.09999999999999432,3831,7,54,42
0.06818181818181301,3831,8,54,66
0.10000000000000142,3831,9,93,127
0.09999999999999787,3831,10,93,109
0.09999999999999787,3831,11,93,3
0.10000000000000142,3831,12,93,127
0.10000000000000142,3831,13,93,103
0.10000000000000142,3831,14,93,7
0.09999999999999787,3831,15,93,127
0.10000000000000142,3832,0,93,103
0.09999999999999787,3832,1,93,4
0.10000000000000142,3832,2,93,127
0.09999999999999787,3832,3,93,109
0.09999999999999787,3832,4,93,127
0.10000000000000142,3832,5,93,97
0.10000000000000142,3832,6,93,127
0.09999999999999787,3832,7,93,111
0.09999999999999787,3832,8,93,127
0.10000000000000142,3832,9,93,110
0.10000000000000142,3832,10,93,127
0.10000000000000142,3832,11,93,108
0.10000000000000142,3832,12,93,127
0.10000000000000142,3832,13,93,101
0.10000000000000142,3832,14,93,127
0.10000000000000142,3832,15,93,94
0.10000000000000142,3833,0,93,127
0.10000000000000142,3833,1,93,127
0.09999999999999432,3833,2,93,106
0.10000000000000142,3833,3,93,127
0.10000000000000142,3833,4,93,127
0.10000000000000142,3833,5,93,90
0.10000000000000142,3833,6,93,127
0.10000000000000142,3833,7,93,127
0.09999999999999432,3833,8,93,82
0.10000000000000142,3833,9,93,127
0.10000000000000142,3833,10,93,87
0.10000000000000142,3833,11,93,127
0.10000000000000142,3833,12,93,127
0.10000000000000142,3833,13,93,81
0.09999999999999432,3833,14,93,127
0.10000000000000142,3833,15,93,92
0.10000000000000142,3834,0,93,127
0.10000000000000142,3834,1,93,127
0.10000000000000142,3834,2,93,84
0.09999999999999432,3834,3,93,127
0.10000000000000142,3834,4,93,93
0.09999999999999432,3834,5,93,127
0.09999999999999432,3834,6,93,127
0.10000000000000142,3834,7,93,81
0.10000000000000142,3834,8,93,97
0.10000000000000142,3834,9,93,127
0.10000000000000142,3834,10,93,90
0.09999999999999432,3834,11,93,127
0.10000000000000142,3834,12,93,127
0.10000000000000142,3834,13,93,82
0.10000000000000142,3834,14,93,127
0.10000000000000142,3834,15,93,89
0.10000000000000142,3835,0,93,127
0.10000000000000142,3835,1,93,127
0.10000000000000142,3835,2,93,82
0.10000000000000142,3835,3,93,127
0.10000000000000142,3835,4,93,89
0.10000000000000142,3835,5,93,127
0.09999999999999432,3835,6,93,127
0.09999999999999432,3835,7,93,77
0.10000000000000142,3835,8,93,127
0.09999999999999432,3835,9,93,98
0.10000000000000142,3835,10,93,127
0.10000000000000142,3835,11,93,127
0.10000000000000142,3835,12,93,85
0.10000000000000142,3835,13,93,127
0.10000000000000142,3835,14,93,2
0.09999999999999432,3835,15,93,108
0.10000000000000142,3836,0,93,3
0.10000000000000142,3836,1,93,127
0.10000000000000142,3836,2,93,127
0.10000000000000142,3836,3,93,101
0.10000000000000142,3836,4,93,127
0.10000000000000142,3836,5,93,2
0.10000000000000142,3836,6,93,93
0.10000000000000142,3836,7,93,3
0.10000000000000142,3836,8,93,127
0.10000000000000142,3836,9,93,127
0.10000000000000142,3836,10,93,102
0.10000000000000853,3836,11,93,3
0.09999999999999432,3836,12,93,127
0.09999999999999432,3836,13,93,2
0.09999999999999432,3836,14,93,101
0.10000000000000853,3836,15,93,1
0.09999999999999432,3837,0,93,127
0.10000000000000853,3837,1,93,124
0.09999999999999432,3837,2,93,89
0.09999999999999432,3837,3,93,3
0.10000000000000853,3837,4,93,127
0.09999999999999432,3837,5,93,2
0.09999999999999432,3837,6,93,103
0.09999999999999432,3837,7,93,3
0.10000000000000853,3837,8,93,127
0.09999999999999432,3837,9,93,127
0.09999999999999432,3837,10,93,93
0.10000000000000853,3837,11,93,79
0.10000000000000853,3837,12,93,55
0.10000000000000853,3837,13,93,127
0.10000000000000853,3837,14,93,116
0.09999999999999432,3837,15,93,127
0.10000000000000853,3838,0,93,127
0.10000000000000853,3838,1,93,100
0.09999999999999432,3838,2,93,5
0.09999999999999432,3838,3,93,127
0.09999999999999432,3838,4,93,3
0.09999999999999432,3838,5,93,99
0.09999999999999432,3838,6,93,5
0.10000000000000853,3838,7,93,127
0.10000000000000853,3838,8,93,127
0.09999999999999432,3838,9,93,102
0.09999999999999432,3838,10,93,4
0.10000000000000853,3838,11,93,127
0.10000000000000853,3838,12,93,3
0.09999999999999432,3838,13,93,97
0.09999999999999432,3838,14,93,3
0.09999999999999432,3838,15,93,127
0.09999999999999432,3839,0,93,127
0.10000000000000853,3839,1,93,93
0.10000000000000853,3839,2,93,3
0.10000000000000853,3839,3,93,85
0.09999999999999432,3839,4,93,3
0.10000000000000853,3839,5,93,97
0.10000000000000853,3839,6,93,3
0.09999999999999432,3839,7,93,127
0.10000000000000853,3839,8,93,127
0.09999999999999432,3839,9,93,85
0.09999999999999432,3839,10,93,58
0.09999999999999432,3839,11,93,66
0.10000000000000853,3839,12,93,127
0.09999999999999432,3839,13,93,127
0.10000000000000853,3839,14,93,96
0.09999999999999432,3839,15,93,127
0.09999999999999432,3840,0,93,127
0.10000000000000853,3840,1,93,94
0.09999999999999432,3840,2,93,127
0.09999999999999432,3840,3,93,83
0.10000000000000853,3840,4,93,127
0.10000000000000853,3840,5,93,127
0.09999999999999432,3840,6,93,77
0.09999999999999432,3840,7,93,58
0.09999999999999432,3840,8,93,18
0.09999999999999432,3840,9,93,127
0.09999999999999432,3840,10,93,94
0.10000000000000853,3840,11,93,121
0.09999999999999432,3840,12,93,123
0.09999999999999432,3840,13,93,73
0.09999999999999432,3840,14,93,121
0.10000000000000853,3840,15,93,77
0.09999999999999432,3841,0,93,116
0.10000000000000853,3841,1,93,127
0.09999999999999432,3841,2,93,72
0.09999999999999432,3841,3,93,121
0.09999999999999432,3841,4,93,78
0.10000000000000853,3841,5,93,122
0.09999999999999432,3841,6,93,124
0.09999999999999432,3841,7,93,75
0.09999999999999432,3841,8,93,109
0.10000000000000853,3841,9,93,75
0.10000000000000853,3841,10,93,127
0.09999999999999432,3841,11,93,121
0.09999999999999432,3841,12,93,76
0.09999999999999432,3841,13,93,52
0.09999999999999432,3841,14,93,61
0.09999999999999432,3841,15,93,121
0.10000000000000853,3842,0,93,84
0.09999999999999432,3842,1,93,119
0.10000000000000853,3842,2,93,127
0.09999999999999432,3842,3,93,79
0.10000000000000853,3842,4,93,120
0.09999999999999432,3842,5,93,82
0.10000000000000853,3842,6,93,126
0.09999999999999432,3842,7,93,123
0.09999999999999432,3842,8,93,82
0.09999999999999432,3842,9,93,125
0.10000000000000853,3842,10,93,92
0.09999999999999432,3842,11,93,117
0.09999999999999432,3842,12,93,127
0.10000000000000853,3842,13,93,80
0.09999999999999432,3842,14,93,123
0.09999999999999432,3842,15,93,91
0.09999999999999432,3843,0,93,126
0.09999999999999432,3843,1,93,124
0.09999999999999432,3843,2,93,83
0.10000000000000853,3843,3,93,113
0.09999999999999432,3843,4,93,86
0.09999999999999432,3843,5,93,105
0.09999999999999432,3843,6,93,125
0.10000000000000853,3843,7,93,80
0.09999999999999432,3843,8,93,116
0.10000000000000853,3843,9,93,87
0.09999999999999432,3843,10,93,112
0.09999999999999432,3843,11,93,127
0.10000000000000853,3843,12,93,75
0.10000000000000853,3843,13,93,111
0.09999999999999432,3843,14,93,88
0.10000000000000853,3843,15,93,84
0.09999999999999432,3844,0,93,125
0.10000000000000853,3844,1,93,73
0.10000000000000853,3844,2,93,112
0.09999999999999432,3844,3,93,120
0.09999999999999432,3844,4,93,74
0.09999999999999432,3844,5,93,2
0.10000000000000853,3844,6,93,127
0.10000000000000853,3844,7,93,127
0.09999999999999432,3844,8,93,72
0.09999999999999432,3844,9,93,2
0.10000000000000853,3844,10,93,124
0.09999999999999432,3844,11,93,3
0.09999999999999432,3844,12,93,77
0.10000000000000853,3844,13,93,2
0.09999999999999432,3844,14,93,123
0.09999999999999432,3844,15,93,127
0.10000000000000853,3845,0,93,30
0.10000000000000853,3845,1,93,2
0.09999999999999432,3845,2,93,127
0.09999999999999432,3845,3,93,3
0.10000000000000853,3845,4,93,73
0.09999999999999432,3845,5,93,2
0.09999999999999432,3845,6,93,127
0.10000000000000853,3845,7,93,127
0.09999999999999432,3845,8,93,69
0.09999999999999432,3845,9,93,2
0.09999999999999432,3845,10,93,123
0.09999999999999432,3845,11,93,3
0.09999999999999432,3845,12,93,62
0.09999999999999432,3845,13,93,2
0.09999999999999432,3845,14,93,127
0.10000000000002274,3845,15,93,127
0.09999999999999432,3846,0,93,79
0.09999999999999432,3846,1,93,87
0.10000000000002274,3846,2,93,93
0.09999999999999432,3846,3,93,121
0.09999999999999432,3846,4,93,69
0.09999999999999432,3846,5,93,2
0.10000000000002274,3846,6,93,127
0.09999999999999432,3846,7,93,127
0.09999999999999432,3846,8,93,66
0.09999999999999432,3846,9,93,2
0.09999999999999432,3846,10,93,127
0.09999999999999432,3846,11,93,3
0.09999999999999432,3846,12,93,72
0.09999999999999432,3846,13,93,2
0.09999999999999432,3846,14,93,127
0.09999999999999432,3846,15,93,124
0.09999999999999432,3847,0,93,75
0.10000000000002274,3847,1,93,2
0.09999999999999432,3847,2,93,127
0.09999999999999432,3847,3,93,3
0.10000000000002274,3847,4,93,71
0.10000000000002274,3847,5,93,1
0.10000000000002274,3847,6,93,125
0.09999999999999432,3847,7,93,127
0.09999999999999432,3847,8,93,74
0.09999999999999432,3847,9,93,2
0.09999999999999432,3847,10,93,127
0.09999999999999432,3847,11,93,3
0.09999999999999432,3847,12,93,73
0.09999999999999432,3847,13,93,2
0.09999999999999432,3847,14,93,127
0.09999999999999432,3847,15,93,127
0.09999999999999432,3848,0,93,78
0.09999999999999432,3848,1,93,4
0.10000000000002274,3848,2,93,116
0.09999999999999432,3848,3,93,71
0.10000000000002274,3848,4,93,119
0.09999999999999432,3848,5,93,112
0.09999999999999432,3848,6,93,65
0.09999999999999432,3848,7,93,119
0.09999999999999432,3848,8,93,65
0.09999999999999432,3848,9,93,109
0.09999999999999432,3848,10,93,123
0.10000000000002274,3848,11,93,65
0.09999999999999432,3848,12,93,105
0.09999999999999432,3848,13,93,72
0.09999999999999432,3848,14,93,1
0.09999999999999432,3848,15,93,117
0.10000000000002274,3849,0,93,118
0.09999999999999432,3849,1,93,63
0.09999999999999432,3849,2,93,112
0.09999999999999432,3849,3,93,91
0.09999999999999432,3849,4,93,75
0.10000000000002274,3849,5,93,85
0.09999999999999432,3849,6,93,84
0.09999999999999432,3849,7,93,85
0.10000000000002274,3849,8,93,88
0.09999999999999432,3849,9,93,76
0.09999999999999432,3849,10,93,94
0.09999999999999432,3849,11,93,77
0.09999999999999432,3849,12,93,125
0.09999999999999432,3849,13,93,124
0.10000000000002274,3849,14,93,48
0.09999999999999432,3849,15,93,117
0.10000000000002274,3850,0,93,112
0.09999999999999432,3850,1,93,62
0.09999999999999432,3850,2,93,111
0.10000000000002274,3850,3,93,124
0.09999999999999432,3850,4,93,65
0.09999999999999432,3850,5,93,120
0.09999999999999432,3850,6,93,116
0.09999999999999432,3850,7,93,56
0.10000000000002274,3850,8,93,117
0.09999999999999432,3850,9,93,123
0.09999999999999432,3850,10,93,59
0.09999999999999432,3850,11,93,112
0.09999999999999432,3850,12,93,124
0.09999999999999432,3850,13,93,61
0.09999999999999432,3850,14,93,106
0.10000000000002274,3850,15,93,119
0.09999999999999432,3851,0,93,62
0.09999999999999432,3851,1,93,112
0.10000000000002274,3851,2,93,66
0.09999999999999432,3851,3,93,112
0.09999999999999432,3851,4,93,65
0.09999999999999432,3851,5,93,74
0.09999999999999432,3851,6,93,73
0.09999999999999432,3851,7,93,68
0.10000000000002274,3851,8,93,125
0.09999999999999432,3851,9,93,72
0.09999999999999432,3851,10,93,115
0.09999999999999432,3851,11,93,124
0.09999999999999432,3851,12,93,66
0.09999999999999432,3851,13,93,112
0.10000000000002274,3851,14,93,65
0.09999999999999432,3851,15,93,118
0.09999999999999432,3852,0,93,112
0.10000000000002274,3852,1,93,64
0.09999999999999432,3852,2,93,112
0.09999999999999432,3852,3,93,73
0.09999999999999432,3852,4,93,4
0.09999999999999432,3852,5,93,76
0.10000000000002274,3852,6,93,86
0.09999999999999432,3852,7,93,56
0.09999999999999432,3852,8,93,3
0.10000000000002274,3852,9,93,65
0.09999999999999432,3852,10,93,74
0.10000000000002274,3852,11,93,54
0.09999999999999432,3852,12,93,38
0.10000000000000009,3852,13,58,7
0.03409090909090917,3852,14,58,22
0.036363636363636376,3852,15,58,47
0.09999999999999987,3853,0,58,24
0.10000000000000009,3853,1,58,27
0.10000000000000009,3853,2,58,36
0.10000000000000009,3853,3,58,30
0.09999999999999964,3853,4,58,34
0.10000000000000053,3853,5,58,32
0.10000000000000053,3853,6,58,29
0.09999999999999964,3853,7,58,31
0.10000000000000053,3853,8,58,20
0.09999999999999964,3853,9,58,36
0.09999999999999964,3853,10,58,21
0.09999999999999964,3853,11,58,21
0.09999999999999964,3853,12,58,20
0.06818181818181834,3853,13,58,26
0.036363636363635266,3853,14,58,32
0.09999999999999964,3853,15,58,24
0.09999999999999964,3854,0,58,73
0.10000000000000142,3854,1,58,53
0.10000000000000142,3854,2,58,50
0.09999999999999964,3854,3,58,47
0.09999999999999964,3854,4,58,43
0.09999999999999964,3854,5,58,32
0.09999999999999964,3854,6,58,45
0.10000000000000142,3854,7,58,47
0.10000000000000142,3854,8,58,36
0.10000000000000142,3854,9,58,40
0.09999999999999964,3854,10,58,43
0.09999999999999964,3854,11,58,29
0.09999999999999787,3854,12,58,43
0.09999999999999787,3854,13,58,33
0.10000000000000142,3854,14,58,42
0.10000000000000142,3854,15,58,39
0.10000000000000142,3855,0,58,50
0.09999999999999787,3855,1,58,46
0.09999999999999787,3855,2,58,49
0.10000000000000142,3855,3,58,54
0.10000000000000142,3855,4,58,28
0.10000000000000142,3855,5,58,28
0.10000000000000142,3855,6,58,57
0.10000000000000142,3855,7,58,50
0.09999999999999787,3855,8,58,55
0.10000000000000142,3855,9,58,50
0.10000000000000142,3855,10,58,7
0.05681818181818343,3855,11,58,24
0.013636363636365445,3855,12,58,33
0.02499999999999858,3855,13,58,38
0.09999999999999787,3855,14,58,43
0.10000000000000142,3855,15,58,44
0.10000000000000142,3856,0,58,48
0.10000000000000142,3856,1,58,64
0.10000000000000142,3856,2,58,58
0.09999999999999787,3856,3,58,49
0.09999999999999787,3856,4,58,34
0.10000000000000142,3856,5,58,45
0.10000000000000142,3856,6,58,38
0.10000000000000142,3856,7,58,29
0.10000000000000142,3856,8,58,51
0.10000000000000142,3856,9,58,35
0.10000000000000142,3856,10,58,44
0.09999999999999787,3856,11,58,42
0.09999999999999787,3856,12,58,42
0.10000000000000142,3856,13,58,37
0.10000000000000142,3856,14,58,28
0.09999999999999787,3856,15,58,47
0.10000000000000142,3857,0,58,41
0.10000000000000142,3857,1,58,49
0.10000000000000142,3857,2,58,33
0.09999999999999787,3857,3,58,36
0.09999999999999787,3857,4,58,30
0.09999999999999787,3857,5,58,32
0.09999999999999787,3857,6,58,34
0.09999999999999787,3857,7,58,42
0.10000000000000142,3857,8,58,31
0.10000000000000142,3857,9,58,35
0.10000000000000142,3857,10,58,31
0.10000000000000142,3857,11,58,29
0.09999999999999432,3857,12,58,35
0.10000000000000142,3857,13,58,45
0.10000000000000142,3857,14,58,35
0.10000000000000142,3857,15,58,39
0.10000000000000142,3858,0,58,34
0.10000000000000142,3858,1,58,37
0.10000000000000142,3858,2,58,42
0.10000000000000142,3858,3,58,35
0.09999999999999432,3858,4,58,52
0.10000000000000142,3858,5,58,59
0.10000000000000142,3858,6,58,46
0.10000000000000142,3858,7,58,46
0.10000000000000142,3858,8,58,33
0.09999999999999432,3858,9,58,26
0.06590909090908781,3858,10,58,38
0.10000000000000142,3858,11,58,46
0.10000000000000142,3858,12,58,57
0.10000000000000142,3858,13,58,49
0.10000000000000142,3858,14,58,34
0.10000000000000142,3858,15,58,39
0.10000000000000142,3859,0,58,39
0.10000000000000142,3859,1,58,42
0.09999999999999432,3859,2,58,46
0.10000000000000142,3859,3,58,45
0.09999999999999432,3859,4,58,36
0.10000000000000142,3859,5,58,42
0.10000000000000142,3859,6,58,48
0.10000000000000142,3859,7,58,59
0.10000000000000142,3859,8,58,67
0.10000000000000142,3859,9,58,33
0.10000000000000142,3859,10,58,31
0.10000000000000142,3859,11,58,43
0.10000000000000142,3859,12,58,49
0.10000000000000142,3859,13,58,45
0.10000000000000142,3859,14,58,43
0.10000000000000142,3859,15,58,40
0.09999999999999432,3860,0,58,42
0.10000000000000142,3860,1,58,45
0.10000000000000142,3860,2,58,48
0.10000000000000142,3860,3,58,36
0.10000000000000142,3860,4,58,46
0.09999999999999432,3860,5,58,58
0.10000000000000142,3860,6,58,40
0.10000000000000142,3860,7,58,32
0.10000000000000142,3860,8,58,32
0.10000000000000142,3860,9,58,47
0.10000000000000142,3860,10,58,47
0.10000000000000142,3860,11,58,42
0.10000000000000142,3860,12,58,63
0.10000000000000142,3860,13,58,47
0.10000000000000142,3860,14,58,41
0.10000000000000142,3860,15,58,62
0.10000000000000142,3861,0,58,55
0.09999999999999432,3861,1,58,46
0.10000000000000142,3861,2,58,65
0.10000000000000142,3861,3,58,90
0.10000000000000142,3861,4,58,54
0.10000000000000142,3861,5,58,39
0.09999999999999432,3861,6,58,44
0.10000000000000142,3861,7,58,39
0.10000000000000142,3861,8,58,48
0.10000000000000142,3861,9,58,51
0.10000000000000142,3861,10,58,47
0.10000000000000142,3861,11,58,40
0.09999999999999432,3861,12,58,50
0.09999999999999432,3861,13,58,60
0.09999999999999432,3861,14,58,23
0.10000000000000142,3861,15,58,34
0.09999999999999432,3862,0,58,18
0.09999999999999432,3862,1,58,21
0.10000000000000142,3862,2,58,17
0.09999999999999432,3862,3,58,25
0.10000000000000142,3862,4,58,24
0.10000000000000142,3862,5,58,22
0.10000000000000142,3862,6,58,27
0.10000000000000142,3862,7,58,30
0.10000000000000142,3862,8,58,21
0.09999999999999432,3862,9,58,37
0.09999999999999432,3862,10,58,34
0.10000000000000142,3862,11,58,22
0.10000000000000142,3862,12,58,19
0.10000000000000142,3862,13,58,32
0.10000000000000142,3862,14,58,51
0.09999999999999432,3862,15,58,38
0.09999999999999432,3863,0,58,37
0.10000000000000853,3863,1,58,28
0.10000000000000853,3863,2,58,33
0.09999999999999432,3863,3,58,31
0.10000000000000853,3863,4,58,34
0.10000000000000853,3863,5,58,28
0.09999999999999432,3863,6,58,19
0.09999999999999432,3863,7,58,32
0.10000000000000853,3863,8,58,41
0.09999999999999432,3863,9,58,31
0.09999999999999432,3863,10,58,30
0.10000000000000853,3863,11,58,24
0.09999999999999432,3863,12,58,22
0.09999999999999432,3863,13,58,39
0.09999999999999432,3863,14,58,37
0.10000000000000853,3863,15,58,30
0.10000000000000853,3864,0,58,12
0.10000000000000853,3864,1,58,20
0.09999999999999432,3864,2,58,26
0.09999999999999432,3864,3,58,28
0.09999999999999432,3864,4,58,29
0.10000000000000853,3864,5,58,16
0.10000000000000853,3864,6,58,48
0.09999999999999432,3864,7,58,44
0.10000000000000853,3864,8,58,41
0.09999999999999432,3864,9,58,40
0.09999999999999432,3864,10,58,32
0.10000000000000853,3864,11,58,46
0.09999999999999432,3864,12,58,30
0.09999999999999432,3864,13,58,45
0.09999999999999432,3864,14,58,27
0.10000000000000853,3864,15,58,24
0.09999999999999432,3865,0,58,48
0.09999999999999432,3865,1,58,64
0.09999999999999432,3865,2,58,49
0.10000000000000853,3865,3,58,41
0.10000000000000853,3865,4,58,29
0.09999999999999432,3865,5,58,38
0.06818181818181301,3865,6,58,49
0.09999999999999432,3865,7,58,62
0.10000000000000853,3865,8,58,60
0.10000000000000853,3865,9,58,51
0.10000000000000853,3865,10,58,25
0.09999999999999432,3865,11,58,31
0.09999999999999432,3865,12,58,43
0.10000000000000853,3865,13,58,50
0.09999999999999432,3865,14,58,42
0.10000000000000853,3865,15,58,47
0.09999999999999432,3866,0,58,39
0.09999999999999432,3866,1,58,47
0.10000000000000853,3866,2,58,40
0.09999999999999432,3866,3,58,52
0.09999999999999432,3866,4,58,36
0.10000000000000853,3866,5,58,28
0.09999999999999432,3866,6,58,41
0.10000000000000853,3866,7,58,38
0.10000000000000853,3866,8,58,36
0.09999999999999432,3866,9,58,24
0.09999999999999432,3866,10,58,46
0.09999999999999432,3866,11,58,35
0.09999999999999432,3866,12,58,39
0.10000000000000853,3866,13,58,28
0.09999999999999432,3866,14,58,39
0.10000000000000853,3866,15,58,51
0.09999999999999432,3867,0,58,51
0.10000000000000853,3867,1,58,55
0.10000000000000853,3867,2,58,80
0.10000000000000853,3867,3,58,48
0.09999999999999432,3867,4,58,54
0.10000000000000853,3867,5,58,43
0.09999999999999432,3867,6,58,49
0.09999999999999432,3867,7,58,51
0.06818181818181301,3867,8,58,52
0.09999999999999432,3867,9,58,64
0.10000000000000853,3867,10,58,77
0.10000000000000853,3867,11,58,52
0.10000000000000853,3867,12,58,58
0.09999999999999432,3867,13,58,68
0.10000000000000853,3867,14,58,51
0.09999999999999432,3867,15,58,53
0.09999999999999432,3868,0,58,46
0.09999999999999432,3868,1,58,39
0.10000000000000853,3868,2,58,42
0.09999999999999432,3868,3,58,46
0.09999999999999432,3868,4,58,76
0.10000000000000853,3868,5,58,73
0.09999999999999432,3868,6,58,68
0.09999999999999432,3868,7,58,50
0.09999999999999432,3868,8,58,47
0.09999999999999432,3868,9,58,51
0.10000000000000853,3868,10,58,51
0.056818181818186986,3868,11,58,47
0.09999999999999432,3868,12,58,48
0.09999999999999432,3868,13,58,41
0.10000000000000853,3868,14,58,44
0.10000000000000853,3868,15,58,47
0.09999999999999432,3869,0,58,53
0.10000000000000853,3869,1,58,44
0.10000000000000853,3869,2,58,46
0.10000000000000853,3869,3,58,48
0.09999999999999432,3869,4,58,50
0.10000000000000853,3869,5,58,46
0.09999999999999432,3869,6,58,64
0.09999999999999432,3869,7,58,46
0.09999999999999432,3869,8,58,51
0.10000000000000853,3869,9,58,44
0.09999999999999432,3869,10,58,40
0.09999999999999432,3869,11,58,42
0.09999999999999432,3869,12,58,41
0.10000000000000853,3869,13,58,54
0.09999999999999432,3869,14,58,51
0.09999999999999432,3869,15,58,52
0.09999999999999432,3870,0,58,58
0.10000000000000853,3870,1,58,52
0.10000000000000853,3870,2,58,50
0.09999999999999432,3870,3,58,55
0.09999999999999432,3870,4,58,40
0.10000000000000853,3870,5,58,46
0.06818181818182723,3870,6,58,47
0.10000000000000853,3870,7,58,47
0.09999999999999432,3870,8,58,34
0.10000000000000853,3870,9,58,42
0.10000000000000853,3870,10,58,47
0.09999999999999432,3870,11,58,69
0.09999999999999432,3870,12,58,45
0.10000000000000853,3870,13,58,51
0.10000000000000853,3870,14,58,50
0.10000000000000853,3870,15,58,47
0.10000000000000853,3871,0,58,46
0.10000000000000853,3871,1,58,49
0.09999999999999432,3871,2,58,46
0.10000000000000853,3871,3,58,46
0.10000000000000853,3871,4,58,54
0.09999999999999432,3871,5,58,45
0.09999999999999432,3871,6,58,51
0.10000000000000853,3871,7,58,55
0.09999999999999432,3871,8,58,66
0.09999999999999432,3871,9,58,49
0.10000000000000853,3871,10,58,54
0.09999999999999432,3871,11,58,62
0.10000000000000853,3871,12,58,65
0.09999999999999432,3871,13,58,52
0.10000000000000853,3871,14,58,44
0.09999999999999432,3871,15,58,56
0.09999999999999432,3872,0,58,51
0.10000000000000853,3872,1,58,72
0.09999999999999432,3872,2,58,31
0.09999999999999432,3872,3,58,35
0.10000000000000853,3872,4,58,38
0.10000000000000853,3872,5,58,43
0.10000000000000853,3872,6,58,53
0.09999999999999432,3872,7,58,49
0.09999999999999432,3872,8,58,44
0.10000000000000853,3872,9,58,48
0.09999999999999432,3872,10,58,57
0.09999999999999432,3872,11,58,37
0.09999999999999432,3872,12,58,35
0.09999999999999432,3872,13,58,36
0.10000000000002274,3872,14,58,37
0.09999999999999432,3872,15,58,39
0.09999999999999432,3873,0,58,47
0.09999999999999432,3873,1,58,58
0.09999999999999432,3873,2,58,54
0.10000000000002274,3873,3,58,39
0.09999999999999432,3873,4,58,33
0.09999999999999432,3873,5,58,46
0.09999999999999432,3873,6,58,46
0.10000000000002274,3873,7,58,48
0.09999999999999432,3873,8,58,49
0.10000000000002274,3873,9,58,42
0.10000000000002274,3873,10,58,37
0.09999999999999432,3873,11,58,29
0.09999999999999432,3873,12,58,40
0.10000000000002274,3873,13,58,47
0.09999999999999432,3873,14,58,33
0.09999999999999432,3873,15,58,38
0.09999999999999432,3874,0,58,40
0.10000000000002274,3874,1,58,57
0.10000000000002274,3874,2,58,20
0.10000000000002274,3874,3,58,43
0.09999999999999432,3874,4,58,46
0.09999999999999432,3874,5,58,34
0.09999999999999432,3874,6,58,44
0.09999999999999432,3874,7,58,47
0.10000000000002274,3874,8,58,41
0.10000000000002274,3874,9,58,26
0.09999999999999432,3874,10,58,58
0.09999999999999432,3874,11,58,36
0.09999999999999432,3874,12,58,47
0.09999999999999432,3874,13,58,41
0.09999999999999432,3874,14,58,40
0.09999999999999432,3874,15,58,47
0.09999999999999432,3875,0,58,51
0.10000000000002274,3875,1,58,71
0.09999999999999432,3875,2,58,69
0.09999999999999432,3875,3,58,47
0.09999999999999432,3875,4,58,41
0.09999999999999432,3875,5,58,33
0.09999999999999432,3875,6,58,59
0.10000000000002274,3875,7,58,33
0.09999999999999432,3875,8,58,33
0.09999999999999432,3875,9,58,61
0.09999999999999432,3875,10,58,73
0.09999999999999432,3875,11,58,84
0.10000000000002274,3875,12,58,63
0.09999999999999432,3875,13,58,45
0.09999999999999432,3875,14,58,68
0.09999999999999432,3875,15,58,53
0.10000000000002274,3876,0,58,49
0.09999999999999432,3876,1,58,50
0.09999999999999432,3876,2,58,60
0.09999999999999432,3876,3,58,56
0.09999999999999432,3876,4,58,53
0.09999999999999432,3876,5,58,62
0.09999999999999432,3876,6,58,66
0.09999999999999432,3876,7,58,58
0.09999999999999432,3876,8,58,59
0.09999999999999432,3876,9,58,55
0.09999999999999432,3876,10,58,48
0.09999999999999432,3876,11,58,49
0.09999999999999432,3876,12,58,49
0.09999999999999432,3876,13,58,48
0.10000000000002274,3876,14,58,57
0.06818181818184144,3876,15,58,64
0.09999999999999432,3877,0,58,42
0.09999999999999432,3877,1,58,70
0.09999999999999432,3877,2,58,57
0.09999999999999432,3877,3,58,54
0.10000000000002274,3877,4,58,49
0.09999999999999432,3877,5,58,60
0.10000000000002274,3877,6,58,59
0.09999999999999432,3877,7,58,41
0.09999999999999432,3877,8,58,48
0.09999999999999432,3877,9,58,46
0.09999999999999432,3877,10,58,48
0.09999999999999432,3877,11,58,43
0.09999999999999432,3877,12,58,57
0.09999999999999432,3877,13,58,67
0.09999999999999432,3877,14,58,53
0.09999999999999432,3877,15,58,60
0.09999999999999432,3878,0,58,49
0.10000000000002274,3878,1,58,53
0.09999999999999432,3878,2,58,52
0.09999999999999432,3878,3,58,42
0.09999999999999432,3878,4,58,63
0.09999999999999432,3878,5,58,54
0.09999999999999432,3878,6,58,51
0.09999999999999432,3878,7,58,31
0.09999999999999432,3878,8,58,23
0.09999999999999432,3878,9,58,36
0.09999999999999432,3878,10,58,23
0.09999999999999787,3878,11,70,2
0.09999999999999787,3878,12,70,15
0.09999999999999787,3878,13,70,12
0.10000000000000142,3878,14,70,18
0.10000000000000142,3878,15,70,16
0.10000000000000497,3879,0,70,18
0.10000000000000142,3879,1,70,20
0.10000000000000142,3879,2,70,23
0.10000000000000142,3879,3,70,25
0.10000000000000142,3879,4,70,19
0.10000000000000142,3879,5,70,23
0.10000000000000142,3879,6,70,18
0.09999999999999432,3879,7,70,21
0.10000000000000142,3879,8,70,11
0.10000000000000142,3879,9,70,22
0.10000000000000142,3879,10,70,18
0.10000000000000142,3879,11,70,20
0.10000000000000142,3879,12,70,24
0.10000000000000142,3879,13,70,15
0.09999999999999432,3879,14,70,17
0.10000000000000142,3879,15,70,27
0.10000000000000142,3880,0,70,26
0.10000000000000142,3880,1,70,24
0.10000000000000142,3880,2,70,28
0.09999999999999432,3880,3,70,23
0.10000000000000142,3880,4,70,22
0.10000000000000142,3880,5,70,20
0.09999999999999432,3880,6,70,24
0.10000000000000142,3880,7,70,24
0.10000000000000142,3880,8,70,22
0.09999999999999432,3880,9,70,22
0.10000000000000142,3880,10,70,26
0.10000000000000142,3880,11,70,17
0.10000000000000142,3880,12,70,18
0.10000000000000142,3880,13,70,16
0.10000000000000142,3880,14,70,17
0.10000000000000142,3880,15,70,15
0.10000000000000142,3881,0,70,24
0.10000000000000142,3881,1,70,13
0.10000000000000142,3881,2,70,30
0.10000000000000142,3881,3,70,20
0.10000000000000142,3881,4,70,17
0.09999999999999432,3881,5,70,25
0.10000000000000142,3881,6,70,35
0.10000000000000142,3881,7,70,12
0.10000000000000142,3881,8,70,10
0.10000000000000142,3881,9,70,21
0.10000000000000142,3881,10,70,9
0.10000000000000142,3881,11,70,15
0.10000000000000142,3881,12,70,15
0.10000000000000142,3881,13,70,12
0.09999999999999432,3881,14,70,16
0.09999999999999432,3881,15,70,16
0.10000000000000853,3882,0,70,16
0.10000000000000853,3882,1,70,9
0.09999999999999432,3882,2,70,11
0.09999999999999432,3882,3,70,12
0.10000000000000853,3882,4,70,13
0.09999999999999432,3882,5,70,20
0.09999999999999432,3882,6,70,13
0.09999999999999432,3882,7,70,15
0.09999999999999432,3882,8,70,19
0.09999999999999432,3882,9,70,26
0.10000000000000853,3882,10,70,17
0.09999999999999432,3882,11,70,15
0.10000000000000853,3882,12,70,7
0.09999999999999432,3882,13,70,3
0.10000000000000853,3882,14,70,4
0.10000000000000853,3882,15,70,17
0.10000000000000853,3883,0,70,11
0.10000000000000853,3883,1,70,21
0.09999999999999432,3883,2,70,25
0.09999999999999432,3883,3,70,23
0.10000000000000853,3883,4,70,27
0.09999999999999432,3883,5,70,8
0.09999999999999432,3883,6,70,15
0.09999999999999432,3883,7,70,19
0.10000000000000853,3883,8,70,17
0.09999999999999432,3883,9,70,8
0.10000000000000853,3883,10,70,8
0.09999999999999432,3883,11,70,12
0.09999999999999432,3883,12,70,9
0.09999999999999432,3883,13,70,20
0.10000000000000853,3883,14,70,11
0.10000000000000853,3883,15,70,14
0.09999999999999432,3884,0,70,13
0.10000000000000853,3884,1,70,17
0.09999999999999432,3884,2,70,18
0.09999999999999432,3884,3,70,10
0.09999999999999432,3884,4,70,17
0.10000000000000853,3884,5,70,18
0.10000000000000853,3884,6,70,20
0.09999999999999432,3884,7,70,16
0.10000000000000853,3884,8,70,14
0.09999999999999432,3884,9,70,17
0.09999999999999432,3884,10,70,17
0.10000000000000853,3884,11,70,15
0.09999999999999432,3884,12,70,20
0.09999999999999432,3884,13,70,15
0.09999999999999432,3884,14,70,17
0.10000000000000853,3884,15,70,20
0.09999999999999432,3885,0,70,18
0.09999999999999432,3885,1,70,14
0.10000000000000853,3885,2,70,13
0.09999999999999432,3885,3,70,13
0.09999999999999432,3885,4,70,16
0.09999999999999432,3885,5,70,20
0.09999999999999432,3885,6,70,15
0.10000000000000853,3885,7,70,25
0.10000000000000853,3885,8,70,20
0.09999999999999432,3885,9,70,23
0.09999999999999432,3885,10,70,21
0.09999999999999432,3885,11,70,22
0.10000000000000853,3885,12,70,20
0.09999999999999432,3885,13,70,24
0.09999999999999432,3885,14,70,18
0.09999999999999432,3885,15,70,23
0.09999999999999432,3886,0,70,23
0.10000000000000853,3886,1,70,29
0.09999999999999432,3886,2,70,38
0.09999999999999432,3886,3,70,22
0.09999999999999432,3886,4,70,23
0.10000000000000853,3886,5,70,25
0.09999999999999432,3886,6,70,15
0.09999999999999432,3886,7,70,17
0.09999999999999432,3886,8,70,13
0.10000000000000853,3886,9,70,13
0.10000000000000853,3886,10,70,14
0.09999999999999432,3886,11,70,14
0.09999999999999432,3886,12,70,10
0.10000000000000853,3886,13,70,9
0.10000000000000853,3886,14,70,6
0.09999999999999432,3886,15,70,3
0.09999999999999432,3887,0,70,5
0.10000000000000853,3887,1,70,9
0.09999999999999432,3887,2,70,7
0.10000000000000853,3887,3,70,9
0.09999999999999432,3887,4,70,6
0.09999999999999432,3887,5,70,7
0.10000000000000853,3887,6,70,6
0.09999999999999432,3887,7,70,20
0.10000000000000853,3887,8,70,23
0.10000000000000853,3887,9,70,28
0.09999999999999432,3887,10,70,34
0.10000000000000853,3887,11,70,27
0.09999999999999432,3887,12,70,33
0.10000000000000853,3887,13,70,24
0.09999999999999432,3887,14,70,27
0.09999999999999432,3887,15,70,40
0.09999999999999432,3888,0,70,23
0.10000000000000853,3888,1,70,19
0.10000000000002274,3888,2,70,27
0.09999999999999432,3888,3,70,14
0.09999999999999432,3888,4,70,27
0.09999999999999432,3888,5,70,20
0.09999999999999432,3888,6,70,25
0.10000000000002274,3888,7,70,22
0.09999999999999432,3888,8,70,22
0.10000000000002274,3888,9,70,19
0.09999999999999432,3888,10,70,22
0.09999999999999432,3888,11,70,31
0.09999999999999432,3888,12,70,24
0.09999999999999432,3888,13,70,30
0.09999999999999432,3888,14,70,30
0.09999999999999432,3888,15,70,30
0.10000000000002274,3889,0,70,32
0.09999999999999432,3889,1,70,26
0.09999999999999432,3889,2,70,30
0.09999999999999432,3889,3,70,30
0.09999999999999432,3889,4,70,47
0.10000000000002274,3889,5,70,64
0.09999999999999432,3889,6,70,44
0.09999999999999432,3889,7,70,57
0.09999999999999432,3889,8,70,60
0.10000000000002274,3889,9,70,38
0.09999999999999432,3889,10,70,36
0.09999999999999432,3889,11,70,86
0.09999999999999432,3889,12,70,51
0.09999999999999432,3889,13,70,51
0.09999999999999432,3889,14,70,43
0.09999999999999432,3889,15,70,43
0.09999999999999432,3890,0,70,55
0.09999999999999432,3890,1,70,55
0.10000000000002274,3890,2,70,47
0.09999999999999432,3890,3,70,32
0.10000000000002274,3890,4,70,35
0.09999999999999432,3890,5,70,34
0.10000000000002274,3890,6,70,35
0.09999999999999432,3890,7,70,20
0.10000000000002274,3890,8,70,34
0.09999999999999432,3890,9,70,25
0.09999999999999432,3890,10,70,25
0.09999999999999432,3890,11,70,18
0.10000000000002274,3890,12,70,22
0.09999999999999432,3890,13,70,26
0.09999999999999432,3890,14,70,52
0.10000000000002274,3890,15,70,39
0.09999999999999432,3891,0,70,29
0.09999999999999432,3891,1,70,30
0.09999999999999432,3891,2,70,36
0.09999999999999432,3891,3,70,24
0.09999999999999432,3891,4,70,27
0.09999999999999432,3891,5,70,22
0.09999999999999432,3891,6,70,25
0.09999999999999432,3891,7,70,22
0.09999999999999432,3891,8,70,22
0.09999999999999432,3891,9,70,23
0.09999999999999432,3891,10,70,23
0.09999999999999432,3891,11,70,33
0.10000000000002274,3891,12,70,29
0.09999999999999432,3891,13,70,22
0.09999999999999432,3891,14,70,25
0.10000000000002274,3891,15,70,22
0.09999999999999432,3892,0,70,17
0.09999999999999432,3892,1,70,29
0.09999999999999432,3892,2,70,27
0.10000000000002274,3892,3,70,25
0.09999999999999432,3892,4,70,31
0.09999999999999432,3892,5,70,18
0.09999999999999432,3892,6,70,15
0.09999999999999432,3892,7,70,18
0.09999999999999432,3892,8,70,20
0.09999999999999432,3892,9,70,21
0.09999999999999432,3892,10,70,32
0.09999999999999432,3892,11,70,34
0.09999999999999432,3892,12,70,19
0.09999999999999432,3892,13,70,20
0.10000000000002274,3892,14,70,18
0.09999999999999432,3892,15,70,30
0.09999999999999432,3893,0,70,27
0.09999999999999432,3893,1,70,20
0.09999999999999432,3893,2,70,19
0.09999999999999432,3893,3,70,34
0.09999999999999432,3893,4,70,19
0.09999999999999432,3893,5,70,29
0.09999999999999432,3893,6,70,27
0.10000000000002274,3893,7,70,37
0.09999999999999432,3893,8,70,28
0.09999999999999432,3893,9,70,31
0.10000000000002274,3893,10,70,36
0.09999999999999432,3893,11,70,43
0.09999999999999432,3893,12,70,56
0.09999999999999432,3893,13,70,46
0.09999999999999432,3893,14,70,43
0.09999999999999432,3893,15,70,73
0.09999999999999432,3894,0,70,60
0.09999999999999432,3894,1,70,53
0.09999999999999432,3894,2,70,56
0.09999999999999432,3894,3,70,57
0.10000000000002274,3894,4,70,39
0.09999999999999432,3894,5,70,89
0.09999999999999432,3894,6,70,45
0.09999999999999432,3894,7,70,26
0.09999999999999432,3894,8,70,54
0.09999999999999432,3894,9,70,51
0.10000000000002274,3894,10,70,82
0.09999999999999432,3894,11,70,43
0.10000000000002274,3894,12,70,99
0.09999999999999432,3894,13,70,44
0.09999999999999432,3894,14,70,29
0.09999999999999432,3894,15,70,32
0.10000000000002274,3895,0,70,48
0.09999999999999432,3895,1,70,38
0.09999999999999432,3895,2,70,37
0.09999999999999432,3895,3,70,36
0.09999999999999998,3895,4,61,1
0.004545454545454519,3895,5,61,1
0.025000000000000022,3895,6,61,1
0.05681818181818182,3895,7,61,1
0.025000000000000022,3895,8,61,1
0.004545454545454519,3895,9,61,1
0.004545454545454519,3895,10,61,1
0.013636363636363669,3895,11,61,1
0.05909090909090908,3895,12,61,1
0.09999999999999998,3895,13,61,1
0.05909090909090908,3895,14,61,1
0.10000000000000009,3895,15,61,1
0.059090909090909194,3896,0,61,1
0.03409090909090917,3896,1,61,1
0.10000000000000009,3896,2,61,1
0.045454545454545414,3896,3,61,1
0.002272727272727204,3896,4,61,1
0.02499999999999991,3896,5,61,1
0.09999999999999987,3896,6,61,1
0.02499999999999991,3896,7,61,1
0.06818181818181812,3896,8,61,1
0.02499999999999991,3896,9,61,1
0.036363636363636376,3896,10,61,1
0.02499999999999991,3896,11,61,1
0.06818181818181812,3896,12,61,1
0.036363636363636376,3896,13,61,1
0.09999999999999987,3896,14,61,1
0.04772727272727262,3896,15,61,1
0.013636363636363447,3897,0,61,1
0.02499999999999991,3897,1,61,1
0.10000000000000009,3897,2,61,1
0.10000000000000009,3897,3,61,1
0.02499999999999991,3897,4,61,1
0.02499999999999991,3897,5,61,1
0.06818181818181834,3897,6,61,1
0.01590909090909065,3897,7,61,1
0.036363636363636154,3897,8,61,1
0.03409090909090917,3897,9,61,1
0.04772727272727284,3897,10,61,1
0.02499999999999991,3897,11,61,1
0.036363636363636154,3897,12,61,1
0.0568181818181821,3897,13,61,1
0.004545454545454408,3897,14,61,1
0.10000000000000009,3897,15,61,1
0.10000000000000009,3898,0,61,1
0.04772727272727284,3898,1,61,1
0.045454545454545414,3898,2,61,1
0.013636363636363669,3898,3,61,1
0.10000000000000009,3898,4,61,1
0.0363636363636366,3898,5,61,1
0.05681818181818166,3898,6,61,1
0.01590909090909065,3898,7,61,1
0.0363636363636366,3898,8,61,1
0.05681818181818166,3898,9,61,1
0.09999999999999964,3898,10,61,1
0.05681818181818166,3898,11,61,1
0.09999999999999964,3898,12,61,1
0.06818181818181834,3898,13,61,1
0.025000000000000355,3898,14,61,1
0.01590909090909154,3898,15,61,1
0.004545454545454852,3899,0,61,1
0.024999999999999467,3899,1,61,1
0.036363636363636154,3899,2,61,1
0.10000000000000053,3899,3,61,1
0.01590909090909065,3899,4,61,1
0.05681818181818166,3899,5,61,1
0.10000000000000053,3899,6,61,1
0.036363636363636154,3899,7,61,1
0.10000000000000053,3899,8,61,1
0.09999999999999964,3899,9,61,1
0.09999999999999964,3899,10,61,1
0.04545454545454497,3899,11,61,1
0.09999999999999964,3899,12,61,1
0.06818181818181746,3899,13,61,1
0.024999999999999467,3899,14,61,1
0.025000000000000355,3899,15,61,1
0.036363636363636154,3900,0,61,1
0.004545454545453964,3900,1,61,1
0.002272727272726982,3900,2,61,1
0.09999999999999964,3900,3,61,1
0.03409090909090917,3900,4,61,1
0.09999999999999964,3900,5,61,1
0.024999999999999467,3900,6,61,1
0.025000000000000355,3900,7,61,1
0.10000000000000053,3900,8,61,1
0.06818181818181834,3900,9,61,1
0.013636363636363669,3900,10,61,1
0.04772727272727284,3900,11,61,1
0.01590909090909154,3900,12,61,1
0.024999999999999467,3900,13,61,1
0.09999999999999964,3900,14,61,1
0.013636363636363669,3900,15,61,1
0.06818181818181834,3901,0,61,1
0.03636363636363704,3901,1,61,1
0.004545454545454852,3901,2,61,1
0.10000000000000053,3901,3,61,1
0.09999999999999964,3901,4,61,1
0.05681818181818166,3901,5,61,1
0.09999999999999964,3901,6,61,1
0.036363636363636154,3901,7,61,1
0.004545454545453964,3901,8,61,1
0.09999999999999964,3901,9,61,1
0.10000000000000053,3901,10,61,1
0.04545454545454586,3901,11,61,1
0.036363636363635266,3901,12,61,1
0.09999999999999964,3901,13,61,1
0.04772727272727373,3901,14,61,1
0.03636363636363704,3901,15,61,1
0.03636363636363704,3902,0,61,1
0.05681818181818166,3902,1,61,1
0.10000000000000142,3902,2,61,1
0.03636363636363704,3902,3,61,1
0.004545454545453964,3902,4,61,1
0.09999999999999964,3902,5,61,1
0.05681818181818166,3902,6,61,1
0.025000000000000355,3902,7,61,1
0.013636363636363669,3902,8,61,1
0.004545454545453964,3902,9,61,1
0.004545454545453964,3902,10,61,1
0.04772727272727373,3902,11,61,1
0.10000000000000142,3902,12,61,1
0.025000000000000355,3902,13,61,1
0.09999999999999964,3902,14,61,1
0.013636363636363669,3902,15,61,1
0.10000000000000142,3903,0,61,1
0.06818181818181834,3903,1,61,1
0.0045454545454557405,3903,2,61,1
0.004545454545453964,3903,3,61,1
0.025000000000000355,3903,4,61,1
0.01590909090909065,3903,5,61,1
0.05681818181818166,3903,6,61,1
0.02499999999999858,3903,7,61,1
0.05681818181818166,3903,8,61,1
0.025000000000000355,3903,9,61,1
0.01590909090909065,3903,10,61,1
0.05681818181818166,3903,11,61,1
0.002272727272726982,3903,12,61,1
0.01590909090909065,3903,13,61,1
0.10000000000000142,3903,14,61,1
0.09999999999999964,3903,15,61,1
0.05681818181818166,3904,0,61,1
0.002272727272726982,3904,1,61,1
0.09999999999999964,3904,2,61,1
0.09999999999999964,3904,3,61,1
0.10000000000000142,3904,4,61,1
0.09999999999999964,3904,5,61,1
0.09999999999999964,3904,6,61,1
0.10000000000000142,3904,7,61,1
0.05681818181818166,3904,8,61,1
0.025000000000000355,3904,9,61,1
0.025000000000000355,3904,10,61,1
0.06818181818181834,3904,11,61,1
0.09999999999999964,3904,12,61,1
0.03636363636363704,3904,13,61,1
0.002272727272726982,3904,14,61,1
0.10000000000000142,3904,15,61,1
0.05681818181818343,3905,0,61,1
0.09999999999999964,3905,1,61,1
0.036363636363635266,3905,2,61,1
0.10000000000000142,3905,3,61,1
0.05681818181818343,3905,4,61,1
0.03636363636363704,3905,5,61,1
0.05909090909090864,3905,6,61,1
0.01590909090909065,3905,7,61,1
0.002272727272726982,3905,8,61,1
0.09999999999999964,3905,9,61,1
0.004545454545453964,3905,10,61,1
0.013636363636363669,3905,11,61,1
0.05909090909090864,3905,12,61,1
0.09999999999999964,3905,13,61,1
0.03636363636363704,3905,14,61,1
0.09999999999999964,3905,15,61,1
0.06590909090909136,3906,0,61,1
0.09999999999999964,3906,1,61,1
0.04545454545454497,3906,2,61,1
0.09999999999999964,3906,3,61,1
0.004545454545453964,3906,4,61,1
0.04545454545454497,3906,5,61,1
0.004545454545453964,3906,6,61,1
0.05681818181818166,3906,7,61,1
0.09999999999999964,3906,8,61,1
0.09999999999999964,3906,9,61,1
0.09999999999999964,3906,10,61,1
0.09999999999999964,3906,11,61,1
0.09999999999999964,3906,12,61,1
0.04545454545454497,3906,13,61,1
0.004545454545453964,3906,14,61,1
0.036363636363635266,3906,15,61,1
0.002272727272726982,3907,0,61,1
0.027272727272727337,3907,1,61,1
0.09999999999999964,3907,2,61,1
0.05681818181818166,3907,3,61,1
0.09999999999999964,3907,4,61,1
0.027272727272727337,3907,5,61,1
0.04545454545454497,3907,6,61,1
0.09999999999999964,3907,7,61,1
0.10000000000000142,3907,8,61,1
0.10000000000000142,3907,9,61,1
0.10000000000000142,3907,10,61,1
0.06818181818182012,3907,11,61,1
0.036363636363635266,3907,12,61,1
0.013636363636361892,3907,13,61,1
0.013636363636361892,3907,14,61,1
0.10000000000000142,3907,15,61,1
0.09999999999999787,3908,0,61,1
0.06818181818181657,3908,1,61,1
0.02499999999999858,3908,2,61,1
0.10000000000000142,3908,3,61,1
0.10000000000000142,3908,4,61,1
0.05681818181818343,3908,5,61,1
0.013636363636365445,3908,6,61,1
0.03636363636363882,3908,7,61,1
0.09999999999999787,3908,8,61,1
0.02499999999999858,3908,9,61,1
0.036363636363635266,3908,10,61,1
0.10000000000000142,3908,11,61,1
0.09999999999999787,3908,12,61,1
0.05909090909090864,3908,13,61,1
0.10000000000000142,3908,14,61,1
0.05681818181818343,3908,15,61,1
0.09999999999999787,3909,0,61,1
0.09999999999999787,3909,1,61,1
0.004545454545453964,3909,2,61,1
0.05681818181818343,3909,3,61,1
0.013636363636365445,3909,4,61,1
0.02500000000000213,3909,5,61,1
0.004545454545453964,3909,6,61,1
0.09999999999999787,3909,7,61,1
0.05681818181817988,3909,8,61,1
0.0022727272727252057,3909,9,61,1
0.05909090909090864,3909,10,61,1
0.03636363636363882,3909,11,61,1
0.09999999999999787,3909,12,61,1
0.02499999999999858,3909,13,61,1
0.09999999999999787,3909,14,61,1
0.10000000000000142,3909,15,61,1
0.03636363636363882,3910,0,61,1
0.09999999999999787,3910,1,61,1
0.004545454545453964,3910,2,61,1
0.09999999999999787,3910,3,61,1
0.06818181818181657,3910,4,61,1
0.013636363636365445,3910,5,61,1
0.02500000000000213,3910,6,61,1
0.10000000000000142,3910,7,61,1
0.09999999999999787,3910,8,61,1
0.10000000000000142,3910,9,61,1
0.013636363636361892,3910,10,61,1
0.10000000000000142,3910,11,61,1
0.09999999999999787,3910,12,61,1
0.06818181818181657,3910,13,61,1
0.10000000000000142,3910,14,61,1
0.045454545454546746,3910,15,61,1
0.004545454545453964,3911,0,61,1
0.10000000000000142,3911,1,61,1
0.03636363636363882,3911,2,61,1
0.05681818181817988,3911,3,61,1
0.10000000000000142,3911,4,61,1
0.04772727272727195,3911,5,61,1
0.10000000000000142,3911,6,61,1
0.03636363636363882,3911,7,61,1
0.10000000000000142,3911,8,61,1
0.03636363636363882,3911,9,61,1
0.05681818181818343,3911,10,61,1
0.013636363636365445,3911,11,61,1
0.10000000000000142,3911,12,61,1
0.06818181818182012,3911,13,61,1
0.10000000000000142,3911,14,61,1
0.10000000000000142,3911,15,61,1
0.03636363636363882,3912,0,61,1
0.09999999999999787,3912,1,61,1
0.05909090909090864,3912,2,61,1
0.013636363636365445,3912,3,61,1
0.004545454545453964,3912,4,61,1
0.02499999999999858,3912,5,61,1
0.01590909090909065,3912,6,61,1
0.013636363636365445,3912,7,61,1
0.045454545454546746,3912,8,61,1
0.04772727272727195,3912,9,61,1
0.04772727272727195,3912,10,61,1
0.045454545454546746,3912,11,61,1
0.047727272727275505,3912,12,61,1
0.02499999999999858,3912,13,61,1
0.06818181818181657,3912,14,61,1
0.02499999999999858,3912,15,61,1
0.036363636363635266,3913,0,61,1
0.02500000000000213,3913,1,61,1
0.09999999999999787,3913,2,61,1
0.10000000000000142,3913,3,61,1
0.03636363636363882,3913,4,61,1
0.05909090909090864,3913,5,61,1
0.02499999999999858,3913,6,61,1
0.03409090909090651,3913,7,61,1
0.027272727272727337,3913,8,61,1
0.10000000000000142,3913,9,61,1
0.09999999999999787,3913,10,61,1
0.004545454545453964,3913,11,61,1
0.09999999999999787,3913,12,61,1
0.036363636363635266,3913,13,61,1
0.10000000000000142,3913,14,61,1
0.045454545454546746,3913,15,61,1
0.10000000000000142,3914,0,61,1
0.04772727272727195,3914,1,61,1
0.10000000000000142,3914,2,61,1
0.09999999999999787,3914,3,61,1
0.036363636363635266,3914,4,61,1
0.05681818181818343,3914,5,61,1
0.03636363636363882,3914,6,61,1
0.09999999999999787,3914,7,61,1
0.10000000000000142,3914,8,61,1
0.09999999999999787,3914,9,61,1
0.05681818181817988,3914,10,61,1
0.013636363636361892,3914,11,61,1
0.05909090909091219,3914,12,61,1
0.036363636363635266,3914,13,61,1
0.10000000000000142,3914,14,61,1
0.10000000000000142,3914,15,61,1
0.05681818181817988,3915,0,61,1
0.004545454545453964,3915,1,61,1
0.02500000000000213,3915,2,61,1
0.04772727272727195,3915,3,61,1
0.09999999999999787,3915,4,61,1
0.10000000000000142,3915,5,61,1
0.09999999999999787,3915,6,61,1
0.10000000000000142,3915,7,61,1
0.05681818181817988,3915,8,61,1
0.004545454545453964,3915,9,61,1
0.013636363636365445,3915,10,61,1
0.047727272727275505,3915,11,61,1
0.10000000000000142,3915,12,61,1
0.10000000000000142,3915,13,61,1
0.036363636363635266,3915,14,61,1
0.10000000000000142,3915,15,61,1
0.05681818181818343,3916,0,61,1
0.09999999999999787,3916,1,61,1
0.06818181818181657,3916,2,61,1
0.013636363636361892,3916,3,61,1
0.10000000000000142,3916,4,61,1
0.03636363636363882,3916,5,61,1
0.10000000000000142,3916,6,61,1
0.01590909090909065,3916,7,61,1
0.10000000000000142,3916,8,61,1
0.02500000000000213,3916,9,61,1
0.03636363636363882,3916,10,61,1
0.036363636363635266,3916,11,61,1
0.013636363636361892,3916,12,61,1
0.10000000000000142,3916,13,61,1
0.10000000000000142,3916,14,61,1
0.09999999999999787,3916,15,61,1
0.045454545454543194,3917,0,61,1
0.04772727272727195,3917,1,61,1
0.045454545454546746,3917,2,61,1
0.047727272727275505,3917,3,61,1
0.036363636363635266,3917,4,61,1
0.013636363636361892,3917,5,61,1
0.04772727272727195,3917,6,61,1
0.02500000000000213,3917,7,61,1
0.06818181818182012,3917,8,61,1
0.013636363636365445,3917,9,61,1
0.10000000000000142,3917,10,61,1
0.10000000000000142,3917,11,61,1
0.02499999999999858,3917,12,61,1
0.05681818181817988,3917,13,61,1
0.01590909090909065,3917,14,61,1
0.045454545454546746,3917,15,61,1
0.0022727272727287584,3918,0,61,1
0.015909090909087098,3918,1,61,1
0.03636363636363882,3918,2,61,1
0.0022727272727252057,3918,3,61,1
0.10000000000000142,3918,4,61,1
0.045454545454546746,3918,5,61,1
0.10000000000000142,3918,6,61,1
0.03636363636363882,3918,7,61,1
0.045454545454546746,3918,8,61,1
0.01590909090909065,3918,9,61,1
0.10000000000000142,3918,10,61,1
0.06818181818182012,3918,11,61,1
0.10000000000000142,3918,12,61,1
0.03636363636363882,3918,13,61,1
0.10000000000000142,3918,14,61,1
0.056818181818186986,3918,15,61,1
0.10000000000000142,3919,0,61,1
0.04772727272727195,3919,1,61,1
0.013636363636365445,3919,2,61,1
0.10000000000000142,3919,3,61,1
0.06818181818182012,3919,4,61,1
0.013636363636365445,3919,5,61,1
0.10000000000000142,3919,6,61,1
0.0022727272727252057,3919,7,61,1
0.10000000000000142,3919,8,61,1
0.10000000000000142,3919,9,61,1
0.10000000000000142,3919,10,61,1
0.013636363636365445,3919,11,61,1
0.01590909090909065,3919,12,61,1
0.05681818181817988,3919,13,61,1
0.004545454545457517,3919,14,61,1
0.004545454545450411,3919,15,61,1
0.09999999999999432,3920,0,61,1
0.10000000000000142,3920,1,61,1
0.004545454545457517,3920,2,61,1
0.03636363636363882,3920,3,61,1
0.05681818181817988,3920,4,61,1
0.03636363636363882,3920,5,61,1
0.02499999999999858,3920,6,61,1
0.04545454545453964,3920,7,61,1
0.10000000000000142,3920,8,61,1
0.03636363636363882,3920,9,61,1
0.04772727272727195,3920,10,61,1
0.10000000000000142,3920,11,61,1
0.004545454545450411,3920,12,61,1
0.10000000000000142,3920,13,61,1
0.02499999999999858,3920,14,61,1
0.03636363636363882,3920,15,61,1
0.045454545454546746,3921,0,61,1
0.013636363636365445,3921,1,61,1
0.004545454545457517,3921,2,61,1
0.04772727272727195,3921,3,61,1
0.004545454545457517,3921,4,61,1
0.09999999999999432,3921,5,61,1
0.10000000000000142,3921,6,61,1
0.10000000000000142,3921,7,61,1
0.06590909090909491,3921,8,61,1
0.013636363636365445,3921,9,61,1
0.013636363636365445,3921,10,61,1
0.06818181818182012,3921,11,61,1
0.10000000000000142,3921,12,61,1
0.06818181818182012,3921,13,61,1
0.03636363636363882,3921,14,61,1
0.02499999999999858,3921,15,61,1
0.04772727272727195,3922,0,61,1
0.04545454545453964,3922,1,61,1
0.02499999999999858,3922,2,61,1
0.05909090909091219,3922,3,61,1
0.02727272727273089,3922,4,61,1
0.02499999999999858,3922,5,61,1
0.03636363636363882,3922,6,61,1
0.013636363636365445,3922,7,61,1
0.05681818181817988,3922,8,61,1
0.10000000000000142,3922,9,61,1
0.059090909090905086,3922,10,61,1
0.03409090909090651,3922,11,61,1
0.0022727272727252057,3922,12,61,1
0.03636363636363882,3922,13,61,1
0.004545454545457517,3922,14,61,1
0.05681818181817988,3922,15,61,1
0.004545454545450411,3923,0,61,1
0.004545454545457517,3923,1,61,1
0.01590909090909065,3923,2,61,1
0.002272727272732311,3923,3,61,1
0.02499999999999858,3923,4,61,1
0.01590909090909065,3923,5,61,1
0.10000000000000142,3923,6,61,1
0.06818181818182012,3923,7,61,1
0.01590909090909065,3923,8,61,1
0.03409090909091361,3923,9,61,1
0.04772727272727195,3923,10,61,1
0.01590909090909065,3923,11,61,1
0.004545454545457517,3923,12,61,1
0.10000000000000142,3923,13,61,1
0.025000000000005684,3923,14,61,1
0.013636363636365445,3923,15,61,1
0.027272727272723785,3924,0,61,1
0.06590909090909491,3924,1,61,1
0.09999999999999432,3924,2,61,1
0.05681818181817988,3924,3,61,1
0.0022727272727252057,3924,4,61,1
0.02499999999999858,3924,5,61,1
0.03636363636363171,3924,6,61,1
0.01590909090909065,3924,7,61,1
0.10000000000000142,3924,8,61,1
0.05909090909091219,3924,9,61,1
0.0022727272727252057,3924,10,61,1
0.04772727272727195,3924,11,61,1
0.09999999999999432,3924,12,61,1
0.09999999999999432,3924,13,61,1
0.01363636363635834,3924,14,61,1
0.05681818181817988,3924,15,61,1
0.01590909090909065,3925,0,61,1
0.01590909090909065,3925,1,61,1
0.09999999999999432,3925,2,61,1
0.06818181818181301,3925,3,61,1
0.01363636363635834,3925,4,61,1
0.01590909090909065,3925,5,61,1
0.013636363636365445,3925,6,61,1
0.10000000000000142,3925,7,61,1
0.03409090909090651,3925,8,61,1
0.09999999999999432,3925,9,61,1
0.06818181818181301,3925,10,61,1
0.10000000000000142,3925,11,61,1
0.056818181818186986,3925,12,61,1
0.013636363636365445,3925,13,61,1
0.01590909090909065,3925,14,61,1
0.004545454545457517,3925,15,61,1
0.10000000000000142,3926,0,61,1
0.025000000000005684,3926,1,61,1
0.02499999999999858,3926,2,61,1
0.01590909090909065,3926,3,61,1
0.06818181818182012,3926,4,61,1
0.025000000000005684,3926,5,61,1
0.045454545454546746,3926,6,61,1
0.03636363636363171,3926,7,61,1
0.004545454545450411,3926,8,61,1
0.02499999999999858,3926,9,61,1
0.01590909090909065,3926,10,61,1
0.027272727272723785,3926,11,61,1
0.0022727272727252057,3926,12,61,1
0.10000000000000142,3926,13,61,1
0.06818181818182012,3926,14,61,1
0.10000000000000142,3926,15,61,1
0.06818181818182012,3927,0,61,1
0.02499999999999858,3927,1,61,1
0.004545454545457517,3927,2,61,1
0.06818181818182012,3927,3,61,1
0.10000000000000142,3927,4,61,1
0.10000000000000142,3927,5,61,1
0.05681818181817988,3927,6,61,1
0.03636363636363171,3927,7,61,1
0.10000000000000142,3927,8,61,1
0.04772727272727195,3927,9,61,1
0.01363636363635834,3927,10,61,1
0.09999999999999432,3927,11,61,1
0.01590909090909065,3927,12,61,1
0.10000000000000142,3927,13,61,1
0.04772727272727195,3927,14,61,1
0.10000000000000142,3927,15,61,1
0.10000000000000142,3928,0,61,1
0.06818181818182012,3928,1,61,1
0.004545454545457517,3928,2,61,1
0.10000000000000142,3928,3,61,1
0.056818181818186986,3928,4,61,1
0.09999999999999432,3928,5,61,1
0.04772727272727195,3928,6,61,1
0.02499999999999858,3928,7,61,1
0.04772727272727195,3928,8,61,1
0.10000000000000142,3928,9,61,1
0.06590909090908781,3928,10,61,1
0.10000000000000142,3928,11,61,1
0.04772727272727195,3928,12,61,1
0.10000000000000142,3928,13,61,1
0.05909090909091219,3928,14,61,1
0.02499999999999858,3928,15,61,1
0.04545454545453964,3929,0,61,1
0.09999999999999432,3929,1,61,1
0.03636363636363171,3929,2,61,1
0.03409090909090651,3929,3,61,1
0.04772727272727195,3929,4,61,1
0.01590909090909065,3929,5,61,1
0.025000000000005684,3929,6,61,1
0.02499999999999858,3929,7,61,1
0.10000000000000142,3929,8,61,1
0.10000000000000142,3929,9,61,1
0.03636363636363882,3929,10,61,1
0.05681818181817988,3929,11,61,1
0.0022727272727252057,3929,12,61,1
0.04772727272727195,3929,13,61,1
0.004545454545450411,3929,14,61,1
0.09999999999999432,3929,15,61,1
0.10000000000000142,3930,0,61,1
0.02499999999999858,3930,1,61,1
0.04772727272727195,3930,2,61,1
0.04545454545453964,3930,3,61,1
0.01590909090909065,3930,4,61,1
0.10000000000000142,3930,5,61,1
0.05909090909091219,3930,6,61,1
0.01590909090909065,3930,7,61,1
0.025000000000005684,3930,8,61,1
0.06818181818181301,3930,9,61,1
0.10000000000000142,3930,10,61,1
0.06818181818182012,3930,11,61,1
0.10000000000000142,3930,12,61,1
0.03636363636363882,3930,13,61,1
0.045454545454546746,3930,14,61,1
0.10000000000000142,3930,15,61,1
0.10000000000000142,3931,0,61,1
0.09999999999999432,3931,1,61,1
0.059090909090905086,3931,2,61,1
0.025000000000005684,3931,3,61,1
0.01363636363635834,3931,4,61,1
0.04772727272727195,3931,5,61,1
0.10000000000000142,3931,6,61,1
0.09999999999999432,3931,7,61,1
0.10000000000000142,3931,8,61,1
0.10000000000000142,3931,9,61,1
0.05909090909091219,3931,10,61,1
0.013636363636365445,3931,11,61,1
0.10000000000000142,3931,12,61,1
0.10000000000000142,3931,13,61,1
0.10000000000000142,3931,14,61,1
0.04772727272727195,3931,15,61,1
0.10000000000000142,3932,0,61,1
0.06818181818181301,3932,1,61,1
0.09999999999999432,3932,2,61,1
0.05681818181817988,3932,3,61,1
0.01590909090909065,3932,4,61,1
0.10000000000000142,3932,5,61,1
0.06818181818182012,3932,6,61,1
0.03636363636363882,3932,7,61,1
0.013636363636365445,3932,8,61,1
0.02499999999999858,3932,9,61,1
0.03636363636363882,3932,10,61,1
0.004545454545457517,3932,11,61,1
0.02499999999999858,3932,12,61,1
0.01590909090909065,3932,13,61,1
0.03636363636363882,3932,14,61,1
0.10000000000000142,3932,15,61,1
0.013636363636365445,3933,0,61,1
0.10000000000000142,3933,1,61,1
0.09999999999999432,3933,2,61,1
0.06818181818181301,3933,3,61,1
0.03636363636363171,3933,4,61,1
0.004545454545450411,3933,5,61,1
0.004545454545450411,3933,6,61,1
0.10000000000000142,3933,7,61,1
0.02499999999999858,3933,8,61,1
0.10000000000000142,3933,9,61,1
0.01590909090909065,3933,10,61,1
0.056818181818186986,3933,11,61,1
0.03636363636363882,3933,12,61,1
0.04772727272727195,3933,13,61,1
0.045454545454546746,3933,14,61,1
0.04772727272727195,3933,15,61,1
0.10000000000000142,3934,0,61,1
0.06818181818182012,3934,1,61,1
0.02499999999999858,3934,2,61,1
0.10000000000000142,3934,3,61,1
0.09999999999999432,3934,4,61,1
0.04545454545453964,3934,5,61,1
0.04772727272727195,3934,6,61,1
0.10000000000000142,3934,7,61,1
0.03636363636363882,3934,8,61,1
0.05681818181817988,3934,9,61,1
0.013636363636365445,3934,10,61,1
0.02499999999999858,3934,11,61,1
0.10000000000000142,3934,12,61,1
0.059090909090905086,3934,13,61,1
0.02499999999999858,3934,14,61,1
0.02727272727273089,3934,15,61,1
0.06818181818182012,3935,0,61,1
0.0022727272727252057,3935,1,61,1
0.025000000000005684,3935,2,61,1
0.10000000000000142,3935,3,61,1
0.10000000000000142,3935,4,61,1
0.05681818181817988,3935,5,61,1
0.004545454545450411,3935,6,61,1
0.02499999999999858,3935,7,61,1
0.01590909090909065,3935,8,61,1
0.10000000000000142,3935,9,61,1
0.10000000000000142,3935,10,61,1
0.10000000000000142,3935,11,61,1
0.09999999999999432,3935,12,61,1
0.004545454545450411,3935,13,61,1
0.09999999999999432,3935,14,61,1
0.09999999999999432,3935,15,61,1
0.10000000000000142,3936,0,61,1
0.10000000000000142,3936,1,61,1
0.06818181818182012,3936,2,61,1
0.09999999999999432,3936,3,61,1
0.09999999999999432,3936,4,61,1
0.09999999999999432,3936,5,61,1
0.02499999999999858,3936,6,61,1
0.05681818181817988,3936,7,61,1
0.02499999999999858,3936,8,61,1
0.05681818181817988,3936,9,61,1
0.03636363636363882,3936,10,61,1
0.10000000000000142,3936,11,61,1
0.09999999999999432,3936,12,61,1
0.05681818181817988,3936,13,61,1
0.01363636363635834,3936,14,61,1
0.02499999999999858,3936,15,61,1
0.09999999999999432,3937,0,61,1
0.02499999999999858,3937,1,61,1
0.05681818181817988,3937,2,61,1
0.10000000000000142,3937,3,61,1
0.10000000000000142,3937,4,61,1
0.06818181818182012,3937,5,61,1
0.10000000000000142,3937,6,61,1
0.05909090909091219,3937,7,61,1
0.02499999999999858,3937,8,61,1
0.06818181818181301,3937,9,61,1
0.03636363636363171,3937,10,61,1
0.10000000000000142,3937,11,61,1
0.06818181818182012,3937,12,61,1
0.004545454545450411,3937,13,61,1
0.01363636363635834,3937,14,61,1
0.03636363636363171,3937,15,61,1
0.056818181818186986,3938,0,61,1
0.10000000000000142,3938,1,61,1
0.10000000000000142,3938,2,61,1
0.10000000000000142,3938,3,61,1
0.04772727272727906,3938,4,61,1
0.004545454545457517,3938,5,61,1
0.03636363636363882,3938,6,61,1
0.05681818181817988,3938,7,61,1
0.013636363636365445,3938,8,61,1
0.004545454545450411,3938,9,61,1
0.013636363636365445,3938,10,61,1
0.03636363636363882,3938,11,61,1
0.01590909090909065,3938,12,61,1
0.06818181818182012,3938,13,61,1
0.09999999999999432,3938,14,61,1
0.10000000000000142,3938,15,61,1
0.06818181818182012,3939,0,61,1
0.025000000000005684,3939,1,61,1
0.004545454545457517,3939,2,61,1
0.03636363636363882,3939,3,61,1
0.004545454545450411,3939,4,61,1
0.01363636363635834,3939,5,61,1
0.10000000000000142,3939,6,61,1
0.09999999999999432,3939,7,61,1
0.05681818181817988,3939,8,61,1
0.01590909090909065,3939,9,61,1
0.06818181818182012,3939,10,61,1
0.0022727272727252057,3939,11,61,1
0.06818181818181301,3939,12,61,1
0.004545454545450411,3939,13,61,1
0.025000000000005684,3939,14,61,1
0.059090909090905086,3939,15,61,1
0.10000000000000142,3940,0,61,1
0.06818181818182012,3940,1,61,1
0.09999999999999432,3940,2,61,1
0.04545454545453964,3940,3,61,1
0.03636363636363171,3940,4,61,1
0.04772727272727906,3940,5,61,1
0.03636363636363171,3940,6,61,1
0.0022727272727252057,3940,7,61,1
0.01590909090909065,3940,8,61,1
0.004545454545457517,3940,9,61,1
0.10000000000000142,3940,10,61,1
0.05681818181817988,3940,11,61,1
0.10000000000000142,3940,12,61,1
0.09999999999999432,3940,13,61,1
0.10000000000000142,3940,14,61,1
0.10000000000000142,3940,15,61,1
0.09999999999999432,3941,0,61,1
0.06818181818181301,3941,1,61,1
0.01363636363635834,3941,2,61,1
0.03636363636363882,3941,3,61,1
0.10000000000000142,3941,4,61,1
0.056818181818186986,3941,5,61,1
0.09999999999999432,3941,6,61,1
0.03409090909090651,3941,7,61,1
0.02727272727273089,3941,8,61,1
0.06818181818182012,3941,9,61,1
0.02499999999999858,3941,10,61,1
0.056818181818186986,3941,11,61,1
0.013636363636365445,3941,12,61,1
0.03636363636363882,3941,13,61,1
0.045454545454546746,3941,14,61,1
0.02727272727273089,3941,15,61,1
0.02499999999999858,3942,0,61,1
0.03636363636363171,3942,1,61,1
0.09999999999999432,3942,2,61,1
0.056818181818172775,3942,3,61,1
0.024999999999991473,3942,4,61,1
0.09999999999999432,3942,5,61,1
0.0022727272727252057,3942,6,61,1
0.03636363636363171,3942,7,61,1
0.056818181818172775,3942,8,61,1
0.09999999999999432,3942,9,61,1
0.04772727272727195,3942,10,61,1
0.03409090909090651,3942,11,61,1
0.03636363636363171,3942,12,61,1
0.05909090909091219,3942,13,61,1
0.025000000000005684,3942,14,61,1
0.01590909090909065,3942,15,61,1
0.09999999999999432,3943,0,61,1
0.013636363636365445,3943,1,61,1
0.05909090909091219,3943,2,61,1
0.0022727272727252057,3943,3,61,1
0.10000000000000853,3943,4,61,1
0.01590909090909065,3943,5,61,1
0.10000000000000853,3943,6,61,1
0.013636363636365445,3943,7,61,1
0.056818181818186986,3943,8,61,1
0.02727272727273089,3943,9,61,1
0.10000000000000853,3943,10,61,1
0.09999999999999432,3943,11,61,1
0.10000000000000853,3943,12,61,1
0.10000000000000853,3943,13,61,1
0.06818181818182723,3943,14,61,1
0.013636363636365445,3943,15,61,1
0.04772727272727195,3944,0,61,1
0.004545454545450411,3944,1,61,1
0.013636363636351234,3944,2,61,1
0.10000000000000853,3944,3,61,1
0.05909090909091219,3944,4,61,1
0.01590909090909065,3944,5,61,1
0.0022727272727252057,3944,6,61,1
0.09999999999999432,3944,7,61,1
0.03636363636363171,3944,8,61,1
0.10000000000000853,3944,9,61,1
0.025000000000005684,3944,10,61,1
0.10000000000000853,3944,11,61,1
0.09999999999999432,3944,12,61,1
0.03636363636363171,3944,13,61,1
0.004545454545450411,3944,14,61,1
0.03636363636363171,3944,15,61,1
0.09999999999999432,3945,0,61,1
0.045454545454546746,3945,1,61,1
0.013636363636365445,3945,2,61,1
0.09999999999999432,3945,3,61,1
0.03409090909090651,3945,4,61,1
0.05909090909091219,3945,5,61,1
0.01590909090909065,3945,6,61,1
0.09999999999999432,3945,7,61,1
0.056818181818172775,3945,8,61,1
0.09999999999999432,3945,9,61,1
0.09999999999999432,3945,10,61,1
0.03409090909090651,3945,11,61,1
0.025000000000005684,3945,12,61,1
0.10000000000000853,3945,13,61,1
0.03636363636363171,3945,14,61,1
0.025000000000005684,3945,15,61,1
0.056818181818186986,3946,0,61,1
0.01590909090909065,3946,1,61,1
0.0022727272727252057,3946,2,61,1
0.05909090909091219,3946,3,61,1
0.0022727272727252057,3946,4,61,1
0.01590909090909065,3946,5,61,1
0.056818181818172775,3946,6,61,1
0.09999999999999432,3946,7,61,1
0.04772727272727195,3946,8,61,1
0.013636363636365445,3946,9,61,1
0.04772727272727195,3946,10,61,1
0.024999999999991473,3946,11,61,1
0.045454545454546746,3946,12,61,1
0.10000000000000853,3946,13,61,1
0.06818181818182723,3946,14,61,1
0.004545454545464622,3946,15,61,1
0.09999999999999432,3947,0,61,1
0.024999999999991473,3947,1,61,1
0.06818181818181301,3947,2,61,1
0.02727272727273089,3947,3,61,1
0.013636363636365445,3947,4,61,1
0.056818181818186986,3947,5,61,1
0.10000000000000853,3947,6,61,1
0.06818181818182723,3947,7,61,1
0.10000000000000853,3947,8,61,1
0.036363636363645924,3947,9,61,1
0.045454545454546746,3947,10,61,1
0.01590909090909065,3947,11,61,1
0.06818181818182723,3947,12,61,1
0.013636363636365445,3947,13,61,1
0.03636363636363171,3947,14,61,1
0.03636363636363171,3947,15,61,1
0.09999999999999432,3948,0,61,1
0.03636363636363171,3948,1,61,1
0.09999999999999432,3948,2,61,1
0.06590909090908781,3948,3,61,1
0.02727272727271668,3948,4,61,1
0.056818181818186986,3948,5,61,1
0.025000000000005684,3948,6,61,1
0.09999999999999432,3948,7,61,1
0.056818181818172775,3948,8,61,1
0.01590909090909065,3948,9,61,1
0.025000000000005684,3948,10,61,1
0.045454545454532536,3948,11,61,1
0.013636363636351234,3948,12,61,1
0.004545454545450411,3948,13,61,1
0.04772727272727195,3948,14,61,1
0.004545454545450411,3948,15,61,1
0.03636363636363171,3949,0,61,1
0.10000000000000853,3949,1,61,1
0.013636363636365445,3949,2,61,1
0.06818181818181301,3949,3,61,1
0.10000000000000853,3949,4,61,1
0.056818181818186986,3949,5,61,1
0.004545454545464622,3949,6,61,1
0.0022727272727252057,3949,7,61,1
0.04772727272727195,3949,8,61,1
0.03636363636363171,3949,9,61,1
0.045454545454546746,3949,10,61,1
0.03636363636363171,3949,11,61,1
0.03636363636363171,3949,12,61,1
0.013636363636365445,3949,13,61,1
0.10000000000000853,3949,14,61,1
0.06818181818182723,3949,15,61,1
0.01590909090909065,3950,0,61,1
0.056818181818186986,3950,1,61,1
0.036363636363645924,3950,2,61,1
0.025000000000005684,3950,3,61,1
0.04772727272727195,3950,4,61,1
0.10000000000000853,3950,5,61,1
0.03409090909090651,3950,6,61,1
0.03636363636363171,3950,7,61,1
0.04772727272727195,3950,8,61,1
0.024999999999991473,3950,9,61,1
0.024999999999991473,3950,10,61,1
0.06818181818181301,3950,11,61,1
0.004545454545450411,3950,12,61,1
0.09999999999999432,3950,13,61,1
0.02727272727271668,3950,14,61,1
0.056818181818186986,3950,15,61,1
0.03636363636363171,3951,0,61,1
0.10000000000000853,3951,1,61,1
0.10000000000000853,3951,2,61,1
0.056818181818186986,3951,3,61,1
0.09999999999999432,3951,4,61,1
0.09999999999999432,3951,5,61,1
0.10000000000000853,3951,6,61,1
0.10000000000000853,3951,7,61,1
0.04772727272727195,3951,8,61,1
0.025000000000005684,3951,9,61,1
0.09999999999999432,3951,10,61,1
0.03636363636363171,3951,11,61,1
0.013636363636365445,3951,12,61,1
0.09999999999999432,3951,13,61,1
0.10000000000000853,3951,14,61,1
0.025000000000005684,3951,15,61,1
0.056818181818186986,3952,0,61,1
0.03636363636363171,3952,1,61,1
0.036363636363645924,3952,2,61,1
0.004545454545464622,3952,3,61,1
0.01590909090909065,3952,4,61,1
0.004545454545464622,3952,5,61,1
0.013636363636365445,3952,6,61,1
0.01590909090909065,3952,7,61,1
0.013636363636365445,3952,8,61,1
0.056818181818172775,3952,9,61,1
0.03636363636363171,3952,10,61,1
0.04772727272727195,3952,11,61,1
0.09999999999999432,3952,12,61,1
0.004545454545450411,3952,13,61,1
0.06818181818181301,3952,14,61,1
0.09999999999999432,3952,15,61,1
0.09999999999999432,3953,0,61,1
0.04772727272727195,3953,1,61,1
0.004545454545450411,3953,2,61,1
0.09999999999999432,3953,3,61,1
0.024999999999991473,3953,4,61,1
0.03636363636363171,3953,5,61,1
0.004545454545450411,3953,6,61,1
0.013636363636365445,3953,7,61,1
0.09999999999999432,3953,8,61,1
0.013636363636365445,3953,9,61,1
0.05909090909091219,3953,10,61,1
0.09999999999999432,3953,11,61,1
0.045454545454546746,3953,12,61,1
0.025000000000005684,3953,13,61,1
0.05909090909089798,3953,14,61,1
0.10000000000000853,3953,15,61,1
0.056818181818186986,3954,0,61,1
0.03636363636363171,3954,1,61,1
0.013636363636351234,3954,2,61,1
0.01590909090909065,3954,3,61,1
0.004545454545450411,3954,4,61,1
0.0022727272727252057,3954,5,61,1
0.05909090909091219,3954,6,61,1
0.02727272727273089,3954,7,61,1
0.09999999999999432,3954,8,61,1
0.056818181818186986,3954,9,61,1
0.036363636363645924,3954,10,61,1
0.004545454545464622,3954,11,61,1
0.09999999999999432,3954,12,61,1
0.09999999999999432,3954,13,61,1
0.09999999999999432,3954,14,61,1
0.10000000000000853,3954,15,61,1
0.10000000000000853,3955,0,61,1
0.036363636363645924,3955,1,61,1
0.036363636363645924,3955,2,61,1
0.004545454545464622,3955,3,61,1
0.01590909090909065,3955,4,61,1
0.013636363636365445,3955,5,61,1
0.0022727272727252057,3955,6,61,1
0.05909090909089798,3955,7,61,1
0.01590909090909065,3955,8,61,1
0.004545454545464622,3955,9,61,1
0.10000000000000853,3955,10,61,1
0.03409090909090651,3955,11,61,1
0.0022727272727252057,3955,12,61,1
0.09999999999999432,3955,13,61,1
0.10000000000000853,3955,14,61,1
0.036363636363645924,3955,15,61,1
0.036363636363645924,3956,0,61,1
0.056818181818186986,3956,1,61,1
0.013636363636365445,3956,2,61,1
0.10000000000000853,3956,3,61,1
0.056818181818186986,3956,4,61,1
0.024999999999991473,3956,5,61,1
0.10000000000000853,3956,6,61,1
0.04772727272727195,3956,7,61,1
0.004545454545450411,3956,8,61,1
0.013636363636365445,3956,9,61,1
0.10000000000000853,3956,10,61,1
0.09999999999999432,3956,11,61,1
0.045454545454546746,3956,12,61,1
0.10000000000000853,3956,13,61,1
0.036363636363645924,3956,14,61,1
0.045454545454546746,3956,15,61,1
0.04772727272727195,3957,0,61,1
0.004545454545450411,3957,1,61,1
0.10000000000000853,3957,2,61,1
0.05909090909091219,3957,3,61,1
0.013636363636365445,3957,4,61,1
0.04772727272727195,3957,5,61,1
0.09999999999999432,3957,6,61,1
0.04772727272727195,3957,7,61,1
0.045454545454546746,3957,8,61,1
0.0022727272727252057,3957,9,61,1
0.09999999999999432,3957,10,61,1
0.04772727272727195,3957,11,61,1
0.09999999999999432,3957,12,61,1
0.09999999999999432,3957,13,61,1
0.09999999999999432,3957,14,61,1
0.06818181818181301,3957,15,61,1
0.03636363636363171,3958,0,61,1
0.0022727272727394165,3958,1,61,1
0.01590909090909065,3958,2,61,1
0.09999999999999432,3958,3,61,1
0.03636363636363171,3958,4,61,1
0.004545454545450411,3958,5,61,1
0.09999999999999432,3958,6,61,1
0.045454545454546746,3958,7,61,1
0.01590909090909065,3958,8,61,1
0.025000000000005684,3958,9,61,1
0.056818181818186986,3958,10,61,1
0.03636363636363171,3958,11,61,1
0.045454545454532536,3958,12,61,1
0.10000000000000853,3958,13,61,1
0.05909090909091219,3958,14,61,1
0.004545454545450411,3958,15,61,1
0.013636363636351234,3959,0,61,1
0.10000000000000853,3959,1,61,1
0.09999999999999432,3959,2,61,1
0.056818181818186986,3959,3,61,1
0.013636363636365445,3959,4,61,1
0.004545454545464622,3959,5,61,1
0.03636363636363171,3959,6,61,1
0.0022727272727252057,3959,7,61,1
0.004545454545450411,3959,8,61,1
0.03636363636363171,3959,9,61,1
0.056818181818172775,3959,10,61,1
0.013636363636365445,3959,11,61,1
0.025000000000005684,3959,12,61,1
0.05909090909091219,3959,13,61,1
0.004545454545464622,3959,14,61,1
0.0022727272727252057,3959,15,61,1
0.036363636363645924,3960,0,61,1
0.09999999999999432,3960,1,61,1
0.03636363636363171,3960,2,61,1
0.0022727272727252057,3960,3,61,1
0.004545454545450411,3960,4,61,1
0.03636363636363171,3960,5,61,1
0.10000000000000853,3960,6,61,1
0.06818181818182723,3960,7,61,1
0.013636363636365445,3960,8,61,1
0.04772727272727195,3960,9,61,1
0.045454545454532536,3960,10,61,1
0.025000000000005684,3960,11,61,1
0.05909090909091219,3960,12,61,1
0.03409090909090651,3960,13,61,1
0.05909090909091219,3960,14,61,1
0.10000000000000853,3960,15,61,1
0.06818181818181301,3961,0,61,1
0.10000000000000853,3961,1,61,1
0.0022727272727252057,3961,2,61,1
0.06818181818181301,3961,3,61,1
0.024999999999991473,3961,4,61,1
0.10000000000000853,3961,5,61,1
0.10000000000000853,3961,6,61,1
0.036363636363645924,3961,7,61,1
0.04772727272727195,3961,8,61,1
0.045454545454546746,3961,9,61,1
0.10000000000000853,3961,10,61,1
0.10000000000000853,3961,11,61,1
0.056818181818186986,3961,12,61,1
0.013636363636365445,3961,13,61,1
0.09999999999999432,3961,14,61,1
0.10000000000000853,3961,15,61,1
0.09999999999999432,3962,0,61,1
0.056818181818172775,3962,1,61,1
0.024999999999991473,3962,2,61,1
0.004545454545450411,3962,3,61,1
0.024999999999991473,3962,4,61,1
0.03636363636363171,3962,5,61,1
0.056818181818186986,3962,6,61,1
0.03636363636363171,3962,7,61,1
0.004545454545450411,3962,8,61,1
0.025000000000005684,3962,9,61,1
0.025000000000005684,3962,10,61,1
0.09999999999999432,3962,11,61,1
0.024999999999991473,3962,12,61,1
0.09999999999999432,3962,13,61,1
0.056818181818172775,3962,14,61,1
0.024999999999991473,3962,15,61,1
0.03636363636363171,3963,0,61,1
0.013636363636365445,3963,1,61,1
0.10000000000000853,3963,2,61,1
0.03636363636363171,3963,3,61,1
0.004545454545450411,3963,4,61,1
0.09999999999999432,3963,5,61,1
0.04772727272727195,3963,6,61,1
0.013636363636351234,3963,7,61,1
0.01590909090909065,3963,8,61,1
0.056818181818172775,3963,9,61,1
0.09999999999999432,3963,10,61,1
0.03636363636363171,3963,11,61,1
0.056818181818172775,3963,12,61,1
0.09999999999999432,3963,13,61,1
0.045454545454546746,3963,14,61,1
0.004545454545464622,3963,15,61,1
0.056818181818186986,3964,0,61,1
0.09999999999999432,3964,1,61,1
0.09999999999999432,3964,2,61,1
0.05909090909091219,3964,3,61,1
0.013636363636365445,3964,4,61,1
0.056818181818172775,3964,5,61,1
0.025000000000005684,3964,6,61,1
0.09999999999999432,3964,7,61,1
0.0022727272727252057,3964,8,61,1
0.09999999999999432,3964,9,61,1
0.06818181818181301,3964,10,61,1
0.0022727272727252057,3964,11,61,1
0.04772727272727195,3964,12,61,1
0.01590909090909065,3964,13,61,1
0.004545454545464622,3964,14,61,1
0.004545454545464622,3964,15,61,1
0.06590909090908781,3965,0,61,1
0.0022727272727252057,3965,1,61,1
0.09999999999999432,3965,2,61,1
0.09999999999999432,3965,3,61,1
0.06590909090908781,3965,4,61,1
0.03409090909090651,3965,5,61,1
0.01590909090909065,3965,6,61,1
0.004545454545464622,3965,7,61,1
0.025000000000005684,3965,8,61,1
0.01590909090909065,3965,9,61,1
0.01590909090909065,3965,10,61,1
0.024999999999991473,3965,11,61,1
0.004545454545450411,3965,12,61,1
0.09999999999999432,3965,13,61,1
0.056818181818172775,3965,14,61,1
0.09999999999999432,3965,15,61,1
0.01590909090909065,3966,0,61,1
0.09999999999999432,3966,1,61,1
0.09999999999999432,3966,2,61,1
0.056818181818186986,3966,3,61,1
0.004545454545450411,3966,4,61,1
0.013636363636365445,3966,5,61,1
0.09999999999999432,3966,6,61,1
0.09999999999999432,3966,7,61,1
0.03636363636363171,3966,8,61,1
0.09999999999999432,3966,9,61,1
0.06818181818181301,3966,10,61,1
0.024999999999991473,3966,11,61,1
0.004545454545450411,3966,12,61,1
0.0022727272727252057,3966,13,61,1
0.025000000000005684,3966,14,61,1
0.09999999999999432,3966,15,61,1
0.06818181818181301,3967,0,61,1
0.03409090909090651,3967,1,61,1
0.025000000000005684,3967,2,61,1
0.036363636363645924,3967,3,61,1
0.045454545454546746,3967,4,61,1
0.09999999999999432,3967,5,61,1
0.024999999999991473,3967,6,61,1
0.05909090909091219,3967,7,61,1
0.03409090909092072,3967,8,61,1
0.04772727272727195,3967,9,61,1
0.09999999999999432,3967,10,61,1
0.0022727272727252057,3967,11,61,1
0.09999999999999432,3967,12,61,1
0.045454545454546746,3967,13,61,1
0.09999999999999432,3967,14,61,1
0.09999999999999432,3967,15,61,1
0.056818181818172775,3968,0,61,1
0.01590909090909065,3968,1,61,1
0.01590909090909065,3968,2,61,1
0.025000000000005684,3968,3,61,1
0.024999999999991473,3968,4,61,1
0.03636363636363171,3968,5,61,1
0.09999999999999432,3968,6,61,1
0.03636363636363171,3968,7,61,1
0.013636363636365445,3968,8,61,1
0.01590909090909065,3968,9,61,1
0.09999999999999432,3968,10,61,1
0.06818181818181301,3968,11,61,1
0.01590909090909065,3968,12,61,1
0.056818181818186986,3968,13,61,1
0.09999999999999432,3968,14,61,1
0.09999999999999432,3968,15,61,1
0.10000000000000853,3969,0,61,1
0.04772727272727195,3969,1,61,1
0.03636363636363171,3969,2,61,1
0.10000000000000853,3969,3,61,1
0.045454545454546746,3969,4,61,1
0.02727272727271668,3969,5,61,1
0.09999999999999432,3969,6,61,1
0.03636363636363171,3969,7,61,1
0.045454545454532536,3969,8,61,1
0.004545454545450411,3969,9,61,1
0.09999999999999432,3969,10,61,1
0.024999999999991473,3969,11,61,1
0.04772727272727195,3969,12,61,1
0.03636363636363171,3969,13,61,1
0.024999999999991473,3969,14,61,1
0.004545454545450411,3969,15,61,1
0.045454545454546746,3970,0,61,1
0.036363636363645924,3970,1,61,1
0.025000000000005684,3970,2,61,1
0.06818181818182723,3970,3,61,1
0.004545454545464622,3970,4,61,1
0.036363636363645924,3970,5,61,1
0.03409090909090651,3970,6,61,1
0.10000000000000853,3970,7,61,1
0.10000000000000853,3970,8,61,1
0.10000000000000853,3970,9,61,1
0.05909090909091219,3970,10,61,1
0.09999999999999432,3970,11,61,1
0.024999999999991473,3970,12,61,1
0.06818181818181301,3970,13,61,1
0.025000000000005684,3970,14,61,1
0.09999999999999432,3970,15,61,1
0.10000000000000853,3971,0,61,1
0.10000000000000853,3971,1,61,1
0.025000000000005684,3971,2,61,1
0.10000000000000853,3971,3,61,1
0.036363636363645924,3971,4,61,1
0.056818181818186986,3971,5,61,1
0.09999999999999432,3971,6,61,1
0.045454545454546746,3971,7,61,1
0.09999999999999432,3971,8,61,1
0.01590909090909065,3971,9,61,1
0.06818181818182723,3971,10,61,1
0.013636363636365445,3971,11,61,1
0.10000000000000853,3971,12,61,1
0.056818181818186986,3971,13,61,1
0.024999999999991473,3971,14,61,1
0.056818181818186986,3971,15,61,1
0.09999999999999432,3972,0,61,1
0.024999999999991473,3972,1,61,1
0.06818181818181301,3972,2,61,1
0.013636363636365445,3972,3,61,1
0.04772727272727195,3972,4,61,1
0.045454545454546746,3972,5,61,1
0.004545454545450411,3972,6,61,1
0.004545454545450411,3972,7,61,1
0.004545454545464622,3972,8,61,1
0.056818181818186986,3972,9,61,1
0.03636363636363171,3972,10,61,1
0.056818181818172775,3972,11,61,1
0.024999999999991473,3972,12,61,1
0.09999999999999432,3972,13,61,1
0.06818181818181301,3972,14,61,1
0.10000000000000853,3972,15,61,1
0.05909090909091219,3973,0,61,1
0.025000000000005684,3973,1,61,1
0.01590909090909065,3973,2,61,1
0.03636363636363171,3973,3,61,1
0.09999999999999432,3973,4,61,1
0.05909090909091219,3973,5,61,1
0.013636363636365445,3973,6,61,1
0.06818181818181301,3973,7,61,1
0.024999999999991473,3973,8,61,1
0.004545454545450411,3973,9,61,1
0.09999999999999432,3973,10,61,1
0.004545454545450411,3973,11,61,1
0.056818181818172775,3973,12,61,1
0.10000000000000853,3973,13,61,1
0.036363636363645924,3973,14,61,1
0.09999999999999432,3973,15,61,1
0.045454545454546746,3974,0,61,1
0.04772727272727195,3974,1,61,1
0.09999999999999432,3974,2,61,1
0.03636363636363171,3974,3,61,1
0.10000000000000853,3974,4,61,1
0.04772727272727195,3974,5,61,1
0.09999999999999432,3974,6,61,1
0.013636363636365445,3974,7,61,1
0.06818181818182723,3974,8,61,1
0.036363636363645924,3974,9,61,1
0.025000000000005684,3974,10,61,1
0.04772727272727195,3974,11,61,1
0.013636363636365445,3974,12,61,1
0.004545454545450411,3974,13,61,1
0.04772727272727195,3974,14,61,1
0.045454545454546746,3974,15,61,1
0.09999999999999432,3975,0,61,1
0.025000000000005684,3975,1,61,1
0.09999999999999432,3975,2,61,1
0.045454545454546746,3975,3,61,1
0.004545454545450411,3975,4,61,1
0.09999999999999432,3975,5,61,1
0.06818181818181301,3975,6,61,1
0.0022727272727252057,3975,7,61,1
0.09999999999999432,3975,8,61,1
0.09999999999999432,3975,9,61,1
0.03636363636363171,3975,10,61,1
0.09999999999999432,3975,11,61,1
0.013636363636365445,3975,12,61,1
0.056818181818186986,3975,13,61,1
0.004545454545450411,3975,14,61,1
0.01590909090909065,3975,15,61,1
0.025000000000005684,3976,0,61,1
0.036363636363645924,3976,1,61,1
0.004545454545464622,3976,2,61,1
0.025000000000005684,3976,3,61,1
0.10000000000000853,3976,4,61,1
0.025000000000005684,3976,5,61,1
0.036363636363645924,3976,6,61,1
0.09999999999999432,3976,7,61,1
0.013636363636365445,3976,8,61,1
0.04772727272727195,3976,9,61,1
0.03636363636363171,3976,10,61,1
0.09999999999999432,3976,11,61,1
0.01590909090909065,3976,12,61,1
0.056818181818186986,3976,13,61,1
0.013636363636365445,3976,14,61,1
0.09999999999999432,3976,15,61,1
0.06818181818181301,3977,0,61,1
0.024999999999991473,3977,1,61,1
0.05909090909091219,3977,2,61,1
0.01590909090909065,3977,3,61,1
0.025000000000005684,3977,4,61,1
0.09999999999999432,3977,5,61,1
0.10000000000000853,3977,6,61,1
0.045454545454546746,3977,7,61,1
0.0022727272727394165,3977,8,61,1
0.10000000000000853,3977,9,61,1
0.06818181818182723,3977,10,61,1
0.01590909090909065,3977,11,61,1
0.045454545454546746,3977,12,61,1
0.0022727272727252057,3977,13,61,1
0.03636363636363171,3977,14,61,1
0.05909090909089798,3977,15,61,1
0.024999999999991473,3978,0,61,1
0.004545454545450411,3978,1,61,1
0.09999999999999432,3978,2,61,1
0.04772727272727195,3978,3,61,1
0.045454545454532536,3978,4,61,1
0.09999999999999432,3978,5,61,1
0.056818181818186986,3978,6,61,1
0.10000000000000853,3978,7,61,1
0.06818181818182723,3978,8,61,1
0.10000000000000853,3978,9,61,1
0.056818181818186986,3978,10,61,1
0.02727272727271668,3978,11,61,1
0.045454545454546746,3978,12,61,1
0.10000000000000853,3978,13,61,1
0.004545454545464622,3978,14,61,1
0.025000000000005684,3978,15,61,1
0.036363636363645924,3979,0,61,1
0.10000000000000853,3979,1,61,1
0.036363636363645924,3979,2,61,1
0.09999999999999432,3979,3,61,1
0.09999999999999432,3979,4,61,1
0.09999999999999432,3979,5,61,1
0.03409090909090651,3979,6,61,1
0.10000000000000853,3979,7,61,1
0.10000000000000853,3979,8,61,1
0.09999999999999432,3979,9,61,1
0.06818181818181301,3979,10,61,1
0.025000000000005684,3979,11,61,1
0.10000000000000853,3979,12,61,1
0.10000000000000853,3979,13,61,1
0.06818181818181301,3979,14,61,1
0.025000000000005684,3979,15,61,1
0.004545454545450411,3980,0,61,1
0.03409090909090651,3980,1,61,1
0.0022727272727252057,3980,2,61,1
0.09999999999999432,3980,3,61,1
0.056818181818172775,3980,4,61,1
0.10000000000000853,3980,5,61,1
0.0022727272727394165,3980,6,61,1
0.09999999999999432,3980,7,61,1
0.056818181818186986,3980,8,61,1
0.013636363636365445,3980,9,61,1
0.004545454545450411,3980,10,61,1
0.09999999999999432,3980,11,61,1
0.056818181818186986,3980,12,61,1
0.025000000000005684,3980,13,61,1
0.013636363636365445,3980,14,61,1
0.09999999999999432,3980,15,61,1
0.10000000000000853,3981,0,61,1
0.06818181818182723,3981,1,61,1
0.01590909090909065,3981,2,61,1
0.03636363636363171,3981,3,61,1
0.10000000000000853,3981,4,61,1
0.045454545454546746,3981,5,61,1
0.004545454545450411,3981,6,61,1
0.09999999999999432,3981,7,61,1
0.09999999999999432,3981,8,61,1
0.03636363636363171,3981,9,61,1
0.024999999999991473,3981,10,61,1
0.025000000000005684,3981,11,61,1
0.04772727272727195,3981,12,61,1
0.004545454545450411,3981,13,61,1
0.013636363636365445,3981,14,61,1
0.036363636363645924,3981,15,61,1
0.013636363636365445,3982,0,61,1
0.05909090909089798,3982,1,61,1
0.10000000000000853,3982,2,61,1
0.045454545454546746,3982,3,61,1
0.03636363636363171,3982,4,61,1
0.056818181818172775,3982,5,61,1
0.024999999999991473,3982,6,61,1
0.03636363636363171,3982,7,61,1
0.09999999999999432,3982,8,61,1
0.013636363636365445,3982,9,61,1
0.036363636363645924,3982,10,61,1
0.036363636363645924,3982,11,61,1
0.09999999999999432,3982,12,61,1
0.02727272727273089,3982,13,61,1
0.09999999999999432,3982,14,61,1
0.03636363636363171,3982,15,61,1
0.025000000000005684,3983,0,61,1
0.05909090909091219,3983,1,61,1
0.09999999999999432,3983,2,61,1
0.03636363636363171,3983,3,61,1
0.10000000000000853,3983,4,61,1
0.04772727272727195,3983,5,61,1
0.045454545454546746,3983,6,61,1
0.004545454545450411,3983,7,61,1
0.056818181818186986,3983,8,61,1
0.03636363636363171,3983,9,61,1
0.024999999999991473,3983,10,61,1
0.03636363636363171,3983,11,61,1
0.056818181818172775,3983,12,61,1
0.024999999999991473,3983,13,61,1
0.004545454545450411,3983,14,61,1
0.056818181818186986,3983,15,61,1
0.09999999999999432,3984,0,61,1
0.056818181818172775,3984,1,61,1
0.024999999999991473,3984,2,61,1
0.025000000000005684,3984,3,61,1
0.013636363636365445,3984,4,61,1
0.09999999999999432,3984,5,61,1
0.09999999999999432,3984,6,61,1
0.056818181818172775,3984,7,61,1
0.09999999999999432,3984,8,61,1
0.06818181818181301,3984,9,61,1
0.024999999999991473,3984,10,61,1
0.09999999999999432,3984,11,61,1
0.10000000000000853,3984,12,61,1
0.03636363636363171,3984,13,61,1
0.004545454545450411,3984,14,61,1
0.025000000000005684,3984,15,61,1
0.056818181818186986,3985,0,61,1
0.025000000000005684,3985,1,61,1
0.056818181818172775,3985,2,61,1
0.01590909090909065,3985,3,61,1
0.01590909090909065,3985,4,61,1
0.025000000000005684,3985,5,61,1
0.024999999999991473,3985,6,61,1
0.013636363636365445,3985,7,61,1
0.09999999999999432,3985,8,61,1
0.024999999999991473,3985,9,61,1
0.056818181818172775,3985,10,61,1
0.013636363636365445,3985,11,61,1
0.01590909090909065,3985,12,61,1
0.03409090909090651,3985,13,61,1
0.02727272727273089,3985,14,61,1
0.06590909090908781,3985,15,61,1
0.10000000000000853,3986,0,61,1
0.10000000000000853,3986,1,61,1
0.06818181818182723,3986,2,61,1
0.025000000000005684,3986,3,61,1
0.013636363636365445,3986,4,61,1
0.024999999999991473,3986,5,61,1
0.05909090909091219,3986,6,61,1
0.025000000000005684,3986,7,61,1
0.056818181818172775,3986,8,61,1
0.013636363636365445,3986,9,61,1
0.025000000000005684,3986,10,61,1
0.05909090909089798,3986,11,61,1
0.01590909090909065,3986,12,61,1
0.024999999999991473,3986,13,61,1
0.025000000000005684,3986,14,61,1
0.013636363636365445,3986,15,61,1
0.10000000000000853,3987,0,61,1
0.056818181818186986,3987,1,61,1
0.10000000000000853,3987,2,61,1
0.025000000000005684,3987,3,61,1
0.056818181818172775,3987,4,61,1
0.10000000000000853,3987,5,61,1
0.05909090909091219,3987,6,61,1
0.01590909090909065,3987,7,61,1
0.024999999999991473,3987,8,61,1
0.09999999999999432,3987,9,61,1
0.05909090909089798,3987,10,61,1
0.025000000000005684,3987,11,61,1
0.056818181818186986,3987,12,61,1
0.013636363636365445,3987,13,61,1
0.01590909090909065,3987,14,61,1
0.025000000000005684,3987,15,61,1
0.056818181818186986,3988,0,61,1
0.09999999999999432,3988,1,61,1
0.056818181818186986,3988,2,61,1
0.01590909090909065,3988,3,61,1
0.01590909090909065,3988,4,61,1
0.025000000000005684,3988,5,61,1
0.024999999999991473,3988,6,61,1
0.09999999999999432,3988,7,61,1
0.056818181818172775,3988,8,61,1
0.10000000000000853,3988,9,61,1
0.06818181818182723,3988,10,61,1
0.025000000000005684,3988,11,61,1
0.10000000000000853,3988,12,61,1
0.056818181818186986,3988,13,61,1
0.01590909090909065,3988,14,61,1
0.01590909090909065,3988,15,61,1
0.025000000000005684,3989,0,61,1
0.025000000000005684,3989,1,61,1
0.025000000000005684,3989,2,61,1
0.024999999999991473,3989,3,61,1
0.013636363636365445,3989,4,61,1
0.01590909090909065,3989,5,61,1
0.01590909090909065,3989,6,61,1
0.013636363636365445,3989,7,61,1
0.024999999999991473,3989,8,61,1
0.10000000000000853,3989,9,61,1
0.056818181818186986,3989,10,61,1
0.09999999999999432,3989,11,61,1
0.09999999999999432,3989,12,61,1
0.10000000000000853,3989,13,61,1
0.056818181818186986,3989,14,61,1
0.013636363636365445,3989,15,61,1
0.013636363636351234,3990,0,61,1
0.02727272727273089,3990,1,61,1
0.056818181818186986,3990,2,61,1
0.025000000000005684,3990,3,61,1
0.024999999999991473,3990,4,61,1
0.024999999999991473,3990,5,61,1
0.10000000000000853,3990,6,61,1
0.01590909090910486,3990,7,61,1
0.013636363636365445,3990,8,61,1
0.06818181818181301,3990,9,61,1
0.024999999999991473,3990,10,61,1
0.01590909090909065,3990,11,61,1
0.09999999999999432,3990,12,61,1
0.056818181818172775,3990,13,61,1
0.01590909090909065,3990,14,61,1
0.01590909090909065,3990,15,61,1
0.013636363636365445,3991,0,61,1
0.025000000000005684,3991,1,61,1
0.024999999999991473,3991,2,61,1
0.024999999999991473,3991,3,61,1
0.024999999999991473,3991,4,61,1
0.09999999999999432,3991,5,61,1
0.013636363636365445,3991,6,61,1
0.056818181818186986,3991,7,61,1
0.01590909090909065,3991,8,61,1
0.024999999999991473,3991,9,61,1
0.056818181818186986,3991,10,61,1
0.013636363636365445,3991,11,61,1
0.09999999999999432,3991,12,61,1
0.01590909090909065,3991,13,61,1
0.09999999999999432,3991,14,61,1
0.09999999999999432,3991,15,61,1
0.06818181818181301,3992,0,61,1
0.025000000000005684,3992,1,61,1
0.01590909090909065,3992,2,61,1
0.025000000000005684,3992,3,61,1
0.09999999999999432,3992,4,61,1
0.01590909090907644,3992,5,61,1
0.056818181818186986,3992,6,61,1
0.025000000000005684,3992,7,61,1
0.013636363636351234,3992,8,61,1
0.06818181818181301,3992,9,61,1
0.01590909090907644,3992,10,61,1
0.013636363636351234,3992,11,61,1
0.025000000000005684,3992,12,61,1
0.02727272727273089,3992,13,61,1
0.013636363636351234,3992,14,61,1
0.013636363636351234,3992,15,61,1
0.025000000000005684,3993,0,61,1
0.025000000000005684,3993,1,61,1
0.05909090909091219,3993,2,61,1
0.01590909090910486,3993,3,61,1
0.013636363636379656,3993,4,61,1
0.01590909090907644,3993,5,61,1
0.056818181818186986,3993,6,61,1
0.013636363636351234,3993,7,61,1
0.025000000000005684,3993,8,61,1
0.05909090909091219,3993,9,61,1
0.01590909090907644,3993,10,61,1
0.09999999999999432,3993,11,61,1
0.056818181818158564,3993,12,61,1
0.09999999999999432,3993,13,61,1
0.06818181818181301,3993,14,61,1
0.025000000000005684,3993,15,61,1
0.01590909090910486,3994,0,61,1
0.09999999999999432,3994,1,61,1
0.09999999999999432,3994,2,61,1
0.03636363636363171,3994,3,61,1
0.056818181818186986,3994,4,61,1
0.03636363636363171,3994,5,61,1
0.09999999999999432,3994,6,61,1
0.06818181818181301,3994,7,61,1
0.024999999999977263,3994,8,61,1
0.013636363636351234,3994,9,61,1
0.025000000000005684,3994,10,61,1
0.025000000000005684,3994,11,61,1
0.025000000000005684,3994,12,61,1
0.10000000000002274,3994,13,61,1
0.09999999999999432,3994,14,61,1
0.056818181818158564,3994,15,61,1
0.01590909090907644,3995,0,61,1
0.01590909090910486,3995,1,61,1
0.025000000000005684,3995,2,61,1
0.013636363636379656,3995,3,61,1
0.05909090909091219,3995,4,61,1
0.024999999999977263,3995,5,61,1
0.01590909090910486,3995,6,61,1
0.06818181818181301,3995,7,61,1
0.09999999999999432,3995,8,61,1
0.056818181818186986,3995,9,61,1
0.013636363636379656,3995,10,61,1
0.09999999999999432,3995,11,61,1
0.05909090909088377,3995,12,61,1
0.01590909090907644,3995,13,61,1
0.025000000000005684,3995,14,61,1
0.056818181818186986,3995,15,61,1
0.025000000000005684,3996,0,61,1
0.025000000000005684,3996,1,61,1
0.01590909090910486,3996,2,61,1
0.013636363636379656,3996,3,61,1
0.06818181818181301,3996,4,61,1
0.024999999999977263,3996,5,61,1
0.01590909090907644,3996,6,61,1
0.09999999999999432,3996,7,61,1
0.013636363636379656,3996,8,61,1
0.025000000000005684,3996,9,61,1
0.05909090909091219,3996,10,61,1
0.024999999999977263,3996,11,61,1
0.056818181818186986,3996,12,61,1
0.013636363636379656,3996,13,61,1
0.01590909090907644,3996,14,61,1
0.025000000000005684,3996,15,61,1
0.013636363636351234,3997,0,61,1
0.056818181818186986,3997,1,61,1
0.025000000000005684,3997,2,61,1
0.02727272727273089,3997,3,61,1
0.004545454545450411,3997,4,61,1
0.024999999999977263,3997,5,61,1
0.056818181818186986,3997,6,61,1
0.004545454545450411,3997,7,61,1
0.10000000000002274,3997,8,61,1
0.06818181818184144,3997,9,61,1
0.03636363636363171,3997,10,61,1
0.004545454545450411,3997,11,61,1
0.004545454545450411,3997,12,61,1
0.056818181818186986,3997,13,61,1
0.013636363636379656,3997,14,61,1
0.025000000000005684,3997,15,61,1
0.09999999999999432,3998,0,61,1
0.05909090909091219,3998,1,61,1
0.01590909090907644,3998,2,61,1
0.025000000000005684,3998,3,61,1
0.025000000000005684,3998,4,61,1
0.013636363636351234,3998,5,61,1
0.05909090909091219,3998,6,61,1
0.01590909090907644,3998,7,61,1
0.025000000000005684,3998,8,61,1
0.056818181818186986,3998,9,61,1
0.01590909090907644,3998,10,61,1
0.025000000000005684,3998,11,61,1
0.056818181818158564,3998,12,61,1
0.013636363636351234,3998,13,61,1
0.01590909090907644,3998,14,61,1
0.025000000000005684,3998,15,61,1
0.06818181818181301,3999,0,61,1
0.025000000000005684,3999,1,61,1
0.025000000000005684,3999,2,61,1
0.056818181818186986,3999,3,61,1
0.013636363636351234,3999,4,61,1
0.01590909090907644,3999,5,61,1
0.01590909090910486,3999,6,61,1
0.025000000000005684,3999,7,61,1
0.056818181818186986,3999,8,61,1
0.025000000000005684,3999,9,61,1
0.01590909090907644,3999,10,61,1
0.056818181818186986,3999,11,61,1
0.024999999999977263,3999,12,61,1
0.056818181818186986,3999,13,61,1
0.09999999999999432,3999,14,61,1
0.06818181818181301,3999,15,61,1
0.025000000000005684,4000,0,61,1
0.025000000000005684,4000,1,61,1
0.056818181818186986,4000,2,61,1
0.01590909090907644,4000,3,61,1
0.06818181818181301,4000,4,61,1
0.025000000000005684,4000,5,61,1
0.013636363636351234,4000,6,61,1
0.01590909090910486,4000,7,61,1
0.06818181818184144,4000,8,61,1
0.025000000000005684,4000,9,61,1
0.013636363636351234,4000,10,61,1
0.06818181818181301,4000,11,61,1
0.02727272727273089,4000,12,61,1
0.025000000000005684,4000,13,61,1
0.025000000000005684,4000,14,61,1
0.01590909090907644,4000,15,61,1
0.013636363636351234,4001,0,61,1
0.013636363636379656,4001,1,61,1
0.025000000000005684,4001,2,61,1
0.09999999999999432,4001,3,61,1
0.056818181818186986,4001,4,61,1
0.01590909090907644,4001,5,61,1
0.024999999999977263,4001,6,61,1
0.01590909090910486,4001,7,61,1
0.09999999999999432,4001,8,61,1
0.056818181818186986,4001,9,61,1
0.024999999999977263,4001,10,61,1
0.04772727272728616,4001,11,61,1
0.10000000000002274,4001,12,61,1
0.036363636363660135,4001,13,61,1
0.004545454545450411,4001,14,61,1
0.04545454545456096,4001,15,61,1
0.004545454545450411,4002,0,61,1
0.01590909090907644,4002,1,61,1
0.025000000000005684,4002,2,61,1
0.056818181818186986,4002,3,61,1
0.01590909090910486,4002,4,61,1
0.06818181818184144,4002,5,61,1
0.025000000000005684,4002,6,61,1
0.013636363636379656,4002,7,61,1
0.025000000000005684,4002,8,61,1
0.09999999999999432,4002,9,61,1
0.01590909090907644,4002,10,61,1
0.06818181818181301,4002,11,61,1
0.025000000000005684,4002,12,61,1
0.01590909090907644,4002,13,61,1
0.025000000000005684,4002,14,61,1
0.013636363636351234,4002,15,61,1
0.06818181818181301,4003,0,61,1
0.025000000000005684,4003,1,61,1
0.01590909090907644,4003,2,61,1
0.056818181818186986,4003,3,61,1
0.025000000000005684,4003,4,61,1
0.025000000000005684,4003,5,61,1
0.056818181818186986,4003,6,61,1
0.01590909090907644,4003,7,61,1
0.01590909090910486,4003,8,61,1
0.013636363636351234,4003,9,61,1
0.024999999999977263,4003,10,61,1
0.01590909090910486,4003,11,61,1
0.06590909090908781,4003,12,61,1
0.01590909090910486,4003,13,61,1
0.056818181818186986,4003,14,61,1
0.013636363636351234,4003,15,61,1
0.025000000000005684,4004,0,61,1
0.025000000000005684,4004,1,61,1
0.01590909090907644,4004,2,61,1
0.02727272727270247,4004,3,61,1
0.025000000000005684,4004,4,61,1
0.013636363636379656,4004,5,61,1
0.013636363636351234,4004,6,61,1
0.004545454545450411,4004,7,61,1
0.04772727272728616,4004,8,61,1
0.09999999999999432,4004,9,61,1
0.03636363636363171,4004,10,61,1
0.004545454545450411,4004,11,61,1
0.024999999999977263,4004,12,61,1
0.056818181818186986,4004,13,61,1
0.09999999999999432,4004,14,61,1
0.05909090909091219,4004,15,61,1
0.01590909090907644,4005,0,61,1
0.024999999999977263,4005,1,61,1
0.025000000000005684,4005,2,61,1
0.013636363636379656,4005,3,61,1
0.024999999999977263,4005,4,61,1
0.01590909090910486,4005,5,61,1
0.06818181818184144,4005,6,61,1
0.09999999999999432,4005,7,61,1
0.056818181818158564,4005,8,61,1
0.09999999999999432,4005,9,61,1
0.09999999999999432,4005,10,61,1
0.0022727272727252057,4005,11,61,1
0.09999999999999432,4005,12,61,1
0.03636363636363171,4005,13,61,1
0.004545454545450411,4005,14,61,1
0.09999999999999432,4005,15,61,1
0.09999999999999432,4006,0,61,1
0.013636363636351234,4006,1,61,1
0.05909090909091219,4006,2,61,1
0.01590909090907644,4006,3,61,1
0.013636363636379656,4006,4,61,1
0.025000000000005684,4006,5,61,1
0.025000000000005684,4006,6,61,1
0.01590909090907644,4006,7,61,1
0.025000000000005684,4006,8,61,1
0.056818181818158564,4006,9,61,1
0.025000000000005684,4006,10,61,1
0.056818181818186986,4006,11,61,1
0.01590909090907644,4006,12,61,1
0.025000000000005684,4006,13,61,1
0.025000000000005684,4006,14,61,1
0.01590909090910486,4006,15,61,1
0.013636363636351234,4007,0,61,1
0.013636363636379656,4007,1,61,1
0.01590909090907644,4007,2,61,1
0.024999999999977263,4007,3,61,1
0.025000000000005684,4007,4,61,1
0.025000000000005684,4007,5,61,1
0.04545454545456096,4007,6,61,1
0.013636363636379656,4007,7,61,1
0.02727272727273089,4007,8,61,1
0.01590909090907644,4007,9,61,1
0.09999999999999432,4007,10,61,1
0.013636363636351234,4007,11,61,1
0.025000000000005684,4007,12,61,1
0.05909090909091219,4007,13,61,1
0.004545454545478833,4007,14,61,1
0.09999999999999432,4007,15,61,1
0.056818181818186986,4008,0,61,1
0.09999999999999432,4008,1,61,1
0.05909090909091219,4008,2,61,1
0.01590909090907644,4008,3,61,1
0.025000000000005684,4008,4,61,1
0.056818181818158564,4008,5,61,1
0.024999999999977263,4008,6,61,1
0.01590909090910486,4008,7,61,1
0.056818181818158564,4008,8,61,1
0.10000000000002274,4008,9,61,1
0.056818181818186986,4008,10,61,1
0.01590909090910486,4008,11,61,1
0.01590909090910486,4008,12,61,1
0.024999999999977263,4008,13,61,1
0.025000000000005684,4008,14,61,1
0.013636363636379656,4008,15,61,1
0.01590909090907644,4009,0,61,1
0.024999999999977263,4009,1,61,1
0.01590909090910486,4009,2,61,1
0.06818181818184144,4009,3,61,1
0.013636363636379656,4009,4,61,1
0.013636363636379656,4009,5,61,1
0.004545454545450411,4009,6,61,1
0.09999999999999432,4009,7,61,1
0.056818181818186986,4009,8,61,1
0.013636363636379656,4009,9,61,1
0.025000000000005684,4009,10,61,1
0.09999999999999432,4009,11,61,1
0.056818181818186986,4009,12,61,1
0.013636363636379656,4009,13,61,1
0.025000000000005684,4009,14,61,1
0.10000000000002274,4009,15,61,1
0.09999999999999432,4010,0,61,1
0.056818181818158564,4010,1,61,1
0.01590909090910486,4010,2,61,1
0.09999999999999432,4010,3,61,1
0.056818181818186986,4010,4,61,1
0.01590909090907644,4010,5,61,1
0.025000000000005684,4010,6,61,1
0.025000000000005684,4010,7,61,1
0.09999999999999432,4010,8,61,1
0.056818181818186986,4010,9,61,1
0.01590909090907644,4010,10,61,1
0.025000000000005684,4010,11,61,1
0.09999999999999432,4010,12,61,1
0.10000000000002274,4010,13,61,1
0.05909090909091219,4010,14,61,1
0.09999999999999432,4010,15,61,1
0.024999999999977263,4011,0,61,1
0.056818181818186986,4011,1,61,1
0.025000000000005684,4011,2,61,1
0.056818181818186986,4011,3,61,1
0.01590909090907644,4011,4,61,1
0.06818181818181301,4011,5,61,1
0.013636363636379656,4011,6,61,1
0.06818181818181301,4011,7,61,1
0.10000000000002274,4011,8,61,1
0.056818181818186986,4011,9,61,1
0.025000000000005684,4011,10,61,1
0.013636363636351234,4011,11,61,1
0.013636363636351234,4011,12,61,1
0.09999999999999432,4011,13,61,1
0.056818181818186986,4011,14,61,1
0.013636363636351234,4011,15,61,1
0.01590909090910486,4012,0,61,1
0.01590909090910486,4012,1,61,1
0.024999999999977263,4012,2,61,1
0.025000000000005684,4012,3,61,1
0.01590909090907644,4012,4,61,1
0.056818181818186986,4012,5,61,1
0.025000000000005684,4012,6,61,1
0.025000000000005684,4012,7,61,1
0.025000000000005684,4012,8,61,1
0.025000000000005684,4012,9,61,1
0.013636363636379656,4012,10,61,1
0.01590909090910486,4012,11,61,1
0.01590909090907644,4012,12,61,1
0.025000000000005684,4012,13,61,1
0.025000000000005684,4012,14,61,1
0.045454545454532536,4012,15,61,1
0.09999999999999432,4013,0,61,1
0.056818181818186986,4013,1,61,1
0.09999999999999432,4013,2,61,1
0.05909090909091219,4013,3,61,1
0.024999999999977263,4013,4,61,1
0.056818181818186986,4013,5,61,1
0.013636363636379656,4013,6,61,1
0.013636363636351234,4013,7,61,1
0.025000000000005684,4013,8,61,1
0.02727272727273089,4013,9,61,1
0.025000000000005684,4013,10,61,1
0.056818181818186986,4013,11,61,1
0.03636363636363171,4013,12,61,1
0.045454545454532536,4013,13,61,1
0.09999999999999432,4013,14,61,1
0.056818181818186986,4013,15,61,1
0.02727272727273089,4014,0,61,1
0.06590909090908781,4014,1,61,1
0.025000000000005684,4014,2,61,1
0.01590909090907644,4014,3,61,1
0.013636363636351234,4014,4,61,1
0.025000000000005684,4014,5,61,1
0.025000000000005684,4014,6,61,1
0.01590909090907644,4014,7,61,1
0.025000000000005684,4014,8,61,1
0.056818181818186986,4014,9,61,1
0.013636363636351234,4014,10,61,1
0.013636363636379656,4014,11,61,1
0.004545454545450411,4014,12,61,1
0.025000000000005684,4014,13,61,1
0.056818181818158564,4014,14,61,1
0.09999999999999432,4014,15,61,1
0.03636363636363171,4015,0,61,1
0.01590909090907644,4015,1,61,1
0.09999999999999432,4015,2,61,1
0.056818181818186986,4015,3,61,1
0.004545454545450411,4015,4,61,1
0.004545454545450411,4015,5,61,1
0.013636363636379656,4015,6,61,1
0.013636363636351234,4015,7,61,1
0.025000000000005684,4015,8,61,1
0.09999999999999432,4015,9,61,1
0.04772727272725774,4015,10,61,1
0.09999999999999432,4015,11,61,2
0.09999999999999432,4015,12,61,2
0.09999999999999432,4015,13,61,3
0.09999999999999432,4015,14,61,6
0.09999999999999432,4015,15,61,3
0.10000000000002274,4016,0,61,2
0.09999999999999432,4016,1,61,2
0.09999999999999432,4016,2,61,6
0.10000000000002274,4016,3,61,2
0.09999999999999432,4016,4,61,4
0.06818181818181301,4016,5,61,4
0.09999999999999432,4016,6,61,3
0.09999999999999432,4016,7,61,5
0.09999999999999432,4016,8,61,4
0.09999999999999432,4016,9,61,3
0.10000000000002274,4016,10,61,2
0.09999999999999432,4016,11,61,5
0.09999999999999432,4016,12,61,2
0.09999999999999432,4016,13,61,2
0.09999999999999432,4016,14,61,1
0.09999999999999432,4016,15,61,2
0.09999999999999432,4017,0,61,3
0.09999999999999432,4017,1,61,2
0.06818181818181301,4017,2,61,2
0.09999999999999432,4017,3,61,2
0.09999999999999432,4017,4,61,4
0.09999999999999432,4017,5,61,2
0.09999999999999432,4017,6,61,2
0.06818181818181301,4017,7,61,3
0.09999999999999432,4017,8,61,2
0.09999999999999432,4017,9,61,2
0.09999999999999432,4017,10,61,3
0.09999999999999432,4017,11,61,3
0.09999999999999432,4017,12,61,2
0.09999999999999432,4017,13,61,3
0.09999999999999432,4017,14,61,2
0.09999999999999432,4017,15,61,2
0.09999999999999432,4018,0,61,2
0.06818181818181301,4018,1,61,2
0.09999999999999432,4018,2,61,4
0.09999999999999432,4018,3,61,3
0.09999999999999432,4018,4,61,2
0.06818181818181301,4018,5,61,3
0.09999999999999432,4018,6,61,2
0.10000000000002274,4018,7,61,4
0.09999999999999432,4018,8,61,2
0.09999999999999432,4018,9,61,2
0.10000000000002274,4018,10,61,2
0.09999999999999432,4018,11,61,3
0.09999999999999432,4018,12,61,3
0.09999999999999432,4018,13,61,3
0.09999999999999432,4018,14,61,3
0.09999999999999432,4018,15,61,4
0.09999999999999432,4019,0,61,2
0.06818181818181301,4019,1,61,3
0.10000000000002274,4019,2,61,1
0.09999999999999432,4019,3,61,2
0.09999999999999432,4019,4,61,5
0.10000000000002274,4019,5,61,2
0.09999999999999432,4019,6,61,2
0.09999999999999432,4019,7,61,2
0.09999999999999432,4019,8,61,3
0.09999999999999432,4019,9,61,2
0.06818181818181301,4019,10,61,3
0.09999999999999432,4019,11,61,3
0.10000000000002274,4019,12,61,2
0.09999999999999432,4019,13,61,4
0.09999999999999432,4019,14,61,2
0.10000000000002274,4019,15,61,3
0.09999999999999432,4020,0,61,2
0.09999999999999432,4020,1,61,3
0.09999999999999432,4020,2,61,3
0.09999999999999432,4020,3,61,3
0.09999999999999432,4020,4,61,2
0.09999999999999432,4020,5,61,4
0.09999999999999432,4020,6,61,2
0.09999999999999432,4020,7,61,2
0.09999999999999432,4020,8,61,2
0.09999999999999432,4020,9,61,4
0.10000000000002274,4020,10,61,3
0.09999999999999432,4020,11,61,3
0.09999999999999432,4020,12,61,2
0.09999999999999432,4020,13,61,4
0.09999999999999432,4020,14,61,3
0.09999999999999432,4020,15,61,3
0.09999999999999432,4021,0,61,2
0.09999999999999432,4021,1,61,5
0.09999999999999432,4021,2,61,2
0.09999999999999432,4021,3,61,2
0.06818181818181301,4021,4,61,3
0.09999999999999432,4021,5,61,2
0.09999999999999432,4021,6,61,4
0.09999999999999432,4021,7,61,2
0.09999999999999432,4021,8,61,3
0.09999999999999432,4021,9,61,2
0.09999999999999432,4021,10,61,4
0.10000000000002274,4021,11,61,2
0.06818181818184144,4021,12,61,3
0.09999999999999432,4021,13,61,2
0.10000000000002274,4021,14,61,2
0.09999999999999432,4021,15,61,3
0.09999999999999432,4022,0,61,1
0.10000000000002274,4022,1,61,1
0.06590909090911623,4022,2,61,2
0.09999999999999432,4022,3,61,2
0.09999999999999432,4022,4,61,3
0.10000000000002274,4022,5,61,2
0.09999999999999432,4022,6,61,2
0.09999999999999432,4022,7,61,2
0.09999999999999432,4022,8,61,3
0.09999999999999432,4022,9,61,2
0.09999999999999432,4022,10,61,1
0.10000000000002274,4022,11,61,2
0.09999999999999432,4022,12,61,4
0.10000000000002274,4022,13,61,2
0.09999999999999432,4022,14,61,2
0.06818181818181301,4022,15,61,3
0.09999999999999432,4023,0,61,2
0.06590909090908781,4023,1,61,2
0.09999999999999432,4023,2,61,3
0.09999999999999432,4023,3,61,3
0.09999999999999432,4023,4,61,3
0.10000000000002274,4023,5,61,2
0.09999999999999432,4023,6,61,5
0.09999999999999432,4023,7,61,2
0.06818181818181301,4023,8,61,3
0.09999999999999432,4023,9,61,1
0.10000000000002274,4023,10,61,2
0.09999999999999432,4023,11,61,4
0.09999999999999432,4023,12,61,1
0.06818181818181301,4023,13,61,2
0.09999999999999432,4023,14,61,2
0.09999999999999432,4023,15,61,2
0.06818181818181301,4024,0,61,3
0.09999999999999432,4024,1,61,5
0.10000000000002274,4024,2,61,3
0.10000000000002274,4024,3,61,4
0.06818181818184144,4024,4,61,5
0.09999999999999432,4024,5,61,2
0.09999999999999432,4024,6,61,5
0.09999999999999432,4024,7,61,3
0.09999999999999432,4024,8,61,4
0.09999999999999432,4024,9,61,3
0.09999999999999432,4024,10,61,6
0.10000000000002274,4024,11,61,2
0.06818181818184144,4024,12,61,3
0.10000000000002274,4024,13,61,3
0.09999999999999432,4024,14,61,2
0.09999999999999432,4024,15,61,3
0.10000000000002274,4025,0,61,3
0.09999999999999432,4025,1,61,2
0.06818181818181301,4025,2,61,2
0.09999999999999432,4025,3,61,2
0.09999999999999432,4025,4,61,4
0.09999999999999432,4025,5,61,2
0.09999999999999432,4025,6,61,3
0.09999999999999432,4025,7,61,2
0.10000000000002274,4025,8,61,3
0.09999999999999432,4025,9,61,2
0.09999999999999432,4025,10,61,2
0.10000000000002274,4025,11,61,2
0.09999999999999432,4025,12,61,3
0.10000000000002274,4025,13,61,2
0.10000000000002274,4025,14,61,2
0.09999999999999432,4025,15,61,2
0.09999999999999432,4026,0,61,3
0.09999999999999432,4026,1,61,2
0.09999999999999432,4026,2,61,2
0.10000000000002274,4026,3,61,2
0.09999999999999432,4026,4,61,3
0.09999999999999432,4026,5,61,2
0.09999999999999432,4026,6,61,3
0.09999999999999432,4026,7,61,1
0.06818181818181301,4026,8,61,3
0.09999999999999432,4026,9,61,2
0.09999999999999432,4026,10,61,3
0.09999999999999432,4026,11,61,2
0.06818181818181301,4026,12,61,3
0.09999999999999432,4026,13,61,3
0.09999999999999432,4026,14,61,3
0.09999999999999432,4026,15,61,3
0.09999999999999432,4027,0,61,2
0.10000000000002274,4027,1,61,2
0.09999999999999432,4027,2,61,3
0.09999999999999432,4027,3,61,2
0.09999999999999432,4027,4,61,1
0.03636363636363171,4027,5,61,1
0.013636363636351234,4027,6,61,1
0.056818181818186986,4027,7,61,1
0.01590909090910486,4027,8,61,1
0.10000000000002274,4027,9,61,1
0.025000000000005684,4027,10,61,1
0.025000000000005684,4027,11,61,1
0.05909090909088377,4027,12,61,1
0.09999999999999432,4027,13,61,1
0.025000000000005684,4027,14,61,1
0.05909090909091219,4027,15,61,1
0.09999999999999432,4028,0,61,1
0.056818181818158564,4028,1,61,1
0.09999999999999432,4028,2,61,1
0.05909090909091219,4028,3,61,1
0.03409090909093493,4028,4,61,1
0.04772727272728616,4028,5,61,1
0.03636363636363171,4028,6,61,1
0.09999999999999432,4028,7,61,1
0.056818181818186986,4028,8,61,1
0.025000000000005684,4028,9,61,1
0.025000000000005684,4028,10,61,1
0.013636363636351234,4028,11,61,1
0.01590909090910486,4028,12,61,1
0.013636363636351234,4028,13,61,1
0.04772727272728616,4028,14,61,1
0.025000000000005684,4028,15,61,1
0.056818181818186986,4029,0,61,1
0.09999999999999432,4029,1,61,1
0.06818181818181301,4029,2,61,1
0.004545454545450411,4029,3,61,1
0.045454545454532536,4029,4,61,1
0.09999999999999432,4029,5,61,1
0.06818181818181301,4029,6,61,1
0.025000000000005684,4029,7,61,1
0.01590909090907644,4029,8,61,1
0.025000000000005684,4029,9,61,1
0.056818181818186986,4029,10,61,1
0.09999999999999432,4029,11,61,1
0.05909090909088377,4029,12,61,1
0.01590909090907644,4029,13,61,1
0.025000000000005684,4029,14,61,1
0.025000000000005684,4029,15,61,1
0.10000000000002274,4030,0,61,1
0.025000000000005684,4030,1,61,1
0.09999999999999432,4030,2,61,1
0.056818181818186986,4030,3,61,1
0.01590909090910486,4030,4,61,1
0.024999999999977263,4030,5,61,1
0.056818181818186986,4030,6,61,1
0.09999999999999432,4030,7,61,1
0.05909090909091219,4030,8,61,1
0.013636363636351234,4030,9,61,1
0.056818181818186986,4030,10,61,1
0.02727272727270247,4030,11,61,1
0.06590909090908781,4030,12,61,1
0.01590909090910486,4030,13,61,1
0.056818181818186986,4030,14,61,1
0.013636363636379656,4030,15,61,1
0.025000000000005684,4031,0,61,1
0.024999999999977263,4031,1,61,1
0.01590909090910486,4031,2,61,1
0.056818181818158564,4031,3,61,1
0.013636363636351234,4031,4,61,1
0.01590909090907644,4031,5,61,1
0.06818181818181301,4031,6,61,1
0.025000000000005684,4031,7,61,1
0.013636363636351234,4031,8,61,1
0.05909090909091219,4031,9,61,1
0.024999999999977263,4031,10,61,1
0.013636363636379656,4031,11,61,1
0.025000000000005684,4031,12,61,1
0.025000000000005684,4031,13,61,1
0.01590909090907644,4031,14,61,1
0.056818181818186986,4031,15,61,1
0.01590909090907644,4032,0,61,1
0.06590909090908781,4032,1,61,1
0.01590909090907644,4032,2,61,1
0.056818181818186986,4032,3,61,1
0.025000000000005684,4032,4,61,1
0.05909090909091219,4032,5,61,1
0.025000000000005684,4032,6,61,1
0.056818181818158564,4032,7,61,1
0.013636363636351234,4032,8,61,1
0.013636363636379656,4032,9,61,1
0.025000000000005684,4032,10,61,1
0.025000000000005684,4032,11,61,1
0.01590909090910486,4032,12,61,1
0.056818181818186986,4032,13,61,1
0.004545454545478833,4032,14,61,1
0.025000000000005684,4032,15,61,1
0.056818181818186986,4033,0,61,1
0.09999999999999432,4033,1,61,1
0.06818181818181301,4033,2,61,1
0.09999999999999432,4033,3,61,1
0.06818181818181301,4033,4,61,1
0.025000000000005684,4033,5,61,1
0.01590909090907644,4033,6,61,1
0.01590909090910486,4033,7,61,1
0.025000000000005684,4033,8,61,1
0.025000000000005684,4033,9,61,1
0.025000000000005684,4033,10,61,1
0.09999999999999432,4033,11,61,1
0.056818181818186986,4033,12,61,1
0.01590909090910486,4033,13,61,1
0.09999999999999432,4033,14,61,1
0.056818181818186986,4033,15,61,1
0.013636363636351234,4034,0,61,1
0.024999999999977263,4034,1,61,1
0.01590909090910486,4034,2,61,1
0.056818181818158564,4034,3,61,1
0.024999999999977263,4034,4,61,1
0.025000000000005684,4034,5,61,1
0.013636363636379656,4034,6,61,1
0.025000000000005684,4034,7,61,1
0.05909090909091219,4034,8,61,1
0.01590909090910486,4034,9,61,1
0.025000000000005684,4034,10,61,1
0.056818181818186986,4034,11,61,1
0.09999999999999432,4034,12,61,1
0.10000000000002274,4034,13,61,1
0.025000000000005684,4034,14,61,1
0.056818181818186986,4034,15,61,1
0.025000000000005684,4035,0,61,1
0.013636363636351234,4035,1,61,1
0.025000000000005684,4035,2,61,1
0.01590909090910486,4035,3,61,1
0.013636363636351234,4035,4,61,1
0.02727272727273089,4035,5,61,1
0.09999999999999432,4035,6,61,1
0.09999999999999432,4035,7,61,1
0.09999999999999432,4035,8,61,1
0.056818181818186986,4035,9,61,1
0.024999999999977263,4035,10,61,1
0.01590909090910486,4035,11,61,1
0.056818181818186986,4035,12,61,1
0.013636363636379656,4035,13,61,1
0.025000000000005684,4035,14,61,1
0.01590909090907644,4035,15,61,1
0.01590909090907644,4036,0,61,1
0.03409090909090651,4036,1,61,1
0.01590909090907644,4036,2,61,1
0.056818181818186986,4036,3,61,1
0.013636363636379656,4036,4,61,1
0.01590909090907644,4036,5,61,1
0.025000000000005684,4036,6,61,1
0.025000000000005684,4036,7,61,1
0.013636363636351234,4036,8,61,1
0.04772727272728616,4036,9,61,1
0.03636363636363171,4036,10,61,1
0.04545454545456096,4036,11,61,1
0.09999999999999432,4036,12,61,1
0.05909090909091219,4036,13,61,1
0.09999999999999432,4036,14,61,1
0.03409090909090651,4036,15,61,1
0.10000000000002274,4037,0,61,1
0.01590909090910486,4037,1,61,1
0.056818181818186986,4037,2,61,1
0.025000000000005684,4037,3,61,1
0.056818181818186986,4037,4,61,1
0.01590909090907644,4037,5,61,1
0.02727272727270247,4037,6,61,1
0.025000000000005684,4037,7,61,1
0.013636363636351234,4037,8,61,1
0.05909090909091219,4037,9,61,1
0.025000000000005684,4037,10,61,1
0.056818181818186986,4037,11,61,1
0.03636363636363171,4037,12,61,1
0.045454545454532536,4037,13,61,1
0.09999999999999432,4037,14,61,1
0.03636363636363171,4037,15,61,1
0.09999999999999432,4038,0,61,1
0.06590909090908781,4038,1,61,1
0.09999999999999432,4038,2,61,1
0.056818181818186986,4038,3,61,1
0.01590909090907644,4038,4,61,1
0.024999999999977263,4038,5,61,1
0.09999999999999432,4038,6,61,1
0.06818181818181301,4038,7,61,1
0.024999999999977263,4038,8,61,1
0.09999999999999432,4038,9,61,1
0.056818181818158564,4038,10,61,1
0.025000000000005684,4038,11,61,1
0.01590909090907644,4038,12,61,1
0.056818181818186986,4038,13,61,1
0.09999999999999432,4038,14,61,1
0.05909090909091219,4038,15,61,1
0.01590909090907644,4039,0,61,1
0.024999999999977263,4039,1,61,1
0.025000000000005684,4039,2,61,1
0.013636363636379656,4039,3,61,1
0.025000000000005684,4039,4,61,1
0.056818181818186986,4039,5,61,1
0.02727272727273089,4039,6,61,1
0.04545454545456096,4039,7,61,1
0.013636363636379656,4039,8,61,1
0.024999999999977263,4039,9,61,1
0.024999999999977263,4039,10,61,1
0.01590909090910486,4039,11,61,1
0.056818181818186986,4039,12,61,1
0.013636363636379656,4039,13,61,1
0.013636363636379656,4039,14,61,1
0.036363636363660135,4039,15,61,1
0.04772727272728616,4040,0,61,1
0.01590909090910486,4040,1,61,1
0.024999999999977263,4040,2,61,1
0.013636363636351234,4040,3,61,1
0.025000000000005684,4040,4,61,1
0.056818181818186986,4040,5,61,1
0.01590909090910486,4040,6,61,1
0.03636363636363171,4040,7,61,1
0.0022727272727252057,4040,8,61,1
0.025000000000005684,4040,9,61,1
0.09999999999999432,4040,10,61,1
0.09999999999999432,4040,11,61,1
0.10000000000002274,4040,12,61,1
0.09999999999999432,4040,13,61,1
0.056818181818186986,4040,14,61,1
0.013636363636379656,4040,15,61,1
0.01590909090907644,4041,0,61,1
0.025000000000005684,4041,1,61,1
0.056818181818186986,4041,2,61,1
0.09999999999999432,4041,3,61,1
0.09999999999999432,4041,4,61,1
0.09999999999999432,4041,5,61,1
0.013636363636351234,4041,6,61,1
0.025000000000005684,4041,7,61,1
0.025000000000005684,4041,8,61,1
0.05909090909091219,4041,9,61,1
0.01590909090910486,4041,10,61,1
0.024999999999977263,4041,11,61,1
0.013636363636379656,4041,12,61,1
0.024999999999977263,4041,13,61,1
0.05909090909091219,4041,14,61,1
0.01590909090910486,4041,15,61,1
0.013636363636351234,4042,0,61,1
0.025000000000005684,4042,1,61,1
0.09999999999999432,4042,2,61,1
0.025000000000005684,4042,3,61,1
0.013636363636351234,4042,4,61,1
0.10000000000002274,4042,5,61,1
0.056818181818186986,4042,6,61,1
0.01590909090910486,4042,7,61,1
0.09999999999999432,4042,8,61,1
0.056818181818186986,4042,9,61,1
0.013636363636351234,4042,10,61,1
0.025000000000005684,4042,11,61,1
0.01590909090910486,4042,12,61,1
0.025000000000005684,4042,13,61,1
0.056818181818186986,4042,14,61,1
0.024999999999977263,4042,15,61,1
0.056818181818186986,4043,0,61,1
0.01590909090910486,4043,1,61,1
0.01590909090907644,4043,2,61,1
0.025000000000005684,4043,3,61,1
0.025000000000005684,4043,4,61,1
0.025000000000005684,4043,5,61,1
0.056818181818186986,4043,6,61,1
0.01590909090907644,4043,7,61,1
0.056818181818186986,4043,8,61,1
0.013636363636379656,4043,9,61,1
0.025000000000005684,4043,10,61,1
0.09999999999999432,4043,11,61,1
0.056818181818186986,4043,12,61,1
0.013636363636351234,4043,13,61,1
0.025000000000005684,4043,14,61,1
0.10000000000000142,4043,15,64,8
0.10000000000000142,4044,0,64,26
0.10000000000000142,4044,1,64,31
0.10000000000000142,4044,2,64,18
0.10000000000000142,4044,3,64,24
0.10000000000000142,4044,4,64,20
0.10000000000000142,4044,5,64,23
0.09999999999999432,4044,6,64,15
0.10000000000000142,4044,7,64,32
0.09999999999999432,4044,8,64,53
0.09999999999999432,4044,9,64,70
0.10000000000000142,4044,10,64,10
0.10000000000000142,4044,11,64,7
0.09999999999999432,4044,12,64,5
0.10000000000000853,4044,13,64,6
0.09999999999999432,4044,14,64,7
0.09999999999999432,4044,15,64,7
0.10000000000000853,4045,0,64,5
0.09999999999999432,4045,1,64,16
0.10000000000000853,4045,2,64,10
0.10000000000000853,4045,3,64,9
0.09999999999999998,4045,4,75,11
0.036363636363636376,4045,5,75,54
0.09999999999999998,4045,6,75,22
0.10000000000000009,4045,7,75,66
0.10000000000000009,4045,8,75,45
0.10000000000000009,4045,9,75,34
0.045454545454545414,4045,10,75,21
0.10000000000000009,4045,11,75,59
0.10000000000000009,4045,12,75,78
0.10000000000000009,4045,13,75,35
0.09999999999999964,4045,14,75,15
0.09999999999999964,4045,15,75,40
0.10000000000000053,4046,0,75,50
0.10000000000000053,4046,1,75,69
0.10000000000000053,4046,2,75,100
0.09999999999999964,4046,3,75,87
0.09999999999999964,4046,4,75,23
0.09999999999999964,4046,5,75,74
0.09999999999999964,4046,6,75,38
0.09999999999999964,4046,7,75,108
0.09999999999999964,4046,8,75,64
0.09999999999999964,4046,9,75,82
0.10000000000000142,4046,10,75,63
0.09999999999999964,4046,11,75,66
0.013636363636363669,4046,12,75,118
0.10000000000000142,4046,13,75,68
0.09999999999999964,4046,14,75,97
0.09999999999999964,4046,15,75,88
0.09999999999999964,4047,0,75,75
0.10000000000000142,4047,1,75,36
0.09999999999999964,4047,2,75,14
0.09999999999999964,4047,3,75,84
0.09999999999999964,4047,4,75,102
0.09999999999999787,4047,5,75,50
0.10000000000000142,4047,6,75,103
0.10000000000000142,4047,7,75,90
0.09999999999999787,4047,8,75,50
0.05681818181817988,4047,9,75,80
0.10000000000000142,4047,10,75,3
0.10000000000000142,4047,11,75,69
0.10000000000000142,4047,12,75,51
0.09999999999999787,4047,13,75,94
0.10000000000000142,4047,14,75,58
0.10000000000000142,4047,15,75,5
0.09999999999999787,4048,0,75,43
0.09999999999999787,4048,1,75,59
0.09999999999999787,4048,2,75,65
0.10000000000000142,4048,3,75,41
0.09999999999999787,4048,4,75,91
0.10000000000000142,4048,5,75,6
0.10000000000000142,4048,6,75,51
0.10000000000000142,4048,7,75,56
0.013636363636365445,4048,8,75,79
0.10000000000000142,4048,9,75,39
0.09999999999999787,4048,10,75,102
0.09999999999999787,4048,11,75,109
0.10000000000000142,4048,12,75,69
0.10000000000000142,4048,13,75,9
0.10000000000000142,4048,14,75,43
0.09999999999999787,4048,15,75,93
0.10000000000000142,4049,0,75,55
0.10000000000000142,4049,1,75,89
0.10000000000000142,4049,2,75,127
0.10000000000000142,4049,3,75,110
0.10000000000000142,4049,4,75,7
0.10000000000000142,4049,5,75,64
0.09999999999999787,4049,6,75,99
0.09999999999999787,4049,7,75,59
0.10000000000000142,4049,8,75,106
0.10000000000000142,4049,9,75,111
0.09999999999999787,4049,10,75,67
0.10000000000000142,4049,11,75,93
0.10000000000000142,4049,12,75,11
0.09999999999999787,4049,13,75,81
0.09999999999999787,4049,14,75,94
0.09999999999999787,4049,15,75,65
0.10000000000000142,4050,0,75,112
0.10000000000000142,4050,1,75,107
0.10000000000000142,4050,2,75,52
0.09999999999999432,4050,3,75,28
0.10000000000000142,4050,4,75,81
0.10000000000000142,4050,5,75,50
0.10000000000000142,4050,6,75,126
0.10000000000000142,4050,7,75,119
0.025000000000005684,4050,8,75,127
0.10000000000000142,4050,9,75,72
0.10000000000000142,4050,10,75,127
0.10000000000000142,4050,11,75,127
0.10000000000000142,4050,12,75,120
0.10000000000000142,4050,13,75,103
0.013636363636365445,4050,14,75,65
0.09999999999999432,4050,15,75,107
0.10000000000000142,4051,0,75,112
0.10000000000000142,4051,1,75,127
0.10000000000000142,4051,2,75,119
0.09999999999999432,4051,3,75,43
0.10000000000000142,4051,4,75,89
0.09999999999999432,4051,5,75,127
0.10000000000000142,4051,6,75,93
0.10000000000000142,4051,7,75,115
0.10000000000000142,4051,8,75,82
0.10000000000000142,4051,9,75,80
0.10000000000000142,4051,10,75,11
0.10000000000000142,4051,11,75,60
0.09999999999999432,4051,12,75,56
0.01590909090909065,4051,13,75,103
0.10000000000000142,4051,14,75,115
0.10000000000000142,4051,15,75,88
0.10000000000000142,4052,0,75,69
0.10000000000000142,4052,1,75,83
0.10000000000000142,4052,2,75,54
0.056818181818186986,4052,3,75,92
0.10000000000000142,4052,4,75,60
0.09999999999999432,4052,5,75,95
0.10000000000000142,4052,6,75,58
0.10000000000000142,4052,7,75,127
0.10000000000000142,4052,8,75,24
0.10000000000000142,4052,9,75,127
0.09999999999999432,4052,10,75,52
0.10000000000000142,4052,11,75,90
0.0022727272727252057,4052,12,75,88
0.10000000000000142,4052,13,75,99
0.10000000000000142,4052,14,75,81
0.10000000000000142,4052,15,75,122
0.10000000000000142,4053,0,75,113
0.10000000000000142,4053,1,75,39
0.01590909090909065,4053,2,75,115
0.10000000000000142,4053,3,75,57
0.10000000000000142,4053,4,75,76
0.06818181818182012,4053,5,75,127
0.10000000000000142,4053,6,75,107
0.10000000000000142,4053,7,75,115
0.10000000000000142,4053,8,75,86
0.10000000000000142,4053,9,75,75
0.10000000000000142,4053,10,75,112
0.04772727272727195,4053,11,75,93
0.10000000000000142,4053,12,75,96
0.10000000000000142,4053,13,75,107
0.10000000000000142,4053,14,75,121
0.10000000000000142,4053,15,75,77
0.02499999999999858,4054,0,75,56
0.10000000000000142,4054,1,75,79
0.10000000000000142,4054,2,75,22
0.10000000000000142,4054,3,75,33
0.03636363636363171,4054,4,75,88
0.10000000000000142,4054,5,75,115
0.10000000000000142,4054,6,75,127
0.10000000000000142,4054,7,75,127
0.10000000000000142,4054,8,75,29
0.10000000000000142,4054,9,75,104
0.10000000000000142,4054,10,75,54
0.01590909090909065,4054,11,75,104
0.10000000000000142,4054,12,75,97
0.10000000000000142,4054,13,75,73
0.10000000000000142,4054,14,75,67
0.10000000000000142,4054,15,75,56
0.05681818181817988,4055,0,75,83
0.10000000000000142,4055,1,75,126
0.10000000000000142,4055,2,75,96
0.10000000000000142,4055,3,75,99
0.09999999999999432,4055,4,75,38
0.04772727272727195,4055,5,75,95
0.10000000000000142,4055,6,75,95
0.10000000000000142,4055,7,75,12
0.10000000000000142,4055,8,75,40
0.10000000000000142,4055,9,75,92
0.10000000000000142,4055,10,75,37
0.10000000000000142,4055,11,75,116
0.10000000000000142,4055,12,75,109
0.004545454545457517,4055,13,75,47
0.03636363636363882,4055,14,75,105
0.10000000000000142,4055,15,75,65
0.10000000000000142,4056,0,75,96
0.09999999999999432,4056,1,75,84
0.10000000000000142,4056,2,75,82
0.10000000000000142,4056,3,75,26
0.03636363636363171,4056,4,75,30
0.09999999999999432,4056,5,75,75
0.10000000000000142,4056,6,75,11
0.09999999999999432,4056,7,75,95
0.10000000000000142,4056,8,75,72
0.09999999999999432,4056,9,75,39
0.10000000000000853,4056,10,75,63
0.09999999999999432,4056,11,75,58
0.09999999999999432,4056,12,75,99
0.09999999999999432,4056,13,75,112
0.09999999999999432,4056,14,75,102
0.10000000000000853,4056,15,75,58
0.10000000000000853,4057,0,75,127
0.09999999999999432,4057,1,75,11
0.09999999999999432,4057,2,75,80
0.09999999999999432,4057,3,75,103
0.09999999999999432,4057,4,75,127
0.09999999999999432,4057,5,75,85
0.09999999999999432,4057,6,75,80
0.10000000000000853,4057,7,75,92
0.06818181818182723,4057,8,75,84
0.10000000000000853,4057,9,75,32
0.09999999999999432,4057,10,75,99
0.10000000000000853,4057,11,75,110
0.09999999999999432,4057,12,75,111
0.09999999999999432,4057,13,75,123
0.09999999999999432,4057,14,75,96
0.10000000000000853,4057,15,75,94
0.10000000000000853,4058,0,75,85
0.10000000000000853,4058,1,75,78
0.09999999999999432,4058,2,75,103
0.09999999999999432,4058,3,75,66
0.09999999999999432,4058,4,75,105
0.09999999999999432,4058,5,75,110
0.10000000000000853,4058,6,75,120
0.10000000000000853,4058,7,75,107
0.09999999999999432,4058,8,75,71
0.10000000000000853,4058,9,75,103
0.10000000000000853,4058,10,75,13
0.10000000000000853,4058,11,75,37
0.04772727272727195,4058,12,75,108
0.09999999999999432,4058,13,75,82
0.09999999999999432,4058,14,75,61
0.09999999999999432,4058,15,75,111
0.10000000000000853,4059,0,75,32
0.09999999999999432,4059,1,75,92
0.10000000000000853,4059,2,75,127
0.09999999999999432,4059,3,75,61
0.10000000000000853,4059,4,75,116
0.10000000000000853,4059,5,75,62
0.09999999999999432,4059,6,75,127
0.09999999999999432,4059,7,75,84
0.10000000000000853,4059,8,75,90
0.09999999999999432,4059,9,75,73
0.09999999999999432,4059,10,75,68
0.09999999999999432,4059,11,75,80
0.09999999999999432,4059,12,75,95
0.09999999999999432,4059,13,75,92
0.09999999999999432,4059,14,75,102
0.09999999999999432,4059,15,75,124
0.09999999999999432,4060,0,75,80
0.09999999999999432,4060,1,75,33
0.09999999999999432,4060,2,75,84
0.09999999999999432,4060,3,75,99
0.10000000000000853,4060,4,75,84
0.004545454545464622,4060,5,75,62
0.10000000000000853,4060,6,75,101
0.09999999999999432,4060,7,75,78
0.10000000000000853,4060,8,75,89
0.09999999999999432,4060,9,75,73
0.09999999999999432,4060,10,75,48
0.024999999999991473,4060,11,75,115
0.09999999999999432,4060,12,75,89
0.09999999999999432,4060,13,75,11
0.09999999999999432,4060,14,75,28
0.10000000000000853,4060,15,75,104
0.09999999999999432,4061,0,75,105
0.09999999999999432,4061,1,75,62
0.09999999999999432,4061,2,75,85
0.09999999999999432,4061,3,75,79
0.10000000000000853,4061,4,75,64
0.10000000000000853,4061,5,75,82
0.09999999999999432,4061,6,75,99
0.09999999999999432,4061,7,75,87
0.09999999999999432,4061,8,75,48
0.10000000000000853,4061,9,75,72
0.09999999999999432,4061,10,75,68
0.10000000000000853,4061,11,75,54
0.09999999999999432,4061,12,75,108
0.10000000000000853,4061,13,75,91
0.09999999999999432,4061,14,75,60
0.09999999999999432,4061,15,75,101
0.09999999999999432,4062,0,75,79
0.09999999999999432,4062,1,75,61
0.09999999999999432,4062,2,75,86
0.10000000000000853,4062,3,75,109
0.09999999999999432,4062,4,75,68
0.10000000000000853,4062,5,75,91
0.09999999999999432,4062,6,75,65
0.10000000000000853,4062,7,75,33
0.09999999999999432,4062,8,75,85
0.09999999999999432,4062,9,75,94
0.10000000000000853,4062,10,75,88
0.09999999999999432,4062,11,75,71
0.09999999999999432,4062,12,75,109
0.10000000000000853,4062,13,75,86
0.09999999999999432,4062,14,75,82
0.09999999999999432,4062,15,75,120
0.10000000000000853,4063,0,75,60
0.09999999999999432,4063,1,75,75
0.09999999999999432,4063,2,75,91
0.09999999999999432,4063,3,75,89
0.10000000000000853,4063,4,75,88
0.09999999999999432,4063,5,75,91
0.09999999999999432,4063,6,75,77
0.10000000000000853,4063,7,75,108
0.09999999999999432,4063,8,75,94
0.09999999999999432,4063,9,75,110
0.09999999999999432,4063,10,75,92
0.10000000000000853,4063,11,75,93
0.09999999999999432,4063,12,75,106
0.09999999999999432,4063,13,75,68
0.004545454545450411,4063,14,75,85
0.09999999999999432,4063,15,75,90
0.10000000000000853,4064,0,75,101
0.09999999999999432,4064,1,75,67
0.004545454545450411,4064,2,75,57
0.004545454545450411,4064,3,75,93
0.10000000000000853,4064,4,75,100
0.09999999999999432,4064,5,75,56
0.10000000000000853,4064,6,75,11
0.09999999999999432,4064,7,75,127
0.10000000000000853,4064,8,75,126
0.09999999999999432,4064,9,75,74
0.09999999999999432,4064,10,75,79
0.09999999999999432,4064,11,75,70
0.09999999999999432,4064,12,75,102
0.09999999999999432,4064,13,75,20
0.10000000000000853,4064,14,75,44
0.09999999999999432,4064,15,75,127
0.09999999999999432,4065,0,75,99
0.09999999999999432,4065,1,75,59
0.10000000000000853,4065,2,75,91
0.09999999999999432,4065,3,75,31
0.09999999999999432,4065,4,75,79
0.09999999999999432,4065,5,75,47
0.10000000000000853,4065,6,75,106
0.10000000000000853,4065,7,75,37
0.10000000000000853,4065,8,75,89
0.09999999999999432,4065,9,75,99
0.09999999999999432,4065,10,75,75
0.09999999999999432,4065,11,75,42
0.10000000000000853,4065,12,75,67
0.10000000000000853,4065,13,75,72
0.09999999999999432,4065,14,75,73
0.09999999999999432,4065,15,75,105
0.10000000000000853,4066,0,75,19
0.09999999999999432,4066,1,75,95
0.09999999999999432,4066,2,75,101
0.09999999999999432,4066,3,75,60
0.10000000000000853,4066,4,75,81
0.09999999999999432,4066,5,75,101
0.09999999999999432,4066,6,75,76
0.09999999999999432,4066,7,75,36
0.056818181818172775,4066,8,75,76
0.09999999999999432,4066,9,75,108
0.10000000000000853,4066,10,75,81
0.09999999999999432,4066,11,75,109
0.10000000000000853,4066,12,75,101
0.09999999999999432,4066,13,75,100
0.09999999999999432,4066,14,75,90
0.10000000000000853,4066,15,75,91
0.09999999999999432,4067,0,75,35
0.09999999999999432,4067,1,75,73
0.06818181818181301,4067,2,75,106
0.09999999999999432,4067,3,75,68
0.10000000000000853,4067,4,75,115
0.03409090909090651,4067,5,75,127
0.10000000000000853,4067,6,75,108
0.09999999999999432,4067,7,75,85
0.10000000000000853,4067,8,75,62
0.10000000000000853,4067,9,75,74
0.09999999999999432,4067,10,75,66
0.09999999999999432,4067,11,75,73
0.09999999999999432,4067,12,75,73
0.09999999999999432,4067,13,75,50
0.09999999999999432,4067,14,75,86
0.09999999999999432,4067,15,75,91
0.10000000000000853,4068,0,75,102
0.09999999999999432,4068,1,75,83
0.10000000000000853,4068,2,75,75
0.10000000000000853,4068,3,75,80
0.09999999999999432,4068,4,75,110
0.10000000000000853,4068,5,75,88
0.09999999999999432,4068,6,75,68
0.09999999999999432,4068,7,75,76
0.09999999999999432,4068,8,75,31
0.09999999999999432,4068,9,75,65
0.09999999999999432,4068,10,75,93
0.09999999999999432,4068,11,75,82
0.09999999999999432,4068,12,75,87
0.09999999999999432,4068,13,75,111
0.10000000000002274,4068,14,75,105
0.10000000000002274,4068,15,75,90
0.09999999999999432,4069,0,75,103
0.10000000000002274,4069,1,75,96
0.09999999999999432,4069,2,75,82
0.09999999999999432,4069,3,75,100
0.09999999999999432,4069,4,75,65
0.09999999999999432,4069,5,75,30
0.09999999999999432,4069,6,75,86
0.09999999999999432,4069,7,75,95
0.09999999999999432,4069,8,75,75
0.09999999999999432,4069,9,75,95
0.09999999999999432,4069,10,75,91
0.09999999999999432,4069,11,75,28
0.09999999999999432,4069,12,75,94
0.09999999999999432,4069,13,75,105
0.09999999999999432,4069,14,75,118
0.09999999999999432,4069,15,75,100
0.01590909090907644,4070,0,75,107
0.10000000000002274,4070,1,75,53
0.09999999999999432,4070,2,75,85
0.09999999999999432,4070,3,75,72
0.10000000000002274,4070,4,75,119
0.09999999999999432,4070,5,75,76
0.09999999999999432,4070,6,75,96
0.09999999999999432,4070,7,75,123
0.09999999999999432,4070,8,75,59
0.013636363636351234,4070,9,75,97
0.09999999999999432,4070,10,75,109
0.10000000000002274,4070,11,75,28
0.09999999999999432,4070,12,75,73
0.09999999999999432,4070,13,75,104
0.09999999999999432,4070,14,75,70
0.09999999999999432,4070,15,75,79
0.09999999999999432,4071,0,75,78
0.09999999999999432,4071,1,75,91
0.09999999999999432,4071,2,75,44
0.09999999999999432,4071,3,75,80
0.10000000000002274,4071,4,75,60
0.09999999999999432,4071,5,75,73
0.09999999999999432,4071,6,75,92
0.09999999999999432,4071,7,75,98
0.024999999999977263,4071,8,75,123
0.09999999999999432,4071,9,75,71
0.09999999999999432,4071,10,75,59
0.09999999999999432,4071,11,75,90
0.10000000000002274,4071,12,75,61
0.09999999999999432,4071,13,75,77
0.09999999999999432,4071,14,75,72
0.09999999999999432,4071,15,75,63
0.10000000000002274,4072,0,75,77
0.10000000000002274,4072,1,75,60
0.09999999999999432,4072,2,75,109
0.09999999999999432,4072,3,75,115
0.09999999999999432,4072,4,75,79
0.10000000000002274,4072,5,75,91
0.09999999999999432,4072,6,75,90
0.10000000000002274,4072,7,75,116
0.09999999999999432,4072,8,75,92
0.09999999999999432,4072,9,75,93
0.09999999999999432,4072,10,75,69
0.09999999999999432,4072,11,75,97
0.09999999999999432,4072,12,75,80
0.10000000000002274,4072,13,75,31
0.025000000000005684,4072,14,75,94
0.09999999999999432,4072,15,75,103
0.09999999999999432,4073,0,75,70
0.09999999999999432,4073,1,75,90
0.09999999999999432,4073,2,75,79
0.09999999999999432,4073,3,75,99
0.09999999999999432,4073,4,75,123
0.09999999999999432,4073,5,75,57
0.09999999999999432,4073,6,75,127
0.09999999999999432,4073,7,75,89
0.09999999999999432,4073,8,75,70
0.09999999999999432,4073,9,75,63
0.004545454545450411,4073,10,75,108
0.09999999999999432,4073,11,75,78
0.09999999999999432,4073,12,75,118
0.09999999999999432,4073,13,75,94
0.09999999999999432,4073,14,75,93
0.09999999999999432,4073,15,75,74
0.09999999999999432,4074,0,75,73
0.02727272727270247,4074,1,75,84
0.025000000000005684,4074,2,75,66
0.09999999999999432,4074,3,75,83
0.09999999999999432,4074,4,75,99
0.10000000000002274,4074,5,75,76
0.09999999999999432,4074,6,75,87
0.09999999999999432,4074,7,75,110
0.09999999999999432,4074,8,75,10
0.09999999999999432,4074,9,75,58
0.04772727272725774,4074,10,75,119
0.09999999999999432,4074,11,75,120
0.10000000000002274,4074,12,75,108
0.09999999999999432,4074,13,75,25
0.045454545454532536,4074,14,75,64
0.02727272727273089,4074,15,75,59
0.09999999999999432,4075,0,75,96
0.10000000000002274,4075,1,75,58
0.09999999999999432,4075,2,75,97
0.09999999999999432,4075,3,75,99
0.09999999999999432,4075,4,75,89
0.09999999999999432,4075,5,75,113
0.06818181818181301,4075,6,75,127
0.10000000000002274,4075,7,75,126
0.09999999999999432,4075,8,75,87
0.09999999999999432,4075,9,75,94
0.09999999999999432,4075,10,75,92
0.09999999999999432,4075,11,75,83
0.0022727272727252057,4075,12,75,58
0.09999999999999432,4075,13,75,93
0.09999999999999432,4075,14,75,96
0.09999999999999432,4075,15,75,85
0.10000000000002274,4076,0,75,66
0.09999999999999432,4076,1,75,127
0.09999999999999432,4076,2,75,127
0.09999999999999432,4076,3,75,127
0.09999999999999432,4076,4,75,125
0.09999999999999432,4076,5,75,90
0.09999999999999432,4076,6,75,93
0.09999999999999432,4076,7,75,51
0.09999999999999432,4076,8,75,57
0.09999999999999432,4076,9,75,58
0.09999999999999432,4076,10,75,106
0.09999999999999432,4076,11,75,109
0.09999999999999432,4076,12,75,113
0.09999999999999432,4076,13,75,79
0.09999999999999432,4076,14,75,116
0.09999999999999432,4076,15,75,80
0.10000000000002274,4077,0,75,34
0.02727272727273089,4077,1,75,84
0.09999999999999432,4077,2,75,124
0.09999999999999432,4077,3,75,93
0.09999999999999432,4077,4,75,81
0.09999999999999432,4077,5,75,68
0.09999999999999432,4077,6,75,110
0.09999999999999432,4077,7,75,81
0.09999999999999432,4077,8,75,90
0.10000000000002274,4077,9,75,83
0.09999999999999432,4077,10,75,82
0.09999999999999432,4077,11,75,104
0.09999999999999432,4077,12,75,112
0.09999999999999432,4077,13,75,81
0.09999999999999432,4077,14,75,60
0.09999999999999432,4077,15,75,112
0.10000000000000142,4078,0,71,49
0.09999999999999432,4078,1,71,15
0.10000000000000142,4078,2,71,23
0.10000000000000142,4078,3,71,17
0.10000000000000142,4078,4,71,5
0.10000000000000142,4078,5,71,16
0.10000000000000142,4078,6,71,20
0.10000000000000142,4078,7,71,18
0.10000000000000142,4078,8,71,18
0.10000000000000142,4078,9,71,11
0.09999999999999432,4078,10,71,17
0.10000000000000142,4078,11,71,14
0.09999999999999432,4078,12,71,22
0.01590909090909065,4078,13,71,19
0.10000000000000142,4078,14,71,13
0.10000000000000142,4078,15,71,11
0.10000000000000142,4079,0,71,14
0.10000000000000142,4079,1,71,9
0.10000000000000142,4079,2,71,14
0.10000000000000142,4079,3,71,4
0.09999999999999432,4079,4,71,7
0.10000000000000142,4079,5,71,9
0.10000000000000142,4079,6,71,9
0.09999999999999432,4079,7,71,13
0.10000000000000142,4079,8,71,20
0.10000000000000142,4079,9,71,21
0.10000000000000142,4079,10,71,13
0.10000000000000142,4079,11,71,12
0.09999999999999432,4079,12,71,14
0.10000000000000142,4079,13,71,12
0.09999999999999432,4079,14,71,10
0.09999999999999432,4079,15,71,15
0.10000000000000142,4080,0,71,14
0.10000000000000142,4080,1,71,27
0.10000000000000142,4080,2,71,12
0.09999999999999432,4080,3,71,14
0.10000000000000142,4080,4,71,19
0.09999999999999432,4080,5,71,11
0.09999999999999432,4080,6,71,12
0.10000000000000142,4080,7,71,18
0.10000000000000142,4080,8,71,18
0.10000000000000142,4080,9,71,14
0.09999999999999432,4080,10,71,7
0.09999999999999432,4080,11,71,43
0.10000000000000142,4080,12,71,25
0.10000000000000142,4080,13,71,30
0.03636363636363882,4080,14,71,23
0.10000000000000142,4080,15,71,16
0.10000000000000142,4081,0,71,18
0.09999999999999432,4081,1,71,15
0.10000000000000142,4081,2,71,10
0.09999999999999432,4081,3,71,2
0.06818181818181301,4081,4,71,3
0.09999999999999432,4081,5,71,6
0.09999999999999432,4081,6,71,5
0.09999999999999432,4081,7,71,6
0.10000000000000853,4081,8,71,5
0.10000000000000853,4081,9,71,10
0.10000000000000853,4081,10,71,6
0.10000000000000853,4081,11,71,9
0.09999999999999432,4081,12,71,9
0.09999999999999432,4081,13,71,5
0.09999999999999432,4081,14,71,12
0.09999999999999432,4081,15,71,4
0.09999999999999432,4082,0,71,1
0.09999999999999432,4082,1,71,1
0.10000000000000853,4082,2,71,3
0.10000000000000853,4082,3,71,22
0.09999999999999432,4082,4,71,5
0.10000000000000853,4082,5,71,11
0.10000000000000853,4082,6,71,16
0.09999999999999432,4082,7,71,5
0.10000000000000853,4082,8,71,4
0.09999999999999432,4082,9,71,8
0.09999999999999432,4082,10,71,6
0.10000000000000853,4082,11,71,14
0.10000000000000853,4082,12,71,11
0.09999999999999432,4082,13,71,9
0.09999999999999432,4082,14,71,6
0.09999999999999432,4082,15,71,3
0.09999999999999432,4083,0,71,12
0.10000000000000853,4083,1,71,3
0.09999999999999432,4083,2,71,4
0.09999999999999432,4083,3,71,4
0.10000000000000853,4083,4,71,3
0.09999999999999432,4083,5,71,5
0.10000000000000853,4083,6,71,6
0.10000000000000853,4083,7,71,6
0.09999999999999432,4083,8,71,4
0.09999999999999432,4083,9,71,11
0.10000000000000853,4083,10,71,24
0.09999999999999432,4083,11,71,10
0.10000000000000853,4083,12,71,5
0.09999999999999432,4083,13,71,24
0.09999999999999432,4083,14,71,20
0.09999999999999432,4083,15,71,9
0.10000000000000853,4084,0,71,21
0.10000000000000853,4084,1,71,21
0.10000000000000853,4084,2,71,6
0.10000000000000853,4084,3,71,7
0.10000000000000853,4084,4,71,12
0.10000000000000853,4084,5,71,12
0.10000000000000853,4084,6,71,9
0.10000000000000853,4084,7,71,8
0.09999999999999432,4084,8,71,1
0.09999999999999432,4084,9,71,9
0.10000000000000853,4084,10,71,9
0.09999999999999432,4084,11,71,7
0.09999999999999432,4084,12,71,20
0.09999999999999432,4084,13,71,3
0.10000000000000853,4084,14,71,12
0.06818181818182723,4084,15,71,15
0.09999999999999432,4085,0,71,6
0.06818181818181301,4085,1,71,10
0.10000000000000853,4085,2,71,14
0.10000000000000853,4085,3,71,7
0.09999999999999432,4085,4,71,5
0.09999999999999432,4085,5,71,11
0.09999999999999432,4085,6,71,7
0.10000000000002274,4085,7,71,4
0.09999999999999432,4085,8,71,6
0.09999999999999432,4085,9,71,11
0.09999999999999432,4085,10,71,4
0.09999999999999432,4085,11,71,16
0.10000000000002274,4085,12,71,7
0.09999999999999432,4085,13,71,16
0.10000000000002274,4085,14,71,2
0.09999999999999432,4085,15,71,6
0.09999999999999432,4086,0,71,4
0.10000000000002274,4086,1,71,13
0.10000000000002274,4086,2,71,7
0.09999999999999432,4086,3,71,4
0.09999999999999432,4086,4,71,24
0.09999999999999432,4086,5,71,40
0.09999999999999432,4086,6,71,7
0.10000000000002274,4086,7,71,14
0.09999999999999432,4086,8,71,12
0.09999999999999432,4086,9,71,4
0.09999999999999432,4086,10,71,6
0.10000000000002274,4086,11,71,18
0.09999999999999432,4086,12,71,5
0.09999999999999432,4086,13,71,9
0.10000000000002274,4086,14,71,1
0.09999999999999432,4086,15,71,7
0.09999999999999432,4087,0,71,4
0.06818181818181301,4087,1,71,4
0.09999999999999432,4087,2,71,4
0.09999999999999432,4087,3,71,8
0.09999999999999432,4087,4,71,9
0.09999999999999432,4087,5,71,9
0.09999999999999432,4087,6,71,5
0.09999999999999432,4087,7,71,20
0.09999999999999432,4087,8,71,7
0.10000000000002274,4087,9,71,9
0.10000000000002274,4087,10,71,7
0.09999999999999432,4087,11,71,5
0.09999999999999432,4087,12,71,2
0.10000000000002274,4087,13,71,1
0.10000000000002274,4087,14,71,1
0.02727272727273089,4087,15,71,5
0.025000000000005684,4088,0,71,5
0.09999999999999432,4088,1,71,3
0.09999999999999432,4088,2,71,6
0.10000000000002274,4088,3,71,5
0.10000000000002274,4088,4,71,5
0.09999999999999432,4088,5,71,17
0.09999999999999432,4088,6,71,4
0.09999999999999432,4088,7,71,5
0.09999999999999432,4088,8,71,8
0.10000000000002274,4088,9,71,8
0.09999999999999432,4088,10,71,4
0.09999999999999432,4088,11,71,5
0.09999999999999432,4088,12,71,7
0.09999999999999432,4088,13,71,8
0.10000000000002274,4088,14,71,5
0.09999999999999432,4088,15,71,11
0.10000000000002274,4089,0,71,12
0.09999999999999432,4089,1,71,14
0.10000000000002274,4089,2,71,19
0.09999999999999432,4089,3,71,6
0.09999999999999432,4089,4,71,6
0.09999999999999432,4089,5,71,12
0.09999999999999432,4089,6,71,6
0.09999999999999432,4089,7,71,11
0.10000000000002274,4089,8,71,9
0.09999999999999432,4089,9,71,11
0.09999999999999432,4089,10,71,8
0.09999999999999432,4089,11,71,12
0.09999999999999432,4089,12,71,5
0.09999999999999432,4089,13,71,9
0.09999999999999432,4089,14,71,4
0.09999999999999432,4089,15,71,4
0.09999999999999432,4090,0,71,5
0.09999999999999432,4090,1,71,3
0.09999999999999432,4090,2,71,7
0.09999999999999432,4090,3,71,7
0.09999999999999432,4090,4,71,5
0.09999999999999432,4090,5,71,8
0.09999999999999432,4090,6,71,8
0.09999999999999432,4090,7,71,3
0.10000000000002274,4090,8,71,4
0.09999999999999432,4090,9,71,4
0.09999999999999432,4090,10,71,7
0.09999999999999432,4090,11,71,7
0.09999999999999432,4090,12,71,5
0.09999999999999432,4090,13,71,2
0.09999999999999432,4090,14,71,3
0.09999999999999432,4090,15,71,11
0.09999999999999432,4091,0,71,8
0.09999999999999432,4091,1,71,7
0.09999999999999432,4091,2,71,5
0.09999999999999432,4091,3,71,5
0.10000000000002274,4091,4,71,1
0.09999999999999432,4091,5,71,5
0.09999999999999432,4091,6,71,4
0.09999999999999432,4091,7,71,3
0.056818181818158564,4091,8,71,8
0.09999999999999432,4091,9,71,12
0.09999999999999432,4091,10,71,23
0.09999999999999432,4091,11,71,25
0.09999999999999432,4091,12,71,11
0.09999999999999432,4091,13,71,30
0.09999999999999432,4091,14,71,27
0.09999999999999432,4091,15,71,18
0.09999999999999432,4092,0,71,11
0.056818181818186986,4092,1,71,16
0.09999999999999432,4092,2,71,17
0.09999999999999432,4092,3,71,23
0.09999999999999432,4092,4,71,17
0.09999999999999432,4092,5,71,14
0.10000000000002274,4092,6,71,21
0.09999999999999432,4092,7,71,20
0.09999999999999432,4092,8,71,22
0.004545454545450411,4092,9,71,24
0.09999999999999432,4092,10,71,13
0.09999999999999432,4092,11,71,9
0.09999999999999432,4092,12,71,17
0.09999999999999432,4092,13,71,11
0.09999999999999432,4092,14,71,7
0.09999999999999432,4092,15,71,24
0.09999999999999432,4093,0,71,15
0.09999999999999432,4093,1,71,19
0.09999999999999432,4093,2,71,22
0.09999999999999432,4093,3,71,13
0.09999999999999432,4093,4,71,21
0.09999999999999432,4093,5,71,19
0.09999999999999432,4093,6,71,24
0.09999999999999432,4093,7,71,27
0.09999999999999432,4093,8,71,18
0.10000000000002274,4093,9,71,15
0.09999999999999432,4093,10,71,16
0.09999999999999964,4093,11,54,58
0.09999999999999964,4093,12,54,72
0.09999999999999964,4093,13,54,68
0.09999999999999964,4093,14,54,84
0.09999999999999964,4093,15,54,69
0.09999999999999964,4094,0,54,73
0.09999999999999964,4094,1,54,60
0.10000000000000142,4094,2,54,72
0.10000000000000142,4094,3,54,86
0.09999999999999787,4094,4,54,68
0.09999999999999787,4094,5,54,73
0.10000000000000142,4094,6,54,86
0.09999999999999787,4094,7,54,54
0.004545454545453964,4094,8,54,74
0.10000000000000142,4094,9,54,72
0.10000000000000142,4094,10,54,44
0.09999999999999787,4094,11,54,74
0.09999999999999787,4094,12,54,55
0.10000000000000142,4094,13,54,48
0.10000000000000142,4094,14,54,67
0.10000000000000142,4094,15,54,82
0.09999999999999432,4095,0,54,62
0.02499999999999858,4095,1,54,57
0.10000000000000142,4095,2,54,76
0.10000000000000142,4095,3,54,78
0.10000000000000142,4095,4,54,53
0.10000000000000142,4095,5,54,81
0.10000000000000142,4095,6,54,43
0.09999999999999432,4095,7,54,69
0.10000000000000142,4095,8,54,75
0.10000000000000142,4095,9,54,56
0.06818181818182012,4095,10,54,67
0.10000000000000142,4095,11,54,67
0.10000000000000142,4095,12,54,51
0.10000000000000142,4095,13,54,53
0.10000000000000142,4095,14,54,63
0.10000000000000142,4095,15,54,53
0.09999999999999432,4096,0,54,69
0.09999999999999432,4096,1,54,69
0.10000000000000142,4096,2,54,70
0.10000000000000142,4096,3,54,71
0.10000000000000142,4096,4,54,87
0.10000000000000142,4096,5,54,67
0.10000000000000142,4096,6,54,39
0.10000000000000142,4096,7,54,52
0.09999999999999432,4096,8,54,56
0.10000000000000142,4096,9,54,78
0.10000000000000142,4096,10,54,41
0.10000000000000142,4096,11,54,47
0.09999999999999432,4096,12,54,17
0.10000000000000853,4096,13,54,16
0.09999999999999432,4096,14,54,37
0.09999999999999432,4096,15,54,39
0.09999999999999432,4097,0,54,41
0.10000000000000853,4097,1,54,44
0.10000000000000853,4097,2,54,65
0.09999999999999432,4097,3,54,50
0.10000000000000853,4097,4,54,39
0.09999999999999432,4097,5,54,42
0.10000000000000853,4097,6,54,47
0.09999999999999432,4097,7,54,12
0.09999999999999432,4097,8,54,52
0.10000000000000853,4097,9,54,51
0.10000000000000853,4097,10,54,61
0.10000000000000853,4097,11,54,45
0.09999999999999432,4097,12,54,42
0.09999999999999432,4097,13,54,55
0.09999999999999432,4097,14,54,44
0.09999999999999432,4097,15,54,53
0.09999999999999432,4098,0,54,48
0.10000000000000853,4098,1,54,57
0.10000000000000853,4098,2,54,57
0.09999999999999432,4098,3,54,23
0.10000000000000853,4098,4,54,62
0.09999999999999432,4098,5,54,44
0.10000000000000853,4098,6,54,61
0.09999999999999432,4098,7,54,54
0.10000000000000853,4098,8,54,65
0.10000000000000853,4098,9,54,44
0.10000000000000853,4098,10,54,57
0.10000000000000853,4098,11,54,41
0.09999999999999432,4098,12,54,45
0.10000000000000853,4098,13,54,46
0.09999999999999432,4098,14,54,45
0.09999999999999432,4098,15,54,43
0.09999999999999432,4099,0,54,47
0.09999999999999432,4099,1,54,60
0.09999999999999432,4099,2,54,40
0.10000000000000853,4099,3,54,47
0.09999999999999432,4099,4,54,58
0.09999999999999432,4099,5,54,64
0.10000000000000853,4099,6,54,45
0.10000000000000853,4099,7,54,47
0.09999999999999432,4099,8,54,58
0.10000000000000853,4099,9,54,45
0.09999999999999432,4099,10,54,55
0.10000000000000853,4099,11,54,57
0.09999999999999432,4099,12,54,32
0.09999999999999432,4099,13,54,43
0.09999999999999432,4099,14,54,61
0.10000000000000853,4099,15,54,64
0.10000000000000853,4100,0,54,32
0.10000000000000853,4100,1,54,49
0.09999999999999432,4100,2,54,57
0.10000000000000853,4100,3,54,49
0.09999999999999432,4100,4,54,64
0.09999999999999432,4100,5,54,53
0.09999999999999432,4100,6,54,54
0.09999999999999432,4100,7,54,66
0.10000000000002274,4100,8,54,30
0.09999999999999432,4100,9,54,60
0.09999999999999432,4100,10,54,41
0.10000000000002274,4100,11,54,58
0.09999999999999432,4100,12,54,39
0.09999999999999432,4100,13,54,50
0.10000000000002274,4100,14,54,49
0.10000000000002274,4100,15,54,34
0.09999999999999432,4101,0,54,43
0.09999999999999432,4101,1,54,52
0.09999999999999432,4101,2,54,48
0.09999999999999432,4101,3,54,70
0.09999999999999432,4101,4,54,36
0.09999999999999432,4101,5,54,47
0.09999999999999432,4101,6,54,43
0.10000000000002274,4101,7,54,61
0.09999999999999432,4101,8,54,37
0.09999999999999432,4101,9,54,71
0.09999999999999432,4101,10,54,63
0.09999999999999432,4101,11,54,59
0.09999999999999432,4101,12,54,51
0.09999999999999432,4101,13,54,66
0.09999999999999432,4101,14,54,62
0.09999999999999432,4101,15,54,27
0.09999999999999432,4102,0,54,80
0.09999999999999432,4102,1,54,42
0.09999999999999432,4102,2,54,66
0.09999999999999432,4102,3,54,62
0.09999999999999432,4102,4,54,39
0.09999999999999432,4102,5,54,61
0.09999999999999432,4102,6,54,56
0.09999999999999432,4102,7,54,59
0.09999999999999432,4102,8,54,63
0.09999999999999432,4102,9,54,40
0.09999999999999432,4102,10,54,49
0.10000000000002274,4102,11,54,59
0.09999999999999432,4102,12,54,65
0.09999999999999432,4102,13,54,61
0.09999999999999432,4102,14,54,56
0.09999999999999432,4102,15,54,53
0.09999999999999432,4103,0,54,47
0.09999999999999432,4103,1,54,66
0.09999999999999432,4103,2,54,38
0.10000000000002274,4103,3,54,57
0.09999999999999432,4103,4,54,81
0.09999999999999432,4103,5,54,40
0.09999999999999432,4103,6,54,27
0.09999999999999432,4103,7,54,23
0.09999999999999432,4103,8,54,25
0.09999999999999432,4103,9,54,60
0.09999999999999432,4103,10,54,56
0.09999999999999432,4103,11,54,58
0.056818181818186986,4103,12,54,55
0.09999999999999432,4103,13,54,67
0.09999999999999432,4103,14,54,61
0.09999999999999432,4103,15,54,52
0.09999999999999432,4104,0,54,51
0.09999999999999432,4104,1,54,41
0.09999999999999432,4104,2,54,50
0.10000000000002274,4104,3,54,58
0.09999999999999432,4104,4,54,56
0.09999999999999432,4104,5,54,57
0.10000000000002274,4104,6,54,77
0.09999999999999432,4104,7,54,51
0.09999999999999432,4104,8,54,54
0.09999999999999432,4104,9,54,45
0.09999999999999432,4104,10,54,46
0.06818181818181301,4104,11,54,47
0.09999999999999432,4104,12,54,42
0.09999999999999432,4104,13,54,47
0.09999999999999432,4104,14,54,54
0.09999999999999432,4104,15,54,62
0.09999999999999432,4105,0,54,61
0.09999999999999432,4105,1,54,63
0.09999999999999432,4105,2,54,36
0.09999999999999432,4105,3,54,66
0.09999999999999432,4105,4,54,90
0.09999999999999432,4105,5,54,60
0.09999999999999432,4105,6,54,54
0.056818181818186986,4105,7,54,49
0.10000000000002274,4105,8,54,64
0.10000000000002274,4105,9,54,53
0.09999999999999432,4105,10,54,59
0.09999999999999432,4105,11,54,58
0.09999999999999432,4105,12,54,62
0.09999999999999987,4105,13,85,30
0.09999999999999987,4105,14,85,51
0.09999999999999964,4105,15,85,53
0.10000000000000009,4106,0,85,52
0.10000000000000009,4106,1,85,52
0.10000000000000053,4106,2,85,52
0.10000000000000053,4106,3,85,54
0.10000000000000053,4106,4,85,53
0.10000000000000053,4106,5,85,47
0.09999999999999964,4106,6,85,52
0.09999999999999964,4106,7,85,55
0.09999999999999964,4106,8,85,53
0.09999999999999964,4106,9,85,51
0.09999999999999964,4106,10,85,59
0.09999999999999964,4106,11,85,60
0.09999999999999964,4106,12,85,50
0.09999999999999964,4106,13,85,127
0.09999999999999964,4106,14,85,45
0.10000000000000142,4106,15,85,61
0.09999999999999964,4107,0,85,127
0.10000000000000142,4107,1,85,44
0.10000000000000142,4107,2,85,127
0.09999999999999964,4107,3,85,127
0.10000000000000142,4107,4,85,70
0.09999999999999964,4107,5,85,127
0.10000000000000142,4107,6,85,48
0.09999999999999964,4107,7,85,54
0.09999999999999964,4107,8,85,127
0.09999999999999964,4107,9,85,46
0.09999999999999964,4107,10,85,127
0.10000000000000142,4107,11,85,127
0.09999999999999964,4107,12,85,75
0.09999999999999964,4107,13,85,127
0.09999999999999964,4107,14,85,47
0.10000000000000142,4107,15,85,58
0.09999999999999787,4108,0,85,127
0.10000000000000142,4108,1,85,45
0.10000000000000142,4108,2,85,127
0.09999999999999787,4108,3,85,127
0.10000000000000142,4108,4,85,72
0.10000000000000142,4108,5,85,127
0.10000000000000142,4108,6,85,43
0.10000000000000142,4108,7,85,58
0.10000000000000142,4108,8,85,127
0.10000000000000142,4108,9,85,46
0.09999999999999787,4108,10,85,127
0.10000000000000142,4108,11,85,127
0.10000000000000142,4108,12,85,78
0.09999999999999787,4108,13,85,127
0.10000000000000142,4108,14,85,46
0.09999999999999787,4108,15,85,58
0.10000000000000142,4109,0,85,127
0.09999999999999787,4109,1,85,46
0.10000000000000142,4109,2,85,127
0.10000000000000142,4109,3,85,127
0.09999999999999787,4109,4,85,70
0.09999999999999787,4109,5,85,127
0.09999999999999787,4109,6,85,46
0.10000000000000142,4109,7,85,59
0.09999999999999787,4109,8,85,127
0.10000000000000142,4109,9,85,48
0.09999999999999787,4109,10,85,127
0.09999999999999787,4109,11,85,127
0.10000000000000142,4109,12,85,75
0.10000000000000142,4109,13,85,127
0.10000000000000142,4109,14,85,48
0.10000000000000142,4109,15,85,57
0.10000000000000142,4110,0,85,127
0.10000000000000142,4110,1,85,47
0.10000000000000142,4110,2,85,127
0.10000000000000142,4110,3,85,127
0.10000000000000142,4110,4,85,75
0.09999999999999787,4110,5,85,127
0.10000000000000142,4110,6,85,49
0.09999999999999787,4110,7,85,61
0.09999999999999787,4110,8,85,127
0.09999999999999787,4110,9,85,47
0.10000000000000142,4110,10,85,127
0.10000000000000142,4110,11,85,127
0.09999999999999787,4110,12,85,73
0.10000000000000142,4110,13,85,127
0.09999999999999787,4110,14,85,26
0.10000000000000142,4110,15,85,127
0.10000000000000142,4111,0,85,25
0.10000000000000142,4111,1,85,127
0.10000000000000142,4111,2,85,23
0.10000000000000142,4111,3,85,127
0.09999999999999787,4111,4,85,21
0.09999999999999432,4111,5,85,127
0.10000000000000142,4111,6,85,22
0.10000000000000142,4111,7,85,127
0.10000000000000142,4111,8,85,24
0.10000000000000142,4111,9,85,127
0.10000000000000142,4111,10,85,24
0.10000000000000142,4111,11,85,127
0.10000000000000142,4111,12,85,24
0.10000000000000142,4111,13,85,127
0.10000000000000142,4111,14,85,22
0.10000000000000142,4111,15,85,127
0.10000000000000142,4112,0,85,25
0.10000000000000142,4112,1,85,127
0.10000000000000142,4112,2,85,22
0.09999999999999432,4112,3,85,127
0.10000000000000142,4112,4,85,23
0.10000000000000142,4112,5,85,127
0.10000000000000142,4112,6,85,24
0.09999999999999432,4112,7,85,127
0.10000000000000142,4112,8,85,25
0.09999999999999432,4112,9,85,127
0.09999999999999432,4112,10,85,23
0.10000000000000142,4112,11,85,127
0.10000000000000142,4112,12,85,24
0.10000000000000142,4112,13,85,127
0.09999999999999432,4112,14,85,110
0.10000000000000142,4112,15,85,127
0.10000000000000142,4113,0,85,127
0.10000000000000142,4113,1,85,127
0.10000000000000142,4113,2,85,59
0.10000000000000142,4113,3,85,127
0.10000000000000142,4113,4,85,33
0.10000000000000142,4113,5,85,127
0.10000000000000142,4113,6,85,99
0.10000000000000142,4113,7,85,127
0.09999999999999432,4113,8,85,23
0.10000000000000142,4113,9,85,127
0.10000000000000142,4113,10,85,127
0.10000000000000142,4113,11,85,97
0.09999999999999432,4113,12,85,127
0.10000000000000142,4113,13,85,22
0.10000000000000142,4113,14,85,127
0.10000000000000142,4113,15,85,93
0.10000000000000142,4114,0,85,127
0.10000000000000142,4114,1,85,22
0.10000000000000142,4114,2,85,127
0.09999999999999432,4114,3,85,127
0.09999999999999432,4114,4,85,100
0.10000000000000142,4114,5,85,127
0.10000000000000142,4114,6,85,21
0.10000000000000142,4114,7,85,127
0.10000000000000142,4114,8,85,104
0.10000000000000142,4114,9,85,124
0.10000000000000142,4114,10,85,22
0.09999999999999432,4114,11,85,127
0.10000000000000142,4114,12,85,127
0.10000000000000142,4114,13,85,108
0.10000000000000142,4114,14,85,127
0.10000000000000142,4114,15,85,22
0.10000000000000142,4115,0,85,127
0.09999999999999432,4115,1,85,93
0.10000000000000142,4115,2,85,127
0.10000000000000142,4115,3,85,22
0.10000000000000142,4115,4,85,127
0.09999999999999432,4115,5,85,118
0.10000000000000142,4115,6,85,127
0.10000000000000142,4115,7,85,36
0.10000000000000142,4115,8,85,108
0.09999999999999432,4115,9,85,127
0.09999999999999432,4115,10,85,26
0.09999999999999432,4115,11,85,127
0.10000000000000142,4115,12,85,95
0.09999999999999432,4115,13,85,127
0.10000000000000142,4115,14,85,22
0.10000000000000142,4115,15,85,127
0.10000000000000142,4116,0,85,127
0.10000000000000142,4116,1,85,100
0.10000000000000142,4116,2,85,127
0.10000000000000142,4116,3,85,22
0.10000000000000142,4116,4,85,127
0.10000000000000142,4116,5,85,87
0.10000000000000142,4116,6,85,127
0.10000000000000142,4116,7,85,23
0.10000000000000142,4116,8,85,127
0.10000000000000142,4116,9,85,127
0.10000000000000142,4116,10,85,103
0.09999999999999432,4116,11,85,127
0.10000000000000142,4116,12,85,21
0.10000000000000142,4116,13,85,127
0.10000000000000142,4116,14,85,91
0.10000000000000142,4116,15,85,127
0.09999999999999432,4117,0,85,21
0.10000000000000142,4117,1,85,127
0.10000000000000142,4117,2,85,127
0.09999999999999432,4117,3,85,98
0.09999999999999432,4117,4,85,127
0.10000000000000142,4117,5,85,22
0.10000000000000142,4117,6,85,127
0.10000000000000142,4117,7,85,94
0.10000000000000142,4117,8,85,127
0.10000000000000142,4117,9,85,75
0.09999999999999432,4117,10,85,127
0.10000000000000142,4117,11,85,104
0.09999999999999432,4117,12,85,127
0.10000000000000142,4117,13,85,16
0.10000000000000142,4117,14,85,77
0.10000000000000142,4117,15,85,127
0.10000000000000142,4118,0,85,127
0.10000000000000142,4118,1,85,86
0.10000000000000142,4118,2,85,127
0.10000000000000142,4118,3,85,127
0.10000000000000142,4118,4,85,127
0.10000000000000142,4118,5,85,85
0.10000000000000142,4118,6,85,127
0.10000000000000142,4118,7,85,87
0.10000000000000142,4118,8,85,127
0.09999999999999432,4118,9,85,95
0.10000000000000853,4118,10,85,127
0.09999999999999432,4118,11,85,127
0.10000000000000853,4118,12,85,127
0.09999999999999432,4118,13,85,127
0.10000000000000853,4118,14,85,121
0.09999999999999432,4118,15,85,127
0.09999999999999432,4119,0,85,127
0.09999999999999432,4119,1,85,7
0.10000000000000853,4119,2,85,127
0.10000000000000853,4119,3,85,6
0.09999999999999432,4119,4,85,127
0.10000000000000853,4119,5,85,6
0.10000000000000853,4119,6,85,127
0.09999999999999432,4119,7,85,7
0.09999999999999432,4119,8,85,127
0.09999999999999432,4119,9,85,7
0.09999999999999432,4119,10,85,127
0.09999999999999432,4119,11,85,6
0.09999999999999432,4119,12,85,127
0.09999999999999432,4119,13,85,7
0.09999999999999432,4119,14,85,127
0.09999999999999432,4119,15,85,6
0.10000000000000853,4120,0,85,100
0.10000000000000853,4120,1,85,6
0.10000000000000853,4120,2,85,127
0.10000000000000853,4120,3,85,6
0.10000000000000853,4120,4,85,127
0.10000000000000853,4120,5,85,5
0.10000000000000853,4120,6,85,118
0.10000000000000853,4120,7,85,127
0.09999999999999432,4120,8,85,72
0.09999999999999432,4120,9,85,74
0.09999999999999432,4120,10,85,127
0.10000000000000853,4120,11,85,17
0.09999999999999432,4120,12,85,127
0.10000000000000853,4120,13,85,78
0.10000000000000853,4120,14,85,127
0.10000000000000853,4120,15,85,3
0.09999999999999432,4121,0,85,127
0.09999999999999432,4121,1,85,127
0.09999999999999432,4121,2,85,72
0.09999999999999432,4121,3,85,127
0.09999999999999432,4121,4,85,4
0.10000000000000853,4121,5,85,127
0.09999999999999432,4121,6,85,70
0.09999999999999432,4121,7,85,127
0.09999999999999432,4121,8,85,3
0.09999999999999432,4121,9,85,127
0.09999999999999432,4121,10,85,127
0.10000000000000853,4121,11,85,75
0.10000000000000853,4121,12,85,127
0.10000000000000853,4121,13,85,4
0.09999999999999432,4121,14,85,127
0.09999999999999432,4121,15,85,70
0.10000000000000853,4122,0,85,127
0.09999999999999432,4122,1,85,4
0.10000000000000853,4122,2,85,127
0.10000000000000853,4122,3,85,127
0.09999999999999432,4122,4,85,74
0.09999999999999432,4122,5,85,127
0.09999999999999432,4122,6,85,4
0.09999999999999432,4122,7,85,127
0.10000000000000853,4122,8,85,72
0.09999999999999432,4122,9,85,127
0.10000000000000853,4122,10,85,3
0.09999999999999432,4122,11,85,127
0.09999999999999432,4122,12,85,127
0.10000000000000853,4122,13,85,81
0.10000000000000853,4122,14,85,127
0.09999999999999432,4122,15,85,127
0.10000000000000853,4123,0,85,74
0.10000000000000853,4123,1,85,127
0.09999999999999432,4123,2,85,127
0.09999999999999432,4123,3,85,127
0.09999999999999432,4123,4,85,76
0.09999999999999432,4123,5,85,127
0.10000000000000853,4123,6,85,127
0.09999999999999432,4123,7,85,69
0.09999999999999432,4123,8,85,127
0.09999999999999432,4123,9,85,127
0.09999999999999432,4123,10,85,127
0.10000000000000853,4123,11,85,77
0.10000000000000853,4123,12,85,127
0.09999999999999432,4123,13,85,127
0.09999999999999432,4123,14,85,61
0.10000000000000853,4123,15,85,127
0.10000000000000853,4124,0,85,127
0.10000000000000853,4124,1,85,127
0.09999999999999432,4124,2,85,86
0.09999999999999432,4124,3,85,127
0.09999999999999432,4124,4,85,127
0.10000000000000853,4124,5,85,57
0.09999999999999432,4124,6,85,127
0.09999999999999432,4124,7,85,127
0.10000000000000853,4124,8,85,72
0.09999999999999432,4124,9,85,127
0.10000000000000853,4124,10,85,49
0.09999999999999432,4124,11,85,54
0.10000000000000853,4124,12,85,127
0.09999999999999432,4124,13,85,127
0.09999999999999432,4124,14,85,76
0.09999999999999432,4124,15,85,127
0.10000000000000853,4125,0,85,127
0.10000000000000853,4125,1,85,127
0.09999999999999432,4125,2,85,78
0.09999999999999432,4125,3,85,127
0.09999999999999432,4125,4,85,127
0.10000000000000853,4125,5,85,70
0.10000000000000853,4125,6,85,127
0.09999999999999432,4125,7,85,127
0.09999999999999432,4125,8,85,127
0.09999999999999432,4125,9,85,80
0.09999999999999432,4125,10,85,127
0.10000000000000853,4125,11,85,127
0.09999999999999432,4125,12,85,69
0.09999999999999432,4125,13,85,127
0.09999999999999432,4125,14,85,127
0.09999999999999432,4125,15,85,127
0.10000000000000853,4126,0,85,76
0.10000000000000853,4126,1,85,127
0.09999999999999432,4126,2,85,127
0.10000000000000853,4126,3,85,54
0.10000000000000853,4126,4,85,127
0.10000000000000853,4126,5,85,127
0.10000000000000853,4126,6,85,127
0.09999999999999432,4126,7,85,70
0.09999999999999432,4126,8,85,127
0.09999999999999432,4126,9,85,127
0.09999999999999432,4126,10,85,127
0.10000000000000853,4126,11,85,127
0.10000000000000853,4126,12,85,101
0.09999999999999432,4126,13,85,127
0.09999999999999432,4126,14,85,127
0.09999999999999432,4126,15,85,127
0.09999999999999432,4127,0,85,127
0.10000000000000853,4127,1,85,127
0.10000000000000853,4127,2,85,127
0.10000000000000853,4127,3,85,127
0.09999999999999432,4127,4,85,127
0.09999999999999432,4127,5,85,127
0.09999999999999432,4127,6,85,127
0.09999999999999432,4127,7,85,127
0.09999999999999432,4127,8,85,127
0.10000000000000853,4127,9,85,115
0.10000000000000853,4127,10,85,127
0.09999999999999432,4127,11,85,92
0.10000000000000853,4127,12,85,96
0.09999999999999432,4127,13,85,127
0.10000000000000853,4127,14,85,127
0.09999999999999432,4127,15,85,84
0.09999999999999432,4128,0,85,127
0.09999999999999432,4128,1,85,127
0.09999999999999432,4128,2,85,127
0.10000000000000853,4128,3,85,82
0.10000000000000853,4128,4,85,127
0.09999999999999432,4128,5,85,127
0.10000000000000853,4128,6,85,68
0.09999999999999432,4128,7,85,127
0.10000000000000853,4128,8,85,127
0.10000000000000853,4128,9,85,127
0.09999999999999432,4128,10,85,77
0.09999999999999432,4128,11,85,127
0.09999999999999432,4128,12,85,127
0.10000000000000853,4128,13,85,66
0.10000000000000853,4128,14,85,127
0.09999999999999432,4128,15,85,127
0.09999999999999432,4129,0,85,127
0.10000000000000853,4129,1,85,66
0.09999999999999432,4129,2,85,127
0.09999999999999432,4129,3,85,127
0.09999999999999432,4129,4,85,71
0.09999999999999432,4129,5,85,127
0.10000000000002274,4129,6,85,84
0.09999999999999432,4129,7,85,127
0.09999999999999432,4129,8,85,102
0.09999999999999432,4129,9,85,127
0.09999999999999432,4129,10,85,77
0.10000000000002274,4129,11,85,95
0.10000000000002274,4129,12,85,127
0.10000000000002274,4129,13,85,127
0.09999999999999432,4129,14,85,95
0.09999999999999432,4129,15,85,127
0.09999999999999432,4130,0,85,127
0.10000000000002274,4130,1,85,92
0.09999999999999432,4130,2,85,127
0.09999999999999432,4130,3,85,127
0.09999999999999432,4130,4,85,79
0.10000000000002274,4130,5,85,127
0.09999999999999432,4130,6,85,77
0.10000000000002274,4130,7,85,127
0.09999999999999432,4130,8,85,98
0.10000000000002274,4130,9,85,91
0.09999999999999432,4130,10,85,70
0.09999999999999432,4130,11,85,127
0.09999999999999432,4130,12,85,127
0.09999999999999432,4130,13,85,91
0.09999999999999432,4130,14,85,127
0.09999999999999432,4130,15,85,127
0.09999999999999432,4131,0,85,127
0.09999999999999432,4131,1,85,79
0.10000000000002274,4131,2,85,127
0.10000000000002274,4131,3,85,127
0.10000000000002274,4131,4,85,77
0.09999999999999432,4131,5,85,127
0.09999999999999432,4131,6,85,73
0.10000000000002274,4131,7,85,127
0.09999999999999432,4131,8,85,87
0.09999999999999432,4131,9,85,127
0.09999999999999432,4131,10,85,73
0.09999999999999432,4131,11,85,92
0.09999999999999432,4131,12,85,127
0.09999999999999432,4131,13,85,127
0.09999999999999432,4131,14,85,74
0.09999999999999432,4131,15,85,127
0.09999999999999432,4132,0,85,127
0.09999999999999432,4132,1,85,127
0.09999999999999432,4132,2,85,83
0.09999999999999432,4132,3,85,127
0.10000000000002274,4132,4,85,127
0.09999999999999432,4132,5,85,75
0.09999999999999432,4132,6,85,127
0.09999999999999432,4132,7,85,95
0.09999999999999432,4132,8,85,127
0.09999999999999432,4132,9,85,88
0.09999999999999432,4132,10,85,127
0.09999999999999432,4132,11,85,55
0.09999999999999432,4132,12,85,81
0.09999999999999432,4132,13,85,127
0.09999999999999432,4132,14,85,127
0.10000000000002274,4132,15,85,69
0.09999999999999432,4133,0,85,127
0.09999999999999432,4133,1,85,127
0.09999999999999432,4133,2,85,93
0.09999999999999432,4133,3,85,127
0.09999999999999432,4133,4,85,127
0.09999999999999432,4133,5,85,127
0.09999999999999432,4133,6,85,78
0.10000000000002274,4133,7,85,127
0.09999999999999432,4133,8,85,127
0.10000000000002274,4133,9,85,87
0.09999999999999432,4133,10,85,106
0.10000000000002274,4133,11,85,127
0.09999999999999432,4133,12,85,127
0.09999999999999432,4133,13,85,81
0.09999999999999432,4133,14,85,127
0.09999999999999432,4133,15,85,127
0.09999999999999432,4134,0,85,83
0.09999999999999432,4134,1,85,127
0.09999999999999432,4134,2,85,127
0.09999999999999432,4134,3,85,127
0.10000000000002274,4134,4,85,83
0.09999999999999432,4134,5,85,127
0.09999999999999432,4134,6,85,100
0.09999999999999432,4134,7,85,80
0.09999999999999432,4134,8,85,127
0.10000000000002274,4134,9,85,95
0.09999999999999432,4134,10,85,127
0.09999999999999432,4134,11,85,77
0.09999999999999432,4134,12,85,127
0.09999999999999432,4134,13,85,83
0.09999999999999432,4134,14,85,88
0.09999999999999432,4134,15,85,127
0.09999999999999432,4135,0,85,127
0.09999999999999432,4135,1,85,96
0.10000000000002274,4135,2,85,127
0.09999999999999432,4135,3,85,127
0.09999999999999432,4135,4,85,126
0.09999999999999432,4135,5,85,82
0.09999999999999432,4135,6,85,127
0.09999999999999432,4135,7,85,122
0.09999999999999432,4135,8,85,127
0.09999999999999432,4135,9,85,119
0.09999999999999432,4135,10,85,125
0.10000000000002274,4135,11,85,127
0.09999999999999432,4135,12,85,62
0.09999999999999432,4135,13,85,81
0.09999999999999432,4135,14,85,96
0.09999999999999432,4135,15,85,105
0.09999999999999432,4136,0,85,85
0.09999999999999432,4136,1,85,91
0.09999999999999432,4136,2,85,77
0.10000000000002274,4136,3,85,81
0.09999999999999432,4136,4,85,127
0.09999999999999432,4136,5,85,92
0.09999999999999432,4136,6,85,127
0.09999999999999432,4136,7,85,75
0.09999999999999432,4136,8,85,127
0.09999999999999432,4136,9,85,127
0.09999999999999432,4136,10,85,127
0.09999999999999432,4136,11,85,73
0.10000000000002274,4136,12,85,127
0.10000000000002274,4136,13,85,127
0.09999999999999432,4136,14,85,70
0.09999999999999432,4136,15,85,127
0.09999999999999432,4137,0,85,127
0.09999999999999432,4137,1,85,127
0.10000000000002274,4137,2,85,76
0.09999999999999432,4137,3,85,127
0.09999999999999432,4137,4,85,127
0.09999999999999432,4137,5,85,72
0.10000000000002274,4137,6,85,127
0.09999999999999432,4137,7,85,127
0.10000000000002274,4137,8,85,127
0.09999999999999432,4137,9,85,75
0.09999999999999432,4137,10,85,126
0.09999999999999432,4137,11,85,127
0.09999999999999432,4137,12,85,110
0.09999999999999432,4137,13,85,69
0.09999999999999432,4137,14,85,124
0.09999999999999432,4137,15,85,65
0.09999999999999432,4138,0,85,127
0.10000000000002274,4138,1,85,76
0.09999999999999432,4138,2,85,127
0.09999999999999432,4138,3,85,66
0.09999999999999432,4138,4,85,86
0.09999999999999432,4138,5,85,127
0.09999999999999432,4138,6,85,127
0.10000000000002274,4138,7,85,69
0.09999999999999432,4138,8,85,127
0.10000000000002274,4138,9,85,127
0.09999999999999432,4138,10,85,127
0.09999999999999432,4138,11,85,76
0.09999999999999432,4138,12,85,106
0.09999999999999432,4138,13,85,127
0.09999999999999432,4138,14,85,68
0.09999999999999432,4138,15,85,127
0.09999999999999432,4139,0,85,127
0.09999999999999432,4139,1,85,127
0.09999999999999432,4139,2,85,73
0.09999999999999432,4139,3,85,127
0.10000000000002274,4139,4,85,127
0.09999999999999432,4139,5,85,67
0.09999999999999432,4139,6,85,127
0.09999999999999432,4139,7,85,127
0.09999999999999432,4139,8,85,127
0.10000000000002274,4139,9,85,75
0.09999999999999432,4139,10,85,127
0.09999999999999432,4139,11,85,127
0.10000000000002274,4139,12,85,127
0.09999999999999432,4139,13,85,127
0.10000000000002274,4139,14,85,127
0.09999999999999964,4139,15,61,1
0.09999999999999964,4140,0,61,20
0.10000000000000853,4140,1,59,7
0.09999999999999432,4140,2,59,7
0.10000000000000853,4140,3,59,4
0.09999999999999432,4140,4,59,5
0.09999999999999432,4140,5,59,7
0.10000000000000853,4140,6,59,8
0.10000000000000853,4140,7,59,7
0.10000000000000853,4140,8,59,10
0.10000000000000853,4140,9,59,11
0.10000000000000853,4140,10,59,9
0.10000000000000853,4140,11,59,9
0.09999999999999432,4140,12,59,10
0.10000000000000853,4140,13,59,7
0.09999999999999432,4140,14,59,5
0.10000000000000853,4140,15,59,13
0.10000000000000853,4141,0,59,11
0.09999999999999432,4141,1,59,13
0.09999999999999432,4141,2,59,7
0.09999999999999432,4141,3,59,11
0.10000000000000853,4141,4,59,5
0.10000000000000853,4141,5,59,7
0.10000000000000853,4141,6,59,5
0.09999999999999432,4141,7,59,5
0.09999999999999432,4141,8,59,8
0.10000000000000853,4141,9,59,7
0.10000000000000853,4141,10,59,7
0.10000000000000853,4141,11,59,10
0.09999999999999432,4141,12,59,4
0.09999999999999432,4141,13,59,11
0.09999999999999432,4141,14,59,10
0.09999999999999432,4141,15,59,8
0.10000000000000853,4142,0,59,8
0.10000000000000853,4142,1,59,8
0.09999999999999432,4142,2,59,5
0.09999999999999432,4142,3,59,5
0.10000000000000853,4142,4,59,8
0.09999999999999432,4142,5,59,14
0.09999999999999432,4142,6,59,10
0.09999999999999432,4142,7,59,12
0.09999999999999432,4142,8,59,8
0.10000000000000853,4142,9,59,6
0.09999999999999432,4142,10,59,8
0.10000000000000853,4142,11,59,3
0.09999999999999432,4142,12,59,4
0.10000000000000853,4142,13,59,4
0.10000000000000853,4142,14,59,7
0.10000000000000853,4142,15,59,11
0.10000000000000853,4143,0,59,11
0.09999999999999432,4143,1,59,8
0.09999999999999432,4143,2,59,9
0.09999999999999432,4143,3,59,7
0.10000000000000853,4143,4,59,8
0.09999999999999432,4143,5,59,13
0.09999999999999432,4143,6,59,3
0.09999999999999432,4143,7,59,19
0.10000000000000853,4143,8,59,10
0.09999999999999432,4143,9,59,9
0.09999999999999432,4143,10,59,10
0.10000000000000853,4143,11,59,4
0.10000000000000853,4143,12,59,8
0.10000000000000853,4143,13,59,7
0.10000000000000853,4143,14,59,6
0.10000000000000853,4143,15,59,7
0.10000000000000853,4144,0,59,6
0.10000000000000853,4144,1,59,8
0.09999999999999432,4144,2,59,6
0.09999999999999432,4144,3,59,6
0.10000000000000853,4144,4,59,9
0.09999999999999432,4144,5,59,4
0.09999999999999432,4144,6,59,3
0.10000000000000853,4144,7,59,6
0.09999999999999432,4144,8,59,6
0.09999999999999432,4144,9,59,5
0.10000000000000853,4144,10,59,5
0.10000000000000853,4144,11,59,15
0.09999999999999432,4144,12,59,9
0.10000000000000853,4144,13,59,10
0.10000000000000853,4144,14,59,12
0.09999999999999432,4144,15,59,9
0.10000000000000853,4145,0,59,15
0.09999999999999432,4145,1,59,15
0.09999999999999432,4145,2,59,13
0.09999999999999432,4145,3,59,14
0.09999999999999432,4145,4,59,14
0.09999999999999432,4145,5,59,8
0.09999999999999432,4145,6,59,14
0.09999999999999432,4145,7,59,13
0.10000000000000853,4145,8,59,13
0.09999999999999432,4145,9,59,11
0.09999999999999432,4145,10,59,17
0.10000000000000853,4145,11,59,10
0.09999999999999432,4145,12,59,11
0.10000000000000853,4145,13,59,13
0.10000000000000853,4145,14,59,7
0.10000000000000853,4145,15,59,10
0.09999999999999432,4146,0,59,7
0.10000000000000853,4146,1,59,12
0.09999999999999432,4146,2,59,6
0.09999999999999432,4146,3,59,10
0.10000000000000853,4146,4,59,13
0.09999999999999432,4146,5,59,9
0.09999999999999432,4146,6,59,8
0.10000000000000853,4146,7,59,8
0.10000000000000853,4146,8,59,12
0.09999999999999432,4146,9,59,8
0.09999999999999432,4146,10,59,15
0.09999999999999432,4146,11,59,11
0.09999999999999432,4146,12,59,16
0.09999999999999432,4146,13,59,14
0.09999999999999432,4146,14,59,14
0.10000000000000853,4146,15,59,7
0.10000000000000853,4147,0,59,12
0.10000000000000853,4147,1,59,14
0.10000000000000853,4147,2,59,9
0.10000000000000853,4147,3,59,10
0.10000000000000853,4147,4,59,11
0.09999999999999432,4147,5,59,8
0.09999999999999432,4147,6,59,12
0.09999999999999432,4147,7,59,12
0.10000000000002274,4147,8,59,16
0.09999999999999432,4147,9,59,19
0.09999999999999432,4147,10,59,14
0.10000000000002274,4147,11,59,8
0.09999999999999432,4147,12,59,14
0.10000000000002274,4147,13,59,16
0.10000000000002274,4147,14,59,9
0.09999999999999432,4147,15,59,8
0.09999999999999432,4148,0,59,9
0.09999999999999432,4148,1,59,12
0.09999999999999432,4148,2,59,2
0.09999999999999432,4148,3,59,15
0.09999999999999432,4148,4,59,11
0.10000000000002274,4148,5,59,11
0.09999999999999432,4148,6,59,10
0.09999999999999432,4148,7,59,11
0.10000000000002274,4148,8,59,15
0.09999999999999432,4148,9,59,11
0.09999999999999432,4148,10,59,11
0.10000000000002274,4148,11,59,9
0.09999999999999432,4148,12,59,11
0.09999999999999432,4148,13,59,7
0.09999999999999432,4148,14,59,12
0.09999999999999432,4148,15,59,11
0.10000000000002274,4149,0,59,9
0.09999999999999432,4149,1,59,10
0.10000000000002274,4149,2,59,7
0.10000000000002274,4149,3,59,11
0.09999999999999432,4149,4,59,8
0.09999999999999432,4149,5,59,11
0.09999999999999432,4149,6,59,12
0.10000000000002274,4149,7,59,12
0.09999999999999432,4149,8,59,12
0.09999999999999432,4149,9,59,9
0.09999999999999432,4149,10,59,12
0.09999999999999432,4149,11,59,7
0.09999999999999432,4149,12,59,12
0.09999999999999432,4149,13,59,10
0.09999999999999432,4149,14,59,14
0.09999999999999432,4149,15,59,10
0.10000000000002274,4150,0,59,11
0.09999999999999432,4150,1,59,12
0.09999999999999432,4150,2,59,14
0.10000000000002274,4150,3,59,9
0.09999999999999432,4150,4,59,11
0.09999999999999432,4150,5,59,12
0.09999999999999432,4150,6,59,15
0.09999999999999432,4150,7,59,22
0.09999999999999432,4150,8,59,16
0.09999999999999432,4150,9,59,12
0.09999999999999432,4150,10,59,12
0.09999999999999432,4150,11,59,14
0.09999999999999432,4150,12,59,14
0.09999999999999432,4150,13,59,14
0.09999999999999432,4150,14,59,10
0.09999999999999432,4150,15,59,13
0.09999999999999432,4151,0,59,8
0.09999999999999432,4151,1,59,11
0.09999999999999432,4151,2,59,11
0.09999999999999432,4151,3,59,8
0.09999999999999432,4151,4,59,15
0.09999999999999432,4151,5,59,10
0.10000000000002274,4151,6,59,4
0.10000000000002274,4151,7,59,10
0.09999999999999432,4151,8,59,10
0.10000000000002274,4151,9,59,14
0.09999999999999432,4151,10,59,10
0.09999999999999432,4151,11,59,13
0.09999999999999432,4151,12,59,11
0.09999999999999432,4151,13,59,11
0.09999999999999432,4151,14,59,12
0.09999999999999432,4151,15,59,13
0.09999999999999432,4152,0,59,13
0.09999999999999432,4152,1,59,12
0.09999999999999432,4152,2,59,14
0.09999999999999432,4152,3,59,12
0.09999999999999432,4152,4,59,13
0.09999999999999432,4152,5,59,11
0.09999999999999432,4152,6,59,17
0.09999999999999432,4152,7,59,10
0.09999999999999432,4152,8,59,11
0.09999999999999432,4152,9,59,8
0.09999999999999432,4152,10,59,13
0.10000000000002274,4152,11,59,12
0.10000000000002274,4152,12,59,9
0.09999999999999432,4152,13,59,11
0.09999999999999432,4152,14,59,9
0.10000000000002274,4152,15,59,11
0.09999999999999432,4153,0,59,10
0.09999999999999432,4153,1,59,13
0.09999999999999432,4153,2,59,9
0.10000000000002274,4153,3,59,11
0.10000000000002274,4153,4,59,36
0.09999999999999432,4153,5,59,19
0.09999999999999432,4153,6,59,23
0.09999999999999432,4153,7,59,21
0.10000000000002274,4153,8,59,13
0.09999999999999432,4153,9,59,21
0.09999999999999432,4153,10,59,15
0.09999999999999432,4153,11,59,24
0.09999999999999432,4153,12,59,16
0.10000000000002274,4153,13,59,26
0.10000000000002274,4153,14,59,16
0.09999999999999432,4153,15,59,25
0.09999999999999432,4154,0,59,27
0.09999999999999432,4154,1,59,30
0.09999999999999432,4154,2,59,30
0.09999999999999432,4154,3,59,38
0.09999999999999432,4154,4,59,36
0.09999999999999432,4154,5,59,18
0.09999999999999432,4154,6,59,23
0.10000000000002274,4154,7,59,27
0.09999999999999432,4154,8,59,22
0.10000000000002274,4154,9,59,34
0.10000000000002274,4154,10,59,24
0.09999999999999432,4154,11,59,25
0.10000000000002274,4154,12,59,16
0.09999999999999432,4154,13,59,23
0.09999999999999432,4154,14,59,19
0.09999999999999432,4154,15,59,21
0.09999999999999432,4155,0,59,27
0.09999999999999432,4155,1,59,17
0.10000000000002274,4155,2,59,11
0.09999999999999432,4155,3,59,16
0.09999999999999432,4155,4,59,11
0.09999999999999432,4155,5,59,11
0.09999999999999432,4155,6,59,8
0.09999999999999432,4155,7,59,16
0.09999999999999432,4155,8,59,18
0.09999999999999432,4155,9,59,16
0.09999999999999432,4155,10,59,10
0.09999999999999432,4155,11,59,19
0.10000000000002274,4155,12,59,21
0.09999999999999432,4155,13,59,16
0.09999999999999432,4155,14,59,9
0.10000000000002274,4155,15,59,11
0.10000000000002274,4156,0,59,18
0.09999999999999432,4156,1,59,15
0.09999999999999432,4156,2,59,8
0.10000000000002274,4156,3,59,11
0.09999999999999432,4156,4,59,9
0.10000000000002274,4156,5,59,14
0.09999999999999432,4156,6,59,11
0.09999999999999432,4156,7,59,6
0.09999999999999432,4156,8,59,15
0.09999999999999432,4156,9,59,10
0.09999999999999432,4156,10,59,14
0.10000000000002274,4156,11,59,15
0.09999999999999432,4156,12,59,8
0.09999999999999432,4156,13,59,11
0.09999999999999432,4156,14,59,9
0.10000000000002274,4156,15,59,16
0.10000000000002274,4157,0,59,9
0.09999999999999432,4157,1,59,6
0.09999999999999432,4157,2,59,12
0.09999999999999432,4157,3,59,11
0.10000000000002274,4157,4,59,13
0.10000000000002274,4157,5,59,12
0.09999999999999432,4157,6,59,15
0.09999999999999432,4157,7,59,10
0.09999999999999432,4157,8,59,10
0.09999999999999432,4157,9,59,15
0.09999999999999432,4157,10,59,12
0.09999999999999432,4157,11,59,15
0.09999999999999432,4157,12,59,11
0.09999999999999432,4157,13,59,16
0.09999999999999432,4157,14,59,11
0.10000000000002274,4157,15,59,14
0.09999999999999432,4158,0,59,11
0.09999999999999432,4158,1,59,15
0.09999999999999432,4158,2,59,15
0.09999999999999432,4158,3,59,15
0.09999999999999432,4158,4,59,28
0.09999999999999432,4158,5,59,7
0.09999999999999432,4158,6,59,22
0.10000000000002274,4158,7,59,7
0.09999999999999432,4158,8,59,12
0.09999999999999432,4158,9,59,11
0.09999999999999432,4158,10,59,13
0.09999999999999432,4158,11,59,8
0.09999999999999432,4158,12,59,18
0.09999999999999432,4158,13,59,33
0.09999999999999432,4158,14,59,19
0.09999999999999432,4158,15,59,10
0.10000000000002274,4159,0,59,8
0.04772727272728616,4159,1,59,18
0.09999999999999432,4159,2,59,3
0.09999999999999432,4159,3,59,31
0.09999999999999432,4159,4,59,33
0.09999999999999432,4159,5,59,41
0.09999999999999432,4159,6,59,42
0.09999999999999432,4159,7,59,42
0.09999999999999432,4159,8,59,9
0.09999999999999432,4159,9,59,19
0.10000000000002274,4159,10,59,10
0.09999999999999432,4159,11,59,11
0.09999999999999432,4159,12,59,15
0.09999999999999432,4159,13,59,11
0.09999999999999432,4159,14,59,15
0.10000000000002274,4159,15,59,19
0.10000000000002274,4160,0,59,12
0.10000000000002274,4160,1,59,13
0.09999999999999432,4160,2,59,16
0.09999999999999432,4160,3,59,14
0.06818181818181301,4160,4,59,14
0.09999999999999432,4160,5,59,19
0.09999999999999432,4160,6,59,12
0.10000000000002274,4160,7,59,12
0.09999999999999432,4160,8,59,14
0.09999999999999432,4160,9,59,11
0.10000000000002274,4160,10,59,16
0.09999999999999432,4160,11,59,26
0.09999999999999432,4160,12,59,12
0.09999999999999432,4160,13,59,12
0.09999999999999432,4160,14,59,19
0.09999999999999432,4160,15,59,13
0.09999999999999432,4161,0,59,12
0.09999999999999432,4161,1,59,18
0.09999999999999432,4161,2,59,15
0.09999999999999432,4161,3,59,13
0.09999999999999432,4161,4,59,13
0.09999999999999432,4161,5,59,10
0.004545454545450411,4161,6,59,14
0.09999999999999432,4161,7,59,24
0.09999999999999432,4161,8,59,11
0.09999999999999432,4161,9,59,11
0.09999999999999432,4161,10,59,15
0.09999999999999432,4161,11,59,11
0.10000000000002274,4161,12,59,14
0.09999999999999432,4161,13,59,20
0.09999999999999432,4161,14,59,11
0.09999999999999432,4161,15,59,7
0.10000000000002274,4162,0,59,17
0.09999999999999432,4162,1,59,15
0.09999999999999432,4162,2,59,15
0.09999999999999432,4162,3,59,23
0.10000000000002274,4162,4,59,13
0.10000000000002274,4162,5,59,14
0.09999999999999432,4162,6,59,21
0.09999999999999432,4162,7,59,20
0.09999999999999432,4162,8,59,21
0.06818181818181301,4162,9,59,23
0.09999999999999432,4162,10,59,12
0.09999999999999432,4162,11,59,11
0.10000000000002274,4162,12,59,16
0.09999999999999432,4162,13,59,13
0.004545454545450411,4162,14,59,16
0.09999999999999432,4162,15,59,20
0.09999999999999432,4163,0,59,13
0.09999999999999432,4163,1,59,18
0.09999999999999432,4163,2,59,17
0.09999999999999432,4163,3,59,13
0.09999999999999432,4163,4,59,23
0.10000000000002274,4163,5,59,13
0.10000000000002274,4163,6,59,10
0.09999999999999432,4163,7,59,15
0.10000000000002274,4163,8,59,11
0.0022727272727252057,4163,9,59,14
0.10000000000002274,4163,10,59,31
0.09999999999999432,4163,11,59,11
0.09999999999999432,4163,12,59,10
0.09999999999999432,4163,13,59,18
0.09999999999999432,4163,14,59,12
0.0022727272727252057,4163,15,59,14
0.06818181818184144,4164,0,59,15
0.09999999999999432,4164,1,59,22
0.09999999999999432,4164,2,59,12
0.09999999999999432,4164,3,59,13
0.09999999999999432,4164,4,59,18
0.09999999999999432,4164,5,59,9
0.10000000000002274,4164,6,59,13
0.09999999999999432,4164,7,59,21
0.09999999999999432,4164,8,59,13
0.09999999999999432,4164,9,59,12
0.09999999999999432,4164,10,59,18
0.09999999999999432,4164,11,59,13
0.09999999999999432,4164,12,59,14
0.10000000000002274,4164,13,59,18
0.10000000000002274,4164,14,59,18
0.09999999999999432,4164,15,59,19
0.09999999999999432,4165,0,59,23
0.10000000000000142,4165,1,63,1
0.10000000000000142,4165,2,63,1
0.10000000000000142,4165,3,63,2
0.09999999999999432,4165,4,63,1
0.09999999999999432,4165,5,63,3
0.10000000000000853,4165,6,63,10
0.10000000000000853,4165,7,63,19
0.09999999999999432,4165,8,63,13
0.09999999999999432,4165,9,63,24
0.09999999999999432,4165,10,63,9
0.09999999999999432,4165,11,63,16
0.09999999999999432,4165,12,63,12
0.10000000000000853,4165,13,63,21
0.09999999999999432,4165,14,63,7
0.09999999999999432,4165,15,63,18
0.10000000000000853,4166,0,63,12
0.10000000000000853,4166,1,63,25
0.09999999999999432,4166,2,63,18
0.09999999999999432,4166,3,63,13
0.09999999999999432,4166,4,63,20
0.10000000000000853,4166,5,63,10
0.10000000000000853,4166,6,63,35
0.10000000000000853,4166,7,63,19
0.09999999999999432,4166,8,63,17
0.09999999999999432,4166,9,63,21
0.09999999999999432,4166,10,63,8
0.09999999999999432,4166,11,63,27
0.09999999999999432,4166,12,63,12
0.10000000000000853,4166,13,63,17
0.09999999999999432,4166,14,63,11
0.10000000000000853,4166,15,63,21
0.09999999999999432,4167,0,63,1
0.09999999999999432,4167,1,63,3
0.09999999999999432,4167,2,63,12
0.09999999999999432,4167,3,63,15
0.10000000000002274,4167,4,63,11
0.09999999999999432,4167,5,63,11
0.10000000000002274,4167,6,63,10
0.09999999999999432,4167,7,63,9
0.09999999999999432,4167,8,63,16
0.09999999999999432,4167,9,63,12
0.10000000000002274,4167,10,63,19
0.09999999999999432,4167,11,63,32
0.09999999999999432,4167,12,63,7
0.056818181818158564,4167,13,63,19
0.09999999999999432,4167,14,63,21
0.09999999999999432,4167,15,63,22
0.09999999999999432,4168,0,63,20
0.09999999999999432,4168,1,63,20
0.10000000000002274,4168,2,63,23
0.09999999999999432,4168,3,63,21
0.09999999999999432,4168,4,63,18
0.09999999999999432,4168,5,63,18
0.09999999999999432,4168,6,63,18
0.09999999999999432,4168,7,63,21
0.09999999999999432,4168,8,63,20
0.09999999999999432,4168,9,63,20
0.10000000000002274,4168,10,63,20
0.09999999999999432,4168,11,63,21
0.09999999999999432,4168,12,63,40
0.09999999999999432,4168,13,63,38
0.09999999999999432,4168,14,63,34
0.09999999999999432,4168,15,63,27
0.09999999999999432,4169,0,63,32
0.09999999999999432,4169,1,63,44
0.09999999999999432,4169,2,63,25
0.09999999999999432,4169,3,63,26
0.09999999999999432,4169,4,63,41
0.09999999999999432,4169,5,63,43
0.09999999999999432,4169,6,63,61
0.09999999999999787,4169,7,93,1
0.09999999999999787,4169,8,93,24
0.09999999999999787,4169,9,93,2
0.004545454545453964,4169,10,93,30
0.09999999999999787,4169,11,93,3
0.10000000000000142,4169,12,93,24
0.09999999999999787,4169,13,93,4
0.09999999999999787,4169,14,93,2
0.10000000000000142,4169,15,93,30
0.10000000000000142,4170,0,93,26
0.10000000000000142,4170,1,93,31
0.10000000000000142,4170,2,93,2
0.10000000000000142,4170,3,93,24
0.09999999999999432,4170,4,93,3
0.10000000000000142,4170,5,93,3
0.09999999999999432,4170,6,93,3
0.10000000000000142,4170,7,93,31
0.09999999999999432,4170,8,93,1
0.10000000000000142,4170,9,93,24
0.10000000000000142,4170,10,93,3
0.10000000000000142,4170,11,93,31
0.10000000000000142,4170,12,93,3
0.10000000000000142,4170,13,93,22
0.09999999999999432,4170,14,93,3
0.10000000000000142,4170,15,93,1
0.10000000000000142,4171,0,93,32
0.10000000000000142,4171,1,93,1
0.10000000000000142,4171,2,93,24
0.10000000000000142,4171,3,93,3
0.10000000000000142,4171,4,93,2
0.013636363636365445,4171,5,93,32
0.10000000000000142,4171,6,93,2
0.09999999999999432,4171,7,93,24
0.10000000000000142,4171,8,93,3
0.10000000000000142,4171,9,93,3
0.10000000000000142,4171,10,93,4
0.10000000000000142,4171,11,93,32
0.09999999999999432,4171,12,93,30
0.10000000000000142,4171,13,93,17
0.10000000000000142,4171,14,93,31
0.09999999999999432,4171,15,93,17
0.10000000000000142,4172,0,93,16
0.10000000000000142,4172,1,93,1
0.10000000000000142,4172,2,93,1
0.10000000000000142,4172,3,93,28
0.09999999999999432,4172,4,93,13
0.10000000000000142,4172,5,93,10
0.10000000000000142,4172,6,93,9
0.03636363636363882,4172,7,93,6
0.10000000000000142,4172,8,93,32
0.10000000000000142,4172,9,93,15
0.10000000000000142,4172,10,93,7
0.10000000000000142,4172,11,93,3
0.004545454545450411,4172,12,93,27
0.10000000000000142,4172,13,93,12
0.10000000000000142,4172,14,93,9
0.10000000000000142,4172,15,93,7
0.10000000000000142,4173,0,93,31
0.10000000000000142,4173,1,93,15
0.10000000000000142,4173,2,93,6
0.10000000000000142,4173,3,93,3
0.10000000000000142,4173,4,93,28
0.10000000000000142,4173,5,93,13
0.09999999999999432,4173,6,93,8
0.10000000000000142,4173,7,93,9
0.03636363636363171,4173,8,93,6
0.10000000000000142,4173,9,93,33
0.10000000000000142,4173,10,93,14
0.10000000000000142,4173,11,93,7
0.10000000000000142,4173,12,93,2
0.06818181818182012,4173,13,93,3
0.004545454545450411,4173,14,93,28
0.10000000000000142,4173,15,93,13
0.10000000000000142,4174,0,93,9
0.10000000000000142,4174,1,93,9
0.09999999999999432,4174,2,93,34
0.10000000000000142,4174,3,93,15
0.10000000000000142,4174,4,93,6
0.10000000000000142,4174,5,93,3
0.10000000000000142,4174,6,93,28
0.10000000000000142,4174,7,93,13
0.10000000000000142,4174,8,93,10
0.09999999999999432,4174,9,93,9
0.03636363636363171,4174,10,93,6
0.10000000000000142,4174,11,93,36
0.09999999999999432,4174,12,93,15
0.10000000000000142,4174,13,93,4
0.09999999999999432,4174,14,93,3
0.004545454545450411,4174,15,93,27
0.10000000000000142,4175,0,93,12
0.10000000000000142,4175,1,93,10
0.09999999999999432,4175,2,93,9
0.10000000000000142,4175,3,93,34
0.09999999999999432,4175,4,93,15
0.10000000000000142,4175,5,93,6
0.09999999999999432,4175,6,93,3
0.10000000000000142,4175,7,93,28
0.10000000000000142,4175,8,93,12
0.10000000000000142,4175,9,93,10
0.10000000000000142,4175,10,93,9
0.03636363636363882,4175,11,93,7
0.09999999999999432,4175,12,93,33
0.09999999999999432,4175,13,93,15
0.10000000000000142,4175,14,93,7
0.10000000000000142,4175,15,93,4
0.09999999999999432,4176,0,93,27
0.10000000000000142,4176,1,93,13
0.09999999999999432,4176,2,93,10
0.10000000000000142,4176,3,93,9
0.10000000000000142,4176,4,93,33
0.10000000000000142,4176,5,93,13
0.09999999999999432,4176,6,93,7
0.10000000000000142,4176,7,93,3
0.09999999999999432,4176,8,93,26
0.10000000000000142,4176,9,93,11
0.10000000000000142,4176,10,93,10
0.10000000000000142,4176,11,93,9
0.03636363636363882,4176,12,93,6
0.10000000000000142,4176,13,93,34
0.10000000000000142,4176,14,93,14
0.10000000000000142,4176,15,93,7
0.10000000000000142,4177,0,93,3
0.004545454545457517,4177,1,93,27
0.09999999999999432,4177,2,93,13
0.10000000000000142,4177,3,93,10
0.10000000000000142,4177,4,93,9
0.10000000000000142,4177,5,93,34
0.10000000000000142,4177,6,93,15
0.10000000000000142,4177,7,93,7
0.10000000000000142,4177,8,93,3
0.10000000000000142,4177,9,93,28
0.09999999999999432,4177,10,93,13
0.10000000000000142,4177,11,93,10
0.10000000000000142,4177,12,93,9
0.03636363636363882,4177,13,93,7
0.10000000000000142,4177,14,93,33
0.10000000000000142,4177,15,93,14
0.10000000000000142,4178,0,93,7
0.10000000000000142,4178,1,93,3
0.004545454545457517,4178,2,93,28
0.10000000000000142,4178,3,93,13
0.10000000000000142,4178,4,93,10
0.10000000000000142,4178,5,93,8
0.10000000000000142,4178,6,93,34
0.10000000000000142,4178,7,93,15
0.10000000000000142,4178,8,93,6
0.10000000000000142,4178,9,93,3
0.10000000000000142,4178,10,93,28
0.10000000000000142,4178,11,93,13
0.10000000000000142,4178,12,93,9
0.10000000000000142,4178,13,93,9
0.03636363636363882,4178,14,93,6
0.10000000000000142,4178,15,93,33
0.10000000000000142,4179,0,93,15
0.10000000000000142,4179,1,93,7
0.10000000000000142,4179,2,93,3
0.004545454545450411,4179,3,93,28
0.10000000000000142,4179,4,93,13
0.10000000000000142,4179,5,93,9
0.10000000000000142,4179,6,93,9
0.09999999999999432,4179,7,93,35
0.10000000000000142,4179,8,93,15
0.10000000000000142,4179,9,93,6
0.10000000000000142,4179,10,93,3
0.10000000000000142,4179,11,93,29
0.10000000000000142,4179,12,93,12
0.09999999999999432,4179,13,93,10
0.10000000000000142,4179,14,93,9
0.03636363636363171,4179,15,93,6
0.10000000000000142,4180,0,93,31
0.10000000000000142,4180,1,93,4
0.10000000000000142,4180,2,93,35
0.10000000000000142,4180,3,93,3
0.10000000000000142,4180,4,93,41
0.10000000000000142,4180,5,93,3
0.10000000000000142,4180,6,93,39
0.10000000000000142,4180,7,93,36
0.09999999999999432,4180,8,93,4
0.10000000000000142,4180,9,93,39
0.10000000000000142,4180,10,93,3
0.10000000000000142,4180,11,93,36
0.09999999999999432,4180,12,93,3
0.10000000000000142,4180,13,93,36
0.09999999999999432,4180,14,93,3
0.09999999999999432,4180,15,93,39
0.10000000000000853,4181,0,93,35
0.10000000000000853,4181,1,93,33
0.09999999999999432,4181,2,93,28
0.09999999999999432,4181,3,93,20
0.09999999999999432,4181,4,93,20
0.09999999999999432,4181,5,93,19
0.09999999999999432,4181,6,93,19
0.10000000000000853,4181,7,93,11
0.10000000000000853,4181,8,93,19
0.09999999999999432,4181,9,93,30
0.09999999999999432,4181,10,93,3
0.10000000000000853,4181,11,93,39
0.10000000000000853,4181,12,93,10
0.10000000000000853,4181,13,93,40
0.10000000000000853,4181,14,93,10
0.10000000000000853,4181,15,93,41
0.10000000000000853,4182,0,93,10
0.09999999999999432,4182,1,93,40
0.09999999999999432,4182,2,93,11
0.09999999999999432,4182,3,93,38
0.09999999999999432,4182,4,93,11
0.09999999999999432,4182,5,93,36
0.09999999999999432,4182,6,93,10
0.09999999999999432,4182,7,93,34
0.09999999999999432,4182,8,93,27
0.10000000000000853,4182,9,93,35
0.10000000000000853,4182,10,93,10
0.10000000000000853,4182,11,93,39
0.10000000000000853,4182,12,93,10
0.09999999999999432,4182,13,93,37
0.09999999999999432,4182,14,93,10
0.09999999999999432,4182,15,93,41
0.10000000000000853,4183,0,93,8
0.09999999999999432,4183,1,93,38
0.09999999999999432,4183,2,93,8
0.09999999999999432,4183,3,93,41
0.09999999999999432,4183,4,93,10
0.10000000000000853,4183,5,93,37
0.09999999999999432,4183,6,93,9
0.10000000000000853,4183,7,93,40
0.09999999999999432,4183,8,93,10
0.10000000000000853,4183,9,93,40
0.10000000000000853,4183,10,93,10
0.10000000000000853,4183,11,93,9
0.09999999999999432,4183,12,93,9
0.10000000000000853,4183,13,93,36
0.09999999999999432,4183,14,93,7
0.10000000000000853,4183,15,93,37
0.10000000000000853,4184,0,93,7
0.10000000000000853,4184,1,93,33
0.10000000000000853,4184,2,93,10
0.10000000000000853,4184,3,93,7
0.09999999999999432,4184,4,93,42
0.10000000000000853,4184,5,93,6
0.09999999999999432,4184,6,93,36
0.09999999999999432,4184,7,93,6
0.09999999999999432,4184,8,93,39
0.09999999999999432,4184,9,93,6
0.09999999999999432,4184,10,93,4
0.09999999999999432,4184,11,93,37
0.09999999999999432,4184,12,93,9
0.09999999999999432,4184,13,93,6
0.10000000000000853,4184,14,93,40
0.09999999999999432,4184,15,93,7
0.10000000000000853,4185,0,93,36
0.10000000000000853,4185,1,93,6
0.09999999999999432,4185,2,93,36
0.10000000000000853,4185,3,93,7
0.10000000000000853,4185,4,93,4
0.09999999999999432,4185,5,93,37
0.10000000000000853,4185,6,93,9
0.09999999999999432,4185,7,93,7
0.09999999999999432,4185,8,93,40
0.09999999999999432,4185,9,93,6
0.09999999999999432,4185,10,93,38
0.09999999999999432,4185,11,93,7
0.10000000000000853,4185,12,93,4
0.10000000000000853,4185,13,93,39
0.09999999999999432,4185,14,93,7
0.09999999999999432,4185,15,93,4
0.09999999999999432,4186,0,93,35
0.09999999999999432,4186,1,93,9
0.09999999999999432,4186,2,93,7
0.10000000000000853,4186,3,93,43
0.10000000000000853,4186,4,93,5
0.09999999999999432,4186,5,93,35
0.10000000000000853,4186,6,93,6
0.09999999999999432,4186,7,93,37
0.09999999999999432,4186,8,93,6
0.09999999999999432,4186,9,93,4
0.09999999999999432,4186,10,93,35
0.09999999999999432,4186,11,93,10
0.09999999999999432,4186,12,93,7
0.09999999999999432,4186,13,93,42
0.09999999999999432,4186,14,93,8
0.09999999999999432,4186,15,93,6
0.10000000000000853,4187,0,93,36
0.09999999999999432,4187,1,93,6
0.10000000000000853,4187,2,93,37
0.10000000000000853,4187,3,93,6
0.10000000000000853,4187,4,93,4
0.10000000000000853,4187,5,93,34
0.10000000000000853,4187,6,93,7
0.09999999999999432,4187,7,93,7
0.09999999999999432,4187,8,93,43
0.10000000000000853,4187,9,93,7
0.09999999999999432,4187,10,93,35
0.09999999999999432,4187,11,93,7
0.09999999999999432,4187,12,93,40
0.09999999999999432,4187,13,93,7
0.09999999999999432,4187,14,93,4
0.09999999999999432,4187,15,93,36
0.09999999999999432,4188,0,93,7
0.10000000000000853,4188,1,93,41
0.09999999999999432,4188,2,93,8
0.09999999999999432,4188,3,93,6
0.10000000000000853,4188,4,93,36
0.10000000000000853,4188,5,93,6
0.10000000000000853,4188,6,93,37
0.10000000000000853,4188,7,93,6
0.10000000000000853,4188,8,93,4
0.10000000000000853,4188,9,93,37
0.10000000000000853,4188,10,93,9
0.10000000000000853,4188,11,93,7
0.09999999999999432,4188,12,93,40
0.10000000000000853,4188,13,93,8
0.09999999999999432,4188,14,93,29
0.09999999999999432,4188,15,93,32
0.09999999999999432,4189,0,93,31
0.10000000000000853,4189,1,93,31
0.09999999999999432,4189,2,93,31
0.09999999999999432,4189,3,93,32
0.09999999999999432,4189,4,93,32
0.09999999999999432,4189,5,93,31
0.10000000000000853,4189,6,93,30
0.10000000000000853,4189,7,93,31
0.10000000000000853,4189,8,93,32
0.10000000000000853,4189,9,93,32
0.09999999999999432,4189,10,93,30
0.09999999999999432,4189,11,93,27
0.10000000000002274,4189,12,93,30
0.09999999999999432,4189,13,93,32
0.09999999999999432,4189,14,93,30
0.09999999999999432,4189,15,93,34
0.10000000000002274,4190,0,93,34
0.09999999999999432,4190,1,93,38
0.10000000000002274,4190,2,93,34
0.09999999999999432,4190,3,93,32
0.09999999999999432,4190,4,93,32
0.09999999999999432,4190,5,93,32
0.09999999999999432,4190,6,93,30
0.09999999999999432,4190,7,93,33
0.09999999999999432,4190,8,93,32
0.09999999999999432,4190,9,93,32
0.09999999999999432,4190,10,93,30
0.09999999999999432,4190,11,93,33
0.09999999999999432,4190,12,93,31
0.09999999999999432,4190,13,93,31
0.09999999999999432,4190,14,93,30
0.09999999999999432,4190,15,93,28
0.10000000000002274,4191,0,93,31
0.09999999999999432,4191,1,93,31
0.09999999999999432,4191,2,93,31
0.09999999999999432,4191,3,93,30
0.09999999999999432,4191,4,93,31
0.09999999999999432,4191,5,93,32
0.10000000000002274,4191,6,93,28
0.10000000000002274,4191,7,93,32
0.09999999999999432,4191,8,93,8
0.09999999999999432,4191,9,93,21
0.09999999999999432,4191,10,93,20
0.10000000000002274,4191,11,93,21
0.09999999999999432,4191,12,93,21
0.09999999999999432,4191,13,93,22
0.09999999999999432,4191,14,93,20
0.09999999999999432,4191,15,93,21
0.09999999999999432,4192,0,93,21
0.09999999999999432,4192,1,93,20
0.09999999999999432,4192,2,93,21
0.10000000000002274,4192,3,93,21
0.10000000000002274,4192,4,93,21
0.09999999999999432,4192,5,93,19
0.09999999999999432,4192,6,93,20
0.09999999999999432,4192,7,93,21
0.09999999999999432,4192,8,93,23
0.10000000000002274,4192,9,93,21
0.10000000000002274,4192,10,93,20
0.09999999999999432,4192,11,93,21
0.09999999999999432,4192,12,93,20
0.09999999999999432,4192,13,93,22
0.09999999999999432,4192,14,93,23
0.09999999999999432,4192,15,93,21
0.09999999999999432,4193,0,93,19
0.09999999999999432,4193,1,93,20
0.10000000000002274,4193,2,93,1
0.09999999999999432,4193,3,93,13
0.09999999999999432,4193,4,93,33
0.10000000000002274,4193,5,93,32
0.09999999999999432,4193,6,93,31
0.09999999999999432,4193,7,93,4
0.09999999999999432,4193,8,93,34
0.10000000000002274,4193,9,93,4
0.09999999999999432,4193,10,93,35
0.09999999999999432,4193,11,93,31
0.09999999999999432,4193,12,93,5
0.10000000000002274,4193,13,93,32
0.10000000000002274,4193,14,93,34
0.09999999999999432,4193,15,93,4
0.09999999999999432,4194,0,93,35
0.09999999999999432,4194,1,93,34
0.09999999999999432,4194,2,93,4
0.09999999999999432,4194,3,93,31
0.09999999999999432,4194,4,93,33
0.09999999999999432,4194,5,93,31
0.10000000000002274,4194,6,93,4
0.09999999999999432,4194,7,93,30
0.09999999999999432,4194,8,93,33
0.09999999999999432,4194,9,93,4
0.09999999999999432,4194,10,93,33
0.10000000000002274,4194,11,93,34
0.09999999999999432,4194,12,93,33
0.10000000000002274,4194,13,93,4
0.09999999999999432,4194,14,93,33
0.09999999999999432,4194,15,93,34
0.10000000000002274,4195,0,93,4
0.09999999999999432,4195,1,93,35
0.10000000000002274,4195,2,93,32
0.09999999999999432,4195,3,93,33
0.09999999999999432,4195,4,93,4
0.09999999999999432,4195,5,93,31
0.09999999999999432,4195,6,93,34
0.09999999999999432,4195,7,93,32
0.09999999999999432,4195,8,93,5
0.10000000000002274,4195,9,93,35
0.10000000000000009,4195,10,69,45
0.10000000000000009,4195,11,69,43
0.10000000000000009,4195,12,69,44
0.10000000000000053,4195,13,69,41
0.10000000000000053,4195,14,69,47
0.09999999999999964,4195,15,69,45
0.10000000000000142,4196,0,69,37
0.09999999999999964,4196,1,69,60
0.10000000000000142,4196,2,69,62
0.09999999999999964,4196,3,69,61
0.09999999999999964,4196,4,69,49
0.09999999999999964,4196,5,69,19
0.09999999999999964,4196,6,69,18
0.09999999999999964,4196,7,69,13
0.09999999999999964,4196,8,69,16
0.09999999999999964,4196,9,69,18
0.09999999999999787,4196,10,69,19
0.10000000000000142,4196,11,69,12
0.10000000000000142,4196,12,69,15
0.09999999999999787,4196,13,69,17
0.09999999999999787,4196,14,69,15
0.09999999999999787,4196,15,69,12
0.09999999999999787,4197,0,69,16
0.10000000000000142,4197,1,69,18
0.10000000000000142,4197,2,69,17
0.09999999999999787,4197,3,69,17
0.10000000000000142,4197,4,69,19
0.10000000000000142,4197,5,69,23
0.09999999999999787,4197,6,69,23
0.09999999999999787,4197,7,69,21
0.09999999999999787,4197,8,69,26
0.10000000000000142,4197,9,69,37
0.10000000000000142,4197,10,69,30
0.10000000000000142,4197,11,69,21
0.10000000000000142,4197,12,69,27
0.10000000000000142,4197,13,69,17
0.10000000000000142,4197,14,69,33
0.09999999999999432,4197,15,69,35
0.10000000000000142,4198,0,69,28
0.10000000000000142,4198,1,69,32
0.10000000000000142,4198,2,69,27
0.09999999999999432,4198,3,69,33
0.10000000000000142,4198,4,69,34
0.10000000000000142,4198,5,69,19
0.10000000000000142,4198,6,69,27
0.09999999999999432,4198,7,69,25
0.10000000000000142,4198,8,69,26
0.10000000000000853,4198,9,69,22
0.10000000000000853,4198,10,69,27
0.10000000000000853,4198,11,69,31
0.10000000000000853,4198,12,69,28
0.09999999999999432,4198,13,69,22
0.09999999999999432,4198,14,69,22
0.09999999999999432,4198,15,69,15
0.09999999999999432,4199,0,69,18
0.10000000000000853,4199,1,69,15
0.09999999999999432,4199,2,69,20
0.09999999999999432,4199,3,69,27
0.09999999999999432,4199,4,69,14
0.10000000000000853,4199,5,69,15
0.09999999999999432,4199,6,69,18
0.10000000000000853,4199,7,69,18
0.09999999999999432,4199,8,69,19
0.09999999999999432,4199,9,69,25
0.09999999999999432,4199,10,69,31
0.09999999999999432,4199,11,69,22
0.10000000000000853,4199,12,69,24
0.10000000000000853,4199,13,69,16
0.09999999999999432,4199,14,69,18
0.10000000000000853,4199,15,69,17
0.09999999999999432,4200,0,69,5
0.10000000000000853,4200,1,69,16
0.09999999999999432,4200,2,69,24
0.09999999999999432,4200,3,69,36
0.10000000000000853,4200,4,69,24
0.09999999999999432,4200,5,69,19
0.09999999999999432,4200,6,69,16
0.09999999999999432,4200,7,69,18
0.10000000000002274,4200,8,69,30
0.10000000000002274,4200,9,69,18
0.09999999999999432,4200,10,69,14
0.10000000000002274,4200,11,69,25
0.10000000000002274,4200,12,69,31
0.09999999999999432,4200,13,69,18
0.09999999999999432,4200,14,69,68
0.10000000000002274,4200,15,69,23
0.09999999999999432,4201,0,69,27
0.09999999999999432,4201,1,69,16
0.10000000000002274,4201,2,69,3
0.1,4201,3,79,14
0.05681818181818182,4201,4,79,27
0.09999999999999987,4201,5,79,60
0.09999999999999987,4201,6,79,68
0.09999999999999987,4201,7,79,80
0.09999999999999987,4201,8,79,69
0.09999999999999964,4201,9,79,88
0.09999999999999964,4201,10,79,57
0.10000000000000009,4201,11,79,74
0.10000000000000053,4201,12,79,70
0.10000000000000053,4201,13,79,42
0.10000000000000053,4201,14,79,72
0.10000000000000053,4201,15,79,68
0.09999999999999964,4202,0,79,8
0.024999999999999467,4202,1,79,52
0.09999999999999964,4202,2,79,36
0.09999999999999964,4202,3,79,66
0.09999999999999964,4202,4,79,39
0.05681818181818166,4202,5,79,63
0.10000000000000142,4202,6,79,83
0.10000000000000142,4202,7,79,81
0.09999999999999964,4202,8,79,92
0.10000000000000142,4202,9,79,79
0.09999999999999964,4202,10,79,78
0.09999999999999964,4202,11,79,63
0.09999999999999964,4202,12,79,71
0.09999999999999964,4202,13,79,76
0.09999999999999964,4202,14,79,68
0.05681818181818166,4202,15,79,99
0.09999999999999964,4203,0,79,76
0.09999999999999964,4203,1,79,70
0.09999999999999964,4203,2,79,46
0.09999999999999964,4203,3,79,88
0.10000000000000142,4203,4,79,44
0.09999999999999964,4203,5,79,72
0.09999999999999964,4203,6,79,89
0.09999999999999964,4203,7,79,43
0.09999999999999964,4203,8,79,22
0.09999999999999964,4203,9,79,68
0.09999999999999964,4203,10,79,94
0.10000000000000142,4203,11,79,76
0.09999999999999964,4203,12,79,79
0.09999999999999964,4203,13,79,72
0.10000000000000142,4203,14,79,76
0.09999999999999787,4203,15,79,87
0.06818181818181657,4204,0,79,82
0.10000000000000142,4204,1,79,62
0.09999999999999787,4204,2,79,80
0.09999999999999787,4204,3,79,35
0.09999999999999787,4204,4,79,89
0.09999999999999787,4204,5,79,81
0.09999999999999787,4204,6,79,81
0.10000000000000142,4204,7,79,56
0.09999999999999787,4204,8,79,68
0.10000000000000142,4204,9,79,68
0.10000000000000142,4204,10,79,34
0.10000000000000142,4204,11,79,90
0.10000000000000142,4204,12,79,84
0.10000000000000142,4204,13,79,66
0.09999999999999787,4204,14,79,80
0.09999999999999787,4204,15,79,65
0.10000000000000142,4205,0,79,60
0.09999999999999787,4205,1,79,66
0.10000000000000142,4205,2,79,73
0.09999999999999787,4205,3,79,66
0.09999999999999787,4205,4,79,37
0.10000000000000142,4205,5,79,85
0.09999999999999787,4205,6,79,77
0.10000000000000142,4205,7,79,76
0.09999999999999787,4205,8,79,77
0.10000000000000142,4205,9,79,64
0.09999999999999787,4205,10,79,76
0.10000000000000142,4205,11,79,78
0.09999999999999787,4205,12,79,62
0.10000000000000142,4205,13,79,68
0.09999999999999787,4205,14,79,69
0.10000000000000142,4205,15,79,86
0.09999999999999787,4206,0,79,31
0.09999999999999787,4206,1,79,75
0.09999999999999787,4206,2,79,71
0.10000000000000142,4206,3,79,59
0.09999999999999787,4206,4,79,62
0.10000000000000142,4206,5,79,83
0.09999999999999787,4206,6,79,70
0.09999999999999787,4206,7,79,86
0.09999999999999787,4206,8,79,73
0.10000000000000142,4206,9,79,61
0.10000000000000142,4206,10,79,59
0.10000000000000142,4206,11,79,9
0.10000000000000142,4206,12,79,55
0.09999999999999787,4206,13,79,79
0.09999999999999787,4206,14,79,74
0.09999999999999787,4206,15,79,51
0.10000000000000142,4207,0,79,74
0.09999999999999787,4207,1,79,67
0.09999999999999787,4207,2,79,21
0.10000000000000142,4207,3,79,84
0.09999999999999432,4207,4,79,91
0.09999999999999432,4207,5,79,77
0.09999999999999432,4207,6,79,74
0.10000000000000142,4207,7,79,77
0.004545454545457517,4207,8,79,82
0.10000000000000142,4207,9,79,81
0.10000000000000142,4207,10,79,60
0.09999999999999432,4207,11,79,35
0.01363636363635834,4207,12,79,66
0.10000000000000142,4207,13,79,59
0.10000000000000142,4207,14,79,50
0.10000000000000142,4207,15,79,37
0.10000000000000142,4208,0,79,88
0.09999999999999432,4208,1,79,74
0.10000000000000142,4208,2,79,65
0.10000000000000142,4208,3,79,66
0.10000000000000142,4208,4,79,80
0.10000000000000142,4208,5,79,67
0.10000000000000142,4208,6,79,73
0.10000000000000142,4208,7,79,47
0.06818181818182012,4208,8,79,76
0.09999999999999432,4208,9,79,66
0.09999999999999432,4208,10,79,36
0.10000000000000142,4208,11,79,70
0.10000000000000142,4208,12,79,51
0.09999999999999432,4208,13,79,72
0.09999999999999432,4208,14,79,74
0.10000000000000142,4208,15,79,82
0.09999999999999432,4209,0,79,49
0.10000000000000142,4209,1,79,19
0.10000000000000142,4209,2,79,101
0.09999999999999432,4209,3,79,109
0.10000000000000142,4209,4,79,104
0.09999999999999432,4209,5,79,82
0.09999999999999432,4209,6,79,67
0.10000000000000142,4209,7,79,96
0.10000000000000142,4209,8,79,95
0.10000000000000142,4209,9,79,72
0.10000000000000142,4209,10,79,101
0.10000000000000142,4209,11,79,73
0.10000000000000142,4209,12,79,71
0.10000000000000142,4209,13,79,127
0.10000000000000142,4209,14,79,76
0.09999999999999432,4209,15,79,118
0.10000000000000142,4210,0,79,120
0.10000000000000142,4210,1,79,90
0.09999999999999432,4210,2,79,77
0.10000000000000142,4210,3,79,95
0.09999999999999432,4210,4,79,67
0.10000000000000142,4210,5,79,69
0.10000000000000142,4210,6,79,91
0.10000000000000142,4210,7,79,44
0.10000000000000142,4210,8,79,82
0.10000000000000142,4210,9,79,92
0.10000000000000142,4210,10,79,61
0.10000000000000142,4210,11,79,83
0.10000000000000142,4210,12,79,108
0.10000000000000142,4210,13,79,113
0.10000000000000142,4210,14,79,69
0.09999999999999432,4210,15,79,90
0.09999999999999432,4211,0,79,98
0.09999999999999432,4211,1,79,84
0.10000000000000142,4211,2,79,81
0.10000000000000142,4211,3,79,111
0.10000000000000142,4211,4,79,72
0.10000000000000142,4211,5,79,97
0.10000000000000142,4211,6,79,30
0.10000000000000142,4211,7,79,99
0.10000000000000142,4211,8,79,94
0.10000000000000142,4211,9,79,81
0.10000000000000142,4211,10,79,77
0.10000000000000142,4211,11,79,97
0.10000000000000142,4211,12,79,88
0.10000000000000142,4211,13,79,97
0.10000000000000142,4211,14,79,103
0.10000000000000142,4211,15,79,122
0.10000000000000142,4212,0,79,21
0.10000000000000142,4212,1,79,101
0.10000000000000142,4212,2,79,97
0.09999999999999432,4212,3,79,103
0.09999999999999432,4212,4,79,57
0.10000000000000142,4212,5,79,102
0.10000000000000142,4212,6,79,63
0.05681818181817988,4212,7,79,87
0.10000000000000142,4212,8,79,90
0.10000000000000142,4212,9,79,114
0.09999999999999432,4212,10,79,85
0.10000000000000142,4212,11,79,34
0.10000000000000142,4212,12,79,82
0.09999999999999432,4212,13,79,100
0.09999999999999432,4212,14,79,110
0.10000000000000142,4212,15,79,92
0.10000000000000142,4213,0,79,69
0.10000000000000142,4213,1,79,100
0.10000000000000142,4213,2,79,83
0.10000000000000142,4213,3,79,32
0.10000000000000142,4213,4,79,97
0.10000000000000142,4213,5,79,127
0.10000000000000142,4213,6,79,92
0.10000000000000142,4213,7,79,111
0.10000000000000142,4213,8,79,70
0.10000000000000142,4213,9,79,88
0.10000000000000853,4213,10,79,30
0.10000000000000853,4213,11,79,81
0.004545454545464622,4213,12,79,79
0.09999999999999432,4213,13,79,103
0.10000000000000853,4213,14,79,106
0.10000000000000853,4213,15,79,96
0.09999999999999432,4214,0,79,16
0.10000000000000853,4214,1,79,81
0.09999999999999432,4214,2,79,81
0.10000000000000853,4214,3,79,95
0.09999999999999432,4214,4,79,93
0.09999999999999432,4214,5,79,69
0.09999999999999432,4214,6,79,40
0.09999999999999432,4214,7,79,50
0.04772727272727195,4214,8,79,75
0.09999999999999432,4214,9,79,67
0.09999999999999432,4214,10,79,127
0.10000000000000853,4214,11,79,101
0.09999999999999432,4214,12,79,43
0.09999999999999432,4214,13,79,89
0.09999999999999432,4214,14,79,102
0.10000000000000853,4214,15,79,96
0.09999999999999432,4215,0,79,127
0.09999999999999432,4215,1,79,78
0.10000000000000853,4215,2,79,115
0.10000000000000853,4215,3,79,105
0.09999999999999432,4215,4,79,108
0.10000000000000853,4215,5,79,35
0.09999999999999432,4215,6,79,75
0.10000000000000853,4215,7,79,123
0.09999999999999432,4215,8,79,85
0.09999999999999432,4215,9,79,72
0.09999999999999432,4215,10,79,50
0.04772727272727195,4215,11,79,78
0.10000000000000853,4215,12,79,118
0.10000000000000853,4215,13,79,86
0.10000000000000853,4215,14,79,30
0.09999999999999432,4215,15,79,126
0.10000000000000853,4216,0,79,127
0.10000000000000853,4216,1,79,102
0.09999999999999432,4216,2,79,120
0.10000000000000853,4216,3,79,52
0.036363636363645924,4216,4,79,122
0.10000000000000853,4216,5,79,116
0.10000000000000853,4216,6,79,127
0.09999999999999432,4216,7,79,73
0.03636363636363171,4216,8,79,19
0.09999999999999432,4216,9,79,114
0.09999999999999432,4216,10,79,72
0.09999999999999432,4216,11,79,88
0.09999999999999432,4216,12,79,83
0.09999999999999432,4216,13,79,98
0.10000000000000853,4216,14,79,93
0.10000000000000853,4216,15,79,96
0.10000000000000853,4217,0,79,91
0.09999999999999432,4217,1,79,41
0.09999999999999432,4217,2,79,89
0.10000000000000853,4217,3,79,88
0.09999999999999432,4217,4,79,109
0.10000000000000853,4217,5,79,108
0.10000000000000853,4217,6,79,110
0.10000000000000853,4217,7,79,86
0.10000000000000853,4217,8,79,98
0.09999999999999432,4217,9,79,93
0.10000000000000853,4217,10,79,110
0.10000000000000853,4217,11,79,95
0.10000000000000853,4217,12,79,33
0.10000000000000853,4217,13,79,74
0.09999999999999432,4217,14,79,113
0.09999999999999432,4217,15,79,79
0.09999999999999432,4218,0,79,104
0.09999999999999432,4218,1,79,109
0.09999999999999432,4218,2,79,81
0.10000000000000853,4218,3,79,84
0.10000000000000853,4218,4,79,83
0.09999999999999432,4218,5,79,78
0.10000000000000853,4218,6,79,85
0.10000000000000853,4218,7,79,43
0.10000000000000853,4218,8,79,95
0.10000000000000853,4218,9,79,100
0.09999999999999432,4218,10,79,86
0.10000000000000853,4218,11,79,83
0.10000000000000853,4218,12,79,100
0.09999999999999432,4218,13,79,90
0.004545454545450411,4218,14,79,81
0.09999999999999432,4218,15,79,71
0.10000000000000853,4219,0,79,99
0.09999999999999432,4219,1,79,97
0.09999999999999432,4219,2,79,85
0.09999999999999432,4219,3,79,101
0.09999999999999432,4219,4,79,107
0.09999999999999432,4219,5,79,90
0.10000000000000853,4219,6,79,79
0.09999999999999432,4219,7,79,68
0.10000000000000853,4219,8,79,87
0.10000000000000853,4219,9,79,112
0.09999999999999432,4219,10,79,79
0.09999999999999432,4219,11,79,29
0.09999999999999432,4219,12,79,110
0.10000000000000853,4219,13,79,101
0.10000000000000853,4219,14,79,76
0.09999999999999432,4219,15,79,98
0.09999999999999432,4220,0,79,95
0.09999999999999432,4220,1,79,100
0.09999999999999432,4220,2,79,108
0.09999999999999432,4220,3,79,104
0.09999999999999432,4220,4,79,76
0.09999999999999432,4220,5,79,96
0.10000000000000853,4220,6,79,85
0.10000000000000853,4220,7,79,103
0.09999999999999432,4220,8,79,109
0.10000000000000853,4220,9,79,89
0.09999999999999432,4220,10,79,69
0.09999999999999432,4220,11,79,106
0.10000000000000853,4220,12,79,83
0.09999999999999432,4220,13,79,91
0.09999999999999432,4220,14,79,89
0.09999999999999432,4220,15,79,81
0.09999999999999432,4221,0,79,78
0.10000000000000853,4221,1,79,88
0.09999999999999432,4221,2,79,105
0.09999999999999432,4221,3,79,106
0.09999999999999432,4221,4,79,42
0.09999999999999432,4221,5,79,108
0.10000000000000853,4221,6,79,85
0.09999999999999432,4221,7,79,35
0.09999999999999432,4221,8,79,62
0.004545454545450411,4221,9,79,72
0.09999999999999432,4221,10,79,104
0.09999999999999432,4221,11,79,125
0.09999999999999432,4221,12,79,94
0.10000000000000853,4221,13,79,70
0.09999999999999432,4221,14,79,89
0.09999999999999432,4221,15,79,108
0.09999999999999432,4222,0,79,95
0.10000000000000853,4222,1,79,94
0.09999999999999432,4222,2,79,127
0.10000000000000853,4222,3,79,98
0.09999999999999432,4222,4,79,83
0.10000000000000853,4222,5,79,110
0.10000000000000853,4222,6,79,74
0.10000000000000853,4222,7,79,103
0.09999999999999432,4222,8,79,87
0.10000000000000853,4222,9,79,108
0.09999999999999432,4222,10,79,80
0.10000000000000853,4222,11,79,105
0.10000000000000853,4222,12,79,113
0.09999999999999432,4222,13,79,116
0.09999999999999432,4222,14,79,81
0.09999999999999432,4222,15,79,70
0.09999999999999432,4223,0,79,43
0.09999999999999432,4223,1,79,91
0.09999999999999432,4223,2,79,108
0.10000000000000853,4223,3,79,103
0.09999999999999432,4223,4,79,85
0.09999999999999432,4223,5,79,105
0.09999999999999432,4223,6,79,31
0.10000000000000853,4223,7,79,23
0.09999999999999432,4223,8,79,127
0.10000000000000853,4223,9,79,94
0.10000000000000853,4223,10,79,97
0.09999999999999432,4223,11,79,91
0.09999999999999432,4223,12,79,34
0.09999999999999432,4223,13,79,117
0.09999999999999432,4223,14,79,87
0.09999999999999432,4223,15,79,74
0.09999999999999432,4224,0,79,76
0.09999999999999432,4224,1,79,91
0.09999999999999432,4224,2,79,58
0.10000000000000853,4224,3,79,86
0.10000000000000853,4224,4,79,25
0.09999999999999432,4224,5,79,86
0.10000000000000853,4224,6,79,96
0.10000000000000853,4224,7,79,96
0.10000000000000853,4224,8,79,105
0.09999999999999432,4224,9,79,82
0.09999999999999432,4224,10,79,104
0.09999999999999432,4224,11,79,83
0.10000000000000853,4224,12,79,29
0.09999999999999432,4224,13,79,108
0.09999999999999432,4224,14,79,86
0.10000000000000853,4224,15,79,51
0.09999999999999432,4225,0,79,88
0.10000000000000853,4225,1,79,75
0.09999999999999432,4225,2,79,98
0.09999999999999432,4225,3,79,48
0.09999999999999432,4225,4,79,20
0.09999999999999432,4225,5,79,92
0.09999999999999432,4225,6,79,99
0.10000000000000853,4225,7,79,79
0.09999999999999432,4225,8,79,99
0.10000000000000853,4225,9,79,49
0.04772727272727195,4225,10,79,53
0.10000000000000853,4225,11,79,110
0.09999999999999432,4225,12,79,78
0.09999999999999432,4225,13,79,93
0.10000000000000853,4225,14,79,34
0.10000000000000853,4225,15,79,98
0.10000000000000853,4226,0,79,125
0.09999999999999432,4226,1,79,107
0.10000000000000853,4226,2,79,114
0.09999999999999432,4226,3,79,30
0.09999999999999432,4226,4,79,121
0.09999999999999432,4226,5,79,89
0.10000000000000853,4226,6,79,104
0.09999999999999432,4226,7,79,72
0.004545454545450411,4226,8,79,96
0.09999999999999432,4226,9,79,95
0.10000000000000853,4226,10,79,101
0.09999999999999432,4226,11,79,83
0.09999999999999432,4226,12,79,123
0.09999999999999432,4226,13,79,32
0.10000000000000853,4226,14,79,97
0.06818181818182723,4226,15,79,127
0.10000000000000853,4227,0,79,77
0.09999999999999432,4227,1,79,93
0.10000000000000853,4227,2,79,106
0.10000000000000853,4227,3,79,63
0.09999999999999432,4227,4,79,95
0.09999999999999432,4227,5,79,118
0.10000000000000853,4227,6,79,95
0.10000000000000853,4227,7,79,68
0.09999999999999432,4227,8,79,87
0.10000000000000853,4227,9,79,74
0.09999999999999432,4227,10,79,41
0.10000000000000853,4227,11,79,67
0.09999999999999432,4227,12,79,96
0.09999999999999432,4227,13,79,116
0.09999999999999432,4227,14,79,123
0.10000000000002274,4227,15,79,109
0.09999999999999432,4228,0,79,40
0.10000000000002274,4228,1,79,74
0.09999999999999432,4228,2,79,42
0.09999999999999432,4228,3,79,44
0.09999999999999432,4228,4,79,101
0.09999999999999432,4228,5,79,101
0.10000000000002274,4228,6,79,56
0.09999999999999432,4228,7,79,84
0.10000000000002274,4228,8,79,65
0.09999999999999432,4228,9,79,109
0.09999999999999432,4228,10,79,110
0.09999999999999432,4228,11,79,105
0.09999999999999432,4228,12,79,33
0.10000000000002274,4228,13,79,55
0.09999999999999432,4228,14,79,124
0.09999999999999432,4228,15,79,120
0.09999999999999432,4229,0,79,16
0.04772727272725774,4229,1,79,63
0.04772727272725774,4229,2,79,81
0.09999999999999432,4229,3,79,99
0.09999999999999432,4229,4,79,29
0.10000000000002274,4229,5,79,100
0.10000000000002274,4229,6,79,108
0.09999999999999432,4229,7,79,93
0.09999999999999432,4229,8,79,107
0.10000000000002274,4229,9,79,67
0.09999999999999432,4229,10,79,77
0.09999999999999432,4229,11,79,127
0.10000000000002274,4229,12,79,96
0.09999999999999432,4229,13,79,32
0.09999999999999432,4229,14,79,84
0.09999999999999432,4229,15,79,100
0.09999999999999432,4230,0,79,86
0.09999999999999432,4230,1,79,114
0.09999999999999432,4230,2,79,113
0.10000000000002274,4230,3,79,67
0.09999999999999432,4230,4,79,78
0.09999999999999432,4230,5,79,85
0.09999999999999432,4230,6,79,127
0.10000000000002274,4230,7,79,38
0.09999999999999432,4230,8,79,91
0.09999999999999432,4230,9,79,92
0.09999999999999432,4230,10,79,111
0.09999999999999432,4230,11,79,93
0.09999999999999432,4230,12,79,84
0.09999999999999432,4230,13,79,127
0.10000000000002274,4230,14,79,124
0.09999999999999432,4230,15,79,74
0.09999999999999432,4231,0,79,114
0.09999999999999432,4231,1,79,104
0.09999999999999432,4231,2,79,92
0.09999999999999432,4231,3,79,111
0.09999999999999432,4231,4,79,107
0.10000000000002274,4231,5,79,107
0.10000000000002274,4231,6,79,97
0.09999999999999432,4231,7,79,127
0.09999999999999432,4231,8,79,109
0.09999999999999432,4231,9,79,75
0.09999999999999432,4231,10,79,83
0.09999999999999432,4231,11,79,108
0.09999999999999432,4231,12,79,127
0.09999999999999432,4231,13,79,119
0.09999999999999432,4231,14,79,73
0.10000000000002274,4231,15,79,104
0.09999999999999432,4232,0,79,110
0.09999999999999432,4232,1,79,113
0.09999999999999432,4232,2,79,12
0.09999999999999432,4232,3,79,79
0.09999999999999432,4232,4,79,89
0.10000000000002274,4232,5,79,74
0.09999999999999432,4232,6,79,56
0.09999999999999432,4232,7,79,91
0.09999999999999432,4232,8,79,10
0.025000000000005684,4232,9,79,88
0.09999999999999432,4232,10,79,86
0.10000000000002274,4232,11,79,107
0.09999999999999432,4232,12,79,98
0.10000000000002274,4232,13,79,94
0.09999999999999432,4232,14,79,90
0.09999999999999432,4232,15,79,61
0.09999999999999432,4233,0,79,119
0.09999999999999432,4233,1,79,35
0.09999999999999432,4233,2,79,100
0.01590909090907644,4233,3,79,115
0.10000000000002274,4233,4,79,101
0.09999999999999432,4233,5,79,110
0.09999999999999432,4233,6,79,105
0.10000000000002274,4233,7,79,53
0.09999999999999432,4233,8,79,85
0.10000000000002274,4233,9,79,98
0.09999999999999432,4233,10,79,110
0.09999999999999432,4233,11,79,104
0.09999999999999432,4233,12,79,48
0.10000000000002274,4233,13,79,85
0.09999999999999432,4233,14,79,84
0.09999999999999432,4233,15,79,102
0.09999999999999432,4234,0,79,106
0.09999999999999432,4234,1,79,65
0.09999999999999432,4234,2,79,76
0.09999999999999432,4234,3,79,81
0.09999999999999432,4234,4,79,113
0.09999999999999432,4234,5,79,61
0.09999999999999432,4234,6,79,90
0.10000000000002274,4234,7,79,39
0.09999999999999432,4234,8,79,71
0.09999999999999432,4234,9,79,85
0.09999999999999432,4234,10,79,72
0.10000000000002274,4234,11,79,75
0.09999999999999432,4234,12,79,96
0.09999999999999432,4234,13,79,86
0.09999999999999432,4234,14,79,74
0.09999999999999432,4234,15,79,90
0.09999999999999432,4235,0,79,112
0.10000000000002274,4235,1,79,121
0.09999999999999432,4235,2,79,102
0.09999999999999432,4235,3,79,127
0.09999999999999432,4235,4,79,112
0.09999999999999432,4235,5,79,98
0.09999999999999432,4235,6,79,51
0.09999999999999432,4235,7,79,102
0.09999999999999432,4235,8,79,108
0.09999999999999432,4235,9,79,96
0.09999999999999432,4235,10,79,103
0.09999999999999432,4235,11,79,112
0.09999999999999432,4235,12,79,57
0.06818181818181301,4235,13,79,63
0.09999999999999432,4235,14,79,98
0.09999999999999432,4235,15,79,71
0.09999999999999432,4236,0,79,106
0.09999999999999432,4236,1,79,97
0.09999999999999432,4236,2,79,88
0.09999999999999432,4236,3,79,96
0.09999999999999432,4236,4,79,71
0.03636363636363171,4236,5,79,126
0.09999999999999432,4236,6,79,89
0.10000000000002274,4236,7,79,106
0.09999999999999432,4236,8,79,55
0.09999999999999432,4236,9,79,64
0.09999999999999432,4236,10,79,95
0.09999999999999432,4236,11,79,100
0.09999999999999432,4236,12,79,79
0.09999999999999432,4236,13,79,108
0.09999999999999432,4236,14,79,65
0.09999999999999432,4236,15,79,118
0.09999999999999432,4237,0,79,94
0.10000000000002274,4237,1,79,67
0.09999999999999432,4237,2,79,94
0.10000000000002274,4237,3,79,101
0.09999999999999432,4237,4,79,112
0.10000000000002274,4237,5,79,91
0.09999999999999432,4237,6,79,112
0.09999999999999432,4237,7,79,82
0.09999999999999432,4237,8,79,99
0.09999999999999432,4237,9,79,89
0.0022727272727252057,4237,10,79,106
0.004545454545450411,4237,11,79,88
0.10000000000002274,4237,12,79,88
0.09999999999999432,4237,13,79,114
0.09999999999999432,4237,14,79,84
0.09999999999999432,4237,15,79,112
0.09999999999999432,4238,0,79,77
0.09999999999999432,4238,1,79,63
0.09999999999999432,4238,2,79,94
0.09999999999999432,4238,3,79,95
0.10000000000002274,4238,4,79,73
0.10000000000002274,4238,5,79,66
0.10000000000002274,4238,6,79,98
0.09999999999999432,4238,7,79,51
0.09999999999999432,4238,8,79,89
0.09999999999999432,4238,9,79,72
0.09999999999999432,4238,10,79,110
0.09999999999999432,4238,11,79,52
0.09999999999999432,4238,12,79,86
0.10000000000002274,4238,13,79,97
0.10000000000002274,4238,14,79,6
0.09999999999999432,4238,15,79,26
0.09999999999999432,4239,0,79,78
0.013636363636351234,4239,1,79,126
0.09999999999999432,4239,2,79,86
0.09999999999999432,4239,3,79,76
0.09999999999999432,4239,4,79,106
0.09999999999999432,4239,5,79,69
0.09999999999999432,4239,6,79,107
0.09999999999999432,4239,7,79,118
0.09999999999999432,4239,8,79,112
0.10000000000002274,4239,9,79,94
0.09999999999999432,4239,10,79,124
0.09999999999999432,4239,11,79,53
0.09999999999999432,4239,12,79,127
0.09999999999999432,4239,13,79,55
0.09999999999999432,4239,14,79,103
0.10000000000002274,4239,15,79,94
0.09999999999999432,4240,0,79,72
0.09999999999999432,4240,1,79,16
0.09999999999999432,4240,2,79,57
0.09999999999999432,4240,3,79,75
0.09999999999999432,4240,4,79,67
0.09999999999999432,4240,5,79,53
0.09999999999999432,4240,6,79,65
0.09999999999999432,4240,7,79,53
0.10000000000002274,4240,8,79,51
0.09999999999999432,4240,9,79,49
0.10000000000002274,4240,10,79,16
0.09999999999999432,4240,11,79,82
0.06818181818181301,4240,12,79,99
0.09999999999999432,4240,13,79,107
0.004545454545450411,4240,14,79,65
0.10000000000002274,4240,15,79,54
0.09999999999999432,4241,0,79,43
0.09999999999999432,4241,1,79,39
0.09999999999999432,4241,2,79,70
0.09999999999999432,4241,3,79,58
0.10000000000002274,4241,4,79,60
0.10000000000002274,4241,5,79,103
0.09999999999999432,4241,6,79,48
0.09999999999999432,4241,7,79,22
0.09999999999999432,4241,8,79,60
0.10000000000002274,4241,9,79,87
0.10000000000002274,4241,10,79,61
0.09999999999999432,4241,11,79,106
0.09999999999999432,4241,12,79,72
0.09999999999999432,4241,13,79,75
0.09999999999999432,4241,14,79,11
0.10000000000002274,4241,15,79,58
0.10000000000002274,4242,0,79,37
0.09999999999999432,4242,1,79,62
0.09999999999999432,4242,2,79,126
0.09999999999999432,4242,3,79,90
0.0022727272727252057,4242,4,79,110
0.10000000000002274,4242,5,79,104
0.09999999999999432,4242,6,79,118
0.10000000000002274,4242,7,79,90
0.09999999999999432,4242,8,79,106
0.09999999999999432,4242,9,79,76
0.10000000000002274,4242,10,79,94
0.09999999999999432,4242,11,79,100
0.09999999999999432,4242,12,79,124
0.10000000000002274,4242,13,79,97
0.09999999999999432,4242,14,79,87
0.09999999999999432,4242,15,79,79
0.09999999999999432,4243,0,79,102
0.09999999999999432,4243,1,79,82
0.10000000000002274,4243,2,79,127
0.10000000000002274,4243,3,79,80
0.09999999999999432,4243,4,79,90
0.09999999999999432,4243,5,79,119
0.10000000000002274,4243,6,79,68
0.09999999999999432,4243,7,79,99
0.09999999999999432,4243,8,79,103
0.10000000000002274,4243,9,79,72
0.013636363636379656,4243,10,79,111
0.09999999999999432,4243,11,79,63
0.09999999999999432,4243,12,79,119
0.09999999999999432,4243,13,79,116
0.09999999999999432,4243,14,79,105
0.09999999999999432,4243,15,79,127
0.10000000000002274,4244,0,79,82
0.09999999999999432,4244,1,79,63
0.09999999999999432,4244,2,79,78
0.09999999999999432,4244,3,79,103
0.09999999999999432,4244,4,79,82
0.09999999999999432,4244,5,79,101
0.09999999999999432,4244,6,79,84
0.09999999999999432,4244,7,79,100
0.09999999999999432,4244,8,79,99
0.09999999999999432,4244,9,79,107
0.10000000000002274,4244,10,79,106
0.09999999999999432,4244,11,79,107
0.09999999999999432,4244,12,79,71
0.09999999999999432,4244,13,79,71
0.09999999999999432,4244,14,79,18
0.004545454545450411,4244,15,79,102
0.09999999999999432,4245,0,79,111
0.09999999999999432,4245,1,79,100
0.09999999999999432,4245,2,79,107
0.10000000000002274,4245,3,79,118
0.09999999999999432,4245,4,79,86
0.09999999999999432,4245,5,79,86
0.09999999999999432,4245,6,79,42
0.10000000000000142,4245,7,73,26
0.10000000000000142,4245,8,73,23
0.0022727272727287584,4245,9,73,9
0.09999999999999787,4245,10,73,27
0.10000000000000142,4245,11,73,7
0.004545454545450411,4245,12,73,10
0.09999999999999432,4245,13,73,20
0.10000000000000142,4245,14,73,16
0.10000000000000142,4245,15,73,13
0.10000000000000142,4246,0,73,33
0.09999999999999432,4246,1,73,23
0.09999999999999432,4246,2,73,19
0.09999999999999432,4246,3,73,22
0.10000000000000142,4246,4,73,10
0.10000000000000142,4246,5,73,20
0.10000000000000142,4246,6,73,16
0.10000000000000142,4246,7,73,9
0.09999999999999432,4246,8,73,18
0.10000000000000142,4246,9,73,6
0.10000000000000142,4246,10,73,11
0.10000000000000142,4246,11,73,8
0.09999999999999432,4246,12,73,30
0.09999999999999432,4246,13,73,7
0.10000000000000142,4246,14,73,19
0.10000000000000142,4246,15,73,16
0.10000000000000142,4247,0,73,21
0.004545454545457517,4247,1,73,14
0.09999999999999432,4247,2,73,12
0.09999999999999432,4247,3,73,21
0.10000000000000142,4247,4,73,26
0.10000000000000142,4247,5,73,22
0.09999999999999432,4247,6,73,17
0.10000000000000142,4247,7,73,28
0.09999999999999432,4247,8,73,13
0.10000000000000142,4247,9,73,23
0.10000000000000142,4247,10,73,10
0.10000000000000142,4247,11,73,9
0.10000000000000142,4247,12,73,7
0.10000000000000142,4247,13,73,9
0.10000000000000142,4247,14,73,7
0.10000000000000142,4247,15,73,6
0.10000000000000142,4248,0,73,11
0.10000000000000142,4248,1,73,5
0.03636363636363882,4248,2,73,7
0.10000000000000142,4248,3,73,13
0.10000000000000142,4248,4,73,9
0.10000000000000142,4248,5,73,14
0.10000000000000142,4248,6,73,8
0.10000000000000142,4248,7,73,4
0.10000000000000142,4248,8,73,4
0.10000000000000142,4248,9,73,9
0.09999999999999432,4248,10,73,17
0.10000000000000142,4248,11,73,11
0.10000000000000142,4248,12,73,1
0.10000000000000142,4248,13,73,20
0.10000000000000142,4248,14,73,24
0.10000000000000142,4248,15,73,20
0.09999999999999432,4249,0,73,12
0.09999999999999432,4249,1,73,23
0.10000000000000142,4249,2,73,17
0.10000000000000142,4249,3,73,17
0.10000000000000142,4249,4,73,10
0.05681818181817988,4249,5,73,15
0.10000000000000142,4249,6,73,12
0.10000000000000142,4249,7,73,11
0.10000000000000142,4249,8,73,33
0.10000000000000142,4249,9,73,18
0.10000000000000142,4249,10,73,15
0.09999999999999432,4249,11,73,8
0.10000000000000142,4249,12,73,18
0.10000000000000142,4249,13,73,13
0.10000000000000142,4249,14,73,11
0.10000000000000142,4249,15,73,33
0.09999999999999432,4250,0,73,19
0.10000000000000142,4250,1,73,11
0.09999999999999432,4250,2,73,16
0.10000000000000142,4250,3,73,12
0.10000000000000142,4250,4,73,17
0.09999999999999432,4250,5,73,20
0.10000000000000142,4250,6,73,7
0.10000000000000142,4250,7,73,18
0.09999999999999432,4250,8,73,8
0.10000000000000142,4250,9,73,17
0.10000000000000142,4250,10,73,19
0.10000000000000142,4250,11,73,1
0.10000000000000142,4250,12,73,13
0.09999999999999432,4250,13,73,19
0.10000000000000142,4250,14,73,23
0.10000000000000142,4250,15,73,4
0.10000000000000853,4251,0,73,1
0.09999999999999432,4251,1,73,1
0.09999999999999432,4251,2,73,11
0.10000000000000853,4251,3,73,1
0.10000000000000853,4251,4,73,1
0.09999999999999432,4251,5,73,1
0.10000000000000853,4251,6,73,5
0.09999999999999432,4251,7,73,44
0.09999999999999432,4251,8,73,35
0.10000000000000853,4251,9,73,14
0.10000000000000853,4251,10,73,1
0.09999999999999432,4251,11,73,1
0.09999999999999432,4251,12,73,1
0.09999999999999432,4251,13,73,11
0.09999999999999432,4251,14,73,31
0.09999999999999432,4251,15,73,11
0.09999999999999432,4252,0,73,4
0.09999999999999432,4252,1,73,1
0.09999999999999432,4252,2,73,1
0.10000000000000853,4252,3,73,1
0.09999999999999432,4252,4,73,1
0.10000000000000853,4252,5,73,1
0.09999999999999432,4252,6,73,12
0.09999999999999432,4252,7,73,6
0.09999999999999432,4252,8,73,11
0.10000000000000853,4252,9,73,19
0.10000000000000853,4252,10,73,14
0.09999999999999432,4252,11,73,6
0.09999999999999432,4252,12,73,11
0.09999999999999432,4252,13,73,6
0.09999999999999432,4252,14,73,15
0.10000000000000853,4252,15,73,12
0.09999999999999432,4253,0,73,2
0.09999999999999432,4253,1,73,6
0.10000000000000853,4253,2,73,9
0.09999999999999432,4253,3,73,8
0.09999999999999432,4253,4,73,8
0.09999999999999432,4253,5,73,8
0.09999999999999432,4253,6,73,17
0.09999999999999432,4253,7,73,11
0.09999999999999432,4253,8,73,15
0.10000000000000853,4253,9,73,10
0.10000000000000853,4253,10,73,6
0.06818181818182723,4253,11,73,10
0.10000000000000853,4253,12,73,8
0.09999999999999432,4253,13,73,7
0.09999999999999432,4253,14,73,9
0.03636363636363171,4253,15,73,7
0.09999999999999432,4254,0,73,12
0.10000000000000853,4254,1,73,7
0.09999999999999432,4254,2,73,7
0.10000000000000853,4254,3,73,10
0.09999999999999432,4254,4,73,18
0.10000000000000853,4254,5,73,11
0.10000000000000853,4254,6,73,13
0.10000000000000853,4254,7,73,22
0.09999999999999432,4254,8,73,25
0.10000000000000853,4254,9,73,10
0.09999999999999432,4254,10,73,10
0.09999999999999432,4254,11,73,14
0.09999999999999432,4254,12,73,16
0.09999999999999432,4254,13,73,15
0.10000000000000853,4254,14,73,37
0.10000000000000853,4254,15,73,12
0.10000000000000853,4255,0,73,19
0.09999999999999432,4255,1,73,17
0.10000000000000853,4255,2,73,26
0.09999999999999432,4255,3,73,13
0.09999999999999432,4255,4,73,17
0.09999999999999432,4255,5,73,10
0.10000000000000853,4255,6,73,9
0.09999999999999432,4255,7,73,4
0.06818181818181301,4255,8,73,4
0.10000000000000853,4255,9,73,9
0.09999999999999432,4255,10,73,10
0.10000000000000853,4255,11,73,25
0.10000000000000853,4255,12,73,28
0.09999999999999432,4255,13,73,18
0.09999999999999432,4255,14,73,21
0.10000000000000853,4255,15,73,5
0.09999999999999432,4256,0,73,12
0.09999999999999432,4256,1,73,18
0.10000000000000853,4256,2,73,14
0.09999999999999432,4256,3,73,15
0.09999999999999432,4256,4,73,11
0.10000000000000853,4256,5,73,10
0.09999999999999432,4256,6,73,25
0.09999999999999432,4256,7,73,24
0.09999999999999432,4256,8,73,7
0.06818181818181301,4256,9,73,16
0.10000000000000853,4256,10,73,12
0.09999999999999432,4256,11,73,12
0.09999999999999432,4256,12,73,6
0.10000000000000853,4256,13,73,14
0.09999999999999432,4256,14,73,15
0.09999999999999432,4256,15,73,2
0.10000000000002274,4257,0,73,8
0.09999999999999432,4257,1,73,9
0.10000000000002274,4257,2,73,9
0.09999999999999432,4257,3,73,8
0.09999999999999432,4257,4,73,8
0.09999999999999432,4257,5,73,6
0.09999999999999432,4257,6,73,8
0.09999999999999432,4257,7,73,9
0.09999999999999432,4257,8,73,2
0.10000000000002274,4257,9,73,8
0.09999999999999432,4257,10,73,5
0.09999999999999432,4257,11,73,6
0.09999999999999432,4257,12,73,6
0.09999999999999432,4257,13,73,14
0.004545454545450411,4257,14,73,4
0.06818181818181301,4257,15,73,10
0.09999999999999432,4258,0,73,18
0.09999999999999432,4258,1,73,15
0.09999999999999432,4258,2,73,7
0.09999999999999432,4258,3,73,21
0.10000000000002274,4258,4,73,1
0.09999999999999432,4258,5,73,6
0.09999999999999432,4258,6,73,9
0.09999999999999432,4258,7,73,10
0.09999999999999432,4258,8,73,5
0.10000000000002274,4258,9,73,13
0.09999999999999432,4258,10,73,4
0.10000000000002274,4258,11,73,9
0.09999999999999432,4258,12,73,13
0.10000000000002274,4258,13,73,6
0.09999999999999432,4258,14,73,1
0.09999999999999432,4258,15,73,11
0.09999999999999432,4259,0,73,8
0.09999999999999432,4259,1,73,17
0.09999999999999432,4259,2,73,10
0.09999999999999432,4259,3,73,21
0.09999999999999432,4259,4,73,4
0.09999999999999432,4259,5,73,5
0.0022727272727252057,4259,6,73,11
0.09999999999999432,4259,7,73,7
0.10000000000002274,4259,8,73,10
0.09999999999999432,4259,9,73,14
0.10000000000002274,4259,10,73,1
0.09999999999999432,4259,11,73,2
0.056818181818158564,4259,12,73,7
0.09999999999999432,4259,13,73,7
0.09999999999999432,4259,14,73,12
0.09999999999999432,4259,15,73,7
0.09999999999999432,4260,0,73,6
0.09999999999999432,4260,1,73,8
0.025000000000005684,4260,2,73,12
0.09999999999999432,4260,3,73,5
0.01590909090907644,4260,4,73,11
0.10000000000002274,4260,5,73,8
0.09999999999999432,4260,6,73,9
0.09999999999999432,4260,7,73,14
0.10000000000002274,4260,8,73,12
0.09999999999999432,4260,9,73,8
0.09999999999999432,4260,10,73,12
0.09999999999999432,4260,11,73,12
0.09999999999999432,4260,12,73,14
0.09999999999999432,4260,13,73,9
0.09999999999999432,4260,14,73,13
0.09999999999999432,4260,15,73,13
0.09999999999999432,4261,0,73,3
0.09999999999999432,4261,1,73,11
0.09999999999999432,4261,2,73,7
0.09999999999999432,4261,3,73,7
0.10000000000002274,4261,4,73,14
0.09999999999999432,4261,5,73,13
0.09999999999999432,4261,6,73,14
0.09999999999999432,4261,7,73,9
0.09999999999999432,4261,8,73,7
0.06818181818181301,4261,9,73,14
0.10000000000002274,4261,10,73,13
0.09999999999999432,4261,11,73,14
0.09999999999999432,4261,12,73,14
0.09999999999999432,4261,13,73,8
0.09999999999999432,4261,14,73,7
0.09999999999999432,4261,15,73,16
0.10000000000002274,4262,0,73,15
0.09999999999999432,4262,1,73,15
0.10000000000002274,4262,2,73,15
0.10000000000002274,4262,3,73,18
0.09999999999999432,4262,4,73,3
0.09999999999999432,4262,5,73,6
0.09999999999999432,4262,6,73,8
0.09999999999999432,4262,7,73,10
0.09999999999999432,4262,8,73,13
0.09999999999999432,4262,9,73,9
0.09999999999999432,4262,10,73,15
0.10000000000002274,4262,11,73,1
0.10000000000002274,4262,12,73,1
0.04772727272728616,4262,13,73,2
0.004545454545450411,4262,14,73,3
0.09999999999999432,4262,15,73,4
0.09999999999999432,4263,0,73,12
0.09999999999999432,4263,1,73,20
0.09999999999999432,4263,2,73,20
0.09999999999999432,4263,3,73,8
0.10000000000002274,4263,4,73,10
0.10000000000002274,4263,5,73,6
0.09999999999999432,4263,6,73,11
0.09999999999999432,4263,7,73,21
0.09999999999999432,4263,8,73,6
0.09999999999999432,4263,9,73,5
0.09999999999999432,4263,10,73,12
0.09999999999999432,4263,11,73,24
0.09999999999999432,4263,12,73,8
0.10000000000002274,4263,13,73,9
0.10000000000002274,4263,14,73,13
0.10000000000002274,4263,15,73,10
0.09999999999999432,4264,0,73,20
0.09999999999999432,4264,1,73,28
0.09999999999999432,4264,2,73,14
0.09999999999999432,4264,3,73,12
0.09999999999999432,4264,4,73,3
0.06818181818181301,4264,5,73,4
0.09999999999999432,4264,6,73,10
0.09999999999999432,4264,7,73,28
0.09999999999999432,4264,8,73,18
0.10000000000002274,4264,9,73,2
0.09999999999999432,4264,10,73,11
0.09999999999999432,4264,11,73,7
0.09999999999999432,4264,12,73,8
0.09999999999999432,4264,13,73,8
0.09999999999999432,4264,14,73,17
0.09999999999999432,4264,15,73,13
0.0022727272727252057,4265,0,73,13
0.09999999999999432,4265,1,73,15
0.09999999999999432,4265,2,73,11
0.10000000000002274,4265,3,73,13
0.09999999999999432,4265,4,73,7
0.06818181818181301,4265,5,73,11
0.10000000000000142,4265,6,55,41
0.09999999999999787,4265,7,55,83
0.09999999999999787,4265,8,55,96
0.09999999999999787,4265,9,55,31
0.10000000000000142,4265,10,55,61
0.10000000000000142,4265,11,55,33
0.09999999999999787,4265,12,55,58
0.09999999999999787,4265,13,55,37
0.10000000000000142,4265,14,55,74
0.09999999999999787,4265,15,55,97
0.10000000000000142,4266,0,55,48
0.10000000000000142,4266,1,55,69
0.09999999999999787,4266,2,55,68
0.10000000000000142,4266,3,55,51
0.10000000000000142,4266,4,55,86
0.09999999999999787,4266,5,55,58
0.09999999999999787,4266,6,55,58
0.10000000000000142,4266,7,55,68
0.10000000000000142,4266,8,55,62
0.09999999999999787,4266,9,55,64
0.10000000000000142,4266,10,55,100
0.045454545454546746,4266,11,55,94
0.09999999999999787,4266,12,55,72
0.02499999999999858,4266,13,55,73
0.09999999999999432,4266,14,55,20
0.04545454545453964,4266,15,55,41
0.10000000000000142,4267,0,55,58
0.09999999999999432,4267,1,55,35
0.10000000000000142,4267,2,55,64
0.09999999999999432,4267,3,55,47
0.10000000000000142,4267,4,55,57
0.05681818181817988,4267,5,55,40
0.09999999999999432,4267,6,55,49
0.10000000000000142,4267,7,55,69
0.10000000000000142,4267,8,55,28
0.10000000000000142,4267,9,55,42
0.10000000000000142,4267,10,55,60
0.10000000000000142,4267,11,55,76
0.10000000000000142,4267,12,55,58
0.09999999999999432,4267,13,55,52
0.10000000000000142,4267,14,55,80
0.013636363636365445,4267,15,55,46
0.10000000000000142,4268,0,55,69
0.10000000000000142,4268,1,55,52
0.09999999999999432,4268,2,55,80
0.06818181818181301,4268,3,55,86
0.10000000000000142,4268,4,55,64
0.10000000000000142,4268,5,55,63
0.10000000000000142,4268,6,55,69
0.10000000000000142,4268,7,55,60
0.10000000000000142,4268,8,55,85
0.10000000000000142,4268,9,55,55
0.10000000000000142,4268,10,55,94
0.10000000000000142,4268,11,55,48
0.10000000000000142,4268,12,55,68
0.10000000000000142,4268,13,55,74
0.10000000000000142,4268,14,55,50
0.10000000000000142,4268,15,55,55
0.10000000000000142,4269,0,55,67
0.10000000000000142,4269,1,55,51
0.10000000000000142,4269,2,55,41
0.10000000000000142,4269,3,55,53
0.10000000000000142,4269,4,55,66
0.10000000000000142,4269,5,55,82
0.10000000000000142,4269,6,55,95
0.013636363636365445,4269,7,55,81
0.05909090909091219,4269,8,55,57
0.09999999999999432,4269,9,55,66
0.10000000000000142,4269,10,55,74
0.10000000000000142,4269,11,55,62
0.10000000000000142,4269,12,55,78
0.10000000000000142,4269,13,55,30
0.09999999999999432,4269,14,55,51
0.10000000000000142,4269,15,55,24
0.10000000000000142,4270,0,55,72
0.10000000000000142,4270,1,55,51
0.10000000000000142,4270,2,55,72
0.10000000000000142,4270,3,55,69
0.03636363636363882,4270,4,55,58
0.10000000000000142,4270,5,55,88
0.09999999999999432,4270,6,55,75
0.10000000000000142,4270,7,55,70
0.10000000000000142,4270,8,55,55
0.10000000000000142,4270,9,55,43
0.10000000000000142,4270,10,55,79
0.10000000000000142,4270,11,55,54
0.09999999999999432,4270,12,55,51
0.10000000000000142,4270,13,55,36
0.10000000000000142,4270,14,55,57
0.10000000000000142,4270,15,55,7
0.10000000000000142,4271,0,55,52
0.09999999999999432,4271,1,55,62
0.10000000000000142,4271,2,55,32
0.10000000000000142,4271,3,55,77
0.06590909090909491,4271,4,55,71
0.10000000000000142,4271,5,55,36
0.10000000000000142,4271,6,55,58
0.10000000000000142,4271,7,55,40
0.10000000000000142,4271,8,55,44
0.09999999999999432,4271,9,55,44
0.10000000000000142,4271,10,55,46
0.10000000000000142,4271,11,55,43
0.10000000000000142,4271,12,55,62
0.10000000000000142,4271,13,55,36
0.10000000000000142,4271,14,55,37
0.09999999999999432,4271,15,55,37
0.09999999999999432,4272,0,55,58
0.06818181818181301,4272,1,55,38
0.09999999999999432,4272,2,55,50
0.10000000000000142,4272,3,55,36
0.10000000000000142,4272,4,55,50
0.10000000000000142,4272,5,55,65
0.10000000000000142,4272,6,55,33
0.10000000000000142,4272,7,55,55
0.10000000000000142,4272,8,55,37
0.10000000000000142,4272,9,55,40
0.09999999999999432,4272,10,55,55
0.10000000000000142,4272,11,55,63
0.10000000000000142,4272,12,55,46
0.10000000000000142,4272,13,55,79
0.09999999999999432,4272,14,55,47
0.10000000000000142,4272,15,55,62
0.10000000000000142,4273,0,55,42
0.09999999999999432,4273,1,55,51
0.10000000000000142,4273,2,55,68
0.025000000000005684,4273,3,55,49
0.10000000000000142,4273,4,55,83
0.09999999999999432,4273,5,55,20
0.10000000000000142,4273,6,55,3
0.10000000000000142,4273,7,55,19
0.10000000000000142,4273,8,55,20
0.06818181818182012,4273,9,55,24
0.10000000000000142,4273,10,55,25
0.10000000000000142,4273,11,55,33
0.06818181818181301,4273,12,55,33
0.02499999999999858,4273,13,55,45
0.045454545454546746,4273,14,55,43
0.09999999999999432,4273,15,55,21
0.10000000000000142,4274,0,55,23
0.10000000000000142,4274,1,55,18
0.09999999999999432,4274,2,55,50
0.10000000000000142,4274,3,55,69
0.025000000000005684,4274,4,55,59
0.004545454545450411,4274,5,55,53
0.10000000000000142,4274,6,55,32
0.10000000000000853,4274,7,55,14
0.09999999999999432,4274,8,55,16
0.10000000000000853,4274,9,55,33
0.09999999999999432,4274,10,55,27
0.09999999999999432,4274,11,55,37
0.10000000000000853,4274,12,55,25
0.09999999999999432,4274,13,55,21
0.09999999999999432,4274,14,55,19
0.09999999999999432,4274,15,55,78
0.10000000000000853,4275,0,55,13
0.06818181818182723,4275,1,55,25
0.10000000000000853,4275,2,55,19
0.10000000000000853,4275,3,55,19
0.09999999999999432,4275,4,55,9
0.09999999999999432,4275,5,55,33
0.09999999999999432,4275,6,55,45
0.056818181818172775,4275,7,55,33
0.10000000000000853,4275,8,55,54
0.10000000000000853,4275,9,55,57
0.004545454545464622,4275,10,55,40
0.10000000000000853,4275,11,55,30
0.09999999999999432,4275,12,55,34
0.10000000000000853,4275,13,55,50
0.10000000000000853,4275,14,55,51
0.09999999999999432,4275,15,55,55
0.10000000000000853,4276,0,55,32
0.09999999999999432,4276,1,55,16
0.10000000000000853,4276,2,55,20
0.06818181818182723,4276,3,55,39
0.09999999999999432,4276,4,55,53
0.09999999999999432,4276,5,55,40
0.09999999999999432,4276,6,55,51
0.10000000000000853,4276,7,55,44
0.10000000000000853,4276,8,55,45
0.10000000000000853,4276,9,55,52
0.10000000000000853,4276,10,55,21
0.09999999999999432,4276,11,55,43
0.09999999999999432,4276,12,55,41
0.09999999999999432,4276,13,55,29
0.09999999999999432,4276,14,55,24
0.09999999999999432,4276,15,55,55
0.10000000000000853,4277,0,55,43
0.10000000000000853,4277,1,55,53
0.09999999999999432,4277,2,55,44
0.09999999999999432,4277,3,55,19
0.09999999999999432,4277,4,55,49
0.10000000000000853,4277,5,55,44
0.09999999999999432,4277,6,55,22
0.10000000000000853,4277,7,55,54
0.09999999999999432,4277,8,55,39
0.09999999999999432,4277,9,55,59
0.10000000000000853,4277,10,55,26
0.09999999999999432,4277,11,55,63
0.10000000000000853,4277,12,55,68
0.10000000000000853,4277,13,55,58
0.10000000000000853,4277,14,55,43
0.09999999999999432,4277,15,55,44
0.10000000000000853,4278,0,55,46
0.09999999999999432,4278,1,55,34
0.045454545454546746,4278,2,55,45
0.10000000000000853,4278,3,55,23
0.09999999999999432,4278,4,55,42
0.09999999999999432,4278,5,55,42
0.10000000000000853,4278,6,55,56
0.10000000000000853,4278,7,55,24
0.10000000000000853,4278,8,55,52
0.09999999999999432,4278,9,55,17
0.10000000000000853,4278,10,55,70
0.10000000000000853,4278,11,55,51
0.09999999999999432,4278,12,55,50
0.10000000000000853,4278,13,55,71
0.09999999999999432,4278,14,55,45
0.09999999999999432,4278,15,55,70
0.10000000000000853,4279,0,55,64
0.09999999999999432,4279,1,55,41
0.09999999999999432,4279,2,55,59
0.09999999999999432,4279,3,55,54
0.04772727272727195,4279,4,55,50
0.09999999999999432,4279,5,55,50
0.10000000000000853,4279,6,55,52
0.09999999999999432,4279,7,55,58
0.09999999999999432,4279,8,55,31
0.10000000000000853,4279,9,55,25
0.09999999999999432,4279,10,55,54
0.10000000000000853,4279,11,55,65
0.09999999999999432,4279,12,55,65
0.05909090909089798,4279,13,55,47
0.09999999999999432,4279,14,55,53
0.09999999999999432,4279,15,55,56
0.09999999999999432,4280,0,55,27
0.09999999999999432,4280,1,55,50
0.09999999999999432,4280,2,55,52
0.10000000000000853,4280,3,55,45
0.09999999999999432,4280,4,55,62
0.09999999999999432,4280,5,55,51
0.09999999999999432,4280,6,55,42
0.10000000000000853,4280,7,55,43
0.09999999999999432,4280,8,55,41
0.10000000000000853,4280,9,55,64
0.0022727272727394165,4280,10,55,62
0.02727272727273089,4280,11,55,60
0.10000000000000853,4280,12,55,46
0.10000000000000853,4280,13,55,47
0.09999999999999432,4280,14,55,34
0.09999999999999432,4280,15,55,43
0.09999999999999432,4281,0,55,56
0.09999999999999432,4281,1,55,50
0.056818181818186986,4281,2,55,41
0.10000000000000853,4281,3,55,51
0.10000000000000853,4281,4,55,39
0.09999999999999432,4281,5,55,55
0.09999999999999432,4281,6,55,28
0.10000000000000853,4281,7,55,50
0.10000000000000853,4281,8,55,73
0.09999999999999432,4281,9,55,69
0.05909090909089798,4281,10,55,53
0.09999999999999432,4281,11,55,50
0.09999999999999432,4281,12,55,50
0.09999999999999432,4281,13,55,49
0.03636363636363171,4281,14,55,35
0.10000000000000853,4281,15,55,57
0.10000000000000853,4282,0,55,38
0.09999999999999432,4282,1,55,60
0.05909090909089798,4282,2,55,74
0.013636363636365445,4282,3,55,82
0.10000000000000853,4282,4,55,54
0.06818181818182723,4282,5,55,43
0.10000000000000853,4282,6,55,53
0.10000000000000853,4282,7,55,49
0.10000000000000853,4282,8,55,45
0.09999999999999432,4282,9,55,60
0.09999999999999432,4282,10,55,26
0.09999999999999432,4282,11,55,52
0.09999999999999432,4282,12,55,30
0.09999999999999432,4282,13,55,63
0.09999999999999432,4282,14,55,58
0.10000000000000853,4282,15,55,40
0.10000000000000853,4283,0,55,32
0.10000000000000853,4283,1,55,58
0.10000000000000853,4283,2,55,45
0.09999999999999432,4283,3,55,34
0.09999999999999432,4283,4,55,91
0.09999999999999432,4283,5,55,88
0.09999999999999432,4283,6,55,46
0.09999999999999432,4283,7,55,77
0.09999999999999432,4283,8,55,71
0.09999999999999432,4283,9,55,72
0.09999999999999432,4283,10,55,21
0.10000000000002274,4283,11,55,79
0.09999999999999432,4283,12,55,76
0.09999999999999432,4283,13,55,33
0.09999999999999432,4283,14,55,40
0.09999999999999432,4283,15,55,43
0.09999999999999432,4284,0,55,47
0.09999999999999432,4284,1,55,23
0.09999999999999432,4284,2,55,29
0.06818181818181301,4284,3,55,52
0.09999999999999432,4284,4,55,36
0.09999999999999432,4284,5,55,43
0.10000000000002274,4284,6,55,24
0.09999999999999432,4284,7,55,55
0.10000000000002274,4284,8,55,29
0.09999999999999432,4284,9,55,77
0.10000000000002274,4284,10,55,28
0.09999999999999432,4284,11,55,58
0.10000000000002274,4284,12,55,32
0.09999999999999432,4284,13,55,37
0.09999999999999432,4284,14,55,59
0.09999999999999432,4284,15,55,29
0.09999999999999432,4285,0,55,30
0.06818181818181301,4285,1,55,50
0.10000000000002274,4285,2,55,44
0.09999999999999432,4285,3,55,86
0.09999999999999432,4285,4,55,71
0.09999999999999432,4285,5,55,85
0.056818181818186986,4285,6,55,87
0.09999999999999432,4285,7,55,76
0.10000000000002274,4285,8,55,20
0.06818181818184144,4285,9,55,31
0.09999999999999432,4285,10,55,34
0.09999999999999432,4285,11,55,53
0.09999999999999432,4285,12,55,47
0.09999999999999432,4285,13,55,24
0.10000000000002274,4285,14,55,53
0.056818181818186986,4285,15,55,69
0.09999999999999432,4286,0,55,44
0.056818181818186986,4286,1,55,59
0.09999999999999432,4286,2,55,57
0.09999999999999432,4286,3,55,28
0.09999999999999432,4286,4,55,46
0.06818181818181301,4286,5,55,50
0.10000000000002274,4286,6,55,33
0.09999999999999432,4286,7,55,64
0.09999999999999432,4286,8,55,63
0.09999999999999432,4286,9,55,58
0.09999999999999432,4286,10,55,70
0.09999999999999432,4286,11,55,30
0.10000000000002274,4286,12,55,61
0.10000000000002274,4286,13,55,45
0.09999999999999432,4286,14,55,42
0.09999999999999432,4286,15,55,70
0.09999999999999432,4287,0,55,87
0.09999999999999432,4287,1,55,40
0.09999999999999432,4287,2,55,59
0.09999999999999432,4287,3,55,35
0.09999999999999432,4287,4,55,53
0.10000000000002274,4287,5,55,65
0.004545454545478833,4287,6,55,39
0.09999999999999432,4287,7,55,60
0.09999999999999432,4287,8,55,69
0.09999999999999432,4287,9,55,63
0.013636363636351234,4287,10,55,35
0.09999999999999432,4287,11,55,58
0.09999999999999432,4287,12,55,51
0.06818181818181301,4287,13,55,33
0.09999999999999432,4287,14,55,49
0.10000000000002274,4287,15,55,29
0.10000000000002274,4288,0,55,59
0.013636363636379656,4288,1,55,53
0.09999999999999432,4288,2,55,29
0.09999999999999432,4288,3,55,68
0.09999999999999432,4288,4,55,68
0.024999999999977263,4288,5,55,41
0.09999999999999432,4288,6,55,62
0.09999999999999432,4288,7,55,33
0.004545454545450411,4288,8,55,61
0.09999999999999432,4288,9,55,25
0.10000000000002274,4288,10,55,56
0.09999999999999432,4288,11,55,64
0.10000000000002274,4288,12,55,79
0.036363636363660135,4288,13,55,44
0.10000000000002274,4288,14,55,58
0.09999999999999432,4288,15,55,52
0.06818181818181301,4289,0,55,60
0.09999999999999432,4289,1,55,42
0.004545454545450411,4289,2,55,37
0.09999999999999432,4289,3,55,63
0.09999999999999432,4289,4,55,38
0.09999999999999432,4289,5,55,36
0.09999999999999432,4289,6,55,58
0.09999999999999432,4289,7,55,47
0.09999999999999432,4289,8,55,43
0.09999999999999432,4289,9,55,49
0.10000000000000142,4289,10,98,127
0.09999999999999964,4289,11,98,79
0.09999999999999964,4289,12,98,48
0.10000000000000142,4289,13,98,71
0.09999999999999964,4289,14,98,58
0.09999999999999964,4289,15,98,127
0.09999999999999964,4290,0,98,67
0.09999999999999964,4290,1,98,55
0.09999999999999787,4290,2,98,59
0.10000000000000142,4290,3,98,113
0.10000000000000142,4290,4,98,127
0.10000000000000142,4290,5,98,3
0.09999999999999787,4290,6,98,127
0.09999999999999787,4290,7,98,3
0.09999999999999787,4290,8,98,127
0.10000000000000142,4290,9,98,3
0.09999999999999787,4290,10,98,127
0.10000000000000142,4290,11,98,3
0.10000000000000142,4290,12,98,127
0.09999999999999787,4290,13,98,3
0.09999999999999787,4290,14,98,127
0.09999999999999787,4290,15,98,3
0.09999999999999787,4291,0,98,116
0.10000000000000142,4291,1,98,3
0.09999999999999787,4291,2,98,127
0.09999999999999787,4291,3,98,3
0.09999999999999787,4291,4,98,127
0.09999999999999787,4291,5,98,3
0.10000000000000142,4291,6,98,127
0.09999999999999787,4291,7,98,3
0.09999999999999787,4291,8,98,127
0.09999999999999787,4291,9,98,3
0.09999999999999787,4291,10,98,127
0.09999999999999787,4291,11,98,3
0.09999999999999787,4291,12,98,127
0.09999999999999787,4291,13,98,3
0.09999999999999787,4291,14,98,127
0.09999999999999787,4291,15,98,3
0.09999999999999787,4292,0,98,127
0.09999999999999787,4292,1,98,3
0.10000000000000142,4292,2,98,127
0.09999999999999787,4292,3,98,3
0.10000000000000142,4292,4,98,127
0.10000000000000142,4292,5,98,127
0.09999999999999787,4292,6,98,127
0.09999999999999787,4292,7,98,127
0.10000000000000142,4292,8,98,127
0.10000000000000142,4292,9,98,46
0.09999999999999787,4292,10,98,30
0.10000000000000142,4292,11,98,30
0.09999999999999787,4292,12,98,79
0.09999999999999787,4292,13,98,19
0.10000000000000142,4292,14,98,105
0.10000000000000142,4292,15,98,127
0.10000000000000142,4293,0,98,24
0.09999999999999432,4293,1,98,127
0.09999999999999432,4293,2,98,127
0.10000000000000142,4293,3,98,20
0.10000000000000142,4293,4,98,127
0.09999999999999432,4293,5,98,3
0.10000000000000142,4293,6,98,2
0.09999999999999432,4293,7,98,127
0.09999999999999432,4293,8,98,2
0.10000000000000142,4293,9,98,20
0.10000000000000142,4293,10,98,127
0.10000000000000142,4293,11,98,2
0.10000000000000142,4293,12,98,2
0.10000000000000142,4293,13,98,127
0.09999999999999432,4293,14,98,2
0.10000000000000142,4293,15,98,20
0.09999999999999432,4294,0,98,127
0.10000000000000142,4294,1,98,3
0.10000000000000142,4294,2,98,2
0.10000000000000142,4294,3,98,127
0.10000000000000142,4294,4,98,2
0.10000000000000142,4294,5,98,20
0.10000000000000142,4294,6,98,127
0.09999999999999432,4294,7,98,2
0.10000000000000142,4294,8,98,2
0.10000000000000142,4294,9,98,127
0.10000000000000142,4294,10,98,49
0.10000000000000142,4294,11,98,3
0.10000000000000142,4294,12,98,19
0.10000000000000142,4294,13,98,123
0.10000000000000142,4294,14,98,2
0.10000000000000142,4294,15,98,2
0.10000000000000142,4295,0,98,127
0.10000000000000142,4295,1,98,50
0.09999999999999432,4295,2,98,3
0.10000000000000142,4295,3,98,19
0.10000000000000142,4295,4,98,127
0.10000000000000142,4295,5,98,1
0.10000000000000142,4295,6,98,2
0.10000000000000142,4295,7,98,127
0.10000000000000142,4295,8,98,48
0.10000000000000142,4295,9,98,4
0.10000000000000142,4295,10,98,19
0.10000000000000142,4295,11,98,127
0.09999999999999432,4295,12,98,3
0.10000000000000142,4295,13,98,2
0.10000000000000142,4295,14,98,127
0.09999999999999432,4295,15,98,49
0.10000000000000142,4296,0,98,3
0.10000000000000142,4296,1,98,21
0.10000000000000142,4296,2,98,127
0.10000000000000142,4296,3,98,2
0.09999999999999432,4296,4,98,2
0.10000000000000142,4296,5,98,127
0.10000000000000142,4296,6,98,53
0.10000000000000142,4296,7,98,3
0.10000000000000142,4296,8,98,20
0.10000000000000142,4296,9,98,126
0.10000000000000142,4296,10,98,2
0.10000000000000142,4296,11,98,2
0.10000000000000142,4296,12,98,127
0.10000000000000142,4296,13,98,55
0.09999999999999432,4296,14,98,19
0.10000000000000142,4296,15,98,127
0.10000000000000142,4297,0,98,2
0.10000000000000142,4297,1,98,2
0.10000000000000142,4297,2,98,127
0.10000000000000142,4297,3,98,61
0.10000000000000142,4297,4,98,2
0.10000000000000142,4297,5,98,21
0.10000000000000142,4297,6,98,127
0.10000000000000142,4297,7,98,3
0.10000000000000142,4297,8,98,2
0.10000000000000142,4297,9,98,127
0.09999999999999432,4297,10,98,62
0.10000000000000142,4297,11,98,2
0.10000000000000142,4297,12,98,21
0.10000000000000142,4297,13,98,127
0.10000000000000142,4297,14,98,2
0.09999999999999432,4297,15,98,2
0.10000000000000142,4298,0,98,127
0.09999999999999432,4298,1,98,49
0.10000000000000142,4298,2,98,2
0.09999999999999432,4298,3,98,20
0.10000000000000142,4298,4,98,123
0.10000000000000142,4298,5,98,1
0.09999999999999432,4298,6,98,2
0.10000000000000142,4298,7,98,127
0.10000000000000142,4298,8,98,49
0.10000000000000142,4298,9,98,18
0.10000000000000142,4298,10,98,22
0.10000000000000142,4298,11,98,127
0.10000000000000142,4298,12,98,75
0.10000000000000142,4298,13,98,18
0.09999999999999432,4298,14,98,127
0.10000000000000142,4298,15,98,4
0.10000000000000142,4299,0,98,21
0.10000000000000142,4299,1,98,127
0.10000000000000142,4299,2,98,7
0.10000000000000142,4299,3,98,127
0.10000000000000142,4299,4,98,23
0.09999999999999432,4299,5,98,127
0.10000000000000142,4299,6,98,127
0.10000000000000142,4299,7,98,17
0.10000000000000142,4299,8,98,127
0.09999999999999432,4299,9,98,3
0.09999999999999432,4299,10,98,127
0.10000000000000142,4299,11,98,3
0.10000000000000142,4299,12,98,19
0.10000000000000142,4299,13,98,127
0.10000000000000142,4299,14,98,6
0.10000000000000142,4299,15,98,127
0.10000000000000142,4300,0,98,60
0.09999999999999432,4300,1,98,2
0.10000000000000142,4300,2,98,21
0.10000000000000142,4300,3,98,126
0.10000000000000142,4300,4,98,8
0.09999999999999432,4300,5,98,127
0.09999999999999432,4300,6,98,2
0.10000000000000142,4300,7,98,20
0.09999999999999432,4300,8,98,125
0.09999999999999432,4300,9,98,4
0.10000000000000142,4300,10,98,127
0.10000000000000142,4300,11,98,47
0.10000000000000142,4300,12,98,3
0.10000000000000142,4300,13,98,20
0.09999999999999432,4300,14,98,127
0.09999999999999432,4300,15,98,2
0.10000000000000142,4301,0,98,2
0.10000000000000142,4301,1,98,127
0.10000000000000142,4301,2,98,45
0.10000000000000142,4301,3,98,2
0.10000000000000142,4301,4,98,19
0.10000000000000142,4301,5,98,127
0.10000000000000142,4301,6,98,7
0.09999999999999432,4301,7,98,127
0.10000000000000142,4301,8,98,50
0.09999999999999432,4301,9,98,3
0.10000000000000142,4301,10,98,22
0.10000000000000142,4301,11,98,127
0.10000000000000142,4301,12,98,7
0.10000000000000142,4301,13,98,127
0.10000000000000142,4301,14,98,76
0.10000000000000142,4301,15,98,127
0.10000000000000142,4302,0,98,73
0.10000000000000142,4302,1,98,103
0.10000000000000142,4302,2,98,78
0.10000000000000142,4302,3,98,127
0.10000000000000142,4302,4,98,69
0.10000000000000142,4302,5,98,127
0.10000000000000853,4302,6,98,85
0.10000000000000853,4302,7,98,127
0.10000000000000853,4302,8,98,37
0.09999999999999432,4302,9,98,127
0.10000000000000853,4302,10,98,79
0.10000000000000853,4302,11,98,127
0.09999999999999432,4302,12,98,127
0.09999999999999432,4302,13,98,86
0.09999999999999432,4302,14,98,127
0.09999999999999432,4302,15,98,72
0.09999999999999432,4303,0,98,127
0.10000000000000853,4303,1,98,76
0.10000000000000853,4303,2,98,127
0.09999999999999432,4303,3,98,76
0.10000000000000853,4303,4,98,127
0.09999999999999432,4303,5,98,71
0.09999999999999432,4303,6,98,127
0.09999999999999432,4303,7,98,60
0.09999999999999432,4303,8,98,127
0.10000000000000853,4303,9,98,72
0.09999999999999432,4303,10,98,127
0.09999999999999432,4303,11,98,27
0.09999999999999432,4303,12,98,127
0.09999999999999432,4303,13,98,30
0.09999999999999432,4303,14,98,14
0.09999999999999432,4303,15,98,127
0.09999999999999432,4304,0,98,71
0.10000000000000853,4304,1,98,72
0.09999999999999432,4304,2,98,100
0.10000000000000853,4304,3,98,126
0.10000000000000853,4304,4,98,17
0.09999999999999432,4304,5,98,110
0.10000000000000853,4304,6,98,127
0.09999999999999432,4304,7,98,3
0.09999999999999432,4304,8,98,11
0.09999999999999432,4304,9,98,101
0.10000000000000853,4304,10,98,31
0.10000000000000853,4304,11,98,3
0.09999999999999432,4304,12,98,1
0.09999999999999432,4304,13,98,127
0.10000000000000853,4304,14,98,37
0.10000000000000853,4304,15,98,3
0.09999999999999432,4305,0,98,13
0.10000000000000853,4305,1,98,99
0.10000000000000853,4305,2,98,30
0.09999999999999432,4305,3,98,3
0.10000000000000853,4305,4,98,1
0.09999999999999432,4305,5,98,127
0.09999999999999432,4305,6,98,37
0.09999999999999432,4305,7,98,3
0.10000000000000853,4305,8,98,11
0.09999999999999432,4305,9,98,95
0.09999999999999432,4305,10,98,3
0.10000000000000853,4305,11,98,1
0.10000000000000853,4305,12,98,127
0.09999999999999432,4305,13,98,36
0.09999999999999432,4305,14,98,3
0.09999999999999432,4305,15,98,12
0.09999999999999432,4306,0,98,98
0.10000000000000853,4306,1,98,32
0.09999999999999432,4306,2,98,3
0.09999999999999432,4306,3,98,1
0.09999999999999432,4306,4,98,125
0.10000000000000853,4306,5,98,3
0.09999999999999432,4306,6,98,11
0.10000000000000853,4306,7,98,97
0.09999999999999432,4306,8,98,32
0.10000000000000853,4306,9,98,3
0.09999999999999432,4306,10,98,1
0.10000000000000853,4306,11,98,127
0.10000000000000853,4306,12,98,32
0.09999999999999432,4306,13,98,3
0.10000000000000853,4306,14,98,14
0.09999999999999432,4306,15,98,95
0.09999999999999432,4307,0,98,26
0.09999999999999432,4307,1,98,3
0.10000000000000853,4307,2,98,1
0.10000000000000853,4307,3,98,127
0.09999999999999432,4307,4,98,3
0.09999999999999432,4307,5,98,12
0.09999999999999432,4307,6,98,98
0.09999999999999432,4307,7,98,29
0.10000000000000853,4307,8,98,3
0.09999999999999432,4307,9,98,1
0.10000000000000853,4307,10,98,127
0.09999999999999432,4307,11,98,36
0.10000000000000853,4307,12,98,3
0.09999999999999432,4307,13,98,14
0.09999999999999432,4307,14,98,101
0.10000000000000853,4307,15,98,31
0.10000000000000853,4308,0,98,3
0.09999999999999432,4308,1,98,1
0.09999999999999432,4308,2,98,127
0.09999999999999432,4308,3,98,35
0.09999999999999432,4308,4,98,3
0.10000000000000853,4308,5,98,12
0.10000000000000853,4308,6,98,102
0.09999999999999432,4308,7,98,31
0.09999999999999432,4308,8,98,3
0.10000000000000853,4308,9,98,1
0.10000000000000853,4308,10,98,1
0.09999999999999432,4308,11,98,38
0.09999999999999432,4308,12,98,47
0.09999999999999432,4308,13,98,31
0.10000000000000853,4308,14,98,37
0.09999999999999432,4308,15,98,39
0.09999999999999432,4309,0,98,38
0.09999999999999432,4309,1,98,36
0.10000000000000853,4309,2,98,36
0.09999999999999432,4309,3,98,127
0.09999999999999432,4309,4,98,2
0.09999999999999432,4309,5,98,118
0.09999999999999432,4309,6,98,2
0.09999999999999432,4309,7,98,119
0.10000000000000853,4309,8,98,2
0.09999999999999432,4309,9,98,127
0.10000000000000853,4309,10,98,3
0.10000000000000853,4309,11,98,117
0.10000000000000853,4309,12,98,2
0.10000000000000853,4309,13,98,118
0.09999999999999432,4309,14,98,2
0.10000000000000853,4309,15,98,121
0.09999999999999432,4310,0,98,3
0.10000000000000853,4310,1,98,127
0.09999999999999432,4310,2,98,2
0.09999999999999432,4310,3,98,127
0.09999999999999432,4310,4,98,3
0.10000000000000853,4310,5,98,99
0.10000000000000853,4310,6,98,2
0.09999999999999432,4310,7,98,127
0.10000000000000853,4310,8,98,2
0.10000000000000853,4310,9,98,127
0.09999999999999432,4310,10,98,59
0.09999999999999432,4310,11,98,5
0.09999999999999432,4310,12,98,40
0.10000000000000853,4310,13,98,127
0.10000000000000853,4310,14,98,77
0.09999999999999432,4310,15,98,25
0.10000000000000853,4311,0,98,118
0.10000000000000853,4311,1,98,54
0.09999999999999432,4311,2,98,9
0.09999999999999432,4311,3,98,127
0.10000000000000853,4311,4,98,127
0.09999999999999432,4311,5,98,19
0.10000000000000853,4311,6,98,125
0.09999999999999432,4311,7,98,8
0.10000000000000853,4311,8,98,127
0.09999999999999432,4311,9,98,6
0.09999999999999432,4311,10,98,21
0.09999999999999432,4311,11,98,105
0.10000000000000853,4311,12,98,5
0.09999999999999432,4311,13,98,127
0.10000000000000853,4311,14,98,6
0.09999999999999432,4311,15,98,22
0.09999999999999432,4312,0,98,110
0.10000000000000853,4312,1,98,6
0.10000000000000853,4312,2,98,127
0.09999999999999432,4312,3,98,6
0.10000000000000853,4312,4,98,21
0.10000000000000853,4312,5,98,110
0.10000000000000853,4312,6,98,6
0.10000000000000853,4312,7,98,127
0.09999999999999432,4312,8,98,6
0.09999999999999432,4312,9,98,22
0.10000000000000853,4312,10,98,111
0.09999999999999432,4312,11,98,5
0.09999999999999432,4312,12,98,127
0.09999999999999432,4312,13,98,7
0.09999999999999432,4312,14,98,22
0.09999999999999432,4312,15,98,83
0.10000000000000853,4313,0,98,6
0.09999999999999432,4313,1,98,127
0.10000000000000853,4313,2,98,6
0.10000000000000853,4313,3,98,23
0.09999999999999432,4313,4,98,126
0.09999999999999432,4313,5,98,6
0.10000000000000853,4313,6,98,127
0.09999999999999432,4313,7,98,6
0.09999999999999432,4313,8,98,22
0.09999999999999432,4313,9,98,110
0.09999999999999432,4313,10,98,6
0.09999999999999432,4313,11,98,127
0.09999999999999432,4313,12,98,6
0.09999999999999432,4313,13,98,23
0.09999999999999432,4313,14,98,114
0.10000000000000853,4313,15,98,6
0.09999999999999432,4314,0,98,127
0.09999999999999432,4314,1,98,5
0.10000000000000853,4314,2,98,17
0.09999999999999432,4314,3,98,104
0.09999999999999432,4314,4,98,3
0.10000000000000853,4314,5,98,127
0.09999999999999432,4314,6,98,4
0.10000000000000853,4314,7,98,14
0.09999999999999432,4314,8,98,112
0.09999999999999432,4314,9,98,4
0.09999999999999432,4314,10,98,127
0.09999999999999432,4314,11,98,4
0.09999999999999432,4314,12,98,19
0.09999999999999432,4314,13,98,112
0.09999999999999432,4314,14,98,3
0.09999999999999432,4314,15,98,127
0.10000000000000853,4315,0,98,4
0.10000000000000853,4315,1,98,16
0.10000000000000853,4315,2,98,119
0.10000000000000853,4315,3,98,3
0.09999999999999432,4315,4,98,127
0.09999999999999432,4315,5,98,4
0.10000000000000853,4315,6,98,17
0.09999999999999432,4315,7,98,113
0.09999999999999432,4315,8,98,4
0.09999999999999432,4315,9,98,23
0.10000000000000853,4315,10,98,127
0.09999999999999432,4315,11,98,28
0.09999999999999432,4315,12,98,47
0.09999999999999432,4315,13,98,123
0.09999999999999432,4315,14,98,54
0.09999999999999432,4315,15,98,11
0.09999999999999432,4316,0,98,51
0.09999999999999432,4316,1,98,127
0.10000000000000853,4316,2,98,42
0.10000000000000853,4316,3,98,41
0.10000000000000853,4316,4,98,118
0.10000000000000853,4316,5,98,48
0.10000000000000853,4316,6,98,127
0.10000000000002274,4316,7,98,127
0.10000000000002274,4316,8,98,54
0.04545454545456096,4316,9,98,51
0.09999999999999432,4316,10,98,127
0.09999999999999432,4316,11,98,70
0.04772727272725774,4316,12,98,35
0.09999999999999432,4316,13,98,127
0.09999999999999432,4316,14,98,64
0.04772727272725774,4316,15,98,31
0.09999999999999432,4317,0,98,127
0.10000000000002274,4317,1,98,67
0.04545454545456096,4317,2,98,40
0.10000000000002274,4317,3,98,127
0.09999999999999432,4317,4,98,64
0.04772727272728616,4317,5,98,43
0.09999999999999432,4317,6,98,127
0.09999999999999432,4317,7,98,65
0.04545454545456096,4317,8,98,36
0.09999999999999432,4317,9,98,127
0.09999999999999432,4317,10,98,61
0.04772727272725774,4317,11,98,46
0.09999999999999432,4317,12,98,127
0.09999999999999432,4317,13,98,80
0.09999999999999432,4317,14,98,127
0.09999999999999432,4317,15,98,70
0.09999999999999432,4318,0,98,127
0.09999999999999432,4318,1,98,74
0.09999999999999432,4318,2,98,127
0.09999999999999432,4318,3,98,86
0.09999999999999432,4318,4,98,127
0.09999999999999432,4318,5,98,97
0.09999999999999432,4318,6,98,127
0.10000000000002274,4318,7,98,82
0.09999999999999432,4318,8,98,127
0.10000000000002274,4318,9,98,94
0.09999999999999432,4318,10,98,127
0.10000000000002274,4318,11,98,127
0.09999999999999432,4318,12,98,97
0.09999999999999432,4318,13,98,127
0.09999999999999432,4318,14,98,53
0.10000000000002274,4318,15,98,127
0.09999999999999432,4319,0,98,87
0.09999999999999432,4319,1,98,127
0.09999999999999432,4319,2,98,94
0.09999999999999432,4319,3,98,127
0.09999999999999432,4319,4,98,91
0.09999999999999432,4319,5,98,104
0.10000000000002274,4319,6,98,89
0.09999999999999432,4319,7,98,127
0.09999999999999432,4319,8,98,91
0.10000000000002274,4319,9,98,127
0.09999999999999432,4319,10,98,9
0.09999999999999432,4319,11,98,16
0.10000000000002274,4319,12,98,127
0.09999999999999432,4319,13,98,41
0.09999999999999432,4319,14,98,11
0.09999999999999432,4319,15,98,18
0.09999999999999432,4320,0,98,127
0.10000000000002274,4320,1,98,54
0.01590909090910486,4320,2,98,9
0.045454545454532536,4320,3,98,9
0.10000000000002274,4320,4,98,12
0.09999999999999432,4320,5,98,127
0.09999999999999432,4320,6,98,17
0.09999999999999432,4320,7,98,5
0.10000000000002274,4320,8,98,127
0.09999999999999432,4320,9,98,127
0.09999999999999432,4320,10,98,10
0.09999999999999432,4320,11,98,10
0.09999999999999432,4320,12,98,127
0.09999999999999432,4320,13,98,8
0.09999999999999432,4320,14,98,8
0.09999999999999432,4320,15,98,127
0.09999999999999432,4321,0,98,8
0.09999999999999432,4321,1,98,127
0.09999999999999432,4321,2,98,5
0.09999999999999432,4321,3,98,5
0.09999999999999432,4321,4,98,127
0.09999999999999432,4321,5,98,7
0.09999999999999432,4321,6,98,5
0.09999999999999432,4321,7,98,127
0.09999999999999432,4321,8,98,5
0.09999999999999432,4321,9,98,6
0.09999999999999432,4321,10,98,127
0.10000000000002274,4321,11,98,6
0.09999999999999432,4321,12,98,127
0.09999999999999432,4321,13,98,5
0.09999999999999432,4321,14,98,6
0.09999999999999432,4321,15,98,127
0.09999999999999432,4322,0,98,8
0.09999999999999432,4322,1,98,127
0.09999999999999432,4322,2,98,6
0.10000000000002274,4322,3,98,5
0.09999999999999432,4322,4,98,111
0.09999999999999432,4322,5,98,11
0.09999999999999432,4322,6,98,127
0.09999999999999432,4322,7,98,26
0.09999999999999432,4322,8,98,19
0.09999999999999432,4322,9,98,119
0.09999999999999432,4322,10,98,9
0.09999999999999432,4322,11,98,14
0.09999999999999432,4322,12,98,127
0.09999999999999432,4322,13,98,33
0.04772727272725774,4322,14,98,14
0.013636363636379656,4322,15,98,15
0.09999999999999432,4323,0,98,21
0.09999999999999432,4323,1,98,124
0.10000000000002274,4323,2,98,10
0.09999999999999432,4323,3,98,127
0.10000000000002274,4323,4,98,121
0.09999999999999432,4323,5,98,9
0.10000000000002274,4323,6,98,127
0.09999999999999432,4323,7,98,8
0.10000000000002274,4323,8,98,8
0.09999999999999432,4323,9,98,87
0.09999999999999432,4323,10,98,8
0.09999999999999432,4323,11,98,127
0.09999999999999432,4323,12,98,7
0.09999999999999432,4323,13,98,7
0.09999999999999432,4323,14,98,104
0.09999999999999432,4323,15,98,5
0.09999999999999432,4324,0,98,11
0.09999999999999432,4324,1,98,127
0.09999999999999432,4324,2,98,8
0.09999999999999432,4324,3,98,7
0.09999999999999432,4324,4,98,127
0.10000000000002274,4324,5,98,8
0.09999999999999432,4324,6,98,127
0.09999999999999432,4324,7,98,6
0.09999999999999432,4324,8,98,7
0.10000000000002274,4324,9,98,111
0.09999999999999432,4324,10,98,8
0.10000000000002274,4324,11,98,127
0.09999999999999432,4324,12,98,8
0.09999999999999432,4324,13,98,8
0.09999999999999432,4324,14,98,122
0.09999999999999432,4324,15,98,8
0.09999999999999432,4325,0,98,127
0.09999999999999432,4325,1,98,5
0.10000000000002274,4325,2,98,4
0.09999999999999432,4325,3,98,114
0.09999999999999432,4325,4,98,8
0.10000000000002274,4325,5,98,8
0.09999999999999432,4325,6,98,127
0.09999999999999432,4325,7,98,8
0.09999999999999432,4325,8,98,7
0.09999999999999432,4325,9,98,112
0.09999999999999432,4325,10,98,8
0.09999999999999432,4325,11,98,127
0.09999999999999432,4325,12,98,7
0.09999999999999432,4325,13,98,6
0.09999999999999432,4325,14,98,125
0.10000000000002274,4325,15,98,8
0.09999999999999432,4326,0,98,127
0.10000000000002274,4326,1,98,30
0.10000000000002274,4326,2,98,9
0.09999999999999432,4326,3,98,7
0.10000000000002274,4326,4,98,115
0.10000000000002274,4326,5,98,8
0.09999999999999998,4326,6,61,17
0.09999999999999998,4326,7,61,40
0.10000000000000009,4326,8,61,50
0.10000000000000009,4326,9,61,4
0.10000000000000009,4326,10,61,20
0.09999999999999987,4326,11,61,9
0.10000000000000009,4326,12,61,31
0.10000000000000009,4326,13,61,50
0.09999999999999964,4326,14,61,12
0.013636363636363225,4326,15,61,27
0.10000000000000009,4327,0,61,33
0.10000000000000009,4327,1,61,26
0.10000000000000009,4327,2,61,44
0.10000000000000009,4327,3,61,52
0.10000000000000009,4327,4,61,10
0.10000000000000009,4327,5,61,5
0.10000000000000009,4327,6,61,9
0.10000000000000009,4327,7,61,23
0.09999999999999964,4327,8,61,8
0.10000000000000053,4327,9,61,24
0.09999999999999964,4327,10,61,39
0.10000000000000053,4327,11,61,9
0.10000000000000053,4327,12,61,29
0.10000000000000053,4327,13,61,31
0.09999999999999964,4327,14,61,47
0.09999999999999964,4327,15,61,44
0.09999999999999964,4328,0,61,10
0.09999999999999964,4328,1,61,8
0.09999999999999964,4328,2,61,5
0.09999999999999964,4328,3,61,21
0.10000000000000053,4328,4,61,13
0.09999999999999964,4328,5,61,25
0.10000000000000053,4328,6,61,33
0.09999999999999964,4328,7,61,9
0.09999999999999964,4328,8,61,26
0.09999999999999964,4328,9,61,34
0.10000000000000053,4328,10,61,55
0.09999999999999964,4328,11,61,27
0.09999999999999964,4328,12,61,7
0.09999999999999964,4328,13,61,12
0.09999999999999964,4328,14,61,28
0.09999999999999964,4328,15,61,25
0.10000000000000142,4329,0,61,39
0.09999999999999964,4329,1,61,40
0.09999999999999964,4329,2,61,24
0.10000000000000142,4329,3,61,21
0.09999999999999964,4329,4,61,32
0.10000000000000142,4329,5,61,40
0.09999999999999964,4329,6,61,14
0.09999999999999964,4329,7,61,5
0.09999999999999964,4329,8,61,6
0.09999999999999964,4329,9,61,22
0.09999999999999964,4329,10,61,3
0.09999999999999964,4329,11,61,24
0.10000000000000142,4329,12,61,32
0.09999999999999964,4329,13,61,14
0.09999999999999964,4329,14,61,22
0.09999999999999964,4329,15,61,24
0.09999999999999964,4330,0,61,38
0.10000000000000142,4330,1,61,40
0.09999999999999964,4330,2,61,43
0.09999999999999964,4330,3,61,17
0.09999999999999964,4330,4,61,9
0.09999999999999964,4330,5,61,10
0.09999999999999964,4330,6,61,17
0.09999999999999964,4330,7,61,5
0.10000000000000142,4330,8,61,28
0.09999999999999964,4330,9,61,34
0.09999999999999964,4330,10,61,14
0.09999999999999964,4330,11,61,27
0.09999999999999964,4330,12,61,21
0.09999999999999964,4330,13,61,41
0.09999999999999964,4330,14,61,52
0.10000000000000142,4330,15,61,18
0.09999999999999964,4331,0,61,6
0.09999999999999964,4331,1,61,6
0.09999999999999964,4331,2,61,22
0.09999999999999964,4331,3,61,5
0.10000000000000142,4331,4,61,27
0.09999999999999964,4331,5,61,37
0.09999999999999964,4331,6,61,6
0.10000000000000142,4331,7,61,26
0.10000000000000142,4331,8,61,37
0.10000000000000142,4331,9,61,47
0.09999999999999787,4331,10,61,18
0.10000000000000142,4331,11,61,5
0.09999999999999787,4331,12,61,19
0.10000000000000142,4331,13,61,35
0.10000000000000142,4331,14,61,34
0.10000000000000142,4331,15,61,35
0.10000000000000142,4332,0,61,38
0.09999999999999787,4332,1,61,19
0.10000000000000142,4332,2,61,34
0.10000000000000142,4332,3,61,36
0.09999999999999787,4332,4,61,31
0.10000000000000142,4332,5,61,24
0.09999999999999787,4332,6,61,25
0.10000000000000142,4332,7,61,42
0.10000000000000142,4332,8,61,18
0.09999999999999787,4332,9,61,28
0.10000000000000142,4332,10,61,25
0.10000000000000142,4332,11,61,25
0.10000000000000142,4332,12,61,20
0.09999999999999787,4332,13,61,20
0.10000000000000142,4332,14,61,17
0.09999999999999787,4332,15,61,22
0.09999999999999787,4333,0,61,15
0.10000000000000142,4333,1,61,16
0.09999999999999787,4333,2,61,24
0.09999999999999787,4333,3,61,31
0.10000000000000142,4333,4,61,17
0.09999999999999787,4333,5,61,20
0.10000000000000142,4333,6,61,19
0.10000000000000142,4333,7,61,21
0.10000000000000142,4333,8,61,16
0.09999999999999787,4333,9,61,35
0.10000000000000142,4333,10,61,29
0.10000000000000142,4333,11,61,28
0.09999999999999787,4333,12,61,26
0.06818181818181657,4333,13,61,29
0.09999999999999787,4333,14,61,30
0.10000000000000142,4333,15,61,20
0.09999999999999787,4334,0,61,22
0.09999999999999787,4334,1,61,34
0.10000000000000142,4334,2,61,25
0.09999999999999787,4334,3,61,19
0.10000000000000142,4334,4,61,17
0.004545454545453964,4334,5,61,15
0.09999999999999787,4334,6,61,21
0.10000000000000142,4334,7,61,26
0.09999999999999787,4334,8,61,18
0.10000000000000142,4334,9,61,16
0.09999999999999787,4334,10,61,29
0.09999999999999787,4334,11,61,29
0.10000000000000142,4334,12,61,17
0.10000000000000142,4334,13,61,20
0.10000000000000142,4334,14,61,34
0.09999999999999787,4334,15,61,17
0.10000000000000142,4335,0,61,27
0.10000000000000142,4335,1,61,33
0.10000000000000142,4335,2,61,19
0.09999999999999787,4335,3,61,15
0.10000000000000142,4335,4,61,16
0.09999999999999787,4335,5,61,23
0.09999999999999787,4335,6,61,28
0.09999999999999787,4335,7,61,25
0.09999999999999787,4335,8,61,23
0.09999999999999787,4335,9,61,18
0.10000000000000142,4335,10,61,13
0.09999999999999787,4335,11,61,21
0.10000000000000142,4335,12,61,14
0.09999999999999787,4335,13,61,11
0.10000000000000142,4335,14,61,12
0.09999999999999787,4335,15,61,14
0.09999999999999787,4336,0,61,15
0.10000000000000142,4336,1,61,16
0.09999999999999787,4336,2,61,24
0.10000000000000142,4336,3,61,27
0.10000000000000142,4336,4,61,24
0.10000000000000142,4336,5,61,32
0.10000000000000142,4336,6,61,22
0.10000000000000142,4336,7,61,17
0.10000000000000142,4336,8,61,17
0.10000000000000142,4336,9,61,6
0.004545454545450411,4336,10,61,50
0.10000000000000142,4336,11,61,27
0.10000000000000142,4336,12,61,32
0.10000000000000142,4336,13,61,25
0.10000000000000142,4336,14,61,20
0.09999999999999432,4336,15,61,28
0.10000000000000142,4337,0,61,29
0.10000000000000142,4337,1,61,35
0.10000000000000142,4337,2,61,16
0.10000000000000142,4337,3,61,13
0.10000000000000142,4337,4,61,22
0.09999999999999432,4337,5,61,23
0.10000000000000142,4337,6,61,27
0.10000000000000142,4337,7,61,26
0.10000000000000142,4337,8,61,26
0.10000000000000142,4337,9,61,21
0.10000000000000142,4337,10,61,25
0.10000000000000142,4337,11,61,31
0.09999999999999432,4337,12,61,18
0.10000000000000142,4337,13,61,29
0.10000000000000142,4337,14,61,29
0.10000000000000142,4337,15,61,22
0.10000000000000142,4338,0,61,27
0.10000000000000142,4338,1,61,14
0.10000000000000142,4338,2,61,24
0.10000000000000142,4338,3,61,26
0.10000000000000142,4338,4,61,31
0.10000000000000142,4338,5,61,27
0.10000000000000142,4338,6,61,15
0.10000000000000142,4338,7,61,16
0.10000000000000142,4338,8,61,23
0.10000000000000142,4338,9,61,26
0.09999999999999432,4338,10,61,25
0.10000000000000142,4338,11,61,29
0.10000000000000142,4338,12,61,26
0.10000000000000142,4338,13,61,22
0.10000000000000142,4338,14,61,21
0.10000000000000142,4338,15,61,30
0.10000000000000142,4339,0,61,25
0.10000000000000142,4339,1,61,30
0.10000000000000142,4339,2,61,27
0.10000000000000142,4339,3,61,28
0.10000000000000142,4339,4,61,26
0.09999999999999432,4339,5,61,16
0.10000000000000142,4339,6,61,21
0.10000000000000142,4339,7,61,28
0.10000000000000142,4339,8,61,24
0.10000000000000142,4339,9,61,19
0.10000000000000142,4339,10,61,26
0.10000000000000142,4339,11,61,25
0.10000000000000142,4339,12,61,30
0.10000000000000142,4339,13,61,28
0.10000000000000142,4339,14,61,27
0.10000000000000142,4339,15,61,21
0.10000000000000142,4340,0,61,26
0.10000000000000142,4340,1,61,19
0.10000000000000142,4340,2,61,20
0.10000000000000142,4340,3,61,25
0.10000000000000142,4340,4,61,16
0.09999999999999432,4340,5,61,16
0.10000000000000142,4340,6,61,23
0.10000000000000142,4340,7,61,26
0.10000000000000142,4340,8,61,23
0.10000000000000142,4340,9,61,14
0.10000000000000142,4340,10,61,24
0.10000000000000142,4340,11,61,28
0.10000000000000142,4340,12,61,38
0.10000000000000142,4340,13,61,32
0.10000000000000142,4340,14,61,33
0.09999999999999432,4340,15,61,35
0.10000000000000142,4341,0,61,34
0.10000000000000142,4341,1,61,30
0.10000000000000142,4341,2,61,29
0.10000000000000142,4341,3,61,31
0.10000000000000142,4341,4,61,31
0.10000000000000142,4341,5,61,24
0.10000000000000142,4341,6,61,34
0.10000000000000142,4341,7,61,24
0.10000000000000142,4341,8,61,22
0.10000000000000142,4341,9,61,38
0.10000000000000142,4341,10,61,22
0.10000000000000142,4341,11,61,27
0.10000000000000142,4341,12,61,31
0.10000000000000142,4341,13,61,22
0.09999999999999432,4341,14,61,35
0.10000000000000142,4341,15,61,31
0.09999999999999432,4342,0,61,26
0.10000000000000142,4342,1,61,26
0.10000000000000142,4342,2,61,25
0.10000000000000142,4342,3,61,24
0.09999999999999432,4342,4,61,23
0.10000000000000142,4342,5,61,31
0.10000000000000142,4342,6,61,26
0.10000000000000142,4342,7,61,21
0.10000000000000142,4342,8,61,27
0.09999999999999432,4342,9,61,33
0.10000000000000142,4342,10,61,21
0.09999999999999432,4342,11,61,28
0.09999999999999432,4342,12,61,28
0.10000000000000142,4342,13,61,11
0.10000000000000142,4342,14,61,25
0.10000000000000142,4342,15,61,13
0.10000000000000142,4343,0,61,35
0.10000000000000142,4343,1,61,31
0.10000000000000142,4343,2,61,25
0.10000000000000142,4343,3,61,12
0.10000000000000142,4343,4,61,30
0.10000000000000142,4343,5,61,17
0.10000000000000142,4343,6,61,31
0.10000000000000142,4343,7,61,17
0.10000000000000142,4343,8,61,5
0.09999999999999432,4343,9,61,2
0.10000000000000142,4343,10,61,34
0.10000000000000142,4343,11,61,30
0.10000000000000142,4343,12,61,22
0.10000000000000142,4343,13,61,27
0.059090909090905086,4343,14,61,32
0.10000000000000853,4343,15,61,13
0.09999999999999432,4344,0,61,29
0.09999999999999432,4344,1,61,14
0.10000000000000853,4344,2,61,12
0.10000000000000853,4344,3,61,4
0.09999999999999432,4344,4,61,22
0.10000000000000853,4344,5,61,23
0.10000000000000853,4344,6,61,18
0.09999999999999432,4344,7,61,5
0.09999999999999432,4344,8,61,29
0.10000000000000853,4344,9,61,17
0.10000000000000853,4344,10,61,33
0.09999999999999432,4344,11,61,17
0.09999999999999432,4344,12,61,10
0.09999999999999432,4344,13,61,21
0.10000000000000853,4344,14,61,15
0.10000000000000853,4344,15,61,5
0.10000000000000853,4345,0,61,25
0.06818181818182723,4345,1,61,33
0.09999999999999432,4345,2,61,27
0.09999999999999432,4345,3,61,4
0.10000000000000853,4345,4,61,23
0.10000000000000853,4345,5,61,27
0.09999999999999432,4345,6,61,6
0.09999999999999432,4345,7,61,4
0.01590909090909065,4345,8,61,32
0.09999999999999432,4345,9,61,30
0.10000000000000853,4345,10,61,6
0.09999999999999432,4345,11,61,22
0.09999999999999432,4345,12,61,26
0.09999999999999432,4345,13,61,23
0.09999999999999432,4345,14,61,11
0.10000000000000853,4345,15,61,25
0.09999999999999432,4346,0,61,29
0.09999999999999432,4346,1,61,9
0.09999999999999432,4346,2,61,36
0.09999999999999432,4346,3,61,28
0.09999999999999432,4346,4,61,17
0.09999999999999432,4346,5,61,9
0.10000000000000853,4346,6,61,9
0.10000000000000853,4346,7,61,6
0.013636363636365445,4346,8,61,37
0.09999999999999432,4346,9,61,32
0.10000000000000853,4346,10,61,20
0.10000000000000853,4346,11,61,9
0.09999999999999432,4346,12,61,23
0.09999999999999432,4346,13,61,34
0.09999999999999432,4346,14,61,37
0.09999999999999432,4346,15,61,37
0.09999999999999432,4347,0,61,47
0.09999999999999432,4347,1,61,25
0.09999999999999432,4347,2,61,29
0.10000000000000853,4347,3,61,18
0.09999999999999432,4347,4,61,25
0.09999999999999432,4347,5,61,23
0.09999999999999432,4347,6,61,20
0.09999999999999432,4347,7,61,32
0.09999999999999432,4347,8,61,30
0.09999999999999432,4347,9,61,27
0.10000000000000853,4347,10,61,23
0.10000000000000853,4347,11,61,27
0.09999999999999432,4347,12,61,17
0.10000000000000853,4347,13,61,20
0.09999999999999432,4347,14,61,25
0.10000000000000853,4347,15,61,21
0.09999999999999432,4348,0,61,20
0.09999999999999432,4348,1,61,15
0.09999999999999432,4348,2,61,33
0.10000000000000853,4348,3,61,26
0.10000000000000853,4348,4,61,27
0.09999999999999432,4348,5,61,20
0.10000000000000853,4348,6,61,26
0.10000000000000853,4348,7,61,40
0.09999999999999432,4348,8,61,38
0.10000000000000853,4348,9,61,38
0.10000000000000853,4348,10,61,27
0.10000000000000853,4348,11,61,28
0.09999999999999432,4348,12,61,25
0.10000000000000853,4348,13,61,26
0.10000000000000853,4348,14,61,19
0.09999999999999432,4348,15,61,21
0.10000000000000853,4349,0,61,22
0.10000000000000853,4349,1,61,21
0.09999999999999432,4349,2,61,24
0.09999999999999432,4349,3,61,26
0.09999999999999432,4349,4,61,26
0.09999999999999432,4349,5,61,15
0.10000000000000853,4349,6,61,20
0.09999999999999432,4349,7,61,19
0.09999999999999432,4349,8,61,23
0.10000000000000853,4349,9,61,24
0.10000000000000853,4349,10,61,15
0.10000000000000853,4349,11,61,26
0.10000000000000853,4349,12,61,19
0.09999999999999432,4349,13,61,12
0.09999999999999432,4349,14,61,33
0.10000000000000853,4349,15,61,12
0.09999999999999432,4350,0,61,13
0.10000000000000853,4350,1,61,3
0.09999999999999432,4350,2,61,18
0.09999999999999432,4350,3,61,8
0.09999999999999432,4350,4,61,19
0.09999999999999432,4350,5,61,18
0.09999999999999432,4350,6,61,10
0.10000000000000853,4350,7,61,26
0.10000000000000853,4350,8,61,4
0.09999999999999432,4350,9,61,11
0.10000000000000853,4350,10,61,17
0.09999999999999432,4350,11,61,17
0.10000000000000853,4350,12,61,20
0.09999999999999432,4350,13,61,14
0.09999999999999432,4350,14,61,25
0.10000000000000853,4350,15,61,4
0.09999999999999432,4351,0,61,21
0.10000000000000853,4351,1,61,14
0.10000000000000853,4351,2,61,26
0.09999999999999432,4351,3,61,13
0.09999999999999432,4351,4,61,9
0.09999999999999432,4351,5,61,23
0.09999999999999432,4351,6,61,25
0.09999999999999432,4351,7,61,16
0.10000000000000853,4351,8,61,16
0.09999999999999432,4351,9,61,17
0.09999999999999432,4351,10,61,7
0.10000000000000853,4351,11,61,15
0.09999999999999432,4351,12,61,7
0.10000000000000853,4351,13,61,20
0.10000000000000853,4351,14,61,20
0.10000000000000853,4351,15,61,17
0.09999999999999432,4352,0,61,26
0.09999999999999432,4352,1,61,19
0.09999999999999432,4352,2,61,22
0.09999999999999432,4352,3,61,13
0.09999999999999432,4352,4,61,22
0.09999999999999432,4352,5,61,19
0.09999999999999432,4352,6,61,21
0.10000000000000853,4352,7,61,5
0.10000000000000853,4352,8,61,18
0.10000000000000853,4352,9,61,10
0.09999999999999432,4352,10,61,11
0.09999999999999432,4352,11,61,10
0.10000000000000853,4352,12,61,26
0.09999999999999432,4352,13,61,22
0.10000000000000853,4352,14,61,13
0.10000000000000853,4352,15,61,14
0.10000000000000853,4353,0,61,8
0.025000000000005684,4353,1,61,31
0.09999999999999432,4353,2,61,20
0.09999999999999432,4353,3,61,28
0.09999999999999432,4353,4,61,21
0.09999999999999432,4353,5,61,15
0.09999999999999432,4353,6,61,20
0.10000000000000853,4353,7,61,25
0.036363636363645924,4353,8,61,32
0.09999999999999432,4353,9,61,25
0.09999999999999432,4353,10,61,16
0.10000000000000853,4353,11,61,15
0.06818181818182723,4353,12,61,14
0.10000000000000853,4353,13,61,16
0.10000000000000853,4353,14,61,17
0.10000000000000853,4353,15,61,18
0.09999999999999432,4354,0,61,24
0.10000000000000853,4354,1,61,29
0.06818181818182723,4354,2,61,34
0.09999999999999432,4354,3,61,19
0.10000000000000853,4354,4,61,26
0.10000000000000853,4354,5,61,22
0.09999999999999432,4354,6,61,33
0.09999999999999432,4354,7,61,17
0.09999999999999432,4354,8,61,12
0.09999999999999432,4354,9,61,12
0.09999999999999432,4354,10,61,24
0.05909090909091219,4354,11,61,35
0.10000000000000853,4354,12,61,25
0.09999999999999432,4354,13,61,29
0.09999999999999432,4354,14,61,19
0.09999999999999432,4354,15,61,21
0.10000000000000853,4355,0,61,31
0.09999999999999432,4355,1,61,22
0.09999999999999432,4355,2,61,27
0.10000000000000853,4355,3,61,22
0.09999999999999432,4355,4,61,13
0.10000000000000853,4355,5,61,16
0.09999999999999432,4355,6,61,27
0.09999999999999432,4355,7,61,30
0.10000000000000853,4355,8,61,24
0.09999999999999432,4355,9,61,27
0.06818181818181301,4355,10,61,30
0.10000000000000853,4355,11,61,25
0.09999999999999432,4355,12,61,19
0.10000000000000853,4355,13,61,15
0.09999999999999432,4355,14,61,22
0.09999999999999432,4355,15,61,20
0.10000000000000853,4356,0,61,22
0.09999999999999432,4356,1,61,20
0.10000000000000853,4356,2,61,23
0.10000000000000853,4356,3,61,24
0.10000000000000853,4356,4,61,29
0.09999999999999432,4356,5,61,23
0.09999999999999432,4356,6,61,29
0.09999999999999432,4356,7,61,22
0.09999999999999432,4356,8,61,27
0.10000000000000853,4356,9,61,22
0.09999999999999432,4356,10,61,20
0.09999999999999432,4356,11,61,21
0.10000000000000853,4356,12,61,21
0.10000000000000853,4356,13,61,28
0.10000000000000853,4356,14,61,24
0.09999999999999432,4356,15,61,19
0.09999999999999432,4357,0,61,20
0.10000000000000853,4357,1,61,26
0.09999999999999432,4357,2,61,19
0.10000000000000853,4357,3,61,25
0.09999999999999432,4357,4,61,24
0.10000000000000853,4357,5,61,23
0.09999999999999432,4357,6,61,25
0.10000000000000853,4357,7,61,23
0.09999999999999432,4357,8,61,26
0.10000000000000853,4357,9,61,25
0.09999999999999432,4357,10,61,26
0.09999999999999432,4357,11,61,26
0.09999999999999432,4357,12,61,30
0.09999999999999432,4357,13,61,21
0.09999999999999432,4357,14,61,21
0.09999999999999432,4357,15,61,32
0.10000000000000853,4358,0,61,31
0.09999999999999432,4358,1,61,26
0.10000000000000853,4358,2,61,26
0.10000000000000853,4358,3,61,21
0.10000000000000853,4358,4,61,20
0.10000000000000853,4358,5,61,25
0.09999999999999432,4358,6,61,24
0.10000000000000853,4358,7,61,27
0.09999999999999432,4358,8,61,23
0.09999999999999432,4358,9,61,25
0.09999999999999432,4358,10,61,25
0.09999999999999432,4358,11,61,26
0.10000000000000853,4358,12,61,32
0.09999999999999432,4358,13,61,28
0.09999999999999432,4358,14,61,32
0.09999999999999432,4358,15,61,28
0.09999999999999432,4359,0,61,34
0.09999999999999432,4359,1,61,29
0.09999999999999432,4359,2,61,30
0.09999999999999432,4359,3,61,20
0.10000000000002274,4359,4,61,29
0.09999999999999432,4359,5,61,38
0.09999999999999432,4359,6,61,34
0.09999999999999432,4359,7,61,27
0.09999999999999432,4359,8,61,30
0.09999999999999432,4359,9,61,25
0.10000000000002274,4359,10,61,27
0.09999999999999432,4359,11,61,22
0.09999999999999432,4359,12,61,19
0.10000000000002274,4359,13,61,17
0.09999999999999432,4359,14,61,26
0.09999999999999432,4359,15,61,23
0.10000000000002274,4360,0,61,23
0.09999999999999432,4360,1,61,18
0.10000000000002274,4360,2,61,21
0.09999999999999432,4360,3,61,21
0.10000000000002274,4360,4,61,25
0.09999999999999432,4360,5,61,26
0.10000000000002274,4360,6,61,14
0.10000000000002274,4360,7,61,14
0.09999999999999432,4360,8,61,23
0.09999999999999432,4360,9,61,11
0.09999999999999432,4360,10,61,26
0.10000000000002274,4360,11,61,19
0.10000000000002274,4360,12,61,24
0.09999999999999432,4360,13,61,18
0.10000000000002274,4360,14,61,23
0.09999999999999432,4360,15,61,21
0.09999999999999432,4361,0,61,13
0.09999999999999432,4361,1,61,18
0.09999999999999432,4361,2,61,25
0.09999999999999432,4361,3,61,11
0.09999999999999432,4361,4,61,26
0.09999999999999432,4361,5,61,19
0.09999999999999432,4361,6,61,22
0.09999999999999432,4361,7,61,15
0.09999999999999432,4361,8,61,14
0.10000000000002274,4361,9,61,15
0.09999999999999432,4361,10,61,12
0.09999999999999432,4361,11,61,17
0.09999999999999432,4361,12,61,17
0.09999999999999432,4361,13,61,24
0.09999999999999432,4361,14,61,21
0.09999999999999432,4361,15,61,21
0.10000000000002274,4362,0,61,26
0.09999999999999432,4362,1,61,26
0.10000000000002274,4362,2,61,24
0.09999999999999432,4362,3,61,26
0.09999999999999432,4362,4,61,9
0.09999999999999432,4362,5,61,9
0.09999999999999432,4362,6,61,15
0.09999999999999432,4362,7,61,20
0.09999999999999432,4362,8,61,14
0.09999999999999432,4362,9,61,12
0.09999999999999432,4362,10,61,22
0.10000000000002274,4362,11,61,15
0.09999999999999432,4362,12,61,13
0.09999999999999432,4362,13,61,18
0.09999999999999432,4362,14,61,20
0.09999999999999432,4362,15,61,16
0.09999999999999432,4363,0,61,18
0.09999999999999432,4363,1,61,24
0.09999999999999432,4363,2,61,26
0.09999999999999432,4363,3,61,29
0.09999999999999432,4363,4,61,20
0.09999999999999432,4363,5,61,24
0.09999999999999432,4363,6,61,15
0.09999999999999432,4363,7,61,20
0.09999999999999432,4363,8,61,25
0.10000000000002274,4363,9,61,24
0.09999999999999432,4363,10,61,26
0.09999999999999432,4363,11,61,21
0.09999999999999432,4363,12,61,11
0.09999999999999432,4363,13,61,13
0.09999999999999432,4363,14,61,25
0.09999999999999432,4363,15,61,14
0.09999999999999432,4364,0,61,11
0.09999999999999432,4364,1,61,19
0.09999999999999432,4364,2,61,23
0.09999999999999432,4364,3,61,23
0.10000000000002274,4364,4,61,23
0.09999999999999432,4364,5,61,15
0.09999999999999432,4364,6,61,21
0.09999999999999432,4364,7,61,15
0.09999999999999432,4364,8,61,15
0.09999999999999432,4364,9,61,21
0.10000000000002274,4364,10,61,22
0.10000000000002274,4364,11,61,26
0.09999999999999432,4364,12,61,33
0.09999999999999432,4364,13,61,33
0.09999999999999432,4364,14,61,24
0.10000000000002274,4364,15,61,31
0.09999999999999432,4365,0,61,30
0.09999999999999432,4365,1,61,27
0.09999999999999432,4365,2,61,45
0.09999999999999432,4365,3,61,18
0.09999999999999432,4365,4,61,27
0.09999999999999432,4365,5,61,31
0.09999999999999432,4365,6,61,24
0.09999999999999432,4365,7,61,29
0.10000000000002274,4365,8,61,24
0.09999999999999432,4365,9,61,41
0.09999999999999432,4365,10,61,23
0.09999999999999432,4365,11,61,26
0.09999999999999432,4365,12,61,25
0.09999999999999432,4365,13,61,26
0.09999999999999432,4365,14,61,27
0.09999999999999432,4365,15,61,24
0.09999999999999432,4366,0,61,23
0.09999999999999432,4366,1,61,34
0.09999999999999432,4366,2,61,32
0.09999999999999432,4366,3,61,32
0.09999999999999432,4366,4,61,28
0.10000000000002274,4366,5,61,30
0.09999999999999432,4366,6,61,24
0.09999999999999432,4366,7,61,26
0.09999999999999432,4366,8,61,23
0.09999999999999432,4366,9,61,25
0.10000000000002274,4366,10,61,21
0.09999999999999432,4366,11,61,27
0.09999999999999432,4366,12,61,29
0.09999999999999432,4366,13,61,27
0.09999999999999432,4366,14,61,30
0.09999999999999432,4366,15,61,31
0.09999999999999432,4367,0,61,23
0.09999999999999432,4367,1,61,23
0.09999999999999432,4367,2,61,28
0.10000000000002274,4367,3,61,32
0.09999999999999432,4367,4,61,27
0.09999999999999432,4367,5,61,24
0.09999999999999432,4367,6,61,21
0.10000000000002274,4367,7,61,21
0.10000000000002274,4367,8,61,21
0.10000000000002274,4367,9,61,21
0.09999999999999432,4367,10,61,28
0.10000000000002274,4367,11,61,26
0.09999999999999432,4367,12,61,28
0.09999999999999432,4367,13,61,24
0.09999999999999432,4367,14,61,16
0.09999999999999432,4367,15,61,17
0.09999999999999432,4368,0,61,24
0.10000000000002274,4368,1,61,12
0.09999999999999432,4368,2,61,22
0.09999999999999432,4368,3,61,23
0.09999999999999432,4368,4,61,15
0.09999999999999432,4368,5,61,24
0.10000000000002274,4368,6,61,26
0.09999999999999432,4368,7,61,34
0.09999999999999998,4368,8,74,52
0.06818181818181815,4368,9,74,83
0.09999999999999998,4368,10,74,107
0.09999999999999998,4368,11,74,84
0.09999999999999987,4368,12,74,82
0.10000000000000009,4368,13,74,78
0.09999999999999987,4368,14,74,91
0.10000000000000009,4368,15,74,63
0.10000000000000009,4369,0,74,75
0.10000000000000009,4369,1,74,51
0.10000000000000009,4369,2,74,76
0.10000000000000009,4369,3,74,52
0.004545454545454852,4369,4,74,36
0.10000000000000009,4369,5,74,43
0.10000000000000009,4369,6,74,23
0.10000000000000009,4369,7,74,67
0.09999999999999964,4369,8,74,71
0.10000000000000009,4369,9,74,74
0.09999999999999964,4369,10,74,35
0.09999999999999964,4369,11,74,43
0.10000000000000053,4369,12,74,65
0.09999999999999964,4369,13,74,77
0.10000000000000053,4369,14,74,40
0.10000000000000053,4369,15,74,61
0.09999999999999964,4370,0,74,71
0.09999999999999964,4370,1,74,69
0.10000000000000053,4370,2,74,79
0.09999999999999964,4370,3,74,53
0.09999999999999964,4370,4,74,70
0.10000000000000053,4370,5,74,20
0.09999999999999964,4370,6,74,56
0.09999999999999964,4370,7,74,52
0.09999999999999964,4370,8,74,55
0.09999999999999964,4370,9,74,77
0.09999999999999964,4370,10,74,114
0.09999999999999964,4370,11,74,106
0.09999999999999964,4370,12,74,87
0.09999999999999964,4370,13,74,71
0.10000000000000142,4370,14,74,53
0.09999999999999964,4370,15,74,90
0.09999999999999964,4371,0,74,85
0.09999999999999964,4371,1,74,52
0.10000000000000142,4371,2,74,20
0.09999999999999964,4371,3,74,62
0.10000000000000142,4371,4,74,72
0.09999999999999964,4371,5,74,57
0.09999999999999964,4371,6,74,78
0.10000000000000142,4371,7,74,51
0.10000000000000142,4371,8,74,76
0.09999999999999964,4371,9,74,62
0.09999999999999964,4371,10,74,66
0.09999999999999964,4371,11,74,70
0.03636363636363704,4371,12,74,51
0.09999999999999964,4371,13,74,74
0.09999999999999964,4371,14,74,91
0.09999999999999964,4371,15,74,93
0.09999999999999964,4372,0,74,20
0.10000000000000142,4372,1,74,49
0.015909090909092427,4372,2,74,58
0.09999999999999964,4372,3,74,55
0.09999999999999964,4372,4,74,41
0.06818181818181657,4372,5,74,66
0.09999999999999964,4372,6,74,51
0.09999999999999964,4372,7,74,64
0.09999999999999964,4372,8,74,59
0.09999999999999964,4372,9,74,56
0.09999999999999787,4372,10,74,57
0.10000000000000142,4372,11,74,55
0.10000000000000142,4372,12,74,83
0.09999999999999787,4372,13,74,52
0.10000000000000142,4372,14,74,92
0.09999999999999787,4372,15,74,102
0.10000000000000142,4373,0,74,90
0.09999999999999787,4373,1,74,55
0.06818181818181657,4373,2,74,76
0.10000000000000142,4373,3,74,44
0.10000000000000142,4373,4,74,67
0.10000000000000142,4373,5,74,52
0.09999999999999787,4373,6,74,44
0.10000000000000142,4373,7,74,95
0.09999999999999787,4373,8,74,87
0.09999999999999787,4373,9,74,85
0.10000000000000142,4373,10,74,88
0.09999999999999787,4373,11,74,56
0.10000000000000142,4373,12,74,88
0.10000000000000142,4373,13,74,85
0.10000000000000142,4373,14,74,82
0.09999999999999787,4373,15,74,55
0.09999999999999787,4374,0,74,71
0.10000000000000142,4374,1,74,109
0.10000000000000142,4374,2,74,60
0.10000000000000142,4374,3,74,75
0.09999999999999787,4374,4,74,89
0.09999999999999787,4374,5,74,59
0.09999999999999787,4374,6,74,91
0.09999999999999787,4374,7,74,44
0.09999999999999787,4374,8,74,78
0.09999999999999787,4374,9,74,62
0.10000000000000142,4374,10,74,57
0.10000000000000142,4374,11,74,12
0.10000000000000142,4374,12,74,32
0.09999999999999787,4374,13,74,42
0.10000000000000142,4374,14,74,81
0.10000000000000142,4374,15,74,52
0.10000000000000142,4375,0,74,77
0.10000000000000142,4375,1,74,47
0.10000000000000142,4375,2,74,40
0.027272727272727337,4375,3,74,20
0.10000000000000142,4375,4,74,82
0.09999999999999787,4375,5,74,74
0.10000000000000142,4375,6,74,69
0.09999999999999787,4375,7,74,110
0.10000000000000142,4375,8,74,49
0.09999999999999432,4375,9,74,61
0.10000000000000142,4375,10,74,82
0.10000000000000142,4375,11,74,65
0.04772727272727195,4375,12,74,78
0.09999999999999432,4375,13,74,58
0.09999999999999432,4375,14,74,77
0.09999999999999432,4375,15,74,84
0.10000000000000142,4376,0,74,79
0.004545454545450411,4376,1,74,93
0.10000000000000142,4376,2,74,86
0.09999999999999432,4376,3,74,79
0.09999999999999432,4376,4,74,85
0.10000000000000142,4376,5,74,26
0.10000000000000142,4376,6,74,85
0.10000000000000142,4376,7,74,63
0.013636363636365445,4376,8,74,68
0.01590909090909065,4376,9,74,110
0.10000000000000142,4376,10,74,91
0.10000000000000142,4376,11,74,82
0.10000000000000142,4376,12,74,79
0.09999999999999432,4376,13,74,76
0.09999999999999432,4376,14,74,91
0.10000000000000142,4376,15,74,50
0.10000000000000142,4377,0,74,63
0.10000000000000142,4377,1,74,69
0.004545454545457517,4377,2,74,74
0.10000000000000142,4377,3,74,78
0.09999999999999432,4377,4,74,83
0.10000000000000142,4377,5,74,80
0.10000000000000142,4377,6,74,67
0.10000000000000142,4377,7,74,49
0.10000000000000142,4377,8,74,17
0.10000000000000142,4377,9,74,85
0.10000000000000142,4377,10,74,85
0.09999999999999432,4377,11,74,101
0.10000000000000142,4377,12,74,79
0.10000000000000142,4377,13,74,67
0.10000000000000142,4377,14,74,89
0.10000000000000142,4377,15,74,86
0.10000000000000142,4378,0,74,70
0.10000000000000142,4378,1,74,94
0.10000000000000142,4378,2,74,76
0.10000000000000142,4378,3,74,77
0.10000000000000142,4378,4,74,92
0.10000000000000142,4378,5,74,63
0.03636363636363882,4378,6,74,75
0.10000000000000142,4378,7,74,65
0.10000000000000142,4378,8,74,67
0.10000000000000142,4378,9,74,99
0.10000000000000142,4378,10,74,78
0.10000000000000142,4378,11,74,66
0.09999999999999432,4378,12,74,95
0.10000000000000142,4378,13,74,86
0.10000000000000142,4378,14,74,83
0.10000000000000142,4378,15,74,100
0.10000000000000142,4379,0,74,70
0.10000000000000142,4379,1,74,92
0.09999999999999432,4379,2,74,74
0.10000000000000142,4379,3,74,56
0.10000000000000142,4379,4,74,13
0.10000000000000142,4379,5,74,63
0.09999999999999432,4379,6,74,46
0.03636363636363171,4379,7,74,73
0.002272727272732311,4379,8,74,71
0.05681818181817988,4379,9,74,88
0.09999999999999432,4379,10,74,79
0.10000000000000142,4379,11,74,75
0.10000000000000142,4379,12,74,87
0.10000000000000142,4379,13,74,94
0.10000000000000142,4379,14,74,97
0.10000000000000142,4379,15,74,73
0.10000000000000142,4380,0,74,85
0.09999999999999432,4380,1,74,80
0.10000000000000142,4380,2,74,93
0.04772727272727195,4380,3,74,89
0.004545454545457517,4380,4,74,86
0.09999999999999432,4380,5,74,51
0.10000000000000142,4380,6,74,74
0.09999999999999432,4380,7,74,65
0.10000000000000142,4380,8,74,91
0.10000000000000142,4380,9,74,99
0.10000000000000142,4380,10,74,72
0.10000000000000142,4380,11,74,76
0.10000000000000142,4380,12,74,66
0.10000000000000142,4380,13,74,73
0.10000000000000142,4380,14,74,79
0.10000000000000142,4380,15,74,94
0.10000000000000142,4381,0,74,18
0.10000000000000142,4381,1,74,88
0.09999999999999432,4381,2,74,67
0.10000000000000142,4381,3,74,101
0.10000000000000142,4381,4,74,67
0.09999999999999432,4381,5,74,85
0.10000000000000142,4381,6,74,41
0.10000000000000142,4381,7,74,68
0.10000000000000142,4381,8,74,63
0.09999999999999432,4381,9,74,81
0.10000000000000142,4381,10,74,26
0.10000000000000142,4381,11,74,68
0.10000000000000142,4381,12,74,91
0.10000000000000142,4381,13,74,59
0.10000000000000142,4381,14,74,87
0.10000000000000142,4381,15,74,60
0.09999999999999432,4382,0,74,98
0.10000000000000142,4382,1,74,99
0.09999999999999432,4382,2,74,85
0.10000000000000142,4382,3,74,92
0.10000000000000142,4382,4,74,76
0.10000000000000142,4382,5,74,54
0.09999999999999432,4382,6,74,69
0.09999999999999432,4382,7,74,32
0.06818181818181301,4382,8,74,44
0.09999999999999432,4382,9,74,62
0.09999999999999432,4382,10,74,86
0.10000000000000853,4382,11,74,79
0.09999999999999432,4382,12,74,97
0.10000000000000853,4382,13,74,78
0.10000000000000853,4382,14,74,61
0.09999999999999432,4382,15,74,82
0.09999999999999432,4383,0,74,94
0.09999999999999432,4383,1,74,79
0.10000000000000853,4383,2,74,44
0.09999999999999432,4383,3,74,64
0.09999999999999432,4383,4,74,85
0.09999999999999432,4383,5,74,80
0.09999999999999432,4383,6,74,70
0.09999999999999432,4383,7,74,96
0.09999999999999432,4383,8,74,96
0.09999999999999432,4383,9,74,67
0.09999999999999432,4383,10,74,86
0.10000000000000853,4383,11,74,90
0.09999999999999432,4383,12,74,33
0.10000000000000853,4383,13,74,75
0.10000000000000853,4383,14,74,65
0.10000000000000853,4383,15,74,94
0.09999999999999432,4384,0,74,85
0.10000000000000853,4384,1,74,64
0.10000000000000853,4384,2,74,80
0.09999999999999432,4384,3,74,61
0.09999999999999432,4384,4,74,83
0.004545454545450411,4384,5,74,84
0.09999999999999432,4384,6,74,88
0.09999999999999432,4384,7,74,34
0.09999999999999432,4384,8,74,60
0.10000000000000853,4384,9,74,74
0.09999999999999432,4384,10,74,79
0.09999999999999432,4384,11,74,81
0.10000000000000853,4384,12,74,64
0.09999999999999432,4384,13,74,76
0.10000000000000853,4384,14,74,49
0.09999999999999432,4384,15,74,82
0.09999999999999432,4385,0,74,98
0.09999999999999432,4385,1,74,35
0.09999999999999432,4385,2,74,82
0.10000000000000853,4385,3,74,20
0.09999999999999432,4385,4,74,71
0.09999999999999432,4385,5,74,66
0.09999999999999432,4385,6,74,82
0.01590909090909065,4385,7,74,107
0.10000000000000853,4385,8,74,84
0.09999999999999432,4385,9,74,53
0.10000000000000853,4385,10,74,59
0.004545454545450411,4385,11,74,75
0.10000000000000853,4385,12,74,68
0.09999999999999432,4385,13,74,70
0.09999999999999432,4385,14,74,70
0.09999999999999432,4385,15,74,69
0.09999999999999432,4386,0,74,70
0.10000000000000853,4386,1,74,61
0.10000000000000853,4386,2,74,71
0.10000000000000853,4386,3,74,27
0.09999999999999432,4386,4,74,77
0.09999999999999432,4386,5,74,84
0.10000000000000853,4386,6,74,26
0.09999999999999432,4386,7,74,89
0.09999999999999432,4386,8,74,78
0.10000000000000853,4386,9,74,59
0.10000000000000853,4386,10,74,86
0.09999999999999432,4386,11,74,56
0.10000000000000853,4386,12,74,88
0.09999999999999432,4386,13,74,93
0.09999999999999432,4386,14,74,82
0.09999999999999432,4386,15,74,87
0.09999999999999432,4387,0,74,60
0.10000000000000853,4387,1,74,79
0.09999999999999432,4387,2,74,78
0.09999999999999432,4387,3,74,81
0.09999999999999432,4387,4,74,98
0.09999999999999432,4387,5,74,86
0.10000000000000853,4387,6,74,58
0.09999999999999432,4387,7,74,91
0.10000000000000853,4387,8,74,85
0.10000000000000853,4387,9,74,61
0.10000000000000853,4387,10,74,71
0.09999999999999432,4387,11,74,82
0.10000000000000853,4387,12,74,104
0.09999999999999432,4387,13,74,78
0.09999999999999432,4387,14,74,47
0.10000000000000853,4387,15,74,66
0.09999999999999432,4388,0,74,57
0.09999999999999432,4388,1,74,69
0.09999999999999432,4388,2,74,77
0.09999999999999432,4388,3,74,114
0.10000000000000853,4388,4,74,87
0.09999999999999432,4388,5,74,82
0.09999999999999432,4388,6,74,52
0.10000000000000853,4388,7,74,77
0.09999999999999432,4388,8,74,84
0.10000000000000853,4388,9,74,63
0.09999999999999432,4388,10,74,3
0.10000000000000853,4388,11,74,71
0.025000000000005684,4388,12,74,53
0.09999999999999432,4388,13,74,100
0.09999999999999432,4388,14,74,53
0.10000000000000853,4388,15,74,94
0.09999999999999432,4389,0,74,81
0.10000000000000853,4389,1,74,83
0.09999999999999432,4389,2,74,92
0.09999999999999432,4389,3,74,89
0.10000000000000853,4389,4,74,72
0.10000000000000853,4389,5,74,75
0.09999999999999432,4389,6,74,68
0.09999999999999432,4389,7,74,90
0.09999999999999432,4389,8,74,74
0.10000000000000853,4389,9,74,80
0.10000000000000853,4389,10,74,80
0.09999999999999432,4389,11,74,27
0.09999999999999432,4389,12,74,54
0.10000000000000853,4389,13,74,85
0.09999999999999432,4389,14,74,73
0.09999999999999432,4389,15,74,73
0.09999999999999432,4390,0,74,79
0.09999999999999432,4390,1,74,92
0.09999999999999432,4390,2,74,93
0.10000000000000853,4390,3,74,94
0.10000000000000853,4390,4,74,84
0.10000000000000853,4390,5,74,86
0.09999999999999432,4390,6,74,80
0.09999999999999432,4390,7,74,52
0.09999999999999432,4390,8,74,71
0.09999999999999432,4390,9,74,31
0.09999999999999432,4390,10,74,93
0.10000000000000853,4390,11,74,71
0.09999999999999432,4390,12,74,78
0.09999999999999432,4390,13,74,62
0.09999999999999432,4390,14,74,73
0.10000000000000853,4390,15,74,104
0.09999999999999432,4391,0,74,86
0.09999999999999432,4391,1,74,56
0.10000000000000853,4391,2,74,79
0.10000000000000853,4391,3,74,84
0.10000000000000853,4391,4,74,62
0.09999999999999432,4391,5,74,74
0.09999999999999432,4391,6,74,92
0.10000000000000853,4391,7,74,95
0.09999999999999432,4391,8,74,53
0.09999999999999432,4391,9,74,83
0.10000000000000853,4391,10,74,79
0.09999999999999432,4391,11,74,29
0.10000000000000853,4391,12,74,60
0.10000000000000853,4391,13,74,71
0.036363636363645924,4391,14,74,73
0.004545454545450411,4391,15,74,72
0.10000000000000853,4392,0,74,100
0.09999999999999432,4392,1,74,77
0.10000000000000853,4392,2,74,91
0.10000000000000853,4392,3,74,63
0.10000000000000853,4392,4,74,64
0.09999999999999432,4392,5,74,72
0.10000000000000853,4392,6,74,67
0.09999999999999432,4392,7,74,77
0.10000000000000853,4392,8,74,69
0.09999999999999432,4392,9,74,57
0.10000000000000853,4392,10,74,36
0.09999999999999432,4392,11,74,62
0.045454545454546746,4392,12,74,63
0.09999999999999432,4392,13,74,78
0.09999999999999432,4392,14,74,59
0.09999999999999432,4392,15,74,61
0.09999999999999432,4393,0,74,56
0.09999999999999432,4393,1,74,91
0.09999999999999432,4393,2,74,85
0.10000000000000853,4393,3,74,115
0.10000000000000853,4393,4,74,67
0.09999999999999432,4393,5,74,79
0.10000000000000853,4393,6,74,83
0.01590909090909065,4393,7,74,68
0.10000000000000853,4393,8,74,54
0.10000000000000853,4393,9,74,91
0.09999999999999432,4393,10,74,87
0.09999999999999432,4393,11,74,58
0.09999999999999432,4393,12,74,50
0.10000000000000853,4393,13,74,46
0.09999999999999432,4393,14,74,66
0.09999999999999432,4393,15,74,78
0.09999999999999432,4394,0,74,79
0.09999999999999432,4394,1,74,73
0.09999999999999432,4394,2,74,87
0.09999999999999432,4394,3,74,50
0.09999999999999432,4394,4,74,93
0.09999999999999432,4394,5,74,84
0.09999999999999432,4394,6,74,82
0.09999999999999432,4394,7,74,98
0.09999999999999432,4394,8,74,58
0.09999999999999432,4394,9,74,58
0.09999999999999432,4394,10,74,77
0.10000000000000853,4394,11,74,90
0.09999999999999432,4394,12,74,59
0.10000000000000853,4394,13,74,49
0.09999999999999432,4394,14,74,75
0.10000000000000853,4394,15,74,75
0.09999999999999432,4395,0,74,56
0.10000000000000853,4395,1,74,54
0.09999999999999432,4395,2,74,52
0.10000000000000853,4395,3,74,69
0.09999999999999432,4395,4,74,59
0.10000000000000853,4395,5,74,94
0.09999999999999432,4395,6,74,73
0.09999999999999432,4395,7,74,63
0.10000000000000853,4395,8,74,91
0.09999999999999432,4395,9,74,56
0.09999999999999432,4395,10,74,109
0.09999999999999432,4395,11,74,62
0.09999999999999432,4395,12,74,63
0.09999999999999432,4395,13,74,81
0.09999999999999432,4395,14,74,45
0.09999999999999432,4395,15,74,55
0.09999999999999432,4396,0,74,78
0.09999999999999432,4396,1,74,58
0.10000000000000853,4396,2,74,26
0.004545454545450411,4396,3,74,64
0.09999999999999432,4396,4,74,82
0.09999999999999432,4396,5,74,77
0.09999999999999432,4396,6,74,69
0.10000000000000853,4396,7,74,2
0.09999999999999432,4396,8,74,2
0.10000000000000853,4396,9,74,67
0.09999999999999432,4396,10,74,74
0.09999999999999432,4396,11,74,97
0.10000000000000853,4396,12,74,61
0.09999999999999432,4396,13,74,70
0.09999999999999432,4396,14,74,9
0.09999999999999432,4396,15,74,43
0.09999999999999432,4397,0,74,79
0.09999999999999432,4397,1,74,50
0.10000000000002274,4397,2,74,83
0.09999999999999432,4397,3,74,91
0.10000000000002274,4397,4,74,17
0.09999999999999432,4397,5,74,38
0.09999999999999432,4397,6,74,66
0.09999999999999432,4397,7,74,89
0.09999999999999432,4397,8,74,66
0.09999999999999432,4397,9,74,89
0.09999999999999432,4397,10,74,96
0.09999999999999432,4397,11,74,20
0.09999999999999432,4397,12,74,57
0.09999999999999432,4397,13,74,50
0.10000000000002274,4397,14,74,74
0.10000000000002274,4397,15,74,65
0.09999999999999432,4398,0,74,97
0.09999999999999432,4398,1,74,21
0.09999999999999432,4398,2,74,67
0.09999999999999432,4398,3,74,81
0.10000000000002274,4398,4,74,80
0.10000000000002274,4398,5,74,77
0.09999999999999432,4398,6,74,97
0.09999999999999432,4398,7,74,85
0.09999999999999432,4398,8,74,70
0.09999999999999432,4398,9,74,71
0.09999999999999432,4398,10,74,62
0.09999999999999432,4398,11,74,80
0.10000000000002274,4398,12,74,63
0.10000000000002274,4398,13,74,88
0.09999999999999432,4398,14,74,36
0.10000000000002274,4398,15,74,52
0.09999999999999432,4399,0,74,87
0.10000000000002274,4399,1,74,72
0.09999999999999432,4399,2,74,39
0.09999999999999432,4399,3,74,41
0.06818181818181301,4399,4,74,63
0.09999999999999432,4399,5,74,80
0.09999999999999432,4399,6,74,95
0.10000000000002274,4399,7,74,47
0.09999999999999432,4399,8,74,53
0.09999999999999432,4399,9,74,18
0.09999999999999432,4399,10,74,76
0.09999999999999432,4399,11,74,70
0.09999999999999432,4399,12,74,88
0.09999999999999432,4399,13,74,20
0.01590909090907644,4399,14,74,44
0.03636363636363171,4399,15,74,75
0.09999999999999432,4400,0,74,73
0.10000000000002274,4400,1,74,67
0.09999999999999432,4400,2,74,71
0.09999999999999432,4400,3,74,75
0.09999999999999432,4400,4,74,79
0.09999999999999432,4400,5,74,64
0.004545454545450411,4400,6,74,77
0.09999999999999432,4400,7,74,117
0.10000000000002274,4400,8,74,105
0.10000000000002274,4400,9,74,63
0.09999999999999432,4400,10,74,56
0.004545454545450411,4400,11,74,61
0.09999999999999432,4400,12,74,77
0.09999999999999432,4400,13,74,65
0.09999999999999432,4400,14,74,84
0.09999999999999432,4400,15,74,68
0.09999999999999432,4401,0,74,82
0.09999999999999432,4401,1,74,84
0.09999999999999432,4401,2,74,50
0.09999999999999432,4401,3,74,70
0.09999999999999432,4401,4,74,65
0.09999999999999432,4401,5,74,82
0.09999999999999432,4401,6,74,71
0.09999999999999432,4401,7,74,62
0.004545454545450411,4401,8,74,50
0.004545454545450411,4401,9,74,76
0.09999999999999432,4401,10,74,96
0.09999999999999432,4401,11,74,23
0.09999999999999432,4401,12,74,93
0.09999999999999432,4401,13,74,84
0.013636363636379656,4401,14,74,65
0.025000000000005684,4401,15,74,75
0.10000000000002274,4402,0,74,74
0.10000000000002274,4402,1,74,73
0.09999999999999432,4402,2,74,78
0.09999999999999432,4402,3,74,29
0.09999999999999432,4402,4,74,59
0.10000000000002274,4402,5,74,74
0.10000000000002274,4402,6,74,81
0.09999999999999432,4402,7,74,41
0.09999999999999432,4402,8,74,86
0.09999999999999432,4402,9,74,52
0.09999999999999432,4402,10,74,85
0.09999999999999432,4402,11,74,62
0.09999999999999432,4402,12,74,75
0.09999999999999432,4402,13,74,83
0.09999999999999432,4402,14,74,83
0.09999999999999432,4402,15,74,72
0.025000000000005684,4403,0,74,76
0.09999999999999432,4403,1,74,36
0.09999999999999432,4403,2,74,76
0.09999999999999432,4403,3,74,101
0.09999999999999432,4403,4,74,108
0.09999999999999432,4403,5,74,71
0.10000000000002274,4403,6,74,94
0.09999999999999432,4403,7,74,77
0.10000000000002274,4403,8,74,81
0.09999999999999432,4403,9,74,92
0.09999999999999432,4403,10,74,95
0.09999999999999432,4403,11,74,33
0.09999999999999432,4403,12,74,68
0.10000000000002274,4403,13,74,70
0.09999999999999432,4403,14,74,77
0.09999999999999432,4403,15,74,91
0.10000000000002274,4404,0,74,63
0.09999999999999432,4404,1,74,25
0.013636363636351234,4404,2,74,77
0.09999999999999432,4404,3,74,89
0.10000000000002274,4404,4,74,72
0.09999999999999432,4404,5,74,82
0.09999999999999432,4404,6,74,29
0.09999999999999432,4404,7,74,57
0.10000000000002274,4404,8,74,68
0.10000000000002274,4404,9,74,69
0.09999999999999432,4404,10,74,63
0.09999999999999432,4404,11,74,51
0.09999999999999432,4404,12,74,61
0.013636363636351234,4404,13,74,72
0.09999999999999432,4404,14,74,24
0.004545454545450411,4404,15,74,67
0.09999999999999432,4405,0,74,80
0.09999999999999432,4405,1,74,81
0.09999999999999432,4405,2,74,73
0.09999999999999432,4405,3,74,74
0.10000000000002274,4405,4,74,89
0.03409090909090651,4405,5,74,65
0.02727272727273089,4405,6,74,71
0.09999999999999432,4405,7,74,66
0.09999999999999432,4405,8,74,60
0.09999999999999432,4405,9,74,52
0.06818181818181301,4405,10,74,70
0.09999999999999432,4405,11,74,104
0.09999999999999432,4405,12,74,100
0.09999999999999432,4405,13,74,82
0.09999999999999432,4405,14,74,97
0.09999999999999432,4405,15,74,83
0.09999999999999432,4406,0,74,82
0.09999999999999432,4406,1,74,89
0.09999999999999432,4406,2,74,66
0.10000000000002274,4406,3,74,91
0.10000000000002274,4406,4,74,77
0.09999999999999432,4406,5,74,83
0.10000000000002274,4406,6,74,94
0.10000000000002274,4406,7,74,71
0.09999999999999432,4406,8,74,80
0.10000000000002274,4406,9,74,69
0.09999999999999432,4406,10,74,98
0.09999999999999432,4406,11,74,9
0.03636363636363171,4406,12,74,68
0.09999999999999432,4406,13,74,65
0.09999999999999432,4406,14,74,84
0.09999999999999432,4406,15,74,15
0.09999999999999432,4407,0,74,88
0.10000000000002274,4407,1,74,94
0.09999999999999432,4407,2,74,85
0.09999999999999432,4407,3,74,47
0.09999999999999432,4407,4,74,71
0.10000000000002274,4407,5,74,91
0.09999999999999432,4407,6,74,21
0.09999999999999432,4407,7,74,77
0.09999999999999432,4407,8,74,58
0.09999999999999432,4407,9,74,96
0.10000000000002274,4407,10,74,76
0.09999999999999432,4407,11,74,50
0.09999999999999432,4407,12,74,101
0.09999999999999432,4407,13,74,82
0.09999999999999432,4407,14,74,102
0.004545454545450411,4407,15,74,78
0.09999999999999432,4408,0,74,72
0.09999999999999432,4408,1,74,92
0.09999999999999432,4408,2,74,77
0.10000000000002274,4408,3,74,26
0.09999999999999432,4408,4,74,75
0.06818181818181301,4408,5,74,97
0.09999999999999432,4408,6,74,87
0.09999999999999432,4408,7,74,70
0.09999999999999432,4408,8,74,79
0.09999999999999432,4408,9,74,77
0.09999999999999432,4408,10,74,79
0.09999999999999432,4408,11,74,65
0.09999999999999432,4408,12,74,78
0.10000000000002274,4408,13,74,67
0.09999999999999432,4408,14,74,68
0.09999999999999432,4408,15,74,80
0.10000000000002274,4409,0,74,72
0.09999999999999432,4409,1,74,49
0.09999999999999432,4409,2,74,79
0.09999999999999432,4409,3,74,61
0.09999999999999432,4409,4,74,77
0.09999999999999432,4409,5,74,90
0.09999999999999432,4409,6,74,67
0.09999999999999432,4409,7,74,92
0.10000000000002274,4409,8,74,83
0.09999999999999432,4409,9,74,86
0.10000000000002274,4409,10,74,37
0.10000000000002274,4409,11,74,100
0.09999999999999432,4409,12,74,38
0.09999999999999432,4409,13,74,94
0.09999999999999432,4409,14,74,44
0.03636363636363171,4409,15,74,62
0.09999999999999432,4410,0,74,76
0.09999999999999432,4410,1,74,73
0.09999999999999432,4410,2,74,80
0.09999999999999432,4410,3,74,71
0.09999999999999432,4410,4,74,33
0.10000000000002274,4410,5,74,40
0.09999999999999432,4410,6,74,75
0.09999999999999432,4410,7,74,89
0.09999999999999432,4410,8,74,71
0.09999999999999432,4410,9,74,68
0.09999999999999432,4410,10,74,89
0.10000000000002274,4410,11,74,101
0.09999999999999432,4410,12,74,104
0.10000000000002274,4410,13,74,71
0.10000000000002274,4410,14,74,65
0.09999999999999432,4410,15,74,93
0.10000000000002274,4411,0,74,87
0.09999999999999432,4411,1,74,77
0.09999999999999432,4411,2,74,84
0.09999999999999432,4411,3,74,34
0.09999999999999432,4411,4,74,41
0.09999999999999432,4411,5,74,56
0.09999999999999432,4411,6,74,107
0.09999999999999432,4411,7,74,102
0.09999999999999432,4411,8,74,81
0.09999999999999432,4411,9,74,105
0.09999999999999432,4411,10,74,27
0.09999999999999432,4411,11,74,103
0.045454545454532536,4411,12,74,101
0.09999999999999432,4411,13,74,78
0.10000000000002274,4411,14,74,101
0.09999999999999432,4411,15,74,82
0.10000000000002274,4412,0,74,59
0.09999999999999432,4412,1,74,92
0.10000000000002274,4412,2,74,73
0.01590909090910486,4412,3,74,88
0.09999999999999432,4412,4,74,74
0.10000000000002274,4412,5,74,90
0.09999999999999432,4412,6,74,48
0.10000000000002274,4412,7,74,43
0.10000000000000142,4412,8,63,13
0.10000000000000142,4412,9,63,38
0.10000000000000142,4412,10,63,51
0.10000000000000142,4412,11,63,47
0.09999999999999432,4412,12,63,18
0.09999999999999432,4412,13,63,47
0.10000000000000142,4412,14,63,40
0.09999999999999432,4412,15,63,30
0.09999999999999432,4413,0,63,39
0.10000000000000142,4413,1,63,3
0.10000000000000142,4413,2,63,11
0.10000000000000142,4413,3,63,23
0.09999999999999432,4413,4,63,24
0.09999999999999432,4413,5,63,31
0.10000000000000142,4413,6,63,28
0.10000000000000142,4413,7,63,2
0.10000000000000142,4413,8,63,32
0.10000000000000142,4413,9,63,33
0.10000000000000142,4413,10,63,26
0.10000000000000142,4413,11,63,37
0.10000000000000142,4413,12,63,48
0.10000000000000142,4413,13,63,47
0.09999999999999432,4413,14,63,6
0.09999999999999432,4413,15,63,14
0.10000000000000142,4414,0,63,32
0.10000000000000142,4414,1,63,25
0.10000000000000142,4414,2,63,23
0.10000000000000142,4414,3,63,21
0.10000000000000142,4414,4,63,58
0.10000000000000142,4414,5,63,27
0.09999999999999432,4414,6,63,32
0.10000000000000142,4414,7,63,33
0.10000000000000142,4414,8,63,64
0.09999999999999432,4414,9,63,26
0.10000000000000142,4414,10,63,11
0.10000000000000142,4414,11,63,40
0.10000000000000142,4414,12,63,54
0.10000000000000142,4414,13,63,62
0.10000000000000142,4414,14,63,33
0.10000000000000142,4414,15,63,50
0.10000000000000142,4415,0,63,36
0.10000000000000142,4415,1,63,30
0.09999999999999432,4415,2,63,51
0.10000000000000142,4415,3,63,22
0.10000000000000142,4415,4,63,25
0.10000000000000142,4415,5,63,1
0.09999999999999432,4415,6,63,27
0.10000000000000142,4415,7,63,15
0.10000000000000142,4415,8,63,27
0.10000000000000142,4415,9,63,30
0.10000000000000853,4415,10,63,9
0.09999999999999432,4415,11,63,18
0.10000000000000853,4415,12,63,1
0.10000000000000853,4415,13,63,13
0.09999999999999432,4415,14,63,15
0.10000000000000853,4415,15,63,12
0.09999999999999432,4416,0,63,7
0.09999999999999432,4416,1,63,20
0.10000000000000853,4416,2,63,19
0.10000000000000853,4416,3,63,6
0.10000000000000853,4416,4,63,20
0.10000000000000853,4416,5,63,30
0.10000000000000853,4416,6,63,19
0.10000000000000853,4416,7,63,10
0.09999999999999432,4416,8,63,7
0.09999999999999432,4416,9,63,21
0.09999999999999432,4416,10,63,9
0.10000000000000853,4416,11,63,14
0.09999999999999432,4416,12,63,11
0.09999999999999432,4416,13,63,19
0.10000000000000853,4416,14,63,5
0.09999999999999432,4416,15,63,19
0.056818181818172775,4417,0,63,26
0.09999999999999432,4417,1,63,17
0.09999999999999432,4417,2,63,9
0.10000000000000853,4417,3,63,26
0.10000000000000853,4417,4,63,4
0.09999999999999432,4417,5,63,3
0.10000000000000853,4417,6,63,20
0.09999999999999432,4417,7,63,16
0.09999999999999432,4417,8,63,19
0.10000000000000853,4417,9,63,17
0.09999999999999432,4417,10,63,21
0.10000000000000853,4417,11,63,15
0.056818181818186986,4417,12,63,22
0.09999999999999432,4417,13,63,7
0.09999999999999432,4417,14,63,12
0.09999999999999432,4417,15,63,9
0.09999999999999432,4418,0,63,5
0.09999999999999432,4418,1,63,6
0.09999999999999432,4418,2,63,11
0.09999999999999432,4418,3,63,27
0.09999999999999432,4418,4,63,3
0.09999999999999432,4418,5,63,20
0.09999999999999432,4418,6,63,9
0.09999999999999432,4418,7,63,13
0.09999999999999432,4418,8,63,10
0.06818181818181301,4418,9,63,20
0.09999999999999432,4418,10,63,1
0.09999999999999432,4418,11,63,15
0.09999999999999432,4418,12,63,27
0.09999999999999432,4418,13,63,15
0.09999999999999432,4418,14,63,15
0.10000000000002274,4418,15,63,12
0.09999999999999432,4419,0,63,7
0.09999999999999432,4419,1,63,9
0.10000000000002274,4419,2,63,9
0.09999999999999432,4419,3,63,10
0.09999999999999432,4419,4,63,28
0.10000000000002274,4419,5,63,20
0.09999999999999432,4419,6,63,23
0.09999999999999432,4419,7,63,9
0.09999999999999432,4419,8,63,9
0.09999999999999432,4419,9,63,4
0.09999999999999432,4419,10,63,9
0.09999999999999432,4419,11,63,1
0.09999999999999432,4419,12,63,1
0.09999999999999432,4419,13,63,12
0.10000000000002274,4419,14,63,2
0.10000000000002274,4419,15,63,1
0.09999999999999432,4420,0,63,7
0.09999999999999432,4420,1,63,9
0.09999999999999432,4420,2,63,1
0.09999999999999432,4420,3,63,7
0.10000000000002274,4420,4,63,2
0.10000000000002274,4420,5,63,3
0.06818181818184144,4420,6,63,7
0.10000000000002274,4420,7,63,2
0.09999999999999432,4420,8,54,75
0.06818181818181301,4420,9,54,105
0.10000000000000142,4420,10,54,94
0.09999999999999432,4420,11,54,121
0.09999999999999432,4420,12,54,101
0.10000000000000142,4420,13,54,93
0.10000000000000142,4420,14,54,71
0.10000000000000142,4420,15,54,91
0.10000000000000142,4421,0,54,86
0.10000000000000142,4421,1,54,93
0.10000000000000142,4421,2,54,78
0.10000000000000142,4421,3,54,100
0.10000000000000142,4421,4,54,74
0.06818181818182012,4421,5,54,85
0.10000000000000142,4421,6,54,79
0.05681818181817988,4421,7,54,99
0.09999999999999432,4421,8,54,88
0.06818181818181301,4421,9,54,85
0.10000000000000142,4421,10,54,85
0.10000000000000142,4421,11,54,83
0.10000000000000142,4421,12,54,82
0.10000000000000142,4421,13,54,109
0.10000000000000142,4421,14,54,66
0.10000000000000142,4421,15,54,105
0.10000000000000142,4422,0,54,92
0.05909090909091219,4422,1,54,84
0.10000000000000142,4422,2,54,113
0.10000000000000142,4422,3,54,96
0.10000000000000142,4422,4,54,83
0.09999999999999432,4422,5,54,85
0.10000000000000142,4422,6,54,87
0.05909090909091219,4422,7,54,99
0.10000000000000142,4422,8,54,92
0.06818181818182012,4422,9,54,105
0.10000000000000142,4422,10,54,95
0.10000000000000142,4422,11,54,66
0.06818181818182012,4422,12,54,55
0.10000000000000142,4422,13,54,80
0.10000000000000142,4422,14,54,116
0.10000000000000142,4422,15,54,90
0.10000000000000142,4423,0,54,82
0.10000000000000142,4423,1,54,91
0.10000000000000142,4423,2,54,75
0.10000000000000142,4423,3,54,70
0.09999999999999432,4423,4,54,108
0.10000000000000142,4423,5,54,96
0.10000000000000142,4423,6,54,108
0.10000000000000142,4423,7,54,99
0.10000000000000142,4423,8,54,127
0.10000000000000142,4423,9,54,97
0.10000000000000142,4423,10,54,89
0.10000000000000142,4423,11,54,75
0.10000000000000142,4423,12,54,91
0.10000000000000142,4423,13,54,94
0.10000000000000142,4423,14,54,102
0.10000000000000142,4423,15,54,75
0.10000000000000142,4424,0,54,65
0.10000000000000142,4424,1,54,70
0.10000000000000142,4424,2,54,64
0.10000000000000142,4424,3,54,70
0.10000000000000142,4424,4,54,73
0.10000000000000142,4424,5,54,81
0.06818181818181301,4424,6,54,86
0.10000000000000142,4424,7,54,90
0.10000000000000142,4424,8,54,67
0.10000000000000142,4424,9,54,89
0.06818181818182012,4424,10,54,91
0.09999999999999432,4424,11,54,63
0.10000000000000853,4424,12,54,60
0.06590909090908781,4424,13,54,65
0.09999999999999432,4424,14,54,53
0.04772727272727195,4424,15,54,64
0.09999999999999432,4425,0,54,72
0.09999999999999432,4425,1,54,65
0.09999999999999432,4425,2,54,45
0.09999999999999432,4425,3,54,63
0.09999999999999432,4425,4,54,85
0.056818181818186986,4425,5,54,89
0.10000000000000853,4425,6,54,58
0.09999999999999432,4425,7,54,79
0.10000000000000853,4425,8,54,76
0.10000000000000853,4425,9,54,103
0.09999999999999432,4425,10,54,65
0.09999999999999432,4425,11,54,83
0.10000000000000853,4425,12,54,84
0.09999999999999432,4425,13,54,67
0.09999999999999432,4425,14,54,48
0.10000000000000853,4425,15,54,94
0.09999999999999432,4426,0,54,58
0.10000000000000853,4426,1,54,87
0.09999999999999432,4426,2,54,61
0.09999999999999432,4426,3,54,62
0.09999999999999432,4426,4,54,40
0.09999999999999432,4426,5,54,51
0.10000000000000853,4426,6,54,69
0.09999999999999432,4426,7,54,73
0.09999999999999432,4426,8,54,84
0.10000000000000853,4426,9,54,66
0.09999999999999432,4426,10,54,49
0.09999999999999432,4426,11,54,97
0.09999999999999432,4426,12,54,71
0.09999999999999432,4426,13,54,33
0.10000000000000853,4426,14,54,27
0.10000000000000853,4426,15,54,46
0.09999999999999432,4427,0,54,45
0.09999999999999432,4427,1,54,65
0.09999999999999432,4427,2,54,76
0.09999999999999432,4427,3,54,81
0.10000000000000853,4427,4,54,72
0.09999999999999432,4427,5,54,59
0.09999999999999432,4427,6,54,76
0.09999999999999432,4427,7,54,28
0.09999999999999432,4427,8,54,64
0.09999999999999432,4427,9,54,62
0.09999999999999432,4427,10,54,46
0.10000000000000853,4427,11,54,69
0.09999999999999432,4427,12,54,31
0.09999999999999432,4427,13,54,41
0.09999999999999432,4427,14,54,54
0.09999999999999432,4427,15,54,56
0.10000000000000853,4428,0,54,55
0.09999999999999432,4428,1,54,51
0.09999999999999432,4428,2,54,64
0.10000000000000853,4428,3,54,87
0.09999999999999432,4428,4,54,66
0.09999999999999432,4428,5,54,68
0.09999999999999432,4428,6,54,64
0.09999999999999432,4428,7,54,61
0.10000000000000853,4428,8,54,44
0.09999999999999432,4428,9,54,63
0.09999999999999432,4428,10,54,69
0.10000000000000853,4428,11,54,74
0.10000000000000853,4428,12,54,61
0.09999999999999432,4428,13,54,66
0.10000000000000853,4428,14,54,56
0.10000000000000853,4428,15,54,83
0.10000000000000853,4429,0,54,73
0.10000000000000853,4429,1,54,69
0.09999999999999432,4429,2,54,83
0.09999999999999432,4429,3,54,57
0.09999999999999432,4429,4,54,73
0.09999999999999432,4429,5,54,89
0.10000000000000853,4429,6,54,62
0.09999999999999432,4429,7,54,62
0.10000000000000853,4429,8,54,89
0.09999999999999432,4429,9,54,80
0.09999999999999432,4429,10,54,84
0.10000000000000853,4429,11,54,88
0.09999999999999432,4429,12,54,86
0.10000000000000853,4429,13,54,71
0.09999999999999432,4429,14,54,58
0.09999999999999432,4429,15,54,50
0.09999999999999432,4430,0,54,75
0.10000000000000853,4430,1,54,73
0.09999999999999432,4430,2,54,68
0.09999999999999432,4430,3,54,89
0.09999999999999432,4430,4,54,45
0.09999999999999432,4430,5,54,96
0.10000000000000853,4430,6,54,68
0.09999999999999432,4430,7,54,89
0.10000000000000853,4430,8,54,65
0.09999999999999432,4430,9,54,66
0.10000000000000853,4430,10,54,56
0.09999999999999432,4430,11,54,78
0.09999999999999432,4430,12,54,60
0.10000000000000853,4430,13,54,63
0.09999999999999432,4430,14,54,65
0.09999999999999432,4430,15,54,74
0.10000000000000853,4431,0,54,80
0.09999999999999432,4431,1,54,79
0.09999999999999432,4431,2,54,58
0.10000000000000853,4431,3,54,76
0.09999999999999432,4431,4,54,53
0.10000000000000853,4431,5,54,68
0.09999999999999432,4431,6,54,74
0.10000000000000853,4431,7,54,60
0.09999999999999432,4431,8,54,55
0.09999999999999432,4431,9,54,56
0.10000000000000853,4431,10,54,69
0.09999999999999432,4431,11,54,80
0.10000000000000853,4431,12,54,48
0.09999999999999432,4431,13,54,60
0.03636363636363171,4431,14,54,64
0.09999999999999432,4431,15,54,71
0.09999999999999432,4432,0,54,77
0.10000000000000853,4432,1,54,86
0.09999999999999432,4432,2,54,61
0.09999999999999432,4432,3,54,62
0.10000000000002274,4432,4,54,67
0.09999999999999432,4432,5,54,51
0.09999999999999432,4432,6,54,101
0.09999999999999432,4432,7,54,79
0.04545454545456096,4432,8,54,78
0.09999999999999432,4432,9,54,74
0.09999999999999432,4432,10,54,59
0.10000000000002274,4432,11,54,69
0.09999999999999432,4432,12,54,73
0.025000000000005684,4432,13,54,64
0.09999999999999432,4432,14,54,67
0.04772727272725774,4432,15,54,71
0.10000000000002274,4433,0,54,74
0.09999999999999432,4433,1,54,59
0.09999999999999432,4433,2,54,61
0.09999999999999432,4433,3,54,56
0.09999999999999432,4433,4,54,60
0.10000000000002274,4433,5,54,61
0.09999999999999432,4433,6,54,37
0.09999999999999432,4433,7,54,62
0.09999999999999432,4433,8,54,55
0.09999999999999432,4433,9,54,64
0.09999999999999432,4433,10,54,49
0.09999999999999432,4433,11,54,69
0.10000000000002274,4433,12,54,21
0.04545454545456096,4433,13,54,68
0.09999999999999432,4433,14,54,63
0.09999999999999432,4433,15,54,66
0.10000000000002274,4434,0,54,63
0.09999999999999432,4434,1,54,47
0.10000000000002274,4434,2,54,74
0.09999999999999432,4434,3,54,83
0.09999999999999432,4434,4,54,63
0.09999999999999432,4434,5,54,73
0.09999999999999432,4434,6,54,80
0.10000000000002274,4434,7,54,38
0.013636363636379656,4434,8,54,78
0.10000000000002274,4434,9,54,70
0.09999999999999432,4434,10,54,101
0.09999999999999432,4434,11,54,72
0.045454545454532536,4434,12,54,69
0.09999999999999432,4434,13,54,64
0.03636363636363171,4434,14,54,90
0.09999999999999432,4434,15,54,99
0.09999999999999432,4435,0,54,98
0.10000000000002274,4435,1,54,81
0.09999999999999432,4435,2,54,87
0.09999999999999432,4435,3,54,74
0.09999999999999432,4435,4,54,81
0.10000000000002274,4435,5,54,79
0.09999999999999432,4435,6,54,35
0.056818181818186986,4435,7,54,48
0.10000000000002274,4435,8,54,76
0.09999999999999432,4435,9,54,75
0.10000000000002274,4435,10,54,45
0.09999999999999432,4435,11,54,42
0.09999999999999432,4435,12,54,79
0.09999999999999432,4435,13,54,79
0.09999999999999432,4435,14,54,81
0.09999999999999432,4435,15,54,85
0.09999999999999432,4436,0,54,105
0.09999999999999432,4436,1,54,64
0.09999999999999432,4436,2,54,96
0.09999999999999432,4436,3,54,64
0.09999999999999432,4436,4,54,57
0.04772727272725774,4436,5,54,66
0.09999999999999432,4436,6,54,76
0.09999999999999432,4436,7,54,89
0.09999999999999432,4436,8,54,97
0.09999999999999432,4436,9,54,117
0.09999999999999432,4436,10,54,102
0.10000000000002274,4436,11,54,92
0.09999999999999432,4436,12,54,116
0.09999999999999432,4436,13,54,47
0.056818181818158564,4436,14,54,25
0.09999999999999432,4436,15,54,97
0.09999999999999432,4437,0,54,66
0.09999999999999432,4437,1,54,68
0.09999999999999432,4437,2,54,50
0.10000000000002274,4437,3,54,67
0.09999999999999432,4437,4,54,59
0.03409090909090651,4437,5,54,102
0.09999999999999432,4437,6,54,96
0.09999999999999432,4437,7,54,41
0.03636363636363171,4437,8,54,127
0.09999999999999432,4437,9,54,98
0.10000000000002274,4437,10,54,50
0.09999999999999432,4437,11,54,60
0.09999999999999432,4437,12,54,95
0.09999999999999432,4437,13,54,127
0.10000000000002274,4437,14,54,39
0.09999999999999432,4437,15,87,127
0.10000000000000142,4438,0,87,18
0.09999999999999432,4438,1,87,127
0.09999999999999432,4438,2,87,22
0.09999999999999432,4438,3,87,127
0.09999999999999432,4438,4,87,19
0.09999999999999432,4438,5,87,127
0.09999999999999432,4438,6,87,20
0.09999999999999432,4438,7,87,127
0.09999999999999432,4438,8,87,21
0.09999999999999432,4438,9,87,127
0.10000000000000142,4438,10,87,25
0.09999999999999432,4438,11,87,127
0.10000000000000142,4438,12,87,23
0.10000000000000142,4438,13,87,127
0.10000000000000142,4438,14,87,22
0.10000000000000142,4438,15,87,127
0.10000000000000142,4439,0,87,24
0.10000000000000142,4439,1,87,127
0.10000000000000142,4439,2,87,20
0.10000000000000142,4439,3,87,127
0.10000000000000142,4439,4,87,24
0.10000000000000142,4439,5,87,127
0.10000000000000142,4439,6,87,21
0.10000000000000142,4439,7,87,127
0.10000000000000142,4439,8,87,21
0.10000000000000142,4439,9,87,127
0.10000000000000142,4439,10,87,25
0.10000000000000142,4439,11,87,127
0.10000000000000142,4439,12,87,23
0.10000000000000142,4439,13,87,127
0.10000000000000142,4439,14,87,22
0.10000000000000142,4439,15,87,127
0.10000000000000142,4440,0,87,23
0.10000000000000142,4440,1,87,127
0.10000000000000142,4440,2,87,20
0.10000000000000142,4440,3,87,127
0.10000000000000142,4440,4,87,25
0.10000000000000142,4440,5,87,127
0.10000000000000142,4440,6,87,20
0.10000000000000142,4440,7,87,127
0.10000000000000142,4440,8,87,22
0.10000000000000142,4440,9,87,127
0.10000000000000142,4440,10,87,21
0.10000000000000142,4440,11,87,127
0.09999999999999432,4440,12,87,22
0.10000000000000142,4440,13,87,127
0.09999999999999432,4440,14,87,21
0.09999999999999432,4440,15,87,127
0.09999999999999432,4441,0,87,23
0.09999999999999432,4441,1,87,127
0.09999999999999432,4441,2,87,23
0.09999999999999432,4441,3,87,127
0.09999999999999432,4441,4,87,20
0.09999999999999432,4441,5,87,127
0.09999999999999432,4441,6,87,21
0.10000000000000142,4441,7,87,127
0.09999999999999432,4441,8,87,20
0.09999999999999432,4441,9,87,127
0.10000000000000142,4441,10,87,27
0.09999999999999432,4441,11,87,127
0.10000000000000142,4441,12,87,21
0.10000000000000142,4441,13,87,127
0.10000000000000142,4441,14,87,21
0.10000000000000142,4441,15,87,127
0.10000000000000142,4442,0,87,25
0.10000000000000142,4442,1,87,127
0.10000000000000142,4442,2,87,22
0.10000000000000142,4442,3,87,127
0.10000000000000142,4442,4,87,23
0.10000000000000142,4442,5,87,127
0.10000000000000142,4442,6,87,20
0.10000000000000142,4442,7,87,127
0.10000000000000142,4442,8,87,22
0.10000000000000142,4442,9,87,127
0.10000000000000142,4442,10,87,25
0.10000000000000142,4442,11,87,127
0.10000000000000142,4442,12,87,25
0.10000000000000142,4442,13,87,127
0.10000000000000142,4442,14,87,22
0.10000000000000142,4442,15,87,127
0.10000000000000142,4443,0,87,27
0.10000000000000142,4443,1,87,127
0.10000000000000142,4443,2,87,12
0.10000000000000142,4443,3,87,127
0.10000000000000142,4443,4,87,14
0.10000000000000142,4443,5,87,127
0.10000000000000142,4443,6,87,13
0.09999999999999432,4443,7,87,127
0.10000000000000142,4443,8,87,5
0.09999999999999432,4443,9,87,127
0.09999999999999432,4443,10,87,14
0.10000000000000142,4443,11,87,127
0.09999999999999432,4443,12,87,14
0.10000000000000142,4443,13,87,127
0.09999999999999432,4443,14,87,12
0.09999999999999432,4443,15,87,127
0.10000000000000142,4444,0,87,13
0.09999999999999432,4444,1,87,127
0.09999999999999432,4444,2,87,13
0.10000000000000853,4444,3,87,127
0.09999999999999432,4444,4,87,13
0.09999999999999432,4444,5,87,127
0.09999999999999432,4444,6,87,13
0.09999999999999432,4444,7,87,127
0.09999999999999432,4444,8,87,15
0.09999999999999432,4444,9,87,127
0.09999999999999432,4444,10,87,14
0.09999999999999432,4444,11,87,127
0.09999999999999432,4444,12,87,15
0.10000000000000853,4444,13,87,127
0.09999999999999432,4444,14,87,14
0.09999999999999432,4444,15,87,127
0.09999999999999432,4445,0,87,16
0.09999999999999432,4445,1,87,127
0.09999999999999432,4445,2,87,15
0.09999999999999432,4445,3,87,126
0.10000000000000853,4445,4,87,13
0.09999999999999432,4445,5,87,127
0.09999999999999432,4445,6,87,13
0.10000000000000853,4445,7,87,127
0.09999999999999432,4445,8,87,127
0.10000000000000853,4445,9,87,127
0.10000000000000853,4445,10,87,127
0.09999999999999432,4445,11,87,127
0.10000000000000853,4445,12,87,91
0.09999999999999432,4445,13,87,127
0.10000000000000853,4445,14,87,127
0.09999999999999432,4445,15,87,126
0.10000000000000853,4446,0,87,127
0.09999999999999432,4446,1,87,123
0.09999999999999432,4446,2,87,127
0.10000000000000853,4446,3,87,127
0.09999999999999432,4446,4,87,127
0.10000000000000853,4446,5,87,127
0.09999999999999432,4446,6,87,127
0.09999999999999432,4446,7,87,127
0.09999999999999432,4446,8,87,111
0.09999999999999432,4446,9,87,127
0.10000000000000853,4446,10,87,127
0.09999999999999432,4446,11,87,127
0.09999999999999432,4446,12,87,127
0.09999999999999432,4446,13,87,127
0.09999999999999432,4446,14,87,127
0.10000000000000853,4446,15,87,125
0.09999999999999432,4447,0,87,127
0.10000000000000853,4447,1,87,127
0.09999999999999432,4447,2,87,127
0.09999999999999432,4447,3,87,127
0.10000000000000853,4447,4,87,127
0.09999999999999432,4447,5,87,127
0.10000000000000853,4447,6,87,127
0.09999999999999432,4447,7,87,127
0.10000000000000853,4447,8,87,127
0.09999999999999432,4447,9,87,127
0.10000000000000853,4447,10,87,127
0.10000000000000853,4447,11,87,124
0.09999999999999432,4447,12,87,125
0.10000000000000853,4447,13,87,124
0.09999999999999432,4447,14,87,127
0.09999999999999432,4447,15,87,120
0.09999999999999432,4448,0,87,127
0.09999999999999432,4448,1,87,123
0.10000000000000853,4448,2,87,123
0.09999999999999432,4448,3,87,127
0.09999999999999432,4448,4,87,121
0.10000000000000853,4448,5,87,127
0.09999999999999432,4448,6,87,127
0.10000000000000853,4448,7,87,127
0.09999999999999432,4448,8,87,98
0.10000000000000853,4448,9,87,127
0.09999999999999432,4448,10,87,123
0.10000000000000853,4448,11,87,127
0.10000000000000853,4448,12,87,121
0.09999999999999432,4448,13,87,127
0.10000000000000853,4448,14,87,125
0.09999999999999432,4448,15,87,127
0.10000000000000853,4449,0,87,118
0.09999999999999432,4449,1,87,127
0.10000000000000853,4449,2,87,124
0.10000000000000853,4449,3,87,127
0.09999999999999432,4449,4,87,119
0.10000000000000853,4449,5,87,126
0.09999999999999432,4449,6,87,116
0.09999999999999432,4449,7,87,127
0.09999999999999432,4449,8,87,124
0.09999999999999432,4449,9,87,127
0.10000000000000853,4449,10,87,127
0.09999999999999432,4449,11,87,127
0.09999999999999432,4449,12,87,127
0.10000000000000853,4449,13,87,127
0.09999999999999432,4449,14,87,127
0.10000000000000853,4449,15,87,127
0.09999999999999432,4450,0,87,122
0.10000000000000853,4450,1,87,127
0.09999999999999432,4450,2,87,127
0.10000000000000853,4450,3,87,127
0.10000000000000853,4450,4,87,119
0.09999999999999432,4450,5,87,127
0.10000000000000853,4450,6,87,107
0.09999999999999432,4450,7,87,127
0.10000000000000853,4450,8,87,119
0.09999999999999432,4450,9,87,127
0.09999999999999432,4450,10,87,116
0.09999999999999432,4450,11,87,120
0.09999999999999432,4450,12,87,127
0.10000000000000853,4450,13,87,109
0.09999999999999432,4450,14,87,114
0.09999999999999432,4450,15,87,114
0.09999999999999432,4451,0,87,107
0.09999999999999432,4451,1,87,123
0.10000000000000853,4451,2,87,127
0.09999999999999432,4451,3,87,122
0.10000000000000853,4451,4,87,88
0.10000000000000853,4451,5,87,111
0.09999999999999432,4451,6,87,121
0.10000000000000853,4451,7,87,113
0.09999999999999432,4451,8,87,97
0.10000000000002274,4451,9,87,29
0.10000000000002274,4451,10,87,114
0.09999999999999432,4451,11,87,26
0.09999999999999432,4451,12,87,109
0.10000000000002274,4451,13,87,24
0.09999999999999432,4451,14,87,115
0.09999999999999432,4451,15,87,23
0.10000000000002274,4452,0,87,117
0.09999999999999432,4452,1,87,23
0.09999999999999432,4452,2,87,125
0.09999999999999432,4452,3,87,24
0.09999999999999432,4452,4,87,125
0.09999999999999432,4452,5,87,22
0.09999999999999432,4452,6,87,127
0.09999999999999432,4452,7,87,21
0.09999999999999432,4452,8,87,127
0.09999999999999432,4452,9,87,22
0.09999999999999432,4452,10,87,124
0.09999999999999432,4452,11,87,23
0.09999999999999432,4452,12,87,107
0.09999999999999432,4452,13,87,25
0.09999999999999432,4452,14,87,109
0.09999999999999432,4452,15,87,20
0.09999999999999432,4453,0,87,114
0.09999999999999432,4453,1,87,26
0.09999999999999432,4453,2,87,115
0.09999999999999432,4453,3,87,14
0.09999999999999432,4453,4,87,112
0.10000000000002274,4453,5,87,23
0.09999999999999432,4453,6,87,106
0.09999999999999432,4453,7,87,22
0.10000000000002274,4453,8,87,111
0.09999999999999432,4453,9,87,21
0.09999999999999432,4453,10,87,119
0.10000000000002274,4453,11,87,23
0.09999999999999432,4453,12,87,110
0.09999999999999432,4453,13,87,27
0.10000000000002274,4453,14,87,114
0.09999999999999432,4453,15,87,24
0.09999999999999432,4454,0,87,102
0.09999999999999432,4454,1,87,9
0.09999999999999432,4454,2,87,114
0.09999999999999432,4454,3,87,19
0.09999999999999432,4454,4,87,102
0.09999999999999432,4454,5,87,23
0.10000000000002274,4454,6,87,119
0.09999999999999432,4454,7,87,28
0.09999999999999432,4454,8,87,117
0.10000000000002274,4454,9,87,23
0.09999999999999432,4454,10,87,111
0.09999999999999432,4454,11,87,18
0.10000000000002274,4454,12,87,111
0.09999999999999432,4454,13,87,23
0.09999999999999432,4454,14,87,105
0.09999999999999432,4454,15,87,22
0.09999999999999432,4455,0,87,110
0.10000000000002274,4455,1,87,22
0.09999999999999432,4455,2,87,109
0.09999999999999432,4455,3,87,20
0.10000000000002274,4455,4,87,123
0.09999999999999432,4455,5,87,25
0.09999999999999432,4455,6,87,127
0.10000000000002274,4455,7,87,22
0.09999999999999432,4455,8,87,118
0.09999999999999432,4455,9,87,23
0.09999999999999432,4455,10,87,122
0.09999999999999432,4455,11,87,23
0.09999999999999432,4455,12,87,103
0.09999999999999432,4455,13,87,20
0.09999999999999432,4455,14,87,80
0.09999999999999432,4455,15,87,19
0.09999999999999432,4456,0,87,97
0.10000000000002274,4456,1,87,18
0.09999999999999432,4456,2,87,89
0.09999999999999432,4456,3,87,15
0.10000000000002274,4456,4,87,110
0.09999999999999432,4456,5,87,17
0.09999999999999432,4456,6,87,101
0.10000000000002274,4456,7,87,19
0.09999999999999432,4456,8,87,110
0.09999999999999432,4456,9,87,20
0.09999999999999432,4456,10,87,104
0.09999999999999432,4456,11,87,20
0.10000000000002274,4456,12,87,105
0.09999999999999432,4456,13,87,21
0.09999999999999432,4456,14,87,96
0.10000000000002274,4456,15,87,17
0.09999999999999432,4457,0,87,62
0.09999999999999432,4457,1,87,15
0.10000000000002274,4457,2,87,101
0.09999999999999432,4457,3,87,17
0.09999999999999432,4457,4,87,108
0.10000000000002274,4457,5,87,17
0.09999999999999432,4457,6,87,95
0.09999999999999432,4457,7,87,19
0.09999999999999432,4457,8,87,96
0.09999999999999432,4457,9,87,16
0.10000000000002274,4457,10,87,97
0.09999999999999432,4457,11,87,16
0.10000000000002274,4457,12,87,110
0.10000000000002274,4457,13,87,19
0.09999999999999432,4457,14,87,90
0.09999999999999432,4457,15,87,20
0.10000000000002274,4458,0,87,93
0.09999999999999432,4458,1,87,15
0.09999999999999432,4458,2,87,97
0.09999999999999432,4458,3,87,21
0.09999999999999432,4458,4,87,97
0.09999999999999432,4458,5,87,14
0.09999999999999432,4458,6,87,91
0.09999999999999432,4458,7,87,21
0.09999999999999432,4458,8,87,122
0.09999999999999432,4458,9,87,19
0.10000000000002274,4458,10,87,97
0.09999999999999432,4458,11,87,12
0.09999999999999432,4458,12,87,93
0.10000000000002274,4458,13,87,21
0.09999999999999432,4458,14,87,104
0.09999999999999432,4458,15,87,16
0.10000000000002274,4459,0,87,121
0.09999999999999432,4459,1,87,16
0.09999999999999432,4459,2,87,97
0.09999999999999432,4459,3,87,18
0.09999999999999432,4459,4,87,97
0.10000000000002274,4459,5,87,16
0.09999999999999432,4459,6,87,104
0.09999999999999432,4459,7,87,17
0.09999999999999432,4459,8,87,112
0.09999999999999432,4459,9,87,2
0.09999999999999432,4459,10,87,108
0.10000000000002274,4459,11,87,103
0.09999999999999432,4459,12,87,100
0.09999999999999432,4459,13,87,118
0.10000000000000142,4459,14,65,9
0.10000000000000142,4459,15,65,40
0.10000000000000142,4460,0,65,28
0.10000000000000142,4460,1,65,24
0.10000000000000142,4460,2,65,20
0.10000000000000142,4460,3,65,13
0.10000000000000142,4460,4,65,20
0.10000000000000142,4460,5,65,25
0.10000000000000142,4460,6,65,29
0.10000000000000142,4460,7,65,20
0.10000000000000142,4460,8,65,12
0.10000000000000142,4460,9,65,14
0.09999999999999432,4460,10,65,38
0.10000000000000142,4460,11,65,37
0.10000000000000142,4460,12,65,13
0.10000000000000142,4460,13,65,15
0.10000000000000142,4460,14,65,26
0.09999999999999432,4460,15,65,21
0.09999999999999432,4461,0,65,30
0.10000000000000853,4461,1,65,23
0.10000000000000853,4461,2,65,13
0.09999999999999432,4461,3,65,19
0.09999999999999432,4461,4,65,15
0.09999999999999432,4461,5,65,6
0.10000000000000853,4461,6,65,1
0.09999999999999432,4461,7,65,3
0.09999999999999432,4461,8,65,7
0.09999999999999432,4461,9,65,11
0.10000000000000853,4461,10,65,8
0.09999999999999432,4461,11,65,7
0.09999999999999432,4461,12,65,26
0.09999999999999432,4461,13,65,4
0.10000000000000853,4461,14,65,17
0.10000000000000853,4461,15,65,21
0.10000000000000853,4462,0,65,6
0.10000000000000853,4462,1,65,13
0.09999999999999432,4462,2,65,2
0.10000000000000853,4462,3,65,11
0.09999999999999432,4462,4,65,11
0.09999999999999432,4462,5,65,7
0.10000000000000853,4462,6,65,6
0.10000000000000853,4462,7,65,19
0.10000000000000853,4462,8,65,15
0.10000000000000853,4462,9,65,15
0.10000000000000853,4462,10,65,18
0.09999999999999432,4462,11,65,17
0.09999999999999432,4462,12,65,12
0.10000000000000853,4462,13,65,8
0.10000000000000853,4462,14,65,18
0.10000000000000853,4462,15,65,2
0.09999999999999432,4463,0,65,1
0.09999999999999432,4463,1,65,1
0.09999999999999432,4463,2,65,1
0.10000000000000853,4463,3,65,1
0.10000000000000853,4463,4,65,1
0.10000000000000853,4463,5,65,3
0.09999999999999432,4463,6,65,5
0.10000000000000853,4463,7,65,1
0.10000000000000853,4463,8,65,1
0.09999999999999432,4463,9,65,1
0.10000000000000853,4463,10,65,1
0.09999999999999432,4463,11,65,1
0.09999999999999432,4463,12,65,1
0.09999999999999432,4463,13,65,1
0.09999999999999432,4463,14,65,1
0.09999999999999432,4463,15,65,1
0.09999999999999432,4464,0,65,1
0.09999999999999432,4464,1,65,1
0.10000000000000853,4464,2,65,1
0.10000000000000853,4464,3,65,1
0.10000000000000853,4464,4,65,1
0.09999999999999432,4464,5,65,1
0.10000000000000853,4464,6,65,1
0.09999999999999432,4464,7,65,1
0.09999999999999432,4464,8,65,1
0.09999999999999432,4464,9,65,7
0.09999999999999432,4464,10,65,1
0.09999999999999432,4464,11,65,1
0.10000000000000853,4464,12,65,1
0.09999999999999432,4464,13,65,5
0.09999999999999432,4464,14,65,1
0.09999999999999432,4464,15,65,1
0.09999999999999432,4465,0,65,1
0.09999999999999432,4465,1,65,1
0.10000000000000853,4465,2,65,1
0.10000000000000853,4465,3,65,1
0.09999999999999432,4465,4,65,1
0.09999999999999432,4465,5,65,1
0.10000000000000853,4465,6,65,1
0.09999999999999432,4465,7,65,1
0.09999999999999432,4465,8,65,1
0.09999999999999432,4465,9,65,1
0.09999999999999432,4465,10,65,1
0.09999999999999432,4465,11,65,1
0.09999999999999432,4465,12,65,6
0.10000000000000853,4465,13,65,1
0.09999999999999432,4465,14,65,1
0.09999999999999432,4465,15,65,3
0.09999999999999432,4466,0,65,1
0.10000000000000853,4466,1,65,1
0.09999999999999432,4466,2,65,1
0.09999999999999432,4466,3,65,1
0.09999999999999432,4466,4,65,1
0.09999999999999432,4466,5,65,1
0.10000000000000853,4466,6,65,3
0.09999999999999432,4466,7,65,1
0.10000000000000853,4466,8,65,1
0.10000000000000853,4466,9,65,4
0.09999999999999432,4466,10,65,3
0.10000000000000853,4466,11,65,1
0.09999999999999432,4466,12,65,6
0.10000000000000853,4466,13,65,3
0.09999999999999998,4466,14,59,19
0.036363636363636376,4466,15,59,84
0.09999999999999998,4467,0,59,107
0.10000000000000009,4467,1,59,103
0.10000000000000009,4467,2,59,76
0.09999999999999987,4467,3,59,52
0.10000000000000009,4467,4,59,91
0.10000000000000009,4467,5,59,89
0.09999999999999987,4467,6,59,63
0.10000000000000009,4467,7,59,73
0.10000000000000009,4467,8,59,75
0.09999999999999964,4467,9,59,61
0.09999999999999964,4467,10,59,63
0.09999999999999964,4467,11,59,69
0.10000000000000009,4467,12,59,75
0.10000000000000009,4467,13,59,64
0.10000000000000009,4467,14,59,71
0.10000000000000053,4467,15,59,72
0.09999999999999964,4468,0,59,46
0.10000000000000053,4468,1,59,28
0.09999999999999964,4468,2,59,64
0.10000000000000053,4468,3,59,67
0.10000000000000053,4468,4,59,55
0.09999999999999964,4468,5,59,56
0.09999999999999964,4468,6,59,68
0.10000000000000053,4468,7,59,83
0.10000000000000053,4468,8,59,48
0.09999999999999964,4468,9,59,44
0.10000000000000053,4468,10,59,59
0.09999999999999964,4468,11,59,40
0.09999999999999964,4468,12,59,36
0.09999999999999964,4468,13,59,37
0.10000000000000053,4468,14,59,54
0.09999999999999964,4468,15,59,53
0.09999999999999964,4469,0,59,32
0.09999999999999964,4469,1,59,41
0.09999999999999964,4469,2,59,63
0.09999999999999964,4469,3,59,24
0.09999999999999964,4469,4,59,48
0.09999999999999964,4469,5,59,38
0.09999999999999964,4469,6,59,43
0.09999999999999964,4469,7,59,34
0.09999999999999964,4469,8,59,34
0.09999999999999964,4469,9,59,23
0.10000000000000142,4469,10,59,44
0.09999999999999964,4469,11,59,35
0.09999999999999964,4469,12,59,46
0.09999999999999964,4469,13,59,55
0.09999999999999964,4469,14,59,36
0.09999999999999964,4469,15,59,45
0.09999999999999964,4470,0,59,44
0.09999999999999964,4470,1,59,34
0.09999999999999964,4470,2,59,32
0.09999999999999964,4470,3,59,26
0.09999999999999964,4470,4,59,66
0.09999999999999964,4470,5,59,70
0.09999999999999964,4470,6,59,63
0.09999999999999964,4470,7,59,56
0.09999999999999964,4470,8,59,29
0.09999999999999964,4470,9,59,36
0.09999999999999964,4470,10,59,59
0.09999999999999964,4470,11,59,46
0.10000000000000142,4470,12,59,23
0.09999999999999964,4470,13,59,48
0.09999999999999964,4470,14,59,37
0.09999999999999964,4470,15,59,71
0.10000000000000142,4471,0,59,53
0.10000000000000142,4471,1,59,51
0.09999999999999787,4471,2,59,36
0.10000000000000142,4471,3,59,41
0.10000000000000142,4471,4,59,44
0.09999999999999787,4471,5,59,32
0.10000000000000142,4471,6,59,43
0.09999999999999787,4471,7,59,29
0.10000000000000142,4471,8,59,35
0.09999999999999787,4471,9,59,24
0.036363636363635266,4471,10,59,60
0.10000000000000142,4471,11,59,37
0.10000000000000142,4471,12,59,35
0.10000000000000142,4471,13,59,34
0.10000000000000142,4471,14,59,44
0.10000000000000142,4471,15,59,34
0.09999999999999787,4472,0,59,48
0.09999999999999787,4472,1,59,39
0.09999999999999787,4472,2,59,41
0.09999999999999787,4472,3,59,39
0.013636363636361892,4472,4,59,52
0.10000000000000142,4472,5,59,63
0.10000000000000142,4472,6,59,51
0.10000000000000142,4472,7,59,34
0.10000000000000142,4472,8,59,26
0.10000000000000142,4472,9,59,73
0.09999999999999787,4472,10,59,58
0.10000000000000142,4472,11,59,82
0.09999999999999787,4472,12,59,62
0.10000000000000142,4472,13,59,38
0.10000000000000142,4472,14,59,48
0.10000000000000142,4472,15,59,59
0.10000000000000142,4473,0,59,51
0.09999999999999787,4473,1,59,76
0.10000000000000142,4473,2,59,74
0.09999999999999787,4473,3,59,59
0.10000000000000142,4473,4,59,44
0.06818181818182012,4473,5,59,47
0.09999999999999787,4473,6,59,46
0.09999999999999787,4473,7,59,39
0.09999999999999787,4473,8,59,47
0.10000000000000142,4473,9,59,49
0.10000000000000142,4473,10,59,63
0.09999999999999787,4473,11,59,46
0.10000000000000142,4473,12,59,55
0.09999999999999787,4473,13,59,72
0.10000000000000142,4473,14,59,64
0.10000000000000142,4473,15,59,65
0.10000000000000142,4474,0,59,57
0.10000000000000142,4474,1,59,47
0.09999999999999787,4474,2,59,51
0.09999999999999787,4474,3,59,44
0.09999999999999787,4474,4,59,77
0.09999999999999787,4474,5,59,47
0.10000000000000142,4474,6,59,79
0.09999999999999787,4474,7,59,77
0.09999999999999787,4474,8,59,51
0.10000000000000142,4474,9,59,44
0.09999999999999787,4474,10,59,38
0.10000000000000142,4474,11,59,51
0.09999999999999787,4474,12,59,78
0.09999999999999787,4474,13,59,64
0.09999999999999787,4474,14,59,76
0.09999999999999787,4474,15,59,51
0.10000000000000142,4475,0,59,27
0.10000000000000142,4475,1,59,65
0.10000000000000142,4475,2,59,49
0.10000000000000142,4475,3,59,34
0.10000000000000142,4475,4,59,47
0.10000000000000142,4475,5,59,40
0.06818181818182012,4475,6,59,49
0.10000000000000142,4475,7,59,92
0.10000000000000142,4475,8,59,90
0.06818181818182012,4475,9,59,89
0.10000000000000142,4475,10,59,62
0.10000000000000142,4475,11,59,71
0.09999999999999432,4475,12,59,44
0.10000000000000142,4475,13,59,56
0.10000000000000142,4475,14,59,72
0.09999999999999432,4475,15,59,40
0.09999999999999432,4476,0,59,27
0.10000000000000142,4476,1,59,47
0.09999999999999432,4476,2,59,28
0.10000000000000142,4476,3,59,27
0.09999999999999432,4476,4,59,47
0.09999999999999432,4476,5,59,52
0.09999999999999432,4476,6,59,49
0.10000000000000142,4476,7,59,35
0.10000000000000142,4476,8,59,40
0.10000000000000142,4476,9,59,64
0.10000000000000142,4476,10,59,42
0.09999999999999432,4476,11,59,37
0.10000000000000142,4476,12,59,24
0.10000000000000142,4476,13,59,25
0.09999999999999432,4476,14,59,52
0.09999999999999432,4476,15,59,16
0.004545454545450411,4477,0,59,34
0.10000000000000142,4477,1,59,54
0.10000000000000142,4477,2,59,40
0.10000000000000142,4477,3,59,54
0.09999999999999432,4477,4,59,36
0.10000000000000142,4477,5,59,38
0.09999999999999432,4477,6,59,30
0.10000000000000142,4477,7,59,25
0.10000000000000142,4477,8,59,38
0.10000000000000142,4477,9,59,50
0.10000000000000142,4477,10,59,29
0.10000000000000142,4477,11,59,39
0.10000000000000142,4477,12,59,25
0.10000000000000142,4477,13,59,19
0.10000000000000142,4477,14,59,61
0.10000000000000142,4477,15,59,24
0.10000000000000142,4478,0,59,37
0.10000000000000142,4478,1,59,36
0.10000000000000142,4478,2,59,39
0.09999999999999432,4478,3,59,35
0.06818181818181301,4478,4,59,46
0.10000000000000142,4478,5,59,59
0.09999999999999432,4478,6,59,22
0.01590909090909065,4478,7,59,43
0.10000000000000142,4478,8,59,58
0.10000000000000142,4478,9,59,31
0.09999999999999432,4478,10,59,35
0.10000000000000142,4478,11,59,38
0.10000000000000142,4478,12,59,40
0.10000000000000142,4478,13,59,49
0.10000000000000142,4478,14,59,27
0.10000000000000142,4478,15,59,25
0.09999999999999432,4479,0,59,24
0.10000000000000142,4479,1,59,57
0.10000000000000142,4479,2,59,43
0.10000000000000142,4479,3,59,29
0.10000000000000142,4479,4,59,47
0.09999999999999432,4479,5,59,27
0.10000000000000142,4479,6,59,50
0.10000000000000142,4479,7,59,68
0.10000000000000142,4479,8,59,54
0.10000000000000142,4479,9,59,43
0.10000000000000142,4479,10,59,26
0.09999999999999432,4479,11,59,28
0.10000000000000142,4479,12,59,81
0.10000000000000142,4479,13,59,38
0.10000000000000142,4479,14,59,38
0.10000000000000142,4479,15,59,47
0.10000000000000142,4480,0,59,66
0.10000000000000142,4480,1,59,42
0.09999999999999432,4480,2,59,37
0.10000000000000142,4480,3,59,28
0.10000000000000142,4480,4,59,34
0.10000000000000142,4480,5,59,41
0.10000000000000142,4480,6,59,27
0.09999999999999432,4480,7,59,41
0.09999999999999432,4480,8,59,48
0.09999999999999432,4480,9,59,30
0.10000000000000142,4480,10,59,47
0.09999999999999432,4480,11,59,78
0.10000000000000142,4480,12,59,32
0.10000000000000142,4480,13,59,54
0.10000000000000142,4480,14,59,30
0.10000000000000142,4480,15,59,32
0.09999999999999432,4481,0,59,39
0.10000000000000142,4481,1,59,23
0.02499999999999858,4481,2,59,68
0.10000000000000142,4481,3,59,84
0.10000000000000142,4481,4,59,48
0.10000000000000142,4481,5,59,55
0.10000000000000142,4481,6,59,74
0.10000000000000142,4481,7,59,39
0.10000000000000142,4481,8,59,27
0.09999999999999432,4481,9,59,45
0.10000000000000142,4481,10,59,34
0.09999999999999432,4481,11,59,31
0.10000000000000142,4481,12,59,49
0.10000000000000142,4481,13,59,48
0.10000000000000142,4481,14,59,57
0.10000000000000142,4481,15,59,38
0.09999999999999432,4482,0,59,41
0.10000000000000142,4482,1,59,62
0.10000000000000142,4482,2,59,43
0.10000000000000142,4482,3,59,57
0.10000000000000142,4482,4,59,27
0.10000000000000142,4482,5,59,44
0.10000000000000142,4482,6,59,56
0.10000000000000142,4482,7,59,22
0.004545454545457517,4482,8,59,36
0.10000000000000142,4482,9,59,61
0.10000000000000142,4482,10,59,50
0.10000000000000142,4482,11,59,53
0.10000000000000142,4482,12,59,49
0.10000000000000142,4482,13,59,41
0.09999999999999432,4482,14,59,38
0.10000000000000142,4482,15,59,18
0.10000000000000142,4483,0,59,67
0.09999999999999432,4483,1,59,29
0.10000000000000142,4483,2,59,37
0.09999999999999432,4483,3,59,16
0.09999999999999432,4483,4,59,23
0.09999999999999432,4483,5,59,35
0.10000000000000142,4483,6,59,25
0.09999999999999432,4483,7,59,32
0.10000000000000142,4483,8,59,39
0.10000000000000142,4483,9,59,34
0.10000000000000142,4483,10,59,30
0.10000000000000142,4483,11,59,49
0.09999999999999432,4483,12,59,23
0.10000000000000142,4483,13,59,42
0.09999999999999432,4483,14,59,29
0.10000000000000853,4483,15,59,43
0.09999999999999432,4484,0,59,58
0.09999999999999432,4484,1,59,42
0.09999999999999432,4484,2,59,63
0.09999999999999432,4484,3,59,29
0.09999999999999432,4484,4,59,36
0.10000000000000853,4484,5,59,50
0.09999999999999432,4484,6,59,29
0.09999999999999432,4484,7,59,52
0.09999999999999432,4484,8,59,29
0.09999999999999432,4484,9,59,41
0.09999999999999432,4484,10,59,45
0.09999999999999432,4484,11,59,25
0.10000000000000853,4484,12,59,72
0.10000000000000853,4484,13,59,65
0.10000000000000853,4484,14,59,42
0.09999999999999432,4484,15,59,38
0.09999999999999432,4485,0,59,54
0.09999999999999432,4485,1,59,25
0.10000000000000853,4485,2,59,39
0.10000000000000853,4485,3,59,33
0.09999999999999432,4485,4,59,42
0.10000000000000853,4485,5,59,56
0.09999999999999432,4485,6,59,48
0.09999999999999432,4485,7,59,43
0.10000000000000853,4485,8,59,62
0.10000000000000853,4485,9,59,69
0.09999999999999432,4485,10,59,33
0.10000000000000853,4485,11,59,42
0.10000000000000853,4485,12,59,30
0.09999999999999432,4485,13,59,35
0.10000000000000853,4485,14,59,19
0.09999999999999432,4485,15,59,31
0.09999999999999432,4486,0,59,44
0.09999999999999432,4486,1,59,34
0.09999999999999432,4486,2,59,6
0.09999999999999432,4486,3,59,65
0.10000000000000853,4486,4,59,59
0.10000000000000853,4486,5,59,41
0.09999999999999432,4486,6,59,38
0.09999999999999432,4486,7,59,32
0.10000000000000853,4486,8,59,42
0.10000000000000853,4486,9,59,51
0.09999999999999432,4486,10,59,8
0.10000000000000853,4486,11,59,54
0.09999999999999432,4486,12,59,47
0.09999999999999432,4486,13,59,45
0.10000000000000853,4486,14,59,61
0.10000000000000853,4486,15,59,46
0.09999999999999432,4487,0,59,40
0.09999999999999432,4487,1,59,50
0.09999999999999432,4487,2,59,51
0.10000000000000853,4487,3,59,43
0.09999999999999432,4487,4,59,42
0.09999999999999432,4487,5,59,30
0.10000000000000853,4487,6,59,7
0.10000000000000853,4487,7,59,34
0.09999999999999432,4487,8,59,66
0.09999999999999432,4487,9,59,46
0.10000000000000853,4487,10,59,71
0.10000000000000853,4487,11,59,54
0.09999999999999432,4487,12,59,54
0.09999999999999432,4487,13,59,66
0.06818181818181301,4487,14,59,55
0.09999999999999432,4487,15,59,50
0.09999999999999432,4488,0,59,59
0.09999999999999432,4488,1,59,58
0.10000000000000853,4488,2,59,49
0.10000000000000853,4488,3,59,48
0.10000000000000853,4488,4,59,31
0.10000000000000853,4488,5,59,54
0.05909090909091219,4488,6,59,74
0.10000000000000853,4488,7,59,38
0.09999999999999432,4488,8,59,42
0.09999999999999432,4488,9,59,50
0.09999999999999432,4488,10,59,45
0.09999999999999432,4488,11,59,17
0.09999999999999432,4488,12,59,38
0.10000000000000853,4488,13,59,54
0.09999999999999432,4488,14,59,48
0.10000000000000853,4488,15,59,58
0.09999999999999432,4489,0,59,27
0.10000000000000853,4489,1,59,38
0.09999999999999432,4489,2,59,50
0.09999999999999432,4489,3,59,66
0.10000000000000853,4489,4,59,55
0.10000000000000853,4489,5,59,49
0.09999999999999432,4489,6,59,62
0.10000000000000853,4489,7,59,43
0.09999999999999432,4489,8,59,42
0.10000000000000853,4489,9,59,45
0.09999999999999432,4489,10,59,25
0.09999999999999432,4489,11,59,48
0.09999999999999432,4489,12,59,68
0.09999999999999432,4489,13,59,47
0.10000000000000853,4489,14,59,49
0.06818181818182723,4489,15,59,65
0.10000000000000853,4490,0,59,31
0.10000000000000853,4490,1,59,41
0.09999999999999432,4490,2,59,8
0.025000000000005684,4490,3,59,93
0.09999999999999432,4490,4,59,40
0.06590909090908781,4490,5,59,43
0.09999999999999432,4490,6,59,59
0.10000000000000853,4490,7,59,27
0.09999999999999432,4490,8,59,42
0.10000000000000853,4490,9,59,54
0.09999999999999432,4490,10,59,63
0.10000000000000853,4490,11,59,53
0.10000000000000853,4490,12,59,41
0.09999999999999432,4490,13,59,44
0.10000000000000853,4490,14,59,46
0.10000000000000853,4490,15,59,57
0.09999999999999432,4491,0,59,80
0.10000000000000853,4491,1,59,48
0.10000000000000853,4491,2,59,52
0.10000000000000853,4491,3,59,58
0.09999999999999432,4491,4,59,38
0.09999999999999432,4491,5,59,84
0.10000000000000853,4491,6,59,63
0.10000000000000853,4491,7,59,78
0.09999999999999432,4491,8,59,42
0.10000000000000853,4491,9,59,66
0.10000000000000853,4491,10,59,70
0.10000000000000853,4491,11,59,66
0.09999999999999432,4491,12,59,81
0.09999999999999432,4491,13,59,57
0.09999999999999432,4491,14,59,41
0.10000000000000853,4491,15,59,49
0.10000000000000853,4492,0,59,59
0.10000000000000853,4492,1,59,54
0.09999999999999432,4492,2,59,79
0.09999999999999432,4492,3,59,68
0.09999999999999432,4492,4,59,77
0.09999999999999432,4492,5,59,45
0.09999999999999432,4492,6,59,47
0.09999999999999432,4492,7,59,58
0.09999999999999432,4492,8,59,49
0.09999999999999432,4492,9,59,48
0.10000000000000853,4492,10,59,54
0.10000000000000853,4492,11,59,44
0.10000000000000853,4492,12,59,59
0.10000000000000853,4492,13,59,45
0.10000000000000853,4492,14,59,81
0.09999999999999432,4492,15,59,46
0.09999999999999432,4493,0,59,54
0.10000000000000853,4493,1,59,61
0.09999999999999432,4493,2,59,53
0.10000000000000853,4493,3,59,63
0.10000000000000853,4493,4,59,68
0.09999999999999432,4493,5,59,52
0.09999999999999432,4493,6,59,51
0.09999999999999432,4493,7,59,72
0.09999999999999432,4493,8,59,80
0.09999999999999432,4493,9,59,51
0.09999999999999432,4493,10,59,30
0.10000000000000853,4493,11,59,58
0.10000000000000853,4493,12,59,61
0.10000000000000853,4493,13,59,54
0.10000000000000853,4493,14,59,91
0.10000000000000853,4493,15,59,70
0.10000000000000853,4494,0,59,63
0.09999999999999432,4494,1,59,80
0.09999999999999432,4494,2,59,53
0.09999999999999432,4494,3,59,89
0.09999999999999432,4494,4,59,68
0.09999999999999432,4494,5,59,87
0.09999999999999432,4494,6,59,73
0.09999999999999432,4494,7,59,65
0.09999999999999432,4494,8,59,77
0.10000000000000853,4494,9,59,45
0.09999999999999432,4494,10,59,60
0.09999999999999432,4494,11,59,67
0.09999999999999432,4494,12,59,59
0.10000000000000853,4494,13,59,52
0.10000000000000853,4494,14,59,24
0.10000000000000853,4494,15,59,35
0.10000000000000853,4495,0,59,36
0.09999999999999432,4495,1,59,35
0.09999999999999432,4495,2,59,54
0.09999999999999432,4495,3,59,44
0.10000000000000853,4495,4,59,62
0.09999999999999432,4495,5,59,48
0.09999999999999432,4495,6,59,44
0.09999999999999432,4495,7,59,37
0.09999999999999432,4495,8,59,38
0.09999999999999432,4495,9,59,50
0.09999999999999432,4495,10,59,29
0.09999999999999432,4495,11,59,41
0.10000000000000853,4495,12,59,34
0.09999999999999432,4495,13,59,44
0.056818181818186986,4495,14,59,51
0.09999999999999432,4495,15,59,37
0.10000000000000853,4496,0,59,36
0.09999999999999432,4496,1,59,25
0.09999999999999432,4496,2,59,38
0.09999999999999432,4496,3,59,27
0.09999999999999432,4496,4,59,27
0.09999999999999432,4496,5,59,45
0.09999999999999432,4496,6,59,47
0.10000000000002274,4496,7,59,48
0.09999999999999432,4496,8,59,43
0.09999999999999432,4496,9,59,53
0.09999999999999432,4496,10,59,62
0.09999999999999432,4496,11,59,60
0.09999999999999432,4496,12,59,40
0.09999999999999432,4496,13,59,46
0.10000000000002274,4496,14,59,38
0.09999999999999432,4496,15,59,61
0.10000000000002274,4497,0,59,53
0.09999999999999432,4497,1,59,51
0.09999999999999432,4497,2,59,58
0.09999999999999432,4497,3,59,46
0.10000000000002274,4497,4,59,44
0.09999999999999432,4497,5,59,20
0.004545454545450411,4497,6,59,28
0.09999999999999432,4497,7,59,37
0.10000000000002274,4497,8,59,37
0.09999999999999432,4497,9,59,41
0.09999999999999432,4497,10,59,48
0.09999999999999432,4497,11,59,38
0.09999999999999432,4497,12,59,39
0.10000000000002274,4497,13,59,43
0.06818181818181301,4497,14,59,45
0.09999999999999432,4497,15,59,44
0.10000000000002274,4498,0,59,47
0.09999999999999432,4498,1,59,33
0.09999999999999432,4498,2,59,32
0.10000000000002274,4498,3,59,46
0.10000000000002274,4498,4,59,53
0.09999999999999432,4498,5,59,42
0.09999999999999432,4498,6,59,35
0.09999999999999432,4498,7,59,44
0.09999999999999432,4498,8,59,36
0.09999999999999432,4498,9,59,38
0.09999999999999432,4498,10,59,40
0.09999999999999432,4498,11,59,25
0.06818181818181301,4498,12,59,34
0.09999999999999432,4498,13,59,58
0.09999999999999432,4498,14,59,45
0.09999999999999432,4498,15,59,31
0.09999999999999432,4499,0,59,37
0.09999999999999432,4499,1,59,34
0.09999999999999432,4499,2,59,47
0.10000000000002274,4499,3,59,34
0.09999999999999432,4499,4,59,34
0.09999999999999432,4499,5,59,49
0.10000000000002274,4499,6,59,27
0.10000000000002274,4499,7,59,51
0.09999999999999432,4499,8,59,49
0.09999999999999432,4499,9,59,31
0.09999999999999432,4499,10,59,46
0.09999999999999432,4499,11,59,27
0.09999999999999432,4499,12,59,56
0.09999999999999432,4499,13,59,52
0.09999999999999432,4499,14,59,49
0.10000000000002274,4499,15,59,61
0.09999999999999432,4500,0,59,45
0.09999999999999432,4500,1,59,50
0.10000000000002274,4500,2,59,46
0.09999999999999432,4500,3,59,36
0.09999999999999432,4500,4,59,48
0.09999999999999432,4500,5,59,47
0.09999999999999432,4500,6,59,46
0.09999999999999432,4500,7,59,31
0.09999999999999432,4500,8,59,41
0.09999999999999432,4500,9,59,44
0.10000000000002274,4500,10,59,29
0.09999999999999432,4500,11,59,43
0.10000000000002274,4500,12,59,37
0.09999999999999432,4500,13,59,28
0.09999999999999432,4500,14,59,52
0.10000000000002274,4500,15,59,86
0.09999999999999432,4501,0,59,47
0.09999999999999432,4501,1,59,32
0.09999999999999432,4501,2,59,45
0.10000000000002274,4501,3,59,53
0.09999999999999432,4501,4,59,21
0.09999999999999432,4501,5,59,45
0.09999999999999432,4501,6,59,43
0.09999999999999432,4501,7,59,34
0.09999999999999432,4501,8,59,45
0.09999999999999432,4501,9,59,29
0.10000000000002274,4501,10,59,26
0.10000000000002274,4501,11,59,24
0.09999999999999432,4501,12,59,23
0.09999999999999432,4501,13,59,26
0.09999999999999432,4501,14,59,35
0.09999999999999432,4501,15,59,57
0.09999999999999432,4502,0,59,62
0.09999999999999432,4502,1,59,32
0.09999999999999432,4502,2,59,50
0.09999999999999432,4502,3,59,44
0.09999999999999432,4502,4,59,29
0.09999999999999432,4502,5,59,25
0.09999999999999432,4502,6,59,32
0.09999999999999432,4502,7,59,34
0.09999999999999432,4502,8,59,40
0.09999999999999432,4502,9,59,34
0.09999999999999432,4502,10,59,43
0.10000000000002274,4502,11,59,36
0.10000000000002274,4502,12,59,36
0.09999999999999432,4502,13,59,38
0.09999999999999432,4502,14,59,35
0.09999999999999432,4502,15,59,27
0.09999999999999432,4503,0,59,23
0.09999999999999432,4503,1,59,41
0.09999999999999432,4503,2,59,47
0.09999999999999432,4503,3,59,45
0.09999999999999432,4503,4,59,44
0.09999999999999432,4503,5,59,23
0.09999999999999432,4503,6,59,34
0.09999999999999432,4503,7,59,29
0.10000000000002274,4503,8,59,27
0.09999999999999432,4503,9,59,29
0.09999999999999432,4503,10,59,23
0.09999999999999432,4503,11,59,53
0.09999999999999432,4503,12,59,52
0.09999999999999432,4503,13,59,45
0.09999999999999432,4503,14,59,45
0.10000000000002274,4503,15,59,34
0.10000000000002274,4504,0,59,35
0.09999999999999432,4504,1,59,53
0.09999999999999432,4504,2,59,43
0.09999999999999432,4504,3,59,43
0.10000000000002274,4504,4,59,41
0.09999999999999432,4504,5,59,40
0.09999999999999432,4504,6,59,35
0.10000000000002274,4504,7,59,42
0.09999999999999432,4504,8,59,47
0.09999999999999432,4504,9,59,41
0.10000000000002274,4504,10,59,34
0.09999999999999432,4504,11,59,32
0.09999999999999432,4504,12,59,49
0.10000000000002274,4504,13,59,48
0.10000000000002274,4504,14,59,46
0.09999999999999432,4504,15,59,39
0.09999999999999432,4505,0,59,20
0.10000000000002274,4505,1,59,60
0.09999999999999432,4505,2,59,43
0.09999999999999432,4505,3,59,33
0.09999999999999432,4505,4,59,25
0.024999999999977263,4505,5,59,42
0.09999999999999432,4505,6,59,39
0.09999999999999432,4505,7,59,52
0.09999999999999432,4505,8,59,28
0.09999999999999432,4505,9,59,35
0.09999999999999432,4505,10,59,33
0.09999999999999432,4505,11,59,38
0.09999999999999432,4505,12,59,53
0.09999999999999432,4505,13,59,8
0.09999999999999432,4505,14,59,23
0.09999999999999432,4505,15,59,36
0.09999999999999432,4506,0,59,40
0.09999999999999432,4506,1,59,44
0.10000000000002274,4506,2,59,56
0.09999999999999432,4506,3,59,26
0.10000000000002274,4506,4,59,1
0.09999999999999432,4506,5,59,43
0.09999999999999432,4506,6,59,37
0.09999999999999432,4506,7,59,4
0.10000000000002274,4506,8,59,35
0.056818181818186986,4506,9,59,53
0.09999999999999432,4506,10,59,49
0.056818181818186986,4506,11,59,45
0.10000000000002274,4506,12,59,24
0.09999999999999432,4506,13,59,53
0.09999999999999432,4506,14,59,32
0.09999999999999432,4506,15,59,63
0.10000000000002274,4507,0,59,13
0.09999999999999432,4507,1,59,42
0.10000000000002274,4507,2,59,74
0.09999999999999432,4507,3,59,52
0.10000000000002274,4507,4,59,60
0.09999999999999432,4507,5,59,42
0.09999999999999432,4507,6,59,58
0.09999999999999432,4507,7,59,71
0.09999999999999432,4507,8,59,88
0.09999999999999432,4507,9,59,57
0.09999999999999432,4507,10,59,55
0.09999999999999432,4507,11,59,39
0.09999999999999432,4507,12,59,35
0.02727272727273089,4507,13,59,65
0.09999999999999432,4507,14,59,47
0.09999999999999432,4507,15,59,47
0.10000000000002274,4508,0,59,29
0.09999999999999432,4508,1,64,31
0.10000000000000142,4508,2,64,39
0.10000000000000142,4508,3,64,1
0.10000000000000142,4508,4,64,1
0.10000000000000142,4508,5,64,26
0.10000000000000142,4508,6,64,7
0.10000000000000853,4508,7,64,18
0.09999999999999432,4508,8,64,18
0.09999999999999432,4508,9,64,12
0.09999999999999432,4508,10,64,36
0.10000000000000853,4508,11,64,37
0.10000000000000853,4508,12,64,23
0.10000000000000853,4508,13,64,28
0.09999999999999432,4508,14,64,37
0.10000000000000853,4508,15,64,35
0.09999999999999432,4509,0,64,31
0.10000000000000853,4509,1,64,27
0.10000000000000853,4509,2,64,2
0.09999999999999432,4509,3,64,7
0.09999999999999432,4509,4,64,11
0.09999999999999432,4509,5,64,10
0.09999999999999432,4509,6,64,6
0.09999999999999432,4509,7,64,9
0.09999999999999432,4509,8,64,2
0.10000000000000853,4509,9,64,2
0.09999999999999432,4509,10,64,16
0.10000000000000853,4509,11,64,18
0.09999999999999432,4509,12,64,9
0.09999999999999432,4509,13,64,5
0.10000000000000853,4509,14,64,2
0.09999999999999432,4509,15,64,4
0.10000000000000853,4510,0,64,6
0.09999999999999432,4510,1,64,1
0.10000000000000853,4510,2,64,1
0.10000000000000853,4510,3,64,5
0.10000000000000853,4510,4,64,2
0.10000000000000853,4510,5,64,9
0.09999999999999432,4510,6,64,8
0.09999999999999432,4510,7,64,8
0.09999999999999432,4510,8,64,9
0.10000000000000853,4510,9,64,4
0.09999999999999432,4510,10,64,2
0.10000000000000853,4510,11,64,6
0.09999999999999432,4510,12,64,1
0.09999999999999432,4510,13,64,22
0.10000000000000853,4510,14,64,20
0.09999999999999432,4510,15,64,7
0.10000000000000853,4511,0,64,9
0.10000000000000853,4511,1,64,6
0.09999999999999432,4511,2,64,6
0.10000000000000853,4511,3,64,10
0.09999999999999432,4511,4,64,3
0.09999999999999432,4511,5,64,14
0.10000000000000853,4511,6,64,18
0.10000000000000853,4511,7,64,26
0.10000000000000853,4511,8,64,21
0.09999999999999432,4511,9,64,40
0.09999999999999432,4511,10,64,40
0.09999999999999432,4511,11,64,54
0.10000000000000853,4511,12,64,46
0.10000000000000853,4511,13,64,29
0.10000000000000853,4511,14,64,34
0.10000000000000853,4511,15,64,47
0.09999999999999432,4512,0,64,25
0.09999999999999432,4512,1,64,19
0.10000000000000853,4512,2,64,11
0.09999999999999432,4512,3,64,12
0.09999999999999432,4512,4,64,42
0.09999999999999432,4512,5,64,28
0.10000000000000853,4512,6,64,33
0.10000000000000853,4512,7,64,25
0.09999999999999432,4512,8,64,9
0.10000000000000853,4512,9,64,6
0.09999999999999432,4512,10,64,15
0.09999999999999432,4512,11,64,23
0.09999999999999432,4512,12,64,27
0.09999999999999432,4512,13,64,2
0.09999999999999432,4512,14,64,9
0.09999999999999432,4512,15,64,10
0.10000000000000853,4513,0,64,16
0.10000000000000853,4513,1,64,16
0.10000000000000853,4513,2,64,11
0.09999999999999432,4513,3,64,18
0.10000000000000853,4513,4,64,9
0.10000000000000853,4513,5,64,1
0.10000000000000853,4513,6,64,12
0.10000000000000853,4513,7,64,1
0.10000000000000853,4513,8,64,12
0.09999999999999432,4513,9,64,12
0.09999999999999432,4513,10,64,7
0.09999999999999432,4513,11,64,13
0.09999999999999432,4513,12,64,12
0.09999999999999432,4513,13,64,9
0.09999999999999432,4513,14,64,21
0.09999999999999432,4513,15,64,2
0.09999999999999432,4514,0,64,10
0.10000000000000853,4514,1,64,5
0.09999999999999432,4514,2,64,2
0.09999999999999432,4514,3,64,7
0.10000000000000853,4514,4,64,9
0.09999999999999432,4514,5,64,1
0.10000000000000853,4514,6,64,2
0.10000000000000853,4514,7,64,16
0.09999999999999432,4514,8,64,9
0.10000000000000853,4514,9,64,12
0.10000000000000853,4514,10,64,4
0.09999999999999432,4514,11,64,30
0.09999999999999432,4514,12,64,12
0.10000000000000853,4514,13,64,6
0.09999999999999432,4514,14,64,12
0.10000000000000853,4514,15,64,23
0.10000000000000853,4515,0,64,24
0.09999999999999432,4515,1,64,5
0.09999999999999432,4515,2,64,9
0.10000000000000853,4515,3,64,27
0.09999999999999432,4515,4,64,12
0.09999999999999432,4515,5,64,24
0.09999999999999432,4515,6,64,18
0.10000000000000853,4515,7,64,18
0.10000000000000853,4515,8,64,25
0.10000000000000853,4515,9,64,9
0.10000000000000853,4515,10,64,24
0.09999999999999432,4515,11,64,16
0.09999999999999432,4515,12,64,23
0.09999999999999432,4515,13,64,28
0.09999999999999432,4515,14,64,12
0.10000000000000853,4515,15,64,6
0.09999999999999432,4516,0,64,17
0.09999999999999432,4516,1,64,13
0.09999999999999432,4516,2,64,10
0.09999999999999432,4516,3,64,2
0.09999999999999432,4516,4,64,20
0.09999999999999432,4516,5,64,9
0.09999999999999432,4516,6,64,25
0.10000000000002274,4516,7,64,11
0.09999999999999432,4516,8,64,29
0.09999999999999432,4516,9,64,17
0.09999999999999432,4516,10,64,17
0.09999999999999432,4516,11,64,19
0.09999999999999432,4516,12,64,18
0.09999999999999432,4516,13,64,19
0.10000000000002274,4516,14,64,11
0.09999999999999432,4516,15,64,21
0.09999999999999432,4517,0,64,10
0.10000000000002274,4517,1,64,13
0.09999999999999432,4517,2,64,17
0.09999999999999432,4517,3,64,27
0.10000000000002274,4517,4,64,11
0.09999999999999432,4517,5,64,24
0.10000000000002274,4517,6,64,17
0.09999999999999432,4517,7,64,28
0.09999999999999432,4517,8,64,8
0.09999999999999432,4517,9,64,6
0.09999999999999432,4517,10,64,16
0.09999999999999432,4517,11,64,13
0.10000000000002274,4517,12,64,8
0.09999999999999432,4517,13,64,7
0.10000000000002274,4517,14,64,16
0.09999999999999432,4517,15,64,13
0.09999999999999432,4518,0,64,20
0.09999999999999432,4518,1,64,6
0.10000000000002274,4518,2,64,15
0.09999999999999432,4518,3,64,16
0.09999999999999432,4518,4,64,21
0.09999999999999432,4518,5,64,10
0.09999999999999432,4518,6,64,16
0.09999999999999432,4518,7,64,11
0.10000000000002274,4518,8,64,13
0.09999999999999432,4518,9,64,9
0.09999999999999432,4518,10,64,10
0.10000000000002274,4518,11,64,8
0.09999999999999432,4518,12,64,17
0.09999999999999432,4518,13,64,28
0.09999999999999432,4518,14,64,29
0.09999999999999432,4518,15,64,25
0.09999999999999432,4519,0,64,39
0.09999999999999432,4519,1,64,20
0.09999999999999432,4519,2,64,30
0.09999999999999432,4519,3,64,32
0.09999999999999432,4519,4,64,20
0.09999999999999432,4519,5,64,20
0.09999999999999432,4519,6,64,15
0.09999999999999432,4519,7,64,15
0.10000000000002274,4519,8,64,18
0.09999999999999432,4519,9,64,11
0.09999999999999432,4519,10,64,12
0.09999999999999432,4519,11,64,3
0.09999999999999432,4519,12,64,9
0.09999999999999432,4519,13,64,23
0.09999999999999432,4519,14,64,19
0.10000000000002274,4519,15,64,25
0.09999999999999432,4520,0,64,29
0.09999999999999432,4520,1,64,26
0.09999999999999432,4520,2,64,28
0.10000000000002274,4520,3,64,26
0.09999999999999432,4520,4,64,38
0.09999999999999432,4520,5,64,25
0.09999999999999432,4520,6,64,20
0.10000000000002274,4520,7,64,33
0.09999999999999432,4520,8,64,13
0.09999999999999432,4520,9,64,16
0.09999999999999432,4520,10,64,12
0.09999999999999432,4520,11,64,24
0.09999999999999432,4520,12,64,22
0.09999999999999432,4520,13,64,29
0.09999999999999432,4520,14,64,22
0.10000000000002274,4520,15,64,30
0.10000000000002274,4521,0,64,27
0.09999999999999432,4521,1,64,19
0.10000000000002274,4521,2,64,23
0.09999999999999432,4521,3,64,23
0.09999999999999432,4521,4,64,18
0.09999999999999432,4521,5,64,14
0.09999999999999432,4521,6,64,5
0.09999999999999432,4521,7,64,33
0.09999999999999432,4521,8,64,22
0.09999999999999432,4521,9,64,39
0.09999999999999432,4521,10,64,29
0.09999999999999432,4521,11,64,31
0.09999999999999432,4521,12,64,22
0.10000000000002274,4521,13,64,29
0.09999999999999432,4521,14,64,23
0.09999999999999432,4521,15,64,25
0.10000000000002274,4522,0,64,17
0.09999999999999432,4522,1,64,31
0.09999999999999432,4522,2,64,28
0.10000000000002274,4522,3,64,30
0.09999999999999432,4522,4,64,29
0.09999999999999432,4522,5,64,28
0.10000000000002274,4522,6,64,16
0.09999999999999432,4522,7,64,22
0.09999999999999432,4522,8,64,14
0.09999999999999432,4522,9,64,14
0.09999999999999432,4522,10,64,19
0.09999999999999432,4522,11,64,19
0.09999999999999432,4522,12,64,13
0.09999999999999432,4522,13,64,18
0.10000000000002274,4522,14,64,31
0.09999999999999432,4522,15,64,11
0.09999999999999432,4523,0,64,14
0.09999999999999432,4523,1,64,16
0.10000000000002274,4523,2,64,12
0.09999999999999432,4523,3,64,8
0.10000000000002274,4523,4,64,8
0.09999999999999432,4523,5,64,23
0.09999999999999432,4523,6,64,16
0.09999999999999432,4523,7,64,16
0.09999999999999432,4523,8,64,21
0.09999999999999432,4523,9,64,28
0.09999999999999432,4523,10,64,31
0.09999999999999432,4523,11,64,56
0.09999999999999432,4523,12,64,6
0.09999999999999432,4523,13,64,1
0.10000000000002274,4523,14,64,8
0.09999999999999432,4523,15,64,1
0.09999999999999432,4524,0,67,5
0.09999999999999432,4524,1,67,2
0.10000000000000853,4524,2,67,4
0.10000000000000853,4524,3,67,2
0.09999999999999432,4524,4,67,23
0.09999999999999432,4524,5,67,5
0.09999999999999432,4524,6,67,2
0.09999999999999432,4524,7,67,7
0.09999999999999432,4524,8,67,2
0.10000000000000853,4524,9,67,5
0.10000000000000853,4524,10,67,3
0.09999999999999432,4524,11,67,24
0.09999999999999432,4524,12,67,6
0.09999999999999432,4524,13,67,2
0.10000000000000853,4524,14,67,7
0.10000000000000853,4524,15,67,3
0.10000000000000853,4525,0,67,5
0.10000000000000853,4525,1,67,3
0.09999999999999432,4525,2,67,24
0.09999999999999432,4525,3,67,5
0.10000000000000853,4525,4,67,2
0.10000000000000853,4525,5,67,5
0.10000000000000853,4525,6,67,2
0.09999999999999432,4525,7,67,5
0.09999999999999432,4525,8,67,3
0.10000000000000853,4525,9,67,24
0.09999999999999432,4525,10,67,6
0.10000000000000853,4525,11,67,2
0.10000000000000853,4525,12,67,7
0.09999999999999432,4525,13,67,3
0.09999999999999432,4525,14,67,6
0.09999999999999432,4525,15,67,3
0.10000000000000853,4526,0,67,23
0.10000000000000853,4526,1,67,5
0.10000000000000853,4526,2,67,2
0.10000000000000853,4526,3,67,7
0.09999999999999432,4526,4,67,2
0.09999999999999432,4526,5,67,5
0.10000000000000853,4526,6,67,3
0.09999999999999432,4526,7,67,26
0.10000000000000853,4526,8,67,7
0.09999999999999432,4526,9,67,3
0.09999999999999432,4526,10,67,7
0.09999999999999432,4526,11,67,2
0.09999999999999432,4526,12,67,4
0.10000000000000853,4526,13,67,3
0.09999999999999432,4526,14,67,24
0.09999999999999432,4526,15,67,6
0.09999999999999432,4527,0,67,2
0.09999999999999432,4527,1,67,6
0.10000000000000853,4527,2,67,3
0.10000000000000853,4527,3,67,5
0.10000000000000853,4527,4,67,3
0.09999999999999432,4527,5,67,26
0.09999999999999432,4527,6,67,5
0.09999999999999432,4527,7,67,3
0.10000000000000853,4527,8,67,7
0.09999999999999432,4527,9,67,3
0.10000000000000853,4527,10,67,5
0.10000000000000853,4527,11,67,2
0.09999999999999432,4527,12,67,24
0.09999999999999432,4527,13,67,5
0.09999999999999432,4527,14,67,2
0.10000000000000853,4527,15,67,7
0.10000000000000853,4528,0,67,2
0.09999999999999432,4528,1,67,5
0.09999999999999432,4528,2,67,3
0.10000000000000853,4528,3,67,25
0.10000000000000853,4528,4,67,6
0.10000000000000853,4528,5,67,1
0.09999999999999432,4528,6,67,6
0.09999999999999432,4528,7,67,3
0.09999999999999432,4528,8,67,4
0.09999999999999432,4528,9,67,2
0.10000000000000853,4528,10,67,22
0.10000000000000853,4528,11,67,6
0.10000000000000853,4528,12,67,2
0.09999999999999432,4528,13,67,6
0.09999999999999432,4528,14,67,2
0.09999999999999432,4528,15,67,6
0.10000000000000853,4529,0,67,2
0.10000000000000853,4529,1,67,26
0.10000000000000853,4529,2,67,6
0.09999999999999432,4529,3,67,2
0.09999999999999432,4529,4,67,7
0.09999999999999432,4529,5,67,2
0.10000000000000853,4529,6,67,6
0.10000000000000853,4529,7,67,2
0.09999999999999432,4529,8,67,23
0.09999999999999432,4529,9,67,5
0.09999999999999432,4529,10,67,2
0.09999999999999432,4529,11,67,7
0.10000000000000853,4529,12,67,2
0.10000000000000853,4529,13,67,4
0.10000000000000853,4529,14,67,2
0.09999999999999432,4529,15,67,23
0.09999999999999432,4530,0,67,6
0.09999999999999432,4530,1,67,2
0.10000000000000853,4530,2,67,7
0.10000000000000853,4530,3,67,3
0.10000000000000853,4530,4,67,4
0.09999999999999432,4530,5,67,3
0.09999999999999432,4530,6,67,23
0.09999999999999432,4530,7,67,6
0.10000000000000853,4530,8,67,2
0.10000000000000853,4530,9,67,5
0.10000000000000853,4530,10,67,2
0.10000000000000853,4530,11,67,5
0.09999999999999432,4530,12,67,2
0.10000000000000853,4530,13,67,22
0.10000000000000853,4530,14,67,6
0.10000000000000853,4530,15,67,2
0.10000000000000853,4531,0,67,6
0.09999999999999432,4531,1,67,2
0.09999999999999432,4531,2,67,4
0.09999999999999432,4531,3,67,3
0.10000000000000853,4531,4,67,24
0.10000000000000853,4531,5,67,3
0.10000000000000853,4531,6,67,2
0.09999999999999432,4531,7,67,7
0.09999999999999432,4531,8,67,2
0.09999999999999432,4531,9,67,5
0.10000000000000853,4531,10,67,3
0.09999999999999432,4531,11,67,22
0.10000000000000853,4531,12,67,7
0.09999999999999432,4531,13,67,2
0.09999999999999432,4531,14,67,7
0.09999999999999432,4531,15,67,2
0.09999999999999432,4532,0,67,4
0.10000000000000853,4532,1,67,3
0.09999999999999432,4532,2,67,22
0.09999999999999432,4532,3,67,6
0.09999999999999432,4532,4,67,2
0.09999999999999432,4532,5,67,7
0.10000000000000853,4532,6,67,2
0.10000000000000853,4532,7,67,6
0.10000000000000853,4532,8,67,3
0.09999999999999432,4532,9,67,26
0.09999999999999432,4532,10,67,6
0.10000000000000853,4532,11,67,2
0.10000000000000853,4532,12,67,6
0.09999999999999432,4532,13,67,2
0.10000000000000853,4532,14,67,4
0.09999999999999432,4532,15,67,3
0.09999999999999432,4533,0,67,27
0.10000000000000853,4533,1,67,5
0.09999999999999432,4533,2,67,2
0.10000000000000853,4533,3,67,6
0.10000000000000853,4533,4,67,2
0.09999999999999432,4533,5,67,5
0.09999999999999432,4533,6,67,2
0.10000000000000853,4533,7,67,24
0.10000000000000853,4533,8,67,6
0.10000000000000853,4533,9,67,2
0.09999999999999432,4533,10,67,6
0.09999999999999432,4533,11,67,2
0.09999999999999432,4533,12,67,4
0.09999999999999432,4533,13,67,3
0.10000000000000853,4533,14,67,24
0.10000000000000853,4533,15,67,5
0.10000000000000853,4534,0,67,2
0.09999999999999432,4534,1,67,6
0.09999999999999432,4534,2,67,2
0.09999999999999432,4534,3,67,5
0.09999999999999432,4534,4,67,2
0.09999999999999432,4534,5,67,27
0.10000000000000853,4534,6,67,3
0.09999999999999432,4534,7,67,2
0.09999999999999432,4534,8,67,4
0.10000000000000853,4534,9,67,2
0.10000000000000853,4534,10,67,3
0.10000000000000853,4534,11,67,2
0.09999999999999432,4534,12,67,29
0.09999999999999432,4534,13,67,4
0.10000000000000853,4534,14,67,2
0.10000000000000853,4534,15,67,4
0.09999999999999432,4535,0,67,1
0.10000000000000853,4535,1,67,3
0.09999999999999432,4535,2,67,2
0.09999999999999432,4535,3,67,29
0.09999999999999432,4535,4,67,3
0.10000000000000853,4535,5,67,2
0.10000000000000853,4535,6,67,4
0.10000000000000853,4535,7,67,2
0.10000000000000853,4535,8,67,3
0.09999999999999432,4535,9,67,2
0.09999999999999432,4535,10,67,29
0.09999999999999432,4535,11,67,4
0.10000000000000853,4535,12,67,2
0.10000000000000853,4535,13,67,4
0.09999999999999432,4535,14,67,2
0.09999999999999432,4535,15,67,3
0.09999999999999432,4536,0,67,2
0.10000000000000853,4536,1,67,26
0.09999999999999432,4536,2,67,4
0.09999999999999432,4536,3,67,2
0.10000000000000853,4536,4,67,4
0.09999999999999432,4536,5,67,2
0.09999999999999432,4536,6,67,3
0.10000000000000853,4536,7,67,2
0.10000000000000853,4536,8,67,19
0.09999999999999432,4536,9,67,3
0.09999999999999432,4536,10,67,2
0.09999999999999432,4536,11,67,4
0.09999999999999432,4536,12,67,2
0.09999999999999432,4536,13,67,3
0.10000000000000853,4536,14,67,2
0.09999999999999432,4536,15,67,31
0.10000000000000853,4537,0,67,3
0.09999999999999432,4537,1,67,2
0.09999999999999432,4537,2,67,1
0.09999999999999432,4537,3,67,3
0.10000000000002274,4537,4,67,2
0.09999999999999432,4537,5,67,3
0.09999999999999432,4537,6,67,2
0.10000000000002274,4537,7,67,3
0.09999999999999432,4537,8,67,4
0.09999999999999432,4537,9,67,3
0.09999999999999432,4537,10,67,3
0.09999999999999432,4537,11,67,3
0.09999999999999432,4537,12,67,3
0.09999999999999432,4537,13,67,2
0.09999999999999432,4537,14,67,3
0.09999999999999432,4537,15,67,3
0.09999999999999432,4538,0,67,2
0.10000000000002274,4538,1,67,4
0.09999999999999432,4538,2,67,3
0.09999999999999432,4538,3,67,3
0.10000000000002274,4538,4,67,2
0.09999999999999432,4538,5,67,4
0.09999999999999432,4538,6,67,3
0.09999999999999432,4538,7,67,3
0.09999999999999432,4538,8,67,3
0.09999999999999432,4538,9,67,3
0.09999999999999432,4538,10,67,3
0.09999999999999432,4538,11,67,3
0.09999999999999432,4538,12,67,2
0.09999999999999432,4538,13,67,2
0.09999999999999432,4538,14,67,3
0.10000000000002274,4538,15,67,3
0.09999999999999432,4539,0,67,3
0.09999999999999432,4539,1,67,4
0.09999999999999432,4539,2,67,4
0.10000000000002274,4539,3,67,3
0.09999999999999432,4539,4,67,2
0.09999999999999432,4539,5,67,3
0.09999999999999432,4539,6,67,3
0.09999999999999432,4539,7,67,4
0.09999999999999432,4539,8,67,3
0.09999999999999432,4539,9,67,1
0.09999999999999432,4539,10,67,3
0.10000000000002274,4539,11,67,3
0.09999999999999432,4539,12,67,4
0.09999999999999432,4539,13,67,3
0.09999999999999432,4539,14,67,4
0.09999999999999432,4539,15,67,4
0.10000000000002274,4540,0,67,3
0.09999999999999432,4540,1,67,4
0.10000000000002274,4540,2,67,3
0.09999999999999432,4540,3,67,3
0.09999999999999432,4540,4,67,4
0.10000000000002274,4540,5,67,2
0.10000000000002274,4540,6,67,3
0.09999999999999432,4540,7,67,2
0.09999999999999432,4540,8,67,3
0.10000000000002274,4540,9,67,4
0.09999999999999432,4540,10,67,3
0.09999999999999432,4540,11,67,3
0.09999999999999432,4540,12,67,4
0.09999999999999432,4540,13,67,5
0.09999999999999432,4540,14,67,4
0.09999999999999432,4540,15,67,4
0.09999999999999432,4541,0,67,5
0.09999999999999432,4541,1,67,2
0.09999999999999432,4541,2,67,6
0.10000000000002274,4541,3,67,2
0.09999999999999432,4541,4,67,6
0.09999999999999432,4541,5,67,2
0.10000000000002274,4541,6,67,5
0.09999999999999432,4541,7,67,2
0.09999999999999432,4541,8,67,1
0.09999999999999432,4541,9,67,6
0.09999999999999432,4541,10,67,2
0.09999999999999432,4541,11,67,6
0.09999999999999432,4541,12,67,2
0.09999999999999432,4541,13,67,7
0.09999999999999432,4541,14,67,2
0.10000000000002274,4541,15,67,6
0.09999999999999432,4542,0,67,2
0.09999999999999432,4542,1,67,6
0.10000000000002274,4542,2,67,2
0.09999999999999432,4542,3,67,7
0.09999999999999432,4542,4,67,2
0.10000000000002274,4542,5,67,6
0.09999999999999432,4542,6,67,1
0.09999999999999432,4542,7,67,7
0.09999999999999432,4542,8,67,3
0.09999999999999432,4542,9,67,6
0.09999999999999432,4542,10,67,2
0.09999999999999432,4542,11,67,6
0.09999999999999432,4542,12,67,2
0.09999999999999432,4542,13,67,6
0.09999999999999432,4542,14,67,3
0.09999999999999432,4542,15,67,6
0.10000000000002274,4543,0,67,3
0.09999999999999432,4543,1,67,7
0.10000000000002274,4543,2,67,2
0.10000000000002274,4543,3,67,6
0.09999999999999432,4543,4,67,2
0.09999999999999432,4543,5,67,6
0.09999999999999432,4543,6,67,2
0.09999999999999432,4543,7,67,5
0.09999999999999432,4543,8,67,2
0.09999999999999432,4543,9,67,6
0.10000000000002274,4543,10,67,2
0.09999999999999432,4543,11,67,7
0.09999999999999432,4543,12,67,2
0.10000000000002274,4543,13,67,6
0.09999999999999432,4543,14,67,3
0.09999999999999432,4543,15,67,6
0.10000000000002274,4544,0,67,3
0.09999999999999432,4544,1,67,5
0.09999999999999432,4544,2,67,2
0.10000000000002274,4544,3,67,7
0.09999999999999432,4544,4,67,2
0.09999999999999432,4544,5,67,6
0.09999999999999432,4544,6,67,2
0.09999999999999432,4544,7,67,7
0.09999999999999432,4544,8,67,2
0.09999999999999432,4544,9,67,6
0.09999999999999432,4544,10,67,2
0.09999999999999432,4544,11,67,7
0.09999999999999432,4544,12,67,2
0.09999999999999432,4544,13,67,6
0.09999999999999432,4544,14,67,3
0.09999999999999999,4544,15,61,1
0.09999999999999432,4545,0,61,1
0.045454545454532536,4545,1,61,4
0.03636363636363171,4545,2,61,7
0.01590909090909065,4545,3,61,8
0.03409090909090651,4545,4,61,13
0.10000000000000853,4545,5,61,23
0.03636363636363171,4545,6,61,34
0.09999999999999432,4545,7,61,36
0.05909090909091219,4545,8,61,31
0.02727272727273089,4545,9,61,29
0.09999999999999432,4545,10,61,21
0.056818181818172775,4545,11,61,15
0.10000000000000853,4545,12,61,14
0.04772727272727195,4545,13,61,11
0.024999999999991473,4545,14,61,9
0.06818181818181301,4545,15,61,11
0.025000000000005684,4546,0,61,14
0.10000000000000853,4546,1,61,16
0.045454545454546746,4546,2,61,15
0.03636363636363171,4546,3,61,11
0.04772727272727195,4546,4,61,7
0.004545454545450411,4546,5,61,6
0.01590909090909065,4546,6,61,12
0.025000000000005684,4546,7,61,15
0.09999999999999432,4546,8,61,15
0.10000000000000853,4546,9,61,10
0.056818181818186986,4546,10,61,10
0.09999999999999432,4546,11,61,7
0.03409090909090651,4546,12,61,5
0.02727272727271668,4546,13,61,7
0.09999999999999432,4546,14,61,12
0.025000000000005684,4546,15,61,12
0.056818181818186986,4547,0,61,9
0.013636363636365445,4547,1,61,7
0.09999999999999432,4547,2,61,8
0.045454545454546746,4547,3,61,6
0.10000000000000853,4547,4,61,5
0.004545454545464622,4547,5,61,8
0.056818181818186986,4547,6,61,10
0.01590909090909065,4547,7,61,11
0.01590909090909065,4547,8,61,12
0.024999999999991473,4547,9,61,12
0.10000000000000853,4547,10,61,9
0.045454545454546746,4547,11,61,10
0.09999999999999432,4547,12,61,14
0.10000000000000853,4547,13,61,11
0.06590909090910202,4547,14,61,11
0.10000000000000853,4547,15,61,9
0.004545454545450411,4548,0,61,10
0.06818181818181301,4548,1,61,12
0.013636363636365445,4548,2,61,12
0.09999999999999432,4548,3,61,9
0.10000000000000853,4548,4,61,7
0.06818181818182723,4548,5,61,8
0.013636363636365445,4548,6,61,10
0.013636363636365445,4548,7,61,13
0.01590909090909065,4548,8,61,17
0.01590909090909065,4548,9,61,17
0.09999999999999432,4548,10,61,18
0.045454545454546746,4548,11,61,24
0.09999999999999432,4548,12,61,22
0.025000000000005684,4548,13,61,21
0.06818181818182723,4548,14,61,21
0.013636363636365445,4548,15,61,18
0.06818181818181301,4549,0,61,19
0.004545454545450411,4549,1,61,23
0.004545454545450411,4549,2,61,23
0.056818181818186986,4549,3,61,23
0.004545454545464622,4549,4,61,20
0.036363636363645924,4549,5,61,18
0.03409090909090651,4549,6,61,18
0.0022727272727252057,4549,7,61,21
0.01590909090909065,4549,8,61,27
0.045454545454532536,4549,9,61,23
0.01590909090909065,4549,10,61,13
0.09999999999999432,4549,11,61,16
0.024999999999991473,4549,12,61,27
0.013636363636365445,4549,13,61,28
0.05909090909091219,4549,14,61,22
0.01590909090909065,4549,15,61,14
0.013636363636365445,4550,0,61,10
0.09999999999999432,4550,1,61,12
0.06818181818181301,4550,2,61,12
0.03636363636363171,4550,3,61,13
0.004545454545450411,4550,4,61,13
0.10000000000000853,4550,5,61,6
0.06590909090910202,4550,6,61,6
0.09999999999999432,4550,7,61,11
0.03409090909090651,4550,8,61,9
0.10000000000000853,4550,9,61,10
0.04772727272728616,4550,10,61,16
0.10000000000000853,4550,11,61,11
0.036363636363645924,4550,12,61,14
0.004545454545464622,4550,13,61,15
0.004545454545464622,4550,14,61,14
0.0022727272727252057,4550,15,61,15
0.06818181818181301,4551,0,61,15
0.025000000000005684,4551,1,61,22
0.03636363636363171,4551,2,61,24
0.10000000000000853,4551,3,61,27
0.04772727272727195,4551,4,61,30
0.09999999999999432,4551,5,61,23
0.01590909090909065,4551,6,61,24
0.045454545454546746,4551,7,61,24
0.03636363636363171,4551,8,61,25
0.01590909090909065,4551,9,61,21
0.09999999999999432,4551,10,61,15
0.06818181818181301,4551,11,61,16
0.03636363636363171,4551,12,61,16
0.024999999999991473,4551,13,61,18
0.06818181818181301,4551,14,61,19
0.03636363636363171,4551,15,61,20
0.09999999999999432,4552,0,61,21
0.06590909090908781,4552,1,61,20
0.01590909090909065,4552,2,61,13
0.045454545454546746,4552,3,61,8
0.013636363636365445,4552,4,61,8
0.004545454545464622,4552,5,61,14
0.056818181818186986,4552,6,61,17
0.03636363636363171,4552,7,61,23
0.056818181818186986,4552,8,61,27
0.004545454545464622,4552,9,61,29
0.036363636363645924,4552,10,61,30
0.025000000000005684,4552,11,61,43
0.06818181818181301,4552,12,61,43
0.025000000000005684,4552,13,61,30
0.056818181818172775,4552,14,61,26
0.10000000000000853,4552,15,61,39
0.06818181818182723,4553,0,61,40
0.004545454545464622,4553,1,61,41
0.056818181818186986,4553,2,61,42
0.01590909090909065,4553,3,61,43
0.03409090909090651,4553,4,61,42
0.09999999999999432,4553,5,61,26
0.09999999999999432,4553,6,61,24
0.056818181818172775,4553,7,61,25
0.09999999999999432,4553,8,61,27
0.06818181818181301,4553,9,61,34
0.09999999999999432,4553,10,61,28
0.09999999999999432,4553,11,61,19
0.09999999999999432,4553,12,61,24
0.06818181818181301,4553,13,61,26
0.013636363636365445,4553,14,61,35
0.10000000000000853,4553,15,61,20
0.09999999999999432,4554,0,61,9
0.04772727272727195,4554,1,61,10
0.004545454545450411,4554,2,61,12
0.03636363636363171,4554,3,61,15
0.036363636363645924,4554,4,61,16
0.056818181818186986,4554,5,61,15
0.09999999999999432,4554,6,61,22
0.024999999999991473,4554,7,61,25
0.09999999999999432,4554,8,61,15
0.09999999999999432,4554,9,61,10
0.06818181818181301,4554,10,61,10
0.025000000000005684,4554,11,61,11
0.004545454545450411,4554,12,61,14
0.10000000000000853,4554,13,61,18
0.045454545454546746,4554,14,61,19
0.10000000000000853,4554,15,61,22
0.05909090909091219,4555,0,61,24
0.036363636363645924,4555,1,61,29
0.025000000000005684,4555,2,61,30
0.013636363636351234,4555,3,61,17
0.04772727272727195,4555,4,61,14
0.045454545454546746,4555,5,61,18
0.04772727272727195,4555,6,61,19
0.03636363636363171,4555,7,61,17
0.056818181818172775,4555,8,61,14
0.013636363636365445,4555,9,61,12
0.03636363636363171,4555,10,61,14
0.01590909090909065,4555,11,61,23
0.045454545454546746,4555,12,61,31
0.013636363636365445,4555,13,61,34
0.10000000000000853,4555,14,61,9
0.09999999999999432,4555,15,61,8
0.056818181818172775,4556,0,61,10
0.09999999999999432,4556,1,61,9
0.04772727272727195,4556,2,61,14
0.013636363636365445,4556,3,61,30
0.05909090909089798,4556,4,61,34
0.10000000000000853,4556,5,61,22
0.09999999999999432,4556,6,61,38
0.03636363636363171,4556,7,61,36
0.03409090909092072,4556,8,61,37
0.04772727272727195,4556,9,61,36
0.03636363636363171,4556,10,61,31
0.004545454545450411,4556,11,61,23
0.10000000000000853,4556,12,61,15
0.09999999999999432,4556,13,61,14
0.06818181818181301,4556,14,61,13
0.004545454545450411,4556,15,61,21
0.004545454545464622,4557,0,61,23
0.004545454545464622,4557,1,61,18
0.10000000000000853,4557,2,61,19
0.06818181818182723,4557,3,61,20
0.09999999999999432,4557,4,61,23
0.06818181818181301,4557,5,61,24
0.013636363636351234,4557,6,61,26
0.04772727272727195,4557,7,61,34
0.01590909090909065,4557,8,61,37
0.03409090909090651,4557,9,61,37
0.09999999999999432,4557,10,61,19
0.06590909090908781,4557,11,61,17
0.10000000000000853,4557,12,61,15
0.056818181818186986,4557,13,61,14
0.09999999999999432,4557,14,61,14
0.06818181818181301,4557,15,61,13
0.10000000000000853,4558,0,61,19
0.056818181818186986,4558,1,61,21
0.024999999999991473,4558,2,61,17
0.04772727272727195,4558,3,61,12
0.004545454545450411,4558,4,61,10
0.024999999999991473,4558,5,61,7
0.056818181818186986,4558,6,61,6
0.10000000000000853,4558,7,61,4
0.06818181818182723,4558,8,61,6
0.004545454545464622,4558,9,61,11
0.056818181818186986,4558,10,61,13
0.10000000000000853,4558,11,61,17
0.056818181818186986,4558,12,61,22
0.036363636363645924,4558,13,61,27
0.004545454545464622,4558,14,61,31
0.09999999999999432,4558,15,61,29
0.04772727272727195,4559,0,61,30
0.03409090909092072,4559,1,61,28
0.09999999999999432,4559,2,61,17
0.03636363636363171,4559,3,61,11
0.056818181818172775,4559,4,61,14
0.024999999999991473,4559,5,61,17
0.013636363636365445,4559,6,61,20
0.01590909090909065,4559,7,61,26
0.03636363636363171,4559,8,61,25
0.0022727272727252057,4559,9,61,23
0.004545454545450411,4559,10,61,23
0.10000000000000853,4559,11,61,13
0.06818181818182723,4559,12,61,9
0.025000000000005684,4559,13,61,10
0.025000000000005684,4559,14,61,16
0.03636363636363171,4559,15,61,18
0.045454545454532536,4560,0,61,22
0.013636363636351234,4560,1,61,27
0.10000000000000853,4560,2,61,38
0.09999999999999432,4560,3,61,71
0.024999999999991473,4560,4,61,72
0.013636363636365445,4560,5,61,66
0.09999999999999432,4560,6,61,38
0.01590909090909065,4560,7,61,28
0.06818181818182723,4560,8,61,27
0.09999999999999432,4560,9,61,10
0.03636363636363171,4560,10,61,21
0.024999999999991473,4560,11,61,26
0.09999999999999432,4560,12,61,12
0.10000000000000853,4560,13,61,9
0.056818181818186986,4560,14,61,15
0.09999999999999432,4560,15,61,15
0.10000000000000853,4561,0,61,21
0.09999999999999432,4561,1,61,26
0.03636363636363171,4561,2,61,32
0.03636363636363171,4561,3,61,39
0.09999999999999432,4561,4,61,39
0.056818181818172775,4561,5,61,36
0.10000000000000853,4561,6,61,23
0.06818181818182723,4561,7,61,17
0.036363636363645924,4561,8,61,13
0.025000000000005684,4561,9,61,14
0.025000000000005684,4561,10,61,15
0.10000000000000853,4561,11,61,12
0.056818181818186986,4561,12,61,9
0.013636363636365445,4561,13,61,10
0.10000000000000853,4561,14,61,26
0.06818181818182723,4561,15,61,29
0.004545454545464622,4562,0,61,28
0.004545454545464622,4562,1,61,26
0.025000000000005684,4562,2,61,18
0.056818181818172775,4562,3,61,11
0.024999999999991473,4562,4,61,7
0.05909090909091219,4562,5,61,7
0.013636363636365445,4562,6,61,13
0.024999999999991473,4562,7,61,13
0.06818181818181301,4562,8,61,14
0.09999999999999432,4562,9,61,13
0.10000000000000853,4562,10,61,16
0.09999999999999432,4562,11,61,17
0.03409090909090651,4562,12,61,14
0.004545454545450411,4562,13,61,13
0.09999999999999432,4562,14,61,19
0.056818181818172775,4562,15,61,22
0.013636363636351234,4563,0,61,21
0.03636363636363171,4563,1,61,16
0.056818181818186986,4563,2,61,12
0.10000000000000853,4563,3,61,13
0.09999999999999432,4563,4,61,8
0.06818181818181301,4563,5,61,9
0.024999999999991473,4563,6,61,10
0.10000000000000853,4563,7,61,13
0.036363636363645924,4563,8,61,19
0.056818181818186986,4563,9,61,24
0.013636363636365445,4563,10,61,27
0.04772727272727195,4563,11,61,29
0.03636363636363171,4563,12,61,33
0.045454545454546746,4563,13,61,37
0.025000000000005684,4563,14,61,27
0.04772727272727195,4563,15,61,18
0.01590909090909065,4564,0,61,21
0.09999999999999432,4564,1,61,40
0.004545454545450411,4564,2,61,37
0.10000000000000853,4564,3,61,35
0.036363636363645924,4564,4,61,27
0.045454545454546746,4564,5,61,18
0.03636363636363171,4564,6,61,13
0.04772727272727195,4564,7,61,19
0.045454545454546746,4564,8,61,26
0.10000000000000853,4564,9,61,25
0.09999999999999432,4564,10,61,19
0.09999999999999432,4564,11,61,17
0.10000000000000853,4564,12,61,20
0.05909090909091219,4564,13,61,26
0.024999999999991473,4564,14,61,29
0.013636363636365445,4564,15,61,24
0.01590909090909065,4565,0,61,28
0.056818181818186986,4565,1,61,29
0.025000000000005684,4565,2,61,25
0.09999999999999432,4565,3,61,12
0.056818181818172775,4565,4,61,13
0.01590909090909065,4565,5,61,18
0.06818181818182723,4565,6,61,19
0.036363636363645924,4565,7,61,18
0.09999999999999432,4565,8,61,19
0.056818181818172775,4565,9,61,23
0.004545454545450411,4565,10,61,32
0.03409090909090651,4565,11,61,34
0.09999999999999432,4565,12,61,23
0.05909090909089798,4565,13,61,23
0.004545454545450411,4565,14,61,24
0.09999999999999432,4565,15,61,27
0.013636363636365445,4566,0,61,26
0.024999999999991473,4566,1,61,24
0.06818181818181301,4566,2,61,24
0.10000000000000853,4566,3,61,22
0.04772727272727195,4566,4,61,22
0.004545454545450411,4566,5,61,23
0.10000000000000853,4566,6,61,17
0.056818181818186986,4566,7,61,16
0.036363636363645924,4566,8,61,14
0.09999999999999432,4566,9,63,26
0.09999999999999432,4566,10,63,47
0.10000000000000142,4566,11,63,51
0.10000000000000142,4566,12,63,39
0.09999999999999432,4566,13,63,44
0.10000000000000142,4566,14,63,36
0.10000000000000142,4566,15,63,41
0.10000000000000142,4567,0,63,40
0.10000000000000142,4567,1,63,37
0.10000000000000142,4567,2,63,26
0.10000000000000142,4567,3,63,47
0.09999999999999432,4567,4,63,53
0.10000000000000142,4567,5,63,29
0.10000000000000142,4567,6,63,52
0.10000000000000142,4567,7,63,26
0.10000000000000142,4567,8,63,35
0.10000000000000142,4567,9,63,37
0.10000000000000142,4567,10,63,40
0.09999999999999432,4567,11,63,42
0.10000000000000142,4567,12,63,19
0.10000000000000142,4567,13,63,33
0.10000000000000142,4567,14,63,18
0.10000000000000142,4567,15,63,23
0.10000000000000142,4568,0,63,58
0.09999999999999432,4568,1,63,24
0.09999999999999432,4568,2,63,34
0.10000000000000142,4568,3,63,34
0.09999999999999432,4568,4,63,50
0.09999999999999432,4568,5,63,30
0.10000000000000142,4568,6,63,22
0.10000000000000142,4568,7,63,20
0.10000000000000142,4568,8,63,25
0.10000000000000142,4568,9,63,53
0.10000000000000142,4568,10,63,39
0.10000000000000142,4568,11,63,35
0.10000000000000142,4568,12,63,36
0.10000000000000142,4568,13,63,44
0.10000000000000142,4568,14,63,32
0.10000000000000142,4568,15,63,31
0.10000000000000142,4569,0,63,46
0.09999999999999432,4569,1,63,17
0.09999999999999432,4569,2,63,12
0.09999999999999432,4569,3,63,16
0.09999999999999432,4569,4,63,18
0.10000000000000853,4569,5,63,35
0.09999999999999432,4569,6,63,40
0.10000000000000853,4569,7,63,63
0.09999999999999432,4569,8,63,60
0.09999999999999432,4569,9,63,43
0.09999999999999432,4569,10,63,43
0.09999999999999432,4569,11,63,38
0.09999999999999432,4569,12,63,6
0.09999999999999432,4569,13,63,56
0.09999999999999432,4569,14,63,56
0.09999999999999432,4569,15,63,42
0.09999999999999432,4570,0,63,52
0.09999999999999432,4570,1,63,55
0.09999999999999432,4570,2,63,59
0.09999999999999432,4570,3,63,58
0.09999999999999432,4570,4,63,34
0.09999999999999432,4570,5,63,48
0.09999999999999432,4570,6,63,45
0.09999999999999432,4570,7,63,63
0.09999999999999432,4570,8,63,41
0.09999999999999432,4570,9,63,41
0.09999999999999432,4570,10,63,51
0.10000000000002274,4570,11,63,34
0.10000000000002274,4570,12,63,45
0.10000000000002274,4570,13,63,30
0.09999999999999432,4570,14,63,79
0.09999999999999432,4570,15,63,47
0.09999999999999432,4571,0,63,62
0.09999999999999432,4571,1,63,25
0.09999999999999432,4571,2,63,54
0.09999999999999432,4571,3,63,44
0.09999999999999432,4571,4,63,38
0.09999999999999432,4571,5,63,62
0.09999999999999432,4571,6,63,56
0.09999999999999432,4571,7,63,26
0.09999999999999432,4571,8,63,47
0.09999999999999432,4571,9,63,56
0.09999999999999432,4571,10,63,58
0.09999999999999432,4571,11,63,34
0.10000000000002274,4571,12,63,63
0.09999999999999432,4571,13,63,47
0.09999999999999432,4571,14,63,52
0.09999999999999432,4571,15,63,61
0.09999999999999432,4572,0,63,58
0.09999999999999432,4572,1,63,53
0.09999999999999432,4572,2,63,65
0.10000000000002274,4572,3,63,37
0.10000000000002274,4572,4,63,47
0.09999999999999432,4572,5,63,40
0.09999999999999432,4572,6,63,61
0.10000000000002274,4572,7,63,37
0.09999999999999432,4572,8,63,47
0.09999999999999432,4572,9,63,72
0.09999999999999432,4572,10,63,41
0.09999999999999432,4572,11,63,50
0.09999999999999432,4572,12,63,40
0.09999999999999432,4572,13,63,64
0.09999999999999432,4572,14,63,42
0.10000000000002274,4572,15,63,74
0.09999999999999432,4573,0,63,54
0.09999999999999432,4573,1,63,57
0.09999999999999432,4573,2,63,74
0.09999999999999432,4573,3,63,86
0.09999999999999432,4573,4,63,53
0.09999999999999432,4573,5,63,58
0.09999999999999432,4573,6,63,41
0.10000000000002274,4573,7,63,62
0.09999999999999432,4573,8,63,67
0.09999999999999432,4573,9,63,34
0.09999999999999432,4573,10,63,21
0.09999999999999432,4573,11,63,53
0.09999999999999432,4573,12,63,40
0.09999999999999432,4573,13,63,52
0.09999999999999432,4573,14,63,53
0.09999999999999432,4573,15,63,46
0.09999999999999432,4574,0,63,49
0.09999999999999432,4574,1,63,44
0.09999999999999432,4574,2,63,35
0.09999999999999432,4574,3,63,17
0.10000000000002274,4574,4,63,47
0.10000000000002274,4574,5,63,36
0.09999999999999432,4574,6,63,48
0.10000000000002274,4574,7,63,47
0.10000000000002274,4574,8,63,42
0.09999999999999432,4574,9,63,54
0.09999999999999432,4574,10,63,55
0.09999999999999432,4574,11,63,39
0.09999999999999432,4574,12,63,40
0.10000000000002274,4574,13,63,33
0.09999999999999432,4574,14,63,43
0.09999999999999432,4574,15,63,22
0.09999999999999432,4575,0,63,45
0.09999999999999432,4575,1,63,43
0.09999999999999432,4575,2,63,33
0.09999999999999432,4575,3,63,51
0.09999999999999432,4575,4,63,26
0.09999999999999432,4575,5,63,26
0.09999999999999432,4575,6,63,59
0.09999999999999432,4575,7,63,55
0.09999999999999432,4575,8,63,40
0.09999999999999432,4575,9,63,64
0.09999999999999432,4575,10,63,32
0.09999999999999432,4575,11,63,29
0.09999999999999432,4575,12,63,17
0.09999999999999432,4575,13,63,33
0.09999999999999432,4575,14,63,41
0.10000000000002274,4575,15,63,52
0.09999999999999432,4576,0,63,54
0.09999999999999964,4576,1,73,52
0.09999999999999964,4576,2,73,121
0.10000000000000053,4576,3,73,123
0.09999999999999964,4576,4,73,59
0.09999999999999964,4576,5,73,44
0.10000000000000053,4576,6,73,87
0.10000000000000053,4576,7,73,68
0.09999999999999964,4576,8,73,127
0.09999999999999964,4576,9,73,18
0.10000000000000142,4576,10,73,127
0.09999999999999964,4576,11,73,9
0.10000000000000142,4576,12,73,35
0.10000000000000142,4576,13,73,32
0.10000000000000142,4576,14,73,36
0.09999999999999964,4576,15,73,112
0.09999999999999964,4577,0,73,127
0.09999999999999964,4577,1,73,109
0.09999999999999964,4577,2,73,99
0.004545454545453964,4577,3,73,105
0.09999999999999964,4577,4,73,127
0.09999999999999964,4577,5,73,127
0.09999999999999964,4577,6,73,127
0.09999999999999964,4577,7,73,48
0.10000000000000142,4577,8,73,9
0.09999999999999964,4577,9,73,69
0.09999999999999964,4577,10,73,66
0.09999999999999964,4577,11,73,94
0.09999999999999964,4577,12,73,28
0.09999999999999964,4577,13,73,90
0.10000000000000142,4577,14,73,126
0.10000000000000142,4577,15,73,23
0.09999999999999787,4578,0,73,107
0.09999999999999787,4578,1,73,78
0.05681818181817988,4578,2,73,122
0.09999999999999787,4578,3,73,35
0.09999999999999787,4578,4,73,127
0.10000000000000142,4578,5,73,14
0.10000000000000142,4578,6,73,126
0.05681818181818343,4578,7,73,127
0.09999999999999787,4578,8,73,104
0.10000000000000142,4578,9,73,90
0.09999999999999787,4578,10,73,127
0.10000000000000142,4578,11,73,92
0.09999999999999787,4578,12,73,118
0.10000000000000142,4578,13,73,10
0.09999999999999787,4578,14,73,35
0.10000000000000142,4578,15,73,127
0.10000000000000142,4579,0,73,127
0.09999999999999787,4579,1,73,84
0.10000000000000142,4579,2,73,99
0.10000000000000142,4579,3,73,127
0.10000000000000142,4579,4,73,69
0.10000000000000142,4579,5,73,107
0.10000000000000142,4579,6,73,23
0.10000000000000142,4579,7,73,126
0.09999999999999787,4579,8,73,126
0.10000000000000142,4579,9,73,63
0.09999999999999787,4579,10,73,82
0.09999999999999787,4579,11,73,127
0.09999999999999787,4579,12,73,79
0.02499999999999858,4579,13,73,67
0.09999999999999787,4579,14,73,104
0.10000000000000142,4579,15,73,127
0.09999999999999787,4580,0,73,47
0.10000000000000142,4580,1,73,66
0.10000000000000142,4580,2,73,106
0.10000000000000142,4580,3,73,16
0.10000000000000142,4580,4,73,84
0.10000000000000142,4580,5,73,55
0.09999999999999787,4580,6,73,26
0.09999999999999787,4580,7,73,111
0.10000000000000142,4580,8,73,75
0.10000000000000142,4580,9,73,83
0.09999999999999787,4580,10,73,120
0.10000000000000142,4580,11,73,88
0.10000000000000142,4580,12,73,92
0.10000000000000142,4580,13,73,3
0.10000000000000142,4580,14,73,1
0.013636363636365445,4580,15,73,57
0.10000000000000142,4581,0,73,127
0.10000000000000142,4581,1,73,74
0.10000000000000142,4581,2,73,53
0.09999999999999432,4581,3,73,72
0.09999999999999432,4581,4,73,76
0.10000000000000142,4581,5,73,93
0.09999999999999432,4581,6,73,69
0.10000000000000142,4581,7,73,66
0.10000000000000142,4581,8,73,78
0.09999999999999432,4581,9,73,78
0.10000000000000142,4581,10,73,58
0.09999999999999432,4581,11,73,58
0.10000000000000142,4581,12,73,75
0.10000000000000142,4581,13,73,88
0.05681818181817988,4581,14,73,127
0.10000000000000142,4581,15,73,30
0.06818181818182012,4582,0,73,64
0.10000000000000142,4582,1,73,88
0.10000000000000142,4582,2,73,61
0.10000000000000142,4582,3,73,87
0.10000000000000142,4582,4,73,89
0.10000000000000142,4582,5,73,110
0.10000000000000142,4582,6,73,70
0.004545454545457517,4582,7,73,16
0.10000000000000142,4582,8,73,77
0.10000000000000142,4582,9,73,97
0.10000000000000142,4582,10,73,69
0.10000000000000142,4582,11,73,95
0.10000000000000142,4582,12,73,95
0.10000000000000142,4582,13,73,95
0.10000000000000142,4582,14,73,102
0.09999999999999432,4582,15,73,27
0.10000000000000142,4583,0,73,80
0.10000000000000142,4583,1,73,80
0.10000000000000142,4583,2,73,75
0.10000000000000142,4583,3,73,40
0.10000000000000142,4583,4,73,59
0.10000000000000142,4583,5,73,85
0.10000000000000142,4583,6,73,76
0.10000000000000142,4583,7,73,101
0.10000000000000142,4583,8,73,87
0.10000000000000142,4583,9,73,73
0.09999999999999432,4583,10,73,112
0.10000000000000142,4583,11,73,33
0.09999999999999432,4583,12,73,87
0.10000000000000142,4583,13,73,108
0.10000000000000142,4583,14,73,117
0.10000000000000142,4583,15,73,106
0.10000000000000142,4584,0,73,57
0.10000000000000142,4584,1,73,65
0.10000000000000142,4584,2,73,4
0.09999999999999432,4584,3,73,85
0.10000000000000142,4584,4,73,56
0.10000000000000142,4584,5,73,9
0.013636363636365445,4584,6,73,59
0.09999999999999432,4584,7,73,78
0.10000000000000142,4584,8,73,36
0.09999999999999432,4584,9,73,87
0.10000000000000142,4584,10,73,5
0.06818181818182012,4584,11,73,5
0.004545454545457517,4584,12,73,67
0.10000000000000142,4584,13,73,83
0.004545454545450411,4584,14,73,93
0.10000000000000142,4584,15,73,59
0.09999999999999432,4585,0,73,118
0.10000000000000142,4585,1,73,31
0.04545454545455385,4585,2,73,109
0.09999999999999432,4585,3,73,114
0.09999999999999432,4585,4,73,113
0.10000000000000853,4585,5,73,80
0.09999999999999432,4585,6,73,85
0.09999999999999432,4585,7,73,32
0.09999999999999432,4585,8,73,114
0.10000000000000853,4585,9,73,90
0.09999999999999432,4585,10,73,49
0.09999999999999432,4585,11,73,80
0.10000000000000853,4585,12,73,85
0.10000000000000853,4585,13,73,45
0.10000000000000853,4585,14,73,83
0.09999999999999432,4585,15,73,85
0.10000000000000853,4586,0,73,47
0.09999999999999432,4586,1,73,11
0.09999999999999432,4586,2,73,92
0.09999999999999432,4586,3,73,72
0.10000000000000853,4586,4,73,81
0.09999999999999432,4586,5,73,73
0.09999999999999432,4586,6,73,89
0.10000000000000853,4586,7,73,87
0.09999999999999432,4586,8,73,41
0.10000000000000853,4586,9,73,81
0.10000000000000853,4586,10,73,92
0.10000000000000853,4586,11,73,12
0.09999999999999432,4586,12,73,83
0.09999999999999432,4586,13,73,127
0.10000000000000853,4586,14,73,82
0.10000000000000853,4586,15,73,4
0.03409090909090651,4587,0,73,90
0.09999999999999432,4587,1,73,100
0.09999999999999432,4587,2,73,122
0.09999999999999432,4587,3,73,126
0.09999999999999432,4587,4,73,101
0.10000000000000853,4587,5,73,93
0.09999999999999432,4587,6,73,89
0.09999999999999432,4587,7,73,80
0.09999999999999432,4587,8,73,96
0.10000000000000853,4587,9,73,87
0.09999999999999432,4587,10,73,100
0.09999999999999432,4587,11,73,109
0.10000000000000853,4587,12,73,44
0.06818181818182723,4587,13,73,48
0.10000000000000853,4587,14,73,91
0.10000000000000853,4587,15,73,61
0.09999999999999432,4588,0,73,58
0.056818181818172775,4588,1,73,101
0.09999999999999432,4588,2,73,93
0.10000000000000853,4588,3,73,52
0.09999999999999432,4588,4,73,104
0.09999999999999432,4588,5,73,94
0.03636363636363171,4588,6,73,64
0.0022727272727252057,4588,7,73,76
0.10000000000000853,4588,8,73,96
0.10000000000000853,4588,9,73,84
0.09999999999999432,4588,10,73,13
0.09999999999999432,4588,11,73,109
0.09999999999999432,4588,12,73,127
0.09999999999999432,4588,13,73,83
0.10000000000000853,4588,14,73,107
0.09999999999999432,4588,15,73,71
0.10000000000000853,4589,0,73,49
0.09999999999999432,4589,1,73,10
0.10000000000000853,4589,2,73,89
0.10000000000000853,4589,3,73,127
0.10000000000000853,4589,4,73,122
0.09999999999999432,4589,5,73,95
0.09999999999999432,4589,6,73,125
0.09999999999999432,4589,7,73,99
0.09999999999999432,4589,8,73,101
0.09999999999999432,4589,9,73,124
0.09999999999999432,4589,10,73,33
0.09999999999999432,4589,11,73,31
0.10000000000000853,4589,12,73,90
0.10000000000000853,4589,13,73,81
0.10000000000000853,4589,14,73,25
0.004545454545450411,4589,15,73,75
0.09999999999999432,4590,0,73,90
0.09999999999999432,4590,1,73,16
0.09999999999999432,4590,2,73,22
0.09999999999999432,4590,3,73,117
0.10000000000000853,4590,4,73,79
0.09999999999999432,4590,5,73,20
0.10000000000000853,4590,6,73,72
0.10000000000000853,4590,7,73,83
0.09999999999999432,4590,8,73,59
0.10000000000000853,4590,9,73,90
0.09999999999999432,4590,10,73,24
0.10000000000000853,4590,11,73,77
0.10000000000000853,4590,12,73,16
0.09999999999999432,4590,13,73,83
0.10000000000000853,4590,14,73,109
0.09999999999999432,4590,15,73,94
0.09999999999999432,4591,0,73,50
0.09999999999999432,4591,1,73,102
0.10000000000000853,4591,2,73,32
0.10000000000000853,4591,3,73,55
0.09999999999999432,4591,4,73,103
0.09999999999999432,4591,5,73,62
0.10000000000000853,4591,6,73,119
0.09999999999999432,4591,7,73,114
0.09999999999999432,4591,8,73,75
0.10000000000000853,4591,9,73,33
0.05909090909091219,4591,10,73,73
0.09999999999999432,4591,11,73,102
0.09999999999999432,4591,12,73,17
0.10000000000000853,4591,13,73,29
0.09999999999999432,4591,14,73,106
0.10000000000000853,4591,15,73,71
0.09999999999999432,4592,0,73,27
0.09999999999999432,4592,1,73,78
0.09999999999999432,4592,2,73,125
0.09999999999999432,4592,3,73,93
0.10000000000000853,4592,4,73,70
0.09999999999999432,4592,5,73,81
0.09999999999999432,4592,6,73,74
0.09999999999999432,4592,7,73,34
0.09999999999999432,4592,8,73,90
0.09999999999999432,4592,9,73,104
0.10000000000000853,4592,10,73,105
0.10000000000000853,4592,11,73,110
0.09999999999999432,4592,12,73,74
0.09999999999999432,4592,13,73,90
0.09999999999999432,4592,14,73,27
0.10000000000000853,4592,15,73,91
0.09999999999999432,4593,0,73,18
0.10000000000000853,4593,1,73,17
0.06818181818182723,4593,2,73,30
0.01590909090909065,4593,3,73,67
0.10000000000000853,4593,4,73,108
0.09999999999999432,4593,5,73,103
0.09999999999999432,4593,6,73,89
0.10000000000000853,4593,7,73,101
0.09999999999999432,4593,8,73,88
0.10000000000000853,4593,9,73,18
0.10000000000000853,4593,10,73,54
0.04772727272727195,4593,11,73,96
0.09999999999999432,4593,12,73,95
0.09999999999999432,4593,13,73,50
0.09999999999999432,4593,14,73,93
0.09999999999999432,4593,15,73,72
0.10000000000000853,4594,0,73,57
0.09999999999999432,4594,1,73,88
0.10000000000000853,4594,2,73,107
0.09999999999999432,4594,3,73,84
0.10000000000000853,4594,4,73,80
0.09999999999999432,4594,5,73,69
0.10000000000000853,4594,6,73,95
0.09999999999999432,4594,7,73,3
0.09999999999999432,4594,8,73,104
0.013636363636351234,4594,9,73,127
0.09999999999999432,4594,10,73,50
0.10000000000002274,4594,11,73,115
0.09999999999999432,4594,12,73,97
0.09999999999999432,4594,13,73,59
0.09999999999999432,4594,14,73,94
0.09999999999999432,4594,15,73,123
0.09999999999999432,4595,0,73,62
0.09999999999999432,4595,1,73,68
0.10000000000002274,4595,2,73,48
0.09999999999999432,4595,3,73,67
0.01590909090910486,4595,4,73,49
0.10000000000002274,4595,5,73,107
0.09999999999999432,4595,6,73,122
0.09999999999999432,4595,7,73,102
0.10000000000002274,4595,8,73,108
0.09999999999999432,4595,9,73,85
0.09999999999999432,4595,10,73,97
0.09999999999999432,4595,11,73,14
0.09999999999999432,4595,12,73,107
0.004545454545450411,4595,13,73,78
0.09999999999999432,4595,14,73,65
0.10000000000002274,4595,15,73,18
0.09999999999999432,4596,0,73,84
0.10000000000002274,4596,1,73,107
0.09999999999999432,4596,2,73,93
0.09999999999999432,4596,3,73,64
0.09999999999999432,4596,4,73,76
0.09999999999999432,4596,5,73,58
0.09999999999999432,4596,6,73,92
0.09999999999999432,4596,7,73,80
0.09999999999999432,4596,8,73,30
0.10000000000002274,4596,9,73,95
0.09999999999999432,4596,10,73,13
0.09999999999999432,4596,11,73,71
0.09999999999999432,4596,12,73,91
0.09999999999999432,4596,13,73,54
0.10000000000002274,4596,14,73,4
0.036363636363660135,4596,15,73,40
0.10000000000002274,4597,0,73,114
0.09999999999999432,4597,1,73,70
0.10000000000002274,4597,2,73,99
0.09999999999999432,4597,3,73,19
0.04772727272728616,4597,4,73,43
0.09999999999999432,4597,5,73,89
0.09999999999999432,4597,6,73,60
0.09999999999999432,4597,7,73,127
0.09999999999999432,4597,8,73,116
0.10000000000002274,4597,9,73,96
0.09999999999999432,4597,10,73,127
0.09999999999999432,4597,11,73,27
0.09999999999999432,4597,12,73,118
0.09999999999999432,4597,13,73,107
0.09999999999999432,4597,14,73,50
0.09999999999999432,4597,15,73,29
0.09999999999999432,4598,0,73,86
0.09999999999999432,4598,1,73,55
0.09999999999999432,4598,2,73,73
0.09999999999999432,4598,3,73,113
0.09999999999999432,4598,4,73,91
0.10000000000002274,4598,5,73,69
0.09999999999999432,4598,6,73,110
0.10000000000002274,4598,7,73,91
0.10000000000002274,4598,8,73,53
0.10000000000002274,4598,9,73,81
0.09999999999999432,4598,10,73,74
0.09999999999999432,4598,11,73,103
0.09999999999999432,4598,12,73,13
0.09999999999999432,4598,13,73,108
0.09999999999999432,4598,14,73,38
0.09999999999999432,4598,15,73,125
0.09999999999999432,4599,0,73,82
0.09999999999999432,4599,1,73,117
0.09999999999999432,4599,2,73,126
0.09999999999999432,4599,3,73,35
0.09999999999999432,4599,4,73,111
0.09999999999999432,4599,5,73,36
0.10000000000002274,4599,6,73,127
0.09999999999999432,4599,7,73,127
0.09999999999999432,4599,8,73,127
0.09999999999999432,4599,9,73,38
0.09999999999999432,4599,10,73,85
0.09999999999999432,4599,11,73,99
0.09999999999999432,4599,12,73,99
0.10000000000002274,4599,13,73,64
0.09999999999999432,4599,14,73,57
0.09999999999999432,4599,15,73,25
0.09999999999999432,4600,0,73,25
0.09999999999999432,4600,1,73,127
0.09999999999999432,4600,2,73,127
0.10000000000002274,4600,3,73,127
0.09999999999999432,4600,4,73,79
0.09999999999999432,4600,5,73,64
0.10000000000002274,4600,6,73,25
0.06818181818184144,4600,7,73,75
0.09999999999999432,4600,8,73,16
0.09999999999999432,4600,9,73,123
0.10000000000002274,4600,10,73,127
0.10000000000002274,4600,11,73,76
0.09999999999999432,4600,12,73,119
0.09999999999999432,4600,13,73,127
0.09999999999999432,4600,14,73,127
0.09999999999999432,4600,15,73,127
0.09999999999999432,4601,0,73,127
0.10000000000002274,4601,1,73,62
0.10000000000002274,4601,2,73,106
0.09999999999999432,4601,3,73,14
0.06818181818181301,4601,4,73,17
0.09999999999999432,4601,5,73,127
0.09999999999999432,4601,6,73,127
0.10000000000000142,4601,7,69,1
0.09999999999999787,4601,8,69,1
0.09999999999999787,4601,9,69,10
0.09999999999999787,4601,10,69,9
0.09999999999999787,4601,11,69,1
0.10000000000000142,4601,12,69,2
0.10000000000000142,4601,13,69,7
0.09999999999999787,4601,14,69,2
0.10000000000000142,4601,15,69,9
0.06818181818182012,4602,0,69,15
0.10000000000000142,4602,1,69,6
0.10000000000000142,4602,2,69,5
0.09999999999999787,4602,3,69,29
0.09999999999999787,4602,4,69,9
0.10000000000000142,4602,5,69,11
0.09999999999999787,4602,6,69,15
0.10000000000000142,4602,7,69,1
0.10000000000000142,4602,8,69,2
0.10000000000000142,4602,9,69,1
0.10000000000000142,4602,10,69,12
0.10000000000000142,4602,11,69,3
0.10000000000000142,4602,12,69,4
0.09999999999999432,4602,13,69,10
0.10000000000000142,4602,14,69,11
0.09999999999999432,4602,15,69,6
0.10000000000000142,4603,0,69,3
0.013636363636365445,4603,1,69,20
0.09999999999999432,4603,2,69,67
0.10000000000000142,4603,3,69,3
0.10000000000000142,4603,4,69,15
0.09999999999999432,4603,5,69,15
0.09999999999999432,4603,6,69,26
0.10000000000000142,4603,7,69,28
0.10000000000000142,4603,8,69,10
0.09999999999999432,4603,9,69,9
0.09999999999999432,4603,10,69,2
0.10000000000000142,4603,11,69,3
0.10000000000000142,4603,12,69,16
0.10000000000000142,4603,13,69,11
0.10000000000000142,4603,14,69,3
0.10000000000000142,4603,15,69,1
0.10000000000000142,4604,0,69,7
0.10000000000000142,4604,1,69,2
0.06818181818182012,4604,2,69,4
0.10000000000000142,4604,3,69,4
0.10000000000000142,4604,4,69,11
0.10000000000000142,4604,5,69,26
0.09999999999999432,4604,6,69,7
0.10000000000000142,4604,7,69,10
0.10000000000000142,4604,8,69,4
0.10000000000000142,4604,9,69,4
0.10000000000000142,4604,10,69,8
0.09999999999999432,4604,11,69,8
0.09999999999999432,4604,12,69,8
0.10000000000000142,4604,13,69,3
0.06818181818182012,4604,14,69,4
0.09999999999999432,4604,15,69,13
0.09999999999999432,4605,0,69,27
0.10000000000000142,4605,1,69,29
0.10000000000000142,4605,2,69,33
0.10000000000000142,4605,3,69,26
0.10000000000000142,4605,4,69,4
0.004545454545450411,4605,5,69,14
0.09999999999999432,4605,6,69,8
0.10000000000000142,4605,7,69,9
0.10000000000000142,4605,8,69,6
0.09999999999999432,4605,9,69,5
0.09999999999999432,4605,10,69,8
0.09999999999999432,4605,11,69,11
0.10000000000000853,4605,12,69,12
0.10000000000000853,4605,13,69,5
0.10000000000000853,4605,14,69,10
0.10000000000000853,4605,15,69,16
0.10000000000000853,4606,0,69,12
0.09999999999999432,4606,1,69,10
0.09999999999999432,4606,2,69,8
0.09999999999999432,4606,3,69,13
0.09999999999999432,4606,4,69,2
0.09999999999999432,4606,5,69,8
0.10000000000000853,4606,6,69,5
0.09999999999999432,4606,7,69,10
0.09999999999999432,4606,8,69,8
0.09999999999999432,4606,9,69,8
0.09999999999999432,4606,10,69,5
0.10000000000000853,4606,11,69,44
0.10000000000000853,4606,12,69,102
0.10000000000000853,4606,13,69,34
0.09999999999999432,4606,14,69,93
0.10000000000000853,4606,15,69,54
0.09999999999999432,4607,0,69,19
0.09999999999999432,4607,1,69,16
0.09999999999999432,4607,2,69,20
0.09999999999999432,4607,3,69,8
0.09999999999999432,4607,4,69,23
0.09999999999999432,4607,5,69,4
0.09999999999999432,4607,6,69,13
0.10000000000000853,4607,7,69,21
0.10000000000000853,4607,8,69,17
0.09999999999999432,4607,9,69,13
0.09999999999999432,4607,10,69,22
0.09999999999999432,4607,11,69,17
0.09999999999999432,4607,12,69,21
0.10000000000000853,4607,13,69,26
0.09999999999999432,4607,14,69,17
0.09999999999999432,4607,15,69,8
0.10000000000000853,4608,0,69,10
0.10000000000000853,4608,1,69,13
0.09999999999999432,4608,2,69,19
0.09999999999999432,4608,3,69,8
0.09999999999999432,4608,4,69,10
0.10000000000000853,4608,5,69,22
0.10000000000000853,4608,6,69,21
0.09999999999999432,4608,7,69,11
0.10000000000000853,4608,8,69,13
0.09999999999999432,4608,9,69,9
0.09999999999999432,4608,10,69,22
0.09999999999999432,4608,11,69,10
0.09999999999999432,4608,12,69,20
0.09999999999999432,4608,13,69,20
0.09999999999999432,4608,14,69,19
0.09999999999999432,4608,15,69,22
0.09999999999999432,4609,0,69,19
0.09999999999999432,4609,1,69,20
0.09999999999999432,4609,2,69,15
0.09999999999999432,4609,3,69,23
0.09999999999999432,4609,4,69,19
0.09999999999999432,4609,5,69,12
0.09999999999999432,4609,6,69,25
0.09999999999999432,4609,7,69,15
0.10000000000002274,4609,8,69,19
0.09999999999999432,4609,9,69,21
0.09999999999999432,4609,10,69,18
0.09999999999999432,4609,11,69,21
0.10000000000002274,4609,12,69,24
0.09999999999999432,4609,13,69,11
0.09999999999999432,4609,14,69,16
0.09999999999999432,4609,15,69,23
0.09999999999999432,4610,0,69,11
0.09999999999999432,4610,1,69,16
0.09999999999999432,4610,2,69,25
0.10000000000002274,4610,3,69,19
0.09999999999999432,4610,4,69,14
0.09999999999999432,4610,5,69,22
0.09999999999999432,4610,6,69,20
0.09999999999999432,4610,7,69,15
0.09999999999999432,4610,8,69,19
0.09999999999999432,4610,9,69,17
0.09999999999999432,4610,10,69,33
0.09999999999999432,4610,11,69,40
0.09999999999999432,4610,12,69,26
0.10000000000002274,4610,13,69,9
0.09999999999999432,4610,14,69,11
0.09999999999999432,4610,15,69,12
0.09999999999999432,4611,0,69,4
0.10000000000002274,4611,1,69,16
0.09999999999999432,4611,2,69,8
0.09999999999999432,4611,3,69,6
0.09999999999999432,4611,4,69,8
0.09999999999999432,4611,5,69,14
0.09999999999999432,4611,6,69,17
0.03636363636363171,4611,7,69,29
0.09999999999999432,4611,8,69,29
0.10000000000002274,4611,9,69,31
0.09999999999999432,4611,10,69,30
0.10000000000002274,4611,11,69,3
0.09999999999999432,4611,12,69,25
0.09999999999999432,4611,13,69,15
0.09999999999999432,4611,14,69,32
0.09999999999999432,4611,15,69,2
0.09999999999999432,4612,0,69,10
0.09999999999999432,4612,1,69,13
0.09999999999999432,4612,2,69,18
0.09999999999999432,4612,3,69,17
0.09999999999999432,4612,4,69,19
0.09999999999999432,4612,5,69,17
0.09999999999999432,4612,6,69,12
0.09999999999999432,4612,7,69,13
0.09999999999999432,4612,8,69,11
0.09999999999999432,4612,9,69,23
0.09999999999999432,4612,10,69,17
0.09999999999999432,4612,11,69,10
0.09999999999999432,4612,12,69,20
0.09999999999999432,4612,13,69,14
0.09999999999999432,4612,14,69,14
0.09999999999999432,4612,15,69,14
0.10000000000002274,4613,0,69,21
0.09999999999999432,4613,1,69,11
0.10000000000002274,4613,2,69,33
0.09999999999999432,4613,3,69,11
0.09999999999999432,4613,4,69,8
0.09999999999999432,4613,5,69,7
0.10000000000002274,4613,6,69,16
0.09999999999999432,4613,7,69,11
0.09999999999999432,4613,8,69,6
0.10000000000002274,4613,9,69,1
0.09999999999999964,4613,10,56,101
0.10000000000000142,4613,11,56,58
0.09999999999999964,4613,12,56,60
0.09999999999999964,4613,13,56,74
0.09999999999999964,4613,14,56,72
0.10000000000000142,4613,15,56,79
0.10000000000000142,4614,0,56,70
0.10000000000000142,4614,1,56,69
0.10000000000000142,4614,2,56,78
0.10000000000000142,4614,3,56,79
0.09999999999999787,4614,4,56,97
0.10000000000000142,4614,5,56,127
0.10000000000000142,4614,6,56,66
0.10000000000000142,4614,7,56,68
0.09999999999999787,4614,8,56,72
0.10000000000000142,4614,9,56,84
0.10000000000000142,4614,10,56,82
0.09999999999999787,4614,11,56,99
0.09999999999999787,4614,12,56,17
0.09999999999999787,4614,13,56,15
0.10000000000000142,4614,14,56,51
0.09999999999999787,4614,15,56,56
0.09999999999999787,4615,0,56,68
0.09999999999999787,4615,1,56,72
0.09999999999999787,4615,2,56,49
0.10000000000000142,4615,3,56,48
0.10000000000000142,4615,4,56,66
0.10000000000000142,4615,5,56,49
0.10000000000000142,4615,6,56,64
0.10000000000000142,4615,7,56,67
0.10000000000000142,4615,8,56,71
0.10000000000000142,4615,9,56,35
0.10000000000000142,4615,10,56,88
0.10000000000000142,4615,11,56,46
0.10000000000000142,4615,12,56,71
0.10000000000000142,4615,13,56,72
0.10000000000000142,4615,14,56,50
0.09999999999999432,4615,15,56,38
0.09999999999999432,4616,0,56,47
0.10000000000000142,4616,1,56,15
0.09999999999999432,4616,2,56,23
0.09999999999999432,4616,3,56,34
0.09999999999999432,4616,4,56,24
0.09999999999999432,4616,5,56,43
0.09999999999999432,4616,6,56,57
0.09999999999999432,4616,7,56,54
0.10000000000000142,4616,8,56,37
0.09999999999999432,4616,9,56,42
0.09999999999999432,4616,10,56,53
0.10000000000000142,4616,11,56,33
0.10000000000000142,4616,12,56,40
0.10000000000000142,4616,13,56,29
0.10000000000000142,4616,14,56,35
0.10000000000000142,4616,15,56,47
0.10000000000000142,4617,0,56,33
0.10000000000000142,4617,1,56,40
0.10000000000000142,4617,2,56,51
0.10000000000000142,4617,3,56,40
0.10000000000000142,4617,4,56,34
0.10000000000000142,4617,5,56,22
0.10000000000000142,4617,6,56,26
0.10000000000000142,4617,7,56,23
0.10000000000000142,4617,8,56,35
0.10000000000000142,4617,9,56,41
0.10000000000000142,4617,10,56,29
0.10000000000000142,4617,11,56,33
0.09999999999999432,4617,12,56,43
0.10000000000000142,4617,13,56,18
0.10000000000000142,4617,14,56,40
0.10000000000000142,4617,15,56,44
0.10000000000000142,4618,0,56,52
0.10000000000000142,4618,1,56,44
0.10000000000000142,4618,2,56,35
0.10000000000000142,4618,3,56,46
0.10000000000000142,4618,4,56,36
0.10000000000000142,4618,5,56,37
0.09999999999999432,4618,6,56,30
0.10000000000000142,4618,7,56,55
0.10000000000000142,4618,8,56,29
0.10000000000000142,4618,9,56,31
0.10000000000000142,4618,10,56,33
0.09999999999999432,4618,11,56,34
0.09999999999999432,4618,12,56,38
0.09999999999999432,4618,13,56,53
0.10000000000000142,4618,14,56,70
0.09999999999999432,4618,15,56,43
0.09999999999999432,4619,0,56,21
0.09999999999999432,4619,1,56,32
0.09999999999999432,4619,2,56,37
0.10000000000000142,4619,3,56,28
0.09999999999999432,4619,4,56,55
0.09999999999999432,4619,5,56,45
0.10000000000000853,4619,6,56,39
0.09999999999999432,4619,7,56,45
0.10000000000000853,4619,8,56,44
0.10000000000000853,4619,9,56,32
0.10000000000000853,4619,10,56,44
0.09999999999999432,4619,11,56,39
0.09999999999999432,4619,12,56,48
0.10000000000000853,4619,13,56,57
0.09999999999999432,4619,14,56,44
0.09999999999999432,4619,15,56,50
0.09999999999999432,4620,0,56,53
0.09999999999999432,4620,1,56,57
0.09999999999999432,4620,2,56,58
0.10000000000000853,4620,3,56,61
0.10000000000000853,4620,4,56,66
0.09999999999999432,4620,5,56,52
0.09999999999999432,4620,6,56,59
0.10000000000000853,4620,7,56,35
0.10000000000000853,4620,8,56,29
0.10000000000000853,4620,9,56,54
0.09999999999999432,4620,10,56,59
0.09999999999999432,4620,11,56,57
0.10000000000000853,4620,12,56,46
0.09999999999999432,4620,13,56,35
0.10000000000000853,4620,14,56,55
0.09999999999999432,4620,15,56,37
0.10000000000000853,4621,0,56,49
0.10000000000000853,4621,1,56,75
0.10000000000000853,4621,2,56,44
0.09999999999999432,4621,3,56,53
0.10000000000000853,4621,4,56,67
0.09999999999999432,4621,5,56,100
0.10000000000000853,4621,6,56,56
0.10000000000000853,4621,7,56,61
0.09999999999999432,4621,8,56,47
0.09999999999999432,4621,9,56,88
0.09999999999999432,4621,10,56,65
0.09999999999999432,4621,11,56,22
0.09999999999999432,4621,12,56,72
0.10000000000000853,4621,13,56,39
0.09999999999999432,4621,14,56,82
0.10000000000000853,4621,15,56,59
0.09999999999999432,4622,0,56,31
0.09999999999999432,4622,1,56,51
0.09999999999999432,4622,2,56,23
0.09999999999999432,4622,3,56,17
0.09999999999999432,4622,4,56,26
0.09999999999999432,4622,5,56,33
0.10000000000000853,4622,6,56,44
0.09999999999999432,4622,7,56,23
0.10000000000000853,4622,8,56,61
0.09999999999999432,4622,9,56,28
0.09999999999999432,4622,10,56,52
0.09999999999999432,4622,11,56,48
0.09999999999999432,4622,12,56,36
0.10000000000000853,4622,13,56,41
0.09999999999999432,4622,14,56,24
0.09999999999999432,4622,15,56,14
0.09999999999999432,4623,0,56,19
0.09999999999999432,4623,1,56,35
0.10000000000000853,4623,2,56,27
0.10000000000000853,4623,3,56,37
0.10000000000000853,4623,4,56,36
0.10000000000000853,4623,5,56,30
0.09999999999999432,4623,6,56,25
0.09999999999999432,4623,7,56,39
0.09999999999999432,4623,8,56,40
0.10000000000000853,4623,9,56,41
0.10000000000000853,4623,10,56,39
0.09999999999999432,4623,11,56,15
0.10000000000000853,4623,12,56,29
0.10000000000000853,4623,13,56,30
0.10000000000000853,4623,14,56,33
0.09999999999999432,4623,15,56,32
0.09999999999999432,4624,0,56,24
0.10000000000000853,4624,1,56,36
0.09999999999999432,4624,2,56,59
0.10000000000000853,4624,3,56,34
0.09999999999999432,4624,4,56,37
0.09999999999999432,4624,5,56,47
0.09999999999999432,4624,6,56,51
0.10000000000000853,4624,7,56,39
0.09999999999999432,4624,8,56,13
0.10000000000000853,4624,9,56,42
0.09999999999999432,4624,10,56,35
0.09999999999999432,4624,11,56,60
0.10000000000000853,4624,12,56,55
0.09999999999999432,4624,13,56,53
0.09999999999999432,4624,14,56,43
0.09999999999999432,4624,15,56,53
0.09999999999999432,4625,0,56,40
0.09999999999999432,4625,1,56,47
0.10000000000000853,4625,2,56,49
0.09999999999999432,4625,3,56,66
0.09999999999999432,4625,4,56,57
0.09999999999999432,4625,5,56,44
0.10000000000000853,4625,6,56,61
0.09999999999999432,4625,7,56,61
0.10000000000000853,4625,8,56,70
0.09999999999999432,4625,9,56,60
0.10000000000000853,4625,10,56,37
0.10000000000000853,4625,11,56,48
0.056818181818186986,4625,12,56,57
0.10000000000000853,4625,13,56,57
0.10000000000000853,4625,14,56,56
0.10000000000000853,4625,15,56,58
0.09999999999999432,4626,0,56,68
0.10000000000000853,4626,1,56,77
0.09999999999999432,4626,2,56,53
0.10000000000000853,4626,3,56,46
0.09999999999999432,4626,4,56,61
0.10000000000000853,4626,5,56,54
0.09999999999999432,4626,6,56,72
0.09999999999999432,4626,7,56,58
0.10000000000002274,4626,8,56,42
0.09999999999999432,4626,9,56,73
0.09999999999999432,4626,10,56,53
0.10000000000002274,4626,11,56,58
0.09999999999999432,4626,12,56,56
0.10000000000002274,4626,13,56,59
0.09999999999999432,4626,14,56,37
0.09999999999999432,4626,15,56,60
0.09999999999999432,4627,0,56,50
0.09999999999999432,4627,1,56,35
0.09999999999999432,4627,2,56,57
0.09999999999999432,4627,3,56,53
0.09999999999999432,4627,4,56,32
0.09999999999999432,4627,5,56,58
0.09999999999999432,4627,6,56,51
0.09999999999999432,4627,7,56,44
0.09999999999999432,4627,8,56,51
0.09999999999999432,4627,9,56,63
0.09999999999999432,4627,10,56,58
0.09999999999999432,4627,11,56,60
0.09999999999999432,4627,12,56,68
0.10000000000002274,4627,13,56,54
0.09999999999999432,4627,14,56,29
0.09999999999999432,4627,15,56,41
0.09999999999999432,4628,0,56,51
0.10000000000002274,4628,1,56,47
0.10000000000002274,4628,2,56,65
0.09999999999999432,4628,3,56,41
0.09999999999999432,4628,4,56,62
0.09999999999999432,4628,5,56,57
0.09999999999999432,4628,6,56,50
0.10000000000002274,4628,7,56,58
0.09999999999999432,4628,8,56,55
0.09999999999999432,4628,9,56,44
0.09999999999999432,4628,10,56,41
0.09999999999999432,4628,11,56,33
0.10000000000002274,4628,12,56,41
0.09999999999999432,4628,13,56,49
0.09999999999999432,4628,14,56,42
0.09999999999999432,4628,15,56,42
0.09999999999999432,4629,0,56,26
0.09999999999999432,4629,1,56,58
0.10000000000002274,4629,2,56,39
0.09999999999999432,4629,3,56,71
0.10000000000002274,4629,4,56,49
0.09999999999999432,4629,5,56,54
0.09999999999999432,4629,6,56,49
0.09999999999999432,4629,7,56,58
0.09999999999999432,4629,8,56,43
0.09999999999999432,4629,9,56,51
0.10000000000002274,4629,10,56,61
0.09999999999999432,4629,11,56,66
0.09999999999999432,4629,12,56,55
0.10000000000002274,4629,13,56,44
0.10000000000002274,4629,14,56,42
0.09999999999999432,4629,15,56,27
0.09999999999999432,4630,0,56,30
0.09999999999999432,4630,1,56,48
0.09999999999999432,4630,2,56,49
0.09999999999999432,4630,3,56,54
0.09999999999999432,4630,4,56,44
0.09999999999999432,4630,5,56,45
0.09999999999999432,4630,6,56,54
0.09999999999999432,4630,7,56,41
0.09999999999999432,4630,8,56,75
0.09999999999999432,4630,9,56,74
0.10000000000002274,4630,10,56,61
0.10000000000002274,4630,11,56,75
0.10000000000002274,4630,12,56,59
0.09999999999999432,4630,13,56,54
0.09999999999999432,4630,14,56,84
0.09999999999999432,4630,15,56,70
0.10000000000002274,4631,0,56,65
0.10000000000002274,4631,1,56,44
0.10000000000002274,4631,2,56,44
0.09999999999999432,4631,3,56,39
0.10000000000002274,4631,4,56,69
0.09999999999999432,4631,5,56,68
0.09999999999999432,4631,6,56,51
0.10000000000002274,4631,7,56,59
0.09999999999999432,4631,8,56,51
0.09999999999999432,4631,9,56,36
0.09999999999999432,4631,10,56,45
0.09999999999999432,4631,11,56,78
0.09999999999999432,4631,12,56,45
0.10000000000002274,4631,13,56,62
0.10000000000002274,4631,14,56,54
0.09999999999999432,4631,15,56,65
0.10000000000002274,4632,0,56,43
0.09999999999999432,4632,1,56,54
0.09999999999999432,4632,2,56,54
0.09999999999999432,4632,3,56,62
0.10000000000002274,4632,4,56,58
0.09999999999999432,4632,5,56,41
0.09999999999999432,4632,6,56,47
0.09999999999999432,4632,7,56,60
0.1,4632,8,90,37
0.09999999999999998,4632,9,90,113
0.09999999999999998,4632,10,90,124
0.09999999999999998,4632,11,90,127
0.09999999999999998,4632,12,90,127
0.10000000000000009,4632,13,90,115
0.10000000000000009,4632,14,90,108
0.10000000000000009,4632,15,90,127
0.10000000000000009,4633,0,90,123
0.09999999999999964,4633,1,90,15
0.09999999999999964,4633,2,90,49
0.09999999999999964,4633,3,90,127
0.10000000000000009,4633,4,90,119
0.09999999999999964,4633,5,90,11
0.09999999999999964,4633,6,90,127
0.09999999999999964,4633,7,90,14
0.09999999999999964,4633,8,90,127
0.09999999999999964,4633,9,90,11
0.10000000000000053,4633,10,90,43
0.09999999999999964,4633,11,90,127
0.09999999999999964,4633,12,90,119
0.10000000000000053,4633,13,90,9
0.09999999999999964,4633,14,90,127
0.09999999999999964,4633,15,90,15
0.10000000000000053,4634,0,90,123
0.10000000000000053,4634,1,90,17
0.09999999999999964,4634,2,90,41
0.10000000000000053,4634,3,90,127
0.09999999999999964,4634,4,90,121
0.09999999999999964,4634,5,90,10
0.09999999999999964,4634,6,90,127
0.09999999999999964,4634,7,90,17
0.09999999999999964,4634,8,90,127
0.10000000000000142,4634,9,90,9
0.09999999999999964,4634,10,90,75
0.09999999999999964,4634,11,90,110
0.09999999999999964,4634,12,90,96
0.10000000000000142,4634,13,90,127
0.09999999999999964,4634,14,90,127
0.09999999999999964,4634,15,90,127
0.09999999999999964,4635,0,90,122
0.09999999999999964,4635,1,90,9
0.10000000000000142,4635,2,90,11
0.09999999999999964,4635,3,90,127
0.09999999999999964,4635,4,90,105
0.10000000000000142,4635,5,90,5
0.09999999999999964,4635,6,90,127
0.09999999999999964,4635,7,90,9
0.09999999999999964,4635,8,90,108
0.09999999999999964,4635,9,90,6
0.09999999999999964,4635,10,90,9
0.10000000000000142,4635,11,90,127
0.09999999999999964,4635,12,90,103
0.09999999999999964,4635,13,90,121
0.10000000000000142,4635,14,90,127
0.09999999999999964,4635,15,90,7
0.09999999999999787,4636,0,90,112
0.10000000000000142,4636,1,90,8
0.10000000000000142,4636,2,90,8
0.09999999999999787,4636,3,90,127
0.10000000000000142,4636,4,90,104
0.10000000000000142,4636,5,90,6
0.10000000000000142,4636,6,90,127
0.10000000000000142,4636,7,90,5
0.10000000000000142,4636,8,90,103
0.10000000000000142,4636,9,90,8
0.10000000000000142,4636,10,90,9
0.10000000000000142,4636,11,90,127
0.10000000000000142,4636,12,90,99
0.10000000000000142,4636,13,90,127
0.10000000000000142,4636,14,90,127
0.10000000000000142,4636,15,90,7
0.10000000000000142,4637,0,90,97
0.10000000000000142,4637,1,90,9
0.10000000000000142,4637,2,90,10
0.10000000000000142,4637,3,90,127
0.10000000000000142,4637,4,90,87
0.10000000000000142,4637,5,90,6
0.10000000000000142,4637,6,90,127
0.10000000000000142,4637,7,90,8
0.10000000000000142,4637,8,90,95
0.10000000000000142,4637,9,90,8
0.10000000000000142,4637,10,90,9
0.10000000000000142,4637,11,90,127
0.09999999999999787,4637,12,90,108
0.10000000000000142,4637,13,90,127
0.10000000000000142,4637,14,90,127
0.10000000000000142,4637,15,90,7
0.10000000000000142,4638,0,90,98
0.09999999999999787,4638,1,90,9
0.10000000000000142,4638,2,90,8
0.10000000000000142,4638,3,90,127
0.09999999999999787,4638,4,90,93
0.10000000000000142,4638,5,90,6
0.10000000000000142,4638,6,90,127
0.09999999999999787,4638,7,90,8
0.10000000000000142,4638,8,90,93
0.09999999999999787,4638,9,90,63
0.09999999999999787,4638,10,90,30
0.10000000000000142,4638,11,90,8
0.10000000000000142,4638,12,90,127
0.10000000000000142,4638,13,90,127
0.09999999999999787,4638,14,90,112
0.09999999999999787,4638,15,90,127
0.10000000000000142,4639,0,90,73
0.10000000000000142,4639,1,90,127
0.09999999999999787,4639,2,90,80
0.09999999999999787,4639,3,90,7
0.09999999999999787,4639,4,90,8
0.09999999999999787,4639,5,90,127
0.09999999999999787,4639,6,90,66
0.09999999999999787,4639,7,90,12
0.10000000000000142,4639,8,90,127
0.10000000000000142,4639,9,90,8
0.10000000000000142,4639,10,90,80
0.10000000000000142,4639,11,90,8
0.10000000000000142,4639,12,90,8
0.10000000000000142,4639,13,90,127
0.09999999999999432,4639,14,90,76
0.10000000000000142,4639,15,90,91
0.10000000000000142,4640,0,90,127
0.10000000000000142,4640,1,90,8
0.10000000000000142,4640,2,90,75
0.09999999999999432,4640,3,90,9
0.10000000000000142,4640,4,90,8
0.10000000000000142,4640,5,90,126
0.09999999999999432,4640,6,90,46
0.10000000000000142,4640,7,90,127
0.09999999999999432,4640,8,90,127
0.10000000000000142,4640,9,90,127
0.10000000000000142,4640,10,90,82
0.10000000000000142,4640,11,90,101
0.10000000000000142,4640,12,90,82
0.10000000000000142,4640,13,90,104
0.10000000000000142,4640,14,90,127
0.10000000000000142,4640,15,90,71
0.10000000000000142,4641,0,90,81
0.10000000000000142,4641,1,90,127
0.09999999999999432,4641,2,90,15
0.10000000000000142,4641,3,90,86
0.10000000000000142,4641,4,90,13
0.10000000000000142,4641,5,90,4
0.10000000000000142,4641,6,90,8
0.10000000000000142,4641,7,90,20
0.10000000000000142,4641,8,90,127
0.10000000000000142,4641,9,90,73
0.09999999999999432,4641,10,90,9
0.10000000000000142,4641,11,90,127
0.10000000000000142,4641,12,90,13
0.10000000000000142,4641,13,90,83
0.10000000000000142,4641,14,90,13
0.10000000000000142,4641,15,90,12
0.10000000000000142,4642,0,90,8
0.10000000000000142,4642,1,90,32
0.10000000000000142,4642,2,90,127
0.10000000000000142,4642,3,90,73
0.10000000000000142,4642,4,90,76
0.10000000000000142,4642,5,90,35
0.10000000000000142,4642,6,90,127
0.10000000000000142,4642,7,90,10
0.10000000000000142,4642,8,90,1
0.09999999999999432,4642,9,90,86
0.10000000000000142,4642,10,90,14
0.10000000000000142,4642,11,90,11
0.10000000000000142,4642,12,90,9
0.10000000000000142,4642,13,90,28
0.09999999999999432,4642,14,90,127
0.10000000000000142,4642,15,90,67
0.10000000000000142,4643,0,90,8
0.09999999999999432,4643,1,90,127
0.10000000000000142,4643,2,90,13
0.10000000000000142,4643,3,90,2
0.10000000000000142,4643,4,90,85
0.10000000000000142,4643,5,90,14
0.09999999999999432,4643,6,90,8
0.10000000000000142,4643,7,90,8
0.10000000000000142,4643,8,90,48
0.10000000000000142,4643,9,90,127
0.10000000000000142,4643,10,90,72
0.10000000000000142,4643,11,90,81
0.10000000000000142,4643,12,90,62
0.10000000000000142,4643,13,90,127
0.10000000000000142,4643,14,90,12
0.10000000000000142,4643,15,90,88
0.10000000000000142,4644,0,90,15
0.09999999999999432,4644,1,90,9
0.10000000000000142,4644,2,90,9
0.09999999999999432,4644,3,90,19
0.10000000000000142,4644,4,90,127
0.10000000000000142,4644,5,90,75
0.10000000000000142,4644,6,90,8
0.10000000000000142,4644,7,90,127
0.10000000000000142,4644,8,90,13
0.09999999999999432,4644,9,90,2
0.10000000000000142,4644,10,90,80
0.10000000000000142,4644,11,90,13
0.10000000000000142,4644,12,90,10
0.10000000000000142,4644,13,90,8
0.09999999999999432,4644,14,90,10
0.10000000000000142,4644,15,90,127
0.10000000000000142,4645,0,90,76
0.10000000000000142,4645,1,90,80
0.09999999999999432,4645,2,90,33
0.10000000000000142,4645,3,90,127
0.10000000000000142,4645,4,90,12
0.10000000000000142,4645,5,90,89
0.10000000000000142,4645,6,90,14
0.10000000000000142,4645,7,90,13
0.10000000000000142,4645,8,90,9
0.10000000000000142,4645,9,90,8
0.10000000000000142,4645,10,90,127
0.10000000000000142,4645,11,90,65
0.10000000000000142,4645,12,90,7
0.10000000000000142,4645,13,90,127
0.10000000000000142,4645,14,90,13
0.10000000000000142,4645,15,90,2
0.10000000000000142,4646,0,90,78
0.10000000000000142,4646,1,90,15
0.10000000000000142,4646,2,90,127
0.10000000000000142,4646,3,90,75
0.10000000000000142,4646,4,90,37
0.10000000000000142,4646,5,90,127
0.10000000000000142,4646,6,90,63
0.09999999999999432,4646,7,90,71
0.10000000000000142,4646,8,90,118
0.09999999999999432,4646,9,90,127
0.09999999999999432,4646,10,90,75
0.09999999999999432,4646,11,90,14
0.10000000000000142,4646,12,90,13
0.09999999999999432,4646,13,90,9
0.10000000000000142,4646,14,90,18
0.09999999999999432,4646,15,90,127
0.09999999999999432,4647,0,90,71
0.09999999999999432,4647,1,90,7
0.09999999999999432,4647,2,90,127
0.09999999999999432,4647,3,90,7
0.10000000000000142,4647,4,90,2
0.10000000000000142,4647,5,90,84
0.09999999999999432,4647,6,90,6
0.09999999999999432,4647,7,90,5
0.10000000000000142,4647,8,90,45
0.10000000000000142,4647,9,90,127
0.10000000000000142,4647,10,90,71
0.09999999999999432,4647,11,90,6
0.10000000000000142,4647,12,90,127
0.09999999999999432,4647,13,90,66
0.10000000000000142,4647,14,90,7
0.10000000000000142,4647,15,90,79
0.10000000000000142,4648,0,90,7
0.10000000000000142,4648,1,90,3
0.10000000000000142,4648,2,90,6
0.10000000000000142,4648,3,90,127
0.10000000000000142,4648,4,90,72
0.09999999999999432,4648,5,90,6
0.09999999999999432,4648,6,90,127
0.10000000000000853,4648,7,90,64
0.10000000000000853,4648,8,90,6
0.09999999999999432,4648,9,90,2
0.09999999999999432,4648,10,90,73
0.09999999999999432,4648,11,90,5
0.09999999999999432,4648,12,90,3
0.10000000000000853,4648,13,90,4
0.09999999999999432,4648,14,90,43
0.09999999999999432,4648,15,90,127
0.09999999999999432,4649,0,90,61
0.10000000000000853,4649,1,90,59
0.09999999999999432,4649,2,90,127
0.10000000000000853,4649,3,90,84
0.10000000000000853,4649,4,90,5
0.09999999999999432,4649,5,90,3
0.09999999999999432,4649,6,90,6
0.10000000000000853,4649,7,90,127
0.09999999999999432,4649,8,90,64
0.09999999999999432,4649,9,90,10
0.10000000000000853,4649,10,90,127
0.09999999999999432,4649,11,90,6
0.09999999999999432,4649,12,90,2
0.10000000000000853,4649,13,90,78
0.10000000000000853,4649,14,90,6
0.09999999999999432,4649,15,90,3
0.09999999999999432,4650,0,90,6
0.10000000000000853,4650,1,90,127
0.09999999999999432,4650,2,90,70
0.09999999999999432,4650,3,90,117
0.10000000000000853,4650,4,90,89
0.10000000000000853,4650,5,90,127
0.10000000000000853,4650,6,90,11
0.09999999999999432,4650,7,90,4
0.09999999999999432,4650,8,90,80
0.10000000000000853,4650,9,90,7
0.10000000000000853,4650,10,90,3
0.09999999999999432,4650,11,90,72
0.09999999999999432,4650,12,90,19
0.09999999999999432,4650,13,90,127
0.09999999999999432,4650,14,90,120
0.09999999999999432,4650,15,90,110
0.09999999999999432,4651,0,90,60
0.09999999999999432,4651,1,90,127
0.09999999999999432,4651,2,90,97
0.09999999999999432,4651,3,90,27
0.10000000000000853,4651,4,90,13
0.09999999999999432,4651,5,90,14
0.09999999999999432,4651,6,90,28
0.09999999999999432,4651,7,90,127
0.09999999999999432,4651,8,90,95
0.09999999999999432,4651,9,90,66
0.09999999999999432,4651,10,90,36
0.09999999999999432,4651,11,90,127
0.09999999999999432,4651,12,90,52
0.10000000000000853,4651,13,90,56
0.10000000000000853,4651,14,90,115
0.09999999999999432,4651,15,90,26
0.09999999999999432,4652,0,90,17
0.09999999999999432,4652,1,90,22
0.10000000000000853,4652,2,90,41
0.09999999999999432,4652,3,90,127
0.10000000000000853,4652,4,90,87
0.09999999999999432,4652,5,90,11
0.10000000000000853,4652,6,90,127
0.10000000000000853,4652,7,90,11
0.09999999999999432,4652,8,90,4
0.09999999999999432,4652,9,90,99
0.09999999999999432,4652,10,90,27
0.09999999999999432,4652,11,90,13
0.10000000000000853,4652,12,90,16
0.09999999999999432,4652,13,90,34
0.09999999999999432,4652,14,90,127
0.10000000000000853,4652,15,90,105
0.10000000000000853,4653,0,90,69
0.09999999999999432,4653,1,90,26
0.09999999999999432,4653,2,90,127
0.09999999999999432,4653,3,90,72
0.10000000000000853,4653,4,90,49
0.10000000000000853,4653,5,90,71
0.09999999999999432,4653,6,90,119
0.09999999999999432,4653,7,90,16
0.10000000000000853,4653,8,90,24
0.10000000000000853,4653,9,90,35
0.09999999999999432,4653,10,90,45
0.10000000000000853,4653,11,90,78
0.10000000000000853,4653,12,90,71
0.09999999999999432,4653,13,90,86
0.10000000000000853,4653,14,90,86
0.09999999999999432,4653,15,90,71
0.09999999999999432,4654,0,90,34
0.10000000000000853,4654,1,90,127
0.10000000000000853,4654,2,90,79
0.10000000000000853,4654,3,90,11
0.09999999999999432,4654,4,90,11
0.10000000000000853,4654,5,90,127
0.09999999999999432,4654,6,90,73
0.09999999999999432,4654,7,90,9
0.10000000000000853,4654,8,90,127
0.10000000000000853,4654,9,90,5
0.09999999999999432,4654,10,90,77
0.10000000000000853,4654,11,90,8
0.10000000000000853,4654,12,90,11
0.09999999999999432,4654,13,90,127
0.09999999999999432,4654,14,90,80
0.10000000000000853,4654,15,90,56
0.09999999999999432,4655,0,90,127
0.09999999999999432,4655,1,90,10
0.10000000000000853,4655,2,90,78
0.10000000000000853,4655,3,90,8
0.09999999999999432,4655,4,90,10
0.10000000000000853,4655,5,90,127
0.10000000000000853,4655,6,90,82
0.09999999999999432,4655,7,90,6
0.09999999999999432,4655,8,90,3
0.10000000000000853,4655,9,90,127
0.09999999999999432,4655,10,90,6
0.10000000000000853,4655,11,90,74
0.10000000000000853,4655,12,90,6
0.09999999999999432,4655,13,90,9
0.09999999999999432,4655,14,90,2
0.10000000000000853,4655,15,90,127
0.09999999999999432,4656,0,90,69
0.09999999999999432,4656,1,90,100
0.10000000000000853,4656,2,90,127
0.10000000000000853,4656,3,90,7
0.09999999999999432,4656,4,90,85
0.10000000000000853,4656,5,90,5
0.10000000000000853,4656,6,90,4
0.10000000000000853,4656,7,90,8
0.10000000000000853,4656,8,90,2
0.09999999999999432,4656,9,90,127
0.10000000000000853,4656,10,90,84
0.10000000000000853,4656,11,90,6
0.09999999999999432,4656,12,90,5
0.09999999999999432,4656,13,90,127
0.09999999999999432,4656,14,90,7
0.09999999999999432,4656,15,90,83
0.09999999999999432,4657,0,90,5
0.10000000000000853,4657,1,90,6
0.09999999999999432,4657,2,90,8
0.10000000000000853,4657,3,90,1
0.09999999999999432,4657,4,90,127
0.09999999999999432,4657,5,90,91
0.09999999999999432,4657,6,90,109
0.09999999999999432,4657,7,90,23
0.09999999999999432,4657,8,90,127
0.09999999999999432,4657,9,90,7
0.09999999999999432,4657,10,90,94
0.09999999999999432,4657,11,90,10
0.09999999999999432,4657,12,90,4
0.09999999999999432,4657,13,90,11
0.10000000000000853,4657,14,90,2
0.10000000000000853,4657,15,90,127
0.09999999999999432,4658,0,90,81
0.09999999999999432,4658,1,90,100
0.10000000000000853,4658,2,90,34
0.04772727272727195,4658,3,90,5
0.013636363636365445,4658,4,90,127
0.10000000000000853,4658,5,90,7
0.09999999999999432,4658,6,90,87
0.09999999999999432,4658,7,90,6
0.09999999999999432,4658,8,90,4
0.10000000000000853,4658,9,90,60
0.09999999999999432,4658,10,90,24
0.09999999999999432,4658,11,90,127
0.10000000000000853,4658,12,90,87
0.10000000000000853,4658,13,90,97
0.09999999999999432,4658,14,90,58
0.10000000000000853,4658,15,90,121
0.09999999999999432,4659,0,90,127
0.09999999999999432,4659,1,90,16
0.09999999999999432,4659,2,90,86
0.09999999999999432,4659,3,90,12
0.10000000000000853,4659,4,90,12
0.09999999999999432,4659,5,90,14
0.09999999999999432,4659,6,90,31
0.09999999999999432,4659,7,90,127
0.09999999999999432,4659,8,90,58
0.10000000000000853,4659,9,90,12
0.10000000000000853,4659,10,90,2
0.09999999999999432,4659,11,90,127
0.09999999999999432,4659,12,90,12
0.10000000000000853,4659,13,90,88
0.09999999999999432,4659,14,90,13
0.10000000000000853,4659,15,90,7
0.09999999999999432,4660,0,90,12
0.09999999999999432,4660,1,90,22
0.10000000000000853,4660,2,90,127
0.09999999999999432,4660,3,90,78
0.09999999999999432,4660,4,90,114
0.09999999999999432,4660,5,90,80
0.10000000000000853,4660,6,90,127
0.09999999999999432,4660,7,90,10
0.09999999999999432,4660,8,90,86
0.10000000000000853,4660,9,90,11
0.09999999999999432,4660,10,90,8
0.10000000000000853,4660,11,90,12
0.09999999999999432,4660,12,90,16
0.09999999999999432,4660,13,90,127
0.10000000000000853,4660,14,90,74
0.10000000000000853,4660,15,90,102
0.09999999999999432,4661,0,90,127
0.10000000000000853,4661,1,90,127
0.10000000000000853,4661,2,90,82
0.09999999999999432,4661,3,90,12
0.09999999999999432,4661,4,90,7
0.09999999999999432,4661,5,90,12
0.09999999999999432,4661,6,90,47
0.10000000000000853,4661,7,90,127
0.09999999999999432,4661,8,90,76
0.10000000000000853,4661,9,90,120
0.09999999999999432,4661,10,90,40
0.10000000000000853,4661,11,90,127
0.09999999999999432,4661,12,90,10
0.10000000000000853,4661,13,90,78
0.09999999999999432,4661,14,90,11
0.10000000000000853,4661,15,90,11
0.09999999999999432,4662,0,90,11
0.10000000000000853,4662,1,90,3
0.10000000000000853,4662,2,90,127
0.09999999999999432,4662,3,90,81
0.09999999999999432,4662,4,90,127
0.09999999999999432,4662,5,90,8
0.09999999999999432,4662,6,90,127
0.10000000000000853,4662,7,90,127
0.09999999999999432,4662,8,90,94
0.09999999999999432,4662,9,90,8
0.09999999999999432,4662,10,90,115
0.10000000000000853,4662,11,90,111
0.10000000000000853,4662,12,90,65
0.09999999999999432,4662,13,90,99
0.10000000000000853,4662,14,90,89
0.09999999999999432,4662,15,90,127
0.09999999999999432,4663,0,90,18
0.09999999999999432,4663,1,90,96
0.10000000000000853,4663,2,90,12
0.10000000000000853,4663,3,90,10
0.10000000000000853,4663,4,90,14
0.09999999999999432,4663,5,90,127
0.09999999999999432,4663,6,90,87
0.10000000000000853,4663,7,90,11
0.09999999999999432,4663,8,90,127
0.09999999999999432,4663,9,90,10
0.10000000000000853,4663,10,90,93
0.09999999999999432,4663,11,90,10
0.10000000000000853,4663,12,90,18
0.09999999999999432,4663,13,90,16
0.09999999999999432,4663,14,90,12
0.10000000000000853,4663,15,90,127
0.09999999999999432,4664,0,90,70
0.09999999999999432,4664,1,90,82
0.10000000000000853,4664,2,90,127
0.09999999999999432,4664,3,90,5
0.09999999999999432,4664,4,90,78
0.09999999999999432,4664,5,90,3
0.09999999999999432,4664,6,90,7
0.10000000000000853,4664,7,90,5
0.10000000000000853,4664,8,90,10
0.09999999999999432,4664,9,90,127
0.10000000000000853,4664,10,90,73
0.10000000000000853,4664,11,90,6
0.09999999999999432,4664,12,90,127
0.09999999999999432,4664,13,90,5
0.09999999999999432,4664,14,90,76
0.09999999999999432,4664,15,90,5
0.09999999999999432,4665,0,90,5
0.09999999999999432,4665,1,90,6
0.09999999999999432,4665,2,90,7
0.09999999999999432,4665,3,90,127
0.09999999999999432,4665,4,90,74
0.10000000000000853,4665,5,90,82
0.09999999999999432,4665,6,90,127
0.09999999999999432,4665,7,90,4
0.10000000000000853,4665,8,90,79
0.10000000000000853,4665,9,90,6
0.09999999999999432,4665,10,90,7
0.09999999999999432,4665,11,90,5
0.09999999999999432,4665,12,90,10
0.10000000000000853,4665,13,90,127
0.09999999999999432,4665,14,90,71
0.09999999999999432,4665,15,90,6
0.10000000000000853,4666,0,90,127
0.10000000000000853,4666,1,90,5
0.09999999999999432,4666,2,90,71
0.09999999999999432,4666,3,90,6
0.09999999999999432,4666,4,90,8
0.09999999999999432,4666,5,90,6
0.09999999999999432,4666,6,90,5
0.09999999999999432,4666,7,90,127
0.09999999999999432,4666,8,90,71
0.09999999999999432,4666,9,90,74
0.09999999999999432,4666,10,90,127
0.09999999999999432,4666,11,90,5
0.09999999999999432,4666,12,90,74
0.10000000000002274,4666,13,90,6
0.09999999999999432,4666,14,90,7
0.09999999999999432,4666,15,90,6
0.09999999999999432,4667,0,90,7
0.09999999999999432,4667,1,90,127
0.09999999999999432,4667,2,90,73
0.09999999999999432,4667,3,90,7
0.09999999999999432,4667,4,90,127
0.09999999999999432,4667,5,90,6
0.09999999999999432,4667,6,90,71
0.09999999999999432,4667,7,90,6
0.09999999999999432,4667,8,90,127
0.09999999999999432,4667,9,90,63
0.09999999999999432,4667,10,90,33
0.09999999999999432,4667,11,90,127
0.09999999999999432,4667,12,90,78
0.09999999999999432,4667,13,90,110
0.09999999999999432,4667,14,90,127
0.09999999999999432,4667,15,90,77
0.09999999999999432,4668,0,90,7
0.09999999999999432,4668,1,90,5
0.09999999999999432,4668,2,90,17
0.09999999999999432,4668,3,90,127
0.09999999999999432,4668,4,90,74
0.09999999999999432,4668,5,90,6
0.09999999999999432,4668,6,90,127
0.09999999999999432,4668,7,90,5
0.10000000000002274,4668,8,90,46
0.09999999999999432,4668,9,90,6
0.09999999999999432,4668,10,90,7
0.09999999999999432,4668,11,90,6
0.09999999999999432,4668,12,90,11
0.10000000000002274,4668,13,90,127
0.09999999999999432,4668,14,90,72
0.09999999999999432,4668,15,90,74
0.10000000000002274,4669,0,90,127
0.09999999999999432,4669,1,90,5
0.09999999999999432,4669,2,90,74
0.10000000000002274,4669,3,90,6
0.10000000000002274,4669,4,90,7
0.09999999999999432,4669,5,90,7
0.09999999999999432,4669,6,90,9
0.09999999999999432,4669,7,90,127
0.10000000000002274,4669,8,90,73
0.09999999999999432,4669,9,90,6
0.09999999999999432,4669,10,90,127
0.10000000000002274,4669,11,90,6
0.10000000000002274,4669,12,90,78
0.09999999999999432,4669,13,90,6
0.09999999999999432,4669,14,90,6
0.09999999999999432,4669,15,90,7
0.10000000000002274,4670,0,90,127
0.09999999999999432,4670,1,90,69
0.09999999999999432,4670,2,90,80
0.10000000000002274,4670,3,90,127
0.09999999999999432,4670,4,90,82
0.09999999999999432,4670,5,90,8
0.09999999999999432,4670,6,90,6
0.09999999999999432,4670,7,90,127
0.10000000000002274,4670,8,90,67
0.09999999999999432,4670,9,90,5
0.09999999999999432,4670,10,90,127
0.10000000000002274,4670,11,90,5
0.09999999999999432,4670,12,90,73
0.09999999999999432,4670,13,90,6
0.10000000000002274,4670,14,90,6
0.09999999999999432,4670,15,90,11
0.09999999999999432,4671,0,90,127
0.09999999999999432,4671,1,90,68
0.09999999999999432,4671,2,90,66
0.09999999999999432,4671,3,90,88
0.09999999999999432,4671,4,90,127
0.09999999999999432,4671,5,90,127
0.09999999999999432,4671,6,90,17
0.09999999999999432,4671,7,90,9
0.09999999999999432,4671,8,90,114
0.10000000000002274,4671,9,90,4
0.09999999999999432,4671,10,90,18
0.09999999999999432,4671,11,90,127
0.10000000000002274,4671,12,90,25
0.09999999999999432,4671,13,90,26
0.09999999999999432,4671,14,90,16
0.10000000000002274,4671,15,90,127
0.09999999999999432,4672,0,90,13
0.09999999999999432,4672,1,90,127
0.09999999999999432,4672,2,90,18
0.09999999999999432,4672,3,90,111
0.09999999999999432,4672,4,90,2
0.09999999999999432,4672,5,90,127
0.09999999999999432,4672,6,90,118
0.09999999999999432,4672,7,90,127
0.09999999999999432,4672,8,90,110
0.09999999999999432,4672,9,90,29
0.10000000000002274,4672,10,90,2
0.09999999999999432,4672,11,90,127
0.09999999999999432,4672,12,90,120
0.09999999999999432,4672,13,90,5
0.10000000000002274,4672,14,90,22
0.09999999999999432,4672,15,90,127
0.09999999999999432,4673,0,90,23
0.09999999999999432,4673,1,90,26
0.09999999999999432,4673,2,90,11
0.09999999999999432,4673,3,90,119
0.09999999999999432,4673,4,90,9
0.09999999999999432,4673,5,90,13
0.09999999999999432,4673,6,90,127
0.09999999999999432,4673,7,90,125
0.09999999999999432,4673,8,90,127
0.10000000000002274,4673,9,90,96
0.09999999999999432,4673,10,90,17
0.09999999999999432,4673,11,90,53
0.10000000000002274,4673,12,90,127
0.09999999999999432,4673,13,90,85
0.09999999999999432,4673,14,90,10
0.10000000000002274,4673,15,90,127
0.09999999999999432,4674,0,90,6
0.09999999999999432,4674,1,90,116
0.09999999999999432,4674,2,90,8
0.09999999999999432,4674,3,90,71
0.09999999999999432,4674,4,90,49
0.09999999999999432,4674,5,90,127
0.10000000000002274,4674,6,90,111
0.09999999999999432,4674,7,90,127
0.09999999999999432,4674,8,90,48
0.09999999999999432,4674,9,90,90
0.09999999999999432,4674,10,90,127
0.09999999999999432,4674,11,90,26
0.09999999999999432,4674,12,90,89
0.09999999999999432,4674,13,90,26
0.09999999999999432,4674,14,90,45
0.09999999999999432,4674,15,90,20
0.09999999999999432,4675,0,90,24
0.09999999999999432,4675,1,90,44
0.09999999999999432,4675,2,90,7
0.09999999999999432,4675,3,90,89
0.09999999999999432,4675,4,90,38
0.09999999999999432,4675,5,90,50
0.09999999999999432,4675,6,90,22
0.09999999999999432,4675,7,90,94
0.10000000000002274,4675,8,90,17
0.09999999999999432,4675,9,90,56
0.10000000000002274,4675,10,90,22
0.10000000000002274,4675,11,90,9
0.09999999999999432,4675,12,90,58
0.10000000000002274,4675,13,90,92
0.09999999999999432,4675,14,90,81
0.09999999999999432,4675,15,90,43
0.09999999999999432,4676,0,90,54
0.10000000000002274,4676,1,90,43
0.09999999999999432,4676,2,90,3
0.09999999999999432,4676,3,90,94
0.09999999999999432,4676,4,90,30
0.09999999999999432,4676,5,90,39
0.10000000000002274,4676,6,90,20
0.09999999999999432,4676,7,90,11
0.09999999999999432,4676,8,90,43
0.09999999999999432,4676,9,90,87
0.10000000000002274,4676,10,90,30
0.09999999999999432,4676,11,90,22
0.09999999999999432,4676,12,90,2
0.09999999999999432,4676,13,90,46
0.09999999999999432,4676,14,90,83
0.09999999999999432,4676,15,90,87
0.10000000000002274,4677,0,90,49
0.09999999999999432,4677,1,90,14
0.09999999999999432,4677,2,90,42
0.09999999999999432,4677,3,90,127
0.09999999999999432,4677,4,90,87
0.09999999999999432,4677,5,90,16
0.09999999999999432,4677,6,90,7
0.10000000000002274,4677,7,90,21
0.09999999999999432,4677,8,90,127
0.09999999999999432,4677,9,90,92
0.09999999999999432,4677,10,90,4
0.10000000000002274,4677,11,90,2
0.09999999999999432,4677,12,90,127
0.10000000000002274,4677,13,90,4
0.09999999999999432,4677,14,90,2
0.09999999999999432,4677,15,90,90
0.09999999999999432,4678,0,90,4
0.09999999999999432,4678,1,90,28
0.09999999999999432,4678,2,90,6
0.09999999999999432,4678,3,90,38
0.09999999999999432,4678,4,90,127
0.09999999999999432,4678,5,90,91
0.09999999999999432,4678,6,90,62
0.09999999999999432,4678,7,90,127
0.09999999999999432,4678,8,90,4
0.09999999999999432,4678,9,90,92
0.09999999999999432,4678,10,90,4
0.09999999999999432,4678,11,90,16
0.09999999999999432,4678,12,90,8
0.09999999999999432,4678,13,90,25
0.09999999999999432,4678,14,90,127
0.09999999999999432,4678,15,90,81
0.09999999999999432,4679,0,90,5
0.09999999999999432,4679,1,90,3
0.09999999999999432,4679,2,90,127
0.09999999999999432,4679,3,90,3
0.10000000000002274,4679,4,90,80
0.09999999999999432,4679,5,90,7
0.10000000000002274,4679,6,90,23
0.09999999999999432,4679,7,90,4
0.09999999999999432,4679,8,90,33
0.10000000000002274,4679,9,90,127
0.09999999999999432,4679,10,90,76
0.09999999999999432,4679,11,90,18
0.10000000000002274,4679,12,90,119
0.09999999999999432,4679,13,90,85
0.09999999999999432,4679,14,90,8
0.09999999999999432,4679,15,90,11
0.09999999999999432,4680,0,90,7
0.09999999999999432,4680,1,90,127
0.10000000000002274,4680,2,90,80
0.09999999999999432,4680,3,90,5
0.09999999999999432,4680,4,90,126
0.09999999999999432,4680,5,90,4
0.09999999999999432,4680,6,90,85
0.09999999999999432,4680,7,90,5
0.09999999999999432,4680,8,90,11
0.09999999999999432,4680,9,90,4
0.09999999999999432,4680,10,90,127
0.09999999999999432,4680,11,90,64
0.09999999999999432,4680,12,90,88
0.10000000000002274,4680,13,90,45
0.09999999999999432,4680,14,90,102
0.09999999999999432,4680,15,90,127
0.09999999999999432,4681,0,90,2
0.09999999999999432,4681,1,90,91
0.09999999999999432,4681,2,90,2
0.09999999999999432,4681,3,90,3
0.09999999999999432,4681,4,90,65
0.09999999999999432,4681,5,90,105
0.10000000000002274,4681,6,90,95
0.09999999999999432,4681,7,90,2
0.09999999999999432,4681,8,90,127
0.09999999999999432,4681,9,90,20
0.09999999999999432,4681,10,90,96
0.09999999999999432,4681,11,90,9
0.09999999999999432,4681,12,90,3
0.09999999999999432,4681,13,90,127
0.09999999999999432,4681,14,90,102
0.09999999999999432,4681,15,90,127
0.09999999999999432,4682,0,90,8
0.09999999999999432,4682,1,90,106
0.09999999999999432,4682,2,90,3
0.10000000000002274,4682,3,90,8
0.09999999999999432,4682,4,90,3
0.10000000000002274,4682,5,90,127
0.09999999999999432,4682,6,90,105
0.09999999999999432,4682,7,90,50
0.09999999999999432,4682,8,90,127
0.09999999999999432,4682,9,90,103
0.10000000000002274,4682,10,90,9
0.09999999999999432,4682,11,90,10
0.09999999999999432,4682,12,90,3
0.09999999999999432,4682,13,90,127
0.09999999999999432,4682,14,90,104
0.09999999999999432,4682,15,90,127
0.10000000000002274,4683,0,90,3
0.09999999999999432,4683,1,90,106
0.09999999999999432,4683,2,90,3
0.09999999999999432,4683,3,90,27
0.10000000000002274,4683,4,90,3
0.09999999999999432,4683,5,90,3
0.09999999999999432,4683,6,90,127
0.10000000000002274,4683,7,90,105
0.09999999999999432,4683,8,90,32
0.09999999999999432,4683,9,90,8
0.09999999999999432,4683,10,90,71
0.1,4683,11,66,8
0.09999999999999998,4683,12,66,14
0.09999999999999998,4683,13,66,15
0.036363636363636376,4683,14,66,21
0.09999999999999998,4683,15,66,16
0.10000000000000009,4684,0,66,17
0.09999999999999987,4684,1,66,16
0.09999999999999432,4684,2,66,1
0.10000000000002274,4684,3,66,2
0.09999999999999432,4684,4,66,3
0.09999999999999432,4684,5,66,1
0.10000000000002274,4684,6,66,1
0.09999999999999432,4684,7,66,1
0.10000000000002274,4684,8,66,1
0.09999999999999432,4684,9,66,1
0.10000000000002274,4684,10,66,1
0.09999999999999432,4684,11,66,1
0.09999999999999432,4684,12,66,1
0.09999999999999432,4684,13,66,2
0.09999999999999432,4684,14,66,6
0.09999999999999432,4684,15,66,6
0.09999999999999432,4685,0,66,2
0.09999999999999432,4685,1,66,5
0.09999999999999432,4685,2,66,3
0.09999999999999432,4685,3,66,3
0.09999999999999432,4685,4,66,3
0.09999999999999432,4685,5,66,4
0.09999999999999432,4685,6,66,4
0.09999999999999432,4685,7,66,3
0.09999999999999432,4685,8,66,5
0.09999999999999432,4685,9,66,4
0.09999999999999432,4685,10,66,4
0.09999999999999432,4685,11,66,1
0.09999999999999432,4685,12,66,5
0.09999999999999432,4685,13,66,13
0.09999999999999432,4685,14,66,8
0.09999999999999432,4685,15,66,1
0.09999999999999432,4686,0,66,4
0.09999999999999432,4686,1,66,12
0.09999999999999432,4686,2,66,13
0.09999999999999432,4686,3,66,11
0.09999999999999432,4686,4,66,6
0.10000000000002274,4686,5,66,5
0.09999999999999432,4686,6,66,3
0.09999999999999432,4686,7,66,1
0.10000000000002274,4686,8,66,5
0.09999999999999432,4686,9,66,10
0.09999999999999432,4686,10,66,8
0.10000000000002274,4686,11,66,15
0.09999999999999432,4686,12,66,4
0.10000000000002274,4686,13,66,7
0.09999999999999432,4686,14,66,14
0.09999999999999432,4686,15,66,8
0.09999999999999432,4687,0,66,7
0.09999999999999432,4687,1,66,5
0.09999999999999432,4687,2,66,10
0.09999999999999432,4687,3,66,11
0.10000000000002274,4687,4,66,2
0.09999999999999432,4687,5,66,5
0.09999999999999432,4687,6,66,12
0.09999999999999432,4687,7,66,23
0.09999999999999432,4687,8,66,12
0.09999999999999432,4687,9,66,6
0.10000000000002274,4687,10,66,15
0.09999999999999432,4687,11,66,14
0.09999999999999432,4687,12,66,9
0.09999999999999432,4687,13,66,7
0.09999999999999432,4687,14,66,4
0.09999999999999432,4687,15,66,6
0.09999999999999432,4688,0,66,14
0.09999999999999432,4688,1,66,13
0.09999999999999432,4688,2,66,13
0.09999999999999432,4688,3,66,11
0.10000000000002274,4688,4,66,8
0.09999999999999432,4688,5,66,6
0.09999999999999432,4688,6,66,14
0.09999999999999432,4688,7,66,17
0.09999999999999432,4688,8,66,15
0.09999999999999432,4688,9,66,10
0.09999999999999432,4688,10,66,7
0.10000000000002274,4688,11,66,4
0.09999999999999432,4688,12,66,2
0.10000000000002274,4688,13,66,5
0.09999999999999432,4688,14,66,8
0.10000000000002274,4688,15,66,7
0.09999999999999432,4689,0,66,4
0.10000000000002274,4689,1,66,5
0.09999999999999432,4689,2,66,6
0.09999999999999432,4689,3,66,3
0.09999999999999432,4689,4,66,2
0.09999999999999432,4689,5,66,3
0.09999999999999432,4689,6,66,7
0.09999999999999432,4689,7,66,7
0.10000000000002274,4689,8,66,5
0.09999999999999432,4689,9,66,12
0.09999999999999432,4689,10,66,11
0.10000000000002274,4689,11,66,14
0.09999999999999432,4689,12,66,11
0.09999999999999432,4689,13,66,6
0.09999999999999432,4689,14,66,16
0.09999999999999432,4689,15,66,10
0.10000000000002274,4690,0,66,4
0.09999999999999432,4690,1,66,5
0.09999999999999432,4690,2,66,11
0.09999999999999432,4690,3,66,5
0.09999999999999432,4690,4,66,3
0.09999999999999432,4690,5,66,9
0.09999999999999432,4690,6,66,3
0.09999999999999432,4690,7,66,3
0.10000000000002274,4690,8,66,4
0.09999999999999432,4690,9,66,2
0.09999999999999432,4690,10,66,3
0.10000000000002274,4690,11,66,3
0.09999999999999432,4690,12,66,21
0.09999999999999432,4690,13,66,3
0.09999999999999432,4690,14,66,2
0.09999999999999432,4690,15,66,1
0.09999999999999432,4691,0,66,1
0.10000000000002274,4691,1,66,2
0.09999999999999432,4691,2,66,4
0.10000000000002274,4691,3,66,7
0.09999999999999432,4691,4,66,3
0.09999999999999432,4691,5,66,3
0.09999999999999432,4691,6,66,1
0.09999999999999432,4691,7,66,3
0.09999999999999432,4691,8,66,3
0.10000000000002274,4691,9,66,3
0.10000000000002274,4691,10,66,4
0.09999999999999432,4691,11,66,16
0.09999999999999432,4691,12,66,3
0.09999999999999432,4691,13,66,2
0.09999999999999432,4691,14,66,1
0.09999999999999432,4691,15,66,1
0.10000000000002274,4692,0,66,1
0.09999999999999432,4692,1,66,1
0.09999999999999432,4692,2,66,1
0.09999999999999432,4692,3,66,1
0.10000000000002274,4692,4,66,1
0.09999999999999432,4692,5,66,1
0.10000000000002274,4692,6,66,1
0.09999999999999432,4692,7,66,1
0.10000000000002274,4692,8,66,1
0.10000000000002274,4692,9,66,1
0.10000000000002274,4692,10,66,1
0.10000000000002274,4692,11,66,1
0.09999999999999432,4692,12,66,1
0.09999999999999987,4692,13,66,11
0.10000000000000009,4692,14,66,52
0.09999999999999964,4692,15,66,46
0.09999999999999964,4693,0,66,14
0.09999999999999964,4693,1,66,53
0.09999999999999964,4693,2,66,62
0.10000000000000009,4693,3,66,47
0.10000000000000009,4693,4,66,85
0.10000000000000053,4693,5,66,63
0.10000000000000053,4693,6,66,8
0.09999999999999964,4693,7,66,49
0.09999999999999964,4693,8,66,70
0.09999999999999964,4693,9,66,13
0.09999999999999964,4693,10,66,50
0.09999999999999964,4693,11,66,66
0.09999999999999964,4693,12,66,57
0.10000000000000053,4693,13,66,41
0.09999999999999964,4693,14,66,122
0.09999999999999964,4693,15,66,66
0.09999999999999964,4694,0,66,50
0.10000000000000053,4694,1,66,48
0.10000000000000053,4694,2,66,15
0.10000000000000053,4694,3,66,54
0.10000000000000053,4694,4,66,56
0.09999999999999964,4694,5,66,52
0.09999999999999964,4694,6,66,111
0.09999999999999964,4694,7,66,50
0.09999999999999964,4694,8,66,52
0.06818181818181834,4694,9,66,52
0.09999999999999964,4694,10,66,45
0.09999999999999964,4694,11,66,41
0.09999999999999964,4694,12,66,8
0.09999999999999964,4694,13,66,24
0.09999999999999964,4694,14,66,43
0.09999999999999964,4694,15,66,34
0.09999999999999964,4695,0,66,49
0.09999999999999964,4695,1,66,4
0.09999999999999964,4695,2,66,3
0.10000000000000142,4695,3,66,2
0.10000000000000142,4695,4,66,6
0.10000000000000142,4695,5,66,6
0.09999999999999964,4695,6,66,29
0.09999999999999964,4695,7,66,14
0.09999999999999964,4695,8,66,14
0.09999999999999964,4695,9,66,12
0.09999999999999964,4695,10,66,30
0.10000000000000142,4695,11,66,44
0.09999999999999964,4695,12,66,2
0.09999999999999964,4695,13,66,3
0.09999999999999964,4695,14,66,10
0.09999999999999964,4695,15,66,25
0.09999999999999964,4696,0,66,23
0.09999999999999964,4696,1,66,20
0.09999999999999964,4696,2,66,35
0.09999999999999787,4696,3,66,24
0.10000000000000142,4696,4,66,7
0.09999999999999787,4696,5,66,9
0.09999999999999787,4696,6,66,10
0.10000000000000142,4696,7,66,21
0.10000000000000142,4696,8,66,15
0.10000000000000142,4696,9,66,19
0.10000000000000142,4696,10,66,14
0.10000000000000142,4696,11,66,39
0.10000000000000142,4696,12,66,51
0.10000000000000142,4696,13,66,2
0.09999999999999787,4696,14,66,13
0.10000000000000142,4696,15,66,7
0.10000000000000142,4697,0,66,25
0.10000000000000142,4697,1,66,33
0.10000000000000142,4697,2,66,17
0.10000000000000142,4697,3,66,23
0.10000000000000142,4697,4,66,17
0.10000000000000142,4697,5,66,37
0.10000000000000142,4697,6,66,3
0.09999999999999787,4697,7,66,4
0.10000000000000142,4697,8,66,20
0.10000000000000142,4697,9,66,16
0.10000000000000142,4697,10,66,40
0.10000000000000142,4697,11,66,6
0.10000000000000142,4697,12,66,14
0.10000000000000142,4697,13,66,20
0.10000000000000142,4697,14,66,38
0.10000000000000142,4697,15,66,3
0.09999999999999787,4698,0,66,6
0.10000000000000142,4698,1,66,30
0.09999999999999787,4698,2,66,18
0.10000000000000142,4698,3,66,34
0.10000000000000142,4698,4,66,9
0.09999999999999787,4698,5,66,11
0.10000000000000142,4698,6,66,20
0.09999999999999787,4698,7,66,20
0.09999999999999787,4698,8,66,8
0.10000000000000142,4698,9,66,37
0.10000000000000142,4698,10,66,18
0.10000000000000142,4698,11,66,23
0.09999999999999787,4698,12,66,16
0.09999999999999787,4698,13,66,2
0.09999999999999787,4698,14,66,11
0.10000000000000142,4698,15,66,45
0.10000000000000142,4699,0,66,50
0.09999999999999787,4699,1,66,2
0.10000000000000142,4699,2,66,12
0.09999999999999787,4699,3,66,23
0.09999999999999787,4699,4,66,40
0.10000000000000142,4699,5,66,5
0.09999999999999787,4699,6,66,44
0.10000000000000142,4699,7,66,7
0.10000000000000142,4699,8,66,8
0.10000000000000142,4699,9,66,9
0.09999999999999787,4699,10,66,25
0.09999999999999787,4699,11,66,31
0.09999999999999787,4699,12,66,8
0.10000000000000142,4699,13,66,18
0.09999999999999787,4699,14,66,16
0.09999999999999787,4699,15,66,26
0.09999999999999787,4700,0,66,18
0.09999999999999787,4700,1,66,29
0.09999999999999787,4700,2,66,22
0.10000000000000142,4700,3,66,33
0.10000000000000142,4700,4,66,27
0.10000000000000142,4700,5,66,10
0.10000000000000142,4700,6,66,15
0.10000000000000142,4700,7,66,12
0.09999999999999432,4700,8,66,4
0.10000000000000142,4700,9,66,31
0.10000000000000142,4700,10,66,20
0.10000000000000142,4700,11,66,32
0.10000000000000142,4700,12,66,24
0.09999999999999432,4700,13,66,25
0.10000000000000142,4700,14,66,27
0.09999999999999432,4700,15,66,8
0.10000000000000142,4701,0,66,22
0.10000000000000142,4701,1,66,16
0.10000000000000142,4701,2,66,26
0.09999999999999432,4701,3,66,15
0.10000000000000142,4701,4,66,29
0.09999999999999432,4701,5,66,19
0.10000000000000142,4701,6,66,23
0.10000000000000142,4701,7,66,26
0.10000000000000142,4701,8,66,26
0.09999999999999432,4701,9,66,22
0.09999999999999432,4701,10,66,29
0.10000000000000142,4701,11,66,21
0.10000000000000142,4701,12,66,30
0.09999999999999432,4701,13,66,19
0.09999999999999432,4701,14,66,23
0.09999999999999432,4701,15,66,24
0.10000000000000142,4702,0,66,26
0.09999999999999432,4702,1,66,24
0.10000000000000142,4702,2,66,39
0.10000000000000142,4702,3,66,30
0.10000000000000142,4702,4,66,26
0.09999999999999432,4702,5,66,27
0.10000000000000142,4702,6,66,27
0.10000000000000142,4702,7,66,29
0.10000000000000142,4702,8,66,29
0.10000000000000142,4702,9,66,22
0.10000000000000142,4702,10,66,24
0.10000000000000142,4702,11,66,22
0.10000000000000142,4702,12,66,23
0.10000000000000142,4702,13,66,32
0.10000000000000142,4702,14,66,28
0.10000000000000142,4702,15,66,33
0.10000000000000142,4703,0,66,21
0.10000000000000142,4703,1,66,29
0.10000000000000142,4703,2,66,21
0.10000000000000142,4703,3,66,22
0.09999999999999432,4703,4,66,30
0.10000000000000142,4703,5,66,24
0.10000000000000142,4703,6,66,20
0.10000000000000142,4703,7,66,19
0.10000000000000142,4703,8,66,27
0.10000000000000142,4703,9,66,20
0.10000000000000142,4703,10,66,36
0.09999999999999432,4703,11,66,30
0.09999999999999432,4703,12,66,20
0.10000000000000142,4703,13,66,32
0.10000000000000142,4703,14,66,23
0.09999999999999432,4703,15,66,22
0.10000000000000142,4704,0,66,20
0.10000000000000142,4704,1,66,21
0.09999999999999432,4704,2,66,23
0.09999999999999432,4704,3,66,23
0.10000000000000142,4704,4,66,27
0.10000000000000142,4704,5,66,22
0.10000000000000142,4704,6,66,26
0.10000000000000142,4704,7,66,29
0.10000000000000142,4704,8,66,32
0.10000000000000142,4704,9,66,17
0.09999999999999432,4704,10,66,32
0.10000000000000142,4704,11,66,22
0.09999999999999432,4704,12,66,22
0.10000000000000142,4704,13,66,28
0.10000000000000142,4704,14,66,22
0.09999999999999432,4704,15,66,26
0.09999999999999432,4705,0,66,22
0.09999999999999432,4705,1,66,17
0.09999999999999432,4705,2,66,18
0.09999999999999432,4705,3,66,27
0.10000000000000142,4705,4,66,21
0.10000000000000142,4705,5,66,27
0.10000000000000142,4705,6,66,31
0.09999999999999432,4705,7,66,24
0.10000000000000142,4705,8,66,31
0.09999999999999432,4705,9,66,37
0.09999999999999432,4705,10,66,19
0.10000000000000142,4705,11,66,15
0.10000000000000142,4705,12,66,19
0.10000000000000142,4705,13,66,19
0.10000000000000142,4705,14,66,20
0.09999999999999432,4705,15,66,18
0.10000000000000142,4706,0,66,19
0.10000000000000142,4706,1,66,17
0.10000000000000142,4706,2,66,20
0.09999999999999432,4706,3,66,21
0.09999999999999432,4706,4,66,14
0.10000000000000853,4706,5,66,23
0.09999999999999432,4706,6,66,28
0.09999999999999432,4706,7,66,36
0.09999999999999432,4706,8,66,24
0.10000000000000853,4706,9,66,27
0.09999999999999432,4706,10,66,27
0.09999999999999432,4706,11,66,21
0.09999999999999432,4706,12,66,27
0.09999999999999432,4706,13,66,27
0.10000000000000853,4706,14,66,26
0.09999999999999432,4706,15,66,15
0.10000000000000853,4707,0,66,20
0.09999999999999432,4707,1,66,40
0.10000000000000853,4707,2,66,36
0.10000000000000853,4707,3,66,27
0.09999999999999432,4707,4,66,26
0.09999999999999432,4707,5,66,29
0.09999999999999432,4707,6,66,32
0.10000000000000853,4707,7,66,22
0.09999999999999432,4707,8,66,33
0.09999999999999432,4707,9,66,28
0.10000000000000853,4707,10,66,17
0.10000000000000853,4707,11,66,18
0.09999999999999432,4707,12,66,22
0.10000000000000853,4707,13,66,15
0.09999999999999432,4707,14,66,19
0.10000000000000853,4707,15,66,26
0.10000000000000853,4708,0,66,20
0.09999999999999432,4708,1,66,18
0.10000000000000853,4708,2,66,26
0.10000000000000853,4708,3,66,18
0.10000000000000853,4708,4,66,31
0.09999999999999432,4708,5,66,30
0.10000000000000853,4708,6,66,17
0.10000000000000853,4708,7,66,20
0.10000000000000853,4708,8,66,35
0.09999999999999432,4708,9,66,30
0.10000000000000853,4708,10,66,12
0.09999999999999432,4708,11,66,22
0.09999999999999432,4708,12,66,57
0.09999999999999432,4708,13,66,73
0.09999999999999432,4708,14,66,42
0.10000000000000853,4708,15,66,18
0.09999999999999432,4709,0,66,93
0.09999999999999432,4709,1,66,88
0.09999999999999432,4709,2,66,15
0.09999999999999432,4709,3,66,91
0.09999999999999432,4709,4,66,81
0.09999999999999432,4709,5,66,46
0.09999999999999432,4709,6,66,72
0.09999999999999432,4709,7,66,14
0.09999999999999432,4709,8,66,82
0.10000000000000853,4709,9,66,44
0.10000000000000853,4709,10,66,60
0.09999999999999432,4709,11,66,35
0.09999999999999432,4709,12,66,19
0.10000000000000853,4709,13,66,55
0.09999999999999432,4709,14,66,68
0.09999999999999432,4709,15,66,94
0.10000000000000853,4710,0,66,20
0.10000000000000853,4710,1,66,71
0.09999999999999432,4710,2,66,101
0.10000000000000853,4710,3,66,13
0.10000000000000853,4710,4,66,84
0.10000000000000853,4710,5,66,84
0.09999999999999432,4710,6,66,73
0.09999999999999432,4710,7,66,86
0.09999999999999432,4710,8,66,55
0.09999999999999432,4710,9,66,72
0.10000000000000853,4710,10,66,32
0.10000000000000853,4710,11,66,49
0.10000000000000853,4710,12,66,25
0.10000000000000853,4710,13,66,58
0.09999999999999432,4710,14,66,52
0.10000000000000853,4710,15,66,18
0.10000000000000853,4711,0,66,34
0.10000000000000853,4711,1,66,11
0.09999999999999432,4711,2,66,29
0.10000000000000853,4711,3,66,19
0.09999999999999432,4711,4,66,44
0.09999999999999432,4711,5,66,27
0.09999999999999432,4711,6,66,38
0.09999999999999432,4711,7,66,14
0.10000000000000853,4711,8,66,40
0.10000000000000853,4711,9,66,18
0.09999999999999432,4711,10,66,28
0.10000000000000853,4711,11,66,14
0.10000000000000853,4711,12,66,12
0.09999999999999432,4711,13,66,7
0.10000000000000853,4711,14,66,8
0.09999999999999432,4711,15,66,9
0.10000000000000853,4712,0,66,14
0.10000000000000853,4712,1,66,8
0.09999999999999432,4712,2,66,13
0.09999999999999432,4712,3,66,10
0.10000000000000853,4712,4,66,9
0.09999999999999432,4712,5,66,13
0.09999999999999432,4712,6,66,8
0.10000000000000853,4712,7,66,7
0.10000000000000853,4712,8,66,10
0.09999999999999432,4712,9,66,9
0.09999999999999432,4712,10,66,13
0.09999999999999432,4712,11,66,10
0.10000000000000853,4712,12,66,11
0.10000000000000853,4712,13,66,11
0.10000000000000853,4712,14,66,9
0.045454545454546746,4712,15,66,8
0.09999999999999432,4713,0,66,11
0.10000000000000853,4713,1,66,8
0.10000000000000853,4713,2,66,7
0.10000000000000853,4713,3,66,11
0.09999999999999432,4713,4,66,11
0.10000000000000853,4713,5,66,15
0.10000000000000853,4713,6,66,9
0.09999999999999432,4713,7,66,7
0.10000000000000853,4713,8,66,10
0.09999999999999432,4713,9,66,10
0.09999999999999432,4713,10,66,9
0.09999999999999432,4713,11,66,13
0.09999999999999432,4713,12,66,18
0.09999999999999432,4713,13,66,17
0.09999999999999432,4713,14,66,23
0.09999999999999432,4713,15,66,37
0.09999999999999432,4714,0,66,16
0.09999999999999432,4714,1,66,6
0.09999999999999432,4714,2,66,2
0.09999999999999432,4714,3,66,2
0.09999999999999432,4714,4,66,14
0.10000000000000853,4714,5,66,16
0.10000000000000853,4714,6,66,11
0.10000000000000853,4714,7,66,9
0.10000000000000853,4714,8,66,10
0.09999999999999432,4714,9,66,8
0.10000000000000853,4714,10,66,13
0.10000000000000853,4714,11,66,14
0.10000000000000853,4714,12,66,19
0.09999999999999432,4714,13,66,32
0.10000000000000853,4714,14,66,34
0.09999999999999432,4714,15,66,30
0.09999999999999432,4715,0,66,28
0.09999999999999432,4715,1,66,7
0.09999999999999432,4715,2,66,14
0.09999999999999432,4715,3,66,15
0.10000000000000853,4715,4,66,11
0.09999999999999432,4715,5,66,14
0.10000000000000853,4715,6,66,9
0.10000000000000853,4715,7,66,6
0.09999999999999432,4715,8,66,7
0.09999999999999432,4715,9,66,12
0.10000000000000853,4715,10,66,16
0.10000000000000853,4715,11,66,16
0.10000000000000853,4715,12,66,20
0.09999999999999432,4715,13,66,10
0.10000000000000853,4715,14,66,12
0.09999999999999432,4715,15,66,13
0.10000000000000853,4716,0,66,7
0.10000000000000853,4716,1,66,8
0.09999999999999432,4716,2,66,15
0.09999999999999432,4716,3,66,11
0.09999999999999432,4716,4,66,11
0.10000000000000853,4716,5,66,14
0.09999999999999432,4716,6,66,17
0.10000000000000853,4716,7,66,7
0.10000000000000853,4716,8,66,7
0.09999999999999432,4716,9,66,7
0.09999999999999432,4716,10,66,12
0.09999999999999432,4716,11,66,8
0.10000000000002274,4716,12,66,9
0.09999999999999432,4716,13,66,14
0.09999999999999432,4716,14,66,12
0.09999999999999432,4716,15,66,11
0.09999999999999432,4717,0,66,11
0.09999999999999432,4717,1,66,10
0.09999999999999432,4717,2,66,16
0.09999999999999432,4717,3,66,16
0.09999999999999432,4717,4,66,9
0.09999999999999432,4717,5,66,12
0.09999999999999432,4717,6,66,15
0.09999999999999432,4717,7,66,9
0.09999999999999432,4717,8,66,8
0.09999999999999432,4717,9,66,16
0.09999999999999432,4717,10,66,8
0.10000000000002274,4717,11,66,10
0.09999999999999432,4717,12,66,9
0.09999999999999432,4717,13,66,9
0.10000000000002274,4717,14,66,9
0.09999999999999432,4717,15,66,16
0.09999999999999432,4718,0,66,10
0.09999999999999432,4718,1,66,6
0.09999999999999432,4718,2,66,13
0.09999999999999432,4718,3,66,14
0.09999999999999432,4718,4,66,9
0.09999999999999432,4718,5,66,11
0.09999999999999432,4718,6,66,12
0.10000000000002274,4718,7,66,7
0.09999999999999432,4718,8,66,5
0.09999999999999432,4718,9,66,4
0.10000000000002274,4718,10,66,9
0.09999999999999432,4718,11,66,13
0.09999999999999432,4718,12,66,9
0.09999999999999432,4718,13,66,9
0.09999999999999432,4718,14,66,14
0.10000000000002274,4718,15,66,7
0.09999999999999432,4719,0,66,3
0.09999999999999432,4719,1,66,6
0.10000000000002274,4719,2,66,17
0.09999999999999432,4719,3,66,13
0.09999999999999432,4719,4,66,12
0.09999999999999432,4719,5,66,13
0.10000000000002274,4719,6,66,16
0.10000000000002274,4719,7,66,9
0.10000000000002274,4719,8,66,9
0.09999999999999432,4719,9,66,11
0.09999999999999432,4719,10,66,16
0.09999999999999432,4719,11,66,9
0.10000000000002274,4719,12,66,7
0.09999999999999432,4719,13,66,16
0.09999999999999432,4719,14,66,6
0.09999999999999432,4719,15,66,6
0.09999999999999432,4720,0,66,17
0.09999999999999432,4720,1,66,8
0.09999999999999432,4720,2,66,5
0.10000000000002274,4720,3,66,14
0.09999999999999432,4720,4,66,10
0.09999999999999432,4720,5,66,5
0.10000000000002274,4720,6,66,4
0.09999999999999432,4720,7,66,20
0.09999999999999432,4720,8,66,15
0.09999999999999432,4720,9,66,12
0.10000000000002274,4720,10,66,17
0.09999999999999432,4720,11,66,8
0.09999999999999432,4720,12,66,9
0.09999999999999432,4720,13,66,3
0.10000000000002274,4720,14,66,1
0.09999999999999432,4720,15,66,1
0.09999999999999432,4721,0,66,2
0.09999999999999432,4721,1,66,5
0.09999999999999432,4721,2,66,5
0.06818181818181301,4721,3,66,6
0.09999999999999432,4721,4,66,4
0.09999999999999432,4721,5,66,1
0.09999999999999432,4721,6,66,1
0.10000000000002274,4721,7,66,4
0.09999999999999432,4721,8,66,1
0.09999999999999432,4721,9,66,3
0.09999999999999432,4721,10,66,2
0.09999999999999432,4721,11,66,2
0.10000000000002274,4721,12,66,3
0.09999999999999432,4721,13,66,2
0.09999999999999432,4721,14,66,4
0.09999999999999432,4721,15,66,12
0.10000000000002274,4722,0,66,1
0.10000000000002274,4722,1,66,4
0.09999999999999432,4722,2,66,2
0.09999999999999432,4722,3,66,8
0.10000000000002274,4722,4,66,9
0.09999999999999432,4722,5,66,9
0.09999999999999432,4722,6,66,10
0.09999999999999432,4722,7,66,8
0.09999999999999432,4722,8,66,2
0.10000000000002274,4722,9,66,6
0.09999999999999432,4722,10,66,6
0.09999999999999432,4722,11,66,8
0.09999999999999432,4722,12,66,16
0.09999999999999432,4722,13,66,11
0.10000000000002274,4722,14,66,35
0.09999999999999432,4722,15,66,57
0.09999999999999432,4723,0,66,49
0.09999999999999432,4723,1,66,34
0.09999999999999432,4723,2,66,56
0.09999999999999432,4723,3,66,74
0.09999999999999432,4723,4,66,64
0.056818181818186986,4723,5,66,63
0.09999999999999432,4723,6,66,70
0.06818181818181301,4723,7,66,74
0.10000000000002274,4723,8,66,70
0.09999999999999432,4723,9,66,60
0.09999999999999432,4723,10,66,53
0.09999999999999432,4723,11,66,61
0.09999999999999432,4723,12,66,75
0.10000000000002274,4723,13,66,29
0.09999999999999432,4723,14,66,54
0.09999999999999432,4723,15,66,70
0.09999999999999432,4724,0,66,60
0.09999999999999432,4724,1,66,72
0.10000000000002274,4724,2,66,63
0.09999999999999432,4724,3,66,47
0.09999999999999432,4724,4,66,63
0.09999999999999432,4724,5,66,78
0.09999999999999432,4724,6,66,41
0.09999999999999432,4724,7,66,61
0.10000000000002274,4724,8,66,72
0.09999999999999432,4724,9,66,56
0.09999999999999432,4724,10,66,68
0.09999999999999432,4724,11,66,90
0.09999999999999432,4724,12,66,76
0.10000000000002274,4724,13,66,50
0.09999999999999432,4724,14,66,56
0.09999999999999432,4724,15,66,67
0.09999999999999432,4725,0,66,27
0.09999999999999432,4725,1,66,68
0.09999999999999432,4725,2,66,54
0.09999999999999432,4725,3,66,65
0.09999999999999432,4725,4,66,38
0.10000000000002274,4725,5,66,42
0.10000000000000009,4725,6,67,34
0.10000000000000009,4725,7,67,50
0.10000000000000009,4725,8,67,13
0.09999999999999964,4725,9,67,36
0.09999999999999964,4725,10,67,33
0.10000000000000009,4725,11,67,26
0.10000000000000009,4725,12,67,19
0.09999999999999964,4725,13,67,30
0.09999999999999964,4725,14,67,25
0.10000000000000053,4725,15,67,42
0.09999999999999964,4726,0,67,22
0.09999999999999964,4726,1,67,26
0.10000000000000053,4726,2,67,30
0.09999999999999964,4726,3,67,24
0.09999999999999964,4726,4,67,25
0.10000000000000053,4726,5,67,15
0.09999999999999964,4726,6,67,12
0.10000000000000053,4726,7,67,33
0.09999999999999964,4726,8,67,19
0.10000000000000053,4726,9,67,19
0.10000000000000053,4726,10,67,14
0.09999999999999964,4726,11,67,28
0.09999999999999964,4726,12,67,14
0.09999999999999964,4726,13,67,35
0.09999999999999964,4726,14,67,28
0.10000000000000142,4726,15,67,19
0.09999999999999964,4727,0,67,28
0.09999999999999964,4727,1,67,17
0.09999999999999964,4727,2,67,17
0.09999999999999964,4727,3,67,4
0.10000000000000142,4727,4,67,34
0.10000000000000142,4727,5,67,26
0.09999999999999964,4727,6,67,22
0.09999999999999964,4727,7,67,40
0.09999999999999964,4727,8,67,20
0.09999999999999964,4727,9,67,22
0.10000000000000142,4727,10,67,16
0.10000000000000142,4727,11,67,6
0.10000000000000142,4727,12,67,13
0.10000000000000142,4727,13,67,49
0.10000000000000142,4727,14,67,25
0.10000000000000142,4727,15,67,8
0.10000000000000142,4728,0,67,21
0.10000000000000142,4728,1,67,15
0.10000000000000142,4728,2,67,14
0.10000000000000142,4728,3,67,12
0.10000000000000142,4728,4,67,43
0.09999999999999787,4728,5,67,17
0.10000000000000142,4728,6,67,23
0.10000000000000142,4728,7,67,19
0.10000000000000142,4728,8,67,15
0.10000000000000142,4728,9,67,46
0.09999999999999787,4728,10,67,45
0.10000000000000142,4728,11,67,45
0.09999999999999787,4728,12,67,42
0.09999999999999787,4728,13,67,17
0.09999999999999787,4728,14,67,27
0.10000000000000142,4728,15,67,22
0.09999999999999787,4729,0,67,18
0.09999999999999787,4729,1,67,30
0.10000000000000142,4729,2,67,30
0.09999999999999787,4729,3,67,23
0.09999999999999787,4729,4,67,34
0.09999999999999787,4729,5,67,28
0.10000000000000142,4729,6,67,26
0.10000000000000142,4729,7,67,20
0.10000000000000142,4729,8,67,27
0.10000000000000142,4729,9,67,22
0.10000000000000142,4729,10,67,33
0.09999999999999432,4729,11,67,13
0.10000000000000142,4729,12,67,24
0.10000000000000142,4729,13,67,28
0.10000000000000142,4729,14,67,23
0.09999999999999432,4729,15,67,22
0.10000000000000142,4730,0,67,27
0.10000000000000142,4730,1,67,29
0.09999999999999432,4730,2,67,17
0.10000000000000142,4730,3,67,27
0.09999999999999432,4730,4,67,26
0.10000000000000142,4730,5,67,31
0.10000000000000853,4730,6,67,4
0.09999999999999432,4730,7,67,46
0.09999999999999432,4730,8,67,38
0.10000000000000853,4730,9,67,41
0.09999999999999432,4730,10,67,54
0.10000000000000853,4730,11,67,35
0.10000000000000853,4730,12,67,36
0.09999999999999432,4730,13,67,40
0.10000000000000853,4730,14,67,52
0.10000000000000853,4730,15,67,26
0.09999999999999432,4731,0,67,40
0.09999999999999432,4731,1,67,54
0.09999999999999432,4731,2,67,36
0.09999999999999432,4731,3,67,43
0.09999999999999432,4731,4,67,34
0.09999999999999432,4731,5,67,46
0.10000000000000853,4731,6,67,43
0.09999999999999432,4731,7,67,39
0.09999999999999432,4731,8,67,28
0.10000000000000853,4731,9,67,46
0.10000000000000853,4731,10,67,28
0.09999999999999432,4731,11,67,47
0.10000000000000853,4731,12,67,46
0.10000000000000853,4731,13,67,53
0.09999999999999432,4731,14,67,51
0.09999999999999432,4731,15,67,34
0.10000000000000853,4732,0,67,42
0.09999999999999432,4732,1,67,45
0.09999999999999432,4732,2,67,47
0.09999999999999432,4732,3,67,48
0.10000000000000853,4732,4,67,42
0.10000000000000853,4732,5,67,35
0.09999999999999432,4732,6,67,27
0.09999999999999432,4732,7,67,32
0.10000000000000853,4732,8,67,13
0.10000000000000853,4732,9,67,11
0.09999999999999432,4732,10,67,18
0.09999999999999432,4732,11,67,1
0.10000000000000853,4732,12,67,2
0.09999999999999432,4732,13,67,13
0.09999999999999432,4732,14,67,1
0.10000000000000853,4732,15,67,1
0.09999999999999432,4733,0,67,5
0.09999999999999432,4733,1,67,10
0.10000000000000853,4733,2,67,3
0.09999999999999432,4733,3,67,10
0.09999999999999432,4733,4,67,2
0.10000000000000853,4733,5,67,9
0.09999999999999432,4733,6,67,8
0.10000000000000853,4733,7,67,10
0.09999999999999432,4733,8,67,5
0.10000000000000853,4733,9,67,7
0.10000000000000853,4733,10,67,1
0.09999999999999432,4733,11,67,2
0.10000000000000853,4733,12,67,10
0.10000000000000853,4733,13,67,1
0.09999999999999432,4733,14,67,10
0.10000000000002274,4733,15,67,6
0.09999999999999432,4734,0,67,5
0.09999999999999432,4734,1,67,1
0.10000000000002274,4734,2,67,9
0.09999999999999432,4734,3,67,9
0.09999999999999432,4734,4,67,1
0.09999999999999432,4734,5,67,5
0.09999999999999432,4734,6,67,1
0.09999999999999432,4734,7,67,11
0.09999999999999432,4734,8,67,9
0.09999999999999432,4734,9,67,10
0.09999999999999432,4734,10,67,8
0.09999999999999432,4734,11,67,7
0.09999999999999432,4734,12,67,4
0.09999999999999432,4734,13,67,1
0.09999999999999432,4734,14,67,7
0.09999999999999432,4734,15,67,3
0.10000000000002274,4735,0,67,1
0.09999999999999432,4735,1,67,8
0.09999999999999432,4735,2,67,5
0.09999999999999432,4735,3,67,7
0.09999999999999432,4735,4,67,1
0.09999999999999432,4735,5,67,5
0.09999999999999432,4735,6,67,7
0.09999999999999432,4735,7,67,6
0.09999999999999432,4735,8,67,2
0.09999999999999432,4735,9,67,1
0.09999999999999432,4735,10,67,13
0.10000000000002274,4735,11,67,8
0.09999999999999432,4735,12,67,12
0.09999999999999432,4735,13,67,15
0.09999999999999432,4735,14,67,5
0.10000000000002274,4735,15,67,7
0.09999999999999432,4736,0,67,2
0.09999999999999432,4736,1,67,10
0.09999999999999432,4736,2,67,9
0.09999999999999432,4736,3,67,1
0.10000000000002274,4736,4,67,9
0.09999999999999432,4736,5,67,2
0.09999999999999432,4736,6,67,12
0.10000000000002274,4736,7,67,3
0.10000000000002274,4736,8,67,7
0.09999999999999432,4736,9,67,8
0.10000000000000009,4736,10,62,4
0.10000000000000009,4736,11,62,3
0.10000000000000009,4736,12,62,3
0.10000000000000009,4736,13,62,2
0.10000000000000009,4736,14,62,2
0.10000000000000009,4736,15,62,3
0.09999999999999964,4737,0,62,4
0.10000000000000009,4737,1,62,3
0.09999999999999964,4737,2,62,3
0.09999999999999964,4737,3,62,3
0.09999999999999964,4737,4,62,4
0.10000000000000009,4737,5,62,3
0.10000000000000009,4737,6,62,4
0.10000000000000009,4737,7,62,3
0.09999999999999964,4737,8,62,4
0.09999999999999964,4737,9,62,3
0.09999999999999964,4737,10,62,4
0.10000000000000009,4737,11,62,3
0.10000000000000053,4737,12,62,4
0.10000000000000053,4737,13,62,3
0.09999999999999964,4737,14,62,3
0.09999999999999964,4737,15,62,3
0.09999999999999964,4738,0,62,3
0.09999999999999964,4738,1,62,3
0.10000000000000053,4738,2,62,3
0.09999999999999964,4738,3,62,3
0.09999999999999964,4738,4,62,3
0.09999999999999964,4738,5,62,3
0.09999999999999964,4738,6,62,3
0.10000000000000053,4738,7,62,3
0.09999999999999964,4738,8,62,3
0.09999999999999964,4738,9,62,3
0.10000000000000053,4738,10,62,3
0.10000000000000053,4738,11,62,3
0.09999999999999964,4738,12,62,3
0.10000000000000053,4738,13,62,3
0.09999999999999964,4738,14,62,3
0.09999999999999964,4738,15,62,3
0.10000000000000053,4739,0,62,4
0.10000000000000053,4739,1,62,3
0.09999999999999964,4739,2,62,3
0.10000000000000053,4739,3,62,3
0.10000000000000053,4739,4,62,3
0.09999999999999964,4739,5,62,3
0.10000000000000053,4739,6,62,4
0.09999999999999964,4739,7,62,3
0.09999999999999964,4739,8,62,4
0.09999999999999964,4739,9,62,3
0.09999999999999964,4739,10,62,4
0.09999999999999964,4739,11,62,3
0.09999999999999964,4739,12,62,4
0.09999999999999964,4739,13,62,3
0.09999999999999964,4739,14,62,4
0.09999999999999964,4739,15,62,3
0.10000000000000142,4740,0,62,4
0.09999999999999964,4740,1,62,3
0.09999999999999964,4740,2,62,4
0.09999999999999964,4740,3,62,3
0.09999999999999964,4740,4,62,2
0.09999999999999964,4740,5,62,3
0.10000000000000142,4740,6,62,4
0.10000000000000142,4740,7,62,3
0.09999999999999964,4740,8,62,5
0.09999999999999964,4740,9,62,1
0.10000000000000142,4740,10,62,1
0.10000000000000142,4740,11,62,4
0.10000000000000142,4740,12,62,27
0.10000000000000142,4740,13,62,6
0.09999999999999432,4740,14,62,3
0.10000000000000853,4740,15,62,9
0.10000000000000853,4741,0,62,4
0.09999999999999432,4741,1,62,8
0.10000000000000853,4741,2,62,1
0.09999999999999432,4741,3,62,6
0.09999999999999964,4741,4,63,12
0.09999999999999964,4741,5,63,18
0.10000000000000053,4741,6,63,6
0.10000000000000053,4741,7,63,9
0.10000000000000053,4741,8,63,8
0.09999999999999964,4741,9,63,17
0.09999999999999964,4741,10,63,3
0.09999999999999787,4741,11,63,6
0.10000000000000142,4741,12,63,17
0.09999999999999432,4741,13,63,17
0.10000000000000853,4741,14,63,25
0.09999999999999432,4741,15,63,23
0.10000000000000853,4742,0,63,56
0.09999999999999432,4742,1,63,28
0.09999999999999432,4742,2,63,22
0.10000000000000853,4742,3,63,25
0.10000000000000853,4742,4,63,30
0.09999999999999432,4742,5,63,31
0.09999999999999432,4742,6,63,20
0.09999999999999432,4742,7,63,37
0.10000000000000853,4742,8,63,13
0.09999999999999432,4742,9,63,33
0.10000000000000853,4742,10,63,36
0.09999999999999432,4742,11,63,29
0.09999999999999432,4742,12,63,34
0.09999999999999432,4742,13,63,15
0.10000000000000853,4742,14,63,28
0.09999999999999432,4742,15,63,21
0.09999999999999432,4743,0,63,17
0.09999999999999432,4743,1,63,32
0.09999999999999432,4743,2,63,28
0.09999999999999432,4743,3,63,46
0.10000000000002274,4743,4,63,33
0.09999999999999432,4743,5,63,47
0.09999999999999432,4743,6,63,32
0.09999999999999432,4743,7,63,31
0.09999999999999432,4743,8,63,38
0.09999999999999432,4743,9,63,45
0.09999999999999432,4743,10,63,42
0.09999999999999432,4743,11,63,19
0.10000000000002274,4743,12,63,38
0.09999999999999432,4743,13,63,29
0.09999999999999432,4743,14,63,28
0.09999999999999432,4743,15,63,30
0.09999999999999432,4744,0,63,37
0.10000000000002274,4744,1,63,43
0.09999999999999432,4744,2,63,23
0.09999999999999432,4744,3,63,26
0.09999999999999432,4744,4,63,30
0.09999999999999432,4744,5,63,37
0.09999999999999432,4744,6,63,32
0.09999999999999432,4744,7,63,43
0.09999999999999432,4744,8,63,33
0.09999999999999432,4744,9,63,34
0.09999999999999432,4744,10,63,36
0.09999999999999432,4744,11,63,43
0.09999999999999432,4744,12,63,39
0.09999999999999432,4744,13,63,44
0.09999999999999432,4744,14,63,28
0.09999999999999432,4744,15,63,28
0.09999999999999432,4745,0,63,38
0.09999999999999432,4745,1,63,18
0.09999999999999432,4745,2,63,20
0.09999999999999432,4745,3,63,25
0.09999999999999432,4745,4,63,13
0.09999999999999432,4745,5,63,32
0.09999999999999432,4745,6,63,43
0.09999999999999432,4745,7,63,20
0.10000000000002274,4745,8,63,22
0.09999999999999432,4745,9,63,32
0.09999999999999432,4745,10,63,32
0.09999999999999432,4745,11,63,50
0.09999999999999432,4745,12,63,41
0.09999999999999432,4745,13,63,53
0.10000000000002274,4745,14,63,37
0.09999999999999432,4745,15,63,39
0.10000000000002274,4746,0,63,40
0.09999999999999432,4746,1,63,42
0.10000000000002274,4746,2,63,40
0.09999999999999432,4746,3,63,37
0.10000000000002274,4746,4,63,41
0.09999999999999432,4746,5,63,44
0.09999999999999432,4746,6,63,31
0.09999999999999432,4746,7,63,43
0.09999999999999432,4746,8,63,46
0.09999999999999432,4746,9,63,49
0.10000000000002274,4746,10,63,41
0.09999999999999432,4746,11,63,38
0.10000000000002274,4746,12,63,34
0.09999999999999432,4746,13,63,38
0.09999999999999432,4746,14,63,42
0.10000000000002274,4746,15,63,47
0.09999999999999432,4747,0,63,21
0.09999999999999432,4747,1,63,50
0.09999999999999432,4747,2,63,65
0.09999999999999432,4747,3,63,65
0.09999999999999432,4747,4,63,73
0.09999999999999432,4747,5,63,21
0.09999999999999432,4747,6,63,11
0.09999999999999432,4747,7,63,10
0.09999999999999432,4747,8,63,11
0.09999999999999432,4747,9,63,5
0.09999999999999432,4747,10,63,7
0.09999999999999432,4747,11,63,5
0.09999999999999432,4747,12,63,10
0.09999999999999432,4747,13,63,7
0.09999999999999432,4747,14,63,9
0.10000000000002274,4747,15,63,9
0.10000000000002274,4748,0,63,7
0.09999999999999432,4748,1,63,8
0.09999999999999432,4748,2,63,9
0.09999999999999432,4748,3,63,5
0.10000000000000009,4748,4,80,84
0.10000000000000053,4748,5,80,80
0.09999999999999964,4748,6,80,27
0.09999999999999964,4748,7,80,15
0.09999999999999964,4748,8,80,38
0.09999999999999964,4748,9,80,89
0.10000000000000142,4748,10,80,100
0.10000000000000142,4748,11,80,37
0.09999999999999964,4748,12,80,42
0.09999999999999964,4748,13,80,37
0.09999999999999964,4748,14,80,31
0.10000000000000142,4748,15,80,72
0.09999999999999964,4749,0,80,23
0.09999999999999964,4749,1,80,84
0.10000000000000142,4749,2,80,27
0.09999999999999964,4749,3,80,5
0.09999999999999964,4749,4,80,34
0.09999999999999964,4749,5,80,24
0.013636363636363669,4749,6,80,27
0.09999999999999964,4749,7,80,23
0.09999999999999964,4749,8,80,80
0.09999999999999787,4749,9,80,63
0.10000000000000142,4749,10,80,68
0.10000000000000142,4749,11,80,51
0.09999999999999787,4749,12,80,66
0.09999999999999787,4749,13,80,76
0.09999999999999787,4749,14,80,22
0.09999999999999787,4749,15,80,31
0.10000000000000142,4750,0,80,67
0.10000000000000142,4750,1,80,67
0.10000000000000142,4750,2,80,55
0.09999999999999787,4750,3,80,21
0.09999999999999787,4750,4,80,84
0.09999999999999787,4750,5,80,111
0.10000000000000142,4750,6,80,15
0.10000000000000142,4750,7,80,28
0.09999999999999787,4750,8,80,39
0.09999999999999787,4750,9,80,22
0.09999999999999787,4750,10,80,89
0.09999999999999787,4750,11,80,9
0.10000000000000142,4750,12,80,61
0.06818181818182012,4750,13,80,76
0.10000000000000142,4750,14,80,25
0.10000000000000142,4750,15,80,93
0.09999999999999787,4751,0,80,110
0.09999999999999787,4751,1,80,91
0.09999999999999787,4751,2,80,54
0.05681818181817988,4751,3,80,94
0.10000000000000142,4751,4,80,78
0.09999999999999787,4751,5,80,12
0.10000000000000142,4751,6,80,24
0.09999999999999787,4751,7,80,106
0.10000000000000142,4751,8,80,85
0.09999999999999787,4751,9,80,54
0.10000000000000142,4751,10,80,47
0.09999999999999787,4751,11,80,11
0.10000000000000142,4751,12,80,31
0.10000000000000142,4751,13,80,98
0.09999999999999787,4751,14,80,23
0.09999999999999787,4751,15,80,104
0.09999999999999787,4752,0,80,53
0.10000000000000142,4752,1,80,105
0.09999999999999787,4752,2,80,70
0.09999999999999787,4752,3,80,47
0.10000000000000142,4752,4,80,66
0.09999999999999432,4752,5,80,95
0.10000000000000142,4752,6,80,58
0.10000000000000142,4752,7,80,80
0.09999999999999432,4752,8,80,74
0.09999999999999432,4752,9,80,35
0.10000000000000142,4752,10,80,26
0.10000000000000142,4752,11,80,72
0.10000000000000142,4752,12,80,47
0.10000000000000142,4752,13,80,28
0.10000000000000142,4752,14,80,44
0.10000000000000142,4752,15,80,42
0.10000000000000142,4753,0,80,91
0.10000000000000142,4753,1,80,56
0.10000000000000142,4753,2,80,77
0.10000000000000142,4753,3,80,44
0.10000000000000142,4753,4,80,113
0.10000000000000142,4753,5,80,24
0.10000000000000142,4753,6,80,100
0.10000000000000142,4753,7,80,81
0.09999999999999432,4753,8,80,119
0.10000000000000142,4753,9,80,86
0.09999999999999432,4753,10,80,84
0.10000000000000142,4753,11,80,79
0.10000000000000142,4753,12,80,66
0.10000000000000142,4753,13,80,49
0.10000000000000142,4753,14,80,87
0.10000000000000142,4753,15,80,90
0.10000000000000142,4754,0,80,64
0.10000000000000142,4754,1,80,125
0.09999999999999432,4754,2,80,84
0.09999999999999432,4754,3,80,127
0.09999999999999432,4754,4,80,95
0.10000000000000142,4754,5,80,127
0.10000000000000142,4754,6,80,49
0.10000000000000142,4754,7,80,75
0.10000000000000142,4754,8,80,72
0.10000000000000142,4754,9,80,102
0.10000000000000142,4754,10,80,110
0.10000000000000142,4754,11,80,99
0.10000000000000142,4754,12,80,87
0.10000000000000142,4754,13,80,61
0.10000000000000142,4754,14,80,127
0.10000000000000142,4754,15,80,127
0.10000000000000142,4755,0,80,127
0.10000000000000142,4755,1,80,32
0.10000000000000142,4755,2,80,63
0.10000000000000142,4755,3,80,93
0.10000000000000142,4755,4,80,106
0.10000000000000142,4755,5,80,124
0.10000000000000142,4755,6,80,79
0.10000000000000142,4755,7,80,66
0.09999999999999432,4755,8,80,87
0.10000000000000142,4755,9,80,86
0.10000000000000142,4755,10,80,79
0.10000000000000142,4755,11,80,90
0.09999999999999432,4755,12,80,121
0.09999999999999432,4755,13,80,26
0.10000000000000142,4755,14,80,65
0.09999999999999432,4755,15,80,96
0.09999999999999432,4756,0,80,28
0.10000000000000142,4756,1,80,127
0.10000000000000142,4756,2,80,85
0.10000000000000142,4756,3,80,93
0.10000000000000142,4756,4,80,86
0.10000000000000142,4756,5,80,62
0.10000000000000142,4756,6,80,51
0.10000000000000142,4756,7,80,74
0.09999999999999432,4756,8,80,91
0.10000000000000142,4756,9,80,80
0.10000000000000142,4756,10,80,72
0.09999999999999432,4756,11,80,54
0.10000000000000142,4756,12,80,102
0.09999999999999432,4756,13,80,78
0.09999999999999432,4756,14,80,75
0.09999999999999432,4756,15,80,93
0.09999999999999432,4757,0,80,34
0.10000000000000853,4757,1,80,90
0.10000000000000853,4757,2,80,45
0.10000000000000853,4757,3,80,101
0.10000000000000853,4757,4,80,78
0.10000000000000853,4757,5,80,118
0.10000000000000853,4757,6,80,113
0.10000000000000853,4757,7,80,61
0.09999999999999432,4757,8,80,112
0.09999999999999432,4757,9,80,100
0.10000000000000853,4757,10,80,127
0.09999999999999432,4757,11,80,100
0.09999999999999432,4757,12,80,37
0.09999999999999432,4757,13,80,20
0.09999999999999432,4757,14,80,58
0.10000000000000853,4757,15,80,23
0.09999999999999432,4758,0,80,88
0.09999999999999432,4758,1,80,70
0.09999999999999432,4758,2,80,119
0.09999999999999432,4758,3,80,111
0.10000000000000853,4758,4,80,70
0.09999999999999432,4758,5,80,53
0.09999999999999432,4758,6,80,127
0.10000000000000853,4758,7,80,42
0.10000000000000853,4758,8,80,104
0.09999999999999432,4758,9,80,71
0.09999999999999432,4758,10,80,122
0.09999999999999432,4758,11,80,13
0.09999999999999432,4758,12,80,22
0.04772727272727195,4758,13,80,60
0.10000000000000853,4758,14,80,86
0.10000000000000853,4758,15,80,64
0.09999999999999432,4759,0,80,54
0.09999999999999432,4759,1,80,91
0.09999999999999432,4759,2,80,52
0.10000000000000853,4759,3,80,106
0.10000000000000853,4759,4,80,77
0.10000000000000853,4759,5,80,125
0.10000000000000853,4759,6,80,106
0.10000000000000853,4759,7,80,70
0.10000000000000853,4759,8,80,60
0.10000000000000853,4759,9,80,103
0.09999999999999432,4759,10,80,116
0.09999999999999432,4759,11,80,127
0.10000000000000853,4759,12,80,126
0.10000000000000853,4759,13,80,77
0.10000000000000853,4759,14,80,83
0.10000000000000853,4759,15,80,95
0.09999999999999432,4760,0,80,88
0.10000000000000853,4760,1,80,65
0.09999999999999432,4760,2,80,80
0.10000000000000853,4760,3,80,107
0.09999999999999432,4760,4,80,52
0.09999999999999432,4760,5,80,65
0.09999999999999432,4760,6,80,99
0.10000000000000853,4760,7,80,103
0.09999999999999432,4760,8,80,58
0.09999999999999432,4760,9,80,112
0.09999999999999432,4760,10,80,98
0.09999999999999432,4760,11,80,71
0.06818181818181301,4760,12,80,85
0.09999999999999432,4760,13,80,97
0.09999999999999432,4760,14,80,71
0.10000000000000853,4760,15,80,119
0.09999999999999432,4761,0,80,98
0.09999999999999432,4761,1,80,114
0.10000000000000853,4761,2,80,78
0.10000000000000853,4761,3,80,58
0.10000000000000853,4761,4,80,49
0.10000000000000853,4761,5,80,65
0.10000000000000853,4761,6,80,42
0.10000000000000853,4761,7,80,99
0.10000000000000853,4761,8,80,125
0.09999999999999432,4761,9,80,101
0.10000000000000853,4761,10,80,83
0.09999999999999432,4761,11,80,114
0.09999999999999432,4761,12,80,89
0.09999999999999432,4761,13,80,101
0.09999999999999432,4761,14,80,104
0.10000000000000853,4761,15,80,70
0.09999999999999432,4762,0,80,119
0.09999999999999432,4762,1,80,71
0.09999999999999432,4762,2,80,87
0.09999999999999432,4762,3,80,28
0.004545454545450411,4762,4,80,65
0.0022727272727394165,4762,5,80,101
0.10000000000000853,4762,6,80,127
0.09999999999999432,4762,7,80,77
0.10000000000000853,4762,8,80,50
0.09999999999999432,4762,9,80,71
0.10000000000000853,4762,10,80,107
0.09999999999999432,4762,11,80,91
0.10000000000000853,4762,12,80,56
0.09999999999999432,4762,13,80,70
0.10000000000000853,4762,14,80,80
0.09999999999999432,4762,15,80,84
0.09999999999999432,4763,0,80,76
0.09999999999999432,4763,1,80,31
0.03636363636363171,4763,2,80,76
0.09999999999999432,4763,3,80,79
0.09999999999999432,4763,4,80,30
0.10000000000000853,4763,5,80,111
0.09999999999999432,4763,6,80,119
0.10000000000000853,4763,7,80,51
0.10000000000000853,4763,8,80,89
0.09999999999999432,4763,9,80,101
0.10000000000000853,4763,10,80,63
0.09999999999999432,4763,11,80,77
0.10000000000000853,4763,12,80,105
0.09999999999999432,4763,13,80,111
0.09999999999999432,4763,14,80,112
0.09999999999999432,4763,15,80,54
0.09999999999999432,4764,0,80,101
0.10000000000000853,4764,1,80,66
0.10000000000000853,4764,2,80,72
0.10000000000000853,4764,3,80,52
0.09999999999999432,4764,4,80,89
0.09999999999999432,4764,5,80,40
0.10000000000000853,4764,6,80,77
0.09999999999999432,4764,7,80,108
0.09999999999999432,4764,8,80,65
0.025000000000005684,4764,9,80,59
0.10000000000000853,4764,10,80,67
0.09999999999999432,4764,11,80,90
0.09999999999999432,4764,12,80,113
0.10000000000000853,4764,13,80,115
0.09999999999999432,4764,14,80,98
0.09999999999999432,4764,15,80,8
0.03636363636363171,4765,0,80,93
0.09999999999999432,4765,1,80,122
0.09999999999999432,4765,2,80,34
0.09999999999999432,4765,3,80,73
0.10000000000000853,4765,4,80,33
0.004545454545464622,4765,5,80,101
0.09999999999999432,4765,6,80,106
0.09999999999999432,4765,7,80,112
0.10000000000000853,4765,8,80,31
0.09999999999999432,4765,9,80,55
0.09999999999999432,4765,10,80,116
0.09999999999999432,4765,11,80,88
0.10000000000000853,4765,12,80,123
0.10000000000000853,4765,13,80,96
0.09999999999999432,4765,14,80,71
0.09999999999999432,4765,15,80,124
0.10000000000000853,4766,0,80,127
0.09999999999999432,4766,1,80,84
0.02727272727273089,4766,2,80,82
0.09999999999999432,4766,3,80,127
0.10000000000000853,4766,4,80,118
0.09999999999999432,4766,5,80,127
0.09999999999999432,4766,6,80,104
0.10000000000000853,4766,7,80,16
0.10000000000000853,4766,8,80,69
0.10000000000000853,4766,9,80,127
0.013636363636365445,4766,10,80,103
0.09999999999999432,4766,11,80,124
0.09999999999999432,4766,12,80,104
0.10000000000000853,4766,13,80,105
0.10000000000000853,4766,14,80,83
0.10000000000000853,4766,15,80,99
0.09999999999999432,4767,0,80,71
0.09999999999999432,4767,1,80,90
0.09999999999999432,4767,2,80,114
0.09999999999999432,4767,3,80,127
0.09999999999999432,4767,4,80,126
0.09999999999999432,4767,5,80,106
0.09999999999999432,4767,6,80,127
0.10000000000000853,4767,7,80,83
0.10000000000000853,4767,8,80,124
0.09999999999999432,4767,9,80,104
0.09999999999999432,4767,10,80,118
0.09999999999999432,4767,11,80,96
0.09999999999999432,4767,12,80,109
0.10000000000000853,4767,13,80,127
0.09999999999999432,4767,14,80,127
0.10000000000000853,4767,15,80,7
0.09999999999999432,4768,0,80,75
0.09999999999999432,4768,1,80,78
0.10000000000000853,4768,2,80,91
0.09999999999999432,4768,3,80,78
0.09999999999999432,4768,4,80,75
0.09999999999999432,4768,5,80,119
0.10000000000000853,4768,6,80,84
0.09999999999999432,4768,7,80,93
0.10000000000000853,4768,8,80,127
0.10000000000000853,4768,9,80,96
0.10000000000000853,4768,10,80,93
0.09999999999999432,4768,11,80,28
0.10000000000000853,4768,12,80,92
0.10000000000000853,4768,13,80,121
0.09999999999999432,4768,14,80,73
0.09999999999999432,4768,15,80,30
0.09999999999999432,4769,0,80,95
0.09999999999999432,4769,1,80,28
0.10000000000000853,4769,2,80,57
0.09999999999999432,4769,3,80,105
0.09999999999999432,4769,4,80,59
0.09999999999999432,4769,5,80,98
0.09999999999999432,4769,6,80,57
0.09999999999999432,4769,7,80,127
0.10000000000002274,4769,8,80,36
0.025000000000005684,4769,9,80,96
0.09999999999999432,4769,10,80,37
0.09999999999999432,4769,11,80,105
0.09999999999999432,4769,12,80,108
0.09999999999999432,4769,13,80,52
0.10000000000002274,4769,14,80,107
0.09999999999999432,4769,15,80,63
0.09999999999999432,4770,0,80,116
0.09999999999999432,4770,1,80,88
0.10000000000002274,4770,2,80,106
0.09999999999999432,4770,3,80,102
0.09999999999999432,4770,4,80,102
0.09999999999999432,4770,5,80,60
0.09999999999999432,4770,6,80,73
0.09999999999999432,4770,7,80,114
0.09999999999999432,4770,8,80,74
0.09999999999999432,4770,9,80,58
0.09999999999999432,4770,10,80,109
0.09999999999999432,4770,11,80,78
0.09999999999999432,4770,12,80,95
0.10000000000002274,4770,13,80,111
0.013636363636379656,4770,14,80,35
0.09999999999999432,4770,15,80,77
0.09999999999999432,4771,0,80,107
0.09999999999999432,4771,1,80,94
0.09999999999999432,4771,2,80,110
0.09999999999999432,4771,3,80,27
0.10000000000002274,4771,4,80,72
0.09999999999999432,4771,5,80,110
0.09999999999999432,4771,6,80,86
0.10000000000002274,4771,7,80,90
0.09999999999999432,4771,8,80,82
0.09999999999999432,4771,9,80,110
0.09999999999999432,4771,10,80,90
0.09999999999999432,4771,11,80,65
0.09999999999999432,4771,12,80,103
0.09999999999999432,4771,13,80,30
0.09999999999999432,4771,14,80,73
0.06818181818181301,4771,15,80,99
0.10000000000002274,4772,0,80,38
0.09999999999999432,4772,1,80,115
0.09999999999999432,4772,2,80,77
0.09999999999999432,4772,3,80,66
0.09999999999999432,4772,4,80,72
0.10000000000002274,4772,5,80,69
0.10000000000002274,4772,6,80,106
0.09999999999999432,4772,7,80,110
0.09999999999999432,4772,8,80,99
0.09999999999999432,4772,9,80,50
0.10000000000002274,4772,10,80,111
0.09999999999999432,4772,11,80,100
0.09999999999999432,4772,12,80,100
0.09999999999999432,4772,13,80,60
0.10000000000002274,4772,14,80,112
0.09999999999999432,4772,15,80,82
0.09999999999999432,4773,0,80,99
0.09999999999999432,4773,1,80,97
0.09999999999999432,4773,2,80,110
0.09999999999999432,4773,3,80,56
0.09999999999999432,4773,4,80,61
0.09999999999999432,4773,5,80,89
0.09999999999999432,4773,6,80,127
0.09999999999999432,4773,7,80,127
0.10000000000002274,4773,8,80,84
0.10000000000002274,4773,9,80,73
0.10000000000002274,4773,10,80,117
0.09999999999999432,4773,11,80,97
0.09999999999999432,4773,12,80,127
0.09999999999999432,4773,13,80,111
0.09999999999999432,4773,14,80,127
0.10000000000002274,4773,15,80,84
0.09999999999999432,4774,0,80,116
0.10000000000002274,4774,1,80,86
0.09999999999999432,4774,2,80,90
0.10000000000002274,4774,3,80,127
0.09999999999999432,4774,4,80,127
0.09999999999999432,4774,5,80,30
0.09999999999999432,4774,6,80,57
0.01590909090907644,4774,7,80,127
0.09999999999999432,4774,8,80,118
0.09999999999999432,4774,9,80,104
0.09999999999999432,4774,10,80,98
0.09999999999999432,4774,11,80,103
0.09999999999999432,4774,12,80,26
0.09999999999999432,4774,13,80,86
0.09999999999999432,4774,14,80,77
0.09999999999999432,4774,15,80,114
0.09999999999999432,4775,0,80,19
0.09999999999999432,4775,1,80,71
0.09999999999999432,4775,2,80,66
0.10000000000002274,4775,3,80,114
0.09999999999999432,4775,4,80,76
0.09999999999999432,4775,5,80,65
0.09999999999999432,4775,6,80,89
0.09999999999999432,4775,7,80,108
0.09999999999999432,4775,8,80,119
0.09999999999999432,4775,9,80,78
0.09999999999999432,4775,10,80,26
0.09999999999999432,4775,11,80,91
0.09999999999999432,4775,12,80,56
0.10000000000002274,4775,13,80,62
0.09999999999999432,4775,14,80,79
0.09999999999999432,4775,15,80,100
0.09999999999999432,4776,0,80,103
0.10000000000002274,4776,1,80,86
0.09999999999999432,4776,2,80,77
0.10000000000002274,4776,3,80,112
0.10000000000002274,4776,4,80,102
0.09999999999999432,4776,5,80,26
0.09999999999999432,4776,6,80,63
0.10000000000002274,4776,7,80,99
0.09999999999999432,4776,8,80,56
0.09999999999999432,4776,9,80,80
0.09999999999999432,4776,10,80,77
0.10000000000002274,4776,11,80,127
0.09999999999999432,4776,12,80,102
0.09999999999999432,4776,13,80,92
0.10000000000002274,4776,14,80,103
0.09999999999999432,4776,15,80,127
0.09999999999999432,4777,0,80,71
0.09999999999999432,4777,1,80,80
0.09999999999999432,4777,2,80,75
0.09999999999999432,4777,3,80,61
0.10000000000000142,4777,4,65,1
0.10000000000000142,4777,5,65,4
0.09999999999999787,4777,6,65,3
0.09999999999999787,4777,7,65,6
0.09999999999999787,4777,8,65,4
0.10000000000000142,4777,9,65,7
0.10000000000000142,4777,10,65,1
0.10000000000000142,4777,11,65,7
0.10000000000000142,4777,12,65,10
0.10000000000000142,4777,13,65,6
0.10000000000000142,4777,14,65,6
0.10000000000000142,4777,15,65,12
0.10000000000000142,4778,0,65,4
0.09999999999999432,4778,1,65,4
0.09999999999999432,4778,2,65,4
0.10000000000000142,4778,3,65,9
0.10000000000000142,4778,4,65,6
0.10000000000000142,4778,5,65,8
0.10000000000000142,4778,6,65,7
0.09999999999999432,4778,7,65,12
0.10000000000000142,4778,8,65,9
0.10000000000000142,4778,9,65,4
0.10000000000000142,4778,10,65,2
0.10000000000000142,4778,11,65,12
0.10000000000000142,4778,12,65,7
0.09999999999999432,4778,13,65,5
0.10000000000000142,4778,14,65,13
0.10000000000000142,4778,15,65,8
0.09999999999999432,4779,0,65,12
0.10000000000000142,4779,1,65,9
0.10000000000000142,4779,2,65,13
0.10000000000000142,4779,3,65,7
0.06818181818181301,4779,4,65,10
0.09999999999999432,4779,5,65,3
0.10000000000000142,4779,6,65,4
0.10000000000000142,4779,7,65,17
0.10000000000000142,4779,8,65,16
0.09999999999999432,4779,9,65,6
0.10000000000000142,4779,10,65,7
0.10000000000000142,4779,11,65,11
0.10000000000000142,4779,12,65,1
0.10000000000000142,4779,13,65,4
0.09999999999999432,4779,14,65,9
0.06818181818181301,4779,15,65,14
0.10000000000000142,4780,0,65,21
0.10000000000000142,4780,1,65,32
0.09999999999999432,4780,2,65,5
0.10000000000000142,4780,3,65,8
0.10000000000000142,4780,4,65,12
0.09999999999999432,4780,5,65,18
0.10000000000000142,4780,6,65,10
0.10000000000000142,4780,7,65,12
0.10000000000000142,4780,8,65,8
0.10000000000000142,4780,9,65,18
0.10000000000000142,4780,10,65,8
0.10000000000000142,4780,11,65,2
0.10000000000000142,4780,12,65,9
0.10000000000002274,4780,13,65,15
0.09999999999999432,4780,14,65,27
0.09999999999999787,4780,15,54,60
0.10000000000000142,4781,0,54,99
0.10000000000000142,4781,1,54,94
0.10000000000000142,4781,2,54,74
0.09999999999999787,4781,3,54,98
0.09999999999999787,4781,4,54,102
0.09999999999999787,4781,5,54,54
0.10000000000000142,4781,6,54,71
0.10000000000000142,4781,7,54,106
0.09999999999999432,4781,8,54,50
0.10000000000000142,4781,9,54,81
0.10000000000000142,4781,10,54,78
0.10000000000000142,4781,11,54,92
0.10000000000000142,4781,12,54,87
0.09999999999999432,4781,13,54,63
0.10000000000000142,4781,14,54,85
0.09999999999999432,4781,15,54,66
0.10000000000000142,4782,0,54,71
0.09999999999999432,4782,1,54,103
0.09999999999999432,4782,2,54,65
0.10000000000000142,4782,3,54,105
0.09999999999999432,4782,4,54,75
0.10000000000000142,4782,5,54,96
0.10000000000000142,4782,6,54,111
0.10000000000000142,4782,7,54,81
0.10000000000000142,4782,8,54,85
0.10000000000000142,4782,9,54,85
0.10000000000000142,4782,10,54,71
0.09999999999999432,4782,11,54,99
0.10000000000000142,4782,12,54,80
0.10000000000000142,4782,13,54,99
0.10000000000000142,4782,14,54,69
0.10000000000000142,4782,15,54,93
0.10000000000000142,4783,0,54,83
0.10000000000000142,4783,1,54,82
0.10000000000000142,4783,2,54,69
0.09999999999999432,4783,3,54,68
0.10000000000000142,4783,4,54,49
0.09999999999999432,4783,5,54,110
0.10000000000000142,4783,6,54,10
0.10000000000000142,4783,7,54,97
0.10000000000000142,4783,8,54,85
0.10000000000000142,4783,9,54,51
0.09999999999999432,4783,10,54,87
0.10000000000000142,4783,11,54,89
0.10000000000000142,4783,12,54,101
0.10000000000000142,4783,13,54,26
0.0022727272727252057,4783,14,54,73
0.09999999999999432,4783,15,54,110
0.10000000000000142,4784,0,54,86
0.10000000000000142,4784,1,54,93
0.10000000000000142,4784,2,54,105
0.10000000000000142,4784,3,54,100
0.10000000000000142,4784,4,54,91
0.10000000000000142,4784,5,54,91
0.10000000000000142,4784,6,54,78
0.10000000000000142,4784,7,54,71
0.09999999999999432,4784,8,54,63
0.10000000000000142,4784,9,54,75
0.09999999999999432,4784,10,54,66
0.10000000000000142,4784,11,54,90
0.09999999999999432,4784,12,54,97
0.10000000000000142,4784,13,54,83
0.10000000000000142,4784,14,54,92
0.10000000000000142,4784,15,54,69
0.09999999999999432,4785,0,54,64
0.10000000000000142,4785,1,54,97
0.10000000000000142,4785,2,54,65
0.10000000000000142,4785,3,54,74
0.10000000000000142,4785,4,54,91
0.10000000000000142,4785,5,54,53
0.10000000000000142,4785,6,54,51
0.09999999999999432,4785,7,54,101
0.10000000000000142,4785,8,54,108
0.09999999999999432,4785,9,54,72
0.10000000000000142,4785,10,54,89
0.10000000000000142,4785,11,54,77
0.10000000000000142,4785,12,54,67
0.09999999999999432,4785,13,54,78
0.09999999999999432,4785,14,54,62
0.09999999999999432,4785,15,54,68
0.10000000000000142,4786,0,54,20
0.10000000000000142,4786,1,54,29
0.09999999999999432,4786,2,54,40
0.10000000000000142,4786,3,54,81
0.10000000000000142,4786,4,54,36
0.10000000000000142,4786,5,54,31
0.10000000000000142,4786,6,54,80
0.09999999999999432,4786,7,54,35
0.09999999999999432,4786,8,54,55
0.09999999999999432,4786,9,54,26
0.09999999999999432,4786,10,54,73
0.10000000000000853,4786,11,54,29
0.09999999999999432,4786,12,54,85
0.10000000000000853,4786,13,54,46
0.09999999999999432,4786,14,54,59
0.09999999999999432,4786,15,54,49
0.09999999999999432,4787,0,54,47
0.09999999999999432,4787,1,54,104
0.09999999999999432,4787,2,54,75
0.09999999999999432,4787,3,54,36
0.09999999999999432,4787,4,54,64
0.09999999999999432,4787,5,54,27
0.09999999999999432,4787,6,54,71
0.09999999999999432,4787,7,54,82
0.09999999999999432,4787,8,54,45
0.09999999999999432,4787,9,54,75
0.09999999999999432,4787,10,54,24
0.09999999999999432,4787,11,54,84
0.09999999999999432,4787,12,54,66
0.09999999999999432,4787,13,54,42
0.10000000000000853,4787,14,54,63
0.09999999999999432,4787,15,54,96
0.10000000000000853,4788,0,54,58
0.09999999999999432,4788,1,54,72
0.09999999999999432,4788,2,54,73
0.09999999999999432,4788,3,54,84
0.10000000000000853,4788,4,54,96
0.10000000000000853,4788,5,54,35
0.09999999999999432,4788,6,54,50
0.09999999999999432,4788,7,54,76
0.10000000000000853,4788,8,54,45
0.09999999999999432,4788,9,54,41
0.10000000000000853,4788,10,54,71
0.09999999999999432,4788,11,54,84
0.09999999999999432,4788,12,54,86
0.10000000000000853,4788,13,54,57
0.09999999999999432,4788,14,54,61
0.10000000000000853,4788,15,54,79
0.09999999999999432,4789,0,54,76
0.09999999999999432,4789,1,54,53
0.09999999999999432,4789,2,54,57
0.09999999999999432,4789,3,54,51
0.09999999999999432,4789,4,54,48
0.09999999999999432,4789,5,54,127
0.10000000000000853,4789,6,54,77
0.09999999999999432,4789,7,54,110
0.10000000000000853,4789,8,54,88
0.09999999999999432,4789,9,54,41
0.09999999999999432,4789,10,54,72
0.09999999999999432,4789,11,54,37
0.09999999999999432,4789,12,54,77
0.09999999999999432,4789,13,54,76
0.10000000000000853,4789,14,54,74
0.09999999999999432,4789,15,54,64
0.09999999999999432,4790,0,54,99
0.09999999999999432,4790,1,54,93
0.10000000000000853,4790,2,54,92
0.10000000000000853,4790,3,54,97
0.09999999999999432,4790,4,54,110
0.09999999999999432,4790,5,54,86
0.10000000000000853,4790,6,54,80
0.09999999999999432,4790,7,54,99
0.09999999999999432,4790,8,54,107
0.10000000000000853,4790,9,54,57
0.09999999999999432,4790,10,54,110
0.09999999999999432,4790,11,54,36
0.10000000000000853,4790,12,54,64
0.10000000000000853,4790,13,54,101
0.09999999999999432,4790,14,54,122
0.09999999999999432,4790,15,54,64
0.09999999999999432,4791,0,54,81
0.09999999999999432,4791,1,54,74
0.09999999999999432,4791,2,54,96
0.09999999999999432,4791,3,54,82
0.09999999999999432,4791,4,54,98
0.09999999999999432,4791,5,54,98
0.09999999999999432,4791,6,54,56
0.09999999999999432,4791,7,54,71
0.10000000000002274,4791,8,54,98
0.10000000000002274,4791,9,54,93
0.09999999999999432,4791,10,54,71
0.09999999999999432,4791,11,54,41
0.09999999999999432,4791,12,54,72
0.09999999999999432,4791,13,54,89
0.09999999999999432,4791,14,54,77
0.06818181818181301,4791,15,54,68
0.09999999999999432,4792,0,54,93
0.10000000000002274,4792,1,54,95
0.09999999999999432,4792,2,54,35
0.09999999999999432,4792,3,54,34
0.09999999999999432,4792,4,54,119
0.10000000000002274,4792,5,54,108
0.09999999999999432,4792,6,54,78
0.09999999999999432,4792,7,54,79
0.09999999999999432,4792,8,54,62
0.09999999999999432,4792,9,54,93
0.10000000000002274,4792,10,54,76
0.09999999999999432,4792,11,54,95
0.09999999999999432,4792,12,54,90
0.09999999999999432,4792,13,54,65
0.04772727272725774,4792,14,54,86
0.09999999999999432,4792,15,54,85
0.09999999999999432,4793,0,54,73
0.09999999999999432,4793,1,54,82
0.09999999999999432,4793,2,54,106
0.10000000000002274,4793,3,54,91
0.10000000000002274,4793,4,54,87
0.09999999999999432,4793,5,54,62
0.09999999999999432,4793,6,54,60
0.09999999999999432,4793,7,54,67
0.09999999999999432,4793,8,54,74
0.09999999999999432,4793,9,54,71
0.09999999999999432,4793,10,54,91
0.09999999999999432,4793,11,54,45
0.09999999999999432,4793,12,54,72
0.10000000000002274,4793,13,54,98
0.06818181818184144,4793,14,54,94
0.09999999999999432,4793,15,54,110
0.09999999999999432,4794,0,54,66
0.09999999999999432,4794,1,54,95
0.09999999999999432,4794,2,54,52
0.09999999999999432,4794,3,54,49
0.09999999999999432,4794,4,54,71
0.10000000000002274,4794,5,54,51
0.10000000000002274,4794,6,54,66
0.06818181818184144,4794,7,54,58
0.025000000000005684,4794,8,54,53
0.09999999999999432,4794,9,54,86
0.09999999999999432,4794,10,54,58
0.09999999999999432,4794,11,54,72
0.09999999999999432,4794,12,54,58
0.09999999999999432,4794,13,54,84
0.09999999999999432,4794,14,54,62
0.09999999999999432,4794,15,54,90
0.10000000000002274,4795,0,54,76
0.09999999999999432,4795,1,54,63
0.09999999999999432,4795,2,54,58
0.004545454545450411,4795,3,54,94
0.06818181818181301,4795,4,54,100
0.10000000000002274,4795,5,54,116
0.09999999999999432,4795,6,54,71
0.09999999999999432,4795,7,54,87
0.09999999999999432,4795,8,54,72
0.09999999999999432,4795,9,54,56
0.09999999999999432,4795,10,54,68
0.09999999999999432,4795,11,54,97
0.10000000000002274,4795,12,54,82
0.09999999999999432,4795,13,54,55
0.09999999999999432,4795,14,54,28
0.09999999999999432,4795,15,54,91
0.04772727272725774,4796,0,54,96
0.004545454545450411,4796,1,54,100
0.024999999999977263,4796,2,54,102
0.04545454545456096,4796,3,54,93
0.04772727272728616,4796,4,54,82
0.10000000000002274,4796,5,54,43
0.10000000000002274,4796,6,54,64
0.09999999999999432,4796,7,54,79
0.09999999999999432,4796,8,54,63
0.09999999999999432,4796,9,54,71
0.09999999999999432,4796,10,54,65
0.09999999999999432,4796,11,54,59
0.09999999999999432,4796,12,54,31
0.06818181818181301,4796,13,54,57
0.10000000000002274,4796,14,54,66
0.04545454545456096,4796,15,54,36
0.09999999999999432,4797,0,54,73
0.09999999999999432,4797,1,54,49
0.09999999999999432,4797,2,54,46
0.09999999999999432,4797,3,54,65
0.10000000000002274,4797,4,54,43
0.10000000000002274,4797,5,54,84
0.09999999999999432,4797,6,54,97
0.10000000000002274,4797,7,54,63
0.10000000000002274,4797,8,54,92
0.09999999999999432,4797,9,54,73
0.09999999999999432,4797,10,54,32
0.09999999999999432,4797,11,54,74
0.09999999999999432,4797,12,54,86
0.09999999999999432,4797,13,54,1
0.09999999999999787,4797,14,65,127
0.09999999999999787,4797,15,65,127
0.10000000000000142,4798,0,65,127
0.09999999999999787,4798,1,65,127
0.10000000000000142,4798,2,65,127
0.10000000000000142,4798,3,65,22
0.10000000000000142,4798,4,65,127
0.09999999999999787,4798,5,65,6
0.10000000000000142,4798,6,65,87
0.09999999999999787,4798,7,65,127
0.09999999999999787,4798,8,65,127
0.09999999999999787,4798,9,65,127
0.09999999999999787,4798,10,65,2
0.10000000000000142,4798,11,65,127
0.10000000000000142,4798,12,65,16
0.10000000000000142,4798,13,65,126
0.10000000000000142,4798,14,65,5
0.10000000000000142,4798,15,65,127
0.10000000000000142,4799,0,65,127
0.10000000000000142,4799,1,65,127
0.10000000000000142,4799,2,65,127
0.10000000000000142,4799,3,65,4
0.09999999999999432,4799,4,65,127
0.10000000000000142,4799,5,65,16
0.09999999999999432,4799,6,65,119
0.10000000000000142,4799,7,65,5
0.10000000000000142,4799,8,65,127
0.10000000000000142,4799,9,65,127
0.10000000000000142,4799,10,65,127
0.10000000000000142,4799,11,65,125
0.09999999999999432,4799,12,65,5
0.10000000000000142,4799,13,65,127
0.09999999999999432,4799,14,65,17
0.10000000000000142,4799,15,65,127
0.09999999999999432,4800,0,65,5
0.10000000000000142,4800,1,65,127
0.09999999999999432,4800,2,65,127
0.09999999999999432,4800,3,65,127
0.09999999999999432,4800,4,65,127
0.10000000000000142,4800,5,65,5
0.09999999999999432,4800,6,65,127
0.10000000000000142,4800,7,65,16
0.10000000000000142,4800,8,65,116
0.10000000000000142,4800,9,65,4
0.10000000000000142,4800,10,65,127
0.10000000000000142,4800,11,65,127
0.10000000000000142,4800,12,65,127
0.10000000000000142,4800,13,65,127
0.09999999999999432,4800,14,65,5
0.10000000000000142,4800,15,65,127
0.10000000000000142,4801,0,65,16
0.10000000000000142,4801,1,65,120
0.10000000000000142,4801,2,65,4
0.09999999999999432,4801,3,65,127
0.10000000000000142,4801,4,65,127
0.10000000000000142,4801,5,65,127
0.10000000000000142,4801,6,65,127
0.10000000000000142,4801,7,65,4
0.10000000000000142,4801,8,65,127
0.10000000000000142,4801,9,65,17
0.10000000000000142,4801,10,65,127
0.10000000000000142,4801,11,65,5
0.10000000000000142,4801,12,65,127
0.10000000000000142,4801,13,65,127
0.10000000000000142,4801,14,65,127
0.10000000000000142,4801,15,65,127
0.09999999999999432,4802,0,65,4
0.10000000000000142,4802,1,65,127
0.09999999999999432,4802,2,65,18
0.09999999999999432,4802,3,65,127
0.10000000000000142,4802,4,65,5
0.10000000000000142,4802,5,65,127
0.09999999999999432,4802,6,65,127
0.10000000000000142,4802,7,65,107
0.10000000000000142,4802,8,65,127
0.10000000000000142,4802,9,65,123
0.10000000000000142,4802,10,65,10
0.10000000000000142,4802,11,65,127
0.10000000000000142,4802,12,65,127
0.09999999999999432,4802,13,65,6
0.10000000000000142,4802,14,65,127
0.09999999999999432,4802,15,65,127
0.10000000000000142,4803,0,65,127
0.09999999999999432,4803,1,65,127
0.09999999999999432,4803,2,65,6
0.09999999999999432,4803,3,65,127
0.10000000000000142,4803,4,65,16
0.09999999999999432,4803,5,65,127
0.10000000000000142,4803,6,65,2
0.09999999999999432,4803,7,65,127
0.10000000000000142,4803,8,65,127
0.10000000000000142,4803,9,65,127
0.10000000000000142,4803,10,65,127
0.10000000000000142,4803,11,65,4
0.10000000000000142,4803,12,65,127
0.10000000000000142,4803,13,65,17
0.10000000000000142,4803,14,65,127
0.10000000000000142,4803,15,65,4
0.09999999999999432,4804,0,65,127
0.10000000000000142,4804,1,65,127
0.10000000000000142,4804,2,65,127
0.10000000000000142,4804,3,65,127
0.10000000000000142,4804,4,65,4
0.10000000000000142,4804,5,65,127
0.10000000000000142,4804,6,65,13
0.10000000000000142,4804,7,65,127
0.10000000000000142,4804,8,65,4
0.10000000000000142,4804,9,65,127
0.10000000000000142,4804,10,65,127
0.10000000000000142,4804,11,65,127
0.10000000000000142,4804,12,65,124
0.10000000000000142,4804,13,65,5
0.10000000000000142,4804,14,65,127
0.09999999999999432,4804,15,65,17
0.10000000000000142,4805,0,65,127
0.09999999999999432,4805,1,65,5
0.10000000000000142,4805,2,65,127
0.09999999999999432,4805,3,65,127
0.09999999999999432,4805,4,65,127
0.09999999999999432,4805,5,65,100
0.10000000000000142,4805,6,65,6
0.09999999999999432,4805,7,65,127
0.10000000000000142,4805,8,65,7
0.09999999999999432,4805,9,65,115
0.09999999999999432,4805,10,65,6
0.10000000000000142,4805,11,65,127
0.10000000000000142,4805,12,65,127
0.10000000000000142,4805,13,65,127
0.10000000000000142,4805,14,65,104
0.09999999999999432,4805,15,65,5
0.09999999999999432,4806,0,65,127
0.09999999999999432,4806,1,65,7
0.09999999999999432,4806,2,65,116
0.10000000000000142,4806,3,65,5
0.09999999999999432,4806,4,65,127
0.09999999999999432,4806,5,65,127
0.09999999999999432,4806,6,65,127
0.10000000000000853,4806,7,65,109
0.10000000000000853,4806,8,65,7
0.09999999999999432,4806,9,65,127
0.09999999999999432,4806,10,65,8
0.10000000000000853,4806,11,65,107
0.10000000000000853,4806,12,65,7
0.10000000000000853,4806,13,65,127
0.09999999999999432,4806,14,65,127
0.10000000000000853,4806,15,65,97
0.09999999999999432,4807,0,65,127
0.10000000000000853,4807,1,65,127
0.09999999999999432,4807,2,65,9
0.10000000000000853,4807,3,65,66
0.10000000000000853,4807,4,65,127
0.10000000000000853,4807,5,65,10
0.10000000000000853,4807,6,65,127
0.10000000000000853,4807,7,65,9
0.10000000000000853,4807,8,65,127
0.09999999999999432,4807,9,65,127
0.09999999999999432,4807,10,65,127
0.10000000000000853,4807,11,65,116
0.10000000000000853,4807,12,65,7
0.09999999999999432,4807,13,65,127
0.09999999999999432,4807,14,65,8
0.10000000000000853,4807,15,65,122
0.10000000000000853,4808,0,65,7
0.10000000000000853,4808,1,65,127
0.09999999999999432,4808,2,65,127
0.09999999999999432,4808,3,65,127
0.10000000000000853,4808,4,65,94
0.10000000000000853,4808,5,65,8
0.09999999999999432,4808,6,65,127
0.09999999999999432,4808,7,65,7
0.10000000000000853,4808,8,65,121
0.09999999999999432,4808,9,65,6
0.10000000000000853,4808,10,65,127
0.09999999999999432,4808,11,65,127
0.09999999999999432,4808,12,65,127
0.09999999999999432,4808,13,65,117
0.10000000000000853,4808,14,65,6
0.09999999999999432,4808,15,65,127
0.09999999999999432,4809,0,65,8
0.10000000000000853,4809,1,65,112
0.09999999999999432,4809,2,65,6
0.10000000000000853,4809,3,65,127
0.09999999999999432,4809,4,65,127
0.10000000000000853,4809,5,65,107
0.09999999999999432,4809,6,65,127
0.10000000000000853,4809,7,65,113
0.10000000000000853,4809,8,65,6
0.09999999999999432,4809,9,65,127
0.09999999999999432,4809,10,65,8
0.10000000000000853,4809,11,65,119
0.09999999999999432,4809,12,65,2
0.09999999999999432,4809,13,65,127
0.09999999999999432,4809,14,65,127
0.10000000000000853,4809,15,65,127
0.10000000000000853,4810,0,65,120
0.10000000000000853,4810,1,65,6
0.09999999999999432,4810,2,65,127
0.09999999999999432,4810,3,65,7
0.10000000000000853,4810,4,65,117
0.09999999999999432,4810,5,65,6
0.10000000000000853,4810,6,65,127
0.09999999999999432,4810,7,65,127
0.09999999999999432,4810,8,65,127
0.10000000000000853,4810,9,65,126
0.10000000000000853,4810,10,65,6
0.09999999999999432,4810,11,65,127
0.09999999999999432,4810,12,65,7
0.09999999999999432,4810,13,65,117
0.10000000000000853,4810,14,65,6
0.10000000000000853,4810,15,65,127
0.09999999999999432,4811,0,65,127
0.09999999999999432,4811,1,65,127
0.10000000000000853,4811,2,65,108
0.10000000000000853,4811,3,65,6
0.09999999999999432,4811,4,65,127
0.09999999999999432,4811,5,65,127
0.09999999999999432,4811,6,65,127
0.10000000000000853,4811,7,65,58
0.10000000000000853,4811,8,65,55
0.10000000000000853,4811,9,65,58
0.10000000000000853,4811,10,65,38
0.10000000000000853,4811,11,65,16
0.10000000000000853,4811,12,65,39
0.09999999999999432,4811,13,65,42
0.09999999999999432,4811,14,65,37
0.10000000000000853,4811,15,65,39
0.09999999999999432,4812,0,65,39
0.09999999999999432,4812,1,65,36
0.10000000000000853,4812,2,65,37
0.10000000000000853,4812,3,65,39
0.09999999999999432,4812,4,65,37
0.10000000000000853,4812,5,65,35
0.10000000000000853,4812,6,65,34
0.10000000000000853,4812,7,65,127
0.09999999999999432,4812,8,65,127
0.09999999999999432,4812,9,65,5
0.09999999999999432,4812,10,65,40
0.09999999999999432,4812,11,65,4
0.09999999999999432,4812,12,65,4
0.10000000000000853,4812,13,65,3
0.09999999999999432,4812,14,65,41
0.09999999999999432,4812,15,65,2
0.09999999999999432,4813,0,65,127
0.10000000000000853,4813,1,65,5
0.10000000000000853,4813,2,65,44
0.09999999999999432,4813,3,65,4
0.09999999999999432,4813,4,65,4
0.10000000000000853,4813,5,65,4
0.09999999999999432,4813,6,65,40
0.09999999999999432,4813,7,65,2
0.09999999999999432,4813,8,65,127
0.10000000000000853,4813,9,65,5
0.09999999999999432,4813,10,65,44
0.09999999999999432,4813,11,65,4
0.09999999999999432,4813,12,65,4
0.10000000000000853,4813,13,65,5
0.10000000000000853,4813,14,65,19
0.10000000000000853,4813,15,65,8
0.09999999999999432,4814,0,65,38
0.10000000000000853,4814,1,65,110
0.06818181818182723,4814,2,65,127
0.09999999999999432,4814,3,65,127
0.09999999999999432,4814,4,65,127
0.10000000000000853,4814,5,65,127
0.10000000000000853,4814,6,65,127
0.09999999999999432,4814,7,65,127
0.09999999999999432,4814,8,65,124
0.10000000000000853,4814,9,65,127
0.10000000000000853,4814,10,65,4
0.09999999999999432,4814,11,65,127
0.09999999999999432,4814,12,65,1
0.09999999999999432,4814,13,65,127
0.09999999999999432,4814,14,65,127
0.09999999999999432,4814,15,65,127
0.10000000000000853,4815,0,65,119
0.09999999999999432,4815,1,65,127
0.10000000000000853,4815,2,65,126
0.09999999999999432,4815,3,65,127
0.10000000000000853,4815,4,65,127
0.09999999999999432,4815,5,65,127
0.09999999999999432,4815,6,65,119
0.10000000000000853,4815,7,65,127
0.10000000000000853,4815,8,65,4
0.09999999999999432,4815,9,65,127
0.09999999999999432,4815,10,65,1
0.09999999999999432,4815,11,65,127
0.09999999999999432,4815,12,65,127
0.09999999999999432,4815,13,65,127
0.09999999999999432,4815,14,65,127
0.09999999999999432,4815,15,65,1
0.09999999999999432,4816,0,65,127
0.09999999999999432,4816,1,65,4
0.09999999999999432,4816,2,65,117
0.09999999999999432,4816,3,65,127
0.09999999999999432,4816,4,65,127
0.09999999999999432,4816,5,65,127
0.09999999999999432,4816,6,65,127
0.10000000000002274,4816,7,65,1
0.09999999999999432,4816,8,65,127
0.09999999999999432,4816,9,65,4
0.09999999999999432,4816,10,65,127
0.09999999999999432,4816,11,65,1
0.09999999999999432,4816,12,65,127
0.09999999999999432,4816,13,65,127
0.10000000000002274,4816,14,65,127
0.09999999999999432,4816,15,65,127
0.09999999999999432,4817,0,65,118
0.10000000000002274,4817,1,65,127
0.10000000000002274,4817,2,65,127
0.09999999999999432,4817,3,65,127
0.09999999999999432,4817,4,65,127
0.09999999999999432,4817,5,65,124
0.09999999999999432,4817,6,65,1
0.09999999999999432,4817,7,65,127
0.09999999999999432,4817,8,65,4
0.09999999999999432,4817,9,65,127
0.10000000000002274,4817,10,65,1
0.09999999999999432,4817,11,65,127
0.09999999999999432,4817,12,65,127
0.09999999999999432,4817,13,65,127
0.09999999999999432,4817,14,65,127
0.10000000000002274,4817,15,65,121
0.09999999999999432,4818,0,65,127
0.09999999999999432,4818,1,65,127
0.09999999999999432,4818,2,65,127
0.09999999999999432,4818,3,65,127
0.09999999999999432,4818,4,65,127
0.09999999999999432,4818,5,65,127
0.10000000000002274,4818,6,65,1
0.09999999999999432,4818,7,65,127
0.09999999999999432,4818,8,65,4
0.10000000000002274,4818,9,65,127
0.10000000000002274,4818,10,65,127
0.09999999999999432,4818,11,65,127
0.10000000000002274,4818,12,65,127
0.09999999999999432,4818,13,65,127
0.09999999999999432,4818,14,65,127
0.09999999999999432,4818,15,65,4
0.09999999999999432,4819,0,65,125
0.10000000000002274,4819,1,65,1
0.10000000000002274,4819,2,65,127
0.09999999999999432,4819,3,65,127
0.09999999999999432,4819,4,65,127
0.09999999999999432,4819,5,65,124
0.09999999999999432,4819,6,65,127
0.09999999999999432,4819,7,65,127
0.09999999999999432,4819,8,65,127
0.09999999999999432,4819,9,65,127
0.09999999999999432,4819,10,65,127
0.10000000000002274,4819,11,65,126
0.09999999999999432,4819,12,65,127
0.09999999999999432,4819,13,65,4
0.09999999999999432,4819,14,65,127
0.09999999999999432,4819,15,65,127
0.09999999999999432,4820,0,65,127
0.10000000000002274,4820,1,65,127
0.09999999999999432,4820,2,65,104
0.10000000000002274,4820,3,65,9
0.09999999999999432,4820,4,65,127
0.09999999999999432,4820,5,65,7
0.10000000000002274,4820,6,65,104
0.09999999999999432,4820,7,65,7
0.10000000000002274,4820,8,65,127
0.09999999999999432,4820,9,65,127
0.09999999999999432,4820,10,65,127
0.09999999999999432,4820,11,65,104
0.09999999999999432,4820,12,65,7
0.09999999999999432,4820,13,65,127
0.09999999999999432,4820,14,65,8
0.09999999999999432,4820,15,65,109
0.10000000000002274,4821,0,65,7
0.09999999999999432,4821,1,65,127
0.09999999999999432,4821,2,65,127
0.09999999999999432,4821,3,65,127
0.10000000000002274,4821,4,65,108
0.09999999999999432,4821,5,65,8
0.09999999999999432,4821,6,65,127
0.09999999999999432,4821,7,65,9
0.09999999999999432,4821,8,65,118
0.09999999999999432,4821,9,65,7
0.09999999999999432,4821,10,65,127
0.09999999999999432,4821,11,65,127
0.09999999999999432,4821,12,65,127
0.09999999999999432,4821,13,65,127
0.09999999999999432,4821,14,65,108
0.10000000000002274,4821,15,65,6
0.09999999999999432,4822,0,65,16
0.10000000000002274,4822,1,65,50
0.09999999999999432,4822,2,65,46
0.10000000000002274,4822,3,65,50
0.10000000000002274,4822,4,65,46
0.09999999999999432,4822,5,65,50
0.10000000000002274,4822,6,65,48
0.09999999999999432,4822,7,65,47
0.09999999999999432,4822,8,65,50
0.10000000000002274,4822,9,65,50
0.09999999999999432,4822,10,65,48
0.09999999999999432,4822,11,65,50
0.10000000000002274,4822,12,65,48
0.09999999999999432,4822,13,65,45
0.09999999999999432,4822,14,65,50
0.09999999999999432,4822,15,65,84
0.10000000000002274,4823,0,65,62
0.09999999999999432,4823,1,65,127
0.10000000000002274,4823,2,65,116
0.09999999999999432,4823,3,65,127
0.09999999999999432,4823,4,65,127
0.09999999999999432,4823,5,65,127
0.10000000000002274,4823,6,65,108
0.09999999999999432,4823,7,65,127
0.09999999999999432,4823,8,65,117
0.09999999999999432,4823,9,65,127
0.09999999999999432,4823,10,65,127
0.10000000000002274,4823,11,65,25
0.09999999999999432,4823,12,65,127
0.09999999999999432,4823,13,65,22
0.10000000000002274,4823,14,65,108
0.10000000000002274,4823,15,65,5
0.09999999999999432,4824,0,65,2
0.09999999999999432,4824,1,65,127
0.10000000000002274,4824,2,65,21
0.09999999999999432,4824,3,65,8
0.09999999999999432,4824,4,65,2
0.10000000000002274,4824,5,65,102
0.09999999999999432,4824,6,65,5
0.10000000000002274,4824,7,65,127
0.09999999999999432,4824,8,65,127
0.09999999999999432,4824,9,65,23
0.10000000000002274,4824,10,65,127
0.10000000000002274,4824,11,65,22
0.09999999999999432,4824,12,65,114
0.10000000000002274,4824,13,65,7
0.09999999999999432,4824,14,65,2
0.09999999999999432,4824,15,65,127
0.09999999999999432,4825,0,65,11
0.10000000000002274,4825,1,65,127
0.09999999999999432,4825,2,65,5
0.004545454545450411,4825,3,65,8
0.10000000000002274,4825,4,65,127
0.09999999999999432,4825,5,65,127
0.09999999999999432,4825,6,65,40
0.09999999999999432,4825,7,65,127
0.09999999999999432,4825,8,65,24
0.09999999999999432,4825,9,65,123
0.09999999999999432,4825,10,65,10
0.09999999999999432,4825,11,65,4
0.10000000000000009,4825,12,60,3
0.09999999999999987,4825,13,60,30
0.09999999999999987,4825,14,60,7
0.09999999999999987,4825,15,60,11
0.10000000000000009,4826,0,60,9
0.09999999999999964,4826,1,60,2
0.10000000000000009,4826,2,60,14
0.10000000000000009,4826,3,60,13
0.10000000000000009,4826,4,60,24
0.09999999999999964,4826,5,60,7
0.09999999999999964,4826,6,60,11
0.10000000000000009,4826,7,60,15
0.10000000000000009,4826,8,60,12
0.09999999999999964,4826,9,60,32
0.10000000000000053,4826,10,60,8
0.09999999999999964,4826,11,60,11
0.09999999999999964,4826,12,60,12
0.09999999999999964,4826,13,60,33
0.09999999999999964,4826,14,60,14
0.09999999999999964,4826,15,60,17
0.09999999999999964,4827,0,60,10
0.10000000000000053,4827,1,60,9
0.10000000000000053,4827,2,60,10
0.09999999999999964,4827,3,60,9
0.09999999999999964,4827,4,60,14
0.10000000000000053,4827,5,60,6
0.09999999999999964,4827,6,60,8
0.10000000000000053,4827,7,60,7
0.09999999999999964,4827,8,60,13
0.09999999999999964,4827,9,60,8
0.09999999999999964,4827,10,60,17
0.10000000000000053,4827,11,60,6
0.09999999999999964,4827,12,60,9
0.09999999999999964,4827,13,60,10
0.09999999999999964,4827,14,60,8
0.09999999999999964,4827,15,60,20
0.09999999999999964,4828,0,60,11
0.09999999999999964,4828,1,60,10
0.09999999999999964,4828,2,60,7
0.09999999999999964,4828,3,60,4
0.10000000000000142,4828,4,60,17
0.10000000000000142,4828,5,60,6
0.09999999999999964,4828,6,60,11
0.09999999999999964,4828,7,60,8
0.09999999999999964,4828,8,60,10
0.09999999999999964,4828,9,60,13
0.09999999999999964,4828,10,60,13
0.10000000000000142,4828,11,60,16
0.09999999999999964,4828,12,60,10
0.09999999999999964,4828,13,60,10
0.09999999999999964,4828,14,60,3
0.09999999999999964,4828,15,60,16
0.09999999999999964,4829,0,60,7
0.10000000000000142,4829,1,60,14
0.09999999999999964,4829,2,60,10
0.10000000000000142,4829,3,60,14
0.10000000000000142,4829,4,60,16
0.10000000000000142,4829,5,60,8
0.06818181818181834,4829,6,60,13
0.09999999999999964,4829,7,60,20
0.09999999999999964,4829,8,60,8
0.09999999999999964,4829,9,60,10
0.10000000000000142,4829,10,60,8
0.09999999999999964,4829,11,60,15
0.09999999999999964,4829,12,60,11
0.10000000000000142,4829,13,60,23
0.09999999999999964,4829,14,60,13
0.09999999999999964,4829,15,60,9
0.10000000000000142,4830,0,60,11
0.09999999999999964,4830,1,60,8
0.09999999999999964,4830,2,60,19
0.09999999999999964,4830,3,60,9
0.10000000000000142,4830,4,60,8
0.10000000000000142,4830,5,60,8
0.10000000000000142,4830,6,60,13
0.10000000000000142,4830,7,60,7
0.10000000000000142,4830,8,60,15
0.10000000000000142,4830,9,60,8
0.10000000000000142,4830,10,60,6
0.09999999999999787,4830,11,60,7
0.10000000000000142,4830,12,60,8
0.06590909090909136,4830,13,60,9
0.004545454545457517,4830,14,60,13
0.10000000000000142,4830,15,60,9
0.10000000000000142,4831,0,60,9
0.10000000000000142,4831,1,60,11
0.10000000000000142,4831,2,60,9
0.09999999999999787,4831,3,60,15
0.09999999999999787,4831,4,60,8
0.10000000000000142,4831,5,60,7
0.10000000000000142,4831,6,60,6
0.10000000000000142,4831,7,60,14
0.09999999999999787,4831,8,60,32
0.10000000000000142,4831,9,60,14
0.09999999999999787,4831,10,60,19
0.09999999999999787,4831,11,60,10
0.09999999999999787,4831,12,60,20
0.10000000000000142,4831,13,60,13
0.10000000000000142,4831,14,60,11
0.09999999999999787,4831,15,60,12
0.10000000000000142,4832,0,60,7
0.09999999999999787,4832,1,60,16
0.004545454545453964,4832,2,60,25
0.09999999999999787,4832,3,60,21
0.10000000000000142,4832,4,60,19
0.10000000000000142,4832,5,60,18
0.10000000000000142,4832,6,60,10
0.10000000000000142,4832,7,60,15
0.10000000000000142,4832,8,60,12
0.09999999999999787,4832,9,60,7
0.10000000000000142,4832,10,60,7
0.09999999999999787,4832,11,60,10
0.06818181818181657,4832,12,60,12
0.10000000000000142,4832,13,60,30
0.10000000000000142,4832,14,60,25
0.10000000000000142,4832,15,60,25
0.09999999999999787,4833,0,60,21
0.10000000000000142,4833,1,60,20
0.10000000000000142,4833,2,60,13
0.09999999999999787,4833,3,60,18
0.10000000000000142,4833,4,60,14
0.10000000000000142,4833,5,60,11
0.10000000000000142,4833,6,60,19
0.10000000000000142,4833,7,60,13
0.06818181818182012,4833,8,60,21
0.10000000000000142,4833,9,60,23
0.10000000000000142,4833,10,60,31
0.06818181818182012,4833,11,60,33
0.10000000000000142,4833,12,60,20
0.09999999999999787,4833,13,60,48
0.10000000000000142,4833,14,60,22
0.10000000000000142,4833,15,60,32
0.09999999999999787,4834,0,60,34
0.09999999999999787,4834,1,60,32
0.10000000000000142,4834,2,60,30
0.09999999999999787,4834,3,60,21
0.10000000000000142,4834,4,60,23
0.10000000000000142,4834,5,60,36
0.10000000000000142,4834,6,60,28
0.10000000000000142,4834,7,60,21
0.10000000000000142,4834,8,60,31
0.10000000000000142,4834,9,60,22
0.10000000000000142,4834,10,60,28
0.09999999999999432,4834,11,60,33
0.10000000000000142,4834,12,60,30
0.10000000000000142,4834,13,60,28
0.09999999999999432,4834,14,60,32
0.09999999999999432,4834,15,60,36
0.10000000000000142,4835,0,60,27
0.10000000000000142,4835,1,60,18
0.10000000000000142,4835,2,60,31
0.09999999999999432,4835,3,60,21
0.10000000000000142,4835,4,60,21
0.10000000000000142,4835,5,60,23
0.10000000000000142,4835,6,60,17
0.09999999999999432,4835,7,60,16
0.10000000000000142,4835,8,60,10
0.10000000000000142,4835,9,60,27
0.10000000000000142,4835,10,60,23
0.10000000000000142,4835,11,60,22
0.09999999999999432,4835,12,60,20
0.09999999999999432,4835,13,60,35
0.10000000000000142,4835,14,60,36
0.10000000000000142,4835,15,60,29
0.10000000000000142,4836,0,60,26
0.10000000000000142,4836,1,60,24
0.10000000000000142,4836,2,60,20
0.10000000000000142,4836,3,60,29
0.09999999999999432,4836,4,60,19
0.10000000000000142,4836,5,60,20
0.10000000000000142,4836,6,60,24
0.10000000000000142,4836,7,60,28
0.10000000000000142,4836,8,60,34
0.10000000000000142,4836,9,60,37
0.10000000000000142,4836,10,60,21
0.09999999999999432,4836,11,60,28
0.09999999999999432,4836,12,60,28
0.10000000000000142,4836,13,60,19
0.10000000000000142,4836,14,60,40
0.10000000000000142,4836,15,60,13
0.09999999999999432,4837,0,60,22
0.10000000000000142,4837,1,60,21
0.10000000000000142,4837,2,60,41
0.10000000000000142,4837,3,60,27
0.09999999999999432,4837,4,60,35
0.10000000000000142,4837,5,60,35
0.10000000000000142,4837,6,60,30
0.10000000000000142,4837,7,60,34
0.10000000000000142,4837,8,60,28
0.10000000000000142,4837,9,60,22
0.09999999999999432,4837,10,60,26
0.10000000000000142,4837,11,60,24
0.10000000000000142,4837,12,60,20
0.10000000000000142,4837,13,60,26
0.09999999999999432,4837,14,60,26
0.09999999999999432,4837,15,60,34
0.10000000000000142,4838,0,60,35
0.10000000000000142,4838,1,60,28
0.09999999999999432,4838,2,60,21
0.10000000000000142,4838,3,60,19
0.10000000000000142,4838,4,60,33
0.09999999999999432,4838,5,60,29
0.09999999999999432,4838,6,60,24
0.10000000000000142,4838,7,60,28
0.10000000000000142,4838,8,60,27
0.10000000000000142,4838,9,60,28
0.10000000000000142,4838,10,60,29
0.09999999999999432,4838,11,60,33
0.10000000000000142,4838,12,60,35
0.10000000000000142,4838,13,60,47
0.10000000000000142,4838,14,60,43
0.09999999999999432,4838,15,60,49
0.09999999999999432,4839,0,60,47
0.10000000000000142,4839,1,60,30
0.10000000000000142,4839,2,60,7
0.10000000000000142,4839,3,60,41
0.10000000000000142,4839,4,60,32
0.09999999999999432,4839,5,60,37
0.10000000000000142,4839,6,60,32
0.10000000000000142,4839,7,60,36
0.10000000000000142,4839,8,60,36
0.09999999999999432,4839,9,60,37
0.09999999999999432,4839,10,60,25
0.06818181818181301,4839,11,60,32
0.0022727272727252057,4839,12,60,34
0.10000000000000142,4839,13,60,36
0.10000000000000142,4839,14,60,25
0.10000000000000142,4839,15,60,42
0.10000000000000142,4840,0,60,42
0.10000000000000142,4840,1,60,27
0.10000000000000142,4840,2,60,31
0.10000000000000142,4840,3,60,35
0.09999999999999432,4840,4,60,26
0.10000000000000142,4840,5,60,28
0.10000000000000142,4840,6,60,49
0.10000000000000142,4840,7,60,34
0.10000000000000142,4840,8,60,38
0.10000000000000142,4840,9,60,20
0.10000000000000142,4840,10,60,30
0.10000000000000142,4840,11,60,32
0.10000000000000142,4840,12,60,27
0.09999999999999432,4840,13,60,27
0.10000000000000142,4840,14,60,22
0.10000000000000142,4840,15,60,14
0.10000000000000142,4841,0,60,30
0.10000000000000142,4841,1,60,35
0.10000000000000142,4841,2,60,30
0.10000000000000142,4841,3,60,34
0.10000000000000142,4841,4,60,35
0.10000000000000142,4841,5,60,33
0.10000000000000142,4841,6,60,37
0.10000000000000142,4841,7,60,23
0.10000000000000142,4841,8,60,14
0.09999999999999432,4841,9,60,54
0.10000000000000142,4841,10,60,45
0.10000000000000142,4841,11,60,41
0.09999999999999432,4841,12,60,42
0.10000000000000142,4841,13,60,24
0.10000000000000142,4841,14,60,33
0.06590909090909491,4841,15,60,39
0.09999999999999432,4842,0,60,50
0.10000000000000142,4842,1,60,25
0.10000000000000142,4842,2,60,22
0.10000000000000142,4842,3,60,16
0.09999999999999432,4842,4,60,36
0.10000000000000142,4842,5,60,47
0.10000000000000142,4842,6,60,34
0.09999999999999432,4842,7,60,36
0.10000000000000142,4842,8,60,28
0.09999999999999432,4842,9,60,31
0.09999999999999432,4842,10,60,32
0.09999999999999432,4842,11,60,28
0.10000000000000142,4842,12,60,21
0.10000000000000142,4842,13,60,30
0.10000000000000142,4842,14,60,20
0.10000000000000142,4842,15,60,33
0.09999999999999432,4843,0,60,21
0.10000000000000142,4843,1,60,27
0.09999999999999432,4843,2,60,40
0.09999999999999432,4843,3,60,31
0.09999999999999432,4843,4,60,37
0.09999999999999432,4843,5,60,19
0.09999999999999432,4843,6,60,36
0.09999999999999432,4843,7,60,15
0.09999999999999432,4843,8,60,28
0.10000000000000853,4843,9,60,20
0.09999999999999432,4843,10,60,23
0.10000000000000853,4843,11,60,28
0.10000000000000853,4843,12,60,28
0.09999999999999432,4843,13,60,25
0.10000000000000853,4843,14,60,32
0.10000000000000853,4843,15,60,15
0.09999999999999432,4844,0,60,35
0.10000000000000853,4844,1,60,22
0.10000000000000853,4844,2,60,12
0.09999999999999432,4844,3,60,13
0.09999999999999432,4844,4,60,26
0.09999999999999432,4844,5,60,25
0.09999999999999432,4844,6,60,29
0.09999999999999432,4844,7,60,19
0.10000000000000853,4844,8,60,12
0.09999999999999432,4844,9,60,21
0.09999999999999432,4844,10,60,31
0.09999999999999432,4844,11,60,24
0.09999999999999432,4844,12,60,21
0.09999999999999432,4844,13,60,15
0.09999999999999432,4844,14,60,23
0.10000000000000853,4844,15,60,16
0.09999999999999432,4845,0,60,28
0.09999999999999432,4845,1,60,25
0.09999999999999432,4845,2,60,21
0.10000000000000853,4845,3,60,29
0.09999999999999432,4845,4,60,31
0.10000000000000853,4845,5,60,12
0.10000000000000853,4845,6,60,27
0.10000000000000853,4845,7,60,33
0.09999999999999432,4845,8,60,25
0.09999999999999432,4845,9,60,24
0.09999999999999432,4845,10,60,19
0.09999999999999432,4845,11,60,19
0.10000000000000853,4845,12,60,28
0.09999999999999432,4845,13,60,16
0.10000000000000853,4845,14,60,38
0.09999999999999432,4845,15,60,14
0.09999999999999432,4846,0,60,32
0.09999999999999432,4846,1,60,30
0.09999999999999432,4846,2,60,31
0.09999999999999432,4846,3,60,8
0.09999999999999432,4846,4,60,22
0.09999999999999432,4846,5,60,40
0.10000000000000853,4846,6,60,26
0.09999999999999432,4846,7,60,22
0.09999999999999432,4846,8,60,28
0.09999999999999432,4846,9,60,38
0.10000000000000853,4846,10,60,24
0.09999999999999432,4846,11,60,33
0.09999999999999432,4846,12,60,16
0.09999999999999432,4846,13,60,9
0.10000000000000853,4846,14,60,19
0.09999999999999432,4846,15,60,34
0.09999999999999432,4847,0,60,23
0.10000000000000853,4847,1,60,34
0.10000000000000853,4847,2,60,22
0.10000000000000853,4847,3,60,29
0.10000000000000853,4847,4,60,28
0.09999999999999432,4847,5,60,25
0.09999999999999432,4847,6,60,27
0.10000000000000853,4847,7,60,21
0.09999999999999432,4847,8,60,21
0.09999999999999432,4847,9,60,39
0.09999999999999432,4847,10,60,37
0.09999999999999432,4847,11,60,25
0.10000000000000853,4847,12,60,29
0.09999999999999432,4847,13,60,26
0.09999999999999432,4847,14,60,39
0.09999999999999432,4847,15,60,46
0.10000000000000853,4848,0,60,44
0.09999999999999432,4848,1,60,24
0.09999999999999432,4848,2,60,21
0.10000000000000853,4848,3,60,22
0.09999999999999432,4848,4,60,9
0.09999999999999432,4848,5,60,51
0.09999999999999432,4848,6,60,9
0.09999999999999432,4848,7,60,34
0.10000000000000853,4848,8,60,23
0.10000000000000853,4848,9,60,44
0.09999999999999432,4848,10,60,30
0.09999999999999432,4848,11,60,30
0.10000000000000853,4848,12,60,39
0.09999999999999432,4848,13,60,6
0.09999999999999432,4848,14,60,37
0.10000000000000853,4848,15,60,31
0.09999999999999432,4849,0,60,20
0.10000000000000853,4849,1,60,27
0.10000000000000853,4849,2,60,8
0.09999999999999432,4849,3,60,28
0.09999999999999432,4849,4,60,20
0.09999999999999432,4849,5,60,22
0.10000000000000853,4849,6,60,10
0.10000000000000853,4849,7,60,36
0.10000000000000853,4849,8,60,6
0.09999999999999432,4849,9,60,24
0.09999999999999432,4849,10,60,13
0.10000000000000853,4849,11,60,21
0.09999999999999432,4849,12,60,10
0.10000000000000853,4849,13,60,33
0.09999999999999432,4849,14,60,17
0.09999999999999432,4849,15,60,34
0.09999999999999432,4850,0,60,6
0.10000000000000853,4850,1,60,40
0.10000000000000853,4850,2,60,10
0.09999999999999432,4850,3,60,18
0.09999999999999432,4850,4,60,23
0.10000000000000853,4850,5,60,26
0.10000000000000853,4850,6,60,17
0.09999999999999432,4850,7,60,10
0.10000000000000853,4850,8,60,32
0.09999999999999432,4850,9,60,18
0.09999999999999432,4850,10,60,24
0.09999999999999432,4850,11,60,5
0.10000000000000853,4850,12,60,20
0.10000000000000853,4850,13,60,8
0.09999999999999432,4850,14,60,41
0.10000000000000853,4850,15,60,12
0.09999999999999432,4851,0,60,23
0.10000000000000853,4851,1,60,15
0.09999999999999432,4851,2,60,7
0.09999999999999432,4851,3,60,33
0.09999999999999432,4851,4,60,17
0.09999999999999432,4851,5,60,14
0.09999999999999432,4851,6,60,3
0.10000000000000853,4851,7,60,41
0.09999999999999432,4851,8,60,8
0.09999999999999432,4851,9,60,15
0.10000000000000853,4851,10,60,33
0.09999999999999432,4851,11,60,21
0.10000000000000853,4851,12,60,21
0.10000000000000853,4851,13,60,13
0.09999999999999432,4851,14,60,36
0.09999999999999432,4851,15,60,22
0.09999999999999432,4852,0,60,22
0.09999999999999432,4852,1,60,10
0.10000000000000853,4852,2,60,32
0.10000000000000853,4852,3,60,13
0.09999999999999432,4852,4,60,24
0.10000000000000853,4852,5,60,20
0.10000000000000853,4852,6,60,23
0.10000000000000853,4852,7,60,20
0.10000000000000853,4852,8,60,10
0.09999999999999432,4852,9,60,26
0.09999999999999432,4852,10,60,23
0.09999999999999432,4852,11,60,37
0.09999999999999432,4852,12,60,19
0.10000000000000853,4852,13,60,37
0.09999999999999432,4852,14,60,22
0.10000000000000853,4852,15,60,28
0.09999999999999432,4853,0,60,22
0.10000000000000853,4853,1,60,26
0.10000000000000853,4853,2,60,24
0.10000000000000853,4853,3,60,12
0.10000000000000853,4853,4,60,27
0.09999999999999432,4853,5,60,30
0.09999999999999432,4853,6,60,36
0.09999999999999432,4853,7,60,27
0.09999999999999432,4853,8,60,44
0.09999999999999432,4853,9,60,15
0.09999999999999432,4853,10,60,21
0.09999999999999432,4853,11,60,33
0.09999999999999432,4853,12,60,34
0.10000000000000853,4853,13,60,31
0.10000000000000853,4853,14,60,22
0.09999999999999432,4853,15,60,25
0.09999999999999432,4854,0,60,25
0.10000000000000853,4854,1,60,13
0.10000000000000853,4854,2,60,23
0.09999999999999432,4854,3,60,10
0.09999999999999432,4854,4,60,23
0.10000000000000853,4854,5,60,38
0.10000000000000853,4854,6,60,37
0.10000000000000853,4854,7,60,23
0.10000000000000853,4854,8,60,10
0.09999999999999432,4854,9,60,19
0.09999999999999432,4854,10,60,28
0.09999999999999432,4854,11,60,32
0.09999999999999432,4854,12,60,20
0.10000000000000853,4854,13,60,28
0.09999999999999432,4854,14,60,23
0.09999999999999432,4854,15,60,38
0.10000000000000853,4855,0,60,20
0.09999999999999432,4855,1,60,21
0.09999999999999432,4855,2,60,25
0.09999999999999432,4855,3,60,12
0.10000000000000853,4855,4,60,28
0.10000000000000853,4855,5,60,18
0.10000000000000853,4855,6,60,10
0.025000000000005684,4855,7,60,24
0.09999999999999432,4855,8,60,62
0.09999999999999432,4855,9,60,19
0.09999999999999432,4855,10,60,11
0.10000000000000853,4855,11,60,63
0.10000000000000853,4855,12,60,33
0.09999999999999432,4855,13,60,22
0.09999999999999432,4855,14,60,26
0.10000000000000853,4855,15,60,32
0.10000000000000853,4856,0,60,21
0.09999999999999432,4856,1,60,11
0.10000000000000853,4856,2,60,75
0.10000000000000853,4856,3,60,31
0.10000000000000853,4856,4,60,49
0.10000000000000853,4856,5,60,24
0.09999999999999432,4856,6,60,21
0.09999999999999432,4856,7,60,22
0.10000000000000853,4856,8,60,34
0.10000000000000853,4856,9,60,29
0.10000000000000853,4856,10,60,19
0.09999999999999432,4856,11,60,17
0.09999999999999432,4856,12,60,17
0.09999999999999432,4856,13,60,13
0.09999999999999432,4856,14,60,34
0.09999999999999432,4856,15,60,19
0.10000000000000853,4857,0,60,38
0.09999999999999432,4857,1,60,20
0.09999999999999432,4857,2,60,27
0.10000000000000853,4857,3,60,19
0.09999999999999432,4857,4,60,15
0.09999999999999432,4857,5,60,24
0.09999999999999432,4857,6,60,13
0.09999999999999432,4857,7,60,45
0.09999999999999432,4857,8,60,35
0.09999999999999432,4857,9,60,45
0.09999999999999432,4857,10,60,25
0.09999999999999432,4857,11,60,29
0.09999999999999432,4857,12,60,24
0.09999999999999432,4857,13,60,28
0.09999999999999432,4857,14,60,30
0.10000000000002274,4857,15,60,31
0.09999999999999432,4858,0,60,32
0.09999999999999432,4858,1,60,39
0.09999999999999432,4858,2,60,18
0.09999999999999432,4858,3,60,29
0.09999999999999432,4858,4,60,24
0.09999999999999432,4858,5,60,41
0.09999999999999432,4858,6,60,27
0.09999999999999432,4858,7,60,34
0.10000000000002274,4858,8,60,27
0.09999999999999432,4858,9,60,19
0.09999999999999432,4858,10,60,25
0.10000000000002274,4858,11,60,41
0.10000000000002274,4858,12,60,36
0.09999999999999432,4858,13,60,42
0.10000000000002274,4858,14,60,33
0.09999999999999432,4858,15,60,41
0.09999999999999432,4859,0,60,34
0.10000000000002274,4859,1,60,23
0.09999999999999432,4859,2,60,57
0.09999999999999432,4859,3,60,31
0.09999999999999432,4859,4,60,28
0.09999999999999432,4859,5,60,29
0.09999999999999432,4859,6,60,44
0.09999999999999432,4859,7,60,34
0.09999999999999432,4859,8,60,127
0.09999999999999432,4859,9,60,33
0.09999999999999432,4859,10,60,21
0.10000000000002274,4859,11,60,24
0.10000000000002274,4859,12,60,19
0.09999999999999432,4859,13,60,42
0.09999999999999432,4859,14,60,20
0.09999999999999432,4859,15,60,37
0.09999999999999432,4860,0,60,24
0.09999999999999432,4860,1,60,21
0.10000000000002274,4860,2,60,18
0.09999999999999432,4860,3,60,20
0.10000000000002274,4860,4,60,13
0.09999999999999432,4860,5,60,36
0.09999999999999432,4860,6,60,25
0.10000000000002274,4860,7,60,40
0.09999999999999432,4860,8,60,39
0.10000000000002274,4860,9,60,24
0.09999999999999432,4860,10,60,17
0.09999999999999432,4860,11,60,25
0.09999999999999432,4860,12,60,10
0.09999999999999432,4860,13,60,50
0.09999999999999432,4860,14,60,33
0.09999999999999432,4860,15,60,29
0.09999999999999432,4861,0,60,15
0.09999999999999432,4861,1,60,35
0.09999999999999432,4861,2,60,54
0.09999999999999432,4861,3,60,47
0.09999999999999432,4861,4,60,37
0.10000000000002274,4861,5,60,31
0.09999999999999432,4861,6,60,35
0.10000000000002274,4861,7,60,39
0.09999999999999432,4861,8,60,34
0.10000000000002274,4861,9,60,26
0.09999999999999432,4861,10,60,41
0.09999999999999432,4861,11,60,34
0.09999999999999432,4861,12,60,40
0.10000000000002274,4861,13,60,80
0.10000000000002274,4861,14,60,36
0.09999999999999432,4861,15,60,40
0.09999999999999432,4862,0,60,38
0.09999999999999432,4862,1,60,16
0.09999999999999432,4862,2,60,62
0.09999999999999432,4862,3,60,32
0.09999999999999432,4862,4,60,51
0.09999999999999432,4862,5,60,29
0.09999999999999432,4862,6,60,62
0.09999999999999432,4862,7,60,64
0.09999999999999432,4862,8,60,19
0.09999999999999432,4862,9,60,19
0.09999999999999432,4862,10,60,12
0.09999999999999432,4862,11,60,10
0.10000000000002274,4862,12,60,10
0.09999999999999432,4862,13,60,6
0.09999999999999432,4862,14,60,8
0.09999999999999432,4862,15,60,59
0.10000000000002274,4863,0,60,35
0.10000000000002274,4863,1,60,26
0.09999999999999432,4863,2,60,15
0.09999999999999432,4863,3,60,10
0.09999999999999432,4863,4,60,10
0.09999999999999432,4863,5,60,8
0.09999999999999432,4863,6,60,14
0.09999999999999432,4863,7,60,39
0.10000000000002274,4863,8,60,16
0.10000000000002274,4863,9,60,21
0.09999999999999432,4863,10,60,8
0.09999999999999432,4863,11,60,8
0.09999999999999432,4863,12,60,8
0.10000000000002274,4863,13,60,4
0.09999999999999432,4863,14,60,7
0.09999999999999432,4863,15,60,24
0.09999999999999432,4864,0,60,16
0.09999999999999432,4864,1,60,19
0.09999999999999432,4864,2,60,7
0.09999999999999432,4864,3,60,5
0.09999999999999432,4864,4,60,6
0.09999999999999432,4864,5,60,4
0.09999999999999432,4864,6,60,12
0.09999999999999432,4864,7,60,46
0.09999999999999432,4864,8,60,31
0.10000000000002274,4864,9,60,27
0.10000000000002274,4864,10,60,20
0.09999999999999432,4864,11,60,16
0.09999999999999432,4864,12,60,16
0.09999999999999432,4864,13,60,15
0.09999999999999432,4864,14,60,10
0.09999999999999432,4864,15,60,23
0.09999999999999432,4865,0,60,44
0.09999999999999432,4865,1,60,23
0.10000000000002274,4865,2,60,23
0.09999999999999432,4865,3,60,16
0.09999999999999432,4865,4,60,11
0.09999999999999432,4865,5,60,12
0.10000000000002274,4865,6,60,7
0.09999999999999432,4865,7,60,16
0.09999999999999432,4865,8,60,38
0.09999999999999432,4865,9,60,16
0.10000000000002274,4865,10,60,21
0.09999999999999432,4865,11,60,10
0.09999999999999432,4865,12,60,10
0.09999999999999432,4865,13,60,19
0.10000000000002274,4865,14,60,17
0.09999999999999432,4865,15,60,21
0.09999999999999432,4866,0,60,5
0.10000000000002274,4866,1,60,25
0.10000000000002274,4866,2,60,24
0.09999999999999432,4866,3,60,41
0.10000000000002274,4866,4,60,28
0.09999999999999432,4866,5,60,39
0.09999999999999432,4866,6,60,30
0.09999999999999432,4866,7,60,35
0.10000000000002274,4866,8,60,38
0.09999999999999432,4866,9,60,34
0.004545454545450411,4866,10,60,22
0.10000000000002274,4866,11,60,33
0.10000000000002274,4866,12,60,50
0.09999999999999432,4866,13,60,40
0.09999999999999432,4866,14,60,60
0.09999999999999432,4866,15,60,48
0.10000000000002274,4867,0,60,41
0.09999999999999432,4867,1,60,21
0.09999999999999432,4867,2,60,45
0.09999999999999432,4867,3,60,41
0.09999999999999432,4867,4,60,41
0.09999999999999432,4867,5,60,59
0.09999999999999432,4867,6,60,48
0.09999999999999432,4867,7,60,39
0.10000000000002274,4867,8,60,29
0.09999999999999432,4867,9,60,24
0.09999999999999432,4867,10,60,83
0.10000000000002274,4867,11,60,43
0.09999999999999432,4867,12,60,19
0.09999999999999432,4867,13,60,61
0.09999999999999432,4867,14,60,35
0.09999999999999432,4867,15,60,48
0.10000000000002274,4868,0,60,50
0.10000000000002274,4868,1,60,42
0.09999999999999432,4868,2,60,38
0.10000000000002274,4868,3,60,51
0.09999999999999432,4868,4,60,30
0.09999999999999432,4868,5,60,22
0.056818181818186986,4868,6,60,29
0.09999999999999432,4868,7,60,70
0.09999999999999432,4868,8,60,28
0.09999999999999432,4868,9,60,70
0.10000000000002274,4868,10,60,46
0.09999999999999432,4868,11,60,37
0.09999999999999787,4868,12,62,23
0.10000000000000142,4868,13,62,19
0.10000000000000142,4868,14,62,21
0.10000000000000142,4868,15,62,25
0.10000000000000142,4869,0,62,19
0.09999999999999787,4869,1,62,2
0.10000000000000142,4869,2,62,2
0.10000000000000142,4869,3,62,2
0.09999999999999432,4869,4,62,3
0.10000000000000142,4869,5,62,4
0.10000000000000142,4869,6,62,1
0.09999999999999432,4869,7,62,3
0.10000000000000142,4869,8,62,4
0.10000000000000142,4869,9,62,6
0.10000000000000142,4869,10,62,3
0.10000000000000142,4869,11,62,4
0.10000000000000142,4869,12,62,7
0.10000000000000142,4869,13,62,2
0.10000000000000142,4869,14,62,8
0.10000000000000142,4869,15,62,9
0.10000000000000142,4870,0,62,15
0.10000000000000142,4870,1,62,3
0.09999999999999432,4870,2,62,4
0.10000000000000142,4870,3,62,5
0.10000000000000142,4870,4,62,6
0.10000000000000142,4870,5,62,5
0.10000000000000142,4870,6,62,10
0.10000000000000142,4870,7,62,8
0.10000000000000142,4870,8,62,7
0.10000000000000142,4870,9,62,8
0.09999999999999432,4870,10,62,5
0.09999999999999432,4870,11,62,8
0.09999999999999432,4870,12,62,9
0.10000000000000142,4870,13,62,2
0.10000000000000142,4870,14,62,14
0.10000000000000142,4870,15,62,3
0.10000000000000142,4871,0,62,4
0.10000000000000142,4871,1,62,7
0.10000000000000142,4871,2,62,4
0.09999999999999432,4871,3,62,16
0.10000000000000142,4871,4,62,13
0.09999999999999432,4871,5,62,4
0.10000000000000142,4871,6,62,4
0.10000000000000142,4871,7,62,5
0.10000000000000142,4871,8,62,12
0.10000000000000142,4871,9,62,14
0.10000000000000142,4871,10,62,3
0.10000000000000142,4871,11,62,4
0.09999999999999432,4871,12,62,6
0.10000000000000142,4871,13,62,5
0.10000000000000142,4871,14,62,21
0.10000000000000853,4871,15,62,1
0.10000000000000853,4872,0,62,1
0.09999999999999432,4872,1,62,1
0.09999999999999432,4872,2,62,12
0.09999999999999432,4872,3,62,1
0.09999999999999432,4872,4,62,1
0.09999999999999432,4872,5,62,1
0.10000000000000009,4872,6,89,23
0.09999999999999964,4872,7,89,50
0.09999999999999964,4872,8,89,51
0.09999999999999964,4872,9,89,49
0.10000000000000053,4872,10,89,49
0.10000000000000053,4872,11,89,48
0.09999999999999964,4872,12,89,49
0.09999999999999964,4872,13,89,43
0.09999999999999964,4872,14,89,45
0.09999999999999964,4872,15,89,44
0.09999999999999964,4873,0,89,44
0.09999999999999964,4873,1,89,46
0.10000000000000142,4873,2,89,44
0.10000000000000142,4873,3,89,45
0.10000000000000142,4873,4,89,44
0.09999999999999787,4873,5,89,45
0.09999999999999787,4873,6,89,43
0.10000000000000142,4873,7,89,20
0.09999999999999787,4873,8,89,39
0.10000000000000142,4873,9,89,42
0.10000000000000142,4873,10,89,47
0.10000000000000142,4873,11,89,44
0.10000000000000142,4873,12,89,1
0.10000000000000142,4873,13,89,2
0.10000000000000142,4873,14,89,2
0.10000000000000142,4873,15,89,41
0.10000000000000142,4874,0,89,1
0.09999999999999787,4874,1,89,3
0.10000000000000142,4874,2,89,2
0.09999999999999787,4874,3,89,2
0.10000000000000142,4874,4,89,2
0.09999999999999787,4874,5,89,44
0.10000000000000142,4874,6,89,1
0.10000000000000142,4874,7,89,2
0.10000000000000142,4874,8,89,2
0.10000000000000142,4874,9,89,2
0.10000000000000142,4874,10,89,2
0.10000000000000142,4874,11,89,44
0.10000000000000142,4874,12,89,1
0.10000000000000142,4874,13,89,2
0.10000000000000142,4874,14,89,2
0.10000000000000142,4874,15,89,2
0.10000000000000142,4875,0,89,2
0.10000000000000142,4875,1,89,42
0.10000000000000142,4875,2,89,1
0.09999999999999432,4875,3,89,1
0.10000000000000142,4875,4,89,2
0.10000000000000142,4875,5,89,2
0.10000000000000142,4875,6,89,2
0.10000000000000142,4875,7,89,2
0.09999999999999432,4875,8,89,44
0.10000000000000142,4875,9,89,2
0.09999999999999432,4875,10,89,2
0.10000000000000142,4875,11,89,1
0.10000000000000142,4875,12,89,2
0.10000000000000142,4875,13,89,46
0.10000000000000142,4875,14,89,2
0.09999999999999432,4875,15,89,2
0.10000000000000142,4876,0,89,2
0.10000000000000142,4876,1,89,2
0.10000000000000142,4876,2,89,2
0.004545454545457517,4876,3,89,42
0.10000000000000142,4876,4,89,2
0.10000000000000142,4876,5,89,3
0.10000000000000142,4876,6,89,2
0.10000000000000142,4876,7,89,2
0.10000000000000142,4876,8,89,2
0.09999999999999432,4876,9,89,42
0.09999999999999432,4876,10,89,1
0.10000000000000142,4876,11,89,2
0.10000000000000142,4876,12,89,2
0.10000000000000142,4876,13,89,2
0.10000000000000142,4876,14,89,2
0.10000000000000142,4876,15,89,40
0.10000000000000142,4877,0,89,2
0.09999999999999432,4877,1,89,3
0.09999999999999432,4877,2,89,2
0.10000000000000142,4877,3,89,2
0.10000000000000142,4877,4,89,3
0.10000000000000142,4877,5,89,43
0.10000000000000142,4877,6,89,2
0.10000000000000142,4877,7,89,2
0.10000000000000142,4877,8,89,2
0.10000000000000142,4877,9,89,2
0.10000000000000142,4877,10,89,2
0.10000000000000142,4877,11,89,3
0.10000000000000142,4877,12,89,45
0.09999999999999432,4877,13,89,1
0.10000000000000142,4877,14,89,3
0.09999999999999432,4877,15,89,2
0.10000000000000142,4878,0,89,2
0.10000000000000142,4878,1,89,2
0.10000000000000142,4878,2,89,43
0.10000000000000142,4878,3,89,1
0.09999999999999432,4878,4,89,2
0.10000000000000142,4878,5,89,2
0.10000000000000142,4878,6,89,2
0.10000000000000142,4878,7,89,43
0.10000000000000142,4878,8,89,2
0.09999999999999432,4878,9,89,3
0.10000000000000142,4878,10,89,2
0.10000000000000142,4878,11,89,2
0.10000000000000142,4878,12,89,2
0.10000000000000142,4878,13,89,45
0.10000000000000142,4878,14,89,1
0.10000000000000142,4878,15,89,3
0.10000000000000142,4879,0,89,2
0.10000000000000142,4879,1,89,2
0.09999999999999432,4879,2,89,2
0.09999999999999432,4879,3,89,41
0.10000000000000142,4879,4,89,1
0.10000000000000142,4879,5,89,3
0.10000000000000142,4879,6,89,2
0.10000000000000142,4879,7,89,1
0.09999999999999432,4879,8,89,40
0.10000000000000142,4879,9,89,2
0.09999999999999432,4879,10,89,3
0.10000000000000142,4879,11,89,2
0.09999999999999432,4879,12,89,2
0.10000000000000142,4879,13,89,2
0.10000000000000142,4879,14,89,43
0.10000000000000142,4879,15,89,2
0.09999999999999432,4880,0,89,3
0.10000000000000142,4880,1,89,2
0.10000000000000142,4880,2,89,2
0.09999999999999432,4880,3,89,45
0.10000000000000142,4880,4,89,1
0.10000000000000142,4880,5,89,2
0.10000000000000142,4880,6,89,2
0.10000000000000142,4880,7,89,2
0.10000000000000142,4880,8,89,2
0.09999999999999432,4880,9,89,43
0.09999999999999432,4880,10,89,1
0.10000000000000142,4880,11,89,3
0.10000000000000142,4880,12,89,2
0.10000000000000142,4880,13,89,3
0.10000000000000142,4880,14,89,45
0.09999999999999432,4880,15,89,1
0.10000000000000142,4881,0,89,3
0.10000000000000142,4881,1,89,2
0.10000000000000142,4881,2,89,2
0.10000000000000142,4881,3,89,2
0.10000000000000142,4881,4,89,44
0.09999999999999432,4881,5,89,2
0.10000000000000142,4881,6,89,3
0.10000000000000142,4881,7,89,2
0.10000000000000142,4881,8,89,2
0.10000000000000142,4881,9,89,43
0.09999999999999432,4881,10,89,2
0.10000000000000142,4881,11,89,2
0.09999999999999432,4881,12,89,1
0.10000000000000142,4881,13,89,2
0.10000000000000142,4881,14,89,2
0.10000000000000142,4881,15,89,46
0.10000000000000142,4882,0,89,1
0.10000000000000142,4882,1,89,3
0.10000000000000142,4882,2,89,2
0.10000000000000142,4882,3,89,2
0.10000000000000142,4882,4,89,2
0.10000000000000142,4882,5,89,45
0.10000000000000142,4882,6,89,1
0.09999999999999432,4882,7,89,2
0.10000000000000142,4882,8,89,2
0.10000000000000142,4882,9,89,2
0.10000000000000142,4882,10,89,2
0.10000000000000142,4882,11,89,43
0.10000000000000142,4882,12,89,2
0.10000000000000142,4882,13,89,3
0.10000000000000142,4882,14,89,2
0.10000000000000142,4882,15,89,2
0.10000000000000142,4883,0,89,2
0.09999999999999432,4883,1,89,37
0.10000000000000142,4883,2,89,3
0.10000000000000142,4883,3,89,2
0.10000000000000142,4883,4,89,3
0.10000000000000142,4883,5,89,2
0.10000000000000142,4883,6,89,3
0.10000000000000142,4883,7,89,2
0.09999999999999432,4883,8,89,36
0.09999999999999432,4883,9,89,3
0.10000000000000142,4883,10,89,2
0.09999999999999432,4883,11,89,3
0.09999999999999432,4883,12,89,3
0.10000000000000142,4883,13,89,3
0.10000000000000142,4883,14,89,37
0.10000000000000142,4883,15,89,3
0.10000000000000142,4884,0,89,2
0.10000000000000142,4884,1,89,3
0.10000000000000142,4884,2,89,2
0.09999999999999432,4884,3,89,3
0.10000000000000142,4884,4,89,2
0.09999999999999432,4884,5,89,38
0.10000000000000142,4884,6,89,3
0.10000000000000142,4884,7,89,2
0.10000000000000142,4884,8,89,3
0.10000000000000142,4884,9,89,3
0.09999999999999432,4884,10,89,3
0.09999999999999432,4884,11,89,2
0.10000000000000853,4884,12,89,39
0.10000000000000853,4884,13,89,3
0.09999999999999432,4884,14,89,2
0.10000000000000853,4884,15,89,3
0.09999999999999432,4885,0,89,3
0.09999999999999432,4885,1,89,4
0.09999999999999432,4885,2,89,2
0.10000000000000853,4885,3,89,32
0.10000000000000853,4885,4,89,3
0.10000000000000853,4885,5,89,2
0.10000000000000853,4885,6,89,3
0.10000000000000853,4885,7,89,2
0.10000000000000853,4885,8,89,3
0.09999999999999432,4885,9,89,3
0.10000000000000853,4885,10,89,37
0.09999999999999432,4885,11,89,3
0.10000000000000853,4885,12,89,2
0.10000000000000853,4885,13,89,3
0.09999999999999432,4885,14,89,2
0.10000000000000853,4885,15,89,3
0.09999999999999432,4886,0,89,3
0.10000000000000853,4886,1,89,36
0.10000000000000853,4886,2,89,3
0.09999999999999432,4886,3,89,2
0.10000000000000853,4886,4,89,3
0.10000000000000853,4886,5,89,3
0.09999999999999432,4886,6,89,3
0.10000000000000853,4886,7,89,37
0.10000000000000853,4886,8,89,3
0.10000000000000853,4886,9,89,1
0.10000000000000853,4886,10,89,3
0.10000000000000853,4886,11,89,2
0.09999999999999432,4886,12,89,3
0.09999999999999432,4886,13,89,3
0.10000000000000853,4886,14,89,40
0.09999999999999432,4886,15,89,3
0.10000000000000853,4887,0,89,2
0.10000000000000853,4887,1,89,3
0.10000000000000853,4887,2,89,3
0.09999999999999432,4887,3,89,3
0.10000000000000853,4887,4,89,2
0.10000000000000853,4887,5,89,37
0.09999999999999432,4887,6,89,3
0.09999999999999432,4887,7,89,2
0.09999999999999432,4887,8,89,3
0.10000000000000853,4887,9,89,2
0.09999999999999432,4887,10,89,4
0.09999999999999432,4887,11,89,3
0.10000000000000853,4887,12,89,37
0.09999999999999432,4887,13,89,3
0.10000000000000853,4887,14,89,2
0.10000000000000853,4887,15,89,3
0.10000000000000853,4888,0,89,2
0.09999999999999432,4888,1,89,3
0.10000000000000853,4888,2,89,2
0.004545454545464622,4888,3,89,36
0.10000000000000853,4888,4,89,3
0.10000000000000853,4888,5,89,2
0.10000000000000853,4888,6,89,3
0.10000000000000853,4888,7,89,2
0.09999999999999432,4888,8,89,3
0.09999999999999432,4888,9,89,2
0.10000000000000853,4888,10,89,36
0.09999999999999432,4888,11,89,3
0.10000000000000853,4888,12,89,2
0.10000000000000853,4888,13,89,3
0.09999999999999432,4888,14,89,2
0.09999999999999432,4888,15,89,3
0.09999999999999432,4889,0,89,2
0.10000000000000853,4889,1,89,35
0.10000000000000853,4889,2,89,3
0.09999999999999432,4889,3,89,2
0.10000000000000853,4889,4,89,3
0.09999999999999432,4889,5,89,2
0.09999999999999432,4889,6,89,3
0.09999999999999432,4889,7,89,2
0.10000000000000853,4889,8,89,37
0.09999999999999432,4889,9,89,1
0.09999999999999432,4889,10,89,2
0.10000000000000853,4889,11,89,3
0.09999999999999432,4889,12,89,3
0.09999999999999432,4889,13,89,3
0.09999999999999432,4889,14,89,2
0.10000000000000853,4889,15,89,36
0.09999999999999432,4890,0,89,3
0.10000000000000853,4890,1,89,2
0.10000000000000853,4890,2,89,3
0.10000000000000853,4890,3,89,3
0.09999999999999432,4890,4,89,3
0.09999999999999432,4890,5,89,3
0.10000000000000853,4890,6,89,37
0.09999999999999432,4890,7,89,3
0.09999999999999432,4890,8,89,2
0.10000000000000853,4890,9,89,3
0.09999999999999432,4890,10,89,2
0.09999999999999432,4890,11,89,3
0.09999999999999432,4890,12,89,2
0.10000000000000853,4890,13,89,37
0.10000000000000853,4890,14,89,3
0.10000000000000853,4890,15,89,2
0.10000000000000853,4891,0,89,3
0.09999999999999432,4891,1,89,3
0.09999999999999432,4891,2,89,2
0.09999999999999432,4891,3,89,37
0.10000000000000853,4891,4,89,3
0.09999999999999432,4891,5,89,2
0.10000000000000853,4891,6,89,3
0.09999999999999432,4891,7,89,3
0.09999999999999432,4891,8,89,3
0.09999999999999432,4891,9,89,3
0.10000000000000853,4891,10,89,35
0.09999999999999432,4891,11,89,3
0.09999999999999432,4891,12,89,2
0.10000000000000853,4891,13,89,29
0.10000000000000853,4891,14,89,46
0.10000000000000853,4891,15,89,40
0.10000000000000853,4892,0,89,43
0.10000000000000853,4892,1,89,53
0.10000000000000853,4892,2,89,23
0.10000000000000853,4892,3,89,31
0.09999999999999432,4892,4,89,40
0.09999999999999432,4892,5,89,44
0.10000000000000853,4892,6,89,41
0.09999999999999432,4892,7,89,33
0.09999999999999432,4892,8,89,37
0.10000000000000853,4892,9,89,48
0.10000000000000853,4892,10,89,41
0.09999999999999432,4892,11,89,31
0.10000000000000853,4892,12,89,37
0.10000000000000853,4892,13,89,44
0.10000000000000853,4892,14,89,41
0.09999999999999432,4892,15,89,34
0.10000000000000853,4893,0,89,32
0.10000000000000853,4893,1,89,41
0.09999999999999432,4893,2,89,38
0.10000000000000853,4893,3,89,15
0.10000000000000853,4893,4,89,1
0.10000000000000853,4893,5,89,1
0.10000000000000853,4893,6,89,1
0.09999999999999432,4893,7,89,17
0.09999999999999432,4893,8,89,1
0.09999999999999432,4893,9,89,1
0.10000000000000853,4893,10,89,3
0.09999999999999432,4893,11,89,1
0.10000000000000853,4893,12,89,1
0.10000000000000853,4893,13,89,1
0.09999999999999432,4893,14,89,19
0.09999999999999432,4893,15,89,1
0.10000000000000853,4894,0,89,3
0.10000000000000853,4894,1,89,1
0.10000000000000853,4894,2,89,1
0.09999999999999432,4894,3,89,1
0.09999999999999432,4894,4,89,20
0.09999999999999432,4894,5,89,1
0.09999999999999432,4894,6,89,1
0.10000000000000853,4894,7,89,3
0.09999999999999432,4894,8,89,1
0.10000000000000853,4894,9,89,1
0.09999999999999432,4894,10,89,1
0.0022727272727252057,4894,11,89,18
0.09999999999999432,4894,12,89,2
0.09999999999999432,4894,13,89,1
0.10000000000000853,4894,14,89,3
0.10000000000000853,4894,15,89,1
0.10000000000000853,4895,0,89,1
0.10000000000000853,4895,1,89,1
0.09999999999999432,4895,2,89,20
0.09999999999999432,4895,3,89,1
0.09999999999999432,4895,4,89,1
0.09999999999999432,4895,5,89,3
0.09999999999999432,4895,6,89,1
0.10000000000000853,4895,7,89,1
0.09999999999999432,4895,8,89,1
0.09999999999999432,4895,9,89,18
0.09999999999999432,4895,10,89,2
0.09999999999999432,4895,11,89,1
0.10000000000000853,4895,12,89,3
0.09999999999999432,4895,13,89,1
0.10000000000000853,4895,14,89,1
0.10000000000000853,4895,15,89,1
0.09999999999999432,4896,0,89,16
0.09999999999999432,4896,1,89,1
0.09999999999999432,4896,2,89,1
0.10000000000000853,4896,3,89,3
0.09999999999999432,4896,4,89,1
0.10000000000000853,4896,5,89,1
0.09999999999999432,4896,6,89,1
0.004545454545450411,4896,7,89,18
0.09999999999999432,4896,8,89,2
0.10000000000002274,4896,9,89,1
0.09999999999999432,4896,10,89,3
0.09999999999999432,4896,11,89,1
0.09999999999999432,4896,12,89,1
0.09999999999999432,4896,13,89,16
0.09999999999999432,4896,14,89,1
0.09999999999999432,4896,15,89,3
0.10000000000002274,4897,0,89,1
0.09999999999999432,4897,1,89,1
0.09999999999999432,4897,2,89,1
0.09999999999999432,4897,3,89,17
0.10000000000002274,4897,4,89,2
0.09999999999999432,4897,5,89,1
0.09999999999999432,4897,6,89,3
0.09999999999999432,4897,7,89,1
0.09999999999999432,4897,8,89,1
0.09999999999999432,4897,9,89,1
0.09999999999999432,4897,10,89,17
0.09999999999999432,4897,11,89,2
0.10000000000002274,4897,12,89,1
0.09999999999999432,4897,13,89,3
0.09999999999999432,4897,14,89,1
0.09999999999999432,4897,15,89,2
0.09999999999999432,4898,0,89,1
0.09999999999999432,4898,1,89,16
0.10000000000002274,4898,2,89,2
0.09999999999999432,4898,3,89,1
0.09999999999999432,4898,4,89,1
0.09999999999999432,4898,5,89,2
0.10000000000002274,4898,6,89,17
0.10000000000002274,4898,7,89,1
0.10000000000002274,4898,8,89,1
0.09999999999999432,4898,9,89,2
0.09999999999999432,4898,10,89,1
0.09999999999999432,4898,11,89,1
0.09999999999999432,4898,12,89,1
0.09999999999999432,4898,13,89,16
0.09999999999999432,4898,14,89,2
0.10000000000002274,4898,15,89,1
0.09999999999999432,4899,0,89,3
0.09999999999999432,4899,1,89,1
0.09999999999999432,4899,2,89,1
0.09999999999999432,4899,3,89,1
0.09999999999999432,4899,4,89,17
0.10000000000002274,4899,5,89,2
0.09999999999999432,4899,6,89,1
0.09999999999999432,4899,7,89,3
0.10000000000002274,4899,8,89,1
0.09999999999999432,4899,9,89,1
0.10000000000002274,4899,10,89,16
0.09999999999999432,4899,11,89,2
0.09999999999999432,4899,12,89,1
0.09999999999999432,4899,13,89,2
0.09999999999999432,4899,14,89,1
0.09999999999999432,4899,15,89,1
0.09999999999999432,4900,0,89,18
0.10000000000002274,4900,1,89,1
0.09999999999999432,4900,2,89,3
0.09999999999999432,4900,3,89,1
0.09999999999999432,4900,4,89,1
0.10000000000002274,4900,5,89,1
0.004545454545450411,4900,6,89,16
0.10000000000002274,4900,7,89,2
0.09999999999999432,4900,8,89,1
0.09999999999999432,4900,9,89,3
0.09999999999999432,4900,10,89,1
0.09999999999999432,4900,11,89,1
0.09999999999999432,4900,12,89,1
0.10000000000002274,4900,13,89,18
0.10000000000002274,4900,14,89,1
0.09999999999999432,4900,15,89,3
0.09999999999999432,4901,0,89,1
0.09999999999999432,4901,1,89,1
0.09999999999999432,4901,2,89,1
0.09999999999999432,4901,3,89,16
0.09999999999999432,4901,4,89,2
0.10000000000002274,4901,5,89,1
0.09999999999999432,4901,6,89,3
0.09999999999999432,4901,7,89,1
0.10000000000002274,4901,8,89,1
0.0022727272727252057,4901,9,89,15
0.10000000000002274,4901,10,89,1
0.09999999999999432,4901,11,89,1
0.09999999999999432,4901,12,89,3
0.10000000000002274,4901,13,89,1
0.09999999999999432,4901,14,89,1
0.09999999999999432,4901,15,89,1
0.10000000000002274,4902,0,89,18
0.09999999999999432,4902,1,89,2
0.10000000000002274,4902,2,89,1
0.09999999999999432,4902,3,89,3
0.09999999999999432,4902,4,89,1
0.09999999999999432,4902,5,89,1
0.09999999999999432,4902,6,89,19
0.10000000000002274,4902,7,89,2
0.09999999999999432,4902,8,89,1
0.09999999999999432,4902,9,89,3
0.09999999999999432,4902,10,89,1
0.09999999999999432,4902,11,89,2
0.09999999999999432,4902,12,89,1
0.10000000000002274,4902,13,89,18
0.10000000000002274,4902,14,89,2
0.09999999999999432,4902,15,89,1
0.09999999999999432,4903,0,89,3
0.09999999999999432,4903,1,89,1
0.09999999999999432,4903,2,89,1
0.09999999999999432,4903,3,89,2
0.09999999999999432,4903,4,89,16
0.09999999999999432,4903,5,89,1
0.10000000000002274,4903,6,89,1
0.09999999999999432,4903,7,89,3
0.09999999999999432,4903,8,89,1
0.09999999999999432,4903,9,89,1
0.10000000000002274,4903,10,89,1
0.09999999999999432,4903,11,89,9
0.10000000000002274,4903,12,89,2
0.09999999999999432,4903,13,89,3
0.09999999999999432,4903,14,89,2
0.09999999999999432,4903,15,89,2
0.10000000000002274,4904,0,89,9
0.09999999999999432,4904,1,89,2
0.09999999999999432,4904,2,89,1
0.09999999999999432,4904,3,89,2
0.09999999999999432,4904,4,89,9
0.09999999999999432,4904,5,89,2
0.09999999999999432,4904,6,89,3
0.09999999999999432,4904,7,89,2
0.09999999999999432,4904,8,89,10
0.09999999999999432,4904,9,89,3
0.10000000000002274,4904,10,89,9
0.09999999999999432,4904,11,89,2
0.09999999999999432,4904,12,89,2
0.09999999999999432,4904,13,89,2
0.09999999999999432,4904,14,89,8
0.09999999999999432,4904,15,89,3
0.09999999999999432,4905,0,89,2
0.09999999999999432,4905,1,89,3
0.09999999999999432,4905,2,89,11
0.09999999999999432,4905,3,89,2
0.10000000000002274,4905,4,89,33
0.09999999999999432,4905,5,89,27
0.10000000000002274,4905,6,89,35
0.10000000000002274,4905,7,89,31
0.09999999999999432,4905,8,89,37
0.10000000000002274,4905,9,89,29
0.10000000000002274,4905,10,89,34
0.09999999999999432,4905,11,89,32
0.10000000000002274,4905,12,89,30
0.10000000000002274,4905,13,89,33
0.09999999999999432,4905,14,89,34
0.10000000000002274,4905,15,89,34
0.10000000000002274,4906,0,89,29
0.09999999999999432,4906,1,89,30
0.09999999999999432,4906,2,89,3
0.09999999999999432,4906,3,89,2
0.09999999999999432,4906,4,89,10
0.09999999999999432,4906,5,89,3
0.09999999999999432,4906,6,89,2
0.10000000000002274,4906,7,89,10
0.10000000000002274,4906,8,89,3
0.09999999999999432,4906,9,89,2
0.09999999999999432,4906,10,89,11
0.09999999999999787,4906,11,63,2
0.10000000000000142,4906,12,63,9
0.09999999999999787,4906,13,63,4
0.09999999999999787,4906,14,63,27
0.10000000000000142,4906,15,63,22
0.10000000000000142,4907,0,63,6
0.09999999999999787,4907,1,63,11
0.10000000000000497,4907,2,63,12
0.10000000000000142,4907,3,63,10
0.10000000000000142,4907,4,63,4
0.10000000000000142,4907,5,63,20
0.10000000000000142,4907,6,63,10
0.09999999999999432,4907,7,63,22
0.10000000000000142,4907,8,63,22
0.10000000000000142,4907,9,63,15
0.09999999999999432,4907,10,63,3
0.10000000000000142,4907,11,63,17
0.10000000000000142,4907,12,63,9
0.10000000000000142,4907,13,63,16
0.10000000000000142,4907,14,63,6
0.10000000000000142,4907,15,63,8
0.10000000000000142,4908,0,63,4
0.03636363636363171,4908,1,63,5
0.10000000000000142,4908,2,63,13
0.10000000000000142,4908,3,63,5
0.09999999999999432,4908,4,63,13
0.10000000000000142,4908,5,63,11
0.10000000000000142,4908,6,63,9
0.09999999999999432,4908,7,63,24
0.10000000000000142,4908,8,63,5
0.056818181818186986,4908,9,63,8
0.10000000000000142,4908,10,63,27
0.10000000000000142,4908,11,63,11
0.10000000000000142,4908,12,63,9
0.10000000000000142,4908,13,63,2
0.10000000000000142,4908,14,63,14
0.09999999999999432,4908,15,63,7
0.10000000000000142,4909,0,63,19
0.10000000000000142,4909,1,63,5
0.10000000000000142,4909,2,63,7
0.10000000000000142,4909,3,63,4
0.10000000000000142,4909,4,63,11
0.10000000000000142,4909,5,63,6
0.02499999999999858,4909,6,63,7
0.10000000000000142,4909,7,63,4
0.09999999999999432,4909,8,63,9
0.09999999999999432,4909,9,63,3
0.10000000000000142,4909,10,63,5
0.09999999999999432,4909,11,63,6
0.09999999999999432,4909,12,63,5
0.10000000000000142,4909,13,63,8
0.09999999999999432,4909,14,63,3
0.004545454545450411,4909,15,63,5
0.10000000000000142,4910,0,63,3
0.10000000000000142,4910,1,63,7
0.10000000000000142,4910,2,63,3
0.09999999999999432,4910,3,63,5
0.10000000000000142,4910,4,63,4
0.09999999999999432,4910,5,63,3
0.10000000000000142,4910,6,63,4
0.10000000000000142,4910,7,63,5
0.10000000000000142,4910,8,63,5
0.09999999999999432,4910,9,63,19
0.10000000000000142,4910,10,63,5
0.10000000000000142,4910,11,63,10
0.09999999999999432,4910,12,63,16
0.10000000000000142,4910,13,63,5
0.10000000000000142,4910,14,63,10
0.09999999999999432,4910,15,63,18
0.09999999999999432,4911,0,63,19
0.10000000000000142,4911,1,63,24
0.10000000000000142,4911,2,63,4
0.09999999999999432,4911,3,63,19
0.10000000000000142,4911,4,63,15
0.10000000000000142,4911,5,63,18
0.10000000000000142,4911,6,63,4
0.10000000000000142,4911,7,63,16
0.09999999999999432,4911,8,63,14
0.10000000000000142,4911,9,63,14
0.10000000000000142,4911,10,63,7
0.10000000000000142,4911,11,63,16
0.09999999999999432,4911,12,63,19
0.10000000000000142,4911,13,63,5
0.10000000000000142,4911,14,63,13
0.10000000000000142,4911,15,63,17
0.10000000000000142,4912,0,63,13
0.10000000000000142,4912,1,63,22
0.10000000000000142,4912,2,63,37
0.10000000000000142,4912,3,63,22
0.10000000000000142,4912,4,63,6
0.09999999999999432,4912,5,63,34
0.10000000000000142,4912,6,63,21
0.10000000000000142,4912,7,63,9
0.10000000000000142,4912,8,63,23
0.10000000000000853,4912,9,63,20
0.10000000000000853,4912,10,63,29
0.09999999999999432,4912,11,63,57
0.10000000000000853,4912,12,63,25
0.09999999999999432,4912,13,63,18
0.10000000000000853,4912,14,63,43
0.09999999999999432,4912,15,63,17
0.09999999999999432,4913,0,63,59
0.10000000000000853,4913,1,63,51
0.09999999999999432,4913,2,63,61
0.10000000000000853,4913,3,63,17
0.09999999999999432,4913,4,63,28
0.10000000000000853,4913,5,63,30
0.09999999999999432,4913,6,63,15
0.10000000000000853,4913,7,63,19
0.09999999999999432,4913,8,63,55
0.09999999999999432,4913,9,63,40
0.10000000000000853,4913,10,63,24
0.09999999999999432,4913,11,63,17
0.10000000000000853,4913,12,63,41
0.09999999999999432,4913,13,63,28
0.09999999999999432,4913,14,63,16
0.09999999999999432,4913,15,63,29
0.10000000000000853,4914,0,63,24
0.09999999999999432,4914,1,63,33
0.10000000000000853,4914,2,63,35
0.09999999999999432,4914,3,63,44
0.10000000000002274,4914,4,63,17
0.06818181818184144,4914,5,63,17
0.09999999999999432,4914,6,63,7
0.09999999999999432,4914,7,63,28
0.09999999999999432,4914,8,63,21
0.004545454545450411,4914,9,63,46
0.09999999999999432,4914,10,63,27
0.09999999999999432,4914,11,63,28
0.09999999999999432,4914,12,63,25
0.09999999999999432,4914,13,63,40
0.09999999999999432,4914,14,63,16
0.09999999999999432,4914,15,63,33
0.09999999999999432,4915,0,63,25
0.09999999999999432,4915,1,63,31
0.10000000000002274,4915,2,63,21
0.09999999999999432,4915,3,63,31
0.09999999999999432,4915,4,63,22
0.09999999999999432,4915,5,63,26
0.09999999999999432,4915,6,63,26
0.09999999999999432,4915,7,63,37
0.10000000000002274,4915,8,63,27
0.10000000000002274,4915,9,63,40
0.09999999999999432,4915,10,63,34
0.09999999999999432,4915,11,63,44
0.09999999999999432,4915,12,63,36
0.09999999999999432,4915,13,63,47
0.09999999999999432,4915,14,63,30
0.09999999999999432,4915,15,63,22
0.09999999999999432,4916,0,63,53
0.09999999999999432,4916,1,63,57
0.09999999999999432,4916,2,63,40
0.09999999999999432,4916,3,63,23
0.10000000000002274,4916,4,63,22
0.09999999999999432,4916,5,63,51
0.10000000000002274,4916,6,63,25
0.09999999999999432,4916,7,63,24
0.09999999999999432,4916,8,63,80
0.09999999999999432,4916,9,63,33
0.09999999999999432,4916,10,63,24
0.09999999999999432,4916,11,63,39
0.09999999999999432,4916,12,63,53
0.10000000000002274,4916,13,63,26
0.09999999999999432,4916,14,63,27
0.10000000000002274,4916,15,63,36
0.09999999999999432,4917,0,63,24
0.09999999999999432,4917,1,63,15
0.09999999999999432,4917,2,63,27
0.09999999999999432,4917,3,63,20
0.09999999999999432,4917,4,63,40
0.09999999999999432,4917,5,63,30
0.09999999999999432,4917,6,63,24
0.09999999999999432,4917,7,63,41
0.09999999999999432,4917,8,63,47
0.09999999999999432,4917,9,63,53
0.10000000000002274,4917,10,63,20
0.09999999999999432,4917,11,63,28
0.09999999999999432,4917,12,63,66
0.09999999999999432,4917,13,63,35
0.10000000000002274,4917,14,63,4
0.09999999999999432,4917,15,63,1
0.09999999999999432,4918,0,63,1
0.09999999999999432,4918,1,63,4
0.09999999999999432,4918,2,63,2
0.09999999999999432,4918,3,63,1
0.10000000000002274,4918,4,63,8
0.09999999999999432,4918,5,63,10
0.09999999999999999,4918,6,77,3
0.1,4918,7,77,21
0.09999999999999998,4918,8,77,66
0.09999999999999998,4918,9,77,61
0.09999999999999987,4918,10,77,23
0.10000000000000009,4918,11,77,20
0.09999999999999987,4918,12,77,2
0.10000000000000009,4918,13,77,31
0.10000000000000009,4918,14,77,32
0.10000000000000009,4918,15,77,51
0.10000000000000009,4919,0,77,9
0.09999999999999964,4919,1,77,42
0.09999999999999964,4919,2,77,45
0.10000000000000053,4919,3,77,16
0.10000000000000053,4919,4,77,46
0.10000000000000053,4919,5,77,13
0.025000000000000355,4919,6,77,52
0.10000000000000053,4919,7,77,49
0.10000000000000053,4919,8,77,61
0.06818181818181834,4919,9,77,60
0.09999999999999964,4919,10,77,62
0.09999999999999964,4919,11,77,46
0.10000000000000053,4919,12,77,45
0.09999999999999964,4919,13,77,11
0.04772727272727195,4919,14,77,33
0.10000000000000142,4919,15,77,17
0.09999999999999964,4920,0,77,40
0.09999999999999964,4920,1,77,50
0.09999999999999964,4920,2,77,24
0.09999999999999964,4920,3,77,9
0.013636363636363669,4920,4,77,60
0.09999999999999964,4920,5,77,67
0.09999999999999964,4920,6,77,71
0.09999999999999964,4920,7,77,7
0.09999999999999964,4920,8,77,24
0.06818181818181834,4920,9,77,31
0.09999999999999964,4920,10,77,59
0.10000000000000142,4920,11,77,42
0.10000000000000142,4920,12,77,5
0.09999999999999964,4920,13,77,37
0.10000000000000142,4920,14,77,33
0.09999999999999964,4920,15,77,68
0.09999999999999964,4921,0,77,7
0.09999999999999964,4921,1,77,64
0.09999999999999964,4921,2,77,57
0.09999999999999964,4921,3,77,11
0.06818181818181834,4921,4,77,11
0.09999999999999964,4921,5,77,63
0.09999999999999964,4921,6,77,38
0.09999999999999964,4921,7,77,38
0.10000000000000142,4921,8,77,50
0.10000000000000142,4921,9,77,57
0.10000000000000142,4921,10,77,7
0.10000000000000142,4921,11,77,18
0.10000000000000142,4921,12,77,66
0.09999999999999787,4921,13,77,62
0.10000000000000142,4921,14,77,21
0.09999999999999787,4921,15,77,28
0.06818181818181657,4922,0,77,37
0.10000000000000142,4922,1,77,8
0.10000000000000142,4922,2,77,33
0.09999999999999787,4922,3,77,43
0.09999999999999787,4922,4,77,9
0.09999999999999787,4922,5,77,26
0.09999999999999787,4922,6,77,47
0.06818181818181657,4922,7,77,41
0.10000000000000142,4922,8,77,47
0.09999999999999787,4922,9,77,52
0.05681818181817988,4922,10,77,70
0.10000000000000142,4922,11,77,65
0.10000000000000142,4922,12,77,27
0.05681818181818343,4922,13,77,39
0.09999999999999787,4922,14,77,8
0.09999999999999787,4922,15,77,31
0.0022727272727252057,4923,0,77,68
0.10000000000000142,4923,1,77,43
0.09999999999999787,4923,2,77,63
0.10000000000000142,4923,3,77,57
0.09999999999999787,4923,4,77,29
0.09999999999999787,4923,5,77,27
0.10000000000000142,4923,6,77,51
0.10000000000000142,4923,7,77,56
0.10000000000000142,4923,8,77,9
0.10000000000000142,4923,9,77,41
0.09999999999999787,4923,10,77,21
0.09999999999999787,4923,11,77,67
0.09999999999999787,4923,12,77,16
0.09999999999999787,4923,13,77,33
0.036363636363635266,4923,14,77,47
0.09999999999999787,4923,15,77,37
0.10000000000000142,4924,0,77,27
0.10000000000000142,4924,1,77,53
0.10000000000000142,4924,2,77,31
0.045454545454546746,4924,3,77,61
0.09999999999999787,4924,4,77,54
0.09999999999999787,4924,5,77,53
0.10000000000000142,4924,6,77,24
0.09999999999999787,4924,7,77,73
0.10000000000000142,4924,8,77,55
0.09999999999999787,4924,9,77,80
0.10000000000000142,4924,10,77,10
0.015909090909094203,4924,11,77,41
0.09999999999999787,4924,12,77,69
0.10000000000000142,4924,13,77,64
0.09999999999999787,4924,14,77,72
0.10000000000000142,4924,15,77,67
0.09999999999999787,4925,0,77,72
0.10000000000000142,4925,1,77,75
0.10000000000000142,4925,2,77,49
0.10000000000000142,4925,3,77,72
0.10000000000000142,4925,4,77,58
0.10000000000000142,4925,5,77,80
0.10000000000000142,4925,6,77,92
0.10000000000000142,4925,7,77,64
0.09999999999999432,4925,8,77,90
0.09999999999999432,4925,9,77,48
0.10000000000000142,4925,10,77,89
0.10000000000000142,4925,11,77,64
0.10000000000000142,4925,12,77,58
0.10000000000000142,4925,13,77,70
0.10000000000000142,4925,14,77,75
0.10000000000000142,4925,15,77,100
0.10000000000000142,4926,0,77,13
0.10000000000000142,4926,1,77,90
0.10000000000000142,4926,2,77,52
0.10000000000000142,4926,3,77,66
0.10000000000000142,4926,4,77,93
0.10000000000000142,4926,5,77,11
0.10000000000000142,4926,6,77,37
0.10000000000000142,4926,7,77,84
0.10000000000000142,4926,8,77,59
0.10000000000000142,4926,9,77,61
0.10000000000000142,4926,10,77,62
0.10000000000000142,4926,11,77,62
0.10000000000000142,4926,12,77,103
0.10000000000000142,4926,13,77,65
0.09999999999999432,4926,14,77,89
0.10000000000000142,4926,15,77,68
0.10000000000000142,4927,0,77,78
0.10000000000000142,4927,1,77,42
0.06818181818181301,4927,2,77,87
0.10000000000000142,4927,3,77,46
0.10000000000000142,4927,4,77,93
0.09999999999999432,4927,5,77,101
0.10000000000000142,4927,6,77,86
0.10000000000000142,4927,7,77,87
0.09999999999999432,4927,8,77,120
0.09999999999999432,4927,9,77,51
0.10000000000000142,4927,10,77,75
0.10000000000000142,4927,11,77,84
0.09999999999999432,4927,12,77,44
0.10000000000000142,4927,13,77,85
0.09999999999999432,4927,14,77,57
0.10000000000000142,4927,15,77,75
0.10000000000000142,4928,0,77,80
0.09999999999999432,4928,1,77,99
0.09999999999999432,4928,2,77,82
0.10000000000000142,4928,3,77,91
0.10000000000000142,4928,4,77,59
0.10000000000000142,4928,5,77,67
0.10000000000000142,4928,6,77,65
0.09999999999999432,4928,7,77,89
0.10000000000000142,4928,8,77,15
0.10000000000000142,4928,9,77,69
0.10000000000000142,4928,10,77,82
0.10000000000000142,4928,11,77,19
0.09999999999999432,4928,12,77,29
0.09999999999999432,4928,13,77,102
0.10000000000000142,4928,14,77,100
0.10000000000000142,4928,15,77,37
0.10000000000000142,4929,0,77,90
0.09999999999999432,4929,1,77,65
0.10000000000000142,4929,2,77,48
0.10000000000000142,4929,3,77,52
0.10000000000000853,4929,4,77,88
0.09999999999999432,4929,5,77,61
0.09999999999999432,4929,6,77,59
0.09999999999999432,4929,7,77,60
0.09999999999999432,4929,8,77,79
0.09999999999999432,4929,9,77,52
0.10000000000000853,4929,10,77,47
0.09999999999999432,4929,11,77,91
0.09999999999999432,4929,12,77,24
0.09999999999999432,4929,13,77,76
0.09999999999999432,4929,14,77,83
0.10000000000000853,4929,15,77,6
0.10000000000000853,4930,0,77,62
0.10000000000000853,4930,1,77,101
0.10000000000000853,4930,2,77,51
0.10000000000000853,4930,3,77,74
0.10000000000000853,4930,4,77,98
0.09999999999999432,4930,5,77,93
0.09999999999999432,4930,6,77,15
0.09999999999999432,4930,7,77,112
0.03409090909090651,4930,8,77,106
0.10000000000000853,4930,9,77,91
0.09999999999999432,4930,10,77,50
0.09999999999999432,4930,11,77,87
0.10000000000000853,4930,12,77,98
0.09999999999999432,4930,13,77,57
0.09999999999999432,4930,14,77,73
0.09999999999999432,4930,15,77,62
0.09999999999999432,4931,0,77,83
0.09999999999999432,4931,1,77,45
0.10000000000000853,4931,2,77,77
0.10000000000000853,4931,3,77,102
0.09999999999999432,4931,4,77,82
0.09999999999999432,4931,5,77,100
0.09999999999999432,4931,6,77,31
0.09999999999999432,4931,7,77,77
0.09999999999999432,4931,8,77,108
0.09999999999999432,4931,9,77,40
0.10000000000000853,4931,10,77,78
0.09999999999999432,4931,11,77,103
0.09999999999999432,4931,12,77,80
0.09999999999999432,4931,13,77,91
0.10000000000000853,4931,14,77,83
0.09999999999999432,4931,15,77,77
0.09999999999999432,4932,0,77,70
0.09999999999999432,4932,1,77,63
0.09999999999999432,4932,2,77,34
0.09999999999999432,4932,3,77,94
0.10000000000000853,4932,4,77,92
0.10000000000000853,4932,5,77,74
0.09999999999999432,4932,6,77,64
0.06818181818181301,4932,7,77,85
0.09999999999999432,4932,8,77,82
0.09999999999999432,4932,9,77,65
0.09999999999999432,4932,10,77,83
0.10000000000000853,4932,11,77,112
0.09999999999999432,4932,12,77,29
0.09999999999999432,4932,13,77,64
0.10000000000000853,4932,14,77,33
0.10000000000000853,4932,15,77,73
0.10000000000000853,4933,0,77,68
0.10000000000000853,4933,1,77,76
0.10000000000000853,4933,2,77,38
0.0022727272727252057,4933,3,77,75
0.09999999999999432,4933,4,77,89
0.09999999999999432,4933,5,77,85
0.09999999999999432,4933,6,77,10
0.09999999999999432,4933,7,77,52
0.10000000000000853,4933,8,77,72
0.10000000000000853,4933,9,77,80
0.09999999999999432,4933,10,77,98
0.09999999999999432,4933,11,77,71
0.10000000000000853,4933,12,77,19
0.10000000000000853,4933,13,77,75
0.004545454545464622,4933,14,77,73
0.09999999999999432,4933,15,77,90
0.10000000000000853,4934,0,77,51
0.10000000000000853,4934,1,77,55
0.06818181818182723,4934,2,77,76
0.09999999999999432,4934,3,77,68
0.09999999999999432,4934,4,77,58
0.10000000000000853,4934,5,77,61
0.10000000000000853,4934,6,77,59
0.10000000000000853,4934,7,77,51
0.10000000000000853,4934,8,77,85
0.09999999999999432,4934,9,77,103
0.09999999999999432,4934,10,77,58
0.09999999999999432,4934,11,77,82
0.09999999999999432,4934,12,77,72
0.09999999999999432,4934,13,77,97
0.10000000000000853,4934,14,77,21
0.10000000000000853,4934,15,77,56
0.05909090909091219,4935,0,77,84
0.10000000000000853,4935,1,77,89
0.10000000000000853,4935,2,77,14
0.09999999999999432,4935,3,77,68
0.09999999999999432,4935,4,77,95
0.09999999999999432,4935,5,77,91
0.09999999999999432,4935,6,77,38
0.04772727272727195,4935,7,77,75
0.10000000000000853,4935,8,77,89
0.09999999999999432,4935,9,77,27
0.045454545454546746,4935,10,77,65
0.01590909090909065,4935,11,77,58
0.10000000000000853,4935,12,77,90
0.09999999999999432,4935,13,77,11
0.09999999999999432,4935,14,77,12
0.06818181818181301,4935,15,77,17
0.004545454545450411,4936,0,77,89
0.09999999999999432,4936,1,77,49
0.09999999999999432,4936,2,77,61
0.09999999999999432,4936,3,77,49
0.09999999999999432,4936,4,77,87
0.10000000000000853,4936,5,77,5
0.09999999999999432,4936,6,77,36
0.09999999999999432,4936,7,77,74
0.09999999999999432,4936,8,77,74
0.09999999999999432,4936,9,77,38
0.056818181818186986,4936,10,77,72
0.10000000000000853,4936,11,77,15
0.09999999999999432,4936,12,77,15
0.09999999999999432,4936,13,77,87
0.10000000000000853,4936,14,77,86
0.10000000000000853,4936,15,77,91
0.10000000000000853,4937,0,77,65
0.09999999999999432,4937,1,77,11
0.09999999999999432,4937,2,77,45
0.09999999999999432,4937,3,77,77
0.09999999999999432,4937,4,77,48
0.10000000000000853,4937,5,77,60
0.10000000000000853,4937,6,77,78
0.09999999999999432,4937,7,77,65
0.03409090909090651,4937,8,77,88
0.09999999999999432,4937,9,77,90
0.09999999999999432,4937,10,77,16
0.09999999999999432,4937,11,77,52
0.045454545454546746,4937,12,77,83
0.09999999999999432,4937,13,77,82
0.09999999999999432,4937,14,77,99
0.09999999999999432,4937,15,77,76
0.056818181818186986,4938,0,77,88
0.09999999999999432,4938,1,77,67
0.09999999999999432,4938,2,77,83
0.09999999999999432,4938,3,77,108
0.09999999999999432,4938,4,77,82
0.10000000000000853,4938,5,77,4
0.09999999999999432,4938,6,77,72
0.10000000000000853,4938,7,77,108
0.10000000000000853,4938,8,77,99
0.09999999999999432,4938,9,77,112
0.09999999999999432,4938,10,77,98
0.10000000000000853,4938,11,77,80
0.09999999999999432,4938,12,77,100
0.013636363636365445,4938,13,77,112
0.10000000000000853,4938,14,77,117
0.09999999999999432,4938,15,77,107
0.09999999999999432,4939,0,77,70
0.09999999999999432,4939,1,77,80
0.09999999999999432,4939,2,77,112
0.10000000000000853,4939,3,77,111
0.09999999999999432,4939,4,77,11
0.10000000000000853,4939,5,77,85
0.03636363636363171,4939,6,77,108
0.09999999999999432,4939,7,77,63
0.09999999999999432,4939,8,77,77
0.09999999999999432,4939,9,77,83
0.09999999999999432,4939,10,77,86
0.09999999999999432,4939,11,77,88
0.09999999999999432,4939,12,77,75
0.10000000000000853,4939,13,77,91
0.09999999999999432,4939,14,77,47
0.056818181818172775,4939,15,77,77
0.09999999999999432,4940,0,77,44
0.05909090909089798,4940,1,77,75
0.10000000000000853,4940,2,77,35
0.04772727272728616,4940,3,77,64
0.10000000000000853,4940,4,77,62
0.056818181818186986,4940,5,77,89
0.10000000000000853,4940,6,77,87
0.10000000000000853,4940,7,77,98
0.09999999999999432,4940,8,77,99
0.09999999999999432,4940,9,77,92
0.10000000000000853,4940,10,77,103
0.09999999999999432,4940,11,77,75
0.09999999999999432,4940,12,77,74
0.10000000000000853,4940,13,77,101
0.09999999999999432,4940,14,77,61
0.004545454545450411,4940,15,77,95
0.09999999999999432,4941,0,77,95
0.09999999999999432,4941,1,77,85
0.09999999999999432,4941,2,77,16
0.09999999999999432,4941,3,77,51
0.09999999999999432,4941,4,77,86
0.09999999999999432,4941,5,77,100
0.09999999999999432,4941,6,77,79
0.09999999999999432,4941,7,77,81
0.09999999999999432,4941,8,77,83
0.09999999999999432,4941,9,77,14
0.09999999999999432,4941,10,77,24
0.09999999999999432,4941,11,77,91
0.09999999999999432,4941,12,77,81
0.056818181818186986,4941,13,77,109
0.004545454545450411,4941,14,77,92
0.10000000000002274,4941,15,77,96
0.09999999999999432,4942,0,77,127
0.09999999999999432,4942,1,77,127
0.09999999999999432,4942,2,77,27
0.09999999999999432,4942,3,77,92
0.09999999999999432,4942,4,77,65
0.09999999999999432,4942,5,77,83
0.09999999999999432,4942,6,77,31
0.09999999999999432,4942,7,77,100
0.09999999999999432,4942,8,77,23
0.09999999999999432,4942,9,77,108
0.09999999999999432,4942,10,77,102
0.09999999999999432,4942,11,77,10
0.10000000000002274,4942,12,77,79
0.09999999999999432,4942,13,77,79
0.09999999999999432,4942,14,77,83
0.09999999999999432,4942,15,77,66
0.09999999999999432,4943,0,77,27
0.09999999999999432,4943,1,77,99
0.09999999999999432,4943,2,77,23
0.09999999999999432,4943,3,77,94
0.09999999999999432,4943,4,77,122
0.09999999999999432,4943,5,77,83
0.09999999999999432,4943,6,77,107
0.09999999999999432,4943,7,77,39
0.09999999999999432,4943,8,77,94
0.10000000000002274,4943,9,77,66
0.09999999999999432,4943,10,77,81
0.09999999999999432,4943,11,77,2
0.09999999999999432,4943,12,77,28
0.09999999999999432,4943,13,77,90
0.09999999999999432,4943,14,77,106
0.09999999999999432,4943,15,77,62
0.10000000000002274,4944,0,77,61
0.10000000000002274,4944,1,77,5
0.01590909090910486,4944,2,77,65
0.09999999999999432,4944,3,77,36
0.09999999999999432,4944,4,77,93
0.09999999999999432,4944,5,77,42
0.09999999999999432,4944,6,77,90
0.10000000000002274,4944,7,77,121
0.10000000000002274,4944,8,77,62
0.09999999999999432,4944,9,77,90
0.10000000000002274,4944,10,77,80
0.09999999999999432,4944,11,77,95
0.09999999999999432,4944,12,77,118
0.09999999999999432,4944,13,77,31
0.09999999999999432,4944,14,77,110
0.09999999999999432,4944,15,77,100
0.09999999999999432,4945,0,77,27
0.01590909090910486,4945,1,77,86
0.09999999999999432,4945,2,77,71
0.056818181818158564,4945,3,77,110
0.09999999999999432,4945,4,77,47
0.05909090909091219,4945,5,77,86
0.10000000000002274,4945,6,77,73
0.09999999999999432,4945,7,77,57
0.09999999999999432,4945,8,77,31
0.09999999999999432,4945,9,77,13
0.09999999999999432,4945,10,77,26
0.09999999999999432,4945,11,77,117
0.09999999999999432,4945,12,77,87
0.09999999999999432,4945,13,77,71
0.056818181818158564,4945,14,77,108
0.09999999999999432,4945,15,77,91
0.09999999999999432,4946,0,77,83
0.09999999999999432,4946,1,77,66
0.09999999999999432,4946,2,77,75
0.09999999999999432,4946,3,77,79
0.056818181818186986,4946,4,77,114
0.09999999999999432,4946,5,77,27
0.05909090909091219,4946,6,77,102
0.09999999999999432,4946,7,77,122
0.09999999999999432,4946,8,77,69
0.09999999999999432,4946,9,77,96
0.10000000000002274,4946,10,77,96
0.09999999999999432,4946,11,77,81
0.09999999999999432,4946,12,77,72
0.056818181818186986,4946,13,77,108
0.09999999999999432,4946,14,77,85
0.09999999999999432,4946,15,77,65
0.09999999999999432,4947,0,62,1
0.10000000000000853,4947,1,62,2
0.04772727272727195,4947,2,62,11
0.10000000000000853,4947,3,62,12
0.10000000000000853,4947,4,62,21
0.09999999999999432,4947,5,62,21
0.10000000000000853,4947,6,62,20
0.09999999999999432,4947,7,62,6
0.10000000000000853,4947,8,62,20
0.10000000000000853,4947,9,62,8
0.09999999999999432,4947,10,62,7
0.09999999999999432,4947,11,62,22
0.09999999999999432,4947,12,62,7
0.09999999999999432,4947,13,62,21
0.09999999999999432,4947,14,62,5
0.09999999999999432,4947,15,62,2
0.10000000000000853,4948,0,62,5
0.09999999999999432,4948,1,62,6
0.09999999999999432,4948,2,62,9
0.10000000000000853,4948,3,62,2
0.025000000000005684,4948,4,62,6
0.10000000000000853,4948,5,62,12
0.09999999999999432,4948,6,62,8
0.10000000000000853,4948,7,62,6
0.09999999999999432,4948,8,62,3
0.10000000000000853,4948,9,62,9
0.09999999999999432,4948,10,62,4
0.09999999999999432,4948,11,62,7
0.09999999999999432,4948,12,62,3
0.10000000000000853,4948,13,62,11
0.09999999999999432,4948,14,62,15
0.10000000000000853,4948,15,62,14
0.10000000000000853,4949,0,62,23
0.09999999999999432,4949,1,62,7
0.09999999999999432,4949,2,62,21
0.09999999999999432,4949,3,62,4
0.09999999999999432,4949,4,62,8
0.09999999999999432,4949,5,62,5
0.09999999999999432,4949,6,62,2
0.09999999999999432,4949,7,62,2
0.09999999999999432,4949,8,62,6
0.06818181818181301,4949,9,62,15
0.09999999999999432,4949,10,62,1
0.09999999999999432,4949,11,62,3
0.09999999999999432,4949,12,62,14
0.10000000000000853,4949,13,62,6
0.10000000000000853,4949,14,62,16
0.09999999999999432,4949,15,62,5
0.10000000000000853,4950,0,62,19
0.09999999999999432,4950,1,62,16
0.09999999999999432,4950,2,62,14
0.09999999999999432,4950,3,62,5
0.056818181818172775,4950,4,62,13
0.10000000000000853,4950,5,62,7
0.09999999999999432,4950,6,62,10
0.09999999999999432,4950,7,62,8
0.10000000000000853,4950,8,62,15
0.09999999999999432,4950,9,62,7
0.06818181818181301,4950,10,62,12
0.09999999999999432,4950,11,62,11
0.10000000000000853,4950,12,62,1
0.10000000000000853,4950,13,62,5
0.09999999999999432,4950,14,62,9
0.09999999999999432,4950,15,62,6
0.10000000000002274,4951,0,62,6
0.10000000000002274,4951,1,62,5
0.09999999999999432,4951,2,62,9
0.09999999999999432,4951,3,62,1
0.10000000000002274,4951,4,62,4
0.056818181818186986,4951,5,62,7
0.09999999999999432,4951,6,62,4
0.09999999999999432,4951,7,62,12
0.09999999999999432,4951,8,62,11
0.10000000000002274,4951,9,62,14
0.09999999999999432,4951,10,62,11
0.09999999999999432,4951,11,62,13
0.10000000000002274,4951,12,62,4
0.09999999999999432,4951,13,62,2
0.10000000000002274,4951,14,62,3
0.04772727272728616,4951,15,62,8
0.09999999999999432,4952,0,62,19
0.09999999999999432,4952,1,62,12
0.09999999999999432,4952,2,62,4
0.06818181818181301,4952,3,62,7
0.09999999999999432,4952,4,62,4
0.04772727272725774,4952,5,62,14
0.09999999999999432,4952,6,62,5
0.09999999999999432,4952,7,62,5
0.09999999999999432,4952,8,62,2
0.05909090909088377,4952,9,62,3
0.09999999999999432,4952,10,62,4
0.09999999999999432,4952,11,62,10
0.09999999999999432,4952,12,62,10
0.09999999999999432,4952,13,62,8
0.09999999999999432,4952,14,62,4
0.03409090909090651,4952,15,62,12
0.09999999999999432,4953,0,62,9
0.09999999999999432,4953,1,62,1
0.04772727272728616,4953,2,62,1
0.10000000000002274,4953,3,62,1
0.10000000000002274,4953,4,62,2
0.09999999999999432,4953,5,62,3
0.10000000000002274,4953,6,62,1
0.03409090909093493,4953,7,62,2
0.09999999999999432,4953,8,62,3
0.10000000000002274,4953,9,62,6
0.09999999999999432,4953,10,62,7
0.09999999999999432,4953,11,62,5
0.056818181818158564,4953,12,62,7
0.09999999999999432,4953,13,62,5
0.056818181818186986,4953,14,62,10
0.09999999999999432,4953,15,62,3
0.03636363636363171,4954,0,62,9
0.09999999999999432,4954,1,62,13
0.09999999999999432,4954,2,62,9
0.09999999999999432,4954,3,62,7
0.10000000000002274,4954,4,62,3
0.09999999999999432,4954,5,62,11
0.10000000000000142,4954,6,53,22
0.10000000000000142,4954,7,53,54
0.10000000000000142,4954,8,53,27
0.10000000000000142,4954,9,53,63
0.10000000000000142,4954,10,53,41
0.10000000000000142,4954,11,53,55
0.10000000000000142,4954,12,53,52
0.10000000000000142,4954,13,53,77
0.10000000000000142,4954,14,53,45
0.10000000000000142,4954,15,53,57
0.10000000000000142,4955,0,53,53
0.10000000000000142,4955,1,53,31
0.04772727272727195,4955,2,53,45
0.10000000000000142,4955,3,53,59
0.10000000000000142,4955,4,53,41
0.10000000000000142,4955,5,53,14
0.10000000000000142,4955,6,53,60
0.10000000000000142,4955,7,53,45
0.10000000000000142,4955,8,53,34
0.10000000000000142,4955,9,53,43
0.10000000000000142,4955,10,53,46
0.10000000000000142,4955,11,53,57
0.09999999999999432,4955,12,53,54
0.09999999999999432,4955,13,53,38
0.09999999999999432,4955,14,53,56
0.09999999999999432,4955,15,53,57
0.045454545454546746,4956,0,53,53
0.10000000000000853,4956,1,53,41
0.09999999999999432,4956,2,53,34
0.09999999999999432,4956,3,53,43
0.10000000000000853,4956,4,53,46
0.09999999999999432,4956,5,53,39
0.09999999999999432,4956,6,53,54
0.09999999999999432,4956,7,53,51
0.10000000000000853,4956,8,53,46
0.09999999999999432,4956,9,53,56
0.09999999999999432,4956,10,53,60
0.10000000000000853,4956,11,53,57
0.09999999999999432,4956,12,53,34
0.06818181818181301,4956,13,53,47
0.09999999999999432,4956,14,53,53
0.09999999999999432,4956,15,53,50
0.10000000000000853,4957,0,53,36
0.09999999999999432,4957,1,53,52
0.09999999999999432,4957,2,53,45
0.09999999999999432,4957,3,53,50
0.10000000000000853,4957,4,53,42
0.10000000000000853,4957,5,53,51
0.06590909090908781,4957,6,53,59
0.09999999999999432,4957,7,53,42
0.10000000000000853,4957,8,53,56
0.09999999999999432,4957,9,53,36
0.09999999999999432,4957,10,53,27
0.09999999999999432,4957,11,53,30
0.10000000000000853,4957,12,53,38
0.09999999999999432,4957,13,53,53
0.09999999999999432,4957,14,53,41
0.09999999999999432,4957,15,53,32
0.09999999999999432,4958,0,53,46
0.09999999999999432,4958,1,53,64
0.10000000000000853,4958,2,53,73
0.09999999999999432,4958,3,53,29
0.10000000000000853,4958,4,53,48
0.004545454545464622,4958,5,53,42
0.09999999999999432,4958,6,53,49
0.09999999999999432,4958,7,53,54
0.10000000000000853,4958,8,53,46
0.10000000000000853,4958,9,53,65
0.09999999999999432,4958,10,53,40
0.004545454545450411,4958,11,53,28
0.10000000000000853,4958,12,53,50
0.10000000000000853,4958,13,53,46
0.09999999999999432,4958,14,53,43
0.10000000000000853,4958,15,53,39
0.09999999999999432,4959,0,53,54
0.10000000000000853,4959,1,53,67
0.09999999999999432,4959,2,53,59
0.10000000000000853,4959,3,53,57
0.10000000000000853,4959,4,53,35
0.013636363636365445,4959,5,53,40
0.10000000000000853,4959,6,53,39
0.09999999999999432,4959,7,53,48
0.09999999999999432,4959,8,53,42
0.09999999999999432,4959,9,53,49
0.09999999999999432,4959,10,53,39
0.10000000000000853,4959,11,53,58
0.036363636363645924,4959,12,53,44
0.025000000000005684,4959,13,53,50
0.10000000000000853,4959,14,53,45
0.06818181818182723,4959,15,53,45
0.09999999999999432,4960,0,53,40
0.10000000000000853,4960,1,53,31
0.10000000000000853,4960,2,53,36
0.10000000000000853,4960,3,53,40
0.09999999999999432,4960,4,53,41
0.10000000000000853,4960,5,53,44
0.10000000000000853,4960,6,53,59
0.10000000000000853,4960,7,53,47
0.09999999999999432,4960,8,53,41
0.10000000000000853,4960,9,53,56
0.025000000000005684,4960,10,53,47
0.10000000000000853,4960,11,53,45
0.09999999999999432,4960,12,53,23
0.09999999999999432,4960,13,53,30
0.09999999999999432,4960,14,53,34
0.09999999999999432,4960,15,53,44
0.09999999999999432,4961,0,53,20
0.06818181818181301,4961,1,53,40
0.09999999999999432,4961,2,53,56
0.09999999999999432,4961,3,53,24
0.025000000000005684,4961,4,53,22
0.03636363636363171,4961,5,53,49
0.10000000000000853,4961,6,53,36
0.10000000000000853,4961,7,53,37
0.09999999999999432,4961,8,53,17
0.06590909090908781,4961,9,53,35
0.10000000000000853,4961,10,53,17
0.056818181818186986,4961,11,53,40
0.10000000000000853,4961,12,53,53
0.09999999999999432,4961,13,53,62
0.10000000000000853,4961,14,53,36
0.09999999999999432,4961,15,53,57
0.013636363636365445,4962,0,53,57
0.09999999999999432,4962,1,53,58
0.09999999999999432,4962,2,53,36
0.10000000000002274,4962,3,53,58
0.09999999999999432,4962,4,53,54
0.10000000000002274,4962,5,53,39
0.09999999999999432,4962,6,53,51
0.056818181818186986,4962,7,53,60
0.10000000000002274,4962,8,53,46
0.10000000000002274,4962,9,53,59
0.09999999999999432,4962,10,53,53
0.09999999999999432,4962,11,53,53
0.09999999999999432,4962,12,53,66
0.06590909090908781,4962,13,53,61
0.09999999999999432,4962,14,53,54
0.06818181818181301,4962,15,53,53
0.09999999999999432,4963,0,53,60
0.09999999999999432,4963,1,53,71
0.09999999999999432,4963,2,53,52
0.10000000000002274,4963,3,53,47
0.06818181818184144,4963,4,53,47
0.09999999999999432,4963,5,53,52
0.09999999999999432,4963,6,53,60
0.09999999999999432,4963,7,53,47
0.09999999999999432,4963,8,53,46
0.09999999999999432,4963,9,53,47
0.09999999999999432,4963,10,53,49
0.09999999999999432,4963,11,53,57
0.10000000000002274,4963,12,53,32
0.10000000000002274,4963,13,53,46
0.09999999999999432,4963,14,53,67
0.09999999999999432,4963,15,53,59
0.09999999999999432,4964,0,53,52
0.10000000000002274,4964,1,53,52
0.09999999999999432,4964,2,53,39
0.09999999999999432,4964,3,53,52
0.09999999999999432,4964,4,53,55
0.09999999999999432,4964,5,53,59
0.09999999999999432,4964,6,53,31
0.09999999999999432,4964,7,53,45
0.09999999999999432,4964,8,53,58
0.09999999999999432,4964,9,53,43
0.09999999999999432,4964,10,53,39
0.09999999999999432,4964,11,53,45
0.09999999999999432,4964,12,53,36
0.09999999999999432,4964,13,53,41
0.10000000000002274,4964,14,53,58
0.09999999999999432,4964,15,53,55
0.10000000000002274,4965,0,53,54
0.10000000000002274,4965,1,53,71
0.09999999999999432,4965,2,53,38
0.09999999999999432,4965,3,53,39
0.10000000000002274,4965,4,53,43
0.09999999999999432,4965,5,53,59
0.09999999999999432,4965,6,53,44
0.09999999999999432,4965,7,53,27
0.09999999999999432,4965,8,53,52
0.10000000000002274,4965,9,53,54
0.09999999999999432,4965,10,53,58
0.09999999999999432,4965,11,53,53
0.09999999999999432,4965,12,53,62
0.09999999999999432,4965,13,53,71
0.09999999999999432,4965,14,53,58
0.09999999999999432,4965,15,53,65
0.09999999999999432,4966,0,53,63
0.10000000000002274,4966,1,53,59
0.04772727272728616,4966,2,53,65
0.09999999999999432,4966,3,53,70
0.09999999999999432,4966,4,53,65
0.09999999999999432,4966,5,53,74
0.09999999999999432,4966,6,53,71
0.09999999999999432,4966,7,53,59
0.09999999999999432,4966,8,53,68
0.10000000000002274,4966,9,53,74
0.09999999999999432,4966,10,53,61
0.09999999999999432,4966,11,53,61
0.09999999999999432,4966,12,53,72
0.09999999999999432,4966,13,53,45
0.09999999999999432,4966,14,53,58
0.09999999999999432,4966,15,53,64
0.09999999999999432,4967,0,53,70
0.09999999999999432,4967,1,53,60
0.03409090909090651,4967,2,53,56
0.09999999999999432,4967,3,53,54
0.09999999999999432,4967,4,53,54
0.09999999999999432,4967,5,53,64
0.10000000000002274,4967,6,53,47
0.01590909090910486,4967,7,53,77
0.09999999999999432,4967,8,53,75
0.09999999999999432,4967,9,53,46
0.09999999999999432,4967,10,53,67
0.10000000000002274,4967,11,53,73
0.09999999999999432,4967,12,53,62
0.09999999999999432,4967,13,53,60
0.09999999999999432,4967,14,53,60
0.09999999999999432,4967,15,53,69
0.09999999999999432,4968,0,53,66
0.06818181818181301,4968,1,53,58
0.10000000000002274,4968,2,53,51
0.09999999999999432,4968,3,53,54
0.09999999999999432,4968,4,53,34
0.045454545454532536,4968,5,53,37
0.09999999999999432,4968,6,53,49
0.09999999999999432,4968,7,53,46
0.10000000000002274,4968,8,53,32
0.09999999999999432,4968,9,53,57
0.09999999999999432,4968,10,53,60
0.09999999999999432,4968,11,53,65
0.09999999999999432,4968,12,53,68
0.09999999999999432,4968,13,53,59
0.09999999999999432,4968,14,53,60
0.09999999999999432,4968,15,53,52
0.09999999999999432,4969,0,53,61
0.09999999999999432,4969,1,53,47
0.09999999999999432,4969,2,53,46
0.10000000000002274,4969,3,53,47
0.06818181818184144,4969,4,53,50
0.09999999999999432,4969,5,53,56
0.056818181818186986,4969,6,53,64
0.09999999999999432,4969,7,53,26
0.09999999999999432,4969,8,53,50
0.10000000000002274,4969,9,53,70
0.09999999999999432,4969,10,53,77
0.09999999999999432,4969,11,53,56
0.056818181818186986,4969,12,53,61
0.10000000000002274,4969,13,53,60
0.09999999999999432,4969,14,53,56
0.09999999999999432,4969,15,53,66
0.10000000000002274,4970,0,53,61
0.10000000000002274,4970,1,53,56
0.09999999999999432,4970,2,53,61
0.09999999999999432,4970,3,53,47
0.10000000000002274,4970,4,53,68
0.03409090909093493,4970,5,53,63
0.09999999999999432,4970,6,53,72
0.09999999999999432,4970,7,53,89
0.09999999999999432,4970,8,53,84
0.10000000000002274,4970,9,53,87
0.09999999999999432,4970,10,53,85
0.09999999999999432,4970,11,53,65
0.10000000000002274,4970,12,53,58
0.09999999999999432,4970,13,53,64
0.09999999999999432,4970,14,53,59
0.09999999999999432,4970,15,53,57
0.09999999999999432,4971,0,53,56
0.09999999999999432,4971,1,53,65
0.10000000000002274,4971,2,53,62
0.06818181818184144,4971,3,53,59
0.10000000000002274,4971,4,53,57
0.10000000000002274,4971,5,53,62
0.09999999999999432,4971,6,53,65
0.056818181818186986,4971,7,53,70
0.09999999999999432,4971,8,53,73
0.09999999999999432,4971,9,53,73
0.09999999999999432,4971,10,53,76
0.09999999999999432,4971,11,53,75
0.09999999999999432,4971,12,53,82
0.09999999999999432,4971,13,53,86
0.09999999999999432,4971,14,53,72
0.09999999999999432,4971,15,53,43
0.03636363636363171,4972,0,53,69
0.09999999999999432,4972,1,53,81
0.09999999999999432,4972,2,53,71
0.09999999999999432,4972,3,53,89
0.09999999999999432,4972,4,53,72
0.03636363636363171,4972,5,53,74
0.09999999999999432,4972,6,53,59
0.09999999999999432,4972,7,53,59
0.09999999999999432,4972,8,53,66
0.09999999999999432,4972,9,53,67
0.04772727272725774,4972,10,53,59
0.09999999999999432,4972,11,53,55
0.09999999999999432,4972,12,53,56
0.09999999999999432,4972,13,53,68
0.09999999999999432,4972,14,53,36
0.056818181818158564,4972,15,53,41
0.01590909090907644,4973,0,53,73
0.09999999999999432,4973,1,53,65
0.09999999999999432,4973,2,53,81
0.09999999999999432,4973,3,53,84
0.09999999999999432,4973,4,53,75
0.09999999999999432,4973,5,53,63
0.10000000000002274,4973,6,53,62
0.09999999999999432,4973,7,53,46
0.09999999999999432,4973,8,53,40
0.09999999999999432,4973,9,53,36
0.10000000000000853,4973,10,68,123
0.09999999999999432,4973,11,68,114
0.10000000000000853,4973,12,68,109
0.10000000000000853,4973,13,68,18
0.09999999999999432,4973,14,68,127
0.09999999999999432,4973,15,68,5
0.10000000000000853,4974,0,68,117
0.10000000000000853,4974,1,68,4
0.10000000000000853,4974,2,68,7
0.09999999999999432,4974,3,68,121
0.09999999999999432,4974,4,68,119
0.09999999999999432,4974,5,68,4
0.09999999999999432,4974,6,68,115
0.09999999999999432,4974,7,68,4
0.10000000000000853,4974,8,68,110
0.09999999999999432,4974,9,68,3
0.09999999999999432,4974,10,68,122
0.10000000000000853,4974,11,68,10
0.10000000000000853,4974,12,68,122
0.09999999999999432,4974,13,68,105
0.09999999999999432,4974,14,68,3
0.09999999999999432,4974,15,68,113
0.09999999999999432,4975,0,68,4
0.10000000000000853,4975,1,68,100
0.09999999999999432,4975,2,68,3
0.10000000000000853,4975,3,68,8
0.10000000000000853,4975,4,68,122
0.09999999999999432,4975,5,68,111
0.09999999999999432,4975,6,68,4
0.09999999999999432,4975,7,68,110
0.09999999999999432,4975,8,68,4
0.09999999999999432,4975,9,68,100
0.09999999999999432,4975,10,68,3
0.09999999999999432,4975,11,68,119
0.10000000000000853,4975,12,68,9
0.10000000000000853,4975,13,68,116
0.10000000000000853,4975,14,68,97
0.10000000000000853,4975,15,68,4
0.09999999999999432,4976,0,68,1
0.09999999999999432,4976,1,68,106
0.09999999999999432,4976,2,68,4
0.09999999999999432,4976,3,68,107
0.09999999999999432,4976,4,68,4
0.09999999999999432,4976,5,68,7
0.10000000000000853,4976,6,68,126
0.09999999999999432,4976,7,68,99
0.10000000000000853,4976,8,68,4
0.09999999999999432,4976,9,68,113
0.09999999999999432,4976,10,68,4
0.09999999999999432,4976,11,68,83
0.09999999999999432,4976,12,68,4
0.09999999999999432,4976,13,68,120
0.09999999999999432,4976,14,68,8
0.10000000000000853,4976,15,68,117
0.10000000000000853,4977,0,68,100
0.10000000000000853,4977,1,68,4
0.09999999999999432,4977,2,68,110
0.09999999999999432,4977,3,68,4
0.09999999999999432,4977,4,68,97
0.09999999999999432,4977,5,68,4
0.09999999999999432,4977,6,68,7
0.09999999999999432,4977,7,68,90
0.10000000000000853,4977,8,68,100
0.10000000000000853,4977,9,68,4
0.10000000000000853,4977,10,68,112
0.09999999999999432,4977,11,68,4
0.09999999999999432,4977,12,68,92
0.09999999999999432,4977,13,68,5
0.10000000000000853,4977,14,68,119
0.09999999999999432,4977,15,68,9
0.10000000000000853,4978,0,68,122
0.10000000000000853,4978,1,68,97
0.10000000000000853,4978,2,68,12
0.10000000000000853,4978,3,68,101
0.10000000000000853,4978,4,68,116
0.10000000000000853,4978,5,68,9
0.09999999999999432,4978,6,68,123
0.09999999999999432,4978,7,68,120
0.09999999999999432,4978,8,68,106
0.10000000000000853,4978,9,68,4
0.10000000000000853,4978,10,68,115
0.10000000000000853,4978,11,68,4
0.09999999999999432,4978,12,68,107
0.10000000000000853,4978,13,68,1
0.09999999999999432,4978,14,68,115
0.09999999999999432,4978,15,68,127
0.09999999999999432,4979,0,68,101
0.09999999999999432,4979,1,68,4
0.09999999999999432,4979,2,68,127
0.10000000000000853,4979,3,68,7
0.10000000000000853,4979,4,68,109
0.09999999999999432,4979,5,68,102
0.09999999999999432,4979,6,68,113
0.10000000000000853,4979,7,68,11
0.09999999999999432,4979,8,68,126
0.09999999999999432,4979,9,68,68
0.09999999999999432,4979,10,68,6
0.09999999999999432,4979,11,68,117
0.09999999999999432,4979,12,68,7
0.09999999999999432,4979,13,68,117
0.10000000000000853,4979,14,68,109
0.10000000000000853,4979,15,68,4
0.09999999999999432,4980,0,68,115
0.09999999999999432,4980,1,68,3
0.09999999999999432,4980,2,68,99
0.09999999999999432,4980,3,68,4
0.09999999999999432,4980,4,68,111
0.09999999999999432,4980,5,68,6
0.10000000000000853,4980,6,68,79
0.10000000000000853,4980,7,68,96
0.10000000000000853,4980,8,68,3
0.10000000000000853,4980,9,68,106
0.09999999999999432,4980,10,68,3
0.09999999999999432,4980,11,68,97
0.09999999999999432,4980,12,68,4
0.10000000000000853,4980,13,68,116
0.09999999999999432,4980,14,68,8
0.10000000000000853,4980,15,68,109
0.09999999999999432,4981,0,68,98
0.10000000000000853,4981,1,68,10
0.10000000000000853,4981,2,68,107
0.10000000000000853,4981,3,68,4
0.09999999999999432,4981,4,68,105
0.09999999999999432,4981,5,68,5
0.09999999999999432,4981,6,68,7
0.09999999999999432,4981,7,68,112
0.09999999999999432,4981,8,68,98
0.09999999999999432,4981,9,68,103
0.09999999999999432,4981,10,68,11
0.10000000000000853,4981,11,68,125
0.09999999999999432,4981,12,68,107
0.10000000000000853,4981,13,68,2
0.09999999999999432,4981,14,68,91
0.09999999999999432,4981,15,68,4
0.09999999999999432,4982,0,68,92
0.10000000000000853,4982,1,68,73
0.09999999999999432,4982,2,68,3
0.10000000000000853,4982,3,68,82
0.09999999999999432,4982,4,68,2
0.09999999999999432,4982,5,68,69
0.10000000000000853,4982,6,68,2
0.10000000000000853,4982,7,68,91
0.09999999999999432,4982,8,68,5
0.09999999999999432,4982,9,68,89
0.09999999999999432,4982,10,68,73
0.09999999999999432,4982,11,68,8
0.10000000000000853,4982,12,68,89
0.10000000000000853,4982,13,68,2
0.10000000000000853,4982,14,68,71
0.10000000000000853,4982,15,68,2
0.10000000000000853,4983,0,68,98
0.09999999999999432,4983,1,68,4
0.09999999999999432,4983,2,68,95
0.09999999999999432,4983,3,68,70
0.09999999999999432,4983,4,68,2
0.09999999999999432,4983,5,68,99
0.10000000000000853,4983,6,68,2
0.10000000000000853,4983,7,68,71
0.09999999999999432,4983,8,68,2
0.10000000000002274,4983,9,68,103
0.09999999999999432,4983,10,68,5
0.09999999999999432,4983,11,68,89
0.10000000000002274,4983,12,68,70
0.10000000000002274,4983,13,68,7
0.09999999999999432,4983,14,68,97
0.09999999999999432,4983,15,68,2
0.09999999999999432,4984,0,68,76
0.09999999999999432,4984,1,68,2
0.09999999999999432,4984,2,68,97
0.09999999999999432,4984,3,68,5
0.09999999999999432,4984,4,68,90
0.10000000000002274,4984,5,68,75
0.10000000000002274,4984,6,68,2
0.09999999999999432,4984,7,68,86
0.10000000000002274,4984,8,68,91
0.09999999999999432,4984,9,68,76
0.09999999999999432,4984,10,68,90
0.09999999999999432,4984,11,68,80
0.09999999999999432,4984,12,68,89
0.09999999999999432,4984,13,68,70
0.09999999999999432,4984,14,68,68
0.09999999999999432,4984,15,68,71
0.09999999999999432,4985,0,68,70
0.10000000000002274,4985,1,68,127
0.09999999999999432,4985,2,68,3
0.10000000000002274,4985,3,68,2
0.09999999999999432,4985,4,68,127
0.10000000000002274,4985,5,68,98
0.10000000000002274,4985,6,68,1
0.09999999999999432,4985,7,68,2
0.09999999999999432,4985,8,68,127
0.09999999999999432,4985,9,68,1
0.09999999999999432,4985,10,68,98
0.10000000000002274,4985,11,68,2
0.09999999999999432,4985,12,68,127
0.09999999999999432,4985,13,68,2
0.09999999999999432,4985,14,68,1
0.10000000000002274,4985,15,68,106
0.09999999999999432,4986,0,68,94
0.09999999999999432,4986,1,68,2
0.09999999999999432,4986,2,68,1
0.09999999999999432,4986,3,68,127
0.09999999999999432,4986,4,68,1
0.09999999999999432,4986,5,68,93
0.09999999999999432,4986,6,68,2
0.10000000000002274,4986,7,68,127
0.09999999999999432,4986,8,68,2
0.10000000000002274,4986,9,68,1
0.09999999999999432,4986,10,68,127
0.09999999999999432,4986,11,68,95
0.09999999999999432,4986,12,68,2
0.09999999999999432,4986,13,68,1
0.10000000000002274,4986,14,68,120
0.10000000000002274,4986,15,68,1
0.09999999999999432,4987,0,68,87
0.09999999999999432,4987,1,68,2
0.10000000000002274,4987,2,68,127
0.09999999999999432,4987,3,68,2
0.09999999999999432,4987,4,68,1
0.09999999999999432,4987,5,68,127
0.10000000000002274,4987,6,68,92
0.09999999999999432,4987,7,68,1
0.09999999999999432,4987,8,68,3
0.09999999999999432,4987,9,68,119
0.09999999999999432,4987,10,68,1
0.09999999999999432,4987,11,68,93
0.10000000000002274,4987,12,68,2
0.09999999999999432,4987,13,68,127
0.09999999999999432,4987,14,68,2
0.09999999999999432,4987,15,68,2
0.09999999999999432,4988,0,68,127
0.09999999999999432,4988,1,68,88
0.09999999999999432,4988,2,68,2
0.09999999999999432,4988,3,68,2
0.10000000000002274,4988,4,68,127
0.09999999999999432,4988,5,68,2
0.09999999999999432,4988,6,68,96
0.09999999999999432,4988,7,68,2
0.10000000000002274,4988,8,68,127
0.10000000000002274,4988,9,68,2
0.10000000000002274,4988,10,68,2
0.09999999999999432,4988,11,68,127
0.09999999999999432,4988,12,68,77
0.09999999999999432,4988,13,68,101
0.09999999999999432,4988,14,68,94
0.10000000000002274,4988,15,68,64
0.10000000000002274,4989,0,68,84
0.09999999999999432,4989,1,68,71
0.09999999999999432,4989,2,68,97
0.10000000000002274,4989,3,68,85
0.09999999999999432,4989,4,68,109
0.10000000000002274,4989,5,68,106
0.09999999999999432,4989,6,68,81
0.09999999999999432,4989,7,68,3
0.09999999999999432,4989,8,68,97
0.09999999999999432,4989,9,68,3
0.09999999999999432,4989,10,68,76
0.09999999999999432,4989,11,68,3
0.10000000000002274,4989,12,68,106
0.09999999999999432,4989,13,68,97
0.09999999999999432,4989,14,68,82
0.09999999999999432,4989,15,68,3
0.09999999999999432,4990,0,68,91
0.09999999999999432,4990,1,68,3
0.10000000000002274,4990,2,68,78
0.09999999999999432,4990,3,68,3
0.09999999999999432,4990,4,68,105
0.09999999999999432,4990,5,68,98
0.10000000000002274,4990,6,68,80
0.10000000000002274,4990,7,68,3
0.09999999999999432,4990,8,68,97
0.09999999999999432,4990,9,68,3
0.09999999999999432,4990,10,68,84
0.09999999999999432,4990,11,68,3
0.09999999999999432,4990,12,68,103
0.10000000000002274,4990,13,68,98
0.09999999999999432,4990,14,68,85
0.09999999999999432,4990,15,68,3
0.09999999999999432,4991,0,68,102
0.09999999999999432,4991,1,68,94
0.09999999999999432,4991,2,68,105
0.09999999999999432,4991,3,68,103
0.10000000000002274,4991,4,68,79
0.09999999999999432,4991,5,68,3
0.09999999999999432,4991,6,68,101
0.09999999999999432,4991,7,68,3
0.09999999999999432,4991,8,68,92
0.09999999999999432,4991,9,68,3
0.09999999999999432,4991,10,68,98
0.09999999999999432,4991,11,68,103
0.10000000000002274,4991,12,68,86
0.09999999999999432,4991,13,68,3
0.09999999999999432,4991,14,68,99
0.09999999999999432,4991,15,68,2
0.09999999999999432,4992,0,68,84
0.09999999999999432,4992,1,68,3
0.09999999999999432,4992,2,68,99
0.09999999999999432,4992,3,68,103
0.09999999999999432,4992,4,68,87
0.09999999999999432,4992,5,68,3
0.10000000000002274,4992,6,68,96
0.09999999999999432,4992,7,68,88
0.09999999999999432,4992,8,68,76
0.09999999999999432,4992,9,68,94
0.10000000000002274,4992,10,68,112
0.09999999999999432,4992,11,68,66
0.09999999999999432,4992,12,68,102
0.09999999999999432,4992,13,68,83
0.09999999999999432,4992,14,68,94
0.09999999999999432,4992,15,68,98
0.09999999999999432,4993,0,68,88
0.09999999999999432,4993,1,68,102
0.09999999999999432,4993,2,68,107
0.09999999999999432,4993,3,68,92
0.09999999999999432,4993,4,68,4
0.10000000000002274,4993,5,68,4
0.09999999999999432,4993,6,68,75
0.09999999999999432,4993,7,68,3
0.10000000000002274,4993,8,68,4
0.09999999999999432,4993,9,68,60
0.09999999999999432,4993,10,68,4
0.09999999999999432,4993,11,68,5
0.09999999999999432,4993,12,68,58
0.09999999999999432,4993,13,68,2
0.09999999999999432,4993,14,68,80
0.09999999999999432,4993,15,68,63
0.09999999999999432,4994,0,68,4
0.09999999999999432,4994,1,68,4
0.10000000000002274,4994,2,68,79
0.09999999999999432,4994,3,68,3
0.10000000000002274,4994,4,68,4
0.10000000000002274,4994,5,68,3
0.09999999999999432,4994,6,68,62
0.09999999999999432,4994,7,68,4
0.09999999999999432,4994,8,68,4
0.09999999999999432,4994,9,68,77
0.09999999999999432,4994,10,68,2
0.09999999999999432,4994,11,68,87
0.09999999999999432,4994,12,68,2
0.09999999999999432,4994,13,68,59
0.09999999999999432,4994,14,68,3
0.09999999999999432,4994,15,68,74
0.09999999999999432,4995,0,68,4
0.10000000000002274,4995,1,68,64
0.10000000000002274,4995,2,68,4
0.09999999999999432,4995,3,68,3
0.09999999999999432,4995,4,68,79
0.09999999999999432,4995,5,68,2
0.09999999999999432,4995,6,68,84
0.09999999999999432,4995,7,68,63
0.09999999999999432,4995,8,68,4
0.09999999999999432,4995,9,68,4
0.09999999999999432,4995,10,68,74
0.09999999999999432,4995,11,68,3
0.10000000000002274,4995,12,68,4
0.10000000000002274,4995,13,68,2
0.09999999999999432,4995,14,68,30
0.09999999999999432,4995,15,68,4
0.09999999999999432,4996,0,68,4
0.10000000000002274,4996,1,68,79
0.09999999999999432,4996,2,68,2
0.09999999999999432,4996,3,68,78
0.09999999999999432,4996,4,68,2
0.09999999999999432,4996,5,68,67
0.09999999999999432,4996,6,68,4
0.09999999999999432,4996,7,68,4
0.09999999999999432,4996,8,68,74
0.09999999999999432,4996,9,68,4
0.09999999999999432,4996,10,68,62
0.10000000000002274,4996,11,68,4
0.09999999999999432,4996,12,68,2
0.09999999999999432,4996,13,68,78
0.09999999999999432,4996,14,68,63
0.09999999999999432,4996,15,68,67
0.10000000000002274,4997,0,68,4
0.09999999999999432,4997,1,68,2
0.09999999999999432,4997,2,68,77
0.09999999999999432,4997,3,68,2
0.09999999999999432,4997,4,68,4
0.09999999999999432,4997,5,68,2
0.10000000000002274,4997,6,68,61
0.09999999999999432,4997,7,68,4
0.10000000000002274,4997,8,68,3
0.09999999999999432,4997,9,68,74
0.10000000000002274,4997,10,68,75
0.09999999999999432,4997,11,68,67
0.09999999999999432,4997,12,68,4
0.09999999999999432,4997,13,68,70
0.09999999999999432,4997,14,68,4
0.09999999999999432,4997,15,68,59
0.09999999999999432,4998,0,68,4
0.09999999999999432,4998,1,68,3
0.10000000000002274,4998,2,68,74
0.09999999999999432,4998,3,68,2
0.10000000000002274,4998,4,68,83
0.10000000000002274,4998,5,68,2
0.09999999999999432,4998,6,68,65
0.09999999999999432,4998,7,68,14
0.10000000000000009,4998,8,61,39
0.10000000000000009,4998,9,61,35
0.10000000000000009,4998,10,61,30
0.10000000000000053,4998,11,61,69
0.09999999999999964,4998,12,61,46
0.09999999999999964,4998,13,61,50
0.09999999999999964,4998,14,61,40
0.09999999999999964,4998,15,61,56
0.09999999999999964,4999,0,61,36
0.09999999999999964,4999,1,61,48
0.09999999999999964,4999,2,61,48
0.09999999999999964,4999,3,61,37
0.09999999999999964,4999,4,61,54
0.09999999999999964,4999,5,61,48
0.09999999999999964,4999,6,61,35
0.09999999999999787,4999,7,61,62
0.10000000000000142,4999,8,61,49
0.10000000000000142,4999,9,61,32
0.09999999999999787,4999,10,61,22
0.10000000000000142,4999,11,61,46
0.10000000000000142,4999,12,61,53
0.10000000000000142,4999,13,61,54
0.10000000000000142,4999,14,61,54
0.10000000000000142,4999,15,61,27
0.10000000000000142,5000,0,61,26
0.10000000000000142,5000,1,61,28
0.10000000000000142,5000,2,61,32
0.10000000000000142,5000,3,61,32
0.09999999999999787,5000,4,61,37
0.10000000000000142,5000,5,61,38
0.09999999999999787,5000,6,61,26
0.10000000000000142,5000,7,61,28
0.10000000000000142,5000,8,61,31
0.10000000000000142,5000,9,61,55
0.09999999999999787,5000,10,61,46
0.10000000000000142,5000,11,61,44
0.10000000000000142,5000,12,61,33
0.09999999999999787,5000,13,61,27
0.09999999999999787,5000,14,61,31
0.10000000000000142,5000,15,61,48
0.10000000000000142,5001,0,61,50
0.09999999999999787,5001,1,61,103
0.09999999999999787,5001,2,61,67
0.10000000000000142,5001,3,61,37
0.10000000000000142,5001,4,61,43
0.09999999999999787,5001,5,61,43
0.09999999999999787,5001,6,61,35
0.10000000000000142,5001,7,61,37
0.10000000000000142,5001,8,61,35
0.10000000000000142,5001,9,61,36
0.10000000000000142,5001,10,61,41
0.10000000000000142,5001,11,61,46
0.10000000000000142,5001,12,61,52
0.09999999999999432,5001,13,61,39
0.10000000000000142,5001,14,61,40
0.10000000000000142,5001,15,61,31
0.10000000000000142,5002,0,61,41
0.10000000000000142,5002,1,61,56
0.10000000000000142,5002,2,61,40
0.10000000000000142,5002,3,61,38
0.10000000000000142,5002,4,61,50
0.10000000000000142,5002,5,61,51
0.10000000000000142,5002,6,61,62
0.10000000000000142,5002,7,61,52
0.09999999999999432,5002,8,61,73
0.10000000000000142,5002,9,61,56
0.10000000000000142,5002,10,61,47
0.10000000000000142,5002,11,61,37
0.09999999999999432,5002,12,61,79
0.10000000000000142,5002,13,61,45
0.10000000000000142,5002,14,61,51
0.10000000000000142,5002,15,61,52
0.09999999999999432,5003,0,61,44
0.06818181818181301,5003,1,61,61
0.10000000000000142,5003,2,61,57
0.10000000000000142,5003,3,61,68
0.10000000000000142,5003,4,61,57
0.10000000000000142,5003,5,61,56
0.09999999999999432,5003,6,61,10
0.059090909090905086,5003,7,61,59
0.10000000000000142,5003,8,61,30
0.10000000000000142,5003,9,61,59
0.10000000000000142,5003,10,61,47
0.10000000000000142,5003,11,61,29
0.10000000000000142,5003,12,61,54
0.10000000000000142,5003,13,61,32
0.10000000000000142,5003,14,61,48
0.10000000000000142,5003,15,61,39
0.10000000000000142,5004,0,61,37
0.10000000000000142,5004,1,61,61
0.10000000000000142,5004,2,61,37
0.10000000000000142,5004,3,61,56
0.10000000000000142,5004,4,61,37
0.09999999999999432,5004,5,61,37
0.10000000000000142,5004,6,61,44
0.045454545454546746,5004,7,61,68
0.10000000000000142,5004,8,61,29
0.09999999999999432,5004,9,61,70
0.10000000000000142,5004,10,61,50
0.10000000000000142,5004,11,61,27
0.10000000000000142,5004,12,61,35
0.06818181818182012,5004,13,61,53
0.10000000000000142,5004,14,61,29
0.10000000000000142,5004,15,61,52
0.10000000000000142,5005,0,61,37
0.10000000000000142,5005,1,61,32
0.10000000000000142,5005,2,61,71
0.10000000000000142,5005,3,61,59
0.10000000000000142,5005,4,61,52
0.10000000000000142,5005,5,61,43
0.10000000000000142,5005,6,61,83
0.10000000000000142,5005,7,61,33
0.10000000000000142,5005,8,61,71
0.10000000000000142,5005,9,61,52
0.10000000000000142,5005,10,61,37
0.10000000000000142,5005,11,61,90
0.10000000000000142,5005,12,61,26
0.10000000000000142,5005,13,61,53
0.10000000000000142,5005,14,61,38
0.09999999999999432,5005,15,61,29
0.06818181818181301,5006,0,61,36
0.09999999999999432,5006,1,61,30
0.10000000000000142,5006,2,61,64
0.10000000000000142,5006,3,61,43
0.10000000000000142,5006,4,61,33
0.10000000000000142,5006,5,61,42
0.10000000000000142,5006,6,61,44
0.10000000000000142,5006,7,61,57
0.10000000000000142,5006,8,61,42
0.09999999999999432,5006,9,61,32
0.10000000000000142,5006,10,61,34
0.10000000000000142,5006,11,61,32
0.10000000000000142,5006,12,61,58
0.10000000000000142,5006,13,61,53
0.09999999999999432,5006,14,61,29
0.10000000000000142,5006,15,61,43
0.10000000000000142,5007,0,61,52
0.10000000000000142,5007,1,61,40
0.10000000000000142,5007,2,61,25
0.10000000000000142,5007,3,61,43
0.10000000000000142,5007,4,61,30
0.10000000000000142,5007,5,61,28
0.09999999999999432,5007,6,61,22
0.10000000000000142,5007,7,61,42
0.10000000000000142,5007,8,61,42
0.10000000000000142,5007,9,61,33
0.09999999999999432,5007,10,61,32
0.09999999999999432,5007,11,61,44
0.09999999999999432,5007,12,61,41
0.10000000000000853,5007,13,61,38
0.10000000000000853,5007,14,61,16
0.10000000000000853,5007,15,61,32
0.10000000000000853,5008,0,61,55
0.09999999999999432,5008,1,61,40
0.09999999999999432,5008,2,61,24
0.09999999999999432,5008,3,61,47
0.10000000000000853,5008,4,61,43
0.09999999999999432,5008,5,61,39
0.10000000000000853,5008,6,61,36
0.09999999999999432,5008,7,61,51
0.10000000000000853,5008,8,61,40
0.10000000000000853,5008,9,61,43
0.09999999999999432,5008,10,61,26
0.09999999999999432,5008,11,61,39
0.09999999999999432,5008,12,61,41
0.10000000000000853,5008,13,61,31
0.09999999999999432,5008,14,61,30
0.10000000000000853,5008,15,61,36
0.10000000000000853,5009,0,61,22
0.09999999999999432,5009,1,61,14
0.09999999999999432,5009,2,61,14
0.10000000000000853,5009,3,61,56
0.09999999999999432,5009,4,61,9
0.056818181818172775,5009,5,61,45
0.004545454545450411,5009,6,61,71
0.10000000000000853,5009,7,61,35
0.09999999999999432,5009,8,61,36
0.09999999999999432,5009,9,61,33
0.09999999999999432,5009,10,61,36
0.09999999999999432,5009,11,61,36
0.10000000000000853,5009,12,61,38
0.10000000000000853,5009,13,61,26
0.09999999999999432,5009,14,61,40
0.10000000000000853,5009,15,61,50
0.10000000000000853,5010,0,61,18
0.10000000000000853,5010,1,61,27
0.09999999999999432,5010,2,61,34
0.09999999999999432,5010,3,61,17
0.09999999999999432,5010,4,61,16
0.10000000000000853,5010,5,61,42
0.10000000000000853,5010,6,61,20
0.10000000000000853,5010,7,61,28
0.10000000000000853,5010,8,61,45
0.09999999999999432,5010,9,61,30
0.10000000000000853,5010,10,61,41
0.10000000000000853,5010,11,61,41
0.09999999999999432,5010,12,61,31
0.10000000000000853,5010,13,61,28
0.09999999999999432,5010,14,61,26
0.09999999999999432,5010,15,61,31
0.09999999999999432,5011,0,61,42
0.09999999999999432,5011,1,61,19
0.10000000000000853,5011,2,61,25
0.10000000000000853,5011,3,61,17
0.09999999999999432,5011,4,61,17
0.09999999999999432,5011,5,61,25
0.09999999999999432,5011,6,61,21
0.10000000000000853,5011,7,61,25
0.10000000000000853,5011,8,61,45
0.09999999999999432,5011,9,61,30
0.09999999999999432,5011,10,61,27
0.09999999999999432,5011,11,61,31
0.10000000000000853,5011,12,61,30
0.09999999999999432,5011,13,61,38
0.10000000000000853,5011,14,61,36
0.10000000000000853,5011,15,61,38
0.09999999999999432,5012,0,61,33
0.09999999999999432,5012,1,61,26
0.10000000000000853,5012,2,61,36
0.10000000000000853,5012,3,61,22
0.10000000000000853,5012,4,61,28
0.10000000000000853,5012,5,61,28
0.10000000000000853,5012,6,61,41
0.09999999999999432,5012,7,61,32
0.10000000000000853,5012,8,61,23
0.10000000000000853,5012,9,61,25
0.10000000000000853,5012,10,61,52
0.10000000000000853,5012,11,61,45
0.09999999999999432,5012,12,61,58
0.09999999999999432,5012,13,61,41
0.10000000000000853,5012,14,61,51
0.09999999999999432,5012,15,61,39
0.10000000000000853,5013,0,61,49
0.09999999999999432,5013,1,61,54
0.09999999999999432,5013,2,61,49
0.09999999999999432,5013,3,61,36
0.10000000000000853,5013,4,61,48
0.10000000000000853,5013,5,61,50
0.10000000000000853,5013,6,61,41
0.09999999999999432,5013,7,61,26
0.10000000000000853,5013,8,61,57
0.09999999999999432,5013,9,61,32
0.09999999999999432,5013,10,61,33
0.06818181818181301,5013,11,61,36
0.09999999999999432,5013,12,61,31
0.10000000000000853,5013,13,61,35
0.056818181818186986,5013,14,61,39
0.09999999999999432,5013,15,61,33
0.10000000000000853,5014,0,61,51
0.09999999999999432,5014,1,61,21
0.09999999999999432,5014,2,61,21
0.09999999999999432,5014,3,61,30
0.10000000000000853,5014,4,61,39
0.09999999999999432,5014,5,61,33
0.09999999999999432,5014,6,61,23
0.10000000000000853,5014,7,61,27
0.09999999999999432,5014,8,61,50
0.09999999999999432,5014,9,61,35
0.09999999999999432,5014,10,61,35
0.10000000000000853,5014,11,61,26
0.09999999999999432,5014,12,61,42
0.09999999999999432,5014,13,61,42
0.10000000000000853,5014,14,61,35
0.09999999999999432,5014,15,61,36
0.10000000000000853,5015,0,61,68
0.10000000000000853,5015,1,61,34
0.09999999999999432,5015,2,61,40
0.10000000000000853,5015,3,61,24
0.09999999999999432,5015,4,61,26
0.09999999999999432,5015,5,61,42
0.09999999999999432,5015,6,61,49
0.09999999999999432,5015,7,61,39
0.10000000000000853,5015,8,61,32
0.10000000000000853,5015,9,61,27
0.06818181818182723,5015,10,61,28
0.09999999999999432,5015,11,61,25
0.10000000000000853,5015,12,61,27
0.10000000000000853,5015,13,61,33
0.09999999999999432,5015,14,61,33
0.09999999999999432,5015,15,61,49
0.10000000000000853,5016,0,61,40
0.09999999999999432,5016,1,61,63
0.10000000000000853,5016,2,61,26
0.10000000000000853,5016,3,61,28
0.10000000000000853,5016,4,61,32
0.09999999999999432,5016,5,61,49
0.09999999999999432,5016,6,61,33
0.09999999999999432,5016,7,61,30
0.09999999999999432,5016,8,61,37
0.09999999999999432,5016,9,61,58
0.10000000000000853,5016,10,61,31
0.09999999999999432,5016,11,61,36
0.09999999999999432,5016,12,61,35
0.09999999999999432,5016,13,61,32
0.09999999999999432,5016,14,61,34
0.10000000000000853,5016,15,61,28
0.10000000000000853,5017,0,61,35
0.09999999999999432,5017,1,61,33
0.09999999999999432,5017,2,61,31
0.09999999999999432,5017,3,61,41
0.09999999999999432,5017,4,61,38
0.09999999999999432,5017,5,61,39
0.09999999999999432,5017,6,61,50
0.09999999999999432,5017,7,61,43
0.10000000000000853,5017,8,61,37
0.09999999999999432,5017,9,61,32
0.10000000000000853,5017,10,61,35
0.09999999999999432,5017,11,61,49
0.06818181818181301,5017,12,61,51
0.10000000000000853,5017,13,61,40
0.09999999999999432,5017,14,61,51
0.10000000000000853,5017,15,61,49
0.09999999999999432,5018,0,61,48
0.09999999999999432,5018,1,61,47
0.10000000000002274,5018,2,61,43
0.09999999999999432,5018,3,61,50
0.09999999999999432,5018,4,61,71
0.09999999999999432,5018,5,61,50
0.09999999999999432,5018,6,61,30
0.09999999999999432,5018,7,61,38
0.09999999999999432,5018,8,61,38
0.09999999999999432,5018,9,61,35
0.09999999999999432,5018,10,61,44
0.09999999999999432,5018,11,61,39
0.09999999999999432,5018,12,61,34
0.09999999999999432,5018,13,61,71
0.09999999999999432,5018,14,61,41
0.09999999999999432,5018,15,61,32
0.09999999999999432,5019,0,61,47
0.10000000000002274,5019,1,61,57
0.09999999999999432,5019,2,61,56
0.09999999999999432,5019,3,61,60
0.09999999999999432,5019,4,61,64
0.09999999999999432,5019,5,61,69
0.09999999999999432,5019,6,61,23
0.09999999999999432,5019,7,61,15
0.09999999999999432,5019,8,61,12
0.09999999999999432,5019,9,61,8
0.09999999999999432,5019,10,61,13
0.10000000000002274,5019,11,61,8
0.056818181818186986,5019,12,61,13
0.10000000000002274,5019,13,61,11
0.09999999999999432,5019,14,61,9
0.10000000000002274,5019,15,61,10
0.10000000000002274,5020,0,61,19
0.09999999999999432,5020,1,61,24
0.10000000000002274,5020,2,61,17
0.09999999999999432,5020,3,61,18
0.09999999999999432,5020,4,61,14
0.10000000000002274,5020,5,61,17
0.09999999999999432,5020,6,61,16
0.09999999999999432,5020,7,61,17
0.09999999999999432,5020,8,61,17
0.10000000000002274,5020,9,61,19
0.10000000000002274,5020,10,61,15
0.09999999999999432,5020,11,61,20
0.09999999999999432,5020,12,61,17
0.09999999999999432,5020,13,61,19
0.09999999999999432,5020,14,61,14
0.09999999999999432,5020,15,61,19
0.09999999999999432,5021,0,61,15
0.09999999999999432,5021,1,61,14
0.09999999999999432,5021,2,61,17
0.10000000000002274,5021,3,61,17
0.09999999999999432,5021,4,61,18
0.09999999999999432,5021,5,61,17
0.09999999999999432,5021,6,61,18
0.09999999999999432,5021,7,61,25
0.10000000000002274,5021,8,61,22
0.09999999999999432,5021,9,61,15
0.09999999999999432,5021,10,61,19
0.09999999999999432,5021,11,61,19
0.10000000000002274,5021,12,61,19
0.09999999999999432,5021,13,61,11
0.09999999999999432,5021,14,61,19
0.09999999999999432,5021,15,61,24
0.10000000000002274,5022,0,61,20
0.09999999999999432,5022,1,61,27
0.09999999999999432,5022,2,61,28
0.10000000000002274,5022,3,61,27
0.09999999999999432,5022,4,61,22
0.09999999999999432,5022,5,61,30
0.09999999999999432,5022,6,61,28
0.09999999999999432,5022,7,61,28
0.10000000000002274,5022,8,61,44
0.09999999999999432,5022,9,61,24
0.09999999999999432,5022,10,61,22
0.09999999999999432,5022,11,61,15
0.03636363636363171,5022,12,61,14
0.09999999999999432,5022,13,61,27
0.09999999999999432,5022,14,61,40
0.10000000000002274,5022,15,61,25
0.09999999999999432,5023,0,61,28
0.10000000000002274,5023,1,61,33
0.09999999999999432,5023,2,61,26
0.09999999999999432,5023,3,61,37
0.09999999999999432,5023,4,61,39
0.09999999999999432,5023,5,61,14
0.09999999999999432,5023,6,61,29
0.06818181818181301,5023,7,61,34
0.09999999999999432,5023,8,61,23
0.09999999999999432,5023,9,61,20
0.10000000000002274,5023,10,61,18
0.09999999999999432,5023,11,61,26
0.09999999999999432,5023,12,61,24
0.09999999999999432,5023,13,61,33
0.09999999999999432,5023,14,61,23
0.10000000000002274,5023,15,61,32
0.09999999999999432,5024,0,61,27
0.09999999999999432,5024,1,61,22
0.09999999999999432,5024,2,61,20
0.09999999999999432,5024,3,61,39
0.09999999999999432,5024,4,61,22
0.09999999999999432,5024,5,61,22
0.09999999999999432,5024,6,61,27
0.09999999999999432,5024,7,61,23
0.10000000000002274,5024,8,61,25
0.09999999999999432,5024,9,61,23
0.09999999999999432,5024,10,61,47
0.09999999999999432,5024,11,61,31
0.09999999999999432,5024,12,61,34
0.09999999999999432,5024,13,61,33
0.09999999999999432,5024,14,61,47
0.09999999999999432,5024,15,61,2
0.10000000000002274,5025,0,61,33
0.09999999999999432,5025,1,61,42
0.09999999999999432,5025,2,61,27
0.10000000000002274,5025,3,61,27
0.09999999999999432,5025,4,61,38
0.09999999999999432,5025,5,61,30
0.09999999999999432,5025,6,61,23
0.09999999999999432,5025,7,61,28
0.10000000000002274,5025,8,61,35
0.09999999999999432,5025,9,61,23
0.09999999999999432,5025,10,61,29
0.09999999999999432,5025,11,61,30
0.09999999999999432,5025,12,61,29
0.09999999999999432,5025,13,61,31
0.10000000000002274,5025,14,61,40
0.06818181818184144,5025,15,61,48
0.09999999999999432,5026,0,61,37
0.09999999999999432,5026,1,61,29
0.09999999999999432,5026,2,61,26
0.09999999999999432,5026,3,61,34
0.09999999999999432,5026,4,61,21
0.09999999999999432,5026,5,61,36
0.06818181818181301,5026,6,61,44
0.09999999999999432,5026,7,61,35
0.09999999999999432,5026,8,61,22
0.09999999999999432,5026,9,61,23
0.10000000000002274,5026,10,61,32
0.06818181818184144,5026,11,61,43
0.09999999999999432,5026,12,61,26
0.09999999999999432,5026,13,61,28
0.09999999999999432,5026,14,61,37
0.09999999999999432,5026,15,61,40
0.09999999999999432,5027,0,61,41
0.09999999999999432,5027,1,61,30
0.10000000000002274,5027,2,61,36
0.09999999999999432,5027,3,61,32
0.09999999999999432,5027,4,61,24
0.09999999999999432,5027,5,61,29
0.09999999999999432,5027,6,61,29
0.09999999999999432,5027,7,61,30
0.10000000000002274,5027,8,61,28
0.09999999999999432,5027,9,61,32
0.09999999999999432,5027,10,61,34
0.10000000000002274,5027,11,61,21
0.09999999999999432,5027,12,61,34
0.09999999999999432,5027,13,61,52
0.09999999999999432,5027,14,61,35
0.09999999999999432,5027,15,61,40
0.06590909090908781,5028,0,61,53
0.09999999999999432,5028,1,61,41
0.09999999999999432,5028,2,61,31
0.09999999999999432,5028,3,61,25
0.09999999999999432,5028,4,61,32
0.09999999999999432,5028,5,61,31
0.09999999999999432,5028,6,61,40
0.09999999999999432,5028,7,61,35
0.09999999999999432,5028,8,61,33
0.09999999999999432,5028,9,61,25
0.10000000000002274,5028,10,61,43
0.10000000000002274,5028,11,61,31
0.09999999999999432,5028,12,61,30
0.09999999999999432,5028,13,61,37
0.09999999999999432,5028,14,61,44
0.09999999999999432,5028,15,61,35
0.10000000000002274,5029,0,61,41
0.09999999999999432,5029,1,61,42
0.09999999999999432,5029,2,61,28
0.09999999999999432,5029,3,61,37
0.10000000000002274,5029,4,61,46
0.10000000000002274,5029,5,61,36
0.10000000000002274,5029,6,61,37
0.09999999999999432,5029,7,61,25
0.09999999999999432,5029,8,61,38
0.09999999999999432,5029,9,61,33
0.09999999999999432,5029,10,61,33
0.10000000000002274,5029,11,61,42
0.09999999999999432,5029,12,61,43
0.09999999999999432,5029,13,61,31
0.09999999999999432,5029,14,61,45
0.10000000000002274,5029,15,61,51
0.09999999999999432,5030,0,61,30
0.10000000000002274,5030,1,61,32
0.09999999999999432,5030,2,61,37
0.09999999999999432,5030,3,61,42
0.09999999999999432,5030,4,61,28
0.10000000000002274,5030,5,61,30
0.09999999999999432,5030,6,61,33
0.09999999999999432,5030,7,61,42
0.09999999999999432,5030,8,61,57
0.09999999999999432,5030,9,61,37
0.10000000000002274,5030,10,61,38
0.09999999999999432,5030,11,61,46
0.09999999999999432,5030,12,61,33
0.10000000000002274,5030,13,61,50
0.10000000000002274,5030,14,61,30
0.09999999999999432,5030,15,61,51
0.09999999999999432,5031,0,61,38
0.09999999999999432,5031,1,61,67
0.09999999999999432,5031,2,61,46
0.09999999999999432,5031,3,61,38
0.09999999999999432,5031,4,61,37
0.09999999999999432,5031,5,61,48
0.09999999999999432,5031,6,61,27
0.09999999999999432,5031,7,61,47
0.10000000000002274,5031,8,61,39
0.09999999999999432,5031,9,61,26
0.09999999999999432,5031,10,61,30
0.10000000000002274,5031,11,61,57
0.09999999999999432,5031,12,61,43
0.10000000000002274,5031,13,61,37
0.09999999999999432,5031,14,61,52
0.09999999999999432,5031,15,61,52
0.09999999999999432,5032,0,61,27
0.09999999999999432,5032,1,61,32
0.09999999999999432,5032,2,61,38
0.09999999999999432,5032,3,61,43
0.09999999999999432,5032,4,61,39
0.09999999999999432,5032,5,61,32
0.09999999999999432,5032,6,61,37
0.09999999999999432,5032,7,61,47
0.09999999999999432,5032,8,61,25
0.09999999999999432,5032,9,61,23
0.09999999999999432,5032,10,61,17
0.045454545454532536,5032,11,61,29
0.01590909090907644,5032,12,61,26
0.04545454545456096,5032,13,61,25
0.10000000000002274,5032,14,61,10
0.056818181818186986,5032,15,61,16
0.09999999999999432,5033,0,61,15
0.09999999999999432,5033,1,61,8
0.09999999999999432,5033,2,61,14
0.09999999999999432,5033,3,61,7
0.025000000000005684,5033,4,61,8
0.056818181818186986,5033,5,61,8
0.03636363636363171,5033,6,61,8
0.004545454545450411,5033,7,61,12
0.09999999999999432,5033,8,61,19
0.09999999999999432,5033,9,61,40
0.09999999999999432,5033,10,61,30
0.09999999999999432,5033,11,61,27
0.10000000000002274,5033,12,61,42
0.09999999999999432,5033,13,61,40
0.09999999999999432,5033,14,61,33
0.09999999999999432,5033,15,61,41
0.09999999999999432,5034,0,61,38
0.09999999999999432,5034,1,61,41
0.09999999999999432,5034,2,61,53
0.09999999999999432,5034,3,61,25
0.09999999999999432,5034,4,61,42
0.10000000000002274,5034,5,61,35
0.09999999999999432,5034,6,61,40
0.09999999999999432,5034,7,61,55
0.09999999999999432,5034,8,61,22
0.09999999999999432,5034,9,61,16
0.10000000000002274,5034,10,61,14
0.09999999999999432,5034,11,61,10
0.09999999999999432,5034,12,61,27
0.10000000000002274,5034,13,61,7
0.10000000000002274,5034,14,61,16
0.09999999999999432,5034,15,61,23
0.09999999999999432,5035,0,61,20
0.10000000000002274,5035,1,61,24
0.09999999999999432,5035,2,61,17
0.09999999999999432,5035,3,61,29
0.09999999999999432,5035,4,61,28
0.09999999999999432,5035,5,61,25
0.09999999999999432,5035,6,61,22
0.09999999999999432,5035,7,61,20
0.09999999999999432,5035,8,61,18
0.09999999999999432,5035,9,61,22
0.09999999999999432,5035,10,61,23
0.09999999999999432,5035,11,61,28
0.09999999999999432,5035,12,61,21
0.09999999999999432,5035,13,61,11
0.09999999999999432,5035,14,61,22
0.09999999999999432,5035,15,61,21
0.09999999999999432,5036,0,61,28
0.09999999999999432,5036,1,61,23
0.09999999999999432,5036,2,61,21
0.09999999999999432,5036,3,61,20
0.09999999999999432,5036,4,61,18
0.10000000000002274,5036,5,61,15
0.09999999999999432,5036,6,61,23
0.09999999999999432,5036,7,61,32
0.10000000000002274,5036,8,61,22
0.10000000000002274,5036,9,61,28
0.09999999999999432,5036,10,61,33
0.10000000000002274,5036,11,61,27
0.09999999999999432,5036,12,61,20
0.09999999999999432,5036,13,61,24
0.09999999999999432,5036,14,61,20
0.09999999999999432,5036,15,61,19
0.09999999999999432,5037,0,61,27
0.09999999999999432,5037,1,61,24
0.09999999999999432,5037,2,61,32
0.09999999999999432,5037,3,61,24
0.10000000000002274,5037,4,61,18
0.09999999999999432,5037,5,61,18
0.09999999999999432,5037,6,61,22
0.09999999999999432,5037,7,61,22
0.09999999999999432,5037,8,61,22
0.10000000000002274,5037,9,61,19
0.09999999999999432,5037,10,61,22
0.09999999999999432,5037,11,61,24
0.09999999999999432,5037,12,61,21
0.10000000000002274,5037,13,61,22
0.09999999999999432,5037,14,61,18
0.09999999999999432,5037,15,61,27
0.09999999999999432,5038,0,61,25
0.09999999999999432,5038,1,61,14
0.09999999999999432,5038,2,61,17
0.09999999999999432,5038,3,61,18
0.09999999999999432,5038,4,61,21
0.09999999999999432,5038,5,61,16
0.09999999999999432,5038,6,61,21
0.10000000000002274,5038,7,61,20
0.09999999999999432,5038,8,61,22
0.09999999999999432,5038,9,61,20
0.09999999999999432,5038,10,61,20
0.09999999999999432,5038,11,61,19
0.10000000000002274,5038,12,61,20
0.09999999999999432,5038,13,61,20
0.09999999999999432,5038,14,61,17
0.09999999999999432,5038,15,61,23
0.09999999999999432,5039,0,61,22
0.09999999999999432,5039,1,61,25
0.09999999999999432,5039,2,61,10
0.09999999999999432,5039,3,60,9
0.09999999999999432,5039,4,60,2
0.09999999999999432,5039,5,60,4
0.09999999999999432,5039,6,60,2
0.10000000000002274,5039,7,60,15
0.09999999999999432,5039,8,60,5
0.09999999999999432,5039,9,60,3
0.09999999999999432,5039,10,60,4
0.09999999999999432,5039,11,60,2
0.10000000000002274,5039,12,60,4
0.09999999999999432,5039,13,60,1
0.09999999999999432,5039,14,60,17
0.09999999999999432,5039,15,60,5
0.09999999999999432,5040,0,60,2
0.09999999999999432,5040,1,60,5
0.10000000000002274,5040,2,60,2
0.09999999999999432,5040,3,60,4
0.10000000000002274,5040,4,60,2
0.09999999999999432,5040,5,60,15
0.09999999999999432,5040,6,60,5
0.09999999999999432,5040,7,60,2
0.10000000000002274,5040,8,60,4
0.09999999999999432,5040,9,60,2
0.09999999999999432,5040,10,60,4
0.09999999999999432,5040,11,60,2
0.09999999999999432,5040,12,60,16
0.09999999999999432,5040,13,60,5
0.10000000000002274,5040,14,60,2
0.09999999999999432,5040,15,60,4
0.09999999999999432,5041,0,60,1
0.09999999999999432,5041,1,60,5
0.09999999999999432,5041,2,60,2
0.09999999999999432,5041,3,60,16
0.10000000000002274,5041,4,60,5
0.10000000000002274,5041,5,60,2
0.09999999999999432,5041,6,60,5
0.09999999999999432,5041,7,60,2
0.09999999999999432,5041,8,60,4
0.09999999999999432,5041,9,60,2
0.10000000000002274,5041,10,60,15
0.09999999999999432,5041,11,60,5
0.09999999999999432,5041,12,60,2
0.09999999999999432,5041,13,60,5
0.09999999999999432,5041,14,60,2
0.09999999999999432,5041,15,60,5
0.10000000000002274,5042,0,60,2
0.09999999999999432,5042,1,60,16
0.09999999999999432,5042,2,60,4
0.09999999999999432,5042,3,60,1
0.09999999999999432,5042,4,60,4
0.09999999999999432,5042,5,60,2
0.10000000000002274,5042,6,60,5
0.09999999999999432,5042,7,60,2
0.09999999999999432,5042,8,60,16
0.09999999999999432,5042,9,60,5
0.09999999999999432,5042,10,60,2
0.09999999999999432,5042,11,60,5
0.10000000000002274,5042,12,60,2
0.09999999999999432,5042,13,60,5
0.09999999999999432,5042,14,60,2
0.09999999999999432,5042,15,60,15
0.09999999999999432,5043,0,60,2
0.09999999999999432,5043,1,60,4
0.10000000000002274,5043,2,60,2
0.09999999999999432,5043,3,60,4
0.09999999999999432,5043,4,60,2
0.09999999999999432,5043,5,60,5
0.09999999999999432,5043,6,60,2
0.09999999999999432,5043,7,60,15
0.10000000000002274,5043,8,60,5
0.09999999999999432,5043,9,60,2
0.09999999999999432,5043,10,60,5
0.09999999999999432,5043,11,60,2
0.09999999999999432,5043,12,60,5
0.09999999999999432,5043,13,60,2
0.09999999999999432,5043,14,60,16
0.09999999999999432,5043,15,60,5
0.10000000000002274,5044,0,60,2
0.09999999999999432,5044,1,60,4
0.09999999999999432,5044,2,60,3
0.09999999999999432,5044,3,60,4
0.09999999999999432,5044,4,60,2
0.10000000000002274,5044,5,60,17
0.09999999999999432,5044,6,60,2
0.09999999999999432,5044,7,60,5
0.09999999999999432,5044,8,60,2
0.09999999999999432,5044,9,60,4
0.09999999999999432,5044,10,60,2
0.10000000000002274,5044,11,60,3
0.09999999999999432,5044,12,60,2
0.09999999999999432,5044,13,60,17
0.09999999999999432,5044,14,60,5
0.09999999999999432,5044,15,60,2
0.09999999999999432,5045,0,60,4
0.09999999999999432,5045,1,60,3
0.09999999999999432,5045,2,60,4
0.10000000000002274,5045,3,60,2
0.09999999999999432,5045,4,60,15
0.09999999999999432,5045,5,60,5
0.09999999999999432,5045,6,60,2
0.10000000000002274,5045,7,60,4
0.09999999999999432,5045,8,60,3
0.10000000000002274,5045,9,60,5
0.09999999999999432,5045,10,60,2
0.09999999999999432,5045,11,60,18
0.09999999999999432,5045,12,60,5
0.10000000000002274,5045,13,60,2
0.09999999999999432,5045,14,60,3
0.10000000000002274,5045,15,60,3
0.09999999999999432,5046,0,60,5
0.09999999999999432,5046,1,60,2
0.09999999999999432,5046,2,60,16
0.09999999999999432,5046,3,60,2
0.10000000000002274,5046,4,60,5
0.09999999999999432,5046,5,60,2
0.10000000000002274,5046,6,60,5
0.09999999999999432,5046,7,60,2
0.09999999999999432,5046,8,60,4
0.09999999999999432,5046,9,60,2
0.09999999999999432,5046,10,60,16
0.09999999999999432,5046,11,60,5
0.09999999999999432,5046,12,60,2
0.09999999999999432,5046,13,60,4
0.09999999999999432,5046,14,60,3
0.09999999999999432,5046,15,60,5
0.10000000000002274,5047,0,60,2
0.09999999999999432,5047,1,60,15
0.09999999999999432,5047,2,60,1
0.10000000000002274,5047,3,60,1
0.10000000000000009,5047,4,69,28
0.09999999999999987,5047,5,69,55
0.10000000000000009,5047,6,69,127
0.09999999999999987,5047,7,69,51
0.10000000000000009,5047,8,69,40
0.09999999999999964,5047,9,69,31
0.09999999999999964,5047,10,69,113
0.10000000000000053,5047,11,69,82
0.09999999999999964,5047,12,69,101
0.09999999999999964,5047,13,69,98
0.09999999999999964,5047,14,69,127
0.09999999999999964,5047,15,69,90
0.06818181818181746,5048,0,69,114
0.09999999999999964,5048,1,69,44
0.09999999999999964,5048,2,69,48
0.09999999999999964,5048,3,69,127
0.09999999999999964,5048,4,69,14
0.025000000000000355,5048,5,69,107
0.09999999999999964,5048,6,69,127
0.09999999999999964,5048,7,69,78
0.10000000000000142,5048,8,69,100
0.09999999999999964,5048,9,69,19
0.09999999999999964,5048,10,69,13
0.09999999999999964,5048,11,69,70
0.09999999999999964,5048,12,69,16
0.09999999999999964,5048,13,69,127
0.09999999999999964,5048,14,69,31
0.09999999999999964,5048,15,69,127
0.10000000000000142,5049,0,69,127
0.10000000000000142,5049,1,69,15
0.09999999999999964,5049,2,69,48
0.09999999999999964,5049,3,69,127
0.09999999999999964,5049,4,69,127
0.10000000000000142,5049,5,69,115
0.09999999999999787,5049,6,69,121
0.10000000000000142,5049,7,69,51
0.09999999999999787,5049,8,69,36
0.10000000000000142,5049,9,69,89
0.09999999999999787,5049,10,69,95
0.10000000000000142,5049,11,69,125
0.09999999999999787,5049,12,69,104
0.09999999999999787,5049,13,69,65
0.045454545454543194,5049,14,69,122
0.10000000000000142,5049,15,69,23
0.09999999999999787,5050,0,69,54
0.04772727272727195,5050,1,69,125
0.10000000000000142,5050,2,69,127
0.09999999999999787,5050,3,69,127
0.09999999999999787,5050,4,69,84
0.09999999999999787,5050,5,69,127
0.10000000000000142,5050,6,69,127
0.10000000000000142,5050,7,69,24
0.03636363636363882,5050,8,69,127
0.09999999999999787,5050,9,69,50
0.03409090909091006,5050,10,69,121
0.10000000000000142,5050,11,69,18
0.10000000000000142,5050,12,69,115
0.047727272727275505,5050,13,69,127
0.09999999999999787,5050,14,69,90
0.05681818181817988,5050,15,69,125
0.10000000000000142,5051,0,69,30
0.09999999999999787,5051,1,69,45
0.04772727272727195,5051,2,69,110
0.10000000000000142,5051,3,69,24
0.06818181818182012,5051,4,69,39
0.09999999999999787,5051,5,69,71
0.10000000000000142,5051,6,69,58
0.10000000000000142,5051,7,69,23
0.10000000000000142,5051,8,69,84
0.10000000000000142,5051,9,69,127
0.09999999999999787,5051,10,69,26
0.10000000000000142,5051,11,69,52
0.09999999999999787,5051,12,69,127
0.10000000000000142,5051,13,69,58
0.045454545454546746,5051,14,69,91
0.10000000000000142,5051,15,69,46
0.10000000000000142,5052,0,69,44
0.10000000000000142,5052,1,69,56
0.09999999999999787,5052,2,69,127
0.10000000000000142,5052,3,69,64
0.10000000000000142,5052,4,69,52
0.04772727272727195,5052,5,69,118
0.10000000000000142,5052,6,69,127
0.10000000000000142,5052,7,69,102
0.10000000000000142,5052,8,69,28
0.10000000000000142,5052,9,69,40
0.10000000000000142,5052,10,69,41
0.10000000000000142,5052,11,69,91
0.09999999999999432,5052,12,69,69
0.10000000000000142,5052,13,69,127
0.10000000000000142,5052,14,69,15
0.10000000000000142,5052,15,69,118
0.10000000000000142,5053,0,69,127
0.09999999999999432,5053,1,69,69
0.10000000000000142,5053,2,69,80
0.10000000000000142,5053,3,69,65
0.10000000000000142,5053,4,69,105
0.10000000000000142,5053,5,69,60
0.10000000000000142,5053,6,69,67
0.10000000000000142,5053,7,69,42
0.10000000000000142,5053,8,69,53
0.10000000000000142,5053,9,69,39
0.10000000000000142,5053,10,69,62
0.004545454545457517,5053,11,69,56
0.10000000000000142,5053,12,69,67
0.10000000000000142,5053,13,69,57
0.10000000000000142,5053,14,69,50
0.01590909090909065,5053,15,69,90
0.10000000000000142,5054,0,69,23
0.02499999999999858,5054,1,69,64
0.10000000000000142,5054,2,69,24
0.03636363636363882,5054,3,69,59
0.09999999999999432,5054,4,69,84
0.10000000000000142,5054,5,69,83
0.10000000000000142,5054,6,69,91
0.10000000000000142,5054,7,69,60
0.09999999999999432,5054,8,69,113
0.10000000000000142,5054,9,69,61
0.04772727272727195,5054,10,69,74
0.10000000000000142,5054,11,69,42
0.02499999999999858,5054,12,69,106
0.10000000000000142,5054,13,69,117
0.10000000000000142,5054,14,69,62
0.10000000000000142,5054,15,69,37
0.10000000000000142,5055,0,69,55
0.10000000000000142,5055,1,69,95
0.10000000000000142,5055,2,69,111
0.10000000000000142,5055,3,69,103
0.09999999999999432,5055,4,69,43
0.01363636363635834,5055,5,69,93
0.10000000000000142,5055,6,69,71
0.10000000000000142,5055,7,69,91
0.09999999999999432,5055,8,69,112
0.09999999999999432,5055,9,69,104
0.10000000000000142,5055,10,69,39
0.10000000000000142,5055,11,69,86
0.10000000000000142,5055,12,69,51
0.10000000000000142,5055,13,69,97
0.10000000000000142,5055,14,69,41
0.10000000000000142,5055,15,69,49
0.10000000000000142,5056,0,69,116
0.10000000000000142,5056,1,69,108
0.10000000000000142,5056,2,69,56
0.045454545454546746,5056,3,69,115
0.10000000000000142,5056,4,69,78
0.09999999999999432,5056,5,69,102
0.10000000000000142,5056,6,69,34
0.10000000000000142,5056,7,69,84
0.10000000000000142,5056,8,69,98
0.10000000000000142,5056,9,69,124
0.10000000000000142,5056,10,69,27
0.10000000000000142,5056,11,69,57
0.10000000000000142,5056,12,69,58
0.09999999999999432,5056,13,69,88
0.10000000000000142,5056,14,69,29
0.10000000000000142,5056,15,69,113
0.10000000000000142,5057,0,69,111
0.10000000000000142,5057,1,69,44
0.004545454545457517,5057,2,69,115
0.10000000000000142,5057,3,69,118
0.10000000000000142,5057,4,69,127
0.10000000000000142,5057,5,69,104
0.10000000000000142,5057,6,69,94
0.056818181818186986,5057,7,69,127
0.10000000000000142,5057,8,69,103
0.10000000000000142,5057,9,69,46
0.10000000000000142,5057,10,69,46
0.045454545454546746,5057,11,69,111
0.10000000000000142,5057,12,69,20
0.09999999999999432,5057,13,69,113
0.10000000000000142,5057,14,69,89
0.10000000000000142,5057,15,69,45
0.10000000000000142,5058,0,69,100
0.10000000000000142,5058,1,69,38
0.10000000000000142,5058,2,69,58
0.10000000000000142,5058,3,69,72
0.10000000000000142,5058,4,69,92
0.10000000000000142,5058,5,69,121
0.10000000000000142,5058,6,69,101
0.10000000000000142,5058,7,69,96
0.10000000000000142,5058,8,69,86
0.10000000000000142,5058,9,69,30
0.10000000000000142,5058,10,69,115
0.10000000000000142,5058,11,69,85
0.10000000000000853,5058,12,69,46
0.09999999999999432,5058,13,69,97
0.10000000000000853,5058,14,69,125
0.09999999999999432,5058,15,69,101
0.09999999999999432,5059,0,69,18
0.10000000000000853,5059,1,69,37
0.10000000000000853,5059,2,69,49
0.01590909090909065,5059,3,69,106
0.10000000000000853,5059,4,69,26
0.045454545454546746,5059,5,69,83
0.09999999999999432,5059,6,69,123
0.09999999999999432,5059,7,69,34
0.09999999999999432,5059,8,69,40
0.09999999999999432,5059,9,69,97
0.09999999999999432,5059,10,69,91
0.09999999999999432,5059,11,69,37
0.09999999999999432,5059,12,69,84
0.09999999999999432,5059,13,69,107
0.10000000000000853,5059,14,69,48
0.09999999999999432,5059,15,69,74
0.09999999999999432,5060,0,69,127
0.10000000000000853,5060,1,69,84
0.10000000000000853,5060,2,69,108
0.10000000000000853,5060,3,69,69
0.10000000000000853,5060,4,69,30
0.09999999999999432,5060,5,69,74
0.09999999999999432,5060,6,69,54
0.10000000000000853,5060,7,69,78
0.09999999999999432,5060,8,69,62
0.10000000000000853,5060,9,69,49
0.09999999999999432,5060,10,69,58
0.09999999999999432,5060,11,69,17
0.09999999999999432,5060,12,69,60
0.056818181818186986,5060,13,69,97
0.09999999999999432,5060,14,69,96
0.09999999999999432,5060,15,69,100
0.09999999999999432,5061,0,69,68
0.10000000000000853,5061,1,69,127
0.09999999999999432,5061,2,69,66
0.10000000000000853,5061,3,69,70
0.09999999999999432,5061,4,69,78
0.10000000000000853,5061,5,69,62
0.09999999999999432,5061,6,69,60
0.09999999999999432,5061,7,69,31
0.09999999999999432,5061,8,69,51
0.09999999999999432,5061,9,69,121
0.09999999999999432,5061,10,69,98
0.10000000000000853,5061,11,69,127
0.09999999999999432,5061,12,69,54
0.09999999999999432,5061,13,69,84
0.09999999999999432,5061,14,69,94
0.09999999999999432,5061,15,69,83
0.09999999999999432,5062,0,69,20
0.09999999999999432,5062,1,69,90
0.09999999999999432,5062,2,69,37
0.09999999999999432,5062,3,69,127
0.09999999999999432,5062,4,69,92
0.09999999999999432,5062,5,69,50
0.10000000000000853,5062,6,69,121
0.09999999999999432,5062,7,69,76
0.09999999999999432,5062,8,69,44
0.04772727272727195,5062,9,69,100
0.09999999999999432,5062,10,69,67
0.09999999999999432,5062,11,69,22
0.09999999999999432,5062,12,69,75
0.09999999999999432,5062,13,69,81
0.10000000000000853,5062,14,69,56
0.10000000000000853,5062,15,69,48
0.09999999999999432,5063,0,69,87
0.09999999999999432,5063,1,69,63
0.09999999999999432,5063,2,69,76
0.09999999999999432,5063,3,69,120
0.09999999999999432,5063,4,69,38
0.045454545454546746,5063,5,69,84
0.10000000000000853,5063,6,69,103
0.09999999999999432,5063,7,69,29
0.09999999999999432,5063,8,69,12
0.09999999999999432,5063,9,69,28
0.013636363636365445,5063,10,69,89
0.09999999999999432,5063,11,69,93
0.10000000000000853,5063,12,69,127
0.10000000000000853,5063,13,69,47
0.09999999999999432,5063,14,69,127
0.09999999999999432,5063,15,69,127
0.09999999999999432,5064,0,69,56
0.09999999999999432,5064,1,69,62
0.09999999999999432,5064,2,69,75
0.10000000000000853,5064,3,69,29
0.10000000000000853,5064,4,69,58
0.10000000000000853,5064,5,69,49
0.06818181818182723,5064,6,69,65
0.10000000000000853,5064,7,69,26
0.09999999999999432,5064,8,69,82
0.09999999999999432,5064,9,69,85
0.04772727272727195,5064,10,69,63
0.09999999999999432,5064,11,69,40
0.09999999999999432,5064,12,69,107
0.10000000000000853,5064,13,69,127
0.10000000000000853,5064,14,69,122
0.09999999999999432,5064,15,69,127
0.09999999999999432,5065,0,69,51
0.09999999999999432,5065,1,69,127
0.09999999999999432,5065,2,69,34
0.09999999999999432,5065,3,69,49
0.056818181818172775,5065,4,69,68
0.10000000000000853,5065,5,69,55
0.09999999999999432,5065,6,69,40
0.056818181818186986,5065,7,69,65
0.10000000000000853,5065,8,69,27
0.09999999999999432,5065,9,69,79
0.10000000000000853,5065,10,69,66
0.09999999999999432,5065,11,69,53
0.10000000000000853,5065,12,69,121
0.09999999999999432,5065,13,69,76
0.09999999999999432,5065,14,69,125
0.09999999999999432,5065,15,69,53
0.09999999999999432,5066,0,69,64
0.10000000000000853,5066,1,69,50
0.10000000000000853,5066,2,69,84
0.09999999999999432,5066,3,69,40
0.09999999999999432,5066,4,69,127
0.05909090909091219,5066,5,69,127
0.09999999999999432,5066,6,69,56
0.10000000000000853,5066,7,69,54
0.10000000000000853,5066,8,69,29
0.09999999999999432,5066,9,69,102
0.10000000000000853,5066,10,69,94
0.10000000000000853,5066,11,69,39
0.04772727272727195,5066,12,69,73
0.10000000000000853,5066,13,69,48
0.09999999999999432,5066,14,69,6
0.09999999999999432,5066,15,69,33
0.06590909090908781,5067,0,69,43
0.013636363636365445,5067,1,69,53
0.004545454545450411,5067,2,69,49
0.09999999999999432,5067,3,69,89
0.09999999999999432,5067,4,69,44
0.10000000000000853,5067,5,69,111
0.10000000000000853,5067,6,69,83
0.09999999999999432,5067,7,69,37
0.03636363636363171,5067,8,69,80
0.09999999999999432,5067,9,69,76
0.10000000000000853,5067,10,69,46
0.045454545454546746,5067,11,69,97
0.09999999999999432,5067,12,69,80
0.10000000000000853,5067,13,69,80
0.09999999999999432,5067,14,69,57
0.09999999999999432,5067,15,69,85
0.10000000000000853,5068,0,69,88
0.09999999999999432,5068,1,69,58
0.09999999999999432,5068,2,69,67
0.09999999999999432,5068,3,69,29
0.09999999999999432,5068,4,69,36
0.10000000000000853,5068,5,69,44
0.09999999999999432,5068,6,69,39
0.09999999999999432,5068,7,69,83
0.09999999999999432,5068,8,69,27
0.10000000000000853,5068,9,69,114
0.10000000000000853,5068,10,69,39
0.04772727272727195,5068,11,69,86
0.09999999999999432,5068,12,69,72
0.10000000000000853,5068,13,69,54
0.056818181818186986,5068,14,69,86
0.09999999999999432,5068,15,69,119
0.10000000000000853,5069,0,69,50
0.09999999999999432,5069,1,69,65
0.09999999999999432,5069,2,69,99
0.09999999999999432,5069,3,69,107
0.10000000000000853,5069,4,69,112
0.10000000000000853,5069,5,69,78
0.09999999999999432,5069,6,69,69
0.10000000000000853,5069,7,69,101
0.10000000000000853,5069,8,69,35
0.013636363636365445,5069,9,69,69
0.10000000000000853,5069,10,69,103
0.10000000000000853,5069,11,69,68
0.10000000000000853,5069,12,69,23
0.10000000000000853,5069,13,69,37
0.10000000000000853,5069,14,69,114
0.09999999999999432,5069,15,69,119
0.09999999999999432,5070,0,69,65
0.09999999999999432,5070,1,69,65
0.09999999999999432,5070,2,69,92
0.09999999999999432,5070,3,69,110
0.10000000000000853,5070,4,69,46
0.04772727272727195,5070,5,69,81
0.10000000000000853,5070,6,69,105
0.09999999999999432,5070,7,69,58
0.10000000000000853,5070,8,69,66
0.09999999999999432,5070,9,69,37
0.10000000000000853,5070,10,69,93
0.10000000000000853,5070,11,69,73
0.09999999999999432,5070,12,69,119
0.09999999999999432,5070,13,69,66
0.025000000000005684,5070,14,69,48
0.09999999999999432,5070,15,69,72
0.09999999999999432,5071,0,69,61
0.09999999999999432,5071,1,69,37
0.10000000000000853,5071,2,69,19
0.10000000000000853,5071,3,69,39
0.09999999999999432,5071,4,69,61
0.004545454545450411,5071,5,69,86
0.03636363636363171,5071,6,69,65
0.10000000000000853,5071,7,69,81
0.09999999999999432,5071,8,69,62
0.10000000000000853,5071,9,69,35
0.10000000000000853,5071,10,69,59
0.09999999999999432,5071,11,69,85
0.10000000000000853,5071,12,69,26
0.09999999999999432,5071,13,69,42
0.09999999999999432,5071,14,69,95
0.004545454545450411,5071,15,69,65
0.09999999999999432,5072,0,69,71
0.09999999999999432,5072,1,69,112
0.10000000000002274,5072,2,69,70
0.09999999999999432,5072,3,69,36
0.10000000000002274,5072,4,69,111
0.09999999999999432,5072,5,69,81
0.09999999999999432,5072,6,69,17
0.09999999999999432,5072,7,69,43
0.024999999999977263,5072,8,69,95
0.10000000000002274,5072,9,69,112
0.10000000000002274,5072,10,69,32
0.09999999999999432,5072,11,69,35
0.025000000000005684,5072,12,69,81
0.09999999999999432,5072,13,69,92
0.09999999999999432,5072,14,69,53
0.09999999999999432,5072,15,69,65
0.09999999999999432,5073,0,69,70
0.09999999999999432,5073,1,69,84
0.09999999999999432,5073,2,69,50
0.09999999999999432,5073,3,69,52
0.09999999999999432,5073,4,69,44
0.09999999999999432,5073,5,69,98
0.09999999999999432,5073,6,69,17
0.013636363636351234,5073,7,69,61
0.10000000000002274,5073,8,69,25
0.09999999999999432,5073,9,69,72
0.09999999999999432,5073,10,69,63
0.10000000000002274,5073,11,69,69
0.10000000000002274,5073,12,69,54
0.10000000000002274,5073,13,69,46
0.09999999999999432,5073,14,69,87
0.09999999999999432,5073,15,69,63
0.09999999999999432,5074,0,69,19
0.09999999999999432,5074,1,69,49
0.09999999999999432,5074,2,69,55
0.09999999999999432,5074,3,69,79
0.09999999999999432,5074,4,69,74
0.09999999999999432,5074,5,69,19
0.09999999999999432,5074,6,69,36
0.04772727272725774,5074,7,69,61
0.09999999999999432,5074,8,69,11
0.056818181818158564,5074,9,69,69
0.09999999999999432,5074,10,69,38
0.056818181818186986,5074,11,69,60
0.09999999999999432,5074,12,69,67
0.09999999999999432,5074,13,69,72
0.09999999999999432,5074,14,69,6
0.09999999999999432,5074,15,69,39
0.09999999999999432,5075,0,69,77
0.09999999999999432,5075,1,69,98
0.09999999999999432,5075,2,69,20
0.09999999999999432,5075,3,69,80
0.09999999999999432,5075,4,69,48
0.10000000000002274,5075,5,69,33
0.04545454545456096,5075,6,69,80
0.09999999999999432,5075,7,69,46
0.09999999999999432,5075,8,69,82
0.10000000000002274,5075,9,69,35
0.056818181818186986,5075,10,69,47
0.09999999999999432,5075,11,69,38
0.056818181818186986,5075,12,69,57
0.10000000000002274,5075,13,69,11
0.09999999999999432,5075,14,69,107
0.10000000000002274,5075,15,69,98
0.10000000000002274,5076,0,69,24
0.09999999999999432,5076,1,69,8
0.025000000000005684,5076,2,69,63
0.09999999999999432,5076,3,69,67
0.09999999999999432,5076,4,69,48
0.10000000000002274,5076,5,69,39
0.04545454545456096,5076,6,69,73
0.09999999999999432,5076,7,69,75
0.06818181818181301,5076,8,69,90
0.013636363636351234,5076,9,69,73
0.09999999999999432,5076,10,69,98
0.09999999999999432,5076,11,69,31
0.09999999999999432,5076,12,69,83
0.056818181818186986,5076,13,69,102
0.10000000000002274,5076,14,69,46
0.09999999999999432,5076,15,69,71
0.09999999999999432,5077,0,69,56
0.10000000000002274,5077,1,69,32
0.09999999999999432,5077,2,69,55
0.09999999999999432,5077,3,69,47
0.09999999999999432,5077,4,69,74
0.09999999999999432,5077,5,69,109
0.09999999999999432,5077,6,69,20
0.09999999999999432,5077,7,69,26
0.09999999999999432,5077,8,69,23
0.09999999999999432,5077,9,69,44
0.09999999999999432,5077,10,69,44
0.09999999999999432,5077,11,69,68
0.09999999999999432,5077,12,69,108
0.10000000000002274,5077,13,69,33
0.09999999999999432,5077,14,69,29
0.09999999999999432,5077,15,69,115
0.09999999999999432,5078,0,69,41
0.09999999999999432,5078,1,69,117
0.09999999999999432,5078,2,69,34
0.10000000000002274,5078,3,69,36
0.04545454545456096,5078,4,69,74
0.09999999999999432,5078,5,69,48
0.10000000000002274,5078,6,69,57
0.10000000000002274,5078,7,69,74
0.09999999999999432,5078,8,69,70
0.09999999999999432,5078,9,69,8
0.09999999999999432,5078,10,69,52
0.09999999999999432,5078,11,69,47
0.09999999999999432,5078,12,69,58
0.10000000000002274,5078,13,69,30
0.09999999999999432,5078,14,69,51
0.09999999999999432,5078,15,69,96
0.10000000000002274,5079,0,69,36
0.09999999999999432,5079,1,69,47
0.09999999999999432,5079,2,69,26
0.09999999999999432,5079,3,69,33
0.10000000000002274,5079,4,69,52
0.10000000000002274,5079,5,69,102
0.09999999999999432,5079,6,69,50
0.10000000000002274,5079,7,69,63
0.10000000000002274,5079,8,69,89
0.09999999999999432,5079,9,69,58
0.09999999999999432,5079,10,69,23
0.10000000000002274,5079,11,69,34
0.09999999999999432,5079,12,69,43
0.045454545454532536,5079,13,69,95
0.09999999999999432,5079,14,69,107
0.09999999999999432,5079,15,69,65
0.09999999999999432,5080,0,69,100
0.10000000000002274,5080,1,69,50
0.09999999999999432,5080,2,69,65
0.09999999999999432,5080,3,69,60
0.09999999999999432,5080,4,69,45
0.10000000000002274,5080,5,69,39
0.09999999999999432,5080,6,69,56
0.09999999999999432,5080,7,69,2
0.09999999999999432,5080,8,69,18
0.056818181818186986,5080,9,69,36
0.09999999999999432,5080,10,69,72
0.09999999999999432,5080,11,69,15
0.09999999999999432,5080,12,69,75
0.09999999999999432,5080,13,69,95
0.09999999999999432,5080,14,69,109
0.09999999999999432,5080,15,69,81
0.09999999999999432,5081,0,69,55
0.09999999999999432,5081,1,69,55
0.09999999999999432,5081,2,69,34
0.09999999999999432,5081,3,69,78
0.09999999999999432,5081,4,69,84
0.10000000000002274,5081,5,69,15
0.09999999999999432,5081,6,69,51
0.10000000000002274,5081,7,69,70
0.09999999999999432,5081,8,69,24
0.09999999999999432,5081,9,69,85
0.09999999999999432,5081,10,69,74
0.09999999999999432,5081,11,69,12
0.09999999999999432,5081,12,69,33
0.09999999999999432,5081,13,69,68
0.09999999999999432,5081,14,69,42
0.10000000000002274,5081,15,69,63
0.09999999999999432,5082,0,69,76
0.09999999999999432,5082,1,69,52
0.09999999999999432,5082,2,69,87
0.10000000000002274,5082,3,69,62
0.09999999999999432,5082,4,69,103
0.09999999999999432,5082,5,69,79
0.09999999999999432,5082,6,69,29
0.09999999999999432,5082,7,69,35
0.09999999999999432,5082,8,69,64
0.09999999999999432,5082,9,69,76
0.09999999999999432,5082,10,69,62
0.09999999999999432,5082,11,69,73
0.09999999999999432,5082,12,69,53
0.09999999999999432,5082,13,69,102
0.09999999999999432,5082,14,69,35
0.09999999999999432,5082,15,69,93
0.09999999999999432,5083,0,69,75
0.09999999999999432,5083,1,69,119
0.09999999999999432,5083,2,69,28
0.09999999999999432,5083,3,69,43
0.09999999999999432,5083,4,69,56
0.09999999999999432,5083,5,69,42
0.004545454545450411,5083,6,69,55
0.10000000000002274,5083,7,69,62
0.09999999999999432,5083,8,69,32
0.09999999999999432,5083,9,69,46
0.09999999999999432,5083,10,69,47
0.09999999999999432,5083,11,69,26
0.025000000000005684,5083,12,69,66
0.09999999999999432,5083,13,69,29
0.09999999999999432,5083,14,69,61
0.09999999999999432,5083,15,69,81
0.09999999999999432,5084,0,69,39
0.09999999999999432,5084,1,69,74
0.10000000000002274,5084,2,69,95
0.09999999999999432,5084,3,69,42
0.10000000000002274,5084,4,69,74
0.09999999999999432,5084,5,69,76
0.09999999999999432,5084,6,69,84
0.10000000000002274,5084,7,69,46
0.09999999999999432,5084,8,69,27
0.10000000000002274,5084,9,69,37
0.036363636363660135,5084,10,69,84
0.09999999999999432,5084,11,69,111
0.09999999999999432,5084,12,69,95
0.09999999999999432,5084,13,69,55
0.09999999999999432,5084,14,69,38
0.09999999999999432,5084,15,69,31
0.09999999999999432,5085,0,69,46
0.09999999999999432,5085,1,69,102
0.09999999999999432,5085,2,69,30
0.09999999999999432,5085,3,69,42
0.09999999999999432,5085,4,69,45
0.09999999999999432,5085,5,69,125
0.10000000000002274,5085,6,69,111
0.09999999999999432,5085,7,69,46
0.10000000000002274,5085,8,69,45
0.09999999999999432,5085,9,69,26
0.09999999999999432,5085,10,69,45
0.004545454545450411,5085,11,69,93
0.09999999999999432,5085,12,69,127
0.09999999999999432,5085,13,69,114
0.09999999999999432,5085,14,69,100
0.10000000000002274,5085,15,69,67
0.09999999999999432,5086,0,69,46
0.09999999999999432,5086,1,69,42
0.09999999999999432,5086,2,69,29
0.09999999999999432,5086,3,69,75
0.09999999999999432,5086,4,69,43
0.09999999999999432,5086,5,69,86
0.09999999999999432,5086,6,69,40
0.10000000000002274,5086,7,69,106
0.09999999999999432,5086,8,69,96
0.09999999999999432,5086,9,69,74
0.09999999999999432,5086,10,69,61
0.09999999999999432,5086,11,69,27
0.09999999999999432,5086,12,69,44
0.09999999999999432,5086,13,69,26
0.09999999999999432,5086,14,69,88
0.10000000000002274,5086,15,69,65
0.09999999999999432,5087,0,69,124
0.09999999999999432,5087,1,69,60
0.09999999999999432,5087,2,69,44
0.056818181818158564,5087,3,69,75
0.10000000000002274,5087,4,69,42
0.09999999999999432,5087,5,69,26
0.09999999999999432,5087,6,69,90
0.09999999999999432,5087,7,69,38
0.004545454545450411,5087,8,69,64
0.10000000000002274,5087,9,69,48
0.10000000000002274,5087,10,69,32
0.09999999999999432,5087,11,69,84
0.10000000000002274,5087,12,69,107
0.10000000000002274,5087,13,69,51
0.09999999999999432,5087,14,69,22
0.09999999999999432,5087,15,69,33
0.09999999999999432,5088,0,69,48
0.10000000000002274,5088,1,69,25
0.10000000000002274,5088,2,69,89
0.09999999999999432,5088,3,69,103
0.09999999999999432,5088,4,69,41
0.09999999999999432,5088,5,69,45
0.06818181818181301,5088,6,69,59
0.09999999999999432,5088,7,69,17
0.10000000000000142,5088,8,54,6
0.10000000000000142,5088,9,54,15
0.02499999999999858,5088,10,54,19
0.09999999999999432,5088,11,54,27
0.10000000000000142,5088,12,54,42
0.09999999999999432,5088,13,54,30
0.10000000000000142,5088,14,54,28
0.10000000000000142,5088,15,54,38
0.09999999999999432,5089,0,54,43
0.09999999999999432,5089,1,54,33
0.10000000000000142,5089,2,54,41
0.10000000000000142,5089,3,54,62
0.09999999999999432,5089,4,54,42
0.10000000000000142,5089,5,54,35
0.10000000000000142,5089,6,54,25
0.10000000000000142,5089,7,54,13
0.10000000000000142,5089,8,54,19
0.10000000000000142,5089,9,54,22
0.10000000000000142,5089,10,54,26
0.10000000000000142,5089,11,54,21
0.10000000000000142,5089,12,54,20
0.10000000000000142,5089,13,54,36
0.10000000000000142,5089,14,54,27
0.10000000000000142,5089,15,54,22
0.10000000000000142,5090,0,54,31
0.10000000000000142,5090,1,54,35
0.10000000000000142,5090,2,54,44
0.10000000000000142,5090,3,54,49
0.10000000000000142,5090,4,54,43
0.10000000000000142,5090,5,54,33
0.10000000000000142,5090,6,54,28
0.10000000000000142,5090,7,54,34
0.09999999999999432,5090,8,54,39
0.10000000000000142,5090,9,54,41
0.10000000000000142,5090,10,54,37
0.10000000000000142,5090,11,54,28
0.10000000000000142,5090,12,54,34
0.10000000000000142,5090,13,54,26
0.09999999999999432,5090,14,54,28
0.10000000000000142,5090,15,54,26
0.10000000000000142,5091,0,54,42
0.10000000000000142,5091,1,54,38
0.10000000000000142,5091,2,54,30
0.09999999999999432,5091,3,54,31
0.09999999999999432,5091,4,54,33
0.10000000000000142,5091,5,54,40
0.10000000000000142,5091,6,54,16
0.10000000000000142,5091,7,54,68
0.10000000000000142,5091,8,54,49
0.10000000000000142,5091,9,54,42
0.10000000000000142,5091,10,54,68
0.10000000000000853,5091,11,54,48
0.09999999999999432,5091,12,54,38
0.09999999999999432,5091,13,54,52
0.10000000000000853,5091,14,54,29
0.09999999999999432,5091,15,54,72
0.09999999999999432,5092,0,54,40
0.10000000000000853,5092,1,54,30
0.09999999999999432,5092,2,54,43
0.09999999999999432,5092,3,54,37
0.09999999999999432,5092,4,54,71
0.10000000000000853,5092,5,54,40
0.10000000000000853,5092,6,54,40
0.10000000000000853,5092,7,54,43
0.10000000000000853,5092,8,54,70
0.09999999999999432,5092,9,54,77
0.10000000000000853,5092,10,54,40
0.09999999999999432,5092,11,54,61
0.09999999999999432,5092,12,54,66
0.09999999999999432,5092,13,54,36
0.10000000000000853,5092,14,54,71
0.10000000000000853,5092,15,54,55
0.09999999999999432,5093,0,54,51
0.10000000000000853,5093,1,54,83
0.09999999999999432,5093,2,54,75
0.09999999999999432,5093,3,54,47
0.10000000000000853,5093,4,54,45
0.09999999999999432,5093,5,54,61
0.10000000000000853,5093,6,54,57
0.10000000000000853,5093,7,54,56
0.10000000000000853,5093,8,54,90
0.10000000000000853,5093,9,54,79
0.09999999999999432,5093,10,54,79
0.10000000000000853,5093,11,54,76
0.09999999999999432,5093,12,54,65
0.10000000000000853,5093,13,54,78
0.09999999999999432,5093,14,54,55
0.06818181818181301,5093,15,54,56
0.09999999999999432,5094,0,54,81
0.10000000000000853,5094,1,54,78
0.09999999999999432,5094,2,54,75
0.09999999999999432,5094,3,54,53
0.10000000000000853,5094,4,54,34
0.09999999999999432,5094,5,54,50
0.10000000000000853,5094,6,54,54
0.10000000000000853,5094,7,54,32
0.09999999999999432,5094,8,54,59
0.09999999999999432,5094,9,54,56
0.10000000000000853,5094,10,54,48
0.06818181818182723,5094,11,54,53
0.10000000000000853,5094,12,54,78
0.09999999999999432,5094,13,54,78
0.10000000000000853,5094,14,54,50
0.10000000000000853,5094,15,54,70
0.10000000000000853,5095,0,54,73
0.10000000000000853,5095,1,54,70
0.10000000000000853,5095,2,54,45
0.10000000000000853,5095,3,54,48
0.10000000000000853,5095,4,54,34
0.10000000000000853,5095,5,54,61
0.10000000000000853,5095,6,54,41
0.09999999999999432,5095,7,54,74
0.09999999999999432,5095,8,54,86
0.09999999999999432,5095,9,54,34
0.09999999999999432,5095,10,54,68
0.013636363636365445,5095,11,54,54
0.09999999999999432,5095,12,54,71
0.10000000000000853,5095,13,54,64
0.06818181818181301,5095,14,54,63
0.09999999999999432,5095,15,54,68
0.09999999999999432,5096,0,54,66
0.06818181818181301,5096,1,54,64
0.09999999999999432,5096,2,54,56
0.10000000000000853,5096,3,54,46
0.09999999999999432,5096,4,54,31
0.03636363636363171,5096,5,54,46
0.09999999999999432,5096,6,54,58
0.10000000000000853,5096,7,54,45
0.09999999999999432,5096,8,54,62
0.09999999999999432,5096,9,54,55
0.10000000000000853,5096,10,54,47
0.09999999999999432,5096,11,54,52
0.09999999999999432,5096,12,54,32
0.09999999999999432,5096,13,54,69
0.10000000000000853,5096,14,54,59
0.09999999999999432,5096,15,54,50
0.10000000000000853,5097,0,54,47
0.10000000000000853,5097,1,54,85
0.09999999999999432,5097,2,54,69
0.09999999999999432,5097,3,54,71
0.09999999999999432,5097,4,54,56
0.10000000000000853,5097,5,54,76
0.10000000000000853,5097,6,54,61
0.09999999999999432,5097,7,54,40
0.09999999999999432,5097,8,54,37
0.09999999999999432,5097,9,54,44
0.09999999999999432,5097,10,54,60
0.09999999999999432,5097,11,54,37
0.09999999999999432,5097,12,54,31
0.09999999999999432,5097,13,54,31
0.09999999999999432,5097,14,54,24
0.10000000000002274,5097,15,54,12
0.09999999999999432,5098,0,54,36
0.09999999999999432,5098,1,54,17
0.09999999999999432,5098,2,54,42
0.09999999999999432,5098,3,54,60
0.10000000000002274,5098,4,54,29
0.09999999999999432,5098,5,54,30
0.10000000000002274,5098,6,54,33
0.09999999999999432,5098,7,54,45
0.10000000000002274,5098,8,54,17
0.10000000000002274,5098,9,54,30
0.09999999999999432,5098,10,54,61
0.09999999999999432,5098,11,54,85
0.09999999999999432,5098,12,54,54
0.09999999999999432,5098,13,54,72
0.09999999999999432,5098,14,54,67
0.09999999999999432,5098,15,54,64
0.10000000000002274,5099,0,54,74
0.09999999999999432,5099,1,54,53
0.09999999999999432,5099,2,54,62
0.09999999999999432,5099,3,54,50
0.09999999999999432,5099,4,54,64
0.10000000000002274,5099,5,54,66
0.09999999999999432,5099,6,54,69
0.09999999999999432,5099,7,54,77
0.09999999999999432,5099,8,54,83
0.09999999999999432,5099,9,54,43
0.09999999999999432,5099,10,54,57
0.09999999999999432,5099,11,54,73
0.09999999999999432,5099,12,54,67
0.09999999999999432,5099,13,54,35
0.09999999999999432,5099,14,54,58
0.09999999999999432,5099,15,54,46
0.10000000000002274,5100,0,54,73
0.09999999999999432,5100,1,54,64
0.09999999999999432,5100,2,54,62
0.09999999999999432,5100,3,54,44
0.09999999999999432,5100,4,54,50
0.09999999999999432,5100,5,54,35
0.09999999999999432,5100,6,54,53
0.10000000000002274,5100,7,54,49
0.10000000000002274,5100,8,54,60
0.09999999999999432,5100,9,54,62
0.09999999999999432,5100,10,54,50
0.10000000000000142,5100,11,93,2
0.09999999999999432,5100,12,93,3
0.10000000000000142,5100,13,93,4
0.10000000000000142,5100,14,93,3
0.10000000000000142,5100,15,93,3
0.09999999999999432,5101,0,93,4
0.10000000000000142,5101,1,93,3
0.10000000000000142,5101,2,93,2
0.10000000000000142,5101,3,93,4
0.10000000000000142,5101,4,93,3
0.10000000000000142,5101,5,93,4
0.10000000000000142,5101,6,93,4
0.09999999999999432,5101,7,93,4
0.10000000000000142,5101,8,93,4
0.10000000000000142,5101,9,93,3
0.10000000000000142,5101,10,93,3
0.10000000000000142,5101,11,93,3
0.10000000000000142,5101,12,93,2
0.10000000000000142,5101,13,93,3
0.09999999999999432,5101,14,93,2
0.10000000000000142,5101,15,93,2
0.10000000000000142,5102,0,93,4
0.10000000000000142,5102,1,93,2
0.09999999999999432,5102,2,93,3
0.10000000000000142,5102,3,93,2
0.10000000000000142,5102,4,93,4
0.10000000000000142,5102,5,93,3
0.09999999999999432,5102,6,93,3
0.10000000000000142,5102,7,93,5
0.10000000000000142,5102,8,93,3
0.10000000000000142,5102,9,93,3
0.10000000000000142,5102,10,93,2
0.10000000000000142,5102,11,93,4
0.10000000000000142,5102,12,93,1
0.10000000000000142,5102,13,93,2
0.10000000000000142,5102,14,93,3
0.10000000000000142,5102,15,93,4
0.10000000000000142,5103,0,93,2
0.09999999999999432,5103,1,93,3
0.09999999999999432,5103,2,93,3
0.10000000000000142,5103,3,93,4
0.10000000000000142,5103,4,93,4
0.09999999999999432,5103,5,93,1
0.09999999999999432,5103,6,93,4
0.10000000000000142,5103,7,93,3
0.09999999999999432,5103,8,93,3
0.09999999999999432,5103,9,93,3
0.10000000000000142,5103,10,93,3
0.09999999999999432,5103,11,93,3
0.10000000000000142,5103,12,93,3
0.09999999999999432,5103,13,93,3
0.10000000000000142,5103,14,93,3
0.09999999999999432,5103,15,93,2
0.10000000000000142,5104,0,93,97
0.10000000000000142,5104,1,93,3
0.10000000000000142,5104,2,93,25
0.09999999999999432,5104,3,93,1
0.10000000000000142,5104,4,93,47
0.10000000000000142,5104,5,93,87
0.10000000000000142,5104,6,93,1
0.10000000000000142,5104,7,93,21
0.10000000000000142,5104,8,93,1
0.09999999999999432,5104,9,93,1
0.10000000000000142,5104,10,93,1
0.10000000000000142,5104,11,93,67
0.10000000000000142,5104,12,93,2
0.10000000000000142,5104,13,93,1
0.10000000000000142,5104,14,93,25
0.10000000000000142,5104,15,93,1
0.10000000000000142,5105,0,93,47
0.10000000000000142,5105,1,93,85
0.10000000000000142,5105,2,93,1
0.10000000000000142,5105,3,93,1
0.10000000000000142,5105,4,93,23
0.09999999999999432,5105,5,93,1
0.09999999999999432,5105,6,93,1
0.09999999999999432,5105,7,93,89
0.09999999999999432,5105,8,93,1
0.09999999999999432,5105,9,93,1
0.09999999999999432,5105,10,93,22
0.10000000000000853,5105,11,93,39
0.09999999999999432,5105,12,93,87
0.09999999999999432,5105,13,93,1
0.10000000000000853,5105,14,93,21
0.09999999999999432,5105,15,93,1
0.10000000000000853,5106,0,93,86
0.09999999999999432,5106,1,93,1
0.09999999999999432,5106,2,93,1
0.09999999999999432,5106,3,93,24
0.09999999999999432,5106,4,93,1
0.10000000000000853,5106,5,93,38
0.09999999999999432,5106,6,93,84
0.09999999999999432,5106,7,93,2
0.09999999999999432,5106,8,93,1
0.10000000000000853,5106,9,93,1
0.09999999999999432,5106,10,93,9
0.09999999999999432,5106,11,93,1
0.10000000000000853,5106,12,93,1
0.10000000000000853,5106,13,93,86
0.10000000000000853,5106,14,93,1
0.09999999999999432,5106,15,93,1
0.09999999999999432,5107,0,93,21
0.09999999999999432,5107,1,93,1
0.09999999999999432,5107,2,93,37
0.09999999999999432,5107,3,93,82
0.09999999999999432,5107,4,93,1
0.10000000000000853,5107,5,93,1
0.09999999999999432,5107,6,93,23
0.09999999999999432,5107,7,93,1
0.10000000000000853,5107,8,93,1
0.10000000000000853,5107,9,93,86
0.09999999999999432,5107,10,93,1
0.09999999999999432,5107,11,93,1
0.10000000000000853,5107,12,93,24
0.09999999999999432,5107,13,93,1
0.09999999999999432,5107,14,93,38
0.09999999999999432,5107,15,93,82
0.10000000000000853,5108,0,93,1
0.10000000000000853,5108,1,93,1
0.09999999999999432,5108,2,93,21
0.09999999999999432,5108,3,93,1
0.09999999999999432,5108,4,93,1
0.10000000000000853,5108,5,93,88
0.10000000000000853,5108,6,93,1
0.09999999999999432,5108,7,93,27
0.10000000000000853,5108,8,93,1
0.09999999999999432,5108,9,93,32
0.09999999999999432,5108,10,93,79
0.10000000000000853,5108,11,93,1
0.10000000000000853,5108,12,93,1
0.09999999999999432,5108,13,93,22
0.09999999999999432,5108,14,93,1
0.09999999999999432,5108,15,93,1
0.10000000000000853,5109,0,93,81
0.10000000000000853,5109,1,93,1
0.09999999999999432,5109,2,93,1
0.09999999999999432,5109,3,93,23
0.10000000000000853,5109,4,93,1
0.09999999999999432,5109,5,93,1
0.09999999999999432,5109,6,93,1
0.09999999999999432,5109,7,93,126
0.09999999999999432,5109,8,93,109
0.10000000000000853,5109,9,93,72
0.09999999999999432,5109,10,93,118
0.10000000000000853,5109,11,93,114
0.10000000000000853,5109,12,93,106
0.09999999999999432,5109,13,93,55
0.10000000000000853,5109,14,93,86
0.10000000000000853,5109,15,93,2
0.09999999999999432,5110,0,93,99
0.09999999999999432,5110,1,93,2
0.09999999999999432,5110,2,93,93
0.10000000000000853,5110,3,93,3
0.10000000000000853,5110,4,93,95
0.10000000000000853,5110,5,93,2
0.09999999999999432,5110,6,93,62
0.10000000000000853,5110,7,93,84
0.09999999999999432,5110,8,93,88
0.09999999999999432,5110,9,93,2
0.09999999999999432,5110,10,93,92
0.10000000000000853,5110,11,93,2
0.09999999999999432,5110,12,93,90
0.09999999999999432,5110,13,93,3
0.10000000000000853,5110,14,93,123
0.09999999999999432,5110,15,93,2
0.09999999999999432,5111,0,93,54
0.10000000000000853,5111,1,93,85
0.10000000000000853,5111,2,93,3
0.09999999999999432,5111,3,93,87
0.10000000000000853,5111,4,93,2
0.09999999999999432,5111,5,93,98
0.09999999999999432,5111,6,93,2
0.09999999999999432,5111,7,93,91
0.09999999999999432,5111,8,93,2
0.09999999999999432,5111,9,93,54
0.10000000000000853,5111,10,93,92
0.10000000000000853,5111,11,93,84
0.09999999999999432,5111,12,93,84
0.10000000000000853,5111,13,93,2
0.09999999999999432,5111,14,93,98
0.09999999999999432,5111,15,93,3
0.10000000000000853,5112,0,93,89
0.09999999999999432,5112,1,93,2
0.09999999999999432,5112,2,93,57
0.10000000000000853,5112,3,93,89
0.10000000000000853,5112,4,93,2
0.09999999999999432,5112,5,93,92
0.10000000000000853,5112,6,93,2
0.09999999999999432,5112,7,93,96
0.09999999999999432,5112,8,93,3
0.10000000000000853,5112,9,93,90
0.09999999999999432,5112,10,93,2
0.10000000000000853,5112,11,93,56
0.10000000000000853,5112,12,93,88
0.10000000000000853,5112,13,93,81
0.09999999999999432,5112,14,93,89
0.10000000000000853,5112,15,93,2
0.09999999999999432,5113,0,93,102
0.09999999999999432,5113,1,93,3
0.09999999999999432,5113,2,93,95
0.09999999999999432,5113,3,93,2
0.10000000000000853,5113,4,93,58
0.10000000000000853,5113,5,93,88
0.10000000000000853,5113,6,93,2
0.10000000000000853,5113,7,93,89
0.09999999999999432,5113,8,93,2
0.09999999999999432,5113,9,93,96
0.09999999999999432,5113,10,93,3
0.09999999999999432,5113,11,93,84
0.09999999999999432,5113,12,93,2
0.10000000000000853,5113,13,93,59
0.09999999999999432,5113,14,93,105
0.10000000000000853,5113,15,93,100
0.10000000000000853,5114,0,93,84
0.09999999999999432,5114,1,93,33
0.09999999999999432,5114,2,93,84
0.10000000000000853,5114,3,93,101
0.09999999999999432,5114,4,93,93
0.09999999999999432,5114,5,93,85
0.09999999999999432,5114,6,93,100
0.09999999999999432,5114,7,93,2
0.09999999999999432,5114,8,93,90
0.09999999999999432,5114,9,93,2
0.09999999999999432,5114,10,93,99
0.09999999999999432,5114,11,93,2
0.09999999999999432,5114,12,93,91
0.10000000000000853,5114,13,93,2
0.10000000000000853,5114,14,93,61
0.09999999999999432,5114,15,93,99
0.09999999999999432,5115,0,93,2
0.10000000000000853,5115,1,93,94
0.09999999999999432,5115,2,93,2
0.09999999999999432,5115,3,93,83
0.09999999999999432,5115,4,93,2
0.09999999999999432,5115,5,93,88
0.09999999999999432,5115,6,93,2
0.10000000000000853,5115,7,93,75
0.09999999999999432,5115,8,93,95
0.09999999999999432,5115,9,93,2
0.10000000000000853,5115,10,93,82
0.09999999999999432,5115,11,93,2
0.10000000000000853,5115,12,93,95
0.09999999999999432,5115,13,93,2
0.09999999999999432,5115,14,93,86
0.09999999999999432,5115,15,93,1
0.10000000000000853,5116,0,93,68
0.09999999999999432,5116,1,93,99
0.10000000000000853,5116,2,93,81
0.10000000000000853,5116,3,93,83
0.10000000000000853,5116,4,93,2
0.10000000000000853,5116,5,93,97
0.10000000000000853,5116,6,93,2
0.09999999999999432,5116,7,93,78
0.09999999999999432,5116,8,93,2
0.09999999999999432,5116,9,93,56
0.09999999999999432,5116,10,93,93
0.09999999999999432,5116,11,93,2
0.10000000000000853,5116,12,93,92
0.09999999999999432,5116,13,93,3
0.10000000000000853,5116,14,93,85
0.10000000000000853,5116,15,93,3
0.09999999999999432,5117,0,93,99
0.10000000000000853,5117,1,93,1
0.09999999999999432,5117,2,93,70
0.09999999999999432,5117,3,93,91
0.09999999999999432,5117,4,93,113
0.09999999999999432,5117,5,93,79
0.09999999999999432,5117,6,93,3
0.10000000000000853,5117,7,93,80
0.10000000000000853,5117,8,93,3
0.09999999999999432,5117,9,93,101
0.10000000000000853,5117,10,93,3
0.09999999999999432,5117,11,93,60
0.09999999999999432,5117,12,93,87
0.09999999999999432,5117,13,93,3
0.10000000000000853,5117,14,93,66
0.09999999999999432,5117,15,93,3
0.10000000000000853,5118,0,93,71
0.09999999999999432,5118,1,93,3
0.09999999999999432,5118,2,93,100
0.10000000000000853,5118,3,93,3
0.09999999999999432,5118,4,93,58
0.09999999999999432,5118,5,93,87
0.09999999999999432,5118,6,93,113
0.09999999999999432,5118,7,93,104
0.09999999999999432,5118,8,93,114
0.09999999999999432,5118,9,93,3
0.10000000000002274,5118,10,93,73
0.09999999999999432,5118,11,93,77
0.09999999999999432,5118,12,93,91
0.09999999999999432,5118,13,93,68
0.09999999999999432,5118,14,93,104
0.09999999999999432,5118,15,93,118
0.09999999999999432,5119,0,93,77
0.10000000000002274,5119,1,93,4
0.09999999999999432,5119,2,93,80
0.09999999999999432,5119,3,93,123
0.09999999999999432,5119,4,93,110
0.09999999999999432,5119,5,93,84
0.09999999999999432,5119,6,93,2
0.09999999999999432,5119,7,93,109
0.10000000000002274,5119,8,93,2
0.09999999999999432,5119,9,93,90
0.09999999999999432,5119,10,93,2
0.09999999999999432,5119,11,93,75
0.09999999999999432,5119,12,93,120
0.09999999999999432,5119,13,93,115
0.09999999999999432,5119,14,93,78
0.09999999999999432,5119,15,93,103
0.09999999999999432,5120,0,93,2
0.10000000000002274,5120,1,93,123
0.10000000000002274,5120,2,93,2
0.09999999999999432,5120,3,93,97
0.09999999999999432,5120,4,93,2
0.10000000000002274,5120,5,93,74
0.09999999999999432,5120,6,93,113
0.09999999999999432,5120,7,93,112
0.09999999999999432,5120,8,93,104
0.09999999999999432,5120,9,93,3
0.09999999999999432,5120,10,93,124
0.09999999999999432,5120,11,93,2
0.09999999999999432,5120,12,93,84
0.10000000000002274,5120,13,93,2
0.09999999999999432,5120,14,93,75
0.09999999999999432,5120,15,93,108
0.09999999999999432,5121,0,93,106
0.09999999999999432,5121,1,93,85
0.10000000000002274,5121,2,93,110
0.09999999999999432,5121,3,93,2
0.09999999999999432,5121,4,93,123
0.09999999999999432,5121,5,93,85
0.09999999999999432,5121,6,93,3
0.09999999999999432,5121,7,93,73
0.10000000000002274,5121,8,93,104
0.09999999999999432,5121,9,93,112
0.09999999999999432,5121,10,93,101
0.09999999999999432,5121,11,93,2
0.09999999999999432,5121,12,93,100
0.09999999999999432,5121,13,93,2
0.10000000000002274,5121,14,93,85
0.10000000000002274,5121,15,93,2
0.09999999999999432,5122,0,93,76
0.09999999999999432,5122,1,93,105
0.09999999999999432,5122,2,93,110
0.09999999999999432,5122,3,93,93
0.10000000000002274,5122,4,93,105
0.09999999999999432,5122,5,93,2
0.09999999999999432,5122,6,93,116
0.09999999999999432,5122,7,93,2
0.09999999999999432,5122,8,93,95
0.09999999999999432,5122,9,93,1
0.09999999999999432,5122,10,93,78
0.09999999999999432,5122,11,93,114
0.10000000000002274,5122,12,93,112
0.09999999999999432,5122,13,93,91
0.09999999999999432,5122,14,93,3
0.09999999999999432,5122,15,93,119
0.09999999999999432,5123,0,93,2
0.09999999999999432,5123,1,93,103
0.10000000000002274,5123,2,93,101
0.10000000000002274,5123,3,93,2
0.09999999999999432,5123,4,93,73
0.09999999999999432,5123,5,93,108
0.09999999999999432,5123,6,93,11
0.09999999999999432,5123,7,93,106
0.09999999999999432,5123,8,93,34
0.09999999999999432,5123,9,93,44
0.09999999999999432,5123,10,93,94
0.09999999999999432,5123,11,93,127
0.09999999999999432,5123,12,93,117
0.10000000000002274,5123,13,93,77
0.09999999999999432,5123,14,93,4
0.09999999999999432,5123,15,93,85
0.09999999999999432,5124,0,93,114
0.09999999999999432,5124,1,93,100
0.09999999999999432,5124,2,93,86
0.09999999999999432,5124,3,93,2
0.09999999999999432,5124,4,93,113
0.09999999999999432,5124,5,93,1
0.09999999999999432,5124,6,93,78
0.09999999999999432,5124,7,93,2
0.09999999999999432,5124,8,93,42
0.10000000000002274,5124,9,93,80
0.09999999999999432,5124,10,93,71
0.09999999999999432,5124,11,93,29
0.09999999999999432,5124,12,93,2
0.09999999999999432,5124,13,93,73
0.09999999999999432,5124,14,93,2
0.09999999999999432,5124,15,93,54
0.09999999999999432,5125,0,93,2
0.09999999999999432,5125,1,93,47
0.09999999999999432,5125,2,93,66
0.09999999999999432,5125,3,93,68
0.09999999999999432,5125,4,93,70
0.10000000000002274,5125,5,93,3
0.09999999999999432,5125,6,93,81
0.09999999999999432,5125,7,93,1
0.09999999999999432,5125,8,93,73
0.09999999999999432,5125,9,93,3
0.09999999999999432,5125,10,93,48
0.09999999999999432,5125,11,93,79
0.09999999999999432,5125,12,93,68
0.10000000000002274,5125,13,93,74
0.09999999999999432,5125,14,93,50
0.09999999999999432,5125,15,93,88
0.09999999999999432,5126,0,93,54
0.09999999999999432,5126,1,93,70
0.09999999999999432,5126,2,93,81
0.09999999999999432,5126,3,93,74
0.09999999999999432,5126,4,93,3
0.10000000000002274,5126,5,93,44
0.10000000000002274,5126,6,93,59
0.09999999999999432,5126,7,93,78
0.09999999999999432,5126,8,93,68
0.09999999999999432,5126,9,93,2
0.09999999999999432,5126,10,93,81
0.09999999999999432,5126,11,93,2
0.09999999999999432,5126,12,93,79
0.09999999999999432,5126,13,93,2
0.09999999999999432,5126,14,93,53
0.09999999999999432,5126,15,93,76
0.09999999999999432,5127,0,93,84
0.10000000000002274,5127,1,93,68
0.10000000000002274,5127,2,93,2
0.09999999999999432,5127,3,93,83
0.09999999999999432,5127,4,93,2
0.09999999999999432,5127,5,93,81
0.09999999999999432,5127,6,93,2
0.09999999999999432,5127,7,93,51
0.09999999999999432,5127,8,93,73
0.09999999999999432,5127,9,93,79
0.09999999999999432,5127,10,93,76
0.09999999999999432,5127,11,93,5
0.09999999999999432,5127,12,93,90
0.09999999999999432,5127,13,62,1
0.09999999999999432,5127,14,62,1
0.09999999999999432,5127,15,62,9
0.09999999999999432,5128,0,62,32
0.10000000000000853,5128,1,62,16
0.10000000000000853,5128,2,62,20
0.10000000000000853,5128,3,62,23
0.10000000000000853,5128,4,62,37
0.10000000000000853,5128,5,62,25
0.09999999999999432,5128,6,62,30
0.10000000000000853,5128,7,62,30
0.09999999999999432,5128,8,62,24
0.10000000000000853,5128,9,62,15
0.10000000000000853,5128,10,62,13
0.09999999999999432,5128,11,62,15
0.09999999999999432,5128,12,62,14
0.10000000000000853,5128,13,62,19
0.09999999999999432,5128,14,62,16
0.09999999999999432,5128,15,62,23
0.09999999999999432,5129,0,62,41
0.09999999999999432,5129,1,62,33
0.09999999999999432,5129,2,62,30
0.09999999999999432,5129,3,62,23
0.09999999999999432,5129,4,62,31
0.10000000000000853,5129,5,62,47
0.09999999999999432,5129,6,62,30
0.10000000000000853,5129,7,62,25
0.10000000000000853,5129,8,62,25
0.09999999999999432,5129,9,62,22
0.10000000000000853,5129,10,62,26
0.10000000000000853,5129,11,62,24
0.09999999999999432,5129,12,62,26
0.09999999999999432,5129,13,62,22
0.10000000000000853,5129,14,62,15
0.10000000000000853,5129,15,62,19
0.09999999999999432,5130,0,62,21
0.09999999999999432,5130,1,62,24
0.10000000000000853,5130,2,62,13
0.10000000000000853,5130,3,62,16
0.09999999999999432,5130,4,62,32
0.09999999999999432,5130,5,62,24
0.09999999999999432,5130,6,62,20
0.09999999999999432,5130,7,62,18
0.10000000000000853,5130,8,62,18
0.09999999999999432,5130,9,62,34
0.10000000000000853,5130,10,62,37
0.09999999999999432,5130,11,62,37
0.09999999999999432,5130,12,62,38
0.10000000000000853,5130,13,62,33
0.09999999999999432,5130,14,62,41
0.09999999999999432,5130,15,62,34
0.09999999999999432,5131,0,62,41
0.10000000000000853,5131,1,62,41
0.09999999999999432,5131,2,62,35
0.10000000000000853,5131,3,62,35
0.10000000000000853,5131,4,62,33
0.09999999999999432,5131,5,62,43
0.09999999999999432,5131,6,62,47
0.09999999999999432,5131,7,62,40
0.09999999999999432,5131,8,62,15
0.09999999999999432,5131,9,62,22
0.09999999999999432,5131,10,62,23
0.10000000000000853,5131,11,62,28
0.10000000000000853,5131,12,62,55
0.10000000000000853,5131,13,62,51
0.09999999999999432,5131,14,62,32
0.10000000000000853,5131,15,62,30
0.09999999999999432,5132,0,62,26
0.09999999999999432,5132,1,62,28
0.10000000000000853,5132,2,62,22
0.10000000000000853,5132,3,62,15
0.09999999999999432,5132,4,62,29
0.10000000000000853,5132,5,62,20
0.10000000000000853,5132,6,62,33
0.09999999999999432,5132,7,62,40
0.10000000000000853,5132,8,62,30
0.10000000000000853,5132,9,62,29
0.09999999999999432,5132,10,62,25
0.09999999999999432,5132,11,62,25
0.10000000000000853,5132,12,62,28
0.09999999999999432,5132,13,62,33
0.09999999999999432,5132,14,62,38
0.10000000000000853,5132,15,62,30
0.09999999999999432,5133,0,62,29
0.09999999999999432,5133,1,62,32
0.09999999999999432,5133,2,62,24
0.09999999999999432,5133,3,62,34
0.09999999999999432,5133,4,62,30
0.09999999999999432,5133,5,62,40
0.10000000000000853,5133,6,62,51
0.09999999999999432,5133,7,62,31
0.09999999999999432,5133,8,62,29
0.09999999999999432,5133,9,62,29
0.1,5133,10,70,15
0.09999999999999998,5133,11,70,15
0.10000000000000009,5133,12,70,22
0.09999999999999987,5133,13,70,24
0.10000000000000009,5133,14,70,22
0.09999999999999964,5133,15,70,19
0.10000000000000053,5134,0,70,21
0.09999999999999964,5134,1,70,19
0.09999999999999964,5134,2,70,21
0.10000000000000053,5134,3,70,23
0.09999999999999964,5134,4,70,10
0.10000000000000053,5134,5,70,18
0.09999999999999964,5134,6,70,14
0.09999999999999964,5134,7,70,15
0.09999999999999964,5134,8,70,18
0.09999999999999964,5134,9,70,23
0.09999999999999964,5134,10,70,24
0.09999999999999964,5134,11,70,25
0.10000000000000142,5134,12,70,15
0.09999999999999964,5134,13,70,15
0.09999999999999964,5134,14,70,21
0.09999999999999964,5134,15,70,27
0.09999999999999964,5135,0,70,19
0.09999999999999964,5135,1,70,22
0.09999999999999964,5135,2,70,15
0.09999999999999964,5135,3,70,17
0.09999999999999787,5135,4,70,21
0.09999999999999787,5135,5,70,14
0.09999999999999787,5135,6,70,12
0.10000000000000142,5135,7,70,10
0.09999999999999787,5135,8,70,18
0.10000000000000142,5135,9,70,13
0.09999999999999787,5135,10,70,22
0.10000000000000142,5135,11,70,10
0.10000000000000142,5135,12,70,13
0.10000000000000142,5135,13,70,8
0.10000000000000142,5135,14,70,26
0.10000000000000142,5135,15,70,38
0.10000000000000142,5136,0,70,28
0.10000000000000142,5136,1,70,18
0.09999999999999787,5136,2,70,14
0.10000000000000142,5136,3,70,19
0.09999999999999787,5136,4,70,19
0.09999999999999787,5136,5,70,14
0.09999999999999787,5136,6,70,18
0.09999999999999787,5136,7,70,23
0.10000000000000142,5136,8,70,26
0.10000000000000142,5136,9,70,27
0.10000000000000142,5136,10,70,20
0.10000000000000142,5136,11,70,25
0.10000000000000142,5136,12,70,20
0.10000000000000142,5136,13,70,19
0.10000000000000142,5136,14,70,20
0.10000000000000142,5136,15,70,24
0.10000000000000142,5137,0,70,21
0.10000000000000142,5137,1,70,20
0.09999999999999432,5137,2,70,21
0.10000000000000142,5137,3,70,30
0.10000000000000142,5137,4,70,28
0.10000000000000142,5137,5,70,37
0.10000000000000142,5137,6,70,13
0.10000000000000142,5137,7,70,22
0.10000000000000142,5137,8,70,26
0.10000000000000142,5137,9,70,30
0.09999999999999432,5137,10,70,34
0.10000000000000142,5137,11,70,28
0.10000000000000142,5137,12,70,24
0.10000000000000142,5137,13,70,23
0.10000000000000142,5137,14,70,17
0.10000000000000142,5137,15,70,15
0.10000000000000142,5138,0,70,17
0.10000000000000142,5138,1,70,29
0.10000000000000142,5138,2,70,34
0.10000000000000142,5138,3,70,33
0.10000000000000142,5138,4,70,24
0.10000000000000142,5138,5,70,22
0.10000000000000142,5138,6,70,21
0.10000000000000142,5138,7,70,25
0.10000000000000142,5138,8,70,24
0.10000000000000142,5138,9,70,24
0.10000000000000142,5138,10,70,16
0.10000000000000142,5138,11,70,18
0.10000000000000142,5138,12,70,16
0.10000000000000142,5138,13,70,13
0.10000000000000142,5138,14,70,23
0.09999999999999432,5138,15,70,21
0.10000000000000142,5139,0,70,30
0.10000000000000142,5139,1,70,27
0.10000000000000142,5139,2,70,29
0.10000000000000142,5139,3,70,25
0.10000000000000142,5139,4,70,35
0.10000000000000142,5139,5,70,35
0.10000000000000142,5139,6,70,29
0.10000000000000142,5139,7,70,28
0.10000000000000142,5139,8,70,32
0.10000000000000142,5139,9,70,22
0.10000000000000142,5139,10,70,27
0.09999999999999432,5139,11,70,29
0.09999999999999432,5139,12,70,32
0.10000000000000142,5139,13,70,34
0.10000000000000142,5139,14,70,27
0.10000000000000142,5139,15,70,22
0.10000000000000142,5140,0,70,23
0.10000000000000142,5140,1,70,22
0.09999999999999432,5140,2,70,23
0.09999999999999432,5140,3,70,25
0.10000000000000142,5140,4,70,31
0.10000000000000142,5140,5,70,28
0.10000000000000142,5140,6,70,23
0.09999999999999432,5140,7,70,20
0.10000000000000142,5140,8,70,29
0.10000000000000142,5140,9,70,32
0.09999999999999432,5140,10,70,32
0.10000000000000142,5140,11,70,36
0.09999999999999432,5140,12,70,31
0.10000000000000142,5140,13,70,27
0.09999999999999432,5140,14,70,21
0.10000000000000142,5140,15,70,24
0.10000000000000142,5141,0,70,26
0.09999999999999432,5141,1,70,25
0.10000000000000142,5141,2,70,32
0.09999999999999432,5141,3,70,23
0.10000000000000142,5141,4,70,28
0.10000000000000142,5141,5,70,22
0.10000000000000142,5141,6,70,21
0.09999999999999432,5141,7,70,25
0.10000000000000142,5141,8,70,20
0.10000000000000142,5141,9,70,26
0.09999999999999432,5141,10,70,26
0.09999999999999432,5141,11,70,29
0.10000000000000142,5141,12,70,27
0.10000000000000142,5141,13,70,23
0.10000000000000142,5141,14,70,27
0.10000000000000142,5141,15,70,24
0.10000000000000142,5142,0,70,28
0.09999999999999432,5142,1,70,20
0.10000000000000142,5142,2,70,27
0.09999999999999432,5142,3,70,25
0.10000000000000142,5142,4,70,19
0.10000000000000142,5142,5,70,22
0.10000000000000142,5142,6,70,20
0.10000000000000142,5142,7,70,17
0.10000000000000142,5142,8,70,15
0.10000000000000142,5142,9,70,34
0.10000000000000142,5142,10,70,23
0.10000000000000142,5142,11,70,37
0.10000000000000142,5142,12,70,16
0.10000000000000142,5142,13,70,29
0.10000000000000142,5142,14,70,40
0.10000000000000142,5142,15,70,31
0.10000000000000142,5143,0,70,31
0.09999999999999432,5143,1,70,17
0.09999999999999432,5143,2,70,24
0.09999999999999432,5143,3,70,40
0.10000000000000853,5143,4,70,41
0.09999999999999432,5143,5,70,34
0.09999999999999432,5143,6,70,45
0.09999999999999432,5143,7,70,37
0.09999999999999432,5143,8,70,37
0.09999999999999432,5143,9,70,21
0.09999999999999432,5143,10,70,29
0.09999999999999432,5143,11,70,32
0.09999999999999432,5143,12,70,25
0.09999999999999432,5143,13,70,24
0.10000000000000853,5143,14,70,20
0.09999999999999432,5143,15,70,28
0.09999999999999432,5144,0,70,31
0.09999999999999432,5144,1,70,44
0.10000000000000853,5144,2,70,37
0.10000000000000853,5144,3,70,39
0.09999999999999432,5144,4,70,28
0.10000000000000853,5144,5,70,23
0.09999999999999432,5144,6,70,19
0.09999999999999432,5144,7,70,22
0.09999999999999432,5144,8,70,37
0.09999999999999432,5144,9,70,28
0.09999999999999432,5144,10,70,22
0.10000000000000853,5144,11,70,27
0.09999999999999432,5144,12,70,33
0.09999999999999432,5144,13,70,46
0.09999999999999432,5144,14,70,22
0.09999999999999432,5144,15,70,32
0.09999999999999432,5145,0,70,30
0.09999999999999432,5145,1,70,31
0.09999999999999432,5145,2,70,31
0.09999999999999432,5145,3,70,29
0.09999999999999432,5145,4,70,24
0.056818181818172775,5145,5,70,27
0.10000000000000853,5145,6,70,24
0.09999999999999432,5145,7,70,46
0.10000000000000853,5145,8,70,45
0.09999999999999432,5145,9,70,34
0.09999999999999432,5145,10,70,30
0.10000000000000853,5145,11,70,36
0.10000000000000853,5145,12,70,37
0.09999999999999432,5145,13,70,31
0.10000000000000853,5145,14,70,30
0.09999999999999432,5145,15,70,17
0.10000000000000853,5146,0,70,31
0.09999999999999432,5146,1,70,28
0.10000000000000853,5146,2,70,19
0.09999999999999432,5146,3,70,38
0.10000000000000853,5146,4,70,44
0.10000000000000853,5146,5,70,34
0.10000000000000853,5146,6,70,27
0.10000000000000853,5146,7,70,28
0.10000000000000853,5146,8,70,27
0.09999999999999432,5146,9,70,34
0.09999999999999432,5146,10,70,26
0.09999999999999432,5146,11,70,29
0.09999999999999432,5146,12,70,40
0.10000000000000853,5146,13,70,39
0.09999999999999432,5146,14,70,30
0.09999999999999432,5146,15,70,47
0.09999999999999432,5147,0,70,33
0.09999999999999432,5147,1,70,19
0.10000000000000853,5147,2,70,21
0.10000000000000853,5147,3,70,23
0.09999999999999432,5147,4,70,36
0.09999999999999432,5147,5,70,46
0.09999999999999432,5147,6,70,35
0.10000000000000853,5147,7,70,43
0.10000000000000853,5147,8,70,42
0.09999999999999432,5147,9,70,55
0.09999999999999432,5147,10,70,53
0.09999999999999432,5147,11,70,46
0.10000000000000853,5147,12,70,55
0.10000000000000853,5147,13,70,54
0.09999999999999432,5147,14,70,51
0.09999999999999432,5147,15,70,38
0.10000000000000853,5148,0,70,43
0.09999999999999432,5148,1,70,40
0.09999999999999432,5148,2,70,36
0.10000000000000853,5148,3,70,43
0.09999999999999432,5148,4,70,43
0.09999999999999432,5148,5,70,32
0.09999999999999432,5148,6,70,35
0.10000000000000853,5148,7,70,32
0.09999999999999432,5148,8,70,39
0.09999999999999432,5148,9,70,38
0.09999999999999432,5148,10,70,37
0.09999999999999432,5148,11,70,40
0.10000000000000853,5148,12,70,30
0.09999999999999432,5148,13,70,28
0.09999999999999432,5148,14,70,33
0.09999999999999432,5148,15,70,41
0.09999999999999432,5149,0,70,28
0.10000000000000853,5149,1,70,40
0.10000000000000853,5149,2,70,34
0.09999999999999432,5149,3,70,26
0.10000000000000853,5149,4,70,32
0.09999999999999432,5149,5,70,33
0.09999999999999432,5149,6,70,35
0.10000000000000853,5149,7,70,30
0.09999999999999432,5149,8,70,33
0.10000000000000853,5149,9,70,46
0.09999999999999432,5149,10,70,45
0.10000000000000853,5149,11,70,51
0.10000000000000853,5149,12,70,31
0.09999999999999432,5149,13,70,34
0.09999999999999432,5149,14,70,44
0.09999999999999432,5149,15,70,23
0.10000000000000853,5150,0,70,39
0.10000000000000853,5150,1,70,32
0.10000000000000853,5150,2,70,29
0.09999999999999432,5150,3,70,36
0.09999999999999432,5150,4,70,26
0.09999999999999432,5150,5,70,14
0.09999999999999432,5150,6,70,5
0.09999999999999432,5150,7,70,8
0.09999999999999432,5150,8,70,28
0.09999999999999432,5150,9,70,25
0.09999999999999432,5150,10,70,24
0.10000000000002274,5150,11,70,33
0.10000000000002274,5150,12,70,42
0.09999999999999432,5150,13,70,36
0.09999999999999432,5150,14,70,33
0.09999999999999432,5150,15,70,32
0.10000000000002274,5151,0,70,17
0.10000000000002274,5151,1,70,30
0.10000000000002274,5151,2,70,36
0.09999999999999432,5151,3,70,32
0.10000000000002274,5151,4,70,11
0.09999999999999432,5151,5,70,28
0.09999999999999432,5151,6,70,38
0.10000000000002274,5151,7,70,32
0.09999999999999432,5151,8,70,44
0.09999999999999432,5151,9,70,28
0.09999999999999432,5151,10,70,39
0.10000000000002274,5151,11,70,34
0.09999999999999432,5151,12,70,46
0.10000000000002274,5151,13,70,49
0.09999999999999432,5151,14,70,41
0.09999999999999432,5151,15,70,33
0.09999999999999432,5152,0,70,57
0.09999999999999432,5152,1,70,41
0.09999999999999432,5152,2,70,38
0.09999999999999432,5152,3,70,43
0.10000000000002274,5152,4,70,32
0.09999999999999432,5152,5,70,47
0.09999999999999432,5152,6,70,51
0.09999999999999432,5152,7,70,61
0.09999999999999432,5152,8,70,66
0.09999999999999432,5152,9,70,41
0.10000000000002274,5152,10,70,59
0.09999999999999432,5152,11,70,65
0.10000000000002274,5152,12,70,47
0.10000000000002274,5152,13,70,46
0.09999999999999432,5152,14,70,45
0.10000000000002274,5152,15,70,44
0.09999999999999432,5153,0,70,49
0.09999999999999432,5153,1,70,60
0.09999999999999432,5153,2,70,46
0.10000000000002274,5153,3,70,62
0.09999999999999432,5153,4,70,72
0.10000000000002274,5153,5,70,52
0.09999999999999432,5153,6,70,68
0.09999999999999432,5153,7,70,39
0.09999999999999432,5153,8,70,53
0.09999999999999432,5153,9,70,60
0.09999999999999432,5153,10,70,63
0.10000000000002274,5153,11,70,54
0.09999999999999432,5153,12,70,77
0.09999999999999432,5153,13,70,55
0.09999999999999432,5153,14,70,76
0.09999999999999432,5153,15,70,62
0.09999999999999432,5154,0,70,106
0.10000000000002274,5154,1,70,93
0.09999999999999432,5154,2,70,72
0.09999999999999432,5154,3,70,64
0.09999999999999432,5154,4,70,47
0.09999999999999432,5154,5,70,47
0.09999999999999432,5154,6,70,42
0.09999999999999432,5154,7,70,30
0.09999999999999432,5154,8,70,47
0.09999999999999432,5154,9,70,79
0.09999999999999432,5154,10,70,58
0.09999999999999432,5154,11,70,46
0.10000000000002274,5154,12,70,53
0.09999999999999432,5154,13,70,46
0.09999999999999432,5154,14,70,36
0.09999999999999432,5154,15,70,104
0.10000000000002274,5155,0,70,77
0.09999999999999432,5155,1,70,58
0.09999999999999432,5155,2,70,81
0.09999999999999432,5155,3,70,58
0.09999999999999432,5155,4,70,31
0.10000000000002274,5155,5,70,55
0.09999999999999432,5155,6,70,40
0.09999999999999432,5155,7,70,66
0.10000000000002274,5155,8,70,55
0.09999999999999432,5155,9,70,57
0.09999999999999964,5155,10,70,2
0.10000000000000142,5155,11,70,9
0.09999999999999964,5155,12,70,31
0.09999999999999964,5155,13,70,93
0.09999999999999964,5155,14,70,79
0.09999999999999964,5155,15,70,14
0.09999999999999964,5156,0,70,43
0.09999999999999964,5156,1,70,6
0.03409090909091006,5156,2,70,26
0.09999999999999964,5156,3,70,56
0.09999999999999964,5156,4,70,33
0.09999999999999964,5156,5,70,33
0.09999999999999964,5156,6,70,39
0.09999999999999964,5156,7,70,11
0.04545454545454497,5156,8,70,22
0.10000000000000142,5156,9,70,41
0.10000000000000142,5156,10,70,69
0.09999999999999787,5156,11,70,80
0.09999999999999787,5156,12,70,46
0.09999999999999787,5156,13,70,68
0.09999999999999787,5156,14,70,94
0.10000000000000142,5156,15,70,62
0.10000000000000142,5157,0,70,33
0.09999999999999787,5157,1,70,61
0.10000000000000142,5157,2,70,23
0.10000000000000142,5157,3,70,11
0.10000000000000142,5157,4,70,5
0.03409090909091006,5157,5,70,16
0.10000000000000142,5157,6,70,5
0.09999999999999787,5157,7,70,28
0.09999999999999787,5157,8,70,96
0.10000000000000142,5157,9,70,53
0.09999999999999787,5157,10,70,92
0.10000000000000142,5157,11,70,91
0.09999999999999787,5157,12,70,55
0.10000000000000142,5157,13,70,75
0.06818181818182012,5157,14,70,72
0.09999999999999787,5157,15,70,9
0.09999999999999787,5158,0,70,28
0.10000000000000142,5158,1,70,18
0.09999999999999787,5158,2,70,34
0.10000000000000142,5158,3,70,28
0.10000000000000142,5158,4,70,9
0.10000000000000142,5158,5,70,64
0.09999999999999787,5158,6,70,13
0.09999999999999787,5158,7,70,47
0.09999999999999787,5158,8,70,88
0.09999999999999787,5158,9,70,11
0.09999999999999787,5158,10,70,67
0.09999999999999787,5158,11,70,52
0.10000000000000142,5158,12,70,64
0.09999999999999787,5158,13,70,44
0.10000000000000142,5158,14,70,17
0.10000000000000142,5158,15,70,61
0.10000000000000142,5159,0,70,37
0.10000000000000142,5159,1,70,6
0.09999999999999432,5159,2,70,34
0.10000000000000142,5159,3,70,34
0.05681818181817988,5159,4,70,72
0.10000000000000142,5159,5,70,93
0.10000000000000142,5159,6,70,127
0.09999999999999432,5159,7,70,108
0.004545454545450411,5159,8,70,40
0.10000000000000142,5159,9,70,123
0.10000000000000142,5159,10,70,127
0.10000000000000142,5159,11,70,127
0.09999999999999432,5159,12,70,65
0.10000000000000142,5159,13,70,111
0.10000000000000142,5159,14,70,103
0.10000000000000142,5159,15,70,4
0.10000000000000142,5160,0,70,15
0.10000000000000142,5160,1,70,115
0.09999999999999432,5160,2,70,83
0.10000000000000142,5160,3,70,94
0.10000000000000142,5160,4,70,16
0.10000000000000142,5160,5,70,8
0.10000000000000142,5160,6,70,28
0.10000000000000142,5160,7,70,108
0.10000000000000142,5160,8,70,101
0.10000000000000142,5160,9,70,24
0.10000000000000142,5160,10,70,93
0.10000000000000142,5160,11,70,21
0.10000000000000142,5160,12,70,56
0.025000000000005684,5160,13,70,85
0.09999999999999432,5160,14,70,127
0.10000000000000142,5160,15,70,22
0.10000000000000142,5161,0,70,76
0.10000000000000142,5161,1,70,127
0.10000000000000142,5161,2,70,59
0.03409090909090651,5161,3,70,60
0.09999999999999432,5161,4,70,74
0.10000000000000142,5161,5,70,84
0.10000000000000142,5161,6,70,86
0.10000000000000142,5161,7,70,4
0.10000000000000142,5161,8,70,58
0.06818181818182012,5161,9,70,58
0.004545454545457517,5161,10,70,41
0.09999999999999432,5161,11,70,24
0.10000000000000142,5161,12,70,2
0.10000000000000142,5161,13,70,11
0.09999999999999432,5161,14,70,81
0.10000000000000142,5161,15,70,44
0.10000000000000142,5162,0,70,13
0.10000000000000142,5162,1,70,58
0.09999999999999432,5162,2,70,116
0.10000000000000142,5162,3,70,122
0.09999999999999432,5162,4,70,34
0.09999999999999432,5162,5,70,14
0.09999999999999432,5162,6,70,19
0.09999999999999432,5162,7,70,16
0.03409090909090651,5162,8,70,65
0.10000000000000142,5162,9,70,26
0.056818181818186986,5162,10,70,43
0.10000000000000142,5162,11,70,10
0.013636363636365445,5162,12,70,23
0.10000000000000142,5162,13,70,41
0.01590909090909065,5162,14,70,55
0.10000000000000853,5162,15,70,87
0.09999999999999432,5163,0,70,28
0.09999999999999432,5163,1,70,45
0.09999999999999432,5163,2,70,103
0.09999999999999432,5163,3,70,11
0.10000000000000853,5163,4,70,114
0.09999999999999432,5163,5,70,7
0.03636363636363171,5163,6,70,37
0.10000000000000853,5163,7,70,6
0.025000000000005684,5163,8,70,33
0.10000000000000853,5163,9,70,6
0.025000000000005684,5163,10,70,18
0.10000000000000853,5163,11,70,13
0.09999999999999432,5163,12,70,50
0.03636363636363171,5163,13,70,66
0.09999999999999432,5163,14,70,105
0.09999999999999432,5163,15,70,12
0.10000000000000853,5164,0,70,81
0.10000000000000853,5164,1,70,83
0.09999999999999432,5164,2,70,68
0.09999999999999432,5164,3,70,87
0.10000000000000853,5164,4,70,5
0.10000000000000853,5164,5,70,88
0.09999999999999432,5164,6,70,21
0.09999999999999432,5164,7,70,94
0.09999999999999432,5164,8,70,101
0.09999999999999432,5164,9,70,93
0.09999999999999432,5164,10,70,86
0.10000000000000853,5164,11,70,25
0.09999999999999432,5164,12,70,91
0.10000000000000853,5164,13,70,123
0.09999999999999432,5164,14,70,95
0.10000000000000853,5164,15,70,61
0.10000000000000853,5165,0,70,10
0.09999999999999432,5165,1,70,41
0.09999999999999432,5165,2,70,73
0.09999999999999432,5165,3,70,70
0.045454545454546746,5165,4,70,100
0.09999999999999432,5165,5,70,19
0.09999999999999432,5165,6,70,125
0.10000000000000853,5165,7,70,18
0.10000000000000853,5165,8,70,87
0.09999999999999432,5165,9,70,28
0.10000000000000853,5165,10,70,75
0.09999999999999432,5165,11,70,3
0.10000000000000853,5165,12,70,23
0.10000000000000853,5165,13,70,90
0.10000000000000853,5165,14,70,117
0.10000000000000853,5165,15,70,34
0.10000000000000853,5166,0,70,34
0.10000000000000853,5166,1,70,11
0.10000000000000853,5166,2,70,8
0.09999999999999432,5166,3,70,30
0.045454545454532536,5166,4,70,54
0.10000000000000853,5166,5,70,23
0.10000000000000853,5166,6,70,84
0.10000000000000853,5166,7,70,90
0.09999999999999432,5166,8,70,102
0.09999999999999432,5166,9,70,76
0.09999999999999432,5166,10,70,15
0.10000000000000853,5166,11,70,45
0.09999999999999432,5166,12,70,103
0.10000000000000853,5166,13,70,29
0.09999999999999432,5166,14,70,115
0.10000000000000853,5166,15,70,127
0.10000000000000853,5167,0,70,7
0.09999999999999432,5167,1,70,22
0.045454545454546746,5167,2,70,27
0.10000000000000853,5167,3,70,75
0.10000000000000853,5167,4,70,61
0.09999999999999432,5167,5,70,7
0.10000000000000853,5167,6,70,41
0.09999999999999432,5167,7,70,38
0.056818181818186986,5167,8,70,72
0.09999999999999432,5167,9,70,15
0.09999999999999432,5167,10,70,68
0.09999999999999432,5167,11,70,32
0.10000000000000853,5167,12,70,7
0.09999999999999432,5167,13,70,17
0.09999999999999432,5167,14,70,93
0.09999999999999432,5167,15,70,83
0.09999999999999432,5168,0,70,17
0.09999999999999432,5168,1,70,22
0.03409090909090651,5168,2,70,89
0.09999999999999432,5168,3,70,18
0.09999999999999432,5168,4,70,127
0.09999999999999432,5168,5,70,102
0.10000000000000853,5168,6,70,14
0.04772727272727195,5168,7,70,27
0.10000000000000853,5168,8,70,75
0.056818181818186986,5168,9,70,61
0.10000000000000853,5168,10,70,79
0.10000000000000853,5168,11,70,29
0.09999999999999432,5168,12,70,13
0.09999999999999432,5168,13,70,21
0.09999999999999432,5168,14,70,70
0.10000000000000853,5168,15,70,55
0.09999999999999432,5169,0,70,70
0.09999999999999432,5169,1,70,92
0.10000000000000853,5169,2,70,38
0.10000000000000853,5169,3,70,21
0.09999999999999432,5169,4,70,100
0.09999999999999432,5169,5,70,99
0.09999999999999432,5169,6,70,127
0.10000000000000853,5169,7,70,100
0.09999999999999432,5169,8,70,9
0.09999999999999432,5169,9,70,27
0.06818181818181301,5169,10,70,36
0.10000000000000853,5169,11,70,109
0.09999999999999432,5169,12,70,73
0.09999999999999432,5169,13,70,85
0.10000000000000853,5169,14,70,90
0.09999999999999432,5169,15,70,65
0.09999999999999432,5170,0,70,38
0.09999999999999432,5170,1,70,51
0.10000000000000853,5170,2,70,63
0.10000000000000853,5170,3,70,23
0.10000000000000853,5170,4,70,59
0.09999999999999432,5170,5,70,99
0.10000000000000853,5170,6,70,81
0.036363636363645924,5170,7,70,49
0.09999999999999432,5170,8,70,97
0.10000000000000853,5170,9,70,92
0.09999999999999432,5170,10,70,16
0.0022727272727252057,5170,11,70,95
0.09999999999999432,5170,12,70,20
0.10000000000000853,5170,13,70,104
0.09999999999999432,5170,14,70,124
0.09999999999999432,5170,15,70,110
0.09999999999999432,5171,0,70,104
0.09999999999999432,5171,1,70,12
0.09999999999999432,5171,2,70,66
0.025000000000005684,5171,3,70,42
0.10000000000002274,5171,4,70,57
0.09999999999999432,5171,5,70,67
0.09999999999999432,5171,6,70,99
0.09999999999999432,5171,7,70,58
0.09999999999999432,5171,8,70,8
0.10000000000002274,5171,9,70,60
0.09999999999999432,5171,10,70,8
0.09999999999999432,5171,11,70,19
0.09999999999999432,5171,12,70,70
0.09999999999999432,5171,13,70,93
0.09999999999999432,5171,14,70,14
0.09999999999999432,5171,15,70,27
0.056818181818158564,5172,0,70,71
0.09999999999999432,5172,1,70,120
0.09999999999999432,5172,2,70,17
0.09999999999999432,5172,3,70,85
0.09999999999999432,5172,4,70,127
0.09999999999999432,5172,5,70,13
0.09999999999999432,5172,6,70,52
0.10000000000002274,5172,7,70,94
0.10000000000002274,5172,8,70,83
0.01590909090910486,5172,9,70,50
0.045454545454532536,5172,10,70,25
0.09999999999999432,5172,11,70,106
0.09999999999999432,5172,12,70,50
0.09999999999999432,5172,13,70,18
0.06818181818181301,5172,14,70,28
0.09999999999999432,5172,15,70,66
0.09999999999999432,5173,0,70,61
0.09999999999999432,5173,1,70,101
0.10000000000002274,5173,2,70,14
0.09999999999999432,5173,3,70,18
0.10000000000002274,5173,4,70,66
0.09999999999999432,5173,5,70,29
0.09999999999999432,5173,6,70,119
0.09999999999999432,5173,7,70,61
0.09999999999999432,5173,8,70,46
0.056818181818186986,5173,9,70,76
0.10000000000002274,5173,10,70,70
0.09999999999999432,5173,11,70,110
0.09999999999999432,5173,12,70,108
0.09999999999999432,5173,13,70,22
0.10000000000002274,5173,14,70,6
0.09999999999999432,5173,15,70,16
0.10000000000002274,5174,0,70,32
0.09999999999999432,5174,1,70,49
0.056818181818186986,5174,2,70,102
0.10000000000002274,5174,3,70,127
0.09999999999999432,5174,4,70,62
0.09999999999999432,5174,5,70,74
0.09999999999999432,5174,6,70,9
0.09999999999999432,5174,7,70,30
0.09999999999999432,5174,8,70,29
0.09999999999999432,5174,9,70,114
0.09999999999999432,5174,10,70,44
0.09999999999999432,5174,11,70,104
0.09999999999999432,5174,12,70,93
0.10000000000002274,5174,13,70,100
0.09999999999999432,5174,14,70,109
0.09999999999999432,5174,15,70,87
0.09999999999999432,5175,0,70,49
0.09999999999999432,5175,1,70,61
0.09999999999999432,5175,2,70,112
0.10000000000002274,5175,3,70,3
0.10000000000002274,5175,4,70,23
0.09999999999999432,5175,5,70,62
0.09999999999999432,5175,6,70,127
0.10000000000002274,5175,7,70,100
0.09999999999999432,5175,8,70,19
0.03409090909090651,5175,9,70,85
0.09999999999999432,5175,10,70,74
0.09999999999999432,5175,11,70,105
0.09999999999999432,5175,12,70,127
0.09999999999999432,5175,13,70,92
0.09999999999999432,5175,14,70,29
0.09999999999999432,5175,15,70,81
0.09999999999999432,5176,0,70,66
0.09999999999999432,5176,1,70,64
0.09999999999999432,5176,2,70,127
0.09999999999999432,5176,3,70,54
0.09999999999999432,5176,4,70,2
0.09999999999999432,5176,5,70,33
0.056818181818158564,5176,6,70,76
0.09999999999999432,5176,7,70,100
0.09999999999999432,5176,8,70,25
0.09999999999999432,5176,9,70,127
0.09999999999999432,5176,10,70,80
0.10000000000002274,5176,11,70,127
0.09999999999999432,5176,12,70,10
0.09999999999999432,5176,13,70,99
0.09999999999999432,5176,14,70,127
0.09999999999999432,5176,15,70,123
0.09999999999999432,5177,0,70,51
0.09999999999999432,5177,1,70,29
0.04772727272728616,5177,2,70,89
0.09999999999999432,5177,3,70,10
0.10000000000002274,5177,4,70,104
0.09999999999999432,5177,5,70,17
0.09999999999999432,5177,6,70,71
0.09999999999999432,5177,7,70,56
0.09999999999999432,5177,8,70,61
0.09999999999999432,5177,9,70,16
0.056818181818186986,5177,10,70,21
0.09999999999999432,5177,11,70,5
0.09999999999999432,5177,12,70,36
0.09999999999999432,5177,13,70,95
0.10000000000002274,5177,14,70,64
0.056818181818186986,5177,15,70,32
0.09999999999999432,5178,0,70,1
0.09999999999999432,5178,1,70,4
0.09999999999999432,5178,2,70,23
0.09999999999999432,5178,3,70,86
0.09999999999999432,5178,4,70,77
0.09999999999999432,5178,5,70,112
0.09999999999999432,5178,6,70,110
0.09999999999999432,5178,7,70,102
0.09999999999999432,5178,8,70,35
0.09999999999999432,5178,9,70,108
0.10000000000002274,5178,10,70,25
0.09999999999999432,5178,11,70,20
0.013636363636351234,5178,12,70,67
0.09999999999999432,5178,13,70,19
0.10000000000002274,5178,14,70,24
0.09999999999999432,5178,15,70,46
0.09999999999999432,5179,0,70,88
0.09999999999999432,5179,1,70,59
0.09999999999999432,5179,2,70,78
0.09999999999999432,5179,3,70,43
0.09999999999999432,5179,4,70,61
0.09999999999999432,5179,5,70,27
0.09999999999999432,5179,6,70,40
0.09999999999999432,5179,7,70,56
0.10000000000002274,5179,8,70,101
0.09999999999999432,5179,9,70,17
0.10000000000002274,5179,10,70,22
0.09999999999999432,5179,11,70,37
0.09999999999999432,5179,12,70,110
0.10000000000002274,5179,13,70,104
0.10000000000002274,5179,14,70,59
0.09999999999999432,5179,15,70,69
0.09999999999999432,5180,0,70,87
0.09999999999999432,5180,1,70,47
0.09999999999999432,5180,2,70,35
0.09999999999999432,5180,3,70,106
0.09999999999999432,5180,4,70,107
0.09999999999999432,5180,5,70,34
0.09999999999999432,5180,6,70,76
0.09999999999999432,5180,7,70,99
0.09999999999999432,5180,8,70,36
0.09999999999999432,5180,9,70,27
0.04772727272728616,5180,10,70,73
0.10000000000002274,5180,11,70,28
0.09999999999999432,5180,12,70,60
0.09999999999999432,5180,13,70,55
0.09999999999999432,5180,14,62,3
0.10000000000000142,5180,15,62,10
0.10000000000000142,5181,0,62,5
0.10000000000000142,5181,1,62,6
0.10000000000000142,5181,2,62,2
0.10000000000000142,5181,3,62,4
0.10000000000000142,5181,4,62,10
0.09999999999999432,5181,5,62,8
0.10000000000000142,5181,6,62,7
0.10000000000000142,5181,7,62,12
0.10000000000000142,5181,8,62,8
0.10000000000000142,5181,9,62,7
0.09999999999999432,5181,10,62,2
0.10000000000000142,5181,11,62,3
0.09999999999999432,5181,12,62,7
0.10000000000000142,5181,13,62,4
0.10000000000000142,5181,14,62,15
0.10000000000000142,5181,15,62,17
0.09999999999999432,5182,0,62,7
0.09999999999999432,5182,1,62,14
0.09999999999999432,5182,2,62,8
0.10000000000000142,5182,3,62,11
0.10000000000000142,5182,4,62,12
0.10000000000000142,5182,5,62,6
0.09999999999999432,5182,6,62,5
0.10000000000000142,5182,7,62,6
0.10000000000000142,5182,8,62,10
0.10000000000000142,5182,9,62,14
0.10000000000000142,5182,10,62,2
0.10000000000000142,5182,11,62,5
0.10000000000000142,5182,12,62,4
0.10000000000000142,5182,13,62,4
0.10000000000000142,5182,14,62,11
0.10000000000000142,5182,15,62,5
0.10000000000000142,5183,0,62,8
0.10000000000000142,5183,1,62,7
0.10000000000000142,5183,2,62,6
0.10000000000000142,5183,3,62,2
0.10000000000000142,5183,4,62,7
0.06818181818182012,5183,5,62,9
0.10000000000000142,5183,6,62,2
0.10000000000000142,5183,7,62,10
0.10000000000000142,5183,8,62,14
0.10000000000000142,5183,9,62,20
0.10000000000000142,5183,10,62,6
0.09999999999999432,5183,11,62,2
0.10000000000000142,5183,12,62,1
0.10000000000000142,5183,13,62,6
0.10000000000000142,5183,14,62,1
0.10000000000000142,5183,15,62,1
0.056818181818186986,5184,0,62,4
0.09999999999999432,5184,1,62,1
0.09999999999999432,5184,2,62,7
0.10000000000000853,5184,3,62,3
0.10000000000000853,5184,4,62,4
0.09999999999999432,5184,5,62,1
0.09999999999999432,5184,6,62,3
0.10000000000000853,5184,7,62,1
0.09999999999999432,5184,8,62,1
0.09999999999999432,5184,9,62,2
0.09999999999999432,5184,10,62,3
0.10000000000000853,5184,11,62,1
0.09999999999999432,5184,12,62,5
0.09999999999999432,5184,13,62,1
0.09999999999999432,5184,14,62,5
0.09999999999999432,5184,15,62,1
0.10000000000000853,5185,0,62,1
0.09999999999999432,5185,1,62,9
0.09999999999999432,5185,2,62,1
0.056818181818186986,5185,3,62,3
0.09999999999999432,5185,4,62,12
0.10000000000000853,5185,5,62,13
0.09999999999999432,5185,6,62,5
0.09999999999999432,5185,7,62,5
0.10000000000000853,5185,8,62,1
0.09999999999999432,5185,9,62,3
0.06818181818181301,5185,10,62,5
0.10000000000000853,5185,11,62,4
0.09999999999999432,5185,12,62,3
0.09999999999999432,5185,13,62,1
0.09999999999999432,5185,14,62,5
0.09999999999999432,5185,15,62,5
0.10000000000000853,5186,0,62,4
0.09999999999999432,5186,1,62,6
0.09999999999999432,5186,2,62,8
0.09999999999999432,5186,3,62,8
0.09999999999999432,5186,4,62,13
0.09999999999999432,5186,5,62,5
0.10000000000000853,5186,6,62,7
0.09999999999999432,5186,7,62,17
0.09999999999999432,5186,8,62,6
0.09999999999999432,5186,9,62,6
0.09999999999999432,5186,10,62,8
0.09999999999999432,5186,11,62,4
0.09999999999999432,5186,12,62,6
0.09999999999999432,5186,13,62,14
0.09999999999999432,5186,14,62,8
0.09999999999999432,5186,15,62,13
0.10000000000002274,5187,0,62,17
0.09999999999999432,5187,1,62,18
0.10000000000000142,5187,2,55,41
0.10000000000000142,5187,3,55,99
0.10000000000000142,5187,4,55,127
0.10000000000000142,5187,5,55,81
0.09999999999999432,5187,6,55,40
0.10000000000000142,5187,7,55,85
0.09999999999999432,5187,8,55,105
0.10000000000000142,5187,9,55,15
0.10000000000000142,5187,10,55,87
0.10000000000000142,5187,11,55,43
0.10000000000000853,5187,12,55,69
0.10000000000000853,5187,13,55,54
0.09999999999999432,5187,14,55,48
0.09999999999999432,5187,15,55,79
0.10000000000000853,5188,0,55,74
0.10000000000000853,5188,1,55,14
0.09999999999999432,5188,2,55,52
0.10000000000000853,5188,3,55,71
0.09999999999999432,5188,4,55,67
0.10000000000000853,5188,5,55,59
0.09999999999999432,5188,6,55,48
0.09999999999999432,5188,7,55,49
0.10000000000000853,5188,8,55,39
0.09999999999999432,5188,9,55,37
0.10000000000000853,5188,10,55,62
0.09999999999999432,5188,11,55,34
0.10000000000000009,5188,12,91,23
0.10000000000000009,5188,13,91,22
0.09999999999999964,5188,14,91,23
0.10000000000000053,5188,15,91,22
0.10000000000000053,5189,0,91,21
0.09999999999999964,5189,1,91,21
0.10000000000000142,5189,2,91,23
0.09999999999999964,5189,3,91,46
0.10000000000000142,5189,4,91,41
0.09999999999999964,5189,5,91,45
0.09999999999999964,5189,6,91,42
0.09999999999999964,5189,7,91,41
0.10000000000000142,5189,8,91,40
0.10000000000000142,5189,9,91,38
0.10000000000000142,5189,10,91,38
0.10000000000000142,5189,11,91,94
0.10000000000000142,5189,12,91,52
0.10000000000000142,5189,13,91,112
0.10000000000000142,5189,14,91,44
0.10000000000000142,5189,15,91,90
0.09999999999999787,5190,0,91,45
0.09999999999999787,5190,1,91,96
0.10000000000000142,5190,2,91,43
0.09999999999999787,5190,3,91,94
0.09999999999999787,5190,4,91,43
0.09999999999999787,5190,5,91,103
0.10000000000000142,5190,6,91,33
0.09999999999999787,5190,7,91,104
0.09999999999999787,5190,8,91,44
0.09999999999999787,5190,9,91,100
0.09999999999999787,5190,10,91,43
0.09999999999999787,5190,11,91,101
0.09999999999999787,5190,12,91,47
0.09999999999999787,5190,13,91,65
0.09999999999999787,5190,14,91,35
0.09999999999999787,5190,15,91,70
0.10000000000000142,5191,0,91,8
0.09999999999999432,5191,1,91,63
0.10000000000000142,5191,2,91,35
0.10000000000000142,5191,3,91,30
0.10000000000000142,5191,4,91,117
0.09999999999999432,5191,5,91,3
0.10000000000000142,5191,6,91,9
0.10000000000000142,5191,7,91,127
0.10000000000000142,5191,8,91,127
0.10000000000000142,5191,9,91,127
0.10000000000000142,5191,10,91,127
0.10000000000000142,5191,11,91,127
0.10000000000000142,5191,12,91,127
0.10000000000000142,5191,13,91,7
0.10000000000000142,5191,14,91,127
0.10000000000000142,5191,15,91,6
0.10000000000000142,5192,0,91,127
0.10000000000000142,5192,1,91,127
0.10000000000000142,5192,2,91,127
0.10000000000000142,5192,3,91,5
0.10000000000000142,5192,4,91,127
0.09999999999999432,5192,5,91,125
0.10000000000000142,5192,6,91,6
0.10000000000000142,5192,7,91,127
0.10000000000000142,5192,8,91,5
0.09999999999999432,5192,9,91,127
0.10000000000000142,5192,10,91,127
0.09999999999999432,5192,11,91,127
0.10000000000000142,5192,12,91,5
0.10000000000000142,5192,13,91,127
0.09999999999999432,5192,14,91,127
0.10000000000000142,5192,15,91,7
0.10000000000000142,5193,0,91,127
0.10000000000000142,5193,1,91,5
0.09999999999999432,5193,2,91,127
0.10000000000000142,5193,3,91,127
0.10000000000000142,5193,4,91,127
0.10000000000000142,5193,5,91,5
0.10000000000000142,5193,6,91,127
0.10000000000000142,5193,7,91,125
0.10000000000000142,5193,8,91,6
0.10000000000000142,5193,9,91,127
0.10000000000000142,5193,10,91,5
0.10000000000000142,5193,11,91,127
0.10000000000000142,5193,12,91,127
0.10000000000000142,5193,13,91,127
0.10000000000000142,5193,14,91,5
0.10000000000000142,5193,15,91,127
0.10000000000000142,5194,0,91,127
0.10000000000000142,5194,1,91,6
0.10000000000000142,5194,2,91,127
0.10000000000000142,5194,3,91,2
0.10000000000000142,5194,4,91,127
0.10000000000000142,5194,5,91,127
0.10000000000000142,5194,6,91,127
0.10000000000000142,5194,7,91,5
0.10000000000000142,5194,8,91,127
0.10000000000000142,5194,9,91,127
0.10000000000000142,5194,10,91,6
0.10000000000000142,5194,11,91,127
0.10000000000000142,5194,12,91,5
0.10000000000000142,5194,13,91,127
0.09999999999999432,5194,14,91,127
0.10000000000000142,5194,15,91,127
0.10000000000000142,5195,0,91,5
0.10000000000000142,5195,1,91,127
0.10000000000000142,5195,2,91,127
0.10000000000000142,5195,3,91,6
0.10000000000000142,5195,4,91,127
0.10000000000000142,5195,5,91,5
0.09999999999999432,5195,6,91,127
0.09999999999999432,5195,7,91,127
0.10000000000000142,5195,8,91,127
0.10000000000000142,5195,9,91,5
0.09999999999999432,5195,10,91,127
0.09999999999999432,5195,11,91,124
0.10000000000000142,5195,12,91,7
0.10000000000000142,5195,13,91,127
0.10000000000000142,5195,14,91,127
0.10000000000000142,5195,15,91,127
0.10000000000000142,5196,0,91,127
0.10000000000000142,5196,1,91,127
0.10000000000000142,5196,2,91,120
0.10000000000000142,5196,3,91,5
0.10000000000000142,5196,4,91,118
0.10000000000000142,5196,5,91,4
0.10000000000000142,5196,6,91,127
0.10000000000000142,5196,7,91,127
0.10000000000000142,5196,8,91,127
0.10000000000000142,5196,9,91,4
0.10000000000000142,5196,10,91,127
0.10000000000000142,5196,11,91,113
0.10000000000000142,5196,12,91,5
0.10000000000000142,5196,13,91,127
0.09999999999999432,5196,14,91,4
0.09999999999999432,5196,15,91,127
0.09999999999999432,5197,0,91,127
0.09999999999999432,5197,1,91,127
0.09999999999999432,5197,2,91,4
0.09999999999999432,5197,3,91,127
0.10000000000000853,5197,4,91,69
0.09999999999999432,5197,5,91,5
0.09999999999999432,5197,6,91,127
0.09999999999999432,5197,7,91,4
0.09999999999999432,5197,8,91,127
0.10000000000000853,5197,9,91,127
0.09999999999999432,5197,10,91,127
0.09999999999999432,5197,11,91,4
0.10000000000000853,5197,12,91,127
0.09999999999999432,5197,13,91,117
0.09999999999999432,5197,14,91,5
0.10000000000000853,5197,15,91,127
0.10000000000000853,5198,0,91,4
0.10000000000000853,5198,1,91,127
0.09999999999999432,5198,2,91,127
0.10000000000000853,5198,3,91,127
0.10000000000000853,5198,4,91,4
0.09999999999999432,5198,5,91,127
0.10000000000000853,5198,6,91,103
0.10000000000000853,5198,7,91,5
0.09999999999999432,5198,8,91,127
0.10000000000000853,5198,9,91,4
0.09999999999999432,5198,10,91,127
0.09999999999999432,5198,11,91,127
0.09999999999999432,5198,12,91,127
0.09999999999999432,5198,13,91,4
0.09999999999999432,5198,14,91,127
0.09999999999999432,5198,15,91,115
0.09999999999999432,5199,0,91,5
0.09999999999999432,5199,1,91,127
0.09999999999999432,5199,2,91,4
0.10000000000000853,5199,3,91,122
0.10000000000000853,5199,4,91,127
0.09999999999999432,5199,5,91,127
0.09999999999999432,5199,6,91,4
0.10000000000000853,5199,7,91,127
0.09999999999999432,5199,8,91,109
0.09999999999999432,5199,9,91,5
0.10000000000000853,5199,10,91,127
0.09999999999999432,5199,11,91,4
0.10000000000000853,5199,12,91,127
0.10000000000000853,5199,13,91,127
0.10000000000000853,5199,14,91,127
0.10000000000000853,5199,15,91,4
0.09999999999999432,5200,0,91,127
0.10000000000000853,5200,1,91,124
0.10000000000000853,5200,2,91,127
0.10000000000000853,5200,3,91,127
0.09999999999999432,5200,4,91,127
0.10000000000000853,5200,5,91,127
0.09999999999999432,5200,6,91,127
0.10000000000000853,5200,7,91,121
0.09999999999999432,5200,8,91,5
0.09999999999999432,5200,9,91,127
0.09999999999999432,5200,10,91,4
0.09999999999999432,5200,11,91,127
0.09999999999999432,5200,12,91,127
0.09999999999999432,5200,13,91,127
0.09999999999999432,5200,14,91,4
0.10000000000000853,5200,15,91,121
0.09999999999999432,5201,0,91,126
0.09999999999999432,5201,1,91,5
0.10000000000000853,5201,2,91,127
0.10000000000000853,5201,3,91,4
0.10000000000000853,5201,4,91,127
0.09999999999999432,5201,5,91,127
0.10000000000000853,5201,6,91,127
0.10000000000000853,5201,7,91,4
0.09999999999999432,5201,8,91,127
0.10000000000000853,5201,9,91,117
0.10000000000000853,5201,10,91,5
0.09999999999999432,5201,11,91,127
0.09999999999999432,5201,12,91,4
0.09999999999999432,5201,13,91,127
0.09999999999999432,5201,14,91,127
0.09999999999999432,5201,15,91,127
0.09999999999999432,5202,0,91,4
0.09999999999999432,5202,1,91,127
0.09999999999999432,5202,2,91,127
0.09999999999999432,5202,3,91,5
0.09999999999999432,5202,4,91,65
0.09999999999999432,5202,5,91,127
0.10000000000000853,5202,6,91,127
0.09999999999999432,5202,7,91,127
0.09999999999999432,5202,8,91,127
0.10000000000000853,5202,9,91,6
0.09999999999999432,5202,10,91,4
0.09999999999999432,5202,11,91,127
0.09999999999999432,5202,12,91,124
0.09999999999999432,5202,13,91,5
0.09999999999999432,5202,14,91,127
0.09999999999999432,5202,15,91,5
0.10000000000000853,5203,0,91,127
0.10000000000000853,5203,1,91,127
0.09999999999999432,5203,2,91,127
0.09999999999999432,5203,3,91,5
0.10000000000000853,5203,4,91,127
0.09999999999999432,5203,5,91,112
0.09999999999999432,5203,6,91,5
0.10000000000000853,5203,7,91,127
0.09999999999999432,5203,8,91,5
0.10000000000000853,5203,9,91,127
0.09999999999999432,5203,10,91,127
0.10000000000000853,5203,11,91,127
0.10000000000000853,5203,12,91,6
0.09999999999999432,5203,13,91,4
0.09999999999999432,5203,14,91,127
0.10000000000000853,5203,15,91,124
0.10000000000000853,5204,0,91,5
0.10000000000000853,5204,1,91,127
0.09999999999999432,5204,2,91,4
0.10000000000000853,5204,3,91,127
0.09999999999999432,5204,4,91,127
0.10000000000000853,5204,5,91,127
0.10000000000000853,5204,6,91,6
0.09999999999999432,5204,7,91,4
0.09999999999999432,5204,8,91,127
0.10000000000000853,5204,9,91,104
0.09999999999999432,5204,10,91,5
0.09999999999999432,5204,11,91,8
0.09999999999999432,5204,12,91,127
0.09999999999999432,5204,13,91,4
0.10000000000000853,5204,14,91,1
0.09999999999999432,5204,15,91,127
0.10000000000000853,5205,0,91,127
0.09999999999999432,5205,1,91,127
0.09999999999999432,5205,2,91,127
0.10000000000000853,5205,3,91,7
0.09999999999999432,5205,4,91,127
0.09999999999999432,5205,5,91,126
0.10000000000000853,5205,6,91,5
0.09999999999999432,5205,7,91,127
0.09999999999999432,5205,8,91,127
0.09999999999999432,5205,9,91,127
0.09999999999999432,5205,10,91,127
0.09999999999999432,5205,11,91,6
0.10000000000000853,5205,12,91,127
0.09999999999999432,5205,13,91,123
0.09999999999999432,5205,14,91,5
0.10000000000000853,5205,15,91,127
0.09999999999999432,5206,0,91,5
0.10000000000000853,5206,1,91,127
0.10000000000000853,5206,2,91,127
0.10000000000000853,5206,3,91,127
0.09999999999999432,5206,4,91,6
0.09999999999999432,5206,5,91,4
0.09999999999999432,5206,6,91,127
0.10000000000000853,5206,7,91,103
0.09999999999999432,5206,8,91,127
0.10000000000000853,5206,9,91,5
0.09999999999999432,5206,10,91,127
0.09999999999999432,5206,11,91,127
0.09999999999999432,5206,12,91,127
0.10000000000000853,5206,13,91,7
0.09999999999999432,5206,14,91,118
0.10000000000000853,5206,15,91,122
0.09999999999999432,5207,0,91,127
0.09999999999999432,5207,1,91,5
0.09999999999999432,5207,2,91,127
0.09999999999999432,5207,3,91,127
0.09999999999999432,5207,4,91,127
0.09999999999999432,5207,5,91,8
0.10000000000000853,5207,6,91,127
0.09999999999999432,5207,7,91,119
0.09999999999999432,5207,8,91,7
0.10000000000000853,5207,9,91,4
0.09999999999999432,5207,10,91,127
0.09999999999999432,5207,11,91,6
0.09999999999999432,5207,12,91,127
0.10000000000000853,5207,13,91,127
0.10000000000000853,5207,14,91,127
0.09999999999999432,5207,15,91,67
0.09999999999999432,5208,0,91,8
0.09999999999999432,5208,1,91,127
0.10000000000000853,5208,2,91,116
0.09999999999999432,5208,3,91,21
0.09999999999999432,5208,4,91,127
0.10000000000002274,5208,5,91,27
0.09999999999999432,5208,6,91,127
0.09999999999999432,5208,7,91,127
0.10000000000002274,5208,8,91,127
0.09999999999999432,5208,9,91,127
0.09999999999999432,5208,10,91,7
0.10000000000002274,5208,11,91,127
0.09999999999999432,5208,12,91,119
0.09999999999999432,5208,13,91,6
0.10000000000002274,5208,14,91,127
0.09999999999999432,5208,15,91,5
0.10000000000002274,5209,0,91,127
0.09999999999999432,5209,1,91,127
0.10000000000002274,5209,2,91,127
0.09999999999999432,5209,3,91,58
0.09999999999999432,5209,4,91,7
0.09999999999999432,5209,5,91,127
0.10000000000002274,5209,6,91,117
0.09999999999999432,5209,7,91,4
0.09999999999999432,5209,8,91,3
0.09999999999999432,5209,9,91,127
0.10000000000002274,5209,10,91,5
0.09999999999999432,5209,11,91,127
0.09999999999999432,5209,12,91,127
0.09999999999999432,5209,13,91,127
0.09999999999999432,5209,14,91,66
0.10000000000002274,5209,15,91,7
0.09999999999999432,5210,0,91,127
0.09999999999999432,5210,1,91,114
0.10000000000002274,5210,2,91,5
0.09999999999999432,5210,3,91,4
0.09999999999999432,5210,4,91,127
0.09999999999999432,5210,5,91,5
0.09999999999999432,5210,6,91,127
0.09999999999999432,5210,7,91,127
0.09999999999999432,5210,8,91,127
0.09999999999999432,5210,9,91,6
0.09999999999999432,5210,10,91,94
0.10000000000002274,5210,11,91,87
0.09999999999999432,5210,12,91,127
0.09999999999999432,5210,13,91,127
0.09999999999999432,5210,14,91,127
0.09999999999999432,5210,15,91,127
0.09999999999999432,5211,0,91,127
0.09999999999999432,5211,1,91,121
0.09999999999999432,5211,2,91,8
0.09999999999999432,5211,3,91,5
0.09999999999999432,5211,4,91,127
0.09999999999999432,5211,5,91,6
0.09999999999999432,5211,6,91,127
0.09999999999999432,5211,7,91,127
0.09999999999999432,5211,8,91,127
0.10000000000002274,5211,9,91,79
0.09999999999999432,5211,10,91,18
0.09999999999999432,5211,11,91,127
0.09999999999999432,5211,12,91,53
0.09999999999999432,5211,13,91,127
0.09999999999999432,5211,14,91,127
0.09999999999999432,5211,15,91,127
0.09999999999999432,5212,0,91,127
0.10000000000002274,5212,1,91,9
0.09999999999999432,5212,2,91,127
0.10000000000002274,5212,3,91,127
0.10000000000002274,5212,4,91,8
0.09999999999999432,5212,5,91,127
0.09999999999999432,5212,6,91,9
0.09999999999999432,5212,7,91,127
0.09999999999999432,5212,8,91,127
0.09999999999999432,5212,9,91,127
0.09999999999999432,5212,10,91,9
0.09999999999999432,5212,11,91,127
0.09999999999999432,5212,12,91,127
0.09999999999999432,5212,13,91,127
0.10000000000002274,5212,14,91,9
0.09999999999999432,5212,15,91,127
0.10000000000002274,5213,0,91,127
0.09999999999999432,5213,1,91,127
0.09999999999999432,5213,2,91,74
0.09999999999999432,5213,3,91,7
0.10000000000002274,5213,4,91,127
0.10000000000002274,5213,5,91,112
0.09999999999999432,5213,6,91,4
0.09999999999999432,5213,7,91,3
0.10000000000002274,5213,8,91,127
0.09999999999999432,5213,9,91,19
0.09999999999999432,5213,10,91,127
0.09999999999999432,5213,11,91,127
0.09999999999999432,5213,12,91,127
0.10000000000002274,5213,13,91,70
0.09999999999999432,5213,14,91,6
0.09999999999999432,5213,15,91,127
0.09999999999999432,5214,0,91,119
0.09999999999999432,5214,1,91,4
0.09999999999999432,5214,2,91,3
0.09999999999999432,5214,3,91,71
0.09999999999999999,5214,4,61,1
0.09999999999999998,5214,5,61,1
0.09999999999999998,5214,6,61,4
0.045454545454545414,5214,7,61,12
0.013636363636363558,5214,8,61,19
0.09999999999999998,5214,9,61,25
0.09999999999999987,5214,10,61,122
0.09999999999999987,5214,11,61,52
0.013636363636363447,5214,12,61,53
0.09999999999999964,5214,13,61,6
0.05909090909090864,5214,14,61,10
0.09999999999999964,5214,15,61,23
0.06818181818181834,5215,0,61,33
0.10000000000000142,5215,1,61,26
0.059090909090910415,5215,2,61,33
0.013636363636363669,5215,3,61,32
0.09999999999999964,5215,4,61,8
0.10000000000000142,5215,5,61,6
0.047727272727275505,5215,6,61,8
0.004545454545457517,5215,7,61,10
0.013636363636361892,5215,8,61,10
0.09999999999999432,5215,9,61,1
0.09999999999999432,5215,10,61,1
0.05909090909091219,5215,11,61,1
0.09999999999999432,5215,12,61,1
0.06818181818181301,5215,13,61,1
0.013636363636351234,5215,14,61,1
0.0022727272727252057,5215,15,61,1
0.01590909090910486,5216,0,61,1
0.09999999999999432,5216,1,61,1
0.056818181818186986,5216,2,61,1
0.10000000000002274,5216,3,61,1
0.025000000000005684,5216,4,61,1
0.09999999999999432,5216,5,61,1
0.01590909090907644,5216,6,61,1
0.10000000000002274,5216,7,61,1
0.09999999999999432,5216,8,61,1
0.013636363636351234,5216,9,61,1
0.09999999999999432,5216,10,61,1
0.09999999999999432,5216,11,61,1
0.09999999999999432,5216,12,61,1
0.013636363636351234,5216,13,61,1
0.10000000000002274,5216,14,61,1
0.09999999999999432,5216,15,61,1
0.06590909090908781,5217,0,61,1
0.09999999999999432,5217,1,61,1
0.09999999999999432,5217,2,61,1
0.09999999999999432,5217,3,61,1
0.013636363636351234,5217,4,61,1
0.09999999999999432,5217,5,61,1
0.09999999999999432,5217,6,61,1
0.09999999999999432,5217,7,61,1
0.09999999999999432,5217,8,61,1
0.04772727272728616,5217,9,61,1
0.036363636363660135,5217,10,61,2
0.09999999999999432,5217,11,61,2
0.09999999999999432,5217,12,61,1
0.09999999999999432,5217,13,61,2
0.10000000000002274,5217,14,61,1
0.09999999999999998,5217,15,58,78
0.10000000000000009,5218,0,58,59
0.10000000000000009,5218,1,58,32
0.10000000000000009,5218,2,58,53
0.09999999999999987,5218,3,58,46
0.10000000000000009,5218,4,58,14
0.06590909090909092,5218,5,58,15
0.09999999999999987,5218,6,58,46
0.10000000000000009,5218,7,58,30
0.10000000000000009,5218,8,58,37
0.06818181818181834,5218,9,58,47
0.09999999999999964,5218,10,58,44
0.10000000000000009,5218,11,58,42
0.10000000000000009,5218,12,58,56
0.10000000000000009,5218,13,58,36
0.09999999999999964,5218,14,58,32
0.10000000000000009,5218,15,58,38
0.06590909090909092,5219,0,58,55
0.10000000000000009,5219,1,58,33
0.09999999999999964,5219,2,58,43
0.0681818181818179,5219,3,58,64
0.09999999999999964,5219,4,58,49
0.09999999999999964,5219,5,58,12
0.06818181818181834,5219,6,58,23
0.10000000000000053,5219,7,58,53
0.09999999999999964,5219,8,58,33
0.10000000000000053,5219,9,58,56
0.06818181818181834,5219,10,58,74
0.10000000000000053,5219,11,58,78
0.10000000000000053,5219,12,58,57
0.10000000000000053,5219,13,58,81
0.09999999999999964,5219,14,58,67
0.09999999999999964,5219,15,58,53
0.09999999999999964,5220,0,58,60
0.09999999999999964,5220,1,58,60
0.10000000000000053,5220,2,58,55
0.10000000000000053,5220,3,58,44
0.09999999999999964,5220,4,58,54
0.06590909090909047,5220,5,58,66
0.09999999999999964,5220,6,58,29
0.09999999999999964,5220,7,58,31
0.09999999999999964,5220,8,58,63
0.10000000000000053,5220,9,58,63
0.09999999999999964,5220,10,58,69
0.09999999999999964,5220,11,58,76
0.09999999999999964,5220,12,58,60
0.09999999999999964,5220,13,58,39
0.09999999999999964,5220,14,58,78
0.10000000000000142,5220,15,58,69
0.10000000000000142,5221,0,58,59
0.09999999999999964,5221,1,58,40
0.06818181818181834,5221,2,58,49
0.09999999999999964,5221,3,58,73
0.09999999999999964,5221,4,58,1
0.09999999999999964,5221,5,58,22
0.06818181818181657,5221,6,58,42
0.09999999999999964,5221,7,58,31
0.09999999999999964,5221,8,58,33
0.09999999999999964,5221,9,58,16
0.09999999999999964,5221,10,58,37
0.09999999999999964,5221,11,58,20
0.05681818181818166,5221,12,58,45
0.09999999999999964,5221,13,58,41
0.09999999999999964,5221,14,58,28
0.10000000000000142,5221,15,58,29
0.06818181818181834,5222,0,58,29
0.10000000000000142,5222,1,58,24
0.06818181818181834,5222,2,58,36
0.09999999999999964,5222,3,58,58
0.10000000000000142,5222,4,58,31
0.09999999999999964,5222,5,58,35
0.09999999999999964,5222,6,58,13
0.09999999999999964,5222,7,58,59
0.09999999999999964,5222,8,58,28
0.09999999999999964,5222,9,58,30
0.09999999999999964,5222,10,58,37
0.09999999999999964,5222,11,58,14
0.05681818181818166,5222,12,58,12
0.09999999999999964,5222,13,58,15
0.09999999999999964,5222,14,58,46
0.10000000000000142,5222,15,58,16
0.09999999999999964,5223,0,58,19
0.10000000000000142,5223,1,58,23
0.09999999999999964,5223,2,58,36
0.10000000000000142,5223,3,58,28
0.10000000000000142,5223,4,58,37
0.09999999999999787,5223,5,58,21
0.10000000000000142,5223,6,58,42
0.10000000000000142,5223,7,58,28
0.06818181818182012,5223,8,58,41
0.09999999999999787,5223,9,58,36
0.10000000000000142,5223,10,58,44
0.10000000000000142,5223,11,58,18
0.10000000000000142,5223,12,58,18
0.09999999999999787,5223,13,58,11
0.10000000000000142,5223,14,58,32
0.09999999999999787,5223,15,58,20
0.10000000000000142,5224,0,58,37
0.10000000000000142,5224,1,58,34
0.10000000000000142,5224,2,58,27
0.09999999999999787,5224,3,58,10
0.10000000000000142,5224,4,58,47
0.10000000000000142,5224,5,58,29
0.10000000000000142,5224,6,58,24
0.09999999999999787,5224,7,58,19
0.10000000000000142,5224,8,58,46
0.09999999999999787,5224,9,58,18
0.06818181818181657,5224,10,58,39
0.10000000000000142,5224,11,58,38
0.10000000000000142,5224,12,58,43
0.09999999999999787,5224,13,58,28
0.09999999999999787,5224,14,58,11
0.09999999999999787,5224,15,58,48
0.10000000000000142,5225,0,58,25
0.09999999999999787,5225,1,58,27
0.09999999999999787,5225,2,58,16
0.06818181818181657,5225,3,58,21
0.004545454545453964,5225,4,58,28
0.06818181818182012,5225,5,58,51
0.09999999999999787,5225,6,58,26
0.06818181818181657,5225,7,58,38
0.09999999999999787,5225,8,58,37
0.10000000000000142,5225,9,58,25
0.10000000000000142,5225,10,58,42
0.10000000000000142,5225,11,58,17
0.09999999999999787,5225,12,58,16
0.06818181818181657,5225,13,58,30
0.10000000000000142,5225,14,58,58
0.06818181818181657,5225,15,58,68
0.09999999999999787,5226,0,58,18
0.09999999999999787,5226,1,58,22
0.10000000000000142,5226,2,58,17
0.06818181818182012,5226,3,58,21
0.09999999999999787,5226,4,58,33
0.10000000000000142,5226,5,58,21
0.06818181818182012,5226,6,58,28
0.10000000000000142,5226,7,58,35
0.10000000000000142,5226,8,58,24
0.09999999999999787,5226,9,58,42
0.10000000000000142,5226,10,58,45
0.0022727272727287584,5226,11,58,23
0.10000000000000142,5226,12,58,25
0.09999999999999787,5226,13,58,40
0.10000000000000142,5226,14,58,22
0.10000000000000142,5226,15,58,31
0.10000000000000142,5227,0,58,17
0.09999999999999787,5227,1,58,39
0.10000000000000142,5227,2,58,14
0.09999999999999787,5227,3,58,31
0.09999999999999787,5227,4,58,33
0.09999999999999787,5227,5,58,23
0.10000000000000142,5227,6,58,22
0.09999999999999787,5227,7,58,33
0.10000000000000142,5227,8,58,27
0.09999999999999787,5227,9,58,31
0.10000000000000142,5227,10,58,21
0.06818181818181657,5227,11,58,28
0.09999999999999787,5227,12,58,26
0.10000000000000142,5227,13,58,12
0.10000000000000142,5227,14,58,7
0.09999999999999787,5227,15,58,20
0.06818181818181657,5228,0,58,28
0.09999999999999787,5228,1,58,24
0.09999999999999787,5228,2,58,19
0.10000000000000142,5228,3,58,14
0.10000000000000142,5228,4,58,28
0.10000000000000142,5228,5,58,13
0.10000000000000142,5228,6,58,24
0.10000000000000142,5228,7,58,39
0.10000000000000142,5228,8,58,9
0.09999999999999432,5228,9,58,31
0.10000000000000142,5228,10,58,33
0.10000000000000142,5228,11,58,7
0.10000000000000142,5228,12,58,9
0.10000000000000142,5228,13,58,22
0.10000000000000142,5228,14,58,1
0.10000000000000142,5228,15,58,6
0.06818181818182012,5229,0,58,8
0.10000000000000142,5229,1,58,13
0.09999999999999432,5229,2,58,7
0.10000000000000142,5229,3,58,13
0.10000000000000142,5229,4,58,10
0.10000000000000142,5229,5,58,5
0.10000000000000142,5229,6,58,9
0.10000000000000142,5229,7,58,13
0.10000000000000142,5229,8,58,4
0.05909090909091219,5229,9,58,6
0.10000000000000142,5229,10,58,9
0.09999999999999432,5229,11,58,9
0.10000000000000142,5229,12,58,6
0.10000000000000142,5229,13,58,11
0.10000000000000142,5229,14,58,2
0.09999999999999432,5229,15,58,7
0.10000000000000142,5230,0,58,15
0.10000000000000142,5230,1,58,14
0.10000000000000142,5230,2,58,8
0.045454545454546746,5230,3,58,8
0.10000000000000142,5230,4,58,7
0.10000000000000142,5230,5,58,9
0.10000000000000142,5230,6,58,1
0.10000000000000142,5230,7,58,3
0.10000000000000142,5230,8,58,13
0.10000000000000142,5230,9,58,1
0.10000000000000142,5230,10,58,10
0.10000000000000142,5230,11,58,3
0.10000000000000142,5230,12,58,7
0.10000000000000142,5230,13,58,9
0.10000000000000142,5230,14,58,5
0.09999999999999432,5230,15,58,11
0.10000000000000142,5231,0,58,10
0.09999999999999432,5231,1,58,4
0.10000000000000142,5231,2,58,10
0.10000000000000142,5231,3,58,11
0.10000000000000142,5231,4,58,5
0.06818181818181301,5231,5,58,7
0.09999999999999432,5231,6,58,9
0.10000000000000142,5231,7,58,9
0.10000000000000142,5231,8,58,8
0.09999999999999432,5231,9,58,4
0.10000000000000142,5231,10,58,7
0.09999999999999432,5231,11,58,9
0.10000000000000142,5231,12,58,2
0.10000000000000142,5231,13,58,6
0.09999999999999432,5231,14,58,17
0.10000000000000142,5231,15,58,12
0.10000000000000142,5232,0,58,6
0.056818181818186986,5232,1,58,7
0.10000000000000142,5232,2,58,9
0.10000000000000142,5232,3,58,10
0.10000000000000142,5232,4,58,2
0.10000000000000142,5232,5,58,5
0.06818181818182012,5232,6,58,9
0.10000000000000142,5232,7,58,11
0.10000000000000142,5232,8,58,1
0.09999999999999432,5232,9,58,11
0.10000000000000142,5232,10,58,2
0.09999999999999432,5232,11,58,13
0.10000000000000142,5232,12,58,8
0.045454545454546746,5232,13,58,14
0.09999999999999432,5232,14,58,5
0.10000000000000142,5232,15,58,9
0.10000000000000142,5233,0,58,8
0.09999999999999432,5233,1,58,5
0.10000000000000142,5233,2,58,4
0.10000000000000142,5233,3,58,4
0.10000000000000142,5233,4,58,5
0.09999999999999432,5233,5,58,3
0.10000000000000142,5233,6,58,3
0.10000000000000142,5233,7,58,7
0.10000000000000142,5233,8,58,6
0.10000000000000142,5233,9,58,8
0.10000000000000142,5233,10,58,6
0.10000000000000142,5233,11,58,5
0.10000000000000142,5233,12,58,5
0.10000000000000142,5233,13,58,9
0.10000000000000142,5233,14,58,7
0.10000000000000142,5233,15,58,9
0.10000000000000853,5234,0,58,9
0.10000000000000853,5234,1,58,6
0.09999999999999432,5234,2,58,5
0.09999999999999432,5234,3,58,4
0.09999999999999432,5234,4,58,4
0.09999999999999432,5234,5,58,4
0.09999999999999432,5234,6,58,3
0.09999999999999432,5234,7,58,3
0.10000000000000853,5234,8,58,3
0.09999999999999432,5234,9,58,9
0.09999999999999432,5234,10,58,9
0.10000000000000853,5234,11,58,8
0.10000000000000853,5234,12,58,9
0.10000000000000853,5234,13,58,7
0.09999999999999432,5234,14,58,6
0.09999999999999432,5234,15,58,5
0.09999999999999432,5235,0,58,10
0.09999999999999432,5235,1,58,3
0.09999999999999432,5235,2,58,3
0.10000000000000853,5235,3,58,10
0.09999999999999432,5235,4,58,6
0.09999999999999432,5235,5,58,10
0.09999999999999432,5235,6,58,6
0.10000000000000853,5235,7,58,8
0.09999999999999432,5235,8,58,4
0.10000000000000853,5235,9,58,3
0.09999999999999432,5235,10,58,7
0.10000000000000853,5235,11,58,5
0.09999999999999432,5235,12,58,11
0.09999999999999432,5235,13,58,3
0.09999999999999432,5235,14,58,5
0.10000000000000853,5235,15,58,8
0.09999999999999432,5236,0,58,10
0.09999999999999432,5236,1,58,12
0.09999999999999432,5236,2,58,5
0.09999999999999432,5236,3,58,11
0.10000000000000853,5236,4,58,3
0.09999999999999432,5236,5,58,6
0.09999999999999432,5236,6,58,6
0.10000000000000853,5236,7,58,9
0.10000000000000853,5236,8,58,5
0.09999999999999432,5236,9,58,4
0.09999999999999432,5236,10,58,7
0.10000000000000853,5236,11,58,3
0.09999999999999432,5236,12,58,5
0.10000000000000853,5236,13,58,9
0.09999999999999432,5236,14,58,6
0.10000000000000853,5236,15,58,7
0.09999999999999432,5237,0,58,4
0.09999999999999432,5237,1,58,5
0.09999999999999432,5237,2,58,6
0.09999999999999432,5237,3,58,5
0.09999999999999432,5237,4,58,5
0.09999999999999432,5237,5,58,3
0.09999999999999432,5237,6,58,12
0.09999999999999432,5237,7,58,19
0.10000000000000853,5237,8,58,9
0.09999999999999432,5237,9,58,8
0.09999999999999432,5237,10,58,7
0.10000000000000853,5237,11,58,4
0.09999999999999432,5237,12,58,6
0.09999999999999432,5237,13,58,3
0.10000000000000853,5237,14,58,7
0.09999999999999432,5237,15,58,3
0.09999999999999432,5238,0,58,4
0.09999999999999432,5238,1,58,12
0.09999999999999432,5238,2,58,7
0.09999999999999432,5238,3,58,8
0.09999999999999432,5238,4,58,10
0.10000000000000853,5238,5,58,5
0.10000000000000853,5238,6,58,3
0.09999999999999432,5238,7,58,15
0.10000000000000853,5238,8,58,6
0.10000000000000853,5238,9,58,4
0.10000000000000853,5238,10,58,7
0.09999999999999432,5238,11,58,6
0.09999999999999432,5238,12,58,5
0.10000000000000853,5238,13,58,5
0.09999999999999432,5238,14,58,4
0.09999999999999432,5238,15,58,5
0.09999999999999432,5239,0,58,4
0.09999999999999432,5239,1,58,11
0.09999999999999432,5239,2,58,3
0.10000000000000853,5239,3,58,10
0.10000000000000853,5239,4,58,10
0.10000000000000853,5239,5,58,8
0.10000000000000853,5239,6,58,6
0.09999999999999432,5239,7,58,5
0.10000000000000853,5239,8,58,8
0.10000000000000853,5239,9,58,5
0.09999999999999432,5239,10,58,6
0.10000000000000853,5239,11,58,8
0.10000000000000853,5239,12,58,8
0.09999999999999432,5239,13,58,10
0.10000000000000853,5239,14,58,5
0.10000000000000853,5239,15,58,7
0.09999999999999432,5240,0,58,7
0.09999999999999432,5240,1,58,6
0.09999999999999432,5240,2,58,10
0.09999999999999432,5240,3,58,4
0.09999999999999432,5240,4,58,7
0.09999999999999432,5240,5,58,6
0.09999999999999432,5240,6,58,6
0.09999999999999432,5240,7,58,4
0.09999999999999432,5240,8,58,4
0.09999999999999432,5240,9,58,7
0.10000000000000853,5240,10,58,4
0.09999999999999432,5240,11,58,6
0.09999999999999432,5240,12,58,9
0.10000000000000853,5240,13,58,5
0.09999999999999432,5240,14,58,8
0.10000000000000853,5240,15,58,5
0.09999999999999432,5241,0,58,9
0.09999999999999432,5241,1,58,5
0.09999999999999432,5241,2,58,10
0.09999999999999432,5241,3,58,8
0.09999999999999432,5241,4,58,9
0.09999999999999432,5241,5,58,5
0.09999999999999432,5241,6,58,5
0.09999999999999432,5241,7,58,8
0.09999999999999432,5241,8,58,4
0.09999999999999432,5241,9,58,7
0.09999999999999432,5241,10,58,3
0.09999999999999432,5241,11,58,6
0.09999999999999432,5241,12,58,6
0.09999999999999432,5241,13,58,7
0.10000000000000853,5241,14,58,9
0.10000000000000853,5241,15,58,8
0.09999999999999432,5242,0,58,13
0.09999999999999432,5242,1,58,2
0.10000000000000853,5242,2,58,1
0.10000000000000853,5242,3,58,4
0.10000000000000853,5242,4,58,2
0.09999999999999432,5242,5,58,3
0.09999999999999432,5242,6,58,1
0.10000000000000853,5242,7,58,4
0.09999999999999432,5242,8,58,2
0.09999999999999432,5242,9,58,2
0.09999999999999432,5242,10,58,3
0.10000000000000853,5242,11,58,3
0.09999999999999432,5242,12,58,2
0.09999999999999432,5242,13,58,3
0.09999999999999432,5242,14,58,1
0.10000000000000853,5242,15,58,4
0.10000000000000853,5243,0,58,1
0.09999999999999432,5243,1,58,3
0.10000000000000853,5243,2,58,2
0.09999999999999432,5243,3,58,1
0.09999999999999432,5243,4,58,4
0.09999999999999432,5243,5,58,1
0.10000000000000853,5243,6,58,2
0.09999999999999432,5243,7,58,1
0.09999999999999432,5243,8,58,2
0.09999999999999432,5243,9,58,2
0.09999999999999432,5243,10,58,14
0.09999999999999432,5243,11,58,19
0.09999999999999432,5243,12,58,23
0.09999999999999432,5243,13,58,10
0.09999999999999432,5243,14,58,14
0.10000000000002274,5243,15,58,9
0.09999999999999432,5244,0,58,9
0.09999999999999432,5244,1,58,13
0.06818181818181301,5244,2,58,13
0.10000000000002274,5244,3,58,13
0.09999999999999432,5244,4,58,12
0.10000000000002274,5244,5,58,15
0.09999999999999432,5244,6,58,4
0.004545454545450411,5244,7,58,25
0.09999999999999432,5244,8,58,14
0.09999999999999432,5244,9,58,15
0.09999999999999432,5244,10,58,20
0.09999999999999432,5244,11,58,49
0.10000000000002274,5244,12,58,28
0.10000000000002274,5244,13,58,18
0.09999999999999432,5244,14,58,22
0.10000000000002274,5244,15,58,32
0.09999999999999432,5245,0,58,22
0.10000000000002274,5245,1,58,32
0.09999999999999432,5245,2,58,16
0.09999999999999432,5245,3,58,21
0.09999999999999432,5245,4,58,17
0.09999999999999432,5245,5,58,28
0.09999999999999432,5245,6,58,23
0.09999999999999432,5245,7,58,20
0.09999999999999432,5245,8,58,11
0.10000000000002274,5245,9,58,17
0.09999999999999432,5245,10,58,13
0.09999999999999432,5245,11,58,19
0.10000000000002274,5245,12,58,19
0.09999999999999432,5245,13,58,18
0.10000000000002274,5245,14,58,16
0.09999999999999432,5245,15,58,20
0.09999999999999432,5246,0,58,27
0.09999999999999432,5246,1,58,26
0.09999999999999432,5246,2,58,23
0.09999999999999432,5246,3,58,67
0.09999999999999432,5246,4,58,9
0.09999999999999432,5246,5,58,6
0.004545454545450411,5246,6,58,23
0.10000000000000009,5246,7,65,37
0.10000000000000009,5246,8,65,44
0.10000000000000009,5246,9,65,54
0.09999999999999964,5246,10,65,41
0.09999999999999964,5246,11,65,37
0.09999999999999964,5246,12,65,47
0.09999999999999964,5246,13,65,35
0.09999999999999964,5246,14,65,54
0.09999999999999964,5246,15,65,79
0.10000000000000142,5247,0,65,1
0.10000000000000142,5247,1,65,11
0.10000000000000142,5247,2,65,11
0.09999999999999787,5247,3,65,23
0.10000000000000142,5247,4,65,10
0.09999999999999787,5247,5,65,6
0.10000000000000142,5247,6,65,14
0.09999999999999432,5247,7,65,12
0.09999999999999432,5247,8,65,8
0.10000000000000142,5247,9,65,9
0.09999999999999432,5247,10,65,15
0.10000000000000142,5247,11,65,12
0.10000000000000142,5247,12,65,6
0.10000000000000142,5247,13,65,6
0.10000000000000142,5247,14,65,7
0.10000000000000142,5247,15,65,5
0.10000000000000142,5248,0,65,3
0.10000000000000142,5248,1,65,4
0.10000000000000142,5248,2,65,8
0.10000000000000142,5248,3,65,5
0.10000000000000142,5248,4,65,5
0.10000000000000142,5248,5,65,7
0.10000000000000142,5248,6,65,5
0.10000000000000142,5248,7,65,6
0.10000000000000142,5248,8,65,11
0.10000000000000142,5248,9,65,9
0.09999999999999432,5248,10,65,4
0.10000000000000142,5248,11,65,7
0.10000000000000142,5248,12,65,6
0.10000000000000142,5248,13,65,9
0.10000000000000142,5248,14,65,4
0.10000000000000142,5248,15,65,8
0.10000000000000142,5249,0,65,10
0.10000000000000142,5249,1,65,4
0.10000000000000142,5249,2,65,7
0.09999999999999432,5249,3,65,6
0.09999999999999432,5249,4,65,5
0.09999999999999432,5249,5,65,9
0.10000000000000142,5249,6,65,4
0.10000000000000142,5249,7,65,11
0.10000000000000142,5249,8,65,4
0.10000000000000142,5249,9,65,7
0.09999999999999432,5249,10,65,8
0.10000000000000853,5249,11,65,4
0.10000000000000853,5249,12,65,9
0.10000000000000853,5249,13,65,9
0.09999999999999432,5249,14,65,7
0.10000000000000853,5249,15,65,12
0.09999999999999432,5250,0,65,7
0.09999999999999432,5250,1,65,7
0.09999999999999432,5250,2,65,11
0.09999999999999432,5250,3,65,15
0.09999999999999432,5250,4,65,12
0.09999999999999432,5250,5,65,16
0.09999999999999432,5250,6,65,6
0.10000000000000853,5250,7,65,14
0.09999999999999432,5250,8,65,9
0.09999999999999432,5250,9,65,14
0.09999999999999432,5250,10,65,12
0.09999999999999432,5250,11,65,9
0.09999999999999432,5250,12,65,12
0.10000000000000853,5250,13,65,9
0.10000000000000853,5250,14,65,3
0.10000000000000853,5250,15,65,2
0.10000000000000853,5251,0,65,12
0.10000000000000853,5251,1,65,7
0.10000000000000853,5251,2,65,7
0.09999999999999432,5251,3,65,9
0.09999999999999432,5251,4,65,7
0.09999999999999432,5251,5,65,6
0.09999999999999432,5251,6,65,18
0.09999999999999432,5251,7,65,15
0.10000000000000853,5251,8,65,10
0.09999999999999432,5251,9,65,8
0.09999999999999432,5251,10,65,7
0.09999999999999432,5251,11,65,5
0.09999999999999432,5251,12,65,5
0.09999999999999432,5251,13,65,7
0.09999999999999432,5251,14,65,11
0.09999999999999432,5251,15,65,16
0.09999999999999432,5252,0,65,4
0.09999999999999432,5252,1,65,9
0.09999999999999432,5252,2,65,5
0.09999999999999432,5252,3,65,4
0.09999999999999432,5252,4,65,11
0.09999999999999432,5252,5,65,7
0.09999999999999432,5252,6,65,21
0.10000000000000853,5252,7,65,13
0.10000000000000853,5252,8,65,18
0.09999999999999432,5252,9,65,27
0.09999999999999432,5252,10,65,10
0.10000000000000853,5252,11,65,20
0.09999999999999432,5252,12,65,1
0.09999999999999432,5252,13,65,1
0.09999999999999432,5252,14,65,1
0.09999999999999432,5252,15,65,1
0.09999999999999432,5253,0,65,1
0.09999999999999432,5253,1,65,1
0.09999999999999432,5253,2,65,1
0.09999999999999432,5253,3,65,1
0.09999999999999432,5253,4,65,1
0.10000000000000853,5253,5,65,1
0.09999999999999432,5253,6,65,1
0.10000000000000853,5253,7,65,1
0.09999999999999432,5253,8,65,1
0.09999999999999432,5253,9,65,1
0.10000000000000853,5253,10,65,2
0.09999999999999432,5253,11,65,2
0.09999999999999432,5253,12,65,2
0.09999999999999432,5253,13,65,3
0.09999999999999432,5253,14,65,4
0.10000000000000853,5253,15,65,1
0.10000000000000853,5254,0,65,1
0.10000000000000853,5254,1,65,1
0.10000000000000853,5254,2,65,1
0.09999999999999432,5254,3,65,1
0.10000000000000853,5254,4,65,1
0.09999999999999432,5254,5,65,25
0.09999999999999432,5254,6,65,31
0.09999999999999432,5254,7,65,38
0.10000000000002274,5254,8,65,42
0.10000000000002274,5254,9,65,33
0.09999999999999432,5254,10,65,36
0.09999999999999432,5254,11,65,23
0.09999999999999432,5254,12,65,24
0.09999999999999432,5254,13,65,26
0.10000000000002274,5254,14,65,31
0.09999999999999432,5254,15,65,34
0.09999999999999432,5255,0,65,39
0.09999999999999432,5255,1,65,14
0.09999999999999432,5255,2,65,22
0.09999999999999432,5255,3,65,22
0.09999999999999432,5255,4,65,10
0.09999999999999432,5255,5,65,10
0.10000000000002274,5255,6,65,7
0.09999999999999432,5255,7,65,8
0.09999999999999432,5255,8,65,7
0.10000000000002274,5255,9,65,4
0.09999999999999432,5255,10,65,5
0.09999999999999432,5255,11,65,7
0.09999999999999432,5255,12,65,16
0.09999999999999432,5255,13,65,7
0.09999999999999432,5255,14,65,2
0.09999999999999432,5255,15,65,31
0.09999999999999432,5256,0,65,49
0.09999999999999432,5256,1,65,40
0.09999999999999432,5256,2,65,25
0.09999999999999432,5256,3,65,36
0.09999999999999432,5256,4,65,39
0.09999999999999432,5256,5,65,45
0.09999999999999432,5256,6,65,43
0.09999999999999432,5256,7,65,40
0.09999999999999432,5256,8,65,31
0.09999999999999432,5256,9,65,47
0.09999999999999432,5256,10,65,43
0.09999999999999432,5256,11,65,48
0.10000000000002274,5256,12,65,41
0.09999999999999432,5256,13,65,33
0.09999999999999432,5256,14,65,45
0.09999999999999432,5256,15,65,50
0.10000000000002274,5257,0,65,37
0.09999999999999432,5257,1,65,16
0.09999999999999432,5257,2,65,9
0.09999999999999432,5257,3,65,9
0.10000000000002274,5257,4,65,24
0.10000000000002274,5257,5,65,16
0.10000000000002274,5257,6,65,8
0.09999999999999432,5257,7,65,25
0.09999999999999432,5257,8,65,5
0.09999999999999432,5257,9,65,7
0.09999999999999432,5257,10,65,3
0.09999999999999432,5257,11,65,12
0.10000000000002274,5257,12,65,27
0.09999999999999432,5257,13,65,22
0.10000000000002274,5257,14,65,26
0.09999999999999432,5257,15,65,36
0.09999999999999432,5258,0,65,17
0.10000000000002274,5258,1,65,13
0.09999999999999432,5258,2,65,15
0.09999999999999432,5258,3,65,33
0.10000000000002274,5258,4,65,38
0.09999999999999432,5258,5,65,44
0.09999999999999432,5258,6,65,42
0.09999999999999432,5258,7,62,11
0.10000000000000853,5258,8,62,6
0.09999999999999432,5258,9,62,20
0.10000000000000853,5258,10,62,13
0.10000000000000853,5258,11,62,27
0.09999999999999432,5258,12,62,3
0.09999999999999432,5258,13,62,8
0.06818181818181301,5258,14,62,13
0.09999999999999432,5258,15,62,14
0.09999999999999432,5259,0,62,18
0.10000000000000853,5259,1,62,8
0.09999999999999432,5259,2,62,19
0.09999999999999432,5259,3,62,24
0.09999999999999432,5259,4,62,33
0.10000000000000853,5259,5,62,11
0.09999999999999432,5259,6,62,7
0.10000000000000853,5259,7,62,19
0.10000000000000853,5259,8,62,7
0.10000000000000853,5259,9,62,11
0.10000000000000853,5259,10,62,13
0.09999999999999432,5259,11,62,11
0.10000000000000853,5259,12,62,20
0.10000000000000853,5259,13,62,9
0.09999999999999432,5259,14,62,11
0.09999999999999432,5259,15,62,1
0.10000000000000853,5260,0,62,29
0.10000000000000853,5260,1,62,15
0.09999999999999432,5260,2,62,10
0.06818181818181301,5260,3,62,15
0.09999999999999432,5260,4,62,18
0.09999999999999432,5260,5,62,31
0.09999999999999432,5260,6,62,18
0.09999999999999432,5260,7,62,21
0.09999999999999432,5260,8,62,24
0.09999999999999432,5260,9,62,14
0.09999999999999432,5260,10,62,19
0.09999999999999432,5260,11,62,9
0.09999999999999432,5260,12,62,15
0.10000000000002274,5260,13,62,38
0.09999999999999432,5260,14,62,34
0.09999999999999432,5260,15,62,26
0.10000000000002274,5261,0,62,18
0.09999999999999432,5261,1,62,10
0.09999999999999432,5261,2,62,15
0.10000000000002274,5261,3,62,8
0.09999999999999432,5261,4,62,16
0.09999999999999432,5261,5,62,17
0.09999999999999432,5261,6,62,26
0.10000000000002274,5261,7,62,19
0.09999999999999432,5261,8,62,8
0.09999999999999432,5261,9,62,38
0.09999999999999432,5261,10,62,4
0.09999999999999432,5261,11,62,19
0.10000000000002274,5261,12,62,31
0.09999999999999432,5261,13,62,45
0.10000000000002274,5261,14,62,38
0.09999999999999432,5261,15,62,20
0.10000000000000142,5262,0,55,56
0.10000000000000142,5262,1,55,52
0.10000000000000142,5262,2,55,99
0.10000000000000142,5262,3,55,24
0.10000000000000142,5262,4,55,53
0.10000000000000142,5262,5,55,71
0.10000000000000142,5262,6,55,58
0.09999999999999432,5262,7,55,69
0.10000000000000142,5262,8,55,34
0.10000000000000142,5262,9,55,71
0.09999999999999432,5262,10,55,28
0.09999999999999432,5262,11,55,58
0.10000000000000853,5262,12,55,80
0.10000000000000853,5262,13,55,57
0.10000000000000853,5262,14,55,47
0.09999999999999432,5262,15,55,55
0.10000000000000853,5263,0,55,44
0.10000000000000853,5263,1,55,53
0.09999999999999432,5263,2,55,75
0.09999999999999432,5263,3,55,56
0.09999999999999432,5263,4,55,58
0.09999999999999432,5263,5,55,43
0.09999999999999432,5263,6,55,68
0.09999999999999432,5263,7,55,60
0.10000000000000853,5263,8,55,39
0.10000000000000853,5263,9,55,61
0.10000000000000853,5263,10,55,64
0.09999999999999432,5263,11,55,36
0.09999999999999432,5263,12,55,71
0.09999999999999432,5263,13,55,81
0.10000000000000853,5263,14,55,27
0.10000000000000853,5263,15,55,25
0.10000000000000853,5264,0,55,46
0.09999999999999432,5264,1,55,64
0.10000000000000853,5264,2,55,70
0.10000000000000853,5264,3,55,50
0.09999999999999432,5264,4,55,86
0.10000000000000853,5264,5,55,92
0.09999999999999432,5264,6,55,60
0.09999999999999432,5264,7,55,59
0.10000000000000853,5264,8,55,66
0.09999999999999432,5264,9,55,74
0.09999999999999432,5264,10,55,59
0.10000000000000853,5264,11,55,84
0.09999999999999432,5264,12,55,82
0.10000000000000853,5264,13,55,72
0.09999999999999432,5264,14,55,53
0.10000000000000853,5264,15,55,28
0.09999999999999432,5265,0,55,102
0.10000000000000853,5265,1,55,41
0.10000000000000853,5265,2,55,45
0.09999999999999432,5265,3,55,44
0.10000000000000853,5265,4,55,72
0.10000000000000853,5265,5,55,71
0.10000000000000853,5265,6,55,26
0.09999999999999432,5265,7,55,65
0.09999999999999432,5265,8,55,69
0.09999999999999432,5265,9,55,59
0.10000000000000853,5265,10,55,78
0.10000000000000853,5265,11,55,22
0.09999999999999432,5265,12,55,53
0.10000000000000853,5265,13,55,52
0.09999999999999432,5265,14,55,52
0.10000000000000853,5265,15,55,63
0.10000000000000853,5266,0,55,58
0.10000000000000853,5266,1,55,63
0.09999999999999432,5266,2,55,24
0.10000000000000853,5266,3,55,60
0.09999999999999432,5266,4,55,63
0.09999999999999432,5266,5,55,56
0.10000000000000853,5266,6,55,67
0.10000000000000853,5266,7,55,87
0.10000000000000853,5266,8,55,47
0.09999999999999432,5266,9,55,80
0.10000000000000853,5266,10,55,67
0.09999999999999432,5266,11,55,57
0.10000000000000853,5266,12,55,91
0.10000000000000853,5266,13,55,33
0.09999999999999432,5266,14,55,72
0.09999999999999432,5266,15,55,56
0.09999999999999432,5267,0,55,72
0.10000000000000853,5267,1,55,75
0.09999999999999432,5267,2,55,81
0.09999999999999432,5267,3,55,62
0.09999999999999432,5267,4,55,84
0.09999999999999432,5267,5,55,73
0.09999999999999432,5267,6,55,60
0.10000000000002274,5267,7,55,64
0.09999999999999432,5267,8,55,87
0.09999999999999432,5267,9,55,47
0.09999999999999432,5267,10,55,85
0.09999999999999432,5267,11,55,77
0.09999999999999432,5267,12,55,73
0.09999999999999432,5267,13,55,59
0.09999999999999432,5267,14,55,49
0.09999999999999432,5267,15,55,72
0.09999999999999432,5268,0,55,66
0.10000000000002274,5268,1,55,83
0.09999999999999432,5268,2,55,36
0.10000000000002274,5268,3,55,76
0.09999999999999432,5268,4,55,47
0.09999999999999432,5268,5,55,59
0.10000000000002274,5268,6,55,52
0.09999999999999432,5268,7,55,53
0.09999999999999432,5268,8,55,75
0.09999999999999432,5268,9,55,79
0.09999999999999432,5268,10,55,64
0.10000000000002274,5268,11,55,83
0.09999999999999432,5268,12,55,61
0.09999999999999432,5268,13,55,20
0.09999999999999432,5268,14,55,44
0.10000000000002274,5268,15,55,66
0.09999999999999432,5269,0,55,52
0.09999999999999432,5269,1,55,40
0.09999999999999432,5269,2,55,41
0.09999999999999432,5269,3,55,33
0.10000000000002274,5269,4,55,53
0.09999999999999432,5269,5,55,28
0.10000000000002274,5269,6,55,39
0.09999999999999432,5269,7,55,39
0.09999999999999432,5269,8,55,43
0.09999999999999432,5269,9,55,42
0.09999999999999432,5269,10,55,66
0.09999999999999432,5269,11,55,71
0.10000000000002274,5269,12,55,54
0.09999999999999432,5269,13,55,64
0.09999999999999432,5269,14,55,48
0.09999999999999432,5269,15,55,40
0.10000000000002274,5270,0,55,34
0.09999999999999432,5270,1,55,38
0.09999999999999432,5270,2,55,44
0.09999999999999432,5270,3,55,34
0.09999999999999432,5270,4,55,41
0.09999999999999432,5270,5,55,46
0.09999999999999432,5270,6,55,60
0.10000000000002274,5270,7,55,48
0.09999999999999432,5270,8,55,63
0.10000000000002274,5270,9,55,52
0.10000000000002274,5270,10,55,70
0.09999999999999432,5270,11,55,18
0.013636363636351234,5270,12,55,31
0.09999999999999432,5270,13,55,66
0.09999999999999432,5270,14,55,42
0.09999999999999432,5270,15,55,20
0.09999999999999432,5271,0,55,47
0.09999999999999432,5271,1,55,48
0.09999999999999432,5271,2,55,45
0.09999999999999432,5271,3,55,54
0.09999999999999432,5271,4,55,51
0.09999999999999432,5271,5,55,37
0.09999999999999432,5271,6,55,39
0.09999999999999432,5271,7,55,70
0.10000000000002274,5271,8,55,52
0.09999999999999432,5271,9,55,102
0.10000000000000142,5271,10,62,68
0.10000000000000142,5271,11,62,4
0.10000000000000142,5271,12,62,103
0.10000000000000142,5271,13,62,4
0.10000000000000142,5271,14,62,5
0.10000000000000142,5271,15,62,7
0.10000000000000142,5272,0,62,101
0.10000000000000142,5272,1,62,5
0.10000000000000142,5272,2,62,97
0.10000000000000142,5272,3,62,4
0.09999999999999432,5272,4,62,6
0.10000000000000142,5272,5,62,24
0.10000000000000142,5272,6,62,101
0.10000000000000142,5272,7,62,4
0.10000000000000142,5272,8,62,102
0.10000000000000142,5272,9,62,4
0.10000000000000142,5272,10,62,6
0.10000000000000142,5272,11,62,4
0.10000000000000142,5272,12,62,105
0.10000000000000142,5272,13,62,5
0.10000000000000142,5272,14,62,102
0.10000000000000142,5272,15,62,4
0.10000000000000142,5273,0,62,7
0.10000000000000142,5273,1,62,31
0.09999999999999432,5273,2,62,100
0.10000000000000142,5273,3,62,102
0.10000000000000142,5273,4,62,4
0.10000000000000142,5273,5,62,6
0.10000000000000142,5273,6,62,6
0.10000000000000142,5273,7,62,101
0.10000000000000142,5273,8,62,5
0.10000000000000142,5273,9,62,102
0.10000000000000142,5273,10,62,4
0.10000000000000142,5273,11,62,2
0.10000000000000142,5273,12,62,32
0.10000000000000142,5273,13,62,101
0.10000000000000142,5273,14,62,4
0.10000000000000142,5273,15,62,104
0.10000000000000142,5274,0,62,4
0.10000000000000142,5274,1,62,6
0.09999999999999432,5274,2,62,24
0.10000000000000142,5274,3,62,62
0.10000000000000142,5274,4,62,3
0.10000000000000142,5274,5,62,66
0.10000000000000142,5274,6,62,2
0.09999999999999432,5274,7,62,2
0.10000000000000142,5274,8,62,21
0.10000000000000142,5274,9,62,62
0.10000000000000142,5274,10,62,3
0.09999999999999432,5274,11,62,66
0.09999999999999432,5274,12,62,3
0.10000000000000853,5274,13,62,3
0.09999999999999432,5274,14,62,21
0.09999999999999432,5274,15,62,55
0.09999999999999432,5275,0,62,71
0.09999999999999432,5275,1,62,90
0.09999999999999432,5275,2,62,90
0.10000000000000853,5275,3,62,41
0.09999999999999432,5275,4,62,127
0.09999999999999432,5275,5,62,64
0.10000000000000853,5275,6,62,51
0.09999999999999432,5275,7,62,48
0.09999999999999432,5275,8,62,127
0.09999999999999432,5275,9,62,101
0.09999999999999432,5275,10,62,4
0.09999999999999432,5275,11,62,32
0.09999999999999432,5275,12,62,127
0.10000000000000853,5275,13,62,18
0.10000000000000853,5275,14,62,102
0.10000000000000853,5275,15,62,3
0.09999999999999432,5276,0,62,127
0.10000000000000853,5276,1,62,3
0.09999999999999432,5276,2,62,94
0.10000000000000853,5276,3,62,2
0.09999999999999432,5276,4,62,4
0.09999999999999432,5276,5,62,36
0.09999999999999432,5276,6,62,127
0.09999999999999432,5276,7,62,16
0.09999999999999432,5276,8,62,93
0.09999999999999432,5276,9,62,2
0.09999999999999432,5276,10,62,127
0.10000000000000853,5276,11,62,3
0.09999999999999432,5276,12,62,96
0.10000000000000853,5276,13,62,3
0.09999999999999432,5276,14,62,4
0.09999999999999432,5276,15,62,26
0.10000000000000853,5277,0,62,127
0.09999999999999432,5277,1,62,15
0.09999999999999432,5277,2,62,98
0.10000000000000853,5277,3,62,2
0.09999999999999432,5277,4,62,127
0.10000000000000853,5277,5,62,2
0.09999999999999432,5277,6,62,84
0.10000000000000853,5277,7,62,3
0.09999999999999432,5277,8,62,127
0.09999999999999432,5277,9,62,13
0.09999999999999432,5277,10,62,53
0.10000000000000853,5277,11,62,127
0.09999999999999432,5277,12,62,12
0.09999999999999432,5277,13,62,87
0.10000000000000853,5277,14,62,127
0.10000000000000853,5277,15,62,18
0.10000000000000853,5278,0,62,49
0.09999999999999432,5278,1,62,127
0.09999999999999432,5278,2,62,92
0.10000000000000853,5278,3,62,3
0.09999999999999432,5278,4,62,4
0.09999999999999432,5278,5,62,37
0.10000000000000853,5278,6,62,127
0.09999999999999432,5278,7,62,11
0.09999999999999432,5278,8,62,92
0.10000000000000853,5278,9,62,3
0.09999999999999432,5278,10,62,1
0.09999999999999432,5278,11,62,127
0.10000000000000853,5278,12,62,3
0.09999999999999432,5278,13,62,77
0.10000000000000853,5278,14,62,3
0.09999999999999432,5278,15,62,4
0.09999999999999432,5279,0,62,58
0.10000000000000853,5279,1,62,127
0.09999999999999432,5279,2,62,18
0.09999999999999432,5279,3,62,92
0.09999999999999432,5279,4,62,3
0.09999999999999432,5279,5,62,2
0.09999999999999432,5279,6,62,127
0.09999999999999432,5279,7,62,92
0.10000000000000853,5279,8,62,3
0.09999999999999432,5279,9,62,1
0.09999999999999432,5279,10,62,4
0.10000000000000853,5279,11,62,3
0.10000000000000853,5279,12,62,127
0.09999999999999432,5279,13,62,14
0.09999999999999432,5279,14,62,85
0.10000000000000853,5279,15,62,3
0.09999999999999432,5280,0,62,127
0.09999999999999432,5280,1,62,2
0.09999999999999432,5280,2,62,127
0.10000000000000853,5280,3,62,3
0.09999999999999432,5280,4,62,120
0.09999999999999432,5280,5,62,127
0.09999999999999432,5280,6,62,89
0.10000000000000853,5280,7,62,44
0.09999999999999432,5280,8,62,127
0.10000000000000853,5280,9,62,127
0.09999999999999432,5280,10,62,8
0.09999999999999432,5280,11,62,74
0.09999999999999432,5280,12,62,3
0.09999999999999432,5280,13,62,3
0.09999999999999432,5280,14,62,126
0.10000000000000853,5280,15,62,8
0.09999999999999432,5281,0,62,3
0.09999999999999432,5281,1,62,77
0.10000000000000853,5281,2,62,2
0.09999999999999432,5281,3,62,39
0.09999999999999432,5281,4,62,127
0.10000000000000853,5281,5,62,124
0.09999999999999432,5281,6,62,8
0.09999999999999432,5281,7,62,67
0.10000000000000853,5281,8,62,3
0.09999999999999432,5281,9,62,25
0.09999999999999432,5281,10,62,124
0.10000000000000853,5281,11,62,8
0.10000000000000853,5281,12,62,127
0.09999999999999432,5281,13,62,127
0.10000000000000853,5281,14,62,125
0.09999999999999432,5281,15,62,127
0.09999999999999432,5282,0,62,27
0.09999999999999432,5282,1,62,34
0.09999999999999432,5282,2,62,127
0.10000000000000853,5282,3,62,127
0.10000000000000853,5282,4,62,39
0.09999999999999432,5282,5,62,41
0.09999999999999432,5282,6,62,127
0.09999999999999432,5282,7,62,76
0.10000000000000853,5282,8,62,30
0.09999999999999432,5282,9,62,127
0.10000000000000853,5282,10,62,127
0.09999999999999432,5282,11,62,85
0.09999999999999432,5282,12,62,3
0.09999999999999432,5282,13,62,3
0.09999999999999432,5282,14,62,126
0.09999999999999432,5282,15,62,9
0.10000000000000853,5283,0,62,3
0.09999999999999432,5283,1,62,90
0.09999999999999432,5283,2,62,2
0.09999999999999432,5283,3,62,127
0.09999999999999432,5283,4,62,7
0.09999999999999432,5283,5,62,62
0.10000000000000853,5283,6,62,127
0.09999999999999432,5283,7,62,63
0.10000000000000853,5283,8,62,119
0.09999999999999432,5283,9,62,90
0.09999999999999432,5283,10,62,49
0.09999999999999432,5283,11,62,89
0.10000000000000853,5283,12,62,91
0.09999999999999432,5283,13,62,67
0.09999999999999432,5283,14,62,89
0.09999999999999432,5283,15,62,58
0.10000000000000853,5284,0,62,19
0.10000000000000853,5284,1,62,82
0.09999999999999432,5284,2,62,63
0.10000000000000853,5284,3,62,44
0.09999999999999432,5284,4,62,72
0.09999999999999432,5284,5,62,97
0.10000000000000853,5284,6,62,89
0.09999999999999432,5284,7,62,89
0.10000000000000853,5284,8,62,99
0.09999999999999432,5284,9,62,127
0.09999999999999432,5284,10,62,95
0.10000000000002274,5284,11,62,74
0.09999999999999432,5284,12,62,120
0.09999999999999432,5284,13,62,72
0.10000000000002274,5284,14,62,96
0.09999999999999432,5284,15,62,64
0.09999999999999432,5285,0,62,93
0.09999999999999432,5285,1,62,61
0.09999999999999432,5285,2,62,127
0.09999999999999432,5285,3,62,63
0.09999999999999432,5285,4,62,103
0.09999999999999432,5285,5,62,96
0.09999999999999432,5285,6,62,62
0.09999999999999432,5285,7,62,53
0.09999999999999432,5285,8,62,127
0.10000000000002274,5285,9,62,62
0.09999999999999432,5285,10,62,91
0.10000000000002274,5285,11,62,64
0.09999999999999432,5285,12,62,51
0.09999999999999432,5285,13,62,127
0.09999999999999432,5285,14,62,55
0.09999999999999432,5285,15,62,107
0.10000000000002274,5286,0,62,100
0.09999999999999432,5286,1,62,61
0.09999999999999432,5286,2,62,57
0.09999999999999432,5286,3,62,126
0.09999999999999432,5286,4,62,62
0.09999999999999432,5286,5,62,109
0.10000000000002274,5286,6,62,66
0.09999999999999432,5286,7,62,106
0.10000000000002274,5286,8,62,52
0.09999999999999432,5286,9,62,119
0.10000000000002274,5286,10,62,51
0.09999999999999432,5286,11,62,113
0.09999999999999432,5286,12,62,92
0.10000000000002274,5286,13,62,62
0.09999999999999432,5286,14,62,113
0.09999999999999432,5286,15,62,64
0.09999999999999432,5287,0,62,110
0.10000000000002274,5287,1,62,108
0.09999999999999432,5287,2,62,127
0.09999999999999432,5287,3,62,127
0.09999999999999432,5287,4,62,127
0.10000000000002274,5287,5,62,120
0.09999999999999432,5287,6,62,110
0.09999999999999432,5287,7,62,127
0.09999999999999432,5287,8,62,78
0.09999999999999432,5287,9,62,7
0.09999999999999432,5287,10,62,122
0.09999999999999432,5287,11,62,119
0.10000000000002274,5287,12,62,75
0.09999999999999432,5287,13,62,127
0.09999999999999432,5287,14,62,10
0.09999999999999432,5287,15,62,115
0.10000000000002274,5288,0,62,123
0.10000000000002274,5288,1,62,84
0.09999999999999432,5288,2,62,124
0.09999999999999432,5288,3,62,10
0.09999999999999432,5288,4,62,117
0.09999999999999432,5288,5,62,55
0.09999999999999432,5288,6,62,127
0.09999999999999432,5288,7,62,78
0.09999999999999432,5288,8,62,50
0.09999999999999432,5288,9,62,124
0.10000000000002274,5288,10,62,107
0.09999999999999432,5288,11,62,127
0.09999999999999432,5288,12,62,87
0.10000000000002274,5288,13,62,7
0.09999999999999432,5288,14,62,126
0.09999999999999432,5288,15,62,99
0.09999999999999432,5289,0,62,81
0.09999999999999432,5289,1,62,127
0.09999999999999432,5289,2,62,10
0.09999999999999432,5289,3,62,127
0.09999999999999432,5289,4,62,122
0.10000000000002274,5289,5,62,91
0.09999999999999432,5289,6,62,126
0.09999999999999432,5289,7,62,9
0.09999999999999432,5289,8,62,126
0.09999999999999432,5289,9,62,54
0.10000000000002274,5289,10,62,75
0.09999999999999432,5289,11,62,125
0.10000000000002274,5289,12,62,81
0.09999999999999432,5289,13,62,66
0.09999999999999432,5289,14,62,37
0.09999999999999432,5289,15,62,93
0.09999999999999432,5290,0,62,86
0.10000000000002274,5290,1,62,6
0.09999999999999432,5290,2,62,127
0.09999999999999432,5290,3,62,117
0.09999999999999432,5290,4,62,68
0.10000000000002274,5290,5,62,6
0.10000000000002274,5290,6,62,116
0.09999999999999432,5290,7,62,115
0.10000000000002274,5290,8,62,4
0.09999999999999432,5290,9,62,120
0.10000000000002274,5290,10,62,3
0.09999999999999432,5290,11,62,127
0.09999999999999432,5290,12,62,68
0.09999999999999432,5290,13,62,121
0.10000000000002274,5290,14,62,84
0.09999999999999432,5290,15,62,5
0.10000000000002274,5291,0,62,116
0.09999999999999432,5291,1,62,5
0.09999999999999432,5291,2,62,26
0.10000000000002274,5291,3,62,127
0.10000000000002274,5291,4,62,81
0.10000000000002274,5291,5,62,2
0.09999999999999432,5291,6,62,127
0.09999999999999432,5291,7,62,81
0.09999999999999432,5291,8,62,97
0.09999999999999432,5291,9,62,125
0.09999999999999432,5291,10,62,73
0.09999999999999432,5291,11,62,101
0.09999999999999432,5291,12,62,88
0.09999999999999432,5291,13,62,66
0.09999999999999999,5291,14,61,1
0.09999999999999987,5291,15,61,1
0.10000000000000009,5292,0,61,8
0.013636363636363669,5292,1,61,9
0.06818181818181834,5292,2,61,11
0.09999999999999987,5292,3,61,25
0.045454545454545414,5292,4,61,31
0.036363636363636376,5292,5,61,30
0.04772727272727262,5292,6,61,21
0.045454545454545414,5292,7,61,42
0.09999999999999987,5292,8,61,35
0.10000000000000009,5292,9,61,41
0.10000000000000009,5292,10,61,37
0.10000000000000009,5292,11,61,20
0.06818181818181834,5292,12,61,26
0.10000000000000009,5292,13,61,20
0.10000000000000009,5292,14,61,25
0.10000000000000009,5292,15,61,32
0.06818181818181834,5293,0,61,38
0.09999999999999964,5293,1,61,44
0.10000000000000009,5293,2,61,33
0.09999999999999964,5293,3,61,36
0.10000000000000009,5293,4,61,35
0.09999999999999964,5293,5,61,36
0.10000000000000053,5293,6,61,42
0.09999999999999964,5293,7,61,63
0.10000000000000053,5293,8,61,59
0.06818181818181834,5293,9,61,59
0.004545454545453964,5293,10,61,69
0.09999999999999964,5293,11,61,44
0.09999999999999964,5293,12,61,31
0.10000000000000053,5293,13,61,24
0.04545454545454586,5293,14,61,27
0.0022727272727278702,5293,15,61,26
0.09999999999999964,5294,0,61,28
0.10000000000000053,5294,1,61,17
0.05681818181818166,5294,2,61,24
0.09999999999999964,5294,3,61,36
0.09999999999999964,5294,4,61,35
0.09999999999999964,5294,5,61,44
0.036363636363636154,5294,6,61,46
0.09999999999999964,5294,7,61,49
0.09999999999999964,5294,8,61,40
0.10000000000000053,5294,9,61,49
0.09999999999999964,5294,10,61,22
0.10000000000000053,5294,11,61,39
0.05681818181818166,5294,12,61,35
0.09999999999999964,5294,13,61,32
0.06818181818181834,5294,14,61,38
0.09999999999999964,5294,15,61,41
0.09999999999999964,5295,0,61,42
0.09999999999999964,5295,1,61,34
0.04545454545454497,5295,2,61,35
0.09999999999999964,5295,3,61,43
0.10000000000000053,5295,4,61,35
0.09999999999999964,5295,5,61,40
0.09999999999999964,5295,6,61,36
0.06818181818181657,5295,7,61,36
0.036363636363635266,5295,8,61,37
0.09999999999999964,5295,9,61,37
0.09999999999999964,5295,10,61,43
0.09999999999999964,5295,11,61,56
0.06818181818181834,5295,12,61,58
0.09999999999999964,5295,13,61,65
0.0045454545454557405,5295,14,61,72
0.10000000000000142,5295,15,61,44
0.09999999999999964,5296,0,61,60
0.09999999999999964,5296,1,61,50
0.09999999999999964,5296,2,61,70
0.09999999999999964,5296,3,61,83
0.04772727272727373,5296,4,61,85
0.013636363636363669,5296,5,61,70
0.09999999999999964,5296,6,61,87
0.09999999999999964,5296,7,61,103
0.06818181818181834,5296,8,61,108
0.09999999999999964,5296,9,61,91
0.10000000000000142,5296,10,61,45
0.06818181818181834,5296,11,61,62
0.09999999999999964,5296,12,61,45
0.06818181818181834,5296,13,61,54
0.09999999999999964,5296,14,61,29
0.09999999999999964,5296,15,61,19
0.09999999999999964,5297,0,61,18
0.09999999999999964,5297,1,61,12
0.09999999999999992,5297,2,65,35
0.05681818181818177,5297,3,65,64
0.09999999999999998,5297,4,65,55
0.09999999999999987,5297,5,65,60
0.10000000000000009,5297,6,65,50
0.10000000000000009,5297,7,65,35
0.10000000000000009,5297,8,65,28
0.09999999999999964,5297,9,65,18
0.10000000000000009,5297,10,65,35
0.10000000000000009,5297,11,65,45
0.09999999999999964,5297,12,65,37
0.10000000000000009,5297,13,65,30
0.09999999999999964,5297,14,65,35
0.09999999999999964,5297,15,65,22
0.10000000000000053,5298,0,65,22
0.09999999999999964,5298,1,65,30
0.09999999999999964,5298,2,65,52
0.06818181818181834,5298,3,65,83
0.025000000000000355,5298,4,65,118
0.013636363636363669,5298,5,65,118
0.10000000000000053,5298,6,65,94
0.09999999999999964,5298,7,65,60
0.05681818181818166,5298,8,65,70
0.10000000000000053,5298,9,65,98
0.10000000000000142,5298,10,65,71
0.09999999999999964,5298,11,65,28
0.09999999999999964,5298,12,65,28
0.06818181818181834,5298,13,65,37
0.03636363636363704,5298,14,65,40
0.10000000000000142,5298,15,65,43
0.09999999999999964,5299,0,65,27
0.06818181818181657,5299,1,65,46
0.09999999999999964,5299,2,65,10
0.027272727272727337,5299,3,65,35
0.04545454545454497,5299,4,65,60
0.09999999999999964,5299,5,65,57
0.09999999999999964,5299,6,65,49
0.09999999999999964,5299,7,65,30
0.09999999999999964,5299,8,65,62
0.06818181818181834,5299,9,65,93
0.09999999999999964,5299,10,65,80
0.09999999999999964,5299,11,65,53
0.09999999999999964,5299,12,65,58
0.05681818181818166,5299,13,65,79
0.09999999999999964,5299,14,65,67
0.09999999999999964,5299,15,65,67
0.06818181818181657,5300,0,65,70
0.10000000000000142,5300,1,65,57
0.10000000000000142,5300,2,65,43
0.09999999999999787,5300,3,65,61
0.09999999999999787,5300,4,65,54
0.05681818181817988,5300,5,65,71
0.09999999999999787,5300,6,65,14
0.04772727272727195,5300,7,65,40
0.10000000000000142,5300,8,65,74
0.10000000000000142,5300,9,65,61
0.09999999999999787,5300,10,65,45
0.10000000000000142,5300,11,65,46
0.10000000000000142,5300,12,65,29
0.06818181818182012,5300,13,65,27
0.09999999999999787,5300,14,65,24
0.10000000000000142,5300,15,65,23
0.10000000000000142,5301,0,65,16
0.027272727272727337,5301,1,65,73
0.10000000000000142,5301,2,65,69
0.10000000000000142,5301,3,65,77
0.10000000000000142,5301,4,65,87
0.06818181818182012,5301,5,65,84
0.09999999999999787,5301,6,65,65
0.10000000000000142,5301,7,65,46
0.09999999999999787,5301,8,65,64
0.10000000000000142,5301,9,65,12
0.09999999999999787,5301,10,65,31
0.045454545454543194,5301,11,65,61
0.013636363636361892,5301,12,65,71
0.10000000000000142,5301,13,65,81
0.10000000000000142,5301,14,65,79
0.10000000000000142,5301,15,65,61
0.05681818181818343,5302,0,65,73
0.09999999999999787,5302,1,65,51
0.09999999999999787,5302,2,65,40
0.10000000000000142,5302,3,65,33
0.05681818181818343,5302,4,65,64
0.10000000000000142,5302,5,65,40
0.10000000000000142,5302,6,65,47
0.09999999999999787,5302,7,65,40
0.05681818181817988,5302,8,65,54
0.09999999999999787,5302,9,65,86
0.10000000000000142,5302,10,65,83
0.10000000000000142,5302,11,65,75
0.09999999999999787,5302,12,65,59
0.09999999999999787,5302,13,65,46
0.10000000000000142,5302,14,65,54
0.06818181818182012,5302,15,65,63
0.09999999999999787,5303,0,65,26
0.10000000000000142,5303,1,65,33
0.06818181818182012,5303,2,65,48
0.09999999999999787,5303,3,65,90
0.10000000000000142,5303,4,65,63
0.09999999999999787,5303,5,65,42
0.05681818181817988,5303,6,65,63
0.10000000000000142,5303,7,65,41
0.09999999999999787,5303,8,65,47
0.09999999999999787,5303,9,65,58
0.09999999999999787,5303,10,65,24
0.10000000000000142,5303,11,65,70
0.10000000000000142,5303,12,65,87
0.09999999999999432,5303,13,65,68
0.10000000000000142,5303,14,65,69
0.10000000000000142,5303,15,65,80
0.10000000000000142,5304,0,65,66
0.05681818181817988,5304,1,65,114
0.02499999999999858,5304,2,65,127
0.10000000000000142,5304,3,65,69
0.10000000000000142,5304,4,65,70
0.09999999999999432,5304,5,65,63
0.10000000000000142,5304,6,65,52
0.06818181818182012,5304,7,65,75
0.10000000000000142,5304,8,65,67
0.09999999999999432,5304,9,65,95
0.10000000000000142,5304,10,65,52
0.10000000000000142,5304,11,65,58
0.10000000000000142,5304,12,65,36
0.10000000000000142,5304,13,65,62
0.09999999999999432,5304,14,65,69
0.10000000000000142,5304,15,65,64
0.10000000000000142,5305,0,65,61
0.10000000000000142,5305,1,65,44
0.06818181818182012,5305,2,65,48
0.025000000000005684,5305,3,65,74
0.09999999999999432,5305,4,65,18
0.06818181818181301,5305,5,65,19
0.004545454545450411,5305,6,65,42
0.04772727272727906,5305,7,65,65
0.004545454545457517,5305,8,65,85
0.10000000000000142,5305,9,65,74
0.06818181818182012,5305,10,65,76
0.09999999999999432,5305,11,65,61
0.02499999999999858,5305,12,65,89
0.10000000000000142,5305,13,65,93
0.10000000000000142,5305,14,65,57
0.10000000000000142,5305,15,65,80
0.06590909090909491,5306,0,65,88
0.10000000000000142,5306,1,65,55
0.10000000000000142,5306,2,65,66
0.013636363636365445,5306,3,65,71
0.10000000000000142,5306,4,65,79
0.10000000000000142,5306,5,65,60
0.10000000000000142,5306,6,65,56
0.05909090909091219,5306,7,65,66
0.10000000000000142,5306,8,65,85
0.09999999999999432,5306,9,65,44
0.05681818181817988,5306,10,65,69
0.09999999999999432,5306,11,65,48
0.10000000000000142,5306,12,65,36
0.06818181818182012,5306,13,65,50
0.01590909090909065,5306,14,65,77
0.10000000000000142,5306,15,65,74
0.09999999999999432,5307,0,65,76
0.10000000000000142,5307,1,65,54
0.06818181818182012,5307,2,65,63
0.10000000000000142,5307,3,65,52
0.10000000000000142,5307,4,65,61
0.10000000000000142,5307,5,65,86
0.10000000000000142,5307,6,65,68
0.10000000000000142,5307,7,65,63
0.10000000000000142,5307,8,65,90
0.06818181818182012,5307,9,65,98
0.10000000000000142,5307,10,65,100
0.10000000000000142,5307,11,65,63
0.10000000000000142,5307,12,65,70
0.06818181818181301,5307,13,65,83
0.10000000000000142,5307,14,65,70
0.10000000000000142,5307,15,65,62
0.06818181818182012,5308,0,65,77
0.10000000000000142,5308,1,65,70
0.10000000000000142,5308,2,65,61
0.10000000000000142,5308,3,65,65
0.10000000000000142,5308,4,65,49
0.10000000000000142,5308,5,65,75
0.10000000000000142,5308,6,65,68
0.06818181818182012,5308,7,65,77
0.09999999999999432,5308,8,65,98
0.10000000000000142,5308,9,65,100
0.10000000000000142,5308,10,65,48
0.10000000000000142,5308,11,65,65
0.10000000000000142,5308,12,65,66
0.10000000000000142,5308,13,65,68
0.10000000000000142,5308,14,65,55
0.10000000000000142,5308,15,65,49
0.06818181818182012,5309,0,65,49
0.10000000000000142,5309,1,65,48
0.10000000000000142,5309,2,65,57
0.05909090909091219,5309,3,65,65
0.10000000000000142,5309,4,65,56
0.10000000000000142,5309,5,65,62
0.05681818181817988,5309,6,65,77
0.09999999999999432,5309,7,65,83
0.10000000000000142,5309,8,65,71
0.09999999999999432,5309,9,65,74
0.09999999999999432,5309,10,65,72
0.10000000000000142,5309,11,65,57
0.10000000000000142,5309,12,65,72
0.10000000000000142,5309,13,65,62
0.10000000000000142,5309,14,65,92
0.10000000000000142,5309,15,65,58
0.10000000000000142,5310,0,65,48
0.10000000000000142,5310,1,65,51
0.09999999999999432,5310,2,65,90
0.10000000000000142,5310,3,65,81
0.09999999999999432,5310,4,65,85
0.10000000000000853,5310,5,65,73
0.09999999999999432,5310,6,65,89
0.09999999999999432,5310,7,65,69
0.09999999999999432,5310,8,65,64
0.06818181818181301,5310,9,65,66
0.09999999999999432,5310,10,65,53
0.10000000000000853,5310,11,65,21
0.10000000000000853,5310,12,65,23
0.09999999999999432,5310,13,65,19
0.09999999999999432,5310,14,65,29
0.10000000000000853,5310,15,65,54
0.09999999999999432,5311,0,65,66
0.10000000000000853,5311,1,65,85
0.10000000000000853,5311,2,65,103
0.09999999999999432,5311,3,65,60
0.09999999999999432,5311,4,65,57
0.10000000000000853,5311,5,65,61
0.10000000000000853,5311,6,65,62
0.09999999999999432,5311,7,65,67
0.09999999999999432,5311,8,65,55
0.09999999999999432,5311,9,65,107
0.10000000000000853,5311,10,65,69
0.09999999999999432,5311,11,65,57
0.09999999999999432,5311,12,65,44
0.09999999999999432,5311,13,65,49
0.09999999999999432,5311,14,65,55
0.09999999999999432,5311,15,65,72
0.10000000000000853,5312,0,65,43
0.09999999999999432,5312,1,65,57
0.09999999999999432,5312,2,65,58
0.09999999999999432,5312,3,65,61
0.10000000000000853,5312,4,65,78
0.09999999999999432,5312,5,65,67
0.10000000000000853,5312,6,65,48
0.09999999999999432,5312,7,65,48
0.09999999999999432,5312,8,65,60
0.09999999999999432,5312,9,65,57
0.10000000000000853,5312,10,65,60
0.10000000000000853,5312,11,65,94
0.09999999999999432,5312,12,65,75
0.09999999999999432,5312,13,65,79
0.09999999999999432,5312,14,65,64
0.09999999999999432,5312,15,65,81
0.10000000000000853,5313,0,65,66
0.09999999999999432,5313,1,65,110
0.10000000000000853,5313,2,65,67
0.09999999999999432,5313,3,65,104
0.09999999999999432,5313,4,65,68
0.10000000000000853,5313,5,65,63
0.10000000000000853,5313,6,65,71
0.10000000000000853,5313,7,65,68
0.09999999999999432,5313,8,65,73
0.09999999999999432,5313,9,65,75
0.09999999999999432,5313,10,65,80
0.10000000000000853,5313,11,65,85
0.09999999999999432,5313,12,65,55
0.10000000000000853,5313,13,65,56
0.09999999999999432,5313,14,65,73
0.09999999999999432,5313,15,65,62
0.10000000000000853,5314,0,65,79
0.10000000000000853,5314,1,65,86
0.09999999999999432,5314,2,65,80
0.09999999999999432,5314,3,65,85
0.10000000000000853,5314,4,65,61
0.09999999999999432,5314,5,65,63
0.09999999999999432,5314,6,65,72
0.09999999999999432,5314,7,65,63
0.09999999999999432,5314,8,65,57
0.09999999999999432,5314,9,65,51
0.09999999999999432,5314,10,65,41
0.09999999999999432,5314,11,65,27
0.10000000000000853,5314,12,65,30
0.09999999999999432,5314,13,65,35
0.10000000000000853,5314,14,65,22
0.09999999999999432,5314,15,65,32
0.10000000000000853,5315,0,65,6
0.06590909090908781,5315,1,65,13
0.03409090909090651,5315,2,65,24
0.09999999999999432,5315,3,65,22
0.09999999999999432,5315,4,65,30
0.10000000000000853,5315,5,65,19
0.09999999999999432,5315,6,65,24
0.06818181818181301,5315,7,65,27
0.10000000000000853,5315,8,65,13
0.10000000000000853,5315,9,65,37
0.10000000000000853,5315,10,65,28
0.09999999999999432,5315,11,65,28
0.09999999999999432,5315,12,65,15
0.09999999999999432,5315,13,65,24
0.09999999999999432,5315,14,65,10
0.09999999999999432,5315,15,65,53
0.10000000000000853,5316,0,65,28
0.10000000000000853,5316,1,65,46
0.09999999999999432,5316,2,65,40
0.06818181818181301,5316,3,65,34
0.10000000000000853,5316,4,65,39
0.06818181818182723,5316,5,65,45
0.09999999999999432,5316,6,65,25
0.09999999999999432,5316,7,65,8
0.06590909090908781,5316,8,65,13
0.024999999999991473,5316,9,65,23
0.024999999999991473,5316,10,65,60
0.09999999999999432,5316,11,65,36
0.06818181818181301,5316,12,65,51
0.09999999999999432,5316,13,65,65
0.09999999999999432,5316,14,65,53
0.10000000000000853,5316,15,65,64
0.10000000000000853,5317,0,65,63
0.10000000000000853,5317,1,65,78
0.10000000000000853,5317,2,65,66
0.09999999999999432,5317,3,65,47
0.09999999999999432,5317,4,65,51
0.09999999999999432,5317,5,65,75
0.09999999999999432,5317,6,65,70
0.09999999999999432,5317,7,65,94
0.10000000000000853,5317,8,65,52
0.09999999999999432,5317,9,65,62
0.10000000000000853,5317,10,65,61
0.09999999999999432,5317,11,65,64
0.09999999999999432,5317,12,65,81
0.10000000000000853,5317,13,65,63
0.09999999999999432,5317,14,65,83
0.09999999999999432,5317,15,65,68
0.09999999999999432,5318,0,65,67
0.10000000000000853,5318,1,65,11
0.05909090909091219,5318,2,65,34
0.09999999999999432,5318,3,65,64
0.09999999999999432,5318,4,65,64
0.09999999999999432,5318,5,65,58
0.10000000000000853,5318,6,65,69
0.10000000000000853,5318,7,65,43
0.10000000000000853,5318,8,65,42
0.09999999999999432,5318,9,65,58
0.10000000000000853,5318,10,65,60
0.09999999999999432,5318,11,65,45
0.09999999999999432,5318,12,65,45
0.09999999999999432,5318,13,65,30
0.10000000000000853,5318,14,65,38
0.09999999999999432,5318,15,65,44
0.09999999999999432,5319,0,65,49
0.10000000000000853,5319,1,65,47
0.09999999999999432,5319,2,65,45
0.10000000000000853,5319,3,65,46
0.09999999999999432,5319,4,65,49
0.09999999999999432,5319,5,65,47
0.09999999999999432,5319,6,65,39
0.09999999999999432,5319,7,65,32
0.10000000000000853,5319,8,65,47
0.10000000000000853,5319,9,65,44
0.09999999999999432,5319,10,65,35
0.10000000000000853,5319,11,65,29
0.09999999999999432,5319,12,65,41
0.09999999999999432,5319,13,65,39
0.09999999999999432,5319,14,65,34
0.10000000000000853,5319,15,65,49
0.09999999999999432,5320,0,65,52
0.10000000000000853,5320,1,65,41
0.09999999999999432,5320,2,65,38
0.09999999999999432,5320,3,65,48
0.09999999999999432,5320,4,65,40
0.09999999999999432,5320,5,65,31
0.10000000000000853,5320,6,65,33
0.09999999999999432,5320,7,65,49
0.10000000000000853,5320,8,65,53
0.10000000000000853,5320,9,65,79
0.09999999999999432,5320,10,65,65
0.09999999999999432,5320,11,65,45
0.10000000000002274,5320,12,65,48
0.09999999999999432,5320,13,65,60
0.09999999999999432,5320,14,65,58
0.10000000000002274,5320,15,65,44
0.09999999999999432,5321,0,65,61
0.09999999999999432,5321,1,65,66
0.09999999999999432,5321,2,65,71
0.09999999999999432,5321,3,65,59
0.09999999999999432,5321,4,65,76
0.10000000000002274,5321,5,65,72
0.09999999999999432,5321,6,65,67
0.09999999999999432,5321,7,65,65
0.09999999999999432,5321,8,65,76
0.09999999999999432,5321,9,65,69
0.10000000000002274,5321,10,65,75
0.09999999999999432,5321,11,65,79
0.09999999999999432,5321,12,65,50
0.09999999999999432,5321,13,65,65
0.10000000000002274,5321,14,65,51
0.09999999999999432,5321,15,65,81
0.09999999999999432,5322,0,65,56
0.09999999999999432,5322,1,65,51
0.09999999999999432,5322,2,65,59
0.06818181818181301,5322,3,65,59
0.09999999999999432,5322,4,65,43
0.09999999999999432,5322,5,65,58
0.09999999999999432,5322,6,65,42
0.09999999999999432,5322,7,65,46
0.09999999999999432,5322,8,65,36
0.09999999999999432,5322,9,65,60
0.09999999999999432,5322,10,65,48
0.10000000000002274,5322,11,65,47
0.09999999999999432,5322,12,65,68
0.06818181818181301,5322,13,65,88
0.09999999999999432,5322,14,65,9
0.10000000000002274,5322,15,65,49
0.09999999999999432,5323,0,65,82
0.09999999999999432,5323,1,65,51
0.09999999999999432,5323,2,65,55
0.09999999999999432,5323,3,65,56
0.09999999999999432,5323,4,65,63
0.10000000000002274,5323,5,65,53
0.09999999999999432,5323,6,65,51
0.09999999999999432,5323,7,65,64
0.09999999999999432,5323,8,65,81
0.09999999999999432,5323,9,65,47
0.09999999999999432,5323,10,65,52
0.09999999999999432,5323,11,65,37
0.09999999999999432,5323,12,65,52
0.09999999999999432,5323,13,65,73
0.10000000000002274,5323,14,65,86
0.09999999999999432,5323,15,65,43
0.09999999999999432,5324,0,65,63
0.09999999999999432,5324,1,65,61
0.10000000000002274,5324,2,65,56
0.09999999999999432,5324,3,65,77
0.09999999999999432,5324,4,65,49
0.09999999999999432,5324,5,65,51
0.10000000000002274,5324,6,65,67
0.09999999999999432,5324,7,65,73
0.09999999999999432,5324,8,65,56
0.09999999999999432,5324,9,65,40
0.10000000000002274,5324,10,65,64
0.09999999999999432,5324,11,65,82
0.10000000000002274,5324,12,65,57
0.09999999999999432,5324,13,65,53
0.09999999999999432,5324,14,65,63
0.09999999999999432,5324,15,65,74
0.10000000000002274,5325,0,65,70
0.09999999999999432,5325,1,65,50
0.09999999999999432,5325,2,65,67
0.09999999999999432,5325,3,65,53
0.09999999999999432,5325,4,65,45
0.09999999999999432,5325,5,65,56
0.09999999999999432,5325,6,65,57
0.09999999999999432,5325,7,65,54
0.10000000000002274,5325,8,65,55
0.09999999999999432,5325,9,65,69
0.09999999999999432,5325,10,65,73
0.10000000000002274,5325,11,65,73
0.09999999999999432,5325,12,65,61
0.09999999999999432,5325,13,65,60
0.10000000000002274,5325,14,65,65
0.10000000000002274,5325,15,65,59
0.09999999999999432,5326,0,65,65
0.09999999999999432,5326,1,65,82
0.10000000000002274,5326,2,65,67
0.09999999999999432,5326,3,65,36
0.09999999999999432,5326,4,65,60
0.09999999999999432,5326,5,65,81
0.09999999999999432,5326,6,65,53
0.10000000000002274,5326,7,65,63
0.09999999999999432,5326,8,65,49
0.09999999999999432,5326,9,65,46
0.10000000000002274,5326,10,65,48
0.09999999999999432,5326,11,65,52
0.09999999999999432,5326,12,65,43
0.09999999999999432,5326,13,65,43
0.09999999999999432,5326,14,65,37
0.09999999999999432,5326,15,65,31
0.09999999999999432,5327,0,65,23
0.10000000000002274,5327,1,65,28
0.10000000000002274,5327,2,65,43
0.10000000000002274,5327,3,65,51
0.09999999999999432,5327,4,65,51
0.10000000000002274,5327,5,65,24
0.09999999999999432,5327,6,65,18
0.09999999999999432,5327,7,65,15
0.025000000000005684,5327,8,65,16
0.09999999999999998,5327,9,71,32
0.10000000000000009,5327,10,71,27
0.09999999999999987,5327,11,71,33
0.10000000000000009,5327,12,71,25
0.09999999999999964,5327,13,71,27
0.10000000000000009,5327,14,71,28
0.10000000000000009,5327,15,71,50
0.09999999999999964,5328,0,71,27
0.09999999999999964,5328,1,71,33
0.09999999999999964,5328,2,71,34
0.10000000000000053,5328,3,71,36
0.10000000000000053,5328,4,71,31
0.09999999999999964,5328,5,71,37
0.09999999999999964,5328,6,71,37
0.09999999999999964,5328,7,71,24
0.10000000000000142,5328,8,71,1
0.09999999999999787,5328,9,71,4
0.10000000000000142,5328,10,71,3
0.09999999999999787,5328,11,71,1
0.09999999999999787,5328,12,71,18
0.10000000000000142,5328,13,71,13
0.10000000000000142,5328,14,71,14
0.09999999999999787,5328,15,71,15
0.09999999999999787,5329,0,71,20
0.10000000000000142,5329,1,71,13
0.10000000000000142,5329,2,71,18
0.09999999999999432,5329,3,71,11
0.10000000000000853,5329,4,71,2
0.09999999999999432,5329,5,71,11
0.09999999999999432,5329,6,71,8
0.09999999999999432,5329,7,71,3
0.09999999999999432,5329,8,71,12
0.09999999999999432,5329,9,71,7
0.09999999999999432,5329,10,71,16
0.09999999999999432,5329,11,71,27
0.09999999999999432,5329,12,71,9
0.10000000000000853,5329,13,71,7
0.09999999999999432,5329,14,71,9
0.09999999999999432,5329,15,71,13
0.09999999999999432,5330,0,71,5
0.09999999999999432,5330,1,71,6
0.10000000000000853,5330,2,71,3
0.09999999999999432,5330,3,71,9
0.10000000000000853,5330,4,71,29
0.09999999999999432,5330,5,71,14
0.09999999999999432,5330,6,71,2
0.10000000000000853,5330,7,71,11
0.09999999999999432,5330,8,71,6
0.09999999999999432,5330,9,71,16
0.10000000000000853,5330,10,71,12
0.09999999999999432,5330,11,71,11
0.10000000000000853,5330,12,71,15
0.10000000000000853,5330,13,71,16
0.10000000000000853,5330,14,71,13
0.10000000000000853,5330,15,71,12
0.09999999999999432,5331,0,71,10
0.09999999999999432,5331,1,71,23
0.10000000000000853,5331,2,71,19
0.09999999999999432,5331,3,71,13
0.09999999999999432,5331,4,71,18
0.09999999999999432,5331,5,71,20
0.09999999999999432,5331,6,71,18
0.09999999999999432,5331,7,71,19
0.10000000000000853,5331,8,71,14
0.09999999999999432,5331,9,71,25
0.09999999999999432,5331,10,71,17
0.10000000000002274,5331,11,71,20
0.09999999999999432,5331,12,71,23
0.09999999999999432,5331,13,71,19
0.09999999999999432,5331,14,71,31
0.10000000000002274,5331,15,71,21
0.09999999999999432,5332,0,71,18
0.10000000000002274,5332,1,71,15
0.09999999999999432,5332,2,71,16
0.09999999999999432,5332,3,71,17
0.09999999999999432,5332,4,71,16
0.09999999999999432,5332,5,71,14
0.09999999999999432,5332,6,71,15
0.10000000000002274,5332,7,71,20
0.09999999999999432,5332,8,71,21
0.09999999999999432,5332,9,71,25
0.09999999999999432,5332,10,71,13
0.09999999999999432,5332,11,71,13
0.09999999999999432,5332,12,71,11
0.09999999999999432,5332,13,71,13
0.09999999999999432,5332,14,71,19
0.09999999999999432,5332,15,71,40
0.09999999999999432,5333,0,71,32
0.10000000000002274,5333,1,71,25
0.09999999999999432,5333,2,71,21
0.09999999999999432,5333,3,71,25
0.09999999999999432,5333,4,71,22
0.09999999999999432,5333,5,71,25
0.10000000000002274,5333,6,71,24
0.09999999999999432,5333,7,71,18
0.10000000000002274,5333,8,71,17
0.10000000000002274,5333,9,71,22
0.09999999999999432,5333,10,71,16
0.09999999999999432,5333,11,71,12
0.09999999999999432,5333,12,71,9
0.09999999999999432,5333,13,71,15
0.10000000000002274,5333,14,71,40
0.09999999999999432,5333,15,71,23
0.09999999999999432,5334,0,71,6
0.09999999999999432,5334,1,71,5
0.09999999999999432,5334,2,71,23
0.09999999999999432,5334,3,71,9
0.09999999999999432,5334,4,71,17
0.09999999999999432,5334,5,71,19
0.10000000000002274,5334,6,71,20
0.09999999999999432,5334,7,71,19
0.09999999999999432,5334,8,71,18
0.09999999999999432,5334,9,71,23
0.10000000000002274,5334,10,71,22
0.09999999999999432,5334,11,71,10
0.09999999999999432,5334,12,71,9
0.09999999999999432,5334,13,71,12
0.09999999999999432,5334,14,71,15
0.10000000000002274,5334,15,71,22
0.09999999999999432,5335,0,71,4
0.10000000000002274,5335,1,71,10
0.09999999999999432,5335,2,71,17
0.09999999999999432,5335,3,71,18
0.09999999999999432,5335,4,71,20
0.09999999999999432,5335,5,71,19
0.10000000000002274,5335,6,71,14
0.09999999999999432,5335,7,71,18
0.09999999999999432,5335,8,71,13
0.09999999999999432,5335,9,71,9
0.10000000000002274,5335,10,71,6
0.09999999999999432,5335,11,71,13
0.09999999999999432,5335,12,71,16
0.09999999999999432,5335,13,71,20
0.09999999999999432,5335,14,71,11
0.09999999999999432,5335,15,71,13
0.09999999999999432,5336,0,71,5
0.09999999999999432,5336,1,71,4
0.09999999999999432,5336,2,71,9
0.09999999999999432,5336,3,71,12
0.09999999999999432,5336,4,71,22
0.09999999999999432,5336,5,71,18
0.09999999999999432,5336,6,71,9
0.09999999999999432,5336,7,71,25
0.09999999999999432,5336,8,61,12
0.09999999999999432,5336,9,61,2
0.09999999999999432,5336,10,61,4
0.09999999999999432,5336,11,61,3
0.10000000000002274,5336,12,61,14
0.09999999999999432,5336,13,61,4
0.09999999999999432,5336,14,61,4
0.09999999999999432,5336,15,61,3
0.09999999999999432,5337,0,61,4
0.09999999999999432,5337,1,61,2
0.09999999999999432,5337,2,61,3
0.09999999999999432,5337,3,61,2
0.09999999999999432,5337,4,61,13
0.09999999999999432,5337,5,61,2
0.09999999999999432,5337,6,61,3
0.10000000000002274,5337,7,61,4
0.09999999999999432,5337,8,61,2
0.09999999999999432,5337,9,61,3
0.10000000000002274,5337,10,61,2
0.09999999999999432,5337,11,61,13
0.09999999999999432,5337,12,61,3
0.09999999999999432,5337,13,61,2
0.10000000000002274,5337,14,61,2
0.09999999999999432,5337,15,61,2
0.09999999999999432,5338,0,61,3
0.10000000000002274,5338,1,61,2
0.09999999999999432,5338,2,61,13
0.09999999999999432,5338,3,61,3
0.09999999999999432,5338,4,61,2
0.09999999999999432,5338,5,61,4
0.09999999999999432,5338,6,61,2
0.09999999999999432,5338,7,61,3
0.09999999999999432,5338,8,61,2
0.09999999999999432,5338,9,61,13
0.09999999999999432,5338,10,61,2
0.10000000000002274,5338,11,61,2
0.09999999999999432,5338,12,61,4
0.09999999999999432,5338,13,61,2
0.09999999999999432,5338,14,61,3
0.09999999999999432,5338,15,61,2
0.10000000000002274,5339,0,61,14
0.09999999999999432,5339,1,61,1
0.10000000000002274,5339,2,61,2
0.09999999999999432,5339,3,61,3
0.09999999999999432,5339,4,61,3
0.09999999999999432,5339,5,61,3
0.09999999999999432,5339,6,61,2
0.10000000000002274,5339,7,61,14
0.09999999999999432,5339,8,61,3
0.10000000000002274,5339,9,61,2
0.09999999999999432,5339,10,61,4
0.09999999999999432,5339,11,61,2
0.09999999999999432,5339,12,61,3
0.10000000000002274,5339,13,61,2
0.09999999999999432,5339,14,61,14
0.09999999999999432,5339,15,61,2
0.09999999999999432,5340,0,61,2
0.10000000000002274,5340,1,61,4
0.09999999999999432,5340,2,61,2
0.09999999999999432,5340,3,61,3
0.10000000000002274,5340,4,61,2
0.09999999999999432,5340,5,61,12
0.09999999999999432,5340,6,61,3
0.09999999999999432,5340,7,61,2
0.10000000000002274,5340,8,61,3
0.09999999999999432,5340,9,61,2
0.09999999999999432,5340,10,61,3
0.10000000000002274,5340,11,61,2
0.09999999999999432,5340,12,61,14
0.09999999999999432,5340,13,61,3
0.09999999999999432,5340,14,61,2
0.09999999999999432,5340,15,61,4
0.09999999999999432,5341,0,61,2
0.09999999999999432,5341,1,61,3
0.09999999999999432,5341,2,61,2
0.10000000000002274,5341,3,61,14
0.09999999999999432,5341,4,61,3
0.10000000000002274,5341,5,61,2
0.09999999999999432,5341,6,61,4
0.09999999999999432,5341,7,61,2
0.09999999999999432,5341,8,61,3
0.09999999999999432,5341,9,61,2
0.10000000000002274,5341,10,61,10
0.09999999999999432,5341,11,61,2
0.10000000000002274,5341,12,61,2
0.09999999999999432,5341,13,61,3
0.09999999999999432,5341,14,61,2
0.09999999999999432,5341,15,61,3
0.09999999999999432,5342,0,61,2
0.10000000000002274,5342,1,61,13
0.09999999999999432,5342,2,61,3
0.09999999999999432,5342,3,61,2
0.09999999999999432,5342,4,61,3
0.09999999999999432,5342,5,61,2
0.09999999999999432,5342,6,61,2
0.10000000000002274,5342,7,61,2
0.09999999999999432,5342,8,61,14
0.09999999999999432,5342,9,61,2
0.09999999999999432,5342,10,61,2
0.10000000000002274,5342,11,61,4
0.09999999999999432,5342,12,61,1
0.10000000000002274,5342,13,61,1
0.10000000000000142,5342,14,63,1
0.06818181818182012,5342,15,63,1
0.10000000000000142,5343,0,63,1
0.06818181818182012,5343,1,63,1
0.10000000000000142,5343,2,63,1
0.10000000000000142,5343,3,63,1
0.013636363636365445,5343,4,63,1
0.10000000000000142,5343,5,63,1
0.06818181818182012,5343,6,63,1
0.01590909090909065,5343,7,63,2
0.10000000000000142,5343,8,63,2
0.10000000000000142,5343,9,63,4
0.10000000000000142,5343,10,63,5
0.06818181818181301,5343,11,63,5
0.10000000000000142,5343,12,63,3
0.059090909090905086,5343,13,63,3
0.10000000000000142,5343,14,63,3
0.03636363636363882,5343,15,63,5
0.10000000000000142,5344,0,63,6
0.06818181818182012,5344,1,63,6
0.013636363636365445,5344,2,63,5
0.10000000000000142,5344,3,63,2
0.10000000000000142,5344,4,63,1
0.10000000000000142,5344,5,63,1
0.004545454545457517,5344,6,63,1
0.004545454545457517,5344,7,63,1
0.10000000000000142,5344,8,63,1
0.10000000000000142,5344,9,63,1
0.045454545454546746,5344,10,63,1
0.01590909090909065,5344,11,63,1
0.09999999999999432,5344,12,63,1
0.06818181818181301,5344,13,63,1
0.10000000000000142,5344,14,63,1
0.09999999999999432,5344,15,63,1
0.004545454545450411,5345,0,63,1
0.10000000000000142,5345,1,63,1
0.03636363636363171,5345,2,63,1
0.01590909090909065,5345,3,63,1
0.09999999999999432,5345,4,63,1
0.09999999999999432,5345,5,63,1
0.004545454545450411,5345,6,63,1
0.024999999999991473,5345,7,63,1
0.09999999999999432,5345,8,63,1
0.03636363636363171,5345,9,63,1
0.09999999999999432,5345,10,63,1
0.09999999999999432,5345,11,63,10
0.09999999999999432,5345,12,63,26
0.024999999999991473,5345,13,63,43
0.05909090909091219,5345,14,63,55
0.0022727272727252057,5345,15,63,72
0.004545454545450411,5346,0,63,70
0.06818181818181301,5346,1,63,67
0.09999999999999432,5346,2,63,52
0.09999999999999432,5346,3,63,61
0.10000000000000853,5346,4,63,52
0.06818181818182723,5346,5,63,50
0.09999999999999432,5346,6,63,34
0.025000000000005684,5346,7,63,37
0.056818181818186986,5346,8,63,36
0.09999999999999432,5346,9,63,10
0.045454545454532536,5346,10,63,9
0.013636363636351234,5346,11,63,8
0.004545454545450411,5346,12,63,11
0.09999999999999432,5346,13,63,11
0.09999999999999432,5346,14,63,4
0.004545454545450411,5346,15,63,3
0.03409090909090651,5347,0,63,5
0.10000000000000853,5347,1,63,2
0.045454545454546746,5347,2,63,1
0.09999999999999432,5347,3,63,1
0.09999999999999432,5347,4,63,1
0.045454545454546746,5347,5,63,1
0.04772727272727195,5347,6,63,1
0.09999999999999432,5347,7,63,1
0.045454545454546746,5347,8,63,1
0.036363636363645924,5347,9,63,1
0.004545454545464622,5347,10,63,2
0.013636363636365445,5347,11,63,3
0.09999999999999432,5347,12,63,5
0.03636363636363171,5347,13,63,5
0.024999999999991473,5347,14,63,4
0.06818181818181301,5347,15,63,5
0.01590909090909065,5348,0,63,6
0.09999999999999432,5348,1,63,5
0.004545454545450411,5348,2,63,6
0.10000000000000853,5348,3,63,7
0.06818181818182723,5348,4,63,7
0.01590909090909065,5348,5,63,6
0.013636363636365445,5348,6,63,5
0.09999999999999432,5348,7,63,4
0.024999999999991473,5348,8,63,4
0.004545454545450411,5348,9,63,6
0.10000000000000853,5348,10,63,6
0.06818181818182723,5348,11,63,6
0.0022727272727252057,5348,12,63,6
0.03636363636363171,5348,13,63,6
0.09999999999999432,5348,14,63,5
0.03636363636363171,5348,15,63,5
0.10000000000000853,5349,0,63,8
0.025000000000005684,5349,1,63,6
0.09999999999999432,5349,2,63,7
0.05909090909091219,5349,3,63,6
0.09999999999999432,5349,4,63,5
0.04772727272727195,5349,5,63,5
0.045454545454546746,5349,6,63,4
0.025000000000005684,5349,7,63,5
0.04772727272727195,5349,8,63,5
0.09999999999999432,5349,9,63,5
0.10000000000000853,5349,10,63,5
0.10000000000000853,5349,11,63,4
0.06818181818182723,5349,12,63,3
0.09999999999999432,5349,13,63,3
0.06818181818181301,5349,14,63,3
0.004545454545450411,5349,15,63,3
0.056818181818172775,5350,0,63,3
0.004545454545450411,5350,1,63,2
0.10000000000000853,5350,2,63,2
0.10000000000000853,5350,3,63,1
0.04772727272727195,5350,4,63,1
0.09999999999999432,5350,5,63,1
0.09999999999999432,5350,6,63,1
0.06818181818181301,5350,7,63,1
0.09999999999999432,5350,8,63,1
0.10000000000000853,5350,9,63,1
0.09999999999999432,5350,10,63,1
0.10000000000000853,5350,11,63,1
0.09999999999999432,5350,12,63,1
0.09999999999999432,5350,13,63,1
0.03636363636363171,5350,14,63,2
0.024999999999991473,5350,15,63,1
0.03636363636363171,5351,0,63,3
0.09999999999999432,5351,1,63,3
0.06818181818181301,5351,2,63,3
0.004545454545450411,5351,3,63,4
0.013636363636365445,5351,4,63,4
0.013636363636365445,5351,5,63,4
0.04772727272727195,5351,6,63,5
0.09999999999999432,5351,7,63,5
0.06818181818181301,5351,8,63,5
0.013636363636365445,5351,9,63,5
0.05909090909091219,5351,10,63,5
0.09999999999999432,5351,11,63,5
0.013636363636351234,5351,12,63,5
0.025000000000005684,5351,13,63,4
0.004545454545464622,5351,14,63,4
0.004545454545450411,5351,15,63,4
0.03636363636363171,5352,0,63,4
0.10000000000000853,5352,1,63,5
0.10000000000000853,5352,2,63,4
0.0022727272727252057,5352,3,63,4
0.03636363636363171,5352,4,63,5
0.004545454545450411,5352,5,63,5
0.04772727272727195,5352,6,63,4
0.03409090909090651,5352,7,63,5
0.09999999999999432,5352,8,63,6
0.0022727272727252057,5352,9,63,4
0.09999999999999432,5352,10,63,6
0.01590909090909065,5352,11,63,5
0.045454545454546746,5352,12,63,5
0.09999999999999432,5352,13,63,5
0.06818181818181301,5352,14,63,5
0.01590909090909065,5352,15,63,5
0.024999999999991473,5353,0,63,5
0.013636363636365445,5353,1,63,4
0.05909090909091219,5353,2,63,5
0.0022727272727252057,5353,3,63,5
0.05909090909091219,5353,4,63,5
0.01590909090909065,5353,5,63,5
0.025000000000005684,5353,6,63,5
0.09999999999999432,5353,7,63,5
0.004545454545450411,5353,8,63,4
0.09999999999999432,5353,9,63,5
0.03636363636363171,5353,10,63,5
0.04772727272727195,5353,11,63,5
0.025000000000005684,5353,12,63,5
0.10000000000000853,5353,13,63,5
0.10000000000000853,5353,14,63,5
0.025000000000005684,5353,15,63,5
0.06818181818182723,5354,0,63,5
0.02727272727273089,5354,1,63,6
0.013636363636365445,5354,2,63,5
0.10000000000000853,5354,3,63,4
0.10000000000000853,5354,4,63,5
0.025000000000005684,5354,5,63,5
0.045454545454546746,5354,6,63,5
0.04772727272727195,5354,7,63,4
0.09999999999999432,5354,8,63,4
0.10000000000000853,5354,9,63,5
0.10000000000000853,5354,10,63,4
0.04772727272727195,5354,11,63,4
0.09999999999999432,5354,12,63,3
0.09999999999999432,5354,13,63,3
0.03636363636363171,5354,14,63,3
0.03636363636363171,5354,15,63,3
0.03636363636363171,5355,0,63,3
0.004545454545450411,5355,1,63,4
0.0022727272727252057,5355,2,63,5
0.09999999999999432,5355,3,63,5
0.06590909090908781,5355,4,63,6
0.01590909090909065,5355,5,63,6
0.045454545454546746,5355,6,63,5
0.013636363636365445,5355,7,63,5
0.03636363636363171,5355,8,63,5
0.09999999999999432,5355,9,63,5
0.06818181818181301,5355,10,63,5
0.10000000000000853,5355,11,63,6
0.045454545454546746,5355,12,63,6
0.02727272727273089,5355,13,63,5
0.03409090909092072,5355,14,63,6
0.02727272727273089,5355,15,63,6
0.03409090909092072,5356,0,63,6
0.10000000000000853,5356,1,63,6
0.09999999999999432,5356,2,63,7
0.10000000000000853,5356,3,63,5
0.036363636363645924,5356,4,63,7
0.03409090909090651,5356,5,63,9
0.03636363636363171,5356,6,63,7
0.04772727272727195,5356,7,63,6
0.004545454545450411,5356,8,63,5
0.004545454545464622,5356,9,63,6
0.013636363636365445,5356,10,63,6
0.03409090909092072,5356,11,63,7
0.09999999999999432,5356,12,63,7
0.056818181818186986,5356,13,63,7
0.004545454545464622,5356,14,63,7
0.06818181818181301,5356,15,63,7
0.025000000000005684,5357,0,63,7
0.004545454545464622,5357,1,63,7
0.056818181818186986,5357,2,63,9
0.004545454545464622,5357,3,63,11
0.025000000000005684,5357,4,63,9
0.09999999999999432,5357,5,63,5
0.06818181818181301,5357,6,63,5
0.10000000000000853,5357,7,63,5
0.04772727272727195,5357,8,63,6
0.09999999999999432,5357,9,63,5
0.06818181818181301,5357,10,63,5
0.025000000000005684,5357,11,63,5
0.004545454545450411,5357,12,63,5
0.10000000000000853,5357,13,63,3
0.04772727272727195,5357,14,63,3
0.013636363636365445,5357,15,63,3
0.02727272727271668,5358,0,63,4
0.06818181818181301,5358,1,63,4
0.0022727272727252057,5358,2,63,4
0.04772727272727195,5358,3,63,4
0.004545454545450411,5358,4,63,4
0.09999999999999432,5358,5,63,3
0.04772727272727195,5358,6,63,2
0.045454545454546746,5358,7,63,3
0.10000000000000853,5358,8,63,2
0.02727272727273089,5358,9,63,2
0.06590909090908781,5358,10,63,2
0.004545454545464622,5358,11,63,2
0.036363636363645924,5358,12,63,2
0.09999999999999432,5358,13,63,2
0.03636363636363171,5358,14,63,3
0.10000000000000853,5358,15,63,2
0.06818181818182723,5359,0,63,2
0.09999999999999432,5359,1,63,2
0.06818181818181301,5359,2,63,2
0.09999999999999432,5359,3,63,2
0.09999999999999432,5359,4,63,2
0.056818181818172775,5359,5,63,2
0.03636363636363171,5359,6,63,2
0.045454545454546746,5359,7,63,2
0.01590909090909065,5359,8,63,3
0.09999999999999432,5359,9,63,1
0.05909090909091219,5359,10,63,2
0.024999999999991473,5359,11,63,2
0.025000000000005684,5359,12,63,3
0.013636363636365445,5359,13,63,3
0.03636363636363171,5359,14,63,3
0.024999999999991473,5359,15,63,3
0.10000000000000853,5360,0,63,3
0.04772727272727195,5360,1,63,3
0.004545454545450411,5360,2,63,3
0.09999999999999432,5360,3,63,2
0.01590909090909065,5360,4,63,2
0.013636363636365445,5360,5,63,2
0.056818181818172775,5360,6,63,2
0.03636363636363171,5360,7,63,3
0.09999999999999432,5360,8,63,2
0.05909090909091219,5360,9,63,2
0.025000000000005684,5360,10,63,2
0.10000000000000853,5360,11,63,2
0.036363636363645924,5360,12,63,2
0.025000000000005684,5360,13,63,1
0.04772727272727195,5360,14,63,1
0.09999999999999432,5360,15,63,1
0.10000000000000853,5361,0,63,2
0.10000000000000853,5361,1,63,1
0.09999999999999432,5361,2,63,1
0.045454545454546746,5361,3,63,1
0.09999999999999432,5361,4,63,1
0.0022727272727252057,5361,5,63,1
0.09999999999999432,5361,6,63,1
0.10000000000000009,5361,7,64,5
0.10000000000000009,5361,8,64,13
0.10000000000000142,5361,9,64,1
0.10000000000000142,5361,10,64,1
0.10000000000000142,5361,11,64,2
0.10000000000000142,5361,12,64,9
0.10000000000000142,5361,13,64,2
0.10000000000000142,5361,14,64,10
0.10000000000000142,5361,15,64,2
0.09999999999999432,5362,0,64,4
0.09999999999999432,5362,1,64,9
0.09999999999999432,5362,2,64,5
0.09999999999999432,5362,3,64,10
0.09999999999999432,5362,4,64,3
0.09999999999999432,5362,5,64,1
0.10000000000002274,5362,6,64,1
0.10000000000002274,5362,7,64,6
0.09999999999999432,5362,8,64,3
0.09999999999999432,5362,9,64,4
0.09999999999999432,5362,10,64,10
0.09999999999999432,5362,11,64,3
0.09999999999999432,5362,12,64,2
0.09999999999999432,5362,13,64,9
0.09999999999999432,5362,14,64,10
0.09999999999999964,5362,15,73,5
0.025000000000000355,5363,0,73,61
0.09999999999999964,5363,1,73,43
0.10000000000000142,5363,2,73,60
0.10000000000000142,5363,3,73,60
0.09999999999999964,5363,4,73,15
0.09999999999999964,5363,5,73,54
0.09999999999999964,5363,6,73,19
0.02499999999999858,5363,7,73,62
0.0045454545454557405,5363,8,73,18
0.013636363636363669,5363,9,73,56
0.09999999999999964,5363,10,73,78
0.09999999999999964,5363,11,73,59
0.10000000000000142,5363,12,73,43
0.09999999999999964,5363,13,73,9
0.025000000000000355,5363,14,73,57
0.09999999999999964,5363,15,73,68
0.09999999999999964,5364,0,73,71
0.09999999999999964,5364,1,73,76
0.09999999999999964,5364,2,73,127
0.09999999999999964,5364,3,73,119
0.09999999999999964,5364,4,73,93
0.10000000000000142,5364,5,73,3
0.10000000000000142,5364,6,73,17
0.05681818181818343,5364,7,73,29
0.09999999999999787,5364,8,73,57
0.10000000000000142,5364,9,73,45
0.10000000000000142,5364,10,73,56
0.09999999999999787,5364,11,73,62
0.09999999999999787,5364,12,73,109
0.10000000000000142,5364,13,73,73
0.10000000000000142,5364,14,73,12
0.09999999999999787,5364,15,73,33
0.10000000000000142,5365,0,73,42
0.10000000000000142,5365,1,73,70
0.09999999999999787,5365,2,73,23
0.09999999999999787,5365,3,73,59
0.10000000000000142,5365,4,73,78
0.10000000000000142,5365,5,73,83
0.10000000000000142,5365,6,73,24
0.09999999999999787,5365,7,73,90
0.10000000000000142,5365,8,73,77
0.09999999999999787,5365,9,73,31
0.10000000000000142,5365,10,73,96
0.09999999999999787,5365,11,73,31
0.045454545454546746,5365,12,73,74
0.10000000000000142,5365,13,73,102
0.10000000000000142,5365,14,73,60
0.10000000000000142,5365,15,73,110
0.10000000000000142,5366,0,73,102
0.10000000000000142,5366,1,73,104
0.10000000000000142,5366,2,73,15
0.10000000000000142,5366,3,73,66
0.06818181818182012,5366,4,73,94
0.09999999999999787,5366,5,73,124
0.10000000000000142,5366,6,73,46
0.10000000000000142,5366,7,73,127
0.09999999999999787,5366,8,73,19
0.05681818181817988,5366,9,73,63
0.10000000000000142,5366,10,73,113
0.10000000000000142,5366,11,73,83
0.09999999999999787,5366,12,73,11
0.10000000000000142,5366,13,73,8
0.06818181818182012,5366,14,73,13
0.01590909090909065,5366,15,73,46
0.09999999999999432,5367,0,73,82
0.10000000000000142,5367,1,73,76
0.09999999999999432,5367,2,73,79
0.10000000000000142,5367,3,73,18
0.10000000000000142,5367,4,73,72
0.09999999999999432,5367,5,73,66
0.10000000000000142,5367,6,73,67
0.10000000000000142,5367,7,73,47
0.10000000000000142,5367,8,73,40
0.09999999999999432,5367,9,73,48
0.06818181818181301,5367,10,73,67
0.10000000000000142,5367,11,73,52
0.09999999999999432,5367,12,73,75
0.10000000000000142,5367,13,73,18
0.10000000000000142,5367,14,73,69
0.10000000000000142,5367,15,73,7
0.09999999999999432,5368,0,73,37
0.10000000000000142,5368,1,73,61
0.09999999999999432,5368,2,73,25
0.10000000000000142,5368,3,73,23
0.10000000000000142,5368,4,73,31
0.10000000000000142,5368,5,73,86
0.10000000000000142,5368,6,73,105
0.10000000000000142,5368,7,73,31
0.10000000000000142,5368,8,73,46
0.045454545454546746,5368,9,73,108
0.09999999999999432,5368,10,73,97
0.10000000000000142,5368,11,73,8
0.10000000000000142,5368,12,73,20
0.10000000000000142,5368,13,73,121
0.09999999999999432,5368,14,73,127
0.10000000000000142,5368,15,73,125
0.10000000000000142,5369,0,73,29
0.03636363636363882,5369,1,73,124
0.10000000000000142,5369,2,73,69
0.10000000000000142,5369,3,73,21
0.09999999999999432,5369,4,73,61
0.10000000000000142,5369,5,73,92
0.09999999999999432,5369,6,73,56
0.05681818181817988,5369,7,73,92
0.10000000000000142,5369,8,73,58
0.10000000000000142,5369,9,73,7
0.09999999999999432,5369,10,73,25
0.04545454545453964,5369,11,73,59
0.10000000000000142,5369,12,73,109
0.10000000000000142,5369,13,73,10
0.10000000000000142,5369,14,73,18
0.10000000000000142,5369,15,73,39
0.10000000000000142,5370,0,73,121
0.10000000000000142,5370,1,73,109
0.10000000000000142,5370,2,73,35
0.10000000000000142,5370,3,73,96
0.09999999999999432,5370,4,73,87
0.10000000000000142,5370,5,73,90
0.10000000000000142,5370,6,73,36
0.045454545454546746,5370,7,73,98
0.10000000000000142,5370,8,73,127
0.10000000000000142,5370,9,73,30
0.06818181818182012,5370,10,73,73
0.10000000000000142,5370,11,73,85
0.02499999999999858,5370,12,73,127
0.10000000000000142,5370,13,73,74
0.05681818181817988,5370,14,73,119
0.10000000000000142,5370,15,73,116
0.10000000000000142,5371,0,73,111
0.09999999999999432,5371,1,73,84
0.10000000000000142,5371,2,73,76
0.10000000000000142,5371,3,73,127
0.09999999999999432,5371,4,73,13
0.10000000000000142,5371,5,73,60
0.05909090909091219,5371,6,73,115
0.09999999999999432,5371,7,73,98
0.09999999999999432,5371,8,73,54
0.09999999999999432,5371,9,73,96
0.10000000000000142,5371,10,73,58
0.10000000000000142,5371,11,73,95
0.10000000000000142,5371,12,73,102
0.10000000000000142,5371,13,73,85
0.10000000000000142,5371,14,73,101
0.10000000000000142,5371,15,73,127
0.10000000000000142,5372,0,73,61
0.10000000000000142,5372,1,73,112
0.10000000000000142,5372,2,73,127
0.10000000000000142,5372,3,73,113
0.10000000000000142,5372,4,73,127
0.10000000000000142,5372,5,73,123
0.10000000000000142,5372,6,73,112
0.10000000000000142,5372,7,73,127
0.09999999999999432,5372,8,73,60
0.09999999999999432,5372,9,73,127
0.10000000000000142,5372,10,73,127
0.10000000000000142,5372,11,73,119
0.09999999999999432,5372,12,73,6
0.09999999999999432,5372,13,73,29
0.09999999999999432,5372,14,73,86
0.09999999999999432,5372,15,73,25
0.04772727272727195,5373,0,73,107
0.09999999999999432,5373,1,73,124
0.09999999999999432,5373,2,73,111
0.10000000000000853,5373,3,73,127
0.09999999999999432,5373,4,73,30
0.04772727272727195,5373,5,73,106
0.09999999999999432,5373,6,73,16
0.10000000000000853,5373,7,73,101
0.10000000000000853,5373,8,73,111
0.09999999999999432,5373,9,73,40
0.09999999999999432,5373,10,73,116
0.09999999999999432,5373,11,73,94
0.09999999999999432,5373,12,73,127
0.09999999999999432,5373,13,73,84
0.10000000000000853,5373,14,73,127
0.09999999999999432,5373,15,73,127
0.10000000000000853,5374,0,73,31
0.09999999999999432,5374,1,73,55
0.056818181818186986,5374,2,73,116
0.10000000000000853,5374,3,73,46
0.10000000000000853,5374,4,73,87
0.10000000000000853,5374,5,73,127
0.09999999999999432,5374,6,73,90
0.10000000000000853,5374,7,73,113
0.09999999999999432,5374,8,73,86
0.09999999999999432,5374,9,73,76
0.09999999999999432,5374,10,73,50
0.09999999999999432,5374,11,73,113
0.09999999999999432,5374,12,73,85
0.10000000000000853,5374,13,73,97
0.09999999999999432,5374,14,73,127
0.09999999999999432,5374,15,73,127
0.10000000000000853,5375,0,73,14
0.09999999999999432,5375,1,73,110
0.10000000000000853,5375,2,73,127
0.09999999999999432,5375,3,73,85
0.10000000000000853,5375,4,73,122
0.10000000000000853,5375,5,73,126
0.10000000000000853,5375,6,73,127
0.09999999999999432,5375,7,73,116
0.09999999999999432,5375,8,73,127
0.09999999999999432,5375,9,73,93
0.09999999999999432,5375,10,73,11
0.09999999999999432,5375,11,73,72
0.10000000000000853,5375,12,73,56
0.025000000000005684,5375,13,73,123
0.10000000000000853,5375,14,73,127
0.09999999999999432,5375,15,73,45
0.09999999999999432,5376,0,73,122
0.09999999999999432,5376,1,73,127
0.09999999999999432,5376,2,73,111
0.10000000000000853,5376,3,73,78
0.09999999999999432,5376,4,73,120
0.09999999999999432,5376,5,73,120
0.09999999999999432,5376,6,73,93
0.09999999999999432,5376,7,73,81
0.06590909090908781,5376,8,73,113
0.10000000000000853,5376,9,73,104
0.10000000000000853,5376,10,73,127
0.09999999999999432,5376,11,73,105
0.10000000000000853,5376,12,73,127
0.09999999999999432,5376,13,73,127
0.10000000000000853,5376,14,73,126
0.10000000000000853,5376,15,73,116
0.10000000000000853,5377,0,73,49
0.10000000000000853,5377,1,73,50
0.10000000000000853,5377,2,73,127
0.10000000000000853,5377,3,73,122
0.09999999999999432,5377,4,73,104
0.10000000000000853,5377,5,73,90
0.09999999999999432,5377,6,73,99
0.09999999999999432,5377,7,73,91
0.09999999999999432,5377,8,73,127
0.09999999999999432,5377,9,73,19
0.10000000000000853,5377,10,73,28
0.09999999999999432,5377,11,73,127
0.09999999999999432,5377,12,73,127
0.09999999999999432,5377,13,73,87
0.09999999999999432,5377,14,73,86
0.09999999999999432,5377,15,73,117
0.09999999999999432,5378,0,73,127
0.10000000000000853,5378,1,73,127
0.09999999999999432,5378,2,73,25
0.10000000000000853,5378,3,73,13
0.09999999999999432,5378,4,73,77
0.06818181818181301,5378,5,73,120
0.10000000000000853,5378,6,73,84
0.10000000000000853,5378,7,73,91
0.10000000000000853,5378,8,73,78
0.10000000000000853,5378,9,73,99
0.10000000000000853,5378,10,73,17
0.09999999999999432,5378,11,73,42
0.10000000000000853,5378,12,73,109
0.09999999999999432,5378,13,73,72
0.09999999999999432,5378,14,73,107
0.09999999999999432,5378,15,73,80
0.10000000000000853,5379,0,73,19
0.09999999999999432,5379,1,73,36
0.09999999999999432,5379,2,73,122
0.10000000000000853,5379,3,73,115
0.10000000000000853,5379,4,73,90
0.10000000000000853,5379,5,73,86
0.10000000000000853,5379,6,73,93
0.09999999999999432,5379,7,73,66
0.10000000000000853,5379,8,73,14
0.09999999999999432,5379,9,73,81
0.10000000000000853,5379,10,73,104
0.09999999999999432,5379,11,73,96
0.10000000000000853,5379,12,73,68
0.10000000000000853,5379,13,73,73
0.10000000000000853,5379,14,73,64
0.09999999999999432,5379,15,73,91
0.06818181818181301,5380,0,73,121
0.10000000000000853,5380,1,73,127
0.10000000000000853,5380,2,73,88
0.10000000000000853,5380,3,73,111
0.09999999999999432,5380,4,73,98
0.09999999999999432,5380,5,73,85
0.10000000000000853,5380,6,73,106
0.09999999999999432,5380,7,73,127
0.09999999999999432,5380,8,73,33
0.10000000000000853,5380,9,73,56
0.04772727272727195,5380,10,73,121
0.10000000000000853,5380,11,73,29
0.09999999999999432,5380,12,73,52
0.045454545454532536,5380,13,73,88
0.09999999999999432,5380,14,73,115
0.09999999999999432,5380,15,73,81
0.09999999999999432,5381,0,73,41
0.04772727272727195,5381,1,73,98
0.09999999999999432,5381,2,73,64
0.10000000000000853,5381,3,73,107
0.10000000000000853,5381,4,73,27
0.036363636363645924,5381,5,73,94
0.10000000000000853,5381,6,73,24
0.09999999999999432,5381,7,73,48
0.01590909090909065,5381,8,73,119
0.09999999999999432,5381,9,73,127
0.10000000000000853,5381,10,73,127
0.09999999999999432,5381,11,73,127
0.09999999999999432,5381,12,73,86
0.09999999999999432,5381,13,73,86
0.10000000000000853,5381,14,73,115
0.10000000000000853,5381,15,73,87
0.10000000000000853,5382,0,73,29
0.09999999999999432,5382,1,73,116
0.10000000000000853,5382,2,73,107
0.09999999999999432,5382,3,73,82
0.10000000000000853,5382,4,73,116
0.09999999999999432,5382,5,73,111
0.013636363636365445,5382,6,73,71
0.09999999999999432,5382,7,73,127
0.09999999999999432,5382,8,73,80
0.10000000000000853,5382,9,73,127
0.10000000000000853,5382,10,73,109
0.10000000000000853,5382,11,73,39
0.013636363636365445,5382,12,73,76
0.10000000000000853,5382,13,73,127
0.09999999999999432,5382,14,73,106
0.09999999999999432,5382,15,73,83
0.10000000000000853,5383,0,73,49
0.09999999999999432,5383,1,73,110
0.09999999999999432,5383,2,73,80
0.09999999999999432,5383,3,73,99
0.09999999999999432,5383,4,73,97
0.10000000000000853,5383,5,73,121
0.09999999999999432,5383,6,73,72
0.10000000000000853,5383,7,73,12
0.10000000000000853,5383,8,73,39
0.013636363636365445,5383,9,73,99
0.09999999999999432,5383,10,73,121
0.10000000000000853,5383,11,73,61
0.09999999999999432,5383,12,73,126
0.09999999999999432,5383,13,73,58
0.09999999999999432,5383,14,73,64
0.09999999999999432,5383,15,73,113
0.09999999999999432,5384,0,73,69
0.03636363636363171,5384,1,73,20
0.10000000000000853,5384,2,73,41
0.06818181818182723,5384,3,73,92
0.09999999999999432,5384,4,73,67
0.09999999999999432,5384,5,73,36
0.024999999999991473,5384,6,73,77
0.10000000000000853,5384,7,73,86
0.09999999999999432,5384,8,73,84
0.09999999999999432,5384,9,73,71
0.10000000000000853,5384,10,73,67
0.09999999999999432,5384,11,73,38
0.045454545454546746,5384,12,73,89
0.10000000000000853,5384,13,73,56
0.10000000000000853,5384,14,73,80
0.09999999999999432,5384,15,73,24
0.09999999999999432,5385,0,73,57
0.09999999999999432,5385,1,73,127
0.09999999999999432,5385,2,73,127
0.09999999999999432,5385,3,73,99
0.09999999999999432,5385,4,73,101
0.10000000000002274,5385,5,73,85
0.004545454545478833,5385,6,73,19
0.09999999999999432,5385,7,73,127
0.09999999999999432,5385,8,73,79
0.09999999999999432,5385,9,73,84
0.10000000000002274,5385,10,73,57
0.09999999999999432,5385,11,73,82
0.09999999999999432,5385,12,73,101
0.09999999999999432,5385,13,73,64
0.10000000000002274,5385,14,73,106
0.10000000000002274,5385,15,73,30
0.09999999999999432,5386,0,73,65
0.10000000000002274,5386,1,73,56
0.09999999999999432,5386,2,73,101
0.09999999999999432,5386,3,73,99
0.09999999999999432,5386,4,73,38
0.09999999999999432,5386,5,73,125
0.09999999999999432,5386,6,73,69
0.09999999999999432,5386,7,73,62
0.09999999999999432,5386,8,73,27
0.09999999999999432,5386,9,73,87
0.09999999999999432,5386,10,73,62
0.09999999999999432,5386,11,73,85
0.10000000000002274,5386,12,73,59
0.09999999999999432,5386,13,73,98
0.09999999999999432,5386,14,73,86
0.09999999999999432,5386,15,73,90
0.10000000000002274,5387,0,73,127
0.10000000000002274,5387,1,73,105
0.09999999999999432,5387,2,73,72
0.09999999999999432,5387,3,73,88
0.09999999999999432,5387,4,73,87
0.09999999999999432,5387,5,73,118
0.10000000000002274,5387,6,73,55
0.09999999999999432,5387,7,73,86
0.09999999999999432,5387,8,73,105
0.09999999999999432,5387,9,73,112
0.09999999999999432,5387,10,73,95
0.09999999999999432,5387,11,73,66
0.10000000000002274,5387,12,73,119
0.09999999999999432,5387,13,73,82
0.09999999999999432,5387,14,73,82
0.09999999999999432,5387,15,73,17
0.09999999999999432,5388,0,73,49
0.004545454545450411,5388,1,73,89
0.09999999999999432,5388,2,73,69
0.09999999999999432,5388,3,73,77
0.09999999999999432,5388,4,73,127
0.09999999999999432,5388,5,73,92
0.09999999999999432,5388,6,73,48
0.09999999999999432,5388,7,73,117
0.09999999999999432,5388,8,73,54
0.09999999999999432,5388,9,73,2
0.04772727272728616,5388,10,73,10
0.09999999999999432,5388,11,73,77
0.09999999999999432,5388,12,73,125
0.09999999999999432,5388,13,73,74
0.10000000000002274,5388,14,73,124
0.09999999999999432,5388,15,73,114
0.09999999999999432,5389,0,73,72
0.09999999999999432,5389,1,73,75
0.10000000000002274,5389,2,73,80
0.09999999999999432,5389,3,73,103
0.09999999999999432,5389,4,73,96
0.09999999999999432,5389,5,73,25
0.09999999999999432,5389,6,73,36
0.03636363636363171,5389,7,73,98
0.09999999999999432,5389,8,73,80
0.09999999999999432,5389,9,73,77
0.09999999999999432,5389,10,73,67
0.09999999999999432,5389,11,73,90
0.09999999999999432,5389,12,73,78
0.09999999999999432,5389,13,73,40
0.10000000000002274,5389,14,73,100
0.09999999999999432,5389,15,73,23
0.09999999999999432,5390,0,73,36
0.10000000000002274,5390,1,73,99
0.09999999999999432,5390,2,73,127
0.09999999999999432,5390,3,73,94
0.09999999999999432,5390,4,73,99
0.09999999999999432,5390,5,73,26
0.09999999999999432,5390,6,73,94
0.09999999999999432,5390,7,73,68
0.09999999999999432,5390,8,73,94
0.10000000000002274,5390,9,73,114
0.09999999999999432,5390,10,73,53
0.10000000000002274,5390,11,73,19
0.09999999999999432,5390,12,73,91
0.09999999999999432,5390,13,73,105
0.09999999999999432,5390,14,73,86
0.10000000000002274,5390,15,73,121
0.09999999999999432,5391,0,73,116
0.09999999999999432,5391,1,73,64
0.09999999999999432,5391,2,73,54
0.10000000000002274,5391,3,73,13
0.10000000000002274,5391,4,73,64
0.10000000000002274,5391,5,73,66
0.10000000000002274,5391,6,73,127
0.09999999999999432,5391,7,73,56
0.09999999999999432,5391,8,73,103
0.10000000000002274,5391,9,73,63
0.09999999999999432,5391,10,73,75
0.09999999999999432,5391,11,73,84
0.09999999999999432,5391,12,73,106
0.09999999999999432,5391,13,73,107
0.09999999999999432,5391,14,73,38
0.09999999999999432,5391,15,73,90
0.09999999999999432,5392,0,73,118
0.10000000000002274,5392,1,73,89
0.09999999999999432,5392,2,73,83
0.09999999999999432,5392,3,73,96
0.09999999999999432,5392,4,73,95
0.09999999999999432,5392,5,73,89
0.09999999999999432,5392,6,73,15
0.10000000000002274,5392,7,73,59
0.09999999999999432,5392,8,73,127
0.09999999999999432,5392,9,73,127
0.10000000000002274,5392,10,73,127
0.09999999999999432,5392,11,73,97
0.09999999999999432,5392,12,73,111
0.09999999999999432,5392,13,73,82
0.09999999999999432,5392,14,73,26
0.10000000000002274,5392,15,73,29
0.10000000000002274,5393,0,73,77
0.09999999999999432,5393,1,73,52
0.09999999999999432,5393,2,73,21
0.09999999999999432,5393,3,73,42
0.09999999999999432,5393,4,73,109
0.10000000000002274,5393,5,73,41
0.09999999999999432,5393,6,73,10
0.09999999999999432,5393,7,73,78
0.10000000000002274,5393,8,73,63
0.09999999999999432,5393,9,73,55
0.056818181818186986,5393,10,73,87
0.10000000000002274,5393,11,73,80
0.09999999999999432,5393,12,73,48
0.09999999999999432,5393,13,73,103
0.09999999999999432,5393,14,73,127
0.09999999999999432,5393,15,73,33
0.10000000000000009,5394,0,64,55
0.09999999999999987,5394,1,64,127
0.10000000000000009,5394,2,64,102
0.09999999999999987,5394,3,64,78
0.10000000000000009,5394,4,64,73
0.10000000000000009,5394,5,64,47
0.10000000000000009,5394,6,64,53
0.10000000000000009,5394,7,64,54
0.10000000000000009,5394,8,64,34
0.10000000000000009,5394,9,64,26
0.10000000000000009,5394,10,64,31
0.09999999999999964,5394,11,64,32
0.10000000000000009,5394,12,64,34
0.10000000000000009,5394,13,64,73
0.10000000000000009,5394,14,64,84
0.10000000000000009,5394,15,64,57
0.09999999999999964,5395,0,64,40
0.0681818181818179,5395,1,64,47
0.09999999999999964,5395,2,64,58
0.10000000000000053,5395,3,64,38
0.06818181818181834,5395,4,64,36
0.09999999999999964,5395,5,64,42
0.09999999999999964,5395,6,64,99
0.09999999999999964,5395,7,64,72
0.09999999999999964,5395,8,64,34
0.09999999999999964,5395,9,64,37
0.06818181818181746,5395,10,64,48
0.09999999999999964,5395,11,64,50
0.10000000000000053,5395,12,64,47
0.09999999999999964,5395,13,64,68
0.09999999999999964,5395,14,64,95
0.09999999999999964,5395,15,64,78
0.10000000000000053,5396,0,64,43
0.09999999999999964,5396,1,64,36
0.09999999999999964,5396,2,64,22
0.10000000000000053,5396,3,64,29
0.06818181818181834,5396,4,64,65
0.09999999999999964,5396,5,64,61
0.10000000000000053,5396,6,64,40
0.10000000000000053,5396,7,64,40
0.10000000000000053,5396,8,64,23
0.10000000000000053,5396,9,64,39
0.09999999999999964,5396,10,64,63
0.10000000000000053,5396,11,64,23
0.09999999999999964,5396,12,64,61
0.10000000000000142,5396,13,64,90
0.10000000000000142,5396,14,64,58
0.10000000000000142,5396,15,64,53
0.09999999999999964,5397,0,64,47
0.09999999999999964,5397,1,64,29
0.09999999999999964,5397,2,64,90
0.10000000000000142,5397,3,64,67
0.09999999999999964,5397,4,64,60
0.09999999999999964,5397,5,64,37
0.09999999999999964,5397,6,64,42
0.09999999999999964,5397,7,64,34
0.09999999999999964,5397,8,64,32
0.09999999999999964,5397,9,64,35
0.10000000000000142,5397,10,64,26
0.09999999999999964,5397,11,64,27
0.09999999999999964,5397,12,64,20
0.09999999999999964,5397,13,64,26
0.09999999999999964,5397,14,64,28
0.10000000000000142,5397,15,64,42
0.10000000000000142,5398,0,64,20
0.10000000000000142,5398,1,64,26
0.10000000000000142,5398,2,64,31
0.09999999999999787,5398,3,64,17
0.10000000000000142,5398,4,64,22
0.10000000000000142,5398,5,64,20
0.10000000000000142,5398,6,64,18
0.09999999999999787,5398,7,64,16
0.10000000000000142,5398,8,64,19
0.10000000000000142,5398,9,64,18
0.10000000000000142,5398,10,64,7
0.09999999999999787,5398,11,64,8
0.10000000000000142,5398,12,64,25
0.09999999999999787,5398,13,64,32
0.10000000000000142,5398,14,64,29
0.09999999999999787,5398,15,64,35
0.10000000000000142,5399,0,64,25
0.10000000000000142,5399,1,64,20
0.10000000000000142,5399,2,64,28
0.10000000000000142,5399,3,64,23
0.10000000000000142,5399,4,64,17
0.09999999999999787,5399,5,64,21
0.10000000000000142,5399,6,64,17
0.09999999999999787,5399,7,64,19
0.09999999999999787,5399,8,64,32
0.09999999999999787,5399,9,64,25
0.10000000000000142,5399,10,64,22
0.09999999999999787,5399,11,64,17
0.09999999999999787,5399,12,64,36
0.10000000000000142,5399,13,64,29
0.09999999999999787,5399,14,64,24
0.10000000000000142,5399,15,64,21
0.10000000000000142,5400,0,64,30
0.09999999999999787,5400,1,64,26
0.09999999999999787,5400,2,64,25
0.10000000000000142,5400,3,64,28
0.09999999999999787,5400,4,64,31
0.10000000000000142,5400,5,64,29
0.10000000000000142,5400,6,64,26
0.10000000000000142,5400,7,64,31
0.09999999999999787,5400,8,64,24
0.10000000000000142,5400,9,64,33
0.09999999999999787,5400,10,64,21
0.10000000000000142,5400,11,64,15
0.10000000000000142,5400,12,64,33
0.10000000000000142,5400,13,64,49
0.09999999999999787,5400,14,64,36
0.10000000000000142,5400,15,64,29
0.09999999999999787,5401,0,64,25
0.10000000000000142,5401,1,64,28
0.09999999999999787,5401,2,64,35
0.10000000000000142,5401,3,64,30
0.09999999999999787,5401,4,64,16
0.10000000000000142,5401,5,64,23
0.09999999999999787,5401,6,64,30
0.10000000000000142,5401,7,64,33
0.09999999999999787,5401,8,64,25
0.10000000000000142,5401,9,64,29
0.09999999999999787,5401,10,64,19
0.10000000000000142,5401,11,64,21
0.10000000000000142,5401,12,64,38
0.10000000000000142,5401,13,64,36
0.09999999999999787,5401,14,64,35
0.10000000000000142,5401,15,64,28
0.09999999999999787,5402,0,64,21
0.10000000000000142,5402,1,64,16
0.09999999999999787,5402,2,64,31
0.10000000000000142,5402,3,64,32
0.09999999999999787,5402,4,64,26
0.10000000000000142,5402,5,64,20
0.09999999999999787,5402,6,64,29
0.10000000000000142,5402,7,64,41
0.10000000000000142,5402,8,64,27
0.10000000000000142,5402,9,64,21
0.09999999999999787,5402,10,64,19
0.10000000000000142,5402,11,64,17
0.09999999999999787,5402,12,64,35
0.10000000000000142,5402,13,64,48
0.09999999999999787,5402,14,64,36
0.10000000000000142,5402,15,64,38
0.09999999999999787,5403,0,64,36
0.09999999999999787,5403,1,64,23
0.10000000000000142,5403,2,64,25
0.10000000000000142,5403,3,64,41
0.10000000000000142,5403,4,64,50
0.09999999999999787,5403,5,64,47
0.10000000000000142,5403,6,64,31
0.09999999999999787,5403,7,64,33
0.10000000000000142,5403,8,64,30
0.10000000000000142,5403,9,64,16
0.09999999999999787,5403,10,64,24
0.10000000000000142,5403,11,64,25
0.09999999999999787,5403,12,64,28
0.10000000000000142,5403,13,64,26
0.10000000000000142,5403,14,64,22
0.10000000000000142,5403,15,64,32
0.09999999999999432,5404,0,64,24
0.10000000000000142,5404,1,64,15
0.10000000000000142,5404,2,64,18
0.10000000000000142,5404,3,64,18
0.09999999999999432,5404,4,64,26
0.09999999999999432,5404,5,64,26
0.10000000000000142,5404,6,64,13
0.10000000000000142,5404,7,64,22
0.10000000000000142,5404,8,64,16
0.09999999999999432,5404,9,64,22
0.10000000000000142,5404,10,64,36
0.09999999999999432,5404,11,64,46
0.09999999999999432,5404,12,64,39
0.10000000000000142,5404,13,64,33
0.10000000000000142,5404,14,64,39
0.10000000000000142,5404,15,64,40
0.10000000000000142,5405,0,64,34
0.10000000000000142,5405,1,64,49
0.10000000000000142,5405,2,64,34
0.10000000000000142,5405,3,64,41
0.10000000000000142,5405,4,64,37
0.10000000000000142,5405,5,64,50
0.10000000000000142,5405,6,64,31
0.10000000000000142,5405,7,64,41
0.10000000000000142,5405,8,64,39
0.10000000000000142,5405,9,64,48
0.10000000000000142,5405,10,64,36
0.10000000000000142,5405,11,64,40
0.09999999999999432,5405,12,64,39
0.10000000000000142,5405,13,64,46
0.10000000000000142,5405,14,64,41
0.10000000000000142,5405,15,64,42
0.10000000000000142,5406,0,64,40
0.10000000000000142,5406,1,64,39
0.10000000000000142,5406,2,64,47
0.10000000000000142,5406,3,64,34
0.10000000000000142,5406,4,64,42
0.10000000000000142,5406,5,64,40
0.10000000000000142,5406,6,64,38
0.10000000000000142,5406,7,64,25
0.10000000000000142,5406,8,64,44
0.10000000000000142,5406,9,64,36
0.10000000000000142,5406,10,64,35
0.10000000000000142,5406,11,64,42
0.10000000000000142,5406,12,64,51
0.10000000000000142,5406,13,64,43
0.09999999999999432,5406,14,64,30
0.09999999999999432,5406,15,64,60
0.10000000000000142,5407,0,64,22
0.09999999999999432,5407,1,64,67
0.10000000000000142,5407,2,64,35
0.10000000000000142,5407,3,64,30
0.09999999999999432,5407,4,64,40
0.10000000000000853,5407,5,64,40
0.10000000000000853,5407,6,64,27
0.10000000000000853,5407,7,64,28
0.10000000000000853,5407,8,64,34
0.09999999999999432,5407,9,64,28
0.09999999999999432,5407,10,64,43
0.09999999999999432,5407,11,64,29
0.10000000000000853,5407,12,64,33
0.09999999999999432,5407,13,64,33
0.09999999999999432,5407,14,64,33
0.09999999999999432,5407,15,64,18
0.09999999999999432,5408,0,64,45
0.09999999999999432,5408,1,64,43
0.09999999999999432,5408,2,64,41
0.09999999999999432,5408,3,64,34
0.09999999999999432,5408,4,64,49
0.10000000000000853,5408,5,64,23
0.09999999999999432,5408,6,64,19
0.09999999999999432,5408,7,64,31
0.09999999999999432,5408,8,64,35
0.09999999999999432,5408,9,64,41
0.09999999999999432,5408,10,64,30
0.09999999999999432,5408,11,64,38
0.09999999999999432,5408,12,64,28
0.09999999999999432,5408,13,64,28
0.09999999999999432,5408,14,64,42
0.09999999999999432,5408,15,64,39
0.09999999999999432,5409,0,64,39
0.10000000000000853,5409,1,64,9
0.09999999999999432,5409,2,64,10
0.10000000000000853,5409,3,64,12
0.09999999999999432,5409,4,64,8
0.09999999999999432,5409,5,64,15
0.09999999999999432,5409,6,64,11
0.09999999999999432,5409,7,64,20
0.09999999999999432,5409,8,64,27
0.10000000000000853,5409,9,64,26
0.10000000000002274,5409,10,64,10
0.09999999999999432,5409,11,64,12
0.09999999999999432,5409,12,64,10
0.09999999999999432,5409,13,64,16
0.09999999999999432,5409,14,64,17
0.09999999999999432,5409,15,64,14
0.09999999999999432,5410,0,64,28
0.09999999999999432,5410,1,64,26
0.09999999999999432,5410,2,64,20
0.09999999999999432,5410,3,64,24
0.09999999999999432,5410,4,64,32
0.09999999999999432,5410,5,64,36
0.09999999999999432,5410,6,64,29
0.09999999999999432,5410,7,64,46
0.09999999999999432,5410,8,64,42
0.09999999999999432,5410,9,64,26
0.09999999999999432,5410,10,64,21
0.09999999999999432,5410,11,64,35
0.09999999999999432,5410,12,64,33
0.09999999999999432,5410,13,64,15
0.09999999999999432,5410,14,64,11
0.09999999999999432,5410,15,64,21
0.09999999999999432,5411,0,64,20
0.09999999999999432,5411,1,64,16
0.09999999999999432,5411,2,64,16
0.10000000000002274,5411,3,64,18
0.09999999999999432,5411,4,64,14
0.09999999999999432,5411,5,64,16
0.10000000000002274,5411,6,64,21
0.09999999999999432,5411,7,64,13
0.09999999999999432,5411,8,64,11
0.09999999999999432,5411,9,64,18
0.09999999999999432,5411,10,64,22
0.10000000000002274,5411,11,64,27
0.09999999999999432,5411,12,64,38
0.10000000000002274,5411,13,64,33
0.09999999999999432,5411,14,64,32
0.09999999999999432,5411,15,64,1
0.09999999999999964,5412,0,72,1
0.10000000000000142,5412,1,72,60
0.09999999999999964,5412,2,72,84
0.09999999999999964,5412,3,72,57
0.09999999999999964,5412,4,72,75
0.09999999999999964,5412,5,72,109
0.09999999999999964,5412,6,72,26
0.09999999999999964,5412,7,72,81
0.09999999999999964,5412,8,72,25
0.025000000000000355,5412,9,72,81
0.09999999999999964,5412,10,72,21
0.09999999999999964,5412,11,72,71
0.09999999999999964,5412,12,72,99
0.10000000000000142,5412,13,72,82
0.09999999999999964,5412,14,72,79
0.10000000000000142,5412,15,72,12
0.09999999999999964,5413,0,72,54
0.10000000000000142,5413,1,72,107
0.10000000000000142,5413,2,72,86
0.10000000000000142,5413,3,72,107
0.09999999999999964,5413,4,72,103
0.09999999999999964,5413,5,72,97
0.10000000000000142,5413,6,72,98
0.09999999999999964,5413,7,72,11
0.09999999999999964,5413,8,72,90
0.10000000000000142,5413,9,72,84
0.09999999999999964,5413,10,72,84
0.10000000000000142,5413,11,72,81
0.10000000000000142,5413,12,72,53
0.09999999999999787,5413,13,72,110
0.10000000000000142,5413,14,72,46
0.09999999999999787,5413,15,72,32
0.10000000000000142,5414,0,72,84
0.10000000000000142,5414,1,72,59
0.10000000000000142,5414,2,72,74
0.10000000000000142,5414,3,72,29
0.03636363636363882,5414,4,72,50
0.05681818181818343,5414,5,72,85
0.10000000000000142,5414,6,72,105
0.09999999999999787,5414,7,72,98
0.10000000000000142,5414,8,72,116
0.10000000000000142,5414,9,72,28
0.10000000000000142,5414,10,72,97
0.10000000000000142,5414,11,72,89
0.10000000000000142,5414,12,72,54
0.10000000000000142,5414,13,72,82
0.09999999999999787,5414,14,72,63
0.10000000000000142,5414,15,72,83
0.10000000000000142,5415,0,72,12
0.04772727272727195,5415,1,72,59
0.10000000000000142,5415,2,72,45
0.09999999999999787,5415,3,72,83
0.10000000000000142,5415,4,72,91
0.09999999999999787,5415,5,72,17
0.09999999999999787,5415,6,72,97
0.10000000000000142,5415,7,72,76
0.10000000000000142,5415,8,72,97
0.09999999999999787,5415,9,72,45
0.09999999999999787,5415,10,72,26
0.10000000000000142,5415,11,72,114
0.05909090909090864,5415,12,72,111
0.10000000000000142,5415,13,72,79
0.09999999999999787,5415,14,72,76
0.09999999999999787,5415,15,72,38
0.10000000000000142,5416,0,72,75
0.09999999999999787,5416,1,72,101
0.09999999999999787,5416,2,72,98
0.10000000000000142,5416,3,72,69
0.09999999999999787,5416,4,72,69
0.10000000000000142,5416,5,72,35
0.09999999999999787,5416,6,72,97
0.09999999999999787,5416,7,72,90
0.10000000000000142,5416,8,72,51
0.09999999999999787,5416,9,72,60
0.10000000000000142,5416,10,72,92
0.09999999999999787,5416,11,72,53
0.09999999999999787,5416,12,72,77
0.09999999999999432,5416,13,72,26
0.10000000000000142,5416,14,72,99
0.10000000000000142,5416,15,72,80
0.10000000000000142,5417,0,72,88
0.10000000000000142,5417,1,72,20
0.10000000000000142,5417,2,72,75
0.10000000000000142,5417,3,72,3
0.10000000000000142,5417,4,72,90
0.10000000000000142,5417,5,72,108
0.10000000000000142,5417,6,72,108
0.10000000000000142,5417,7,72,77
0.09999999999999432,5417,8,72,66
0.10000000000000142,5417,9,72,65
0.10000000000000142,5417,10,72,93
0.09999999999999432,5417,11,72,28
0.10000000000000142,5417,12,72,74
0.09999999999999432,5417,13,72,81
0.10000000000000142,5417,14,72,109
0.10000000000000142,5417,15,72,98
0.10000000000000142,5418,0,72,79
0.10000000000000142,5418,1,72,99
0.09999999999999432,5418,2,72,90
0.10000000000000142,5418,3,72,84
0.10000000000000142,5418,4,72,82
0.09999999999999432,5418,5,72,28
0.10000000000000142,5418,6,72,69
0.09999999999999432,5418,7,72,75
0.10000000000000142,5418,8,72,87
0.10000000000000142,5418,9,72,36
0.10000000000000142,5418,10,72,85
0.10000000000000142,5418,11,72,106
0.10000000000000142,5418,12,72,66
0.10000000000000142,5418,13,72,83
0.10000000000000142,5418,14,72,73
0.10000000000000142,5418,15,72,99
0.10000000000000142,5419,0,72,79
0.10000000000000142,5419,1,72,6
0.09999999999999432,5419,2,72,95
0.10000000000000142,5419,3,72,83
0.10000000000000142,5419,4,72,87
0.10000000000000142,5419,5,72,69
0.10000000000000142,5419,6,72,109
0.10000000000000142,5419,7,72,78
0.10000000000000142,5419,8,72,92
0.10000000000000142,5419,9,72,104
0.10000000000000142,5419,10,72,24
0.10000000000000142,5419,11,72,86
0.10000000000000142,5419,12,72,79
0.09999999999999432,5419,13,72,68
0.10000000000000142,5419,14,72,63
0.10000000000000142,5419,15,72,101
0.10000000000000142,5420,0,72,60
0.10000000000000142,5420,1,72,71
0.10000000000000142,5420,2,72,84
0.09999999999999432,5420,3,72,60
0.10000000000000142,5420,4,72,68
0.10000000000000142,5420,5,72,25
0.09999999999999432,5420,6,72,105
0.06590909090908781,5420,7,72,115
0.10000000000000142,5420,8,72,49
0.10000000000000142,5420,9,72,94
0.09999999999999432,5420,10,72,67
0.10000000000000142,5420,11,72,93
0.10000000000000142,5420,12,72,66
0.10000000000000142,5420,13,72,87
0.10000000000000142,5420,14,72,46
0.10000000000000142,5420,15,72,63
0.10000000000000142,5421,0,72,72
0.09999999999999432,5421,1,72,18
0.10000000000000142,5421,2,72,83
0.056818181818186986,5421,3,72,103
0.10000000000000142,5421,4,72,20
0.04772727272727195,5421,5,72,53
0.09999999999999432,5421,6,72,111
0.09999999999999432,5421,7,72,88
0.10000000000000142,5421,8,72,99
0.10000000000000142,5421,9,72,104
0.09999999999999432,5421,10,72,73
0.10000000000000142,5421,11,72,85
0.09999999999999432,5421,12,72,70
0.10000000000000142,5421,13,72,102
0.09999999999999432,5421,14,72,49
0.04772727272727195,5421,15,72,87
0.10000000000000142,5422,0,72,52
0.09999999999999432,5422,1,72,65
0.10000000000000853,5422,2,72,76
0.10000000000000853,5422,3,72,44
0.10000000000000853,5422,4,72,84
0.10000000000000853,5422,5,72,84
0.09999999999999432,5422,6,72,77
0.09999999999999432,5422,7,72,57
0.10000000000000853,5422,8,72,43
0.10000000000000853,5422,9,72,86
0.09999999999999432,5422,10,72,91
0.10000000000000853,5422,11,72,48
0.056818181818186986,5422,12,72,76
0.09999999999999432,5422,13,72,44
0.09999999999999432,5422,14,72,82
0.09999999999999432,5422,15,72,78
0.10000000000000853,5423,0,72,60
0.09999999999999432,5423,1,72,90
0.09999999999999432,5423,2,72,13
0.09999999999999432,5423,3,72,98
0.09999999999999432,5423,4,72,100
0.09999999999999432,5423,5,72,39
0.09999999999999432,5423,6,72,62
0.09999999999999432,5423,7,72,93
0.09999999999999432,5423,8,72,72
0.09999999999999432,5423,9,72,116
0.09999999999999432,5423,10,72,90
0.09999999999999432,5423,11,72,120
0.09999999999999432,5423,12,72,49
0.004545454545450411,5423,13,72,16
0.10000000000000853,5423,14,72,75
0.10000000000000853,5423,15,72,36
0.025000000000005684,5424,0,72,93
0.09999999999999432,5424,1,72,99
0.09999999999999432,5424,2,72,63
0.09999999999999432,5424,3,72,33
0.10000000000000853,5424,4,72,100
0.09999999999999432,5424,5,72,102
0.10000000000000853,5424,6,72,64
0.10000000000000853,5424,7,72,12
0.10000000000000853,5424,8,72,80
0.025000000000005684,5424,9,72,97
0.10000000000000853,5424,10,72,108
0.10000000000000853,5424,11,72,66
0.10000000000000853,5424,12,72,64
0.09999999999999432,5424,13,72,40
0.10000000000000853,5424,14,72,14
0.10000000000000853,5424,15,72,69
0.09999999999999432,5425,0,72,69
0.10000000000000853,5425,1,72,58
0.10000000000000853,5425,2,72,96
0.025000000000005684,5425,3,72,98
0.10000000000000853,5425,4,72,83
0.10000000000000853,5425,5,72,111
0.10000000000000853,5425,6,72,97
0.09999999999999432,5425,7,72,112
0.09999999999999432,5425,8,72,2
0.10000000000000853,5425,9,72,86
0.09999999999999432,5425,10,72,113
0.09999999999999432,5425,11,72,91
0.09999999999999432,5425,12,72,85
0.10000000000000853,5425,13,72,86
0.09999999999999432,5425,14,72,70
0.09999999999999432,5425,15,72,78
0.09999999999999432,5426,0,72,67
0.09999999999999432,5426,1,72,98
0.10000000000000853,5426,2,72,11
0.09999999999999432,5426,3,72,72
0.09999999999999432,5426,4,72,96
0.09999999999999432,5426,5,72,93
0.10000000000000853,5426,6,72,68
0.10000000000000853,5426,7,72,54
0.09999999999999432,5426,8,72,83
0.10000000000000853,5426,9,72,91
0.10000000000000853,5426,10,72,80
0.09999999999999432,5426,11,72,90
0.09999999999999432,5426,12,72,62
0.10000000000000853,5426,13,72,92
0.09999999999999432,5426,14,72,81
0.09999999999999432,5426,15,72,71
0.10000000000000853,5427,0,72,98
0.10000000000000853,5427,1,72,94
0.10000000000000853,5427,2,72,71
0.10000000000000853,5427,3,72,103
0.09999999999999432,5427,4,72,69
0.10000000000000853,5427,5,72,85
0.10000000000000853,5427,6,72,30
0.09999999999999432,5427,7,72,84
0.09999999999999432,5427,8,72,111
0.09999999999999432,5427,9,72,114
0.10000000000000853,5427,10,72,68
0.09999999999999432,5427,11,72,75
0.10000000000000853,5427,12,72,97
0.10000000000000853,5427,13,72,39
0.10000000000000853,5427,14,72,112
0.10000000000000853,5427,15,72,101
0.09999999999999432,5428,0,72,69
0.10000000000000853,5428,1,72,98
0.09999999999999432,5428,2,72,103
0.10000000000000853,5428,3,72,65
0.10000000000000853,5428,4,72,109
0.09999999999999432,5428,5,72,64
0.09999999999999432,5428,6,72,66
0.10000000000000853,5428,7,72,39
0.10000000000000853,5428,8,72,7
0.09999999999999432,5428,9,72,23
0.09999999999999432,5428,10,72,71
0.10000000000000853,5428,11,72,91
0.10000000000000853,5428,12,72,54
0.10000000000000853,5428,13,72,71
0.09999999999999432,5428,14,72,114
0.09999999999999432,5428,15,72,9
0.09999999999999432,5429,0,72,51
0.10000000000000853,5429,1,72,82
0.09999999999999432,5429,2,72,68
0.09999999999999432,5429,3,72,60
0.056818181818186986,5429,4,72,86
0.09999999999999432,5429,5,72,78
0.09999999999999432,5429,6,72,64
0.10000000000000853,5429,7,72,71
0.09999999999999432,5429,8,72,87
0.09999999999999432,5429,9,72,86
0.10000000000000853,5429,10,72,89
0.09999999999999432,5429,11,72,74
0.09999999999999432,5429,12,72,31
0.09999999999999432,5429,13,72,22
0.09999999999999432,5429,14,72,78
0.09999999999999432,5429,15,72,102
0.09999999999999432,5430,0,72,77
0.10000000000000853,5430,1,72,63
0.09999999999999432,5430,2,72,81
0.10000000000000853,5430,3,72,59
0.01590909090909065,5430,4,72,23
0.10000000000000853,5430,5,72,77
0.09999999999999432,5430,6,72,101
0.09999999999999432,5430,7,72,100
0.09999999999999432,5430,8,72,89
0.10000000000000853,5430,9,72,74
0.09999999999999432,5430,10,72,30
0.09999999999999432,5430,11,72,103
0.09999999999999432,5430,12,72,88
0.09999999999999432,5430,13,72,72
0.10000000000000853,5430,14,72,62
0.09999999999999432,5430,15,72,82
0.09999999999999432,5431,0,72,82
0.10000000000000853,5431,1,72,18
0.10000000000000853,5431,2,72,26
0.09999999999999432,5431,3,72,86
0.09999999999999432,5431,4,72,66
0.10000000000000853,5431,5,72,96
0.09999999999999432,5431,6,72,43
0.09999999999999432,5431,7,72,43
0.09999999999999432,5431,8,72,75
0.09999999999999432,5431,9,72,41
0.10000000000000853,5431,10,72,45
0.10000000000000853,5431,11,72,115
0.09999999999999432,5431,12,72,17
0.09999999999999432,5431,13,72,20
0.10000000000000853,5431,14,72,57
0.10000000000000853,5431,15,72,42
0.10000000000000853,5432,0,72,83
0.10000000000000853,5432,1,72,59
0.09999999999999432,5432,2,72,31
0.09999999999999432,5432,3,72,100
0.09999999999999432,5432,4,72,90
0.09999999999999432,5432,5,72,76
0.09999999999999432,5432,6,72,78
0.09999999999999432,5432,7,72,62
0.09999999999999432,5432,8,72,52
0.09999999999999432,5432,9,72,62
0.09999999999999432,5432,10,72,66
0.09999999999999432,5432,11,72,18
0.09999999999999432,5432,12,72,61
0.045454545454532536,5432,13,72,80
0.09999999999999432,5432,14,72,67
0.09999999999999432,5432,15,72,73
0.09999999999999432,5433,0,72,67
0.10000000000002274,5433,1,72,50
0.09999999999999432,5433,2,72,62
0.09999999999999432,5433,3,72,55
0.09999999999999432,5433,4,72,62
0.09999999999999432,5433,5,72,48
0.09999999999999432,5433,6,72,60
0.09999999999999432,5433,7,72,107
0.09999999999999432,5433,8,72,39
0.09999999999999432,5433,9,72,41
0.09999999999999432,5433,10,72,70
0.09999999999999432,5433,11,72,68
0.09999999999999432,5433,12,72,56
0.09999999999999432,5433,13,72,86
0.09999999999999432,5433,14,72,43
0.09999999999999432,5433,15,72,52
0.09999999999999432,5434,0,72,27
0.09999999999999432,5434,1,72,76
0.09999999999999432,5434,2,72,89
0.09999999999999432,5434,3,72,68
0.09999999999999432,5434,4,72,66
0.09999999999999432,5434,5,72,79
0.09999999999999432,5434,6,72,100
0.09999999999999432,5434,7,72,54
0.09999999999999432,5434,8,72,72
0.09999999999999432,5434,9,72,73
0.09999999999999432,5434,10,72,71
0.09999999999999432,5434,11,72,35
0.09999999999999432,5434,12,72,72
0.09999999999999432,5434,13,72,79
0.09999999999999432,5434,14,72,55
0.09999999999999432,5434,15,72,85
0.10000000000002274,5435,0,72,25
0.09999999999999432,5435,1,72,71
0.04772727272728616,5435,2,72,87
0.09999999999999432,5435,3,72,92
0.10000000000002274,5435,4,72,82
0.09999999999999432,5435,5,72,53
0.06818181818181301,5435,6,72,71
0.09999999999999432,5435,7,72,67
0.09999999999999432,5435,8,72,42
0.09999999999999432,5435,9,72,7
0.09999999999999432,5435,10,72,64
0.09999999999999432,5435,11,72,51
0.09999999999999432,5435,12,72,41
0.09999999999999432,5435,13,72,10
0.09999999999999432,5435,14,72,34
0.09999999999999432,5435,15,72,82
0.09999999999999432,5436,0,72,77
0.09999999999999432,5436,1,72,11
0.09999999999999432,5436,2,72,52
0.09999999999999432,5436,3,72,67
0.09999999999999432,5436,4,72,71
0.10000000000002274,5436,5,72,81
0.09999999999999432,5436,6,72,38
0.09999999999999432,5436,7,72,33
0.09999999999999432,5436,8,72,71
0.09999999999999432,5436,9,72,28
0.10000000000002274,5436,10,72,93
0.09999999999999432,5436,11,72,106
0.09999999999999432,5436,12,72,90
0.04772727272728616,5436,13,72,104
0.09999999999999432,5436,14,72,33
0.06818181818181301,5436,15,72,63
0.03636363636363171,5437,0,72,83
0.09999999999999432,5437,1,72,61
0.09999999999999432,5437,2,72,61
0.10000000000002274,5437,3,72,60
0.09999999999999432,5437,4,72,94
0.09999999999999432,5437,5,72,16
0.09999999999999432,5437,6,72,79
0.09999999999999432,5437,7,72,95
0.09999999999999432,5437,8,72,62
0.10000000000002274,5437,9,72,89
0.09999999999999432,5437,10,72,95
0.09999999999999432,5437,11,72,50
0.09999999999999432,5437,12,72,7
0.10000000000002274,5437,13,72,78
0.09999999999999432,5437,14,72,57
0.10000000000002274,5437,15,72,92
0.09999999999999432,5438,0,72,71
0.10000000000002274,5438,1,72,70
0.09999999999999432,5438,2,72,75
0.09999999999999432,5438,3,72,88
0.09999999999999432,5438,4,72,83
0.09999999999999432,5438,5,72,104
0.09999999999999432,5438,6,72,76
0.09999999999999432,5438,7,72,90
0.09999999999999432,5438,8,72,113
0.09999999999999432,5438,9,72,127
0.10000000000002274,5438,10,72,78
0.10000000000002274,5438,11,72,97
0.09999999999999432,5438,12,72,89
0.10000000000002274,5438,13,72,35
0.09999999999999432,5438,14,72,86
0.09999999999999432,5438,15,72,100
0.10000000000002274,5439,0,72,104
0.09999999999999432,5439,1,72,81
0.09999999999999432,5439,2,72,90
0.09999999999999432,5439,3,72,76
0.10000000000002274,5439,4,72,94
0.09999999999999432,5439,5,72,98
0.09999999999999432,5439,6,72,46
0.10000000000002274,5439,7,72,78
0.10000000000002274,5439,8,72,39
0.09999999999999432,5439,9,72,114
0.09999999999999432,5439,10,72,69
0.09999999999999432,5439,11,72,26
0.09999999999999432,5439,12,72,55
0.09999999999999432,5439,13,72,54
0.09999999999999432,5439,14,72,100
0.09999999999999432,5439,15,72,56
0.09999999999999432,5440,0,72,127
0.09999999999999432,5440,1,72,82
0.09999999999999432,5440,2,72,42
0.10000000000000853,5440,3,60,1
0.09999999999999432,5440,4,60,5
0.06818181818181301,5440,5,60,9
0.09999999999999432,5440,6,60,15
0.09999999999999432,5440,7,60,12
0.056818181818172775,5440,8,60,12
0.09999999999999432,5440,9,60,26
0.09999999999999432,5440,10,60,27
0.09999999999999432,5440,11,60,10
0.04772727272727195,5440,12,60,8
0.045454545454546746,5440,13,60,7
0.09999999999999432,5440,14,60,15
0.09999999999999432,5440,15,60,25
0.045454545454546746,5441,0,60,26
0.09999999999999432,5441,1,60,24
0.09999999999999432,5441,2,60,4
0.06818181818181301,5441,3,60,5
0.09999999999999432,5441,4,60,4
0.056818181818172775,5441,5,60,3
0.10000000000000853,5441,6,60,2
0.10000000000000853,5441,7,60,1
0.09999999999999432,5441,8,60,1
0.10000000000000853,5441,9,60,1
0.09999999999999432,5441,10,60,1
0.06818181818181301,5441,11,60,1
0.09999999999999432,5441,12,60,1
0.06818181818181301,5441,13,60,1
0.09999999999999432,5441,14,60,1
0.09999999999999432,5441,15,60,1
0.03636363636363171,5442,0,60,1
0.09999999999999432,5442,1,60,1
0.01590909090909065,5442,2,60,1
0.09999999999999432,5442,3,60,1
0.10000000000000853,5442,4,60,1
0.06818181818182723,5442,5,60,1
0.10000000000000853,5442,6,60,1
0.10000000000000853,5442,7,60,1
0.036363636363645924,5442,8,60,1
0.10000000000000853,5442,9,60,1
0.10000000000000853,5442,10,60,1
0.04772727272727195,5442,11,60,1
0.09999999999999432,5442,12,60,1
0.02727272727273089,5442,13,60,19
0.10000000000000853,5442,14,60,34
0.09999999999999432,5442,15,60,55
0.06818181818181301,5443,0,60,54
0.09999999999999432,5443,1,60,41
0.045454545454546746,5443,2,60,40
0.09999999999999432,5443,3,60,33
0.09999999999999432,5443,4,60,58
0.10000000000000853,5443,5,60,57
0.09999999999999432,5443,6,60,44
0.09999999999999432,5443,7,60,33
0.10000000000000853,5443,8,60,27
0.10000000000000853,5443,9,60,44
0.10000000000000853,5443,10,60,42
0.09999999999999432,5443,11,60,37
0.05909090909089798,5443,12,60,31
0.09999999999999432,5443,13,60,59
0.09999999999999432,5443,14,60,69
0.10000000000000853,5443,15,60,57
0.09999999999999432,5444,0,60,43
0.10000000000000853,5444,1,60,32
0.056818181818186986,5444,2,60,30
0.10000000000000853,5444,3,60,33
0.06590909090908781,5444,4,60,38
0.09999999999999432,5444,5,60,40
0.004545454545450411,5444,6,60,38
0.09999999999999432,5444,7,60,53
0.06818181818181301,5444,8,60,52
0.09999999999999432,5444,9,60,38
0.09999999999999432,5444,10,60,23
0.10000000000000853,5444,11,60,15
0.10000000000000853,5444,12,60,2
0.09999999999999432,5444,13,60,14
0.004545454545450411,5444,14,60,29
0.09999999999999432,5444,15,60,48
0.09999999999999432,5445,0,60,72
0.09999999999999432,5445,1,60,54
0.04772727272727195,5445,2,60,64
0.09999999999999432,5445,3,60,49
0.06818181818181301,5445,4,60,50
0.09999999999999432,5445,5,60,75
0.10000000000000853,5445,6,60,55
0.09999999999999432,5445,7,60,60
0.09999999999999432,5445,8,60,59
0.09999999999999432,5445,9,60,67
0.09999999999999432,5445,10,60,41
0.09999999999999432,5445,11,60,62
0.09999999999999432,5445,12,60,55
0.09999999999999432,5445,13,60,54
0.09999999999999432,5445,14,60,46
0.09999999999999432,5445,15,60,54
0.10000000000000853,5446,0,60,25
0.06818181818182723,5446,1,60,25
0.09999999999999987,5446,2,53,99
0.10000000000000009,5446,3,53,61
0.10000000000000009,5446,4,53,53
0.10000000000000009,5446,5,53,99
0.10000000000000009,5446,6,53,69
0.10000000000000009,5446,7,53,81
0.10000000000000009,5446,8,53,113
0.10000000000000053,5446,9,53,76
0.10000000000000053,5446,10,53,95
0.09999999999999964,5446,11,53,122
0.09999999999999964,5446,12,53,89
0.09999999999999964,5446,13,53,84
0.09999999999999964,5446,14,53,70
0.09999999999999964,5446,15,53,103
0.10000000000000053,5447,0,53,79
0.09999999999999964,5447,1,53,82
0.09999999999999964,5447,2,53,104
0.09999999999999964,5447,3,53,84
0.09999999999999964,5447,4,53,80
0.09999999999999964,5447,5,53,110
0.09999999999999964,5447,6,53,120
0.09999999999999964,5447,7,53,105
0.10000000000000142,5447,8,53,72
0.09999999999999964,5447,9,53,28
0.09999999999999964,5447,10,53,63
0.06818181818181834,5447,11,53,83
0.09999999999999964,5447,12,53,41
0.10000000000000142,5447,13,53,88
0.10000000000000142,5447,14,53,59
0.09999999999999964,5447,15,53,87
0.09999999999999964,5448,0,53,42
0.10000000000000142,5448,1,53,96
0.09999999999999964,5448,2,53,68
0.10000000000000142,5448,3,53,53
0.10000000000000142,5448,4,53,79
0.09999999999999787,5448,5,53,84
0.10000000000000142,5448,6,53,77
0.09999999999999787,5448,7,53,63
0.06818181818181657,5448,8,53,78
0.10000000000000142,5448,9,53,80
0.10000000000000142,5448,10,53,89
0.01590909090909065,5448,11,53,95
0.06818181818181657,5448,12,53,94
0.10000000000000142,5448,13,53,127
0.10000000000000142,5448,14,53,71
0.10000000000000142,5448,15,53,20
0.09999999999999787,5449,0,53,97
0.10000000000000142,5449,1,53,79
0.09999999999999787,5449,2,53,90
0.10000000000000142,5449,3,53,30
0.09999999999999787,5449,4,53,63
0.10000000000000142,5449,5,53,106
0.10000000000000142,5449,6,53,91
0.06818181818182012,5449,7,53,70
0.09999999999999787,5449,8,53,114
0.10000000000000142,5449,9,53,83
0.10000000000000142,5449,10,53,61
0.10000000000000142,5449,11,53,58
0.10000000000000142,5449,12,53,76
0.10000000000000142,5449,13,53,71
0.10000000000000142,5449,14,53,93
0.10000000000000142,5449,15,53,70
0.09999999999999787,5450,0,53,49
0.10000000000000142,5450,1,53,35
0.09999999999999787,5450,2,53,61
0.09999999999999787,5450,3,53,64
0.10000000000000142,5450,4,53,46
0.09999999999999787,5450,5,53,32
0.10000000000000142,5450,6,53,72
0.10000000000000142,5450,7,53,43
0.10000000000000142,5450,8,53,46
0.10000000000000142,5450,9,53,43
0.10000000000000142,5450,10,53,23
0.09999999999999787,5450,11,53,57
0.09999999999999787,5450,12,53,58
0.10000000000000142,5450,13,53,17
0.10000000000000142,5450,14,53,51
0.10000000000000142,5450,15,53,28
0.10000000000000142,5451,0,53,53
0.09999999999999432,5451,1,53,51
0.10000000000000142,5451,2,53,9
0.10000000000000142,5451,3,53,46
0.09999999999999432,5451,4,53,63
0.10000000000000142,5451,5,53,5
0.10000000000000142,5451,6,53,53
0.10000000000000142,5451,7,53,90
0.10000000000000142,5451,8,53,69
0.09999999999999432,5451,9,53,83
0.10000000000000142,5451,10,53,39
0.10000000000000142,5451,11,53,42
0.09999999999999432,5451,12,53,73
0.10000000000000142,5451,13,53,80
0.09999999999999432,5451,14,53,59
0.10000000000000142,5451,15,53,51
0.09999999999999432,5452,0,53,60
0.10000000000000142,5452,1,53,54
0.09999999999999432,5452,2,53,50
0.10000000000000142,5452,3,53,82
0.10000000000000142,5452,4,53,66
0.09999999999999432,5452,5,53,34
0.09999999999999432,5452,6,53,53
0.10000000000000142,5452,7,53,61
0.10000000000000142,5452,8,53,48
0.10000000000000142,5452,9,53,75
0.10000000000000142,5452,10,53,67
0.10000000000000142,5452,11,53,63
0.09999999999999432,5452,12,53,95
0.10000000000000142,5452,13,53,64
0.10000000000000142,5452,14,53,39
0.09999999999999432,5452,15,53,54
0.10000000000000142,5453,0,53,76
0.09999999999999432,5453,1,53,65
0.10000000000000142,5453,2,53,43
0.10000000000000142,5453,3,53,47
0.10000000000000142,5453,4,53,54
0.10000000000000142,5453,5,53,61
0.10000000000000142,5453,6,53,47
0.10000000000000142,5453,7,53,47
0.10000000000000142,5453,8,53,56
0.10000000000000142,5453,9,53,48
0.10000000000000142,5453,10,53,87
0.10000000000000142,5453,11,53,45
0.10000000000000142,5453,12,53,55
0.09999999999999432,5453,13,53,41
0.10000000000000142,5453,14,53,31
0.09999999999999432,5453,15,53,62
0.10000000000000142,5454,0,53,59
0.10000000000000142,5454,1,53,54
0.10000000000000142,5454,2,53,76
0.10000000000000142,5454,3,53,63
0.10000000000000142,5454,4,53,47
0.10000000000000142,5454,5,53,75
0.10000000000000142,5454,6,53,83
0.10000000000000142,5454,7,53,89
0.10000000000000142,5454,8,53,84
0.10000000000000142,5454,9,53,48
0.09999999999999432,5454,10,53,83
0.10000000000000142,5454,11,53,63
0.09999999999999432,5454,12,53,84
0.10000000000000142,5454,13,53,64
0.09999999999999432,5454,14,53,56
0.10000000000000142,5454,15,53,65
0.10000000000000142,5455,0,53,66
0.09999999999999432,5455,1,53,55
0.10000000000000142,5455,2,53,77
0.10000000000000142,5455,3,53,45
0.10000000000000142,5455,4,53,1
0.10000000000000142,5455,5,53,31
0.09999999999999432,5455,6,53,35
0.10000000000000142,5455,7,53,48
0.10000000000000142,5455,8,53,68
0.09999999999999432,5455,9,53,37
0.10000000000000142,5455,10,53,55
0.10000000000000142,5455,11,53,37
0.10000000000000853,5455,12,53,55
0.10000000000000853,5455,13,53,50
0.09999999999999432,5455,14,53,53
0.10000000000000853,5455,15,53,42
0.09999999999999432,5456,0,53,36
0.09999999999999432,5456,1,53,54
0.09999999999999432,5456,2,53,59
0.10000000000000853,5456,3,53,48
0.09999999999999432,5456,4,53,55
0.10000000000000853,5456,5,53,42
0.10000000000000853,5456,6,53,22
0.10000000000000853,5456,7,53,61
0.09999999999999432,5456,8,53,45
0.10000000000000853,5456,9,53,54
0.09999999999999432,5456,10,53,52
0.10000000000000853,5456,11,53,31
0.10000000000000853,5456,12,53,47
0.09999999999999432,5456,13,53,70
0.01590909090909065,5456,14,53,70
0.10000000000000853,5456,15,53,104
0.09999999999999432,5457,0,53,92
0.10000000000000853,5457,1,53,65
0.09999999999999432,5457,2,53,57
0.09999999999999432,5457,3,53,62
0.09999999999999432,5457,4,53,63
0.10000000000000853,5457,5,53,64
0.09999999999999432,5457,6,53,74
0.09999999999999432,5457,7,53,68
0.09999999999999432,5457,8,53,81
0.09999999999999432,5457,9,53,59
0.09999999999999432,5457,10,53,45
0.09999999999999432,5457,11,53,44
0.10000000000000853,5457,12,53,67
0.09999999999999432,5457,13,53,45
0.09999999999999432,5457,14,53,54
0.10000000000000853,5457,15,53,91
0.09999999999999432,5458,0,53,84
0.09999999999999432,5458,1,53,74
0.09999999999999432,5458,2,53,87
0.09999999999999432,5458,3,53,82
0.09999999999999432,5458,4,53,95
0.10000000000000853,5458,5,53,76
0.10000000000000853,5458,6,53,31
0.10000000000000853,5458,7,53,22
0.10000000000000853,5458,8,53,68
0.09999999999999432,5458,9,53,52
0.09999999999999432,5458,10,53,47
0.09999999999999432,5458,11,53,90
0.10000000000000853,5458,12,53,78
0.09999999999999432,5458,13,53,74
0.09999999999999432,5458,14,53,84
0.09999999999999432,5458,15,53,74
0.10000000000000853,5459,0,53,79
0.09999999999999432,5459,1,53,80
0.09999999999999432,5459,2,53,56
0.09999999999999432,5459,3,53,55
0.09999999999999432,5459,4,53,76
0.09999999999999432,5459,5,53,76
0.09999999999999432,5459,6,53,83
0.09999999999999432,5459,7,53,48
0.09999999999999432,5459,8,53,58
0.09999999999999432,5459,9,53,86
0.10000000000000853,5459,10,53,53
0.10000000000000853,5459,11,53,62
0.10000000000000853,5459,12,53,66
0.10000000000000853,5459,13,53,59
0.09999999999999432,5459,14,53,25
0.09999999999999432,5459,15,53,47
0.10000000000000853,5460,0,53,60
0.09999999999999432,5460,1,53,79
0.09999999999999432,5460,2,53,75
0.10000000000000853,5460,3,53,52
0.09999999999999432,5460,4,53,38
0.09999999999999432,5460,5,53,77
0.09999999999999432,5460,6,53,74
0.09999999999999432,5460,7,53,67
0.10000000000000853,5460,8,53,56
0.09999999999999432,5460,9,53,48
0.09999999999999432,5460,10,53,18
0.10000000000000853,5460,11,53,67
0.09999999999999432,5460,12,53,59
0.10000000000000853,5460,13,53,61
0.09999999999999432,5460,14,53,66
0.10000000000000853,5460,15,53,55
0.09999999999999432,5461,0,53,47
0.09999999999999432,5461,1,53,31
0.056818181818186986,5461,2,53,78
0.09999999999999432,5461,3,53,73
0.09999999999999432,5461,4,53,54
0.10000000000000853,5461,5,53,49
0.09999999999999432,5461,6,53,31
0.09999999999999432,5461,7,53,77
0.10000000000000853,5461,8,53,67
0.09999999999999432,5461,9,53,21
0.10000000000000853,5461,10,53,83
0.09999999999999432,5461,11,53,58
0.10000000000000853,5461,12,53,78
0.10000000000000853,5461,13,53,51
0.056818181818186986,5461,14,53,72
0.10000000000000853,5461,15,53,87
0.09999999999999432,5462,0,53,117
0.09999999999999432,5462,1,53,80
0.10000000000000853,5462,2,53,47
0.09999999999999432,5462,3,53,18
0.10000000000000853,5462,4,53,63
0.09999999999999432,5462,5,53,62
0.09999999999999432,5462,6,53,67
0.10000000000000853,5462,7,53,37
0.10000000000000853,5462,8,53,68
0.09999999999999432,5462,9,53,61
0.10000000000000853,5462,10,53,68
0.10000000000000853,5462,11,53,69
0.09999999999999432,5462,12,53,55
0.09999999999999432,5462,13,53,54
0.09999999999999432,5462,14,53,32
0.09999999999999432,5462,15,53,39
0.10000000000000853,5463,0,53,59
0.04772727272727195,5463,1,53,61
0.09999999999999432,5463,2,53,74
0.10000000000000853,5463,3,53,70
0.09999999999999432,5463,4,53,46
0.10000000000000853,5463,5,53,31
0.09999999999999432,5463,6,53,67
0.10000000000000853,5463,7,53,53
0.09999999999999432,5463,8,53,66
0.10000000000000853,5463,9,53,18
0.09999999999999432,5463,10,53,60
0.10000000000000853,5463,11,53,39
0.10000000000000853,5463,12,53,74
0.09999999999999432,5463,13,53,95
0.10000000000002274,5463,14,53,92
0.09999999999999432,5463,15,53,97
0.09999999999999432,5464,0,53,72
0.09999999999999432,5464,1,53,56
0.09999999999999432,5464,2,53,4
0.09999999999999432,5464,3,53,79
0.10000000000002274,5464,4,53,75
0.09999999999999432,5464,5,53,62
0.09999999999999432,5464,6,53,76
0.09999999999999432,5464,7,53,62
0.09999999999999432,5464,8,53,98
0.09999999999999432,5464,9,53,71
0.10000000000002274,5464,10,53,98
0.09999999999999432,5464,11,53,68
0.10000000000002274,5464,12,53,70
0.09999999999999432,5464,13,53,47
0.09999999999999432,5464,14,53,80
0.09999999999999432,5464,15,53,75
0.09999999999999432,5465,0,53,89
0.09999999999999432,5465,1,53,85
0.10000000000002274,5465,2,53,62
0.10000000000002274,5465,3,53,88
0.09999999999999432,5465,4,53,87
0.09999999999999432,5465,5,53,96
0.09999999999999432,5465,6,53,71
0.09999999999999432,5465,7,53,76
0.10000000000002274,5465,8,53,79
0.09999999999999432,5465,9,53,87
0.09999999999999432,5465,10,53,73
0.09999999999999432,5465,11,53,72
0.09999999999999432,5465,12,53,45
0.10000000000002274,5465,13,53,56
0.10000000000002274,5465,14,53,90
0.10000000000002274,5465,15,53,75
0.09999999999999432,5466,0,53,67
0.09999999999999432,5466,1,53,85
0.09999999999999432,5466,2,53,102
0.09999999999999432,5466,3,53,77
0.09999999999999432,5466,4,53,75
0.004545454545450411,5466,5,53,73
0.09999999999999432,5466,6,53,66
0.09999999999999432,5466,7,53,58
0.10000000000002274,5466,8,53,77
0.09999999999999432,5466,9,53,85
0.09999999999999432,5466,10,53,87
0.06818181818181301,5466,11,53,85
0.09999999999999432,5466,12,53,57
0.09999999999999432,5466,13,53,53
0.09999999999999432,5466,14,53,56
0.09999999999999432,5466,15,53,69
0.09999999999999432,5467,0,53,40
0.09999999999999432,5467,1,53,47
0.10000000000002274,5467,2,53,84
0.09999999999999432,5467,3,53,13
0.10000000000002274,5467,4,53,60
0.09999999999999432,5467,5,53,35
0.09999999999999432,5467,6,53,59
0.09999999999999432,5467,7,53,54
0.09999999999999432,5467,8,53,51
0.09999999999999432,5467,9,53,61
0.09999999999999432,5467,10,53,63
0.09999999999999432,5467,11,53,59
0.09999999999999432,5467,12,53,70
0.10000000000002274,5467,13,53,37
0.09999999999999432,5467,14,53,58
0.09999999999999432,5467,15,53,78
0.09999999999999432,5468,0,53,83
0.025000000000005684,5468,1,53,82
0.10000000000002274,5468,2,53,75
0.09999999999999432,5468,3,53,61
0.09999999999999432,5468,4,53,66
0.09999999999999432,5468,5,53,71
0.05909090909091219,5468,6,53,69
0.09999999999999432,5468,7,53,78
0.09999999999999432,5468,8,53,46
0.10000000000002274,5468,9,53,37
0.10000000000002274,5468,10,53,73
0.10000000000002274,5468,11,53,55
0.10000000000002274,5468,12,53,66
0.10000000000002274,5468,13,53,43
0.09999999999999432,5468,14,53,58
0.09999999999999432,5468,15,53,70
0.056818181818186986,5469,0,53,75
0.09999999999999432,5469,1,53,50
0.09999999999999998,5469,2,81,6
0.09999999999999998,5469,3,81,76
0.09999999999999998,5469,4,81,90
0.09999999999999998,5469,5,81,52
0.10000000000000009,5469,6,81,127
0.09999999999999987,5469,7,81,127
0.10000000000000009,5469,8,81,91
0.10000000000000009,5469,9,81,127
0.10000000000000009,5469,10,81,12
0.09999999999999964,5469,11,81,1
0.09999999999999964,5469,12,81,87
0.10000000000000009,5469,13,81,1
0.10000000000000009,5469,14,81,127
0.09999999999999964,5469,15,81,127
0.09999999999999964,5470,0,81,11
0.09999999999999964,5470,1,81,1
0.09999999999999964,5470,2,81,91
0.09999999999999964,5470,3,81,1
0.10000000000000053,5470,4,81,1
0.10000000000000053,5470,5,81,127
0.09999999999999964,5470,6,81,12
0.10000000000000053,5470,7,81,1
0.10000000000000053,5470,8,81,97
0.09999999999999964,5470,9,81,5
0.09999999999999964,5470,10,81,127
0.09999999999999964,5470,11,81,1
0.10000000000000053,5470,12,81,92
0.09999999999999964,5470,13,81,1
0.09999999999999964,5470,14,81,1
0.10000000000000053,5470,15,81,127
0.10000000000000053,5471,0,81,10
0.10000000000000053,5471,1,81,1
0.09999999999999964,5471,2,81,84
0.10000000000000053,5471,3,81,1
0.09999999999999964,5471,4,81,127
0.09999999999999964,5471,5,81,127
0.09999999999999964,5471,6,81,12
0.09999999999999964,5471,7,81,1
0.09999999999999964,5471,8,81,94
0.09999999999999964,5471,9,81,127
0.09999999999999964,5471,10,81,14
0.09999999999999964,5471,11,81,70
0.09999999999999964,5471,12,81,127
0.10000000000000142,5471,13,81,92
0.09999999999999964,5471,14,81,1
0.09999999999999964,5471,15,81,4
0.10000000000000142,5472,0,81,127
0.10000000000000142,5472,1,81,13
0.09999999999999964,5472,2,81,1
0.09999999999999964,5472,3,81,93
0.10000000000000142,5472,4,81,1
0.09999999999999964,5472,5,81,1
0.09999999999999964,5472,6,81,127
0.09999999999999964,5472,7,81,11
0.09999999999999964,5472,8,81,1
0.09999999999999964,5472,9,81,99
0.09999999999999964,5472,10,81,1
0.09999999999999964,5472,11,81,1
0.09999999999999964,5472,12,81,127
0.09999999999999964,5472,13,81,14
0.09999999999999964,5472,14,81,1
0.09999999999999964,5472,15,81,100
0.09999999999999964,5473,0,81,127
0.09999999999999964,5473,1,81,15
0.09999999999999964,5473,2,81,8
0.10000000000000142,5473,3,81,127
0.09999999999999964,5473,4,81,79
0.10000000000000142,5473,5,81,6
0.10000000000000142,5473,6,81,127
0.09999999999999964,5473,7,81,11
0.10000000000000142,5473,8,81,1
0.09999999999999964,5473,9,81,95
0.10000000000000142,5473,10,81,1
0.10000000000000142,5473,11,81,1
0.09999999999999964,5473,12,81,127
0.09999999999999964,5473,13,81,11
0.09999999999999787,5473,14,81,1
0.10000000000000142,5473,15,81,123
0.10000000000000142,5474,0,81,1
0.09999999999999787,5474,1,81,127
0.10000000000000142,5474,2,81,127
0.10000000000000142,5474,3,81,15
0.10000000000000142,5474,4,81,1
0.10000000000000142,5474,5,81,100
0.09999999999999787,5474,6,81,127
0.10000000000000142,5474,7,81,13
0.10000000000000142,5474,8,81,16
0.09999999999999787,5474,9,81,40
0.10000000000000142,5474,10,81,100
0.09999999999999787,5474,11,81,127
0.10000000000000142,5474,12,81,127
0.09999999999999787,5474,13,81,12
0.10000000000000142,5474,14,81,3
0.09999999999999787,5474,15,81,106
0.09999999999999787,5475,0,81,1
0.10000000000000142,5475,1,81,1
0.09999999999999787,5475,2,81,127
0.10000000000000142,5475,3,81,12
0.10000000000000142,5475,4,81,1
0.10000000000000142,5475,5,81,103
0.10000000000000142,5475,6,81,127
0.09999999999999787,5475,7,81,127
0.10000000000000142,5475,8,81,13
0.10000000000000142,5475,9,81,1
0.09999999999999787,5475,10,81,102
0.09999999999999787,5475,11,81,127
0.10000000000000142,5475,12,81,10
0.09999999999999787,5475,13,81,1
0.10000000000000142,5475,14,81,105
0.10000000000000142,5475,15,81,1
0.09999999999999787,5476,0,81,1
0.10000000000000142,5476,1,81,127
0.10000000000000142,5476,2,81,13
0.09999999999999787,5476,3,81,1
0.10000000000000142,5476,4,81,82
0.10000000000000142,5476,5,81,1
0.10000000000000142,5476,6,81,127
0.09999999999999787,5476,7,81,13
0.10000000000000142,5476,8,81,1
0.10000000000000142,5476,9,81,92
0.10000000000000142,5476,10,81,127
0.10000000000000142,5476,11,81,127
0.10000000000000142,5476,12,81,15
0.10000000000000142,5476,13,81,1
0.10000000000000142,5476,14,81,59
0.10000000000000142,5476,15,81,1
0.10000000000000142,5477,0,81,127
0.09999999999999787,5477,1,81,15
0.10000000000000142,5477,2,81,28
0.10000000000000142,5477,3,81,127
0.09999999999999787,5477,4,81,98
0.10000000000000142,5477,5,81,2
0.10000000000000142,5477,6,81,5
0.10000000000000142,5477,7,81,127
0.10000000000000142,5477,8,81,13
0.09999999999999787,5477,9,81,1
0.10000000000000142,5477,10,81,93
0.10000000000000142,5477,11,81,1
0.09999999999999787,5477,12,81,1
0.10000000000000142,5477,13,81,127
0.09999999999999787,5477,14,81,13
0.09999999999999787,5477,15,81,1
0.10000000000000142,5478,0,81,91
0.10000000000000142,5478,1,81,1
0.10000000000000142,5478,2,81,127
0.09999999999999787,5478,3,81,12
0.10000000000000142,5478,4,81,1
0.10000000000000142,5478,5,81,94
0.09999999999999787,5478,6,81,1
0.10000000000000142,5478,7,81,127
0.10000000000000142,5478,8,81,13
0.10000000000000142,5478,9,81,6
0.10000000000000142,5478,10,81,127
0.09999999999999787,5478,11,81,96
0.09999999999999787,5478,12,81,1
0.10000000000000142,5478,13,81,127
0.09999999999999432,5478,14,81,11
0.09999999999999432,5478,15,81,1
0.10000000000000142,5479,0,81,102
0.10000000000000142,5479,1,81,1
0.10000000000000142,5479,2,81,127
0.09999999999999432,5479,3,81,16
0.10000000000000142,5479,4,81,1
0.10000000000000142,5479,5,81,114
0.09999999999999432,5479,6,81,1
0.10000000000000142,5479,7,81,1
0.09999999999999432,5479,8,81,127
0.10000000000000142,5479,9,81,11
0.10000000000000142,5479,10,81,1
0.09999999999999432,5479,11,81,99
0.10000000000000142,5479,12,81,1
0.10000000000000142,5479,13,81,127
0.10000000000000142,5479,14,81,127
0.10000000000000142,5479,15,81,36
0.10000000000000142,5480,0,81,1
0.09999999999999432,5480,1,81,71
0.10000000000000142,5480,2,81,1
0.09999999999999432,5480,3,81,1
0.10000000000000142,5480,4,81,127
0.10000000000000142,5480,5,81,10
0.10000000000000142,5480,6,81,7
0.10000000000000142,5480,7,81,91
0.10000000000000142,5480,8,81,6
0.09999999999999432,5480,9,81,26
0.0022727272727252057,5480,10,81,65
0.01590909090909065,5480,11,81,55
0.10000000000000142,5480,12,81,35
0.10000000000000142,5480,13,81,89
0.10000000000000142,5480,14,81,89
0.09999999999999432,5480,15,81,91
0.10000000000000142,5481,0,81,122
0.10000000000000142,5481,1,81,127
0.10000000000000142,5481,2,81,103
0.10000000000000142,5481,3,81,127
0.09999999999999432,5481,4,81,127
0.10000000000000142,5481,5,81,1
0.10000000000000142,5481,6,81,99
0.10000000000000142,5481,7,81,1
0.10000000000000142,5481,8,81,127
0.10000000000000142,5481,9,81,11
0.10000000000000142,5481,10,81,1
0.10000000000000142,5481,11,81,122
0.10000000000000142,5481,12,81,1
0.10000000000000142,5481,13,81,127
0.10000000000000142,5481,14,81,13
0.09999999999999432,5481,15,81,1
0.10000000000000142,5482,0,81,109
0.10000000000000142,5482,1,81,1
0.10000000000000142,5482,2,81,127
0.10000000000000142,5482,3,81,127
0.10000000000000142,5482,4,81,12
0.10000000000000142,5482,5,81,1
0.10000000000000142,5482,6,81,99
0.09999999999999432,5482,7,81,1
0.10000000000000142,5482,8,81,127
0.10000000000000142,5482,9,81,12
0.10000000000000142,5482,10,81,1
0.10000000000000142,5482,11,81,103
0.10000000000000142,5482,12,81,1
0.10000000000000142,5482,13,81,127
0.09999999999999432,5482,14,81,13
0.10000000000000142,5482,15,81,1
0.09999999999999432,5483,0,81,110
0.09999999999999432,5483,1,81,1
0.10000000000000142,5483,2,81,1
0.09999999999999432,5483,3,81,127
0.10000000000000142,5483,4,81,13
0.10000000000000142,5483,5,81,1
0.10000000000000142,5483,6,81,102
0.10000000000000142,5483,7,81,1
0.09999999999999432,5483,8,81,127
0.10000000000000142,5483,9,81,127
0.10000000000000142,5483,10,81,11
0.09999999999999432,5483,11,81,1
0.10000000000000142,5483,12,81,70
0.10000000000000142,5483,13,81,1
0.10000000000000142,5483,14,81,127
0.10000000000000142,5483,15,81,127
0.10000000000000142,5484,0,81,11
0.10000000000000142,5484,1,81,1
0.10000000000000142,5484,2,81,96
0.09999999999999432,5484,3,81,1
0.10000000000000142,5484,4,81,127
0.10000000000000142,5484,5,81,13
0.10000000000000142,5484,6,81,1
0.10000000000000142,5484,7,81,122
0.10000000000000142,5484,8,81,1
0.10000000000000142,5484,9,81,127
0.10000000000000142,5484,10,81,13
0.10000000000000142,5484,11,81,20
0.10000000000000142,5484,12,81,127
0.09999999999999432,5484,13,81,103
0.10000000000000142,5484,14,81,1
0.10000000000000142,5484,15,81,4
0.10000000000000142,5485,0,81,127
0.10000000000000142,5485,1,81,1
0.10000000000000142,5485,2,81,110
0.10000000000000142,5485,3,81,1
0.09999999999999432,5485,4,81,127
0.09999999999999432,5485,5,81,127
0.10000000000000142,5485,6,81,13
0.10000000000000142,5485,7,81,1
0.10000000000000142,5485,8,81,104
0.10000000000000142,5485,9,81,1
0.10000000000000142,5485,10,81,127
0.10000000000000142,5485,11,81,11
0.09999999999999432,5485,12,81,1
0.10000000000000142,5485,13,81,114
0.10000000000000142,5485,14,81,1
0.10000000000000142,5485,15,81,127
0.10000000000000142,5486,0,81,13
0.09999999999999432,5486,1,81,24
0.10000000000000142,5486,2,81,127
0.10000000000000142,5486,3,81,107
0.09999999999999432,5486,4,81,1
0.10000000000000142,5486,5,81,9
0.09999999999999432,5486,6,81,127
0.10000000000000142,5486,7,81,12
0.10000000000000142,5486,8,81,1
0.10000000000000142,5486,9,81,104
0.10000000000000142,5486,10,81,1
0.10000000000000142,5486,11,81,127
0.10000000000000142,5486,12,81,13
0.10000000000000142,5486,13,81,1
0.09999999999999432,5486,14,81,108
0.10000000000000142,5486,15,81,1
0.10000000000000142,5487,0,81,1
0.09999999999999432,5487,1,81,127
0.10000000000000142,5487,2,81,12
0.10000000000000142,5487,3,81,1
0.10000000000000142,5487,4,81,116
0.10000000000000142,5487,5,81,1
0.10000000000000142,5487,6,81,1
0.10000000000000142,5487,7,81,127
0.10000000000000142,5487,8,81,12
0.09999999999999432,5487,9,81,2
0.10000000000000142,5487,10,81,116
0.10000000000000142,5487,11,81,2
0.10000000000000142,5487,12,81,104
0.10000000000000142,5487,13,81,127
0.09999999999999432,5487,14,81,4
0.10000000000000142,5487,15,81,2
0.10000000000000142,5488,0,81,108
0.10000000000000142,5488,1,81,2
0.10000000000000142,5488,2,81,2
0.10000000000000142,5488,3,81,127
0.10000000000000142,5488,4,81,4
0.10000000000000142,5488,5,81,2
0.10000000000000142,5488,6,81,127
0.09999999999999432,5488,7,81,3
0.10000000000000142,5488,8,81,2
0.10000000000000142,5488,9,81,127
0.10000000000000142,5488,10,81,7
0.10000000000000142,5488,11,81,2
0.09999999999999432,5488,12,81,115
0.10000000000000142,5488,13,81,2
0.10000000000000142,5488,14,81,2
0.10000000000000142,5488,15,81,127
0.10000000000000142,5489,0,81,29
0.09999999999999432,5489,1,81,2
0.10000000000000853,5489,2,81,118
0.09999999999999432,5489,3,81,2
0.10000000000000853,5489,4,81,101
0.09999999999999432,5489,5,81,127
0.09999999999999432,5489,6,81,6
0.09999999999999432,5489,7,81,2
0.10000000000000853,5489,8,81,107
0.10000000000000853,5489,9,81,2
0.09999999999999432,5489,10,81,62
0.09999999999999432,5489,11,81,127
0.10000000000000853,5489,12,81,9
0.09999999999999432,5489,13,81,2
0.10000000000000853,5489,14,81,125
0.09999999999999432,5489,15,81,2
0.09999999999999432,5490,0,81,3
0.10000000000000853,5490,1,81,127
0.09999999999999432,5490,2,81,10
0.10000000000000853,5490,3,81,2
0.09999999999999432,5490,4,81,110
0.10000000000000853,5490,5,81,2
0.10000000000000853,5490,6,81,127
0.09999999999999432,5490,7,81,7
0.10000000000000853,5490,8,81,2
0.09999999999999432,5490,9,81,127
0.09999999999999432,5490,10,81,114
0.09999999999999432,5490,11,81,2
0.09999999999999432,5490,12,81,99
0.10000000000000853,5490,13,81,127
0.09999999999999432,5490,14,81,5
0.10000000000000853,5490,15,81,2
0.09999999999999432,5491,0,81,88
0.09999999999999432,5491,1,81,2
0.09999999999999432,5491,2,81,114
0.09999999999999432,5491,3,81,127
0.10000000000000853,5491,4,81,8
0.09999999999999432,5491,5,81,2
0.09999999999999432,5491,6,81,111
0.10000000000000853,5491,7,81,3
0.09999999999999432,5491,8,81,2
0.10000000000000853,5491,9,81,127
0.09999999999999432,5491,10,81,8
0.09999999999999432,5491,11,81,2
0.10000000000000853,5491,12,81,118
0.09999999999999432,5491,13,81,2
0.10000000000000853,5491,14,81,127
0.09999999999999432,5491,15,81,7
0.10000000000000853,5492,0,81,32
0.10000000000000853,5492,1,81,127
0.09999999999999432,5492,2,81,125
0.09999999999999432,5492,3,81,3
0.09999999999999432,5492,4,81,9
0.10000000000000853,5492,5,81,127
0.09999999999999432,5492,6,81,4
0.09999999999999432,5492,7,81,28
0.10000000000000853,5492,8,81,123
0.10000000000000853,5492,9,81,42
0.09999999999999432,5492,10,81,125
0.09999999999999432,5492,11,81,28
0.10000000000000853,5492,12,81,50
0.09999999999999432,5492,13,81,127
0.10000000000000853,5492,14,81,53
0.09999999999999432,5492,15,81,123
0.09999999999999432,5493,0,81,127
0.10000000000000853,5493,1,81,127
0.10000000000000853,5493,2,81,107
0.09999999999999432,5493,3,81,127
0.09999999999999432,5493,4,81,4
0.09999999999999432,5493,5,81,127
0.09999999999999432,5493,6,81,3
0.09999999999999432,5493,7,81,127
0.09999999999999432,5493,8,81,5
0.09999999999999432,5493,9,81,4
0.09999999999999432,5493,10,81,127
0.09999999999999432,5493,11,81,3
0.09999999999999432,5493,12,81,5
0.09999999999999432,5493,13,81,127
0.10000000000000853,5493,14,81,3
0.10000000000000853,5493,15,81,4
0.09999999999999432,5494,0,81,125
0.10000000000000853,5494,1,81,3
0.09999999999999432,5494,2,81,4
0.09999999999999432,5494,3,81,127
0.10000000000000853,5494,4,81,4
0.09999999999999432,5494,5,81,3
0.09999999999999432,5494,6,81,121
0.09999999999999432,5494,7,81,3
0.09999999999999432,5494,8,81,4
0.10000000000000853,5494,9,81,127
0.09999999999999432,5494,10,81,4
0.10000000000000853,5494,11,81,3
0.10000000000000853,5494,12,81,121
0.10000000000000853,5494,13,81,3
0.09999999999999432,5494,14,81,4
0.09999999999999432,5494,15,81,127
0.09999999999999432,5495,0,81,4
0.09999999999999432,5495,1,81,4
0.09999999999999432,5495,2,81,127
0.09999999999999432,5495,3,81,3
0.09999999999999432,5495,4,81,71
0.10000000000000853,5495,5,81,127
0.09999999999999432,5495,6,81,3
0.09999999999999432,5495,7,81,3
0.10000000000000853,5495,8,81,127
0.10000000000000853,5495,9,81,3
0.10000000000000853,5495,10,81,91
0.09999999999999432,5495,11,81,127
0.10000000000000853,5495,12,81,4
0.09999999999999432,5495,13,81,4
0.09999999999999432,5495,14,81,126
0.09999999999999432,5495,15,81,3
0.09999999999999432,5496,0,81,91
0.10000000000000853,5496,1,81,127
0.09999999999999432,5496,2,81,2
0.09999999999999432,5496,3,81,3
0.09999999999999432,5496,4,81,127
0.09999999999999432,5496,5,81,4
0.10000000000000853,5496,6,81,4
0.09999999999999432,5496,7,81,127
0.10000000000000853,5496,8,81,4
0.09999999999999432,5496,9,81,4
0.09999999999999432,5496,10,81,127
0.09999999999999432,5496,11,81,3
0.09999999999999432,5496,12,81,127
0.09999999999999432,5496,13,81,10
0.09999999999999432,5496,14,81,46
0.09999999999999432,5496,15,81,127
0.10000000000000853,5497,0,81,118
0.09999999999999432,5497,1,81,4
0.10000000000000853,5497,2,81,11
0.09999999999999432,5497,3,81,127
0.10000000000000853,5497,4,81,7
0.09999999999999432,5497,5,81,3
0.09999999999999432,5497,6,81,127
0.10000000000000853,5497,7,81,2
0.09999999999999432,5497,8,81,87
0.09999999999999432,5497,9,81,127
0.09999999999999432,5497,10,81,9
0.09999999999999432,5497,11,81,2
0.10000000000000853,5497,12,81,92
0.09999999999999432,5497,13,81,2
0.09999999999999432,5497,14,81,2
0.09999999999999432,5497,15,81,127
0.10000000000000853,5498,0,81,5
0.10000000000000853,5498,1,81,2
0.09999999999999432,5498,2,81,79
0.10000000000000853,5498,3,81,2
0.09999999999999432,5498,4,81,127
0.09999999999999432,5498,5,81,7
0.09999999999999432,5498,6,81,42
0.09999999999999432,5498,7,81,96
0.10000000000000853,5498,8,81,78
0.09999999999999432,5498,9,81,33
0.10000000000000853,5498,10,81,124
0.09999999999999432,5498,11,81,127
0.10000000000000853,5498,12,81,17
0.10000000000000853,5498,13,81,100
0.09999999999999432,5498,14,81,104
0.09999999999999432,5498,15,81,127
0.09999999999999432,5499,0,81,6
0.09999999999999432,5499,1,81,3
0.09999999999999432,5499,2,81,85
0.09999999999999432,5499,3,81,2
0.09999999999999432,5499,4,81,2
0.10000000000000853,5499,5,81,127
0.09999999999999432,5499,6,81,4
0.09999999999999432,5499,7,81,2
0.09999999999999432,5499,8,81,87
0.10000000000000853,5499,9,81,2
0.09999999999999432,5499,10,81,35
0.09999999999999432,5499,11,81,127
0.10000000000000853,5499,12,81,6
0.09999999999999432,5499,13,81,2
0.09999999999999432,5499,14,81,93
0.09999999999999432,5499,15,81,1
0.09999999999999432,5500,0,81,88
0.10000000000000853,5500,1,81,127
0.09999999999999432,5500,2,81,7
0.09999999999999432,5500,3,81,2
0.09999999999999432,5500,4,81,90
0.09999999999999432,5500,5,81,2
0.10000000000000853,5500,6,81,2
0.09999999999999432,5500,7,81,127
0.10000000000000853,5500,8,81,5
0.09999999999999432,5500,9,81,2
0.09999999999999432,5500,10,81,93
0.09999999999999432,5500,11,81,1
0.09999999999999432,5500,12,81,2
0.09999999999999432,5500,13,81,127
0.09999999999999432,5500,14,81,6
0.09999999999999432,5500,15,81,2
0.10000000000000853,5501,0,81,89
0.09999999999999432,5501,1,81,2
0.10000000000000853,5501,2,81,103
0.09999999999999432,5501,3,81,127
0.10000000000000853,5501,4,81,4
0.09999999999999432,5501,5,81,127
0.09999999999999432,5501,6,81,100
0.10000000000000853,5501,7,81,2
0.09999999999999432,5501,8,81,2
0.10000000000000853,5501,9,81,127
0.09999999999999432,5501,10,81,5
0.09999999999999432,5501,11,81,2
0.10000000000000853,5501,12,81,87
0.09999999999999432,5501,13,81,2
0.09999999999999432,5501,14,81,90
0.09999999999999432,5501,15,81,127
0.10000000000000853,5502,0,81,7
0.10000000000000853,5502,1,81,2
0.09999999999999432,5502,2,81,81
0.10000000000000853,5502,3,81,2
0.09999999999999432,5502,4,81,2
0.09999999999999432,5502,5,81,127
0.09999999999999432,5502,6,81,5
0.09999999999999432,5502,7,81,2
0.10000000000000853,5502,8,81,87
0.09999999999999432,5502,9,81,2
0.10000000000000853,5502,10,81,127
0.09999999999999432,5502,11,81,5
0.09999999999999432,5502,12,81,31
0.10000000000000853,5502,13,81,127
0.10000000000000853,5502,14,81,92
0.10000000000000853,5502,15,81,1
0.09999999999999432,5503,0,81,2
0.09999999999999432,5503,1,81,127
0.10000000000000853,5503,2,81,11
0.09999999999999432,5503,3,81,2
0.09999999999999432,5503,4,81,97
0.09999999999999432,5503,5,81,2
0.09999999999999432,5503,6,81,89
0.10000000000000853,5503,7,81,127
0.10000000000000853,5503,8,81,4
0.09999999999999432,5503,9,81,2
0.09999999999999432,5503,10,81,89
0.10000000000000853,5503,11,81,2
0.09999999999999432,5503,12,81,2
0.09999999999999432,5503,13,81,127
0.10000000000000853,5503,14,81,6
0.09999999999999432,5503,15,81,3
0.09999999999999432,5504,0,81,88
0.09999999999999432,5504,1,81,2
0.09999999999999432,5504,2,81,127
0.10000000000000853,5504,3,81,5
0.09999999999999432,5504,4,81,53
0.10000000000000853,5504,5,81,127
0.09999999999999432,5504,6,81,114
0.09999999999999432,5504,7,81,22
0.09999999999999432,5504,8,81,46
0.09999999999999432,5504,9,81,125
0.09999999999999432,5504,10,81,127
0.09999999999999432,5504,11,81,127
0.09999999999999432,5504,12,81,120
0.09999999999999432,5504,13,81,70
0.09999999999999432,5504,14,81,127
0.09999999999999432,5504,15,81,127
0.09999999999999432,5505,0,81,121
0.09999999999999432,5505,1,81,127
0.09999999999999432,5505,2,81,127
0.09999999999999432,5505,3,81,2
0.09999999999999432,5505,4,81,108
0.09999999999999432,5505,5,81,2
0.10000000000002274,5505,6,81,127
0.09999999999999432,5505,7,81,8
0.10000000000002274,5505,8,81,2
0.09999999999999432,5505,9,81,114
0.09999999999999432,5505,10,81,1
0.09999999999999432,5505,11,81,127
0.10000000000002274,5505,12,81,9
0.09999999999999432,5505,13,81,6
0.09999999999999432,5505,14,81,117
0.09999999999999432,5505,15,81,127
0.10000000000002274,5506,0,81,127
0.10000000000002274,5506,1,81,7
0.10000000000002274,5506,2,81,1
0.09999999999999432,5506,3,81,101
0.09999999999999432,5506,4,81,2
0.09999999999999432,5506,5,81,127
0.10000000000002274,5506,6,81,9
0.09999999999999432,5506,7,81,2
0.09999999999999432,5506,8,81,127
0.09999999999999432,5506,9,81,5
0.09999999999999432,5506,10,81,2
0.10000000000002274,5506,11,81,127
0.09999999999999432,5506,12,81,9
0.09999999999999432,5506,13,81,1
0.10000000000002274,5506,14,81,118
0.10000000000002274,5506,15,81,2
0.09999999999999432,5507,0,81,127
0.09999999999999432,5507,1,81,8
0.09999999999999432,5507,2,81,6
0.09999999999999432,5507,3,81,112
0.09999999999999432,5507,4,81,127
0.09999999999999432,5507,5,81,127
0.09999999999999432,5507,6,81,6
0.09999999999999432,5507,7,81,2
0.10000000000002274,5507,8,81,99
0.10000000000002274,5507,9,81,127
0.09999999999999432,5507,10,81,127
0.09999999999999432,5507,11,81,9
0.09999999999999432,5507,12,81,2
0.09999999999999432,5507,13,81,122
0.10000000000002274,5507,14,81,2
0.09999999999999432,5507,15,81,2
0.09999999999999432,5508,0,81,127
0.09999999999999432,5508,1,81,7
0.09999999999999432,5508,2,81,2
0.10000000000002274,5508,3,81,106
0.09999999999999432,5508,4,81,127
0.09999999999999432,5508,5,81,9
0.09999999999999432,5508,6,81,1
0.10000000000002274,5508,7,81,127
0.09999999999999432,5508,8,81,108
0.09999999999999432,5508,9,81,2
0.09999999999999432,5508,10,81,127
0.09999999999999432,5508,11,81,7
0.10000000000002274,5508,12,81,1
0.09999999999999432,5508,13,81,117
0.09999999999999432,5508,14,81,127
0.10000000000002274,5508,15,81,127
0.09999999999999432,5509,0,81,7
0.10000000000002274,5509,1,81,1
0.09999999999999432,5509,2,81,114
0.09999999999999432,5509,3,81,2
0.09999999999999432,5509,4,81,127
0.10000000000002274,5509,5,81,10
0.09999999999999432,5509,6,81,2
0.09999999999999432,5509,7,81,126
0.09999999999999432,5509,8,81,127
0.10000000000002274,5509,9,81,10
0.10000000000002274,5509,10,81,1
0.09999999999999432,5509,11,81,126
0.09999999999999432,5509,12,81,106
0.09999999999999432,5509,13,81,2
0.10000000000002274,5509,14,81,127
0.09999999999999432,5509,15,81,127
0.09999999999999432,5510,0,81,3
0.09999999999999432,5510,1,81,107
0.09999999999999432,5510,2,81,127
0.10000000000002274,5510,3,81,127
0.09999999999999432,5510,4,81,1
0.10000000000002274,5510,5,81,72
0.09999999999999432,5510,6,81,2
0.10000000000002274,5510,7,81,1
0.09999999999999432,5510,8,81,127
0.09999999999999432,5510,9,81,8
0.09999999999999432,5510,10,81,1
0.09999999999999432,5510,11,81,127
0.10000000000002274,5510,12,81,22
0.09999999999999432,5510,13,81,2
0.09999999999999432,5510,14,81,127
0.09999999999999432,5510,15,81,6
0.09999999999999432,5511,0,81,1
0.10000000000002274,5511,1,81,112
0.10000000000002274,5511,2,81,7
0.09999999999999432,5511,3,81,127
0.09999999999999432,5511,4,81,127
0.09999999999999432,5511,5,81,7
0.09999999999999432,5511,6,81,2
0.09999999999999432,5511,7,81,103
0.10000000000002274,5511,8,81,2
0.09999999999999432,5511,9,81,1
0.09999999999999432,5511,10,81,127
0.09999999999999432,5511,11,81,7
0.09999999999999432,5511,12,81,1
0.10000000000002274,5511,13,81,109
0.09999999999999432,5511,14,81,9
0.09999999999999432,5511,15,81,1
0.09999999999999432,5512,0,81,127
0.09999999999999432,5512,1,81,8
0.10000000000002274,5512,2,81,1
0.09999999999999432,5512,3,81,116
0.09999999999999432,5512,4,81,1
0.09999999999999432,5512,5,81,2
0.09999999999999432,5512,6,81,127
0.09999999999999432,5512,7,81,6
0.09999999999999432,5512,8,81,127
0.09999999999999432,5512,9,81,98
0.09999999999999432,5512,10,81,1
0.09999999999999432,5512,11,81,127
0.10000000000002274,5512,12,81,127
0.10000000000002274,5512,13,81,8
0.10000000000002274,5512,14,81,2
0.09999999999999432,5512,15,81,103
0.09999999999999432,5513,0,81,5
0.09999999999999432,5513,1,81,125
0.09999999999999432,5513,2,81,127
0.10000000000002274,5513,3,81,8
0.09999999999999432,5513,4,81,2
0.09999999999999432,5513,5,81,81
0.09999999999999432,5513,6,81,4
0.09999999999999432,5513,7,81,2
0.10000000000002274,5513,8,81,127
0.09999999999999432,5513,9,81,8
0.09999999999999432,5513,10,81,1
0.09999999999999432,5513,11,81,113
0.09999999999999432,5513,12,81,6
0.10000000000002274,5513,13,81,127
0.09999999999999432,5513,14,81,7
0.09999999999999432,5513,15,81,1
0.09999999999999432,5514,0,81,127
0.09999999999999432,5514,1,81,127
0.09999999999999432,5514,2,81,3
0.10000000000002274,5514,3,81,1
0.09999999999999432,5514,4,81,127
0.09999999999999432,5514,5,81,7
0.09999999999999432,5514,6,81,2
0.09999999999999432,5514,7,81,126
0.09999999999999432,5514,8,81,1
0.10000000000002274,5514,9,81,127
0.09999999999999432,5514,10,81,127
0.09999999999999432,5514,11,81,8
0.09999999999999432,5514,12,81,127
0.09999999999999432,5514,13,81,125
0.09999999999999432,5514,14,81,127
0.10000000000002274,5514,15,81,117
0.09999999999999432,5515,0,81,127
0.09999999999999432,5515,1,81,9
0.09999999999999432,5515,2,81,46
0.10000000000002274,5515,3,81,127
0.09999999999999432,5515,4,81,127
0.10000000000002274,5515,5,81,1
0.09999999999999432,5515,6,81,64
0.09999999999999432,5515,7,61,27
0.09999999999999432,5515,8,61,8
0.09999999999999432,5515,9,61,31
0.09999999999999432,5515,10,61,7
0.09999999999999432,5515,11,61,23
0.09999999999999432,5515,12,61,5
0.09999999999999432,5515,13,61,3
0.09999999999999432,5515,14,61,74
0.09999999999999432,5515,15,61,79
0.09999999999999432,5516,0,61,28
0.10000000000002274,5516,1,61,13
0.09999999999999432,5516,2,61,26
0.09999999999999432,5516,3,61,60
0.09999999999999432,5516,4,61,39
0.10000000000002274,5516,5,61,19
0.09999999999999432,5516,6,61,14
0.09999999999999432,5516,7,61,26
0.09999999999999432,5516,8,61,14
0.09999999999999432,5516,9,61,40
0.09999999999999432,5516,10,61,38
0.10000000000002274,5516,11,61,19
0.09999999999999432,5516,12,61,6
0.09999999999999432,5516,13,61,26
0.10000000000002274,5516,14,61,71
0.09999999999999432,5516,15,61,46
0.09999999999999432,5517,0,61,21
0.09999999999999432,5517,1,61,42
0.09999999999999432,5517,2,61,42
0.09999999999999432,5517,3,61,41
0.09999999999999432,5517,4,61,20
0.09999999999999432,5517,5,61,7
0.09999999999999432,5517,6,61,34
0.09999999999999432,5517,7,61,46
0.09999999999999432,5517,8,61,14
0.09999999999999432,5517,9,61,5
0.09999999999999432,5517,10,61,48
0.10000000000002274,5517,11,61,35
0.09999999999999432,5517,12,61,26
0.09999999999999432,5517,13,61,16
0.10000000000002274,5517,14,61,7
0.09999999999999432,5517,15,61,16
0.10000000000002274,5518,0,61,3
0.10000000000002274,5518,1,61,1
0.09999999999999432,5518,2,61,9
0.09999999999999432,5518,3,61,42
0.09999999999999432,5518,4,61,18
0.09999999999999432,5518,5,61,1
0.09999999999999432,5518,6,61,16
0.09999999999999432,5518,7,61,9
0.10000000000002274,5518,8,61,8
0.09999999999999432,5518,9,61,29
0.10000000000002274,5518,10,61,11
0.09999999999999432,5518,11,61,24
0.09999999999999432,5518,12,61,28
0.09999999999999432,5518,13,61,45
0.09999999999999432,5518,14,61,4
0.09999999999999432,5518,15,61,33
0.09999999999999432,5519,0,61,43
0.09999999999999432,5519,1,61,32
0.10000000000002274,5519,2,61,4
0.09999999999999432,5519,3,61,6
0.09999999999999432,5519,4,61,30
0.10000000000002274,5519,5,61,20
0.10000000000002274,5519,6,61,11
0.09999999999999432,5519,7,61,38
0.09999999999999432,5519,8,61,26
0.09999999999999432,5519,9,61,23
0.09999999999999432,5519,10,61,7
0.10000000000002274,5519,11,61,9
0.09999999999999432,5519,12,61,43
0.09999999999999432,5519,13,61,12
0.10000000000002274,5519,14,61,16
0.10000000000002274,5519,15,61,12
0.09999999999999432,5520,0,61,25
0.09999999999999432,5520,1,61,26
0.09999999999999432,5520,2,61,17
0.09999999999999432,5520,3,61,11
0.10000000000002274,5520,4,61,17
0.09999999999999432,5520,5,61,23
0.09999999999999432,5520,6,61,22
0.09999999999999432,5520,7,61,20
0.09999999999999432,5520,8,61,23
0.09999999999999432,5520,9,61,26
0.09999999999999432,5520,10,61,32
0.09999999999999432,5520,11,61,37
0.09999999999999432,5520,12,61,17
0.10000000000002274,5520,13,61,23
0.10000000000002274,5520,14,61,35
0.10000000000002274,5520,15,61,22
0.09999999999999432,5521,0,61,34
0.09999999999999432,5521,1,61,19
0.09999999999999432,5521,2,61,20
0.10000000000002274,5521,3,61,23
0.09999999999999432,5521,4,61,20
0.09999999999999432,5521,5,61,8
0.10000000000002274,5521,6,61,28
0.09999999999999432,5521,7,61,14
0.09999999999999432,5521,8,61,34
0.09999999999999432,5521,9,61,17
0.09999999999999432,5521,10,61,14
0.09999999999999432,5521,11,61,45
0.09999999999999432,5521,12,61,25
0.09999999999999432,5521,13,61,25
0.09999999999999432,5521,14,61,20
0.09999999999999432,5521,15,61,30
0.09999999999999432,5522,0,61,6
0.09999999999999432,5522,1,61,40
0.09999999999999432,5522,2,61,75
0.09999999999999432,5522,3,61,25
0.09999999999999432,5522,4,61,16
0.10000000000002274,5522,5,61,37
0.09999999999999432,5522,6,61,61
0.09999999999999432,5522,7,61,21
0.09999999999999432,5522,8,61,57
0.09999999999999432,5522,9,61,95
0.09999999999999432,5522,10,61,24
0.09999999999999432,5522,11,61,23
0.09999999999999998,5522,12,61,1
0.027272727272727337,5522,13,61,25
0.10000000000000009,5522,14,61,32
0.09999999999999987,5522,15,61,37
0.06818181818181812,5523,0,61,42
0.09999999999999987,5523,1,61,41
0.09999999999999964,5523,2,61,47
0.10000000000000009,5523,3,61,20
0.10000000000000009,5523,4,61,18
0.10000000000000009,5523,5,61,15
0.09999999999999964,5523,6,61,42
0.10000000000000009,5523,7,61,15
0.10000000000000009,5523,8,61,16
0.09999999999999964,5523,9,61,11
0.10000000000000053,5523,10,61,37
0.10000000000000053,5523,11,61,14
0.10000000000000053,5523,12,61,23
0.09999999999999964,5523,13,61,10
0.09999999999999964,5523,14,61,37
0.09999999999999964,5523,15,61,19
0.09999999999999964,5524,0,61,19
0.10000000000000053,5524,1,61,36
0.10000000000000053,5524,2,61,36
0.09999999999999964,5524,3,61,15
0.10000000000000053,5524,4,61,19
0.10000000000000053,5524,5,61,11
0.09999999999999964,5524,6,61,31
0.09999999999999964,5524,7,61,10
0.09999999999999964,5524,8,61,16
0.09999999999999964,5524,9,61,11
0.09999999999999964,5524,10,61,37
0.09999999999999964,5524,11,61,17
0.09999999999999964,5524,12,61,17
0.10000000000000142,5524,13,61,25
0.10000000000000142,5524,14,61,36
0.09999999999999964,5524,15,61,21
0.09999999999999964,5525,0,61,25
0.09999999999999964,5525,1,61,39
0.09999999999999964,5525,2,61,19
0.09999999999999964,5525,3,61,17
0.09999999999999964,5525,4,61,17
0.09999999999999964,5525,5,61,31
0.09999999999999964,5525,6,61,6
0.10000000000000142,5525,7,61,15
0.09999999999999964,5525,8,61,33
0.10000000000000142,5525,9,61,13
0.09999999999999964,5525,10,61,10
0.09999999999999964,5525,11,61,11
0.09999999999999964,5525,12,61,23
0.09999999999999964,5525,13,61,14
0.06818181818181834,5525,14,61,22
0.10000000000000142,5525,15,61,38
0.10000000000000142,5526,0,61,17
0.10000000000000142,5526,1,61,35
0.09999999999999787,5526,2,61,30
0.10000000000000142,5526,3,61,35
0.09999999999999787,5526,4,61,25
0.05681818181817988,5526,5,61,24
0.10000000000000142,5526,6,61,26
0.09999999999999787,5526,7,61,16
0.10000000000000142,5526,8,61,31
0.10000000000000142,5526,9,61,18
0.06818181818181657,5526,10,61,23
0.10000000000000142,5526,11,61,23
0.10000000000000142,5526,12,61,40
0.10000000000000142,5526,13,61,8
0.09999999999999787,5526,14,61,14
0.06818181818181657,5526,15,61,18
0.10000000000000142,5527,0,61,2
0.09999999999999787,5527,1,61,3
0.10000000000000142,5527,2,61,2
0.09999999999999787,5527,3,61,15
0.06818181818181657,5527,4,61,20
0.09999999999999787,5527,5,61,5
0.09999999999999787,5527,6,61,6
0.06818181818181657,5527,7,61,10
0.09999999999999787,5527,8,61,5
0.09999999999999787,5527,9,61,20
0.06818181818181657,5527,10,61,27
0.10000000000000142,5527,11,61,6
0.09999999999999787,5527,12,61,5
0.09999999999999787,5527,13,61,30
0.09999999999999787,5527,14,61,4
0.10000000000000142,5527,15,61,23
0.10000000000000142,5528,0,61,7
0.10000000000000142,5528,1,61,19
0.06818181818182012,5528,2,61,27
0.10000000000000142,5528,3,61,1
0.09999999999999787,5528,4,61,16
0.10000000000000142,5528,5,61,1
0.09999999999999787,5528,6,61,1
0.09999999999999787,5528,7,61,1
0.09999999999999787,5528,8,61,22
0.09999999999999787,5528,9,61,1
0.10000000000000142,5528,10,61,2
0.09999999999999787,5528,11,61,3
0.10000000000000142,5528,12,61,19
0.06818181818182012,5528,13,61,27
0.09999999999999787,5528,14,61,4
0.10000000000000142,5528,15,61,3
0.09999999999999787,5529,0,61,3
0.10000000000000142,5529,1,61,27
0.09999999999999787,5529,2,61,6
0.09999999999999787,5529,3,61,1
0.10000000000000142,5529,4,61,16
0.10000000000000142,5529,5,61,1
0.09999999999999787,5529,6,61,1
0.09999999999999787,5529,7,61,23
0.10000000000000142,5529,8,61,20
0.10000000000000142,5529,9,61,22
0.09999999999999432,5529,10,61,21
0.10000000000000142,5529,11,61,1
0.10000000000000142,5529,12,61,14
0.10000000000000142,5529,13,61,21
0.10000000000000142,5529,14,61,13
0.10000000000000142,5529,15,61,22
0.10000000000000142,5530,0,61,21
0.10000000000000142,5530,1,61,42
0.09999999999999432,5530,2,61,50
0.10000000000000142,5530,3,61,43
0.10000000000000142,5530,4,61,28
0.10000000000000142,5530,5,61,33
0.09999999999999432,5530,6,61,51
0.10000000000000142,5530,7,61,20
0.09999999999999432,5530,8,61,26
0.09999999999999432,5530,9,61,32
0.10000000000000142,5530,10,61,39
0.09999999999999432,5530,11,61,37
0.10000000000000142,5530,12,61,21
0.10000000000000142,5530,13,61,52
0.10000000000000142,5530,14,61,23
0.10000000000000142,5530,15,61,30
0.10000000000000142,5531,0,61,49
0.09999999999999432,5531,1,61,31
0.10000000000000142,5531,2,61,32
0.10000000000000142,5531,3,61,52
0.10000000000000142,5531,4,61,58
0.10000000000000142,5531,5,61,24
0.10000000000000142,5531,6,61,28
0.10000000000000142,5531,7,61,29
0.09999999999999432,5531,8,61,49
0.10000000000000142,5531,9,61,28
0.09999999999999432,5531,10,61,26
0.10000000000000142,5531,11,61,44
0.10000000000000142,5531,12,61,33
0.10000000000000142,5531,13,61,23
0.10000000000000142,5531,14,61,43
0.09999999999999432,5531,15,61,19
0.10000000000000142,5532,0,61,20
0.09999999999999432,5532,1,61,40
0.10000000000000142,5532,2,61,47
0.10000000000000142,5532,3,61,28
0.10000000000000142,5532,4,61,32
0.10000000000000142,5532,5,61,48
0.10000000000000142,5532,6,61,31
0.10000000000000142,5532,7,61,44
0.10000000000000142,5532,8,61,27
0.10000000000000142,5532,9,61,28
0.09999999999999432,5532,10,61,47
0.10000000000000142,5532,11,61,16
0.10000000000000142,5532,12,61,35
0.09999999999999432,5532,13,61,36
0.10000000000000142,5532,14,61,39
0.10000000000000142,5532,15,61,24
0.10000000000000142,5533,0,61,38
0.10000000000000142,5533,1,61,38
0.10000000000000142,5533,2,61,47
0.10000000000000142,5533,3,61,37
0.10000000000000142,5533,4,61,37
0.10000000000000142,5533,5,61,34
0.10000000000000142,5533,6,61,48
0.10000000000000142,5533,7,61,36
0.09999999999999432,5533,8,61,33
0.10000000000000142,5533,9,61,41
0.10000000000000142,5533,10,61,43
0.10000000000000142,5533,11,61,20
0.10000000000000142,5533,12,61,30
0.10000000000000142,5533,13,61,21
0.10000000000000142,5533,14,61,40
0.10000000000000142,5533,15,61,24
0.10000000000000142,5534,0,61,13
0.10000000000000142,5534,1,61,38
0.10000000000000142,5534,2,61,24
0.10000000000000142,5534,3,61,18
0.10000000000000142,5534,4,61,10
0.10000000000000142,5534,5,61,24
0.10000000000000142,5534,6,61,7
0.10000000000000142,5534,7,61,5
0.10000000000000142,5534,8,61,5
0.10000000000000142,5534,9,61,23
0.10000000000000142,5534,10,61,6
0.10000000000000142,5534,11,61,4
0.10000000000000142,5534,12,61,28
0.10000000000000142,5534,13,61,8
0.09999999999999432,5534,14,61,8
0.09999999999999432,5534,15,61,9
0.09999999999999432,5535,0,61,30
0.10000000000000142,5535,1,61,11
0.10000000000000142,5535,2,61,8
0.09999999999999432,5535,3,61,13
0.10000000000000853,5535,4,61,19
0.09999999999999432,5535,5,61,11
0.09999999999999432,5535,6,61,11
0.10000000000000853,5535,7,61,30
0.09999999999999432,5535,8,61,10
0.06590909090908781,5535,9,61,13
0.10000000000000853,5535,10,61,8
0.09999999999999432,5535,11,61,27
0.10000000000000853,5535,12,61,14
0.09999999999999432,5535,13,61,12
0.09999999999999432,5535,14,61,15
0.06818181818181301,5535,15,61,14
0.09999999999999432,5536,0,61,25
0.09999999999999432,5536,1,61,10
0.10000000000000853,5536,2,61,8
0.09999999999999432,5536,3,61,9
0.10000000000000853,5536,4,61,29
0.09999999999999432,5536,5,61,26
0.09999999999999432,5536,6,61,19
0.09999999999999432,5536,7,61,25
0.09999999999999432,5536,8,61,15
0.09999999999999432,5536,9,61,6
0.10000000000000853,5536,10,61,33
0.09999999999999432,5536,11,61,12
0.09999999999999432,5536,12,61,12
0.09999999999999432,5536,13,61,18
0.10000000000000853,5536,14,61,11
0.09999999999999432,5536,15,61,29
0.09999999999999432,5537,0,61,29
0.09999999999999432,5537,1,61,21
0.09999999999999432,5537,2,61,22
0.10000000000000853,5537,3,61,20
0.09999999999999432,5537,4,61,28
0.10000000000000853,5537,5,61,19
0.10000000000000853,5537,6,61,24
0.10000000000000853,5537,7,61,18
0.09999999999999432,5537,8,61,39
0.10000000000000853,5537,9,61,14
0.09999999999999432,5537,10,61,23
0.09999999999999432,5537,11,61,20
0.09999999999999432,5537,12,61,23
0.10000000000000853,5537,13,61,25
0.09999999999999432,5537,14,61,22
0.10000000000000853,5537,15,61,26
0.09999999999999432,5538,0,61,29
0.09999999999999432,5538,1,61,37
0.09999999999999432,5538,2,61,18
0.09999999999999432,5538,3,61,28
0.10000000000000853,5538,4,61,34
0.09999999999999432,5538,5,61,37
0.10000000000000853,5538,6,61,20
0.10000000000000853,5538,7,61,27
0.09999999999999432,5538,8,61,45
0.09999999999999432,5538,9,61,42
0.09999999999999432,5538,10,61,40
0.09999999999999432,5538,11,61,37
0.09999999999999432,5538,12,61,33
0.10000000000000853,5538,13,61,38
0.09999999999999432,5538,14,61,34
0.09999999999999432,5538,15,61,39
0.09999999999999432,5539,0,61,46
0.09999999999999432,5539,1,61,24
0.10000000000000853,5539,2,61,44
0.09999999999999432,5539,3,61,50
0.10000000000000853,5539,4,61,57
0.10000000000000853,5539,5,61,42
0.09999999999999432,5539,6,61,48
0.09999999999999432,5539,7,61,50
0.09999999999999432,5539,8,61,48
0.09999999999999432,5539,9,61,53
0.10000000000000853,5539,10,61,31
0.09999999999999432,5539,11,61,36
0.09999999999999432,5539,12,61,46
0.09999999999999432,5539,13,61,46
0.09999999999999432,5539,14,61,33
0.09999999999999432,5539,15,61,20
0.09999999999999432,5540,0,61,32
0.09999999999999432,5540,1,61,20
0.09999999999999432,5540,2,61,24
0.09999999999999432,5540,3,61,37
0.10000000000000853,5540,4,61,36
0.09999999999999432,5540,5,61,26
0.10000000000000853,5540,6,61,32
0.09999999999999432,5540,7,61,34
0.10000000000000853,5540,8,61,46
0.09999999999999432,5540,9,61,41
0.09999999999999432,5540,10,61,46
0.09999999999999432,5540,11,61,25
0.10000000000000853,5540,12,61,25
0.09999999999999432,5540,13,61,32
0.10000000000000853,5540,14,61,16
0.09999999999999432,5540,15,61,20
0.10000000000000853,5541,0,61,18
0.10000000000000853,5541,1,61,24
0.09999999999999432,5541,2,61,17
0.09999999999999432,5541,3,61,30
0.09999999999999432,5541,4,61,26
0.09999999999999432,5541,5,61,33
0.09999999999999432,5541,6,61,23
0.09999999999999432,5541,7,61,31
0.10000000000000853,5541,8,61,48
0.09999999999999432,5541,9,61,21
0.09999999999999432,5541,10,61,23
0.09999999999999432,5541,11,61,33
0.10000000000000853,5541,12,61,17
0.10000000000000853,5541,13,61,18
0.10000000000000853,5541,14,61,23
0.09999999999999432,5541,15,61,28
0.10000000000000853,5542,0,61,24
0.09999999999999432,5542,1,61,17
0.10000000000000853,5542,2,61,16
0.09999999999999432,5542,3,61,25
0.09999999999999432,5542,4,61,29
0.10000000000000853,5542,5,61,24
0.09999999999999432,5542,6,61,25
0.09999999999999432,5542,7,61,30
0.09999999999999432,5542,8,61,31
0.09999999999999432,5542,9,61,24
0.10000000000000853,5542,10,61,26
0.09999999999999432,5542,11,61,22
0.10000000000000853,5542,12,61,22
0.09999999999999432,5542,13,61,39
0.09999999999999432,5542,14,61,35
0.09999999999999432,5542,15,61,18
0.09999999999999432,5543,0,61,18
0.09999999999999432,5543,1,61,31
0.10000000000000853,5543,2,61,34
0.09999999999999432,5543,3,61,27
0.10000000000000853,5543,4,61,19
0.10000000000000853,5543,5,61,28
0.10000000000000853,5543,6,61,15
0.09999999999999432,5543,7,61,13
0.09999999999999432,5543,8,61,26
0.09999999999999432,5543,9,61,25
0.09999999999999432,5543,10,61,21
0.10000000000000853,5543,11,61,15
0.09999999999999432,5543,12,61,19
0.10000000000000853,5543,13,61,23
0.10000000000000853,5543,14,61,15
0.09999999999999432,5543,15,61,23
0.09999999999999432,5544,0,61,34
0.09999999999999432,5544,1,61,31
0.09999999999999432,5544,2,61,17
0.09999999999999432,5544,3,61,19
0.10000000000000853,5544,4,61,24
0.09999999999999432,5544,5,61,16
0.09999999999999432,5544,6,61,32
0.09999999999999432,5544,7,61,27
0.09999999999999432,5544,8,61,20
0.09999999999999432,5544,9,61,20
0.10000000000000853,5544,10,61,25
0.10000000000000853,5544,11,61,26
0.09999999999999432,5544,12,61,15
0.10000000000000853,5544,13,61,32
0.09999999999999432,5544,14,61,40
0.10000000000000853,5544,15,61,36
0.10000000000000853,5545,0,61,34
0.10000000000000853,5545,1,61,25
0.10000000000000853,5545,2,61,19
0.10000000000000853,5545,3,61,12
0.09999999999999432,5545,4,61,18
0.056818181818172775,5545,5,61,27
0.01590909090909065,5545,6,61,38
0.10000000000000853,5545,7,61,19
0.045454545454546746,5545,8,61,36
0.10000000000000853,5545,9,61,21
0.06818181818182723,5545,10,61,22
0.013636363636365445,5545,11,61,52
0.09999999999999432,5545,12,61,48
0.09999999999999432,5545,13,61,15
0.056818181818172775,5545,14,61,18
0.024999999999991473,5545,15,61,21
0.024999999999991473,5546,0,61,28
0.024999999999991473,5546,1,61,33
0.10000000000000853,5546,2,61,18
0.09999999999999432,5546,3,61,59
0.10000000000000853,5546,4,61,32
0.04772727272727195,5546,5,61,32
0.09999999999999432,5546,6,61,35
0.05909090909091219,5546,7,61,35
0.09999999999999432,5546,8,61,40
0.09999999999999432,5546,9,61,48
0.09999999999999432,5546,10,61,47
0.10000000000000853,5546,11,61,25
0.056818181818186986,5546,12,61,22
0.10000000000000853,5546,13,61,8
0.09999999999999432,5546,14,61,21
0.056818181818186986,5546,15,61,19
0.013636363636365445,5547,0,61,22
0.10000000000000853,5547,1,61,21
0.013636363636365445,5547,2,61,19
0.10000000000000853,5547,3,61,8
0.056818181818186986,5547,4,61,8
0.10000000000000853,5547,5,61,20
0.09999999999999432,5547,6,61,25
0.09999999999999432,5547,7,61,23
0.09999999999999432,5547,8,61,8
0.09999999999999432,5547,9,61,31
0.09999999999999432,5547,10,61,51
0.09999999999999432,5547,11,61,47
0.06818181818181301,5547,12,61,50
0.09999999999999432,5547,13,61,1
0.04772727272728616,5547,14,61,8
0.10000000000002274,5547,15,61,44
0.09999999999999432,5548,0,61,29
0.10000000000002274,5548,1,61,33
0.06818181818184144,5548,2,61,38
0.09999999999999432,5548,3,61,37
0.09999999999999432,5548,4,61,40
0.056818181818186986,5548,5,61,38
0.09999999999999432,5548,6,61,60
0.09999999999999432,5548,7,61,47
0.09999999999999432,5548,8,61,39
0.09999999999999432,5548,9,61,75
0.09999999999999432,5548,10,61,31
0.09999999999999432,5548,11,61,27
0.10000000000002274,5548,12,61,39
0.09999999999999432,5548,13,61,23
0.025000000000005684,5548,14,61,28
0.09999999999999432,5548,15,61,44
0.09999999999999432,5549,0,61,28
0.09999999999999432,5549,1,61,17
0.06590909090908781,5549,2,61,20
0.03409090909090651,5549,3,61,26
0.10000000000002274,5549,4,61,43
0.10000000000002274,5549,5,61,24
0.09999999999999432,5549,6,61,25
0.09999999999999432,5549,7,61,34
0.09999999999999432,5549,8,61,25
0.09999999999999432,5549,9,61,28
0.10000000000002274,5549,10,61,41
0.10000000000002274,5549,11,61,29
0.10000000000002274,5549,12,61,21
0.06818181818184144,5549,13,61,24
0.09999999999999432,5549,14,61,38
0.09999999999999432,5549,15,61,35
0.09999999999999432,5550,0,61,25
0.09999999999999432,5550,1,61,49
0.09999999999999432,5550,2,61,29
0.09999999999999432,5550,3,61,50
0.09999999999999432,5550,4,61,52
0.09999999999999432,5550,5,61,39
0.09999999999999432,5550,6,61,35
0.09999999999999432,5550,7,61,39
0.06818181818181301,5550,8,61,44
0.09999999999999432,5550,9,61,27
0.09999999999999432,5550,10,61,27
0.09999999999999432,5550,11,61,40
0.09999999999999432,5550,12,61,23
0.09999999999999432,5550,13,61,42
0.06818181818181301,5550,14,61,45
0.09999999999999432,5550,15,61,68
0.09999999999999432,5551,0,61,43
0.09999999999999432,5551,1,61,49
0.09999999999999432,5551,2,61,61
0.09999999999999432,5551,3,61,23
0.09999999999999432,5551,4,61,45
0.09999999999999432,5551,5,61,29
0.09999999999999432,5551,6,61,31
0.056818181818186986,5551,7,61,41
0.10000000000002274,5551,8,61,30
0.09999999999999432,5551,9,61,17
0.10000000000002274,5551,10,61,14
0.09999999999999432,5551,11,61,40
0.10000000000002274,5551,12,61,33
0.09999999999999432,5551,13,61,22
0.09999999999999432,5551,14,61,30
0.10000000000002274,5551,15,61,35
0.09999999999999432,5552,0,61,29
0.06590909090908781,5552,1,61,35
0.09999999999999432,5552,2,61,10
0.10000000000002274,5552,3,61,31
0.09999999999999432,5552,4,61,17
0.04545454545456096,5552,5,61,26
0.10000000000002274,5552,6,61,38
0.10000000000002274,5552,7,61,25
0.09999999999999432,5552,8,61,27
0.09999999999999432,5552,9,61,27
0.09999999999999432,5552,10,61,38
0.09999999999999432,5552,11,61,18
0.09999999999999432,5552,12,61,20
0.04545454545456096,5552,13,61,26
0.09999999999999432,5552,14,61,25
0.09999999999999432,5552,15,61,17
0.10000000000002274,5553,0,61,14
0.10000000000002274,5553,1,61,34
0.09999999999999432,5553,2,61,26
0.09999999999999432,5553,3,61,29
0.09999999999999432,5553,4,61,16
0.10000000000002274,5553,5,61,17
0.04772727272728616,5553,6,61,35
0.10000000000002274,5553,7,61,37
0.09999999999999432,5553,8,61,17
0.10000000000002274,5553,9,61,29
0.09999999999999432,5553,10,61,33
0.09999999999999432,5553,11,61,18
0.056818181818186986,5553,12,61,31
0.09999999999999432,5553,13,61,38
0.10000000000002274,5553,14,61,18
0.09999999999999432,5553,15,61,16
0.056818181818186986,5554,0,61,27
0.09999999999999432,5554,1,61,22
0.10000000000002274,5554,2,61,23
0.09999999999999432,5554,3,61,45
0.06818181818181301,5554,4,61,58
0.10000000000002274,5554,5,61,51
0.09999999999999432,5554,6,61,32
0.09999999999999432,5554,7,61,22
0.09999999999999432,5554,8,61,23
0.09999999999999432,5554,9,61,41
0.10000000000000009,5554,10,69,29
0.10000000000000009,5554,11,69,22
0.10000000000000009,5554,12,69,15
0.10000000000000009,5554,13,69,10
0.09999999999999964,5554,14,69,36
0.09999999999999964,5554,15,69,35
0.10000000000000053,5555,0,69,28
0.10000000000000053,5555,1,69,39
0.09999999999999964,5555,2,69,46
0.09999999999999964,5555,3,69,18
0.09999999999999964,5555,4,69,52
0.09999999999999964,5555,5,69,44
0.09999999999999964,5555,6,69,39
0.09999999999999964,5555,7,69,57
0.09999999999999964,5555,8,69,82
0.09999999999999964,5555,9,69,42
0.09999999999999964,5555,10,69,73
0.09999999999999964,5555,11,69,27
0.09999999999999964,5555,12,69,40
0.09999999999999964,5555,13,69,60
0.09999999999999964,5555,14,69,65
0.09999999999999787,5555,15,69,61
0.09999999999999787,5556,0,69,45
0.10000000000000142,5556,1,69,44
0.09999999999999787,5556,2,69,7
0.09999999999999787,5556,3,69,21
0.10000000000000142,5556,4,69,38
0.10000000000000142,5556,5,69,59
0.09999999999999787,5556,6,69,37
0.10000000000000142,5556,7,69,34
0.09999999999999787,5556,8,69,51
0.09999999999999787,5556,9,69,34
0.10000000000000142,5556,10,69,20
0.10000000000000142,5556,11,69,30
0.10000000000000142,5556,12,69,53
0.10000000000000142,5556,13,69,34
0.10000000000000142,5556,14,69,28
0.10000000000000142,5556,15,69,50
0.10000000000000142,5557,0,69,58
0.09999999999999432,5557,1,69,52
0.10000000000000142,5557,2,69,33
0.09999999999999432,5557,3,69,53
0.10000000000000142,5557,4,69,22
0.013636363636365445,5557,5,69,40
0.01590909090909065,5557,6,69,48
0.10000000000000142,5557,7,69,55
0.10000000000000142,5557,8,69,49
0.10000000000000142,5557,9,69,74
0.10000000000000142,5557,10,69,26
0.09999999999999432,5557,11,69,42
0.10000000000000142,5557,12,69,36
0.09999999999999432,5557,13,69,30
0.10000000000000142,5557,14,69,40
0.10000000000000142,5557,15,69,44
0.10000000000000142,5558,0,69,51
0.10000000000000142,5558,1,69,33
0.10000000000000142,5558,2,69,32
0.10000000000000142,5558,3,69,36
0.09999999999999432,5558,4,69,50
0.10000000000000142,5558,5,69,57
0.10000000000000142,5558,6,69,36
0.10000000000000142,5558,7,69,34
0.09999999999999432,5558,8,69,25
0.10000000000000142,5558,9,69,25
0.10000000000000142,5558,10,69,40
0.10000000000000142,5558,11,69,54
0.10000000000000142,5558,12,69,25
0.10000000000000142,5558,13,69,42
0.10000000000000142,5558,14,69,32
0.10000000000000142,5558,15,69,45
0.10000000000000142,5559,0,69,33
0.10000000000000142,5559,1,69,21
0.10000000000000142,5559,2,69,21
0.10000000000000142,5559,3,69,23
0.10000000000000142,5559,4,69,27
0.10000000000000142,5559,5,69,30
0.10000000000000142,5559,6,69,28
0.10000000000000142,5559,7,69,36
0.10000000000000142,5559,8,69,27
0.10000000000000142,5559,9,69,70
0.10000000000000142,5559,10,69,62
0.10000000000000142,5559,11,69,49
0.10000000000000142,5559,12,69,31
0.10000000000000853,5559,13,69,18
0.09999999999999432,5559,14,69,35
0.10000000000000853,5559,15,69,72
0.09999999999999432,5560,0,69,48
0.09999999999999432,5560,1,69,34
0.09999999999999432,5560,2,69,54
0.09999999999999432,5560,3,69,54
0.09999999999999432,5560,4,69,52
0.09999999999999432,5560,5,69,14
0.10000000000000853,5560,6,69,45
0.10000000000000853,5560,7,69,51
0.10000000000000853,5560,8,69,60
0.09999999999999432,5560,9,69,46
0.09999999999999432,5560,10,69,61
0.09999999999999432,5560,11,69,47
0.10000000000000853,5560,12,69,59
0.10000000000000853,5560,13,69,47
0.09999999999999432,5560,14,69,67
0.10000000000000853,5560,15,69,40
0.09999999999999432,5561,0,69,43
0.10000000000000853,5561,1,69,76
0.09999999999999432,5561,2,69,51
0.09999999999999432,5561,3,69,53
0.10000000000000853,5561,4,69,47
0.09999999999999432,5561,5,69,43
0.10000000000000853,5561,6,69,43
0.09999999999999432,5561,7,69,56
0.09999999999999432,5561,8,69,39
0.09999999999999432,5561,9,69,49
0.09999999999999432,5561,10,69,42
0.10000000000000853,5561,11,69,43
0.09999999999999432,5561,12,69,79
0.09999999999999432,5561,13,69,51
0.10000000000000853,5561,14,69,63
0.10000000000000853,5561,15,69,91
0.09999999999999432,5562,0,69,62
0.09999999999999432,5562,1,69,45
0.09999999999999432,5562,2,69,50
0.09999999999999432,5562,3,69,45
0.09999999999999432,5562,4,69,34
0.10000000000000853,5562,5,69,54
0.10000000000000853,5562,6,69,37
0.10000000000000853,5562,7,69,50
0.10000000000000853,5562,8,69,49
0.10000000000000853,5562,9,69,49
0.09999999999999432,5562,10,69,37
0.09999999999999432,5562,11,69,28
0.10000000000000853,5562,12,69,104
0.10000000000000853,5562,13,69,49
0.09999999999999432,5562,14,69,29
0.10000000000000853,5562,15,69,43
0.10000000000000853,5563,0,69,25
0.09999999999999432,5563,1,69,53
0.09999999999999432,5563,2,69,74
0.10000000000000853,5563,3,69,54
0.10000000000000853,5563,4,69,31
0.10000000000000853,5563,5,69,57
0.09999999999999432,5563,6,69,32
0.09999999999999432,5563,7,69,51
0.09999999999999432,5563,8,69,47
0.09999999999999432,5563,9,69,36
0.09999999999999432,5563,10,69,34
0.09999999999999432,5563,11,69,32
0.09999999999999432,5563,12,69,38
0.09999999999999432,5563,13,69,43
0.10000000000000853,5563,14,69,47
0.10000000000000853,5563,15,69,56
0.10000000000000853,5564,0,69,59
0.10000000000000853,5564,1,69,70
0.09999999999999432,5564,2,69,47
0.09999999999999432,5564,3,69,38
0.09999999999999432,5564,4,69,58
0.10000000000000853,5564,5,69,54
0.09999999999999432,5564,6,69,47
0.09999999999999432,5564,7,69,44
0.09999999999999432,5564,8,69,66
0.09999999999999432,5564,9,69,38
0.09999999999999432,5564,10,69,35
0.10000000000000853,5564,11,69,20
0.09999999999999432,5564,12,69,20
0.10000000000000853,5564,13,69,44
0.10000000000000853,5564,14,69,28
0.09999999999999432,5564,15,69,24
0.09999999999999432,5565,0,69,35
0.10000000000000853,5565,1,69,34
0.10000000000000853,5565,2,69,29
0.10000000000000853,5565,3,69,33
0.09999999999999432,5565,4,69,46
0.09999999999999432,5565,5,69,43
0.09999999999999432,5565,6,69,34
0.09999999999999432,5565,7,69,12
0.09999999999999432,5565,8,69,41
0.09999999999999432,5565,9,69,93
0.09999999999999432,5565,10,69,69
0.09999999999999432,5565,11,69,77
0.10000000000002274,5565,12,69,38
0.09999999999999432,5565,13,69,34
0.09999999999999432,5565,14,69,44
0.09999999999999432,5565,15,69,31
0.10000000000002274,5566,0,69,42
0.09999999999999432,5566,1,69,37
0.09999999999999432,5566,2,69,23
0.10000000000002274,5566,3,69,48
0.10000000000002274,5566,4,69,56
0.09999999999999432,5566,5,69,53
0.09999999999999432,5566,6,69,64
0.09999999999999432,5566,7,69,30
0.09999999999999432,5566,8,69,44
0.09999999999999432,5566,9,69,42
0.09999999999999432,5566,10,69,67
0.09999999999999432,5566,11,69,80
0.10000000000002274,5566,12,69,35
0.09999999999999432,5566,13,69,64
0.09999999999999432,5566,14,69,41
0.09999999999999432,5566,15,69,40
0.10000000000002274,5567,0,69,114
0.09999999999999432,5567,1,69,48
0.09999999999999432,5567,2,69,46
0.10000000000002274,5567,3,69,43
0.09999999999999432,5567,4,69,82
0.10000000000002274,5567,5,69,49
0.10000000000002274,5567,6,69,73
0.10000000000002274,5567,7,69,40
0.09999999999999432,5567,8,69,50
0.09999999999999432,5567,9,69,46
0.09999999999999432,5567,10,69,58
0.09999999999999432,5567,11,69,50
0.09999999999999432,5567,12,69,66
0.09999999999999432,5567,13,69,58
0.09999999999999432,5567,14,69,56
0.09999999999999432,5567,15,69,36
0.09999999999999432,5568,0,69,45
0.09999999999999432,5568,1,69,46
0.09999999999999432,5568,2,69,73
0.09999999999999432,5568,3,69,47
0.09999999999999432,5568,4,69,51
0.09999999999999432,5568,5,69,43
0.09999999999999432,5568,6,69,45
0.10000000000000142,5568,7,59,3
0.10000000000000142,5568,8,59,1
0.10000000000000142,5568,9,59,1
0.10000000000000142,5568,10,59,2
0.10000000000000853,5568,11,59,1
0.10000000000000853,5568,12,59,5
0.09999999999999432,5568,13,59,11
0.10000000000000853,5568,14,59,19
0.10000000000000853,5568,15,59,37
0.09999999999999432,5569,0,59,16
0.10000000000000853,5569,1,59,5
0.09999999999999432,5569,2,59,13
0.09999999999999432,5569,3,59,14
0.10000000000000853,5569,4,59,35
0.09999999999999432,5569,5,59,16
0.09999999999999432,5569,6,59,29
0.10000000000000853,5569,7,59,32
0.09999999999999432,5569,8,59,10
0.10000000000000853,5569,9,59,9
0.09999999999999432,5569,10,59,33
0.10000000000000853,5569,11,59,17
0.09999999999999432,5569,12,59,20
0.09999999999999432,5569,13,59,14
0.10000000000000853,5569,14,59,21
0.09999999999999432,5569,15,59,18
0.10000000000000853,5570,0,59,10
0.09999999999999432,5570,1,59,20
0.09999999999999432,5570,2,59,24
0.09999999999999432,5570,3,59,19
0.10000000000000853,5570,4,59,24
0.09999999999999432,5570,5,59,29
0.09999999999999432,5570,6,59,38
0.09999999999999432,5570,7,59,18
0.10000000000000853,5570,8,59,21
0.10000000000000853,5570,9,59,25
0.09999999999999432,5570,10,59,17
0.09999999999999432,5570,11,59,19
0.09999999999999432,5570,12,59,12
0.09999999999999432,5570,13,59,15
0.09999999999999432,5570,14,59,10
0.10000000000000853,5570,15,59,14
0.09999999999999432,5571,0,59,15
0.09999999999999432,5571,1,59,1
0.09999999999999432,5571,2,59,1
0.10000000000002274,5571,3,59,3
0.09999999999999432,5571,4,59,5
0.10000000000002274,5571,5,59,1
0.09999999999999432,5571,6,59,1
0.09999999999999432,5571,7,59,11
0.09999999999999432,5571,8,59,1
0.09999999999999432,5571,9,59,3
0.10000000000002274,5571,10,59,7
0.09999999999999432,5571,11,59,1
0.09999999999999432,5571,12,59,13
0.09999999999999432,5571,13,59,1
0.09999999999999432,5571,14,59,1
0.09999999999999432,5571,15,59,1
0.10000000000002274,5572,0,59,21
0.09999999999999432,5572,1,59,2
0.09999999999999432,5572,2,59,2
0.10000000000002274,5572,3,59,1
0.09999999999999432,5572,4,59,20
0.10000000000002274,5572,5,59,2
0.09999999999999432,5572,6,59,1
0.09999999999999432,5572,7,59,1
0.10000000000002274,5572,8,59,17
0.10000000000002274,5572,9,59,2
0.09999999999999432,5572,10,59,1
0.10000000000002274,5572,11,59,2
0.09999999999999432,5572,12,59,21
0.09999999999999432,5572,13,59,2
0.09999999999999432,5572,14,59,1
0.09999999999999432,5572,15,59,2
0.09999999999999432,5573,0,59,19
0.09999999999999432,5573,1,59,2
0.09999999999999432,5573,2,59,1
0.09999999999999432,5573,3,59,2
0.09999999999999432,5573,4,59,18
0.09999999999999432,5573,5,59,2
0.10000000000002274,5573,6,59,1
0.09999999999999432,5573,7,59,1
0.09999999999999432,5573,8,59,20
0.09999999999999432,5573,9,59,2
0.09999999999999432,5573,10,59,1
0.09999999999999432,5573,11,59,1
0.09999999999999432,5573,12,59,19
0.09999999999999432,5573,13,59,2
0.10000000000002274,5573,14,59,1
0.09999999999999432,5573,15,59,1
0.09999999999999432,5574,0,59,22
0.09999999999999432,5574,1,59,2
0.09999999999999432,5574,2,59,1
0.09999999999999432,5574,3,59,1
0.09999999999999432,5574,4,59,18
0.09999999999999432,5574,5,59,2
0.09999999999999432,5574,6,59,1
0.09999999999999432,5574,7,59,2
0.09999999999999432,5574,8,59,20
0.09999999999999432,5574,9,59,2
0.09999999999999432,5574,10,59,1
0.09999999999999432,5574,11,59,1
0.10000000000002274,5574,12,59,19
0.10000000000002274,5574,13,59,2
0.09999999999999432,5574,14,59,1
0.10000000000002274,5574,15,59,1
0.09999999999999432,5575,0,59,22
0.10000000000002274,5575,1,59,2
0.09999999999999432,5575,2,59,1
0.09999999999999432,5575,3,59,1
0.10000000000002274,5575,4,59,22
0.09999999999999432,5575,5,59,2
0.09999999999999432,5575,6,59,1
0.10000000000002274,5575,7,59,1
0.09999999999999432,5575,8,59,18
0.09999999999999987,5575,9,61,4
0.10000000000000009,5575,10,61,23
0.10000000000000009,5575,11,61,26
0.10000000000000009,5575,12,61,15
0.09999999999999964,5575,13,61,16
0.10000000000000009,5575,14,61,17
0.10000000000000009,5575,15,61,21
0.09999999999999964,5576,0,61,20
0.09999999999999964,5576,1,61,19
0.10000000000000053,5576,2,61,15
0.09999999999999964,5576,3,61,14
0.09999999999999964,5576,4,61,21
0.10000000000000053,5576,5,61,17
0.09999999999999964,5576,6,61,15
0.09999999999999964,5576,7,61,15
0.10000000000000142,5576,8,61,9
0.10000000000000142,5576,9,61,17
0.09999999999999787,5576,10,61,26
0.10000000000000142,5576,11,61,31
0.10000000000000142,5576,12,61,23
0.09999999999999432,5576,13,61,15
0.09999999999999432,5576,14,61,21
0.09999999999999432,5576,15,61,22
0.10000000000000142,5577,0,61,22
0.10000000000000142,5577,1,61,25
0.10000000000000142,5577,2,61,24
0.10000000000000142,5577,3,61,21
0.10000000000000142,5577,4,61,27
0.10000000000000142,5577,5,61,18
0.10000000000000142,5577,6,61,17
0.10000000000000142,5577,7,61,11
0.10000000000000142,5577,8,61,15
0.10000000000000142,5577,9,61,15
0.10000000000000142,5577,10,61,19
0.09999999999999432,5577,11,61,20
0.10000000000000142,5577,12,61,22
0.10000000000000142,5577,13,61,19
0.10000000000000142,5577,14,61,33
0.10000000000000142,5577,15,61,8
0.10000000000000142,5578,0,61,12
0.09999999999999432,5578,1,61,11
0.10000000000000142,5578,2,61,17
0.10000000000000142,5578,3,61,16
0.09999999999999432,5578,4,61,10
0.10000000000000142,5578,5,61,24
0.10000000000000142,5578,6,61,26
0.10000000000000142,5578,7,61,11
0.10000000000000142,5578,8,61,9
0.10000000000000142,5578,9,61,24
0.10000000000000142,5578,10,61,3
0.10000000000000142,5578,11,61,15
0.10000000000000142,5578,12,61,4
0.10000000000000142,5578,13,61,4
0.09999999999999432,5578,14,61,22
0.10000000000000142,5578,15,61,4
0.10000000000000853,5579,0,61,26
0.09999999999999432,5579,1,61,4
0.09999999999999432,5579,2,61,3
0.09999999999999432,5579,3,61,3
0.10000000000000853,5579,4,61,6
0.10000000000000853,5579,5,61,2
0.09999999999999432,5579,6,61,18
0.09999999999999432,5579,7,61,4
0.09999999999999432,5579,8,61,19
0.09999999999999432,5579,9,61,5
0.09999999999999432,5579,10,61,14
0.09999999999999432,5579,11,61,6
0.09999999999999432,5579,12,61,23
0.10000000000000853,5579,13,61,3
0.10000000000000853,5579,14,61,21
0.09999999999999432,5579,15,61,3
0.09999999999999432,5580,0,61,20
0.10000000000000853,5580,1,61,7
0.10000000000000853,5580,2,61,5
0.09999999999999432,5580,3,61,8
0.09999999999999432,5580,4,61,9
0.10000000000000853,5580,5,61,20
0.09999999999999432,5580,6,61,24
0.10000000000000853,5580,7,61,21
0.09999999999999432,5580,8,61,21
0.10000000000000853,5580,9,61,7
0.09999999999999432,5580,10,61,21
0.09999999999999432,5580,11,61,8
0.10000000000000853,5580,12,61,6
0.10000000000000853,5580,13,61,15
0.09999999999999432,5580,14,61,20
0.09999999999999432,5580,15,61,23
0.09999999999999432,5581,0,61,26
0.10000000000000853,5581,1,61,13
0.09999999999999432,5581,2,61,14
0.10000000000000853,5581,3,61,23
0.10000000000000853,5581,4,61,34
0.09999999999999432,5581,5,61,11
0.09999999999999432,5581,6,61,24
0.10000000000000853,5581,7,61,27
0.09999999999999432,5581,8,61,21
0.09999999999999432,5581,9,61,19
0.09999999999999432,5581,10,61,14
0.10000000000000853,5581,11,61,21
0.09999999999999432,5581,12,61,14
0.10000000000000853,5581,13,61,18
0.10000000000000853,5581,14,61,26
0.10000000000000853,5581,15,61,19
0.09999999999999432,5582,0,61,23
0.09999999999999432,5582,1,61,19
0.09999999999999432,5582,2,61,16
0.10000000000000853,5582,3,61,20
0.09999999999999432,5582,4,61,11
0.10000000000000853,5582,5,61,17
0.09999999999999432,5582,6,61,20
0.09999999999999432,5582,7,61,20
0.09999999999999432,5582,8,61,17
0.09999999999999432,5582,9,61,25
0.09999999999999432,5582,10,61,16
0.10000000000000853,5582,11,61,20
0.09999999999999432,5582,12,61,13
0.09999999999999432,5582,13,61,23
0.09999999999999432,5582,14,61,20
0.10000000000000853,5582,15,61,11
0.09999999999999432,5583,0,61,6
0.10000000000000853,5583,1,61,17
0.10000000000000853,5583,2,61,18
0.09999999999999432,5583,3,61,7
0.09999999999999432,5583,4,61,6
0.09999999999999432,5583,5,61,16
0.09999999999999432,5583,6,61,14
0.10000000000002274,5583,7,61,18
0.09999999999999432,5583,8,61,12
0.09999999999999432,5583,9,61,12
0.09999999999999432,5583,10,61,14
0.09999999999999432,5583,11,61,9
0.10000000000002274,5583,12,61,8
0.10000000000002274,5583,13,61,9
0.10000000000002274,5583,14,61,7
0.09999999999999432,5583,15,61,9
0.09999999999999432,5584,0,61,12
0.09999999999999432,5584,1,61,10
0.09999999999999432,5584,2,61,7
0.09999999999999432,5584,3,61,12
0.09999999999999432,5584,4,61,13
0.09999999999999432,5584,5,61,18
0.09999999999999432,5584,6,61,8
0.09999999999999432,5584,7,61,5
0.10000000000002274,5584,8,61,4
0.09999999999999432,5584,9,61,6
0.09999999999999432,5584,10,61,4
0.10000000000002274,5584,11,61,12
0.09999999999999432,5584,12,61,7
0.10000000000000142,5584,13,68,75
0.10000000000000142,5584,14,68,123
0.10000000000000142,5584,15,68,127
0.09999999999999787,5585,0,68,125
0.10000000000000142,5585,1,68,85
0.10000000000000142,5585,2,68,127
0.09999999999999787,5585,3,68,43
0.09999999999999787,5585,4,68,127
0.10000000000000142,5585,5,68,50
0.09999999999999787,5585,6,68,15
0.09999999999999787,5585,7,68,109
0.10000000000000142,5585,8,68,48
0.09999999999999787,5585,9,68,55
0.10000000000000142,5585,10,68,104
0.04772727272727195,5585,11,68,127
0.10000000000000142,5585,12,68,127
0.10000000000000142,5585,13,68,100
0.10000000000000142,5585,14,68,117
0.09999999999999787,5585,15,68,95
0.10000000000000142,5586,0,68,127
0.10000000000000142,5586,1,68,81
0.09999999999999787,5586,2,68,36
0.10000000000000142,5586,3,68,95
0.10000000000000142,5586,4,68,37
0.09999999999999787,5586,5,68,122
0.09999999999999787,5586,6,68,29
0.09999999999999787,5586,7,68,44
0.10000000000000142,5586,8,68,24
0.09999999999999787,5586,9,68,70
0.10000000000000142,5586,10,68,127
0.10000000000000142,5586,11,68,53
0.10000000000000142,5586,12,68,83
0.09999999999999787,5586,13,68,120
0.09999999999999787,5586,14,68,71
0.10000000000000142,5586,15,68,107
0.09999999999999787,5587,0,68,127
0.09999999999999787,5587,1,68,57
0.09999999999999787,5587,2,68,115
0.10000000000000142,5587,3,68,79
0.09999999999999787,5587,4,68,112
0.10000000000000142,5587,5,68,36
0.10000000000000142,5587,6,68,126
0.10000000000000142,5587,7,68,39
0.10000000000000142,5587,8,68,68
0.09999999999999432,5587,9,68,67
0.10000000000000142,5587,10,68,17
0.10000000000000142,5587,11,68,9
0.10000000000000142,5587,12,68,27
0.10000000000000142,5587,13,68,66
0.10000000000000142,5587,14,68,55
0.10000000000000142,5587,15,68,39
0.10000000000000142,5588,0,68,115
0.10000000000000142,5588,1,68,111
0.10000000000000142,5588,2,68,29
0.10000000000000142,5588,3,68,4
0.04772727272727195,5588,4,68,2
0.10000000000000142,5588,5,68,109
0.10000000000000142,5588,6,68,127
0.09999999999999432,5588,7,68,127
0.10000000000000142,5588,8,68,68
0.10000000000000142,5588,9,68,103
0.013636363636365445,5588,10,68,127
0.10000000000000142,5588,11,68,127
0.10000000000000142,5588,12,68,127
0.10000000000000142,5588,13,68,123
0.10000000000000142,5588,14,68,127
0.10000000000000142,5588,15,68,127
0.10000000000000142,5589,0,68,127
0.10000000000000142,5589,1,68,38
0.10000000000000142,5589,2,68,127
0.10000000000000142,5589,3,68,99
0.10000000000000142,5589,4,68,127
0.10000000000000142,5589,5,68,41
0.10000000000000142,5589,6,68,54
0.10000000000000142,5589,7,68,127
0.10000000000000142,5589,8,68,127
0.10000000000000142,5589,9,68,80
0.10000000000000142,5589,10,68,49
0.09999999999999432,5589,11,68,118
0.10000000000000142,5589,12,68,112
0.10000000000000142,5589,13,68,20
0.05681818181817988,5589,14,68,59
0.10000000000000142,5589,15,68,127
0.09999999999999432,5590,0,68,127
0.10000000000000142,5590,1,68,54
0.10000000000000142,5590,2,68,127
0.10000000000000142,5590,3,68,127
0.09999999999999432,5590,4,68,127
0.10000000000000142,5590,5,68,127
0.10000000000000142,5590,6,68,105
0.10000000000000142,5590,7,68,127
0.10000000000000142,5590,8,68,127
0.004545454545457517,5590,9,68,95
0.10000000000000142,5590,10,68,127
0.10000000000000142,5590,11,68,123
0.10000000000000142,5590,12,68,44
0.10000000000000142,5590,13,68,59
0.045454545454546746,5590,14,68,48
0.10000000000000142,5590,15,68,14
0.10000000000000142,5591,0,68,56
0.015909090909097756,5591,1,68,127
0.10000000000000142,5591,2,68,127
0.10000000000000142,5591,3,68,43
0.10000000000000142,5591,4,68,127
0.09999999999999432,5591,5,68,127
0.10000000000000142,5591,6,68,91
0.10000000000000142,5591,7,68,83
0.09999999999999432,5591,8,68,119
0.10000000000000142,5591,9,68,127
0.10000000000000142,5591,10,68,127
0.10000000000000142,5591,11,68,60
0.10000000000000142,5591,12,68,39
0.10000000000000142,5591,13,68,28
0.10000000000000142,5591,14,68,42
0.10000000000000142,5591,15,68,103
0.10000000000000142,5592,0,68,75
0.05681818181817988,5592,1,68,119
0.10000000000000142,5592,2,68,127
0.09999999999999432,5592,3,68,76
0.10000000000000142,5592,4,68,80
0.10000000000000142,5592,5,68,96
0.10000000000000142,5592,6,68,87
0.10000000000000142,5592,7,68,68
0.10000000000000142,5592,8,68,125
0.10000000000000142,5592,9,68,116
0.10000000000000142,5592,10,68,42
0.10000000000000142,5592,11,68,19
0.09999999999999432,5592,12,68,38
0.10000000000000142,5592,13,68,45
0.10000000000000853,5592,14,68,43
0.10000000000000853,5592,15,68,38
0.056818181818186986,5593,0,68,94
0.09999999999999432,5593,1,68,116
0.10000000000000853,5593,2,68,7
0.09999999999999432,5593,3,68,79
0.10000000000000853,5593,4,68,110
0.10000000000000853,5593,5,68,127
0.09999999999999432,5593,6,68,127
0.09999999999999432,5593,7,68,61
0.09999999999999432,5593,8,68,32
0.09999999999999432,5593,9,68,28
0.09999999999999432,5593,10,68,117
0.10000000000000853,5593,11,68,33
0.09999999999999432,5593,12,68,127
0.09999999999999432,5593,13,68,46
0.09999999999999432,5593,14,68,127
0.056818181818186986,5593,15,68,127
0.10000000000000853,5594,0,68,127
0.10000000000000853,5594,1,68,127
0.09999999999999432,5594,2,68,40
0.09999999999999432,5594,3,68,86
0.09999999999999432,5594,4,68,77
0.09999999999999432,5594,5,68,127
0.024999999999991473,5594,6,68,127
0.10000000000000853,5594,7,68,77
0.10000000000000853,5594,8,68,127
0.10000000000000853,5594,9,68,127
0.09999999999999432,5594,10,68,127
0.10000000000000853,5594,11,68,123
0.10000000000000853,5594,12,68,114
0.09999999999999432,5594,13,68,34
0.09999999999999432,5594,14,68,103
0.09999999999999432,5594,15,68,10
0.10000000000000853,5595,0,68,69
0.06818181818182723,5595,1,68,127
0.09999999999999432,5595,2,68,127
0.09999999999999432,5595,3,68,94
0.10000000000000853,5595,4,68,127
0.10000000000000853,5595,5,68,127
0.09999999999999432,5595,6,68,111
0.09999999999999432,5595,7,68,127
0.09999999999999432,5595,8,68,127
0.10000000000000853,5595,9,68,36
0.09999999999999432,5595,10,68,104
0.09999999999999432,5595,11,68,127
0.10000000000000853,5595,12,68,27
0.10000000000000853,5595,13,68,8
0.10000000000000853,5595,14,68,127
0.09999999999999432,5595,15,68,127
0.10000000000000853,5596,0,68,62
0.09999999999999432,5596,1,68,127
0.09999999999999432,5596,2,68,127
0.09999999999999432,5596,3,68,127
0.09999999999999432,5596,4,68,105
0.09999999999999432,5596,5,68,127
0.09999999999999432,5596,6,68,108
0.09999999999999432,5596,7,68,127
0.10000000000000853,5596,8,68,10
0.10000000000000853,5596,9,68,127
0.10000000000000853,5596,10,68,100
0.10000000000000853,5596,11,68,116
0.10000000000000853,5596,12,68,127
0.01590909090909065,5596,13,68,74
0.09999999999999432,5596,14,68,8
0.10000000000000853,5596,15,68,41
0.10000000000000853,5597,0,68,127
0.09999999999999432,5597,1,68,102
0.09999999999999432,5597,2,68,26
0.10000000000000853,5597,3,68,94
0.09999999999999432,5597,4,68,43
0.09999999999999432,5597,5,68,127
0.09999999999999432,5597,6,68,127
0.09999999999999432,5597,7,68,127
0.09999999999999432,5597,8,68,68
0.09999999999999432,5597,9,68,61
0.09999999999999432,5597,10,68,103
0.10000000000000853,5597,11,68,110
0.09999999999999432,5597,12,68,110
0.10000000000000853,5597,13,68,110
0.09999999999999432,5597,14,68,33
0.09999999999999432,5597,15,68,127
0.10000000000000853,5598,0,68,127
0.10000000000000853,5598,1,68,127
0.10000000000000853,5598,2,68,12
0.09999999999999432,5598,3,68,39
0.03636363636363171,5598,4,68,127
0.10000000000000853,5598,5,68,95
0.09999999999999432,5598,6,68,98
0.09999999999999432,5598,7,68,127
0.10000000000000853,5598,8,68,96
0.06818181818182723,5598,9,68,118
0.09999999999999432,5598,10,68,127
0.10000000000000853,5598,11,68,86
0.09999999999999432,5598,12,68,76
0.09999999999999432,5598,13,68,127
0.10000000000000853,5598,14,68,127
0.09999999999999432,5598,15,68,127
0.09999999999999432,5599,0,68,107
0.10000000000000853,5599,1,68,127
0.09999999999999432,5599,2,68,89
0.024999999999991473,5599,3,68,117
0.09999999999999432,5599,4,68,93
0.09999999999999432,5599,5,68,127
0.09999999999999432,5599,6,68,41
0.10000000000000853,5599,7,68,127
0.09999999999999432,5599,8,68,98
0.09999999999999432,5599,9,68,127
0.09999999999999432,5599,10,68,127
0.10000000000000853,5599,11,68,127
0.09999999999999432,5599,12,68,127
0.013636363636365445,5599,13,68,91
0.10000000000000853,5599,14,68,127
0.09999999999999432,5599,15,68,115
0.10000000000000853,5600,0,68,89
0.09999999999999432,5600,1,68,127
0.09999999999999432,5600,2,68,127
0.09999999999999432,5600,3,68,27
0.09999999999999432,5600,4,68,16
0.10000000000000853,5600,5,68,48
0.10000000000000853,5600,6,68,91
0.10000000000000853,5600,7,68,89
0.10000000000000853,5600,8,68,127
0.09999999999999432,5600,9,68,127
0.10000000000000853,5600,10,68,127
0.09999999999999432,5600,11,68,108
0.09999999999999432,5600,12,68,127
0.10000000000000853,5600,13,68,127
0.09999999999999432,5600,14,68,93
0.09999999999999432,5600,15,68,92
0.045454545454546746,5601,0,68,75
0.10000000000000853,5601,1,68,127
0.10000000000000853,5601,2,68,127
0.10000000000000853,5601,3,68,127
0.09999999999999432,5601,4,68,124
0.09999999999999432,5601,5,68,15
0.10000000000000853,5601,6,68,20
0.10000000000000853,5601,7,68,99
0.09999999999999432,5601,8,68,114
0.09999999999999432,5601,9,68,127
0.09999999999999432,5601,10,68,70
0.004545454545450411,5601,11,68,31
0.09999999999999432,5601,12,68,2
0.10000000000000853,5601,13,68,118
0.10000000000000853,5601,14,68,127
0.09999999999999432,5601,15,68,127
0.10000000000000853,5602,0,68,17
0.10000000000000853,5602,1,68,99
0.09999999999999432,5602,2,68,50
0.10000000000000853,5602,3,68,127
0.09999999999999432,5602,4,68,110
0.09999999999999432,5602,5,68,18
0.10000000000000853,5602,6,68,96
0.09999999999999432,5602,7,68,123
0.09999999999999432,5602,8,68,35
0.10000000000000853,5602,9,68,15
0.02727272727273089,5602,10,68,110
0.10000000000000853,5602,11,68,127
0.09999999999999432,5602,12,68,127
0.10000000000000853,5602,13,68,92
0.09999999999999432,5602,14,68,114
0.09999999999999432,5602,15,68,53
0.04772727272727195,5603,0,68,111
0.09999999999999432,5603,1,68,20
0.013636363636365445,5603,2,68,95
0.10000000000000853,5603,3,68,127
0.09999999999999432,5603,4,68,1
0.10000000000000853,5603,5,68,13
0.036363636363645924,5603,6,68,79
0.09999999999999432,5603,7,68,118
0.004545454545450411,5603,8,68,54
0.09999999999999432,5603,9,68,57
0.10000000000000853,5603,10,68,85
0.10000000000000853,5603,11,68,109
0.09999999999999432,5603,12,68,127
0.10000000000000853,5603,13,68,127
0.09999999999999432,5603,14,68,39
0.06818181818181301,5603,15,68,49
0.02727272727273089,5604,0,68,104
0.09999999999999432,5604,1,68,127
0.09999999999999432,5604,2,68,8
0.10000000000000853,5604,3,68,47
0.04772727272727195,5604,4,68,92
0.10000000000000853,5604,5,68,33
0.10000000000000853,5604,6,68,108
0.09999999999999432,5604,7,68,127
0.09999999999999432,5604,8,68,127
0.10000000000000853,5604,9,68,126
0.10000000000000853,5604,10,68,87
0.09999999999999432,5604,11,68,88
0.09999999999999432,5604,12,68,101
0.09999999999999432,5604,13,68,103
0.09999999999999432,5604,14,68,127
0.09999999999999432,5604,15,68,127
0.09999999999999432,5605,0,68,51
0.09999999999999432,5605,1,68,123
0.09999999999999432,5605,2,68,110
0.09999999999999432,5605,3,68,127
0.10000000000002274,5605,4,68,127
0.056818181818186986,5605,5,68,127
0.025000000000005684,5605,6,68,108
0.09999999999999432,5605,7,68,90
0.09999999999999432,5605,8,68,121
0.09999999999999432,5605,9,68,52
0.004545454545450411,5605,10,68,127
0.10000000000002274,5605,11,68,127
0.09999999999999432,5605,12,68,127
0.09999999999999432,5605,13,68,127
0.09999999999999432,5605,14,68,98
0.09999999999999432,5605,15,68,127
0.09999999999999432,5606,0,68,127
0.10000000000002274,5606,1,68,32
0.09999999999999432,5606,2,68,115
0.045454545454532536,5606,3,68,109
0.09999999999999432,5606,4,68,99
0.09999999999999432,5606,5,68,102
0.09999999999999432,5606,6,68,108
0.09999999999999432,5606,7,68,127
0.09999999999999432,5606,8,68,127
0.10000000000002274,5606,9,68,36
0.09999999999999432,5606,10,68,127
0.09999999999999432,5606,11,68,127
0.09999999999999432,5606,12,68,127
0.09999999999999432,5606,13,68,95
0.09999999999999432,5606,14,68,50
0.056818181818186986,5606,15,68,122
0.09999999999999432,5607,0,68,127
0.09999999999999432,5607,1,68,49
0.09999999999999432,5607,2,68,127
0.056818181818186986,5607,3,68,127
0.09999999999999432,5607,4,68,127
0.09999999999999432,5607,5,68,63
0.09999999999999432,5607,6,68,71
0.09999999999999432,5607,7,68,26
0.056818181818186986,5607,8,68,82
0.10000000000002274,5607,9,68,78
0.09999999999999432,5607,10,68,12
0.09999999999999432,5607,11,68,46
0.09999999999999432,5607,12,68,127
0.09999999999999432,5607,13,68,111
0.10000000000002274,5607,14,68,41
0.09999999999999432,5607,15,68,93
0.09999999999999432,5608,0,68,52
0.09999999999999432,5608,1,68,117
0.09999999999999432,5608,2,68,127
0.09999999999999432,5608,3,68,127
0.09999999999999432,5608,4,68,127
0.09999999999999432,5608,5,68,118
0.09999999999999432,5608,6,68,65
0.10000000000002274,5608,7,68,127
0.10000000000002274,5608,8,68,127
0.09999999999999432,5608,9,68,31
0.09999999999999432,5608,10,68,127
0.09999999999999432,5608,11,68,68
0.10000000000002274,5608,12,68,38
0.09999999999999432,5608,13,68,127
0.09999999999999432,5608,14,68,127
0.10000000000002274,5608,15,68,95
0.09999999999999432,5609,0,68,105
0.10000000000002274,5609,1,68,111
0.09999999999999432,5609,2,68,127
0.10000000000002274,5609,3,68,30
0.09999999999999432,5609,4,68,110
0.09999999999999432,5609,5,68,43
0.10000000000002274,5609,6,68,119
0.09999999999999432,5609,7,68,115
0.09999999999999432,5609,8,68,31
0.09999999999999432,5609,9,68,1
0.09999999999999432,5609,10,68,99
0.09999999999999432,5609,11,68,120
0.09999999999999432,5609,12,68,83
0.025000000000005684,5609,13,68,127
0.10000000000002274,5609,14,68,22
0.09999999999999432,5609,15,68,125
0.09999999999999432,5610,0,68,116
0.09999999999999432,5610,1,68,96
0.09999999999999432,5610,2,68,49
0.10000000000002274,5610,3,68,82
0.09999999999999432,5610,4,68,79
0.10000000000002274,5610,5,68,127
0.09999999999999432,5610,6,68,127
0.09999999999999432,5610,7,68,54
0.10000000000002274,5610,8,68,127
0.09999999999999432,5610,9,68,88
0.10000000000002274,5610,10,68,12
0.10000000000002274,5610,11,68,72
0.10000000000002274,5610,12,68,105
0.09999999999999432,5610,13,68,45
0.09999999999999432,5610,14,68,88
0.09999999999999432,5610,15,68,101
0.09999999999999787,5611,0,64,15
0.10000000000000142,5611,1,64,41
0.10000000000000142,5611,2,64,46
0.09999999999999787,5611,3,64,21
0.10000000000000142,5611,4,64,29
0.10000000000000142,5611,5,64,29
0.09999999999999787,5611,6,64,25
0.10000000000000142,5611,7,64,19
0.10000000000000142,5611,8,64,2
0.045454545454546746,5611,9,64,10
0.10000000000000142,5611,10,64,6
0.10000000000000142,5611,11,64,9
0.09999999999999432,5611,12,64,16
0.10000000000000142,5611,13,64,9
0.10000000000000142,5611,14,64,9
0.09999999999999432,5611,15,64,4
0.05681818181817988,5612,0,64,5
0.10000000000000142,5612,1,64,2
0.10000000000000142,5612,2,64,3
0.09999999999999432,5612,3,64,11
0.06818181818181301,5612,4,64,13
0.10000000000000142,5612,5,64,9
0.10000000000000142,5612,6,64,3
0.10000000000000142,5612,7,64,4
0.09999999999999432,5612,8,64,3
0.10000000000000142,5612,9,64,2
0.10000000000000142,5612,10,64,5
0.09999999999999432,5612,11,64,1
0.10000000000000142,5612,12,64,1
0.09999999999999432,5612,13,64,19
0.10000000000000142,5612,14,64,8
0.09999999999999432,5612,15,64,23
0.10000000000000142,5613,0,64,28
0.10000000000000142,5613,1,64,19
0.09999999999999432,5613,2,64,9
0.10000000000000142,5613,3,64,16
0.10000000000000142,5613,4,64,27
0.09999999999999432,5613,5,64,7
0.10000000000000142,5613,6,64,29
0.10000000000000142,5613,7,64,31
0.10000000000000142,5613,8,64,31
0.10000000000000142,5613,9,64,12
0.10000000000000142,5613,10,64,13
0.10000000000000142,5613,11,64,17
0.10000000000000142,5613,12,64,12
0.09999999999999432,5613,13,64,10
0.10000000000000142,5613,14,64,7
0.10000000000000142,5613,15,64,12
0.10000000000000142,5614,0,64,21
0.10000000000000142,5614,1,64,14
0.10000000000000142,5614,2,64,27
0.10000000000000142,5614,3,64,23
0.10000000000000142,5614,4,64,1
0.10000000000000142,5614,5,64,14
0.10000000000000142,5614,6,64,32
0.10000000000000142,5614,7,64,28
0.10000000000000142,5614,8,64,6
0.09999999999999432,5614,9,64,2
0.09999999999999432,5614,10,64,5
0.06818181818181301,5614,11,64,18
0.10000000000000142,5614,12,64,9
0.06818181818182012,5614,13,64,26
0.02727272727273089,5614,14,64,40
0.10000000000000142,5614,15,64,16
0.10000000000000142,5615,0,64,25
0.10000000000000853,5615,1,64,7
0.09999999999999432,5615,2,64,3
0.10000000000000853,5615,3,64,5
0.09999999999999432,5615,4,64,7
0.09999999999999432,5615,5,64,2
0.10000000000000853,5615,6,64,3
0.10000000000000853,5615,7,64,11
0.004545454545450411,5615,8,64,8
0.10000000000000853,5615,9,64,1
0.10000000000000853,5615,10,64,7
0.09999999999999432,5615,11,64,12
0.09999999999999432,5615,12,64,4
0.10000000000000853,5615,13,64,3
0.09999999999999432,5615,14,64,1
0.09999999999999432,5615,15,64,2
0.09999999999999432,5616,0,64,2
0.10000000000000853,5616,1,64,3
0.10000000000000853,5616,2,64,1
0.10000000000000853,5616,3,64,1
0.10000000000000853,5616,4,64,6
0.10000000000000853,5616,5,64,11
0.10000000000000853,5616,6,64,4
0.09999999999999432,5616,7,64,16
0.09999999999999432,5616,8,64,6
0.09999999999999432,5616,9,64,1
0.09999999999999432,5616,10,64,18
0.09999999999999432,5616,11,64,10
0.09999999999999432,5616,12,64,1
0.09999999999999432,5616,13,64,1
0.09999999999999432,5616,14,64,1
0.10000000000000853,5616,15,64,3
0.10000000000000853,5617,0,64,1
0.09999999999999432,5617,1,64,1
0.09999999999999432,5617,2,64,1
0.09999999999999432,5617,3,64,1
0.09999999999999432,5617,4,64,1
0.09999999999999432,5617,5,64,1
0.09999999999999432,5617,6,64,6
0.06818181818181301,5617,7,64,17
0.09999999999999432,5617,8,64,36
0.09999999999999432,5617,9,64,24
0.10000000000000853,5617,10,64,26
0.10000000000000853,5617,11,64,13
0.09999999999999432,5617,12,64,12
0.10000000000000853,5617,13,64,18
0.10000000000000853,5617,14,64,10
0.10000000000000853,5617,15,64,12
0.09999999999999432,5618,0,64,33
0.10000000000000853,5618,1,64,11
0.10000000000000853,5618,2,64,11
0.10000000000000853,5618,3,64,10
0.10000000000000853,5618,4,64,6
0.10000000000000853,5618,5,64,33
0.10000000000000853,5618,6,64,47
0.09999999999999432,5618,7,64,31
0.10000000000000853,5618,8,64,18
0.09999999999999432,5618,9,64,37
0.10000000000000853,5618,10,64,12
0.09999999999999432,5618,11,64,27
0.09999999999999432,5618,12,64,30
0.10000000000000853,5618,13,64,41
0.09999999999999432,5618,14,64,16
0.06818181818181301,5618,15,64,23
0.10000000000000853,5619,0,64,26
0.09999999999999432,5619,1,64,26
0.09999999999999432,5619,2,64,30
0.10000000000000853,5619,3,64,30
0.09999999999999432,5619,4,64,23
0.09999999999999432,5619,5,64,31
0.10000000000000853,5619,6,64,23
0.10000000000000853,5619,7,64,17
0.10000000000000853,5619,8,64,17
0.09999999999999432,5619,9,64,16
0.09999999999999432,5619,10,64,18
0.09999999999999432,5619,11,64,13
0.09999999999999432,5619,12,64,11
0.09999999999999432,5619,13,64,16
0.10000000000000853,5619,14,64,11
0.10000000000000853,5619,15,64,10
0.10000000000000853,5620,0,64,19
0.09999999999999432,5620,1,64,20
0.09999999999999432,5620,2,64,6
0.09999999999999432,5620,3,64,1
0.0022727272727252057,5620,4,64,4
0.03636363636363171,5620,5,64,8
0.10000000000000853,5620,6,64,13
0.09999999999999432,5620,7,64,6
0.10000000000000853,5620,8,64,1
0.10000000000000853,5620,9,64,6
0.09999999999999432,5620,10,64,14
0.09999999999999432,5620,11,64,21
0.09999999999999432,5620,12,64,17
0.10000000000000853,5620,13,64,17
0.09999999999999432,5620,14,64,9
0.10000000000000853,5620,15,64,4
0.09999999999999432,5621,0,64,13
0.10000000000000853,5621,1,64,15
0.10000000000000853,5621,2,64,21
0.10000000000000853,5621,3,64,23
0.10000000000000853,5621,4,64,13
0.10000000000000853,5621,5,64,8
0.09999999999999432,5621,6,64,15
0.09999999999999432,5621,7,64,8
0.09999999999999432,5621,8,64,24
0.09999999999999432,5621,9,64,10
0.09999999999999432,5621,10,64,34
0.10000000000002274,5621,11,64,14
0.09999999999999432,5621,12,64,13
0.09999999999999432,5621,13,64,27
0.09999999999999432,5621,14,64,13
0.09999999999999432,5621,15,64,20
0.09999999999999432,5622,0,64,12
0.09999999999999432,5622,1,64,2
0.09999999999999432,5622,2,64,15
0.09999999999999432,5622,3,64,24
0.09999999999999432,5622,4,64,9
0.09999999999999432,5622,5,64,6
0.09999999999999432,5622,6,64,7
0.09999999999999432,5622,7,64,17
0.09999999999999432,5622,8,64,7
0.09999999999999787,5622,9,56,51
0.09999999999999787,5622,10,56,81
0.09999999999999787,5622,11,56,42
0.10000000000000142,5622,12,56,40
0.10000000000000142,5622,13,56,38
0.09999999999999432,5622,14,56,57
0.09999999999999432,5622,15,56,77
0.09999999999999432,5623,0,56,56
0.10000000000000142,5623,1,56,56
0.10000000000000142,5623,2,56,17
0.10000000000000142,5623,3,56,33
0.04772727272727195,5623,4,56,52
0.10000000000000142,5623,5,56,57
0.09999999999999432,5623,6,56,70
0.10000000000000142,5623,7,56,71
0.10000000000000142,5623,8,56,91
0.10000000000000142,5623,9,56,66
0.10000000000000142,5623,10,56,61
0.10000000000000142,5623,11,56,109
0.10000000000000142,5623,12,56,127
0.09999999999999432,5623,13,56,79
0.09999999999999432,5623,14,56,113
0.10000000000000142,5623,15,56,64
0.09999999999999432,5624,0,56,117
0.10000000000000142,5624,1,56,127
0.10000000000000142,5624,2,56,127
0.09999999999999432,5624,3,56,124
0.10000000000000853,5624,4,56,127
0.10000000000000853,5624,5,56,115
0.10000000000000853,5624,6,56,121
0.09999999999999432,5624,7,56,86
0.09999999999999432,5624,8,56,43
0.10000000000000853,5624,9,56,127
0.09999999999999432,5624,10,56,127
0.09999999999999432,5624,11,56,127
0.09999999999999432,5624,12,56,109
0.10000000000000853,5624,13,56,127
0.09999999999999432,5624,14,56,127
0.10000000000000853,5624,15,56,127
0.09999999999999432,5625,0,56,80
0.10000000000000853,5625,1,56,108
0.10000000000000853,5625,2,56,127
0.09999999999999432,5625,3,56,127
0.04772727272727195,5625,4,56,127
0.09999999999999432,5625,5,56,127
0.10000000000000853,5625,6,56,127
0.10000000000000853,5625,7,56,102
0.09999999999999432,5625,8,56,70
0.09999999999999432,5625,9,56,64
0.10000000000000853,5625,10,56,43
0.09999999999999432,5625,11,56,52
0.09999999999999432,5625,12,56,106
0.10000000000000853,5625,13,56,127
0.09999999999999432,5625,14,56,69
0.09999999999999432,5625,15,56,73
0.03636363636363171,5626,0,56,87
0.04772727272727195,5626,1,56,102
0.013636363636365445,5626,2,56,104
0.09999999999999432,5626,3,56,112
0.06818181818181301,5626,4,56,110
0.013636363636351234,5626,5,56,110
0.01590909090909065,5626,6,56,110
0.09999999999999432,5626,7,56,105
0.10000000000000853,5626,8,56,99
0.09999999999999432,5626,9,56,71
0.10000000000000853,5626,10,56,127
0.10000000000000853,5626,11,56,87
0.10000000000000853,5626,12,56,127
0.09999999999999432,5626,13,56,73
0.09999999999999432,5626,14,56,71
0.09999999999999432,5626,15,56,127
0.09999999999999432,5627,0,56,127
0.013636363636379656,5627,1,56,127
0.09999999999999432,5627,2,56,127
0.09999999999999432,5627,3,56,85
0.09999999999999432,5627,4,56,123
0.09999999999999432,5627,5,56,127
0.09999999999999432,5627,6,56,127
0.09999999999999432,5627,7,56,122
0.09999999999999432,5627,8,56,121
0.09999999999999432,5627,9,56,64
0.10000000000002274,5627,10,56,122
0.09999999999999432,5627,11,56,127
0.09999999999999432,5627,12,56,100
0.09999999999999432,5627,13,56,127
0.09999999999999432,5627,14,56,127
0.09999999999999432,5627,15,56,112
0.09999999999999432,5628,0,56,83
0.09999999999999964,5628,1,98,127
0.10000000000000142,5628,2,98,127
0.09999999999999964,5628,3,98,127
0.09999999999999964,5628,4,98,127
0.09999999999999964,5628,5,98,127
0.10000000000000142,5628,6,98,127
0.09999999999999787,5628,7,98,127
0.09999999999999787,5628,8,98,127
0.10000000000000142,5628,9,98,127
0.10000000000000142,5628,10,98,127
0.10000000000000142,5628,11,98,127
0.10000000000000142,5628,12,98,127
0.09999999999999787,5628,13,98,127
0.09999999999999787,5628,14,98,127
0.10000000000000142,5628,15,98,127
0.09999999999999787,5629,0,98,127
0.10000000000000142,5629,1,98,4
0.10000000000000142,5629,2,98,65
0.09999999999999787,5629,3,98,9
0.10000000000000142,5629,4,98,9
0.09999999999999787,5629,5,98,127
0.10000000000000142,5629,6,98,74
0.09999999999999787,5629,7,98,51
0.10000000000000142,5629,8,98,7
0.09999999999999787,5629,9,98,66
0.09999999999999787,5629,10,98,127
0.09999999999999787,5629,11,98,3
0.10000000000000142,5629,12,98,49
0.10000000000000142,5629,13,98,57
0.10000000000000142,5629,14,98,7
0.10000000000000142,5629,15,98,68
0.09999999999999432,5630,0,98,8
0.10000000000000142,5630,1,98,9
0.09999999999999432,5630,2,98,127
0.10000000000000142,5630,3,98,81
0.10000000000000142,5630,4,98,52
0.10000000000000142,5630,5,98,7
0.09999999999999432,5630,6,98,64
0.10000000000000142,5630,7,98,8
0.09999999999999432,5630,8,98,127
0.10000000000000142,5630,9,98,7
0.10000000000000142,5630,10,98,41
0.10000000000000142,5630,11,98,49
0.10000000000000142,5630,12,98,7
0.09999999999999432,5630,13,98,73
0.09999999999999432,5630,14,98,9
0.10000000000000142,5630,15,98,9
0.10000000000000142,5631,0,98,127
0.10000000000000142,5631,1,98,81
0.09999999999999432,5631,2,98,56
0.09999999999999432,5631,3,98,5
0.10000000000000142,5631,4,98,67
0.09999999999999432,5631,5,98,127
0.10000000000000142,5631,6,98,8
0.10000000000000142,5631,7,98,39
0.10000000000000142,5631,8,98,51
0.09999999999999432,5631,9,98,8
0.10000000000000142,5631,10,98,67
0.10000000000000142,5631,11,98,22
0.10000000000000142,5631,12,98,9
0.10000000000000142,5631,13,98,127
0.09999999999999432,5631,14,98,78
0.10000000000000142,5631,15,98,56
0.10000000000000142,5632,0,98,6
0.10000000000000142,5632,1,98,49
0.10000000000000142,5632,2,98,8
0.10000000000000142,5632,3,98,23
0.10000000000000142,5632,4,98,8
0.10000000000000142,5632,5,98,32
0.10000000000000142,5632,6,98,50
0.10000000000000142,5632,7,98,7
0.10000000000000142,5632,8,98,39
0.10000000000000142,5632,9,98,4
0.09999999999999432,5632,10,98,12
0.10000000000000142,5632,11,98,9
0.09999999999999432,5632,12,98,9
0.10000000000000142,5632,13,98,32
0.10000000000000142,5632,14,98,56
0.10000000000000142,5632,15,98,6
0.09999999999999432,5633,0,98,43
0.10000000000000142,5633,1,98,7
0.09999999999999432,5633,2,98,23
0.10000000000000142,5633,3,98,8
0.10000000000000142,5633,4,98,29
0.10000000000000142,5633,5,98,46
0.10000000000000142,5633,6,98,7
0.10000000000000142,5633,7,98,40
0.10000000000000142,5633,8,98,8
0.09999999999999432,5633,9,98,17
0.10000000000000142,5633,10,98,9
0.10000000000000142,5633,11,98,9
0.10000000000000142,5633,12,98,30
0.10000000000000142,5633,13,98,55
0.09999999999999432,5633,14,98,7
0.10000000000000142,5633,15,98,44
0.09999999999999432,5634,0,98,7
0.10000000000000142,5634,1,98,26
0.10000000000000142,5634,2,98,31
0.10000000000000142,5634,3,98,56
0.10000000000000142,5634,4,98,7
0.10000000000000142,5634,5,98,37
0.10000000000000142,5634,6,98,7
0.10000000000000142,5634,7,98,12
0.10000000000000142,5634,8,98,9
0.10000000000000142,5634,9,98,9
0.09999999999999432,5634,10,98,29
0.09999999999999432,5634,11,98,52
0.10000000000000142,5634,12,98,7
0.10000000000000142,5634,13,98,40
0.10000000000000142,5634,14,98,7
0.10000000000000142,5634,15,98,24
0.09999999999999432,5635,0,98,9
0.10000000000000142,5635,1,98,36
0.09999999999999432,5635,2,98,49
0.10000000000000142,5635,3,98,7
0.10000000000000142,5635,4,98,42
0.10000000000000142,5635,5,98,8
0.10000000000000142,5635,6,98,14
0.10000000000000142,5635,7,98,10
0.09999999999999432,5635,8,98,8
0.10000000000000142,5635,9,98,33
0.10000000000000142,5635,10,98,48
0.10000000000000142,5635,11,98,5
0.10000000000000142,5635,12,98,43
0.10000000000000142,5635,13,98,8
0.10000000000000142,5635,14,98,63
0.09999999999999432,5635,15,98,38
0.10000000000000142,5636,0,98,33
0.10000000000000142,5636,1,98,65
0.10000000000000142,5636,2,98,52
0.10000000000000142,5636,3,98,52
0.10000000000000142,5636,4,98,127
0.10000000000000142,5636,5,98,68
0.10000000000000142,5636,6,98,18
0.10000000000000142,5636,7,98,127
0.10000000000000142,5636,8,98,127
0.10000000000000142,5636,9,98,11
0.10000000000000142,5636,10,98,127
0.09999999999999432,5636,11,98,60
0.09999999999999432,5636,12,98,27
0.10000000000000142,5636,13,98,13
0.10000000000000142,5636,14,98,127
0.10000000000000142,5636,15,98,78
0.10000000000000142,5637,0,98,125
0.10000000000000142,5637,1,98,13
0.09999999999999432,5637,2,98,27
0.10000000000000142,5637,3,98,11
0.09999999999999432,5637,4,98,127
0.10000000000000142,5637,5,98,73
0.10000000000000142,5637,6,98,19
0.10000000000000142,5637,7,98,127
0.09999999999999432,5637,8,98,127
0.10000000000000142,5637,9,98,13
0.09999999999999432,5637,10,98,127
0.10000000000000142,5637,11,98,56
0.10000000000000142,5637,12,98,28
0.10000000000000142,5637,13,98,13
0.10000000000000142,5637,14,98,127
0.09999999999999432,5637,15,98,69
0.10000000000000142,5638,0,98,127
0.10000000000000142,5638,1,98,14
0.10000000000000142,5638,2,98,30
0.10000000000000142,5638,3,98,12
0.10000000000000142,5638,4,98,127
0.10000000000000142,5638,5,98,75
0.10000000000000142,5638,6,98,3
0.09999999999999432,5638,7,98,127
0.10000000000000142,5638,8,98,127
0.09999999999999432,5638,9,98,15
0.10000000000000142,5638,10,98,127
0.10000000000000142,5638,11,98,60
0.10000000000000142,5638,12,98,29
0.09999999999999432,5638,13,98,13
0.10000000000000142,5638,14,98,127
0.10000000000000142,5638,15,98,70
0.10000000000000142,5639,0,98,127
0.10000000000000142,5639,1,98,14
0.10000000000000142,5639,2,98,25
0.10000000000000142,5639,3,98,11
0.10000000000000142,5639,4,98,127
0.09999999999999432,5639,5,98,72
0.09999999999999432,5639,6,98,18
0.10000000000000142,5639,7,98,127
0.10000000000000142,5639,8,98,127
0.10000000000000142,5639,9,98,15
0.10000000000000142,5639,10,98,127
0.10000000000000142,5639,11,98,69
0.09999999999999432,5639,12,98,30
0.10000000000000142,5639,13,98,14
0.09999999999999432,5639,14,98,127
0.10000000000000142,5639,15,98,127
0.056818181818186986,5640,0,98,55
0.10000000000000142,5640,1,98,106
0.10000000000000142,5640,2,98,127
0.10000000000000142,5640,3,98,67
0.10000000000000142,5640,4,98,16
0.09999999999999432,5640,5,98,127
0.10000000000000142,5640,6,98,50
0.10000000000000142,5640,7,98,21
0.10000000000000142,5640,8,98,127
0.10000000000000142,5640,9,98,126
0.10000000000000142,5640,10,98,17
0.10000000000000142,5640,11,98,127
0.09999999999999432,5640,12,98,69
0.10000000000000142,5640,13,98,20
0.10000000000000142,5640,14,98,16
0.10000000000000142,5640,15,98,127
0.10000000000000142,5641,0,98,71
0.10000000000000142,5641,1,98,108
0.09999999999999432,5641,2,98,17
0.10000000000000142,5641,3,98,21
0.10000000000000142,5641,4,98,15
0.10000000000000142,5641,5,98,127
0.10000000000000142,5641,6,98,56
0.10000000000000142,5641,7,98,17
0.10000000000000142,5641,8,98,127
0.10000000000000142,5641,9,98,122
0.09999999999999432,5641,10,98,15
0.10000000000000142,5641,11,98,127
0.10000000000000142,5641,12,98,67
0.09999999999999432,5641,13,98,22
0.09999999999999432,5641,14,98,17
0.10000000000000853,5641,15,98,127
0.09999999999999432,5642,0,98,72
0.10000000000000853,5642,1,98,106
0.10000000000000853,5642,2,98,15
0.09999999999999432,5642,3,98,20
0.09999999999999432,5642,4,98,19
0.10000000000000853,5642,5,98,127
0.09999999999999432,5642,6,98,64
0.10000000000000853,5642,7,98,18
0.10000000000000853,5642,8,98,127
0.10000000000000853,5642,9,98,123
0.09999999999999432,5642,10,98,14
0.09999999999999432,5642,11,98,127
0.09999999999999432,5642,12,98,73
0.09999999999999432,5642,13,98,23
0.09999999999999432,5642,14,98,16
0.09999999999999432,5642,15,98,127
0.09999999999999432,5643,0,98,54
0.09999999999999432,5643,1,98,109
0.09999999999999432,5643,2,98,15
0.09999999999999432,5643,3,98,21
0.10000000000000853,5643,4,98,18
0.09999999999999432,5643,5,98,127
0.10000000000000853,5643,6,98,68
0.09999999999999432,5643,7,98,15
0.10000000000000853,5643,8,98,127
0.09999999999999432,5643,9,98,127
0.10000000000000853,5643,10,98,14
0.10000000000000853,5643,11,98,127
0.10000000000000853,5643,12,98,50
0.09999999999999432,5643,13,98,22
0.10000000000000853,5643,14,98,16
0.10000000000000853,5643,15,98,127
0.09999999999999432,5644,0,98,67
0.10000000000000853,5644,1,98,107
0.09999999999999432,5644,2,98,127
0.10000000000000853,5644,3,98,38
0.09999999999999432,5644,4,98,17
0.10000000000000853,5644,5,98,127
0.09999999999999432,5644,6,98,127
0.09999999999999432,5644,7,98,127
0.09999999999999432,5644,8,98,127
0.10000000000000853,5644,9,98,49
0.036363636363645924,5644,10,98,24
0.013636363636365445,5644,11,98,25
0.09999999999999432,5644,12,98,127
0.09999999999999432,5644,13,98,127
0.10000000000000853,5644,14,98,15
0.10000000000000853,5644,15,98,127
0.10000000000000853,5645,0,98,70
0.09999999999999432,5645,1,98,17
0.09999999999999432,5645,2,98,12
0.10000000000000853,5645,3,98,127
0.09999999999999432,5645,4,98,69
0.10000000000000853,5645,5,98,111
0.09999999999999432,5645,6,98,14
0.10000000000000853,5645,7,98,22
0.09999999999999432,5645,8,98,17
0.10000000000000853,5645,9,98,127
0.09999999999999432,5645,10,98,59
0.10000000000000853,5645,11,98,18
0.10000000000000853,5645,12,98,127
0.10000000000000853,5645,13,98,122
0.09999999999999432,5645,14,98,13
0.10000000000000853,5645,15,98,127
0.09999999999999432,5646,0,98,71
0.09999999999999432,5646,1,98,22
0.10000000000000853,5646,2,98,14
0.09999999999999432,5646,3,98,127
0.09999999999999432,5646,4,98,56
0.09999999999999432,5646,5,98,105
0.10000000000000853,5646,6,98,13
0.09999999999999432,5646,7,98,23
0.10000000000000853,5646,8,98,17
0.09999999999999432,5646,9,98,127
0.10000000000000853,5646,10,98,64
0.09999999999999432,5646,11,98,19
0.10000000000000853,5646,12,98,127
0.09999999999999432,5646,13,98,126
0.09999999999999432,5646,14,98,15
0.09999999999999432,5646,15,98,127
0.10000000000000853,5647,0,98,48
0.10000000000000853,5647,1,98,22
0.10000000000000853,5647,2,98,14
0.10000000000000853,5647,3,98,127
0.09999999999999432,5647,4,98,59
0.09999999999999432,5647,5,98,111
0.09999999999999432,5647,6,98,16
0.10000000000000853,5647,7,98,23
0.09999999999999432,5647,8,98,17
0.10000000000000853,5647,9,98,127
0.09999999999999432,5647,10,98,69
0.09999999999999432,5647,11,98,18
0.10000000000000853,5647,12,98,127
0.09999999999999432,5647,13,98,127
0.09999999999999432,5647,14,98,15
0.09999999999999432,5647,15,98,127
0.09999999999999432,5648,0,98,54
0.09999999999999432,5648,1,98,22
0.09999999999999432,5648,2,98,16
0.09999999999999432,5648,3,98,127
0.10000000000000853,5648,4,98,68
0.09999999999999432,5648,5,98,105
0.10000000000000853,5648,6,98,127
0.09999999999999432,5648,7,98,38
0.10000000000000853,5648,8,98,15
0.09999999999999432,5648,9,98,127
0.10000000000000853,5648,10,98,52
0.02727272727273089,5648,11,98,22
0.024999999999991473,5648,12,98,23
0.09999999999999432,5648,13,98,127
0.10000000000000853,5648,14,98,127
0.10000000000000853,5648,15,98,16
0.10000000000000853,5649,0,98,127
0.09999999999999432,5649,1,98,62
0.10000000000000853,5649,2,98,21
0.09999999999999432,5649,3,98,17
0.10000000000000853,5649,4,98,127
0.09999999999999432,5649,5,98,73
0.10000000000000853,5649,6,98,112
0.09999999999999432,5649,7,98,17
0.10000000000000853,5649,8,98,23
0.09999999999999432,5649,9,98,18
0.09999999999999432,5649,10,98,127
0.09999999999999432,5649,11,98,51
0.10000000000000853,5649,12,98,17
0.10000000000000853,5649,13,98,127
0.09999999999999432,5649,14,98,127
0.09999999999999432,5649,15,98,15
0.09999999999999432,5650,0,98,127
0.10000000000000853,5650,1,98,71
0.09999999999999432,5650,2,98,15
0.10000000000000853,5650,3,98,14
0.09999999999999432,5650,4,98,127
0.10000000000000853,5650,5,98,73
0.09999999999999432,5650,6,98,110
0.10000000000000853,5650,7,98,16
0.09999999999999432,5650,8,98,23
0.10000000000000853,5650,9,98,16
0.10000000000000853,5650,10,98,127
0.10000000000000853,5650,11,98,61
0.09999999999999432,5650,12,98,18
0.09999999999999432,5650,13,98,127
0.10000000000000853,5650,14,98,127
0.09999999999999432,5650,15,98,15
0.10000000000000853,5651,0,98,127
0.09999999999999432,5651,1,98,74
0.10000000000000853,5651,2,98,22
0.09999999999999432,5651,3,98,17
0.10000000000000853,5651,4,98,127
0.09999999999999432,5651,5,98,59
0.10000000000000853,5651,6,98,109
0.09999999999999432,5651,7,98,18
0.10000000000000853,5651,8,98,26
0.09999999999999432,5651,9,98,18
0.10000000000000853,5651,10,98,47
0.09999999999999432,5651,11,98,28
0.05909090909089798,5651,12,98,29
0.10000000000000853,5651,13,98,43
0.09999999999999432,5651,14,98,33
0.09999999999999432,5651,15,98,57
0.10000000000000853,5652,0,98,37
0.09999999999999432,5652,1,98,51
0.10000000000000853,5652,2,98,38
0.09999999999999432,5652,3,98,46
0.10000000000000853,5652,4,98,31
0.025000000000005684,5652,5,98,28
0.024999999999991473,5652,6,98,64
0.09999999999999432,5652,7,98,112
0.09999999999999432,5652,8,98,127
0.09999999999999432,5652,9,98,10
0.09999999999999432,5652,10,98,6
0.10000000000000853,5652,11,98,119
0.09999999999999432,5652,12,98,10
0.09999999999999432,5652,13,98,16
0.10000000000000853,5652,14,98,127
0.10000000000000853,5652,15,98,116
0.10000000000000853,5653,0,98,14
0.09999999999999432,5653,1,98,127
0.10000000000000853,5653,2,98,17
0.10000000000000853,5653,3,98,127
0.10000000000000853,5653,4,98,127
0.10000000000000853,5653,5,98,127
0.10000000000000853,5653,6,98,74
0.09999999999999432,5653,7,98,14
0.09999999999999432,5653,8,98,127
0.09999999999999432,5653,9,98,127
0.09999999999999432,5653,10,98,12
0.10000000000000853,5653,11,98,127
0.10000000000000853,5653,12,98,53
0.09999999999999432,5653,13,98,21
0.09999999999999432,5653,14,98,16
0.09999999999999432,5653,15,98,127
0.09999999999999432,5654,0,98,61
0.10000000000000853,5654,1,98,110
0.09999999999999432,5654,2,98,15
0.10000000000000853,5654,3,98,27
0.09999999999999432,5654,4,98,14
0.09999999999999432,5654,5,98,127
0.09999999999999432,5654,6,98,84
0.09999999999999432,5654,7,98,15
0.10000000000000853,5654,8,98,127
0.09999999999999432,5654,9,98,120
0.09999999999999432,5654,10,98,14
0.09999999999999432,5654,11,98,127
0.09999999999999432,5654,12,98,57
0.09999999999999432,5654,13,98,21
0.10000000000000853,5654,14,98,16
0.09999999999999432,5654,15,98,127
0.10000000000000853,5655,0,98,77
0.09999999999999432,5655,1,98,108
0.10000000000000853,5655,2,98,13
0.09999999999999432,5655,3,98,27
0.09999999999999432,5655,4,98,14
0.10000000000000853,5655,5,98,127
0.10000000000000853,5655,6,98,55
0.10000000000000853,5655,7,98,13
0.09999999999999432,5655,8,98,127
0.10000000000000853,5655,9,98,127
0.09999999999999432,5655,10,98,11
0.10000000000000853,5655,11,98,127
0.09999999999999432,5655,12,98,70
0.10000000000000853,5655,13,98,23
0.09999999999999432,5655,14,98,15
0.10000000000000853,5655,15,98,127
0.09999999999999432,5656,0,98,81
0.10000000000000853,5656,1,98,116
0.09999999999999432,5656,2,98,17
0.09999999999999432,5656,3,98,24
0.09999999999999432,5656,4,98,3
0.09999999999999432,5656,5,98,47
0.10000000000000853,5656,6,98,9
0.09999999999999432,5656,7,98,8
0.09999999999999432,5656,8,98,48
0.10000000000000853,5656,9,98,43
0.10000000000000853,5656,10,98,3
0.10000000000000853,5656,11,98,51
0.09999999999999432,5656,12,98,5
0.10000000000000853,5656,13,98,45
0.09999999999999432,5656,14,98,3
0.10000000000000853,5656,15,98,4
0.09999999999999432,5657,0,98,46
0.10000000000000853,5657,1,98,42
0.09999999999999432,5657,2,98,4
0.10000000000000853,5657,3,98,47
0.09999999999999432,5657,4,98,7
0.10000000000000853,5657,5,98,47
0.09999999999999432,5657,6,98,4
0.10000000000000853,5657,7,98,4
0.10000000000000853,5657,8,98,45
0.09999999999999432,5657,9,98,42
0.09999999999999432,5657,10,98,3
0.09999999999999432,5657,11,98,51
0.10000000000000853,5657,12,98,4
0.09999999999999432,5657,13,98,44
0.10000000000000853,5657,14,98,4
0.09999999999999432,5657,15,98,4
0.10000000000000853,5658,0,98,55
0.09999999999999432,5658,1,98,39
0.10000000000000853,5658,2,98,3
0.09999999999999432,5658,3,98,55
0.10000000000000853,5658,4,98,7
0.09999999999999432,5658,5,98,39
0.10000000000000853,5658,6,98,4
0.09999999999999432,5658,7,98,3
0.09999999999999432,5658,8,98,48
0.09999999999999432,5658,9,98,33
0.09999999999999432,5658,10,98,3
0.09999999999999432,5658,11,98,46
0.09999999999999432,5658,12,98,4
0.10000000000000853,5658,13,98,46
0.09999999999999432,5658,14,98,6
0.09999999999999432,5658,15,98,3
0.09999999999999432,5659,0,98,58
0.10000000000000853,5659,1,98,48
0.09999999999999432,5659,2,98,3
0.09999999999999432,5659,3,98,54
0.09999999999999432,5659,4,98,10
0.09999999999999432,5659,5,98,52
0.09999999999999432,5659,6,98,50
0.10000000000000853,5659,7,98,56
0.10000000000000853,5659,8,98,62
0.09999999999999432,5659,9,98,41
0.10000000000000853,5659,10,98,47
0.09999999999999432,5659,11,98,57
0.10000000000000853,5659,12,98,8
0.09999999999999432,5659,13,98,41
0.10000000000000853,5659,14,98,50
0.09999999999999432,5659,15,98,59
0.09999999999999432,5660,0,98,64
0.09999999999999432,5660,1,98,36
0.10000000000000853,5660,2,98,44
0.10000000000000853,5660,3,98,56
0.10000000000000853,5660,4,98,6
0.10000000000000853,5660,5,98,64
0.09999999999999432,5660,6,98,33
0.09999999999999432,5660,7,98,3
0.09999999999999432,5660,8,98,127
0.09999999999999432,5660,9,98,57
0.10000000000000853,5660,10,98,21
0.10000000000000853,5660,11,98,127
0.09999999999999432,5660,12,98,127
0.09999999999999432,5660,13,98,17
0.09999999999999432,5660,14,98,127
0.10000000000000853,5660,15,98,58
0.09999999999999432,5661,0,98,19
0.10000000000000853,5661,1,98,11
0.10000000000000853,5661,2,98,127
0.10000000000000853,5661,3,98,91
0.09999999999999432,5661,4,98,98
0.09999999999999432,5661,5,98,13
0.10000000000000853,5661,6,98,25
0.09999999999999432,5661,7,98,12
0.10000000000000853,5661,8,98,127
0.10000000000000853,5661,9,98,70
0.09999999999999432,5661,10,98,20
0.09999999999999432,5661,11,98,127
0.10000000000000853,5661,12,98,127
0.09999999999999432,5661,13,98,8
0.10000000000000853,5661,14,98,127
0.09999999999999432,5661,15,98,85
0.10000000000000853,5662,0,98,19
0.09999999999999432,5662,1,98,11
0.10000000000000853,5662,2,98,127
0.09999999999999432,5662,3,98,97
0.09999999999999432,5662,4,98,96
0.09999999999999432,5662,5,98,12
0.09999999999999432,5662,6,98,22
0.09999999999999432,5662,7,98,12
0.09999999999999432,5662,8,98,127
0.09999999999999432,5662,9,98,77
0.09999999999999432,5662,10,98,22
0.10000000000000853,5662,11,98,127
0.09999999999999432,5662,12,98,127
0.10000000000000853,5662,13,98,12
0.09999999999999432,5662,14,98,127
0.10000000000000853,5662,15,98,96
0.09999999999999432,5663,0,98,24
0.10000000000000853,5663,1,98,11
0.025000000000005684,5663,2,98,12
0.03636363636363171,5663,3,98,127
0.09999999999999432,5663,4,98,97
0.10000000000000853,5663,5,98,93
0.10000000000000853,5663,6,98,13
0.09999999999999432,5663,7,98,31
0.10000000000000853,5663,8,98,11
0.10000000000000853,5663,9,98,127
0.09999999999999432,5663,10,98,90
0.10000000000000853,5663,11,98,17
0.09999999999999432,5663,12,98,127
0.10000000000000853,5663,13,98,127
0.09999999999999432,5663,14,98,13
0.10000000000000853,5663,15,98,127
0.09999999999999432,5664,0,98,96
0.10000000000000853,5664,1,98,21
0.09999999999999432,5664,2,98,12
0.024999999999991473,5664,3,98,10
0.03636363636363171,5664,4,98,127
0.09999999999999432,5664,5,98,77
0.09999999999999432,5664,6,98,89
0.10000000000000853,5664,7,98,127
0.10000000000000853,5664,8,98,95
0.09999999999999432,5664,9,98,12
0.09999999999999432,5664,10,98,127
0.10000000000000853,5664,11,98,97
0.09999999999999432,5664,12,98,22
0.09999999999999432,5664,13,98,127
0.09999999999999432,5664,14,98,127
0.09999999999999432,5664,15,98,12
0.10000000000002274,5665,0,98,127
0.09999999999999432,5665,1,98,73
0.10000000000002274,5665,2,98,21
0.09999999999999432,5665,3,98,11
0.024999999999977263,5665,4,98,11
0.03636363636363171,5665,5,98,127
0.09999999999999432,5665,6,98,80
0.09999999999999432,5665,7,98,93
0.10000000000002274,5665,8,98,12
0.09999999999999432,5665,9,98,30
0.09999999999999432,5665,10,98,12
0.09999999999999432,5665,11,98,127
0.10000000000002274,5665,12,98,110
0.09999999999999432,5665,13,98,20
0.09999999999999432,5665,14,98,127
0.09999999999999432,5665,15,98,127
0.09999999999999432,5666,0,98,13
0.09999999999999432,5666,1,98,127
0.10000000000002274,5666,2,98,85
0.09999999999999432,5666,3,98,23
0.09999999999999432,5666,4,98,10
0.025000000000005684,5666,5,98,11
0.036363636363660135,5666,6,98,127
0.09999999999999432,5666,7,98,98
0.10000000000002274,5666,8,98,90
0.09999999999999432,5666,9,98,12
0.09999999999999432,5666,10,98,26
0.09999999999999432,5666,11,98,12
0.10000000000002274,5666,12,98,127
0.09999999999999432,5666,13,98,74
0.10000000000002274,5666,14,98,19
0.09999999999999432,5666,15,98,127
0.09999999999999432,5667,0,98,117
0.09999999999999432,5667,1,98,7
0.09999999999999432,5667,2,98,127
0.09999999999999432,5667,3,98,97
0.09999999999999432,5667,4,98,23
0.09999999999999432,5667,5,98,10
0.01590909090910486,5667,6,98,12
0.036363636363660135,5667,7,98,127
0.09999999999999432,5667,8,98,102
0.09999999999999432,5667,9,98,95
0.09999999999999432,5667,10,98,12
0.09999999999999432,5667,11,98,26
0.09999999999999432,5667,12,98,13
0.09999999999999432,5667,13,98,127
0.10000000000002274,5667,14,98,88
0.09999999999999432,5667,15,98,18
0.09999999999999432,5668,0,98,127
0.09999999999999432,5668,1,98,127
0.10000000000002274,5668,2,98,13
0.09999999999999432,5668,3,98,127
0.09999999999999432,5668,4,98,99
0.09999999999999432,5668,5,98,21
0.09999999999999432,5668,6,98,12
0.025000000000005684,5668,7,98,10
0.03636363636363171,5668,8,98,127
0.10000000000002274,5668,9,98,77
0.09999999999999432,5668,10,98,88
0.09999999999999432,5668,11,98,127
0.09999999999999432,5668,12,98,91
0.09999999999999432,5668,13,98,13
0.10000000000002274,5668,14,98,20
0.09999999999999432,5668,15,98,35
0.09999999999999432,5669,0,98,11
0.10000000000002274,5669,1,98,75
0.09999999999999432,5669,2,98,30
0.09999999999999432,5669,3,98,1
0.09999999999999432,5669,4,98,33
0.10000000000002274,5669,5,98,31
0.09999999999999432,5669,6,98,78
0.09999999999999432,5669,7,98,33
0.09999999999999432,5669,8,98,1
0.09999999999999432,5669,9,98,41
0.09999999999999432,5669,10,98,31
0.10000000000002274,5669,11,98,22
0.09999999999999432,5669,12,98,71
0.09999999999999432,5669,13,98,35
0.09999999999999432,5669,14,98,1
0.09999999999999432,5669,15,98,29
0.10000000000002274,5670,0,98,4
0.09999999999999432,5670,1,98,34
0.09999999999999432,5670,2,98,85
0.09999999999999432,5670,3,98,1
0.10000000000002274,5670,4,98,39
0.10000000000002274,5670,5,98,7
0.09999999999999432,5670,6,98,39
0.09999999999999432,5670,7,98,29
0.09999999999999432,5670,8,98,23
0.09999999999999432,5670,9,98,66
0.10000000000002274,5670,10,98,1
0.09999999999999432,5670,11,98,36
0.09999999999999432,5670,12,98,2
0.09999999999999432,5670,13,98,27
0.09999999999999432,5670,14,98,11
0.09999999999999432,5670,15,98,47
0.09999999999999432,5671,0,98,83
0.09999999999999432,5671,1,98,40
0.09999999999999432,5671,2,98,16
0.09999999999999432,5671,3,98,41
0.09999999999999432,5671,4,98,34
0.10000000000002274,5671,5,98,34
0.09999999999999432,5671,6,98,62
0.09999999999999432,5671,7,98,34
0.09999999999999432,5671,8,98,1
0.10000000000002274,5671,9,98,28
0.10000000000002274,5671,10,98,7
0.09999999999999432,5671,11,98,44
0.09999999999999432,5671,12,98,12
0.10000000000002274,5671,13,98,73
0.09999999999999432,5671,14,98,4
0.10000000000002274,5671,15,98,54
0.09999999999999432,5672,0,98,10
0.10000000000002274,5672,1,98,47
0.09999999999999432,5672,2,98,1
0.10000000000002274,5672,3,98,39
0.09999999999999432,5672,4,98,33
0.09999999999999432,5672,5,98,58
0.09999999999999432,5672,6,98,1
0.09999999999999432,5672,7,98,50
0.10000000000002274,5672,8,98,20
0.09999999999999432,5672,9,98,30
0.09999999999999432,5672,10,98,4
0.09999999999999432,5672,11,98,39
0.09999999999999432,5672,12,98,34
0.09999999999999432,5672,13,98,64
0.09999999999999432,5672,14,98,47
0.09999999999999432,5672,15,98,27
0.09999999999999432,5673,0,98,29
0.10000000000002274,5673,1,98,25
0.09999999999999432,5673,2,98,24
0.09999999999999432,5673,3,98,25
0.09999999999999432,5673,4,98,79
0.09999999999999432,5673,5,98,9
0.10000000000002274,5673,6,98,38
0.09999999999999432,5673,7,98,29
0.09999999999999432,5673,8,98,27
0.09999999999999432,5673,9,98,26
0.09999999999999432,5673,10,98,38
0.09999999999999432,5673,11,98,27
0.10000000000002274,5673,12,98,32
0.09999999999999432,5673,13,98,27
0.09999999999999432,5673,14,98,32
0.09999999999999432,5673,15,98,28
0.10000000000002274,5674,0,98,45
0.09999999999999432,5674,1,98,29
0.09999999999999432,5674,2,98,34
0.09999999999999432,5674,3,98,27
0.09999999999999432,5674,4,98,85
0.10000000000002274,5674,5,98,26
0.10000000000002274,5674,6,98,38
0.09999999999999432,5674,7,98,30
0.09999999999999432,5674,8,98,36
0.09999999999999432,5674,9,98,26
0.09999999999999432,5674,10,98,27
0.10000000000002274,5674,11,98,25
0.09999999999999432,5674,12,98,67
0.09999999999999432,5674,13,98,27
0.09999999999999432,5674,14,98,29
0.10000000000002274,5674,15,98,27
0.09999999999999432,5675,0,98,36
0.09999999999999432,5675,1,98,37
0.09999999999999432,5675,2,98,46
0.09999999999999432,5675,3,98,33
0.09999999999999432,5675,4,98,72
0.10000000000002274,5675,5,98,41
0.09999999999999432,5675,6,98,37
0.09999999999999432,5675,7,98,27
0.09999999999999432,5675,8,98,47
0.09999999999999432,5675,9,98,55
0.03636363636363171,5675,10,98,53
0.09999999999999432,5675,11,98,63
0.09999999999999432,5675,12,98,50
0.09999999999999432,5675,13,98,127
0.10000000000002274,5675,14,98,95
0.09999999999999432,5675,15,98,20
0.09999999999999432,5676,0,98,127
0.09999999999999432,5676,1,98,127
0.09999999999999432,5676,2,98,12
0.09999999999999432,5676,3,98,127
0.09999999999999432,5676,4,98,98
0.09999999999999432,5676,5,98,20
0.09999999999999432,5676,6,98,13
0.09999999999999432,5676,7,98,127
0.09999999999999432,5676,8,98,102
0.09999999999999432,5676,9,98,93
0.09999999999999432,5676,10,98,12
0.09999999999999432,5676,11,98,17
0.10000000000002274,5676,12,98,13
0.09999999999999432,5676,13,98,127
0.09999999999999432,5676,14,98,115
0.09999999999999432,5676,15,98,16
0.09999999999999432,5677,0,98,127
0.10000000000002274,5677,1,98,127
0.10000000000002274,5677,2,98,10
0.09999999999999432,5677,3,98,127
0.09999999999999432,5677,4,98,103
0.09999999999999432,5677,5,98,20
0.09999999999999432,5677,6,98,13
0.09999999999999432,5677,7,98,127
0.09999999999999432,5677,8,98,125
0.09999999999999432,5677,9,98,90
0.09999999999999432,5677,10,98,12
0.10000000000002274,5677,11,98,19
0.09999999999999432,5677,12,98,16
0.09999999999999432,5677,13,98,127
0.09999999999999432,5677,14,98,127
0.09999999999999432,5677,15,98,16
0.10000000000002274,5678,0,98,127
0.09999999999999432,5678,1,98,127
0.09999999999999432,5678,2,98,12
0.09999999999999432,5678,3,98,127
0.09999999999999432,5678,4,98,119
0.09999999999999432,5678,5,98,19
0.10000000000002274,5678,6,98,12
0.09999999999999432,5678,7,98,127
0.09999999999999432,5678,8,98,127
0.09999999999999432,5678,9,98,50
0.10000000000002274,5678,10,98,12
0.09999999999999432,5678,11,98,18
0.09999999999999432,5678,12,98,13
0.09999999999999432,5678,13,98,127
0.09999999999999432,5678,14,98,109
0.09999999999999432,5678,15,98,17
0.09999999999999432,5679,0,98,127
0.09999999999999432,5679,1,98,127
0.09999999999999432,5679,2,98,11
0.10000000000002274,5679,3,98,127
0.09999999999999432,5679,4,98,127
0.10000000000002274,5679,5,98,19
0.09999999999999432,5679,6,98,12
0.09999999999999432,5679,7,98,127
0.09999999999999432,5679,8,98,127
0.10000000000002274,5679,9,98,92
0.09999999999999432,5679,10,98,12
0.10000000000002274,5679,11,98,17
0.09999999999999432,5679,12,98,15
0.09999999999999432,5679,13,98,50
0.09999999999999432,5679,14,98,53
0.09999999999999432,5679,15,98,66
0.10000000000002274,5680,0,98,51
0.09999999999999432,5680,1,98,54
0.09999999999999432,5680,2,98,52
0.10000000000002274,5680,3,98,57
0.10000000000002274,5680,4,98,27
0.09999999999999432,5680,5,98,54
0.09999999999999432,5680,6,98,54
0.10000000000002274,5680,7,98,59
0.10000000000000853,5680,8,74,1
0.09999999999999432,5680,9,74,22
0.09999999999999432,5680,10,74,2
0.10000000000000853,5680,11,74,11
0.10000000000000853,5680,12,74,10
0.09999999999999432,5680,13,74,4
0.10000000000000853,5680,14,74,2
0.10000000000000853,5680,15,74,3
0.10000000000000853,5681,0,74,1
0.09999999999999432,5681,1,74,1
0.10000000000000853,5681,2,74,1
0.10000000000000853,5681,3,74,1
0.09999999999999432,5681,4,74,1
0.09999999999999432,5681,5,74,1
0.10000000000000853,5681,6,74,1
0.10000000000000853,5681,7,74,1
0.10000000000000853,5681,8,74,2
0.09999999999999432,5681,9,74,2
0.09999999999999432,5681,10,74,2
0.09999999999999432,5681,11,74,1
0.09999999999999432,5681,12,74,2
0.10000000000002274,5681,13,74,1
0.09999999999999432,5681,14,74,1
0.09999999999999432,5681,15,74,1
0.09999999999999432,5682,0,74,1
0.10000000000002274,5682,1,74,1
0.09999999999999432,5682,2,74,1
0.09999999999999432,5682,3,74,3
0.09999999999999432,5682,4,74,1
0.10000000000002274,5682,5,74,2
0.09999999999999432,5682,6,74,1
0.09999999999999432,5682,7,74,1
0.09999999999999432,5682,8,74,1
0.09999999999999432,5682,9,74,1
0.09999999999999432,5682,10,74,1
0.09999999999999432,5682,11,74,1
0.09999999999999432,5682,12,74,1
0.09999999999999432,5682,13,74,1
0.10000000000002274,5682,14,74,1
0.10000000000000009,5682,15,66,29
0.10000000000000009,5683,0,66,68
0.10000000000000009,5683,1,66,35
0.09999999999999964,5683,2,66,48
0.09999999999999964,5683,3,66,49
0.10000000000000053,5683,4,66,63
0.10000000000000053,5683,5,66,26
0.10000000000000053,5683,6,66,55
0.10000000000000053,5683,7,66,56
0.09999999999999964,5683,8,66,56
0.09999999999999964,5683,9,66,12
0.04772727272727195,5683,10,66,43
0.10000000000000142,5683,11,66,39
0.09999999999999964,5683,12,66,39
0.10000000000000142,5683,13,66,51
0.09999999999999964,5683,14,66,51
0.09999999999999964,5683,15,66,48
0.09999999999999964,5684,0,66,64
0.09999999999999964,5684,1,66,42
0.09999999999999964,5684,2,66,47
0.09999999999999964,5684,3,66,6
0.10000000000000142,5684,4,66,14
0.09999999999999964,5684,5,66,59
0.10000000000000142,5684,6,66,58
0.09999999999999964,5684,7,66,9
0.09999999999999964,5684,8,66,27
0.09999999999999964,5684,9,66,40
0.09999999999999964,5684,10,66,40
0.09999999999999964,5684,11,66,16
0.09999999999999964,5684,12,66,11
0.09999999999999964,5684,13,66,5
0.09999999999999964,5684,14,66,7
0.09999999999999964,5684,15,66,55
0.09999999999999964,5685,0,66,52
0.09999999999999787,5685,1,66,35
0.10000000000000142,5685,2,66,17
0.10000000000000142,5685,3,66,16
0.09999999999999787,5685,4,66,56
0.09999999999999787,5685,5,66,46
0.09999999999999787,5685,6,66,27
0.10000000000000142,5685,7,66,53
0.09999999999999787,5685,8,66,41
0.10000000000000142,5685,9,66,47
0.09999999999999787,5685,10,66,53
0.09999999999999787,5685,11,66,50
0.09999999999999787,5685,12,66,31
0.09999999999999787,5685,13,66,28
0.09999999999999787,5685,14,66,24
0.09999999999999787,5685,15,66,33
0.10000000000000142,5686,0,66,16
0.10000000000000142,5686,1,66,18
0.10000000000000142,5686,2,66,46
0.09999999999999787,5686,3,66,41
0.09999999999999787,5686,4,66,12
0.09999999999999787,5686,5,66,9
0.09999999999999787,5686,6,66,30
0.10000000000000142,5686,7,66,45
0.09999999999999787,5686,8,66,25
0.10000000000000142,5686,9,66,17
0.10000000000000142,5686,10,66,47
0.10000000000000142,5686,11,66,46
0.10000000000000142,5686,12,66,27
0.09999999999999787,5686,13,66,36
0.09999999999999787,5686,14,66,11
0.10000000000000142,5686,15,66,40
0.09999999999999787,5687,0,66,54
0.10000000000000142,5687,1,66,25
0.09999999999999787,5687,2,66,34
0.10000000000000142,5687,3,66,33
0.10000000000000142,5687,4,66,37
0.10000000000000142,5687,5,66,18
0.10000000000000142,5687,6,66,40
0.09999999999999432,5687,7,66,50
0.10000000000000142,5687,8,66,70
0.10000000000000142,5687,9,66,32
0.09999999999999432,5687,10,66,32
0.10000000000000142,5687,11,66,30
0.10000000000000142,5687,12,66,51
0.10000000000000142,5687,13,66,25
0.09999999999999432,5687,14,66,40
0.10000000000000142,5687,15,66,29
0.09999999999999432,5688,0,66,45
0.10000000000000142,5688,1,66,28
0.10000000000000142,5688,2,66,45
0.10000000000000142,5688,3,66,48
0.10000000000000142,5688,4,66,49
0.10000000000000142,5688,5,66,28
0.10000000000000142,5688,6,66,36
0.10000000000000142,5688,7,66,47
0.10000000000000142,5688,8,66,39
0.10000000000000142,5688,9,66,42
0.10000000000000142,5688,10,66,53
0.09999999999999432,5688,11,66,32
0.09999999999999432,5688,12,66,70
0.10000000000000142,5688,13,66,45
0.10000000000000142,5688,14,66,26
0.10000000000000142,5688,15,66,35
0.09999999999999432,5689,0,66,63
0.10000000000000142,5689,1,66,31
0.10000000000000142,5689,2,66,42
0.10000000000000142,5689,3,66,44
0.10000000000000142,5689,4,66,34
0.10000000000000142,5689,5,66,44
0.09999999999999432,5689,6,66,43
0.10000000000000142,5689,7,66,45
0.10000000000000142,5689,8,66,50
0.10000000000000142,5689,9,66,57
0.10000000000000142,5689,10,66,37
0.10000000000000142,5689,11,66,30
0.10000000000000142,5689,12,66,76
0.10000000000000142,5689,13,66,51
0.10000000000000142,5689,14,66,27
0.09999999999999432,5689,15,66,41
0.10000000000000142,5690,0,66,47
0.10000000000000142,5690,1,66,59
0.10000000000000142,5690,2,66,36
0.10000000000000142,5690,3,66,38
0.10000000000000142,5690,4,66,9
0.10000000000000142,5690,5,66,51
0.09999999999999432,5690,6,66,42
0.10000000000000142,5690,7,66,45
0.10000000000000142,5690,8,66,43
0.10000000000000142,5690,9,66,47
0.10000000000000142,5690,10,66,56
0.09999999999999432,5690,11,66,53
0.10000000000000142,5690,12,66,58
0.10000000000000142,5690,13,66,42
0.09999999999999432,5690,14,66,48
0.09999999999999432,5690,15,66,30
0.09999999999999432,5691,0,66,41
0.09999999999999432,5691,1,66,44
0.09999999999999432,5691,2,66,30
0.09999999999999432,5691,3,66,41
0.09999999999999432,5691,4,66,43
0.09999999999999432,5691,5,66,42
0.10000000000000853,5691,6,66,47
0.09999999999999432,5691,7,66,48
0.09999999999999432,5691,8,66,58
0.10000000000000853,5691,9,66,58
0.10000000000000853,5691,10,66,53
0.10000000000000853,5691,11,66,43
0.10000000000000853,5691,12,66,29
0.09999999999999432,5691,13,66,14
0.10000000000000853,5691,14,66,23
0.10000000000000853,5691,15,66,23
0.10000000000000853,5692,0,66,59
0.10000000000000853,5692,1,66,74
0.09999999999999432,5692,2,66,48
0.09999999999999432,5692,3,66,63
0.09999999999999432,5692,4,66,49
0.09999999999999432,5692,5,66,48
0.10000000000000853,5692,6,66,50
0.10000000000000853,5692,7,66,14
0.09999999999999432,5692,8,66,21
0.09999999999999432,5692,9,66,22
0.09999999999999432,5692,10,66,34
0.09999999999999432,5692,11,66,39
0.09999999999999432,5692,12,66,20
0.09999999999999432,5692,13,66,32
0.10000000000000853,5692,14,66,54
0.09999999999999432,5692,15,66,40
0.10000000000000853,5693,0,66,25
0.09999999999999432,5693,1,66,24
0.09999999999999432,5693,2,66,19
0.09999999999999432,5693,3,66,20
0.10000000000000853,5693,4,66,47
0.09999999999999432,5693,5,66,53
0.10000000000000853,5693,6,66,50
0.10000000000000853,5693,7,66,31
0.09999999999999432,5693,8,66,42
0.09999999999999432,5693,9,66,31
0.10000000000000853,5693,10,66,26
0.10000000000000853,5693,11,66,24
0.09999999999999432,5693,12,66,25
0.10000000000000853,5693,13,66,45
0.09999999999999432,5693,14,66,41
0.09999999999999432,5693,15,66,43
0.09999999999999432,5694,0,66,44
0.09999999999999432,5694,1,66,37
0.10000000000000853,5694,2,66,20
0.10000000000000853,5694,3,66,19
0.09999999999999432,5694,4,66,22
0.09999999999999432,5694,5,66,50
0.10000000000000853,5694,6,66,66
0.09999999999999432,5694,7,66,40
0.09999999999999432,5694,8,66,60
0.09999999999999432,5694,9,66,64
0.09999999999999432,5694,10,66,47
0.09999999999999432,5694,11,66,27
0.09999999999999432,5694,12,66,34
0.10000000000000853,5694,13,66,50
0.09999999999999432,5694,14,66,23
0.10000000000000853,5694,15,66,12
0.10000000000000853,5695,0,66,35
0.09999999999999432,5695,1,66,60
0.09999999999999432,5695,2,66,41
0.09999999999999432,5695,3,66,27
0.03636363636363171,5695,4,66,51
0.09999999999999432,5695,5,66,57
0.10000000000000853,5695,6,66,47
0.09999999999999432,5695,7,66,60
0.10000000000000853,5695,8,66,66
0.10000000000000853,5695,9,66,55
0.04772727272727195,5695,10,66,71
0.09999999999999432,5695,11,66,62
0.10000000000000853,5695,12,66,50
0.09999999999999432,5695,13,66,43
0.09999999999999432,5695,14,66,76
0.09999999999999432,5695,15,66,27
0.09999999999999432,5696,0,66,39
0.09999999999999432,5696,1,66,51
0.09999999999999432,5696,2,66,48
0.09999999999999432,5696,3,66,51
0.09999999999999432,5696,4,66,52
0.09999999999999432,5696,5,66,72
0.09999999999999432,5696,6,66,54
0.09999999999999432,5696,7,66,54
0.10000000000000853,5696,8,66,58
0.10000000000000853,5696,9,66,64
0.09999999999999432,5696,10,66,69
0.09999999999999432,5696,11,66,72
0.09999999999999432,5696,12,66,65
0.10000000000000853,5696,13,66,41
0.09999999999999432,5696,14,66,54
0.09999999999999432,5696,15,66,63
0.09999999999999432,5697,0,66,74
0.10000000000000853,5697,1,66,61
0.09999999999999432,5697,2,66,44
0.10000000000000853,5697,3,66,61
0.09999999999999432,5697,4,66,10
0.10000000000000853,5697,5,66,14
0.10000000000000853,5697,6,66,59
0.09999999999999432,5697,7,66,38
0.09999999999999432,5697,8,66,40
0.10000000000000853,5697,9,66,52
0.09999999999999432,5697,10,66,64
0.09999999999999432,5697,11,66,23
0.10000000000000853,5697,12,66,11
0.09999999999999432,5697,13,66,18
0.10000000000000853,5697,14,66,63
0.09999999999999432,5697,15,66,41
0.09999999999999432,5698,0,66,39
0.09999999999999432,5698,1,66,46
0.10000000000000853,5698,2,66,18
0.10000000000000853,5698,3,66,30
0.09999999999999432,5698,4,66,38
0.09999999999999432,5698,5,66,44
0.10000000000000853,5698,6,66,43
0.10000000000000853,5698,7,66,38
0.09999999999999432,5698,8,66,37
0.10000000000000853,5698,9,66,33
0.09999999999999432,5698,10,66,27
0.10000000000000853,5698,11,66,26
0.10000000000000853,5698,12,66,33
0.09999999999999432,5698,13,66,36
0.09999999999999432,5698,14,66,40
0.10000000000000853,5698,15,66,32
0.09999999999999432,5699,0,66,47
0.10000000000000853,5699,1,66,10
0.09999999999999432,5699,2,66,22
0.10000000000000853,5699,3,66,34
0.10000000000000853,5699,4,66,48
0.10000000000000853,5699,5,66,47
0.09999999999999432,5699,6,66,45
0.09999999999999432,5699,7,66,49
0.09999999999999432,5699,8,66,6
0.09999999999999432,5699,9,66,20
0.10000000000000853,5699,10,66,52
0.10000000000000853,5699,11,66,29
0.09999999999999432,5699,12,66,21
0.10000000000000853,5699,13,66,34
0.10000000000000853,5699,14,66,33
0.10000000000000853,5699,15,66,34
0.10000000000000853,5700,0,66,29
0.09999999999999432,5700,1,66,26
0.09999999999999432,5700,2,66,32
0.09999999999999432,5700,3,66,28
0.09999999999999432,5700,4,66,43
0.10000000000002274,5700,5,66,28
0.09999999999999432,5700,6,66,13
0.09999999999999432,5700,7,66,28
0.09999999999999432,5700,8,66,15
0.09999999999999432,5700,9,66,18
0.10000000000002274,5700,10,66,33
0.09999999999999432,5700,11,66,24
0.09999999999999432,5700,12,66,24
0.09999999999999432,5700,13,66,41
0.09999999999999432,5700,14,66,26
0.09999999999999432,5700,15,66,35
0.10000000000002274,5701,0,66,27
0.09999999999999432,5701,1,66,30
0.09999999999999432,5701,2,66,17
0.09999999999999432,5701,3,66,19
0.09999999999999432,5701,4,66,27
0.10000000000002274,5701,5,66,23
0.10000000000002274,5701,6,66,15
0.10000000000002274,5701,7,66,29
0.10000000000002274,5701,8,66,23
0.09999999999999432,5701,9,66,15
0.09999999999999432,5701,10,66,23
0.09999999999999432,5701,11,66,23
0.09999999999999432,5701,12,66,21
0.09999999999999432,5701,13,66,31
0.09999999999999432,5701,14,66,21
0.09999999999999432,5701,15,66,18
0.09999999999999432,5702,0,66,26
0.09999999999999432,5702,1,66,26
0.10000000000002274,5702,2,66,22
0.10000000000002274,5702,3,66,25
0.09999999999999432,5702,4,66,37
0.09999999999999432,5702,5,66,23
0.09999999999999432,5702,6,66,20
0.09999999999999432,5702,7,66,19
0.09999999999999432,5702,8,66,21
0.10000000000002274,5702,9,66,19
0.09999999999999432,5702,10,66,31
0.09999999999999432,5702,11,66,23
0.09999999999999432,5702,12,66,24
0.09999999999999432,5702,13,66,28
0.09999999999999432,5702,14,66,22
0.10000000000002274,5702,15,66,31
0.09999999999999432,5703,0,66,26
0.10000000000002274,5703,1,66,21
0.09999999999999432,5703,2,66,20
0.09999999999999432,5703,3,66,30
0.09999999999999432,5703,4,66,26
0.09999999999999432,5703,5,66,31
0.09999999999999432,5703,6,66,33
0.09999999999999432,5703,7,66,26
0.09999999999999432,5703,8,66,20
0.09999999999999432,5703,9,66,31
0.09999999999999432,5703,10,66,26
0.09999999999999432,5703,11,66,14
0.09999999999999432,5703,12,66,44
0.09999999999999432,5703,13,66,20
0.09999999999999432,5703,14,66,24
0.10000000000002274,5703,15,66,27
0.10000000000002274,5704,0,66,32
0.09999999999999432,5704,1,66,20
0.10000000000002274,5704,2,66,25
0.09999999999999432,5704,3,66,31
0.09999999999999432,5704,4,66,26
0.10000000000002274,5704,5,66,7
0.09999999999999432,5704,6,66,26
0.09999999999999432,5704,7,66,26
0.09999999999999432,5704,8,66,23
0.09999999999999432,5704,9,66,24
0.09999999999999432,5704,10,66,32
0.09999999999999432,5704,11,66,37
0.09999999999999432,5704,12,66,26
0.09999999999999432,5704,13,66,36
0.09999999999999432,5704,14,66,39
0.09999999999999432,5704,15,66,30
0.09999999999999432,5705,0,66,46
0.10000000000002274,5705,1,66,39
0.09999999999999432,5705,2,66,37
0.09999999999999432,5705,3,66,45
0.09999999999999432,5705,4,66,46
0.09999999999999432,5705,5,66,42
0.09999999999999432,5705,6,66,40
0.09999999999999432,5705,7,66,54
0.09999999999999432,5705,8,66,48
0.09999999999999432,5705,9,66,25
0.10000000000002274,5705,10,66,20
0.09999999999999432,5705,11,66,39
0.09999999999999432,5705,12,66,16
0.09999999999999432,5705,13,66,18
0.09999999999999432,5705,14,66,20
0.09999999999999432,5705,15,66,21
0.09999999999999998,5706,0,66,23
0.09999999999999964,5706,1,66,16
0.10000000000000009,5706,2,66,28
0.04545454545454586,5706,3,66,24
0.013636363636363669,5706,4,66,19
0.10000000000000009,5706,5,66,28
0.09999999999999964,5706,6,66,33
0.09999999999999964,5706,7,66,8
0.10000000000000053,5706,8,66,26
0.06818181818181834,5706,9,66,26
0.09999999999999964,5706,10,66,10
0.09999999999999964,5706,11,66,29
0.10000000000000053,5706,12,66,27
0.10000000000000053,5706,13,66,34
0.10000000000000053,5706,14,66,32
0.09999999999999964,5706,15,66,33
0.10000000000000053,5707,0,66,28
0.10000000000000142,5707,1,66,39
0.09999999999999964,5707,2,66,25
0.09999999999999964,5707,3,66,22
0.09999999999999964,5707,4,66,34
0.10000000000000142,5707,5,66,21
0.09999999999999964,5707,6,66,21
0.09999999999999964,5707,7,66,17
0.09999999999999964,5707,8,66,23
0.10000000000000142,5707,9,66,37
0.03636363636363704,5707,10,66,28
0.004545454545453964,5707,11,66,10
0.09999999999999964,5707,12,66,6
0.10000000000000142,5707,13,66,7
0.09999999999999964,5707,14,66,7
0.09999999999999964,5707,15,66,5
0.09999999999999964,5708,0,66,4
0.09999999999999964,5708,1,66,45
0.09999999999999964,5708,2,66,49
0.09999999999999964,5708,3,66,52
0.09999999999999964,5708,4,66,36
0.10000000000000142,5708,5,66,50
0.10000000000000142,5708,6,66,54
0.09999999999999787,5708,7,66,53
0.09999999999999787,5708,8,66,54
0.10000000000000142,5708,9,66,7
0.09999999999999787,5708,10,66,12
0.09999999999999787,5708,11,66,18
0.10000000000000142,5708,12,66,55
0.10000000000000142,5708,13,66,51
0.10000000000000142,5708,14,66,49
0.09999999999999787,5708,15,66,53
0.09999999999999787,5709,0,66,55
0.10000000000000142,5709,1,66,44
0.10000000000000142,5709,2,66,58
0.09999999999999787,5709,3,66,54
0.09999999999999787,5709,4,66,29
0.05681818181817988,5709,5,66,29
0.10000000000000142,5709,6,66,34
0.10000000000000142,5709,7,66,34
0.10000000000000142,5709,8,66,36
0.09999999999999432,5709,9,66,36
0.10000000000000142,5709,10,66,27
0.10000000000000142,5709,11,66,30
0.10000000000000142,5709,12,66,33
0.10000000000000853,5709,13,66,74
0.09999999999999432,5709,14,66,69
0.09999999999999432,5709,15,66,84
0.09999999999999432,5710,0,66,97
0.10000000000000853,5710,1,66,39
0.09999999999999432,5710,2,66,46
0.09999999999999432,5710,3,66,121
0.09999999999999432,5710,4,66,23
0.09999999999999432,5710,5,66,1
0.09999999999999432,5710,6,66,3
0.10000000000002274,5710,7,66,2
0.09999999999999432,5710,8,66,3
0.09999999999999432,5710,9,66,2
0.10000000000002274,5710,10,66,2
0.09999999999999432,5710,11,66,2
0.09999999999999432,5710,12,66,4
0.09999999999999432,5710,13,66,1
0.09999999999999432,5710,14,66,1
0.09999999999999432,5710,15,66,2
0.09999999999999432,5711,0,66,3
0.09999999999999432,5711,1,66,2
0.09999999999999432,5711,2,66,1
0.09999999999999432,5711,3,66,3
0.09999999999999432,5711,4,66,7
0.10000000000002274,5711,5,66,1
0.09999999999999432,5711,6,66,1
0.10000000000002274,5711,7,66,1
0.09999999999999432,5711,8,66,1
0.09999999999999432,5711,9,66,1
0.09999999999999432,5711,10,66,1
0.09999999999999432,5711,11,66,1
0.09999999999999432,5711,12,66,9
0.09999999999999432,5711,13,66,1
0.09999999999999432,5711,14,66,2
0.10000000000002274,5711,15,66,9
0.10000000000002274,5712,0,66,1
0.10000000000002274,5712,1,66,4
0.09999999999999432,5712,2,66,62
0.09999999999999432,5712,3,66,2
0.09999999999999432,5712,4,66,1
0.10000000000002274,5712,5,66,4
0.09999999999999432,5712,6,66,5
0.09999999999999432,5712,7,66,63
0.10000000000002274,5712,8,66,12
0.09999999999999432,5712,9,66,16
0.09999999999999432,5712,10,66,26
0.09999999999999432,5712,11,66,3
0.09999999999999432,5712,12,66,58
0.09999999999999432,5712,13,66,29
0.09999999999999432,5712,14,66,1
0.09999999999999432,5712,15,66,9
0.10000000000002274,5713,0,66,58
0.09999999999999432,5713,1,66,3
0.09999999999999432,5713,2,66,28
0.09999999999999432,5713,3,66,42
0.10000000000000003,5713,4,63,35
0.09999999999999998,5713,5,63,63
0.10000000000000009,5713,6,63,22
0.10000000000000009,5713,7,63,43
0.10000000000000009,5713,8,63,24
0.09999999999999987,5713,9,63,44
0.10000000000000009,5713,10,63,26
0.09999999999999964,5713,11,63,54
0.10000000000000009,5713,12,63,30
0.10000000000000009,5713,13,63,61
0.10000000000000009,5713,14,63,19
0.10000000000000009,5713,15,63,46
0.10000000000000009,5714,0,63,25
0.10000000000000053,5714,1,63,46
0.09999999999999964,5714,2,63,20
0.09999999999999964,5714,3,63,35
0.09999999999999964,5714,4,63,39
0.09999999999999964,5714,5,63,54
0.09999999999999964,5714,6,63,21
0.10000000000000053,5714,7,63,52
0.09999999999999964,5714,8,63,26
0.09999999999999964,5714,9,63,48
0.09999999999999964,5714,10,63,29
0.09999999999999964,5714,11,63,42
0.09999999999999964,5714,12,63,64
0.10000000000000053,5714,13,63,44
0.10000000000000053,5714,14,63,47
0.09999999999999964,5714,15,63,23
0.09999999999999964,5715,0,63,56
0.10000000000000142,5715,1,63,28
0.09999999999999964,5715,2,63,67
0.09999999999999964,5715,3,63,32
0.09999999999999964,5715,4,63,42
0.09999999999999964,5715,5,63,45
0.09999999999999964,5715,6,63,47
0.09999999999999964,5715,7,63,54
0.09999999999999964,5715,8,63,42
0.10000000000000142,5715,9,63,42
0.09999999999999964,5715,10,63,49
0.09999999999999964,5715,11,63,48
0.10000000000000142,5715,12,63,52
0.09999999999999964,5715,13,63,65
0.09999999999999964,5715,14,63,29
0.09999999999999964,5715,15,63,51
0.09999999999999964,5716,0,63,45
0.09999999999999964,5716,1,63,46
0.09999999999999964,5716,2,63,56
0.10000000000000142,5716,3,63,49
0.10000000000000142,5716,4,63,58
0.10000000000000142,5716,5,63,55
0.09999999999999787,5716,6,63,31
0.10000000000000142,5716,7,63,42
0.09999999999999787,5716,8,63,45
0.10000000000000142,5716,9,63,60
0.09999999999999787,5716,10,63,41
0.09999999999999787,5716,11,63,39
0.10000000000000142,5716,12,63,63
0.09999999999999787,5716,13,63,37
0.10000000000000142,5716,14,63,54
0.09999999999999787,5716,15,63,43
0.10000000000000142,5717,0,63,42
0.10000000000000142,5717,1,63,39
0.10000000000000142,5717,2,63,33
0.09999999999999787,5717,3,63,48
0.09999999999999787,5717,4,63,41
0.10000000000000142,5717,5,63,56
0.09999999999999787,5717,6,63,46
0.10000000000000142,5717,7,63,52
0.09999999999999787,5717,8,63,45
0.10000000000000142,5717,9,63,46
0.09999999999999787,5717,10,63,62
0.10000000000000142,5717,11,63,43
0.10000000000000142,5717,12,63,33
0.09999999999999787,5717,13,63,49
0.10000000000000142,5717,14,63,55
0.09999999999999787,5717,15,63,50
0.10000000000000142,5718,0,63,54
0.09999999999999787,5718,1,63,92
0.09999999999999787,5718,2,63,100
0.09999999999999787,5718,3,63,43
0.10000000000000142,5718,4,63,56
0.09999999999999787,5718,5,63,44
0.09999999999999787,5718,6,63,39
0.09999999999999787,5718,7,63,37
0.09999999999999787,5718,8,63,50
0.10000000000000142,5718,9,63,57
0.10000000000000142,5718,10,63,62
0.10000000000000142,5718,11,63,51
0.10000000000000142,5718,12,63,39
0.09999999999999432,5718,13,63,57
0.10000000000000142,5718,14,63,53
0.09999999999999432,5718,15,63,65
0.10000000000000142,5719,0,63,48
0.10000000000000142,5719,1,63,48
0.10000000000000142,5719,2,63,46
0.10000000000000142,5719,3,63,52
0.10000000000000142,5719,4,63,64
0.10000000000000142,5719,5,63,49
0.10000000000000142,5719,6,63,53
0.09999999999999432,5719,7,63,5
0.10000000000000142,5719,8,63,75
0.10000000000000142,5719,9,63,41
0.10000000000000142,5719,10,63,71
0.10000000000000142,5719,11,63,45
0.10000000000000142,5719,12,63,46
0.10000000000000142,5719,13,63,35
0.09999999999999432,5719,14,63,44
0.10000000000000142,5719,15,63,30
0.10000000000000142,5720,0,63,33
0.10000000000000142,5720,1,63,47
0.10000000000000142,5720,2,63,29
0.09999999999999432,5720,3,63,38
0.10000000000000142,5720,4,63,38
0.09999999999999432,5720,5,63,33
0.10000000000000142,5720,6,63,28
0.10000000000000142,5720,7,63,45
0.10000000000000142,5720,8,63,28
0.09999999999999432,5720,9,63,46
0.10000000000000142,5720,10,63,35
0.09999999999999432,5720,11,63,48
0.10000000000000142,5720,12,63,25
0.10000000000000142,5720,13,63,43
0.10000000000000142,5720,14,63,36
0.10000000000000142,5720,15,63,29
0.10000000000000142,5721,0,63,47
0.10000000000000142,5721,1,63,30
0.09999999999999432,5721,2,63,39
0.10000000000000142,5721,3,63,31
0.10000000000000142,5721,4,63,43
0.10000000000000142,5721,5,63,49
0.10000000000000142,5721,6,63,35
0.09999999999999432,5721,7,63,36
0.10000000000000142,5721,8,63,40
0.10000000000000142,5721,9,63,46
0.09999999999999432,5721,10,63,28
0.10000000000000142,5721,11,63,21
0.10000000000000142,5721,12,63,56
0.10000000000000142,5721,13,63,42
0.09999999999999432,5721,14,63,29
0.10000000000000142,5721,15,63,40
0.10000000000000142,5722,0,63,30
0.10000000000000142,5722,1,63,38
0.10000000000000142,5722,2,63,36
0.10000000000000142,5722,3,63,29
0.09999999999999432,5722,4,63,31
0.09999999999999432,5722,5,63,31
0.10000000000000142,5722,6,63,27
0.10000000000000142,5722,7,63,37
0.10000000000000142,5722,8,63,49
0.10000000000000142,5722,9,63,54
0.10000000000000142,5722,10,63,38
0.10000000000000142,5722,11,63,50
0.10000000000000142,5722,12,63,30
0.10000000000000142,5722,13,63,39
0.10000000000000142,5722,14,63,61
0.10000000000000142,5722,15,63,42
0.10000000000000142,5723,0,63,44
0.10000000000000142,5723,1,63,51
0.09999999999999432,5723,2,63,43
0.10000000000000142,5723,3,63,40
0.10000000000000142,5723,4,63,48
0.10000000000000142,5723,5,63,42
0.10000000000000142,5723,6,63,47
0.10000000000000142,5723,7,63,26
0.10000000000000142,5723,8,63,36
0.10000000000000142,5723,9,63,41
0.10000000000000142,5723,10,63,39
0.10000000000000142,5723,11,63,36
0.10000000000000142,5723,12,63,38
0.09999999999999432,5723,13,63,32
0.10000000000000142,5723,14,63,25
0.09999999999999432,5723,15,63,32
0.10000000000000142,5724,0,63,31
0.10000000000000142,5724,1,63,35
0.10000000000000142,5724,2,63,41
0.10000000000000142,5724,3,63,36
0.10000000000000142,5724,4,63,41
0.10000000000000142,5724,5,63,51
0.10000000000000142,5724,6,63,29
0.09999999999999432,5724,7,63,41
0.09999999999999432,5724,8,63,37
0.09999999999999432,5724,9,63,35
0.09999999999999432,5724,10,63,35
0.09999999999999432,5724,11,63,33
0.09999999999999432,5724,12,63,36
0.10000000000000853,5724,13,63,33
0.10000000000000853,5724,14,63,28
0.09999999999999432,5724,15,63,31
0.10000000000000853,5725,0,63,33
0.09999999999999432,5725,1,63,32
0.10000000000000853,5725,2,63,33
0.09999999999999432,5725,3,63,38
0.09999999999999432,5725,4,63,43
0.09999999999999432,5725,5,63,46
0.09999999999999432,5725,6,63,42
0.09999999999999432,5725,7,63,53
0.10000000000000853,5725,8,63,40
0.09999999999999432,5725,9,63,50
0.10000000000000853,5725,10,63,43
0.10000000000000853,5725,11,63,55
0.10000000000000853,5725,12,63,46
0.10000000000000853,5725,13,63,37
0.09999999999999432,5725,14,63,33
0.09999999999999432,5725,15,63,41
0.10000000000000853,5726,0,63,42
0.09999999999999432,5726,1,63,45
0.09999999999999432,5726,2,63,49
0.09999999999999432,5726,3,63,60
0.09999999999999432,5726,4,63,39
0.09999999999999432,5726,5,63,34
0.09999999999999432,5726,6,63,33
0.09999999999999432,5726,7,63,34
0.10000000000000853,5726,8,63,28
0.10000000000000853,5726,9,63,40
0.09999999999999432,5726,10,63,40
0.10000000000000853,5726,11,63,47
0.10000000000000853,5726,12,63,39
0.10000000000000853,5726,13,63,46
0.09999999999999432,5726,14,63,40
0.10000000000000853,5726,15,63,58
0.09999999999999432,5727,0,63,39
0.10000000000000853,5727,1,63,54
0.09999999999999432,5727,2,63,46
0.10000000000000853,5727,3,63,43
0.09999999999999432,5727,4,63,42
0.09999999999999432,5727,5,63,39
0.10000000000000853,5727,6,63,52
0.10000000000000853,5727,7,63,46
0.09999999999999432,5727,8,63,42
0.09999999999999432,5727,9,63,39
0.09999999999999432,5727,10,63,44
0.09999999999999432,5727,11,63,50
0.09999999999999432,5727,12,63,69
0.09999999999999432,5727,13,63,51
0.09999999999999432,5727,14,63,64
0.10000000000000853,5727,15,63,67
0.09999999999999432,5728,0,63,68
0.09999999999999432,5728,1,63,95
0.09999999999999432,5728,2,63,10
0.09999999999999432,5728,3,63,58
0.10000000000000853,5728,4,63,28
0.09999999999999432,5728,5,63,29
0.09999999999999432,5728,6,63,8
0.10000000000000853,5728,7,63,7
0.10000000000000853,5728,8,63,46
0.09999999999999432,5728,9,63,25
0.10000000000000853,5728,10,63,39
0.09999999999999432,5728,11,63,52
0.09999999999999432,5728,12,63,54
0.10000000000000853,5728,13,63,39
0.09999999999999432,5728,14,63,37
0.10000000000000853,5728,15,63,29
0.09999999999999432,5729,0,63,29
0.10000000000000853,5729,1,63,10
0.09999999999999432,5729,2,63,9
0.09999999999999432,5729,3,63,21
0.10000000000000853,5729,4,63,46
0.09999999999999432,5729,5,63,61
0.10000000000000853,5729,6,63,60
0.09999999999999432,5729,7,63,47
0.09999999999999432,5729,8,63,31
0.09999999999999432,5729,9,63,54
0.09999999999999432,5729,10,63,34
0.10000000000000853,5729,11,63,55
0.10000000000000853,5729,12,63,60
0.09999999999999432,5729,13,63,49
0.09999999999999432,5729,14,63,65
0.10000000000000853,5729,15,63,57
0.09999999999999432,5730,0,63,47
0.10000000000000853,5730,1,63,55
0.10000000000000853,5730,2,63,58
0.10000000000000853,5730,3,63,64
0.09999999999999432,5730,4,63,38
0.09999999999999432,5730,5,63,60
0.10000000000000853,5730,6,63,37
0.10000000000000853,5730,7,63,53
0.09999999999999432,5730,8,63,55
0.10000000000000853,5730,9,63,40
0.09999999999999432,5730,10,63,62
0.10000000000000853,5730,11,63,46
0.09999999999999432,5730,12,63,49
0.09999999999999432,5730,13,63,49
0.10000000000000853,5730,14,63,71
0.10000000000000853,5730,15,63,65
0.10000000000000853,5731,0,63,50
0.10000000000000853,5731,1,63,51
0.09999999999999432,5731,2,63,56
0.09999999999999432,5731,3,63,62
0.10000000000000853,5731,4,63,50
0.09999999999999432,5731,5,63,47
0.10000000000000853,5731,6,63,81
0.10000000000000853,5731,7,63,49
0.09999999999999432,5731,8,63,51
0.10000000000000853,5731,9,63,64
0.09999999999999432,5731,10,63,57
0.09999999999999432,5731,11,63,41
0.09999999999999432,5731,12,63,51
0.09999999999999432,5731,13,63,65
0.09999999999999432,5731,14,63,42
0.10000000000000853,5731,15,63,50
0.09999999999999432,5732,0,63,56
0.09999999999999432,5732,1,63,44
0.10000000000000853,5732,2,63,55
0.09999999999999432,5732,3,63,45
0.10000000000000853,5732,4,63,29
0.09999999999999432,5732,5,63,51
0.09999999999999432,5732,6,63,47
0.09999999999999432,5732,7,63,57
0.09999999999999432,5732,8,63,39
0.09999999999999432,5732,9,63,54
0.10000000000000853,5732,10,63,41
0.09999999999999432,5732,11,63,57
0.09999999999999432,5732,12,63,53
0.09999999999999432,5732,13,63,46
0.09999999999999432,5732,14,63,36
0.09999999999999432,5732,15,63,50
0.09999999999999432,5733,0,63,50
0.10000000000000853,5733,1,63,48
0.10000000000000853,5733,2,63,56
0.09999999999999432,5733,3,63,39
0.10000000000000853,5733,4,63,58
0.10000000000000853,5733,5,63,46
0.09999999999999432,5733,6,63,46
0.09999999999999432,5733,7,63,50
0.10000000000000853,5733,8,63,39
0.09999999999999432,5733,9,63,41
0.09999999999999432,5733,10,63,57
0.09999999999999432,5733,11,63,38
0.09999999999999432,5733,12,63,72
0.09999999999999432,5733,13,63,47
0.09999999999999432,5733,14,63,40
0.09999999999999432,5733,15,63,38
0.10000000000000853,5734,0,63,38
0.09999999999999432,5734,1,63,36
0.10000000000000853,5734,2,63,42
0.09999999999999432,5734,3,63,62
0.09999999999999432,5734,4,63,34
0.10000000000000853,5734,5,63,55
0.10000000000000853,5734,6,63,54
0.10000000000000853,5734,7,63,35
0.10000000000000853,5734,8,63,42
0.10000000000002274,5734,9,63,47
0.09999999999999432,5734,10,63,47
0.09999999999999432,5734,11,63,33
0.09999999999999432,5734,12,63,45
0.10000000000002274,5734,13,63,43
0.09999999999999432,5734,14,63,39
0.09999999999999432,5734,15,63,49
0.10000000000002274,5735,0,63,50
0.09999999999999432,5735,1,63,41
0.09999999999999432,5735,2,63,51
0.09999999999999432,5735,3,63,45
0.09999999999999432,5735,4,63,54
0.09999999999999432,5735,5,63,47
0.09999999999999432,5735,6,63,53
0.09999999999999432,5735,7,63,32
0.09999999999999432,5735,8,63,30
0.09999999999999432,5735,9,63,53
0.09999999999999432,5735,10,63,39
0.09999999999999432,5735,11,63,46
0.09999999999999432,5735,12,63,30
0.10000000000002274,5735,13,63,39
0.09999999999999432,5735,14,63,42
0.10000000000002274,5735,15,63,36
0.09999999999999432,5736,0,63,55
0.09999999999999432,5736,1,63,39
0.09999999999999432,5736,2,63,40
0.10000000000002274,5736,3,63,52
0.09999999999999432,5736,4,63,44
0.09999999999999432,5736,5,63,35
0.10000000000002274,5736,6,63,34
0.09999999999999432,5736,7,63,47
0.09999999999999432,5736,8,63,35
0.09999999999999432,5736,9,63,33
0.10000000000002274,5736,10,63,55
0.09999999999999432,5736,11,63,32
0.09999999999999432,5736,12,63,42
0.09999999999999432,5736,13,63,63
0.09999999999999432,5736,14,63,45
0.10000000000002274,5736,15,63,82
0.09999999999999432,5737,0,63,15
0.09999999999999432,5737,1,63,69
0.09999999999999432,5737,2,63,23
0.09999999999999432,5737,3,63,11
0.10000000000002274,5737,4,63,75
0.09999999999999432,5737,5,63,30
0.09999999999999432,5737,6,63,11
0.09999999999999432,5737,7,63,79
0.09999999999999432,5737,8,63,35
0.09999999999999432,5737,9,63,77
0.09999999999999432,5737,10,63,41
0.09999999999999432,5737,11,63,89
0.09999999999999432,5737,12,63,32
0.09999999999999432,5737,13,63,66
0.09999999999999432,5737,14,63,31
0.09999999999999432,5737,15,63,13
0.10000000000002274,5738,0,63,75
0.09999999999999432,5738,1,63,27
0.10000000000002274,5738,2,63,10
0.09999999999999432,5738,3,63,65
0.09999999999999432,5738,4,63,27
0.09999999999999432,5738,5,63,9
0.10000000000002274,5738,6,63,82
0.10000000000002274,5738,7,63,7
0.09999999999999432,5738,8,63,87
0.09999999999999432,5738,9,63,38
0.10000000000002274,5738,10,63,81
0.09999999999999432,5738,11,63,69
0.09999999999999432,5738,12,63,22
0.09999999999999432,5738,13,63,76
0.09999999999999432,5738,14,63,23
0.09999999999999432,5738,15,63,18
0.09999999999999432,5739,0,63,69
0.09999999999999432,5739,1,63,15
0.09999999999999432,5739,2,63,69
0.09999999999999432,5739,3,63,15
0.09999999999999432,5739,4,63,69
0.09999999999999432,5739,5,63,83
0.09999999999999432,5739,6,63,77
0.09999999999999432,5739,7,63,36
0.09999999999999432,5739,8,63,15
0.10000000000002274,5739,9,63,65
0.09999999999999432,5739,10,63,29
0.09999999999999432,5739,11,63,8
0.09999999999999432,5739,12,63,73
0.09999999999999432,5739,13,63,18
0.09999999999999432,5739,14,63,79
0.09999999999999432,5739,15,63,19
0.09999999999999432,5740,0,63,94
0.09999999999999432,5740,1,63,39
0.10000000000002274,5740,2,63,60
0.10000000000002274,5740,3,63,38
0.09999999999999432,5740,4,63,63
0.09999999999999432,5740,5,63,33
0.09999999999999432,5740,6,63,23
0.09999999999999432,5740,7,63,79
0.10000000000002274,5740,8,63,37
0.09999999999999432,5740,9,63,19
0.09999999999999432,5740,10,63,64
0.10000000000002274,5740,11,63,53
0.09999999999999432,5740,12,63,39
0.09999999999999432,5740,13,63,24
0.09999999999999432,5740,14,63,64
0.09999999999999432,5740,15,63,34
0.09999999999999432,5741,0,63,18
0.09999999999999432,5741,1,63,67
0.09999999999999432,5741,2,63,77
0.09999999999999432,5741,3,63,87
0.09999999999999432,5741,4,63,99
0.09999999999999432,5741,5,63,116
0.09999999999999432,5741,6,63,113
0.09999999999999432,5741,7,63,92
0.10000000000002274,5741,8,63,106
0.09999999999999432,5741,9,63,99
0.10000000000002274,5741,10,63,111
0.09999999999999432,5741,11,63,96
0.09999999999999432,5741,12,63,51
0.09999999999999432,5741,13,63,78
0.09999999999999432,5741,14,63,99
0.09999999999999432,5741,15,63,120
0.09999999999999432,5742,0,63,123
0.09999999999999432,5742,1,63,103
0.10000000000002274,5742,2,63,31
0.10000000000002274,5742,3,63,53
0.10000000000002274,5742,4,63,50
0.09999999999999432,5742,5,63,45
0.09999999999999432,5742,6,63,56
0.09999999999999432,5742,7,63,54
0.09999999999999432,5742,8,63,37
0.09999999999999432,5742,9,63,54
0.10000000000002274,5742,10,63,53
0.09999999999999432,5742,11,63,42
0.09999999999999432,5742,12,63,81
0.09999999999999432,5742,13,63,74
0.09999999999999432,5742,14,63,70
0.09999999999999432,5742,15,63,76
0.09999999999999432,5743,0,63,70
0.09999999999999432,5743,1,63,65
0.10000000000002274,5743,2,63,59
0.09999999999999432,5743,3,63,72
0.10000000000002274,5743,4,63,72
0.09999999999999432,5743,5,63,73
0.10000000000002274,5743,6,63,60
0.09999999999999432,5743,7,63,65
0.10000000000002274,5743,8,63,65
0.09999999999999432,5743,9,63,55
0.09999999999999432,5743,10,63,74
0.09999999999999432,5743,11,63,63
0.09999999999999432,5743,12,63,75
0.09999999999999432,5743,13,63,46
0.09999999999999432,5743,14,63,63
0.09999999999999432,5743,15,63,55
0.09999999999999432,5744,0,63,56
0.09999999999999432,5744,1,63,71
0.09999999999999432,5744,2,63,49
0.09999999999999432,5744,3,63,52
0.10000000000002274,5744,4,63,74
0.10000000000002274,5744,5,63,51
0.09999999999999432,5744,6,63,65
0.10000000000002274,5744,7,63,60
0.09999999999999432,5744,8,63,56
0.09999999999999432,5744,9,63,59
0.09999999999999432,5744,10,63,65
0.09999999999999432,5744,11,63,74
0.09999999999999432,5744,12,63,49
0.09999999999999432,5744,13,63,43
0.10000000000002274,5744,14,63,45
0.09999999999999432,5744,15,63,8
0.09999999999999432,5745,0,63,51
0.09999999999999432,5745,1,63,18
0.10000000000002274,5745,2,63,51
0.09999999999999432,5745,3,63,45
0.09999999999999432,5745,4,63,46
0.09999999999999432,5745,5,63,43
0.09999999999999432,5745,6,63,48
0.10000000000002274,5745,7,63,6
0.09999999999999432,5745,8,63,50
0.09999999999999432,5745,9,63,16
0.09999999999999432,5745,10,63,52
0.10000000000002274,5745,11,63,37
0.09999999999999432,5745,12,63,65
0.10000000000000053,5745,13,72,48
0.09999999999999964,5745,14,72,22
0.10000000000000142,5745,15,72,27
0.06818181818181834,5746,0,72,43
0.09999999999999964,5746,1,72,38
0.09999999999999964,5746,2,72,26
0.09999999999999964,5746,3,72,66
0.10000000000000142,5746,4,72,78
0.09999999999999964,5746,5,72,61
0.09999999999999964,5746,6,72,40
0.09999999999999964,5746,7,72,64
0.09999999999999964,5746,8,72,62
0.09999999999999964,5746,9,72,42
0.09999999999999964,5746,10,72,22
0.10000000000000142,5746,11,72,50
0.10000000000000142,5746,12,72,86
0.09999999999999964,5746,13,72,74
0.09999999999999964,5746,14,72,30
0.10000000000000142,5746,15,72,42
0.09999999999999964,5747,0,72,35
0.09999999999999964,5747,1,72,35
0.09999999999999964,5747,2,72,49
0.09999999999999964,5747,3,72,12
0.09999999999999964,5747,4,72,55
0.05681818181818166,5747,5,72,75
0.09999999999999964,5747,6,72,52
0.09999999999999964,5747,7,72,60
0.09999999999999964,5747,8,72,41
0.09999999999999964,5747,9,72,57
0.10000000000000142,5747,10,72,38
0.09999999999999964,5747,11,72,64
0.10000000000000142,5747,12,72,58
0.10000000000000142,5747,13,72,60
0.10000000000000142,5747,14,72,22
0.09999999999999787,5747,15,72,59
0.09999999999999787,5748,0,72,71
0.09999999999999787,5748,1,72,77
0.10000000000000142,5748,2,72,46
0.10000000000000142,5748,3,72,63
0.09999999999999787,5748,4,72,22
0.09999999999999787,5748,5,72,57
0.10000000000000142,5748,6,72,47
0.09999999999999787,5748,7,72,8
0.02499999999999858,5748,8,72,39
0.09999999999999787,5748,9,72,44
0.10000000000000142,5748,10,72,57
0.10000000000000142,5748,11,72,45
0.10000000000000142,5748,12,72,17
0.10000000000000142,5748,13,72,28
0.10000000000000142,5748,14,72,32
0.10000000000000142,5748,15,72,17
0.10000000000000142,5749,0,72,77
0.06818181818182012,5749,1,72,92
0.09999999999999787,5749,2,72,81
0.09999999999999787,5749,3,72,68
0.10000000000000142,5749,4,72,25
0.09999999999999787,5749,5,72,64
0.10000000000000142,5749,6,72,36
0.09999999999999787,5749,7,72,61
0.10000000000000142,5749,8,72,38
0.10000000000000142,5749,9,72,8
0.09999999999999787,5749,10,72,30
0.10000000000000142,5749,11,72,53
0.09999999999999787,5749,12,72,56
0.10000000000000142,5749,13,72,66
0.10000000000000142,5749,14,72,52
0.09999999999999787,5749,15,72,24
0.10000000000000142,5750,0,72,53
0.10000000000000142,5750,1,72,56
0.09999999999999787,5750,2,72,59
0.10000000000000142,5750,3,72,16
0.10000000000000142,5750,4,72,68
0.0022727272727287584,5750,5,72,64
0.10000000000000142,5750,6,72,44
0.10000000000000142,5750,7,72,25
0.10000000000000142,5750,8,72,40
0.09999999999999787,5750,9,72,42
0.10000000000000142,5750,10,72,60
0.10000000000000142,5750,11,72,66
0.10000000000000142,5750,12,72,86
0.10000000000000142,5750,13,72,65
0.10000000000000142,5750,14,72,96
0.09999999999999787,5750,15,72,70
0.10000000000000142,5751,0,72,71
0.10000000000000142,5751,1,72,78
0.10000000000000142,5751,2,72,98
0.09999999999999787,5751,3,72,20
0.10000000000000142,5751,4,72,67
0.09999999999999787,5751,5,72,78
0.09999999999999787,5751,6,72,65
0.10000000000000142,5751,7,72,100
0.09999999999999787,5751,8,72,98
0.09999999999999787,5751,9,72,109
0.10000000000000142,5751,10,72,98
0.10000000000000142,5751,11,72,93
0.09999999999999432,5751,12,72,45
0.10000000000000142,5751,13,72,88
0.09999999999999432,5751,14,72,24
0.10000000000000142,5751,15,72,68
0.10000000000000142,5752,0,72,107
0.10000000000000142,5752,1,72,77
0.10000000000000142,5752,2,72,115
0.09999999999999432,5752,3,72,84
0.10000000000000142,5752,4,72,67
0.10000000000000142,5752,5,72,79
0.02499999999999858,5752,6,72,79
0.10000000000000142,5752,7,72,80
0.09999999999999432,5752,8,72,19
0.10000000000000142,5752,9,72,83
0.10000000000000142,5752,10,72,97
0.10000000000000142,5752,11,72,62
0.10000000000000142,5752,12,72,62
0.10000000000000142,5752,13,72,106
0.10000000000000142,5752,14,72,73
0.10000000000000142,5752,15,72,78
0.09999999999999432,5753,0,72,72
0.10000000000000142,5753,1,72,115
0.10000000000000142,5753,2,72,94
0.10000000000000142,5753,3,72,76
0.06818181818182012,5753,4,72,100
0.10000000000000142,5753,5,72,53
0.10000000000000142,5753,6,72,68
0.10000000000000142,5753,7,72,104
0.10000000000000142,5753,8,72,88
0.10000000000000142,5753,9,72,116
0.09999999999999432,5753,10,72,84
0.10000000000000142,5753,11,72,89
0.09999999999999432,5753,12,72,91
0.10000000000000142,5753,13,72,93
0.10000000000000142,5753,14,72,31
0.10000000000000142,5753,15,72,68
0.10000000000000142,5754,0,72,59
0.10000000000000142,5754,1,72,87
0.10000000000000142,5754,2,72,63
0.09999999999999432,5754,3,72,81
0.09999999999999432,5754,4,72,82
0.03636363636363171,5754,5,72,103
0.10000000000000142,5754,6,72,111
0.10000000000000142,5754,7,72,107
0.09999999999999432,5754,8,72,73
0.09999999999999432,5754,9,72,73
0.10000000000000142,5754,10,72,108
0.10000000000000142,5754,11,72,102
0.10000000000000142,5754,12,72,83
0.10000000000000142,5754,13,72,85
0.10000000000000142,5754,14,72,99
0.09999999999999432,5754,15,72,44
0.10000000000000142,5755,0,72,85
0.10000000000000142,5755,1,72,77
0.10000000000000142,5755,2,72,65
0.09999999999999432,5755,3,72,78
0.10000000000000142,5755,4,72,65
0.10000000000000142,5755,5,72,85
0.09999999999999432,5755,6,72,84
0.10000000000000142,5755,7,72,46
0.10000000000000142,5755,8,72,61
0.09999999999999432,5755,9,72,107
0.10000000000000142,5755,10,72,89
0.10000000000000142,5755,11,72,67
0.10000000000000142,5755,12,72,70
0.10000000000000142,5755,13,72,80
0.10000000000000142,5755,14,72,100
0.10000000000000142,5755,15,72,63
0.10000000000000142,5756,0,72,122
0.09999999999999432,5756,1,72,97
0.09999999999999432,5756,2,72,107
0.10000000000000142,5756,3,72,25
0.10000000000000142,5756,4,72,98
0.10000000000000142,5756,5,72,97
0.10000000000000142,5756,6,72,78
0.09999999999999432,5756,7,72,86
0.09999999999999432,5756,8,72,25
0.10000000000000142,5756,9,72,88
0.09999999999999432,5756,10,72,105
0.10000000000000142,5756,11,72,57
0.10000000000000142,5756,12,72,82
0.10000000000000142,5756,13,72,127
0.10000000000000142,5756,14,72,124
0.10000000000000142,5756,15,72,127
0.10000000000000142,5757,0,72,127
0.10000000000000142,5757,1,72,30
0.09999999999999432,5757,2,72,77
0.10000000000000142,5757,3,72,127
0.10000000000000142,5757,4,72,106
0.10000000000000142,5757,5,72,87
0.09999999999999432,5757,6,72,30
0.10000000000000142,5757,7,72,49
0.10000000000000142,5757,8,72,79
0.09999999999999432,5757,9,72,119
0.10000000000000142,5757,10,72,69
0.10000000000000142,5757,11,72,127
0.09999999999999432,5757,12,72,35
0.09999999999999432,5757,13,72,80
0.09999999999999432,5757,14,72,116
0.10000000000000853,5757,15,72,84
0.10000000000000853,5758,0,72,103
0.10000000000000853,5758,1,72,127
0.10000000000000853,5758,2,72,68
0.09999999999999432,5758,3,72,96
0.09999999999999432,5758,4,72,87
0.09999999999999432,5758,5,72,35
0.09999999999999432,5758,6,72,112
0.09999999999999432,5758,7,72,98
0.10000000000000853,5758,8,72,127
0.09999999999999432,5758,9,72,42
0.09999999999999432,5758,10,72,127
0.09999999999999432,5758,11,72,59
0.09999999999999432,5758,12,72,61
0.10000000000000853,5758,13,72,69
0.09999999999999432,5758,14,72,127
0.09999999999999432,5758,15,72,127
0.09999999999999432,5759,0,72,80
0.004545454545450411,5759,1,72,127
0.09999999999999432,5759,2,72,108
0.10000000000000853,5759,3,72,80
0.09999999999999432,5759,4,72,92
0.10000000000000853,5759,5,72,63
0.10000000000000853,5759,6,72,113
0.09999999999999432,5759,7,72,31
0.09999999999999432,5759,8,72,90
0.09999999999999432,5759,9,72,94
0.10000000000000853,5759,10,72,31
0.09999999999999432,5759,11,72,127
0.09999999999999432,5759,12,72,97
0.09999999999999432,5759,13,72,103
0.09999999999999432,5759,14,72,127
0.10000000000000853,5759,15,72,60
0.10000000000000853,5760,0,72,70
0.09999999999999432,5760,1,72,107
0.09999999999999432,5760,2,72,116
0.09999999999999432,5760,3,72,50
0.024999999999991473,5760,4,72,127
0.10000000000000853,5760,5,72,127
0.10000000000000853,5760,6,72,88
0.09999999999999432,5760,7,72,86
0.09999999999999432,5760,8,72,113
0.10000000000000853,5760,9,72,101
0.09999999999999432,5760,10,72,114
0.09999999999999432,5760,11,72,115
0.09999999999999432,5760,12,72,114
0.09999999999999432,5760,13,72,127
0.09999999999999432,5760,14,72,103
0.09999999999999432,5760,15,72,85
0.09999999999999432,5761,0,72,57
0.10000000000000853,5761,1,72,127
0.09999999999999432,5761,2,72,99
0.10000000000000853,5761,3,72,127
0.10000000000000853,5761,4,72,104
0.09999999999999432,5761,5,72,35
0.10000000000000853,5761,6,72,62
0.004545454545464622,5761,7,72,105
0.09999999999999432,5761,8,72,92
0.09999999999999432,5761,9,72,109
0.09999999999999432,5761,10,72,121
0.09999999999999432,5761,11,72,105
0.09999999999999432,5761,12,72,117
0.10000000000000853,5761,13,72,33
0.09999999999999432,5761,14,72,125
0.01590909090909065,5761,15,72,113
0.10000000000000853,5762,0,72,85
0.09999999999999432,5762,1,72,126
0.10000000000000853,5762,2,72,99
0.10000000000000853,5762,3,72,78
0.10000000000000853,5762,4,72,1
0.09999999999999432,5762,5,72,77
0.09999999999999432,5762,6,72,76
0.01590909090909065,5762,7,72,120
0.09999999999999432,5762,8,72,84
0.10000000000000853,5762,9,72,103
0.09999999999999432,5762,10,72,85
0.10000000000000853,5762,11,72,112
0.09999999999999432,5762,12,72,66
0.10000000000000853,5762,13,72,91
0.09999999999999432,5762,14,72,89
0.10000000000000853,5762,15,72,98
0.09999999999999432,5763,0,72,91
0.10000000000000853,5763,1,72,29
0.10000000000000853,5763,2,72,84
0.056818181818186986,5763,3,72,115
0.09999999999999432,5763,4,72,59
0.09999999999999432,5763,5,72,110
0.09999999999999432,5763,6,72,92
0.09999999999999432,5763,7,72,87
0.09999999999999432,5763,8,72,56
0.09999999999999432,5763,9,72,125
0.09999999999999432,5763,10,72,58
0.09999999999999432,5763,11,72,102
0.09999999999999432,5763,12,72,90
0.10000000000000853,5763,13,72,102
0.10000000000000853,5763,14,72,127
0.10000000000000853,5763,15,72,34
0.09999999999999432,5764,0,72,127
0.09999999999999432,5764,1,72,84
0.10000000000000853,5764,2,72,101
0.09999999999999432,5764,3,72,72
0.06818181818181301,5764,4,72,98
0.10000000000000853,5764,5,72,63
0.09999999999999432,5764,6,72,83
0.10000000000000853,5764,7,72,98
0.10000000000000853,5764,8,72,90
0.09999999999999432,5764,9,72,127
0.09999999999999432,5764,10,72,119
0.09999999999999432,5764,11,72,120
0.09999999999999432,5764,12,72,67
0.10000000000000853,5764,13,72,52
0.09999999999999432,5764,14,72,62
0.09999999999999432,5764,15,72,102
0.09999999999999432,5765,0,72,70
0.09999999999999432,5765,1,72,72
0.09999999999999432,5765,2,72,44
0.09999999999999432,5765,3,72,32
0.10000000000000853,5765,4,72,127
0.10000000000000853,5765,5,72,117
0.09999999999999432,5765,6,72,88
0.09999999999999432,5765,7,72,83
0.09999999999999432,5765,8,72,71
0.09999999999999432,5765,9,72,115
0.10000000000000853,5765,10,72,73
0.09999999999999432,5765,11,72,80
0.09999999999999432,5765,12,72,125
0.10000000000000853,5765,13,72,101
0.10000000000000853,5765,14,72,74
0.10000000000000853,5765,15,72,102
0.09999999999999432,5766,0,72,100
0.10000000000000853,5766,1,72,114
0.10000000000000853,5766,2,72,121
0.036363636363645924,5766,3,72,103
0.10000000000000853,5766,4,72,96
0.09999999999999432,5766,5,72,105
0.09999999999999432,5766,6,72,123
0.09999999999999432,5766,7,72,125
0.10000000000000853,5766,8,72,115
0.09999999999999432,5766,9,72,43
0.10000000000000853,5766,10,72,77
0.10000000000000853,5766,11,72,102
0.09999999999999432,5766,12,72,83
0.10000000000000853,5766,13,72,86
0.09999999999999432,5766,14,72,127
0.10000000000000853,5766,15,72,108
0.09999999999999432,5767,0,72,115
0.10000000000000853,5767,1,72,103
0.10000000000000853,5767,2,72,102
0.09999999999999432,5767,3,72,97
0.10000000000000853,5767,4,72,117
0.09999999999999432,5767,5,72,58
0.10000000000000853,5767,6,72,79
0.09999999999999432,5767,7,72,33
0.09999999999999432,5767,8,72,103
0.03636363636363171,5767,9,72,114
0.09999999999999432,5767,10,72,76
0.10000000000000853,5767,11,72,65
0.09999999999999432,5767,12,72,61
0.09999999999999432,5767,13,72,126
0.0022727272727252057,5767,14,72,74
0.10000000000000853,5767,15,72,86
0.10000000000000853,5768,0,72,116
0.09999999999999432,5768,1,72,124
0.09999999999999432,5768,2,72,122
0.10000000000000853,5768,3,72,99
0.10000000000000853,5768,4,72,101
0.10000000000000853,5768,5,72,118
0.10000000000000853,5768,6,72,111
0.09999999999999432,5768,7,72,76
0.10000000000000853,5768,8,72,13
0.09999999999999432,5768,9,72,75
0.06818181818181301,5768,10,72,117
0.10000000000000853,5768,11,72,116
0.09999999999999432,5768,12,72,125
0.09999999999999432,5768,13,72,127
0.09999999999999432,5768,14,72,64
0.10000000000000853,5768,15,72,127
0.09999999999999432,5769,0,72,99
0.10000000000000853,5769,1,72,95
0.09999999999999432,5769,2,72,112
0.10000000000000853,5769,3,72,114
0.10000000000000853,5769,4,72,127
0.09999999999999432,5769,5,72,77
0.004545454545450411,5769,6,72,127
0.10000000000000853,5769,7,72,127
0.09999999999999432,5769,8,72,97
0.09999999999999432,5769,9,72,127
0.09999999999999432,5769,10,72,127
0.10000000000000853,5769,11,72,127
0.10000000000000853,5769,12,72,95
0.09999999999999432,5769,13,72,101
0.09999999999999432,5769,14,72,82
0.09999999999999432,5769,15,72,107
0.10000000000000853,5770,0,72,127
0.09999999999999432,5770,1,72,100
0.10000000000000853,5770,2,72,103
0.10000000000000853,5770,3,72,78
0.09999999999999432,5770,4,72,127
0.09999999999999432,5770,5,72,127
0.09999999999999432,5770,6,72,127
0.09999999999999432,5770,7,72,102
0.10000000000000853,5770,8,72,120
0.09999999999999432,5770,9,72,101
0.09999999999999432,5770,10,72,70
0.09999999999999432,5770,11,72,108
0.09999999999999432,5770,12,72,95
0.09999999999999432,5770,13,72,48
0.10000000000002274,5770,14,72,109
0.09999999999999432,5770,15,72,104
0.10000000000002274,5771,0,72,84
0.10000000000002274,5771,1,72,121
0.09999999999999432,5771,2,72,33
0.09999999999999432,5771,3,72,116
0.09999999999999432,5771,4,72,126
0.09999999999999432,5771,5,72,89
0.09999999999999432,5771,6,72,127
0.09999999999999432,5771,7,72,121
0.09999999999999432,5771,8,72,73
0.09999999999999432,5771,9,72,127
0.09999999999999432,5771,10,72,105
0.09999999999999432,5771,11,72,119
0.09999999999999432,5771,12,72,127
0.09999999999999432,5771,13,72,121
0.09999999999999432,5771,14,72,119
0.09999999999999432,5771,15,72,92
0.09999999999999432,5772,0,72,91
0.09999999999999432,5772,1,72,106
0.09999999999999432,5772,2,72,127
0.09999999999999432,5772,3,72,98
0.10000000000002274,5772,4,72,73
0.09999999999999432,5772,5,72,97
0.09999999999999432,5772,6,72,125
0.09999999999999432,5772,7,72,88
0.10000000000002274,5772,8,72,58
0.06818181818184144,5772,9,72,89
0.09999999999999432,5772,10,72,102
0.09999999999999432,5772,11,72,97
0.09999999999999432,5772,12,72,125
0.09999999999999432,5772,13,72,114
0.09999999999999432,5772,14,72,120
0.09999999999999432,5772,15,72,102
0.09999999999999432,5773,0,72,110
0.09999999999999432,5773,1,72,100
0.09999999999999432,5773,2,72,91
0.10000000000002274,5773,3,72,78
0.09999999999999432,5773,4,72,89
0.09999999999999432,5773,5,72,78
0.09999999999999432,5773,6,72,116
0.09999999999999432,5773,7,72,29
0.09999999999999432,5773,8,72,62
0.09999999999999432,5773,9,72,114
0.09999999999999432,5773,10,72,105
0.09999999999999432,5773,11,72,88
0.09999999999999432,5773,12,72,101
0.09999999999999432,5773,13,72,72
0.09999999999999432,5773,14,72,74
0.09999999999999432,5773,15,72,109
0.09999999999999432,5774,0,72,121
0.09999999999999432,5774,1,72,33
0.09999999999999432,5774,2,72,89
0.09999999999999432,5774,3,72,77
0.09999999999999432,5774,4,72,96
0.09999999999999432,5774,5,72,127
0.09999999999999432,5774,6,72,81
0.09999999999999432,5774,7,72,123
0.09999999999999432,5774,8,72,101
0.09999999999999432,5774,9,72,127
0.09999999999999432,5774,10,72,38
0.04772727272728616,5774,11,72,106
0.01590909090910486,5774,12,72,127
0.09999999999999432,5774,13,72,103
0.09999999999999432,5774,14,72,114
0.10000000000002274,5774,15,72,81
0.09999999999999432,5775,0,72,122
0.09999999999999432,5775,1,72,30
0.09999999999999432,5775,2,72,65
0.09999999999999432,5775,3,72,89
0.09999999999999432,5775,4,72,127
0.09999999999999432,5775,5,72,78
0.09999999999999432,5775,6,72,67
0.09999999999999432,5775,7,72,89
0.09999999999999432,5775,8,72,93
0.10000000000002274,5775,9,72,109
0.09999999999999432,5775,10,72,72
0.10000000000002274,5775,11,72,82
0.09999999999999432,5775,12,72,75
0.09999999999999432,5775,13,72,94
0.09999999999999432,5775,14,72,110
0.09999999999999432,5775,15,72,108
0.09999999999999432,5776,0,72,71
0.09999999999999432,5776,1,72,72
0.09999999999999432,5776,2,72,111
0.10000000000002274,5776,3,72,96
0.09999999999999432,5776,4,72,107
0.10000000000002274,5776,5,72,121
0.09999999999999432,5776,6,72,105
0.09999999999999432,5776,7,72,110
0.09999999999999432,5776,8,72,76
0.09999999999999432,5776,9,72,127
0.09999999999999432,5776,10,72,76
0.09999999999999432,5776,11,72,127
0.09999999999999432,5776,12,72,127
0.09999999999999432,5776,13,72,127
0.09999999999999432,5776,14,72,78
0.09999999999999432,5776,15,72,70
0.09999999999999432,5777,0,72,125
0.10000000000002274,5777,1,72,109
0.09999999999999432,5777,2,72,42
0.09999999999999432,5777,3,72,120
0.09999999999999432,5777,4,72,97
0.10000000000002274,5777,5,72,107
0.10000000000002274,5777,6,72,113
0.09999999999999432,5777,7,72,94
0.09999999999999432,5777,8,72,127
0.10000000000002274,5777,9,72,127
0.09999999999999432,5777,10,72,72
0.09999999999999432,5777,11,72,71
0.09999999999999432,5777,12,72,97
0.10000000000002274,5777,13,72,97
0.09999999999999432,5777,14,72,104
0.10000000000002274,5777,15,72,61
0.09999999999999432,5778,0,72,91
0.09999999999999432,5778,1,72,73
0.09999999999999432,5778,2,72,58
0.10000000000002274,5778,3,72,56
0.09999999999999432,5778,4,72,66
0.09999999999999432,5778,5,72,67
0.10000000000002274,5778,6,72,86
0.09999999999999432,5778,7,72,74
0.10000000000002274,5778,8,72,89
0.10000000000002274,5778,9,72,52
0.09999999999999432,5778,10,72,55
0.09999999999999432,5778,11,72,75
0.09999999999999432,5778,12,72,98
0.10000000000002274,5778,13,72,40
0.09999999999999432,5778,14,72,76
0.09999999999999432,5778,15,72,79
0.10000000000002274,5779,0,72,78
0.09999999999999432,5779,1,72,92
0.09999999999999432,5779,2,72,36
0.09999999999999432,5779,3,72,60
0.09999999999999432,5779,4,72,71
0.09999999999999432,5779,5,72,72
0.09999999999999432,5779,6,72,99
0.10000000000002274,5779,7,72,94
0.09999999999999432,5779,8,72,97
0.09999999999999432,5779,9,72,83
0.09999999999999432,5779,10,72,52
0.09999999999999432,5779,11,72,79
0.09999999999999432,5779,12,72,68
0.09999999999999432,5779,13,72,70
0.10000000000002274,5779,14,72,30
0.09999999999999432,5779,15,72,58
0.03636363636363171,5780,0,72,85
0.09999999999999432,5780,1,72,61
0.10000000000002274,5780,2,72,66
0.09999999999999432,5780,3,72,91
0.09999999999999432,5780,4,72,92
0.10000000000002274,5780,5,72,87
0.10000000000002274,5780,6,72,84
0.09999999999999432,5780,7,72,24
0.09999999999999432,5780,8,72,65
0.10000000000002274,5780,9,72,64
0.02727272727273089,5780,10,72,82
0.09999999999999432,5780,11,72,92
0.09999999999999432,5780,12,72,72
0.09999999999999432,5780,13,72,46
0.09999999999999432,5780,14,72,64
0.09999999999999432,5780,15,72,70
0.09999999999999432,5781,0,72,99
0.09999999999999432,5781,1,72,10
0.09999999999999432,5781,2,72,52
0.09999999999999432,5781,3,72,58
0.09999999999999432,5781,4,72,72
0.10000000000002274,5781,5,72,69
0.09999999999999432,5781,6,72,46
0.09999999999999432,5781,7,72,32
0.09999999999999432,5781,8,72,38
0.10000000000002274,5781,9,72,45
0.09999999999999432,5781,10,72,57
0.09999999999999432,5781,11,72,53
0.09999999999999432,5781,12,72,29
0.10000000000002274,5781,13,72,36
0.09999999999999432,5781,14,65,1
0.09999999999999432,5781,15,65,1
0.10000000000000853,5782,0,65,1
0.09999999999999432,5782,1,65,1
0.09999999999999432,5782,2,65,1
0.10000000000000853,5782,3,65,1
0.10000000000000853,5782,4,65,4
0.09999999999999432,5782,5,65,6
0.09999999999999432,5782,6,65,4
0.09999999999999432,5782,7,65,8
0.10000000000000853,5782,8,65,7
0.09999999999999432,5782,9,65,7
0.09999999999999432,5782,10,65,6
0.10000000000000853,5782,11,65,8
0.10000000000000853,5782,12,65,6
0.09999999999999432,5782,13,65,4
0.09999999999999432,5782,14,65,1
0.09999999999999432,5782,15,65,4
0.09999999999999432,5783,0,65,5
0.10000000000000853,5783,1,65,14
0.09999999999999432,5783,2,65,3
0.01590909090909065,5783,3,65,8
0.10000000000000853,5783,4,65,6
0.09999999999999432,5783,5,65,11
0.09999999999999432,5783,6,65,9
0.09999999999999432,5783,7,65,5
0.10000000000000853,5783,8,65,6
0.10000000000000853,5783,9,65,1
0.09999999999999432,5783,10,65,3
0.09999999999999432,5783,11,65,1
0.05909090909091219,5783,12,65,4
0.09999999999999432,5783,13,65,8
0.09999999999999432,5783,14,65,10
0.09999999999999432,5783,15,65,11
0.09999999999999432,5784,0,65,4
0.10000000000000853,5784,1,65,7
0.09999999999999432,5784,2,65,6
0.10000000000000853,5784,3,65,16
0.09999999999999432,5784,4,65,11
0.10000000000000853,5784,5,65,10
0.09999999999999432,5784,6,65,10
0.10000000000000853,5784,7,65,4
0.09999999999999432,5784,8,65,9
0.09999999999999432,5784,9,65,8
0.09999999999999432,5784,10,65,6
0.10000000000000853,5784,11,65,3
0.09999999999999432,5784,12,65,7
0.10000000000000853,5784,13,65,5
0.09999999999999432,5784,14,65,13
0.09999999999999432,5784,15,65,1
0.10000000000000853,5785,0,65,5
0.10000000000000853,5785,1,65,1
0.09999999999999432,5785,2,65,2
0.10000000000000853,5785,3,65,1
0.09999999999999432,5785,4,65,6
0.10000000000000853,5785,5,65,12
0.09999999999999432,5785,6,65,9
0.10000000000000853,5785,7,65,9
0.10000000000000853,5785,8,65,8
0.09999999999999432,5785,9,65,7
0.09999999999999432,5785,10,65,8
0.10000000000000853,5785,11,65,1
0.10000000000000853,5785,12,65,8
0.09999999999999432,5785,13,65,6
0.09999999999999432,5785,14,65,9
0.10000000000000853,5785,15,65,3
0.10000000000000853,5786,0,65,4
0.10000000000000853,5786,1,65,3
0.09999999999999432,5786,2,65,2
0.09999999999999432,5786,3,65,1
0.09999999999999432,5786,4,65,1
0.09999999999999432,5786,5,65,2
0.10000000000000853,5786,6,65,1
0.10000000000000853,5786,7,65,1
0.09999999999999432,5786,8,65,1
0.09999999999999432,5786,9,65,2
0.09999999999999432,5786,10,65,2
0.09999999999999432,5786,11,65,1
0.09999999999999432,5786,12,65,2
0.10000000000000853,5786,13,65,1
0.10000000000000853,5786,14,65,2
0.09999999999999432,5786,15,65,1
0.09999999999999432,5787,0,65,1
0.09999999999999432,5787,1,65,3
0.09999999999999432,5787,2,65,4
0.10000000000000853,5787,3,65,5
0.10000000000000853,5787,4,65,5
0.09999999999999432,5787,5,65,10
0.10000000000000853,5787,6,65,6
0.09999999999999432,5787,7,65,6
0.09999999999999432,5787,8,65,2
0.10000000000000853,5787,9,65,4
0.09999999999999432,5787,10,65,6
0.09999999999999432,5787,11,65,1
0.10000000000000853,5787,12,65,1
0.09999999999999432,5787,13,65,3
0.09999999999999432,5787,14,65,4
0.10000000000000853,5787,15,65,3
0.10000000000000853,5788,0,65,1
0.09999999999999432,5788,1,65,5
0.10000000000002274,5788,2,65,9
0.09999999999999432,5788,3,65,5
0.10000000000002274,5788,4,65,5
0.09999999999999432,5788,5,65,4
0.09999999999999432,5788,6,65,2
0.09999999999999432,5788,7,65,3
0.09999999999999432,5788,8,65,2
0.10000000000002274,5788,9,65,4
0.06818181818184144,5788,10,65,9
0.09999999999999432,5788,11,65,10
0.09999999999999432,5788,12,65,2
0.09999999999999432,5788,13,65,7
0.10000000000002274,5788,14,65,3
0.10000000000002274,5788,15,65,3
0.10000000000002274,5789,0,65,2
0.09999999999999432,5789,1,65,3
0.09999999999999432,5789,2,65,3
0.09999999999999432,5789,3,65,9
0.10000000000002274,5789,4,65,1
0.09999999999999432,5789,5,65,5
0.09999999999999432,5789,6,65,4
0.09999999999999432,5789,7,65,3
0.09999999999999432,5789,8,65,3
0.10000000000002274,5789,9,65,4
0.09999999999999432,5789,10,65,4
0.09999999999999432,5789,11,65,7
0.09999999999999432,5789,12,65,7
0.09999999999999432,5789,13,65,3
0.09999999999999432,5789,14,65,3
0.09999999999999432,5789,15,65,4
0.06818181818181301,5790,0,65,6
0.09999999999999432,5790,1,65,2
0.09999999999999432,5790,2,65,5
0.09999999999999432,5790,3,65,8
0.09999999999999432,5790,4,65,4
0.09999999999999432,5790,5,65,6
0.09999999999999432,5790,6,65,3
0.09999999999999432,5790,7,65,10
0.09999999999999432,5790,8,65,10
0.09999999999999432,5790,9,65,10
0.09999999999999432,5790,10,65,3
0.09999999999999432,5790,11,65,7
0.10000000000002274,5790,12,65,7
0.09999999999999432,5790,13,65,4
0.09999999999999432,5790,14,65,8
0.09999999999999432,5790,15,65,5
0.09999999999999432,5791,0,65,7
0.10000000000002274,5791,1,65,3
0.09999999999999432,5791,2,65,2
0.09999999999999432,5791,3,65,7
0.09999999999999432,5791,4,65,3
0.10000000000002274,5791,5,65,8
0.09999999999999432,5791,6,65,4
0.10000000000002274,5791,7,65,4
0.09999999999999432,5791,8,65,8
0.09999999999999432,5791,9,65,6
0.09999999999999432,5791,10,65,3
0.09999999999999432,5791,11,65,2
0.09999999999999432,5791,12,65,6
0.09999999999999432,5791,13,65,5
0.09999999999999432,5791,14,65,5
0.09999999999999432,5791,15,65,4
0.09999999999999432,5792,0,65,4
0.09999999999999432,5792,1,65,6
0.09999999999999432,5792,2,65,6
0.09999999999999432,5792,3,65,10
0.09999999999999432,5792,4,65,2
0.09999999999999432,5792,5,65,5
0.10000000000002274,5792,6,65,4
0.09999999999999964,5792,7,55,83
0.09999999999999964,5792,8,55,71
0.09999999999999964,5792,9,55,84
0.09999999999999964,5792,10,55,75
0.09999999999999964,5792,11,55,76
0.10000000000000142,5792,12,55,76
0.10000000000000142,5792,13,55,70
0.09999999999999964,5792,14,55,82
0.10000000000000142,5792,15,55,80
0.09999999999999964,5793,0,55,88
0.10000000000000142,5793,1,55,79
0.09999999999999787,5793,2,55,69
0.10000000000000142,5793,3,55,64
0.10000000000000142,5793,4,55,64
0.09999999999999787,5793,5,55,83
0.10000000000000142,5793,6,55,58
0.09999999999999787,5793,7,55,77
0.09999999999999787,5793,8,55,58
0.09999999999999787,5793,9,55,60
0.09999999999999787,5793,10,55,90
0.10000000000000142,5793,11,55,69
0.10000000000000142,5793,12,55,34
0.06818181818182012,5793,13,55,40
0.10000000000000142,5793,14,55,32
0.10000000000000142,5793,15,55,27
0.03636363636363882,5794,0,55,47
0.09999999999999432,5794,1,55,39
0.10000000000000142,5794,2,55,51
0.09999999999999432,5794,3,55,40
0.03409090909090651,5794,4,55,41
0.09999999999999432,5794,5,55,48
0.059090909090905086,5794,6,55,58
0.10000000000000142,5794,7,55,42
0.10000000000000142,5794,8,55,46
0.02499999999999858,5794,9,55,39
0.10000000000000142,5794,10,55,35
0.10000000000000142,5794,11,55,41
0.05681818181817988,5794,12,55,41
0.10000000000000142,5794,13,55,26
0.02499999999999858,5794,14,55,43
0.10000000000000142,5794,15,55,47
0.09999999999999432,5795,0,55,56
0.10000000000000142,5795,1,55,35
0.10000000000000142,5795,2,55,49
0.10000000000000142,5795,3,55,48
0.10000000000000142,5795,4,55,52
0.10000000000000142,5795,5,55,66
0.10000000000000142,5795,6,55,41
0.10000000000000142,5795,7,55,28
0.10000000000000142,5795,8,55,25
0.10000000000000142,5795,9,55,25
0.03636363636363171,5795,10,55,62
0.09999999999999432,5795,11,55,42
0.09999999999999432,5795,12,55,48
0.10000000000000142,5795,13,55,53
0.10000000000000142,5795,14,55,64
0.10000000000000142,5795,15,55,49
0.10000000000000142,5796,0,55,64
0.10000000000000142,5796,1,55,74
0.10000000000000142,5796,2,55,53
0.10000000000000142,5796,3,55,49
0.10000000000000142,5796,4,55,47
0.09999999999999432,5796,5,55,57
0.10000000000000142,5796,6,55,38
0.09999999999999432,5796,7,55,50
0.10000000000000142,5796,8,55,54
0.09999999999999432,5796,9,55,44
0.10000000000000142,5796,10,55,52
0.10000000000000142,5796,11,55,52
0.10000000000000142,5796,12,55,53
0.10000000000000142,5796,13,55,59
0.10000000000000142,5796,14,55,47
0.10000000000000142,5796,15,55,45
0.10000000000000142,5797,0,55,43
0.06818181818182012,5797,1,55,37
0.10000000000000142,5797,2,55,63
0.06818181818181301,5797,3,55,67
0.10000000000000142,5797,4,55,59
0.09999999999999432,5797,5,55,47
0.10000000000000142,5797,6,55,44
0.09999999999999432,5797,7,55,57
0.10000000000000142,5797,8,55,57
0.10000000000000142,5797,9,55,44
0.10000000000000853,5797,10,55,48
0.09999999999999432,5797,11,55,29
0.10000000000000853,5797,12,55,25
0.09999999999999432,5797,13,55,20
0.10000000000000853,5797,14,55,72
0.09999999999999432,5797,15,55,23
0.06818181818181301,5798,0,55,51
0.09999999999999432,5798,1,55,44
0.10000000000000853,5798,2,55,59
0.09999999999999432,5798,3,55,67
0.10000000000000853,5798,4,55,51
0.10000000000000853,5798,5,55,89
0.10000000000000853,5798,6,55,71
0.06818181818181301,5798,7,55,61
0.09999999999999432,5798,8,55,43
0.10000000000000853,5798,9,55,69
0.06818181818182723,5798,10,55,58
0.09999999999999432,5798,11,55,66
0.10000000000000853,5798,12,55,12
0.056818181818186986,5798,13,55,54
0.09999999999999432,5798,14,55,45
0.10000000000000853,5798,15,55,24
0.09999999999999432,5799,0,55,50
0.09999999999999432,5799,1,55,40
0.09999999999999432,5799,2,55,29
0.09999999999999432,5799,3,55,48
0.10000000000000853,5799,4,55,47
0.10000000000000853,5799,5,55,92
0.09999999999999432,5799,6,55,63
0.10000000000000853,5799,7,55,94
0.10000000000000853,5799,8,55,51
0.10000000000000853,5799,9,55,94
0.09999999999999432,5799,10,55,48
0.09999999999999432,5799,11,55,80
0.09999999999999432,5799,12,55,60
0.09999999999999432,5799,13,55,87
0.10000000000000853,5799,14,55,54
0.09999999999999432,5799,15,55,75
0.10000000000000853,5800,0,55,54
0.10000000000000853,5800,1,55,79
0.09999999999999432,5800,2,55,36
0.09999999999999432,5800,3,55,67
0.09999999999999432,5800,4,55,47
0.09999999999999432,5800,5,55,77
0.10000000000000853,5800,6,55,59
0.09999999999999432,5800,7,55,42
0.09999999999999432,5800,8,55,64
0.10000000000000853,5800,9,55,54
0.10000000000000853,5800,10,55,20
0.09999999999999432,5800,11,55,67
0.09999999999999432,5800,12,55,31
0.10000000000000853,5800,13,55,65
0.09999999999999432,5800,14,55,32
0.10000000000000853,5800,15,55,60
0.09999999999999432,5801,0,55,45
0.09999999999999432,5801,1,55,96
0.10000000000000853,5801,2,55,64
0.09999999999999432,5801,3,55,98
0.09999999999999432,5801,4,55,21
0.09999999999999432,5801,5,55,47
0.09999999999999432,5801,6,55,31
0.09999999999999432,5801,7,55,49
0.10000000000000853,5801,8,55,42
0.10000000000000853,5801,9,55,31
0.09999999999999432,5801,10,55,43
0.10000000000000853,5801,11,55,53
0.10000000000000853,5801,12,55,95
0.09999999999999432,5801,13,55,64
0.09999999999999432,5801,14,55,90
0.09999999999999432,5801,15,55,41
0.09999999999999432,5802,0,55,85
0.10000000000000853,5802,1,55,46
0.10000000000000853,5802,2,55,56
0.10000000000000853,5802,3,55,44
0.09999999999999432,5802,4,55,36
0.09999999999999432,5802,5,55,45
0.10000000000000853,5802,6,55,43
0.10000000000000853,5802,7,55,48
0.10000000000000853,5802,8,55,35
0.10000000000000853,5802,9,55,81
0.09999999999999432,5802,10,55,53
0.10000000000000853,5802,11,55,49
0.09999999999999432,5802,12,55,45
0.09999999999999432,5802,13,55,72
0.10000000000000853,5802,14,55,59
0.09999999999999432,5802,15,55,21
0.09999999999999432,5803,0,55,52
0.10000000000000853,5803,1,55,65
0.10000000000000853,5803,2,55,68
0.09999999999999432,5803,3,55,73
0.09999999999999432,5803,4,55,65
0.09999999999999432,5803,5,55,62
0.09999999999999432,5803,6,55,70
0.09999999999999432,5803,7,55,65
0.09999999999999432,5803,8,55,63
0.10000000000000853,5803,9,55,62
0.09999999999999432,5803,10,55,45
0.09999999999999432,5803,11,55,48
0.09999999999999432,5803,12,55,62
0.09999999999999432,5803,13,55,31
0.09999999999999432,5803,14,55,33
0.10000000000000853,5803,15,55,19
0.09999999999999432,5804,0,55,53
0.09999999999999432,5804,1,55,45
0.09999999999999432,5804,2,55,53
0.09999999999999432,5804,3,55,39
0.09999999999999432,5804,4,55,63
0.09999999999999432,5804,5,55,29
0.09999999999999432,5804,6,55,33
0.09999999999999432,5804,7,55,19
0.10000000000000853,5804,8,55,42
0.004545454545450411,5804,9,55,17
0.09999999999999432,5804,10,55,48
0.10000000000000853,5804,11,55,36
0.09999999999999432,5804,12,55,60
0.10000000000000853,5804,13,55,35
0.10000000000000853,5804,14,55,74
0.10000000000000853,5804,15,55,25
0.10000000000000853,5805,0,55,62
0.09999999999999432,5805,1,55,96
0.09999999999999432,5805,2,55,37
0.09999999999999432,5805,3,55,84
0.10000000000002274,5805,4,55,89
0.09999999999999432,5805,5,55,76
0.09999999999999432,5805,6,55,82
0.09999999999999432,5805,7,55,76
0.09999999999999432,5805,8,55,56
0.09999999999999432,5805,9,55,79
0.09999999999999432,5805,10,55,45
0.09999999999999432,5805,11,55,85
0.09999999999999432,5805,12,55,101
0.09999999999999432,5805,13,55,107
0.09999999999999432,5805,14,55,95
0.09999999999999432,5805,15,55,81
0.10000000000002274,5806,0,55,71
0.09999999999999432,5806,1,55,88
0.09999999999999432,5806,2,55,43
0.09999999999999432,5806,3,55,67
0.09999999999999432,5806,4,55,81
0.09999999999999432,5806,5,55,66
0.10000000000002274,5806,6,55,102
0.09999999999999432,5806,7,55,85
0.09999999999999432,5806,8,55,105
0.09999999999999432,5806,9,55,94
0.09999999999999432,5806,10,55,47
0.10000000000002274,5806,11,55,49
0.09999999999999432,5806,12,55,91
0.09999999999999432,5806,13,55,80
0.09999999999999432,5806,14,55,111
0.09999999999999432,5806,15,55,45
0.09999999999999432,5807,0,55,58
0.09999999999999432,5807,1,55,82
0.09999999999999432,5807,2,55,44
0.10000000000002274,5807,3,55,73
0.09999999999999432,5807,4,55,76
0.10000000000002274,5807,5,55,59
0.09999999999999432,5807,6,55,87
0.10000000000002274,5807,7,55,72
0.09999999999999432,5807,8,55,61
0.09999999999999432,5807,9,55,87
0.09999999999999432,5807,10,55,47
0.09999999999999432,5807,11,55,57
0.10000000000002274,5807,12,55,73
0.09999999999999432,5807,13,55,59
0.09999999999999432,5807,14,55,55
0.10000000000002274,5807,15,55,68
0.09999999999999432,5808,0,55,68
0.09999999999999432,5808,1,55,59
0.09999999999999432,5808,2,55,60
0.09999999999999432,5808,3,55,81
0.09999999999999432,5808,4,55,50
0.09999999999999432,5808,5,55,62
0.09999999999999432,5808,6,55,56
0.09999999999999432,5808,7,55,51
0.10000000000000142,5808,8,103,112
0.09999999999999964,5808,9,103,105
0.09999999999999964,5808,10,103,110
0.10000000000000142,5808,11,103,90
0.09999999999999964,5808,12,103,53
0.09999999999999964,5808,13,103,71
0.09999999999999964,5808,14,103,110
0.09999999999999964,5808,15,103,36
0.10000000000000142,5809,0,103,11
0.10000000000000142,5809,1,103,72
0.09999999999999964,5809,2,103,64
0.10000000000000142,5809,3,103,101
0.09999999999999964,5809,4,103,73
0.10000000000000142,5809,5,103,14
0.09999999999999964,5809,6,103,57
0.09999999999999964,5809,7,103,9
0.09999999999999964,5809,8,103,2
0.10000000000000142,5809,9,103,79
0.09999999999999964,5809,10,103,76
0.10000000000000142,5809,11,103,67
0.09999999999999964,5809,12,103,65
0.09999999999999964,5809,13,103,9
0.09999999999999964,5809,14,103,71
0.09999999999999964,5809,15,103,72
0.10000000000000142,5810,0,103,105
0.09999999999999964,5810,1,103,70
0.10000000000000142,5810,2,103,13
0.09999999999999964,5810,3,103,57
0.09999999999999964,5810,4,103,13
0.09999999999999964,5810,5,103,3
0.10000000000000142,5810,6,103,69
0.10000000000000142,5810,7,103,70
0.10000000000000142,5810,8,103,82
0.09999999999999787,5810,9,103,56
0.10000000000000142,5810,10,103,68
0.10000000000000142,5810,11,103,8
0.09999999999999787,5810,12,103,79
0.10000000000000142,5810,13,103,75
0.09999999999999787,5810,14,103,100
0.10000000000000142,5810,15,103,63
0.10000000000000142,5811,0,103,11
0.09999999999999787,5811,1,103,54
0.09999999999999787,5811,2,103,12
0.10000000000000142,5811,3,103,2
0.09999999999999787,5811,4,103,69
0.10000000000000142,5811,5,103,74
0.09999999999999787,5811,6,103,21
0.10000000000000142,5811,7,103,3
0.09999999999999787,5811,8,103,63
0.10000000000000142,5811,9,103,8
0.09999999999999787,5811,10,103,92
0.10000000000000142,5811,11,103,72
0.09999999999999787,5811,12,103,111
0.10000000000000142,5811,13,103,64
0.10000000000000142,5811,14,103,13
0.10000000000000142,5811,15,103,71
0.09999999999999787,5812,0,103,15
0.10000000000000142,5812,1,103,4
0.10000000000000142,5812,2,103,118
0.09999999999999432,5812,3,103,125
0.10000000000000142,5812,4,103,125
0.10000000000000142,5812,5,103,127
0.09999999999999432,5812,6,103,127
0.09999999999999432,5812,7,103,127
0.09999999999999432,5812,8,103,121
0.09999999999999432,5812,9,103,127
0.10000000000000142,5812,10,103,14
0.10000000000000142,5812,11,103,127
0.09999999999999432,5812,12,103,7
0.10000000000000142,5812,13,103,123
0.10000000000000142,5812,14,103,12
0.09999999999999432,5812,15,103,3
0.10000000000000142,5813,0,103,119
0.10000000000000142,5813,1,103,6
0.10000000000000142,5813,2,103,7
0.10000000000000142,5813,3,103,6
0.10000000000000142,5813,4,103,106
0.09999999999999432,5813,5,103,9
0.10000000000000142,5813,6,103,127
0.09999999999999432,5813,7,103,12
0.10000000000000142,5813,8,103,4
0.10000000000000142,5813,9,103,127
0.10000000000000142,5813,10,103,8
0.10000000000000142,5813,11,103,94
0.10000000000000142,5813,12,103,10
0.09999999999999432,5813,13,103,5
0.10000000000000142,5813,14,103,127
0.09999999999999432,5813,15,103,7
0.10000000000000142,5814,0,103,7
0.10000000000000142,5814,1,103,4
0.10000000000000142,5814,2,103,88
0.10000000000000142,5814,3,103,8
0.10000000000000142,5814,4,103,127
0.10000000000000142,5814,5,103,13
0.10000000000000142,5814,6,103,2
0.10000000000000142,5814,7,103,127
0.10000000000000142,5814,8,103,7
0.09999999999999432,5814,9,103,113
0.10000000000000142,5814,10,103,12
0.10000000000000142,5814,11,103,3
0.10000000000000142,5814,12,103,127
0.10000000000000142,5814,13,103,5
0.10000000000000142,5814,14,103,8
0.09999999999999432,5814,15,103,3
0.10000000000000142,5815,0,103,104
0.10000000000000142,5815,1,103,10
0.10000000000000142,5815,2,103,127
0.10000000000000142,5815,3,103,15
0.10000000000000142,5815,4,103,4
0.10000000000000142,5815,5,103,127
0.10000000000000142,5815,6,103,7
0.10000000000000142,5815,7,103,91
0.10000000000000142,5815,8,103,10
0.10000000000000142,5815,9,103,4
0.10000000000000142,5815,10,103,127
0.10000000000000142,5815,11,103,4
0.09999999999999432,5815,12,103,8
0.10000000000000142,5815,13,103,4
0.10000000000000142,5815,14,103,115
0.10000000000000142,5815,15,103,8
0.09999999999999432,5816,0,103,127
0.10000000000000142,5816,1,103,13
0.09999999999999432,5816,2,103,4
0.10000000000000142,5816,3,103,127
0.10000000000000142,5816,4,103,7
0.10000000000000142,5816,5,103,121
0.10000000000000142,5816,6,103,10
0.10000000000000142,5816,7,103,5
0.09999999999999432,5816,8,103,127
0.10000000000000142,5816,9,103,5
0.09999999999999432,5816,10,103,8
0.10000000000000142,5816,11,103,5
0.09999999999999432,5816,12,103,96
0.10000000000000142,5816,13,103,9
0.10000000000000142,5816,14,103,127
0.10000000000000142,5816,15,103,13
0.10000000000000142,5817,0,103,5
0.10000000000000142,5817,1,103,127
0.10000000000000142,5817,2,103,8
0.10000000000000142,5817,3,103,65
0.10000000000000142,5817,4,103,12
0.10000000000000142,5817,5,103,5
0.10000000000000142,5817,6,103,111
0.10000000000000142,5817,7,103,127
0.10000000000000142,5817,8,103,124
0.10000000000000142,5817,9,103,127
0.09999999999999432,5817,10,103,93
0.10000000000000142,5817,11,103,127
0.10000000000000142,5817,12,103,108
0.10000000000000142,5817,13,103,83
0.09999999999999432,5817,14,103,11
0.09999999999999432,5817,15,103,96
0.10000000000000142,5818,0,103,99
0.09999999999999432,5818,1,103,127
0.10000000000000142,5818,2,103,88
0.10000000000000142,5818,3,103,127
0.09999999999999432,5818,4,103,127
0.10000000000000142,5818,5,103,88
0.10000000000000142,5818,6,103,127
0.10000000000000142,5818,7,103,116
0.10000000000000142,5818,8,103,78
0.10000000000000142,5818,9,103,11
0.10000000000000142,5818,10,103,4
0.10000000000000142,5818,11,103,90
0.10000000000000142,5818,12,103,6
0.10000000000000142,5818,13,103,8
0.09999999999999432,5818,14,103,3
0.10000000000000142,5818,15,103,74
0.10000000000000142,5819,0,103,7
0.10000000000000142,5819,1,103,114
0.10000000000000142,5819,2,103,9
0.10000000000000142,5819,3,103,3
0.10000000000000142,5819,4,103,110
0.10000000000000142,5819,5,103,7
0.10000000000000142,5819,6,103,75
0.09999999999999432,5819,7,103,8
0.10000000000000142,5819,8,103,3
0.10000000000000853,5819,9,103,112
0.10000000000000853,5819,10,103,7
0.09999999999999432,5819,11,103,5
0.09999999999999432,5819,12,103,4
0.10000000000000853,5819,13,103,72
0.09999999999999432,5819,14,103,6
0.10000000000000853,5819,15,103,127
0.10000000000000853,5820,0,103,10
0.10000000000000853,5820,1,103,2
0.09999999999999432,5820,2,103,83
0.10000000000000853,5820,3,103,9
0.09999999999999432,5820,4,103,79
0.10000000000000853,5820,5,103,8
0.10000000000000853,5820,6,103,2
0.09999999999999432,5820,7,103,114
0.09999999999999432,5820,8,103,7
0.09999999999999432,5820,9,103,7
0.10000000000000853,5820,10,103,3
0.09999999999999432,5820,11,103,79
0.09999999999999432,5820,12,103,7
0.10000000000000853,5820,13,103,111
0.10000000000000853,5820,14,103,9
0.10000000000000853,5820,15,103,4
0.09999999999999432,5821,0,103,112
0.10000000000000853,5821,1,103,9
0.09999999999999432,5821,2,103,74
0.10000000000000853,5821,3,103,9
0.09999999999999432,5821,4,103,3
0.09999999999999432,5821,5,103,127
0.09999999999999432,5821,6,103,92
0.10000000000000853,5821,7,103,9
0.09999999999999432,5821,8,103,127
0.09999999999999432,5821,9,103,9
0.09999999999999432,5821,10,103,3
0.09999999999999432,5821,11,103,118
0.09999999999999432,5821,12,103,8
0.09999999999999432,5821,13,103,76
0.10000000000000853,5821,14,103,10
0.09999999999999432,5821,15,103,3
0.10000000000000853,5822,0,103,107
0.09999999999999432,5822,1,103,6
0.09999999999999432,5822,2,103,7
0.10000000000000853,5822,3,103,3
0.09999999999999432,5822,4,103,82
0.10000000000000853,5822,5,103,8
0.09999999999999432,5822,6,103,122
0.09999999999999432,5822,7,103,8
0.09999999999999432,5822,8,103,4
0.09999999999999432,5822,9,103,116
0.09999999999999432,5822,10,103,7
0.09999999999999432,5822,11,103,61
0.09999999999999432,5822,12,103,8
0.09999999999999432,5822,13,103,3
0.10000000000000853,5822,14,103,122
0.09999999999999432,5822,15,103,6
0.09999999999999432,5823,0,103,6
0.09999999999999432,5823,1,103,2
0.09999999999999432,5823,2,103,69
0.09999999999999432,5823,3,103,8
0.09999999999999432,5823,4,103,120
0.09999999999999432,5823,5,103,9
0.10000000000000853,5823,6,103,3
0.10000000000000853,5823,7,103,118
0.10000000000000853,5823,8,103,6
0.09999999999999432,5823,9,103,72
0.10000000000000853,5823,10,103,5
0.09999999999999432,5823,11,103,3
0.10000000000000853,5823,12,103,127
0.10000000000000853,5823,13,103,127
0.09999999999999432,5823,14,103,68
0.10000000000000853,5823,15,103,107
0.09999999999999432,5824,0,103,9
0.09999999999999432,5824,1,103,3
0.10000000000000853,5824,2,103,116
0.10000000000000853,5824,3,103,6
0.10000000000000853,5824,4,103,80
0.10000000000000853,5824,5,103,7
0.10000000000000853,5824,6,103,2
0.09999999999999432,5824,7,103,127
0.10000000000000853,5824,8,103,6
0.10000000000000853,5824,9,103,4
0.09999999999999432,5824,10,103,127
0.09999999999999432,5824,11,103,73
0.09999999999999432,5824,12,103,127
0.10000000000000853,5824,13,103,7
0.10000000000000853,5824,14,103,8
0.09999999999999432,5824,15,103,2
0.10000000000000853,5825,0,103,127
0.10000000000000853,5825,1,103,6
0.09999999999999432,5825,2,103,76
0.09999999999999432,5825,3,103,5
0.09999999999999432,5825,4,103,126
0.09999999999999432,5825,5,103,5
0.10000000000000853,5825,6,103,4
0.09999999999999432,5825,7,103,127
0.10000000000000853,5825,8,103,87
0.09999999999999432,5825,9,103,127
0.09999999999999432,5825,10,103,5
0.10000000000000853,5825,11,103,5
0.10000000000000853,5825,12,103,2
0.09999999999999432,5825,13,103,120
0.10000000000000853,5825,14,103,7
0.09999999999999432,5825,15,103,90
0.09999999999999432,5826,0,103,3
0.09999999999999432,5826,1,103,1
0.09999999999999432,5826,2,103,127
0.09999999999999432,5826,3,103,7
0.09999999999999432,5826,4,103,4
0.09999999999999432,5826,5,103,126
0.09999999999999432,5826,6,103,83
0.09999999999999432,5826,7,103,127
0.09999999999999432,5826,8,103,6
0.10000000000000853,5826,9,103,5
0.10000000000000853,5826,10,103,1
0.09999999999999432,5826,11,103,127
0.09999999999999432,5826,12,103,6
0.09999999999999432,5826,13,103,93
0.10000000000000853,5826,14,103,7
0.09999999999999432,5826,15,103,1
0.09999999999999432,5827,0,103,122
0.09999999999999432,5827,1,103,3
0.09999999999999432,5827,2,103,127
0.09999999999999432,5827,3,103,101
0.09999999999999432,5827,4,103,124
0.09999999999999432,5827,5,103,7
0.09999999999999432,5827,6,103,5
0.10000000000000853,5827,7,103,2
0.09999999999999432,5827,8,103,127
0.09999999999999432,5827,9,103,6
0.10000000000000853,5827,10,103,74
0.09999999999999432,5827,11,103,4
0.09999999999999432,5827,12,103,2
0.10000000000000853,5827,13,103,116
0.09999999999999432,5827,14,103,9
0.10000000000000853,5827,15,103,101
0.09999999999999432,5828,0,103,77
0.10000000000000853,5828,1,103,88
0.09999999999999432,5828,2,103,10
0.10000000000000853,5828,3,103,97
0.10000000000000853,5828,4,103,74
0.10000000000000853,5828,5,103,10
0.09999999999999432,5828,6,103,108
0.09999999999999432,5828,7,103,7
0.10000000000000853,5828,8,103,100
0.10000000000000853,5828,9,103,68
0.10000000000000853,5828,10,103,101
0.09999999999999432,5828,11,103,8
0.10000000000000853,5828,12,103,88
0.09999999999999432,5828,13,103,72
0.10000000000000853,5828,14,103,7
0.10000000000000853,5828,15,103,94
0.10000000000000853,5829,0,103,9
0.09999999999999432,5829,1,103,95
0.10000000000000853,5829,2,103,75
0.09999999999999432,5829,3,103,85
0.10000000000000853,5829,4,103,9
0.10000000000000853,5829,5,103,92
0.09999999999999432,5829,6,103,69
0.10000000000000853,5829,7,103,8
0.09999999999999432,5829,8,103,95
0.10000000000000853,5829,9,103,76
0.09999999999999432,5829,10,103,6
0.09999999999999432,5829,11,103,120
0.10000000000000853,5829,12,103,9
0.09999999999999432,5829,13,103,112
0.09999999999999432,5829,14,103,70
0.09999999999999432,5829,15,103,7
0.09999999999999432,5830,0,103,54
0.10000000000000853,5830,1,103,6
0.10000000000000853,5830,2,103,1
0.09999999999999432,5830,3,103,80
0.09999999999999432,5830,4,103,6
0.09999999999999432,5830,5,103,108
0.09999999999999432,5830,6,103,7
0.09999999999999432,5830,7,103,1
0.09999999999999432,5830,8,103,100
0.10000000000000853,5830,9,103,72
0.09999999999999432,5830,10,103,6
0.09999999999999432,5830,11,103,1
0.09999999999999432,5830,12,103,104
0.10000000000000853,5830,13,103,6
0.09999999999999432,5830,14,103,76
0.10000000000000853,5830,15,103,5
0.09999999999999432,5831,0,103,99
0.09999999999999432,5831,1,103,6
0.09999999999999432,5831,2,103,98
0.09999999999999432,5831,3,103,4
0.09999999999999432,5831,4,103,71
0.09999999999999432,5831,5,103,4
0.10000000000000853,5831,6,103,101
0.10000000000000853,5831,7,103,3
0.10000000000000853,5831,8,103,6
0.09999999999999432,5831,9,103,69
0.10000000000000853,5831,10,103,5
0.10000000000000853,5831,11,103,105
0.09999999999999432,5831,12,103,7
0.09999999999999432,5831,13,103,1
0.10000000000000853,5831,14,103,108
0.10000000000000853,5831,15,103,65
0.09999999999999432,5832,0,103,6
0.10000000000000853,5832,1,103,101
0.09999999999999432,5832,2,103,93
0.09999999999999432,5832,3,103,87
0.10000000000000853,5832,4,103,73
0.09999999999999432,5832,5,103,102
0.09999999999999432,5832,6,103,106
0.10000000000000853,5832,7,103,93
0.10000000000000853,5832,8,103,89
0.09999999999999432,5832,9,103,98
0.09999999999999432,5832,10,103,99
0.10000000000000853,5832,11,103,80
0.09999999999999432,5832,12,103,104
0.09999999999999432,5832,13,103,86
0.09999999999999432,5832,14,103,118
0.09999999999999432,5832,15,103,83
0.09999999999999432,5833,0,103,6
0.10000000000000853,5833,1,103,114
0.09999999999999432,5833,2,103,8
0.09999999999999432,5833,3,103,103
0.09999999999999432,5833,4,103,35
0.10000000000000853,5833,5,103,6
0.09999999999999432,5833,6,103,1
0.09999999999999432,5833,7,103,116
0.09999999999999432,5833,8,103,2
0.10000000000000853,5833,9,103,6
0.10000000000000853,5833,10,103,72
0.10000000000000853,5833,11,103,5
0.09999999999999432,5833,12,103,96
0.10000000000000853,5833,13,103,7
0.10000000000000853,5833,14,103,2
0.09999999999999432,5833,15,103,95
0.09999999999999432,5834,0,103,2
0.09999999999999432,5834,1,103,65
0.09999999999999432,5834,2,103,5
0.09999999999999432,5834,3,103,1
0.09999999999999432,5834,4,103,103
0.10000000000000853,5834,5,103,6
0.10000000000000853,5834,6,103,1
0.10000000000000853,5834,7,103,59
0.10000000000000853,5834,8,103,5
0.09999999999999432,5834,9,103,107
0.09999999999999432,5834,10,103,7
0.10000000000000853,5834,11,103,2
0.09999999999999432,5834,12,103,105
0.10000000000000853,5834,13,103,2
0.09999999999999432,5834,14,103,65
0.09999999999999432,5834,15,103,6
0.09999999999999432,5835,0,103,102
0.09999999999999432,5835,1,103,5
0.09999999999999432,5835,2,103,1
0.09999999999999432,5835,3,103,66
0.10000000000000853,5835,4,103,5
0.09999999999999432,5835,5,103,102
0.09999999999999432,5835,6,103,6
0.09999999999999432,5835,7,103,1
0.09999999999999432,5835,8,103,97
0.10000000000000853,5835,9,103,76
0.09999999999999432,5835,10,103,9
0.10000000000000853,5835,11,103,99
0.09999999999999432,5835,12,103,92
0.09999999999999432,5835,13,103,110
0.09999999999999432,5835,14,103,11
0.09999999999999432,5835,15,103,63
0.10000000000000853,5836,0,103,71
0.09999999999999432,5836,1,103,8
0.10000000000000853,5836,2,103,89
0.09999999999999432,5836,3,103,8
0.09999999999999432,5836,4,103,78
0.09999999999999432,5836,5,103,7
0.10000000000000853,5836,6,103,86
0.09999999999999432,5836,7,103,9
0.10000000000000853,5836,8,103,82
0.09999999999999432,5836,9,103,83
0.10000000000000853,5836,10,103,7
0.10000000000000853,5836,11,103,109
0.09999999999999432,5836,12,103,24
0.10000000000000853,5836,13,103,108
0.09999999999999432,5836,14,103,18
0.09999999999999432,5836,15,103,113
0.09999999999999432,5837,0,103,102
0.10000000000000853,5837,1,103,68
0.09999999999999432,5837,2,103,93
0.09999999999999432,5837,3,103,7
0.10000000000002274,5837,4,103,97
0.09999999999999432,5837,5,103,84
0.09999999999999432,5837,6,103,6
0.10000000000002274,5837,7,103,101
0.09999999999999432,5837,8,103,7
0.09999999999999432,5837,9,103,1
0.09999999999999432,5837,10,103,64
0.09999999999999432,5837,11,103,5
0.09999999999999432,5837,12,103,103
0.09999999999999432,5837,13,103,6
0.09999999999999432,5837,14,103,106
0.09999999999999432,5837,15,103,78
0.09999999999999432,5838,0,103,5
0.09999999999999432,5838,1,103,98
0.09999999999999432,5838,2,103,6
0.10000000000002274,5838,3,103,70
0.09999999999999432,5838,4,103,1
0.10000000000002274,5838,5,103,97
0.09999999999999432,5838,6,103,6
0.09999999999999432,5838,7,103,107
0.09999999999999432,5838,8,103,74
0.09999999999999432,5838,9,103,5
0.09999999999999432,5838,10,103,103
0.10000000000002274,5838,11,103,5
0.10000000000002274,5838,12,103,83
0.09999999999999432,5838,13,103,4
0.10000000000002274,5838,14,103,89
0.10000000000002274,5838,15,103,7
0.09999999999999432,5839,0,103,99
0.09999999999999432,5839,1,103,70
0.09999999999999432,5839,2,103,4
0.09999999999999432,5839,3,103,102
0.09999999999999432,5839,4,103,84
0.09999999999999432,5839,5,103,102
0.09999999999999432,5839,6,103,7
0.09999999999999432,5839,7,103,113
0.09999999999999432,5839,8,103,89
0.09999999999999432,5839,9,103,5
0.09999999999999432,5839,10,103,109
0.09999999999999432,5839,11,103,6
0.09999999999999432,5839,12,103,79
0.10000000000002274,5839,13,103,4
0.09999999999999432,5839,14,103,93
0.09999999999999432,5839,15,103,5
0.09999999999999432,5840,0,103,104
0.10000000000002274,5840,1,103,87
0.09999999999999432,5840,2,103,5
0.09999999999999432,5840,3,103,103
0.09999999999999432,5840,4,103,5
0.09999999999999432,5840,5,103,77
0.09999999999999432,5840,6,103,4
0.09999999999999432,5840,7,103,97
0.09999999999999432,5840,8,103,7
0.09999999999999432,5840,9,103,100
0.09999999999999432,5840,10,103,83
0.09999999999999432,5840,11,103,5
0.10000000000002274,5840,12,103,95
0.09999999999999432,5840,13,103,1
0.09999999999999432,5840,14,103,61
0.09999999999999432,5840,15,103,4
0.09999999999999432,5841,0,103,95
0.09999999999999432,5841,1,103,6
0.09999999999999432,5841,2,103,115
0.09999999999999432,5841,3,103,91
0.10000000000002274,5841,4,103,4
0.10000000000002274,5841,5,103,116
0.09999999999999432,5841,6,103,5
0.09999999999999432,5841,7,103,80
0.09999999999999432,5841,8,103,5
0.10000000000002274,5841,9,103,93
0.09999999999999432,5841,10,103,5
0.09999999999999432,5841,11,103,57
0.09999999999999432,5841,12,103,75
0.09999999999999432,5841,13,103,8
0.09999999999999432,5841,14,103,25
0.10000000000002274,5841,15,103,92
0.10000000000002274,5842,0,103,78
0.09999999999999432,5842,1,103,5
0.09999999999999432,5842,2,103,103
0.09999999999999432,5842,3,103,8
0.09999999999999432,5842,4,103,86
0.09999999999999432,5842,5,103,50
0.09999999999999432,5842,6,103,4
0.09999999999999432,5842,7,103,86
0.10000000000002274,5842,8,103,3
0.10000000000002274,5842,9,103,57
0.09999999999999432,5842,10,103,4
0.10000000000002274,5842,11,103,92
0.10000000000002274,5842,12,103,8
0.09999999999999432,5842,13,103,84
0.09999999999999432,5842,14,103,41
0.09999999999999432,5842,15,103,3
0.09999999999999432,5843,0,103,82
0.10000000000002274,5843,1,103,4
0.09999999999999432,5843,2,103,47
0.10000000000002274,5843,3,103,4
0.09999999999999432,5843,4,103,85
0.10000000000002274,5843,5,103,7
0.09999999999999432,5843,6,103,83
0.09999999999999432,5843,7,103,60
0.09999999999999432,5843,8,103,4
0.09999999999999432,5843,9,103,84
0.09999999999999432,5843,10,103,4
0.09999999999999432,5843,11,103,56
0.10000000000002274,5843,12,103,3
0.09999999999999432,5843,13,103,88
0.10000000000002274,5843,14,103,8
0.09999999999999432,5843,15,103,80
0.10000000000002274,5844,0,103,59
0.09999999999999432,5844,1,103,4
0.09999999999999432,5844,2,103,89
0.09999999999999432,5844,3,103,54
0.09999999999999432,5844,4,103,4
0.09999999999999432,5844,5,103,94
0.09999999999999432,5844,6,103,7
0.09999999999999432,5844,7,103,82
0.10000000000002274,5844,8,103,65
0.09999999999999432,5844,9,103,3
0.10000000000002274,5844,10,103,85
0.09999999999999432,5844,11,103,4
0.09999999999999432,5844,12,103,62
0.09999999999999432,5844,13,103,3
0.09999999999999432,5844,14,103,93
0.09999999999999432,5844,15,103,7
0.09999999999999432,5845,0,103,87
0.09999999999999432,5845,1,103,61
0.10000000000002274,5845,2,103,4
0.10000000000002274,5845,3,103,77
0.09999999999999432,5845,4,103,3
0.10000000000002274,5845,5,103,77
0.09999999999999432,5845,6,103,4
0.09999999999999432,5845,7,103,51
0.09999999999999432,5845,8,103,10
0.09999999999999432,5845,9,103,60
0.09999999999999432,5845,10,103,39
0.09999999999999432,5845,11,103,8
0.09999999999999432,5845,12,103,60
0.09999999999999432,5845,13,103,43
0.09999999999999432,5845,14,103,41
0.09999999999999432,5845,15,103,59
0.09999999999999432,5846,0,103,37
0.09999999999999432,5846,1,103,46
0.10000000000002274,5846,2,103,13
0.09999999999999432,5846,3,103,65
0.09999999999999432,5846,4,103,13
0.09999999999999432,5846,5,103,67
0.09999999999999432,5846,6,103,17
0.09999999999999432,5846,7,103,6
0.10000000000002274,5846,8,103,48
0.09999999999999432,5846,9,103,8
0.09999999999999432,5846,10,103,14
0.09999999999999432,5846,11,103,3
0.09999999999999432,5846,12,103,62
0.09999999999999432,5846,13,103,10
0.10000000000002274,5846,14,103,64
0.09999999999999432,5846,15,103,15
0.09999999999999432,5847,0,103,50
0.09999999999999432,5847,1,103,5
0.09999999999999432,5847,2,103,10
0.09999999999999432,5847,3,103,56
0.09999999999999432,5847,4,103,14
0.09999999999999432,5847,5,103,55
0.09999999999999432,5847,6,103,17
0.09999999999999432,5847,7,103,4
0.10000000000002274,5847,8,103,51
0.09999999999999432,5847,9,103,9
0.09999999999999432,5847,10,103,14
0.09999999999999432,5847,11,103,3
0.10000000000002274,5847,12,103,69
0.09999999999999432,5847,13,103,11
0.10000000000002274,5847,14,103,63
0.10000000000002274,5847,15,103,13
0.09999999999999432,5848,0,103,53
0.09999999999999432,5848,1,103,5
0.09999999999999432,5848,2,103,14
0.09999999999999432,5848,3,103,57
0.09999999999999432,5848,4,103,15
0.09999999999999432,5848,5,103,59
0.09999999999999432,5848,6,103,15
0.09999999999999432,5848,7,103,4
0.09999999999999432,5848,8,103,57
0.10000000000002274,5848,9,103,64
0.09999999999999998,5848,10,59,10
0.05909090909090908,5848,11,59,27
0.10000000000000009,5848,12,59,25
0.0568181818181821,5848,13,59,36
0.10000000000000009,5848,14,59,15
0.06818181818181834,5848,15,59,28
0.0363636363636366,5849,0,59,35
0.10000000000000053,5849,1,59,17
0.10000000000000053,5849,2,59,6
0.06818181818181834,5849,3,59,10
0.027272727272727337,5849,4,59,18
0.09999999999999964,5849,5,59,20
0.10000000000000053,5849,6,59,9
0.06818181818181834,5849,7,59,29
0.03409090909090917,5849,8,59,46
0.09999999999999964,5849,9,59,13
0.04545454545454497,5849,10,59,20
0.002272727272726982,5849,11,59,23
0.10000000000000142,5849,12,59,42
0.045454545454546746,5849,13,59,116
0.09999999999999964,5849,14,59,65
0.09999999999999964,5849,15,59,52
0.09999999999999964,5850,0,59,70
0.09999999999999964,5850,1,59,50
0.09999999999999964,5850,2,59,69
0.09999999999999964,5850,3,59,93
0.09999999999999964,5850,4,59,101
0.09999999999999964,5850,5,59,71
0.09999999999999964,5850,6,59,68
0.09999999999999964,5850,7,59,53
0.10000000000000142,5850,8,59,60
0.09999999999999964,5850,9,59,55
0.09999999999999964,5850,10,59,61
0.09999999999999964,5850,11,59,40
0.09999999999999964,5850,12,59,61
0.09999999999999964,5850,13,59,83
0.09999999999999964,5850,14,59,64
0.09999999999999964,5850,15,59,48
0.09999999999999964,5851,0,59,54
0.09999999999999964,5851,1,59,62
0.10000000000000142,5851,2,59,63
0.09999999999999964,5851,3,59,84
0.09999999999999964,5851,4,59,52
0.09999999999999964,5851,5,59,67
0.09999999999999964,5851,6,59,77
0.09999999999999964,5851,7,59,56
0.10000000000000142,5851,8,59,54
0.09999999999999787,5851,9,59,61
0.10000000000000142,5851,10,59,54
0.09999999999999787,5851,11,59,41
0.10000000000000142,5851,12,59,77
0.09999999999999787,5851,13,59,80
0.09999999999999787,5851,14,59,61
0.09999999999999787,5851,15,59,61
0.09999999999999787,5852,0,59,61
0.10000000000000142,5852,1,59,53
0.09999999999999787,5852,2,59,50
0.10000000000000142,5852,3,59,39
0.10000000000000142,5852,4,59,51
0.05909090909090864,5852,5,59,61
0.10000000000000142,5852,6,59,49
0.09999999999999787,5852,7,59,51
0.10000000000000142,5852,8,59,49
0.09999999999999787,5852,9,59,55
0.09999999999999787,5852,10,59,49
0.10000000000000142,5852,11,59,47
0.09999999999999787,5852,12,59,71
0.10000000000000142,5852,13,59,56
0.09999999999999787,5852,14,59,64
0.10000000000000142,5852,15,59,78
0.10000000000000142,5853,0,59,45
0.09999999999999787,5853,1,59,55
0.10000000000000142,5853,2,59,41
0.09999999999999787,5853,3,59,36
0.10000000000000142,5853,4,59,29
0.09999999999999787,5853,5,59,55
0.09999999999999787,5853,6,59,45
0.10000000000000142,5853,7,59,30
0.09999999999999787,5853,8,59,16
0.10000000000000142,5853,9,59,35
0.10000000000000142,5853,10,59,36
0.09999999999999787,5853,11,59,20
0.10000000000000142,5853,12,59,30
0.10000000000000142,5853,13,59,48
0.09999999999999787,5853,14,59,28
0.10000000000000142,5853,15,59,32
0.09999999999999787,5854,0,59,53
0.10000000000000142,5854,1,59,35
0.10000000000000142,5854,2,59,30
0.10000000000000142,5854,3,59,19
0.10000000000000142,5854,4,59,42
0.10000000000000142,5854,5,59,33
0.10000000000000142,5854,6,59,24
0.10000000000000142,5854,7,59,34
0.09999999999999787,5854,8,59,28
0.09999999999999787,5854,9,59,22
0.10000000000000142,5854,10,59,13
0.10000000000000142,5854,11,59,52
0.10000000000000142,5854,12,59,40
0.09999999999999787,5854,13,59,30
0.10000000000000142,5854,14,59,15
0.09999999999999787,5854,15,59,48
0.10000000000000142,5855,0,59,37
0.10000000000000142,5855,1,59,21
0.10000000000000142,5855,2,59,39
0.09999999999999787,5855,3,59,46
0.10000000000000142,5855,4,59,36
0.09999999999999787,5855,5,59,23
0.10000000000000142,5855,6,59,57
0.09999999999999787,5855,7,59,31
0.10000000000000142,5855,8,59,30
0.09999999999999787,5855,9,59,21
0.09999999999999787,5855,10,59,43
0.09999999999999787,5855,11,59,27
0.10000000000000142,5855,12,59,18
0.09999999999999787,5855,13,59,37
0.09999999999999787,5855,14,59,25
0.09999999999999787,5855,15,59,20
0.09999999999999787,5856,0,59,19
0.10000000000000142,5856,1,59,45
0.10000000000000142,5856,2,59,33
0.06818181818182012,5856,3,59,37
0.10000000000000142,5856,4,59,17
0.10000000000000142,5856,5,59,47
0.10000000000000142,5856,6,59,29
0.10000000000000142,5856,7,59,18
0.09999999999999432,5856,8,59,34
0.09999999999999432,5856,9,59,33
0.10000000000000142,5856,10,59,28
0.10000000000000142,5856,11,59,13
0.10000000000000142,5856,12,59,44
0.10000000000000142,5856,13,59,32
0.10000000000000142,5856,14,59,20
0.10000000000000142,5856,15,59,9
0.09999999999999432,5857,0,59,33
0.10000000000000142,5857,1,59,31
0.10000000000000142,5857,2,59,21
0.10000000000000142,5857,3,59,43
0.10000000000000142,5857,4,59,25
0.10000000000000142,5857,5,59,32
0.09999999999999432,5857,6,59,26
0.10000000000000142,5857,7,59,32
0.09999999999999432,5857,8,59,26
0.10000000000000142,5857,9,59,25
0.10000000000000142,5857,10,59,16
0.10000000000000142,5857,11,59,44
0.09999999999999432,5857,12,59,32
0.10000000000000142,5857,13,59,21
0.10000000000000142,5857,14,59,41
0.10000000000000142,5857,15,59,25
0.10000000000000142,5858,0,59,26
0.10000000000000142,5858,1,59,23
0.10000000000000142,5858,2,59,41
0.09999999999999432,5858,3,59,26
0.10000000000000142,5858,4,59,27
0.09999999999999432,5858,5,59,20
0.10000000000000142,5858,6,59,34
0.10000000000000142,5858,7,59,30
0.10000000000000142,5858,8,59,26
0.10000000000000142,5858,9,59,33
0.10000000000000142,5858,10,59,32
0.10000000000000142,5858,11,59,30
0.10000000000000142,5858,12,59,14
0.10000000000000142,5858,13,59,46
0.10000000000000142,5858,14,59,30
0.10000000000000142,5858,15,59,31
0.10000000000000142,5859,0,59,14
0.10000000000000142,5859,1,59,37
0.10000000000000142,5859,2,59,43
0.09999999999999432,5859,3,59,18
0.10000000000000142,5859,4,59,44
0.10000000000000142,5859,5,59,28
0.10000000000000142,5859,6,59,30
0.09999999999999432,5859,7,59,17
0.10000000000000142,5859,8,59,48
0.10000000000000142,5859,9,59,27
0.09999999999999432,5859,10,59,28
0.10000000000000142,5859,11,59,22
0.09999999999999432,5859,12,59,46
0.10000000000000142,5859,13,59,56
0.10000000000000142,5859,14,59,26
0.10000000000000142,5859,15,59,38
0.09999999999999432,5860,0,59,46
0.10000000000000142,5860,1,59,43
0.10000000000000142,5860,2,59,27
0.10000000000000142,5860,3,59,34
0.10000000000000142,5860,4,59,41
0.10000000000000142,5860,5,59,40
0.10000000000000142,5860,6,59,23
0.10000000000000142,5860,7,59,34
0.10000000000000142,5860,8,59,47
0.10000000000000142,5860,9,59,28
0.10000000000000142,5860,10,59,35
0.10000000000000142,5860,11,59,29
0.10000000000000142,5860,12,59,27
0.09999999999999432,5860,13,59,18
0.10000000000000142,5860,14,59,36
0.09999999999999432,5860,15,59,32
0.10000000000000142,5861,0,59,34
0.09999999999999432,5861,1,59,16
0.10000000000000142,5861,2,59,30
0.10000000000000142,5861,3,59,37
0.10000000000000142,5861,4,59,31
0.10000000000000142,5861,5,59,43
0.10000000000000142,5861,6,59,23
0.10000000000000142,5861,7,59,27
0.09999999999999432,5861,8,59,20
0.10000000000000142,5861,9,59,47
0.10000000000000142,5861,10,59,30
0.10000000000000142,5861,11,59,27
0.10000000000000142,5861,12,59,19
0.10000000000000142,5861,13,59,46
0.10000000000000142,5861,14,59,44
0.10000000000000142,5861,15,59,28
0.09999999999999432,5862,0,59,29
0.10000000000000142,5862,1,59,33
0.10000000000000142,5862,2,59,27
0.10000000000000142,5862,3,59,30
0.10000000000000142,5862,4,59,44
0.10000000000000142,5862,5,59,29
0.10000000000000142,5862,6,59,25
0.10000000000000142,5862,7,59,18
0.10000000000000142,5862,8,59,33
0.10000000000000142,5862,9,59,20
0.10000000000000142,5862,10,59,21
0.10000000000000142,5862,11,59,50
0.09999999999999432,5862,12,59,67
0.10000000000000142,5862,13,59,50
0.09999999999999432,5862,14,59,52
0.10000000000000142,5862,15,59,56
0.10000000000000142,5863,0,59,57
0.10000000000000142,5863,1,59,35
0.10000000000000142,5863,2,59,47
0.10000000000000142,5863,3,59,52
0.10000000000000142,5863,4,59,31
0.10000000000000142,5863,5,59,40
0.10000000000000142,5863,6,59,28
0.10000000000000142,5863,7,59,33
0.10000000000000142,5863,8,59,27
0.10000000000000142,5863,9,59,32
0.09999999999999432,5863,10,59,29
0.09999999999999432,5863,11,59,33
0.10000000000000142,5863,12,59,29
0.10000000000000142,5863,13,59,27
0.10000000000000142,5863,14,59,30
0.06818181818182012,5863,15,59,39
0.10000000000000142,5864,0,59,27
0.10000000000000142,5864,1,59,25
0.10000000000000142,5864,2,59,30
0.10000000000000142,5864,3,59,20
0.10000000000000142,5864,4,59,31
0.10000000000000142,5864,5,59,26
0.09999999999999432,5864,6,59,32
0.10000000000000142,5864,7,59,23
0.10000000000000142,5864,8,59,29
0.09999999999999432,5864,9,59,35
0.10000000000000853,5864,10,59,27
0.10000000000000853,5864,11,59,20
0.09999999999999432,5864,12,59,24
0.10000000000000853,5864,13,59,25
0.10000000000000853,5864,14,59,19
0.09999999999999432,5864,15,59,23
0.09999999999999432,5865,0,59,39
0.10000000000000853,5865,1,59,28
0.10000000000000853,5865,2,59,22
0.09999999999999432,5865,3,59,18
0.09999999999999432,5865,4,59,29
0.09999999999999432,5865,5,59,34
0.10000000000000853,5865,6,59,31
0.10000000000000853,5865,7,59,38
0.09999999999999432,5865,8,59,24
0.09999999999999432,5865,9,59,29
0.09999999999999432,5865,10,59,35
0.09999999999999432,5865,11,59,38
0.10000000000000853,5865,12,59,28
0.09999999999999432,5865,13,59,22
0.10000000000000853,5865,14,59,33
0.09999999999999432,5865,15,59,40
0.09999999999999432,5866,0,59,37
0.09999999999999432,5866,1,59,39
0.10000000000000853,5866,2,59,37
0.09999999999999432,5866,3,59,30
0.09999999999999432,5866,4,59,31
0.10000000000000853,5866,5,59,22
0.10000000000000853,5866,6,59,21
0.10000000000000853,5866,7,59,30
0.09999999999999432,5866,8,59,39
0.09999999999999432,5866,9,59,35
0.09999999999999432,5866,10,59,36
0.09999999999999432,5866,11,59,21
0.09999999999999432,5866,12,59,33
0.09999999999999432,5866,13,59,25
0.09999999999999432,5866,14,59,27
0.09999999999999432,5866,15,59,26
0.10000000000000853,5867,0,59,19
0.09999999999999432,5867,1,59,24
0.09999999999999432,5867,2,59,29
0.09999999999999432,5867,3,59,28
0.09999999999999432,5867,4,59,30
0.09999999999999432,5867,5,59,23
0.10000000000000853,5867,6,59,39
0.10000000000000853,5867,7,59,33
0.09999999999999432,5867,8,59,30
0.09999999999999432,5867,9,59,27
0.09999999999999432,5867,10,59,25
0.10000000000000853,5867,11,59,11
0.10000000000000853,5867,12,59,18
0.10000000000000853,5867,13,59,13
0.10000000000000853,5867,14,59,20
0.09999999999999432,5867,15,59,14
0.10000000000000853,5868,0,59,4
0.09999999999999432,5868,1,59,13
0.06818181818181301,5868,2,59,21
0.10000000000000853,5868,3,59,17
0.09999999999999432,5868,4,59,15
0.09999999999999432,5868,5,59,19
0.09999999999999432,5868,6,59,23
0.09999999999999432,5868,7,59,24
0.10000000000000853,5868,8,59,16
0.09999999999999432,5868,9,59,25
0.09999999999999432,5868,10,59,16
0.09999999999999432,5868,11,59,21
0.09999999999999432,5868,12,59,11
0.09999999999999432,5868,13,59,25
0.09999999999999432,5868,14,59,11
0.013636363636365445,5868,15,59,5
0.10000000000000853,5869,0,59,5
0.10000000000000853,5869,1,59,21
0.09999999999999432,5869,2,59,17
0.09999999999999432,5869,3,59,31
0.10000000000000853,5869,4,59,27
0.09999999999999432,5869,5,59,22
0.09999999999999432,5869,6,59,20
0.10000000000000853,5869,7,59,33
0.10000000000000853,5869,8,59,24
0.10000000000000853,5869,9,59,13
0.09999999999999432,5869,10,59,22
0.09999999999999432,5869,11,59,20
0.09999999999999432,5869,12,59,7
0.10000000000000853,5869,13,59,14
0.10000000000000853,5869,14,59,19
0.09999999999999432,5869,15,59,14
0.10000000000000853,5870,0,59,16
0.09999999999999432,5870,1,59,15
0.10000000000000853,5870,2,59,19
0.10000000000000853,5870,3,59,22
0.10000000000000853,5870,4,59,31
0.09999999999999432,5870,5,59,19
0.09999999999999432,5870,6,59,20
0.09999999999999432,5870,7,59,32
0.09999999999999432,5870,8,59,29
0.09999999999999432,5870,9,59,26
0.09999999999999432,5870,10,59,12
0.10000000000000853,5870,11,59,8
0.09999999999999432,5870,12,59,19
0.09999999999999432,5870,13,59,25
0.09999999999999432,5870,14,59,22
0.09999999999999432,5870,15,59,26
0.10000000000000853,5871,0,59,22
0.09999999999999432,5871,1,59,18
0.10000000000000853,5871,2,59,16
0.09999999999999432,5871,3,59,11
0.09999999999999432,5871,4,59,19
0.10000000000000853,5871,5,59,11
0.09999999999999432,5871,6,59,5
0.09999999999999432,5871,7,59,9
0.09999999999999432,5871,8,59,20
0.09999999999999432,5871,9,59,15
0.09999999999999432,5871,10,59,20
0.09999999999999432,5871,11,59,12
0.09999999999999432,5871,12,59,28
0.10000000000000853,5871,13,59,26
0.10000000000000853,5871,14,59,18
0.10000000000000853,5871,15,59,13
0.10000000000000853,5872,0,59,15
0.10000000000000853,5872,1,59,16
0.10000000000000853,5872,2,59,23
0.10000000000000853,5872,3,59,22
0.09999999999999432,5872,4,59,14
0.09999999999999432,5872,5,59,15
0.10000000000000853,5872,6,59,5
0.056818181818186986,5872,7,59,7
0.09999999999999432,5872,8,59,8
0.09999999999999432,5872,9,59,10
0.09999999999999432,5872,10,59,13
0.10000000000000853,5872,11,59,7
0.04772727272727195,5872,12,59,29
0.09999999999999432,5872,13,59,17
0.09999999999999432,5872,14,59,17
0.09999999999999432,5872,15,59,26
0.09999999999999432,5873,0,59,17
0.10000000000000853,5873,1,59,9
0.09999999999999432,5873,2,59,15
0.10000000000000853,5873,3,59,14
0.10000000000000853,5873,4,59,7
0.056818181818186986,5873,5,59,16
0.10000000000000853,5873,6,59,6
0.09999999999999432,5873,7,59,12
0.06818181818181301,5873,8,59,15
0.10000000000000853,5873,9,59,9
0.10000000000000853,5873,10,59,4
0.06818181818182723,5873,11,59,6
0.09999999999999432,5873,12,59,4
0.09999999999999432,5873,13,59,15
0.10000000000000853,5873,14,59,15
0.09999999999999432,5873,15,59,34
0.09999999999999432,5874,0,59,36
0.10000000000000853,5874,1,59,30
0.09999999999999432,5874,2,59,23
0.10000000000000853,5874,3,59,22
0.04772727272727195,5874,4,59,38
0.10000000000000853,5874,5,59,48
0.09999999999999432,5874,6,59,45
0.09999999999999432,5874,7,59,35
0.10000000000000853,5874,8,59,34
0.09999999999999432,5874,9,59,29
0.10000000000000853,5874,10,59,40
0.09999999999999432,5874,11,59,37
0.06818181818181301,5874,12,59,36
0.09999999999999432,5874,13,59,29
0.10000000000000853,5874,14,59,31
0.09999999999999432,5874,15,59,45
0.09999999999999432,5875,0,59,48
0.09999999999999432,5875,1,59,50
0.09999999999999432,5875,2,59,27
0.10000000000000853,5875,3,59,39
0.09999999999999432,5875,4,59,33
0.10000000000000853,5875,5,59,39
0.09999999999999432,5875,6,59,37
0.10000000000000853,5875,7,59,23
0.09999999999999432,5875,8,59,21
0.09999999999999432,5875,9,59,20
0.09999999999999432,5875,10,59,34
0.06818181818181301,5875,11,59,37
0.09999999999999432,5875,12,59,28
0.09999999999999432,5875,13,59,28
0.09999999999999432,5875,14,59,22
0.10000000000000853,5875,15,59,25
0.10000000000000853,5876,0,59,26
0.09999999999999432,5876,1,59,27
0.09999999999999432,5876,2,59,29
0.09999999999999432,5876,3,59,30
0.10000000000000853,5876,4,59,24
0.10000000000000853,5876,5,59,29
0.10000000000000853,5876,6,59,27
0.10000000000000853,5876,7,59,42
0.10000000000000853,5876,8,59,30
0.10000000000000853,5876,9,59,21
0.09999999999999432,5876,10,59,23
0.10000000000000853,5876,11,59,34
0.09999999999999432,5876,12,59,34
0.09999999999999432,5876,13,59,31
0.09999999999999432,5876,14,59,27
0.056818181818186986,5876,15,59,31
0.10000000000000853,5877,0,59,29
0.09999999999999432,5877,1,59,34
0.09999999999999432,5877,2,59,31
0.056818181818172775,5877,3,59,31
0.09999999999999432,5877,4,59,27
0.10000000000000853,5877,5,59,21
0.09999999999999432,5877,6,59,27
0.09999999999999432,5877,7,59,28
0.10000000000000853,5877,8,59,47
0.10000000000000853,5877,9,59,48
0.10000000000000853,5877,10,59,42
0.09999999999999432,5877,11,59,49
0.10000000000000853,5877,12,59,41
0.10000000000000853,5877,13,59,43
0.09999999999999432,5877,14,59,49
0.10000000000000853,5877,15,59,57
0.09999999999999432,5878,0,59,39
0.10000000000000853,5878,1,59,16
0.06818181818182723,5878,2,59,15
0.10000000000000853,5878,3,59,29
0.09999999999999432,5878,4,59,35
0.09999999999999432,5878,5,59,31
0.09999999999999432,5878,6,59,23
0.10000000000000853,5878,7,59,44
0.09999999999999432,5878,8,59,35
0.10000000000000853,5878,9,59,32
0.09999999999999432,5878,10,59,35
0.10000000000000853,5878,11,59,31
0.10000000000000853,5878,12,59,36
0.10000000000000853,5878,13,59,35
0.09999999999999432,5878,14,59,23
0.10000000000000853,5878,15,59,50
0.10000000000000853,5879,0,59,30
0.10000000000000853,5879,1,59,28
0.09999999999999432,5879,2,59,31
0.09999999999999432,5879,3,59,45
0.09999999999999432,5879,4,59,27
0.10000000000000853,5879,5,59,42
0.09999999999999432,5879,6,59,34
0.09999999999999432,5879,7,59,35
0.09999999999999432,5879,8,59,43
0.09999999999999432,5879,9,59,41
0.10000000000000853,5879,10,59,34
0.10000000000000853,5879,11,59,38
0.10000000000000853,5879,12,59,32
0.10000000000000853,5879,13,59,30
0.10000000000000853,5879,14,59,40
0.06818181818182723,5879,15,59,47
0.09999999999999432,5880,0,59,32
0.09999999999999432,5880,1,59,44
0.09999999999999432,5880,2,59,42
0.09999999999999432,5880,3,59,35
0.09999999999999432,5880,4,59,36
0.10000000000000853,5880,5,59,34
0.09999999999999432,5880,6,59,27
0.09999999999999432,5880,7,59,32
0.09999999999999432,5880,8,59,34
0.09999999999999432,5880,9,59,48
0.10000000000000853,5880,10,59,34
0.09999999999999432,5880,11,59,38
0.10000000000000853,5880,12,59,32
0.10000000000000853,5880,13,59,39
0.09999999999999432,5880,14,59,33
0.09999999999999432,5880,15,59,23
0.09999999999999432,5881,0,59,32
0.09999999999999432,5881,1,59,31
0.10000000000000853,5881,2,59,24
0.10000000000000853,5881,3,59,23
0.10000000000000853,5881,4,59,33
0.06818181818182723,5881,5,59,35
0.09999999999999432,5881,6,59,36
0.09999999999999432,5881,7,59,33
0.10000000000000853,5881,8,59,37
0.10000000000000853,5881,9,59,29
0.09999999999999432,5881,10,59,27
0.10000000000000853,5881,11,59,32
0.09999999999999432,5881,12,59,36
0.09999999999999432,5881,13,59,23
0.09999999999999432,5881,14,59,26
0.06818181818181301,5881,15,59,29
0.09999999999999432,5882,0,59,28
0.10000000000000853,5882,1,59,34
0.10000000000000853,5882,2,59,41
0.09999999999999432,5882,3,59,28
0.10000000000000853,5882,4,59,26
0.09999999999999432,5882,5,59,31
0.09999999999999432,5882,6,59,29
0.10000000000000853,5882,7,59,35
0.09999999999999432,5882,8,59,42
0.10000000000000853,5882,9,59,38
0.09999999999999432,5882,10,59,28
0.09999999999999432,5882,11,59,29
0.10000000000000853,5882,12,59,29
0.09999999999999432,5882,13,59,32
0.10000000000000853,5882,14,59,25
0.09999999999999432,5882,15,59,31
0.10000000000000853,5883,0,59,29
0.09999999999999432,5883,1,59,30
0.09999999999999432,5883,2,59,40
0.09999999999999432,5883,3,59,47
0.10000000000002274,5883,4,59,40
0.09999999999999432,5883,5,59,36
0.09999999999999432,5883,6,59,40
0.09999999999999432,5883,7,59,40
0.09999999999999432,5883,8,59,43
0.09999999999999432,5883,9,59,32
0.10000000000002274,5883,10,59,24
0.10000000000002274,5883,11,59,29
0.09999999999999432,5883,12,59,37
0.09999999999999432,5883,13,59,43
0.09999999999999432,5883,14,59,41
0.09999999999999432,5883,15,59,32
0.09999999999999432,5884,0,59,33
0.09999999999999432,5884,1,59,29
0.09999999999999432,5884,2,59,37
0.09999999999999432,5884,3,59,31
0.09999999999999432,5884,4,59,37
0.09999999999999432,5884,5,59,33
0.10000000000002274,5884,6,59,29
0.09999999999999432,5884,7,59,28
0.10000000000002274,5884,8,59,32
0.09999999999999432,5884,9,59,37
0.09999999999999432,5884,10,59,30
0.09999999999999432,5884,11,59,29
0.10000000000002274,5884,12,59,27
0.09999999999999432,5884,13,59,29
0.09999999999999432,5884,14,59,30
0.09999999999999432,5884,15,59,22
0.10000000000002274,5885,0,59,28
0.09999999999999432,5885,1,59,26
0.09999999999999432,5885,2,59,18
0.09999999999999432,5885,3,59,32
0.09999999999999432,5885,4,59,33
0.10000000000002274,5885,5,59,34
0.10000000000002274,5885,6,59,32
0.09999999999999432,5885,7,59,33
0.09999999999999432,5885,8,59,47
0.09999999999999432,5885,9,59,45
0.09999999999999432,5885,10,59,31
0.09999999999999432,5885,11,59,32
0.09999999999999432,5885,12,59,32
0.09999999999999432,5885,13,59,33
0.09999999999999432,5885,14,59,27
0.09999999999999432,5885,15,59,39
0.09999999999999432,5886,0,59,31
0.09999999999999432,5886,1,59,43
0.09999999999999432,5886,2,59,30
0.09999999999999432,5886,3,59,36
0.09999999999999432,5886,4,59,32
0.09999999999999432,5886,5,59,25
0.09999999999999432,5886,6,59,29
0.09999999999999432,5886,7,59,28
0.09999999999999432,5886,8,59,22
0.10000000000002274,5886,9,59,31
0.09999999999999432,5886,10,59,31
0.09999999999999432,5886,11,59,26
0.10000000000002274,5886,12,59,29
0.09999999999999432,5886,13,59,34
0.10000000000002274,5886,14,59,24
0.10000000000002274,5886,15,59,34
0.09999999999999432,5887,0,59,50
0.09999999999999432,5887,1,59,33
0.09999999999999432,5887,2,59,37
0.10000000000002274,5887,3,59,34
0.09999999999999432,5887,4,59,27
0.09999999999999432,5887,5,59,33
0.09999999999999432,5887,6,59,51
0.09999999999999432,5887,7,59,21
0.10000000000002274,5887,8,59,25
0.09999999999999432,5887,9,59,51
0.09999999999999432,5887,10,59,41
0.09999999999999432,5887,11,59,48
0.09999999999999432,5887,12,59,45
0.09999999999999432,5887,13,59,38
0.09999999999999432,5887,14,59,36
0.10000000000002274,5887,15,59,34
0.09999999999999432,5888,0,59,27
0.10000000000002274,5888,1,59,44
0.09999999999999432,5888,2,59,36
0.09999999999999432,5888,3,59,35
0.09999999999999432,5888,4,59,37
0.09999999999999432,5888,5,59,32
0.09999999999999432,5888,6,59,33
0.10000000000002274,5888,7,59,21
0.09999999999999432,5888,8,59,34
0.10000000000002274,5888,9,59,36
0.10000000000002274,5888,10,59,31
0.09999999999999432,5888,11,59,32
0.10000000000002274,5888,12,59,32
0.09999999999999432,5888,13,59,36
0.10000000000002274,5888,14,59,32
0.09999999999999432,5888,15,59,24
0.09999999999999432,5889,0,59,35
0.10000000000002274,5889,1,59,27
0.10000000000002274,5889,2,59,32
0.09999999999999432,5889,3,59,49
0.10000000000002274,5889,4,59,32
0.10000000000002274,5889,5,59,17
0.09999999999999432,5889,6,59,15
0.10000000000002274,5889,7,59,36
0.09999999999999432,5889,8,59,29
0.09999999999999432,5889,9,59,21
0.03409090909090651,5889,10,59,34
0.09999999999999432,5889,11,59,18
0.03636363636363171,5889,12,59,24
0.056818181818158564,5889,13,59,27
0.09999999999999432,5889,14,59,21
0.09999999999999432,5889,15,59,55
0.09999999999999432,5890,0,59,15
0.06818181818181301,5890,1,59,22
0.09999999999999432,5890,2,59,39
0.10000000000002274,5890,3,59,18
0.056818181818186986,5890,4,59,28
0.03636363636363171,5890,5,59,42
0.09999999999999432,5890,6,59,14
0.05909090909091219,5890,7,59,19
0.10000000000002274,5890,8,59,31
0.09999999999999432,5890,9,59,32
0.10000000000002274,5890,10,59,44
0.09999999999999432,5890,11,59,49
0.09999999999999432,5890,12,59,32
0.09999999999999432,5890,13,59,31
0.09999999999999432,5890,14,59,36
0.09999999999999432,5890,15,59,24
0.09999999999999432,5891,0,59,28
0.09999999999999432,5891,1,59,38
0.09999999999999432,5891,2,59,50
0.10000000000002274,5891,3,59,28
0.09999999999999432,5891,4,59,38
0.09999999999999432,5891,5,59,38
0.09999999999999432,5891,6,59,34
0.09999999999999432,5891,7,59,33
0.09999999999999432,5891,8,59,30
0.09999999999999432,5891,9,59,33
0.09999999999999432,5891,10,59,40
0.10000000000002274,5891,11,59,43
0.09999999999999432,5891,12,59,32
0.09999999999999432,5891,13,59,42
0.09999999999999432,5891,14,59,41
0.09999999999999432,5891,15,59,32
0.09999999999999432,5892,0,59,26
0.09999999999999432,5892,1,59,24
0.09999999999999432,5892,2,59,19
0.09999999999999432,5892,3,59,43
0.09999999999999432,5892,4,59,33
0.09999999999999432,5892,5,59,36
0.10000000000002274,5892,6,59,26
0.09999999999999432,5892,7,59,22
0.09999999999999432,5892,8,59,30
0.09999999999999432,5892,9,59,34
0.09999999999999432,5892,10,59,35
0.09999999999999432,5892,11,59,51
0.09999999999999432,5892,12,59,50
0.09999999999999432,5892,13,59,32
0.09999999999999432,5892,14,59,23
0.10000000000002274,5892,15,59,18
0.10000000000002274,5893,0,59,34
0.10000000000002274,5893,1,59,36
0.09999999999999432,5893,2,59,26
0.09999999999999432,5893,3,59,24
0.09999999999999432,5893,4,59,30
0.09999999999999432,5893,5,59,32
0.09999999999999432,5893,6,59,34
0.09999999999999432,5893,7,59,25
0.09999999999999432,5893,8,59,24
0.09999999999999432,5893,9,59,40
0.09999999999999432,5893,10,59,27
0.09999999999999432,5893,11,59,29
0.10000000000002274,5893,12,59,29
0.09999999999999432,5893,13,59,24
0.09999999999999432,5893,14,59,25
0.09999999999999432,5893,15,59,25
0.10000000000002274,5894,0,59,21
0.10000000000002274,5894,1,59,24
0.09999999999999432,5894,2,59,74
0.09999999999999432,5894,3,59,86
0.10000000000002274,5894,4,59,88
0.09999999999999432,5894,5,59,78
0.09999999999999432,5894,6,59,86
0.09999999999999432,5894,7,59,79
0.09999999999999432,5894,8,59,78
0.09999999999999432,5894,9,59,46
0.06818181818181301,5894,10,59,35
0.09999999999999432,5894,11,59,38
0.09999999999999432,5894,12,59,72
0.09999999999999432,5894,13,59,83
0.09999999999999432,5894,14,59,68
0.09999999999999432,5894,15,59,80
0.09999999999999432,5895,0,59,85
0.10000000000002274,5895,1,59,92
0.09999999999999432,5895,2,59,85
0.10000000000002274,5895,3,59,71
0.09999999999999432,5895,4,59,68
0.09999999999999432,5895,5,59,55
0.09999999999999432,5895,6,59,60
0.10000000000002274,5895,7,59,45
0.10000000000002274,5895,8,59,59
0.09999999999999432,5895,9,59,68
0.09999999999999432,5895,10,59,73
0.10000000000002274,5895,11,59,58
0.09999999999999432,5895,12,59,62
0.09999999999999432,5895,13,59,71
0.09999999999999432,5895,14,59,79
0.09999999999999432,5895,15,59,61
0.10000000000002274,5896,0,59,53
0.09999999999999432,5896,1,59,54
0.09999999999999432,5896,2,59,47
0.09999999999999432,5896,3,59,37
0.09999999999999432,5896,4,59,60
0.09999999999999432,5896,5,59,38
0.10000000000002274,5896,6,59,49
0.10000000000002274,5896,7,59,68
0.09999999999999432,5896,8,59,71
0.09999999999999432,5896,9,59,69
0.09999999999999432,5896,10,59,61
0.09999999999999432,5896,11,59,57
0.09999999999999432,5896,12,59,38
0.09999999999999432,5896,13,59,40
0.09999999999999432,5896,14,59,40
0.09999999999999432,5896,15,59,47
0.09999999999999432,5897,0,59,56
0.06818181818181301,5897,1,59,57
0.10000000000002274,5897,2,59,58
0.09999999999999432,5897,3,59,59
0.10000000000002274,5897,4,59,58
0.10000000000002274,5897,5,59,81
0.056818181818186986,5897,6,59,93
0.10000000000002274,5897,7,59,71
0.09999999999999432,5897,8,59,79
0.09999999999999432,5897,9,59,72
0.09999999999999432,5897,10,59,77
0.10000000000002274,5897,11,59,81
0.09999999999999432,5897,12,59,49
0.09999999999999432,5897,13,59,72
0.09999999999999432,5897,14,59,63
0.09999999999999432,5897,15,59,82
0.09999999999999432,5898,0,59,49
0.10000000000002274,5898,1,59,44
0.06818181818184144,5898,2,59,47
0.09999999999999787,5898,3,65,4
0.10000000000000142,5898,4,65,33
0.09999999999999787,5898,5,65,18
0.10000000000000142,5898,6,65,14
0.10000000000000142,5898,7,65,11
0.10000000000000142,5898,8,65,17
0.10000000000000142,5898,9,65,33
0.09999999999999787,5898,10,65,32
0.10000000000000142,5898,11,65,19
0.10000000000000142,5898,12,65,21
0.10000000000000142,5898,13,65,28
0.09999999999999787,5898,14,65,17
0.09999999999999787,5898,15,65,25
0.10000000000000142,5899,0,65,12
0.09999999999999787,5899,1,65,9
0.10000000000000142,5899,2,65,15
0.10000000000000142,5899,3,65,17
0.10000000000000142,5899,4,65,38
0.10000000000000142,5899,5,65,30
0.09999999999999787,5899,6,65,15
0.09999999999999432,5899,7,65,1
0.10000000000000142,5899,8,65,1
0.10000000000000142,5899,9,65,1
0.09999999999999432,5899,10,65,1
0.10000000000000142,5899,11,65,1
0.10000000000000142,5899,12,65,1
0.10000000000000142,5899,13,65,1
0.10000000000000142,5899,14,65,1
0.09999999999999432,5899,15,65,1
0.10000000000000142,5900,0,65,1
0.10000000000000142,5900,1,65,2
0.10000000000000142,5900,2,65,3
0.09999999999999432,5900,3,65,4
0.10000000000000142,5900,4,65,6
0.09999999999999432,5900,5,65,7
0.10000000000000142,5900,6,65,4
0.09999999999999432,5900,7,65,10
0.09999999999999432,5900,8,65,11
0.10000000000000142,5900,9,65,6
0.10000000000000142,5900,10,65,7
0.10000000000000142,5900,11,65,10
0.10000000000000142,5900,12,65,3
0.10000000000000142,5900,13,65,9
0.10000000000000142,5900,14,65,8
0.10000000000000142,5900,15,65,8
0.10000000000000142,5901,0,65,9
0.09999999999999432,5901,1,65,10
0.10000000000000142,5901,2,65,8
0.10000000000000142,5901,3,65,5
0.09999999999999432,5901,4,65,3
0.10000000000000142,5901,5,65,4
0.10000000000000142,5901,6,65,4
0.10000000000000142,5901,7,65,3
0.10000000000000142,5901,8,65,10
0.10000000000000142,5901,9,65,4
0.09999999999999432,5901,10,65,3
0.09999999999999432,5901,11,65,2
0.10000000000000142,5901,12,65,3
0.10000000000000142,5901,13,65,10
0.10000000000000142,5901,14,65,14
0.09999999999999432,5901,15,65,9
0.10000000000000142,5902,0,65,7
0.09999999999999432,5902,1,65,9
0.10000000000000142,5902,2,65,4
0.10000000000000142,5902,3,65,11
0.09999999999999432,5902,4,65,8
0.09999999999999432,5902,5,65,9
0.09999999999999432,5902,6,65,6
0.10000000000000853,5902,7,65,6
0.09999999999999432,5902,8,65,10
0.10000000000000853,5902,9,65,10
0.09999999999999432,5902,10,65,6
0.10000000000000853,5902,11,65,4
0.10000000000000853,5902,12,65,10
0.09999999999999432,5902,13,65,10
0.10000000000000853,5902,14,65,8
0.09999999999999432,5902,15,65,8
0.10000000000000853,5903,0,65,7
0.09999999999999432,5903,1,65,6
0.10000000000000853,5903,2,65,13
0.10000000000000853,5903,3,65,6
0.10000000000000853,5903,4,65,7
0.09999999999999432,5903,5,65,10
0.10000000000000853,5903,6,65,8
0.10000000000000853,5903,7,65,11
0.10000000000000853,5903,8,65,9
0.09999999999999432,5903,9,65,8
0.09999999999999432,5903,10,65,4
0.09999999999999432,5903,11,65,9
0.09999999999999432,5903,12,65,8
0.10000000000000853,5903,13,65,10
0.10000000000000853,5903,14,65,16
0.09999999999999432,5903,15,65,11
0.09999999999999432,5904,0,65,10
0.10000000000000853,5904,1,65,12
0.10000000000000853,5904,2,65,5
0.09999999999999432,5904,3,65,12
0.09999999999999432,5904,4,65,12
0.09999999999999432,5904,5,65,7
0.10000000000000853,5904,6,65,10
0.10000000000000853,5904,7,65,6
0.09999999999999432,5904,8,65,6
0.09999999999999432,5904,9,65,9
0.10000000000000853,5904,10,65,10
0.09999999999999432,5904,11,65,9
0.10000000000000853,5904,12,65,12
0.09999999999999432,5904,13,65,7
0.09999999999999432,5904,14,65,7
0.10000000000000853,5904,15,65,4
0.10000000000000853,5905,0,65,14
0.10000000000000853,5905,1,65,13
0.09999999999999432,5905,2,65,17
0.09999999999999432,5905,3,65,24
0.09999999999999432,5905,4,65,24
0.09999999999999432,5905,5,65,20
0.10000000000000853,5905,6,65,30
0.09999999999999432,5905,7,65,25
0.09999999999999432,5905,8,65,24
0.09999999999999432,5905,9,65,18
0.10000000000000853,5905,10,65,19
0.09999999999999432,5905,11,65,12
0.09999999999999432,5905,12,65,10
0.09999999999999432,5905,13,65,14
0.09999999999999432,5905,14,65,17
0.09999999999999432,5905,15,65,26
0.09999999999999432,5906,0,65,17
0.10000000000002274,5906,1,65,22
0.10000000000002274,5906,2,65,16
0.09999999999999432,5906,3,65,11
0.09999999999999432,5906,4,65,17
0.09999999999999432,5906,5,65,13
0.09999999999999432,5906,6,65,15
0.10000000000002274,5906,7,65,24
0.09999999999999432,5906,8,65,18
0.09999999999999432,5906,9,65,10
0.09999999999999432,5906,10,65,22
0.10000000000002274,5906,11,65,14
0.09999999999999432,5906,12,65,17
0.10000000000002274,5906,13,65,26
0.09999999999999432,5906,14,65,19
0.09999999999999432,5906,15,65,19
0.09999999999999432,5907,0,65,14
0.09999999999999432,5907,1,65,10
0.10000000000002274,5907,2,65,14
0.09999999999999432,5907,3,65,19
0.09999999999999964,5907,4,63,8
0.09999999999999964,5907,5,63,26
0.09999999999999964,5907,6,63,15
0.09999999999999964,5907,7,63,7
0.10000000000000142,5907,8,63,7
0.10000000000000142,5907,9,63,2
0.09999999999999964,5907,10,63,6
0.09999999999999964,5907,11,63,5
0.09999999999999964,5907,12,63,7
0.10000000000000142,5907,13,63,5
0.09999999999999964,5907,14,63,4
0.09999999999999964,5907,15,63,6
0.09999999999999964,5908,0,63,8
0.09999999999999964,5908,1,63,11
0.09999999999999964,5908,2,63,5
0.09999999999999964,5908,3,63,4
0.09999999999999964,5908,4,63,4
0.09999999999999964,5908,5,63,7
0.09999999999999964,5908,6,63,17
0.09999999999999964,5908,7,63,25
0.10000000000000142,5908,8,63,3
0.09999999999999964,5908,9,63,6
0.09999999999999964,5908,10,63,5
0.09999999999999964,5908,11,63,9
0.09999999999999964,5908,12,63,25
0.09999999999999964,5908,13,63,26
0.09999999999999964,5908,14,63,5
0.09999999999999964,5908,15,63,3
0.10000000000000142,5909,0,63,6
0.09999999999999787,5909,1,63,3
0.10000000000000142,5909,2,63,8
0.10000000000000142,5909,3,63,7
0.09999999999999787,5909,4,63,6
0.09999999999999787,5909,5,63,8
0.10000000000000142,5909,6,63,19
0.10000000000000142,5909,7,63,6
0.09999999999999787,5909,8,63,4
0.10000000000000142,5909,9,63,8
0.09999999999999787,5909,10,63,37
0.10000000000000142,5909,11,63,44
0.10000000000000142,5909,12,63,9
0.09999999999999787,5909,13,63,6
0.10000000000000142,5909,14,63,5
0.09999999999999787,5909,15,63,15
0.09999999999999787,5910,0,63,27
0.10000000000000142,5910,1,63,37
0.10000000000000142,5910,2,63,35
0.10000000000000142,5910,3,63,10
0.09999999999999787,5910,4,63,23
0.09999999999999787,5910,5,63,17
0.10000000000000142,5910,6,63,31
0.10000000000000142,5910,7,63,17
0.09999999999999787,5910,8,63,19
0.10000000000000142,5910,9,63,36
0.10000000000000142,5910,10,63,35
0.10000000000000142,5910,11,63,30
0.09999999999999787,5910,12,63,30
0.09999999999999787,5910,13,63,32
0.10000000000000142,5910,14,63,37
0.09999999999999787,5910,15,63,34
0.10000000000000142,5911,0,63,33
0.09999999999999787,5911,1,63,28
0.10000000000000142,5911,2,63,19
0.10000000000000142,5911,3,63,37
0.10000000000000142,5911,4,63,29
0.09999999999999787,5911,5,63,29
0.10000000000000142,5911,6,63,16
0.10000000000000142,5911,7,63,17
0.10000000000000142,5911,8,63,26
0.09999999999999787,5911,9,63,47
0.09999999999999787,5911,10,63,45
0.10000000000000142,5911,11,63,34
0.10000000000000142,5911,12,63,38
0.09999999999999787,5911,13,63,36
0.10000000000000142,5911,14,63,27
0.10000000000000142,5911,15,63,36
0.10000000000000142,5912,0,63,33
0.09999999999999787,5912,1,63,36
0.09999999999999787,5912,2,63,34
0.10000000000000142,5912,3,63,27
0.10000000000000142,5912,4,63,27
0.10000000000000142,5912,5,63,28
0.10000000000000142,5912,6,63,47
0.10000000000000142,5912,7,63,48
0.10000000000000142,5912,8,63,31
0.10000000000000142,5912,9,63,31
0.10000000000000142,5912,10,63,42
0.10000000000000142,5912,11,63,36
0.10000000000000142,5912,12,63,38
0.10000000000000142,5912,13,63,28
0.09999999999999432,5912,14,63,42
0.10000000000000142,5912,15,63,56
0.09999999999999432,5913,0,63,37
0.10000000000000142,5913,1,63,48
0.10000000000000142,5913,2,63,67
0.10000000000000142,5913,3,63,35
0.10000000000000142,5913,4,63,51
0.10000000000000142,5913,5,63,38
0.10000000000000142,5913,6,63,38
0.10000000000000142,5913,7,63,44
0.09999999999999432,5913,8,63,53
0.09999999999999432,5913,9,63,19
0.10000000000000142,5913,10,63,35
0.10000000000000142,5913,11,63,25
0.10000000000000142,5913,12,63,29
0.10000000000000142,5913,13,63,31
0.09999999999999432,5913,14,63,30
0.10000000000000142,5913,15,63,30
0.10000000000000142,5914,0,63,19
0.09999999999999432,5914,1,63,25
0.10000000000000142,5914,2,63,34
0.10000000000000142,5914,3,63,22
0.10000000000000142,5914,4,63,35
0.10000000000000142,5914,5,63,31
0.10000000000000142,5914,6,63,28
0.10000000000000142,5914,7,63,36
0.10000000000000142,5914,8,63,36
0.09999999999999432,5914,9,63,28
0.10000000000000142,5914,10,63,41
0.10000000000000142,5914,11,63,22
0.09999999999999432,5914,12,63,30
0.10000000000000142,5914,13,63,45
0.10000000000000142,5914,14,63,28
0.10000000000000142,5914,15,63,39
0.10000000000000142,5915,0,63,43
0.10000000000000142,5915,1,63,35
0.09999999999999432,5915,2,63,33
0.10000000000000142,5915,3,63,25
0.10000000000000142,5915,4,63,41
0.10000000000000142,5915,5,63,21
0.10000000000000142,5915,6,63,24
0.10000000000000142,5915,7,63,29
0.10000000000000142,5915,8,63,25
0.10000000000000142,5915,9,63,21
0.10000000000000142,5915,10,63,33
0.10000000000000142,5915,11,63,21
0.10000000000000142,5915,12,63,30
0.09999999999999432,5915,13,63,24
0.10000000000000142,5915,14,63,28
0.09999999999999432,5915,15,63,41
0.10000000000000142,5916,0,63,33
0.10000000000000142,5916,1,63,22
0.09999999999999432,5916,2,63,32
0.10000000000000142,5916,3,63,40
0.10000000000000142,5916,4,63,47
0.09999999999999432,5916,5,63,43
0.10000000000000142,5916,6,63,28
0.10000000000000142,5916,7,63,31
0.10000000000000142,5916,8,63,39
0.10000000000000142,5916,9,63,42
0.10000000000000142,5916,10,63,51
0.09999999999999432,5916,11,63,24
0.10000000000000142,5916,12,63,21
0.10000000000000142,5916,13,63,27
0.09999999999999432,5916,14,63,29
0.10000000000000142,5916,15,63,22
0.10000000000000142,5917,0,63,24
0.10000000000000142,5917,1,63,18
0.10000000000000142,5917,2,63,27
0.09999999999999432,5917,3,63,31
0.09999999999999432,5917,4,63,43
0.09999999999999432,5917,5,63,23
0.09999999999999432,5917,6,63,31
0.10000000000000853,5917,7,63,20
0.10000000000000853,5917,8,63,13
0.10000000000000853,5917,9,63,18
0.10000000000000853,5917,10,63,24
0.09999999999999432,5917,11,63,25
0.09999999999999432,5917,12,63,21
0.10000000000000853,5917,13,63,21
0.10000000000000853,5917,14,63,20
0.09999999999999432,5917,15,63,31
0.09999999999999432,5918,0,63,20
0.10000000000000853,5918,1,63,30
0.10000000000000853,5918,2,63,25
0.10000000000000853,5918,3,63,29
0.09999999999999432,5918,4,63,19
0.09999999999999432,5918,5,63,26
0.09999999999999432,5918,6,63,16
0.10000000000000853,5918,7,63,18
0.10000000000000853,5918,8,63,24
0.09999999999999432,5918,9,63,30
0.09999999999999432,5918,10,63,31
0.10000000000000853,5918,11,63,23
0.09999999999999432,5918,12,63,22
0.10000000000000853,5918,13,63,37
0.09999999999999432,5918,14,63,39
0.09999999999999432,5918,15,63,36
0.09999999999999432,5919,0,63,32
0.10000000000000853,5919,1,63,30
0.10000000000000853,5919,2,63,18
0.10000000000000853,5919,3,63,28
0.09999999999999432,5919,4,63,42
0.09999999999999432,5919,5,63,26
0.09999999999999432,5919,6,63,24
0.10000000000000853,5919,7,63,32
0.09999999999999432,5919,8,63,19
0.09999999999999432,5919,9,63,27
0.09999999999999432,5919,10,63,35
0.10000000000000853,5919,11,63,22
0.09999999999999432,5919,12,63,30
0.09999999999999432,5919,13,63,12
0.09999999999999432,5919,14,63,29
0.10000000000000853,5919,15,63,18
0.09999999999999432,5920,0,63,14
0.10000000000000853,5920,1,63,16
0.09999999999999432,5920,2,63,18
0.10000000000000853,5920,3,63,26
0.09999999999999432,5920,4,63,22
0.09999999999999432,5920,5,63,51
0.10000000000000853,5920,6,63,13
0.09999999999999432,5920,7,63,29
0.10000000000000853,5920,8,63,31
0.09999999999999432,5920,9,63,38
0.10000000000000853,5920,10,63,36
0.10000000000000853,5920,11,63,27
0.09999999999999432,5920,12,63,24
0.10000000000000853,5920,13,63,21
0.09999999999999432,5920,14,63,16
0.09999999999999432,5920,15,63,20
0.09999999999999432,5921,0,63,17
0.09999999999999432,5921,1,63,19
0.10000000000000853,5921,2,63,17
0.10000000000000853,5921,3,63,15
0.09999999999999432,5921,4,63,21
0.10000000000000853,5921,5,63,13
0.09999999999999432,5921,6,63,33
0.09999999999999432,5921,7,63,27
0.10000000000000853,5921,8,63,21
0.09999999999999432,5921,9,63,46
0.09999999999999432,5921,10,63,22
0.10000000000000853,5921,11,63,38
0.09999999999999432,5921,12,63,46
0.09999999999999432,5921,13,63,29
0.09999999999999432,5921,14,63,29
0.09999999999999432,5921,15,63,51
0.10000000000000853,5922,0,63,39
0.09999999999999432,5922,1,63,56
0.10000000000000853,5922,2,63,31
0.09999999999999432,5922,3,63,49
0.10000000000000853,5922,4,63,46
0.09999999999999432,5922,5,63,39
0.09999999999999432,5922,6,63,21
0.10000000000000853,5922,7,63,18
0.025000000000005684,5922,8,63,27
0.10000000000000853,5922,9,63,23
0.09999999999999432,5922,10,63,30
0.10000000000000853,5922,11,63,33
0.10000000000000853,5922,12,63,31
0.09999999999999432,5922,13,63,36
0.09999999999999432,5922,14,63,35
0.10000000000000853,5922,15,63,27
0.09999999999999432,5923,0,63,40
0.09999999999999432,5923,1,63,38
0.10000000000000853,5923,2,63,40
0.09999999999999432,5923,3,63,28
0.10000000000000853,5923,4,63,20
0.09999999999999432,5923,5,63,17
0.09999999999999432,5923,6,63,4
0.09999999999999432,5923,7,63,17
0.09999999999999432,5923,8,63,28
0.09999999999999998,5923,9,76,32
0.045454545454545525,5923,10,76,79
0.09999999999999998,5923,11,76,88
0.10000000000000009,5923,12,76,102
0.10000000000000009,5923,13,76,83
0.10000000000000009,5923,14,76,83
0.10000000000000009,5923,15,76,85
0.04772727272727284,5924,0,76,69
0.10000000000000009,5924,1,76,88
0.10000000000000009,5924,2,76,60
0.10000000000000009,5924,3,76,65
0.015909090909091095,5924,4,76,100
0.09999999999999964,5924,5,76,76
0.09999999999999964,5924,6,76,3
0.10000000000000009,5924,7,76,46
0.10000000000000009,5924,8,76,54
0.10000000000000009,5924,9,76,91
0.09999999999999964,5924,10,76,49
0.01590909090909065,5924,11,76,84
0.09999999999999964,5924,12,76,109
0.10000000000000053,5924,13,76,88
0.09999999999999964,5924,14,76,69
0.09999999999999964,5924,15,76,54
0.09999999999999964,5925,0,76,67
0.09999999999999964,5925,1,76,81
0.10000000000000053,5925,2,76,108
0.09999999999999964,5925,3,76,7
0.09999999999999964,5925,4,76,57
0.09999999999999964,5925,5,76,34
0.09999999999999964,5925,6,76,61
0.09999999999999964,5925,7,76,51
0.10000000000000053,5925,8,76,82
0.025000000000000355,5925,9,76,80
0.09999999999999964,5925,10,76,77
0.10000000000000053,5925,11,76,62
0.10000000000000053,5925,12,76,59
0.09999999999999964,5925,13,76,68
0.09999999999999964,5925,14,76,87
0.10000000000000053,5925,15,76,49
0.004545454545454852,5926,0,76,80
0.10000000000000053,5926,1,76,54
0.09999999999999964,5926,2,76,88
0.09999999999999964,5926,3,76,49
0.09999999999999964,5926,4,76,45
0.06818181818181834,5926,5,76,71
0.09999999999999964,5926,6,76,118
0.10000000000000142,5926,7,76,85
0.10000000000000142,5926,8,76,51
0.09999999999999964,5926,9,76,122
0.09999999999999964,5926,10,76,54
0.002272727272726982,5926,11,76,103
0.09999999999999964,5926,12,76,100
0.04545454545454497,5926,13,76,106
0.09999999999999964,5926,14,76,111
0.09999999999999964,5926,15,76,99
0.09999999999999964,5927,0,76,99
0.06818181818181834,5927,1,76,69
0.10000000000000142,5927,2,76,33
0.09999999999999787,5927,3,76,104
0.10000000000000142,5927,4,76,127
0.10000000000000142,5927,5,76,97
0.09999999999999787,5927,6,76,127
0.09999999999999787,5927,7,76,108
0.10000000000000142,5927,8,76,57
0.09999999999999787,5927,9,76,18
0.10000000000000142,5927,10,76,54
0.10000000000000142,5927,11,76,110
0.10000000000000142,5927,12,76,106
0.09999999999999787,5927,13,76,127
0.10000000000000142,5927,14,76,100
0.09999999999999787,5927,15,76,87
0.10000000000000142,5928,0,76,101
0.10000000000000142,5928,1,76,71
0.10000000000000142,5928,2,76,24
0.10000000000000142,5928,3,76,78
0.09999999999999787,5928,4,76,107
0.10000000000000142,5928,5,76,98
0.09999999999999787,5928,6,76,114
0.09999999999999787,5928,7,76,67
0.10000000000000142,5928,8,76,58
0.10000000000000142,5928,9,76,94
0.09999999999999432,5928,10,76,100
0.09999999999999432,5928,11,76,12
0.10000000000000142,5928,12,76,44
0.04772727272727195,5928,13,76,79
0.10000000000000142,5928,14,76,72
0.09999999999999432,5928,15,76,81
0.03636363636363171,5929,0,76,50
0.10000000000000142,5929,1,76,92
0.10000000000000142,5929,2,76,39
0.10000000000000142,5929,3,76,94
0.10000000000000142,5929,4,76,18
0.09999999999999432,5929,5,76,71
0.10000000000000142,5929,6,76,81
0.10000000000000142,5929,7,76,95
0.09999999999999432,5929,8,76,88
0.10000000000000142,5929,9,76,89
0.10000000000000142,5929,10,76,83
0.10000000000000142,5929,11,76,83
0.10000000000000142,5929,12,76,81
0.10000000000000142,5929,13,76,16
0.10000000000000142,5929,14,76,28
0.10000000000000142,5929,15,76,64
0.10000000000000142,5930,0,76,80
0.10000000000000142,5930,1,76,76
0.10000000000000142,5930,2,76,104
0.10000000000000142,5930,3,76,17
0.05681818181817988,5930,4,76,42
0.10000000000000142,5930,5,76,96
0.10000000000000142,5930,6,76,84
0.10000000000000142,5930,7,76,56
0.013636363636365445,5930,8,76,97
0.09999999999999432,5930,9,76,85
0.09999999999999432,5930,10,76,110
0.02499999999999858,5930,11,76,97
0.04772727272727195,5930,12,76,69
0.045454545454546746,5930,13,76,51
0.025000000000005684,5930,14,76,84
0.10000000000000142,5930,15,76,83
0.013636363636365445,5931,0,76,80
0.10000000000000142,5931,1,76,116
0.10000000000000142,5931,2,76,93
0.06818181818182012,5931,3,76,89
0.09999999999999432,5931,4,76,105
0.09999999999999432,5931,5,76,127
0.09999999999999432,5931,6,76,116
0.10000000000000142,5931,7,76,89
0.10000000000000142,5931,8,76,85
0.10000000000000142,5931,9,76,78
0.10000000000000142,5931,10,76,127
0.10000000000000142,5931,11,76,117
0.10000000000000142,5931,12,76,90
0.10000000000000142,5931,13,76,104
0.10000000000000142,5931,14,76,22
0.10000000000000142,5931,15,76,120
0.06818181818182012,5932,0,76,127
0.09999999999999432,5932,1,76,99
0.10000000000000142,5932,2,76,94
0.10000000000000142,5932,3,76,124
0.10000000000000142,5932,4,76,77
0.10000000000000142,5932,5,76,85
0.02499999999999858,5932,6,76,118
0.09999999999999432,5932,7,76,127
0.10000000000000142,5932,8,76,76
0.10000000000000142,5932,9,76,67
0.09999999999999432,5932,10,76,78
0.10000000000000142,5932,11,76,15
0.10000000000000142,5932,12,76,87
0.10000000000000142,5932,13,76,117
0.09999999999999432,5932,14,76,99
0.10000000000000142,5932,15,76,104
0.10000000000000142,5933,0,76,91
0.09999999999999432,5933,1,76,123
0.10000000000000142,5933,2,76,127
0.10000000000000142,5933,3,76,101
0.09999999999999432,5933,4,76,17
0.10000000000000142,5933,5,76,69
0.10000000000000142,5933,6,76,113
0.09999999999999432,5933,7,76,79
0.10000000000000142,5933,8,76,102
0.10000000000000142,5933,9,76,68
0.10000000000000142,5933,10,76,85
0.045454545454546746,5933,11,76,111
0.10000000000000142,5933,12,76,127
0.10000000000000142,5933,13,76,113
0.09999999999999432,5933,14,76,125
0.09999999999999432,5933,15,76,108
0.10000000000000142,5934,0,76,127
0.10000000000000142,5934,1,76,75
0.10000000000000142,5934,2,76,87
0.10000000000000142,5934,3,76,94
0.10000000000000142,5934,4,76,88
0.10000000000000142,5934,5,76,59
0.10000000000000142,5934,6,76,117
0.10000000000000142,5934,7,76,91
0.10000000000000142,5934,8,76,123
0.10000000000000142,5934,9,76,105
0.09999999999999432,5934,10,76,77
0.09999999999999432,5934,11,76,105
0.10000000000000142,5934,12,76,46
0.10000000000000142,5934,13,76,98
0.09999999999999432,5934,14,76,84
0.10000000000000142,5934,15,76,96
0.10000000000000142,5935,0,76,105
0.10000000000000142,5935,1,76,13
0.10000000000000142,5935,2,76,80
0.09999999999999432,5935,3,76,73
0.10000000000000142,5935,4,76,22
0.09999999999999432,5935,5,76,69
0.04772727272727195,5935,6,76,112
0.09999999999999432,5935,7,76,113
0.10000000000000853,5935,8,76,114
0.09999999999999432,5935,9,76,114
0.09999999999999432,5935,10,76,76
0.10000000000000853,5935,11,76,107
0.09999999999999432,5935,12,76,93
0.09999999999999432,5935,13,76,98
0.09999999999999432,5935,14,76,121
0.10000000000000853,5935,15,76,125
0.10000000000000853,5936,0,76,97
0.10000000000000853,5936,1,76,41
0.09999999999999432,5936,2,76,88
0.09999999999999432,5936,3,76,73
0.09999999999999432,5936,4,76,125
0.10000000000000853,5936,5,76,127
0.09999999999999432,5936,6,76,88
0.09999999999999432,5936,7,76,78
0.09999999999999432,5936,8,76,127
0.10000000000000853,5936,9,76,108
0.10000000000000853,5936,10,76,91
0.10000000000000853,5936,11,76,104
0.10000000000000853,5936,12,76,119
0.09999999999999432,5936,13,76,88
0.0022727272727252057,5936,14,76,116
0.10000000000000853,5936,15,76,105
0.025000000000005684,5937,0,76,78
0.056818181818186986,5937,1,76,67
0.03636363636363171,5937,2,76,99
0.09999999999999432,5937,3,76,74
0.10000000000000853,5937,4,76,94
0.09999999999999432,5937,5,76,92
0.10000000000000853,5937,6,76,27
0.10000000000000853,5937,7,76,75
0.10000000000000853,5937,8,76,54
0.10000000000000853,5937,9,76,127
0.09999999999999432,5937,10,76,107
0.09999999999999432,5937,11,76,49
0.02727272727273089,5937,12,76,111
0.09999999999999432,5937,13,76,126
0.10000000000000853,5937,14,76,115
0.09999999999999432,5937,15,76,98
0.10000000000000853,5938,0,76,120
0.09999999999999432,5938,1,76,124
0.09999999999999432,5938,2,76,116
0.09999999999999432,5938,3,76,92
0.10000000000000853,5938,4,76,102
0.10000000000000853,5938,5,76,37
0.09999999999999432,5938,6,76,113
0.09999999999999432,5938,7,76,127
0.09999999999999432,5938,8,76,103
0.09999999999999432,5938,9,76,105
0.09999999999999432,5938,10,76,97
0.10000000000000853,5938,11,76,86
0.09999999999999432,5938,12,76,97
0.004545454545450411,5938,13,76,115
0.10000000000000853,5938,14,76,127
0.01590909090909065,5938,15,76,85
0.0022727272727252057,5939,0,76,111
0.09999999999999432,5939,1,76,127
0.09999999999999432,5939,2,76,127
0.10000000000000853,5939,3,76,94
0.09999999999999432,5939,4,76,96
0.10000000000000853,5939,5,76,91
0.09999999999999432,5939,6,76,113
0.09999999999999432,5939,7,76,109
0.09999999999999432,5939,8,76,95
0.09999999999999432,5939,9,76,64
0.09999999999999432,5939,10,76,13
0.09999999999999432,5939,11,76,68
0.10000000000000853,5939,12,76,57
0.10000000000000853,5939,13,76,56
0.10000000000000853,5939,14,76,86
0.09999999999999432,5939,15,76,87
0.10000000000000853,5940,0,76,78
0.09999999999999432,5940,1,76,87
0.10000000000000853,5940,2,76,124
0.09999999999999432,5940,3,76,123
0.09999999999999432,5940,4,76,16
0.09999999999999432,5940,5,76,67
0.09999999999999432,5940,6,76,121
0.03636363636363171,5940,7,76,80
0.09999999999999432,5940,8,76,101
0.09999999999999432,5940,9,76,107
0.09999999999999432,5940,10,76,89
0.09999999999999432,5940,11,76,69
0.10000000000000853,5940,12,76,64
0.09999999999999432,5940,13,76,93
0.10000000000000853,5940,14,76,116
0.10000000000000853,5940,15,76,59
0.10000000000000853,5941,0,76,92
0.09999999999999432,5941,1,76,28
0.10000000000000853,5941,2,76,80
0.10000000000000853,5941,3,76,81
0.09999999999999432,5941,4,76,102
0.09999999999999432,5941,5,76,127
0.024999999999991473,5941,6,76,105
0.10000000000000853,5941,7,76,110
0.10000000000000853,5941,8,76,114
0.09999999999999432,5941,9,76,76
0.10000000000000853,5941,10,76,89
0.09999999999999432,5941,11,76,113
0.09999999999999432,5941,12,76,55
0.09999999999999432,5941,13,76,116
0.09999999999999432,5941,14,76,20
0.09999999999999432,5941,15,76,86
0.09999999999999432,5942,0,76,99
0.09999999999999432,5942,1,76,69
0.10000000000000853,5942,2,76,109
0.09999999999999432,5942,3,76,90
0.10000000000000853,5942,4,76,111
0.09999999999999432,5942,5,76,45
0.10000000000000853,5942,6,76,111
0.09999999999999432,5942,7,76,52
0.10000000000000853,5942,8,76,127
0.09999999999999432,5942,9,76,98
0.09999999999999432,5942,10,76,81
0.09999999999999432,5942,11,76,26
0.09999999999999432,5942,12,76,87
0.056818181818172775,5942,13,76,105
0.09999999999999432,5942,14,76,68
0.09999999999999432,5942,15,76,86
0.09999999999999432,5943,0,76,99
0.10000000000000853,5943,1,76,110
0.10000000000000853,5943,2,76,67
0.09999999999999432,5943,3,76,56
0.09999999999999432,5943,4,76,89
0.09999999999999432,5943,5,76,101
0.10000000000000853,5943,6,76,24
0.09999999999999432,5943,7,76,92
0.05909090909089798,5943,8,76,117
0.09999999999999432,5943,9,76,82
0.09999999999999432,5943,10,76,83
0.09999999999999432,5943,11,76,85
0.09999999999999432,5943,12,76,111
0.09999999999999432,5943,13,76,62
0.10000000000000853,5943,14,76,93
0.10000000000000853,5943,15,76,100
0.10000000000000853,5944,0,76,76
0.10000000000000853,5944,1,76,15
0.09999999999999432,5944,2,76,58
0.09999999999999432,5944,3,76,86
0.09999999999999432,5944,4,76,117
0.10000000000000853,5944,5,76,122
0.10000000000000853,5944,6,76,106
0.013636363636365445,5944,7,76,92
0.10000000000000853,5944,8,76,81
0.10000000000000853,5944,9,76,96
0.09999999999999432,5944,10,76,93
0.10000000000000853,5944,11,76,103
0.09999999999999432,5944,12,76,92
0.09999999999999432,5944,13,76,97
0.09999999999999432,5944,14,76,106
0.09999999999999432,5944,15,76,84
0.09999999999999432,5945,0,76,74
0.09999999999999432,5945,1,76,16
0.004545454545450411,5945,2,76,80
0.09999999999999432,5945,3,76,83
0.09999999999999432,5945,4,76,99
0.09999999999999432,5945,5,76,99
0.09999999999999432,5945,6,76,81
0.10000000000000853,5945,7,76,91
0.10000000000000853,5945,8,76,76
0.10000000000000853,5945,9,76,100
0.10000000000000853,5945,10,76,82
0.09999999999999432,5945,11,76,83
0.09999999999999432,5945,12,76,98
0.09999999999999432,5945,13,76,108
0.09999999999999432,5945,14,76,83
0.09999999999999432,5945,15,76,105
0.09999999999999432,5946,0,76,113
0.10000000000000853,5946,1,76,83
0.09999999999999432,5946,2,76,88
0.09999999999999432,5946,3,76,95
0.09999999999999432,5946,4,76,101
0.09999999999999432,5946,5,76,85
0.09999999999999432,5946,6,76,90
0.09999999999999432,5946,7,76,94
0.10000000000000853,5946,8,76,72
0.09999999999999432,5946,9,76,25
0.10000000000000853,5946,10,76,81
0.09999999999999432,5946,11,76,102
0.09999999999999432,5946,12,76,85
0.09999999999999432,5946,13,76,76
0.09999999999999432,5946,14,76,73
0.10000000000000853,5946,15,76,127
0.10000000000000853,5947,0,76,25
0.09999999999999432,5947,1,76,89
0.09999999999999432,5947,2,76,95
0.09999999999999432,5947,3,76,120
0.10000000000000853,5947,4,76,89
0.10000000000000853,5947,5,76,85
0.025000000000005684,5947,6,76,95
0.013636363636365445,5947,7,76,100
0.09999999999999432,5947,8,76,67
0.056818181818172775,5947,9,76,106
0.09999999999999432,5947,10,76,82
0.09999999999999432,5947,11,76,97
0.09999999999999432,5947,12,76,96
0.09999999999999432,5947,13,76,108
0.09999999999999432,5947,14,76,95
0.09999999999999432,5947,15,76,100
0.10000000000000853,5948,0,76,71
0.09999999999999432,5948,1,76,93
0.09999999999999432,5948,2,76,83
0.01590909090909065,5948,3,76,95
0.10000000000000853,5948,4,76,81
0.09999999999999432,5948,5,76,69
0.10000000000000853,5948,6,76,83
0.09999999999999432,5948,7,76,66
0.06818181818181301,5948,8,76,97
0.09999999999999432,5948,9,76,126
0.09999999999999432,5948,10,76,64
0.10000000000000853,5948,11,76,68
0.09999999999999432,5948,12,76,127
0.09999999999999432,5948,13,76,100
0.09999999999999432,5948,14,76,98
0.10000000000000853,5948,15,76,73
0.09999999999999432,5949,0,76,54
0.09999999999999432,5949,1,76,80
0.10000000000000853,5949,2,76,105
0.09999999999999432,5949,3,76,72
0.09999999999999432,5949,4,76,83
0.09999999999999432,5949,5,76,82
0.09999999999999432,5949,6,76,109
0.09999999999999432,5949,7,76,108
0.09999999999999432,5949,8,76,77
0.056818181818186986,5949,9,76,98
0.10000000000000853,5949,10,76,76
0.09999999999999432,5949,11,76,114
0.09999999999999432,5949,12,76,76
0.10000000000000853,5949,13,76,91
0.10000000000000853,5949,14,76,68
0.06818181818182723,5949,15,76,99
0.10000000000000853,5950,0,76,86
0.10000000000000853,5950,1,76,100
0.10000000000000853,5950,2,76,89
0.09999999999999432,5950,3,76,76
0.10000000000000853,5950,4,76,83
0.09999999999999432,5950,5,76,53
0.03636363636363171,5950,6,76,106
0.10000000000000853,5950,7,76,97
0.09999999999999432,5950,8,76,78
0.09999999999999432,5950,9,76,71
0.09999999999999432,5950,10,76,84
0.09999999999999432,5950,11,76,78
0.10000000000000853,5950,12,76,46
0.09999999999999432,5950,13,76,95
0.09999999999999432,5950,14,76,78
0.09999999999999432,5950,15,76,53
0.025000000000005684,5951,0,76,16
0.09999999999999432,5951,1,76,76
0.10000000000000853,5951,2,76,87
0.10000000000000853,5951,3,76,68
0.09999999999999432,5951,4,76,91
0.10000000000000853,5951,5,76,74
0.09999999999999432,5951,6,76,103
0.09999999999999432,5951,7,76,78
0.09999999999999432,5951,8,76,88
0.09999999999999432,5951,9,76,93
0.09999999999999432,5951,10,76,98
0.09999999999999432,5951,11,76,81
0.09999999999999432,5951,12,76,64
0.004545454545450411,5951,13,76,118
0.10000000000000853,5951,14,76,109
0.09999999999999432,5951,15,76,93
0.09999999999999432,5952,0,76,107
0.09999999999999432,5952,1,76,77
0.09999999999999432,5952,2,76,15
0.09999999999999432,5952,3,76,79
0.09999999999999432,5952,4,76,53
0.013636363636351234,5952,5,76,88
0.09999999999999432,5952,6,76,88
0.09999999999999432,5952,7,76,74
0.09999999999999432,5952,8,76,77
0.09999999999999432,5952,9,76,95
0.09999999999999432,5952,10,76,96
0.09999999999999432,5952,11,76,73
0.10000000000002274,5952,12,76,103
0.09999999999999432,5952,13,76,80
0.09999999999999432,5952,14,76,22
0.09999999999999432,5952,15,76,91
0.025000000000005684,5953,0,76,120
0.09999999999999432,5953,1,76,64
0.025000000000005684,5953,2,76,64
0.09999999999999432,5953,3,76,90
0.09999999999999432,5953,4,76,77
0.09999999999999432,5953,5,76,77
0.09999999999999432,5953,6,76,109
0.09999999999999432,5953,7,76,80
0.10000000000002274,5953,8,76,19
0.09999999999999432,5953,9,76,48
0.10000000000002274,5953,10,76,41
0.10000000000002274,5953,11,76,72
0.09999999999999432,5953,12,76,106
0.10000000000002274,5953,13,76,94
0.09999999999999432,5953,14,76,71
0.09999999999999432,5953,15,76,49
0.09999999999999432,5954,0,76,101
0.10000000000002274,5954,1,76,78
0.09999999999999432,5954,2,76,106
0.09999999999999432,5954,3,76,87
0.10000000000002274,5954,4,76,88
0.09999999999999432,5954,5,76,86
0.10000000000002274,5954,6,76,86
0.036363636363660135,5954,7,76,77
0.09999999999999432,5954,8,76,82
0.09999999999999432,5954,9,76,97
0.10000000000002274,5954,10,76,91
0.10000000000002274,5954,11,76,91
0.10000000000002274,5954,12,76,119
0.0022727272727536274,5954,13,76,111
0.09999999999999432,5954,14,76,105
0.09999999999999432,5954,15,76,102
0.09999999999999432,5955,0,76,94
0.09999999999999432,5955,1,76,99
0.09999999999999432,5955,2,76,101
0.09999999999999432,5955,3,76,112
0.09999999999999432,5955,4,76,85
0.09999999999999432,5955,5,76,96
0.09999999999999432,5955,6,76,74
0.09999999999999432,5955,7,76,75
0.09999999999999432,5955,8,76,86
0.09999999999999432,5955,9,76,127
0.09999999999999432,5955,10,76,70
0.09999999999999432,5955,11,76,118
0.10000000000002274,5955,12,76,97
0.04545454545456096,5955,13,76,86
0.09999999999999432,5955,14,76,66
0.09999999999999432,5955,15,76,80
0.09999999999999432,5956,0,76,63
0.09999999999999432,5956,1,76,91
0.09999999999999432,5956,2,76,65
0.09999999999999432,5956,3,76,101
0.10000000000002274,5956,4,76,81
0.10000000000002274,5956,5,76,67
0.09999999999999432,5956,6,76,93
0.09999999999999432,5956,7,76,78
0.09999999999999432,5956,8,76,87
0.09999999999999432,5956,9,76,73
0.10000000000002274,5956,10,76,95
0.09999999999999432,5956,11,76,95
0.09999999999999432,5956,12,76,54
0.025000000000005684,5956,13,76,20
0.09999999999999432,5956,14,76,98
0.10000000000002274,5956,15,76,81
0.10000000000002274,5957,0,76,77
0.09999999999999432,5957,1,76,66
0.10000000000002274,5957,2,76,70
0.09999999999999432,5957,3,76,78
0.09999999999999432,5957,4,76,72
0.10000000000002274,5957,5,76,88
0.09999999999999432,5957,6,76,83
0.10000000000002274,5957,7,76,110
0.04772727272728616,5957,8,76,102
0.09999999999999432,5957,9,76,78
0.09999999999999432,5957,10,76,90
0.05909090909091219,5957,11,76,78
0.09999999999999432,5957,12,76,59
0.09999999999999432,5957,13,76,103
0.09999999999999432,5957,14,76,77
0.056818181818186986,5957,15,76,67
0.09999999999999432,5958,0,76,103
0.09999999999999432,5958,1,76,105
0.056818181818186986,5958,2,76,113
0.09999999999999432,5958,3,76,105
0.09999999999999432,5958,4,76,78
0.09999999999999432,5958,5,76,58
0.025000000000005684,5958,6,76,101
0.09999999999999432,5958,7,76,118
0.09999999999999432,5958,8,76,95
0.09999999999999432,5958,9,76,125
0.10000000000002274,5958,10,76,58
0.09999999999999432,5958,11,76,80
0.025000000000005684,5958,12,76,84
0.004545454545450411,5958,13,76,84
0.09999999999999432,5958,14,76,78
0.09999999999999432,5958,15,76,12
0.09999999999999432,5959,0,76,70
0.09999999999999432,5959,1,76,101
0.09999999999999432,5959,2,76,93
0.09999999999999432,5959,3,76,71
0.10000000000002274,5959,4,76,86
0.09999999999999432,5959,5,76,97
0.09999999999999432,5959,6,76,22
0.09999999999999432,5959,7,76,62
0.0022727272727252057,5959,8,76,99
0.09999999999999432,5959,9,76,91
0.09999999999999432,5959,10,76,56
0.0022727272727252057,5959,11,76,83
0.10000000000002274,5959,12,76,78
0.09999999999999432,5959,13,76,63
0.09999999999999432,5959,14,76,80
0.09999999999999432,5959,15,76,105
0.09999999999999432,5960,0,76,127
0.09999999999999432,5960,1,76,123
0.09999999999999432,5960,2,76,46
0.09999999999999432,5960,3,76,66
0.09999999999999432,5960,4,76,70
0.09999999999999432,5960,5,76,101
0.10000000000002274,5960,6,76,96
0.09999999999999432,5960,7,76,63
0.09999999999999432,5960,8,76,103
0.09999999999999432,5960,9,76,104
0.09999999999999432,5960,10,76,98
0.09999999999999432,5960,11,76,79
0.10000000000002274,5960,12,76,97
0.09999999999999432,5960,13,76,99
0.09999999999999432,5960,14,76,47
0.013636363636379656,5960,15,76,97
0.09999999999999432,5961,0,76,106
0.09999999999999432,5961,1,76,99
0.10000000000002274,5961,2,76,65
0.05909090909091219,5961,3,76,104
0.09999999999999432,5961,4,76,76
0.10000000000002274,5961,5,76,71
0.09999999999999432,5961,6,76,74
0.09999999999999432,5961,7,76,91
0.09999999999999432,5961,8,76,105
0.09999999999999432,5961,9,76,86
0.09999999999999432,5961,10,76,86
0.09999999999999432,5961,11,76,84
0.09999999999999432,5961,12,76,43
0.056818181818186986,5961,13,76,77
0.10000000000002274,5961,14,76,83
0.09999999999999432,5961,15,76,70
0.09999999999999432,5962,0,76,62
0.056818181818186986,5962,1,76,101
0.09999999999999432,5962,2,76,91
0.10000000000002274,5962,3,76,52
0.09999999999999432,5962,4,76,84
0.09999999999999432,5962,5,76,108
0.09999999999999432,5962,6,76,96
0.09999999999999432,5962,7,76,77
0.09999999999999432,5962,8,76,87
0.10000000000002274,5962,9,76,77
0.09999999999999432,5962,10,76,75
0.09999999999999432,5962,11,76,56
0.045454545454532536,5962,12,76,88
0.09999999999999432,5962,13,76,92
0.09999999999999432,5962,14,76,21
0.10000000000002274,5962,15,76,80
0.09999999999999432,5963,0,76,101
0.09999999999999432,5963,1,76,92
0.09999999999999432,5963,2,76,86
0.004545454545450411,5963,3,76,75
0.09999999999999432,5963,4,76,83
0.09999999999999432,5963,5,76,54
0.09999999999999432,5963,6,76,97
0.09999999999999432,5963,7,76,73
0.09999999999999432,5963,8,76,70
0.10000000000002274,5963,9,76,93
0.09999999999999432,5963,10,76,19
0.09999999999999432,5963,11,76,58
0.09999999999999432,5963,12,76,76
0.10000000000002274,5963,13,76,66
0.09999999999999432,5963,14,76,98
0.10000000000002274,5963,15,76,93
0.09999999999999432,5964,0,76,63
0.09999999999999432,5964,1,76,38
0.09999999999999432,5964,2,76,75
0.10000000000002274,5964,3,76,56
0.02727272727273089,5964,4,76,81
0.09999999999999432,5964,5,76,85
0.09999999999999432,5964,6,76,107
0.10000000000002274,5964,7,76,86
0.10000000000002274,5964,8,76,76
0.09999999999999432,5964,9,76,115
0.09999999999999432,5964,10,76,116
0.10000000000002274,5964,11,76,71
0.09999999999999432,5964,12,76,96
0.10000000000002274,5964,13,76,55
0.09999999999999432,5964,14,76,66
0.10000000000002274,5964,15,76,88
0.10000000000002274,5965,0,76,77
0.09999999999999432,5965,1,76,92
0.09999999999999432,5965,2,76,77
0.10000000000002274,5965,3,76,2
0.09999999999999432,5965,4,76,47
0.09999999999999432,5965,5,76,97
0.09999999999999432,5965,6,76,95
0.09999999999999432,5965,7,76,81
0.09999999999999432,5965,8,76,94
0.09999999999999432,5965,9,76,74
0.09999999999999432,5965,10,76,112
0.09999999999999432,5965,11,76,66
0.09999999999999432,5965,12,76,98
0.10000000000002274,5965,13,76,62
0.09999999999999432,5965,14,76,67
0.09999999999999432,5965,15,76,75
0.09999999999999432,5966,0,76,93
0.09999999999999432,5966,1,76,70
0.10000000000002274,5966,2,76,60
0.056818181818186986,5966,3,76,46
0.09999999999999432,5966,4,76,78
0.09999999999999432,5966,5,76,100
0.09999999999999432,5966,6,76,34
0.10000000000002274,5966,7,76,75
0.09999999999999432,5966,8,76,59
0.09999999999999432,5966,9,62,1
0.09999999999999432,5966,10,62,1
0.09999999999999432,5966,11,62,3
0.09999999999999432,5966,12,62,4
0.09999999999999432,5966,13,62,2
0.10000000000002274,5966,14,62,1
0.09999999999999432,5966,15,62,5
0.09999999999999432,5967,0,62,4
0.09999999999999432,5967,1,62,25
0.09999999999999432,5967,2,62,15
0.10000000000002274,5967,3,62,1
0.09999999999999432,5967,4,62,1
0.09999999999999432,5967,5,62,1
0.09999999999999432,5967,6,62,5
0.09999999999999432,5967,7,62,6
0.09999999999999432,5967,8,62,8
0.09999999999999432,5967,9,62,5
0.09999999999999432,5967,10,62,2
0.045454545454532536,5967,11,62,5
0.10000000000002274,5967,12,62,9
0.09999999999999432,5967,13,62,4
0.09999999999999432,5967,14,62,4
0.09999999999999787,5967,15,54,79
0.10000000000000142,5968,0,54,86
0.09999999999999787,5968,1,54,94
0.09999999999999787,5968,2,54,97
0.10000000000000142,5968,3,54,83
0.05681818181818343,5968,4,54,101
0.09999999999999787,5968,5,54,103
0.09999999999999787,5968,6,54,106
0.10000000000000142,5968,7,54,25
0.09999999999999787,5968,8,54,57
0.10000000000000142,5968,9,54,35
0.09999999999999787,5968,10,54,46
0.10000000000000142,5968,11,54,45
0.10000000000000142,5968,12,54,55
0.045454545454546746,5968,13,54,45
0.10000000000000142,5968,14,54,53
0.10000000000000142,5968,15,54,39
0.10000000000000142,5969,0,54,63
0.10000000000000142,5969,1,54,51
0.10000000000000142,5969,2,54,51
0.10000000000000142,5969,3,54,65
0.10000000000000142,5969,4,54,36
0.10000000000000142,5969,5,54,57
0.10000000000000142,5969,6,54,52
0.10000000000000142,5969,7,54,28
0.10000000000000142,5969,8,54,80
0.10000000000000142,5969,9,54,49
0.10000000000000142,5969,10,54,44
0.09999999999999432,5969,11,54,59
0.10000000000000142,5969,12,54,42
0.03636363636363882,5969,13,54,68
0.10000000000000142,5969,14,54,58
0.10000000000000142,5969,15,54,72
0.09999999999999432,5970,0,54,48
0.10000000000000142,5970,1,54,25
0.04772727272727195,5970,2,54,71
0.10000000000000142,5970,3,54,72
0.09999999999999432,5970,4,54,88
0.10000000000000142,5970,5,54,80
0.10000000000000142,5970,6,54,66
0.10000000000000142,5970,7,54,64
0.10000000000000142,5970,8,54,35
0.05909090909091219,5970,9,54,80
0.10000000000000142,5970,10,54,69
0.10000000000000142,5970,11,54,60
0.10000000000000142,5970,12,54,47
0.06818181818181301,5970,13,54,70
0.10000000000000142,5970,14,54,60
0.09999999999999432,5970,15,54,79
0.10000000000000142,5971,0,54,70
0.10000000000000142,5971,1,54,54
0.09999999999999432,5971,2,54,67
0.10000000000000142,5971,3,54,47
0.10000000000000142,5971,4,54,49
0.10000000000000142,5971,5,54,50
0.09999999999999432,5971,6,54,44
0.10000000000000142,5971,7,54,42
0.09999999999999432,5971,8,54,56
0.09999999999999432,5971,9,54,35
0.06818181818181301,5971,10,54,52
0.10000000000000853,5971,11,54,57
0.09999999999999432,5971,12,54,58
0.10000000000000853,5971,13,54,34
0.10000000000000853,5971,14,54,28
0.09999999999999432,5971,15,54,41
0.09999999999999432,5972,0,54,48
0.10000000000000853,5972,1,54,63
0.10000000000000853,5972,2,54,51
0.09999999999999432,5972,3,54,35
0.09999999999999432,5972,4,54,48
0.09999999999999432,5972,5,54,21
0.10000000000000853,5972,6,54,74
0.09999999999999432,5972,7,54,66
0.09999999999999432,5972,8,54,58
0.10000000000000853,5972,9,54,52
0.09999999999999432,5972,10,54,77
0.09999999999999432,5972,11,54,69
0.09999999999999432,5972,12,54,32
0.10000000000000853,5972,13,54,49
0.09999999999999432,5972,14,54,39
0.09999999999999432,5972,15,54,37
0.09999999999999432,5973,0,54,46
0.09999999999999432,5973,1,54,41
0.09999999999999432,5973,2,54,56
0.09999999999999432,5973,3,54,49
0.09999999999999432,5973,4,54,43
0.09999999999999432,5973,5,54,47
0.09999999999999432,5973,6,54,43
0.09999999999999432,5973,7,54,43
0.09999999999999432,5973,8,54,66
0.09999999999999432,5973,9,54,52
0.10000000000000853,5973,10,54,57
0.09999999999999432,5973,11,54,57
0.10000000000000853,5973,12,54,38
0.10000000000000853,5973,13,54,36
0.09999999999999432,5973,14,54,52
0.09999999999999432,5973,15,54,45
0.09999999999999432,5974,0,54,48
0.10000000000000853,5974,1,54,40
0.09999999999999432,5974,2,54,60
0.09999999999999432,5974,3,54,68
0.09999999999999432,5974,4,54,62
0.10000000000000853,5974,5,54,50
0.10000000000000853,5974,6,54,37
0.09999999999999432,5974,7,54,93
0.10000000000000853,5974,8,54,46
0.09999999999999432,5974,9,54,41
0.09999999999999432,5974,10,54,45
0.09999999999999432,5974,11,54,59
0.10000000000000853,5974,12,54,41
0.10000000000000853,5974,13,54,45
0.09999999999999432,5974,14,54,64
0.09999999999999432,5974,15,54,54
0.10000000000000853,5975,0,54,58
0.10000000000000853,5975,1,54,42
0.10000000000000853,5975,2,54,40
0.09999999999999432,5975,3,54,61
0.09999999999999432,5975,4,54,47
0.024999999999991473,5975,5,54,51
0.10000000000000853,5975,6,54,77
0.10000000000000853,5975,7,54,69
0.09999999999999432,5975,8,54,61
0.10000000000000853,5975,9,54,50
0.09999999999999432,5975,10,54,37
0.004545454545450411,5975,11,54,26
0.024999999999991473,5975,12,54,51
0.09999999999999432,5975,13,54,71
0.10000000000000853,5975,14,54,43
0.09999999999999432,5975,15,54,55
0.09999999999999432,5976,0,54,58
0.09999999999999432,5976,1,54,69
0.10000000000000853,5976,2,54,58
0.09999999999999432,5976,3,54,63
0.056818181818172775,5976,4,54,93
0.09999999999999432,5976,5,54,42
0.10000000000000853,5976,6,54,51
0.10000000000000853,5976,7,54,62
0.025000000000005684,5976,8,54,32
0.09999999999999432,5976,9,54,48
0.09999999999999432,5976,10,54,59
0.09999999999999432,5976,11,54,40
0.09999999999999432,5976,12,54,52
0.09999999999999432,5976,13,54,63
0.10000000000002274,5976,14,54,68
0.025000000000005684,5976,15,54,84
0.10000000000002274,5977,0,54,43
0.09999999999999432,5977,1,54,44
0.06818181818181301,5977,2,54,51
0.09999999999999432,5977,3,54,55
0.09999999999999432,5977,4,54,58
0.09999999999999432,5977,5,54,55
0.05909090909091219,5977,6,54,36
0.09999999999999432,5977,7,54,51
0.09999999999999432,5977,8,54,46
0.09999999999999432,5977,9,54,43
0.09999999999999432,5977,10,54,56
0.056818181818186986,5977,11,54,64
0.09999999999999432,5977,12,54,53
0.10000000000002274,5977,13,54,84
0.025000000000005684,5977,14,54,63
0.09999999999999432,5977,15,54,48
0.09999999999999432,5978,0,54,46
0.10000000000002274,5978,1,54,64
0.10000000000002274,5978,2,54,73
0.09999999999999432,5978,3,54,28
0.004545454545450411,5978,4,54,54
0.09999999999999432,5978,5,54,46
0.09999999999999432,5978,6,54,58
0.09999999999999432,5978,7,54,58
0.09999999999999432,5978,8,54,81
0.01590909090907644,5978,9,54,84
0.09999999999999432,5978,10,54,76
0.09999999999999432,5978,11,54,63
0.06818181818181301,5978,12,54,55
0.09999999999999432,5978,13,54,56
0.10000000000002274,5978,14,54,32
0.09999999999999432,5978,15,54,60
0.09999999999999432,5979,0,54,62
0.10000000000002274,5979,1,54,66
0.09999999999999432,5979,2,54,46
0.09999999999999432,5979,3,54,61
0.09999999999999432,5979,4,54,68
0.10000000000002274,5979,5,54,85
0.09999999999999432,5979,6,54,66
0.10000000000002274,5979,7,54,57
0.09999999999999432,5979,8,54,41
0.09999999999999432,5979,9,54,49
0.09999999999999432,5979,10,54,42
0.09999999999999432,5979,11,54,54
0.09999999999999432,5979,12,54,42
0.09999999999999432,5979,13,54,37
0.09999999999999432,5979,14,54,42
0.10000000000002274,5979,15,54,62
0.09999999999999432,5980,0,54,49
0.09999999999999432,5980,1,54,49
0.09999999999999432,5980,2,54,50
0.09999999999999432,5980,3,54,53
0.09999999999999432,5980,4,54,48
0.09999999999999432,5980,5,54,54
0.10000000000002274,5980,6,54,61
0.09999999999999432,5980,7,54,51
0.09999999999999432,5980,8,54,36
0.10000000000002274,5980,9,54,42
0.004545454545478833,5980,10,54,48
0.09999999999999432,5980,11,54,38
0.10000000000002274,5980,12,54,67
0.09999999999999432,5980,13,54,56
0.03636363636363171,5980,14,54,50
0.09999999999999432,5980,15,54,49
0.09999999999999432,5981,0,54,63
0.09999999999999432,5981,1,54,39
0.09999999999999432,5981,2,54,43
0.09999999999999432,5981,3,54,55
0.09999999999999432,5981,4,54,43
0.09999999999999432,5981,5,54,47
0.09999999999999432,5981,6,54,55
0.09999999999999432,5981,7,54,77
0.06590909090908781,5981,8,54,67
0.09999999999999432,5981,9,54,66
0.09999999999999432,5981,10,54,53
0.10000000000002274,5981,11,54,52
0.09999999999999432,5981,12,54,57
0.09999999999999432,5981,13,54,50
0.09999999999999432,5981,14,54,44
0.09999999999999432,5981,15,54,51
0.09999999999999432,5982,0,54,55
0.09999999999999432,5982,1,54,54
0.09999999999999432,5982,2,54,50
0.10000000000002274,5982,3,54,72
0.10000000000002274,5982,4,54,59
0.09999999999999432,5982,5,54,64
0.09999999999999432,5982,6,54,84
0.09999999999999432,5982,7,54,47
0.09999999999999432,5982,8,54,53
0.10000000000002274,5982,9,54,63
0.06818181818184144,5982,10,54,70
0.10000000000002274,5982,11,54,72
0.09999999999999432,5982,12,54,54
0.09999999999999432,5982,13,54,56
0.10000000000002274,5982,14,54,71
0.09999999999999432,5982,15,54,64
0.09999999999999432,5983,0,54,43
0.09999999999999432,5983,1,54,14
0.09999999999999432,5983,2,54,51
0.09999999999999432,5983,3,54,57
0.0022727272727252057,5983,4,54,50
0.09999999999999432,5983,5,69,71
0.10000000000000142,5983,6,69,105
0.10000000000000142,5983,7,69,7
0.10000000000000142,5983,8,69,127
0.10000000000000142,5983,9,69,127
0.10000000000000142,5983,10,69,99
0.10000000000000142,5983,11,69,127
0.10000000000000142,5983,12,69,127
0.10000000000000142,5983,13,69,6
0.09999999999999432,5983,14,69,101
0.10000000000000142,5983,15,69,8
0.10000000000000142,5984,0,69,127
0.10000000000000142,5984,1,69,127
0.09999999999999432,5984,2,69,96
0.09999999999999432,5984,3,69,7
0.10000000000000142,5984,4,69,127
0.10000000000000142,5984,5,69,93
0.09999999999999432,5984,6,69,8
0.09999999999999432,5984,7,69,127
0.10000000000000142,5984,8,69,127
0.10000000000000142,5984,9,69,101
0.10000000000000142,5984,10,69,115
0.10000000000000142,5984,11,69,127
0.10000000000000142,5984,12,69,7
0.10000000000000142,5984,13,69,98
0.10000000000000142,5984,14,69,7
0.10000000000000142,5984,15,69,125
0.10000000000000142,5985,0,69,127
0.10000000000000142,5985,1,69,100
0.10000000000000142,5985,2,69,127
0.10000000000000142,5985,3,69,6
0.10000000000000142,5985,4,69,127
0.10000000000000142,5985,5,69,7
0.09999999999999432,5985,6,69,98
0.09999999999999432,5985,7,69,8
0.10000000000000142,5985,8,69,127
0.09999999999999432,5985,9,69,127
0.09999999999999432,5985,10,69,90
0.10000000000000142,5985,11,69,126
0.10000000000000142,5985,12,69,127
0.09999999999999432,5985,13,69,4
0.10000000000000142,5985,14,69,7
0.10000000000000142,5985,15,69,5
0.10000000000000142,5986,0,69,85
0.10000000000000142,5986,1,69,9
0.10000000000000142,5986,2,69,6
0.10000000000000142,5986,3,69,98
0.09999999999999432,5986,4,69,5
0.10000000000000142,5986,5,69,110
0.09999999999999432,5986,6,69,5
0.09999999999999432,5986,7,69,88
0.10000000000000142,5986,8,69,7
0.10000000000000142,5986,9,69,5
0.10000000000000142,5986,10,69,108
0.10000000000000142,5986,11,69,7
0.10000000000000142,5986,12,69,5
0.10000000000000142,5986,13,69,86
0.10000000000000142,5986,14,69,9
0.10000000000000142,5986,15,69,5
0.09999999999999432,5987,0,69,112
0.10000000000000853,5987,1,69,127
0.09999999999999432,5987,2,69,4
0.10000000000000853,5987,3,69,87
0.09999999999999432,5987,4,69,115
0.10000000000000853,5987,5,69,101
0.09999999999999432,5987,6,69,8
0.09999999999999432,5987,7,69,86
0.09999999999999432,5987,8,69,8
0.09999999999999432,5987,9,69,101
0.09999999999999432,5987,10,69,127
0.09999999999999432,5987,11,69,87
0.09999999999999432,5987,12,69,121
0.10000000000000853,5987,13,69,8
0.10000000000000853,5987,14,69,127
0.09999999999999432,5987,15,69,3
0.09999999999999432,5988,0,69,88
0.09999999999999432,5988,1,69,3
0.10000000000000853,5988,2,69,127
0.10000000000000853,5988,3,69,88
0.10000000000000853,5988,4,69,3
0.10000000000000853,5988,5,69,127
0.10000000000000853,5988,6,69,3
0.09999999999999432,5988,7,69,85
0.09999999999999432,5988,8,69,3
0.09999999999999432,5988,9,69,9
0.10000000000000853,5988,10,69,127
0.09999999999999432,5988,11,69,87
0.10000000000000853,5988,12,69,3
0.09999999999999432,5988,13,69,127
0.09999999999999432,5988,14,69,3
0.10000000000000853,5988,15,69,89
0.09999999999999432,5989,0,69,3
0.09999999999999432,5989,1,69,122
0.10000000000000853,5989,2,69,127
0.09999999999999432,5989,3,69,78
0.10000000000000853,5989,4,69,3
0.10000000000000853,5989,5,69,127
0.09999999999999432,5989,6,69,3
0.09999999999999432,5989,7,69,79
0.10000000000000853,5989,8,69,9
0.10000000000000853,5989,9,69,127
0.09999999999999432,5989,10,69,95
0.10000000000000853,5989,11,69,3
0.10000000000000853,5989,12,69,127
0.10000000000000853,5989,13,69,3
0.09999999999999432,5989,14,69,88
0.09999999999999432,5989,15,69,3
0.09999999999999432,5990,0,69,9
0.10000000000000853,5990,1,69,127
0.09999999999999432,5990,2,69,89
0.10000000000000853,5990,3,69,3
0.09999999999999432,5990,4,69,127
0.10000000000000853,5990,5,69,3
0.10000000000000853,5990,6,69,76
0.09999999999999432,5990,7,69,3
0.10000000000000853,5990,8,69,8
0.10000000000000853,5990,9,69,127
0.10000000000000853,5990,10,69,84
0.10000000000000853,5990,11,69,4
0.09999999999999432,5990,12,69,127
0.10000000000000853,5990,13,69,3
0.10000000000000853,5990,14,69,55
0.09999999999999432,5990,15,69,3
0.09999999999999432,5991,0,69,112
0.09999999999999432,5991,1,69,127
0.09999999999999432,5991,2,69,75
0.10000000000000853,5991,3,69,3
0.09999999999999432,5991,4,69,127
0.09999999999999432,5991,5,69,3
0.10000000000000853,5991,6,69,78
0.09999999999999432,5991,7,69,3
0.10000000000000853,5991,8,69,8
0.10000000000000853,5991,9,69,127
0.09999999999999432,5991,10,69,81
0.09999999999999432,5991,11,69,127
0.10000000000000853,5991,12,69,127
0.10000000000000853,5991,13,69,97
0.09999999999999432,5991,14,69,5
0.09999999999999432,5991,15,69,127
0.10000000000000853,5992,0,69,127
0.09999999999999432,5992,1,69,87
0.10000000000000853,5992,2,69,6
0.09999999999999432,5992,3,69,127
0.09999999999999432,5992,4,69,6
0.10000000000000853,5992,5,69,88
0.09999999999999432,5992,6,69,6
0.10000000000000853,5992,7,69,127
0.09999999999999432,5992,8,69,127
0.09999999999999432,5992,9,69,2
0.09999999999999432,5992,10,69,39
0.09999999999999432,5992,11,69,5
0.09999999999999432,5992,12,69,127
0.10000000000000853,5992,13,69,5
0.10000000000000853,5992,14,69,85
0.09999999999999432,5992,15,69,5
0.09999999999999432,5993,0,69,127
0.09999999999999432,5993,1,69,127
0.09999999999999432,5993,2,69,87
0.10000000000000853,5993,3,69,6
0.09999999999999432,5993,4,69,2
0.09999999999999432,5993,5,69,127
0.10000000000000853,5993,6,69,5
0.10000000000000853,5993,7,69,84
0.09999999999999432,5993,8,69,5
0.10000000000000853,5993,9,69,3
0.10000000000000853,5993,10,69,127
0.09999999999999432,5993,11,69,127
0.09999999999999432,5993,12,69,85
0.09999999999999432,5993,13,69,5
0.09999999999999432,5993,14,69,127
0.10000000000000853,5993,15,69,95
0.09999999999999432,5994,0,69,6
0.10000000000000853,5994,1,69,127
0.09999999999999432,5994,2,69,106
0.09999999999999432,5994,3,69,85
0.10000000000000853,5994,4,69,6
0.09999999999999432,5994,5,69,127
0.10000000000000853,5994,6,69,6
0.10000000000000853,5994,7,69,88
0.09999999999999432,5994,8,69,5
0.09999999999999432,5994,9,69,127
0.09999999999999432,5994,10,69,127
0.10000000000000853,5994,11,69,89
0.09999999999999432,5994,12,69,6
0.09999999999999432,5994,13,69,127
0.10000000000000853,5994,14,69,5
0.10000000000000853,5994,15,69,86
0.10000000000000853,5995,0,69,6
0.10000000000000853,5995,1,69,127
0.09999999999999432,5995,2,69,127
0.09999999999999432,5995,3,69,83
0.09999999999999432,5995,4,69,7
0.09999999999999432,5995,5,69,127
0.10000000000000853,5995,6,69,5
0.09999999999999432,5995,7,69,2
0.09999999999999432,5995,8,69,83
0.10000000000000853,5995,9,69,5
0.10000000000000853,5995,10,69,3
0.10000000000000853,5995,11,69,118
0.09999999999999432,5995,12,69,127
0.10000000000000853,5995,13,69,2
0.09999999999999432,5995,14,69,88
0.09999999999999432,5995,15,69,5
0.09999999999999432,5996,0,69,127
0.10000000000000853,5996,1,69,5
0.09999999999999432,5996,2,69,2
0.09999999999999432,5996,3,69,79
0.09999999999999432,5996,4,69,5
0.10000000000000853,5996,5,69,2
0.10000000000000853,5996,6,69,127
0.09999999999999432,5996,7,69,127
0.09999999999999432,5996,8,69,86
0.09999999999999432,5996,9,69,4
0.09999999999999432,5996,10,69,114
0.10000000000000853,5996,11,69,127
0.09999999999999432,5996,12,69,127
0.09999999999999432,5996,13,69,127
0.10000000000000853,5996,14,69,127
0.09999999999999432,5996,15,69,127
0.09999999999999432,5997,0,69,81
0.10000000000000853,5997,1,69,7
0.09999999999999432,5997,2,69,127
0.09999999999999432,5997,3,69,127
0.09999999999999432,5997,4,69,94
0.10000000000002274,5997,5,69,122
0.10000000000002274,5997,6,69,127
0.09999999999999432,5997,7,69,5
0.09999999999999432,5997,8,69,81
0.09999999999999432,5997,9,69,7
0.09999999999999432,5997,10,69,127
0.09999999999999432,5997,11,69,127
0.09999999999999432,5997,12,69,72
0.10000000000002274,5997,13,69,7
0.09999999999999432,5997,14,69,127
0.09999999999999432,5997,15,69,6
0.09999999999999432,5998,0,69,72
0.09999999999999432,5998,1,69,7
0.10000000000002274,5998,2,69,127
0.10000000000002274,5998,3,69,127
0.09999999999999432,5998,4,69,78
0.09999999999999432,5998,5,69,127
0.09999999999999432,5998,6,69,127
0.10000000000002274,5998,7,69,6
0.10000000000002274,5998,8,69,77
0.09999999999999432,5998,9,69,6
0.09999999999999432,5998,10,69,127
0.09999999999999432,5998,11,69,127
0.09999999999999432,5998,12,69,59
0.09999999999999432,5998,13,69,127
0.10000000000002274,5998,14,69,5
0.09999999999999432,5998,15,69,127
0.10000000000002274,5999,0,69,89
0.09999999999999432,5999,1,69,7
0.09999999999999432,5999,2,69,127
0.09999999999999432,5999,3,69,127
0.09999999999999432,5999,4,69,89
0.10000000000002274,5999,5,69,127
0.09999999999999432,5999,6,69,127
0.09999999999999432,5999,7,69,5
0.09999999999999432,5999,8,69,83
0.09999999999999432,5999,9,69,7
0.10000000000002274,5999,10,69,127
0.10000000000002274,5999,11,69,127
0.09999999999999432,5999,12,69,79
0.09999999999999432,5999,13,69,6
0.09999999999999432,5999,14,69,127
0.09999999999999432,5999,15,69,6
0.09999999999999432,6000,0,69,78
0.09999999999999432,6000,1,69,6
0.10000000000002274,6000,2,69,127
0.09999999999999432,6000,3,69,24
0.09999999999999432,6000,4,69,127
0.09999999999999432,6000,5,69,76
0.09999999999999432,6000,6,69,127
0.09999999999999432,6000,7,69,127
0.10000000000002274,6000,8,69,127
0.10000000000002274,6000,9,69,81
0.09999999999999432,6000,10,69,7
0.09999999999999432,6000,11,69,127
0.10000000000002274,6000,12,69,50
0.09999999999999432,6000,13,69,127
0.09999999999999432,6000,14,69,73
0.10000000000002274,6000,15,69,7
0.09999999999999432,6001,0,69,110
0.09999999999999432,6001,1,69,64
0.09999999999999432,6001,2,69,95
0.10000000000002274,6001,3,69,97
0.09999999999999432,6001,4,69,93
0.09999999999999432,6001,5,69,62
0.09999999999999432,6001,6,69,116
0.09999999999999432,6001,7,69,76
0.09999999999999432,6001,8,69,80
0.09999999999999432,6001,9,69,82
0.10000000000002274,6001,10,69,126
0.09999999999999432,6001,11,69,91
0.10000000000002274,6001,12,69,79
0.09999999999999432,6001,13,69,105
0.09999999999999432,6001,14,69,109
0.09999999999999432,6001,15,69,62
0.09999999999999432,6002,0,69,109
0.09999999999999432,6002,1,69,100
0.09999999999999432,6002,2,69,65
0.09999999999999432,6002,3,69,86
0.09999999999999432,6002,4,69,103
0.09999999999999432,6002,5,69,64
0.09999999999999432,6002,6,69,105
0.09999999999999432,6002,7,69,65
0.10000000000002274,6002,8,69,105
0.09999999999999432,6002,9,69,117
0.09999999999999432,6002,10,69,60
0.09999999999999432,6002,11,69,96
0.09999999999999432,6002,12,69,64
0.09999999999999432,6002,13,69,104
0.09999999999999432,6002,14,69,114
0.09999999999999432,6002,15,69,60
0.09999999999999432,6003,0,69,116
0.10000000000002274,6003,1,69,113
0.09999999999999432,6003,2,69,77
0.09999999999999432,6003,3,69,118
0.09999999999999432,6003,4,69,112
0.09999999999999432,6003,5,69,61
0.09999999999999432,6003,6,69,112
0.09999999999999432,6003,7,69,112
0.09999999999999432,6003,8,69,121
0.10000000000002274,6003,9,69,111
0.09999999999999432,6003,10,69,11
0.09999999999999432,6003,11,69,124
0.09999999999999432,6003,12,69,14
0.09999999999999432,6003,13,69,10
0.10000000000002274,6003,14,69,22
0.09999999999999432,6003,15,69,110
0.09999999999999432,6004,0,69,16
0.09999999999999432,6004,1,69,85
0.10000000000002274,6004,2,69,63
0.09999999999999432,6004,3,69,12
0.10000000000002274,6004,4,69,36
0.09999999999999432,6004,5,69,83
0.09999999999999432,6004,6,69,15
0.09999999999999432,6004,7,69,24
0.09999999999999432,6004,8,69,29
0.09999999999999432,6004,9,69,127
0.10000000000002274,6004,10,69,18
0.09999999999999432,6004,11,69,96
0.09999999999999432,6004,12,69,12
0.10000000000002274,6004,13,69,127
0.09999999999999432,6004,14,69,35
0.09999999999999432,6004,15,69,127
0.09999999999999432,6005,0,69,108
0.09999999999999432,6005,1,69,8
0.09999999999999432,6005,2,69,127
0.10000000000002274,6005,3,69,9
0.10000000000002274,6005,4,69,106
0.09999999999999432,6005,5,69,8
0.09999999999999432,6005,6,69,38
0.09999999999999432,6005,7,69,127
0.10000000000002274,6005,8,69,36
0.09999999999999432,6005,9,69,127
0.09999999999999432,6005,10,69,99
0.10000000000002274,6005,11,69,8
0.09999999999999432,6005,12,69,127
0.09999999999999432,6005,13,69,9
0.10000000000002274,6005,14,69,103
0.09999999999999432,6005,15,69,8
0.09999999999999432,6006,0,69,127
0.09999999999999432,6006,1,69,127
0.09999999999999432,6006,2,69,94
0.09999999999999432,6006,3,69,10
0.09999999999999432,6006,4,69,127
0.09999999999999432,6006,5,69,96
0.09999999999999432,6006,6,69,81
0.09999999999999432,6006,7,69,119
0.09999999999999432,6006,8,69,50
0.10000000000002274,6006,9,69,127
0.09999999999999432,6006,10,69,42
0.09999999999999432,6006,11,69,47
0.09999999999999432,6006,12,69,40
0.10000000000000009,6006,13,56,7
0.10000000000000009,6006,14,56,24
0.10000000000000009,6006,15,56,13
0.10000000000000009,6007,0,56,12
0.10000000000000009,6007,1,56,19
0.09999999999999964,6007,2,56,12
0.09999999999999964,6007,3,56,17
0.09999999999999964,6007,4,56,18
0.10000000000000053,6007,5,56,21
0.09999999999999964,6007,6,56,27
0.10000000000000053,6007,7,56,27
0.09999999999999964,6007,8,56,21
0.09999999999999964,6007,9,56,17
0.09999999999999964,6007,10,56,20
0.09999999999999964,6007,11,56,31
0.09999999999999964,6007,12,56,30
0.09999999999999964,6007,13,56,19
0.09999999999999964,6007,14,56,15
0.09999999999999964,6007,15,56,12
0.09999999999999964,6008,0,56,24
0.09999999999999964,6008,1,56,23
0.10000000000000142,6008,2,56,16
0.09999999999999964,6008,3,56,10
0.09999999999999964,6008,4,56,25
0.09999999999999964,6008,5,56,13
0.09999999999999964,6008,6,56,12
0.09999999999999964,6008,7,56,13
0.09999999999999964,6008,8,56,11
0.09999999999999964,6008,9,56,11
0.09999999999999964,6008,10,56,21
0.09999999999999964,6008,11,56,16
0.10000000000000142,6008,12,56,33
0.09999999999999964,6008,13,56,30
0.09999999999999787,6008,14,56,20
0.10000000000000142,6008,15,56,17
0.10000000000000142,6009,0,56,20
0.09999999999999787,6009,1,56,18
0.09999999999999787,6009,2,56,11
0.10000000000000142,6009,3,56,22
0.10000000000000142,6009,4,56,22
0.09999999999999787,6009,5,56,12
0.09999999999999787,6009,6,56,29
0.10000000000000142,6009,7,56,9
0.09999999999999787,6009,8,56,13
0.10000000000000142,6009,9,56,22
0.10000000000000142,6009,10,56,13
0.09999999999999787,6009,11,56,25
0.09999999999999787,6009,12,56,21
0.10000000000000142,6009,13,56,11
0.10000000000000142,6009,14,56,31
0.09999999999999787,6009,15,56,27
0.09999999999999787,6010,0,56,27
0.09999999999999787,6010,1,56,24
0.10000000000000142,6010,2,56,21
0.10000000000000142,6010,3,56,13
0.09999999999999787,6010,4,56,34
0.10000000000000142,6010,5,56,26
0.10000000000000142,6010,6,56,15
0.09999999999999787,6010,7,56,19
0.09999999999999787,6010,8,56,24
0.10000000000000142,6010,9,56,17
0.10000000000000142,6010,10,56,18
0.10000000000000142,6010,11,56,42
0.10000000000000142,6010,12,56,19
0.10000000000000142,6010,13,56,11
0.09999999999999787,6010,14,56,31
0.10000000000000142,6010,15,56,16
0.10000000000000142,6011,0,56,21
0.10000000000000142,6011,1,56,18
0.01590909090909065,6011,2,56,28
0.10000000000000142,6011,3,56,31
0.10000000000000142,6011,4,56,28
0.10000000000000142,6011,5,56,14
0.10000000000000142,6011,6,56,34
0.10000000000000142,6011,7,56,29
0.10000000000000142,6011,8,56,18
0.10000000000000142,6011,9,56,27
0.10000000000000142,6011,10,56,27
0.09999999999999432,6011,11,56,15
0.10000000000000142,6011,12,56,21
0.09999999999999432,6011,13,56,16
0.10000000000000142,6011,14,56,23
0.10000000000000142,6011,15,56,26
0.09999999999999432,6012,0,56,25
0.09999999999999432,6012,1,56,17
0.10000000000000142,6012,2,56,29
0.10000000000000142,6012,3,56,29
0.10000000000000142,6012,4,56,19
0.02499999999999858,6012,5,56,23
0.10000000000000142,6012,6,56,27
0.10000000000000142,6012,7,56,25
0.10000000000000142,6012,8,56,62
0.10000000000000142,6012,9,56,38
0.10000000000000142,6012,10,56,39
0.10000000000000142,6012,11,56,30
0.09999999999999432,6012,12,56,25
0.10000000000000142,6012,13,56,52
0.09999999999999432,6012,14,56,39
0.10000000000000142,6012,15,56,61
0.10000000000000142,6013,0,56,36
0.10000000000000142,6013,1,56,30
0.10000000000000142,6013,2,56,50
0.10000000000000142,6013,3,56,34
0.09999999999999432,6013,4,56,59
0.10000000000000142,6013,5,56,22
0.10000000000000142,6013,6,56,28
0.10000000000000142,6013,7,56,36
0.09999999999999432,6013,8,56,38
0.10000000000000142,6013,9,56,33
0.10000000000000142,6013,10,56,44
0.10000000000000142,6013,11,56,43
0.10000000000000142,6013,12,56,57
0.09999999999999432,6013,13,56,32
0.10000000000000142,6013,14,56,27
0.09999999999999432,6013,15,56,33
0.09999999999999432,6014,0,56,44
0.09999999999999432,6014,1,56,26
0.10000000000000142,6014,2,56,46
0.10000000000000142,6014,3,56,49
0.10000000000000142,6014,4,56,62
0.10000000000000142,6014,5,56,31
0.10000000000000142,6014,6,56,33
0.10000000000000142,6014,7,56,29
0.09999999999999432,6014,8,56,27
0.10000000000000142,6014,9,56,33
0.10000000000000142,6014,10,56,31
0.09999999999999432,6014,11,56,35
0.10000000000000142,6014,12,56,40
0.10000000000000142,6014,13,56,33
0.09999999999999432,6014,14,56,30
0.09999999999999432,6014,15,56,25
0.10000000000000142,6015,0,56,38
0.10000000000000142,6015,1,56,25
0.09999999999999432,6015,2,56,33
0.10000000000000142,6015,3,56,29
0.10000000000000142,6015,4,56,40
0.10000000000000142,6015,5,56,54
0.10000000000000142,6015,6,56,27
0.10000000000000142,6015,7,56,33
0.10000000000000142,6015,8,56,23
0.10000000000000142,6015,9,56,26
0.10000000000000142,6015,10,56,15
0.10000000000000142,6015,11,56,33
0.10000000000000142,6015,12,56,24
0.09999999999999432,6015,13,56,24
0.10000000000000853,6015,14,56,20
0.09999999999999432,6015,15,56,13
0.10000000000000853,6016,0,56,24
0.09999999999999432,6016,1,56,27
0.09999999999999432,6016,2,56,27
0.09999999999999432,6016,3,56,33
0.10000000000000853,6016,4,56,21
0.09999999999999432,6016,5,56,23
0.09999999999999432,6016,6,56,9
0.09999999999999432,6016,7,56,25
0.09999999999999432,6016,8,56,17
0.10000000000000853,6016,9,56,18
0.09999999999999432,6016,10,56,18
0.09999999999999432,6016,11,56,21
0.09999999999999432,6016,12,56,17
0.09999999999999432,6016,13,56,17
0.10000000000000853,6016,14,56,39
0.10000000000000853,6016,15,56,24
0.09999999999999432,6017,0,56,24
0.09999999999999432,6017,1,56,16
0.10000000000000853,6017,2,56,18
0.09999999999999432,6017,3,56,26
0.10000000000000853,6017,4,56,21
0.10000000000000853,6017,5,56,12
0.09999999999999432,6017,6,56,34
0.09999999999999432,6017,7,56,15
0.09999999999999432,6017,8,56,27
0.06818181818181301,6017,9,56,31
0.09999999999999432,6017,10,56,22
0.09999999999999432,6017,11,56,15
0.09999999999999432,6017,12,56,34
0.09999999999999432,6017,13,56,29
0.10000000000000853,6017,14,56,22
0.10000000000000853,6017,15,56,27
0.10000000000000853,6018,0,56,24
0.09999999999999432,6018,1,56,13
0.10000000000000853,6018,2,56,61
0.10000000000000853,6018,3,56,31
0.09999999999999432,6018,4,56,23
0.09999999999999432,6018,5,56,19
0.10000000000000853,6018,6,56,15
0.09999999999999432,6018,7,56,33
0.09999999999999432,6018,8,56,28
0.09999999999999432,6018,9,56,13
0.10000000000000853,6018,10,56,33
0.09999999999999432,6018,11,56,41
0.09999999999999432,6018,12,56,28
0.09999999999999432,6018,13,56,26
0.10000000000000853,6018,14,56,28
0.09999999999999432,6018,15,56,17
0.09999999999999432,6019,0,56,27
0.10000000000000853,6019,1,56,24
0.10000000000000853,6019,2,56,35
0.10000000000000853,6019,3,56,11
0.10000000000000853,6019,4,56,20
0.09999999999999432,6019,5,56,19
0.09999999999999432,6019,6,56,23
0.09999999999999432,6019,7,56,17
0.09999999999999432,6019,8,56,14
0.10000000000000853,6019,9,56,12
0.10000000000000853,6019,10,56,14
0.10000000000000853,6019,11,56,20
0.10000000000000853,6019,12,56,13
0.09999999999999432,6019,13,56,15
0.09999999999999432,6019,14,56,11
0.09999999999999432,6019,15,56,10
0.10000000000000853,6020,0,56,13
0.09999999999999432,6020,1,56,9
0.10000000000000853,6020,2,56,13
0.09999999999999432,6020,3,56,17
0.09999999999999432,6020,4,56,18
0.09999999999999432,6020,5,56,9
0.09999999999999432,6020,6,56,12
0.09999999999999432,6020,7,56,16
0.10000000000000853,6020,8,56,10
0.10000000000000853,6020,9,56,16
0.10000000000000853,6020,10,56,38
0.09999999999999432,6020,11,56,46
0.10000000000000853,6020,12,56,25
0.10000000000000853,6020,13,56,17
0.10000000000000853,6020,14,56,25
0.10000000000000853,6020,15,56,14
0.09999999999999432,6021,0,56,12
0.10000000000000853,6021,1,56,14
0.09999999999999432,6021,2,56,15
0.09999999999999432,6021,3,56,14
0.09999999999999432,6021,4,56,13
0.09999999999999432,6021,5,56,16
0.09999999999999432,6021,6,56,20
0.09999999999999432,6021,7,56,15
0.09999999999999432,6021,8,56,20
0.09999999999999432,6021,9,56,6
0.09999999999999432,6021,10,56,13
0.09999999999999432,6021,11,56,9
0.09999999999999432,6021,12,56,7
0.10000000000000853,6021,13,56,11
0.09999999999999432,6021,14,56,10
0.10000000000000853,6021,15,56,4
0.09999999999999432,6022,0,56,10
0.09999999999999432,6022,1,56,12
0.10000000000000853,6022,2,56,11
0.09999999999999432,6022,3,56,21
0.09999999999999432,6022,4,56,19
0.056818181818172775,6022,5,56,29
0.013636363636365445,6022,6,56,31
0.025000000000005684,6022,7,56,33
0.03636363636363171,6022,8,56,31
0.09999999999999432,6022,9,56,22
0.056818181818172775,6022,10,56,27
0.01590909090909065,6022,11,56,28
0.10000000000000853,6022,12,56,60
0.10000000000000853,6022,13,56,18
0.10000000000000853,6022,14,56,16
0.09999999999999432,6022,15,56,28
0.09999999999999432,6023,0,56,26
0.09999999999999432,6023,1,56,20
0.09999999999999432,6023,2,56,13
0.024999999999991473,6023,3,56,39
0.09999999999999432,6023,4,56,35
0.10000000000000853,6023,5,56,33
0.10000000000000853,6023,6,56,45
0.09999999999999432,6023,7,56,51
0.09999999999999432,6023,8,56,42
0.09999999999999432,6023,9,56,46
0.06590909090908781,6023,10,56,48
0.10000000000000853,6023,11,56,25
0.09999999999999432,6023,12,56,25
0.09999999999999432,6023,13,56,21
0.09999999999999432,6023,14,56,41
0.09999999999999432,6023,15,56,33
0.09999999999999432,6024,0,56,33
0.09999999999999432,6024,1,56,38
0.09999999999999432,6024,2,56,41
0.09999999999999432,6024,3,56,32
0.10000000000002274,6024,4,56,33
0.09999999999999432,6024,5,56,39
0.09999999999999432,6024,6,56,40
0.09999999999999432,6024,7,56,30
0.09999999999999432,6024,8,56,38
0.10000000000002274,6024,9,56,39
0.09999999999999432,6024,10,56,26
0.10000000000002274,6024,11,56,26
0.09999999999999432,6024,12,56,31
0.09999999999999432,6024,13,56,32
0.09999999999999432,6024,14,56,26
0.09999999999999432,6024,15,56,31
0.10000000000002274,6025,0,56,41
0.09999999999999432,6025,1,56,50
0.09999999999999432,6025,2,56,49
0.09999999999999432,6025,3,56,37
0.10000000000002274,6025,4,56,38
0.09999999999999432,6025,5,56,31
0.09999999999999432,6025,6,56,41
0.09999999999999432,6025,7,56,27
0.09999999999999432,6025,8,56,44
0.09999999999999432,6025,9,56,34
0.09999999999999432,6025,10,56,41
0.09999999999999432,6025,11,56,27
0.09999999999999432,6025,12,56,56
0.09999999999999432,6025,13,56,47
0.09999999999999432,6025,14,56,44
0.09999999999999432,6025,15,56,35
0.09999999999999432,6026,0,56,28
0.09999999999999432,6026,1,56,36
0.09999999999999432,6026,2,56,30
0.09999999999999432,6026,3,56,25
0.09999999999999432,6026,4,56,31
0.10000000000002274,6026,5,56,30
0.09999999999999432,6026,6,56,27
0.09999999999999432,6026,7,56,39
0.09999999999999432,6026,8,56,35
0.09999999999999432,6026,9,56,52
0.09999999999999432,6026,10,56,48
0.09999999999999432,6026,11,56,32
0.10000000000002274,6026,12,56,41
0.09999999999999432,6026,13,56,32
0.10000000000002274,6026,14,56,57
0.09999999999999432,6026,15,56,45
0.09999999999999432,6027,0,56,40
0.09999999999999432,6027,1,56,39
0.09999999999999432,6027,2,56,40
0.10000000000002274,6027,3,56,44
0.09999999999999432,6027,4,56,32
0.09999999999999432,6027,5,56,41
0.09999999999999432,6027,6,56,44
0.10000000000002274,6027,7,56,44
0.09999999999999432,6027,8,56,41
0.09999999999999432,6027,9,56,39
0.09999999999999432,6027,10,56,30
0.10000000000002274,6027,11,56,26
0.09999999999999432,6027,12,56,41
0.09999999999999432,6027,13,56,30
0.10000000000002274,6027,14,56,36
0.09999999999999432,6027,15,56,31
0.09999999999999432,6028,0,56,40
0.09999999999999432,6028,1,56,41
0.09999999999999432,6028,2,56,28
0.10000000000002274,6028,3,56,36
0.09999999999999432,6028,4,56,40
0.09999999999999432,6028,5,56,27
0.09999999999999432,6028,6,56,24
0.10000000000002274,6028,7,56,57
0.09999999999999432,6028,8,56,39
0.10000000000002274,6028,9,56,40
0.09999999999999432,6028,10,56,37
0.09999999999999432,6028,11,56,24
0.09999999999999432,6028,12,56,25
0.09999999999999432,6028,13,56,39
0.10000000000002274,6028,14,56,34
0.09999999999999432,6028,15,56,39
0.09999999999999432,6029,0,56,29
0.09999999999999432,6029,1,56,32
0.09999999999999432,6029,2,56,44
0.09999999999999432,6029,3,56,33
0.09999999999999432,6029,4,56,33
0.10000000000002274,6029,5,56,47
0.09999999999999432,6029,6,56,37
0.09999999999999432,6029,7,56,31
0.09999999999999432,6029,8,56,33
0.09999999999999432,6029,9,56,33
0.10000000000002274,6029,10,56,21
0.09999999999999432,6029,11,56,49
0.09999999999999432,6029,12,56,33
0.09999999999999432,6029,13,56,35
0.09999999999999432,6029,14,56,37
0.09999999999999432,6029,15,56,41
0.09999999999999432,6030,0,56,32
0.09999999999999432,6030,1,56,26
0.09999999999999432,6030,2,56,30
0.09999999999999432,6030,3,56,38
0.09999999999999432,6030,4,56,25
0.10000000000002274,6030,5,56,32
0.09999999999999432,6030,6,56,22
0.09999999999999432,6030,7,56,33
0.09999999999999432,6030,8,56,27
0.09999999999999432,6030,9,56,29
0.09999999999999432,6030,10,56,56
0.10000000000002274,6030,11,56,49
0.09999999999999432,6030,12,56,54
0.09999999999999432,6030,13,56,45
0.10000000000002274,6030,14,56,32
0.09999999999999432,6030,15,56,41
0.09999999999999432,6031,0,56,29
0.09999999999999432,6031,1,56,48
0.09999999999999432,6031,2,56,42
0.09999999999999432,6031,3,56,27
0.10000000000002274,6031,4,56,26
0.09999999999999432,6031,5,56,28
0.09999999999999432,6031,6,56,45
0.09999999999999432,6031,7,56,29
0.09999999999999432,6031,8,56,26
0.09999999999999432,6031,9,56,37
0.10000000000002274,6031,10,56,32
0.09999999999999432,6031,11,56,31
0.09999999999999432,6031,12,56,36
0.09999999999999432,6031,13,56,33
0.09999999999999432,6031,14,56,49
0.09999999999999432,6031,15,56,30
0.09999999999999432,6032,0,56,38
0.10000000000002274,6032,1,56,45
0.10000000000002274,6032,2,56,25
0.09999999999999432,6032,3,56,27
0.09999999999999432,6032,4,56,38
0.09999999999999432,6032,5,56,34
0.09999999999999432,6032,6,56,30
0.10000000000002274,6032,7,56,38
0.09999999999999432,6032,8,56,41
0.09999999999999432,6032,9,56,29
0.09999999999999432,6032,10,56,37
0.10000000000002274,6032,11,56,26
0.09999999999999432,6032,12,56,26
0.09999999999999432,6032,13,56,22
0.09999999999999432,6032,14,56,35
0.09999999999999432,6032,15,56,55
0.10000000000002274,6033,0,56,51
0.09999999999999432,6033,1,56,26
0.09999999999999432,6033,2,56,17
0.09999999999999432,6033,3,56,31
0.10000000000002274,6033,4,56,27
0.09999999999999432,6033,5,56,25
0.09999999999999432,6033,6,56,7
0.10000000000002274,6033,7,56,19
0.04545454545456096,6033,8,56,20
0.09999999999999432,6033,9,56,23
0.09999999999999432,6033,10,56,28
0.09999999999999432,6033,11,56,27
0.09999999999999432,6033,12,56,20
0.09999999999999432,6033,13,56,16
0.056818181818186986,6033,14,56,19
0.09999999999999432,6033,15,56,30
0.09999999999999432,6034,0,56,19
0.10000000000002274,6034,1,56,30
0.10000000000002274,6034,2,56,28
0.09999999999999432,6034,3,56,27
0.09999999999999432,6034,4,56,28
0.09999999999999432,6034,5,56,30
0.10000000000002274,6034,6,56,28
0.09999999999999432,6034,7,56,38
0.09999999999999432,6034,8,56,31
0.09999999999999432,6034,9,56,17
0.09999999999999432,6034,10,56,22
0.09999999999999432,6034,11,56,27
0.10000000000002274,6034,12,56,36
0.09999999999999432,6034,13,56,23
0.09999999999999432,6034,14,56,18
0.09999999999999432,6034,15,56,20
0.09999999999999432,6035,0,56,18
0.10000000000002274,6035,1,56,17
0.09999999999999432,6035,2,56,26
0.09999999999999432,6035,3,56,29
0.09999999999999432,6035,4,56,22
0.10000000000002274,6035,5,56,24
0.09999999999999432,6035,6,56,19
0.09999999999999432,6035,7,56,26
0.09999999999999432,6035,8,56,21
0.09999999999999432,6035,9,56,17
0.10000000000000142,6035,10,67,14
0.09999999999999787,6035,11,67,13
0.10000000000000142,6035,12,67,21
0.09999999999999787,6035,13,67,14
0.05681818181817988,6035,14,67,18
0.10000000000000142,6035,15,67,17
0.09999999999999787,6036,0,67,12
0.10000000000000142,6036,1,67,27
0.10000000000000142,6036,2,67,33
0.10000000000000142,6036,3,67,32
0.10000000000000142,6036,4,67,12
0.10000000000000142,6036,5,67,20
0.10000000000000142,6036,6,67,9
0.10000000000000142,6036,7,67,13
0.10000000000000142,6036,8,67,15
0.10000000000000142,6036,9,67,17
0.10000000000000142,6036,10,67,19
0.10000000000000142,6036,11,67,12
0.09999999999999432,6036,12,67,13
0.10000000000000142,6036,13,67,17
0.09999999999999432,6036,14,67,18
0.10000000000000142,6036,15,67,12
0.09999999999999432,6037,0,67,14
0.10000000000000142,6037,1,67,15
0.10000000000000142,6037,2,67,19
0.10000000000000142,6037,3,67,19
0.10000000000000142,6037,4,67,30
0.10000000000000142,6037,5,67,9
0.10000000000000142,6037,6,67,19
0.10000000000000142,6037,7,67,21
0.10000000000000142,6037,8,67,17
0.10000000000000142,6037,9,67,14
0.10000000000000142,6037,10,67,20
0.10000000000000142,6037,11,67,17
0.10000000000000142,6037,12,67,13
0.10000000000000142,6037,13,67,18
0.10000000000000142,6037,14,67,21
0.10000000000000142,6037,15,67,19
0.10000000000000142,6038,0,67,20
0.10000000000000142,6038,1,67,17
0.10000000000000142,6038,2,67,18
0.10000000000000142,6038,3,67,13
0.10000000000000142,6038,4,67,15
0.09999999999999432,6038,5,67,20
0.10000000000000142,6038,6,67,19
0.09999999999999432,6038,7,67,12
0.10000000000000142,6038,8,67,13
0.09999999999999432,6038,9,67,9
0.10000000000000142,6038,10,67,11
0.09999999999999432,6038,11,67,12
0.09999999999999432,6038,12,67,9
0.09999999999999432,6038,13,67,12
0.09999999999999432,6038,14,67,2
0.09999999999999432,6038,15,67,1
0.09999999999999432,6039,0,67,4
0.09999999999999432,6039,1,67,14
0.09999999999999432,6039,2,67,16
0.09999999999999432,6039,3,67,22
0.10000000000000853,6039,4,67,27
0.09999999999999432,6039,5,67,24
0.10000000000000853,6039,6,67,13
0.09999999999999432,6039,7,67,27
0.09999999999999432,6039,8,67,34
0.09999999999999432,6039,9,67,23
0.09999999999999432,6039,10,67,24
0.09999999999999432,6039,11,67,22
0.10000000000000853,6039,12,67,15
0.09999999999999432,6039,13,67,16
0.10000000000000853,6039,14,67,20
0.09999999999999432,6039,15,67,18
0.10000000000000853,6040,0,67,26
0.09999999999999432,6040,1,67,21
0.09999999999999432,6040,2,67,35
0.09999999999999432,6040,3,67,16
0.10000000000000853,6040,4,67,11
0.09999999999999432,6040,5,67,21
0.09999999999999432,6040,6,67,19
0.10000000000000853,6040,7,67,19
0.09999999999999432,6040,8,67,12
0.09999999999999432,6040,9,67,18
0.09999999999999432,6040,10,67,14
0.09999999999999432,6040,11,67,20
0.09999999999999432,6040,12,67,16
0.10000000000000853,6040,13,67,23
0.09999999999999432,6040,14,67,18
0.09999999999999432,6040,15,67,15
0.09999999999999432,6041,0,67,15
0.09999999999999432,6041,1,67,26
0.10000000000002274,6041,2,67,16
0.09999999999999432,6041,3,67,16
0.09999999999999432,6041,4,67,17
0.09999999999999432,6041,5,67,28
0.10000000000002274,6041,6,67,18
0.09999999999999432,6041,7,67,24
0.09999999999999432,6041,8,67,26
0.09999999999999432,6041,9,67,17
0.10000000000002274,6041,10,67,22
0.09999999999999432,6041,11,67,32
0.09999999999999432,6041,12,67,27
0.09999999999999432,6041,13,67,14
0.09999999999999432,6041,14,67,17
0.09999999999999432,6041,15,67,13
0.09999999999999432,6042,0,67,31
0.09999999999999432,6042,1,67,14
0.09999999999999432,6042,2,67,14
0.09999999999999432,6042,3,67,12
0.09999999999999432,6042,4,67,12
0.10000000000002274,6042,5,67,12
0.10000000000002274,6042,6,67,10
0.09999999999999432,6042,7,67,17
0.09999999999999432,6042,8,67,12
0.09999999999999432,6042,9,67,23
0.09999999999999432,6042,10,67,18
0.09999999999999432,6042,11,67,46
0.09999999999999432,6042,12,67,15
0.09999999999999432,6042,13,67,11
0.09999999999999432,6042,14,67,17
0.10000000000002274,6042,15,67,13
0.09999999999999432,6043,0,67,28
0.10000000000002274,6043,1,67,14
0.09999999999999432,6043,2,67,15
0.09999999999999432,6043,3,67,13
0.09999999999999432,6043,4,67,9
0.09999999999999432,6043,5,67,10
0.10000000000002274,6043,6,67,12
0.10000000000002274,6043,7,67,13
0.09999999999999432,6043,8,67,15
0.09999999999999432,6043,9,67,18
0.09999999999999432,6043,10,67,20
0.09999999999999432,6043,11,67,15
0.09999999999999432,6043,12,67,19
0.09999999999999432,6043,13,67,28
0.09999999999999432,6043,14,67,8
0.10000000000002274,6043,15,67,16
0.09999999999999432,6044,0,67,18
0.09999999999999432,6044,1,67,23
0.09999999999999432,6044,2,67,20
0.09999999999999432,6044,3,67,20
0.09999999999999432,6044,4,67,12
0.09999999999999432,6044,5,67,26
0.09999999999999432,6044,6,67,17
0.09999999999999432,6044,7,67,16
0.09999999999999432,6044,8,67,13
0.10000000000002274,6044,9,67,11
0.09999999999999432,6044,10,67,13
0.09999999999999432,6044,11,67,17
0.09999999999999432,6044,12,67,13
0.10000000000002274,6044,13,67,17
0.09999999999999432,6044,14,67,11
0.09999999999999432,6044,15,67,12
0.09999999999999432,6045,0,67,10
0.09999999999999432,6045,1,67,6
0.09999999999999432,6045,2,67,21
0.09999999999999432,6045,3,67,13
0.09999999999999432,6045,4,67,27
0.09999999999999432,6045,5,67,19
0.09999999999999432,6045,6,67,4
0.09999999999999432,6045,7,67,13
0.10000000000002274,6045,8,67,16
0.09999999999999432,6045,9,67,7
0.09999999999999432,6045,10,67,6
0.09999999999999432,6045,11,67,17
0.09999999999999432,6045,12,67,21
0.09999999999999432,6045,13,67,26
0.09999999999999432,6045,14,67,14
0.10000000000002274,6045,15,67,28
0.09999999999999432,6046,0,67,19
0.09999999999999432,6046,1,67,20
0.09999999999999432,6046,2,67,32
0.09999999999999432,6046,3,67,24
0.09999999999999432,6046,4,67,26
0.09999999999999432,6046,5,67,31
0.09999999999999432,6046,6,67,18
0.10000000000002274,6046,7,67,17
0.09999999999999432,6046,8,67,19
0.09999999999999432,6046,9,67,18
0.09999999999999432,6046,10,67,18
0.09999999999999432,6046,11,67,18
0.10000000000002274,6046,12,67,16
0.09999999999999432,6046,13,67,8
0.09999999999999432,6046,14,67,26
0.09999999999999432,6046,15,67,21
0.10000000000002274,6047,0,67,25
0.09999999999999432,6047,1,67,19
0.09999999999999432,6047,2,67,14
0.09999999999999432,6047,3,67,36
0.10000000000000142,6047,4,67,52
0.10000000000000142,6047,5,67,3
0.09999999999999787,6047,6,67,3
0.09999999999999787,6047,7,67,30
0.09999999999999787,6047,8,67,31
0.10000000000000142,6047,9,67,3
0.09999999999999787,6047,10,67,38
0.10000000000000142,6047,11,67,22
0.10000000000000142,6047,12,67,3
0.09999999999999787,6047,13,67,1
0.10000000000000142,6047,14,67,33
0.10000000000000142,6047,15,67,12
0.09999999999999787,6048,0,67,40
0.10000000000000142,6048,1,67,9
0.09999999999999787,6048,2,67,8
0.10000000000000142,6048,3,67,5
0.10000000000000142,6048,4,67,57
0.09999999999999787,6048,5,67,4
0.10000000000000142,6048,6,67,10
0.09999999999999787,6048,7,67,7
0.10000000000000142,6048,8,67,46
0.10000000000000142,6048,9,67,7
0.09999999999999787,6048,10,67,15
0.10000000000000142,6048,11,67,41
0.09999999999999787,6048,12,67,9
0.10000000000000142,6048,13,67,1
0.10000000000000142,6048,14,67,33
0.09999999999999787,6048,15,67,8
0.10000000000000142,6049,0,67,55
0.09999999999999787,6049,1,67,11
0.10000000000000142,6049,2,67,8
0.10000000000000142,6049,3,67,16
0.09999999999999787,6049,4,67,38
0.10000000000000142,6049,5,67,1
0.09999999999999787,6049,6,67,3
0.10000000000000142,6049,7,67,25
0.10000000000000142,6049,8,67,28
0.10000000000000142,6049,9,67,12
0.09999999999999787,6049,10,67,7
0.10000000000000142,6049,11,67,7
0.09999999999999787,6049,12,67,10
0.10000000000000142,6049,13,67,3
0.10000000000000142,6049,14,67,25
0.10000000000000142,6049,15,67,9
0.09999999999999787,6050,0,67,5
0.09999999999999787,6050,1,67,15
0.09999999999999432,6050,2,67,18
0.10000000000000142,6050,3,67,24
0.10000000000000142,6050,4,67,14
0.10000000000000142,6050,5,67,7
0.09999999999999432,6050,6,67,1
0.09999999999999432,6050,7,67,8
0.10000000000000142,6050,8,67,8
0.10000000000000142,6050,9,67,21
0.10000000000000142,6050,10,67,9
0.10000000000000142,6050,11,67,12
0.10000000000000142,6050,12,67,12
0.10000000000000142,6050,13,67,12
0.10000000000000142,6050,14,67,17
0.10000000000000142,6050,15,67,7
0.10000000000000142,6051,0,67,5
0.10000000000000142,6051,1,67,13
0.10000000000000142,6051,2,67,2
0.10000000000000142,6051,3,67,25
0.09999999999999432,6051,4,67,16
0.10000000000000142,6051,5,67,13
0.10000000000000142,6051,6,67,12
0.09999999999999432,6051,7,67,18
0.10000000000000142,6051,8,67,6
0.09999999999999432,6051,9,67,16
0.10000000000000142,6051,10,67,14
0.10000000000000142,6051,11,67,6
0.10000000000000142,6051,12,67,33
0.10000000000000142,6051,13,67,9
0.10000000000000142,6051,14,67,12
0.10000000000000142,6051,15,67,19
0.10000000000000142,6052,0,67,14
0.10000000000000142,6052,1,67,17
0.10000000000000142,6052,2,67,13
0.10000000000000142,6052,3,67,6
0.10000000000000142,6052,4,67,1
0.10000000000000142,6052,5,67,11
0.10000000000000142,6052,6,67,2
0.10000000000000142,6052,7,67,27
0.10000000000000142,6052,8,67,4
0.10000000000000142,6052,9,67,6
0.09999999999999432,6052,10,67,15
0.10000000000000142,6052,11,67,7
0.10000000000000142,6052,12,67,3
0.10000000000000142,6052,13,67,8
0.10000000000000142,6052,14,67,6
0.09999999999999432,6052,15,67,7
0.09999999999999432,6053,0,67,2
0.10000000000000142,6053,1,67,7
0.10000000000000142,6053,2,67,3
0.10000000000000142,6053,3,67,1
0.09999999999999432,6053,4,67,1
0.10000000000000142,6053,5,67,2
0.10000000000000142,6053,6,67,14
0.09999999999999432,6053,7,67,1
0.10000000000000142,6053,8,67,1
0.10000000000000142,6053,9,67,2
0.10000000000000142,6053,10,67,3
0.10000000000000142,6053,11,67,1
0.10000000000000142,6053,12,67,7
0.10000000000000142,6053,13,67,1
0.10000000000000142,6053,14,67,10
0.10000000000000142,6053,15,67,2
0.10000000000000142,6054,0,67,1
0.10000000000000142,6054,1,67,2
0.10000000000000142,6054,2,67,2
0.10000000000000142,6054,3,67,1
0.10000000000000142,6054,4,67,1
0.10000000000000142,6054,5,67,1
0.09999999999999432,6054,6,67,12
0.10000000000000142,6054,7,67,1
0.10000000000000142,6054,8,67,1
0.09999999999999432,6054,9,67,2
0.10000000000000142,6054,10,67,3
0.09999999999999432,6054,11,67,1
0.10000000000000142,6054,12,67,6
0.10000000000000142,6054,13,67,1
0.09999999999999432,6054,14,67,11
0.10000000000000142,6054,15,67,2
0.09999999999999432,6055,0,67,1
0.10000000000000142,6055,1,67,2
0.10000000000000142,6055,2,67,2
0.09999999999999432,6055,3,67,1
0.10000000000000142,6055,4,67,1
0.09999999999999432,6055,5,67,2
0.10000000000000142,6055,6,67,11
0.10000000000000142,6055,7,67,1
0.09999999999999432,6055,8,67,1
0.10000000000000142,6055,9,67,2
0.10000000000000142,6055,10,67,3
0.10000000000000142,6055,11,67,1
0.10000000000000142,6055,12,67,7
0.09999999999999432,6055,13,67,1
0.10000000000000142,6055,14,67,13
0.10000000000000142,6055,15,67,2
0.10000000000000142,6056,0,67,1
0.10000000000000142,6056,1,67,2
0.10000000000000142,6056,2,67,2
0.10000000000000142,6056,3,67,1
0.10000000000000142,6056,4,67,1
0.10000000000000142,6056,5,67,1
0.10000000000000142,6056,6,67,11
0.10000000000000142,6056,7,67,1
0.10000000000000142,6056,8,67,1
0.10000000000000142,6056,9,67,2
0.10000000000000142,6056,10,67,2
0.10000000000000142,6056,11,67,1
0.10000000000000142,6056,12,67,4
0.10000000000000142,6056,13,67,1
0.10000000000000142,6056,14,67,9
0.10000000000000142,6056,15,67,2
0.10000000000000142,6057,0,67,1
0.10000000000000142,6057,1,67,2
0.10000000000000142,6057,2,67,2
0.09999999999999432,6057,3,67,1
0.10000000000000142,6057,4,67,1
0.10000000000000142,6057,5,67,2
0.09999999999999432,6057,6,67,10
0.09999999999999432,6057,7,67,1
0.09999999999999432,6057,8,67,1
0.09999999999999432,6057,9,67,2
0.10000000000000142,6057,10,67,3
0.09999999999999432,6057,11,67,1
0.10000000000000142,6057,12,67,7
0.10000000000000142,6057,13,67,1
0.09999999999999432,6057,14,67,10
0.10000000000000142,6057,15,67,2
0.10000000000000142,6058,0,67,1
0.09999999999999432,6058,1,67,12
0.09999999999999432,6058,2,67,2
0.09999999999999432,6058,3,67,2
0.09999999999999432,6058,4,67,10
0.09999999999999432,6058,5,67,2
0.10000000000000853,6058,6,67,2
0.09999999999999432,6058,7,67,2
0.09999999999999432,6058,8,67,10
0.09999999999999432,6058,9,67,2
0.09999999999999432,6058,10,67,2
0.09999999999999432,6058,11,67,2
0.09999999999999432,6058,12,67,11
0.10000000000002274,6058,13,67,1
0.09999999999999432,6058,14,67,2
0.10000000000002274,6058,15,67,11
0.10000000000002274,6059,0,67,2
0.09999999999999432,6059,1,67,1
0.10000000000002274,6059,2,67,2
0.09999999999999432,6059,3,67,10
0.09999999999999432,6059,4,67,2
0.09999999999999432,6059,5,67,2
0.09999999999999432,6059,6,67,2
0.09999999999999432,6059,7,67,11
0.09999999999999432,6059,8,67,2
0.09999999999999432,6059,9,67,2
0.09999999999999432,6059,10,67,2
0.09999999999999432,6059,11,67,11
0.10000000000002274,6059,12,67,2
0.09999999999999432,6059,13,67,2
0.09999999999999432,6059,14,67,2
0.09999999999999432,6059,15,67,10
0.09999999999999432,6060,0,67,2
0.10000000000002274,6060,1,67,2
0.09999999999999432,6060,2,67,9
0.09999999999999432,6060,3,67,1
0.09999999999999432,6060,4,67,2
0.09999999999999432,6060,5,67,2
0.09999999999999432,6060,6,67,10
0.09999999999999432,6060,7,67,2
0.09999999999999432,6060,8,67,2
0.09999999999999432,6060,9,67,12
0.09999999999999432,6060,10,67,2
0.09999999999999432,6060,11,67,2
0.09999999999999432,6060,12,67,2
0.09999999999999432,6060,13,67,11
0.09999999999999432,6060,14,67,2
0.10000000000002274,6060,15,67,2
0.09999999999999432,6061,0,67,2
0.10000000000002274,6061,1,67,11
0.09999999999999432,6061,2,67,2
0.09999999999999432,6061,3,67,2
0.09999999999999432,6061,4,67,2
0.09999999999999432,6061,5,67,11
0.09999999999999432,6061,6,67,2
0.09999999999999432,6061,7,67,2
0.09999999999999432,6061,8,67,1
0.09999999999999432,6061,9,67,10
0.09999999999999432,6061,10,67,2
0.10000000000002274,6061,11,67,2
0.09999999999999432,6061,12,67,2
0.09999999999999432,6061,13,67,11
0.10000000000002274,6061,14,67,2
0.09999999999999432,6061,15,67,2
0.10000000000002274,6062,0,67,2
0.10000000000002274,6062,1,67,10
0.09999999999999432,6062,2,67,1
0.09999999999999432,6062,3,67,2
0.09999999999999432,6062,4,67,2
0.09999999999999432,6062,5,67,11
0.09999999999999432,6062,6,67,2
0.09999999999999432,6062,7,67,2
0.09999999999999432,6062,8,67,10
0.09999999999999432,6062,9,67,2
0.09999999999999432,6062,10,67,2
0.09999999999999432,6062,11,67,1
0.09999999999999432,6062,12,67,11
0.09999999999999432,6062,13,67,1
0.09999999999999432,6062,14,67,1
0.09999999999999432,6062,15,67,11
0.09999999999999432,6063,0,67,2
0.10000000000002274,6063,1,67,2
0.09999999999999432,6063,2,67,2
0.09999999999999432,6063,3,67,11
0.09999999999999432,6063,4,67,2
0.09999999999999432,6063,5,67,2
0.09999999999999432,6063,6,67,2
0.09999999999999432,6063,7,67,11
0.09999999999999432,6063,8,67,2
0.09999999999999432,6063,9,67,2
0.09999999999999432,6063,10,67,2
0.09999999999999432,6063,11,67,11
0.09999999999999432,6063,12,67,2
0.10000000000002274,6063,13,67,1
0.09999999999999432,6063,14,67,2
0.09999999999999432,6063,15,67,11
0.09999999999999432,6064,0,67,2
0.09999999999999432,6064,1,67,2
0.09999999999999432,6064,2,67,2
0.10000000000002274,6064,3,67,10
0.09999999999999432,6064,4,67,1
0.09999999999999432,6064,5,67,1
0.09999999999999432,6064,6,67,2
0.09999999999999432,6064,7,67,10
0.09999999999999432,6064,8,67,2
0.09999999999999432,6064,9,67,2
0.09999999999999432,6064,10,67,2
0.09999999999999432,6064,11,67,11
0.10000000000002274,6064,12,67,2
0.09999999999999432,6064,13,67,2
0.09999999999999432,6064,14,67,2
0.10000000000002274,6064,15,67,12
0.09999999999999432,6065,0,67,2
0.09999999999999432,6065,1,67,2
0.10000000000002274,6065,2,67,2
0.09999999999999432,6065,3,67,11
0.09999999999999432,6065,4,67,2
0.09999999999999432,6065,5,67,2
0.09999999999999432,6065,6,67,2
0.09999999999999432,6065,7,67,11
0.09999999999999432,6065,8,67,2
0.09999999999999432,6065,9,67,1
0.09999999999999432,6065,10,67,2
0.09999999999999432,6065,11,67,14
0.10000000000002274,6065,12,67,2
0.09999999999999432,6065,13,67,5
0.09999999999999432,6065,14,67,3
0.10000000000002274,6065,15,67,14
0.09999999999999432,6066,0,67,6
0.09999999999999432,6066,1,67,2
0.10000000000002274,6066,2,67,5
0.09999999999999432,6066,3,67,2
0.09999999999999432,6066,4,67,6
0.09999999999999432,6066,5,67,2
0.09999999999999432,6066,6,67,14
0.10000000000002274,6066,7,67,2
0.09999999999999432,6066,8,67,6
0.09999999999999432,6066,9,67,2
0.09999999999999432,6066,10,67,16
0.09999999999999432,6066,11,67,3
0.09999999999999432,6066,12,67,5
0.09999999999999432,6066,13,67,2
0.09999999999999432,6066,14,67,18
0.09999999999999432,6066,15,67,3
0.10000000000002274,6067,0,67,5
0.09999999999999432,6067,1,67,2
0.10000000000002274,6067,2,67,5
0.09999999999999432,6067,3,67,9
0.09999999999999432,6067,4,67,2
0.10000000000002274,6067,5,67,6
0.09999999999999432,6067,6,67,3
0.10000000000002274,6067,7,67,17
0.10000000000002274,6067,8,67,2
0.09999999999999432,6067,9,67,8
0.10000000000002274,6067,10,67,3
0.09999999999999432,6067,11,67,9
0.09999999999999432,6067,12,67,3
0.09999999999999432,6067,13,67,7
0.09999999999999432,6067,14,67,3
0.09999999999999432,6067,15,67,12
0.09999999999999432,6068,0,67,2
0.09999999999999432,6068,1,67,6
0.09999999999999432,6068,2,67,3
0.09999999999999432,6068,3,67,8
0.10000000000002274,6068,4,67,2
0.09999999999999432,6068,5,67,6
0.09999999999999432,6068,6,67,3
0.10000000000002274,6068,7,67,13
0.09999999999999432,6068,8,67,2
0.09999999999999432,6068,9,67,7
0.10000000000002274,6068,10,67,3
0.09999999999999432,6068,11,67,11
0.09999999999999432,6068,12,67,3
0.09999999999999432,6068,13,67,6
0.09999999999999432,6068,14,67,3
0.10000000000002274,6068,15,67,13
0.09999999999999432,6069,0,67,2
0.09999999999999432,6069,1,67,6
0.09999999999999432,6069,2,67,3
0.09999999999999432,6069,3,67,11
0.10000000000002274,6069,4,67,3
0.09999999999999432,6069,5,67,6
0.09999999999999432,6069,6,67,3
0.09999999999999432,6069,7,67,14
0.09999999999999432,6069,8,67,2
0.10000000000002274,6069,9,67,7
0.09999999999999432,6069,10,67,3
0.10000000000002274,6069,11,67,14
0.10000000000002274,6069,12,67,2
0.09999999999999432,6069,13,67,8
0.10000000000002274,6069,14,67,3
0.09999999999999432,6069,15,67,15
0.09999999999999432,6070,0,67,3
0.09999999999999432,6070,1,67,7
0.09999999999999432,6070,2,67,1
0.09999999999999432,6070,3,67,10
0.09999999999999432,6070,4,67,2
0.10000000000002274,6070,5,67,7
0.09999999999999432,6070,6,67,3
0.09999999999999432,6070,7,67,17
0.10000000000002274,6070,8,67,2
0.09999999999999432,6070,9,67,7
0.09999999999999432,6070,10,67,3
0.09999999999999432,6070,11,67,9
0.09999999999999432,6070,12,67,3
0.09999999999999432,6070,13,67,8
0.09999999999999432,6070,14,67,3
0.09999999999999432,6070,15,67,15
0.09999999999999432,6071,0,67,3
0.09999999999999432,6071,1,67,8
0.09999999999999432,6071,2,67,2
0.09999999999999432,6071,3,67,14
0.09999999999999432,6071,4,67,3
0.09999999999999432,6071,5,67,7
0.09999999999999432,6071,6,67,4
0.10000000000002274,6071,7,67,15
0.09999999999999432,6071,8,67,2
0.09999999999999432,6071,9,67,5
0.09999999999999432,6071,10,67,2
0.09999999999999432,6071,11,67,9
0.09999999999999432,6071,12,67,3
0.09999999999999432,6071,13,67,8
0.09999999999999432,6071,14,67,3
0.09999999999999432,6071,15,67,16
0.09999999999999432,6072,0,67,8
0.09999999999999432,6072,1,67,3
0.09999999999999432,6072,2,67,15
0.09999999999999432,6072,3,67,3
0.09999999999999432,6072,4,67,7
0.09999999999999432,6072,5,67,4
0.09999999999999432,6072,6,67,16
0.09999999999999432,6072,7,67,2
0.10000000000002274,6072,8,67,8
0.09999999999999432,6072,9,67,3
0.09999999999999432,6072,10,67,16
0.09999999999999432,6072,11,67,3
0.09999999999999432,6072,12,67,8
0.10000000000002274,6072,13,67,4
0.10000000000002274,6072,14,67,18
0.09999999999999432,6072,15,67,8
0.09999999999999432,6073,0,67,3
0.09999999999999432,6073,1,67,30
0.09999999999999432,6073,2,67,5
0.09999999999999432,6073,3,67,5
0.10000000000002274,6073,4,67,5
0.09999999999999432,6073,5,67,28
0.09999999999999432,6073,6,67,5
0.09999999999999432,6073,7,67,5
0.09999999999999432,6073,8,67,5
0.10000000000002274,6073,9,67,28
0.09999999999999432,6073,10,67,5
0.09999999999999432,6073,11,67,5
0.09999999999999432,6073,12,67,5
0.09999999999999432,6073,13,67,29
0.09999999999999432,6073,14,67,5
0.09999999999999432,6073,15,67,6
0.09999999999999432,6074,0,67,5
0.09999999999999432,6074,1,67,26
0.09999999999999432,6074,2,67,5
0.10000000000002274,6074,3,67,5
0.09999999999999432,6074,4,67,4
0.10000000000002274,6074,5,67,27
0.10000000000002274,6074,6,67,5
0.09999999999999432,6074,7,67,6
0.09999999999999432,6074,8,67,5
0.09999999999999432,6074,9,67,27
0.09999999999999432,6074,10,67,6
0.09999999999999432,6074,11,67,5
0.09999999999999432,6074,12,67,3
0.09999999999999432,6074,13,67,27
0.10000000000002274,6074,14,67,6
0.09999999999999432,6074,15,67,4
0.09999999999999432,6075,0,67,25
0.10000000000002274,6075,1,67,4
0.09999999999999432,6075,2,67,5
0.09999999999999432,6075,3,67,5
0.09999999999999432,6075,4,67,28
0.09999999999999432,6075,5,67,5
0.09999999999999432,6075,6,67,6
0.10000000000002274,6075,7,67,5
0.09999999999999432,6075,8,67,23
0.09999999999999432,6075,9,67,5
0.09999999999999432,6075,10,67,5
0.09999999999999432,6075,11,67,4
0.09999999999999432,6075,12,67,32
0.09999999999999432,6075,13,67,6
0.09999999999999432,6075,14,67,4
0.09999999999999432,6075,15,67,29
0.09999999999999432,6076,0,67,3
0.10000000000002274,6076,1,67,5
0.09999999999999432,6076,2,67,30
0.10000000000002274,6076,3,67,6
0.09999999999999432,6076,4,67,5
0.10000000000002274,6076,5,67,26
0.09999999999999432,6076,6,67,6
0.09999999999999432,6076,7,67,5
0.09999999999999432,6076,8,67,6
0.09999999999999432,6076,9,67,31
0.10000000000002274,6076,10,67,4
0.09999999999999432,6076,11,67,4
0.10000000000000142,6076,12,67,12
0.03636363636363171,6076,13,67,30
0.10000000000000142,6076,14,67,31
0.10000000000000142,6076,15,67,30
0.10000000000000142,6077,0,67,26
0.09999999999999432,6077,1,67,30
0.10000000000000142,6077,2,67,34
0.10000000000000142,6077,3,67,27
0.10000000000000142,6077,4,67,36
0.10000000000000142,6077,5,67,54
0.10000000000000142,6077,6,67,63
0.10000000000000142,6077,7,67,48
0.10000000000000142,6077,8,67,42
0.10000000000000142,6077,9,67,50
0.10000000000000142,6077,10,67,36
0.10000000000000142,6077,11,67,34
0.10000000000000142,6077,12,67,35
0.09999999999999432,6077,13,67,26
0.10000000000000853,6077,14,67,36
0.09999999999999432,6077,15,67,40
0.10000000000000853,6078,0,67,29
0.10000000000000853,6078,1,67,23
0.10000000000000853,6078,2,67,32
0.10000000000000853,6078,3,67,28
0.09999999999999432,6078,4,67,31
0.10000000000000853,6078,5,67,48
0.09999999999999432,6078,6,67,37
0.09999999999999432,6078,7,67,43
0.09999999999999432,6078,8,67,37
0.09999999999999432,6078,9,67,2
0.09999999999999432,6078,10,67,4
0.09999999999999432,6078,11,67,3
0.10000000000000853,6078,12,67,10
0.09999999999999432,6078,13,67,3
0.09999999999999432,6078,14,67,9
0.10000000000000853,6078,15,67,19
0.09999999999999432,6079,0,67,12
0.09999999999999432,6079,1,67,23
0.10000000000000853,6079,2,67,44
0.09999999999999432,6079,3,67,5
0.09999999999999432,6079,4,67,6
0.10000000000000853,6079,5,67,8
0.09999999999999432,6079,6,67,12
0.09999999999999432,6079,7,67,17
0.09999999999999432,6079,8,67,10
0.09999999999999432,6079,9,67,13
0.10000000000000853,6079,10,67,9
0.09999999999999432,6079,11,67,12
0.10000000000000853,6079,12,67,18
0.09999999999999432,6079,13,67,15
0.10000000000000853,6079,14,67,18
0.09999999999999432,6079,15,67,4
0.09999999999999432,6080,0,67,18
0.09999999999999432,6080,1,67,2
0.09999999999999432,6080,2,67,12
0.10000000000002274,6080,3,67,2
0.10000000000002274,6080,4,67,4
0.09999999999999432,6080,5,67,25
0.09999999999999432,6080,6,67,30
0.10000000000002274,6080,7,67,13
0.09999999999999432,6080,8,67,29
0.10000000000002274,6080,9,67,15
0.09999999999999998,6080,10,79,17
0.10000000000000009,6080,11,79,47
0.10000000000000009,6080,12,79,45
0.10000000000000009,6080,13,79,28
0.09999999999999987,6080,14,79,32
0.10000000000000009,6080,15,79,48
0.02499999999999991,6081,0,79,34
0.10000000000000009,6081,1,79,39
0.10000000000000009,6081,2,79,15
0.10000000000000009,6081,3,79,31
0.013636363636363669,6081,4,79,32
0.10000000000000009,6081,5,79,37
0.10000000000000009,6081,6,79,21
0.10000000000000009,6081,7,79,16
0.10000000000000009,6081,8,79,49
0.09999999999999964,6081,9,79,19
0.10000000000000053,6081,10,79,50
0.09999999999999964,6081,11,79,36
0.09999999999999964,6081,12,79,20
0.10000000000000053,6081,13,79,27
0.09999999999999964,6081,14,79,30
0.09999999999999964,6081,15,79,49
0.09999999999999964,6082,0,79,7
0.09999999999999964,6082,1,79,42
0.09999999999999964,6082,2,79,16
0.09999999999999964,6082,3,79,24
0.034090909090908283,6082,4,79,27
0.10000000000000053,6082,5,79,16
0.09999999999999964,6082,6,79,29
0.10000000000000053,6082,7,79,34
0.09999999999999964,6082,8,79,50
0.09999999999999964,6082,9,79,32
0.09999999999999964,6082,10,79,7
0.034090909090908283,6082,11,79,44
0.09999999999999964,6082,12,79,61
0.09999999999999964,6082,13,79,7
0.09999999999999964,6082,14,79,15
0.09999999999999964,6082,15,79,54
0.10000000000000142,6083,0,79,23
0.09999999999999964,6083,1,79,62
0.10000000000000142,6083,2,79,18
0.09999999999999964,6083,3,79,46
0.09999999999999964,6083,4,79,25
0.10000000000000142,6083,5,79,49
0.09999999999999964,6083,6,79,41
0.10000000000000142,6083,7,79,22
0.09999999999999964,6083,8,79,21
0.09999999999999964,6083,9,79,46
0.09999999999999964,6083,10,79,57
0.09999999999999964,6083,11,79,37
0.09999999999999964,6083,12,79,49
0.09999999999999964,6083,13,79,53
0.09999999999999964,6083,14,79,26
0.09999999999999964,6083,15,79,3
0.09999999999999964,6084,0,79,31
0.09999999999999964,6084,1,79,16
0.09999999999999964,6084,2,79,32
0.10000000000000142,6084,3,79,58
0.10000000000000142,6084,4,79,31
0.09999999999999787,6084,5,79,49
0.09999999999999787,6084,6,79,57
0.10000000000000142,6084,7,79,74
0.09999999999999787,6084,8,79,41
0.10000000000000142,6084,9,79,93
0.10000000000000142,6084,10,79,72
0.09999999999999787,6084,11,79,30
0.10000000000000142,6084,12,79,80
0.10000000000000142,6084,13,79,86
0.09999999999999787,6084,14,79,14
0.10000000000000142,6084,15,79,26
0.10000000000000142,6085,0,79,40
0.10000000000000142,6085,1,79,30
0.09999999999999787,6085,2,79,17
0.10000000000000142,6085,3,79,21
0.09999999999999787,6085,4,79,40
0.10000000000000142,6085,5,79,34
0.09999999999999787,6085,6,79,32
0.10000000000000142,6085,7,79,23
0.09999999999999787,6085,8,79,26
0.10000000000000142,6085,9,79,8
0.10000000000000142,6085,10,79,41
0.10000000000000142,6085,11,79,17
0.09999999999999787,6085,12,79,66
0.10000000000000142,6085,13,79,76
0.09999999999999787,6085,14,79,32
0.09999999999999787,6085,15,79,72
0.09999999999999787,6086,0,79,6
0.09999999999999787,6086,1,79,56
0.036363636363635266,6086,2,79,52
0.10000000000000142,6086,3,79,27
0.0022727272727287584,6086,4,79,47
0.09999999999999787,6086,5,79,49
0.10000000000000142,6086,6,79,50
0.10000000000000142,6086,7,79,87
0.10000000000000142,6086,8,79,44
0.09999999999999787,6086,9,79,31
0.09999999999999787,6086,10,79,41
0.04772727272727195,6086,11,79,70
0.10000000000000142,6086,12,79,44
0.10000000000000142,6086,13,79,36
0.10000000000000142,6086,14,79,101
0.09999999999999787,6086,15,79,77
0.09999999999999787,6087,0,79,30
0.10000000000000142,6087,1,79,8
0.10000000000000142,6087,2,79,69
0.004545454545450411,6087,3,79,115
0.10000000000000142,6087,4,79,83
0.10000000000000142,6087,5,79,85
0.09999999999999432,6087,6,79,127
0.10000000000000142,6087,7,79,52
0.10000000000000142,6087,8,79,51
0.09999999999999432,6087,9,79,107
0.10000000000000142,6087,10,79,52
0.09999999999999432,6087,11,79,86
0.10000000000000142,6087,12,79,109
0.10000000000000142,6087,13,79,74
0.10000000000000142,6087,14,79,96
0.10000000000000142,6087,15,79,108
0.09999999999999432,6088,0,79,93
0.10000000000000142,6088,1,79,96
0.10000000000000142,6088,2,79,69
0.10000000000000142,6088,3,79,116
0.10000000000000142,6088,4,79,103
0.10000000000000142,6088,5,79,83
0.10000000000000142,6088,6,79,127
0.10000000000000142,6088,7,79,100
0.10000000000000142,6088,8,79,41
0.10000000000000142,6088,9,79,78
0.10000000000000142,6088,10,79,102
0.09999999999999432,6088,11,79,62
0.09999999999999432,6088,12,79,93
0.10000000000000142,6088,13,79,127
0.10000000000000142,6088,14,79,59
0.10000000000000142,6088,15,79,127
0.10000000000000142,6089,0,79,127
0.09999999999999432,6089,1,79,123
0.10000000000000142,6089,2,79,107
0.10000000000000142,6089,3,79,127
0.10000000000000142,6089,4,79,31
0.10000000000000142,6089,5,79,114
0.10000000000000142,6089,6,79,32
0.10000000000000142,6089,7,79,127
0.10000000000000142,6089,8,79,111
0.09999999999999432,6089,9,79,127
0.10000000000000142,6089,10,79,109
0.10000000000000142,6089,11,79,91
0.10000000000000142,6089,12,79,127
0.10000000000000142,6089,13,79,125
0.10000000000000142,6089,14,79,109
0.09999999999999432,6089,15,79,87
0.09999999999999432,6090,0,79,91
0.10000000000000142,6090,1,79,86
0.10000000000000142,6090,2,79,104
0.10000000000000142,6090,3,79,103
0.10000000000000142,6090,4,79,91
0.10000000000000142,6090,5,79,103
0.10000000000000142,6090,6,79,97
0.06818181818182012,6090,7,79,125
0.10000000000000142,6090,8,79,113
0.10000000000000142,6090,9,79,86
0.09999999999999432,6090,10,79,127
0.10000000000000142,6090,11,79,46
0.10000000000000142,6090,12,79,93
0.10000000000000142,6090,13,79,69
0.10000000000000142,6090,14,79,126
0.09999999999999432,6090,15,79,127
0.10000000000000142,6091,0,79,67
0.10000000000000142,6091,1,79,31
0.10000000000000142,6091,2,79,114
0.10000000000000142,6091,3,79,119
0.10000000000000142,6091,4,79,90
0.10000000000000142,6091,5,79,127
0.10000000000000142,6091,6,79,127
0.09999999999999432,6091,7,79,68
0.004545454545450411,6091,8,79,119
0.10000000000000142,6091,9,79,127
0.10000000000000142,6091,10,79,48
0.10000000000000142,6091,11,79,115
0.09999999999999432,6091,12,79,81
0.09999999999999432,6091,13,79,74
0.09999999999999432,6091,14,79,21
0.10000000000000142,6091,15,79,91
0.10000000000000142,6092,0,79,75
0.10000000000000142,6092,1,79,127
0.10000000000000142,6092,2,79,82
0.10000000000000142,6092,3,79,42
0.013636363636365445,6092,4,79,100
0.09999999999999432,6092,5,79,127
0.10000000000000142,6092,6,79,93
0.10000000000000142,6092,7,79,97
0.09999999999999432,6092,8,79,118
0.10000000000000142,6092,9,79,118
0.10000000000000142,6092,10,79,127
0.013636363636365445,6092,11,79,70
0.10000000000000142,6092,12,79,87
0.09999999999999432,6092,13,79,119
0.06818181818181301,6092,14,79,127
0.10000000000000142,6092,15,79,127
0.10000000000000142,6093,0,79,88
0.10000000000000142,6093,1,79,127
0.09999999999999432,6093,2,79,116
0.10000000000000142,6093,3,79,94
0.10000000000000142,6093,4,79,111
0.09999999999999432,6093,5,79,72
0.09999999999999432,6093,6,79,127
0.09999999999999432,6093,7,79,127
0.10000000000000853,6093,8,79,62
0.10000000000000853,6093,9,79,106
0.10000000000000853,6093,10,79,127
0.09999999999999432,6093,11,79,52
0.09999999999999432,6093,12,79,104
0.10000000000000853,6093,13,79,79
0.10000000000000853,6093,14,79,86
0.10000000000000853,6093,15,79,99
0.025000000000005684,6094,0,79,68
0.09999999999999432,6094,1,79,85
0.09999999999999432,6094,2,79,104
0.10000000000000853,6094,3,79,85
0.10000000000000853,6094,4,79,63
0.09999999999999432,6094,5,79,49
0.09999999999999432,6094,6,79,66
0.09999999999999432,6094,7,79,63
0.10000000000000853,6094,8,79,61
0.10000000000000853,6094,9,79,45
0.045454545454546746,6094,10,79,71
0.09999999999999432,6094,11,79,59
0.09999999999999432,6094,12,79,108
0.09999999999999432,6094,13,79,127
0.09999999999999432,6094,14,79,27
0.09999999999999432,6094,15,79,109
0.013636363636365445,6095,0,79,62
0.10000000000000853,6095,1,79,85
0.09999999999999432,6095,2,79,75
0.09999999999999432,6095,3,79,63
0.09999999999999432,6095,4,79,22
0.10000000000000853,6095,5,79,51
0.09999999999999432,6095,6,79,69
0.09999999999999432,6095,7,79,63
0.09999999999999432,6095,8,79,14
0.10000000000000853,6095,9,79,102
0.025000000000005684,6095,10,79,68
0.09999999999999432,6095,11,79,44
0.10000000000000853,6095,12,79,88
0.056818181818186986,6095,13,79,73
0.09999999999999432,6095,14,79,84
0.10000000000000853,6095,15,79,76
0.09999999999999432,6096,0,79,64
0.09999999999999432,6096,1,79,85
0.10000000000000853,6096,2,79,43
0.09999999999999432,6096,3,79,77
0.09999999999999432,6096,4,79,49
0.10000000000000853,6096,5,79,119
0.09999999999999432,6096,6,79,127
0.09999999999999432,6096,7,79,97
0.09999999999999432,6096,8,79,66
0.09999999999999432,6096,9,79,56
0.004545454545450411,6096,10,79,43
0.004545454545464622,6096,11,79,40
0.09999999999999432,6096,12,79,62
0.09999999999999432,6096,13,79,54
0.09999999999999432,6096,14,79,70
0.10000000000000853,6096,15,79,50
0.09999999999999432,6097,0,79,57
0.10000000000000853,6097,1,79,19
0.09999999999999432,6097,2,79,98
0.09999999999999432,6097,3,79,74
0.09999999999999432,6097,4,79,97
0.004545454545450411,6097,5,79,63
0.004545454545450411,6097,6,79,73
0.10000000000000853,6097,7,79,85
0.10000000000000853,6097,8,79,21
0.10000000000000853,6097,9,79,96
0.10000000000000853,6097,10,79,97
0.09999999999999432,6097,11,79,115
0.09999999999999432,6097,12,79,21
0.09999999999999432,6097,13,79,88
0.06818181818181301,6097,14,79,111
0.09999999999999432,6097,15,79,62
0.10000000000000853,6098,0,79,65
0.09999999999999432,6098,1,79,76
0.09999999999999432,6098,2,79,78
0.09999999999999432,6098,3,79,13
0.09999999999999432,6098,4,79,29
0.10000000000000853,6098,5,79,64
0.09999999999999432,6098,6,79,98
0.10000000000000853,6098,7,79,18
0.09999999999999432,6098,8,79,60
0.10000000000000853,6098,9,79,79
0.09999999999999432,6098,10,79,83
0.09999999999999432,6098,11,79,19
0.09999999999999432,6098,12,79,53
0.03636363636363171,6098,13,79,80
0.09999999999999432,6098,14,79,90
0.09999999999999432,6098,15,79,95
0.10000000000000853,6099,0,79,126
0.10000000000000853,6099,1,79,73
0.09999999999999432,6099,2,79,92
0.09999999999999432,6099,3,79,104
0.09999999999999432,6099,4,79,69
0.09999999999999432,6099,5,79,74
0.10000000000000853,6099,6,79,74
0.10000000000000853,6099,7,79,85
0.09999999999999432,6099,8,79,63
0.09999999999999432,6099,9,79,94
0.09999999999999432,6099,10,79,120
0.09999999999999432,6099,11,79,78
0.09999999999999432,6099,12,79,82
0.10000000000000853,6099,13,79,48
0.09999999999999432,6099,14,79,100
0.09999999999999432,6099,15,79,95
0.10000000000000853,6100,0,79,106
0.09999999999999432,6100,1,79,117
0.10000000000000853,6100,2,79,78
0.09999999999999432,6100,3,79,109
0.10000000000000853,6100,4,79,63
0.09999999999999432,6100,5,79,70
0.09999999999999432,6100,6,79,110
0.10000000000000853,6100,7,79,86
0.09999999999999432,6100,8,79,69
0.10000000000000853,6100,9,79,101
0.09999999999999432,6100,10,79,97
0.09999999999999432,6100,11,79,53
0.09999999999999432,6100,12,79,29
0.09999999999999432,6100,13,79,60
0.09999999999999432,6100,14,79,80
0.10000000000000853,6100,15,79,62
0.10000000000000853,6101,0,79,74
0.09999999999999432,6101,1,79,81
0.10000000000000853,6101,2,79,41
0.10000000000000853,6101,3,79,122
0.09999999999999432,6101,4,79,97
0.03636363636363171,6101,5,79,86
0.10000000000000853,6101,6,79,68
0.09999999999999432,6101,7,79,88
0.09999999999999432,6101,8,79,25
0.10000000000000853,6101,9,79,55
0.09999999999999432,6101,10,79,86
0.09999999999999432,6101,11,79,45
0.09999999999999432,6101,12,79,105
0.10000000000000853,6101,13,79,127
0.10000000000000853,6101,14,79,118
0.09999999999999432,6101,15,79,125
0.10000000000000853,6102,0,79,83
0.09999999999999432,6102,1,79,87
0.09999999999999432,6102,2,79,100
0.10000000000000853,6102,3,79,127
0.09999999999999432,6102,4,79,107
0.09999999999999432,6102,5,79,70
0.09999999999999432,6102,6,79,75
0.10000000000000853,6102,7,79,104
0.09999999999999432,6102,8,79,108
0.09999999999999432,6102,9,79,16
0.10000000000000853,6102,10,79,74
0.10000000000000853,6102,11,79,95
0.10000000000000853,6102,12,79,120
0.09999999999999432,6102,13,79,89
0.10000000000000853,6102,14,79,61
0.09999999999999432,6102,15,79,84
0.09999999999999432,6103,0,79,90
0.10000000000000853,6103,1,79,127
0.09999999999999432,6103,2,79,60
0.10000000000000853,6103,3,79,87
0.09999999999999432,6103,4,79,90
0.10000000000000853,6103,5,79,72
0.09999999999999432,6103,6,79,113
0.09999999999999432,6103,7,79,127
0.10000000000000853,6103,8,79,111
0.10000000000000853,6103,9,79,123
0.09999999999999432,6103,10,79,54
0.09999999999999432,6103,11,79,57
0.045454545454546746,6103,12,79,127
0.10000000000000853,6103,13,79,127
0.09999999999999432,6103,14,79,101
0.09999999999999432,6103,15,79,127
0.09999999999999432,6104,0,79,23
0.10000000000000853,6104,1,79,127
0.09999999999999432,6104,2,79,36
0.10000000000000853,6104,3,79,127
0.10000000000000853,6104,4,79,119
0.09999999999999432,6104,5,79,82
0.10000000000000853,6104,6,79,94
0.09999999999999432,6104,7,79,81
0.10000000000000853,6104,8,79,71
0.10000000000000853,6104,9,79,64
0.10000000000000853,6104,10,79,80
0.09999999999999432,6104,11,79,127
0.10000000000000853,6104,12,79,40
0.013636363636365445,6104,13,79,127
0.10000000000000853,6104,14,79,127
0.09999999999999432,6104,15,79,112
0.09999999999999432,6105,0,79,74
0.10000000000000853,6105,1,79,95
0.10000000000000853,6105,2,79,107
0.10000000000000853,6105,3,79,127
0.09999999999999432,6105,4,79,127
0.10000000000000853,6105,5,79,67
0.09999999999999432,6105,6,79,118
0.10000000000000853,6105,7,79,56
0.09999999999999432,6105,8,79,96
0.09999999999999432,6105,9,79,123
0.09999999999999432,6105,10,79,70
0.09999999999999432,6105,11,79,82
0.10000000000000853,6105,12,79,10
0.10000000000000853,6105,13,79,25
0.045454545454546746,6105,14,79,52
0.01590909090909065,6105,15,79,44
0.10000000000000853,6106,0,79,75
0.09999999999999432,6106,1,79,104
0.09999999999999432,6106,2,79,101
0.09999999999999432,6106,3,79,19
0.09999999999999432,6106,4,79,66
0.09999999999999432,6106,5,79,63
0.10000000000000853,6106,6,79,77
0.10000000000000853,6106,7,79,64
0.09999999999999432,6106,8,79,76
0.10000000000000853,6106,9,79,14
0.09999999999999432,6106,10,79,43
0.09999999999999432,6106,11,79,81
0.09999999999999432,6106,12,79,97
0.10000000000000853,6106,13,79,25
0.09999999999999432,6106,14,79,82
0.09999999999999432,6106,15,79,65
0.10000000000000853,6107,0,79,19
0.09999999999999432,6107,1,79,125
0.09999999999999432,6107,2,79,79
0.10000000000000853,6107,3,79,95
0.09999999999999432,6107,4,79,118
0.10000000000000853,6107,5,79,123
0.09999999999999432,6107,6,79,99
0.09999999999999432,6107,7,79,80
0.03636363636363171,6107,8,79,108
0.09999999999999432,6107,9,79,89
0.10000000000000853,6107,10,79,121
0.09999999999999432,6107,11,79,101
0.09999999999999432,6107,12,79,49
0.10000000000000853,6107,13,79,102
0.10000000000002274,6107,14,79,127
0.09999999999999432,6107,15,79,87
0.09999999999999432,6108,0,79,92
0.09999999999999432,6108,1,79,127
0.09999999999999432,6108,2,79,81
0.09999999999999432,6108,3,79,57
0.03636363636363171,6108,4,79,102
0.10000000000002274,6108,5,79,89
0.09999999999999432,6108,6,79,126
0.09999999999999432,6108,7,79,113
0.09999999999999432,6108,8,79,75
0.09999999999999432,6108,9,79,54
0.045454545454532536,6108,10,79,88
0.09999999999999432,6108,11,79,123
0.09999999999999432,6108,12,79,103
0.09999999999999432,6108,13,79,25
0.09999999999999432,6108,14,79,94
0.09999999999999432,6108,15,79,85
0.09999999999999432,6109,0,79,106
0.10000000000002274,6109,1,79,81
0.09999999999999432,6109,2,79,108
0.09999999999999432,6109,3,79,124
0.09999999999999432,6109,4,79,117
0.09999999999999432,6109,5,79,48
0.10000000000002274,6109,6,79,102
0.09999999999999432,6109,7,79,126
0.09999999999999432,6109,8,79,117
0.09999999999999432,6109,9,79,97
0.09999999999999432,6109,10,79,126
0.09999999999999432,6109,11,79,104
0.09999999999999432,6109,12,79,95
0.10000000000002274,6109,13,79,49
0.09999999999999432,6109,14,79,87
0.10000000000002274,6109,15,79,73
0.09999999999999432,6110,0,79,115
0.10000000000002274,6110,1,79,27
0.09999999999999432,6110,2,79,99
0.09999999999999432,6110,3,79,88
0.09999999999999432,6110,4,79,86
0.09999999999999432,6110,5,79,106
0.09999999999999432,6110,6,79,13
0.09999999999999432,6110,7,79,67
0.10000000000002274,6110,8,79,68
0.09999999999999432,6110,9,79,87
0.10000000000002274,6110,10,79,90
0.09999999999999432,6110,11,79,103
0.10000000000002274,6110,12,79,87
0.09999999999999432,6110,13,79,18
0.09999999999999432,6110,14,79,80
0.09999999999999432,6110,15,79,111
0.09999999999999432,6111,0,79,102
0.09999999999999432,6111,1,79,127
0.09999999999999432,6111,2,79,75
0.09999999999999432,6111,3,79,75
0.09999999999999432,6111,4,79,70
0.013636363636351234,6111,5,79,27
0.09999999999999432,6111,6,79,44
0.09999999999999432,6111,7,79,127
0.09999999999999432,6111,8,79,75
0.09999999999999432,6111,9,79,79
0.09999999999999432,6111,10,79,103
0.09999999999999432,6111,11,79,66
0.09999999999999432,6111,12,79,64
0.09999999999999432,6111,13,79,100
0.10000000000002274,6111,14,79,80
0.09999999999999432,6111,15,79,19
0.09999999999999432,6112,0,79,87
0.02727272727273089,6112,1,79,106
0.09999999999999432,6112,2,79,57
0.10000000000002274,6112,3,79,107
0.09999999999999432,6112,4,79,119
0.10000000000002274,6112,5,79,47
0.09999999999999432,6112,6,79,76
0.10000000000002274,6112,7,79,14
0.10000000000002274,6112,8,79,74
0.09999999999999432,6112,9,79,75
0.09999999999999432,6112,10,79,76
0.10000000000002274,6112,11,79,24
0.025000000000005684,6112,12,79,78
0.09999999999999432,6112,13,79,23
0.09999999999999432,6112,14,79,121
0.09999999999999432,6112,15,79,127
0.09999999999999432,6113,0,79,97
0.10000000000002274,6113,1,79,127
0.10000000000002274,6113,2,79,80
0.09999999999999432,6113,3,79,98
0.09999999999999432,6113,4,79,114
0.09999999999999432,6113,5,79,126
0.10000000000002274,6113,6,79,67
0.09999999999999432,6113,7,79,81
0.09999999999999432,6113,8,79,74
0.09999999999999432,6113,9,79,96
0.09999999999999432,6113,10,79,95
0.10000000000002274,6113,11,79,79
0.09999999999999432,6113,12,79,38
0.09999999999999432,6113,13,79,99
0.09999999999999432,6113,14,79,127
0.10000000000002274,6113,15,79,75
0.09999999999999432,6114,0,79,104
0.09999999999999432,6114,1,79,62
0.09999999999999432,6114,2,79,87
0.09999999999999432,6114,3,79,67
0.09999999999999432,6114,4,79,96
0.09999999999999432,6114,5,79,101
0.09999999999999432,6114,6,79,127
0.09999999999999432,6114,7,79,110
0.004545454545450411,6114,8,79,61
0.10000000000002274,6114,9,79,90
0.09999999999999432,6114,10,79,38
0.09999999999999432,6114,11,79,92
0.09999999999999432,6114,12,79,76
0.09999999999999432,6114,13,79,76
0.09999999999999432,6114,14,79,23
0.09999999999999432,6114,15,79,92
0.06818181818181301,6115,0,79,118
0.10000000000002274,6115,1,79,52
0.09999999999999432,6115,2,79,82
0.09999999999999432,6115,3,79,96
0.09999999999999432,6115,4,79,82
0.09999999999999432,6115,5,79,101
0.10000000000002274,6115,6,79,47
0.09999999999999432,6115,7,79,105
0.09999999999999432,6115,8,79,77
0.01590909090907644,6115,9,79,18
0.09999999999999432,6115,10,79,83
0.09999999999999432,6115,11,79,122
0.09999999999999432,6115,12,79,67
0.05909090909091219,6115,13,79,104
0.09999999999999432,6115,14,79,83
0.10000000000002274,6115,15,79,80
0.09999999999999432,6116,0,79,17
0.10000000000002274,6116,1,79,93
0.10000000000002274,6116,2,79,32
0.09999999999999432,6116,3,79,81
0.09999999999999432,6116,4,79,113
0.09999999999999432,6116,5,79,103
0.09999999999999432,6116,6,79,94
0.09999999999999432,6116,7,79,95
0.10000000000002274,6116,8,79,10
0.10000000000002274,6116,9,79,63
0.09999999999999432,6116,10,79,127
0.10000000000002274,6116,11,79,123
0.09999999999999432,6116,12,79,36
0.09999999999999432,6116,13,79,127
0.10000000000002274,6116,14,79,92
0.09999999999999432,6116,15,79,112
0.09999999999999432,6117,0,79,8
0.09999999999999432,6117,1,79,28
0.09999999999999432,6117,2,79,51
0.09999999999999432,6117,3,79,78
0.09999999999999432,6117,4,79,52
0.09999999999999432,6117,5,79,94
0.09999999999999432,6117,6,79,91
0.09999999999999432,6117,7,79,82
0.09999999999999432,6117,8,79,15
0.09999999999999432,6117,9,79,112
0.09999999999999432,6117,10,79,127
0.09999999999999432,6117,11,79,38
0.10000000000000142,6117,12,67,11
0.10000000000000142,6117,13,67,19
0.10000000000000142,6117,14,67,42
0.10000000000000142,6117,15,67,5
0.10000000000000142,6118,0,67,18
0.10000000000000142,6118,1,67,24
0.10000000000000142,6118,2,67,20
0.056818181818186986,6118,3,67,23
0.0022727272727252057,6118,4,67,23
0.09999999999999432,6118,5,67,28
0.09999999999999432,6118,6,67,23
0.10000000000000142,6118,7,67,3
0.10000000000000142,6118,8,67,10
0.10000000000000142,6118,9,67,7
0.10000000000000142,6118,10,67,7
0.10000000000000142,6118,11,67,7
0.10000000000000142,6118,12,67,8
0.10000000000000142,6118,13,67,26
0.10000000000000142,6118,14,67,11
0.10000000000000142,6118,15,67,10
0.10000000000000142,6119,0,67,33
0.10000000000000142,6119,1,67,5
0.10000000000000142,6119,2,67,5
0.10000000000000142,6119,3,67,2
0.10000000000000142,6119,4,67,7
0.10000000000000142,6119,5,67,6
0.10000000000000142,6119,6,67,3
0.09999999999999432,6119,7,67,3
0.09999999999999432,6119,8,67,3
0.10000000000000142,6119,9,67,3
0.10000000000000142,6119,10,67,1
0.10000000000000142,6119,11,67,1
0.10000000000000142,6119,12,67,15
0.10000000000000142,6119,13,67,11
0.10000000000000853,6119,14,67,4
0.10000000000000853,6119,15,67,26
0.09999999999999432,6120,0,67,6
0.09999999999999432,6120,1,67,6
0.09999999999999432,6120,2,67,4
0.09999999999999432,6120,3,67,5
0.09999999999999432,6120,4,67,11
0.09999999999999432,6120,5,67,1
0.09999999999999432,6120,6,67,25
0.10000000000000853,6120,7,67,12
0.09999999999999432,6120,8,67,21
0.10000000000000853,6120,9,67,1
0.10000000000000853,6120,10,67,6
0.10000000000000853,6120,11,67,11
0.09999999999999432,6120,12,67,21
0.09999999999999432,6120,13,67,12
0.09999999999999432,6120,14,67,13
0.09999999999999432,6120,15,67,17
0.09999999999999432,6121,0,67,18
0.09999999999999432,6121,1,67,8
0.10000000000000853,6121,2,67,38
0.10000000000000853,6121,3,67,16
0.10000000000000853,6121,4,67,33
0.09999999999999432,6121,5,67,17
0.09999999999999432,6121,6,67,3
0.09999999999999432,6121,7,67,25
0.09999999999999432,6121,8,67,19
0.10000000000000853,6121,9,67,14
0.10000000000002274,6121,10,67,15
0.09999999999999432,6121,11,67,8
0.09999999999999432,6121,12,67,13
0.09999999999999432,6121,13,67,5
0.09999999999999432,6121,14,67,17
0.10000000000002274,6121,15,67,16
0.09999999999999432,6122,0,67,16
0.09999999999999432,6122,1,67,7
0.10000000000002274,6122,2,67,16
0.10000000000002274,6122,3,67,15
0.09999999999999432,6122,4,67,8
0.10000000000002274,6122,5,67,16
0.09999999999999432,6122,6,67,12
0.09999999999999432,6122,7,67,10
0.09999999999999432,6122,8,67,12
0.09999999999999432,6122,9,67,11
0.09999999999999432,6122,10,67,2
0.09999999999999432,6122,11,67,12
0.09999999999999432,6122,12,67,17
0.09999999999999432,6122,13,67,13
0.10000000000002274,6122,14,67,12
0.09999999999999432,6122,15,67,3
0.09999999999999432,6123,0,67,34
0.10000000000002274,6123,1,67,12
0.09999999999999432,6123,2,67,20
0.09999999999999432,6123,3,67,16
0.09999999999999432,6123,4,67,11
0.09999999999999432,6123,5,67,27
0.10000000000002274,6123,6,67,12
0.09999999999999432,6123,7,67,7
0.10000000000002274,6123,8,67,19
0.09999999999999432,6123,9,67,17
0.09999999999999432,6123,10,67,15
0.09999999999999432,6123,11,67,18
0.09999999999999432,6123,12,67,16
0.09999999999999432,6123,13,67,25
0.09999999999999432,6123,14,67,21
0.10000000000002274,6123,15,67,23
0.06818181818184144,6124,0,67,33
0.09999999999999432,6124,1,67,15
0.09999999999999432,6124,2,67,45
0.09999999999999432,6124,3,67,17
0.10000000000002274,6124,4,67,17
0.09999999999999432,6124,5,67,22
0.09999999999999432,6124,6,67,29
0.09999999999999432,6124,7,67,13
0.09999999999999432,6124,8,67,17
0.10000000000002274,6124,9,67,14
0.09999999999999432,6124,10,67,14
0.09999999999999432,6124,11,67,5
0.056818181818186986,6124,12,67,7
0.09999999999999432,6124,13,67,24
0.10000000000002274,6124,14,67,13
0.09999999999999432,6124,15,67,16
0.09999999999999432,6125,0,67,16
0.10000000000002274,6125,1,67,13
0.09999999999999432,6125,2,67,16
0.09999999999999432,6125,3,67,14
0.09999999999999432,6125,4,67,17
0.09999999999999432,6125,5,67,13
0.09999999999999432,6125,6,67,15
0.09999999999999432,6125,7,67,12
0.09999999999999432,6125,8,67,10
0.10000000000002274,6125,9,67,15
0.09999999999999432,6125,10,67,8
0.09999999999999432,6125,11,67,10
0.09999999999999432,6125,12,67,18
0.10000000000002274,6125,13,67,11
0.09999999999999432,6125,14,67,32
0.09999999999999432,6125,15,67,6
0.09999999999999432,6126,0,67,13
0.09999999999999432,6126,1,67,10
0.09999999999999432,6126,2,67,6
0.09999999999999432,6126,3,67,12
0.09999999999999432,6126,4,67,7
0.10000000000002274,6126,5,67,20
0.09999999999999432,6126,6,67,9
0.09999999999999432,6126,7,67,11
0.10000000000002274,6126,8,67,11
0.09999999999999432,6126,9,67,13
0.09999999999999432,6126,10,67,6
0.09999999999999432,6126,11,67,10
0.10000000000002274,6126,12,67,12
0.09999999999999432,6126,13,67,11
0.09999999999999432,6126,14,67,14
0.09999999999999432,6126,15,67,15
0.10000000000002274,6127,0,67,9
0.09999999999999432,6127,1,67,17
0.09999999999999432,6127,2,67,12
0.09999999999999432,6127,3,67,14
0.09999999999999432,6127,4,67,10
0.09999999999999432,6127,5,67,9
0.09999999999999787,6127,6,56,11
0.09999999999999432,6127,7,56,55
0.10000000000000853,6127,8,56,44
0.09999999999999432,6127,9,56,41
0.10000000000000853,6127,10,56,39
0.09999999999999432,6127,11,56,28
0.10000000000000853,6127,12,56,35
0.09999999999999432,6127,13,56,28
0.10000000000000853,6127,14,56,38
0.10000000000000853,6127,15,56,27
0.09999999999999432,6128,0,56,28
0.09999999999999432,6128,1,56,33
0.10000000000000853,6128,2,56,43
0.09999999999999432,6128,3,56,31
0.10000000000000853,6128,4,56,36
0.09999999999999432,6128,5,56,44
0.10000000000000853,6128,6,56,43
0.10000000000000853,6128,7,56,22
0.09999999999999432,6128,8,56,35
0.09999999999999432,6128,9,56,39
0.10000000000000853,6128,10,56,53
0.10000000000000853,6128,11,56,26
0.09999999999999432,6128,12,56,38
0.09999999999999432,6128,13,56,57
0.10000000000000853,6128,14,56,52
0.10000000000000853,6128,15,56,27
0.09999999999999432,6129,0,56,29
0.10000000000000853,6129,1,56,40
0.09999999999999432,6129,2,56,44
0.09999999999999432,6129,3,56,52
0.09999999999999432,6129,4,56,55
0.10000000000000853,6129,5,56,30
0.09999999999999432,6129,6,56,32
0.09999999999999432,6129,7,56,33
0.10000000000000853,6129,8,56,30
0.09999999999999432,6129,9,56,29
0.10000000000000853,6129,10,56,42
0.09999999999999432,6129,11,56,48
0.10000000000000853,6129,12,56,25
0.09999999999999432,6129,13,56,25
0.09999999999999432,6129,14,56,25
0.09999999999999432,6129,15,56,30
0.10000000000000853,6130,0,56,40
0.09999999999999432,6130,1,56,48
0.10000000000000853,6130,2,56,30
0.09999999999999432,6130,3,56,35
0.10000000000000853,6130,4,56,38
0.09999999999999432,6130,5,56,44
0.09999999999999432,6130,6,56,22
0.09999999999999432,6130,7,56,29
0.10000000000000853,6130,8,56,5
0.09999999999999432,6130,9,56,41
0.10000000000000853,6130,10,56,29
0.10000000000000853,6130,11,56,28
0.10000000000000853,6130,12,56,36
0.10000000000000853,6130,13,56,32
0.09999999999999432,6130,14,56,29
0.09999999999999432,6130,15,56,18
0.10000000000000853,6131,0,56,27
0.09999999999999432,6131,1,56,30
0.09999999999999432,6131,2,56,27
0.10000000000000853,6131,3,56,48
0.10000000000000853,6131,4,56,55
0.09999999999999432,6131,5,56,56
0.09999999999999432,6131,6,56,59
0.10000000000000853,6131,7,56,25
0.10000000000000853,6131,8,56,43
0.10000000000000853,6131,9,56,47
0.09999999999999432,6131,10,56,41
0.09999999999999432,6131,11,56,46
0.09999999999999432,6131,12,56,59
0.10000000000002274,6131,13,56,44
0.09999999999999432,6131,14,56,51
0.10000000000002274,6131,15,56,43
0.09999999999999432,6132,0,56,46
0.09999999999999432,6132,1,56,51
0.09999999999999432,6132,2,56,36
0.09999999999999432,6132,3,56,35
0.09999999999999432,6132,4,56,63
0.09999999999999432,6132,5,56,47
0.10000000000002274,6132,6,56,54
0.09999999999999432,6132,7,56,45
0.10000000000002274,6132,8,56,51
0.09999999999999432,6132,9,56,50
0.09999999999999432,6132,10,56,43
0.10000000000002274,6132,11,56,56
0.09999999999999432,6132,12,56,65
0.09999999999999432,6132,13,56,47
0.09999999999999432,6132,14,56,51
0.09999999999999432,6132,15,56,43
0.09999999999999432,6133,0,56,59
0.09999999999999432,6133,1,56,48
0.10000000000002274,6133,2,56,44
0.09999999999999432,6133,3,56,45
0.10000000000002274,6133,4,56,72
0.09999999999999432,6133,5,56,45
0.09999999999999432,6133,6,56,46
0.10000000000002274,6133,7,56,42
0.09999999999999432,6133,8,56,45
0.10000000000002274,6133,9,56,56
0.09999999999999432,6133,10,56,45
0.09999999999999432,6133,11,56,41
0.09999999999999432,6133,12,56,47
0.09999999999999432,6133,13,56,57
0.10000000000002274,6133,14,56,66
0.09999999999999432,6133,15,56,47
0.09999999999999432,6134,0,56,42
0.09999999999999432,6134,1,56,34
0.09999999999999432,6134,2,56,50
0.09999999999999432,6134,3,56,36
0.09999999999999432,6134,4,56,41
0.09999999999999432,6134,5,56,31
0.09999999999999432,6134,6,56,48
0.09999999999999432,6134,7,56,37
0.09999999999999432,6134,8,56,25
0.09999999999999432,6134,9,56,30
0.0022727272727252057,6134,10,56,47
0.10000000000002274,6134,11,56,36
0.09999999999999432,6134,12,56,48
0.09999999999999432,6134,13,56,41
0.09999999999999432,6134,14,56,56
0.10000000000002274,6134,15,56,38
0.09999999999999432,6135,0,56,30
0.09999999999999432,6135,1,56,26
0.09999999999999432,6135,2,56,52
0.09999999999999432,6135,3,56,42
0.09999999999999432,6135,4,56,36
0.09999999999999432,6135,5,56,49
0.09999999999999432,6135,6,56,60
0.10000000000002274,6135,7,56,37
0.09999999999999432,6135,8,56,46
0.09999999999999432,6135,9,56,28
0.0022727272727252057,6135,10,56,51
0.09999999999999432,6135,11,56,28
0.09999999999999432,6135,12,56,50
0.09999999999999432,6135,13,56,42
0.09999999999999432,6135,14,56,76
0.09999999999999432,6135,15,56,37
0.09999999999999432,6136,0,56,46
0.09999999999999432,6136,1,56,57
0.09999999999999432,6136,2,56,53
0.09999999999999432,6136,3,56,62
0.09999999999999432,6136,4,56,82
0.09999999999999432,6136,5,56,42
0.09999999999999432,6136,6,56,41
0.09999999999999432,6136,7,56,45
0.09999999999999432,6136,8,56,77
0.09999999999999432,6136,9,56,47
0.09999999999999432,6136,10,56,51
0.09999999999999432,6136,11,56,52
0.09999999999999432,6136,12,56,88
0.10000000000002274,6136,13,56,45
0.09999999999999432,6136,14,56,49
0.10000000000002274,6136,15,56,44
0.09999999999999432,6137,0,56,70
0.09999999999999432,6137,1,56,39
0.09999999999999998,6137,2,97,65
0.09999999999999964,6137,3,97,41
0.10000000000000009,6137,4,97,65
0.09999999999999964,6137,5,97,65
0.09999999999999964,6137,6,97,68
0.10000000000000053,6137,7,97,77
0.09999999999999964,6137,8,97,72
0.09999999999999964,6137,9,97,75
0.09999999999999964,6137,10,97,127
0.10000000000000142,6137,11,97,6
0.09999999999999964,6137,12,97,67
0.09999999999999964,6137,13,97,7
0.09999999999999964,6137,14,97,16
0.09999999999999964,6137,15,97,127
0.09999999999999964,6138,0,97,69
0.09999999999999964,6138,1,97,6
0.09999999999999964,6138,2,97,127
0.09999999999999964,6138,3,97,6
0.09999999999999964,6138,4,97,66
0.09999999999999964,6138,5,97,6
0.09999999999999964,6138,6,97,16
0.09999999999999964,6138,7,97,127
0.09999999999999964,6138,8,97,72
0.10000000000000142,6138,9,97,7
0.09999999999999964,6138,10,97,127
0.10000000000000142,6138,11,97,6
0.09999999999999787,6138,12,97,63
0.10000000000000142,6138,13,97,7
0.10000000000000142,6138,14,97,16
0.10000000000000142,6138,15,97,127
0.10000000000000142,6139,0,97,65
0.09999999999999787,6139,1,97,6
0.09999999999999787,6139,2,97,127
0.10000000000000142,6139,3,97,7
0.10000000000000142,6139,4,97,72
0.10000000000000142,6139,5,97,7
0.10000000000000142,6139,6,97,127
0.09999999999999787,6139,7,97,127
0.09999999999999787,6139,8,97,5
0.09999999999999787,6139,9,97,69
0.10000000000000142,6139,10,97,7
0.10000000000000142,6139,11,97,16
0.10000000000000142,6139,12,97,127
0.10000000000000142,6139,13,97,61
0.10000000000000142,6139,14,97,6
0.10000000000000142,6139,15,97,127
0.09999999999999787,6140,0,97,6
0.10000000000000142,6140,1,97,66
0.09999999999999787,6140,2,97,7
0.10000000000000142,6140,3,97,18
0.10000000000000142,6140,4,97,127
0.10000000000000142,6140,5,97,62
0.10000000000000142,6140,6,97,7
0.09999999999999787,6140,7,97,127
0.10000000000000142,6140,8,97,4
0.09999999999999787,6140,9,97,62
0.09999999999999787,6140,10,97,7
0.10000000000000142,6140,11,97,18
0.10000000000000142,6140,12,97,127
0.10000000000000142,6140,13,97,60
0.10000000000000142,6140,14,97,7
0.10000000000000142,6140,15,97,127
0.09999999999999787,6141,0,97,6
0.09999999999999787,6141,1,97,58
0.09999999999999787,6141,2,97,7
0.09999999999999787,6141,3,97,17
0.10000000000000142,6141,4,97,101
0.10000000000000142,6141,5,97,63
0.09999999999999787,6141,6,97,58
0.10000000000000142,6141,7,97,55
0.09999999999999432,6141,8,97,127
0.09999999999999432,6141,9,97,127
0.10000000000000142,6141,10,97,122
0.10000000000000142,6141,11,97,127
0.10000000000000142,6141,12,97,127
0.10000000000000142,6141,13,97,125
0.10000000000000142,6141,14,97,10
0.10000000000000142,6141,15,97,119
0.10000000000000142,6142,0,97,12
0.10000000000000142,6142,1,97,127
0.10000000000000142,6142,2,97,12
0.10000000000000142,6142,3,97,127
0.10000000000000142,6142,4,97,127
0.10000000000000142,6142,5,97,119
0.10000000000000142,6142,6,97,12
0.09999999999999432,6142,7,97,127
0.10000000000000142,6142,8,97,11
0.10000000000000142,6142,9,97,126
0.10000000000000142,6142,10,97,11
0.10000000000000142,6142,11,97,105
0.09999999999999432,6142,12,97,127
0.10000000000000142,6142,13,97,127
0.10000000000000142,6142,14,97,127
0.10000000000000142,6142,15,97,12
0.10000000000000142,6143,0,97,127
0.10000000000000142,6143,1,97,11
0.09999999999999432,6143,2,97,125
0.10000000000000142,6143,3,97,12
0.10000000000000142,6143,4,97,127
0.10000000000000142,6143,5,97,127
0.10000000000000142,6143,6,97,127
0.10000000000000142,6143,7,97,112
0.10000000000000142,6143,8,97,127
0.10000000000000142,6143,9,97,126
0.10000000000000142,6143,10,97,6
0.10000000000000142,6143,11,97,106
0.09999999999999432,6143,12,97,10
0.10000000000000142,6143,13,97,127
0.10000000000000142,6143,14,97,127
0.10000000000000142,6143,15,97,127
0.10000000000000142,6144,0,97,105
0.10000000000000142,6144,1,97,11
0.10000000000000142,6144,2,97,12
0.10000000000000142,6144,3,97,29
0.10000000000000142,6144,4,97,127
0.09999999999999432,6144,5,97,127
0.10000000000000142,6144,6,97,127
0.10000000000000142,6144,7,97,127
0.10000000000000142,6144,8,97,127
0.10000000000000142,6144,9,97,127
0.10000000000000142,6144,10,97,127
0.10000000000000142,6144,11,97,127
0.09999999999999432,6144,12,97,12
0.09999999999999432,6144,13,97,127
0.10000000000000142,6144,14,97,11
0.10000000000000142,6144,15,97,79
0.10000000000000142,6145,0,97,11
0.10000000000000142,6145,1,97,127
0.10000000000000142,6145,2,97,127
0.10000000000000142,6145,3,97,127
0.10000000000000142,6145,4,97,122
0.10000000000000142,6145,5,97,12
0.10000000000000142,6145,6,97,127
0.10000000000000142,6145,7,97,11
0.10000000000000142,6145,8,97,125
0.10000000000000142,6145,9,97,11
0.10000000000000142,6145,10,97,127
0.10000000000000142,6145,11,97,127
0.10000000000000142,6145,12,97,127
0.09999999999999432,6145,13,97,122
0.10000000000000142,6145,14,97,12
0.09999999999999432,6145,15,97,127
0.09999999999999432,6146,0,97,11
0.10000000000000142,6146,1,97,127
0.10000000000000142,6146,2,97,12
0.09999999999999432,6146,3,97,127
0.10000000000000142,6146,4,97,127
0.10000000000000142,6146,5,97,127
0.10000000000000142,6146,6,97,127
0.10000000000000142,6146,7,97,11
0.09999999999999432,6146,8,97,127
0.09999999999999432,6146,9,97,22
0.10000000000000142,6146,10,97,55
0.10000000000000142,6146,11,97,11
0.10000000000000142,6146,12,97,14
0.10000000000000142,6146,13,97,11
0.10000000000000142,6146,14,97,73
0.10000000000000142,6146,15,97,9
0.10000000000000142,6147,0,97,127
0.09999999999999432,6147,1,97,10
0.10000000000000142,6147,2,97,67
0.10000000000000142,6147,3,97,10
0.10000000000000142,6147,4,97,16
0.10000000000000142,6147,5,97,127
0.10000000000000142,6147,6,97,75
0.10000000000000142,6147,7,97,9
0.10000000000000142,6147,8,97,127
0.09999999999999432,6147,9,97,9
0.10000000000000853,6147,10,97,63
0.09999999999999432,6147,11,97,11
0.10000000000000853,6147,12,97,14
0.10000000000000853,6147,13,97,7
0.09999999999999432,6147,14,97,69
0.09999999999999432,6147,15,97,9
0.10000000000000853,6148,0,97,127
0.09999999999999432,6148,1,97,91
0.09999999999999432,6148,2,97,127
0.10000000000000853,6148,3,97,127
0.09999999999999432,6148,4,97,127
0.09999999999999432,6148,5,97,127
0.10000000000000853,6148,6,97,127
0.09999999999999432,6148,7,97,127
0.09999999999999432,6148,8,97,127
0.09999999999999432,6148,9,97,127
0.09999999999999432,6148,10,97,127
0.09999999999999432,6148,11,97,127
0.09999999999999432,6148,12,97,19
0.09999999999999432,6148,13,97,127
0.10000000000000853,6148,14,97,17
0.09999999999999432,6148,15,97,127
0.10000000000000853,6149,0,97,20
0.09999999999999432,6149,1,97,126
0.004545454545450411,6149,2,97,127
0.09999999999999432,6149,3,97,127
0.09999999999999432,6149,4,97,125
0.10000000000000853,6149,5,97,18
0.09999999999999432,6149,6,97,127
0.10000000000000853,6149,7,97,15
0.09999999999999432,6149,8,97,127
0.09999999999999432,6149,9,97,18
0.09999999999999432,6149,10,97,127
0.0022727272727252057,6149,11,97,127
0.10000000000000853,6149,12,97,127
0.09999999999999432,6149,13,97,127
0.09999999999999432,6149,14,97,16
0.10000000000000853,6149,15,97,127
0.10000000000000853,6150,0,97,15
0.09999999999999432,6150,1,97,127
0.10000000000000853,6150,2,97,17
0.09999999999999432,6150,3,97,119
0.004545454545450411,6150,4,97,127
0.10000000000000853,6150,5,97,127
0.09999999999999432,6150,6,97,127
0.09999999999999432,6150,7,97,99
0.09999999999999432,6150,8,97,127
0.09999999999999432,6150,9,97,127
0.10000000000000853,6150,10,97,27
0.09999999999999432,6150,11,97,127
0.10000000000000853,6150,12,97,127
0.10000000000000853,6150,13,97,127
0.09999999999999432,6150,14,97,127
0.10000000000000853,6150,15,97,17
0.09999999999999432,6151,0,97,127
0.09999999999999432,6151,1,97,15
0.09999999999999432,6151,2,97,122
0.10000000000000853,6151,3,97,23
0.09999999999999432,6151,4,97,127
0.09999999999999432,6151,5,97,127
0.10000000000000853,6151,6,97,127
0.09999999999999432,6151,7,97,125
0.09999999999999432,6151,8,97,20
0.09999999999999432,6151,9,97,127
0.10000000000000853,6151,10,97,16
0.09999999999999432,6151,11,97,127
0.10000000000000853,6151,12,97,17
0.09999999999999432,6151,13,97,127
0.09999999999999432,6151,14,97,127
0.10000000000000853,6151,15,97,127
0.09999999999999432,6152,0,97,127
0.10000000000000853,6152,1,97,127
0.09999999999999432,6152,2,97,125
0.10000000000000853,6152,3,97,18
0.09999999999999432,6152,4,97,127
0.09999999999999432,6152,5,97,21
0.10000000000000853,6152,6,97,127
0.10000000000000853,6152,7,97,23
0.09999999999999432,6152,8,97,88
0.004545454545450411,6152,9,97,127
0.10000000000000853,6152,10,97,127
0.09999999999999432,6152,11,97,127
0.09999999999999432,6152,12,97,25
0.09999999999999432,6152,13,97,127
0.09999999999999432,6152,14,97,21
0.09999999999999432,6152,15,97,127
0.09999999999999432,6153,0,97,22
0.10000000000000853,6153,1,97,79
0.09999999999999432,6153,2,97,127
0.10000000000000853,6153,3,97,124
0.09999999999999432,6153,4,97,116
0.10000000000000853,6153,5,97,24
0.09999999999999432,6153,6,97,127
0.09999999999999432,6153,7,97,127
0.09999999999999432,6153,8,97,127
0.09999999999999432,6153,9,97,127
0.10000000000000853,6153,10,97,90
0.09999999999999432,6153,11,97,127
0.10000000000000853,6153,12,97,127
0.09999999999999432,6153,13,97,121
0.10000000000000853,6153,14,97,25
0.10000000000000853,6153,15,97,127
0.09999999999999432,6154,0,97,18
0.10000000000000853,6154,1,97,126
0.09999999999999432,6154,2,97,23
0.10000000000000853,6154,3,97,92
0.09999999999999432,6154,4,97,127
0.09999999999999432,6154,5,97,114
0.09999999999999432,6154,6,97,119
0.09999999999999432,6154,7,97,23
0.10000000000000853,6154,8,97,127
0.09999999999999432,6154,9,97,22
0.10000000000000853,6154,10,97,127
0.09999999999999432,6154,11,97,23
0.10000000000000853,6154,12,97,60
0.10000000000000853,6154,13,97,127
0.09999999999999432,6154,14,97,127
0.10000000000000853,6154,15,97,126
0.09999999999999432,6155,0,97,24
0.09999999999999432,6155,1,97,116
0.09999999999999432,6155,2,97,21
0.10000000000000853,6155,3,97,127
0.09999999999999432,6155,4,97,22
0.09999999999999432,6155,5,97,87
0.10000000000000853,6155,6,97,127
0.09999999999999432,6155,7,97,121
0.09999999999999432,6155,8,97,127
0.09999999999999432,6155,9,97,23
0.10000000000000853,6155,10,97,97
0.09999999999999432,6155,11,97,20
0.10000000000000853,6155,12,97,124
0.09999999999999432,6155,13,97,22
0.09999999999999432,6155,14,97,82
0.09999999999999432,6155,15,97,127
0.09999999999999432,6156,0,97,127
0.10000000000000853,6156,1,97,112
0.09999999999999432,6156,2,97,79
0.09999999999999432,6156,3,97,56
0.10000000000000853,6156,4,97,46
0.10000000000000853,6156,5,97,15
0.09999999999999432,6156,6,97,12
0.10000000000000853,6156,7,97,56
0.09999999999999432,6156,8,97,19
0.10000000000000853,6156,9,97,14
0.10000000000000853,6156,10,97,14
0.10000000000000853,6156,11,97,52
0.10000000000000853,6156,12,97,14
0.09999999999999432,6156,13,97,15
0.09999999999999432,6156,14,97,18
0.09999999999999432,6156,15,97,50
0.09999999999999432,6157,0,97,19
0.09999999999999432,6157,1,97,17
0.09999999999999432,6157,2,97,127
0.10000000000000853,6157,3,97,63
0.09999999999999432,6157,4,97,39
0.10000000000000853,6157,5,97,127
0.10000000000000853,6157,6,97,61
0.10000000000000853,6157,7,97,61
0.09999999999999432,6157,8,97,16
0.10000000000000853,6157,9,97,71
0.09999999999999432,6157,10,97,15
0.09999999999999432,6157,11,97,127
0.09999999999999432,6157,12,97,13
0.10000000000000853,6157,13,97,63
0.09999999999999432,6157,14,97,13
0.09999999999999432,6157,15,97,58
0.10000000000000853,6158,0,97,126
0.10000000000000853,6158,1,97,63
0.10000000000000853,6158,2,97,100
0.10000000000000853,6158,3,97,127
0.09999999999999432,6158,4,97,115
0.09999999999999432,6158,5,97,81
0.10000000000000853,6158,6,97,127
0.09999999999999432,6158,7,97,42
0.09999999999999432,6158,8,97,67
0.10000000000000853,6158,9,97,127
0.09999999999999432,6158,10,97,112
0.09999999999999432,6158,11,97,104
0.09999999999999432,6158,12,97,127
0.10000000000002274,6158,13,97,127
0.10000000000002274,6158,14,97,123
0.09999999999999432,6158,15,97,123
0.10000000000002274,6159,0,97,16
0.10000000000002274,6159,1,97,112
0.10000000000002274,6159,2,97,99
0.09999999999999432,6159,3,97,127
0.09999999999999432,6159,4,97,127
0.09999999999999432,6159,5,97,115
0.09999999999999432,6159,6,97,127
0.10000000000002274,6159,7,97,16
0.09999999999999432,6159,8,97,120
0.10000000000002274,6159,9,97,16
0.09999999999999432,6159,10,97,99
0.09999999999999432,6159,11,97,127
0.09999999999999432,6159,12,97,123
0.09999999999999432,6159,13,97,127
0.10000000000002274,6159,14,97,127
0.09999999999999432,6159,15,97,15
0.09999999999999432,6160,0,97,127
0.10000000000002274,6160,1,97,15
0.10000000000002274,6160,2,97,127
0.09999999999999432,6160,3,97,124
0.10000000000002274,6160,4,97,127
0.09999999999999432,6160,5,97,127
0.09999999999999432,6160,6,97,108
0.10000000000002274,6160,7,97,94
0.09999999999999432,6160,8,97,127
0.09999999999999432,6160,9,97,124
0.10000000000002274,6160,10,97,108
0.09999999999999432,6160,11,97,16
0.09999999999999432,6160,12,97,127
0.10000000000002274,6160,13,97,16
0.09999999999999432,6160,14,97,101
0.09999999999999432,6160,15,97,14
0.09999999999999432,6161,0,97,100
0.09999999999999432,6161,1,97,127
0.09999999999999432,6161,2,97,115
0.09999999999999432,6161,3,97,117
0.10000000000002274,6161,4,97,124
0.09999999999999432,6161,5,97,14
0.09999999999999432,6161,6,97,101
0.09999999999999432,6161,7,97,91
0.10000000000002274,6161,8,97,127
0.09999999999999432,6161,9,97,127
0.09999999999999432,6161,10,97,127
0.09999999999999432,6161,11,97,125
0.09999999999999432,6161,12,97,13
0.10000000000002274,6161,13,97,127
0.09999999999999432,6161,14,97,13
0.09999999999999432,6161,15,97,119
0.09999999999999432,6162,0,97,15
0.10000000000002274,6162,1,97,127
0.09999999999999432,6162,2,97,127
0.10000000000002274,6162,3,97,112
0.09999999999999432,6162,4,97,31
0.09999999999999432,6162,5,97,81
0.09999999999999432,6162,6,97,122
0.09999999999999432,6162,7,97,117
0.09999999999999432,6162,8,97,108
0.09999999999999432,6162,9,97,35
0.10000000000002274,6162,10,97,127
0.09999999999999432,6162,11,97,127
0.09999999999999432,6162,12,97,72
0.10000000000002274,6162,13,97,127
0.09999999999999432,6162,14,97,28
0.10000000000002274,6162,15,97,105
0.09999999999999432,6163,0,97,26
0.09999999999999432,6163,1,97,84
0.09999999999999432,6163,2,97,105
0.09999999999999432,6163,3,97,11
0.09999999999999432,6163,4,97,106
0.10000000000002274,6163,5,97,8
0.10000000000002274,6163,6,97,96
0.09999999999999432,6163,7,97,29
0.09999999999999432,6163,8,97,8
0.09999999999999432,6163,9,97,121
0.09999999999999432,6163,10,97,12
0.09999999999999432,6163,11,97,27
0.10000000000002274,6163,12,97,7
0.10000000000002274,6163,13,97,108
0.09999999999999432,6163,14,97,29
0.09999999999999432,6163,15,97,87
0.09999999999999432,6164,0,97,101
0.09999999999999432,6164,1,97,11
0.09999999999999432,6164,2,97,119
0.09999999999999432,6164,3,97,11
0.09999999999999432,6164,4,97,108
0.09999999999999432,6164,5,97,27
0.10000000000002274,6164,6,97,8
0.09999999999999432,6164,7,97,127
0.09999999999999432,6164,8,97,12
0.09999999999999432,6164,9,97,26
0.09999999999999432,6164,10,97,7
0.09999999999999432,6164,11,97,70
0.09999999999999432,6164,12,97,29
0.10000000000002274,6164,13,97,74
0.09999999999999432,6164,14,97,111
0.09999999999999432,6164,15,97,14
0.10000000000002274,6165,0,97,105
0.09999999999999432,6165,1,97,14
0.09999999999999432,6165,2,97,104
0.09999999999999432,6165,3,97,24
0.09999999999999432,6165,4,97,7
0.09999999999999432,6165,5,97,127
0.09999999999999432,6165,6,97,14
0.10000000000002274,6165,7,97,28
0.10000000000002274,6165,8,97,8
0.09999999999999432,6165,9,97,99
0.09999999999999432,6165,10,97,28
0.09999999999999432,6165,11,97,74
0.09999999999999432,6165,12,97,108
0.09999999999999432,6165,13,97,11
0.10000000000002274,6165,14,97,120
0.10000000000002274,6165,15,97,10
0.09999999999999432,6166,0,97,99
0.09999999999999432,6166,1,97,27
0.09999999999999432,6166,2,97,9
0.09999999999999432,6166,3,97,127
0.09999999999999432,6166,4,97,15
0.09999999999999432,6166,5,97,26
0.10000000000002274,6166,6,97,6
0.09999999999999432,6166,7,97,116
0.09999999999999432,6166,8,97,28
0.09999999999999432,6166,9,97,83
0.09999999999999432,6166,10,97,114
0.09999999999999432,6166,11,97,11
0.09999999999999432,6166,12,97,112
0.09999999999999432,6166,13,97,10
0.09999999999999432,6166,14,97,96
0.10000000000002274,6166,15,97,26
0.10000000000002274,6167,0,97,6
0.09999999999999432,6167,1,97,127
0.09999999999999432,6167,2,97,11
0.09999999999999432,6167,3,97,28
0.09999999999999432,6167,4,97,7
0.09999999999999432,6167,5,97,103
0.09999999999999432,6167,6,97,21
0.10000000000002274,6167,7,97,79
0.09999999999999432,6167,8,97,100
0.10000000000002274,6167,9,97,12
0.10000000000002274,6167,10,97,99
0.09999999999999432,6167,11,97,9
0.09999999999999432,6167,12,97,109
0.09999999999999432,6167,13,97,28
0.09999999999999432,6167,14,97,8
0.09999999999999432,6167,15,97,127
0.10000000000002274,6168,0,97,12
0.10000000000002274,6168,1,97,26
0.09999999999999432,6168,2,97,7
0.09999999999999432,6168,3,97,105
0.09999999999999432,6168,4,97,29
0.09999999999999432,6168,5,97,81
0.09999999999999432,6168,6,97,108
0.09999999999999432,6168,7,97,11
0.09999999999999432,6168,8,97,115
0.09999999999999432,6168,9,97,14
0.09999999999999432,6168,10,97,99
0.09999999999999432,6168,11,97,24
0.09999999999999432,6168,12,97,4
0.09999999999999432,6168,13,97,127
0.09999999999999432,6168,14,97,13
0.09999999999999432,6168,15,97,26
0.10000000000002274,6169,0,97,8
0.09999999999999432,6169,1,97,126
0.10000000000002274,6169,2,97,30
0.09999999999999432,6169,3,97,95
0.09999999999999432,6169,4,97,114
0.09999999999999432,6169,5,97,92
0.09999999999999432,6169,6,97,127
0.10000000000002274,6169,7,97,52
0.09999999999999432,6169,8,97,116
0.10000000000002274,6169,9,97,59
0.09999999999999432,6169,10,97,38
0.10000000000002274,6169,11,97,23
0.09999999999999432,6169,12,97,2
0.09999999999999432,6169,13,97,4
0.09999999999999432,6169,14,97,3
0.10000000000002274,6169,15,97,26
0.09999999999999432,6170,0,97,3
0.09999999999999432,6170,1,97,4
0.09999999999999432,6170,2,97,3
0.09999999999999432,6170,3,97,21
0.09999999999999432,6170,4,97,3
0.09999999999999432,6170,5,97,4
0.09999999999999432,6170,6,97,3
0.09999999999999432,6170,7,97,32
0.09999999999999432,6170,8,97,1
0.10000000000002274,6170,9,97,24
0.09999999999999432,6170,10,97,28
0.09999999999999432,6170,11,97,7
0.09999999999999432,6170,12,97,4
0.10000000000002274,6170,13,97,17
0.09999999999999432,6170,14,97,22
0.09999999999999432,6170,15,97,38
0.09999999999999432,6171,0,97,24
0.10000000000002274,6171,1,97,32
0.09999999999999432,6171,2,97,13
0.09999999999999432,6171,3,97,30
0.09999999999999432,6171,4,97,28
0.10000000000002274,6171,5,97,14
0.09999999999999432,6171,6,97,29
0.10000000000002274,6171,7,97,29
0.09999999999999432,6171,8,97,26
0.09999999999999432,6171,9,97,127
0.09999999999999432,6171,10,97,127
0.09999999999999432,6171,11,97,127
0.09999999999999432,6171,12,97,127
0.10000000000002274,6171,13,97,127
0.09999999999999432,6171,14,97,116
0.09999999999999432,6171,15,97,100
0.09999999999999432,6172,0,97,127
0.09999999999999432,6172,1,97,12
0.0022727272727252057,6172,2,97,96
0.10000000000002274,6172,3,97,97
0.09999999999999432,6172,4,97,95
0.09999999999999432,6172,5,97,127
0.09999999999999432,6172,6,97,118
0.09999999999999432,6172,7,97,101
0.09999999999999432,6172,8,97,119
0.09999999999999432,6172,9,97,95
0.09999999999999432,6172,10,97,107
0.09999999999999432,6172,11,97,34
0.09999999999999432,6172,12,97,127
0.09999999999999432,6172,13,97,30
0.09999999999999432,6172,14,97,113
0.09999999999999432,6172,15,97,30
0.09999999999999432,6173,0,97,98
0.09999999999999432,6173,1,97,127
0.09999999999999432,6173,2,97,15
0.09999999999999432,6173,3,97,127
0.09999999999999432,6173,4,97,97
0.10000000000002274,6173,5,97,36
0.09999999999999432,6173,6,97,16
0.004545454545450411,6173,7,97,127
0.09999999999999432,6173,8,97,127
0.10000000000002274,6173,9,97,127
0.09999999999999432,6173,10,97,127
0.10000000000002274,6173,11,97,127
0.09999999999999432,6173,12,97,104
0.09999999999999432,6173,13,97,37
0.09999999999999432,6173,14,97,127
0.10000000000002274,6173,15,97,35
0.09999999999999432,6174,0,97,118
0.09999999999999432,6174,1,97,34
0.10000000000002274,6174,2,97,123
0.09999999999999432,6174,3,97,127
0.09999999999999432,6174,4,97,17
0.09999999999999432,6174,5,97,127
0.09999999999999432,6174,6,97,101
0.09999999999999432,6174,7,97,26
0.09999999999999432,6174,8,97,46
0.09999999999999432,6174,9,97,29
0.09999999999999432,6174,10,97,127
0.09999999999999432,6174,11,97,76
0.09999999999999432,6174,12,97,57
0.09999999999999432,6174,13,97,46
0.09999999999999432,6174,14,97,35
0.056818181818186986,6174,15,97,36
0.09999999999999964,6175,0,66,6
0.09999999999999787,6175,1,66,16
0.09999999999999432,6175,2,66,3
0.09999999999999432,6175,3,66,53
0.09999999999999432,6175,4,66,57
0.09999999999999432,6175,5,66,41
0.10000000000002274,6175,6,66,32
0.09999999999999432,6175,7,66,34
0.09999999999999432,6175,8,66,76
0.09999999999999432,6175,9,66,31
0.09999999999999432,6175,10,66,24
0.09999999999999432,6175,11,66,33
0.09999999999999432,6175,12,66,24
0.09999999999999432,6175,13,66,36
0.09999999999999432,6175,14,66,42
0.09999999999999432,6175,15,66,36
0.09999999999999432,6176,0,66,25
0.09999999999999432,6176,1,66,24
0.09999999999999432,6176,2,66,24
0.09999999999999432,6176,3,66,23
0.10000000000002274,6176,4,66,32
0.09999999999999432,6176,5,66,44
0.09999999999999432,6176,6,66,22
0.10000000000002274,6176,7,66,23
0.10000000000002274,6176,8,66,40
0.09999999999999432,6176,9,66,28
0.09999999999999432,6176,10,66,42
0.10000000000002274,6176,11,66,46
0.09999999999999432,6176,12,66,23
0.09999999999999432,6176,13,66,26
0.09999999999999432,6176,14,66,27
0.09999999999999432,6176,15,66,28
0.09999999999999432,6177,0,66,29
0.10000000000002274,6177,1,66,29
0.09999999999999432,6177,2,66,34
0.09999999999999432,6177,3,66,20
0.09999999999999432,6177,4,66,14
0.09999999999999432,6177,5,66,25
0.09999999999999432,6177,6,66,44
0.09999999999999432,6177,7,66,29
0.10000000000002274,6177,8,66,30
0.09999999999999432,6177,9,66,25
0.09999999999999432,6177,10,66,30
0.09999999999999432,6177,11,66,37
0.10000000000002274,6177,12,66,35
0.09999999999999432,6177,13,66,30
0.09999999999999432,6177,14,66,34
0.10000000000002274,6177,15,66,32
0.10000000000002274,6178,0,66,36
0.09999999999999432,6178,1,66,42
0.09999999999999432,6178,2,66,47
0.10000000000002274,6178,3,66,40
0.09999999999999432,6178,4,66,46
0.09999999999999432,6178,5,66,13
0.10000000000002274,6178,6,66,12
0.10000000000002274,6178,7,66,5
0.09999999999999432,6178,8,66,4
0.09999999999999432,6178,9,66,5
0.10000000000002274,6178,10,66,6
0.09999999999999432,6178,11,66,14
0.09999999999999432,6178,12,66,9
0.09999999999999432,6178,13,66,7
0.09999999999999432,6178,14,66,6
0.09999999999999432,6178,15,66,15
0.10000000000002274,6179,0,66,9
0.10000000000002274,6179,1,66,11
0.10000000000002274,6179,2,66,8
0.10000000000002274,6179,3,66,11
0.09999999999999432,6179,4,66,10
0.09999999999999432,6179,5,66,10
0.09999999999999432,6179,6,66,2
0.09999999999999432,6179,7,66,3
0.09999999999999432,6179,8,66,1
0.09999999999999432,6179,9,66,1
0.09999999999999432,6179,10,66,2
0.09999999999999432,6179,11,66,27
0.09999999999999432,6179,12,66,21
0.09999999999999432,6179,13,66,24
0.09999999999999432,6179,14,66,14
0.09999999999999432,6179,15,66,19
0.10000000000002274,6180,0,66,23
0.09999999999999432,6180,1,66,23
0.10000000000002274,6180,2,66,19
0.09999999999999432,6180,3,66,23
0.09999999999999432,6180,4,66,14
0.10000000000002274,6180,5,66,17
0.09999999999999432,6180,6,66,17
0.10000000000002274,6180,7,66,13
0.09999999999999999,6180,8,61,19
0.04772727272727273,6180,9,61,90
0.10000000000000003,6180,10,61,83
0.09999999999999998,6180,11,61,16
0.09999999999999987,6180,12,61,83
0.09999999999999987,6180,13,61,30
0.10000000000000009,6180,14,61,88
0.06818181818181812,6180,15,61,104
0.004545454545454408,6181,0,61,91
0.09999999999999964,6181,1,61,66
0.10000000000000009,6181,2,61,96
0.10000000000000009,6181,3,61,69
0.10000000000000009,6181,4,61,78
0.10000000000000009,6181,5,61,83
0.10000000000000009,6181,6,61,104
0.10000000000000053,6181,7,61,83
0.09999999999999964,6181,8,61,116
0.10000000000000053,6181,9,61,68
0.10000000000000053,6181,10,61,71
0.09999999999999964,6181,11,61,100
0.09999999999999964,6181,12,61,79
0.09999999999999964,6181,13,61,106
0.09999999999999964,6181,14,61,88
0.09999999999999964,6181,15,61,18
0.10000000000000053,6182,0,61,83
0.10000000000000053,6182,1,61,109
0.10000000000000053,6182,2,61,84
0.09999999999999964,6182,3,61,77
0.09999999999999964,6182,4,61,74
0.10000000000000053,6182,5,61,67
0.09999999999999964,6182,6,61,92
0.09999999999999964,6182,7,61,85
0.09999999999999964,6182,8,61,63
0.013636363636363669,6182,9,61,78
0.10000000000000142,6182,10,61,99
0.09999999999999964,6182,11,61,32
0.09999999999999964,6182,12,61,72
0.09999999999999964,6182,13,61,16
0.09999999999999964,6182,14,61,81
0.09999999999999964,6182,15,61,40
0.09999999999999964,6183,0,61,59
0.09999999999999964,6183,1,61,9
0.09999999999999964,6183,2,61,65
0.09999999999999964,6183,3,61,28
0.09999999999999964,6183,4,61,91
0.09999999999999964,6183,5,61,13
0.10000000000000142,6183,6,61,69
0.09999999999999964,6183,7,61,26
0.09999999999999964,6183,8,61,50
0.09999999999999964,6183,9,61,12
0.09999999999999964,6183,10,61,100
0.09999999999999964,6183,11,61,37
0.09999999999999964,6183,12,61,74
0.09999999999999787,6183,13,61,14
0.10000000000000142,6183,14,61,81
0.10000000000000142,6183,15,61,51
0.10000000000000142,6184,0,61,48
0.09999999999999787,6184,1,61,9
0.10000000000000142,6184,2,61,68
0.09999999999999787,6184,3,61,32
0.10000000000000142,6184,4,61,70
0.10000000000000142,6184,5,61,13
0.10000000000000142,6184,6,61,91
0.10000000000000142,6184,7,61,55
0.10000000000000142,6184,8,61,42
0.09999999999999787,6184,9,61,36
0.09999999999999787,6184,10,61,87
0.09999999999999787,6184,11,61,16
0.10000000000000142,6184,12,61,86
0.10000000000000142,6184,13,61,35
0.10000000000000142,6184,14,61,63
0.10000000000000142,6184,15,61,10
0.10000000000000142,6185,0,61,68
0.09999999999999787,6185,1,61,29
0.09999999999999787,6185,2,61,75
0.10000000000000142,6185,3,61,14
0.10000000000000142,6185,4,61,81
0.10000000000000142,6185,5,61,24
0.10000000000000142,6185,6,61,66
0.10000000000000142,6185,7,61,15
0.10000000000000142,6185,8,61,85
0.09999999999999787,6185,9,61,36
0.09999999999999787,6185,10,61,65
0.09999999999999787,6185,11,61,19
0.09999999999999787,6185,12,61,65
0.10000000000000142,6185,13,61,34
0.09999999999999787,6185,14,61,53
0.10000000000000142,6185,15,61,9
0.10000000000000142,6186,0,61,80
0.10000000000000142,6186,1,61,29
0.09999999999999787,6186,2,61,54
0.10000000000000142,6186,3,61,10
0.09999999999999787,6186,4,61,90
0.09999999999999787,6186,5,61,20
0.10000000000000142,6186,6,61,33
0.10000000000000142,6186,7,61,15
0.10000000000000142,6186,8,61,71
0.09999999999999787,6186,9,61,79
0.09999999999999787,6186,10,61,21
0.09999999999999787,6186,11,61,62
0.10000000000000142,6186,12,61,49
0.09999999999999432,6186,13,61,47
0.10000000000000142,6186,14,61,53
0.10000000000000142,6186,15,61,38
0.10000000000000142,6187,0,61,52
0.10000000000000142,6187,1,61,48
0.09999999999999432,6187,2,61,43
0.10000000000000142,6187,3,61,40
0.10000000000000142,6187,4,61,34
0.09999999999999432,6187,5,61,48
0.10000000000000142,6187,6,61,48
0.10000000000000142,6187,7,61,42
0.10000000000000142,6187,8,61,44
0.09999999999999432,6187,9,61,58
0.09999999999999432,6187,10,61,51
0.10000000000000142,6187,11,61,38
0.10000000000000142,6187,12,61,51
0.10000000000000142,6187,13,61,39
0.10000000000000142,6187,14,61,44
0.10000000000000142,6187,15,61,43
0.09999999999999432,6188,0,61,43
0.10000000000000142,6188,1,61,36
0.10000000000000142,6188,2,61,41
0.10000000000000142,6188,3,61,36
0.10000000000000142,6188,4,61,41
0.10000000000000142,6188,5,61,45
0.10000000000000142,6188,6,61,56
0.10000000000000142,6188,7,61,56
0.10000000000000142,6188,8,61,33
0.06818181818182012,6188,9,61,45
0.10000000000000142,6188,10,61,67
0.10000000000000142,6188,11,61,22
0.10000000000000142,6188,12,61,53
0.10000000000000142,6188,13,61,58
0.10000000000000142,6188,14,61,46
0.10000000000000142,6188,15,61,36
0.10000000000000142,6189,0,61,16
0.10000000000000142,6189,1,61,33
0.10000000000000142,6189,2,61,49
0.10000000000000142,6189,3,61,41
0.10000000000000142,6189,4,61,47
0.10000000000000142,6189,5,61,42
0.09999999999999432,6189,6,61,54
0.09999999999999432,6189,7,61,28
0.10000000000000142,6189,8,61,31
0.10000000000000142,6189,9,61,35
0.10000000000000142,6189,10,61,45
0.10000000000000142,6189,11,61,43
0.10000000000000142,6189,12,61,51
0.10000000000000142,6189,13,61,45
0.10000000000000142,6189,14,61,20
0.10000000000000142,6189,15,61,48
0.09999999999999432,6190,0,61,45
0.10000000000000142,6190,1,61,31
0.09999999999999432,6190,2,61,51
0.09999999999999432,6190,3,61,20
0.10000000000000142,6190,4,61,25
0.10000000000000142,6190,5,61,52
0.09999999999999432,6190,6,61,40
0.10000000000000142,6190,7,61,8
0.10000000000000142,6190,8,61,41
0.10000000000000142,6190,9,61,7
0.10000000000000142,6190,10,61,42
0.10000000000000142,6190,11,61,11
0.09999999999999432,6190,12,61,45
0.10000000000000142,6190,13,61,7
0.10000000000000142,6190,14,61,54
0.10000000000000142,6190,15,61,7
0.10000000000000142,6191,0,61,39
0.10000000000000142,6191,1,61,8
0.10000000000000142,6191,2,61,55
0.10000000000000142,6191,3,61,17
0.09999999999999432,6191,4,61,56
0.09999999999999432,6191,5,61,5
0.09999999999999432,6191,6,61,42
0.09999999999999432,6191,7,61,8
0.09999999999999432,6191,8,61,32
0.09999999999999432,6191,9,61,5
0.09999999999999432,6191,10,61,40
0.10000000000000853,6191,11,61,13
0.09999999999999432,6191,12,61,60
0.10000000000000853,6191,13,61,5
0.09999999999999432,6191,14,61,43
0.10000000000000853,6191,15,61,16
0.09999999999999432,6192,0,61,43
0.10000000000000853,6192,1,61,5
0.09999999999999432,6192,2,61,40
0.10000000000000853,6192,3,61,12
0.09999999999999432,6192,4,61,46
0.10000000000000853,6192,5,61,7
0.09999999999999432,6192,6,61,60
0.09999999999999432,6192,7,61,13
0.10000000000000853,6192,8,61,50
0.10000000000000853,6192,9,61,7
0.09999999999999432,6192,10,61,55
0.10000000000000853,6192,11,61,9
0.10000000000000853,6192,12,61,41
0.09999999999999432,6192,13,61,7
0.09999999999999432,6192,14,61,40
0.10000000000000853,6192,15,61,14
0.09999999999999432,6193,0,61,39
0.10000000000000853,6193,1,61,5
0.09999999999999432,6193,2,61,43
0.10000000000000853,6193,3,61,10
0.09999999999999432,6193,4,61,54
0.10000000000000853,6193,5,61,9
0.09999999999999432,6193,6,61,36
0.10000000000000853,6193,7,61,17
0.09999999999999432,6193,8,61,70
0.10000000000000853,6193,9,61,6
0.09999999999999432,6193,10,61,50
0.10000000000000853,6193,11,61,8
0.10000000000000853,6193,12,61,45
0.09999999999999432,6193,13,61,36
0.10000000000000853,6193,14,61,67
0.10000000000000853,6193,15,61,40
0.09999999999999432,6194,0,61,47
0.10000000000000853,6194,1,61,32
0.09999999999999432,6194,2,61,49
0.09999999999999432,6194,3,61,15
0.09999999999999432,6194,4,61,49
0.10000000000000853,6194,5,61,25
0.09999999999999432,6194,6,61,65
0.10000000000000853,6194,7,61,22
0.10000000000000853,6194,8,61,45
0.09999999999999432,6194,9,61,8
0.09999999999999432,6194,10,61,66
0.10000000000000853,6194,11,61,9
0.09999999999999432,6194,12,61,64
0.09999999999999432,6194,13,61,7
0.09999999999999432,6194,14,61,37
0.09999999999999432,6194,15,61,79
0.10000000000000853,6195,0,61,91
0.06818181818182723,6195,1,61,104
0.09999999999999432,6195,2,61,36
0.10000000000000853,6195,3,61,57
0.10000000000000853,6195,4,61,46
0.10000000000000853,6195,5,61,115
0.09999999999999432,6195,6,61,92
0.09999999999999432,6195,7,61,74
0.10000000000000853,6195,8,61,92
0.09999999999999432,6195,9,61,76
0.09999999999999432,6195,10,61,102
0.09999999999999432,6195,11,61,25
0.09999999999999432,6195,12,61,98
0.09999999999999432,6195,13,61,68
0.09999999999999432,6195,14,61,90
0.09999999999999432,6195,15,61,89
0.09999999999999432,6196,0,61,97
0.10000000000000853,6196,1,61,81
0.10000000000000853,6196,2,61,101
0.09999999999999432,6196,3,61,82
0.09999999999999432,6196,4,61,89
0.09999999999999432,6196,5,61,22
0.10000000000000853,6196,6,61,72
0.10000000000000853,6196,7,61,110
0.09999999999999432,6196,8,61,85
0.10000000000000853,6196,9,61,74
0.10000000000000853,6196,10,61,57
0.09999999999999432,6196,11,61,69
0.10000000000000853,6196,12,61,85
0.09999999999999432,6196,13,61,89
0.10000000000000853,6196,14,61,83
0.10000000000000853,6196,15,61,52
0.09999999999999432,6197,0,61,12
0.10000000000000853,6197,1,61,58
0.09999999999999432,6197,2,61,23
0.10000000000000853,6197,3,61,65
0.09999999999999432,6197,4,61,24
0.10000000000000853,6197,5,61,41
0.09999999999999432,6197,6,61,18
0.10000000000000853,6197,7,61,80
0.10000000000000853,6197,8,61,52
0.09999999999999432,6197,9,61,18
0.10000000000000853,6197,10,61,58
0.10000000000000853,6197,11,61,43
0.09999999999999432,6197,12,61,18
0.10000000000000853,6197,13,61,54
0.10000000000000853,6197,14,61,55
0.09999999999999432,6197,15,61,19
0.10000000000000853,6198,0,61,61
0.09999999999999432,6198,1,61,20
0.10000000000000853,6198,2,61,36
0.09999999999999432,6198,3,61,20
0.09999999999999432,6198,4,61,72
0.10000000000000853,6198,5,61,50
0.10000000000000853,6198,6,61,23
0.10000000000000853,6198,7,61,66
0.09999999999999432,6198,8,61,41
0.09999999999999432,6198,9,61,22
0.09999999999999432,6198,10,61,54
0.09999999999999432,6198,11,61,47
0.09999999999999432,6198,12,61,23
0.10000000000000853,6198,13,61,54
0.09999999999999432,6198,14,61,25
0.10000000000000853,6198,15,61,46
0.10000000000000853,6199,0,61,32
0.06818181818182723,6199,1,61,45
0.10000000000000853,6199,2,61,29
0.09999999999999432,6199,3,61,74
0.09999999999999432,6199,4,61,28
0.09999999999999432,6199,5,61,83
0.09999999999999432,6199,6,61,39
0.09999999999999432,6199,7,61,67
0.10000000000000853,6199,8,61,22
0.09999999999999432,6199,9,61,59
0.09999999999999432,6199,10,61,31
0.09999999999999432,6199,11,61,73
0.10000000000000853,6199,12,61,65
0.09999999999999432,6199,13,61,86
0.09999999999999432,6199,14,61,70
0.09999999999999432,6199,15,61,33
0.10000000000000853,6200,0,61,70
0.09999999999999432,6200,1,61,63
0.10000000000000853,6200,2,61,21
0.09999999999999432,6200,3,61,33
0.09999999999999432,6200,4,61,26
0.09999999999999432,6200,5,61,22
0.09999999999999432,6200,6,61,44
0.09999999999999432,6200,7,61,40
0.09999999999999432,6200,8,61,27
0.09999999999999432,6200,9,61,35
0.10000000000000853,6200,10,61,30
0.10000000000000853,6200,11,61,34
0.09999999999999432,6200,12,61,13
0.09999999999999432,6200,13,61,25
0.09999999999999432,6200,14,61,28
0.10000000000000853,6200,15,61,35
0.09999999999999432,6201,0,61,42
0.09999999999999432,6201,1,61,24
0.10000000000000853,6201,2,61,24
0.09999999999999432,6201,3,61,30
0.09999999999999432,6201,4,61,45
0.09999999999999432,6201,5,61,33
0.10000000000002274,6201,6,61,43
0.09999999999999432,6201,7,61,40
0.09999999999999432,6201,8,61,48
0.09999999999999432,6201,9,61,35
0.09999999999999432,6201,10,61,48
0.09999999999999432,6201,11,61,25
0.10000000000002274,6201,12,61,38
0.10000000000002274,6201,13,61,44
0.09999999999999432,6201,14,61,56
0.09999999999999432,6201,15,61,33
0.10000000000002274,6202,0,61,50
0.09999999999999432,6202,1,61,34
0.09999999999999432,6202,2,61,53
0.10000000000002274,6202,3,61,36
0.09999999999999432,6202,4,61,49
0.09999999999999432,6202,5,61,39
0.10000000000002274,6202,6,61,40
0.10000000000002274,6202,7,61,31
0.09999999999999432,6202,8,61,42
0.09999999999999432,6202,9,61,30
0.10000000000002274,6202,10,61,41
0.09999999999999432,6202,11,61,44
0.09999999999999432,6202,12,61,25
0.10000000000002274,6202,13,61,36
0.09999999999999432,6202,14,61,50
0.09999999999999432,6202,15,61,41
0.09999999999999432,6203,0,61,48
0.09999999999999432,6203,1,61,39
0.09999999999999432,6203,2,61,47
0.09999999999999432,6203,3,61,30
0.10000000000002274,6203,4,61,54
0.10000000000002274,6203,5,61,30
0.09999999999999432,6203,6,61,46
0.09999999999999432,6203,7,61,42
0.09999999999999432,6203,8,61,37
0.09999999999999432,6203,9,61,47
0.10000000000002274,6203,10,61,39
0.10000000000002274,6203,11,61,44
0.09999999999999432,6203,12,61,41
0.10000000000002274,6203,13,61,52
0.10000000000002274,6203,14,61,34
0.09999999999999432,6203,15,61,52
0.09999999999999432,6204,0,61,37
0.10000000000002274,6204,1,61,40
0.09999999999999432,6204,2,61,46
0.09999999999999432,6204,3,61,34
0.10000000000002274,6204,4,61,44
0.09999999999999432,6204,5,61,30
0.09999999999999432,6204,6,61,28
0.09999999999999432,6204,7,61,37
0.09999999999999432,6204,8,61,26
0.09999999999999432,6204,9,61,40
0.10000000000002274,6204,10,61,33
0.09999999999999432,6204,11,61,53
0.09999999999999432,6204,12,61,51
0.09999999999999432,6204,13,61,51
0.09999999999999432,6204,14,61,45
0.09999999999999432,6204,15,61,4
0.10000000000002274,6205,0,61,35
0.09999999999999432,6205,1,61,81
0.10000000000002274,6205,2,61,54
0.09999999999999432,6205,3,61,52
0.09999999999999432,6205,4,61,69
0.09999999999999432,6205,5,61,46
0.10000000000002274,6205,6,61,43
0.09999999999999432,6205,7,61,49
0.09999999999999432,6205,8,61,43
0.10000000000002274,6205,9,61,57
0.09999999999999432,6205,10,61,62
0.09999999999999432,6205,11,61,43
0.09999999999999432,6205,12,61,91
0.09999999999999432,6205,13,61,56
0.09999999999999432,6205,14,61,43
0.09999999999999432,6205,15,61,47
0.09999999999999432,6206,0,61,54
0.09999999999999432,6206,1,61,50
0.09999999999999432,6206,2,61,43
0.09999999999999432,6206,3,61,70
0.09999999999999432,6206,4,61,45
0.09999999999999432,6206,5,61,50
0.10000000000002274,6206,6,61,43
0.09999999999999432,6206,7,61,44
0.09999999999999432,6206,8,61,43
0.09999999999999432,6206,9,61,70
0.09999999999999432,6206,10,61,54
0.10000000000002274,6206,11,61,61
0.09999999999999432,6206,12,61,35
0.10000000000002274,6206,13,61,40
0.09999999999999432,6206,14,61,10
0.09999999999999432,6206,15,61,19
0.09999999999999432,6207,0,61,18
0.09999999999999432,6207,1,61,37
0.09999999999999432,6207,2,61,21
0.09999999999999432,6207,3,61,22
0.03636363636363171,6207,4,61,26
0.09999999999999432,6207,5,61,40
0.09999999999999432,6207,6,61,37
0.10000000000002274,6207,7,61,30
0.10000000000002274,6207,8,61,32
0.09999999999999432,6207,9,61,45
0.10000000000002274,6207,10,61,38
0.09999999999999432,6207,11,61,30
0.09999999999999432,6207,12,61,30
0.09999999999999432,6207,13,61,40
0.09999999999999432,6207,14,61,37
0.09999999999999432,6207,15,61,25
0.09999999999999432,6208,0,61,44
0.09999999999999432,6208,1,61,37
0.10000000000002274,6208,2,61,31
0.09999999999999432,6208,3,61,27
0.09999999999999432,6208,4,61,50
0.10000000000002274,6208,5,61,35
0.09999999999999432,6208,6,61,36
0.09999999999999432,6208,7,61,37
0.09999999999999432,6208,8,61,56
0.09999999999999432,6208,9,61,40
0.09999999999999432,6208,10,61,36
0.09999999999999432,6208,11,61,38
0.09999999999999432,6208,12,61,37
0.09999999999999432,6208,13,61,25
0.09999999999999432,6208,14,61,30
0.09999999999999432,6208,15,61,51
0.024999999999977263,6209,0,61,61
0.09999999999999432,6209,1,61,48
0.09999999999999432,6209,2,61,35
0.09999999999999432,6209,3,61,34
0.09999999999999432,6209,4,61,36
0.10000000000002274,6209,5,61,30
0.09999999999999432,6209,6,61,29
0.09999999999999432,6209,7,61,25
0.09999999999999432,6209,8,61,39
0.10000000000002274,6209,9,61,24
0.09999999999999432,6209,10,61,22
0.09999999999999432,6209,11,61,23
0.06818181818181301,6209,12,61,33
0.09999999999999432,6209,13,61,55
0.09999999999999432,6209,14,61,51
0.09999999999999432,6209,15,61,53
0.09999999999999432,6210,0,61,52
0.09999999999999432,6210,1,61,55
0.09999999999999432,6210,2,61,67
0.09999999999999432,6210,3,61,60
0.09999999999999432,6210,4,61,39
0.10000000000002274,6210,5,61,50
0.09999999999999432,6210,6,61,38
0.09999999999999432,6210,7,61,41
0.10000000000002274,6210,8,61,57
0.09999999999999432,6210,9,61,73
0.10000000000002274,6210,10,61,64
0.10000000000002274,6210,11,61,95
0.10000000000002274,6210,12,61,84
0.09999999999999432,6210,13,61,98
0.09999999999999432,6210,14,61,72
0.09999999999999432,6210,15,61,91
0.09999999999999432,6211,0,61,106
0.09999999999999432,6211,1,61,95
0.10000000000002274,6211,2,61,82
0.09999999999999432,6211,3,61,66
0.09999999999999432,6211,4,61,65
0.09999999999999432,6211,5,61,73
0.09999999999999432,6211,6,61,78
0.09999999999999432,6211,7,61,39
0.10000000000002274,6211,8,61,54
0.01590909090910486,6211,9,61,73
0.06818181818181301,6211,10,61,78
0.09999999999999432,6211,11,61,66
0.09999999999999432,6211,12,61,54
0.09999999999999432,6211,13,61,47
0.09999999999999432,6211,14,61,57
0.09999999999999432,6211,15,61,58
0.09999999999999432,6212,0,61,61
0.09999999999999432,6212,1,61,71
0.09999999999999432,6212,2,61,82
0.09999999999999432,6212,3,61,52
0.09999999999999432,6212,4,61,56
0.09999999999999964,6212,5,61,1
0.09999999999999964,6212,6,61,6
0.09999999999999964,6212,7,61,2
0.10000000000000142,6212,8,61,1
0.10000000000000142,6212,9,61,3
0.10000000000000142,6212,10,61,1
0.10000000000000142,6212,11,61,1
0.10000000000000142,6212,12,61,1
0.10000000000000142,6212,13,61,1
0.10000000000000142,6212,14,61,1
0.10000000000000142,6212,15,61,55
0.09999999999999787,6213,0,61,51
0.10000000000000497,6213,1,61,52
0.10000000000000142,6213,2,61,45
0.10000000000000142,6213,3,61,42
0.09999999999999432,6213,4,61,31
0.10000000000000142,6213,5,61,26
0.10000000000000142,6213,6,61,24
0.10000000000000142,6213,7,61,25
0.10000000000000142,6213,8,61,21
0.10000000000000142,6213,9,61,23
0.10000000000000142,6213,10,61,27
0.10000000000000142,6213,11,61,26
0.10000000000000142,6213,12,61,27
0.09999999999999432,6213,13,61,23
0.09999999999999432,6213,14,61,23
0.10000000000000142,6213,15,61,36
0.09999999999999432,6214,0,61,25
0.10000000000000142,6214,1,61,31
0.10000000000000142,6214,2,61,25
0.10000000000000142,6214,3,61,28
0.10000000000000142,6214,4,61,25
0.09999999999999432,6214,5,61,24
0.10000000000000142,6214,6,61,29
0.10000000000000142,6214,7,61,24
0.10000000000000142,6214,8,61,24
0.10000000000000142,6214,9,61,21
0.10000000000000142,6214,10,61,30
0.09999999999999432,6214,11,61,25
0.10000000000000142,6214,12,61,32
0.10000000000000142,6214,13,61,24
0.10000000000000142,6214,14,61,28
0.10000000000000142,6214,15,61,35
0.10000000000000142,6215,0,61,27
0.10000000000000142,6215,1,61,28
0.10000000000000142,6215,2,61,22
0.10000000000000142,6215,3,61,20
0.10000000000000142,6215,4,61,25
0.10000000000000142,6215,5,61,23
0.10000000000000142,6215,6,61,13
0.10000000000000142,6215,7,61,27
0.10000000000000142,6215,8,61,32
0.10000000000000142,6215,9,61,32
0.10000000000000142,6215,10,61,29
0.10000000000000142,6215,11,61,24
0.09999999999999998,6215,12,65,33
0.10000000000000009,6215,13,65,11
0.10000000000000009,6215,14,65,12
0.10000000000000053,6215,15,65,17
0.09999999999999964,6216,0,65,25
0.09999999999999964,6216,1,65,20
0.09999999999999964,6216,2,65,16
0.09999999999999964,6216,3,65,36
0.09999999999999964,6216,4,65,33
0.09999999999999964,6216,5,65,31
0.09999999999999964,6216,6,65,15
0.09999999999999964,6216,7,65,28
0.10000000000000142,6216,8,65,27
0.09999999999999787,6216,9,65,12
0.09999999999999787,6216,10,65,23
0.09999999999999787,6216,11,65,24
0.09999999999999787,6216,12,65,31
0.10000000000000142,6216,13,65,32
0.09999999999999787,6216,14,65,28
0.10000000000000142,6216,15,65,28
0.10000000000000142,6217,0,65,27
0.10000000000000142,6217,1,65,9
0.09999999999999787,6217,2,65,29
0.10000000000000853,6217,3,65,1
0.09999999999999432,6217,4,65,1
0.09999999999999432,6217,5,65,1
0.10000000000000853,6217,6,65,2
0.09999999999999432,6217,7,65,2
0.09999999999999432,6217,8,65,1
0.10000000000000853,6217,9,65,1
0.10000000000000853,6217,10,65,1
0.09999999999999432,6217,11,65,2
0.09999999999999432,6217,12,65,1
0.10000000000000853,6217,13,65,1
0.09999999999999432,6217,14,65,1
0.09999999999999432,6217,15,65,1
0.10000000000000853,6218,0,65,1
0.09999999999999432,6218,1,65,2
0.10000000000000853,6218,2,65,1
0.10000000000000853,6218,3,65,2
0.10000000000000853,6218,4,65,1
0.09999999999999432,6218,5,65,1
0.10000000000000853,6218,6,65,1
0.10000000000000853,6218,7,65,2
0.10000000000000853,6218,8,65,1
0.09999999999999432,6218,9,65,2
0.10000000000000853,6218,10,65,1
0.09999999999999432,6218,11,65,2
0.09999999999999432,6218,12,65,1
0.09999999999999432,6218,13,65,2
0.10000000000000853,6218,14,65,1
0.09999999999999432,6218,15,65,2
0.09999999999999432,6219,0,65,1
0.09999999999999432,6219,1,65,2
0.09999999999999432,6219,2,65,1
0.09999999999999432,6219,3,65,2
0.10000000000000853,6219,4,65,1
0.09999999999999432,6219,5,65,2
0.09999999999999432,6219,6,65,2
0.09999999999999432,6219,7,65,2
0.10000000000000853,6219,8,65,1
0.09999999999999432,6219,9,65,2
0.09999999999999432,6219,10,65,1
0.09999999999999432,6219,11,65,2
0.09999999999999432,6219,12,65,1
0.09999999999999432,6219,13,65,1
0.10000000000000853,6219,14,65,1
0.10000000000000853,6219,15,65,2
0.09999999999999432,6220,0,65,1
0.09999999999999432,6220,1,65,1
0.09999999999999432,6220,2,65,16
0.09999999999999432,6220,3,65,14
0.09999999999999432,6220,4,65,7
0.09999999999999432,6220,5,65,11
0.10000000000002274,6220,6,65,10
0.09999999999999432,6220,7,65,10
0.09999999999999432,6220,8,65,10
0.09999999999999432,6220,9,65,11
0.09999999999999432,6220,10,65,9
0.09999999999999432,6220,11,65,2
0.09999999999999432,6220,12,65,3
0.10000000000002274,6220,13,65,7
0.09999999999999432,6220,14,65,9
0.10000000000002274,6220,15,65,9
0.09999999999999432,6221,0,65,8
0.09999999999999432,6221,1,65,9
0.09999999999999432,6221,2,65,8
0.09999999999999432,6221,3,65,8
0.09999999999999432,6221,4,65,4
0.09999999999999432,6221,5,65,8
0.09999999999999432,6221,6,65,8
0.09999999999999432,6221,7,65,8
0.09999999999999432,6221,8,65,8
0.10000000000002274,6221,9,65,8
0.10000000000002274,6221,10,65,4
0.09999999999999432,6221,11,65,8
0.09999999999999432,6221,12,65,3
0.09999999999999432,6221,13,65,8
0.09999999999999432,6221,14,65,8
0.09999999999999432,6221,15,65,8
0.09999999999999432,6222,0,65,7
0.10000000000002274,6222,1,65,9
0.10000000000002274,6222,2,65,7
0.09999999999999432,6222,3,65,8
0.09999999999999432,6222,4,65,2
0.09999999999999432,6222,5,65,8
0.09999999999999432,6222,6,65,9
0.09999999999999432,6222,7,65,9
0.09999999999999432,6222,8,65,8
0.09999999999999432,6222,9,65,9
0.10000000000002274,6222,10,65,8
0.09999999999999432,6222,11,65,8
0.09999999999999432,6222,12,65,4
0.10000000000002274,6222,13,65,7
0.10000000000002274,6222,14,65,8
0.09999999999999432,6222,15,65,8
0.09999999999999432,6223,0,65,7
0.09999999999999432,6223,1,65,9
0.09999999999999432,6223,2,65,7
0.09999999999999432,6223,3,65,8
0.09999999999999432,6223,4,65,4
0.10000000000002274,6223,5,65,9
0.10000000000002274,6223,6,65,9
0.09999999999999432,6223,7,65,8
0.09999999999999432,6223,8,65,8
0.09999999999999432,6223,9,65,8
0.09999999999999432,6223,10,65,7
0.09999999999999432,6223,11,65,9
0.09999999999999432,6223,12,65,5
0.10000000000002274,6223,13,65,2
0.10000000000002274,6223,14,65,9
0.09999999999999432,6223,15,65,9
0.10000000000002274,6224,0,65,8
0.09999999999999432,6224,1,65,10
0.09999999999999432,6224,2,65,9
0.09999999999999432,6224,3,65,10
0.09999999999999432,6224,4,65,5
0.09999999999999432,6224,5,65,10
0.09999999999999432,6224,6,65,10
0.09999999999999432,6224,7,65,9
0.09999999999999432,6224,8,65,9
0.10000000000002274,6224,9,65,10
0.09999999999999432,6224,10,65,9
0.09999999999999432,6224,11,65,8
0.09999999999999432,6224,12,65,4
0.09999999999999432,6224,13,65,7
0.09999999999999432,6224,14,65,9
0.09999999999999432,6224,15,65,9
0.09999999999999432,6225,0,65,7
0.10000000000002274,6225,1,65,9
0.10000000000002274,6225,2,65,7
0.09999999999999432,6225,3,65,7
0.09999999999999432,6225,4,65,4
0.09999999999999432,6225,5,65,9
0.09999999999999432,6225,6,65,4
0.09999999999999432,6225,7,65,9
0.09999999999999432,6225,8,65,8
0.10000000000002274,6225,9,65,8
0.09999999999999432,6225,10,65,6
0.09999999999999432,6225,11,65,9
0.09999999999999432,6225,12,65,4
0.09999999999999432,6225,13,65,8
0.09999999999999432,6225,14,65,8
0.09999999999999432,6225,15,65,9
0.09999999999999432,6226,0,65,8
0.09999999999999432,6226,1,65,10
0.09999999999999432,6226,2,65,9
0.09999999999999432,6226,3,65,10
0.09999999999999432,6226,4,65,6
0.10000000000002274,6226,5,65,10
0.09999999999999432,6226,6,65,9
0.09999999999999432,6226,7,65,10
0.09999999999999432,6226,8,65,10
0.09999999999999432,6226,9,65,10
0.09999999999999432,6226,10,65,9
0.09999999999999432,6226,11,65,9
0.09999999999999432,6226,12,65,4
0.10000000000002274,6226,13,65,7
0.10000000000002274,6226,14,65,9
0.09999999999999432,6226,15,65,6
0.10000000000002274,6227,0,65,9
0.09999999999999432,6227,1,65,9
0.09999999999999432,6227,2,65,7
0.09999999999999432,6227,3,65,8
0.09999999999999432,6227,4,65,4
0.09999999999999432,6227,5,65,9
0.09999999999999432,6227,6,65,8
0.09999999999999432,6227,7,65,9
0.10000000000002274,6227,8,65,8
0.10000000000002274,6227,9,65,10
0.09999999999999432,6227,10,65,8
0.09999999999999432,6227,11,65,9
0.09999999999999432,6227,12,65,4
0.09999999999999432,6227,13,65,9
0.09999999999999432,6227,14,65,8
0.09999999999999432,6227,15,65,9
0.10000000000002274,6228,0,65,7
0.10000000000002274,6228,1,65,10
0.09999999999999432,6228,2,65,8
0.09999999999999432,6228,3,65,10
0.09999999999999432,6228,4,65,5
0.09999999999999432,6228,5,65,9
0.09999999999999432,6228,6,65,9
0.10000000000002274,6228,7,65,1
0.10000000000002274,6228,8,65,14
0.10000000000002274,6228,9,65,12
0.09999999999999432,6228,10,65,21
0.09999999999999432,6228,11,65,19
0.09999999999999432,6228,12,65,11
0.09999999999999432,6228,13,65,13
0.09999999999999432,6228,14,65,17
0.09999999999999432,6228,15,65,13
0.09999999999999432,6229,0,65,10
0.09999999999999432,6229,1,65,10
0.09999999999999432,6229,2,65,9
0.09999999999999432,6229,3,65,9
0.09999999999999432,6229,4,65,13
0.09999999999999432,6229,5,65,13
0.09999999999999432,6229,6,65,13
0.09999999999999432,6229,7,65,18
0.09999999999999432,6229,8,65,1
0.09999999999999432,6229,9,65,16
0.09999999999999787,6229,10,65,15
0.10000000000000142,6229,11,65,5
0.10000000000000142,6229,12,65,26
0.10000000000000142,6229,13,65,28
0.09999999999999787,6229,14,65,2
0.10000000000000142,6229,15,65,9
0.10000000000000142,6230,0,65,1
0.10000000000000142,6230,1,65,16
0.004545454545450411,6230,2,65,38
0.10000000000000142,6230,3,65,40
0.10000000000000142,6230,4,65,26
0.10000000000000142,6230,5,65,43
0.10000000000000142,6230,6,65,35
0.10000000000000142,6230,7,65,26
0.10000000000000142,6230,8,65,29
0.10000000000000142,6230,9,65,32
0.10000000000000142,6230,10,65,5
0.09999999999999432,6230,11,65,29
0.10000000000000142,6230,12,65,28
0.10000000000000142,6230,13,65,23
0.10000000000000142,6230,14,65,24
0.10000000000000142,6230,15,65,31
0.10000000000000142,6231,0,65,25
0.10000000000000142,6231,1,65,27
0.10000000000000142,6231,2,65,37
0.10000000000000142,6231,3,65,25
0.09999999999999432,6231,4,65,21
0.10000000000000142,6231,5,65,30
0.10000000000000142,6231,6,65,6
0.09999999999999432,6231,7,65,24
0.10000000000000142,6231,8,65,30
0.10000000000000142,6231,9,65,7
0.10000000000000142,6231,10,65,20
0.10000000000000142,6231,11,65,29
0.10000000000000142,6231,12,65,31
0.10000000000000142,6231,13,65,38
0.10000000000000142,6231,14,65,37
0.10000000000000142,6231,15,65,7
0.10000000000000142,6232,0,65,27
0.09999999999999432,6232,1,65,21
0.09999999999999432,6232,2,65,18
0.10000000000000142,6232,3,65,33
0.10000000000000142,6232,4,65,33
0.10000000000000142,6232,5,65,27
0.10000000000000142,6232,6,65,30
0.10000000000000142,6232,7,65,26
0.09999999999999432,6232,8,65,25
0.10000000000000142,6232,9,65,29
0.10000000000000142,6232,10,65,32
0.10000000000000142,6232,11,65,21
0.10000000000000142,6232,12,65,37
0.10000000000000142,6232,13,65,31
0.10000000000000142,6232,14,65,19
0.10000000000000142,6232,15,65,49
0.10000000000000142,6233,0,65,38
0.10000000000000142,6233,1,65,47
0.10000000000000142,6233,2,65,36
0.10000000000000142,6233,3,65,36
0.09999999999999432,6233,4,65,27
0.09999999999999432,6233,5,65,15
0.10000000000000142,6233,6,65,36
0.09999999999999432,6233,7,65,30
0.10000000000000142,6233,8,65,31
0.10000000000000142,6233,9,65,31
0.10000000000000142,6233,10,65,27
0.10000000000000142,6233,11,65,30
0.10000000000000142,6233,12,65,40
0.10000000000000853,6233,13,65,10
0.09999999999999432,6233,14,65,7
0.09999999999999432,6233,15,65,8
0.10000000000000853,6234,0,65,12
0.10000000000000853,6234,1,65,11
0.09999999999999432,6234,2,65,18
0.10000000000000853,6234,3,65,6
0.10000000000000853,6234,4,65,15
0.10000000000000853,6234,5,65,7
0.09999999999999432,6234,6,65,7
0.10000000000000853,6234,7,65,8
0.09999999999999432,6234,8,65,9
0.10000000000000853,6234,9,65,13
0.09999999999999432,6234,10,65,8
0.09999999999999432,6234,11,65,17
0.10000000000000853,6234,12,65,16
0.10000000000000853,6234,13,65,22
0.09999999999999432,6234,14,65,16
0.09999999999999432,6234,15,65,37
0.09999999999999432,6235,0,65,52
0.09999999999999432,6235,1,65,28
0.10000000000000853,6235,2,65,19
0.10000000000000853,6235,3,65,17
0.09999999999999432,6235,4,65,12
0.10000000000000853,6235,5,65,20
0.09999999999999432,6235,6,65,43
0.10000000000000853,6235,7,65,39
0.10000000000000853,6235,8,65,28
0.10000000000000853,6235,9,65,27
0.10000000000000853,6235,10,65,36
0.10000000000000853,6235,11,65,35
0.10000000000000853,6235,12,65,17
0.10000000000002274,6235,13,65,17
0.09999999999999432,6235,14,65,16
0.09999999999999432,6235,15,65,16
0.09999999999999964,6236,0,68,97
0.10000000000000142,6236,1,68,107
0.09999999999999964,6236,2,68,78
0.09999999999999964,6236,3,68,82
0.09999999999999964,6236,4,68,71
0.09999999999999964,6236,5,68,110
0.09999999999999964,6236,6,68,106
0.09999999999999964,6236,7,68,122
0.09999999999999964,6236,8,68,50
0.06818181818181834,6236,9,68,74
0.09999999999999964,6236,10,68,96
0.10000000000000142,6236,11,68,88
0.10000000000000142,6236,12,68,91
0.10000000000000142,6236,13,68,81
0.09999999999999787,6236,14,68,58
0.10000000000000142,6236,15,68,47
0.10000000000000142,6237,0,68,85
0.09999999999999787,6237,1,68,109
0.10000000000000142,6237,2,68,124
0.10000000000000142,6237,3,68,90
0.10000000000000142,6237,4,68,88
0.09999999999999787,6237,5,68,97
0.09999999999999787,6237,6,68,58
0.09999999999999787,6237,7,68,88
0.10000000000000142,6237,8,68,127
0.10000000000000142,6237,9,68,89
0.09999999999999787,6237,10,68,89
0.10000000000000142,6237,11,68,98
0.10000000000000142,6237,12,68,94
0.10000000000000142,6237,13,68,121
0.10000000000000142,6237,14,68,93
0.09999999999999787,6237,15,68,53
0.10000000000000142,6238,0,68,87
0.09999999999999787,6238,1,68,19
0.09999999999999787,6238,2,68,54
0.02499999999999858,6238,3,68,103
0.10000000000000142,6238,4,68,70
0.09999999999999787,6238,5,68,111
0.09999999999999787,6238,6,68,17
0.004545454545453964,6238,7,68,58
0.09999999999999787,6238,8,68,106
0.09999999999999787,6238,9,68,89
0.09999999999999787,6238,10,68,127
0.10000000000000142,6238,11,68,78
0.09999999999999787,6238,12,68,101
0.10000000000000142,6238,13,68,74
0.10000000000000142,6238,14,68,91
0.10000000000000142,6238,15,68,127
0.10000000000000142,6239,0,68,73
0.10000000000000142,6239,1,68,116
0.10000000000000142,6239,2,68,86
0.10000000000000142,6239,3,68,114
0.10000000000000142,6239,4,68,127
0.10000000000000142,6239,5,68,94
0.10000000000000142,6239,6,68,127
0.09999999999999787,6239,7,68,95
0.10000000000000142,6239,8,68,89
0.09999999999999787,6239,9,68,114
0.10000000000000142,6239,10,68,4
0.09999999999999432,6239,11,68,92
0.10000000000000142,6239,12,68,127
0.09999999999999432,6239,13,68,125
0.10000000000000142,6239,14,68,74
0.10000000000000142,6239,15,68,98
0.09999999999999432,6240,0,68,96
0.10000000000000142,6240,1,68,64
0.09999999999999432,6240,2,68,127
0.10000000000000142,6240,3,68,73
0.10000000000000142,6240,4,68,127
0.10000000000000142,6240,5,68,121
0.10000000000000142,6240,6,68,90
0.10000000000000142,6240,7,68,115
0.09999999999999432,6240,8,68,103
0.09999999999999432,6240,9,68,94
0.10000000000000142,6240,10,68,60
0.10000000000000142,6240,11,68,99
0.09999999999999432,6240,12,68,91
0.10000000000000142,6240,13,68,122
0.09999999999999432,6240,14,68,30
0.10000000000000142,6240,15,68,115
0.10000000000000142,6241,0,68,86
0.10000000000000142,6241,1,68,126
0.10000000000000142,6241,2,68,127
0.10000000000000142,6241,3,68,82
0.10000000000000142,6241,4,68,88
0.10000000000000142,6241,5,68,64
0.10000000000000142,6241,6,68,127
0.10000000000000142,6241,7,68,121
0.10000000000000142,6241,8,68,127
0.10000000000000142,6241,9,68,90
0.10000000000000142,6241,10,68,96
0.09999999999999432,6241,11,68,125
0.09999999999999432,6241,12,68,111
0.10000000000000142,6241,13,68,68
0.10000000000000142,6241,14,68,106
0.09999999999999432,6241,15,68,127
0.10000000000000142,6242,0,68,91
0.10000000000000142,6242,1,68,121
0.10000000000000142,6242,2,68,114
0.09999999999999432,6242,3,68,118
0.09999999999999432,6242,4,68,127
0.10000000000000142,6242,5,68,118
0.10000000000000142,6242,6,68,80
0.10000000000000142,6242,7,68,101
0.10000000000000142,6242,8,68,100
0.10000000000000142,6242,9,68,84
0.10000000000000142,6242,10,68,91
0.09999999999999432,6242,11,68,99
0.10000000000000142,6242,12,68,127
0.10000000000000142,6242,13,68,108
0.10000000000000142,6242,14,68,93
0.10000000000000142,6242,15,68,127
0.09999999999999432,6243,0,68,110
0.10000000000000142,6243,1,68,121
0.10000000000000142,6243,2,68,122
0.10000000000000142,6243,3,68,86
0.10000000000000142,6243,4,68,102
0.10000000000000142,6243,5,68,106
0.10000000000000142,6243,6,68,119
0.10000000000000142,6243,7,68,83
0.10000000000000142,6243,8,68,81
0.10000000000000142,6243,9,68,98
0.10000000000000142,6243,10,68,126
0.09999999999999432,6243,11,68,89
0.10000000000000142,6243,12,68,88
0.10000000000000142,6243,13,68,111
0.10000000000000142,6243,14,68,69
0.10000000000000142,6243,15,68,115
0.10000000000000142,6244,0,68,86
0.10000000000000142,6244,1,68,124
0.10000000000000142,6244,2,68,78
0.09999999999999432,6244,3,68,30
0.10000000000000142,6244,4,68,117
0.09999999999999432,6244,5,68,85
0.10000000000000142,6244,6,68,102
0.10000000000000142,6244,7,68,108
0.10000000000000142,6244,8,68,120
0.10000000000000142,6244,9,68,84
0.10000000000000142,6244,10,68,108
0.10000000000000142,6244,11,68,73
0.09999999999999432,6244,12,68,93
0.09999999999999432,6244,13,68,54
0.10000000000000142,6244,14,68,87
0.10000000000000142,6244,15,68,100
0.09999999999999432,6245,0,68,76
0.10000000000000853,6245,1,68,102
0.10000000000000853,6245,2,68,78
0.09999999999999432,6245,3,68,88
0.10000000000000853,6245,4,68,56
0.004545454545464622,6245,5,68,101
0.10000000000000853,6245,6,68,100
0.09999999999999432,6245,7,68,66
0.09999999999999432,6245,8,68,92
0.10000000000000853,6245,9,68,92
0.09999999999999432,6245,10,68,81
0.10000000000000853,6245,11,68,101
0.10000000000000853,6245,12,68,85
0.09999999999999432,6245,13,68,80
0.10000000000000853,6245,14,68,90
0.09999999999999432,6245,15,68,83
0.09999999999999432,6246,0,68,95
0.09999999999999432,6246,1,68,127
0.09999999999999432,6246,2,68,90
0.09999999999999432,6246,3,68,79
0.10000000000000853,6246,4,68,30
0.10000000000000853,6246,5,68,80
0.09999999999999432,6246,6,68,113
0.09999999999999432,6246,7,68,111
0.09999999999999432,6246,8,68,111
0.09999999999999432,6246,9,68,108
0.09999999999999432,6246,10,68,96
0.10000000000000853,6246,11,68,122
0.09999999999999432,6246,12,68,68
0.09999999999999432,6246,13,68,83
0.09999999999999432,6246,14,68,77
0.10000000000000853,6246,15,68,122
0.09999999999999432,6247,0,68,101
0.10000000000000853,6247,1,68,118
0.09999999999999432,6247,2,68,85
0.09999999999999432,6247,3,68,89
0.09999999999999432,6247,4,68,94
0.09999999999999432,6247,5,68,76
0.10000000000000853,6247,6,68,109
0.09999999999999432,6247,7,68,79
0.09999999999999432,6247,8,68,94
0.10000000000000853,6247,9,68,127
0.09999999999999432,6247,10,68,127
0.10000000000000853,6247,11,68,83
0.10000000000000853,6247,12,68,32
0.10000000000000853,6247,13,68,99
0.09999999999999432,6247,14,68,127
0.004545454545450411,6247,15,68,77
0.10000000000000853,6248,0,68,79
0.10000000000000853,6248,1,68,102
0.10000000000000853,6248,2,68,87
0.10000000000000853,6248,3,68,81
0.09999999999999432,6248,4,68,118
0.10000000000000853,6248,5,68,103
0.10000000000000853,6248,6,68,127
0.09999999999999432,6248,7,68,92
0.10000000000000853,6248,8,68,89
0.09999999999999432,6248,9,68,101
0.10000000000000853,6248,10,68,122
0.09999999999999432,6248,11,68,76
0.09999999999999432,6248,12,68,103
0.10000000000000853,6248,13,68,126
0.09999999999999432,6248,14,68,81
0.10000000000000853,6248,15,68,80
0.09999999999999432,6249,0,68,82
0.09999999999999432,6249,1,68,113
0.09999999999999432,6249,2,68,29
0.09999999999999432,6249,3,68,78
0.09999999999999432,6249,4,68,94
0.09999999999999432,6249,5,68,81
0.10000000000000853,6249,6,68,100
0.10000000000000853,6249,7,68,84
0.045454545454546746,6249,8,68,109
0.09999999999999432,6249,9,68,65
0.09999999999999432,6249,10,68,71
0.09999999999999432,6249,11,68,110
0.10000000000000853,6249,12,68,99
0.10000000000000853,6249,13,68,99
0.09999999999999432,6249,14,68,81
0.10000000000000853,6249,15,68,82
0.09999999999999432,6250,0,68,118
0.09999999999999432,6250,1,68,98
0.10000000000000853,6250,2,68,80
0.09999999999999432,6250,3,68,67
0.09999999999999432,6250,4,68,89
0.09999999999999432,6250,5,68,72
0.09999999999999432,6250,6,68,121
0.09999999999999432,6250,7,68,90
0.10000000000000853,6250,8,68,104
0.09999999999999432,6250,9,68,127
0.09999999999999432,6250,10,68,96
0.10000000000000853,6250,11,68,86
0.09999999999999432,6250,12,68,96
0.09999999999999432,6250,13,68,99
0.10000000000000853,6250,14,68,98
0.09999999999999432,6250,15,68,98
0.09999999999999432,6251,0,68,89
0.10000000000000853,6251,1,68,116
0.09999999999999432,6251,2,68,79
0.10000000000000853,6251,3,68,90
0.09999999999999432,6251,4,68,98
0.10000000000000853,6251,5,68,51
0.10000000000000853,6251,6,68,100
0.09999999999999432,6251,7,68,111
0.09999999999999432,6251,8,68,66
0.10000000000000853,6251,9,68,92
0.09999999999999432,6251,10,68,101
0.09999999999999432,6251,11,68,117
0.09999999999999432,6251,12,68,116
0.09999999999999432,6251,13,68,92
0.10000000000000853,6251,14,68,87
0.10000000000000853,6251,15,68,86
0.09999999999999432,6252,0,68,105
0.10000000000000853,6252,1,68,101
0.10000000000000853,6252,2,68,82
0.10000000000000853,6252,3,68,92
0.10000000000000853,6252,4,68,106
0.10000000000000853,6252,5,68,127
0.10000000000000853,6252,6,68,90
0.09999999999999432,6252,7,68,101
0.09999999999999432,6252,8,68,117
0.10000000000000853,6252,9,68,83
0.10000000000000853,6252,10,68,102
0.09999999999999432,6252,11,68,119
0.09999999999999432,6252,12,68,26
0.10000000000000853,6252,13,68,127
0.09999999999999432,6252,14,68,70
0.10000000000000853,6252,15,68,94
0.09999999999999432,6253,0,68,95
0.09999999999999432,6253,1,68,107
0.09999999999999432,6253,2,68,88
0.10000000000000853,6253,3,68,111
0.09999999999999432,6253,4,68,67
0.09999999999999432,6253,5,68,109
0.09999999999999432,6253,6,68,83
0.09999999999999432,6253,7,68,97
0.09999999999999432,6253,8,68,127
0.10000000000000853,6253,9,68,105
0.10000000000000853,6253,10,68,98
0.09999999999999432,6253,11,68,101
0.09999999999999432,6253,12,68,127
0.10000000000000853,6253,13,68,102
0.09999999999999432,6253,14,68,92
0.10000000000000853,6253,15,68,103
0.09999999999999432,6254,0,68,127
0.10000000000002274,6254,1,68,106
0.09999999999999432,6254,2,68,104
0.09999999999999432,6254,3,68,103
0.09999999999999432,6254,4,68,121
0.10000000000002274,6254,5,68,110
0.10000000000002274,6254,6,68,124
0.09999999999999432,6254,7,68,126
0.09999999999999432,6254,8,68,106
0.10000000000002274,6254,9,68,117
0.09999999999999432,6254,10,68,127
0.09999999999999432,6254,11,68,95
0.10000000000002274,6254,12,68,127
0.09999999999999432,6254,13,68,127
0.10000000000002274,6254,14,68,127
0.09999999999999432,6254,15,68,107
0.09999999999999432,6255,0,68,113
0.09999999999999432,6255,1,68,118
0.09999999999999432,6255,2,68,122
0.10000000000002274,6255,3,68,118
0.09999999999999432,6255,4,68,107
0.09999999999999432,6255,5,68,116
0.09999999999999432,6255,6,68,108
0.09999999999999432,6255,7,68,118
0.10000000000002274,6255,8,68,124
0.09999999999999432,6255,9,68,127
0.09999999999999432,6255,10,68,119
0.09999999999999432,6255,11,68,114
0.09999999999999432,6255,12,68,113
0.09999999999999432,6255,13,68,126
0.10000000000002274,6255,14,68,96
0.09999999999999432,6255,15,68,119
0.09999999999999432,6256,0,68,100
0.10000000000002274,6256,1,68,127
0.09999999999999432,6256,2,68,111
0.09999999999999432,6256,3,68,127
0.09999999999999432,6256,4,68,107
0.09999999999999432,6256,5,68,104
0.09999999999999432,6256,6,68,117
0.10000000000002274,6256,7,68,96
0.09999999999999432,6256,8,68,108
0.10000000000002274,6256,9,68,84
0.03636363636363171,6256,10,68,127
0.10000000000002274,6256,11,68,116
0.10000000000002274,6256,12,68,78
0.09999999999999432,6256,13,68,121
0.09999999999999432,6256,14,68,111
0.09999999999999432,6256,15,68,127
0.10000000000002274,6257,0,68,98
0.09999999999999432,6257,1,68,105
0.09999999999999432,6257,2,68,127
0.09999999999999432,6257,3,68,127
0.09999999999999432,6257,4,68,119
0.10000000000002274,6257,5,68,121
0.09999999999999432,6257,6,68,120
0.09999999999999432,6257,7,68,100
0.09999999999999432,6257,8,68,120
0.09999999999999432,6257,9,68,119
0.09999999999999432,6257,10,68,105
0.09999999999999432,6257,11,68,86
0.09999999999999432,6257,12,68,127
0.09999999999999432,6257,13,68,112
0.09999999999999432,6257,14,68,114
0.09999999999999432,6257,15,68,103
0.09999999999999432,6258,0,68,127
0.10000000000002274,6258,1,68,67
0.06818181818184144,6258,2,68,115
0.09999999999999432,6258,3,68,127
0.10000000000002274,6258,4,68,120
0.09999999999999432,6258,5,68,114
0.10000000000002274,6258,6,68,59
0.10000000000002274,6258,7,68,97
0.09999999999999432,6258,8,68,126
0.10000000000002274,6258,9,68,112
0.09999999999999432,6258,10,68,115
0.09999999999999432,6258,11,68,127
0.09999999999999432,6258,12,68,97
0.09999999999999432,6258,13,68,107
0.09999999999999432,6258,14,68,89
0.09999999999999432,6258,15,68,67
0.09999999999999432,6259,0,68,126
0.09999999999999432,6259,1,68,102
0.10000000000002274,6259,2,68,113
0.09999999999999432,6259,3,68,94
0.09999999999999432,6259,4,68,119
0.09999999999999432,6259,5,68,120
0.09999999999999432,6259,6,68,100
0.10000000000002274,6259,7,68,117
0.09999999999999432,6259,8,68,107
0.09999999999999432,6259,9,68,54
0.09999999999999432,6259,10,68,106
0.09999999999999432,6259,11,68,93
0.09999999999999432,6259,12,68,110
0.09999999999999432,6259,13,68,87
0.09999999999999432,6259,14,68,97
0.09999999999999432,6259,15,68,107
0.09999999999999432,6260,0,68,106
0.10000000000002274,6260,1,68,95
0.09999999999999432,6260,2,68,114
0.09999999999999432,6260,3,68,33
0.09999999999999432,6260,4,68,105
0.09999999999999432,6260,5,68,88
0.09999999999999432,6260,6,68,89
0.10000000000002274,6260,7,68,114
0.09999999999999432,6260,8,68,86
0.09999999999999432,6260,9,68,71
0.09999999999999432,6260,10,68,127
0.09999999999999432,6260,11,68,95
0.09999999999999432,6260,12,68,85
0.09999999999999432,6260,13,68,107
0.09999999999999432,6260,14,68,110
0.09999999999999432,6260,15,68,113
0.09999999999999432,6261,0,68,120
0.09999999999999432,6261,1,68,92
0.09999999999999432,6261,2,68,127
0.09999999999999432,6261,3,68,75
0.09999999999999432,6261,4,68,105
0.09999999999999432,6261,5,68,85
0.09999999999999432,6261,6,68,82
0.09999999999999432,6261,7,68,111
0.09999999999999432,6261,8,68,83
0.10000000000002274,6261,9,68,63
0.09999999999999432,6261,10,68,127
0.09999999999999432,6261,11,68,123
0.09999999999999432,6261,12,68,104
0.09999999999999432,6261,13,68,104
0.10000000000002274,6261,14,68,93
0.09999999999999432,6261,15,68,91
0.09999999999999432,6262,0,68,65
0.09999999999999432,6262,1,68,127
0.09999999999999432,6262,2,68,91
0.09999999999999432,6262,3,68,55
0.09999999999999432,6262,4,68,126
0.09999999999999432,6262,5,68,104
0.09999999999999432,6262,6,68,109
0.09999999999999432,6262,7,68,66
0.03636363636363171,6262,8,68,113
0.09999999999999432,6262,9,68,92
0.10000000000002274,6262,10,68,43
0.09999999999999432,6262,11,68,104
0.09999999999999432,6262,12,68,89
0.09999999999999432,6262,13,68,59
0.09999999999999432,6262,14,68,99
0.09999999999999432,6262,15,68,79
0.10000000000002274,6263,0,68,90
0.09999999999999432,6263,1,68,83
0.09999999999999432,6263,2,68,14
0.09999999999999432,6263,3,68,88
0.09999999999999432,6263,4,68,85
0.09999999999999432,6263,5,68,66
0.10000000000002274,6263,6,68,78
0.09999999999999432,6263,7,68,109
0.09999999999999432,6263,8,68,100
0.09999999999999432,6263,9,68,105
0.09999999999999432,6263,10,68,123
0.10000000000002274,6263,11,68,122
0.09999999999999432,6263,12,68,105
0.09999999999999432,6263,13,68,24
0.09999999999999432,6263,14,68,93
0.09999999999999432,6263,15,68,102
0.09999999999999432,6264,0,68,101
0.10000000000002274,6264,1,68,96
0.09999999999999432,6264,2,68,112
0.09999999999999432,6264,3,68,112
0.09999999999999432,6264,4,68,87
0.09999999999999432,6264,5,68,109
0.09999999999999432,6264,6,68,84
0.09999999999999432,6264,7,68,107
0.09999999999999432,6264,8,68,99
0.09999999999999432,6264,9,68,127
0.09999999999999432,6264,10,68,101
0.09999999999999432,6264,11,68,102
0.09999999999999432,6264,12,68,106
0.09999999999999432,6264,13,68,82
0.09999999999999432,6264,14,68,102
0.09999999999999432,6264,15,68,104
0.09999999999999432,6265,0,68,87
0.10000000000002274,6265,1,68,111
0.09999999999999432,6265,2,68,10
0.04545454545456096,6265,3,68,66
0.013636363636379656,6265,4,68,97
0.09999999999999432,6265,5,68,104
0.09999999999999432,6265,6,68,123
0.09999999999999432,6265,7,68,96
0.10000000000002274,6265,8,68,107
0.09999999999999432,6265,9,68,96
0.09999999999999432,6265,10,68,120
0.09999999999999432,6265,11,68,127
0.09999999999999432,6265,12,68,82
0.09999999999999432,6265,13,68,92
0.09999999999999432,6265,14,68,98
0.09999999999999432,6265,15,68,69
0.09999999999999432,6266,0,68,85
0.10000000000002274,6266,1,68,105
0.09999999999999432,6266,2,68,95
0.09999999999999432,6266,3,68,107
0.09999999999999432,6266,4,68,92
0.09999999999999432,6266,5,68,88
0.09999999999999432,6266,6,68,113
0.09999999999999432,6266,7,68,106
0.09999999999999432,6266,8,68,92
0.09999999999999432,6266,9,68,98
0.09999999999999432,6266,10,68,102
0.09999999999999432,6266,11,68,96
0.09999999999999432,6266,12,68,101
0.09999999999999432,6266,13,63,1
0.10000000000000142,6266,14,63,11
0.10000000000000142,6266,15,63,17
0.09999999999999432,6267,0,63,41
0.10000000000000142,6267,1,63,4
0.10000000000000142,6267,2,63,4
0.10000000000000142,6267,3,63,6
0.10000000000000142,6267,4,63,21
0.09999999999999432,6267,5,63,9
0.10000000000000142,6267,6,63,1
0.10000000000000142,6267,7,63,14
0.02499999999999858,6267,8,63,18
0.10000000000000142,6267,9,63,14
0.10000000000000142,6267,10,63,5
0.10000000000000142,6267,11,63,13
0.06818181818182012,6267,12,63,24
0.10000000000000142,6267,13,63,1
0.09999999999999432,6267,14,63,15
0.10000000000000142,6267,15,63,29
0.10000000000000142,6268,0,63,21
0.10000000000000142,6268,1,63,1
0.10000000000000142,6268,2,63,20
0.10000000000000142,6268,3,63,18
0.10000000000000142,6268,4,63,18
0.09999999999999432,6268,5,63,16
0.10000000000000142,6268,6,63,15
0.10000000000000142,6268,7,63,24
0.09999999999999432,6268,8,63,4
0.10000000000000142,6268,9,63,37
0.10000000000000142,6268,10,63,16
0.10000000000000142,6268,11,63,14
0.056818181818186986,6268,12,63,19
0.09999999999999432,6268,13,63,11
0.09999999999999432,6268,14,63,2
0.09999999999999432,6268,15,63,16
0.02499999999999858,6269,0,63,28
0.10000000000000142,6269,1,63,31
0.10000000000000142,6269,2,63,31
0.10000000000000142,6269,3,63,15
0.02499999999999858,6269,4,63,7
0.09999999999999432,6269,5,63,1
0.09999999999999432,6269,6,63,8
0.09999999999999432,6269,7,63,26
0.09999999999999432,6269,8,63,45
0.09999999999999432,6269,9,63,38
0.09999999999999432,6269,10,63,20
0.10000000000002274,6269,11,63,35
0.09999999999999432,6269,12,63,18
0.09999999999999432,6269,13,63,30
0.09999999999999432,6269,14,63,26
0.03409090909090651,6269,15,63,26
0.0022727272727252057,6270,0,63,35
0.09999999999999432,6270,1,63,18
0.09999999999999432,6270,2,63,35
0.09999999999999432,6270,3,63,24
0.09999999999999432,6270,4,63,27
0.09999999999999432,6270,5,63,31
0.10000000000002274,6270,6,63,10
0.056818181818186986,6270,7,63,31
0.09999999999999432,6270,8,63,35
0.09999999999999432,6270,9,63,28
0.09999999999999432,6270,10,63,19
0.04772727272725774,6270,11,63,40
0.004545454545450411,6270,12,63,17
0.10000000000002274,6270,13,63,30
0.09999999999999432,6270,14,63,27
0.09999999999999432,6270,15,63,5
0.09999999999999432,6271,0,63,27
0.04545454545456096,6271,1,63,59
0.09999999999999432,6271,2,54,74
0.10000000000000142,6271,3,54,110
0.10000000000000142,6271,4,54,40
0.10000000000000142,6271,5,54,120
0.10000000000000142,6271,6,54,49
0.10000000000000142,6271,7,54,79
0.10000000000000142,6271,8,54,126
0.10000000000000142,6271,9,54,127
0.10000000000000142,6271,10,54,61
0.10000000000000142,6271,11,54,87
0.10000000000000142,6271,12,54,45
0.10000000000000142,6271,13,54,59
0.10000000000000142,6271,14,54,37
0.09999999999999432,6271,15,54,47
0.09999999999999432,6272,0,54,57
0.10000000000000853,6272,1,54,44
0.09999999999999432,6272,2,54,66
0.10000000000000853,6272,3,54,56
0.10000000000000853,6272,4,54,38
0.09999999999999432,6272,5,54,46
0.09999999999999432,6272,6,54,44
0.09999999999999432,6272,7,54,53
0.09999999999999432,6272,8,54,61
0.10000000000000853,6272,9,54,59
0.10000000000000853,6272,10,54,86
0.09999999999999432,6272,11,54,106
0.09999999999999432,6272,12,54,80
0.10000000000000853,6272,13,54,76
0.10000000000000853,6272,14,54,62
0.09999999999999432,6272,15,54,71
0.09999999999999432,6273,0,54,55
0.09999999999999432,6273,1,54,84
0.10000000000000853,6273,2,54,76
0.10000000000000853,6273,3,54,79
0.09999999999999432,6273,4,54,58
0.09999999999999432,6273,5,54,89
0.10000000000000853,6273,6,54,55
0.09999999999999432,6273,7,54,121
0.09999999999999432,6273,8,54,84
0.09999999999999432,6273,9,54,74
0.09999999999999432,6273,10,54,75
0.10000000000000853,6273,11,54,62
0.10000000000000853,6273,12,54,56
0.09999999999999432,6273,13,54,67
0.09999999999999432,6273,14,54,58
0.09999999999999432,6273,15,54,62
0.09999999999999432,6274,0,54,73
0.09999999999999432,6274,1,54,42
0.10000000000002274,6274,2,54,71
0.10000000000002274,6274,3,54,63
0.10000000000002274,6274,4,54,62
0.09999999999999432,6274,5,54,87
0.09999999999999432,6274,6,54,63
0.09999999999999432,6274,7,54,66
0.09999999999999432,6274,8,54,72
0.09999999999999432,6274,9,54,35
0.09999999999999432,6274,10,54,56
0.09999999999999432,6274,11,54,64
0.09999999999999432,6274,12,54,74
0.09999999999999432,6274,13,54,70
0.09999999999999432,6274,14,54,52
0.09999999999999432,6274,15,54,44
0.10000000000002274,6275,0,54,54
0.09999999999999432,6275,1,54,56
0.09999999999999432,6275,2,54,69
0.09999999999999432,6275,3,54,47
0.09999999999999432,6275,4,54,37
0.09999999999999432,6275,5,54,44
0.09999999999999432,6275,6,54,50
0.09999999999999432,6275,7,54,49
0.09999999999999432,6275,8,54,36
0.09999999999999432,6275,9,54,46
0.09999999999999432,6275,10,54,57
0.10000000000002274,6275,11,54,41
0.10000000000002274,6275,12,54,65
0.10000000000002274,6275,13,54,59
0.10000000000002274,6275,14,54,47
0.09999999999999432,6275,15,54,51
0.09999999999999432,6276,0,54,50
0.09999999999999432,6276,1,54,38
0.09999999999999432,6276,2,54,67
0.09999999999999432,6276,3,54,57
0.09999999999999432,6276,4,54,76
0.09999999999999432,6276,5,54,47
0.09999999999999432,6276,6,54,53
0.09999999999999432,6276,7,54,40
0.09999999999999432,6276,8,54,87
0.09999999999999432,6276,9,54,72
0.10000000000002274,6276,10,54,34
0.09999999999999432,6276,11,54,87
0.09999999999999432,6276,12,54,50
0.09999999999999432,6276,13,54,33
0.09999999999999432,6276,14,54,36
0.09999999999999432,6276,15,54,48
0.09999999999999432,6277,0,54,56
0.09999999999999432,6277,1,54,74
0.09999999999999432,6277,2,54,42
0.09999999999999432,6277,3,54,87
0.09999999999999432,6277,4,54,66
0.09999999999999432,6277,5,54,39
0.09999999999999432,6277,6,54,51
0.09999999999999432,6277,7,54,60
0.09999999999999432,6277,8,54,75
0.09999999999999432,6277,9,54,44
0.10000000000002274,6277,10,54,82
0.10000000000002274,6277,11,54,46
0.10000000000002274,6277,12,54,32
0.10000000000002274,6277,13,54,46
0.09999999999999432,6277,14,54,49
0.09999999999999432,6277,15,54,56
0.09999999999999432,6278,0,54,79
0.09999999999999432,6278,1,54,52
0.09999999999999432,6278,2,54,55
0.09999999999999432,6278,3,54,84
0.10000000000002274,6278,4,54,29
0.09999999999999432,6278,5,54,95
0.09999999999999432,6278,6,54,108
0.09999999999999432,6278,7,54,84
0.10000000000002274,6278,8,54,79
0.09999999999999432,6278,9,54,95
0.09999999999999432,6278,10,54,91
0.10000000000000142,6278,11,69,127
0.10000000000000142,6278,12,69,127
0.10000000000000142,6278,13,69,3
0.10000000000000142,6278,14,69,4
0.10000000000000142,6278,15,69,127
0.10000000000000142,6279,0,69,127
0.09999999999999432,6279,1,69,2
0.10000000000000142,6279,2,69,127
0.10000000000000142,6279,3,69,127
0.10000000000000142,6279,4,69,3
0.10000000000000142,6279,5,69,4
0.09999999999999432,6279,6,69,127
0.10000000000000142,6279,7,69,126
0.09999999999999432,6279,8,69,4
0.10000000000000142,6279,9,69,127
0.10000000000000142,6279,10,69,127
0.09999999999999432,6279,11,69,3
0.10000000000000142,6279,12,69,4
0.10000000000000142,6279,13,69,127
0.10000000000000142,6279,14,69,101
0.10000000000000142,6279,15,69,2
0.10000000000000142,6280,0,69,127
0.10000000000000142,6280,1,69,127
0.10000000000000142,6280,2,69,2
0.10000000000000142,6280,3,69,5
0.10000000000000142,6280,4,69,127
0.09999999999999432,6280,5,69,124
0.10000000000000142,6280,6,69,2
0.09999999999999432,6280,7,69,127
0.10000000000000142,6280,8,69,127
0.10000000000000142,6280,9,69,4
0.10000000000000142,6280,10,69,127
0.09999999999999432,6280,11,69,127
0.10000000000000142,6280,12,69,2
0.09999999999999432,6280,13,69,127
0.10000000000000142,6280,14,69,2
0.09999999999999432,6280,15,69,88
0.09999999999999432,6281,0,69,2
0.10000000000000142,6281,1,69,127
0.10000000000000142,6281,2,69,100
0.10000000000000142,6281,3,69,3
0.09999999999999432,6281,4,69,127
0.09999999999999432,6281,5,69,127
0.09999999999999432,6281,6,69,127
0.09999999999999432,6281,7,69,54
0.09999999999999432,6281,8,69,127
0.09999999999999432,6281,9,69,36
0.09999999999999432,6281,10,69,102
0.09999999999999432,6281,11,69,9
0.10000000000000853,6281,12,69,127
0.09999999999999432,6281,13,69,127
0.09999999999999432,6281,14,69,3
0.10000000000000853,6281,15,69,102
0.10000000000000853,6282,0,69,3
0.10000000000000853,6282,1,69,127
0.09999999999999432,6282,2,69,3
0.10000000000000853,6282,3,69,119
0.10000000000000853,6282,4,69,3
0.09999999999999432,6282,5,69,127
0.10000000000000853,6282,6,69,127
0.10000000000000853,6282,7,69,3
0.09999999999999432,6282,8,69,113
0.09999999999999432,6282,9,69,4
0.09999999999999432,6282,10,69,127
0.09999999999999432,6282,11,69,9
0.10000000000000853,6282,12,69,127
0.10000000000000853,6282,13,69,3
0.10000000000000853,6282,14,69,127
0.10000000000000853,6282,15,69,3
0.10000000000000853,6283,0,69,127
0.09999999999999432,6283,1,69,4
0.10000000000000853,6283,2,69,2
0.09999999999999432,6283,3,69,127
0.09999999999999432,6283,4,69,127
0.09999999999999432,6283,5,69,2
0.09999999999999432,6283,6,69,110
0.09999999999999432,6283,7,69,127
0.09999999999999432,6283,8,69,3
0.09999999999999432,6283,9,69,114
0.09999999999999432,6283,10,69,3
0.09999999999999432,6283,11,69,3
0.09999999999999432,6283,12,69,127
0.10000000000000853,6283,13,69,127
0.10000000000000853,6283,14,69,3
0.10000000000000853,6283,15,69,127
0.10000000000000853,6284,0,69,3
0.09999999999999432,6284,1,69,116
0.10000000000000853,6284,2,69,3
0.09999999999999432,6284,3,69,3
0.09999999999999432,6284,4,69,127
0.09999999999999432,6284,5,69,127
0.10000000000000853,6284,6,69,1
0.10000000000000853,6284,7,69,127
0.09999999999999432,6284,8,69,127
0.09999999999999432,6284,9,69,127
0.09999999999999432,6284,10,69,1
0.09999999999999432,6284,11,69,3
0.10000000000000853,6284,12,69,127
0.09999999999999432,6284,13,69,127
0.09999999999999432,6284,14,69,1
0.10000000000000853,6284,15,69,127
0.09999999999999432,6285,0,69,3
0.10000000000000853,6285,1,69,102
0.10000000000000853,6285,2,69,1
0.10000000000000853,6285,3,69,2
0.09999999999999432,6285,4,69,127
0.09999999999999432,6285,5,69,127
0.09999999999999432,6285,6,69,1
0.10000000000000853,6285,7,69,103
0.09999999999999432,6285,8,69,127
0.09999999999999432,6285,9,69,2
0.09999999999999432,6285,10,69,127
0.09999999999999432,6285,11,69,1
0.10000000000000853,6285,12,69,127
0.09999999999999432,6285,13,69,3
0.10000000000000853,6285,14,69,116
0.09999999999999432,6285,15,69,1
0.10000000000000853,6286,0,69,127
0.09999999999999432,6286,1,69,3
0.10000000000000853,6286,2,69,126
0.09999999999999432,6286,3,69,47
0.10000000000000853,6286,4,69,13
0.09999999999999432,6286,5,69,2
0.09999999999999432,6286,6,69,127
0.10000000000000853,6286,7,69,2
0.09999999999999432,6286,8,69,127
0.09999999999999432,6286,9,69,1
0.10000000000000853,6286,10,69,127
0.09999999999999432,6286,11,69,127
0.09999999999999432,6286,12,69,127
0.09999999999999432,6286,13,69,121
0.09999999999999432,6286,14,69,1
0.10000000000000853,6286,15,69,1
0.10000000000000853,6287,0,69,127
0.09999999999999432,6287,1,69,3
0.10000000000000853,6287,2,69,120
0.10000000000000853,6287,3,69,1
0.09999999999999432,6287,4,69,127
0.10000000000000853,6287,5,69,127
0.09999999999999432,6287,6,69,127
0.10000000000000853,6287,7,69,127
0.10000000000000853,6287,8,69,1
0.09999999999999432,6287,9,69,1
0.09999999999999432,6287,10,69,127
0.10000000000000853,6287,11,69,3
0.09999999999999432,6287,12,69,1
0.09999999999999432,6287,13,69,127
0.10000000000000853,6287,14,69,127
0.09999999999999432,6287,15,69,127
0.09999999999999432,6288,0,69,127
0.09999999999999432,6288,1,69,127
0.09999999999999432,6288,2,69,1
0.09999999999999432,6288,3,69,127
0.09999999999999432,6288,4,69,1
0.10000000000000853,6288,5,69,1
0.10000000000000853,6288,6,69,127
0.09999999999999432,6288,7,69,1
0.09999999999999432,6288,8,69,127
0.09999999999999432,6288,9,69,127
0.09999999999999432,6288,10,69,90
0.10000000000000853,6288,11,69,127
0.09999999999999432,6288,12,69,127
0.10000000000000853,6288,13,69,1
0.09999999999999432,6288,14,69,127
0.10000000000000853,6288,15,69,2
0.09999999999999432,6289,0,69,1
0.09999999999999432,6289,1,69,127
0.10000000000000853,6289,2,69,1
0.10000000000000853,6289,3,69,127
0.09999999999999432,6289,4,69,127
0.09999999999999432,6289,5,69,127
0.09999999999999432,6289,6,69,127
0.09999999999999432,6289,7,69,3
0.10000000000000853,6289,8,69,3
0.09999999999999432,6289,9,69,127
0.09999999999999432,6289,10,69,4
0.09999999999999432,6289,11,69,2
0.09999999999999432,6289,12,69,127
0.09999999999999432,6289,13,69,2
0.09999999999999432,6289,14,69,127
0.09999999999999432,6289,15,69,127
0.09999999999999432,6290,0,69,4
0.10000000000000853,6290,1,69,127
0.09999999999999432,6290,2,69,127
0.10000000000000853,6290,3,69,2
0.09999999999999432,6290,4,69,3
0.09999999999999432,6290,5,69,127
0.10000000000000853,6290,6,69,5
0.09999999999999432,6290,7,69,2
0.09999999999999432,6290,8,69,127
0.09999999999999432,6290,9,69,2
0.10000000000000853,6290,10,69,127
0.09999999999999432,6290,11,69,127
0.10000000000000853,6290,12,69,16
0.09999999999999432,6290,13,69,127
0.10000000000000853,6290,14,69,127
0.09999999999999432,6290,15,69,2
0.09999999999999432,6291,0,69,3
0.10000000000000853,6291,1,69,127
0.09999999999999432,6291,2,69,4
0.09999999999999432,6291,3,69,2
0.09999999999999432,6291,4,69,127
0.09999999999999432,6291,5,69,2
0.09999999999999432,6291,6,69,127
0.09999999999999432,6291,7,69,127
0.09999999999999432,6291,8,69,39
0.09999999999999432,6291,9,69,127
0.10000000000002274,6291,10,69,127
0.09999999999999432,6291,11,69,2
0.09999999999999432,6291,12,69,3
0.10000000000002274,6291,13,69,127
0.09999999999999432,6291,14,69,5
0.10000000000002274,6291,15,69,2
0.09999999999999432,6292,0,69,127
0.10000000000002274,6292,1,69,2
0.09999999999999432,6292,2,69,127
0.09999999999999432,6292,3,69,127
0.09999999999999432,6292,4,69,4
0.09999999999999432,6292,5,69,127
0.09999999999999432,6292,6,69,127
0.09999999999999432,6292,7,69,2
0.09999999999999432,6292,8,69,3
0.09999999999999432,6292,9,69,127
0.09999999999999432,6292,10,69,7
0.09999999999999432,6292,11,69,2
0.09999999999999432,6292,12,69,127
0.09999999999999432,6292,13,69,2
0.10000000000002274,6292,14,69,127
0.09999999999999432,6292,15,69,127
0.09999999999999432,6293,0,69,4
0.09999999999999432,6293,1,69,127
0.09999999999999432,6293,2,69,127
0.09999999999999432,6293,3,69,2
0.09999999999999432,6293,4,69,3
0.09999999999999432,6293,5,69,127
0.09999999999999432,6293,6,69,15
0.09999999999999432,6293,7,69,127
0.09999999999999432,6293,8,69,127
0.09999999999999432,6293,9,69,127
0.09999999999999432,6293,10,69,74
0.09999999999999432,6293,11,69,65
0.10000000000002274,6293,12,69,62
0.09999999999999432,6293,13,69,127
0.09999999999999432,6293,14,69,127
0.10000000000002274,6293,15,69,127
0.10000000000002274,6294,0,69,65
0.09999999999999432,6294,1,69,127
0.10000000000002274,6294,2,69,45
0.09999999999999432,6294,3,69,127
0.09999999999999432,6294,4,69,127
0.09999999999999432,6294,5,69,2
0.09999999999999432,6294,6,69,58
0.09999999999999432,6294,7,69,127
0.09999999999999432,6294,8,69,15
0.09999999999999432,6294,9,69,2
0.10000000000002274,6294,10,69,127
0.09999999999999432,6294,11,69,127
0.09999999999999432,6294,12,69,70
0.10000000000002274,6294,13,69,127
0.09999999999999432,6294,14,69,64
0.10000000000002274,6294,15,69,127
0.09999999999999432,6295,0,69,127
0.09999999999999432,6295,1,69,2
0.09999999999999432,6295,2,69,79
0.09999999999999432,6295,3,69,127
0.09999999999999432,6295,4,69,5
0.10000000000002274,6295,5,69,2
0.09999999999999432,6295,6,69,127
0.09999999999999432,6295,7,69,127
0.09999999999999432,6295,8,69,84
0.09999999999999432,6295,9,69,127
0.09999999999999432,6295,10,69,89
0.09999999999999432,6295,11,69,127
0.10000000000002274,6295,12,69,127
0.09999999999999432,6295,13,69,2
0.09999999999999432,6295,14,69,2
0.10000000000002274,6295,15,69,54
0.09999999999999432,6296,0,69,127
0.09999999999999432,6296,1,69,10
0.09999999999999432,6296,2,69,3
0.10000000000002274,6296,3,69,1
0.09999999999999432,6296,4,69,127
0.09999999999999432,6296,5,69,1
0.10000000000002274,6296,6,69,127
0.09999999999999432,6296,7,69,90
0.10000000000002274,6296,8,69,127
0.09999999999999432,6296,9,69,79
0.09999999999999432,6296,10,69,3
0.09999999999999432,6296,11,69,61
0.09999999999999432,6296,12,69,127
0.09999999999999432,6296,13,69,127
0.09999999999999432,6296,14,69,127
0.09999999999999432,6296,15,69,127
0.09999999999999432,6297,0,69,127
0.09999999999999432,6297,1,69,9
0.09999999999999432,6297,2,69,3
0.09999999999999432,6297,3,69,1
0.09999999999999432,6297,4,69,127
0.09999999999999432,6297,5,69,2
0.09999999999999432,6297,6,69,127
0.10000000000002274,6297,7,69,60
0.09999999999999432,6297,8,69,127
0.10000000000002274,6297,9,69,49
0.09999999999999432,6297,10,69,127
0.09999999999999432,6297,11,69,8
0.09999999999999432,6297,12,69,127
0.10000000000002274,6297,13,69,2
0.09999999999999432,6297,14,69,2
0.09999999999999432,6297,15,69,48
0.09999999999999432,6298,0,69,127
0.10000000000002274,6298,1,69,8
0.09999999999999432,6298,2,69,3
0.10000000000002274,6298,3,69,1
0.10000000000002274,6298,4,69,127
0.09999999999999432,6298,5,69,2
0.09999999999999432,6298,6,69,127
0.09999999999999432,6298,7,69,106
0.09999999999999432,6298,8,69,127
0.09999999999999432,6298,9,69,79
0.09999999999999432,6298,10,69,127
0.09999999999999432,6298,11,69,7
0.09999999999999432,6298,12,69,127
0.09999999999999432,6298,13,69,2
0.09999999999999432,6298,14,69,2
0.09999999999999432,6298,15,69,51
0.10000000000002274,6299,0,69,127
0.10000000000002274,6299,1,69,10
0.10000000000002274,6299,2,69,3
0.09999999999999432,6299,3,69,1
0.09999999999999432,6299,4,69,127
0.10000000000002274,6299,5,69,2
0.09999999999999432,6299,6,69,127
0.09999999999999432,6299,7,69,104
0.09999999999999432,6299,8,69,127
0.09999999999999432,6299,9,69,110
0.09999999999999432,6299,10,69,127
0.09999999999999432,6299,11,69,5
0.10000000000002274,6299,12,69,127
0.09999999999999432,6299,13,69,2
0.09999999999999432,6299,14,69,38
0.09999999999999432,6299,15,69,127
0.09999999999999432,6300,0,69,127
0.09999999999999432,6300,1,69,4
0.09999999999999432,6300,2,69,2
0.10000000000002274,6300,3,69,127
0.10000000000002274,6300,4,69,127
0.09999999999999432,6300,5,69,33
0.09999999999999432,6300,6,69,67
0.09999999999999432,6300,7,69,127
0.10000000000002274,6300,8,69,127
0.09999999999999432,6300,9,69,38
0.10000000000002274,6300,10,69,53
0.09999999999999432,6300,11,69,42
0.09999999999999432,6300,12,69,127
0.09999999999999432,6300,13,69,127
0.09999999999999432,6300,14,69,127
0.09999999999999432,6300,15,69,127
0.09999999999999432,6301,0,69,127
0.09999999999999432,6301,1,69,127
0.10000000000002274,6301,2,69,127
0.10000000000002274,6301,3,69,127
0.09999999999999432,6301,4,69,127
0.09999999999999432,6301,5,69,127
0.09999999999999432,6301,6,69,127
0.09999999999999432,6301,7,69,127
0.09999999999999432,6301,8,69,127
0.09999999999999432,6301,9,69,127
0.09999999999999432,6301,10,69,127
0.09999999999999432,6301,11,69,127
0.10000000000000142,6301,12,60,7
0.10000000000000142,6301,13,60,16
0.09999999999999432,6301,14,60,6
0.09999999999999432,6301,15,60,14
0.09999999999999432,6302,0,60,7
0.10000000000000142,6302,1,60,15
0.10000000000000142,6302,2,60,7
0.10000000000000142,6302,3,60,12
0.10000000000000142,6302,4,60,12
0.10000000000000142,6302,5,60,13
0.10000000000000142,6302,6,60,11
0.10000000000000142,6302,7,60,7
0.10000000000000142,6302,8,60,15
0.10000000000000142,6302,9,60,11
0.10000000000000142,6302,10,60,8
0.10000000000000142,6302,11,60,6
0.09999999999999432,6302,12,60,8
0.10000000000000142,6302,13,60,9
0.09999999999999432,6302,14,60,7
0.10000000000000142,6302,15,60,9
0.10000000000000142,6303,0,60,12
0.09999999999999432,6303,1,60,1
0.09999999999999432,6303,2,60,8
0.09999999999999432,6303,3,60,2
0.09999999999999432,6303,4,60,3
0.09999999999999432,6303,5,60,5
0.09999999999999432,6303,6,60,2
0.06818181818181301,6303,7,60,2
0.09999999999999432,6303,8,60,4
0.10000000000002274,6303,9,60,6
0.09999999999999432,6303,10,60,4
0.09999999999999432,6303,11,60,10
0.10000000000002274,6303,12,60,4
0.09999999999999432,6303,13,60,4
0.09999999999999432,6303,14,60,10
0.09999999999999432,6303,15,60,3
0.09999999999999432,6304,0,60,13
0.09999999999999432,6304,1,60,3
0.06818181818181301,6304,2,60,3
0.09999999999999432,6304,3,60,6
0.10000000000002274,6304,4,60,3
0.09999999999999432,6304,5,60,7
0.10000000000002274,6304,6,60,11
0.10000000000002274,6304,7,60,4
0.09999999999999432,6304,8,60,19
0.09999999999999432,6304,9,60,6
0.09999999999999432,6304,10,60,4
0.09999999999999432,6304,11,60,4
0.09999999999999432,6304,12,60,10
0.10000000000002274,6304,13,60,3
0.09999999999999432,6304,14,60,9
0.06818181818181301,6304,15,60,10
0.09999999999999432,6305,0,60,3
0.10000000000002274,6305,1,60,18
0.09999999999999432,6305,2,60,4
0.09999999999999432,6305,3,60,5
0.10000000000002274,6305,4,60,9
0.09999999999999432,6305,5,60,4
0.10000000000002274,6305,6,60,21
0.10000000000002274,6305,7,60,5
0.09999999999999432,6305,8,60,1
0.09999999999999432,6305,9,60,3
0.056818181818186986,6305,10,60,3
0.09999999999999432,6305,11,60,9
0.09999999999999432,6305,12,60,4
0.10000000000002274,6305,13,60,12
0.09999999999999432,6305,14,60,3
0.09999999999999432,6305,15,60,5
0.06590909090908781,6306,0,60,6
0.09999999999999432,6306,1,60,3
0.10000000000002274,6306,2,60,2
0.09999999999999432,6306,3,60,8
0.09999999999999432,6306,4,60,2
0.09999999999999432,6306,5,60,7
0.09999999999999432,6306,6,60,6
0.06818181818181301,6306,7,60,6
0.09999999999999998,6306,8,70,64
0.10000000000000009,6306,9,70,39
0.10000000000000009,6306,10,70,29
0.09999999999999964,6306,11,70,109
0.09999999999999964,6306,12,70,57
0.09999999999999964,6306,13,70,34
0.09999999999999964,6306,14,70,27
0.09999999999999964,6306,15,70,63
0.10000000000000053,6307,0,70,50
0.10000000000000142,6307,1,70,71
0.09999999999999964,6307,2,70,83
0.09999999999999964,6307,3,70,50
0.09999999999999964,6307,4,70,97
0.09999999999999964,6307,5,70,53
0.09999999999999964,6307,6,70,59
0.09999999999999964,6307,7,70,58
0.09999999999999964,6307,8,70,57
0.10000000000000142,6307,9,70,45
0.10000000000000142,6307,10,70,65
0.09999999999999787,6307,11,70,59
0.09999999999999787,6307,12,70,48
0.09999999999999787,6307,13,70,46
0.09999999999999787,6307,14,70,49
0.09999999999999787,6307,15,70,52
0.10000000000000142,6308,0,70,46
0.09999999999999787,6308,1,70,45
0.09999999999999787,6308,2,70,50
0.09999999999999787,6308,3,70,52
0.09999999999999787,6308,4,70,39
0.09999999999999787,6308,5,70,43
0.10000000000000142,6308,6,70,53
0.10000000000000142,6308,7,70,78
0.10000000000000142,6308,8,70,52
0.10000000000000142,6308,9,70,57
0.10000000000000142,6308,10,70,48
0.10000000000000142,6308,11,70,52
0.10000000000000142,6308,12,70,76
0.09999999999999432,6308,13,70,82
0.09999999999999432,6308,14,70,53
0.10000000000000142,6308,15,70,51
0.09999999999999432,6309,0,70,68
0.10000000000000142,6309,1,70,97
0.10000000000000142,6309,2,70,92
0.09999999999999432,6309,3,70,54
0.10000000000000142,6309,4,70,42
0.09999999999999432,6309,5,70,81
0.10000000000000142,6309,6,70,34
0.10000000000000142,6309,7,70,30
0.10000000000000142,6309,8,70,54
0.10000000000000142,6309,9,70,56
0.10000000000000142,6309,10,70,47
0.10000000000000142,6309,11,70,52
0.10000000000000142,6309,12,70,44
0.10000000000000142,6309,13,70,56
0.10000000000000142,6309,14,70,44
0.10000000000000142,6309,15,70,54
0.10000000000000142,6310,0,70,38
0.10000000000000142,6310,1,70,52
0.10000000000000142,6310,2,70,45
0.10000000000000142,6310,3,70,42
0.10000000000000142,6310,4,70,28
0.10000000000000142,6310,5,70,49
0.10000000000000142,6310,6,70,48
0.10000000000000142,6310,7,70,48
0.10000000000000142,6310,8,70,27
0.09999999999999432,6310,9,70,53
0.10000000000000142,6310,10,70,46
0.10000000000000142,6310,11,70,40
0.09999999999999432,6310,12,70,53
0.10000000000000142,6310,13,70,53
0.09999999999999432,6310,14,70,71
0.09999999999999432,6310,15,70,54
0.09999999999999432,6311,0,70,53
0.09999999999999432,6311,1,70,49
0.09999999999999432,6311,2,70,44
0.09999999999999432,6311,3,70,79
0.10000000000000853,6311,4,70,83
0.10000000000000853,6311,5,70,52
0.09999999999999432,6311,6,70,49
0.09999999999999432,6311,7,70,78
0.10000000000000853,6311,8,70,47
0.09999999999999432,6311,9,70,45
0.09999999999999432,6311,10,70,57
0.10000000000000853,6311,11,70,67
0.10000000000000853,6311,12,70,35
0.10000000000000853,6311,13,70,29
0.10000000000000853,6311,14,70,30
0.09999999999999432,6311,15,70,54
0.09999999999999432,6312,0,70,25
0.09999999999999432,6312,1,70,59
0.09999999999999432,6312,2,70,63
0.09999999999999432,6312,3,70,36
0.10000000000000853,6312,4,70,33
0.10000000000000853,6312,5,70,31
0.09999999999999432,6312,6,70,11
0.10000000000000853,6312,7,70,40
0.10000000000000853,6312,8,70,25
0.09999999999999432,6312,9,70,31
0.09999999999999432,6312,10,70,27
0.09999999999999432,6312,11,70,27
0.09999999999999432,6312,12,70,19
0.09999999999999432,6312,13,70,19
0.09999999999999432,6312,14,70,44
0.09999999999999432,6312,15,70,24
0.09999999999999432,6313,0,70,20
0.09999999999999432,6313,1,70,28
0.09999999999999432,6313,2,70,18
0.09999999999999432,6313,3,70,26
0.09999999999999432,6313,4,70,25
0.10000000000000853,6313,5,70,15
0.09999999999999432,6313,6,70,24
0.10000000000000853,6313,7,70,34
0.09999999999999432,6313,8,70,18
0.10000000000000853,6313,9,70,20
0.09999999999999432,6313,10,70,26
0.09999999999999432,6313,11,70,32
0.09999999999999432,6313,12,70,23
0.09999999999999432,6313,13,70,14
0.10000000000000853,6313,14,70,42
0.10000000000000853,6313,15,70,33
0.09999999999999432,6314,0,70,34
0.10000000000000853,6314,1,70,19
0.09999999999999432,6314,2,70,39
0.09999999999999432,6314,3,70,35
0.09999999999999432,6314,4,70,30
0.10000000000000853,6314,5,70,29
0.10000000000000853,6314,6,70,34
0.10000000000000853,6314,7,70,32
0.10000000000000853,6314,8,70,33
0.09999999999999432,6314,9,70,32
0.09999999999999432,6314,10,70,30
0.09999999999999432,6314,11,70,15
0.09999999999999432,6314,12,70,20
0.10000000000000853,6314,13,70,27
0.09999999999999432,6314,14,70,23
0.10000000000000853,6314,15,70,48
0.10000000000000853,6315,0,70,24
0.09999999999999432,6315,1,70,42
0.09999999999999432,6315,2,70,21
0.09999999999999432,6315,3,70,27
0.09999999999999432,6315,4,70,29
0.09999999999999432,6315,5,70,30
0.10000000000000853,6315,6,70,19
0.10000000000000853,6315,7,70,35
0.09999999999999432,6315,8,70,27
0.09999999999999432,6315,9,70,71
0.09999999999999432,6315,10,70,36
0.09999999999999432,6315,11,70,55
0.10000000000000853,6315,12,70,45
0.09999999999999432,6315,13,70,49
0.09999999999999432,6315,14,70,26
0.09999999999999432,6315,15,70,33
0.09999999999999432,6316,0,70,44
0.10000000000002274,6316,1,70,38
0.09999999999999432,6316,2,70,52
0.09999999999999432,6316,3,70,110
0.09999999999999432,6316,4,70,63
0.09999999999999432,6316,5,70,76
0.09999999999999432,6316,6,70,30
0.09999999999999432,6316,7,70,36
0.09999999999999432,6316,8,70,21
0.09999999999999432,6316,9,70,29
0.09999999999999432,6316,10,70,20
0.09999999999999432,6316,11,70,31
0.09999999999999432,6316,12,70,44
0.09999999999999432,6316,13,70,18
0.09999999999999432,6316,14,70,17
0.10000000000002274,6316,15,70,26
0.09999999999999432,6317,0,70,31
0.10000000000002274,6317,1,70,39
0.09999999999999432,6317,2,70,29
0.09999999999999432,6317,3,70,69
0.09999999999999432,6317,4,70,44
0.10000000000002274,6317,5,70,43
0.09999999999999432,6317,6,70,29
0.09999999999999432,6317,7,70,33
0.09999999999999432,6317,8,70,19
0.09999999999999432,6317,9,70,12
0.09999999999999432,6317,10,70,19
0.09999999999999432,6317,11,70,23
0.09999999999999432,6317,12,70,33
0.10000000000002274,6317,13,70,40
0.09999999999999432,6317,14,70,27
0.09999999999999432,6317,15,70,41
0.09999999999999432,6318,0,70,82
0.09999999999999432,6318,1,70,74
0.10000000000002274,6318,2,70,43
0.09999999999999432,6318,3,70,41
0.09999999999999432,6318,4,70,72
0.09999999999999432,6318,5,70,41
0.09999999999999432,6318,6,70,38
0.09999999999999432,6318,7,70,60
0.09999999999999432,6318,8,70,40
0.09999999999999432,6318,9,70,23
0.09999999999999432,6318,10,70,34
0.09999999999999432,6318,11,70,34
0.09999999999999432,6318,12,70,50
0.09999999999999432,6318,13,70,20
0.09999999999999432,6318,14,70,48
0.09999999999999432,6318,15,70,21
0.09999999999999432,6319,0,70,25
0.09999999999999432,6319,1,70,19
0.09999999999999432,6319,2,70,18
0.09999999999999432,6319,3,70,22
0.09999999999999432,6319,4,70,38
0.10000000000002274,6319,5,70,46
0.10000000000002274,6319,6,70,82
0.10000000000002274,6319,7,70,53
0.10000000000002274,6319,8,70,59
0.09999999999999432,6319,9,70,32
0.09999999999999432,6319,10,70,54
0.09999999999999432,6319,11,70,82
0.09999999999999432,6319,12,70,59
0.09999999999999432,6319,13,70,51
0.09999999999999432,6319,14,70,51
0.09999999999999432,6319,15,70,26
0.09999999999999432,6320,0,70,25
0.09999999999999432,6320,1,70,27
0.09999999999999432,6320,2,70,50
0.09999999999999432,6320,3,70,41
0.09999999999999432,6320,4,70,40
0.09999999999999432,6320,5,70,12
0.09999999999999432,6320,6,70,14
0.09999999999999432,6320,7,70,17
0.09999999999999432,6320,8,70,19
0.10000000000002274,6320,9,70,29
0.09999999999999432,6320,10,70,23
0.09999999999999432,6320,11,70,12
0.09999999999999432,6320,12,70,54
0.09999999999999432,6320,13,70,17
0.09999999999999432,6320,14,70,26
0.09999999999999432,6320,15,70,18
0.10000000000002274,6321,0,70,41
0.10000000000002274,6321,1,70,22
0.09999999999999432,6321,2,70,23
0.09999999999999432,6321,3,70,39
0.09999999999999432,6321,4,70,22
0.09999999999999432,6321,5,70,34
0.09999999999999432,6321,6,70,25
0.09999999999999432,6321,7,70,23
0.09999999999999432,6321,8,70,18
0.09999999999999432,6321,9,70,34
0.09999999999999432,6321,10,70,22
0.09999999999999432,6321,11,70,23
0.09999999999999432,6321,12,70,54
0.09999999999999432,6321,13,70,37
0.09999999999999432,6321,14,70,31
0.09999999999999432,6321,15,70,64
0.09999999999999432,6322,0,70,47
0.09999999999999432,6322,1,70,64
0.10000000000002274,6322,2,70,57
0.09999999999999432,6322,3,70,81
0.09999999999999432,6322,4,70,66
0.09999999999999432,6322,5,70,46
0.09999999999999432,6322,6,70,21
0.10000000000002274,6322,7,70,84
0.10000000000002274,6322,8,70,115
0.09999999999999432,6322,9,70,56
0.09999999999999432,6322,10,70,16
0.09999999999999432,6322,11,70,18
0.09999999999999787,6322,12,63,1
0.09999999999999432,6322,13,63,46
0.10000000000000142,6322,14,63,30
0.10000000000000142,6322,15,63,42
0.10000000000000142,6323,0,63,72
0.10000000000000142,6323,1,63,58
0.09999999999999432,6323,2,63,47
0.10000000000000853,6323,3,63,26
0.09999999999999432,6323,4,63,32
0.09999999999999432,6323,5,63,23
0.09999999999999432,6323,6,63,50
0.09999999999999432,6323,7,63,30
0.09999999999999432,6323,8,63,37
0.09999999999999432,6323,9,63,29
0.09999999999999432,6323,10,63,36
0.10000000000000853,6323,11,63,37
0.10000000000000853,6323,12,63,46
0.10000000000000853,6323,13,63,51
0.09999999999999432,6323,14,63,49
0.09999999999999432,6323,15,63,49
0.09999999999999432,6324,0,63,34
0.10000000000000853,6324,1,63,46
0.10000000000000853,6324,2,63,49
0.10000000000000853,6324,3,63,62
0.10000000000000853,6324,4,63,31
0.09999999999999432,6324,5,63,57
0.09999999999999432,6324,6,63,42
0.09999999999999432,6324,7,63,47
0.09999999999999432,6324,8,63,47
0.09999999999999432,6324,9,63,45
0.10000000000000853,6324,10,63,50
0.10000000000000853,6324,11,63,51
0.09999999999999432,6324,12,63,48
0.09999999999999432,6324,13,63,61
0.09999999999999432,6324,14,63,42
0.09999999999999432,6324,15,63,52
0.09999999999999432,6325,0,63,66
0.09999999999999432,6325,1,63,39
0.09999999999999432,6325,2,63,51
0.09999999999999432,6325,3,63,43
0.09999999999999432,6325,4,63,56
0.09999999999999432,6325,5,63,49
0.09999999999999432,6325,6,63,64
0.09999999999999432,6325,7,63,58
0.09999999999999432,6325,8,63,58
0.09999999999999432,6325,9,63,63
0.09999999999999432,6325,10,63,41
0.09999999999999432,6325,11,63,49
0.09999999999999432,6325,12,63,30
0.09999999999999432,6325,13,63,39
0.09999999999999432,6325,14,63,45
0.10000000000002274,6325,15,63,50
0.09999999999999432,6326,0,63,38
0.09999999999999432,6326,1,63,44
0.09999999999999432,6326,2,63,52
0.09999999999999432,6326,3,63,45
0.09999999999999432,6326,4,63,38
0.09999999999999432,6326,5,63,44
0.09999999999999432,6326,6,63,58
0.09999999999999432,6326,7,63,37
0.09999999999999432,6326,8,63,58
0.10000000000002274,6326,9,63,37
0.10000000000002274,6326,10,63,31
0.09999999999999432,6326,11,63,44
0.09999999999999432,6326,12,63,54
0.09999999999999432,6326,13,63,64
0.10000000000002274,6326,14,63,50
0.09999999999999432,6326,15,63,28
0.09999999999999432,6327,0,63,30
0.09999999999999432,6327,1,63,46
0.09999999999999432,6327,2,63,29
0.09999999999999432,6327,3,63,40
0.09999999999999432,6327,4,63,64
0.09999999999999432,6327,5,63,45
0.09999999999999432,6327,6,63,46
0.09999999999999432,6327,7,63,52
0.09999999999999432,6327,8,63,64
0.09999999999999432,6327,9,63,42
0.10000000000002274,6327,10,63,52
0.10000000000002274,6327,11,63,30
0.09999999999999432,6327,12,63,45
0.09999999999999432,6327,13,63,60
0.09999999999999432,6327,14,63,52
0.10000000000002274,6327,15,63,56
0.09999999999999432,6328,0,63,48
0.09999999999999432,6328,1,63,49
0.10000000000002274,6328,2,63,50
0.10000000000002274,6328,3,63,49
0.09999999999999432,6328,4,63,41
0.09999999999999432,6328,5,63,55
0.09999999999999432,6328,6,63,45
0.09999999999999432,6328,7,63,32
0.09999999999999432,6328,8,63,29
0.09999999999999432,6328,9,63,36
0.09999999999999432,6328,10,63,44
0.09999999999999432,6328,11,63,41
0.09999999999999432,6328,12,63,32
0.09999999999999432,6328,13,63,74
0.09999999999999432,6328,14,63,67
0.10000000000002274,6328,15,63,38
0.09999999999999432,6329,0,63,34
0.10000000000002274,6329,1,63,32
0.09999999999999432,6329,2,63,50
0.09999999999999432,6329,3,63,48
0.10000000000002274,6329,4,63,24
0.09999999999999432,6329,5,63,37
0.10000000000002274,6329,6,63,38
0.09999999999999432,6329,7,63,36
0.09999999999999432,6329,8,63,29
0.09999999999999432,6329,9,63,33
0.10000000000002274,6329,10,63,33
0.10000000000002274,6329,11,63,39
0.09999999999999432,6329,12,63,26
0.09999999999999432,6329,13,63,23
0.10000000000002274,6329,14,63,26
0.10000000000002274,6329,15,63,21
0.09999999999999432,6330,0,63,77
0.10000000000002274,6330,1,63,46
0.09999999999999432,6330,2,63,39
0.09999999999999432,6330,3,63,54
0.09999999999999432,6330,4,63,75
0.10000000000002274,6330,5,63,72
0.09999999999999432,6330,6,63,41
0.09999999999999432,6330,7,63,95
0.10000000000002274,6330,8,63,97
0.09999999999999432,6330,9,63,80
0.09999999999999432,6330,10,63,54
0.09999999999999432,6330,11,63,68
0.09999999999999432,6330,12,63,74
0.10000000000002274,6330,13,63,62
0.10000000000002274,6330,14,63,80
0.10000000000002274,6330,15,63,102
0.09999999999999432,6331,0,63,121
0.09999999999999432,6331,1,63,71
0.09999999999999432,6331,2,63,108
0.09999999999999432,6331,3,63,72
0.09999999999999432,6331,4,63,103
0.09999999999999432,6331,5,63,106
0.09999999999999432,6331,6,63,77
0.09999999999999432,6331,7,63,62
0.09999999999999432,6331,8,63,80
0.09999999999999432,6331,9,63,96
0.09999999999999964,6331,10,73,10
0.09999999999999964,6331,11,73,86
0.09999999999999964,6331,12,73,15
0.013636363636363669,6331,13,73,58
0.09999999999999964,6331,14,73,101
0.09999999999999964,6331,15,73,22
0.10000000000000142,6332,0,73,99
0.09999999999999964,6332,1,73,29
0.09999999999999787,6332,2,73,50
0.10000000000000142,6332,3,73,72
0.09999999999999787,6332,4,73,28
0.10000000000000142,6332,5,73,29
0.10000000000000142,6332,6,73,20
0.047727272727275505,6332,7,73,47
0.10000000000000142,6332,8,73,10
0.10000000000000142,6332,9,73,96
0.09999999999999787,6332,10,73,86
0.10000000000000142,6332,11,73,47
0.09999999999999787,6332,12,73,105
0.10000000000000142,6332,13,73,37
0.09999999999999787,6332,14,73,34
0.05681818181817988,6332,15,73,74
0.10000000000000142,6333,0,73,86
0.09999999999999787,6333,1,73,22
0.10000000000000142,6333,2,73,51
0.09999999999999787,6333,3,73,84
0.06818181818181657,6333,4,73,94
0.10000000000000142,6333,5,73,44
0.10000000000000142,6333,6,73,43
0.09999999999999787,6333,7,73,62
0.09999999999999787,6333,8,73,50
0.10000000000000142,6333,9,73,15
0.09999999999999787,6333,10,73,11
0.10000000000000142,6333,11,73,42
0.09999999999999787,6333,12,73,40
0.10000000000000142,6333,13,73,34
0.09999999999999787,6333,14,73,23
0.05909090909090864,6333,15,73,38
0.09999999999999787,6334,0,73,17
0.10000000000000142,6334,1,73,41
0.10000000000000142,6334,2,73,27
0.09999999999999787,6334,3,73,57
0.10000000000000142,6334,4,73,43
0.10000000000000142,6334,5,73,12
0.09999999999999787,6334,6,73,99
0.09999999999999787,6334,7,73,86
0.10000000000000142,6334,8,73,66
0.10000000000000142,6334,9,73,34
0.10000000000000142,6334,10,73,46
0.10000000000000142,6334,11,73,62
0.10000000000000142,6334,12,73,8
0.10000000000000142,6334,13,73,37
0.10000000000000142,6334,14,73,5
0.10000000000000142,6334,15,73,31
0.09999999999999787,6335,0,73,42
0.09999999999999787,6335,1,73,83
0.10000000000000142,6335,2,73,117
0.09999999999999787,6335,3,73,18
0.02499999999999858,6335,4,73,98
0.09999999999999787,6335,5,73,41
0.09999999999999787,6335,6,73,9
0.10000000000000142,6335,7,73,53
0.10000000000000142,6335,8,73,48
0.10000000000000142,6335,9,73,7
0.10000000000000142,6335,10,73,28
0.013636363636365445,6335,11,73,95
0.10000000000000142,6335,12,73,127
0.10000000000000142,6335,13,73,74
0.10000000000000142,6335,14,73,76
0.10000000000000142,6335,15,73,91
0.10000000000000142,6336,0,73,59
0.10000000000000142,6336,1,73,107
0.10000000000000142,6336,2,73,98
0.10000000000000142,6336,3,73,15
0.10000000000000142,6336,4,73,61
0.10000000000000142,6336,5,73,114
0.10000000000000142,6336,6,73,83
0.06818181818182012,6336,7,73,111
0.10000000000000142,6336,8,73,84
0.09999999999999432,6336,9,73,22
0.09999999999999432,6336,10,73,127
0.10000000000000142,6336,11,73,49
0.10000000000000142,6336,12,73,85
0.10000000000000142,6336,13,73,108
0.09999999999999432,6336,14,73,127
0.10000000000000142,6336,15,73,95
0.10000000000000142,6337,0,73,117
0.10000000000000142,6337,1,73,81
0.10000000000000142,6337,2,73,107
0.10000000000000142,6337,3,73,36
0.10000000000000142,6337,4,73,126
0.09999999999999432,6337,5,73,127
0.10000000000000142,6337,6,73,127
0.09999999999999432,6337,7,73,107
0.09999999999999432,6337,8,73,29
0.10000000000000142,6337,9,73,36
0.03409090909091361,6337,10,73,127
0.10000000000000142,6337,11,73,118
0.10000000000000142,6337,12,73,127
0.10000000000000142,6337,13,73,31
0.06818181818182012,6337,14,73,50
0.10000000000000142,6337,15,73,99
0.09999999999999432,6338,0,73,124
0.09999999999999432,6338,1,73,127
0.09999999999999432,6338,2,73,77
0.10000000000000142,6338,3,73,115
0.10000000000000142,6338,4,73,127
0.10000000000000142,6338,5,73,46
0.10000000000000142,6338,6,73,98
0.10000000000000142,6338,7,73,30
0.10000000000000142,6338,8,73,124
0.09999999999999432,6338,9,73,127
0.02499999999999858,6338,10,73,70
0.10000000000000142,6338,11,73,104
0.10000000000000142,6338,12,73,119
0.10000000000000142,6338,13,73,103
0.09999999999999432,6338,14,73,115
0.10000000000000142,6338,15,73,127
0.10000000000000142,6339,0,73,56
0.09999999999999432,6339,1,73,121
0.10000000000000142,6339,2,73,127
0.09999999999999432,6339,3,73,61
0.10000000000000142,6339,4,73,56
0.10000000000000142,6339,5,73,95
0.10000000000000142,6339,6,73,121
0.10000000000000142,6339,7,73,127
0.09999999999999432,6339,8,73,122
0.10000000000000142,6339,9,73,34
0.09999999999999432,6339,10,73,127
0.10000000000000142,6339,11,73,127
0.10000000000000142,6339,12,73,61
0.10000000000000142,6339,13,73,83
0.10000000000000142,6339,14,73,120
0.06818181818182012,6339,15,73,127
0.10000000000000142,6340,0,73,127
0.10000000000000142,6340,1,73,123
0.10000000000000142,6340,2,73,84
0.10000000000000142,6340,3,73,127
0.10000000000000142,6340,4,73,75
0.10000000000000142,6340,5,73,75
0.10000000000000142,6340,6,73,36
0.10000000000000142,6340,7,73,127
0.10000000000000142,6340,8,73,41
0.10000000000000142,6340,9,73,38
0.10000000000000142,6340,10,73,86
0.10000000000000142,6340,11,73,127
0.10000000000000142,6340,12,73,127
0.09999999999999432,6340,13,73,33
0.10000000000000853,6340,14,73,62
0.10000000000000853,6340,15,73,55
0.09999999999999432,6341,0,73,63
0.056818181818186986,6341,1,73,102
0.10000000000000853,6341,2,73,127
0.09999999999999432,6341,3,73,47
0.09999999999999432,6341,4,73,127
0.10000000000000853,6341,5,73,110
0.10000000000000853,6341,6,73,90
0.10000000000000853,6341,7,73,45
0.09999999999999432,6341,8,73,98
0.09999999999999432,6341,9,73,99
0.09999999999999432,6341,10,73,69
0.09999999999999432,6341,11,73,27
0.09999999999999432,6341,12,73,37
0.10000000000000853,6341,13,73,112
0.09999999999999432,6341,14,73,107
0.10000000000000853,6341,15,73,38
0.09999999999999432,6342,0,73,99
0.10000000000000853,6342,1,73,50
0.10000000000000853,6342,2,73,88
0.10000000000000853,6342,3,73,14
0.09999999999999432,6342,4,73,96
0.10000000000000853,6342,5,73,127
0.10000000000000853,6342,6,73,72
0.09999999999999432,6342,7,73,72
0.09999999999999432,6342,8,73,116
0.06818181818181301,6342,9,73,127
0.09999999999999432,6342,10,73,50
0.10000000000000853,6342,11,73,66
0.09999999999999432,6342,12,73,127
0.10000000000000853,6342,13,73,30
0.06818181818182723,6342,14,73,37
0.10000000000000853,6342,15,73,40
0.10000000000000853,6343,0,73,66
0.10000000000000853,6343,1,73,119
0.10000000000000853,6343,2,73,46
0.09999999999999432,6343,3,73,35
0.09999999999999432,6343,4,73,127
0.10000000000000853,6343,5,73,97
0.10000000000000853,6343,6,73,90
0.10000000000000853,6343,7,73,61
0.09999999999999432,6343,8,73,75
0.09999999999999432,6343,9,73,15
0.10000000000000853,6343,10,73,127
0.10000000000000853,6343,11,73,59
0.10000000000000853,6343,12,73,127
0.09999999999999432,6343,13,73,87
0.09999999999999432,6343,14,73,127
0.09999999999999432,6343,15,73,78
0.09999999999999432,6344,0,73,72
0.10000000000000853,6344,1,73,104
0.09999999999999432,6344,2,73,18
0.10000000000000853,6344,3,73,84
0.09999999999999432,6344,4,73,34
0.09999999999999432,6344,5,73,89
0.10000000000000853,6344,6,73,127
0.10000000000000853,6344,7,73,62
0.10000000000000853,6344,8,73,42
0.10000000000000853,6344,9,73,127
0.10000000000000853,6344,10,73,27
0.09999999999999432,6344,11,73,57
0.10000000000000853,6344,12,73,28
0.10000000000000853,6344,13,73,88
0.10000000000000853,6344,14,73,28
0.09999999999999432,6344,15,73,90
0.09999999999999432,6345,0,73,76
0.10000000000000853,6345,1,73,15
0.09999999999999432,6345,2,73,71
0.09999999999999432,6345,3,73,127
0.09999999999999432,6345,4,73,35
0.10000000000000853,6345,5,73,126
0.10000000000000853,6345,6,73,93
0.10000000000000853,6345,7,73,92
0.09999999999999432,6345,8,73,127
0.10000000000000853,6345,9,73,35
0.09999999999999432,6345,10,73,83
0.09999999999999432,6345,11,73,92
0.09999999999999432,6345,12,73,66
0.10000000000000853,6345,13,73,53
0.09999999999999432,6345,14,73,43
0.10000000000000853,6345,15,73,24
0.10000000000000853,6346,0,73,90
0.09999999999999432,6346,1,73,52
0.10000000000000853,6346,2,73,126
0.10000000000000853,6346,3,73,98
0.09999999999999432,6346,4,73,53
0.10000000000000853,6346,5,73,118
0.10000000000000853,6346,6,73,117
0.09999999999999432,6346,7,73,108
0.09999999999999432,6346,8,73,112
0.10000000000000853,6346,9,73,127
0.10000000000000853,6346,10,73,38
0.01590909090909065,6346,11,73,127
0.09999999999999432,6346,12,73,42
0.09999999999999432,6346,13,73,75
0.10000000000000853,6346,14,73,126
0.09999999999999432,6346,15,73,35
0.09999999999999432,6347,0,73,125
0.09999999999999432,6347,1,73,65
0.09999999999999432,6347,2,73,91
0.10000000000000853,6347,3,73,104
0.10000000000000853,6347,4,73,83
0.09999999999999432,6347,5,73,120
0.09999999999999432,6347,6,73,108
0.09999999999999432,6347,7,73,122
0.09999999999999432,6347,8,73,75
0.10000000000000853,6347,9,73,58
0.10000000000000853,6347,10,73,68
0.09999999999999432,6347,11,73,96
0.10000000000000853,6347,12,73,97
0.09999999999999432,6347,13,73,68
0.09999999999999432,6347,14,73,84
0.004545454545450411,6347,15,73,14
0.09999999999999432,6348,0,73,63
0.09999999999999432,6348,1,73,102
0.09999999999999432,6348,2,73,60
0.09999999999999432,6348,3,73,102
0.10000000000000853,6348,4,73,36
0.10000000000000853,6348,5,73,123
0.10000000000000853,6348,6,73,88
0.10000000000000853,6348,7,73,85
0.09999999999999432,6348,8,73,63
0.09999999999999432,6348,9,73,17
0.10000000000000853,6348,10,73,76
0.06818181818182723,6348,11,73,112
0.09999999999999432,6348,12,73,83
0.09999999999999432,6348,13,73,95
0.09999999999999432,6348,14,73,81
0.09999999999999432,6348,15,73,115
0.09999999999999432,6349,0,73,81
0.09999999999999432,6349,1,73,123
0.09999999999999432,6349,2,73,67
0.10000000000000853,6349,3,73,82
0.10000000000000853,6349,4,73,81
0.09999999999999432,6349,5,73,80
0.10000000000000853,6349,6,73,88
0.013636363636365445,6349,7,73,33
0.10000000000000853,6349,8,73,104
0.10000000000000853,6349,9,73,46
0.10000000000000853,6349,10,73,97
0.10000000000000853,6349,11,73,39
0.10000000000000853,6349,12,73,94
0.10000000000000853,6349,13,73,76
0.09999999999999432,6349,14,73,126
0.09999999999999432,6349,15,73,111
0.09999999999999432,6350,0,73,81
0.10000000000000853,6350,1,73,115
0.09999999999999432,6350,2,73,114
0.004545454545450411,6350,3,73,19
0.10000000000000853,6350,4,73,54
0.09999999999999432,6350,5,73,119
0.09999999999999432,6350,6,73,65
0.09999999999999432,6350,7,73,123
0.09999999999999432,6350,8,73,115
0.09999999999999432,6350,9,73,20
0.09999999999999432,6350,10,73,95
0.09999999999999432,6350,11,73,41
0.004545454545450411,6350,12,73,110
0.09999999999999432,6350,13,73,84
0.09999999999999432,6350,14,73,102
0.09999999999999432,6350,15,73,113
0.09999999999999432,6351,0,73,84
0.09999999999999432,6351,1,73,86
0.10000000000000853,6351,2,73,64
0.09999999999999432,6351,3,73,101
0.09999999999999432,6351,4,73,104
0.09999999999999432,6351,5,73,105
0.10000000000000853,6351,6,73,127
0.10000000000000853,6351,7,73,25
0.10000000000000853,6351,8,73,127
0.10000000000000853,6351,9,73,123
0.09999999999999432,6351,10,73,94
0.09999999999999432,6351,11,73,95
0.10000000000000853,6351,12,73,127
0.09999999999999432,6351,13,73,84
0.09999999999999432,6351,14,73,123
0.09999999999999432,6351,15,73,127
0.09999999999999432,6352,0,73,36
0.10000000000000853,6352,1,73,6
0.09999999999999432,6352,2,73,23
0.09999999999999432,6352,3,73,127
0.09999999999999432,6352,4,73,45
0.10000000000000853,6352,5,73,127
0.09999999999999432,6352,6,73,86
0.10000000000002274,6352,7,73,105
0.10000000000002274,6352,8,73,63
0.056818181818186986,6352,9,73,112
0.10000000000002274,6352,10,73,74
0.10000000000002274,6352,11,73,105
0.10000000000002274,6352,12,73,88
0.09999999999999432,6352,13,73,62
0.09999999999999432,6352,14,73,106
0.09999999999999432,6352,15,73,116
0.09999999999999432,6353,0,73,75
0.09999999999999432,6353,1,73,95
0.10000000000002274,6353,2,73,32
0.09999999999999432,6353,3,73,127
0.10000000000002274,6353,4,73,113
0.09999999999999432,6353,5,73,45
0.09999999999999432,6353,6,73,119
0.10000000000002274,6353,7,73,87
0.09999999999999432,6353,8,73,67
0.09999999999999432,6353,9,73,23
0.09999999999999432,6353,10,73,31
0.10000000000002274,6353,11,73,108
0.09999999999999432,6353,12,73,79
0.10000000000002274,6353,13,73,115
0.09999999999999432,6353,14,73,127
0.09999999999999432,6353,15,73,75
0.10000000000002274,6354,0,73,81
0.10000000000002274,6354,1,73,118
0.09999999999999432,6354,2,73,127
0.09999999999999432,6354,3,73,121
0.09999999999999432,6354,4,73,85
0.09999999999999432,6354,5,73,87
0.09999999999999432,6354,6,73,82
0.09999999999999432,6354,7,73,127
0.10000000000002274,6354,8,73,86
0.09999999999999432,6354,9,73,45
0.10000000000002274,6354,10,73,83
0.013636363636379656,6354,11,73,95
0.09999999999999432,6354,12,73,89
0.056818181818158564,6354,13,73,127
0.10000000000002274,6354,14,73,105
0.09999999999999432,6354,15,73,75
0.09999999999999432,6355,0,73,127
0.10000000000002274,6355,1,73,40
0.09999999999999432,6355,2,73,94
0.09999999999999432,6355,3,73,85
0.09999999999999432,6355,4,73,110
0.10000000000002274,6355,5,73,40
0.09999999999999432,6355,6,73,32
0.10000000000002274,6355,7,73,106
0.09999999999999432,6355,8,73,127
0.09999999999999432,6355,9,73,43
0.09999999999999432,6355,10,73,127
0.09999999999999432,6355,11,73,35
0.09999999999999432,6355,12,73,127
0.09999999999999432,6355,13,73,127
0.09999999999999432,6355,14,73,76
0.10000000000002274,6355,15,73,89
0.10000000000002274,6356,0,73,127
0.09999999999999432,6356,1,73,108
0.09999999999999432,6356,2,73,87
0.09999999999999432,6356,3,73,90
0.09999999999999432,6356,4,73,47
0.09999999999999432,6356,5,73,124
0.09999999999999432,6356,6,73,93
0.09999999999999432,6356,7,73,115
0.09999999999999432,6356,8,73,55
0.09999999999999432,6356,9,73,45
0.09999999999999432,6356,10,73,68
0.09999999999999432,6356,11,73,29
0.09999999999999432,6356,12,73,127
0.09999999999999432,6356,13,73,127
0.10000000000002274,6356,14,73,124
0.10000000000002274,6356,15,73,59
0.10000000000002274,6357,0,73,123
0.09999999999999432,6357,1,73,24
0.09999999999999432,6357,2,73,78
0.09999999999999432,6357,3,73,39
0.09999999999999432,6357,4,73,86
0.09999999999999432,6357,5,73,37
0.09999999999999432,6357,6,73,71
0.09999999999999432,6357,7,73,94
0.09999999999999432,6357,8,73,20
0.03636363636363171,6357,9,73,102
0.09999999999999432,6357,10,73,84
0.09999999999999432,6357,11,73,127
0.09999999999999432,6357,12,73,79
0.10000000000002274,6357,13,73,68
0.10000000000002274,6357,14,73,100
0.09999999999999432,6357,15,73,116
0.09999999999999432,6358,0,73,54
0.09999999999999432,6358,1,73,92
0.10000000000002274,6358,2,73,58
0.09999999999999432,6358,3,73,46
0.04772727272728616,6358,4,73,84
0.09999999999999432,6358,5,73,61
0.09999999999999432,6358,6,73,127
0.09999999999999432,6358,7,73,38
0.09999999999999432,6358,8,73,124
0.09999999999999432,6358,9,73,9
0.09999999999999432,6358,10,73,40
0.09999999999999432,6358,11,73,38
0.10000000000002274,6358,12,73,22
0.09999999999999432,6358,13,73,15
0.10000000000002274,6358,14,73,23
0.09999999999999432,6358,15,73,42
0.10000000000002274,6359,0,73,43
0.09999999999999432,6359,1,73,59
0.10000000000002274,6359,2,73,27
0.03636363636363171,6359,3,73,102
0.10000000000002274,6359,4,73,62
0.10000000000002274,6359,5,73,23
0.09999999999999432,6359,6,73,67
0.09999999999999432,6359,7,73,28
0.09999999999999432,6359,8,73,65
0.10000000000002274,6359,9,73,25
0.09999999999999432,6359,10,73,76
0.10000000000002274,6359,11,73,29
0.09999999999999432,6359,12,73,127
0.09999999999999432,6359,13,73,32
0.09999999999999432,6359,14,73,68
0.09999999999999432,6359,15,73,48
0.09999999999999432,6360,0,73,40
0.10000000000002274,6360,1,73,42
0.09999999999999432,6360,2,73,81
0.10000000000002274,6360,3,73,61
0.09999999999999432,6360,4,73,8
0.09999999999999432,6360,5,73,18
0.09999999999999432,6360,6,73,127
0.09999999999999432,6360,7,73,98
0.06590909090908781,6360,8,73,123
0.09999999999999432,6360,9,73,57
0.09999999999999432,6360,10,73,66
0.10000000000002274,6360,11,73,91
0.09999999999999432,6360,12,73,13
0.09999999999999432,6360,13,73,19
0.01590909090910486,6360,14,73,84
0.09999999999999432,6360,15,73,118
0.09999999999999432,6361,0,73,127
0.09999999999999432,6361,1,73,73
0.09999999999999432,6361,2,73,90
0.09999999999999432,6361,3,73,13
0.09999999999999432,6361,4,73,74
0.09999999999999432,6361,5,73,114
0.10000000000002274,6361,6,73,55
0.10000000000002274,6361,7,73,61
0.06818181818184144,6361,8,73,68
0.09999999999999432,6361,9,73,110
0.10000000000002274,6361,10,73,112
0.09999999999999432,6361,11,73,82
0.09999999999999432,6361,12,73,123
0.09999999999999432,6361,13,73,127
0.09999999999999432,6361,14,73,121
0.09999999999999432,6361,15,73,33
0.10000000000002274,6362,0,73,127
0.09999999999999432,6362,1,73,127
0.10000000000002274,6362,2,73,127
0.10000000000002274,6362,3,73,113
0.09999999999999432,6362,4,73,101
0.09999999999999432,6362,5,73,87
0.10000000000002274,6362,6,73,127
0.09999999999999432,6362,7,73,127
0.09999999999999432,6362,8,73,127
0.09999999999999432,6362,9,73,95
0.01590909090910486,6362,10,73,21
0.09999999999999432,6362,11,73,42
0.09999999999999432,6362,12,73,125
0.10000000000002274,6362,13,73,42
0.09999999999999432,6362,14,73,127
0.10000000000002274,6362,15,73,127
0.09999999999999432,6363,0,73,127
0.09999999999999432,6363,1,73,127
0.10000000000002274,6363,2,73,127
0.09999999999999432,6363,3,73,127
0.10000000000002274,6363,4,73,111
0.09999999999999432,6363,5,73,56
0.09999999999999432,6363,6,73,76
0.09999999999999432,6363,7,73,83
0.09999999999999432,6363,8,73,127
0.09999999999999432,6363,9,73,101
0.09999999999999432,6363,10,73,127
0.09999999999999432,6363,11,73,79
0.10000000000002274,6363,12,73,83
0.09999999999999432,6363,13,73,127
0.09999999999999432,6363,14,73,91
0.09999999999999432,6363,15,73,38
0.10000000000002274,6364,0,73,42
0.09999999999999432,6364,1,73,64
0.09999999999999432,6364,2,73,97
0.09999999999999432,6364,3,73,14
0.09999999999999432,6364,4,73,97
0.09999999999999432,6364,5,73,127
0.09999999999999432,6364,6,73,127
0.09999999999999432,6364,7,73,99
0.10000000000002274,6364,8,73,127
0.09999999999999432,6364,9,73,46
0.09999999999999432,6364,10,73,115
0.06590909090908781,6364,11,73,118
0.10000000000002274,6364,12,73,106
0.09999999999999432,6364,13,73,76
0.09999999999999432,6364,14,73,43
0.09999999999999432,6364,15,73,68
0.09999999999999432,6365,0,73,2
0.09999999999999432,6365,1,73,47
0.03636363636363171,6365,2,73,93
0.09999999999999432,6365,3,73,45
0.09999999999999432,6365,4,73,102
0.09999999999999432,6365,5,73,104
0.025000000000005684,6365,6,73,60
0.09999999999999432,6365,7,73,71
0.09999999999999432,6365,8,73,80
0.09999999999999432,6365,9,73,73
0.09999999999999432,6365,10,73,3
0.10000000000002274,6365,11,73,17
0.09999999999999432,6365,12,73,23
0.09999999999999432,6365,13,73,66
0.09999999999999432,6365,14,73,116
0.09999999999999432,6365,15,73,127
0.10000000000002274,6366,0,73,122
0.09999999999999432,6366,1,73,33
0.09999999999999432,6366,2,73,46
0.09999999999999432,6366,3,73,16
0.09999999999999432,6366,4,73,117
0.09999999999999432,6366,5,73,127
0.10000000000002274,6366,6,73,127
0.10000000000002274,6366,7,73,41
0.056818181818186986,6366,8,73,80
0.09999999999999432,6366,9,73,71
0.09999999999999432,6366,10,63,12
0.09999999999999432,6366,11,63,20
0.09999999999999432,6366,12,63,38
0.09999999999999432,6366,13,63,23
0.09999999999999432,6366,14,63,25
0.06818181818181301,6366,15,63,39
0.09999999999999432,6367,0,63,8
0.10000000000002274,6367,1,63,41
0.09999999999999432,6367,2,63,21
0.09999999999999432,6367,3,63,21
0.06818181818181301,6367,4,63,39
0.09999999999999432,6367,5,63,5
0.056818181818186986,6367,6,63,15
0.09999999999999432,6367,7,63,40
0.09999999999999432,6367,8,63,24
0.09999999999999432,6367,9,63,26
0.09999999999999432,6367,10,63,31
0.09999999999999432,6367,11,63,23
0.09999999999999432,6367,12,63,46
0.09999999999999432,6367,13,63,18
0.056818181818186986,6367,14,63,35
0.09999999999999432,6367,15,63,16
0.09999999999999432,6368,0,63,22
0.04772727272728616,6368,1,63,45
0.09999999999999432,6368,2,63,17
0.10000000000002274,6368,3,63,49
0.09999999999999432,6368,4,63,33
0.09999999999999432,6368,5,63,28
0.10000000000002274,6368,6,63,22
0.056818181818186986,6368,7,63,34
0.09999999999999432,6368,8,63,20
0.09999999999999432,6368,9,63,23
0.10000000000002274,6368,10,63,3
0.05909090909091219,6368,11,63,44
0.09999999999999432,6368,12,63,56
0.09999999999999432,6368,13,63,38
0.10000000000002274,6368,14,63,29
0.09999999999999432,6368,15,63,29
0.09999999999999432,6369,0,63,35
0.09999999999999432,6369,1,63,24
0.004545454545450411,6369,2,63,19
0.09999999999999432,6369,3,63,38
0.09999999999999432,6369,4,63,27
0.10000000000002274,6369,5,63,16
0.05909090909091219,6369,6,63,32
0.10000000000002274,6369,7,63,45
0.09999999999999432,6369,8,63,24
0.10000000000002274,6369,9,63,22
0.09999999999999432,6369,10,63,23
0.05909090909091219,6369,11,63,46
0.09999999999999432,6369,12,63,17
0.10000000000002274,6369,13,63,28
0.09999999999999432,6369,14,63,53
0.09999999999999432,6369,15,63,18
0.09999999999999432,6370,0,63,21
0.10000000000002274,6370,1,63,49
0.09999999999999432,6370,2,63,22
0.056818181818186986,6370,3,63,36
0.09999999999999432,6370,4,63,39
0.09999999999999432,6370,5,63,21
0.09999999999999432,6370,6,63,31
0.09999999999999432,6370,7,63,7
0.09999999999999432,6370,8,63,17
0.09999999999999432,6370,9,63,1
0.09999999999999432,6370,10,63,37
0.09999999999999432,6370,11,63,22
0.09999999999999432,6370,12,63,44
0.10000000000002274,6370,13,63,51
0.09999999999999432,6370,14,63,30
0.10000000000002274,6370,15,63,29
0.10000000000002274,6371,0,63,21
0.09999999999999432,6371,1,63,13
0.09999999999999432,6371,2,63,25
0.09999999999999432,6371,3,63,38
0.09999999999999432,6371,4,63,1
0.09999999999999432,6371,5,56,42
0.10000000000000853,6371,6,56,63
0.09999999999999432,6371,7,56,72
0.10000000000000853,6371,8,56,63
0.09999999999999432,6371,9,56,66
0.10000000000000853,6371,10,56,30
0.09999999999999432,6371,11,56,54
0.10000000000000853,6371,12,56,69
0.09999999999999432,6371,13,56,56
0.09999999999999432,6371,14,56,60
0.10000000000000853,6371,15,56,56
0.10000000000000853,6372,0,56,60
0.10000000000000853,6372,1,56,50
0.09999999999999432,6372,2,56,49
0.09999999999999432,6372,3,56,46
0.09999999999999432,6372,4,56,34
0.045454545454546746,6372,5,56,33
0.09999999999999432,6372,6,56,46
0.09999999999999432,6372,7,56,46
0.10000000000000853,6372,8,56,44
0.09999999999999432,6372,9,56,50
0.10000000000000853,6372,10,56,69
0.10000000000000853,6372,11,56,71
0.09999999999999432,6372,12,56,70
0.09999999999999432,6372,13,56,43
0.09999999999999432,6372,14,56,55
0.10000000000000853,6372,15,56,51
0.09999999999999432,6373,0,56,66
0.09999999999999432,6373,1,56,55
0.09999999999999432,6373,2,56,61
0.10000000000002274,6373,3,56,58
0.09999999999999432,6373,4,56,64
0.09999999999999432,6373,5,56,67
0.09999999999999432,6373,6,56,46
0.10000000000002274,6373,7,56,69
0.10000000000002274,6373,8,56,55
0.10000000000002274,6373,9,56,60
0.09999999999999432,6373,10,56,58
0.09999999999999432,6373,11,56,43
0.10000000000002274,6373,12,56,57
0.09999999999999432,6373,13,56,80
0.10000000000002274,6373,14,56,55
0.09999999999999432,6373,15,56,37
0.09999999999999432,6374,0,56,26
0.09999999999999432,6374,1,56,29
0.09999999999999432,6374,2,56,89
0.09999999999999432,6374,3,56,121
0.09999999999999432,6374,4,56,102
0.09999999999999432,6374,5,56,112
0.09999999999999432,6374,6,56,94
0.09999999999999432,6374,7,56,68
0.09999999999999432,6374,8,56,110
0.09999999999999432,6374,9,56,109
0.09999999999999432,6374,10,56,71
0.10000000000002274,6374,11,56,89
0.06818181818181301,6374,12,56,98
0.09999999999999432,6374,13,56,87
0.09999999999999432,6374,14,56,68
0.09999999999999432,6374,15,56,126
0.09999999999999432,6375,0,56,127
0.02727272727273089,6375,1,56,127
0.0022727272727252057,6375,2,56,127
0.025000000000005684,6375,3,56,127
0.10000000000002274,6375,4,56,127
0.10000000000002274,6375,5,56,127
0.004545454545478833,6375,6,56,127
0.004545454545450411,6375,7,56,127
0.004545454545450411,6375,8,56,127
0.025000000000005684,6375,9,56,127
0.025000000000005684,6375,10,56,127
0.09999999999999432,6375,11,56,96
0.09999999999999432,6375,12,56,102
0.04772727272728616,6375,13,56,102
0.09999999999999432,6375,14,56,101
0.09999999999999432,6375,15,56,127
0.09999999999999432,6376,0,56,106
0.09999999999999432,6376,1,56,127
0.10000000000002274,6376,2,56,127
0.09999999999999432,6376,3,56,106
0.06590909090908781,6376,4,56,114
0.09999999999999432,6376,5,56,127
0.09999999999999432,6376,6,56,127
0.09999999999999432,6376,7,56,127
0.09999999999999432,6376,8,56,94
0.09999999999999432,6376,9,56,105
0.004545454545450411,6376,10,56,104
0.09999999999999432,6376,11,56,112
0.09999999999999432,6376,12,56,116
0.09999999999999432,6376,13,56,108
0.10000000000002274,6376,14,56,113
0.09999999999999432,6376,15,56,100
0.03636363636363171,6377,0,56,107
0.004545454545450411,6377,1,56,113
0.09999999999999432,6377,2,56,127
0.10000000000002274,6377,3,56,91
0.09999999999999432,6377,4,56,127
0.09999999999999432,6377,5,56,127
0.10000000000002274,6377,6,56,127
0.01590909090910486,6377,7,56,127
0.09999999999999432,6377,8,56,127
0.09999999999999432,6377,9,56,118
0.03636363636363171,6377,10,56,124
0.09999999999999432,6377,11,56,118
0.09999999999999432,6377,12,66,127
0.10000000000000853,6377,13,66,18
0.10000000000000853,6377,14,66,78
0.09999999999999432,6377,15,66,14
0.09999999999999432,6378,0,66,125
0.10000000000000853,6378,1,66,108
0.09999999999999432,6378,2,66,4
0.09999999999999432,6378,3,66,73
0.09999999999999432,6378,4,66,13
0.09999999999999432,6378,5,66,1
0.10000000000000853,6378,6,66,125
0.10000000000000853,6378,7,66,14
0.09999999999999432,6378,8,66,1
0.10000000000000853,6378,9,66,77
0.09999999999999432,6378,10,66,12
0.09999999999999432,6378,11,66,1
0.10000000000000853,6378,12,66,120
0.09999999999999432,6378,13,66,4
0.09999999999999432,6378,14,66,106
0.10000000000000853,6378,15,66,3
0.10000000000000853,6379,0,66,76
0.10000000000000853,6379,1,66,27
0.09999999999999432,6379,2,66,127
0.09999999999999432,6379,3,66,5
0.10000000000000853,6379,4,66,13
0.09999999999999432,6379,5,66,1
0.09999999999999432,6379,6,66,76
0.10000000000000853,6379,7,66,12
0.09999999999999432,6379,8,66,1
0.10000000000000853,6379,9,66,127
0.10000000000000853,6379,10,66,5
0.09999999999999432,6379,11,66,106
0.10000000000000853,6379,12,66,4
0.10000000000000853,6379,13,66,77
0.09999999999999432,6379,14,66,12
0.10000000000000853,6379,15,66,1
0.09999999999999432,6380,0,66,122
0.09999999999999432,6380,1,66,5
0.09999999999999432,6380,2,66,14
0.09999999999999432,6380,3,66,1
0.09999999999999432,6380,4,66,74
0.10000000000000853,6380,5,66,12
0.09999999999999432,6380,6,66,1
0.09999999999999432,6380,7,66,110
0.10000000000000853,6380,8,66,4
0.09999999999999432,6380,9,66,115
0.09999999999999432,6380,10,66,3
0.10000000000000853,6380,11,66,76
0.09999999999999432,6380,12,66,27
0.10000000000000853,6380,13,66,127
0.09999999999999432,6380,14,66,15
0.09999999999999432,6380,15,66,77
0.09999999999999432,6381,0,66,12
0.09999999999999432,6381,1,66,1
0.09999999999999432,6381,2,66,121
0.10000000000000853,6381,3,66,5
0.10000000000000853,6381,4,66,100
0.09999999999999432,6381,5,66,71
0.10000000000000853,6381,6,66,13
0.09999999999999432,6381,7,66,1
0.10000000000000853,6381,8,66,119
0.09999999999999432,6381,9,66,5
0.09999999999999432,6381,10,66,14
0.10000000000000853,6381,11,66,1
0.09999999999999432,6381,12,66,75
0.09999999999999432,6381,13,66,13
0.10000000000000853,6381,14,66,1
0.09999999999999432,6381,15,66,127
0.09999999999999432,6382,0,66,4
0.10000000000000853,6382,1,66,100
0.09999999999999432,6382,2,66,3
0.09999999999999432,6382,3,66,76
0.10000000000000853,6382,4,66,8
0.09999999999999432,6382,5,66,1
0.09999999999999432,6382,6,66,120
0.10000000000000853,6382,7,66,5
0.09999999999999432,6382,8,66,12
0.09999999999999432,6382,9,66,1
0.10000000000000853,6382,10,66,74
0.09999999999999432,6382,11,66,12
0.10000000000000853,6382,12,66,1
0.10000000000000853,6382,13,66,118
0.09999999999999432,6382,14,66,5
0.09999999999999432,6382,15,66,112
0.10000000000000853,6383,0,66,4
0.09999999999999432,6383,1,66,80
0.09999999999999432,6383,2,66,12
0.09999999999999432,6383,3,66,1
0.09999999999999432,6383,4,66,127
0.10000000000000853,6383,5,66,16
0.09999999999999432,6383,6,66,1
0.10000000000000853,6383,7,66,75
0.10000000000000853,6383,8,66,13
0.09999999999999432,6383,9,66,1
0.09999999999999432,6383,10,66,114
0.09999999999999432,6383,11,66,52
0.10000000000000853,6383,12,66,4
0.10000000000000853,6383,13,66,62
0.09999999999999432,6383,14,66,17
0.09999999999999432,6383,15,66,127
0.10000000000000853,6384,0,66,13
0.09999999999999432,6384,1,66,1
0.09999999999999432,6384,2,66,66
0.10000000000000853,6384,3,66,11
0.09999999999999432,6384,4,66,1
0.10000000000000853,6384,5,66,120
0.10000000000000853,6384,6,66,4
0.09999999999999432,6384,7,66,90
0.09999999999999432,6384,8,66,3
0.10000000000000853,6384,9,66,66
0.09999999999999432,6384,10,66,13
0.10000000000000853,6384,11,66,1
0.09999999999999432,6384,12,66,121
0.09999999999999432,6384,13,66,4
0.09999999999999432,6384,14,66,13
0.09999999999999432,6384,15,66,1
0.09999999999999432,6385,0,66,66
0.10000000000000853,6385,1,66,13
0.10000000000000853,6385,2,66,1
0.09999999999999432,6385,3,66,119
0.10000000000000853,6385,4,66,99
0.09999999999999432,6385,5,66,3
0.09999999999999432,6385,6,66,63
0.10000000000002274,6385,7,66,17
0.09999999999999432,6385,8,66,112
0.09999999999999432,6385,9,66,11
0.09999999999999432,6385,10,66,1
0.09999999999999432,6385,11,66,63
0.09999999999999432,6385,12,66,11
0.09999999999999432,6385,13,66,1
0.09999999999999432,6385,14,66,115
0.09999999999999432,6385,15,66,89
0.10000000000002274,6386,0,66,3
0.09999999999999432,6386,1,66,63
0.09999999999999432,6386,2,66,13
0.09999999999999432,6386,3,66,1
0.09999999999999432,6386,4,66,116
0.09999999999999432,6386,5,66,14
0.09999999999999432,6386,6,66,1
0.09999999999999432,6386,7,66,66
0.10000000000002274,6386,8,66,14
0.09999999999999432,6386,9,66,1
0.09999999999999432,6386,10,66,123
0.09999999999999432,6386,11,66,98
0.09999999999999432,6386,12,66,3
0.10000000000002274,6386,13,66,67
0.09999999999999432,6386,14,66,15
0.09999999999999432,6386,15,66,127
0.09999999999999432,6387,0,66,4
0.09999999999999432,6387,1,66,13
0.10000000000002274,6387,2,66,1
0.09999999999999432,6387,3,66,65
0.09999999999999432,6387,4,66,12
0.09999999999999432,6387,5,66,1
0.09999999999999432,6387,6,66,109
0.10000000000002274,6387,7,66,4
0.10000000000002274,6387,8,66,99
0.09999999999999432,6387,9,66,3
0.09999999999999432,6387,10,66,71
0.10000000000002274,6387,11,66,13
0.10000000000002274,6387,12,66,1
0.10000000000002274,6387,13,66,119
0.09999999999999432,6387,14,66,13
0.09999999999999432,6387,15,66,1
0.09999999999999432,6388,0,66,69
0.09999999999999432,6388,1,66,12
0.09999999999999432,6388,2,66,1
0.09999999999999432,6388,3,66,113
0.10000000000002274,6388,4,66,60
0.09999999999999432,6388,5,66,3
0.09999999999999432,6388,6,66,62
0.09999999999999432,6388,7,66,14
0.10000000000002274,6388,8,66,127
0.09999999999999432,6388,9,66,14
0.09999999999999432,6388,10,66,1
0.09999999999999432,6388,11,66,77
0.09999999999999432,6388,12,66,12
0.10000000000002274,6388,13,66,1
0.09999999999999432,6388,14,66,125
0.09999999999999432,6388,15,66,4
0.09999999999999432,6389,0,66,101
0.09999999999999432,6389,1,66,3
0.09999999999999432,6389,2,66,69
0.09999999999999432,6389,3,66,11
0.09999999999999432,6389,4,66,1
0.09999999999999432,6389,5,66,98
0.10000000000002274,6389,6,66,13
0.09999999999999432,6389,7,66,1
0.10000000000002274,6389,8,66,74
0.09999999999999432,6389,9,66,15
0.09999999999999432,6389,10,66,1
0.10000000000002274,6389,11,66,126
0.09999999999999432,6389,12,66,127
0.09999999999999432,6389,13,66,18
0.09999999999999432,6389,14,66,62
0.09999999999999432,6389,15,66,13
0.09999999999999432,6390,0,66,127
0.09999999999999432,6390,1,66,124
0.10000000000002274,6390,2,66,5
0.10000000000002274,6390,3,66,73
0.09999999999999432,6390,4,66,16
0.09999999999999432,6390,5,66,127
0.09999999999999432,6390,6,66,19
0.09999999999999432,6390,7,66,3
0.09999999999999432,6390,8,66,80
0.10000000000002274,6390,9,66,17
0.09999999999999432,6390,10,66,127
0.09999999999999432,6390,11,66,125
0.09999999999999432,6390,12,66,76
0.09999999999999432,6390,13,66,22
0.09999999999999432,6390,14,66,127
0.09999999999999432,6390,15,66,12
0.10000000000002274,6391,0,66,3
0.09999999999999432,6391,1,66,78
0.09999999999999432,6391,2,66,15
0.09999999999999432,6391,3,66,127
0.10000000000002274,6391,4,66,117
0.09999999999999432,6391,5,66,5
0.09999999999999432,6391,6,66,66
0.10000000000002274,6391,7,66,17
0.09999999999999432,6391,8,66,127
0.09999999999999432,6391,9,66,19
0.09999999999999432,6391,10,66,3
0.09999999999999432,6391,11,66,75
0.09999999999999432,6391,12,66,17
0.09999999999999432,6391,13,66,127
0.09999999999999432,6391,14,66,127
0.09999999999999432,6391,15,66,66
0.09999999999999432,6392,0,66,26
0.09999999999999432,6392,1,66,127
0.09999999999999432,6392,2,66,13
0.09999999999999432,6392,3,66,3
0.09999999999999432,6392,4,66,72
0.09999999999999432,6392,5,66,15
0.10000000000002274,6392,6,66,3
0.09999999999999432,6392,7,66,127
0.09999999999999432,6392,8,66,126
0.09999999999999432,6392,9,66,5
0.09999999999999432,6392,10,66,69
0.09999999999999432,6392,11,66,16
0.09999999999999432,6392,12,66,3
0.09999999999999432,6392,13,66,127
0.10000000000002274,6392,14,66,17
0.09999999999999432,6392,15,66,3
0.10000000000002274,6393,0,66,76
0.09999999999999432,6393,1,66,16
0.10000000000002274,6393,2,66,127
0.09999999999999432,6393,3,66,127
0.09999999999999432,6393,4,66,5
0.09999999999999432,6393,5,66,70
0.09999999999999432,6393,6,66,24
0.09999999999999432,6393,7,66,127
0.09999999999999432,6393,8,66,15
0.09999999999999432,6393,9,66,3
0.09999999999999432,6393,10,66,73
0.09999999999999432,6393,11,66,15
0.09999999999999432,6393,12,66,3
0.09999999999999432,6393,13,66,127
0.09999999999999432,6393,14,66,122
0.10000000000002274,6393,15,66,5
0.10000000000002274,6394,0,66,68
0.09999999999999432,6394,1,66,17
0.09999999999999432,6394,2,66,127
0.09999999999999432,6394,3,66,18
0.09999999999999432,6394,4,66,3
0.09999999999999432,6394,5,66,82
0.10000000000002274,6394,6,66,19
0.09999999999999432,6394,7,66,127
0.09999999999999432,6394,8,66,127
0.09999999999999432,6394,9,66,76
0.09999999999999432,6394,10,66,25
0.09999999999999432,6394,11,66,127
0.09999999999999432,6394,12,66,16
0.10000000000002274,6394,13,66,3
0.10000000000002274,6394,14,66,73
0.09999999999999432,6394,15,66,16
0.09999999999999432,6395,0,66,3
0.09999999999999432,6395,1,66,127
0.10000000000002274,6395,2,66,127
0.09999999999999432,6395,3,66,5
0.09999999999999432,6395,4,66,71
0.10000000000002274,6395,5,66,15
0.09999999999999432,6395,6,66,2
0.10000000000002274,6395,7,66,127
0.09999999999999432,6395,8,66,23
0.09999999999999432,6395,9,66,2
0.09999999999999432,6395,10,66,81
0.09999999999999432,6395,11,66,20
0.09999999999999432,6395,12,66,66
0.09999999999999432,6395,13,66,126
0.09999999999999432,6395,14,66,63
0.09999999999999432,6395,15,66,32
0.09999999999999432,6396,0,66,127
0.09999999999999432,6396,1,66,19
0.09999999999999432,6396,2,66,2
0.09999999999999432,6396,3,66,88
0.10000000000002274,6396,4,66,19
0.10000000000002274,6396,5,66,2
0.10000000000002274,6396,6,66,127
0.09999999999999432,6396,7,66,119
0.09999999999999432,6396,8,66,73
0.09999999999999432,6396,9,66,19
0.09999999999999432,6396,10,66,2
0.09999999999999432,6396,11,66,124
0.10000000000002274,6396,12,66,20
0.09999999999999432,6396,13,66,2
0.10000000000002274,6396,14,66,80
0.09999999999999432,6396,15,66,22
0.09999999999999432,6397,0,66,2
0.10000000000002274,6397,1,66,127
0.10000000000000053,6397,2,66,13
0.09999999999999964,6397,3,66,21
0.09999999999999964,6397,4,66,23
0.10000000000000142,6397,5,66,21
0.09999999999999964,6397,6,66,28
0.10000000000000142,6397,7,66,26
0.09999999999999964,6397,8,66,22
0.09999999999999964,6397,9,66,23
0.09999999999999964,6397,10,66,25
0.09999999999999964,6397,11,66,24
0.09999999999999964,6397,12,66,23
0.10000000000000142,6397,13,66,25
0.10000000000000142,6397,14,66,27
0.09999999999999787,6397,15,66,22
0.10000000000000142,6398,0,66,25
0.10000000000000142,6398,1,66,18
0.09999999999999787,6398,2,66,21
0.10000000000000142,6398,3,66,24
0.09999999999999787,6398,4,66,28
0.09999999999999787,6398,5,66,22
0.09999999999999787,6398,6,66,23
0.10000000000000142,6398,7,66,21
0.10000000000000142,6398,8,66,22
0.10000000000000142,6398,9,66,26
0.09999999999999787,6398,10,66,20
0.10000000000000142,6398,11,66,26
0.09999999999999787,6398,12,66,26
0.10000000000000142,6398,13,66,20
0.09999999999999787,6398,14,66,21
0.10000000000000142,6398,15,66,25
0.09999999999999787,6399,0,66,32
0.10000000000000142,6399,1,66,30
0.10000000000000142,6399,2,66,32
0.10000000000000142,6399,3,66,37
0.09999999999999432,6399,4,66,29
0.10000000000000142,6399,5,66,25
0.10000000000000142,6399,6,66,31
0.10000000000000142,6399,7,66,25
0.10000000000000142,6399,8,66,35
0.10000000000000142,6399,9,66,31
0.10000000000000142,6399,10,66,29
0.10000000000000142,6399,11,66,25
0.10000000000000142,6399,12,66,37
0.09999999999999432,6399,13,66,26
0.10000000000000142,6399,14,66,34
0.10000000000000142,6399,15,66,28
0.10000000000000142,6400,0,66,32
0.09999999999999432,6400,1,66,31
0.10000000000000142,6400,2,66,30
0.10000000000000142,6400,3,66,30
0.09999999999999432,6400,4,66,43
0.10000000000000142,6400,5,66,41
0.09999999999999432,6400,6,66,27
0.10000000000000142,6400,7,66,28
0.09999999999999432,6400,8,66,28
0.10000000000000142,6400,9,66,30
0.10000000000000142,6400,10,66,31
0.10000000000000142,6400,11,66,25
0.10000000000000142,6400,12,66,34
0.10000000000000142,6400,13,66,22
0.09999999999999432,6400,14,66,35
0.10000000000000142,6400,15,66,29
0.09999999999999432,6401,0,66,37
0.10000000000000142,6401,1,66,33
0.06818181818182012,6401,2,66,42
0.10000000000000142,6401,3,66,47
0.09999999999999432,6401,4,66,34
0.10000000000000853,6401,5,66,35
0.09999999999999432,6401,6,66,29
0.09999999999999432,6401,7,66,31
0.10000000000000853,6401,8,66,27
0.09999999999999432,6401,9,66,24
0.09999999999999432,6401,10,66,26
0.09999999999999432,6401,11,66,31
0.09999999999999432,6401,12,66,24
0.10000000000000853,6401,13,66,21
0.10000000000000853,6401,14,66,29
0.09999999999999432,6401,15,66,30
0.09999999999999432,6402,0,66,29
0.09999999999999432,6402,1,66,34
0.09999999999999432,6402,2,66,24
0.10000000000000853,6402,3,66,27
0.10000000000000853,6402,4,66,33
0.09999999999999432,6402,5,66,24
0.09999999999999432,6402,6,66,37
0.10000000000000853,6402,7,66,27
0.10000000000000853,6402,8,66,24
0.10000000000000853,6402,9,66,23
0.09999999999999432,6402,10,66,25
0.09999999999999432,6402,11,66,31
0.09999999999999432,6402,12,66,31
0.09999999999999432,6402,13,66,36
0.09999999999999432,6402,14,66,26
0.09999999999999432,6402,15,66,33
0.10000000000000853,6403,0,66,26
0.09999999999999432,6403,1,66,28
0.10000000000000853,6403,2,66,29
0.09999999999999432,6403,3,66,31
0.10000000000000853,6403,4,66,31
0.10000000000000853,6403,5,66,30
0.09999999999999432,6403,6,66,24
0.09999999999999432,6403,7,66,29
0.09999999999999432,6403,8,66,26
0.09999999999999432,6403,9,66,53
0.09999999999999432,6403,10,66,35
0.10000000000000853,6403,11,66,27
0.09999999999999432,6403,12,66,30
0.09999999999999432,6403,13,66,20
0.10000000000000853,6403,14,66,40
0.09999999999999432,6403,15,66,20
0.09999999999999432,6404,0,66,21
0.09999999999999432,6404,1,66,28
0.09999999999999432,6404,2,66,40
0.10000000000000853,6404,3,66,32
0.10000000000000853,6404,4,66,33
0.09999999999999432,6404,5,66,28
0.10000000000000853,6404,6,66,29
0.09999999999999432,6404,7,66,32
0.10000000000000853,6404,8,66,29
0.09999999999999432,6404,9,66,37
0.10000000000000853,6404,10,66,48
0.09999999999999432,6404,11,66,28
0.10000000000000853,6404,12,66,30
0.09999999999999432,6404,13,66,31
0.09999999999999432,6404,14,66,26
0.10000000000000853,6404,15,66,31
0.10000000000000853,6405,0,66,28
0.10000000000000853,6405,1,66,30
0.09999999999999432,6405,2,66,27
0.10000000000000853,6405,3,66,29
0.09999999999999432,6405,4,66,27
0.10000000000000853,6405,5,66,24
0.10000000000000853,6405,6,66,29
0.10000000000000853,6405,7,66,28
0.09999999999999432,6405,8,66,21
0.10000000000000853,6405,9,66,34
0.09999999999999432,6405,10,66,35
0.09999999999999432,6405,11,66,33
0.10000000000000853,6405,12,66,32
0.09999999999999432,6405,13,66,35
0.10000000000000853,6405,14,66,27
0.09999999999999432,6405,15,66,25
0.09999999999999432,6406,0,66,32
0.09999999999999432,6406,1,66,31
0.09999999999999432,6406,2,66,28
0.09999999999999432,6406,3,66,33
0.10000000000000853,6406,4,66,30
0.09999999999999432,6406,5,66,31
0.09999999999999432,6406,6,66,32
0.09999999999999432,6406,7,66,29
0.09999999999999432,6406,8,66,28
0.09999999999999432,6406,9,66,19
0.09999999999999432,6406,10,66,28
0.09999999999999432,6406,11,66,29
0.09999999999999432,6406,12,66,31
0.09999999999999432,6406,13,66,30
0.09999999999999432,6406,14,66,28
0.10000000000002274,6406,15,66,34
0.09999999999999432,6407,0,66,32
0.09999999999999432,6407,1,66,35
0.09999999999999432,6407,2,66,36
0.10000000000002274,6407,3,66,26
0.09999999999999432,6407,4,66,25
0.10000000000002274,6407,5,66,32
0.09999999999999432,6407,6,66,26
0.09999999999999432,6407,7,66,27
0.09999999999999432,6407,8,66,30
0.09999999999999432,6407,9,66,28
0.10000000000002274,6407,10,66,23
0.10000000000002274,6407,11,66,27
0.09999999999999432,6407,12,66,27
0.10000000000002274,6407,13,66,30
0.09999999999999432,6407,14,66,33
0.09999999999999432,6407,15,66,31
0.10000000000002274,6408,0,66,25
0.09999999999999432,6408,1,66,22
0.09999999999999432,6408,2,66,22
0.10000000000002274,6408,3,66,17
0.09999999999999432,6408,4,66,27
0.09999999999999432,6408,5,66,28
0.09999999999999432,6408,6,66,28
0.09999999999999432,6408,7,66,24
0.10000000000002274,6408,8,66,30
0.09999999999999432,6408,9,66,34
0.09999999999999432,6408,10,66,21
0.09999999999999432,6408,11,66,21
0.09999999999999432,6408,12,66,23
0.09999999999999432,6408,13,66,25
0.09999999999999432,6408,14,66,26
0.09999999999999432,6408,15,66,40
0.10000000000002274,6409,0,66,29
0.09999999999999432,6409,1,66,25
0.09999999999999432,6409,2,66,26
0.09999999999999432,6409,3,66,22
0.09999999999999432,6409,4,66,30
0.10000000000002274,6409,5,66,28
0.09999999999999432,6409,6,66,29
0.09999999999999432,6409,7,66,26
0.10000000000002274,6409,8,66,24
0.09999999999999432,6409,9,66,18
0.09999999999999432,6409,10,66,24
0.09999999999999432,6409,11,66,29
0.09999999999999432,6409,12,66,25
0.10000000000002274,6409,13,66,35
0.09999999999999432,6409,14,66,28
0.09999999999999432,6409,15,66,28
0.09999999999999432,6410,0,66,36
0.09999999999999432,6410,1,66,27
0.10000000000002274,6410,2,66,17
0.10000000000002274,6410,3,66,16
0.09999999999999432,6410,4,66,24
0.09999999999999432,6410,5,66,23
0.10000000000002274,6410,6,66,19
0.10000000000002274,6410,7,66,17
0.09999999999999432,6410,8,66,18
0.09999999999999432,6410,9,66,26
0.09999999999999432,6410,10,66,21
0.09999999999999432,6410,11,66,31
0.10000000000002274,6410,12,66,36
0.09999999999999432,6410,13,66,36
0.09999999999999432,6410,14,66,31
0.09999999999999432,6410,15,66,43
0.09999999999999432,6411,0,66,33
0.09999999999999432,6411,1,66,30
0.09999999999999432,6411,2,66,20
0.10000000000002274,6411,3,66,34
0.09999999999999432,6411,4,66,44
0.09999999999999432,6411,5,66,37
0.09999999999999432,6411,6,66,22
0.09999999999999432,6411,7,66,36
0.09999999999999432,6411,8,66,41
0.09999999999999432,6411,9,66,34
0.09999999999999432,6411,10,66,25
0.09999999999999432,6411,11,66,41
0.09999999999999432,6411,12,66,58
0.09999999999999432,6411,13,62,5
0.09999999999999432,6411,14,62,17
0.09999999999999432,6411,15,62,29
0.09999999999999432,6412,0,62,41
0.09999999999999432,6412,1,62,31
0.10000000000002274,6412,2,62,24
0.09999999999999432,6412,3,62,32
0.09999999999999432,6412,4,62,20
0.09999999999999432,6412,5,62,19
0.09999999999999432,6412,6,62,29
0.09999999999999432,6412,7,62,26
0.09999999999999432,6412,8,62,29
0.09999999999999432,6412,9,62,21
0.024999999999977263,6412,10,62,24
0.09999999999999432,6412,11,62,24
0.09999999999999432,6412,12,62,27
0.09999999999999432,6412,13,62,21
0.09999999999999432,6412,14,62,29
0.09999999999999432,6412,15,62,29
0.03409090909090651,6413,0,62,29
0.09999999999999432,6413,1,62,26
0.09999999999999432,6413,2,62,23
0.09999999999999432,6413,3,62,28
0.09999999999999432,6413,4,62,26
0.09999999999999432,6413,5,62,22
0.10000000000002274,6413,6,62,18
0.10000000000002274,6413,7,62,16
0.09999999999999432,6413,8,62,14
0.09999999999999432,6413,9,62,18
0.09999999999999432,6413,10,62,24
0.09999999999999432,6413,11,62,11
0.09999999999999432,6413,12,62,10
0.09999999999999432,6413,13,62,10
0.09999999999999432,6413,14,62,7
0.09999999999999432,6413,15,62,6
0.10000000000002274,6414,0,62,15
0.09999999999999432,6414,1,62,8
0.09999999999999432,6414,2,62,12
0.09999999999999432,6414,3,62,11
0.09999999999999432,6414,4,62,8
0.09999999999999432,6414,5,62,10
0.09999999999999432,6414,6,62,14
0.09999999999999964,6414,7,73,2
0.10000000000000053,6414,8,73,48
0.10000000000000053,6414,9,73,97
0.10000000000000053,6414,10,73,38
0.10000000000000053,6414,11,73,79
0.09999999999999964,6414,12,73,72
0.09999999999999964,6414,13,73,43
0.09999999999999964,6414,14,73,78
0.09999999999999964,6414,15,73,38
0.09999999999999964,6415,0,73,52
0.09999999999999964,6415,1,73,46
0.09999999999999964,6415,2,73,54
0.09999999999999964,6415,3,73,55
0.09999999999999964,6415,4,73,69
0.09999999999999964,6415,5,73,73
0.09999999999999964,6415,6,73,41
0.09999999999999964,6415,7,73,61
0.09999999999999964,6415,8,73,47
0.10000000000000142,6415,9,73,30
0.09999999999999787,6415,10,73,61
0.10000000000000142,6415,11,73,45
0.09999999999999787,6415,12,73,3
0.09999999999999787,6415,13,73,65
0.10000000000000142,6415,14,73,79
0.10000000000000142,6415,15,73,81
0.09999999999999787,6416,0,73,49
0.09999999999999787,6416,1,73,26
0.09999999999999787,6416,2,73,36
0.10000000000000142,6416,3,73,33
0.09999999999999787,6416,4,73,53
0.10000000000000142,6416,5,73,42
0.09999999999999787,6416,6,73,56
0.10000000000000142,6416,7,73,74
0.09999999999999787,6416,8,73,83
0.10000000000000142,6416,9,73,65
0.10000000000000142,6416,10,73,73
0.10000000000000142,6416,11,73,55
0.10000000000000142,6416,12,73,14
0.10000000000000142,6416,13,73,51
0.10000000000000142,6416,14,73,73
0.10000000000000142,6416,15,73,67
0.09999999999999787,6417,0,73,31
0.09999999999999787,6417,1,73,31
0.10000000000000142,6417,2,73,39
0.10000000000000142,6417,3,73,68
0.10000000000000142,6417,4,73,100
0.09999999999999432,6417,5,73,60
0.09999999999999432,6417,6,73,75
0.09999999999999432,6417,7,73,60
0.10000000000000142,6417,8,73,45
0.10000000000000142,6417,9,73,76
0.10000000000000142,6417,10,73,66
0.09999999999999432,6417,11,73,13
0.10000000000000142,6417,12,73,59
0.10000000000000142,6417,13,73,72
0.10000000000000142,6417,14,73,38
0.10000000000000142,6417,15,73,53
0.10000000000000142,6418,0,73,30
0.10000000000000142,6418,1,73,57
0.10000000000000142,6418,2,73,53
0.10000000000000142,6418,3,73,55
0.10000000000000142,6418,4,73,77
0.10000000000000142,6418,5,73,72
0.10000000000000142,6418,6,73,58
0.10000000000000142,6418,7,73,38
0.10000000000000142,6418,8,73,71
0.10000000000000142,6418,9,73,27
0.10000000000000142,6418,10,73,78
0.09999999999999432,6418,11,73,78
0.10000000000000142,6418,12,73,117
0.10000000000000142,6418,13,73,72
0.10000000000000142,6418,14,73,66
0.09999999999999432,6418,15,73,71
0.10000000000000142,6419,0,73,71
0.10000000000000142,6419,1,73,2
0.01590909090909065,6419,2,73,101
0.10000000000000142,6419,3,73,127
0.10000000000000142,6419,4,73,127
0.09999999999999432,6419,5,73,127
0.10000000000000142,6419,6,73,104
0.10000000000000142,6419,7,73,114
0.10000000000000142,6419,8,73,44
0.10000000000000142,6419,9,73,85
0.10000000000000142,6419,10,73,80
0.09999999999999432,6419,11,73,56
0.10000000000000142,6419,12,73,93
0.09999999999999432,6419,13,73,127
0.10000000000000142,6419,14,73,127
0.09999999999999432,6419,15,73,94
0.10000000000000142,6420,0,73,70
0.09999999999999432,6420,1,73,127
0.10000000000000142,6420,2,73,127
0.10000000000000142,6420,3,73,99
0.10000000000000142,6420,4,73,92
0.10000000000000142,6420,5,73,94
0.10000000000000142,6420,6,73,105
0.10000000000000142,6420,7,73,41
0.10000000000000142,6420,8,73,115
0.10000000000000142,6420,9,73,127
0.10000000000000142,6420,10,73,91
0.09999999999999432,6420,11,73,39
0.09999999999999432,6420,12,73,81
0.09999999999999432,6420,13,73,90
0.09999999999999432,6420,14,73,93
0.10000000000000853,6420,15,73,74
0.10000000000000853,6421,0,73,78
0.09999999999999432,6421,1,73,45
0.09999999999999432,6421,2,73,87
0.10000000000000853,6421,3,73,74
0.09999999999999432,6421,4,73,52
0.10000000000000853,6421,5,73,49
0.10000000000000853,6421,6,73,81
0.045454545454546746,6421,7,73,115
0.09999999999999432,6421,8,73,84
0.09999999999999432,6421,9,73,105
0.10000000000000853,6421,10,73,83
0.09999999999999432,6421,11,73,79
0.09999999999999432,6421,12,73,72
0.09999999999999432,6421,13,73,82
0.10000000000000853,6421,14,73,45
0.10000000000000853,6421,15,73,75
0.09999999999999432,6422,0,73,53
0.09999999999999432,6422,1,73,91
0.09999999999999432,6422,2,73,42
0.10000000000000853,6422,3,73,91
0.10000000000000853,6422,4,73,85
0.09999999999999432,6422,5,73,80
0.10000000000000853,6422,6,73,53
0.09999999999999432,6422,7,73,54
0.09999999999999432,6422,8,73,65
0.09999999999999432,6422,9,73,43
0.05909090909089798,6422,10,73,87
0.09999999999999432,6422,11,73,55
0.10000000000000853,6422,12,73,93
0.09999999999999432,6422,13,73,55
0.10000000000000853,6422,14,73,73
0.10000000000000853,6422,15,73,36
0.10000000000000853,6423,0,73,60
0.09999999999999432,6423,1,73,85
0.10000000000000853,6423,2,73,90
0.09999999999999432,6423,3,73,40
0.10000000000000853,6423,4,73,89
0.09999999999999432,6423,5,73,94
0.10000000000000853,6423,6,73,83
0.10000000000000853,6423,7,73,42
0.10000000000000853,6423,8,73,52
0.09999999999999432,6423,9,73,72
0.09999999999999432,6423,10,73,81
0.10000000000000853,6423,11,73,76
0.09999999999999432,6423,12,73,61
0.09999999999999432,6423,13,73,93
0.03636363636363171,6423,14,73,125
0.10000000000000853,6423,15,73,94
0.09999999999999432,6424,0,73,100
0.09999999999999432,6424,1,73,32
0.06818181818181301,6424,2,73,53
0.09999999999999432,6424,3,73,107
0.10000000000000853,6424,4,73,78
0.09999999999999432,6424,5,73,102
0.09999999999999432,6424,6,73,90
0.09999999999999432,6424,7,73,57
0.10000000000000853,6424,8,73,82
0.09999999999999432,6424,9,73,99
0.09999999999999432,6424,10,73,75
0.09999999999999432,6424,11,73,5
0.09999999999999432,6424,12,73,118
0.09999999999999432,6424,13,73,65
0.10000000000000853,6424,14,73,76
0.09999999999999432,6424,15,73,69
0.09999999999999432,6425,0,73,111
0.09999999999999432,6425,1,73,96
0.09999999999999432,6425,2,73,58
0.10000000000000853,6425,3,73,80
0.10000000000002274,6425,4,73,66
0.10000000000002274,6425,5,73,93
0.10000000000002274,6425,6,73,104
0.09999999999999432,6425,7,73,100
0.10000000000002274,6425,8,73,66
0.10000000000002274,6425,9,73,107
0.09999999999999432,6425,10,73,70
0.09999999999999432,6425,11,73,61
0.09999999999999432,6425,12,73,89
0.10000000000002274,6425,13,73,61
0.09999999999999432,6425,14,73,89
0.09999999999999432,6425,15,73,88
0.09999999999999432,6426,0,73,120
0.09999999999999432,6426,1,73,123
0.09999999999999432,6426,2,73,127
0.10000000000002274,6426,3,73,127
0.09999999999999432,6426,4,73,106
0.09999999999999432,6426,5,73,89
0.09999999999999432,6426,6,73,119
0.09999999999999432,6426,7,73,56
0.09999999999999432,6426,8,73,86
0.09999999999999432,6426,9,73,28
0.09999999999999432,6426,10,73,104
0.09999999999999432,6426,11,73,82
0.10000000000002274,6426,12,73,97
0.09999999999999432,6426,13,73,108
0.09999999999999432,6426,14,73,57
0.09999999999999432,6426,15,73,102
0.09999999999999432,6427,0,73,42
0.09999999999999432,6427,1,73,116
0.09999999999999432,6427,2,73,8
0.10000000000002274,6427,3,73,127
0.10000000000002274,6427,4,73,85
0.09999999999999432,6427,5,73,53
0.03636363636363171,6427,6,73,115
0.09999999999999432,6427,7,73,4
0.09999999999999432,6427,8,73,127
0.09999999999999432,6427,9,73,127
0.09999999999999432,6427,10,73,127
0.10000000000002274,6427,11,73,127
0.09999999999999432,6427,12,73,46
0.09999999999999432,6427,13,73,115
0.10000000000002274,6427,14,73,93
0.09999999999999432,6427,15,73,127
0.10000000000002274,6428,0,73,53
0.09999999999999432,6428,1,73,96
0.10000000000002274,6428,2,73,127
0.09999999999999432,6428,3,73,66
0.09999999999999432,6428,4,73,71
0.09999999999999432,6428,5,73,85
0.09999999999999432,6428,6,73,127
0.09999999999999432,6428,7,73,127
0.09999999999999432,6428,8,73,124
0.10000000000002274,6428,9,73,105
0.09999999999999432,6428,10,73,73
0.10000000000002274,6428,11,73,91
0.09999999999999432,6428,12,73,67
0.09999999999999432,6428,13,73,82
0.09999999999999432,6428,14,73,92
0.10000000000002274,6428,15,73,127
0.10000000000002274,6429,0,73,109
0.09999999999999432,6429,1,73,98
0.10000000000002274,6429,2,73,127
0.09999999999999432,6429,3,73,112
0.09999999999999432,6429,4,73,58
0.09999999999999432,6429,5,73,79
0.10000000000002274,6429,6,73,100
0.10000000000002274,6429,7,73,111
0.09999999999999432,6429,8,73,115
0.09999999999999432,6429,9,73,98
0.10000000000002274,6429,10,73,113
0.09999999999999432,6429,11,73,83
0.10000000000002274,6429,12,73,114
0.09999999999999432,6429,13,73,97
0.09999999999999432,6429,14,73,69
0.09999999999999432,6429,15,73,109
0.09999999999999432,6430,0,73,77
0.09999999999999432,6430,1,73,89
0.09999999999999432,6430,2,73,108
0.09999999999999432,6430,3,73,127
0.10000000000002274,6430,4,73,95
0.09999999999999432,6430,5,73,127
0.09999999999999432,6430,6,73,127
0.09999999999999432,6430,7,73,70
0.10000000000002274,6430,8,73,127
0.09999999999999432,6430,9,73,92
0.09999999999999432,6430,10,73,119
0.09999999999999432,6430,11,73,72
0.09999999999999432,6430,12,73,127
0.09999999999999432,6430,13,73,90
0.10000000000002274,6430,14,73,72
0.09999999999999432,6430,15,73,78
0.09999999999999432,6431,0,73,52
0.09999999999999432,6431,1,73,74
0.09999999999999432,6431,2,73,116
0.09999999999999432,6431,3,73,125
0.09999999999999432,6431,4,73,103
0.09999999999999432,6431,5,73,83
0.09999999999999432,6431,6,73,127
0.09999999999999432,6431,7,73,90
0.09999999999999432,6431,8,73,115
0.09999999999999432,6431,9,73,120
0.013636363636379656,6431,10,73,127
0.09999999999999432,6431,11,73,110
0.09999999999999432,6431,12,73,82
0.09999999999999432,6431,13,73,108
0.09999999999999432,6431,14,73,98
0.10000000000002274,6431,15,73,106
0.09999999999999432,6432,0,73,119
0.09999999999999432,6432,1,73,45
0.10000000000002274,6432,2,73,115
0.09999999999999432,6432,3,73,127
0.09999999999999432,6432,4,73,88
0.09999999999999432,6432,5,73,127
0.09999999999999432,6432,6,73,127
0.09999999999999432,6432,7,73,87
0.09999999999999432,6432,8,73,72
0.09999999999999432,6432,9,73,92
0.10000000000002274,6432,10,73,67
0.09999999999999432,6432,11,73,59
0.09999999999999432,6432,12,73,5
0.09999999999999787,6432,13,60,90
0.04772727272727195,6432,14,60,90
0.09999999999999787,6432,15,60,90
0.09999999999999787,6433,0,60,90
0.06818181818181657,6433,1,60,90
0.10000000000000142,6433,2,60,90
0.09999999999999787,6433,3,60,90
0.036363636363635266,6433,4,60,90
0.10000000000000142,6433,5,60,90
0.10000000000000142,6433,6,60,90
0.02500000000000213,6433,7,60,90
0.10000000000000142,6433,8,60,90
0.10000000000000142,6433,9,60,90
0.10000000000000142,6433,10,60,90
0.06818181818182012,6433,11,60,90
0.10000000000000142,6433,12,60,90
0.10000000000000142,6433,13,60,90
0.02500000000000213,6433,14,60,90
0.10000000000000142,6433,15,60,90
0.10000000000000142,6434,0,60,90
0.09999999999999787,6434,1,60,90
0.05681818181817988,6434,2,60,90
0.09999999999999787,6434,3,60,90
0.10000000000000142,6434,4,60,90
0.05681818181818343,6434,5,60,90
0.10000000000000142,6434,6,60,90
0.045454545454546746,6434,7,60,90
0.10000000000000142,6434,8,60,90
0.10000000000000142,6434,9,60,90
0.10000000000000142,6434,10,60,90
0.10000000000000142,6434,11,60,90
0.09999999999999787,6434,12,60,90
0.10000000000000497,6434,13,60,90
0.10000000000000142,6434,14,60,90
0.10000000000000142,6434,15,60,90
0.06818181818182012,6435,0,60,90
0.10000000000000142,6435,1,60,90
0.004545454545457517,6435,2,60,90
0.10000000000000142,6435,3,60,90
0.10000000000000142,6435,4,60,90
0.10000000000000142,6435,5,60,90
0.10000000000000142,6435,6,60,90
0.10000000000000142,6435,7,60,90
0.10000000000000142,6435,8,60,90
0.06818181818182012,6435,9,60,90
0.10000000000000142,6435,10,60,90
0.10000000000000142,6435,11,60,90
0.10000000000000142,6435,12,60,90
0.10000000000000142,6435,13,60,90
0.06818181818182012,6435,14,60,90
0.10000000000000142,6435,15,60,90
0.10000000000000142,6436,0,60,90
0.10000000000000142,6436,1,60,90
0.10000000000000142,6436,2,60,90
0.10000000000000142,6436,3,60,90
0.10000000000000142,6436,4,60,90
0.10000000000000142,6436,5,60,90
0.10000000000000142,6436,6,60,90
0.10000000000000142,6436,7,60,90
0.10000000000000142,6436,8,60,90
0.10000000000000142,6436,9,60,90
0.10000000000000142,6436,10,60,90
0.10000000000000142,6436,11,60,90
0.10000000000000142,6436,12,60,90
0.10000000000000142,6436,13,60,90
0.10000000000000142,6436,14,60,90
0.09999999999999432,6436,15,60,90
0.09999999999999432,6437,0,60,90
0.10000000000000142,6437,1,60,90
0.10000000000000142,6437,2,60,90
0.10000000000000142,6437,3,60,90
0.09999999999999432,6437,4,60,90
0.10000000000000142,6437,5,60,90
0.045454545454546746,6437,6,60,90
0.004545454545457517,6437,7,60,90
0.09999999999999432,6437,8,60,90
0.06818181818181301,6437,9,60,90
0.09999999999999432,6437,10,60,90
0.09999999999999432,6437,11,60,90
0.06818181818181301,6437,12,60,90
0.10000000000000142,6437,13,60,90
0.004545454545450411,6437,14,60,90
0.10000000000000142,6437,15,60,90
0.10000000000000142,6438,0,60,90
0.10000000000000142,6438,1,60,90
0.10000000000000142,6438,2,60,90
0.10000000000000142,6438,3,60,90
0.056818181818186986,6438,4,60,90
0.10000000000000142,6438,5,60,90
0.10000000000000142,6438,6,60,90
0.06590909090909491,6438,7,60,90
0.10000000000000142,6438,8,60,90
0.10000000000000142,6438,9,60,90
0.10000000000000142,6438,10,60,90
0.10000000000000142,6438,11,60,90
0.09999999999999432,6438,12,60,90
0.06818181818181301,6438,13,60,90
0.09999999999999432,6438,14,60,90
0.10000000000000142,6438,15,60,90
0.10000000000000853,6439,0,60,90
0.09999999999999432,6439,1,60,90
0.09999999999999432,6439,2,60,90
0.10000000000000853,6439,3,60,90
0.045454545454546746,6439,4,60,90
0.09999999999999432,6439,5,60,90
0.045454545454546746,6439,6,60,90
0.004545454545464622,6439,7,60,90
0.10000000000000853,6439,8,60,90
0.10000000000000853,6439,9,60,90
0.10000000000000853,6439,10,60,90
0.013636363636365445,6439,11,60,90
0.09999999999999432,6439,12,60,90
0.09999999999999432,6439,13,60,90
0.09999999999999432,6439,14,60,90
0.004545454545450411,6439,15,60,90
0.024999999999991473,6440,0,60,90
0.09999999999999432,6440,1,60,90
0.024999999999991473,6440,2,60,90
0.09999999999999432,6440,3,60,90
0.09999999999999432,6440,4,60,90
0.10000000000000853,6440,5,60,90
0.09999999999999432,6440,6,60,90
0.10000000000000853,6440,7,60,90
0.09999999999999432,6440,8,60,90
0.09999999999999432,6440,9,60,90
0.04772727272727195,6440,10,60,90
0.09999999999999432,6440,11,60,90
0.004545454545450411,6440,12,60,90
0.09999999999999432,6440,13,60,90
0.09999999999999432,6440,14,60,90
0.10000000000000853,6440,15,60,90
0.10000000000000853,6441,0,60,90
0.10000000000000853,6441,1,60,90
0.09999999999999432,6441,2,60,90
0.06818181818181301,6441,3,60,90
0.10000000000000853,6441,4,60,90
0.09999999999999432,6441,5,60,90
0.025000000000005684,6441,6,60,90
0.09999999999999432,6441,7,60,90
0.06818181818181301,6441,8,60,90
0.10000000000000853,6441,9,60,90
0.10000000000000853,6441,10,60,90
0.09999999999999432,6441,11,60,90
0.10000000000000853,6441,12,60,90
0.10000000000000853,6441,13,60,90
0.09999999999999432,6441,14,60,90
0.10000000000000853,6441,15,60,90
0.09999999999999432,6442,0,60,90
0.10000000000000853,6442,1,60,90
0.09999999999999432,6442,2,60,90
0.10000000000000853,6442,3,60,90
0.05909090909091219,6442,4,60,90
0.01590909090909065,6442,5,60,90
0.09999999999999432,6442,6,60,90
0.09999999999999432,6442,7,60,90
0.09999999999999432,6442,8,60,90
0.10000000000000853,6442,9,60,90
0.10000000000000853,6442,10,60,90
0.09999999999999432,6442,11,60,90
0.09999999999999432,6442,12,60,90
0.09999999999999432,6442,13,60,90
0.09999999999999432,6442,14,60,90
0.06818181818181301,6442,15,60,90
0.10000000000000853,6443,0,60,90
0.10000000000000853,6443,1,60,90
0.09999999999999432,6443,2,60,90
0.09999999999999432,6443,3,60,90
0.10000000000000853,6443,4,60,90
0.10000000000000853,6443,5,60,90
0.09999999999999432,6443,6,60,90
0.09999999999999432,6443,7,60,90
0.09999999999999432,6443,8,60,90
0.10000000000000853,6443,9,60,90
0.09999999999999432,6443,10,60,90
0.09999999999999432,6443,11,60,90
0.10000000000000853,6443,12,60,90
0.10000000000000853,6443,13,60,90
0.09999999999999432,6443,14,60,90
0.06590909090908781,6443,15,60,90
0.09999999999999432,6444,0,60,90
0.09999999999999432,6444,1,60,90
0.09999999999999432,6444,2,60,90
0.09999999999999432,6444,3,60,90
0.06818181818181301,6444,4,60,90
0.10000000000000853,6444,5,60,90
0.10000000000000853,6444,6,60,90
0.09999999999999432,6444,7,60,90
0.05909090909091219,6444,8,60,90
0.09999999999999432,6444,9,60,90
0.09999999999999432,6444,10,60,90
0.09999999999999432,6444,11,60,90
0.09999999999999432,6444,12,60,90
0.10000000000000853,6444,13,60,90
0.09999999999999432,6444,14,60,90
0.09999999999999432,6444,15,60,90
0.09999999999999432,6445,0,60,90
0.09999999999999432,6445,1,60,90
0.10000000000000853,6445,2,60,90
0.09999999999999432,6445,3,60,90
0.09999999999999432,6445,4,60,90
0.10000000000002274,6445,5,60,90
0.10000000000002274,6445,6,60,90
0.09999999999999432,6445,7,60,90
0.09999999999999432,6445,8,60,90
0.09999999999999432,6445,9,60,90
0.09999999999999432,6445,10,60,90
0.09999999999999432,6445,11,60,90
0.10000000000002274,6445,12,60,90
0.09999999999999432,6445,13,60,90
0.09999999999999432,6445,14,60,90
0.09999999999999432,6445,15,60,90
0.10000000000002274,6446,0,60,90
0.10000000000002274,6446,1,60,90
0.10000000000002274,6446,2,60,90
0.09999999999999432,6446,3,60,90
0.09999999999999432,6446,4,60,90
0.10000000000002274,6446,5,60,90
0.09999999999999432,6446,6,60,90
0.10000000000002274,6446,7,60,90
0.10000000000002274,6446,8,60,90
0.09999999999999432,6446,9,60,90
0.09999999999999432,6446,10,60,90
0.09999999999999432,6446,11,60,90
0.09999999999999432,6446,12,60,90
0.09999999999999432,6446,13,60,90
0.09999999999999432,6446,14,60,90
0.09999999999999432,6446,15,60,90
0.09999999999999432,6447,0,60,90
0.09999999999999432,6447,1,60,90
0.09999999999999432,6447,2,60,90
0.03636363636363171,6447,3,60,90
0.10000000000002274,6447,4,60,90
0.10000000000002274,6447,5,60,90
0.10000000000002274,6447,6,60,90
0.09999999999999432,6447,7,60,90
0.09999999999999432,6447,8,60,90
0.09999999999999432,6447,9,60,90
0.09999999999999432,6447,10,60,90
0.09999999999999432,6447,11,60,90
0.004545454545450411,6447,12,60,90
0.10000000000002274,6447,13,60,90
0.09999999999999432,6447,14,60,90
0.09999999999999432,6447,15,60,90
0.09999999999999432,6448,0,60,90
0.09999999999999432,6448,1,60,90
0.09999999999999432,6448,2,60,90
0.09999999999999432,6448,3,60,90
0.10000000000002274,6448,4,60,90
0.09999999999999432,6448,5,60,90
0.10000000000002274,6448,6,60,90
0.09999999999999432,6448,7,60,90
0.10000000000002274,6448,8,60,90
0.09999999999999432,6448,9,60,90
0.09999999999999432,6448,10,60,90
0.09999999999999432,6448,11,60,90
0.04545454545456096,6448,12,60,90
0.09999999999999432,6448,13,60,90
0.10000000000002274,6448,14,60,90
0.09999999999999432,6448,15,60,90
0.09999999999999432,6449,0,60,90
0.09999999999999432,6449,1,60,90
0.09999999999999432,6449,2,60,90
0.06818181818181301,6449,3,60,90
0.025000000000005684,6449,4,60,90
0.09999999999999432,6449,5,60,90
0.09999999999999432,6449,6,60,90
0.09999999999999432,6449,7,60,90
0.056818181818186986,6449,8,60,90
0.10000000000002274,6449,9,60,90
0.09999999999999432,6449,10,60,90
0.10000000000002274,6449,11,60,90
0.09999999999999432,6449,12,60,90
0.09999999999999432,6449,13,60,90
0.01590909090907644,6449,14,60,90
0.09999999999999432,6449,15,60,90
0.09999999999999432,6450,0,60,90
0.09999999999999432,6450,1,60,90
0.02727272727273089,6450,2,60,90
0.10000000000002274,6450,3,60,90
0.01590909090910486,6450,4,60,90
0.09999999999999432,6450,5,60,90
0.10000000000002274,6450,6,60,90
0.09999999999999432,6450,7,60,90
0.09999999999999432,6450,8,60,90
0.09999999999999432,6450,9,60,90
0.09999999999999432,6450,10,60,90
0.09999999999999432,6450,11,60,90
0.09999999999999432,6450,12,60,90
0.09999999999999432,6450,13,60,90
0.09999999999999432,6450,14,60,90
0.10000000000002274,6450,15,60,90
0.06818181818184144,6451,0,60,90
0.0022727272727252057,6451,1,60,90
0.09999999999999432,6451,2,60,90
0.09999999999999432,6451,3,60,90
0.09999999999999432,6451,4,60,90
0.056818181818186986,6451,5,60,90
0.004545454545450411,6451,6,60,90
0.09999999999999432,6451,7,60,90
0.09999999999999432,6451,8,60,90
0.024999999999977263,6451,9,60,90
0.09999999999999432,6451,10,60,90
0.09999999999999432,6451,11,60,90
0.09999999999999432,6451,12,60,90
0.09999999999999432,6451,13,60,90
0.09999999999999432,6451,14,60,90
0.09999999999999432,6451,15,60,90
0.10000000000002274,6452,0,60,90
0.09999999999999432,6452,1,60,90
0.09999999999999432,6452,2,60,90
0.09999999999999432,6452,3,60,90
0.09999999999999432,6452,4,60,90
0.09999999999999432,6452,5,60,90
0.09999999999999432,6452,6,60,90
0.09999999999999432,6452,7,60,90
0.09999999999999432,6452,8,60,90
0.09999999999999432,6452,9,60,90
0.09999999999999432,6452,10,60,90
0.10000000000002274,6452,11,60,90
0.09999999999999432,6452,12,60,90
0.09999999999999432,6452,13,60,90
0.09999999999999432,6452,14,60,90
0.09999999999999432,6452,15,60,90
0.09999999999999432,6453,0,60,90
0.09999999999999432,6453,1,60,90
0.10000000000002274,6453,2,60,90
0.09999999999999432,6453,3,60,90
0.09999999999999432,6453,4,60,90
0.025000000000005684,6453,5,60,90
0.09999999999999432,6453,6,60,90
0.09999999999999432,6453,7,60,90
0.10000000000002274,6453,8,60,90
0.02727272727273089,6453,9,60,90
0.025000000000005684,6453,10,60,90
0.09999999999999432,6453,11,60,90
0.10000000000002274,6453,12,60,90
0.09999999999999432,6453,13,60,90
0.09999999999999432,6453,14,60,90
0.10000000000002274,6453,15,60,90
0.09999999999999432,6454,0,60,90
0.09999999999999432,6454,1,60,90
0.10000000000002274,6454,2,60,90
0.10000000000002274,6454,3,60,90
0.025000000000005684,6454,4,60,90
0.09999999999999432,6454,5,60,90
0.09999999999999432,6454,6,60,90
0.09999999999999432,6454,7,60,90
0.09999999999999432,6454,8,60,90
0.10000000000002274,6454,9,60,90
0.09999999999999432,6454,10,60,90
0.09999999999999432,6454,11,60,90
0.09999999999999432,6454,12,60,90
0.09999999999999432,6454,13,60,90
0.09999999999999432,6454,14,60,90
0.09999999999999432,6454,15,60,90
0.09999999999999432,6455,0,60,90
0.10000000000002274,6455,1,60,90
0.09999999999999432,6455,2,60,90
0.09999999999999432,6455,3,60,90
0.10000000000002274,6455,4,60,90
0.10000000000002274,6455,5,60,90
0.09999999999999432,6455,6,60,90
0.03636363636363171,6455,7,60,90
0.09999999999999432,6455,8,60,90
0.09999999999999432,6455,9,60,90
0.025000000000005684,6455,10,60,90
0.09999999999999432,6455,11,60,90
0.09999999999999432,6455,12,60,90
0.06818181818181301,6455,13,60,90
0.09999999999999432,6455,14,60,90
0.09999999999999432,6455,15,60,90
0.10000000000002274,6456,0,60,90
0.09999999999999432,6456,1,60,90
0.02727272727273089,6456,2,60,90
0.024999999999977263,6456,3,60,90
0.09999999999999432,6456,4,60,90
0.09999999999999432,6456,5,60,90
0.09999999999999432,6456,6,60,90
0.09999999999999432,6456,7,60,90
0.10000000000002274,6456,8,60,90
0.10000000000002274,6456,9,60,90
0.10000000000002274,6456,10,60,90
0.04545454545456096,6456,11,60,90
0.04772727272725774,6456,12,60,90
0.045454545454532536,6456,13,60,90
0.004545454545450411,6456,14,60,90
0.025000000000005684,6456,15,60,90
0.004545454545450411,6457,0,60,90
0.004545454545450411,6457,1,60,90
0.09999999999999432,6457,2,60,90
0.04772727272725774,6457,3,60,90
0.0022727272727252057,6457,4,60,90
0.02727272727273089,6457,5,60,90
0.09999999999999432,6457,6,60,90
0.025000000000005684,6457,7,60,90
0.024999999999977263,6457,8,60,90
0.09999999999999432,6457,9,60,90
0.09999999999999432,6457,10,60,90
0.02727272727273089,6457,11,60,90
0.09999999999999432,6457,12,60,90
0.02727272727273089,6457,13,60,90
0.09999999999999432,6457,14,60,90
0.09999999999999432,6457,15,60,90
0.004545454545450411,6458,0,60,90
0.004545454545450411,6458,1,60,90
0.025000000000005684,6458,2,60,90
0.004545454545450411,6458,3,60,90
0.024999999999977263,6458,4,60,90
0.10000000000002274,6458,5,60,90
0.09999999999999432,6458,6,60,90
0.10000000000002274,6458,7,60,90
0.04772727272728616,6458,8,60,90
0.09999999999999432,6458,9,60,90
0.045454545454532536,6458,10,60,90
0.02727272727273089,6458,11,60,90
0.09999999999999432,6458,12,60,90
0.025000000000005684,6458,13,60,90
0.004545454545450411,6458,14,60,90
0.09999999999999432,6458,15,60,90
0.025000000000005684,6459,0,60,90
0.09999999999999432,6459,1,60,90
0.09999999999999432,6459,2,60,90
0.09999999999999432,6459,3,60,90
0.02727272727273089,6459,4,60,90
0.0022727272727252057,6459,5,60,90
0.02727272727273089,6459,6,60,90
0.0022727272727252057,6459,7,60,90
0.004545454545450411,6459,8,60,90
0.025000000000005684,6459,9,60,90
0.004545454545450411,6459,10,60,90
0.025000000000005684,6459,11,60,90
0.004545454545450411,6459,12,60,90
0.004545454545450411,6459,13,60,90
0.0022727272727252057,6459,14,60,90
0.02727272727270247,6459,15,60,90
0.0022727272727252057,6460,0,60,90
0.025000000000005684,6460,1,60,90
0.004545454545450411,6460,2,60,90
0.004545454545450411,6460,3,60,90
0.004545454545450411,6460,4,60,90
0.024999999999977263,6460,5,60,90
0.004545454545450411,6460,6,60,90
0.0022727272727252057,6460,7,60,90
0.10000000000002274,6460,8,60,90
0.09999999999999787,6460,9,60,90
0.10000000000000142,6460,10,60,90
0.10000000000000142,6460,11,60,90
0.10000000000000142,6460,12,60,90
0.09999999999999787,6460,13,60,90
0.10000000000000142,6460,14,60,90
0.09999999999999787,6460,15,60,90
0.10000000000000142,6461,0,60,90
0.10000000000000142,6461,1,60,90
0.09999999999999787,6461,2,60,90
0.09999999999999787,6461,3,60,90
0.10000000000000142,6461,4,60,90
0.09999999999999787,6461,5,60,90
0.10000000000000142,6461,6,60,90
0.09999999999999787,6461,7,60,90
0.09999999999999787,6461,8,60,90
0.10000000000000142,6461,9,60,90
0.09999999999999787,6461,10,60,90
0.09999999999999787,6461,11,60,90
0.10000000000000142,6461,12,60,90
0.09999999999999787,6461,13,60,90
0.09999999999999787,6461,14,60,90
0.09999999999999787,6461,15,60,90
0.10000000000000142,6462,0,60,90
0.10000000000000142,6462,1,60,90
0.09999999999999787,6462,2,60,90
0.09999999999999787,6462,3,60,90
0.10000000000000142,6462,4,60,90
0.09999999999999787,6462,5,60,90
0.09999999999999787,6462,6,60,90
0.09999999999999787,6462,7,60,90
0.10000000000000142,6462,8,60,90
0.09999999999999787,6462,9,60,90
0.09999999999999787,6462,10,60,90
0.10000000000000142,6462,11,60,90
0.10000000000000142,6462,12,60,90
0.09999999999999787,6462,13,60,90
0.10000000000000142,6462,14,60,90
0.10000000000000142,6462,15,60,90
0.10000000000000142,6463,0,60,90
0.09999999999999787,6463,1,60,90
0.10000000000000142,6463,2,60,90
0.09999999999999787,6463,3,60,90
0.10000000000000142,6463,4,60,90
0.09999999999999787,6463,5,60,90
0.10000000000000142,6463,6,60,90
0.09999999999999787,6463,7,60,90
0.10000000000000142,6463,8,60,90
0.09999999999999787,6463,9,60,90
0.10000000000000142,6463,10,60,90
0.10000000000000142,6463,11,60,90
0.09999999999999787,6463,12,60,90
0.10000000000000142,6463,13,60,90
0.10000000000000142,6463,14,60,90
0.09999999999999787,6463,15,60,90
0.10000000000000142,6464,0,60,90
0.10000000000000142,6464,1,60,90
0.09999999999999787,6464,2,60,90
0.10000000000000142,6464,3,60,90
0.10000000000000142,6464,4,60,90
0.09999999999999787,6464,5,60,90
0.10000000000000142,6464,6,60,90
0.10000000000000142,6464,7,60,90
0.10000000000000142,6464,8,60,90
0.10000000000000142,6464,9,60,90
0.10000000000000142,6464,10,60,90
0.10000000000000142,6464,11,60,90
0.10000000000000142,6464,12,60,90
0.10000000000000142,6464,13,60,90
0.09999999999999432,6464,14,60,90
0.10000000000000142,6464,15,60,90
0.09999999999999432,6465,0,60,90
0.10000000000000142,6465,1,60,90
0.10000000000000142,6465,2,60,90
0.10000000000000142,6465,3,60,90
0.09999999999999432,6465,4,60,90
0.10000000000000142,6465,5,60,90
0.10000000000000142,6465,6,60,90
0.10000000000000142,6465,7,60,90
0.10000000000000142,6465,8,60,90
0.09999999999999432,6465,9,60,90
0.10000000000000142,6465,10,60,90
0.09999999999999432,6465,11,60,90
0.10000000000000142,6465,12,60,90
0.10000000000000142,6465,13,60,90
0.09999999999999432,6465,14,60,90
0.10000000000000142,6465,15,60,90
0.09999999999999432,6466,0,60,90
0.09999999999999432,6466,1,60,90
0.10000000000000142,6466,2,60,90
0.09999999999999432,6466,3,60,90
0.09999999999999432,6466,4,60,90
0.10000000000000142,6466,5,60,90
0.10000000000000142,6466,6,60,90
0.10000000000000142,6466,7,60,90
0.09999999999999432,6466,8,60,90
0.10000000000000142,6466,9,60,90
0.09999999999999432,6466,10,60,90
0.10000000000000142,6466,11,60,90
0.09999999999999432,6466,12,60,90
0.10000000000000142,6466,13,60,90
0.09999999999999432,6466,14,60,90
0.10000000000000142,6466,15,60,90
0.10000000000000142,6467,0,60,90
0.10000000000000142,6467,1,60,90
0.10000000000000142,6467,2,60,90
0.10000000000000142,6467,3,60,90
0.09999999999999432,6467,4,60,90
0.10000000000000142,6467,5,60,90
0.10000000000000142,6467,6,60,90
0.09999999999999432,6467,7,60,90
0.10000000000000142,6467,8,60,90
0.10000000000000142,6467,9,60,90
0.10000000000000142,6467,10,60,90
0.10000000000000142,6467,11,60,90
0.09999999999999432,6467,12,60,90
0.10000000000000142,6467,13,60,90
0.09999999999999432,6467,14,60,90
0.10000000000000142,6467,15,60,90
0.10000000000000142,6468,0,60,90
0.10000000000000142,6468,1,60,90
0.10000000000000142,6468,2,60,90
0.09999999999999432,6468,3,60,90
0.10000000000000142,6468,4,60,90
0.09999999999999432,6468,5,60,90
0.09999999999999432,6468,6,60,90
0.10000000000000142,6468,7,60,90
0.09999999999999432,6468,8,60,90
0.10000000000000142,6468,9,60,90
0.09999999999999432,6468,10,60,90
0.10000000000000142,6468,11,60,90
0.10000000000000142,6468,12,60,90
0.09999999999999432,6468,13,60,90
0.10000000000000142,6468,14,60,90
0.10000000000000142,6468,15,60,90
0.10000000000000142,6469,0,60,90
0.09999999999999432,6469,1,60,90
0.10000000000000142,6469,2,60,90
0.10000000000000142,6469,3,60,90
0.10000000000000142,6469,4,60,90
0.10000000000000142,6469,5,60,90
0.10000000000000142,6469,6,60,90
0.10000000000000142,6469,7,60,90
0.09999999999999432,6469,8,60,90
0.10000000000000142,6469,9,60,90
0.10000000000000142,6469,10,60,90
0.09999999999999432,6469,11,60,90
0.10000000000000142,6469,12,60,90
0.10000000000000142,6469,13,60,90
0.10000000000000142,6469,14,60,90
0.10000000000000142,6469,15,60,90
0.10000000000000142,6470,0,60,90
0.10000000000000142,6470,1,60,90
0.10000000000000142,6470,2,60,90
0.10000000000000142,6470,3,60,90
0.10000000000000142,6470,4,60,90
0.10000000000000142,6470,5,60,90
0.10000000000000142,6470,6,60,90
0.10000000000000142,6470,7,60,90
0.10000000000000142,6470,8,60,90
0.10000000000000142,6470,9,60,90
0.10000000000000142,6470,10,60,90
0.10000000000000142,6470,11,60,90
0.10000000000000142,6470,12,60,90
0.10000000000000142,6470,13,60,90
0.10000000000000142,6470,14,60,90
0.10000000000000142,6470,15,60,90
0.10000000000000142,6471,0,60,90
0.10000000000000142,6471,1,60,90
0.10000000000000142,6471,2,60,90
0.10000000000000142,6471,3,60,90
0.10000000000000142,6471,4,60,90
0.10000000000000142,6471,5,60,90
0.10000000000000142,6471,6,60,90
0.10000000000000142,6471,7,60,90
0.10000000000000142,6471,8,60,90
0.10000000000000142,6471,9,60,90
0.10000000000000142,6471,10,60,90
0.10000000000000142,6471,11,60,90
0.10000000000000142,6471,12,60,90
0.09999999999999432,6471,13,60,90
0.10000000000000142,6471,14,60,90
0.10000000000000142,6471,15,60,90
0.10000000000000142,6472,0,60,90
0.10000000000000142,6472,1,60,90
0.09999999999999432,6472,2,60,90
0.10000000000000142,6472,3,60,90
0.10000000000000142,6472,4,60,90
0.10000000000000142,6472,5,60,90
0.09999999999999432,6472,6,60,90
0.10000000000000142,6472,7,60,90
0.09999999999999432,6472,8,60,90
0.10000000000000142,6472,9,60,90
0.10000000000000142,6472,10,60,90
0.09999999999999432,6472,11,60,90
0.10000000000000142,6472,12,60,90
0.10000000000000142,6472,13,60,90
0.10000000000000142,6472,14,60,90
0.09999999999999432,6472,15,60,90
0.10000000000000142,6473,0,60,90
0.10000000000000142,6473,1,60,90
0.09999999999999432,6473,2,60,90
0.10000000000000142,6473,3,60,90
0.09999999999999432,6473,4,60,90
0.10000000000000142,6473,5,60,90
0.09999999999999432,6473,6,60,90
0.10000000000000142,6473,7,60,90
0.10000000000000142,6473,8,60,90
0.09999999999999432,6473,9,60,90
0.10000000000000142,6473,10,60,90
0.10000000000000142,6473,11,60,90
0.10000000000000142,6473,12,60,90
0.09999999999999432,6473,13,60,90
0.09999999999999432,6473,14,60,90
0.09999999999999432,6473,15,60,90
0.10000000000000853,6474,0,60,90
0.10000000000000853,6474,1,60,90
0.10000000000000853,6474,2,60,90
0.09999999999999432,6474,3,60,90
0.10000000000000853,6474,4,60,90
0.09999999999999432,6474,5,60,90
0.09999999999999432,6474,6,60,90
0.09999999999999432,6474,7,60,90
0.09999999999999432,6474,8,60,90
0.10000000000000853,6474,9,60,90
0.10000000000000853,6474,10,60,90
0.09999999999999432,6474,11,60,90
0.10000000000000853,6474,12,60,90
0.09999999999999432,6474,13,60,90
0.09999999999999432,6474,14,60,90
0.09999999999999432,6474,15,60,90
0.09999999999999432,6475,0,60,90
0.10000000000000853,6475,1,60,90
0.09999999999999432,6475,2,60,90
0.09999999999999432,6475,3,60,90
0.09999999999999432,6475,4,60,90
0.09999999999999432,6475,5,60,90
0.10000000000000853,6475,6,60,90
0.09999999999999432,6475,7,60,90
0.10000000000000853,6475,8,60,90
0.09999999999999432,6475,9,60,90
0.10000000000000853,6475,10,60,90
0.09999999999999432,6475,11,60,90
0.09999999999999432,6475,12,60,90
0.10000000000000853,6475,13,60,90
0.09999999999999432,6475,14,60,90
0.09999999999999432,6475,15,60,90
0.10000000000000853,6476,0,60,90
0.09999999999999432,6476,1,60,90
0.10000000000000853,6476,2,60,90
0.09999999999999432,6476,3,60,90
0.09999999999999432,6476,4,60,90
0.09999999999999432,6476,5,60,90
0.09999999999999432,6476,6,60,90
0.09999999999999432,6476,7,60,90
0.09999999999999432,6476,8,60,90
0.10000000000000853,6476,9,60,90
0.10000000000000853,6476,10,60,90
0.09999999999999432,6476,11,60,90
0.09999999999999432,6476,12,60,90
0.10000000000000853,6476,13,60,90
0.09999999999999432,6476,14,60,90
0.10000000000000853,6476,15,60,90
0.09999999999999432,6477,0,60,90
0.09999999999999432,6477,1,60,90
0.10000000000000853,6477,2,60,90
0.09999999999999432,6477,3,60,90
0.09999999999999432,6477,4,60,90
0.10000000000000853,6477,5,60,90
0.09999999999999432,6477,6,60,90
0.09999999999999432,6477,7,60,90
0.09999999999999432,6477,8,60,90
0.09999999999999432,6477,9,60,90
0.10000000000000853,6477,10,60,90
0.09999999999999432,6477,11,60,90
0.09999999999999432,6477,12,60,90
0.09999999999999432,6477,13,60,90
0.09999999999999432,6477,14,60,90
0.10000000000000853,6477,15,60,90
0.10000000000000853,6478,0,60,90
0.09999999999999432,6478,1,60,90
0.10000000000000853,6478,2,60,90
0.10000000000000853,6478,3,60,90
0.09999999999999432,6478,4,60,90
0.09999999999999432,6478,5,60,90
0.09999999999999432,6478,6,60,90
0.09999999999999432,6478,7,60,90
0.09999999999999432,6478,8,60,90
0.10000000000000853,6478,9,60,90
0.10000000000000853,6478,10,60,90
0.10000000000000853,6478,11,60,90
0.09999999999999432,6478,12,60,90
0.10000000000000853,6478,13,60,90
0.09999999999999432,6478,14,60,90
0.09999999999999432,6478,15,60,90
0.09999999999999432,6479,0,60,90
0.09999999999999432,6479,1,60,90
0.10000000000000853,6479,2,60,90
0.10000000000000853,6479,3,60,90
0.10000000000000853,6479,4,60,90
0.10000000000000853,6479,5,60,90
0.10000000000000853,6479,6,60,90
0.09999999999999432,6479,7,60,90
0.09999999999999432,6479,8,60,90
0.10000000000000853,6479,9,60,90
0.10000000000000853,6479,10,60,90
0.10000000000000853,6479,11,60,90
0.09999999999999432,6479,12,60,90
0.09999999999999432,6479,13,60,90
0.09999999999999432,6479,14,60,90
0.10000000000000853,6479,15,60,90
0.09999999999999432,6480,0,60,90
0.09999999999999432,6480,1,60,90
0.09999999999999432,6480,2,60,90
0.09999999999999432,6480,3,60,90
0.10000000000000853,6480,4,60,90
0.09999999999999432,6480,5,60,90
0.10000000000000853,6480,6,60,90
0.09999999999999432,6480,7,60,90
0.09999999999999432,6480,8,60,90
0.09999999999999432,6480,9,60,90
0.09999999999999432,6480,10,60,90
0.09999999999999432,6480,11,60,90
0.09999999999999432,6480,12,60,90
0.09999999999999432,6480,13,60,90
0.09999999999999432,6480,14,60,90
0.09999999999999432,6480,15,60,90
0.10000000000000853,6481,0,60,90
0.10000000000000853,6481,1,60,90
0.09999999999999432,6481,2,60,90
0.09999999999999432,6481,3,60,90
0.09999999999999432,6481,4,60,90
0.09999999999999432,6481,5,60,90
0.09999999999999432,6481,6,60,90
0.09999999999999432,6481,7,60,90
0.09999999999999432,6481,8,60,90
0.09999999999999432,6481,9,60,90
0.10000000000000853,6481,10,60,90
0.10000000000000853,6481,11,60,90
0.09999999999999432,6481,12,60,90
0.10000000000000853,6481,13,60,90
0.10000000000000853,6481,14,60,90
0.09999999999999432,6481,15,60,90
0.10000000000000853,6482,0,60,90
0.09999999999999432,6482,1,60,90
0.09999999999999432,6482,2,60,90
0.09999999999999432,6482,3,60,90
0.10000000000000853,6482,4,60,90
0.10000000000000853,6482,5,60,90
0.10000000000000853,6482,6,60,90
0.10000000000000853,6482,7,60,90
0.09999999999999432,6482,8,60,90
0.09999999999999432,6482,9,60,90
0.10000000000000853,6482,10,60,90
0.10000000000000853,6482,11,60,90
0.09999999999999432,6482,12,60,90
0.09999999999999432,6482,13,60,90
0.09999999999999432,6482,14,60,90
0.09999999999999432,6482,15,60,90
0.10000000000000853,6483,0,60,90
0.10000000000000853,6483,1,60,90
0.10000000000000853,6483,2,60,90
0.09999999999999432,6483,3,60,90
0.10000000000000853,6483,4,60,90
0.10000000000000853,6483,5,60,90
0.09999999999999432,6483,6,60,90
0.09999999999999432,6483,7,60,90
0.10000000000000853,6483,8,60,90
0.09999999999999432,6483,9,60,90
0.09999999999999432,6483,10,60,90
0.10000000000000853,6483,11,60,90
0.09999999999999432,6483,12,60,90
0.09999999999999432,6483,13,60,90
0.09999999999999432,6483,14,60,90
0.10000000000000853,6483,15,60,90
0.09999999999999432,6484,0,60,90
0.10000000000000853,6484,1,60,90
0.09999999999999432,6484,2,60,90
0.09999999999999432,6484,3,60,90
0.10000000000000853,6484,4,60,90
0.09999999999999432,6484,5,60,90
0.10000000000000853,6484,6,60,90
0.09999999999999432,6484,7,60,90
0.09999999999999432,6484,8,60,90
0.10000000000000853,6484,9,60,90
0.09999999999999432,6484,10,60,90
0.10000000000000853,6484,11,60,90
0.09999999999999432,6484,12,60,90
0.09999999999999432,6484,13,60,90
0.10000000000000853,6484,14,60,90
0.09999999999999432,6484,15,60,90
0.09999999999999432,6485,0,60,90
0.09999999999999432,6485,1,60,90
0.09999999999999432,6485,2,60,90
0.10000000000000853,6485,3,60,90
0.09999999999999432,6485,4,60,90
0.09999999999999432,6485,5,60,90
0.09999999999999432,6485,6,60,90
0.10000000000000853,6485,7,60,90
0.09999999999999432,6485,8,60,90
0.09999999999999432,6485,9,60,90
0.09999999999999432,6485,10,60,90
0.10000000000000853,6485,11,60,90
0.10000000000000853,6485,12,60,90
0.09999999999999432,6485,13,60,90
0.09999999999999432,6485,14,60,90
0.10000000000000853,6485,15,60,90
0.09999999999999432,6486,0,60,90
0.10000000000000853,6486,1,60,90
0.09999999999999432,6486,2,60,90
0.09999999999999432,6486,3,60,90
0.09999999999999432,6486,4,60,90
0.09999999999999432,6486,5,60,90
0.10000000000000853,6486,6,60,90
0.10000000000000853,6486,7,60,90
0.09999999999999432,6486,8,60,90
0.10000000000000853,6486,9,60,90
0.09999999999999432,6486,10,60,90
0.09999999999999432,6486,11,60,90
0.10000000000000853,6486,12,60,90
0.09999999999999432,6486,13,60,90
0.09999999999999432,6486,14,60,90
0.09999999999999432,6486,15,60,90
0.09999999999999432,6487,0,60,90
0.09999999999999432,6487,1,60,90
0.09999999999999432,6487,2,60,90
0.09999999999999432,6487,3,60,90
0.10000000000000853,6487,4,60,90
0.09999999999999432,6487,5,60,90
0.09999999999999432,6487,6,60,90
0.09999999999999432,6487,7,60,90
0.09999999999999432,6487,8,60,90
0.10000000000000853,6487,9,60,90
0.09999999999999432,6487,10,60,90
0.10000000000000853,6487,11,60,90
0.10000000000000853,6487,12,60,90
0.09999999999999432,6487,13,60,90
0.09999999999999432,6487,14,60,90
0.09999999999999432,6487,15,60,90
0.10000000000000853,6488,0,60,90
0.09999999999999432,6488,1,60,90
0.09999999999999432,6488,2,60,90
0.09999999999999432,6488,3,60,90
0.09999999999999432,6488,4,60,90
0.10000000000000853,6488,5,60,90
0.10000000000000853,6488,6,60,90
0.09999999999999432,6488,7,60,90
0.10000000000000853,6488,8,60,90
0.09999999999999432,6488,9,60,90
0.09999999999999432,6488,10,60,90
0.10000000000000853,6488,11,60,90
0.09999999999999432,6488,12,60,90
0.09999999999999432,6488,13,60,90
0.09999999999999432,6488,14,60,90
0.09999999999999432,6488,15,60,90
0.10000000000000853,6489,0,60,90
0.10000000000000853,6489,1,60,90
0.10000000000000853,6489,2,60,90
0.09999999999999432,6489,3,60,90
0.09999999999999432,6489,4,60,90
0.10000000000000853,6489,5,60,90
0.10000000000000853,6489,6,60,90
0.10000000000000853,6489,7,60,90
0.10000000000000853,6489,8,60,90
0.09999999999999432,6489,9,60,90
0.09999999999999432,6489,10,60,90
0.10000000000000853,6489,11,60,90
0.09999999999999432,6489,12,60,90
0.09999999999999432,6489,13,60,90
0.09999999999999432,6489,14,60,90
0.10000000000000853,6489,15,60,90
0.09999999999999432,6490,0,60,90
0.09999999999999432,6490,1,60,90
0.09999999999999432,6490,2,60,90
0.10000000000000853,6490,3,60,90
0.09999999999999432,6490,4,60,90
0.09999999999999432,6490,5,60,90
0.09999999999999432,6490,6,60,90
0.09999999999999432,6490,7,60,90
0.10000000000000853,6490,8,60,90
0.09999999999999432,6490,9,60,90
0.09999999999999432,6490,10,60,90
0.10000000000000853,6490,11,60,90
0.10000000000000853,6490,12,60,90
0.10000000000000853,6490,13,60,90
0.09999999999999432,6490,14,60,90
0.09999999999999432,6490,15,60,90
0.10000000000000853,6491,0,60,90
0.10000000000000853,6491,1,60,90
0.09999999999999432,6491,2,60,90
0.10000000000000853,6491,3,60,90
0.09999999999999432,6491,4,60,90
0.10000000000000853,6491,5,60,90
0.10000000000000853,6491,6,60,90
0.10000000000000853,6491,7,60,90
0.10000000000000853,6491,8,60,90
0.09999999999999432,6491,9,60,90
0.09999999999999432,6491,10,60,90
0.10000000000000853,6491,11,60,90
0.10000000000000853,6491,12,60,90
0.10000000000000853,6491,13,60,90
0.09999999999999432,6491,14,60,90
0.09999999999999432,6491,15,60,90
0.10000000000000853,6492,0,60,90
0.09999999999999432,6492,1,60,90
0.09999999999999432,6492,2,60,90
0.09999999999999432,6492,3,60,90
0.09999999999999432,6492,4,60,90
0.10000000000000853,6492,5,60,90
0.09999999999999432,6492,6,60,90
0.10000000000000853,6492,7,60,90
0.09999999999999432,6492,8,60,90
0.10000000000002274,6492,9,60,90
0.09999999999999432,6492,10,60,90
0.09999999999999432,6492,11,60,90
0.09999999999999432,6492,12,60,90
0.09999999999999432,6492,13,60,90
0.09999999999999432,6492,14,60,90
0.10000000000002274,6492,15,60,90
0.09999999999999432,6493,0,60,90
0.10000000000002274,6493,1,60,90
0.09999999999999432,6493,2,60,90
0.09999999999999432,6493,3,60,90
0.09999999999999432,6493,4,60,90
0.09999999999999432,6493,5,60,90
0.09999999999999432,6493,6,60,90
0.09999999999999432,6493,7,60,90
0.09999999999999432,6493,8,60,90
0.10000000000002274,6493,9,60,90
0.09999999999999432,6493,10,60,90
0.09999999999999432,6493,11,60,90
0.09999999999999432,6493,12,60,90
0.09999999999999432,6493,13,60,90
0.09999999999999432,6493,14,60,90
0.09999999999999432,6493,15,60,90
0.09999999999999432,6494,0,60,90
0.09999999999999432,6494,1,60,90
0.09999999999999432,6494,2,60,90
0.09999999999999432,6494,3,60,90
0.09999999999999432,6494,4,60,90
0.10000000000002274,6494,5,60,90
0.09999999999999432,6494,6,60,90
0.09999999999999432,6494,7,60,90
0.10000000000002274,6494,8,60,90
0.09999999999999432,6494,9,60,90
0.09999999999999432,6494,10,60,90
0.09999999999999432,6494,11,60,90
0.09999999999999432,6494,12,60,90
0.10000000000002274,6494,13,60,90
0.09999999999999432,6494,14,60,90
0.09999999999999432,6494,15,60,90
0.09999999999999432,6495,0,60,90
0.09999999999999432,6495,1,60,90
0.09999999999999432,6495,2,60,90
0.09999999999999432,6495,3,60,90
0.09999999999999432,6495,4,60,90
0.10000000000002274,6495,5,60,90
0.09999999999999432,6495,6,60,90
0.09999999999999432,6495,7,60,90
0.10000000000002274,6495,8,60,90
0.09999999999999432,6495,9,60,90
0.09999999999999432,6495,10,60,90
0.09999999999999432,6495,11,60,90
0.09999999999999432,6495,12,60,90
0.10000000000002274,6495,13,60,90
0.09999999999999432,6495,14,60,90
0.09999999999999432,6495,15,60,90
0.09999999999999432,6496,0,60,90
0.10000000000002274,6496,1,60,90
0.09999999999999432,6496,2,60,90
0.09999999999999432,6496,3,60,90
0.09999999999999432,6496,4,60,90
0.09999999999999432,6496,5,60,90
0.10000000000002274,6496,6,60,90
0.09999999999999432,6496,7,60,90
0.09999999999999432,6496,8,60,90
0.09999999999999432,6496,9,60,90
0.09999999999999432,6496,10,60,90
0.09999999999999432,6496,11,60,90
0.10000000000002274,6496,12,60,90
0.09999999999999432,6496,13,60,90
0.09999999999999432,6496,14,60,90
0.09999999999999432,6496,15,60,90
0.09999999999999432,6497,0,60,90
0.10000000000002274,6497,1,60,90
0.09999999999999432,6497,2,60,90
0.09999999999999432,6497,3,60,90
0.09999999999999432,6497,4,60,90
0.09999999999999432,6497,5,60,90
0.10000000000002274,6497,6,60,90
0.09999999999999432,6497,7,60,90
0.09999999999999432,6497,8,60,90
0.09999999999999432,6497,9,60,90
0.10000000000002274,6497,10,60,90
0.10000000000002274,6497,11,60,90
0.09999999999999432,6497,12,60,90
0.09999999999999432,6497,13,60,90
0.09999999999999432,6497,14,60,90
0.09999999999999432,6497,15,60,90
0.10000000000002274,6498,0,60,90
0.09999999999999432,6498,1,60,90
0.09999999999999432,6498,2,60,90
0.10000000000002274,6498,3,60,90
0.09999999999999432,6498,4,60,90
0.10000000000002274,6498,5,60,90
0.09999999999999432,6498,6,60,90
0.09999999999999432,6498,7,60,90
0.09999999999999432,6498,8,60,90
0.09999999999999432,6498,9,60,90
0.09999999999999432,6498,10,60,90
0.10000000000002274,6498,11,60,90
0.09999999999999432,6498,12,60,90
0.09999999999999432,6498,13,60,90
0.09999999999999432,6498,14,60,90
0.09999999999999432,6498,15,60,90
0.10000000000002274,6499,0,60,90
0.09999999999999432,6499,1,60,90
0.09999999999999432,6499,2,60,90
0.09999999999999432,6499,3,60,90
0.09999999999999432,6499,4,60,90
0.10000000000002274,6499,5,60,90
0.09999999999999432,6499,6,60,90
0.09999999999999432,6499,7,60,90
0.09999999999999432,6499,8,60,90
0.09999999999999432,6499,9,60,90
0.10000000000002274,6499,10,60,90
0.09999999999999432,6499,11,60,90
0.09999999999999432,6499,12,60,90
0.09999999999999432,6499,13,60,90
0.09999999999999432,6499,14,60,90
0.09999999999999432,6499,15,60,90
0.09999999999999432,6500,0,60,90
0.09999999999999432,6500,1,60,90
0.09999999999999432,6500,2,60,90
0.09999999999999432,6500,3,60,90
0.09999999999999432,6500,4,60,90
0.09999999999999432,6500,5,60,90
0.09999999999999432,6500,6,60,90
0.09999999999999432,6500,7,60,90
0.09999999999999432,6500,8,60,90
0.09999999999999432,6500,9,60,90
0.09999999999999432,6500,10,60,90
0.09999999999999432,6500,11,60,90
0.09999999999999432,6500,12,60,90
0.09999999999999432,6500,13,60,90
0.09999999999999432,6500,14,60,90
0.09999999999999432,6500,15,60,90
0.09999999999999432,6501,0,60,90
0.09999999999999432,6501,1,60,90
0.09999999999999432,6501,2,60,90
0.09999999999999432,6501,3,60,90
0.09999999999999432,6501,4,60,90
0.09999999999999432,6501,5,60,90
0.10000000000002274,6501,6,60,90
0.09999999999999432,6501,7,60,90
0.09999999999999432,6501,8,60,90
0.09999999999999432,6501,9,60,90
0.09999999999999432,6501,10,60,90
0.09999999999999432,6501,11,60,90
0.09999999999999432,6501,12,60,90
0.09999999999999432,6501,13,60,90
0.09999999999999432,6501,14,60,90
0.09999999999999432,6501,15,60,90
0.09999999999999432,6502,0,60,90
0.09999999999999432,6502,1,60,90
0.09999999999999432,6502,2,60,90
0.09999999999999432,6502,3,60,90
0.09999999999999432,6502,4,60,90
0.09999999999999432,6502,5,60,90
0.09999999999999432,6502,6,60,90
0.09999999999999432,6502,7,60,90
0.09999999999999432,6502,8,60,90
0.10000000000002274,6502,9,60,90
0.09999999999999432,6502,10,60,90
0.09999999999999432,6502,11,60,90
0.09999999999999432,6502,12,60,90
0.09999999999999432,6502,13,60,90
0.10000000000002274,6502,14,60,90
0.09999999999999432,6502,15,60,90
0.09999999999999432,6503,0,60,90
0.09999999999999432,6503,1,60,90
0.10000000000002274,6503,2,60,90
0.10000000000002274,6503,3,60,90
0.09999999999999432,6503,4,60,90
0.09999999999999432,6503,5,60,90
0.09999999999999432,6503,6,60,90
0.09999999999999432,6503,7,60,90
0.10000000000002274,6503,8,60,90
0.09999999999999432,6503,9,60,90
0.09999999999999432,6503,10,60,90
0.09999999999999432,6503,11,60,90
0.09999999999999432,6503,12,60,90
0.09999999999999432,6503,13,60,90
0.09999999999999432,6503,14,60,90
0.09999999999999432,6503,15,60,90
0.09999999999999432,6504,0,60,90
0.09999999999999432,6504,1,60,90
0.09999999999999432,6504,2,60,90
0.09999999999999432,6504,3,60,90
0.09999999999999432,6504,4,60,90
0.09999999999999432,6504,5,60,90
0.09999999999999432,6504,6,60,90
0.09999999999999432,6504,7,60,90
0.09999999999999432,6504,8,60,90
0.09999999999999432,6504,9,60,90
0.09999999999999432,6504,10,60,90
0.09999999999999432,6504,11,60,90
0.09999999999999432,6504,12,60,90
0.09999999999999432,6504,13,60,90
0.09999999999999432,6504,14,60,90
0.09999999999999432,6504,15,60,90
0.09999999999999432,6505,0,60,90
0.10000000000002274,6505,1,60,90
0.09999999999999432,6505,2,60,90
0.09999999999999432,6505,3,60,90
0.09999999999999432,6505,4,60,90
0.09999999999999432,6505,5,60,90
0.10000000000002274,6505,6,60,90
0.10000000000002274,6505,7,60,90
0.09999999999999432,6505,8,60,90
0.09999999999999432,6505,9,60,90
0.09999999999999432,6505,10,60,90
0.09999999999999432,6505,11,60,90
0.09999999999999432,6505,12,60,90
0.09999999999999432,6505,13,60,90
0.09999999999999432,6505,14,60,90
0.09999999999999432,6505,15,60,90
0.09999999999999432,6506,0,60,90
0.10000000000002274,6506,1,60,90
0.10000000000002274,6506,2,60,90
0.09999999999999432,6506,3,60,90
0.09999999999999432,6506,4,60,90
0.09999999999999432,6506,5,60,90
0.10000000000002274,6506,6,60,90
0.09999999999999432,6506,7,60,90
0.09999999999999432,6506,8,60,90
0.09999999999999432,6506,9,60,90
0.09999999999999432,6506,10,60,90
0.09999999999999432,6506,11,60,90
0.10000000000002274,6506,12,60,90
0.09999999999999432,6506,13,60,90
0.09999999999999432,6506,14,60,90
0.09999999999999432,6506,15,60,90
0.09999999999999432,6507,0,60,90
0.09999999999999432,6507,1,60,90
0.09999999999999432,6507,2,60,90
0.09999999999999432,6507,3,60,90
0.09999999999999432,6507,4,60,90
0.10000000000002274,6507,5,60,90
0.09999999999999432,6507,6,60,90
0.09999999999999432,6507,7,60,90
0.09999999999999432,6507,8,60,90
0.09999999999999432,6507,9,60,90
0.09999999999999432,6507,10,60,90
0.09999999999999432,6507,11,60,90
0.09999999999999432,6507,12,60,90
0.09999999999999432,6507,13,60,90
0.10000000000002274,6507,14,60,90
0.09999999999999432,6507,15,60,90
0.09999999999999432,6508,0,60,90
0.09999999999999432,6508,1,60,90
0.09999999999999432,6508,2,60,90
0.10000000000002274,6508,3,60,90
0.09999999999999432,6508,4,60,90
0.09999999999999432,6508,5,60,90
0.10000000000002274,6508,6,60,90
0.09999999999999432,6508,7,60,90
0.09999999999999432,6508,8,60,90
0.09999999999999432,6508,9,60,90
0.09999999999999432,6508,10,60,90
0.09999999999999432,6508,11,60,90
0.10000000000002274,6508,12,60,90
0.09999999999999432,6508,13,60,90
0.09999999999999432,6508,14,60,90
0.09999999999999432,6508,15,60,90
0.09999999999999432,6509,0,60,90
0.10000000000002274,6509,1,60,90
0.09999999999999432,6509,2,60,90
0.09999999999999432,6509,3,60,90
0.09999999999999432,6509,4,60,90
0.10000000000002274,6509,5,60,90
0.10000000000002274,6509,6,60,90
0.09999999999999432,6509,7,60,90
0.09999999999999432,6509,8,60,90
0.09999999999999432,6509,9,60,90
0.09999999999999432,6509,10,60,90
0.10000000000002274,6509,11,60,90
0.09999999999999432,6509,12,60,90
0.09999999999999432,6509,13,60,90
0.09999999999999432,6509,14,60,90
0.10000000000002274,6509,15,60,90
0.09999999999999432,6510,0,60,90
0.09999999999999432,6510,1,60,90
0.09999999999999432,6510,2,60,90
0.09999999999999432,6510,3,60,90
0.09999999999999432,6510,4,60,90
0.09999999999999432,6510,5,60,90
0.09999999999999432,6510,6,60,90
0.09999999999999432,6510,7,60,90
0.09999999999999432,6510,8,60,90
0.09999999999999432,6510,9,60,90
0.09999999999999432,6510,10,60,90
0.09999999999999432,6510,11,60,90
0.09999999999999432,6510,12,60,90
0.09999999999999432,6510,13,60,90
0.09999999999999432,6510,14,60,90
0.09999999999999432,6510,15,60,90
0.09999999999999432,6511,0,60,90
0.09999999999999432,6511,1,60,90
0.09999999999999432,6511,2,60,90
0.09999999999999432,6511,3,60,90
0.09999999999999432,6511,4,60,90
0.09999999999999432,6511,5,60,90
0.09999999999999432,6511,6,60,90
0.09999999999999432,6511,7,60,90
0.09999999999999432,6511,8,60,90
0.09999999999999432,6511,9,60,90
0.09999999999999432,6511,10,60,90
0.10000000000002274,6511,11,60,90
0.09999999999999432,6511,12,60,90
0.09999999999999432,6511,13,60,90
0.09999999999999432,6511,14,60,90
0.09999999999999432,6511,15,60,90
0.09999999999999432,6512,0,60,90
0.09999999999999432,6512,1,60,90
0.09999999999999432,6512,2,60,90
0.09999999999999432,6512,3,60,90
0.09999999999999432,6512,4,60,90
0.10000000000002274,6512,5,60,90
0.10000000000002274,6512,6,60,90
0.10000000000002274,6512,7,60,90
0.09999999999999432,6512,8,60,90
0.09999999999999432,6512,9,60,90
0.09999999999999432,6512,10,60,90
0.09999999999999432,6512,11,60,90
0.09999999999999432,6512,12,60,90
0.09999999999999432,6512,13,60,90
0.09999999999999432,6512,14,60,90
0.09999999999999432,6512,15,60,90
0.09999999999999432,6513,0,60,90
0.09999999999999432,6513,1,60,90
0.10000000000002274,6513,2,60,90
0.09999999999999432,6513,3,60,90
0.09999999999999432,6513,4,60,90
0.09999999999999432,6513,5,60,90
0.09999999999999432,6513,6,60,90
0.09999999999999432,6513,7,60,90
0.09999999999999432,6513,8,60,90
0.09999999999999432,6513,9,60,90
0.09999999999999432,6513,10,60,90
0.09999999999999432,6513,11,60,90
0.09999999999999432,6513,12,60,90
0.09999999999999432,6513,13,60,90
0.09999999999999432,6513,14,60,90
0.10000000000002274,6513,15,60,90
0.09999999999999432,6514,0,60,90
0.09999999999999432,6514,1,60,90
0.09999999999999432,6514,2,60,90
0.09999999999999432,6514,3,60,90
0.09999999999999432,6514,4,60,90
0.09999999999999432,6514,5,60,90
0.09999999999999432,6514,6,60,90
0.09999999999999432,6514,7,60,90
0.10000000000002274,6514,8,60,90
0.09999999999999432,6514,9,60,90
0.09999999999999432,6514,10,60,90
0.09999999999999432,6514,11,60,90
0.09999999999999432,6514,12,60,90
0.09999999999999432,6514,13,60,90
0.10000000000002274,6514,14,60,90
0.09999999999999432,6514,15,60,90
0.09999999999999432,6515,0,60,90
0.09999999999999432,6515,1,60,90
0.09999999999999432,6515,2,60,90
0.09999999999999432,6515,3,60,90
0.10000000000002274,6515,4,60,90
0.09999999999999432,6515,5,60,90
0.09999999999999432,6515,6,60,90
0.09999999999999432,6515,7,60,90
0.09999999999999432,6515,8,60,90
0.10000000000002274,6515,9,60,90
0.10000000000002274,6515,10,60,90
0.09999999999999432,6515,11,60,90
0.09999999999999432,6515,12,60,90
0.09999999999999432,6515,13,60,90
0.09999999999999432,6515,14,60,90
0.10000000000002274,6515,15,60,90
0.09999999999999432,6516,0,60,90
0.09999999999999432,6516,1,60,90
0.09999999999999432,6516,2,60,90
0.09999999999999432,6516,3,60,90
0.10000000000002274,6516,4,60,90
0.10000000000002274,6516,5,60,90
0.09999999999999432,6516,6,60,90
0.09999999999999432,6516,7,60,90
0.09999999999999432,6516,8,60,90
0.09999999999999432,6516,9,60,90
0.09999999999999432,6516,10,60,90
0.09999999999999432,6516,11,60,90
0.10000000000002274,6516,12,60,90
0.09999999999999432,6516,13,60,90
0.09999999999999432,6516,14,60,90
0.09999999999999432,6516,15,60,90
0.09999999999999432,6517,0,60,90
0.10000000000002274,6517,1,60,90
0.09999999999999432,6517,2,60,90
0.09999999999999432,6517,3,60,90
0.09999999999999432,6517,4,60,90
0.09999999999999432,6517,5,60,90
0.10000000000002274,6517,6,60,90
0.09999999999999432,6517,7,60,90
0.09999999999999432,6517,8,60,90
0.09999999999999432,6517,9,60,90
0.09999999999999432,6517,10,60,90
0.09999999999999432,6517,11,60,90
0.09999999999999432,6517,12,60,90
0.09999999999999432,6517,13,60,90
0.09999999999999432,6517,14,60,90
0.09999999999999432,6517,15,60,90
0.09999999999999432,6518,0,60,90
0.09999999999999432,6518,1,60,90
0.09999999999999432,6518,2,60,90
0.09999999999999432,6518,3,60,90
0.09999999999999432,6518,4,60,90
0.09999999999999432,6518,5,60,90
0.09999999999999432,6518,6,60,90
0.09999999999999432,6518,7,60,90
0.09999999999999432,6518,8,60,90
0.09999999999999432,6518,9,60,90
0.09999999999999432,6518,10,60,90
0.09999999999999432,6518,11,60,90
0.10000000000002274,6518,12,60,90
0.09999999999999432,6518,13,60,90
0.10000000000002274,6518,14,60,90
0.09999999999999432,6518,15,60,90
0.09999999999999432,6519,0,60,90
0.09999999999999432,6519,1,60,90
0.09999999999999432,6519,2,60,90
0.09999999999999432,6519,3,60,90
0.10000000000002274,6519,4,60,90
0.09999999999999432,6519,5,60,90
0.10000000000002274,6519,6,60,90
0.09999999999999432,6519,7,60,90
0.09999999999999432,6519,8,60,90
0.09999999999999432,6519,9,60,90
0.09999999999999432,6519,10,60,90
0.09999999999999432,6519,11,60,90
0.10000000000002274,6519,12,60,90
0.09999999999999432,6519,13,60,90
0.09999999999999432,6519,14,60,90
0.09999999999999432,6519,15,60,90
0.09999999999999432,6520,0,60,90
0.10000000000002274,6520,1,60,90
0.09999999999999432,6520,2,60,90
0.09999999999999432,6520,3,60,90
0.09999999999999432,6520,4,60,90
0.09999999999999432,6520,5,60,90
0.09999999999999432,6520,6,60,90
0.09999999999999432,6520,7,60,90
0.10000000000002274,6520,8,60,90
0.09999999999999432,6520,9,60,90
0.09999999999999432,6520,10,60,90
0.09999999999999432,6520,11,60,90
0.09999999999999432,6520,12,60,90
0.09999999999999432,6520,13,60,90
0.10000000000002274,6520,14,60,90
0.09999999999999432,6520,15,60,90
0.09999999999999432,6521,0,60,90
0.09999999999999432,6521,1,60,90
0.09999999999999432,6521,2,60,90
0.10000000000002274,6521,3,60,90
0.09999999999999432,6521,4,60,90
0.09999999999999432,6521,5,60,90
0.09999999999999432,6521,6,60,90
0.09999999999999432,6521,7,60,90
0.09999999999999432,6521,8,60,90
0.09999999999999432,6521,9,60,90
0.09999999999999432,6521,10,60,90
0.09999999999999432,6521,11,60,90
0.09999999999999432,6521,12,60,90
0.09999999999999432,6521,13,60,90
0.09999999999999432,6521,14,60,90
0.09999999999999432,6521,15,60,90
0.09999999999999432,6522,0,60,90
0.09999999999999432,6522,1,60,90
0.09999999999999432,6522,2,60,90
0.09999999999999432,6522,3,60,90
0.10000000000002274,6522,4,60,90
0.10000000000002274,6522,5,60,90
0.09999999999999432,6522,6,60,90
0.09999999999999432,6522,7,60,90
0.09999999999999432,6522,8,60,90
0.09999999999999432,6522,9,60,90
0.09999999999999432,6522,10,60,90
0.09999999999999432,6522,11,60,90
0.10000000000002274,6522,12,60,90
0.09999999999999432,6522,13,60,90
0.09999999999999432,6522,14,60,90
0.09999999999999432,6522,15,60,90
0.10000000000002274,6523,0,60,90
0.09999999999999432,6523,1,60,90
0.09999999999999432,6523,2,60,90
0.09999999999999432,6523,3,60,90
0.10000000000002274,6523,4,60,90
0.09999999999999432,6523,5,60,90
0.09999999999999432,6523,6,60,90
0.09999999999999432,6523,7,60,90
0.09999999999999432,6523,8,60,90
0.10000000000002274,6523,9,60,90
0.09999999999999432,6523,10,60,90
0.09999999999999432,6523,11,60,90
0.10000000000002274,6523,12,60,90
0.09999999999999432,6523,13,60,90
0.09999999999999432,6523,14,60,90
0.09999999999999432,6523,15,60,90
0.10000000000002274,6524,0,60,90
0.09999999999999432,6524,1,60,90
0.09999999999999432,6524,2,60,90
0.09999999999999432,6524,3,60,90
0.09999999999999432,6524,4,60,90
0.10000000000002274,6524,5,60,90
0.09999999999999432,6524,6,60,90
0.10000000000002274,6524,7,60,90
0.10000000000002274,6524,8,60,90
0.10000000000002274,6524,9,60,90
0.09999999999999432,6524,10,60,90
0.09999999999999432,6524,11,60,90
0.09999999999999432,6524,12,60,90
0.09999999999999432,6524,13,60,90
0.09999999999999432,6524,14,60,90
0.09999999999999432,6524,15,60,90
0.10000000000002274,6525,0,60,90
0.09999999999999432,6525,1,60,90
0.09999999999999432,6525,2,60,90
0.09999999999999432,6525,3,60,90
0.10000000000002274,6525,4,60,90
0.09999999999999432,6525,5,60,90
0.09999999999999432,6525,6,60,90
0.10000000000002274,6525,7,60,90
0.09999999999999432,6525,8,60,90
0.09999999999999432,6525,9,60,90
0.09999999999999432,6525,10,60,90
0.10000000000002274,6525,11,60,90
0.09999999999999432,6525,12,60,90
0.09999999999999432,6525,13,60,90
0.09999999999999432,6525,14,60,90
0.09999999999999432,6525,15,60,90
0.09999999999999432,6526,0,60,90
0.09999999999999432,6526,1,60,90
0.09999999999999432,6526,2,60,90
0.09999999999999432,6526,3,60,90
0.09999999999999432,6526,4,60,90
0.09999999999999432,6526,5,60,90
0.09999999999999432,6526,6,60,90
0.09999999999999432,6526,7,60,90
0.09999999999999432,6526,8,60,90
0.09999999999999432,6526,9,60,90
0.09999999999999432,6526,10,60,90
0.09999999999999432,6526,11,60,90
0.10000000000002274,6526,12,60,90
0.09999999999999432,6526,13,60,90
0.09999999999999432,6526,14,60,90
0.09999999999999432,6526,15,60,90
0.09999999999999432,6527,0,60,90
0.10000000000002274,6527,1,60,90
0.09999999999999432,6527,2,60,90
0.09999999999999432,6527,3,60,90
0.09999999999999432,6527,4,60,90
0.09999999999999432,6527,5,60,90
0.10000000000002274,6527,6,60,90
0.10000000000002274,6527,7,60,90
0.09999999999999432,6527,8,60,90
0.09999999999999432,6527,9,60,90
0.10000000000002274,6527,10,60,90
0.09999999999999432,6527,11,60,90
0.09999999999999432,6527,12,60,90
0.09999999999999432,6527,13,60,90
0.09999999999999432,6527,14,60,90
0.09999999999999432,6527,15,60,90
0.09999999999999432,6528,0,60,90
0.09999999999999432,6528,1,60,90
0.09999999999999432,6528,2,60,90
0.09999999999999432,6528,3,60,90
0.09999999999999432,6528,4,60,90
0.09999999999999432,6528,5,60,90
0.09999999999999432,6528,6,60,90
0.10000000000002274,6528,7,60,90
0.09999999999999432,6528,8,60,90
0.09999999999999432,6528,9,60,90
0.09999999999999432,6528,10,60,90
0.10000000000002274,6528,11,60,90
0.09999999999999432,6528,12,60,90
0.09999999999999432,6528,13,60,90
0.09999999999999432,6528,14,60,90
0.10000000000002274,6528,15,60,90
0.10000000000002274,6529,0,60,90
0.09999999999999432,6529,1,60,90
0.09999999999999432,6529,2,60,90
0.09999999999999432,6529,3,60,90
0.09999999999999432,6529,4,60,90
0.09999999999999432,6529,5,60,90
0.09999999999999432,6529,6,60,90
0.10000000000002274,6529,7,60,90
0.09999999999999432,6529,8,60,90
0.09999999999999432,6529,9,60,90
0.09999999999999432,6529,10,60,90
0.10000000000002274,6529,11,60,90
0.10000000000002274,6529,12,60,90
0.09999999999999432,6529,13,60,90
0.09999999999999432,6529,14,60,90
0.09999999999999432,6529,15,60,90
0.09999999999999432,6530,0,60,90
0.09999999999999432,6530,1,60,90
0.09999999999999432,6530,2,60,90
0.09999999999999432,6530,3,60,90
0.09999999999999432,6530,4,60,90
0.09999999999999432,6530,5,60,90
0.10000000000002274,6530,6,60,90
0.09999999999999432,6530,7,60,90
0.09999999999999432,6530,8,60,90
0.09999999999999432,6530,9,60,90
0.09999999999999432,6530,10,60,90
0.09999999999999432,6530,11,60,90
0.09999999999999432,6530,12,60,90
0.10000000000002274,6530,13,60,90
0.09999999999999432,6530,14,60,90
0.10000000000002274,6530,15,60,90
0.09999999999999432,6531,0,60,90
0.09999999999999432,6531,1,60,90
0.10000000000002274,6531,2,60,90
0.09999999999999432,6531,3,60,90
0.09999999999999432,6531,4,60,90
0.09999999999999432,6531,5,60,90
0.09999999999999432,6531,6,60,90
0.10000000000002274,6531,7,60,90
0.09999999999999432,6531,8,60,90
0.09999999999999432,6531,9,60,90
0.10000000000000009,6531,10,60,90
0.09999999999999987,6531,11,60,90
0.09999999999999964,6531,12,60,90
0.09999999999999964,6531,13,60,90
0.09999999999999964,6531,14,60,90
0.10000000000000009,6531,15,60,90
0.09999999999999964,6532,0,60,90
0.10000000000000009,6532,1,60,90
0.10000000000000009,6532,2,60,90
0.10000000000000009,6532,3,60,90
0.10000000000000009,6532,4,60,90
0.10000000000000053,6532,5,60,90
0.09999999999999964,6532,6,60,90
0.09999999999999964,6532,7,60,90
0.09999999999999964,6532,8,60,90
0.09999999999999964,6532,9,60,90
0.10000000000000053,6532,10,60,90
0.09999999999999964,6532,11,60,90
0.09999999999999964,6532,12,60,90
0.10000000000000053,6532,13,60,90
0.10000000000000053,6532,14,60,90
0.10000000000000053,6532,15,60,90
0.10000000000000053,6533,0,60,90
0.09999999999999964,6533,1,60,90
0.09999999999999964,6533,2,60,90
0.09999999999999964,6533,3,60,90
0.09999999999999964,6533,4,60,90
0.09999999999999964,6533,5,60,90
0.09999999999999964,6533,6,60,90
0.09999999999999964,6533,7,60,90
0.09999999999999964,6533,8,60,90
0.09999999999999964,6533,9,60,90
0.09999999999999964,6533,10,60,90
0.09999999999999964,6533,11,60,90
0.09999999999999964,6533,12,60,90
0.09999999999999964,6533,13,60,90
0.09999999999999964,6533,14,60,90
0.10000000000000142,6533,15,60,90
0.09999999999999964,6534,0,60,90
0.10000000000000142,6534,1,60,90
0.09999999999999964,6534,2,60,90
0.09999999999999964,6534,3,60,90
0.09999999999999964,6534,4,60,90
0.09999999999999964,6534,5,60,90
0.10000000000000142,6534,6,60,90
0.09999999999999964,6534,7,60,90
0.09999999999999964,6534,8,60,90
0.09999999999999964,6534,9,60,90
0.09999999999999964,6534,10,60,90
0.09999999999999964,6534,11,60,90
0.09999999999999964,6534,12,60,90
0.09999999999999964,6534,13,60,90
0.10000000000000142,6534,14,60,90
0.09999999999999964,6534,15,60,90
0.10000000000000142,6535,0,60,90
0.10000000000000142,6535,1,60,90
0.09999999999999964,6535,2,60,90
0.09999999999999964,6535,3,60,90
0.09999999999999964,6535,4,60,90
0.10000000000000142,6535,5,60,90
0.09999999999999787,6535,6,60,90
0.10000000000000142,6535,7,60,90
0.10000000000000142,6535,8,60,90
0.09999999999999787,6535,9,60,90
0.09999999999999787,6535,10,60,90
0.09999999999999787,6535,11,60,90
0.09999999999999787,6535,12,60,90
0.09999999999999787,6535,13,60,90
0.10000000000000142,6535,14,60,90
0.10000000000000142,6535,15,60,90
0.09999999999999787,6536,0,60,90
0.09999999999999787,6536,1,60,90
0.10000000000000142,6536,2,60,90
0.09999999999999787,6536,3,60,90
0.10000000000000142,6536,4,60,90
0.09999999999999787,6536,5,60,90
0.09999999999999787,6536,6,60,90
0.09999999999999787,6536,7,60,90
0.10000000000000142,6536,8,60,90
0.09999999999999787,6536,9,60,90
0.10000000000000142,6536,10,60,90
0.09999999999999787,6536,11,60,90
0.09999999999999787,6536,12,60,90
0.10000000000000142,6536,13,60,90
0.10000000000000142,6536,14,60,90
0.09999999999999787,6536,15,60,90
0.10000000000000142,6537,0,60,90
0.10000000000000142,6537,1,60,90
0.10000000000000142,6537,2,60,90
0.09999999999999787,6537,3,60,90
0.10000000000000142,6537,4,60,90
0.10000000000000142,6537,5,60,90
0.10000000000000142,6537,6,60,90
0.10000000000000142,6537,7,60,90
0.09999999999999787,6537,8,60,90
0.09999999999999787,6537,9,60,90
0.09999999999999787,6537,10,60,90
0.10000000000000142,6537,11,60,90
0.10000000000000142,6537,12,60,90
0.09999999999999787,6537,13,60,90
0.09999999999999787,6537,14,60,90
0.10000000000000142,6537,15,60,90
0.09999999999999787,6538,0,60,90
0.10000000000000142,6538,1,60,90
0.09999999999999787,6538,2,60,90
0.09999999999999787,6538,3,60,90
0.10000000000000142,6538,4,60,90
0.10000000000000142,6538,5,60,90
0.09999999999999787,6538,6,60,90
0.10000000000000142,6538,7,60,90
0.10000000000000142,6538,8,60,90
0.09999999999999787,6538,9,60,90
0.10000000000000142,6538,10,60,90
0.10000000000000142,6538,11,60,90
0.10000000000000142,6538,12,60,90
0.10000000000000142,6538,13,60,90
0.09999999999999787,6538,14,60,90
0.10000000000000142,6538,15,60,90
0.10000000000000142,6539,0,60,90
0.09999999999999787,6539,1,60,90
0.10000000000000142,6539,2,60,90
0.10000000000000142,6539,3,60,90
0.10000000000000142,6539,4,60,90
0.10000000000000142,6539,5,60,90
0.10000000000000142,6539,6,60,90
0.10000000000000142,6539,7,60,90
0.10000000000000142,6539,8,60,90
0.10000000000000142,6539,9,60,90
0.10000000000000142,6539,10,60,90
0.10000000000000142,6539,11,60,90
0.09999999999999432,6539,12,60,90
0.10000000000000142,6539,13,60,90
0.10000000000000142,6539,14,60,90
0.09999999999999432,6539,15,60,90
0.09999999999999432,6540,0,60,90
0.10000000000000142,6540,1,60,90
0.10000000000000142,6540,2,60,90
0.10000000000000142,6540,3,60,90
0.10000000000000142,6540,4,60,90
0.10000000000000142,6540,5,60,90
0.10000000000000142,6540,6,60,90
0.10000000000000142,6540,7,60,90
0.10000000000000142,6540,8,60,90
0.10000000000000142,6540,9,60,90
0.10000000000000142,6540,10,60,90
0.10000000000000142,6540,11,60,90
0.10000000000000142,6540,12,60,90
0.10000000000000142,6540,13,60,90
0.10000000000000142,6540,14,60,90
0.09999999999999432,6540,15,60,90
0.04545454545453964,6541,0,60,90
0.03636363636363171,6541,1,60,90
0.10000000000000142,6541,2,60,90
0.10000000000000142,6541,3,60,90
0.10000000000000142,6541,4,60,90
0.10000000000000142,6541,5,60,90
0.10000000000000142,6541,6,60,90
0.10000000000000142,6541,7,60,90
0.09999999999999432,6541,8,60,90
0.10000000000000142,6541,9,60,90
0.10000000000000142,6541,10,60,90
0.10000000000000142,6541,11,60,90
0.09999999999999432,6541,12,60,90
0.10000000000000142,6541,13,60,90
0.09999999999999432,6541,14,60,90
0.10000000000000142,6541,15,60,90
0.10000000000000142,6542,0,60,90
0.09999999999999432,6542,1,60,90
0.10000000000000142,6542,2,60,90
0.10000000000000142,6542,3,60,90
0.10000000000000142,6542,4,60,90
0.09999999999999432,6542,5,60,90
0.10000000000000142,6542,6,60,90
0.10000000000000142,6542,7,60,90
0.09999999999999432,6542,8,60,90
0.09999999999999432,6542,9,60,90
0.10000000000000142,6542,10,60,90
0.10000000000000142,6542,11,60,90
0.10000000000000142,6542,12,60,90
0.10000000000000142,6542,13,60,90
0.09999999999999432,6542,14,60,90
0.10000000000000142,6542,15,60,90
0.09999999999999432,6543,0,60,90
0.10000000000000142,6543,1,60,90
0.10000000000000142,6543,2,60,90
0.10000000000000142,6543,3,60,90
0.09999999999999432,6543,4,60,90
0.10000000000000142,6543,5,60,90
0.10000000000000142,6543,6,60,90
0.09999999999999432,6543,7,60,90
0.10000000000000142,6543,8,60,90
0.10000000000000142,6543,9,60,90
0.09999999999999432,6543,10,60,90
0.10000000000000142,6543,11,60,90
0.10000000000000142,6543,12,60,90
0.10000000000000142,6543,13,60,90
0.10000000000000142,6543,14,60,90
0.10000000000000142,6543,15,60,90
0.10000000000000142,6544,0,60,90
0.10000000000000142,6544,1,60,90
0.10000000000000142,6544,2,60,90
0.10000000000000142,6544,3,60,90
0.10000000000000142,6544,4,60,90
0.10000000000000142,6544,5,60,90
0.10000000000000142,6544,6,60,90
0.10000000000000142,6544,7,60,90
0.10000000000000142,6544,8,60,90
0.10000000000000142,6544,9,60,90
0.10000000000000142,6544,10,60,90
0.09999999999999432,6544,11,60,90
0.10000000000000142,6544,12,60,90
0.10000000000000142,6544,13,60,90
0.10000000000000142,6544,14,60,90
0.09999999999999432,6544,15,60,90
0.10000000000000142,6545,0,60,90
0.10000000000000142,6545,1,60,90
0.10000000000000142,6545,2,60,90
0.10000000000000142,6545,3,60,90
0.10000000000000142,6545,4,60,90
0.10000000000000142,6545,5,60,90
0.10000000000000142,6545,6,60,90
0.10000000000000142,6545,7,60,90
0.09999999999999432,6545,8,60,90
0.10000000000000142,6545,9,60,90
0.10000000000000142,6545,10,60,90
0.10000000000000142,6545,11,60,90
0.10000000000000142,6545,12,60,90
0.10000000000000142,6545,13,60,90
0.10000000000000142,6545,14,60,90
0.10000000000000142,6545,15,60,90
0.10000000000000142,6546,0,60,90
0.10000000000000142,6546,1,60,90
0.10000000000000142,6546,2,60,90
0.10000000000000142,6546,3,60,90
0.10000000000000142,6546,4,60,90
0.09999999999999432,6546,5,60,90
0.09999999999999432,6546,6,60,90
0.10000000000000853,6546,7,60,90
0.09999999999999432,6546,8,60,90
0.09999999999999432,6546,9,60,90
0.09999999999999432,6546,10,60,90
0.09999999999999432,6546,11,60,90
0.09999999999999432,6546,12,60,90
0.09999999999999432,6546,13,60,90
0.09999999999999432,6546,14,60,90
0.09999999999999432,6546,15,60,90
0.10000000000000853,6547,0,60,90
0.10000000000000853,6547,1,60,90
0.10000000000000853,6547,2,60,90
0.09999999999999432,6547,3,60,90
0.10000000000000853,6547,4,60,90
0.10000000000000853,6547,5,60,90
0.10000000000000853,6547,6,60,90
0.09999999999999432,6547,7,60,90
0.10000000000000853,6547,8,60,90
0.10000000000000853,6547,9,60,90
0.09999999999999432,6547,10,60,90
0.10000000000000853,6547,11,60,90
0.10000000000000853,6547,12,60,90
0.09999999999999432,6547,13,60,90
0.09999999999999432,6547,14,60,90
0.09999999999999432,6547,15,60,90
0.10000000000000853,6548,0,60,90
0.09999999999999432,6548,1,60,90
0.10000000000000853,6548,2,60,90
0.10000000000000853,6548,3,60,90
0.10000000000000853,6548,4,60,90
0.09999999999999432,6548,5,60,90
0.10000000000000853,6548,6,60,90
0.09999999999999432,6548,7,60,90
0.09999999999999432,6548,8,60,90
0.09999999999999432,6548,9,60,90
0.10000000000000853,6548,10,60,90
0.09999999999999432,6548,11,60,90
0.09999999999999432,6548,12,60,90
0.10000000000000853,6548,13,60,90
0.09999999999999432,6548,14,60,90
0.09999999999999432,6548,15,60,90
0.09999999999999432,6549,0,60,90
0.10000000000000853,6549,1,60,90
0.09999999999999432,6549,2,60,90
0.09999999999999432,6549,3,60,90
0.09999999999999432,6549,4,60,90
0.10000000000000853,6549,5,60,90
0.09999999999999432,6549,6,60,90
0.09999999999999432,6549,7,60,90
0.09999999999999432,6549,8,60,90
0.10000000000000853,6549,9,60,90
0.09999999999999432,6549,10,60,90
0.09999999999999432,6549,11,60,90
0.09999999999999432,6549,12,60,90
0.09999999999999432,6549,13,60,90
0.10000000000000853,6549,14,60,90
0.10000000000000853,6549,15,60,90
0.10000000000000853,6550,0,60,90
0.09999999999999432,6550,1,60,90
0.10000000000000853,6550,2,60,90
0.09999999999999432,6550,3,60,90
0.09999999999999432,6550,4,60,90
0.10000000000000853,6550,5,60,90
0.10000000000000853,6550,6,60,90
0.09999999999999432,6550,7,60,90
0.10000000000000853,6550,8,60,90
0.09999999999999432,6550,9,60,90
0.10000000000000853,6550,10,60,90
0.09999999999999432,6550,11,60,90
0.09999999999999432,6550,12,60,90
0.09999999999999432,6550,13,60,90
0.10000000000000853,6550,14,60,90
0.10000000000000853,6550,15,60,90
0.10000000000000853,6551,0,60,90
0.10000000000000853,6551,1,60,90
0.09999999999999432,6551,2,60,90
0.09999999999999432,6551,3,60,90
0.09999999999999432,6551,4,60,90
0.10000000000000853,6551,5,60,90
0.09999999999999432,6551,6,60,90
0.10000000000000853,6551,7,60,90
0.10000000000000853,6551,8,60,90
0.10000000000000853,6551,9,60,90
0.10000000000000853,6551,10,60,90
0.09999999999999432,6551,11,60,90
0.09999999999999432,6551,12,60,90
0.09999999999999432,6551,13,60,90
0.10000000000000853,6551,14,60,90
0.09999999999999432,6551,15,60,90
0.09999999999999432,6552,0,60,90
0.09999999999999432,6552,1,60,90
0.09999999999999432,6552,2,60,90
0.09999999999999432,6552,3,60,90
0.09999999999999432,6552,4,60,90
0.09999999999999432,6552,5,60,90
0.10000000000000853,6552,6,60,90
0.10000000000000853,6552,7,60,90
0.10000000000000853,6552,8,60,90
0.10000000000000853,6552,9,60,90
0.09999999999999432,6552,10,60,90
0.09999999999999432,6552,11,60,90
0.09999999999999432,6552,12,60,90
0.09999999999999432,6552,13,60,90
0.09999999999999432,6552,14,60,90
0.09999999999999432,6552,15,60,90
0.09999999999999432,6553,0,60,90
0.10000000000000853,6553,1,60,90
0.09999999999999432,6553,2,60,90
0.10000000000000853,6553,3,60,90
0.09999999999999432,6553,4,60,90
0.10000000000000853,6553,5,60,90
0.09999999999999432,6553,6,60,90
0.10000000000000853,6553,7,60,90
0.10000000000000853,6553,8,60,90
0.10000000000000853,6553,9,60,90
0.09999999999999432,6553,10,60,90
0.09999999999999432,6553,11,60,90
0.09999999999999432,6553,12,60,90
0.09999999999999432,6553,13,60,90
0.09999999999999432,6553,14,60,90
0.09999999999999432,6553,15,60,90
0.03409090909090651,6554,0,60,90
0.09999999999999432,6554,1,60,90
0.09999999999999432,6554,2,60,90
0.09999999999999432,6554,3,60,90
0.09999999999999432,6554,4,60,90
0.10000000000000853,6554,5,60,90
0.09999999999999432,6554,6,60,90
0.10000000000000853,6554,7,60,90
0.09999999999999432,6554,8,60,90
0.10000000000000853,6554,9,60,90
0.10000000000000853,6554,10,60,90
0.09999999999999432,6554,11,60,90
0.09999999999999432,6554,12,60,90
0.09999999999999432,6554,13,60,90
0.10000000000000853,6554,14,60,90
0.10000000000000853,6554,15,60,90
0.09999999999999432,6555,0,60,90
0.10000000000000853,6555,1,60,90
0.10000000000000853,6555,2,60,90
0.09999999999999432,6555,3,60,90
0.09999999999999432,6555,4,60,90
0.09999999999999432,6555,5,60,90
0.09999999999999432,6555,6,60,90
0.09999999999999432,6555,7,60,90
0.09999999999999432,6555,8,60,90
0.09999999999999432,6555,9,60,90
0.09999999999999432,6555,10,60,90
0.10000000000000853,6555,11,60,90
0.10000000000000853,6555,12,60,90
0.09999999999999432,6555,13,60,90
0.10000000000000853,6555,14,60,90
0.09999999999999432,6555,15,60,90
0.09999999999999432,6556,0,60,90
0.09999999999999432,6556,1,60,90
0.09999999999999432,6556,2,60,90
0.09999999999999432,6556,3,60,90
0.10000000000000853,6556,4,60,90
0.10000000000000853,6556,5,60,90
0.09999999999999432,6556,6,60,90
0.10000000000000853,6556,7,60,90
0.09999999999999432,6556,8,60,90
0.09999999999999432,6556,9,60,90
0.10000000000000853,6556,10,60,90
0.09999999999999432,6556,11,60,90
0.10000000000000853,6556,12,60,90
0.10000000000000853,6556,13,60,90
0.10000000000000853,6556,14,60,90
0.10000000000000853,6556,15,60,90
0.10000000000000853,6557,0,60,90
0.09999999999999432,6557,1,60,90
0.09999999999999432,6557,2,60,90
0.10000000000000853,6557,3,60,90
0.10000000000000853,6557,4,60,90
0.09999999999999432,6557,5,60,90
0.09999999999999432,6557,6,60,90
0.09999999999999432,6557,7,60,90
0.10000000000000853,6557,8,60,90
0.09999999999999432,6557,9,60,90
0.09999999999999432,6557,10,60,90
0.09999999999999432,6557,11,60,90
0.09999999999999432,6557,12,60,90
0.10000000000000853,6557,13,60,90
0.09999999999999432,6557,14,60,90
0.09999999999999432,6557,15,60,90
0.09999999999999432,6558,0,60,90
0.10000000000000853,6558,1,60,90
0.09999999999999432,6558,2,60,90
0.10000000000000853,6558,3,60,90
0.10000000000000853,6558,4,60,90
0.10000000000000853,6558,5,60,90
0.10000000000000853,6558,6,60,90
0.09999999999999432,6558,7,60,90
0.09999999999999432,6558,8,60,90
0.10000000000000853,6558,9,60,90
0.09999999999999432,6558,10,60,90
0.09999999999999432,6558,11,60,90
0.09999999999999432,6558,12,60,90
0.09999999999999432,6558,13,60,90
0.09999999999999432,6558,14,60,90
0.09999999999999432,6558,15,60,90
0.09999999999999432,6559,0,60,90
0.10000000000000853,6559,1,60,90
0.10000000000000853,6559,2,60,90
0.09999999999999432,6559,3,60,90
0.09999999999999432,6559,4,60,90
0.09999999999999432,6559,5,60,90
0.09999999999999432,6559,6,60,90
0.09999999999999432,6559,7,60,90
0.09999999999999432,6559,8,60,90
0.09999999999999432,6559,9,60,90
0.09999999999999432,6559,10,60,90
0.09999999999999432,6559,11,60,90
0.09999999999999432,6559,12,60,90
0.09999999999999432,6559,13,60,90
0.10000000000002274,6559,14,60,90
0.09999999999999432,6559,15,60,90
0.09999999999999432,6560,0,60,90
0.09999999999999432,6560,1,60,90
0.10000000000002274,6560,2,60,90
0.09999999999999432,6560,3,60,90
0.09999999999999432,6560,4,60,90
0.09999999999999432,6560,5,60,90
0.10000000000002274,6560,6,60,90
0.09999999999999432,6560,7,60,90
0.09999999999999432,6560,8,60,90
0.09999999999999432,6560,9,60,90
0.09999999999999432,6560,10,60,90
0.09999999999999432,6560,11,60,90
0.09999999999999432,6560,12,60,90
0.09999999999999432,6560,13,60,90
0.09999999999999432,6560,14,60,90
0.09999999999999432,6560,15,60,90
0.09999999999999432,6561,0,60,90
0.10000000000002274,6561,1,60,90
0.09999999999999432,6561,2,60,90
0.10000000000002274,6561,3,60,90
0.09999999999999432,6561,4,60,90
0.10000000000002274,6561,5,60,90
0.09999999999999432,6561,6,60,90
0.10000000000002274,6561,7,60,90
0.09999999999999432,6561,8,60,90
0.09999999999999432,6561,9,60,90
0.09999999999999432,6561,10,60,90
0.09999999999999432,6561,11,60,90
0.09999999999999432,6561,12,60,90
0.09999999999999432,6561,13,60,90
0.10000000000002274,6561,14,60,90
0.09999999999999432,6561,15,60,90
0.10000000000002274,6562,0,60,90
0.09999999999999432,6562,1,60,90
0.09999999999999432,6562,2,60,90
0.09999999999999432,6562,3,60,90
0.10000000000002274,6562,4,60,90
0.09999999999999432,6562,5,60,90
0.10000000000002274,6562,6,60,90
0.09999999999999432,6562,7,60,90
0.09999999999999432,6562,8,60,90
0.09999999999999432,6562,9,60,90
0.09999999999999432,6562,10,60,90
0.10000000000002274,6562,11,60,90
0.09999999999999432,6562,12,60,90
0.09999999999999432,6562,13,60,90
0.09999999999999432,6562,14,60,90
0.09999999999999432,6562,15,60,90
0.09999999999999432,6563,0,60,90
0.10000000000002274,6563,1,60,90
0.09999999999999432,6563,2,60,90
0.09999999999999432,6563,3,60,90
0.09999999999999432,6563,4,60,90
0.09999999999999432,6563,5,60,90
0.09999999999999432,6563,6,60,90
0.10000000000002274,6563,7,60,90
0.09999999999999432,6563,8,60,90
0.09999999999999432,6563,9,60,90
0.09999999999999432,6563,10,60,90
0.09999999999999432,6563,11,60,90
0.09999999999999432,6563,12,60,90
0.09999999999999432,6563,13,60,90
0.09999999999999432,6563,14,60,90
0.09999999999999432,6563,15,60,90
0.09999999999999432,6564,0,60,90
0.09999999999999432,6564,1,60,90
0.10000000000002274,6564,2,60,90
0.09999999999999432,6564,3,60,90
0.09999999999999432,6564,4,60,90
0.10000000000002274,6564,5,60,90
0.09999999999999432,6564,6,60,90
0.10000000000002274,6564,7,60,90
0.09999999999999432,6564,8,60,90
0.09999999999999432,6564,9,60,90
0.09999999999999432,6564,10,60,90
0.09999999999999432,6564,11,60,90
0.09999999999999432,6564,12,60,90
0.09999999999999432,6564,13,60,90
0.09999999999999432,6564,14,60,90
0.09999999999999432,6564,15,60,90
0.09999999999999432,6565,0,60,90
0.09999999999999432,6565,1,60,90
0.10000000000002274,6565,2,60,90
0.09999999999999432,6565,3,60,90
0.09999999999999432,6565,4,60,90
0.09999999999999432,6565,5,60,90
0.09999999999999432,6565,6,60,90
0.09999999999999432,6565,7,60,90
0.09999999999999432,6565,8,60,90
0.09999999999999432,6565,9,60,90
0.09999999999999432,6565,10,60,90
0.09999999999999432,6565,11,60,90
0.09999999999999432,6565,12,60,90
0.09999999999999432,6565,13,60,90
0.09999999999999432,6565,14,60,90
0.09999999999999432,6565,15,60,90
0.09999999999999432,6566,0,60,90
0.09999999999999432,6566,1,60,90
0.09999999999999432,6566,2,60,90
0.09999999999999432,6566,3,60,90
0.09999999999999432,6566,4,60,90
0.10000000000002274,6566,5,60,90
0.09999999999999432,6566,6,60,90
0.09999999999999432,6566,7,60,90
0.09999999999999432,6566,8,60,90
0.10000000000002274,6566,9,60,90
0.09999999999999432,6566,10,60,90
0.10000000000002274,6566,11,60,90
0.09999999999999432,6566,12,60,90
0.10000000000002274,6566,13,60,90
0.09999999999999432,6566,14,60,90
0.09999999999999432,6566,15,60,90
0.09999999999999432,6567,0,60,90
0.09999999999999432,6567,1,60,90
0.09999999999999432,6567,2,60,90
0.09999999999999432,6567,3,60,90
0.09999999999999432,6567,4,60,90
0.09999999999999432,6567,5,60,90
0.09999999999999432,6567,6,60,90
0.10000000000002274,6567,7,60,90
0.09999999999999432,6567,8,60,90
0.09999999999999432,6567,9,60,90
0.09999999999999432,6567,10,60,90
0.09999999999999432,6567,11,60,90
0.09999999999999432,6567,12,60,90
0.09999999999999432,6567,13,60,90
0.09999999999999432,6567,14,60,90
0.09999999999999432,6567,15,60,90
0.09999999999999432,6568,0,60,90
0.09999999999999432,6568,1,60,90
0.09999999999999432,6568,2,60,90
0.09999999999999432,6568,3,60,90
0.09999999999999432,6568,4,60,90
0.09999999999999432,6568,5,60,90
0.09999999999999432,6568,6,60,90
0.10000000000002274,6568,7,60,90
0.09999999999999432,6568,8,60,90
0.09999999999999432,6568,9,60,90
0.09999999999999432,6568,10,60,90
0.09999999999999432,6568,11,60,90
0.10000000000002274,6568,12,60,90
0.09999999999999432,6568,13,60,90
0.09999999999999432,6568,14,60,90
0.09999999999999432,6568,15,60,90
0.09999999999999432,6569,0,60,90
0.10000000000002274,6569,1,60,90
0.09999999999999432,6569,2,60,90
0.10000000000002274,6569,3,60,90
0.09999999999999432,6569,4,60,90
0.09999999999999432,6569,5,60,90
0.10000000000002274,6569,6,60,90
0.09999999999999432,6569,7,60,90
0.09999999999999432,6569,8,60,90
0.10000000000002274,6569,9,60,90
0.09999999999999432,6569,10,60,90
0.09999999999999432,6569,11,60,90
0.09999999999999432,6569,12,60,90
0.09999999999999432,6569,13,60,90
0.10000000000002274,6569,14,60,90
0.09999999999999432,6569,15,60,90
0.09999999999999432,6570,0,60,90
0.09999999999999432,6570,1,60,90
0.09999999999999432,6570,2,60,90
0.09999999999999432,6570,3,60,90
0.10000000000002274,6570,4,60,90
0.09999999999999432,6570,5,60,90
0.09999999999999432,6570,6,60,90
0.10000000000002274,6570,7,60,90
0.09999999999999432,6570,8,60,90
0.09999999999999432,6570,9,60,90
0.09999999999999432,6570,10,60,90
0.09999999999999432,6570,11,60,90
0.09999999999999432,6570,12,60,90
0.09999999999999432,6570,13,60,90
0.09999999999999432,6570,14,60,90
0.10000000000002274,6570,15,60,90
0.09999999999999432,6571,0,60,90
0.09999999999999432,6571,1,60,90
0.09999999999999432,6571,2,60,90
0.09999999999999432,6571,3,60,90
0.09999999999999432,6571,4,60,90
0.09999999999999432,6571,5,60,90
0.10000000000002274,6571,6,60,90
0.09999999999999432,6571,7,60,90
0.09999999999999432,6571,8,60,90
0.09999999999999432,6571,9,60,90
0.09999999999999432,6571,10,60,90
0.09999999999999432,6571,11,60,90
0.10000000000002274,6571,12,60,90
0.09999999999999432,6571,13,60,90
0.09999999999999432,6571,14,60,90
0.10000000000002274,6571,15,60,90
0.09999999999999432,6572,0,60,90
0.09999999999999432,6572,1,60,90
0.09999999999999432,6572,2,60,90
0.09999999999999432,6572,3,60,90
0.10000000000002274,6572,4,60,90
0.10000000000002274,6572,5,60,90
0.09999999999999432,6572,6,60,90
0.09999999999999432,6572,7,60,90
0.09999999999999432,6572,8,60,90
0.09999999999999432,6572,9,60,90
0.09999999999999432,6572,10,60,90
0.09999999999999432,6572,11,60,90
0.09999999999999432,6572,12,60,90
0.09999999999999432,6572,13,60,90
0.10000000000002274,6572,14,60,90
0.09999999999999432,6572,15,60,90
0.09999999999999432,6573,0,60,90
0.09999999999999432,6573,1,60,90
0.09999999999999432,6573,2,60,90
0.09999999999999432,6573,3,60,90
0.10000000000002274,6573,4,60,90
0.09999999999999432,6573,5,60,90
0.10000000000002274,6573,6,60,90
0.09999999999999432,6573,7,60,90
0.09999999999999432,6573,8,60,90
0.09999999999999432,6573,9,60,90
0.10000000000002274,6573,10,60,90
0.09999999999999432,6573,11,60,90
0.10000000000002274,6573,12,60,90
0.09999999999999432,6573,13,60,90
0.10000000000002274,6573,14,60,90
0.09999999999999432,6573,15,60,90
0.09999999999999432,6574,0,60,90
0.09999999999999432,6574,1,60,90
0.09999999999999432,6574,2,60,90
0.10000000000002274,6574,3,60,90
0.09999999999999432,6574,4,60,90
0.10000000000002274,6574,5,60,90
0.09999999999999432,6574,6,60,90
0.09999999999999432,6574,7,60,90
0.09999999999999432,6574,8,60,90
0.09999999999999432,6574,9,60,90
0.09999999999999432,6574,10,60,90
0.10000000000002274,6574,11,60,90
0.09999999999999432,6574,12,60,90
0.10000000000002274,6574,13,60,90
0.09999999999999432,6574,14,60,90
0.09999999999999432,6574,15,60,90
0.10000000000002274,6575,0,60,90
0.10000000000002274,6575,1,60,90
0.09999999999999432,6575,2,60,90
0.09999999999999432,6575,3,60,90
0.09999999999999432,6575,4,60,90
0.09999999999999432,6575,5,60,90
0.09999999999999432,6575,6,60,90
0.09999999999999432,6575,7,60,90
0.09999999999999432,6575,8,60,90
0.09999999999999432,6575,9,60,90
0.09999999999999432,6575,10,60,90
0.09999999999999432,6575,11,60,90
0.09999999999999432,6575,12,60,90
0.10000000000002274,6575,13,60,90
0.09999999999999432,6575,14,60,90
0.09999999999999432,6575,15,60,90
0.09999999999999432,6576,0,60,90
0.09999999999999432,6576,1,60,90
0.10000000000002274,6576,2,60,90
0.09999999999999432,6576,3,60,90
0.09999999999999432,6576,4,60,90
0.09999999999999432,6576,5,60,90
0.09999999999999432,6576,6,60,90
0.10000000000002274,6576,7,60,90
0.09999999999999432,6576,8,60,90
0.09999999999999432,6576,9,60,90
0.10000000000002274,6576,10,60,90
0.09999999999999432,6576,11,60,90
0.10000000000002274,6576,12,60,90
0.09999999999999432,6576,13,60,90
0.10000000000002274,6576,14,60,90
0.09999999999999432,6576,15,60,90
0.09999999999999432,6577,0,60,90
0.09999999999999432,6577,1,60,90
0.09999999999999432,6577,2,60,90
0.09999999999999432,6577,3,60,90
0.09999999999999432,6577,4,60,90
0.09999999999999432,6577,5,60,90
0.09999999999999432,6577,6,60,90
0.09999999999999432,6577,7,60,90
0.09999999999999432,6577,8,60,90
0.10000000000002274,6577,9,60,90
0.09999999999999432,6577,10,60,90
0.09999999999999432,6577,11,60,90
0.10000000000002274,6577,12,60,90
0.09999999999999432,6577,13,60,90
0.09999999999999432,6577,14,60,90
0.09999999999999432,6577,15,60,90
0.09999999999999432,6578,0,60,90
0.10000000000002274,6578,1,60,90
0.09999999999999432,6578,2,60,90
0.09999999999999432,6578,3,60,90
0.09999999999999432,6578,4,60,90
0.09999999999999432,6578,5,60,90
0.09999999999999432,6578,6,60,90
0.09999999999999432,6578,7,60,90
0.09999999999999432,6578,8,60,90
0.09999999999999432,6578,9,60,90
0.09999999999999432,6578,10,60,90
0.09999999999999432,6578,11,60,90
0.09999999999999432,6578,12,60,90
0.09999999999999432,6578,13,60,90
0.09999999999999432,6578,14,60,90
0.10000000000002274,6578,15,60,90
0.09999999999999432,6579,0,60,90
0.09999999999999432,6579,1,60,90
0.10000000000002274,6579,2,60,90
0.10000000000002274,6579,3,60,90
0.09999999999999432,6579,4,60,90
0.10000000000002274,6579,5,60,90
0.09999999999999432,6579,6,60,90
0.09999999999999432,6579,7,60,90
0.09999999999999432,6579,8,60,90
0.10000000000002274,6579,9,60,90
0.09999999999999432,6579,10,60,90
0.09999999999999432,6579,11,60,90
0.09999999999999432,6579,12,60,90
0.10000000000002274,6579,13,60,90
0.09999999999999432,6579,14,60,90
0.09999999999999432,6579,15,60,90
0.09999999999999432,6580,0,60,90
0.09999999999999432,6580,1,60,90
0.09999999999999432,6580,2,60,90
0.09999999999999432,6580,3,60,90
0.10000000000002274,6580,4,60,90
0.09999999999999432,6580,5,60,90
0.09999999999999432,6580,6,60,90
0.09999999999999432,6580,7,60,90
0.09999999999999432,6580,8,60,90
0.09999999999999432,6580,9,60,90
0.09999999999999432,6580,10,60,90
0.10000000000002274,6580,11,60,90
0.09999999999999432,6580,12,60,90
0.10000000000002274,6580,13,60,90
0.09999999999999432,6580,14,60,90
0.10000000000002274,6580,15,60,90
0.09999999999999432,6581,0,60,90
0.09999999999999432,6581,1,60,90
0.09999999999999432,6581,2,60,90
0.09999999999999432,6581,3,60,90
0.09999999999999432,6581,4,60,90
0.09999999999999432,6581,5,60,90
0.09999999999999432,6581,6,60,90
0.09999999999999432,6581,7,60,90
0.09999999999999432,6581,8,60,90
0.09999999999999432,6581,9,60,90
0.10000000000002274,6581,10,60,90
0.09999999999999432,6581,11,60,90
0.09999999999999432,6581,12,60,90
0.09999999999999432,6581,13,60,90
0.09999999999999432,6581,14,60,90
0.09999999999999432,6581,15,60,90
0.10000000000002274,6582,0,60,90
0.09999999999999432,6582,1,60,90
0.09999999999999432,6582,2,60,90
0.09999999999999432,6582,3,60,90
0.09999999999999432,6582,4,60,90
0.10000000000002274,6582,5,60,90
0.09999999999999432,6582,6,60,90
0.10000000000002274,6582,7,60,90
0.09999999999999432,6582,8,60,90
0.09999999999999432,6582,9,60,90
0.09999999999999432,6582,10,60,90
0.09999999999999432,6582,11,60,90
0.09999999999999432,6582,12,60,90
0.10000000000002274,6582,13,60,90
0.10000000000002274,6582,14,60,90
0.09999999999999432,6582,15,60,90
0.10000000000002274,6583,0,60,90
0.09999999999999432,6583,1,60,90
0.09999999999999432,6583,2,60,90
0.10000000000002274,6583,3,60,90
0.09999999999999432,6583,4,60,90
0.10000000000002274,6583,5,60,90
0.09999999999999432,6583,6,60,90
0.09999999999999432,6583,7,60,90
0.09999999999999432,6583,8,60,90
0.09999999999999432,6583,9,60,90
0.09999999999999432,6583,10,60,90
0.09999999999999432,6583,11,60,90
0.09999999999999432,6583,12,60,90
0.09999999999999432,6583,13,60,90
0.09999999999999432,6583,14,60,90
0.09999999999999432,6583,15,60,90
0.09999999999999432,6584,0,60,90
0.09999999999999432,6584,1,60,90
0.09999999999999432,6584,2,60,90
0.10000000000002274,6584,3,60,90
0.09999999999999432,6584,4,60,90
0.10000000000002274,6584,5,60,90
0.09999999999999432,6584,6,60,90
0.09999999999999432,6584,7,60,90
0.09999999999999432,6584,8,60,90
0.09999999999999432,6584,9,60,90
0.09999999999999432,6584,10,60,90
0.10000000000002274,6584,11,60,90
0.09999999999999432,6584,12,60,90
0.09999999999999432,6584,13,60,90
0.09999999999999432,6584,14,60,90
0.09999999999999432,6584,15,60,90
0.09999999999999432,6585,0,60,90
0.09999999999999432,6585,1,60,90
0.09999999999999432,6585,2,60,90
0.09999999999999432,6585,3,60,90
0.10000000000002274,6585,4,60,90
0.09999999999999432,6585,5,60,90
0.09999999999999432,6585,6,60,90
0.10000000000002274,6585,7,60,90
0.09999999999999432,6585,8,60,90
0.09999999999999432,6585,9,60,90
0.10000000000002274,6585,10,60,90
0.09999999999999432,6585,11,60,90
0.10000000000002274,6585,12,60,90
0.09999999999999432,6585,13,60,90
0.09999999999999432,6585,14,60,90
0.09999999999999432,6585,15,60,90
0.10000000000002274,6586,0,60,90
0.09999999999999432,6586,1,60,90
0.09999999999999432,6586,2,60,90
0.09999999999999432,6586,3,60,90
0.09999999999999432,6586,4,60,90
0.09999999999999432,6586,5,60,90
0.09999999999999432,6586,6,60,90
0.10000000000002274,6586,7,60,90
0.09999999999999432,6586,8,60,90
0.10000000000002274,6586,9,60,90
0.09999999999999432,6586,10,60,90
0.06818181818181301,6586,11,60,90
0.09999999999999432,6586,12,60,90
0.09999999999999432,6586,13,60,90
0.09999999999999432,6586,14,60,90
0.09999999999999432,6586,15,60,90
0.09999999999999432,6587,0,60,90
0.09999999999999432,6587,1,60,90
0.10000000000002274,6587,2,60,90
0.09999999999999432,6587,3,60,90
0.09999999999999432,6587,4,60,90
0.09999999999999432,6587,5,60,90
0.09999999999999432,6587,6,60,90
0.09999999999999432,6587,7,60,90
0.09999999999999432,6587,8,60,90
0.10000000000002274,6587,9,60,90
0.09999999999999432,6587,10,60,90
0.09999999999999432,6587,11,60,90
0.09999999999999432,6587,12,60,90
0.09999999999999432,6587,13,60,90
0.09999999999999432,6587,14,60,90
0.09999999999999432,6587,15,60,90
0.09999999999999432,6588,0,60,90
0.09999999999999432,6588,1,60,90
0.09999999999999432,6588,2,60,90
0.09999999999999432,6588,3,60,90
0.09999999999999432,6588,4,60,90
0.09999999999999787,6588,5,60,90
0.10000000000000142,6588,6,60,90
0.10000000000000142,6588,7,60,90
0.06818181818182012,6588,8,60,90
0.0022727272727287584,6588,9,60,90
0.10000000000000142,6588,10,60,90
0.10000000000000142,6588,11,60,90
0.013636363636365445,6588,12,60,90
0.10000000000000142,6588,13,60,90
0.06818181818182012,6588,14,60,90
0.0022727272727287584,6588,15,60,90
0.027272727272727337,6589,0,60,90
0.05681818181817988,6589,1,60,90
0.036363636363635266,6589,2,60,90
0.0022727272727287584,6589,3,60,90
0.027272727272727337,6589,4,60,90
0.09999999999999787,6589,5,60,90
0.004545454545453964,6589,6,60,90
0.09999999999999787,6589,7,60,90
0.036363636363635266,6589,8,60,90
0.10000000000000142,6589,9,60,90
0.05681818181818343,6589,10,60,90
0.02500000000000213,6589,11,60,90
0.01590909090909065,6589,12,60,90
0.02499999999999858,6589,13,60,90
0.05681818181818343,6589,14,60,90
0.10000000000000142,6589,15,60,90
0.04772727272727195,6590,0,60,90
0.004545454545453964,6590,1,60,90
0.013636363636365445,6590,2,60,90
0.04772727272727195,6590,3,60,90
0.10000000000000142,6590,4,60,90
0.05681818181818343,6590,5,60,90
0.004545454545453964,6590,6,60,90
0.045454545454543194,6590,7,60,90
0.02499999999999858,6590,8,60,90
0.05681818181818343,6590,9,60,90
0.004545454545457517,6590,10,60,90
0.045454545454546746,6590,11,60,90
0.04772727272727195,6590,12,60,90
0.004545454545453964,6590,13,60,90
0.013636363636361892,6590,14,60,90
0.02499999999999858,6590,15,60,90
0.10000000000000142,6591,0,60,90
0.05909090909090864,6591,1,60,90
0.027272727272727337,6591,2,60,90
0.02499999999999858,6591,3,60,90
0.10000000000000142,6591,4,60,90
0.09999999999999787,6591,5,60,90
0.036363636363635266,6591,6,60,90
0.004545454545453964,6591,7,60,90
0.013636363636365445,6591,8,60,90
0.036363636363635266,6591,9,60,90
0.004545454545453964,6591,10,60,90
0.06818181818182012,6591,11,60,90
0.02500000000000213,6591,12,60,90
0.09999999999999787,6591,13,60,90
0.01590909090909065,6591,14,60,90
0.05681818181818343,6591,15,60,90
0.036363636363635266,6592,0,60,90
0.036363636363635266,6592,1,60,90
0.10000000000000142,6592,2,60,90
0.09999999999999787,6592,3,60,90
0.04772727272727195,6592,4,60,90
0.004545454545453964,6592,5,60,90
0.09999999999999787,6592,6,60,90
0.10000000000000142,6592,7,60,90
0.03636363636363882,6592,8,60,90
0.01590909090909065,6592,9,60,90
0.10000000000000142,6592,10,60,90
0.09999999999999787,6592,11,60,90
0.09999999999999787,6592,12,60,90
0.09999999999999787,6592,13,60,90
0.05681818181817988,6592,14,60,90
0.02500000000000213,6592,15,60,90
0.027272727272727337,6593,0,60,90
0.05681818181817988,6593,1,60,90
0.02499999999999858,6593,2,60,90
0.10000000000000142,6593,3,60,90
0.09999999999999787,6593,4,60,90
0.09999999999999787,6593,5,60,90
0.013636363636361892,6593,6,60,90
0.10000000000000142,6593,7,60,90
0.02499999999999858,6593,8,60,90
0.09999999999999787,6593,9,60,90
0.05681818181817988,6593,10,60,90
0.10000000000000142,6593,11,60,90
0.10000000000000142,6593,12,60,90
0.10000000000000142,6593,13,60,90
0.10000000000000142,6593,14,60,90
0.09999999999999787,6593,15,60,90
0.10000000000000142,6594,0,60,90
0.10000000000000142,6594,1,60,90
0.09999999999999432,6594,2,60,90
0.10000000000000142,6594,3,60,90
0.09999999999999432,6594,4,60,90
0.09999999999999432,6594,5,60,90
0.09999999999999432,6594,6,60,90
0.09999999999999432,6594,7,60,90
0.09999999999999432,6594,8,60,90
0.09999999999999432,6594,9,60,90
0.06818181818181301,6594,10,60,90
0.09999999999999432,6594,11,60,90
0.09999999999999432,6594,12,60,90
0.09999999999999432,6594,13,60,90
0.09999999999999432,6594,14,60,90
0.09999999999999432,6594,15,60,90
0.09999999999999432,6595,0,60,90
0.02727272727273089,6595,1,60,90
0.045454545454532536,6595,2,60,90
0.10000000000002274,6595,3,60,90
0.09999999999999432,6595,4,60,90
0.09999999999999432,6595,5,60,90
0.09999999999999432,6595,6,60,90
0.056818181818186986,6595,7,60,90
0.10000000000002274,6595,8,60,90
0.10000000000002274,6595,9,60,90
0.09999999999999432,6595,10,60,90
0.10000000000002274,6595,11,60,90
0.09999999999999432,6595,12,60,90
0.09999999999999432,6595,13,60,90
0.09999999999999432,6595,14,60,90
0.024999999999977263,6595,15,60,90
0.10000000000002274,6596,0,60,90
0.10000000000002274,6596,1,60,90
0.09999999999999432,6596,2,60,90
0.09999999999999432,6596,3,60,90
0.03636363636363171,6596,4,60,90
0.09999999999999432,6596,5,60,90
0.09999999999999432,6596,6,60,90
0.09999999999999432,6596,7,60,90
0.10000000000002274,6596,8,60,90
0.09999999999999432,6596,9,60,90
0.09999999999999432,6596,10,60,90
0.025000000000005684,6596,11,60,90
0.04772727272725774,6596,12,60,90
0.025000000000005684,6596,13,60,90
0.03636363636363171,6596,14,60,90
0.10000000000002274,6596,15,60,90
0.10000000000002274,6597,0,60,90
0.09999999999999432,6597,1,60,90
0.056818181818186986,6597,2,60,90
0.013636363636379656,6597,3,60,90
0.09999999999999432,6597,4,60,90
0.10000000000002274,6597,5,60,90
0.09999999999999432,6597,6,60,90
0.09999999999999432,6597,7,60,90
0.09999999999999432,6597,8,60,90
0.09999999999999432,6597,9,60,90
0.09999999999999432,6597,10,60,90
0.024999999999977263,6597,11,60,90
0.03636363636363171,6597,12,60,90
0.09999999999999432,6597,13,60,90
0.09999999999999432,6597,14,60,90
0.09999999999999432,6597,15,60,90
0.09999999999999432,6598,0,60,90
0.09999999999999432,6598,1,60,90
0.10000000000002274,6598,2,60,90
0.09999999999999432,6598,3,60,90
0.09999999999999432,6598,4,60,90
0.056818181818186986,6598,5,60,90
0.09999999999999432,6598,6,60,90
0.10000000000002274,6598,7,60,90
0.10000000000002274,6598,8,60,90
0.09999999999999432,6598,9,60,90
0.09999999999999432,6598,10,60,90
0.10000000000002274,6598,11,60,90
0.025000000000005684,6598,12,60,90
0.09999999999999432,6598,13,60,90
0.01590909090907644,6598,14,60,90
0.056818181818186986,6598,15,60,90
0.09999999999999432,6599,0,60,90
0.06818181818181301,6599,1,60,90
0.09999999999999432,6599,2,60,90
0.06818181818181301,6599,3,60,90
0.013636363636351234,6599,4,60,90
0.056818181818186986,6599,5,60,90
0.09999999999999432,6599,6,60,90
0.09999999999999432,6599,7,60,90
0.06818181818181301,6599,8,60,90
0.004545454545450411,6599,9,60,90
0.09999999999999432,6599,10,60,90
0.10000000000002274,6599,11,60,90
0.04772727272728616,6599,12,60,90
0.09999999999999432,6599,13,60,90
0.09999999999999432,6599,14,60,90
0.05909090909091219,6599,15,60,90
0.10000000000002274,6600,0,60,90
0.09999999999999432,6600,1,60,90
0.09999999999999432,6600,2,60,90
0.025000000000005684,6600,3,60,90
0.09999999999999432,6600,4,60,90
0.056818181818186986,6600,5,60,90
0.09999999999999432,6600,6,60,90
0.024999999999977263,6600,7,60,90
0.03636363636363171,6600,8,60,90
0.09999999999999432,6600,9,60,90
0.09999999999999432,6600,10,60,90
0.10000000000002274,6600,11,60,90
0.06818181818184144,6600,12,60,90
0.09999999999999432,6600,13,60,90
0.09999999999999432,6600,14,60,90
0.09999999999999432,6600,15,60,90
0.10000000000002274,6601,0,60,90
0.09999999999999432,6601,1,60,90
0.10000000000002274,6601,2,60,90
0.09999999999999432,6601,3,60,90
0.10000000000002274,6601,4,60,90
0.09999999999999432,6601,5,60,90
0.10000000000002274,6601,6,60,90
0.06818181818184144,6601,7,60,90
0.013636363636379656,6601,8,60,90
0.09999999999999432,6601,9,60,90
0.09999999999999432,6601,10,60,90
0.06818181818181301,6601,11,60,90
0.013636363636351234,6601,12,60,90
0.09999999999999432,6601,13,60,90
0.06818181818181301,6601,14,60,90
0.09999999999999432,6601,15,60,90
0.09999999999999432,6602,0,60,90
0.09999999999999432,6602,1,60,90
0.09999999999999432,6602,2,60,90
0.09999999999999432,6602,3,60,90
0.09999999999999432,6602,4,60,90
0.024999999999977263,6602,5,60,90
0.09999999999999432,6602,6,60,90
0.09999999999999432,6602,7,60,90
0.09999999999999432,6602,8,60,90
0.06818181818181301,6602,9,60,90
0.10000000000002274,6602,10,60,90
0.09999999999999432,6602,11,60,90
0.09999999999999432,6602,12,60,90
0.09999999999999432,6602,13,60,90
0.09999999999999432,6602,14,60,90
0.09999999999999432,6602,15,60,90
0.09999999999999432,6603,0,60,90
0.09999999999999432,6603,1,60,90
0.09999999999999432,6603,2,60,90
0.09999999999999432,6603,3,60,90
0.10000000000002274,6603,4,60,90
0.056818181818186986,6603,5,60,90
0.09999999999999432,6603,6,60,90
0.09999999999999432,6603,7,60,90
0.09999999999999432,6603,8,60,90
0.09999999999999432,6603,9,60,90
0.09999999999999432,6603,10,60,90
0.10000000000002274,6603,11,60,90
0.09999999999999432,6603,12,60,90
0.09999999999999432,6603,13,60,90
0.09999999999999432,6603,14,60,90
0.09999999999999432,6603,15,60,90
0.09999999999999432,6604,0,60,90
0.09999999999999432,6604,1,60,90
0.09999999999999432,6604,2,60,90
0.09999999999999432,6604,3,60,90
0.09999999999999432,6604,4,60,90
0.10000000000002274,6604,5,60,90
0.10000000000000009,6604,6,60,90
0.09999999999999987,6604,7,60,90
0.10000000000000009,6604,8,60,90
0.10000000000000009,6604,9,60,90
0.10000000000000009,6604,10,60,90
0.09999999999999964,6604,11,60,90
0.09999999999999964,6604,12,60,90
0.10000000000000009,6604,13,60,90
0.09999999999999964,6604,14,60,90
0.10000000000000009,6604,15,60,90
0.10000000000000009,6605,0,60,90
0.10000000000000009,6605,1,60,90
0.10000000000000009,6605,2,60,90
0.10000000000000009,6605,3,60,90
0.10000000000000009,6605,4,60,90
0.10000000000000009,6605,5,60,90
0.09999999999999964,6605,6,60,90
0.10000000000000053,6605,7,60,90
0.10000000000000053,6605,8,60,90
0.10000000000000053,6605,9,60,90
0.10000000000000053,6605,10,60,90
0.09999999999999964,6605,11,60,90
0.09999999999999964,6605,12,60,90
0.09999999999999964,6605,13,60,90
0.09999999999999964,6605,14,60,90
0.10000000000000053,6605,15,60,90
0.10000000000000053,6606,0,60,90
0.09999999999999964,6606,1,60,90
0.09999999999999964,6606,2,60,90
0.09999999999999964,6606,3,60,90
0.09999999999999964,6606,4,60,90
0.09999999999999964,6606,5,60,90
0.10000000000000053,6606,6,60,90
0.09999999999999964,6606,7,60,90
0.09999999999999964,6606,8,60,90
0.10000000000000053,6606,9,60,90
0.09999999999999964,6606,10,60,90
0.10000000000000053,6606,11,60,90
0.10000000000000053,6606,12,60,90
0.09999999999999964,6606,13,60,90
0.09999999999999964,6606,14,60,90
0.09999999999999964,6606,15,60,90
0.09999999999999964,6607,0,60,90
0.09999999999999964,6607,1,60,90
0.09999999999999964,6607,2,60,90
0.09999999999999964,6607,3,60,90
0.09999999999999964,6607,4,60,90
0.09999999999999964,6607,5,60,90
0.09999999999999964,6607,6,60,90
0.09999999999999964,6607,7,60,90
0.09999999999999964,6607,8,60,90
0.09999999999999964,6607,9,60,90
0.09999999999999964,6607,10,60,90
0.09999999999999964,6607,11,60,90
0.09999999999999964,6607,12,60,90
0.09999999999999964,6607,13,60,90
0.09999999999999964,6607,14,60,90
0.09999999999999964,6607,15,60,90
0.09999999999999964,6608,0,60,90
0.09999999999999964,6608,1,60,90
0.09999999999999964,6608,2,60,90
0.10000000000000142,6608,3,60,90
0.09999999999999964,6608,4,60,90
0.10000000000000142,6608,5,60,90
0.09999999999999964,6608,6,60,90
0.09999999999999964,6608,7,60,90
0.09999999999999964,6608,8,60,90
0.09999999999999964,6608,9,60,90
0.09999999999999964,6608,10,60,90
0.09999999999999964,6608,11,60,90
0.09999999999999964,6608,12,60,90
0.09999999999999964,6608,13,60,90
0.09999999999999964,6608,14,60,90
0.09999999999999964,6608,15,60,90
0.10000000000000142,6609,0,60,90
0.09999999999999964,6609,1,60,90
0.09999999999999964,6609,2,60,90
0.09999999999999964,6609,3,60,90
0.09999999999999964,6609,4,60,90
0.10000000000000142,6609,5,60,90
0.10000000000000142,6609,6,60,90
0.09999999999999964,6609,7,60,90
0.09999999999999964,6609,8,60,90
0.09999999999999964,6609,9,60,90
0.09999999999999964,6609,10,60,90
0.10000000000000142,6609,11,60,90
0.09999999999999964,6609,12,60,90
0.09999999999999964,6609,13,60,90
0.09999999999999964,6609,14,60,90
0.09999999999999964,6609,15,60,90
0.09999999999999964,6610,0,60,90
0.10000000000000142,6610,1,60,90
0.09999999999999964,6610,2,60,90
0.09999999999999964,6610,3,60,90
0.09999999999999964,6610,4,60,90
0.09999999999999964,6610,5,60,90
0.10000000000000142,6610,6,60,90
0.10000000000000142,6610,7,60,90
0.10000000000000142,6610,8,60,90
0.09999999999999787,6610,9,60,90
0.09999999999999787,6610,10,60,90
0.10000000000000142,6610,11,60,90
0.09999999999999787,6610,12,60,90
0.10000000000000142,6610,13,60,90
0.10000000000000142,6610,14,60,90
0.10000000000000142,6610,15,60,90
0.09999999999999787,6611,0,60,90
0.10000000000000142,6611,1,60,90
0.09999999999999787,6611,2,60,90
0.10000000000000142,6611,3,60,90
0.10000000000000142,6611,4,60,90
0.09999999999999787,6611,5,60,90
0.10000000000000142,6611,6,60,90
0.09999999999999787,6611,7,60,90
0.10000000000000142,6611,8,60,90
0.10000000000000142,6611,9,60,90
0.09999999999999787,6611,10,60,90
0.10000000000000142,6611,11,60,90
0.10000000000000142,6611,12,60,90
0.09999999999999787,6611,13,60,90
0.10000000000000142,6611,14,60,90
0.10000000000000142,6611,15,60,90
0.10000000000000142,6612,0,60,90
0.10000000000000142,6612,1,60,90
0.09999999999999787,6612,2,60,90
0.10000000000000142,6612,3,60,90
0.10000000000000142,6612,4,60,90
0.10000000000000142,6612,5,60,90
0.09999999999999787,6612,6,60,90
0.10000000000000142,6612,7,60,90
0.09999999999999787,6612,8,60,90
0.10000000000000142,6612,9,60,90
0.10000000000000142,6612,10,60,90
0.10000000000000142,6612,11,60,90
0.09999999999999787,6612,12,60,90
0.10000000000000142,6612,13,60,90
0.09999999999999787,6612,14,60,90
0.10000000000000142,6612,15,60,90
0.09999999999999787,6613,0,60,90
0.10000000000000142,6613,1,60,90
0.09999999999999787,6613,2,60,90
0.10000000000000142,6613,3,60,90
0.09999999999999787,6613,4,60,90
0.10000000000000142,6613,5,60,90
0.09999999999999787,6613,6,60,90
0.10000000000000142,6613,7,60,90
0.09999999999999787,6613,8,60,90
0.10000000000000142,6613,9,60,90
0.09999999999999787,6613,10,60,90
0.10000000000000142,6613,11,60,90
0.10000000000000142,6613,12,60,90
0.10000000000000142,6613,13,60,90
0.09999999999999787,6613,14,60,90
0.10000000000000142,6613,15,60,90
0.09999999999999787,6614,0,60,90
0.10000000000000142,6614,1,60,90
0.09999999999999787,6614,2,60,90
0.10000000000000142,6614,3,60,90
0.09999999999999787,6614,4,60,90
0.09999999999999787,6614,5,60,90
0.10000000000000142,6614,6,60,90
0.10000000000000142,6614,7,60,90
0.09999999999999787,6614,8,60,90
0.10000000000000142,6614,9,60,90
0.09999999999999787,6614,10,60,90
0.10000000000000142,6614,11,60,90
0.10000000000000142,6614,12,60,90
0.10000000000000142,6614,13,60,90
0.09999999999999787,6614,14,60,90
0.09999999999999787,6614,15,60,90
0.10000000000000142,6615,0,60,90
0.09999999999999787,6615,1,60,90
0.10000000000000142,6615,2,60,90
0.10000000000000142,6615,3,60,90
0.09999999999999787,6615,4,60,90
0.10000000000000142,6615,5,60,90
0.09999999999999787,6615,6,60,90
0.10000000000000142,6615,7,60,90
0.10000000000000142,6615,8,60,90
0.10000000000000142,6615,9,60,90
0.09999999999999787,6615,10,60,90
0.09999999999999787,6615,11,60,90
0.10000000000000142,6615,12,60,90
0.09999999999999787,6615,13,60,90
0.10000000000000142,6615,14,60,90
0.09999999999999787,6615,15,60,90
0.09999999999999787,6616,0,60,90
0.09999999999999787,6616,1,60,90
0.10000000000000142,6616,2,60,90
0.10000000000000142,6616,3,60,90
0.10000000000000142,6616,4,60,90
0.10000000000000142,6616,5,60,90
0.10000000000000142,6616,6,60,90
0.09999999999999787,6616,7,60,90
0.10000000000000142,6616,8,60,90
0.10000000000000142,6616,9,60,90
0.09999999999999432,6616,10,60,90
0.10000000000000142,6616,11,60,90
0.09999999999999432,6616,12,60,90
0.10000000000000142,6616,13,60,90
0.10000000000000142,6616,14,60,90
0.10000000000000142,6616,15,60,90
0.10000000000000142,6617,0,60,90
0.10000000000000142,6617,1,60,90
0.10000000000000142,6617,2,60,90
0.10000000000000142,6617,3,60,90
0.09999999999999432,6617,4,60,90
0.10000000000000142,6617,5,60,90
0.10000000000000142,6617,6,60,90
0.10000000000000142,6617,7,60,90
0.10000000000000142,6617,8,60,90
0.10000000000000142,6617,9,60,90
0.10000000000000142,6617,10,60,90
0.10000000000000142,6617,11,60,90
0.09999999999999432,6617,12,60,90
0.09999999999999432,6617,13,60,90
0.09999999999999432,6617,14,60,90
0.09999999999999432,6617,15,60,90
0.09999999999999432,6618,0,60,90
0.09999999999999432,6618,1,60,90
0.09999999999999432,6618,2,60,90
0.09999999999999432,6618,3,60,90
0.09999999999999432,6618,4,60,90
0.10000000000002274,6618,5,60,90
0.09999999999999432,6618,6,60,90
0.09999999999999432,6618,7,60,90
0.09999999999999432,6618,8,60,90
0.09999999999999432,6618,9,60,90
0.09999999999999432,6618,10,60,90
0.10000000000002274,6618,11,60,90
0.09999999999999432,6618,12,60,90
0.09999999999999432,6618,13,60,90
0.09999999999999432,6618,14,60,90
0.09999999999999432,6618,15,60,90
0.09999999999999432,6619,0,60,90
0.09999999999999432,6619,1,60,90
0.09999999999999432,6619,2,60,90
0.09999999999999432,6619,3,60,90
0.10000000000002274,6619,4,60,90
0.09999999999999432,6619,5,60,90
0.10000000000002274,6619,6,60,90
0.09999999999999432,6619,7,60,90
0.09999999999999432,6619,8,60,90
0.09999999999999432,6619,9,60,90
0.09999999999999432,6619,10,60,90
0.10000000000002274,6619,11,60,90
0.09999999999999432,6619,12,60,90
0.09999999999999432,6619,13,60,90
0.10000000000002274,6619,14,60,90
0.09999999999999432,6619,15,60,90
0.09999999999999432,6620,0,60,90
0.09999999999999432,6620,1,60,90
0.09999999999999432,6620,2,60,90
0.09999999999999432,6620,3,60,90
0.09999999999999432,6620,4,60,90
0.10000000000002274,6620,5,60,90
0.09999999999999432,6620,6,60,90
0.10000000000002274,6620,7,60,90
0.09999999999999432,6620,8,60,90
0.09999999999999432,6620,9,60,90
0.09999999999999432,6620,10,60,90
0.09999999999999432,6620,11,60,90
0.09999999999999432,6620,12,60,90
0.09999999999999432,6620,13,60,90
0.10000000000002274,6620,14,60,90
0.09999999999999432,6620,15,60,90
0.10000000000002274,6621,0,60,90
0.09999999999999432,6621,1,60,90
0.09999999999999432,6621,2,60,90
0.09999999999999432,6621,3,60,90
0.09999999999999432,6621,4,60,90
0.09999999999999432,6621,5,60,90
0.09999999999999432,6621,6,60,90
0.09999999999999432,6621,7,60,90
0.09999999999999432,6621,8,60,90
0.09999999999999432,6621,9,60,90
0.09999999999999432,6621,10,60,90
0.09999999999999432,6621,11,60,90
0.09999999999999432,6621,12,60,90
0.09999999999999432,6621,13,60,90
0.10000000000002274,6621,14,60,90
0.09999999999999432,6621,15,60,90
0.09999999999999432,6622,0,60,90
0.09999999999999432,6622,1,60,90
0.09999999999999432,6622,2,60,90
0.09999999999999432,6622,3,60,90
0.09999999999999432,6622,4,60,90
0.09999999999999432,6622,5,60,90
0.09999999999999432,6622,6,60,90
0.09999999999999432,6622,7,60,90
0.09999999999999432,6622,8,60,90
0.09999999999999432,6622,9,60,90
0.09999999999999432,6622,10,60,90
0.09999999999999432,6622,11,60,90
0.09999999999999432,6622,12,60,90
0.09999999999999432,6622,13,60,90
0.10000000000002274,6622,14,60,90
0.09999999999999432,6622,15,60,90
0.09999999999999432,6623,0,60,90
0.09999999999999432,6623,1,60,90
0.09999999999999432,6623,2,60,90
0.10000000000002274,6623,3,60,90
0.09999999999999787,6623,4,60,90
0.04772727272727195,6623,5,60,90
0.09999999999999787,6623,6,60,90
0.09999999999999787,6623,7,60,90
0.10000000000000142,6623,8,60,90
0.09999999999999787,6623,9,60,90
0.09999999999999787,6623,10,60,90
0.09999999999999787,6623,11,60,90
0.09999999999999432,6623,12,60,90
0.10000000000000142,6623,13,60,90
0.10000000000000142,6623,14,60,90
0.10000000000000142,6623,15,60,90
0.10000000000000142,6624,0,60,90
0.10000000000000142,6624,1,60,90
0.10000000000000142,6624,2,60,90
0.10000000000000142,6624,3,60,90
0.10000000000000142,6624,4,60,90
0.10000000000000142,6624,5,60,90
0.09999999999999432,6624,6,60,90
0.10000000000000142,6624,7,60,90
0.10000000000000142,6624,8,60,90
0.10000000000000142,6624,9,60,90
0.10000000000000142,6624,10,60,90
0.10000000000000142,6624,11,60,90
0.10000000000000142,6624,12,60,90
0.10000000000000142,6624,13,60,90
0.10000000000000142,6624,14,60,90
0.10000000000000142,6624,15,60,90
0.10000000000000142,6625,0,60,90
0.10000000000000142,6625,1,60,90
0.10000000000000142,6625,2,60,90
0.10000000000000142,6625,3,60,90
0.10000000000000142,6625,4,60,90
0.10000000000000142,6625,5,60,90
0.10000000000000142,6625,6,60,90
0.10000000000000142,6625,7,60,90
0.10000000000000142,6625,8,60,90
0.09999999999999432,6625,9,60,90
0.10000000000000142,6625,10,60,90
0.09999999999999432,6625,11,60,90
0.10000000000000142,6625,12,60,90
0.10000000000000142,6625,13,60,90
0.10000000000000142,6625,14,60,90
0.09999999999999432,6625,15,60,90
0.10000000000000142,6626,0,60,90
0.10000000000000142,6626,1,60,90
0.10000000000000142,6626,2,60,90
0.10000000000000142,6626,3,60,90
0.10000000000000142,6626,4,60,90
0.10000000000000142,6626,5,60,90
0.10000000000000142,6626,6,60,90
0.10000000000000142,6626,7,60,90
0.09999999999999432,6626,8,60,90
0.10000000000000142,6626,9,60,90
0.09999999999999432,6626,10,60,90
0.10000000000000853,6626,11,60,90
0.10000000000000853,6626,12,60,90
0.09999999999999432,6626,13,60,90
0.09999999999999432,6626,14,60,90
0.09999999999999432,6626,15,60,90
0.10000000000000853,6627,0,60,90
0.09999999999999432,6627,1,60,90
0.09999999999999432,6627,2,60,90
0.10000000000000853,6627,3,60,90
0.09999999999999432,6627,4,60,90
0.09999999999999432,6627,5,60,90
0.09999999999999432,6627,6,60,90
0.10000000000000853,6627,7,60,90
0.09999999999999432,6627,8,60,90
0.09999999999999432,6627,9,60,90
0.09999999999999432,6627,10,60,90
0.09999999999999432,6627,11,60,90
0.10000000000000853,6627,12,60,90
0.09999999999999432,6627,13,60,90
0.09999999999999432,6627,14,60,90
0.09999999999999432,6627,15,60,90
0.09999999999999432,6628,0,60,90
0.10000000000000853,6628,1,60,90
0.10000000000000853,6628,2,60,90
0.10000000000000853,6628,3,60,90
0.09999999999999432,6628,4,60,90
0.09999999999999432,6628,5,60,90
0.09999999999999432,6628,6,60,90
0.09999999999999432,6628,7,60,90
0.09999999999999432,6628,8,60,90
0.10000000000000853,6628,9,60,90
0.09999999999999432,6628,10,60,90
0.09999999999999432,6628,11,60,90
0.09999999999999432,6628,12,60,90
0.10000000000000853,6628,13,60,90
0.09999999999999432,6628,14,60,90
0.09999999999999432,6628,15,60,90
0.09999999999999432,6629,0,60,90
0.09999999999999432,6629,1,60,90
0.10000000000000853,6629,2,60,90
0.09999999999999432,6629,3,60,90
0.09999999999999432,6629,4,60,90
0.10000000000000853,6629,5,60,90
0.10000000000000853,6629,6,60,90
0.10000000000000853,6629,7,60,90
0.10000000000000853,6629,8,60,90
0.09999999999999432,6629,9,60,90
0.09999999999999432,6629,10,60,90
0.09999999999999432,6629,11,60,90
0.10000000000000853,6629,12,60,90
0.09999999999999432,6629,13,60,90
0.09999999999999432,6629,14,60,90
0.10000000000002274,6629,15,60,90
0.09999999999999432,6630,0,60,90
0.09999999999999432,6630,1,60,90
0.09999999999999432,6630,2,60,90
0.09999999999999432,6630,3,60,90
0.09999999999999432,6630,4,60,90
0.09999999999999432,6630,5,60,90
0.09999999999999432,6630,6,60,90
0.10000000000002274,6630,7,60,90
0.09999999999999432,6630,8,60,90
0.09999999999999432,6630,9,60,90
0.09999999999999432,6630,10,60,90
0.10000000000002274,6630,11,60,90
0.09999999999999432,6630,12,60,90
0.09999999999999432,6630,13,60,90
0.10000000000002274,6630,14,60,90
0.09999999999999432,6630,15,60,90
0.09999999999999432,6631,0,60,90
0.09999999999999432,6631,1,60,90
0.09999999999999432,6631,2,60,90
0.10000000000002274,6631,3,60,90
0.09999999999999432,6631,4,60,90
0.09999999999999432,6631,5,60,90
0.09999999999999432,6631,6,60,90
0.09999999999999432,6631,7,60,90
0.09999999999999432,6631,8,60,90
0.09999999999999432,6631,9,60,90
0.09999999999999432,6631,10,60,90
0.09999999999999432,6631,11,60,90
0.09999999999999432,6631,12,60,90
0.09999999999999432,6631,13,60,90
0.09999999999999432,6631,14,60,90
0.09999999999999432,6631,15,60,90
0.09999999999999432,6632,0,60,90
0.09999999999999432,6632,1,60,90
0.10000000000002274,6632,2,60,90
0.09999999999999432,6632,3,60,90
0.09999999999999432,6632,4,60,90
0.09999999999999432,6632,5,60,90
0.10000000000002274,6632,6,60,90
0.09999999999999432,6632,7,60,90
0.09999999999999432,6632,8,60,90
0.10000000000002274,6632,9,60,90
0.09999999999999432,6632,10,60,90
0.09999999999999432,6632,11,60,90
0.10000000000002274,6632,12,60,90
0.09999999999999432,6632,13,60,90
0.10000000000002274,6632,14,60,90
0.09999999999999432,6632,15,60,90
0.09999999999999432,6633,0,60,90
0.10000000000002274,6633,1,60,90
0.09999999999999432,6633,2,60,90
0.09999999999999432,6633,3,60,90
0.09999999999999432,6633,4,60,90
0.09999999999999432,6633,5,60,90
0.10000000000002274,6633,6,60,90
0.09999999999999432,6633,7,60,90
0.09999999999999432,6633,8,60,90
0.10000000000002274,6633,9,60,90
0.09999999999999432,6633,10,60,90
0.09999999999999432,6633,11,60,90
0.10000000000002274,6633,12,60,90
0.09999999999999432,6633,13,60,90
0.09999999999999432,6633,14,60,90
0.10000000000002274,6633,15,60,90
0.09999999999999432,6634,0,60,90
0.10000000000002274,6634,1,60,90
0.09999999999999432,6634,2,60,90
0.09999999999999432,6634,3,60,90
0.10000000000002274,6634,4,60,90
0.09999999999999432,6634,5,60,90
0.09999999999999432,6634,6,60,90
0.09999999999999432,6634,7,60,90
0.09999999999999432,6634,8,60,90
0.10000000000002274,6634,9,60,90
0.09999999999999432,6634,10,60,90
0.09999999999999432,6634,11,60,90
0.09999999999999432,6634,12,60,90
0.09999999999999432,6634,13,60,90
0.10000000000002274,6634,14,60,90
0.09999999999999432,6634,15,60,90
0.09999999999999432,6635,0,60,90
0.09999999999999432,6635,1,60,90
0.10000000000002274,6635,2,60,90
0.09999999999999432,6635,3,60,90
0.09999999999999432,6635,4,60,90
0.09999999999999432,6635,5,60,90
0.10000000000002274,6635,6,60,90
0.09999999999999432,6635,7,60,90
0.09999999999999432,6635,8,60,90
0.09999999999999432,6635,9,60,90
0.09999999999999432,6635,10,60,90
0.09999999999999432,6635,11,60,90
0.09999999999999432,6635,12,60,90
0.09999999999999432,6635,13,60,90
0.09999999999999432,6635,14,60,90
0.09999999999999432,6635,15,60,90
0.09999999999999432,6636,0,60,90
0.09999999999999432,6636,1,60,90
0.09999999999999432,6636,2,60,90
0.10000000000002274,6636,3,60,90
0.09999999999999432,6636,4,60,90
0.09999999999999432,6636,5,60,90
0.10000000000002274,6636,6,60,90
0.09999999999999432,6636,7,60,90
0.09999999999999432,6636,8,60,90
0.10000000000002274,6636,9,60,90
0.09999999999999432,6636,10,60,90
0.09999999999999432,6636,11,60,90
0.09999999999999432,6636,12,60,90
0.09999999999999432,6636,13,60,90
0.09999999999999432,6636,14,60,90
0.10000000000002274,6636,15,60,90
0.10000000000002274,6637,0,60,90
0.09999999999999432,6637,1,60,90
0.09999999999999432,6637,2,60,90
0.09999999999999432,6637,3,60,90
0.09999999999999432,6637,4,60,90
0.09999999999999432,6637,5,60,90
0.10000000000002274,6637,6,60,90
0.09999999999999432,6637,7,60,90
0.09999999999999432,6637,8,60,90
0.09999999999999432,6637,9,60,90
0.09999999999999432,6637,10,60,90
0.09999999999999432,6637,11,60,90
0.09999999999999432,6637,12,60,90
0.09999999999999432,6637,13,60,90
0.09999999999999432,6637,14,60,90
0.09999999999999432,6637,15,60,90
0.10000000000002274,6638,0,60,90
0.09999999999999432,6638,1,60,90
0.10000000000002274,6638,2,60,90
0.09999999999999432,6638,3,60,90
0.09999999999999432,6638,4,60,90
0.09999999999999432,6638,5,60,90
0.09999999999999432,6638,6,60,90
0.09999999999999432,6638,7,60,90
0.09999999999999432,6638,8,60,90
0.09999999999999432,6638,9,60,90
0.09999999999999432,6638,10,60,90
0.09999999999999432,6638,11,60,90
0.10000000000002274,6638,12,60,90
0.09999999999999432,6638,13,60,90
0.10000000000002274,6638,14,60,90
0.09999999999999432,6638,15,60,90
0.09999999999999432,6639,0,60,90
0.10000000000002274,6639,1,60,90
0.09999999999999432,6639,2,60,90
0.09999999999999432,6639,3,60,90
0.09999999999999432,6639,4,60,90
0.10000000000002274,6639,5,60,90
0.09999999999999432,6639,6,60,90
0.09999999999999432,6639,7,60,90
0.09999999999999432,6639,8,60,90
0.09999999999999432,6639,9,60,90
0.09999999999999432,6639,10,60,90
0.10000000000002274,6639,11,60,90
0.09999999999999432,6639,12,60,90
0.10000000000002274,6639,13,60,90
0.10000000000002274,6639,14,60,90
0.09999999999999432,6639,15,60,90
0.09999999999999432,6640,0,60,90
0.09999999999999432,6640,1,60,90
0.10000000000002274,6640,2,60,90
0.09999999999999432,6640,3,60,90
0.09999999999999432,6640,4,60,90
0.09999999999999432,6640,5,60,90
0.09999999999999432,6640,6,60,90
0.09999999999999432,6640,7,60,90
0.10000000000002274,6640,8,60,90
0.10000000000002274,6640,9,60,90
0.09999999999999432,6640,10,60,90
0.10000000000002274,6640,11,60,90
0.09999999999999432,6640,12,60,90
0.09999999999999432,6640,13,60,90
0.09999999999999432,6640,14,60,90
0.09999999999999432,6640,15,60,90
0.09999999999999432,6641,0,60,90
0.09999999999999432,6641,1,60,90
0.09999999999999432,6641,2,60,90
0.09999999999999432,6641,3,60,90
0.09999999999999432,6641,4,60,90
0.09999999999999432,6641,5,60,90
0.09999999999999432,6641,6,60,90
0.09999999999999432,6641,7,60,90
0.09999999999999432,6641,8,60,90
0.09999999999999432,6641,9,60,90
0.10000000000002274,6641,10,60,90
0.09999999999999432,6641,11,60,90
0.09999999999999432,6641,12,60,90
0.09999999999999432,6641,13,60,90
0.09999999999999432,6641,14,60,90
0.09999999999999432,6641,15,60,90
0.09999999999999432,6642,0,60,90
0.10000000000002274,6642,1,60,90
0.09999999999999432,6642,2,60,90
0.09999999999999432,6642,3,60,90
0.09999999999999432,6642,4,60,90
0.09999999999999432,6642,5,60,90
0.10000000000002274,6642,6,60,90
0.09999999999999432,6642,7,60,90
0.09999999999999432,6642,8,60,90
0.09999999999999432,6642,9,60,90
0.09999999999999432,6642,10,60,90
0.09999999999999432,6642,11,60,90
0.10000000000002274,6642,12,60,90
0.10000000000002274,6642,13,60,90
0.09999999999999432,6642,14,60,90
0.10000000000002274,6642,15,60,90
0.09999999999999432,6643,0,60,90
0.09999999999999432,6643,1,60,90
0.09999999999999432,6643,2,60,90
0.09999999999999432,6643,3,60,90
0.09999999999999432,6643,4,60,90
0.09999999999999432,6643,5,60,90
0.09999999999999432,6643,6,60,90
0.09999999999999432,6643,7,60,90
0.09999999999999432,6643,8,60,90
0.10000000000002274,6643,9,60,90
0.10000000000002274,6643,10,60,90
0.09999999999999432,6643,11,60,90
0.09999999999999432,6643,12,60,90
0.09999999999999432,6643,13,60,90
0.09999999999999432,6643,14,60,90
0.10000000000002274,6643,15,60,90
0.09999999999999432,6644,0,60,90
0.09999999999999432,6644,1,60,90
0.09999999999999432,6644,2,60,90
0.09999999999999432,6644,3,60,90
0.09999999999999432,6644,4,60,90
0.10000000000002274,6644,5,60,90
0.09999999999999432,6644,6,60,90
0.09999999999999432,6644,7,60,90
0.10000000000002274,6644,8,60,90
0.09999999999999432,6644,9,60,90
0.09999999999999432,6644,10,60,90
0.09999999999999432,6644,11,60,90
0.09999999999999432,6644,12,60,90
0.09999999999999432,6644,13,60,90
0.09999999999999432,6644,14,60,90
0.09999999999999432,6644,15,60,90
0.09999999999999432,6645,0,60,90
0.09999999999999432,6645,1,60,90
0.09999999999999432,6645,2,60,90
0.10000000000002274,6645,3,60,90
0.09999999999999432,6645,4,60,90
0.10000000000002274,6645,5,60,90
0.09999999999999432,6645,6,60,90
0.09999999999999432,6645,7,60,90
0.09999999999999432,6645,8,60,90
0.10000000000002274,6645,9,60,90
0.09999999999999432,6645,10,60,90
0.09999999999999432,6645,11,60,90
0.09999999999999432,6645,12,60,90
0.09999999999999432,6645,13,60,90
0.09999999999999432,6645,14,60,90
0.09999999999999432,6645,15,60,90
0.09999999999999432,6646,0,60,90
0.10000000000002274,6646,1,60,90
0.09999999999999432,6646,2,60,90
0.09999999999999432,6646,3,60,90
0.09999999999999432,6646,4,60,90
0.09999999999999432,6646,5,60,90
0.09999999999999432,6646,6,60,90
0.09999999999999432,6646,7,60,90
0.09999999999999432,6646,8,60,90
0.09999999999999432,6646,9,60,90
0.09999999999999432,6646,10,60,90
0.09999999999999432,6646,11,60,90
0.10000000000002274,6646,12,60,90
0.09999999999999432,6646,13,60,90
0.09999999999999432,6646,14,60,90
0.09999999999999432,6646,15,60,90
0.10000000000002274,6647,0,60,90
0.09999999999999432,6647,1,60,90
0.09999999999999432,6647,2,60,90
0.09999999999999432,6647,3,60,90
0.09999999999999432,6647,4,60,90
0.09999999999999432,6647,5,60,90
0.09999999999999432,6647,6,60,90
0.09999999999999432,6647,7,60,90
0.09999999999999432,6647,8,60,90
0.10000000000002274,6647,9,60,90
0.09999999999999432,6647,10,60,90
0.09999999999999432,6647,11,60,90
0.09999999999999432,6647,12,60,90
0.09999999999999432,6647,13,60,90
0.09999999999999432,6647,14,60,90
0.09999999999999432,6647,15,60,90
0.09999999999999432,6648,0,60,90
0.09999999999999432,6648,1,60,90
0.09999999999999432,6648,2,60,90
0.09999999999999432,6648,3,60,90
0.10000000000002274,6648,4,60,90
0.09999999999999432,6648,5,60,90
0.09999999999999432,6648,6,60,90
0.09999999999999432,6648,7,60,90
0.09999999999999432,6648,8,60,90
0.09999999999999432,6648,9,60,90
0.09999999999999432,6648,10,60,90
0.09999999999999432,6648,11,60,90
0.09999999999999432,6648,12,60,90
0.10000000000002274,6648,13,60,90
0.09999999999999432,6648,14,60,90
0.09999999999999432,6648,15,60,90
0.10000000000002274,6649,0,60,90
0.09999999999999432,6649,1,60,90
0.09999999999999432,6649,2,60,90
0.10000000000002274,6649,3,60,90
0.09999999999999432,6649,4,60,90
0.09999999999999432,6649,5,60,90
0.10000000000002274,6649,6,60,90
0.09999999999999432,6649,7,60,90
0.09999999999999432,6649,8,60,90
0.10000000000002274,6649,9,60,90
0.09999999999999432,6649,10,60,90
0.09999999999999432,6649,11,60,90
0.10000000000002274,6649,12,60,90
0.09999999999999432,6649,13,60,90
0.09999999999999432,6649,14,60,90
0.09999999999999432,6649,15,60,90
0.09999999999999432,6650,0,60,90
0.09999999999999432,6650,1,60,90
0.09999999999999432,6650,2,60,90
0.09999999999999432,6650,3,60,90
0.09999999999999432,6650,4,60,90
0.10000000000002274,6650,5,60,90
0.09999999999999432,6650,6,60,90
0.09999999999999432,6650,7,60,90
0.09999999999999432,6650,8,60,90
0.09999999999999432,6650,9,60,90
0.09999999999999432,6650,10,60,90
0.09999999999999432,6650,11,60,90
0.09999999999999432,6650,12,60,90
0.09999999999999432,6650,13,60,90
0.09999999999999787,6650,14,60,90
0.09999999999999787,6650,15,60,90
0.09999999999999787,6651,0,60,90
0.10000000000000142,6651,1,60,90
0.10000000000000142,6651,2,60,90
0.09999999999999432,6651,3,60,90
0.09999999999999432,6651,4,60,90
0.09999999999999432,6651,5,60,90
0.10000000000000142,6651,6,60,90
0.10000000000000142,6651,7,60,90
0.10000000000000142,6651,8,60,90
0.04772727272727195,6651,9,60,90
0.10000000000000142,6651,10,60,90
0.09999999999999432,6651,11,60,90
0.10000000000000142,6651,12,60,90
0.10000000000000142,6651,13,60,90
0.10000000000000142,6651,14,60,90
0.10000000000000142,6651,15,60,90
0.10000000000000142,6652,0,60,90
0.10000000000000142,6652,1,60,90
0.09999999999999432,6652,2,60,90
0.09999999999999432,6652,3,60,90
0.10000000000000142,6652,4,60,90
0.09999999999999432,6652,5,60,90
0.10000000000000142,6652,6,60,90
0.10000000000000142,6652,7,60,90
0.09999999999999432,6652,8,60,90
0.10000000000000853,6652,9,60,90
0.10000000000000853,6652,10,60,90
0.10000000000000853,6652,11,60,90
0.09999999999999432,6652,12,60,90
0.09999999999999432,6652,13,60,90
0.10000000000000853,6652,14,60,90
0.09999999999999432,6652,15,60,90
0.09999999999999432,6653,0,60,90
0.09999999999999432,6653,1,60,90
0.10000000000000853,6653,2,60,90
0.09999999999999432,6653,3,60,90
0.10000000000000853,6653,4,60,90
0.09999999999999432,6653,5,60,90
0.10000000000000853,6653,6,60,90
0.10000000000000853,6653,7,60,90
0.09999999999999432,6653,8,60,90
0.04772727272727195,6653,9,60,90
0.09999999999999432,6653,10,60,90
0.10000000000000853,6653,11,60,90
0.10000000000000853,6653,12,60,90
0.09999999999999432,6653,13,60,90
0.09999999999999432,6653,14,60,90
0.10000000000000853,6653,15,60,90
0.09999999999999432,6654,0,60,90
0.09999999999999432,6654,1,60,90
0.10000000000000853,6654,2,60,90
0.09999999999999432,6654,3,60,90
0.09999999999999432,6654,4,60,90
0.03636363636363171,6654,5,60,90
0.04772727272727195,6654,6,60,90
0.013636363636365445,6654,7,60,90
0.09999999999999432,6654,8,60,90
0.06818181818181301,6654,9,60,90
0.013636363636351234,6654,10,60,90
0.01590909090909065,6654,11,60,90
0.09999999999999432,6654,12,60,90
0.10000000000000853,6654,13,60,90
0.09999999999999432,6654,14,60,90
0.10000000000000853,6654,15,60,90
0.10000000000000853,6655,0,60,90
0.10000000000000853,6655,1,60,90
0.09999999999999432,6655,2,60,90
0.09999999999999432,6655,3,60,90
0.09999999999999432,6655,4,60,90
0.09999999999999432,6655,5,60,90
0.013636363636379656,6655,6,60,90
0.09999999999999432,6655,7,60,90
0.09999999999999432,6655,8,60,90
0.09999999999999432,6655,9,60,90
0.09999999999999432,6655,10,60,90
0.09999999999999432,6655,11,60,90
0.09999999999999432,6655,12,60,90
0.09999999999999432,6655,13,60,90
0.09999999999999432,6655,14,60,90
0.10000000000002274,6655,15,60,90
0.09999999999999432,6656,0,60,90
0.09999999999999432,6656,1,60,90
0.09999999999999432,6656,2,60,90
0.09999999999999432,6656,3,60,90
0.09999999999999432,6656,4,60,90
0.09999999999999432,6656,5,60,90
0.09999999999999964,6656,6,60,90
0.10000000000000142,6656,7,60,90
0.09999999999999964,6656,8,60,90
0.09999999999999964,6656,9,60,90
0.09999999999999964,6656,10,60,90
0.10000000000000142,6656,11,60,90
0.09999999999999787,6656,12,60,90
0.09999999999999787,6656,13,60,90
0.10000000000000142,6656,14,60,90
0.10000000000000142,6656,15,60,90
0.10000000000000142,6657,0,60,90
0.10000000000000142,6657,1,60,90
0.09999999999999787,6657,2,60,90
0.09999999999999787,6657,3,60,90
0.10000000000000142,6657,4,60,90
0.09999999999999787,6657,5,60,90
0.10000000000000142,6657,6,60,90
0.10000000000000142,6657,7,60,90
0.09999999999999787,6657,8,60,90
0.10000000000000142,6657,9,60,90
0.09999999999999787,6657,10,60,90
0.10000000000000142,6657,11,60,90
0.09999999999999787,6657,12,60,90
0.10000000000000142,6657,13,60,90
0.09999999999999787,6657,14,60,90
0.09999999999999787,6657,15,60,90
0.09999999999999787,6658,0,60,90
0.10000000000000142,6658,1,60,90
0.10000000000000142,6658,2,60,90
0.10000000000000142,6658,3,60,90
0.10000000000000142,6658,4,60,90
0.09999999999999432,6658,5,60,90
0.10000000000000142,6658,6,60,90
0.09999999999999432,6658,7,60,90
0.10000000000000142,6658,8,60,90
0.10000000000000142,6658,9,60,90
0.10000000000000142,6658,10,60,90
0.09999999999999432,6658,11,60,90
0.10000000000000142,6658,12,60,90
0.09999999999999432,6658,13,60,90
0.10000000000000142,6658,14,60,90
0.10000000000000142,6658,15,60,90
0.10000000000000142,6659,0,60,90
0.10000000000000142,6659,1,60,90
0.09999999999999432,6659,2,60,90
0.09999999999999432,6659,3,60,90
0.10000000000000142,6659,4,60,90
0.10000000000000142,6659,5,60,90
0.10000000000000142,6659,6,60,90
0.09999999999999432,6659,7,60,90
0.09999999999999432,6659,8,60,90
0.10000000000000142,6659,9,60,90
0.09999999999999432,6659,10,60,90
0.10000000000000142,6659,11,60,90
0.10000000000000142,6659,12,60,90
0.10000000000000142,6659,13,60,90
0.09999999999999432,6659,14,60,90
0.10000000000000142,6659,15,60,90
0.10000000000000142,6660,0,60,90
0.10000000000000142,6660,1,60,90
0.10000000000000142,6660,2,60,90
0.09999999999999432,6660,3,60,90
0.10000000000000142,6660,4,60,90
0.10000000000000142,6660,5,60,90
0.10000000000000142,6660,6,60,90
0.10000000000000142,6660,7,60,90
0.10000000000000142,6660,8,60,90
0.10000000000000142,6660,9,60,90
0.10000000000000142,6660,10,60,90
0.10000000000000142,6660,11,60,90
0.10000000000000142,6660,12,60,90
0.10000000000000142,6660,13,60,90
0.10000000000000142,6660,14,60,90
0.09999999999999432,6660,15,60,90
0.10000000000000142,6661,0,60,90
0.09999999999999432,6661,1,60,90
0.10000000000000142,6661,2,60,90
0.10000000000000142,6661,3,60,90
0.10000000000000142,6661,4,60,90
0.09999999999999432,6661,5,60,90
0.10000000000000142,6661,6,60,90
0.09999999999999432,6661,7,60,90
0.10000000000000142,6661,8,60,90
0.10000000000000142,6661,9,60,90
0.10000000000000142,6661,10,60,90
0.10000000000000142,6661,11,60,90
0.10000000000000142,6661,12,60,90
0.10000000000000142,6661,13,60,90
0.09999999999999432,6661,14,60,90
0.10000000000000142,6661,15,60,90
0.10000000000000142,6662,0,60,90
0.10000000000000142,6662,1,60,90
0.10000000000000142,6662,2,60,90
0.09999999999999432,6662,3,60,90
0.10000000000000142,6662,4,60,90
0.09999999999999432,6662,5,60,90
0.10000000000000142,6662,6,60,90
0.10000000000000142,6662,7,60,90
0.10000000000000142,6662,8,60,90
0.10000000000000142,6662,9,60,90
0.10000000000000142,6662,10,60,90
0.10000000000000142,6662,11,60,90
0.10000000000000142,6662,12,60,90
0.10000000000000142,6662,13,60,90
0.10000000000000142,6662,14,60,90
0.09999999999999432,6662,15,60,90
0.09999999999999432,6663,0,60,90
0.10000000000000142,6663,1,60,90
0.10000000000000142,6663,2,60,90
0.10000000000000142,6663,3,60,90
0.10000000000000142,6663,4,60,90
0.09999999999999432,6663,5,60,90
0.10000000000000142,6663,6,60,90
0.09999999999999432,6663,7,60,90
0.10000000000000142,6663,8,60,90
0.10000000000000142,6663,9,60,90
0.10000000000000142,6663,10,60,90
0.10000000000000142,6663,11,60,90
0.10000000000000142,6663,12,60,90
0.09999999999999432,6663,13,60,90
0.10000000000000142,6663,14,60,90
0.10000000000000142,6663,15,60,90
0.10000000000000142,6664,0,60,90
0.10000000000000142,6664,1,60,90
0.10000000000000142,6664,2,60,90
0.10000000000000142,6664,3,60,90
0.09999999999999432,6664,4,60,90
0.10000000000000142,6664,5,60,90
0.10000000000000142,6664,6,60,90
0.10000000000000142,6664,7,60,90
0.10000000000000142,6664,8,60,90
0.10000000000000142,6664,9,60,90
0.10000000000000142,6664,10,60,90
0.10000000000000142,6664,11,60,90
0.10000000000000142,6664,12,60,90
0.10000000000000142,6664,13,60,90
0.10000000000000142,6664,14,60,90
0.10000000000000142,6664,15,60,90
0.09999999999999432,6665,0,60,90
0.09999999999999432,6665,1,60,90
0.10000000000000142,6665,2,60,90
0.10000000000000142,6665,3,60,90
0.10000000000000142,6665,4,60,90
0.10000000000000142,6665,5,60,90
0.10000000000000142,6665,6,60,90
0.09999999999999432,6665,7,60,90
0.10000000000000142,6665,8,60,90
0.09999999999999432,6665,9,60,90
0.10000000000000142,6665,10,60,90
0.10000000000000142,6665,11,60,90
0.10000000000000142,6665,12,60,90
0.09999999999999432,6665,13,60,90
0.10000000000000142,6665,14,60,90
0.09999999999999432,6665,15,60,90
0.10000000000000142,6666,0,60,90
0.10000000000000142,6666,1,60,90
0.10000000000000142,6666,2,60,90
0.10000000000000142,6666,3,60,90
0.09999999999999432,6666,4,60,90
0.10000000000000142,6666,5,60,90
0.10000000000000142,6666,6,60,90
0.10000000000000142,6666,7,60,90
0.10000000000000142,6666,8,60,90
0.10000000000000142,6666,9,60,90
0.10000000000000142,6666,10,60,90
0.10000000000000142,6666,11,60,90
0.09999999999999432,6666,12,60,90
0.10000000000000142,6666,13,60,90
0.09999999999999432,6666,14,60,90
0.10000000000000142,6666,15,60,90
0.10000000000000142,6667,0,60,90
0.10000000000000142,6667,1,60,90
0.09999999999999432,6667,2,60,90
0.10000000000000142,6667,3,60,90
0.10000000000000142,6667,4,60,90
0.10000000000000142,6667,5,60,90
0.10000000000000142,6667,6,60,90
0.10000000000000142,6667,7,60,90
0.10000000000000142,6667,8,60,90
0.10000000000000142,6667,9,60,90
0.09999999999999432,6667,10,60,90
0.09999999999999432,6667,11,60,90
0.10000000000000142,6667,12,60,90
0.10000000000000142,6667,13,60,90
0.10000000000000142,6667,14,60,90
0.10000000000000142,6667,15,60,90
0.10000000000000142,6668,0,60,90
0.09999999999999432,6668,1,60,90
0.10000000000000142,6668,2,60,90
0.09999999999999432,6668,3,60,90
0.10000000000000142,6668,4,60,90
0.056818181818186986,6668,5,60,90
0.10000000000000142,6668,6,60,90
0.10000000000000142,6668,7,60,90
0.10000000000000142,6668,8,60,90
0.10000000000000142,6668,9,60,90
0.09999999999999432,6668,10,60,90
0.10000000000000142,6668,11,60,90
0.10000000000000142,6668,12,60,90
0.10000000000000142,6668,13,60,90
0.10000000000000142,6668,14,60,90
0.10000000000000142,6668,15,60,90
0.10000000000000142,6669,0,60,90
0.09999999999999432,6669,1,60,90
0.10000000000000142,6669,2,60,90
0.10000000000000142,6669,3,60,90
0.10000000000000142,6669,4,60,90
0.10000000000000142,6669,5,60,90
0.10000000000000142,6669,6,60,90
0.09999999999999432,6669,7,60,90
0.10000000000000142,6669,8,60,90
0.10000000000000142,6669,9,60,90
0.10000000000000142,6669,10,60,90
0.10000000000000142,6669,11,60,90
0.10000000000000142,6669,12,60,90
0.10000000000000142,6669,13,60,90
0.10000000000000142,6669,14,60,90
0.09999999999999432,6669,15,60,90
0.10000000000000142,6670,0,60,90
0.10000000000000142,6670,1,60,90
0.09999999999999432,6670,2,60,90
0.09999999999999432,6670,3,60,90
0.10000000000000853,6670,4,60,90
0.09999999999999432,6670,5,60,90
0.10000000000000853,6670,6,60,90
0.10000000000000853,6670,7,60,90
0.09999999999999432,6670,8,60,90
0.09999999999999432,6670,9,60,90
0.10000000000000853,6670,10,60,90
0.09999999999999432,6670,11,60,90
0.10000000000000853,6670,12,60,90
0.10000000000000853,6670,13,60,90
0.10000000000000853,6670,14,60,90
0.09999999999999432,6670,15,60,90
0.09999999999999432,6671,0,60,90
0.09999999999999432,6671,1,60,90
0.09999999999999432,6671,2,60,90
0.09999999999999432,6671,3,60,90
0.09999999999999432,6671,4,60,90
0.09999999999999432,6671,5,60,90
0.09999999999999432,6671,6,60,90
0.09999999999999432,6671,7,60,90
0.09999999999999432,6671,8,60,90
0.10000000000000853,6671,9,60,90
0.09999999999999432,6671,10,60,90
0.10000000000000853,6671,11,60,90
0.09999999999999432,6671,12,60,90
0.10000000000000853,6671,13,60,90
0.09999999999999432,6671,14,60,90
0.10000000000000853,6671,15,60,90
0.10000000000000853,6672,0,60,90
0.10000000000000853,6672,1,60,90
0.09999999999999432,6672,2,60,90
0.10000000000000853,6672,3,60,90
0.10000000000000853,6672,4,60,90
0.09999999999999432,6672,5,60,90
0.10000000000000853,6672,6,60,90
0.09999999999999432,6672,7,60,90
0.10000000000000853,6672,8,60,90
0.09999999999999432,6672,9,60,90
0.10000000000000853,6672,10,60,90
0.09999999999999432,6672,11,60,90
0.09999999999999432,6672,12,60,90
0.09999999999999432,6672,13,60,90
0.10000000000000853,6672,14,60,90
0.036363636363645924,6672,15,60,90
0.013636363636365445,6673,0,60,90
0.09999999999999432,6673,1,60,90
0.09999999999999432,6673,2,60,90
0.10000000000000853,6673,3,60,90
0.10000000000000853,6673,4,60,90
0.10000000000000853,6673,5,60,90
0.09999999999999432,6673,6,60,90
0.09999999999999432,6673,7,60,90
0.10000000000000853,6673,8,60,90
0.09999999999999432,6673,9,60,90
0.10000000000000853,6673,10,60,90
0.09999999999999432,6673,11,60,90
0.10000000000000853,6673,12,60,90
0.09999999999999432,6673,13,60,90
0.10000000000000853,6673,14,60,90
0.09999999999999432,6673,15,60,90
0.10000000000000853,6674,0,60,90
0.10000000000000853,6674,1,60,90
0.10000000000000853,6674,2,60,90
0.09999999999999432,6674,3,60,90
0.10000000000000853,6674,4,60,90
0.09999999999999432,6674,5,60,90
0.09999999999999432,6674,6,60,90
0.10000000000000853,6674,7,60,90
0.09999999999999432,6674,8,60,90
0.09999999999999432,6674,9,60,90
0.09999999999999432,6674,10,60,90
0.10000000000000853,6674,11,60,90
0.09999999999999432,6674,12,60,90
0.10000000000000853,6674,13,60,90
0.09999999999999432,6674,14,60,90
0.10000000000000853,6674,15,60,90
0.09999999999999432,6675,0,60,90
0.10000000000000853,6675,1,60,90
0.09999999999999432,6675,2,60,90
0.09999999999999432,6675,3,60,90
0.09999999999999432,6675,4,60,90
0.10000000000000853,6675,5,60,90
0.10000000000000853,6675,6,60,90
0.10000000000000853,6675,7,60,90
0.10000000000000853,6675,8,60,90
0.09999999999999432,6675,9,60,90
0.09999999999999432,6675,10,60,90
0.09999999999999432,6675,11,60,90
0.10000000000000853,6675,12,60,90
0.09999999999999432,6675,13,60,90
0.10000000000000853,6675,14,60,90
0.09999999999999432,6675,15,60,90
0.09999999999999432,6676,0,60,90
0.10000000000000853,6676,1,60,90
0.09999999999999432,6676,2,60,90
0.09999999999999432,6676,3,60,90
0.09999999999999432,6676,4,60,90
0.09999999999999432,6676,5,60,90
0.09999999999999432,6676,6,60,90
0.09999999999999432,6676,7,60,90
0.09999999999999432,6676,8,60,90
0.10000000000000853,6676,9,60,90
0.09999999999999432,6676,10,60,90
0.10000000000000853,6676,11,60,90
0.09999999999999432,6676,12,60,90
0.10000000000000853,6676,13,60,90
0.09999999999999432,6676,14,60,90
0.10000000000000853,6676,15,60,90
0.02727272727273089,6677,0,60,90
0.024999999999991473,6677,1,60,90
0.09999999999999432,6677,2,60,90
0.10000000000000853,6677,3,60,90
0.10000000000000853,6677,4,60,90
0.10000000000000853,6677,5,60,90
0.09999999999999432,6677,6,60,90
0.10000000000000853,6677,7,60,90
0.09999999999999432,6677,8,60,90
0.10000000000000853,6677,9,60,90
0.09999999999999432,6677,10,60,90
0.10000000000000853,6677,11,60,90
0.09999999999999432,6677,12,60,90
0.10000000000000853,6677,13,60,90
0.09999999999999432,6677,14,60,90
0.09999999999999432,6677,15,60,90
0.09999999999999432,6678,0,60,90
0.10000000000000853,6678,1,60,90
0.10000000000000853,6678,2,60,90
0.09999999999999432,6678,3,60,90
0.09999999999999432,6678,4,60,90
0.09999999999999432,6678,5,60,90
0.10000000000000853,6678,6,60,90
0.09999999999999432,6678,7,60,90
0.10000000000000853,6678,8,60,90
0.09999999999999432,6678,9,60,90
0.10000000000000853,6678,10,60,90
0.09999999999999432,6678,11,60,90
0.10000000000000853,6678,12,60,90
0.09999999999999432,6678,13,60,90
0.10000000000000853,6678,14,60,90
0.10000000000000853,6678,15,60,90
0.10000000000000853,6679,0,60,90
0.09999999999999432,6679,1,60,90
0.09999999999999432,6679,2,60,90
0.10000000000000853,6679,3,60,90
0.09999999999999432,6679,4,60,90
0.10000000000000853,6679,5,60,90
0.09999999999999432,6679,6,60,90
0.10000000000000853,6679,7,60,90
0.09999999999999432,6679,8,60,90
0.10000000000000853,6679,9,60,90
0.09999999999999432,6679,10,60,90
0.10000000000000853,6679,11,60,90
0.09999999999999432,6679,12,60,90
0.10000000000000853,6679,13,60,90
0.09999999999999432,6679,14,60,90
0.10000000000000853,6679,15,60,90
0.09999999999999432,6680,0,60,90
0.05909090909089798,6680,1,60,90
0.10000000000000853,6680,2,60,90
0.09999999999999432,6680,3,60,90
0.09999999999999432,6680,4,60,90
0.10000000000000853,6680,5,60,90
0.09999999999999432,6680,6,60,90
0.10000000000000853,6680,7,60,90
0.09999999999999432,6680,8,60,90
0.10000000000000853,6680,9,60,90
0.025000000000005684,6680,10,60,90
0.024999999999991473,6680,11,60,90
0.09999999999999432,6680,12,60,90
0.09999999999999432,6680,13,60,90
0.09999999999999432,6680,14,60,90
0.09999999999999432,6680,15,60,90
0.10000000000000853,6681,0,60,90
0.09999999999999432,6681,1,60,90
0.09999999999999432,6681,2,60,90
0.10000000000000853,6681,3,60,90
0.10000000000000853,6681,4,60,90
0.10000000000000853,6681,5,60,90
0.09999999999999432,6681,6,60,90
0.10000000000000853,6681,7,60,90
0.10000000000000853,6681,8,60,90
0.10000000000000853,6681,9,60,90
0.10000000000000853,6681,10,60,90
0.10000000000000853,6681,11,60,90
0.09999999999999432,6681,12,60,90
0.09999999999999432,6681,13,60,90
0.09999999999999432,6681,14,60,90
0.09999999999999432,6681,15,60,90
0.10000000000000853,6682,0,60,90
0.10000000000000853,6682,1,60,90
0.09999999999999432,6682,2,60,90
0.09999999999999432,6682,3,60,90
0.09999999999999432,6682,4,60,90
0.09999999999999432,6682,5,60,90
0.10000000000000853,6682,6,60,90
0.09999999999999432,6682,7,60,90
0.10000000000000853,6682,8,60,90
0.09999999999999432,6682,9,60,90
0.09999999999999432,6682,10,60,90
0.09999999999999432,6682,11,60,90
0.09999999999999432,6682,12,60,90
0.10000000000000853,6682,13,60,90
0.09999999999999432,6682,14,60,90
0.09999999999999432,6682,15,60,90
0.09999999999999432,6683,0,60,90
0.09999999999999432,6683,1,60,90
0.09999999999999432,6683,2,60,90
0.10000000000000853,6683,3,60,90
0.09999999999999432,6683,4,60,90
0.10000000000000853,6683,5,60,90
0.09999999999999432,6683,6,60,90
0.10000000000000853,6683,7,60,90
0.09999999999999432,6683,8,60,90
0.09999999999999432,6683,9,60,90
0.10000000000000853,6683,10,60,90
0.10000000000000853,6683,11,60,90
0.10000000000000853,6683,12,60,90
0.09999999999999432,6683,13,60,90
0.10000000000000853,6683,14,60,90
0.09999999999999432,6683,15,60,90
0.10000000000000853,6684,0,60,90
0.09999999999999432,6684,1,60,90
0.10000000000000853,6684,2,60,90
0.09999999999999432,6684,3,60,90
0.10000000000000853,6684,4,60,90
0.09999999999999432,6684,5,60,90
0.10000000000000853,6684,6,60,90
0.09999999999999432,6684,7,60,90
0.09999999999999432,6684,8,60,90
0.09999999999999432,6684,9,60,90
0.09999999999999432,6684,10,60,90
0.10000000000000853,6684,11,60,90
0.09999999999999432,6684,12,60,90
0.09999999999999432,6684,13,60,90
0.10000000000000853,6684,14,60,90
0.10000000000000853,6684,15,60,90
0.10000000000000853,6685,0,60,90
0.09999999999999432,6685,1,60,90
0.10000000000000853,6685,2,60,90
0.09999999999999432,6685,3,60,90
0.10000000000000853,6685,4,60,90
0.09999999999999432,6685,5,60,90
0.10000000000000853,6685,6,60,90
0.09999999999999432,6685,7,60,90
0.10000000000000853,6685,8,60,90
0.09999999999999432,6685,9,60,90
0.10000000000000853,6685,10,60,90
0.09999999999999432,6685,11,60,90
0.10000000000000853,6685,12,60,90
0.10000000000000853,6685,13,60,90
0.09999999999999432,6685,14,60,90
0.09999999999999432,6685,15,60,90
0.09999999999999432,6686,0,60,90
0.10000000000000853,6686,1,60,90
0.09999999999999432,6686,2,60,90
0.10000000000000853,6686,3,60,90
0.09999999999999432,6686,4,60,90
0.10000000000000853,6686,5,60,90
0.09999999999999432,6686,6,60,90
0.10000000000000853,6686,7,60,90
0.09999999999999432,6686,8,60,90
0.10000000000000853,6686,9,60,90
0.09999999999999432,6686,10,60,90
0.10000000000000853,6686,11,60,90
0.09999999999999432,6686,12,60,90
0.09999999999999432,6686,13,60,90
0.09999999999999432,6686,14,60,90
0.09999999999999432,6686,15,60,90
0.09999999999999432,6687,0,60,90
0.09999999999999432,6687,1,60,90
0.10000000000000853,6687,2,60,90
0.09999999999999432,6687,3,60,90
0.09999999999999432,6687,4,60,90
0.09999999999999432,6687,5,60,90
0.10000000000000853,6687,6,60,90
0.09999999999999432,6687,7,60,90
0.09999999999999432,6687,8,60,90
0.09999999999999432,6687,9,60,90
0.09999999999999432,6687,10,60,90
0.09999999999999432,6687,11,60,90
0.10000000000000853,6687,12,60,90
0.10000000000000853,6687,13,60,90
0.09999999999999432,6687,14,60,90
0.10000000000000853,6687,15,60,90
0.09999999999999432,6688,0,60,90
0.10000000000000853,6688,1,60,90
0.09999999999999432,6688,2,60,90
0.10000000000000853,6688,3,60,90
0.09999999999999432,6688,4,60,90
0.09999999999999432,6688,5,60,90
0.09999999999999432,6688,6,60,90
0.10000000000000853,6688,7,60,90
0.10000000000000853,6688,8,60,90
0.10000000000000853,6688,9,60,90
0.10000000000000853,6688,10,60,90
0.09999999999999432,6688,11,60,90
0.09999999999999432,6688,12,60,90
0.09999999999999432,6688,13,60,90
0.09999999999999432,6688,14,60,90
0.10000000000000853,6688,15,60,90
0.10000000000000853,6689,0,60,90
0.09999999999999432,6689,1,60,90
0.09999999999999432,6689,2,60,90
0.09999999999999432,6689,3,60,90
0.10000000000000853,6689,4,60,90
0.09999999999999432,6689,5,60,90
0.10000000000000853,6689,6,60,90
0.10000000000000853,6689,7,60,90
0.10000000000000853,6689,8,60,90
0.09999999999999432,6689,9,60,90
0.09999999999999432,6689,10,60,90
0.10000000000000853,6689,11,60,90
0.09999999999999432,6689,12,60,90
0.10000000000000853,6689,13,60,90
0.10000000000000853,6689,14,60,90
0.09999999999999432,6689,15,60,90
0.09999999999999432,6690,0,60,90
0.10000000000000853,6690,1,60,90
0.09999999999999432,6690,2,60,90
0.10000000000000853,6690,3,60,90
0.09999999999999432,6690,4,60,90
0.10000000000000853,6690,5,60,90
0.09999999999999432,6690,6,60,90
0.10000000000000853,6690,7,60,90
0.09999999999999432,6690,8,60,90
0.09999999999999432,6690,9,60,90
0.09999999999999432,6690,10,60,90
0.09999999999999432,6690,11,60,90
0.09999999999999432,6690,12,60,90
0.09999999999999432,6690,13,60,90
0.09999999999999432,6690,14,60,90
0.09999999999999432,6690,15,60,90
0.10000000000000853,6691,0,60,90
0.09999999999999432,6691,1,60,90
0.10000000000000853,6691,2,60,90
0.09999999999999432,6691,3,60,90
0.10000000000000853,6691,4,60,90
0.09999999999999432,6691,5,60,90
0.10000000000000853,6691,6,60,90
0.025000000000005684,6691,7,60,90
0.03636363636363171,6691,8,60,90
0.09999999999999432,6691,9,60,90
0.10000000000000853,6691,10,60,90
0.10000000000000853,6691,11,60,90
0.09999999999999432,6691,12,60,90
0.10000000000000853,6691,13,60,90
0.10000000000000853,6691,14,60,90
0.09999999999999432,6691,15,60,90
0.10000000000000853,6692,0,60,90
0.09999999999999432,6692,1,60,90
0.10000000000000853,6692,2,60,90
0.09999999999999432,6692,3,60,90
0.10000000000000853,6692,4,60,90
0.09999999999999432,6692,5,60,90
0.10000000000000853,6692,6,60,90
0.09999999999999432,6692,7,60,90
0.024999999999991473,6692,8,60,90
0.03636363636363171,6692,9,60,90
0.09999999999999432,6692,10,60,90
0.09999999999999432,6692,11,60,90
0.10000000000000853,6692,12,60,90
0.10000000000000853,6692,13,60,90
0.09999999999999432,6692,14,60,90
0.09999999999999432,6692,15,60,90
0.10000000000000853,6693,0,60,90
0.09999999999999432,6693,1,60,90
0.09999999999999432,6693,2,60,90
0.09999999999999432,6693,3,60,90
0.09999999999999432,6693,4,60,90
0.10000000000002274,6693,5,60,90
0.09999999999999432,6693,6,60,90
0.10000000000002274,6693,7,60,90
0.09999999999999432,6693,8,60,90
0.024999999999977263,6693,9,60,90
0.03636363636363171,6693,10,60,90
0.09999999999999432,6693,11,60,90
0.09999999999999432,6693,12,60,90
0.10000000000002274,6693,13,60,90
0.09999999999999432,6693,14,60,90
0.09999999999999432,6693,15,60,90
0.09999999999999432,6694,0,60,90
0.10000000000002274,6694,1,60,90
0.09999999999999432,6694,2,60,90
0.09999999999999432,6694,3,60,90
0.09999999999999432,6694,4,60,90
0.09999999999999432,6694,5,60,90
0.09999999999999432,6694,6,60,90
0.10000000000002274,6694,7,60,90
0.09999999999999432,6694,8,60,90
0.09999999999999432,6694,9,60,90
0.025000000000005684,6694,10,60,90
0.036363636363660135,6694,11,60,90
0.09999999999999432,6694,12,60,90
0.10000000000002274,6694,13,60,90
0.09999999999999432,6694,14,60,90
0.09999999999999432,6694,15,60,90
0.09999999999999432,6695,0,60,90
0.10000000000002274,6695,1,60,90
0.09999999999999432,6695,2,60,90
0.10000000000002274,6695,3,60,90
0.09999999999999432,6695,4,60,90
0.09999999999999432,6695,5,60,90
0.09999999999999432,6695,6,60,90
0.09999999999999432,6695,7,60,90
0.09999999999999432,6695,8,60,90
0.09999999999999432,6695,9,60,90
0.09999999999999432,6695,10,60,90
0.01590909090910486,6695,11,60,90
0.036363636363660135,6695,12,60,90
0.09999999999999432,6695,13,60,90
0.09999999999999432,6695,14,60,90
0.09999999999999432,6695,15,60,90
0.09999999999999432,6696,0,60,90
0.09999999999999432,6696,1,60,90
0.09999999999999432,6696,2,60,90
0.10000000000002274,6696,3,60,90
0.09999999999999432,6696,4,60,90
0.09999999999999432,6696,5,60,90
0.09999999999999432,6696,6,60,90
0.10000000000002274,6696,7,60,90
0.09999999999999432,6696,8,60,90
0.09999999999999432,6696,9,60,90
0.09999999999999432,6696,10,60,90
0.09999999999999432,6696,11,60,90
0.025000000000005684,6696,12,60,90
0.03636363636363171,6696,13,60,90
0.10000000000002274,6696,14,60,90
0.09999999999999432,6696,15,60,90
0.09999999999999432,6697,0,60,90
0.09999999999999432,6697,1,60,90
0.09999999999999432,6697,2,60,90
0.10000000000002274,6697,3,60,90
0.09999999999999432,6697,4,60,90
0.09999999999999432,6697,5,60,90
0.10000000000002274,6697,6,60,90
0.09999999999999432,6697,7,60,90
0.09999999999999432,6697,8,60,90
0.09999999999999432,6697,9,60,90
0.10000000000002274,6697,10,60,90
0.09999999999999432,6697,11,60,90
0.09999999999999432,6697,12,60,90
0.09999999999999432,6697,13,60,90
0.09999999999999432,6697,14,60,90
0.09999999999999432,6697,15,60,90
0.10000000000002274,6698,0,60,90
0.09999999999999432,6698,1,60,90
0.09999999999999432,6698,2,60,90
0.09999999999999432,6698,3,60,90
0.09999999999999432,6698,4,60,90
0.10000000000002274,6698,5,60,90
0.09999999999999432,6698,6,60,90
0.09999999999999432,6698,7,60,90
0.09999999999999432,6698,8,60,90
0.10000000000002274,6698,9,60,90
0.10000000000002274,6698,10,60,90
0.09999999999999432,6698,11,60,90
0.09999999999999432,6698,12,60,90
0.09999999999999432,6698,13,60,90
0.09999999999999432,6698,14,60,90
0.10000000000002274,6698,15,60,90
0.09999999999999432,6699,0,60,90
0.09999999999999432,6699,1,60,90
0.09999999999999432,6699,2,60,90
0.09999999999999432,6699,3,60,90
0.09999999999999432,6699,4,60,90
0.09999999999999432,6699,5,60,90
0.09999999999999432,6699,6,60,90
0.09999999999999432,6699,7,60,90
0.09999999999999432,6699,8,60,90
0.09999999999999432,6699,9,60,90
0.10000000000002274,6699,10,60,90
0.09999999999999432,6699,11,60,90
0.09999999999999432,6699,12,60,90
0.09999999999999432,6699,13,60,90
0.10000000000002274,6699,14,60,90
0.10000000000002274,6699,15,60,90
0.09999999999999432,6700,0,60,90
0.09999999999999432,6700,1,60,90
0.10000000000002274,6700,2,60,90
0.09999999999999432,6700,3,60,90
0.10000000000002274,6700,4,60,90
0.09999999999999432,6700,5,60,90
0.10000000000002274,6700,6,60,90
0.09999999999999432,6700,7,60,90
0.10000000000002274,6700,8,60,90
0.09999999999999432,6700,9,60,90
0.09999999999999432,6700,10,60,90
0.09999999999999432,6700,11,60,90
0.09999999999999432,6700,12,60,90
0.10000000000002274,6700,13,60,90
0.09999999999999432,6700,14,60,90
0.09999999999999432,6700,15,60,90
0.09999999999999432,6701,0,60,90
0.09999999999999432,6701,1,60,90
0.09999999999999432,6701,2,60,90
0.09999999999999432,6701,3,60,90
0.09999999999999432,6701,4,60,90
0.09999999999999432,6701,5,60,90
0.10000000000002274,6701,6,60,90
0.09999999999999432,6701,7,60,90
0.09999999999999432,6701,8,60,90
0.09999999999999432,6701,9,60,90
0.09999999999999432,6701,10,60,90
0.10000000000002274,6701,11,60,90
0.09999999999999432,6701,12,60,90
0.09999999999999432,6701,13,60,90
0.09999999999999432,6701,14,60,90
0.09999999999999432,6701,15,60,90
0.09999999999999432,6702,0,60,90
0.10000000000002274,6702,1,60,90
0.09999999999999432,6702,2,60,90
0.09999999999999432,6702,3,60,90
0.09999999999999432,6702,4,60,90
0.10000000000002274,6702,5,60,90
0.09999999999999432,6702,6,60,90
0.09999999999999432,6702,7,60,90
0.09999999999999432,6702,8,60,90
0.09999999999999432,6702,9,60,90
0.10000000000002274,6702,10,60,90
0.10000000000002274,6702,11,60,90
0.09999999999999432,6702,12,60,90
0.09999999999999432,6702,13,60,90
0.09999999999999432,6702,14,60,90
0.09999999999999432,6702,15,60,90
0.10000000000002274,6703,0,60,90
0.09999999999999432,6703,1,60,90
0.09999999999999432,6703,2,60,90
0.09999999999999432,6703,3,60,90
0.10000000000002274,6703,4,60,90
0.09999999999999432,6703,5,60,90
0.09999999999999432,6703,6,60,90
0.09999999999999432,6703,7,60,90
0.09999999999999432,6703,8,60,90
0.09999999999999432,6703,9,60,90
0.10000000000002274,6703,10,60,90
0.09999999999999432,6703,11,60,90
0.09999999999999432,6703,12,60,90
0.09999999999999432,6703,13,60,90
0.09999999999999432,6703,14,60,90
0.03636363636363171,6703,15,60,90
0.09999999999999432,6704,0,60,90
0.09999999999999432,6704,1,60,90
0.09999999999999432,6704,2,60,90
0.10000000000002274,6704,3,60,90
0.09999999999999432,6704,4,60,90
0.09999999999999432,6704,5,60,90
0.09999999999999432,6704,6,60,90
0.09999999999999432,6704,7,60,90
0.09999999999999432,6704,8,60,90
0.09999999999999432,6704,9,60,90
0.09999999999999432,6704,10,60,90
0.09999999999999432,6704,11,60,90
0.09999999999999432,6704,12,60,90
0.09999999999999432,6704,13,60,90
0.09999999999999432,6704,14,60,90
0.09999999999999432,6704,15,60,90
0.09999999999999432,6705,0,60,90
0.10000000000002274,6705,1,60,90
0.09999999999999432,6705,2,60,90
0.09999999999999432,6705,3,60,90
0.09999999999999432,6705,4,60,90
0.09999999999999432,6705,5,60,90
0.10000000000002274,6705,6,60,90
0.10000000000002274,6705,7,60,90
0.09999999999999432,6705,8,60,90
0.09999999999999432,6705,9,60,90
0.09999999999999432,6705,10,60,90
0.09999999999999432,6705,11,60,90
0.09999999999999432,6705,12,60,90
0.09999999999999432,6705,13,60,90
0.09999999999999432,6705,14,60,90
0.09999999999999432,6705,15,60,90
0.10000000000002274,6706,0,60,90
0.09999999999999432,6706,1,60,90
0.09999999999999432,6706,2,60,90
0.09999999999999432,6706,3,60,90
0.09999999999999432,6706,4,60,90
0.10000000000002274,6706,5,60,90
0.09999999999999432,6706,6,60,90
0.09999999999999432,6706,7,60,90
0.09999999999999432,6706,8,60,90
0.09999999999999432,6706,9,60,90
0.09999999999999432,6706,10,60,90
0.10000000000002274,6706,11,60,90
0.09999999999999432,6706,12,60,90
0.09999999999999432,6706,13,60,90
0.09999999999999432,6706,14,60,90
0.10000000000002274,6706,15,60,90
0.09999999999999432,6707,0,60,90
0.09999999999999432,6707,1,60,90
0.09999999999999432,6707,2,60,90
0.09999999999999432,6707,3,60,90
0.09999999999999432,6707,4,60,90
0.09999999999999432,6707,5,60,90
0.09999999999999432,6707,6,60,90
0.09999999999999432,6707,7,60,90
0.10000000000002274,6707,8,60,90
0.09999999999999432,6707,9,60,90
0.10000000000002274,6707,10,60,90
0.09999999999999432,6707,11,60,90
0.09999999999999432,6707,12,60,90
0.09999999999999432,6707,13,60,90
0.10000000000002274,6707,14,60,90
0.09999999999999432,6707,15,60,90
0.10000000000002274,6708,0,60,90
0.09999999999999432,6708,1,60,90
0.09999999999999432,6708,2,60,90
0.09999999999999432,6708,3,60,90
0.09999999999999432,6708,4,60,90
0.10000000000002274,6708,5,60,90
0.09999999999999432,6708,6,60,90
0.09999999999999432,6708,7,60,90
0.10000000000002274,6708,8,60,90
0.10000000000002274,6708,9,60,90
0.09999999999999432,6708,10,60,90
0.09999999999999432,6708,11,60,90
0.10000000000002274,6708,12,60,90
0.09999999999999998,6708,13,60,90
0.09999999999999964,6708,14,60,90
0.10000000000000009,6708,15,60,90
0.04545454545454586,6709,0,60,90
0.013636363636363669,6709,1,60,90
0.10000000000000009,6709,2,60,90
0.09999999999999964,6709,3,60,90
0.09999999999999964,6709,4,60,90
0.10000000000000053,6709,5,60,90
0.06818181818181834,6709,6,60,90
0.09999999999999964,6709,7,60,90
0.09999999999999964,6709,8,60,90
0.10000000000000053,6709,9,60,90
0.10000000000000053,6709,10,60,90
0.10000000000000053,6709,11,60,90
0.09999999999999964,6709,12,60,90
0.10000000000000053,6709,13,60,90
0.10000000000000142,6709,14,60,90
0.09999999999999964,6709,15,60,90
0.09999999999999964,6710,0,60,90
0.09999999999999964,6710,1,60,90
0.10000000000000142,6710,2,60,90
0.09999999999999964,6710,3,60,90
0.09999999999999964,6710,4,60,90
0.09999999999999964,6710,5,60,90
0.10000000000000142,6710,6,60,90
0.03636363636363704,6710,7,60,90
0.004545454545453964,6710,8,60,90
0.09999999999999964,6710,9,60,90
0.10000000000000142,6710,10,60,90
0.09999999999999964,6710,11,60,90
0.09999999999999964,6710,12,60,90
0.09999999999999964,6710,13,60,90
0.09999999999999964,6710,14,60,90
0.09999999999999964,6710,15,60,90
0.09999999999999964,6711,0,60,90
0.09999999999999964,6711,1,60,90
0.10000000000000142,6711,2,60,90
0.10000000000000142,6711,3,60,90
0.09999999999999787,6711,4,60,90
0.09999999999999787,6711,5,60,90
0.10000000000000142,6711,6,60,90
0.09999999999999787,6711,7,60,90
0.09999999999999787,6711,8,60,90
0.10000000000000142,6711,9,60,90
0.10000000000000142,6711,10,60,90
0.10000000000000142,6711,11,60,90
0.09999999999999787,6711,12,60,90
0.09999999999999787,6711,13,60,90
0.10000000000000142,6711,14,60,90
0.10000000000000142,6711,15,60,90
0.09999999999999787,6712,0,60,90
0.09999999999999787,6712,1,60,90
0.05681818181817988,6712,2,60,90
0.10000000000000142,6712,3,60,90
0.10000000000000142,6712,4,60,90
0.10000000000000142,6712,5,60,90
0.09999999999999432,6712,6,60,90
0.10000000000000142,6712,7,60,90
0.10000000000000142,6712,8,60,90
0.10000000000000142,6712,9,60,90
0.10000000000000853,6712,10,60,90
0.09999999999999432,6712,11,60,90
0.09999999999999432,6712,12,60,90
0.09999999999999432,6712,13,60,90
0.10000000000000853,6712,14,60,90
0.09999999999999432,6712,15,60,90
0.09999999999999432,6713,0,60,90
0.09999999999999432,6713,1,60,90
0.09999999999999432,6713,2,60,90
0.09999999999999432,6713,3,60,90
0.10000000000002274,6713,4,60,90
0.09999999999999432,6713,5,60,90
0.09999999999999432,6713,6,60,90
0.10000000000002274,6713,7,60,90
0.09999999999999432,6713,8,60,90
0.09999999999999432,6713,9,60,90
0.09999999999999432,6713,10,60,90
0.09999999999999432,6713,11,60,90
0.09999999999999432,6713,12,60,90
0.09999999999999432,6713,13,60,90
0.09999999999999432,6713,14,60,90
0.09999999999999432,6713,15,60,90
0.09999999999999432,6714,0,60,90
0.09999999999999432,6714,1,60,90
0.10000000000002274,6714,2,60,90
0.09999999999999432,6714,3,60,90
0.10000000000002274,6714,4,60,90
0.09999999999999432,6714,5,60,90
0.09999999999999432,6714,6,60,90
0.09999999999999432,6714,7,60,90
0.09999999999999432,6714,8,60,90
0.09999999999999432,6714,9,60,90
0.09999999999999432,6714,10,60,90
0.09999999999999432,6714,11,60,90
0.10000000000002274,6714,12,60,90
0.10000000000002274,6714,13,60,90
0.10000000000002274,6714,14,60,90
0.09999999999999432,6714,15,60,90
0.09999999999999432,6715,0,60,90
0.09999999999999432,6715,1,60,90
0.10000000000002274,6715,2,60,90
0.09999999999999432,6715,3,60,90
0.09999999999999432,6715,4,60,90
0.10000000000002274,6715,5,60,90
0.09999999999999432,6715,6,60,90
0.09999999999999432,6715,7,60,90
0.09999999999999432,6715,8,60,90
0.09999999999999432,6715,9,60,90
0.09999999999999432,6715,10,60,90
0.09999999999999432,6715,11,60,90
0.09999999999999432,6715,12,60,90
0.10000000000002274,6715,13,60,90
0.09999999999999432,6715,14,60,90
0.09999999999999432,6715,15,60,90
0.09999999999999432,6716,0,60,90
0.10000000000000003,6716,1,60,90
0.09999999999999998,6716,2,60,90
0.10000000000000009,6716,3,60,90
0.10000000000000009,6716,4,60,90
0.10000000000000009,6716,5,60,90
0.09999999999999987,6716,6,60,90
0.10000000000000009,6716,7,60,90
0.09999999999999964,6716,8,60,90
0.10000000000000009,6716,9,60,90
0.10000000000000009,6716,10,60,90
0.10000000000000009,6716,11,60,90
0.10000000000000009,6716,12,60,90
0.10000000000000009,6716,13,60,90
0.10000000000000053,6716,14,60,90
0.09999999999999964,6716,15,60,90
0.09999999999999964,6717,0,60,90
0.09999999999999964,6717,1,60,90
0.09999999999999964,6717,2,60,90
0.09999999999999964,6717,3,60,90
0.10000000000000053,6717,4,60,90
0.09999999999999964,6717,5,60,90
0.09999999999999964,6717,6,60,90
0.09999999999999964,6717,7,60,90
0.09999999999999964,6717,8,60,90
0.09999999999999964,6717,9,60,90
0.10000000000000053,6717,10,60,90
0.10000000000000053,6717,11,60,90
0.09999999999999964,6717,12,60,90
0.09999999999999964,6717,13,60,90
0.10000000000000142,6717,14,60,90
0.09999999999999964,6717,15,60,90
0.09999999999999964,6718,0,60,90
0.09999999999999964,6718,1,60,90
0.09999999999999964,6718,2,60,90
0.09999999999999964,6718,3,60,90
0.09999999999999964,6718,4,60,90
0.09999999999999964,6718,5,60,90
0.10000000000000142,6718,6,60,90
0.09999999999999964,6718,7,60,90
0.09999999999999964,6718,8,60,90
0.10000000000000142,6718,9,60,90
0.09999999999999964,6718,10,60,90
0.09999999999999964,6718,11,60,90
0.09999999999999964,6718,12,60,90
0.09999999999999964,6718,13,60,90
0.09999999999999964,6718,14,60,90
0.09999999999999964,6718,15,60,90
0.10000000000000142,6719,0,60,90
0.10000000000000142,6719,1,60,90
0.10000000000000142,6719,2,60,90
0.09999999999999787,6719,3,60,90
0.10000000000000142,6719,4,60,90
0.09999999999999787,6719,5,60,90
0.10000000000000142,6719,6,60,90
0.09999999999999787,6719,7,60,90
0.09999999999999787,6719,8,60,90
0.10000000000000142,6719,9,60,90
0.09999999999999787,6719,10,60,90
0.10000000000000142,6719,11,60,90
0.09999999999999787,6719,12,60,90
0.10000000000000142,6719,13,60,90
0.10000000000000142,6719,14,60,90
0.10000000000000142,6719,15,60,90
0.09999999999999787,6720,0,60,90
0.09999999999999787,6720,1,60,90
0.10000000000000142,6720,2,60,90
0.09999999999999787,6720,3,60,90
0.10000000000000142,6720,4,60,90
0.09999999999999787,6720,5,60,90
0.10000000000000142,6720,6,60,90
0.09999999999999787,6720,7,60,90
0.10000000000000142,6720,8,60,90
0.10000000000000142,6720,9,60,90
0.09999999999999787,6720,10,60,90
0.10000000000000142,6720,11,60,90
0.09999999999999787,6720,12,60,90
0.10000000000000142,6720,13,60,90
0.09999999999999787,6720,14,60,90
0.09999999999999787,6720,15,60,90
0.09999999999999787,6721,0,60,90
0.10000000000000142,6721,1,60,90
0.09999999999999787,6721,2,60,90
0.09999999999999787,6721,3,60,90
0.09999999999999787,6721,4,60,90
0.09999999999999787,6721,5,60,90
0.10000000000000142,6721,6,60,90
0.10000000000000142,6721,7,60,90
0.10000000000000142,6721,8,60,90
0.10000000000000142,6721,9,60,90
0.09999999999999432,6721,10,60,90
0.10000000000000142,6721,11,60,90
0.09999999999999432,6721,12,60,90
0.10000000000000142,6721,13,60,90
0.10000000000000142,6721,14,60,90
0.10000000000000142,6721,15,60,90
0.10000000000000142,6722,0,60,90
0.10000000000000142,6722,1,60,90
0.10000000000000142,6722,2,60,90
0.10000000000000142,6722,3,60,90
0.09999999999999432,6722,4,60,90
0.10000000000000142,6722,5,60,90
0.10000000000000142,6722,6,60,90
0.10000000000000142,6722,7,60,90
0.10000000000000142,6722,8,60,90
0.10000000000000142,6722,9,60,90
0.10000000000000142,6722,10,60,90
0.09999999999999432,6722,11,60,90
0.10000000000000142,6722,12,60,90
0.10000000000000142,6722,13,60,90
0.10000000000000142,6722,14,60,90
0.10000000000000142,6722,15,60,90
0.09999999999999432,6723,0,60,90
0.10000000000000142,6723,1,60,90
0.09999999999999432,6723,2,60,90
0.10000000000000142,6723,3,60,90
0.10000000000000142,6723,4,60,90
0.10000000000000142,6723,5,60,90
0.09999999999999432,6723,6,60,90
0.10000000000000142,6723,7,60,90
0.09999999999999432,6723,8,60,90
0.10000000000000142,6723,9,60,90
0.10000000000000142,6723,10,60,90
0.10000000000000142,6723,11,60,90
0.10000000000000142,6723,12,60,90
0.10000000000000142,6723,13,60,90
0.10000000000000142,6723,14,60,90
0.09999999999999432,6723,15,60,90
0.10000000000000142,6724,0,60,90
0.10000000000000142,6724,1,60,90
0.10000000000000142,6724,2,60,90
0.10000000000000142,6724,3,60,90
0.09999999999999432,6724,4,60,90
0.10000000000000142,6724,5,60,90
0.10000000000000142,6724,6,60,90
0.09999999999999432,6724,7,60,90
0.10000000000000142,6724,8,60,90
0.10000000000000142,6724,9,60,90
0.10000000000000142,6724,10,60,90
0.09999999999999432,6724,11,60,90
0.10000000000000142,6724,12,60,90
0.10000000000000142,6724,13,60,90
0.10000000000000142,6724,14,60,90
0.10000000000000142,6724,15,60,90
0.10000000000000142,6725,0,60,90
0.09999999999999432,6725,1,60,90
0.09999999999999432,6725,2,60,90
0.10000000000000142,6725,3,60,90
0.10000000000000142,6725,4,60,90
0.10000000000000142,6725,5,60,90
0.10000000000000142,6725,6,60,90
0.10000000000000142,6725,7,60,90
0.10000000000000142,6725,8,60,90
0.10000000000000142,6725,9,60,90
0.10000000000000142,6725,10,60,90
0.10000000000000142,6725,11,60,90
0.10000000000000142,6725,12,60,90
0.10000000000000142,6725,13,60,90
0.10000000000000142,6725,14,60,90
0.09999999999999432,6725,15,60,90
0.10000000000000142,6726,0,60,90
0.10000000000000142,6726,1,60,90
0.10000000000000142,6726,2,60,90
0.10000000000000142,6726,3,60,90
0.10000000000000142,6726,4,60,90
0.10000000000000142,6726,5,60,90
0.10000000000000142,6726,6,60,90
0.10000000000000142,6726,7,60,90
0.10000000000000142,6726,8,60,90
0.10000000000000142,6726,9,60,90
0.09999999999999432,6726,10,60,90
0.10000000000000142,6726,11,60,90
0.09999999999999432,6726,12,60,90
0.10000000000000142,6726,13,60,90
0.10000000000000142,6726,14,60,90
0.10000000000000142,6726,15,60,90
0.10000000000000142,6727,0,60,90
0.10000000000000142,6727,1,60,90
0.10000000000000142,6727,2,60,90
0.10000000000000142,6727,3,60,90
0.09999999999999432,6727,4,60,90
0.09999999999999432,6727,5,60,90
0.09999999999999432,6727,6,60,90
0.09999999999999432,6727,7,60,90
0.09999999999999432,6727,8,60,90
0.09999999999999432,6727,9,60,90
0.10000000000000853,6727,10,60,90
0.10000000000000853,6727,11,60,90
0.09999999999999432,6727,12,60,90
0.10000000000000853,6727,13,60,90
0.09999999999999432,6727,14,60,90
0.10000000000000853,6727,15,60,90
0.09999999999999432,6728,0,60,90
0.09999999999999432,6728,1,60,90
0.09999999999999432,6728,2,60,90
0.09999999999999432,6728,3,60,90
0.09999999999999432,6728,4,60,90
0.10000000000000853,6728,5,60,90
0.09999999999999432,6728,6,60,90
0.10000000000000853,6728,7,60,90
0.10000000000000853,6728,8,60,90
0.10000000000000853,6728,9,60,90
0.10000000000000853,6728,10,60,90
0.09999999999999432,6728,11,60,90
0.09999999999999432,6728,12,60,90
0.10000000000000853,6728,13,60,90
0.09999999999999432,6728,14,60,90
0.09999999999999432,6728,15,60,90
0.09999999999999432,6729,0,60,90
0.09999999999999432,6729,1,60,90
0.09999999999999432,6729,2,60,90
0.09999999999999432,6729,3,60,90
0.09999999999999432,6729,4,60,90
0.10000000000000853,6729,5,60,90
0.10000000000000853,6729,6,60,90
0.09999999999999432,6729,7,60,90
0.10000000000000853,6729,8,60,90
0.10000000000000853,6729,9,60,90
0.10000000000000853,6729,10,60,90
0.09999999999999432,6729,11,60,90
0.10000000000000853,6729,12,60,90
0.09999999999999432,6729,13,60,90
0.10000000000000853,6729,14,60,90
0.09999999999999432,6729,15,60,90
0.10000000000000853,6730,0,60,90
0.09999999999999432,6730,1,60,90
0.09999999999999432,6730,2,60,90
0.10000000000000853,6730,3,60,90
0.10000000000000853,6730,4,60,90
0.09999999999999432,6730,5,60,90
0.09999999999999432,6730,6,60,90
0.09999999999999432,6730,7,60,90
0.09999999999999432,6730,8,60,90
0.09999999999999432,6730,9,60,90
0.09999999999999432,6730,10,60,90
0.09999999999999432,6730,11,60,90
0.10000000000000853,6730,12,60,90
0.09999999999999432,6730,13,60,90
0.09999999999999432,6730,14,60,90
0.09999999999999432,6730,15,60,90
0.09999999999999432,6731,0,60,90
0.10000000000000853,6731,1,60,90
0.09999999999999432,6731,2,60,90
0.09999999999999432,6731,3,60,90
0.10000000000000853,6731,4,60,90
0.10000000000000853,6731,5,60,90
0.09999999999999432,6731,6,60,90
0.10000000000000853,6731,7,60,90
0.09999999999999432,6731,8,60,90
0.09999999999999432,6731,9,60,90
0.10000000000000853,6731,10,60,90
0.09999999999999432,6731,11,60,90
0.10000000000000853,6731,12,60,90
0.09999999999999432,6731,13,60,90
0.10000000000000853,6731,14,60,90
0.09999999999999432,6731,15,60,90
0.09999999999999432,6732,0,60,90
0.10000000000000853,6732,1,60,90
0.09999999999999432,6732,2,60,90
0.10000000000000853,6732,3,60,90
0.09999999999999432,6732,4,60,90
0.09999999999999432,6732,5,60,90
0.09999999999999432,6732,6,60,90
0.09999999999999432,6732,7,60,90
0.10000000000000853,6732,8,60,90
0.10000000000000853,6732,9,60,90
0.09999999999999432,6732,10,60,90
0.09999999999999432,6732,11,60,90
0.10000000000000853,6732,12,60,90
0.09999999999999432,6732,13,60,90
0.10000000000000853,6732,14,60,90
0.10000000000000853,6732,15,60,90
0.10000000000000853,6733,0,60,90
0.09999999999999432,6733,1,60,90
0.09999999999999432,6733,2,60,90
0.10000000000000853,6733,3,60,90
0.10000000000000853,6733,4,60,90
0.09999999999999432,6733,5,60,90
0.10000000000000853,6733,6,60,90
0.09999999999999432,6733,7,60,90
0.10000000000000853,6733,8,60,90
0.09999999999999432,6733,9,60,90
0.09999999999999432,6733,10,60,90
0.10000000000000853,6733,11,60,90
0.10000000000000853,6733,12,60,90
0.10000000000000853,6733,13,60,90
0.10000000000000853,6733,14,60,90
0.09999999999999432,6733,15,60,90
0.09999999999999432,6734,0,60,90
0.10000000000000853,6734,1,60,90
0.09999999999999432,6734,2,60,90
0.10000000000000853,6734,3,60,90
0.10000000000000853,6734,4,60,90
0.09999999999999432,6734,5,60,90
0.10000000000000853,6734,6,60,90
0.09999999999999432,6734,7,60,90
0.09999999999999432,6734,8,60,90
0.09999999999999432,6734,9,60,90
0.09999999999999432,6734,10,60,90
0.09999999999999432,6734,11,60,90
0.10000000000000853,6734,12,60,90
0.09999999999999432,6734,13,60,90
0.09999999999999432,6734,14,60,90
0.10000000000000853,6734,15,60,90
0.09999999999999432,6735,0,60,90
0.10000000000000853,6735,1,60,90
0.09999999999999432,6735,2,60,90
0.09999999999999432,6735,3,60,90
0.09999999999999432,6735,4,60,90
0.09999999999999432,6735,5,60,90
0.09999999999999432,6735,6,60,90
0.10000000000000853,6735,7,60,90
0.09999999999999432,6735,8,60,90
0.09999999999999432,6735,9,60,90
0.09999999999999432,6735,10,60,90
0.09999999999999432,6735,11,60,90
0.09999999999999432,6735,12,60,90
0.09999999999999432,6735,13,60,90
0.10000000000000853,6735,14,60,90
0.10000000000000853,6735,15,60,90
0.09999999999999432,6736,0,60,90
0.10000000000000853,6736,1,60,90
0.10000000000000853,6736,2,60,90
0.09999999999999432,6736,3,60,90
0.09999999999999432,6736,4,60,90
0.10000000000000853,6736,5,60,90
0.09999999999999432,6736,6,60,90
0.09999999999999432,6736,7,60,90
0.09999999999999432,6736,8,60,90
0.09999999999999432,6736,9,60,90
0.09999999999999432,6736,10,60,90
0.09999999999999432,6736,11,60,90
0.09999999999999432,6736,12,60,90
0.10000000000000853,6736,13,60,90
0.09999999999999432,6736,14,60,90
0.10000000000000853,6736,15,60,90
0.09999999999999432,6737,0,60,90
0.09999999999999432,6737,1,60,90
0.10000000000000853,6737,2,60,90
0.10000000000000853,6737,3,60,90
0.10000000000000853,6737,4,60,90
0.10000000000000853,6737,5,60,90
0.10000000000002274,6737,6,60,90
0.09999999999999432,6737,7,60,90
0.09999999999999432,6737,8,60,90
0.09999999999999432,6737,9,60,90
0.10000000000002274,6737,10,60,90
0.09999999999999432,6737,11,60,90
0.09999999999999432,6737,12,60,90
0.10000000000002274,6737,13,60,90
0.09999999999999432,6737,14,60,90
0.09999999999999432,6737,15,60,90
0.09999999999999432,6738,0,60,90
0.09999999999999432,6738,1,60,90
0.09999999999999432,6738,2,60,90
0.09999999999999432,6738,3,60,90
0.09999999999999432,6738,4,60,90
0.09999999999999432,6738,5,60,90
0.09999999999999432,6738,6,60,90
0.09999999999999432,6738,7,60,90
0.09999999999999432,6738,8,60,90
0.09999999999999432,6738,9,60,90
0.10000000000002274,6738,10,60,90
0.09999999999999432,6738,11,60,90
0.10000000000002274,6738,12,60,90
0.09999999999999432,6738,13,60,90
0.09999999999999432,6738,14,60,90
0.09999999999999432,6738,15,60,90
0.10000000000002274,6739,0,60,90
0.09999999999999432,6739,1,60,90
0.09999999999999432,6739,2,60,90
0.10000000000002274,6739,3,60,90
0.09999999999999432,6739,4,60,90
0.09999999999999432,6739,5,60,90
0.09999999999999432,6739,6,60,90
0.10000000000002274,6739,7,60,90
0.09999999999999432,6739,8,60,90
0.09999999999999432,6739,9,60,90
0.09999999999999432,6739,10,60,90
0.09999999999999432,6739,11,60,90
0.10000000000002274,6739,12,60,90
0.09999999999999432,6739,13,60,90
0.09999999999999432,6739,14,60,90
0.09999999999999432,6739,15,60,90
0.09999999999999432,6740,0,60,90
0.10000000000002274,6740,1,60,90
0.09999999999999432,6740,2,60,90
0.09999999999999432,6740,3,60,90
0.09999999999999432,6740,4,60,90
0.09999999999999432,6740,5,60,90
0.09999999999999432,6740,6,60,90
0.09999999999999432,6740,7,60,90
0.09999999999999432,6740,8,60,90
0.09999999999999432,6740,9,60,90
0.09999999999999432,6740,10,60,90
0.09999999999999432,6740,11,60,90
0.09999999999999432,6740,12,60,90
0.10000000000002274,6740,13,60,90
0.09999999999999432,6740,14,60,90
0.10000000000002274,6740,15,60,90
0.09999999999999432,6741,0,60,90
0.09999999999999432,6741,1,60,90
0.09999999999999432,6741,2,60,90
0.10000000000002274,6741,3,60,90
0.10000000000002274,6741,4,60,90
0.09999999999999432,6741,5,60,90
0.09999999999999432,6741,6,60,90
0.10000000000002274,6741,7,60,90
0.09999999999999432,6741,8,60,90
0.09999999999999432,6741,9,60,90
0.09999999999999432,6741,10,60,90
0.09999999999999432,6741,11,60,90
0.09999999999999432,6741,12,60,90
0.09999999999999432,6741,13,60,90
0.09999999999999432,6741,14,60,90
0.09999999999999432,6741,15,60,90
0.09999999999999432,6742,0,60,90
0.09999999999999432,6742,1,60,90
0.09999999999999432,6742,2,60,90
0.09999999999999432,6742,3,60,90
0.09999999999999432,6742,4,60,90
0.09999999999999432,6742,5,60,90
0.10000000000002274,6742,6,60,90
0.09999999999999432,6742,7,60,90
0.09999999999999432,6742,8,60,90
0.09999999999999432,6742,9,60,90
0.09999999999999432,6742,10,60,90
0.09999999999999432,6742,11,60,90
0.09999999999999432,6742,12,60,90
0.09999999999999432,6742,13,60,90
0.09999999999999432,6742,14,60,90
0.10000000000002274,6742,15,60,90
0.10000000000002274,6743,0,60,90
0.09999999999999432,6743,1,60,90
0.09999999999999432,6743,2,60,90
0.09999999999999432,6743,3,60,90
0.09999999999999432,6743,4,60,90
0.10000000000002274,6743,5,60,90
0.09999999999999432,6743,6,60,90
0.09999999999999432,6743,7,60,90
0.10000000000002274,6743,8,60,90
0.09999999999999432,6743,9,60,90
0.09999999999999432,6743,10,60,90
0.09999999999999432,6743,11,60,90
0.09999999999999432,6743,12,60,90
0.09999999999999432,6743,13,60,90
0.09999999999999432,6743,14,60,90
0.09999999999999432,6743,15,60,90
0.09999999999999432,6744,0,60,90
0.09999999999999432,6744,1,60,90
0.09999999999999432,6744,2,60,90
0.09999999999999432,6744,3,60,90
0.09999999999999432,6744,4,60,90
0.10000000000002274,6744,5,60,90
0.09999999999999432,6744,6,60,90
0.10000000000002274,6744,7,60,90
0.09999999999999432,6744,8,60,90
0.09999999999999432,6744,9,60,90
0.09999999999999432,6744,10,60,90
0.09999999999999432,6744,11,60,90
0.09999999999999432,6744,12,60,90
0.09999999999999432,6744,13,60,90
0.09999999999999432,6744,14,60,90
0.10000000000002274,6744,15,60,90
0.10000000000002274,6745,0,60,90
0.10000000000002274,6745,1,60,90
0.09999999999999432,6745,2,60,90
0.09999999999999432,6745,3,60,90
0.09999999999999432,6745,4,60,90
0.09999999999999432,6745,5,60,90
0.09999999999999432,6745,6,60,90
0.10000000000002274,6745,7,60,90
0.09999999999999432,6745,8,60,90
0.09999999999999432,6745,9,60,90
0.09999999999999432,6745,10,60,90
0.09999999999999432,6745,11,60,90
0.09999999999999432,6745,12,60,90
0.09999999999999432,6745,13,60,90
0.09999999999999432,6745,14,60,90
0.10000000000002274,6745,15,60,90
0.09999999999999432,6746,0,60,90
0.10000000000002274,6746,1,60,90
0.09999999999999432,6746,2,60,90
0.10000000000002274,6746,3,60,90
0.09999999999999432,6746,4,60,90
0.10000000000002274,6746,5,60,90
0.09999999999999432,6746,6,60,90
0.09999999999999432,6746,7,60,90
0.09999999999999432,6746,8,60,90
0.09999999999999432,6746,9,60,90
0.09999999999999432,6746,10,60,90
0.09999999999999432,6746,11,60,90
0.09999999999999432,6746,12,60,90
0.09999999999999432,6746,13,60,90
0.09999999999999432,6746,14,60,90
0.09999999999999432,6746,15,60,90
0.09999999999999432,6747,0,60,90
0.10000000000002274,6747,1,60,90
0.10000000000002274,6747,2,60,90
0.09999999999999432,6747,3,60,90
0.10000000000002274,6747,4,60,90
0.09999999999999432,6747,5,60,90
0.09999999999999432,6747,6,60,90
0.09999999999999432,6747,7,60,90
0.09999999999999432,6747,8,60,90
0.09999999999999432,6747,9,60,90
0.09999999999999432,6747,10,60,90
0.10000000000002274,6747,11,60,90
0.09999999999999432,6747,12,60,90
0.09999999999999432,6747,13,60,90
0.09999999999999432,6747,14,60,90
0.10000000000002274,6747,15,60,90
0.09999999999999432,6748,0,60,90
0.09999999999999432,6748,1,60,90
0.09999999999999432,6748,2,60,90
0.09999999999999432,6748,3,60,90
0.10000000000002274,6748,4,60,90
0.09999999999999432,6748,5,60,90
0.09999999999999432,6748,6,60,90
0.09999999999999432,6748,7,60,90
0.10000000000002274,6748,8,60,90
0.09999999999999432,6748,9,60,90
0.09999999999999787,6748,10,60,90
0.09999999999999432,6748,11,60,90
0.10000000000000853,6748,12,60,90
0.09999999999999432,6748,13,60,90
0.10000000000000853,6748,14,60,90
0.09999999999999432,6748,15,60,90
0.10000000000000853,6749,0,60,90
0.09999999999999432,6749,1,60,90
0.10000000000000853,6749,2,60,90
0.10000000000000853,6749,3,60,90
0.09999999999999432,6749,4,60,90
0.09999999999999432,6749,5,60,90
0.10000000000000853,6749,6,60,90
0.09999999999999432,6749,7,60,90
0.10000000000000853,6749,8,60,90
0.09999999999999432,6749,9,60,90
0.10000000000000853,6749,10,60,90
0.10000000000000853,6749,11,60,90
0.09999999999999432,6749,12,60,90
0.09999999999999432,6749,13,60,90
0.10000000000000853,6749,14,60,90
0.10000000000000853,6749,15,60,90
0.09999999999999432,6750,0,60,90
0.09999999999999432,6750,1,60,90
0.10000000000000853,6750,2,60,90
0.10000000000000853,6750,3,60,90
0.09999999999999432,6750,4,60,90
0.10000000000000853,6750,5,60,90
0.09999999999999432,6750,6,60,90
0.09999999999999432,6750,7,60,90
0.09999999999999432,6750,8,60,90
0.10000000000000853,6750,9,60,90
0.09999999999999432,6750,10,60,90
0.09999999999999432,6750,11,60,90
0.10000000000000853,6750,12,60,90
0.09999999999999432,6750,13,60,90
0.10000000000000853,6750,14,60,90
0.09999999999999432,6750,15,60,90
0.10000000000000853,6751,0,60,90
0.09999999999999432,6751,1,60,90
0.09999999999999432,6751,2,60,90
0.09999999999999432,6751,3,60,90
0.10000000000000853,6751,4,60,90
0.09999999999999432,6751,5,60,90
0.10000000000000853,6751,6,60,90
0.09999999999999432,6751,7,60,90
0.10000000000000853,6751,8,60,90
0.09999999999999432,6751,9,60,90
0.09999999999999432,6751,10,60,90
0.09999999999999432,6751,11,60,90
0.10000000000000853,6751,12,60,90
0.09999999999999432,6751,13,60,90
0.10000000000000853,6751,14,60,90
0.10000000000000853,6751,15,60,90
0.10000000000000853,6752,0,60,90
0.10000000000000853,6752,1,60,90
0.09999999999999432,6752,2,60,90
0.09999999999999432,6752,3,60,90
0.10000000000000853,6752,4,60,90
0.09999999999999432,6752,5,60,90
0.09999999999999432,6752,6,60,90
0.10000000000000853,6752,7,60,90
0.10000000000000853,6752,8,60,90
0.09999999999999432,6752,9,60,90
0.09999999999999432,6752,10,60,90
0.10000000000000853,6752,11,60,90
0.10000000000000853,6752,12,60,90
0.10000000000000853,6752,13,60,90
0.09999999999999432,6752,14,60,90
0.09999999999999432,6752,15,60,90
0.09999999999999432,6753,0,60,90
0.10000000000002274,6753,1,60,90
0.09999999999999432,6753,2,60,90
0.10000000000002274,6753,3,60,90
0.09999999999999432,6753,4,60,90
0.09999999999999432,6753,5,60,90
0.09999999999999432,6753,6,60,90
0.09999999999999432,6753,7,60,90
0.09999999999999432,6753,8,60,90
0.09999999999999432,6753,9,60,90
0.10000000000002274,6753,10,60,90
0.09999999999999432,6753,11,60,90
0.10000000000002274,6753,12,60,90
0.09999999999999432,6753,13,60,90
0.09999999999999432,6753,14,60,90
0.10000000000002274,6753,15,60,90
0.09999999999999432,6754,0,60,90
0.09999999999999432,6754,1,60,90
0.09999999999999432,6754,2,60,90
0.09999999999999432,6754,3,60,90
0.09999999999999432,6754,4,60,90
0.09999999999999432,6754,5,60,90
0.10000000000002274,6754,6,60,90
0.09999999999999432,6754,7,60,90
0.10000000000002274,6754,8,60,90
0.09999999999999432,6754,9,60,90
0.09999999999999432,6754,10,60,90
0.10000000000002274,6754,11,60,90
0.09999999999999432,6754,12,60,90
0.10000000000002274,6754,13,60,90
0.09999999999999432,6754,14,60,90
0.09999999999999432,6754,15,60,90
0.09999999999999432,6755,0,60,90
0.09999999999999432,6755,1,60,90
0.10000000000002274,6755,2,60,90
0.09999999999999432,6755,3,60,90
0.09999999999999432,6755,4,60,90
0.09999999999999432,6755,5,60,90
0.09999999999999432,6755,6,60,90
0.09999999999999432,6755,7,60,90
0.09999999999999432,6755,8,60,90
0.09999999999999432,6755,9,60,90
0.09999999999999432,6755,10,60,90
0.09999999999999432,6755,11,60,90
0.09999999999999432,6755,12,60,90
0.09999999999999432,6755,13,60,90
0.0022727272727252057,6755,14,60,90
0.10000000000002274,6755,15,60,90
0.09999999999999432,6756,0,60,90
0.09999999999999432,6756,1,60,90
0.09999999999999432,6756,2,60,90
0.10000000000002274,6756,3,60,90
0.09999999999999432,6756,4,60,90
0.09999999999999432,6756,5,60,90
0.09999999999999432,6756,6,60,90
0.09999999999999432,6756,7,60,90
0.09999999999999432,6756,8,60,90
0.09999999999999432,6756,9,60,90
0.09999999999999432,6756,10,60,90
0.10000000000002274,6756,11,60,90
0.09999999999999432,6756,12,60,90
0.09999999999999432,6756,13,60,90
0.0022727272727252057,6756,14,60,90
0.09999999999999432,6756,15,60,90
0.09999999999999432,6757,0,60,90
0.09999999999999432,6757,1,60,90
0.09999999999999432,6757,2,60,90
0.09999999999999432,6757,3,60,90
0.09999999999999432,6757,4,60,90
0.09999999999999432,6757,5,60,90
0.09999999999999432,6757,6,60,90
0.09999999999999432,6757,7,60,90
0.09999999999999432,6757,8,60,90
0.09999999999999432,6757,9,60,90
0.09999999999999432,6757,10,60,90
0.09999999999999432,6757,11,60,90
0.09999999999999432,6757,12,60,90
0.09999999999999432,6757,13,60,90
0.09999999999999432,6757,14,60,90
0.09999999999999432,6757,15,60,90
0.09999999999999432,6758,0,60,90
0.10000000000002274,6758,1,60,90
0.09999999999999432,6758,2,60,90
0.10000000000002274,6758,3,60,90
0.09999999999999432,6758,4,60,90
0.09999999999999432,6758,5,60,90
0.09999999999999998,6758,6,60,90
0.09999999999999964,6758,7,60,90
0.10000000000000009,6758,8,60,90
0.09999999999999964,6758,9,60,90
0.09999999999999964,6758,10,60,90
0.10000000000000053,6758,11,60,90
0.09999999999999964,6758,12,60,90
0.09999999999999964,6758,13,60,90
0.09999999999999964,6758,14,60,90
0.10000000000000142,6758,15,60,90
0.09999999999999964,6759,0,60,90
0.09999999999999964,6759,1,60,90
0.09999999999999964,6759,2,60,90
0.09999999999999964,6759,3,60,90
0.09999999999999964,6759,4,60,90
0.09999999999999964,6759,5,60,90
0.09999999999999964,6759,6,60,90
0.09999999999999964,6759,7,60,90
0.09999999999999964,6759,8,60,90
0.09999999999999964,6759,9,60,90
0.09999999999999964,6759,10,60,90
0.09999999999999964,6759,11,60,90
0.09999999999999964,6759,12,60,90
0.10000000000000142,6759,13,60,90
0.09999999999999964,6759,14,60,90
0.10000000000000142,6759,15,60,90
0.09999999999999787,6760,0,60,90
0.10000000000000142,6760,1,60,90
0.10000000000000142,6760,2,60,90
0.10000000000000142,6760,3,60,90
0.10000000000000142,6760,4,60,90
0.09999999999999787,6760,5,60,90
0.09999999999999787,6760,6,60,90
0.10000000000000142,6760,7,60,90
0.10000000000000142,6760,8,60,90
0.10000000000000142,6760,9,60,90
0.10000000000000142,6760,10,60,90
0.09999999999999787,6760,11,60,90
0.09999999999999787,6760,12,60,90
0.09999999999999787,6760,13,60,90
0.10000000000000142,6760,14,60,90
0.10000000000000142,6760,15,60,90
0.10000000000000142,6761,0,60,90
0.10000000000000142,6761,1,60,90
0.10000000000000142,6761,2,60,90
0.10000000000000142,6761,3,60,90
0.09999999999999787,6761,4,60,90
0.10000000000000142,6761,5,60,90
0.09999999999999787,6761,6,60,90
0.10000000000000142,6761,7,60,90
0.10000000000000142,6761,8,60,90
0.10000000000000142,6761,9,60,90
0.10000000000000142,6761,10,60,90
0.09999999999999787,6761,11,60,90
0.10000000000000142,6761,12,60,90
0.09999999999999787,6761,13,60,90
0.09999999999999787,6761,14,60,90
0.10000000000000142,6761,15,60,90
0.10000000000000142,6762,0,60,90
0.10000000000000142,6762,1,60,90
0.10000000000000142,6762,2,60,90
0.10000000000000142,6762,3,60,90
0.09999999999999787,6762,4,60,90
0.09999999999999787,6762,5,60,90
0.09999999999999787,6762,6,60,90
0.09999999999999787,6762,7,60,90
0.10000000000000142,6762,8,60,90
0.10000000000000142,6762,9,60,90
0.09999999999999787,6762,10,60,90
0.10000000000000142,6762,11,60,90
0.09999999999999432,6762,12,60,90
0.09999999999999432,6762,13,60,90
0.10000000000000142,6762,14,60,90
0.10000000000000142,6762,15,60,90
0.10000000000000142,6763,0,60,90
0.10000000000000142,6763,1,60,90
0.10000000000000142,6763,2,60,90
0.10000000000000142,6763,3,60,90
0.10000000000000142,6763,4,60,90
0.10000000000000142,6763,5,60,90
0.10000000000000142,6763,6,60,90
0.10000000000000142,6763,7,60,90
0.10000000000000142,6763,8,60,90
0.10000000000000142,6763,9,60,90
0.10000000000000142,6763,10,60,90
0.09999999999999432,6763,11,60,90
0.10000000000000142,6763,12,60,90
0.10000000000000142,6763,13,60,90
0.10000000000000142,6763,14,60,90
0.10000000000000142,6763,15,60,90
0.09999999999999432,6764,0,60,90
0.10000000000000142,6764,1,60,90
0.10000000000000142,6764,2,60,90
0.10000000000000142,6764,3,60,90
0.10000000000000142,6764,4,60,90
0.10000000000000142,6764,5,60,90
0.09999999999999432,6764,6,60,90
0.10000000000000142,6764,7,60,90
0.10000000000000142,6764,8,60,90
0.10000000000000142,6764,9,60,90
0.10000000000000142,6764,10,60,90
0.10000000000000142,6764,11,60,90
0.10000000000000142,6764,12,60,90
0.10000000000000142,6764,13,60,90
0.10000000000000142,6764,14,60,90
0.10000000000000142,6764,15,60,90
0.09999999999999432,6765,0,60,90
0.10000000000000142,6765,1,60,90
0.10000000000000142,6765,2,60,90
0.10000000000000142,6765,3,60,90
0.10000000000000142,6765,4,60,90
0.10000000000000142,6765,5,60,90
0.10000000000000142,6765,6,60,90
0.10000000000000142,6765,7,60,90
0.10000000000000142,6765,8,60,90
0.09999999999999432,6765,9,60,90
0.10000000000000142,6765,10,60,90
0.10000000000000142,6765,11,60,90
0.10000000000000142,6765,12,60,90
0.10000000000000142,6765,13,60,90
0.10000000000000142,6765,14,60,90
0.10000000000000142,6765,15,60,90
0.09999999999999432,6766,0,60,90
0.09999999999999432,6766,1,60,90
0.10000000000000142,6766,2,60,90
0.10000000000000142,6766,3,60,90
0.10000000000000142,6766,4,60,90
0.10000000000000142,6766,5,60,90
0.10000000000000142,6766,6,60,90
0.10000000000000142,6766,7,60,90
0.10000000000000142,6766,8,60,90
0.10000000000000142,6766,9,60,90
0.10000000000000142,6766,10,60,90
0.10000000000000142,6766,11,60,90
0.10000000000000142,6766,12,60,90
0.10000000000000142,6766,13,60,90
0.10000000000000142,6766,14,60,90
0.10000000000000142,6766,15,60,90
0.10000000000000142,6767,0,60,90
0.09999999999999432,6767,1,60,90
0.10000000000000142,6767,2,60,90
0.09999999999999432,6767,3,60,90
0.09999999999999432,6767,4,60,90
0.10000000000000142,6767,5,60,90
0.10000000000000142,6767,6,60,90
0.09999999999999432,6767,7,60,90
0.10000000000000142,6767,8,60,90
0.10000000000000142,6767,9,60,90
0.10000000000000142,6767,10,60,90
0.10000000000000142,6767,11,60,90
0.09999999999999432,6767,12,60,90
0.09999999999999432,6767,13,60,90
0.10000000000000142,6767,14,60,90
0.10000000000000142,6767,15,60,90
0.10000000000000142,6768,0,60,90
0.10000000000000142,6768,1,60,90
0.10000000000000142,6768,2,60,90
0.10000000000000142,6768,3,60,90
0.10000000000000142,6768,4,60,90
0.09999999999999432,6768,5,60,90
0.10000000000000142,6768,6,60,90
0.10000000000000142,6768,7,60,90
0.10000000000000142,6768,8,60,90
0.10000000000000142,6768,9,60,90
0.10000000000000142,6768,10,60,90
0.10000000000000142,6768,11,60,90
0.10000000000000142,6768,12,60,90
0.09999999999999432,6768,13,60,90
0.10000000000000853,6768,14,60,90
0.09999999999999432,6768,15,60,90
0.10000000000000853,6769,0,60,90
0.10000000000000853,6769,1,60,90
0.09999999999999432,6769,2,60,90
0.09999999999999432,6769,3,60,90
0.10000000000000853,6769,4,60,90
0.09999999999999432,6769,5,60,90
0.09999999999999432,6769,6,60,90
0.10000000000000853,6769,7,60,90
0.09999999999999432,6769,8,60,90
0.09999999999999432,6769,9,60,90
0.10000000000000853,6769,10,60,90
0.09999999999999432,6769,11,60,90
0.09999999999999432,6769,12,60,90
0.09999999999999432,6769,13,60,90
0.09999999999999432,6769,14,60,90
0.09999999999999432,6769,15,60,90
0.09999999999999432,6770,0,60,90
0.09999999999999432,6770,1,60,90
0.10000000000000853,6770,2,60,90
0.09999999999999432,6770,3,60,90
0.10000000000000853,6770,4,60,90
0.09999999999999432,6770,5,60,90
0.004545454545450411,6770,6,60,90
0.09999999999999432,6770,7,60,90
0.09999999999999432,6770,8,60,90
0.10000000000000853,6770,9,60,90
0.09999999999999432,6770,10,60,90
0.10000000000000853,6770,11,60,90
0.09999999999999432,6770,12,60,90
0.09999999999999432,6770,13,60,90
0.09999999999999432,6770,14,60,90
0.0022727272727252057,6770,15,60,90
0.10000000000000853,6771,0,60,90
0.09999999999999432,6771,1,60,90
0.09999999999999432,6771,2,60,90
0.10000000000000853,6771,3,60,90
0.10000000000000853,6771,4,60,90
0.09999999999999432,6771,5,60,90
0.10000000000000853,6771,6,60,90
0.09999999999999432,6771,7,60,90
0.004545454545450411,6771,8,60,90
0.10000000000000853,6771,9,60,90
0.09999999999999432,6771,10,60,90
0.09999999999999432,6771,11,60,90
0.09999999999999432,6771,12,60,90
0.09999999999999432,6771,13,60,90
0.10000000000000853,6771,14,60,90
0.09999999999999432,6771,15,60,90
0.10000000000000853,6772,0,60,90
0.10000000000000853,6772,1,60,90
0.09999999999999432,6772,2,60,90
0.10000000000000853,6772,3,60,90
0.09999999999999432,6772,4,60,90
0.09999999999999432,6772,5,60,90
0.09999999999999432,6772,6,60,90
0.10000000000000853,6772,7,60,90
0.09999999999999432,6772,8,60,90
0.09999999999999432,6772,9,60,90
0.10000000000000853,6772,10,60,90
0.09999999999999432,6772,11,60,90
0.09999999999999432,6772,12,60,90
0.09999999999999432,6772,13,60,90
0.10000000000000853,6772,14,60,90
0.09999999999999432,6772,15,60,90
0.10000000000000853,6773,0,60,90
0.09999999999999432,6773,1,60,90
0.09999999999999432,6773,2,60,90
0.10000000000000853,6773,3,60,90
0.09999999999999432,6773,4,60,90
0.10000000000000853,6773,5,60,90
0.09999999999999432,6773,6,60,90
0.10000000000000853,6773,7,60,90
0.09999999999999432,6773,8,60,90
0.09999999999999432,6773,9,60,90
0.10000000000000853,6773,10,60,90
0.10000000000000853,6773,11,60,90
0.09999999999999432,6773,12,60,90
0.004545454545450411,6773,13,60,90
0.10000000000000853,6773,14,60,90
0.09999999999999432,6773,15,60,90
0.09999999999999432,6774,0,60,90
0.09999999999999432,6774,1,60,90
0.09999999999999432,6774,2,60,90
0.09999999999999432,6774,3,60,90
0.09999999999999432,6774,4,60,90
0.10000000000000853,6774,5,60,90
0.09999999999999432,6774,6,60,90
0.10000000000000853,6774,7,60,90
0.09999999999999432,6774,8,60,90
0.10000000000000853,6774,9,60,90
0.09999999999999432,6774,10,60,90
0.09999999999999432,6774,11,60,90
0.09999999999999432,6774,12,60,90
0.09999999999999432,6774,13,60,90
0.10000000000000853,6774,14,60,90
0.09999999999999432,6774,15,60,90
0.10000000000000853,6775,0,60,90
0.09999999999999432,6775,1,60,90
0.10000000000000853,6775,2,60,90
0.10000000000000853,6775,3,60,90
0.09999999999999432,6775,4,60,90
0.10000000000000853,6775,5,60,90
0.09999999999999432,6775,6,60,90
0.10000000000000853,6775,7,60,90
0.09999999999999432,6775,8,60,90
0.09999999999999432,6775,9,60,90
0.09999999999999432,6775,10,60,90
0.09999999999999432,6775,11,60,90
0.10000000000000853,6775,12,60,90
0.09999999999999432,6775,13,60,90
0.10000000000000853,6775,14,60,90
0.09999999999999432,6775,15,60,90
0.10000000000000853,6776,0,60,90
0.10000000000000853,6776,1,60,90
0.09999999999999432,6776,2,60,90
0.10000000000000853,6776,3,60,90
0.09999999999999432,6776,4,60,90
0.09999999999999432,6776,5,60,90
0.09999999999999432,6776,6,60,90
0.10000000000000853,6776,7,60,90
0.09999999999999432,6776,8,60,90
0.09999999999999432,6776,9,60,90
0.10000000000000853,6776,10,60,90
0.09999999999999432,6776,11,60,90
0.09999999999999432,6776,12,60,90
0.09999999999999432,6776,13,60,90
0.10000000000000853,6776,14,60,90
0.09999999999999432,6776,15,60,90
0.10000000000000853,6777,0,60,90
0.09999999999999432,6777,1,60,90
0.09999999999999432,6777,2,60,90
0.09999999999999432,6777,3,60,90
0.09999999999999432,6777,4,60,90
0.10000000000000853,6777,5,60,90
0.09999999999999432,6777,6,60,90
0.09999999999999432,6777,7,60,90
0.10000000000000853,6777,8,60,90
0.10000000000000853,6777,9,60,90
0.09999999999999432,6777,10,60,90
0.10000000000000853,6777,11,60,90
0.09999999999999432,6777,12,60,90
0.10000000000000853,6777,13,60,90
0.10000000000000853,6777,14,60,90
0.10000000000000853,6777,15,60,90
0.10000000000000853,6778,0,60,90
0.09999999999999432,6778,1,60,90
0.09999999999999432,6778,2,60,90
0.09999999999999432,6778,3,60,90
0.09999999999999432,6778,4,60,90
0.09999999999999432,6778,5,60,90
0.09999999999999432,6778,6,60,90
0.10000000000000853,6778,7,60,90
0.09999999999999432,6778,8,60,90
0.10000000000000853,6778,9,60,90
0.10000000000000853,6778,10,60,90
0.10000000000000853,6778,11,60,90
0.09999999999999432,6778,12,60,90
0.10000000000000853,6778,13,60,90
0.09999999999999432,6778,14,60,90
0.09999999999999432,6778,15,60,90
0.09999999999999432,6779,0,60,90
0.10000000000000853,6779,1,60,90
0.09999999999999432,6779,2,60,90
0.09999999999999432,6779,3,60,90
0.10000000000000853,6779,4,60,90
0.10000000000000853,6779,5,60,90
0.10000000000000853,6779,6,60,90
0.10000000000000853,6779,7,60,90
0.09999999999999432,6779,8,60,90
0.09999999999999432,6779,9,60,90
0.10000000000000853,6779,10,60,90
0.09999999999999432,6779,11,60,90
0.09999999999999432,6779,12,60,90
0.10000000000000853,6779,13,60,90
0.09999999999999432,6779,14,60,90
0.09999999999999432,6779,15,60,90
0.09999999999999432,6780,0,60,90
0.10000000000002274,6780,1,60,90
0.10000000000002274,6780,2,60,90
0.09999999999999432,6780,3,60,90
0.10000000000002274,6780,4,60,90
0.10000000000002274,6780,5,60,90
0.10000000000002274,6780,6,60,90
0.09999999999999432,6780,7,60,90
0.09999999999999432,6780,8,60,90
0.09999999999999432,6780,9,60,90
0.09999999999999432,6780,10,60,90
0.10000000000002274,6780,11,60,90
0.09999999999999432,6780,12,60,90
0.10000000000002274,6780,13,60,90
0.09999999999999432,6780,14,60,90
0.09999999999999432,6780,15,60,90
0.09999999999999432,6781,0,60,90
0.09999999999999432,6781,1,60,90
0.10000000000002274,6781,2,60,90
0.09999999999999432,6781,3,60,90
0.09999999999999432,6781,4,60,90
0.10000000000002274,6781,5,60,90
0.10000000000002274,6781,6,60,90
0.09999999999999432,6781,7,60,90
0.10000000000002274,6781,8,60,90
0.09999999999999432,6781,9,60,90
0.09999999999999432,6781,10,60,90
0.10000000000002274,6781,11,60,90
0.09999999999999432,6781,12,60,90
0.09999999999999432,6781,13,60,90
0.10000000000002274,6781,14,60,90
0.09999999999999432,6781,15,60,90
0.09999999999999432,6782,0,60,90
0.10000000000002274,6782,1,60,90
0.09999999999999432,6782,2,60,90
0.09999999999999432,6782,3,60,90
0.09999999999999432,6782,4,60,90
0.09999999999999432,6782,5,60,90
0.09999999999999432,6782,6,60,90
0.09999999999999432,6782,7,60,90
0.10000000000002274,6782,8,60,90
0.09999999999999432,6782,9,60,90
0.09999999999999432,6782,10,60,90
0.09999999999999432,6782,11,60,90
0.10000000000002274,6782,12,60,90
0.09999999999999432,6782,13,60,90
0.09999999999999432,6782,14,60,90
0.09999999999999432,6782,15,60,90
0.09999999999999432,6783,0,60,90
0.10000000000002274,6783,1,60,90
0.09999999999999432,6783,2,60,90
0.09999999999999432,6783,3,60,90
0.09999999999999432,6783,4,60,90
0.10000000000002274,6783,5,60,90
0.09999999999999432,6783,6,60,90
0.10000000000002274,6783,7,60,90
0.09999999999999432,6783,8,60,90
0.09999999999999432,6783,9,60,90
0.09999999999999432,6783,10,60,90
0.09999999999999432,6783,11,60,90
0.09999999999999432,6783,12,60,90
0.09999999999999432,6783,13,60,90
0.10000000000002274,6783,14,60,90
0.09999999999999432,6783,15,60,90
0.09999999999999432,6784,0,60,90
0.10000000000002274,6784,1,60,90
0.09999999999999432,6784,2,60,90
0.10000000000002274,6784,3,60,90
0.09999999999999432,6784,4,60,90
0.09999999999999432,6784,5,60,90
0.09999999999999432,6784,6,60,90
0.09999999999999432,6784,7,60,90
0.09999999999999432,6784,8,60,90
0.10000000000002274,6784,9,60,90
0.10000000000002274,6784,10,60,90
0.09999999999999432,6784,11,60,90
0.09999999999999432,6784,12,60,90
0.09999999999999432,6784,13,60,90
0.09999999999999432,6784,14,60,90
0.09999999999999432,6784,15,60,90
0.10000000000002274,6785,0,60,90
0.10000000000002274,6785,1,60,90
0.09999999999999432,6785,2,60,90
0.09999999999999432,6785,3,60,90
0.09999999999999432,6785,4,60,90
0.09999999999999432,6785,5,60,90
0.09999999999999432,6785,6,60,90
0.09999999999999432,6785,7,60,90
0.09999999999999432,6785,8,60,90
0.09999999999999432,6785,9,60,90
0.10000000000002274,6785,10,60,90
0.09999999999999432,6785,11,60,90
0.09999999999999432,6785,12,60,90
0.09999999999999432,6785,13,60,90
0.09999999999999432,6785,14,60,90
0.09999999999999432,6785,15,60,90
0.09999999999999432,6786,0,60,90
0.10000000000002274,6786,1,60,90
0.09999999999999432,6786,2,60,90
0.09999999999999432,6786,3,60,90
0.10000000000002274,6786,4,60,90
0.09999999999999432,6786,5,60,90
0.09999999999999432,6786,6,60,90
0.09999999999999432,6786,7,60,90
0.09999999999999432,6786,8,60,90
0.09999999999999432,6786,9,60,90
0.09999999999999432,6786,10,60,90
0.10000000000002274,6786,11,60,90
0.10000000000002274,6786,12,60,90
0.09999999999999432,6786,13,60,90
0.09999999999999432,6786,14,60,90
0.09999999999999432,6786,15,60,90
0.09999999999999432,6787,0,60,90
0.09999999999999432,6787,1,60,90
0.10000000000002274,6787,2,60,90
0.10000000000002274,6787,3,60,90
0.09999999999999432,6787,4,60,90
0.09999999999999432,6787,5,60,90
0.09999999999999432,6787,6,60,90
0.09999999999999432,6787,7,60,90
0.09999999999999432,6787,8,60,90
0.09999999999999432,6787,9,60,90
0.10000000000002274,6787,10,60,90
0.09999999999999432,6787,11,60,90
0.09999999999999432,6787,12,60,90
0.09999999999999432,6787,13,60,90
0.09999999999999432,6787,14,60,90
0.09999999999999432,6787,15,60,90
0.09999999999999432,6788,0,60,90
0.09999999999999432,6788,1,60,90
0.09999999999999432,6788,2,60,90
0.10000000000002274,6788,3,60,90
0.10000000000002274,6788,4,60,90
0.09999999999999432,6788,5,60,90
0.09999999999999432,6788,6,60,90
0.09999999999999432,6788,7,60,90
0.09999999999999432,6788,8,60,90
0.09999999999999432,6788,9,60,90
0.09999999999999432,6788,10,60,90
0.10000000000002274,6788,11,60,90
0.09999999999999432,6788,12,60,90
0.10000000000002274,6788,13,60,90
0.10000000000002274,6788,14,60,90
0.09999999999999432,6788,15,60,90
0.09999999999999432,6789,0,60,90
0.09999999999999432,6789,1,60,90
0.09999999999999432,6789,2,60,90
0.09999999999999432,6789,3,60,90
0.10000000000002274,6789,4,60,90
0.10000000000002274,6789,5,60,90
0.09999999999999432,6789,6,60,90
0.09999999999999432,6789,7,60,90
0.09999999999999432,6789,8,60,90
0.09999999999999432,6789,9,60,90
0.09999999999999432,6789,10,60,90
0.09999999999999432,6789,11,60,90
0.09999999999999432,6789,12,60,90
0.09999999999999432,6789,13,60,90
0.09999999999999432,6789,14,60,90
0.09999999999999432,6789,15,60,90
0.09999999999999432,6790,0,60,90
0.09999999999999432,6790,1,60,90
0.09999999999999432,6790,2,60,90
0.09999999999999432,6790,3,60,90
0.10000000000002274,6790,4,60,90
0.09999999999999432,6790,5,60,90
0.10000000000002274,6790,6,60,90
0.09999999999999432,6790,7,60,90
0.09999999999999432,6790,8,60,90
0.09999999999999432,6790,9,60,90
0.09999999999999432,6790,10,60,90
0.10000000000002274,6790,11,60,90
0.09999999999999432,6790,12,60,90
0.10000000000002274,6790,13,60,90
0.09999999999999432,6790,14,60,90
0.10000000000002274,6790,15,60,90
0.09999999999999432,6791,0,60,90
0.09999999999999432,6791,1,60,90
0.09999999999999432,6791,2,60,90
0.10000000000002274,6791,3,60,90
0.09999999999999432,6791,4,60,90
0.09999999999999432,6791,5,60,90
0.09999999999999432,6791,6,60,90
0.09999999999999432,6791,7,60,90
0.09999999999999432,6791,8,60,90
0.09999999999999432,6791,9,60,90
0.09999999999999432,6791,10,60,90
0.09999999999999432,6791,11,60,90
0.09999999999999432,6791,12,60,90
0.10000000000002274,6791,13,60,90
0.09999999999999432,6791,14,60,90
0.09999999999999432,6791,15,60,90
0.09999999999999432,6792,0,60,90
0.10000000000002274,6792,1,60,90
0.09999999999999432,6792,2,60,90
0.09999999999999432,6792,3,60,90
0.09999999999999432,6792,4,60,90
0.10000000000002274,6792,5,60,90
0.09999999999999432,6792,6,60,90
0.09999999999999432,6792,7,60,90
0.09999999999999432,6792,8,60,90
0.10000000000002274,6792,9,60,90
0.09999999999999432,6792,10,60,90
0.10000000000002274,6792,11,60,90
0.09999999999999432,6792,12,60,90
0.09999999999999432,6792,13,60,90
0.09999999999999432,6792,14,60,90
0.09999999999999432,6792,15,60,90
0.09999999999999432,6793,0,60,90
0.10000000000002274,6793,1,60,90
0.09999999999999432,6793,2,60,90
0.09999999999999432,6793,3,60,90
0.09999999999999432,6793,4,60,90
0.09999999999999432,6793,5,60,90
0.0022727272727252057,6793,6,60,90
0.10000000000002274,6793,7,60,90
0.09999999999999432,6793,8,60,90
0.09999999999999432,6793,9,60,90
0.09999999999999432,6793,10,60,90
0.09999999999999432,6793,11,60,90
0.09999999999999432,6793,12,60,90
0.09999999999999432,6793,13,60,90
0.09999999999999432,6793,14,60,90
0.09999999999999432,6793,15,60,90
0.09999999999999432,6794,0,60,90
0.09999999999999432,6794,1,60,90
0.09999999999999432,6794,2,60,90
0.09999999999999432,6794,3,60,90
0.09999999999999432,6794,4,60,90
0.09999999999999432,6794,5,60,90
0.09999999999999432,6794,6,60,90
0.09999999999999432,6794,7,60,90
0.09999999999999432,6794,8,60,90
0.10000000000002274,6794,9,60,90
0.09999999999999432,6794,10,60,90
0.004545454545450411,6794,11,60,90
0.09999999999999432,6794,12,60,90
0.10000000000002274,6794,13,60,90
0.09999999999999432,6794,14,60,90
0.10000000000002274,6794,15,60,90
0.09999999999999432,6795,0,60,90
0.09999999999999432,6795,1,60,90
0.09999999999999432,6795,2,60,90
0.10000000000002274,6795,3,60,90
0.09999999999999432,6795,4,60,90
0.09999999999999432,6795,5,60,90
0.10000000000002274,6795,6,60,90
0.09999999999999432,6795,7,60,90
0.09999999999999432,6795,8,60,90
0.09999999999999432,6795,9,60,90
0.09999999999999432,6795,10,60,90
0.09999999999999432,6795,11,60,90
0.09999999999999432,6795,12,60,90
0.09999999999999432,6795,13,60,90
0.09999999999999432,6795,14,60,90
0.09999999999999432,6795,15,60,90
0.09999999999999432,6796,0,60,90
0.09999999999999432,6796,1,60,90
0.09999999999999432,6796,2,60,90
0.056818181818186986,6796,3,60,90
0.09999999999999999,6796,4,60,90
0.04772727272727273,6796,5,60,90
0.10000000000000003,6796,6,60,90
0.09999999999999998,6796,7,60,90
0.09999999999999987,6796,8,60,90
0.09999999999999987,6796,9,60,90
0.10000000000000009,6796,10,60,90
0.06818181818181812,6796,11,60,90
0.004545454545454408,6796,12,60,90
0.09999999999999964,6796,13,60,90
0.10000000000000009,6796,14,60,90
0.10000000000000009,6796,15,60,90
0.10000000000000009,6797,0,60,90
0.10000000000000009,6797,1,60,90
0.10000000000000009,6797,2,60,90
0.10000000000000053,6797,3,60,90
0.09999999999999964,6797,4,60,90
0.10000000000000053,6797,5,60,90
0.10000000000000053,6797,6,60,90
0.09999999999999964,6797,7,60,90
0.09999999999999964,6797,8,60,90
0.09999999999999964,6797,9,60,90
0.09999999999999964,6797,10,60,90
0.09999999999999964,6797,11,60,90
0.10000000000000053,6797,12,60,90
0.10000000000000053,6797,13,60,90
0.10000000000000053,6797,14,60,90
0.09999999999999964,6797,15,60,90
0.09999999999999964,6798,0,60,90
0.10000000000000053,6798,1,60,90
0.09999999999999964,6798,2,60,90
0.09999999999999964,6798,3,60,90
0.09999999999999964,6798,4,60,90
0.013636363636363669,6798,5,60,90
0.10000000000000142,6798,6,60,90
0.09999999999999964,6798,7,60,90
0.09999999999999964,6798,8,60,90
0.09999999999999964,6798,9,60,90
0.09999999999999964,6798,10,60,90
0.09999999999999964,6798,11,60,90
0.09999999999999964,6798,12,60,90
0.09999999999999964,6798,13,60,90
0.09999999999999964,6798,14,60,90
0.09999999999999964,6798,15,60,90
0.09999999999999964,6799,0,60,90
0.09999999999999964,6799,1,60,90
0.10000000000000142,6799,2,60,90
0.09999999999999964,6799,3,60,90
0.09999999999999964,6799,4,60,90
0.09999999999999964,6799,5,60,90
0.09999999999999964,6799,6,60,90
0.09999999999999964,6799,7,60,90
0.09999999999999964,6799,8,60,90
0.09999999999999787,6799,9,60,90
0.10000000000000142,6799,10,60,90
0.10000000000000142,6799,11,60,90
0.10000000000000142,6799,12,60,90
0.09999999999999787,6799,13,60,90
0.10000000000000142,6799,14,60,90
0.09999999999999787,6799,15,60,90
0.10000000000000142,6800,0,60,90
0.10000000000000142,6800,1,60,90
0.10000000000000142,6800,2,60,90
0.10000000000000142,6800,3,60,90
0.10000000000000142,6800,4,60,90
0.09999999999999787,6800,5,60,90
0.09999999999999787,6800,6,60,90
0.09999999999999787,6800,7,60,90
0.10000000000000142,6800,8,60,90
0.10000000000000142,6800,9,60,90
0.10000000000000142,6800,10,60,90
0.10000000000000142,6800,11,60,90
0.10000000000000142,6800,12,60,90
0.09999999999999787,6800,13,60,90
0.09999999999999787,6800,14,60,90
0.10000000000000142,6800,15,60,90
0.10000000000000142,6801,0,60,90
0.10000000000000142,6801,1,60,90
0.10000000000000142,6801,2,60,90
0.10000000000000142,6801,3,60,90
0.10000000000000142,6801,4,60,90
0.09999999999999787,6801,5,60,90
0.09999999999999787,6801,6,60,90
0.09999999999999787,6801,7,60,90
0.09999999999999787,6801,8,60,90
0.10000000000000142,6801,9,60,90
0.09999999999999787,6801,10,60,90
0.10000000000000142,6801,11,60,90
0.10000000000000142,6801,12,60,90
0.10000000000000142,6801,13,60,90
0.09999999999999787,6801,14,60,90
0.10000000000000142,6801,15,60,90
0.09999999999999787,6802,0,60,90
0.09999999999999787,6802,1,60,90
0.10000000000000142,6802,2,60,90
0.10000000000000142,6802,3,60,90
0.10000000000000142,6802,4,60,90
0.09999999999999787,6802,5,60,90
0.09999999999999787,6802,6,60,90
0.09999999999999787,6802,7,60,90
0.10000000000000142,6802,8,60,90
0.09999999999999432,6802,9,60,90
0.10000000000000142,6802,10,60,90
0.10000000000000142,6802,11,60,90
0.10000000000000142,6802,12,60,90
0.10000000000000142,6802,13,60,90
0.09999999999999432,6802,14,60,90
0.10000000000000142,6802,15,60,90
0.10000000000000142,6803,0,60,90
0.09999999999999432,6803,1,60,90
0.10000000000000142,6803,2,60,90
0.10000000000000142,6803,3,60,90
0.10000000000000142,6803,4,60,90
0.09999999999999432,6803,5,60,90
0.09999999999999432,6803,6,60,90
0.10000000000000142,6803,7,60,90
0.10000000000000142,6803,8,60,90
0.10000000000000142,6803,9,60,90
0.10000000000000142,6803,10,60,90
0.10000000000000142,6803,11,60,90
0.09999999999999432,6803,12,60,90
0.10000000000000142,6803,13,60,90
0.10000000000000142,6803,14,60,90
0.10000000000000142,6803,15,60,90
0.10000000000000142,6804,0,60,90
0.10000000000000142,6804,1,60,90
0.10000000000000142,6804,2,60,90
0.10000000000000142,6804,3,60,90
0.10000000000000142,6804,4,60,90
0.06818181818182012,6804,5,60,90
0.10000000000000142,6804,6,60,90
0.10000000000000142,6804,7,60,90
0.10000000000000142,6804,8,60,90
0.10000000000000142,6804,9,60,90
0.10000000000000142,6804,10,60,90
0.10000000000000142,6804,11,60,90
0.10000000000000142,6804,12,60,90
0.10000000000000142,6804,13,60,90
0.10000000000000142,6804,14,60,90
0.10000000000000142,6804,15,60,90
0.10000000000000142,6805,0,60,90
0.10000000000000142,6805,1,60,90
0.09999999999999432,6805,2,60,90
0.09999999999999432,6805,3,60,90
0.10000000000000142,6805,4,60,90
0.10000000000000142,6805,5,60,90
0.10000000000000142,6805,6,60,90
0.10000000000000142,6805,7,60,90
0.10000000000000142,6805,8,60,90
0.10000000000000142,6805,9,60,90
0.10000000000000142,6805,10,60,90
0.10000000000000142,6805,11,60,90
0.09999999999999432,6805,12,60,90
0.10000000000000142,6805,13,60,90
0.09999999999999432,6805,14,60,90
0.09999999999999432,6805,15,60,90
0.10000000000000142,6806,0,60,90
0.10000000000000142,6806,1,60,90
0.09999999999999432,6806,2,60,90
0.10000000000000142,6806,3,60,90
0.10000000000000142,6806,4,60,90
0.10000000000000142,6806,5,60,90
0.10000000000000142,6806,6,60,90
0.10000000000000142,6806,7,60,90
0.09999999999999432,6806,8,60,90
0.10000000000000142,6806,9,60,90
0.10000000000000142,6806,10,60,90
0.10000000000000142,6806,11,60,90
0.10000000000000142,6806,12,60,90
0.10000000000000142,6806,13,60,90
0.10000000000000142,6806,14,60,90
0.10000000000000142,6806,15,60,90
0.09999999999999432,6807,0,60,90
0.09999999999999432,6807,1,60,90
0.09999999999999432,6807,2,60,90
0.09999999999999432,6807,3,60,90
0.09999999999999432,6807,4,60,90
0.09999999999999432,6807,5,60,90
0.09999999999999432,6807,6,60,90
0.10000000000000853,6807,7,60,90
0.09999999999999432,6807,8,60,90
0.10000000000000853,6807,9,60,90
0.09999999999999432,6807,10,60,90
0.10000000000000853,6807,11,60,90
0.09999999999999432,6807,12,60,90
0.10000000000000853,6807,13,60,90
0.09999999999999432,6807,14,60,90
0.10000000000000853,6807,15,60,90
0.09999999999999432,6808,0,60,90
0.10000000000000853,6808,1,60,90
0.09999999999999432,6808,2,60,90
0.09999999999999432,6808,3,60,90
0.10000000000000853,6808,4,60,90
0.10000000000000853,6808,5,60,90
0.09999999999999432,6808,6,60,90
0.10000000000000853,6808,7,60,90
0.10000000000000853,6808,8,60,90
0.09999999999999432,6808,9,60,90
0.09999999999999432,6808,10,60,90
0.10000000000000853,6808,11,60,90
0.09999999999999432,6808,12,60,90
0.10000000000000853,6808,13,60,90
0.09999999999999432,6808,14,60,90
0.10000000000000853,6808,15,60,90
0.09999999999999432,6809,0,60,90
0.10000000000000853,6809,1,60,90
0.09999999999999432,6809,2,60,90
0.10000000000000853,6809,3,60,90
0.09999999999999432,6809,4,60,90
0.10000000000000853,6809,5,60,90
0.09999999999999432,6809,6,60,90
0.10000000000000853,6809,7,60,90
0.10000000000000853,6809,8,60,90
0.09999999999999432,6809,9,60,90
0.10000000000000853,6809,10,60,90
0.10000000000000853,6809,11,60,90
0.09999999999999432,6809,12,60,90
0.10000000000000853,6809,13,60,90
0.09999999999999432,6809,14,60,90
0.09999999999999432,6809,15,60,90
0.09999999999999432,6810,0,60,90
0.10000000000000853,6810,1,60,90
0.09999999999999432,6810,2,60,90
0.10000000000000853,6810,3,60,90
0.10000000000000853,6810,4,60,90
0.09999999999999432,6810,5,60,90
0.09999999999999432,6810,6,60,90
0.10000000000000853,6810,7,60,90
0.09999999999999432,6810,8,60,90
0.09999999999999432,6810,9,60,90
0.09999999999999432,6810,10,60,90
0.09999999999999432,6810,11,60,90
0.10000000000000853,6810,12,60,90
0.06818181818182723,6810,13,60,90
0.09999999999999432,6810,14,60,90
0.10000000000000853,6810,15,60,90
0.10000000000000853,6811,0,60,90
0.10000000000000853,6811,1,60,90
0.09999999999999432,6811,2,60,90
0.09999999999999432,6811,3,60,90
0.10000000000000853,6811,4,60,90
0.09999999999999432,6811,5,60,90
0.09999999999999432,6811,6,60,90
0.09999999999999432,6811,7,60,90
0.09999999999999432,6811,8,60,90
0.09999999999999432,6811,9,60,90
0.09999999999999432,6811,10,60,90
0.09999999999999432,6811,11,60,90
0.09999999999999432,6811,12,60,90
0.10000000000000853,6811,13,60,90
0.10000000000000853,6811,14,60,90
0.09999999999999432,6811,15,60,90
0.09999999999999432,6812,0,60,90
0.09999999999999432,6812,1,60,90
0.10000000000000853,6812,2,60,90
0.10000000000000853,6812,3,60,90
0.09999999999999432,6812,4,60,90
0.10000000000000853,6812,5,60,90
0.10000000000000853,6812,6,60,90
0.09999999999999432,6812,7,60,90
0.10000000000000853,6812,8,60,90
0.09999999999999432,6812,9,60,90
0.10000000000000853,6812,10,60,90
0.10000000000000853,6812,11,60,90
0.09999999999999432,6812,12,60,90
0.10000000000000853,6812,13,60,90
0.09999999999999432,6812,14,60,90
0.10000000000000853,6812,15,60,90
0.09999999999999432,6813,0,60,90
0.10000000000000853,6813,1,60,90
0.09999999999999432,6813,2,60,90
0.10000000000000853,6813,3,60,90
0.10000000000000853,6813,4,60,90
0.09999999999999432,6813,5,60,90
0.10000000000000853,6813,6,60,90
0.10000000000000853,6813,7,60,90
0.09999999999999432,6813,8,60,90
0.10000000000000853,6813,9,60,90
0.10000000000000853,6813,10,60,90
0.09999999999999432,6813,11,60,90
0.10000000000000853,6813,12,60,90
0.09999999999999432,6813,13,60,90
0.10000000000000853,6813,14,60,90
0.09999999999999432,6813,15,60,90
0.09999999999999432,6814,0,60,90
0.10000000000000853,6814,1,60,90
0.10000000000000853,6814,2,60,90
0.10000000000000853,6814,3,60,90
0.09999999999999432,6814,4,60,90
0.09999999999999432,6814,5,60,90
0.09999999999999432,6814,6,60,90
0.09999999999999432,6814,7,60,90
0.09999999999999432,6814,8,60,90
0.10000000000000853,6814,9,60,90
0.09999999999999432,6814,10,60,90
0.10000000000000853,6814,11,60,90
0.10000000000000853,6814,12,60,90
0.06818181818182723,6814,13,60,90
0.10000000000000853,6814,14,60,90
0.09999999999999432,6814,15,60,90
0.09999999999999432,6815,0,60,90
0.09999999999999432,6815,1,60,90
0.09999999999999432,6815,2,60,90
0.09999999999999432,6815,3,60,90
0.10000000000000853,6815,4,60,90
0.09999999999999432,6815,5,60,90
0.09999999999999432,6815,6,60,90
0.09999999999999432,6815,7,60,90
0.10000000000000853,6815,8,60,90
0.09999999999999432,6815,9,60,90
0.09999999999999432,6815,10,60,90
0.09999999999999432,6815,11,60,90
0.10000000000000853,6815,12,60,90
0.09999999999999432,6815,13,60,90
0.10000000000000853,6815,14,60,90
0.09999999999999432,6815,15,60,90
0.09999999999999432,6816,0,60,90
0.09999999999999432,6816,1,60,90
0.09999999999999432,6816,2,60,90
0.09999999999999432,6816,3,60,90
0.09999999999999432,6816,4,60,90
0.09999999999999432,6816,5,60,90
0.10000000000000853,6816,6,60,90
0.10000000000000853,6816,7,60,90
0.09999999999999432,6816,8,60,90
0.09999999999999432,6816,9,60,90
0.09999999999999432,6816,10,60,90
0.10000000000000853,6816,11,60,90
0.09999999999999432,6816,12,60,90
0.09999999999999432,6816,13,60,90
0.10000000000000853,6816,14,60,90
0.09999999999999432,6816,15,60,90
0.09999999999999432,6817,0,60,90
0.09999999999999432,6817,1,60,90
0.10000000000002274,6817,2,60,90
0.09999999999999432,6817,3,60,90
0.09999999999999432,6817,4,60,90
0.09999999999999432,6817,5,60,90
0.09999999999999432,6817,6,60,90
0.09999999999999432,6817,7,60,90
0.10000000000002274,6817,8,60,90
0.10000000000002274,6817,9,60,90
0.09999999999999432,6817,10,60,90
0.09999999999999432,6817,11,60,90
0.10000000000002274,6817,12,60,90
0.09999999999999432,6817,13,60,90
0.09999999999999432,6817,14,60,90
0.10000000000002274,6817,15,60,90
0.09999999999999432,6818,0,60,90
0.09999999999999432,6818,1,60,90
0.10000000000002274,6818,2,60,90
0.10000000000002274,6818,3,60,90
0.09999999999999432,6818,4,60,90
0.09999999999999432,6818,5,60,90
0.10000000000002274,6818,6,60,90
0.09999999999999432,6818,7,60,90
0.09999999999999432,6818,8,60,90
0.10000000000002274,6818,9,60,90
0.09999999999999432,6818,10,60,90
0.09999999999999432,6818,11,60,90
0.09999999999999432,6818,12,60,90
0.09999999999999432,6818,13,60,90
0.09999999999999432,6818,14,60,90
0.09999999999999432,6818,15,60,90
0.10000000000002274,6819,0,60,90
0.10000000000002274,6819,1,60,90
0.09999999999999432,6819,2,60,90
0.09999999999999432,6819,3,60,90
0.09999999999999432,6819,4,60,90
0.09999999999999432,6819,5,60,90
0.10000000000002274,6819,6,60,90
0.10000000000002274,6819,7,60,90
0.09999999999999432,6819,8,60,90
0.10000000000002274,6819,9,60,90
0.10000000000002274,6819,10,60,90
0.09999999999999432,6819,11,60,90
0.09999999999999432,6819,12,60,90
0.10000000000002274,6819,13,60,90
0.09999999999999432,6819,14,60,90
0.09999999999999432,6819,15,60,90
0.10000000000002274,6820,0,60,90
0.09999999999999432,6820,1,60,90
0.09999999999999432,6820,2,60,90
0.09999999999999432,6820,3,60,90
0.09999999999999432,6820,4,60,90
0.09999999999999432,6820,5,60,90
0.10000000000002274,6820,6,60,90
0.09999999999999432,6820,7,60,90
0.09999999999999432,6820,8,60,90
0.09999999999999432,6820,9,60,90
0.09999999999999432,6820,10,60,90
0.09999999999999432,6820,11,60,90
0.10000000000002274,6820,12,60,90
0.09999999999999432,6820,13,60,90
0.10000000000002274,6820,14,60,90
0.09999999999999432,6820,15,60,90
0.09999999999999432,6821,0,60,90
0.09999999999999432,6821,1,60,90
0.10000000000002274,6821,2,60,90
0.09999999999999432,6821,3,60,90
0.09999999999999432,6821,4,60,90
0.10000000000002274,6821,5,60,90
0.09999999999999432,6821,6,60,90
0.09999999999999432,6821,7,60,90
0.09999999999999432,6821,8,60,90
0.09999999999999432,6821,9,60,90
0.09999999999999432,6821,10,60,90
0.09999999999999432,6821,11,60,90
0.09999999999999432,6821,12,60,90
0.09999999999999432,6821,13,60,90
0.09999999999999432,6821,14,60,90
0.09999999999999432,6821,15,60,90
0.09999999999999432,6822,0,60,90
0.09999999999999432,6822,1,60,90
0.10000000000002274,6822,2,60,90
0.09999999999999432,6822,3,60,90
0.09999999999999432,6822,4,60,90
0.09999999999999432,6822,5,60,90
0.09999999999999432,6822,6,60,90
0.10000000000002274,6822,7,60,90
0.09999999999999432,6822,8,60,90
0.10000000000002274,6822,9,60,90
0.09999999999999432,6822,10,60,90
0.09999999999999432,6822,11,60,90
0.09999999999999432,6822,12,60,90
0.09999999999999432,6822,13,60,90
0.09999999999999432,6822,14,60,90
0.09999999999999432,6822,15,60,90
0.03636363636363171,6823,0,60,90
0.09999999999999432,6823,1,60,90
0.09999999999999432,6823,2,60,90
0.10000000000002274,6823,3,60,90
0.10000000000002274,6823,4,60,90
0.09999999999999432,6823,5,60,90
0.10000000000002274,6823,6,60,90
0.09999999999999432,6823,7,60,90
0.09999999999999432,6823,8,60,90
0.09999999999999432,6823,9,60,90
0.09999999999999432,6823,10,60,90
0.09999999999999432,6823,11,60,90
0.09999999999999432,6823,12,60,90
0.09999999999999432,6823,13,60,90
0.10000000000002274,6823,14,60,90
0.09999999999999432,6823,15,60,90
0.09999999999999432,6824,0,60,90
0.10000000000002274,6824,1,60,90
0.09999999999999432,6824,2,60,90
0.09999999999999432,6824,3,60,90
0.09999999999999432,6824,4,60,90
0.09999999999999432,6824,5,60,90
0.09999999999999432,6824,6,60,90
0.09999999999999432,6824,7,60,90
0.09999999999999432,6824,8,60,90
0.09999999999999432,6824,9,60,90
0.09999999999999432,6824,10,60,90
0.09999999999999432,6824,11,60,90
0.024999999999977263,6824,12,60,90
0.09999999999999432,6824,13,60,90
0.09999999999999432,6824,14,60,90
0.09999999999999432,6824,15,60,90
0.09999999999999432,6825,0,60,90
0.10000000000002274,6825,1,60,90
0.09999999999999432,6825,2,60,90
0.09999999999999432,6825,3,60,90
0.09999999999999432,6825,4,60,90
0.10000000000002274,6825,5,60,90
0.09999999999999432,6825,6,60,90
0.09999999999999432,6825,7,60,90
0.06818181818181301,6825,8,60,90
0.09999999999999432,6825,9,60,90
0.09999999999999432,6825,10,60,90
0.09999999999999432,6825,11,60,90
0.09999999999999432,6825,12,60,90
0.09999999999999432,6825,13,60,90
0.09999999999999432,6825,14,60,90
0.09999999999999432,6825,15,60,90
0.09999999999999432,6826,0,60,90
0.10000000000002274,6826,1,60,90
0.09999999999999432,6826,2,60,90
0.09999999999999432,6826,3,60,90
0.10000000000002274,6826,4,60,90
0.09999999999999432,6826,5,60,90
0.10000000000002274,6826,6,60,90
0.10000000000002274,6826,7,60,90
0.10000000000002274,6826,8,60,90
0.09999999999999432,6826,9,60,90
0.09999999999999432,6826,10,60,90
0.09999999999999432,6826,11,60,90
0.09999999999999432,6826,12,60,90
0.09999999999999432,6826,13,60,90
0.10000000000002274,6826,14,60,90
0.09999999999999432,6826,15,60,90
0.09999999999999432,6827,0,60,90
0.09999999999999432,6827,1,60,90
0.09999999999999432,6827,2,60,90
0.09999999999999432,6827,3,60,90
0.10000000000002274,6827,4,60,90
0.01590909090910486,6827,5,60,90
0.06818181818181301,6827,6,60,90
0.09999999999999432,6827,7,60,90
0.09999999999999432,6827,8,60,90
0.09999999999999432,6827,9,60,90
0.09999999999999432,6827,10,60,90
0.09999999999999432,6827,11,60,90
0.09999999999999432,6827,12,60,90
0.09999999999999432,6827,13,60,90
0.09999999999999432,6827,14,60,90
0.09999999999999432,6827,15,60,90
0.09999999999999432,6828,0,60,90
0.09999999999999964,6828,1,60,90
0.09999999999999964,6828,2,60,90
0.09999999999999964,6828,3,60,90
0.10000000000000142,6828,4,60,90
0.10000000000000142,6828,5,60,90
0.10000000000000142,6828,6,60,90
0.10000000000000142,6828,7,60,90
0.10000000000000142,6828,8,60,90
0.10000000000000142,6828,9,60,90
0.10000000000000142,6828,10,60,90
0.10000000000000142,6828,11,60,90
0.09999999999999787,6828,12,60,90
0.10000000000000497,6828,13,60,90
0.10000000000000142,6828,14,60,90
0.10000000000000142,6828,15,60,90
0.09999999999999432,6829,0,60,90
0.10000000000000142,6829,1,60,90
0.10000000000000142,6829,2,60,90
0.10000000000000142,6829,3,60,90
0.10000000000000142,6829,4,60,90
0.10000000000000142,6829,5,60,90
0.10000000000000142,6829,6,60,90
0.10000000000000142,6829,7,60,90
0.10000000000000142,6829,8,60,90
0.09999999999999432,6829,9,60,90
0.09999999999999432,6829,10,60,90
0.10000000000000142,6829,11,60,90
0.09999999999999432,6829,12,60,90
0.10000000000000142,6829,13,60,90
0.10000000000000142,6829,14,60,90
0.10000000000000142,6829,15,60,90
0.10000000000000142,6830,0,60,90
0.09999999999999432,6830,1,60,90
0.10000000000000142,6830,2,60,90
0.10000000000000142,6830,3,60,90
0.10000000000000142,6830,4,60,90
0.10000000000000142,6830,5,60,90
0.10000000000000142,6830,6,60,90
0.09999999999999432,6830,7,60,90
0.10000000000000142,6830,8,60,90
0.10000000000000142,6830,9,60,90
0.10000000000000142,6830,10,60,90
0.10000000000000142,6830,11,60,90
0.10000000000000142,6830,12,60,90
0.10000000000000142,6830,13,60,90
0.10000000000000142,6830,14,60,90
0.10000000000000142,6830,15,60,90
0.10000000000000142,6831,0,60,90
0.10000000000000142,6831,1,60,90
0.10000000000000142,6831,2,60,90
0.10000000000000142,6831,3,60,90
0.10000000000000142,6831,4,60,90
0.10000000000000142,6831,5,60,90
0.10000000000000142,6831,6,60,90
0.10000000000000142,6831,7,60,90
0.09999999999999998,6831,8,60,90
0.10000000000000009,6831,9,60,90
0.10000000000000009,6831,10,60,90
0.10000000000000053,6831,11,60,90
0.09999999999999964,6831,12,60,90
0.09999999999999964,6831,13,60,90
0.09999999999999964,6831,14,60,90
0.09999999999999964,6831,15,60,90
0.09999999999999964,6832,0,60,90
0.09999999999999964,6832,1,60,90
0.09999999999999964,6832,2,60,90
0.09999999999999964,6832,3,60,90
0.10000000000000142,6832,4,60,90
0.09999999999999787,6832,5,60,90
0.09999999999999787,6832,6,60,90
0.09999999999999787,6832,7,60,90
0.09999999999999787,6832,8,60,90
0.10000000000000142,6832,9,60,90
0.09999999999999787,6832,10,60,90
0.10000000000000142,6832,11,60,90
0.10000000000000142,6832,12,60,90
0.10000000000000142,6832,13,60,90
0.09999999999999787,6832,14,60,90
0.10000000000000853,6832,15,60,90
0.09999999999999432,6833,0,60,90
0.09999999999999432,6833,1,60,90
0.10000000000000853,6833,2,60,90
0.09999999999999432,6833,3,60,90
0.09999999999999432,6833,4,60,90
0.10000000000000853,6833,5,60,90
0.10000000000000853,6833,6,60,90
0.09999999999999432,6833,7,60,90
0.09999999999999432,6833,8,60,90
0.10000000000000853,6833,9,60,90
0.09999999999999432,6833,10,60,90
0.09999999999999432,6833,11,60,90
0.10000000000000853,6833,12,60,90
0.09999999999999432,6833,13,60,90
0.10000000000000853,6833,14,60,90
0.10000000000000853,6833,15,60,90
0.10000000000000853,6834,0,60,90
0.09999999999999432,6834,1,60,90
0.10000000000000853,6834,2,60,90
0.10000000000000853,6834,3,60,90
0.10000000000000853,6834,4,60,90
0.09999999999999432,6834,5,60,90
0.10000000000000853,6834,6,60,90
0.09999999999999432,6834,7,60,90
0.09999999999999432,6834,8,60,90
0.09999999999999432,6834,9,60,90
0.10000000000000853,6834,10,60,90
0.09999999999999432,6834,11,60,90
0.09999999999999432,6834,12,60,90
0.09999999999999432,6834,13,60,90
0.09999999999999432,6834,14,60,90
0.09999999999999432,6834,15,60,90
0.10000000000000853,6835,0,60,90
0.09999999999999432,6835,1,60,90
0.09999999999999432,6835,2,60,90
0.09999999999999432,6835,3,60,90
0.10000000000000853,6835,4,60,90
0.09999999999999432,6835,5,60,90
0.09999999999999432,6835,6,60,90
0.09999999999999432,6835,7,60,90
0.09999999999999432,6835,8,60,90
0.09999999999999432,6835,9,60,90
0.10000000000000853,6835,10,60,90
0.10000000000000853,6835,11,60,90
0.09999999999999432,6835,12,60,90
0.09999999999999432,6835,13,60,90
0.09999999999999432,6835,14,60,90
0.09999999999999432,6835,15,60,90
0.09999999999999432,6836,0,60,90
0.09999999999999432,6836,1,60,90
0.10000000000002274,6836,2,60,90
0.09999999999999432,6836,3,60,90
0.09999999999999432,6836,4,60,90
0.09999999999999432,6836,5,60,90
0.09999999999999432,6836,6,60,90
0.09999999999999432,6836,7,60,90
0.09999999999999432,6836,8,60,90
0.10000000000002274,6836,9,60,90
0.09999999999999432,6836,10,60,90
0.10000000000002274,6836,11,60,90
0.09999999999999432,6836,12,60,90
0.09999999999999432,6836,13,60,90
0.09999999999999432,6836,14,60,90
0.09999999999999432,6836,15,60,90
0.09999999999999432,6837,0,60,90
0.09999999999999432,6837,1,60,90
0.09999999999999432,6837,2,60,90
0.09999999999999432,6837,3,60,90
0.09999999999999432,6837,4,60,90
0.10000000000002274,6837,5,60,90
0.10000000000002274,6837,6,60,90
0.09999999999999432,6837,7,60,90
0.09999999999999432,6837,8,60,90
0.09999999999999432,6837,9,60,90
0.09999999999999432,6837,10,60,90
0.09999999999999432,6837,11,60,90
0.09999999999999432,6837,12,60,90
0.10000000000002274,6837,13,60,90
0.10000000000002274,6837,14,60,90
0.09999999999999432,6837,15,60,90
0.09999999999999432,6838,0,60,90
0.09999999999999432,6838,1,60,90
0.09999999999999432,6838,2,60,90
0.09999999999999432,6838,3,60,90
0.09999999999999432,6838,4,60,90
0.09999999999999432,6838,5,60,90
0.10000000000002274,6838,6,60,90
0.09999999999999432,6838,7,60,90
0.09999999999999432,6838,8,60,90
0.10000000000002274,6838,9,60,90
0.10000000000002274,6838,10,60,90
0.09999999999999432,6838,11,60,90
0.09999999999999432,6838,12,60,90
0.09999999999999432,6838,13,60,90
0.09999999999999432,6838,14,60,90
0.09999999999999432,6838,15,60,90
0.09999999999999432,6839,0,60,90
0.10000000000002274,6839,1,60,90
0.10000000000002274,6839,2,60,90
0.09999999999999432,6839,3,60,90
0.09999999999999432,6839,4,60,90
0.09999999999999432,6839,5,60,90
0.09999999999999432,6839,6,60,90
0.09999999999999432,6839,7,60,90
0.09999999999999432,6839,8,60,90
0.10000000000002274,6839,9,60,90
0.10000000000002274,6839,10,60,90
0.09999999999999432,6839,11,60,90
0.10000000000002274,6839,12,60,90
0.09999999999999432,6839,13,60,90
0.09999999999999432,6839,14,60,90
0.09999999999999432,6839,15,60,90
0.09999999999999432,6840,0,60,90
0.09999999999999432,6840,1,60,90
0.09999999999999432,6840,2,60,90
0.09999999999999432,6840,3,60,90
0.09999999999999432,6840,4,60,90
0.10000000000002274,6840,5,60,90
0.09999999999999432,6840,6,60,90
0.09999999999999432,6840,7,60,90
0.09999999999999432,6840,8,60,90
0.09999999999999432,6840,9,60,90
0.09999999999999432,6840,10,60,90
0.09999999999999432,6840,11,60,90
0.09999999999999432,6840,12,60,90
0.10000000000002274,6840,13,60,90
0.10000000000002274,6840,14,60,90
0.09999999999999432,6840,15,60,90
0.09999999999999432,6841,0,60,90
0.09999999999999432,6841,1,60,90
0.09999999999999432,6841,2,60,90
0.09999999999999432,6841,3,60,90
0.09999999999999432,6841,4,60,90
0.10000000000002274,6841,5,60,90
0.09999999999999432,6841,6,60,90
0.09999999999999432,6841,7,60,90
0.09999999999999432,6841,8,60,90
0.09999999999999432,6841,9,60,90
0.09999999999999432,6841,10,60,90
0.09999999999999432,6841,11,60,90
0.09999999999999432,6841,12,60,90
0.09999999999999432,6841,13,60,90
0.09999999999999432,6841,14,60,90
0.09999999999999432,6841,15,60,90
0.09999999999999432,6842,0,60,90
0.10000000000002274,6842,1,60,90
0.09999999999999432,6842,2,60,90
0.09999999999999432,6842,3,60,90
0.09999999999999432,6842,4,60,90
0.09999999999999432,6842,5,60,90
0.09999999999999432,6842,6,60,90
0.09999999999999432,6842,7,60,90
0.09999999999999432,6842,8,60,90
0.10000000000002274,6842,9,60,90
0.10000000000002274,6842,10,60,90
0.09999999999999432,6842,11,60,90
0.10000000000002274,6842,12,60,90
0.09999999999999432,6842,13,60,90
0.09999999999999432,6842,14,60,90
0.09999999999999432,6842,15,60,90
0.09999999999999432,6843,0,60,90
0.09999999999999432,6843,1,60,90
0.09999999999999432,6843,2,60,90
0.09999999999999432,6843,3,60,90
0.10000000000002274,6843,4,60,90
0.10000000000002274,6843,5,60,90
0.09999999999999432,6843,6,60,90
0.09999999999999432,6843,7,60,90
0.09999999999999432,6843,8,60,90
0.09999999999999432,6843,9,60,90
0.09999999999999432,6843,10,60,90
0.09999999999999432,6843,11,60,90
0.10000000000002274,6843,12,60,90
0.10000000000002274,6843,13,60,90
0.09999999999999432,6843,14,60,90
0.09999999999999432,6843,15,60,90
0.09999999999999432,6844,0,60,90
0.09999999999999432,6844,1,60,90
0.09999999999999432,6844,2,60,90
0.10000000000002274,6844,3,60,90
0.10000000000002274,6844,4,60,90
0.10000000000002274,6844,5,60,90
0.09999999999999432,6844,6,60,90
0.09999999999999432,6844,7,60,90
0.09999999999999432,6844,8,60,90
0.09999999999999432,6844,9,60,90
0.09999999999999432,6844,10,60,90
0.09999999999999432,6844,11,60,90
0.09999999999999432,6844,12,60,90
0.09999999999999432,6844,13,60,90
0.09999999999999432,6844,14,60,90
0.09999999999999432,6844,15,60,90
0.09999999999999432,6845,0,60,90
0.09999999999999432,6845,1,60,90
0.09999999999999432,6845,2,60,90
0.09999999999999432,6845,3,60,90
0.09999999999999432,6845,4,60,90
0.09999999999999432,6845,5,60,90
0.09999999999999787,6845,6,60,90
0.10000000000000142,6845,7,60,90
0.10000000000000142,6845,8,60,90
0.10000000000000142,6845,9,60,90
0.09999999999999787,6845,10,60,90
0.10000000000000142,6845,11,60,90
0.10000000000000142,6845,12,60,90
0.10000000000000142,6845,13,60,90
0.004545454545450411,6845,14,60,90
0.10000000000000142,6845,15,60,90
0.10000000000000142,6846,0,60,90
0.10000000000000142,6846,1,60,90
0.10000000000000142,6846,2,60,90
0.10000000000000142,6846,3,60,90
0.10000000000000142,6846,4,60,90
0.10000000000000142,6846,5,60,90
0.10000000000000142,6846,6,60,90
0.09999999999999432,6846,7,60,90
0.10000000000000142,6846,8,60,90
0.10000000000000142,6846,9,60,90
0.10000000000000142,6846,10,60,90
0.10000000000000142,6846,11,60,90
0.10000000000000142,6846,12,60,90
0.10000000000000142,6846,13,60,90
0.10000000000000142,6846,14,60,90
0.10000000000000142,6846,15,60,90
0.09999999999999432,6847,0,60,90
0.10000000000000142,6847,1,60,90
0.10000000000000142,6847,2,60,90
0.09999999999999432,6847,3,60,90
0.10000000000000142,6847,4,60,90
0.10000000000000142,6847,5,60,90
0.10000000000000142,6847,6,60,90
0.10000000000000142,6847,7,60,90
0.10000000000000142,6847,8,60,90
0.10000000000000142,6847,9,60,90
0.10000000000000142,6847,10,60,90
0.10000000000000142,6847,11,60,90
0.10000000000000142,6847,12,60,90
0.09999999999999432,6847,13,60,90
0.09999999999999432,6847,14,60,90
0.10000000000000142,6847,15,60,90
0.10000000000000142,6848,0,60,90
0.10000000000000142,6848,1,60,90
0.10000000000000142,6848,2,60,90
0.10000000000000142,6848,3,60,90
0.09999999999999432,6848,4,60,90
0.10000000000000142,6848,5,60,90
0.10000000000000142,6848,6,60,90
0.10000000000000142,6848,7,60,90
0.10000000000000142,6848,8,60,90
0.10000000000000142,6848,9,60,90
0.10000000000000142,6848,10,60,90
0.10000000000000142,6848,11,60,90
0.10000000000000142,6848,12,60,90
0.10000000000000142,6848,13,60,90
0.10000000000000142,6848,14,60,90
0.10000000000000142,6848,15,60,90
0.09999999999999432,6849,0,60,90
0.09999999999999432,6849,1,60,90
0.10000000000000142,6849,2,60,90
0.09999999999999432,6849,3,60,90
0.10000000000000142,6849,4,60,90
0.10000000000000142,6849,5,60,90
0.10000000000000142,6849,6,60,90
0.10000000000000142,6849,7,60,90
0.10000000000000142,6849,8,60,90
0.10000000000000853,6849,9,60,90
0.09999999999999432,6849,10,60,90
0.09999999999999432,6849,11,60,90
0.10000000000000853,6849,12,60,90
0.10000000000000853,6849,13,60,90
0.09999999999999432,6849,14,60,90
0.10000000000000853,6849,15,60,90
0.10000000000000853,6850,0,60,90
0.10000000000000853,6850,1,60,90
0.09999999999999432,6850,2,60,90
0.10000000000000853,6850,3,60,90
0.09999999999999432,6850,4,60,90
0.10000000000000853,6850,5,60,90
0.09999999999999432,6850,6,60,90
0.09999999999999432,6850,7,60,90
0.10000000000000853,6850,8,60,90
0.10000000000000853,6850,9,60,90
0.09999999999999432,6850,10,60,90
0.09999999999999432,6850,11,60,90
0.09999999999999432,6850,12,60,90
0.09999999999999432,6850,13,60,90
0.10000000000000853,6850,14,60,90
0.10000000000000853,6850,15,60,90
0.09999999999999432,6851,0,60,90
0.10000000000000853,6851,1,60,90
0.09999999999999432,6851,2,60,90
0.10000000000000853,6851,3,60,90
0.10000000000000853,6851,4,60,90
0.10000000000000853,6851,5,60,90
0.10000000000000853,6851,6,60,90
0.10000000000000853,6851,7,60,90
0.10000000000000853,6851,8,60,90
0.10000000000002274,6851,9,60,90
0.09999999999999432,6851,10,60,90
0.09999999999999432,6851,11,60,90
0.09999999999999432,6851,12,60,90
0.10000000000000142,6851,13,60,90
0.10000000000000142,6851,14,60,90
0.10000000000000142,6851,15,60,90
0.10000000000000142,6852,0,60,90
0.10000000000000142,6852,1,60,90
0.10000000000000142,6852,2,60,90
0.10000000000000142,6852,3,60,90
0.10000000000000142,6852,4,60,90
0.10000000000000142,6852,5,60,90
0.10000000000000142,6852,6,60,90
0.10000000000000142,6852,7,60,90
0.10000000000000142,6852,8,60,90
0.09999999999999432,6852,9,60,90
0.09999999999999432,6852,10,60,90
0.10000000000000853,6852,11,60,90
0.09999999999999432,6852,12,60,90
0.10000000000000853,6852,13,60,90
0.10000000000000853,6852,14,60,90
0.09999999999999432,6852,15,60,90
0.09999999999999432,6853,0,60,90
0.09999999999999432,6853,1,60,90
0.09999999999999432,6853,2,60,90
0.10000000000000853,6853,3,60,90
0.10000000000000853,6853,4,60,90
0.09999999999999432,6853,5,60,90
0.09999999999999432,6853,6,60,90
0.10000000000000853,6853,7,60,90
0.10000000000000853,6853,8,60,90
0.09999999999999432,6853,9,60,90
0.09999999999999432,6853,10,60,90
0.09999999999999432,6853,11,60,90
0.10000000000000853,6853,12,60,90
0.10000000000000853,6853,13,60,90
0.09999999999999432,6853,14,60,90
0.09999999999999432,6853,15,60,90
0.10000000000000853,6854,0,60,90
0.09999999999999432,6854,1,60,90
0.09999999999999432,6854,2,60,90
0.09999999999999432,6854,3,60,90
0.09999999999999432,6854,4,60,90
0.10000000000000853,6854,5,60,90
0.10000000000000853,6854,6,60,90
0.09999999999999432,6854,7,60,90
0.09999999999999432,6854,8,60,90
0.09999999999999432,6854,9,60,90
0.09999999999999432,6854,10,60,90
0.09999999999999432,6854,11,60,90
0.10000000000002274,6854,12,60,90
0.10000000000002274,6854,13,60,90
0.10000000000002274,6854,14,60,90
0.09999999999999432,6854,15,60,90
0.09999999999999432,6855,0,60,90
0.09999999999999432,6855,1,60,90
0.09999999999999432,6855,2,60,90
0.09999999999999432,6855,3,60,90
0.09999999999999432,6855,4,60,90
0.09999999999999432,6855,5,60,90
0.09999999999999432,6855,6,60,90
0.09999999999999432,6855,7,60,90
0.09999999999999432,6855,8,60,90
0.09999999999999432,6855,9,60,90
0.10000000000002274,6855,10,60,90
0.09999999999999432,6855,11,60,90
0.09999999999999432,6855,12,60,90
0.09999999999999432,6855,13,60,90
0.09999999999999432,6855,14,60,90
0.09999999999999432,6855,15,60,90
0.09999999999999432,6856,0,60,90
0.09999999999999432,6856,1,60,90
0.09999999999999432,6856,2,60,90
0.09999999999999432,6856,3,60,90
0.09999999999999432,6856,4,60,90
0.10000000000002274,6856,5,60,90
0.10000000000002274,6856,6,60,90
0.10000000000002274,6856,7,60,90
0.10000000000002274,6856,8,60,90
0.09999999999999432,6856,9,60,90
0.09999999999999432,6856,10,60,90
0.09999999999999432,6856,11,60,90
0.09999999999999432,6856,12,60,90
0.09999999999999432,6856,13,60,90
0.09999999999999432,6856,14,60,90
0.09999999999999432,6856,15,60,90
0.09999999999999432,6857,0,60,90
0.09999999999999432,6857,1,60,90
0.09999999999999432,6857,2,60,90
0.09999999999999432,6857,3,60,90
0.10000000000002274,6857,4,60,90
0.09999999999999432,6857,5,60,90
0.09999999999999432,6857,6,60,90
0.09999999999999432,6857,7,60,90
0.09999999999999432,6857,8,60,90
0.09999999999999432,6857,9,60,90
0.09999999999999432,6857,10,60,90
0.09999999999999432,6857,11,60,90
0.09999999999999432,6857,12,60,90
0.09999999999999432,6857,13,60,90
0.09999999999999432,6857,14,60,90
0.09999999999999432,6857,15,60,90
0.09999999999999432,6858,0,60,90
0.09999999999999432,6858,1,60,90
0.09999999999999432,6858,2,60,90
0.09999999999999432,6858,3,60,90
0.10000000000002274,6858,4,60,90
0.10000000000002274,6858,5,60,90
0.10000000000002274,6858,6,60,90
0.10000000000002274,6858,7,60,90
0.09999999999999432,6858,8,60,90
0.09999999999999432,6858,9,60,90
0.09999999999999432,6858,10,60,90
0.09999999999999432,6858,11,60,90
0.09999999999999432,6858,12,60,90
0.09999999999999432,6858,13,60,90
0.10000000000002274,6858,14,60,90
0.09999999999999432,6858,15,60,90
0.09999999999999432,6859,0,60,90
0.09999999999999432,6859,1,60,90
0.10000000000002274,6859,2,60,90
0.09999999999999432,6859,3,60,90
0.09999999999999432,6859,4,60,90
0.10000000000000142,6859,5,60,90
0.10000000000000142,6859,6,60,90
0.10000000000000142,6859,7,60,90
0.10000000000000142,6859,8,60,90
0.10000000000000142,6859,9,60,90
0.10000000000000142,6859,10,60,90
0.09999999999999432,6859,11,60,90
0.10000000000000142,6859,12,60,90
0.10000000000000142,6859,13,60,90
0.10000000000000142,6859,14,60,90
0.10000000000000142,6859,15,60,90
0.09999999999999432,6860,0,60,90
0.10000000000000142,6860,1,60,90
0.09999999999999432,6860,2,60,90
0.10000000000000142,6860,3,60,90
0.10000000000000142,6860,4,60,90
0.09999999999999432,6860,5,60,90
0.10000000000000142,6860,6,60,90
0.10000000000000142,6860,7,60,90
0.10000000000000142,6860,8,60,90
0.10000000000000142,6860,9,60,90
0.10000000000000142,6860,10,60,90
0.10000000000000142,6860,11,60,90
0.10000000000000142,6860,12,60,90
0.10000000000000142,6860,13,60,90
0.10000000000000142,6860,14,60,90
0.09999999999999432,6860,15,60,90
0.10000000000000142,6861,0,60,90
0.09999999999999432,6861,1,60,90
0.10000000000000142,6861,2,60,90
0.10000000000000142,6861,3,60,90
0.10000000000000142,6861,4,60,90
0.09999999999999432,6861,5,60,90
0.10000000000000142,6861,6,60,90
0.09999999999999432,6861,7,60,90
0.10000000000000142,6861,8,60,90
0.09999999999999432,6861,9,60,90
0.09999999999999432,6861,10,60,90
0.10000000000000142,6861,11,60,90
0.10000000000000142,6861,12,60,90
0.10000000000000142,6861,13,60,90
0.09999999999999432,6861,14,60,90
0.09999999999999432,6861,15,60,90
0.09999999999999432,6862,0,60,90
0.09999999999999432,6862,1,60,90
0.09999999999999432,6862,2,60,90
0.09999999999999432,6862,3,60,90
0.09999999999999432,6862,4,60,90
0.09999999999999432,6862,5,60,90
0.10000000000000853,6862,6,60,90
0.09999999999999432,6862,7,60,90
0.09999999999999432,6862,8,60,90
0.10000000000000853,6862,9,60,90
0.10000000000000853,6862,10,60,90
0.10000000000000853,6862,11,60,90
0.09999999999999432,6862,12,60,90
0.10000000000000853,6862,13,60,90
0.10000000000000853,6862,14,60,90
0.09999999999999432,6862,15,60,90
0.10000000000000853,6863,0,60,90
0.10000000000000853,6863,1,60,90
0.09999999999999432,6863,2,60,90
0.09999999999999432,6863,3,60,90
0.09999999999999432,6863,4,60,90
0.09999999999999432,6863,5,60,90
0.10000000000000853,6863,6,60,90
0.10000000000000853,6863,7,60,90
0.10000000000000853,6863,8,60,90
0.10000000000000853,6863,9,60,90
0.10000000000000853,6863,10,60,90
0.09999999999999432,6863,11,60,90
0.10000000000000853,6863,12,60,90
0.09999999999999432,6863,13,60,90
0.09999999999999432,6863,14,60,90
0.09999999999999432,6863,15,60,90
0.09999999999999432,6864,0,60,90
0.09999999999999432,6864,1,60,90
0.09999999999999432,6864,2,60,90
0.09999999999999432,6864,3,60,90
0.09999999999999432,6864,4,60,90
0.09999999999999432,6864,5,60,90
0.09999999999999432,6864,6,60,90
0.10000000000000853,6864,7,60,90
0.10000000000000853,6864,8,60,90
0.10000000000000853,6864,9,60,90
0.10000000000000853,6864,10,60,90
0.09999999999999432,6864,11,60,90
0.10000000000000853,6864,12,60,90
0.09999999999999432,6864,13,60,90
0.09999999999999432,6864,14,60,90
0.09999999999999432,6864,15,60,90
0.10000000000000853,6865,0,60,90
0.10000000000000853,6865,1,60,90
0.09999999999999432,6865,2,60,90
0.09999999999999432,6865,3,60,90
0.09999999999999432,6865,4,60,90
0.09999999999999432,6865,5,60,90
0.10000000000000853,6865,6,60,90
0.09999999999999432,6865,7,60,90
0.09999999999999432,6865,8,60,90
0.10000000000000853,6865,9,60,90
0.09999999999999432,6865,10,60,90
0.10000000000000853,6865,11,60,90
0.10000000000000853,6865,12,60,90
0.10000000000000853,6865,13,60,90
0.09999999999999432,6865,14,60,90
0.09999999999999432,6865,15,60,90
0.09999999999999432,6866,0,60,90
0.10000000000000853,6866,1,60,90
0.09999999999999432,6866,2,60,90
0.09999999999999432,6866,3,60,90
0.09999999999999432,6866,4,60,90
0.09999999999999432,6866,5,60,90
0.10000000000000853,6866,6,60,90
0.09999999999999432,6866,7,60,90
0.10000000000000853,6866,8,60,90
0.09999999999999432,6866,9,60,90
0.10000000000000853,6866,10,60,90
0.09999999999999432,6866,11,60,90
0.10000000000000853,6866,12,60,90
0.09999999999999432,6866,13,60,90
0.10000000000000853,6866,14,60,90
0.09999999999999432,6866,15,60,90
0.09999999999999432,6867,0,60,90
0.10000000000000853,6867,1,60,90
0.09999999999999432,6867,2,60,90
0.09999999999999432,6867,3,60,90
0.10000000000000853,6867,4,60,90
0.09999999999999432,6867,5,60,90
0.09999999999999432,6867,6,60,90
0.09999999999999432,6867,7,60,90
0.09999999999999432,6867,8,60,90
0.10000000000000853,6867,9,60,90
0.10000000000000853,6867,10,60,90
0.09999999999999432,6867,11,60,90
0.10000000000000853,6867,12,60,90
0.10000000000000853,6867,13,60,90
0.09999999999999432,6867,14,60,90
0.10000000000000853,6867,15,60,90
0.09999999999999432,6868,0,60,90
0.10000000000000853,6868,1,60,90
0.10000000000000853,6868,2,60,90
0.09999999999999432,6868,3,60,90
0.09999999999999432,6868,4,60,90
0.10000000000000853,6868,5,60,90
0.09999999999999432,6868,6,60,90
0.09999999999999432,6868,7,60,90
0.10000000000000853,6868,8,60,90
0.09999999999999432,6868,9,60,90
0.09999999999999432,6868,10,60,90
0.09999999999999432,6868,11,60,90
0.09999999999999432,6868,12,60,90
0.09999999999999432,6868,13,60,90
0.09999999999999432,6868,14,60,90
0.10000000000000853,6868,15,60,90
0.10000000000000853,6869,0,60,90
0.09999999999999432,6869,1,60,90
0.09999999999999432,6869,2,60,90
0.09999999999999432,6869,3,60,90
0.09999999999999432,6869,4,60,90
0.10000000000000853,6869,5,60,90
0.09999999999999432,6869,6,60,90
0.10000000000000853,6869,7,60,90
0.09999999999999432,6869,8,60,90
0.10000000000000853,6869,9,60,90
0.09999999999999432,6869,10,60,90
0.09999999999999432,6869,11,60,90
0.10000000000000853,6869,12,60,90
0.10000000000000853,6869,13,60,90
0.09999999999999432,6869,14,60,90
0.09999999999999432,6869,15,60,90
0.09999999999999432,6870,0,60,90
0.09999999999999432,6870,1,60,90
0.10000000000000853,6870,2,60,90
0.09999999999999432,6870,3,60,90
0.09999999999999432,6870,4,60,90
0.09999999999999432,6870,5,60,90
0.09999999999999432,6870,6,60,90
0.09999999999999432,6870,7,60,90
0.09999999999999432,6870,8,60,90
0.09999999999999432,6870,9,60,90
0.09999999999999432,6870,10,60,90
0.10000000000000853,6870,11,60,90
0.09999999999999432,6870,12,60,90
0.10000000000000853,6870,13,60,90
0.09999999999999432,6870,14,60,90
0.09999999999999432,6870,15,60,90
0.10000000000000853,6871,0,60,90
0.09999999999999432,6871,1,60,90
0.09999999999999432,6871,2,60,90
0.09999999999999432,6871,3,60,90
0.10000000000000853,6871,4,60,90
0.09999999999999432,6871,5,60,90
0.10000000000000853,6871,6,60,90
0.09999999999999432,6871,7,60,90
0.10000000000000853,6871,8,60,90
0.09999999999999432,6871,9,60,90
0.09999999999999432,6871,10,60,90
0.10000000000000853,6871,11,60,90
0.09999999999999432,6871,12,60,90
0.09999999999999432,6871,13,60,90
0.09999999999999432,6871,14,60,90
0.09999999999999432,6871,15,60,90
0.09999999999999432,6872,0,60,90
0.09999999999999432,6872,1,60,90
0.09999999999999432,6872,2,60,90
0.09999999999999432,6872,3,60,90
0.10000000000002274,6872,4,60,90
0.09999999999999432,6872,5,60,90
0.09999999999999432,6872,6,60,90
0.10000000000002274,6872,7,60,90
0.09999999999999432,6872,8,60,90
0.10000000000002274,6872,9,60,90
0.09999999999999432,6872,10,60,90
0.10000000000002274,6872,11,60,90
0.09999999999999432,6872,12,60,90
0.09999999999999432,6872,13,60,90
0.09999999999999432,6872,14,60,90
0.09999999999999432,6872,15,60,90
0.09999999999999432,6873,0,60,90
0.09999999999999432,6873,1,60,90
0.09999999999999432,6873,2,60,90
0.09999999999999432,6873,3,60,90
0.09999999999999432,6873,4,60,90
0.09999999999999432,6873,5,60,90
0.09999999999999432,6873,6,60,90
0.09999999999999432,6873,7,60,90
0.10000000000002274,6873,8,60,90
0.09999999999999432,6873,9,60,90
0.09999999999999432,6873,10,60,90
0.09999999999999432,6873,11,60,90
0.09999999999999432,6873,12,60,90
0.09999999999999432,6873,13,60,90
0.09999999999999432,6873,14,60,90
0.09999999999999432,6873,15,60,90
0.09999999999999432,6874,0,60,90
0.09999999999999432,6874,1,60,90
0.09999999999999432,6874,2,60,90
0.09999999999999432,6874,3,60,90
0.09999999999999432,6874,4,60,90
0.09999999999999432,6874,5,60,90
0.10000000000002274,6874,6,60,90
0.09999999999999432,6874,7,60,90
0.09999999999999432,6874,8,60,90
0.10000000000002274,6874,9,60,90
0.10000000000002274,6874,10,60,90
0.09999999999999432,6874,11,60,90
0.10000000000002274,6874,12,60,90
0.09999999999999432,6874,13,60,90
0.09999999999999432,6874,14,60,90
0.09999999999999432,6874,15,60,90
0.09999999999999432,6875,0,60,90
0.09999999999999432,6875,1,60,90
0.09999999999999432,6875,2,60,90
0.09999999999999432,6875,3,60,90
0.10000000000002274,6875,4,60,90
0.09999999999999432,6875,5,60,90
0.09999999999999432,6875,6,60,90
0.10000000000002274,6875,7,60,90
0.09999999999999432,6875,8,60,90
0.10000000000002274,6875,9,60,90
0.09999999999999432,6875,10,60,90
0.09999999999999432,6875,11,60,90
0.09999999999999432,6875,12,60,90
0.09999999999999432,6875,13,60,90
0.09999999999999432,6875,14,60,90
0.10000000000002274,6875,15,60,90
0.09999999999999432,6876,0,60,90
0.09999999999999432,6876,1,60,90
0.09999999999999432,6876,2,60,90
0.09999999999999432,6876,3,60,90
0.09999999999999432,6876,4,60,90
0.09999999999999432,6876,5,60,90
0.10000000000002274,6876,6,60,90
0.09999999999999432,6876,7,60,90
0.09999999999999432,6876,8,60,90
0.10000000000002274,6876,9,60,90
0.09999999999999432,6876,10,60,90
0.09999999999999432,6876,11,60,90
0.09999999999999432,6876,12,60,90
0.10000000000002274,6876,13,60,90
0.09999999999999432,6876,14,60,90
0.09999999999999432,6876,15,60,90
0.10000000000002274,6877,0,60,90
0.09999999999999432,6877,1,60,90
0.10000000000002274,6877,2,60,90
0.09999999999999432,6877,3,60,90
0.09999999999999432,6877,4,60,90
0.09999999999999432,6877,5,60,90
0.09999999999999432,6877,6,60,90
0.09999999999999432,6877,7,60,90
0.09999999999999432,6877,8,60,90
0.09999999999999432,6877,9,60,90
0.09999999999999432,6877,10,60,90
0.09999999999999432,6877,11,60,90
0.09999999999999432,6877,12,60,90
0.09999999999999432,6877,13,60,90
0.09999999999999432,6877,14,60,90
0.09999999999999432,6877,15,60,90
0.09999999999999432,6878,0,60,90
0.10000000000002274,6878,1,60,90
0.09999999999999432,6878,2,60,90
0.10000000000002274,6878,3,60,90
0.09999999999999432,6878,4,60,90
0.09999999999999432,6878,5,60,90
0.09999999999999432,6878,6,60,90
0.10000000000002274,6878,7,60,90
0.09999999999999432,6878,8,60,90
0.09999999999999432,6878,9,60,90
0.09999999999999432,6878,10,60,90
0.10000000000002274,6878,11,60,90
0.09999999999999432,6878,12,60,90
0.10000000000002274,6878,13,60,90
0.10000000000002274,6878,14,60,90
0.09999999999999432,6878,15,60,90
0.09999999999999432,6879,0,60,90
0.09999999999999432,6879,1,60,90
0.09999999999999432,6879,2,60,90
0.09999999999999432,6879,3,60,90
0.09999999999999432,6879,4,60,90
0.09999999999999432,6879,5,60,90
0.09999999999999432,6879,6,60,90
0.09999999999999432,6879,7,60,90
0.09999999999999432,6879,8,60,90
0.09999999999999432,6879,9,60,90
0.10000000000002274,6879,10,60,90
0.10000000000002274,6879,11,60,90
0.10000000000002274,6879,12,60,90
0.09999999999999432,6879,13,60,90
0.09999999999999432,6879,14,60,90
0.10000000000002274,6879,15,60,90
0.09999999999999432,6880,0,60,90
0.09999999999999432,6880,1,60,90
0.09999999999999432,6880,2,60,90
0.09999999999999432,6880,3,60,90
0.09999999999999432,6880,4,60,90
0.09999999999999432,6880,5,60,90
0.10000000000002274,6880,6,60,90
0.09999999999999432,6880,7,60,90
0.09999999999999432,6880,8,60,90
0.09999999999999432,6880,9,60,90
0.09999999999999432,6880,10,60,90
0.09999999999999432,6880,11,60,90
0.09999999999999432,6880,12,60,90
0.10000000000002274,6880,13,60,90
0.10000000000002274,6880,14,60,90
0.09999999999999432,6880,15,60,90
0.09999999999999432,6881,0,60,90
0.09999999999999432,6881,1,60,90
0.10000000000002274,6881,2,60,90
0.09999999999999432,6881,3,60,90
0.10000000000002274,6881,4,60,90
0.09999999999999432,6881,5,60,90
0.09999999999999432,6881,6,60,90
0.09999999999999432,6881,7,60,90
0.09999999999999432,6881,8,60,90
0.09999999999999432,6881,9,60,90
0.09999999999999432,6881,10,60,90
0.09999999999999432,6881,11,60,90
0.10000000000002274,6881,12,60,90
0.10000000000002274,6881,13,60,90
0.09999999999999432,6881,14,60,90
0.09999999999999432,6881,15,60,90
0.09999999999999432,6882,0,60,90
0.09999999999999432,6882,1,60,90
0.09999999999999432,6882,2,60,90
0.09999999999999432,6882,3,60,90
0.09999999999999432,6882,4,60,90
0.09999999999999432,6882,5,60,90
0.10000000000000142,6882,6,60,90
0.10000000000000142,6882,7,60,90
0.09999999999999432,6882,8,60,90
0.09999999999999432,6882,9,60,90
0.09999999999999432,6882,10,60,90
0.10000000000000142,6882,11,60,90
0.10000000000000142,6882,12,60,90
0.10000000000000142,6882,13,60,90
0.10000000000000142,6882,14,60,90
0.10000000000000142,6882,15,60,90
0.10000000000000142,6883,0,60,90
0.10000000000000142,6883,1,60,90
0.10000000000000142,6883,2,60,90
0.10000000000000142,6883,3,60,90
0.10000000000000142,6883,4,60,90
0.10000000000000142,6883,5,60,90
0.09999999999999432,6883,6,60,90
0.10000000000000142,6883,7,60,90
0.09999999999999432,6883,8,60,90
0.10000000000000142,6883,9,60,90
0.10000000000000142,6883,10,60,90
0.09999999999999432,6883,11,60,90
0.09999999999999432,6883,12,60,90
0.09999999999999432,6883,13,60,90
0.09999999999999432,6883,14,60,90
0.09999999999999432,6883,15,60,90
0.09999999999999432,6884,0,60,90
0.06818181818181301,6884,1,60,90
0.09999999999999432,6884,2,60,90
0.10000000000002274,6884,3,60,90
0.09999999999999432,6884,4,60,90
0.09999999999999432,6884,5,60,90
0.10000000000002274,6884,6,60,90
0.09999999999999432,6884,7,60,90
0.09999999999999432,6884,8,60,90
0.09999999999999432,6884,9,60,90
0.09999999999999432,6884,10,60,90
0.09999999999999432,6884,11,60,90
0.06818181818181301,6884,12,60,90
0.09999999999999432,6884,13,60,90
0.10000000000002274,6884,14,60,90
0.09999999999999432,6884,15,60,90
0.10000000000002274,6885,0,60,90
0.10000000000002274,6885,1,60,90
0.09999999999999432,6885,2,60,90
0.09999999999999432,6885,3,60,90
0.09999999999999432,6885,4,60,90
0.09999999999999432,6885,5,60,90
0.09999999999999432,6885,6,60,90
0.10000000000002274,6885,7,60,90
0.09999999999999432,6885,8,60,90
0.06818181818181301,6885,9,60,90
0.09999999999999432,6885,10,60,90
0.10000000000002274,6885,11,60,90
0.09999999999999432,6885,12,60,90
0.09999999999999432,6885,13,60,90
0.10000000000002274,6885,14,60,90
0.09999999999999432,6885,15,60,90
0.10000000000002274,6886,0,60,90
0.10000000000002274,6886,1,60,90
0.09999999999999432,6886,2,60,90
0.09999999999999432,6886,3,60,90
0.056818181818186986,6886,4,60,90
0.09999999999999432,6886,5,60,90
0.09999999999999432,6886,6,60,90
0.10000000000002274,6886,7,60,90
0.09999999999999432,6886,8,60,90
0.09999999999999432,6886,9,60,90
0.06590909090908781,6886,10,60,90
0.09999999999999432,6886,11,60,90
0.10000000000002274,6886,12,60,90
0.09999999999999432,6886,13,60,90
0.09999999999999432,6886,14,60,90
0.09999999999999432,6886,15,60,90
0.09999999999999432,6887,0,60,90
0.06818181818181301,6887,1,60,90
0.09999999999999998,6887,2,60,90
0.10000000000000009,6887,3,60,90
0.10000000000000009,6887,4,60,90
0.09999999999999964,6887,5,60,90
0.09999999999999964,6887,6,60,90
0.09999999999999964,6887,7,60,90
0.09999999999999964,6887,8,60,90
0.09999999999999964,6887,9,60,90
0.10000000000000053,6887,10,60,90
0.10000000000000142,6887,11,60,90
0.09999999999999964,6887,12,60,90
0.09999999999999964,6887,13,60,90
0.09999999999999964,6887,14,60,90
0.09999999999999964,6887,15,60,90
0.09999999999999964,6888,0,60,90
0.09999999999999964,6888,1,60,90
0.09999999999999964,6888,2,60,90
0.10000000000000142,6888,3,60,90
0.10000000000000142,6888,4,60,90
0.09999999999999787,6888,5,60,90
0.09999999999999787,6888,6,60,90
0.09999999999999787,6888,7,60,90
0.09999999999999787,6888,8,60,90
0.09999999999999787,6888,9,60,90
0.10000000000000142,6888,10,60,90
0.09999999999999787,6888,11,60,90
0.09999999999999787,6888,12,60,90
0.09999999999999787,6888,13,60,90
0.09999999999999787,6888,14,60,90
0.09999999999999787,6888,15,60,90
0.10000000000000142,6889,0,60,90
0.10000000000000142,6889,1,60,90
0.10000000000000142,6889,2,60,90
0.10000000000000142,6889,3,60,90
0.10000000000000142,6889,4,60,90
0.10000000000000142,6889,5,60,90
0.10000000000000142,6889,6,60,90
0.09999999999999432,6889,7,60,90
0.09999999999999432,6889,8,60,90
0.10000000000000142,6889,9,60,90
0.09999999999999432,6889,10,60,90
0.10000000000000142,6889,11,60,90
0.10000000000000142,6889,12,60,90
0.09999999999999432,6889,13,60,90
0.10000000000000142,6889,14,60,90
0.09999999999999432,6889,15,60,90
0.10000000000000142,6890,0,60,90
0.10000000000000142,6890,1,60,90
0.10000000000000142,6890,2,60,90
0.10000000000000142,6890,3,60,90
0.10000000000000142,6890,4,60,90
0.10000000000000142,6890,5,60,90
0.10000000000000142,6890,6,60,90
0.10000000000000142,6890,7,60,90
0.10000000000000142,6890,8,60,90
0.10000000000000142,6890,9,60,90
0.10000000000000142,6890,10,60,90
0.10000000000000142,6890,11,60,90
0.10000000000000142,6890,12,60,90
0.10000000000000142,6890,13,60,90
0.10000000000000142,6890,14,60,90
0.10000000000000142,6890,15,60,90
0.10000000000000142,6891,0,60,90
0.10000000000000142,6891,1,60,90
0.10000000000000142,6891,2,60,90
0.09999999999999432,6891,3,60,90
0.10000000000000142,6891,4,60,90
0.10000000000000142,6891,5,60,90
0.09999999999999432,6891,6,60,90
0.10000000000000142,6891,7,60,90
0.09999999999999432,6891,8,60,90
0.09999999999999432,6891,9,60,90
0.09999999999999432,6891,10,60,90
0.09999999999999432,6891,11,60,90
0.09999999999999432,6891,12,60,90
0.09999999999999432,6891,13,60,90
0.10000000000000853,6891,14,60,90
0.10000000000000853,6891,15,60,90
0.09999999999999432,6892,0,60,90
0.09999999999999432,6892,1,60,90
0.10000000000000853,6892,2,60,90
0.09999999999999432,6892,3,60,90
0.09999999999999432,6892,4,60,90
0.10000000000000853,6892,5,60,90
0.10000000000000853,6892,6,60,90
0.10000000000000853,6892,7,60,90
0.10000000000000853,6892,8,60,90
0.09999999999999432,6892,9,60,90
0.09999999999999432,6892,10,60,90
0.09999999999999432,6892,11,60,90
0.09999999999999432,6892,12,60,90
0.09999999999999432,6892,13,60,90
0.10000000000000853,6892,14,60,90
0.10000000000000853,6892,15,60,90
0.09999999999999432,6893,0,60,90
0.10000000000000853,6893,1,60,90
0.10000000000000853,6893,2,60,90
0.09999999999999432,6893,3,60,90
0.09999999999999432,6893,4,60,90
0.09999999999999432,6893,5,60,90
0.09999999999999432,6893,6,60,90
0.09999999999999432,6893,7,60,90
0.09999999999999432,6893,8,60,90
0.09999999999999432,6893,9,60,90
0.09999999999999432,6893,10,60,90
0.09999999999999432,6893,11,60,90
0.09999999999999432,6893,12,60,90
0.09999999999999432,6893,13,60,90
0.09999999999999432,6893,14,60,90
0.10000000000000853,6893,15,60,90
0.09999999999999432,6894,0,60,90
0.10000000000000853,6894,1,60,90
0.09999999999999432,6894,2,60,90
0.10000000000000853,6894,3,60,90
0.09999999999999432,6894,4,60,90
0.09999999999999432,6894,5,60,90
0.09999999999999432,6894,6,60,90
0.09999999999999432,6894,7,60,90
0.10000000000000853,6894,8,60,90
0.10000000000000853,6894,9,60,90
0.09999999999999432,6894,10,60,90
0.10000000000000853,6894,11,60,90
0.09999999999999432,6894,12,60,90
0.09999999999999432,6894,13,60,90
0.09999999999999432,6894,14,60,90
0.10000000000000853,6894,15,60,90
0.10000000000000853,6895,0,60,90
0.10000000000000853,6895,1,60,90
0.10000000000000853,6895,2,60,90
0.09999999999999432,6895,3,60,90
0.09999999999999432,6895,4,60,90
0.09999999999999432,6895,5,60,90
0.09999999999999432,6895,6,60,90
0.10000000000000853,6895,7,60,90
0.09999999999999432,6895,8,60,90
0.10000000000000853,6895,9,60,90
0.10000000000000853,6895,10,60,90
0.09999999999999432,6895,11,60,90
0.09999999999999432,6895,12,60,90
0.09999999999999432,6895,13,60,90
0.09999999999999432,6895,14,60,90
0.09999999999999432,6895,15,60,90
0.10000000000000853,6896,0,60,90
0.10000000000000853,6896,1,60,90
0.09999999999999432,6896,2,60,90
0.09999999999999432,6896,3,60,90
0.09999999999999432,6896,4,60,90
0.09999999999999432,6896,5,60,90
0.10000000000000853,6896,6,60,90
0.09999999999999432,6896,7,60,90
0.09999999999999432,6896,8,60,90
0.09999999999999432,6896,9,60,90
0.09999999999999432,6896,10,60,90
0.10000000000002274,6896,11,60,90
0.09999999999999432,6896,12,60,90
0.09999999999999432,6896,13,60,90
0.09999999999999432,6896,14,60,90
0.09999999999999432,6896,15,60,90
0.09999999999999432,6897,0,60,90
0.09999999999999432,6897,1,60,90
0.09999999999999432,6897,2,60,90
0.09999999999999432,6897,3,60,90
0.09999999999999432,6897,4,60,90
0.09999999999999432,6897,5,60,90
0.09999999999999432,6897,6,60,90
0.09999999999999432,6897,7,60,90
0.09999999999999432,6897,8,60,90
0.10000000000002274,6897,9,60,90
0.09999999999999432,6897,10,60,90
0.10000000000002274,6897,11,60,90
0.09999999999999432,6897,12,60,90
0.09999999999999432,6897,13,60,90
0.09999999999999432,6897,14,60,90
0.10000000000002274,6897,15,60,90
0.09999999999999432,6898,0,60,90
0.09999999999999432,6898,1,60,90
0.09999999999999432,6898,2,60,90
0.09999999999999432,6898,3,60,90
0.09999999999999432,6898,4,60,90
0.09999999999999432,6898,5,60,90
0.09999999999999432,6898,6,60,90
0.10000000000002274,6898,7,60,90
0.09999999999999432,6898,8,60,90
0.09999999999999432,6898,9,60,90
0.09999999999999432,6898,10,60,90
0.09999999999999432,6898,11,60,90
0.10000000000002274,6898,12,60,90
0.09999999999999432,6898,13,60,90
0.09999999999999432,6898,14,60,90
0.09999999999999432,6898,15,60,90
0.09999999999999432,6899,0,60,90
0.09999999999999432,6899,1,60,90
0.09999999999999432,6899,2,60,90
0.09999999999999432,6899,3,60,90
0.09999999999999432,6899,4,60,90
0.09999999999999432,6899,5,60,90
0.09999999999999432,6899,6,60,90
0.09999999999999432,6899,7,60,90
0.09999999999999432,6899,8,60,90
0.09999999999999432,6899,9,60,90
0.09999999999999432,6899,10,60,90
0.09999999999999432,6899,11,60,90
0.09999999999999432,6899,12,60,90
0.09999999999999432,6899,13,60,90
0.09999999999999432,6899,14,60,90
0.10000000000002274,6899,15,60,90
0.10000000000002274,6900,0,60,90
0.10000000000002274,6900,1,60,90
0.10000000000002274,6900,2,60,90
0.09999999999999432,6900,3,60,90
0.09999999999999432,6900,4,60,90
0.09999999999999432,6900,5,60,90
0.09999999999999432,6900,6,60,90
0.09999999999999432,6900,7,60,90
0.09999999999999432,6900,8,60,90
0.09999999999999432,6900,9,60,90
0.09999999999999432,6900,10,60,90
0.09999999999999432,6900,11,60,90
0.09999999999999432,6900,12,60,90
0.09999999999999432,6900,13,60,90
0.09999999999999432,6900,14,60,90
0.09999999999999432,6900,15,60,90
0.09999999999999432,6901,0,60,90
0.09999999999999432,6901,1,60,90
0.09999999999999432,6901,2,60,90
0.10000000000002274,6901,3,60,90
0.09999999999999432,6901,4,60,90
0.09999999999999432,6901,5,60,90
0.09999999999999432,6901,6,60,90
0.09999999999999432,6901,7,60,90
0.09999999999999432,6901,8,60,90
0.09999999999999432,6901,9,60,90
0.10000000000002274,6901,10,60,90
0.10000000000002274,6901,11,60,90
0.09999999999999432,6901,12,60,90
0.09999999999999432,6901,13,60,90
0.09999999999999432,6901,14,60,90
0.09999999999999432,6901,15,60,90
0.09999999999999432,6902,0,60,90
0.09999999999999432,6902,1,60,90
0.09999999999999432,6902,2,60,90
0.09999999999999432,6902,3,60,90
0.09999999999999432,6902,4,60,90
0.09999999999999432,6902,5,60,90
0.09999999999999432,6902,6,60,90
0.09999999999999432,6902,7,60,90
0.09999999999999432,6902,8,60,90
0.09999999999999432,6902,9,60,90
0.09999999999999432,6902,10,60,90
0.09999999999999432,6902,11,60,90
0.10000000000002274,6902,12,60,90
0.09999999999999432,6902,13,60,90
0.09999999999999432,6902,14,60,90
0.09999999999999432,6902,15,60,90
0.09999999999999432,6903,0,60,90
0.10000000000002274,6903,1,60,90
0.10000000000002274,6903,2,60,90
0.09999999999999432,6903,3,60,90
0.09999999999999432,6903,4,60,90
0.09999999999999432,6903,5,60,90
0.09999999999999787,6903,6,60,90
0.09999999999999432,6903,7,60,90
0.10000000000000142,6903,8,60,90
0.10000000000000142,6903,9,60,90
0.10000000000000142,6903,10,60,90
0.10000000000000142,6903,11,60,90
0.09999999999999432,6903,12,60,90
0.10000000000000853,6903,13,60,90
0.09999999999999432,6903,14,60,90
0.09999999999999432,6903,15,60,90
0.09999999999999432,6904,0,60,90
0.09999999999999432,6904,1,60,90
0.09999999999999432,6904,2,60,90
0.09999999999999432,6904,3,60,90
0.09999999999999432,6904,4,60,90
0.10000000000000853,6904,5,60,90
0.10000000000000853,6904,6,60,90
0.10000000000000853,6904,7,60,90
0.09999999999999432,6904,8,60,90
0.09999999999999432,6904,9,60,90
0.09999999999999432,6904,10,60,90
0.10000000000000853,6904,11,60,90
0.10000000000000853,6904,12,60,90
0.10000000000000853,6904,13,60,90
0.10000000000000853,6904,14,60,90
0.09999999999999432,6904,15,60,90
0.09999999999999432,6905,0,60,90
0.09999999999999432,6905,1,60,90
0.09999999999999432,6905,2,60,90
0.09999999999999432,6905,3,60,90
0.10000000000000853,6905,4,60,90
0.10000000000000853,6905,5,60,90
0.09999999999999432,6905,6,60,90
0.09999999999999432,6905,7,60,90
0.09999999999999432,6905,8,60,90
0.09999999999999432,6905,9,60,90
0.09999999999999432,6905,10,60,90
0.09999999999999432,6905,11,60,90
0.09999999999999432,6905,12,60,90
0.09999999999999432,6905,13,60,90
0.09999999999999432,6905,14,60,90
0.09999999999999432,6905,15,60,90
0.09999999999999432,6906,0,60,90
0.09999999999999432,6906,1,60,90
0.09999999999999432,6906,2,60,90
0.09999999999999432,6906,3,60,90
0.09999999999999432,6906,4,60,90
0.09999999999999432,6906,5,60,90
0.09999999999999432,6906,6,60,90
0.09999999999999432,6906,7,60,90
0.09999999999999432,6906,8,60,90
0.10000000000002274,6906,9,60,90
0.09999999999999432,6906,10,60,90
0.09999999999999432,6906,11,60,90
0.09999999999999432,6906,12,60,90
0.09999999999999432,6906,13,60,90
0.09999999999999432,6906,14,60,90
0.09999999999999432,6906,15,60,90
0.09999999999999432,6907,0,60,90
0.09999999999999432,6907,1,60,90
0.09999999999999432,6907,2,60,90
0.10000000000002274,6907,3,60,90
0.10000000000002274,6907,4,60,90
0.09999999999999432,6907,5,60,90
0.09999999999999432,6907,6,60,90
0.09999999999999432,6907,7,60,90
0.10000000000002274,6907,8,60,90
0.09999999999999432,6907,9,60,90
0.09999999999999432,6907,10,60,90
0.09999999999999432,6907,11,60,90
0.09999999999999432,6907,12,60,90
0.09999999999999432,6907,13,60,90
0.09999999999999432,6907,14,60,90
0.09999999999999432,6907,15,60,90
0.09999999999999432,6908,0,60,90
0.09999999999999432,6908,1,60,90
0.09999999999999432,6908,2,60,90
0.09999999999999432,6908,3,60,90
0.10000000000002274,6908,4,60,90
0.10000000000002274,6908,5,60,90
0.09999999999999432,6908,6,60,90
0.09999999999999432,6908,7,60,90
0.09999999999999432,6908,8,60,90
0.10000000000002274,6908,9,60,90
0.09999999999999432,6908,10,60,90
0.09999999999999432,6908,11,60,90
0.10000000000002274,6908,12,60,90
0.10000000000002274,6908,13,60,90
0.09999999999999432,6908,14,60,90
0.09999999999999432,6908,15,60,90
0.09999999999999432,6909,0,60,90
0.09999999999999432,6909,1,60,90
0.09999999999999432,6909,2,60,90
0.09999999999999432,6909,3,60,90
0.09999999999999432,6909,4,60,90
0.09999999999999432,6909,5,60,90
0.09999999999999432,6909,6,60,90
0.09999999999999432,6909,7,60,90
0.09999999999999432,6909,8,60,90
0.10000000000002274,6909,9,60,90
0.09999999999999432,6909,10,60,90
0.10000000000002274,6909,11,60,90
0.09999999999999432,6909,12,60,90
0.09999999999999432,6909,13,60,90
0.10000000000002274,6909,14,60,90
0.09999999999999432,6909,15,60,90
0.10000000000002274,6910,0,60,90
0.09999999999999432,6910,1,60,90
0.09999999999999432,6910,2,60,90
0.09999999999999432,6910,3,60,90
0.10000000000002274,6910,4,60,90
0.10000000000002274,6910,5,60,90
0.09999999999999432,6910,6,60,90
0.09999999999999432,6910,7,60,90
0.10000000000002274,6910,8,60,90
0.10000000000002274,6910,9,60,90
0.09999999999999432,6910,10,60,90
0.10000000000002274,6910,11,60,90
0.09999999999999432,6910,12,60,90
0.09999999999999432,6910,13,60,90
0.09999999999999432,6910,14,60,90
0.10000000000002274,6910,15,60,90
0.09999999999999432,6911,0,60,90
0.09999999999999432,6911,1,60,90
0.10000000000002274,6911,2,60,90
0.09999999999999432,6911,3,60,90
0.09999999999999432,6911,4,60,90
0.09999999999999432,6911,5,60,90
0.09999999999999432,6911,6,60,90
0.10000000000002274,6911,7,60,90
0.10000000000002274,6911,8,60,90
0.10000000000002274,6911,9,60,90
0.09999999999999432,6911,10,60,90
0.09999999999999432,6911,11,60,90
0.09999999999999432,6911,12,60,90
0.09999999999999432,6911,13,60,90
0.09999999999999432,6911,14,60,90
0.09999999999999432,6911,15,60,90
0.09999999999999432,6912,0,60,90
0.09999999999999432,6912,1,60,90
0.09999999999999432,6912,2,60,90
0.09999999999999432,6912,3,60,90
