note_on,time,velocity
60,0.031818181818181815,90
60,91.81818181818181,90
60,91.87272727272727,90
60,91.93636363636364,90
60,92.02045454545454,90
60,92.08636363636363,90
60,92.3090909090909,90
60,92.37272727272727,90
60,92.50227272727273,90
60,92.54318181818181,90
60,92.57499999999999,90
60,92.73636363636363,90
60,92.77954545454546,90
60,92.88636363636363,90
60,92.93863636363636,90
60,93.01363636363637,90
60,93.04545454545455,90
60,93.12045454545454,90
60,93.35454545454544,90
60,93.4090909090909,90
60,93.47272727272727,90
60,93.52499999999999,90
60,93.56818181818181,90
60,93.65227272727272,90
60,93.72727272727272,90
60,93.84545454545454,90
60,94.02727272727272,90
60,94.07045454545454,90
60,94.175,90
60,94.24090909090908,90
60,94.31363636363636,90
60,94.45227272727273,90
60,94.52727272727272,90
60,94.57045454545454,90
60,94.65681818181818,90
60,94.81590909090909,90
60,94.87045454545454,90
60,95.0090909090909,90
60,95.10454545454544,90
60,95.14772727272727,90
60,95.18863636363636,90
60,95.23181818181818,90
60,95.26363636363637,90
60,95.46590909090908,90
60,95.52045454545454,90
60,95.72272727272727,90
60,95.91363636363636,90
60,95.94772727272726,90
60,96.07499999999999,90
60,96.17045454545455,90
60,96.20227272727273,90
60,96.25681818181818,90
60,96.39545454545454,90
60,96.51136363636363,90
60,96.54318181818181,90
60,96.59772727272727,90
60,96.62954545454545,90
60,96.68181818181817,90
60,96.71363636363635,90
60,96.89545454545454,90
60,96.94999999999999,90
60,97.07727272727273,90
60,97.15227272727272,90
60,97.1840909090909,90
60,97.27045454545454,90
60,97.30227272727272,90
60,97.36590909090908,90
60,97.46136363636363,90
60,97.50454545454545,90
60,97.55681818181817,90
60,97.62045454545454,90
60,97.68636363636364,90
60,97.71818181818182,90
60,97.80227272727272,90
60,97.85681818181818,90
60,97.94090909090909,90
60,98.11136363636363,90
60,98.18636363636364,90
60,98.27272727272727,90
60,98.31363636363636,90
60,98.35681818181818,90
60,98.44318181818181,90
60,98.55,90
60,98.58181818181818,90
60,98.61363636363636,90
60,98.67727272727272,90
60,98.83636363636363,90
60,98.87045454545454,90
60,98.975,90
60,99.04090909090908,90
60,99.17954545454545,90
60,99.23181818181817,90
60,99.41363636363636,90
60,99.47727272727272,90
60,99.5090909090909,90
60,99.60454545454544,90
60,99.70227272727273,90
60,99.73409090909091,90
60,99.8090909090909,90
60,99.87272727272727,90
60,100.01136363636363,90
60,100.06363636363636,90
60,100.225,90
60,100.3090909090909,90
60,100.36363636363636,90
60,100.42727272727272,90
60,100.51136363636363,90
60,100.67272727272727,90
60,100.70454545454545,90
60,100.73636363636363,90
60,100.81136363636364,90
60,100.84318181818182,90
60,100.875,90
60,100.99090909090908,90
60,101.02499999999999,90
60,101.10909090909091,90
60,101.16363636363636,90
60,101.19545454545454,90
60,101.29090909090908,90
60,101.3340909090909,90
60,101.39772727272727,90
60,101.44090909090909,90
60,101.49318181818181,90
60,101.55681818181817,90
60,101.63181818181818,90
60,101.66363636363636,90
60,101.73863636363636,90
60,101.78181818181818,90
60,101.96363636363635,90
60,101.99545454545454,90
60,102.0590909090909,90
60,102.10227272727272,90
60,102.14318181818182,90
60,102.2090909090909,90
60,102.38863636363637,90
60,102.58181818181818,90
60,102.625,90
60,102.74090909090908,90
60,102.77272727272727,90
60,102.89090909090909,90
60,102.99772727272727,90
60,103.18863636363636,90
60,103.22045454545454,90
60,103.27499999999999,90
60,103.40227272727272,90
60,103.52045454545454,90
60,103.57272727272726,90
60,103.61590909090908,90
60,103.67954545454545,90
60,103.74318181818181,90
60,103.78636363636363,90
60,103.925,90
60,104.0,90
60,104.1590909090909,90
60,104.26590909090909,90
60,104.29772727272727,90
60,104.34090909090908,90
60,104.43636363636364,90
60,104.58636363636363,90
60,104.64090909090909,90
60,104.74772727272726,90
60,104.78863636363636,90
60,104.85227272727272,90
60,104.92727272727272,90
60,105.01363636363637,90
60,105.06590909090909,90
60,105.12045454545454,90
60,105.17272727272727,90
60,105.23636363636363,90
60,105.27954545454546,90
60,105.36590909090908,90
60,105.42954545454545,90
60,105.51363636363637,90
60,105.56818181818181,90
60,105.6,90
60,105.85681818181817,90
60,105.97272727272727,90
60,106.01590909090909,90
60,106.2090909090909,90
60,106.26136363636363,90
60,106.34772727272727,90
60,106.38863636363637,90
60,106.5590909090909,90
60,106.74090909090908,90
60,106.80454545454545,90
60,106.87045454545454,90
60,106.92272727272727,90
60,106.98636363636363,90
60,107.08181818181818,90
60,107.21136363636363,90
60,107.38181818181818,90
60,107.41363636363636,90
60,107.47727272727272,90
60,107.5090909090909,90
60,107.60454545454544,90
60,107.74318181818181,90
60,107.77499999999999,90
60,107.88181818181818,90
60,107.91363636363636,90
60,107.96818181818182,90
60,108.02045454545454,90
60,108.05227272727272,90
60,108.08636363636363,90
60,108.19090909090909,90
60,108.225,90
60,108.35227272727272,90
60,108.39545454545454,90
60,108.50227272727273,90
60,108.5340909090909,90
60,108.64999999999999,90
60,108.69318181818181,90
60,108.76818181818182,90
60,108.82045454545454,90
60,108.86363636363636,90
60,108.93863636363636,90
60,108.98181818181817,90
60,109.08863636363635,90
60,109.12045454545454,90
60,109.1840909090909,90
60,109.22727272727272,90
60,109.44999999999999,90
60,109.49318181818181,90
60,109.55681818181817,90
60,109.58863636363635,90
60,109.73863636363636,90
60,109.79090909090908,90
60,109.85681818181817,90
60,109.97272727272727,90
60,110.03636363636363,90
60,110.07954545454545,90
60,110.11136363636363,90
60,110.16590909090908,90
60,110.25,90
60,110.31363636363636,90
60,110.34772727272727,90
60,110.44318181818181,90
60,110.5590909090909,90
60,110.59090909090908,90
60,110.6340909090909,90
60,110.7090909090909,90
60,110.77272727272727,90
60,110.82727272727273,90
60,110.85909090909091,90
60,110.99772727272726,90
60,111.11363636363636,90
60,111.18863636363636,90
60,111.27499999999999,90
60,111.38181818181818,90
60,111.46590909090908,90
60,111.49772727272726,90
60,111.6590909090909,90
60,111.72272727272727,90
60,111.79772727272727,90
60,111.93636363636364,90
60,112.07499999999999,90
60,112.11818181818181,90
60,112.25681818181818,90
60,112.3840909090909,90
60,112.50227272727273,90
60,112.56590909090909,90
60,112.62954545454545,90
60,112.75681818181818,90
60,112.8,90
60,112.91818181818181,90
60,112.94999999999999,90
60,112.98181818181817,90
60,113.02499999999999,90
60,113.05681818181817,90
60,113.21590909090908,90
60,113.2590909090909,90
60,113.30227272727272,90
60,113.42954545454545,90
60,113.46136363636363,90
60,113.52499999999999,90
60,113.55681818181817,90
60,113.63181818181818,90
60,113.675,90
60,113.75,90
60,113.79090909090908,90
60,113.87727272727273,90
60,113.95227272727273,90
60,113.98409090909091,90
60,114.175,90
60,114.32499999999999,90
60,114.45227272727273,90
60,114.51818181818182,90
60,114.61363636363636,90
60,114.74090909090908,90
60,114.7840909090909,90
60,114.82727272727273,90
60,114.89090909090909,90
60,114.9340909090909,90
60,115.10454545454544,90
60,115.22045454545454,90
60,115.25227272727273,90
60,115.29545454545455,90
60,115.40227272727272,90
60,115.46590909090908,90
60,115.5090909090909,90
60,115.59545454545454,90
60,115.64772727272727,90
60,115.71136363636363,90
60,115.76590909090909,90
60,115.84090909090908,90
60,115.89318181818182,90
60,115.925,90
60,116.09545454545454,90
60,116.19090909090909,90
60,116.3090909090909,90
60,116.37272727272726,90
60,116.42727272727272,90
60,116.49090909090908,90
60,116.54318181818181,90
60,116.59772727272727,90
60,116.71363636363635,90
60,116.84318181818182,90
60,116.9590909090909,90
60,117.08863636363635,90
60,117.12954545454545,90
60,117.20454545454545,90
60,117.29090909090908,90
60,117.375,90
60,117.41818181818181,90
60,117.49318181818181,90
60,117.6,90
60,117.64318181818182,90
60,117.72727272727272,90
60,117.7590909090909,90
60,117.79090909090908,90
60,117.89772727272727,90
60,117.94090909090909,90
60,118.03636363636363,90
60,118.10227272727272,90
60,118.24090909090908,90
60,118.28181818181818,90
60,118.33636363636363,90
60,118.45227272727273,90
60,118.53863636363636,90
60,118.61363636363636,90
60,118.64545454545454,90
60,118.76363636363635,90
60,118.81590909090909,90
60,118.91136363636363,90
60,119.02954545454544,90
60,119.07272727272726,90
60,119.13636363636363,90
60,9.86590909090909,90
60,11.370454545454544,90
60,12.26590909090909,90
60,13.770454545454545,90
60,14.665909090909091,90
60,16.170454545454543,90
60,17.077272727272728,90
60,18.570454545454545,90
60,19.477272727272727,90
60,20.98181818181818,90
60,21.877272727272725,90
60,23.38181818181818,90
60,24.277272727272727,90
60,25.78181818181818,90
60,26.677272727272726,90
60,29.097727272727273,90
60,29.845454545454544,90
60,29.995454545454542,90
60,30.293181818181818,90
60,30.443181818181817,90
60,30.581818181818182,90
60,30.74090909090909,90
60,30.89090909090909,90
60,31.049999999999997,90
60,31.188636363636363,90
60,31.488636363636363,90
60,31.797727272727272,90
60,31.94772727272727,90
60,32.095454545454544,90
60,32.24545454545454,90
60,32.39545454545454,90
60,32.69318181818182,90
60,32.84318181818182,90
60,32.99090909090909,90
60,33.14090909090909,90
60,33.29090909090909,90
60,33.449999999999996,90
60,33.6,90
60,33.75,90
60,33.888636363636365,90
60,34.19772727272727,90
60,34.34772727272727,90
60,34.49545454545454,90
60,34.64545454545454,90
60,34.79545454545455,90
60,35.09318181818182,90
60,35.24318181818182,90
60,35.39090909090909,90
60,35.54090909090909,90
60,35.70227272727273,90
60,35.85,90
60,36.0,90
60,36.288636363636364,90
60,36.59772727272727,90
60,36.74772727272727,90
60,36.89545454545454,90
60,37.04545454545455,90
60,37.195454545454545,90
60,37.50454545454545,90
60,37.652272727272724,90
60,37.79090909090909,90
60,37.95227272727273,90
60,38.10227272727273,90
60,38.25,90
60,38.4,90
60,38.55,90
60,38.69772727272727,90
60,39.00909090909091,90
60,39.15681818181818,90
60,39.30681818181818,90
60,39.45681818181818,90
60,39.60454545454545,90
60,39.75454545454545,90
60,39.904545454545456,90
60,40.05227272727272,90
60,40.20227272727273,90
60,40.35227272727273,90
60,40.502272727272725,90
60,40.66136363636363,90
60,40.81136363636364,90
60,40.959090909090904,90
60,41.10909090909091,90
60,41.40909090909091,90
60,41.55681818181818,90
60,41.70681818181818,90
60,41.85681818181818,90
60,42.00454545454545,90
60,42.16590909090909,90
60,42.304545454545455,90
60,42.46363636363636,90
60,42.61363636363636,90
60,42.76363636363636,90
60,42.91136363636363,90
60,43.06136363636364,90
60,43.211363636363636,90
60,43.35909090909091,90
60,43.50909090909091,90
60,43.95681818181818,90
60,44.10681818181818,90
60,44.26590909090909,90
60,44.41590909090909,90
60,44.56590909090909,90
60,44.71363636363636,90
60,44.86363636363636,90
60,45.01363636363636,90
60,45.163636363636364,90
60,45.31136363636364,90
60,45.461363636363636,90
60,45.611363636363635,90
60,45.75909090909091,90
60,45.90909090909091,90
60,46.21818181818182,90
60,46.35681818181818,90
60,46.50681818181818,90
60,46.66590909090909,90
60,46.81590909090909,90
60,46.965909090909086,90
60,47.11363636363636,90
60,47.26363636363636,90
60,47.413636363636364,90
60,47.56363636363636,90
60,47.711363636363636,90
60,47.87272727272727,90
60,48.01136363636363,90
60,48.17045454545454,90
60,49.365909090909085,90
60,49.663636363636364,90
60,49.81363636363636,90
60,49.96363636363636,90
60,50.111363636363635,90
60,50.41136363636363,90
60,50.709090909090904,90
60,50.87045454545454,90
60,51.018181818181816,90
60,51.15681818181818,90
60,51.31818181818181,90
60,51.465909090909086,90
60,51.60454545454545,90
60,51.76590909090909,90
60,51.913636363636364,90
60,52.06363636363636,90
60,52.21363636363636,90
60,52.36363636363636,90
60,52.51136363636363,90
60,52.67272727272727,90
60,52.820454545454545,90
60,52.970454545454544,90
60,53.10909090909091,90
60,53.27045454545454,90
60,53.418181818181814,90
60,53.55681818181818,90
60,53.71818181818182,90
60,53.865909090909085,90
60,54.01590909090909,90
60,54.175,90
60,54.31363636363636,90
60,54.474999999999994,90
60,54.61363636363636,90
60,54.77272727272727,90
60,54.91136363636363,90
60,55.07272727272727,90
60,55.220454545454544,90
60,55.37045454545454,90
60,55.50909090909091,90
60,55.67045454545454,90
60,55.82954545454545,90
60,55.96818181818182,90
60,56.11818181818182,90
60,56.26590909090909,90
60,56.41590909090909,90
60,56.574999999999996,90
60,56.724999999999994,90
60,56.875,90
60,57.01363636363636,90
60,57.17272727272727,90
60,57.32272727272727,90
60,57.47272727272727,90
60,57.62045454545454,90
60,57.77045454545454,90
60,57.92045454545454,90
60,58.070454545454545,90
60,58.21818181818182,90
60,58.36818181818182,90
60,58.518181818181816,90
60,58.67727272727272,90
60,58.81590909090909,90
60,58.974999999999994,90
60,59.125,90
60,59.275,90
60,59.413636363636364,90
60,59.54090909090909,90
60,59.584090909090904,90
60,59.72272727272727,90
60,59.87272727272727,90
60,60.02045454545454,90
60,60.17045454545454,90
60,60.320454545454545,90
60,60.47954545454545,90
60,60.62954545454545,90
60,60.768181818181816,90
60,60.918181818181814,90
60,61.07727272727272,90
60,61.215909090909086,90
60,61.375,90
60,61.525,90
60,61.675,90
60,61.824999999999996,90
60,61.97272727272727,90
60,62.12272727272727,90
60,62.28181818181818,90
60,62.43181818181818,90
60,62.58181818181818,90
60,62.720454545454544,90
60,62.87954545454545,90
60,63.02954545454545,90
60,63.168181818181814,90
60,63.32727272727272,90
60,63.47727272727273,90
60,63.615909090909085,90
60,63.775,90
60,63.925,90
60,64.075,90
60,64.225,90
60,64.37272727272727,90
60,64.52272727272727,90
60,64.68181818181817,90
60,64.83181818181818,90
60,64.98181818181818,90
60,65.12045454545454,90
60,65.27954545454546,90
60,65.42954545454545,90
60,65.56818181818181,90
60,65.72727272727272,90
60,65.87727272727273,90
60,66.02727272727273,90
60,66.175,90
60,66.325,90
60,66.48636363636363,90
60,66.625,90
60,66.7840909090909,90
60,66.92272727272727,90
60,67.08181818181818,90
60,67.23181818181818,90
60,67.38181818181818,90
60,67.52045454545454,90
60,67.67954545454545,90
60,67.82954545454545,90
60,67.97954545454544,90
60,68.12727272727273,90
60,68.28863636363636,90
60,68.42727272727272,90
60,68.58636363636363,90
60,68.73636363636363,90
60,68.88636363636363,90
60,69.02499999999999,90
60,69.18409090909091,90
60,69.32272727272726,90
60,69.47272727272727,90
60,69.63181818181818,90
60,69.78181818181818,90
60,69.92954545454545,90
60,70.52727272727273,90
60,71.125,90
60,72.32954545454545,90
60,72.49090909090908,90
60,72.55454545454545,90
60,72.64090909090909,90
60,72.77954545454546,90
60,72.92727272727272,90
60,73.08863636363635,90
60,73.22727272727272,90
60,73.38636363636363,90
60,73.53636363636363,90
60,73.68636363636364,90
60,73.8340909090909,90
60,73.98409090909091,90
60,74.1340909090909,90
60,74.29318181818182,90
60,74.43181818181817,90
60,74.5909090909091,90
60,74.72954545454544,90
60,74.89090909090909,90
60,75.04090909090908,90
60,75.17954545454545,90
60,75.33863636363635,90
60,75.48863636363636,90
60,75.63636363636363,90
60,75.78636363636363,90
60,75.93636363636364,90
60,76.08636363636363,90
60,76.23409090909091,90
60,76.39545454545454,90
60,76.5340909090909,90
60,76.69318181818181,90
60,76.84318181818182,90
60,76.99090909090908,90
60,77.12954545454545,90
60,77.29090909090908,90
60,77.44090909090909,90
60,77.58863636363635,90
60,77.73863636363636,90
60,77.88863636363637,90
60,78.03636363636363,90
60,78.19772727272726,90
60,78.33636363636363,90
60,78.49545454545454,90
60,78.6340909090909,90
60,78.79545454545455,90
60,78.94318181818181,90
60,79.09318181818182,90
60,79.24318181818181,90
60,79.39090909090909,90
60,79.54090909090908,90
60,79.69090909090909,90
60,79.8409090909091,90
60,79.97954545454544,90
60,80.13863636363637,90
60,80.29772727272727,90
60,80.43636363636364,90
60,80.59772727272727,90
60,80.74772727272727,90
60,80.89545454545454,90
60,81.0340909090909,90
60,81.19545454545454,90
60,81.34318181818182,90
60,81.49318181818181,90
60,81.64318181818182,90
60,81.79090909090908,90
60,81.94090909090909,90
60,82.10227272727272,90
60,82.175,90
60,82.25,90
60,82.38863636363637,90
60,82.53863636363636,90
60,82.69772727272726,90
60,82.83636363636363,90
60,82.99772727272727,90
60,83.14772727272727,90
60,83.29545454545455,90
60,83.44545454545454,90
60,83.59545454545454,90
60,83.74318181818181,90
60,83.89318181818182,90
60,84.04318181818181,90
60,84.20227272727273,90
60,84.3409090909091,90
60,84.50227272727273,90
60,84.64999999999999,90
60,84.78863636363636,90
60,84.95,90
60,85.09772727272727,90
60,85.23636363636363,90
60,85.39772727272727,90
60,85.54772727272727,90
60,85.69545454545454,90
60,85.84545454545454,90
60,85.99545454545454,90
60,86.14318181818182,90
60,86.30454545454545,90
60,86.45227272727273,90
60,86.60227272727272,90
60,86.74090909090908,90
60,86.90227272727272,90
60,87.05,90
60,87.18863636363636,90
60,87.35,90
60,87.49772727272727,90
60,87.64772727272727,90
60,87.79772727272727,90
60,87.94772727272726,90
60,88.10681818181818,90
60,88.24545454545454,90
60,88.40454545454546,90
60,88.54318181818181,90
60,88.70454545454545,90
60,88.85227272727272,90
60,89.00227272727273,90
60,89.15227272727272,90
60,89.30227272727272,90
60,89.34318181818182,90
60,89.44999999999999,90
60,89.6,90
60,89.75,90
60,89.89772727272727,90
60,90.04772727272727,90
60,90.19772727272726,90
60,90.34772727272727,90
60,90.50681818181818,90
60,90.58181818181818,90
60,90.65681818181818,90
60,90.95454545454545,90
60,91.55227272727272,90
60,91.86136363636363,90
60,92.02045454545454,90
60,92.14999999999999,90
60,92.4590909090909,90
60,92.90681818181818,90
60,93.05681818181817,90
60,93.35454545454544,90
60,93.66363636363636,90
60,93.95227272727273,90
60,94.26136363636363,90
60,94.39999999999999,90
60,94.5590909090909,90
60,96.35227272727272,90
60,96.51136363636363,90
60,96.66136363636363,90
60,96.81136363636364,90
60,96.9590909090909,90
60,97.10909090909091,90
60,97.2590909090909,90
60,97.41818181818181,90
60,97.56818181818181,90
60,97.71818181818182,90
60,97.85681818181818,90
60,98.01590909090909,90
60,98.16590909090908,90
60,98.31363636363636,90
60,98.46363636363635,90
60,98.61363636363636,90
60,98.76363636363637,90
60,98.91136363636363,90
60,99.06136363636364,90
60,99.21136363636363,90
60,99.35909090909091,90
60,99.52045454545454,90
60,99.6590909090909,90
60,99.81818181818181,90
60,99.96818181818182,90
60,100.11818181818181,90
60,100.25681818181818,90
60,100.41590909090908,90
60,100.56590909090909,90
60,100.71363636363635,90
60,100.86363636363636,90
60,101.01363636363637,90
60,101.16363636363636,90
60,101.32272727272726,90
60,101.46136363636363,90
60,101.61136363636363,90
60,101.7590909090909,90
60,101.92045454545455,90
60,102.0590909090909,90
60,102.21818181818182,90
60,102.36818181818181,90
60,102.51818181818182,90
60,102.66590909090908,90
60,102.81590909090909,90
60,102.96590909090908,90
60,103.11363636363636,90
60,103.26363636363637,90
60,103.425,90
60,105.97272727272727,90
60,106.12272727272726,90
60,106.27272727272727,90
60,106.42045454545455,90
60,106.57045454545454,90
60,106.72954545454544,90
60,106.87045454545454,90
60,107.02954545454546,90
60,107.16818181818181,90
60,107.32727272727273,90
60,107.47727272727272,90
60,107.62727272727273,90
60,107.77499999999999,90
60,107.925,90
60,108.07499999999999,90
60,108.225,90
60,108.37272727272726,90
60,108.5340909090909,90
60,108.68181818181817,90
60,108.82045454545454,90
60,108.97045454545454,90
60,109.12954545454545,90
60,109.27045454545454,90
60,109.42954545454545,90
60,109.57954545454545,90
60,109.72727272727272,90
60,109.87727272727273,90
60,110.02727272727272,90
60,110.175,90
60,110.33636363636363,90
60,110.475,90
60,110.6340909090909,90
60,110.77272727272727,90
60,110.9340909090909,90
60,111.08181818181818,90
60,111.22045454545454,90
60,111.38181818181818,90
60,111.52954545454546,90
60,111.67045454545455,90
60,111.82954545454545,90
60,111.97954545454544,90
60,112.12727272727273,90
60,112.28863636363636,90
60,112.42727272727272,90
60,112.57499999999999,90
60,112.73636363636363,90
60,112.875,90
60,113.0340909090909,90
60,113.17272727272727,90
60,113.3340909090909,90
60,113.48181818181817,90
60,113.62045454545454,90
60,113.78181818181818,90
60,113.92954545454545,90
60,114.07954545454545,90
60,114.22954545454544,90
60,114.37954545454545,90
60,114.52727272727272,90
60,114.67727272727272,90
60,114.82727272727273,90
60,114.98636363636363,90
60,115.13636363636363,90
60,115.27499999999999,90
60,115.4340909090909,90
60,116.77954545454544,90
60,116.93863636363636,90
60,117.23636363636363,90
60,117.97272727272727,90
60,118.14318181818182,90
60,118.29318181818181,90
60,118.43181818181817,90
60,118.58181818181818,90
60,118.74090909090908,90
60,118.87954545454545,90
60,119.04090909090908,90
60,119.18863636363636,90
60,119.33863636363635,90
60,119.47727272727272,90
60,119.63636363636363,90
60,119.78636363636363,90
60,119.93636363636364,90
60,120.08636363636363,90
60,120.23409090909091,90
60,120.3840909090909,90
60,120.54318181818181,90
60,120.69318181818181,90
60,120.83181818181818,90
60,120.98181818181817,90
60,121.14090909090909,90
60,121.27954545454544,90
60,121.44090909090909,90
60,121.58863636363635,90
60,121.73863636363636,90
60,121.88863636363635,90
60,122.03636363636363,90
60,122.18636363636364,90
60,122.34772727272727,90
60,122.48636363636363,90
60,122.64545454545454,90
60,122.7840909090909,90
60,122.94318181818181,90
60,123.09318181818182,90
60,123.23181818181817,90
60,123.39090909090909,90
60,123.54090909090908,90
60,123.69090909090909,90
60,123.84090909090908,90
60,123.98863636363636,90
60,124.14999999999999,90
60,124.225,90
60,124.28863636363636,90
60,124.43636363636364,90
60,124.58636363636363,90
60,124.74772727272726,90
60,124.89545454545454,90
60,125.04545454545453,90
60,125.1840909090909,90
60,125.34318181818182,90
60,125.49318181818181,90
60,125.64318181818182,90
60,125.79090909090908,90
60,125.94090909090909,90
60,126.09090909090908,90
60,126.24090909090908,90
60,126.38863636363635,90
60,126.55,90
60,126.625,90
60,126.68863636363636,90
60,126.84772727272727,90
60,126.98636363636363,90
60,127.13636363636363,90
60,127.29545454545453,90
60,127.44545454545454,90
60,127.5840909090909,90
60,127.74318181818181,90
60,127.89318181818182,90
60,128.0431818181818,90
60,128.1909090909091,90
60,128.35227272727272,90
60,128.49090909090907,90
60,128.65,90
60,128.79999999999998,90
60,128.95,90
60,129.025,90
60,129.08863636363637,90
60,129.24772727272727,90
60,129.39772727272728,90
60,129.54772727272726,90
60,129.69545454545454,90
60,129.84545454545454,90
60,129.99545454545455,90
60,130.1431818181818,90
60,130.2931818181818,90
60,130.4431818181818,90
60,130.5909090909091,90
60,130.75227272727273,90
60,130.89090909090908,90
60,131.04999999999998,90
60,131.2,90
60,131.35,90
60,131.42499999999998,90
60,131.48863636363635,90
60,131.64772727272728,90
60,131.79772727272726,90
60,131.94772727272726,90
60,132.09545454545454,90
60,132.24545454545455,90
60,132.39545454545453,90
60,132.55454545454546,90
60,132.70454545454544,90
60,132.84318181818182,90
60,133.00227272727273,90
60,133.15227272727273,90
60,133.29090909090908,90
60,133.45,90
60,133.6,90
60,133.75,90
60,133.8340909090909,90
60,133.89772727272725,90
60,134.04772727272726,90
60,134.19772727272726,90
60,134.35681818181817,90
60,134.50681818181818,90
60,134.65681818181818,90
60,134.79545454545453,90
60,134.95454545454544,90
60,135.10454545454544,90
60,135.24318181818182,90
60,135.40227272727273,90
60,135.5522727272727,90
60,135.7022727272727,90
60,135.85,90
60,136.0,90
60,136.1590909090909,90
60,136.2340909090909,90
60,136.29772727272726,90
60,136.4590909090909,90
60,136.59772727272727,90
60,136.74772727272727,90
60,136.90681818181818,90
60,137.0568181818182,90
60,137.20454545454544,90
60,137.50454545454545,90
60,137.65227272727273,90
60,137.8022727272727,90
60,138.10227272727272,90
60,138.26136363636363,90
60,138.41136363636363,90
60,138.7090909090909,90
60,139.0090909090909,90
60,139.3068181818182,90
60,139.4659090909091,90
60,139.60454545454544,90
60,139.90454545454546,90
60,140.0522727272727,90
60,140.2022727272727,90
60,140.51136363636363,90
60,140.67272727272726,90
60,140.81136363636364,90
60,140.9590909090909,90
60,141.1090909090909,90
60,141.4090909090909,90
60,141.5681818181818,90
60,141.70681818181816,90
60,141.86590909090907,90
60,142.00454545454545,90
60,142.30454545454546,90
60,142.4522727272727,90
60,142.60227272727272,90
60,142.77272727272725,90
60,142.91136363636363,90
60,143.07272727272726,90
60,143.21136363636364,90
60,143.3590909090909,90
60,143.5090909090909,90
60,143.8090909090909,90
60,144.10681818181817,90
60,144.26590909090908,90
60,144.41590909090908,90
60,144.71363636363637,90
60,144.86363636363635,90
60,145.01363636363635,90
60,145.31136363636364,90
60,145.47272727272727,90
60,145.61136363636362,90
60,145.77045454545453,90
60,145.9090909090909,90
60,146.0590909090909,90
60,146.2090909090909,90
60,146.36818181818182,90
60,146.5181818181818,90
60,146.66590909090908,90
60,146.80454545454543,90
60,146.975,90
60,147.11363636363635,90
60,147.26363636363635,90
60,147.41363636363636,90
60,147.57272727272726,90
60,147.71136363636364,90
60,147.86136363636362,90
60,148.01136363636363,90
60,148.17045454545453,90
60,148.3090909090909,90
60,148.47045454545454,90
60,148.61818181818182,90
60,148.9181818181818,90
60,149.0659090909091,90
60,149.2159090909091,90
60,149.36590909090907,90
60,149.51363636363635,90
60,149.66363636363636,90
60,149.81363636363636,90
60,149.97272727272727,90
60,150.11136363636362,90
60,150.26136363636363,90
60,150.42045454545453,90
60,150.57045454545454,90
60,150.72045454545454,90
60,150.87045454545455,90
60,151.0181818181818,90
60,151.1681818181818,90
60,151.3181818181818,90
60,151.4659090909091,90
60,151.61590909090907,90
60,151.76590909090908,90
60,151.91363636363636,90
60,152.06363636363636,90
60,152.21363636363637,90
60,152.36363636363635,90
60,152.52272727272725,90
60,152.67272727272726,90
60,152.82045454545454,90
60,152.97045454545454,90
60,153.12045454545455,90
60,153.27045454545453,90
60,153.4181818181818,90
60,153.5681818181818,90
60,153.71818181818182,90
60,153.86590909090907,90
60,154.01590909090908,90
60,154.16590909090908,90
60,154.31363636363636,90
60,154.475,90
60,154.625,90
60,154.77272727272725,90
60,154.92272727272726,90
60,155.07272727272726,90
60,155.22045454545454,90
60,155.41363636363636,90
60,155.47727272727272,90
60,155.67045454545453,90
60,155.82954545454544,90
60,156.41590909090908,90
60,156.58636363636361,90
60,156.725,90
60,156.875,90
60,157.025,90
60,157.1840909090909,90
60,157.32272727272726,90
60,157.48181818181817,90
60,157.62045454545455,90
60,157.78181818181818,90
60,157.92045454545453,90
60,158.07954545454544,90
60,158.21818181818182,90
60,158.37954545454545,90
60,158.52727272727273,90
60,158.6772727272727,90
60,158.8272727272727,90
60,158.975,90
60,159.125,90
60,159.275,90
60,159.42499999999998,90
60,159.5840909090909,90
60,159.72272727272727,90
60,159.88181818181818,90
60,160.03181818181818,90
60,160.1818181818182,90
60,160.32045454545454,90
60,160.47954545454544,90
60,160.62954545454545,90
60,160.77954545454546,90
60,160.9272727272727,90
60,161.0772727272727,90
60,161.22727272727272,90
60,161.375,90
60,161.525,90
60,161.67499999999998,90
60,161.825,90
60,161.9840909090909,90
60,162.12272727272727,90
60,162.28181818181818,90
60,162.4318181818182,90
60,162.58181818181816,90
60,162.72954545454544,90
60,162.87954545454545,90
60,163.02954545454546,90
60,163.17954545454543,90
60,163.3272727272727,90
60,163.47727272727272,90
60,163.62727272727273,90
60,163.78636363636363,90
60,163.93636363636364,90
60,164.075,90
60,164.225,90
60,164.3840909090909,90
60,164.52272727272725,90
60,164.6818181818182,90
60,164.83181818181816,90
60,164.98181818181817,90
60,165.12954545454545,90
60,165.27954545454546,90
60,165.42954545454543,90
60,165.58863636363637,90
60,165.73863636363635,90
60,165.88863636363635,90
60,166.6340909090909,90
60,167.82954545454544,90
60,169.0340909090909,90
60,170.24090909090907,90
60,171.4340909090909,90
60,172.64090909090908,90
60,173.8340909090909,90
60,175.04999999999998,90
60,176.24545454545455,90
60,177.4409090909091,90
60,178.64545454545453,90
60,42.293181818181814,90
60,43.15681818181818,90
60,43.60454545454545,90
60,44.03181818181818,90
60,44.459090909090904,90
60,44.89545454545454,90
60,45.34318181818182,90
60,45.77045454545454,90
60,46.63409090909091,90
60,47.08181818181818,90
60,47.50909090909091,90
60,47.93636363636364,90
60,48.37272727272727,90
60,48.81136363636364,90
60,49.24772727272727,90
60,50.111363636363635,90
60,50.570454545454545,90
60,50.986363636363635,90
60,51.425,90
60,51.849999999999994,90
60,52.309090909090905,90
60,52.724999999999994,90
60,53.58863636363636,90
60,54.04772727272727,90
60,54.46363636363636,90
60,54.902272727272724,90
60,55.32727272727273,90
60,55.775,90
60,56.20227272727273,90
60,57.06590909090909,90
60,57.94090909090909,90
60,58.37954545454545,90
60,58.804545454545455,90
60,59.26363636363636,90
60,59.679545454545455,90
60,60.127272727272725,90
60,60.554545454545455,90
60,61.429545454545455,90
60,61.85681818181818,90
60,62.293181818181814,90
60,62.72954545454545,90
60,63.15681818181818,90
60,69.0340909090909,90
60,69.24772727272727,90
60,69.68636363636364,90
60,70.12272727272727,90
60,70.55909090909091,90
60,70.98636363636363,90
60,71.425,90
60,71.64772727272727,90
60,71.86136363636363,90
60,72.29772727272727,90
60,72.725,90
60,73.16363636363636,90
60,73.6,90
60,74.03636363636363,90
60,74.46363636363635,90
60,74.90227272727272,90
60,75.125,90
60,75.33863636363635,90
60,75.77499999999999,90
60,76.20227272727273,90
60,76.64090909090909,90
60,77.07727272727273,90
60,79.4659090909091,90
60,79.67954545454545,90
60,80.11818181818181,90
60,80.55454545454545,90
60,80.99090909090908,90
60,81.41818181818181,90
60,81.85681818181818,90
60,82.29318181818181,90
60,82.72045454545454,90
60,83.15681818181818,90
60,83.59545454545454,90
60,83.81818181818181,90
60,84.03181818181818,90
60,84.47045454545454,90
60,84.89545454545454,90
60,85.3340909090909,90
60,85.77045454545454,90
60,86.2090909090909,90
60,86.6340909090909,90
60,87.07272727272726,90
60,87.5090909090909,90
60,87.94772727272726,90
60,88.37272727272727,90
60,88.82045454545454,90
60,89.24772727272727,90
60,89.68636363636364,90
60,90.11136363636363,90
60,90.5590909090909,90
60,90.77272727272727,90
60,90.98636363636363,90
60,91.85,90
60,92.29772727272727,90
60,92.725,90
60,93.16363636363636,90
60,93.6,90
60,94.03636363636363,90
60,94.46363636363635,90
60,94.91136363636363,90
60,95.33863636363635,90
60,95.77499999999999,90
60,96.21363636363635,90
60,96.64090909090909,90
60,97.07727272727273,90
60,97.51363636363637,90
60,97.72727272727272,90
60,97.94090909090909,90
60,98.38863636363637,90
60,98.81590909090909,90
60,99.25227272727273,90
60,99.67954545454545,90
60,100.12727272727273,90
60,100.55454545454545,90
60,100.99090909090908,90
60,101.41818181818181,90
60,101.86590909090908,90
60,102.29318181818181,90
60,102.51818181818182,90
60,102.72954545454544,90
60,102.95454545454545,90
60,103.15681818181818,90
60,103.60454545454544,90
60,104.03181818181818,90
60,104.47045454545454,90
60,104.68181818181817,90
60,104.89545454545454,90
60,105.3340909090909,90
60,105.77045454545454,90
60,106.21818181818182,90
60,106.43181818181817,90
60,106.6340909090909,90
60,107.08181818181818,90
60,107.5090909090909,90
60,107.94772727272726,90
60,108.1590909090909,90
60,108.3840909090909,90
60,108.81136363636364,90
60,109.24772727272726,90
60,109.69545454545454,90
60,109.9090909090909,90
60,110.11136363636363,90
60,110.5590909090909,90
60,110.7840909090909,90
60,110.98636363636363,90
60,111.63636363636363,90
60,111.85,90
60,112.28863636363636,90
60,112.725,90
60,113.17272727272727,90
60,113.6,90
60,114.04772727272727,90
60,114.26136363636363,90
60,114.46363636363635,90
60,114.91136363636363,90
60,115.11363636363636,90
60,115.32727272727273,90
60,115.55227272727272,90
60,115.77499999999999,90
60,116.20227272727273,90
60,116.64999999999999,90
60,117.07727272727273,90
60,117.51363636363635,90
60,117.73863636363636,90
60,117.94090909090909,90
60,118.38863636363635,90
60,118.59090909090908,90
60,118.81590909090909,90
60,119.25227272727273,90
60,119.67954545454545,90
60,120.12727272727273,90
60,120.34090909090908,90
60,120.55454545454545,90
60,120.76818181818182,90
60,120.99090909090908,90
60,121.4090909090909,90
60,121.86590909090908,90
60,122.07954545454545,90
60,122.28181818181818,90
60,122.50681818181818,90
60,122.72954545454544,90
60,123.15681818181818,90
60,123.60454545454544,90
60,123.82954545454545,90
60,124.03181818181818,90
60,124.24545454545454,90
60,124.47045454545454,90
60,124.89545454545454,90
60,125.34318181818182,90
60,125.55681818181817,90
60,125.77045454545454,90
60,125.99545454545454,90
60,126.2090909090909,90
60,126.6340909090909,90
60,127.08181818181818,90
60,127.31818181818181,90
60,127.5090909090909,90
60,127.72272727272727,90
60,127.94772727272726,90
60,128.37272727272727,90
60,128.82045454545454,90
60,129.0340909090909,90
60,129.24772727272727,90
60,129.47272727272727,90
60,129.68636363636364,90
60,130.11136363636362,90
60,130.5590909090909,90
60,130.7840909090909,90
60,130.98636363636362,90
60,131.2,90
60,131.42499999999998,90
60,131.85,90
60,132.29772727272726,90
60,132.51136363636363,90
60,132.725,90
60,132.93863636363636,90
60,133.16363636363636,90
60,133.58863636363637,90
60,134.03636363636363,90
60,134.26136363636363,90
60,134.46363636363637,90
60,134.66590909090908,90
60,134.91136363636363,90
60,135.3272727272727,90
60,135.775,90
60,135.98863636363635,90
60,136.2022727272727,90
60,136.41590909090908,90
60,136.64090909090908,90
60,137.0659090909091,90
60,137.51363636363635,90
60,137.75,90
60,137.9409090909091,90
60,138.16590909090908,90
60,138.37954545454545,90
60,138.60227272727272,90
60,138.8159090909091,90
60,139.02954545454546,90
60,139.24318181818182,90
60,139.48863636363635,90
60,139.67954545454546,90
60,140.5431818181818,90
60,140.99090909090907,90
60,141.20454545454544,90
60,141.4181818181818,90
60,141.6431818181818,90
60,141.85681818181817,90
60,142.28181818181818,90
60,142.72954545454544,90
60,142.9431818181818,90
60,143.15681818181818,90
60,143.38181818181818,90
60,143.60454545454544,90
60,144.02045454545453,90
60,144.47045454545454,90
60,144.6818181818182,90
60,144.89545454545453,90
60,145.12045454545455,90
60,145.3340909090909,90
60,145.7590909090909,90
60,146.21818181818182,90
60,146.42045454545453,90
60,146.6340909090909,90
60,146.8590909090909,90
60,147.08181818181816,90
60,147.5090909090909,90
60,147.94772727272726,90
60,148.1590909090909,90
60,148.37272727272727,90
60,148.59772727272727,90
60,148.81136363636364,90
60,149.23636363636362,90
60,149.47272727272727,90
60,149.68636363636364,90
60,149.89772727272725,90
60,150.12272727272727,90
60,150.33636363636364,90
60,150.5590909090909,90
60,150.77272727272725,90
60,150.975,90
60,151.21136363636364,90
60,151.42499999999998,90
60,151.63636363636363,90
60,151.86136363636362,90
60,152.075,90
60,152.29772727272726,90
60,152.51136363636363,90
60,152.71363636363637,90
60,152.93863636363636,90
60,153.15227272727273,90
60,153.375,90
60,153.6,90
60,153.81363636363636,90
60,154.03636363636363,90
60,154.25,90
60,154.46363636363637,90
60,154.68863636363636,90
60,154.90227272727273,90
60,155.11363636363635,90
60,155.33863636363637,90
60,155.5522727272727,90
60,155.775,90
60,156.0,90
60,156.2022727272727,90
60,156.4272727272727,90
60,156.64090909090908,90
60,156.85227272727272,90
60,157.0772727272727,90
60,157.3022727272727,90
60,157.51363636363635,90
60,157.73863636363635,90
60,157.92954545454543,90
60,158.16590909090908,90
60,158.37954545454545,90
60,158.5909090909091,90
60,158.8159090909091,90
60,159.02954545454546,90
60,159.25227272727273,90
60,159.47727272727272,90
60,159.67045454545453,90
60,159.90454545454546,90
60,160.11818181818182,90
60,160.32954545454544,90
60,160.55454545454543,90
60,160.7681818181818,90
60,160.99090909090907,90
60,161.2159090909091,90
60,161.4181818181818,90
60,161.6431818181818,90
60,161.85681818181817,90
60,162.07045454545454,90
60,162.2931818181818,90
60,162.50681818181818,90
60,162.72954545454544,90
60,162.95454545454544,90
60,163.14772727272725,90
60,163.60454545454544,90
60,163.8090909090909,90
60,164.03181818181818,90
60,177.9409090909091,90
60,178.37954545454545,90
60,178.60227272727272,90
60,178.80454545454543,90
60,179.67954545454543,90
60,179.90454545454546,90
60,180.12727272727273,90
60,180.32954545454544,90
60,180.55454545454543,90
60,180.7681818181818,90
60,180.99090909090907,90
60,181.20454545454544,90
60,181.4181818181818,90
60,182.2931818181818,90
60,183.15681818181818,90
60,183.59545454545454,90
60,184.03181818181818,90
60,184.90681818181818,90
60,185.77045454545453,90
60,186.64545454545453,90
60,187.07272727272726,90
60,187.5090909090909,90
60,188.3840909090909,90
60,189.24772727272727,90
60,190.12272727272727,90
60,190.54999999999998,90
60,190.98636363636362,90
60,191.86136363636362,90
60,20.26590909090909,90
60,22.625,90
60,24.970454545454544,90
60,29.097727272727273,90
60,29.674999999999997,90
60,29.995454545454542,90
60,30.27272727272727,90
60,30.581818181818182,90
60,30.729545454545452,90
60,30.85909090909091,90
60,31.15681818181818,90
60,31.445454545454545,90
60,31.754545454545454,90
60,32.03181818181818,90
60,32.340909090909086,90
60,32.61818181818182,90
60,32.92727272727272,90
60,33.08863636363636,90
60,33.20454545454545,90
60,33.50454545454545,90
60,33.80227272727272,90
60,34.10227272727273,90
60,34.388636363636365,90
60,34.68863636363636,90
60,34.975,90
60,35.275,90
60,35.445454545454545,90
60,35.56363636363636,90
60,35.861363636363635,90
60,36.15,90
60,36.45909090909091,90
60,36.736363636363635,90
60,37.04545454545455,90
60,37.32272727272727,90
60,37.63181818181818,90
60,37.80227272727272,90
60,37.92045454545455,90
60,38.20909090909091,90
60,38.50681818181818,90
60,38.804545454545455,90
60,39.09318181818182,90
60,39.402272727272724,90
60,39.679545454545455,90
60,39.98863636363636,90
60,40.15,90
60,40.26590909090909,90
60,40.56590909090909,90
60,40.85227272727273,90
60,41.163636363636364,90
60,41.44090909090909,90
60,41.75,90
60,42.03636363636363,90
60,42.336363636363636,90
60,42.50681818181818,90
60,42.625,90
60,42.92272727272727,90
60,43.211363636363636,90
60,43.52045454545454,90
60,43.79772727272727,90
60,44.10681818181818,90
60,44.38409090909091,90
60,44.69318181818181,90
60,44.85227272727273,90
60,44.970454545454544,90
60,45.27045454545454,90
60,45.56818181818181,90
60,45.86590909090909,90
60,46.15454545454545,90
60,46.45227272727273,90
60,46.74090909090909,90
60,47.04090909090909,90
60,47.211363636363636,90
60,47.32727272727273,90
60,47.50909090909091,90
60,47.627272727272725,90
60,47.925,90
60,48.224999999999994,90
60,48.502272727272725,90
60,49.08863636363636,90
60,49.39772727272727,90
60,49.56818181818181,90
60,49.68636363636364,90
60,49.97272727272727,90
60,50.27272727272727,90
60,50.570454545454545,90
60,50.85909090909091,90
60,51.15681818181818,90
60,51.445454545454545,90
60,51.75454545454545,90
60,51.913636363636364,90
60,52.03181818181818,90
60,52.32954545454545,90
60,52.61818181818182,90
60,52.92727272727272,90
60,53.20454545454545,90
60,53.51363636363636,90
60,53.80227272727272,90
60,54.10227272727273,90
60,54.27272727272727,90
60,54.38863636363636,90
60,54.68863636363636,90
60,54.974999999999994,90
60,55.275,90
60,55.56363636363636,90
60,55.87272727272727,90
60,56.15,90
60,56.459090909090904,90
60,56.61818181818182,90
60,56.736363636363635,90
60,57.03409090909091,90
60,57.32272727272727,90
60,57.631818181818176,90
60,57.92045454545454,90
60,58.21818181818182,90
60,58.506818181818176,90
60,58.804545454545455,90
60,58.974999999999994,90
60,59.09318181818182,90
60,59.39090909090909,90
60,59.679545454545455,90
60,59.98863636363636,90
60,60.26590909090909,90
60,60.574999999999996,90
60,60.85227272727273,90
60,61.163636363636364,90
60,61.334090909090904,90
60,61.449999999999996,90
60,61.73863636363636,90
60,62.03636363636363,90
60,62.336363636363636,90
60,62.625,90
60,62.92272727272727,90
60,63.211363636363636,90
60,63.52045454545454,90
60,63.679545454545455,90
60,63.79772727272727,90
60,64.09545454545454,90
60,64.3840909090909,90
60,64.69318181818181,90
60,64.97045454545454,90
60,65.27954545454546,90
60,65.56818181818181,90
60,65.86590909090908,90
60,66.03636363636363,90
60,66.15454545454546,90
60,66.33636363636363,90
60,66.45227272727273,90
60,66.74090909090908,90
60,67.05,90
60,67.21136363636363,90
60,67.33863636363635,90
60,67.63636363636363,90
60,67.91363636363636,90
60,68.225,90
60,68.3840909090909,90
60,68.50227272727273,90
60,68.8,90
60,69.08863636363635,90
60,69.39772727272727,90
60,69.68636363636364,90
60,69.98409090909091,90
60,70.27272727272727,90
60,70.57045454545454,90
60,70.74090909090908,90
60,70.85909090909091,90
60,71.15681818181818,90
60,71.44545454545454,90
60,71.74318181818181,90
60,72.03181818181818,90
60,72.3409090909091,90
60,72.61818181818181,90
60,72.92727272727272,90
60,73.08863636363635,90
60,73.20454545454545,90
60,73.50454545454545,90
60,73.80227272727272,90
60,74.10227272727272,90
60,74.38863636363637,90
60,74.68863636363636,90
60,74.975,90
60,75.28636363636363,90
60,75.44545454545454,90
60,75.56363636363636,90
60,75.74318181818181,90
60,75.86136363636363,90
60,76.14999999999999,90
60,76.4590909090909,90
60,76.73636363636363,90
60,77.04545454545455,90
60,77.3340909090909,90
60,77.64318181818182,90
60,77.80227272727272,90
60,77.92045454545455,90
60,78.2090909090909,90
60,78.50681818181818,90
60,78.80454545454545,90
60,79.09318181818182,90
60,79.39090909090909,90
60,79.67954545454545,90
60,79.98863636363636,90
60,80.14999999999999,90
60,80.26590909090909,90
60,80.56590909090909,90
60,80.85227272727272,90
60,81.16363636363636,90
60,81.44090909090909,90
60,81.75,90
60,82.03636363636363,90
60,82.33636363636363,90
60,82.50681818181818,90
60,82.625,90
60,82.92272727272727,90
60,83.21136363636363,90
60,83.5090909090909,90
60,83.79772727272727,90
60,85.56818181818181,90
60,86.15454545454546,90
60,86.74090909090908,90
60,87.91363636363636,90
60,89.08863636363635,90
60,90.27272727272727,90
60,91.44545454545454,90
60,92.61818181818181,90
60,93.80227272727272,90
60,94.975,90
60,96.14999999999999,90
60,97.3340909090909,90
60,98.50681818181818,90
60,99.67954545454545,90
60,100.85227272727272,90
60,102.03636363636363,90
60,103.21136363636363,90
60,104.3840909090909,90
60,104.68181818181817,90
60,104.97045454545454,90
60,105.27954545454546,90
60,105.56818181818181,90
60,105.87727272727273,90
60,106.175,90
60,106.46363636363635,90
60,106.74090909090908,90
60,107.05,90
60,107.32727272727273,90
60,107.63636363636363,90
60,107.91363636363636,90
60,108.225,90
60,108.52272727272727,90
60,108.82045454545454,90
60,109.09772727272727,90
60,109.4090909090909,90
60,109.68636363636364,90
60,109.99545454545454,90
60,110.27272727272727,90
60,110.58181818181818,90
60,110.87954545454545,90
60,111.16818181818181,90
60,111.44545454545454,90
60,112.04318181818181,90
60,118.2090909090909,90
60,118.46363636363635,90
60,118.49545454545454,90
60,119.09318181818182,90
60,119.67954545454545,90
60,120.14999999999999,90
60,120.27727272727272,90
60,120.56590909090909,90
60,120.86363636363636,90
60,121.44999999999999,90
60,121.7590909090909,90
60,122.03636363636363,90
60,122.34772727272727,90
60,122.50681818181818,90
60,122.625,90
60,122.92272727272727,90
60,123.21136363636363,90
60,123.79772727272727,90
60,124.3840909090909,90
60,124.86363636363636,90
60,124.98181818181817,90
60,125.27045454545454,90
60,125.56818181818181,90
60,126.15454545454544,90
60,126.46363636363635,90
60,126.74090909090908,90
60,127.05,90
60,127.21136363636363,90
60,127.32727272727273,90
60,127.62727272727273,90
60,127.91363636363636,90
60,128.225,90
60,128.51136363636363,90
60,128.81136363636364,90
60,129.09772727272727,90
60,129.5681818181818,90
60,129.68636363636364,90
60,129.9840909090909,90
60,130.27272727272728,90
60,130.58181818181816,90
60,130.8590909090909,90
60,131.1681818181818,90
60,131.44545454545454,90
60,131.75454545454545,90
60,131.91363636363636,90
60,132.0431818181818,90
60,132.32954545454544,90
60,132.61818181818182,90
60,133.2159090909091,90
60,133.8022727272727,90
60,134.27272727272725,90
60,134.38863636363635,90
60,134.68863636363636,90
60,134.975,90
60,135.28636363636363,90
60,135.56363636363636,90
60,135.87272727272727,90
60,136.15,90
60,136.4590909090909,90
60,136.61818181818182,90
60,136.74772727272727,90
60,136.9181818181818,90
60,137.0340909090909,90
60,137.3340909090909,90
60,137.92045454545453,90
60,138.50681818181818,90
60,138.975,90
60,139.09318181818182,90
60,139.39090909090908,90
60,139.67954545454546,90
60,139.98863636363635,90
60,140.27727272727273,90
60,140.575,90
60,140.86363636363635,90
60,141.3340909090909,90
60,141.45,90
60,141.73863636363635,90
60,142.03636363636363,90
60,142.625,90
60,142.9340909090909,90
60,143.21136363636364,90
60,143.52045454545453,90
60,143.67954545454543,90
60,143.79772727272726,90
60,144.09545454545454,90
60,144.3840909090909,90
60,144.98181818181817,90
60,145.5681818181818,90
60,146.03636363636363,90
60,146.15454545454546,90
60,146.4522727272727,90
60,146.74090909090907,90
60,147.3272727272727,90
60,147.63636363636363,90
60,147.91363636363636,90
60,148.3840909090909,90
60,148.51136363636363,90
60,148.79999999999998,90
60,149.09772727272727,90
60,149.39772727272725,90
60,149.68636363636364,90
60,149.9840909090909,90
60,150.27272727272725,90
60,150.57045454545454,90
60,150.74090909090907,90
60,150.8590909090909,90
60,151.15681818181818,90
60,151.44545454545454,90
60,151.74318181818182,90
60,152.0431818181818,90
60,152.3409090909091,90
60,152.61818181818182,90
60,152.9272727272727,90
60,153.09772727272727,90
60,153.2159090909091,90
60,153.50454545454545,90
60,153.8022727272727,90
60,154.10227272727272,90
60,154.38863636363635,90
60,154.68863636363636,90
60,154.975,90
60,155.275,90
60,155.44545454545454,90
60,155.56363636363636,90
60,155.74318181818182,90
60,155.86136363636362,90
60,156.15,90
60,156.4590909090909,90
60,156.74772727272727,90
60,157.3340909090909,90
60,158.50681818181818,90
60,159.67954545454543,90
60,160.86363636363635,90
60,162.03636363636363,90
60,163.21136363636361,90
60,164.3840909090909,90
60,165.5681818181818,90
60,166.74090909090907,90
60,167.91363636363636,90
60,169.09772727272727,90
60,170.27272727272725,90
60,171.44545454545454,90
60,172.62954545454545,90
60,174.99772727272727,90
60,175.45681818181816,90
60,175.57272727272726,90
60,176.14999999999998,90
60,176.62954545454545,90
60,176.74772727272727,90
60,177.0340909090909,90
60,177.3340909090909,90
60,177.92045454545453,90
60,178.50681818181818,90
60,178.975,90
60,179.09318181818182,90
60,179.27499999999998,90
60,179.39090909090908,90
60,179.57272727272726,90
60,179.67954545454543,90
60,179.98863636363635,90
60,180.17045454545453,90
60,180.27727272727273,90
60,180.4590909090909,90
60,180.575,90
60,180.73636363636362,90
60,180.86363636363635,90
60,181.16363636363636,90
60,181.3340909090909,90
60,181.45,90
60,181.63181818181818,90
60,181.73863636363635,90
60,181.92954545454543,90
60,182.03636363636363,90
60,182.33636363636361,90
60,182.5181818181818,90
60,182.625,90
60,182.92272727272726,90
60,183.21136363636361,90
60,183.41363636363636,90
60,183.5090909090909,90
60,183.67954545454543,90
60,183.79772727272726,90
60,183.97954545454544,90
60,184.09545454545454,90
60,184.27727272727273,90
60,184.3840909090909,90
60,184.6931818181818,90
60,184.875,90
60,0.1590909090909091,90
60,0.32954545454545453,90
60,0.4795454545454545,90
60,0.7568181818181818,90
60,0.9181818181818181,90
60,1.1954545454545453,90
60,1.3545454545454545,90
60,1.4818181818181817,90
60,2.059090909090909,90
60,2.356818181818182,90
60,2.6454545454545455,90
60,2.934090909090909,90
60,3.2204545454545452,90
60,3.5204545454545455,90
60,3.809090909090909,90
60,4.095454545454546,90
60,4.3954545454545455,90
60,4.681818181818182,90
60,4.970454545454545,90
60,5.259090909090909,90
60,5.556818181818182,90
60,5.845454545454545,90
60,6.134090909090909,90
60,6.431818181818182,90
60,6.720454545454545,90
60,7.018181818181818,90
60,7.306818181818182,90
60,7.595454545454545,90
60,7.881818181818182,90
60,8.181818181818182,90
60,8.470454545454546,90
60,8.756818181818181,90
60,9.045454545454545,90
60,9.343181818181817,90
60,9.631818181818181,90
60,9.781818181818181,90
60,10.09090909090909,90
60,10.218181818181817,90
60,10.518181818181818,90
60,10.804545454545455,90
60,11.381818181818181,90
60,11.679545454545455,90
60,11.968181818181817,90
60,12.256818181818181,90
60,12.543181818181818,90
60,12.843181818181817,90
60,13.129545454545454,90
60,13.418181818181818,90
60,13.706818181818182,90
60,14.004545454545454,90
60,14.293181818181818,90
60,14.58181818181818,90
60,14.879545454545454,90
60,15.179545454545455,90
60,15.45681818181818,90
60,15.754545454545454,90
60,16.043181818181818,90
60,16.34090909090909,90
60,16.629545454545454,90
60,16.918181818181818,90
60,17.204545454545453,90
60,17.504545454545454,90
60,17.79090909090909,90
60,18.09090909090909,90
60,18.368181818181817,90
60,18.66590909090909,90
60,18.954545454545453,90
60,19.243181818181817,90
60,19.54090909090909,90
60,19.84090909090909,90
60,20.118181818181817,90
60,20.41590909090909,90
60,20.704545454545453,90
60,20.99090909090909,90
60,21.29090909090909,90
60,21.579545454545453,90
60,21.86590909090909,90
60,22.16590909090909,90
60,22.452272727272724,90
60,22.74090909090909,90
60,23.029545454545453,90
60,23.327272727272724,90
60,23.61590909090909,90
60,23.904545454545453,90
60,24.19090909090909,90
60,24.502272727272725,90
60,24.779545454545453,90
60,25.077272727272724,90
60,25.36590909090909,90
60,25.652272727272727,90
60,25.952272727272724,90
60,26.24090909090909,90
60,26.527272727272727,90
60,26.827272727272724,90
60,27.104545454545452,90
60,27.402272727272727,90
60,27.690909090909088,90
60,27.988636363636363,90
60,28.277272727272727,90
60,28.427272727272726,90
60,28.565909090909088,90
60,28.724999999999998,90
60,28.863636363636363,90
60,29.152272727272727,90
60,29.302272727272726,90
60,29.440909090909088,90
60,30.027272727272727,90
60,30.313636363636363,90
60,30.613636363636363,90
60,30.902272727272727,90
60,31.188636363636363,90
60,31.488636363636363,90
60,31.775,90
60,32.06363636363636,90
60,32.35227272727273,90
60,32.65,90
60,32.93863636363636,90
60,33.22727272727273,90
60,33.513636363636365,90
60,33.81363636363636,90
60,34.10227272727273,90
60,34.4,90
60,34.67727272727272,90
60,34.975,90
60,35.275,90
60,35.55227272727272,90
60,35.85,90
60,36.13863636363636,90
60,36.725,90
60,37.30227272727272,90
60,37.449999999999996,90
60,37.58863636363636,90
60,37.73863636363636,90
60,38.027272727272724,90
60,38.175,90
60,38.486363636363635,90
60,38.625,90
60,38.76363636363636,90
60,39.06136363636364,90
60,39.33863636363636,90
60,39.63636363636363,90
60,39.78636363636363,90
60,39.925,90
60,40.086363636363636,90
60,40.21363636363636,90
60,40.51136363636363,90
60,40.81136363636364,90
60,41.08863636363636,90
60,41.38636363636363,90
60,41.675,90
60,41.97272727272727,90
60,42.111363636363635,90
60,42.26136363636363,90
60,42.41136363636363,90
60,42.55,90
60,42.836363636363636,90
60,43.13636363636363,90
60,43.28636363636363,90
60,43.425,90
60,43.72272727272727,90
60,43.87272727272727,90
60,44.0,90
60,44.29772727272727,90
60,44.44772727272727,90
60,44.586363636363636,90
60,44.736363636363635,90
60,44.875,90
60,45.17272727272727,90
60,45.461363636363636,90
60,45.75,90
60,46.04772727272727,90
60,46.19772727272727,90
60,46.336363636363636,90
60,46.63409090909091,90
60,46.77272727272727,90
60,46.92272727272727,90
60,47.07272727272727,90
60,47.211363636363636,90
60,47.49772727272727,90
60,47.79772727272727,90
60,47.94772727272727,90
60,48.086363636363636,90
60,48.37272727272727,90
60,48.66136363636363,90
60,48.959090909090904,90
60,49.10909090909091,90
60,49.24772727272727,90
60,49.39772727272727,90
60,49.53636363636363,90
60,49.824999999999996,90
60,50.12272727272727,90
60,50.41136363636363,90
60,50.709090909090904,90
60,50.85909090909091,90
60,50.99772727272727,90
60,51.29545454545454,90
60,51.434090909090905,90
60,51.584090909090904,90
60,51.73409090909091,90
60,51.87272727272727,90
60,52.15909090909091,90
60,52.459090909090904,90
60,52.60909090909091,90
60,52.74772727272727,90
60,53.03409090909091,90
60,53.32272727272727,90
60,53.62045454545454,90
60,53.77045454545454,90
60,53.90909090909091,90
60,54.059090909090905,90
60,54.19772727272727,90
60,54.486363636363635,90
60,54.78409090909091,90
60,55.07272727272727,90
60,55.37045454545454,90
60,55.52045454545454,90
60,55.65909090909091,90
60,55.94772727272727,90
60,56.095454545454544,90
60,56.24545454545454,90
60,56.38409090909091,90
60,56.53409090909091,90
60,56.69318181818181,90
60,56.820454545454545,90
60,57.12045454545454,90
60,57.39772727272727,90
60,57.98409090909091,90
60,58.28181818181818,90
60,58.43181818181818,90
60,58.570454545454545,90
60,58.720454545454544,90
60,58.85909090909091,90
60,59.14772727272727,90
60,59.445454545454545,90
60,59.73409090909091,90
60,60.03181818181818,90
60,60.18181818181818,90
60,60.309090909090905,90
60,60.60909090909091,90
60,60.90681818181818,90
60,61.04545454545454,90
60,61.184090909090905,90
60,61.48181818181818,90
60,61.78181818181818,90
60,62.059090909090905,90
60,62.21818181818182,90
60,62.35681818181818,90
60,62.64545454545454,90
60,62.94318181818181,90
60,63.09318181818181,90
60,63.23181818181818,90
60,63.52045454545454,90
60,63.809090909090905,90
60,64.10681818181818,90
60,64.39545454545454,90
60,64.55454545454545,90
60,64.69318181818181,90
60,64.84318181818182,90
60,64.97045454545454,90
60,65.27045454545454,90
60,65.41818181818182,90
60,65.56818181818181,90
60,65.70681818181818,90
60,65.84545454545454,90
60,66.14318181818182,90
60,66.43181818181817,90
60,66.72045454545454,90
60,67.30681818181817,90
60,67.60454545454544,90
60,67.75454545454545,90
60,67.89318181818182,90
60,68.18181818181817,90
60,68.47045454545454,90
60,68.76818181818182,90
60,69.05681818181817,90
60,69.34318181818182,90
60,69.50454545454545,90
60,69.63181818181818,90
60,69.92954545454545,90
60,70.07954545454545,90
60,70.21818181818182,90
60,70.50681818181818,90
60,70.79545454545455,90
60,71.09318181818182,90
60,71.24318181818181,90
60,71.38181818181818,90
60,71.67954545454545,90
60,71.82954545454545,90
60,71.96818181818182,90
60,72.25681818181818,90
60,72.41590909090908,90
60,72.54318181818182,90
60,72.70454545454545,90
60,72.84318181818182,90
60,73.12954545454545,90
60,73.27954545454546,90
60,73.41818181818182,90
60,73.71818181818182,90
60,74.29318181818182,90
60,74.5909090909091,90
60,74.74090909090908,90
60,74.87954545454545,90
60,75.02954545454546,90
60,75.16818181818182,90
60,75.45681818181818,90
60,75.75454545454545,90
60,75.90454545454546,90
60,76.04318181818182,90
60,76.32954545454545,90
60,76.49090909090908,90
60,76.61818181818181,90
60,76.91818181818182,90
60,77.06590909090909,90
60,77.20454545454545,90
60,77.35454545454544,90
60,77.50454545454545,90
60,77.79090909090908,90
60,78.07954545454545,90
60,78.36818181818181,90
60,78.66590909090908,90
60,78.81590909090909,90
60,78.95454545454545,90
60,79.25227272727273,90
60,79.39090909090909,90
60,79.54090909090908,90
60,79.69090909090909,90
60,79.82954545454545,90
60,80.11818181818181,90
60,80.41590909090908,90
60,80.56590909090909,90
60,80.70454545454545,90
60,80.86363636363636,90
60,80.99090909090908,90
60,81.15227272727272,90
60,81.27954545454546,90
60,81.57954545454545,90
60,81.72727272727272,90
60,81.86590909090908,90
60,82.01590909090909,90
60,82.16590909090908,90
60,82.30454545454545,90
60,82.45227272727273,90
60,82.60227272727272,90
60,82.75227272727273,90
60,82.89090909090909,90
60,83.04090909090908,90
60,83.61590909090908,90
60,83.91363636363636,90
60,84.20227272727273,90
60,84.49090909090908,90
60,84.77954545454546,90
60,85.07727272727273,90
60,85.36590909090908,90
60,85.66363636363636,90
60,85.94090909090909,90
60,86.24090909090908,90
60,86.52727272727272,90
60,86.81590909090909,90
60,87.11363636363636,90
60,87.40227272727272,90
60,87.69090909090909,90
60,87.98863636363636,90
60,88.27727272727272,90
60,88.57499999999999,90
60,88.86363636363636,90
60,89.15227272727272,90
60,89.42954545454545,90
60,89.73863636363636,90
60,89.88863636363637,90
60,90.02727272727272,90
60,90.31363636363636,90
60,90.60227272727272,90
60,90.90227272727272,90
60,91.18863636363636,90
60,91.35909090909091,90
60,91.47727272727272,90
60,91.76590909090909,90
60,92.06363636363636,90
60,92.35227272727272,90
60,92.64999999999999,90
60,92.93863636363636,90
60,93.22727272727272,90
60,93.38636363636363,90
60,93.52499999999999,90
60,93.69545454545454,90
60,93.81363636363636,90
60,94.10227272727272,90
60,94.39999999999999,90
60,94.55,90
60,94.68863636363636,90
60,94.975,90
60,95.26363636363637,90
60,95.56363636363636,90
60,95.71136363636363,90
60,95.85,90
60,96.01136363636363,90
60,96.13863636363637,90
60,96.42727272727272,90
60,96.725,90
60,96.89545454545454,90
60,97.01363636363637,90
60,97.30227272727272,90
60,97.6,90
60,97.88863636363637,90
60,98.03636363636363,90
60,98.175,90
60,98.33636363636363,90
60,98.46363636363635,90
60,98.76363636363637,90
60,99.06136363636364,90
60,99.21136363636363,90
60,99.26363636363637,90
60,99.35,90
60,99.63636363636363,90
60,99.925,90
60,100.225,90
60,100.37272727272727,90
60,100.51136363636363,90
60,100.66136363636363,90
60,100.8,90
60,100.94999999999999,90
60,101.08863636363635,90
60,101.23636363636363,90
60,101.38636363636363,90
60,101.675,90
60,101.97272727272727,90
60,102.25,90
60,102.55,90
60,102.69772727272726,90
60,102.84772727272727,90
60,102.98636363636363,90
60,103.125,90
60,103.425,90
60,103.71136363636363,90
60,103.87272727272726,90
60,104.0,90
60,104.29772727272727,90
60,104.58636363636363,90
60,104.875,90
60,105.02499999999999,90
60,105.17272727272727,90
60,105.31136363636364,90
60,105.46136363636363,90
60,105.75,90
60,106.04772727272727,90
60,106.18636363636364,90
60,106.33636363636363,90
60,106.625,90
60,106.91136363636363,90
60,107.21136363636363,90
60,107.35,90
60,107.49772727272726,90
60,107.64772727272727,90
60,107.78636363636363,90
60,108.07499999999999,90
60,108.37272727272726,90
60,108.66136363636363,90
60,108.94999999999999,90
60,109.24772727272726,90
60,109.53636363636363,90
60,109.68636363636364,90
60,109.8340909090909,90
60,109.98409090909091,90
60,110.12272727272726,90
60,110.41136363636363,90
60,110.69772727272726,90
60,110.87954545454545,90
60,110.99772727272726,90
60,111.28636363636363,90
60,111.57272727272726,90
60,111.86136363636363,90
60,112.01136363636363,90
60,112.1590909090909,90
60,112.32045454545454,90
60,112.44772727272726,90
60,112.73636363636363,90
60,113.0340909090909,90
60,113.3340909090909,90
60,113.61136363636363,90
60,114.19772727272726,90
60,114.48636363636363,90
60,114.79545454545455,90
60,114.92272727272727,90
60,115.07272727272726,90
60,115.23181818181817,90
60,115.35909090909091,90
60,115.5090909090909,90
60,115.6590909090909,90
60,115.95681818181818,90
60,116.23409090909091,90
60,116.54318181818181,90
60,116.68181818181817,90
60,116.82045454545454,90
60,117.10909090909091,90
60,117.39772727272727,90
60,117.69545454545454,90
60,117.98409090909091,90
60,118.28181818181818,90
60,118.57045454545454,90
60,118.85909090909091,90
60,119.0090909090909,90
60,119.15681818181818,90
60,119.29545454545455,90
60,119.44545454545454,90
60,119.73409090909091,90
60,120.03181818181818,90
60,120.3090909090909,90
60,120.60909090909091,90
60,120.89545454545454,90
60,121.19545454545454,90
60,121.34318181818182,90
60,121.48181818181817,90
60,121.62045454545454,90
60,121.77045454545454,90
60,122.0590909090909,90
60,122.35681818181817,90
60,122.64545454545454,90
60,122.94318181818181,90
60,123.22045454545454,90
60,123.52045454545454,90
60,123.67954545454545,90
60,123.81818181818181,90
60,123.95681818181818,90
60,124.09545454545454,90
60,124.39545454545454,90
60,124.68181818181817,90
60,124.97045454545454,90
60,125.27045454545454,90
60,125.55681818181817,90
60,125.85681818181817,90
60,126.00454545454545,90
60,126.14318181818182,90
60,126.28181818181818,90
60,126.43181818181817,90
60,126.72045454545454,90
60,127.01818181818182,90
60,127.30681818181817,90
60,127.60454545454544,90
60,127.88181818181818,90
60,128.1818181818182,90
60,128.3409090909091,90
60,128.47954545454544,90
60,128.61818181818182,90
60,128.75681818181818,90
60,129.0568181818182,90
60,129.34318181818182,90
60,129.63181818181818,90
60,129.92954545454546,90
60,130.21818181818182,90
60,130.5181818181818,90
60,130.66590909090908,90
60,130.80454545454546,90
60,130.9431818181818,90
60,131.09318181818182,90
60,131.38181818181818,90
60,131.67954545454546,90
60,131.96818181818182,90
60,132.25681818181818,90
60,132.5431818181818,90
60,132.84318181818182,90
60,132.98181818181817,90
60,133.14090909090908,90
60,133.27954545454546,90
60,133.4181818181818,90
60,133.71818181818182,90
60,134.00454545454545,90
60,134.2931818181818,90
60,134.87954545454545,90
60,135.3272727272727,90
60,135.4659090909091,90
60,135.60454545454544,90
60,135.75454545454545,90
60,136.0431818181818,90
60,136.3409090909091,90
60,136.62954545454545,90
60,136.9181818181818,90
60,137.20454545454544,90
60,137.50454545454545,90
60,137.65227272727273,90
60,137.79090909090908,90
60,137.9409090909091,90
60,138.07954545454544,90
60,138.36818181818182,90
60,138.66590909090908,90
60,138.95454545454544,90
60,139.25227272727273,90
60,139.54090909090908,90
60,139.82954545454544,90
60,139.98863636363635,90
60,140.12727272727273,90
60,140.26590909090908,90
60,140.41590909090908,90
60,140.70454545454544,90
60,141.00227272727273,90
60,141.29090909090908,90
60,141.57954545454544,90
60,141.86590909090907,90
60,142.16590909090908,90
60,142.4522727272727,90
60,142.60227272727272,90
60,142.74090909090907,90
60,143.02954545454546,90
60,143.3272727272727,90
60,143.61590909090907,90
60,144.2022727272727,90
60,144.65,90
60,144.78863636363636,90
60,145.0772727272727,90
60,145.36590909090907,90
60,145.66363636363636,90
60,145.9409090909091,90
60,146.24090909090907,90
60,146.52727272727273,90
60,146.8272727272727,90
60,147.11363636363635,90
60,147.25227272727273,90
60,147.40227272727273,90
60,147.6909090909091,90
60,147.97954545454544,90
60,148.12727272727273,90
60,148.27727272727273,90
60,148.85227272727272,90
60,149.15227272727273,90
60,149.29090909090908,90
60,149.4409090909091,90
60,149.73863636363635,90
60,149.87727272727273,90
60,150.02727272727273,90
60,150.17499999999998,90
60,150.31363636363636,90
60,150.4522727272727,90
60,150.61363636363635,90
60,150.90227272727273,90
60,151.18863636363636,90
60,151.47727272727272,90
60,151.775,90
60,152.075,90
60,152.35227272727272,90
60,152.93863636363636,90
60,153.51363636363635,90
60,154.10227272727272,90
60,154.4,90
60,154.54999999999998,90
60,154.68863636363636,90
60,155.26363636363635,90
60,155.56363636363636,90
60,155.71136363636361,90
60,155.85,90
60,156.0,90
60,156.13863636363635,90
60,156.28863636363636,90
60,156.43636363636364,90
60,156.725,90
60,156.875,90
60,157.01363636363635,90
60,157.16363636363636,90
60,157.6,90
60,158.17499999999998,90
60,158.48636363636362,90
60,158.66590909090908,90
60,159.04999999999998,90
60,159.33863636363637,90
60,159.63636363636363,90
60,159.92499999999998,90
60,160.225,90
60,160.51136363636363,90
60,160.81136363636364,90
60,160.95,90
60,161.23636363636362,90
60,161.38636363636363,90
60,161.67499999999998,90
60,161.825,90
60,161.97272727272727,90
60,162.11136363636362,90
60,162.26136363636363,90
60,162.5590909090909,90
60,162.84772727272727,90
60,163.13636363636363,90
60,163.275,90
60,163.4340909090909,90
60,163.57272727272726,90
60,163.72272727272727,90
60,163.87272727272727,90
60,164.01136363636363,90
60,164.29772727272726,90
60,164.59772727272727,90
60,164.88636363636363,90
60,165.17272727272726,90
60,165.46136363636361,90
60,165.61136363636362,90
60,165.77045454545453,90
60,165.89772727272725,90
60,166.04772727272726,90
60,166.33636363636361,90
60,166.625,90
60,166.7840909090909,90
60,166.92272727272726,90
60,167.21136363636361,90
60,167.3590909090909,90
60,167.49772727272727,90
60,167.79772727272726,90
60,167.93636363636364,90
60,168.08636363636361,90
60,168.2340909090909,90
60,168.37272727272727,90
60,168.66136363636363,90
60,168.9590909090909,90
60,169.1090909090909,90
60,169.24772727272727,90
60,170.41136363636363,90
60,170.5590909090909,90
60,170.84772727272727,90
60,171.14772727272725,90
60,171.29545454545453,90
60,171.4340909090909,90
60,171.57272727272726,90
60,172.1590909090909,90
60,172.59772727272727,90
60,172.7681818181818,90
60,172.89545454545453,90
60,173.0340909090909,90
60,173.32272727272726,90
60,173.62045454545455,90
60,173.77045454545453,90
60,173.9090909090909,90
60,174.2090909090909,90
60,174.35681818181817,90
60,174.48636363636362,90
60,174.7840909090909,90
60,174.92272727272726,90
60,175.09318181818182,90
60,175.22045454545454,90
60,175.3590909090909,90
60,175.6590909090909,90
60,175.94772727272726,90
60,176.2340909090909,90
60,176.5340909090909,90
60,176.82045454545454,90
60,177.12045454545455,90
60,177.2590909090909,90
60,177.4181818181818,90
60,177.54772727272726,90
60,177.69545454545454,90
60,177.9840909090909,90
60,178.28181818181818,90
60,178.4318181818182,90
60,178.57045454545454,90
60,178.87045454545455,90
60,179.14772727272725,90
60,179.44545454545454,90
60,179.5840909090909,90
60,179.75454545454545,90
60,179.88181818181818,90
60,180.02045454545453,90
60,180.3090909090909,90
60,180.6090909090909,90
60,180.89545454545453,90
60,181.48181818181817,90
60,181.78181818181818,90
60,181.92045454545453,90
60,182.07954545454544,90
60,182.35681818181817,90
60,182.64545454545453,90
60,182.9431818181818,90
60,183.23181818181817,90
60,183.52954545454546,90
60,183.8090909090909,90
60,184.10681818181817,90
60,184.24545454545455,90
60,184.40454545454546,90
60,184.6818181818182,90
60,184.84318181818182,90
60,184.97045454545454,90
60,185.27045454545453,90
60,185.4090909090909,90
60,185.5568181818182,90
60,185.85681818181817,90
60,186.1431818181818,90
60,186.4431818181818,90
60,186.58181818181816,90
60,186.72045454545454,90
60,187.0181818181818,90
60,187.30681818181816,90
60,187.60454545454544,90
60,187.88181818181818,90
60,188.1909090909091,90
60,188.47045454545454,90
60,188.90681818181818,90
60,189.0659090909091,90
60,189.34318181818182,90
60,189.63181818181818,90
60,190.21818181818182,90
60,190.5181818181818,90
60,190.79545454545453,90
60,191.10454545454544,90
60,191.2431818181818,90
60,191.39090909090908,90
60,191.67954545454543,90
60,191.96818181818182,90
60,192.25681818181818,90
60,192.5431818181818,90
60,193.12954545454545,90
60,193.42954545454543,90
60,193.5681818181818,90
60,193.72727272727272,90
60,194.00454545454545,90
60,194.2931818181818,90
60,194.87954545454545,90
60,195.17954545454543,90
60,195.45681818181816,90
60,195.76590909090908,90
60,195.90454545454546,90
60,196.0522727272727,90
60,196.2022727272727,90
60,196.3409090909091,90
60,196.6181818181818,90
60,196.77954545454546,90
60,196.9181818181818,90
60,197.0659090909091,90
60,35.58409090909091,90
60,35.87272727272727,90
60,36.17045454545455,90
60,36.45909090909091,90
60,36.75681818181818,90
60,37.04545454545455,90
60,37.34318181818182,90
60,37.63181818181818,90
60,37.92045454545455,90
60,38.21818181818182,90
60,38.50681818181818,90
60,38.804545454545455,90
60,39.09318181818182,90
60,39.39090909090909,90
60,39.679545454545455,90
60,39.97954545454545,90
60,40.26590909090909,90
60,40.56590909090909,90
60,40.85227272727273,90
60,41.14090909090909,90
60,41.44090909090909,90
60,41.72727272727273,90
60,42.027272727272724,90
60,42.31363636363636,90
60,42.61363636363636,90
60,42.902272727272724,90
60,43.18863636363636,90
60,43.48863636363636,90
60,43.775,90
60,44.074999999999996,90
60,44.36363636363636,90
60,44.66136363636363,90
60,44.949999999999996,90
60,45.236363636363635,90
60,45.53636363636363,90
60,45.824999999999996,90
60,46.12272727272727,90
60,46.41136363636363,90
60,46.709090909090904,90
60,46.99772727272727,90
60,47.29545454545454,90
60,47.584090909090904,90
60,47.87272727272727,90
60,48.17045454545454,90
60,48.459090909090904,90
60,48.75681818181818,90
60,49.04545454545454,90
60,49.34318181818182,90
60,49.63181818181818,90
60,49.929545454545455,90
60,50.21818181818182,90
60,50.50681818181818,90
60,50.804545454545455,90
60,51.09318181818182,90
60,51.39090909090909,90
60,51.679545454545455,90
60,51.97954545454545,90
60,52.26590909090909,90
60,52.554545454545455,90
60,52.85227272727273,90
60,53.14090909090909,90
60,53.44090909090909,90
60,53.72727272727273,90
60,54.027272727272724,90
60,54.31363636363636,90
60,54.61363636363636,90
60,54.902272727272724,90
60,55.18863636363636,90
60,55.48863636363636,90
60,55.775,90
60,56.074999999999996,90
60,56.36363636363636,90
60,56.66136363636363,90
60,56.949999999999996,90
60,57.236363636363635,90
60,57.53636363636363,90
60,57.824999999999996,90
60,58.12272727272727,90
60,58.41136363636363,90
60,58.709090909090904,90
60,58.99772727272727,90
60,59.29545454545454,90
60,59.584090909090904,90
60,59.881818181818176,90
60,60.17045454545454,90
60,60.470454545454544,90
60,60.756818181818176,90
60,61.04545454545454,90
60,61.34318181818182,90
60,61.643181818181816,90
60,61.929545454545455,90
60,62.21818181818182,90
60,62.506818181818176,90
60,62.804545454545455,90
60,63.09318181818181,90
60,63.39090909090909,90
60,63.679545454545455,90
60,63.97954545454545,90
60,64.26590909090909,90
60,64.56590909090909,90
60,64.85227272727272,90
60,65.15227272727273,90
60,65.44090909090909,90
60,65.73863636363636,90
60,66.02727272727273,90
60,66.31363636363636,90
60,66.61363636363636,90
60,66.90227272727273,90
60,67.18863636363636,90
60,67.48863636363636,90
60,67.77499999999999,90
60,68.075,90
60,68.36363636363636,90
60,68.66136363636363,90
60,68.95,90
60,69.24772727272727,90
60,69.53636363636363,90
60,69.8340909090909,90
60,70.12272727272727,90
60,70.42045454545455,90
60,70.7090909090909,90
60,71.29545454545455,90
60,71.88181818181818,90
60,72.4590909090909,90
60,73.04545454545455,90
60,73.63181818181818,90
60,74.21818181818182,90
60,74.80454545454545,90
60,75.39090909090909,90
60,75.97954545454544,90
60,76.56590909090909,90
60,77.14090909090909,90
60,77.72727272727272,90
60,78.31363636363636,90
60,78.90227272727272,90
60,79.48863636363636,90
60,80.075,90
60,80.66136363636363,90
60,81.24772727272727,90
60,81.8340909090909,90
60,82.41136363636363,90
60,82.99772727272727,90
60,83.5840909090909,90
60,84.17045454545455,90
60,84.75681818181818,90
60,85.34318181818182,90
60,85.92954545454545,90
60,86.51818181818182,90
60,87.09318181818182,90
60,87.67954545454545,90
60,88.26590909090909,90
60,88.85227272727272,90
60,89.44090909090909,90
60,90.02727272727272,90
60,90.61363636363636,90
60,91.19999999999999,90
60,91.77499999999999,90
60,92.36363636363636,90
60,92.94999999999999,90
60,93.53636363636363,90
60,94.12272727272727,90
60,94.7090909090909,90
60,95.29545454545455,90
60,95.88181818181818,90
60,96.47045454545454,90
60,97.04545454545455,90
60,97.63181818181818,90
60,98.21818181818182,90
60,98.80454545454545,90
60,99.39090909090909,90
60,99.97954545454544,90
60,100.56590909090909,90
60,101.15227272727272,90
60,101.72727272727272,90
60,102.31363636363636,90
60,102.90227272727272,90
60,103.48863636363636,90
60,104.07499999999999,90
60,104.66136363636363,90
60,105.24772727272726,90
60,105.82499999999999,90
60,106.41136363636363,90
60,106.99772727272726,90
60,107.5840909090909,90
60,108.17045454545455,90
60,108.75681818181818,90
60,109.34318181818182,90
60,109.92954545454545,90
60,110.51818181818182,90
60,111.09318181818182,90
60,111.67954545454545,90
60,112.26590909090909,90
60,112.85227272727272,90
60,113.44090909090909,90
60,114.02727272727272,90
60,114.61363636363636,90
60,115.19999999999999,90
60,115.77499999999999,90
60,116.36363636363636,90
60,116.94999999999999,90
60,117.53636363636363,90
60,118.12272727272726,90
60,118.7090909090909,90
60,119.29545454545455,90
60,119.88181818181818,90
60,120.4590909090909,90
60,121.04545454545453,90
60,121.63181818181818,90
60,122.21818181818182,90
60,122.80454545454545,90
60,123.39090909090909,90
60,123.97954545454544,90
60,124.56590909090909,90
60,125.15227272727272,90
60,125.72727272727272,90
60,126.31363636363636,90
60,126.90227272727272,90
60,129.24772727272727,90
60,129.54772727272726,90
60,129.8340909090909,90
60,130.12272727272727,90
60,130.41136363636363,90
60,130.7090909090909,90
60,130.99772727272727,90
60,131.29545454545453,90
60,131.5840909090909,90
60,131.88181818181818,90
60,132.17045454545453,90
60,132.47045454545454,90
60,132.75681818181818,90
60,133.04545454545453,90
60,133.34318181818182,90
60,133.63181818181818,90
60,133.92954545454546,90
60,134.21818181818182,90
60,134.50681818181818,90
60,134.80454545454546,90
60,135.09318181818182,90
60,135.39090909090908,90
60,135.67954545454546,90
60,135.97954545454544,90
60,136.26590909090908,90
60,136.5659090909091,90
60,136.85227272727272,90
60,137.14090909090908,90
60,137.4409090909091,90
60,137.73863636363635,90
60,138.02727272727273,90
60,138.31363636363636,90
60,138.61363636363635,90
60,138.90227272727273,90
60,139.2,90
60,139.48863636363635,90
60,139.775,90
60,140.075,90
60,140.36363636363635,90
60,140.66136363636363,90
60,140.95,90
60,141.24772727272727,90
60,141.53636363636363,90
60,141.825,90
60,142.12272727272727,90
60,142.41136363636363,90
60,142.7090909090909,90
60,142.99772727272727,90
60,143.29545454545453,90
60,143.5840909090909,90
60,143.88181818181818,90
60,144.17045454545453,90
60,144.4590909090909,90
60,144.75681818181818,90
60,145.04545454545453,90
60,145.34318181818182,90
60,145.63181818181818,90
60,145.92954545454543,90
60,146.21818181818182,90
60,146.50681818181818,90
60,146.80454545454543,90
60,147.10454545454544,90
60,147.39090909090908,90
60,147.67954545454543,90
60,147.97954545454544,90
60,148.26590909090908,90
60,148.5659090909091,90
60,148.85227272727272,90
60,149.15227272727273,90
60,149.4409090909091,90
60,149.72727272727272,90
60,150.02727272727273,90
60,150.31363636363636,90
60,150.61363636363635,90
60,150.90227272727273,90
60,151.2,90
60,151.48863636363635,90
60,151.78636363636363,90
60,152.075,90
60,152.36363636363635,90
60,152.66136363636363,90
60,152.95,90
60,153.24772727272727,90
60,153.53636363636363,90
60,153.8340909090909,90
60,154.12272727272727,90
60,154.41136363636363,90
60,154.7090909090909,90
60,154.99772727272727,90
60,155.29545454545453,90
60,155.5840909090909,90
60,155.88181818181818,90
60,156.17045454545453,90
60,156.4590909090909,90
60,156.75681818181818,90
60,157.04545454545453,90
60,157.34318181818182,90
60,157.63181818181818,90
60,157.92954545454543,90
60,158.21818181818182,90
60,158.5181818181818,90
60,158.80454545454543,90
60,159.10454545454544,90
60,159.39090909090908,90
60,159.67954545454543,90
60,159.97954545454544,90
60,160.26590909090908,90
60,160.5659090909091,90
60,160.85227272727272,90
60,161.15227272727273,90
60,161.4409090909091,90
60,161.72727272727272,90
60,162.02727272727273,90
60,162.31363636363636,90
60,162.61363636363635,90
60,162.90227272727273,90
60,163.2,90
60,163.48863636363635,90
60,163.775,90
60,164.075,90
60,164.36363636363635,90
60,164.66136363636363,90
60,164.95,90
60,165.24772727272727,90
60,165.53636363636363,90
60,165.8340909090909,90
60,166.12272727272727,90
60,166.42045454545453,90
60,169.04545454545453,90
60,169.34318181818182,90
60,169.63181818181818,90
60,169.92954545454543,90
60,170.21818181818182,90
60,178.42045454545453,90
60,19.370454545454546,90
60,19.520454545454545,90
60,19.670454545454543,90
60,19.818181818181817,90
60,19.956818181818182,90
60,20.10681818181818,90
60,20.23409090909091,90
60,20.534090909090907,90
60,20.68181818181818,90
60,20.820454545454545,90
60,21.10909090909091,90
60,21.409090909090907,90
60,21.695454545454545,90
60,21.845454545454544,90
60,21.98409090909091,90
60,22.28181818181818,90
60,22.43181818181818,90
60,22.570454545454545,90
60,22.85909090909091,90
60,23.009090909090908,90
60,23.147727272727273,90
60,23.445454545454545,90
60,23.73409090909091,90
60,24.020454545454545,90
60,24.170454545454543,90
60,24.320454545454545,90
60,24.60909090909091,90
60,24.75681818181818,90
60,24.895454545454545,90
60,25.195454545454545,90
60,25.34318181818182,90
60,25.48181818181818,90
60,25.770454545454545,90
60,26.070454545454545,90
60,26.35681818181818,90
60,26.50681818181818,90
60,26.645454545454545,90
60,26.943181818181817,90
60,27.093181818181815,90
60,27.23181818181818,90
60,27.520454545454545,90
60,27.670454545454543,90
60,27.80909090909091,90
60,28.10681818181818,90
60,28.395454545454545,90
60,28.68181818181818,90
60,28.831818181818182,90
60,28.98181818181818,90
60,29.270454545454545,90
60,29.55681818181818,90
60,29.85681818181818,90
60,30.004545454545454,90
60,30.143181818181816,90
60,30.443181818181817,90
60,30.581818181818182,90
60,30.720454545454544,90
60,31.018181818181816,90
60,31.168181818181818,90
60,31.30681818181818,90
60,31.595454545454544,90
60,31.743181818181817,90
60,31.893181818181816,90
60,32.18181818181818,90
60,32.32954545454545,90
60,32.470454545454544,90
60,32.62954545454545,90
60,32.768181818181816,90
60,32.90681818181818,90
60,33.05681818181818,90
60,33.34318181818182,90
60,33.49318181818182,90
60,33.63181818181818,90
60,33.79090909090909,90
60,33.929545454545455,90
60,34.07954545454545,90
60,34.21818181818182,90
60,34.518181818181816,90
60,34.65681818181818,90
60,34.804545454545455,90
60,34.95454545454545,90
60,35.09318181818182,90
60,35.24318181818182,90
60,35.38181818181818,90
60,35.679545454545455,90
60,35.840909090909086,90
60,35.96818181818182,90
60,36.11818181818182,90
60,36.25681818181818,90
60,36.404545454545456,90
60,36.543181818181814,90
60,36.84318181818182,90
60,36.99090909090909,90
60,37.12954545454545,90
60,37.429545454545455,90
60,37.56818181818181,90
60,37.71818181818182,90
60,38.00454545454545,90
60,38.154545454545456,90
60,38.293181818181814,90
60,38.45227272727273,90
60,38.590909090909086,90
60,38.74090909090909,90
60,38.87954545454545,90
60,39.179545454545455,90
60,39.31818181818181,90
60,39.465909090909086,90
60,39.75454545454545,90
60,39.904545454545456,90
60,40.043181818181814,90
60,40.340909090909086,90
60,40.49090909090909,90
60,40.62954545454545,90
60,40.918181818181814,90
60,41.06590909090909,90
60,41.20454545454545,90
60,45.86590909090909,90
60,46.16590909090909,90
60,46.45227272727273,90
60,46.752272727272725,90
60,46.902272727272724,90
60,47.04090909090909,90
60,47.18863636363636,90
60,47.32727272727273,90
60,47.47727272727273,90
60,47.61590909090909,90
60,47.913636363636364,90
60,48.05227272727272,90
60,48.20227272727273,90
60,48.35227272727273,90
60,48.49090909090909,90
60,48.64090909090909,90
60,48.77954545454545,90
60,49.07727272727273,90
60,49.22727272727273,90
60,49.365909090909085,90
60,49.51363636363636,90
60,49.663636363636364,90
60,49.80227272727272,90
60,49.94090909090909,90
60,50.240909090909085,90
60,50.38863636363636,90
60,50.527272727272724,90
60,50.68863636363636,90
60,50.82727272727273,90
60,50.974999999999994,90
60,51.11363636363636,90
60,51.413636363636364,90
60,51.55227272727272,90
60,51.69090909090909,90
60,51.849999999999994,90
60,51.98863636363636,90
60,52.13863636363636,90
60,52.277272727272724,90
60,52.574999999999996,90
60,52.71363636363636,90
60,52.86363636363636,90
60,53.01363636363636,90
60,53.152272727272724,90
60,53.30227272727272,90
60,53.44090909090909,90
60,53.73863636363636,90
60,53.88863636363636,90
60,54.027272727272724,90
60,54.175,90
60,54.324999999999996,90
60,54.46363636363636,90
60,54.60227272727273,90
60,54.902272727272724,90
60,55.05,90
60,55.18863636363636,90
60,55.48863636363636,90
60,55.775,90
60,56.074999999999996,90
60,56.21363636363636,90
60,56.35227272727273,90
60,56.51136363636363,90
60,56.65,90
60,56.8,90
60,56.93863636363636,90
60,57.236363636363635,90
60,57.375,90
60,57.51363636363636,90
60,57.675,90
60,57.81363636363636,90
60,57.96363636363636,90
60,58.10227272727273,90
60,58.4,90
60,58.55,90
60,58.68863636363636,90
60,58.836363636363636,90
60,58.974999999999994,90
60,59.125,90
60,59.26363636363636,90
60,59.56363636363636,90
60,59.711363636363636,90
60,59.849999999999994,90
60,60.01136363636363,90
60,60.15,90
60,60.29772727272727,90
60,60.43636363636363,90
60,60.736363636363635,90
60,60.875,90
60,61.01363636363636,90
60,61.17272727272727,90
60,61.31136363636363,90
60,61.461363636363636,90
60,61.599999999999994,90
60,61.897727272727266,90
60,62.04772727272727,90
60,62.175,90
60,62.76363636363636,90
60,63.349999999999994,90
60,63.925,90
60,64.51136363636364,90
60,64.67272727272727,90
60,64.9590909090909,90
60,65.08863636363635,90
60,65.39772727272727,90
60,65.675,90
60,65.8340909090909,90
60,65.97272727272727,90
60,66.11136363636363,90
60,66.25,90
60,66.55909090909091,90
60,66.69772727272726,90
60,66.83636363636363,90
60,66.99772727272727,90
60,67.14772727272727,90
60,67.28636363636363,90
60,67.425,90
60,67.72272727272727,90
60,67.87272727272727,90
60,68.01136363636363,90
60,69.17272727272727,90
60,69.47272727272727,90
60,69.75,90
60,70.04772727272727,90
60,70.33636363636363,90
60,70.48636363636363,90
60,70.6340909090909,90
60,70.92272727272727,90
60,71.21136363636363,90
60,71.35909090909091,90
60,71.49772727272727,90
60,71.64772727272727,90
60,71.78636363636363,90
60,71.93636363636364,90
60,72.08636363636363,90
60,72.37272727272727,90
60,72.52272727272727,90
60,72.67272727272727,90
60,72.81136363636364,90
60,72.95,90
60,73.09772727272727,90
60,73.24772727272727,90
60,73.54772727272727,90
60,73.69545454545454,90
60,73.8340909090909,90
60,73.97272727272727,90
60,74.12272727272727,90
60,74.27272727272727,90
60,74.41136363636363,90
60,74.7090909090909,90
60,74.85909090909091,90
60,74.99772727272727,90
60,75.14772727272727,90
60,75.28636363636363,90
60,75.43409090909091,90
60,75.57272727272726,90
60,75.87272727272727,90
60,76.02045454545454,90
60,76.1590909090909,90
60,76.30909090909091,90
60,76.44772727272726,90
60,76.59772727272727,90
60,76.73636363636363,90
60,77.0340909090909,90
60,77.18409090909091,90
60,77.32272727272726,90
60,78.49545454545454,90
60,78.7840909090909,90
60,79.07272727272726,90
60,79.37045454545454,90
60,79.6590909090909,90
60,79.95681818181818,90
60,80.10681818181818,90
60,80.23409090909091,90
60,80.5340909090909,90
60,80.68181818181817,90
60,80.82045454545454,90
60,81.12045454545454,90
60,81.4090909090909,90
60,81.69545454545454,90
60,81.84545454545454,90
60,81.98409090909091,90
60,82.28181818181818,90
60,82.42045454545455,90
60,82.57045454545454,90
60,82.87045454545454,90
60,83.0090909090909,90
60,83.14772727272727,90
60,83.44545454545454,90
60,83.73409090909091,90
60,84.03181818181818,90
60,84.18181818181817,90
60,84.32045454545454,90
60,84.47954545454544,90
60,84.60909090909091,90
60,84.76818181818182,90
60,84.89545454545454,90
60,85.19545454545454,90
60,85.34318181818182,90
60,85.48181818181818,90
60,85.64318181818182,90
60,85.78181818181818,90
60,86.07045454545454,90
60,86.35681818181818,90
60,86.50681818181818,90
60,86.64545454545454,90
60,87.81818181818181,90
60,88.10681818181818,90
60,88.39545454545454,90
60,88.69318181818181,90
60,88.83181818181818,90
60,88.98181818181818,90
60,89.14090909090909,90
60,89.27045454545454,90
60,89.41818181818181,90
60,89.55681818181817,90
60,89.71818181818182,90
60,89.85681818181818,90
60,90.00454545454545,90
60,90.14318181818182,90
60,90.44318181818181,90
60,90.5909090909091,90
60,90.72045454545454,90
60,91.01818181818182,90
60,91.16818181818181,90
60,91.30681818181817,90
60,91.4659090909091,90
60,91.60454545454544,90
60,91.74318181818181,90
60,91.89318181818182,90
60,92.18181818181817,90
60,92.32954545454545,90
60,92.47045454545454,90
60,92.76818181818182,90
60,92.91818181818181,90
60,93.05681818181817,90
60,93.21590909090908,90
60,93.35454545454544,90
60,93.50454545454545,90
60,93.64318181818182,90
60,93.79090909090908,90
60,93.92954545454545,90
60,94.07954545454545,90
60,94.21818181818182,90
60,94.37954545454545,90
60,94.51818181818182,90
60,94.66590909090908,90
60,94.80454545454545,90
60,95.10454545454544,90
60,95.25227272727273,90
60,95.38181818181818,90
60,95.67954545454545,90
60,95.82954545454545,90
60,95.96818181818182,90
60,96.11818181818181,90
60,96.26590909090909,90
60,96.40454545454546,90
60,96.55454545454545,90
60,96.84318181818182,90
60,96.99090909090908,90
60,97.12954545454545,90
60,98.30454545454545,90
60,98.45227272727273,90
60,98.59090909090908,90
60,98.74090909090908,90
60,98.87954545454545,90
60,99.17954545454545,90
60,99.32727272727273,90
60,99.46590909090908,90
60,99.75454545454545,90
60,99.90454545454546,90
60,100.04318181818181,90
60,100.19090909090909,90
60,100.34090909090908,90
60,100.49090909090908,90
60,100.62954545454545,90
60,101.79090909090908,90
60,102.37954545454545,90
60,102.67727272727272,90
60,102.95454545454545,90
60,103.25227272727273,90
60,103.54090909090908,90
60,103.82954545454545,90
60,103.98863636363636,90
60,104.12727272727273,90
60,104.41590909090908,90
60,104.56590909090909,90
60,104.70454545454545,90
60,105.00227272727273,90
60,105.15227272727272,90
60,105.29090909090908,90
60,105.44090909090909,90
60,105.57954545454545,90
60,105.72727272727272,90
60,105.86590909090908,90
60,106.16590909090908,90
60,106.31363636363636,90
60,106.45227272727273,90
60,106.61363636363636,90
60,106.75227272727273,90
60,106.90227272727272,90
60,107.04090909090908,90
60,107.32727272727273,90
60,107.47727272727272,90
60,107.61590909090908,90
60,107.76590909090909,90
60,107.91363636363636,90
60,108.06363636363636,90
60,108.20227272727273,90
60,108.49090909090908,90
60,108.64090909090909,90
60,108.77954545454546,90
60,108.93863636363636,90
60,109.07727272727273,90
60,109.22727272727272,90
60,109.36590909090908,90
60,109.66363636363636,90
60,109.81363636363636,90
60,109.95227272727273,90
60,110.10227272727272,90
60,110.24090909090908,90
60,110.38863636363635,90
60,110.52727272727272,90
60,110.82727272727273,90
60,110.975,90
60,111.11363636363636,90
60,111.27499999999999,90
60,111.41363636363636,90
60,111.55227272727272,90
60,111.69090909090909,90
60,111.98863636363636,90
60,112.13863636363635,90
60,112.27727272727272,90
60,112.42727272727272,90
60,112.57499999999999,90
60,112.725,90
60,112.86363636363636,90
60,113.15227272727272,90
60,113.30227272727272,90
60,113.44090909090909,90
60,113.6,90
60,113.73863636363636,90
60,113.88863636363635,90
60,114.02727272727272,90
60,114.32499999999999,90
60,114.475,90
60,114.61363636363636,90
60,115.77499999999999,90
60,116.07499999999999,90
60,116.35227272727272,90
60,116.64999999999999,90
60,116.93863636363636,90
60,117.23636363636363,90
60,117.52499999999999,90
60,117.81363636363636,90
60,119.85,90
60,120.43636363636364,90
60,121.01363636363635,90
60,121.31136363636364,90
60,121.6,90
60,121.75,90
60,121.88863636363635,90
60,122.03636363636363,90
60,122.175,90
60,122.475,90
60,122.625,90
60,122.76363636363635,90
60,122.91136363636363,90
60,123.05,90
60,123.21136363636363,90
60,123.33863636363635,90
60,123.63636363636363,90
60,123.78636363636363,90
60,123.925,90
60,124.08636363636363,90
60,124.21363636363635,90
60,124.36363636363636,90
60,124.51136363636363,90
60,124.8,90
60,124.94999999999999,90
60,125.08863636363635,90
60,125.24772727272726,90
60,125.38636363636363,90
60,125.53636363636363,90
60,125.675,90
60,125.96363636363635,90
60,126.12272727272726,90
60,126.26136363636363,90
60,126.41136363636363,90
60,126.55,90
60,126.69772727272726,90
60,126.83636363636363,90
60,127.125,90
60,127.28636363636363,90
60,127.425,90
60,127.57272727272726,90
60,127.71136363636363,90
60,127.87272727272726,90
60,128.0,90
60,128.29772727272726,90
60,128.44772727272726,90
60,128.58636363636364,90
60,128.74772727272727,90
60,128.875,90
60,129.025,90
60,129.17272727272726,90
60,129.46136363636364,90
60,129.61136363636362,90
60,129.75,90
60,129.9090909090909,90
60,130.03636363636363,90
60,130.19772727272726,90
60,130.33636363636364,90
60,130.625,90
60,130.7840909090909,90
60,130.92272727272726,90
60,131.07272727272726,90
60,131.21136363636364,90
60,131.3590909090909,90
60,131.49772727272727,90
60,131.78636363636363,90
60,131.94772727272726,90
60,132.08636363636364,90
60,132.2340909090909,90
60,132.37272727272727,90
60,132.5340909090909,90
60,132.66136363636363,90
60,132.9590909090909,90
60,133.1090909090909,90
60,133.2590909090909,90
60,133.39772727272725,90
60,133.53636363636363,90
60,133.68636363636364,90
60,133.825,90
60,134.12272727272727,90
60,134.27272727272725,90
60,134.41136363636363,90
60,134.57045454545454,90
60,134.69772727272726,90
60,134.8590909090909,90
60,134.99772727272727,90
60,135.28636363636363,90
60,135.4340909090909,90
60,135.5840909090909,90
60,135.7340909090909,90
60,135.87272727272727,90
60,136.02045454545453,90
60,136.1590909090909,90
60,136.44772727272726,90
60,136.6090909090909,90
60,136.74772727272727,90
60,136.89545454545453,90
60,137.0340909090909,90
60,137.32272727272726,90
60,137.62045454545455,90
60,137.77045454545453,90
60,137.9090909090909,90
60,138.0590909090909,90
60,138.19772727272726,90
60,138.34772727272727,90
60,138.48636363636362,90
60,138.7840909090909,90
60,138.9340909090909,90
60,139.07272727272726,90
60,139.23181818181817,90
60,139.3590909090909,90
60,139.52045454545453,90
60,139.6590909090909,90
60,139.94772727272726,90
60,140.2340909090909,90
60,141.4090909090909,90
60,141.70681818181816,90
60,141.9840909090909,90
60,142.28181818181818,90
60,142.57045454545454,90
60,142.8590909090909,90
60,143.14772727272725,90
60,143.44545454545454,90
60,143.59545454545454,90
60,143.7340909090909,90
60,143.8931818181818,90
60,144.02045454545453,90
60,144.1818181818182,90
60,144.3090909090909,90
60,144.6090909090909,90
60,144.75681818181818,90
60,144.89545454545453,90
60,145.0568181818182,90
60,145.19545454545454,90
60,145.3340909090909,90
60,145.48181818181817,90
60,145.77045454545453,90
60,145.92045454545453,90
60,146.0590909090909,90
60,146.21818181818182,90
60,146.35681818181817,90
60,146.50681818181818,90
60,146.64545454545453,90
60,146.9431818181818,90
60,147.09318181818182,90
60,147.23181818181817,90
60,147.38181818181818,90
60,147.52045454545453,90
60,147.67045454545453,90
60,147.8090909090909,90
60,148.10681818181817,90
60,148.25681818181818,90
60,148.39545454545453,90
60,148.5431818181818,90
60,148.6818181818182,90
60,148.84318181818182,90
60,148.97045454545454,90
60,149.27045454545453,90
60,149.4181818181818,90
60,149.5568181818182,90
60,149.71818181818182,90
60,149.84545454545454,90
60,149.99545454545455,90
60,150.1340909090909,90
60,150.4318181818182,90
60,150.5909090909091,90
60,150.72045454545454,90
60,150.87954545454545,90
60,151.02954545454546,90
60,151.1681818181818,90
60,151.3068181818182,90
60,151.59545454545454,90
60,151.75454545454545,90
60,151.88181818181818,90
60,152.0431818181818,90
60,152.1818181818182,90
60,152.32954545454544,90
60,152.47045454545454,90
60,152.75681818181818,90
60,152.9181818181818,90
60,153.0568181818182,90
60,153.2159090909091,90
60,153.34318181818182,90
60,153.50454545454545,90
60,153.63181818181818,90
60,153.92954545454543,90
60,154.07954545454544,90
60,154.21818181818182,90
60,154.37954545454545,90
60,154.50681818181818,90
60,154.65681818181818,90
60,154.79545454545453,90
60,155.09318181818182,90
60,155.25227272727273,90
60,155.38181818181818,90
60,155.54090909090908,90
60,155.67045454545453,90
60,155.82954545454544,90
60,155.96818181818182,90
60,156.25681818181818,90
60,156.41590909090908,90
60,156.5431818181818,90
60,156.70454545454544,90
60,156.84318181818182,90
60,156.99090909090907,90
60,157.12954545454545,90
60,157.4181818181818,90
60,157.57954545454544,90
60,157.71818181818182,90
60,157.86590909090907,90
60,157.99545454545455,90
60,158.15454545454546,90
60,158.2931818181818,90
60,158.58181818181816,90
60,158.74090909090907,90
60,158.87954545454545,90
60,159.04090909090908,90
60,159.1681818181818,90
60,159.3272727272727,90
60,159.45681818181816,90
60,159.74318181818182,90
60,159.90454545454546,90
60,160.0431818181818,90
60,160.62954545454545,90
60,160.90681818181818,90
60,161.20454545454544,90
60,161.49318181818182,90
60,161.79090909090908,90
60,162.07954545454544,90
60,162.36818181818182,90
60,162.53863636363636,90
60,162.65681818181818,90
60,162.8272727272727,90
60,162.95454545454544,90
60,163.23181818181817,90
60,163.40227272727273,90
60,163.54090909090908,90
60,163.7022727272727,90
60,163.8181818181818,90
60,163.97954545454544,90
60,164.11818181818182,90
60,164.40454545454546,90
60,164.575,90
60,164.70454545454544,90
60,164.86363636363635,90
60,164.98181818181817,90
60,165.15227272727273,90
60,165.27954545454546,90
60,165.5568181818182,90
60,165.73863636363635,90
60,165.86590909090907,90
60,166.02727272727273,90
60,166.15454545454546,90
60,166.31363636363636,90
60,166.4522727272727,90
60,166.72954545454544,90
60,166.90227272727273,90
60,167.04090909090908,90
60,167.2,90
60,167.3181818181818,90
60,167.48863636363635,90
60,167.61590909090907,90
60,167.88181818181818,90
60,168.06363636363636,90
60,168.1909090909091,90
60,168.36363636363635,90
60,168.47954545454544,90
60,168.64090909090908,90
60,168.77954545454546,90
60,169.0659090909091,90
60,169.22727272727272,90
60,169.36590909090907,90
60,169.525,90
60,169.6431818181818,90
60,169.81363636363636,90
60,169.9409090909091,90
60,170.21818181818182,90
60,170.4,90
60,170.52727272727273,90
60,170.68863636363636,90
60,170.80454545454543,90
60,171.10454545454544,90
60,171.39090909090908,90
60,171.56363636363636,90
60,171.6909090909091,90
60,171.85,90
60,171.97954545454544,90
60,172.13863636363635,90
60,172.27727272727273,90
60,172.55454545454543,90
60,172.725,90
60,172.85227272727272,90
60,173.025,90
60,173.14090909090908,90
60,173.3022727272727,90
60,173.4409090909091,90
60,173.72727272727272,90
60,173.89772727272725,90
60,174.02727272727273,90
60,176.35227272727272,90
60,176.93863636363636,90
60,177.23636363636362,90
60,177.51363636363635,90
60,177.8022727272727,90
60,177.97272727272727,90
60,178.10227272727272,90
60,178.37954545454545,90
60,178.68863636363636,90
60,178.83636363636361,90
60,178.9659090909091,90
60,179.125,90
60,179.26363636363635,90
60,179.5522727272727,90
60,179.71136363636361,90
60,179.8409090909091,90
60,180.0,90
60,180.13863636363635,90
60,180.28863636363636,90
60,180.4272727272727,90
60,180.725,90
60,180.875,90
60,181.01363636363635,90
60,181.3022727272727,90
60,181.45,90
60,181.58863636363637,90
60,181.87727272727273,90
60,182.03636363636363,90
60,182.17499999999998,90
60,182.46363636363637,90
60,182.625,90
60,182.75227272727273,90
60,183.04999999999998,90
60,183.2,90
60,183.33863636363637,90
60,183.62727272727273,90
60,183.78636363636363,90
60,183.92499999999998,90
60,184.21363636363637,90
60,184.37272727272727,90
60,184.50227272727273,90
60,184.66136363636363,90
60,184.78863636363636,90
60,184.95,90
60,185.08863636363637,90
60,185.375,90
60,185.53636363636363,90
60,185.66363636363636,90
60,185.97272727272727,90
60,186.25,90
60,186.54999999999998,90
60,186.83636363636361,90
60,187.125,90
60,187.28636363636363,90
60,187.41363636363636,90
60,187.7022727272727,90
60,187.86136363636362,90
60,188.0,90
60,188.1590909090909,90
60,188.28863636363636,90
60,188.44772727272726,90
60,188.58636363636361,90
60,188.86363636363635,90
60,189.02499999999998,90
60,189.16363636363636,90
60,189.32272727272726,90
60,189.45,90
60,189.61136363636362,90
60,189.75,90
60,190.03636363636363,90
60,190.19772727272726,90
60,190.325,90
60,190.48636363636362,90
60,190.625,90
60,190.77272727272725,90
60,190.91136363636363,90
60,191.2,90
60,191.3590909090909,90
60,191.49772727272727,90
60,191.78636363636363,90
60,191.94772727272726,90
60,192.075,90
60,192.66136363636363,90
60,193.24772727272727,90
60,193.53636363636363,90
60,193.825,90
60,194.11136363636362,90
60,194.27272727272725,90
60,194.41136363636363,90
60,194.69772727272726,90
60,194.84772727272727,90
60,194.98636363636362,90
60,195.28636363636363,90
60,195.4340909090909,90
60,195.57272727272726,90
60,195.86136363636362,90
60,196.02045454545453,90
60,196.1590909090909,90
60,196.3090909090909,90
60,196.44772727272726,90
60,196.59772727272727,90
60,196.725,90
60,197.02499999999998,90
60,197.1840909090909,90
60,197.32272727272726,90
60,197.47272727272727,90
60,197.61136363636362,90
60,197.7590909090909,90
60,197.89772727272725,90
60,198.0590909090909,90
60,198.18636363636364,90
60,198.34772727272727,90
60,198.48636363636362,90
60,198.64545454545453,90
60,198.77272727272725,90
60,198.9340909090909,90
60,199.06136363636364,90
60,199.3590909090909,90
60,199.5090909090909,90
60,199.64772727272725,90
60,199.8090909090909,90
60,199.93636363636364,90
60,200.09545454545454,90
60,200.2340909090909,90
60,200.39545454545453,90
60,200.52272727272725,90
60,200.67272727272726,90
60,200.81136363636364,90
60,201.9840909090909,90
60,202.57045454545454,90
60,202.8590909090909,90
60,203.0090909090909,90
60,203.14772727272725,90
60,203.29545454545453,90
60,203.4340909090909,90
60,203.59545454545454,90
60,203.7340909090909,90
60,204.02045454545453,90
60,204.17045454545453,90
60,204.3090909090909,90
60,204.59772727272727,90
60,204.75681818181818,90
60,204.89545454545453,90
60,205.1840909090909,90
60,205.34318181818182,90
60,205.47272727272727,90
60,205.63181818181818,90
60,205.7590909090909,90
60,205.92045454545453,90
60,206.04772727272726,90
60,206.21818181818182,90
60,206.34772727272727,90
60,206.50681818181818,90
60,206.6340909090909,90
60,206.79545454545453,90
60,206.9340909090909,90
60,207.08181818181816,90
60,207.22045454545454,90
60,207.38181818181818,90
60,207.52045454545453,90
60,207.67045454545453,90
60,207.8090909090909,90
60,207.95681818181816,90
60,208.09545454545454,90
60,208.24545454545452,90
60,208.3840909090909,90
60,208.68181818181816,90
60,208.83181818181816,90
60,208.97045454545454,90
60,209.12954545454545,90
60,209.2590909090909,90
60,209.4181818181818,90
60,209.55681818181816,90
60,209.70681818181816,90
60,209.8340909090909,90
60,210.00454545454545,90
60,210.1340909090909,90
60,210.2931818181818,90
60,210.42045454545453,90
60,210.58181818181816,90
60,210.7090909090909,90
60,210.87954545454545,90
60,211.0090909090909,90
60,211.29545454545453,90
60,211.88181818181818,90
60,212.18181818181816,90
60,212.47045454545454,90
60,212.75681818181818,90
60,212.9181818181818,90
60,213.04545454545453,90
60,213.20454545454544,90
60,213.34318181818182,90
60,213.4931818181818,90
60,213.63181818181818,90
60,213.78181818181818,90
60,213.92045454545453,90
60,214.07954545454544,90
60,214.21818181818182,90
60,214.3681818181818,90
60,214.50681818181818,90
60,214.79545454545453,90
60,214.95454545454544,90
60,215.08181818181816,90
60,215.2431818181818,90
60,215.38181818181818,90
60,215.54090909090908,90
60,215.67045454545453,90
60,215.82954545454544,90
60,219.45681818181816,90
60,219.75454545454545,90
60,219.91363636363636,90
60,220.0431818181818,90
60,220.32954545454544,90
60,220.62954545454545,90
60,220.9181818181818,90
60,221.0772727272727,90
60,221.20454545454544,90
60,221.50454545454545,90
60,221.79090909090908,90
60,222.0909090909091,90
60,222.24090909090907,90
60,222.3681818181818,90
60,222.66590909090908,90
60,222.95454545454544,90
60,223.25227272727273,90
60,223.41363636363636,90
60,223.52954545454546,90
60,223.82954545454544,90
60,224.1181818181818,90
60,224.41590909090908,90
60,224.575,90
60,224.70454545454544,90
60,224.99090909090907,90
60,225.27954545454546,90
60,225.57954545454544,90
60,225.73863636363635,90
60,225.86590909090907,90
60,226.16590909090908,90
60,226.31363636363636,90
60,226.4522727272727,90
60,226.75227272727273,90
60,226.9022727272727,90
60,227.02954545454546,90
60,227.3272727272727,90
60,227.61590909090907,90
60,227.90454545454546,90
60,228.06363636363636,90
60,228.1909090909091,90
60,228.49090909090907,90
60,228.77954545454546,90
60,229.0772727272727,90
60,229.23636363636362,90
60,229.35454545454544,90
60,229.6522727272727,90
60,229.9409090909091,90
60,230.24090909090907,90
60,230.39999999999998,90
60,230.5272727272727,90
60,230.8159090909091,90
60,231.11363636363635,90
60,231.41363636363636,90
60,231.56363636363636,90
60,231.6909090909091,90
60,231.98863636363635,90
60,232.2772727272727,90
60,232.5659090909091,90
60,232.725,90
60,232.85227272727272,90
60,233.1522727272727,90
60,233.4409090909091,90
60,233.73863636363635,90
60,233.89772727272725,90
60,234.01590909090908,90
60,234.31363636363636,90
60,234.60227272727272,90
60,234.9022727272727,90
60,235.06136363636364,90
60,235.18863636363636,90
60,235.47727272727272,90
60,235.63636363636363,90
60,235.76590909090908,90
60,236.06363636363636,90
60,236.225,90
60,236.35227272727272,90
60,236.64090909090908,90
60,236.93863636363636,90
60,238.0909090909091,90
60,238.6772727272727,90
60,238.975,90
60,239.26363636363635,90
60,239.42499999999998,90
60,239.56363636363636,90
60,239.71136363636361,90
60,239.82954545454544,90
60,240.13863636363635,90
60,240.28863636363636,90
60,240.4272727272727,90
60,240.58636363636361,90
60,240.725,90
60,240.875,90
60,241.00227272727273,90
60,241.3022727272727,90
60,241.46136363636361,90
60,241.58863636363634,90
60,241.75,90
60,241.88863636363635,90
60,242.0272727272727,90
60,242.15454545454546,90
60,242.475,90
60,242.625,90
60,242.76363636363635,90
60,242.91136363636363,90
60,243.04999999999998,90
60,243.2,90
60,243.3272727272727,90
60,243.63636363636363,90
60,243.78636363636363,90
60,243.92499999999998,90
60,244.075,90
60,244.21363636363634,90
60,244.49090909090907,90
60,244.79999999999998,90
60,244.95,90
60,245.08863636363634,90
60,245.24772727272727,90
60,245.38636363636363,90
60,245.53636363636363,90
60,245.6522727272727,90
60,245.96363636363634,90
60,246.12272727272727,90
60,246.25,90
60,246.41136363636363,90
60,247.42499999999998,90
60,248.0,90
60,248.29772727272726,90
60,248.58636363636361,90
60,248.73636363636362,90
60,248.875,90
60,249.0340909090909,90
60,249.1522727272727,90
60,249.46136363636361,90
60,249.61136363636362,90
60,249.75,90
60,249.9090909090909,90
60,250.03636363636363,90
60,250.19772727272726,90
60,250.325,90
60,250.625,90
60,250.77272727272725,90
60,250.91136363636363,90
60,251.21136363636361,90
60,251.35,90
60,251.47727272727272,90
60,251.78636363636363,90
60,251.94772727272726,90
60,252.075,90
60,252.2340909090909,90
60,252.37272727272725,90
60,252.52272727272725,90
60,252.64999999999998,90
60,252.9590909090909,90
60,253.1090909090909,90
60,253.24772727272725,90
60,253.39772727272725,90
60,253.53636363636363,90
60,253.68636363636364,90
60,253.81363636363636,90
60,254.12272727272725,90
60,254.27272727272725,90
60,254.41136363636363,90
60,21.354545454545452,90
60,21.995454545454546,90
60,22.313636363636363,90
60,22.81590909090909,90
60,22.954545454545453,90
60,23.275,90
60,23.913636363636364,90
60,24.543181818181818,90
60,24.863636363636363,90
60,25.375,90
60,25.504545454545454,90
60,25.825,90
60,26.46363636363636,90
60,27.104545454545452,90
60,27.424999999999997,90
60,27.924999999999997,90
60,28.052272727272726,90
60,28.37272727272727,90
60,29.013636363636362,90
60,29.652272727272727,90
60,29.972727272727273,90
60,30.474999999999998,90
60,30.613636363636363,90
60,30.93409090909091,90
60,31.57272727272727,90
60,32.20227272727273,90
60,32.52272727272727,90
60,32.875,90
60,33.03409090909091,90
60,33.17272727272727,90
60,33.48181818181818,90
60,34.12272727272727,90
60,34.763636363636365,90
60,35.08181818181818,90
60,35.58409090909091,90
60,35.72272727272727,90
60,36.03181818181818,90
60,39.220454545454544,90
60,39.55227272727272,90
60,39.72272727272727,90
60,39.861363636363635,90
60,40.19090909090909,90
60,40.36363636363636,90
60,40.502272727272725,90
60,40.68181818181818,90
60,40.820454545454545,90
60,41.14090909090909,90
60,41.461363636363636,90
60,41.663636363636364,90
60,41.78181818181818,90
60,42.10227272727273,90
60,42.28181818181818,90
60,42.42045454545455,90
60,42.74090909090909,90
60,42.92272727272727,90
60,43.06136363636364,90
60,43.23181818181818,90
60,43.37045454545454,90
60,43.69090909090909,90
60,44.02045454545454,90
60,44.32954545454545,90
60,44.65,90
60,44.83181818181818,90
60,44.970454545454544,90
60,45.29090909090909,90
60,45.47272727272727,90
60,45.611363636363635,90
60,45.79090909090909,90
60,45.929545454545455,90
60,46.25,90
60,46.570454545454545,90
60,46.89090909090909,90
60,47.211363636363636,90
60,47.38181818181818,90
60,47.52045454545454,90
60,47.849999999999994,90
60,48.02045454545454,90
60,48.17045454545454,90
60,48.340909090909086,90
60,48.47954545454545,90
60,48.8,90
60,49.12045454545454,90
60,49.32272727272727,90
60,49.44090909090909,90
60,49.77045454545454,90
60,49.94090909090909,90
60,50.07954545454545,90
60,50.4,90
60,50.58181818181818,90
60,50.720454545454544,90
60,50.902272727272724,90
60,51.04090909090909,90
60,51.349999999999994,90
60,51.679545454545455,90
60,51.98863636363636,90
60,52.309090909090905,90
60,52.490909090909085,90
60,52.62954545454545,90
60,52.949999999999996,90
60,53.12954545454545,90
60,53.27045454545454,90
60,53.449999999999996,90
60,53.58863636363636,90
60,53.90909090909091,90
60,54.22954545454545,90
60,54.43181818181818,90
60,54.55,90
60,54.87045454545454,90
60,55.04090909090909,90
60,55.179545454545455,90
60,55.50909090909091,90
60,55.679545454545455,90
60,55.82954545454545,90
60,56.0,90
60,56.13863636363636,90
60,56.459090909090904,90
60,56.77954545454545,90
60,57.09772727272727,90
60,57.418181818181814,90
60,57.599999999999994,90
60,57.73863636363636,90
60,58.059090909090905,90
60,58.240909090909085,90
60,58.37954545454545,90
60,58.559090909090905,90
60,58.69772727272727,90
60,58.87954545454545,90
60,59.00909090909091,90
60,59.65909090909091,90
60,60.288636363636364,90
60,60.61818181818182,90
60,60.81136363636363,90
60,61.14090909090909,90
60,61.24772727272727,90
60,61.44090909090909,90
60,61.56818181818181,90
60,62.209090909090904,90
60,62.720454545454544,90
60,62.84772727272727,90
60,63.179545454545455,90
60,63.35909090909091,90
60,63.69090909090909,90
60,63.809090909090905,90
60,63.98863636363636,90
60,64.11818181818181,90
60,64.75681818181818,90
60,65.27045454545454,90
60,65.39772727272727,90
60,65.72727272727272,90
60,65.9090909090909,90
60,66.35681818181818,90
60,66.55,90
60,66.67727272727272,90
60,67.0090909090909,90
60,67.31818181818181,90
60,67.81818181818181,90
60,67.94772727272726,90
60,68.27727272727273,90
60,68.4590909090909,90
60,68.90681818181818,90
60,69.09772727272727,90
60,69.22727272727272,90
60,69.86590909090908,90
60,70.19772727272726,90
60,70.37954545454545,90
60,70.50681818181818,90
60,70.82727272727273,90
60,71.01818181818182,90
60,71.14772727272727,90
60,71.4659090909091,90
60,71.64772727272727,90
60,71.77499999999999,90
60,72.10681818181818,90
60,72.41590909090908,90
60,72.74772727272727,90
60,72.92727272727272,90
60,73.05681818181817,90
60,73.38636363636363,90
60,73.57954545454545,90
60,73.70681818181818,90
60,74.01590909090909,90
60,74.19772727272726,90
60,74.33636363636363,90
60,74.65681818181818,90
60,74.975,90
60,75.29545454545455,90
60,75.47727272727272,90
60,75.60454545454544,90
60,75.93636363636364,90
60,76.12727272727273,90
60,76.25681818181818,90
60,76.56590909090909,90
60,76.75681818181818,90
60,76.88636363636363,90
60,77.2159090909091,90
60,77.52499999999999,90
60,77.85681818181818,90
60,78.03636363636363,90
60,78.16590909090908,90
60,78.49545454545454,90
60,78.67727272727272,90
60,78.80454545454545,90
60,79.125,90
60,79.30681818181817,90
60,79.44545454545454,90
60,80.075,90
60,80.71363636363635,90
60,81.0340909090909,90
60,81.20454545454545,90
60,81.36590909090908,90
60,81.53636363636363,90
60,81.675,90
60,81.86590909090908,90
60,81.99545454545454,90
60,82.175,90
60,82.31363636363636,90
60,82.49545454545454,90
60,82.6340909090909,90
60,82.95454545454545,90
60,83.13636363636363,90
60,83.26363636363637,90
60,83.44545454545454,90
60,83.59545454545454,90
60,83.75454545454545,90
60,83.91363636363636,90
60,84.09545454545454,90
60,84.225,90
60,84.41590909090908,90
60,84.54318181818181,90
60,84.725,90
60,84.875,90
60,85.04545454545455,90
60,85.1840909090909,90
60,85.51363636363637,90
60,85.69545454545454,90
60,85.825,90
60,86.00454545454545,90
60,86.14318181818182,90
60,86.31363636363636,90
60,86.46363636363635,90
60,86.64545454545454,90
60,86.7840909090909,90
60,86.9659090909091,90
60,87.09318181818182,90
60,87.27499999999999,90
60,87.425,90
60,87.60454545454544,90
60,87.74318181818181,90
60,88.06363636363636,90
60,88.24545454545454,90
60,88.37272727272727,90
60,88.55454545454545,90
60,88.69318181818181,90
60,88.86363636363636,90
60,90.29318181818181,90
60,90.79545454545455,90
60,90.9340909090909,90
60,91.4340909090909,90
60,91.57272727272726,90
60,91.75454545454545,90
60,91.89318181818182,90
60,92.20227272727273,90
60,92.84318181818182,90
60,93.17272727272727,90
60,93.34318181818182,90
60,93.48181818181818,90
60,93.81363636363636,90
60,93.98409090909091,90
60,94.12272727272727,90
60,94.30454545454545,90
60,94.44318181818181,90
60,94.76363636363637,90
60,95.40227272727272,90
60,95.72272727272727,90
60,95.89318181818182,90
60,96.03181818181818,90
60,96.5340909090909,90
60,96.68181818181817,90
60,96.85227272727272,90
60,96.99090909090908,90
60,97.31136363636364,90
60,97.95227272727273,90
60,98.28181818181818,90
60,98.45227272727273,90
60,98.59090909090908,90
60,98.91136363636363,90
60,99.09318181818182,90
60,99.23181818181817,90
60,99.41363636363636,90
60,99.55227272727272,90
60,99.86136363636363,90
60,120.92727272727272,90
60,121.56818181818181,90
60,121.89772727272727,90
60,122.07045454545454,90
60,122.2090909090909,90
60,122.52727272727272,90
60,122.7090909090909,90
60,122.84772727272727,90
60,123.17954545454545,90
60,123.48863636363636,90
60,123.81818181818181,90
60,124.12727272727273,90
60,124.44772727272726,90
60,124.61818181818181,90
60,124.76818181818182,90
60,125.07727272727273,90
60,125.2590909090909,90
60,125.39772727272727,90
60,125.72727272727272,90
60,126.03636363636363,90
60,126.36818181818181,90
60,126.67727272727272,90
60,127.0090909090909,90
60,127.17954545454545,90
60,127.31818181818181,90
60,127.63636363636363,90
60,127.8090909090909,90
60,127.95681818181818,90
60,128.27727272727273,90
60,128.58636363636364,90
60,128.9181818181818,90
60,129.23636363636362,90
60,129.5568181818182,90
60,129.72727272727272,90
60,129.86590909090907,90
60,130.18636363636364,90
60,130.36818181818182,90
60,130.50681818181818,90
60,130.83636363636364,90
60,133.69545454545454,90
60,134.19772727272726,90
60,134.33636363636364,90
60,134.66590909090908,90
60,134.83636363636364,90
60,134.98636363636362,90
60,135.15681818181818,90
60,135.29545454545453,90
60,135.61590909090907,90
60,135.93636363636364,90
60,136.25681818181818,90
60,136.575,90
60,136.74772727272727,90
60,136.88636363636363,90
60,137.2159090909091,90
60,137.38636363636363,90
60,137.53636363636363,90
60,137.70681818181816,90
60,137.84545454545454,90
60,138.16590909090908,90
60,138.49545454545455,90
60,138.80454545454546,90
60,139.125,90
60,139.3068181818182,90
60,139.44545454545454,90
60,139.76590909090908,90
60,139.94772727272726,90
60,140.08636363636364,90
60,140.26590909090908,90
60,140.40454545454546,90
60,140.71363636363637,90
60,141.04545454545453,90
60,141.35454545454544,90
60,141.68636363636364,90
60,141.85681818181817,90
60,141.99545454545455,90
60,142.325,90
60,142.49545454545455,90
60,142.6340909090909,90
60,142.8159090909091,90
60,142.95454545454544,90
60,143.275,90
60,143.59545454545454,90
60,143.91363636363636,90
60,144.41590909090908,90
60,144.5431818181818,90
60,144.875,90
60,145.04545454545453,90
60,145.19545454545454,90
60,145.36590909090907,90
60,145.50454545454545,90
60,145.825,90
60,146.15454545454546,90
60,146.46363636363637,90
60,146.79545454545453,90
60,146.9659090909091,90
60,147.10454545454544,90
60,147.42499999999998,90
60,147.60454545454544,90
60,147.74318181818182,90
60,147.92499999999998,90
60,148.06363636363636,90
60,148.37272727272727,90
60,148.70454545454544,90
60,149.01363636363635,90
60,149.34318181818182,90
60,149.51363636363635,90
60,149.65227272727273,90
60,149.9840909090909,90
60,150.15454545454546,90
60,150.30454545454543,90
60,150.475,90
60,150.61363636363635,90
60,150.9340909090909,90
60,151.25227272727273,90
60,151.57272727272726,90
60,151.8931818181818,90
60,152.075,90
60,152.2022727272727,90
60,152.5340909090909,90
60,152.70454545454544,90
60,152.84318181818182,90
60,153.0340909090909,90
60,153.16363636363636,90
60,153.48181818181817,90
60,154.12272727272727,90
60,154.76363636363635,90
60,155.08181818181816,90
60,155.41363636363636,90
60,155.5840909090909,90
60,155.72272727272727,90
60,156.03181818181818,90
60,156.36363636363635,90
60,156.67272727272726,90
60,157.00227272727273,90
60,157.31136363636364,90
60,157.63181818181818,90
60,157.96363636363637,90
60,158.1340909090909,90
60,158.27272727272725,90
60,158.5909090909091,90
60,158.92272727272726,90
60,159.23181818181817,90
60,159.5522727272727,90
60,159.86136363636362,90
60,160.1909090909091,90
60,160.51136363636363,90
60,160.6818181818182,90
60,160.82045454545454,90
60,161.14090909090908,90
60,161.47272727272727,90
60,161.78181818181818,90
60,162.11136363636362,90
60,162.42045454545453,90
60,162.74090909090907,90
60,163.07272727272726,90
60,163.24318181818182,90
60,163.38181818181818,90
60,163.7022727272727,90
60,164.02045454545453,90
60,164.32954545454544,90
60,164.66136363636363,90
60,164.97045454545454,90
60,165.29090909090908,90
60,165.62045454545455,90
60,165.79090909090908,90
60,165.92954545454543,90
60,166.25,90
60,166.58181818181816,90
60,166.89090909090908,90
60,167.21136363636361,90
60,167.52954545454546,90
60,167.85,90
60,168.17045454545453,90
60,168.3409090909091,90
60,168.47954545454544,90
60,168.79999999999998,90
60,169.12954545454545,90
60,169.4409090909091,90
60,169.77045454545453,90
60,170.07954545454544,90
60,170.4,90
60,170.72045454545454,90
60,170.90227272727273,90
60,171.04090909090908,90
60,171.3590909090909,90
60,171.67954545454543,90
60,172.0,90
60,172.32045454545454,90
60,172.62954545454545,90
60,172.95,90
60,173.27954545454546,90
60,173.45,90
60,173.58863636363637,90
60,173.9090909090909,90
60,174.54999999999998,90
60,175.04999999999998,90
60,175.18863636363636,90
60,175.6909090909091,90
60,175.82954545454544,90
60,176.01136363636363,90
60,176.14999999999998,90
60,176.4590909090909,90
60,176.78863636363636,90
60,177.09772727272727,90
60,177.42954545454543,90
60,177.6,90
60,177.73863636363635,90
60,178.07045454545454,90
60,178.24090909090907,90
60,178.38863636363635,90
60,178.5590909090909,90
60,178.69772727272726,90
60,179.0181818181818,90
60,179.33863636363637,90
60,179.6590909090909,90
60,179.97954545454544,90
60,180.1590909090909,90
60,180.28863636363636,90
60,180.6181818181818,90
60,180.78863636363636,90
60,180.93863636363636,90
60,181.1090909090909,90
60,181.24772727272727,90
60,181.5681818181818,90
60,181.88863636363635,90
60,182.2090909090909,90
60,182.52727272727273,90
60,182.7090909090909,90
60,182.84772727272727,90
60,183.1681818181818,90
60,183.35,90
60,183.48863636363635,90
60,183.67045454545453,90
60,183.8090909090909,90
60,184.1181818181818,90
60,184.44772727272726,90
60,184.75681818181818,90
60,185.2590909090909,90
60,185.39772727272725,90
60,185.72727272727272,90
60,185.89772727272725,90
60,186.03636363636363,90
60,186.21818181818182,90
60,186.35681818181817,90
60,186.6772727272727,90
60,186.99772727272727,90
60,187.3181818181818,90
60,187.63636363636363,90
60,187.8181818181818,90
60,187.94772727272726,90
60,188.27727272727273,90
60,188.44772727272726,90
60,188.59772727272727,90
60,188.77954545454546,90
60,188.90681818181818,90
60,189.22727272727272,90
60,189.54772727272726,90
60,189.86590909090907,90
60,190.19772727272726,90
60,190.3681818181818,90
60,190.50681818181818,90
60,190.8272727272727,90
60,191.0090909090909,90
60,191.14772727272725,90
60,191.3272727272727,90
60,191.4659090909091,90
60,191.78636363636363,90
60,192.10681818181817,90
60,192.4272727272727,90
60,192.74772727272727,90
60,192.9181818181818,90
60,193.05681818181816,90
60,193.375,90
60,193.55681818181816,90
60,193.69545454545454,90
60,193.87727272727273,90
60,194.01590909090908,90
60,194.33636363636361,90
60,194.66590909090908,90
60,194.975,90
60,195.61590909090907,90
60,196.89545454545453,90
60,198.16590909090908,90
60,199.44545454545454,90
60,200.71363636363634,90
60,201.99545454545455,90
60,203.27499999999998,90
60,204.55454545454543,90
60,1.8977272727272727,90
60,2.143181818181818,90
60,2.3795454545454544,90
60,2.752272727272727,90
60,2.859090909090909,90
60,3.093181818181818,90
60,3.327272727272727,90
60,3.5727272727272728,90
60,3.702272727272727,90
60,4.0636363636363635,90
60,4.297727272727273,90
60,5.247727272727272,90
60,5.663636363636363,90
60,6.143181818181818,90
60,6.25,90
60,6.527272727272727,90
60,7.252272727272727,90
60,7.636363636363636,90
60,8.225,90
60,8.470454545454546,90
60,8.60909090909091,90
60,8.713636363636363,90
60,8.95,90
60,9.195454545454545,90
60,9.588636363636363,90
60,10.186363636363636,90
60,10.697727272727272,90
60,10.934090909090909,90
60,11.179545454545455,90
60,11.563636363636363,90
60,11.936363636363636,90
60,12.170454545454545,90
60,12.672727272727272,90
60,12.918181818181818,90
60,13.152272727272727,90
60,13.524999999999999,90
60,14.134090909090908,90
60,14.634090909090908,90
60,14.870454545454544,90
60,15.113636363636363,90
60,15.497727272727271,90
60,16.10681818181818,90
60,16.831818181818182,90
60,17.077272727272728,90
60,17.48181818181818,90
60,17.834090909090907,90
60,18.070454545454545,90
60,18.325,90
60,18.55909090909091,90
60,18.804545454545455,90
60,19.04090909090909,90
60,19.425,90
60,19.786363636363635,90
60,20.03181818181818,90
60,20.288636363636364,90
60,20.543181818181818,90
60,20.768181818181816,90
60,21.013636363636362,90
60,21.386363636363637,90
60,21.75,90
60,21.995454545454546,90
60,22.752272727272725,90
60,22.974999999999998,90
60,23.35909090909091,90
60,23.956818181818182,90
60,24.459090909090907,90
60,24.704545454545453,90
60,24.95,90
60,25.354545454545452,90
60,25.952272727272724,90
60,26.452272727272724,90
60,26.93409090909091,90
60,27.30681818181818,90
60,27.893181818181816,90
60,28.629545454545454,90
60,28.886363636363637,90
60,29.24772727272727,90
60,29.611363636363635,90
60,29.75,90
60,29.877272727272725,90
60,30.134090909090908,90
60,30.379545454545454,90
60,30.613636363636363,90
60,30.85909090909091,90
60,31.359090909090906,90
60,31.595454545454544,90
60,31.84090909090909,90
60,32.095454545454544,90
60,32.340909090909086,90
60,32.574999999999996,90
60,32.820454545454545,90
60,33.06590909090909,90
60,33.33409090909091,90
60,33.56818181818181,90
60,33.81363636363636,90
60,34.304545454545455,90
60,34.77272727272727,90
60,35.275,90
60,37.24772727272727,90
60,37.72727272727273,90
60,38.20909090909091,90
60,38.69772727272727,90
60,39.18863636363636,90
60,39.69090909090909,90
60,40.18181818181818,90
60,40.67272727272727,90
60,41.17272727272727,90
60,41.663636363636364,90
60,42.15454545454545,90
60,42.65681818181818,90
60,43.13636363636363,90
60,43.627272727272725,90
60,44.11818181818182,90
60,44.61818181818182,90
60,45.09772727272727,90
60,45.599999999999994,90
60,46.07954545454545,90
60,46.570454545454545,90
60,47.07272727272727,90
60,47.55227272727272,90
60,48.043181818181814,90
60,48.543181818181814,90
60,49.03409090909091,90
60,49.53636363636363,90
60,50.027272727272724,90
60,50.50681818181818,90
60,51.00909090909091,90
60,51.49772727272727,90
60,51.98863636363636,90
60,52.490909090909085,90
60,52.98181818181818,90
60,53.47272727272727,90
60,53.95227272727273,90
60,54.45227272727273,90
60,54.94318181818181,90
60,55.434090909090905,90
60,55.913636363636364,90
60,56.41590909090909,90
60,56.918181818181814,90
60,57.40909090909091,90
60,57.89772727272727,90
60,58.37954545454545,90
60,58.87045454545454,90
60,59.37045454545454,90
60,59.861363636363635,90
60,60.36363636363636,90
60,60.84318181818182,90
60,61.334090909090904,90
60,61.824999999999996,90
60,62.324999999999996,90
60,62.804545454545455,90
60,63.29545454545454,90
60,63.79772727272727,90
60,64.05227272727272,90
60,64.28863636363636,90
60,64.77954545454546,90
60,65.27045454545454,90
60,65.75,90
60,66.24090909090908,90
60,66.74090909090908,90
60,67.23181818181818,90
60,67.72272727272727,90
60,68.21363636363635,90
60,68.70454545454545,90
60,69.20454545454545,90
60,69.46136363636363,90
60,69.69545454545454,90
60,70.18636363636364,90
60,70.67727272727272,90
60,71.16818181818182,90
60,71.6590909090909,90
60,72.1590909090909,90
60,72.41590909090908,90
60,72.64999999999999,90
60,73.14090909090909,90
60,73.63181818181818,90
60,74.12272727272727,90
60,74.61363636363636,90
60,75.10454545454544,90
60,75.37045454545454,90
60,75.59545454545454,90
60,76.08636363636363,90
60,76.58636363636363,90
60,92.32045454545454,90
60,92.81136363636364,90
60,93.31136363636364,90
60,93.79090909090908,90
60,94.28181818181818,90
60,94.77272727272727,90
60,95.26363636363637,90
60,95.76590909090909,90
60,96.25681818181818,90
60,96.74772727272727,90
60,97.23636363636363,90
60,97.72727272727272,90
60,98.2090909090909,90
60,98.7090909090909,90
60,99.19999999999999,90
60,99.70227272727273,90
60,100.19090909090909,90
60,100.68181818181817,90
60,101.17272727272727,90
60,101.675,90
60,102.15454545454546,90
60,102.64545454545454,90
60,103.13636363636363,90
60,103.62727272727273,90
60,104.11818181818181,90
60,104.61818181818181,90
60,105.10909090909091,90
60,105.6,90
60,106.09090909090908,90
60,106.58181818181818,90
60,107.07272727272726,90
60,107.56363636363636,90
60,108.05227272727272,90
60,108.34090909090908,90
60,108.55454545454545,90
60,109.04545454545455,90
60,109.31136363636364,90
60,109.53636363636363,90
60,109.80227272727272,90
60,110.02727272727272,90
60,110.29318181818181,90
60,110.51818181818182,90
60,110.77272727272727,90
60,111.01818181818182,90
60,111.49772727272726,90
60,111.75454545454545,90
60,111.98863636363636,90
60,112.24545454545454,90
60,112.47954545454544,90
60,112.98181818181817,90
60,113.47272727272727,90
60,113.96363636363635,90
60,114.21818181818182,90
60,114.44318181818181,90
60,114.7090909090909,90
60,114.94318181818181,90
60,115.21136363636363,90
60,115.4340909090909,90
60,115.70227272727273,90
60,115.925,90
60,116.19090909090909,90
60,116.42727272727272,90
60,116.91818181818181,90
60,117.17272727272727,90
60,117.39772727272727,90
60,117.66363636363636,90
60,117.89772727272727,90
60,118.15454545454544,90
60,118.38863636363635,90
60,118.64545454545454,90
60,118.87045454545454,90
60,119.13636363636363,90
60,119.37045454545454,90
60,119.86136363636363,90
60,120.35227272727272,90
60,120.84318181818182,90
60,121.3340909090909,90
60,121.82499999999999,90
60,122.31363636363636,90
60,122.81590909090909,90
60,123.30681818181817,90
60,123.79772727272727,90
60,124.28863636363636,90
60,124.77954545454544,90
60,125.27045454545454,90
60,125.7590909090909,90
60,126.25,90
60,126.75227272727273,90
60,127.24318181818181,90
60,127.73409090909091,90
60,128.225,90
60,128.71363636363637,90
60,129.20454545454544,90
60,129.68636363636364,90
60,130.18636363636364,90
60,130.6772727272727,90
60,131.1681818181818,90
60,131.6590909090909,90
60,132.1590909090909,90
60,132.65,90
60,133.14090909090908,90
60,133.63181818181818,90
60,134.12272727272727,90
60,134.61363636363635,90
60,135.11363636363635,90
60,135.59545454545454,90
60,136.08636363636364,90
60,136.575,90
60,137.0772727272727,90
60,137.5681818181818,90
60,138.0590909090909,90
60,138.54999999999998,90
60,139.04090909090908,90
60,139.52954545454546,90
60,140.02045454545453,90
60,140.52272727272725,90
60,141.01363636363635,90
60,141.49318181818182,90
60,141.99545454545455,90
60,142.48636363636362,90
60,142.975,90
60,143.4659090909091,90
60,143.95681818181816,90
60,144.4590909090909,90
60,144.95,90
60,145.42954545454543,90
60,145.92954545454543,90
60,146.42045454545453,90
60,146.91136363636363,90
60,147.40227272727273,90
60,147.8931818181818,90
60,148.3840909090909,90
60,148.875,90
60,149.36590909090907,90
60,149.85681818181817,90
60,150.35681818181817,90
60,150.84772727272727,90
60,151.3181818181818,90
60,151.35,90
60,151.8181818181818,90
60,152.32045454545454,90
60,152.81136363636364,90
60,153.3022727272727,90
60,153.79090909090908,90
60,154.2931818181818,90
60,154.77272727272725,90
60,155.24318181818182,90
60,155.28636363636363,90
60,155.76590909090908,90
60,156.25681818181818,90
60,156.74772727272727,90
60,157.23636363636362,90
60,157.72727272727272,90
60,158.21818181818182,90
60,158.7090909090909,90
60,159.1681818181818,90
60,159.21136363636361,90
60,159.6909090909091,90
60,160.1909090909091,90
60,160.6818181818182,90
60,161.15227272727273,90
60,161.1840909090909,90
60,163.13636363636363,90
60,163.62727272727273,90
60,164.01136363636363,90
60,164.12727272727273,90
60,164.24545454545455,90
60,164.50227272727273,90
60,164.61818181818182,90
60,164.99090909090907,90
60,165.1090909090909,90
60,165.36590909090907,90
60,165.48181818181817,90
60,165.58863636363637,90
60,165.97272727272727,90
60,166.0909090909091,90
60,166.2090909090909,90
60,166.46363636363637,90
60,166.57045454545454,90
60,166.95454545454544,90
60,167.07272727272726,90
60,167.3272727272727,90
60,167.4340909090909,90
60,167.56363636363636,90
60,167.93636363636364,90
60,168.0522727272727,90
60,168.1818181818182,90
60,168.43636363636364,90
60,168.5431818181818,90
60,168.9272727272727,90
60,169.04545454545453,90
60,169.3022727272727,90
60,169.4181818181818,90
60,169.53636363636363,90
60,169.9090909090909,90
60,170.02727272727273,90
60,170.15454545454546,90
60,170.4,90
60,170.50681818181818,90
60,170.87954545454545,90
60,171.0090909090909,90
60,171.26363636363635,90
60,171.38181818181818,90
60,171.49772727272727,90
60,171.87272727272727,90
60,171.98863636363635,90
60,172.1181818181818,90
60,172.36363636363635,90
60,172.47954545454544,90
60,172.86363636363635,90
60,172.97045454545454,90
60,173.23636363636362,90
60,173.34318181818182,90
60,173.47272727272727,90
60,173.84545454545454,90
60,173.96363636363637,90
60,174.0909090909091,90
60,174.33636363636361,90
60,174.4431818181818,90
60,174.8272727272727,90
60,174.9431818181818,90
60,175.2,90
60,175.3068181818182,90
60,175.4340909090909,90
60,175.8090909090909,90
60,175.92499999999998,90
60,176.0522727272727,90
60,176.29772727272726,90
60,176.41590909090908,90
60,176.79999999999998,90
60,176.9181818181818,90
60,177.17272727272726,90
60,177.27954545454546,90
60,177.39772727272725,90
60,177.77045454545453,90
60,177.89772727272725,90
60,178.01590909090908,90
60,178.27272727272725,90
60,178.37954545454545,90
60,178.76363636363635,90
60,178.87954545454545,90
60,179.37045454545455,90
60,179.75454545454545,90
60,179.86136363636362,90
60,180.35227272727272,90
60,180.73636363636362,90
60,180.85227272727272,90
60,181.22727272727272,90
60,181.34318181818182,90
60,181.71818181818182,90
60,181.8340909090909,90
60,181.96363636363637,90
60,182.325,90
60,182.69772727272726,90
60,182.8159090909091,90
60,183.3068181818182,90
60,183.67954545454543,90
60,183.79772727272726,90
60,183.93636363636364,90
60,184.28863636363636,90
60,184.67272727272726,90
60,184.77954545454546,90
60,185.27045454545453,90
60,185.65227272727273,90
60,185.77045454545453,90
60,185.89772727272725,90
60,186.1431818181818,90
60,186.26136363636363,90
60,186.6340909090909,90
60,186.75227272727273,90
60,187.125,90
60,187.2431818181818,90
60,187.61590909090907,90
60,187.7340909090909,90
60,188.225,90
60,188.59772727272727,90
60,188.71363636363637,90
60,189.20454545454544,90
60,189.58863636363637,90
60,189.69545454545454,90
60,190.18636363636364,90
60,190.57045454545454,90
60,190.68863636363636,90
60,191.1681818181818,90
60,191.5522727272727,90
60,191.67045454545453,90
60,192.1590909090909,90
60,192.5340909090909,90
60,192.64999999999998,90
60,192.81136363636364,90
60,193.14090909090908,90
60,193.51363636363635,90
60,193.63181818181818,90
60,194.12272727272727,90
60,194.49545454545455,90
60,194.61363636363635,90
60,194.98636363636362,90
60,195.11363636363635,90
60,195.48863636363635,90
60,195.60454545454544,90
60,195.7340909090909,90
60,196.09545454545454,90
60,196.47045454545454,90
60,196.58636363636361,90
60,197.0772727272727,90
60,197.45,90
60,197.5681818181818,90
60,198.0590909090909,90
60,198.43181818181816,90
60,198.54999999999998,90
60,198.92272727272726,90
60,199.04090909090908,90
60,199.41363636363636,90
60,199.54090909090908,90
60,200.03181818181818,90
60,200.40454545454546,90
60,200.52272727272725,90
60,201.01363636363635,90
60,201.38636363636363,90
60,201.50454545454545,90
60,201.6431818181818,90
60,201.99545454545455,90
60,202.3681818181818,90
60,202.48636363636362,90
60,202.8590909090909,90
60,202.975,90
60,203.35,90
60,203.4659090909091,90
60,203.60454545454544,90
60,203.96818181818182,90
60,204.3409090909091,90
60,204.44772727272726,90
60,204.95,90
60,205.32272727272726,90
60,205.4409090909091,90
60,205.5681818181818,90
60,205.92954545454543,90
60,206.30454545454543,90
60,206.42045454545453,90
60,206.91136363636363,90
60,207.28636363636363,90
60,207.40227272727273,90
60,207.8931818181818,90
60,208.27727272727273,90
60,208.3840909090909,90
60,208.88636363636363,90
60,0.7681818181818182,90
60,2.047727272727273,90
60,3.318181818181818,90
60,4.597727272727273,90
60,5.877272727272727,90
60,7.156818181818181,90
60,8.436363636363636,90
60,9.695454545454545,90
60,10.336363636363636,90
60,10.677272727272726,90
60,10.975,90
60,11.306818181818182,90
60,11.61590909090909,90
60,11.936363636363636,90
60,12.256818181818181,90
60,12.586363636363636,90
60,12.895454545454545,90
60,13.227272727272727,90
60,13.536363636363635,90
60,13.86590909090909,90
60,14.174999999999999,90
60,14.486363636363636,90
60,14.804545454545455,90
60,15.136363636363635,90
60,15.445454545454545,90
60,15.774999999999999,90
60,16.086363636363636,90
60,16.41590909090909,90
60,16.724999999999998,90
60,17.034090909090907,90
60,17.36590909090909,90
60,17.695454545454545,90
60,17.995454545454546,90
60,18.325,90
60,18.634090909090908,90
60,18.96590909090909,90
60,19.275,90
60,20.543181818181818,90
60,20.886363636363637,90
60,21.195454545454545,90
60,21.525,90
60,21.834090909090907,90
60,22.143181818181816,90
60,22.46363636363636,90
60,22.795454545454543,90
60,23.104545454545452,90
60,23.43409090909091,90
60,23.743181818181817,90
60,24.075,90
60,24.384090909090908,90
60,24.704545454545453,90
60,25.025,90
60,25.354545454545452,90
60,25.652272727272727,90
60,25.995454545454542,90
60,26.304545454545455,90
60,26.625,90
60,26.943181818181817,90
60,27.252272727272725,90
60,27.57272727272727,90
60,27.904545454545453,90
60,28.202272727272724,90
60,28.543181818181818,90
60,28.852272727272727,90
60,29.18409090909091,90
60,29.493181818181817,90
60,29.802272727272726,90
60,30.12272727272727,90
60,31.402272727272727,90
60,32.70454545454545,90
60,33.31136363636364,90
60,33.95227272727273,90
60,34.486363636363635,90
60,34.590909090909086,90
60,34.91136363636363,90
60,35.220454545454544,90
60,35.55227272727272,90
60,35.861363636363635,90
60,36.18181818181818,90
60,36.502272727272725,90
60,36.83181818181818,90
60,37.14090909090909,90
60,37.461363636363636,90
60,37.77045454545454,90
60,38.10227272727273,90
60,38.42045454545455,90
60,38.72954545454545,90
60,39.05,90
60,39.39090909090909,90
60,39.584090909090904,90
60,39.70227272727273,90
60,40.01136363636363,90
60,40.32954545454545,90
60,40.65,90
60,40.970454545454544,90
60,41.29090909090909,90
60,41.6,90
60,41.94090909090909,90
60,42.143181818181816,90
60,42.25,90
60,42.570454545454545,90
60,42.87954545454545,90
60,43.211363636363636,90
60,43.52045454545454,90
60,43.840909090909086,90
60,44.15,90
60,44.49090909090909,90
60,44.69318181818181,90
60,44.8,90
60,45.12045454545454,90
60,45.44090909090909,90
60,45.75909090909091,90
60,46.07954545454545,90
60,46.720454545454544,90
60,47.04090909090909,90
60,48.0,90
60,48.64090909090909,90
60,49.27045454545454,90
60,49.80227272727272,90
60,49.90909090909091,90
60,50.22954545454545,90
60,50.55,90
60,50.85909090909091,90
60,51.179545454545455,90
60,51.49772727272727,90
60,51.82954545454545,90
60,52.15,90
60,52.35227272727273,90
60,52.459090909090904,90
60,52.77954545454545,90
60,53.09772727272727,90
60,53.418181818181814,90
60,53.73863636363636,90
60,54.04772727272727,90
60,54.37954545454545,90
60,54.709090909090904,90
60,54.91136363636363,90
60,55.018181818181816,90
60,55.33863636363636,90
60,55.64772727272727,90
60,55.97954545454545,90
60,56.288636363636364,90
60,56.60909090909091,90
60,56.918181818181814,90
60,57.25909090909091,90
60,57.461363636363636,90
60,57.56818181818181,90
60,57.88863636363636,90
60,58.209090909090904,90
60,58.527272727272724,90
60,58.836363636363636,90
60,59.15681818181818,90
60,59.48863636363636,90
60,59.809090909090905,90
60,60.11818181818182,90
60,60.43636363636363,90
60,60.756818181818176,90
60,61.07727272727272,90
60,61.397727272727266,90
60,61.71818181818182,90
60,62.03636363636363,90
60,62.35681818181818,90
60,62.66590909090909,90
60,62.986363636363635,90
60,63.31818181818181,90
60,63.63636363636363,90
60,63.94772727272727,90
60,64.26590909090909,90
60,64.58636363636363,90
60,64.90681818181818,90
60,65.22727272727272,90
60,65.53636363636363,90
60,65.85681818181818,90
60,66.175,90
60,66.49545454545454,90
60,68.09545454545454,90
60,68.30909090909091,90
60,68.42727272727272,90
60,68.62954545454545,90
60,68.73636363636363,90
60,69.05681818181817,90
60,69.68636363636364,90
60,70.21818181818182,90
60,70.325,90
60,70.64545454545454,90
60,70.95454545454545,90
60,71.28636363636363,90
60,71.59545454545454,90
60,71.91363636363636,90
60,72.23409090909091,90
60,72.55454545454545,90
60,72.76818181818182,90
60,72.86363636363636,90
60,73.18409090909091,90
60,73.51363636363637,90
60,73.8340909090909,90
60,74.15454545454546,90
60,74.475,90
60,74.7840909090909,90
60,75.11363636363636,90
60,75.32727272727273,90
60,75.425,90
60,75.74318181818181,90
60,76.06363636363636,90
60,76.39545454545454,90
60,76.69318181818181,90
60,77.02499999999999,90
60,77.34318181818182,90
60,77.66363636363636,90
60,77.87727272727273,90
60,77.97272727272727,90
60,78.29318181818181,90
60,78.625,90
60,78.94318181818181,90
60,79.26363636363637,90
60,79.90454545454546,90
60,80.225,90
60,80.43636363636364,90
60,80.54318181818181,90
60,80.85227272727272,90
60,81.17272727272727,90
60,81.49318181818181,90
60,81.81363636363636,90
60,82.12272727272727,90
60,82.45227272727273,90
60,82.77272727272727,90
60,82.98636363636363,90
60,83.09318181818182,90
60,83.41363636363636,90
60,83.72272727272727,90
60,84.05227272727272,90
60,84.36363636363636,90
60,84.68181818181817,90
60,85.00227272727273,90
60,85.32272727272726,90
60,86.92272727272727,90
60,87.56363636363636,90
60,88.08636363636363,90
60,88.20227272727273,90
60,88.52272727272727,90
60,88.83181818181818,90
60,89.15227272727272,90
60,89.47272727272727,90
60,89.78181818181818,90
60,90.10227272727272,90
60,90.43181818181817,90
60,90.64545454545454,90
60,90.74090909090908,90
60,91.07272727272726,90
60,91.39090909090909,90
60,91.70227272727273,90
60,92.02045454545454,90
60,92.32954545454545,90
60,92.66136363636363,90
60,92.98181818181818,90
60,93.1840909090909,90
60,93.30227272727272,90
60,93.62045454545454,90
60,93.94090909090909,90
60,94.26136363636363,90
60,94.58181818181818,90
60,95.85,90
60,97.12954545454545,90
60,97.77045454545454,90
60,98.30454545454545,90
60,98.41136363636363,90
60,98.72954545454544,90
60,99.05,90
60,99.37045454545454,90
60,99.67954545454545,90
60,99.98863636363636,90
60,100.32045454545454,90
60,100.64090909090909,90
60,100.85227272727272,90
60,100.9590909090909,90
60,101.27045454545454,90
60,101.6,90
60,101.9090909090909,90
60,102.22954545454544,90
60,102.55,90
60,102.87045454545454,90
60,103.18863636363636,90
60,103.40227272727272,90
60,103.5090909090909,90
60,103.82954545454545,90
60,104.14999999999999,90
60,104.47045454545454,90
60,104.77954545454546,90
60,105.09772727272727,90
60,105.42954545454545,90
60,105.73863636363636,90
60,105.95227272727273,90
60,106.0590909090909,90
60,106.37954545454545,90
60,106.7090909090909,90
60,107.01818181818182,90
60,107.33863636363635,90
60,107.6590909090909,90
60,107.97954545454544,90
60,108.29772727272727,90
60,108.50227272727273,90
60,108.60909090909091,90
60,108.92727272727272,90
60,109.2590909090909,90
60,109.89772727272727,90
60,111.81818181818181,90
60,114.36818181818181,90
60,114.99772727272726,90
60,115.31818181818181,90
60,115.63636363636363,90
60,115.95681818181818,90
60,116.27727272727272,90
60,116.58636363636363,90
60,116.91818181818181,90
60,117.22727272727272,90
60,117.54772727272727,90
60,117.86590909090908,90
60,118.18636363636364,90
60,118.50681818181818,90
60,118.82727272727273,90
60,119.14772727272727,90
60,119.47727272727272,90
60,119.79772727272727,90
60,120.10681818181817,90
60,120.74772727272726,90
60,121.38636363636363,90
60,121.69545454545454,90
60,122.02727272727272,90
60,122.34772727272727,90
60,122.65681818181818,90
60,122.98636363636363,90
60,123.29545454545453,90
60,123.62727272727273,90
60,123.93636363636364,90
60,124.24545454545454,90
60,124.57499999999999,90
60,125.21590909090908,90
60,125.85681818181817,90
60,126.48636363636363,90
60,127.01818181818182,90
60,127.13636363636363,90
60,127.35,90
60,127.45681818181818,90
60,127.77499999999999,90
60,128.40454545454546,90
60,128.93863636363636,90
60,129.04545454545453,90
60,129.36590909090907,90
60,129.67499999999998,90
60,130.31363636363636,90
60,130.64545454545453,90
60,130.95454545454544,90
60,131.48863636363635,90
60,131.59545454545454,90
60,131.91363636363636,90
60,132.2340909090909,90
60,132.875,90
60,133.20454545454544,90
60,133.51363636363635,90
60,133.8340909090909,90
60,134.04772727272726,90
60,134.15454545454546,90
60,134.46363636363637,90
60,134.7840909090909,90
60,135.42499999999998,90
60,135.75454545454545,90
60,136.06363636363636,90
60,136.39545454545453,90
60,136.70454545454544,90
60,137.01363636363635,90
60,137.23636363636362,90
60,137.9840909090909,90
60,138.625,90
60,139.14772727272725,90
60,139.25227272727273,90
60,139.57272727272726,90
60,139.8931818181818,90
60,140.225,90
60,140.5340909090909,90
60,140.86363636363635,90
60,141.16363636363636,90
60,141.50454545454545,90
60,141.69545454545454,90
60,141.81363636363636,90
60,142.12272727272727,90
60,142.4431818181818,90
60,143.08181818181816,90
60,143.41363636363636,90
60,143.72272727272727,90
60,144.24545454545455,90
60,144.36363636363635,90
60,144.6818181818182,90
60,145.00227272727273,90
60,145.63181818181818,90
60,145.96363636363637,90
60,146.27272727272725,90
60,146.5909090909091,90
60,146.91136363636363,90
60,147.23181818181817,90
60,147.5522727272727,90
60,148.1909090909091,90
60,148.83181818181816,90
60,149.15227272727273,90
60,149.35454545454544,90
60,149.47272727272727,90
60,149.78181818181818,90
60,150.10227272727272,90
60,150.4318181818182,90
60,150.74090909090907,90
60,151.38181818181818,90
60,152.66136363636363,90
60,153.3022727272727,90
60,153.62045454545455,90
60,153.92954545454543,90
60,154.25,90
60,154.4522727272727,90
60,154.57045454545454,90
60,154.76363636363635,90
60,154.89090909090908,90
60,155.08181818181816,90
60,155.21136363636361,90
60,155.52954545454546,90
60,155.72272727272727,90
60,155.8409090909091,90
60,156.0431818181818,90
60,156.17045454545453,90
60,156.36363636363635,90
60,156.49090909090907,90
60,156.81136363636364,90
60,157.00227272727273,90
60,157.12045454545455,90
60,157.31136363636364,90
60,157.4409090909091,90
60,157.63181818181818,90
60,157.7590909090909,90
60,158.0909090909091,90
60,158.27272727272725,90
60,158.4,90
60,158.5909090909091,90
60,158.72045454545454,90
60,158.91136363636363,90
60,159.04090909090908,90
60,159.3590909090909,90
60,159.5522727272727,90
60,159.67045454545453,90
60,159.86136363636362,90
60,159.98863636363635,90
60,160.1818181818182,90
60,160.3090909090909,90
60,160.64090909090908,90
60,160.82045454545454,90
60,160.95,90
60,161.14090909090908,90
60,161.27045454545453,90
60,161.46136363636361,90
60,161.58863636363637,90
60,161.92045454545453,90
60,162.11136363636362,90
60,162.22954545454544,90
60,162.42045454545453,90
60,162.54999999999998,90
60,162.74090909090907,90
60,162.8590909090909,90
60,163.18863636363636,90
60,163.37045454545455,90
60,163.5090909090909,90
60,163.6909090909091,90
60,163.82954545454544,90
60,164.02045454545453,90
60,164.13863636363635,90
60,164.47045454545454,90
60,164.66136363636363,90
60,164.77954545454546,90
60,164.97045454545454,90
60,165.09772727272727,90
60,165.29090909090908,90
60,165.4181818181818,90
60,165.73863636363635,90
60,165.92954545454543,90
60,166.0590909090909,90
60,166.25,90
60,166.37954545454545,90
60,166.57045454545454,90
60,166.69772727272726,90
60,167.0181818181818,90
60,167.21136363636361,90
60,167.3272727272727,90
60,167.52045454545453,90
60,167.64772727272725,90
60,167.85,90
60,167.96818181818182,90
60,168.28863636363636,90
60,168.47954545454544,90
60,168.6090909090909,90
60,168.79999999999998,90
60,168.9272727272727,90
60,169.12045454545455,90
60,169.24772727272727,90
60,169.5681818181818,90
60,169.7590909090909,90
60,169.87727272727273,90
60,170.07954545454544,90
60,170.19772727272726,90
60,170.38863636363635,90
60,170.5181818181818,90
60,170.84772727272727,90
60,171.04090909090908,90
60,171.15681818181818,90
60,171.35,90
60,171.47727272727272,90
60,171.67954545454543,90
60,171.79772727272726,90
60,172.1181818181818,90
60,172.32045454545454,90
60,172.43636363636364,90
60,172.62954545454545,90
60,172.75681818181818,90
60,172.9590909090909,90
60,173.0772727272727,90
60,173.39772727272725,90
60,173.72727272727272,90
60,184.55454545454543,90
60,184.88636363636363,90
60,185.19545454545454,90
60,185.51363636363635,90
60,185.8340909090909,90
60,186.15454545454546,90
60,186.475,90
60,186.79545454545453,90
60,187.10454545454544,90
60,187.4340909090909,90
60,187.75454545454545,90
60,188.075,90
60,188.3840909090909,90
60,188.71363636363637,90
60,189.02499999999998,90
60,189.66363636363636,90
60,189.9840909090909,90
60,190.18636363636364,90
60,190.30454545454543,90
60,190.625,90
60,190.9431818181818,90
60,191.26363636363635,90
60,191.5840909090909,90
60,191.90454545454546,90
60,192.21363636363637,90
60,192.5340909090909,90
60,192.86363636363635,90
60,193.17272727272726,90
60,193.4931818181818,90
60,193.81363636363636,90
60,194.12272727272727,90
60,194.76363636363635,90
60,195.40227272727273,90
60,196.0431818181818,90
60,196.68181818181816,90
60,197.00227272727273,90
60,197.31136363636364,90
60,197.63181818181818,90
60,198.28181818181818,90
60,198.37954545454545,90
60,198.80454545454543,90
60,198.91136363636363,90
60,199.23181818181817,90
60,199.87272727272727,90
60,200.3840909090909,90
60,200.50227272727273,90
60,200.83181818181816,90
60,201.14090909090908,90
60,201.47272727272727,90
60,201.78181818181818,90
60,202.10227272727272,90
60,202.42045454545453,90
60,202.75227272727273,90
60,202.9340909090909,90
60,203.06136363636364,90
60,203.26363636363635,90
60,203.38181818181818,90
60,203.7022727272727,90
60,204.02045454545453,90
60,204.2340909090909,90
60,204.32954545454544,90
60,204.97045454545454,90
60,205.4931818181818,90
60,205.61136363636362,90
60,205.92954545454543,90
60,206.25,90
60,206.58181818181816,90
60,206.89090909090908,90
60,207.21136363636361,90
60,207.52045454545453,90
60,207.85,90
60,208.0522727272727,90
60,208.1590909090909,90
60,208.36363636363635,90
60,208.47954545454544,90
60,208.79999999999998,90
60,209.01363636363635,90
60,209.12954545454545,90
60,209.31136363636364,90
60,209.4409090909091,90
60,210.07954545454544,90
60,211.3590909090909,90
60,212.62954545454545,90
60,219.63636363636363,90
60,219.67954545454543,90
60,0.075,90
60,0.12727272727272726,90
60,0.43636363636363634,90
60,0.7681818181818182,90
60,1.0886363636363636,90
60,1.4181818181818182,90
60,1.5999999999999999,90
60,1.6318181818181818,90
60,1.7272727272727273,90
60,2.047727272727273,90
60,2.368181818181818,90
60,2.6886363636363635,90
60,2.827272727272727,90
60,2.9977272727272726,90
60,3.6363636363636362,90
60,3.9886363636363633,90
60,4.277272727272727,90
60,4.586363636363636,90
60,4.788636363636363,90
60,4.918181818181818,90
60,5.120454545454545,90
60,5.236363636363636,90
60,5.556818181818182,90
60,5.877272727272727,90
60,6.079545454545454,90
60,6.186363636363636,90
60,6.3999999999999995,90
60,6.527272727272727,90
60,6.836363636363636,90
60,7.156818181818181,90
60,7.465909090909091,90
60,7.786363636363636,90
60,8.693181818181818,90
60,8.779545454545454,90
60,9.06590909090909,90
60,10.336363636363636,90
60,10.656818181818181,90
60,10.975,90
60,11.295454545454545,90
60,11.627272727272727,90
60,11.936363636363636,90
60,12.256818181818181,90
60,12.575,90
60,12.906818181818181,90
60,13.21590909090909,90
60,13.536363636363635,90
60,13.845454545454544,90
60,14.174999999999999,90
60,14.495454545454544,90
60,14.804545454545455,90
60,15.125,90
60,15.445454545454545,90
60,15.76590909090909,90
60,16.086363636363636,90
60,16.404545454545453,90
60,16.736363636363635,90
60,17.025,90
60,17.354545454545455,90
60,17.686363636363634,90
60,17.995454545454546,90
60,18.313636363636363,90
60,18.634090909090908,90
60,18.954545454545453,90
60,19.275,90
60,19.659090909090907,90
60,20.554545454545455,90
60,20.852272727272727,90
60,21.195454545454545,90
60,21.513636363636362,90
60,21.834090909090907,90
60,22.134090909090908,90
60,22.46363636363636,90
60,22.784090909090907,90
60,23.125,90
60,23.402272727272727,90
60,23.743181818181817,90
60,24.063636363636363,90
60,24.395454545454545,90
60,24.704545454545453,90
60,25.025,90
60,25.334090909090907,90
60,25.652272727272727,90
60,25.972727272727273,90
60,26.293181818181818,90
60,26.613636363636363,90
60,26.943181818181817,90
60,27.243181818181817,90
60,27.563636363636363,90
60,27.893181818181816,90
60,28.224999999999998,90
60,28.511363636363637,90
60,28.843181818181815,90
60,29.172727272727272,90
60,29.493181818181817,90
60,29.802272727272726,90
60,30.111363636363635,90
60,30.43181818181818,90
60,31.081818181818182,90
60,31.39090909090909,90
60,31.711363636363636,90
60,33.32272727272727,90
60,33.63181818181818,90
60,34.28181818181818,90
60,34.61363636363636,90
60,34.91136363636363,90
60,35.55227272727272,90
60,35.88181818181818,90
60,36.19090909090909,90
60,36.83181818181818,90
60,37.163636363636364,90
60,37.461363636363636,90
60,38.10227272727273,90
60,38.43181818181818,90
60,38.74090909090909,90
60,39.38181818181818,90
60,39.72272727272727,90
60,40.01136363636363,90
60,40.65,90
60,40.98181818181818,90
60,41.29090909090909,90
60,41.929545454545455,90
60,42.26136363636363,90
60,42.570454545454545,90
60,43.211363636363636,90
60,43.55227272727272,90
60,43.840909090909086,90
60,44.47954545454545,90
60,45.09772727272727,90
60,45.73863636363636,90
60,45.77045454545454,90
60,46.070454545454545,90
60,46.709090909090904,90
60,47.02954545454545,90
60,48.29772727272727,90
60,48.64090909090909,90
60,48.949999999999996,90
60,49.27045454545454,90
60,49.599999999999994,90
60,50.240909090909085,90
60,50.87045454545454,90
60,51.49772727272727,90
60,52.15,90
60,52.788636363636364,90
60,53.10909090909091,90
60,53.418181818181814,90
60,53.75909090909091,90
60,54.059090909090905,90
60,54.709090909090904,90
60,54.99772727272727,90
60,55.349999999999994,90
60,55.67045454545454,90
60,55.98863636363636,90
60,56.60909090909091,90
60,57.25909090909091,90
60,57.89772727272727,90
60,58.21818181818182,90
60,58.84772727272727,90
60,59.168181818181814,90
60,59.79772727272727,90
60,60.13863636363636,90
60,60.44772727272727,90
60,60.77954545454545,90
60,61.07727272727272,90
60,61.40909090909091,90
60,61.72727272727273,90
60,62.03636363636363,90
60,62.35681818181818,90
60,62.68863636363636,90
60,62.99772727272727,90
60,63.31818181818181,90
60,63.627272727272725,90
60,63.96818181818181,90
60,64.26590909090909,90
60,64.59772727272727,90
60,64.90681818181818,90
60,65.24772727272727,90
60,65.54772727272727,90
60,65.87727272727273,90
60,66.18636363636364,90
60,69.05681818181817,90
60,69.375,90
60,69.69545454545454,90
60,70.01590909090909,90
60,70.33636363636363,90
60,70.65681818181818,90
60,70.975,90
60,71.29545454545455,90
60,71.60454545454544,90
60,71.925,90
60,72.24545454545454,90
60,72.56590909090909,90
60,72.89545454545454,90
60,73.19545454545454,90
60,73.52499999999999,90
60,73.84545454545454,90
60,74.16590909090908,90
60,74.475,90
60,74.79545454545455,90
60,75.11363636363636,90
60,75.44545454545454,90
60,75.75454545454545,90
60,76.08636363636363,90
60,76.39545454545454,90
60,76.725,90
60,77.0340909090909,90
60,77.35454545454544,90
60,77.675,90
60,77.99545454545454,90
60,78.31363636363636,90
60,78.6340909090909,90
60,78.95454545454545,90
60,79.27499999999999,90
60,79.5840909090909,90
60,79.90454545454546,90
60,80.24545454545454,90
60,80.55454545454545,90
60,80.875,90
60,81.12045454545454,90
60,81.50454545454545,90
60,81.81363636363636,90
60,82.14318181818182,90
60,82.43181818181817,90
60,82.7840909090909,90
60,83.10454545454544,90
60,83.41363636363636,90
60,83.73409090909091,90
60,84.06363636363636,90
60,84.3840909090909,90
60,84.69318181818181,90
60,85.01363636363637,90
60,85.3340909090909,90
60,86.91136363636363,90
60,87.24318181818181,90
60,87.27499999999999,90
60,87.5840909090909,90
60,87.88181818181818,90
60,88.08636363636363,90
60,88.41590909090908,90
60,88.5340909090909,90
60,88.84318181818182,90
60,89.16363636363636,90
60,89.51363636363637,90
60,89.80227272727272,90
60,90.11136363636363,90
60,90.44318181818181,90
60,90.7840909090909,90
60,91.08181818181818,90
60,91.39090909090909,90
60,91.5840909090909,90
60,91.71136363636363,90
60,91.91363636363636,90
60,92.02045454545454,90
60,92.36363636363636,90
60,92.67272727272727,90
60,92.88636363636363,90
60,92.99090909090908,90
60,93.20454545454545,90
60,93.32272727272726,90
60,93.62045454545454,90
60,93.94090909090909,90
60,94.27272727272727,90
60,94.61363636363636,90
60,95.54090909090908,90
60,95.88181818181818,90
60,97.12954545454545,90
60,97.46136363636363,90
60,97.77045454545454,90
60,98.10227272727272,90
60,98.42045454545455,90
60,98.72954545454544,90
60,99.05,90
60,99.37045454545454,90
60,100.01136363636363,90
60,100.32954545454545,90
60,100.64999999999999,90
60,101.29090909090908,90
60,101.61136363636363,90
60,101.92954545454545,90
60,102.5590909090909,90
60,102.87954545454545,90
60,103.19999999999999,90
60,103.52954545454546,90
60,103.84090909090908,90
60,104.1590909090909,90
60,104.47045454545454,90
60,105.12045454545454,90
60,105.42954545454545,90
60,105.7590909090909,90
60,106.38863636363637,90
60,106.72045454545454,90
60,107.02954545454546,90
60,107.67045454545455,90
60,108.0,90
60,108.3090909090909,90
60,108.64090909090909,90
60,108.94999999999999,90
60,112.34090909090908,90
60,112.37272727272726,90
60,115.0090909090909,90
60,115.32727272727273,90
60,115.64772727272727,90
60,115.96818181818182,90
60,116.28863636363636,90
60,116.60909090909091,90
60,116.91818181818181,90
60,117.23636363636363,90
60,117.56818181818181,90
60,117.87727272727273,90
60,118.19772727272726,90
60,118.51818181818182,90
60,118.72045454545454,90
60,118.84772727272727,90
60,119.04090909090908,90
60,119.15681818181818,90
60,119.46590909090908,90
60,119.79772727272727,90
60,120.12727272727273,90
60,121.06590909090909,90
60,121.39772727272727,90
60,121.70681818181818,90
60,122.04772727272727,90
60,122.34772727272727,90
60,122.66590909090908,90
60,123.30681818181817,90
60,123.62727272727273,90
60,123.95681818181818,90
60,125.20454545454545,90
60,125.85681818181817,90
60,126.475,90
60,127.45681818181818,90
60,127.63636363636363,90
60,127.76590909090909,90
60,128.09545454545454,90
60,128.40454545454546,90
60,128.73636363636362,90
60,129.0340909090909,90
60,129.375,90
60,129.68636363636364,90
60,130.00454545454545,90
60,130.31363636363636,90
60,130.64545454545453,90
60,130.95454545454544,90
60,131.28636363636363,90
60,131.59545454545454,90
60,131.92499999999998,90
60,132.2340909090909,90
60,132.5659090909091,90
60,132.86363636363635,90
60,133.19545454545454,90
60,133.50454545454545,90
60,133.8340909090909,90
60,134.1431818181818,90
60,134.475,90
60,134.79545454545453,90
60,135.11363636363635,90
60,135.76590909090908,90
60,136.075,90
60,136.70454545454544,90
60,137.66363636363636,90
60,137.9840909090909,90
60,138.30454545454546,90
60,138.60227272727272,90
60,138.9431818181818,90
60,139.25227272727273,90
60,139.5840909090909,90
60,139.8931818181818,90
60,140.21363636363637,90
60,140.85227272727272,90
60,141.17272727272726,90
60,141.49318181818182,90
60,141.8022727272727,90
60,142.1431818181818,90
60,142.4431818181818,90
60,142.77272727272725,90
60,143.08181818181816,90
60,143.41363636363636,90
60,143.72272727272727,90
60,144.0522727272727,90
60,144.6931818181818,90
60,145.00227272727273,90
60,145.3340909090909,90
60,146.28181818181818,90
60,146.9340909090909,90
60,147.56363636363636,90
60,148.1909090909091,90
60,148.51136363636363,90
60,148.83181818181816,90
60,149.12045454545455,90
60,149.78181818181818,90
60,150.0909090909091,90
60,151.37045454545455,90
60,152.01136363636363,90
60,153.3022727272727,90
60,153.6,90
60,154.24090909090907,90
60,155.52954545454546,90
60,156.1590909090909,90
60,156.47954545454544,90
60,156.79999999999998,90
60,157.75,90
60,158.07045454545454,90
60,158.7090909090909,90
60,159.35,90
60,160.62954545454545,90
60,161.2590909090909,90
60,161.9090909090909,90
60,162.8590909090909,90
60,163.1681818181818,90
60,163.8181818181818,90
60,164.12727272727273,90
60,164.44772727272726,90
60,165.4090909090909,90
60,166.68863636363636,90
60,167.0090909090909,90
60,167.95681818181816,90
60,169.23636363636362,90
60,169.5568181818182,90
60,171.4659090909091,90
60,171.79772727272726,90
60,172.1181818181818,90
60,173.0772727272727,90
60,173.39772727272725,90
60,174.91136363636363,90
60,176.27727272727273,90
60,177.51363636363635,90
60,178.8159090909091,90
60,181.34318181818182,90
60,182.52727272727273,90
60,182.5909090909091,90
60,183.90454545454546,90
60,184.24545454545455,90
60,184.55454545454543,90
60,184.86363636363635,90
60,185.1840909090909,90
60,185.52499999999998,90
60,185.825,90
60,186.1431818181818,90
60,186.46363636363637,90
60,186.7840909090909,90
60,187.4340909090909,90
60,187.7340909090909,90
60,188.09545454545454,90
60,188.39545454545453,90
60,188.70454545454544,90
60,189.01363636363635,90
60,189.3340909090909,90
60,189.65227272727273,90
60,189.9840909090909,90
60,190.28181818181818,90
60,190.625,90
60,191.25227272727273,90
60,191.56363636363636,90
60,191.90454545454546,90
60,192.21363636363637,90
60,192.5340909090909,90
60,192.7681818181818,90
60,192.84318181818182,90
60,193.1840909090909,90
60,193.48181818181817,90
60,193.81363636363636,90
60,194.10227272727272,90
60,194.77272727272725,90
60,195.41363636363636,90
60,196.0431818181818,90
60,196.67272727272726,90
60,197.3022727272727,90
60,197.65227272727273,90
60,198.54999999999998,90
60,198.58181818181816,90
60,198.92272727272726,90
60,199.13636363636363,90
60,199.54090909090908,90
60,200.1909090909091,90
60,200.84318181818182,90
60,201.47272727272727,90
60,202.0909090909091,90
60,202.42045454545453,90
60,202.74090909090907,90
60,203.28636363636363,90
60,203.39090909090908,90
60,204.02045454545453,90
60,204.66136363636363,90
60,205.3022727272727,90
60,205.8340909090909,90
60,206.27272727272725,90
60,206.57045454545454,90
60,206.91136363636363,90
60,207.2,90
60,207.85,90
60,208.36363636363635,90
60,208.49090909090907,90
60,208.79999999999998,90
60,209.00227272727273,90
60,209.1090909090909,90
60,209.32272727272726,90
60,209.7590909090909,90
60,210.30454545454543,90
60,210.38863636363635,90
60,210.42045454545453,90
60,210.61363636363635,90
60,210.72954545454544,90
60,211.04999999999998,90
60,211.3590909090909,90
60,211.67045454545453,90
60,211.98863636363635,90
60,212.13863636363635,90
60,212.3090909090909,90
60,212.62954545454545,90
60,212.97045454545454,90
60,0.8954545454545454,90
60,0.9386363636363636,90
60,1.375,90
60,1.409090909090909,90
60,1.8659090909090907,90
60,2.1545454545454543,90
60,2.784090909090909,90
60,2.815909090909091,90
60,2.943181818181818,90
60,2.9977272727272726,90
60,3.168181818181818,90
60,3.2954545454545454,90
60,3.477272727272727,90
60,3.9477272727272728,90
60,4.288636363636363,90
60,4.384090909090909,90
60,4.4363636363636365,90
60,5.343181818181818,90
60,5.386363636363636,90
60,5.579545454545454,90
60,5.6863636363636365,90
60,5.718181818181818,90
60,5.877272727272727,90
60,5.995454545454545,90
60,6.036363636363636,90
60,6.475,90
60,6.506818181818182,90
60,6.836363636363636,90
60,6.975,90
60,7.947727272727272,90
60,8.277272727272727,90
60,8.436363636363636,90
60,8.575,90
60,9.418181818181818,90
60,9.547727272727272,90
60,10.463636363636363,90
60,10.518181818181818,90
60,10.59090909090909,90
60,10.827272727272726,90
60,10.986363636363636,90
60,11.136363636363637,90
60,11.477272727272727,90
60,11.604545454545454,90
60,11.636363636363637,90
60,11.786363636363635,90
60,11.956818181818182,90
60,12.095454545454546,90
60,13.06590909090909,90
60,13.343181818181817,90
60,13.386363636363635,90
60,13.536363636363635,90
60,13.652272727272727,90
60,13.686363636363636,90
60,14.154545454545454,90
60,14.186363636363636,90
60,14.336363636363636,90
60,14.495454545454544,90
60,14.625,90
60,14.656818181818181,90
60,14.89090909090909,90
60,15.595454545454544,90
60,15.702272727272726,90
60,15.797727272727272,90
60,15.936363636363636,90
60,16.10681818181818,90
60,16.23409090909091,90
60,16.736363636363635,90
60,16.768181818181816,90
60,17.034090909090907,90
60,17.163636363636364,90
60,17.204545454545453,90
60,18.143181818181816,90
60,18.474999999999998,90
60,18.634090909090908,90
60,18.795454545454543,90
60,19.252272727272725,90
60,19.445454545454545,90
60,19.61590909090909,90
60,19.743181818181817,90
60,20.68181818181818,90
60,20.724999999999998,90
60,21.025,90
60,21.21590909090909,90
60,21.354545454545452,90
60,21.675,90
60,21.85681818181818,90
60,22.036363636363635,90
60,22.186363636363634,90
60,22.325,90
60,22.634090909090908,90
60,22.784090909090907,90
60,22.922727272727272,90
60,22.96590909090909,90
60,23.125,90
60,23.263636363636362,90
60,23.295454545454543,90
60,23.604545454545452,90
60,23.76590909090909,90
60,23.893181818181816,90
60,24.245454545454546,90
60,24.395454545454545,90
60,24.427272727272726,90
60,24.543181818181818,90
60,24.575,90
60,24.71363636363636,90
60,24.820454545454545,90
60,24.875,90
60,25.18409090909091,90
60,25.354545454545452,90
60,25.493181818181817,90
60,25.674999999999997,90
60,25.813636363636363,90
60,25.845454545454544,90
60,26.143181818181816,90
60,26.174999999999997,90
60,26.304545454545455,90
60,26.336363636363636,90
60,26.452272727272724,90
60,26.784090909090907,90
60,26.954545454545453,90
60,27.125,90
60,27.295454545454543,90
60,27.370454545454542,90
60,27.424999999999997,90
60,27.743181818181817,90
60,27.893181818181816,90
60,28.063636363636363,90
60,28.23409090909091,90
60,28.37272727272727,90
60,28.575,90
60,28.724999999999998,90
60,28.831818181818182,90
60,28.886363636363637,90
60,29.025,90
60,29.32272727272727,90
60,29.525,90
60,29.643181818181816,90
60,29.96363636363636,90
60,30.004545454545454,90
60,30.304545454545455,90
60,30.336363636363636,90
60,30.46363636363636,90
60,30.613636363636363,90
60,30.922727272727272,90
60,31.093181818181815,90
60,31.252272727272725,90
60,31.38181818181818,90
60,31.41363636363636,90
60,31.563636363636363,90
60,31.88181818181818,90
60,31.91363636363636,90
60,32.074999999999996,90
60,32.23409090909091,90
60,32.37272727272727,90
60,32.49090909090909,90
60,32.543181818181814,90
60,32.86363636363636,90
60,33.013636363636365,90
60,33.14090909090909,90
60,33.184090909090905,90
60,33.31136363636364,90
60,33.34318181818182,90
60,33.47272727272727,90
60,33.652272727272724,90
60,33.824999999999996,90
60,33.96363636363636,90
60,34.12272727272727,90
60,34.45227272727273,90
60,34.61363636363636,90
60,34.763636363636365,90
60,34.94318181818181,90
60,35.09318181818182,90
60,35.413636363636364,90
60,39.220454545454544,90
60,39.861363636363635,90
60,41.152272727272724,90
60,41.79090909090909,90
60,42.43181818181818,90
60,48.17045454545454,90
60,49.12954545454545,90
60,49.449999999999996,90
60,50.090909090909086,90
60,51.35909090909091,90
60,56.470454545454544,90
60,56.788636363636364,90
60,57.10909090909091,90
60,57.73863636363636,90
60,78.00454545454545,90
60,80.075,90
60,85.1840909090909,90
60,85.825,90
60,90.27272727272727,90
60,90.94318181818181,90
60,91.5840909090909,90
60,92.21363636363635,90
60,93.49318181818181,90
60,94.1340909090909,90
60,96.05227272727272,90
60,96.68181818181817,90
60,97.96363636363635,90
60,98.59090909090908,90
60,154.12272727272727,90
60,154.77272727272725,90
60,155.39090909090908,90
60,155.59545454545454,90
60,155.72272727272727,90
60,156.06363636363636,90
60,156.67272727272726,90
60,157.32272727272726,90
60,157.9409090909091,90
60,158.15454545454546,90
60,158.28181818181818,90
60,158.61363636363635,90
60,159.10454545454544,90
60,159.24318181818182,90
60,159.88181818181818,90
60,160.49090909090907,90
60,160.70454545454544,90
60,160.81136363636364,90
60,161.16363636363636,90
60,161.79090909090908,90
60,162.4318181818182,90
60,163.06136363636364,90
60,163.25227272727273,90
60,163.71136363636361,90
60,164.21363636363637,90
60,164.32954545454544,90
60,164.98181818181817,90
60,165.6,90
60,165.81363636363636,90
60,165.92954545454543,90
60,166.27272727272725,90
60,166.87954545454545,90
60,167.52954545454546,90
60,168.1590909090909,90
60,168.36363636363635,90
60,168.82045454545454,90
60,169.45,90
60,170.0909090909091,90
60,170.7090909090909,90
60,171.37045454545455,90
60,172.0,90
60,172.62954545454545,90
60,173.14090909090908,90
60,173.27045454545453,90
60,173.92045454545453,90
60,174.54999999999998,90
60,175.21136363636361,90
60,175.8181818181818,90
60,176.47954545454544,90
60,177.08863636363637,90
60,178.25,90
60,1.5999999999999999,90
60,1.8977272727272727,90
60,2.047727272727273,90
60,2.1977272727272728,90
60,2.3363636363636364,90
60,2.7727272727272725,90
60,3.0727272727272728,90
60,3.1999999999999997,90
60,3.359090909090909,90
60,3.4977272727272726,90
60,3.936363636363636,90
60,4.372727272727272,90
60,4.534090909090909,90
60,4.661363636363636,90
60,4.8113636363636365,90
60,5.097727272727273,90
60,5.386363636363636,90
60,5.536363636363636,90
60,5.6863636363636365,90
60,5.824999999999999,90
60,6.261363636363636,90
60,6.559090909090909,90
60,6.697727272727272,90
60,6.847727272727273,90
60,6.986363636363636,90
60,7.434090909090909,90
60,7.722727272727273,90
60,7.861363636363636,90
60,8.020454545454545,90
60,8.15,90
60,8.597727272727273,90
60,8.886363636363637,90
60,9.045454545454545,90
60,9.184090909090909,90
60,9.322727272727272,90
60,10.047727272727272,90
60,10.209090909090909,90
60,10.35681818181818,90
60,10.486363636363636,90
60,10.634090909090908,90
60,10.922727272727272,90
60,11.220454545454546,90
60,11.35909090909091,90
60,11.520454545454545,90
60,11.647727272727272,90
60,12.395454545454545,90
60,12.522727272727272,90
60,12.681818181818182,90
60,12.811363636363636,90
60,13.259090909090908,90
60,13.556818181818182,90
60,13.695454545454545,90
60,13.984090909090908,90
60,14.431818181818182,90
60,14.720454545454544,90
60,14.859090909090908,90
60,15.018181818181818,90
60,15.156818181818181,90
60,15.572727272727272,90
60,16.03181818181818,90
60,16.320454545454545,90
60,16.470454545454544,90
60,16.74772727272727,90
60,17.195454545454545,90
60,17.34318181818182,90
60,17.472727272727273,90
60,17.631818181818183,90
60,17.897727272727273,90
60,18.35681818181818,90
60,18.645454545454545,90
60,19.081818181818182,90
60,20.245454545454546,90
60,20.68181818181818,90
60,20.831818181818182,90
60,20.970454545454544,90
60,21.120454545454546,90
60,21.418181818181818,90
60,21.706818181818182,90
60,21.845454545454544,90
60,22.004545454545454,90
60,22.134090909090908,90
60,22.293181818181818,90
60,22.570454545454545,90
60,22.720454545454544,90
60,23.009090909090908,90
60,23.15681818181818,90
60,23.30681818181818,90
60,23.595454545454544,90
60,23.786363636363635,90
60,24.03181818181818,90
60,24.18181818181818,90
60,24.329545454545453,90
60,24.470454545454544,90
60,24.618181818181817,90
60,24.90681818181818,90
60,25.195454545454545,90
60,25.34318181818182,90
60,25.493181818181817,90
60,25.63181818181818,90
60,26.070454545454545,90
60,26.368181818181817,90
60,26.50681818181818,90
60,26.65681818181818,90
60,26.795454545454543,90
60,27.243181818181817,90
60,27.520454545454545,90
60,27.670454545454543,90
60,27.968181818181815,90
60,28.118181818181817,90
60,28.404545454545453,90
60,28.693181818181817,90
60,28.852272727272727,90
60,28.98181818181818,90
60,29.279545454545453,90
60,29.568181818181817,90
60,29.995454545454542,90
60,30.293181818181818,90
60,30.729545454545452,90
60,31.018181818181816,90
60,31.15681818181818,90
60,31.30681818181818,90
60,31.604545454545452,90
60,31.893181818181816,90
60,32.19090909090909,90
60,32.32954545454545,90
60,32.62954545454545,90
60,33.06590909090909,90
60,33.49318181818182,90
60,33.78181818181818,90
60,33.94090909090909,90
60,34.21818181818182,90
60,34.527272727272724,90
60,34.65681818181818,90
60,35.09318181818182,90
60,35.38181818181818,90
60,35.679545454545455,90
60,35.840909090909086,90
60,35.95681818181818,90
60,36.26590909090909,90
60,36.543181818181814,90
60,36.85227272727273,90
60,36.98181818181818,90
60,37.29090909090909,90
60,37.429545454545455,90
60,37.70681818181818,90
60,38.00454545454545,90
60,38.16590909090909,90
60,38.304545454545455,90
60,38.590909090909086,90
60,38.77272727272727,90
60,38.82727272727273,90
60,38.89090909090909,90
60,39.75454545454545,90
60,40.03181818181818,90
60,40.340909090909086,90
60,40.61818181818182,90
60,40.90681818181818,90
60,41.215909090909086,90
60,43.38181818181818,90
60,43.55227272727272,90
60,43.98863636363636,90
60,44.277272727272724,90
60,44.43636363636364,90
60,44.71363636363636,90
60,45.86590909090909,90
60,46.16590909090909,90
60,46.31363636363636,90
60,46.45227272727273,90
60,46.60227272727273,90
60,46.752272727272725,90
60,47.02954545454545,90
60,47.32727272727273,90
60,47.60454545454545,90
60,47.90454545454545,90
60,48.20227272727273,90
60,48.49090909090909,90
60,48.64090909090909,90
60,48.93863636363636,90
60,49.06590909090909,90
60,49.365909090909085,90
60,49.663636363636364,90
60,49.81363636363636,90
60,49.95227272727273,90
60,50.10227272727273,90
60,50.240909090909085,90
60,50.527272727272724,90
60,50.82727272727273,90
60,51.10454545454545,90
60,51.26363636363636,90
60,51.413636363636364,90
60,51.69090909090909,90
60,51.98863636363636,90
60,52.26590909090909,90
60,52.56590909090909,90
60,52.85227272727273,90
60,53.152272727272724,90
60,53.44090909090909,90
60,53.72727272727273,90
60,54.027272727272724,90
60,54.324999999999996,90
60,54.60227272727273,90
60,54.902272727272724,90
60,55.18863636363636,90
60,55.48863636363636,90
60,55.925,90
60,56.074999999999996,90
60,56.35227272727273,90
60,56.65,90
60,56.92727272727272,90
60,57.22727272727273,90
60,57.525,90
60,57.81363636363636,90
60,57.96363636363636,90
60,58.25,90
60,58.38863636363636,90
60,58.68863636363636,90
60,58.986363636363635,90
60,59.13636363636363,90
60,59.275,90
60,59.425,90
60,59.849999999999994,90
60,60.15,90
60,60.29772727272727,90
60,60.59772727272727,90
60,60.724999999999994,90
60,61.025,90
60,61.31136363636363,90
60,61.611363636363635,90
60,61.897727272727266,90
60,62.18636363636363,90
60,62.474999999999994,90
60,62.63409090909091,90
60,63.05,90
60,63.349999999999994,90
60,63.63636363636363,90
60,63.79772727272727,90
60,64.075,90
60,64.225,90
60,64.51136363636364,90
60,64.81136363636364,90
60,65.38636363636364,90
60,65.675,90
60,65.97272727272727,90
60,66.25,90
60,66.55,90
60,66.84772727272727,90
60,67.13636363636363,90
60,67.71136363636363,90
60,68.01136363636363,90
60,69.17272727272727,90
60,69.46136363636363,90
60,69.62045454545454,90
60,69.7590909090909,90
60,70.04772727272727,90
60,70.33636363636363,90
60,70.6340909090909,90
60,70.7840909090909,90
60,71.21136363636363,90
60,71.5090909090909,90
60,71.79772727272727,90
60,72.09545454545454,90
60,72.37272727272727,90
60,72.52272727272727,90
60,72.67272727272727,90
60,72.9590909090909,90
60,73.12045454545454,90
60,73.39772727272727,90
60,73.54772727272727,90
60,73.8340909090909,90
60,74.12272727272727,90
60,74.28181818181818,90
60,74.42045454545455,90
60,74.7090909090909,90
60,74.99772727272727,90
60,75.29545454545455,90
60,75.44545454545454,90
60,75.73409090909091,90
60,75.87272727272727,90
60,76.1590909090909,90
60,76.4590909090909,90
60,76.60909090909091,90
60,76.89545454545454,90
60,77.0340909090909,90
60,78.49545454545454,90
60,78.79545454545455,90
60,78.93409090909091,90
60,79.23181818181818,90
60,79.37045454545454,90
60,79.6590909090909,90
60,79.96818181818182,90
60,80.09545454545454,90
60,80.39545454545454,90
60,80.54318181818181,90
60,80.82045454545454,90
60,81.12045454545454,90
60,81.27045454545454,90
60,81.55681818181817,90
60,81.70681818181818,90
60,81.98409090909091,90
60,82.29318181818181,90
60,82.43181818181817,90
60,82.72045454545454,90
60,82.87045454545454,90
60,83.15681818181818,90
60,83.44545454545454,90
60,83.59545454545454,90
60,83.89318181818182,90
60,84.03181818181818,90
60,84.32045454545454,90
60,84.61818181818181,90
60,84.75681818181818,90
60,85.05681818181817,90
60,85.20454545454545,90
60,85.48181818181818,90
60,85.78181818181818,90
60,85.92954545454545,90
60,86.21818181818182,90
60,86.36818181818181,90
60,87.8090909090909,90
60,88.24545454545454,90
60,88.55454545454545,90
60,88.69318181818181,90
60,88.98181818181818,90
60,89.27954545454546,90
60,89.41818181818181,90
60,89.71818181818182,90
60,89.85681818181818,90
60,90.14318181818182,90
60,90.44318181818181,90
60,90.58181818181818,90
60,90.87954545454545,90
60,91.01818181818182,90
60,91.30681818181817,90
60,91.60454545454544,90
60,91.74318181818181,90
60,92.04318181818181,90
60,92.19090909090909,90
60,92.47045454545454,90
60,92.76818181818182,90
60,92.90681818181818,90
60,93.20454545454545,90
60,93.34318181818182,90
60,93.64318181818182,90
60,93.92954545454545,90
60,94.07954545454545,90
60,94.36818181818181,90
60,94.51818181818182,90
60,94.80454545454545,90
60,95.09318181818182,90
60,95.24318181818181,90
60,95.54090909090908,90
60,95.67954545454545,90
60,95.96818181818182,90
60,96.26590909090909,90
60,96.40454545454546,90
60,96.70454545454545,90
60,96.84318181818182,90
60,96.99090909090908,90
60,97.05681818181817,90
60,99.45681818181818,90
60,99.75454545454545,90
60,99.90454545454546,90
60,100.19090909090909,90
60,100.34090909090908,90
60,100.60909090909091,90
60,101.79090909090908,90
60,102.24090909090908,90
60,102.53863636363636,90
60,102.66590909090908,90
60,102.95454545454545,90
60,103.52954545454546,90
60,104.12727272727273,90
60,104.57499999999999,90
60,104.85227272727272,90
60,105.27954545454546,90
60,105.72727272727272,90
60,106.16590909090908,90
60,106.44318181818181,90
60,106.89090909090909,90
60,107.18863636363636,90
60,107.31818181818181,90
60,107.61590909090908,90
60,108.19090909090909,90
60,108.50227272727273,90
60,108.77954545454546,90
60,109.22727272727272,90
60,109.51363636363635,90
60,109.94090909090909,90
60,110.38863636363635,90
60,110.82727272727273,90
60,111.11363636363636,90
60,111.56363636363636,90
60,111.98863636363636,90
60,112.26590909090909,90
60,112.85227272727272,90
60,113.01363636363635,90
60,113.16363636363636,90
60,113.44999999999999,90
60,113.89772727272727,90
60,114.175,90
60,114.32499999999999,90
60,114.61363636363636,90
60,115.77499999999999,90
60,116.21363636363635,90
60,116.35227272727272,90
60,116.51136363636363,90
60,116.64999999999999,90
60,116.81136363636364,90
60,117.23636363636363,90
60,117.52499999999999,90
60,117.82499999999999,90
60,118.55,90
60,118.84772727272727,90
60,118.98636363636363,90
60,119.26363636363635,90
60,120.43636363636364,90
60,120.73636363636363,90
60,120.875,90
60,121.17272727272727,90
60,121.32272727272726,90
60,121.6,90
60,121.89772727272727,90
60,122.03636363636363,90
60,122.33636363636363,90
60,122.48636363636363,90
60,122.76363636363635,90
60,123.07272727272726,90
60,123.19999999999999,90
60,123.49772727272726,90
60,123.64772727272727,90
60,123.93636363636364,90
60,124.37272727272726,90
60,124.66136363636363,90
60,124.82045454545454,90
60,125.09772727272727,90
60,125.39772727272727,90
60,125.53636363636363,90
60,125.8340909090909,90
60,125.98409090909091,90
60,126.26136363636363,90
60,126.69772727272726,90
60,126.98636363636363,90
60,127.425,90
60,127.72272727272727,90
60,127.86136363636363,90
60,128.1590909090909,90
60,128.3090909090909,90
60,128.58636363636364,90
60,129.0340909090909,90
60,129.32272727272726,90
60,129.47272727272727,90
60,129.7590909090909,90
60,130.04772727272726,90
60,130.19772727272726,90
60,130.49545454545455,90
60,130.6340909090909,90
60,130.92272727272726,90
60,131.3590909090909,90
60,131.6590909090909,90
60,132.08636363636364,90
60,132.39545454545453,90
60,132.52272727272728,90
60,132.82045454545454,90
60,133.24772727272727,90
60,133.5568181818182,90
60,133.68636363636364,90
60,133.9840909090909,90
60,134.1340909090909,90
60,134.41136363636363,90
60,134.72045454545454,90
60,134.8590909090909,90
60,135.14772727272725,90
60,135.29545454545453,90
60,135.5840909090909,90
60,135.88181818181818,90
60,136.02045454545453,90
60,136.3090909090909,90
60,136.4590909090909,90
60,136.74772727272727,90
60,137.0340909090909,90
60,137.47272727272727,90
60,137.62045454545455,90
60,137.9090909090909,90
60,138.0590909090909,90
60,138.2090909090909,90
60,138.34772727272727,90
60,138.64545454545453,90
60,138.7840909090909,90
60,139.07272727272726,90
60,139.3590909090909,90
60,139.52045454545453,90
60,139.8090909090909,90
60,139.95681818181816,90
60,140.24545454545455,90
60,141.4090909090909,90
60,141.69545454545454,90
60,141.84545454545454,90
60,142.1431818181818,90
60,142.28181818181818,90
60,142.57045454545454,90
60,142.8590909090909,90
60,143.0090909090909,90
60,143.3068181818182,90
60,143.45681818181816,90
60,143.7340909090909,90
60,144.03181818181818,90
60,144.1818181818182,90
60,144.47045454545454,90
60,144.61818181818182,90
60,144.89545454545453,90
60,145.19545454545454,90
60,145.34318181818182,90
60,145.63181818181818,90
60,145.78181818181818,90
60,146.07045454545454,90
60,146.35681818181817,90
60,146.50681818181818,90
60,146.79545454545453,90
60,146.9431818181818,90
60,147.23181818181817,90
60,147.52045454545453,90
60,147.67045454545453,90
60,147.96818181818182,90
60,148.39545454545453,90
60,148.6818181818182,90
60,148.83181818181816,90
60,149.14090909090908,90
60,149.27954545454546,90
60,149.5568181818182,90
60,149.85681818181817,90
60,150.00454545454545,90
60,150.4431818181818,90
60,150.72954545454544,90
60,151.1681818181818,90
60,151.4659090909091,90
60,151.60454545454544,90
60,151.8931818181818,90
60,152.1818181818182,90
60,152.32954545454544,90
60,152.62954545454545,90
60,152.75681818181818,90
60,153.0568181818182,90
60,153.34318181818182,90
60,153.48181818181817,90
60,153.92045454545453,90
60,154.21818181818182,90
60,154.50681818181818,90
60,154.66590909090908,90
60,154.9659090909091,90
60,155.10454545454544,90
60,155.38181818181818,90
60,155.67045454545453,90
60,155.82954545454544,90
60,156.12727272727273,90
60,156.27727272727273,90
60,156.55454545454543,90
60,156.84318181818182,90
60,157.00227272727273,90
60,157.29090909090908,90
60,157.42954545454543,90
60,157.71818181818182,90
60,157.86590909090907,90
60,158.01590909090908,90
60,158.17499999999998,90
60,158.60227272727272,90
60,158.75227272727273,90
60,158.87954545454545,90
60,160.0431818181818,90
60,160.3409090909091,90
60,160.9181818181818,90
60,161.19545454545454,90
60,161.50454545454545,90
60,161.65227272727273,90
60,161.8022727272727,90
60,162.0909090909091,90
60,162.37954545454545,90
60,162.66590909090908,90
60,163.24318181818182,90
60,163.52954545454546,90
60,163.82954545454544,90
60,164.12727272727273,90
60,164.41590909090908,90
60,164.5659090909091,90
60,164.70454545454544,90
60,165.00227272727273,90
60,165.57954545454544,90
60,165.85681818181817,90
60,166.16590909090908,90
60,166.4522727272727,90
60,166.74090909090907,90
60,167.04090909090908,90
60,167.3272727272727,90
60,167.91363636363636,90
60,168.1909090909091,90
60,168.49090909090907,90
60,168.64090909090908,90
60,168.77954545454546,90
60,169.0772727272727,90
60,169.22727272727272,90
60,169.36590909090907,90
60,169.65227272727273,90
60,170.24090909090907,90
60,170.5181818181818,90
60,170.8272727272727,90
60,171.11363636363635,90
60,171.40227272727273,90
60,171.6909090909091,90
60,171.98863636363635,90
60,172.5659090909091,90
60,172.85227272727272,90
60,173.15227272727273,90
60,173.4409090909091,90
60,173.73863636363635,90
60,173.88863636363635,90
60,176.3409090909091,90
60,177.22727272727272,90
60,177.51363636363635,90
60,178.10227272727272,90
60,178.6772727272727,90
60,178.975,90
60,179.125,90
60,179.27499999999998,90
60,179.42499999999998,90
60,179.8409090909091,90
60,180.13863636363635,90
60,180.28863636363636,90
60,180.43636363636364,90
60,180.725,90
60,181.01363636363635,90
60,181.3022727272727,90
60,181.45,90
60,181.61136363636362,90
60,181.75,90
60,182.17499999999998,90
60,182.475,90
60,182.625,90
60,182.77272727272725,90
60,183.06136363636364,90
60,183.33863636363637,90
60,183.63636363636363,90
60,183.78636363636363,90
60,183.93636363636364,90
60,184.36363636363635,90
60,184.51136363636363,90
60,184.79999999999998,90
60,184.9590909090909,90
60,185.09772727272727,90
60,185.67499999999998,90
60,185.96363636363637,90
60,186.12272727272727,90
60,186.27272727272725,90
60,186.83636363636361,90
60,187.13636363636363,90
60,187.28636363636363,90
60,187.42499999999998,90
60,188.0,90
60,188.29772727272726,90
60,188.44772727272726,90
60,188.59772727272727,90
60,189.16363636363636,90
60,189.46136363636361,90
60,189.61136363636362,90
60,189.7590909090909,90
60,190.04772727272726,90
60,190.325,90
60,190.625,90
60,190.77272727272725,90
60,190.9340909090909,90
60,191.21136363636361,90
60,191.49772727272727,90
60,191.79772727272726,90
60,191.94772727272726,90
60,192.08636363636361,90
60,192.66136363636363,90
60,192.9590909090909,90
60,193.09772727272727,90
60,193.39772727272725,90
60,193.53636363636363,90
60,193.69545454545454,90
60,193.825,90
60,194.12272727272727,90
60,194.27272727272725,90
60,194.5590909090909,90
60,194.7090909090909,90
60,194.98636363636362,90
60,195.28636363636363,90
60,195.4340909090909,90
60,195.72272727272727,90
60,195.87272727272727,90
60,196.02045454545453,90
60,196.1590909090909,90
60,196.4590909090909,90
60,196.59772727272727,90
60,196.74772727272727,90
60,196.89545454545453,90
60,197.02499999999998,90
60,197.17272727272726,90
60,197.32272727272726,90
60,197.62045454545455,90
60,197.7590909090909,90
60,198.0590909090909,90
60,198.19772727272726,90
60,198.48636363636362,90
60,198.7840909090909,90
60,198.9340909090909,90
60,199.22045454545454,90
60,199.3590909090909,90
60,199.64772727272725,90
60,199.94772727272726,90
60,200.09545454545454,90
60,200.3840909090909,90
60,200.5340909090909,90
60,200.68181818181816,90
60,200.82045454545454,90
60,201.9840909090909,90
60,202.28181818181818,90
60,202.42045454545453,90
60,202.7090909090909,90
60,202.8590909090909,90
60,203.0181818181818,90
60,203.14772727272725,90
60,203.44545454545454,90
60,203.5840909090909,90
60,203.88181818181818,90
60,204.02045454545453,90
60,204.3090909090909,90
60,204.6090909090909,90
60,204.75681818181818,90
60,205.04545454545453,90
60,205.19545454545454,90
60,205.34318181818182,90
60,205.48181818181817,90
60,205.78181818181818,90
60,205.92045454545453,90
60,206.07045454545454,90
60,206.2090909090909,90
60,206.34772727272727,90
60,206.49545454545455,90
60,206.64545454545453,90
60,206.9431818181818,90
60,207.08181818181816,90
60,207.37045454545455,90
60,207.52045454545453,90
60,207.67954545454543,90
60,207.8090909090909,90
60,208.10681818181817,90
60,208.25681818181818,90
60,208.5431818181818,90
60,215.95681818181816,90
60,216.40454545454546,90
60,216.70454545454544,90
60,216.83181818181816,90
60,217.12954545454545,90
60,219.45681818181816,90
60,219.75454545454545,90
60,219.90454545454546,90
60,220.1909090909091,90
60,220.49090909090907,90
60,220.62954545454545,90
60,220.9181818181818,90
60,221.05681818181816,90
60,221.36590909090907,90
60,221.51363636363635,90
60,221.6522727272727,90
60,221.79090909090908,90
60,222.07954545454544,90
60,222.22954545454544,90
60,222.5272727272727,90
60,222.6772727272727,90
60,222.8159090909091,90
60,222.95454545454544,90
60,223.2431818181818,90
60,223.39090909090908,90
60,223.6909090909091,90
60,223.97954545454544,90
60,224.41590909090908,90
60,224.5659090909091,90
60,224.86363636363635,90
60,225.1522727272727,90
60,225.29090909090908,90
60,225.57954545454544,90
60,225.72727272727272,90
60,226.01590909090908,90
60,226.31363636363636,90
60,226.4522727272727,90
60,226.74090909090907,90
60,226.87954545454545,90
60,227.17954545454543,90
60,227.4659090909091,90
60,227.61590909090907,90
60,227.91363636363636,90
60,228.0522727272727,90
60,228.35227272727272,90
60,228.50227272727273,90
60,228.64090909090908,90
60,228.78863636363636,90
60,229.0659090909091,90
60,229.2159090909091,90
60,229.51363636363635,90
60,229.81363636363636,90
60,230.24090909090907,90
60,230.38863636363635,90
60,230.68863636363636,90
60,230.8159090909091,90
60,230.975,90
60,231.11363636363635,90
60,231.4022727272727,90
60,231.5522727272727,90
60,231.85,90
60,231.98863636363635,90
60,232.13863636363635,90
60,232.2772727272727,90
60,232.5659090909091,90
60,232.71363636363634,90
60,233.00227272727273,90
60,233.29090909090908,90
60,233.72727272727272,90
60,233.87727272727273,90
60,234.17499999999998,90
60,234.46363636363634,90
60,234.9022727272727,90
60,235.04999999999998,90
60,235.33863636363634,90
60,235.47727272727272,90
60,235.62727272727273,90
60,235.77499999999998,90
60,236.06363636363636,90
60,236.21363636363634,90
60,236.50227272727273,90
60,236.78863636363636,90
60,238.0909090909091,90
60,238.38863636363635,90
60,238.53863636363636,90
60,238.68863636363636,90
60,238.975,90
60,239.125,90
60,239.26363636363635,90
60,239.5522727272727,90
60,239.85,90
60,240.13863636363635,90
60,240.43636363636364,90
60,240.71363636363634,90
60,240.875,90
60,241.02499999999998,90
60,241.3022727272727,90
60,241.6,90
60,241.88863636363635,90
60,242.03636363636363,90
60,242.17499999999998,90
60,242.33636363636361,90
60,242.475,90
60,242.76363636363635,90
60,243.04999999999998,90
60,243.2,90
60,243.35,90
60,243.63636363636363,90
60,243.78636363636363,90
60,243.92499999999998,90
60,244.21363636363634,90
60,244.51136363636363,90
60,244.78863636363636,90
60,245.08863636363634,90
60,245.375,90
60,245.53636363636363,90
60,245.6522727272727,90
60,245.825,90
60,245.96363636363634,90
60,246.11136363636362,90
60,246.22954545454544,90
60,247.41363636363636,90
60,247.71136363636361,90
60,247.87272727272727,90
60,248.0,90
60,248.1590909090909,90
60,248.28863636363636,90
60,248.5659090909091,90
60,248.875,90
60,249.02499999999998,90
60,249.16363636363636,90
60,249.46136363636361,90
60,249.72727272727272,90
60,249.7590909090909,90
60,250.03636363636363,90
60,250.19772727272726,90
60,250.31363636363636,90
60,250.48636363636362,90
60,250.625,90
60,250.77272727272725,90
60,250.9022727272727,90
60,251.2,90
60,251.3590909090909,90
60,251.48863636363635,90
60,251.64772727272725,90
60,251.78636363636363,90
60,252.075,90
60,252.37272727272725,90
60,252.52272727272725,90
60,252.66136363636363,90
60,252.82045454545454,90
60,252.95,90
60,253.09772727272727,90
60,253.22727272727272,90
60,253.53636363636363,90
60,253.68636363636364,90
60,253.825,90
60,254.11136363636362,90
60,254.38863636363635,90
60,1.1636363636363636,90
60,1.45,90
60,1.7272727272727273,90
60,1.909090909090909,90
60,2.036363636363636,90
60,2.2181818181818183,90
60,2.3249999999999997,90
60,2.7954545454545454,90
60,2.9227272727272724,90
60,3.2113636363636364,90
60,3.381818181818182,90
60,3.509090909090909,90
60,3.6795454545454542,90
60,3.809090909090909,90
60,4.1068181818181815,90
60,4.265909090909091,90
60,4.3954545454545455,90
60,4.681818181818182,90
60,5.152272727272727,90
60,5.279545454545454,90
60,5.568181818181818,90
60,5.727272727272727,90
60,5.86590909090909,90
60,6.047727272727273,90
60,6.154545454545454,90
60,6.463636363636363,90
60,6.625,90
60,6.74090909090909,90
60,7.040909090909091,90
60,7.488636363636363,90
60,7.627272727272727,90
60,7.925,90
60,8.086363636363636,90
60,8.225,90
60,8.395454545454545,90
60,8.511363636363637,90
60,8.811363636363636,90
60,8.970454545454546,90
60,9.10909090909091,90
60,9.290909090909091,90
60,9.397727272727272,90
60,9.85681818181818,90
60,9.98409090909091,90
60,10.281818181818181,90
60,10.452272727272726,90
60,10.570454545454545,90
60,10.74090909090909,90
60,10.870454545454544,90
60,11.327272727272726,90
60,11.456818181818182,90
60,11.636363636363637,90
60,11.743181818181817,90
60,12.202272727272726,90
60,12.329545454545453,90
60,12.629545454545454,90
60,12.788636363636362,90
60,12.927272727272726,90
60,13.06590909090909,90
60,13.097727272727273,90
60,13.21590909090909,90
60,13.504545454545454,90
60,13.674999999999999,90
60,13.802272727272726,90
60,14.09090909090909,90
60,14.549999999999999,90
60,14.677272727272726,90
60,14.986363636363636,90
60,15.147727272727272,90
60,15.274999999999999,90
60,15.445454545454545,90
60,15.572727272727272,90
60,15.881818181818181,90
60,16.020454545454545,90
60,16.170454545454543,90
60,16.44772727272727,90
60,16.90681818181818,90
60,17.045454545454543,90
60,17.334090909090907,90
60,17.493181818181817,90
60,17.631818181818183,90
60,17.79090909090909,90
60,17.825,90
60,17.920454545454543,90
60,18.379545454545454,90
60,18.518181818181816,90
60,18.795454545454543,90
60,19.263636363636362,90
60,19.39090909090909,90
60,19.69090909090909,90
60,19.84090909090909,90
60,19.979545454545452,90
60,20.138636363636362,90
60,20.277272727272727,90
60,20.736363636363635,90
60,21.152272727272727,90
60,21.620454545454546,90
60,21.738636363636363,90
60,22.047727272727272,90
60,22.19772727272727,90
60,22.325,90
60,22.474999999999998,90
60,22.581818181818182,90
60,22.677272727272726,90
60,23.081818181818182,90
60,23.220454545454544,90
60,23.509090909090908,90
60,23.979545454545452,90
60,24.095454545454544,90
60,24.395454545454545,90
60,24.554545454545455,90
60,24.68181818181818,90
60,24.831818181818182,90
60,24.863636363636363,90
60,24.98181818181818,90
60,25.579545454545453,90
60,25.86590909090909,90
60,26.325,90
60,26.452272727272724,90
60,26.752272727272725,90
60,26.922727272727272,90
60,27.049999999999997,90
60,27.23181818181818,90
60,27.33863636363636,90
60,29.643181818181816,90
60,29.674999999999997,90
60,29.995454545454542,90
60,30.134090909090908,90
60,30.16590909090909,90
60,30.27272727272727,90
60,30.55909090909091,90
60,30.870454545454542,90
60,31.04090909090909,90
60,31.15681818181818,90
60,31.456818181818182,90
60,31.636363636363633,90
60,31.76590909090909,90
60,31.924999999999997,90
60,32.043181818181814,90
60,32.35227272727273,90
60,32.64090909090909,90
60,32.918181818181814,90
60,33.236363636363635,90
60,33.375,90
60,33.513636363636365,90
60,33.80227272727272,90
60,34.111363636363635,90
60,34.388636363636365,90
60,34.70909090909091,90
60,34.87954545454545,90
60,34.986363636363635,90
60,35.275,90
60,35.58409090909091,90
60,35.74318181818182,90
60,35.87272727272727,90
60,36.15909090909091,90
60,36.45909090909091,90
60,36.61818181818182,90
60,36.74772727272727,90
60,37.05681818181818,90
60,37.195454545454545,90
60,37.34318181818182,90
60,37.63181818181818,90
60,38.090909090909086,90
60,38.22954545454545,90
60,38.518181818181816,90
60,38.81590909090909,90
60,38.965909090909086,90
60,39.10454545454545,90
60,39.413636363636364,90
60,39.54090909090909,90
60,39.69090909090909,90
60,39.97954545454545,90
60,40.44772727272727,90
60,40.574999999999996,90
60,40.86363636363636,90
60,41.04545454545455,90
60,41.163636363636364,90
60,41.32272727272727,90
60,41.449999999999996,90
60,41.75909090909091,90
60,41.929545454545455,90
60,42.04772727272727,90
60,42.324999999999996,90
60,42.63409090909091,90
60,42.804545454545455,90
60,42.934090909090905,90
60,43.220454545454544,90
60,43.50909090909091,90
60,43.809090909090905,90
60,44.127272727272725,90
60,44.288636363636364,90
60,44.39545454545454,90
60,44.574999999999996,90
60,44.68181818181818,90
60,44.99090909090909,90
60,45.163636363636364,90
60,45.27954545454545,90
60,45.57954545454545,90
60,45.86590909090909,90
60,46.04772727272727,90
60,46.15454545454545,90
60,46.45227272727273,90
60,46.74090909090909,90
60,47.04090909090909,90
60,47.220454545454544,90
60,47.33863636363636,90
60,47.627272727272725,90
60,47.93636363636364,90
60,48.224999999999994,90
60,48.39545454545454,90
60,48.51136363636363,90
60,48.820454545454545,90
60,48.99090909090909,90
60,49.09772727272727,90
60,49.27954545454545,90
60,49.38636363636363,90
60,49.85681818181818,90
60,49.98409090909091,90
60,50.28181818181818,90
60,50.44318181818181,90
60,50.58181818181818,90
60,50.85909090909091,90
60,51.32727272727273,90
60,51.35909090909091,90
60,51.45681818181818,90
60,51.74318181818182,90
60,52.043181818181814,90
60,52.21363636363636,90
60,52.340909090909086,90
60,52.61818181818182,90
60,52.81136363636363,90
60,52.92727272727272,90
60,53.10909090909091,90
60,53.215909090909086,90
60,53.675,90
60,53.81363636363636,90
60,54.090909090909086,90
60,54.4,90
60,54.55,90
60,54.69772727272727,90
60,54.986363636363635,90
60,55.15681818181818,90
60,55.28636363636363,90
60,55.434090909090905,90
60,55.56363636363636,90
60,56.02045454545454,90
60,56.15909090909091,90
60,56.44772727272727,90
60,56.918181818181814,90
60,57.04545454545454,90
60,57.334090909090904,90
60,57.631818181818176,90
60,57.80227272727272,90
60,57.929545454545455,90
60,58.22954545454545,90
60,58.506818181818176,90
60,58.804545454545455,90
60,59.10454545454545,90
60,59.252272727272725,90
60,59.28636363636363,90
60,59.39090909090909,90
60,59.70227272727272,90
60,59.98863636363636,90
60,60.15,90
60,60.26590909090909,90
60,60.736363636363635,90
60,60.86363636363636,90
60,61.163636363636364,90
60,61.449999999999996,90
60,61.75,90
60,62.04772727272727,90
60,62.336363636363636,90
60,62.63409090909091,90
60,63.10454545454545,90
60,63.220454545454544,90
60,63.50909090909091,90
60,63.79772727272727,90
60,63.97954545454545,90
60,64.10681818181818,90
60,64.39545454545454,90
60,64.56590909090909,90
60,64.98181818181818,90
60,65.44090909090909,90
60,65.57954545454545,90
60,65.85681818181818,90
60,66.16590909090908,90
60,66.325,90
60,66.46363636363635,90
60,66.72954545454544,90
60,67.05,90
60,67.21136363636363,90
60,67.35,90
60,67.80909090909091,90
60,68.21363636363635,90
60,68.51136363636363,90
60,68.67272727272727,90
60,68.8,90
60,69.09772727272727,90
60,69.27045454545454,90
60,69.4090909090909,90
60,69.56818181818181,90
60,69.68636363636364,90
60,70.15454545454546,90
60,70.55909090909091,90
60,70.85909090909091,90
60,71.02954545454546,90
60,71.15681818181818,90
60,71.44545454545454,90
60,71.62727272727273,90
60,71.75454545454545,90
60,72.04318181818182,90
60,72.49090909090908,90
60,72.91818181818182,90
60,73.22727272727272,90
60,73.39772727272727,90
60,73.52499999999999,90
60,73.80227272727272,90
60,73.97272727272727,90
60,74.11136363636363,90
60,74.38863636363637,90
60,74.87045454545454,90
60,74.98636363636363,90
60,75.27499999999999,90
60,75.56363636363636,90
60,75.73409090909091,90
60,75.86136363636363,90
60,76.13863636363637,90
60,76.47045454545454,90
60,76.74772727272727,90
60,77.20454545454545,90
60,77.63181818181818,90
60,77.9090909090909,90
60,78.0909090909091,90
60,78.21818181818182,90
60,78.50681818181818,90
60,78.67727272727272,90
60,78.81590909090909,90
60,78.9659090909091,90
60,79.10454545454544,90
60,79.56363636363636,90
60,79.70227272727273,90
60,79.97954545454544,90
60,80.28863636363636,90
60,80.44772727272726,90
60,80.58636363636363,90
60,80.875,90
60,81.0340909090909,90
60,81.16363636363636,90
60,81.45,90
60,81.9090909090909,90
60,82.325,90
60,82.625,90
60,82.80454545454545,90
60,82.92272727272727,90
60,83.22045454545454,90
60,83.39090909090909,90
60,83.5090909090909,90
60,83.79772727272727,90
60,86.15454545454546,90
60,86.60227272727272,90
60,86.91136363636363,90
60,87.02954545454546,90
60,87.48863636363636,90
60,87.62727272727273,90
60,88.07499999999999,90
60,88.51136363636363,90
60,88.9590909090909,90
60,89.24772727272727,90
60,89.39772727272727,90
60,89.85681818181818,90
60,89.97272727272727,90
60,90.26136363636363,90
60,90.45227272727273,90
60,90.57045454545454,90
60,90.72954545454544,90
60,90.85909090909091,90
60,91.31818181818181,90
60,91.45681818181818,90
60,91.61590909090908,90
60,91.74318181818181,90
60,92.21363636363635,90
60,92.32954545454545,90
60,92.60909090909091,90
60,92.78863636363636,90
60,93.09772727272727,90
60,93.21590909090908,90
60,93.68636363636364,90
60,93.81363636363636,90
60,93.97272727272727,90
60,94.10227272727272,90
60,94.5590909090909,90
60,94.68863636363636,90
60,94.975,90
60,95.14772727272727,90
60,95.27499999999999,90
60,95.45681818181818,90
60,95.57272727272726,90
60,96.02045454545454,90
60,96.1590909090909,90
60,96.32954545454545,90
60,96.44772727272726,90
60,96.91818181818181,90
60,97.04545454545455,90
60,97.32272727272726,90
60,97.50454545454545,90
60,97.63181818181818,90
60,97.80227272727272,90
60,97.92045454545455,90
60,98.37954545454545,90
60,98.51818181818182,90
60,98.68863636363636,90
60,98.80454545454545,90
60,99.26363636363637,90
60,99.39090909090909,90
60,99.67954545454545,90
60,99.86136363636363,90
60,99.97954545454544,90
60,100.14999999999999,90
60,100.26590909090909,90
60,100.74772727272727,90
60,100.86363636363636,90
60,101.01363636363637,90
60,101.15227272727272,90
60,101.62045454545454,90
60,101.75,90
60,102.02727272727272,90
60,102.19772727272726,90
60,102.33636363636363,90
60,102.49545454545454,90
60,102.625,90
60,103.08181818181818,90
60,103.22045454545454,90
60,103.39090909090909,90
60,103.5090909090909,90
60,103.96818181818182,90
60,104.10681818181817,90
60,104.39545454545454,90
60,104.55454545454545,90
60,104.68181818181817,90
60,104.85227272727272,90
60,104.98181818181817,90
60,105.44090909090909,90
60,105.56818181818181,90
60,105.73863636363636,90
60,105.86590909090908,90
60,106.31363636363636,90
60,106.45227272727273,90
60,106.74090909090908,90
60,106.91136363636363,90
60,107.04090909090908,90
60,107.21136363636363,90
60,107.32727272727273,90
60,107.925,90
60,108.10681818181817,90
60,108.21363636363635,90
60,108.67272727272727,90
60,108.8,90
60,109.08863636363635,90
60,109.2590909090909,90
60,109.38636363636363,90
60,109.55681818181817,90
60,109.68636363636364,90
60,110.14318181818182,90
60,110.27272727272727,90
60,110.44318181818181,90
60,110.57045454545454,90
60,111.02954545454546,90
60,111.15681818181818,90
60,111.44545454545454,90
60,111.61590909090908,90
60,111.73409090909091,90
60,111.91363636363636,90
60,112.04318181818181,90
60,114.39999999999999,90
60,116.68181818181817,90
60,116.75681818181818,90
60,119.01818181818182,90
60,119.56363636363636,90
60,119.67954545454545,90
60,119.97954545454544,90
60,120.44772727272726,90
60,120.86363636363636,90
60,121.0340909090909,90
60,121.44999999999999,90
60,121.92045454545453,90
60,122.04772727272727,90
60,122.33636363636363,90
60,122.79545454545453,90
60,122.9340909090909,90
60,123.21136363636363,90
60,123.39090909090909,90
60,123.79772727272727,90
60,124.27727272727272,90
60,124.68181818181817,90
60,125.15227272727272,90
60,125.56818181818181,90
60,125.75,90
60,126.14318181818182,90
60,126.625,90
60,126.75227272727273,90
60,127.04090909090908,90
60,127.35,90
60,127.48863636363636,90
60,127.93636363636362,90
60,128.51136363636363,90
60,128.98181818181817,90
60,129.09772727272727,90
60,129.39772727272728,90
60,129.84545454545454,90
60,129.99545454545455,90
60,130.27272727272728,90
60,130.4522727272727,90
60,130.57045454545454,90
60,130.8590909090909,90
60,131.3181818181818,90
60,131.45681818181816,90
60,131.74318181818182,90
60,132.2022727272727,90
60,132.61818181818182,90
60,133.22727272727272,90
60,133.68636363636364,90
60,134.10227272727272,90
60,134.5590909090909,90
60,134.68863636363636,90
60,134.98636363636362,90
60,135.275,90
60,135.56363636363636,90
60,136.0522727272727,90
60,136.4590909090909,90
60,137.0568181818182,90
60,137.3340909090909,90
60,137.9090909090909,90
60,138.38863636363635,90
60,138.5181818181818,90
60,138.8159090909091,90
60,139.26363636363635,90
60,139.6909090909091,90
60,139.85,90
60,140.27727272727273,90
60,140.75681818181818,90
60,141.16363636363636,90
60,141.62045454545455,90
60,142.03636363636363,90
60,142.2090909090909,90
60,142.61363636363635,90
60,143.09318181818182,90
60,143.22045454545454,90
60,143.5090909090909,90
60,143.8090909090909,90
60,143.96818181818182,90
60,144.39545454545453,90
60,144.575,90
60,144.9590909090909,90
60,145.45,90
60,145.57954545454544,90
60,145.86590909090907,90
60,146.325,90
60,146.74090909090907,90
60,147.3272727272727,90
60,147.8181818181818,90
60,147.93636363636364,90
60,148.21363636363637,90
60,148.6931818181818,90
60,149.12954545454545,90
60,149.58863636363637,90
60,149.69545454545454,90
60,150.16590909090908,90
60,150.28181818181818,90
60,150.57045454545454,90
60,151.04999999999998,90
60,151.1681818181818,90
60,151.45681818181816,90
60,151.62727272727273,90
60,151.92499999999998,90
60,152.03181818181818,90
60,152.51136363636363,90
60,152.64090909090908,90
60,152.9272727272727,90
60,153.39772727272725,90
60,153.525,90
60,153.825,90
60,154.28181818181818,90
60,154.4,90
60,154.84772727272727,90
60,155.26363636363635,90
60,156.1590909090909,90
60,156.61818181818182,90
60,156.74772727272727,90
60,157.2159090909091,90
60,157.63181818181818,90
60,158.22954545454544,90
60,158.53863636363636,90
60,158.6772727272727,90
60,158.8159090909091,90
60,158.95454545454544,90
60,159.10454545454544,90
60,159.5522727272727,90
60,159.98863636363635,90
60,160.575,90
60,160.88636363636363,90
60,161.025,90
60,161.16363636363636,90
60,161.32272727272726,90
60,161.45,90
60,161.89772727272725,90
60,162.33636363636361,90
60,162.92272727272726,90
60,163.22045454545454,90
60,163.38181818181818,90
60,163.52045454545453,90
60,163.67045454545453,90
60,163.8090909090909,90
60,164.26590909090908,90
60,164.6931818181818,90
60,165.27954545454546,90
60,165.57954545454544,90
60,165.72727272727272,90
60,165.85681818181817,90
60,166.02727272727273,90
60,166.15454545454546,90
60,166.625,90
60,166.77272727272725,90
60,167.04999999999998,90
60,167.63636363636363,90
60,167.93636363636364,90
60,168.075,90
60,168.225,90
60,168.37272727272727,90
60,168.51136363636363,90
60,168.97045454545454,90
60,169.39772727272725,90
60,169.9840909090909,90
60,170.2931818181818,90
60,170.4318181818182,90
60,170.58181818181816,90
60,170.72954545454544,90
60,170.8590909090909,90
60,171.3181818181818,90
60,171.7431818181818,90
60,172.3409090909091,90
60,172.62954545454545,90
60,172.78863636363636,90
60,172.9272727272727,90
60,173.0772727272727,90
60,173.31136363636364,90
60,175.5522727272727,90
60,176.0522727272727,90
60,176.44772727272726,90
60,176.9272727272727,90
60,177.0568181818182,90
60,177.35454545454544,90
60,177.51363636363635,90
60,177.92954545454543,90
60,178.4318181818182,90
60,178.52727272727273,90
60,178.80454545454543,90
60,179.27499999999998,90
60,179.40227272727273,90
60,179.6909090909091,90
60,179.87272727272727,90
60,179.98863636363635,90
60,180.17045454545453,90
60,180.27727272727273,90
60,180.575,90
60,180.75681818181818,90
60,181.16363636363636,90
60,181.63181818181818,90
60,182.03636363636363,90
60,182.33636363636361,90
60,182.50681818181818,90
60,182.6340909090909,90
60,183.08181818181816,90
60,183.39090909090908,90
60,183.5090909090909,90
60,183.7022727272727,90
60,183.96818181818182,90
60,184.39545454545453,90
60,184.58636363636361,90
60,184.6931818181818,90
60,185.02499999999998,90
60,185.27954545454546,90
60,185.4181818181818,90
60,185.46136363636361,90
60,185.5681818181818,90
60,185.85681818181817,90
60,186.4431818181818,90
60,186.74090909090907,90
60,186.87954545454545,90
60,1.4931818181818182,90
60,2.0704545454545453,90
60,2.356818181818182,90
60,2.506818181818182,90
60,2.6454545454545455,90
60,2.9545454545454546,90
60,3.2318181818181815,90
60,3.509090909090909,90
60,4.1068181818181815,90
60,4.245454545454545,90
60,4.384090909090909,90
60,4.672727272727273,90
60,4.831818181818182,90
60,4.959090909090909,90
60,5.120454545454545,90
60,5.279545454545454,90
60,5.579545454545454,90
60,5.8568181818181815,90
60,6.154545454545454,90
60,6.7295454545454545,90
60,7.018181818181818,90
60,7.179545454545454,90
60,7.295454545454545,90
60,7.595454545454545,90
60,7.881818181818182,90
60,8.170454545454545,90
60,8.470454545454546,90
60,8.747727272727273,90
60,8.779545454545454,90
60,9.045454545454545,90
60,9.354545454545454,90
60,9.504545454545454,90
60,9.631818181818181,90
60,9.790909090909091,90
60,10.665909090909091,90
60,10.804545454545455,90
60,11.113636363636363,90
60,11.402272727272727,90
60,11.69090909090909,90
60,11.829545454545453,90
60,11.968181818181817,90
60,12.26590909090909,90
60,12.554545454545455,90
60,12.831818181818182,90
60,13.14090909090909,90
60,13.429545454545455,90
60,13.718181818181817,90
60,14.036363636363635,90
60,14.154545454545454,90
60,14.304545454545455,90
60,14.59090909090909,90
60,14.879545454545454,90
60,15.179545454545455,90
60,15.76590909090909,90
60,16.043181818181818,90
60,16.352272727272727,90
60,16.479545454545455,90
60,16.64090909090909,90
60,16.927272727272726,90
60,17.21590909090909,90
60,17.504545454545454,90
60,17.813636363636363,90
60,18.102272727272727,90
60,18.379545454545454,90
60,18.677272727272726,90
60,18.81590909090909,90
60,18.96590909090909,90
60,19.252272727272725,90
60,19.54090909090909,90
60,19.818181818181817,90
60,20.127272727272725,90
60,20.436363636363634,90
60,20.704545454545453,90
60,21.013636363636362,90
60,21.14090909090909,90
60,21.29090909090909,90
60,21.599999999999998,90
60,21.877272727272725,90
60,22.174999999999997,90
60,22.46363636363636,90
60,22.763636363636362,90
60,23.04090909090909,90
60,23.33863636363636,90
60,23.477272727272727,90
60,23.627272727272725,90
60,23.913636363636364,90
60,24.202272727272724,90
60,24.502272727272725,90
60,24.788636363636364,90
60,25.08863636363636,90
60,25.375,90
60,25.663636363636364,90
60,25.802272727272726,90
60,25.96363636363636,90
60,26.24090909090909,90
60,26.538636363636364,90
60,26.836363636363636,90
60,27.113636363636363,90
60,27.424999999999997,90
60,27.702272727272724,90
60,28.0,90
60,28.138636363636362,90
60,28.277272727272727,90
60,28.395454545454545,90
60,28.736363636363635,90
60,28.852272727272727,90
60,29.025,90
60,29.16363636363636,90
60,29.311363636363634,90
60,29.45,90
60,30.027272727272727,90
60,30.313636363636363,90
60,30.46363636363636,90
60,30.613636363636363,90
60,30.902272727272727,90
60,31.188636363636363,90
60,31.46590909090909,90
60,31.76590909090909,90
60,32.05227272727272,90
60,32.35227272727273,90
60,32.64090909090909,90
60,32.788636363636364,90
60,32.949999999999996,90
60,33.07727272727273,90
60,33.215909090909086,90
60,33.525,90
60,33.80227272727272,90
60,34.10227272727273,90
60,34.388636363636365,90
60,34.67727272727272,90
60,34.975,90
60,35.125,90
60,35.275,90
60,35.55227272727272,90
60,35.85,90
60,36.127272727272725,90
60,36.43636363636364,90
60,36.71363636363636,90
60,37.29090909090909,90
60,37.58863636363636,90
60,38.77272727272727,90
60,39.35909090909091,90
60,39.79772727272727,90
60,40.074999999999996,90
60,40.225,90
60,40.52272727272727,90
60,40.81136363636364,90
60,41.09772727272727,90
60,41.68636363636364,90
60,42.12272727272727,90
60,42.41136363636363,90
60,42.84772727272727,90
60,43.14772727272727,90
60,43.434090909090905,90
60,44.01136363636363,90
60,44.44772727272727,90
60,44.74772727272727,90
60,45.184090909090905,90
60,45.47272727272727,90
60,45.75909090909091,90
60,46.34772727272727,90
60,46.78409090909091,90
60,47.08181818181818,90
60,47.220454545454544,90
60,47.50909090909091,90
60,48.086363636363636,90
60,48.67272727272727,90
60,49.10909090909091,90
60,49.54772727272727,90
60,49.845454545454544,90
60,50.13409090909091,90
60,50.42045454545454,90
60,50.99772727272727,90
60,51.434090909090905,90
60,51.73409090909091,90
60,51.88181818181818,90
60,52.17045454545454,90
60,52.470454545454544,90
60,52.75681818181818,90
60,53.334090909090904,90
60,53.77045454545454,90
60,54.070454545454545,90
60,54.50681818181818,90
60,54.79545454545454,90
60,55.08181818181818,90
60,55.65909090909091,90
60,56.095454545454544,90
60,56.39545454545454,90
60,56.53409090909091,90
60,56.820454545454545,90
60,57.40909090909091,90
60,57.98409090909091,90
60,58.42045454545454,90
60,58.87045454545454,90
60,59.15681818181818,90
60,59.445454545454545,90
60,59.73409090909091,90
60,60.03181818181818,90
60,60.320454545454545,90
60,60.61818181818182,90
60,60.756818181818176,90
60,61.05681818181818,90
60,61.195454545454545,90
60,61.48181818181818,90
60,61.78181818181818,90
60,62.070454545454545,90
60,62.35681818181818,90
60,62.64545454545454,90
60,62.94318181818181,90
60,63.09318181818181,90
60,63.24318181818182,90
60,63.381818181818176,90
60,63.52954545454545,90
60,63.81818181818181,90
60,64.10681818181818,90
60,64.39545454545454,90
60,64.69318181818181,90
60,64.98181818181818,90
60,65.27045454545454,90
60,65.41818181818182,90
60,65.56818181818181,90
60,65.70681818181818,90
60,65.85681818181818,90
60,66.01590909090909,90
60,66.14318181818182,90
60,66.43181818181817,90
60,66.58181818181818,90
60,66.72954545454544,90
60,67.01818181818182,90
60,67.30681818181817,90
60,67.60454545454544,90
60,67.75454545454545,90
60,67.89318181818182,90
60,68.04318181818182,90
60,68.18181818181817,90
60,68.47045454545454,90
60,68.76818181818182,90
60,69.05681818181817,90
60,69.35454545454544,90
60,69.64318181818182,90
60,69.92954545454545,90
60,70.07954545454545,90
60,70.22954545454544,90
60,70.36818181818181,90
60,70.51818181818182,90
60,70.80454545454545,90
60,71.10454545454544,90
60,71.38181818181818,90
60,71.96818181818182,90
60,72.27727272727272,90
60,72.41590909090908,90
60,72.55454545454545,90
60,73.12954545454545,90
60,73.58863636363635,90
60,73.71818181818182,90
60,74.00454545454545,90
60,74.29318181818182,90
60,74.5909090909091,90
60,74.74090909090908,90
60,74.87954545454545,90
60,75.16818181818182,90
60,75.4659090909091,90
60,75.75454545454545,90
60,76.32954545454545,90
60,76.62954545454545,90
60,76.91818181818182,90
60,77.07727272727273,90
60,77.20454545454545,90
60,77.49318181818181,90
60,77.79090909090908,90
60,78.0909090909091,90
60,78.37954545454545,90
60,78.66590909090908,90
60,78.95454545454545,90
60,79.25227272727273,90
60,79.40227272727272,90
60,79.54090909090908,90
60,79.82954545454545,90
60,80.11818181818181,90
60,80.41590909090908,90
60,80.99090909090908,90
60,81.27954545454546,90
60,81.85681818181818,90
60,82.15454545454546,90
60,82.45227272727273,90
60,83.04090909090908,90
60,83.33863636363635,90
60,83.61590909090908,90
60,84.49090909090908,90
60,84.77954545454546,90
60,85.35454545454544,90
60,85.66363636363636,90
60,85.92954545454545,90
60,86.82727272727273,90
60,87.10454545454544,90
60,87.39090909090909,90
60,87.69090909090909,90
60,87.98863636363636,90
60,88.26590909090909,90
60,89.15227272727272,90
60,89.41818181818181,90
60,89.70681818181818,90
60,102.26136363636363,90
60,102.5590909090909,90
60,102.975,90
60,103.14772727272727,90
60,103.425,90
60,103.71136363636363,90
60,104.01136363636363,90
60,104.59772727272727,90
60,105.0340909090909,90
60,105.46136363636363,90
60,105.75,90
60,106.04772727272727,90
60,106.19772727272726,90
60,106.33636363636363,90
60,106.64545454545454,90
60,106.91136363636363,90
60,107.78636363636363,90
60,108.08636363636363,90
60,108.37272727272726,90
60,108.61818181818181,90
60,108.67272727272727,90
60,109.23636363636363,90
60,109.55681818181817,90
60,109.82499999999999,90
60,110.12272727272726,90
60,110.41136363636363,90
60,110.69772727272726,90
60,110.99772727272726,90
60,111.29545454545455,90
60,111.57272727272726,90
60,111.85,90
60,112.43636363636364,90
60,112.75681818181818,90
60,113.0340909090909,90
60,113.3340909090909,90
60,113.6,90
60,113.9090909090909,90
60,114.18636363636364,90
60,114.51818181818182,90
60,115.08181818181818,90
60,115.67045454545455,90
60,116.23409090909091,90
60,116.68181818181817,90
60,117.12045454545454,90
60,117.41818181818181,90
60,117.69545454545454,90
60,117.98409090909091,90
60,118.29318181818181,90
60,118.57045454545454,90
60,119.0090909090909,90
60,119.28636363636363,90
60,119.4340909090909,90
60,119.72272727272727,90
60,120.03181818181818,90
60,120.32045454545454,90
60,120.89545454545454,90
60,121.3340909090909,90
60,121.62045454545454,90
60,121.77045454545454,90
60,122.0590909090909,90
60,122.35681818181817,90
60,122.64545454545454,90
60,122.94318181818181,90
60,123.23181818181817,90
60,123.52954545454544,90
60,123.67045454545453,90
60,123.95681818181818,90
60,124.10681818181817,90
60,124.39545454545454,90
60,124.68181818181817,90
60,124.98181818181817,90
60,125.54772727272727,90
60,125.98409090909091,90
60,126.27272727272727,90
60,126.42045454545453,90
60,126.7090909090909,90
60,127.0090909090909,90
60,127.29545454545453,90
60,127.5840909090909,90
60,127.88181818181818,90
60,128.1818181818182,90
60,128.32954545454544,90
60,128.6090909090909,90
60,128.75681818181818,90
60,129.0568181818182,90
60,129.34318181818182,90
60,129.63181818181818,90
60,130.21818181818182,90
60,130.65681818181818,90
60,130.9431818181818,90
60,131.09318181818182,90
60,131.39090909090908,90
60,131.67954545454546,90
60,131.97954545454544,90
60,132.5431818181818,90
60,132.84318181818182,90
60,132.99090909090907,90
60,133.24772727272727,90
60,133.4181818181818,90
60,133.70681818181816,90
60,133.85681818181817,90
60,134.00454545454545,90
60,134.2931818181818,90
60,134.87954545454545,90
60,135.3181818181818,90
60,135.60454545454544,90
60,135.74318181818182,90
60,136.0431818181818,90
60,136.32954545454544,90
60,136.64090909090908,90
60,136.9181818181818,90
60,137.20454545454544,90
60,137.65227272727273,90
60,137.9522727272727,90
60,138.0909090909091,90
60,138.37954545454545,90
60,138.6772727272727,90
60,138.99772727272727,90
60,139.26363636363635,90
60,139.5522727272727,90
60,139.97954545454544,90
60,140.24545454545455,90
60,140.40454545454546,90
60,140.70454545454544,90
60,140.99090909090907,90
60,141.3022727272727,90
60,141.87727272727273,90
60,142.16590909090908,90
60,142.60227272727272,90
60,142.74090909090907,90
60,143.02954545454546,90
60,143.3272727272727,90
60,143.63636363636363,90
60,144.1909090909091,90
60,144.64090909090908,90
60,145.0659090909091,90
60,145.36590909090907,90
60,145.66363636363636,90
60,145.96363636363637,90
60,146.24090909090907,90
60,146.52727272727273,90
60,147.24318181818182,90
60,147.39090909090908,90
60,147.67954545454543,90
60,147.97954545454544,90
60,148.12727272727273,90
60,148.28863636363636,90
60,148.9590909090909,90
60,153.2590909090909,90
60,153.4181818181818,90
60,154.5590909090909,90
60,155.72272727272727,90
60,155.75454545454545,90
60,156.32045454545454,90
60,156.59772727272727,90
60,156.74772727272727,90
60,156.89545454545453,90
60,157.1840909090909,90
60,158.0590909090909,90
60,158.34772727272727,90
60,159.93636363636364,90
60,160.39545454545453,90
60,160.67272727272726,90
60,161.24772727272727,90
60,161.5681818181818,90
60,162.24090909090907,90
60,162.7090909090909,90
60,163.0090909090909,90
60,163.60454545454544,90
60,167.2431818181818,90
60,167.97954545454544,90
60,168.26590909090908,90
60,168.41590909090908,90
60,171.57272727272726,90
60,172.89545454545453,90
60,177.27954545454546,90
60,177.57954545454544,90
60,187.59545454545454,90
60,187.88181818181818,90
60,188.18181818181816,90
60,188.47045454545454,90
60,188.75681818181818,90
60,188.9181818181818,90
60,189.0659090909091,90
60,189.20454545454544,90
60,189.31136363636364,90
60,189.35454545454544,90
60,189.61136363636362,90
60,189.6431818181818,90
60,189.92954545454543,90
60,190.22954545454544,90
60,190.5181818181818,90
60,190.79545454545453,90
60,191.09318181818182,90
60,191.2431818181818,90
60,191.38181818181818,90
60,191.52954545454546,90
60,191.96818181818182,90
60,192.26590909090908,90
60,192.55454545454543,90
60,192.84318181818182,90
60,193.14090909090908,90
60,193.4181818181818,90
60,193.57954545454544,90
60,193.71818181818182,90
60,193.86590909090907,90
60,194.01590909090908,90
60,194.2931818181818,90
60,194.5909090909091,90
60,194.89090909090908,90
60,195.17954545454543,90
60,195.44545454545454,90
60,195.75454545454545,90
60,195.90454545454546,90
60,196.03181818181818,90
60,196.62954545454545,90
60,196.9181818181818,90
60,197.15227272727273,90
60,197.3340909090909,90
60,0.39545454545454545,90
60,0.45909090909090905,90
60,0.7477272727272727,90
60,0.9068181818181817,90
60,1.0454545454545454,90
60,1.184090909090909,90
60,1.6204545454545454,90
60,1.7909090909090908,90
60,1.9295454545454545,90
60,2.0704545454545453,90
60,2.209090909090909,90
60,2.356818181818182,90
60,2.784090909090909,90
60,3.0727272727272728,90
60,3.2318181818181815,90
60,3.370454545454545,90
60,3.5295454545454543,90
60,3.968181818181818,90
60,4.127272727272727,90
60,4.288636363636363,90
60,4.415909090909091,90
60,4.5659090909090905,90
60,4.704545454545454,90
60,5.140909090909091,90
60,5.418181818181818,90
60,5.588636363636363,90
60,5.727272727272727,90
60,5.877272727272727,90
60,6.281818181818181,90
60,6.752272727272727,90
60,6.902272727272727,90
60,7.040909090909091,90
60,7.477272727272727,90
60,7.765909090909091,90
60,8.075,90
60,8.213636363636363,90
60,8.64090909090909,90
60,8.95,90
60,9.097727272727273,90
60,9.236363636363636,90
60,9.386363636363637,90
60,9.825,90
60,10.09090909090909,90
60,10.4,90
60,10.549999999999999,90
60,10.975,90
60,11.295454545454545,90
60,11.424999999999999,90
60,11.584090909090909,90
60,11.722727272727273,90
60,11.881818181818181,90
60,12.181818181818182,90
60,12.459090909090909,90
60,12.756818181818181,90
60,12.906818181818181,90
60,13.354545454545454,90
60,13.643181818181818,90
60,13.770454545454545,90
60,13.929545454545455,90
60,14.070454545454545,90
60,14.25,90
60,14.368181818181817,90
60,14.538636363636362,90
60,14.795454545454545,90
60,15.093181818181817,90
60,15.243181818181817,90
60,15.679545454545453,90
60,16.138636363636362,90
60,16.288636363636364,90
60,16.41590909090909,90
60,16.575,90
60,16.863636363636363,90
60,17.129545454545454,90
60,17.44090909090909,90
60,17.579545454545453,90
60,17.972727272727273,90
60,18.036363636363635,90
60,18.186363636363634,90
60,18.46363636363636,90
60,18.59090909090909,90
60,18.752272727272725,90
60,19.2,90
60,19.488636363636363,90
60,19.76590909090909,90
60,19.913636363636364,90
60,20.277272727272727,90
60,20.363636363636363,90
60,20.811363636363634,90
60,20.938636363636363,90
60,21.08863636363636,90
60,21.525,90
60,21.834090909090907,90
60,22.304545454545455,90
60,22.720454545454544,90
60,22.902272727272727,90
60,23.30681818181818,90
60,23.87272727272727,90
60,24.159090909090907,90
60,24.459090909090907,90
60,24.597727272727273,90
60,24.768181818181816,90
60,25.06590909090909,90
60,25.48181818181818,90
60,25.513636363636362,90
60,25.652272727272727,90
60,25.78181818181818,90
60,25.94090909090909,90
60,26.218181818181815,90
60,26.50681818181818,90
60,26.804545454545455,90
60,26.954545454545453,90
60,27.39090909090909,90
60,27.552272727272726,90
60,27.829545454545453,90
60,27.979545454545452,90
60,28.15,90
60,28.277272727272727,90
60,28.586363636363636,90
60,28.852272727272727,90
60,29.14090909090909,90
60,29.29090909090909,90
60,29.45,90
60,29.738636363636363,90
60,30.186363636363634,90
60,30.313636363636363,90
60,30.452272727272724,90
60,30.625,90
60,30.902272727272727,90
60,31.188636363636363,90
60,31.488636363636363,90
60,31.627272727272725,90
60,31.775,90
60,32.074999999999996,90
60,32.502272727272725,90
60,32.65,90
60,32.768181818181816,90
60,32.8,90
60,32.949999999999996,90
60,33.215909090909086,90
60,33.24772727272727,90
60,35.57272727272727,90
60,35.87272727272727,90
60,36.17045454545455,90
60,36.29772727272727,90
60,36.470454545454544,90
60,36.75681818181818,90
60,37.04545454545455,90
60,37.184090909090905,90
60,37.34318181818182,90
60,37.47272727272727,90
60,37.63181818181818,90
60,37.92045454545455,90
60,38.20909090909091,90
60,38.518181818181816,90
60,38.64545454545454,90
60,38.804545454545455,90
60,39.08181818181818,90
60,39.38181818181818,90
60,39.52045454545454,90
60,39.679545454545455,90
60,39.96818181818182,90
60,40.17045454545455,90
60,40.26590909090909,90
60,40.554545454545455,90
60,40.98181818181818,90
60,41.14090909090909,90
60,41.429545454545455,90
60,41.72727272727273,90
60,41.86590909090909,90
60,42.027272727272724,90
60,42.15454545454545,90
60,42.31363636363636,90
60,42.60227272727273,90
60,42.89090909090909,90
60,43.199999999999996,90
60,43.31818181818181,90
60,43.48863636363636,90
60,43.75454545454545,90
60,44.074999999999996,90
60,44.19090909090909,90
60,44.36363636363636,90
60,44.49090909090909,90
60,44.52272727272727,90
60,44.65,90
60,44.875,90
60,44.959090909090904,90
60,45.236363636363635,90
60,45.54772727272727,90
60,45.663636363636364,90
60,45.834090909090904,90
60,46.12272727272727,90
60,46.41136363636363,90
60,46.55,90
60,46.69772727272727,90
60,46.82727272727273,90
60,46.986363636363635,90
60,47.30681818181818,90
60,47.584090909090904,90
60,47.74318181818182,90
60,48.0,90
60,48.15,90
60,48.459090909090904,90
60,48.74772727272727,90
60,48.89545454545454,90
60,49.04545454545454,90
60,49.163636363636364,90
60,49.334090909090904,90
60,49.611363636363635,90
60,49.90909090909091,90
60,50.336363636363636,90
60,50.518181818181816,90
60,50.79545454545454,90
60,51.09318181818182,90
60,51.402272727272724,90
60,51.52954545454545,90
60,51.69090909090909,90
60,51.849999999999994,90
60,51.96818181818182,90
60,52.26590909090909,90
60,52.586363636363636,90
60,52.69318181818181,90
60,52.84318181818182,90
60,53.12954545454545,90
60,53.418181818181814,90
60,53.57954545454545,90
60,53.85681818181818,90
60,54.01590909090909,90
60,54.22954545454545,90
60,54.304545454545455,90
60,54.60227272727273,90
60,54.91136363636363,90
60,55.02954545454545,90
60,55.199999999999996,90
60,55.48863636363636,90
60,55.775,90
60,55.913636363636364,90
60,56.074999999999996,90
60,56.20227272727273,90
60,56.36363636363636,90
60,56.65,90
60,56.93863636363636,90
60,57.24772727272727,90
60,57.375,90
60,57.53636363636363,90
60,57.81363636363636,90
60,58.12272727272727,90
60,58.42045454545454,90
60,58.55,90
60,58.69772727272727,90
60,58.902272727272724,90
60,58.99772727272727,90
60,59.28636363636363,90
60,59.72272727272727,90
60,59.881818181818176,90
60,60.15909090909091,90
60,60.459090909090904,90
60,60.60909090909091,90
60,60.77954545454545,90
60,61.04545454545454,90
60,61.34318181818182,90
60,61.631818181818176,90
60,61.929545454545455,90
60,62.070454545454545,90
60,62.21818181818182,90
60,62.506818181818176,90
60,62.804545454545455,90
60,62.91136363636363,90
60,63.10454545454545,90
60,63.220454545454544,90
60,63.381818181818176,90
60,63.679545454545455,90
60,63.96818181818181,90
60,64.27727272727273,90
60,64.41590909090908,90
60,64.56590909090909,90
60,64.84318181818182,90
60,65.14090909090909,90
60,65.45,90
60,65.57954545454545,90
60,65.72727272727272,90
60,66.01590909090909,90
60,66.31363636363636,90
60,66.61363636363636,90
60,66.75227272727273,90
60,66.90227272727273,90
60,67.18863636363636,90
60,67.47727272727272,90
60,67.64772727272727,90
60,67.77499999999999,90
60,67.93636363636364,90
60,68.075,90
60,68.37272727272727,90
60,68.64999999999999,90
60,68.9590909090909,90
60,69.07727272727273,90
60,69.22727272727272,90
60,69.81363636363636,90
60,70.11136363636363,90
60,70.24090909090908,90
60,70.39999999999999,90
60,70.72045454545454,90
60,71.0090909090909,90
60,71.88181818181818,90
60,72.47045454545454,90
60,73.05681818181817,90
60,73.34318181818182,90
60,73.50454545454545,90
60,73.64318181818182,90
60,73.80227272727272,90
60,73.92045454545455,90
60,74.50681818181818,90
60,74.80454545454545,90
60,74.95454545454545,90
60,75.39090909090909,90
60,75.67954545454545,90
60,75.97954545454544,90
60,76.12727272727273,90
60,76.25681818181818,90
60,76.73636363636363,90
60,76.86363636363636,90
60,77.02499999999999,90
60,77.15227272727272,90
60,77.30227272727272,90
60,77.45,90
60,77.75,90
60,78.02727272727272,90
60,78.18636363636364,90
60,78.325,90
60,78.46363636363635,90
60,78.60227272727272,90
60,79.2,90
60,79.48863636363636,90
60,79.63636363636363,90
60,79.85,90
60,80.36363636363636,90
60,80.64090909090909,90
60,80.67272727272727,90
60,80.81136363636364,90
60,80.97045454545454,90
60,81.23636363636363,90
60,81.69545454545454,90
60,81.8340909090909,90
60,81.99545454545454,90
60,82.10227272727272,90
60,82.14318181818182,90
60,82.43181818181817,90
60,82.72045454545454,90
60,82.87954545454545,90
60,83.01818181818182,90
60,83.15681818181818,90
60,83.29545454545455,90
60,83.88181818181818,90
60,84.17045454545455,90
60,84.32045454545454,90
60,84.76818181818182,90
60,85.05681818181817,90
60,85.34318181818182,90
60,85.64318181818182,90
60,86.10227272727272,90
60,86.22954545454544,90
60,86.38863636363637,90
60,86.52727272727272,90
60,86.67727272727272,90
60,86.80454545454545,90
60,87.11363636363636,90
60,87.39090909090909,90
60,87.55227272727272,90
60,87.69090909090909,90
60,87.94772727272726,90
60,87.97954545454544,90
60,88.55454545454545,90
60,88.85227272727272,90
60,89.07727272727273,90
60,89.15227272727272,90
60,90.5909090909091,90
60,90.625,90
60,91.18863636363636,90
60,91.77499999999999,90
60,92.20227272727273,90
60,92.51136363636363,90
60,92.66136363636363,90
60,92.94999999999999,90
60,93.38636363636363,90
60,93.68636363636364,90
60,94.1340909090909,90
60,94.5590909090909,90
60,94.84772727272727,90
60,95.30681818181817,90
60,95.74318181818181,90
60,96.04318181818181,90
60,96.49090909090908,90
60,96.90681818181818,90
60,97.21590909090908,90
60,98.0590909090909,90
60,98.37954545454545,90
60,98.80454545454545,90
60,99.24318181818181,90
60,99.54090909090908,90
60,99.96818181818182,90
60,100.42727272727272,90
60,101.14090909090909,90
60,101.58863636363635,90
60,101.89772727272727,90
60,102.33636363636363,90
60,102.75227272727273,90
60,103.48863636363636,90
60,103.93636363636364,90
60,104.66136363636363,90
60,105.10909090909091,90
60,105.4090909090909,90
60,105.8340909090909,90
60,106.27272727272727,90
60,106.57045454545454,90
60,107.0090909090909,90
60,107.44545454545454,90
60,107.74318181818181,90
60,108.18181818181817,90
60,108.60909090909091,90
60,108.90681818181818,90
60,109.05681818181817,90
60,109.34318181818182,90
60,109.65227272727272,90
60,109.79090909090908,90
60,110.07954545454545,90
60,110.51818181818182,90
60,110.94318181818181,90
60,111.25227272727273,90
60,111.70227272727273,90
60,112.42727272727272,90
60,112.85227272727272,90
60,113.29090909090908,90
60,113.58863636363635,90
60,113.88863636363635,90
60,114.02727272727272,90
60,114.46363636363635,90
60,114.77272727272727,90
60,115.18863636363636,90
60,115.62727272727273,90
60,115.925,90
60,116.36363636363636,90
60,116.81136363636364,90
60,117.09772727272727,90
60,117.53636363636363,90
60,117.96363636363635,90
60,118.27272727272727,90
60,118.7090909090909,90
60,119.14772727272727,90
60,119.46590909090908,90
60,119.87272727272726,90
60,120.3090909090909,90
60,120.61818181818181,90
60,121.06590909090909,90
60,121.50454545454545,90
60,121.94090909090909,90
60,122.22954545454544,90
60,122.65681818181818,90
60,123.39090909090909,90
60,123.82954545454545,90
60,124.12727272727273,90
60,124.56590909090909,90
60,125.27045454545454,90
60,125.73863636363636,90
60,126.46363636363635,90
60,126.82727272727273,90
60,126.87045454545454,90
60,127.32727272727273,90
60,127.8090909090909,90
60,129.24772727272727,90
60,129.525,90
60,129.84545454545454,90
60,129.96363636363637,90
60,130.12272727272727,90
60,130.4318181818182,90
60,130.7090909090909,90
60,130.99772727272727,90
60,131.13636363636363,90
60,131.28636363636363,90
60,131.59545454545454,90
60,131.87272727272727,90
60,132.17045454545453,90
60,132.29772727272726,90
60,132.47045454545454,90
60,132.7681818181818,90
60,133.04545454545453,90
60,133.34318181818182,90
60,133.48181818181817,90
60,133.6431818181818,90
60,133.84545454545454,90
60,133.9409090909091,90
60,134.21818181818182,90
60,134.5181818181818,90
60,134.66590909090908,90
60,134.80454545454546,90
60,135.10454545454544,90
60,135.38181818181818,90
60,135.64772727272725,90
60,135.67954545454546,90
60,135.8181818181818,90
60,135.95681818181816,90
60,136.26590909090908,90
60,136.5431818181818,90
60,136.83181818181816,90
60,136.99090909090907,90
60,137.15227272727273,90
60,137.4409090909091,90
60,137.71818181818182,90
60,138.01590909090908,90
60,138.18636363636364,90
60,138.31363636363636,90
60,138.60227272727272,90
60,138.6340909090909,90
60,138.89090909090908,90
60,139.18863636363636,90
60,139.3272727272727,90
60,139.47727272727272,90
60,139.78636363636363,90
60,140.06363636363636,90
60,140.36363636363635,90
60,140.50227272727273,90
60,140.64090909090908,90
60,140.9272727272727,90
60,141.23636363636362,90
60,141.53636363636363,90
60,141.68636363636364,90
60,141.825,90
60,142.12272727272727,90
60,142.41136363636363,90
60,142.69772727272726,90
60,142.84772727272727,90
60,142.98636363636362,90
60,143.26363636363635,90
60,143.57272727272726,90
60,143.86136363636362,90
60,144.01136363636363,90
60,144.1590909090909,90
60,144.47045454545454,90
60,144.74772727272727,90
60,145.04545454545453,90
60,145.19545454545454,90
60,145.34318181818182,90
60,145.6431818181818,90
60,145.92045454545453,90
60,146.2090909090909,90
60,146.34772727272727,90
60,146.50681818181818,90
60,146.80454545454543,90
60,147.09318181818182,90
60,147.33863636363637,90
60,147.52954545454546,90
60,147.67954545454543,90
60,147.97954545454544,90
60,148.26590909090908,90
60,148.5659090909091,90
60,148.71363636363637,90
60,148.85227272727272,90
60,149.16363636363636,90
60,149.42954545454543,90
60,149.73863636363635,90
60,149.88863636363635,90
60,150.02727272727273,90
60,150.60227272727272,90
60,150.91136363636363,90
60,151.04090909090908,90
60,151.18863636363636,90
60,151.49772727272727,90
60,151.775,90
60,152.08636363636364,90
60,152.2340909090909,90
60,152.37272727272727,90
60,152.66136363636363,90
60,152.95,90
60,153.2590909090909,90
60,153.54772727272726,90
60,153.8340909090909,90
60,154.11136363636362,90
60,154.42045454545453,90
60,154.53863636363636,90
60,154.66590909090908,90
60,154.99772727272727,90
60,155.28636363636363,90
60,155.59545454545454,90
60,155.7340909090909,90
60,155.87272727272727,90
60,156.1818181818182,90
60,156.44772727272726,90
60,156.74772727272727,90
60,156.89545454545453,90
60,157.0340909090909,90
60,157.34318181818182,90
60,157.63181818181818,90
60,157.9409090909091,90
60,158.07045454545454,90
60,158.21818181818182,90
60,158.5181818181818,90
60,158.80454545454543,90
60,159.10454545454544,90
60,159.24318181818182,90
60,159.39090909090908,90
60,159.67954545454543,90
60,159.97954545454544,90
60,160.25681818181818,90
60,160.55454545454543,90
60,160.84318181818182,90
60,161.12954545454545,90
60,161.73863636363635,90
60,162.01590909090908,90
60,162.31363636363636,90
60,162.61363636363635,90
60,162.74090909090907,90
60,162.90227272727273,90
60,163.18863636363636,90
60,163.48863636363635,90
60,163.78636363636363,90
60,164.06363636363636,90
60,164.26590909090908,90
60,164.3409090909091,90
60,164.65,90
60,164.95,90
60,165.23636363636362,90
60,165.53636363636363,90
60,165.825,90
60,166.12272727272727,90
60,166.42045454545453,90
60,168.6818181818182,90
60,169.0568181818182,90
60,169.34318181818182,90
60,169.6431818181818,90
60,169.92045454545453,90
60,170.2090909090909,90
60,170.5181818181818,90
60,171.2431818181818,90
60,171.39090909090908,90
60,171.97954545454544,90
60,172.29772727272726,90
60,172.4590909090909,90
60,172.50227272727273,90
60,173.12045454545455,90
60,173.16363636363636,90
60,173.42954545454543,90
60,173.72727272727272,90
60,174.18636363636364,90
60,174.325,90
60,174.80454545454543,90
60,174.91136363636363,90
60,175.48863636363635,90
60,175.94772727272726,90
60,176.08636363636361,90
60,176.37272727272727,90
60,176.67272727272726,90
60,176.97045454545454,90
60,177.2590909090909,90
60,177.57954545454544,90
60,177.84545454545454,90
60,178.1431818181818,90
60,178.34772727272727,90
60,178.42045454545453,90
60,178.99772727272727,90
60,179.4340909090909,90
60,179.61590909090907,90
60,42.26136363636363,90
60,43.13636363636363,90
60,44.0,90
60,44.875,90
60,45.75,90
60,46.63409090909091,90
60,47.48863636363636,90
60,48.36363636363636,90
60,49.215909090909086,90
60,50.111363636363635,90
60,50.986363636363635,90
60,51.849999999999994,90
60,52.574999999999996,90
60,52.70454545454545,90
60,53.58863636363636,90
60,54.44318181818181,90
60,55.32727272727273,90
60,56.17045454545454,90
60,57.07727272727273,90
60,57.94090909090909,90
60,58.79545454545454,90
60,178.8159090909091,90
60,179.0090909090909,90
60,179.23181818181817,90
60,179.42499999999998,90
60,179.6590909090909,90
60,179.86136363636362,90
60,179.8931818181818,90
60,180.06363636363636,90
60,180.52272727272725,90
60,180.97045454545454,90
60,181.4181818181818,90
60,181.86590909090907,90
60,182.07045454545454,90
60,182.28181818181818,90
60,182.72045454545454,90
60,182.9340909090909,90
60,183.125,90
60,183.15681818181818,90
60,183.3590909090909,90
60,183.5840909090909,90
60,183.78636363636363,90
60,184.02045454545453,90
60,184.4590909090909,90
60,184.66136363636363,90
60,184.88636363636363,90
60,185.34318181818182,90
60,185.54772727272726,90
60,185.7590909090909,90
60,186.2090909090909,90
60,186.38863636363635,90
60,186.42045454545453,90
60,186.6340909090909,90
60,186.83636363636361,90
60,187.07272727272726,90
60,187.28636363636363,90
60,187.52045454545453,90
60,187.94772727272726,90
60,188.14999999999998,90
60,188.36363636363635,90
60,188.83181818181816,90
60,189.00227272727273,90
60,189.04545454545453,90
60,189.24772727272727,90
60,189.67499999999998,90
60,189.86590909090907,90
60,190.11136363636362,90
60,190.31363636363636,90
60,190.34772727272727,90
60,190.54999999999998,90
60,190.77272727272725,90
60,190.98636363636362,90
60,191.42499999999998,90
60,191.62727272727273,90
60,191.82954545454544,90
60,191.86136363636362,90
60,10.804545454545455,90
60,12.843181818181817,90
60,13.45,90
60,14.89090909090909,90
60,15.46590909090909,90
60,17.504545454545454,90
60,18.111363636363635,90
60,19.54090909090909,90
60,19.84090909090909,90
60,20.127272727272725,90
60,21.14090909090909,90
60,21.302272727272726,90
60,22.452272727272724,90
60,23.627272727272725,90
60,24.788636363636364,90
60,26.827272727272724,90
60,27.424999999999997,90
60,29.152272727272727,90
60,29.813636363636363,90
60,30.070454545454545,90
60,30.46363636363636,90
60,30.902272727272727,90
60,31.2,90
60,31.488636363636363,90
60,31.786363636363635,90
60,32.39545454545454,90
60,32.788636363636364,90
60,33.22727272727273,90
60,33.525,90
60,33.824999999999996,90
60,34.111363636363635,90
60,34.720454545454544,90
60,35.125,90
60,35.56363636363636,90
60,35.861363636363635,90
60,36.15,90
60,36.470454545454544,90
60,36.725,90
60,37.31136363636364,90
60,38.76363636363636,90
60,39.35909090909091,90
60,40.225,90
60,40.52272727272727,90
60,40.81136363636364,90
60,41.10909090909091,90
60,41.68636363636364,90
60,42.559090909090905,90
60,42.85909090909091,90
60,43.14772727272727,90
60,43.434090909090905,90
60,44.01136363636363,90
60,44.88636363636363,90
60,45.195454545454545,90
60,45.461363636363636,90
60,45.78181818181818,90
60,46.34772727272727,90
60,46.934090909090905,90
60,47.211363636363636,90
60,47.50909090909091,90
60,48.095454545454544,90
60,48.68181818181818,90
60,49.54772727272727,90
60,49.845454545454544,90
60,50.12272727272727,90
60,50.42045454545454,90
60,51.00909090909091,90
60,51.88181818181818,90
60,52.74772727272727,90
60,53.334090909090904,90
60,54.209090909090904,90
60,54.78409090909091,90
60,55.08181818181818,90
60,55.67045454545454,90
60,56.24545454545454,90
60,56.543181818181814,90
60,56.68181818181818,90
60,56.84318181818182,90
60,56.970454545454544,90
60,57.12045454545454,90
60,57.418181818181814,90
60,57.99545454545454,90
60,58.85909090909091,90
60,59.15681818181818,90
60,59.445454545454545,90
60,59.74318181818182,90
60,60.320454545454545,90
60,61.195454545454545,90
60,62.070454545454545,90
60,62.65681818181818,90
60,63.52954545454545,90
60,64.40454545454546,90
60,64.98181818181818,90
60,65.56818181818181,90
60,66.14318181818182,90
60,66.44318181818181,90
60,66.72954545454544,90
60,67.31818181818181,90
60,67.90454545454546,90
60,68.19090909090909,90
60,69.05681818181817,90
60,69.65227272727273,90
60,70.21818181818182,90
60,70.51818181818182,90
60,70.81590909090909,90
60,71.39090909090909,90
60,71.97954545454544,90
60,72.55454545454545,90
60,83.02954545454546,90
60,83.31818181818181,90
60,84.49090909090908,90
60,85.36590909090908,90
60,85.65227272727272,90
60,86.81590909090909,90
60,87.11363636363636,90
60,87.40227272727272,90
60,87.70227272727273,90
60,87.97954545454544,90
60,89.14090909090909,90
60,90.02727272727272,90
60,90.32499999999999,90
60,91.19999999999999,90
60,91.48863636363636,90
60,91.77499999999999,90
60,92.06363636363636,90
60,92.35227272727272,90
60,92.64999999999999,90
60,93.375,90
60,93.51363636363637,90
60,93.81363636363636,90
60,94.68863636363636,90
60,94.975,90
60,95.71136363636363,90
60,95.85,90
60,96.14999999999999,90
60,97.01363636363637,90
60,97.31136363636364,90
60,98.03636363636363,90
60,98.18636363636364,90
60,98.475,90
60,99.06136363636364,90
60,99.63636363636363,90
60,99.93636363636364,90
60,100.07499999999999,90
60,100.36363636363636,90
60,100.66136363636363,90
60,100.81136363636364,90
60,101.09772727272727,90
60,101.38636363636363,90
60,101.675,90
60,102.55,90
60,102.7090909090909,90
60,102.98636363636363,90
60,103.13636363636363,90
60,103.4340909090909,90
60,104.01136363636363,90
60,105.02499999999999,90
60,105.17272727272727,90
60,105.31136363636364,90
60,105.47272727272727,90
60,105.7590909090909,90
60,106.33636363636363,90
60,107.35909090909091,90
60,107.5090909090909,90
60,107.8090909090909,90
60,108.08636363636363,90
60,108.67272727272727,90
60,109.68636363636364,90
60,109.82499999999999,90
60,110.41136363636363,90
60,110.99772727272726,90
60,112.02045454545454,90
60,112.17045454545455,90
60,112.47045454545454,90
60,113.62045454545454,90
60,114.50681818181818,90
60,114.66590909090908,90
60,115.6590909090909,90
60,117.10909090909091,90
60,117.41818181818181,90
60,117.70681818181818,90
60,117.98409090909091,90
60,119.29545454545455,90
60,119.73409090909091,90
60,120.03181818181818,90
60,120.3090909090909,90
60,121.63181818181818,90
60,121.78181818181818,90
60,122.07045454545454,90
60,122.35681818181817,90
60,122.64545454545454,90
60,123.23181818181817,90
60,123.95681818181818,90
60,124.10681818181817,90
60,124.35227272727272,90
60,124.39545454545454,90
60,124.68181818181817,90
60,124.98181818181817,90
60,125.55681818181817,90
60,126.00454545454545,90
60,126.29318181818181,90
60,126.44318181818181,90
60,126.72954545454544,90
60,126.87954545454545,90
60,127.30681818181817,90
60,127.89318181818182,90
60,128.61818181818182,90
60,128.7681818181818,90
60,129.0568181818182,90
60,129.35454545454544,90
60,129.6431818181818,90
60,130.22954545454544,90
60,130.95454545454544,90
60,131.09318181818182,90
60,131.39090909090908,90
60,131.67954545454546,90
60,132.25681818181818,90
60,132.84318181818182,90
60,133.12954545454545,90
60,133.71818181818182,90
60,134.2931818181818,90
60,135.60454545454544,90
60,135.75454545454545,90
60,136.0431818181818,90
60,136.3409090909091,90
60,136.62954545454545,90
60,137.9409090909091,90
60,138.36818181818182,90
60,138.6772727272727,90
60,138.9659090909091,90
60,140.26590909090908,90
60,140.41590909090908,90
60,140.70454545454544,90
60,140.99090909090907,90
60,141.29090909090908,90
60,141.85681818181817,90
60,142.4431818181818,90
60,142.75227272727273,90
60,143.04999999999998,90
60,143.60454545454544,90
60,144.78863636363636,90
60,145.0772727272727,90
60,145.9522727272727,90
60,147.11363636363635,90
60,147.41363636363636,90
60,147.6909090909091,90
60,148.27727272727273,90
60,149.15227272727273,90
60,150.02727272727273,90
60,150.61363636363635,90
60,151.2,90
60,152.36363636363635,90
60,152.93863636363636,90
60,153.525,90
60,154.69772727272726,90
60,155.26363636363635,90
60,155.85,90
60,156.4272727272727,90
60,157.01363636363635,90
60,157.61136363636362,90
60,158.17499999999998,90
60,158.61363636363635,90
60,158.90227272727273,90
60,159.06136363636364,90
60,159.35,90
60,159.63636363636363,90
60,159.93636363636364,90
60,160.51136363636363,90
60,160.93863636363636,90
60,161.23636363636362,90
60,161.38636363636363,90
60,161.68636363636364,90
60,161.97272727272727,90
60,162.1431818181818,90
60,162.27272727272725,90
60,166.3681818181818,90
60,166.6340909090909,90
60,166.91136363636363,90
60,168.37272727272727,90
60,168.9590909090909,90
60,171.5840909090909,90
60,172.89545454545453,90
60,173.04545454545453,90
60,173.3340909090909,90
60,173.62045454545455,90
60,175.6590909090909,90
60,175.95681818181816,90
60,176.2340909090909,90
60,177.54772727272726,90
60,177.69545454545454,90
60,178.00454545454545,90
60,178.57045454545454,90
60,179.14772727272725,90
60,180.02045454545453,90
60,180.32045454545454,90
60,180.89545454545453,90
60,182.0590909090909,90
60,183.23181818181817,90
60,184.09545454545454,90
60,184.39545454545453,90
60,184.84318181818182,90
60,185.5568181818182,90
60,186.72954545454544,90
60,20.245454545454546,90
60,20.297727272727272,90
60,20.863636363636363,90
60,21.418181818181818,90
60,21.45,90
60,22.036363636363635,90
60,22.581818181818182,90
60,22.645454545454545,90
60,23.188636363636363,90
60,23.743181818181817,90
60,23.818181818181817,90
60,24.37272727272727,90
60,24.75681818181818,90
60,24.938636363636363,90
60,24.970454545454544,90
60,25.513636363636362,90
60,26.079545454545453,90
60,26.154545454545453,90
60,26.688636363636363,90
60,27.104545454545452,90
60,27.243181818181817,90
60,27.286363636363635,90
60,28.277272727272727,90
60,28.41590909090909,90
60,28.459090909090907,90
60,29.002272727272725,90
60,29.05681818181818,90
60,29.620454545454542,90
60,30.186363636363634,90
60,30.763636363636362,90
60,31.349999999999998,90
60,31.80909090909091,90
60,31.91363636363636,90
60,32.51136363636363,90
60,33.08863636363636,90
60,33.12045454545454,90
60,33.675,90
60,33.77045454545454,90
60,34.26136363636363,90
60,34.84772727272727,90
60,35.445454545454545,90
60,35.809090909090905,90
60,36.02045454545454,90
60,36.586363636363636,90
60,36.61818181818182,90
60,37.17272727272727,90
60,37.75,90
60,38.336363636363636,90
60,38.91136363636363,90
60,38.94318181818181,90
60,39.49772727272727,90
60,39.809090909090905,90
60,40.074999999999996,90
60,40.67272727272727,90
60,41.236363636363635,90
60,45.88863636363636,90
60,46.49545454545454,90
60,47.08181818181818,90
60,47.67045454545454,90
60,47.809090909090905,90
60,48.26590909090909,90
60,48.83181818181818,90
60,49.40909090909091,90
60,49.99545454545454,90
60,50.58181818181818,90
60,51.15681818181818,90
60,51.73409090909091,90
60,52.320454545454545,90
60,52.92727272727272,90
60,53.05681818181818,90
60,53.22727272727273,90
60,53.375,90
60,53.49318181818182,90
60,53.54772727272727,90
60,53.643181818181816,90
60,54.070454545454545,90
60,54.10227272727273,90
60,54.27272727272727,90
60,54.65681818181818,90
60,54.68863636363636,90
60,55.02954545454545,90
60,55.125,90
60,55.23181818181818,90
60,55.861363636363635,90
60,56.39545454545454,90
60,56.990909090909085,90
60,57.55681818181818,90
60,57.599999999999994,90
60,58.15454545454545,90
60,58.72954545454545,90
60,58.76363636363636,90
60,59.31818181818181,90
60,59.627272727272725,90
60,60.490909090909085,90
60,61.06590909090909,90
60,61.663636363636364,90
60,61.695454545454545,90
60,63.39090909090909,90
60,63.96818181818181,90
60,64.55454545454545,90
60,65.14090909090909,90
60,65.61136363636363,90
60,65.72727272727272,90
60,65.78181818181818,90
60,66.04772727272727,90
60,66.10227272727272,90
60,66.19772727272726,90
60,66.46363636363635,90
60,66.6340909090909,90
60,66.80454545454545,90
60,66.89090909090909,90
60,69.20454545454545,90
60,69.61136363636363,90
60,69.81363636363636,90
60,69.9090909090909,90
60,69.98409090909091,90
60,70.175,90
60,70.25,90
60,70.95454545454545,90
60,71.56363636363636,90
60,71.97954545454544,90
60,72.19090909090909,90
60,72.55454545454545,90
60,73.61136363636363,90
60,73.88863636363637,90
60,73.94090909090909,90
60,74.37954545454545,90
60,74.475,90
60,74.93409090909091,90
60,75.09318181818182,90
60,75.63636363636363,90
60,76.21363636363635,90
60,76.49090909090908,90
60,76.70454545454545,90
60,76.73636363636363,90
60,76.85227272727272,90
60,77.2159090909091,90
60,77.29090909090908,90
60,87.82954545454545,90
60,87.86136363636363,90
60,89.02499999999999,90
60,89.62045454545454,90
60,90.2090909090909,90
60,91.41363636363636,90
60,91.77499999999999,90
60,92.20227272727273,90
60,92.52272727272727,90
60,93.10909090909091,90
60,93.39772727272727,90
60,93.68636363636364,90
60,94.27272727272727,90
60,94.31363636363636,90
60,94.35681818181818,90
60,95.45681818181818,90
60,96.02045454545454,90
60,96.60909090909091,90
60,97.19545454545454,90
60,99.47727272727272,90
60,100.09545454545454,90
60,100.70454545454545,90
60,100.875,90
60,101.81363636363636,90
60,101.84545454545454,90
60,103.41363636363636,90
60,104.18181818181817,90
60,105.3340909090909,90
60,105.92045454545455,90
60,106.57045454545454,90
60,107.41363636363636,90
60,107.73409090909091,90
60,108.25681818181818,90
60,108.84318181818182,90
60,109.41818181818181,90
60,110.00454545454545,90
60,110.58181818181818,90
60,111.17954545454545,90
60,111.40227272727272,90
60,112.32954545454545,90
60,112.36363636363636,90
60,113.50454545454545,90
60,114.07954545454545,90
60,114.65681818181818,90
60,115.79772727272727,90
60,115.82954545454545,90
60,116.3090909090909,90
60,116.88636363636363,90
60,119.56363636363636,90
60,119.60454545454544,90
60,120.43636363636364,90
60,121.61136363636363,90
60,121.94090909090909,90
60,122.25,90
60,122.36818181818181,90
60,123.93636363636364,90
60,124.42727272727272,90
60,125.20454545454545,90
60,126.27272727272727,90
60,127.04090909090908,90
60,128.59772727272727,90
60,128.93863636363636,90
60,129.8022727272727,90
60,130.92272727272726,90
60,132.12727272727273,90
60,133.2590909090909,90
60,133.87727272727273,90
60,134.00454545454545,90
60,134.46363636363637,90
60,134.6772727272727,90
60,134.7840909090909,90
60,135.59545454545454,90
60,135.79772727272726,90
60,135.92499999999998,90
60,137.20454545454544,90
60,137.36590909090907,90
60,137.69545454545454,90
60,138.34772727272727,90
60,139.11363636363635,90
60,140.27727272727273,90
60,141.20454545454544,90
60,142.64545454545453,90
60,143.21136363636364,90
60,143.76590909090908,90
60,144.26590909090908,90
60,145.20454545454544,90
60,145.525,90
60,146.0909090909091,90
60,147.29545454545453,90
60,148.43636363636364,90
60,148.61818181818182,90
60,148.98181818181817,90
60,149.04545454545453,90
60,149.27045454545453,90
60,149.61136363636362,90
60,150.2090909090909,90
60,150.4522727272727,90
60,150.7840909090909,90
60,151.0090909090909,90
60,151.3590909090909,90
60,151.8409090909091,90
60,151.93636363636364,90
60,152.52272727272725,90
60,153.1090909090909,90
60,153.68636363636364,90
60,154.28181818181818,90
60,154.8590909090909,90
60,155.0090909090909,90
60,155.44545454545454,90
60,156.02045454545453,90
60,156.6090909090909,90
60,156.89545454545453,90
60,157.1840909090909,90
60,157.77045454545453,90
60,158.34772727272727,90
60,159.0090909090909,90
60,159.4659090909091,90
60,159.52045454545453,90
60,160.6931818181818,90
60,161.27045454545453,90
60,161.85681818181817,90
60,162.4431818181818,90
60,162.72045454545454,90
60,163.02954545454546,90
60,163.06136363636364,90
60,163.13636363636363,90
60,163.40227272727273,90
60,163.63636363636363,90
60,164.1818181818182,90
60,164.225,90
60,164.7681818181818,90
60,165.35454545454544,90
60,165.92954545454543,90
60,166.5181818181818,90
60,167.0090909090909,90
60,167.09318181818182,90
60,167.96818181818182,90
60,168.13863636363635,90
60,168.25681818181818,90
60,168.32954545454544,90
60,168.49090909090907,90
60,168.575,90
60,168.84318181818182,90
60,169.42954545454543,90
60,170.01590909090908,90
60,170.5909090909091,90
60,171.0090909090909,90
60,171.1681818181818,90
60,171.76590909090908,90
60,172.1909090909091,90
60,172.3409090909091,90
60,172.725,90
60,172.9272727272727,90
60,172.9590909090909,90
60,173.0568181818182,90
60,173.50454545454545,90
60,173.69545454545454,90
60,176.37272727272727,90
60,176.41590909090908,90
60,176.51136363636363,90
60,176.84318181818182,90
60,177.01363636363635,90
60,177.08863636363637,90
60,177.31136363636364,90
60,177.47272727272727,90
60,177.57954545454544,90
60,178.01590909090908,90
60,178.16590909090908,90
60,178.87954545454545,90
60,180.49090909090907,90
60,180.81136363636364,90
60,181.0659090909091,90
60,181.54772727272726,90
60,183.40227272727273,90
60,184.29772727272726,90
60,184.5659090909091,90
60,184.79999999999998,90
60,185.09772727272727,90
60,185.51363636363635,90
60,186.89090909090908,90
60,187.48863636363635,90
60,188.66136363636363,90
60,188.81136363636364,90
60,189.22727272727272,90
60,189.81363636363636,90
60,192.67272727272726,90
60,192.81136363636364,90
60,193.3022727272727,90
60,193.62045454545455,90
60,195.6590909090909,90
60,195.7340909090909,90
60,196.21363636363637,90
60,196.79999999999998,90
60,197.96363636363634,90
60,198.03636363636363,90
60,198.11136363636362,90
60,199.125,90
60,200.39545454545453,90
60,200.79999999999998,90
60,201.99545454545455,90
60,203.5522727272727,90
60,204.5431818181818,90
60,204.79999999999998,90
60,205.05681818181816,90
60,205.46136363636361,90
60,205.53636363636363,90
60,206.12272727272727,90
60,206.72954545454544,90
60,207.79772727272726,90
60,207.98863636363635,90
60,208.9590909090909,90
60,210.28181818181818,90
60,210.66590909090908,90
60,212.03181818181818,90
60,213.63181818181818,90
60,213.9522727272727,90
60,214.28181818181818,90
60,214.61363636363635,90
60,215.30681818181816,90
60,238.07954545454544,90
60,238.42045454545453,90
60,238.74090909090907,90
60,239.33863636363634,90
60,239.85,90
60,239.91363636363636,90
60,240.03181818181818,90
60,240.41590909090908,90
60,240.49090909090907,90
60,241.66363636363636,90
60,242.04772727272726,90
60,242.07954545454544,90
60,242.25,90
60,244.40454545454546,90
60,244.58636363636361,90
60,245.16363636363636,90
60,245.23636363636362,90
60,245.31136363636364,90
60,245.50454545454545,90
60,245.73863636363635,90
60,245.84545454545454,90
60,246.25,90
60,246.43181818181816,90
60,246.55909090909088,90
60,247.43409090909088,90
60,247.48863636363635,90
60,247.54090909090908,90
60,247.59545454545454,90
60,247.6909090909091,90
60,247.76590909090908,90
60,247.86136363636362,90
60,247.95681818181816,90
60,248.075,90
60,248.12727272727273,90
60,248.225,90
60,248.29772727272726,90
60,248.41590909090908,90
60,248.49090909090907,90
60,248.5659090909091,90
60,249.22727272727272,90
60,249.825,90
60,249.89772727272725,90
60,250.07045454545454,90
60,250.1431818181818,90
60,250.26136363636363,90
60,250.41136363636363,90
60,250.50681818181818,90
60,250.60227272727272,90
60,250.6772727272727,90
60,250.77272727272725,90
60,250.84772727272727,90
60,251.4022727272727,90
60,251.57272727272726,90
60,252.14999999999998,90
60,252.2022727272727,90
60,252.41590909090908,90
60,252.47045454545454,90
60,252.5431818181818,90
60,252.66136363636363,90
60,252.73636363636362,90
60,252.83181818181816,90
60,253.00227272727273,90
60,253.0772727272727,90
60,253.45,90
60,253.88863636363635,90
60,254.48636363636362,90
60,254.55909090909088,90
60,254.65681818181818,90
60,254.72954545454544,90
60,254.8272727272727,90
60,254.92272727272726,90
60,254.99772727272725,90
60,255.09318181818182,90
60,255.1681818181818,90
60,255.26363636363635,90
60,255.3590909090909,90
60,255.45681818181816,90
60,255.52954545454546,90
60,255.62727272727273,90
60,255.7022727272727,90
60,255.79772727272726,90
60,255.8931818181818,90
60,255.98863636363635,90
60,256.06363636363636,90
60,256.1590909090909,90
60,256.2568181818182,90
60,257.2590909090909,90
60,21.354545454545452,90
60,22.325,90
60,22.836363636363636,90
60,23.936363636363634,90
60,24.875,90
60,25.386363636363637,90
60,26.004545454545454,90
60,26.174999999999997,90
60,26.486363636363635,90
60,27.424999999999997,90
60,27.936363636363634,90
60,29.034090909090907,90
60,29.98409090909091,90
60,31.80909090909091,90
60,32.543181818181814,90
60,35.809090909090905,90
60,36.67272727272727,90
60,39.220454545454544,90
60,39.809090909090905,90
60,40.83181818181818,90
60,41.27954545454545,90
60,43.08181818181818,90
60,43.809090909090905,90
60,44.98181818181818,90
60,45.652272727272724,90
60,46.89090909090909,90
60,47.54090909090909,90
60,47.809090909090905,90
60,48.18181818181818,90
60,48.84318181818182,90
60,49.449999999999996,90
60,50.090909090909086,90
60,50.41136363636363,90
60,50.58181818181818,90
60,51.05,90
60,51.809090909090905,90
60,52.67272727272727,90
60,53.32272727272727,90
60,54.58181818181818,90
60,55.52045454545454,90
60,55.809090909090905,90
60,56.47954545454545,90
60,57.10909090909091,90
60,58.25,90
60,58.293181818181814,90
60,59.04090909090909,90
60,59.67045454545454,90
60,69.87727272727273,90
60,71.15681818181818,90
60,72.44772727272726,90
60,73.61136363636363,90
60,73.71818181818182,90
60,74.99772727272727,90
60,76.26590909090909,90
60,77.55681818181817,90
60,79.45681818181818,90
60,80.09545454545454,90
60,80.41590909090908,90
60,80.73636363636363,90
60,81.05681818181817,90
60,81.375,90
60,81.61136363636363,90
60,81.69545454545454,90
60,82.01590909090909,90
60,82.33636363636363,90
60,82.65681818181818,90
60,82.9659090909091,90
60,83.29545454545455,90
60,83.60454545454544,90
60,83.925,90
60,84.25681818181818,90
60,84.56590909090909,90
60,84.88636363636363,90
60,85.20454545454545,90
60,85.52499999999999,90
60,85.84545454545454,90
60,86.16590909090908,90
60,86.475,90
60,86.80454545454545,90
60,87.11363636363636,90
60,87.4340909090909,90
60,87.75454545454545,90
60,88.07499999999999,90
60,88.39545454545454,90
60,88.71363636363635,90
60,90.29318181818181,90
60,90.625,90
60,90.94318181818181,90
60,91.26363636363637,90
60,91.41363636363636,90
60,91.5840909090909,90
60,91.90454545454546,90
60,92.225,90
60,92.54318181818181,90
60,92.85227272727272,90
60,93.1840909090909,90
60,93.50454545454545,90
60,93.81363636363636,90
60,94.1340909090909,90
60,94.33636363636363,90
60,94.45227272727273,90
60,94.7840909090909,90
60,95.09318181818182,90
60,95.40227272727272,90
60,95.73409090909091,90
60,96.05227272727272,90
60,96.37272727272727,90
60,96.54318181818181,90
60,96.69318181818181,90
60,97.00227272727273,90
60,97.3340909090909,90
60,97.64318181818182,90
60,97.97272727272727,90
60,98.28181818181818,90
60,98.60227272727272,90
60,98.94318181818181,90
60,99.24318181818181,90
60,99.40227272727272,90
60,99.57272727272726,90
60,99.87272727272727,90
60,100.50227272727273,90
60,120.93863636363636,90
60,121.20454545454545,90
60,122.33636363636363,90
60,125.20454545454545,90
60,129.20454545454544,90
60,133.70681818181816,90
60,134.03636363636363,90
60,135.0090909090909,90
60,135.3272727272727,90
60,137.20454545454544,90
60,138.975,90
60,141.0772727272727,90
60,141.2159090909091,90
60,142.03636363636363,90
60,149.01363636363635,90
60,150.31363636363636,90
60,151.0090909090909,90
60,155.0090909090909,90
60,155.7340909090909,90
60,158.27272727272725,90
60,159.0090909090909,90
60,160.83181818181816,90
60,163.0090909090909,90
60,163.38181818181818,90
60,165.9409090909091,90
60,167.0090909090909,90
60,168.49090909090907,90
60,171.0181818181818,90
60,175.0090909090909,90
60,175.8409090909091,90
60,178.8272727272727,90
60,179.59545454545454,90
60,179.78636363636363,90
60,180.075,90
60,180.29772727272726,90
60,180.79999999999998,90
60,180.99090909090907,90
60,181.78181818181818,90
60,183.04999999999998,90
60,183.52954545454546,90
60,183.8090909090909,90
60,184.81136363636364,90
60,184.875,90
60,185.4409090909091,90
60,185.61136363636362,90
60,185.825,90
60,185.9840909090909,90
60,186.07954545454544,90
60,186.15454545454546,90
60,186.2931818181818,90
60,186.39999999999998,90
60,186.74090909090907,90
60,187.06136363636364,90
60,187.87272727272727,90
60,188.81136363636364,90
60,190.0909090909091,90
60,190.54999999999998,90
60,191.18863636363636,90
60,191.8409090909091,90
60,192.5659090909091,90
60,192.81136363636364,90
60,192.85227272727272,90
60,193.0340909090909,90
60,193.1090909090909,90
60,193.77045454545453,90
60,194.0590909090909,90
60,194.57045454545454,90
60,194.6340909090909,90
60,194.975,90
60,25.663636363636364,90
60,55.39090909090909,90
60,69.05681818181817,90
60,70.21818181818182,90
60,70.33636363636363,90
60,70.64545454545454,90
60,71.60454545454544,90
60,72.76818181818182,90
60,72.88636363636363,90
60,73.19545454545454,90
60,74.15454545454546,90
60,75.32727272727273,90
60,75.44545454545454,90
60,75.75454545454545,90
60,76.71363636363635,90
60,77.87727272727273,90
60,77.99545454545454,90
60,78.30454545454545,90
60,79.26363636363637,90
60,80.42727272727272,90
60,80.54318181818181,90
60,80.85227272727272,90
60,81.81363636363636,90
60,82.98636363636363,90
60,83.10454545454544,90
60,83.41363636363636,90
60,84.37272727272727,90
60,85.32272727272726,90
60,86.92272727272727,90
60,88.09545454545454,90
60,88.20227272727273,90
60,88.52272727272727,90
60,89.47272727272727,90
60,90.75227272727273,90
60,91.07272727272726,90
60,92.02045454545454,90
60,93.1840909090909,90
60,93.31136363636364,90
60,93.62045454545454,90
60,94.58181818181818,90
60,95.86136363636363,90
60,97.12954545454545,90
60,98.30454545454545,90
60,98.42045454545455,90
60,98.72954545454544,90
60,99.69090909090909,90
60,100.85227272727272,90
60,100.97045454545454,90
60,101.27954545454546,90
60,102.24090909090908,90
60,103.41363636363636,90
60,103.52045454545454,90
60,103.84090909090908,90
60,104.78863636363636,90
60,105.96363636363635,90
60,106.07045454545454,90
60,106.38863636363637,90
60,107.35,90
60,108.51136363636363,90
60,108.62954545454545,90
60,108.93863636363636,90
60,120.10681818181817,90
60,121.38636363636363,90
60,122.65681818181818,90
60,123.93636363636364,90
60,125.21590909090908,90
60,125.85681818181817,90
60,126.49545454545454,90
60,127.76590909090909,90
60,128.93863636363636,90
60,129.04545454545453,90
60,129.36590909090907,90
60,130.325,90
60,131.48863636363635,90
60,131.60454545454544,90
60,131.91363636363636,90
60,132.875,90
60,134.03636363636363,90
60,134.15454545454546,90
60,134.475,90
60,135.42499999999998,90
60,136.06363636363636,90
60,136.70454545454544,90
60,137.65227272727273,90
60,137.9840909090909,90
60,139.14772727272725,90
60,139.26363636363635,90
60,139.57272727272726,90
60,140.5340909090909,90
60,141.69545454545454,90
60,141.81363636363636,90
60,142.12272727272727,90
60,143.08181818181816,90
60,144.24545454545455,90
60,144.36363636363635,90
60,144.6818181818182,90
60,145.63181818181818,90
60,146.27272727272725,90
60,146.91136363636363,90
60,147.5522727272727,90
60,148.1909090909091,90
60,149.15227272727273,90
60,149.78181818181818,90
60,150.42045454545453,90
60,150.74090909090907,90
60,151.38181818181818,90
60,153.29090909090908,90
60,154.46363636363637,90
60,154.57045454545454,90
60,154.89090909090908,90
60,155.8409090909091,90
60,157.01363636363635,90
60,157.12045454545455,90
60,157.4409090909091,90
60,158.38863636363635,90
60,159.57272727272726,90
60,159.67045454545453,90
60,159.98863636363635,90
60,160.95,90
60,162.12272727272727,90
60,162.22954545454544,90
60,162.54999999999998,90
60,163.49772727272727,90
60,164.67272727272726,90
60,164.77954545454546,90
60,165.09772727272727,90
60,166.0590909090909,90
60,167.22045454545454,90
60,167.33863636363637,90
60,167.64772727272725,90
60,168.6090909090909,90
60,169.79090909090908,90
60,169.88863636363635,90
60,170.19772727272726,90
60,171.15681818181818,90
60,172.32954545454544,90
60,172.43636363636364,90
60,172.75681818181818,90
60,197.63181818181818,90
60,198.5909090909091,90
60,199.23181818181817,90
60,200.40454545454546,90
60,200.51136363636363,90
60,200.83181818181816,90
60,201.78181818181818,90
60,202.95454545454544,90
60,203.06136363636364,90
60,203.38181818181818,90
60,204.32954545454544,90
60,205.50454545454545,90
60,205.62045454545455,90
60,205.92954545454543,90
60,206.89090909090908,90
60,208.0522727272727,90
60,208.17045454545453,90
60,208.47954545454544,90
60,20.320454545454545,90
60,22.645454545454545,90
60,25.025,90
60,29.718181818181815,90
60,30.59090909090909,90
60,31.188636363636363,90
60,31.76590909090909,90
60,32.074999999999996,90
60,32.93863636363636,90
60,33.39772727272727,90
60,33.525,90
60,33.80227272727272,90
60,33.98409090909091,90
60,34.25,90
60,34.42045454545455,90
60,35.28636363636363,90
60,35.88181818181818,90
60,36.32954545454545,90
60,36.45909090909091,90
60,36.779545454545456,90
60,37.643181818181816,90
60,38.20909090909091,90
60,38.518181818181816,90
60,38.81590909090909,90
60,39.11363636363636,90
60,39.98863636363636,90
60,40.15909090909091,90
60,40.574999999999996,90
60,41.163636363636364,90
60,41.48181818181818,90
60,41.94090909090909,90
60,42.04772727272727,90
60,42.34772727272727,90
60,42.527272727272724,90
60,42.92272727272727,90
60,43.402272727272724,90
60,43.70227272727273,90
60,43.809090909090905,90
60,44.288636363636364,90
60,44.586363636363636,90
60,44.69318181818181,90
60,44.88636363636363,90
60,45.27045454545454,90
60,45.86590909090909,90
60,46.15454545454545,90
60,47.05,90
60,47.52954545454545,90
60,47.627272727272725,90
60,47.93636363636364,90
60,48.10681818181818,90
60,48.224999999999994,90
60,48.39545454545454,90
60,48.51136363636363,90
60,49.40909090909091,90
60,50.00454545454545,90
60,50.58181818181818,90
60,50.902272727272724,90
60,51.76590909090909,90
60,52.35227272727273,90
60,52.64090909090909,90
60,52.81136363636363,90
60,53.07727272727273,90
60,53.236363636363635,90
60,54.111363636363635,90
60,54.69772727272727,90
60,55.15681818181818,90
60,55.28636363636363,90
60,55.60454545454545,90
60,55.809090909090905,90
60,56.470454545454544,90
60,56.92727272727272,90
60,57.04545454545454,90
60,57.34318181818182,90
60,57.643181818181816,90
60,57.929545454545455,90
60,58.81590909090909,90
60,59.00909090909091,90
60,59.402272727272724,90
60,60.0,90
60,60.288636363636364,90
60,61.17272727272727,90
60,61.652272727272724,90
60,61.77045454545454,90
60,62.04772727272727,90
60,62.34772727272727,90
60,62.506818181818176,90
60,62.63409090909091,90
60,63.52954545454545,90
60,64.10681818181818,90
60,64.575,90
60,64.98181818181818,90
60,65.87727272727273,90
60,66.33636363636363,90
60,66.5909090909091,90
60,66.72954545454544,90
60,67.05,90
60,67.23181818181818,90
60,67.35909090909091,90
60,67.80909090909091,90
60,68.23409090909091,90
60,68.81136363636364,90
60,69.4090909090909,90
60,69.70681818181818,90
60,70.58181818181818,90
60,70.75227272727273,90
60,71.16818181818182,90
60,71.76590909090909,90
60,72.04318181818182,90
60,72.50227272727273,90
60,72.93863636363636,90
60,73.53636363636363,90
60,73.79090909090908,90
60,74.12272727272727,90
60,75.13636363636363,90
60,75.29545454545455,90
60,75.87272727272727,90
60,76.19090909090909,90
60,76.47954545454544,90
60,76.78863636363636,90
60,77.64318181818182,90
60,77.825,90
60,78.24090909090908,90
60,78.51818181818182,90
60,78.83636363636363,90
60,80.0,90
60,80.17045454545455,90
60,80.58636363636363,90
60,81.17272727272727,90
60,81.46136363636363,90
60,82.34772727272727,90
60,82.91136363636363,90
60,83.23181818181818,90
60,83.69090909090909,90
60,85.71818181818182,90
60,104.69318181818181,90
60,107.41363636363636,90
60,108.05227272727272,90
60,109.69545454545454,90
60,111.41363636363636,90
60,112.06363636363636,90
60,114.42045454545455,90
60,118.42045454545455,90
60,119.98863636363636,90
60,120.57499999999999,90
60,121.16363636363636,90
60,121.47272727272727,90
60,122.34772727272727,90
60,122.79545454545453,90
60,122.9340909090909,90
60,123.39090909090909,90
60,124.69318181818181,90
60,125.29090909090908,90
60,125.75,90
60,125.87727272727273,90
60,126.19772727272726,90
60,127.05,90
60,127.52045454545454,90
60,127.63636363636363,90
60,127.93636363636362,90
60,128.2340909090909,90
60,128.52272727272728,90
60,129.39772727272728,90
60,129.99545454545455,90
60,130.57045454545454,90
60,130.87954545454545,90
60,131.3272727272727,90
60,131.75454545454545,90
60,132.35227272727272,90
60,132.81136363636364,90
60,132.9272727272727,90
60,134.11136363636362,90
60,134.38863636363635,90
60,134.69772727272726,90
60,135.1681818181818,90
60,135.29545454545453,90
60,135.57272727272726,90
60,135.60454545454544,90
60,136.17045454545453,90
60,136.4590909090909,90
60,136.93863636363636,90
60,137.0568181818182,90
60,137.34318181818182,90
60,137.6431818181818,90
60,137.9409090909091,90
60,138.8159090909091,90
60,139.40227272727273,90
60,139.7022727272727,90
60,139.98863636363635,90
60,140.29772727272726,90
60,140.88636363636363,90
60,141.16363636363636,90
60,141.2159090909091,90
60,141.4409090909091,90
60,141.63181818181818,90
60,141.75,90
60,142.21818181818182,90
60,142.64545454545453,90
60,143.52045454545453,90
60,144.10681818181817,90
60,144.5659090909091,90
60,144.6818181818182,90
60,144.97045454545454,90
60,145.2159090909091,90
60,145.87727272727273,90
60,146.34772727272727,90
60,146.475,90
60,146.74090909090907,90
60,146.77272727272725,90
60,147.06136363636364,90
60,147.3272727272727,90
60,148.225,90
60,148.5431818181818,90
60,148.81136363636364,90
60,149.1090909090909,90
60,149.39772727272725,90
60,149.6431818181818,90
60,149.67499999999998,90
60,149.71818181818182,90
60,150.26136363636363,90
60,150.57045454545454,90
60,150.83636363636364,90
60,151.15681818181818,90
60,151.4340909090909,90
60,151.75454545454545,90
60,152.03181818181818,90
60,152.9272727272727,90
60,153.51363636363635,90
60,153.9840909090909,90
60,154.07954545454544,90
60,154.11136363636362,90
60,154.27272727272725,90
60,154.4,90
60,155.28636363636363,90
60,155.56363636363636,90
60,155.86136363636362,90
60,156.0,90
60,156.32045454545454,90
60,156.4590909090909,90
60,170.84772727272727,90
60,174.98636363636362,90
60,175.2,90
60,175.25227272727273,90
60,175.29545454545453,90
60,175.37045454545455,90
60,175.42499999999998,90
60,175.47727272727272,90
60,175.5840909090909,90
60,176.4590909090909,90
60,176.725,90
60,177.04545454545453,90
60,177.6431818181818,90
60,177.92045454545453,90
60,178.8159090909091,90
60,179.38181818181818,90
60,179.41363636363636,90
60,179.71136363636361,90
60,179.76590909090908,90
60,179.97954545454544,90
60,180.27727272727273,90
60,180.81136363636364,90
60,181.15227272727273,90
60,181.73863636363635,90
60,182.2090909090909,90
60,182.34772727272727,90
60,182.64545454545453,90
60,183.52045454545453,90
60,183.6909090909091,90
60,183.91363636363636,90
60,184.10681818181817,90
60,184.70454545454544,90
60,188.27727272727273,90
60,30.59090909090909,90
60,30.902272727272727,90
60,31.488636363636363,90
60,32.39545454545454,90
60,33.30227272727272,90
60,33.89772727272727,90
60,34.79545454545455,90
60,35.70227272727273,90
60,36.29772727272727,90
60,37.195454545454545,90
60,38.10227272727273,90
60,38.154545454545456,90
60,38.69772727272727,90
60,39.904545454545456,90
60,41.12045454545454,90
60,42.324999999999996,90
60,43.55227272727272,90
60,50.720454545454544,90
60,51.81818181818181,90
60,52.574999999999996,90
60,53.14090909090909,90
60,54.01590909090909,90
60,55.81818181818181,90
60,57.929545454545455,90
60,60.71363636363636,90
60,63.627272727272725,90
60,65.12954545454545,90
60,66.50681818181818,90
60,66.7090909090909,90
60,67.54090909090908,90
60,69.61136363636363,90
60,72.32954545454545,90
60,74.74090909090908,90
60,75.15681818181818,90
60,75.62727272727273,90
60,77.61136363636363,90
60,79.54090909090908,90
60,81.61136363636363,90
60,81.96363636363635,90
60,83.02954545454546,90
60,83.14772727272727,90
60,84.35227272727272,90
60,85.50454545454545,90
60,85.55681818181817,90
60,86.75227272727273,90
60,89.15227272727272,90
60,90.36818181818181,90
60,91.55227272727272,90
60,96.37272727272727,90
60,96.82045454545454,90
60,99.22045454545454,90
60,102.11136363636363,90
60,103.41363636363636,90
60,105.97272727272727,90
60,111.41363636363636,90
60,111.47727272727272,90
60,111.52954545454546,90
60,111.56363636363636,90
60,111.81818181818181,90
60,111.85,90
60,111.93636363636364,90
60,112.02045454545454,90
60,112.19090909090909,90
60,112.3090909090909,90
60,117.98409090909091,90
60,121.29090909090908,90
60,125.21590909090908,90
60,126.10227272727272,90
60,127.14772727272727,90
60,127.61590909090908,90
60,130.90227272727273,90
60,133.2159090909091,90
60,133.3022727272727,90
60,135.7022727272727,90
60,146.8159090909091,90
60,149.2590909090909,90
60,150.03636363636363,90
60,150.4431818181818,90
60,151.0090909090909,90
60,152.85227272727272,90
60,155.23181818181817,90
60,156.4272727272727,90
60,158.01590909090908,90
60,159.0090909090909,90
60,160.5659090909091,90
60,160.6931818181818,90
60,163.0090909090909,90
60,163.6909090909091,90
60,35.58409090909091,90
60,35.61590909090909,90
60,36.19090909090909,90
60,36.779545454545456,90
60,37.34318181818182,90
60,37.929545454545455,90
60,38.518181818181816,90
60,39.10454545454545,90
60,39.69090909090909,90
60,39.98863636363636,90
60,40.26590909090909,90
60,40.86363636363636,90
60,41.418181818181814,90
60,41.449999999999996,90
60,42.00454545454545,90
60,42.04772727272727,90
60,42.304545454545455,90
60,42.336363636363636,90
60,42.625,90
60,43.199999999999996,90
60,43.79772727272727,90
60,44.37272727272727,90
60,44.93863636363636,90
60,45.53636363636363,90
60,46.10227272727273,90
60,46.143181818181816,90
60,46.72954545454545,90
60,47.00909090909091,90
60,47.28636363636363,90
60,47.88181818181818,90
60,48.15,90
60,48.19090909090909,90
60,48.44772727272727,90
60,48.47954545454545,90
60,49.05681818181818,90
60,49.334090909090904,90
60,49.365909090909085,90
60,49.643181818181816,90
60,50.22954545454545,90
60,50.81590909090909,90
60,51.402272727272724,90
60,51.98863636363636,90
60,52.574999999999996,90
60,53.152272727272724,90
60,53.75,90
60,54.027272727272724,90
60,54.34772727272727,90
60,54.92272727272727,90
60,55.50909090909091,90
60,56.095454545454544,90
60,56.67272727272727,90
60,57.24772727272727,90
60,57.834090909090904,90
60,58.42045454545454,90
60,58.709090909090904,90
60,59.00909090909091,90
60,59.595454545454544,90
60,60.17045454545454,90
60,60.74772727272727,90
60,61.03409090909091,90
60,61.334090909090904,90
60,61.897727272727266,90
60,61.929545454545455,90
60,62.527272727272724,90
60,63.08181818181818,90
60,63.67045454545454,90
60,63.70227272727272,90
60,64.27727272727273,90
60,64.85227272727272,90
60,64.88636363636364,90
60,65.4090909090909,90
60,65.46136363636363,90
60,65.71818181818182,90
60,66.00454545454545,90
60,66.61363636363636,90
60,67.05,90
60,67.16818181818182,90
60,67.21136363636363,90
60,67.77499999999999,90
60,68.36363636363636,90
60,68.9590909090909,90
60,69.52499999999999,90
60,70.12272727272727,90
60,70.72045454545454,90
60,71.31818181818181,90
60,71.90454545454546,90
60,73.06590909090909,90
60,73.65227272727272,90
60,73.92045454545455,90
60,74.22954545454544,90
60,74.81590909090909,90
60,75.39090909090909,90
60,75.98863636363636,90
60,76.26590909090909,90
60,77.15227272727272,90
60,77.71818181818182,90
60,78.31363636363636,90
60,78.60227272727272,90
60,79.48863636363636,90
60,80.06363636363636,90
60,80.66136363636363,90
60,81.24772727272727,90
60,81.42954545454545,90
60,81.8340909090909,90
60,82.11136363636363,90
60,82.42045454545455,90
60,83.29545454545455,90
60,83.5840909090909,90
60,84.18181818181817,90
60,84.74772727272727,90
60,85.34318181818182,90
60,85.61136363636363,90
60,87.08181818181818,90
60,87.69090909090909,90
60,87.96818181818182,90
60,88.27727272727272,90
60,88.86363636363636,90
60,89.12954545454545,90
60,90.01590909090909,90
60,90.61363636363636,90
60,91.19999999999999,90
60,91.78636363636363,90
60,92.37272727272727,90
60,92.94999999999999,90
60,93.54772727272727,90
60,94.11136363636363,90
60,94.68863636363636,90
60,95.29545454545455,90
60,95.88181818181818,90
60,96.4590909090909,90
60,97.04545454545455,90
60,97.63181818181818,90
60,98.22954545454544,90
60,98.79545454545455,90
60,99.40227272727272,90
60,99.97954545454544,90
60,100.58636363636363,90
60,101.15227272727272,90
60,101.75,90
60,102.31363636363636,90
60,102.89090909090909,90
60,103.48863636363636,90
60,104.08636363636363,90
60,104.66136363636363,90
60,105.24772727272726,90
60,105.8340909090909,90
60,106.42045454545455,90
60,106.99772727272726,90
60,107.59545454545454,90
60,108.18181818181817,90
60,108.76818181818182,90
60,109.3340909090909,90
60,109.63181818181818,90
60,109.92954545454545,90
60,110.2090909090909,90
60,110.50681818181818,90
60,111.09318181818182,90
60,111.69090909090909,90
60,112.27727272727272,90
60,112.84318181818182,90
60,113.44999999999999,90
60,114.01590909090909,90
60,114.60227272727272,90
60,115.18863636363636,90
60,115.78636363636363,90
60,116.34090909090908,90
60,116.9590909090909,90
60,117.53636363636363,90
60,118.12272727272726,90
60,118.7090909090909,90
60,119.29545454545455,90
60,119.87272727272726,90
60,120.47045454545454,90
60,121.05681818181817,90
60,121.63181818181818,90
60,122.22954545454544,90
60,122.82727272727273,90
60,123.38181818181818,90
60,123.97954545454544,90
60,124.55454545454545,90
60,125.15227272727272,90
60,125.66363636363636,90
60,125.72727272727272,90
60,126.03636363636363,90
60,126.31363636363636,90
60,126.60227272727272,90
60,126.80454545454545,90
60,129.24772727272727,90
60,129.86590909090907,90
60,130.42045454545453,90
60,130.99772727272727,90
60,131.52954545454546,90
60,131.5840909090909,90
60,132.17045454545453,90
60,132.75681818181818,90
60,133.3340909090909,90
60,133.5568181818182,90
60,133.63181818181818,90
60,133.87727272727273,90
60,133.92954545454546,90
60,134.5181818181818,90
60,135.10454545454544,90
60,135.67954545454546,90
60,135.96818181818182,90
60,136.28863636363636,90
60,136.86363636363635,90
60,137.2159090909091,90
60,137.4409090909091,90
60,138.02727272727273,90
60,138.60227272727272,90
60,139.22045454545454,90
60,140.37272727272727,90
60,140.89545454545453,90
60,140.95,90
60,141.53636363636363,90
60,142.1340909090909,90
60,142.7090909090909,90
60,143.275,90
60,143.8931818181818,90
60,144.47045454545454,90
60,145.0568181818182,90
60,145.2159090909091,90
60,145.63181818181818,90
60,146.1431818181818,90
60,146.22954545454544,90
60,146.80454545454543,90
60,147.39090909090908,90
60,147.63636363636363,90
60,147.6909090909091,90
60,147.93636363636364,90
60,148.0,90
60,148.5659090909091,90
60,149.14090909090908,90
60,149.73863636363635,90
60,150.00454545454545,90
60,150.26136363636363,90
60,150.89090909090908,90
60,151.48863636363635,90
60,152.03181818181818,90
60,152.075,90
60,152.36363636363635,90
60,152.67272727272726,90
60,153.23636363636362,90
60,153.825,90
60,154.42045454545453,90
60,154.69772727272726,90
60,155.0090909090909,90
60,155.59545454545454,90
60,156.17045454545453,90
60,156.75681818181818,90
60,157.34318181818182,90
60,157.92045454545453,90
60,158.475,90
60,158.52727272727273,90
60,159.09318181818182,90
60,159.40227272727273,90
60,159.67045454545453,90
60,160.26590909090908,90
60,160.84318181818182,90
60,161.42954545454543,90
60,162.00454545454545,90
60,162.89090909090908,90
60,162.9340909090909,90
60,163.2,90
60,163.775,90
60,164.06363636363636,90
60,164.35227272727272,90
60,164.9590909090909,90
60,165.48181818181817,90
60,165.54772727272726,90
60,166.12272727272727,90
60,166.65681818181818,90
60,166.72045454545454,90
60,169.0340909090909,90
60,170.24090909090907,90
60,178.4318181818182,90
60,179.0090909090909,90
60,179.44545454545454,90
60,179.71136363636361,90
60,42.304545454545455,90
60,44.043181818181814,90
60,45.78181818181818,90
60,47.50909090909091,90
60,49.27045454545454,90
60,50.99772727272727,90
60,54.26136363636363,90
60,54.474999999999994,90
60,56.224999999999994,90
60,57.95227272727272,90
60,59.69090909090909,90
60,61.35454545454545,90
60,63.168181818181814,90
60,64.91818181818182,90
60,66.64545454545454,90
60,69.2590909090909,90
60,71.87272727272727,90
60,75.35,90
60,80.55454545454545,90
60,81.61136363636363,90
60,84.03181818181818,90
60,87.52045454545454,90
60,90.98636363636363,90
60,91.41363636363636,90
60,94.46363636363635,90
60,96.20227272727273,90
60,97.94090909090909,90
60,99.67954545454545,90
60,101.42954545454545,90
60,103.15681818181818,90
60,104.89545454545454,90
60,106.64545454545454,90
60,108.37272727272726,90
60,110.12272727272726,90
60,111.86136363636363,90
60,113.6,90
60,115.33863636363635,90
60,116.42727272727272,90
60,117.07727272727273,90
60,118.81590909090909,90
60,120.56590909090909,90
60,122.29318181818181,90
60,124.04318181818181,90
60,125.20454545454545,90
60,125.77045454545454,90
60,127.52045454545454,90
60,129.04545454545453,90
60,129.2590909090909,90
60,130.98636363636362,90
60,131.86136363636362,90
60,132.73636363636362,90
60,133.6,90
60,134.475,90
60,135.33863636363637,90
60,136.21363636363637,90
60,137.9522727272727,90
60,138.38863636363635,90
60,139.6909090909091,90
60,140.12727272727273,90
60,140.5659090909091,90
60,141.00227272727273,90
60,141.42954545454546,90
60,141.86590909090907,90
60,142.30454545454546,90
60,142.72954545454544,90
60,143.1681818181818,90
60,143.60454545454544,90
60,144.0431818181818,90
60,144.47954545454544,90
60,144.90681818181818,90
60,145.34318181818182,90
60,145.78181818181818,90
60,146.21818181818182,90
60,146.64545454545453,90
60,147.08181818181816,90
60,147.52045454545453,90
60,147.95681818181816,90
60,148.3840909090909,90
60,148.82045454545454,90
60,149.2590909090909,90
60,149.68636363636364,90
60,150.15454545454546,90
60,150.57045454545454,90
60,151.0090909090909,90
60,151.44545454545454,90
60,151.87272727272727,90
60,152.74772727272727,90
60,153.17272727272726,90
60,153.61136363636362,90
60,154.03636363636363,90
60,154.475,90
60,154.91136363636363,90
60,155.33863636363637,90
60,155.775,90
60,156.21363636363637,90
60,156.65,90
60,157.09772727272727,90
60,157.525,90
60,157.96363636363637,90
60,158.4,90
60,158.8272727272727,90
60,159.6909090909091,90
60,160.12727272727273,90
60,160.5659090909091,90
60,160.99090909090907,90
60,161.42954545454543,90
60,161.86590909090907,90
60,162.30454545454543,90
60,162.75227272727273,90
60,163.1681818181818,90
60,163.60454545454544,90
60,164.0431818181818,90
60,167.0090909090909,90
60,177.9522727272727,90
60,181.42954545454543,90
60,183.1681818181818,90
60,184.81136363636364,90
60,184.9181818181818,90
60,186.64545454545453,90
60,188.3840909090909,90
60,190.12272727272727,90
60,0.7795454545454545,90
60,2.0704545454545453,90
60,3.3386363636363634,90
60,4.6090909090909085,90
60,5.877272727272727,90
60,7.168181818181818,90
60,8.436363636363636,90
60,9.706818181818182,90
60,10.986363636363636,90
60,12.26590909090909,90
60,13.547727272727272,90
60,14.827272727272726,90
60,16.095454545454544,90
60,17.375,90
60,18.65681818181818,90
60,19.925,90
60,21.195454545454545,90
60,22.474999999999998,90
60,23.754545454545454,90
60,25.034090909090907,90
60,26.313636363636363,90
60,27.584090909090907,90
60,28.863636363636363,90
60,120.10681818181817,90
60,120.4590909090909,90
60,120.60909090909091,90
60,120.77954545454544,90
60,120.93863636363636,90
60,121.06590909090909,90
60,121.2590909090909,90
60,121.38636363636363,90
60,121.56818181818181,90
60,121.69545454545454,90
60,121.88863636363635,90
60,122.04772727272727,90
60,122.2090909090909,90
60,122.33636363636363,90
60,122.51818181818182,90
60,122.66590909090908,90
60,122.83636363636363,90
60,122.96590909090908,90
60,123.15681818181818,90
60,123.30681818181817,90
60,123.47727272727272,90
60,123.60454545454544,90
60,123.79772727272727,90
60,123.94772727272726,90
60,124.12727272727273,90
60,124.25681818181818,90
60,124.42727272727272,90
60,124.57499999999999,90
60,124.75681818181818,90
60,124.875,90
60,125.07727272727273,90
60,125.23636363636363,90
60,125.39772727272727,90
60,125.52499999999999,90
60,125.70681818181818,90
60,125.86590909090908,90
60,126.03636363636363,90
60,126.15454545454544,90
60,126.34772727272727,90
60,126.48636363636363,90
60,126.67727272727272,90
60,126.80454545454545,90
60,126.98636363636363,90
60,127.13636363636363,90
60,127.30681818181817,90
60,127.44545454545454,90
60,127.64772727272727,90
60,127.75454545454545,90
60,127.94772727272726,90
60,128.075,90
60,128.26590909090908,90
60,128.39545454545453,90
60,128.58636363636364,90
60,128.71363636363637,90
60,128.90681818181818,90
60,129.0340909090909,90
60,129.22727272727272,90
60,129.35454545454544,90
60,129.54772727272726,90
60,129.66363636363636,90
60,129.86590909090907,90
60,129.9840909090909,90
60,130.18636363636364,90
60,130.30454545454546,90
60,130.49545454545455,90
60,130.625,90
60,130.8159090909091,90
60,130.9431818181818,90
60,131.13636363636363,90
60,131.26363636363635,90
60,131.45681818181816,90
60,131.5840909090909,90
60,131.775,90
60,131.90454545454546,90
60,132.09545454545454,90
60,132.225,90
60,132.41590909090908,90
60,132.5431818181818,90
60,132.73636363636362,90
60,132.86363636363635,90
60,133.04545454545453,90
60,133.17272727272726,90
60,133.375,90
60,133.50454545454545,90
60,133.69545454545454,90
60,133.825,90
60,134.01590909090908,90
60,134.1431818181818,90
60,134.325,90
60,134.4522727272727,90
60,134.64545454545453,90
60,134.77272727272725,90
60,134.9659090909091,90
60,135.09318181818182,90
60,135.28636363636363,90
60,135.41363636363636,90
60,135.60454545454544,90
60,135.7340909090909,90
60,135.92499999999998,90
60,136.0522727272727,90
60,136.24545454545455,90
60,136.37272727272727,90
60,136.5659090909091,90
60,136.6931818181818,90
60,136.875,90
60,137.01363636363635,90
60,137.20454545454544,90
60,137.3340909090909,90
60,137.525,90
60,137.6431818181818,90
60,137.84545454545454,90
60,137.96363636363637,90
60,138.15454545454546,90
60,138.28181818181818,90
60,138.475,90
60,138.60227272727272,90
60,138.79545454545453,90
60,138.92272727272726,90
60,139.11363636363635,90
60,139.24318181818182,90
60,139.4340909090909,90
60,139.56363636363636,90
60,139.75454545454545,90
60,139.88181818181818,90
60,140.075,90
60,140.2022727272727,90
60,140.39545454545453,90
60,140.52272727272725,90
60,140.71363636363637,90
60,140.84318181818182,90
60,141.0340909090909,90
60,141.15227272727273,90
60,141.35454545454544,90
60,141.47272727272727,90
60,141.67499999999998,90
60,141.79090909090908,90
60,141.9840909090909,90
60,142.12272727272727,90
60,142.30454545454546,90
60,142.4318181818182,90
60,142.625,90
60,142.75227272727273,90
60,142.9431818181818,90
60,143.07272727272726,90
60,143.26363636363635,90
60,143.39090909090908,90
60,143.5840909090909,90
60,143.71136363636364,90
60,143.90454545454546,90
60,144.03181818181818,90
60,144.225,90
60,144.35227272727272,90
60,144.5431818181818,90
60,144.67272727272726,90
60,144.86363636363635,90
60,144.99090909090907,90
60,145.1840909090909,90
60,145.3022727272727,90
60,145.50454545454545,90
60,145.62045454545455,90
60,145.825,90
60,145.9409090909091,90
60,146.1340909090909,90
60,146.26136363636363,90
60,146.46363636363637,90
60,146.58181818181816,90
60,146.77272727272725,90
60,146.90227272727273,90
60,147.09318181818182,90
60,147.22045454545454,90
60,147.41363636363636,90
60,147.54090909090908,90
60,147.7340909090909,90
60,147.86136363636362,90
60,148.0522727272727,90
60,148.1818181818182,90
60,148.37272727272727,90
60,148.50227272727273,90
60,148.6931818181818,90
60,148.82045454545454,90
60,150.74090909090907,90
60,153.92954545454543,90
60,155.21136363636361,90
60,156.47954545454544,90
60,157.7590909090909,90
60,159.04090909090908,90
60,160.3090909090909,90
60,161.58863636363637,90
60,162.87045454545455,90
60,164.15,90
60,165.4181818181818,90
60,166.69772727272726,90
60,167.96818181818182,90
60,169.24772727272727,90
60,170.52727272727273,90
60,171.79772727272726,90
60,173.0772727272727,90
60,174.37954545454545,90
60,176.90681818181818,90
60,1.5999999999999999,90
60,1.75,90
60,1.8886363636363634,90
60,2.036363636363636,90
60,2.175,90
60,2.3363636363636364,90
60,2.475,90
60,2.625,90
60,2.7636363636363637,90
60,2.911363636363636,90
60,3.05,90
60,3.1999999999999997,90
60,3.3499999999999996,90
60,3.4977272727272726,90
60,3.6363636363636362,90
60,3.786363636363636,90
60,3.925,90
60,4.086363636363636,90
60,4.225,90
60,4.363636363636363,90
60,4.511363636363636,90
60,4.661363636363636,90
60,4.8,90
60,4.95,90
60,5.097727272727273,90
60,5.247727272727272,90
60,5.386363636363636,90
60,5.536363636363636,90
60,5.675,90
60,5.834090909090909,90
60,5.972727272727273,90
60,6.111363636363636,90
60,6.261363636363636,90
60,6.411363636363636,90
60,6.55,90
60,6.697727272727272,90
60,6.836363636363636,90
60,6.997727272727272,90
60,7.136363636363636,90
60,7.286363636363636,90
60,7.425,90
60,7.584090909090909,90
60,7.711363636363636,90
60,7.861363636363636,90
60,8.0,90
60,8.159090909090908,90
60,8.297727272727272,90
60,8.447727272727272,90
60,8.586363636363636,90
60,8.747727272727273,90
60,8.886363636363637,90
60,9.025,90
60,9.172727272727272,90
60,9.334090909090909,90
60,9.461363636363636,90
60,9.611363636363636,90
60,9.75,90
60,9.909090909090908,90
60,10.047727272727272,90
60,10.186363636363636,90
60,10.336363636363636,90
60,10.495454545454544,90
60,10.625,90
60,10.772727272727272,90
60,10.922727272727272,90
60,11.072727272727272,90
60,11.211363636363636,90
60,11.35909090909091,90
60,11.497727272727273,90
60,11.659090909090908,90
60,11.797727272727272,90
60,11.936363636363636,90
60,12.086363636363636,90
60,12.23409090909091,90
60,12.372727272727271,90
60,12.522727272727272,90
60,12.661363636363635,90
60,12.820454545454545,90
60,12.959090909090909,90
60,13.109090909090908,90
60,13.247727272727271,90
60,13.409090909090908,90
60,13.536363636363635,90
60,13.686363636363636,90
60,13.834090909090909,90
60,14.122727272727271,90
60,14.272727272727272,90
60,14.411363636363635,90
60,14.570454545454545,90
60,14.709090909090909,90
60,14.847727272727273,90
60,14.997727272727271,90
60,15.156818181818181,90
60,15.286363636363635,90
60,15.434090909090909,90
60,15.572727272727272,90
60,15.734090909090908,90
60,15.872727272727271,90
60,16.020454545454545,90
60,16.15909090909091,90
60,16.320454545454545,90
60,16.459090909090907,90
60,16.597727272727273,90
60,16.74772727272727,90
60,16.895454545454545,90
60,17.034090909090907,90
60,17.18409090909091,90
60,17.32272727272727,90
60,17.620454545454546,90
60,17.770454545454545,90
60,17.909090909090907,90
60,18.070454545454545,90
60,18.19772727272727,90
60,18.347727272727273,90
60,18.486363636363635,90
60,18.784090909090907,90
60,18.93409090909091,90
60,19.07272727272727,90
60,19.23181818181818,90
60,19.370454545454546,90
60,19.509090909090908,90
60,19.659090909090907,90
60,19.94772727272727,90
60,20.095454545454544,90
60,20.23409090909091,90
60,20.395454545454545,90
60,20.534090909090907,90
60,20.68181818181818,90
60,20.820454545454545,90
60,20.970454545454544,90
60,21.120454545454546,90
60,21.259090909090908,90
60,21.409090909090907,90
60,21.55681818181818,90
60,21.695454545454545,90
60,21.845454545454544,90
60,21.98409090909091,90
60,22.143181818181816,90
60,22.28181818181818,90
60,22.420454545454543,90
60,22.570454545454545,90
60,22.720454545454544,90
60,22.85909090909091,90
60,23.009090909090908,90
60,23.147727272727273,90
60,23.30681818181818,90
60,23.445454545454545,90
60,23.595454545454544,90
60,23.73409090909091,90
60,23.893181818181816,90
60,24.020454545454545,90
60,24.170454545454543,90
60,24.320454545454545,90
60,24.470454545454544,90
60,24.60909090909091,90
60,24.75681818181818,90
60,24.895454545454545,90
60,25.05681818181818,90
60,25.195454545454545,90
60,25.34318181818182,90
60,25.48181818181818,90
60,25.63181818181818,90
60,25.78181818181818,90
60,25.920454545454543,90
60,26.070454545454545,90
60,26.218181818181815,90
60,26.35681818181818,90
60,26.50681818181818,90
60,26.645454545454545,90
60,26.804545454545455,90
60,26.943181818181817,90
60,27.081818181818182,90
60,27.23181818181818,90
60,27.38181818181818,90
60,27.520454545454545,90
60,27.670454545454543,90
60,27.80909090909091,90
60,27.968181818181815,90
60,28.10681818181818,90
60,28.245454545454542,90
60,28.395454545454545,90
60,28.543181818181818,90
60,28.68181818181818,90
60,28.831818181818182,90
60,28.970454545454544,90
60,29.129545454545454,90
60,29.270454545454545,90
60,29.418181818181818,90
60,29.55681818181818,90
60,29.718181818181815,90
60,30.143181818181816,90
60,31.30681818181818,90
60,31.61590909090909,90
60,31.754545454545454,90
60,32.19090909090909,90
60,32.470454545454544,90
60,32.779545454545456,90
60,32.918181818181814,90
60,33.34318181818182,90
60,33.643181818181816,90
60,33.94090909090909,90
60,34.090909090909086,90
60,34.804545454545455,90
60,35.10454545454545,90
60,35.252272727272725,90
60,35.679545454545455,90
60,35.96818181818182,90
60,36.26590909090909,90
60,36.41590909090909,90
60,37.12954545454545,90
60,37.44090909090909,90
60,37.57954545454545,90
60,38.293181818181814,90
60,38.61363636363636,90
60,160.0431818181818,90
60,160.32954545454544,90
60,160.47954545454544,90
60,160.61818181818182,90
60,160.90681818181818,90
60,161.0659090909091,90
60,161.20454545454544,90
60,161.35454545454544,90
60,161.49318181818182,90
60,161.6431818181818,90
60,161.79090909090908,90
60,162.07954545454544,90
60,162.22954545454544,90
60,162.36818181818182,90
60,162.65681818181818,90
60,162.80454545454543,90
60,162.95454545454544,90
60,163.24318181818182,90
60,163.39090909090908,90
60,163.54090909090908,90
60,163.82954545454544,90
60,163.97954545454544,90
60,164.11818181818182,90
60,164.40454545454546,90
60,164.55454545454543,90
60,164.70454545454544,90
60,164.99090909090907,90
60,165.14090909090908,90
60,165.27954545454546,90
60,165.5681818181818,90
60,165.71818181818182,90
60,165.86590909090907,90
60,166.01590909090908,90
60,166.15454545454546,90
60,166.30454545454543,90
60,166.4431818181818,90
60,166.72954545454544,90
60,166.89090909090908,90
60,167.04090909090908,90
60,167.3181818181818,90
60,167.4659090909091,90
60,167.61590909090907,90
60,167.90454545454546,90
60,168.0522727272727,90
60,168.2022727272727,90
60,168.47954545454544,90
60,168.62954545454545,90
60,168.77954545454546,90
60,169.0659090909091,90
60,169.2159090909091,90
60,169.36590909090907,90
60,169.65227272727273,90
60,169.8022727272727,90
60,169.9409090909091,90
60,170.22954545454544,90
60,170.37954545454545,90
60,170.52727272727273,90
60,170.8159090909091,90
60,170.9659090909091,90
60,171.10454545454544,90
60,171.39090909090908,90
60,171.54090909090908,90
60,171.6909090909091,90
60,171.97954545454544,90
60,172.12727272727273,90
60,172.27727272727273,90
60,172.55454545454543,90
60,172.71363636363637,90
60,172.85227272727272,90
60,173.14090909090908,90
60,173.29090909090908,90
60,173.4409090909091,90
60,173.72727272727272,90
60,173.87727272727273,90
60,176.35227272727272,90
60,176.64090909090908,90
60,176.78863636363636,90
60,176.93863636363636,90
60,177.22727272727272,90
60,177.375,90
60,177.51363636363635,90
60,177.66363636363636,90
60,177.8022727272727,90
60,177.9522727272727,90
60,178.10227272727272,90
60,178.38863636363635,90
60,178.53863636363636,90
60,178.6772727272727,90
60,0.875,90
60,2.0795454545454546,90
60,2.25,90
60,2.3045454545454542,90
60,2.3363636363636364,90
60,3.275,90
60,4.459090909090909,90
60,4.618181818181818,90
60,4.768181818181818,90
60,4.8,90
60,4.918181818181818,90
60,5.675,90
60,6.879545454545454,90
60,7.456818181818181,90
60,7.61590909090909,90
60,7.765909090909091,90
60,7.913636363636363,90
60,8.063636363636363,90
60,8.213636363636363,90
60,8.363636363636363,90
60,8.511363636363637,90
60,8.661363636363635,90
60,8.811363636363636,90
60,8.959090909090909,90
60,9.10909090909091,90
60,9.259090909090908,90
60,9.322727272727272,90
60,9.418181818181818,90
60,9.568181818181818,90
60,9.718181818181817,90
60,9.86590909090909,90
60,10.165909090909091,90
60,10.313636363636363,90
60,10.463636363636363,90
60,11.670454545454545,90
60,12.875,90
60,14.070454545454545,90
60,15.274999999999999,90
60,16.470454545454544,90
60,17.675,90
60,18.870454545454546,90
60,19.029545454545453,90
60,19.179545454545455,90
60,19.327272727272728,90
60,20.075,90
60,21.279545454545453,90
60,22.474999999999998,90
60,23.679545454545455,90
60,24.886363636363637,90
60,26.079545454545453,90
60,27.286363636363635,90
60,29.695454545454545,90
60,30.89090909090909,90
60,30.93409090909091,90
60,32.095454545454544,90
60,33.29090909090909,90
60,34.49545454545454,90
60,35.70227272727273,90
60,36.89545454545454,90
60,38.10227272727273,90
60,39.30681818181818,90
60,116.77954545454544,90
60,116.93863636363636,90
60,117.07727272727273,90
60,117.23636363636363,90
60,117.38636363636363,90
60,117.53636363636363,90
60,117.675,90
60,117.8340909090909,90
60,137.51363636363635,90
60,137.9522727272727,90
60,138.7090909090909,90
60,139.15681818181818,90
60,139.91363636363636,90
60,140.36363636363635,90
60,141.1090909090909,90
60,141.5568181818182,90
60,142.31363636363636,90
60,142.76363636363635,90
60,143.5090909090909,90
60,143.96818181818182,90
60,144.71363636363637,90
60,145.17272727272726,90
60,145.92045454545453,90
60,146.36818181818182,90
60,146.6772727272727,90
60,147.125,90
60,147.42499999999998,90
60,147.57272727272726,90
60,147.7340909090909,90
60,147.87272727272727,90
60,148.03181818181818,90
60,148.32045454545454,90
60,148.47954545454544,90
60,148.62954545454545,90
60,148.7681818181818,90
60,148.9272727272727,90
60,180.89545454545453,90
60,181.04545454545453,90
60,181.34318181818182,90
60,181.50454545454545,90
60,181.8022727272727,90
60,182.10227272727272,90
60,182.25,90
60,182.39999999999998,90
60,182.50681818181818,90
60,182.8590909090909,90
60,183.3068181818182,90
60,183.44545454545454,90
60,183.75454545454545,90
60,183.90454545454546,90
60,184.2022727272727,90
60,184.64999999999998,90
60,184.81136363636364,90
60,184.95,90
60,185.09772727272727,90
60,2.036363636363636,90
60,3.2113636363636364,90
60,4.384090909090909,90
60,5.556818181818182,90
60,6.74090909090909,90
60,7.913636363636363,90
60,9.088636363636363,90
60,10.261363636363637,90
60,11.445454545454545,90
60,12.618181818181817,90
60,13.790909090909091,90
60,14.975,90
60,16.15,90
60,17.32272727272727,90
60,18.50681818181818,90
60,19.679545454545455,90
60,20.852272727272727,90
60,22.036363636363635,90
60,23.211363636363636,90
60,24.384090909090908,90
60,25.55681818181818,90
60,26.74090909090909,90
60,29.85681818181818,90
60,29.995454545454542,90
60,30.16590909090909,90
60,30.27272727272727,90
60,30.74090909090909,90
60,30.879545454545454,90
60,31.04090909090909,90
60,31.168181818181818,90
60,31.327272727272724,90
60,31.445454545454545,90
60,31.924999999999997,90
60,32.05227272727272,90
60,32.21363636363636,90
60,32.340909090909086,90
60,32.502272727272725,90
60,32.61818181818182,90
60,33.09772727272727,90
60,33.22727272727273,90
60,33.38636363636363,90
60,33.525,90
60,33.675,90
60,33.79090909090909,90
60,34.111363636363635,90
60,34.27272727272727,90
60,34.41136363636363,90
60,34.559090909090905,90
60,34.69772727272727,90
60,34.85909090909091,90
60,34.975,90
60,35.45681818181818,90
60,35.58409090909091,90
60,35.74318181818182,90
60,36.03181818181818,90
60,36.15,90
60,36.61818181818182,90
60,36.75681818181818,90
60,36.918181818181814,90
60,37.05681818181818,90
60,37.22727272727273,90
60,37.32272727272727,90
60,37.79090909090909,90
60,37.94090909090909,90
60,38.090909090909086,90
60,38.22954545454545,90
60,38.38863636363636,90
60,38.50681818181818,90
60,38.975,90
60,39.11363636363636,90
60,39.26363636363636,90
60,39.402272727272724,90
60,39.56363636363636,90
60,39.679545454545455,90
60,40.13863636363636,90
60,40.288636363636364,90
60,40.43636363636364,90
60,40.586363636363636,90
60,40.736363636363635,90
60,40.85227272727273,90
60,41.17272727272727,90
60,41.334090909090904,90
60,41.47272727272727,90
60,41.62045454545454,90
60,41.75909090909091,90
60,41.90909090909091,90
60,42.027272727272724,90
60,42.50681818181818,90
60,42.64545454545454,90
60,42.804545454545455,90
60,42.934090909090905,90
60,43.08181818181818,90
60,43.211363636363636,90
60,43.69090909090909,90
60,43.96818181818182,90
60,44.10681818181818,90
60,44.26590909090909,90
60,44.38409090909091,90
60,44.85227272727273,90
60,44.99090909090909,90
60,45.152272727272724,90
60,45.27954545454545,90
60,45.449999999999996,90
60,45.55681818181818,90
60,46.027272727272724,90
60,46.175,90
60,46.324999999999996,90
60,46.46363636363636,90
60,46.625,90
60,46.74090909090909,90
60,47.211363636363636,90
60,47.349999999999994,90
60,47.50909090909091,90
60,47.79772727272727,90
60,47.913636363636364,90
60,48.39545454545454,90
60,48.52272727272727,90
60,48.67272727272727,90
60,48.81136363636364,90
60,48.98181818181818,90
60,49.08863636363636,90
60,49.55681818181818,90
60,49.695454545454545,90
60,49.85681818181818,90
60,50.143181818181816,90
60,50.27272727272727,90
60,50.740909090909085,90
60,50.87954545454545,90
60,51.02954545454545,90
60,51.168181818181814,90
60,51.31818181818181,90
60,51.445454545454545,90
60,51.913636363636364,90
60,52.05227272727272,90
60,52.340909090909086,90
60,52.502272727272725,90
60,52.61818181818182,90
60,53.10909090909091,90
60,53.22727272727273,90
60,53.38636363636363,90
60,53.51363636363636,90
60,53.675,90
60,53.79090909090909,90
60,54.27272727272727,90
60,54.4,90
60,54.69772727272727,90
60,54.84772727272727,90
60,54.974999999999994,90
60,55.445454545454545,90
60,55.584090909090904,90
60,55.73409090909091,90
60,55.87272727272727,90
60,56.043181818181814,90
60,56.15,90
60,56.62954545454545,90
60,56.756818181818176,90
60,56.918181818181814,90
60,57.05681818181818,90
60,57.20454545454545,90
60,57.32272727272727,90
60,57.80227272727272,90
60,57.929545454545455,90
60,58.090909090909086,90
60,58.22954545454545,90
60,58.38863636363636,90
60,58.506818181818176,90
60,58.965909090909086,90
60,59.10454545454545,90
60,59.26363636363636,90
60,59.402272727272724,90
60,59.56363636363636,90
60,59.679545454545455,90
60,59.98863636363636,90
60,60.15,90
60,60.277272727272724,90
60,60.44772727272727,90
60,60.574999999999996,90
60,60.736363636363635,90
60,60.85227272727273,90
60,61.17272727272727,90
60,61.334090909090904,90
60,61.461363636363636,90
60,61.75,90
60,61.92045454545454,90
60,62.03636363636363,90
60,62.34772727272727,90
60,62.506818181818176,90
60,62.63409090909091,90
60,62.81590909090909,90
60,62.92272727272727,90
60,63.10454545454545,90
60,63.211363636363636,90
60,63.52045454545454,90
60,63.69090909090909,90
60,63.81818181818181,90
60,63.97954545454545,90
60,64.10681818181818,90
60,64.26590909090909,90
60,64.3840909090909,90
60,64.69318181818181,90
60,64.86363636363636,90
60,64.99090909090908,90
60,65.15227272727273,90
60,65.27954545454546,90
60,65.45,90
60,65.55681818181817,90
60,65.86590909090908,90
60,66.03636363636363,90
60,66.16590909090908,90
60,66.33636363636363,90
60,66.46363636363635,90
60,66.625,90
60,66.74090909090908,90
60,67.05,90
60,67.21136363636363,90
60,67.35,90
60,67.49772727272727,90
60,67.63636363636363,90
60,67.79772727272727,90
60,67.91363636363636,90
60,68.225,90
60,68.39545454545454,90
60,68.52272727272727,90
60,68.68181818181817,90
60,68.81136363636364,90
60,69.08863636363635,90
60,69.39772727272727,90
60,69.56818181818181,90
60,69.69545454545454,90
60,69.86590909090908,90
60,69.98409090909091,90
60,70.15454545454546,90
60,70.27272727272727,90
60,70.58181818181818,90
60,70.74090909090908,90
60,70.87045454545454,90
60,71.04090909090908,90
60,71.16818181818182,90
60,71.33863636363635,90
60,71.44545454545454,90
60,71.75454545454545,90
60,71.925,90
60,72.04318181818182,90
60,72.21363636363635,90
60,72.32954545454545,90
60,72.50227272727273,90
60,72.61818181818181,90
60,72.92727272727272,90
60,73.08863636363635,90
60,73.22727272727272,90
60,73.38636363636363,90
60,73.51363636363637,90
60,73.69545454545454,90
60,73.79090909090908,90
60,74.10227272727272,90
60,74.27272727272727,90
60,74.39999999999999,90
60,74.57045454545454,90
60,74.68863636363636,90
60,74.84772727272727,90
60,74.975,90
60,75.28636363636363,90
60,75.44545454545454,90
60,75.57272727272726,90
60,75.75454545454545,90
60,75.87272727272727,90
60,76.04318181818182,90
60,76.14999999999999,90
60,76.4590909090909,90
60,76.62954545454545,90
60,76.75681818181818,90
60,76.93863636363636,90
60,77.04545454545455,90
60,77.2159090909091,90
60,77.32272727272726,90
60,77.64318181818182,90
60,77.81363636363636,90
60,77.92954545454545,90
60,78.0909090909091,90
60,78.21818181818182,90
60,78.38863636363637,90
60,78.50681818181818,90
60,78.81590909090909,90
60,78.975,90
60,79.10454545454544,90
60,79.27499999999999,90
60,79.39090909090909,90
60,79.56363636363636,90
60,79.67954545454545,90
60,79.98863636363636,90
60,80.1590909090909,90
60,80.27727272727272,90
60,80.43636363636364,90
60,80.575,90
60,80.74772727272727,90
60,80.85227272727272,90
60,81.16363636363636,90
60,81.3340909090909,90
60,81.46136363636363,90
60,81.75,90
60,81.9090909090909,90
60,82.03636363636363,90
60,82.33636363636363,90
60,82.51818181818182,90
60,82.6340909090909,90
60,82.79545454545455,90
60,82.92272727272727,90
60,83.08181818181818,90
60,83.21136363636363,90
60,83.52045454545454,90
60,83.69090909090909,90
60,85.55681818181817,90
60,86.74090909090908,90
60,87.91363636363636,90
60,89.08863636363635,90
60,90.27272727272727,90
60,91.44545454545454,90
60,92.61818181818181,90
60,93.80227272727272,90
60,94.975,90
60,96.14999999999999,90
60,97.3340909090909,90
60,98.50681818181818,90
60,99.67954545454545,90
60,100.85227272727272,90
60,102.03636363636363,90
60,103.21136363636363,90
60,104.3840909090909,90
60,105.55681818181817,90
60,106.74090909090908,90
60,107.91363636363636,90
60,109.08863636363635,90
60,110.27272727272727,90
60,111.44545454545454,90
60,119.27499999999999,90
60,119.40227272727272,90
60,119.57272727272726,90
60,119.67954545454545,90
60,119.98863636363636,90
60,120.1590909090909,90
60,120.27727272727272,90
60,120.4590909090909,90
60,120.57499999999999,90
60,120.74772727272726,90
60,120.86363636363636,90
60,121.3340909090909,90
60,121.46136363636363,90
60,121.62045454545454,90
60,121.7590909090909,90
60,121.92954545454545,90
60,122.03636363636363,90
60,122.34772727272727,90
60,122.50681818181818,90
60,122.6340909090909,90
60,122.80454545454545,90
60,122.9340909090909,90
60,123.11363636363636,90
60,123.21136363636363,90
60,123.52045454545454,90
60,123.70227272727273,90
60,123.8090909090909,90
60,123.97954545454544,90
60,124.10681818181817,90
60,124.27727272727272,90
60,124.39545454545454,90
60,124.69318181818181,90
60,124.86363636363636,90
60,124.99090909090908,90
60,125.16363636363636,90
60,125.27954545454544,90
60,125.46136363636363,90
60,125.56818181818181,90
60,125.86590909090908,90
60,126.04772727272727,90
60,126.16590909090908,90
60,126.33636363636363,90
60,126.46363636363635,90
60,126.6340909090909,90
60,126.74090909090908,90
60,127.05,90
60,127.21136363636363,90
60,127.33863636363635,90
60,127.52045454545454,90
60,127.63636363636363,90
60,127.81818181818181,90
60,127.91363636363636,90
60,128.225,90
60,128.39545454545453,90
60,128.51136363636363,90
60,128.81136363636364,90
60,128.98181818181817,90
60,129.09772727272727,90
60,129.5681818181818,90
60,129.69545454545454,90
60,129.86590909090907,90
60,129.99545454545455,90
60,130.16590909090908,90
60,130.27272727272728,90
60,130.58181818181816,90
60,130.75227272727273,90
60,130.87045454545455,90
60,131.04090909090908,90
60,131.1681818181818,90
60,131.33863636363637,90
60,131.44545454545454,90
60,131.75454545454545,90
60,131.92499999999998,90
60,132.0431818181818,90
60,132.225,90
60,132.3409090909091,90
60,132.52272727272728,90
60,132.62954545454545,90
60,132.9272727272727,90
60,133.1090909090909,90
60,133.51363636363635,90
60,133.69545454545454,90
60,133.8022727272727,90
60,134.11136363636362,90
60,134.27272727272725,90
60,134.4,90
60,134.57045454545454,90
60,134.69772727272726,90
60,134.87045454545455,90
60,134.975,90
60,135.28636363636363,90
60,135.45681818181816,90
60,135.57272727272726,90
60,135.74318181818182,90
60,135.87272727272727,90
60,136.0431818181818,90
60,136.1590909090909,90
60,136.4590909090909,90
60,136.62954545454545,90
60,136.74772727272727,90
60,136.9272727272727,90
60,137.04545454545453,90
60,137.3340909090909,90
60,137.63181818181818,90
60,137.81363636363636,90
60,137.92954545454546,90
60,138.21818181818182,90
60,138.4,90
60,138.50681818181818,90
60,138.98636363636362,90
60,139.10454545454544,90
60,139.28636363636363,90
60,139.40227272727273,90
60,139.5840909090909,90
60,139.67954545454546,90
60,139.98863636363635,90
60,140.1590909090909,90
60,140.27727272727273,90
60,140.44772727272726,90
60,140.575,90
60,140.74772727272727,90
60,140.86363636363635,90
60,141.3340909090909,90
60,141.45,90
60,141.63181818181818,90
60,141.75,90
60,141.92954545454546,90
60,142.03636363636363,90
60,142.33636363636364,90
60,142.5181818181818,90
60,142.6340909090909,90
60,142.9340909090909,90
60,143.11363636363635,90
60,143.21136363636364,90
60,143.52045454545453,90
60,143.6909090909091,90
60,143.8090909090909,90
60,143.98863636363635,90
60,144.10681818181817,90
60,144.27727272727273,90
60,144.39545454545453,90
60,144.6931818181818,90
60,144.86363636363635,90
60,144.98181818181817,90
60,145.27954545454546,90
60,145.45,90
60,145.5681818181818,90
60,145.86590909090907,90
60,146.03636363636363,90
60,146.16590909090908,90
60,146.33636363636364,90
60,146.4522727272727,90
60,146.625,90
60,146.74090909090907,90
60,147.04999999999998,90
60,147.22045454545454,90
60,147.33863636363637,90
60,147.5090909090909,90
60,147.63636363636363,90
60,147.8090909090909,90
60,147.91363636363636,90
60,148.225,90
60,148.39545454545453,90
60,148.51136363636363,90
60,148.6931818181818,90
60,148.81136363636364,90
60,148.99090909090907,90
60,149.09772727272727,90
60,149.39772727272725,90
60,149.69545454545454,90
60,149.99545454545455,90
60,150.16590909090908,90
60,150.27272727272725,90
60,150.87045454545455,90
60,151.04090909090908,90
60,151.1681818181818,90
60,151.44545454545454,90
60,151.75454545454545,90
60,152.0431818181818,90
60,152.3409090909091,90
60,152.62954545454545,90
60,153.22727272727272,90
60,153.8022727272727,90
60,154.4,90
60,154.57045454545454,90
60,154.69772727272726,90
60,154.975,90
60,155.28636363636363,90
60,155.57272727272726,90
60,155.87272727272727,90
60,156.1590909090909,90
60,156.62954545454545,90
60,157.3340909090909,90
60,158.50681818181818,90
60,159.67954545454543,90
60,160.86363636363635,90
60,162.03636363636363,90
60,163.21136363636361,90
60,164.39545454545453,90
60,165.5681818181818,90
60,166.74090909090907,90
60,167.92499999999998,90
60,169.09772727272727,90
60,170.27272727272725,90
60,171.45681818181816,90
60,172.62954545454545,90
60,175.57272727272726,90
60,175.87272727272727,90
60,176.1590909090909,90
60,176.75681818181818,90
60,177.04545454545453,90
60,177.3340909090909,90
60,177.92954545454543,90
60,178.22954545454544,90
60,178.50681818181818,90
60,1.4818181818181817,90
60,1.6204545454545454,90
60,1.7704545454545453,90
60,1.9204545454545454,90
60,2.0704545454545453,90
60,2.209090909090909,90
60,2.356818181818182,90
60,2.495454545454545,90
60,2.6454545454545455,90
60,2.784090909090909,90
60,2.934090909090909,90
60,3.0818181818181816,90
60,3.2318181818181815,90
60,3.370454545454545,90
60,3.5204545454545455,90
60,3.6704545454545454,90
60,3.809090909090909,90
60,3.9568181818181816,90
60,4.1068181818181815,90
60,4.245454545454545,90
60,4.3954545454545455,90
60,4.543181818181818,90
60,4.681818181818182,90
60,4.831818181818182,90
60,4.9818181818181815,90
60,5.120454545454545,90
60,5.2704545454545455,90
60,5.409090909090909,90
60,5.556818181818182,90
60,5.706818181818181,90
60,5.8568181818181815,90
60,5.995454545454545,90
60,6.143181818181818,90
60,6.281818181818181,90
60,6.431818181818182,90
60,6.581818181818181,90
60,6.7295454545454545,90
60,6.870454545454545,90
60,7.018181818181818,90
60,7.156818181818181,90
60,7.306818181818182,90
60,7.456818181818181,90
60,7.595454545454545,90
60,7.743181818181818,90
60,7.893181818181818,90
60,8.031818181818181,90
60,8.181818181818182,90
60,8.320454545454545,90
60,8.470454545454546,90
60,8.618181818181817,90
60,8.768181818181818,90
60,8.918181818181818,90
60,9.056818181818182,90
60,9.195454545454545,90
60,9.343181818181817,90
60,9.493181818181817,90
60,9.631818181818181,90
60,9.781818181818181,90
60,9.929545454545455,90
60,10.070454545454545,90
60,10.218181818181817,90
60,10.35681818181818,90
60,10.506818181818181,90
60,10.656818181818181,90
60,60.309090909090905,90
60,61.48181818181818,90
60,62.64545454545454,90
60,63.809090909090905,90
60,64.97045454545454,90
60,66.1340909090909,90
60,67.30681818181817,90
60,68.47045454545454,90
60,69.63181818181818,90
60,70.79545454545455,90
60,91.79772727272727,90
60,91.95681818181818,90
60,92.08636363636363,90
60,92.24545454545454,90
60,92.37272727272727,90
60,92.67272727272727,90
60,92.83181818181818,90
60,92.9590909090909,90
60,93.12954545454545,90
60,93.2590909090909,90
60,93.41818181818181,90
60,93.53636363636363,90
60,93.84545454545454,90
60,94.00454545454545,90
60,94.1340909090909,90
60,94.30454545454545,90
60,94.43181818181817,90
60,94.59090909090908,90
60,94.7090909090909,90
60,95.01818181818182,90
60,95.17954545454545,90
60,95.30681818181817,90
60,95.47727272727272,90
60,95.59545454545454,90
60,95.75454545454545,90
60,95.88181818181818,90
60,96.19090909090909,90
60,96.35227272727272,90
60,96.47954545454544,90
60,96.64090909090909,90
60,96.76818181818182,90
60,96.92727272727272,90
60,97.05681818181817,90
60,97.35454545454544,90
60,97.52499999999999,90
60,97.65227272727272,90
60,97.81363636363636,90
60,97.94090909090909,90
60,98.10227272727272,90
60,98.21818181818182,90
60,98.52727272727272,90
60,98.68863636363636,90
60,98.81590909090909,90
60,98.98636363636363,90
60,99.11363636363636,90
60,99.27499999999999,90
60,99.39090909090909,90
60,99.70227272727273,90
60,99.86136363636363,90
60,99.98863636363636,90
60,100.14999999999999,90
60,100.28863636363636,90
60,100.44772727272726,90
60,100.56590909090909,90
60,100.875,90
60,101.0340909090909,90
60,101.16363636363636,90
60,101.3340909090909,90
60,101.44999999999999,90
60,101.62045454545454,90
60,101.73863636363636,90
60,102.03636363636363,90
60,102.2090909090909,90
60,102.33636363636363,90
60,102.49545454545454,90
60,102.625,90
60,102.7840909090909,90
60,102.90227272727272,90
60,103.21136363636363,90
60,103.37045454545454,90
60,103.49772727272727,90
60,103.67045454545455,90
60,103.79772727272727,90
60,103.95681818181818,90
60,104.07499999999999,90
60,104.3840909090909,90
60,104.54318181818181,90
60,104.67272727272727,90
60,104.84318181818182,90
60,104.97045454545454,90
60,105.12045454545454,90
60,105.24772727272726,90
60,105.55681818181817,90
60,105.71818181818182,90
60,105.84545454545454,90
60,106.00454545454545,90
60,106.1340909090909,90
60,106.30454545454545,90
60,106.42045454545455,90
60,106.72045454545454,90
60,106.89090909090909,90
60,107.01818181818182,90
60,107.17954545454545,90
60,107.30681818181817,90
60,107.46590909090908,90
60,107.59545454545454,90
60,107.89318181818182,90
60,108.05227272727272,90
60,108.18181818181817,90
60,108.35227272727272,90
60,108.47954545454544,90
60,108.64090909090909,90
60,108.75681818181818,90
60,109.06590909090909,90
60,109.22727272727272,90
60,109.35454545454544,90
60,109.52499999999999,90
60,109.65227272727272,90
60,109.81363636363636,90
60,109.92954545454545,90
60,110.22954545454544,90
60,110.39999999999999,90
60,110.52727272727272,90
60,110.68863636363636,90
60,110.81590909090909,90
60,110.98636363636363,90
60,111.10454545454544,90
60,111.40227272727272,90
60,111.57272727272726,90
60,111.70227272727273,90
60,111.86136363636363,90
60,111.98863636363636,90
60,112.14999999999999,90
60,112.26590909090909,90
60,112.57499999999999,90
60,112.73636363636363,90
60,112.86363636363636,90
60,113.0340909090909,90
60,113.16363636363636,90
60,113.32272727272726,90
60,113.44090909090909,90
60,113.75,90
60,113.9090909090909,90
60,114.03636363636363,90
60,114.19772727272726,90
60,114.33636363636363,90
60,114.49545454545454,90
60,114.61363636363636,90
60,114.92272727272727,90
60,115.07272727272726,90
60,115.21136363636363,90
60,115.38181818181818,90
60,115.49772727272726,90
60,115.6590909090909,90
60,115.78636363636363,90
60,116.08636363636363,90
60,116.25681818181818,90
60,116.3840909090909,90
60,116.54318181818181,90
60,116.67272727272727,90
60,116.83181818181818,90
60,116.94999999999999,90
60,117.2590909090909,90
60,117.41818181818181,90
60,117.54772727272727,90
60,117.71818181818182,90
60,117.84545454545454,90
60,118.00454545454545,90
60,118.12272727272726,90
60,118.43181818181817,90
60,118.59090909090908,90
60,118.72045454545454,90
60,118.89090909090909,90
60,119.01818181818182,90
60,119.17954545454545,90
60,119.29545454545455,90
60,119.60454545454544,90
60,119.75454545454545,90
60,119.89318181818182,90
60,120.04318181818181,90
60,120.18181818181817,90
60,120.34090909090908,90
60,120.4590909090909,90
60,120.78863636363636,90
60,120.91818181818181,90
60,121.05681818181817,90
60,121.23636363636363,90
60,121.35454545454544,90
60,121.50454545454545,90
60,121.63181818181818,90
60,121.95227272727273,90
60,122.09090909090908,90
60,122.22954545454544,90
60,122.38863636363635,90
60,122.52727272727272,90
60,122.67727272727272,90
60,122.80454545454545,90
60,123.11363636363636,90
60,123.26363636363635,90
60,123.40227272727272,90
60,123.56363636363636,90
60,123.70227272727273,90
60,123.85,90
60,123.97954545454544,90
60,124.28863636363636,90
60,124.43636363636364,90
60,124.57499999999999,90
60,124.73636363636363,90
60,124.86363636363636,90
60,125.02499999999999,90
60,125.15227272727272,90
60,125.46136363636363,90
60,125.61136363636363,90
60,125.75,90
60,125.9090909090909,90
60,126.03636363636363,90
60,126.19772727272726,90
60,126.31363636363636,90
60,126.6340909090909,90
60,126.7840909090909,90
60,129.24772727272727,90
60,129.53636363636363,90
60,129.8340909090909,90
60,130.12272727272727,90
60,130.42045454545453,90
60,130.7090909090909,90
60,130.99772727272727,90
60,131.29545454545453,90
60,131.59545454545454,90
60,131.88181818181818,90
60,132.17045454545453,90
60,132.47045454545454,90
60,132.75681818181818,90
60,133.0568181818182,90
60,133.35454545454544,90
60,133.6431818181818,90
60,133.9409090909091,90
60,134.21818181818182,90
60,134.5181818181818,90
60,134.80454545454546,90
60,135.09318181818182,90
60,135.39090909090908,90
60,135.6909090909091,90
60,135.97954545454544,90
60,136.26590909090908,90
60,136.5659090909091,90
60,136.85227272727272,90
60,137.15227272727273,90
60,137.4409090909091,90
60,137.73863636363635,90
60,138.02727272727273,90
60,138.325,90
60,138.90227272727273,90
60,139.48863636363635,90
60,139.78636363636363,90
60,140.075,90
60,140.37272727272727,90
60,140.66136363636363,90
60,140.95,90
60,141.24772727272727,90
60,141.53636363636363,90
60,141.8340909090909,90
60,142.12272727272727,90
60,142.42045454545453,90
60,143.0090909090909,90
60,143.29545454545453,90
60,143.5840909090909,90
60,144.17045454545453,90
60,144.7681818181818,90
60,145.0568181818182,90
60,145.34318181818182,90
60,145.6431818181818,90
60,145.92954545454543,90
60,146.21818181818182,90
60,146.50681818181818,90
60,146.80454545454543,90
60,147.10454545454544,90
60,147.39090909090908,90
60,147.6909090909091,90
60,147.97954545454544,90
60,148.26590909090908,90
60,148.5659090909091,90
60,148.85227272727272,90
60,149.15227272727273,90
60,149.4409090909091,90
60,149.73863636363635,90
60,150.02727272727273,90
60,150.325,90
60,150.61363636363635,90
60,150.91136363636363,90
60,151.06136363636364,90
60,151.2,90
60,151.49772727272727,90
60,151.78636363636363,90
60,152.08636363636364,90
60,152.37272727272727,90
60,152.66136363636363,90
60,152.9590909090909,90
60,153.24772727272727,90
60,153.53636363636363,90
60,153.8340909090909,90
60,154.12272727272727,90
60,154.42045454545453,90
60,154.7090909090909,90
60,155.0090909090909,90
60,155.29545454545453,90
60,155.59545454545454,90
60,155.88181818181818,90
60,156.1818181818182,90
60,156.47045454545454,90
60,156.75681818181818,90
60,157.0568181818182,90
60,157.34318181818182,90
60,157.63181818181818,90
60,157.92954545454543,90
60,158.21818181818182,90
60,158.5181818181818,90
60,158.80454545454543,90
60,159.10454545454544,90
60,159.39090909090908,90
60,159.6909090909091,90
60,159.97954545454544,90
60,160.27727272727273,90
60,160.5659090909091,90
60,160.86363636363635,90
60,161.14090909090908,90
60,161.4409090909091,90
60,161.73863636363635,90
60,162.02727272727273,90
60,162.31363636363636,90
60,162.61363636363635,90
60,162.90227272727273,90
60,163.2,90
60,163.48863636363635,90
60,163.78636363636363,90
60,164.075,90
60,164.37272727272727,90
60,164.66136363636363,90
60,164.95,90
60,165.24772727272727,90
60,165.54772727272726,90
60,165.825,90
60,166.12272727272727,90
60,166.41136363636363,90
60,178.42045454545453,90
60,1.5681818181818181,90
60,2.8477272727272727,90
60,4.118181818181818,90
60,5.3977272727272725,90
60,6.677272727272727,90
60,7.947727272727272,90
60,9.227272727272727,90
60,10.506818181818181,90
60,11.774999999999999,90
60,13.056818181818182,90
60,14.336363636363636,90
60,15.604545454545454,90
60,16.886363636363637,90
60,18.16590909090909,90
60,19.43409090909091,90
60,20.71363636363636,90
60,21.36590909090909,90
60,21.695454545454545,90
60,21.995454545454546,90
60,22.325,90
60,22.65681818181818,90
60,22.974999999999998,90
60,23.263636363636362,90
60,23.604545454545452,90
60,23.924999999999997,90
60,24.25681818181818,90
60,24.543181818181818,90
60,24.886363636363637,90
60,25.204545454545453,90
60,25.536363636363635,90
60,25.825,90
60,26.16590909090909,90
60,26.474999999999998,90
60,26.804545454545455,90
60,27.093181818181815,90
60,27.43409090909091,90
60,27.754545454545454,90
60,28.086363636363636,90
60,28.37272727272727,90
60,28.71363636363636,90
60,29.034090909090907,90
60,29.354545454545452,90
60,29.652272727272727,90
60,21.36590909090909,90
60,22.336363636363636,90
60,23.924999999999997,90
60,24.886363636363637,90
60,26.474999999999998,90
60,27.445454545454545,90
60,29.034090909090907,90
60,29.98409090909091,90
60,31.57272727272727,90
60,32.53409090909091,90
60,34.13409090909091,90
60,39.23181818181818,90
60,58.070454545454545,90
60,58.709090909090904,90
60,59.65909090909091,90
60,62.209090909090904,90
60,64.76818181818182,90
60,67.31818181818181,90
60,69.87727272727273,90
60,72.42727272727272,90
60,77.52499999999999,90
60,77.85681818181818,90
60,89.02499999999999,90
60,90.29318181818181,90
60,119.21136363636363,90
60,119.6590909090909,90
60,120.94999999999999,90
60,131.13636363636363,90
60,133.68636363636364,90
60,134.98636363636362,90
60,140.08636363636364,90
60,142.64545454545453,90
60,145.20454545454544,90
60,147.74318181818182,90
60,155.40227272727273,90
60,155.72272727272727,90
60,156.6818181818182,90
60,157.9522727272727,90
60,158.28181818181818,90
60,159.23181818181817,90
60,160.51136363636363,90
60,160.84318181818182,90
60,161.79090909090908,90
60,163.06136363636364,90
60,163.39090909090908,90
60,164.3409090909091,90
60,164.98181818181817,90
60,165.61136363636362,90
60,165.9522727272727,90
60,166.89090909090908,90
60,167.54090909090908,90
60,168.17045454545453,90
60,169.45,90
60,170.0909090909091,90
60,170.72045454545454,90
60,172.01136363636363,90
60,175.8409090909091,90
60,177.1090909090909,90
60,178.38863636363635,90
60,188.6090909090909,90
60,189.88863636363635,90
60,191.1681818181818,90
60,200.08636363636361,90
60,201.36590909090907,90
60,202.64545454545453,90
60,213.31136363636364,90
60,37.24772727272727,90
60,37.279545454545456,90
60,42.902272727272724,90
60,43.220454545454544,90
60,43.85,90
60,53.025,90
60,56.93863636363636,90
60,60.11818181818182,90
60,60.84318181818182,90
60,61.652272727272724,90
60,64.8,90
60,68.24545454545454,90
60,68.70454545454545,90
60,70.72045454545454,90
60,72.20227272727273,90
60,72.3409090909091,90
60,72.68181818181817,90
60,89.4090909090909,90
60,92.35227272727272,90
60,96.28863636363636,90
60,100.225,90
60,104.1590909090909,90
60,105.24772727272726,90
60,108.08636363636363,90
60,108.9590909090909,90
60,111.44545454545454,90
60,112.25681818181818,90
60,113.1840909090909,90
60,115.44545454545454,90
60,118.48636363636363,90
60,119.24318181818181,90
60,119.89318181818182,90
60,122.21818181818182,90
60,123.31818181818181,90
60,123.81818181818181,90
60,125.27954545454544,90
60,126.26136363636363,90
60,126.77272727272727,90
60,127.28636363636363,90
60,127.75454545454545,90
60,130.02727272727273,90
60,130.2090909090909,90
60,130.24090909090907,90
60,130.69772727272726,90
60,131.67954545454546,90
60,131.71136363636364,90
60,133.2590909090909,90
60,134.6340909090909,90
60,135.61590909090907,90
60,135.64772727272725,90
60,136.6818181818182,90
60,139.5522727272727,90
60,143.49772727272727,90
60,147.42499999999998,90
60,163.14772727272725,90
60,163.275,90
60,163.5522727272727,90
60,163.6909090909091,90
60,164.43636363636364,90
60,165.025,90
60,165.65227272727273,90
60,166.48636363636362,90
60,166.99772727272727,90
60,167.11363636363635,90
60,167.4659090909091,90
60,168.6090909090909,90
60,169.08863636363637,90
60,169.53636363636363,90
60,169.5681818181818,90
60,170.5590909090909,90
60,171.04999999999998,90
60,171.39090909090908,90
60,171.8931818181818,90
60,172.52272727272725,90
60,173.6,90
60,174.98636363636362,90
60,175.3272727272727,90
60,175.4340909090909,90
60,175.47727272727272,90
60,176.4272727272727,90
60,176.95,90
60,177.4409090909091,90
60,177.89772727272725,90
60,177.9409090909091,90
60,178.38863636363635,90
60,178.66590909090908,90
60,178.8159090909091,90
60,179.08181818181816,90
60,179.86136363636362,90
60,180.3409090909091,90
60,180.89545454545453,90
60,181.39772727272725,90
60,182.31363636363636,90
60,182.3681818181818,90
60,182.8590909090909,90
60,184.29772727272726,90
60,184.32954545454544,90
60,184.83181818181816,90
60,185.31136363636364,90
60,186.31363636363636,90
60,186.74090909090907,90
60,188.26590909090908,90
60,188.7681818181818,90
60,189.09772727272727,90
60,190.24090909090907,90
60,191.23181818181817,90
60,193.0340909090909,90
60,196.13863636363635,90
60,196.97045454545454,90
60,197.12954545454545,90
60,197.71818181818182,90
60,198.10227272727272,90
60,198.5909090909091,90
60,199.09318181818182,90
60,199.82954545454544,90
60,200.075,90
60,200.5659090909091,90
60,200.81136363636364,90
60,202.03636363636363,90
60,202.48636363636362,90
60,204.0,90
60,204.90681818181818,90
60,205.27954545454546,90
60,205.97272727272727,90
60,206.46363636363634,90
60,207.4659090909091,90
60,207.95681818181816,90
60,208.6181818181818,90
60,208.7681818181818,90
60,208.88636363636363,90
60,29.825,90
60,30.486363636363635,90
60,30.784090909090907,90
60,31.104545454545452,90
60,31.754545454545454,90
60,32.06363636363636,90
60,33.03409090909091,90
60,33.24772727272727,90
60,33.34318181818182,90
60,33.663636363636364,90
60,34.293181818181814,90
60,34.61363636363636,90
60,34.934090909090905,90
60,35.56363636363636,90
60,35.893181818181816,90
60,36.21363636363636,90
60,36.85227272727273,90
60,37.163636363636364,90
60,37.48181818181818,90
60,38.12272727272727,90
60,38.43181818181818,90
60,38.76363636363636,90
60,39.39090909090909,90
60,39.72272727272727,90
60,40.043181818181814,90
60,40.68181818181818,90
60,40.99090909090909,90
60,41.32272727272727,90
60,41.96363636363636,90
60,42.27272727272727,90
60,42.590909090909086,90
60,43.24318181818182,90
60,43.54090909090909,90
60,43.87272727272727,90
60,44.502272727272725,90
60,44.83181818181818,90
60,45.152272727272724,90
60,45.79090909090909,90
60,46.10227272727273,90
60,46.42045454545455,90
60,47.06136363636364,90
60,48.64090909090909,90
60,48.98181818181818,90
60,49.611363636363635,90
60,49.94090909090909,90
60,50.26136363636363,90
60,50.89090909090909,90
60,51.211363636363636,90
60,51.52954545454545,90
60,52.15909090909091,90
60,52.490909090909085,90
60,52.81136363636363,90
60,53.44090909090909,90
60,53.75909090909091,90
60,54.07954545454545,90
60,54.4,90
60,54.720454545454544,90
60,55.04090909090909,90
60,55.35909090909091,90
60,56.0,90
60,56.309090909090905,90
60,56.64090909090909,90
60,57.27045454545454,90
60,57.58863636363636,90
60,57.90909090909091,90
60,58.84772727272727,90
60,59.168181818181814,90
60,69.38636363636363,90
60,70.03636363636363,90
60,70.34772727272727,90
60,71.94772727272726,90
60,72.58636363636363,90
60,73.2159090909091,90
60,73.86590909090908,90
60,74.49545454545454,90
60,75.13636363636363,90
60,75.45681818181818,90
60,76.41590909090908,90
60,77.68636363636364,90
60,77.99545454545454,90
60,78.9659090909091,90
60,80.23409090909091,90
60,81.8340909090909,90
60,83.10454545454544,90
60,85.34318181818182,90
60,86.92272727272727,90
60,87.26363636363637,90
60,87.90454545454546,90
60,88.54318181818181,90
60,89.1840909090909,90
60,108.97045454545454,90
60,119.21136363636363,90
60,119.79772727272727,90
60,120.10681818181817,90
60,121.38636363636363,90
60,125.21590909090908,90
60,125.85681818181817,90
60,126.49545454545454,90
60,127.77499999999999,90
60,137.36590909090907,90
60,139.275,90
60,141.825,90
60,0.2568181818181818,90
60,0.7136363636363636,90
60,1.025,90
60,1.1636363636363636,90
60,1.3113636363636363,90
60,1.6113636363636363,90
60,2.059090909090909,90
60,2.356818181818182,90
60,2.6659090909090906,90
60,3.1136363636363633,90
60,3.425,90
60,3.5636363636363635,90
60,3.711363636363636,90
60,4.011363636363636,90
60,4.459090909090909,90
60,4.756818181818182,90
60,5.056818181818182,90
60,5.513636363636364,90
60,5.8136363636363635,90
60,5.963636363636363,90
60,6.111363636363636,90
60,6.411363636363636,90
60,6.570454545454545,90
60,6.870454545454545,90
60,7.168181818181818,90
60,7.477272727272727,90
60,7.913636363636363,90
60,8.213636363636363,90
60,8.363636363636363,90
60,8.522727272727272,90
60,8.811363636363636,90
60,8.970454545454546,90
60,9.86590909090909,90
60,10.313636363636363,90
60,10.763636363636364,90
60,11.211363636363636,90
60,11.670454545454545,90
60,11.968181818181817,90
60,12.26590909090909,90
60,12.713636363636363,90
60,13.163636363636362,90
60,13.620454545454544,90
60,14.070454545454545,90
60,14.368181818181817,90
60,14.665909090909091,90
60,15.113636363636363,90
60,15.563636363636363,90
60,16.020454545454545,90
60,16.470454545454544,90
60,16.768181818181816,90
60,17.06590909090909,90
60,17.513636363636362,90
60,17.972727272727273,90
60,18.420454545454543,90
60,18.870454545454546,90
60,19.168181818181818,90
60,19.477272727272727,90
60,19.925,90
60,20.37272727272727,90
60,20.820454545454545,90
60,21.279545454545453,90
60,21.579545454545453,90
60,21.877272727272725,90
60,22.325,90
60,22.772727272727273,90
60,23.23181818181818,90
60,23.679545454545455,90
60,23.979545454545452,90
60,24.277272727272727,90
60,24.724999999999998,90
60,25.172727272727272,90
60,25.63181818181818,90
60,26.079545454545453,90
60,26.379545454545454,90
60,26.677272727272726,90
60,27.136363636363637,90
60,27.584090909090907,90
60,29.097727272727273,90
60,29.547727272727272,90
60,29.98409090909091,90
60,30.443181818181817,90
60,30.89090909090909,90
60,31.188636363636363,90
60,31.488636363636363,90
60,31.936363636363634,90
60,32.39545454545454,90
60,32.84318181818182,90
60,33.29090909090909,90
60,33.58863636363636,90
60,33.888636363636365,90
60,34.34772727272727,90
60,34.79545454545455,90
60,35.24318181818182,90
60,35.69090909090909,90
60,35.98863636363636,90
60,36.29772727272727,90
60,36.74772727272727,90
60,37.195454545454545,90
60,37.643181818181816,90
60,37.95227272727273,90
60,38.10227272727273,90
60,38.25,90
60,38.4,90
60,38.55,90
60,38.69772727272727,90
60,39.00909090909091,90
60,39.14772727272727,90
60,39.30681818181818,90
60,39.45681818181818,90
60,39.60454545454545,90
60,39.75454545454545,90
60,39.904545454545456,90
60,40.05227272727272,90
60,40.20227272727273,90
60,40.35227272727273,90
60,40.51136363636363,90
60,40.66136363636363,90
60,40.81136363636364,90
60,40.959090909090904,90
60,41.10909090909091,90
60,41.40909090909091,90
60,41.55681818181818,90
60,41.70681818181818,90
60,41.85681818181818,90
60,42.00454545454545,90
60,42.16590909090909,90
60,42.304545454545455,90
60,42.46363636363636,90
60,42.60227272727273,90
60,42.76363636363636,90
60,42.91136363636363,90
60,43.06136363636364,90
60,43.211363636363636,90
60,43.50909090909091,90
60,43.67045454545455,90
60,43.809090909090905,90
60,43.95681818181818,90
60,44.11818181818182,90
60,44.25681818181818,90
60,44.40454545454545,90
60,44.56590909090909,90
60,44.71363636363636,90
60,44.86363636363636,90
60,45.01363636363636,90
60,45.163636363636364,90
60,45.31136363636364,90
60,45.461363636363636,90
60,45.611363636363635,90
60,45.75909090909091,90
60,45.90909090909091,90
60,46.209090909090904,90
60,46.35681818181818,90
60,46.518181818181816,90
60,46.66590909090909,90
60,46.81590909090909,90
60,46.965909090909086,90
60,47.11363636363636,90
60,47.26363636363636,90
60,47.413636363636364,90
60,47.56363636363636,90
60,47.72272727272727,90
60,47.87272727272727,90
60,48.02045454545454,90
60,50.709090909090904,90
60,53.12045454545454,90
60,55.52954545454545,90
60,57.92045454545454,90
60,58.37954545454545,90
60,58.67727272727272,90
60,59.73409090909091,90
60,59.881818181818176,90
60,60.03181818181818,90
60,60.18181818181818,90
60,60.32954545454545,90
60,60.77954545454545,90
60,61.236363636363635,90
60,62.13409090909091,90
60,62.72954545454545,90
60,63.04090909090909,90
60,64.5340909090909,90
60,65.12954545454545,90
60,65.73863636363636,90
60,67.52954545454546,90
60,67.98863636363636,90
60,68.43636363636364,90
60,69.19545454545454,90
60,69.49318181818181,90
60,69.64318181818182,90
60,69.79090909090908,90
60,72.32954545454545,90
60,72.64999999999999,90
60,72.95,90
60,73.24772727272727,90
60,73.54772727272727,90
60,74.14318181818182,90
60,74.45227272727273,90
60,74.74090909090908,90
60,75.05,90
60,75.35,90
60,75.64772727272727,90
60,75.94772727272726,90
60,76.24545454545454,90
60,76.40454545454546,90
60,76.54318181818182,90
60,76.85227272727272,90
60,77.14090909090909,90
60,77.75,90
60,78.04772727272727,90
60,78.65681818181818,90
60,78.95454545454545,90
60,79.25227272727273,90
60,79.55227272727272,90
60,79.85,90
60,80.44772727272726,90
60,80.74772727272727,90
60,81.05681818181817,90
60,81.35454545454544,90
60,81.65227272727272,90
60,81.95227272727273,90
60,82.5590909090909,90
60,82.85909090909091,90
60,83.14772727272727,90
60,83.45681818181818,90
60,84.35227272727272,90
60,84.66136363636363,90
60,84.9590909090909,90
60,85.2590909090909,90
60,85.55681818181817,90
60,85.85681818181818,90
60,86.15454545454546,90
60,86.45227272727273,90
60,86.75227272727273,90
60,87.06136363636364,90
60,87.35909090909091,90
60,88.26590909090909,90
60,89.15227272727272,90
60,89.75,90
60,90.35681818181818,90
60,90.95454545454545,90
60,91.56363636363636,90
60,92.01136363636363,90
60,92.4590909090909,90
60,92.90681818181818,90
60,94.5590909090909,90
60,96.35227272727272,90
60,96.81136363636364,90
60,97.2590909090909,90
60,97.70681818181818,90
60,98.15454545454546,90
60,98.46363636363635,90
60,98.76363636363637,90
60,99.21136363636363,90
60,99.6590909090909,90
60,100.11818181818181,90
60,100.26590909090909,90
60,100.56590909090909,90
60,101.16363636363636,90
60,102.51818181818182,90
60,102.96590909090908,90
60,103.26363636363637,90
60,105.97272727272727,90
60,106.42045454545455,90
60,106.58181818181818,90
60,106.87045454545454,90
60,107.17954545454545,90
60,107.48863636363636,90
60,107.62727272727273,90
60,107.77499999999999,90
60,107.93636363636364,90
60,108.07499999999999,90
60,108.37272727272726,90
60,108.82045454545454,90
60,109.12954545454545,90
60,109.27954545454546,90
60,109.42954545454545,90
60,110.02727272727272,90
60,110.18636363636364,90
60,110.33636363636363,90
60,110.475,90
60,110.6340909090909,90
60,110.7840909090909,90
60,111.09318181818182,90
60,111.23181818181817,90
60,111.67954545454545,90
60,111.97954545454544,90
60,112.13863636363635,90
60,112.28863636363636,90
60,112.43636363636364,90
60,112.58636363636363,90
60,112.73636363636363,90
60,112.88636363636363,90
60,113.1840909090909,90
60,113.34318181818182,90
60,113.48181818181817,90
60,113.63181818181818,90
60,113.78181818181818,90
60,113.94090909090909,90
60,114.07954545454545,90
60,114.24090909090908,90
60,114.38863636363635,90
60,114.53863636363636,90
60,114.68863636363636,90
60,114.83636363636363,90
60,114.98636363636363,90
60,115.13636363636363,90
60,115.28636363636363,90
60,117.97272727272727,90
60,118.44318181818181,90
60,118.89090909090909,90
60,119.35,90
60,119.49772727272726,90
60,119.79772727272727,90
60,120.09545454545454,90
60,120.39545454545454,90
60,120.69318181818181,90
60,120.84318181818182,90
60,120.99090909090908,90
60,121.29090909090908,90
60,121.44999999999999,90
60,121.89772727272727,90
60,122.19772727272726,90
60,122.49545454545454,90
60,122.80454545454545,90
60,123.25227272727273,90
60,123.40227272727272,90
60,123.70227272727273,90
60,123.85,90
60,124.29772727272727,90
60,124.59772727272727,90
60,124.89545454545454,90
60,125.20454545454545,90
60,125.50454545454545,90
60,125.65227272727272,90
60,125.80227272727272,90
60,126.10227272727272,90
60,126.25,90
60,126.7090909090909,90
60,126.99772727272726,90
60,127.30681818181817,90
60,127.60454545454544,90
60,127.90454545454544,90
60,128.0522727272727,90
60,128.2022727272727,90
60,128.50227272727273,90
60,128.65,90
60,128.9590909090909,90
60,129.1090909090909,90
60,129.39772727272728,90
60,129.70681818181816,90
60,130.00454545454545,90
60,130.30454545454546,90
60,130.4522727272727,90
60,130.60227272727272,90
60,130.90227272727273,90
60,131.06136363636364,90
60,131.3590909090909,90
60,131.5090909090909,90
60,131.8090909090909,90
60,132.10681818181817,90
60,132.40454545454546,90
60,132.71363636363637,90
60,132.86363636363635,90
60,133.00227272727273,90
60,133.3022727272727,90
60,133.46136363636364,90
60,133.7590909090909,90
60,133.9090909090909,90
60,134.2090909090909,90
60,134.50681818181818,90
60,134.80454545454546,90
60,135.11363636363635,90
60,135.25227272727273,90
60,135.41363636363636,90
60,135.7022727272727,90
60,135.86136363636362,90
60,136.1590909090909,90
60,136.3090909090909,90
60,136.6090909090909,90
60,136.9181818181818,90
60,137.20454545454544,90
60,137.51363636363635,90
60,137.65227272727273,90
60,137.81363636363636,90
60,137.96363636363637,90
60,138.11136363636362,90
60,138.26136363636363,90
60,138.41136363636363,90
60,138.5590909090909,90
60,138.72045454545454,90
60,139.0090909090909,90
60,139.1681818181818,90
60,139.3068181818182,90
60,139.4659090909091,90
60,139.60454545454544,90
60,139.76590909090908,90
60,139.91363636363636,90
60,140.0522727272727,90
60,140.225,90
60,140.36363636363635,90
60,140.51136363636363,90
60,140.67272727272726,90
60,140.82045454545454,90
60,140.9590909090909,90
60,141.27045454545453,90
60,141.4090909090909,90
60,141.5681818181818,90
60,141.70681818181816,90
60,142.00454545454545,90
60,142.31363636363636,90
60,142.46363636363637,90
60,142.625,90
60,142.76363636363635,90
60,142.91136363636363,90
60,143.22045454545454,90
60,143.3590909090909,90
60,143.67045454545453,90
60,143.8090909090909,90
60,144.11818181818182,90
60,144.41590909090908,90
60,144.575,90
60,144.71363636363637,90
60,144.86363636363635,90
60,145.025,90
60,145.17272727272726,90
60,145.31136363636364,90
60,145.62045454545455,90
60,145.7590909090909,90
60,146.07954545454544,90
60,146.21818181818182,90
60,146.37954545454545,90
60,146.5181818181818,90
60,146.6772727272727,90
60,146.8159090909091,90
60,146.975,90
60,147.125,90
60,147.26363636363635,90
60,147.42499999999998,90
60,147.57272727272726,90
60,147.71136363636364,90
60,148.02045454545453,90
60,148.1818181818182,90
60,148.32045454545454,90
60,148.47045454545454,90
60,148.62954545454545,90
60,148.77954545454546,90
60,148.9181818181818,90
60,149.2159090909091,90
60,149.66363636363636,90
60,150.12272727272727,90
60,150.42045454545453,90
60,150.87045454545455,90
60,151.3181818181818,90
60,151.61590909090907,90
60,152.075,90
60,152.52272727272725,90
60,152.97045454545454,90
60,153.45,90
60,153.72727272727272,90
60,154.02727272727273,90
60,154.475,90
60,154.92272727272726,90
60,155.22045454545454,90
60,156.4272727272727,90
60,157.3340909090909,90
60,158.83636363636361,90
60,159.7340909090909,90
60,160.93863636363636,90
60,161.23636363636362,90
60,162.1340909090909,90
60,163.33863636363637,90
60,163.64772727272725,90
60,164.5431818181818,90
60,166.03636363636363,90
60,166.48636363636362,90
60,166.9340909090909,90
60,167.38181818181818,90
60,167.82954545454544,90
60,168.12727272727273,90
60,168.4272727272727,90
60,168.88636363636363,90
60,169.3340909090909,90
60,169.79090909090908,90
60,170.24090909090907,90
60,170.53863636363636,90
60,170.83636363636361,90
60,171.28636363636363,90
60,171.7340909090909,90
60,172.1818181818182,90
60,172.64090909090908,90
60,172.93863636363636,90
60,173.23636363636362,90
60,173.68636363636364,90
60,174.1431818181818,90
60,174.5909090909091,90
60,175.04090909090908,90
60,175.33863636363637,90
60,175.64772727272725,90
60,176.08636363636361,90
60,176.5431818181818,90
60,176.99090909090907,90
60,177.45,90
60,177.75,90
60,178.04772727272726,90
60,178.49545454545455,90
60,178.9431818181818,90
60,180.44772727272726,90
60,180.89545454545453,90
60,181.20454545454544,90
60,181.35454545454544,90
60,181.50454545454545,90
60,181.8022727272727,90
60,182.25,90
60,182.54999999999998,90
60,182.84772727272727,90
60,183.29545454545453,90
60,183.61590909090907,90
60,183.75454545454545,90
60,183.91363636363636,90
60,184.2022727272727,90
60,184.64999999999998,90
60,184.95,90
60,29.813636363636363,90
60,42.304545454545455,90
60,44.05227272727272,90
60,47.52954545454545,90
60,52.77954545454545,90
60,56.24545454545454,90
60,59.711363636363636,90
60,66.66590909090908,90
60,70.12272727272727,90
60,80.56590909090909,90
60,82.95454545454545,90
60,87.52954545454546,90
60,89.27045454545454,90
60,100.56590909090909,90
60,101.44090909090909,90
60,103.16818181818181,90
60,104.91818181818181,90
60,105.79090909090908,90
60,106.21818181818182,90
60,107.52045454545454,90
60,107.95681818181818,90
60,108.3840909090909,90
60,108.82045454545454,90
60,109.2590909090909,90
60,111.87272727272726,90
60,112.73636363636363,90
60,114.475,90
60,118.81590909090909,90
60,119.69090909090909,90
60,121.42954545454545,90
60,123.16818181818181,90
60,124.91818181818181,90
60,126.64545454545454,90
60,128.3840909090909,90
60,129.2590909090909,90
60,130.12272727272727,90
60,130.5590909090909,90
60,131.87272727272727,90
60,137.08863636363637,90
60,137.9522727272727,90
60,138.8272727272727,90
60,139.26363636363635,90
60,139.6909090909091,90
60,139.91363636363636,90
60,140.12727272727273,90
60,140.5659090909091,90
60,141.4409090909091,90
60,141.65227272727273,90
60,141.87727272727273,90
60,142.0909090909091,90
60,142.30454545454546,90
60,142.74090909090907,90
60,142.9659090909091,90
60,144.0431818181818,90
60,144.47954545454544,90
60,145.12954545454545,90
60,145.34318181818182,90
60,145.78181818181818,90
60,146.21818181818182,90
60,146.65681818181818,90
60,147.09318181818182,90
60,147.52045454545453,90
60,147.95681818181816,90
60,148.17045454545453,90
60,148.40454545454546,90
60,148.6090909090909,90
60,148.83181818181816,90
60,149.04545454545453,90
60,149.2590909090909,90
60,149.69545454545454,90
60,149.92045454545453,90
60,150.12272727272727,90
60,150.34772727272727,90
60,150.5590909090909,90
60,150.7840909090909,90
60,150.99772727272727,90
60,151.22045454545454,90
60,151.4340909090909,90
60,151.64772727272725,90
60,151.86136363636362,90
60,152.08636363636364,90
60,152.29772727272726,90
60,152.51136363636363,90
60,152.73636363636362,90
60,153.17272727272726,90
60,153.38636363636363,90
60,153.61136363636362,90
60,153.8340909090909,90
60,154.04772727272726,90
60,154.26136363636363,90
60,154.475,90
60,155.125,90
60,155.35,90
60,155.57272727272726,90
60,156.21363636363637,90
60,156.66136363636363,90
60,157.08863636363637,90
60,157.75,90
60,157.9522727272727,90
60,158.61363636363635,90
60,158.8272727272727,90
60,159.04999999999998,90
60,159.6909090909091,90
60,160.13863636363635,90
60,160.55454545454543,90
60,160.78863636363636,90
60,161.42954545454543,90
60,161.87727272727273,90
60,162.0909090909091,90
60,162.31363636363636,90
60,162.5181818181818,90
60,163.17954545454543,90
60,163.82954545454544,90
60,164.0431818181818,90
60,164.49090909090907,90
60,177.89772727272725,90
60,178.35681818181817,90
60,178.61363636363635,90
60,178.8272727272727,90
60,179.04090909090908,90
60,179.91363636363636,90
60,180.14999999999998,90
60,181.4181818181818,90
60,182.2931818181818,90
60,182.74090909090907,90
60,183.15681818181818,90
60,183.60454545454544,90
60,184.03181818181818,90
60,184.47045454545454,90
60,184.89545454545453,90
60,185.3340909090909,90
60,185.77045454545453,90
60,186.21818181818182,90
60,186.6340909090909,90
60,187.5090909090909,90
60,188.3840909090909,90
60,189.24772727272727,90
60,189.69545454545454,90
60,190.12272727272727,90
60,190.5590909090909,90
60,190.98636363636362,90
60,191.4340909090909,90
60,29.825,90
60,30.143181818181816,90
60,30.325,90
60,30.570454545454545,90
60,30.752272727272725,90
60,31.029545454545453,90
60,31.179545454545455,90
60,31.91363636363636,90
60,32.502272727272725,90
60,32.68181818181818,90
60,32.92727272727272,90
60,33.38636363636363,90
60,33.513636363636365,90
60,34.26136363636363,90
60,34.836363636363636,90
60,35.029545454545456,90
60,35.275,90
60,35.74318181818182,90
60,35.87272727272727,90
60,36.21363636363636,90
60,36.61818181818182,90
60,36.74772727272727,90
60,36.81136363636364,90
60,37.20454545454545,90
60,37.38636363636363,90
60,37.63181818181818,90
60,37.80227272727272,90
60,38.090909090909086,90
60,38.21818181818182,90
60,38.570454545454545,90
60,38.61363636363636,90
60,38.965909090909086,90
60,39.10454545454545,90
60,39.55227272727272,90
60,39.74318181818182,90
60,39.97954545454545,90
60,40.43636363636364,90
60,40.586363636363636,90
60,40.918181818181814,90
60,41.90909090909091,90
60,42.10227272727273,90
60,42.336363636363636,90
60,42.720454545454544,90
60,42.79545454545455,90
60,43.275,90
60,43.67045454545455,90
60,43.85,90
60,43.97954545454545,90
60,44.25681818181818,90
60,44.43636363636364,90
60,44.69318181818181,90
60,45.04545454545455,90
60,45.14090909090909,90
60,45.62045454545454,90
60,46.01590909090909,90
60,46.209090909090904,90
60,46.625,90
60,46.79545454545454,90
60,47.445454545454545,90
60,48.51136363636363,90
60,48.970454545454544,90
60,49.152272727272724,90
60,49.39772727272727,90
60,49.85681818181818,90
60,50.72954545454545,90
60,51.32727272727273,90
60,51.49772727272727,90
60,51.75454545454545,90
60,51.913636363636364,90
60,52.20227272727273,90
60,52.51136363636363,90
60,52.68181818181818,90
60,53.07727272727273,90
60,53.22727272727273,90
60,53.675,90
60,53.865909090909085,90
60,54.10227272727273,90
60,54.570454545454545,90
60,55.434090909090905,90
60,55.57272727272727,90
60,55.861363636363635,90
60,56.03181818181818,90
60,56.21363636363636,90
60,56.459090909090904,90
60,56.61818181818182,90
60,56.918181818181814,90
60,57.04545454545454,90
60,57.631818181818176,90
60,58.37954545454545,90
60,58.559090909090905,90
60,58.804545454545455,90
60,59.05,90
60,59.26363636363636,90
60,59.402272727272724,90
60,119.21136363636363,90
60,119.60454545454544,90
60,119.98863636363636,90
60,120.57499999999999,90
60,120.875,90
60,121.44999999999999,90
60,121.92954545454545,90
60,122.34772727272727,90
60,122.9340909090909,90
60,123.06136363636364,90
60,123.23181818181817,90
60,123.39090909090909,90
60,123.8090909090909,90
60,124.28863636363636,90
60,124.57499999999999,90
60,124.69318181818181,90
60,124.9590909090909,90
60,125.27954545454544,90
60,125.57954545454545,90
60,126.16590909090908,90
60,126.64545454545454,90
60,126.89090909090909,90
60,127.05,90
60,127.5090909090909,90
60,127.62727272727273,90
60,127.93636363636362,90
60,128.52272727272728,90
60,128.9590909090909,90
60,128.99090909090907,90
60,129.2590909090909,90
60,129.39772727272728,90
60,129.88863636363635,90
60,129.9840909090909,90
60,130.2931818181818,90
60,130.87045454545455,90
60,131.3272727272727,90
60,131.74318181818182,90
60,132.21363636363637,90
60,132.3409090909091,90
60,132.64090909090908,90
60,133.22727272727272,90
60,133.67499999999998,90
60,134.10227272727272,90
60,134.5590909090909,90
60,134.68863636363636,90
60,134.99772727272727,90
60,135.57272727272726,90
60,136.0522727272727,90
60,136.4590909090909,90
60,136.9181818181818,90
60,137.04545454545453,90
60,137.34318181818182,90
60,137.92045454545453,90
60,138.15454545454546,90
60,138.65681818181818,90
60,138.8159090909091,90
60,138.9340909090909,90
60,139.40227272727273,90
60,139.7022727272727,90
60,139.92499999999998,90
60,140.27727272727273,90
60,140.7681818181818,90
60,141.01363636363635,90
60,141.16363636363636,90
60,141.75,90
60,142.04772727272726,90
60,142.21818181818182,90
60,142.35681818181817,90
60,142.64545454545453,90
60,142.9659090909091,90
60,143.52045454545453,90
60,144.10681818181817,90
60,144.41590909090908,90
60,144.98181818181817,90
60,145.4409090909091,90
60,145.87727272727273,90
60,146.4522727272727,90
60,146.76363636363635,90
60,147.33863636363637,90
60,148.225,90
60,148.81136363636364,90
60,149.73863636363635,90
60,152.075,90
60,155.3181818181818,90
60,156.1909090909091,90
60,159.11363636363635,90
60,161.48181818181817,90
60,163.82954545454544,90
60,166.19772727272726,90
60,168.5431818181818,90
60,170.90227272727273,90
60,175.5840909090909,90
60,177.9522727272727,90
60,4.118181818181818,90
60,4.693181818181818,90
60,5.86590909090909,90
60,6.4431818181818175,90
60,7.018181818181818,90
60,8.768181818181818,90
60,9.631818181818181,90
60,29.825,90
60,52.74772727272727,90
60,57.39772727272727,90
60,66.72954545454544,90
60,73.12954545454545,90
60,73.42954545454545,90
60,73.71818181818182,90
60,74.00454545454545,90
60,76.35227272727272,90
60,77.79090909090908,90
60,78.37954545454545,90
60,78.67727272727272,90
60,81.00227272727273,90
60,82.16590909090908,90
60,82.45227272727273,90
60,83.04090909090908,90
60,84.50227272727273,90
60,85.375,90
60,86.82727272727273,90
60,87.41363636363636,90
60,115.69090909090909,90
60,118.01590909090909,90
60,122.65681818181818,90
60,124.99090909090908,90
60,127.31818181818181,90
60,129.6431818181818,90
60,136.35227272727272,90
60,138.9659090909091,90
60,141.29090909090908,90
60,142.46363636363637,90
60,144.78863636363636,90
60,148.28863636363636,90
60,149.15227272727273,90
60,149.73863636363635,90
60,150.03636363636363,90
60,150.18636363636364,90
60,150.325,90
60,150.625,90
60,151.48863636363635,90
60,152.075,90
60,152.93863636363636,90
60,153.525,90
60,153.825,90
60,154.4,90
60,154.68863636363636,90
60,155.28636363636363,90
60,155.86136363636362,90
60,156.15,90
60,156.725,90
60,157.025,90
60,157.31136363636364,90
60,157.61136363636362,90
60,158.18636363636364,90
60,158.625,90
60,159.06136363636364,90
60,159.35,90
60,159.93636363636364,90
60,160.37272727272727,90
60,160.51136363636363,90
60,160.95,90
60,161.2590909090909,90
60,161.39772727272725,90
60,161.68636363636364,90
60,161.97272727272727,90
60,162.12272727272727,90
60,162.26136363636363,90
60,163.28636363636363,90
60,163.5840909090909,90
60,163.72272727272727,90
60,164.02045454545453,90
60,164.59772727272727,90
60,164.89545454545453,90
60,165.48181818181817,90
60,165.77045454545453,90
60,166.04772727272726,90
60,166.34772727272727,90
60,166.6340909090909,90
60,166.9340909090909,90
60,167.22045454545454,90
60,167.52045454545453,90
60,167.94772727272726,90
60,168.08636363636361,90
60,168.3840909090909,90
60,168.67272727272726,90
60,168.9590909090909,90
60,171.57272727272726,90
60,178.87954545454545,90
60,179.0090909090909,90
60,179.44545454545454,90
60,179.60454545454544,90
60,187.8931818181818,90
60,188.47954545454544,90
60,188.9181818181818,90
60,189.20454545454544,90
60,189.6431818181818,90
60,190.8159090909091,90
60,191.40227272727273,90
60,191.97954545454544,90
60,193.14090909090908,90
60,193.57954545454544,90
60,193.86590909090907,90
60,194.30454545454543,90
60,194.60227272727272,90
60,196.0431818181818,90
60,196.62954545454545,90
60,35.58409090909091,90
60,35.88181818181818,90
60,36.768181818181816,90
60,37.929545454545455,90
60,38.21818181818182,90
60,38.66590909090909,90
60,39.10454545454545,90
60,40.26590909090909,90
60,41.44090909090909,90
60,42.61363636363636,90
60,42.91136363636363,90
60,43.35,90
60,43.78636363636363,90
60,44.074999999999996,90
60,44.949999999999996,90
60,45.24772727272727,90
60,45.53636363636363,90
60,46.12272727272727,90
60,46.42045454545455,90
60,47.29545454545454,90
60,47.584090909090904,90
60,47.87272727272727,90
60,48.459090909090904,90
60,48.768181818181816,90
60,49.63181818181818,90
60,49.929545454545455,90
60,50.22954545454545,90
60,50.804545454545455,90
60,52.26590909090909,90
60,52.56590909090909,90
60,53.152272727272724,90
60,54.31363636363636,90
60,54.61363636363636,90
60,55.49772727272727,90
60,56.66136363636363,90
60,56.959090909090904,90
60,57.834090909090904,90
60,58.42045454545454,90
60,58.99772727272727,90
60,59.29545454545454,90
60,68.37272727272727,90
60,69.54772727272727,90
60,109.04545454545455,90
60,109.64318181818182,90
60,122.22954545454544,90
60,124.56590909090909,90
60,125.29090909090908,90
60,126.175,90
60,126.475,90
60,126.75227272727273,90
60,126.91136363636363,90
60,129.24772727272727,90
60,129.53636363636363,90
60,130.1340909090909,90
60,131.88181818181818,90
60,132.32045454545454,90
60,132.47045454545454,90
60,133.0568181818182,90
60,133.49318181818182,90
60,133.92954545454546,90
60,134.21818181818182,90
60,134.66590909090908,90
60,134.80454545454546,90
60,135.39090909090908,90
60,136.5659090909091,90
60,137.00227272727273,90
60,137.73863636363635,90
60,138.17499999999998,90
60,138.61363636363635,90
60,138.91136363636363,90
60,139.35,90
60,139.49772727272727,90
60,140.075,90
60,140.66136363636363,90
60,140.95,90
60,141.24772727272727,90
60,141.68636363636364,90
60,141.84545454545454,90
60,142.12272727272727,90
60,142.41136363636363,90
60,142.8590909090909,90
60,143.0090909090909,90
60,143.29545454545453,90
60,143.5840909090909,90
60,144.03181818181818,90
60,144.17045454545453,90
60,144.47045454545454,90
60,144.75681818181818,90
60,145.20454545454544,90
60,145.35454545454544,90
60,145.6431818181818,90
60,145.92954545454543,90
60,146.36818181818182,90
60,146.52727272727273,90
60,146.80454545454543,90
60,147.10454545454544,90
60,147.54090909090908,90
60,147.97954545454544,90
60,148.26590909090908,90
60,148.85227272727272,90
60,150.03636363636363,90
60,150.325,90
60,150.61363636363635,90
60,150.91136363636363,90
60,151.06136363636364,90
60,151.2,90
60,151.78636363636363,90
60,152.08636363636364,90
60,152.2340909090909,90
60,152.66136363636363,90
60,152.9590909090909,90
60,153.54772727272726,90
60,154.42045454545453,90
60,155.0090909090909,90
60,155.29545454545453,90
60,155.59545454545454,90
60,155.7340909090909,90
60,155.88181818181818,90
60,156.1818181818182,90
60,156.47045454545454,90
60,156.75681818181818,90
60,156.90681818181818,90
60,157.34318181818182,90
60,157.6431818181818,90
60,157.92954545454543,90
60,158.07954545454544,90
60,158.5181818181818,90
60,158.80454545454543,90
60,159.10454545454544,90
60,159.25227272727273,90
60,159.6909090909091,90
60,159.97954545454544,90
60,160.4272727272727,90
60,160.575,90
60,160.85227272727272,90
60,161.15227272727273,90
60,161.6,90
60,162.02727272727273,90
60,162.325,90
60,163.07272727272726,90
60,163.2,90
60,163.49772727272727,90
60,163.93636363636364,90
60,164.37272727272727,90
60,164.66136363636363,90
60,164.97045454545454,90
60,166.12272727272727,90
60,169.04545454545453,90
60,169.34318181818182,90
60,169.6431818181818,90
60,169.92954545454543,90
60,170.22954545454544,90
60,29.813636363636363,90
60,29.86590909090909,90
60,30.01590909090909,90
60,30.304545454545455,90
60,30.74090909090909,90
60,31.179545454545455,90
60,31.46590909090909,90
60,31.904545454545453,90
60,32.20227272727273,90
60,32.340909090909086,90
60,32.64090909090909,90
60,33.06590909090909,90
60,33.50454545454545,90
60,33.80227272727272,90
60,34.22954545454545,90
60,34.67727272727272,90
60,35.39090909090909,90
60,35.98863636363636,90
60,36.99090909090909,90
60,37.72727272727273,90
60,38.89090909090909,90
60,40.05227272727272,90
60,41.215909090909086,90
60,43.54090909090909,90
60,43.98863636363636,90
60,45.877272727272725,90
60,46.61363636363636,90
60,47.05,90
60,47.63636363636363,90
60,48.21363636363636,90
60,48.51136363636363,90
60,48.949999999999996,90
60,49.38636363636363,90
60,49.675,90
60,50.836363636363636,90
60,51.275,90
60,51.711363636363636,90
60,52.0,90
60,52.88636363636363,90
60,53.163636363636364,90
60,53.611363636363635,90
60,54.04772727272727,90
60,54.78409090909091,90
60,55.211363636363636,90
60,55.93636363636363,90
60,56.37272727272727,90
60,56.959090909090904,90
60,57.834090909090904,90
60,58.26136363636363,90
60,58.709090909090904,90
60,58.99772727272727,90
60,59.434090909090905,90
60,60.586363636363636,90
60,61.75909090909091,90
60,62.92272727272727,90
60,64.08636363636363,90
60,65.2590909090909,90
60,66.41136363636363,90
60,69.17272727272727,90
60,87.85,90
60,88.11818181818181,90
60,89.27954545454546,90
60,120.43636363636364,90
60,120.58636363636363,90
60,120.725,90
60,120.875,90
60,121.31136363636364,90
60,121.46136363636363,90
60,121.6,90
60,121.75,90
60,121.89772727272727,90
60,122.03636363636363,90
60,122.33636363636363,90
60,122.475,90
60,122.625,90
60,122.77272727272727,90
60,122.92272727272727,90
60,123.07272727272726,90
60,123.21136363636363,90
60,123.5090909090909,90
60,123.64772727272727,90
60,123.79772727272727,90
60,123.93636363636364,90
60,124.09545454545454,90
60,124.23409090909091,90
60,124.37272727272726,90
60,124.66136363636363,90
60,124.82045454545454,90
60,124.9590909090909,90
60,125.24772727272726,90
60,125.39772727272727,90
60,125.53636363636363,90
60,125.8340909090909,90
60,125.97272727272727,90
60,126.12272727272726,90
60,126.27272727272727,90
60,126.41136363636363,90
60,126.5590909090909,90
60,126.69772727272726,90
60,126.99772727272726,90
60,127.13636363636363,90
60,127.28636363636363,90
60,127.5840909090909,90
60,127.72272727272727,90
60,127.87272727272726,90
60,128.1590909090909,90
60,128.3090909090909,90
60,128.4590909090909,90
60,128.59772727272727,90
60,128.74772727272727,90
60,128.88636363636363,90
60,129.0340909090909,90
60,129.32272727272726,90
60,129.47272727272727,90
60,129.62045454545455,90
60,129.77045454545453,90
60,129.9090909090909,90
60,130.0590909090909,90
60,130.19772727272726,90
60,130.48636363636362,90
60,130.6340909090909,90
60,130.7840909090909,90
60,130.92272727272726,90
60,131.07272727272726,90
60,131.22045454545454,90
60,131.3590909090909,90
60,131.6590909090909,90
60,131.79772727272726,90
60,131.94772727272726,90
60,132.09545454545454,90
60,132.2340909090909,90
60,132.3840909090909,90
60,132.52272727272728,90
60,132.82045454545454,90
60,132.97045454545454,90
60,133.12045454545455,90
60,133.2590909090909,90
60,133.4090909090909,90
60,133.54772727272726,90
60,133.69545454545454,90
60,133.9840909090909,90
60,134.1340909090909,90
60,134.27272727272725,90
60,134.42045454545453,90
60,134.57045454545454,90
60,134.8590909090909,90
60,135.14772727272725,90
60,135.29545454545453,90
60,135.44545454545454,90
60,135.5840909090909,90
60,135.7340909090909,90
60,135.88181818181818,90
60,136.02045454545453,90
60,136.3090909090909,90
60,136.4590909090909,90
60,136.6090909090909,90
60,136.74772727272727,90
60,136.89545454545453,90
60,137.04545454545453,90
60,137.19545454545454,90
60,137.48181818181817,90
60,137.62045454545455,90
60,137.77045454545453,90
60,137.92045454545453,90
60,138.0590909090909,90
60,138.2090909090909,90
60,138.35681818181817,90
60,138.50681818181818,90
60,138.64545454545453,90
60,138.79545454545453,90
60,138.9340909090909,90
60,139.08181818181816,90
60,141.4090909090909,90
60,141.70681818181816,90
60,141.84545454545454,90
60,142.2931818181818,90
60,142.58181818181816,90
60,142.72045454545454,90
60,142.87045454545455,90
60,143.0090909090909,90
60,143.3068181818182,90
60,143.45681818181816,90
60,143.59545454545454,90
60,143.74318181818182,90
60,144.0431818181818,90
60,144.1818181818182,90
60,144.7681818181818,90
60,144.90681818181818,90
60,145.34318181818182,90
60,145.78181818181818,90
60,145.92954545454543,90
60,146.07045454545454,90
60,146.36818181818182,90
60,146.50681818181818,90
60,146.80454545454543,90
60,146.95454545454544,90
60,147.09318181818182,90
60,147.23181818181817,90
60,147.67045454545453,90
60,147.96818181818182,90
60,148.10681818181817,90
60,148.25681818181818,90
60,148.40454545454546,90
60,148.6931818181818,90
60,148.84318181818182,90
60,149.14090909090908,90
60,149.27954545454546,90
60,149.42954545454543,90
60,149.85681818181817,90
60,150.00454545454545,90
60,150.30454545454543,90
60,150.4431818181818,90
60,150.5909090909091,90
60,151.17954545454543,90
60,151.4659090909091,90
60,151.60454545454544,90
60,151.75454545454545,90
60,152.1909090909091,90
60,152.3409090909091,90
60,152.7681818181818,90
60,152.9272727272727,90
60,153.35454545454544,90
60,153.50454545454545,90
60,153.79090909090908,90
60,153.9409090909091,90
60,154.0909090909091,90
60,154.5181818181818,90
60,154.66590909090908,90
60,155.10454545454544,90
60,155.25227272727273,90
60,155.6909090909091,90
60,155.82954545454544,90
60,156.12727272727273,90
60,156.26590909090908,90
60,156.41590909090908,90
60,156.85227272727272,90
60,156.99090909090907,90
60,157.29090909090908,90
60,157.42954545454543,90
60,157.58863636363637,90
60,157.72727272727272,90
60,157.87727272727273,90
60,158.01590909090908,90
60,158.16590909090908,90
60,158.4522727272727,90
60,158.60227272727272,90
60,158.75227272727273,90
60,159.04090909090908,90
60,159.17954545454543,90
60,159.3272727272727,90
60,159.61590909090907,90
60,159.76590909090908,90
60,159.91363636363636,90
60,160.0522727272727,90
60,160.3409090909091,90
60,160.50227272727273,90
60,160.78863636363636,90
60,160.9272727272727,90
60,161.0772727272727,90
60,161.51363636363635,90
60,161.66363636363636,90
60,161.9522727272727,90
60,162.0909090909091,90
60,162.24090909090907,90
60,162.37954545454545,90
60,162.6772727272727,90
60,163.11363636363635,90
60,163.26363636363635,90
60,163.8409090909091,90
60,164.27727272727273,90
60,164.4272727272727,90
60,164.575,90
60,165.00227272727273,90
60,165.15227272727273,90
60,165.45,90
60,165.58863636363637,90
60,165.73863636363635,90
60,166.17499999999998,90
60,166.31363636363636,90
60,166.61363636363635,90
60,166.75227272727273,90
60,166.90227272727273,90
60,167.33863636363637,90
60,167.91363636363636,90
60,168.075,90
60,168.50227272727273,90
60,168.65,90
60,168.93863636363636,90
60,169.08863636363637,90
60,169.22727272727272,90
60,169.66363636363636,90
60,169.81363636363636,90
60,170.11136363636362,90
60,170.25,90
60,170.83636363636361,90
60,171.275,90
60,171.41363636363636,90
60,171.56363636363636,90
60,171.7022727272727,90
60,172.0,90
60,172.43636363636364,90
60,172.58636363636361,90
60,172.73636363636362,90
60,173.16363636363636,90
60,173.31136363636364,90
60,173.75,90
60,173.89772727272725,90
60,176.35227272727272,90
60,177.825,90
60,178.98636363636362,90
60,179.13636363636363,90
60,179.56363636363636,90
60,179.71136363636361,90
60,180.14999999999998,90
60,180.29772727272726,90
60,180.58636363636361,90
60,180.73636363636362,90
60,180.875,90
60,181.31136363636364,90
60,181.88863636363635,90
60,182.04772727272726,90
60,182.48636363636362,90
60,182.625,90
60,182.92272727272726,90
60,183.06136363636364,90
60,183.21136363636361,90
60,183.64772727272725,90
60,183.79772727272726,90
60,184.225,90
60,184.37272727272727,90
60,184.79999999999998,90
60,184.9590909090909,90
60,185.24772727272727,90
60,185.38636363636363,90
60,185.53636363636363,90
60,185.97272727272727,90
60,186.54999999999998,90
60,186.7090909090909,90
60,187.13636363636363,90
60,187.29545454545453,90
60,187.5840909090909,90
60,187.72272727272727,90
60,187.87272727272727,90
60,188.29772727272726,90
60,188.44772727272726,90
60,188.88636363636363,90
60,189.0340909090909,90
60,189.47272727272727,90
60,189.62045454545455,90
60,189.9090909090909,90
60,190.04772727272726,90
60,190.2090909090909,90
60,190.6340909090909,90
60,191.21136363636361,90
60,191.37045454545455,90
60,191.79772727272726,90
60,191.94772727272726,90
60,192.08636363636361,90
60,192.66136363636363,90
60,192.95,90
60,193.12045454545455,90
60,193.4090909090909,90
60,193.54772727272726,90
60,193.70681818181816,90
60,194.12272727272727,90
60,194.7090909090909,90
60,194.8590909090909,90
60,195.28636363636363,90
60,195.44545454545454,90
60,195.7340909090909,90
60,195.88181818181818,90
60,196.03181818181818,90
60,196.44772727272726,90
60,196.90681818181818,90
60,197.04545454545453,90
60,197.19545454545454,90
60,197.3340909090909,90
60,197.61136363636362,90
60,197.78181818181818,90
60,198.07045454545454,90
60,198.2090909090909,90
60,198.7840909090909,90
60,199.23181818181817,90
60,199.37045454545455,90
60,199.94772727272726,90
60,200.10681818181817,90
60,200.5431818181818,90
60,200.6931818181818,90
60,201.9840909090909,90
60,202.27272727272725,90
60,202.4431818181818,90
60,202.72045454545454,90
60,202.87045454545455,90
60,203.0181818181818,90
60,203.44545454545454,90
60,204.03181818181818,90
60,204.59772727272727,90
60,204.7681818181818,90
60,205.19545454545454,90
60,205.34318181818182,90
60,205.77045454545453,90
60,206.21818181818182,90
60,206.35681818181817,90
60,206.5181818181818,90
60,206.9340909090909,90
60,207.10454545454544,90
60,207.39090909090908,90
60,207.52954545454546,90
60,208.10681818181817,90
60,208.55454545454543,90
60,208.6931818181818,90
60,209.27045454545453,90
60,209.42954545454543,90
60,209.85681818181817,90
60,210.1431818181818,90
60,210.43181818181816,90
60,211.02954545454546,90
60,211.60454545454544,90
60,212.18181818181816,90
60,212.7681818181818,90
60,213.35454545454544,90
60,213.92954545454543,90
60,214.5181818181818,90
60,215.09318181818182,90
60,215.67954545454543,90
60,219.4659090909091,90
60,220.64090909090908,90
60,221.8022727272727,90
60,222.9659090909091,90
60,223.25227272727273,90
60,223.54090909090908,90
60,224.12727272727273,90
60,225.3022727272727,90
60,226.46363636363634,90
60,228.78863636363636,90
60,229.9522727272727,90
60,231.125,90
60,232.28863636363636,90
60,232.86363636363635,90
60,235.78636363636363,90
60,236.93863636363636,90
60,238.10227272727272,90
60,18.304545454545455,90
60,18.46363636363636,90
60,18.634090909090908,90
60,18.66590909090909,90
60,18.763636363636362,90
60,18.879545454545454,90
60,18.986363636363635,90
60,19.07272727272727,90
60,19.188636363636363,90
60,19.220454545454544,90
60,19.286363636363635,90
60,19.35909090909091,90
60,19.402272727272727,90
60,19.46590909090909,90
60,19.563636363636363,90
60,19.636363636363637,90
60,19.76590909090909,90
60,19.861363636363635,90
60,19.96818181818182,90
60,20.03181818181818,90
60,20.18181818181818,90
60,20.224999999999998,90
60,20.25681818181818,90
60,20.30909090909091,90
60,20.384090909090908,90
60,20.427272727272726,90
60,20.534090909090907,90
60,20.586363636363636,90
60,20.68181818181818,90
60,20.768181818181816,90
60,20.820454545454545,90
60,20.99090909090909,90
60,21.034090909090907,90
60,21.129545454545454,90
60,21.18409090909091,90
60,21.259090909090908,90
60,21.302272727272726,90
60,21.354545454545452,90
60,21.409090909090907,90
60,21.461363636363636,90
60,21.504545454545454,90
60,21.547727272727272,90
60,21.579545454545453,90
60,21.686363636363634,90
60,21.727272727272727,90
60,21.759090909090908,90
60,21.802272727272726,90
60,21.920454545454543,90
60,22.05909090909091,90
60,22.12272727272727,90
60,22.154545454545453,90
60,22.209090909090907,90
60,22.272727272727273,90
60,22.368181818181817,90
60,22.4,90
60,22.474999999999998,90
60,22.65681818181818,90
60,22.74090909090909,90
60,22.784090909090907,90
60,22.847727272727273,90
60,22.911363636363635,90
60,23.061363636363634,90
60,23.168181818181818,90
60,23.220454545454544,90
60,23.263636363636362,90
60,23.456818181818182,90
60,23.563636363636363,90
60,23.627272727272725,90
60,23.711363636363636,90
60,23.818181818181817,90
60,24.043181818181818,90
60,24.245454545454546,90
60,24.352272727272727,90
60,24.395454545454545,90
60,24.470454545454544,90
60,24.543181818181818,90
60,24.586363636363636,90
60,24.661363636363635,90
60,24.779545454545453,90
60,24.886363636363637,90
60,25.14090909090909,90
60,25.227272727272727,90
60,25.674999999999997,90
60,25.75,90
60,26.047727272727272,90
60,26.09090909090909,90
60,26.27272727272727,90
60,27.14772727272727,90
60,27.627272727272725,90
60,28.52272727272727,90
60,28.895454545454545,90
60,29.334090909090907,90
60,29.568181818181817,90
60,52.0,90
60,62.13409090909091,90
60,178.8159090909091,90
60,179.2,90
60,179.3590909090909,90
60,179.4659090909091,90
60,179.59545454545454,90
60,180.0,90
60,180.03181818181818,90
60,180.1909090909091,90
60,180.85227272727272,90
60,181.08863636363637,90
60,181.85681818181817,90
60,182.475,90
60,183.3181818181818,90
60,183.39090909090908,90
60,183.44545454545454,90
60,183.67954545454543,90
60,184.0431818181818,90
60,184.25681818181818,90
60,184.40454545454546,90
60,184.44772727272726,90
60,184.55454545454543,90
60,184.86363636363635,90
60,185.04545454545453,90
60,185.3022727272727,90
60,185.87727272727273,90
60,186.57045454545454,90
60,186.79545454545453,90
60,186.87045454545455,90
60,187.14772727272725,90
60,187.5522727272727,90
60,188.44772727272726,90
60,188.67272727272726,90
60,188.73636363636362,90
60,188.84318181818182,90
60,189.12954545454545,90
60,190.04772727272726,90
60,190.3681818181818,90
60,190.625,90
60,192.06363636363636,90
60,192.13863636363635,90
60,192.1909090909091,90
60,192.26590909090908,90
60,192.32954545454544,90
60,192.4590909090909,90
60,192.58636363636361,90
60,192.85227272727272,90
60,192.89545454545453,90
60,192.98181818181817,90
60,193.1090909090909,90
60,193.3022727272727,90
60,193.70681818181816,90
60,194.26136363636363,90
60,194.9431818181818,90
60,195.62727272727273,90
60,195.86136363636362,90
60,195.93636363636364,90
60,196.0,90
60,196.10681818181817,90
60,196.225,90
60,196.3840909090909,90
60,196.50227272727273,90
60,196.85227272727272,90
60,197.02499999999998,90
60,197.1840909090909,90
60,197.34318181818182,90
60,197.38636363636363,90
60,197.62045454545455,90
60,198.46363636363634,90
60,199.2431818181818,90
60,199.82954545454544,90
60,200.03181818181818,90
60,200.4272727272727,90
60,200.50227272727273,90
60,200.98181818181817,90
60,201.0659090909091,90
60,201.1090909090909,90
60,201.22727272727272,90
60,201.2590909090909,90
60,201.38636363636363,90
60,201.4181818181818,90
60,201.50454545454545,90
60,201.54772727272726,90
60,201.70681818181816,90
60,201.825,90
60,201.85681818181817,90
60,201.92045454545453,90
60,202.07954545454544,90
60,202.33636363636361,90
60,202.38863636363635,90
60,202.58181818181816,90
60,202.90227272727273,90
60,202.9431818181818,90
60,203.14772727272725,90
60,204.85227272727272,90
60,205.79090909090908,90
60,205.86590909090907,90
60,206.18636363636364,90
60,206.22954545454544,90
60,206.54999999999998,90
60,206.625,90
60,206.68863636363636,90
60,207.4659090909091,90
60,207.63636363636363,90
60,207.7431818181818,90
60,207.77499999999998,90
60,207.97954545454544,90
60,208.6090909090909,90
60,210.02727272727273,90
60,210.39999999999998,90
60,210.8272727272727,90
60,211.14772727272725,90
60,211.26363636363635,90
60,212.18181818181816,90
60,212.3840909090909,90
60,212.58636363636361,90
60,212.6181818181818,90
60,212.70454545454544,90
60,212.86363636363635,90
60,213.0659090909091,90
60,213.09772727272727,90
60,213.15227272727273,90
60,213.9522727272727,90
60,213.9840909090909,90
60,214.11136363636362,90
60,214.7840909090909,90
60,215.67045454545453,90
60,216.10681818181817,90
60,216.5431818181818,90
60,216.70454545454544,90
60,216.77954545454546,90
60,218.10227272727272,90
60,218.38863636363635,90
60,218.8272727272727,90
60,218.8590909090909,90
60,219.14772727272725,90
60,219.4659090909091,90
60,220.03181818181818,90
60,220.64090909090908,90
60,221.79090909090908,90
60,222.64545454545453,90
60,222.9659090909091,90
60,224.12727272727273,90
60,225.04545454545453,90
60,225.3022727272727,90
60,226.46363636363634,90
60,226.50681818181818,90
60,226.64545454545453,90
60,228.79999999999998,90
60,229.9522727272727,90
60,230.64545454545453,90
60,231.11363636363635,90
60,232.2772727272727,90
60,233.45,90
60,234.64545454545453,90
60,235.08181818181816,90
60,235.29545454545453,90
60,235.79772727272726,90
60,236.2022727272727,90
60,236.3409090909091,90
60,242.79545454545453,90
60,249.77045454545453,90
60,259.82954545454544,90
60,20.277272727272727,90
60,22.50681818181818,90
60,22.634090909090908,90
60,24.98181818181818,90
60,29.686363636363634,90
60,30.570454545454545,90
60,32.043181818181814,90
60,32.92727272727272,90
60,34.388636363636365,90
60,35.275,90
60,36.74772727272727,90
60,39.09318181818182,90
60,39.97954545454545,90
60,40.44772727272727,90
60,41.449999999999996,90
60,42.336363636363636,90
60,42.92272727272727,90
60,43.809090909090905,90
60,44.68181818181818,90
60,45.152272727272724,90
60,45.27954545454545,90
60,45.56818181818181,90
60,45.75,90
60,46.15454545454545,90
60,46.752272727272725,90
60,47.23181818181818,90
60,48.502272727272725,90
60,48.98181818181818,90
60,49.38636363636363,90
60,49.865909090909085,90
60,50.45227272727273,90
60,50.85909090909091,90
60,51.32727272727273,90
60,51.74318181818182,90
60,52.32954545454545,90
60,52.81136363636363,90
60,53.215909090909086,90
60,53.68636363636363,90
60,54.10227272727273,90
60,54.570454545454545,90
60,54.68863636363636,90
60,55.179545454545455,90
60,55.56363636363636,90
60,56.44772727272727,90
60,56.918181818181814,90
60,57.03409090909091,90
60,57.53636363636363,90
60,57.92045454545454,90
60,58.804545454545455,90
60,59.627272727272725,90
60,60.56590909090909,90
60,120.57499999999999,90
60,121.44999999999999,90
60,136.1590909090909,90
60,137.92954545454546,90
60,140.09545454545454,90
60,142.6340909090909,90
60,147.3272727272727,90
60,1.8568181818181817,90
60,5.738636363636363,90
60,9.686363636363636,90
60,13.643181818181818,90
60,17.55681818181818,90
60,21.45,90
60,25.409090909090907,90
60,27.402272727272727,90
60,31.318181818181817,90
60,35.263636363636365,90
60,37.22727272727273,90
60,41.17272727272727,90
60,45.08863636363636,90
60,49.03409090909091,90
60,52.959090909090904,90
60,56.88636363636363,90
60,60.84318181818182,90
60,64.77954545454546,90
60,68.71363636363635,90
60,70.68863636363636,90
60,72.64999999999999,90
60,76.58636363636363,90
60,80.51136363636363,90
60,84.4590909090909,90
60,88.36363636363636,90
60,92.32045454545454,90
60,96.25681818181818,90
60,100.19090909090909,90
60,104.10681818181817,90
60,108.06363636363636,90
60,111.98863636363636,90
60,115.925,90
60,119.85,90
60,123.78636363636363,90
60,127.72272727272727,90
60,131.6590909090909,90
60,135.59545454545454,90
60,139.52954545454546,90
60,143.4659090909091,90
60,147.39090909090908,90
60,151.33863636363637,90
60,154.77272727272725,90
60,155.275,90
60,159.21136363636361,90
60,163.13636363636363,90
60,163.5090909090909,90
60,164.01136363636363,90
60,165.12045454545455,90
60,165.48181818181817,90
60,167.08181818181816,90
60,167.45681818181816,90
60,169.4181818181818,90
60,169.92045454545453,90
60,171.38181818181818,90
60,172.12727272727273,90
60,172.99090909090907,90
60,173.35454545454544,90
60,174.95454545454544,90
60,175.3181818181818,90
60,177.29090909090908,90
60,178.87954545454545,90
60,179.26363636363635,90
60,179.75454545454545,90
60,180.0,90
60,180.36363636363635,90
60,180.85227272727272,90
60,181.2159090909091,90
60,181.70681818181816,90
60,182.325,90
60,182.8159090909091,90
60,185.15227272727273,90
60,185.65227272727273,90
60,186.75227272727273,90
60,187.11363636363635,90
60,187.60454545454544,90
60,188.2340909090909,90
60,188.71363636363637,90
60,189.08863636363637,90
60,189.57954545454544,90
60,190.19772727272726,90
60,190.68863636363636,90
60,191.04999999999998,90
60,191.79772727272726,90
60,193.02499999999998,90
60,193.51363636363635,90
60,194.61363636363635,90
60,194.98636363636362,90
60,195.47727272727272,90
60,196.09545454545454,90
60,196.58636363636361,90
60,196.9590909090909,90
60,197.45,90
60,198.54999999999998,90
60,198.92272727272726,90
60,202.48636363636362,90
60,202.8590909090909,90
60,203.35,90
60,203.96818181818182,90
60,204.4590909090909,90
60,206.42045454545453,90
60,207.28636363636363,90
60,1.4818181818181817,90
60,1.7704545454545453,90
60,2.0704545454545453,90
60,2.356818181818182,90
60,2.6454545454545455,90
60,2.943181818181818,90
60,3.2318181818181815,90
60,3.5204545454545455,90
60,3.809090909090909,90
60,4.1068181818181815,90
60,4.3954545454545455,90
60,4.681818181818182,90
60,4.970454545454545,90
60,5.418181818181818,90
60,5.568181818181818,90
60,6.143181818181818,90
60,6.7295454545454545,90
60,7.018181818181818,90
60,7.306818181818182,90
60,7.595454545454545,90
60,7.893181818181818,90
60,8.181818181818182,90
60,8.470454545454546,90
60,8.768181818181818,90
60,9.056818181818182,90
60,9.343181818181817,90
60,9.643181818181818,90
60,10.229545454545454,90
60,10.804545454545455,90
60,11.39090909090909,90
60,12.843181818181817,90
60,13.718181818181817,90
60,14.59090909090909,90
60,14.879545454545454,90
60,15.168181818181818,90
60,15.46590909090909,90
60,17.504545454545454,90
60,18.09090909090909,90
60,18.379545454545454,90
60,18.954545454545453,90
60,19.54090909090909,90
60,19.84090909090909,90
60,20.138636363636362,90
60,21.86590909090909,90
60,22.452272727272724,90
60,23.029545454545453,90
60,23.61590909090909,90
60,23.913636363636364,90
60,24.202272727272724,90
60,24.779545454545453,90
60,25.36590909090909,90
60,25.802272727272726,90
60,26.81590909090909,90
60,28.127272727272725,90
60,28.288636363636364,90
60,28.575,90
60,28.863636363636363,90
60,29.440909090909088,90
60,30.01590909090909,90
60,30.313636363636363,90
60,30.46363636363636,90
60,30.89090909090909,90
60,31.188636363636363,90
60,31.477272727272727,90
60,31.775,90
60,32.35227272727273,90
60,32.64090909090909,90
60,32.788636363636364,90
60,33.22727272727273,90
60,33.513636363636365,90
60,33.80227272727272,90
60,34.10227272727273,90
60,34.67727272727272,90
60,34.975,90
60,35.11363636363636,90
60,35.55227272727272,90
60,35.85,90
60,36.13863636363636,90
60,36.725,90
60,37.30227272727272,90
60,89.41818181818181,90
60,89.73863636363636,90
60,90.03636363636363,90
60,90.32499999999999,90
60,91.18863636363636,90
60,91.77499999999999,90
60,92.07499999999999,90
60,92.36363636363636,90
60,93.52499999999999,90
60,93.82499999999999,90
60,94.68863636363636,90
60,95.85,90
60,97.01363636363637,90
60,97.31136363636364,90
60,98.475,90
60,99.06136363636364,90
60,99.64772727272727,90
60,100.37272727272727,90
60,101.675,90
60,104.01136363636363,90
60,106.33636363636363,90
60,108.67272727272727,90
60,109.2590909090909,90
60,109.69545454545454,90
60,109.8340909090909,90
60,110.42045454545455,90
60,110.99772727272726,90
60,111.5840909090909,90
60,112.4590909090909,90
60,113.0340909090909,90
60,113.62045454545454,90
60,114.19772727272726,90
60,115.6590909090909,90
60,117.97272727272727,90
60,119.44545454545454,90
60,119.74318181818181,90
60,120.60909090909091,90
60,121.20454545454545,90
60,121.48181818181817,90
60,121.77045454545454,90
60,122.07045454545454,90
60,122.36818181818181,90
60,122.64545454545454,90
60,122.94318181818181,90
60,123.23181818181817,90
60,123.52045454545454,90
60,123.81818181818181,90
60,124.10681818181817,90
60,124.69318181818181,90
60,124.98181818181817,90
60,125.56818181818181,90
60,125.85681818181817,90
60,126.59090909090908,90
60,126.74090909090908,90
60,127.30681818181817,90
60,127.90454545454544,90
60,128.1818181818182,90
60,128.7681818181818,90
60,129.0659090909091,90
60,130.22954545454544,90
60,130.5181818181818,90
60,131.10454545454544,90
60,131.39090909090908,90
60,131.6909090909091,90
60,131.97954545454544,90
60,132.26590909090908,90
60,132.84318181818182,90
60,133.27954545454546,90
60,133.71818181818182,90
60,134.01590909090908,90
60,134.30454545454546,90
60,134.89090909090908,90
60,135.17954545454546,90
60,135.75454545454545,90
60,136.0522727272727,90
60,136.3409090909091,90
60,136.62954545454545,90
60,137.50454545454545,90
60,138.0909090909091,90
60,138.37954545454545,90
60,138.9659090909091,90
60,139.8409090909091,90
60,140.41590909090908,90
60,141.00227272727273,90
60,141.29090909090908,90
60,141.86590909090907,90
60,142.4522727272727,90
60,143.04090909090908,90
60,143.91363636363636,90
60,144.49090909090907,90
60,144.78863636363636,90
60,145.0772727272727,90
60,145.66363636363636,90
60,145.96363636363637,90
60,146.24090909090907,90
60,146.53863636363636,90
60,146.8272727272727,90
60,147.11363636363635,90
60,147.98863636363635,90
60,148.28863636363636,90
60,0.5545454545454546,90
60,1.8659090909090907,90
60,3.168181818181818,90
60,4.043181818181818,90
60,4.4795454545454545,90
60,6.6454545454545455,90
60,6.870454545454545,90
60,7.5204545454545455,90
60,7.956818181818181,90
60,8.384090909090908,90
60,8.820454545454545,90
60,9.695454545454545,90
60,10.122727272727273,90
60,10.559090909090909,90
60,10.997727272727273,90
60,14.475,90
60,15.35,90
60,16.21363636363636,90
60,17.08863636363636,90
60,17.952272727272728,90
60,18.827272727272728,90
60,19.702272727272728,90
60,20.56590909090909,90
60,21.429545454545455,90
60,22.313636363636363,90
60,23.179545454545455,90
60,24.043181818181818,90
60,24.918181818181818,90
60,25.78181818181818,90
60,26.65681818181818,90
60,28.384090909090908,90
60,29.259090909090908,90
60,30.12272727272727,90
60,30.99772727272727,90
60,31.87272727272727,90
60,32.736363636363635,90
60,33.611363636363635,90
60,34.475,90
60,35.35,90
60,36.21363636363636,90
60,38.82727272727273,90
60,39.69090909090909,90
60,40.56590909090909,90
60,42.304545454545455,90
60,42.752272727272725,90
60,43.179545454545455,90
60,44.043181818181814,90
60,44.90681818181818,90
60,45.77045454545454,90
60,46.65681818181818,90
60,47.50909090909091,90
60,48.38409090909091,90
60,49.25909090909091,90
60,50.12272727272727,90
60,50.99772727272727,90
60,51.861363636363635,90
60,52.736363636363635,90
60,53.599999999999994,90
60,54.474999999999994,90
60,55.349999999999994,90
60,56.21363636363636,90
60,57.08863636363636,90
60,57.95227272727272,90
60,58.82727272727272,90
60,59.69090909090909,90
60,60.554545454545455,90
60,61.215909090909086,90
60,61.44090909090909,90
60,62.304545454545455,90
60,62.965909090909086,90
60,63.179545454545455,90
60,64.04318181818182,90
60,64.90681818181818,90
60,66.64545454545454,90
60,67.08181818181818,90
60,67.52045454545454,90
60,68.3840909090909,90
60,69.2590909090909,90
60,70.12272727272727,90
60,70.99772727272727,90
60,71.64772727272727,90
60,71.87272727272727,90
60,72.73636363636363,90
60,74.475,90
60,75.33863636363635,90
60,76.21363636363635,90
60,77.08863636363635,90
60,77.95227272727273,90
60,78.38863636363637,90
60,78.61363636363636,90
60,78.81590909090909,90
60,80.56590909090909,90
60,81.42954545454545,90
60,82.30454545454545,90
60,82.95454545454545,90
60,83.16818181818181,90
60,84.04318181818181,90
60,84.90681818181818,90
60,85.77045454545454,90
60,86.64545454545454,90
60,87.52045454545454,90
60,88.39545454545454,90
60,89.24772727272727,90
60,90.12272727272727,90
60,90.99772727272727,90
60,91.87272727272727,90
60,92.73636363636363,90
60,93.61136363636363,90
60,94.475,90
60,95.13636363636363,90
60,95.35,90
60,96.21363636363635,90
60,96.875,90
60,97.08863636363635,90
60,97.95227272727273,90
60,98.81590909090909,90
60,99.69090909090909,90
60,100.56590909090909,90
60,101.42954545454545,90
60,103.16818181818181,90
60,104.03181818181818,90
60,104.91818181818181,90
60,105.78181818181818,90
60,106.65681818181818,90
60,107.52045454545454,90
60,109.2590909090909,90
60,110.1340909090909,90
60,110.99772727272726,90
60,111.87272727272726,90
60,112.73636363636363,90
60,113.61136363636363,90
60,114.475,90
60,115.35,90
60,116.21363636363635,90
60,116.875,90
60,117.08863636363635,90
60,117.51363636363635,90
60,117.95227272727273,90
60,118.82727272727273,90
60,119.69090909090909,90
60,120.55454545454545,90
60,121.42954545454545,90
60,122.29318181818181,90
60,123.16818181818181,90
60,124.03181818181818,90
60,124.90681818181818,90
60,125.77045454545454,90
60,126.64545454545454,90
60,127.5090909090909,90
60,128.3840909090909,90
60,129.24772727272727,90
60,130.12272727272727,90
60,130.99772727272727,90
60,131.86136363636362,90
60,132.725,90
60,133.38636363636363,90
60,133.6,90
60,134.475,90
60,135.33863636363637,90
60,136.21363636363637,90
60,137.51363636363635,90
60,137.9409090909091,90
60,138.38863636363635,90
60,138.8159090909091,90
60,139.6909090909091,90
60,140.12727272727273,90
60,140.5659090909091,90
60,140.99090909090907,90
60,141.42954545454546,90
60,141.86590909090907,90
60,142.2931818181818,90
60,142.72954545454544,90
60,143.1681818181818,90
60,143.61590909090907,90
60,144.0431818181818,90
60,144.47954545454544,90
60,144.90681818181818,90
60,145.34318181818182,90
60,145.78181818181818,90
60,146.21818181818182,90
60,146.65681818181818,90
60,147.52045454545453,90
60,148.3840909090909,90
60,149.2590909090909,90
60,149.68636363636364,90
60,150.12272727272727,90
60,151.86136363636362,90
60,152.29772727272726,90
60,152.725,90
60,153.17272727272726,90
60,153.6,90
60,154.03636363636363,90
60,154.475,90
60,154.91136363636363,90
60,155.33863636363637,90
60,155.775,90
60,156.21363636363637,90
60,156.64090909090908,90
60,157.0772727272727,90
60,157.9522727272727,90
60,158.37954545454545,90
60,158.8159090909091,90
60,159.25227272727273,90
60,159.6909090909091,90
60,160.11818181818182,90
60,160.55454545454543,90
60,160.99090909090907,90
60,161.42954545454543,90
60,161.86590909090907,90
60,162.2931818181818,90
60,162.72954545454544,90
60,163.1681818181818,90
60,163.60454545454544,90
60,164.03181818181818,90
60,165.34318181818182,90
60,167.5090909090909,90
60,169.24772727272727,90
60,170.99772727272727,90
60,172.725,90
60,174.46363636363637,90
60,176.21363636363637,90
60,177.9522727272727,90
60,179.6909090909091,90
60,181.4181818181818,90
60,182.2931818181818,90
60,182.74090909090907,90
60,183.1681818181818,90
60,183.60454545454544,90
60,184.03181818181818,90
60,184.47954545454544,90
60,184.90681818181818,90
60,185.35454545454544,90
60,185.77045454545453,90
60,186.64545454545453,90
60,187.08181818181816,90
60,187.5090909090909,90
60,188.3840909090909,90
60,189.24772727272727,90
60,189.68636363636364,90
60,190.12272727272727,90
60,190.5590909090909,90
60,190.98636363636362,90
60,191.42499999999998,90
60,191.86136363636362,90
60,193.6,90
60,195.33863636363637,90
60,197.0772727272727,90
60,198.37954545454545,90
60,198.60227272727272,90
60,198.8272727272727,90
60,200.55454545454543,90
60,202.2931818181818,90
60,203.1681818181818,90
60,204.03181818181818,90
60,205.34318181818182,90
60,205.77045454545453,90
60,206.64545454545453,90
60,207.5090909090909,90
60,209.0340909090909,90
60,209.2590909090909,90
60,59.73409090909091,90
60,60.17045454545454,90
60,61.652272727272724,90
60,62.090909090909086,90
60,62.506818181818176,90
60,63.97954545454545,90
60,64.41590909090908,90
60,64.84318181818182,90
60,66.31363636363636,90
60,66.75227272727273,90
60,67.17954545454545,90
60,67.63636363636363,90
60,67.91363636363636,90
60,68.64090909090909,90
60,69.08863636363635,90
60,69.81363636363636,90
60,70.69772727272726,90
60,73.35454545454544,90
60,74.51818181818182,90
60,74.95454545454545,90
60,75.69090909090909,90
60,76.26590909090909,90
60,77.01363636363637,90
60,77.44090909090909,90
60,78.02727272727272,90
60,79.2,90
60,79.63636363636363,90
60,80.37272727272727,90
60,80.81136363636364,90
60,81.2590909090909,90
60,81.54772727272727,90
60,82.1340909090909,90
60,82.72045454545454,90
60,83.30681818181817,90
60,83.88181818181818,90
60,84.32045454545454,90
60,85.05681818181817,90
60,85.64318181818182,90
60,86.0909090909091,90
60,86.81590909090909,90
60,87.97954545454544,90
60,88.725,90
60,89.15227272727272,90
60,92.09545454545454,90
60,92.23409090909091,90
60,92.52272727272727,90
60,92.9590909090909,90
60,93.39772727272727,90
60,93.69545454545454,90
60,94.14318181818182,90
60,94.57045454545454,90
60,94.85909090909091,90
60,95.01818181818182,90
60,95.30681818181817,90
60,95.74318181818181,90
60,96.18181818181817,90
60,96.47045454545454,90
60,97.20454545454545,90
60,97.34318181818182,90
60,97.65227272727272,90
60,98.09090909090908,90
60,98.36818181818181,90
60,98.66590909090908,90
60,98.81590909090909,90
60,99.25227272727273,90
60,99.54090909090908,90
60,99.70227272727273,90
60,99.98863636363636,90
60,100.42727272727272,90
60,100.71363636363635,90
60,101.58863636363635,90
60,101.88863636363637,90
60,102.32499999999999,90
60,102.76363636363637,90
60,103.93636363636364,90
60,105.10909090909091,90
60,105.39772727272727,90
60,105.54772727272727,90
60,106.27272727272727,90
60,106.57045454545454,90
60,107.0090909090909,90
60,107.44545454545454,90
60,107.73409090909091,90
60,108.61818181818181,90
60,108.91818181818181,90
60,109.35454545454544,90
60,109.65227272727272,90
60,109.79090909090908,90
60,110.07954545454545,90
60,110.95454545454545,90
60,111.25227272727273,90
60,111.69090909090909,90
60,112.12727272727273,90
60,112.42727272727272,90
60,112.86363636363636,90
60,113.30227272727272,90
60,113.58863636363635,90
60,114.03636363636363,90
60,114.475,90
60,114.76363636363635,90
60,115.06136363636364,90
60,115.21136363636363,90
60,115.63636363636363,90
60,115.93636363636364,90
60,116.08636363636363,90
60,116.37272727272726,90
60,116.81136363636364,90
60,117.09772727272727,90
60,117.2590909090909,90
60,117.54772727272727,90
60,117.99545454545454,90
60,118.43181818181817,90
60,118.72045454545454,90
60,119.15681818181818,90
60,119.44545454545454,90
60,119.88181818181818,90
60,120.32045454545454,90
60,120.75681818181818,90
60,121.49318181818181,90
60,121.79090909090908,90
60,122.22954545454544,90
60,122.66590909090908,90
60,123.11363636363636,90
60,123.69090909090909,90
60,123.82954545454545,90
60,124.56590909090909,90
60,125.44999999999999,90
60,126.175,90
60,126.475,90
60,126.91136363636363,90
60,129.2590909090909,90
60,129.53636363636363,90
60,129.9840909090909,90
60,130.12272727272727,90
60,130.7090909090909,90
60,131.0090909090909,90
60,131.15681818181818,90
60,131.29545454545453,90
60,131.88181818181818,90
60,132.1818181818182,90
60,132.47045454545454,90
60,132.7681818181818,90
60,133.0568181818182,90
60,133.49318181818182,90
60,133.6431818181818,90
60,133.9409090909091,90
60,134.21818181818182,90
60,134.5181818181818,90
60,134.80454545454546,90
60,135.11363636363635,90
60,135.39090909090908,90
60,135.6909090909091,90
60,135.8409090909091,90
60,135.97954545454544,90
60,136.5659090909091,90
60,136.86363636363635,90
60,137.15227272727273,90
60,137.73863636363635,90
60,138.325,90
60,138.90227272727273,90
60,139.2,90
60,139.48863636363635,90
60,139.79772727272726,90
60,140.075,90
60,140.37272727272727,90
60,140.51136363636363,90
60,140.66136363636363,90
60,140.9590909090909,90
60,141.24772727272727,90
60,141.69545454545454,90
60,141.8340909090909,90
60,142.1340909090909,90
60,142.42045454545453,90
60,142.57045454545454,90
60,142.8590909090909,90
60,143.0090909090909,90
60,143.3068181818182,90
60,143.7340909090909,90
60,144.03181818181818,90
60,144.47045454545454,90
60,145.0568181818182,90
60,145.19545454545454,90
60,145.35454545454544,90
60,145.92954545454543,90
60,146.22954545454544,90
60,146.37954545454545,90
60,146.52727272727273,90
60,146.8159090909091,90
60,147.10454545454544,90
60,147.26363636363635,90
60,147.5522727272727,90
60,148.27727272727273,90
60,148.575,90
60,148.725,90
60,148.86363636363635,90
60,149.15227272727273,90
60,150.02727272727273,90
60,150.325,90
60,150.61363636363635,90
60,151.06136363636364,90
60,151.2,90
60,151.49772727272727,90
60,151.78636363636363,90
60,151.93636363636364,90
60,152.37272727272727,90
60,152.66136363636363,90
60,152.9590909090909,90
60,153.39772727272725,90
60,153.54772727272726,90
60,153.8340909090909,90
60,154.1340909090909,90
60,154.4318181818182,90
60,154.57045454545454,90
60,155.0090909090909,90
60,155.29545454545453,90
60,155.74318181818182,90
60,155.88181818181818,90
60,156.47045454545454,90
60,156.90681818181818,90
60,157.35454545454544,90
60,157.6431818181818,90
60,157.9409090909091,90
60,158.07954545454544,90
60,158.5181818181818,90
60,158.8159090909091,90
60,159.25227272727273,90
60,159.67954545454543,90
60,160.26590909090908,90
60,160.5659090909091,90
60,160.86363636363635,90
60,161.15227272727273,90
60,161.45,90
60,161.58863636363637,90
60,162.02727272727273,90
60,162.325,90
60,162.76363636363635,90
60,163.2,90
60,163.48863636363635,90
60,163.93636363636364,90
60,164.37272727272727,90
60,164.67272727272726,90
60,164.9590909090909,90
60,165.54772727272726,90
60,165.8340909090909,90
60,166.12272727272727,90
60,166.6340909090909,90
60,169.0568181818182,90
60,169.35454545454544,90
60,169.6431818181818,90
60,169.9409090909091,90
60,170.22954545454544,90
60,175.49772727272727,90
60,176.3840909090909,90
60,177.27045454545453,90
60,178.4431818181818,90
60,11.318181818181818,90
60,11.947727272727272,90
60,14.506818181818181,90
60,16.427272727272726,90
60,17.05681818181818,90
60,21.525,90
60,22.16590909090909,90
60,24.724999999999998,90
60,26.634090909090908,90
60,27.263636363636362,90
60,31.595454545454544,90
60,31.743181818181817,90
60,31.91363636363636,90
60,32.03181818181818,90
60,32.68181818181818,90
60,33.013636363636365,90
60,33.32272727272727,90
60,34.60227272727273,90
60,34.934090909090905,90
60,35.23181818181818,90
60,35.87272727272727,90
60,36.51136363636363,90
60,37.152272727272724,90
60,37.79090909090909,90
60,38.42045454545455,90
60,39.06136363636364,90
60,39.402272727272724,90
60,39.70227272727273,90
60,40.043181818181814,90
60,40.340909090909086,90
60,40.98181818181818,90
60,41.62045454545454,90
60,41.95227272727273,90
60,42.25,90
60,42.89090909090909,90
60,43.52954545454545,90
60,44.18181818181818,90
60,44.51136363636363,90
60,44.81136363636364,90
60,45.152272727272724,90
60,45.449999999999996,90
60,45.78181818181818,90
60,46.090909090909086,90
60,46.72954545454545,90
60,47.05,90
60,48.64090909090909,90
60,49.27954545454545,90
60,49.92045454545454,90
60,51.199999999999996,90
60,51.849999999999994,90
60,52.470454545454544,90
60,53.73863636363636,90
60,55.018181818181816,90
60,56.29772727272727,90
60,57.57954545454545,90
60,100.50227272727273,90
60,103.06136363636364,90
60,105.61136363636363,90
60,108.17045454545455,90
60,108.50227272727273,90
60,109.12954545454545,90
60,110.72045454545454,90
60,112.64090909090909,90
60,113.27045454545454,90
60,113.92045454545455,90
60,115.18863636363636,90
60,115.82954545454545,90
60,116.47045454545454,90
60,117.73863636363636,90
60,118.37954545454545,90
60,119.6590909090909,90
60,120.29772727272727,90
60,121.27045454545454,90
60,121.58863636363635,90
60,122.85909090909091,90
60,124.13863636363635,90
60,125.4090909090909,90
60,126.68863636363636,90
60,127.96818181818182,90
60,129.87727272727273,90
60,133.70681818181816,90
60,134.35681818181817,90
60,134.975,90
60,136.26590909090908,90
60,137.54772727272726,90
60,140.09545454545454,90
60,141.375,90
60,142.64545454545453,90
60,143.92499999999998,90
60,146.475,90
60,147.75454545454545,90
60,149.01363636363635,90
60,150.31363636363636,90
60,151.5840909090909,90
60,152.21363636363637,90
60,152.5340909090909,90
60,152.84318181818182,90
60,154.1340909090909,90
60,155.71136363636361,90
60,156.6931818181818,90
60,157.31136363636364,90
60,158.27272727272725,90
60,159.23181818181817,90
60,159.87272727272727,90
60,160.82045454545454,90
60,161.79090909090908,90
60,162.42045454545453,90
60,163.22045454545454,90
60,163.38181818181818,90
60,164.97045454545454,90
60,165.92954545454543,90
60,167.52954545454546,90
60,168.49090909090907,90
60,169.45,90
60,170.07954545454544,90
60,170.72045454545454,90
60,171.3590909090909,90
60,172.0,90
60,172.62954545454545,90
60,173.27045454545453,90
60,174.5590909090909,90
60,175.82954545454544,90
60,177.1090909090909,90
60,178.38863636363635,90
60,179.64772727272725,90
60,180.93863636363636,90
60,182.18636363636364,90
60,183.48863636363635,90
60,184.75681818181818,90
60,186.04772727272726,90
60,187.3181818181818,90
60,189.85681818181817,90
60,194.9659090909091,90
60,196.24545454545455,90
60,197.50454545454545,90
60,198.80454545454543,90
60,200.075,90
60,201.35454545454544,90
60,202.6340909090909,90
60,205.1840909090909,90
60,206.46363636363634,90
60,207.72272727272727,90
