pitch,velocity,duration,pos,boundary,bar,instrument,song_id,velocity_bucket,duration_bucket
46,104,0.9375,0,1,0,,,6,15
58,104,0.4375,1,1,0,,,6,7
48,104,0.875,2,1,0,,,6,14
36,104,0.1875,3,1,0,,,6,3
48,104,0.125,4,1,0,,,6,2
48,104,0.3125,5,0,0,,,6,5
50,104,0.9375,6,0,0,,,6,15
46,104,0.25,7,1,0,,,6,4
44,104,0.9375,0,1,1,,,6,15
58,104,0.9375,1,1,1,,,6,15
51,104,0.9375,2,1,1,,,6,15
39,104,0.375,3,1,1,,,6,6
39,104,0.1875,4,0,1,,,6,3
39,104,0.0,5,0,1,,,6,0
64,104,0.25,0,1,10000,,,6,4
64,104,0.3125,1,0,10000,,,6,5
64,104,0.25,2,0,10000,,,6,4
52,104,0.125,3,1,10000,,,6,2
52,104,0.8125,4,0,10000,,,6,13
50,104,0.3125,5,1,10000,,,6,5
60,104,0.5,6,1,10000,,,6,8
57,104,0.9375,7,0,10000,,,6,15
60,104,0.1875,8,1,10000,,,6,3
62,104,0.4375,9,0,10000,,,6,7
62,104,0.5,0,1,10001,,,6,8
62,104,0.375,1,0,10001,,,6,6
50,104,0.4375,2,1,10001,,,6,7
62,104,0.8125,3,1,10001,,,6,13
62,104,0.1875,4,1,10001,,,6,3
50,104,0.4375,5,1,10001,,,6,7
58,104,0.625,0,1,20000,,,6,10
56,104,0.75,1,0,20000,,,6,12
58,104,0.3125,2,1,20000,,,6,5
58,104,0.4375,3,0,20000,,,6,7
58,104,0.4375,4,0,20000,,,6,7
51,104,0.25,5,1,20000,,,6,4
56,104,0.5,6,0,20000,,,6,8
56,104,0.25,7,0,20000,,,6,4
56,104,0.3125,8,0,20000,,,6,5
56,104,0.1875,9,0,20000,,,6,3
58,104,0.4375,0,1,20001,,,6,7
56,104,0.125,1,0,20001,,,6,2
55,104,0.3125,2,0,20001,,,6,5
58,104,0.1875,3,0,20001,,,6,3
58,104,0.5,4,0,20001,,,6,8
63,104,0.75,5,0,20001,,,6,12
58,104,0.625,6,1,20001,,,6,10
58,104,0.9375,7,0,20001,,,6,15
63,104,0.8125,8,1,20001,,,6,13
62,104,0.9375,0,1,20002,,,6,15
62,104,0.625,1,1,20002,,,6,10
62,104,0.1875,2,0,20002,,,6,3
59,104,0.1875,0,1,30000,,,6,3
54,104,0.25,1,0,30000,,,6,4
52,104,0.1875,2,0,30000,,,6,3
47,104,0.9375,3,0,30000,,,6,15
54,104,0.4375,4,1,30000,,,6,7
54,104,0.3125,5,0,30000,,,6,5
59,104,0.125,6,0,30000,,,6,2
59,104,0.625,7,0,30000,,,6,10
52,104,0.75,8,1,30000,,,6,12
47,104,0.4375,9,1,30000,,,6,7
35,104,0.25,0,1,30001,,,6,4
54,104,0.1875,1,1,30001,,,6,3
47,104,0.6875,2,1,30001,,,6,11
54,104,0.8125,3,1,30001,,,6,13
55,104,0.125,0,1,40000,,,6,2
60,104,0.3125,1,0,40000,,,6,5
60,104,0.1875,2,0,40000,,,6,3
60,104,0.9375,3,0,40000,,,6,15
53,104,0.3125,4,1,40000,,,6,5
60,104,0.8125,5,1,40000,,,6,13
41,104,0.3125,6,1,40000,,,6,5
60,104,0.9375,7,1,40000,,,6,15
60,104,0.625,8,1,40000,,,6,10
50,104,0.3125,0,1,40001,,,6,5
60,104,0.5,1,1,40001,,,6,8
62,104,0.5,2,0,40001,,,6,8
50,104,0.5,3,1,40001,,,6,8
60,104,0.9375,4,1,40001,,,6,15
54,104,0.3125,0,1,50000,,,6,5
47,104,0.125,1,1,50000,,,6,2
35,104,0.5,2,1,50000,,,6,8
35,104,0.3125,3,0,50000,,,6,5
47,104,0.1875,4,1,50000,,,6,3
52,104,0.3125,5,0,50000,,,6,5
52,104,0.5625,6,0,50000,,,6,9
33,104,0.3125,7,1,50000,,,6,5
52,104,0.375,8,1,50000,,,6,6
33,104,0.25,9,1,50000,,,6,4
52,104,0.1875,10,1,50000,,,6,3
52,104,0.3125,11,0,50000,,,6,5
61,104,0.1875,12,1,50000,,,6,3
49,104,0.5625,13,1,50000,,,6,9
52,104,0.25,0,1,50001,,,6,4
61,104,0.5625,1,1,50001,,,6,9
64,104,0.1875,2,0,50001,,,6,3
64,104,0.1875,3,0,50001,,,6,3
64,104,0.125,4,0,50001,,,6,2
64,104,0.5,5,0,50001,,,6,8
52,104,0.25,6,1,50001,,,6,4
52,104,0.1875,7,0,50001,,,6,3
53,104,0.1875,8,0,50001,,,6,3
35,104,0.1875,9,1,50001,,,6,3
35,104,0.25,10,0,50001,,,6,4
47,104,0.1875,11,1,50001,,,6,3
47,104,0.1875,12,0,50001,,,6,3
58,104,0.9375,0,1,60000,,,6,15
34,104,0.5,1,1,60000,,,6,8
34,104,0.75,2,0,60000,,,6,12
34,104,0.9375,3,1,60000,,,6,15
34,104,0.3125,4,1,60000,,,6,5
34,104,0.9375,5,0,60000,,,6,15
58,104,0.9375,0,1,60001,,,6,15
58,104,0.5625,1,1,60001,,,6,9
58,104,0.1875,2,0,60001,,,6,3
58,104,0.875,3,0,60001,,,6,14
58,104,0.75,4,1,60001,,,6,12
58,104,0.0625,5,1,60001,,,6,1
57,104,0.125,0,1,70000,,,6,2
62,104,0.8125,1,0,70000,,,6,13
62,104,0.5,2,1,70000,,,6,8
62,104,0.25,3,0,70000,,,6,4
62,104,0.1875,4,0,70000,,,6,3
62,104,0.375,5,0,70000,,,6,6
54,104,0.5625,6,1,70000,,,6,9
54,104,0.125,7,0,70000,,,6,2
66,104,0.3125,8,1,70000,,,6,5
69,104,0.4375,9,0,70000,,,6,7
45,104,0.8125,10,1,70000,,,6,13
57,104,0.25,0,1,70001,,,6,4
43,104,0.25,1,1,70001,,,6,4
62,104,0.25,2,1,70001,,,6,4
57,104,0.375,3,0,70001,,,6,6
57,104,0.5,4,0,70001,,,6,8
34,104,0.3125,0,1,80000,,,6,5
53,104,0.625,1,1,80000,,,6,10
38,104,0.8125,2,1,80000,,,6,13
65,104,0.1875,3,1,80000,,,6,3
50,104,0.1875,4,1,80000,,,6,3
38,104,0.625,5,1,80000,,,6,10
50,104,0.25,6,1,80000,,,6,4
50,104,0.375,7,0,80000,,,6,6
38,104,0.3125,8,1,80000,,,6,5
50,104,0.1875,9,1,80000,,,6,3
50,104,0.4375,10,0,80000,,,6,7
50,104,0.3125,0,1,80001,,,6,5
65,104,0.375,1,1,80001,,,6,6
50,104,0.25,2,1,80001,,,6,4
50,104,0.9375,3,0,80001,,,6,15
50,104,0.6875,4,1,80001,,,6,11
39,104,0.125,0,1,90000,,,6,2
68,104,0.375,1,1,90000,,,6,6
39,104,0.3125,2,1,90000,,,6,5
58,104,0.1875,3,1,90000,,,6,3
39,104,0.5625,4,1,90000,,,6,9
51,104,0.25,5,1,90000,,,6,4
39,104,0.875,6,1,90000,,,6,14
39,104,0.75,7,1,90000,,,6,12
51,104,0.625,8,1,90000,,,6,10
58,104,0.625,0,1,90001,,,6,10
39,104,0.3125,1,1,90001,,,6,5
58,104,0.5,2,1,90001,,,6,8
39,104,0.5625,3,1,90001,,,6,9
58,104,0.375,4,1,90001,,,6,6
39,104,0.1875,5,1,90001,,,6,3
58,104,0.9375,6,1,90001,,,6,15
58,104,0.9375,7,1,90001,,,6,15
58,104,0.9375,0,1,90002,,,6,15
34,104,0.1875,0,1,100000,,,6,3
34,104,0.4375,1,0,100000,,,6,7
58,104,0.9375,2,1,100000,,,6,15
39,104,0.625,3,1,100000,,,6,10
51,104,0.25,4,1,100000,,,6,4
58,104,0.875,5,1,100000,,,6,14
58,104,0.875,6,1,100000,,,6,14
58,104,0.9375,0,1,100001,,,6,15
59,104,0.4375,0,1,110000,,,6,7
64,104,0.25,1,0,110000,,,6,4
64,104,0.4375,2,0,110000,,,6,7
59,104,0.1875,3,0,110000,,,6,3
59,104,0.4375,4,0,110000,,,6,7
59,104,0.375,5,0,110000,,,6,6
59,104,0.1875,6,0,110000,,,6,3
59,104,0.1875,7,0,110000,,,6,3
59,104,0.9375,8,0,110000,,,6,15
59,104,0.4375,9,1,110000,,,6,7
59,104,0.3125,10,0,110000,,,6,5
35,104,0.6875,0,1,110001,,,6,11
47,104,0.3125,1,1,110001,,,6,5
35,104,0.6875,2,1,110001,,,6,11
47,104,0.3125,3,1,110001,,,6,5
35,104,0.25,4,1,110001,,,6,4
35,104,0.125,5,0,110001,,,6,2
57,104,0.6875,0,1,120000,,,6,11
38,104,0.3125,1,1,120000,,,6,5
50,104,0.375,2,1,120000,,,6,6
57,104,0.4375,3,1,120000,,,6,7
38,104,0.3125,4,1,120000,,,6,5
50,104,0.375,5,1,120000,,,6,6
52,104,0.9375,6,0,120000,,,6,15
40,104,0.5,7,1,120000,,,6,8
52,104,0.1875,8,1,120000,,,6,3
66,104,0.3125,0,1,120001,,,6,5
40,104,0.5,1,1,120001,,,6,8
40,104,0.1875,2,0,120001,,,6,3
52,104,0.1875,3,1,120001,,,6,3
66,104,0.25,4,1,120001,,,6,4
40,104,0.5,5,1,120001,,,6,8
50,104,0.9375,6,1,120001,,,6,15
38,104,0.875,7,1,120001,,,6,14
50,104,0.1875,8,1,120001,,,6,3
50,104,0.3125,0,1,120002,,,6,5
38,104,0.25,1,1,120002,,,6,4
53,104,0.3125,0,1,130000,,,6,5
53,104,0.1875,1,0,130000,,,6,3
53,104,0.1875,2,0,130000,,,6,3
46,104,0.3125,3,1,130000,,,6,5
55,104,0.125,4,1,130000,,,6,2
55,104,0.5625,5,0,130000,,,6,9
48,104,0.8125,6,1,130000,,,6,13
48,104,0.25,7,1,130000,,,6,4
48,104,0.75,8,0,130000,,,6,12
48,104,0.1875,9,1,130000,,,6,3
48,104,0.3125,10,0,130000,,,6,5
48,104,0.3125,0,1,130001,,,6,5
63,104,0.3125,1,1,130001,,,6,5
48,104,0.375,2,1,130001,,,6,6
39,104,0.9375,0,1,140000,,,6,15
58,104,0.3125,1,1,140000,,,6,5
58,104,0.9375,2,0,140000,,,6,15
58,104,0.8125,3,1,140000,,,6,13
39,104,0.6875,4,1,140000,,,6,11
58,104,0.4375,5,1,140000,,,6,7
58,104,0.9375,0,1,140001,,,6,15
58,104,0.5625,1,1,140001,,,6,9
58,104,0.5625,2,0,140001,,,6,9
34,104,0.1875,3,1,140001,,,6,3
58,104,0.9375,4,1,140001,,,6,15
58,104,0.6875,5,1,140001,,,6,11
58,104,0.9375,0,1,140002,,,6,15
68,104,0.5,0,1,150000,,,6,8
68,104,0.25,1,0,150000,,,6,4
49,104,0.25,2,1,150000,,,6,4
61,104,0.25,3,1,150000,,,6,4
59,104,0.3125,4,0,150000,,,6,5
49,104,0.5,5,1,150000,,,6,8
49,104,0.4375,6,0,150000,,,6,7
49,104,0.1875,7,0,150000,,,6,3
61,104,0.1875,8,1,150000,,,6,3
57,104,0.375,9,0,150000,,,6,6
59,104,0.3125,10,0,150000,,,6,5
45,104,0.375,11,1,150000,,,6,6
57,104,0.3125,12,1,150000,,,6,5
54,104,0.375,0,1,150001,,,6,6
57,104,0.375,1,0,150001,,,6,6
52,104,0.6875,0,1,160000,,,6,11
33,104,0.1875,1,1,160000,,,6,3
52,104,0.1875,2,1,160000,,,6,3
43,104,0.125,3,1,160000,,,6,2
50,104,0.375,4,1,160000,,,6,6
66,104,0.25,5,1,160000,,,6,4
52,104,0.125,6,1,160000,,,6,2
40,104,0.5,7,1,160000,,,6,8
68,104,0.375,8,1,160000,,,6,6
54,104,0.375,9,1,160000,,,6,6
53,104,0.25,0,1,170000,,,6,4
53,104,0.3125,1,0,170000,,,6,5
53,104,0.25,2,0,170000,,,6,4
63,104,0.1875,3,1,170000,,,6,3
53,104,0.4375,4,1,170000,,,6,7
53,104,0.3125,5,0,170000,,,6,5
56,104,0.25,6,0,170000,,,6,4
53,104,0.1875,7,0,170000,,,6,3
53,104,0.5625,8,0,170000,,,6,9
58,104,0.1875,9,0,170000,,,6,3
53,104,0.3125,10,0,170000,,,6,5
53,104,0.25,11,0,170000,,,6,4
65,104,0.3125,12,1,170000,,,6,5
53,104,0.3125,13,1,170000,,,6,5
53,104,0.1875,0,1,170001,,,6,3
53,104,0.25,1,0,170001,,,6,4
53,104,0.1875,2,0,170001,,,6,3
51,104,0.5625,0,1,180000,,,6,9
39,104,0.25,1,1,180000,,,6,4
51,104,0.25,2,1,180000,,,6,4
29,104,0.5625,3,1,180000,,,6,9
29,104,0.1875,4,0,180000,,,6,3
53,104,0.375,5,1,180000,,,6,6
53,104,0.3125,6,0,180000,,,6,5
53,104,0.1875,7,0,180000,,,6,3
34,104,0.9375,8,1,180000,,,6,15
34,104,0.375,9,1,180000,,,6,6
34,104,0.3125,0,1,180001,,,6,5
31,104,0.25,1,0,180001,,,6,4
31,104,0.75,2,0,180001,,,6,12
31,104,0.4375,3,1,180001,,,6,7
31,104,0.375,4,0,180001,,,6,6
51,104,0.25,5,1,180001,,,6,4
58,104,0.75,0,1,190000,,,6,12
53,104,0.25,1,1,190000,,,6,4
53,104,0.4375,2,0,190000,,,6,7
58,104,0.625,3,0,190000,,,6,10
62,104,0.875,4,0,190000,,,6,14
58,104,0.1875,5,1,190000,,,6,3
62,104,0.375,6,0,190000,,,6,6
63,104,0.125,7,0,190000,,,6,2
58,104,0.1875,8,0,190000,,,6,3
63,104,0.9375,9,0,190000,,,6,15
63,104,0.1875,0,1,190001,,,6,3
55,104,0.625,1,1,190001,,,6,10
58,104,0.6875,2,0,190001,,,6,11
63,104,0.875,3,0,190001,,,6,14
58,104,0.625,4,1,190001,,,6,10
55,104,0.625,5,0,190001,,,6,10
63,104,0.75,0,1,190002,,,6,12
58,104,0.75,1,1,190002,,,6,12
56,104,0.375,2,1,190002,,,6,6
56,104,0.9375,3,0,190002,,,6,15
63,104,0.125,4,1,190002,,,6,2
58,104,0.9375,0,1,200000,,,6,15
51,104,0.3125,1,1,200000,,,6,5
39,104,0.1875,2,1,200000,,,6,3
34,104,0.9375,3,0,200000,,,6,15
34,104,0.8125,4,1,200000,,,6,13
58,104,0.375,5,1,200000,,,6,6
34,104,0.3125,6,1,200000,,,6,5
58,104,0.1875,7,1,200000,,,6,3
34,104,0.5625,0,1,200001,,,6,9
34,104,0.5,1,0,200001,,,6,8
34,104,0.25,2,0,200001,,,6,4
58,104,0.5,3,1,200001,,,6,8
58,104,0.9375,4,0,200001,,,6,15
70,104,0.5625,5,1,200001,,,6,9
58,104,0.8125,6,1,200001,,,6,13
60,104,0.4375,0,1,200002,,,6,7
70,104,0.4375,1,1,200002,,,6,7
58,104,0.4375,2,1,200002,,,6,7
33,104,0.8125,0,1,210000,,,6,13
33,104,0.9375,1,1,210000,,,6,15
33,104,0.9375,2,1,210000,,,6,15
33,104,0.9375,3,1,210000,,,6,15
33,104,0.9375,4,1,210000,,,6,15
62,104,0.3125,0,1,210001,,,6,5
47,104,0.125,1,1,210001,,,6,2
47,104,0.25,2,0,210001,,,6,4
62,104,0.6875,3,1,210001,,,6,11
47,104,0.9375,4,1,210001,,,6,15
56,104,0.25,0,1,220000,,,6,4
51,104,0.3125,1,0,220000,,,6,5
51,104,0.25,2,0,220000,,,6,4
32,104,0.5,3,1,220000,,,6,8
51,104,0.75,4,1,220000,,,6,12
58,104,0.375,5,1,220000,,,6,6
63,104,0.25,6,0,220000,,,6,4
51,104,0.25,7,1,220000,,,6,4
51,104,0.1875,8,0,220000,,,6,3
51,104,0.1875,9,0,220000,,,6,3
51,104,0.25,10,0,220000,,,6,4
51,104,0.4375,11,0,220000,,,6,7
51,104,0.625,0,1,220001,,,6,10
48,104,0.1875,1,0,220001,,,6,3
29,104,0.375,2,1,220001,,,6,6
53,104,0.1875,3,1,220001,,,6,3
53,104,0.1875,4,0,220001,,,6,3
41,104,0.1875,5,1,220001,,,6,3
58,104,0.25,0,1,230000,,,6,4
46,104,0.375,1,1,230000,,,6,6
53,104,0.625,2,1,230000,,,6,10
53,104,0.25,3,0,230000,,,6,4
55,104,0.3125,4,0,230000,,,6,5
48,104,0.25,5,1,230000,,,6,4
60,104,0.125,6,1,230000,,,6,2
60,104,0.3125,7,0,230000,,,6,5
60,104,0.25,8,0,230000,,,6,4
60,104,0.3125,9,0,230000,,,6,5
48,104,0.5,10,1,230000,,,6,8
60,104,0.1875,11,1,230000,,,6,3
60,104,0.1875,12,0,230000,,,6,3
60,104,0.1875,13,0,230000,,,6,3
48,104,0.3125,0,1,230001,,,6,5
41,104,0.3125,1,1,230001,,,6,5
57,104,0.9375,0,1,240000,,,6,15
29,104,0.25,1,1,240000,,,6,4
60,104,0.9375,2,1,240000,,,6,15
57,104,0.5,3,1,240000,,,6,8
31,104,0.1875,4,1,240000,,,6,3
31,104,0.1875,5,0,240000,,,6,3
31,104,0.625,6,0,240000,,,6,10
60,104,0.9375,7,1,240000,,,6,15
60,104,0.625,0,1,240001,,,6,10
55,104,0.4375,1,0,240001,,,6,7
57,104,0.375,2,0,240001,,,6,6
60,104,0.9375,3,0,240001,,,6,15
60,104,0.25,4,1,240001,,,6,4
55,104,0.5625,5,0,240001,,,6,9
55,104,0.625,6,0,240001,,,6,10
55,104,0.125,0,1,240002,,,6,2
60,104,0.9375,1,0,240002,,,6,15
55,104,0.9375,2,1,240002,,,6,15
62,104,0.25,0,1,250000,,,6,4
60,104,0.5625,1,0,250000,,,6,9
65,104,0.25,2,0,250000,,,6,4
62,104,0.1875,3,0,250000,,,6,3
60,104,0.125,4,0,250000,,,6,2
65,104,0.9375,5,0,250000,,,6,15
55,104,0.75,6,1,250000,,,6,12
50,104,0.375,7,1,250000,,,6,6
55,104,0.4375,8,0,250000,,,6,7
50,104,0.1875,9,0,250000,,,6,3
55,104,0.3125,0,1,250001,,,6,5
55,104,0.375,1,0,250001,,,6,6
55,104,0.5625,2,0,250001,,,6,9
55,104,0.9375,3,0,250001,,,6,15
62,104,0.3125,4,1,250001,,,6,5
57,104,0.9375,5,0,250001,,,6,15
45,104,0.9375,6,1,250001,,,6,15
55,104,0.25,0,1,250002,,,6,4
43,104,0.9375,1,1,250002,,,6,15
62,104,0.875,2,1,250002,,,6,14
53,104,0.5,0,1,260000,,,6,8
60,104,0.4375,1,1,260000,,,6,7
53,104,0.375,2,1,260000,,,6,6
60,104,0.1875,3,1,260000,,,6,3
53,104,0.625,4,1,260000,,,6,10
53,104,0.25,5,0,260000,,,6,4
46,104,0.8125,6,1,260000,,,6,13
58,104,0.75,7,1,260000,,,6,12
58,104,0.25,8,1,260000,,,6,4
58,104,0.3125,0,1,260001,,,6,5
46,104,0.25,1,1,260001,,,6,4
53,104,0.1875,2,1,260001,,,6,3
58,104,0.75,3,0,260001,,,6,12
53,104,0.375,4,1,260001,,,6,6
58,104,0.3125,5,0,260001,,,6,5
46,104,0.1875,6,1,260001,,,6,3
65,104,0.25,7,1,260001,,,6,4
53,104,0.5,8,1,260001,,,6,8
58,104,0.4375,9,0,260001,,,6,7
65,104,0.25,10,1,260001,,,6,4
51,104,0.9375,0,1,260002,,,6,15
65,104,0.0,1,1,260002,,,6,0
53,104,0.4375,0,1,270000,,,6,7
51,104,0.3125,1,0,270000,,,6,5
55,104,0.25,2,0,270000,,,6,4
51,104,0.3125,3,0,270000,,,6,5
51,104,0.1875,4,0,270000,,,6,3
51,104,0.375,5,0,270000,,,6,6
55,104,0.6875,6,0,270000,,,6,11
51,104,0.375,7,0,270000,,,6,6
51,104,0.625,8,0,270000,,,6,10
56,104,0.625,9,0,270000,,,6,10
53,104,0.75,0,1,270001,,,6,12
53,104,0.3125,1,1,270001,,,6,5
58,104,0.375,2,0,270001,,,6,6
58,104,0.375,3,0,270001,,,6,6
62,104,0.3125,0,1,280000,,,6,5
67,104,0.1875,1,0,280000,,,6,3
55,104,0.4375,2,1,280000,,,6,7
79,104,0.1875,3,1,280000,,,6,3
31,104,0.125,4,1,280000,,,6,2
55,104,0.9375,5,1,280000,,,6,15
50,104,0.3125,6,1,280000,,,6,5
50,104,0.5,7,0,280000,,,6,8
50,104,0.25,8,0,280000,,,6,4
62,104,0.9375,9,1,280000,,,6,15
57,104,0.4375,0,1,280001,,,6,7
62,104,0.1875,1,0,280001,,,6,3
50,104,0.9375,2,1,280001,,,6,15
62,104,0.1875,3,1,280001,,,6,3
58,104,0.3125,0,1,290000,,,6,5
58,104,0.1875,1,0,290000,,,6,3
51,104,0.3125,2,1,290000,,,6,5
51,104,0.5,3,0,290000,,,6,8
51,104,0.375,4,0,290000,,,6,6
51,104,0.375,5,0,290000,,,6,6
63,104,0.5,6,1,290000,,,6,8
65,104,0.9375,7,0,290000,,,6,15
55,104,0.1875,8,1,290000,,,6,3
56,104,0.75,9,0,290000,,,6,12
56,104,0.5625,0,1,290001,,,6,9
56,104,0.3125,1,0,290001,,,6,5
65,104,0.25,2,1,290001,,,6,4
58,104,0.9375,3,1,290001,,,6,15
58,104,0.5625,4,1,290001,,,6,9
58,104,0.9375,5,0,290001,,,6,15
65,104,0.1875,0,1,290002,,,6,3
53,104,0.25,0,1,300000,,,6,4
53,104,0.125,1,0,300000,,,6,2
34,104,0.5,2,1,300000,,,6,8
63,104,0.8125,3,1,300000,,,6,13
63,104,0.125,4,1,300000,,,6,2
53,104,0.125,5,1,300000,,,6,2
34,104,0.25,6,1,300000,,,6,4
48,104,0.6875,7,1,300000,,,6,11
63,104,0.4375,8,1,300000,,,6,7
64,104,0.3125,0,1,310000,,,6,5
57,104,0.5,1,1,310000,,,6,8
64,104,0.1875,2,1,310000,,,6,3
57,104,0.1875,3,1,310000,,,6,3
50,104,0.3125,4,1,310000,,,6,5
57,104,0.3125,5,1,310000,,,6,5
50,104,0.25,6,1,310000,,,6,4
50,104,0.625,7,0,310000,,,6,10
57,104,0.5,8,1,310000,,,6,8
57,104,0.1875,9,0,310000,,,6,3
40,104,0.9375,10,1,310000,,,6,15
40,104,0.25,0,1,310001,,,6,4
59,104,0.5625,1,1,310001,,,6,9
59,104,0.375,2,0,310001,,,6,6
61,104,0.375,3,0,310001,,,6,6
59,104,0.75,4,0,310001,,,6,12
64,104,0.25,5,1,310001,,,6,4
57,104,0.4375,6,1,310001,,,6,7
61,104,0.1875,7,0,310001,,,6,3
57,104,0.375,8,0,310001,,,6,6
39,104,0.625,0,1,320000,,,6,10
53,104,0.125,1,1,320000,,,6,2
53,104,0.25,2,0,320000,,,6,4
60,104,0.6875,3,1,320000,,,6,11
60,104,0.375,4,0,320000,,,6,6
53,104,0.875,5,1,320000,,,6,14
56,104,0.25,6,1,320000,,,6,4
60,104,0.375,7,0,320000,,,6,6
58,104,0.1875,8,0,320000,,,6,3
58,104,0.25,9,0,320000,,,6,4
46,104,0.3125,0,1,320001,,,6,5
46,104,0.625,1,0,320001,,,6,10
46,104,0.25,2,0,320001,,,6,4
46,104,0.625,3,0,320001,,,6,10
34,104,0.375,4,1,320001,,,6,6
46,104,0.625,5,1,320001,,,6,10
46,104,0.1875,6,0,320001,,,6,3
64,104,0.25,0,1,330000,,,6,4
64,104,0.625,1,0,330000,,,6,10
64,104,0.4375,2,0,330000,,,6,7
64,104,0.625,3,0,330000,,,6,10
64,104,0.3125,4,0,330000,,,6,5
64,104,0.5,5,0,330000,,,6,8
64,104,0.125,6,0,330000,,,6,2
64,104,0.125,7,0,330000,,,6,2
59,104,0.3125,8,0,330000,,,6,5
54,104,0.1875,9,0,330000,,,6,3
59,104,0.625,10,0,330000,,,6,10
59,104,0.4375,0,1,330001,,,6,7
47,104,0.5625,1,1,330001,,,6,9
47,104,0.125,2,0,330001,,,6,2
35,104,0.125,3,1,330001,,,6,2
47,104,0.1875,4,1,330001,,,6,3
35,104,0.4375,5,1,330001,,,6,7
63,104,0.1875,0,1,340000,,,6,3
55,104,0.4375,1,1,340000,,,6,7
60,104,0.1875,2,0,340000,,,6,3
60,104,0.3125,3,0,340000,,,6,5
56,104,0.3125,4,0,340000,,,6,5
51,104,0.3125,5,0,340000,,,6,5
53,104,0.375,6,0,340000,,,6,6
53,104,0.4375,7,0,340000,,,6,7
58,104,0.3125,8,0,340000,,,6,5
53,104,0.25,9,0,340000,,,6,4
53,104,0.1875,10,0,340000,,,6,3
53,104,0.25,11,0,340000,,,6,4
53,104,0.1875,12,0,340000,,,6,3
53,104,0.6875,13,0,340000,,,6,11
53,104,0.3125,0,1,340001,,,6,5
53,104,0.25,1,0,340001,,,6,4
60,104,0.5,2,1,340001,,,6,8
64,104,0.9375,0,1,350000,,,6,15
45,104,0.25,1,1,350000,,,6,4
61,104,0.25,2,1,350000,,,6,4
69,104,0.375,3,1,350000,,,6,6
62,104,0.6875,4,1,350000,,,6,11
62,104,0.1875,5,0,350000,,,6,3
62,104,0.875,6,0,350000,,,6,14
38,104,0.1875,7,1,350000,,,6,3
38,104,0.3125,8,0,350000,,,6,5
38,104,0.25,0,1,350001,,,6,4
40,104,0.1875,1,0,350001,,,6,3
40,104,0.1875,2,0,350001,,,6,3
59,104,0.4375,3,1,350001,,,6,7
68,104,0.9375,4,1,350001,,,6,15
52,104,0.1875,5,1,350001,,,6,3
68,104,0.25,6,1,350001,,,6,4
57,104,0.5,7,1,350001,,,6,8
61,104,0.3125,8,0,350001,,,6,5
61,104,0.375,9,0,350001,,,6,6
64,104,0.4375,10,0,350001,,,6,7
57,104,0.5625,0,1,350002,,,6,9
61,104,0.4375,1,0,350002,,,6,7
57,104,0.375,2,0,350002,,,6,6
61,104,0.375,3,0,350002,,,6,6
53,104,0.125,0,1,360000,,,6,2
41,104,0.1875,1,1,360000,,,6,3
29,104,0.375,2,1,360000,,,6,6
29,104,0.6875,3,0,360000,,,6,11
50,104,0.9375,4,1,360000,,,6,15
50,104,0.625,5,1,360000,,,6,10
50,104,0.9375,6,0,360000,,,6,15
50,104,0.625,7,1,360000,,,6,10
52,104,0.3125,0,1,370000,,,6,5
47,104,0.1875,1,0,370000,,,6,3
47,104,0.3125,2,0,370000,,,6,5
47,104,0.1875,3,0,370000,,,6,3
59,104,0.1875,4,1,370000,,,6,3
52,104,0.3125,5,1,370000,,,6,5
47,104,0.1875,6,0,370000,,,6,3
52,104,0.875,7,0,370000,,,6,14
33,104,0.125,8,1,370000,,,6,2
52,104,0.25,9,1,370000,,,6,4
52,104,0.375,10,0,370000,,,6,6
59,104,0.375,11,1,370000,,,6,6
52,104,0.1875,12,1,370000,,,6,3
49,104,0.1875,13,0,370000,,,6,3
50,104,0.375,0,1,380000,,,6,6
38,104,0.375,1,1,380000,,,6,6
38,104,0.875,2,0,380000,,,6,14
57,104,0.375,3,1,380000,,,6,6
69,104,0.1875,4,1,380000,,,6,3
57,104,0.5,5,1,380000,,,6,8
59,104,0.1875,6,0,380000,,,6,3
40,104,0.25,7,1,380000,,,6,4
52,104,0.125,8,1,380000,,,6,2
57,104,0.1875,9,0,380000,,,6,3
57,104,0.25,10,0,380000,,,6,4
57,104,0.1875,11,0,380000,,,6,3
57,104,0.3125,12,0,380000,,,6,5
57,104,0.625,0,1,380001,,,6,10
57,104,0.4375,1,0,380001,,,6,7
57,104,0.25,2,0,380001,,,6,4
64,104,0.8125,3,1,380001,,,6,13
33,104,0.25,4,1,380001,,,6,4
33,104,0.25,5,0,380001,,,6,4
52,104,0.3125,6,1,380001,,,6,5
52,104,0.1875,7,0,380001,,,6,3
33,104,0.1875,8,1,380001,,,6,3
52,104,0.25,9,1,380001,,,6,4
62,104,0.8125,10,1,380001,,,6,13
62,104,0.875,0,1,380002,,,6,14
64,104,0.0625,1,1,380002,,,6,1
28,104,0.9375,0,1,390000,,,6,15
28,104,0.9375,1,1,390000,,,6,15
28,104,0.25,2,1,390000,,,6,4
28,104,0.25,3,0,390000,,,6,4
28,104,0.1875,4,0,390000,,,6,3
28,104,0.5,5,0,390000,,,6,8
40,104,0.9375,6,1,390000,,,6,15
33,104,0.9375,0,1,390001,,,6,15
33,104,0.8125,1,1,390001,,,6,13
33,104,0.4375,2,1,390001,,,6,7
35,104,0.4375,3,0,390001,,,6,7
47,104,0.1875,4,1,390001,,,6,3
35,104,0.5,5,1,390001,,,6,8
47,104,0.25,6,1,390001,,,6,4
35,104,0.375,7,1,390001,,,6,6
47,104,0.375,8,1,390001,,,6,6
47,104,0.25,0,1,390002,,,6,4
50,104,0.3125,1,0,390002,,,6,5
38,104,0.25,2,1,390002,,,6,4
61,104,0.1875,0,1,400000,,,6,3
62,104,0.25,1,0,400000,,,6,4
62,104,0.125,2,0,400000,,,6,2
56,104,0.5,3,0,400000,,,6,8
59,104,0.9375,4,0,400000,,,6,15
52,104,0.25,5,1,400000,,,6,4
61,104,0.9375,6,1,400000,,,6,15
57,104,0.25,7,1,400000,,,6,4
61,104,0.375,8,0,400000,,,6,6
57,104,0.8125,9,0,400000,,,6,13
52,104,0.25,0,1,400001,,,6,4
52,104,0.1875,1,0,400001,,,6,3
62,104,0.4375,2,1,400001,,,6,7
62,104,0.25,3,0,400001,,,6,4
56,104,0.4375,4,0,400001,,,6,7
54,104,0.5,0,1,410000,,,6,8
54,104,0.1875,1,0,410000,,,6,3
61,104,0.4375,2,1,410000,,,6,7
61,104,0.25,3,0,410000,,,6,4
44,104,0.625,4,1,410000,,,6,10
65,104,0.1875,5,1,410000,,,6,3
61,104,0.625,6,0,410000,,,6,10
61,104,0.375,7,0,410000,,,6,6
57,104,0.5625,8,0,410000,,,6,9
54,104,0.1875,9,0,410000,,,6,3
33,104,0.75,0,1,420000,,,6,12
33,104,0.9375,1,1,420000,,,6,15
45,104,0.5625,2,1,420000,,,6,9
45,104,0.5625,3,0,420000,,,6,9
33,104,0.9375,4,1,420000,,,6,15
33,104,0.75,5,1,420000,,,6,12
57,104,0.625,0,1,420001,,,6,10
33,104,0.9375,1,1,420001,,,6,15
57,104,0.8125,2,1,420001,,,6,13
52,104,0.5,3,1,420001,,,6,8
33,104,0.375,4,1,420001,,,6,6
52,104,0.1875,5,1,420001,,,6,3
52,104,0.1875,6,0,420001,,,6,3
52,104,0.125,0,1,420002,,,6,2
64,104,0.4375,1,1,420002,,,6,7
83,104,0.375,2,1,420002,,,6,6
50,104,0.25,3,1,420002,,,6,4
50,104,0.9375,4,0,420002,,,6,15
60,104,0.4375,0,1,430000,,,6,7
53,104,0.6875,1,1,430000,,,6,11
65,104,0.6875,2,1,430000,,,6,11
53,104,0.4375,3,1,430000,,,6,7
65,104,0.5625,4,1,430000,,,6,9
46,104,0.25,5,1,430000,,,6,4
60,104,0.3125,6,1,430000,,,6,5
60,104,0.4375,7,0,430000,,,6,7
62,104,0.5625,8,0,430000,,,6,9
60,104,0.5625,0,1,430001,,,6,9
53,104,0.375,1,1,430001,,,6,6
48,104,0.625,2,0,430001,,,6,10
62,104,0.25,3,1,430001,,,6,4
48,104,0.5625,4,1,430001,,,6,9
29,104,0.1875,5,1,430001,,,6,3
48,104,0.625,6,1,430001,,,6,10
48,104,0.5625,7,0,430001,,,6,9
48,104,0.375,0,1,430002,,,6,6
48,104,0.25,1,0,430002,,,6,4
48,104,0.1875,2,0,430002,,,6,3
48,104,0.4375,3,0,430002,,,6,7
34,104,0.9375,0,1,440000,,,6,15
34,104,0.4375,1,1,440000,,,6,7
34,104,0.75,2,0,440000,,,6,12
58,104,0.1875,3,1,440000,,,6,3
34,104,0.875,4,1,440000,,,6,14
34,104,0.375,5,1,440000,,,6,6
46,104,0.8125,6,1,440000,,,6,13
46,104,0.1875,0,1,440001,,,6,3
34,104,0.4375,1,1,440001,,,6,7
29,104,0.4375,2,0,440001,,,6,7
29,104,0.75,3,0,440001,,,6,12
41,104,0.4375,4,1,440001,,,6,7
29,104,0.3125,5,1,440001,,,6,5
29,104,0.1875,6,0,440001,,,6,3
41,104,0.5,7,1,440001,,,6,8
29,104,0.8125,8,1,440001,,,6,13
29,104,0.1875,0,1,440002,,,6,3
29,104,0.5625,1,0,440002,,,6,9
41,104,0.4375,2,1,440002,,,6,7
29,104,0.3125,3,1,440002,,,6,5
29,104,0.25,4,0,440002,,,6,4
58,104,0.4375,0,1,450000,,,6,7
58,104,0.25,1,0,450000,,,6,4
58,104,0.9375,2,0,450000,,,6,15
70,104,0.3125,3,1,450000,,,6,5
58,104,0.6875,4,1,450000,,,6,11
55,104,0.1875,5,0,450000,,,6,3
58,104,0.9375,6,0,450000,,,6,15
58,104,0.375,7,1,450000,,,6,6
68,104,0.25,0,1,450001,,,6,4
58,104,0.375,1,1,450001,,,6,6
58,104,0.3125,2,0,450001,,,6,5
68,104,0.25,3,1,450001,,,6,4
58,104,0.875,4,1,450001,,,6,14
68,104,0.9375,5,1,450001,,,6,15
68,104,0.25,6,1,450001,,,6,4
39,104,0.4375,7,1,450001,,,6,7
51,104,0.375,8,1,450001,,,6,6
39,104,0.375,0,1,450002,,,6,6
51,104,0.5625,1,1,450002,,,6,9
42,104,0.3125,0,1,460000,,,6,5
61,104,0.25,1,1,460000,,,6,4
45,104,0.25,2,1,460000,,,6,4
63,104,0.3125,3,1,460000,,,6,5
46,104,0.375,4,1,460000,,,6,6
61,104,0.1875,5,1,460000,,,6,3
61,104,0.375,6,0,460000,,,6,6
61,104,0.375,7,0,460000,,,6,6
56,104,0.3125,8,0,460000,,,6,5
55,104,0.3125,0,1,470000,,,6,5
57,104,0.8125,1,0,470000,,,6,13
57,104,0.5625,2,1,470000,,,6,9
52,104,0.125,3,0,470000,,,6,2
52,104,0.5,4,0,470000,,,6,8
55,104,0.3125,5,0,470000,,,6,5
52,104,0.1875,6,0,470000,,,6,3
52,104,0.625,7,0,470000,,,6,10
52,104,0.1875,8,0,470000,,,6,3
52,104,0.1875,9,0,470000,,,6,3
53,104,0.75,10,0,470000,,,6,12
48,104,0.6875,0,1,470001,,,6,11
53,104,0.25,1,0,470001,,,6,4
48,104,0.1875,2,0,470001,,,6,3
53,104,0.8125,3,0,470001,,,6,13
53,104,0.9375,4,1,470001,,,6,15
53,104,0.75,5,1,470001,,,6,12
89,104,0.1875,0,1,480000,,,6,3
89,104,0.1875,1,0,480000,,,6,3
89,104,0.125,2,0,480000,,,6,2
31,104,0.125,3,1,480000,,,6,2
59,104,0.375,0,1,490000,,,6,6
57,104,0.4375,1,0,490000,,,6,7
61,104,0.5625,2,0,490000,,,6,9
57,104,0.4375,3,0,490000,,,6,7
59,104,0.875,4,0,490000,,,6,14
57,104,0.4375,5,1,490000,,,6,7
59,104,0.9375,6,0,490000,,,6,15
61,104,0.9375,0,1,490001,,,6,15
61,104,0.9375,1,1,490001,,,6,15
56,104,0.375,2,1,490001,,,6,6
52,104,0.3125,3,0,490001,,,6,5
52,104,0.1875,4,0,490001,,,6,3
56,104,0.9375,5,0,490001,,,6,15
61,104,0.9375,6,1,490001,,,6,15
54,104,0.4375,0,1,500000,,,6,7
62,104,0.4375,1,1,500000,,,6,7
62,104,0.375,2,0,500000,,,6,6
52,104,0.9375,3,1,500000,,,6,15
52,104,0.5,4,1,500000,,,6,8
52,104,0.3125,5,0,500000,,,6,5
64,104,0.1875,6,1,500000,,,6,3
52,104,0.9375,7,1,500000,,,6,15
59,104,0.75,0,1,500001,,,6,12
64,104,0.5625,1,1,500001,,,6,9
68,104,0.3125,2,0,500001,,,6,5
52,104,0.5,3,1,500001,,,6,8
57,104,0.375,4,0,500001,,,6,6
45,104,0.5,5,1,500001,,,6,8
57,104,0.25,6,1,500001,,,6,4
45,104,0.875,7,1,500001,,,6,14
45,104,0.75,0,1,500002,,,6,12
57,104,0.25,1,1,500002,,,6,4
45,104,0.8125,2,1,500002,,,6,13
45,104,0.625,3,1,500002,,,6,10
61,104,0.0,4,1,500002,,,6,0
38,104,0.3125,0,1,510000,,,6,5
38,104,0.25,1,0,510000,,,6,4
38,104,0.1875,2,0,510000,,,6,3
55,104,0.125,3,1,510000,,,6,2
36,104,0.4375,4,1,510000,,,6,7
62,104,0.5,5,1,510000,,,6,8
50,104,0.25,6,1,510000,,,6,4
38,104,0.6875,7,1,510000,,,6,11
38,104,0.625,8,0,510000,,,6,10
38,104,0.625,9,0,510000,,,6,10
38,104,0.625,0,1,510001,,,6,10
38,104,0.5625,1,0,510001,,,6,9
62,104,0.9375,2,1,510001,,,6,15
50,104,0.5,3,1,510001,,,6,8
50,104,0.1875,4,0,510001,,,6,3
67,104,0.5625,0,1,520000,,,6,9
55,104,0.3125,1,1,520000,,,6,5
55,104,0.375,2,0,520000,,,6,6
55,104,0.4375,3,0,520000,,,6,7
55,104,0.25,4,0,520000,,,6,4
62,104,0.375,5,1,520000,,,6,6
67,104,0.1875,6,0,520000,,,6,3
43,104,0.3125,7,1,520000,,,6,5
62,104,0.1875,8,1,520000,,,6,3
67,104,0.25,9,0,520000,,,6,4
67,104,0.5,10,0,520000,,,6,8
67,104,0.9375,11,0,520000,,,6,15
65,104,0.625,0,1,520001,,,6,10
65,104,0.9375,1,0,520001,,,6,15
65,104,0.9375,2,1,520001,,,6,15
64,104,0.875,3,1,520001,,,6,14
64,104,0.75,0,1,520002,,,6,12
67,104,0.1875,1,1,520002,,,6,3
60,104,0.5,2,1,520002,,,6,8
47,104,0.6875,0,1,530000,,,6,11
47,104,0.125,1,0,530000,,,6,2
54,104,0.25,2,1,530000,,,6,4
59,104,0.375,3,0,530000,,,6,6
54,104,0.375,4,0,530000,,,6,6
47,104,0.9375,5,1,530000,,,6,15
35,104,0.5,6,1,530000,,,6,8
47,104,0.375,7,1,530000,,,6,6
54,104,0.3125,8,1,530000,,,6,5
54,104,0.3125,9,0,530000,,,6,5
61,104,0.1875,0,1,530001,,,6,3
61,104,0.625,1,0,530001,,,6,10
54,104,0.875,2,1,530001,,,6,14
59,104,0.1875,3,1,530001,,,6,3
52,104,0.125,4,1,530001,,,6,2
59,104,0.8125,5,1,530001,,,6,13
59,104,0.9375,6,1,530001,,,6,15
47,104,0.25,0,1,530002,,,6,4
59,104,0.1875,1,1,530002,,,6,3
41,104,0.375,0,1,540000,,,6,6
41,104,0.1875,1,0,540000,,,6,3
52,104,0.875,2,1,540000,,,6,14
52,104,0.3125,3,1,540000,,,6,5
50,104,0.5,4,0,540000,,,6,8
62,104,0.3125,5,1,540000,,,6,5
50,104,0.25,6,1,540000,,,6,4
50,104,0.25,7,0,540000,,,6,4
62,104,0.9375,8,1,540000,,,6,15
43,104,0.5,0,1,540001,,,6,8
62,104,0.25,1,1,540001,,,6,4
43,104,0.3125,2,1,540001,,,6,5
62,104,0.1875,3,1,540001,,,6,3
55,104,0.5625,4,1,540001,,,6,9
36,104,0.25,5,1,540001,,,6,4
64,104,0.5625,0,1,550000,,,6,9
59,104,0.9375,1,0,550000,,,6,15
64,104,0.9375,2,1,550000,,,6,15
52,104,0.1875,3,1,550000,,,6,3
57,104,0.875,4,0,550000,,,6,14
54,104,0.25,5,1,550000,,,6,4
63,104,0.1875,6,1,550000,,,6,3
63,104,0.75,7,0,550000,,,6,12
50,104,0.9375,0,1,560000,,,6,15
57,104,0.1875,1,1,560000,,,6,3
50,104,0.5625,2,1,560000,,,6,9
69,104,0.4375,3,1,560000,,,6,7
50,104,0.125,4,1,560000,,,6,2
40,104,0.5,5,1,560000,,,6,8
59,104,0.4375,6,1,560000,,,6,7
64,104,0.4375,7,0,560000,,,6,7
40,104,0.1875,8,1,560000,,,6,3
40,104,0.5,9,0,560000,,,6,8
45,104,0.8125,0,1,560001,,,6,13
45,104,0.25,1,1,560001,,,6,4
61,104,0.375,2,1,560001,,,6,6
45,104,0.9375,3,1,560001,,,6,15
64,104,0.4375,4,1,560001,,,6,7
52,104,0.4375,5,1,560001,,,6,7
50,104,0.8125,6,0,560001,,,6,13
50,104,0.0,0,1,560002,,,6,0
51,104,0.3125,0,1,570000,,,6,5
51,104,0.1875,1,0,570000,,,6,3
56,104,0.75,2,0,570000,,,6,12
51,104,0.25,3,1,570000,,,6,4
51,104,0.125,4,0,570000,,,6,2
58,104,0.1875,5,1,570000,,,6,3
55,104,0.1875,6,0,570000,,,6,3
51,104,0.1875,7,0,570000,,,6,3
39,104,0.1875,8,1,570000,,,6,3
39,104,0.375,9,0,570000,,,6,6
51,104,0.375,10,1,570000,,,6,6
51,104,0.3125,11,0,570000,,,6,5
51,104,0.25,12,0,570000,,,6,4
51,104,0.8125,13,0,570000,,,6,13
51,104,0.25,0,1,570001,,,6,4
51,104,0.4375,1,0,570001,,,6,7
39,104,0.3125,2,1,570001,,,6,5
58,104,0.1875,3,1,570001,,,6,3
51,104,0.0625,4,1,570001,,,6,1
47,104,0.8125,0,1,580000,,,6,13
47,104,0.8125,1,1,580000,,,6,13
47,104,0.9375,2,1,580000,,,6,15
69,104,0.375,3,1,580000,,,6,6
69,104,0.25,4,0,580000,,,6,4
47,104,0.625,5,1,580000,,,6,10
47,104,0.5,6,0,580000,,,6,8
47,104,0.25,0,1,580001,,,6,4
56,104,0.6875,1,1,580001,,,6,11
56,104,0.875,2,0,580001,,,6,14
56,104,0.5625,3,1,580001,,,6,9
69,104,0.5,4,1,580001,,,6,8
56,104,0.9375,5,1,580001,,,6,15
47,104,0.25,0,1,580002,,,6,4
35,104,0.1875,1,1,580002,,,6,3
35,104,0.375,2,0,580002,,,6,6
47,104,0.375,3,1,580002,,,6,6
47,104,0.1875,4,0,580002,,,6,3
47,104,0.4375,5,0,580002,,,6,7
45,104,0.25,0,1,590000,,,6,4
33,104,0.25,1,1,590000,,,6,4
57,104,0.4375,2,1,590000,,,6,7
38,104,0.9375,3,1,590000,,,6,15
65,104,0.1875,4,1,590000,,,6,3
65,104,0.25,5,0,590000,,,6,4
65,104,0.3125,6,0,590000,,,6,5
65,104,0.9375,7,0,590000,,,6,15
65,104,0.1875,8,1,590000,,,6,3
65,104,0.75,9,0,590000,,,6,12
59,104,0.3125,0,1,590001,,,6,5
59,104,0.25,1,0,590001,,,6,4
59,104,0.3125,2,0,590001,,,6,5
60,104,0.3125,0,1,600000,,,6,5
60,104,0.3125,1,0,600000,,,6,5
53,104,0.1875,2,1,600000,,,6,3
57,104,0.125,3,0,600000,,,6,2
53,104,0.125,4,0,600000,,,6,2
53,104,0.25,5,0,600000,,,6,4
60,104,0.3125,6,1,600000,,,6,5
53,104,0.375,7,1,600000,,,6,6
58,104,0.125,8,0,600000,,,6,2
58,104,0.9375,9,0,600000,,,6,15
60,104,0.375,10,1,600000,,,6,6
60,104,0.4375,11,0,600000,,,6,7
60,104,0.9375,12,0,600000,,,6,15
60,104,0.1875,0,1,600001,,,6,3
45,104,0.1875,1,1,600001,,,6,3
53,104,0.1875,2,1,600001,,,6,3
53,104,0.1875,3,0,600001,,,6,3
65,104,0.4375,4,1,600001,,,6,7
46,104,0.8125,5,1,600001,,,6,13
46,104,0.375,6,1,600001,,,6,6
78,104,0.9375,0,1,610000,,,6,15
57,104,0.875,1,1,610000,,,6,14
69,104,0.1875,2,1,610000,,,6,3
74,104,0.625,3,0,610000,,,6,10
76,104,0.25,4,0,610000,,,6,4
57,104,0.625,5,1,610000,,,6,10
69,104,0.9375,6,1,610000,,,6,15
74,104,0.8125,0,1,610001,,,6,13
76,104,0.3125,1,1,610001,,,6,5
78,104,0.5,2,0,610001,,,6,8
76,104,0.9375,3,0,610001,,,6,15
81,104,0.5,4,1,610001,,,6,8
57,104,0.75,5,1,610001,,,6,12
74,104,0.9375,0,1,610002,,,6,15
66,104,0.4375,1,1,610002,,,6,7
66,104,0.3125,2,0,610002,,,6,5
57,104,0.25,0,1,620000,,,6,4
45,104,0.9375,1,1,620000,,,6,15
57,104,0.25,2,1,620000,,,6,4
45,104,0.25,3,1,620000,,,6,4
45,104,0.9375,4,0,620000,,,6,15
66,104,0.375,5,1,620000,,,6,6
66,104,0.1875,6,0,620000,,,6,3
38,104,0.3125,7,1,620000,,,6,5
64,104,0.1875,8,1,620000,,,6,3
38,104,0.4375,9,1,620000,,,6,7
38,104,0.9375,0,1,620001,,,6,15
62,104,0.625,1,1,620001,,,6,10
38,104,0.1875,2,1,620001,,,6,3
38,104,0.5625,3,0,620001,,,6,9
50,104,0.25,4,1,620001,,,6,4
62,104,0.1875,5,1,620001,,,6,3
38,104,0.1875,6,1,620001,,,6,3
50,104,0.6875,7,1,620001,,,6,11
57,104,0.3125,8,1,620001,,,6,5
38,104,0.3125,0,1,620002,,,6,5
38,104,0.4375,1,0,620002,,,6,7
50,104,0.5,2,1,620002,,,6,8
34,104,0.1875,0,1,630000,,,6,3
58,104,0.25,1,1,630000,,,6,4
58,104,0.1875,2,0,630000,,,6,3
34,104,0.375,3,1,630000,,,6,6
34,104,0.1875,4,0,630000,,,6,3
62,104,0.1875,5,1,630000,,,6,3
53,104,0.1875,6,1,630000,,,6,3
46,104,0.1875,7,1,630000,,,6,3
51,104,0.625,8,0,630000,,,6,10
34,104,0.125,9,1,630000,,,6,2
34,104,0.1875,10,0,630000,,,6,3
34,104,0.1875,11,0,630000,,,6,3
34,104,0.3125,12,0,630000,,,6,5
34,104,0.25,13,0,630000,,,6,4
34,104,0.1875,14,0,630000,,,6,3
34,104,0.6875,15,0,630000,,,6,11
34,104,0.4375,0,1,630001,,,6,7
62,104,0.3125,0,1,640000,,,6,5
62,104,0.9375,1,0,640000,,,6,15
57,104,0.1875,2,1,640000,,,6,3
62,104,0.1875,3,0,640000,,,6,3
50,104,0.5,4,1,640000,,,6,8
50,104,0.25,5,0,640000,,,6,4
50,104,0.25,6,0,640000,,,6,4
50,104,0.3125,7,0,640000,,,6,5
62,104,0.25,8,1,640000,,,6,4
62,104,0.1875,9,0,640000,,,6,3
48,104,0.9375,10,1,640000,,,6,15
48,104,0.1875,0,1,640001,,,6,3
48,104,0.375,1,0,640001,,,6,6
60,104,0.1875,2,1,640001,,,6,3
48,104,0.1875,3,1,640001,,,6,3
60,104,0.1875,4,1,640001,,,6,3
60,104,0.4375,5,0,640001,,,6,7
55,104,0.1875,6,0,640001,,,6,3
59,104,0.1875,7,0,640001,,,6,3
59,104,0.625,8,0,640001,,,6,10
59,104,0.1875,9,0,640001,,,6,3
59,104,0.25,10,0,640001,,,6,4
59,104,0.3125,11,0,640001,,,6,5
52,104,0.9375,0,1,650000,,,6,15
52,104,0.3125,1,1,650000,,,6,5
54,104,0.1875,2,0,650000,,,6,3
52,104,0.5,3,0,650000,,,6,8
33,104,0.75,4,1,650000,,,6,12
33,104,0.125,5,1,650000,,,6,2
33,104,0.25,6,0,650000,,,6,4
45,104,0.25,7,1,650000,,,6,4
52,104,0.125,8,1,650000,,,6,2
45,104,0.25,9,1,650000,,,6,4
45,104,0.1875,10,0,650000,,,6,3
47,104,0.8125,11,0,650000,,,6,13
47,104,0.8125,0,1,650001,,,6,13
47,104,0.25,1,1,650001,,,6,4
47,104,0.5,2,0,650001,,,6,8
50,104,0.9375,3,0,650001,,,6,15
50,104,0.5625,4,1,650001,,,6,9
50,104,0.3125,5,0,650001,,,6,5
52,104,0.5,0,1,650002,,,6,8
65,104,0.3125,0,1,660000,,,6,5
65,104,0.5625,1,0,660000,,,6,9
48,104,0.9375,2,1,660000,,,6,15
36,104,0.5625,3,1,660000,,,6,9
60,104,0.75,4,1,660000,,,6,12
48,104,0.9375,5,1,660000,,,6,15
60,104,0.3125,0,1,660001,,,6,5
60,104,0.4375,1,0,660001,,,6,7
60,104,0.25,2,0,660001,,,6,4
41,104,0.25,3,1,660001,,,6,4
53,104,0.875,4,1,660001,,,6,14
53,104,0.5,5,1,660001,,,6,8
65,104,0.1875,6,1,660001,,,6,3
53,104,0.625,7,1,660001,,,6,10
50,104,0.5,0,1,670000,,,6,8
64,104,0.3125,1,1,670000,,,6,5
61,104,0.9375,2,0,670000,,,6,15
59,104,0.3125,3,1,670000,,,6,5
33,104,0.5,4,1,670000,,,6,8
33,104,0.875,5,0,670000,,,6,14
61,104,0.9375,6,1,670000,,,6,15
62,104,0.9375,0,1,670001,,,6,15
38,104,0.25,1,1,670001,,,6,4
62,104,0.5625,2,1,670001,,,6,9
62,104,0.625,3,0,670001,,,6,10
40,104,0.6875,4,1,670001,,,6,11
28,104,0.25,5,1,670001,,,6,4
48,104,0.375,0,1,680000,,,6,6
51,104,0.875,1,0,680000,,,6,14
51,104,0.1875,2,1,680000,,,6,3
51,104,0.375,3,0,680000,,,6,6
51,104,0.3125,4,0,680000,,,6,5
35,104,0.375,0,1,690000,,,6,6
63,104,0.3125,1,1,690000,,,6,5
45,104,0.25,2,1,690000,,,6,4
45,104,0.3125,3,0,690000,,,6,5
57,104,0.375,4,1,690000,,,6,6
45,104,0.1875,5,1,690000,,,6,3
45,104,0.4375,6,0,690000,,,6,7
57,104,0.9375,7,1,690000,,,6,15
64,104,0.75,8,1,690000,,,6,12
64,104,0.375,9,1,690000,,,6,6
59,104,0.3125,0,1,690001,,,6,5
64,104,0.875,1,0,690001,,,6,14
52,104,0.3125,2,1,690001,,,6,5
52,104,0.3125,3,0,690001,,,6,5
59,104,0.1875,4,1,690001,,,6,3
52,104,0.1875,5,1,690001,,,6,3
52,104,0.1875,6,0,690001,,,6,3
59,104,0.5625,7,1,690001,,,6,9
59,104,0.5,8,0,690001,,,6,8
59,104,0.25,9,0,690001,,,6,4
52,104,0.375,0,1,690002,,,6,6
52,104,0.6875,1,0,690002,,,6,11
64,104,0.125,2,1,690002,,,6,2
63,104,0.5,0,1,700000,,,6,8
63,104,0.25,1,0,700000,,,6,4
53,104,0.1875,2,1,700000,,,6,3
48,104,0.5625,3,0,700000,,,6,9
48,104,0.375,4,0,700000,,,6,6
63,104,0.375,5,1,700000,,,6,6
56,104,0.25,6,1,700000,,,6,4
51,104,0.375,7,0,700000,,,6,6
56,104,0.1875,8,0,700000,,,6,3
56,104,0.5625,9,0,700000,,,6,9
70,104,0.375,0,1,710000,,,6,6
72,104,0.4375,1,0,710000,,,6,7
51,104,0.1875,2,1,710000,,,6,3
70,104,0.5,3,1,710000,,,6,8
58,104,0.3125,4,1,710000,,,6,5
70,104,0.875,5,1,710000,,,6,14
58,104,0.25,6,1,710000,,,6,4
46,104,0.9375,7,1,710000,,,6,15
34,104,0.25,8,1,710000,,,6,4
65,104,0.3125,0,1,710001,,,6,5
67,104,0.25,1,0,710001,,,6,4
46,104,0.375,2,1,710001,,,6,6
65,104,0.3125,3,1,710001,,,6,5
67,104,0.375,4,0,710001,,,6,6
53,104,0.8125,5,1,710001,,,6,13
65,104,0.375,6,1,710001,,,6,6
53,104,0.375,7,1,710001,,,6,6
65,104,0.625,8,1,710001,,,6,10
53,104,0.3125,9,1,710001,,,6,5
53,104,0.375,0,1,710002,,,6,6
48,104,0.3125,1,0,710002,,,6,5
65,104,0.1875,2,1,710002,,,6,3
53,104,0.3125,3,1,710002,,,6,5
65,104,0.4375,4,1,710002,,,6,7
53,104,0.1875,5,1,710002,,,6,3
39,104,0.1875,0,1,720000,,,6,3
39,104,0.9375,1,0,720000,,,6,15
51,104,0.25,2,1,720000,,,6,4
63,104,0.25,3,1,720000,,,6,4
51,104,0.3125,4,1,720000,,,6,5
58,104,0.1875,5,1,720000,,,6,3
58,104,0.375,6,0,720000,,,6,6
58,104,0.1875,7,0,720000,,,6,3
46,104,0.1875,8,1,720000,,,6,3
46,104,0.5,9,0,720000,,,6,8
46,104,0.1875,10,0,720000,,,6,3
46,104,0.1875,11,0,720000,,,6,3
46,104,0.1875,12,0,720000,,,6,3
58,104,0.1875,13,1,720000,,,6,3
63,104,0.3125,0,1,720001,,,6,5
64,104,0.625,0,1,730000,,,6,10
57,104,0.1875,1,1,730000,,,6,3
64,104,0.9375,2,1,730000,,,6,15
45,104,0.3125,3,1,730000,,,6,5
45,104,0.125,4,0,730000,,,6,2
45,104,0.4375,5,0,730000,,,6,7
57,104,0.6875,6,1,730000,,,6,11
40,104,0.1875,7,1,730000,,,6,3
40,104,0.1875,8,0,730000,,,6,3
64,104,0.25,9,1,730000,,,6,4
40,104,0.1875,10,1,730000,,,6,3
64,104,0.125,0,1,730001,,,6,2
40,104,0.75,1,1,730001,,,6,12
59,104,0.375,2,1,730001,,,6,6
59,104,0.9375,3,0,730001,,,6,15
59,104,0.625,4,1,730001,,,6,10
64,104,0.1875,5,0,730001,,,6,3
59,104,0.3125,6,0,730001,,,6,5
66,104,0.1875,7,1,730001,,,6,3
54,104,0.3125,8,1,730001,,,6,5
47,104,0.25,0,1,740000,,,6,4
57,104,0.9375,1,1,740000,,,6,15
33,104,0.9375,2,1,740000,,,6,15
45,104,0.875,3,1,740000,,,6,14
33,104,0.1875,4,1,740000,,,6,3
33,104,0.9375,5,0,740000,,,6,15
45,104,0.3125,0,1,740001,,,6,5
33,104,0.25,1,1,740001,,,6,4
45,104,0.875,2,1,740001,,,6,14
33,104,0.625,3,1,740001,,,6,10
57,104,0.5,4,1,740001,,,6,8
33,104,0.8125,5,1,740001,,,6,13
45,104,0.875,6,1,740001,,,6,14
33,104,0.375,0,1,740002,,,6,6
33,104,0.9375,1,0,740002,,,6,15
33,104,0.625,2,1,740002,,,6,10
33,104,0.3125,3,0,740002,,,6,5
57,104,0.125,4,1,740002,,,6,2
35,104,0.3125,0,1,750000,,,6,5
63,104,0.1875,1,1,750000,,,6,3
57,104,0.375,2,0,750000,,,6,6
45,104,0.9375,3,1,750000,,,6,15
45,104,0.25,4,1,750000,,,6,4
57,104,0.9375,5,1,750000,,,6,15
64,104,0.9375,6,1,750000,,,6,15
45,104,0.25,7,1,750000,,,6,4
45,104,0.375,0,1,750001,,,6,6
64,104,0.75,1,1,750001,,,6,12
52,104,0.1875,2,1,750001,,,6,3
57,104,0.1875,3,0,750001,,,6,3
57,104,0.75,4,0,750001,,,6,12
45,104,0.4375,5,1,750001,,,6,7
47,104,0.8125,6,0,750001,,,6,13
59,104,0.1875,7,1,750001,,,6,3
47,104,0.5,8,1,750001,,,6,8
59,104,0.1875,0,1,750002,,,6,3
47,104,0.1875,1,1,750002,,,6,3
35,104,0.25,2,1,750002,,,6,4
35,104,0.1875,3,0,750002,,,6,3
51,104,0.1875,0,1,760000,,,6,3
34,104,0.9375,1,1,760000,,,6,15
61,104,0.375,2,1,760000,,,6,6
49,104,0.4375,3,1,760000,,,6,7
54,104,0.5,4,0,760000,,,6,8
54,104,0.25,5,0,760000,,,6,4
66,104,0.1875,6,1,760000,,,6,3
56,104,0.25,7,1,760000,,,6,4
56,104,0.8125,8,0,760000,,,6,13
61,104,0.375,9,1,760000,,,6,6
56,104,0.375,0,1,760001,,,6,6
44,104,0.125,1,1,760001,,,6,2
56,104,0.8125,2,1,760001,,,6,13
56,104,0.4375,3,1,760001,,,6,7
56,104,0.6875,4,0,760001,,,6,11
56,104,0.5625,5,0,760001,,,6,9
56,104,0.4375,6,0,760001,,,6,7
64,104,0.25,0,1,770000,,,6,4
45,104,0.25,1,1,770000,,,6,4
45,104,0.25,2,0,770000,,,6,4
57,104,0.25,3,1,770000,,,6,4
61,104,0.125,4,0,770000,,,6,2
57,104,0.5625,5,0,770000,,,6,9
62,104,0.8125,6,0,770000,,,6,13
62,104,0.1875,7,1,770000,,,6,3
62,104,0.9375,8,0,770000,,,6,15
47,104,0.375,9,1,770000,,,6,6
54,104,0.4375,0,1,770001,,,6,7
62,104,0.3125,1,1,770001,,,6,5
62,104,0.625,2,0,770001,,,6,10
50,104,0.25,3,1,770001,,,6,4
62,104,0.5625,4,1,770001,,,6,9
62,104,0.3125,5,0,770001,,,6,5
62,104,0.25,6,0,770001,,,6,4
62,104,0.25,7,0,770001,,,6,4
57,104,0.625,8,0,770001,,,6,10
62,104,0.5625,9,0,770001,,,6,9
57,104,0.3125,0,1,770002,,,6,5
62,104,0.375,1,0,770002,,,6,6
62,104,0.0625,2,0,770002,,,6,1
47,104,0.125,0,1,780000,,,6,2
47,104,0.9375,1,0,780000,,,6,15
30,104,0.125,2,1,780000,,,6,2
54,104,0.5,3,1,780000,,,6,8
42,104,0.9375,4,1,780000,,,6,15
42,104,0.9375,5,1,780000,,,6,15
54,104,0.1875,6,1,780000,,,6,3
51,104,0.9375,7,0,780000,,,6,15
63,104,0.4375,0,1,780001,,,6,7
51,104,0.5625,1,1,780001,,,6,9
36,104,0.125,0,1,790000,,,6,2
55,104,0.625,1,1,790000,,,6,10
55,104,0.4375,2,0,790000,,,6,7
60,104,0.4375,3,0,790000,,,6,7
36,104,0.125,4,1,790000,,,6,2
64,104,0.4375,5,1,790000,,,6,7
55,104,0.4375,6,1,790000,,,6,7
53,104,0.25,7,0,790000,,,6,4
55,104,0.375,8,0,790000,,,6,6
53,104,0.3125,9,0,790000,,,6,5
62,104,0.125,10,1,790000,,,6,2
62,104,0.4375,11,0,790000,,,6,7
57,104,0.9375,0,1,790001,,,6,15
65,104,0.25,1,1,790001,,,6,4
65,104,0.25,2,0,790001,,,6,4
60,104,0.25,3,0,790001,,,6,4
53,104,0.25,4,1,790001,,,6,4
41,104,0.125,5,1,790001,,,6,2
60,104,0.3125,0,1,800000,,,6,5
46,104,0.6875,1,1,800000,,,6,11
34,104,0.25,2,1,800000,,,6,4
34,104,0.3125,3,0,800000,,,6,5
60,104,0.375,4,1,800000,,,6,6
60,104,0.6875,5,0,800000,,,6,11
60,104,0.8125,6,0,800000,,,6,13
55,104,0.25,7,1,800000,,,6,4
53,104,0.9375,8,0,800000,,,6,15
53,104,0.3125,0,1,800001,,,6,5
53,104,0.125,1,0,800001,,,6,2
41,104,0.25,2,1,800001,,,6,4
60,104,0.625,3,1,800001,,,6,10
57,104,0.25,4,0,800001,,,6,4
62,104,0.5,5,0,800001,,,6,8
41,104,0.3125,6,1,800001,,,6,5
53,104,0.1875,7,1,800001,,,6,3
41,104,0.1875,8,1,800001,,,6,3
60,104,0.9375,9,1,800001,,,6,15
57,104,0.9375,0,1,800002,,,6,15
48,104,0.25,1,1,800002,,,6,4
48,104,0.1875,2,0,800002,,,6,3
56,104,0.9375,0,1,810000,,,6,15
58,104,0.9375,1,1,810000,,,6,15
56,104,0.9375,2,1,810000,,,6,15
53,104,0.5,3,1,810000,,,6,8
56,104,0.75,4,0,810000,,,6,12
53,104,0.3125,0,1,810001,,,6,5
56,104,0.9375,1,0,810001,,,6,15
58,104,0.1875,2,1,810001,,,6,3
51,104,0.375,3,1,810001,,,6,6
63,104,0.4375,4,1,810001,,,6,7
58,104,0.9375,5,0,810001,,,6,15
56,104,0.625,6,1,810001,,,6,10
56,104,0.0625,7,0,810001,,,6,1
44,104,0.125,0,1,820000,,,6,2
64,104,0.5,1,1,820000,,,6,8
36,104,0.625,2,1,820000,,,6,10
48,104,0.9375,3,1,820000,,,6,15
48,104,0.5,4,1,820000,,,6,8
48,104,0.125,5,0,820000,,,6,2
67,104,0.6875,6,1,820000,,,6,11
55,104,0.1875,7,1,820000,,,6,3
57,104,0.9375,8,0,820000,,,6,15
57,104,0.125,0,1,820001,,,6,2
53,104,0.9375,1,0,820001,,,6,15
57,104,0.3125,2,1,820001,,,6,5
57,104,0.375,3,0,820001,,,6,6
52,104,0.1875,4,0,820001,,,6,3
52,104,0.5625,5,0,820001,,,6,9
40,104,0.375,6,1,820001,,,6,6
52,104,0.875,7,1,820001,,,6,14
52,104,0.3125,0,1,820002,,,6,5
52,104,0.375,1,0,820002,,,6,6
53,104,0.25,0,1,830000,,,6,4
53,104,0.25,1,0,830000,,,6,4
55,104,0.1875,2,0,830000,,,6,3
48,104,0.3125,3,1,830000,,,6,5
48,104,0.1875,4,0,830000,,,6,3
55,104,0.125,5,1,830000,,,6,2
55,104,0.125,6,0,830000,,,6,2
50,104,0.5,7,0,830000,,,6,8
55,104,0.4375,8,0,830000,,,6,7
50,104,0.25,9,0,830000,,,6,4
55,104,0.375,10,0,830000,,,6,6
53,104,0.25,11,0,830000,,,6,4
56,104,0.3125,12,0,830000,,,6,5
63,104,0.1875,0,1,840000,,,6,3
64,104,0.25,1,0,840000,,,6,4
68,104,0.5,2,0,840000,,,6,8
51,104,0.25,3,1,840000,,,6,4
63,104,0.1875,4,1,840000,,,6,3
39,104,0.25,5,1,840000,,,6,4
46,104,0.375,6,1,840000,,,6,6
46,104,0.3125,7,0,840000,,,6,5
46,104,0.125,8,0,840000,,,6,2
46,104,0.1875,9,0,840000,,,6,3
46,104,0.1875,10,0,840000,,,6,3
40,104,0.375,0,1,850000,,,6,6
28,104,0.3125,1,1,850000,,,6,5
56,104,0.75,2,1,850000,,,6,12
28,104,0.3125,3,1,850000,,,6,5
47,104,0.1875,4,1,850000,,,6,3
56,104,0.9375,5,1,850000,,,6,15
28,104,0.25,6,1,850000,,,6,4
56,104,0.5625,7,1,850000,,,6,9
47,104,0.5,8,1,850000,,,6,8
56,104,0.25,0,1,850001,,,6,4
35,104,0.8125,1,1,850001,,,6,13
35,104,0.6875,2,1,850001,,,6,11
35,104,0.0625,3,0,850001,,,6,1
53,104,0.5,0,1,860000,,,6,8
55,104,0.25,1,0,860000,,,6,4
58,104,0.1875,2,0,860000,,,6,3
46,104,0.625,3,1,860000,,,6,10
46,104,0.125,4,0,860000,,,6,2
65,104,0.25,5,1,860000,,,6,4
58,104,0.9375,6,1,860000,,,6,15
51,104,0.1875,7,1,860000,,,6,3
51,104,0.0625,8,0,860000,,,6,1
56,104,0.5,0,1,870000,,,6,8
60,104,0.25,1,0,870000,,,6,4
63,104,0.1875,2,0,870000,,,6,3
60,104,0.9375,3,0,870000,,,6,15
56,104,0.1875,4,1,870000,,,6,3
68,104,0.25,5,1,870000,,,6,4
56,104,0.375,6,1,870000,,,6,6
51,104,0.3125,7,0,870000,,,6,5
63,104,0.5,8,1,870000,,,6,8
63,104,0.125,9,0,870000,,,6,2
63,104,0.4375,10,0,870000,,,6,7
63,104,0.375,0,1,870001,,,6,6
61,104,0.5,1,0,870001,,,6,8
63,104,0.6875,2,0,870001,,,6,11
51,104,0.9375,3,1,870001,,,6,15
51,104,0.75,4,1,870001,,,6,12
56,104,0.0625,5,1,870001,,,6,1
52,104,0.4375,0,1,880000,,,6,7
55,104,0.9375,1,0,880000,,,6,15
55,104,0.1875,2,1,880000,,,6,3
50,104,0.625,3,0,880000,,,6,10
60,104,0.25,4,1,880000,,,6,4
50,104,0.5625,5,1,880000,,,6,9
54,104,0.3125,6,0,880000,,,6,5
50,104,0.25,7,0,880000,,,6,4
62,104,0.125,8,1,880000,,,6,2
52,104,0.6875,9,1,880000,,,6,11
52,104,0.5,0,1,880001,,,6,8
59,104,0.9375,1,1,880001,,,6,15
50,104,0.9375,2,1,880001,,,6,15
57,104,0.5,3,1,880001,,,6,8
59,104,0.4375,4,0,880001,,,6,7
57,104,0.9375,0,1,890000,,,6,15
33,104,0.75,1,1,890000,,,6,12
33,104,0.9375,2,1,890000,,,6,15
45,104,0.5625,3,1,890000,,,6,9
45,104,0.5625,4,0,890000,,,6,9
33,104,0.9375,5,1,890000,,,6,15
33,104,0.75,0,1,890001,,,6,12
57,104,0.625,1,1,890001,,,6,10
33,104,0.9375,2,1,890001,,,6,15
57,104,0.8125,3,1,890001,,,6,13
52,104,0.5,4,1,890001,,,6,8
33,104,0.4375,0,1,890002,,,6,7
52,104,0.1875,1,1,890002,,,6,3
52,104,0.1875,2,0,890002,,,6,3
52,104,0.125,3,0,890002,,,6,2
64,104,0.4375,4,1,890002,,,6,7
83,104,0.4375,5,1,890002,,,6,7
50,104,0.25,6,1,890002,,,6,4
50,104,0.6875,7,0,890002,,,6,11
51,104,0.4375,0,1,900000,,,6,7
51,104,0.375,1,0,900000,,,6,6
58,104,0.25,2,1,900000,,,6,4
46,104,0.9375,3,1,900000,,,6,15
63,104,0.4375,4,1,900000,,,6,7
58,104,0.75,5,0,900000,,,6,12
43,104,0.1875,6,1,900000,,,6,3
58,104,0.9375,7,1,900000,,,6,15
48,104,0.3125,0,1,900001,,,6,5
41,104,0.5,1,1,900001,,,6,8
63,104,0.625,2,1,900001,,,6,10
63,104,0.3125,3,0,900001,,,6,5
58,104,0.0625,4,0,900001,,,6,1
56,104,0.25,0,1,910000,,,6,4
50,104,0.25,1,0,910000,,,6,4
50,104,0.5625,2,0,910000,,,6,9
50,104,0.375,3,0,910000,,,6,6
64,104,0.1875,4,1,910000,,,6,3
52,104,0.1875,5,1,910000,,,6,3
40,104,0.375,6,1,910000,,,6,6
40,104,0.5625,7,0,910000,,,6,9
49,104,0.1875,8,1,910000,,,6,3
54,104,0.6875,9,0,910000,,,6,11
54,104,0.1875,10,0,910000,,,6,3
50,104,0.3125,11,0,910000,,,6,5
47,104,0.1875,0,1,910001,,,6,3
47,104,0.1875,1,0,910001,,,6,3
66,104,0.1875,2,1,910001,,,6,3
47,104,0.5,3,1,910001,,,6,8
55,104,0.9375,0,1,920000,,,6,15
55,104,0.8125,1,1,920000,,,6,13
55,104,0.9375,2,1,920000,,,6,15
55,104,0.3125,3,1,920000,,,6,5
55,104,0.9375,4,0,920000,,,6,15
67,104,0.25,5,1,920000,,,6,4
55,104,0.25,0,1,920001,,,6,4
43,104,0.6875,1,1,920001,,,6,11
55,104,0.9375,2,1,920001,,,6,15
67,104,0.1875,3,1,920001,,,6,3
55,104,0.1875,4,1,920001,,,6,3
55,104,0.5625,5,0,920001,,,6,9
67,104,0.4375,6,1,920001,,,6,7
60,104,0.4375,7,1,920001,,,6,7
65,104,0.3125,8,0,920001,,,6,5
53,104,0.1875,0,1,930000,,,6,3
53,104,0.1875,1,0,930000,,,6,3
43,104,0.625,2,1,930000,,,6,10
62,104,0.25,3,1,930000,,,6,4
62,104,0.5625,4,0,930000,,,6,9
55,104,0.5625,5,1,930000,,,6,9
43,104,0.1875,6,1,930000,,,6,3
53,104,0.1875,7,1,930000,,,6,3
60,104,0.375,8,1,930000,,,6,6
53,104,0.125,9,1,930000,,,6,2
53,104,0.5625,10,0,930000,,,6,9
53,104,0.25,11,0,930000,,,6,4
58,104,0.4375,0,1,930001,,,6,7
43,104,0.4375,0,1,940000,,,6,7
62,104,0.9375,1,1,940000,,,6,15
62,104,0.4375,2,1,940000,,,6,7
62,104,0.75,3,0,940000,,,6,12
57,104,0.25,4,1,940000,,,6,4
57,104,0.875,5,0,940000,,,6,14
38,104,0.625,6,1,940000,,,6,10
57,104,0.5,0,1,940001,,,6,8
50,104,0.1875,1,1,940001,,,6,3
38,104,0.1875,2,1,940001,,,6,3
50,104,0.1875,3,1,940001,,,6,3
50,104,0.3125,4,0,940001,,,6,5
38,104,0.9375,5,1,940001,,,6,15
62,104,0.5625,6,1,940001,,,6,9
62,104,0.25,7,0,940001,,,6,4
57,104,0.5625,8,0,940001,,,6,9
55,104,0.1875,0,1,940002,,,6,3
59,104,0.5,1,0,940002,,,6,8
59,104,0.4375,2,0,940002,,,6,7
57,104,0.1875,0,1,950000,,,6,3
57,104,0.625,1,0,950000,,,6,10
57,104,0.5625,2,0,950000,,,6,9
57,104,0.125,3,0,950000,,,6,2
57,104,0.5625,4,0,950000,,,6,9
57,104,0.3125,5,0,950000,,,6,5
57,104,0.4375,6,0,950000,,,6,7
57,104,0.4375,7,0,950000,,,6,7
57,104,0.9375,8,0,950000,,,6,15
57,104,0.9375,0,1,950001,,,6,15
57,104,0.875,1,1,950001,,,6,14
57,104,0.6875,2,1,950001,,,6,11
57,104,0.375,3,0,950001,,,6,6
57,104,0.1875,4,0,950001,,,6,3
57,104,0.3125,5,0,950001,,,6,5
57,104,0.5625,6,0,950001,,,6,9
69,104,0.3125,0,1,950002,,,6,5
57,104,0.0625,1,1,950002,,,6,1
26,104,0.25,0,1,960000,,,6,4
50,104,0.1875,1,1,960000,,,6,3
50,104,0.125,2,0,960000,,,6,2
26,104,0.1875,3,1,960000,,,6,3
50,104,0.3125,4,1,960000,,,6,5
50,104,0.1875,5,0,960000,,,6,3
50,104,0.4375,6,0,960000,,,6,7
26,104,0.1875,7,1,960000,,,6,3
38,104,0.3125,8,1,960000,,,6,5
26,104,0.1875,9,1,960000,,,6,3
37,104,0.5625,10,1,960000,,,6,9
37,104,0.625,11,0,960000,,,6,10
49,104,0.25,12,1,960000,,,6,4
38,104,0.3125,13,1,960000,,,6,5
50,104,0.9375,0,1,960001,,,6,15
60,104,0.8125,0,1,970000,,,6,13
53,104,0.5625,1,1,970000,,,6,9
51,104,0.9375,2,0,970000,,,6,15
39,104,0.4375,3,1,970000,,,6,7
51,104,0.9375,4,1,970000,,,6,15
58,104,0.1875,5,1,970000,,,6,3
39,104,0.25,6,1,970000,,,6,4
51,104,0.375,0,1,970001,,,6,6
51,104,0.1875,1,0,970001,,,6,3
51,104,0.3125,2,0,970001,,,6,5
51,104,0.25,3,0,970001,,,6,4
65,104,0.25,4,1,970001,,,6,4
51,104,0.4375,5,1,970001,,,6,7
58,104,0.875,6,1,970001,,,6,14
53,104,0.5625,7,1,970001,,,6,9
60,104,0.6875,8,1,970001,,,6,11
41,104,0.125,0,1,970002,,,6,2
53,104,0.375,1,1,970002,,,6,6
53,104,0.25,2,0,970002,,,6,4
65,104,0.1875,3,1,970002,,,6,3
41,104,0.25,4,1,970002,,,6,4
41,104,0.1875,5,0,970002,,,6,3
40,104,0.625,0,1,980000,,,6,10
59,104,0.875,1,1,980000,,,6,14
59,104,0.375,2,1,980000,,,6,6
40,104,0.4375,3,1,980000,,,6,7
33,104,0.4375,4,1,980000,,,6,7
59,104,0.375,5,1,980000,,,6,6
61,104,0.375,6,0,980000,,,6,6
61,104,0.1875,7,0,980000,,,6,3
57,104,0.625,8,0,980000,,,6,10
45,104,0.375,0,1,980001,,,6,6
33,104,0.1875,1,1,980001,,,6,3
33,104,0.375,2,0,980001,,,6,6
33,104,0.5,3,0,980001,,,6,8
64,104,0.1875,4,1,980001,,,6,3
50,104,0.9375,5,1,980001,,,6,15
57,104,0.6875,6,1,980001,,,6,11
57,104,0.3125,7,0,980001,,,6,5
40,104,0.6875,8,1,980001,,,6,11
40,104,0.25,0,1,980002,,,6,4
64,104,0.125,1,1,980002,,,6,2
40,104,0.1875,2,1,980002,,,6,3
40,104,0.25,3,0,980002,,,6,4
43,104,0.375,0,1,990000,,,6,6
43,104,0.1875,1,0,990000,,,6,3
43,104,0.1875,2,0,990000,,,6,3
43,104,0.375,3,0,990000,,,6,6
43,104,0.1875,4,0,990000,,,6,3
43,104,0.375,5,0,990000,,,6,6
43,104,0.3125,6,0,990000,,,6,5
43,104,0.25,7,0,990000,,,6,4
43,104,0.1875,8,0,990000,,,6,3
64,104,0.5625,9,1,990000,,,6,9
66,104,0.4375,10,0,990000,,,6,7
69,104,0.4375,11,0,990000,,,6,7
73,104,0.4375,12,0,990000,,,6,7
71,104,0.375,0,1,990001,,,6,6
73,104,0.9375,1,0,990001,,,6,15
71,104,0.75,2,1,990001,,,6,12
71,104,0.5,3,1,990001,,,6,8
64,104,0.6875,0,1,1000000,,,6,11
64,104,0.3125,1,0,1000000,,,6,5
64,104,0.5625,2,0,1000000,,,6,9
64,104,0.1875,3,0,1000000,,,6,3
64,104,0.1875,4,0,1000000,,,6,3
59,104,0.375,5,0,1000000,,,6,6
54,104,0.25,6,0,1000000,,,6,4
59,104,0.6875,7,0,1000000,,,6,11
59,104,0.5,8,0,1000000,,,6,8
47,104,0.625,9,1,1000000,,,6,10
47,104,0.1875,0,1,1000001,,,6,3
35,104,0.1875,1,1,1000001,,,6,3
47,104,0.1875,2,1,1000001,,,6,3
35,104,0.75,3,1,1000001,,,6,12
35,104,0.1875,4,1,1000001,,,6,3
35,104,0.1875,5,0,1000001,,,6,3
59,104,0.1875,6,1,1000001,,,6,3
59,104,0.625,7,0,1000001,,,6,10
58,104,0.75,0,1,1010000,,,6,12
58,104,0.3125,1,1,1010000,,,6,5
63,104,0.25,2,0,1010000,,,6,4
58,104,0.9375,3,0,1010000,,,6,15
65,104,0.9375,4,1,1010000,,,6,15
58,104,0.4375,5,1,1010000,,,6,7
58,104,0.9375,6,0,1010000,,,6,15
63,104,0.9375,0,1,1010001,,,6,15
63,104,0.3125,1,1,1010001,,,6,5
35,104,0.1875,0,1,1020000,,,6,3
35,104,0.25,1,0,1020000,,,6,4
35,104,0.5,2,0,1020000,,,6,8
59,104,0.375,3,1,1020000,,,6,6
64,104,0.3125,4,0,1020000,,,6,5
64,104,0.1875,5,0,1020000,,,6,3
64,104,0.1875,6,0,1020000,,,6,3
52,104,0.5,7,1,1020000,,,6,8
59,104,0.625,8,1,1020000,,,6,10
59,104,0.125,9,0,1020000,,,6,2
47,104,0.3125,10,1,1020000,,,6,5
35,104,0.5625,11,1,1020000,,,6,9
59,104,0.375,0,1,1020001,,,6,6
59,104,0.3125,1,0,1020001,,,6,5
59,104,0.375,2,0,1020001,,,6,6
35,104,0.3125,3,1,1020001,,,6,5
59,104,0.125,4,1,1020001,,,6,2
35,104,0.125,5,1,1020001,,,6,2
59,104,0.125,6,1,1020001,,,6,2
47,104,0.25,7,1,1020001,,,6,4
35,104,0.1875,8,1,1020001,,,6,3
47,104,0.125,9,1,1020001,,,6,2
64,104,0.5625,10,1,1020001,,,6,9
61,104,0.375,11,0,1020001,,,6,6
48,104,0.125,0,1,1030000,,,6,2
29,104,0.125,1,1,1030000,,,6,2
29,104,0.125,2,0,1030000,,,6,2
48,104,0.125,3,1,1030000,,,6,2
53,104,0.4375,4,0,1030000,,,6,7
53,104,0.1875,5,0,1030000,,,6,3
53,104,0.75,6,0,1030000,,,6,12
67,104,0.125,7,1,1030000,,,6,2
60,104,0.6875,8,1,1030000,,,6,11
67,104,0.375,9,1,1030000,,,6,6
55,104,0.1875,10,1,1030000,,,6,3
67,104,0.125,11,1,1030000,,,6,2
50,104,0.6875,12,1,1030000,,,6,11
38,104,0.3125,0,1,1030001,,,6,5
59,104,0.1875,1,1,1030001,,,6,3
51,104,0.75,0,1,1040000,,,6,12
56,104,0.1875,1,1,1040000,,,6,3
51,104,0.25,2,0,1040000,,,6,4
51,104,0.9375,3,0,1040000,,,6,15
51,104,0.9375,4,1,1040000,,,6,15
51,104,0.8125,5,1,1040000,,,6,13
63,104,0.75,6,1,1040000,,,6,12
43,104,0.1875,0,1,1040001,,,6,3
63,104,0.5625,1,1,1040001,,,6,9
63,104,0.3125,2,0,1040001,,,6,5
55,104,0.375,3,1,1040001,,,6,6
55,104,0.4375,4,0,1040001,,,6,7
55,104,0.1875,5,0,1040001,,,6,3
51,104,0.375,6,0,1040001,,,6,6
53,104,0.6875,7,0,1040001,,,6,11
58,104,0.875,0,1,1050000,,,6,14
60,104,0.25,1,1,1050000,,,6,4
70,104,0.375,2,1,1050000,,,6,6
63,104,0.5625,3,1,1050000,,,6,9
58,104,0.875,4,0,1050000,,,6,14
58,104,0.9375,5,1,1050000,,,6,15
58,104,0.9375,6,1,1050000,,,6,15
68,104,0.5625,0,1,1050001,,,6,9
68,104,0.1875,1,0,1050001,,,6,3
60,104,0.9375,2,1,1050001,,,6,15
51,104,0.75,3,1,1050001,,,6,12
58,104,0.9375,4,1,1050001,,,6,15
68,104,0.375,0,1,1050002,,,6,6
58,104,0.1875,1,1,1050002,,,6,3
39,104,0.375,2,1,1050002,,,6,6
41,104,0.3125,0,1,1060000,,,6,5
41,104,0.3125,1,0,1060000,,,6,5
41,104,0.1875,2,0,1060000,,,6,3
29,104,0.75,3,1,1060000,,,6,12
41,104,0.3125,4,1,1060000,,,6,5
41,104,0.3125,5,0,1060000,,,6,5
29,104,0.25,6,1,1060000,,,6,4
41,104,0.125,7,1,1060000,,,6,2
29,104,0.125,8,1,1060000,,,6,2
31,104,0.5,9,0,1060000,,,6,8
31,104,0.3125,10,0,1060000,,,6,5
43,104,0.1875,11,1,1060000,,,6,3
43,104,0.1875,12,0,1060000,,,6,3
31,104,0.125,13,1,1060000,,,6,2
31,104,0.6875,0,1,1060001,,,6,11
31,104,0.3125,1,0,1060001,,,6,5
43,104,0.125,2,1,1060001,,,6,2
63,104,0.125,3,1,1060001,,,6,2
51,104,0.3125,4,1,1060001,,,6,5
39,104,0.1875,5,1,1060001,,,6,3
27,104,0.4375,6,1,1060001,,,6,7
39,104,0.3125,7,1,1060001,,,6,5
39,104,0.25,8,0,1060001,,,6,4
27,104,0.375,9,1,1060001,,,6,6
52,104,0.3125,0,1,1070000,,,6,5
52,104,0.9375,1,0,1070000,,,6,15
50,104,0.9375,2,1,1070000,,,6,15
62,104,0.125,3,1,1070000,,,6,2
62,104,0.375,4,0,1070000,,,6,6
38,104,0.3125,5,1,1070000,,,6,5
62,104,0.9375,6,1,1070000,,,6,15
62,104,0.25,7,1,1070000,,,6,4
50,104,0.3125,0,1,1070001,,,6,5
50,104,0.1875,1,0,1070001,,,6,3
52,104,0.3125,2,0,1070001,,,6,5
53,104,0.5,3,0,1070001,,,6,8
53,104,0.25,4,0,1070001,,,6,4
53,104,0.25,5,0,1070001,,,6,4
60,104,0.1875,6,1,1070001,,,6,3
41,104,0.375,7,1,1070001,,,6,6
41,104,0.25,8,0,1070001,,,6,4
53,104,0.3125,9,1,1070001,,,6,5
50,104,0.1875,10,0,1070001,,,6,3
31,104,0.3125,11,1,1070001,,,6,5
56,104,0.5,0,1,1080000,,,6,8
33,104,0.375,1,1,1080000,,,6,6
52,104,0.3125,2,1,1080000,,,6,5
59,104,0.3125,3,1,1080000,,,6,5
64,104,0.375,4,0,1080000,,,6,6
45,104,0.3125,5,1,1080000,,,6,5
40,104,0.1875,6,0,1080000,,,6,3
35,104,0.3125,7,0,1080000,,,6,5
35,104,0.25,8,0,1080000,,,6,4
47,104,0.3125,9,1,1080000,,,6,5
59,104,0.1875,10,1,1080000,,,6,3
35,104,0.25,11,1,1080000,,,6,4
35,104,0.5,12,0,1080000,,,6,8
35,104,0.3125,0,1,1080001,,,6,5
47,104,0.4375,1,1,1080001,,,6,7
35,104,0.5,2,1,1080001,,,6,8
47,104,0.375,3,1,1080001,,,6,6
35,104,0.375,4,1,1080001,,,6,6
59,104,0.1875,5,1,1080001,,,6,3
35,104,0.3125,6,1,1080001,,,6,5
62,104,0.1875,0,1,1090000,,,6,3
62,104,0.5,1,0,1090000,,,6,8
62,104,0.9375,2,0,1090000,,,6,15
38,104,0.1875,3,1,1090000,,,6,3
59,104,0.8125,4,1,1090000,,,6,13
50,104,0.1875,5,1,1090000,,,6,3
62,104,0.9375,6,1,1090000,,,6,15
62,104,0.4375,7,1,1090000,,,6,7
43,104,0.4375,0,1,1090001,,,6,7
62,104,0.9375,1,1,1090001,,,6,15
62,104,0.4375,2,1,1090001,,,6,7
62,104,0.75,3,0,1090001,,,6,12
57,104,0.25,4,1,1090001,,,6,4
57,104,0.75,5,0,1090001,,,6,12
56,104,0.4375,0,1,1100000,,,6,7
46,104,0.1875,1,1,1100000,,,6,3
46,104,0.1875,2,0,1100000,,,6,3
80,104,0.1875,3,1,1100000,,,6,3
53,104,0.5625,4,1,1100000,,,6,9
32,104,0.5,5,1,1100000,,,6,8
51,104,0.375,6,1,1100000,,,6,6
44,104,0.25,7,1,1100000,,,6,4
51,104,0.8125,8,1,1100000,,,6,13
41,104,0.6875,9,1,1100000,,,6,11
42,104,0.375,0,1,1100001,,,6,6
48,104,0.25,1,0,1100001,,,6,4
49,104,0.1875,2,0,1100001,,,6,3
49,104,0.5,3,0,1100001,,,6,8
61,104,0.1875,4,1,1100001,,,6,3
52,104,0.1875,0,1,1110000,,,6,3
52,104,0.3125,1,0,1110000,,,6,5
52,104,0.375,2,0,1110000,,,6,6
55,104,0.25,3,0,1110000,,,6,4
38,104,0.5625,4,1,1110000,,,6,9
35,104,0.625,5,0,1110000,,,6,10
55,104,0.125,6,1,1110000,,,6,2
50,104,0.125,0,1,1120000,,,6,2
55,104,0.9375,1,0,1120000,,,6,15
55,104,0.1875,2,1,1120000,,,6,3
48,104,0.9375,3,1,1120000,,,6,15
52,104,0.75,4,1,1120000,,,6,12
55,104,0.9375,5,1,1120000,,,6,15
47,104,0.9375,6,1,1120000,,,6,15
50,104,0.5625,0,1,1120001,,,6,9
47,104,0.1875,1,0,1120001,,,6,3
55,104,0.9375,2,1,1120001,,,6,15
50,104,0.1875,3,1,1120001,,,6,3
45,104,0.9375,4,0,1120001,,,6,15
33,104,0.75,5,1,1120001,,,6,12
45,104,0.1875,0,1,1120002,,,6,3
45,104,0.9375,1,0,1120002,,,6,15
52,104,0.9375,2,1,1120002,,,6,15
55,104,0.5,3,1,1120002,,,6,8
55,104,0.125,4,0,1120002,,,6,2
50,104,0.9375,0,1,1130000,,,6,15
50,104,0.5625,1,1,1130000,,,6,9
52,104,0.75,2,0,1130000,,,6,12
52,104,0.8125,3,1,1130000,,,6,13
54,104,0.25,4,1,1130000,,,6,4
54,104,0.25,5,0,1130000,,,6,4
52,104,0.375,6,0,1130000,,,6,6
45,104,0.25,7,1,1130000,,,6,4
33,104,0.25,0,1,1130001,,,6,4
33,104,0.625,1,0,1130001,,,6,10
33,104,0.8125,2,0,1130001,,,6,13
45,104,0.4375,3,1,1130001,,,6,7
28,104,0.6875,4,1,1130001,,,6,11
47,104,0.1875,5,1,1130001,,,6,3
28,104,0.4375,6,1,1130001,,,6,7
56,104,0.375,7,1,1130001,,,6,6
47,104,0.1875,0,1,1130002,,,6,3
47,104,0.5,1,0,1130002,,,6,8
50,104,0.4375,2,0,1130002,,,6,7
50,104,0.0625,3,0,1130002,,,6,1
29,104,0.1875,0,1,1140000,,,6,3
53,104,0.4375,1,1,1140000,,,6,7
50,104,0.4375,2,0,1140000,,,6,7
51,104,0.1875,3,0,1140000,,,6,3
51,104,0.875,4,0,1140000,,,6,14
51,104,0.375,5,1,1140000,,,6,6
51,104,0.25,6,0,1140000,,,6,4
34,104,0.3125,7,1,1140000,,,6,5
53,104,0.1875,8,1,1140000,,,6,3
34,104,0.1875,9,1,1140000,,,6,3
34,104,0.25,10,0,1140000,,,6,4
58,104,0.25,11,1,1140000,,,6,4
63,104,0.3125,12,0,1140000,,,6,5
65,104,0.3125,0,1,1150000,,,6,5
41,104,0.8125,1,1,1150000,,,6,13
46,104,0.9375,2,1,1150000,,,6,15
65,104,0.5,3,1,1150000,,,6,8
46,104,0.9375,4,1,1150000,,,6,15
46,104,0.9375,5,1,1150000,,,6,15
70,104,0.9375,0,1,1150001,,,6,15
58,104,0.5,1,1,1150001,,,6,8
65,104,0.9375,2,1,1150001,,,6,15
63,104,0.1875,3,1,1150001,,,6,3
53,104,0.4375,4,1,1150001,,,6,7
53,104,0.125,5,0,1150001,,,6,2
41,104,0.9375,6,1,1150001,,,6,15
60,104,0.125,0,1,1150002,,,6,2
41,104,0.375,1,1,1150002,,,6,6
53,104,0.1875,0,1,1160000,,,6,3
55,104,0.1875,1,0,1160000,,,6,3
67,104,0.125,2,1,1160000,,,6,2
48,104,0.1875,3,1,1160000,,,6,3
50,104,0.25,4,0,1160000,,,6,4
55,104,0.1875,5,0,1160000,,,6,3
50,104,0.1875,6,0,1160000,,,6,3
43,104,0.375,7,1,1160000,,,6,6
62,104,0.1875,0,1,1170000,,,6,3
67,104,0.25,1,0,1170000,,,6,4
67,104,0.5,2,0,1170000,,,6,8
67,104,0.9375,3,0,1170000,,,6,15
65,104,0.625,4,1,1170000,,,6,10
65,104,0.9375,5,0,1170000,,,6,15
65,104,0.9375,6,1,1170000,,,6,15
64,104,0.875,0,1,1170001,,,6,14
64,104,0.75,1,1,1170001,,,6,12
67,104,0.1875,2,1,1170001,,,6,3
60,104,0.5,3,1,1170001,,,6,8
60,104,0.3125,4,0,1170001,,,6,5
60,104,0.9375,5,0,1170001,,,6,15
60,104,0.1875,6,1,1170001,,,6,3
60,104,0.5,0,1,1170002,,,6,8
60,104,0.9375,1,0,1170002,,,6,15
60,104,0.1875,2,1,1170002,,,6,3
39,104,0.9375,0,1,1180000,,,6,15
39,104,0.1875,1,1,1180000,,,6,3
58,104,0.5625,2,1,1180000,,,6,9
39,104,0.875,3,1,1180000,,,6,14
39,104,0.5,4,1,1180000,,,6,8
58,104,0.25,5,1,1180000,,,6,4
58,104,0.4375,6,0,1180000,,,6,7
55,104,0.125,7,0,1180000,,,6,2
58,104,0.25,8,0,1180000,,,6,4
62,104,0.9375,0,1,1190000,,,6,15
59,104,0.9375,1,1,1190000,,,6,15
71,104,0.1875,2,1,1190000,,,6,3
61,104,0.5625,3,1,1190000,,,6,9
62,104,0.9375,4,0,1190000,,,6,15
62,104,0.9375,5,1,1190000,,,6,15
62,104,0.75,0,1,1190001,,,6,12
57,104,0.9375,1,1,1190001,,,6,15
62,104,0.9375,2,1,1190001,,,6,15
57,104,0.9375,3,1,1190001,,,6,15
62,104,0.9375,0,1,1190002,,,6,15
57,104,0.9375,1,1,1190002,,,6,15
52,104,0.9375,0,1,1200000,,,6,15
59,104,0.375,1,1,1200000,,,6,6
59,104,0.3125,2,0,1200000,,,6,5
59,104,0.3125,3,0,1200000,,,6,5
59,104,0.25,4,0,1200000,,,6,4
59,104,0.4375,5,0,1200000,,,6,7
59,104,0.5,6,0,1200000,,,6,8
40,104,0.3125,7,1,1200000,,,6,5
52,104,0.5,8,1,1200000,,,6,8
59,104,0.6875,9,1,1200000,,,6,11
61,104,0.25,0,1,1200001,,,6,4
49,104,0.4375,1,1,1200001,,,6,7
49,104,0.1875,2,0,1200001,,,6,3
49,104,0.125,3,0,1200001,,,6,2
49,104,0.5625,4,0,1200001,,,6,9
49,104,0.9375,5,0,1200001,,,6,15
49,104,0.3125,6,1,1200001,,,6,5
57,104,0.25,0,1,1210000,,,6,4
50,104,0.9375,1,1,1210000,,,6,15
50,104,0.75,2,1,1210000,,,6,12
69,104,0.5,3,1,1210000,,,6,8
52,104,0.9375,4,1,1210000,,,6,15
52,104,0.125,5,1,1210000,,,6,2
59,104,0.1875,6,1,1210000,,,6,3
40,104,0.3125,7,1,1210000,,,6,5
52,104,0.1875,0,1,1210001,,,6,3
44,104,0.75,1,1,1210001,,,6,12
54,104,0.625,2,1,1210001,,,6,10
59,104,0.3125,3,0,1210001,,,6,5
44,104,0.1875,4,1,1210001,,,6,3
30,104,0.5625,5,1,1210001,,,6,9
54,104,0.5,6,1,1210001,,,6,8
57,104,0.5,7,0,1210001,,,6,8
58,104,0.1875,0,1,1220000,,,6,3
51,104,0.25,1,1,1220000,,,6,4
51,104,0.25,2,0,1220000,,,6,4
27,104,0.1875,3,1,1220000,,,6,3
56,104,0.3125,4,1,1220000,,,6,5
32,104,0.125,5,1,1220000,,,6,2
46,104,0.125,6,1,1220000,,,6,2
58,104,0.1875,7,1,1220000,,,6,3
51,104,0.125,8,1,1220000,,,6,2
39,104,0.25,9,1,1220000,,,6,4
51,104,0.1875,10,1,1220000,,,6,3
27,104,0.25,11,1,1220000,,,6,4
51,104,0.8125,12,1,1220000,,,6,13
60,104,0.1875,0,1,1230000,,,6,3
53,104,0.25,1,1,1230000,,,6,4
53,104,0.6875,2,0,1230000,,,6,11
41,104,0.25,3,1,1230000,,,6,4
60,104,0.75,4,1,1230000,,,6,12
60,104,0.25,5,1,1230000,,,6,4
60,104,0.25,6,0,1230000,,,6,4
53,104,0.375,7,1,1230000,,,6,6
60,104,0.1875,8,1,1230000,,,6,3
53,104,0.9375,9,1,1230000,,,6,15
53,104,0.25,0,1,1230001,,,6,4
60,104,0.25,1,1,1230001,,,6,4
53,104,0.9375,2,1,1230001,,,6,15
50,104,0.25,3,1,1230001,,,6,4
60,104,0.75,4,1,1230001,,,6,12
50,104,0.5625,5,1,1230001,,,6,9
65,104,0.5625,6,1,1230001,,,6,9
50,104,0.1875,7,1,1230001,,,6,3
50,104,0.5,8,0,1230001,,,6,8
53,104,0.25,0,1,1240000,,,6,4
58,104,0.3125,1,0,1240000,,,6,5
53,104,0.3125,2,0,1240000,,,6,5
58,104,0.4375,3,0,1240000,,,6,7
74,104,0.1875,4,1,1240000,,,6,3
46,104,0.375,5,1,1240000,,,6,6
63,104,0.9375,6,1,1240000,,,6,15
58,104,0.1875,7,1,1240000,,,6,3
58,104,0.9375,8,0,1240000,,,6,15
63,104,0.1875,9,1,1240000,,,6,3
58,104,0.5,0,1,1240001,,,6,8
63,104,0.9375,1,0,1240001,,,6,15
63,104,0.375,2,1,1240001,,,6,6
55,104,0.8125,3,1,1240001,,,6,13
58,104,0.25,4,1,1240001,,,6,4
57,104,0.3125,0,1,1250000,,,6,5
47,104,0.3125,1,1,1250000,,,6,5
68,104,0.25,2,1,1250000,,,6,4
52,104,0.3125,3,1,1250000,,,6,5
61,104,0.9375,4,1,1250000,,,6,15
61,104,0.25,5,1,1250000,,,6,4
61,104,0.25,6,0,1250000,,,6,4
61,104,0.1875,7,0,1250000,,,6,3
61,104,0.6875,8,0,1250000,,,6,11
57,104,0.8125,9,0,1250000,,,6,13
61,104,0.9375,0,1,1250001,,,6,15
62,104,0.4375,1,1,1250001,,,6,7
62,104,0.125,2,0,1250001,,,6,2
62,104,0.1875,3,0,1250001,,,6,3
52,104,0.1875,4,1,1250001,,,6,3
55,104,0.8125,0,1,1260000,,,6,13
67,104,0.3125,1,1,1260000,,,6,5
67,104,0.9375,2,0,1260000,,,6,15
55,104,0.1875,3,1,1260000,,,6,3
55,104,0.9375,4,0,1260000,,,6,15
67,104,0.25,5,1,1260000,,,6,4
55,104,0.9375,6,1,1260000,,,6,15
67,104,0.4375,0,1,1260001,,,6,7
50,104,0.5,1,1,1260001,,,6,8
67,104,0.375,2,1,1260001,,,6,6
50,104,0.9375,3,1,1260001,,,6,15
50,104,0.375,4,1,1260001,,,6,6
50,104,0.9375,5,0,1260001,,,6,15
57,104,0.875,6,1,1260001,,,6,14
57,104,0.5625,0,1,1270000,,,6,9
57,104,0.25,1,0,1270000,,,6,4
40,104,0.25,2,1,1270000,,,6,4
33,104,0.4375,3,1,1270000,,,6,7
33,104,0.25,4,0,1270000,,,6,4
69,104,0.1875,5,1,1270000,,,6,3
57,104,0.6875,6,1,1270000,,,6,11
57,104,0.1875,7,0,1270000,,,6,3
33,104,0.3125,8,1,1270000,,,6,5
33,104,0.9375,9,0,1270000,,,6,15
57,104,0.3125,0,1,1270001,,,6,5
61,104,0.75,1,0,1270001,,,6,12
36,104,0.25,0,1,1280000,,,6,4
41,104,0.9375,1,0,1280000,,,6,15
41,104,0.25,2,1,1280000,,,6,4
53,104,0.25,3,1,1280000,,,6,4
53,104,0.6875,4,0,1280000,,,6,11
53,104,0.3125,5,0,1280000,,,6,5
63,104,0.9375,6,1,1280000,,,6,15
34,104,0.5625,7,1,1280000,,,6,9
34,104,0.4375,0,1,1280001,,,6,7
34,104,0.1875,1,0,1280001,,,6,3
46,104,0.6875,2,1,1280001,,,6,11
46,104,0.9375,3,0,1280001,,,6,15
46,104,0.5,4,1,1280001,,,6,8
51,104,0.5,5,0,1280001,,,6,8
62,104,0.8125,0,1,1290000,,,6,13
62,104,0.1875,1,1,1290000,,,6,3
62,104,0.9375,2,0,1290000,,,6,15
47,104,0.375,3,1,1290000,,,6,6
54,104,0.4375,4,1,1290000,,,6,7
62,104,0.3125,5,1,1290000,,,6,5
62,104,0.625,6,0,1290000,,,6,10
50,104,0.25,7,1,1290000,,,6,4
62,104,0.5625,8,1,1290000,,,6,9
62,104,0.3125,0,1,1290001,,,6,5
62,104,0.1875,1,0,1290001,,,6,3
62,104,0.25,2,0,1290001,,,6,4
57,104,0.625,3,0,1290001,,,6,10
62,104,0.5625,4,0,1290001,,,6,9
57,104,0.3125,5,0,1290001,,,6,5
62,104,0.375,6,0,1290001,,,6,6
62,104,0.9375,7,0,1290001,,,6,15
62,104,0.125,0,1,1290002,,,6,2
62,104,0.9375,1,0,1290002,,,6,15
41,104,0.75,0,1,1300000,,,6,12
60,104,0.25,1,1,1300000,,,6,4
41,104,0.1875,2,1,1300000,,,6,3
65,104,0.125,3,1,1300000,,,6,2
41,104,0.1875,4,1,1300000,,,6,3
50,104,0.9375,5,1,1300000,,,6,15
41,104,0.25,6,1,1300000,,,6,4
65,104,0.3125,7,1,1300000,,,6,5
58,104,0.25,8,1,1300000,,,6,4
55,104,0.9375,9,0,1300000,,,6,15
53,104,0.1875,0,1,1300001,,,6,3
53,104,0.1875,1,0,1300001,,,6,3
53,104,0.1875,2,0,1300001,,,6,3
63,104,0.375,3,1,1300001,,,6,6
55,104,0.4375,4,1,1300001,,,6,7
55,104,0.8125,5,0,1300001,,,6,13
62,104,0.6875,6,1,1300001,,,6,11
50,104,0.6875,7,1,1300001,,,6,11
43,104,0.1875,0,1,1310000,,,6,3
62,104,0.5,1,1,1310000,,,6,8
62,104,0.5625,2,0,1310000,,,6,9
62,104,0.625,3,0,1310000,,,6,10
43,104,0.1875,4,1,1310000,,,6,3
55,104,0.875,5,1,1310000,,,6,14
55,104,0.1875,6,1,1310000,,,6,3
55,104,0.9375,7,0,1310000,,,6,15
55,104,0.9375,0,1,1310001,,,6,15
67,104,0.1875,1,1,1310001,,,6,3
55,104,0.625,2,1,1310001,,,6,10
60,104,0.9375,3,0,1310001,,,6,15
60,104,0.9375,4,1,1310001,,,6,15
67,104,0.1875,5,1,1310001,,,6,3
38,104,0.3125,0,1,1320000,,,6,5
59,104,0.5,1,1,1320000,,,6,8
59,104,0.5,2,0,1320000,,,6,8
40,104,0.4375,3,1,1320000,,,6,7
59,104,0.1875,4,1,1320000,,,6,3
47,104,0.625,5,1,1320000,,,6,10
47,104,0.6875,6,0,1320000,,,6,11
54,104,0.25,7,1,1320000,,,6,4
30,104,0.125,8,1,1320000,,,6,2
49,104,0.625,0,1,1330000,,,6,10
61,104,0.25,1,1,1330000,,,6,4
49,104,0.1875,2,1,1330000,,,6,3
49,104,0.25,3,0,1330000,,,6,4
61,104,0.5625,4,1,1330000,,,6,9
61,104,0.1875,5,0,1330000,,,6,3
49,104,0.1875,6,1,1330000,,,6,3
61,104,0.3125,7,1,1330000,,,6,5
49,104,0.6875,8,1,1330000,,,6,11
49,104,0.3125,9,0,1330000,,,6,5
49,104,0.6875,10,0,1330000,,,6,11
59,104,0.3125,0,1,1330001,,,6,5
61,104,0.75,1,0,1330001,,,6,12
61,104,0.1875,2,1,1330001,,,6,3
54,104,0.4375,3,1,1330001,,,6,7
66,104,0.25,0,1,1340000,,,6,4
66,104,0.25,1,0,1340000,,,6,4
66,104,0.25,2,0,1340000,,,6,4
44,104,0.375,3,1,1340000,,,6,6
63,104,0.3125,4,1,1340000,,,6,5
63,104,0.5,5,0,1340000,,,6,8
51,104,0.9375,6,1,1340000,,,6,15
56,104,0.5625,7,1,1340000,,,6,9
56,104,0.125,8,0,1340000,,,6,2
56,104,0.9375,9,0,1340000,,,6,15
57,104,0.25,0,1,1340001,,,6,4
45,104,0.5625,1,1,1340001,,,6,9
57,104,0.5,2,1,1340001,,,6,8
45,104,0.1875,3,1,1340001,,,6,3
57,104,0.6875,4,1,1340001,,,6,11
57,104,0.1875,5,0,1340001,,,6,3
64,104,0.9375,6,1,1340001,,,6,15
63,104,0.1875,0,1,1350000,,,6,3
48,104,0.1875,1,1,1350000,,,6,3
65,104,0.375,2,1,1350000,,,6,6
65,104,0.4375,3,0,1350000,,,6,7
36,104,0.1875,4,1,1350000,,,6,3
36,104,0.125,5,0,1350000,,,6,2
58,104,0.25,6,1,1350000,,,6,4
82,104,0.6875,7,1,1350000,,,6,11
54,104,0.5625,0,1,1360000,,,6,9
54,104,0.25,1,0,1360000,,,6,4
54,104,0.25,2,0,1360000,,,6,4
47,104,0.8125,3,1,1360000,,,6,13
57,104,0.3125,4,1,1360000,,,6,5
61,104,0.625,5,0,1360000,,,6,10
49,104,0.5625,6,1,1360000,,,6,9
50,104,0.25,7,0,1360000,,,6,4
64,104,0.1875,8,1,1360000,,,6,3
52,104,0.1875,9,1,1360000,,,6,3
52,104,0.625,0,1,1360001,,,6,10
40,104,0.9375,1,1,1360001,,,6,15
41,104,0.1875,2,1,1360001,,,6,3
52,104,0.3125,0,1,1370000,,,6,5
52,104,0.25,1,0,1370000,,,6,4
60,104,0.3125,2,1,1370000,,,6,5
52,104,0.9375,3,1,1370000,,,6,15
60,104,0.4375,4,1,1370000,,,6,7
65,104,0.1875,5,0,1370000,,,6,3
50,104,0.125,6,1,1370000,,,6,2
50,104,0.5625,7,0,1370000,,,6,9
50,104,0.8125,8,0,1370000,,,6,13
50,104,0.1875,9,1,1370000,,,6,3
50,104,0.9375,0,1,1370001,,,6,15
65,104,0.25,1,1,1370001,,,6,4
65,104,0.1875,2,0,1370001,,,6,3
50,104,0.9375,3,1,1370001,,,6,15
50,104,0.125,4,1,1370001,,,6,2
50,104,0.125,5,0,1370001,,,6,2
53,104,0.25,6,0,1370001,,,6,4
53,104,0.0,7,0,1370001,,,6,0
41,104,0.3125,0,1,1380000,,,6,5
41,104,0.3125,1,0,1380000,,,6,5
60,104,0.3125,2,1,1380000,,,6,5
53,104,0.3125,3,1,1380000,,,6,5
34,104,0.4375,4,1,1380000,,,6,7
53,104,0.4375,5,1,1380000,,,6,7
34,104,0.8125,6,1,1380000,,,6,13
53,104,0.25,7,1,1380000,,,6,4
58,104,0.6875,8,0,1380000,,,6,11
53,104,0.25,9,0,1380000,,,6,4
53,104,0.8125,0,1,1380001,,,6,13
51,104,0.9375,1,1,1380001,,,6,15
51,104,0.25,2,1,1380001,,,6,4
29,104,0.1875,3,1,1380001,,,6,3
29,104,0.5625,4,0,1380001,,,6,9
45,104,0.375,0,1,1390000,,,6,6
57,104,0.375,1,1,1390000,,,6,6
52,104,0.375,2,0,1390000,,,6,6
64,104,0.125,3,1,1390000,,,6,2
64,104,0.3125,4,0,1390000,,,6,5
54,104,0.9375,5,1,1390000,,,6,15
54,104,0.25,6,1,1390000,,,6,4
54,104,0.1875,7,0,1390000,,,6,3
50,104,0.8125,8,0,1390000,,,6,13
57,104,0.375,9,1,1390000,,,6,6
57,104,0.25,0,1,1390001,,,6,4
38,104,0.1875,1,1,1390001,,,6,3
57,104,0.375,2,1,1390001,,,6,6
57,104,0.125,3,0,1390001,,,6,2
45,104,0.25,4,1,1390001,,,6,4
45,104,0.1875,5,0,1390001,,,6,3
57,104,0.5625,6,1,1390001,,,6,9
61,104,0.6875,0,1,1400000,,,6,11
50,104,0.9375,1,1,1400000,,,6,15
62,104,0.5625,2,1,1400000,,,6,9
52,104,0.9375,3,1,1400000,,,6,15
52,104,0.3125,4,1,1400000,,,6,5
52,104,0.25,5,0,1400000,,,6,4
53,104,0.9375,6,0,1400000,,,6,15
54,104,0.375,0,1,1400001,,,6,6
61,104,0.375,1,1,1400001,,,6,6
42,104,0.1875,2,1,1400001,,,6,3
61,104,0.6875,3,1,1400001,,,6,11
61,104,0.4375,4,0,1400001,,,6,7
57,104,0.1875,5,0,1400001,,,6,3
50,104,0.25,6,1,1400001,,,6,4
50,104,0.25,7,0,1400001,,,6,4
33,104,0.5,0,1,1410000,,,6,8
57,104,0.25,1,1,1410000,,,6,4
57,104,0.1875,2,0,1410000,,,6,3
52,104,0.3125,3,0,1410000,,,6,5
64,104,0.9375,4,1,1410000,,,6,15
52,104,0.1875,5,1,1410000,,,6,3
64,104,0.9375,6,1,1410000,,,6,15
61,104,0.1875,7,1,1410000,,,6,3
61,104,0.4375,8,0,1410000,,,6,7
61,104,0.75,9,0,1410000,,,6,12
61,104,0.8125,0,1,1410001,,,6,13
52,104,0.9375,1,1,1410001,,,6,15
40,104,0.25,2,1,1410001,,,6,4
64,104,0.875,3,1,1410001,,,6,14
40,104,0.3125,4,1,1410001,,,6,5
64,104,0.1875,5,1,1410001,,,6,3
63,104,0.9375,0,1,1410002,,,6,15
64,104,0.25,1,1,1410002,,,6,4
59,104,0.3125,2,0,1410002,,,6,5
59,104,0.6875,3,0,1410002,,,6,11
61,104,0.25,4,0,1410002,,,6,4
38,104,0.5625,0,1,1420000,,,6,9
50,104,0.25,1,1,1420000,,,6,4
59,104,0.3125,2,1,1420000,,,6,5
43,104,0.8125,3,1,1420000,,,6,13
43,104,0.375,4,1,1420000,,,6,6
55,104,0.5625,5,1,1420000,,,6,9
45,104,0.9375,6,1,1420000,,,6,15
33,104,0.375,7,1,1420000,,,6,6
45,104,0.3125,0,1,1420001,,,6,5
61,104,0.25,1,1,1420001,,,6,4
57,104,0.4375,2,0,1420001,,,6,7
56,104,0.3125,3,0,1420001,,,6,5
50,104,0.9375,4,0,1420001,,,6,15
38,104,0.3125,5,1,1420001,,,6,5
50,104,0.9375,6,1,1420001,,,6,15
64,104,0.375,7,1,1420001,,,6,6
57,104,0.3125,0,1,1420002,,,6,5
38,104,0.3125,1,1,1420002,,,6,5
54,104,0.1875,0,1,1430000,,,6,3
54,104,0.3125,1,0,1430000,,,6,5
58,104,0.9375,2,0,1430000,,,6,15
58,104,0.75,3,1,1430000,,,6,12
58,104,0.4375,4,1,1430000,,,6,7
47,104,0.9375,5,1,1430000,,,6,15
47,104,0.25,6,1,1430000,,,6,4
69,104,0.375,7,1,1430000,,,6,6
47,104,0.125,0,1,1430001,,,6,2
47,104,0.9375,1,0,1430001,,,6,15
47,104,0.25,2,1,1430001,,,6,4
47,104,0.1875,3,0,1430001,,,6,3
47,104,0.25,0,1,1440000,,,6,4
47,104,0.8125,1,0,1440000,,,6,13
52,104,0.25,2,1,1440000,,,6,4
52,104,0.8125,3,0,1440000,,,6,13
56,104,0.8125,4,1,1440000,,,6,13
52,104,0.75,5,1,1440000,,,6,12
26,104,0.375,6,1,1440000,,,6,6
50,104,0.9375,0,1,1440001,,,6,15
50,104,0.1875,1,1,1440001,,,6,3
64,104,0.3125,2,1,1440001,,,6,5
50,104,0.9375,3,1,1440001,,,6,15
38,104,0.1875,4,1,1440001,,,6,3
50,104,0.3125,5,1,1440001,,,6,5
65,104,0.3125,0,1,1450000,,,6,5
65,104,0.8125,1,0,1450000,,,6,13
53,104,0.1875,2,1,1450000,,,6,3
65,104,0.9375,3,1,1450000,,,6,15
53,104,0.1875,4,1,1450000,,,6,3
65,104,0.4375,5,1,1450000,,,6,7
65,104,0.1875,6,0,1450000,,,6,3
50,104,0.625,7,1,1450000,,,6,10
55,104,0.1875,8,0,1450000,,,6,3
55,104,0.625,9,0,1450000,,,6,10
62,104,0.25,0,1,1450001,,,6,4
50,104,0.1875,1,1,1450001,,,6,3
50,104,0.1875,2,0,1450001,,,6,3
62,104,0.3125,3,1,1450001,,,6,5
55,104,0.4375,4,1,1450001,,,6,7
62,104,0.5625,5,1,1450001,,,6,9
52,104,0.125,6,1,1450001,,,6,2
36,104,0.125,7,1,1450001,,,6,2
36,104,0.3125,8,0,1450001,,,6,5
56,104,0.5625,0,1,1460000,,,6,9
33,104,0.3125,1,1,1460000,,,6,5
45,104,0.3125,2,1,1460000,,,6,5
33,104,0.75,3,1,1460000,,,6,12
33,104,0.6875,4,1,1460000,,,6,11
45,104,0.75,5,1,1460000,,,6,12
47,104,0.375,6,1,1460000,,,6,6
47,104,0.8125,7,0,1460000,,,6,13
47,104,0.6875,0,1,1460001,,,6,11
47,104,0.5,1,0,1460001,,,6,8
38,104,0.4375,2,1,1460001,,,6,7
50,104,0.75,3,1,1460001,,,6,12
38,104,0.6875,4,1,1460001,,,6,11
38,104,0.3125,5,0,1460001,,,6,5
28,104,0.5,6,1,1460001,,,6,8
28,104,0.5,0,1,1460002,,,6,8
35,104,0.9375,0,1,1470000,,,6,15
35,104,0.9375,1,1,1470000,,,6,15
49,104,0.3125,2,1,1470000,,,6,5
49,104,0.3125,3,0,1470000,,,6,5
37,104,0.375,4,1,1470000,,,6,6
49,104,0.5625,5,1,1470000,,,6,9
49,104,0.5,6,0,1470000,,,6,8
49,104,0.375,7,0,1470000,,,6,6
60,104,0.25,0,1,1480000,,,6,4
53,104,0.3125,1,1,1480000,,,6,5
60,104,0.375,2,1,1480000,,,6,6
41,104,0.1875,3,1,1480000,,,6,3
60,104,0.625,4,1,1480000,,,6,10
60,104,0.1875,5,0,1480000,,,6,3
57,104,0.1875,6,0,1480000,,,6,3
60,104,0.5,7,0,1480000,,,6,8
60,104,0.375,8,0,1480000,,,6,6
65,104,0.25,9,0,1480000,,,6,4
65,104,0.1875,10,0,1480000,,,6,3
57,104,0.9375,11,1,1480000,,,6,15
57,104,0.375,0,1,1480001,,,6,6
57,104,0.625,1,0,1480001,,,6,10
53,104,0.3125,2,0,1480001,,,6,5
53,104,0.3125,3,0,1480001,,,6,5
58,104,0.5625,4,0,1480001,,,6,9
58,104,0.5625,5,0,1480001,,,6,9
60,104,0.8125,6,0,1480001,,,6,13
60,104,0.1875,7,1,1480001,,,6,3
53,104,0.375,0,1,1490000,,,6,6
65,104,0.25,1,1,1490000,,,6,4
53,104,0.1875,2,1,1490000,,,6,3
65,104,0.6875,3,1,1490000,,,6,11
53,104,0.3125,4,1,1490000,,,6,5
53,104,0.5625,5,0,1490000,,,6,9
53,104,0.25,6,0,1490000,,,6,4
34,104,0.9375,7,1,1490000,,,6,15
46,104,0.4375,8,1,1490000,,,6,7
53,104,0.4375,0,1,1490001,,,6,7
53,104,0.625,1,0,1490001,,,6,10
29,104,0.4375,2,1,1490001,,,6,7
29,104,0.9375,3,0,1490001,,,6,15
53,104,0.5,4,1,1490001,,,6,8
53,104,0.375,5,0,1490001,,,6,6
58,104,0.25,6,0,1490001,,,6,4
66,104,0.1875,0,1,1500000,,,6,3
47,104,0.6875,1,1,1500000,,,6,11
49,104,0.875,2,0,1500000,,,6,14
59,104,0.8125,3,1,1500000,,,6,13
61,104,0.1875,4,1,1500000,,,6,3
49,104,0.6875,5,1,1500000,,,6,11
66,104,0.1875,6,1,1500000,,,6,3
42,104,0.75,7,1,1500000,,,6,12
40,104,0.5625,0,1,1500001,,,6,9
52,104,0.3125,1,1,1500001,,,6,5
57,104,0.6875,2,0,1500001,,,6,11
49,104,0.9375,3,1,1500001,,,6,15
54,104,0.1875,4,1,1500001,,,6,3
47,104,0.9375,0,1,1510000,,,6,15
59,104,0.125,1,1,1510000,,,6,2
52,104,0.1875,2,1,1510000,,,6,3
40,104,0.1875,3,1,1510000,,,6,3
40,104,0.5,4,0,1510000,,,6,8
59,104,0.375,5,1,1510000,,,6,6
40,104,0.1875,6,1,1510000,,,6,3
40,104,0.3125,7,0,1510000,,,6,5
52,104,0.625,8,1,1510000,,,6,10
40,104,0.25,9,1,1510000,,,6,4
47,104,0.75,10,1,1510000,,,6,12
52,104,0.9375,0,1,1510001,,,6,15
59,104,0.1875,1,1,1510001,,,6,3
32,104,0.625,2,1,1510001,,,6,10
32,104,0.25,3,0,1510001,,,6,4
63,104,0.1875,4,1,1510001,,,6,3
63,104,0.125,5,0,1510001,,,6,2
63,104,0.4375,6,0,1510001,,,6,7
63,104,0.3125,7,0,1510001,,,6,5
63,104,0.3125,8,0,1510001,,,6,5
59,104,0.375,9,0,1510001,,,6,6
65,104,0.25,0,1,1520000,,,6,4
53,104,0.1875,1,1,1520000,,,6,3
58,104,0.625,2,0,1520000,,,6,10
65,104,0.4375,3,1,1520000,,,6,7
58,104,0.1875,4,1,1520000,,,6,3
58,104,0.125,5,0,1520000,,,6,2
65,104,0.1875,6,1,1520000,,,6,3
58,104,0.875,7,1,1520000,,,6,14
51,104,0.1875,8,1,1520000,,,6,3
51,104,0.75,9,0,1520000,,,6,12
51,104,0.8125,10,1,1520000,,,6,13
53,104,0.9375,0,1,1520001,,,6,15
60,104,0.9375,1,1,1520001,,,6,15
57,104,0.25,2,1,1520001,,,6,4
57,104,0.5,3,0,1520001,,,6,8
60,104,0.1875,4,0,1520001,,,6,3
60,104,0.8125,5,0,1520001,,,6,13
53,104,0.9375,0,1,1520002,,,6,15
46,104,0.25,1,1,1520002,,,6,4
53,104,0.9375,2,1,1520002,,,6,15
58,104,0.375,3,1,1520002,,,6,6
53,104,0.5,4,0,1520002,,,6,8
58,104,0.3125,5,0,1520002,,,6,5
60,104,0.4375,6,0,1520002,,,6,7
40,104,0.25,0,1,1530000,,,6,4
52,104,0.3125,1,1,1530000,,,6,5
33,104,0.4375,2,1,1530000,,,6,7
45,104,0.625,3,1,1530000,,,6,10
33,104,0.25,4,1,1530000,,,6,4
59,104,0.3125,5,1,1530000,,,6,5
33,104,0.1875,6,1,1530000,,,6,3
61,104,0.25,7,1,1530000,,,6,4
61,104,0.5,8,0,1530000,,,6,8
33,104,0.625,9,1,1530000,,,6,10
33,104,0.625,10,0,1530000,,,6,10
33,104,0.5,0,1,1530001,,,6,8
33,104,0.25,1,0,1530001,,,6,4
33,104,0.3125,2,0,1530001,,,6,5
54,104,0.1875,3,1,1530001,,,6,3
62,104,0.25,4,1,1530001,,,6,4
59,104,0.75,5,0,1530001,,,6,12
54,104,0.25,6,1,1530001,,,6,4
62,104,0.375,7,1,1530001,,,6,6
61,104,0.4375,8,0,1530001,,,6,7
44,104,0.875,0,1,1540000,,,6,14
44,104,0.125,1,1,1540000,,,6,2
46,104,0.4375,2,0,1540000,,,6,7
46,104,0.1875,3,0,1540000,,,6,3
58,104,0.5,4,1,1540000,,,6,8
44,104,0.3125,5,1,1540000,,,6,5
56,104,0.25,6,1,1540000,,,6,4
58,104,0.75,7,0,1540000,,,6,12
44,104,0.125,8,1,1540000,,,6,2
44,104,0.1875,9,0,1540000,,,6,3
44,104,0.1875,10,0,1540000,,,6,3
58,104,0.6875,11,1,1540000,,,6,11
58,104,0.4375,0,1,1540001,,,6,7
58,104,0.125,1,0,1540001,,,6,2
58,104,0.3125,2,0,1540001,,,6,5
43,104,0.1875,3,1,1540001,,,6,3
43,104,0.1875,4,0,1540001,,,6,3
58,104,0.375,5,1,1540001,,,6,6
55,104,0.9375,0,1,1550000,,,6,15
55,104,0.1875,1,1,1550000,,,6,3
55,104,0.9375,2,0,1550000,,,6,15
55,104,0.875,3,1,1550000,,,6,14
55,104,0.125,4,1,1550000,,,6,2
50,104,0.6875,5,0,1550000,,,6,11
31,104,0.1875,6,1,1550000,,,6,3
50,104,0.9375,7,1,1550000,,,6,15
52,104,0.1875,0,1,1550001,,,6,3
52,104,0.125,1,0,1550001,,,6,2
57,104,0.1875,2,0,1550001,,,6,3
55,104,0.25,3,0,1550001,,,6,4
55,104,0.1875,4,0,1550001,,,6,3
55,104,0.25,5,0,1550001,,,6,4
55,104,0.1875,6,0,1550001,,,6,3
55,104,0.75,7,0,1550001,,,6,12
55,104,0.1875,8,1,1550001,,,6,3
52,104,0.3125,9,0,1550001,,,6,5
52,104,0.75,0,1,1560000,,,6,12
52,104,0.125,1,1,1560000,,,6,2
52,104,0.1875,2,0,1560000,,,6,3
40,104,0.75,3,1,1560000,,,6,12
54,104,0.25,4,1,1560000,,,6,4
54,104,0.125,5,0,1560000,,,6,2
61,104,0.9375,6,1,1560000,,,6,15
54,104,0.4375,7,1,1560000,,,6,7
54,104,0.125,8,0,1560000,,,6,2
61,104,0.9375,9,1,1560000,,,6,15
57,104,0.9375,0,1,1560001,,,6,15
38,104,0.5625,1,1,1560001,,,6,9
50,104,0.1875,2,1,1560001,,,6,3
38,104,0.1875,3,1,1560001,,,6,3
57,104,0.375,0,1,1570000,,,6,6
57,104,0.25,1,0,1570000,,,6,4
40,104,0.9375,2,1,1570000,,,6,15
40,104,0.1875,3,1,1570000,,,6,3
40,104,0.3125,4,0,1570000,,,6,5
59,104,0.1875,5,1,1570000,,,6,3
40,104,0.375,6,1,1570000,,,6,6
57,104,0.9375,7,1,1570000,,,6,15
57,104,0.5,8,1,1570000,,,6,8
57,104,0.5,0,1,1570001,,,6,8
57,104,0.3125,1,0,1570001,,,6,5
57,104,0.25,2,0,1570001,,,6,4
52,104,0.4375,3,0,1570001,,,6,7
57,104,0.1875,4,0,1570001,,,6,3
64,104,0.3125,5,1,1570001,,,6,5
57,104,0.5,6,1,1570001,,,6,8
64,104,0.1875,7,1,1570001,,,6,3
57,104,0.1875,8,1,1570001,,,6,3
50,104,0.3125,9,1,1570001,,,6,5
57,104,0.3125,10,1,1570001,,,6,5
50,104,0.25,11,1,1570001,,,6,4
50,104,0.5625,12,0,1570001,,,6,9
57,104,0.5,0,1,1570002,,,6,8
57,104,0.1875,1,0,1570002,,,6,3
40,104,0.75,2,1,1570002,,,6,12
53,104,0.25,0,1,1580000,,,6,4
53,104,0.25,1,0,1580000,,,6,4
36,104,0.25,2,1,1580000,,,6,4
60,104,0.375,3,1,1580000,,,6,6
36,104,0.25,4,1,1580000,,,6,4
64,104,0.4375,5,1,1580000,,,6,7
29,104,0.25,6,1,1580000,,,6,4
60,104,0.375,7,1,1580000,,,6,6
59,104,0.25,8,0,1580000,,,6,4
34,104,0.125,9,1,1580000,,,6,2
34,104,0.375,10,0,1580000,,,6,6
46,104,0.25,11,1,1580000,,,6,4
53,104,0.1875,12,1,1580000,,,6,3
58,104,0.25,13,0,1580000,,,6,4
46,104,0.5,14,1,1580000,,,6,8
35,104,0.3125,0,1,1590000,,,6,5
59,104,0.25,1,1,1590000,,,6,4
35,104,0.25,2,1,1590000,,,6,4
59,104,0.375,3,1,1590000,,,6,6
64,104,0.4375,4,0,1590000,,,6,7
64,104,0.1875,5,0,1590000,,,6,3
64,104,0.3125,6,0,1590000,,,6,5
49,104,0.3125,7,1,1590000,,,6,5
49,104,0.1875,8,0,1590000,,,6,3
49,104,0.1875,9,0,1590000,,,6,3
64,104,0.25,10,1,1590000,,,6,4
64,104,0.1875,11,0,1590000,,,6,3
52,104,0.1875,12,1,1590000,,,6,3
31,104,0.375,0,1,1600000,,,6,6
31,104,0.1875,1,0,1600000,,,6,3
55,104,0.375,2,1,1600000,,,6,6
53,104,0.25,3,0,1600000,,,6,4
51,104,0.9375,4,0,1600000,,,6,15
51,104,0.9375,5,1,1600000,,,6,15
58,104,0.25,6,1,1600000,,,6,4
51,104,0.25,7,1,1600000,,,6,4
53,104,0.375,8,0,1600000,,,6,6
34,104,0.8125,9,1,1600000,,,6,13
53,104,0.9375,0,1,1600001,,,6,15
53,104,0.3125,1,1,1600001,,,6,5
53,104,0.8125,2,0,1600001,,,6,13
58,104,0.1875,3,1,1600001,,,6,3
53,104,0.875,4,0,1600001,,,6,14
29,104,0.6875,5,1,1600001,,,6,11
53,104,0.0625,0,1,1600002,,,6,1
45,104,0.375,0,1,1610000,,,6,6
57,104,0.375,1,1,1610000,,,6,6
52,104,0.375,2,0,1610000,,,6,6
64,104,0.125,3,1,1610000,,,6,2
64,104,0.3125,4,0,1610000,,,6,5
54,104,0.9375,5,1,1610000,,,6,15
54,104,0.25,6,1,1610000,,,6,4
54,104,0.1875,7,0,1610000,,,6,3
50,104,0.8125,8,0,1610000,,,6,13
57,104,0.375,9,1,1610000,,,6,6
57,104,0.25,0,1,1610001,,,6,4
38,104,0.1875,1,1,1610001,,,6,3
57,104,0.375,2,1,1610001,,,6,6
57,104,0.125,3,0,1610001,,,6,2
45,104,0.25,4,1,1610001,,,6,4
45,104,0.1875,5,0,1610001,,,6,3
57,104,0.5625,6,1,1610001,,,6,9
54,104,0.125,0,1,1620000,,,6,2
49,104,0.875,1,0,1620000,,,6,14
54,104,0.9375,2,1,1620000,,,6,15
56,104,0.25,3,1,1620000,,,6,4
47,104,0.5625,4,1,1620000,,,6,9
47,104,0.1875,5,0,1620000,,,6,3
59,104,0.1875,6,1,1620000,,,6,3
47,104,0.875,7,1,1620000,,,6,14
49,104,0.125,0,1,1620001,,,6,2
49,104,0.3125,1,0,1620001,,,6,5
59,104,0.25,2,1,1620001,,,6,4
33,104,0.25,0,1,1630000,,,6,4
52,104,0.9375,1,1,1630000,,,6,15
57,104,0.25,2,1,1630000,,,6,4
57,104,0.1875,3,0,1630000,,,6,3
43,104,0.375,4,1,1630000,,,6,6
62,104,0.1875,5,1,1630000,,,6,3
50,104,0.375,6,1,1630000,,,6,6
55,104,0.9375,7,0,1630000,,,6,15
55,104,0.1875,8,1,1630000,,,6,3
52,104,0.25,9,0,1630000,,,6,4
52,104,0.25,10,0,1630000,,,6,4
52,104,0.125,0,1,1630001,,,6,2
67,104,0.25,1,1,1630001,,,6,4
55,104,0.75,2,1,1630001,,,6,12
48,104,0.9375,3,1,1630001,,,6,15
65,104,0.9375,0,1,1640000,,,6,15
65,104,0.9375,1,1,1640000,,,6,15
51,104,0.9375,2,1,1640000,,,6,15
65,104,0.9375,3,1,1640000,,,6,15
58,104,0.5,4,1,1640000,,,6,8
53,104,0.9375,0,1,1640001,,,6,15
41,104,0.25,1,1,1640001,,,6,4
65,104,0.5625,2,1,1640001,,,6,9
60,104,0.375,3,0,1640001,,,6,6
58,104,0.5625,4,0,1640001,,,6,9
65,104,0.25,5,1,1640001,,,6,4
46,104,0.9375,6,1,1640001,,,6,15
65,104,0.3125,0,1,1640002,,,6,5
46,104,0.9375,1,1,1640002,,,6,15
46,104,0.375,2,1,1640002,,,6,6
58,104,0.25,3,1,1640002,,,6,4
46,104,0.25,4,1,1640002,,,6,4
58,104,0.25,5,1,1640002,,,6,4
46,104,0.375,6,1,1640002,,,6,6
47,104,0.5,0,1,1650000,,,6,8
50,104,0.9375,1,0,1650000,,,6,15
33,104,0.1875,2,1,1650000,,,6,3
45,104,0.375,3,1,1650000,,,6,6
33,104,0.3125,4,1,1650000,,,6,5
33,104,0.375,5,0,1650000,,,6,6
33,104,0.25,6,0,1650000,,,6,4
43,104,0.25,7,1,1650000,,,6,4
53,104,0.375,8,1,1650000,,,6,6
53,104,0.9375,9,0,1650000,,,6,15
60,104,0.9375,0,1,1650001,,,6,15
53,104,0.5625,1,1,1650001,,,6,9
50,104,0.1875,2,0,1650001,,,6,3
64,104,0.375,0,1,1660000,,,6,6
59,104,0.3125,1,0,1660000,,,6,5
64,104,0.1875,2,0,1660000,,,6,3
47,104,0.5625,3,1,1660000,,,6,9
52,104,0.125,4,0,1660000,,,6,2
64,104,0.125,5,1,1660000,,,6,2
59,104,0.1875,6,0,1660000,,,6,3
59,104,0.375,7,0,1660000,,,6,6
52,104,0.4375,8,1,1660000,,,6,7
64,104,0.25,9,1,1660000,,,6,4
52,104,0.25,10,1,1660000,,,6,4
64,104,0.3125,11,1,1660000,,,6,5
59,104,0.6875,12,0,1660000,,,6,11
35,104,0.125,0,1,1660001,,,6,2
59,104,0.3125,1,1,1660001,,,6,5
35,104,0.125,2,1,1660001,,,6,2
38,104,0.1875,0,1,1670000,,,6,3
62,104,0.3125,1,1,1670000,,,6,5
50,104,0.875,2,1,1670000,,,6,14
38,104,0.4375,3,1,1670000,,,6,7
62,104,0.4375,4,1,1670000,,,6,7
62,104,0.1875,5,0,1670000,,,6,3
62,104,0.1875,6,0,1670000,,,6,3
45,104,0.25,7,1,1670000,,,6,4
64,104,0.1875,8,1,1670000,,,6,3
57,104,0.4375,9,1,1670000,,,6,7
57,104,0.375,10,0,1670000,,,6,6
57,104,0.25,11,0,1670000,,,6,4
57,104,0.3125,0,1,1670001,,,6,5
57,104,0.3125,1,0,1670001,,,6,5
64,104,0.1875,2,1,1670001,,,6,3
57,104,0.9375,3,1,1670001,,,6,15
64,104,0.8125,4,1,1670001,,,6,13
45,104,0.625,5,1,1670001,,,6,10
45,104,0.6875,6,0,1670001,,,6,11
64,104,0.6875,0,1,1670002,,,6,11
62,104,0.1875,1,0,1670002,,,6,3
50,104,0.9375,0,1,1680000,,,6,15
52,104,0.625,1,1,1680000,,,6,10
56,104,0.4375,2,0,1680000,,,6,7
52,104,0.25,3,0,1680000,,,6,4
52,104,0.3125,4,0,1680000,,,6,5
33,104,0.75,5,1,1680000,,,6,12
45,104,0.25,6,1,1680000,,,6,4
45,104,0.5625,7,0,1680000,,,6,9
33,104,0.75,0,1,1680001,,,6,12
45,104,0.1875,1,1,1680001,,,6,3
45,104,0.4375,2,0,1680001,,,6,7
28,104,0.6875,3,1,1680001,,,6,11
47,104,0.4375,4,1,1680001,,,6,7
47,104,0.25,5,0,1680001,,,6,4
47,104,0.625,6,0,1680001,,,6,10
50,104,0.8125,7,0,1680001,,,6,13
50,104,0.375,0,1,1680002,,,6,6
38,104,0.9375,0,1,1690000,,,6,15
38,104,0.9375,1,1,1690000,,,6,15
50,104,0.9375,2,1,1690000,,,6,15
38,104,0.1875,3,1,1690000,,,6,3
38,104,0.5,4,0,1690000,,,6,8
38,104,0.25,5,0,1690000,,,6,4
38,104,0.1875,6,0,1690000,,,6,3
38,104,0.375,7,0,1690000,,,6,6
38,104,0.625,0,1,1690001,,,6,10
57,104,0.1875,1,1,1690001,,,6,3
57,104,0.3125,2,0,1690001,,,6,5
57,104,0.125,3,0,1690001,,,6,2
61,104,0.9375,0,1,1700000,,,6,15
57,104,0.3125,1,1,1700000,,,6,5
61,104,0.5,2,0,1700000,,,6,8
38,104,0.625,3,1,1700000,,,6,10
50,104,0.4375,4,1,1700000,,,6,7
62,104,0.1875,5,1,1700000,,,6,3
62,104,0.125,6,0,1700000,,,6,2
38,104,0.3125,7,1,1700000,,,6,5
57,104,0.4375,8,1,1700000,,,6,7
56,104,0.375,9,0,1700000,,,6,6
59,104,0.3125,0,1,1700001,,,6,5
56,104,0.625,1,0,1700001,,,6,10
57,104,0.5,2,0,1700001,,,6,8
57,104,0.375,3,0,1700001,,,6,6
33,104,0.3125,4,1,1700001,,,6,5
33,104,0.1875,5,0,1700001,,,6,3
45,104,0.375,6,1,1700001,,,6,6
64,104,0.1875,7,1,1700001,,,6,3
45,104,0.375,8,1,1700001,,,6,6
65,104,0.1875,0,1,1710000,,,6,3
53,104,0.25,1,1,1710000,,,6,4
60,104,0.9375,2,1,1710000,,,6,15
60,104,0.9375,3,1,1710000,,,6,15
65,104,0.6875,4,1,1710000,,,6,11
65,104,0.25,5,0,1710000,,,6,4
60,104,0.25,6,0,1710000,,,6,4
65,104,0.3125,7,0,1710000,,,6,5
53,104,0.1875,8,1,1710000,,,6,3
53,104,0.9375,0,1,1710001,,,6,15
53,104,0.4375,1,1,1710001,,,6,7
53,104,0.625,2,0,1710001,,,6,10
53,104,0.375,3,0,1710001,,,6,6
53,104,0.5625,4,0,1710001,,,6,9
41,104,0.3125,5,1,1710001,,,6,5
53,104,0.5,6,1,1710001,,,6,8
41,104,0.25,7,1,1710001,,,6,4
53,104,0.25,0,1,1710002,,,6,4
53,104,0.9375,1,0,1710002,,,6,15
41,104,0.125,2,1,1710002,,,6,2
60,104,0.5,0,1,1720000,,,6,8
60,104,0.9375,1,0,1720000,,,6,15
33,104,0.3125,2,1,1720000,,,6,5
60,104,0.25,3,1,1720000,,,6,4
60,104,0.625,4,0,1720000,,,6,10
59,104,0.25,5,0,1720000,,,6,4
48,104,0.9375,6,1,1720000,,,6,15
48,104,0.4375,7,1,1720000,,,6,7
59,104,0.1875,0,1,1720001,,,6,3
50,104,0.75,1,1,1720001,,,6,12
50,104,0.9375,2,1,1720001,,,6,15
50,104,0.9375,3,1,1720001,,,6,15
50,104,0.9375,4,1,1720001,,,6,15
50,104,0.25,0,1,1720002,,,6,4
54,104,0.25,0,1,1730000,,,6,4
66,104,0.1875,1,1,1730000,,,6,3
54,104,0.4375,2,1,1730000,,,6,7
61,104,0.5,3,1,1730000,,,6,8
69,104,0.75,4,1,1730000,,,6,12
66,104,0.5,5,1,1730000,,,6,8
66,104,0.25,6,0,1730000,,,6,4
66,104,0.3125,7,0,1730000,,,6,5
66,104,0.3125,8,0,1730000,,,6,5
49,104,0.9375,9,1,1730000,,,6,15
59,104,0.5625,0,1,1730001,,,6,9
59,104,0.3125,1,0,1730001,,,6,5
59,104,0.375,2,0,1730001,,,6,6
59,104,0.1875,3,0,1730001,,,6,3
49,104,0.1875,4,1,1730001,,,6,3
49,104,0.6875,5,0,1730001,,,6,11
68,104,0.25,6,1,1730001,,,6,4
59,104,0.375,7,1,1730001,,,6,6
59,104,0.1875,8,0,1730001,,,6,3
59,104,0.9375,9,0,1730001,,,6,15
50,104,0.875,0,1,1730002,,,6,14
69,104,0.3125,1,1,1730002,,,6,5
40,104,0.3125,0,1,1740000,,,6,5
40,104,0.25,1,0,1740000,,,6,4
64,104,0.375,2,1,1740000,,,6,6
59,104,0.625,3,0,1740000,,,6,10
38,104,0.1875,4,1,1740000,,,6,3
57,104,0.1875,5,1,1740000,,,6,3
57,104,0.5625,6,0,1740000,,,6,9
57,104,0.4375,7,0,1740000,,,6,7
26,104,0.25,8,1,1740000,,,6,4
57,104,0.9375,9,1,1740000,,,6,15
57,104,0.375,0,1,1740001,,,6,6
50,104,0.3125,1,1,1740001,,,6,5
45,104,0.625,2,0,1740001,,,6,10
33,104,0.9375,3,1,1740001,,,6,15
33,104,0.1875,4,1,1740001,,,6,3
33,104,0.5,5,0,1740001,,,6,8
33,104,0.1875,6,0,1740001,,,6,3
33,104,0.1875,7,0,1740001,,,6,3
33,104,0.1875,8,0,1740001,,,6,3
35,104,0.125,9,0,1740001,,,6,2
53,104,0.25,0,1,1750000,,,6,4
48,104,0.625,1,0,1750000,,,6,10
57,104,0.3125,2,1,1750000,,,6,5
48,104,0.125,3,1,1750000,,,6,2
43,104,0.375,4,0,1750000,,,6,6
50,104,0.9375,5,1,1750000,,,6,15
50,104,0.8125,6,1,1750000,,,6,13
56,104,0.9375,7,1,1750000,,,6,15
56,104,0.3125,0,1,1750001,,,6,5
56,104,0.9375,1,0,1750001,,,6,15
45,104,0.3125,2,1,1750001,,,6,5
45,104,0.4375,3,0,1750001,,,6,7
33,104,0.3125,4,1,1750001,,,6,5
64,104,0.25,0,1,1760000,,,6,4
64,104,0.3125,1,0,1760000,,,6,5
64,104,0.25,2,0,1760000,,,6,4
52,104,0.125,3,1,1760000,,,6,2
52,104,0.8125,4,0,1760000,,,6,13
50,104,0.3125,5,1,1760000,,,6,5
60,104,0.5,6,1,1760000,,,6,8
57,104,0.9375,7,0,1760000,,,6,15
60,104,0.1875,8,1,1760000,,,6,3
62,104,0.4375,9,0,1760000,,,6,7
62,104,0.5,0,1,1760001,,,6,8
62,104,0.375,1,0,1760001,,,6,6
50,104,0.4375,2,1,1760001,,,6,7
62,104,0.8125,3,1,1760001,,,6,13
62,104,0.1875,4,1,1760001,,,6,3
50,104,0.4375,5,1,1760001,,,6,7
59,104,0.1875,0,1,1770000,,,6,3
40,104,0.25,1,1,1770000,,,6,4
52,104,0.125,2,1,1770000,,,6,2
57,104,0.1875,3,0,1770000,,,6,3
57,104,0.25,4,0,1770000,,,6,4
57,104,0.1875,5,0,1770000,,,6,3
57,104,0.3125,6,0,1770000,,,6,5
57,104,0.625,7,0,1770000,,,6,10
57,104,0.4375,8,0,1770000,,,6,7
57,104,0.25,9,0,1770000,,,6,4
64,104,0.8125,10,1,1770000,,,6,13
33,104,0.25,11,1,1770000,,,6,4
33,104,0.25,12,0,1770000,,,6,4
52,104,0.3125,0,1,1770001,,,6,5
52,104,0.1875,1,0,1770001,,,6,3
33,104,0.1875,2,1,1770001,,,6,3
52,104,0.25,3,1,1770001,,,6,4
62,104,0.75,4,1,1770001,,,6,12
62,104,0.875,5,1,1770001,,,6,14
64,104,0.4375,6,1,1770001,,,6,7
57,104,0.4375,7,1,1770001,,,6,7
64,104,0.1875,8,1,1770001,,,6,3
68,104,0.25,9,0,1770001,,,6,4
68,104,0.1875,0,1,1770002,,,6,3
40,104,0.3125,1,1,1770002,,,6,5
52,104,0.25,2,1,1770002,,,6,4
59,104,0.375,3,1,1770002,,,6,6
43,104,0.1875,0,1,1780000,,,6,3
43,104,0.9375,1,0,1780000,,,6,15
31,104,0.125,2,1,1780000,,,6,2
62,104,0.875,3,1,1780000,,,6,14
62,104,0.3125,4,1,1780000,,,6,5
48,104,0.9375,5,1,1780000,,,6,15
36,104,0.875,6,1,1780000,,,6,14
58,104,0.3125,0,1,1780001,,,6,5
62,104,0.3125,1,0,1780001,,,6,5
58,104,0.9375,2,0,1780001,,,6,15
53,104,0.5,3,1,1780001,,,6,8
29,104,0.25,4,1,1780001,,,6,4
29,104,0.3125,5,0,1780001,,,6,5
29,104,0.4375,6,0,1780001,,,6,7
58,104,0.5,7,1,1780001,,,6,8
29,104,0.25,8,1,1780001,,,6,4
53,104,0.125,0,1,1780002,,,6,2
46,104,0.9375,0,1,1790000,,,6,15
46,104,0.1875,1,1,1790000,,,6,3
65,104,0.9375,2,1,1790000,,,6,15
46,104,0.1875,3,1,1790000,,,6,3
65,104,0.3125,4,1,1790000,,,6,5
51,104,0.25,5,1,1790000,,,6,4
58,104,0.1875,6,1,1790000,,,6,3
63,104,0.5,7,0,1790000,,,6,8
51,104,0.375,8,1,1790000,,,6,6
63,104,0.6875,9,1,1790000,,,6,11
51,104,0.9375,0,1,1790001,,,6,15
51,104,0.1875,1,1,1790001,,,6,3
58,104,0.9375,2,1,1790001,,,6,15
65,104,0.3125,3,1,1790001,,,6,5
58,104,0.6875,4,1,1790001,,,6,11
55,104,0.3125,5,0,1790001,,,6,5
42,104,0.75,0,1,1800000,,,6,12
64,104,0.625,1,1,1800000,,,6,10
45,104,0.9375,2,1,1800000,,,6,15
68,104,0.4375,3,1,1800000,,,6,7
68,104,0.875,4,0,1800000,,,6,14
66,104,0.25,5,1,1800000,,,6,4
57,104,0.8125,6,1,1800000,,,6,13
52,104,0.9375,0,1,1800001,,,6,15
57,104,0.25,1,1,1800001,,,6,4
50,104,0.8125,2,1,1800001,,,6,13
50,104,0.5,3,1,1800001,,,6,8
57,104,0.9375,4,1,1800001,,,6,15
50,104,0.1875,0,1,1800002,,,6,3
52,104,0.9375,1,0,1800002,,,6,15
52,104,0.375,2,1,1800002,,,6,6
52,104,0.5,3,0,1800002,,,6,8
55,104,0.25,0,1,1810000,,,6,4
63,104,0.1875,1,1,1810000,,,6,3
55,104,0.125,2,1,1810000,,,6,2
63,104,0.1875,3,1,1810000,,,6,3
63,104,0.1875,4,0,1810000,,,6,3
63,104,0.3125,5,0,1810000,,,6,5
43,104,0.1875,6,1,1810000,,,6,3
43,104,0.3125,7,0,1810000,,,6,5
43,104,0.375,8,0,1810000,,,6,6
43,104,0.125,9,0,1810000,,,6,2
43,104,0.6875,10,0,1810000,,,6,11
43,104,0.1875,11,0,1810000,,,6,3
58,104,0.1875,12,1,1810000,,,6,3
39,104,0.875,0,1,1820000,,,6,14
56,104,0.25,1,1,1820000,,,6,4
58,104,0.9375,2,0,1820000,,,6,15
58,104,0.1875,3,1,1820000,,,6,3
58,104,0.5625,4,0,1820000,,,6,9
58,104,0.25,5,0,1820000,,,6,4
39,104,0.3125,6,1,1820000,,,6,5
58,104,0.25,7,1,1820000,,,6,4
39,104,0.9375,8,1,1820000,,,6,15
58,104,0.875,0,1,1820001,,,6,14
39,104,0.375,1,1,1820001,,,6,6
58,104,0.875,2,1,1820001,,,6,14
58,104,0.9375,3,1,1820001,,,6,15
58,104,0.1875,4,1,1820001,,,6,3
58,104,0.1875,5,0,1820001,,,6,3
58,104,0.9375,0,1,1820002,,,6,15
58,104,0.9375,1,1,1820002,,,6,15
58,104,0.3125,2,1,1820002,,,6,5
52,104,0.1875,0,1,1830000,,,6,3
52,104,0.25,1,0,1830000,,,6,4
52,104,0.1875,2,0,1830000,,,6,3
52,104,0.1875,3,0,1830000,,,6,3
52,104,0.3125,4,0,1830000,,,6,5
64,104,0.25,5,1,1830000,,,6,4
59,104,0.1875,6,0,1830000,,,6,3
35,104,0.5625,7,1,1830000,,,6,9
35,104,0.5625,8,0,1830000,,,6,9
47,104,0.5,9,1,1830000,,,6,8
35,104,0.1875,10,1,1830000,,,6,3
49,104,0.375,0,1,1840000,,,6,6
61,104,0.9375,1,1,1840000,,,6,15
61,104,0.3125,2,1,1840000,,,6,5
64,104,0.3125,3,0,1840000,,,6,5
61,104,0.375,4,0,1840000,,,6,6
38,104,0.375,5,1,1840000,,,6,6
50,104,0.9375,6,1,1840000,,,6,15
50,104,0.375,7,1,1840000,,,6,6
38,104,0.375,0,1,1840001,,,6,6
62,104,0.25,1,1,1840001,,,6,4
52,104,0.5,2,1,1840001,,,6,8
40,104,0.1875,3,1,1840001,,,6,3
52,104,0.875,4,1,1840001,,,6,14
57,104,0.9375,5,1,1840001,,,6,15
45,104,0.25,6,1,1840001,,,6,4
57,104,0.5,7,1,1840001,,,6,8
61,104,0.9375,8,0,1840001,,,6,15
52,104,0.5625,0,1,1850000,,,6,9
54,104,0.5,1,0,1850000,,,6,8
57,104,0.4375,2,0,1850000,,,6,7
45,104,0.6875,3,1,1850000,,,6,11
45,104,0.75,4,0,1850000,,,6,12
61,104,0.3125,5,1,1850000,,,6,5
61,104,0.25,6,0,1850000,,,6,4
45,104,0.5,7,1,1850000,,,6,8
45,104,0.25,0,1,1850001,,,6,4
45,104,0.375,1,0,1850001,,,6,6
52,104,0.3125,2,1,1850001,,,6,5
33,104,0.1875,3,1,1850001,,,6,3
45,104,0.4375,4,1,1850001,,,6,7
61,104,0.25,5,1,1850001,,,6,4
52,104,0.1875,6,1,1850001,,,6,3
61,104,0.3125,7,1,1850001,,,6,5
37,104,0.1875,0,1,1860000,,,6,3
49,104,0.625,1,1,1860000,,,6,10
49,104,0.5625,2,0,1860000,,,6,9
37,104,0.4375,3,1,1860000,,,6,7
61,104,0.1875,4,1,1860000,,,6,3
49,104,0.9375,5,1,1860000,,,6,15
49,104,0.4375,6,1,1860000,,,6,7
49,104,0.5625,7,0,1860000,,,6,9
49,104,0.5625,8,0,1860000,,,6,9
37,104,0.4375,0,1,1860001,,,6,7
49,104,0.5625,1,1,1860001,,,6,9
49,104,0.4375,2,0,1860001,,,6,7
61,104,0.3125,3,1,1860001,,,6,5
61,104,0.5,4,0,1860001,,,6,8
57,104,0.3125,5,0,1860001,,,6,5
45,104,0.5,6,1,1860001,,,6,8
45,104,0.4375,7,0,1860001,,,6,7
57,104,0.625,0,1,1860002,,,6,10
57,104,0.1875,1,0,1860002,,,6,3
57,104,0.1875,2,0,1860002,,,6,3
45,104,0.5,3,1,1860002,,,6,8
45,104,0.3125,4,0,1860002,,,6,5
45,104,0.5,5,0,1860002,,,6,8
46,104,0.9375,0,1,1870000,,,6,15
55,104,0.1875,1,1,1870000,,,6,3
58,104,0.1875,2,0,1870000,,,6,3
48,104,0.3125,3,1,1870000,,,6,5
48,104,0.1875,4,0,1870000,,,6,3
48,104,0.9375,5,0,1870000,,,6,15
53,104,0.1875,6,1,1870000,,,6,3
34,104,0.1875,7,1,1870000,,,6,3
46,104,0.25,8,1,1870000,,,6,4
46,104,0.1875,9,0,1870000,,,6,3
34,104,0.4375,10,1,1870000,,,6,7
46,104,0.25,0,1,1870001,,,6,4
46,104,0.625,1,0,1870001,,,6,10
50,104,0.125,0,1,1880000,,,6,2
53,104,0.1875,1,0,1880000,,,6,3
53,104,0.375,2,0,1880000,,,6,6
53,104,0.375,3,0,1880000,,,6,6
53,104,0.3125,4,0,1880000,,,6,5
53,104,0.25,5,0,1880000,,,6,4
60,104,0.25,6,1,1880000,,,6,4
53,104,0.25,7,1,1880000,,,6,4
53,104,0.3125,8,0,1880000,,,6,5
48,104,0.5625,9,0,1880000,,,6,9
53,104,0.25,10,0,1880000,,,6,4
48,104,0.9375,11,0,1880000,,,6,15
53,104,0.5,0,1,1880001,,,6,8
53,104,0.5,1,0,1880001,,,6,8
55,104,0.375,2,0,1880001,,,6,6
55,104,0.3125,3,0,1880001,,,6,5
53,104,0.3125,4,0,1880001,,,6,5
53,104,0.25,0,1,1890000,,,6,4
53,104,0.3125,1,0,1890000,,,6,5
46,104,0.25,2,1,1890000,,,6,4
46,104,0.3125,3,0,1890000,,,6,5
46,104,0.375,4,0,1890000,,,6,6
53,104,0.25,5,1,1890000,,,6,4
51,104,0.125,6,0,1890000,,,6,2
63,104,0.1875,7,1,1890000,,,6,3
58,104,0.3125,8,0,1890000,,,6,5
46,104,0.25,9,1,1890000,,,6,4
67,104,0.4375,10,1,1890000,,,6,7
62,104,0.5,11,0,1890000,,,6,8
63,104,0.75,12,0,1890000,,,6,12
44,104,0.4375,0,1,1900000,,,6,7
44,104,0.3125,1,0,1900000,,,6,5
56,104,0.1875,2,1,1900000,,,6,3
56,104,0.1875,3,0,1900000,,,6,3
51,104,0.1875,4,0,1900000,,,6,3
56,104,0.5,5,0,1900000,,,6,8
44,104,0.1875,6,1,1900000,,,6,3
44,104,0.1875,7,0,1900000,,,6,3
56,104,0.125,8,1,1900000,,,6,2
44,104,0.1875,9,1,1900000,,,6,3
46,104,0.1875,10,0,1900000,,,6,3
46,104,0.125,11,0,1900000,,,6,2
46,104,0.25,12,0,1900000,,,6,4
46,104,0.3125,13,0,1900000,,,6,5
46,104,0.375,14,0,1900000,,,6,6
46,104,0.1875,15,0,1900000,,,6,3
46,104,0.25,16,0,1900000,,,6,4
46,104,0.9375,0,1,1900001,,,6,15
46,104,0.6875,1,1,1900001,,,6,11
46,104,0.5,2,0,1900001,,,6,8
44,104,0.25,3,0,1900001,,,6,4
44,104,0.125,4,0,1900001,,,6,2
56,104,0.25,5,1,1900001,,,6,4
62,104,0.5,0,1,1910000,,,6,8
55,104,0.9375,1,1,1910000,,,6,15
62,104,0.375,2,1,1910000,,,6,6
62,104,0.4375,3,0,1910000,,,6,7
36,104,0.125,4,1,1910000,,,6,2
36,104,0.125,5,0,1910000,,,6,2
36,104,0.125,6,0,1910000,,,6,2
36,104,0.9375,7,0,1910000,,,6,15
60,104,0.25,8,1,1910000,,,6,4
55,104,0.3125,9,0,1910000,,,6,5
55,104,0.9375,0,1,1910001,,,6,15
57,104,0.625,1,1,1910001,,,6,10
55,104,0.9375,2,0,1910001,,,6,15
43,104,0.75,3,1,1910001,,,6,12
55,104,0.1875,4,1,1910001,,,6,3
35,104,0.1875,0,1,1920000,,,6,3
59,104,0.1875,1,1,1920000,,,6,3
54,104,0.1875,2,0,1920000,,,6,3
54,104,0.1875,3,0,1920000,,,6,3
52,104,0.875,4,0,1920000,,,6,14
59,104,0.1875,5,1,1920000,,,6,3
40,104,0.25,6,1,1920000,,,6,4
52,104,0.9375,7,1,1920000,,,6,15
35,104,0.25,8,1,1920000,,,6,4
54,104,0.3125,9,1,1920000,,,6,5
59,104,0.625,10,0,1920000,,,6,10
35,104,0.375,0,1,1920001,,,6,6
35,104,0.125,1,0,1920001,,,6,2
54,104,0.4375,2,1,1920001,,,6,7
59,104,0.9375,3,0,1920001,,,6,15
54,104,0.25,4,1,1920001,,,6,4
35,104,0.5,5,1,1920001,,,6,8
54,104,0.1875,6,1,1920001,,,6,3
54,104,0.4375,7,0,1920001,,,6,7
59,104,0.375,8,0,1920001,,,6,6
54,104,0.1875,9,0,1920001,,,6,3
54,104,0.5,0,1,1920002,,,6,8
59,104,0.25,1,0,1920002,,,6,4
35,104,0.3125,2,1,1920002,,,6,5
35,104,0.625,3,0,1920002,,,6,10
55,104,0.6875,0,1,1930000,,,6,11
52,104,0.1875,1,0,1930000,,,6,3
55,104,0.125,2,0,1930000,,,6,2
67,104,0.6875,3,1,1930000,,,6,11
55,104,0.9375,4,1,1930000,,,6,15
57,104,0.1875,5,1,1930000,,,6,3
55,104,0.4375,6,0,1930000,,,6,7
55,104,0.1875,7,0,1930000,,,6,3
60,104,0.1875,8,0,1930000,,,6,3
55,104,0.5,9,0,1930000,,,6,8
55,104,0.6875,0,1,1930001,,,6,11
43,104,0.1875,1,1,1930001,,,6,3
62,104,0.5,2,1,1930001,,,6,8
62,104,0.5625,3,0,1930001,,,6,9
62,104,0.625,4,0,1930001,,,6,10
43,104,0.1875,5,1,1930001,,,6,3
55,104,0.875,6,1,1930001,,,6,14
55,104,0.1875,7,1,1930001,,,6,3
55,104,0.9375,8,0,1930001,,,6,15
55,104,0.9375,0,1,1930002,,,6,15
60,104,0.5,0,1,1940000,,,6,8
60,104,0.1875,1,0,1940000,,,6,3
57,104,0.4375,2,0,1940000,,,6,7
55,104,0.3125,3,0,1940000,,,6,5
31,104,0.25,4,1,1940000,,,6,4
50,104,0.3125,5,1,1940000,,,6,5
55,104,0.375,6,0,1940000,,,6,6
55,104,0.5,7,0,1940000,,,6,8
50,104,0.9375,8,0,1940000,,,6,15
50,104,0.9375,9,1,1940000,,,6,15
55,104,0.9375,0,1,1940001,,,6,15
57,104,0.5,1,1,1940001,,,6,8
48,104,0.9375,2,1,1940001,,,6,15
60,104,0.125,3,1,1940001,,,6,2
55,104,0.4375,4,0,1940001,,,6,7
50,104,0.9375,5,0,1940001,,,6,15
59,104,0.0625,0,1,1940002,,,6,1
54,104,0.3125,0,1,1950000,,,6,5
42,104,0.25,1,1,1950000,,,6,4
54,104,0.625,2,1,1950000,,,6,10
54,104,0.8125,3,0,1950000,,,6,13
54,104,0.125,4,1,1950000,,,6,2
35,104,0.625,5,1,1950000,,,6,10
35,104,0.1875,6,0,1950000,,,6,3
35,104,0.1875,7,0,1950000,,,6,3
35,104,0.875,8,0,1950000,,,6,14
35,104,0.25,0,1,1950001,,,6,4
35,104,0.625,1,0,1950001,,,6,10
35,104,0.625,2,0,1950001,,,6,10
35,104,0.25,3,0,1950001,,,6,4
54,104,0.1875,4,1,1950001,,,6,3
35,104,0.25,5,1,1950001,,,6,4
66,104,0.375,6,1,1950001,,,6,6
63,104,0.5625,7,0,1950001,,,6,9
54,104,0.3125,8,1,1950001,,,6,5
54,104,0.1875,9,0,1950001,,,6,3
41,104,0.25,0,1,1960000,,,6,4
41,104,0.25,1,0,1960000,,,6,4
60,104,0.25,2,1,1960000,,,6,4
60,104,0.1875,3,0,1960000,,,6,3
53,104,0.4375,4,1,1960000,,,6,7
65,104,0.5,5,1,1960000,,,6,8
53,104,0.4375,6,1,1960000,,,6,7
53,104,0.1875,7,0,1960000,,,6,3
53,104,0.5625,8,0,1960000,,,6,9
60,104,0.375,9,1,1960000,,,6,6
53,104,0.75,10,1,1960000,,,6,12
53,104,0.9375,0,1,1960001,,,6,15
60,104,0.375,1,1,1960001,,,6,6
53,104,0.1875,2,1,1960001,,,6,3
53,104,0.25,3,0,1960001,,,6,4
60,104,0.375,4,1,1960001,,,6,6
62,104,0.4375,5,0,1960001,,,6,7
62,104,0.9375,6,0,1960001,,,6,15
62,104,0.4375,7,1,1960001,,,6,7
62,104,0.375,0,1,1960002,,,6,6
38,104,0.625,1,1,1960002,,,6,10
50,104,0.4375,2,1,1960002,,,6,7
65,104,0.4375,3,1,1960002,,,6,7
65,104,0.6875,4,0,1960002,,,6,11
50,104,0.25,5,1,1960002,,,6,4
62,104,0.5,6,1,1960002,,,6,8
65,104,0.0625,7,0,1960002,,,6,1
67,104,0.9375,0,1,1970000,,,6,15
53,104,0.1875,1,1,1970000,,,6,3
67,104,0.375,2,1,1970000,,,6,6
53,104,0.1875,3,1,1970000,,,6,3
63,104,0.9375,4,1,1970000,,,6,15
63,104,0.125,5,1,1970000,,,6,2
63,104,0.3125,6,0,1970000,,,6,5
53,104,0.6875,7,1,1970000,,,6,11
53,104,0.3125,8,0,1970000,,,6,5
53,104,0.1875,0,1,1970001,,,6,3
54,104,0.125,1,0,1970001,,,6,2
53,104,0.5625,2,0,1970001,,,6,9
63,104,0.25,3,1,1970001,,,6,4
52,104,0.1875,4,1,1970001,,,6,3
62,104,0.9375,5,1,1970001,,,6,15
62,104,0.625,6,1,1970001,,,6,10
63,104,0.4375,0,1,1980000,,,6,7
62,104,0.125,1,0,1980000,,,6,2
46,104,0.9375,2,1,1980000,,,6,15
53,104,0.3125,3,1,1980000,,,6,5
60,104,0.375,4,1,1980000,,,6,6
60,104,0.1875,5,0,1980000,,,6,3
63,104,0.3125,6,0,1980000,,,6,5
55,104,0.8125,7,1,1980000,,,6,13
55,104,0.6875,8,1,1980000,,,6,11
65,104,0.8125,0,1,1980001,,,6,13
56,104,0.25,1,1,1980001,,,6,4
56,104,0.5,2,0,1980001,,,6,8
55,104,0.0625,3,0,1980001,,,6,1
51,104,0.9375,0,1,1990000,,,6,15
51,104,0.1875,1,1,1990000,,,6,3
39,104,0.25,2,1,1990000,,,6,4
34,104,0.9375,3,0,1990000,,,6,15
34,104,0.1875,4,1,1990000,,,6,3
34,104,0.625,5,0,1990000,,,6,10
34,104,0.6875,6,0,1990000,,,6,11
53,104,0.1875,7,1,1990000,,,6,3
41,104,0.3125,0,1,1990001,,,6,5
29,104,0.875,1,1,1990001,,,6,14
29,104,0.625,2,1,1990001,,,6,10
29,104,0.1875,3,0,1990001,,,6,3
39,104,0.3125,0,1,2000000,,,6,5
63,104,0.4375,1,1,2000000,,,6,7
39,104,0.1875,2,1,2000000,,,6,3
51,104,0.4375,3,1,2000000,,,6,7
39,104,0.25,4,1,2000000,,,6,4
51,104,0.125,5,1,2000000,,,6,2
51,104,0.125,6,0,2000000,,,6,2
63,104,0.1875,7,1,2000000,,,6,3
51,104,0.1875,8,1,2000000,,,6,3
39,104,0.3125,9,1,2000000,,,6,5
51,104,0.375,10,1,2000000,,,6,6
63,104,0.25,11,1,2000000,,,6,4
51,104,0.1875,12,1,2000000,,,6,3
51,104,0.375,13,0,2000000,,,6,6
43,104,0.3125,14,1,2000000,,,6,5
43,104,0.3125,0,1,2000001,,,6,5
43,104,0.1875,1,0,2000001,,,6,3
50,104,0.1875,0,1,2010000,,,6,3
52,104,0.5,1,0,2010000,,,6,8
52,104,0.375,2,0,2010000,,,6,6
52,104,0.625,3,0,2010000,,,6,10
59,104,0.25,4,1,2010000,,,6,4
40,104,0.1875,5,1,2010000,,,6,3
47,104,0.4375,6,1,2010000,,,6,7
52,104,0.25,7,0,2010000,,,6,4
56,104,0.1875,8,0,2010000,,,6,3
59,104,0.625,9,0,2010000,,,6,10
56,104,0.625,10,0,2010000,,,6,10
52,104,0.1875,0,1,2010001,,,6,3
52,104,0.1875,1,0,2010001,,,6,3
54,104,0.4375,2,0,2010001,,,6,7
53,104,0.6875,0,1,2020000,,,6,11
53,104,0.9375,1,0,2020000,,,6,15
53,104,0.9375,2,1,2020000,,,6,15
58,104,0.75,3,1,2020000,,,6,12
53,104,0.25,4,1,2020000,,,6,4
57,104,0.3125,5,0,2020000,,,6,5
53,104,0.3125,6,0,2020000,,,6,5
54,104,0.1875,0,1,2020001,,,6,3
53,104,0.375,1,0,2020001,,,6,6
29,104,0.1875,2,1,2020001,,,6,3
53,104,0.1875,3,1,2020001,,,6,3
42,104,0.4375,0,1,2030000,,,6,7
61,104,0.375,1,1,2030000,,,6,6
57,104,0.1875,2,0,2030000,,,6,3
61,104,0.25,3,0,2030000,,,6,4
61,104,0.375,4,0,2030000,,,6,6
54,104,0.1875,5,1,2030000,,,6,3
54,104,0.4375,6,0,2030000,,,6,7
54,104,0.25,7,0,2030000,,,6,4
57,104,0.25,8,0,2030000,,,6,4
62,104,0.125,9,0,2030000,,,6,2
62,104,0.125,10,0,2030000,,,6,2
38,104,0.3125,11,1,2030000,,,6,5
54,104,0.4375,12,1,2030000,,,6,7
57,104,0.5625,13,0,2030000,,,6,9
50,104,0.375,0,1,2030001,,,6,6
52,104,0.125,1,0,2030001,,,6,2
52,104,0.625,2,0,2030001,,,6,10
59,104,0.1875,3,1,2030001,,,6,3
69,104,0.3125,0,1,2040000,,,6,5
33,104,0.3125,1,1,2040000,,,6,5
33,104,0.125,2,0,2040000,,,6,2
57,104,0.5,3,1,2040000,,,6,8
45,104,0.75,4,1,2040000,,,6,12
33,104,0.1875,5,1,2040000,,,6,3
61,104,0.1875,6,1,2040000,,,6,3
61,104,0.625,7,0,2040000,,,6,10
57,104,0.5,8,0,2040000,,,6,8
57,104,0.3125,9,0,2040000,,,6,5
57,104,0.4375,10,0,2040000,,,6,7
40,104,0.125,0,1,2040001,,,6,2
52,104,0.375,1,1,2040001,,,6,6
52,104,0.25,2,0,2040001,,,6,4
64,104,0.25,3,1,2040001,,,6,4
59,104,0.4375,4,0,2040001,,,6,7
61,104,0.125,5,0,2040001,,,6,2
53,104,0.9375,6,1,2040001,,,6,15
52,104,0.1875,0,1,2050000,,,6,3
64,104,0.3125,1,1,2050000,,,6,5
52,104,0.75,2,1,2050000,,,6,12
52,104,0.25,3,1,2050000,,,6,4
59,104,0.625,4,1,2050000,,,6,10
35,104,0.6875,5,1,2050000,,,6,11
47,104,0.875,6,1,2050000,,,6,14
35,104,0.8125,7,1,2050000,,,6,13
47,104,0.1875,0,1,2050001,,,6,3
47,104,0.1875,1,0,2050001,,,6,3
35,104,0.3125,2,1,2050001,,,6,5
59,104,0.5625,3,1,2050001,,,6,9
35,104,0.4375,4,1,2050001,,,6,7
35,104,0.25,5,0,2050001,,,6,4
47,104,0.3125,6,1,2050001,,,6,5
35,104,0.5,7,1,2050001,,,6,8
35,104,0.375,8,0,2050001,,,6,6
47,104,0.125,9,1,2050001,,,6,2
59,104,0.25,10,1,2050001,,,6,4
59,104,0.4375,0,1,2050002,,,6,7
59,104,0.4375,1,0,2050002,,,6,7
50,104,0.4375,0,1,2060000,,,6,7
43,104,0.5625,1,1,2060000,,,6,9
43,104,0.1875,2,0,2060000,,,6,3
35,104,0.1875,3,1,2060000,,,6,3
59,104,0.3125,4,1,2060000,,,6,5
40,104,0.375,5,1,2060000,,,6,6
59,104,0.625,6,1,2060000,,,6,10
64,104,0.4375,7,0,2060000,,,6,7
59,104,0.5625,8,0,2060000,,,6,9
59,104,0.75,9,0,2060000,,,6,12
67,104,0.1875,0,1,2060001,,,6,3
59,104,0.3125,1,1,2060001,,,6,5
38,104,0.5,2,1,2060001,,,6,8
50,104,0.1875,3,1,2060001,,,6,3
57,104,0.25,4,1,2060001,,,6,4
57,104,0.1875,5,0,2060001,,,6,3
67,104,0.1875,6,1,2060001,,,6,3
55,104,0.125,7,1,2060001,,,6,2
38,104,0.4375,0,1,2070000,,,6,7
57,104,0.3125,1,1,2070000,,,6,5
38,104,0.3125,2,1,2070000,,,6,5
38,104,0.1875,3,0,2070000,,,6,3
50,104,0.25,4,1,2070000,,,6,4
38,104,0.25,5,1,2070000,,,6,4
38,104,0.25,6,0,2070000,,,6,4
38,104,0.1875,7,0,2070000,,,6,3
52,104,0.1875,8,1,2070000,,,6,3
52,104,0.375,9,0,2070000,,,6,6
52,104,0.1875,10,0,2070000,,,6,3
64,104,0.1875,11,1,2070000,,,6,3
52,104,0.1875,12,1,2070000,,,6,3
64,104,0.1875,13,1,2070000,,,6,3
40,104,0.25,14,1,2070000,,,6,4
52,104,0.1875,15,1,2070000,,,6,3
52,104,0.375,16,0,2070000,,,6,6
40,104,0.1875,0,1,2070001,,,6,3
52,104,0.375,1,1,2070001,,,6,6
52,104,0.1875,2,0,2070001,,,6,3
52,104,0.125,3,0,2070001,,,6,2
52,104,0.1875,4,0,2070001,,,6,3
64,104,0.1875,5,1,2070001,,,6,3
52,104,0.375,6,1,2070001,,,6,6
40,104,0.1875,7,1,2070001,,,6,3
52,104,0.3125,8,1,2070001,,,6,5
48,104,0.625,0,1,2080000,,,6,10
58,104,0.375,1,1,2080000,,,6,6
53,104,0.625,2,0,2080000,,,6,10
53,104,0.1875,3,0,2080000,,,6,3
58,104,0.625,4,0,2080000,,,6,10
53,104,0.25,5,0,2080000,,,6,4
46,104,0.75,6,1,2080000,,,6,12
58,104,0.1875,7,1,2080000,,,6,3
46,104,0.4375,8,1,2080000,,,6,7
46,104,0.375,0,1,2080001,,,6,6
58,104,0.4375,1,1,2080001,,,6,7
53,104,0.25,2,0,2080001,,,6,4
46,104,0.1875,3,1,2080001,,,6,3
46,104,0.1875,4,0,2080001,,,6,3
46,104,0.5625,5,0,2080001,,,6,9
58,104,0.9375,6,1,2080001,,,6,15
50,104,0.3125,0,1,2090000,,,6,5
69,104,0.1875,1,1,2090000,,,6,3
45,104,0.1875,2,1,2090000,,,6,3
52,104,0.875,3,1,2090000,,,6,14
52,104,0.375,4,1,2090000,,,6,6
64,104,0.125,5,1,2090000,,,6,2
52,104,0.9375,6,1,2090000,,,6,15
44,104,0.8125,7,1,2090000,,,6,13
54,104,0.625,8,1,2090000,,,6,10
59,104,0.375,0,1,2090001,,,6,6
42,104,0.9375,1,1,2090001,,,6,15
54,104,0.1875,2,1,2090001,,,6,3
57,104,0.5,3,0,2090001,,,6,8
54,104,0.1875,4,0,2090001,,,6,3
38,104,0.8125,5,1,2090001,,,6,13
50,104,0.3125,6,1,2090001,,,6,5
38,104,0.6875,7,1,2090001,,,6,11
59,104,0.125,0,1,2090002,,,6,2
26,104,0.125,0,1,2100000,,,6,2
38,104,0.25,1,1,2100000,,,6,4
38,104,0.5625,2,0,2100000,,,6,9
26,104,0.1875,3,1,2100000,,,6,3
38,104,0.625,4,1,2100000,,,6,10
38,104,0.3125,5,0,2100000,,,6,5
50,104,0.125,6,1,2100000,,,6,2
38,104,0.625,7,1,2100000,,,6,10
50,104,0.375,8,1,2100000,,,6,6
26,104,0.1875,9,1,2100000,,,6,3
38,104,0.3125,10,1,2100000,,,6,5
38,104,0.3125,11,0,2100000,,,6,5
38,104,0.5625,0,1,2100001,,,6,9
38,104,0.4375,1,0,2100001,,,6,7
38,104,0.25,2,0,2100001,,,6,4
38,104,0.1875,3,0,2100001,,,6,3
38,104,0.625,4,0,2100001,,,6,10
57,104,0.375,5,1,2100001,,,6,6
54,104,0.1875,6,0,2100001,,,6,3
28,104,0.1875,7,1,2100001,,,6,3
61,104,0.4375,0,1,2110000,,,6,7
45,104,0.5,1,1,2110000,,,6,8
57,104,0.1875,2,1,2110000,,,6,3
45,104,0.1875,3,1,2110000,,,6,3
33,104,0.1875,4,1,2110000,,,6,3
57,104,0.1875,5,1,2110000,,,6,3
33,104,0.1875,6,1,2110000,,,6,3
61,104,0.8125,7,1,2110000,,,6,13
33,104,0.3125,8,1,2110000,,,6,5
61,104,0.5,9,1,2110000,,,6,8
42,104,0.1875,10,1,2110000,,,6,3
57,104,0.6875,11,1,2110000,,,6,11
54,104,0.5625,0,1,2110001,,,6,9
57,104,0.1875,1,0,2110001,,,6,3
38,104,0.125,2,1,2110001,,,6,2
33,104,0.9375,0,1,2120000,,,6,15
57,104,0.5,1,1,2120000,,,6,8
50,104,0.125,2,1,2120000,,,6,2
54,104,0.5625,3,0,2120000,,,6,9
69,104,0.375,4,1,2120000,,,6,6
69,104,0.125,5,0,2120000,,,6,2
50,104,0.3125,6,1,2120000,,,6,5
50,104,0.9375,7,0,2120000,,,6,15
57,104,0.875,8,1,2120000,,,6,14
69,104,0.125,0,1,2120001,,,6,2
56,104,0.5,1,1,2120001,,,6,8
56,104,0.125,2,0,2120001,,,6,2
59,104,0.375,3,0,2120001,,,6,6
40,104,0.3125,4,1,2120001,,,6,5
40,104,0.5,5,0,2120001,,,6,8
50,104,0.9375,6,1,2120001,,,6,15
59,104,0.1875,7,1,2120001,,,6,3
52,104,0.375,8,1,2120001,,,6,6
52,104,0.125,0,1,2120002,,,6,2
57,104,0.8125,1,0,2120002,,,6,13
49,104,0.0625,2,1,2120002,,,6,1
35,104,0.375,0,1,2130000,,,6,6
47,104,0.9375,1,1,2130000,,,6,15
47,104,0.9375,2,1,2130000,,,6,15
59,104,0.8125,3,1,2130000,,,6,13
47,104,0.3125,4,1,2130000,,,6,5
59,104,0.625,5,1,2130000,,,6,10
59,104,0.1875,0,1,2130001,,,6,3
35,104,0.4375,1,1,2130001,,,6,7
54,104,0.9375,2,1,2130001,,,6,15
54,104,0.3125,3,1,2130001,,,6,5
61,104,0.25,4,1,2130001,,,6,4
59,104,0.5625,5,0,2130001,,,6,9
59,104,0.625,6,0,2130001,,,6,10
47,104,0.3125,7,1,2130001,,,6,5
57,104,0.3125,0,1,2140000,,,6,5
33,104,0.6875,1,1,2140000,,,6,11
33,104,0.25,2,0,2140000,,,6,4
33,104,0.25,3,0,2140000,,,6,4
33,104,0.3125,4,0,2140000,,,6,5
52,104,0.125,5,1,2140000,,,6,2
33,104,0.125,6,1,2140000,,,6,2
42,104,0.125,7,1,2140000,,,6,2
42,104,0.625,8,0,2140000,,,6,10
61,104,0.4375,9,1,2140000,,,6,7
42,104,0.1875,10,1,2140000,,,6,3
61,104,0.9375,11,1,2140000,,,6,15
42,104,0.6875,0,1,2140001,,,6,11
61,104,0.75,1,1,2140001,,,6,12
61,104,0.5625,2,1,2140001,,,6,9
52,104,0.6875,3,1,2140001,,,6,11
52,104,0.875,4,0,2140001,,,6,14
52,104,0.4375,5,1,2140001,,,6,7
52,104,0.5625,0,1,2140002,,,6,9
59,104,0.5,1,1,2140002,,,6,8
59,104,0.25,2,0,2140002,,,6,4
66,104,0.125,0,1,2150000,,,6,2
52,104,0.4375,1,1,2150000,,,6,7
62,104,0.5,2,1,2150000,,,6,8
57,104,0.375,3,0,2150000,,,6,6
52,104,0.875,4,0,2150000,,,6,14
55,104,0.375,5,1,2150000,,,6,6
55,104,0.5,6,0,2150000,,,6,8
62,104,0.375,7,1,2150000,,,6,6
67,104,0.625,8,0,2150000,,,6,10
50,104,0.1875,0,1,2150001,,,6,3
38,104,0.375,1,1,2150001,,,6,6
50,104,0.25,2,1,2150001,,,6,4
38,104,0.625,3,1,2150001,,,6,10
62,104,0.3125,4,1,2150001,,,6,5
26,104,0.1875,5,1,2150001,,,6,3
54,104,0.6875,6,1,2150001,,,6,11
66,104,0.3125,7,1,2150001,,,6,5
66,104,0.1875,8,0,2150001,,,6,3
59,104,0.1875,9,1,2150001,,,6,3
64,104,0.375,10,0,2150001,,,6,6
52,104,0.875,11,1,2150001,,,6,14
53,104,0.125,0,1,2160000,,,6,2
52,104,0.4375,1,0,2160000,,,6,7
52,104,0.5,2,0,2160000,,,6,8
52,104,0.4375,3,0,2160000,,,6,7
52,104,0.4375,4,0,2160000,,,6,7
59,104,0.875,5,1,2160000,,,6,14
40,104,0.1875,6,1,2160000,,,6,3
59,104,0.25,7,1,2160000,,,6,4
40,104,0.1875,8,1,2160000,,,6,3
52,104,0.9375,9,1,2160000,,,6,15
52,104,0.4375,0,1,2160001,,,6,7
52,104,0.625,1,0,2160001,,,6,10
52,104,0.9375,2,0,2160001,,,6,15
52,104,0.9375,3,1,2160001,,,6,15
40,104,0.125,4,1,2160001,,,6,2
52,104,0.625,5,1,2160001,,,6,10
52,104,0.375,0,1,2160002,,,6,6
61,104,0.9375,0,1,2170000,,,6,15
57,104,0.25,1,1,2170000,,,6,4
59,104,0.1875,2,0,2170000,,,6,3
40,104,0.25,3,1,2170000,,,6,4
52,104,0.375,4,1,2170000,,,6,6
56,104,0.3125,5,0,2170000,,,6,5
56,104,0.25,6,0,2170000,,,6,4
40,104,0.375,7,1,2170000,,,6,6
68,104,0.25,8,1,2170000,,,6,4
57,104,0.25,9,1,2170000,,,6,4
61,104,0.1875,10,0,2170000,,,6,3
57,104,0.4375,11,0,2170000,,,6,7
61,104,0.4375,0,1,2170001,,,6,7
57,104,0.5,1,0,2170001,,,6,8
61,104,0.375,2,0,2170001,,,6,6
59,104,0.125,3,0,2170001,,,6,2
33,104,0.4375,4,1,2170001,,,6,7
33,104,0.25,5,0,2170001,,,6,4
61,104,0.25,6,1,2170001,,,6,4
33,104,0.1875,7,1,2170001,,,6,3
61,104,0.9375,8,1,2170001,,,6,15
50,104,0.5625,9,1,2170001,,,6,9
50,104,0.0,0,1,2170002,,,6,0
34,104,0.8125,0,1,2180000,,,6,13
58,104,0.1875,1,1,2180000,,,6,3
34,104,0.25,2,1,2180000,,,6,4
34,104,0.9375,3,0,2180000,,,6,15
34,104,0.6875,4,1,2180000,,,6,11
58,104,0.1875,5,1,2180000,,,6,3
56,104,0.125,6,0,2180000,,,6,2
39,104,0.125,7,1,2180000,,,6,2
39,104,0.3125,8,0,2180000,,,6,5
39,104,0.375,9,0,2180000,,,6,6
39,104,0.375,0,1,2180001,,,6,6
39,104,0.375,1,0,2180001,,,6,6
58,104,0.125,2,1,2180001,,,6,2
39,104,0.125,3,1,2180001,,,6,2
58,104,0.8125,4,1,2180001,,,6,13
58,104,0.4375,5,1,2180001,,,6,7
58,104,0.875,6,0,2180001,,,6,14
51,104,0.0625,7,1,2180001,,,6,1
57,104,0.9375,0,1,2190000,,,6,15
57,104,0.5625,1,1,2190000,,,6,9
53,104,0.9375,2,0,2190000,,,6,15
53,104,0.25,3,1,2190000,,,6,4
53,104,0.1875,4,0,2190000,,,6,3
57,104,0.9375,5,0,2190000,,,6,15
40,104,0.8125,6,1,2190000,,,6,13
52,104,0.9375,0,1,2190001,,,6,15
47,104,0.9375,1,1,2190001,,,6,15
50,104,0.875,2,1,2190001,,,6,14
55,104,0.9375,3,1,2190001,,,6,15
55,104,0.4375,0,1,2190002,,,6,7
48,104,0.9375,1,1,2190002,,,6,15
52,104,0.875,2,1,2190002,,,6,14
55,104,0.1875,3,1,2190002,,,6,3
60,104,0.1875,0,1,2200000,,,6,3
60,104,0.25,1,0,2200000,,,6,4
60,104,0.9375,2,0,2200000,,,6,15
55,104,0.1875,3,1,2200000,,,6,3
60,104,0.1875,4,0,2200000,,,6,3
50,104,0.4375,5,1,2200000,,,6,7
50,104,0.1875,6,0,2200000,,,6,3
50,104,0.25,7,0,2200000,,,6,4
57,104,0.1875,8,1,2200000,,,6,3
50,104,0.375,9,1,2200000,,,6,6
57,104,0.5,10,1,2200000,,,6,8
62,104,0.3125,11,0,2200000,,,6,5
62,104,0.625,0,1,2200001,,,6,10
50,104,0.25,1,1,2200001,,,6,4
38,104,0.1875,2,1,2200001,,,6,3
57,104,0.75,3,1,2200001,,,6,12
57,104,0.25,4,1,2200001,,,6,4
38,104,0.3125,5,1,2200001,,,6,5
62,104,0.9375,6,1,2200001,,,6,15
50,104,0.125,7,1,2200001,,,6,2
62,104,0.1875,8,1,2200001,,,6,3
59,104,0.25,9,0,2200001,,,6,4
62,104,0.5625,10,0,2200001,,,6,9
55,104,0.75,0,1,2200002,,,6,12
59,104,0.1875,1,1,2200002,,,6,3
56,104,0.125,0,1,2210000,,,6,2
50,104,0.25,1,0,2210000,,,6,4
26,104,0.1875,2,1,2210000,,,6,3
38,104,0.5,3,1,2210000,,,6,8
38,104,0.1875,4,0,2210000,,,6,3
38,104,0.25,5,0,2210000,,,6,4
57,104,0.3125,6,1,2210000,,,6,5
38,104,0.25,7,1,2210000,,,6,4
57,104,0.1875,8,1,2210000,,,6,3
57,104,0.25,9,0,2210000,,,6,4
43,104,0.9375,10,1,2210000,,,6,15
55,104,0.25,11,1,2210000,,,6,4
55,104,0.5,12,0,2210000,,,6,8
31,104,0.4375,0,1,2210001,,,6,7
31,104,0.1875,1,0,2210001,,,6,3
43,104,0.125,2,1,2210001,,,6,2
43,104,0.375,3,0,2210001,,,6,6
31,104,0.9375,4,1,2210001,,,6,15
43,104,0.25,5,1,2210001,,,6,4
55,104,0.25,6,1,2210001,,,6,4
55,104,0.3125,7,0,2210001,,,6,5
31,104,0.625,8,1,2210001,,,6,10
31,104,0.1875,9,0,2210001,,,6,3
50,104,0.9375,0,1,2220000,,,6,15
64,104,0.9375,1,1,2220000,,,6,15
40,104,0.625,2,1,2220000,,,6,10
52,104,0.1875,3,1,2220000,,,6,3
64,104,0.1875,4,1,2220000,,,6,3
59,104,0.125,5,0,2220000,,,6,2
40,104,0.1875,6,1,2220000,,,6,3
45,104,0.3125,7,0,2220000,,,6,5
45,104,0.25,8,0,2220000,,,6,4
33,104,0.1875,9,1,2220000,,,6,3
59,104,0.9375,10,1,2220000,,,6,15
40,104,0.3125,0,1,2220001,,,6,5
57,104,0.25,1,1,2220001,,,6,4
61,104,0.4375,2,0,2220001,,,6,7
52,104,0.4375,3,1,2220001,,,6,7
56,104,0.1875,4,0,2220001,,,6,3
57,104,0.9375,5,0,2220001,,,6,15
57,104,0.125,6,1,2220001,,,6,2
62,104,0.5,7,0,2220001,,,6,8
54,104,0.625,0,1,2230000,,,6,10
62,104,0.75,1,1,2230000,,,6,12
55,104,0.9375,2,1,2230000,,,6,15
43,104,0.1875,3,1,2230000,,,6,3
62,104,0.3125,4,1,2230000,,,6,5
62,104,0.125,5,0,2230000,,,6,2
50,104,0.4375,6,1,2230000,,,6,7
62,104,0.9375,7,1,2230000,,,6,15
57,104,0.25,0,1,2230001,,,6,4
38,104,0.9375,1,1,2230001,,,6,15
62,104,0.875,2,1,2230001,,,6,14
50,104,0.5,0,1,2240000,,,6,8
52,104,0.6875,1,0,2240000,,,6,11
62,104,0.75,2,1,2240000,,,6,12
62,104,0.9375,3,1,2240000,,,6,15
38,104,0.4375,4,1,2240000,,,6,7
40,104,0.5625,5,0,2240000,,,6,9
52,104,0.3125,6,1,2240000,,,6,5
50,104,0.125,0,1,2240001,,,6,2
58,104,0.125,0,1,2250000,,,6,2
63,104,0.25,1,0,2250000,,,6,4
63,104,0.5,2,0,2250000,,,6,8
53,104,0.125,3,1,2250000,,,6,2
53,104,0.5,4,0,2250000,,,6,8
50,104,0.125,5,0,2250000,,,6,2
50,104,0.1875,6,0,2250000,,,6,3
58,104,0.6875,7,1,2250000,,,6,11
58,104,0.25,8,0,2250000,,,6,4
53,104,0.125,9,0,2250000,,,6,2
48,104,0.4375,10,0,2250000,,,6,7
63,104,0.6875,11,1,2250000,,,6,11
67,104,0.4375,0,1,2250001,,,6,7
50,104,0.875,0,1,2260000,,,6,14
50,104,0.6875,1,1,2260000,,,6,11
62,104,0.1875,2,1,2260000,,,6,3
50,104,0.25,3,1,2260000,,,6,4
62,104,0.4375,4,1,2260000,,,6,7
31,104,0.8125,5,1,2260000,,,6,13
62,104,0.1875,6,1,2260000,,,6,3
67,104,0.9375,7,0,2260000,,,6,15
67,104,0.9375,0,1,2260001,,,6,15
60,104,0.1875,1,1,2260001,,,6,3
48,104,0.25,2,1,2260001,,,6,4
48,104,0.1875,3,0,2260001,,,6,3
48,104,0.1875,4,0,2260001,,,6,3
55,104,0.375,5,1,2260001,,,6,6
55,104,0.1875,6,0,2260001,,,6,3
48,104,0.5,7,1,2260001,,,6,8
67,104,0.1875,8,1,2260001,,,6,3
67,104,0.4375,9,0,2260001,,,6,7
67,104,0.4375,10,0,2260001,,,6,7
38,104,0.375,0,1,2270000,,,6,6
38,104,0.5625,1,0,2270000,,,6,9
26,104,0.25,2,1,2270000,,,6,4
38,104,0.5,3,1,2270000,,,6,8
50,104,0.25,4,1,2270000,,,6,4
28,104,0.1875,5,1,2270000,,,6,3
52,104,0.5,6,1,2270000,,,6,8
49,104,0.375,0,1,2280000,,,6,6
50,104,0.5,1,0,2280000,,,6,8
38,104,0.1875,2,1,2280000,,,6,3
50,104,0.3125,3,1,2280000,,,6,5
64,104,0.3125,4,1,2280000,,,6,5
64,104,0.1875,5,0,2280000,,,6,3
52,104,0.25,6,1,2280000,,,6,4
52,104,0.1875,7,0,2280000,,,6,3
57,104,0.5,8,0,2280000,,,6,8
45,104,0.625,9,1,2280000,,,6,10
56,104,0.25,10,1,2280000,,,6,4
49,104,0.375,11,1,2280000,,,6,6
54,104,0.3125,0,1,2280001,,,6,5
66,104,0.1875,1,1,2280001,,,6,3
54,104,0.125,2,1,2280001,,,6,2
60,104,0.875,0,1,2290000,,,6,14
53,104,0.25,1,1,2290000,,,6,4
65,104,0.25,2,1,2290000,,,6,4
53,104,0.25,3,1,2290000,,,6,4
65,104,0.875,4,1,2290000,,,6,14
65,104,0.1875,5,1,2290000,,,6,3
65,104,0.9375,6,0,2290000,,,6,15
65,104,0.25,7,1,2290000,,,6,4
53,104,0.3125,8,1,2290000,,,6,5
41,104,0.1875,0,1,2290001,,,6,3
53,104,0.9375,1,1,2290001,,,6,15
53,104,0.25,2,1,2290001,,,6,4
41,104,0.6875,3,1,2290001,,,6,11
53,104,0.3125,4,1,2290001,,,6,5
41,104,0.4375,5,1,2290001,,,6,7
53,104,0.9375,6,1,2290001,,,6,15
41,104,0.9375,7,1,2290001,,,6,15
41,104,0.9375,0,1,2290002,,,6,15
59,104,0.25,0,1,2300000,,,6,4
52,104,0.9375,1,1,2300000,,,6,15
59,104,0.3125,2,1,2300000,,,6,5
59,104,0.1875,3,0,2300000,,,6,3
59,104,0.875,4,0,2300000,,,6,14
54,104,0.1875,5,1,2300000,,,6,3
47,104,0.625,6,1,2300000,,,6,10
47,104,0.375,7,0,2300000,,,6,6
47,104,0.375,8,0,2300000,,,6,6
59,104,0.25,0,1,2300001,,,6,4
52,104,0.3125,1,1,2300001,,,6,5
59,104,0.5625,2,1,2300001,,,6,9
52,104,0.3125,3,1,2300001,,,6,5
52,104,0.5,4,0,2300001,,,6,8
52,104,0.5,5,0,2300001,,,6,8
52,104,0.25,6,0,2300001,,,6,4
52,104,0.9375,7,0,2300001,,,6,15
52,104,0.875,0,1,2310000,,,6,14
40,104,0.1875,1,1,2310000,,,6,3
61,104,0.1875,2,1,2310000,,,6,3
61,104,0.375,3,0,2310000,,,6,6
64,104,0.1875,4,0,2310000,,,6,3
61,104,0.25,5,0,2310000,,,6,4
64,104,0.1875,6,0,2310000,,,6,3
61,104,0.4375,7,0,2310000,,,6,7
64,104,0.25,8,0,2310000,,,6,4
57,104,0.4375,9,1,2310000,,,6,7
57,104,0.125,10,0,2310000,,,6,2
33,104,0.25,11,1,2310000,,,6,4
61,104,0.3125,12,1,2310000,,,6,5
52,104,0.25,0,1,2310001,,,6,4
35,104,0.75,1,1,2310001,,,6,12
59,104,0.8125,2,1,2310001,,,6,13
59,104,0.1875,3,1,2310001,,,6,3
63,104,0.25,4,0,2310001,,,6,4
35,104,0.1875,5,1,2310001,,,6,3
35,104,0.25,6,0,2310001,,,6,4
26,104,0.125,0,1,2320000,,,6,2
38,104,0.25,1,1,2320000,,,6,4
38,104,0.5625,2,0,2320000,,,6,9
26,104,0.1875,3,1,2320000,,,6,3
38,104,0.6875,4,1,2320000,,,6,11
38,104,0.375,5,0,2320000,,,6,6
50,104,0.1875,6,1,2320000,,,6,3
38,104,0.625,7,1,2320000,,,6,10
50,104,0.375,8,1,2320000,,,6,6
26,104,0.1875,9,1,2320000,,,6,3
38,104,0.3125,10,1,2320000,,,6,5
38,104,0.3125,11,0,2320000,,,6,5
38,104,0.625,0,1,2320001,,,6,10
38,104,0.4375,1,0,2320001,,,6,7
38,104,0.25,2,0,2320001,,,6,4
38,104,0.1875,3,0,2320001,,,6,3
38,104,0.625,4,0,2320001,,,6,10
57,104,0.375,5,1,2320001,,,6,6
54,104,0.1875,6,0,2320001,,,6,3
68,104,0.1875,0,1,2330000,,,6,3
68,104,0.3125,1,0,2330000,,,6,5
68,104,0.3125,2,0,2330000,,,6,5
68,104,0.1875,3,0,2330000,,,6,3
59,104,0.5625,4,1,2330000,,,6,9
40,104,0.375,5,1,2330000,,,6,6
68,104,0.1875,6,1,2330000,,,6,3
61,104,0.5,7,1,2330000,,,6,8
68,104,0.1875,8,1,2330000,,,6,3
61,104,0.3125,9,1,2330000,,,6,5
64,104,0.375,10,0,2330000,,,6,6
61,104,0.75,11,0,2330000,,,6,12
61,104,0.9375,0,1,2330001,,,6,15
49,104,0.625,1,1,2330001,,,6,10
64,104,0.75,2,1,2330001,,,6,12
50,104,0.9375,3,1,2330001,,,6,15
38,104,0.9375,4,1,2330001,,,6,15
57,104,0.25,0,1,2330002,,,6,4
52,104,0.125,1,0,2330002,,,6,2
52,104,0.125,2,0,2330002,,,6,2
40,104,0.9375,3,1,2330002,,,6,15
32,104,0.4375,0,1,2340000,,,6,7
32,104,0.4375,1,0,2340000,,,6,7
44,104,0.4375,2,1,2340000,,,6,7
32,104,0.875,3,1,2340000,,,6,14
32,104,0.25,4,1,2340000,,,6,4
34,104,0.1875,5,0,2340000,,,6,3
46,104,0.1875,6,1,2340000,,,6,3
46,104,0.375,7,0,2340000,,,6,6
34,104,0.25,8,1,2340000,,,6,4
46,104,0.125,9,1,2340000,,,6,2
34,104,0.25,10,1,2340000,,,6,4
34,104,0.1875,11,0,2340000,,,6,3
43,104,0.3125,0,1,2340001,,,6,5
54,104,0.5625,0,1,2350000,,,6,9
57,104,0.375,1,0,2350000,,,6,6
49,104,0.8125,2,1,2350000,,,6,13
49,104,0.375,3,1,2350000,,,6,6
59,104,0.375,4,1,2350000,,,6,6
49,104,0.25,5,1,2350000,,,6,4
59,104,0.6875,6,1,2350000,,,6,11
49,104,0.375,7,1,2350000,,,6,6
59,104,0.9375,8,1,2350000,,,6,15
50,104,0.8125,0,1,2350001,,,6,13
50,104,0.4375,1,1,2350001,,,6,7
61,104,0.5,2,1,2350001,,,6,8
57,104,0.375,3,0,2350001,,,6,6
57,104,0.3125,4,0,2350001,,,6,5
52,104,0.875,5,0,2350001,,,6,14
59,104,0.1875,0,1,2350002,,,6,3
40,104,0.3125,1,1,2350002,,,6,5
40,104,0.4375,2,0,2350002,,,6,7
52,104,0.25,3,1,2350002,,,6,4
41,104,0.0625,4,1,2350002,,,6,1
52,104,0.4375,0,1,2360000,,,6,7
45,104,0.4375,1,1,2360000,,,6,7
45,104,0.1875,2,0,2360000,,,6,3
45,104,0.5625,3,0,2360000,,,6,9
47,104,0.6875,4,0,2360000,,,6,11
59,104,0.375,5,1,2360000,,,6,6
47,104,0.875,6,1,2360000,,,6,14
59,104,0.1875,7,1,2360000,,,6,3
47,104,0.6875,8,1,2360000,,,6,11
52,104,0.9375,0,1,2360001,,,6,15
45,104,0.625,1,1,2360001,,,6,10
64,104,0.1875,2,1,2360001,,,6,3
64,104,0.3125,3,0,2360001,,,6,5
49,104,0.4375,4,1,2360001,,,6,7
64,104,0.5625,5,1,2360001,,,6,9
53,104,0.75,0,1,2370000,,,6,12
65,104,0.6875,1,1,2370000,,,6,11
70,104,0.25,2,0,2370000,,,6,4
46,104,0.125,3,1,2370000,,,6,2
46,104,0.9375,4,0,2370000,,,6,15
53,104,0.375,5,1,2370000,,,6,6
46,104,0.4375,6,1,2370000,,,6,7
46,104,0.4375,7,0,2370000,,,6,7
46,104,0.9375,0,1,2370001,,,6,15
58,104,0.3125,0,1,2380000,,,6,5
53,104,0.1875,1,0,2380000,,,6,3
46,104,0.1875,2,1,2380000,,,6,3
34,104,0.25,3,1,2380000,,,6,4
34,104,0.25,4,0,2380000,,,6,4
46,104,0.4375,5,1,2380000,,,6,7
53,104,0.1875,6,1,2380000,,,6,3
34,104,0.1875,7,1,2380000,,,6,3
46,104,0.25,8,1,2380000,,,6,4
34,104,0.3125,9,1,2380000,,,6,5
53,104,0.1875,10,1,2380000,,,6,3
50,104,0.125,0,1,2390000,,,6,2
50,104,0.125,1,0,2390000,,,6,2
53,104,0.25,2,0,2390000,,,6,4
53,104,0.1875,3,0,2390000,,,6,3
64,104,0.5,4,1,2390000,,,6,8
52,104,0.375,5,1,2390000,,,6,6
60,104,0.9375,6,1,2390000,,,6,15
55,104,0.25,7,1,2390000,,,6,4
55,104,0.9375,8,0,2390000,,,6,15
55,104,0.25,9,1,2390000,,,6,4
55,104,0.375,10,0,2390000,,,6,6
52,104,0.125,0,1,2390001,,,6,2
56,104,0.375,0,1,2400000,,,6,6
49,104,0.25,1,1,2400000,,,6,4
49,104,0.1875,2,0,2400000,,,6,3
49,104,0.1875,3,0,2400000,,,6,3
61,104,0.6875,4,1,2400000,,,6,11
61,104,0.1875,5,0,2400000,,,6,3
44,104,0.9375,6,1,2400000,,,6,15
56,104,0.375,7,1,2400000,,,6,6
51,104,0.1875,8,0,2400000,,,6,3
51,104,0.25,9,0,2400000,,,6,4
56,104,0.5625,10,0,2400000,,,6,9
60,104,0.1875,0,1,2400001,,,6,3
51,104,0.25,1,1,2400001,,,6,4
56,104,0.625,2,0,2400001,,,6,10
56,104,0.25,3,0,2400001,,,6,4
56,104,0.375,4,0,2400001,,,6,6
51,104,0.75,5,0,2400001,,,6,12
51,104,0.3125,6,1,2400001,,,6,5
51,104,0.25,7,0,2400001,,,6,4
35,104,0.5,0,1,2410000,,,6,8
35,104,0.4375,1,0,2410000,,,6,7
47,104,0.5625,2,1,2410000,,,6,9
47,104,0.25,3,0,2410000,,,6,4
59,104,0.6875,4,1,2410000,,,6,11
47,104,0.25,5,1,2410000,,,6,4
47,104,0.75,6,0,2410000,,,6,12
47,104,0.375,7,1,2410000,,,6,6
40,104,0.3125,8,1,2410000,,,6,5
52,104,0.3125,0,1,2410001,,,6,5
40,104,0.5625,1,1,2410001,,,6,9
40,104,0.625,2,0,2410001,,,6,10
40,104,0.5625,3,0,2410001,,,6,9
40,104,0.9375,4,0,2410001,,,6,15
40,104,0.8125,5,1,2410001,,,6,13
57,104,0.6875,0,1,2420000,,,6,11
62,104,0.25,1,0,2420000,,,6,4
62,104,0.4375,2,0,2420000,,,6,7
57,104,0.3125,3,0,2420000,,,6,5
62,104,0.5,4,0,2420000,,,6,8
62,104,0.1875,5,0,2420000,,,6,3
50,104,0.3125,6,1,2420000,,,6,5
36,104,0.625,7,1,2420000,,,6,10
60,104,0.1875,8,1,2420000,,,6,3
60,104,0.3125,9,0,2420000,,,6,5
60,104,0.1875,10,0,2420000,,,6,3
64,104,0.1875,0,1,2420001,,,6,3
64,104,0.25,1,0,2420001,,,6,4
47,104,0.375,0,1,2430000,,,6,6
59,104,0.4375,1,1,2430000,,,6,7
35,104,0.375,2,1,2430000,,,6,6
59,104,0.3125,3,1,2430000,,,6,5
59,104,0.5625,4,0,2430000,,,6,9
47,104,0.4375,5,1,2430000,,,6,7
47,104,0.5,6,0,2430000,,,6,8
47,104,0.3125,7,0,2430000,,,6,5
71,104,0.1875,8,1,2430000,,,6,3
47,104,0.9375,9,1,2430000,,,6,15
47,104,0.4375,0,1,2430001,,,6,7
40,104,0.625,1,1,2430001,,,6,10
40,104,0.25,2,0,2430001,,,6,4
40,104,0.25,3,0,2430001,,,6,4
52,104,0.1875,4,1,2430001,,,6,3
40,104,0.25,5,1,2430001,,,6,4
40,104,0.4375,6,0,2430001,,,6,7
52,104,0.5,7,1,2430001,,,6,8
59,104,0.1875,8,1,2430001,,,6,3
59,104,0.4375,9,0,2430001,,,6,7
59,104,0.3125,0,1,2430002,,,6,5
59,104,0.0625,1,0,2430002,,,6,1
40,104,0.25,0,1,2440000,,,6,4
52,104,0.375,1,1,2440000,,,6,6
56,104,0.3125,2,0,2440000,,,6,5
56,104,0.25,3,0,2440000,,,6,4
40,104,0.375,4,1,2440000,,,6,6
68,104,0.25,5,1,2440000,,,6,4
57,104,0.25,6,1,2440000,,,6,4
61,104,0.1875,7,0,2440000,,,6,3
57,104,0.4375,8,0,2440000,,,6,7
61,104,0.4375,9,0,2440000,,,6,7
57,104,0.5,10,0,2440000,,,6,8
61,104,0.375,11,0,2440000,,,6,6
59,104,0.125,0,1,2440001,,,6,2
33,104,0.4375,1,1,2440001,,,6,7
33,104,0.25,2,0,2440001,,,6,4
61,104,0.25,3,1,2440001,,,6,4
33,104,0.1875,4,1,2440001,,,6,3
61,104,0.9375,5,1,2440001,,,6,15
50,104,0.5625,6,1,2440001,,,6,9
50,104,0.75,7,0,2440001,,,6,12
59,104,0.1875,8,1,2440001,,,6,3
50,104,0.25,9,1,2440001,,,6,4
40,104,0.3125,10,1,2440001,,,6,5
40,104,0.1875,0,1,2440002,,,6,3
56,104,0.3125,1,1,2440002,,,6,5
64,104,0.1875,2,1,2440002,,,6,3
50,104,0.75,0,1,2450000,,,6,12
38,104,0.8125,1,1,2450000,,,6,13
59,104,0.5625,2,1,2450000,,,6,9
49,104,0.9375,3,1,2450000,,,6,15
42,104,0.1875,4,1,2450000,,,6,3
49,104,0.125,5,1,2450000,,,6,2
57,104,0.375,6,1,2450000,,,6,6
42,104,0.25,7,1,2450000,,,6,4
47,104,0.8125,0,1,2450001,,,6,13
62,104,0.5,1,1,2450001,,,6,8
42,104,0.1875,2,1,2450001,,,6,3
57,104,0.875,3,1,2450001,,,6,14
47,104,0.125,4,1,2450001,,,6,2
36,104,0.9375,0,1,2460000,,,6,15
36,104,0.25,1,1,2460000,,,6,4
36,104,0.9375,2,0,2460000,,,6,15
24,104,0.125,3,1,2460000,,,6,2
36,104,0.5,4,1,2460000,,,6,8
36,104,0.6875,5,0,2460000,,,6,11
36,104,0.3125,6,0,2460000,,,6,5
31,104,0.5,7,0,2460000,,,6,8
31,104,0.1875,0,1,2460001,,,6,3
55,104,0.375,1,1,2460001,,,6,6
43,104,0.125,2,1,2460001,,,6,2
43,104,0.4375,3,0,2460001,,,6,7
52,104,0.9375,4,1,2460001,,,6,15
52,104,0.375,5,1,2460001,,,6,6
52,104,0.25,6,0,2460001,,,6,4
48,104,0.3125,0,1,2470000,,,6,5
55,104,0.75,1,1,2470000,,,6,12
48,104,0.9375,2,1,2470000,,,6,15
55,104,0.5625,3,1,2470000,,,6,9
55,104,0.5,4,0,2470000,,,6,8
57,104,0.25,5,0,2470000,,,6,4
50,104,0.9375,6,1,2470000,,,6,15
50,104,0.9375,0,1,2470001,,,6,15
50,104,0.3125,1,1,2470001,,,6,5
50,104,0.25,2,0,2470001,,,6,4
48,104,0.875,3,0,2470001,,,6,14
48,104,0.8125,4,1,2470001,,,6,13
60,104,0.1875,0,1,2480000,,,6,3
43,104,0.5,1,1,2480000,,,6,8
55,104,0.25,2,1,2480000,,,6,4
50,104,0.25,3,0,2480000,,,6,4
62,104,0.9375,4,1,2480000,,,6,15
57,104,0.25,5,1,2480000,,,6,4
45,104,0.5,6,1,2480000,,,6,8
33,104,0.25,7,1,2480000,,,6,4
57,104,0.5625,8,1,2480000,,,6,9
60,104,0.1875,9,0,2480000,,,6,3
57,104,0.1875,10,0,2480000,,,6,3
57,104,0.3125,0,1,2480001,,,6,5
62,104,0.5,1,0,2480001,,,6,8
29,104,0.9375,2,1,2480001,,,6,15
53,104,0.125,3,1,2480001,,,6,2
58,104,0.8125,0,1,2490000,,,6,13
58,104,0.375,1,1,2490000,,,6,6
53,104,0.375,2,0,2490000,,,6,6
48,104,0.9375,3,0,2490000,,,6,15
29,104,0.5,4,1,2490000,,,6,8
48,104,0.9375,5,1,2490000,,,6,15
29,104,0.1875,6,1,2490000,,,6,3
53,104,0.375,0,1,2490001,,,6,6
60,104,0.375,1,1,2490001,,,6,6
60,104,0.25,2,0,2490001,,,6,4
40,104,0.3125,0,1,2500000,,,6,5
64,104,0.5,1,1,2500000,,,6,8
52,104,0.5625,2,1,2500000,,,6,9
35,104,0.375,3,1,2500000,,,6,6
59,104,0.8125,4,1,2500000,,,6,13
54,104,0.375,5,1,2500000,,,6,6
45,104,0.8125,6,1,2500000,,,6,13
61,104,0.25,7,1,2500000,,,6,4
45,104,0.1875,0,1,2500001,,,6,3
52,104,0.3125,1,1,2500001,,,6,5
49,104,0.25,2,0,2500001,,,6,4
61,104,0.3125,3,1,2500001,,,6,5
49,104,0.25,4,1,2500001,,,6,4
68,104,0.125,5,1,2500001,,,6,2
49,104,0.1875,6,1,2500001,,,6,3
62,104,0.9375,0,1,2510000,,,6,15
53,104,0.1875,1,1,2510000,,,6,3
51,104,0.25,2,0,2510000,,,6,4
32,104,0.1875,3,1,2510000,,,6,3
34,104,0.375,4,0,2510000,,,6,6
34,104,0.25,5,0,2510000,,,6,4
34,104,0.625,6,0,2510000,,,6,10
34,104,0.1875,7,0,2510000,,,6,3
53,104,0.3125,8,1,2510000,,,6,5
56,104,0.1875,9,0,2510000,,,6,3
39,104,0.25,10,1,2510000,,,6,4
51,104,0.4375,11,1,2510000,,,6,7
34,104,0.625,0,1,2510001,,,6,10
34,104,0.125,1,0,2510001,,,6,2
53,104,0.25,2,1,2510001,,,6,4
34,104,0.3125,3,1,2510001,,,6,5
62,104,0.1875,4,1,2510001,,,6,3
55,104,0.125,5,1,2510001,,,6,2
55,104,0.375,0,1,2520000,,,6,6
53,104,0.125,1,0,2520000,,,6,2
55,104,0.25,2,0,2520000,,,6,4
55,104,0.25,3,0,2520000,,,6,4
55,104,0.3125,4,0,2520000,,,6,5
62,104,0.125,5,1,2520000,,,6,2
62,104,0.625,6,0,2520000,,,6,10
55,104,0.9375,7,1,2520000,,,6,15
52,104,0.75,8,1,2520000,,,6,12
52,104,0.1875,9,1,2520000,,,6,3
40,104,0.25,10,1,2520000,,,6,4
53,104,0.1875,0,1,2520001,,,6,3
60,104,0.25,1,1,2520001,,,6,4
29,104,0.3125,2,1,2520001,,,6,5
67,104,0.875,3,1,2520001,,,6,14
53,104,0.3125,4,1,2520001,,,6,5
57,104,0.9375,0,1,2530000,,,6,15
38,104,0.375,1,1,2530000,,,6,6
57,104,0.625,2,1,2530000,,,6,10
57,104,0.375,3,0,2530000,,,6,6
50,104,0.3125,4,1,2530000,,,6,5
59,104,0.9375,5,1,2530000,,,6,15
61,104,0.375,6,1,2530000,,,6,6
49,104,0.5,7,1,2530000,,,6,8
50,104,0.9375,0,1,2530001,,,6,15
50,104,0.6875,1,1,2530001,,,6,11
59,104,0.9375,2,1,2530001,,,6,15
69,104,0.125,3,1,2530001,,,6,2
62,104,0.1875,4,1,2530001,,,6,3
62,104,0.25,5,0,2530001,,,6,4
64,104,0.75,6,0,2530001,,,6,12
53,104,0.9375,0,1,2540000,,,6,15
41,104,0.625,1,1,2540000,,,6,10
60,104,0.9375,2,1,2540000,,,6,15
41,104,0.375,3,1,2540000,,,6,6
41,104,0.1875,4,0,2540000,,,6,3
41,104,0.9375,5,0,2540000,,,6,15
41,104,0.5,0,1,2540001,,,6,8
60,104,0.625,1,1,2540001,,,6,10
46,104,0.9375,2,1,2540001,,,6,15
46,104,0.9375,3,1,2540001,,,6,15
55,104,0.9375,0,1,2550000,,,6,15
55,104,0.9375,1,1,2550000,,,6,15
55,104,0.1875,2,1,2550000,,,6,3
55,104,0.75,3,0,2550000,,,6,12
43,104,0.5625,4,1,2550000,,,6,9
55,104,0.9375,5,1,2550000,,,6,15
62,104,0.3125,0,1,2550001,,,6,5
55,104,0.3125,1,1,2550001,,,6,5
62,104,0.1875,2,1,2550001,,,6,3
55,104,0.375,3,1,2550001,,,6,6
55,104,0.4375,4,0,2550001,,,6,7
55,104,0.6875,5,0,2550001,,,6,11
55,104,0.75,6,0,2550001,,,6,12
55,104,0.8125,7,1,2550001,,,6,13
55,104,0.25,0,1,2550002,,,6,4
67,104,0.1875,1,1,2550002,,,6,3
52,104,0.125,2,1,2550002,,,6,2
38,104,0.25,0,1,2560000,,,6,4
57,104,0.1875,1,1,2560000,,,6,3
38,104,0.5,2,1,2560000,,,6,8
57,104,0.125,3,1,2560000,,,6,2
57,104,0.25,4,0,2560000,,,6,4
59,104,0.6875,5,0,2560000,,,6,11
61,104,0.1875,6,0,2560000,,,6,3
59,104,0.5625,7,0,2560000,,,6,9
57,104,0.375,8,0,2560000,,,6,6
54,104,0.125,9,0,2560000,,,6,2
54,104,0.25,10,0,2560000,,,6,4
57,104,0.1875,11,0,2560000,,,6,3
54,104,0.1875,12,0,2560000,,,6,3
54,104,0.1875,13,0,2560000,,,6,3
57,104,0.25,0,1,2560001,,,6,4
38,104,0.9375,1,1,2560001,,,6,15
38,104,0.625,2,1,2560001,,,6,10
54,104,0.375,0,1,2570000,,,6,6
54,104,0.9375,1,0,2570000,,,6,15
66,104,0.375,2,1,2570000,,,6,6
59,104,0.5,3,1,2570000,,,6,8
59,104,0.1875,4,0,2570000,,,6,3
59,104,0.125,5,0,2570000,,,6,2
47,104,0.375,6,1,2570000,,,6,6
47,104,0.1875,7,0,2570000,,,6,3
52,104,0.75,8,0,2570000,,,6,12
54,104,0.1875,9,1,2570000,,,6,3
52,104,0.25,0,1,2570001,,,6,4
57,104,0.125,1,0,2570001,,,6,2
57,104,0.8125,2,0,2570001,,,6,13
45,104,0.25,3,1,2570001,,,6,4
61,104,0.25,4,1,2570001,,,6,4
59,104,0.25,5,0,2570001,,,6,4
59,104,0.25,6,0,2570001,,,6,4
59,104,0.1875,7,0,2570001,,,6,3
44,104,0.25,0,1,2580000,,,6,4
44,104,0.1875,1,0,2580000,,,6,3
63,104,0.25,2,1,2580000,,,6,4
63,104,0.5,3,0,2580000,,,6,8
56,104,0.1875,4,1,2580000,,,6,3
56,104,0.25,5,0,2580000,,,6,4
51,104,0.5,6,0,2580000,,,6,8
44,104,0.25,7,1,2580000,,,6,4
34,104,0.1875,8,1,2580000,,,6,3
53,104,0.3125,9,1,2580000,,,6,5
54,104,0.125,10,0,2580000,,,6,2
67,104,0.1875,0,1,2590000,,,6,3
55,104,0.625,1,1,2590000,,,6,10
60,104,0.9375,2,0,2590000,,,6,15
60,104,0.9375,3,1,2590000,,,6,15
67,104,0.1875,4,1,2590000,,,6,3
67,104,0.1875,5,0,2590000,,,6,3
55,104,0.1875,6,1,2590000,,,6,3
55,104,0.1875,7,0,2590000,,,6,3
55,104,0.9375,8,0,2590000,,,6,15
55,104,0.9375,0,1,2590001,,,6,15
55,104,0.9375,0,1,2600000,,,6,15
55,104,0.9375,1,1,2600000,,,6,15
55,104,0.1875,2,1,2600000,,,6,3
55,104,0.75,3,0,2600000,,,6,12
43,104,0.5625,4,1,2600000,,,6,9
55,104,0.9375,5,1,2600000,,,6,15
62,104,0.3125,0,1,2600001,,,6,5
55,104,0.3125,1,1,2600001,,,6,5
62,104,0.1875,2,1,2600001,,,6,3
55,104,0.375,3,1,2600001,,,6,6
55,104,0.4375,4,0,2600001,,,6,7
55,104,0.6875,5,0,2600001,,,6,11
55,104,0.75,6,0,2600001,,,6,12
55,104,0.8125,7,1,2600001,,,6,13
55,104,0.25,0,1,2600002,,,6,4
67,104,0.1875,1,1,2600002,,,6,3
52,104,0.125,2,1,2600002,,,6,2
49,104,0.9375,0,1,2610000,,,6,15
49,104,0.9375,1,1,2610000,,,6,15
45,104,0.5,2,1,2610000,,,6,8
45,104,0.5,3,0,2610000,,,6,8
45,104,0.4375,4,0,2610000,,,6,7
45,104,0.9375,5,0,2610000,,,6,15
45,104,0.5,0,1,2610001,,,6,8
45,104,0.5,1,0,2610001,,,6,8
45,104,0.5,2,0,2610001,,,6,8
47,104,0.9375,3,0,2610001,,,6,15
47,104,0.9375,4,1,2610001,,,6,15
47,104,0.4375,5,1,2610001,,,6,7
47,104,0.5625,0,1,2610002,,,6,9
52,104,0.5,1,0,2610002,,,6,8
52,104,0.5625,2,0,2610002,,,6,9
35,104,0.1875,0,1,2620000,,,6,3
35,104,0.1875,1,0,2620000,,,6,3
59,104,0.125,2,1,2620000,,,6,2
59,104,0.5625,3,0,2620000,,,6,9
64,104,0.375,4,0,2620000,,,6,6
59,104,0.5,5,0,2620000,,,6,8
52,104,0.3125,6,1,2620000,,,6,5
64,104,0.1875,7,1,2620000,,,6,3
40,104,0.25,8,1,2620000,,,6,4
40,104,0.4375,9,0,2620000,,,6,7
33,104,0.5625,10,1,2620000,,,6,9
59,104,0.375,11,1,2620000,,,6,6
52,104,0.375,0,1,2620001,,,6,6
50,104,0.25,0,1,2630000,,,6,4
38,104,0.1875,1,1,2630000,,,6,3
50,104,0.25,2,1,2630000,,,6,4
50,104,0.25,3,0,2630000,,,6,4
62,104,0.9375,4,1,2630000,,,6,15
56,104,0.9375,5,1,2630000,,,6,15
68,104,0.25,6,1,2630000,,,6,4
59,104,0.1875,7,1,2630000,,,6,3
68,104,0.25,8,1,2630000,,,6,4
52,104,0.1875,9,1,2630000,,,6,3
52,104,0.125,10,0,2630000,,,6,2
64,104,0.125,11,1,2630000,,,6,2
61,104,0.375,12,0,2630000,,,6,6
61,104,0.3125,0,1,2630001,,,6,5
61,104,0.375,1,0,2630001,,,6,6
61,104,0.1875,2,0,2630001,,,6,3
33,104,0.5625,3,1,2630001,,,6,9
57,104,0.9375,4,1,2630001,,,6,15
57,104,0.1875,5,1,2630001,,,6,3
57,104,0.25,6,0,2630001,,,6,4
49,104,0.125,0,1,2640000,,,6,2
56,104,0.1875,1,1,2640000,,,6,3
51,104,0.25,2,0,2640000,,,6,4
32,104,0.1875,3,1,2640000,,,6,3
61,104,0.625,4,1,2640000,,,6,10
37,104,0.1875,5,1,2640000,,,6,3
49,104,0.1875,6,1,2640000,,,6,3
59,104,0.25,7,1,2640000,,,6,4
52,104,0.3125,8,1,2640000,,,6,5
52,104,0.4375,9,0,2640000,,,6,7
52,104,0.5625,10,0,2640000,,,6,9
49,104,0.5,11,0,2640000,,,6,8
56,104,0.5,12,1,2640000,,,6,8
52,104,0.1875,0,1,2640001,,,6,3
52,104,0.25,1,0,2640001,,,6,4
40,104,0.25,2,1,2640001,,,6,4
52,104,0.5,3,1,2640001,,,6,8
52,104,0.25,4,0,2640001,,,6,4
52,104,0.125,5,0,2640001,,,6,2
28,104,0.75,0,1,2650000,,,6,12
28,104,0.625,1,1,2650000,,,6,10
28,104,0.25,2,0,2650000,,,6,4
33,104,0.25,3,0,2650000,,,6,4
45,104,0.375,4,1,2650000,,,6,6
33,104,0.75,5,1,2650000,,,6,12
33,104,0.75,6,1,2650000,,,6,12
45,104,0.5625,7,1,2650000,,,6,9
28,104,0.625,0,1,2650001,,,6,10
47,104,0.1875,1,1,2650001,,,6,3
50,104,0.75,2,0,2650001,,,6,12
50,104,0.875,3,1,2650001,,,6,14
38,104,0.4375,4,1,2650001,,,6,7
50,104,0.625,5,1,2650001,,,6,10
28,104,0.6875,6,1,2650001,,,6,11
28,104,0.5625,0,1,2650002,,,6,9
60,104,0.9375,0,1,2660000,,,6,15
51,104,0.9375,1,1,2660000,,,6,15
39,104,0.25,2,1,2660000,,,6,4
51,104,0.875,3,1,2660000,,,6,14
51,104,0.25,4,1,2660000,,,6,4
63,104,0.1875,5,1,2660000,,,6,3
63,104,0.125,6,0,2660000,,,6,2
53,104,0.5,7,1,2660000,,,6,8
53,104,0.1875,0,1,2660001,,,6,3
53,104,0.8125,1,0,2660001,,,6,13
53,104,0.3125,2,1,2660001,,,6,5
60,104,0.75,3,1,2660001,,,6,12
60,104,0.5,4,1,2660001,,,6,8
53,104,0.3125,5,1,2660001,,,6,5
46,104,0.6875,6,1,2660001,,,6,11
58,104,0.375,7,1,2660001,,,6,6
58,104,0.25,0,1,2660002,,,6,4
53,104,0.9375,1,0,2660002,,,6,15
58,104,0.125,2,1,2660002,,,6,2
46,104,0.1875,3,1,2660002,,,6,3
65,104,0.5,4,1,2660002,,,6,8
62,104,0.1875,0,1,2670000,,,6,3
38,104,0.375,1,1,2670000,,,6,6
62,104,0.25,2,1,2670000,,,6,4
64,104,0.1875,3,0,2670000,,,6,3
65,104,0.375,4,0,2670000,,,6,6
53,104,0.1875,5,1,2670000,,,6,3
34,104,0.1875,6,1,2670000,,,6,3
46,104,0.5625,7,1,2670000,,,6,9
53,104,0.375,8,1,2670000,,,6,6
34,104,0.375,9,1,2670000,,,6,6
53,104,0.25,10,1,2670000,,,6,4
62,104,0.1875,11,1,2670000,,,6,3
65,104,0.5,12,0,2670000,,,6,8
53,104,0.625,0,1,2670001,,,6,10
58,104,0.25,1,0,2670001,,,6,4
65,104,0.375,2,1,2670001,,,6,6
48,104,0.1875,3,1,2670001,,,6,3
48,104,0.375,4,0,2670001,,,6,6
48,104,0.125,5,0,2670001,,,6,2
51,104,0.1875,0,1,2680000,,,6,3
51,104,0.4375,1,0,2680000,,,6,7
51,104,0.1875,2,0,2680000,,,6,3
48,104,0.8125,3,0,2680000,,,6,13
63,104,0.25,4,1,2680000,,,6,4
55,104,0.6875,5,1,2680000,,,6,11
55,104,0.125,6,0,2680000,,,6,2
53,104,0.0625,7,0,2680000,,,6,1
54,104,0.375,0,1,2690000,,,6,6
52,104,0.375,1,0,2690000,,,6,6
40,104,0.3125,2,1,2690000,,,6,5
68,104,0.25,3,1,2690000,,,6,4
54,104,0.1875,4,1,2690000,,,6,3
54,104,0.9375,5,0,2690000,,,6,15
54,104,0.3125,6,1,2690000,,,6,5
54,104,0.1875,7,0,2690000,,,6,3
54,104,0.1875,8,0,2690000,,,6,3
50,104,0.8125,9,0,2690000,,,6,13
62,104,0.375,10,1,2690000,,,6,6
62,104,0.4375,0,1,2690001,,,6,7
50,104,0.3125,1,1,2690001,,,6,5
57,104,0.1875,2,1,2690001,,,6,3
45,104,0.625,3,1,2690001,,,6,10
61,104,0.1875,4,1,2690001,,,6,3
57,104,0.8125,5,0,2690001,,,6,13
52,104,0.5625,6,1,2690001,,,6,9
52,104,0.25,7,0,2690001,,,6,4
52,104,0.5625,8,0,2690001,,,6,9
50,104,0.4375,0,1,2700000,,,6,7
50,104,0.25,1,0,2700000,,,6,4
50,104,0.25,2,0,2700000,,,6,4
50,104,0.3125,3,0,2700000,,,6,5
28,104,0.3125,4,1,2700000,,,6,5
49,104,0.1875,5,1,2700000,,,6,3
54,104,0.3125,6,0,2700000,,,6,5
49,104,0.6875,7,0,2700000,,,6,11
66,104,0.1875,8,1,2700000,,,6,3
66,104,0.3125,9,0,2700000,,,6,5
60,104,0.375,0,1,2710000,,,6,6
62,104,0.4375,1,0,2710000,,,6,7
62,104,0.1875,2,0,2710000,,,6,3
62,104,0.5625,3,0,2710000,,,6,9
50,104,0.6875,4,1,2710000,,,6,11
57,104,0.4375,5,1,2710000,,,6,7
52,104,0.75,6,0,2710000,,,6,12
52,104,0.6875,7,1,2710000,,,6,11
52,104,0.25,0,1,2710001,,,6,4
52,104,0.3125,1,0,2710001,,,6,5
52,104,0.4375,2,0,2710001,,,6,7
52,104,0.5625,3,0,2710001,,,6,9
64,104,0.9375,4,1,2710001,,,6,15
50,104,0.1875,5,1,2710001,,,6,3
50,104,0.9375,6,0,2710001,,,6,15
50,104,0.75,7,1,2710001,,,6,12
50,104,0.3125,0,1,2710002,,,6,5
50,104,0.5625,1,0,2710002,,,6,9
33,104,0.1875,0,1,2720000,,,6,3
33,104,0.6875,1,0,2720000,,,6,11
33,104,0.4375,2,0,2720000,,,6,7
45,104,0.3125,3,1,2720000,,,6,5
50,104,0.875,4,0,2720000,,,6,14
38,104,0.75,5,1,2720000,,,6,12
57,104,0.5625,6,1,2720000,,,6,9
50,104,0.3125,7,1,2720000,,,6,5
45,104,0.9375,0,1,2720001,,,6,15
50,104,0.1875,1,1,2720001,,,6,3
31,104,0.4375,2,1,2720001,,,6,7
31,104,0.625,3,0,2720001,,,6,10
43,104,0.1875,4,1,2720001,,,6,3
55,104,0.1875,5,1,2720001,,,6,3
51,104,0.9375,0,1,2730000,,,6,15
51,104,0.1875,1,1,2730000,,,6,3
65,104,0.9375,2,1,2730000,,,6,15
53,104,0.4375,3,1,2730000,,,6,7
65,104,0.125,4,1,2730000,,,6,2
65,104,0.8125,5,0,2730000,,,6,13
48,104,0.3125,6,1,2730000,,,6,5
65,104,0.25,7,1,2730000,,,6,4
53,104,0.3125,0,1,2730001,,,6,5
53,104,0.5625,1,0,2730001,,,6,9
65,104,0.5,2,1,2730001,,,6,8
64,104,0.9375,0,1,2740000,,,6,15
61,104,0.8125,1,1,2740000,,,6,13
61,104,0.4375,2,1,2740000,,,6,7
61,104,0.1875,3,0,2740000,,,6,3
62,104,0.75,4,0,2740000,,,6,12
62,104,0.9375,5,1,2740000,,,6,15
40,104,0.1875,0,1,2740001,,,6,3
52,104,0.5625,1,1,2740001,,,6,9
40,104,0.9375,2,1,2740001,,,6,15
40,104,0.25,3,1,2740001,,,6,4
52,104,0.3125,4,1,2740001,,,6,5
33,104,0.4375,5,1,2740001,,,6,7
45,104,0.6875,6,1,2740001,,,6,11
33,104,0.25,7,1,2740001,,,6,4
59,104,0.3125,8,1,2740001,,,6,5
33,104,0.1875,0,1,2740002,,,6,3
61,104,0.25,1,1,2740002,,,6,4
61,104,0.5625,2,0,2740002,,,6,9
33,104,0.6875,3,1,2740002,,,6,11
43,104,0.75,0,1,2750000,,,6,12
59,104,0.25,1,1,2750000,,,6,4
43,104,0.375,2,1,2750000,,,6,6
67,104,0.3125,3,1,2750000,,,6,5
45,104,0.9375,4,1,2750000,,,6,15
33,104,0.375,5,1,2750000,,,6,6
45,104,0.25,6,1,2750000,,,6,4
57,104,0.375,7,1,2750000,,,6,6
56,104,0.25,8,0,2750000,,,6,4
50,104,0.9375,9,0,2750000,,,6,15
38,104,0.25,0,1,2750001,,,6,4
50,104,0.3125,1,1,2750001,,,6,5
50,104,0.1875,2,0,2750001,,,6,3
50,104,0.9375,3,0,2750001,,,6,15
70,104,0.4375,0,1,2760000,,,6,7
72,104,0.4375,1,0,2760000,,,6,7
51,104,0.1875,2,1,2760000,,,6,3
70,104,0.5,3,1,2760000,,,6,8
58,104,0.3125,4,1,2760000,,,6,5
70,104,0.9375,5,1,2760000,,,6,15
58,104,0.25,6,1,2760000,,,6,4
46,104,0.9375,7,1,2760000,,,6,15
34,104,0.25,0,1,2760001,,,6,4
65,104,0.3125,1,1,2760001,,,6,5
67,104,0.25,2,0,2760001,,,6,4
46,104,0.375,3,1,2760001,,,6,6
65,104,0.3125,4,1,2760001,,,6,5
67,104,0.375,5,0,2760001,,,6,6
53,104,0.8125,6,1,2760001,,,6,13
65,104,0.375,7,1,2760001,,,6,6
53,104,0.375,8,1,2760001,,,6,6
65,104,0.625,9,1,2760001,,,6,10
53,104,0.3125,0,1,2760002,,,6,5
53,104,0.375,1,0,2760002,,,6,6
48,104,0.3125,2,0,2760002,,,6,5
65,104,0.1875,3,1,2760002,,,6,3
53,104,0.3125,4,1,2760002,,,6,5
65,104,0.4375,5,1,2760002,,,6,7
53,104,0.1875,6,1,2760002,,,6,3
52,104,0.25,0,1,2770000,,,6,4
61,104,0.1875,1,1,2770000,,,6,3
52,104,0.125,2,1,2770000,,,6,2
52,104,0.4375,3,0,2770000,,,6,7
57,104,0.625,4,0,2770000,,,6,10
76,104,0.375,5,1,2770000,,,6,6
57,104,0.75,6,1,2770000,,,6,12
52,104,0.625,7,1,2770000,,,6,10
52,104,0.375,8,0,2770000,,,6,6
64,104,0.25,9,1,2770000,,,6,4
64,104,0.9375,0,1,2770001,,,6,15
54,104,0.1875,1,1,2770001,,,6,3
63,104,0.375,2,1,2770001,,,6,6
64,104,0.1875,3,0,2770001,,,6,3
64,104,0.375,4,0,2770001,,,6,6
64,104,0.8125,5,0,2770001,,,6,13
56,104,0.5,6,1,2770001,,,6,8
61,104,0.125,7,0,2770001,,,6,2
33,104,0.25,0,1,2780000,,,6,4
52,104,0.8125,1,1,2780000,,,6,13
65,104,0.1875,2,1,2780000,,,6,3
65,104,0.3125,3,0,2780000,,,6,5
65,104,0.875,4,0,2780000,,,6,14
53,104,0.1875,5,1,2780000,,,6,3
65,104,0.9375,6,1,2780000,,,6,15
53,104,0.1875,7,1,2780000,,,6,3
65,104,0.4375,8,1,2780000,,,6,7
65,104,0.1875,0,1,2780001,,,6,3
50,104,0.625,1,1,2780001,,,6,10
55,104,0.1875,2,0,2780001,,,6,3
55,104,0.625,3,0,2780001,,,6,10
62,104,0.25,4,1,2780001,,,6,4
50,104,0.1875,5,1,2780001,,,6,3
50,104,0.1875,6,0,2780001,,,6,3
62,104,0.3125,7,1,2780001,,,6,5
55,104,0.4375,8,1,2780001,,,6,7
62,104,0.5625,9,1,2780001,,,6,9
71,104,0.5625,0,1,2790000,,,6,9
73,104,0.6875,1,0,2790000,,,6,11
71,104,0.375,2,0,2790000,,,6,6
73,104,0.9375,3,0,2790000,,,6,15
71,104,0.8125,4,1,2790000,,,6,13
69,104,0.9375,5,1,2790000,,,6,15
69,104,0.9375,0,1,2790001,,,6,15
69,104,0.5625,1,1,2790001,,,6,9
38,104,0.625,0,1,2800000,,,6,10
57,104,0.5,1,1,2800000,,,6,8
50,104,0.1875,2,1,2800000,,,6,3
38,104,0.1875,3,1,2800000,,,6,3
50,104,0.1875,4,1,2800000,,,6,3
50,104,0.3125,5,0,2800000,,,6,5
38,104,0.9375,6,1,2800000,,,6,15
62,104,0.5625,7,1,2800000,,,6,9
62,104,0.25,8,0,2800000,,,6,4
57,104,0.5625,9,0,2800000,,,6,9
55,104,0.1875,0,1,2800001,,,6,3
59,104,0.5,1,0,2800001,,,6,8
59,104,0.4375,2,0,2800001,,,6,7
62,104,0.9375,3,0,2800001,,,6,15
59,104,0.9375,4,1,2800001,,,6,15
71,104,0.1875,5,1,2800001,,,6,3
61,104,0.5625,6,1,2800001,,,6,9
62,104,0.9375,0,1,2800002,,,6,15
62,104,0.9375,1,1,2800002,,,6,15
62,104,0.0,2,1,2800002,,,6,0
50,104,0.4375,0,1,2810000,,,6,7
38,104,0.25,1,1,2810000,,,6,4
50,104,0.4375,2,1,2810000,,,6,7
50,104,0.375,3,0,2810000,,,6,6
38,104,0.5,4,1,2810000,,,6,8
38,104,0.5625,5,0,2810000,,,6,9
57,104,0.25,6,1,2810000,,,6,4
50,104,0.9375,7,1,2810000,,,6,15
50,104,0.5625,8,1,2810000,,,6,9
50,104,0.125,0,1,2810001,,,6,2
50,104,0.1875,1,0,2810001,,,6,3
45,104,0.5625,2,0,2810001,,,6,9
45,104,0.5,3,0,2810001,,,6,8
45,104,0.375,4,0,2810001,,,6,6
45,104,0.25,5,0,2810001,,,6,4
33,104,0.9375,6,1,2810001,,,6,15
47,104,0.75,0,1,2820000,,,6,12
47,104,0.6875,1,1,2820000,,,6,11
59,104,0.125,2,1,2820000,,,6,2
59,104,0.4375,3,0,2820000,,,6,7
59,104,0.25,4,0,2820000,,,6,4
59,104,0.1875,5,0,2820000,,,6,3
47,104,0.125,6,1,2820000,,,6,2
47,104,0.375,7,0,2820000,,,6,6
59,104,0.4375,8,1,2820000,,,6,7
56,104,0.3125,9,0,2820000,,,6,5
56,104,0.6875,10,0,2820000,,,6,11
56,104,0.125,0,1,2820001,,,6,2
56,104,0.5625,1,0,2820001,,,6,9
56,104,0.5,2,0,2820001,,,6,8
56,104,0.1875,3,0,2820001,,,6,3
47,104,0.625,4,1,2820001,,,6,10
47,104,0.9375,5,0,2820001,,,6,15
47,104,0.9375,6,1,2820001,,,6,15
45,104,0.9375,0,1,2830000,,,6,15
45,104,0.5,1,1,2830000,,,6,8
33,104,0.25,2,1,2830000,,,6,4
47,104,0.75,3,1,2830000,,,6,12
47,104,0.75,4,1,2830000,,,6,12
47,104,0.8125,5,1,2830000,,,6,13
50,104,0.4375,0,1,2830001,,,6,7
50,104,0.5625,1,0,2830001,,,6,9
38,104,0.125,2,1,2830001,,,6,2
38,104,0.3125,3,0,2830001,,,6,5
50,104,0.25,4,1,2830001,,,6,4
28,104,0.5625,5,1,2830001,,,6,9
28,104,0.625,6,0,2830001,,,6,10
47,104,0.875,7,1,2830001,,,6,14
45,104,0.4375,8,1,2830001,,,6,7
48,104,0.125,0,1,2840000,,,6,2
60,104,0.4375,1,1,2840000,,,6,7
48,104,0.1875,2,1,2840000,,,6,3
60,104,0.9375,3,1,2840000,,,6,15
53,104,0.3125,4,1,2840000,,,6,5
55,104,0.9375,5,0,2840000,,,6,15
31,104,0.1875,6,1,2840000,,,6,3
31,104,0.3125,7,0,2840000,,,6,5
63,104,0.125,8,1,2840000,,,6,2
63,104,0.3125,9,0,2840000,,,6,5
56,104,0.375,10,1,2840000,,,6,6
56,104,0.1875,0,1,2840001,,,6,3
56,104,0.4375,1,0,2840001,,,6,7
51,104,0.1875,2,0,2840001,,,6,3
51,104,0.5625,3,0,2840001,,,6,9
51,104,0.625,4,0,2840001,,,6,10
63,104,0.1875,5,1,2840001,,,6,3
51,104,0.8125,6,1,2840001,,,6,13
48,104,0.3125,7,1,2840001,,,6,5
55,104,0.125,8,1,2840001,,,6,2
41,104,0.25,0,1,2850000,,,6,4
41,104,0.625,1,0,2850000,,,6,10
41,104,0.25,2,0,2850000,,,6,4
55,104,0.9375,3,1,2850000,,,6,15
58,104,0.6875,4,1,2850000,,,6,11
65,104,0.6875,5,1,2850000,,,6,11
50,104,0.9375,6,1,2850000,,,6,15
65,104,0.25,0,1,2850001,,,6,4
53,104,0.25,1,1,2850001,,,6,4
65,104,0.1875,2,1,2850001,,,6,3
53,104,0.375,3,1,2850001,,,6,6
51,104,0.5,4,0,2850001,,,6,8
51,104,0.9375,5,0,2850001,,,6,15
58,104,0.875,6,1,2850001,,,6,14
51,104,0.25,7,1,2850001,,,6,4
65,104,0.125,0,1,2850002,,,6,2
53,104,0.1875,1,1,2850002,,,6,3
41,104,0.9375,2,1,2850002,,,6,15
62,104,0.6875,0,1,2860000,,,6,11
52,104,0.9375,1,1,2860000,,,6,15
40,104,0.25,2,1,2860000,,,6,4
40,104,0.125,3,0,2860000,,,6,2
40,104,0.625,4,0,2860000,,,6,10
40,104,0.25,5,0,2860000,,,6,4
64,104,0.625,6,1,2860000,,,6,10
59,104,0.4375,7,0,2860000,,,6,7
52,104,0.6875,8,1,2860000,,,6,11
52,104,0.6875,0,1,2860001,,,6,11
47,104,0.3125,1,0,2860001,,,6,5
47,104,0.1875,2,0,2860001,,,6,3
68,104,0.3125,3,1,2860001,,,6,5
34,104,0.9375,0,1,2870000,,,6,15
53,104,0.1875,1,1,2870000,,,6,3
46,104,0.9375,2,1,2870000,,,6,15
34,104,0.875,3,1,2870000,,,6,14
46,104,0.1875,4,1,2870000,,,6,3
46,104,0.4375,5,0,2870000,,,6,7
53,104,0.75,6,1,2870000,,,6,12
50,104,0.5,0,1,2870001,,,6,8
53,104,0.1875,1,0,2870001,,,6,3
31,104,0.375,2,1,2870001,,,6,6
31,104,0.25,3,0,2870001,,,6,4
31,104,0.8125,4,0,2870001,,,6,13
58,104,0.5,5,1,2870001,,,6,8
58,104,0.125,6,0,2870001,,,6,2
62,104,0.6875,7,0,2870001,,,6,11
33,104,0.6875,0,1,2880000,,,6,11
45,104,0.75,1,1,2880000,,,6,12
33,104,0.5625,2,1,2880000,,,6,9
56,104,0.5625,3,1,2880000,,,6,9
56,104,0.125,4,0,2880000,,,6,2
56,104,0.3125,5,0,2880000,,,6,5
28,104,0.3125,6,1,2880000,,,6,5
45,104,0.5,7,1,2880000,,,6,8
45,104,0.375,8,0,2880000,,,6,6
45,104,0.75,0,1,2880001,,,6,12
45,104,0.9375,1,1,2880001,,,6,15
45,104,0.375,2,1,2880001,,,6,6
47,104,0.8125,3,0,2880001,,,6,13
47,104,0.9375,4,1,2880001,,,6,15
47,104,0.6875,0,1,2880002,,,6,11
47,104,0.4375,1,0,2880002,,,6,7
50,104,0.25,2,0,2880002,,,6,4
50,104,0.875,3,0,2880002,,,6,14
50,104,0.3125,4,1,2880002,,,6,5
31,104,0.375,0,1,2890000,,,6,6
31,104,0.375,1,0,2890000,,,6,6
31,104,0.3125,2,0,2890000,,,6,5
31,104,0.1875,3,0,2890000,,,6,3
31,104,0.3125,4,0,2890000,,,6,5
55,104,0.5625,5,1,2890000,,,6,9
31,104,0.1875,6,1,2890000,,,6,3
31,104,0.3125,7,0,2890000,,,6,5
51,104,0.625,8,1,2890000,,,6,10
27,104,0.3125,9,1,2890000,,,6,5
51,104,0.4375,10,1,2890000,,,6,7
39,104,0.1875,0,1,2890001,,,6,3
27,104,0.25,1,1,2890001,,,6,4
27,104,0.25,2,0,2890001,,,6,4
39,104,0.25,3,1,2890001,,,6,4
27,104,0.25,4,1,2890001,,,6,4
27,104,0.1875,5,0,2890001,,,6,3
53,104,0.25,6,1,2890001,,,6,4
29,104,0.6875,7,1,2890001,,,6,11
29,104,0.3125,8,0,2890001,,,6,5
29,104,0.0625,9,0,2890001,,,6,1
38,104,0.25,0,1,2900000,,,6,4
38,104,0.375,1,0,2900000,,,6,6
53,104,0.75,2,1,2900000,,,6,12
41,104,0.875,3,1,2900000,,,6,14
53,104,0.25,4,1,2900000,,,6,4
53,104,0.5,5,0,2900000,,,6,8
53,104,0.375,6,0,2900000,,,6,6
55,104,0.1875,7,0,2900000,,,6,3
36,104,0.1875,8,1,2900000,,,6,3
48,104,0.5,9,1,2900000,,,6,8
36,104,0.9375,0,1,2900001,,,6,15
36,104,0.3125,1,1,2900001,,,6,5
36,104,0.4375,2,0,2900001,,,6,7
36,104,0.375,3,0,2900001,,,6,6
34,104,0.4375,4,0,2900001,,,6,7
34,104,0.3125,5,0,2900001,,,6,5
53,104,0.9375,6,1,2900001,,,6,15
55,104,0.3125,0,1,2900002,,,6,5
39,104,0.4375,0,1,2910000,,,6,7
39,104,0.5625,1,0,2910000,,,6,9
39,104,0.6875,2,0,2910000,,,6,11
39,104,0.9375,3,0,2910000,,,6,15
51,104,0.4375,4,1,2910000,,,6,7
39,104,0.125,5,1,2910000,,,6,2
58,104,0.25,6,1,2910000,,,6,4
58,104,0.9375,7,0,2910000,,,6,15
39,104,0.3125,0,1,2910001,,,6,5
58,104,0.9375,1,1,2910001,,,6,15
39,104,0.375,2,1,2910001,,,6,6
70,104,0.25,3,1,2910001,,,6,4
58,104,0.1875,4,1,2910001,,,6,3
58,104,0.4375,5,0,2910001,,,6,7
58,104,0.375,6,0,2910001,,,6,6
46,104,0.375,7,1,2910001,,,6,6
46,104,0.1875,8,0,2910001,,,6,3
51,104,0.4375,9,0,2910001,,,6,7
51,104,0.1875,0,1,2910002,,,6,3
51,104,0.1875,1,0,2910002,,,6,3
60,104,0.1875,2,1,2910002,,,6,3
51,104,0.8125,0,1,2920000,,,6,13
58,104,0.25,1,1,2920000,,,6,4
51,104,0.9375,2,1,2920000,,,6,15
39,104,0.3125,3,1,2920000,,,6,5
39,104,0.1875,4,0,2920000,,,6,3
53,104,0.1875,5,1,2920000,,,6,3
46,104,0.25,6,1,2920000,,,6,4
58,104,0.375,7,1,2920000,,,6,6
58,104,0.1875,8,0,2920000,,,6,3
58,104,0.375,9,0,2920000,,,6,6
58,104,0.3125,10,0,2920000,,,6,5
58,104,0.5625,0,1,2920001,,,6,9
53,104,0.125,1,0,2920001,,,6,2
53,104,0.125,2,0,2920001,,,6,2
62,104,0.1875,3,1,2920001,,,6,3
58,104,0.1875,4,0,2920001,,,6,3
48,104,0.5625,5,1,2920001,,,6,9
52,104,0.4375,0,1,2930000,,,6,7
52,104,0.1875,1,0,2930000,,,6,3
52,104,0.3125,2,0,2930000,,,6,5
52,104,0.4375,3,0,2930000,,,6,7
52,104,0.25,4,0,2930000,,,6,4
52,104,0.25,5,0,2930000,,,6,4
52,104,0.3125,6,0,2930000,,,6,5
53,104,0.1875,7,0,2930000,,,6,3
52,104,0.3125,8,0,2930000,,,6,5
53,104,0.5625,9,0,2930000,,,6,9
53,104,0.25,10,0,2930000,,,6,4
53,104,0.1875,11,0,2930000,,,6,3
53,104,0.9375,12,0,2930000,,,6,15
53,104,0.25,0,1,2930001,,,6,4
60,104,0.1875,1,1,2930001,,,6,3
53,104,0.1875,2,1,2930001,,,6,3
64,104,0.1875,3,1,2930001,,,6,3
52,104,0.25,4,1,2930001,,,6,4
63,104,0.8125,0,1,2940000,,,6,13
36,104,0.9375,1,1,2940000,,,6,15
36,104,0.25,2,1,2940000,,,6,4
55,104,0.4375,3,1,2940000,,,6,7
36,104,0.4375,4,1,2940000,,,6,7
36,104,0.5,5,0,2940000,,,6,8
55,104,0.3125,6,1,2940000,,,6,5
48,104,0.5,7,1,2940000,,,6,8
89,104,0.3125,0,1,2940001,,,6,5
53,104,0.3125,1,1,2940001,,,6,5
53,104,0.25,2,0,2940001,,,6,4
53,104,0.4375,3,0,2940001,,,6,7
53,104,0.625,4,0,2940001,,,6,10
63,104,0.9375,5,1,2940001,,,6,15
49,104,0.25,6,1,2940001,,,6,4
61,104,0.1875,7,1,2940001,,,6,3
49,104,0.25,8,1,2940001,,,6,4
51,104,0.75,9,0,2940001,,,6,12
52,104,0.375,0,1,2950000,,,6,6
52,104,0.375,1,0,2950000,,,6,6
52,104,0.1875,2,0,2950000,,,6,3
52,104,0.25,3,0,2950000,,,6,4
57,104,0.25,4,0,2950000,,,6,4
48,104,0.3125,5,1,2950000,,,6,5
57,104,0.125,6,1,2950000,,,6,2
33,104,0.25,7,1,2950000,,,6,4
48,104,0.1875,8,1,2950000,,,6,3
57,104,0.9375,9,1,2950000,,,6,15
57,104,0.9375,10,1,2950000,,,6,15
74,104,0.625,0,1,2950001,,,6,10
74,104,0.125,1,0,2950001,,,6,2
52,104,0.6875,2,1,2950001,,,6,11
52,104,0.25,3,0,2950001,,,6,4
52,104,0.625,4,0,2950001,,,6,10
52,104,0.375,5,0,2950001,,,6,6
38,104,0.3125,6,1,2950001,,,6,5
38,104,0.1875,7,0,2950001,,,6,3
38,104,0.1875,8,0,2950001,,,6,3
50,104,0.25,9,1,2950001,,,6,4
46,104,0.375,0,1,2960000,,,6,6
34,104,0.75,1,1,2960000,,,6,12
34,104,0.1875,2,1,2960000,,,6,3
32,104,0.4375,3,0,2960000,,,6,7
56,104,0.125,4,1,2960000,,,6,2
51,104,0.1875,5,0,2960000,,,6,3
32,104,0.375,6,1,2960000,,,6,6
32,104,0.1875,7,0,2960000,,,6,3
32,104,0.125,8,0,2960000,,,6,2
53,104,0.1875,9,1,2960000,,,6,3
34,104,0.25,10,1,2960000,,,6,4
34,104,0.375,11,0,2960000,,,6,6
34,104,0.1875,12,0,2960000,,,6,3
34,104,0.3125,13,0,2960000,,,6,5
36,104,0.3125,0,1,2960001,,,6,5
36,104,0.1875,1,0,2960001,,,6,3
55,104,0.1875,2,1,2960001,,,6,3
55,104,0.25,3,0,2960001,,,6,4
36,104,0.1875,4,1,2960001,,,6,3
36,104,0.25,5,0,2960001,,,6,4
50,104,0.6875,0,1,2970000,,,6,11
50,104,0.3125,1,0,2970000,,,6,5
50,104,0.1875,2,0,2970000,,,6,3
57,104,0.4375,3,1,2970000,,,6,7
53,104,0.4375,4,0,2970000,,,6,7
60,104,0.4375,5,1,2970000,,,6,7
69,104,0.25,6,1,2970000,,,6,4
53,104,0.9375,7,1,2970000,,,6,15
60,104,0.375,8,1,2970000,,,6,6
55,104,0.5625,0,1,2970001,,,6,9
48,104,0.6875,1,1,2970001,,,6,11
55,104,0.625,2,1,2970001,,,6,10
48,104,0.1875,3,1,2970001,,,6,3
55,104,0.6875,4,1,2970001,,,6,11
55,104,0.25,5,0,2970001,,,6,4
55,104,0.25,6,0,2970001,,,6,4
53,104,0.25,7,0,2970001,,,6,4
53,104,0.4375,8,0,2970001,,,6,7
53,104,0.9375,0,1,2970002,,,6,15
47,104,0.375,0,1,2980000,,,6,6
59,104,0.4375,1,1,2980000,,,6,7
47,104,0.625,2,1,2980000,,,6,10
47,104,0.625,3,0,2980000,,,6,10
35,104,0.25,4,1,2980000,,,6,4
47,104,0.4375,5,1,2980000,,,6,7
35,104,0.1875,6,1,2980000,,,6,3
54,104,0.125,7,1,2980000,,,6,2
66,104,0.375,8,1,2980000,,,6,6
59,104,0.25,9,1,2980000,,,6,4
66,104,0.3125,10,1,2980000,,,6,5
66,104,0.1875,0,1,2980001,,,6,3
52,104,0.6875,1,1,2980001,,,6,11
52,104,0.3125,2,0,2980001,,,6,5
57,104,0.9375,3,0,2980001,,,6,15
45,104,0.4375,4,1,2980001,,,6,7
33,104,0.375,5,1,2980001,,,6,6
64,104,0.4375,6,1,2980001,,,6,7
33,104,0.1875,7,1,2980001,,,6,3
57,104,0.25,8,1,2980001,,,6,4
57,104,0.4375,9,0,2980001,,,6,7
64,104,0.9375,0,1,2980002,,,6,15
59,104,0.1875,1,1,2980002,,,6,3
59,104,0.125,2,0,2980002,,,6,2
53,104,0.25,0,1,2990000,,,6,4
41,104,0.25,1,1,2990000,,,6,4
60,104,0.1875,2,1,2990000,,,6,3
41,104,0.75,3,1,2990000,,,6,12
41,104,0.1875,4,1,2990000,,,6,3
65,104,0.25,5,1,2990000,,,6,4
58,104,0.625,6,1,2990000,,,6,10
65,104,0.25,7,1,2990000,,,6,4
46,104,0.3125,8,1,2990000,,,6,5
65,104,0.4375,9,1,2990000,,,6,7
65,104,0.25,10,0,2990000,,,6,4
65,104,0.1875,11,0,2990000,,,6,3
65,104,0.25,12,0,2990000,,,6,4
65,104,0.9375,0,1,2990001,,,6,15
53,104,0.5625,1,1,2990001,,,6,9
65,104,0.5625,2,1,2990001,,,6,9
60,104,0.3125,3,0,2990001,,,6,5
60,104,0.3125,4,0,2990001,,,6,5
41,104,0.375,5,1,2990001,,,6,6
65,104,0.25,6,1,2990001,,,6,4
41,104,0.25,7,1,2990001,,,6,4
65,104,0.1875,8,1,2990001,,,6,3
41,104,0.1875,9,1,2990001,,,6,3
57,104,0.9375,0,1,3000000,,,6,15
57,104,0.25,1,1,3000000,,,6,4
57,104,0.8125,2,0,3000000,,,6,13
57,104,0.3125,3,1,3000000,,,6,5
57,104,0.9375,4,0,3000000,,,6,15
57,104,0.5,5,1,3000000,,,6,8
57,104,0.375,6,0,3000000,,,6,6
57,104,0.4375,0,1,3000001,,,6,7
57,104,0.6875,1,0,3000001,,,6,11
62,104,0.5625,2,0,3000001,,,6,9
57,104,0.875,3,0,3000001,,,6,14
57,104,0.3125,4,1,3000001,,,6,5
52,104,0.25,5,0,3000001,,,6,4
52,104,0.3125,6,0,3000001,,,6,5
57,104,0.3125,7,0,3000001,,,6,5
45,104,0.3125,8,1,3000001,,,6,5
57,104,0.9375,0,1,3000002,,,6,15
57,104,0.25,1,1,3000002,,,6,4
60,104,0.875,0,1,3010000,,,6,14
36,104,0.9375,1,1,3010000,,,6,15
60,104,0.4375,2,1,3010000,,,6,7
48,104,0.1875,3,1,3010000,,,6,3
55,104,0.9375,4,1,3010000,,,6,15
33,104,0.3125,5,1,3010000,,,6,5
60,104,0.6875,6,1,3010000,,,6,11
55,104,0.25,0,1,3010001,,,6,4
55,104,0.9375,1,0,3010001,,,6,15
40,104,0.1875,2,1,3010001,,,6,3
40,104,0.25,3,0,3010001,,,6,4
40,104,0.375,4,0,3010001,,,6,6
60,104,0.875,5,1,3010001,,,6,14
55,104,0.5,6,1,3010001,,,6,8
55,104,0.4375,7,0,3010001,,,6,7
31,104,0.9375,0,1,3010002,,,6,15
60,104,0.625,1,1,3010002,,,6,10
45,104,0.375,0,1,3020000,,,6,6
33,104,0.3125,1,1,3020000,,,6,5
45,104,0.75,2,1,3020000,,,6,12
52,104,0.1875,3,1,3020000,,,6,3
50,104,0.75,4,0,3020000,,,6,12
61,104,0.25,5,1,3020000,,,6,4
61,104,0.25,6,0,3020000,,,6,4
64,104,0.25,7,0,3020000,,,6,4
56,104,0.1875,8,1,3020000,,,6,3
49,104,0.375,9,1,3020000,,,6,6
59,104,0.875,10,1,3020000,,,6,14
59,104,0.25,0,1,3020001,,,6,4
54,104,0.8125,1,0,3020001,,,6,13
42,104,0.1875,2,1,3020001,,,6,3
62,104,0.5,0,1,3030000,,,6,8
26,104,0.25,1,1,3030000,,,6,4
52,104,0.4375,2,1,3030000,,,6,7
52,104,0.4375,3,0,3030000,,,6,7
67,104,0.25,4,1,3030000,,,6,4
43,104,0.1875,5,1,3030000,,,6,3
43,104,0.25,6,0,3030000,,,6,4
62,104,0.25,7,1,3030000,,,6,4
62,104,0.1875,8,0,3030000,,,6,3
43,104,0.625,9,1,3030000,,,6,10
43,104,0.1875,10,0,3030000,,,6,3
62,104,0.4375,11,1,3030000,,,6,7
48,104,0.1875,0,1,3030001,,,6,3
48,104,0.1875,1,0,3030001,,,6,3
38,104,0.1875,2,1,3030001,,,6,3
50,104,0.375,3,1,3030001,,,6,6
57,104,0.6875,0,1,3040000,,,6,11
62,104,0.25,1,0,3040000,,,6,4
62,104,0.4375,2,0,3040000,,,6,7
57,104,0.3125,3,0,3040000,,,6,5
62,104,0.5,4,0,3040000,,,6,8
62,104,0.1875,5,0,3040000,,,6,3
50,104,0.3125,6,1,3040000,,,6,5
36,104,0.625,7,1,3040000,,,6,10
60,104,0.1875,8,1,3040000,,,6,3
60,104,0.3125,9,0,3040000,,,6,5
60,104,0.1875,10,0,3040000,,,6,3
64,104,0.1875,0,1,3040001,,,6,3
64,104,0.3125,1,0,3040001,,,6,5
64,104,0.4375,2,0,3040001,,,6,7
55,104,0.375,0,1,3050000,,,6,6
58,104,0.375,1,0,3050000,,,6,6
58,104,0.375,2,0,3050000,,,6,6
51,104,0.75,3,1,3050000,,,6,12
56,104,0.9375,4,1,3050000,,,6,15
56,104,0.1875,5,1,3050000,,,6,3
56,104,0.3125,6,0,3050000,,,6,5
56,104,0.375,7,0,3050000,,,6,6
53,104,0.25,8,0,3050000,,,6,4
46,104,0.25,9,1,3050000,,,6,4
58,104,0.25,0,1,3050001,,,6,4
58,104,0.875,1,0,3050001,,,6,14
51,104,0.5625,2,1,3050001,,,6,9
58,104,0.1875,3,1,3050001,,,6,3
51,104,0.9375,4,1,3050001,,,6,15
58,104,0.1875,5,1,3050001,,,6,3
47,104,0.25,0,1,3060000,,,6,4
59,104,0.25,1,1,3060000,,,6,4
54,104,0.6875,2,0,3060000,,,6,11
59,104,0.5,3,0,3060000,,,6,8
59,104,0.3125,4,0,3060000,,,6,5
54,104,0.125,5,0,3060000,,,6,2
47,104,0.1875,6,1,3060000,,,6,3
54,104,0.125,7,1,3060000,,,6,2
59,104,0.625,8,0,3060000,,,6,10
54,104,0.3125,9,0,3060000,,,6,5
59,104,0.1875,10,0,3060000,,,6,3
54,104,0.375,11,0,3060000,,,6,6
59,104,0.4375,12,0,3060000,,,6,7
59,104,0.3125,0,1,3060001,,,6,5
59,104,0.9375,1,0,3060001,,,6,15
47,104,0.8125,2,1,3060001,,,6,13
52,104,0.375,3,1,3060001,,,6,6
52,104,0.3125,4,0,3060001,,,6,5
52,104,0.4375,5,0,3060001,,,6,7
54,104,0.1875,6,0,3060001,,,6,3
46,104,0.5,0,1,3070000,,,6,8
58,104,0.25,1,1,3070000,,,6,4
46,104,0.9375,2,1,3070000,,,6,15
34,104,0.1875,3,1,3070000,,,6,3
46,104,0.9375,4,1,3070000,,,6,15
65,104,0.1875,5,1,3070000,,,6,3
65,104,0.25,6,0,3070000,,,6,4
65,104,0.375,7,0,3070000,,,6,6
58,104,0.9375,8,1,3070000,,,6,15
60,104,0.9375,0,1,3070001,,,6,15
65,104,0.8125,1,1,3070001,,,6,13
65,104,0.8125,2,1,3070001,,,6,13
65,104,0.9375,3,1,3070001,,,6,15
60,104,0.375,0,1,3070002,,,6,6
59,104,0.5625,0,1,3080000,,,6,9
52,104,0.25,1,1,3080000,,,6,4
40,104,0.125,2,1,3080000,,,6,2
57,104,0.5625,3,1,3080000,,,6,9
61,104,0.9375,4,0,3080000,,,6,15
57,104,0.3125,5,1,3080000,,,6,5
61,104,0.375,6,0,3080000,,,6,6
57,104,0.1875,7,0,3080000,,,6,3
57,104,0.1875,8,0,3080000,,,6,3
61,104,0.875,9,0,3080000,,,6,14
61,104,0.1875,0,1,3080001,,,6,3
61,104,0.125,1,0,3080001,,,6,2
61,104,0.4375,2,0,3080001,,,6,7
69,104,0.25,3,1,3080001,,,6,4
62,104,0.1875,4,1,3080001,,,6,3
40,104,0.625,5,1,3080001,,,6,10
59,104,0.875,6,1,3080001,,,6,14
59,104,0.375,7,1,3080001,,,6,6
40,104,0.4375,8,1,3080001,,,6,7
64,104,0.125,0,1,3090000,,,6,2
64,104,0.5,1,0,3090000,,,6,8
45,104,0.1875,2,1,3090000,,,6,3
52,104,0.125,3,1,3090000,,,6,2
57,104,0.8125,4,0,3090000,,,6,13
56,104,0.25,5,1,3090000,,,6,4
56,104,0.9375,6,0,3090000,,,6,15
52,104,0.3125,7,1,3090000,,,6,5
57,104,0.125,8,0,3090000,,,6,2
57,104,0.25,9,0,3090000,,,6,4
45,104,0.5625,10,1,3090000,,,6,9
45,104,0.125,0,1,3090001,,,6,2
45,104,0.25,1,0,3090001,,,6,4
57,104,0.9375,2,1,3090001,,,6,15
57,104,0.375,3,1,3090001,,,6,6
57,104,0.25,4,0,3090001,,,6,4
50,104,0.125,5,1,3090001,,,6,2
43,104,0.375,6,1,3090001,,,6,6
55,104,0.375,7,1,3090001,,,6,6
58,104,0.1875,0,1,3100000,,,6,3
58,104,0.9375,1,0,3100000,,,6,15
34,104,0.125,2,1,3100000,,,6,2
58,104,0.1875,3,1,3100000,,,6,3
34,104,0.125,4,1,3100000,,,6,2
58,104,0.3125,5,1,3100000,,,6,5
58,104,0.5,6,0,3100000,,,6,8
48,104,0.3125,7,1,3100000,,,6,5
58,104,0.1875,8,1,3100000,,,6,3
48,104,0.5,9,1,3100000,,,6,8
58,104,0.8125,10,1,3100000,,,6,13
58,104,0.9375,0,1,3100001,,,6,15
58,104,0.25,1,1,3100001,,,6,4
58,104,0.25,2,0,3100001,,,6,4
39,104,0.0,3,1,3100001,,,6,0
58,104,0.1875,0,1,3110000,,,6,3
39,104,0.9375,1,1,3110000,,,6,15
39,104,0.3125,2,1,3110000,,,6,5
51,104,0.25,3,1,3110000,,,6,4
39,104,0.625,4,1,3110000,,,6,10
39,104,0.875,5,0,3110000,,,6,14
39,104,0.1875,6,1,3110000,,,6,3
58,104,0.3125,7,1,3110000,,,6,5
39,104,0.5625,8,1,3110000,,,6,9
39,104,0.3125,0,1,3110001,,,6,5
58,104,0.1875,1,1,3110001,,,6,3
58,104,0.75,2,0,3110001,,,6,12
39,104,0.25,3,1,3110001,,,6,4
67,104,0.1875,4,1,3110001,,,6,3
58,104,0.9375,5,1,3110001,,,6,15
34,104,0.9375,6,1,3110001,,,6,15
50,104,0.3125,0,1,3120000,,,6,5
69,104,0.1875,1,1,3120000,,,6,3
45,104,0.1875,2,1,3120000,,,6,3
52,104,0.875,3,1,3120000,,,6,14
52,104,0.375,4,1,3120000,,,6,6
64,104,0.125,5,1,3120000,,,6,2
52,104,0.9375,6,1,3120000,,,6,15
44,104,0.8125,7,1,3120000,,,6,13
54,104,0.625,8,1,3120000,,,6,10
59,104,0.375,0,1,3120001,,,6,6
42,104,0.9375,1,1,3120001,,,6,15
54,104,0.1875,2,1,3120001,,,6,3
57,104,0.5,3,0,3120001,,,6,8
54,104,0.1875,4,0,3120001,,,6,3
38,104,0.8125,5,1,3120001,,,6,13
50,104,0.3125,6,1,3120001,,,6,5
38,104,0.6875,7,1,3120001,,,6,11
59,104,0.125,0,1,3120002,,,6,2
61,104,0.9375,0,1,3130000,,,6,15
42,104,0.625,1,1,3130000,,,6,10
61,104,0.1875,2,1,3130000,,,6,3
42,104,0.25,3,1,3130000,,,6,4
61,104,0.4375,4,1,3130000,,,6,7
59,104,0.25,5,0,3130000,,,6,4
47,104,0.875,6,1,3130000,,,6,14
47,104,0.625,7,1,3130000,,,6,10
52,104,0.25,0,1,3130001,,,6,4
40,104,0.5625,1,1,3130001,,,6,9
40,104,0.3125,2,0,3130001,,,6,5
52,104,0.1875,3,1,3130001,,,6,3
52,104,0.25,4,0,3130001,,,6,4
59,104,0.3125,5,1,3130001,,,6,5
40,104,0.25,6,1,3130001,,,6,4
59,104,0.4375,7,1,3130001,,,6,7
59,104,0.8125,8,0,3130001,,,6,13
64,104,0.25,9,1,3130001,,,6,4
59,104,0.25,10,0,3130001,,,6,4
59,104,0.625,0,1,3130002,,,6,10
57,104,0.4375,0,1,3140000,,,6,7
45,104,0.5,1,1,3140000,,,6,8
57,104,0.1875,2,1,3140000,,,6,3
57,104,0.25,3,0,3140000,,,6,4
49,104,0.6875,4,1,3140000,,,6,11
38,104,0.4375,5,1,3140000,,,6,7
57,104,0.5,6,1,3140000,,,6,8
57,104,0.1875,7,0,3140000,,,6,3
64,104,0.375,8,1,3140000,,,6,6
59,104,0.25,9,0,3140000,,,6,4
56,104,0.25,10,0,3140000,,,6,4
59,104,0.25,0,1,3140001,,,6,4
57,104,0.3125,1,0,3140001,,,6,5
59,104,0.125,2,0,3140001,,,6,2
61,104,0.125,3,0,3140001,,,6,2
61,104,0.75,4,0,3140001,,,6,12
61,104,0.6875,5,1,3140001,,,6,11
57,104,0.3125,6,0,3140001,,,6,5
61,104,0.9375,7,0,3140001,,,6,15
57,104,0.3125,8,1,3140001,,,6,5
61,104,0.0625,9,0,3140001,,,6,1
64,104,0.375,0,1,3150000,,,6,6
52,104,0.25,1,1,3150000,,,6,4
54,104,0.9375,2,0,3150000,,,6,15
66,104,0.125,3,1,3150000,,,6,2
54,104,0.625,4,1,3150000,,,6,10
62,104,0.75,5,1,3150000,,,6,12
55,104,0.9375,6,1,3150000,,,6,15
43,104,0.1875,0,1,3150001,,,6,3
62,104,0.3125,1,1,3150001,,,6,5
62,104,0.125,2,0,3150001,,,6,2
50,104,0.4375,3,1,3150001,,,6,7
62,104,0.4375,4,1,3150001,,,6,7
47,104,0.6875,0,1,3160000,,,6,11
49,104,0.8125,1,0,3160000,,,6,13
49,104,0.25,2,1,3160000,,,6,4
59,104,0.4375,3,1,3160000,,,6,7
49,104,0.375,4,1,3160000,,,6,6
49,104,0.5625,5,0,3160000,,,6,9
54,104,0.1875,6,0,3160000,,,6,3
49,104,0.9375,7,0,3160000,,,6,15
54,104,0.9375,0,1,3160001,,,6,15
56,104,0.25,1,1,3160001,,,6,4
65,104,0.8125,0,1,3170000,,,6,13
58,104,0.3125,1,1,3170000,,,6,5
50,104,0.9375,2,1,3170000,,,6,15
65,104,0.875,3,1,3170000,,,6,14
50,104,0.3125,4,1,3170000,,,6,5
31,104,0.4375,5,1,3170000,,,6,7
31,104,0.4375,6,0,3170000,,,6,7
50,104,0.4375,0,1,3170001,,,6,7
50,104,0.875,1,0,3170001,,,6,14
36,104,0.125,2,1,3170001,,,6,2
50,104,0.4375,0,1,3180000,,,6,7
62,104,0.375,1,1,3180000,,,6,6
62,104,0.875,2,0,3180000,,,6,14
50,104,0.3125,3,1,3180000,,,6,5
65,104,0.375,4,1,3180000,,,6,6
62,104,0.375,5,0,3180000,,,6,6
62,104,0.5,6,0,3180000,,,6,8
65,104,0.5,7,0,3180000,,,6,8
62,104,0.1875,8,0,3180000,,,6,3
50,104,0.1875,9,1,3180000,,,6,3
65,104,0.375,0,1,3180001,,,6,6
38,104,0.625,1,1,3180001,,,6,10
65,104,0.3125,2,1,3180001,,,6,5
50,104,0.375,3,1,3180001,,,6,6
62,104,0.25,4,1,3180001,,,6,4
53,104,0.5,5,1,3180001,,,6,8
62,104,0.8125,6,1,3180001,,,6,13
65,104,0.4375,7,1,3180001,,,6,7
58,104,0.3125,8,1,3180001,,,6,5
53,104,0.5,0,1,3180002,,,6,8
65,104,0.5,1,1,3180002,,,6,8
53,104,0.5,2,1,3180002,,,6,8
65,104,0.0625,3,1,3180002,,,6,1
53,104,0.25,0,1,3190000,,,6,4
55,104,0.1875,1,0,3190000,,,6,3
62,104,0.9375,2,1,3190000,,,6,15
62,104,0.1875,3,1,3190000,,,6,3
62,104,0.625,4,0,3190000,,,6,10
62,104,0.5,5,0,3190000,,,6,8
43,104,0.1875,6,1,3190000,,,6,3
55,104,0.5625,7,1,3190000,,,6,9
55,104,0.1875,8,0,3190000,,,6,3
36,104,0.9375,9,1,3190000,,,6,15
64,104,0.5625,0,1,3190001,,,6,9
62,104,0.375,1,0,3190001,,,6,6
62,104,0.5,2,0,3190001,,,6,8
50,104,0.1875,3,1,3190001,,,6,3
55,104,0.9375,4,0,3190001,,,6,15
52,104,0.5625,5,1,3190001,,,6,9
55,104,0.4375,6,0,3190001,,,6,7
46,104,0.4375,0,1,3200000,,,6,7
58,104,0.4375,1,1,3200000,,,6,7
46,104,0.5,2,1,3200000,,,6,8
46,104,0.25,3,0,3200000,,,6,4
46,104,0.3125,4,0,3200000,,,6,5
60,104,0.1875,5,1,3200000,,,6,3
60,104,0.625,6,0,3200000,,,6,10
53,104,0.3125,7,1,3200000,,,6,5
65,104,0.1875,8,1,3200000,,,6,3
46,104,0.3125,9,1,3200000,,,6,5
46,104,0.125,10,0,3200000,,,6,2
67,104,0.1875,11,1,3200000,,,6,3
61,104,0.9375,0,1,3210000,,,6,15
62,104,0.9375,1,1,3210000,,,6,15
38,104,0.25,2,1,3210000,,,6,4
62,104,0.5625,3,1,3210000,,,6,9
62,104,0.625,4,0,3210000,,,6,10
40,104,0.6875,5,1,3210000,,,6,11
28,104,0.25,0,1,3210001,,,6,4
59,104,0.4375,1,1,3210001,,,6,7
57,104,0.1875,2,0,3210001,,,6,3
45,104,0.9375,3,1,3210001,,,6,15
45,104,0.25,4,1,3210001,,,6,4
45,104,0.125,5,0,3210001,,,6,2
61,104,0.625,6,1,3210001,,,6,10
54,104,0.6875,7,1,3210001,,,6,11
57,104,0.4375,8,0,3210001,,,6,7
54,104,0.5625,9,0,3210001,,,6,9
57,104,0.4375,0,1,3210002,,,6,7
57,104,0.5625,1,0,3210002,,,6,9
62,104,0.1875,2,0,3210002,,,6,3
63,104,0.9375,0,1,3220000,,,6,15
63,104,0.25,1,1,3220000,,,6,4
63,104,0.1875,2,0,3220000,,,6,3
51,104,0.25,3,1,3220000,,,6,4
63,104,0.25,4,1,3220000,,,6,4
63,104,0.6875,5,0,3220000,,,6,11
63,104,0.5625,6,0,3220000,,,6,9
56,104,0.3125,7,1,3220000,,,6,5
63,104,0.625,8,1,3220000,,,6,10
63,104,0.1875,0,1,3220001,,,6,3
63,104,0.8125,1,0,3220001,,,6,13
63,104,0.5,2,1,3220001,,,6,8
53,104,0.25,3,1,3220001,,,6,4
53,104,0.4375,4,0,3220001,,,6,7
52,104,0.4375,5,0,3220001,,,6,7
52,104,0.375,6,0,3220001,,,6,6
53,104,0.375,7,0,3220001,,,6,6
63,104,0.375,8,1,3220001,,,6,6
63,104,0.375,9,0,3220001,,,6,6
63,104,0.3125,0,1,3220002,,,6,5
63,104,0.0625,1,0,3220002,,,6,1
46,104,0.25,0,1,3230000,,,6,4
46,104,0.3125,1,0,3230000,,,6,5
34,104,0.1875,2,1,3230000,,,6,3
46,104,0.1875,3,1,3230000,,,6,3
46,104,0.25,4,0,3230000,,,6,4
27,104,0.625,5,1,3230000,,,6,10
51,104,0.1875,6,1,3230000,,,6,3
51,104,0.25,7,0,3230000,,,6,4
51,104,0.1875,8,0,3230000,,,6,3
58,104,0.3125,9,1,3230000,,,6,5
51,104,0.1875,10,1,3230000,,,6,3
51,104,0.25,11,0,3230000,,,6,4
51,104,0.1875,12,0,3230000,,,6,3
27,104,0.125,13,1,3230000,,,6,2
51,104,0.25,14,1,3230000,,,6,4
32,104,0.3125,15,1,3230000,,,6,5
32,104,0.1875,0,1,3230001,,,6,3
51,104,0.25,1,1,3230001,,,6,4
34,104,0.75,0,1,3240000,,,6,12
58,104,0.3125,1,1,3240000,,,6,5
58,104,0.25,2,0,3240000,,,6,4
31,104,0.3125,3,1,3240000,,,6,5
31,104,0.375,4,0,3240000,,,6,6
53,104,0.375,5,1,3240000,,,6,6
50,104,0.1875,6,0,3240000,,,6,3
31,104,0.9375,7,1,3240000,,,6,15
31,104,0.25,8,1,3240000,,,6,4
47,104,0.5625,0,1,3250000,,,6,9
47,104,0.9375,1,0,3250000,,,6,15
47,104,0.3125,2,1,3250000,,,6,5
47,104,0.25,3,0,3250000,,,6,4
59,104,0.1875,4,1,3250000,,,6,3
59,104,0.125,5,0,3250000,,,6,2
59,104,0.6875,6,0,3250000,,,6,11
59,104,0.75,7,0,3250000,,,6,12
40,104,0.1875,8,1,3250000,,,6,3
52,104,0.0625,0,1,3250001,,,6,1
33,104,0.625,0,1,3260000,,,6,10
33,104,0.5,1,0,3260000,,,6,8
33,104,0.25,2,0,3260000,,,6,4
33,104,0.3125,3,0,3260000,,,6,5
54,104,0.1875,4,1,3260000,,,6,3
62,104,0.25,5,1,3260000,,,6,4
59,104,0.75,6,0,3260000,,,6,12
54,104,0.25,7,1,3260000,,,6,4
62,104,0.375,8,1,3260000,,,6,6
61,104,0.9375,9,0,3260000,,,6,15
61,104,0.3125,0,1,3260001,,,6,5
69,104,0.375,1,1,3260001,,,6,6
61,104,0.375,2,1,3260001,,,6,6
61,104,0.25,3,0,3260001,,,6,4
69,104,0.375,4,1,3260001,,,6,6
57,104,0.1875,5,1,3260001,,,6,3
66,104,0.25,6,1,3260001,,,6,4
71,104,0.25,0,1,3270000,,,6,4
83,104,0.1875,1,1,3270000,,,6,3
83,104,0.25,2,0,3270000,,,6,4
45,104,0.875,3,1,3270000,,,6,14
59,104,0.9375,4,1,3270000,,,6,15
59,104,0.5,5,1,3270000,,,6,8
47,104,0.3125,6,1,3270000,,,6,5
47,104,0.5,7,0,3270000,,,6,8
47,104,0.375,8,0,3270000,,,6,6
53,104,0.3125,0,1,3280000,,,6,5
60,104,0.375,1,1,3280000,,,6,6
53,104,0.125,2,1,3280000,,,6,2
65,104,0.4375,3,1,3280000,,,6,7
53,104,0.375,4,1,3280000,,,6,6
65,104,0.1875,5,1,3280000,,,6,3
65,104,0.25,6,0,3280000,,,6,4
62,104,0.5625,7,0,3280000,,,6,9
62,104,0.25,8,0,3280000,,,6,4
65,104,0.9375,9,0,3280000,,,6,15
65,104,0.9375,10,1,3280000,,,6,15
62,104,0.1875,0,1,3280001,,,6,3
53,104,0.9375,1,1,3280001,,,6,15
51,104,0.9375,2,1,3280001,,,6,15
51,104,0.75,3,1,3280001,,,6,12
34,104,0.25,0,1,3290000,,,6,4
58,104,0.25,1,1,3290000,,,6,4
53,104,0.1875,2,0,3290000,,,6,3
46,104,0.375,3,1,3290000,,,6,6
34,104,0.8125,4,1,3290000,,,6,13
58,104,0.5625,5,1,3290000,,,6,9
34,104,0.3125,6,1,3290000,,,6,5
34,104,0.3125,7,0,3290000,,,6,5
53,104,0.1875,8,1,3290000,,,6,3
34,104,0.3125,9,1,3290000,,,6,5
46,104,0.5625,10,1,3290000,,,6,9
62,104,0.625,0,1,3290001,,,6,10
38,104,0.625,1,1,3290001,,,6,10
50,104,0.375,2,1,3290001,,,6,6
38,104,0.3125,3,1,3290001,,,6,5
38,104,0.5625,4,0,3290001,,,6,9
38,104,0.3125,5,0,3290001,,,6,5
38,104,0.8125,6,0,3290001,,,6,13
38,104,0.75,7,1,3290001,,,6,12
38,104,0.4375,0,1,3290002,,,6,7
33,104,0.3125,0,1,3300000,,,6,5
52,104,0.125,1,1,3300000,,,6,2
33,104,0.9375,2,1,3300000,,,6,15
33,104,0.625,3,1,3300000,,,6,10
59,104,0.375,4,1,3300000,,,6,6
59,104,0.375,5,0,3300000,,,6,6
40,104,0.4375,6,1,3300000,,,6,7
59,104,0.875,7,1,3300000,,,6,14
59,104,0.3125,0,1,3300001,,,6,5
59,104,0.6875,1,0,3300001,,,6,11
59,104,0.4375,2,0,3300001,,,6,7
63,104,0.375,3,0,3300001,,,6,6
59,104,0.875,4,0,3300001,,,6,14
59,104,0.875,5,1,3300001,,,6,14
59,104,0.75,6,1,3300001,,,6,12
54,104,0.375,0,1,3300002,,,6,6
54,104,0.625,1,0,3300002,,,6,10
52,104,0.625,2,0,3300002,,,6,10
52,104,0.9375,3,0,3300002,,,6,15
64,104,0.9375,0,1,3310000,,,6,15
64,104,0.1875,1,1,3310000,,,6,3
45,104,0.9375,2,1,3310000,,,6,15
64,104,0.5625,3,1,3310000,,,6,9
59,104,0.3125,4,0,3310000,,,6,5
64,104,0.6875,5,0,3310000,,,6,11
52,104,0.9375,6,1,3310000,,,6,15
40,104,0.3125,0,1,3310001,,,6,5
52,104,0.4375,1,1,3310001,,,6,7
47,104,0.9375,2,0,3310001,,,6,15
52,104,0.9375,0,1,3320000,,,6,15
52,104,0.3125,1,1,3320000,,,6,5
54,104,0.1875,2,0,3320000,,,6,3
52,104,0.4375,3,0,3320000,,,6,7
33,104,0.75,4,1,3320000,,,6,12
33,104,0.125,5,1,3320000,,,6,2
33,104,0.25,6,0,3320000,,,6,4
45,104,0.25,7,1,3320000,,,6,4
52,104,0.125,8,1,3320000,,,6,2
45,104,0.25,9,1,3320000,,,6,4
45,104,0.1875,10,0,3320000,,,6,3
47,104,0.75,11,0,3320000,,,6,12
47,104,0.8125,0,1,3320001,,,6,13
47,104,0.25,1,1,3320001,,,6,4
47,104,0.5,2,0,3320001,,,6,8
50,104,0.9375,3,0,3320001,,,6,15
50,104,0.5625,4,1,3320001,,,6,9
50,104,0.3125,5,0,3320001,,,6,5
52,104,0.375,6,0,3320001,,,6,6
64,104,0.3125,0,1,3330000,,,6,5
61,104,0.1875,1,0,3330000,,,6,3
64,104,0.625,2,0,3330000,,,6,10
64,104,0.25,3,0,3330000,,,6,4
64,104,0.5,4,0,3330000,,,6,8
59,104,0.125,5,0,3330000,,,6,2
52,104,0.3125,6,1,3330000,,,6,5
64,104,0.5625,7,1,3330000,,,6,9
57,104,0.3125,8,1,3330000,,,6,5
57,104,0.25,9,0,3330000,,,6,4
64,104,0.1875,10,1,3330000,,,6,3
59,104,0.1875,11,0,3330000,,,6,3
59,104,0.1875,12,0,3330000,,,6,3
47,104,0.5625,0,1,3330001,,,6,9
59,104,0.5,1,1,3330001,,,6,8
47,104,0.625,2,1,3330001,,,6,10
47,104,0.375,3,0,3330001,,,6,6
47,104,0.1875,4,0,3330001,,,6,3
47,104,0.125,5,0,3330001,,,6,2
52,104,0.4375,6,0,3330001,,,6,7
64,104,0.1875,7,1,3330001,,,6,3
59,104,0.0,8,0,3330001,,,6,0
56,104,0.25,0,1,3340000,,,6,4
61,104,0.9375,1,0,3340000,,,6,15
51,104,0.125,2,1,3340000,,,6,2
51,104,0.5625,3,0,3340000,,,6,9
51,104,0.9375,4,0,3340000,,,6,15
63,104,0.1875,5,1,3340000,,,6,3
63,104,0.9375,6,0,3340000,,,6,15
48,104,0.1875,7,1,3340000,,,6,3
63,104,0.1875,0,1,3340001,,,6,3
63,104,0.1875,1,0,3340001,,,6,3
46,104,0.25,2,1,3340001,,,6,4
53,104,0.5625,3,1,3340001,,,6,9
56,104,0.4375,0,1,3350000,,,6,7
53,104,0.375,1,0,3350000,,,6,6
56,104,0.75,2,0,3350000,,,6,12
56,104,0.25,3,1,3350000,,,6,4
58,104,0.5,4,0,3350000,,,6,8
44,104,0.3125,5,1,3350000,,,6,5
56,104,0.25,6,1,3350000,,,6,4
51,104,0.9375,7,0,3350000,,,6,15
61,104,0.6875,8,1,3350000,,,6,11
37,104,0.6875,0,1,3350001,,,6,11
56,104,0.9375,1,1,3350001,,,6,15
58,104,0.25,2,1,3350001,,,6,4
70,104,0.1875,3,1,3350001,,,6,3
51,104,0.875,4,1,3350001,,,6,14
58,104,0.4375,5,1,3350001,,,6,7
70,104,0.25,6,1,3350001,,,6,4
58,104,0.5625,0,1,3350002,,,6,9
51,104,0.25,1,1,3350002,,,6,4
63,104,0.1875,2,1,3350002,,,6,3
51,104,0.5,3,1,3350002,,,6,8
32,104,0.25,4,1,3350002,,,6,4
64,104,0.25,0,1,3360000,,,6,4
69,104,0.3125,1,0,3360000,,,6,5
59,104,0.1875,2,1,3360000,,,6,3
45,104,0.4375,3,1,3360000,,,6,7
57,104,0.125,4,1,3360000,,,6,2
61,104,0.9375,5,0,3360000,,,6,15
45,104,0.375,6,1,3360000,,,6,6
33,104,0.3125,7,1,3360000,,,6,5
45,104,0.75,8,1,3360000,,,6,12
52,104,0.1875,9,1,3360000,,,6,3
50,104,0.8125,10,0,3360000,,,6,13
61,104,0.25,0,1,3360001,,,6,4
61,104,0.25,1,0,3360001,,,6,4
64,104,0.25,2,0,3360001,,,6,4
56,104,0.1875,3,1,3360001,,,6,3
49,104,0.375,4,1,3360001,,,6,6
59,104,0.875,5,1,3360001,,,6,14
59,104,0.1875,6,1,3360001,,,6,3
60,104,0.25,0,1,3370000,,,6,4
53,104,0.25,1,1,3370000,,,6,4
63,104,0.25,2,1,3370000,,,6,4
63,104,0.625,3,0,3370000,,,6,10
63,104,0.9375,4,0,3370000,,,6,15
61,104,0.1875,5,1,3370000,,,6,3
61,104,0.75,6,0,3370000,,,6,12
49,104,0.375,7,1,3370000,,,6,6
61,104,0.3125,8,1,3370000,,,6,5
61,104,0.25,9,0,3370000,,,6,4
49,104,0.25,0,1,3370001,,,6,4
49,104,0.1875,1,0,3370001,,,6,3
36,104,0.4375,2,1,3370001,,,6,7
36,104,0.9375,3,0,3370001,,,6,15
36,104,0.25,4,1,3370001,,,6,4
36,104,0.3125,5,0,3370001,,,6,5
64,104,0.25,6,1,3370001,,,6,4
53,104,0.25,7,1,3370001,,,6,4
41,104,0.25,0,1,3380000,,,6,4
53,104,0.375,1,1,3380000,,,6,6
53,104,0.6875,2,0,3380000,,,6,11
34,104,0.625,3,1,3380000,,,6,10
53,104,0.375,4,1,3380000,,,6,6
53,104,0.3125,5,0,3380000,,,6,5
53,104,0.4375,6,0,3380000,,,6,7
53,104,0.875,7,0,3380000,,,6,14
53,104,0.375,8,1,3380000,,,6,6
53,104,0.375,0,1,3380001,,,6,6
31,104,0.9375,1,1,3380001,,,6,15
31,104,0.375,2,1,3380001,,,6,6
31,104,0.6875,3,0,3380001,,,6,11
31,104,0.4375,4,0,3380001,,,6,7
53,104,0.25,5,1,3380001,,,6,4
29,104,0.25,6,1,3380001,,,6,4
51,104,0.9375,0,1,3390000,,,6,15
63,104,0.5,1,1,3390000,,,6,8
51,104,0.1875,2,1,3390000,,,6,3
51,104,0.625,3,0,3390000,,,6,10
53,104,0.5,4,0,3390000,,,6,8
53,104,0.375,5,0,3390000,,,6,6
53,104,0.5,6,0,3390000,,,6,8
46,104,0.1875,7,1,3390000,,,6,3
46,104,0.25,8,0,3390000,,,6,4
65,104,0.375,0,1,3390001,,,6,6
51,104,0.5,1,1,3390001,,,6,8
51,104,0.25,2,0,3390001,,,6,4
48,104,0.9375,3,0,3390001,,,6,15
60,104,0.6875,4,1,3390001,,,6,11
63,104,0.125,5,0,3390001,,,6,2
63,104,0.1875,6,0,3390001,,,6,3
63,104,0.1875,7,0,3390001,,,6,3
58,104,0.3125,0,1,3400000,,,6,5
63,104,0.25,1,0,3400000,,,6,4
58,104,0.3125,2,0,3400000,,,6,5
46,104,0.5,3,1,3400000,,,6,8
65,104,0.25,4,1,3400000,,,6,4
58,104,0.625,5,1,3400000,,,6,10
55,104,0.1875,6,0,3400000,,,6,3
58,104,0.3125,7,0,3400000,,,6,5
58,104,0.1875,8,0,3400000,,,6,3
58,104,0.3125,9,0,3400000,,,6,5
68,104,0.375,0,1,3410000,,,6,6
49,104,0.9375,1,1,3410000,,,6,15
71,104,0.4375,2,1,3410000,,,6,7
56,104,0.3125,3,1,3410000,,,6,5
57,104,0.4375,4,0,3410000,,,6,7
49,104,0.3125,5,1,3410000,,,6,5
56,104,0.3125,6,1,3410000,,,6,5
64,104,0.4375,7,1,3410000,,,6,7
56,104,0.25,8,1,3410000,,,6,4
49,104,0.3125,9,1,3410000,,,6,5
47,104,0.875,0,1,3410001,,,6,14
57,104,0.375,1,1,3410001,,,6,6
62,104,0.375,2,0,3410001,,,6,6
57,104,0.5,3,0,3410001,,,6,8
52,104,0.25,4,0,3410001,,,6,4
71,104,0.3125,5,1,3410001,,,6,5
57,104,0.1875,6,1,3410001,,,6,3
63,104,0.5,0,1,3420000,,,6,8
70,104,0.375,1,1,3420000,,,6,6
53,104,0.125,2,1,3420000,,,6,2
48,104,0.9375,3,0,3420000,,,6,15
70,104,0.1875,4,1,3420000,,,6,3
27,104,0.25,5,1,3420000,,,6,4
27,104,0.125,6,0,3420000,,,6,2
51,104,0.1875,7,1,3420000,,,6,3
51,104,0.1875,8,0,3420000,,,6,3
41,104,0.1875,9,1,3420000,,,6,3
48,104,0.1875,10,1,3420000,,,6,3
41,104,0.375,11,1,3420000,,,6,6
41,104,0.25,12,0,3420000,,,6,4
29,104,0.25,13,1,3420000,,,6,4
41,104,0.125,0,1,3420001,,,6,2
50,104,0.9375,0,1,3430000,,,6,15
83,104,0.125,1,1,3430000,,,6,2
49,104,0.9375,2,1,3430000,,,6,15
59,104,0.3125,3,1,3430000,,,6,5
49,104,0.9375,4,1,3430000,,,6,15
54,104,0.75,5,1,3430000,,,6,12
58,104,0.9375,0,1,3430001,,,6,15
58,104,0.75,1,1,3430001,,,6,12
58,104,0.6875,2,1,3430001,,,6,11
54,104,0.75,3,0,3430001,,,6,12
58,104,0.75,4,1,3430001,,,6,12
41,104,0.8125,0,1,3440000,,,6,13
60,104,0.5625,1,1,3440000,,,6,9
41,104,0.3125,2,1,3440000,,,6,5
60,104,0.75,3,1,3440000,,,6,12
41,104,0.25,4,1,3440000,,,6,4
60,104,0.9375,5,1,3440000,,,6,15
60,104,0.9375,6,1,3440000,,,6,15
65,104,0.1875,0,1,3440001,,,6,3
65,104,0.25,1,0,3440001,,,6,4
62,104,0.75,2,0,3440001,,,6,12
60,104,0.9375,3,1,3440001,,,6,15
53,104,0.3125,4,1,3440001,,,6,5
60,104,0.9375,5,1,3440001,,,6,15
53,104,0.125,6,1,3440001,,,6,2
56,104,0.8125,0,1,3450000,,,6,13
63,104,0.1875,1,1,3450000,,,6,3
56,104,0.375,2,1,3450000,,,6,6
63,104,0.3125,3,1,3450000,,,6,5
63,104,0.125,4,0,3450000,,,6,2
63,104,0.4375,5,0,3450000,,,6,7
56,104,0.3125,6,1,3450000,,,6,5
63,104,0.125,7,1,3450000,,,6,2
63,104,0.3125,8,0,3450000,,,6,5
56,104,0.4375,9,1,3450000,,,6,7
51,104,0.5,10,0,3450000,,,6,8
63,104,0.4375,11,1,3450000,,,6,7
32,104,0.3125,0,1,3450001,,,6,5
51,104,0.5,1,1,3450001,,,6,8
44,104,0.125,2,1,3450001,,,6,2
63,104,0.375,3,1,3450001,,,6,6
53,104,0.25,0,1,3460000,,,6,4
55,104,0.1875,1,0,3460000,,,6,3
62,104,0.9375,2,1,3460000,,,6,15
62,104,0.1875,3,1,3460000,,,6,3
62,104,0.625,4,0,3460000,,,6,10
62,104,0.5,5,0,3460000,,,6,8
43,104,0.1875,6,1,3460000,,,6,3
55,104,0.5625,7,1,3460000,,,6,9
55,104,0.1875,8,0,3460000,,,6,3
36,104,0.9375,9,1,3460000,,,6,15
64,104,0.5625,0,1,3460001,,,6,9
62,104,0.375,1,0,3460001,,,6,6
62,104,0.5,2,0,3460001,,,6,8
50,104,0.1875,3,1,3460001,,,6,3
55,104,0.9375,4,0,3460001,,,6,15
52,104,0.5625,5,1,3460001,,,6,9
55,104,0.4375,6,0,3460001,,,6,7
64,104,0.5,0,1,3470000,,,6,8
52,104,0.5625,1,1,3470000,,,6,9
40,104,0.1875,2,1,3470000,,,6,3
52,104,0.25,3,1,3470000,,,6,4
52,104,0.25,4,0,3470000,,,6,4
52,104,0.1875,5,0,3470000,,,6,3
52,104,0.5,6,0,3470000,,,6,8
40,104,0.25,7,1,3470000,,,6,4
52,104,0.5625,8,1,3470000,,,6,9
33,104,0.125,9,1,3470000,,,6,2
52,104,0.3125,10,1,3470000,,,6,5
52,104,0.5625,11,0,3470000,,,6,9
40,104,0.125,0,1,3470001,,,6,2
59,104,0.1875,1,1,3470001,,,6,3
57,104,0.625,2,0,3470001,,,6,10
52,104,0.3125,3,0,3470001,,,6,5
63,104,0.25,0,1,3480000,,,6,4
53,104,0.25,1,1,3480000,,,6,4
53,104,0.375,2,0,3480000,,,6,6
41,104,0.125,3,1,3480000,,,6,2
41,104,0.9375,4,0,3480000,,,6,15
41,104,0.5625,5,1,3480000,,,6,9
41,104,0.25,6,0,3480000,,,6,4
53,104,0.25,7,1,3480000,,,6,4
65,104,0.1875,8,1,3480000,,,6,3
53,104,0.1875,9,1,3480000,,,6,3
41,104,0.5625,10,1,3480000,,,6,9
41,104,0.1875,11,0,3480000,,,6,3
41,104,0.25,0,1,3480001,,,6,4
41,104,0.125,1,0,3480001,,,6,2
41,104,0.875,2,0,3480001,,,6,14
41,104,0.25,3,1,3480001,,,6,4
41,104,0.1875,4,0,3480001,,,6,3
53,104,0.9375,5,1,3480001,,,6,15
65,104,0.1875,6,1,3480001,,,6,3
65,104,0.375,7,0,3480001,,,6,6
65,104,0.25,8,0,3480001,,,6,4
65,104,0.125,9,0,3480001,,,6,2
65,104,0.9375,10,0,3480001,,,6,15
65,104,0.125,0,1,3480002,,,6,2
52,104,0.9375,0,1,3490000,,,6,15
40,104,0.1875,1,1,3490000,,,6,3
40,104,0.4375,2,0,3490000,,,6,7
52,104,0.375,3,1,3490000,,,6,6
37,104,0.375,4,1,3490000,,,6,6
49,104,0.5625,5,1,3490000,,,6,9
37,104,0.1875,6,1,3490000,,,6,3
61,104,0.5625,7,1,3490000,,,6,9
57,104,0.5,8,0,3490000,,,6,8
52,104,0.25,0,1,3490001,,,6,4
52,104,0.3125,1,0,3490001,,,6,5
59,104,0.25,2,1,3490001,,,6,4
47,104,0.8125,3,1,3490001,,,6,13
59,104,0.1875,4,1,3490001,,,6,3
59,104,0.5,5,0,3490001,,,6,8
59,104,0.25,6,0,3490001,,,6,4
33,104,0.5625,7,1,3490001,,,6,9
65,104,0.3125,0,1,3500000,,,6,5
65,104,0.375,1,0,3500000,,,6,6
62,104,0.4375,2,0,3500000,,,6,7
62,104,0.1875,3,0,3500000,,,6,3
63,104,0.3125,4,0,3500000,,,6,5
63,104,0.25,5,0,3500000,,,6,4
63,104,0.125,6,0,3500000,,,6,2
46,104,0.1875,7,1,3500000,,,6,3
46,104,0.1875,8,0,3500000,,,6,3
58,104,0.1875,9,1,3500000,,,6,3
63,104,0.25,10,0,3500000,,,6,4
51,104,0.1875,11,1,3500000,,,6,3
51,104,0.1875,12,0,3500000,,,6,3
51,104,0.9375,13,0,3500000,,,6,15
31,104,0.25,0,1,3510000,,,6,4
31,104,0.375,1,0,3510000,,,6,6
31,104,0.5,2,0,3510000,,,6,8
31,104,0.25,3,0,3510000,,,6,4
31,104,0.5625,4,0,3510000,,,6,9
31,104,0.3125,5,0,3510000,,,6,5
31,104,0.75,6,0,3510000,,,6,12
43,104,0.5,7,1,3510000,,,6,8
31,104,0.25,8,1,3510000,,,6,4
27,104,0.9375,9,0,3510000,,,6,15
27,104,0.25,0,1,3510001,,,6,4
27,104,0.25,1,0,3510001,,,6,4
58,104,0.125,2,1,3510001,,,6,2
27,104,0.4375,3,1,3510001,,,6,7
39,104,0.375,4,1,3510001,,,6,6
27,104,0.625,5,1,3510001,,,6,10
58,104,0.5,6,1,3510001,,,6,8
58,104,0.3125,7,0,3510001,,,6,5
58,104,0.1875,8,0,3510001,,,6,3
46,104,0.9375,9,1,3510001,,,6,15
34,104,0.125,0,1,3510002,,,6,2
34,104,0.375,1,0,3510002,,,6,6
56,104,0.1875,0,1,3520000,,,6,3
49,104,0.1875,1,1,3520000,,,6,3
49,104,0.3125,2,0,3520000,,,6,5
54,104,0.875,3,0,3520000,,,6,14
57,104,0.4375,4,1,3520000,,,6,7
59,104,0.25,5,0,3520000,,,6,4
59,104,0.25,6,0,3520000,,,6,4
54,104,0.625,7,0,3520000,,,6,10
54,104,0.5,8,0,3520000,,,6,8
35,104,0.125,9,1,3520000,,,6,2
52,104,0.3125,0,1,3530000,,,6,5
40,104,0.1875,1,1,3530000,,,6,3
52,104,0.5,2,1,3530000,,,6,8
57,104,0.25,3,0,3530000,,,6,4
47,104,0.375,4,1,3530000,,,6,6
52,104,0.1875,5,0,3530000,,,6,3
61,104,0.1875,6,1,3530000,,,6,3
52,104,0.3125,7,1,3530000,,,6,5
52,104,0.25,8,0,3530000,,,6,4
69,104,0.25,9,1,3530000,,,6,4
47,104,0.75,10,1,3530000,,,6,12
52,104,0.25,11,1,3530000,,,6,4
59,104,0.4375,12,1,3530000,,,6,7
59,104,0.4375,0,1,3530001,,,6,7
52,104,0.3125,1,1,3530001,,,6,5
52,104,0.3125,2,0,3530001,,,6,5
40,104,0.625,3,1,3530001,,,6,10
61,104,0.375,4,1,3530001,,,6,6
61,104,0.5,5,0,3530001,,,6,8
61,104,0.3125,6,0,3530001,,,6,5
57,104,0.125,7,0,3530001,,,6,2
61,104,0.1875,8,0,3530001,,,6,3
56,104,0.625,9,0,3530001,,,6,10
56,104,0.4375,0,1,3530002,,,6,7
59,104,0.1875,1,0,3530002,,,6,3
67,104,0.375,0,1,3540000,,,6,6
43,104,0.6875,1,1,3540000,,,6,11
43,104,0.1875,2,0,3540000,,,6,3
43,104,0.3125,3,0,3540000,,,6,5
62,104,0.25,4,1,3540000,,,6,4
43,104,0.3125,5,1,3540000,,,6,5
62,104,0.9375,6,1,3540000,,,6,15
74,104,0.1875,7,1,3540000,,,6,3
46,104,0.9375,0,1,3550000,,,6,15
46,104,0.9375,1,1,3550000,,,6,15
46,104,0.25,2,1,3550000,,,6,4
46,104,0.375,3,0,3550000,,,6,6
46,104,0.375,4,0,3550000,,,6,6
46,104,0.3125,5,0,3550000,,,6,5
58,104,0.125,6,1,3550000,,,6,2
50,104,0.9375,7,1,3550000,,,6,15
50,104,0.3125,0,1,3550001,,,6,5
50,104,0.4375,1,0,3550001,,,6,7
65,104,0.3125,2,1,3550001,,,6,5
62,104,0.1875,3,0,3550001,,,6,3
62,104,0.1875,4,0,3550001,,,6,3
65,104,0.9375,5,0,3550001,,,6,15
58,104,0.0625,6,1,3550001,,,6,1
52,104,0.3125,0,1,3560000,,,6,5
52,104,0.25,1,0,3560000,,,6,4
60,104,0.3125,2,1,3560000,,,6,5
52,104,0.9375,3,1,3560000,,,6,15
60,104,0.4375,4,1,3560000,,,6,7
65,104,0.1875,5,0,3560000,,,6,3
50,104,0.125,6,1,3560000,,,6,2
50,104,0.5625,7,0,3560000,,,6,9
50,104,0.8125,8,0,3560000,,,6,13
50,104,0.1875,9,1,3560000,,,6,3
50,104,0.9375,0,1,3560001,,,6,15
65,104,0.25,1,1,3560001,,,6,4
65,104,0.1875,2,0,3560001,,,6,3
50,104,0.9375,3,1,3560001,,,6,15
50,104,0.125,4,1,3560001,,,6,2
50,104,0.125,5,0,3560001,,,6,2
53,104,0.25,6,0,3560001,,,6,4
53,104,0.0,7,0,3560001,,,6,0
59,104,0.3125,0,1,3570000,,,6,5
33,104,0.25,1,1,3570000,,,6,4
45,104,0.3125,2,1,3570000,,,6,5
52,104,0.75,3,1,3570000,,,6,12
52,104,0.25,4,1,3570000,,,6,4
57,104,0.1875,5,0,3570000,,,6,3
45,104,0.5625,6,1,3570000,,,6,9
59,104,0.6875,7,1,3570000,,,6,11
45,104,0.625,8,1,3570000,,,6,10
52,104,0.1875,9,1,3570000,,,6,3
52,104,0.1875,0,1,3570001,,,6,3
52,104,0.9375,1,0,3570001,,,6,15
52,104,0.25,2,1,3570001,,,6,4
52,104,0.1875,3,0,3570001,,,6,3
59,104,0.8125,0,1,3580000,,,6,13
59,104,0.375,1,1,3580000,,,6,6
52,104,0.375,2,1,3580000,,,6,6
54,104,0.25,3,0,3580000,,,6,4
59,104,0.625,4,0,3580000,,,6,10
52,104,0.9375,5,1,3580000,,,6,15
59,104,0.125,6,1,3580000,,,6,2
59,104,0.375,7,0,3580000,,,6,6
59,104,0.5625,8,0,3580000,,,6,9
64,104,0.125,0,1,3580001,,,6,2
59,104,0.625,1,0,3580001,,,6,10
59,104,0.9375,2,0,3580001,,,6,15
54,104,0.1875,3,1,3580001,,,6,3
54,104,0.0625,4,0,3580001,,,6,1
54,104,0.875,0,1,3590000,,,6,14
42,104,0.1875,1,1,3590000,,,6,3
61,104,0.4375,2,1,3590000,,,6,7
61,104,0.625,3,0,3590000,,,6,10
62,104,0.1875,4,0,3590000,,,6,3
62,104,0.4375,5,0,3590000,,,6,7
47,104,0.75,6,1,3590000,,,6,12
62,104,0.25,7,1,3590000,,,6,4
73,104,0.25,8,1,3590000,,,6,4
62,104,0.9375,0,1,3590001,,,6,15
62,104,0.625,1,1,3590001,,,6,10
40,104,0.75,2,1,3590001,,,6,12
35,104,0.5625,0,1,3600000,,,6,9
47,104,0.5625,1,1,3600000,,,6,9
35,104,0.625,2,1,3600000,,,6,10
35,104,0.625,3,0,3600000,,,6,10
47,104,0.5,4,1,3600000,,,6,8
59,104,0.3125,5,1,3600000,,,6,5
35,104,0.5,6,1,3600000,,,6,8
64,104,0.25,7,1,3600000,,,6,4
64,104,0.25,8,0,3600000,,,6,4
59,104,0.75,0,1,3600001,,,6,12
40,104,0.6875,1,1,3600001,,,6,11
52,104,0.25,2,1,3600001,,,6,4
52,104,0.1875,3,0,3600001,,,6,3
52,104,0.1875,4,0,3600001,,,6,3
64,104,0.25,5,1,3600001,,,6,4
68,104,0.125,0,1,3610000,,,6,2
68,104,0.25,1,0,3610000,,,6,4
52,104,0.25,2,1,3610000,,,6,4
40,104,0.6875,3,1,3610000,,,6,11
40,104,0.1875,4,0,3610000,,,6,3
40,104,0.375,5,0,3610000,,,6,6
59,104,0.375,6,1,3610000,,,6,6
52,104,0.6875,7,1,3610000,,,6,11
42,104,0.8125,8,1,3610000,,,6,13
61,104,0.5,9,1,3610000,,,6,8
57,104,0.125,0,1,3610001,,,6,2
57,104,0.375,1,0,3610001,,,6,6
57,104,0.375,2,0,3610001,,,6,6
54,104,0.3125,3,0,3610001,,,6,5
54,104,0.3125,4,0,3610001,,,6,5
49,104,0.1875,5,0,3610001,,,6,3
61,104,0.25,6,1,3610001,,,6,4
59,104,0.5,7,0,3610001,,,6,8
61,104,0.1875,8,0,3610001,,,6,3
49,104,0.8125,9,1,3610001,,,6,13
64,104,0.375,0,1,3620000,,,6,6
52,104,0.5625,1,1,3620000,,,6,9
64,104,0.4375,2,1,3620000,,,6,7
52,104,0.3125,3,1,3620000,,,6,5
64,104,0.1875,4,1,3620000,,,6,3
64,104,0.5,5,0,3620000,,,6,8
64,104,0.1875,6,0,3620000,,,6,3
64,104,0.3125,7,0,3620000,,,6,5
64,104,0.1875,8,0,3620000,,,6,3
64,104,0.1875,9,0,3620000,,,6,3
52,104,0.5625,10,1,3620000,,,6,9
52,104,0.1875,11,0,3620000,,,6,3
59,104,0.25,0,1,3620001,,,6,4
62,104,0.25,0,1,3630000,,,6,4
59,104,0.9375,1,0,3630000,,,6,15
40,104,0.75,2,1,3630000,,,6,12
40,104,0.1875,3,1,3630000,,,6,3
40,104,0.1875,4,0,3630000,,,6,3
61,104,0.9375,5,1,3630000,,,6,15
59,104,0.9375,6,1,3630000,,,6,15
61,104,0.9375,0,1,3630001,,,6,15
61,104,0.9375,1,1,3630001,,,6,15
62,104,0.9375,2,1,3630001,,,6,15
53,104,0.25,0,1,3640000,,,6,4
53,104,0.5,1,0,3640000,,,6,8
34,104,0.75,2,1,3640000,,,6,12
46,104,0.3125,3,1,3640000,,,6,5
34,104,0.5,4,1,3640000,,,6,8
34,104,0.25,5,0,3640000,,,6,4
34,104,0.3125,6,0,3640000,,,6,5
65,104,0.3125,0,1,3650000,,,6,5
53,104,0.9375,1,1,3650000,,,6,15
65,104,0.1875,2,1,3650000,,,6,3
41,104,0.1875,3,1,3650000,,,6,3
53,104,0.625,4,1,3650000,,,6,10
53,104,0.3125,5,0,3650000,,,6,5
65,104,0.1875,6,1,3650000,,,6,3
58,104,0.5,7,1,3650000,,,6,8
65,104,0.1875,8,1,3650000,,,6,3
50,104,0.625,9,1,3650000,,,6,10
58,104,0.75,0,1,3650001,,,6,12
53,104,0.1875,1,1,3650001,,,6,3
58,104,0.25,2,0,3650001,,,6,4
53,104,0.25,3,0,3650001,,,6,4
58,104,0.1875,4,0,3650001,,,6,3
51,104,0.9375,5,1,3650001,,,6,15
53,104,0.3125,6,1,3650001,,,6,5
53,104,0.25,7,0,3650001,,,6,4
53,104,0.5,8,0,3650001,,,6,8
41,104,0.1875,9,1,3650001,,,6,3
32,104,0.1875,0,1,3660000,,,6,3
44,104,0.625,1,1,3660000,,,6,10
56,104,0.25,2,1,3660000,,,6,4
53,104,0.375,3,0,3660000,,,6,6
53,104,0.75,4,0,3660000,,,6,12
53,104,0.375,5,1,3660000,,,6,6
58,104,0.8125,6,0,3660000,,,6,13
46,104,0.1875,7,1,3660000,,,6,3
56,104,0.75,8,1,3660000,,,6,12
51,104,0.3125,0,1,3660001,,,6,5
56,104,0.1875,1,0,3660001,,,6,3
56,104,0.375,2,0,3660001,,,6,6
58,104,0.8125,3,0,3660001,,,6,13
65,104,0.5,4,1,3660001,,,6,8
58,104,0.9375,5,1,3660001,,,6,15
53,104,0.4375,6,1,3660001,,,6,7
58,104,0.1875,7,0,3660001,,,6,3
53,104,0.3125,0,1,3660002,,,6,5
55,104,0.75,1,0,3660002,,,6,12
55,104,0.9375,0,1,3670000,,,6,15
55,104,0.8125,1,1,3670000,,,6,13
55,104,0.9375,2,1,3670000,,,6,15
55,104,0.3125,3,1,3670000,,,6,5
55,104,0.9375,4,0,3670000,,,6,15
67,104,0.25,5,1,3670000,,,6,4
55,104,0.25,0,1,3670001,,,6,4
43,104,0.6875,1,1,3670001,,,6,11
55,104,0.9375,2,1,3670001,,,6,15
67,104,0.1875,3,1,3670001,,,6,3
55,104,0.1875,4,1,3670001,,,6,3
55,104,0.5625,5,0,3670001,,,6,9
67,104,0.4375,6,1,3670001,,,6,7
60,104,0.4375,7,1,3670001,,,6,7
65,104,0.3125,8,0,3670001,,,6,5
45,104,0.75,0,1,3680000,,,6,12
57,104,0.375,1,1,3680000,,,6,6
59,104,0.4375,2,0,3680000,,,6,7
57,104,0.9375,3,0,3680000,,,6,15
54,104,0.25,4,1,3680000,,,6,4
57,104,0.9375,5,0,3680000,,,6,15
42,104,0.25,6,1,3680000,,,6,4
52,104,0.375,7,1,3680000,,,6,6
45,104,0.3125,0,1,3680001,,,6,5
52,104,0.25,1,1,3680001,,,6,4
44,104,0.5,2,1,3680001,,,6,8
52,104,0.1875,3,1,3680001,,,6,3
40,104,0.3125,4,1,3680001,,,6,5
59,104,0.9375,5,1,3680001,,,6,15
56,104,0.3125,6,1,3680001,,,6,5
64,104,0.375,7,1,3680001,,,6,6
52,104,0.375,8,1,3680001,,,6,6
59,104,0.25,9,1,3680001,,,6,4
59,104,0.9375,0,1,3680002,,,6,15
42,104,0.75,1,1,3680002,,,6,12
48,104,0.4375,0,1,3690000,,,6,7
53,104,0.1875,1,0,3690000,,,6,3
48,104,0.5,2,0,3690000,,,6,8
48,104,0.25,3,0,3690000,,,6,4
53,104,0.25,4,0,3690000,,,6,4
53,104,0.375,5,0,3690000,,,6,6
48,104,0.375,6,0,3690000,,,6,6
48,104,0.3125,7,0,3690000,,,6,5
53,104,0.9375,8,0,3690000,,,6,15
48,104,0.9375,9,1,3690000,,,6,15
55,104,0.25,0,1,3690001,,,6,4
48,104,0.25,1,1,3690001,,,6,4
55,104,0.25,2,1,3690001,,,6,4
53,104,0.5,3,0,3690001,,,6,8
50,104,0.25,4,0,3690001,,,6,4
62,104,0.5,5,1,3690001,,,6,8
57,104,0.5625,0,1,3700000,,,6,9
54,104,0.3125,1,0,3700000,,,6,5
71,104,0.375,2,1,3700000,,,6,6
73,104,0.4375,3,0,3700000,,,6,7
31,104,0.9375,0,1,3710000,,,6,15
50,104,0.875,1,1,3710000,,,6,14
57,104,0.375,2,1,3710000,,,6,6
60,104,0.9375,3,0,3710000,,,6,15
38,104,0.1875,4,1,3710000,,,6,3
50,104,0.3125,5,1,3710000,,,6,5
50,104,0.75,6,0,3710000,,,6,12
60,104,0.25,0,1,3710001,,,6,4
57,104,0.25,1,0,3710001,,,6,4
57,104,0.625,2,0,3710001,,,6,10
48,104,0.9375,3,1,3710001,,,6,15
48,104,0.9375,4,1,3710001,,,6,15
36,104,0.9375,5,1,3710001,,,6,15
36,104,0.9375,0,1,3710002,,,6,15
57,104,0.9375,0,1,3720000,,,6,15
33,104,0.25,1,1,3720000,,,6,4
33,104,0.3125,2,0,3720000,,,6,5
52,104,0.25,3,1,3720000,,,6,4
52,104,0.1875,4,0,3720000,,,6,3
33,104,0.1875,5,1,3720000,,,6,3
52,104,0.1875,6,1,3720000,,,6,3
44,104,0.125,7,1,3720000,,,6,2
38,104,0.4375,8,0,3720000,,,6,7
38,104,0.125,9,0,3720000,,,6,2
38,104,0.1875,10,0,3720000,,,6,3
26,104,0.3125,11,1,3720000,,,6,5
54,104,0.375,0,1,3730000,,,6,6
54,104,0.4375,1,0,3730000,,,6,7
61,104,0.1875,2,1,3730000,,,6,3
42,104,0.1875,3,1,3730000,,,6,3
61,104,0.25,4,1,3730000,,,6,4
56,104,0.1875,5,0,3730000,,,6,3
53,104,0.9375,6,0,3730000,,,6,15
60,104,0.75,7,1,3730000,,,6,12
57,104,0.1875,8,1,3730000,,,6,3
63,104,0.125,9,0,3730000,,,6,2
61,104,0.5,10,0,3730000,,,6,8
60,104,0.375,0,1,3730001,,,6,6
44,104,0.25,1,1,3730001,,,6,4
56,104,0.5,2,1,3730001,,,6,8
49,104,0.3125,3,1,3730001,,,6,5
61,104,0.3125,4,1,3730001,,,6,5
54,104,0.25,5,1,3730001,,,6,4
54,104,0.125,6,0,3730001,,,6,2
54,104,0.5,7,0,3730001,,,6,8
61,104,0.25,8,1,3730001,,,6,4
61,104,0.3125,9,0,3730001,,,6,5
55,104,0.5,0,1,3740000,,,6,8
57,104,0.1875,1,0,3740000,,,6,3
55,104,0.4375,2,0,3740000,,,6,7
55,104,0.9375,3,0,3740000,,,6,15
55,104,0.9375,4,1,3740000,,,6,15
55,104,0.9375,5,1,3740000,,,6,15
55,104,0.25,6,1,3740000,,,6,4
60,104,0.4375,0,1,3740001,,,6,7
55,104,0.9375,1,0,3740001,,,6,15
55,104,0.1875,2,1,3740001,,,6,3
62,104,0.75,0,1,3750000,,,6,12
62,104,0.25,1,1,3750000,,,6,4
62,104,0.9375,2,0,3750000,,,6,15
55,104,0.875,3,1,3750000,,,6,14
55,104,0.6875,4,1,3750000,,,6,11
53,104,0.1875,5,0,3750000,,,6,3
55,104,0.25,6,0,3750000,,,6,4
55,104,0.1875,7,0,3750000,,,6,3
36,104,0.375,0,1,3750001,,,6,6
60,104,0.9375,1,1,3750001,,,6,15
60,104,0.9375,2,1,3750001,,,6,15
48,104,0.9375,3,1,3750001,,,6,15
53,104,0.1875,4,1,3750001,,,6,3
51,104,0.375,0,1,3760000,,,6,6
51,104,0.25,1,0,3760000,,,6,4
51,104,0.1875,2,0,3760000,,,6,3
51,104,0.125,3,0,3760000,,,6,2
51,104,0.25,4,0,3760000,,,6,4
51,104,0.25,5,0,3760000,,,6,4
31,104,0.125,6,1,3760000,,,6,2
50,104,0.125,7,1,3760000,,,6,2
43,104,0.3125,8,1,3760000,,,6,5
58,104,0.1875,9,1,3760000,,,6,3
50,104,0.25,10,1,3760000,,,6,4
50,104,0.25,11,0,3760000,,,6,4
31,104,0.1875,12,1,3760000,,,6,3
51,104,0.1875,13,1,3760000,,,6,3
51,104,0.125,14,0,3760000,,,6,2
27,104,0.375,0,1,3770000,,,6,6
27,104,0.1875,1,0,3770000,,,6,3
34,104,0.9375,2,1,3770000,,,6,15
34,104,0.375,3,1,3770000,,,6,6
34,104,0.5,4,0,3770000,,,6,8
46,104,0.8125,5,1,3770000,,,6,13
44,104,0.875,6,1,3770000,,,6,14
51,104,0.9375,0,1,3770001,,,6,15
51,104,0.9375,1,1,3770001,,,6,15
43,104,0.9375,2,1,3770001,,,6,15
51,104,0.9375,3,1,3770001,,,6,15
63,104,0.9375,4,1,3770001,,,6,15
41,104,0.3125,0,1,3770002,,,6,5
41,104,0.0625,1,0,3770002,,,6,1
53,104,0.4375,0,1,3780000,,,6,7
58,104,0.1875,1,0,3780000,,,6,3
58,104,0.375,2,0,3780000,,,6,6
50,104,0.3125,3,1,3780000,,,6,5
50,104,0.3125,4,0,3780000,,,6,5
53,104,0.25,5,0,3780000,,,6,4
38,104,0.625,6,1,3780000,,,6,10
57,104,0.9375,7,1,3780000,,,6,15
57,104,0.3125,8,1,3780000,,,6,5
29,104,0.1875,9,1,3780000,,,6,3
29,104,0.625,10,0,3780000,,,6,10
29,104,0.6875,0,1,3780001,,,6,11
29,104,0.1875,1,0,3780001,,,6,3
39,104,0.75,2,1,3780001,,,6,12
63,104,0.375,0,1,3790000,,,6,6
63,104,0.625,1,0,3790000,,,6,10
63,104,0.9375,2,0,3790000,,,6,15
63,104,0.5625,3,1,3790000,,,6,9
51,104,0.125,4,1,3790000,,,6,2
63,104,0.625,5,1,3790000,,,6,10
51,104,0.375,6,1,3790000,,,6,6
39,104,0.125,7,1,3790000,,,6,2
63,104,0.25,8,1,3790000,,,6,4
51,104,0.375,0,1,3790001,,,6,6
51,104,0.9375,1,0,3790001,,,6,15
51,104,0.625,2,1,3790001,,,6,10
51,104,0.5,3,0,3790001,,,6,8
51,104,0.625,4,0,3790001,,,6,10
50,104,0.25,5,0,3790001,,,6,4
51,104,0.4375,6,0,3790001,,,6,7
52,104,0.125,0,1,3800000,,,6,2
36,104,0.125,1,1,3800000,,,6,2
36,104,0.3125,2,0,3800000,,,6,5
36,104,0.125,3,0,3800000,,,6,2
48,104,0.375,4,1,3800000,,,6,6
64,104,0.3125,5,1,3800000,,,6,5
51,104,0.9375,0,1,3810000,,,6,15
51,104,0.8125,1,1,3810000,,,6,13
51,104,0.1875,2,1,3810000,,,6,3
63,104,0.5,3,1,3810000,,,6,8
62,104,0.5,0,1,3820000,,,6,8
38,104,0.1875,1,1,3820000,,,6,3
38,104,0.375,2,0,3820000,,,6,6
38,104,0.9375,3,0,3820000,,,6,15
40,104,0.9375,4,1,3820000,,,6,15
40,104,0.375,5,1,3820000,,,6,6
40,104,0.9375,6,0,3820000,,,6,15
68,104,0.25,0,1,3820001,,,6,4
69,104,0.6875,1,0,3820001,,,6,11
57,104,0.3125,2,1,3820001,,,6,5
64,104,0.3125,3,1,3820001,,,6,5
57,104,0.8125,4,1,3820001,,,6,13
61,104,0.5,5,1,3820001,,,6,8
57,104,0.625,6,0,3820001,,,6,10
45,104,0.1875,7,1,3820001,,,6,3
61,104,0.25,8,1,3820001,,,6,4
52,104,0.25,0,1,3830000,,,6,4
52,104,0.375,1,0,3830000,,,6,6
59,104,0.1875,2,1,3830000,,,6,3
53,104,0.875,3,0,3830000,,,6,14
53,104,0.25,4,1,3830000,,,6,4
53,104,0.1875,5,0,3830000,,,6,3
56,104,0.1875,6,0,3830000,,,6,3
42,104,0.5,7,1,3830000,,,6,8
61,104,0.1875,8,1,3830000,,,6,3
38,104,0.5,9,1,3830000,,,6,8
38,104,0.125,10,0,3830000,,,6,2
57,104,0.25,11,1,3830000,,,6,4
50,104,0.1875,12,1,3830000,,,6,3
57,104,0.3125,0,1,3830001,,,6,5
57,104,0.25,1,0,3830001,,,6,4
59,104,0.9375,2,0,3830001,,,6,15
46,104,0.25,0,1,3840000,,,6,4
46,104,0.3125,1,0,3840000,,,6,5
46,104,0.5,2,0,3840000,,,6,8
46,104,0.1875,3,0,3840000,,,6,3
53,104,0.375,4,1,3840000,,,6,6
60,104,0.3125,5,1,3840000,,,6,5
53,104,0.25,6,1,3840000,,,6,4
48,104,0.875,7,0,3840000,,,6,14
36,104,0.3125,8,1,3840000,,,6,5
55,104,0.5625,9,1,3840000,,,6,9
60,104,0.6875,10,0,3840000,,,6,11
36,104,0.3125,0,1,3840001,,,6,5
64,104,0.25,1,1,3840001,,,6,4
48,104,0.9375,2,1,3840001,,,6,15
41,104,0.4375,3,1,3840001,,,6,7
60,104,0.6875,4,1,3840001,,,6,11
41,104,0.8125,5,1,3840001,,,6,13
60,104,0.9375,0,1,3840002,,,6,15
53,104,0.375,0,1,3850000,,,6,6
34,104,0.8125,1,1,3850000,,,6,13
46,104,0.3125,2,1,3850000,,,6,5
58,104,0.9375,3,1,3850000,,,6,15
34,104,0.375,4,1,3850000,,,6,6
34,104,0.375,5,0,3850000,,,6,6
58,104,0.1875,6,1,3850000,,,6,3
31,104,0.875,7,1,3850000,,,6,14
39,104,0.375,0,1,3850001,,,6,6
39,104,0.375,1,0,3850001,,,6,6
29,104,0.75,2,1,3850001,,,6,12
41,104,0.4375,3,1,3850001,,,6,7
29,104,0.5625,4,1,3850001,,,6,9
41,104,0.3125,5,1,3850001,,,6,5
58,104,0.1875,6,1,3850001,,,6,3
58,104,0.9375,7,0,3850001,,,6,15
53,104,0.1875,0,1,3850002,,,6,3
50,104,0.3125,0,1,3860000,,,6,5
40,104,0.625,1,1,3860000,,,6,10
52,104,0.25,2,1,3860000,,,6,4
59,104,0.375,3,1,3860000,,,6,6
52,104,0.25,4,1,3860000,,,6,4
62,104,0.25,5,1,3860000,,,6,4
52,104,0.75,6,1,3860000,,,6,12
53,104,0.9375,7,1,3860000,,,6,15
65,104,0.125,8,1,3860000,,,6,2
61,104,0.75,9,0,3860000,,,6,12
68,104,0.125,0,1,3860001,,,6,2
53,104,0.1875,1,1,3860001,,,6,3
54,104,0.9375,2,0,3860001,,,6,15
66,104,0.9375,3,1,3860001,,,6,15
54,104,0.25,4,1,3860001,,,6,4
54,104,0.1875,5,0,3860001,,,6,3
54,104,0.25,6,0,3860001,,,6,4
66,104,0.3125,7,1,3860001,,,6,5
54,104,0.375,8,1,3860001,,,6,6
57,104,0.625,0,1,3860002,,,6,10
47,104,0.1875,0,1,3870000,,,6,3
47,104,0.9375,1,0,3870000,,,6,15
45,104,0.1875,2,1,3870000,,,6,3
57,104,0.625,3,1,3870000,,,6,10
45,104,0.1875,4,1,3870000,,,6,3
45,104,0.1875,5,0,3870000,,,6,3
57,104,0.375,6,1,3870000,,,6,6
47,104,0.5625,7,1,3870000,,,6,9
47,104,0.375,8,0,3870000,,,6,6
59,104,0.1875,9,1,3870000,,,6,3
59,104,0.375,10,0,3870000,,,6,6
64,104,0.1875,0,1,3870001,,,6,3
59,104,0.1875,1,0,3870001,,,6,3
47,104,0.4375,2,1,3870001,,,6,7
59,104,0.625,3,1,3870001,,,6,10
64,104,0.375,4,0,3870001,,,6,6
64,104,0.3125,5,0,3870001,,,6,5
64,104,0.9375,6,0,3870001,,,6,15
52,104,0.375,7,1,3870001,,,6,6
40,104,0.1875,8,1,3870001,,,6,3
52,104,0.1875,9,1,3870001,,,6,3
63,104,0.25,0,1,3880000,,,6,4
65,104,0.375,1,0,3880000,,,6,6
65,104,0.75,2,0,3880000,,,6,12
65,104,0.6875,3,1,3880000,,,6,11
55,104,0.4375,4,1,3880000,,,6,7
55,104,0.3125,5,0,3880000,,,6,5
55,104,0.3125,6,0,3880000,,,6,5
65,104,0.6875,7,1,3880000,,,6,11
44,104,0.3125,8,1,3880000,,,6,5
63,104,0.4375,0,1,3880001,,,6,7
63,104,0.1875,1,0,3880001,,,6,3
51,104,0.1875,2,1,3880001,,,6,3
63,104,0.3125,3,1,3880001,,,6,5
51,104,0.25,4,1,3880001,,,6,4
58,104,0.9375,5,1,3880001,,,6,15
53,104,0.3125,6,1,3880001,,,6,5
53,104,0.9375,7,0,3880001,,,6,15
53,104,0.25,8,1,3880001,,,6,4
60,104,0.1875,9,1,3880001,,,6,3
60,104,0.75,0,1,3880002,,,6,12
60,104,0.1875,1,1,3880002,,,6,3
55,104,0.0625,2,0,3880002,,,6,1
31,104,0.375,0,1,3890000,,,6,6
43,104,0.5625,1,1,3890000,,,6,9
31,104,0.5625,2,1,3890000,,,6,9
31,104,0.875,3,0,3890000,,,6,14
31,104,0.25,4,1,3890000,,,6,4
58,104,0.125,0,1,3900000,,,6,2
65,104,0.125,1,1,3900000,,,6,2
51,104,0.9375,2,1,3900000,,,6,15
58,104,0.625,3,1,3900000,,,6,10
65,104,0.25,4,1,3900000,,,6,4
58,104,0.9375,5,1,3900000,,,6,15
51,104,0.625,6,1,3900000,,,6,10
58,104,0.6875,7,1,3900000,,,6,11
39,104,0.125,0,1,3900001,,,6,2
65,104,0.9375,1,1,3900001,,,6,15
48,104,0.9375,2,1,3900001,,,6,15
48,104,0.25,3,1,3900001,,,6,4
48,104,0.1875,4,0,3900001,,,6,3
48,104,0.6875,5,0,3900001,,,6,11
65,104,0.25,6,1,3900001,,,6,4
65,104,0.25,7,0,3900001,,,6,4
52,104,0.4375,0,1,3910000,,,6,7
48,104,0.1875,1,0,3910000,,,6,3
62,104,0.5625,2,1,3910000,,,6,9
64,104,0.625,3,0,3910000,,,6,10
62,104,0.1875,4,0,3910000,,,6,3
62,104,0.5,5,0,3910000,,,6,8
62,104,0.3125,6,0,3910000,,,6,5
62,104,0.4375,7,0,3910000,,,6,7
57,104,0.625,8,0,3910000,,,6,10
57,104,0.5625,9,0,3910000,,,6,9
50,104,0.25,0,1,3910001,,,6,4
62,104,0.8125,1,1,3910001,,,6,13
53,104,0.1875,2,1,3910001,,,6,3
62,104,0.6875,3,1,3910001,,,6,11
62,104,0.1875,4,0,3910001,,,6,3
62,104,0.25,5,0,3910001,,,6,4
47,104,0.5625,6,1,3910001,,,6,9
62,104,0.1875,7,1,3910001,,,6,3
49,104,0.4375,0,1,3920000,,,6,7
61,104,0.4375,1,1,3920000,,,6,7
30,104,0.1875,2,1,3920000,,,6,3
30,104,0.375,3,0,3920000,,,6,6
68,104,0.4375,4,1,3920000,,,6,7
59,104,0.1875,5,1,3920000,,,6,3
57,104,0.4375,0,1,3930000,,,6,7
45,104,0.1875,1,1,3930000,,,6,3
52,104,0.25,2,1,3930000,,,6,4
52,104,0.5,3,0,3930000,,,6,8
52,104,0.5625,4,0,3930000,,,6,9
52,104,0.8125,5,0,3930000,,,6,13
53,104,0.1875,6,1,3930000,,,6,3
53,104,0.375,7,0,3930000,,,6,6
53,104,0.375,8,0,3930000,,,6,6
48,104,0.1875,9,0,3930000,,,6,3
53,104,0.625,10,0,3930000,,,6,10
57,104,0.25,0,1,3930001,,,6,4
53,104,0.375,1,0,3930001,,,6,6
55,104,0.125,2,0,3930001,,,6,2
50,104,0.375,3,0,3930001,,,6,6
50,104,0.5,4,0,3930001,,,6,8
55,104,0.1875,5,0,3930001,,,6,3
50,104,0.25,6,0,3930001,,,6,4
52,104,0.1875,7,0,3930001,,,6,3
50,104,0.9375,0,1,3940000,,,6,15
50,104,0.9375,1,1,3940000,,,6,15
50,104,0.25,2,1,3940000,,,6,4
62,104,0.125,3,1,3940000,,,6,2
48,104,0.9375,4,1,3940000,,,6,15
50,104,0.25,5,1,3940000,,,6,4
31,104,0.4375,6,1,3940000,,,6,7
58,104,0.25,0,1,3950000,,,6,4
58,104,0.6875,1,0,3950000,,,6,11
60,104,0.1875,2,0,3950000,,,6,3
60,104,0.9375,3,0,3950000,,,6,15
60,104,0.75,4,1,3950000,,,6,12
41,104,0.875,5,1,3950000,,,6,14
53,104,0.4375,6,1,3950000,,,6,7
41,104,0.375,0,1,3950001,,,6,6
57,104,0.875,1,1,3950001,,,6,14
53,104,0.3125,2,1,3950001,,,6,5
53,104,0.4375,3,0,3950001,,,6,7
60,104,0.1875,4,1,3950001,,,6,3
53,104,0.125,5,1,3950001,,,6,2
60,104,0.25,6,1,3950001,,,6,4
60,104,0.8125,7,0,3950001,,,6,13
60,104,0.125,8,1,3950001,,,6,2
53,104,0.1875,9,1,3950001,,,6,3
58,104,0.75,10,0,3950001,,,6,12
46,104,0.25,0,1,3950002,,,6,4
58,104,0.1875,1,1,3950002,,,6,3
58,104,0.4375,2,0,3950002,,,6,7
53,104,0.1875,3,0,3950002,,,6,3
58,104,0.25,4,0,3950002,,,6,4
46,104,0.9375,5,1,3950002,,,6,15
58,104,0.375,6,1,3950002,,,6,6
58,104,0.125,7,0,3950002,,,6,2
57,104,0.25,0,1,3960000,,,6,4
38,104,0.625,1,1,3960000,,,6,10
66,104,0.625,2,1,3960000,,,6,10
38,104,0.75,3,1,3960000,,,6,12
57,104,0.25,4,1,3960000,,,6,4
38,104,0.9375,5,1,3960000,,,6,15
38,104,0.375,6,1,3960000,,,6,6
57,104,0.375,7,1,3960000,,,6,6
64,104,0.6875,0,1,3960001,,,6,11
64,104,0.375,1,0,3960001,,,6,6
64,104,0.1875,2,0,3960001,,,6,3
61,104,0.9375,3,0,3960001,,,6,15
57,104,0.625,4,1,3960001,,,6,10
57,104,0.1875,5,0,3960001,,,6,3
64,104,0.25,6,1,3960001,,,6,4
45,104,0.25,7,1,3960001,,,6,4
45,104,0.25,8,0,3960001,,,6,4
57,104,0.25,9,1,3960001,,,6,4
61,104,0.125,0,1,3960002,,,6,2
57,104,0.0,1,0,3960002,,,6,0
45,104,0.875,0,1,3970000,,,6,14
57,104,0.3125,1,1,3970000,,,6,5
61,104,0.25,2,0,3970000,,,6,4
54,104,0.3125,3,1,3970000,,,6,5
33,104,0.1875,4,1,3970000,,,6,3
52,104,0.375,5,1,3970000,,,6,6
57,104,0.5,6,0,3970000,,,6,8
59,104,0.625,7,0,3970000,,,6,10
59,104,0.375,8,0,3970000,,,6,6
45,104,0.625,9,1,3970000,,,6,10
57,104,0.4375,0,1,3970001,,,6,7
41,104,0.125,1,1,3970001,,,6,2
57,104,0.9375,2,1,3970001,,,6,15
54,104,0.5,3,1,3970001,,,6,8
52,104,0.875,4,0,3970001,,,6,14
57,104,0.4375,5,1,3970001,,,6,7
32,104,0.375,0,1,3980000,,,6,6
44,104,0.5,1,1,3980000,,,6,8
32,104,0.75,2,1,3980000,,,6,12
46,104,0.9375,3,1,3980000,,,6,15
34,104,0.9375,4,1,3980000,,,6,15
54,104,0.1875,5,1,3980000,,,6,3
54,104,0.3125,6,0,3980000,,,6,5
42,104,0.1875,0,1,3980001,,,6,3
42,104,0.9375,1,0,3980001,,,6,15
49,104,0.9375,2,1,3980001,,,6,15
37,104,0.3125,3,1,3980001,,,6,5
49,104,0.9375,4,1,3980001,,,6,15
56,104,0.125,5,1,3980001,,,6,2
32,104,0.25,6,1,3980001,,,6,4
44,104,0.1875,7,1,3980001,,,6,3
44,104,0.9375,8,0,3980001,,,6,15
32,104,0.25,0,1,3980002,,,6,4
51,104,0.3125,1,1,3980002,,,6,5
57,104,0.3125,0,1,3990000,,,6,5
57,104,0.6875,1,0,3990000,,,6,11
50,104,0.3125,2,1,3990000,,,6,5
50,104,0.125,3,0,3990000,,,6,2
62,104,0.1875,4,1,3990000,,,6,3
50,104,0.125,5,1,3990000,,,6,2
50,104,0.375,6,0,3990000,,,6,6
59,104,0.6875,7,1,3990000,,,6,11
62,104,0.3125,8,0,3990000,,,6,5
59,104,0.3125,9,0,3990000,,,6,5
62,104,0.75,10,0,3990000,,,6,12
62,104,0.1875,0,1,3990001,,,6,3
62,104,0.1875,1,0,3990001,,,6,3
38,104,0.9375,2,1,3990001,,,6,15
38,104,0.0,3,1,3990001,,,6,0
54,104,0.25,0,1,4000000,,,6,4
54,104,0.375,1,0,4000000,,,6,6
59,104,0.125,2,0,4000000,,,6,2
54,104,0.5,3,0,4000000,,,6,8
59,104,0.6875,4,0,4000000,,,6,11
57,104,0.375,5,0,4000000,,,6,6
52,104,0.75,6,0,4000000,,,6,12
52,104,0.25,7,1,4000000,,,6,4
52,104,0.3125,8,0,4000000,,,6,5
33,104,0.1875,9,1,4000000,,,6,3
69,104,0.1875,10,1,4000000,,,6,3
45,104,0.3125,0,1,4000001,,,6,5
69,104,0.3125,1,1,4000001,,,6,5
57,104,0.3125,2,1,4000001,,,6,5
57,104,0.3125,3,0,4000001,,,6,5
45,104,0.625,4,1,4000001,,,6,10
52,104,0.3125,5,1,4000001,,,6,5
69,104,0.4375,6,1,4000001,,,6,7
57,104,0.0625,7,1,4000001,,,6,1
47,104,0.125,0,1,4010000,,,6,2
47,104,0.25,1,0,4010000,,,6,4
28,104,0.3125,2,1,4010000,,,6,5
64,104,0.1875,3,1,4010000,,,6,3
71,104,0.1875,4,1,4010000,,,6,3
49,104,0.1875,5,1,4010000,,,6,3
54,104,0.1875,6,0,4010000,,,6,3
54,104,0.1875,7,0,4010000,,,6,3
59,104,0.4375,0,1,4020000,,,6,7
68,104,0.3125,1,1,4020000,,,6,5
64,104,0.4375,2,0,4020000,,,6,7
59,104,0.375,3,0,4020000,,,6,6
64,104,0.25,4,0,4020000,,,6,4
47,104,0.625,5,1,4020000,,,6,10
52,104,0.1875,6,0,4020000,,,6,3
64,104,0.1875,7,1,4020000,,,6,3
59,104,0.25,8,0,4020000,,,6,4
59,104,0.375,9,0,4020000,,,6,6
52,104,0.4375,10,1,4020000,,,6,7
64,104,0.25,11,1,4020000,,,6,4
52,104,0.25,0,1,4020001,,,6,4
64,104,0.375,1,1,4020001,,,6,6
61,104,0.9375,0,1,4030000,,,6,15
44,104,0.75,1,1,4030000,,,6,12
56,104,0.1875,2,1,4030000,,,6,3
51,104,0.1875,3,0,4030000,,,6,3
51,104,0.8125,4,0,4030000,,,6,13
46,104,0.9375,5,1,4030000,,,6,15
46,104,0.125,6,1,4030000,,,6,2
61,104,0.4375,7,1,4030000,,,6,7
61,104,0.25,0,1,4030001,,,6,4
54,104,0.5,1,1,4030001,,,6,8
54,104,0.1875,2,0,4030001,,,6,3
54,104,0.125,3,0,4030001,,,6,2
30,104,0.4375,4,1,4030001,,,6,7
54,104,0.5625,5,1,4030001,,,6,9
54,104,0.3125,6,0,4030001,,,6,5
49,104,0.625,7,0,4030001,,,6,10
61,104,0.1875,8,1,4030001,,,6,3
41,104,0.375,0,1,4040000,,,6,6
60,104,0.9375,1,1,4040000,,,6,15
41,104,0.1875,2,1,4040000,,,6,3
29,104,0.1875,3,1,4040000,,,6,3
29,104,0.875,4,0,4040000,,,6,14
41,104,0.4375,5,1,4040000,,,6,7
60,104,0.25,6,1,4040000,,,6,4
48,104,0.4375,7,1,4040000,,,6,7
64,104,0.5625,8,1,4040000,,,6,9
60,104,0.25,0,1,4040001,,,6,4
57,104,0.25,1,0,4040001,,,6,4
60,104,0.4375,2,0,4040001,,,6,7
41,104,0.1875,3,1,4040001,,,6,3
50,104,0.1875,4,1,4040001,,,6,3
53,104,0.3125,5,0,4040001,,,6,5
65,104,0.3125,6,1,4040001,,,6,5
53,104,0.5625,7,1,4040001,,,6,9
65,104,0.1875,8,1,4040001,,,6,3
65,104,0.4375,9,0,4040001,,,6,7
60,104,0.3125,10,0,4040001,,,6,5
53,104,0.1875,11,1,4040001,,,6,3
60,104,0.25,0,1,4050000,,,6,4
60,104,0.4375,1,0,4050000,,,6,7
48,104,0.4375,2,1,4050000,,,6,7
55,104,0.5625,3,1,4050000,,,6,9
55,104,0.5,4,0,4050000,,,6,8
50,104,0.9375,5,0,4050000,,,6,15
62,104,0.375,6,1,4050000,,,6,6
65,104,0.125,7,0,4050000,,,6,2
50,104,0.8125,8,1,4050000,,,6,13
50,104,0.5625,0,1,4050001,,,6,9
53,104,0.5,1,0,4050001,,,6,8
53,104,0.25,2,0,4050001,,,6,4
53,104,0.4375,3,0,4050001,,,6,7
53,104,0.5625,4,0,4050001,,,6,9
53,104,0.5625,5,0,4050001,,,6,9
34,104,0.1875,6,1,4050001,,,6,3
55,104,0.125,7,1,4050001,,,6,2
38,104,0.8125,8,1,4050001,,,6,13
50,104,0.4375,0,1,4050002,,,6,7
38,104,0.25,1,1,4050002,,,6,4
38,104,0.4375,2,0,4050002,,,6,7
38,104,0.4375,3,0,4050002,,,6,7
51,104,0.125,0,1,4060000,,,6,2
60,104,0.375,1,1,4060000,,,6,6
41,104,0.9375,2,1,4060000,,,6,15
60,104,0.3125,3,1,4060000,,,6,5
41,104,0.9375,4,1,4060000,,,6,15
60,104,0.3125,5,1,4060000,,,6,5
60,104,0.9375,6,0,4060000,,,6,15
46,104,0.25,7,1,4060000,,,6,4
34,104,0.125,0,1,4060001,,,6,2
46,104,0.9375,1,1,4060001,,,6,15
65,104,0.3125,2,1,4060001,,,6,5
46,104,0.1875,0,1,4070000,,,6,3
46,104,0.3125,1,0,4070000,,,6,5
45,104,0.25,2,0,4070000,,,6,4
45,104,0.125,3,0,4070000,,,6,2
45,104,0.125,4,0,4070000,,,6,2
57,104,0.9375,5,1,4070000,,,6,15
31,104,0.4375,6,1,4070000,,,6,7
55,104,0.3125,7,1,4070000,,,6,5
67,104,0.5625,8,1,4070000,,,6,9
48,104,0.375,0,1,4080000,,,6,6
55,104,0.75,1,1,4080000,,,6,12
48,104,0.9375,2,1,4080000,,,6,15
55,104,0.5625,3,1,4080000,,,6,9
55,104,0.5,4,0,4080000,,,6,8
57,104,0.25,5,0,4080000,,,6,4
50,104,0.9375,6,1,4080000,,,6,15
50,104,0.9375,0,1,4080001,,,6,15
50,104,0.25,1,1,4080001,,,6,4
50,104,0.25,2,0,4080001,,,6,4
48,104,0.875,3,0,4080001,,,6,14
48,104,0.9375,4,1,4080001,,,6,15
25,104,0.3125,0,1,4090000,,,6,5
25,104,0.25,1,0,4090000,,,6,4
56,104,0.375,2,1,4090000,,,6,6
25,104,0.3125,3,1,4090000,,,6,5
37,104,0.1875,4,1,4090000,,,6,3
37,104,0.5,5,0,4090000,,,6,8
56,104,0.375,6,1,4090000,,,6,6
35,104,0.4375,7,1,4090000,,,6,7
35,104,0.1875,8,0,4090000,,,6,3
35,104,0.3125,9,0,4090000,,,6,5
53,104,0.25,0,1,4100000,,,6,4
60,104,0.125,1,1,4100000,,,6,2
41,104,0.1875,2,1,4100000,,,6,3
53,104,0.1875,3,1,4100000,,,6,3
41,104,0.1875,4,1,4100000,,,6,3
60,104,0.625,5,1,4100000,,,6,10
65,104,0.25,6,0,4100000,,,6,4
60,104,0.1875,7,0,4100000,,,6,3
41,104,0.375,8,1,4100000,,,6,6
60,104,0.4375,9,1,4100000,,,6,7
41,104,0.1875,10,1,4100000,,,6,3
65,104,0.25,11,1,4100000,,,6,4
53,104,0.375,12,1,4100000,,,6,6
53,104,0.625,13,0,4100000,,,6,10
41,104,0.125,0,1,4100001,,,6,2
41,104,0.25,1,0,4100001,,,6,4
53,104,0.25,2,1,4100001,,,6,4
60,104,0.9375,3,1,4100001,,,6,15
57,104,0.375,4,1,4100001,,,6,6
57,104,0.3125,5,0,4100001,,,6,5
45,104,0.25,6,1,4100001,,,6,4
57,104,0.1875,7,1,4100001,,,6,3
50,104,0.9375,0,1,4110000,,,6,15
31,104,0.9375,1,1,4110000,,,6,15
50,104,0.375,2,1,4110000,,,6,6
31,104,0.3125,3,1,4110000,,,6,5
50,104,0.1875,4,1,4110000,,,6,3
50,104,0.3125,5,0,4110000,,,6,5
31,104,0.5,6,1,4110000,,,6,8
50,104,0.5625,7,1,4110000,,,6,9
31,104,0.3125,0,1,4110001,,,6,5
31,104,0.25,1,0,4110001,,,6,4
50,104,0.5625,2,1,4110001,,,6,9
50,104,0.25,3,0,4110001,,,6,4
50,104,0.5,4,0,4110001,,,6,8
34,104,0.1875,0,1,4120000,,,6,3
32,104,0.3125,1,0,4120000,,,6,5
44,104,0.125,2,1,4120000,,,6,2
44,104,0.5625,3,0,4120000,,,6,9
32,104,0.875,4,1,4120000,,,6,14
32,104,0.25,5,1,4120000,,,6,4
46,104,0.625,6,1,4120000,,,6,10
46,104,0.125,7,0,4120000,,,6,2
46,104,0.9375,8,0,4120000,,,6,15
43,104,0.25,0,1,4120001,,,6,4
58,104,0.25,1,1,4120001,,,6,4
57,104,0.5,0,1,4130000,,,6,8
45,104,0.5,1,1,4130000,,,6,8
47,104,0.4375,2,0,4130000,,,6,7
47,104,0.1875,3,0,4130000,,,6,3
47,104,0.5625,4,0,4130000,,,6,9
47,104,0.75,5,0,4130000,,,6,12
35,104,0.3125,6,1,4130000,,,6,5
47,104,0.625,7,1,4130000,,,6,10
47,104,0.625,8,0,4130000,,,6,10
47,104,0.375,0,1,4130001,,,6,6
49,104,0.9375,1,0,4130001,,,6,15
49,104,0.5625,2,1,4130001,,,6,9
49,104,0.5,3,0,4130001,,,6,8
49,104,0.6875,4,0,4130001,,,6,11
61,104,0.3125,5,1,4130001,,,6,5
49,104,0.1875,6,1,4130001,,,6,3
53,104,0.1875,0,1,4140000,,,6,3
53,104,0.3125,1,0,4140000,,,6,5
53,104,0.4375,2,0,4140000,,,6,7
53,104,0.25,3,0,4140000,,,6,4
53,104,0.25,4,0,4140000,,,6,4
53,104,0.3125,5,0,4140000,,,6,5
51,104,0.5625,6,0,4140000,,,6,9
51,104,0.1875,7,0,4140000,,,6,3
51,104,0.375,8,0,4140000,,,6,6
53,104,0.625,9,0,4140000,,,6,10
58,104,0.9375,10,0,4140000,,,6,15
53,104,0.4375,0,1,4140001,,,6,7
55,104,0.375,1,0,4140001,,,6,6
55,104,0.625,2,0,4140001,,,6,10
55,104,0.25,3,0,4140001,,,6,4
57,104,0.6875,0,1,4150000,,,6,11
45,104,0.125,1,1,4150000,,,6,2
57,104,0.25,2,1,4150000,,,6,4
57,104,0.6875,3,0,4150000,,,6,11
57,104,0.125,4,0,4150000,,,6,2
57,104,0.1875,5,0,4150000,,,6,3
59,104,0.75,6,0,4150000,,,6,12
59,104,0.9375,7,1,4150000,,,6,15
52,104,0.1875,8,1,4150000,,,6,3
45,104,0.5,9,1,4150000,,,6,8
45,104,0.25,0,1,4150001,,,6,4
45,104,0.1875,1,0,4150001,,,6,3
33,104,0.25,2,1,4150001,,,6,4
45,104,0.3125,3,1,4150001,,,6,5
33,104,0.125,4,1,4150001,,,6,2
57,104,0.125,5,1,4150001,,,6,2
57,104,0.25,6,0,4150001,,,6,4
57,104,0.125,7,0,4150001,,,6,2
57,104,0.375,8,0,4150001,,,6,6
57,104,0.1875,9,0,4150001,,,6,3
57,104,0.25,10,0,4150001,,,6,4
74,104,0.4375,0,1,4160000,,,6,7
62,104,0.8125,1,1,4160000,,,6,13
74,104,0.5625,2,1,4160000,,,6,9
76,104,0.1875,3,0,4160000,,,6,3
74,104,0.6875,4,0,4160000,,,6,11
78,104,0.9375,5,0,4160000,,,6,15
74,104,0.875,6,1,4160000,,,6,14
76,104,0.9375,0,1,4160001,,,6,15
73,104,0.875,1,1,4160001,,,6,14
78,104,0.9375,2,1,4160001,,,6,15
74,104,0.1875,3,1,4160001,,,6,3
76,104,0.5625,4,0,4160001,,,6,9
78,104,0.25,0,1,4160002,,,6,4
74,104,0.9375,1,0,4160002,,,6,15
60,104,0.375,0,1,4170000,,,6,6
53,104,0.3125,1,1,4170000,,,6,5
62,104,0.5,2,1,4170000,,,6,8
38,104,0.9375,3,1,4170000,,,6,15
50,104,0.5625,4,1,4170000,,,6,9
50,104,0.5625,5,0,4170000,,,6,9
52,104,0.5,6,0,4170000,,,6,8
40,104,0.3125,7,1,4170000,,,6,5
50,104,0.3125,0,1,4170001,,,6,5
64,104,0.25,1,1,4170001,,,6,4
64,104,0.125,2,0,4170001,,,6,2
57,104,0.4375,3,1,4170001,,,6,7
45,104,0.9375,4,1,4170001,,,6,15
52,104,0.25,5,1,4170001,,,6,4
52,104,0.25,6,0,4170001,,,6,4
33,104,0.1875,7,1,4170001,,,6,3
57,104,0.1875,8,1,4170001,,,6,3
59,104,0.9375,9,0,4170001,,,6,15
50,104,0.625,0,1,4180000,,,6,10
50,104,0.1875,1,0,4180000,,,6,3
55,104,0.4375,2,0,4180000,,,6,7
56,104,0.1875,3,0,4180000,,,6,3
60,104,0.9375,4,0,4180000,,,6,15
50,104,0.9375,5,1,4180000,,,6,15
52,104,0.75,6,1,4180000,,,6,12
55,104,0.4375,0,1,4180001,,,6,7
55,104,0.375,1,0,4180001,,,6,6
59,104,0.375,2,0,4180001,,,6,6
52,104,0.5,3,1,4180001,,,6,8
33,104,0.25,4,1,4180001,,,6,4
52,104,0.8125,5,1,4180001,,,6,13
65,104,0.1875,6,1,4180001,,,6,3
38,104,0.8125,0,1,4190000,,,6,13
38,104,0.9375,1,1,4190000,,,6,15
38,104,0.75,2,1,4190000,,,6,12
57,104,0.25,3,1,4190000,,,6,4
38,104,0.6875,4,1,4190000,,,6,11
66,104,0.6875,5,1,4190000,,,6,11
38,104,0.75,0,1,4190001,,,6,12
57,104,0.25,1,1,4190001,,,6,4
38,104,0.9375,2,1,4190001,,,6,15
38,104,0.375,3,1,4190001,,,6,6
57,104,0.375,4,1,4190001,,,6,6
64,104,0.75,5,1,4190001,,,6,12
64,104,0.375,6,1,4190001,,,6,6
64,104,0.1875,7,0,4190001,,,6,3
61,104,0.9375,0,1,4190002,,,6,15
57,104,0.625,1,1,4190002,,,6,10
57,104,0.0625,2,0,4190002,,,6,1
40,104,0.3125,0,1,4200000,,,6,5
52,104,0.9375,1,1,4200000,,,6,15
40,104,0.875,2,1,4200000,,,6,14
40,104,0.375,3,1,4200000,,,6,6
40,104,0.1875,4,0,4200000,,,6,3
40,104,0.5625,5,0,4200000,,,6,9
52,104,0.4375,6,1,4200000,,,6,7
50,104,0.9375,7,0,4200000,,,6,15
50,104,0.1875,0,1,4200001,,,6,3
38,104,0.3125,1,1,4200001,,,6,5
38,104,0.1875,2,0,4200001,,,6,3
50,104,0.3125,3,1,4200001,,,6,5
57,104,0.3125,4,1,4200001,,,6,5
69,104,0.1875,5,1,4200001,,,6,3
50,104,0.5625,6,1,4200001,,,6,9
57,104,0.1875,7,1,4200001,,,6,3
52,104,0.75,8,0,4200001,,,6,12
52,104,0.3125,9,1,4200001,,,6,5
59,104,0.25,10,1,4200001,,,6,4
57,104,0.3125,0,1,4200002,,,6,5
45,104,0.25,1,1,4200002,,,6,4
57,104,0.25,2,1,4200002,,,6,4
64,104,0.5625,3,1,4200002,,,6,9
57,104,0.9375,4,1,4200002,,,6,15
52,104,0.3125,0,1,4210000,,,6,5
59,104,0.4375,1,1,4210000,,,6,7
47,104,0.75,2,1,4210000,,,6,12
59,104,0.5,3,1,4210000,,,6,8
35,104,0.4375,4,1,4210000,,,6,7
35,104,0.4375,5,0,4210000,,,6,7
59,104,0.1875,6,1,4210000,,,6,3
64,104,0.3125,7,0,4210000,,,6,5
64,104,0.6875,8,0,4210000,,,6,11
64,104,0.5,0,1,4210001,,,6,8
55,104,0.75,0,1,4220000,,,6,12
55,104,0.9375,1,1,4220000,,,6,15
41,104,0.1875,2,1,4220000,,,6,3
41,104,0.6875,3,0,4220000,,,6,11
62,104,0.6875,4,1,4220000,,,6,11
52,104,0.9375,5,1,4220000,,,6,15
41,104,0.25,0,1,4220001,,,6,4
41,104,0.3125,1,0,4220001,,,6,5
59,104,0.1875,0,1,4230000,,,6,3
50,104,0.25,1,1,4230000,,,6,4
40,104,0.3125,2,1,4230000,,,6,5
40,104,0.1875,3,0,4230000,,,6,3
56,104,0.3125,4,1,4230000,,,6,5
64,104,0.1875,5,1,4230000,,,6,3
59,104,0.5625,6,0,4230000,,,6,9
52,104,0.25,7,1,4230000,,,6,4
40,104,0.125,8,1,4230000,,,6,2
57,104,0.5625,9,1,4230000,,,6,9
61,104,0.9375,10,0,4230000,,,6,15
57,104,0.3125,11,1,4230000,,,6,5
61,104,0.375,0,1,4230001,,,6,6
57,104,0.1875,1,0,4230001,,,6,3
57,104,0.1875,2,0,4230001,,,6,3
61,104,0.8125,3,0,4230001,,,6,13
61,104,0.1875,4,1,4230001,,,6,3
61,104,0.125,5,0,4230001,,,6,2
61,104,0.4375,6,0,4230001,,,6,7
69,104,0.25,7,1,4230001,,,6,4
62,104,0.1875,8,1,4230001,,,6,3
62,104,0.1875,0,1,4240000,,,6,3
57,104,0.375,1,0,4240000,,,6,6
57,104,0.9375,2,0,4240000,,,6,15
45,104,0.1875,3,1,4240000,,,6,3
57,104,0.625,4,1,4240000,,,6,10
57,104,0.5625,5,0,4240000,,,6,9
45,104,0.25,6,1,4240000,,,6,4
57,104,0.375,7,1,4240000,,,6,6
57,104,0.25,8,0,4240000,,,6,4
66,104,0.625,9,1,4240000,,,6,10
38,104,0.1875,0,1,4240001,,,6,3
50,104,0.1875,1,1,4240001,,,6,3
38,104,0.1875,2,1,4240001,,,6,3
38,104,0.3125,3,0,4240001,,,6,5
50,104,0.125,4,1,4240001,,,6,2
50,104,0.1875,5,0,4240001,,,6,3
38,104,0.1875,6,1,4240001,,,6,3
38,104,0.9375,7,0,4240001,,,6,15
38,104,0.1875,8,1,4240001,,,6,3
62,104,0.1875,9,1,4240001,,,6,3
57,104,0.6875,10,0,4240001,,,6,11
62,104,0.125,11,0,4240001,,,6,2
62,104,0.125,12,0,4240001,,,6,2
62,104,0.1875,0,1,4250000,,,6,3
55,104,0.25,1,1,4250000,,,6,4
55,104,0.9375,2,0,4250000,,,6,15
48,104,0.125,3,1,4250000,,,6,2
60,104,0.25,4,1,4250000,,,6,4
48,104,0.9375,5,1,4250000,,,6,15
62,104,0.375,6,1,4250000,,,6,6
50,104,0.9375,7,1,4250000,,,6,15
62,104,0.625,0,1,4250001,,,6,10
62,104,0.9375,1,0,4250001,,,6,15
44,104,0.3125,0,1,4260000,,,6,5
58,104,0.8125,1,1,4260000,,,6,13
44,104,0.4375,2,1,4260000,,,6,7
58,104,0.6875,3,1,4260000,,,6,11
58,104,0.25,4,0,4260000,,,6,4
58,104,0.125,5,0,4260000,,,6,2
58,104,0.6875,6,0,4260000,,,6,11
44,104,0.1875,7,1,4260000,,,6,3
44,104,0.1875,8,0,4260000,,,6,3
58,104,0.6875,9,1,4260000,,,6,11
58,104,0.1875,0,1,4260001,,,6,3
58,104,0.8125,1,0,4260001,,,6,13
58,104,0.5625,2,1,4260001,,,6,9
53,104,0.1875,0,1,4270000,,,6,3
53,104,0.1875,1,0,4270000,,,6,3
53,104,0.25,2,0,4270000,,,6,4
58,104,0.5625,3,0,4270000,,,6,9
58,104,0.3125,4,0,4270000,,,6,5
53,104,0.8125,5,0,4270000,,,6,13
58,104,0.8125,6,1,4270000,,,6,13
58,104,0.3125,7,1,4270000,,,6,5
53,104,0.25,8,0,4270000,,,6,4
53,104,0.1875,9,0,4270000,,,6,3
48,104,0.375,10,0,4270000,,,6,6
43,104,0.375,0,1,4270001,,,6,6
53,104,0.1875,1,1,4270001,,,6,3
53,104,0.9375,2,0,4270001,,,6,15
53,104,0.3125,3,1,4270001,,,6,5
53,104,0.3125,4,0,4270001,,,6,5
53,104,0.1875,5,0,4270001,,,6,3
38,104,0.1875,0,1,4280000,,,6,3
62,104,0.1875,1,1,4280000,,,6,3
57,104,0.6875,2,0,4280000,,,6,11
62,104,0.125,3,0,4280000,,,6,2
62,104,0.125,4,0,4280000,,,6,2
62,104,0.375,5,0,4280000,,,6,6
62,104,0.1875,6,0,4280000,,,6,3
57,104,0.375,7,0,4280000,,,6,6
62,104,0.9375,8,0,4280000,,,6,15
66,104,0.3125,9,1,4280000,,,6,5
66,104,0.3125,10,0,4280000,,,6,5
66,104,0.25,11,0,4280000,,,6,4
62,104,0.8125,0,1,4280001,,,6,13
57,104,0.5,1,1,4280001,,,6,8
57,104,0.375,2,0,4280001,,,6,6
59,104,0.4375,3,0,4280001,,,6,7
57,104,0.5,4,0,4280001,,,6,8
31,104,0.8125,0,1,4290000,,,6,13
31,104,0.5,1,1,4290000,,,6,8
31,104,0.1875,2,0,4290000,,,6,3
48,104,0.9375,3,1,4290000,,,6,15
48,104,0.375,4,1,4290000,,,6,6
48,104,0.4375,5,0,4290000,,,6,7
60,104,0.9375,6,1,4290000,,,6,15
48,104,0.3125,0,1,4290001,,,6,5
51,104,0.4375,1,0,4290001,,,6,7
60,104,0.9375,0,1,4300000,,,6,15
56,104,0.8125,1,1,4300000,,,6,13
60,104,0.1875,2,1,4300000,,,6,3
56,104,0.3125,3,0,4300000,,,6,5
56,104,0.4375,4,0,4300000,,,6,7
51,104,0.25,5,0,4300000,,,6,4
56,104,0.8125,6,0,4300000,,,6,13
56,104,0.9375,7,1,4300000,,,6,15
56,104,0.1875,0,1,4300001,,,6,3
56,104,0.4375,1,0,4300001,,,6,7
56,104,0.125,2,0,4300001,,,6,2
56,104,0.8125,3,0,4300001,,,6,13
58,104,0.25,4,1,4300001,,,6,4
51,104,0.25,5,1,4300001,,,6,4
39,104,0.625,6,1,4300001,,,6,10
58,104,0.125,7,1,4300001,,,6,2
58,104,0.9375,8,0,4300001,,,6,15
59,104,0.375,0,1,4310000,,,6,6
35,104,0.75,1,1,4310000,,,6,12
59,104,0.3125,2,1,4310000,,,6,5
35,104,0.4375,3,1,4310000,,,6,7
47,104,0.1875,4,1,4310000,,,6,3
35,104,0.875,5,1,4310000,,,6,14
59,104,0.1875,6,1,4310000,,,6,3
59,104,0.125,7,0,4310000,,,6,2
59,104,0.625,8,0,4310000,,,6,10
64,104,0.375,9,0,4310000,,,6,6
64,104,0.25,0,1,4310001,,,6,4
49,104,0.5,1,1,4310001,,,6,8
59,104,0.5,2,1,4310001,,,6,8
64,104,0.25,3,0,4310001,,,6,4
64,104,0.5625,4,0,4310001,,,6,9
64,104,0.3125,5,0,4310001,,,6,5
59,104,0.3125,6,0,4310001,,,6,5
59,104,0.1875,7,0,4310001,,,6,3
52,104,0.25,0,1,4320000,,,6,4
52,104,0.75,1,0,4320000,,,6,12
50,104,0.375,2,1,4320000,,,6,6
47,104,0.125,3,0,4320000,,,6,2
47,104,0.1875,4,0,4320000,,,6,3
36,104,0.3125,5,1,4320000,,,6,5
36,104,0.25,6,0,4320000,,,6,4
36,104,0.25,7,0,4320000,,,6,4
55,104,0.5625,8,1,4320000,,,6,9
55,104,0.8125,9,0,4320000,,,6,13
62,104,0.8125,10,1,4320000,,,6,13
50,104,0.9375,0,1,4320001,,,6,15
43,104,0.375,0,1,4330000,,,6,6
31,104,0.1875,1,1,4330000,,,6,3
39,104,0.3125,2,1,4330000,,,6,5
27,104,0.75,3,1,4330000,,,6,12
27,104,0.3125,4,1,4330000,,,6,5
39,104,0.25,5,1,4330000,,,6,4
27,104,0.875,6,1,4330000,,,6,14
39,104,0.3125,7,1,4330000,,,6,5
27,104,0.4375,8,1,4330000,,,6,7
58,104,0.75,9,1,4330000,,,6,12
31,104,0.125,0,1,4330001,,,6,2
34,104,0.9375,1,0,4330001,,,6,15
34,104,0.375,2,1,4330001,,,6,6
34,104,0.3125,3,0,4330001,,,6,5
34,104,0.5625,4,0,4330001,,,6,9
46,104,0.3125,5,1,4330001,,,6,5
34,104,0.3125,6,1,4330001,,,6,5
34,104,0.3125,7,0,4330001,,,6,5
46,104,0.875,8,1,4330001,,,6,14
53,104,0.25,0,1,4330002,,,6,4
53,104,0.375,1,0,4330002,,,6,6
29,104,0.75,2,1,4330002,,,6,12
47,104,0.8125,0,1,4340000,,,6,13
66,104,0.25,1,1,4340000,,,6,4
52,104,0.4375,2,1,4340000,,,6,7
35,104,0.4375,3,1,4340000,,,6,7
35,104,0.5625,4,0,4340000,,,6,9
35,104,0.1875,5,0,4340000,,,6,3
47,104,0.3125,6,1,4340000,,,6,5
59,104,0.1875,7,1,4340000,,,6,3
47,104,0.25,8,1,4340000,,,6,4
47,104,0.3125,9,0,4340000,,,6,5
47,104,0.75,10,0,4340000,,,6,12
47,104,0.1875,0,1,4340001,,,6,3
47,104,0.1875,1,0,4340001,,,6,3
47,104,0.25,2,0,4340001,,,6,4
64,104,0.9375,3,1,4340001,,,6,15
64,104,0.1875,4,1,4340001,,,6,3
47,104,0.9375,5,1,4340001,,,6,15
36,104,0.3125,0,1,4350000,,,6,5
24,104,0.1875,1,1,4350000,,,6,3
43,104,0.5,2,1,4350000,,,6,8
43,104,0.3125,3,0,4350000,,,6,5
31,104,0.3125,4,1,4350000,,,6,5
31,104,0.375,5,0,4350000,,,6,6
31,104,0.375,6,0,4350000,,,6,6
43,104,0.25,7,1,4350000,,,6,4
32,104,0.3125,8,1,4350000,,,6,5
32,104,0.3125,9,0,4350000,,,6,5
32,104,0.3125,10,0,4350000,,,6,5
32,104,0.3125,11,0,4350000,,,6,5
32,104,0.1875,12,0,4350000,,,6,3
34,104,0.375,0,1,4350001,,,6,6
34,104,0.25,1,0,4350001,,,6,4
34,104,0.25,2,0,4350001,,,6,4
34,104,0.25,3,0,4350001,,,6,4
53,104,0.25,4,1,4350001,,,6,4
53,104,0.25,5,0,4350001,,,6,4
51,104,0.9375,6,0,4350001,,,6,15
51,104,0.6875,7,1,4350001,,,6,11
46,104,0.6875,0,1,4360000,,,6,11
51,104,0.5,1,0,4360000,,,6,8
58,104,0.3125,2,1,4360000,,,6,5
58,104,0.5625,3,0,4360000,,,6,9
63,104,0.3125,4,0,4360000,,,6,5
70,104,0.125,5,1,4360000,,,6,2
51,104,0.625,6,1,4360000,,,6,10
58,104,0.1875,7,1,4360000,,,6,3
56,104,0.3125,8,0,4360000,,,6,5
46,104,0.1875,9,1,4360000,,,6,3
58,104,0.3125,10,1,4360000,,,6,5
46,104,0.25,0,1,4360001,,,6,4
51,104,0.6875,0,1,4370000,,,6,11
51,104,0.125,1,0,4370000,,,6,2
63,104,0.4375,2,1,4370000,,,6,7
48,104,0.625,3,1,4370000,,,6,10
63,104,0.3125,4,1,4370000,,,6,5
63,104,0.375,5,0,4370000,,,6,6
48,104,0.1875,6,1,4370000,,,6,3
62,104,0.125,7,1,4370000,,,6,2
55,104,0.125,8,1,4370000,,,6,2
55,104,0.3125,9,0,4370000,,,6,5
43,104,0.25,10,1,4370000,,,6,4
58,104,0.5,11,1,4370000,,,6,8
44,104,0.25,0,1,4370001,,,6,4
44,104,0.375,1,0,4370001,,,6,6
63,104,0.1875,2,1,4370001,,,6,3
63,104,0.625,3,0,4370001,,,6,10
56,104,0.125,4,1,4370001,,,6,2
53,104,0.1875,0,1,4380000,,,6,3
70,104,0.1875,1,1,4380000,,,6,3
56,104,0.1875,2,1,4380000,,,6,3
70,104,0.125,3,1,4380000,,,6,2
54,104,0.25,4,1,4380000,,,6,4
54,104,0.9375,5,0,4380000,,,6,15
42,104,0.1875,6,1,4380000,,,6,3
42,104,0.25,7,0,4380000,,,6,4
42,104,0.125,8,0,4380000,,,6,2
54,104,0.1875,9,1,4380000,,,6,3
54,104,0.5,10,0,4380000,,,6,8
49,104,0.25,11,0,4380000,,,6,4
37,104,0.1875,12,1,4380000,,,6,3
61,104,0.1875,13,1,4380000,,,6,3
53,104,0.375,14,1,4380000,,,6,6
53,104,0.625,0,1,4380001,,,6,10
65,104,0.1875,1,1,4380001,,,6,3
60,104,0.3125,2,0,4380001,,,6,5
60,104,0.1875,3,0,4380001,,,6,3
53,104,0.9375,4,1,4380001,,,6,15
61,104,0.5625,5,1,4380001,,,6,9
38,104,0.1875,0,1,4390000,,,6,3
38,104,0.9375,1,0,4390000,,,6,15
52,104,0.25,2,1,4390000,,,6,4
40,104,0.375,3,1,4390000,,,6,6
40,104,0.3125,4,0,4390000,,,6,5
40,104,0.75,5,0,4390000,,,6,12
57,104,0.9375,6,1,4390000,,,6,15
57,104,0.375,7,1,4390000,,,6,6
57,104,0.9375,0,1,4390001,,,6,15
62,104,0.4375,1,1,4390001,,,6,7
38,104,0.3125,2,1,4390001,,,6,5
62,104,0.375,3,1,4390001,,,6,6
57,104,0.375,4,0,4390001,,,6,6
62,104,0.1875,5,0,4390001,,,6,3
62,104,0.125,6,0,4390001,,,6,2
57,104,0.1875,7,0,4390001,,,6,3
38,104,0.625,8,1,4390001,,,6,10
53,104,0.375,0,1,4400000,,,6,6
53,104,0.5,1,0,4400000,,,6,8
53,104,0.4375,2,0,4400000,,,6,7
41,104,0.3125,3,1,4400000,,,6,5
53,104,0.3125,4,1,4400000,,,6,5
53,104,0.9375,5,0,4400000,,,6,15
36,104,0.25,6,1,4400000,,,6,4
36,104,0.9375,7,0,4400000,,,6,15
36,104,0.375,0,1,4400001,,,6,6
36,104,0.4375,1,0,4400001,,,6,7
36,104,0.5,2,0,4400001,,,6,8
55,104,0.3125,3,1,4400001,,,6,5
46,104,0.1875,4,1,4400001,,,6,3
34,104,0.8125,5,1,4400001,,,6,13
34,104,0.375,6,1,4400001,,,6,6
34,104,0.375,7,0,4400001,,,6,6
34,104,0.3125,8,0,4400001,,,6,5
46,104,0.3125,9,1,4400001,,,6,5
50,104,0.9375,0,1,4400002,,,6,15
38,104,0.3125,1,1,4400002,,,6,5
38,104,0.3125,2,0,4400002,,,6,5
51,104,0.375,0,1,4410000,,,6,6
56,104,0.375,1,0,4410000,,,6,6
53,104,0.25,2,0,4410000,,,6,4
58,104,0.5,3,0,4410000,,,6,8
58,104,0.5625,4,0,4410000,,,6,9
58,104,0.9375,5,0,4410000,,,6,15
58,104,0.375,6,1,4410000,,,6,6
58,104,0.25,7,0,4410000,,,6,4
55,104,0.9375,8,0,4410000,,,6,15
58,104,0.6875,0,1,4410001,,,6,11
70,104,0.8125,1,1,4410001,,,6,13
55,104,0.25,2,1,4410001,,,6,4
65,104,0.5,3,1,4410001,,,6,8
55,104,0.5,4,1,4410001,,,6,8
65,104,0.1875,5,1,4410001,,,6,3
56,104,0.75,6,1,4410001,,,6,12
63,104,0.25,0,1,4420000,,,6,4
55,104,0.1875,1,1,4420000,,,6,3
63,104,0.1875,2,1,4420000,,,6,3
63,104,0.375,3,0,4420000,,,6,6
63,104,0.3125,4,0,4420000,,,6,5
55,104,0.125,5,1,4420000,,,6,2
63,104,0.125,6,1,4420000,,,6,2
53,104,0.25,0,1,4430000,,,6,4
53,104,0.75,1,0,4430000,,,6,12
65,104,0.1875,2,1,4430000,,,6,3
65,104,0.1875,3,0,4430000,,,6,3
53,104,0.375,4,1,4430000,,,6,6
65,104,0.3125,5,1,4430000,,,6,5
53,104,0.5625,6,1,4430000,,,6,9
65,104,0.25,7,1,4430000,,,6,4
65,104,0.25,8,0,4430000,,,6,4
65,104,0.3125,9,0,4430000,,,6,5
58,104,0.75,10,1,4430000,,,6,12
46,104,0.25,0,1,4430001,,,6,4
53,104,0.3125,1,1,4430001,,,6,5
46,104,0.625,2,1,4430001,,,6,10
65,104,0.875,3,1,4430001,,,6,14
46,104,0.5,4,1,4430001,,,6,8
58,104,0.25,5,1,4430001,,,6,4
58,104,0.9375,6,0,4430001,,,6,15
58,104,0.875,7,1,4430001,,,6,14
53,104,0.125,0,1,4430002,,,6,2
65,104,0.125,1,1,4430002,,,6,2
65,104,0.375,2,0,4430002,,,6,6
51,104,0.9375,3,1,4430002,,,6,15
38,104,0.375,0,1,4440000,,,6,6
38,104,0.5625,1,0,4440000,,,6,9
26,104,0.25,2,1,4440000,,,6,4
38,104,0.5,3,1,4440000,,,6,8
50,104,0.25,4,1,4440000,,,6,4
28,104,0.1875,5,1,4440000,,,6,3
52,104,0.5,6,1,4440000,,,6,8
27,104,0.5625,0,1,4450000,,,6,9
27,104,0.375,1,0,4450000,,,6,6
27,104,0.75,2,0,4450000,,,6,12
27,104,0.9375,3,1,4450000,,,6,15
27,104,0.375,4,1,4450000,,,6,6
51,104,0.875,5,1,4450000,,,6,14
51,104,0.25,6,1,4450000,,,6,4
29,104,0.1875,0,1,4450001,,,6,3
41,104,0.4375,1,1,4450001,,,6,7
29,104,0.5625,2,1,4450001,,,6,9
29,104,0.5625,3,0,4450001,,,6,9
41,104,0.9375,4,1,4450001,,,6,15
62,104,0.6875,0,1,4460000,,,6,11
57,104,0.9375,1,0,4460000,,,6,15
62,104,0.75,2,1,4460000,,,6,12
57,104,0.1875,3,1,4460000,,,6,3
62,104,0.8125,4,0,4460000,,,6,13
57,104,0.5,5,1,4460000,,,6,8
57,104,0.8125,6,0,4460000,,,6,13
57,104,0.9375,0,1,4460001,,,6,15
38,104,0.1875,1,1,4460001,,,6,3
62,104,0.9375,2,1,4460001,,,6,15
57,104,0.9375,3,1,4460001,,,6,15
51,104,0.1875,0,1,4470000,,,6,3
58,104,0.75,1,1,4470000,,,6,12
46,104,0.9375,2,1,4470000,,,6,15
58,104,0.3125,3,1,4470000,,,6,5
51,104,0.9375,4,1,4470000,,,6,15
39,104,0.375,5,1,4470000,,,6,6
51,104,0.9375,6,1,4470000,,,6,15
58,104,0.25,0,1,4470001,,,6,4
56,104,0.3125,1,0,4470001,,,6,5
51,104,0.5625,2,0,4470001,,,6,9
51,104,0.375,3,0,4470001,,,6,6
51,104,0.125,4,0,4470001,,,6,2
56,104,0.75,0,1,4480000,,,6,12
49,104,0.1875,1,1,4480000,,,6,3
61,104,0.375,2,1,4480000,,,6,6
61,104,0.5,3,0,4480000,,,6,8
42,104,0.75,4,1,4480000,,,6,12
57,104,0.375,5,1,4480000,,,6,6
66,104,0.4375,6,1,4480000,,,6,7
54,104,0.4375,7,1,4480000,,,6,7
57,104,0.375,8,0,4480000,,,6,6
47,104,0.8125,0,1,4480001,,,6,13
62,104,0.4375,1,1,4480001,,,6,7
57,104,0.625,2,0,4480001,,,6,10
62,104,0.75,3,0,4480001,,,6,12
40,104,0.75,4,1,4480001,,,6,12
64,104,0.1875,5,1,4480001,,,6,3
40,104,0.25,6,1,4480001,,,6,4
40,104,0.3125,0,1,4480002,,,6,5
64,104,0.25,1,1,4480002,,,6,4
40,104,0.3125,2,1,4480002,,,6,5
64,104,0.3125,3,1,4480002,,,6,5
57,104,0.375,4,1,4480002,,,6,6
61,104,0.4375,5,0,4480002,,,6,7
39,104,0.4375,0,1,4490000,,,6,7
46,104,0.9375,1,1,4490000,,,6,15
34,104,0.5625,2,1,4490000,,,6,9
46,104,0.9375,3,1,4490000,,,6,15
46,104,0.9375,4,1,4490000,,,6,15
44,104,0.9375,5,1,4490000,,,6,15
58,104,0.6875,0,1,4490001,,,6,11
58,104,0.6875,1,0,4490001,,,6,11
58,104,0.4375,2,0,4490001,,,6,7
46,104,0.75,3,1,4490001,,,6,12
34,104,0.5,4,1,4490001,,,6,8
46,104,0.9375,5,1,4490001,,,6,15
47,104,0.6875,0,1,4490002,,,6,11
52,104,0.3125,0,1,4500000,,,6,5
52,104,0.375,1,0,4500000,,,6,6
57,104,0.25,2,0,4500000,,,6,4
50,104,0.1875,3,1,4500000,,,6,3
38,104,0.625,4,1,4500000,,,6,10
38,104,0.3125,5,0,4500000,,,6,5
50,104,0.5,6,1,4500000,,,6,8
50,104,0.25,7,0,4500000,,,6,4
56,104,0.375,8,0,4500000,,,6,6
52,104,0.3125,9,0,4500000,,,6,5
52,104,0.125,10,0,4500000,,,6,2
52,104,0.125,11,0,4500000,,,6,2
54,104,0.125,12,0,4500000,,,6,2
30,104,0.5625,13,1,4500000,,,6,9
49,104,0.5,0,1,4500001,,,6,8
54,104,0.25,1,0,4500001,,,6,4
54,104,0.3125,2,0,4500001,,,6,5
45,104,0.25,0,1,4510000,,,6,4
45,104,0.9375,1,0,4510000,,,6,15
66,104,0.375,2,1,4510000,,,6,6
66,104,0.1875,3,0,4510000,,,6,3
38,104,0.3125,4,1,4510000,,,6,5
64,104,0.1875,5,1,4510000,,,6,3
38,104,0.4375,6,1,4510000,,,6,7
38,104,0.9375,7,0,4510000,,,6,15
62,104,0.625,8,1,4510000,,,6,10
38,104,0.1875,0,1,4510001,,,6,3
38,104,0.5625,1,0,4510001,,,6,9
50,104,0.25,2,1,4510001,,,6,4
62,104,0.1875,3,1,4510001,,,6,3
38,104,0.1875,4,1,4510001,,,6,3
50,104,0.6875,5,1,4510001,,,6,11
57,104,0.3125,6,1,4510001,,,6,5
38,104,0.3125,7,1,4510001,,,6,5
38,104,0.4375,8,0,4510001,,,6,7
50,104,0.5,9,1,4510001,,,6,8
38,104,0.1875,10,1,4510001,,,6,3
38,104,0.1875,0,1,4510002,,,6,3
46,104,0.1875,0,1,4520000,,,6,3
58,104,0.8125,1,1,4520000,,,6,13
51,104,0.875,2,1,4520000,,,6,14
46,104,0.6875,3,1,4520000,,,6,11
46,104,0.5,4,0,4520000,,,6,8
51,104,0.5,5,0,4520000,,,6,8
51,104,0.625,6,0,4520000,,,6,10
51,104,0.25,0,1,4520001,,,6,4
58,104,0.1875,1,1,4520001,,,6,3
51,104,0.75,2,1,4520001,,,6,12
58,104,0.1875,3,1,4520001,,,6,3
58,104,0.375,4,0,4520001,,,6,6
58,104,0.1875,5,0,4520001,,,6,3
58,104,0.25,6,0,4520001,,,6,4
60,104,0.75,7,0,4520001,,,6,12
48,104,0.3125,8,1,4520001,,,6,5
56,104,0.1875,0,1,4530000,,,6,3
37,104,0.125,1,1,4530000,,,6,2
54,104,0.125,2,1,4530000,,,6,2
56,104,0.375,3,0,4530000,,,6,6
61,104,0.3125,4,0,4530000,,,6,5
44,104,0.9375,5,1,4530000,,,6,15
44,104,0.375,6,1,4530000,,,6,6
44,104,0.75,7,0,4530000,,,6,12
59,104,0.5,8,1,4530000,,,6,8
51,104,0.5,9,1,4530000,,,6,8
51,104,0.1875,0,1,4530001,,,6,3
63,104,0.4375,1,1,4530001,,,6,7
51,104,0.3125,2,1,4530001,,,6,5
51,104,0.9375,3,0,4530001,,,6,15
63,104,0.1875,4,1,4530001,,,6,3
53,104,0.8125,0,1,4540000,,,6,13
53,104,0.6875,1,1,4540000,,,6,11
53,104,0.1875,2,0,4540000,,,6,3
55,104,0.5,3,0,4540000,,,6,8
67,104,0.1875,4,1,4540000,,,6,3
53,104,0.9375,5,1,4540000,,,6,15
53,104,0.4375,6,1,4540000,,,6,7
53,104,0.25,7,0,4540000,,,6,4
53,104,0.125,0,1,4540001,,,6,2
53,104,0.5625,1,0,4540001,,,6,9
53,104,0.375,2,0,4540001,,,6,6
67,104,0.1875,3,1,4540001,,,6,3
53,104,0.1875,4,1,4540001,,,6,3
28,104,0.3125,5,1,4540001,,,6,5
52,104,0.375,6,1,4540001,,,6,6
52,104,0.375,7,0,4540001,,,6,6
45,104,0.1875,0,1,4550000,,,6,3
52,104,0.625,1,1,4550000,,,6,10
38,104,0.25,2,1,4550000,,,6,4
50,104,0.875,3,1,4550000,,,6,14
57,104,0.125,4,1,4550000,,,6,2
38,104,0.4375,5,1,4550000,,,6,7
38,104,0.5625,6,0,4550000,,,6,9
38,104,0.375,7,0,4550000,,,6,6
59,104,0.375,8,1,4550000,,,6,6
47,104,0.25,9,1,4550000,,,6,4
52,104,0.125,0,1,4550001,,,6,2
56,104,0.1875,1,0,4550001,,,6,3
52,104,0.3125,2,0,4550001,,,6,5
52,104,0.1875,3,0,4550001,,,6,3
52,104,0.1875,4,0,4550001,,,6,3
64,104,0.1875,5,1,4550001,,,6,3
52,104,0.125,6,1,4550001,,,6,2
56,104,0.1875,7,0,4550001,,,6,3
50,104,0.3125,0,1,4560000,,,6,5
31,104,0.25,1,1,4560000,,,6,4
31,104,0.4375,2,0,4560000,,,6,7
31,104,0.1875,3,0,4560000,,,6,3
50,104,0.375,4,1,4560000,,,6,6
31,104,0.3125,5,1,4560000,,,6,5
31,104,0.9375,6,0,4560000,,,6,15
31,104,0.1875,7,1,4560000,,,6,3
31,104,0.9375,8,0,4560000,,,6,15
50,104,0.375,9,1,4560000,,,6,6
50,104,0.9375,0,1,4560001,,,6,15
50,104,0.625,1,1,4560001,,,6,10
50,104,0.25,2,0,4560001,,,6,4
52,104,0.375,3,0,4560001,,,6,6
52,104,0.1875,4,0,4560001,,,6,3
52,104,0.125,5,0,4560001,,,6,2
47,104,0.1875,6,0,4560001,,,6,3
47,104,0.9375,7,0,4560001,,,6,15
52,104,0.625,8,1,4560001,,,6,10
62,104,0.3125,0,1,4560002,,,6,5
38,104,0.625,0,1,4570000,,,6,10
62,104,0.9375,1,1,4570000,,,6,15
50,104,0.5,2,1,4570000,,,6,8
50,104,0.25,3,0,4570000,,,6,4
50,104,0.5,4,0,4570000,,,6,8
57,104,0.375,5,1,4570000,,,6,6
52,104,0.4375,6,0,4570000,,,6,7
62,104,0.1875,7,1,4570000,,,6,3
62,104,0.1875,8,0,4570000,,,6,3
52,104,0.3125,0,1,4570001,,,6,5
52,104,0.3125,1,0,4570001,,,6,5
52,104,0.25,2,0,4570001,,,6,4
62,104,0.9375,3,1,4570001,,,6,15
52,104,0.3125,4,1,4570001,,,6,5
62,104,0.9375,5,1,4570001,,,6,15
60,104,0.1875,6,1,4570001,,,6,3
62,104,0.4375,7,0,4570001,,,6,7
50,104,0.125,8,1,4570001,,,6,2
62,104,0.9375,0,1,4580000,,,6,15
31,104,0.1875,1,1,4580000,,,6,3
53,104,0.875,2,1,4580000,,,6,14
67,104,0.25,3,1,4580000,,,6,4
50,104,0.5,4,1,4580000,,,6,8
31,104,0.5625,5,1,4580000,,,6,9
43,104,0.625,0,1,4590000,,,6,10
63,104,0.25,1,1,4590000,,,6,4
63,104,0.375,2,0,4590000,,,6,6
60,104,0.4375,3,0,4590000,,,6,7
55,104,0.3125,4,0,4590000,,,6,5
48,104,0.1875,5,1,4590000,,,6,3
53,104,0.1875,6,0,4590000,,,6,3
53,104,0.1875,7,0,4590000,,,6,3
63,104,0.6875,8,1,4590000,,,6,11
63,104,0.1875,9,0,4590000,,,6,3
63,104,0.125,10,0,4590000,,,6,2
63,104,0.1875,11,0,4590000,,,6,3
63,104,0.3125,12,0,4590000,,,6,5
63,104,0.125,0,1,4590001,,,6,2
63,104,0.375,1,0,4590001,,,6,6
53,104,0.3125,2,1,4590001,,,6,5
46,104,0.1875,3,1,4590001,,,6,3
60,104,0.1875,4,1,4590001,,,6,3
53,104,0.5,5,1,4590001,,,6,8
60,104,0.1875,0,1,4600000,,,6,3
41,104,0.1875,1,1,4600000,,,6,3
60,104,0.25,2,1,4600000,,,6,4
60,104,0.6875,3,0,4600000,,,6,11
53,104,0.25,4,1,4600000,,,6,4
60,104,0.75,5,1,4600000,,,6,12
69,104,0.125,6,1,4600000,,,6,2
60,104,0.5,7,1,4600000,,,6,8
60,104,0.25,8,0,4600000,,,6,4
53,104,0.375,9,1,4600000,,,6,6
53,104,0.25,10,0,4600000,,,6,4
60,104,0.0625,11,1,4600000,,,6,1
60,104,0.5625,0,1,4610000,,,6,9
58,104,0.25,1,0,4610000,,,6,4
58,104,0.1875,2,0,4610000,,,6,3
53,104,0.4375,3,0,4610000,,,6,7
48,104,0.125,4,0,4610000,,,6,2
60,104,0.1875,5,1,4610000,,,6,3
53,104,0.3125,6,1,4610000,,,6,5
60,104,0.1875,7,1,4610000,,,6,3
50,104,0.75,8,1,4610000,,,6,12
60,104,0.375,9,1,4610000,,,6,6
55,104,0.3125,10,0,4610000,,,6,5
36,104,0.4375,11,1,4610000,,,6,7
48,104,0.1875,0,1,4610001,,,6,3
41,104,0.3125,1,1,4610001,,,6,5
60,104,0.9375,2,1,4610001,,,6,15
53,104,0.25,3,1,4610001,,,6,4
41,104,0.25,4,1,4610001,,,6,4
47,104,0.25,0,1,4620000,,,6,4
47,104,0.75,1,0,4620000,,,6,12
52,104,0.25,2,1,4620000,,,6,4
52,104,0.8125,3,0,4620000,,,6,13
56,104,0.875,4,1,4620000,,,6,14
52,104,0.75,5,1,4620000,,,6,12
26,104,0.375,6,1,4620000,,,6,6
50,104,0.9375,0,1,4620001,,,6,15
50,104,0.1875,1,1,4620001,,,6,3
64,104,0.3125,2,1,4620001,,,6,5
50,104,0.9375,3,1,4620001,,,6,15
38,104,0.0,4,1,4620001,,,6,0
36,104,0.25,0,1,4630000,,,6,4
55,104,0.4375,1,1,4630000,,,6,7
48,104,0.1875,2,1,4630000,,,6,3
48,104,0.375,3,0,4630000,,,6,6
53,104,0.4375,4,0,4630000,,,6,7
48,104,0.25,5,0,4630000,,,6,4
53,104,0.4375,6,0,4630000,,,6,7
53,104,0.1875,7,0,4630000,,,6,3
55,104,0.9375,8,0,4630000,,,6,15
61,104,0.25,0,1,4640000,,,6,4
57,104,0.9375,1,0,4640000,,,6,15
52,104,0.25,2,1,4640000,,,6,4
52,104,0.5625,3,0,4640000,,,6,9
42,104,0.25,4,1,4640000,,,6,4
52,104,0.625,5,1,4640000,,,6,10
57,104,0.8125,6,0,4640000,,,6,13
42,104,0.3125,7,1,4640000,,,6,5
57,104,0.625,0,1,4640001,,,6,10
52,104,0.1875,1,0,4640001,,,6,3
42,104,0.25,2,1,4640001,,,6,4
57,104,0.9375,3,1,4640001,,,6,15
52,104,0.9375,4,1,4640001,,,6,15
57,104,0.5,5,1,4640001,,,6,8
52,104,0.375,6,0,4640001,,,6,6
50,104,0.3125,7,0,4640001,,,6,5
38,104,0.3125,0,1,4640002,,,6,5
42,104,0.1875,1,0,4640002,,,6,3
57,104,0.0,2,1,4640002,,,6,0
69,104,0.3125,0,1,4650000,,,6,5
33,104,0.3125,1,1,4650000,,,6,5
33,104,0.125,2,0,4650000,,,6,2
57,104,0.5,3,1,4650000,,,6,8
45,104,0.75,4,1,4650000,,,6,12
33,104,0.1875,5,1,4650000,,,6,3
61,104,0.1875,6,1,4650000,,,6,3
61,104,0.625,7,0,4650000,,,6,10
57,104,0.5,8,0,4650000,,,6,8
57,104,0.3125,9,0,4650000,,,6,5
57,104,0.4375,10,0,4650000,,,6,7
40,104,0.125,0,1,4650001,,,6,2
52,104,0.375,1,1,4650001,,,6,6
52,104,0.25,2,0,4650001,,,6,4
64,104,0.25,3,1,4650001,,,6,4
59,104,0.4375,4,0,4650001,,,6,7
61,104,0.125,5,0,4650001,,,6,2
53,104,0.9375,6,1,4650001,,,6,15
53,104,0.25,0,1,4660000,,,6,4
41,104,0.1875,1,1,4660000,,,6,3
44,104,0.375,2,0,4660000,,,6,6
32,104,0.25,3,1,4660000,,,6,4
51,104,0.1875,4,1,4660000,,,6,3
32,104,0.625,5,1,4660000,,,6,10
44,104,0.125,6,1,4660000,,,6,2
56,104,0.25,7,1,4660000,,,6,4
44,104,0.6875,8,1,4660000,,,6,11
51,104,0.1875,9,1,4660000,,,6,3
51,104,0.25,10,0,4660000,,,6,4
42,104,0.125,11,1,4660000,,,6,2
54,104,0.25,12,1,4660000,,,6,4
54,104,0.1875,13,0,4660000,,,6,3
42,104,0.25,14,1,4660000,,,6,4
54,104,0.8125,0,1,4660001,,,6,13
57,104,0.3125,0,1,4670000,,,6,5
60,104,0.1875,1,0,4670000,,,6,3
57,104,0.4375,2,0,4670000,,,6,7
57,104,0.9375,3,0,4670000,,,6,15
57,104,0.1875,4,1,4670000,,,6,3
50,104,0.3125,5,1,4670000,,,6,5
62,104,0.3125,6,1,4670000,,,6,5
53,104,0.375,7,1,4670000,,,6,6
60,104,0.4375,8,1,4670000,,,6,7
60,104,0.3125,9,0,4670000,,,6,5
53,104,0.25,10,1,4670000,,,6,4
53,104,0.3125,0,1,4670001,,,6,5
58,104,0.9375,1,0,4670001,,,6,15
58,104,0.4375,2,1,4670001,,,6,7
58,104,0.1875,3,0,4670001,,,6,3
58,104,0.125,4,0,4670001,,,6,2
61,104,0.375,0,1,4680000,,,6,6
54,104,0.9375,1,1,4680000,,,6,15
42,104,0.625,2,1,4680000,,,6,10
42,104,0.25,3,0,4680000,,,6,4
54,104,0.375,4,1,4680000,,,6,6
42,104,0.125,5,1,4680000,,,6,2
54,104,0.1875,6,1,4680000,,,6,3
54,104,0.25,7,0,4680000,,,6,4
42,104,0.25,8,1,4680000,,,6,4
54,104,0.1875,9,1,4680000,,,6,3
42,104,0.5,10,1,4680000,,,6,8
51,104,0.375,0,1,4680001,,,6,6
51,104,0.625,1,0,4680001,,,6,10
44,104,0.75,2,1,4680001,,,6,12
56,104,0.75,3,1,4680001,,,6,12
44,104,0.1875,4,1,4680001,,,6,3
32,104,0.25,5,1,4680001,,,6,4
51,104,0.3125,6,1,4680001,,,6,5
51,104,0.25,7,0,4680001,,,6,4
51,104,0.5625,8,0,4680001,,,6,9
54,104,0.25,0,1,4680002,,,6,4
49,104,0.1875,1,0,4680002,,,6,3
61,104,0.5,2,1,4680002,,,6,8
62,104,0.9375,0,1,4690000,,,6,15
57,104,0.25,1,1,4690000,,,6,4
57,104,0.4375,2,0,4690000,,,6,7
45,104,0.5,3,1,4690000,,,6,8
57,104,0.1875,4,1,4690000,,,6,3
57,104,0.25,5,0,4690000,,,6,4
49,104,0.75,6,1,4690000,,,6,12
38,104,0.4375,7,1,4690000,,,6,7
57,104,0.5,8,1,4690000,,,6,8
57,104,0.1875,0,1,4690001,,,6,3
64,104,0.375,1,1,4690001,,,6,6
59,104,0.25,2,0,4690001,,,6,4
56,104,0.25,3,0,4690001,,,6,4
59,104,0.25,4,0,4690001,,,6,4
57,104,0.3125,5,0,4690001,,,6,5
59,104,0.125,6,0,4690001,,,6,2
61,104,0.125,7,0,4690001,,,6,2
61,104,0.75,8,0,4690001,,,6,12
61,104,0.6875,9,1,4690001,,,6,11
57,104,0.3125,10,0,4690001,,,6,5
58,104,0.9375,0,1,4700000,,,6,15
58,104,0.5,1,1,4700000,,,6,8
39,104,0.25,2,1,4700000,,,6,4
58,104,0.5625,3,1,4700000,,,6,9
39,104,0.1875,4,1,4700000,,,6,3
60,104,0.3125,5,1,4700000,,,6,5
60,104,0.4375,6,0,4700000,,,6,7
41,104,0.1875,7,1,4700000,,,6,3
41,104,0.1875,8,0,4700000,,,6,3
60,104,0.25,9,1,4700000,,,6,4
41,104,0.375,10,1,4700000,,,6,6
60,104,0.5,0,1,4700001,,,6,8
53,104,0.875,0,1,4710000,,,6,14
53,104,0.9375,1,1,4710000,,,6,15
89,104,0.125,2,1,4710000,,,6,2
77,104,0.25,3,1,4710000,,,6,4
49,104,0.4375,4,1,4710000,,,6,7
49,104,0.1875,5,0,4710000,,,6,3
49,104,0.25,6,0,4710000,,,6,4
49,104,0.1875,7,0,4710000,,,6,3
63,104,0.5625,8,1,4710000,,,6,9
63,104,0.8125,9,0,4710000,,,6,13
51,104,0.3125,0,1,4710001,,,6,5
63,104,0.1875,1,1,4710001,,,6,3
52,104,0.1875,0,1,4720000,,,6,3
50,104,0.9375,1,0,4720000,,,6,15
50,104,0.25,2,1,4720000,,,6,4
55,104,0.75,3,0,4720000,,,6,12
55,104,0.5,4,1,4720000,,,6,8
62,104,0.1875,5,1,4720000,,,6,3
50,104,0.8125,6,1,4720000,,,6,13
55,104,0.3125,7,1,4720000,,,6,5
55,104,0.5625,8,0,4720000,,,6,9
52,104,0.4375,0,1,4720001,,,6,7
52,104,0.3125,1,0,4720001,,,6,5
52,104,0.5,2,0,4720001,,,6,8
52,104,0.9375,3,0,4720001,,,6,15
41,104,0.375,0,1,4730000,,,6,6
60,104,0.25,1,1,4730000,,,6,4
43,104,0.25,2,1,4730000,,,6,4
31,104,0.25,3,1,4730000,,,6,4
31,104,0.25,4,0,4730000,,,6,4
31,104,0.4375,5,0,4730000,,,6,7
31,104,0.375,6,0,4730000,,,6,6
55,104,0.5,7,1,4730000,,,6,8
53,104,0.3125,8,0,4730000,,,6,5
53,104,0.375,9,0,4730000,,,6,6
53,104,0.25,10,0,4730000,,,6,4
53,104,0.25,11,0,4730000,,,6,4
29,104,0.3125,12,1,4730000,,,6,5
53,104,0.4375,0,1,4730001,,,6,7
41,104,0.375,1,1,4730001,,,6,6
41,104,0.3125,2,0,4730001,,,6,5
41,104,0.1875,3,0,4730001,,,6,3
47,104,0.25,0,1,4740000,,,6,4
47,104,0.1875,1,0,4740000,,,6,3
47,104,0.9375,2,0,4740000,,,6,15
47,104,0.9375,3,1,4740000,,,6,15
47,104,0.6875,4,1,4740000,,,6,11
47,104,0.1875,5,0,4740000,,,6,3
48,104,0.9375,6,0,4740000,,,6,15
48,104,0.9375,0,1,4740001,,,6,15
43,104,0.3125,0,1,4750000,,,6,5
53,104,0.1875,1,1,4750000,,,6,3
34,104,0.1875,2,1,4750000,,,6,3
34,104,0.5,3,0,4750000,,,6,8
34,104,0.25,4,0,4750000,,,6,4
53,104,0.1875,5,1,4750000,,,6,3
34,104,0.25,6,1,4750000,,,6,4
34,104,0.1875,7,0,4750000,,,6,3
46,104,0.6875,0,1,4760000,,,6,11
53,104,0.125,1,1,4760000,,,6,2
34,104,0.5,2,1,4760000,,,6,8
57,104,0.4375,3,1,4760000,,,6,7
53,104,0.75,4,0,4760000,,,6,12
34,104,0.3125,5,1,4760000,,,6,5
53,104,0.9375,6,1,4760000,,,6,15
53,104,0.375,7,1,4760000,,,6,6
53,104,0.875,0,1,4760001,,,6,14
55,104,0.4375,1,1,4760001,,,6,7
46,104,0.375,2,1,4760001,,,6,6
34,104,0.375,3,1,4760001,,,6,6
53,104,0.5,4,1,4760001,,,6,8
34,104,0.375,5,1,4760001,,,6,6
55,104,0.3125,6,1,4760001,,,6,5
59,104,0.1875,0,1,4770000,,,6,3
57,104,0.3125,1,0,4770000,,,6,5
59,104,0.3125,2,0,4770000,,,6,5
40,104,0.1875,3,1,4770000,,,6,3
59,104,0.4375,4,1,4770000,,,6,7
59,104,0.3125,5,0,4770000,,,6,5
57,104,0.25,6,0,4770000,,,6,4
45,104,0.5625,7,1,4770000,,,6,9
57,104,0.25,8,1,4770000,,,6,4
69,104,0.4375,9,1,4770000,,,6,7
43,104,0.25,10,1,4770000,,,6,4
62,104,0.3125,11,1,4770000,,,6,5
50,104,0.25,12,1,4770000,,,6,4
38,104,0.25,0,1,4770001,,,6,4
50,104,0.25,1,1,4770001,,,6,4
57,104,0.8125,2,1,4770001,,,6,13
52,104,0.9375,3,1,4770001,,,6,15
57,104,0.375,0,1,4780000,,,6,6
38,104,0.25,1,1,4780000,,,6,4
57,104,0.375,2,1,4780000,,,6,6
57,104,0.3125,3,0,4780000,,,6,5
59,104,0.8125,4,0,4780000,,,6,13
59,104,0.1875,5,1,4780000,,,6,3
59,104,0.625,6,0,4780000,,,6,10
59,104,0.3125,7,0,4780000,,,6,5
59,104,0.75,8,0,4780000,,,6,12
53,104,0.4375,0,1,4780001,,,6,7
59,104,0.3125,1,0,4780001,,,6,5
42,104,0.0625,2,1,4780001,,,6,1
45,104,0.1875,0,1,4790000,,,6,3
45,104,0.4375,1,0,4790000,,,6,7
57,104,0.25,2,1,4790000,,,6,4
57,104,0.9375,3,0,4790000,,,6,15
61,104,0.1875,4,1,4790000,,,6,3
57,104,0.375,5,0,4790000,,,6,6
45,104,0.375,6,1,4790000,,,6,6
62,104,0.5625,7,1,4790000,,,6,9
62,104,0.5625,8,0,4790000,,,6,9
59,104,0.5625,9,0,4790000,,,6,9
64,104,0.1875,0,1,4790001,,,6,3
45,104,0.25,1,1,4790001,,,6,4
57,104,0.9375,2,1,4790001,,,6,15
57,104,0.3125,3,1,4790001,,,6,5
58,104,0.8125,4,0,4790001,,,6,13
58,104,0.6875,0,1,4800000,,,6,11
53,104,0.25,1,0,4800000,,,6,4
53,104,0.8125,2,0,4800000,,,6,13
51,104,0.9375,3,1,4800000,,,6,15
51,104,0.25,4,1,4800000,,,6,4
29,104,0.1875,5,1,4800000,,,6,3
29,104,0.75,6,0,4800000,,,6,12
53,104,0.4375,7,1,4800000,,,6,7
29,104,0.5,0,1,4800001,,,6,8
53,104,0.4375,1,1,4800001,,,6,7
41,104,0.3125,2,1,4800001,,,6,5
31,104,0.9375,3,1,4800001,,,6,15
31,104,0.25,4,1,4800001,,,6,4
31,104,0.25,5,0,4800001,,,6,4
31,104,0.8125,6,0,4800001,,,6,13
31,104,0.4375,7,1,4800001,,,6,7
57,104,0.125,0,1,4810000,,,6,2
55,104,0.75,1,0,4810000,,,6,12
43,104,0.25,2,1,4810000,,,6,4
55,104,0.6875,3,1,4810000,,,6,11
55,104,0.3125,4,0,4810000,,,6,5
33,104,0.875,5,1,4810000,,,6,14
55,104,0.25,6,1,4810000,,,6,4
55,104,0.125,7,0,4810000,,,6,2
55,104,0.25,8,0,4810000,,,6,4
45,104,0.5,9,1,4810000,,,6,8
46,104,0.5625,0,1,4810001,,,6,9
46,104,0.125,1,0,4810001,,,6,2
46,104,0.1875,2,0,4810001,,,6,3
46,104,0.125,3,0,4810001,,,6,2
34,104,0.125,4,1,4810001,,,6,2
34,104,0.125,5,0,4810001,,,6,2
34,104,0.125,6,0,4810001,,,6,2
34,104,0.3125,7,0,4810001,,,6,5
46,104,0.375,8,1,4810001,,,6,6
46,104,0.125,9,0,4810001,,,6,2
46,104,0.625,10,0,4810001,,,6,10
55,104,0.125,11,1,4810001,,,6,2
34,104,0.1875,0,1,4820000,,,6,3
34,104,0.375,1,0,4820000,,,6,6
58,104,0.25,2,1,4820000,,,6,4
34,104,0.4375,3,1,4820000,,,6,7
46,104,0.375,4,1,4820000,,,6,6
34,104,0.25,5,1,4820000,,,6,4
34,104,0.3125,6,0,4820000,,,6,5
46,104,0.9375,7,1,4820000,,,6,15
46,104,0.1875,8,1,4820000,,,6,3
34,104,0.3125,9,1,4820000,,,6,5
53,104,0.6875,10,1,4820000,,,6,11
53,104,0.5625,0,1,4820001,,,6,9
41,104,0.3125,1,1,4820001,,,6,5
29,104,0.25,2,1,4820001,,,6,4
41,104,0.4375,3,1,4820001,,,6,7
53,104,0.25,4,1,4820001,,,6,4
41,104,0.25,5,1,4820001,,,6,4
29,104,0.1875,6,1,4820001,,,6,3
60,104,0.5625,7,1,4820001,,,6,9
41,104,0.25,8,1,4820001,,,6,4
29,104,0.1875,9,1,4820001,,,6,3
29,104,0.4375,10,0,4820001,,,6,7
53,104,0.3125,0,1,4820002,,,6,5
29,104,0.1875,1,1,4820002,,,6,3
60,104,0.1875,2,1,4820002,,,6,3
29,104,0.25,3,1,4820002,,,6,4
55,104,0.1875,4,1,4820002,,,6,3
65,104,0.1875,5,1,4820002,,,6,3
54,104,0.75,0,1,4830000,,,6,12
61,104,0.9375,1,1,4830000,,,6,15
62,104,0.4375,2,1,4830000,,,6,7
59,104,0.3125,3,0,4830000,,,6,5
62,104,0.875,4,0,4830000,,,6,14
66,104,0.1875,5,1,4830000,,,6,3
66,104,0.3125,6,0,4830000,,,6,5
59,104,0.125,7,1,4830000,,,6,2
40,104,0.1875,8,1,4830000,,,6,3
52,104,0.5625,0,1,4830001,,,6,9
59,104,0.375,1,1,4830001,,,6,6
52,104,0.8125,2,1,4830001,,,6,13
61,104,0.9375,3,1,4830001,,,6,15
61,104,0.1875,4,1,4830001,,,6,3
61,104,0.9375,5,0,4830001,,,6,15
61,104,0.25,6,1,4830001,,,6,4
61,104,0.125,0,1,4830002,,,6,2
61,104,0.9375,1,0,4830002,,,6,15
57,104,0.3125,2,1,4830002,,,6,5
61,104,0.375,0,1,4840000,,,6,6
49,104,0.25,1,1,4840000,,,6,4
64,104,0.375,2,1,4840000,,,6,6
59,104,0.3125,3,0,4840000,,,6,5
59,104,0.25,4,0,4840000,,,6,4
54,104,0.8125,5,0,4840000,,,6,13
59,104,0.75,6,1,4840000,,,6,12
64,104,0.1875,7,1,4840000,,,6,3
33,104,0.5,8,1,4840000,,,6,8
45,104,0.5625,9,1,4840000,,,6,9
33,104,0.25,0,1,4840001,,,6,4
45,104,0.25,1,1,4840001,,,6,4
57,104,0.375,2,1,4840001,,,6,6
35,104,0.875,3,1,4840001,,,6,14
35,104,0.5625,4,1,4840001,,,6,9
59,104,0.25,5,1,4840001,,,6,4
53,104,0.1875,0,1,4850000,,,6,3
46,104,0.25,1,1,4850000,,,6,4
51,104,0.9375,2,0,4850000,,,6,15
58,104,0.4375,3,1,4850000,,,6,7
58,104,0.125,4,0,4850000,,,6,2
46,104,0.125,5,1,4850000,,,6,2
51,104,0.125,6,0,4850000,,,6,2
51,104,0.125,7,0,4850000,,,6,2
51,104,0.5625,8,0,4850000,,,6,9
65,104,0.5625,9,1,4850000,,,6,9
65,104,0.125,10,0,4850000,,,6,2
46,104,0.3125,11,1,4850000,,,6,5
46,104,0.25,12,0,4850000,,,6,4
65,104,0.1875,0,1,4850001,,,6,3
46,104,0.75,1,1,4850001,,,6,12
65,104,0.25,2,1,4850001,,,6,4
46,104,0.1875,3,1,4850001,,,6,3
65,104,0.1875,4,1,4850001,,,6,3
46,104,0.1875,5,1,4850001,,,6,3
46,104,0.25,6,0,4850001,,,6,4
51,104,0.6875,7,0,4850001,,,6,11
55,104,0.6875,0,1,4860000,,,6,11
53,104,0.375,1,0,4860000,,,6,6
29,104,0.3125,2,1,4860000,,,6,5
53,104,0.375,3,1,4860000,,,6,6
53,104,0.3125,4,0,4860000,,,6,5
48,104,0.4375,5,0,4860000,,,6,7
55,104,0.5625,6,1,4860000,,,6,9
52,104,0.1875,7,0,4860000,,,6,3
55,104,0.25,8,0,4860000,,,6,4
57,104,0.9375,9,0,4860000,,,6,15
62,104,0.1875,0,1,4860001,,,6,3
57,104,0.4375,1,0,4860001,,,6,7
50,104,0.1875,2,1,4860001,,,6,3
50,104,0.25,3,0,4860001,,,6,4
43,104,0.25,4,1,4860001,,,6,4
50,104,0.75,5,1,4860001,,,6,12
55,104,0.125,0,1,4870000,,,6,2
55,104,0.3125,1,0,4870000,,,6,5
41,104,0.1875,2,1,4870000,,,6,3
55,104,0.3125,3,1,4870000,,,6,5
52,104,0.9375,4,0,4870000,,,6,15
52,104,0.1875,5,1,4870000,,,6,3
41,104,0.25,6,1,4870000,,,6,4
52,104,0.9375,7,1,4870000,,,6,15
52,104,0.3125,8,1,4870000,,,6,5
36,104,0.5625,9,1,4870000,,,6,9
64,104,0.3125,0,1,4870001,,,6,5
43,104,0.3125,1,1,4870001,,,6,5
55,104,0.875,2,1,4870001,,,6,14
43,104,0.1875,3,1,4870001,,,6,3
53,104,0.3125,0,1,4880000,,,6,5
31,104,0.9375,1,1,4880000,,,6,15
58,104,0.5625,2,1,4880000,,,6,9
36,104,0.5625,3,1,4880000,,,6,9
48,104,0.25,4,1,4880000,,,6,4
53,104,0.375,5,0,4880000,,,6,6
53,104,0.25,6,0,4880000,,,6,4
53,104,0.1875,7,0,4880000,,,6,3
53,104,0.1875,8,0,4880000,,,6,3
58,104,0.1875,9,0,4880000,,,6,3
46,104,0.1875,10,1,4880000,,,6,3
27,104,0.625,0,1,4880001,,,6,10
46,104,0.375,1,1,4880001,,,6,6
51,104,0.1875,2,0,4880001,,,6,3
27,104,0.25,3,1,4880001,,,6,4
51,104,0.9375,0,1,4890000,,,6,15
56,104,0.9375,1,1,4890000,,,6,15
53,104,0.5,2,1,4890000,,,6,8
56,104,0.5625,3,0,4890000,,,6,9
56,104,0.9375,4,0,4890000,,,6,15
58,104,0.9375,5,1,4890000,,,6,15
58,104,0.625,0,1,4890001,,,6,10
70,104,0.25,1,1,4890001,,,6,4
58,104,0.25,2,1,4890001,,,6,4
51,104,0.25,3,1,4890001,,,6,4
53,104,0.3125,4,0,4890001,,,6,5
53,104,0.25,5,0,4890001,,,6,4
43,104,0.375,0,1,4900000,,,6,6
55,104,0.8125,1,1,4900000,,,6,13
55,104,0.9375,2,1,4900000,,,6,15
44,104,0.1875,3,1,4900000,,,6,3
46,104,0.25,4,0,4900000,,,6,4
46,104,0.25,5,0,4900000,,,6,4
34,104,0.3125,6,1,4900000,,,6,5
46,104,0.75,7,1,4900000,,,6,12
34,104,0.1875,8,1,4900000,,,6,3
31,104,0.3125,0,1,4900001,,,6,5
64,104,0.1875,0,1,4910000,,,6,3
61,104,0.375,1,0,4910000,,,6,6
57,104,0.1875,2,0,4910000,,,6,3
57,104,0.1875,3,0,4910000,,,6,3
57,104,0.8125,4,0,4910000,,,6,13
61,104,0.5625,5,1,4910000,,,6,9
61,104,0.5625,6,0,4910000,,,6,9
61,104,0.625,7,0,4910000,,,6,10
49,104,0.1875,8,1,4910000,,,6,3
57,104,0.25,9,1,4910000,,,6,4
61,104,0.125,10,0,4910000,,,6,2
54,104,0.5625,0,1,4910001,,,6,9
57,104,0.25,1,0,4910001,,,6,4
57,104,0.125,2,0,4910001,,,6,2
57,104,0.25,3,0,4910001,,,6,4
56,104,0.1875,4,0,4910001,,,6,3
56,104,0.9375,5,0,4910001,,,6,15
61,104,0.375,6,1,4910001,,,6,6
57,104,0.0625,7,0,4910001,,,6,1
52,104,0.25,0,1,4920000,,,6,4
52,104,0.25,1,0,4920000,,,6,4
45,104,0.75,2,1,4920000,,,6,12
33,104,0.1875,3,1,4920000,,,6,3
45,104,0.5,4,1,4920000,,,6,8
45,104,0.8125,5,0,4920000,,,6,13
45,104,0.375,6,1,4920000,,,6,6
33,104,0.3125,7,1,4920000,,,6,5
28,104,0.125,8,0,4920000,,,6,2
28,104,0.3125,9,0,4920000,,,6,5
47,104,0.6875,10,1,4920000,,,6,11
47,104,0.375,0,1,4920001,,,6,6
40,104,0.3125,1,1,4920001,,,6,5
56,104,0.625,2,1,4920001,,,6,10
52,104,0.375,3,0,4920001,,,6,6
63,104,0.3125,0,1,4930000,,,6,5
63,104,0.1875,1,0,4930000,,,6,3
46,104,0.125,2,1,4930000,,,6,2
58,104,0.125,3,1,4930000,,,6,2
67,104,0.75,4,1,4930000,,,6,12
67,104,0.25,5,1,4930000,,,6,4
67,104,0.1875,6,0,4930000,,,6,3
67,104,0.375,7,0,4930000,,,6,6
67,104,0.375,8,0,4930000,,,6,6
67,104,0.75,9,0,4930000,,,6,12
58,104,0.5,10,1,4930000,,,6,8
44,104,0.375,11,1,4930000,,,6,6
58,104,0.125,0,1,4930001,,,6,2
34,104,0.1875,1,1,4930001,,,6,3
53,104,0.25,2,1,4930001,,,6,4
34,104,0.25,3,1,4930001,,,6,4
34,104,0.1875,4,0,4930001,,,6,3
58,104,0.1875,5,1,4930001,,,6,3
53,104,0.375,0,1,4940000,,,6,6
53,104,0.25,1,0,4940000,,,6,4
53,104,0.25,2,0,4940000,,,6,4
53,104,0.625,3,0,4940000,,,6,10
46,104,0.625,4,1,4940000,,,6,10
58,104,0.1875,5,1,4940000,,,6,3
70,104,0.25,6,1,4940000,,,6,4
46,104,0.25,7,1,4940000,,,6,4
58,104,0.1875,8,1,4940000,,,6,3
46,104,0.25,9,1,4940000,,,6,4
58,104,0.125,10,1,4940000,,,6,2
58,104,0.25,11,0,4940000,,,6,4
58,104,0.5,12,0,4940000,,,6,8
58,104,0.1875,0,1,4940001,,,6,3
56,104,0.25,1,0,4940001,,,6,4
58,104,0.1875,2,0,4940001,,,6,3
58,104,0.25,3,0,4940001,,,6,4
58,104,0.25,4,0,4940001,,,6,4
69,104,0.1875,0,1,4950000,,,6,3
35,104,0.5625,1,1,4950000,,,6,9
47,104,0.75,2,1,4950000,,,6,12
46,104,0.1875,3,1,4950000,,,6,3
50,104,0.3125,4,0,4950000,,,6,5
38,104,0.5625,5,1,4950000,,,6,9
50,104,0.75,6,1,4950000,,,6,12
50,104,0.9375,7,1,4950000,,,6,15
47,104,0.25,0,1,4950001,,,6,4
47,104,0.4375,1,0,4950001,,,6,7
28,104,0.625,2,1,4950001,,,6,10
47,104,0.6875,3,1,4950001,,,6,11
47,104,0.3125,4,0,4950001,,,6,5
52,104,0.25,5,0,4950001,,,6,4
56,104,0.625,6,0,4950001,,,6,10
56,104,0.75,7,0,4950001,,,6,12
56,104,0.0,0,1,4950002,,,6,0
52,104,0.1875,0,1,4960000,,,6,3
52,104,0.3125,1,0,4960000,,,6,5
52,104,0.375,2,0,4960000,,,6,6
55,104,0.25,3,0,4960000,,,6,4
38,104,0.5625,4,1,4960000,,,6,9
35,104,0.625,5,0,4960000,,,6,10
55,104,0.125,6,1,4960000,,,6,2
63,104,0.1875,0,1,4970000,,,6,3
39,104,0.5625,1,1,4970000,,,6,9
56,104,0.375,2,1,4970000,,,6,6
63,104,0.375,3,1,4970000,,,6,6
53,104,0.5,4,1,4970000,,,6,8
62,104,0.125,5,1,4970000,,,6,2
50,104,0.25,0,1,4980000,,,6,4
50,104,0.375,1,0,4980000,,,6,6
28,104,0.625,2,1,4980000,,,6,10
28,104,0.25,3,0,4980000,,,6,4
28,104,0.1875,4,0,4980000,,,6,3
45,104,0.8125,5,1,4980000,,,6,13
33,104,0.6875,6,1,4980000,,,6,11
45,104,0.25,7,1,4980000,,,6,4
33,104,0.625,8,1,4980000,,,6,10
47,104,0.9375,0,1,4980001,,,6,15
47,104,0.625,1,1,4980001,,,6,10
47,104,0.5625,2,0,4980001,,,6,9
38,104,0.1875,3,1,4980001,,,6,3
50,104,0.9375,4,1,4980001,,,6,15
50,104,0.3125,5,1,4980001,,,6,5
38,104,0.25,6,1,4980001,,,6,4
59,104,0.4375,0,1,4990000,,,6,7
57,104,0.1875,1,0,4990000,,,6,3
45,104,0.9375,2,1,4990000,,,6,15
45,104,0.25,3,1,4990000,,,6,4
45,104,0.125,4,0,4990000,,,6,2
61,104,0.625,5,1,4990000,,,6,10
54,104,0.75,6,1,4990000,,,6,12
57,104,0.4375,7,1,4990000,,,6,7
54,104,0.5625,8,0,4990000,,,6,9
57,104,0.4375,0,1,4990001,,,6,7
57,104,0.625,1,0,4990001,,,6,10
62,104,0.9375,2,0,4990001,,,6,15
69,104,0.3125,3,1,4990001,,,6,5
62,104,0.9375,4,1,4990001,,,6,15
40,104,0.9375,5,1,4990001,,,6,15
40,104,0.6875,0,1,4990002,,,6,11
40,104,0.3125,1,0,4990002,,,6,5
40,104,0.5,2,0,4990002,,,6,8
59,104,0.125,3,1,4990002,,,6,2
33,104,0.1875,4,1,4990002,,,6,3
52,104,0.375,5,1,4990002,,,6,6
40,104,0.25,0,1,5000000,,,6,4
59,104,0.5625,1,1,5000000,,,6,9
59,104,0.375,2,0,5000000,,,6,6
61,104,0.375,3,0,5000000,,,6,6
59,104,0.75,4,0,5000000,,,6,12
64,104,0.25,5,1,5000000,,,6,4
57,104,0.4375,6,1,5000000,,,6,7
61,104,0.1875,7,0,5000000,,,6,3
57,104,0.375,8,0,5000000,,,6,6
57,104,0.5,9,0,5000000,,,6,8
57,104,0.25,0,1,5000001,,,6,4
40,104,0.25,1,1,5000001,,,6,4
56,104,0.375,0,1,5010000,,,6,6
59,104,0.1875,1,0,5010000,,,6,3
49,104,0.25,2,1,5010000,,,6,4
37,104,0.25,3,1,5010000,,,6,4
56,104,0.3125,4,1,5010000,,,6,5
37,104,0.5,5,1,5010000,,,6,8
56,104,0.3125,6,1,5010000,,,6,5
59,104,0.25,7,0,5010000,,,6,4
42,104,0.9375,8,1,5010000,,,6,15
54,104,0.75,9,1,5010000,,,6,12
54,104,0.375,0,1,5010001,,,6,6
42,104,0.25,1,1,5010001,,,6,4
61,104,0.3125,2,1,5010001,,,6,5
61,104,0.1875,3,0,5010001,,,6,3
47,104,0.875,4,1,5010001,,,6,14
47,104,0.5,5,1,5010001,,,6,8
58,104,0.25,0,1,5020000,,,6,4
53,104,0.25,1,0,5020000,,,6,4
65,104,0.25,2,1,5020000,,,6,4
58,104,0.3125,3,1,5020000,,,6,5
58,104,0.1875,4,0,5020000,,,6,3
53,104,0.3125,5,0,5020000,,,6,5
58,104,0.25,6,0,5020000,,,6,4
51,104,0.3125,7,1,5020000,,,6,5
58,104,0.25,8,1,5020000,,,6,4
58,104,0.5,9,0,5020000,,,6,8
46,104,0.1875,10,1,5020000,,,6,3
58,104,0.25,11,1,5020000,,,6,4
51,104,0.1875,12,1,5020000,,,6,3
46,104,0.125,13,0,5020000,,,6,2
46,104,0.5625,14,0,5020000,,,6,9
58,104,0.4375,0,1,5020001,,,6,7
46,104,0.3125,1,1,5020001,,,6,5
58,104,0.125,2,1,5020001,,,6,2
58,104,0.4375,0,1,5030000,,,6,7
58,104,0.5625,1,0,5030000,,,6,9
58,104,0.1875,2,0,5030000,,,6,3
53,104,0.25,3,0,5030000,,,6,4
29,104,0.6875,4,1,5030000,,,6,11
53,104,0.25,5,1,5030000,,,6,4
51,104,0.9375,6,0,5030000,,,6,15
51,104,0.625,7,1,5030000,,,6,10
46,104,0.5,8,0,5030000,,,6,8
34,104,0.25,0,1,5030001,,,6,4
58,104,0.1875,1,1,5030001,,,6,3
46,104,0.4375,2,1,5030001,,,6,7
34,104,0.625,3,1,5030001,,,6,10
53,104,0.75,4,1,5030001,,,6,12
53,104,0.1875,5,1,5030001,,,6,3
63,104,0.3125,6,1,5030001,,,6,5
58,104,0.5625,7,0,5030001,,,6,9
52,104,0.75,0,1,5040000,,,6,12
52,104,0.1875,1,1,5040000,,,6,3
52,104,0.25,2,0,5040000,,,6,4
54,104,0.25,3,0,5040000,,,6,4
54,104,0.25,4,0,5040000,,,6,4
54,104,0.5,5,0,5040000,,,6,8
54,104,0.25,6,0,5040000,,,6,4
35,104,0.25,7,1,5040000,,,6,4
54,104,0.625,8,1,5040000,,,6,10
35,104,0.3125,9,1,5040000,,,6,5
54,104,0.6875,10,1,5040000,,,6,11
35,104,0.1875,0,1,5040001,,,6,3
35,104,0.5625,1,0,5040001,,,6,9
54,104,0.4375,2,1,5040001,,,6,7
35,104,0.6875,3,1,5040001,,,6,11
54,104,0.25,4,1,5040001,,,6,4
59,104,0.75,5,0,5040001,,,6,12
54,104,0.9375,6,1,5040001,,,6,15
35,104,0.9375,0,1,5040002,,,6,15
35,104,0.6875,1,1,5040002,,,6,11
51,104,0.375,0,1,5050000,,,6,6
39,104,0.375,1,1,5050000,,,6,6
39,104,0.125,2,0,5050000,,,6,2
58,104,0.5,3,1,5050000,,,6,8
39,104,0.125,4,1,5050000,,,6,2
51,104,0.25,5,1,5050000,,,6,4
39,104,0.5,6,1,5050000,,,6,8
58,104,0.3125,7,1,5050000,,,6,5
50,104,0.8125,8,1,5050000,,,6,13
65,104,0.75,9,1,5050000,,,6,12
58,104,0.25,0,1,5050001,,,6,4
60,104,0.625,1,0,5050001,,,6,10
60,104,0.25,2,0,5050001,,,6,4
60,104,0.9375,3,0,5050001,,,6,15
63,104,0.1875,4,1,5050001,,,6,3
60,104,0.375,5,0,5050001,,,6,6
57,104,0.25,0,1,5060000,,,6,4
50,104,0.75,1,1,5060000,,,6,12
50,104,0.9375,2,1,5060000,,,6,15
50,104,0.4375,3,1,5060000,,,6,7
50,104,0.25,4,0,5060000,,,6,4
38,104,0.875,5,1,5060000,,,6,14
50,104,0.9375,6,1,5060000,,,6,15
50,104,0.9375,0,1,5060001,,,6,15
50,104,0.375,1,1,5060001,,,6,6
31,104,0.1875,2,1,5060001,,,6,3
55,104,0.375,3,1,5060001,,,6,6
55,104,0.5,4,0,5060001,,,6,8
55,104,0.1875,5,0,5060001,,,6,3
50,104,0.125,6,0,5060001,,,6,2
55,104,0.75,7,0,5060001,,,6,12
89,104,0.1875,8,1,5060001,,,6,3
89,104,0.3125,0,1,5060002,,,6,5
89,104,0.1875,1,0,5060002,,,6,3
62,104,0.1875,0,1,5070000,,,6,3
46,104,0.1875,1,1,5070000,,,6,3
63,104,0.25,2,1,5070000,,,6,4
67,104,0.1875,3,0,5070000,,,6,3
63,104,0.3125,4,0,5070000,,,6,5
63,104,0.4375,5,0,5070000,,,6,7
63,104,0.3125,6,0,5070000,,,6,5
63,104,0.25,7,0,5070000,,,6,4
63,104,0.375,8,0,5070000,,,6,6
63,104,0.4375,9,0,5070000,,,6,7
64,104,0.1875,0,1,5080000,,,6,3
64,104,0.1875,1,0,5080000,,,6,3
64,104,0.1875,2,0,5080000,,,6,3
45,104,0.25,3,1,5080000,,,6,4
57,104,0.3125,4,1,5080000,,,6,5
45,104,0.3125,5,1,5080000,,,6,5
45,104,0.25,6,0,5080000,,,6,4
47,104,0.375,7,0,5080000,,,6,6
59,104,0.375,8,1,5080000,,,6,6
35,104,0.3125,9,1,5080000,,,6,5
59,104,0.3125,10,1,5080000,,,6,5
59,104,0.5,11,0,5080000,,,6,8
47,104,0.375,12,1,5080000,,,6,6
47,104,0.4375,13,0,5080000,,,6,7
47,104,0.3125,0,1,5080001,,,6,5
71,104,0.125,1,1,5080001,,,6,2
47,104,0.9375,2,1,5080001,,,6,15
47,104,0.4375,3,1,5080001,,,6,7
47,104,0.1875,0,1,5090000,,,6,3
35,104,0.375,1,1,5090000,,,6,6
35,104,0.375,2,0,5090000,,,6,6
64,104,0.1875,3,1,5090000,,,6,3
57,104,0.25,4,1,5090000,,,6,4
52,104,0.5,5,0,5090000,,,6,8
33,104,0.4375,6,1,5090000,,,6,7
64,104,0.375,7,1,5090000,,,6,6
35,104,0.3125,8,1,5090000,,,6,5
47,104,0.4375,9,1,5090000,,,6,7
59,104,0.25,10,1,5090000,,,6,4
47,104,0.625,11,1,5090000,,,6,10
59,104,0.5625,0,1,5090001,,,6,9
47,104,0.1875,1,1,5090001,,,6,3
59,104,0.1875,2,1,5090001,,,6,3
66,104,0.25,3,1,5090001,,,6,4
35,104,0.5625,4,1,5090001,,,6,9
47,104,0.875,0,1,5100000,,,6,14
54,104,0.9375,1,1,5100000,,,6,15
59,104,0.375,2,1,5100000,,,6,6
61,104,0.1875,3,0,5100000,,,6,3
61,104,0.8125,4,0,5100000,,,6,13
61,104,0.25,5,1,5100000,,,6,4
59,104,0.9375,6,0,5100000,,,6,15
59,104,0.9375,0,1,5100001,,,6,15
59,104,0.3125,1,1,5100001,,,6,5
52,104,0.25,2,1,5100001,,,6,4
54,104,0.3125,3,0,5100001,,,6,5
54,104,0.3125,4,0,5100001,,,6,5
53,104,0.25,0,1,5110000,,,6,4
53,104,0.25,1,0,5110000,,,6,4
53,104,0.3125,2,0,5110000,,,6,5
25,104,0.1875,3,1,5110000,,,6,3
56,104,0.1875,4,1,5110000,,,6,3
30,104,0.375,5,1,5110000,,,6,6
61,104,0.25,6,1,5110000,,,6,4
61,104,0.25,7,0,5110000,,,6,4
54,104,0.25,8,1,5110000,,,6,4
54,104,0.5,9,0,5110000,,,6,8
53,104,0.1875,10,0,5110000,,,6,3
61,104,0.1875,11,1,5110000,,,6,3
61,104,0.5,12,0,5110000,,,6,8
61,104,0.1875,13,0,5110000,,,6,3
61,104,0.3125,14,0,5110000,,,6,5
64,104,0.1875,0,1,5120000,,,6,3
57,104,0.9375,1,1,5120000,,,6,15
60,104,0.125,2,1,5120000,,,6,2
57,104,0.9375,3,0,5120000,,,6,15
57,104,0.25,4,1,5120000,,,6,4
57,104,0.3125,5,0,5120000,,,6,5
57,104,0.1875,6,0,5120000,,,6,3
57,104,0.1875,7,0,5120000,,,6,3
57,104,0.125,8,0,5120000,,,6,2
57,104,0.1875,9,0,5120000,,,6,3
56,104,0.5625,0,1,5130000,,,6,9
37,104,0.25,1,1,5130000,,,6,4
56,104,0.375,2,1,5130000,,,6,6
37,104,0.4375,3,1,5130000,,,6,7
37,104,0.9375,4,0,5130000,,,6,15
37,104,0.125,5,1,5130000,,,6,2
37,104,0.375,6,0,5130000,,,6,6
34,104,0.9375,7,0,5130000,,,6,15
34,104,0.625,0,1,5130001,,,6,10
62,104,0.25,1,1,5130001,,,6,4
34,104,0.875,2,1,5130001,,,6,14
34,104,0.6875,3,1,5130001,,,6,11
34,104,0.9375,4,0,5130001,,,6,15
34,104,0.25,5,1,5130001,,,6,4
51,104,0.9375,6,1,5130001,,,6,15
59,104,0.1875,0,1,5140000,,,6,3
52,104,0.75,1,1,5140000,,,6,12
47,104,0.25,2,1,5140000,,,6,4
35,104,0.375,3,1,5140000,,,6,6
47,104,0.1875,4,1,5140000,,,6,3
54,104,0.5,5,1,5140000,,,6,8
59,104,0.75,6,0,5140000,,,6,12
54,104,0.25,7,1,5140000,,,6,4
54,104,0.375,8,0,5140000,,,6,6
47,104,0.75,9,1,5140000,,,6,12
47,104,0.6875,0,1,5140001,,,6,11
59,104,0.9375,1,1,5140001,,,6,15
54,104,0.375,2,1,5140001,,,6,6
47,104,0.4375,3,1,5140001,,,6,7
59,104,0.3125,4,1,5140001,,,6,5
54,104,0.125,5,0,5140001,,,6,2
54,104,0.375,6,0,5140001,,,6,6
47,104,0.5,7,1,5140001,,,6,8
66,104,0.3125,0,1,5140002,,,6,5
47,104,0.6875,1,1,5140002,,,6,11
59,104,0.5625,2,1,5140002,,,6,9
59,104,0.75,3,0,5140002,,,6,12
49,104,0.6875,0,1,5150000,,,6,11
49,104,0.25,1,0,5150000,,,6,4
52,104,0.1875,2,0,5150000,,,6,3
56,104,0.3125,3,0,5150000,,,6,5
57,104,0.4375,4,0,5150000,,,6,7
52,104,0.25,5,0,5150000,,,6,4
52,104,0.25,6,0,5150000,,,6,4
40,104,0.1875,7,1,5150000,,,6,3
52,104,0.625,8,1,5150000,,,6,10
52,104,0.1875,9,0,5150000,,,6,3
40,104,0.3125,10,1,5150000,,,6,5
52,104,0.3125,11,1,5150000,,,6,5
45,104,0.3125,0,1,5150001,,,6,5
45,104,0.1875,1,0,5150001,,,6,3
52,104,0.5625,2,1,5150001,,,6,9
52,104,0.375,3,0,5150001,,,6,6
64,104,0.625,4,1,5150001,,,6,10
52,104,0.1875,5,1,5150001,,,6,3
49,104,0.1875,6,0,5150001,,,6,3
62,104,0.5,0,1,5160000,,,6,8
62,104,0.25,1,0,5160000,,,6,4
55,104,0.6875,2,1,5160000,,,6,11
55,104,0.8125,3,0,5160000,,,6,13
55,104,0.25,4,1,5160000,,,6,4
52,104,0.1875,5,0,5160000,,,6,3
55,104,0.9375,6,0,5160000,,,6,15
55,104,0.75,7,1,5160000,,,6,12
55,104,0.4375,0,1,5160001,,,6,7
43,104,0.9375,1,1,5160001,,,6,15
43,104,0.25,2,1,5160001,,,6,4
43,104,0.25,3,0,5160001,,,6,4
55,104,0.375,4,1,5160001,,,6,6
43,104,0.1875,5,1,5160001,,,6,3
55,104,0.25,6,1,5160001,,,6,4
62,104,0.9375,7,1,5160001,,,6,15
67,104,0.4375,0,1,5160002,,,6,7
62,104,0.4375,1,0,5160002,,,6,7
60,104,0.125,0,1,5170000,,,6,2
32,104,0.75,1,1,5170000,,,6,12
46,104,0.3125,2,1,5170000,,,6,5
53,104,0.25,3,1,5170000,,,6,4
46,104,0.625,4,1,5170000,,,6,10
53,104,0.25,5,1,5170000,,,6,4
31,104,0.1875,6,1,5170000,,,6,3
47,104,0.6875,0,1,5180000,,,6,11
59,104,0.125,1,1,5180000,,,6,2
59,104,0.375,2,0,5180000,,,6,6
59,104,0.25,3,0,5180000,,,6,4
59,104,0.1875,4,0,5180000,,,6,3
47,104,0.125,5,1,5180000,,,6,2
47,104,0.375,6,0,5180000,,,6,6
59,104,0.4375,7,1,5180000,,,6,7
56,104,0.3125,8,0,5180000,,,6,5
56,104,0.6875,9,0,5180000,,,6,11
56,104,0.1875,10,0,5180000,,,6,3
56,104,0.5625,11,0,5180000,,,6,9
56,104,0.5,0,1,5180001,,,6,8
56,104,0.1875,1,0,5180001,,,6,3
47,104,0.625,2,1,5180001,,,6,10
47,104,0.9375,3,0,5180001,,,6,15
47,104,0.9375,4,1,5180001,,,6,15
33,104,0.375,0,1,5190000,,,6,6
33,104,0.1875,1,0,5190000,,,6,3
33,104,0.1875,2,0,5190000,,,6,3
33,104,0.875,3,0,5190000,,,6,14
50,104,0.375,4,1,5190000,,,6,6
54,104,0.75,5,0,5190000,,,6,12
30,104,0.375,6,1,5190000,,,6,6
30,104,0.1875,7,0,5190000,,,6,3
54,104,0.5625,8,1,5190000,,,6,9
61,104,0.375,9,1,5190000,,,6,6
61,104,0.75,0,1,5190001,,,6,12
50,104,0.1875,1,1,5190001,,,6,3
38,104,0.125,2,1,5190001,,,6,2
50,104,0.9375,3,1,5190001,,,6,15
50,104,0.1875,4,1,5190001,,,6,3
50,104,0.9375,5,0,5190001,,,6,15
50,104,0.0,6,1,5190001,,,6,0
31,104,0.5,0,1,5200000,,,6,8
55,104,0.1875,1,1,5200000,,,6,3
43,104,0.25,2,1,5200000,,,6,4
55,104,0.3125,3,1,5200000,,,6,5
55,104,0.375,4,0,5200000,,,6,6
55,104,0.1875,5,0,5200000,,,6,3
53,104,0.25,6,0,5200000,,,6,4
53,104,0.3125,7,0,5200000,,,6,5
29,104,0.5,8,1,5200000,,,6,8
53,104,0.3125,9,1,5200000,,,6,5
53,104,0.3125,10,0,5200000,,,6,5
53,104,0.375,11,0,5200000,,,6,6
53,104,0.4375,12,0,5200000,,,6,7
51,104,0.375,0,1,5200001,,,6,6
51,104,0.4375,1,0,5200001,,,6,7
56,104,0.375,0,1,5210000,,,6,6
56,104,0.1875,1,0,5210000,,,6,3
56,104,0.25,2,0,5210000,,,6,4
32,104,0.5,3,1,5210000,,,6,8
46,104,0.9375,4,1,5210000,,,6,15
46,104,0.875,5,1,5210000,,,6,14
46,104,0.625,6,1,5210000,,,6,10
43,104,0.8125,7,0,5210000,,,6,13
43,104,0.625,0,1,5210001,,,6,10
62,104,0.75,1,1,5210001,,,6,12
63,104,0.9375,2,1,5210001,,,6,15
44,104,0.4375,3,1,5210001,,,6,7
61,104,0.25,0,1,5220000,,,6,4
54,104,0.125,1,1,5220000,,,6,2
54,104,0.1875,2,0,5220000,,,6,3
47,104,0.1875,3,1,5220000,,,6,3
57,104,0.3125,4,1,5220000,,,6,5
47,104,0.25,5,1,5220000,,,6,4
47,104,0.4375,6,0,5220000,,,6,7
35,104,0.125,7,1,5220000,,,6,2
47,104,0.4375,8,1,5220000,,,6,7
52,104,0.9375,9,0,5220000,,,6,15
52,104,0.375,10,1,5220000,,,6,6
59,104,0.1875,11,1,5220000,,,6,3
52,104,0.5,12,1,5220000,,,6,8
52,104,0.1875,0,1,5220001,,,6,3
52,104,0.8125,1,0,5220001,,,6,13
63,104,0.375,0,1,5230000,,,6,6
56,104,0.5,1,1,5230000,,,6,8
51,104,0.1875,2,0,5230000,,,6,3
63,104,0.375,3,1,5230000,,,6,6
63,104,0.1875,4,0,5230000,,,6,3
46,104,0.1875,5,1,5230000,,,6,3
46,104,0.125,6,0,5230000,,,6,2
46,104,0.3125,7,0,5230000,,,6,5
46,104,0.1875,8,0,5230000,,,6,3
63,104,0.5625,9,1,5230000,,,6,9
63,104,0.3125,10,0,5230000,,,6,5
58,104,0.125,11,0,5230000,,,6,2
51,104,0.9375,12,1,5230000,,,6,15
51,104,0.375,0,1,5230001,,,6,6
51,104,0.3125,1,0,5230001,,,6,5
58,104,0.4375,2,1,5230001,,,6,7
58,104,0.3125,3,0,5230001,,,6,5
56,104,0.6875,4,0,5230001,,,6,11
56,104,0.25,5,0,5230001,,,6,4
44,104,0.9375,6,1,5230001,,,6,15
58,104,0.9375,0,1,5240000,,,6,15
63,104,0.3125,1,1,5240000,,,6,5
67,104,0.1875,2,0,5240000,,,6,3
55,104,0.3125,3,1,5240000,,,6,5
36,104,0.1875,4,1,5240000,,,6,3
48,104,0.4375,5,1,5240000,,,6,7
36,104,0.625,6,1,5240000,,,6,10
48,104,0.5625,7,1,5240000,,,6,9
60,104,0.1875,8,1,5240000,,,6,3
48,104,0.3125,9,1,5240000,,,6,5
60,104,0.375,0,1,5240001,,,6,6
51,104,0.9375,1,1,5240001,,,6,15
39,104,0.4375,2,1,5240001,,,6,7
67,104,0.4375,3,1,5240001,,,6,7
51,104,0.1875,0,1,5250000,,,6,3
56,104,0.1875,1,0,5250000,,,6,3
51,104,0.1875,2,0,5250000,,,6,3
51,104,0.3125,3,0,5250000,,,6,5
63,104,0.1875,4,1,5250000,,,6,3
58,104,0.3125,5,0,5250000,,,6,5
51,104,0.9375,6,1,5250000,,,6,15
51,104,0.25,7,1,5250000,,,6,4
63,104,0.3125,8,1,5250000,,,6,5
51,104,0.25,9,1,5250000,,,6,4
51,104,0.75,10,0,5250000,,,6,12
55,104,0.1875,11,1,5250000,,,6,3
51,104,0.3125,0,1,5250001,,,6,5
53,104,0.375,1,0,5250001,,,6,6
53,104,0.1875,2,0,5250001,,,6,3
53,104,0.25,3,0,5250001,,,6,4
53,104,0.0625,4,0,5250001,,,6,1
38,104,0.3125,0,1,5260000,,,6,5
59,104,0.5,1,1,5260000,,,6,8
59,104,0.5,2,0,5260000,,,6,8
40,104,0.4375,3,1,5260000,,,6,7
59,104,0.1875,4,1,5260000,,,6,3
47,104,0.625,5,1,5260000,,,6,10
47,104,0.6875,6,0,5260000,,,6,11
54,104,0.25,7,1,5260000,,,6,4
30,104,0.125,8,1,5260000,,,6,2
54,104,0.375,0,1,5270000,,,6,6
59,104,0.9375,1,0,5270000,,,6,15
47,104,0.3125,2,1,5270000,,,6,5
47,104,0.25,3,0,5270000,,,6,4
47,104,0.25,4,0,5270000,,,6,4
47,104,0.1875,5,0,5270000,,,6,3
59,104,0.375,6,1,5270000,,,6,6
35,104,0.4375,7,1,5270000,,,6,7
35,104,0.1875,8,0,5270000,,,6,3
59,104,0.1875,9,1,5270000,,,6,3
54,104,0.4375,10,0,5270000,,,6,7
54,104,0.3125,11,0,5270000,,,6,5
47,104,0.5,0,1,5270001,,,6,8
59,104,0.75,1,1,5270001,,,6,12
59,104,0.25,2,1,5270001,,,6,4
59,104,0.4375,3,0,5270001,,,6,7
59,104,0.25,4,0,5270001,,,6,4
59,104,0.75,5,0,5270001,,,6,12
50,104,0.3125,0,1,5280000,,,6,5
38,104,0.6875,1,1,5280000,,,6,11
50,104,0.9375,2,1,5280000,,,6,15
38,104,0.625,3,1,5280000,,,6,10
50,104,0.1875,4,1,5280000,,,6,3
50,104,0.4375,5,0,5280000,,,6,7
50,104,0.9375,6,0,5280000,,,6,15
33,104,0.5625,0,1,5280001,,,6,9
33,104,0.6875,1,0,5280001,,,6,11
33,104,0.8125,2,0,5280001,,,6,13
45,104,0.25,3,1,5280001,,,6,4
47,104,0.8125,4,0,5280001,,,6,13
28,104,0.25,5,1,5280001,,,6,4
51,104,0.1875,0,1,5290000,,,6,3
29,104,0.3125,1,1,5290000,,,6,5
48,104,0.375,2,1,5290000,,,6,6
41,104,0.375,3,1,5290000,,,6,6
53,104,0.1875,4,1,5290000,,,6,3
29,104,0.25,5,1,5290000,,,6,4
41,104,0.25,6,1,5290000,,,6,4
53,104,0.375,7,1,5290000,,,6,6
53,104,0.6875,8,0,5290000,,,6,11
34,104,0.625,9,1,5290000,,,6,10
53,104,0.375,10,1,5290000,,,6,6
53,104,0.3125,0,1,5290001,,,6,5
53,104,0.4375,1,0,5290001,,,6,7
53,104,0.875,2,0,5290001,,,6,14
53,104,0.375,3,1,5290001,,,6,6
53,104,0.375,4,0,5290001,,,6,6
31,104,0.9375,5,1,5290001,,,6,15
51,104,0.9375,0,1,5300000,,,6,15
63,104,0.375,1,1,5300000,,,6,6
56,104,0.5625,2,1,5300000,,,6,9
63,104,0.9375,3,1,5300000,,,6,15
70,104,0.3125,4,1,5300000,,,6,5
51,104,0.125,5,1,5300000,,,6,2
63,104,0.1875,6,1,5300000,,,6,3
51,104,0.6875,7,1,5300000,,,6,11
51,104,0.3125,0,1,5300001,,,6,5
63,104,0.125,1,1,5300001,,,6,2
51,104,0.3125,2,1,5300001,,,6,5
46,104,0.1875,3,0,5300001,,,6,3
62,104,0.125,4,1,5300001,,,6,2
48,104,0.3125,5,1,5300001,,,6,5
48,104,0.125,6,0,5300001,,,6,2
74,104,0.375,0,1,5310000,,,6,6
67,104,0.1875,1,1,5310000,,,6,3
50,104,0.5625,2,1,5310000,,,6,9
62,104,0.1875,3,1,5310000,,,6,3
55,104,0.375,4,1,5310000,,,6,6
55,104,0.9375,5,0,5310000,,,6,15
55,104,0.6875,6,1,5310000,,,6,11
52,104,0.1875,7,0,5310000,,,6,3
55,104,0.125,8,0,5310000,,,6,2
67,104,0.6875,9,1,5310000,,,6,11
55,104,0.9375,0,1,5310001,,,6,15
57,104,0.1875,1,1,5310001,,,6,3
55,104,0.4375,2,0,5310001,,,6,7
55,104,0.1875,3,0,5310001,,,6,3
60,104,0.1875,4,0,5310001,,,6,3
55,104,0.5,5,0,5310001,,,6,8
55,104,0.25,6,0,5310001,,,6,4
45,104,0.9375,0,1,5320000,,,6,15
55,104,0.25,1,1,5320000,,,6,4
43,104,0.9375,2,1,5320000,,,6,15
62,104,0.9375,3,1,5320000,,,6,15
36,104,0.9375,4,1,5320000,,,6,15
36,104,0.4375,0,1,5320001,,,6,7
36,104,0.375,1,0,5320001,,,6,6
48,104,0.625,2,1,5320001,,,6,10
67,104,0.4375,3,1,5320001,,,6,7
55,104,0.375,4,1,5320001,,,6,6
55,104,0.75,5,0,5320001,,,6,12
57,104,0.1875,6,1,5320001,,,6,3
50,104,0.9375,0,1,5330000,,,6,15
52,104,0.625,1,1,5330000,,,6,10
52,104,0.8125,2,0,5330000,,,6,13
52,104,0.625,3,1,5330000,,,6,10
40,104,0.25,4,1,5330000,,,6,4
59,104,0.25,5,1,5330000,,,6,4
42,104,0.6875,6,1,5330000,,,6,11
42,104,0.125,0,1,5330001,,,6,2
50,104,0.9375,1,1,5330001,,,6,15
42,104,0.8125,2,1,5330001,,,6,13
42,104,0.375,3,1,5330001,,,6,6
64,104,0.25,4,1,5330001,,,6,4
64,104,0.3125,5,0,5330001,,,6,5
53,104,0.3125,0,1,5340000,,,6,5
53,104,0.3125,1,0,5340000,,,6,5
41,104,0.3125,2,1,5340000,,,6,5
31,104,0.25,3,1,5340000,,,6,4
50,104,0.1875,4,1,5340000,,,6,3
31,104,0.4375,5,1,5340000,,,6,7
55,104,0.5,6,1,5340000,,,6,8
36,104,0.625,7,1,5340000,,,6,10
36,104,0.3125,8,0,5340000,,,6,5
55,104,0.125,9,1,5340000,,,6,2
36,104,0.9375,10,1,5340000,,,6,15
48,104,0.625,0,1,5340001,,,6,10
36,104,0.4375,1,1,5340001,,,6,7
34,104,0.375,2,0,5340001,,,6,6
34,104,0.125,3,0,5340001,,,6,2
56,104,0.9375,0,1,5350000,,,6,15
56,104,0.125,1,1,5350000,,,6,2
56,104,0.3125,2,0,5350000,,,6,5
53,104,0.375,3,0,5350000,,,6,6
58,104,0.9375,4,0,5350000,,,6,15
46,104,0.25,5,1,5350000,,,6,4
34,104,0.1875,6,1,5350000,,,6,3
58,104,0.5,7,1,5350000,,,6,8
58,104,0.4375,8,0,5350000,,,6,7
51,104,0.25,0,1,5350001,,,6,4
51,104,0.5625,1,0,5350001,,,6,9
51,104,0.375,2,0,5350001,,,6,6
39,104,0.125,3,1,5350001,,,6,2
39,104,0.25,4,0,5350001,,,6,4
51,104,0.75,5,1,5350001,,,6,12
53,104,0.375,0,1,5360000,,,6,6
34,104,0.5625,1,1,5360000,,,6,9
58,104,0.5625,2,1,5360000,,,6,9
34,104,0.25,3,1,5360000,,,6,4
46,104,0.1875,4,1,5360000,,,6,3
58,104,0.5625,5,1,5360000,,,6,9
53,104,0.5,6,0,5360000,,,6,8
60,104,0.1875,7,1,5360000,,,6,3
57,104,0.375,8,0,5360000,,,6,6
45,104,0.25,9,1,5360000,,,6,4
43,104,0.875,10,0,5360000,,,6,14
31,104,0.6875,0,1,5360001,,,6,11
31,104,0.1875,1,0,5360001,,,6,3
43,104,0.3125,2,1,5360001,,,6,5
43,104,0.1875,3,0,5360001,,,6,3
48,104,0.3125,4,0,5360001,,,6,5
64,104,0.125,0,1,5370000,,,6,2
64,104,0.125,1,0,5370000,,,6,2
59,104,0.3125,2,0,5370000,,,6,5
61,104,0.375,3,0,5370000,,,6,6
64,104,0.4375,4,0,5370000,,,6,7
49,104,0.375,5,1,5370000,,,6,6
61,104,0.5,6,1,5370000,,,6,8
64,104,0.3125,7,0,5370000,,,6,5
68,104,0.25,8,0,5370000,,,6,4
66,104,0.375,9,0,5370000,,,6,6
64,104,0.3125,10,0,5370000,,,6,5
61,104,0.375,11,0,5370000,,,6,6
57,104,0.1875,12,0,5370000,,,6,3
66,104,0.9375,0,1,5370001,,,6,15
66,104,0.9375,1,1,5370001,,,6,15
64,104,0.9375,2,1,5370001,,,6,15
47,104,0.75,3,1,5370001,,,6,12
35,104,0.25,4,1,5370001,,,6,4
63,104,0.1875,5,1,5370001,,,6,3
35,104,0.3125,0,1,5370002,,,6,5
64,104,0.1875,1,1,5370002,,,6,3
52,104,0.9375,2,1,5370002,,,6,15
40,104,0.3125,3,1,5370002,,,6,5
40,104,0.25,4,0,5370002,,,6,4
66,104,0.25,0,1,5380000,,,6,4
64,104,0.625,1,0,5380000,,,6,10
66,104,0.375,2,0,5380000,,,6,6
69,104,0.5,3,0,5380000,,,6,8
73,104,0.4375,4,0,5380000,,,6,7
71,104,0.3125,5,0,5380000,,,6,5
62,104,0.1875,0,1,5390000,,,6,3
57,104,0.3125,1,0,5390000,,,6,5
57,104,0.3125,2,0,5390000,,,6,5
62,104,0.3125,3,0,5390000,,,6,5
62,104,0.4375,4,0,5390000,,,6,7
50,104,0.375,5,1,5390000,,,6,6
50,104,0.5625,6,0,5390000,,,6,9
50,104,0.3125,7,0,5390000,,,6,5
62,104,0.375,8,1,5390000,,,6,6
59,104,0.1875,9,0,5390000,,,6,3
59,104,0.75,10,0,5390000,,,6,12
62,104,0.1875,0,1,5390001,,,6,3
62,104,0.9375,1,0,5390001,,,6,15
62,104,0.125,2,1,5390001,,,6,2
62,104,0.3125,3,0,5390001,,,6,5
62,104,0.25,4,0,5390001,,,6,4
59,104,0.6875,5,0,5390001,,,6,11
57,104,0.25,6,0,5390001,,,6,4
64,104,0.375,7,1,5390001,,,6,6
57,104,0.5625,8,1,5390001,,,6,9
64,104,0.9375,9,1,5390001,,,6,15
50,104,0.6875,0,1,5400000,,,6,11
50,104,0.1875,1,0,5400000,,,6,3
28,104,0.9375,2,1,5400000,,,6,15
28,104,0.25,3,1,5400000,,,6,4
28,104,0.25,4,0,5400000,,,6,4
57,104,0.375,5,1,5400000,,,6,6
50,104,0.4375,6,1,5400000,,,6,7
48,104,0.1875,7,0,5400000,,,6,3
43,104,0.25,8,0,5400000,,,6,4
42,104,0.5,9,0,5400000,,,6,8
50,104,0.1875,0,1,5400001,,,6,3
31,104,0.3125,1,1,5400001,,,6,5
50,104,0.4375,2,1,5400001,,,6,7
48,104,0.4375,0,1,5410000,,,6,7
36,104,0.25,1,1,5410000,,,6,4
48,104,0.1875,2,1,5410000,,,6,3
36,104,0.3125,3,1,5410000,,,6,5
36,104,0.1875,4,0,5410000,,,6,3
53,104,0.625,5,1,5410000,,,6,10
41,104,0.25,6,1,5410000,,,6,4
55,104,0.3125,7,1,5410000,,,6,5
53,104,0.875,8,0,5410000,,,6,14
50,104,0.9375,9,1,5410000,,,6,15
50,104,0.25,0,1,5410001,,,6,4
60,104,0.1875,1,1,5410001,,,6,3
60,104,0.1875,2,0,5410001,,,6,3
50,104,0.75,3,1,5410001,,,6,12
31,104,0.1875,4,1,5410001,,,6,3
31,104,0.1875,5,0,5410001,,,6,3
43,104,0.3125,6,1,5410001,,,6,5
53,104,0.25,7,1,5410001,,,6,4
53,104,0.3125,8,0,5410001,,,6,5
48,104,0.9375,9,0,5410001,,,6,15
36,104,0.4375,10,1,5410001,,,6,7
36,104,0.3125,0,1,5410002,,,6,5
36,104,0.3125,1,0,5410002,,,6,5
53,104,0.375,0,1,5420000,,,6,6
53,104,0.3125,1,0,5420000,,,6,5
34,104,0.375,2,1,5420000,,,6,6
34,104,0.375,3,0,5420000,,,6,6
53,104,0.5,4,1,5420000,,,6,8
46,104,0.25,5,1,5420000,,,6,4
48,104,0.625,6,0,5420000,,,6,10
36,104,0.25,7,1,5420000,,,6,4
57,104,0.375,8,1,5420000,,,6,6
57,104,0.9375,9,0,5420000,,,6,15
55,104,0.375,0,1,5420001,,,6,6
53,104,0.5,1,0,5420001,,,6,8
55,104,0.5,2,0,5420001,,,6,8
36,104,0.3125,3,1,5420001,,,6,5
55,104,0.375,4,1,5420001,,,6,6
55,104,0.5,5,0,5420001,,,6,8
41,104,0.3125,6,1,5420001,,,6,5
41,104,0.25,7,0,5420001,,,6,4
53,104,0.1875,8,1,5420001,,,6,3
41,104,0.4375,9,1,5420001,,,6,7
60,104,0.1875,0,1,5420002,,,6,3
57,104,0.1875,1,0,5420002,,,6,3
53,104,0.1875,0,1,5430000,,,6,3
54,104,0.375,1,0,5430000,,,6,6
47,104,0.375,2,1,5430000,,,6,6
47,104,0.5625,3,0,5430000,,,6,9
54,104,0.3125,4,1,5430000,,,6,5
52,104,0.8125,5,0,5430000,,,6,13
52,104,0.3125,6,1,5430000,,,6,5
52,104,0.25,7,0,5430000,,,6,4
49,104,0.375,8,0,5430000,,,6,6
49,104,0.75,9,0,5430000,,,6,12
49,104,0.25,0,1,5430001,,,6,4
49,104,0.5625,1,0,5430001,,,6,9
54,104,0.5625,2,0,5430001,,,6,9
54,104,0.1875,3,0,5430001,,,6,3
59,104,0.5625,4,0,5430001,,,6,9
52,104,0.9375,5,1,5430001,,,6,15
59,104,0.5,6,1,5430001,,,6,8
54,104,0.5,7,0,5430001,,,6,8
35,104,0.1875,0,1,5430002,,,6,3
35,104,0.25,1,0,5430002,,,6,4
54,104,0.125,2,1,5430002,,,6,2
58,104,0.3125,0,1,5440000,,,6,5
51,104,0.1875,1,1,5440000,,,6,3
51,104,0.9375,2,0,5440000,,,6,15
58,104,0.375,3,1,5440000,,,6,6
51,104,0.4375,4,1,5440000,,,6,7
39,104,0.8125,5,1,5440000,,,6,13
58,104,0.9375,6,1,5440000,,,6,15
58,104,0.875,0,1,5440001,,,6,14
46,104,0.25,1,1,5440001,,,6,4
46,104,0.3125,2,0,5440001,,,6,5
46,104,0.625,3,0,5440001,,,6,10
58,104,0.5625,4,1,5440001,,,6,9
46,104,0.9375,5,1,5440001,,,6,15
46,104,0.25,6,1,5440001,,,6,4
60,104,0.9375,7,1,5440001,,,6,15
48,104,0.375,0,1,5440002,,,6,6
60,104,0.25,1,1,5440002,,,6,4
39,104,0.75,0,1,5450000,,,6,12
58,104,0.9375,1,1,5450000,,,6,15
39,104,0.5,2,1,5450000,,,6,8
58,104,0.6875,3,1,5450000,,,6,11
39,104,0.8125,4,1,5450000,,,6,13
51,104,0.1875,5,1,5450000,,,6,3
39,104,0.1875,6,1,5450000,,,6,3
39,104,0.1875,0,1,5450001,,,6,3
39,104,0.1875,1,0,5450001,,,6,3
58,104,0.4375,2,1,5450001,,,6,7
70,104,0.25,3,1,5450001,,,6,4
58,104,0.75,4,1,5450001,,,6,12
34,104,0.625,5,1,5450001,,,6,10
70,104,0.375,6,1,5450001,,,6,6
34,104,0.1875,7,1,5450001,,,6,3
58,104,0.9375,8,1,5450001,,,6,15
70,104,0.3125,0,1,5450002,,,6,5
58,104,0.75,1,1,5450002,,,6,12
58,104,0.9375,2,1,5450002,,,6,15
70,104,0.375,3,1,5450002,,,6,6
58,104,0.9375,4,1,5450002,,,6,15
58,104,0.625,5,1,5450002,,,6,10
48,104,0.1875,6,1,5450002,,,6,3
48,104,0.4375,0,1,5460000,,,6,7
60,104,0.9375,1,1,5460000,,,6,15
48,104,0.3125,2,1,5460000,,,6,5
51,104,0.4375,3,0,5460000,,,6,7
51,104,0.9375,4,0,5460000,,,6,15
51,104,0.1875,5,1,5460000,,,6,3
39,104,0.25,6,1,5460000,,,6,4
34,104,0.9375,7,0,5460000,,,6,15
34,104,0.1875,0,1,5460001,,,6,3
34,104,0.625,1,0,5460001,,,6,10
53,104,0.875,0,1,5470000,,,6,14
55,104,0.4375,1,1,5470000,,,6,7
31,104,0.25,2,1,5470000,,,6,4
31,104,0.1875,3,0,5470000,,,6,3
50,104,0.8125,4,1,5470000,,,6,13
50,104,0.4375,5,1,5470000,,,6,7
55,104,0.375,6,0,5470000,,,6,6
31,104,0.3125,7,1,5470000,,,6,5
43,104,0.25,8,1,5470000,,,6,4
53,104,0.3125,9,1,5470000,,,6,5
43,104,0.4375,0,1,5470001,,,6,7
53,104,0.5,1,1,5470001,,,6,8
53,104,0.4375,2,0,5470001,,,6,7
48,104,0.875,3,0,5470001,,,6,14
48,104,0.3125,4,1,5470001,,,6,5
36,104,0.25,5,1,5470001,,,6,4
48,104,0.9375,6,1,5470001,,,6,15
36,104,0.5,0,1,5470002,,,6,8
60,104,0.25,1,1,5470002,,,6,4
45,104,0.3125,0,1,5480000,,,6,5
64,104,0.25,1,1,5480000,,,6,4
33,104,0.1875,2,1,5480000,,,6,3
33,104,0.125,3,0,5480000,,,6,2
33,104,0.75,4,0,5480000,,,6,12
61,104,0.6875,5,1,5480000,,,6,11
61,104,0.125,6,0,5480000,,,6,2
61,104,0.9375,7,0,5480000,,,6,15
66,104,0.9375,8,1,5480000,,,6,15
57,104,0.9375,0,1,5480001,,,6,15
59,104,0.4375,1,1,5480001,,,6,7
40,104,0.25,2,1,5480001,,,6,4
40,104,0.1875,3,0,5480001,,,6,3
59,104,0.125,4,1,5480001,,,6,2
64,104,0.125,5,0,5480001,,,6,2
40,104,0.1875,6,1,5480001,,,6,3
59,104,0.125,7,1,5480001,,,6,2
61,104,0.125,8,0,5480001,,,6,2
64,104,0.6875,9,0,5480001,,,6,11
53,104,0.1875,10,1,5480001,,,6,3
61,104,0.25,11,1,5480001,,,6,4
61,104,0.5,12,0,5480001,,,6,8
57,104,0.375,0,1,5480002,,,6,6
61,104,0.375,1,0,5480002,,,6,6
61,104,0.875,2,0,5480002,,,6,14
66,104,0.25,0,1,5490000,,,6,4
54,104,0.9375,1,1,5490000,,,6,15
57,104,0.3125,2,1,5490000,,,6,5
54,104,0.3125,3,0,5490000,,,6,5
66,104,0.75,4,1,5490000,,,6,12
52,104,0.1875,5,1,5490000,,,6,3
52,104,0.9375,6,0,5490000,,,6,15
54,104,0.25,7,1,5490000,,,6,4
52,104,0.9375,8,0,5490000,,,6,15
64,104,0.375,0,1,5490001,,,6,6
57,104,0.25,1,1,5490001,,,6,4
52,104,0.3125,2,0,5490001,,,6,5
59,104,0.5,3,1,5490001,,,6,8
57,104,0.9375,4,0,5490001,,,6,15
57,104,0.375,5,1,5490001,,,6,6
33,104,0.375,6,1,5490001,,,6,6
57,104,0.1875,0,1,5490002,,,6,3
33,104,0.8125,1,1,5490002,,,6,13
33,104,0.4375,2,1,5490002,,,6,7
69,104,0.125,3,1,5490002,,,6,2
57,104,0.0625,4,1,5490002,,,6,1
66,104,0.3125,0,1,5500000,,,6,5
50,104,0.9375,1,1,5500000,,,6,15
50,104,0.6875,2,1,5500000,,,6,11
61,104,0.9375,3,1,5500000,,,6,15
57,104,0.4375,4,1,5500000,,,6,7
45,104,0.375,5,1,5500000,,,6,6
59,104,0.1875,6,1,5500000,,,6,3
68,104,0.5,7,1,5500000,,,6,8
64,104,0.25,0,1,5500001,,,6,4
52,104,0.25,1,1,5500001,,,6,4
40,104,0.3125,2,1,5500001,,,6,5
64,104,0.125,3,1,5500001,,,6,2
64,104,0.125,4,0,5500001,,,6,2
64,104,0.1875,5,0,5500001,,,6,3
64,104,0.5625,6,0,5500001,,,6,9
57,104,0.25,7,1,5500001,,,6,4
50,104,0.4375,8,1,5500001,,,6,7
53,104,0.5,0,1,5510000,,,6,8
53,104,0.1875,1,0,5510000,,,6,3
53,104,0.6875,2,0,5510000,,,6,11
53,104,0.9375,3,0,5510000,,,6,15
53,104,0.75,4,1,5510000,,,6,12
53,104,0.1875,5,1,5510000,,,6,3
53,104,0.125,6,0,5510000,,,6,2
53,104,0.1875,7,0,5510000,,,6,3
58,104,0.1875,8,0,5510000,,,6,3
58,104,0.25,9,0,5510000,,,6,4
63,104,0.9375,0,1,5510001,,,6,15
53,104,0.5625,1,1,5510001,,,6,9
53,104,0.3125,2,0,5510001,,,6,5
46,104,0.1875,3,1,5510001,,,6,3
58,104,0.1875,4,1,5510001,,,6,3
53,104,0.375,5,0,5510001,,,6,6
52,104,0.5,0,1,5520000,,,6,8
55,104,0.875,1,0,5520000,,,6,14
55,104,0.9375,2,1,5520000,,,6,15
54,104,0.125,3,1,5520000,,,6,2
54,104,0.1875,4,0,5520000,,,6,3
54,104,0.9375,5,0,5520000,,,6,15
62,104,0.1875,6,1,5520000,,,6,3
62,104,0.6875,7,0,5520000,,,6,11
54,104,0.3125,0,1,5520001,,,6,5
55,104,0.625,1,0,5520001,,,6,10
48,104,0.75,2,1,5520001,,,6,12
55,104,0.8125,3,1,5520001,,,6,13
55,104,0.1875,4,1,5520001,,,6,3
50,104,0.9375,5,0,5520001,,,6,15
50,104,0.6875,0,1,5520002,,,6,11
62,104,0.1875,1,1,5520002,,,6,3
50,104,0.875,2,1,5520002,,,6,14
50,104,0.4375,3,1,5520002,,,6,7
55,104,0.9375,4,0,5520002,,,6,15
53,104,0.3125,0,1,5530000,,,6,5
53,104,0.4375,1,0,5530000,,,6,7
56,104,0.3125,2,0,5530000,,,6,5
58,104,0.25,3,0,5530000,,,6,4
46,104,0.9375,4,1,5530000,,,6,15
58,104,0.25,5,1,5530000,,,6,4
60,104,0.3125,6,0,5530000,,,6,5
58,104,0.9375,7,0,5530000,,,6,15
58,104,0.375,8,1,5530000,,,6,6
51,104,0.8125,0,1,5530001,,,6,13
51,104,0.9375,1,1,5530001,,,6,15
58,104,0.3125,2,1,5530001,,,6,5
63,104,0.1875,3,0,5530001,,,6,3
51,104,0.9375,4,1,5530001,,,6,15
51,104,0.1875,5,1,5530001,,,6,3
63,104,0.3125,6,1,5530001,,,6,5
53,104,0.25,0,1,5540000,,,6,4
57,104,0.25,1,0,5540000,,,6,4
60,104,0.875,2,0,5540000,,,6,14
53,104,0.1875,3,1,5540000,,,6,3
60,104,0.9375,4,1,5540000,,,6,15
53,104,0.375,5,1,5540000,,,6,6
65,104,0.1875,6,1,5540000,,,6,3
46,104,0.9375,7,1,5540000,,,6,15
58,104,0.25,0,1,5540001,,,6,4
53,104,0.375,1,0,5540001,,,6,6
46,104,0.1875,2,1,5540001,,,6,3
65,104,0.5,3,1,5540001,,,6,8
46,104,0.9375,4,1,5540001,,,6,15
58,104,0.1875,5,1,5540001,,,6,3
46,104,0.625,6,1,5540001,,,6,10
46,104,0.9375,7,0,5540001,,,6,15
53,104,0.25,0,1,5540002,,,6,4
65,104,0.375,1,1,5540002,,,6,6
65,104,0.1875,2,0,5540002,,,6,3
51,104,0.3125,3,1,5540002,,,6,5
65,104,0.1875,4,1,5540002,,,6,3
65,104,0.0625,5,0,5540002,,,6,1
48,104,0.25,0,1,5550000,,,6,4
41,104,0.9375,1,1,5550000,,,6,15
29,104,0.8125,2,1,5550000,,,6,13
48,104,0.3125,3,1,5550000,,,6,5
48,104,0.1875,4,0,5550000,,,6,3
58,104,0.75,5,1,5550000,,,6,12
58,104,0.125,6,1,5550000,,,6,2
43,104,0.9375,7,1,5550000,,,6,15
62,104,0.25,0,1,5550001,,,6,4
43,104,0.4375,1,1,5550001,,,6,7
62,104,0.3125,2,1,5550001,,,6,5
51,104,0.9375,3,1,5550001,,,6,15
39,104,0.25,4,1,5550001,,,6,4
53,104,0.9375,5,1,5550001,,,6,15
53,104,0.25,0,1,5560000,,,6,4
43,104,0.9375,1,1,5560000,,,6,15
31,104,0.8125,2,1,5560000,,,6,13
59,104,0.9375,3,1,5560000,,,6,15
50,104,0.375,4,1,5560000,,,6,6
52,104,0.9375,5,0,5560000,,,6,15
28,104,0.1875,0,1,5560001,,,6,3
52,104,0.375,1,1,5560001,,,6,6
62,104,0.9375,2,1,5560001,,,6,15
45,104,0.8125,3,1,5560001,,,6,13
33,104,0.875,4,1,5560001,,,6,14
33,104,0.375,5,1,5560001,,,6,6
50,104,0.9375,6,1,5560001,,,6,15
50,104,0.9375,0,1,5560002,,,6,15
50,104,0.25,1,1,5560002,,,6,4
57,104,0.5,0,1,5570000,,,6,8
57,104,0.8125,1,0,5570000,,,6,13
57,104,0.9375,2,1,5570000,,,6,15
38,104,0.1875,3,1,5570000,,,6,3
62,104,0.9375,4,1,5570000,,,6,15
57,104,0.9375,5,1,5570000,,,6,15
57,104,0.1875,0,1,5570001,,,6,3
38,104,0.1875,1,1,5570001,,,6,3
57,104,0.9375,2,1,5570001,,,6,15
62,104,0.5625,3,1,5570001,,,6,9
62,104,0.9375,4,0,5570001,,,6,15
62,104,0.3125,5,1,5570001,,,6,5
38,104,0.125,6,1,5570001,,,6,2
57,104,0.125,7,1,5570001,,,6,2
62,104,0.9375,8,0,5570001,,,6,15
55,104,0.25,0,1,5580000,,,6,4
51,104,0.1875,1,0,5580000,,,6,3
55,104,0.1875,2,0,5580000,,,6,3
63,104,0.25,3,1,5580000,,,6,4
55,104,0.3125,4,1,5580000,,,6,5
51,104,0.5,5,0,5580000,,,6,8
56,104,0.125,6,0,5580000,,,6,2
32,104,0.1875,7,1,5580000,,,6,3
51,104,0.25,8,1,5580000,,,6,4
32,104,0.125,9,1,5580000,,,6,2
51,104,0.3125,10,1,5580000,,,6,5
34,104,0.4375,11,1,5580000,,,6,7
34,104,0.1875,12,0,5580000,,,6,3
53,104,0.3125,13,1,5580000,,,6,5
34,104,0.3125,14,1,5580000,,,6,5
60,104,0.1875,15,1,5580000,,,6,3
55,104,0.125,0,1,5580001,,,6,2
55,104,0.1875,1,0,5580001,,,6,3
63,104,0.0625,2,1,5580001,,,6,1
43,104,0.25,0,1,5590000,,,6,4
43,104,0.4375,1,0,5590000,,,6,7
50,104,0.3125,2,1,5590000,,,6,5
38,104,0.6875,3,1,5590000,,,6,11
38,104,0.25,4,0,5590000,,,6,4
52,104,0.1875,5,1,5590000,,,6,3
52,104,0.9375,6,0,5590000,,,6,15
52,104,0.25,7,1,5590000,,,6,4
52,104,0.9375,8,0,5590000,,,6,15
52,104,0.9375,0,1,5590001,,,6,15
62,104,0.25,1,1,5590001,,,6,4
62,104,0.9375,2,0,5590001,,,6,15
49,104,0.375,0,1,5600000,,,6,6
49,104,0.1875,1,0,5600000,,,6,3
37,104,0.3125,2,1,5600000,,,6,5
56,104,0.75,3,1,5600000,,,6,12
53,104,0.1875,4,1,5600000,,,6,3
61,104,0.25,5,1,5600000,,,6,4
61,104,0.125,6,0,5600000,,,6,2
54,104,0.1875,7,1,5600000,,,6,3
54,104,0.875,8,0,5600000,,,6,14
49,104,0.9375,9,1,5600000,,,6,15
54,104,0.3125,0,1,5600001,,,6,5
53,104,0.375,1,0,5600001,,,6,6
49,104,0.375,2,0,5600001,,,6,6
49,104,0.625,3,0,5600001,,,6,10
37,104,0.25,4,1,5600001,,,6,4
46,104,0.25,0,1,5610000,,,6,4
53,104,0.4375,1,1,5610000,,,6,7
46,104,0.4375,2,1,5610000,,,6,7
58,104,0.375,3,1,5610000,,,6,6
63,104,0.3125,4,0,5610000,,,6,5
63,104,0.9375,5,0,5610000,,,6,15
58,104,0.1875,6,1,5610000,,,6,3
63,104,0.1875,7,0,5610000,,,6,3
63,104,0.3125,8,0,5610000,,,6,5
53,104,0.3125,9,1,5610000,,,6,5
63,104,0.375,10,1,5610000,,,6,6
53,104,0.5,0,1,5610001,,,6,8
29,104,0.375,0,1,5620000,,,6,6
48,104,0.4375,1,1,5620000,,,6,7
36,104,0.3125,2,1,5620000,,,6,5
36,104,0.25,3,0,5620000,,,6,4
43,104,0.25,4,1,5620000,,,6,4
24,104,0.375,5,1,5620000,,,6,6
36,104,0.625,6,1,5620000,,,6,10
57,104,0.625,7,1,5620000,,,6,10
29,104,0.5,8,1,5620000,,,6,8
41,104,0.25,9,1,5620000,,,6,4
41,104,0.375,0,1,5620001,,,6,6
29,104,0.1875,1,1,5620001,,,6,3
53,104,0.3125,2,1,5620001,,,6,5
29,104,0.9375,3,1,5620001,,,6,15
53,104,0.3125,4,1,5620001,,,6,5
53,104,0.3125,5,0,5620001,,,6,5
41,104,0.3125,6,1,5620001,,,6,5
53,104,0.1875,7,1,5620001,,,6,3
57,104,0.5,8,0,5620001,,,6,8
34,104,0.9375,9,1,5620001,,,6,15
32,104,0.3125,0,1,5630000,,,6,5
32,104,0.375,1,0,5630000,,,6,6
56,104,0.1875,2,1,5630000,,,6,3
56,104,0.5625,3,0,5630000,,,6,9
56,104,0.5,4,0,5630000,,,6,8
32,104,0.3125,5,1,5630000,,,6,5
44,104,0.25,6,1,5630000,,,6,4
63,104,0.5,7,1,5630000,,,6,8
63,104,0.1875,8,0,5630000,,,6,3
60,104,0.25,9,0,5630000,,,6,4
53,104,0.625,10,1,5630000,,,6,10
53,104,0.375,0,1,5630001,,,6,6
63,104,0.4375,1,1,5630001,,,6,7
44,104,0.125,2,1,5630001,,,6,2
51,104,0.875,3,1,5630001,,,6,14
51,104,0.375,4,1,5630001,,,6,6
51,104,0.3125,5,0,5630001,,,6,5
51,104,0.25,6,0,5630001,,,6,4
63,104,0.5625,7,1,5630001,,,6,9
48,104,0.9375,0,1,5640000,,,6,15
36,104,0.3125,1,1,5640000,,,6,5
36,104,0.6875,2,0,5640000,,,6,11
55,104,0.625,3,1,5640000,,,6,10
53,104,0.375,0,1,5650000,,,6,6
53,104,0.25,1,0,5650000,,,6,4
34,104,0.375,2,1,5650000,,,6,6
34,104,0.375,3,0,5650000,,,6,6
53,104,0.5,4,1,5650000,,,6,8
46,104,0.1875,5,1,5650000,,,6,3
48,104,0.625,6,0,5650000,,,6,10
36,104,0.1875,7,1,5650000,,,6,3
57,104,0.375,8,1,5650000,,,6,6
57,104,0.9375,9,0,5650000,,,6,15
55,104,0.375,0,1,5650001,,,6,6
53,104,0.5,1,0,5650001,,,6,8
55,104,0.5,2,0,5650001,,,6,8
36,104,0.25,3,1,5650001,,,6,4
55,104,0.375,4,1,5650001,,,6,6
55,104,0.5,5,0,5650001,,,6,8
41,104,0.3125,6,1,5650001,,,6,5
41,104,0.25,7,0,5650001,,,6,4
53,104,0.1875,8,1,5650001,,,6,3
41,104,0.5,9,1,5650001,,,6,8
60,104,0.1875,10,1,5650001,,,6,3
57,104,0.1875,0,1,5650002,,,6,3
62,104,0.1875,0,1,5660000,,,6,3
57,104,0.9375,1,0,5660000,,,6,15
62,104,0.1875,2,1,5660000,,,6,3
64,104,0.8125,3,0,5660000,,,6,13
37,104,0.1875,4,1,5660000,,,6,3
59,104,0.8125,5,1,5660000,,,6,13
50,104,0.9375,6,1,5660000,,,6,15
50,104,0.9375,0,1,5660001,,,6,15
45,104,0.5,1,1,5660001,,,6,8
33,104,0.375,2,1,5660001,,,6,6
33,104,0.75,3,0,5660001,,,6,12
45,104,0.1875,4,1,5660001,,,6,3
45,104,0.0,5,0,5660001,,,6,0
44,104,0.3125,0,1,5670000,,,6,5
56,104,0.25,1,1,5670000,,,6,4
44,104,0.3125,2,1,5670000,,,6,5
29,104,0.3125,3,1,5670000,,,6,5
61,104,0.9375,4,1,5670000,,,6,15
32,104,0.1875,5,1,5670000,,,6,3
43,104,0.3125,6,1,5670000,,,6,5
43,104,0.3125,7,0,5670000,,,6,5
70,104,0.125,0,1,5680000,,,6,2
70,104,0.125,1,0,5680000,,,6,2
65,104,0.125,2,0,5680000,,,6,2
67,104,0.3125,3,0,5680000,,,6,5
67,104,0.375,4,0,5680000,,,6,6
62,104,0.375,5,0,5680000,,,6,6
62,104,0.8125,6,0,5680000,,,6,13
63,104,0.5,7,1,5680000,,,6,8
63,104,0.625,8,0,5680000,,,6,10
63,104,0.375,9,0,5680000,,,6,6
51,104,0.3125,10,1,5680000,,,6,5
32,104,0.4375,0,1,5680001,,,6,7
56,104,0.1875,1,1,5680001,,,6,3
63,104,0.125,2,1,5680001,,,6,2
51,104,0.375,3,1,5680001,,,6,6
65,104,0.1875,4,1,5680001,,,6,3
34,104,0.25,5,1,5680001,,,6,4
34,104,0.3125,6,0,5680001,,,6,5
57,104,0.25,0,1,5690000,,,6,4
38,104,0.9375,1,1,5690000,,,6,15
62,104,0.8125,2,1,5690000,,,6,13
62,104,0.9375,3,1,5690000,,,6,15
62,104,0.5,4,1,5690000,,,6,8
64,104,0.375,5,0,5690000,,,6,6
62,104,0.9375,6,0,5690000,,,6,15
62,104,0.25,0,1,5690001,,,6,4
62,104,0.9375,1,0,5690001,,,6,15
66,104,0.3125,2,1,5690001,,,6,5
66,104,0.625,3,0,5690001,,,6,10
47,104,0.875,4,1,5690001,,,6,14
47,104,0.5625,5,1,5690001,,,6,9
66,104,0.3125,0,1,5690002,,,6,5
43,104,0.875,1,1,5690002,,,6,14
64,104,0.375,0,1,5700000,,,6,6
64,104,0.25,1,0,5700000,,,6,4
49,104,0.3125,2,1,5700000,,,6,5
49,104,0.6875,3,0,5700000,,,6,11
33,104,0.6875,4,1,5700000,,,6,11
61,104,0.25,5,1,5700000,,,6,4
64,104,0.125,6,0,5700000,,,6,2
45,104,0.125,7,1,5700000,,,6,2
59,104,0.1875,8,1,5700000,,,6,3
63,104,0.375,9,0,5700000,,,6,6
45,104,0.3125,10,1,5700000,,,6,5
44,104,0.125,11,0,5700000,,,6,2
52,104,0.8125,12,1,5700000,,,6,13
40,104,0.25,0,1,5700001,,,6,4
40,104,0.1875,1,0,5700001,,,6,3
40,104,0.1875,2,0,5700001,,,6,3
49,104,0.6875,3,1,5700001,,,6,11
61,104,0.6875,4,1,5700001,,,6,11
59,104,0.5,0,1,5710000,,,6,8
59,104,0.75,1,0,5710000,,,6,12
47,104,0.375,2,1,5710000,,,6,6
59,104,0.4375,3,1,5710000,,,6,7
47,104,0.25,4,1,5710000,,,6,4
47,104,0.3125,5,0,5710000,,,6,5
54,104,0.625,6,1,5710000,,,6,10
54,104,0.1875,7,0,5710000,,,6,3
47,104,0.1875,8,1,5710000,,,6,3
54,104,0.25,9,1,5710000,,,6,4
59,104,0.875,10,0,5710000,,,6,14
54,104,0.3125,0,1,5710001,,,6,5
59,104,0.4375,1,0,5710001,,,6,7
59,104,0.375,2,0,5710001,,,6,6
47,104,0.5,3,1,5710001,,,6,8
47,104,0.375,4,0,5710001,,,6,6
66,104,0.25,5,1,5710001,,,6,4
54,104,0.4375,6,1,5710001,,,6,7
59,104,0.375,7,0,5710001,,,6,6
59,104,0.25,8,0,5710001,,,6,4
52,104,0.25,0,1,5720000,,,6,4
64,104,0.375,1,1,5720000,,,6,6
57,104,0.1875,2,1,5720000,,,6,3
33,104,0.375,3,1,5720000,,,6,6
33,104,0.25,4,0,5720000,,,6,4
64,104,0.1875,5,1,5720000,,,6,3
52,104,0.5625,6,1,5720000,,,6,9
52,104,0.1875,7,0,5720000,,,6,3
35,104,0.1875,8,1,5720000,,,6,3
35,104,0.1875,9,0,5720000,,,6,3
35,104,0.1875,10,0,5720000,,,6,3
35,104,0.3125,11,0,5720000,,,6,5
59,104,0.1875,12,1,5720000,,,6,3
59,104,0.25,13,0,5720000,,,6,4
35,104,0.25,14,1,5720000,,,6,4
35,104,0.8125,15,0,5720000,,,6,13
35,104,0.1875,0,1,5720001,,,6,3
47,104,0.5625,1,1,5720001,,,6,9
64,104,0.1875,2,1,5720001,,,6,3
68,104,0.0625,3,0,5720001,,,6,1
63,104,0.3125,0,1,5730000,,,6,5
63,104,0.1875,1,0,5730000,,,6,3
63,104,0.9375,2,0,5730000,,,6,15
60,104,0.1875,3,1,5730000,,,6,3
63,104,0.1875,4,0,5730000,,,6,3
63,104,0.1875,5,0,5730000,,,6,3
63,104,0.25,6,0,5730000,,,6,4
53,104,0.25,7,1,5730000,,,6,4
63,104,0.125,8,1,5730000,,,6,2
49,104,0.4375,9,1,5730000,,,6,7
63,104,0.25,10,1,5730000,,,6,4
63,104,0.1875,11,0,5730000,,,6,3
49,104,0.3125,12,1,5730000,,,6,5
51,104,0.625,13,0,5730000,,,6,10
63,104,0.1875,0,1,5730001,,,6,3
51,104,0.625,1,1,5730001,,,6,10
63,104,0.4375,2,1,5730001,,,6,7
56,104,0.1875,3,1,5730001,,,6,3
44,104,0.1875,4,1,5730001,,,6,3
56,104,0.25,5,1,5730001,,,6,4
63,104,0.3125,6,1,5730001,,,6,5
63,104,0.375,7,0,5730001,,,6,6
61,104,0.4375,0,1,5740000,,,6,7
61,104,0.9375,1,0,5740000,,,6,15
61,104,0.5625,2,1,5740000,,,6,9
45,104,0.6875,3,1,5740000,,,6,11
61,104,0.375,4,1,5740000,,,6,6
45,104,0.5625,5,1,5740000,,,6,9
61,104,0.9375,6,1,5740000,,,6,15
45,104,0.1875,0,1,5740001,,,6,3
50,104,0.9375,1,0,5740001,,,6,15
38,104,0.25,2,1,5740001,,,6,4
66,104,0.375,3,1,5740001,,,6,6
38,104,0.25,4,1,5740001,,,6,4
38,104,0.25,5,0,5740001,,,6,4
66,104,0.6875,6,1,5740001,,,6,11
38,104,0.75,7,1,5740001,,,6,12
38,104,0.9375,0,1,5740002,,,6,15
38,104,0.375,1,1,5740002,,,6,6
58,104,0.375,0,1,5750000,,,6,6
58,104,0.3125,1,0,5750000,,,6,5
53,104,0.5625,2,0,5750000,,,6,9
53,104,0.5,3,0,5750000,,,6,8
53,104,0.125,4,0,5750000,,,6,2
58,104,0.3125,5,0,5750000,,,6,5
51,104,0.75,6,1,5750000,,,6,12
51,104,0.9375,7,1,5750000,,,6,15
51,104,0.375,8,1,5750000,,,6,6
51,104,0.8125,0,1,5750001,,,6,13
51,104,0.375,1,1,5750001,,,6,6
51,104,0.3125,2,0,5750001,,,6,5
58,104,0.1875,3,1,5750001,,,6,3
51,104,0.375,4,1,5750001,,,6,6
51,104,0.9375,5,0,5750001,,,6,15
58,104,0.3125,6,1,5750001,,,6,5
51,104,0.625,7,1,5750001,,,6,10
45,104,0.1875,0,1,5760000,,,6,3
33,104,0.125,1,1,5760000,,,6,2
59,104,0.25,2,1,5760000,,,6,4
61,104,0.5,3,0,5760000,,,6,8
64,104,0.375,4,0,5760000,,,6,6
49,104,0.75,5,1,5760000,,,6,12
59,104,0.25,6,1,5760000,,,6,4
66,104,0.125,7,1,5760000,,,6,2
68,104,0.1875,8,0,5760000,,,6,3
66,104,0.3125,9,0,5760000,,,6,5
64,104,0.625,10,0,5760000,,,6,10
64,104,0.3125,11,0,5760000,,,6,5
54,104,0.875,0,1,5760001,,,6,14
35,104,0.1875,1,1,5760001,,,6,3
66,104,0.875,2,1,5760001,,,6,14
52,104,0.5625,3,1,5760001,,,6,9
40,104,0.125,4,1,5760001,,,6,2
40,104,0.625,5,0,5760001,,,6,10
40,104,0.1875,6,0,5760001,,,6,3
59,104,0.1875,7,1,5760001,,,6,3
59,104,0.75,8,0,5760001,,,6,12
40,104,0.625,0,1,5760002,,,6,10
40,104,0.9375,1,0,5760002,,,6,15
58,104,0.25,0,1,5770000,,,6,4
65,104,0.625,1,1,5770000,,,6,10
46,104,0.875,2,1,5770000,,,6,14
60,104,0.5,3,1,5770000,,,6,8
46,104,0.9375,4,1,5770000,,,6,15
46,104,0.9375,5,1,5770000,,,6,15
46,104,0.1875,0,1,5770001,,,6,3
57,104,0.9375,1,1,5770001,,,6,15
60,104,0.5,2,1,5770001,,,6,8
57,104,0.9375,3,0,5770001,,,6,15
57,104,0.4375,4,1,5770001,,,6,7
57,104,0.25,5,0,5770001,,,6,4
57,104,0.875,6,0,5770001,,,6,14
60,104,0.875,0,1,5770002,,,6,14
48,104,0.9375,1,1,5770002,,,6,15
58,104,0.1875,0,1,5780000,,,6,3
39,104,0.25,1,1,5780000,,,6,4
63,104,0.1875,2,1,5780000,,,6,3
51,104,0.375,3,1,5780000,,,6,6
62,104,0.25,4,1,5780000,,,6,4
58,104,0.5625,5,0,5780000,,,6,9
58,104,0.4375,6,0,5780000,,,6,7
58,104,0.3125,7,0,5780000,,,6,5
58,104,0.375,8,0,5780000,,,6,6
56,104,0.1875,9,0,5780000,,,6,3
51,104,0.1875,10,0,5780000,,,6,3
51,104,0.3125,11,0,5780000,,,6,5
73,104,0.5625,0,1,5790000,,,6,9
69,104,0.4375,1,0,5790000,,,6,7
71,104,0.4375,2,0,5790000,,,6,7
73,104,0.5,3,0,5790000,,,6,8
71,104,0.3125,4,0,5790000,,,6,5
73,104,0.9375,5,0,5790000,,,6,15
72,104,0.1875,6,1,5790000,,,6,3
71,104,0.875,7,0,5790000,,,6,14
69,104,0.9375,0,1,5790001,,,6,15
49,104,0.5,0,1,5800000,,,6,8
49,104,0.4375,1,0,5800000,,,6,7
42,104,0.9375,2,1,5800000,,,6,15
61,104,0.3125,3,1,5800000,,,6,5
54,104,0.1875,4,1,5800000,,,6,3
54,104,0.1875,5,0,5800000,,,6,3
61,104,0.25,6,1,5800000,,,6,4
64,104,0.25,7,0,5800000,,,6,4
64,104,0.5,8,0,5800000,,,6,8
54,104,0.1875,9,1,5800000,,,6,3
62,104,0.625,10,1,5800000,,,6,10
47,104,0.5625,0,1,5800001,,,6,9
47,104,0.1875,1,0,5800001,,,6,3
47,104,0.375,2,0,5800001,,,6,6
47,104,0.625,3,0,5800001,,,6,10
62,104,0.5,4,1,5800001,,,6,8
73,104,0.125,5,1,5800001,,,6,2
57,104,0.9375,0,1,5810000,,,6,15
57,104,0.3125,1,1,5810000,,,6,5
43,104,0.375,2,1,5810000,,,6,6
59,104,0.6875,3,1,5810000,,,6,11
40,104,0.625,4,1,5810000,,,6,10
64,104,0.1875,5,1,5810000,,,6,3
57,104,0.9375,6,1,5810000,,,6,15
57,104,0.1875,0,1,5810001,,,6,3
45,104,0.25,1,1,5810001,,,6,4
45,104,0.375,2,0,5810001,,,6,6
45,104,0.9375,3,0,5810001,,,6,15
45,104,0.9375,4,1,5810001,,,6,15
63,104,0.1875,0,1,5820000,,,6,3
39,104,0.6875,1,1,5820000,,,6,11
51,104,0.25,2,1,5820000,,,6,4
58,104,0.5,3,1,5820000,,,6,8
65,104,0.1875,4,1,5820000,,,6,3
55,104,0.9375,5,1,5820000,,,6,15
55,104,0.5625,6,1,5820000,,,6,9
58,104,0.3125,7,0,5820000,,,6,5
58,104,0.875,8,0,5820000,,,6,14
53,104,0.25,0,1,5820001,,,6,4
65,104,0.4375,1,1,5820001,,,6,7
58,104,0.1875,2,1,5820001,,,6,3
65,104,0.9375,3,1,5820001,,,6,15
65,104,0.75,4,1,5820001,,,6,12
53,104,0.25,5,1,5820001,,,6,4
65,104,0.6875,6,1,5820001,,,6,11
60,104,0.625,0,1,5820002,,,6,10
57,104,0.9375,0,1,5830000,,,6,15
62,104,0.9375,1,1,5830000,,,6,15
57,104,0.875,2,1,5830000,,,6,14
62,104,0.9375,3,1,5830000,,,6,15
57,104,0.9375,4,1,5830000,,,6,15
62,104,0.1875,0,1,5830001,,,6,3
57,104,0.6875,1,0,5830001,,,6,11
62,104,0.125,2,0,5830001,,,6,2
57,104,0.25,3,0,5830001,,,6,4
62,104,0.8125,4,0,5830001,,,6,13
57,104,0.5625,5,1,5830001,,,6,9
54,104,0.1875,6,0,5830001,,,6,3
62,104,0.875,7,1,5830001,,,6,14
47,104,0.5,0,1,5830002,,,6,8
62,104,0.5625,1,1,5830002,,,6,9
26,104,0.25,0,1,5840000,,,6,4
50,104,0.125,1,1,5840000,,,6,2
50,104,0.125,2,0,5840000,,,6,2
26,104,0.125,3,1,5840000,,,6,2
50,104,0.3125,4,1,5840000,,,6,5
50,104,0.125,5,0,5840000,,,6,2
50,104,0.4375,6,0,5840000,,,6,7
26,104,0.1875,7,1,5840000,,,6,3
38,104,0.3125,8,1,5840000,,,6,5
26,104,0.1875,9,1,5840000,,,6,3
37,104,0.5,10,1,5840000,,,6,8
37,104,0.5625,11,0,5840000,,,6,9
49,104,0.25,12,1,5840000,,,6,4
38,104,0.25,13,1,5840000,,,6,4
50,104,0.9375,14,1,5840000,,,6,15
53,104,0.25,0,1,5850000,,,6,4
53,104,0.5,1,0,5850000,,,6,8
41,104,0.1875,2,1,5850000,,,6,3
48,104,0.1875,3,1,5850000,,,6,3
48,104,0.6875,4,0,5850000,,,6,11
53,104,0.1875,5,0,5850000,,,6,3
48,104,0.3125,6,0,5850000,,,6,5
53,104,0.3125,7,0,5850000,,,6,5
58,104,0.4375,8,0,5850000,,,6,7
53,104,0.3125,9,0,5850000,,,6,5
53,104,0.25,10,0,5850000,,,6,4
53,104,0.3125,11,0,5850000,,,6,5
53,104,0.6875,12,0,5850000,,,6,11
53,104,0.25,0,1,5850001,,,6,4
53,104,0.3125,1,0,5850001,,,6,5
53,104,0.1875,2,0,5850001,,,6,3
46,104,0.1875,3,1,5850001,,,6,3
58,104,0.3125,4,1,5850001,,,6,5
53,104,0.3125,5,0,5850001,,,6,5
58,104,0.375,6,0,5850001,,,6,6
52,104,0.3125,0,1,5860000,,,6,5
52,104,0.25,1,0,5860000,,,6,4
47,104,0.75,2,0,5860000,,,6,12
59,104,0.1875,3,1,5860000,,,6,3
63,104,0.375,4,0,5860000,,,6,6
54,104,0.1875,5,1,5860000,,,6,3
59,104,0.25,6,0,5860000,,,6,4
52,104,0.9375,7,1,5860000,,,6,15
68,104,0.1875,8,1,5860000,,,6,3
59,104,0.25,9,1,5860000,,,6,4
59,104,0.1875,10,0,5860000,,,6,3
49,104,0.875,11,1,5860000,,,6,14
64,104,0.25,0,1,5860001,,,6,4
61,104,0.6875,1,0,5860001,,,6,11
64,104,0.25,2,0,5860001,,,6,4
64,104,0.5,3,0,5860001,,,6,8
61,104,0.1875,4,0,5860001,,,6,3
68,104,0.25,5,1,5860001,,,6,4
68,104,0.6875,6,0,5860001,,,6,11
55,104,0.4375,0,1,5870000,,,6,7
52,104,0.8125,1,0,5870000,,,6,13
55,104,0.9375,2,1,5870000,,,6,15
55,104,0.25,3,1,5870000,,,6,4
55,104,0.5625,4,0,5870000,,,6,9
55,104,0.1875,5,0,5870000,,,6,3
55,104,0.1875,6,0,5870000,,,6,3
54,104,0.1875,7,0,5870000,,,6,3
62,104,0.125,8,1,5870000,,,6,2
54,104,0.375,9,1,5870000,,,6,6
55,104,0.5,0,1,5870001,,,6,8
55,104,0.625,1,0,5870001,,,6,10
55,104,0.4375,2,0,5870001,,,6,7
50,104,0.9375,3,0,5870001,,,6,15
62,104,0.125,4,1,5870001,,,6,2
50,104,0.9375,5,1,5870001,,,6,15
62,104,0.125,6,1,5870001,,,6,2
50,104,0.375,7,1,5870001,,,6,6
55,104,0.25,0,1,5870002,,,6,4
41,104,0.9375,0,1,5880000,,,6,15
41,104,0.5625,1,1,5880000,,,6,9
48,104,0.875,2,1,5880000,,,6,14
36,104,0.4375,3,1,5880000,,,6,7
36,104,0.6875,4,0,5880000,,,6,11
50,104,0.5625,5,1,5880000,,,6,9
46,104,0.9375,0,1,5880001,,,6,15
45,104,0.75,1,1,5880001,,,6,12
46,104,0.4375,2,1,5880001,,,6,7
46,104,0.375,3,0,5880001,,,6,6
61,104,0.9375,0,1,5890000,,,6,15
61,104,0.75,1,1,5890000,,,6,12
61,104,0.375,2,1,5890000,,,6,6
61,104,0.9375,3,0,5890000,,,6,15
61,104,0.375,4,1,5890000,,,6,6
42,104,0.9375,5,1,5890000,,,6,15
42,104,0.9375,0,1,5890001,,,6,15
49,104,0.9375,1,1,5890001,,,6,15
37,104,0.4375,2,1,5890001,,,6,7
61,104,0.8125,3,1,5890001,,,6,13
49,104,0.1875,4,1,5890001,,,6,3
56,104,0.625,5,1,5890001,,,6,10
44,104,0.3125,0,1,5890002,,,6,5
55,104,0.4375,0,1,5900000,,,6,7
55,104,0.1875,1,0,5900000,,,6,3
55,104,0.375,2,0,5900000,,,6,6
63,104,0.3125,3,1,5900000,,,6,5
53,104,0.625,4,1,5900000,,,6,10
53,104,0.4375,5,0,5900000,,,6,7
53,104,0.1875,6,0,5900000,,,6,3
53,104,0.3125,7,0,5900000,,,6,5
65,104,0.125,8,1,5900000,,,6,2
34,104,0.125,9,1,5900000,,,6,2
53,104,0.1875,10,1,5900000,,,6,3
63,104,0.3125,11,1,5900000,,,6,5
46,104,0.375,12,1,5900000,,,6,6
34,104,0.5,0,1,5900001,,,6,8
46,104,0.1875,1,1,5900001,,,6,3
34,104,0.125,2,1,5900001,,,6,2
49,104,0.5,0,1,5910000,,,6,8
49,104,0.5,1,0,5910000,,,6,8
49,104,0.375,2,0,5910000,,,6,6
68,104,0.25,3,1,5910000,,,6,4
35,104,0.1875,4,1,5910000,,,6,3
59,104,0.5,5,1,5910000,,,6,8
35,104,0.5625,6,1,5910000,,,6,9
35,104,0.5,7,0,5910000,,,6,8
35,104,0.1875,8,0,5910000,,,6,3
59,104,0.375,9,1,5910000,,,6,6
35,104,0.375,10,1,5910000,,,6,6
35,104,0.4375,0,1,5910001,,,6,7
59,104,0.3125,1,1,5910001,,,6,5
59,104,0.25,2,0,5910001,,,6,4
35,104,0.1875,3,1,5910001,,,6,3
29,104,0.1875,0,1,5920000,,,6,3
53,104,0.375,1,1,5920000,,,6,6
29,104,0.1875,2,1,5920000,,,6,3
41,104,0.1875,3,1,5920000,,,6,3
53,104,0.3125,4,1,5920000,,,6,5
31,104,0.6875,5,1,5920000,,,6,11
31,104,0.375,6,0,5920000,,,6,6
31,104,0.3125,7,0,5920000,,,6,5
48,104,0.9375,8,1,5920000,,,6,15
29,104,0.6875,9,1,5920000,,,6,11
53,104,0.6875,0,1,5920001,,,6,11
53,104,0.1875,1,0,5920001,,,6,3
40,104,0.625,0,1,5930000,,,6,10
55,104,0.4375,1,1,5930000,,,6,7
53,104,0.375,2,0,5930000,,,6,6
41,104,0.3125,3,1,5930000,,,6,5
53,104,0.1875,4,1,5930000,,,6,3
57,104,0.6875,5,0,5930000,,,6,11
57,104,0.375,6,0,5930000,,,6,6
57,104,0.25,7,0,5930000,,,6,4
53,104,0.5,8,0,5930000,,,6,8
52,104,0.25,9,0,5930000,,,6,4
52,104,0.25,0,1,5930001,,,6,4
55,104,0.1875,1,0,5930001,,,6,3
60,104,0.5625,2,0,5930001,,,6,9
50,104,0.9375,3,1,5930001,,,6,15
50,104,0.375,4,1,5930001,,,6,6
57,104,0.6875,5,1,5930001,,,6,11
31,104,0.4375,6,1,5930001,,,6,7
31,104,0.3125,7,0,5930001,,,6,5
65,104,0.25,0,1,5940000,,,6,4
53,104,0.25,1,1,5940000,,,6,4
60,104,0.625,2,1,5940000,,,6,10
53,104,0.5,3,1,5940000,,,6,8
53,104,0.25,4,0,5940000,,,6,4
53,104,0.75,5,0,5940000,,,6,12
53,104,0.9375,6,1,5940000,,,6,15
53,104,0.375,7,1,5940000,,,6,6
58,104,0.9375,8,0,5940000,,,6,15
46,104,0.5,0,1,5940001,,,6,8
46,104,0.9375,1,0,5940001,,,6,15
58,104,0.25,2,1,5940001,,,6,4
65,104,0.25,3,1,5940001,,,6,4
65,104,0.1875,4,0,5940001,,,6,3
65,104,0.625,5,0,5940001,,,6,10
58,104,0.25,6,1,5940001,,,6,4
58,104,0.8125,7,0,5940001,,,6,13
53,104,0.1875,0,1,5940002,,,6,3
58,104,0.25,1,0,5940002,,,6,4
65,104,0.25,2,1,5940002,,,6,4
58,104,0.25,3,1,5940002,,,6,4
51,104,0.9375,4,1,5940002,,,6,15
65,104,0.1875,5,1,5940002,,,6,3
51,104,0.25,6,1,5940002,,,6,4
51,104,0.1875,7,0,5940002,,,6,3
47,104,0.875,0,1,5950000,,,6,14
35,104,0.375,1,1,5950000,,,6,6
47,104,0.1875,2,1,5950000,,,6,3
35,104,0.1875,3,1,5950000,,,6,3
54,104,0.9375,4,1,5950000,,,6,15
56,104,0.5,5,1,5950000,,,6,8
40,104,0.1875,6,1,5950000,,,6,3
40,104,0.25,7,0,5950000,,,6,4
52,104,0.375,8,1,5950000,,,6,6
59,104,0.1875,9,1,5950000,,,6,3
48,104,0.3125,0,1,5960000,,,6,5
44,104,0.1875,1,0,5960000,,,6,3
58,104,0.1875,2,1,5960000,,,6,3
46,104,0.3125,3,1,5960000,,,6,5
46,104,0.25,4,0,5960000,,,6,4
58,104,0.1875,5,1,5960000,,,6,3
58,104,0.25,6,0,5960000,,,6,4
48,104,0.5,7,1,5960000,,,6,8
58,104,0.4375,8,1,5960000,,,6,7
58,104,0.75,9,0,5960000,,,6,12
46,104,0.3125,10,1,5960000,,,6,5
46,104,0.125,11,0,5960000,,,6,2
56,104,0.375,12,1,5960000,,,6,6
66,104,0.1875,0,1,5970000,,,6,3
47,104,0.125,1,1,5970000,,,6,2
66,104,0.125,2,1,5970000,,,6,2
64,104,0.375,3,0,5970000,,,6,6
35,104,0.1875,4,1,5970000,,,6,3
63,104,0.125,5,1,5970000,,,6,2
54,104,0.6875,6,1,5970000,,,6,11
54,104,0.1875,7,0,5970000,,,6,3
54,104,0.9375,8,0,5970000,,,6,15
49,104,0.625,9,1,5970000,,,6,10
64,104,0.3125,10,1,5970000,,,6,5
64,104,0.1875,11,0,5970000,,,6,3
66,104,0.1875,0,1,5970001,,,6,3
66,104,0.1875,1,0,5970001,,,6,3
56,104,0.5625,2,1,5970001,,,6,9
66,104,0.3125,3,1,5970001,,,6,5
66,104,0.25,4,0,5970001,,,6,4
59,104,0.9375,0,1,5980000,,,6,15
51,104,0.375,1,1,5980000,,,6,6
54,104,0.6875,2,0,5980000,,,6,11
52,104,0.9375,3,0,5980000,,,6,15
52,104,0.5625,4,1,5980000,,,6,9
47,104,0.9375,5,0,5980000,,,6,15
35,104,0.3125,0,1,5980001,,,6,5
59,104,0.75,1,1,5980001,,,6,12
59,104,0.1875,2,1,5980001,,,6,3
59,104,0.1875,3,0,5980001,,,6,3
35,104,0.1875,4,1,5980001,,,6,3
35,104,0.6875,5,0,5980001,,,6,11
52,104,0.375,0,1,5990000,,,6,6
52,104,0.3125,1,0,5990000,,,6,5
52,104,0.9375,2,0,5990000,,,6,15
54,104,0.1875,3,1,5990000,,,6,3
30,104,0.3125,4,1,5990000,,,6,5
54,104,0.1875,5,1,5990000,,,6,3
54,104,0.1875,6,0,5990000,,,6,3
47,104,0.1875,7,1,5990000,,,6,3
35,104,0.3125,8,1,5990000,,,6,5
35,104,0.25,9,0,5990000,,,6,4
47,104,0.625,10,1,5990000,,,6,10
35,104,0.1875,11,1,5990000,,,6,3
54,104,0.1875,0,1,5990001,,,6,3
54,104,0.25,1,0,5990001,,,6,4
54,104,0.6875,2,0,5990001,,,6,11
52,104,0.5625,3,0,5990001,,,6,9
52,104,0.4375,4,0,5990001,,,6,7
65,104,0.1875,0,1,6000000,,,6,3
60,104,0.1875,1,0,6000000,,,6,3
53,104,0.1875,2,1,6000000,,,6,3
46,104,0.25,3,1,6000000,,,6,4
53,104,0.6875,4,1,6000000,,,6,11
60,104,0.1875,5,1,6000000,,,6,3
48,104,0.125,6,1,6000000,,,6,2
48,104,0.25,7,0,6000000,,,6,4
60,104,0.125,8,1,6000000,,,6,2
60,104,0.1875,9,0,6000000,,,6,3
60,104,0.1875,10,0,6000000,,,6,3
48,104,0.25,11,1,6000000,,,6,4
48,104,0.4375,12,0,6000000,,,6,7
48,104,0.3125,13,0,6000000,,,6,5
60,104,0.375,14,1,6000000,,,6,6
48,104,0.1875,15,1,6000000,,,6,3
60,104,0.1875,0,1,6000001,,,6,3
41,104,0.125,1,1,6000001,,,6,2
60,104,0.1875,2,1,6000001,,,6,3
41,104,0.1875,3,1,6000001,,,6,3
60,104,0.8125,4,1,6000001,,,6,13
41,104,0.1875,5,1,6000001,,,6,3
53,104,0.1875,6,1,6000001,,,6,3
53,104,0.375,7,0,6000001,,,6,6
60,104,0.3125,8,1,6000001,,,6,5
48,104,0.125,9,1,6000001,,,6,2
53,104,0.1875,0,1,6010000,,,6,3
50,104,0.4375,1,0,6010000,,,6,7
50,104,0.375,2,0,6010000,,,6,6
60,104,0.125,3,1,6010000,,,6,2
60,104,0.9375,4,0,6010000,,,6,15
50,104,0.1875,5,1,6010000,,,6,3
48,104,0.3125,6,0,6010000,,,6,5
48,104,0.9375,7,0,6010000,,,6,15
36,104,0.3125,8,1,6010000,,,6,5
53,104,0.1875,9,1,6010000,,,6,3
60,104,0.3125,0,1,6010001,,,6,5
46,104,0.9375,1,1,6010001,,,6,15
48,104,0.9375,2,1,6010001,,,6,15
58,104,0.1875,0,1,6020000,,,6,3
58,104,0.125,1,0,6020000,,,6,2
58,104,0.9375,2,0,6020000,,,6,15
63,104,0.3125,3,1,6020000,,,6,5
58,104,0.25,4,0,6020000,,,6,4
58,104,0.9375,5,0,6020000,,,6,15
63,104,0.1875,6,1,6020000,,,6,3
51,104,0.75,7,1,6020000,,,6,12
51,104,0.4375,8,1,6020000,,,6,7
51,104,0.25,0,1,6020001,,,6,4
51,104,0.25,1,0,6020001,,,6,4
51,104,0.3125,2,0,6020001,,,6,5
39,104,0.125,3,1,6020001,,,6,2
51,104,0.625,4,1,6020001,,,6,10
51,104,0.25,5,0,6020001,,,6,4
51,104,0.6875,6,0,6020001,,,6,11
58,104,0.1875,7,1,6020001,,,6,3
70,104,0.125,8,1,6020001,,,6,2
62,104,0.1875,0,1,6030000,,,6,3
50,104,0.9375,1,1,6030000,,,6,15
50,104,0.5625,2,1,6030000,,,6,9
62,104,0.375,3,1,6030000,,,6,6
62,104,0.25,4,0,6030000,,,6,4
62,104,0.25,5,0,6030000,,,6,4
50,104,0.4375,6,1,6030000,,,6,7
62,104,0.1875,7,1,6030000,,,6,3
50,104,0.3125,8,1,6030000,,,6,5
50,104,0.4375,9,0,6030000,,,6,7
62,104,0.1875,10,1,6030000,,,6,3
62,104,0.125,0,1,6030001,,,6,2
60,104,0.9375,1,0,6030001,,,6,15
60,104,0.6875,2,1,6030001,,,6,11
57,104,0.375,3,0,6030001,,,6,6
60,104,0.25,4,0,6030001,,,6,4
53,104,0.3125,5,1,6030001,,,6,5
59,104,0.125,6,0,6030001,,,6,2
59,104,0.625,7,0,6030001,,,6,10
60,104,0.125,8,0,6030001,,,6,2
60,104,0.75,9,0,6030001,,,6,12
46,104,0.5625,0,1,6040000,,,6,9
65,104,0.125,1,1,6040000,,,6,2
46,104,0.125,2,1,6040000,,,6,2
46,104,0.25,3,0,6040000,,,6,4
58,104,0.9375,4,1,6040000,,,6,15
65,104,0.3125,5,1,6040000,,,6,5
56,104,0.3125,6,1,6040000,,,6,5
56,104,0.3125,7,0,6040000,,,6,5
56,104,0.1875,8,0,6040000,,,6,3
51,104,0.1875,9,0,6040000,,,6,3
56,104,0.5625,10,0,6040000,,,6,9
46,104,0.25,11,1,6040000,,,6,4
58,104,0.25,0,1,6040001,,,6,4
65,104,0.5,1,1,6040001,,,6,8
53,104,0.1875,2,1,6040001,,,6,3
58,104,0.9375,3,0,6040001,,,6,15
55,104,0.9375,4,1,6040001,,,6,15
55,104,0.1875,5,1,6040001,,,6,3
55,104,0.3125,6,0,6040001,,,6,5
55,104,0.4375,7,0,6040001,,,6,7
55,104,0.125,8,0,6040001,,,6,2
36,104,0.125,0,1,6050000,,,6,2
55,104,0.625,1,1,6050000,,,6,10
55,104,0.4375,2,0,6050000,,,6,7
60,104,0.5,3,0,6050000,,,6,8
36,104,0.125,4,1,6050000,,,6,2
64,104,0.4375,5,1,6050000,,,6,7
55,104,0.4375,6,1,6050000,,,6,7
53,104,0.1875,7,0,6050000,,,6,3
55,104,0.375,8,0,6050000,,,6,6
53,104,0.375,9,0,6050000,,,6,6
62,104,0.125,10,1,6050000,,,6,2
62,104,0.5,11,0,6050000,,,6,8
57,104,0.9375,0,1,6050001,,,6,15
65,104,0.1875,1,1,6050001,,,6,3
65,104,0.25,2,0,6050001,,,6,4
60,104,0.1875,3,0,6050001,,,6,3
53,104,0.25,4,1,6050001,,,6,4
41,104,0.125,5,1,6050001,,,6,2
57,104,0.9375,0,1,6060000,,,6,15
62,104,0.1875,1,1,6060000,,,6,3
59,104,0.5625,2,0,6060000,,,6,9
59,104,0.375,3,0,6060000,,,6,6
59,104,0.4375,4,0,6060000,,,6,7
59,104,0.625,5,0,6060000,,,6,10
43,104,0.375,6,1,6060000,,,6,6
62,104,0.9375,7,1,6060000,,,6,15
43,104,0.125,0,1,6060001,,,6,2
55,104,0.25,1,1,6060001,,,6,4
50,104,0.9375,2,0,6060001,,,6,15
57,104,0.375,3,1,6060001,,,6,6
57,104,0.25,4,0,6060001,,,6,4
45,104,0.5,0,1,6070000,,,6,8
45,104,0.4375,1,0,6070000,,,6,7
45,104,0.4375,2,0,6070000,,,6,7
45,104,0.5625,3,0,6070000,,,6,9
45,104,0.5625,4,0,6070000,,,6,9
45,104,0.4375,5,0,6070000,,,6,7
47,104,0.3125,6,0,6070000,,,6,5
47,104,0.9375,7,0,6070000,,,6,15
35,104,0.125,0,1,6070001,,,6,2
47,104,0.9375,1,1,6070001,,,6,15
59,104,0.1875,2,1,6070001,,,6,3
47,104,0.75,3,1,6070001,,,6,12
47,104,0.25,4,1,6070001,,,6,4
47,104,0.75,5,0,6070001,,,6,12
47,104,0.5,6,1,6070001,,,6,8
47,104,0.125,7,0,6070001,,,6,2
47,104,0.125,8,0,6070001,,,6,2
47,104,0.9375,9,0,6070001,,,6,15
45,104,0.125,0,1,6070002,,,6,2
57,104,0.5625,1,1,6070002,,,6,9
45,104,0.125,2,1,6070002,,,6,2
45,104,0.1875,3,0,6070002,,,6,3
63,104,0.25,0,1,6080000,,,6,4
63,104,0.3125,1,0,6080000,,,6,5
63,104,0.1875,2,0,6080000,,,6,3
44,104,0.1875,3,1,6080000,,,6,3
44,104,0.25,4,0,6080000,,,6,4
63,104,0.25,5,1,6080000,,,6,4
63,104,0.1875,6,0,6080000,,,6,3
51,104,0.25,7,1,6080000,,,6,4
51,104,0.125,8,0,6080000,,,6,2
51,104,0.4375,9,0,6080000,,,6,7
63,104,0.125,10,1,6080000,,,6,2
39,104,0.3125,0,1,6090000,,,6,5
39,104,0.3125,1,0,6090000,,,6,5
58,104,0.5625,2,1,6090000,,,6,9
39,104,0.25,3,1,6090000,,,6,4
58,104,0.25,4,1,6090000,,,6,4
58,104,0.375,5,0,6090000,,,6,6
29,104,0.9375,6,1,6090000,,,6,15
57,104,0.3125,7,1,6090000,,,6,5
29,104,0.3125,8,1,6090000,,,6,5
29,104,0.3125,9,0,6090000,,,6,5
29,104,0.6875,10,0,6090000,,,6,11
29,104,0.25,0,1,6090001,,,6,4
53,104,0.25,1,1,6090001,,,6,4
53,104,0.4375,2,0,6090001,,,6,7
59,104,0.5,0,1,6100000,,,6,8
56,104,0.125,1,0,6100000,,,6,2
57,104,0.1875,2,0,6100000,,,6,3
59,104,0.25,3,0,6100000,,,6,4
61,104,0.9375,4,0,6100000,,,6,15
61,104,0.25,5,1,6100000,,,6,4
57,104,0.75,6,0,6100000,,,6,12
64,104,0.25,7,1,6100000,,,6,4
61,104,0.875,8,0,6100000,,,6,14
50,104,0.1875,0,1,6100001,,,6,3
57,104,0.1875,1,1,6100001,,,6,3
61,104,0.9375,2,0,6100001,,,6,15
68,104,0.625,3,1,6100001,,,6,10
68,104,0.125,4,0,6100001,,,6,2
55,104,0.6875,0,1,6110000,,,6,11
52,104,0.1875,1,0,6110000,,,6,3
55,104,0.125,2,0,6110000,,,6,2
67,104,0.6875,3,1,6110000,,,6,11
55,104,0.9375,4,1,6110000,,,6,15
57,104,0.1875,5,1,6110000,,,6,3
55,104,0.4375,6,0,6110000,,,6,7
55,104,0.1875,7,0,6110000,,,6,3
60,104,0.1875,8,0,6110000,,,6,3
55,104,0.5,9,0,6110000,,,6,8
55,104,0.6875,0,1,6110001,,,6,11
43,104,0.1875,1,1,6110001,,,6,3
62,104,0.5,2,1,6110001,,,6,8
62,104,0.5625,3,0,6110001,,,6,9
62,104,0.625,4,0,6110001,,,6,10
43,104,0.1875,5,1,6110001,,,6,3
55,104,0.875,6,1,6110001,,,6,14
55,104,0.1875,7,1,6110001,,,6,3
55,104,0.9375,8,0,6110001,,,6,15
55,104,0.9375,0,1,6110002,,,6,15
33,104,0.4375,0,1,6120000,,,6,7
59,104,0.375,1,1,6120000,,,6,6
61,104,0.375,2,0,6120000,,,6,6
61,104,0.1875,3,0,6120000,,,6,3
57,104,0.6875,4,0,6120000,,,6,11
45,104,0.375,5,1,6120000,,,6,6
33,104,0.1875,6,1,6120000,,,6,3
33,104,0.375,7,0,6120000,,,6,6
33,104,0.5,8,0,6120000,,,6,8
64,104,0.1875,9,1,6120000,,,6,3
50,104,0.9375,10,1,6120000,,,6,15
57,104,0.6875,0,1,6120001,,,6,11
57,104,0.3125,1,0,6120001,,,6,5
40,104,0.75,2,1,6120001,,,6,12
40,104,0.25,3,1,6120001,,,6,4
64,104,0.125,4,1,6120001,,,6,2
40,104,0.1875,5,1,6120001,,,6,3
40,104,0.25,6,0,6120001,,,6,4
40,104,0.375,7,0,6120001,,,6,6
64,104,0.5,8,1,6120001,,,6,8
57,104,0.9375,0,1,6120002,,,6,15
33,104,0.1875,1,1,6120002,,,6,3
61,104,0.25,2,1,6120002,,,6,4
61,104,0.25,3,0,6120002,,,6,4
61,104,0.3125,4,0,6120002,,,6,5
46,104,0.125,0,1,6130000,,,6,2
46,104,0.9375,1,0,6130000,,,6,15
46,104,0.1875,2,1,6130000,,,6,3
65,104,0.125,3,1,6130000,,,6,2
51,104,0.9375,4,1,6130000,,,6,15
51,104,0.9375,5,1,6130000,,,6,15
65,104,0.375,6,1,6130000,,,6,6
51,104,0.625,7,1,6130000,,,6,10
50,104,0.9375,0,1,6130001,,,6,15
50,104,0.8125,1,1,6130001,,,6,13
48,104,0.9375,2,1,6130001,,,6,15
58,104,0.9375,3,1,6130001,,,6,15
58,104,0.5,4,1,6130001,,,6,8
46,104,0.875,0,1,6130002,,,6,14
46,104,0.5625,1,1,6130002,,,6,9
53,104,0.25,0,1,6140000,,,6,4
62,104,0.9375,1,1,6140000,,,6,15
50,104,0.25,2,1,6140000,,,6,4
50,104,0.375,3,0,6140000,,,6,6
53,104,0.375,4,0,6140000,,,6,6
53,104,0.1875,5,0,6140000,,,6,3
53,104,0.375,6,0,6140000,,,6,6
53,104,0.25,7,0,6140000,,,6,4
60,104,0.1875,8,1,6140000,,,6,3
60,104,0.3125,9,0,6140000,,,6,5
48,104,0.3125,10,1,6140000,,,6,5
48,104,0.1875,11,0,6140000,,,6,3
53,104,0.125,0,1,6140001,,,6,2
48,104,0.125,1,0,6140001,,,6,2
53,104,0.375,2,0,6140001,,,6,6
48,104,0.75,3,0,6140001,,,6,12
53,104,0.125,4,1,6140001,,,6,2
53,104,0.3125,5,0,6140001,,,6,5
36,104,0.1875,6,1,6140001,,,6,3
57,104,0.4375,0,1,6150000,,,6,7
64,104,0.1875,1,1,6150000,,,6,3
68,104,0.25,2,0,6150000,,,6,4
68,104,0.1875,3,0,6150000,,,6,3
40,104,0.3125,4,1,6150000,,,6,5
52,104,0.25,5,1,6150000,,,6,4
59,104,0.8125,6,1,6150000,,,6,13
56,104,0.25,7,1,6150000,,,6,4
49,104,0.125,8,1,6150000,,,6,2
64,104,0.9375,9,1,6150000,,,6,15
59,104,0.375,10,1,6150000,,,6,6
61,104,0.3125,0,1,6150001,,,6,5
61,104,0.875,1,0,6150001,,,6,14
57,104,0.25,2,1,6150001,,,6,4
54,104,0.25,3,0,6150001,,,6,4
57,104,0.875,4,0,6150001,,,6,14
50,104,0.9375,5,1,6150001,,,6,15
38,104,0.625,6,1,6150001,,,6,10
57,104,0.3125,0,1,6150002,,,6,5
57,104,0.125,1,0,6150002,,,6,2
64,104,0.375,2,1,6150002,,,6,6
57,104,0.375,3,1,6150002,,,6,6
68,104,0.3125,4,1,6150002,,,6,5
40,104,0.1875,5,1,6150002,,,6,3
40,104,0.0625,6,0,6150002,,,6,1
54,104,0.3125,0,1,6160000,,,6,5
61,104,0.1875,1,1,6160000,,,6,3
54,104,0.1875,2,1,6160000,,,6,3
66,104,0.3125,3,1,6160000,,,6,5
59,104,0.1875,4,1,6160000,,,6,3
59,104,0.1875,5,0,6160000,,,6,3
52,104,0.5,6,1,6160000,,,6,8
59,104,0.4375,7,1,6160000,,,6,7
61,104,0.375,8,0,6160000,,,6,6
47,104,0.625,9,1,6160000,,,6,10
59,104,0.25,10,1,6160000,,,6,4
59,104,0.1875,11,0,6160000,,,6,3
35,104,0.25,12,1,6160000,,,6,4
54,104,0.25,0,1,6160001,,,6,4
47,104,0.25,1,1,6160001,,,6,4
59,104,0.1875,2,1,6160001,,,6,3
59,104,0.25,3,0,6160001,,,6,4
64,104,0.9375,0,1,6170000,,,6,15
64,104,0.25,1,1,6170000,,,6,4
47,104,0.9375,2,1,6170000,,,6,15
59,104,0.5,3,1,6170000,,,6,8
52,104,0.5625,4,1,6170000,,,6,9
40,104,0.1875,5,1,6170000,,,6,3
59,104,0.375,6,1,6170000,,,6,6
59,104,0.25,7,0,6170000,,,6,4
56,104,0.1875,0,1,6170001,,,6,3
56,104,0.25,1,0,6170001,,,6,4
57,104,0.75,2,0,6170001,,,6,12
57,104,0.5625,3,1,6170001,,,6,9
45,104,0.375,0,1,6180000,,,6,6
54,104,0.375,1,1,6180000,,,6,6
47,104,0.25,2,1,6180000,,,6,4
47,104,0.25,3,0,6180000,,,6,4
47,104,0.5625,4,0,6180000,,,6,9
47,104,0.5,5,0,6180000,,,6,8
47,104,0.5625,6,0,6180000,,,6,9
47,104,0.625,7,0,6180000,,,6,10
35,104,0.1875,8,1,6180000,,,6,3
35,104,0.25,9,0,6180000,,,6,4
35,104,0.4375,10,0,6180000,,,6,7
47,104,0.375,0,1,6180001,,,6,6
35,104,0.3125,1,1,6180001,,,6,5
35,104,0.5,2,0,6180001,,,6,8
59,104,0.1875,3,1,6180001,,,6,3
40,104,0.9375,4,1,6180001,,,6,15
40,104,0.3125,5,1,6180001,,,6,5
52,104,0.1875,6,1,6180001,,,6,3
40,104,0.5625,7,1,6180001,,,6,9
52,104,0.25,8,1,6180001,,,6,4
40,104,0.5,0,1,6180002,,,6,8
62,104,0.9375,0,1,6190000,,,6,15
62,104,0.3125,1,1,6190000,,,6,5
48,104,0.1875,2,1,6190000,,,6,3
48,104,0.125,3,0,6190000,,,6,2
48,104,0.9375,4,0,6190000,,,6,15
31,104,0.75,5,1,6190000,,,6,12
43,104,0.9375,6,1,6190000,,,6,15
48,104,0.6875,0,1,6200000,,,6,11
48,104,0.3125,1,0,6200000,,,6,5
48,104,0.3125,2,0,6200000,,,6,5
48,104,0.9375,3,0,6200000,,,6,15
52,104,0.1875,4,1,6200000,,,6,3
52,104,0.4375,5,0,6200000,,,6,7
52,104,0.5,6,0,6200000,,,6,8
60,104,0.5625,7,1,6200000,,,6,9
57,104,0.5,8,0,6200000,,,6,8
57,104,0.9375,0,1,6200001,,,6,15
62,104,0.4375,1,1,6200001,,,6,7
57,104,0.1875,2,0,6200001,,,6,3
53,104,0.4375,3,0,6200001,,,6,7
50,104,0.1875,4,0,6200001,,,6,3
43,104,0.5625,5,1,6200001,,,6,9
62,104,0.25,6,1,6200001,,,6,4
59,104,0.25,7,0,6200001,,,6,4
52,104,0.875,8,1,6200001,,,6,14
60,104,0.3125,0,1,6200002,,,6,5
40,104,0.9375,0,1,6210000,,,6,15
52,104,0.25,1,1,6210000,,,6,4
40,104,0.75,2,1,6210000,,,6,12
40,104,0.375,3,1,6210000,,,6,6
40,104,0.1875,4,0,6210000,,,6,3
64,104,0.1875,5,1,6210000,,,6,3
40,104,0.4375,6,1,6210000,,,6,7
40,104,0.9375,7,0,6210000,,,6,15
52,104,0.3125,0,1,6210001,,,6,5
40,104,0.3125,1,1,6210001,,,6,5
64,104,0.25,2,1,6210001,,,6,4
52,104,0.5,3,1,6210001,,,6,8
64,104,0.1875,4,1,6210001,,,6,3
52,104,0.4375,5,1,6210001,,,6,7
52,104,0.5,6,0,6210001,,,6,8
52,104,0.25,7,0,6210001,,,6,4
57,104,0.375,8,0,6210001,,,6,6
64,104,0.25,9,1,6210001,,,6,4
52,104,0.5625,10,1,6210001,,,6,9
52,104,0.375,0,1,6210002,,,6,6
33,104,0.25,1,1,6210002,,,6,4
60,104,0.1875,0,1,6220000,,,6,3
60,104,0.375,1,0,6220000,,,6,6
60,104,0.9375,2,0,6220000,,,6,15
60,104,0.375,3,1,6220000,,,6,6
36,104,0.1875,4,1,6220000,,,6,3
60,104,0.9375,5,1,6220000,,,6,15
60,104,0.9375,6,1,6220000,,,6,15
32,104,0.9375,7,1,6220000,,,6,15
60,104,0.75,0,1,6220001,,,6,12
60,104,0.5,1,1,6220001,,,6,8
32,104,0.75,2,1,6220001,,,6,12
58,104,0.3125,3,1,6220001,,,6,5
32,104,0.25,4,1,6220001,,,6,4
51,104,0.25,5,1,6220001,,,6,4
58,104,0.375,6,1,6220001,,,6,6
39,104,0.3125,0,1,6220002,,,6,5
51,104,0.9375,1,1,6220002,,,6,15
50,104,0.875,0,1,6230000,,,6,14
50,104,0.6875,1,1,6230000,,,6,11
62,104,0.1875,2,1,6230000,,,6,3
50,104,0.25,3,1,6230000,,,6,4
62,104,0.4375,4,1,6230000,,,6,7
49,104,0.8125,0,1,6240000,,,6,13
61,104,0.625,1,1,6240000,,,6,10
64,104,0.1875,2,0,6240000,,,6,3
64,104,0.625,3,0,6240000,,,6,10
49,104,0.8125,4,1,6240000,,,6,13
33,104,0.125,5,1,6240000,,,6,2
33,104,0.25,6,0,6240000,,,6,4
61,104,0.125,7,1,6240000,,,6,2
61,104,0.125,8,0,6240000,,,6,2
61,104,0.25,9,0,6240000,,,6,4
57,104,0.1875,10,0,6240000,,,6,3
61,104,0.5,0,1,6240001,,,6,8
47,104,0.25,1,1,6240001,,,6,4
47,104,0.375,2,0,6240001,,,6,6
63,104,0.5625,3,1,6240001,,,6,9
35,104,0.1875,4,1,6240001,,,6,3
52,104,0.875,5,1,6240001,,,6,14
52,104,0.3125,6,1,6240001,,,6,5
68,104,0.3125,7,1,6240001,,,6,5
40,104,0.6875,8,1,6240001,,,6,11
49,104,0.75,0,1,6240002,,,6,12
52,104,0.1875,0,1,6250000,,,6,3
52,104,0.25,1,0,6250000,,,6,4
65,104,0.4375,2,1,6250000,,,6,7
53,104,0.875,3,1,6250000,,,6,14
53,104,0.375,4,1,6250000,,,6,6
59,104,0.25,5,0,6250000,,,6,4
54,104,0.6875,6,0,6250000,,,6,11
59,104,0.375,7,0,6250000,,,6,6
54,104,0.4375,8,0,6250000,,,6,7
54,104,0.375,9,0,6250000,,,6,6
54,104,0.4375,0,1,6250001,,,6,7
35,104,0.375,1,1,6250001,,,6,6
54,104,0.6875,2,1,6250001,,,6,11
59,104,0.375,3,0,6250001,,,6,6
62,104,0.3125,4,0,6250001,,,6,5
47,104,0.3125,5,1,6250001,,,6,5
57,104,0.3125,6,1,6250001,,,6,5
52,104,0.6875,7,0,6250001,,,6,11
59,104,0.4375,8,1,6250001,,,6,7
52,104,0.25,0,1,6250002,,,6,4
52,104,0.1875,1,0,6250002,,,6,3
53,104,0.4375,0,1,6260000,,,6,7
53,104,0.375,1,0,6260000,,,6,6
53,104,0.1875,2,0,6260000,,,6,3
53,104,0.125,3,0,6260000,,,6,2
46,104,0.1875,4,1,6260000,,,6,3
53,104,0.3125,5,1,6260000,,,6,5
53,104,0.625,6,0,6260000,,,6,10
53,104,0.3125,7,0,6260000,,,6,5
58,104,0.3125,8,0,6260000,,,6,5
55,104,0.1875,9,0,6260000,,,6,3
55,104,0.25,10,0,6260000,,,6,4
53,104,0.1875,11,0,6260000,,,6,3
31,104,0.25,12,1,6260000,,,6,4
43,104,0.1875,13,1,6260000,,,6,3
62,104,0.375,0,1,6270000,,,6,6
62,104,0.1875,1,0,6270000,,,6,3
62,104,0.3125,2,0,6270000,,,6,5
62,104,0.3125,3,0,6270000,,,6,5
62,104,0.375,4,0,6270000,,,6,6
62,104,0.375,5,0,6270000,,,6,6
47,104,0.9375,0,1,6280000,,,6,15
47,104,0.4375,1,1,6280000,,,6,7
47,104,0.375,2,0,6280000,,,6,6
47,104,0.375,3,0,6280000,,,6,6
47,104,0.9375,4,0,6280000,,,6,15
59,104,0.375,5,1,6280000,,,6,6
47,104,0.5625,6,1,6280000,,,6,9
49,104,0.9375,0,1,6280001,,,6,15
59,104,0.1875,1,1,6280001,,,6,3
59,104,0.4375,2,0,6280001,,,6,7
49,104,0.5625,3,1,6280001,,,6,9
56,104,0.375,4,1,6280001,,,6,6
61,104,0.1875,5,0,6280001,,,6,3
59,104,0.25,6,0,6280001,,,6,4
49,104,0.3125,7,1,6280001,,,6,5
50,104,0.9375,8,0,6280001,,,6,15
46,104,0.25,0,1,6290000,,,6,4
46,104,0.875,1,0,6290000,,,6,14
44,104,0.75,2,1,6290000,,,6,12
44,104,0.625,3,1,6290000,,,6,10
58,104,0.9375,4,1,6290000,,,6,15
51,104,0.875,5,1,6290000,,,6,14
51,104,0.8125,0,1,6290001,,,6,13
58,104,0.9375,1,1,6290001,,,6,15
51,104,0.625,2,1,6290001,,,6,10
39,104,0.1875,3,1,6290001,,,6,3
44,104,0.1875,4,0,6290001,,,6,3
32,104,0.4375,5,1,6290001,,,6,7
58,104,0.9375,6,1,6290001,,,6,15
46,104,0.3125,0,1,6290002,,,6,5
38,104,0.875,0,1,6300000,,,6,14
50,104,0.5,1,1,6300000,,,6,8
38,104,0.8125,2,1,6300000,,,6,13
38,104,0.375,3,1,6300000,,,6,6
57,104,0.3125,4,1,6300000,,,6,5
38,104,0.1875,5,1,6300000,,,6,3
62,104,0.3125,6,1,6300000,,,6,5
50,104,0.875,7,1,6300000,,,6,14
38,104,0.4375,0,1,6300001,,,6,7
62,104,0.4375,1,1,6300001,,,6,7
62,104,0.1875,2,0,6300001,,,6,3
62,104,0.1875,3,0,6300001,,,6,3
45,104,0.25,4,1,6300001,,,6,4
64,104,0.1875,5,1,6300001,,,6,3
57,104,0.4375,6,1,6300001,,,6,7
57,104,0.375,7,0,6300001,,,6,6
57,104,0.25,8,0,6300001,,,6,4
57,104,0.3125,9,0,6300001,,,6,5
57,104,0.3125,10,0,6300001,,,6,5
64,104,0.1875,11,1,6300001,,,6,3
57,104,0.9375,12,1,6300001,,,6,15
64,104,0.8125,0,1,6300002,,,6,13
45,104,0.1875,1,1,6300002,,,6,3
55,104,0.1875,0,1,6310000,,,6,3
65,104,0.1875,1,1,6310000,,,6,3
65,104,0.9375,2,0,6310000,,,6,15
55,104,0.375,3,1,6310000,,,6,6
55,104,0.3125,4,0,6310000,,,6,5
50,104,0.625,5,0,6310000,,,6,10
53,104,0.25,6,0,6310000,,,6,4
58,104,0.25,7,0,6310000,,,6,4
58,104,0.25,8,0,6310000,,,6,4
51,104,0.9375,9,1,6310000,,,6,15
58,104,0.25,0,1,6310001,,,6,4
65,104,0.3125,1,1,6310001,,,6,5
65,104,0.1875,2,0,6310001,,,6,3
60,104,0.5625,3,0,6310001,,,6,9
41,104,0.25,4,1,6310001,,,6,4
41,104,0.375,5,0,6310001,,,6,6
41,104,0.25,6,0,6310001,,,6,4
65,104,0.1875,7,1,6310001,,,6,3
41,104,0.75,8,1,6310001,,,6,12
53,104,0.4375,9,1,6310001,,,6,7
57,104,0.1875,0,1,6320000,,,6,3
33,104,0.3125,1,1,6320000,,,6,5
33,104,0.1875,2,0,6320000,,,6,3
64,104,0.125,3,1,6320000,,,6,2
52,104,0.5625,4,1,6320000,,,6,9
52,104,0.1875,5,0,6320000,,,6,3
35,104,0.125,6,1,6320000,,,6,2
35,104,0.125,7,0,6320000,,,6,2
35,104,0.1875,8,0,6320000,,,6,3
35,104,0.25,9,0,6320000,,,6,4
59,104,0.125,10,1,6320000,,,6,2
59,104,0.25,11,0,6320000,,,6,4
35,104,0.25,12,1,6320000,,,6,4
35,104,0.75,13,0,6320000,,,6,12
35,104,0.1875,14,1,6320000,,,6,3
47,104,0.5625,15,1,6320000,,,6,9
64,104,0.1875,0,1,6320001,,,6,3
68,104,0.4375,1,0,6320001,,,6,7
59,104,0.1875,2,1,6320001,,,6,3
64,104,0.3125,3,0,6320001,,,6,5
68,104,0.3125,4,0,6320001,,,6,5
34,104,0.375,0,1,6330000,,,6,6
39,104,0.3125,1,0,6330000,,,6,5
39,104,0.3125,2,0,6330000,,,6,5
58,104,0.5625,3,1,6330000,,,6,9
39,104,0.25,4,1,6330000,,,6,4
58,104,0.25,5,1,6330000,,,6,4
58,104,0.375,6,0,6330000,,,6,6
29,104,0.9375,7,1,6330000,,,6,15
57,104,0.3125,8,1,6330000,,,6,5
29,104,0.3125,9,1,6330000,,,6,5
29,104,0.3125,0,1,6330001,,,6,5
29,104,0.3125,1,0,6330001,,,6,5
50,104,0.9375,0,1,6340000,,,6,15
50,104,0.75,1,1,6340000,,,6,12
50,104,0.9375,2,1,6340000,,,6,15
50,104,0.1875,3,1,6340000,,,6,3
50,104,0.375,4,0,6340000,,,6,6
65,104,0.9375,5,1,6340000,,,6,15
51,104,0.9375,0,1,6340001,,,6,15
51,104,0.1875,1,1,6340001,,,6,3
58,104,0.875,2,1,6340001,,,6,14
53,104,0.9375,3,1,6340001,,,6,15
41,104,0.4375,4,1,6340001,,,6,7
53,104,0.25,5,1,6340001,,,6,4
65,104,0.1875,6,1,6340001,,,6,3
53,104,0.5,7,1,6340001,,,6,8
61,104,0.625,0,1,6350000,,,6,10
57,104,0.625,1,0,6350000,,,6,10
57,104,0.5625,2,0,6350000,,,6,9
57,104,0.625,3,0,6350000,,,6,10
57,104,0.25,4,0,6350000,,,6,4
47,104,0.875,5,1,6350000,,,6,14
52,104,0.125,6,1,6350000,,,6,2
59,104,0.25,7,1,6350000,,,6,4
56,104,0.5625,8,0,6350000,,,6,9
61,104,0.9375,0,1,6350001,,,6,15
61,104,0.3125,1,1,6350001,,,6,5
61,104,0.8125,2,0,6350001,,,6,13
61,104,0.8125,3,1,6350001,,,6,13
54,104,0.75,4,1,6350001,,,6,12
52,104,0.25,0,1,6360000,,,6,4
54,104,0.25,1,0,6360000,,,6,4
54,104,0.4375,2,0,6360000,,,6,7
61,104,0.1875,3,1,6360000,,,6,3
61,104,0.5625,4,0,6360000,,,6,9
54,104,0.9375,5,1,6360000,,,6,15
59,104,0.25,6,1,6360000,,,6,4
35,104,0.5625,7,1,6360000,,,6,9
59,104,0.125,8,1,6360000,,,6,2
54,104,0.4375,9,0,6360000,,,6,7
35,104,0.1875,0,1,6360001,,,6,3
54,104,0.375,1,1,6360001,,,6,6
52,104,0.9375,2,0,6360001,,,6,15
52,104,0.375,3,1,6360001,,,6,6
52,104,0.9375,4,0,6360001,,,6,15
52,104,0.6875,5,1,6360001,,,6,11
52,104,0.0625,6,0,6360001,,,6,1
45,104,0.75,0,1,6370000,,,6,12
52,104,0.4375,1,1,6370000,,,6,7
52,104,0.9375,2,0,6370000,,,6,15
61,104,0.9375,3,1,6370000,,,6,15
38,104,0.5625,4,1,6370000,,,6,9
50,104,0.1875,5,1,6370000,,,6,3
38,104,0.375,6,1,6370000,,,6,6
57,104,0.375,0,1,6370001,,,6,6
57,104,0.375,1,0,6370001,,,6,6
57,104,0.125,2,0,6370001,,,6,2
57,104,0.9375,3,0,6370001,,,6,15
50,104,0.25,4,1,6370001,,,6,4
57,104,0.1875,5,1,6370001,,,6,3
33,104,0.1875,6,1,6370001,,,6,3
33,104,0.0625,7,0,6370001,,,6,1
53,104,0.625,0,1,6380000,,,6,10
61,104,0.625,1,1,6380000,,,6,10
61,104,0.9375,2,0,6380000,,,6,15
61,104,0.25,3,1,6380000,,,6,4
61,104,0.1875,4,0,6380000,,,6,3
42,104,0.5625,5,1,6380000,,,6,9
42,104,0.3125,6,0,6380000,,,6,5
54,104,0.1875,7,1,6380000,,,6,3
49,104,0.1875,8,0,6380000,,,6,3
61,104,0.1875,9,1,6380000,,,6,3
56,104,0.1875,0,1,6380001,,,6,3
53,104,0.375,1,0,6380001,,,6,6
53,104,0.8125,2,0,6380001,,,6,13
53,104,0.625,3,1,6380001,,,6,10
61,104,0.375,4,1,6380001,,,6,6
53,104,0.4375,0,1,6390000,,,6,7
55,104,0.1875,1,0,6390000,,,6,3
55,104,0.1875,2,0,6390000,,,6,3
41,104,0.25,3,1,6390000,,,6,4
53,104,0.25,4,1,6390000,,,6,4
53,104,0.1875,5,0,6390000,,,6,3
63,104,0.3125,0,1,6400000,,,6,5
63,104,0.1875,1,0,6400000,,,6,3
34,104,0.25,2,1,6400000,,,6,4
58,104,0.25,3,1,6400000,,,6,4
34,104,0.25,4,1,6400000,,,6,4
58,104,0.3125,5,1,6400000,,,6,5
58,104,0.3125,6,0,6400000,,,6,5
58,104,0.4375,7,0,6400000,,,6,7
58,104,0.1875,8,0,6400000,,,6,3
58,104,0.1875,9,0,6400000,,,6,3
58,104,0.25,10,0,6400000,,,6,4
58,104,0.25,11,0,6400000,,,6,4
51,104,0.1875,12,1,6400000,,,6,3
53,104,0.375,13,0,6400000,,,6,6
63,104,0.3125,14,1,6400000,,,6,5
55,104,0.1875,0,1,6400001,,,6,3
55,104,0.25,1,0,6400001,,,6,4
62,104,0.5625,2,1,6400001,,,6,9
50,104,0.25,3,1,6400001,,,6,4
43,104,0.1875,0,1,6410000,,,6,3
43,104,0.25,1,0,6410000,,,6,4
43,104,0.25,2,0,6410000,,,6,4
31,104,0.1875,3,1,6410000,,,6,3
34,104,0.1875,0,1,6420000,,,6,3
63,104,0.25,1,1,6420000,,,6,4
51,104,0.1875,2,1,6420000,,,6,3
43,104,0.1875,3,1,6420000,,,6,3
43,104,0.1875,4,0,6420000,,,6,3
43,104,0.1875,5,0,6420000,,,6,3
63,104,0.1875,6,1,6420000,,,6,3
44,104,0.375,7,1,6420000,,,6,6
51,104,0.25,8,1,6420000,,,6,4
63,104,0.125,9,1,6420000,,,6,2
40,104,0.3125,0,1,6430000,,,6,5
40,104,0.25,1,0,6430000,,,6,4
64,104,0.375,2,1,6430000,,,6,6
59,104,0.625,3,0,6430000,,,6,10
38,104,0.1875,4,1,6430000,,,6,3
57,104,0.1875,5,1,6430000,,,6,3
57,104,0.5625,6,0,6430000,,,6,9
57,104,0.4375,7,0,6430000,,,6,7
26,104,0.25,8,1,6430000,,,6,4
57,104,0.9375,9,1,6430000,,,6,15
57,104,0.375,0,1,6430001,,,6,6
50,104,0.3125,1,1,6430001,,,6,5
45,104,0.625,2,0,6430001,,,6,10
33,104,0.9375,3,1,6430001,,,6,15
33,104,0.1875,4,1,6430001,,,6,3
33,104,0.5,5,0,6430001,,,6,8
33,104,0.1875,6,0,6430001,,,6,3
33,104,0.1875,7,0,6430001,,,6,3
33,104,0.1875,8,0,6430001,,,6,3
35,104,0.125,9,0,6430001,,,6,2
35,104,0.6875,0,1,6440000,,,6,11
35,104,0.875,1,0,6440000,,,6,14
35,104,0.5625,2,1,6440000,,,6,9
35,104,0.875,3,0,6440000,,,6,14
35,104,0.75,4,1,6440000,,,6,12
35,104,0.375,5,1,6440000,,,6,6
35,104,0.25,0,1,6440001,,,6,4
35,104,0.6875,1,0,6440001,,,6,11
35,104,0.375,2,0,6440001,,,6,6
35,104,0.75,3,0,6440001,,,6,12
35,104,0.375,4,1,6440001,,,6,6
64,104,0.125,5,1,6440001,,,6,2
35,104,0.4375,6,1,6440001,,,6,7
35,104,0.75,7,0,6440001,,,6,12
56,104,0.25,8,1,6440001,,,6,4
56,104,0.5625,0,1,6440002,,,6,9
56,104,0.75,1,0,6440002,,,6,12
49,104,0.1875,0,1,6450000,,,6,3
49,104,0.9375,1,0,6450000,,,6,15
49,104,0.25,2,1,6450000,,,6,4
44,104,0.1875,3,0,6450000,,,6,3
44,104,0.25,4,0,6450000,,,6,4
56,104,0.3125,5,1,6450000,,,6,5
61,104,0.9375,6,0,6450000,,,6,15
61,104,0.25,7,1,6450000,,,6,4
49,104,0.125,8,1,6450000,,,6,2
61,104,0.1875,9,1,6450000,,,6,3
56,104,0.3125,10,0,6450000,,,6,5
50,104,0.25,0,1,6460000,,,6,4
62,104,0.5,1,1,6460000,,,6,8
50,104,0.1875,2,1,6460000,,,6,3
53,104,0.5,3,0,6460000,,,6,8
34,104,0.5,4,1,6460000,,,6,8
34,104,0.1875,5,0,6460000,,,6,3
46,104,0.3125,6,1,6460000,,,6,5
53,104,0.1875,7,1,6460000,,,6,3
34,104,0.5625,8,1,6460000,,,6,9
53,104,0.375,9,1,6460000,,,6,6
53,104,0.25,10,0,6460000,,,6,4
34,104,0.3125,11,1,6460000,,,6,5
53,104,0.6875,0,1,6460001,,,6,11
53,104,0.4375,1,0,6460001,,,6,7
34,104,0.1875,2,1,6460001,,,6,3
53,104,0.4375,3,1,6460001,,,6,7
34,104,0.5625,4,1,6460001,,,6,9
62,104,0.1875,5,1,6460001,,,6,3
60,104,0.25,6,0,6460001,,,6,4
53,104,0.3125,7,1,6460001,,,6,5
41,104,0.1875,8,1,6460001,,,6,3
53,104,0.75,9,1,6460001,,,6,12
55,104,0.375,0,1,6470000,,,6,6
48,104,0.9375,1,1,6470000,,,6,15
52,104,0.25,2,1,6470000,,,6,4
52,104,0.25,3,0,6470000,,,6,4
55,104,0.5,4,0,6470000,,,6,8
36,104,0.1875,5,1,6470000,,,6,3
36,104,0.1875,6,0,6470000,,,6,3
47,104,0.9375,7,1,6470000,,,6,15
47,104,0.625,8,1,6470000,,,6,10
55,104,0.25,0,1,6470001,,,6,4
55,104,0.4375,1,0,6470001,,,6,7
45,104,0.875,2,1,6470001,,,6,14
33,104,0.875,3,1,6470001,,,6,14
55,104,0.1875,4,1,6470001,,,6,3
60,104,0.375,5,0,6470001,,,6,6
40,104,0.75,6,1,6470001,,,6,12
38,104,0.1875,0,1,6480000,,,6,3
50,104,0.9375,1,1,6480000,,,6,15
38,104,0.3125,2,1,6480000,,,6,5
62,104,0.1875,3,1,6480000,,,6,3
57,104,0.25,4,0,6480000,,,6,4
59,104,0.375,5,0,6480000,,,6,6
62,104,0.25,6,0,6480000,,,6,4
33,104,0.9375,7,1,6480000,,,6,15
57,104,0.4375,8,1,6480000,,,6,7
57,104,0.25,9,0,6480000,,,6,4
59,104,0.375,0,1,6480001,,,6,6
61,104,0.375,1,0,6480001,,,6,6
57,104,0.3125,2,0,6480001,,,6,5
52,104,0.1875,3,0,6480001,,,6,3
62,104,0.375,4,1,6480001,,,6,6
43,104,0.1875,5,1,6480001,,,6,3
54,104,0.25,0,1,6490000,,,6,4
47,104,0.1875,1,1,6490000,,,6,3
54,104,0.3125,2,1,6490000,,,6,5
54,104,0.25,3,0,6490000,,,6,4
59,104,0.3125,4,0,6490000,,,6,5
59,104,0.375,5,0,6490000,,,6,6
59,104,0.6875,6,0,6490000,,,6,11
66,104,0.4375,7,1,6490000,,,6,7
66,104,0.25,8,0,6490000,,,6,4
66,104,0.9375,9,0,6490000,,,6,15
61,104,0.75,0,1,6490001,,,6,12
66,104,0.3125,1,1,6490001,,,6,5
61,104,0.9375,2,0,6490001,,,6,15
54,104,0.375,3,1,6490001,,,6,6
64,104,0.1875,4,1,6490001,,,6,3
66,104,0.8125,5,0,6490001,,,6,13
66,104,0.5625,6,1,6490001,,,6,9
61,104,0.625,0,1,6500000,,,6,10
49,104,0.3125,1,1,6500000,,,6,5
45,104,0.125,2,0,6500000,,,6,2
45,104,0.3125,3,0,6500000,,,6,5
61,104,0.5,4,1,6500000,,,6,8
57,104,0.25,5,0,6500000,,,6,4
57,104,0.1875,6,0,6500000,,,6,3
61,104,0.1875,7,0,6500000,,,6,3
47,104,0.75,8,1,6500000,,,6,12
59,104,0.1875,9,1,6500000,,,6,3
63,104,0.3125,10,0,6500000,,,6,5
47,104,0.25,11,1,6500000,,,6,4
52,104,0.875,0,1,6500001,,,6,14
52,104,0.1875,1,1,6500001,,,6,3
40,104,0.125,2,1,6500001,,,6,2
52,104,0.1875,3,1,6500001,,,6,3
40,104,0.25,4,1,6500001,,,6,4
49,104,0.75,5,1,6500001,,,6,12
61,104,0.25,6,1,6500001,,,6,4
64,104,0.375,7,0,6500001,,,6,6
61,104,0.125,8,0,6500001,,,6,2
61,104,0.1875,9,0,6500001,,,6,3
49,104,0.75,10,1,6500001,,,6,12
33,104,0.125,0,1,6500002,,,6,2
58,104,0.4375,0,1,6510000,,,6,7
58,104,0.25,1,0,6510000,,,6,4
53,104,0.1875,2,0,6510000,,,6,3
58,104,0.4375,3,0,6510000,,,6,7
58,104,0.875,4,0,6510000,,,6,14
58,104,0.1875,5,1,6510000,,,6,3
46,104,0.3125,6,1,6510000,,,6,5
58,104,0.4375,7,1,6510000,,,6,7
58,104,0.4375,8,0,6510000,,,6,7
51,104,0.4375,9,1,6510000,,,6,7
51,104,0.3125,0,1,6510001,,,6,5
51,104,0.1875,1,0,6510001,,,6,3
51,104,0.875,2,0,6510001,,,6,14
51,104,0.75,3,1,6510001,,,6,12
51,104,0.375,4,1,6510001,,,6,6
51,104,0.8125,5,0,6510001,,,6,13
53,104,0.8125,6,1,6510001,,,6,13
55,104,0.1875,0,1,6520000,,,6,3
63,104,0.3125,1,1,6520000,,,6,5
58,104,0.1875,2,0,6520000,,,6,3
55,104,0.25,3,0,6520000,,,6,4
55,104,0.25,4,0,6520000,,,6,4
58,104,0.25,5,0,6520000,,,6,4
58,104,0.6875,6,0,6520000,,,6,11
62,104,0.3125,7,0,6520000,,,6,5
58,104,0.375,8,0,6520000,,,6,6
58,104,0.1875,9,0,6520000,,,6,3
55,104,0.1875,10,0,6520000,,,6,3
58,104,0.25,11,0,6520000,,,6,4
57,104,0.6875,0,1,6530000,,,6,11
45,104,0.125,1,1,6530000,,,6,2
57,104,0.25,2,1,6530000,,,6,4
57,104,0.6875,3,0,6530000,,,6,11
57,104,0.125,4,0,6530000,,,6,2
57,104,0.1875,5,0,6530000,,,6,3
59,104,0.75,6,0,6530000,,,6,12
59,104,0.9375,7,1,6530000,,,6,15
52,104,0.1875,8,1,6530000,,,6,3
45,104,0.5,9,1,6530000,,,6,8
45,104,0.25,0,1,6530001,,,6,4
45,104,0.1875,1,0,6530001,,,6,3
33,104,0.25,2,1,6530001,,,6,4
45,104,0.3125,3,1,6530001,,,6,5
33,104,0.125,4,1,6530001,,,6,2
57,104,0.125,5,1,6530001,,,6,2
57,104,0.25,6,0,6530001,,,6,4
57,104,0.125,7,0,6530001,,,6,2
57,104,0.375,8,0,6530001,,,6,6
57,104,0.1875,9,0,6530001,,,6,3
57,104,0.25,10,0,6530001,,,6,4
29,104,0.25,0,1,6540000,,,6,4
53,104,0.25,1,1,6540000,,,6,4
53,104,0.4375,2,0,6540000,,,6,7
53,104,0.4375,3,0,6540000,,,6,7
58,104,0.1875,4,0,6540000,,,6,3
58,104,0.375,5,0,6540000,,,6,6
50,104,0.3125,6,1,6540000,,,6,5
50,104,0.3125,7,0,6540000,,,6,5
53,104,0.3125,8,0,6540000,,,6,5
38,104,0.625,9,1,6540000,,,6,10
57,104,0.9375,10,1,6540000,,,6,15
57,104,0.3125,0,1,6540001,,,6,5
29,104,0.0625,1,1,6540001,,,6,1
52,104,0.9375,0,1,6550000,,,6,15
52,104,0.1875,1,1,6550000,,,6,3
33,104,0.9375,2,1,6550000,,,6,15
57,104,0.25,3,1,6550000,,,6,4
45,104,0.375,4,1,6550000,,,6,6
57,104,0.1875,5,1,6550000,,,6,3
57,104,0.5625,6,0,6550000,,,6,9
57,104,0.3125,7,0,6550000,,,6,5
57,104,0.5625,8,0,6550000,,,6,9
45,104,0.25,0,1,6550001,,,6,4
33,104,0.25,1,1,6550001,,,6,4
63,104,0.9375,0,1,6560000,,,6,15
63,104,0.9375,1,1,6560000,,,6,15
89,104,0.1875,2,1,6560000,,,6,3
63,104,0.1875,3,1,6560000,,,6,3
63,104,0.5625,4,0,6560000,,,6,9
47,104,0.375,0,1,6570000,,,6,6
35,104,0.1875,1,1,6570000,,,6,3
35,104,0.5625,2,0,6570000,,,6,9
35,104,0.4375,3,0,6570000,,,6,7
59,104,0.9375,4,1,6570000,,,6,15
35,104,0.1875,5,1,6570000,,,6,3
59,104,0.875,6,1,6570000,,,6,14
54,104,0.9375,7,1,6570000,,,6,15
47,104,0.9375,0,1,6570001,,,6,15
35,104,0.1875,1,1,6570001,,,6,3
50,104,0.1875,0,1,6580000,,,6,3
62,104,0.5625,1,1,6580000,,,6,9
65,104,0.5,2,0,6580000,,,6,8
53,104,0.3125,3,1,6580000,,,6,5
62,104,0.1875,4,1,6580000,,,6,3
62,104,0.625,5,0,6580000,,,6,10
57,104,0.25,6,0,6580000,,,6,4
65,104,0.25,7,1,6580000,,,6,4
57,104,0.25,8,1,6580000,,,6,4
65,104,0.4375,9,1,6580000,,,6,7
62,104,0.1875,10,0,6580000,,,6,3
38,104,0.4375,11,1,6580000,,,6,7
53,104,0.3125,0,1,6580001,,,6,5
60,104,0.5,1,1,6580001,,,6,8
53,104,0.4375,2,1,6580001,,,6,7
53,104,0.5625,3,0,6580001,,,6,9
53,104,0.3125,4,0,6580001,,,6,5
65,104,0.1875,5,1,6580001,,,6,3
65,104,0.1875,6,0,6580001,,,6,3
53,104,0.25,7,1,6580001,,,6,4
53,104,0.3125,8,0,6580001,,,6,5
48,104,0.125,9,0,6580001,,,6,2
52,104,0.75,0,1,6590000,,,6,12
52,104,0.125,1,1,6590000,,,6,2
52,104,0.1875,2,0,6590000,,,6,3
40,104,0.75,3,1,6590000,,,6,12
54,104,0.25,4,1,6590000,,,6,4
54,104,0.125,5,0,6590000,,,6,2
61,104,0.9375,6,1,6590000,,,6,15
54,104,0.4375,7,1,6590000,,,6,7
54,104,0.125,8,0,6590000,,,6,2
61,104,0.9375,9,1,6590000,,,6,15
57,104,0.9375,0,1,6590001,,,6,15
38,104,0.5625,1,1,6590001,,,6,9
50,104,0.1875,2,1,6590001,,,6,3
38,104,0.1875,3,1,6590001,,,6,3
42,104,0.25,0,1,6600000,,,6,4
54,104,0.25,1,1,6600000,,,6,4
54,104,0.6875,2,0,6600000,,,6,11
54,104,0.375,3,0,6600000,,,6,6
54,104,0.5,4,0,6600000,,,6,8
54,104,0.4375,5,0,6600000,,,6,7
56,104,0.3125,6,0,6600000,,,6,5
59,104,0.3125,7,0,6600000,,,6,5
59,104,0.1875,8,0,6600000,,,6,3
59,104,0.5,9,0,6600000,,,6,8
59,104,0.1875,10,0,6600000,,,6,3
52,104,0.875,0,1,6600001,,,6,14
59,104,0.8125,1,1,6600001,,,6,13
59,104,0.5625,2,1,6600001,,,6,9
42,104,0.1875,3,1,6600001,,,6,3
61,104,0.1875,4,1,6600001,,,6,3
42,104,0.3125,5,1,6600001,,,6,5
42,104,0.1875,6,0,6600001,,,6,3
54,104,0.9375,7,1,6600001,,,6,15
54,104,0.375,0,1,6600002,,,6,6
54,104,0.375,1,0,6600002,,,6,6
35,104,0.3125,2,1,6600002,,,6,5
59,104,0.25,3,1,6600002,,,6,4
59,104,0.3125,0,1,6610000,,,6,5
50,104,0.5,1,1,6610000,,,6,8
61,104,0.375,2,1,6610000,,,6,6
56,104,0.9375,3,0,6610000,,,6,15
47,104,0.25,4,1,6610000,,,6,4
68,104,0.5625,5,1,6610000,,,6,9
61,104,0.1875,6,1,6610000,,,6,3
64,104,0.625,7,0,6610000,,,6,10
61,104,0.5625,8,0,6610000,,,6,9
57,104,0.1875,0,1,6610001,,,6,3
61,104,0.1875,1,0,6610001,,,6,3
64,104,0.125,2,0,6610001,,,6,2
59,104,0.3125,3,0,6610001,,,6,5
61,104,0.8125,4,0,6610001,,,6,13
51,104,0.1875,0,1,6620000,,,6,3
51,104,0.1875,1,0,6620000,,,6,3
32,104,0.25,2,1,6620000,,,6,4
56,104,0.125,3,1,6620000,,,6,2
60,104,0.625,4,0,6620000,,,6,10
58,104,0.1875,5,0,6620000,,,6,3
58,104,0.25,6,0,6620000,,,6,4
70,104,0.3125,7,1,6620000,,,6,5
58,104,0.25,8,1,6620000,,,6,4
53,104,0.25,9,0,6620000,,,6,4
48,104,0.1875,10,0,6620000,,,6,3
58,104,0.1875,11,1,6620000,,,6,3
51,104,0.9375,12,1,6620000,,,6,15
39,104,0.1875,13,1,6620000,,,6,3
51,104,0.125,0,1,6620001,,,6,2
63,104,0.375,1,1,6620001,,,6,6
51,104,0.25,2,1,6620001,,,6,4
63,104,0.3125,3,1,6620001,,,6,5
53,104,0.125,4,1,6620001,,,6,2
43,104,0.625,5,1,6620001,,,6,10
53,104,0.0625,6,1,6620001,,,6,1
57,104,0.6875,0,1,6630000,,,6,11
50,104,0.5625,1,1,6630000,,,6,9
50,104,0.9375,2,0,6630000,,,6,15
36,104,0.1875,3,1,6630000,,,6,3
36,104,0.9375,4,0,6630000,,,6,15
31,104,0.875,5,1,6630000,,,6,14
50,104,0.1875,0,1,6630001,,,6,3
31,104,0.3125,1,1,6630001,,,6,5
52,104,0.1875,2,1,6630001,,,6,3
33,104,0.25,0,1,6640000,,,6,4
45,104,0.6875,1,1,6640000,,,6,11
45,104,0.75,2,0,6640000,,,6,12
33,104,0.8125,3,1,6640000,,,6,13
45,104,0.25,4,1,6640000,,,6,4
37,104,0.1875,5,1,6640000,,,6,3
49,104,0.375,6,1,6640000,,,6,6
56,104,0.25,7,1,6640000,,,6,4
45,104,0.3125,8,1,6640000,,,6,5
26,104,0.1875,9,1,6640000,,,6,3
45,104,0.1875,0,1,6640001,,,6,3
45,104,0.9375,1,0,6640001,,,6,15
26,104,0.1875,2,1,6640001,,,6,3
38,104,0.25,3,1,6640001,,,6,4
67,104,0.1875,0,1,6650000,,,6,3
55,104,0.625,1,1,6650000,,,6,10
60,104,0.9375,2,0,6650000,,,6,15
60,104,0.9375,3,1,6650000,,,6,15
67,104,0.1875,4,1,6650000,,,6,3
67,104,0.1875,5,0,6650000,,,6,3
55,104,0.1875,6,1,6650000,,,6,3
55,104,0.1875,7,0,6650000,,,6,3
55,104,0.9375,8,0,6650000,,,6,15
55,104,0.9375,0,1,6650001,,,6,15
41,104,0.75,0,1,6660000,,,6,12
41,104,0.6875,1,1,6660000,,,6,11
53,104,0.25,2,1,6660000,,,6,4
41,104,0.375,3,1,6660000,,,6,6
53,104,0.5625,4,1,6660000,,,6,9
34,104,0.9375,5,1,6660000,,,6,15
34,104,0.5,6,1,6660000,,,6,8
57,104,0.125,0,1,6670000,,,6,2
45,104,0.5,1,1,6670000,,,6,8
59,104,0.625,2,1,6670000,,,6,10
45,104,0.625,3,1,6670000,,,6,10
52,104,0.1875,4,1,6670000,,,6,3
52,104,0.125,5,0,6670000,,,6,2
52,104,0.9375,6,0,6670000,,,6,15
52,104,0.1875,7,1,6670000,,,6,3
52,104,0.1875,8,0,6670000,,,6,3
52,104,0.375,9,0,6670000,,,6,6
40,104,0.375,10,1,6670000,,,6,6
52,104,0.5625,0,1,6670001,,,6,9
40,104,0.25,1,1,6670001,,,6,4
47,104,0.125,2,1,6670001,,,6,2
47,104,0.125,3,0,6670001,,,6,2
64,104,0.125,4,1,6670001,,,6,2
52,104,0.9375,0,1,6680000,,,6,15
66,104,0.3125,1,1,6680000,,,6,5
38,104,0.25,2,1,6680000,,,6,4
50,104,0.375,3,1,6680000,,,6,6
38,104,0.4375,4,1,6680000,,,6,7
50,104,0.5625,5,1,6680000,,,6,9
38,104,0.375,6,1,6680000,,,6,6
57,104,0.125,7,1,6680000,,,6,2
62,104,0.75,8,0,6680000,,,6,12
62,104,0.5,0,1,6680001,,,6,8
62,104,0.25,1,0,6680001,,,6,4
27,104,0.75,0,1,6690000,,,6,12
27,104,0.9375,1,1,6690000,,,6,15
27,104,0.375,2,1,6690000,,,6,6
51,104,0.9375,3,1,6690000,,,6,15
51,104,0.3125,4,1,6690000,,,6,5
29,104,0.1875,5,1,6690000,,,6,3
41,104,0.4375,6,1,6690000,,,6,7
29,104,0.5625,7,1,6690000,,,6,9
29,104,0.5625,0,1,6690001,,,6,9
41,104,0.9375,1,1,6690001,,,6,15
53,104,0.1875,2,1,6690001,,,6,3
41,104,0.1875,3,1,6690001,,,6,3
29,104,0.375,4,1,6690001,,,6,6
29,104,0.6875,5,0,6690001,,,6,11
50,104,0.9375,6,1,6690001,,,6,15
50,104,0.125,0,1,6690002,,,6,2
65,104,0.4375,0,1,6700000,,,6,7
53,104,0.5,1,1,6700000,,,6,8
53,104,0.25,2,0,6700000,,,6,4
60,104,0.9375,3,1,6700000,,,6,15
53,104,0.9375,4,1,6700000,,,6,15
60,104,0.375,5,1,6700000,,,6,6
60,104,0.9375,6,0,6700000,,,6,15
53,104,0.9375,0,1,6700001,,,6,15
65,104,0.125,1,1,6700001,,,6,2
51,104,0.625,2,1,6700001,,,6,10
51,104,0.875,3,0,6700001,,,6,14
51,104,0.3125,4,1,6700001,,,6,5
63,104,0.25,5,1,6700001,,,6,4
53,104,0.25,6,1,6700001,,,6,4
61,104,0.625,0,1,6710000,,,6,10
49,104,0.1875,1,1,6710000,,,6,3
61,104,0.4375,2,1,6710000,,,6,7
49,104,0.25,3,1,6710000,,,6,4
51,104,0.9375,4,0,6710000,,,6,15
63,104,0.125,0,1,6720000,,,6,2
63,104,0.1875,1,0,6720000,,,6,3
31,104,0.1875,2,1,6720000,,,6,3
63,104,0.5625,3,1,6720000,,,6,9
51,104,0.6875,4,1,6720000,,,6,11
46,104,0.4375,5,0,6720000,,,6,7
58,104,0.625,6,1,6720000,,,6,10
59,104,0.1875,0,1,6730000,,,6,3
59,104,0.9375,1,0,6730000,,,6,15
54,104,0.1875,2,1,6730000,,,6,3
54,104,0.4375,3,0,6730000,,,6,7
54,104,0.375,4,0,6730000,,,6,6
35,104,0.3125,5,1,6730000,,,6,5
66,104,0.3125,6,1,6730000,,,6,5
63,104,0.375,7,0,6730000,,,6,6
35,104,0.1875,8,1,6730000,,,6,3
64,104,0.5,9,1,6730000,,,6,8
64,104,0.1875,10,0,6730000,,,6,3
64,104,0.1875,0,1,6730001,,,6,3
64,104,0.1875,1,0,6730001,,,6,3
66,104,0.125,2,0,6730001,,,6,2
66,104,0.5625,3,0,6730001,,,6,9
53,104,0.75,0,1,6740000,,,6,12
53,104,0.25,1,1,6740000,,,6,4
60,104,0.375,2,1,6740000,,,6,6
55,104,0.25,3,0,6740000,,,6,4
48,104,0.25,4,1,6740000,,,6,4
65,104,0.25,5,1,6740000,,,6,4
55,104,0.125,6,1,6740000,,,6,2
53,104,0.25,7,0,6740000,,,6,4
53,104,0.375,8,0,6740000,,,6,6
53,104,0.4375,9,0,6740000,,,6,7
60,104,0.5,10,1,6740000,,,6,8
63,104,0.375,11,0,6740000,,,6,6
53,104,0.125,0,1,6740001,,,6,2
55,104,0.25,1,0,6740001,,,6,4
53,104,0.25,2,0,6740001,,,6,4
53,104,0.125,3,0,6740001,,,6,2
64,104,0.5,0,1,6750000,,,6,8
52,104,0.5625,1,1,6750000,,,6,9
40,104,0.1875,2,1,6750000,,,6,3
52,104,0.25,3,1,6750000,,,6,4
52,104,0.25,4,0,6750000,,,6,4
52,104,0.1875,5,0,6750000,,,6,3
52,104,0.5,6,0,6750000,,,6,8
40,104,0.25,7,1,6750000,,,6,4
52,104,0.5625,8,1,6750000,,,6,9
33,104,0.125,9,1,6750000,,,6,2
52,104,0.3125,10,1,6750000,,,6,5
52,104,0.5625,11,0,6750000,,,6,9
40,104,0.125,0,1,6750001,,,6,2
59,104,0.1875,1,1,6750001,,,6,3
57,104,0.625,2,0,6750001,,,6,10
52,104,0.3125,3,0,6750001,,,6,5
58,104,0.375,0,1,6760000,,,6,6
51,104,0.6875,1,1,6760000,,,6,11
63,104,0.125,2,1,6760000,,,6,2
58,104,0.25,3,0,6760000,,,6,4
58,104,0.125,4,0,6760000,,,6,2
58,104,0.375,5,0,6760000,,,6,6
43,104,0.5,6,1,6760000,,,6,8
43,104,0.9375,7,0,6760000,,,6,15
58,104,0.3125,8,1,6760000,,,6,5
48,104,0.8125,9,1,6760000,,,6,13
55,104,0.75,0,1,6760001,,,6,12
55,104,0.25,1,1,6760001,,,6,4
44,104,0.625,2,1,6760001,,,6,10
56,104,0.1875,3,1,6760001,,,6,3
56,104,0.875,4,0,6760001,,,6,14
58,104,0.375,5,1,6760001,,,6,6
58,104,0.125,6,0,6760001,,,6,2
46,104,0.6875,7,1,6760001,,,6,11
58,104,0.3125,0,1,6760002,,,6,5
63,104,0.5,1,0,6760002,,,6,8
62,104,0.5,0,1,6770000,,,6,8
47,104,0.6875,1,1,6770000,,,6,11
47,104,0.4375,2,0,6770000,,,6,7
47,104,0.8125,3,0,6770000,,,6,13
47,104,0.5,4,1,6770000,,,6,8
47,104,0.9375,5,0,6770000,,,6,15
56,104,0.5,6,1,6770000,,,6,8
56,104,0.1875,0,1,6770001,,,6,3
56,104,0.8125,1,0,6770001,,,6,13
56,104,0.6875,2,1,6770001,,,6,11
56,104,0.9375,3,0,6770001,,,6,15
56,104,0.625,4,1,6770001,,,6,10
57,104,0.25,5,0,6770001,,,6,4
47,104,0.25,6,1,6770001,,,6,4
50,104,0.25,0,1,6780000,,,6,4
50,104,0.5,1,0,6780000,,,6,8
50,104,0.3125,2,0,6780000,,,6,5
50,104,0.4375,3,0,6780000,,,6,7
50,104,0.9375,4,0,6780000,,,6,15
50,104,0.375,5,1,6780000,,,6,6
71,104,0.25,6,1,6780000,,,6,4
50,104,0.25,7,1,6780000,,,6,4
50,104,0.5625,8,0,6780000,,,6,9
31,104,0.1875,9,1,6780000,,,6,3
55,104,0.1875,0,1,6790000,,,6,3
53,104,0.1875,1,0,6790000,,,6,3
53,104,0.375,2,0,6790000,,,6,6
41,104,0.1875,3,1,6790000,,,6,3
53,104,0.25,4,1,6790000,,,6,4
53,104,0.9375,5,0,6790000,,,6,15
53,104,0.25,6,1,6790000,,,6,4
41,104,0.1875,7,1,6790000,,,6,3
41,104,0.25,8,0,6790000,,,6,4
53,104,0.4375,9,1,6790000,,,6,7
58,104,0.5,10,0,6790000,,,6,8
53,104,0.875,11,0,6790000,,,6,14
58,104,0.25,0,1,6790001,,,6,4
53,104,0.3125,1,0,6790001,,,6,5
53,104,0.625,2,0,6790001,,,6,10
53,104,0.625,3,0,6790001,,,6,10
53,104,0.25,4,0,6790001,,,6,4
53,104,0.8125,5,0,6790001,,,6,13
58,104,0.1875,6,1,6790001,,,6,3
51,104,0.1875,7,1,6790001,,,6,3
51,104,0.5625,8,0,6790001,,,6,9
53,104,0.9375,0,1,6800000,,,6,15
65,104,0.6875,1,1,6800000,,,6,11
53,104,0.375,2,1,6800000,,,6,6
53,104,0.25,3,0,6800000,,,6,4
65,104,0.25,4,1,6800000,,,6,4
34,104,0.1875,5,1,6800000,,,6,3
65,104,0.3125,6,1,6800000,,,6,5
53,104,0.375,7,1,6800000,,,6,6
62,104,0.1875,8,1,6800000,,,6,3
65,104,0.3125,9,0,6800000,,,6,5
60,104,0.375,10,0,6800000,,,6,6
65,104,0.9375,0,1,6800001,,,6,15
48,104,0.25,1,1,6800001,,,6,4
53,104,0.25,2,0,6800001,,,6,4
60,104,0.9375,3,1,6800001,,,6,15
60,104,0.5625,4,1,6800001,,,6,9
65,104,0.75,5,0,6800001,,,6,12
60,104,0.125,6,1,6800001,,,6,2
40,104,0.1875,0,1,6810000,,,6,3
52,104,0.6875,1,1,6810000,,,6,11
52,104,0.9375,2,0,6810000,,,6,15
52,104,0.25,3,1,6810000,,,6,4
49,104,0.9375,4,0,6810000,,,6,15
49,104,0.1875,5,1,6810000,,,6,3
49,104,0.5,6,0,6810000,,,6,8
49,104,0.9375,7,0,6810000,,,6,15
49,104,0.8125,0,1,6810001,,,6,13
59,104,0.25,1,1,6810001,,,6,4
49,104,0.875,2,1,6810001,,,6,14
49,104,0.5,3,1,6810001,,,6,8
49,104,0.5625,4,0,6810001,,,6,9
49,104,0.9375,5,0,6810001,,,6,15
45,104,0.5625,0,1,6810002,,,6,9
45,104,0.4375,1,0,6810002,,,6,7
45,104,0.125,2,0,6810002,,,6,2
50,104,0.9375,0,1,6820000,,,6,15
64,104,0.9375,1,1,6820000,,,6,15
40,104,0.625,2,1,6820000,,,6,10
52,104,0.1875,3,1,6820000,,,6,3
64,104,0.1875,4,1,6820000,,,6,3
59,104,0.125,5,0,6820000,,,6,2
40,104,0.1875,6,1,6820000,,,6,3
45,104,0.3125,7,0,6820000,,,6,5
45,104,0.25,8,0,6820000,,,6,4
33,104,0.1875,9,1,6820000,,,6,3
59,104,0.9375,10,1,6820000,,,6,15
40,104,0.3125,0,1,6820001,,,6,5
57,104,0.25,1,1,6820001,,,6,4
61,104,0.4375,2,0,6820001,,,6,7
52,104,0.4375,3,1,6820001,,,6,7
56,104,0.1875,4,0,6820001,,,6,3
57,104,0.9375,5,0,6820001,,,6,15
57,104,0.125,6,1,6820001,,,6,2
62,104,0.875,7,0,6820001,,,6,14
62,104,0.0625,0,1,6820002,,,6,1
46,104,0.4375,0,1,6830000,,,6,7
65,104,0.1875,1,1,6830000,,,6,3
51,104,0.4375,2,1,6830000,,,6,7
51,104,0.5,3,0,6830000,,,6,8
51,104,0.375,4,0,6830000,,,6,6
51,104,0.1875,5,0,6830000,,,6,3
51,104,0.375,6,0,6830000,,,6,6
39,104,0.25,7,1,6830000,,,6,4
51,104,0.375,8,1,6830000,,,6,6
51,104,0.4375,9,0,6830000,,,6,7
51,104,0.25,10,0,6830000,,,6,4
51,104,0.3125,11,0,6830000,,,6,5
39,104,0.125,0,1,6830001,,,6,2
51,104,0.125,1,1,6830001,,,6,2
51,104,0.125,2,0,6830001,,,6,2
43,104,0.1875,3,1,6830001,,,6,3
43,104,0.25,4,0,6830001,,,6,4
43,104,0.25,5,0,6830001,,,6,4
43,104,0.25,6,0,6830001,,,6,4
43,104,0.4375,7,0,6830001,,,6,7
63,104,0.125,8,1,6830001,,,6,2
53,104,0.5,0,1,6840000,,,6,8
53,104,0.25,1,0,6840000,,,6,4
60,104,0.75,2,1,6840000,,,6,12
60,104,0.9375,3,1,6840000,,,6,15
60,104,0.1875,4,1,6840000,,,6,3
60,104,0.6875,5,0,6840000,,,6,11
65,104,0.5625,6,0,6840000,,,6,9
60,104,0.5,7,0,6840000,,,6,8
46,104,0.3125,0,1,6840001,,,6,5
53,104,0.375,1,1,6840001,,,6,6
60,104,0.25,2,1,6840001,,,6,4
60,104,0.1875,3,0,6840001,,,6,3
60,104,0.25,4,0,6840001,,,6,4
53,104,0.25,5,1,6840001,,,6,4
53,104,0.1875,6,0,6840001,,,6,3
57,104,0.5625,7,0,6840001,,,6,9
49,104,0.375,0,1,6850000,,,6,6
61,104,0.4375,1,1,6850000,,,6,7
30,104,0.125,2,1,6850000,,,6,2
30,104,0.3125,3,0,6850000,,,6,5
68,104,0.375,4,1,6850000,,,6,6
59,104,0.125,5,1,6850000,,,6,2
35,104,0.125,6,1,6850000,,,6,2
35,104,0.5,7,0,6850000,,,6,8
64,104,0.3125,8,1,6850000,,,6,5
35,104,0.375,9,1,6850000,,,6,6
54,104,0.375,10,1,6850000,,,6,6
64,104,0.1875,11,1,6850000,,,6,3
64,104,0.3125,12,0,6850000,,,6,5
40,104,0.9375,13,1,6850000,,,6,15
40,104,0.25,0,1,6850001,,,6,4
40,104,0.625,1,0,6850001,,,6,10
59,104,0.25,2,1,6850001,,,6,4
73,104,0.9375,0,1,6860000,,,6,15
71,104,0.75,1,1,6860000,,,6,12
69,104,0.9375,2,1,6860000,,,6,15
69,104,0.9375,3,1,6860000,,,6,15
43,104,0.1875,4,1,6860000,,,6,3
43,104,0.1875,5,0,6860000,,,6,3
58,104,0.375,0,1,6870000,,,6,6
65,104,0.25,1,1,6870000,,,6,4
65,104,0.25,2,0,6870000,,,6,4
62,104,0.3125,3,0,6870000,,,6,5
50,104,0.1875,4,1,6870000,,,6,3
63,104,0.8125,5,1,6870000,,,6,13
62,104,0.375,6,1,6870000,,,6,6
62,104,0.375,7,0,6870000,,,6,6
45,104,0.375,0,1,6880000,,,6,6
45,104,0.5,1,0,6880000,,,6,8
45,104,0.5625,2,0,6880000,,,6,9
45,104,0.5,3,0,6880000,,,6,8
57,104,0.1875,4,1,6880000,,,6,3
45,104,0.375,5,1,6880000,,,6,6
45,104,0.5,6,0,6880000,,,6,8
45,104,0.625,7,0,6880000,,,6,10
44,104,0.5625,8,0,6880000,,,6,9
44,104,0.5625,0,1,6880001,,,6,9
44,104,0.9375,1,0,6880001,,,6,15
44,104,0.5625,2,1,6880001,,,6,9
44,104,0.5625,3,0,6880001,,,6,9
49,104,0.9375,4,0,6880001,,,6,15
49,104,0.9375,5,1,6880001,,,6,15
49,104,0.9375,0,1,6880002,,,6,15
55,104,0.1875,0,1,6890000,,,6,3
63,104,0.9375,1,1,6890000,,,6,15
63,104,0.5,2,1,6890000,,,6,8
51,104,0.875,3,1,6890000,,,6,14
63,104,0.1875,4,1,6890000,,,6,3
63,104,0.25,5,0,6890000,,,6,4
51,104,0.1875,6,1,6890000,,,6,3
63,104,0.3125,7,1,6890000,,,6,5
51,104,0.3125,8,1,6890000,,,6,5
51,104,0.1875,9,0,6890000,,,6,3
51,104,0.9375,10,0,6890000,,,6,15
51,104,0.8125,0,1,6890001,,,6,13
51,104,0.75,1,1,6890001,,,6,12
58,104,0.625,2,1,6890001,,,6,10
51,104,0.3125,3,1,6890001,,,6,5
58,104,0.9375,4,1,6890001,,,6,15
58,104,0.75,0,1,6890002,,,6,12
58,104,0.375,1,1,6890002,,,6,6
34,104,0.3125,2,1,6890002,,,6,5
29,104,0.1875,0,1,6900000,,,6,3
53,104,0.25,1,1,6900000,,,6,4
53,104,0.1875,2,0,6900000,,,6,3
53,104,0.25,3,0,6900000,,,6,4
89,104,0.125,4,1,6900000,,,6,2
89,104,0.1875,5,0,6900000,,,6,3
70,104,0.1875,6,1,6900000,,,6,3
89,104,0.5625,7,1,6900000,,,6,9
58,104,0.4375,0,1,6910000,,,6,7
46,104,0.5625,1,1,6910000,,,6,9
55,104,0.8125,2,1,6910000,,,6,13
55,104,0.25,3,1,6910000,,,6,4
55,104,0.1875,4,0,6910000,,,6,3
51,104,0.25,5,0,6910000,,,6,4
51,104,0.1875,6,0,6910000,,,6,3
51,104,0.4375,7,0,6910000,,,6,7
51,104,0.25,8,0,6910000,,,6,4
63,104,0.1875,9,1,6910000,,,6,3
51,104,0.1875,10,1,6910000,,,6,3
63,104,0.5,11,1,6910000,,,6,8
51,104,0.3125,0,1,6910001,,,6,5
51,104,0.1875,1,0,6910001,,,6,3
58,104,0.3125,2,1,6910001,,,6,5
46,104,0.4375,3,1,6910001,,,6,7
53,104,0.5625,4,1,6910001,,,6,9
65,104,0.1875,5,1,6910001,,,6,3
58,104,0.0625,6,1,6910001,,,6,1
51,104,0.3125,0,1,6920000,,,6,5
63,104,0.4375,1,1,6920000,,,6,7
63,104,0.625,2,0,6920000,,,6,10
51,104,0.8125,3,1,6920000,,,6,13
63,104,0.1875,4,1,6920000,,,6,3
63,104,0.5625,5,0,6920000,,,6,9
63,104,0.5625,6,0,6920000,,,6,9
51,104,0.9375,7,1,6920000,,,6,15
51,104,0.9375,0,1,6920001,,,6,15
65,104,0.75,1,1,6920001,,,6,12
56,104,0.6875,2,1,6920001,,,6,11
63,104,0.5625,3,1,6920001,,,6,9
51,104,0.3125,4,1,6920001,,,6,5
63,104,0.5625,5,1,6920001,,,6,9
58,104,0.125,0,1,6920002,,,6,2
54,104,0.375,0,1,6930000,,,6,6
54,104,0.4375,1,0,6930000,,,6,7
54,104,0.3125,2,0,6930000,,,6,5
54,104,0.25,3,0,6930000,,,6,4
54,104,0.5625,4,0,6930000,,,6,9
54,104,0.125,5,0,6930000,,,6,2
54,104,0.3125,6,0,6930000,,,6,5
54,104,0.5625,7,0,6930000,,,6,9
35,104,0.6875,8,1,6930000,,,6,11
35,104,0.125,9,0,6930000,,,6,2
35,104,0.4375,10,0,6930000,,,6,7
35,104,0.9375,0,1,6930001,,,6,15
54,104,0.3125,1,1,6930001,,,6,5
56,104,0.25,2,0,6930001,,,6,4
37,104,0.25,3,1,6930001,,,6,4
57,104,0.9375,0,1,6940000,,,6,15
59,104,0.1875,1,1,6940000,,,6,3
52,104,0.3125,2,1,6940000,,,6,5
47,104,0.25,3,0,6940000,,,6,4
62,104,0.5,4,1,6940000,,,6,8
57,104,0.5,5,0,6940000,,,6,8
50,104,0.3125,6,1,6940000,,,6,5
66,104,0.6875,7,1,6940000,,,6,11
31,104,0.125,8,1,6940000,,,6,2
59,104,0.3125,0,1,6950000,,,6,5
62,104,0.9375,1,0,6950000,,,6,15
66,104,0.1875,2,1,6950000,,,6,3
66,104,0.3125,3,0,6950000,,,6,5
59,104,0.125,4,1,6950000,,,6,2
40,104,0.1875,5,1,6950000,,,6,3
52,104,0.5625,6,1,6950000,,,6,9
59,104,0.375,7,1,6950000,,,6,6
52,104,0.8125,8,1,6950000,,,6,13
61,104,0.9375,9,1,6950000,,,6,15
61,104,0.1875,0,1,6950001,,,6,3
61,104,0.9375,1,0,6950001,,,6,15
61,104,0.25,2,1,6950001,,,6,4
61,104,0.125,3,0,6950001,,,6,2
61,104,0.9375,4,0,6950001,,,6,15
57,104,0.375,5,1,6950001,,,6,6
69,104,0.1875,6,1,6950001,,,6,3
50,104,0.3125,0,1,6960000,,,6,5
38,104,0.6875,1,1,6960000,,,6,11
50,104,0.9375,2,1,6960000,,,6,15
38,104,0.625,3,1,6960000,,,6,10
50,104,0.1875,4,1,6960000,,,6,3
50,104,0.375,5,0,6960000,,,6,6
50,104,0.9375,6,0,6960000,,,6,15
33,104,0.5625,0,1,6960001,,,6,9
33,104,0.6875,1,0,6960001,,,6,11
33,104,0.8125,2,0,6960001,,,6,13
45,104,0.25,3,1,6960001,,,6,4
47,104,0.75,4,0,6960001,,,6,12
28,104,0.125,5,1,6960001,,,6,2
35,104,0.5,0,1,6970000,,,6,8
35,104,0.1875,1,0,6970000,,,6,3
54,104,0.25,2,1,6970000,,,6,4
47,104,0.9375,3,1,6970000,,,6,15
35,104,0.1875,4,1,6970000,,,6,3
35,104,0.25,5,0,6970000,,,6,4
47,104,0.9375,6,1,6970000,,,6,15
47,104,0.9375,7,1,6970000,,,6,15
47,104,0.25,0,1,6970001,,,6,4
47,104,0.375,1,0,6970001,,,6,6
47,104,0.1875,2,0,6970001,,,6,3
62,104,0.3125,0,1,6980000,,,6,5
62,104,0.1875,1,0,6980000,,,6,3
50,104,0.3125,2,1,6980000,,,6,5
55,104,0.4375,3,0,6980000,,,6,7
55,104,0.9375,4,0,6980000,,,6,15
62,104,0.25,5,1,6980000,,,6,4
62,104,0.8125,6,0,6980000,,,6,13
66,104,0.9375,7,1,6980000,,,6,15
66,104,0.25,0,1,6980001,,,6,4
38,104,0.3125,1,1,6980001,,,6,5
38,104,0.25,2,0,6980001,,,6,4
62,104,0.25,3,1,6980001,,,6,4
62,104,0.9375,4,0,6980001,,,6,15
62,104,0.1875,5,1,6980001,,,6,3
62,104,0.25,6,0,6980001,,,6,4
64,104,0.375,7,0,6980001,,,6,6
56,104,0.375,0,1,6990000,,,6,6
33,104,0.9375,1,1,6990000,,,6,15
52,104,0.75,2,1,6990000,,,6,12
28,104,0.5,3,1,6990000,,,6,8
47,104,0.9375,4,1,6990000,,,6,15
47,104,0.4375,5,1,6990000,,,6,7
50,104,0.625,6,0,6990000,,,6,10
38,104,0.375,0,1,6990001,,,6,6
38,104,0.25,1,0,6990001,,,6,4
50,104,0.1875,2,1,6990001,,,6,3
28,104,0.625,3,1,6990001,,,6,10
28,104,0.25,4,0,6990001,,,6,4
25,104,0.3125,0,1,7000000,,,6,5
25,104,0.3125,1,0,7000000,,,6,5
56,104,0.375,2,1,7000000,,,6,6
25,104,0.3125,3,1,7000000,,,6,5
37,104,0.1875,4,1,7000000,,,6,3
37,104,0.5,5,0,7000000,,,6,8
56,104,0.375,6,1,7000000,,,6,6
35,104,0.4375,7,1,7000000,,,6,7
35,104,0.1875,8,0,7000000,,,6,3
35,104,0.375,9,0,7000000,,,6,6
63,104,0.125,0,1,7010000,,,6,2
48,104,0.1875,1,1,7010000,,,6,3
48,104,0.375,2,0,7010000,,,6,6
48,104,0.4375,3,0,7010000,,,6,7
48,104,0.1875,4,0,7010000,,,6,3
48,104,0.125,5,0,7010000,,,6,2
48,104,0.5,6,0,7010000,,,6,8
48,104,0.9375,7,0,7010000,,,6,15
49,104,0.25,0,1,7020000,,,6,4
49,104,0.9375,1,0,7020000,,,6,15
49,104,0.25,2,1,7020000,,,6,4
50,104,0.1875,3,0,7020000,,,6,3
54,104,0.1875,4,0,7020000,,,6,3
58,104,0.5,5,0,7020000,,,6,8
58,104,0.4375,6,0,7020000,,,6,7
54,104,0.3125,7,0,7020000,,,6,5
54,104,0.25,8,0,7020000,,,6,4
64,104,0.25,9,1,7020000,,,6,4
47,104,0.6875,10,1,7020000,,,6,11
47,104,0.875,0,1,7020001,,,6,14
47,104,0.75,1,1,7020001,,,6,12
47,104,0.875,2,1,7020001,,,6,14
47,104,0.75,3,1,7020001,,,6,12
47,104,0.25,4,1,7020001,,,6,4
58,104,0.4375,0,1,7030000,,,6,7
46,104,0.9375,1,1,7030000,,,6,15
60,104,0.9375,2,1,7030000,,,6,15
58,104,0.3125,3,1,7030000,,,6,5
63,104,0.5,4,0,7030000,,,6,8
63,104,0.625,5,0,7030000,,,6,10
70,104,0.1875,6,1,7030000,,,6,3
58,104,0.625,7,1,7030000,,,6,10
63,104,0.875,0,1,7030001,,,6,14
58,104,0.6875,1,1,7030001,,,6,11
51,104,0.1875,2,1,7030001,,,6,3
39,104,0.1875,3,1,7030001,,,6,3
63,104,0.625,4,1,7030001,,,6,10
36,104,0.6875,0,1,7040000,,,6,11
55,104,0.625,1,1,7040000,,,6,10
53,104,0.9375,2,0,7040000,,,6,15
53,104,0.375,3,1,7040000,,,6,6
53,104,0.125,4,0,7040000,,,6,2
55,104,0.4375,5,0,7040000,,,6,7
50,104,0.5625,6,0,7040000,,,6,9
50,104,0.875,7,0,7040000,,,6,14
50,104,0.8125,0,1,7040001,,,6,13
60,104,0.125,1,1,7040001,,,6,2
31,104,0.9375,2,1,7040001,,,6,15
60,104,0.1875,3,1,7040001,,,6,3
31,104,0.375,4,1,7040001,,,6,6
53,104,0.375,5,1,7040001,,,6,6
48,104,0.875,6,0,7040001,,,6,14
48,104,0.4375,0,1,7040002,,,6,7
36,104,0.4375,1,1,7040002,,,6,7
48,104,0.1875,2,1,7040002,,,6,3
48,104,0.1875,3,0,7040002,,,6,3
48,104,0.375,4,0,7040002,,,6,6
36,104,0.125,5,1,7040002,,,6,2
60,104,0.125,6,1,7040002,,,6,2
36,104,0.1875,7,1,7040002,,,6,3
53,104,0.3125,8,1,7040002,,,6,5
36,104,0.25,0,1,7050000,,,6,4
53,104,0.375,1,1,7050000,,,6,6
53,104,0.1875,2,0,7050000,,,6,3
53,104,0.125,3,0,7050000,,,6,2
48,104,0.25,4,0,7050000,,,6,4
58,104,0.3125,5,1,7050000,,,6,5
38,104,0.125,6,1,7050000,,,6,2
50,104,0.25,7,1,7050000,,,6,4
53,104,0.375,8,0,7050000,,,6,6
53,104,0.1875,9,0,7050000,,,6,3
53,104,0.5,10,0,7050000,,,6,8
60,104,0.1875,11,1,7050000,,,6,3
53,104,0.25,12,1,7050000,,,6,4
53,104,0.25,13,0,7050000,,,6,4
52,104,0.375,14,0,7050000,,,6,6
40,104,0.125,0,1,7050001,,,6,2
52,104,0.25,1,1,7050001,,,6,4
52,104,0.125,2,0,7050001,,,6,2
53,104,0.25,0,1,7060000,,,6,4
52,104,0.3125,1,0,7060000,,,6,5
52,104,0.3125,2,0,7060000,,,6,5
52,104,0.25,3,0,7060000,,,6,4
59,104,0.125,4,1,7060000,,,6,2
62,104,0.1875,5,0,7060000,,,6,3
46,104,0.1875,0,1,7070000,,,6,3
53,104,0.9375,1,1,7070000,,,6,15
58,104,0.5,2,1,7070000,,,6,8
53,104,0.1875,3,0,7070000,,,6,3
43,104,0.75,4,1,7070000,,,6,12
53,104,0.5,5,1,7070000,,,6,8
58,104,0.1875,6,0,7070000,,,6,3
51,104,0.9375,7,1,7070000,,,6,15
58,104,0.1875,0,1,7070001,,,6,3
51,104,0.1875,1,1,7070001,,,6,3
51,104,0.4375,2,0,7070001,,,6,7
63,104,0.8125,3,1,7070001,,,6,13
53,104,0.3125,4,1,7070001,,,6,5
41,104,0.25,5,1,7070001,,,6,4
41,104,0.25,6,0,7070001,,,6,4
53,104,0.9375,7,1,7070001,,,6,15
65,104,0.375,8,1,7070001,,,6,6
57,104,0.3125,0,1,7080000,,,6,5
47,104,0.5625,1,1,7080000,,,6,9
47,104,0.3125,2,0,7080000,,,6,5
59,104,0.1875,3,1,7080000,,,6,3
59,104,0.375,4,0,7080000,,,6,6
64,104,0.1875,5,0,7080000,,,6,3
59,104,0.125,6,0,7080000,,,6,2
47,104,0.4375,7,1,7080000,,,6,7
59,104,0.625,8,1,7080000,,,6,10
64,104,0.375,9,0,7080000,,,6,6
64,104,0.25,10,0,7080000,,,6,4
64,104,0.9375,11,0,7080000,,,6,15
52,104,0.3125,0,1,7080001,,,6,5
40,104,0.125,1,1,7080001,,,6,2
52,104,0.125,2,1,7080001,,,6,2
52,104,0.4375,3,0,7080001,,,6,7
64,104,0.9375,4,1,7080001,,,6,15
59,104,0.3125,5,1,7080001,,,6,5
59,104,0.1875,6,0,7080001,,,6,3
64,104,0.25,7,0,7080001,,,6,4
47,104,0.1875,8,1,7080001,,,6,3
47,104,0.625,9,0,7080001,,,6,10
58,104,0.1875,0,1,7090000,,,6,3
58,104,0.4375,1,0,7090000,,,6,7
51,104,0.9375,2,1,7090000,,,6,15
51,104,0.625,3,1,7090000,,,6,10
53,104,0.25,4,0,7090000,,,6,4
58,104,0.25,5,0,7090000,,,6,4
58,104,0.25,6,0,7090000,,,6,4
53,104,0.1875,7,0,7090000,,,6,3
36,104,0.25,8,1,7090000,,,6,4
48,104,0.4375,9,1,7090000,,,6,7
58,104,0.5,10,1,7090000,,,6,8
46,104,0.125,0,1,7090001,,,6,2
34,104,0.5,1,1,7090001,,,6,8
58,104,0.6875,2,1,7090001,,,6,11
48,104,0.125,0,1,7100000,,,6,2
55,104,0.125,1,1,7100000,,,6,2
55,104,0.1875,2,0,7100000,,,6,3
56,104,0.1875,3,0,7100000,,,6,3
58,104,0.1875,4,0,7100000,,,6,3
46,104,0.125,5,1,7100000,,,6,2
53,104,0.25,6,1,7100000,,,6,4
53,104,0.3125,7,0,7100000,,,6,5
58,104,0.5,8,0,7100000,,,6,8
58,104,0.5,9,0,7100000,,,6,8
58,104,0.5,10,0,7100000,,,6,8
58,104,0.4375,11,0,7100000,,,6,7
48,104,0.125,12,1,7100000,,,6,2
48,104,0.375,13,0,7100000,,,6,6
48,104,0.125,14,0,7100000,,,6,2
58,104,0.25,0,1,7100001,,,6,4
53,104,0.25,1,0,7100001,,,6,4
56,104,0.1875,2,0,7100001,,,6,3
59,104,0.25,0,1,7110000,,,6,4
40,104,0.25,1,1,7110000,,,6,4
68,104,0.3125,2,1,7110000,,,6,5
40,104,0.25,3,1,7110000,,,6,4
40,104,0.5,4,0,7110000,,,6,8
52,104,0.25,5,1,7110000,,,6,4
50,104,0.9375,6,0,7110000,,,6,15
66,104,0.4375,7,1,7110000,,,6,7
66,104,0.25,8,0,7110000,,,6,4
45,104,0.375,9,1,7110000,,,6,6
45,104,0.9375,10,0,7110000,,,6,15
45,104,0.5,0,1,7110001,,,6,8
45,104,0.9375,1,0,7110001,,,6,15
49,104,0.9375,2,1,7110001,,,6,15
49,104,0.25,3,1,7110001,,,6,4
54,104,0.9375,4,0,7110001,,,6,15
54,104,0.5,0,1,7110002,,,6,8
57,104,0.1875,1,0,7110002,,,6,3
64,104,0.5,2,1,7110002,,,6,8
61,104,0.0,3,0,7110002,,,6,0
61,104,0.9375,0,1,7120000,,,6,15
42,104,0.625,1,1,7120000,,,6,10
61,104,0.1875,2,1,7120000,,,6,3
42,104,0.25,3,1,7120000,,,6,4
61,104,0.4375,4,1,7120000,,,6,7
59,104,0.25,5,0,7120000,,,6,4
47,104,0.875,6,1,7120000,,,6,14
47,104,0.625,7,1,7120000,,,6,10
52,104,0.25,0,1,7120001,,,6,4
40,104,0.5625,1,1,7120001,,,6,9
40,104,0.3125,2,0,7120001,,,6,5
52,104,0.1875,3,1,7120001,,,6,3
52,104,0.25,4,0,7120001,,,6,4
59,104,0.3125,5,1,7120001,,,6,5
40,104,0.25,6,1,7120001,,,6,4
59,104,0.4375,7,1,7120001,,,6,7
59,104,0.8125,8,0,7120001,,,6,13
64,104,0.25,9,1,7120001,,,6,4
59,104,0.25,10,0,7120001,,,6,4
59,104,0.625,0,1,7120002,,,6,10
33,104,0.25,0,1,7130000,,,6,4
52,104,0.4375,1,1,7130000,,,6,7
52,104,0.3125,2,0,7130000,,,6,5
61,104,0.25,3,1,7130000,,,6,4
52,104,0.3125,4,1,7130000,,,6,5
54,104,0.5625,5,0,7130000,,,6,9
47,104,0.9375,6,1,7130000,,,6,15
54,104,0.3125,7,1,7130000,,,6,5
52,104,0.1875,8,0,7130000,,,6,3
45,104,0.5625,9,1,7130000,,,6,9
57,104,0.1875,0,1,7130001,,,6,3
33,104,0.375,1,1,7130001,,,6,6
45,104,0.75,2,1,7130001,,,6,12
33,104,0.25,3,1,7130001,,,6,4
54,104,0.3125,4,1,7130001,,,6,5
47,104,0.3125,5,1,7130001,,,6,5
35,104,0.5625,6,1,7130001,,,6,9
35,104,0.9375,7,0,7130001,,,6,15
36,104,0.75,0,1,7140000,,,6,12
36,104,0.1875,1,1,7140000,,,6,3
47,104,0.9375,2,1,7140000,,,6,15
47,104,0.125,3,1,7140000,,,6,2
47,104,0.1875,4,0,7140000,,,6,3
47,104,0.75,5,0,7140000,,,6,12
48,104,0.1875,6,1,7140000,,,6,3
59,104,0.6875,0,1,7150000,,,6,11
35,104,0.9375,1,1,7150000,,,6,15
35,104,0.375,2,1,7150000,,,6,6
35,104,0.75,3,0,7150000,,,6,12
47,104,0.5625,4,1,7150000,,,6,9
35,104,0.9375,5,1,7150000,,,6,15
71,104,0.1875,0,1,7150001,,,6,3
83,104,0.1875,1,1,7150001,,,6,3
83,104,0.25,2,0,7150001,,,6,4
64,104,0.3125,0,1,7160000,,,6,5
50,104,0.4375,1,1,7160000,,,6,7
38,104,0.625,2,1,7160000,,,6,10
50,104,0.25,3,1,7160000,,,6,4
53,104,0.375,4,0,7160000,,,6,6
36,104,0.9375,5,1,7160000,,,6,15
36,104,0.8125,6,1,7160000,,,6,13
55,104,0.3125,7,1,7160000,,,6,5
47,104,0.1875,0,1,7160001,,,6,3
47,104,0.375,1,0,7160001,,,6,6
28,104,0.3125,2,1,7160001,,,6,5
52,104,0.25,3,1,7160001,,,6,4
57,104,0.125,4,0,7160001,,,6,2
60,104,0.25,5,0,7160001,,,6,4
57,104,0.25,6,0,7160001,,,6,4
57,104,0.125,7,0,7160001,,,6,2
33,104,0.375,8,1,7160001,,,6,6
60,104,0.375,9,1,7160001,,,6,6
39,104,0.1875,0,1,7170000,,,6,3
32,104,0.1875,1,1,7170000,,,6,3
56,104,0.75,2,1,7170000,,,6,12
32,104,0.25,3,1,7170000,,,6,4
51,104,0.25,4,1,7170000,,,6,4
34,104,0.3125,5,1,7170000,,,6,5
34,104,0.1875,6,0,7170000,,,6,3
34,104,0.1875,7,0,7170000,,,6,3
34,104,0.25,8,0,7170000,,,6,4
34,104,0.1875,9,0,7170000,,,6,3
34,104,0.1875,10,0,7170000,,,6,3
46,104,0.1875,11,1,7170000,,,6,3
32,104,0.4375,12,1,7170000,,,6,7
56,104,0.125,13,1,7170000,,,6,2
46,104,0.4375,14,1,7170000,,,6,7
58,104,0.25,0,1,7170001,,,6,4
58,104,0.25,1,0,7170001,,,6,4
53,104,0.25,2,0,7170001,,,6,4
34,104,0.3125,3,1,7170001,,,6,5
46,104,0.25,4,1,7170001,,,6,4
60,104,0.9375,0,1,7180000,,,6,15
60,104,0.5,1,1,7180000,,,6,8
65,104,0.5,2,0,7180000,,,6,8
60,104,0.375,3,0,7180000,,,6,6
65,104,0.625,4,0,7180000,,,6,10
53,104,0.1875,5,1,7180000,,,6,3
65,104,0.625,6,1,7180000,,,6,10
60,104,0.875,7,0,7180000,,,6,14
65,104,0.5,0,1,7180001,,,6,8
60,104,0.9375,1,0,7180001,,,6,15
53,104,0.9375,2,1,7180001,,,6,15
65,104,0.4375,3,1,7180001,,,6,7
53,104,0.1875,4,1,7180001,,,6,3
53,104,0.25,5,0,7180001,,,6,4
53,104,0.4375,6,0,7180001,,,6,7
53,104,0.5,0,1,7180002,,,6,8
65,104,0.375,1,1,7180002,,,6,6
41,104,0.3125,2,1,7180002,,,6,5
31,104,0.25,0,1,7190000,,,6,4
50,104,0.5625,1,1,7190000,,,6,9
50,104,0.4375,2,0,7190000,,,6,7
41,104,0.9375,3,1,7190000,,,6,15
29,104,0.625,4,1,7190000,,,6,10
29,104,0.1875,5,0,7190000,,,6,3
29,104,0.1875,6,0,7190000,,,6,3
41,104,0.9375,7,1,7190000,,,6,15
53,104,0.1875,0,1,7190001,,,6,3
41,104,0.3125,1,1,7190001,,,6,5
53,104,0.1875,2,1,7190001,,,6,3
55,104,0.4375,3,0,7190001,,,6,7
48,104,0.9375,4,1,7190001,,,6,15
48,104,0.25,5,1,7190001,,,6,4
36,104,0.125,6,1,7190001,,,6,2
48,104,0.3125,7,1,7190001,,,6,5
60,104,0.5625,8,1,7190001,,,6,9
48,104,0.9375,9,1,7190001,,,6,15
28,104,0.4375,0,1,7200000,,,6,7
28,104,0.25,1,0,7200000,,,6,4
47,104,0.125,2,1,7200000,,,6,2
47,104,0.125,3,0,7200000,,,6,2
50,104,0.9375,4,0,7200000,,,6,15
54,104,0.1875,5,1,7200000,,,6,3
50,104,0.9375,6,0,7200000,,,6,15
52,104,0.3125,7,1,7200000,,,6,5
40,104,0.4375,8,1,7200000,,,6,7
52,104,0.75,9,1,7200000,,,6,12
54,104,0.1875,0,1,7200001,,,6,3
52,104,0.1875,1,0,7200001,,,6,3
33,104,0.25,2,1,7200001,,,6,4
33,104,0.25,3,0,7200001,,,6,4
33,104,0.1875,4,0,7200001,,,6,3
45,104,0.25,5,1,7200001,,,6,4
45,104,0.8125,6,0,7200001,,,6,13
28,104,0.25,7,1,7200001,,,6,4
28,104,0.25,8,0,7200001,,,6,4
47,104,0.875,9,1,7200001,,,6,14
47,104,0.9375,0,1,7200002,,,6,15
57,104,0.9375,0,1,7210000,,,6,15
57,104,0.9375,1,1,7210000,,,6,15
61,104,0.5,2,1,7210000,,,6,8
61,104,0.9375,3,0,7210000,,,6,15
64,104,0.4375,4,1,7210000,,,6,7
62,104,0.9375,5,0,7210000,,,6,15
62,104,0.1875,0,1,7210001,,,6,3
57,104,0.3125,1,0,7210001,,,6,5
50,104,0.3125,2,1,7210001,,,6,5
62,104,0.9375,3,1,7210001,,,6,15
50,104,0.125,4,1,7210001,,,6,2
50,104,0.4375,5,0,7210001,,,6,7
38,104,0.1875,6,1,7210001,,,6,3
38,104,0.4375,7,0,7210001,,,6,7
68,104,0.5,8,1,7210001,,,6,8
68,104,0.1875,0,1,7210002,,,6,3
68,104,0.9375,1,0,7210002,,,6,15
55,104,0.9375,0,1,7220000,,,6,15
36,104,0.625,1,1,7220000,,,6,10
55,104,0.3125,2,1,7220000,,,6,5
36,104,0.1875,3,1,7220000,,,6,3
78,104,0.25,4,1,7220000,,,6,4
53,104,0.375,5,1,7220000,,,6,6
37,104,0.1875,6,1,7220000,,,6,3
53,104,0.25,7,1,7220000,,,6,4
61,104,0.3125,8,1,7220000,,,6,5
44,104,0.25,9,1,7220000,,,6,4
44,104,0.25,10,0,7220000,,,6,4
25,104,0.25,11,1,7220000,,,6,4
34,104,0.1875,0,1,7220001,,,6,3
46,104,0.1875,1,1,7220001,,,6,3
53,104,0.1875,2,1,7220001,,,6,3
65,104,0.375,0,1,7230000,,,6,6
76,104,0.375,1,1,7230000,,,6,6
72,104,0.25,2,0,7230000,,,6,4
72,104,0.4375,3,0,7230000,,,6,7
53,104,0.25,4,1,7230000,,,6,4
77,104,0.25,5,1,7230000,,,6,4
81,104,0.125,6,0,7230000,,,6,2
60,104,0.1875,7,1,7230000,,,6,3
79,104,0.25,8,1,7230000,,,6,4
84,104,0.25,9,0,7230000,,,6,4
53,104,0.5625,10,1,7230000,,,6,9
65,104,0.375,11,1,7230000,,,6,6
77,104,0.3125,12,1,7230000,,,6,5
53,104,0.25,0,1,7230001,,,6,4
60,104,0.5,1,1,7230001,,,6,8
60,104,0.375,2,0,7230001,,,6,6
60,104,0.5,3,0,7230001,,,6,8
84,104,0.3125,4,1,7230001,,,6,5
60,104,0.9375,5,1,7230001,,,6,15
60,104,0.1875,6,1,7230001,,,6,3
55,104,0.3125,7,0,7230001,,,6,5
60,104,0.1875,8,0,7230001,,,6,3
58,104,0.5625,9,0,7230001,,,6,9
65,104,0.1875,0,1,7230002,,,6,3
77,104,0.125,1,1,7230002,,,6,2
76,104,0.125,2,0,7230002,,,6,2
51,104,0.9375,0,1,7240000,,,6,15
51,104,0.6875,1,1,7240000,,,6,11
39,104,0.25,2,1,7240000,,,6,4
51,104,0.375,3,1,7240000,,,6,6
39,104,0.3125,4,1,7240000,,,6,5
70,104,0.1875,5,1,7240000,,,6,3
58,104,0.375,6,1,7240000,,,6,6
63,104,0.25,7,0,7240000,,,6,4
70,104,0.1875,8,1,7240000,,,6,3
58,104,0.375,9,1,7240000,,,6,6
51,104,0.8125,10,1,7240000,,,6,13
51,104,0.3125,0,1,7240001,,,6,5
51,104,0.1875,1,0,7240001,,,6,3
51,104,0.3125,2,0,7240001,,,6,5
63,104,0.25,3,1,7240001,,,6,4
63,104,0.5,4,0,7240001,,,6,8
58,104,0.375,5,0,7240001,,,6,6
46,104,0.5625,6,1,7240001,,,6,9
61,104,0.4375,0,1,7250000,,,6,7
61,104,0.5625,1,0,7250000,,,6,9
62,104,0.1875,2,0,7250000,,,6,3
62,104,0.4375,3,0,7250000,,,6,7
47,104,0.6875,4,1,7250000,,,6,11
62,104,0.25,5,1,7250000,,,6,4
73,104,0.25,6,1,7250000,,,6,4
62,104,0.9375,7,1,7250000,,,6,15
62,104,0.625,8,1,7250000,,,6,10
40,104,0.75,0,1,7250001,,,6,12
40,104,0.3125,1,1,7250001,,,6,5
52,104,0.9375,2,1,7250001,,,6,15
40,104,0.875,3,1,7250001,,,6,14
40,104,0.375,4,1,7250001,,,6,6
40,104,0.1875,5,0,7250001,,,6,3
40,104,0.5,6,0,7250001,,,6,8
52,104,0.375,0,1,7250002,,,6,6
48,104,0.9375,0,1,7260000,,,6,15
53,104,0.5,1,1,7260000,,,6,8
60,104,0.6875,2,1,7260000,,,6,11
48,104,0.625,3,1,7260000,,,6,10
48,104,0.8125,4,0,7260000,,,6,13
53,104,0.3125,5,1,7260000,,,6,5
48,104,0.9375,6,0,7260000,,,6,15
53,104,0.1875,0,1,7260001,,,6,3
65,104,0.3125,1,1,7260001,,,6,5
62,104,0.4375,2,0,7260001,,,6,7
62,104,0.375,3,0,7260001,,,6,6
53,104,0.4375,4,1,7260001,,,6,7
62,104,0.5,5,1,7260001,,,6,8
53,104,0.1875,6,1,7260001,,,6,3
58,104,0.25,7,0,7260001,,,6,4
47,104,0.5625,0,1,7270000,,,6,9
59,104,0.625,1,1,7270000,,,6,10
59,104,0.3125,2,0,7270000,,,6,5
59,104,0.375,3,0,7270000,,,6,6
64,104,0.1875,4,0,7270000,,,6,3
52,104,0.4375,5,1,7270000,,,6,7
52,104,0.1875,6,0,7270000,,,6,3
52,104,0.5625,7,0,7270000,,,6,9
52,104,0.25,8,0,7270000,,,6,4
64,104,0.3125,9,1,7270000,,,6,5
61,104,0.25,10,0,7270000,,,6,4
64,104,0.625,0,1,7270001,,,6,10
64,104,0.25,1,0,7270001,,,6,4
64,104,0.5,2,0,7270001,,,6,8
59,104,0.1875,3,0,7270001,,,6,3
52,104,0.375,4,1,7270001,,,6,6
64,104,0.5625,5,1,7270001,,,6,9
57,104,0.3125,6,1,7270001,,,6,5
57,104,0.25,7,0,7270001,,,6,4
61,104,0.3125,0,1,7280000,,,6,5
69,104,0.375,1,1,7280000,,,6,6
61,104,0.375,2,1,7280000,,,6,6
61,104,0.25,3,0,7280000,,,6,4
69,104,0.375,4,1,7280000,,,6,6
57,104,0.1875,5,1,7280000,,,6,3
66,104,0.25,6,1,7280000,,,6,4
62,104,0.9375,7,0,7280000,,,6,15
62,104,0.625,8,1,7280000,,,6,10
47,104,0.1875,9,1,7280000,,,6,3
59,104,0.375,10,1,7280000,,,6,6
62,104,0.625,0,1,7280001,,,6,10
59,104,0.1875,1,0,7280001,,,6,3
66,104,0.1875,2,1,7280001,,,6,3
40,104,0.875,3,1,7280001,,,6,14
40,104,0.6875,4,1,7280001,,,6,11
40,104,0.375,5,0,7280001,,,6,6
40,104,0.25,6,0,7280001,,,6,4
47,104,0.25,0,1,7290000,,,6,4
59,104,0.1875,1,1,7290000,,,6,3
59,104,0.375,2,0,7290000,,,6,6
61,104,0.3125,3,0,7290000,,,6,5
54,104,0.6875,4,1,7290000,,,6,11
54,104,0.9375,5,0,7290000,,,6,15
42,104,0.3125,6,1,7290000,,,6,5
61,104,0.3125,7,1,7290000,,,6,5
61,104,0.1875,8,0,7290000,,,6,3
61,104,0.4375,9,0,7290000,,,6,7
40,104,0.25,0,1,7290001,,,6,4
59,104,0.3125,1,1,7290001,,,6,5
59,104,0.75,2,0,7290001,,,6,12
59,104,0.375,3,1,7290001,,,6,6
52,104,0.25,4,1,7290001,,,6,4
59,104,0.75,5,1,7290001,,,6,12
59,104,0.9375,6,1,7290001,,,6,15
35,104,0.375,7,1,7290001,,,6,6
54,104,0.4375,0,1,7290002,,,6,7
62,104,0.1875,0,1,7300000,,,6,3
62,104,0.375,1,0,7300000,,,6,6
54,104,0.5625,2,1,7300000,,,6,9
54,104,0.125,3,0,7300000,,,6,2
66,104,0.3125,4,1,7300000,,,6,5
69,104,0.4375,5,0,7300000,,,6,7
45,104,0.8125,6,1,7300000,,,6,13
57,104,0.25,7,1,7300000,,,6,4
43,104,0.25,8,1,7300000,,,6,4
62,104,0.25,9,1,7300000,,,6,4
57,104,0.375,10,0,7300000,,,6,6
57,104,0.9375,11,0,7300000,,,6,15
57,104,0.9375,0,1,7300001,,,6,15
57,104,0.1875,1,1,7300001,,,6,3
57,104,0.25,2,0,7300001,,,6,4
50,104,0.9375,3,1,7300001,,,6,15
57,104,0.9375,0,1,7310000,,,6,15
50,104,0.1875,1,1,7310000,,,6,3
38,104,0.25,2,1,7310000,,,6,4
50,104,0.4375,3,1,7310000,,,6,7
52,104,0.9375,4,0,7310000,,,6,15
62,104,0.75,5,1,7310000,,,6,12
62,104,0.3125,6,1,7310000,,,6,5
52,104,0.5,7,1,7310000,,,6,8
50,104,0.3125,0,1,7310001,,,6,5
50,104,0.9375,1,0,7310001,,,6,15
50,104,0.1875,2,1,7310001,,,6,3
58,104,0.9375,3,1,7310001,,,6,15
58,104,0.75,4,1,7310001,,,6,12
33,104,0.25,5,1,7310001,,,6,4
33,104,0.6875,6,0,7310001,,,6,11
41,104,0.375,0,1,7320000,,,6,6
63,104,0.375,1,1,7320000,,,6,6
63,104,0.3125,2,0,7320000,,,6,5
63,104,0.875,3,0,7320000,,,6,14
51,104,0.9375,4,1,7320000,,,6,15
63,104,0.5,5,1,7320000,,,6,8
51,104,0.5625,6,1,7320000,,,6,9
63,104,0.75,7,1,7320000,,,6,12
53,104,0.3125,0,1,7320001,,,6,5
41,104,0.1875,1,1,7320001,,,6,3
29,104,0.875,2,1,7320001,,,6,14
48,104,0.9375,3,1,7320001,,,6,15
52,104,0.625,0,1,7330000,,,6,10
50,104,0.1875,1,0,7330000,,,6,3
52,104,0.3125,2,0,7330000,,,6,5
67,104,0.1875,3,1,7330000,,,6,3
62,104,0.1875,4,0,7330000,,,6,3
52,104,0.375,5,1,7330000,,,6,6
67,104,0.6875,6,1,7330000,,,6,11
69,104,0.375,7,0,7330000,,,6,6
69,104,0.25,8,0,7330000,,,6,4
52,104,0.1875,9,1,7330000,,,6,3
59,104,0.4375,10,1,7330000,,,6,7
69,104,0.1875,11,1,7330000,,,6,3
59,104,0.375,0,1,7330001,,,6,6
74,104,0.125,1,1,7330001,,,6,2
57,104,0.375,2,1,7330001,,,6,6
67,104,0.1875,3,1,7330001,,,6,3
69,104,0.5,4,0,7330001,,,6,8
55,104,0.1875,5,1,7330001,,,6,3
67,104,0.3125,6,1,7330001,,,6,5
67,104,0.125,7,0,7330001,,,6,2
64,104,0.8125,0,1,7340000,,,6,13
54,104,0.375,1,1,7340000,,,6,6
47,104,0.9375,2,1,7340000,,,6,15
59,104,0.625,3,1,7340000,,,6,10
52,104,0.3125,4,1,7340000,,,6,5
52,104,0.9375,5,0,7340000,,,6,15
61,104,0.9375,0,1,7340001,,,6,15
44,104,0.6875,1,1,7340001,,,6,11
54,104,0.375,2,1,7340001,,,6,6
54,104,0.1875,3,0,7340001,,,6,3
64,104,0.5,4,1,7340001,,,6,8
63,104,0.1875,5,0,7340001,,,6,3
45,104,0.875,6,1,7340001,,,6,14
52,104,0.875,7,1,7340001,,,6,14
64,104,0.4375,0,1,7350000,,,6,7
47,104,0.5625,1,1,7350000,,,6,9
59,104,0.1875,2,1,7350000,,,6,3
63,104,0.1875,3,0,7350000,,,6,3
63,104,0.125,4,0,7350000,,,6,2
57,104,0.1875,5,0,7350000,,,6,3
45,104,0.9375,6,1,7350000,,,6,15
56,104,0.1875,7,1,7350000,,,6,3
63,104,0.1875,8,1,7350000,,,6,3
51,104,0.1875,9,1,7350000,,,6,3
57,104,0.1875,10,0,7350000,,,6,3
66,104,0.1875,11,1,7350000,,,6,3
49,104,0.1875,12,1,7350000,,,6,3
66,104,0.3125,13,1,7350000,,,6,5
66,104,0.125,0,1,7350001,,,6,2
63,104,0.1875,1,0,7350001,,,6,3
63,104,0.9375,2,0,7350001,,,6,15
50,104,0.3125,0,1,7360000,,,6,5
50,104,0.1875,1,0,7360000,,,6,3
57,104,0.4375,2,1,7360000,,,6,7
53,104,0.4375,3,0,7360000,,,6,7
60,104,0.4375,4,1,7360000,,,6,7
69,104,0.25,5,1,7360000,,,6,4
53,104,0.9375,6,1,7360000,,,6,15
60,104,0.375,7,1,7360000,,,6,6
55,104,0.5625,8,0,7360000,,,6,9
48,104,0.6875,9,1,7360000,,,6,11
55,104,0.625,0,1,7360001,,,6,10
48,104,0.1875,1,1,7360001,,,6,3
55,104,0.6875,2,1,7360001,,,6,11
55,104,0.25,3,0,7360001,,,6,4
55,104,0.1875,4,0,7360001,,,6,3
53,104,0.25,5,0,7360001,,,6,4
53,104,0.4375,6,0,7360001,,,6,7
53,104,0.9375,7,0,7360001,,,6,15
59,104,0.6875,0,1,7370000,,,6,11
52,104,0.9375,1,1,7370000,,,6,15
40,104,0.1875,2,1,7370000,,,6,3
52,104,0.4375,3,1,7370000,,,6,7
35,104,0.6875,4,1,7370000,,,6,11
54,104,0.5,5,1,7370000,,,6,8
54,104,0.1875,6,0,7370000,,,6,3
54,104,0.8125,7,0,7370000,,,6,13
59,104,0.375,0,1,7370001,,,6,6
35,104,0.5,1,1,7370001,,,6,8
35,104,0.1875,2,0,7370001,,,6,3
54,104,0.875,3,1,7370001,,,6,14
59,104,0.1875,4,1,7370001,,,6,3
59,104,0.625,5,0,7370001,,,6,10
35,104,0.25,6,1,7370001,,,6,4
59,104,0.3125,7,1,7370001,,,6,5
54,104,0.4375,8,0,7370001,,,6,7
52,104,0.6875,0,1,7370002,,,6,11
59,104,0.5625,1,1,7370002,,,6,9
64,104,0.125,0,1,7380000,,,6,2
40,104,0.4375,1,1,7380000,,,6,7
40,104,0.9375,2,0,7380000,,,6,15
52,104,0.25,3,1,7380000,,,6,4
40,104,0.25,4,1,7380000,,,6,4
64,104,0.1875,5,1,7380000,,,6,3
52,104,0.4375,6,1,7380000,,,6,7
64,104,0.1875,7,1,7380000,,,6,3
52,104,0.375,8,1,7380000,,,6,6
52,104,0.4375,9,0,7380000,,,6,7
52,104,0.25,10,0,7380000,,,6,4
57,104,0.375,11,0,7380000,,,6,6
64,104,0.25,0,1,7380001,,,6,4
52,104,0.5625,1,1,7380001,,,6,9
52,104,0.3125,2,0,7380001,,,6,5
33,104,0.1875,3,1,7380001,,,6,3
57,104,0.9375,0,1,7390000,,,6,15
62,104,0.9375,1,1,7390000,,,6,15
64,104,0.4375,2,1,7390000,,,6,7
69,104,0.1875,3,0,7390000,,,6,3
71,104,0.9375,4,0,7390000,,,6,15
74,104,0.5,5,1,7390000,,,6,8
71,104,0.9375,6,0,7390000,,,6,15
69,104,0.8125,0,1,7390001,,,6,13
69,104,0.9375,1,1,7390001,,,6,15
67,104,0.9375,2,1,7390001,,,6,15
66,104,0.9375,3,1,7390001,,,6,15
69,104,0.9375,0,1,7390002,,,6,15
69,104,0.3125,1,1,7390002,,,6,5
62,104,0.9375,2,1,7390002,,,6,15
33,104,0.625,0,1,7400000,,,6,10
33,104,0.75,1,0,7400000,,,6,12
33,104,0.5625,2,1,7400000,,,6,9
45,104,0.25,3,1,7400000,,,6,4
45,104,0.4375,4,0,7400000,,,6,7
52,104,0.5625,5,1,7400000,,,6,9
52,104,0.5,6,0,7400000,,,6,8
52,104,0.25,7,0,7400000,,,6,4
38,104,0.25,8,1,7400000,,,6,4
50,104,0.25,0,1,7400001,,,6,4
38,104,0.1875,1,1,7400001,,,6,3
50,104,0.1875,2,1,7400001,,,6,3
52,104,0.625,3,0,7400001,,,6,10
52,104,0.1875,4,0,7400001,,,6,3
52,104,0.1875,5,0,7400001,,,6,3
52,104,0.3125,6,0,7400001,,,6,5
50,104,0.125,7,0,7400001,,,6,2
38,104,0.3125,8,1,7400001,,,6,5
38,104,0.0625,9,0,7400001,,,6,1
52,104,0.375,0,1,7410000,,,6,6
64,104,0.25,1,1,7410000,,,6,4
64,104,0.5625,2,0,7410000,,,6,9
64,104,0.25,3,0,7410000,,,6,4
64,104,0.375,4,0,7410000,,,6,6
64,104,0.25,5,0,7410000,,,6,4
64,104,0.1875,6,0,7410000,,,6,3
52,104,0.5625,7,1,7410000,,,6,9
52,104,0.25,8,0,7410000,,,6,4
59,104,0.3125,9,1,7410000,,,6,5
64,104,0.1875,10,0,7410000,,,6,3
64,104,0.25,11,0,7410000,,,6,4
64,104,0.25,12,0,7410000,,,6,4
45,104,0.25,0,1,7410001,,,6,4
57,104,0.375,1,1,7410001,,,6,6
45,104,0.375,2,1,7410001,,,6,6
45,104,0.25,3,0,7410001,,,6,4
48,104,0.4375,0,1,7420000,,,6,7
53,104,0.1875,1,0,7420000,,,6,3
48,104,0.5,2,0,7420000,,,6,8
48,104,0.1875,3,0,7420000,,,6,3
53,104,0.25,4,0,7420000,,,6,4
53,104,0.375,5,0,7420000,,,6,6
48,104,0.4375,6,0,7420000,,,6,7
48,104,0.25,7,0,7420000,,,6,4
53,104,0.9375,8,0,7420000,,,6,15
48,104,0.9375,9,1,7420000,,,6,15
55,104,0.1875,0,1,7420001,,,6,3
48,104,0.25,1,1,7420001,,,6,4
55,104,0.1875,2,1,7420001,,,6,3
53,104,0.5,3,0,7420001,,,6,8
50,104,0.1875,4,0,7420001,,,6,3
62,104,0.5,5,1,7420001,,,6,8
62,104,0.1875,0,1,7430000,,,6,3
67,104,0.25,1,0,7430000,,,6,4
67,104,0.5,2,0,7430000,,,6,8
67,104,0.9375,3,0,7430000,,,6,15
65,104,0.625,4,1,7430000,,,6,10
65,104,0.9375,5,0,7430000,,,6,15
65,104,0.9375,6,1,7430000,,,6,15
64,104,0.875,0,1,7430001,,,6,14
64,104,0.75,1,1,7430001,,,6,12
67,104,0.1875,2,1,7430001,,,6,3
60,104,0.5,3,1,7430001,,,6,8
60,104,0.3125,4,0,7430001,,,6,5
60,104,0.9375,5,0,7430001,,,6,15
60,104,0.1875,6,1,7430001,,,6,3
60,104,0.5,0,1,7430002,,,6,8
60,104,0.9375,1,0,7430002,,,6,15
60,104,0.1875,2,1,7430002,,,6,3
62,104,0.125,0,1,7440000,,,6,2
62,104,0.3125,1,0,7440000,,,6,5
62,104,0.25,2,0,7440000,,,6,4
59,104,0.625,3,0,7440000,,,6,10
57,104,0.25,4,0,7440000,,,6,4
64,104,0.375,5,1,7440000,,,6,6
57,104,0.5625,6,1,7440000,,,6,9
64,104,0.9375,7,1,7440000,,,6,15
57,104,0.5625,8,1,7440000,,,6,9
64,104,0.375,0,1,7440001,,,6,6
57,104,0.125,1,1,7440001,,,6,2
50,104,0.9375,2,1,7440001,,,6,15
50,104,0.1875,3,1,7440001,,,6,3
62,104,0.25,4,1,7440001,,,6,4
50,104,0.3125,5,1,7440001,,,6,5
38,104,0.1875,6,1,7440001,,,6,3
62,104,0.3125,7,1,7440001,,,6,5
62,104,0.25,8,0,7440001,,,6,4
50,104,0.25,9,1,7440001,,,6,4
38,104,0.3125,10,1,7440001,,,6,5
38,104,0.1875,11,0,7440001,,,6,3
57,104,0.3125,12,1,7440001,,,6,5
64,104,0.9375,0,1,7440002,,,6,15
64,104,0.125,1,1,7440002,,,6,2
64,104,0.1875,2,0,7440002,,,6,3
45,104,0.0625,3,1,7440002,,,6,1
53,104,0.375,0,1,7450000,,,6,6
48,104,0.1875,1,0,7450000,,,6,3
53,104,0.375,2,0,7450000,,,6,6
29,104,0.3125,3,1,7450000,,,6,5
29,104,0.625,4,0,7450000,,,6,10
53,104,0.1875,5,1,7450000,,,6,3
31,104,0.1875,6,1,7450000,,,6,3
58,104,0.375,7,1,7450000,,,6,6
89,104,0.25,8,1,7450000,,,6,4
43,104,0.25,9,1,7450000,,,6,4
31,104,0.4375,10,1,7450000,,,6,7
53,104,0.625,11,1,7450000,,,6,10
53,104,0.3125,0,1,7450001,,,6,5
65,104,0.3125,0,1,7460000,,,6,5
53,104,0.125,1,1,7460000,,,6,2
55,104,0.25,2,0,7460000,,,6,4
65,104,0.375,3,1,7460000,,,6,6
65,104,0.8125,4,0,7460000,,,6,13
51,104,0.4375,5,1,7460000,,,6,7
51,104,0.1875,6,0,7460000,,,6,3
51,104,0.875,7,0,7460000,,,6,14
51,104,0.4375,8,1,7460000,,,6,7
53,104,0.1875,9,0,7460000,,,6,3
65,104,0.25,0,1,7460001,,,6,4
53,104,0.5,1,1,7460001,,,6,8
29,104,0.4375,2,1,7460001,,,6,7
63,104,0.375,3,1,7460001,,,6,6
46,104,0.3125,4,1,7460001,,,6,5
53,104,0.3125,5,1,7460001,,,6,5
46,104,0.1875,6,1,7460001,,,6,3
53,104,0.1875,7,1,7460001,,,6,3
53,104,0.1875,8,0,7460001,,,6,3
53,104,0.125,9,0,7460001,,,6,2
62,104,0.9375,0,1,7470000,,,6,15
57,104,0.1875,1,1,7470000,,,6,3
62,104,0.3125,2,0,7470000,,,6,5
57,104,0.9375,3,0,7470000,,,6,15
47,104,0.9375,4,1,7470000,,,6,15
59,104,0.25,5,1,7470000,,,6,4
59,104,0.1875,6,0,7470000,,,6,3
57,104,0.25,7,0,7470000,,,6,4
45,104,0.625,0,1,7470001,,,6,10
61,104,0.5,1,1,7470001,,,6,8
61,104,0.4375,2,0,7470001,,,6,7
52,104,0.625,3,1,7470001,,,6,10
52,104,0.1875,4,0,7470001,,,6,3
61,104,0.375,5,1,7470001,,,6,6
64,104,0.1875,6,0,7470001,,,6,3
61,104,0.1875,7,0,7470001,,,6,3
61,104,0.25,8,0,7470001,,,6,4
57,104,0.4375,9,0,7470001,,,6,7
48,104,0.1875,0,1,7480000,,,6,3
48,104,0.25,1,0,7480000,,,6,4
36,104,0.5,2,1,7480000,,,6,8
46,104,0.875,3,1,7480000,,,6,14
46,104,0.1875,4,1,7480000,,,6,3
50,104,0.9375,5,0,7480000,,,6,15
31,104,0.4375,6,1,7480000,,,6,7
31,104,0.125,7,0,7480000,,,6,2
60,104,0.6875,8,1,7480000,,,6,11
31,104,0.8125,0,1,7480001,,,6,13
60,104,0.625,1,1,7480001,,,6,10
60,104,0.25,2,0,7480001,,,6,4
50,104,0.3125,0,1,7490000,,,6,5
55,104,0.5,1,0,7490000,,,6,8
50,104,0.125,2,0,7490000,,,6,2
50,104,0.1875,3,0,7490000,,,6,3
62,104,0.4375,4,1,7490000,,,6,7
62,104,0.375,5,0,7490000,,,6,6
62,104,0.3125,6,0,7490000,,,6,5
61,104,0.1875,7,0,7490000,,,6,3
43,104,0.5625,8,1,7490000,,,6,9
43,104,0.125,9,0,7490000,,,6,2
55,104,0.1875,10,1,7490000,,,6,3
43,104,0.4375,11,1,7490000,,,6,7
62,104,0.5,12,1,7490000,,,6,8
62,104,0.375,0,1,7490001,,,6,6
38,104,0.5625,1,1,7490001,,,6,9
62,104,0.4375,2,1,7490001,,,6,7
50,104,0.25,3,1,7490001,,,6,4
62,104,0.375,4,1,7490001,,,6,6
50,104,0.375,5,1,7490001,,,6,6
47,104,0.5,6,0,7490001,,,6,8
70,104,0.9375,0,1,7500000,,,6,15
58,104,0.375,1,1,7500000,,,6,6
70,104,0.3125,2,1,7500000,,,6,5
70,104,0.4375,3,0,7500000,,,6,7
34,104,0.375,4,1,7500000,,,6,6
46,104,0.4375,5,1,7500000,,,6,7
34,104,0.25,6,1,7500000,,,6,4
65,104,0.375,7,1,7500000,,,6,6
67,104,0.375,8,0,7500000,,,6,6
65,104,0.375,9,0,7500000,,,6,6
67,104,0.375,0,1,7500001,,,6,6
53,104,0.375,1,1,7500001,,,6,6
53,104,0.875,2,0,7500001,,,6,14
65,104,0.5625,3,1,7500001,,,6,9
53,104,0.6875,4,1,7500001,,,6,11
41,104,0.5,5,1,7500001,,,6,8
53,104,0.1875,6,1,7500001,,,6,3
53,104,0.4375,7,0,7500001,,,6,7
53,104,0.25,0,1,7500002,,,6,4
65,104,0.5625,1,1,7500002,,,6,9
53,104,0.3125,2,1,7500002,,,6,5
65,104,0.6875,3,1,7500002,,,6,11
34,104,0.9375,4,1,7500002,,,6,15
34,104,0.3125,5,1,7500002,,,6,5
34,104,0.3125,6,0,7500002,,,6,5
53,104,0.0625,7,1,7500002,,,6,1
53,104,0.125,0,1,7510000,,,6,2
53,104,0.1875,1,0,7510000,,,6,3
53,104,0.25,2,0,7510000,,,6,4
53,104,0.25,3,0,7510000,,,6,4
58,104,0.25,4,0,7510000,,,6,4
51,104,0.3125,5,1,7510000,,,6,5
51,104,0.6875,6,0,7510000,,,6,11
51,104,0.25,7,0,7510000,,,6,4
55,104,0.5625,8,0,7510000,,,6,9
55,104,0.4375,9,0,7510000,,,6,7
51,104,0.3125,10,0,7510000,,,6,5
51,104,0.25,11,0,7510000,,,6,4
58,104,0.4375,12,1,7510000,,,6,7
53,104,0.1875,0,1,7510001,,,6,3
60,104,0.3125,0,1,7520000,,,6,5
63,104,0.25,1,0,7520000,,,6,4
56,104,0.3125,2,1,7520000,,,6,5
51,104,0.1875,3,0,7520000,,,6,3
51,104,0.25,4,0,7520000,,,6,4
56,104,0.9375,5,0,7520000,,,6,15
56,104,0.1875,6,1,7520000,,,6,3
56,104,0.125,7,0,7520000,,,6,2
58,104,0.25,8,0,7520000,,,6,4
60,104,0.25,9,0,7520000,,,6,4
53,104,0.1875,10,1,7520000,,,6,3
53,104,0.25,11,0,7520000,,,6,4
53,104,0.25,12,0,7520000,,,6,4
58,104,0.6875,13,0,7520000,,,6,11
60,104,0.5625,0,1,7520001,,,6,9
60,104,0.3125,1,0,7520001,,,6,5
60,104,0.125,2,0,7520001,,,6,2
60,104,0.9375,3,0,7520001,,,6,15
56,104,0.5625,4,1,7520001,,,6,9
52,104,0.5625,0,1,7530000,,,6,9
55,104,0.625,1,0,7530000,,,6,10
52,104,0.3125,2,0,7530000,,,6,5
52,104,0.25,3,0,7530000,,,6,4
60,104,0.3125,4,1,7530000,,,6,5
52,104,0.9375,5,1,7530000,,,6,15
60,104,0.4375,6,1,7530000,,,6,7
65,104,0.1875,7,0,7530000,,,6,3
50,104,0.125,8,1,7530000,,,6,2
50,104,0.5625,9,0,7530000,,,6,9
50,104,0.875,0,1,7530001,,,6,14
50,104,0.1875,1,1,7530001,,,6,3
50,104,0.9375,2,0,7530001,,,6,15
65,104,0.25,3,1,7530001,,,6,4
65,104,0.1875,4,0,7530001,,,6,3
50,104,0.1875,5,1,7530001,,,6,3
61,104,0.875,0,1,7540000,,,6,14
49,104,0.5,1,1,7540000,,,6,8
61,104,0.5,2,1,7540000,,,6,8
49,104,0.625,3,1,7540000,,,6,10
65,104,0.25,4,1,7540000,,,6,4
61,104,0.9375,5,0,7540000,,,6,15
49,104,0.3125,6,1,7540000,,,6,5
44,104,0.25,0,1,7540001,,,6,4
44,104,0.1875,1,0,7540001,,,6,3
56,104,0.1875,2,1,7540001,,,6,3
32,104,0.375,3,1,7540001,,,6,6
60,104,0.1875,4,1,7540001,,,6,3
53,104,0.8125,5,1,7540001,,,6,13
61,104,0.8125,6,1,7540001,,,6,13
49,104,0.6875,7,1,7540001,,,6,11
61,104,0.875,8,1,7540001,,,6,14
61,104,0.4375,0,1,7540002,,,6,7
29,104,0.625,0,1,7550000,,,6,10
29,104,0.6875,1,0,7550000,,,6,11
29,104,0.1875,2,0,7550000,,,6,3
39,104,0.9375,3,1,7550000,,,6,15
51,104,0.9375,4,1,7550000,,,6,15
51,104,0.3125,5,1,7550000,,,6,5
58,104,0.375,6,1,7550000,,,6,6
39,104,0.375,0,1,7550001,,,6,6
39,104,0.25,1,0,7550001,,,6,4
51,104,0.1875,2,1,7550001,,,6,3
58,104,0.1875,3,1,7550001,,,6,3
29,104,0.25,4,1,7550001,,,6,4
29,104,0.3125,5,0,7550001,,,6,5
53,104,0.25,6,1,7550001,,,6,4
57,104,0.3125,7,0,7550001,,,6,5
29,104,0.1875,8,1,7550001,,,6,3
57,104,0.9375,9,1,7550001,,,6,15
53,104,0.1875,10,1,7550001,,,6,3
41,104,0.5625,11,1,7550001,,,6,9
60,104,0.1875,0,1,7560000,,,6,3
53,104,0.8125,1,1,7560000,,,6,13
53,104,0.3125,2,1,7560000,,,6,5
65,104,0.1875,3,1,7560000,,,6,3
60,104,0.5,4,0,7560000,,,6,8
41,104,0.9375,5,1,7560000,,,6,15
53,104,0.1875,6,1,7560000,,,6,3
41,104,0.1875,7,1,7560000,,,6,3
60,104,0.1875,8,1,7560000,,,6,3
41,104,0.5625,9,1,7560000,,,6,9
53,104,0.9375,0,1,7560001,,,6,15
65,104,0.375,1,1,7560001,,,6,6
65,104,0.5625,2,0,7560001,,,6,9
65,104,0.3125,3,0,7560001,,,6,5
53,104,0.1875,4,1,7560001,,,6,3
65,104,0.5,5,1,7560001,,,6,8
53,104,0.1875,6,1,7560001,,,6,3
55,104,0.375,7,0,7560001,,,6,6
36,104,0.8125,8,1,7560001,,,6,13
36,104,0.3125,0,1,7560002,,,6,5
55,104,0.9375,1,1,7560002,,,6,15
61,104,0.1875,0,1,7570000,,,6,3
50,104,0.1875,1,1,7570000,,,6,3
49,104,0.9375,2,0,7570000,,,6,15
61,104,0.25,3,1,7570000,,,6,4
61,104,0.375,4,0,7570000,,,6,6
64,104,0.9375,5,0,7570000,,,6,15
61,104,0.8125,6,1,7570000,,,6,13
61,104,0.4375,7,1,7570000,,,6,7
61,104,0.1875,0,1,7570001,,,6,3
62,104,0.75,1,0,7570001,,,6,12
62,104,0.9375,2,1,7570001,,,6,15
40,104,0.1875,3,1,7570001,,,6,3
52,104,0.5625,4,1,7570001,,,6,9
40,104,0.25,5,1,7570001,,,6,4
63,104,0.1875,0,1,7580000,,,6,3
48,104,0.25,1,1,7580000,,,6,4
53,104,0.6875,2,0,7580000,,,6,11
53,104,0.1875,3,0,7580000,,,6,3
53,104,0.375,4,0,7580000,,,6,6
53,104,0.1875,5,0,7580000,,,6,3
53,104,0.125,6,0,7580000,,,6,2
53,104,0.75,7,0,7580000,,,6,12
53,104,0.3125,0,1,7590000,,,6,5
53,104,0.25,1,0,7590000,,,6,4
55,104,0.1875,2,0,7590000,,,6,3
62,104,0.9375,3,1,7590000,,,6,15
62,104,0.1875,4,1,7590000,,,6,3
62,104,0.625,5,0,7590000,,,6,10
62,104,0.5,6,0,7590000,,,6,8
43,104,0.1875,7,1,7590000,,,6,3
55,104,0.5625,8,1,7590000,,,6,9
55,104,0.1875,9,0,7590000,,,6,3
36,104,0.9375,10,1,7590000,,,6,15
64,104,0.5625,0,1,7590001,,,6,9
62,104,0.375,1,0,7590001,,,6,6
62,104,0.5,2,0,7590001,,,6,8
50,104,0.1875,3,1,7590001,,,6,3
55,104,0.9375,4,0,7590001,,,6,15
62,104,0.1875,0,1,7600000,,,6,3
46,104,0.1875,1,1,7600000,,,6,3
46,104,0.4375,2,0,7600000,,,6,7
58,104,0.3125,3,1,7600000,,,6,5
63,104,0.3125,4,0,7600000,,,6,5
48,104,0.1875,5,1,7600000,,,6,3
48,104,0.1875,6,0,7600000,,,6,3
63,104,0.3125,7,1,7600000,,,6,5
63,104,0.5625,8,0,7600000,,,6,9
58,104,0.375,9,0,7600000,,,6,6
46,104,0.75,10,1,7600000,,,6,12
46,104,0.3125,11,1,7600000,,,6,5
63,104,0.75,0,1,7600001,,,6,12
46,104,0.1875,1,1,7600001,,,6,3
63,104,0.375,2,1,7600001,,,6,6
46,104,0.75,3,1,7600001,,,6,12
58,104,0.25,4,1,7600001,,,6,4
52,104,0.25,0,1,7610000,,,6,4
52,104,0.25,1,0,7610000,,,6,4
45,104,0.75,2,1,7610000,,,6,12
33,104,0.1875,3,1,7610000,,,6,3
45,104,0.5,4,1,7610000,,,6,8
45,104,0.8125,5,0,7610000,,,6,13
45,104,0.4375,6,1,7610000,,,6,7
33,104,0.25,7,1,7610000,,,6,4
28,104,0.125,8,0,7610000,,,6,2
28,104,0.375,9,0,7610000,,,6,6
47,104,0.6875,10,1,7610000,,,6,11
47,104,0.375,0,1,7610001,,,6,6
40,104,0.3125,1,1,7610001,,,6,5
56,104,0.625,2,1,7610001,,,6,10
52,104,0.375,3,0,7610001,,,6,6
63,104,0.6875,0,1,7620000,,,6,11
63,104,0.125,1,0,7620000,,,6,2
51,104,0.125,2,1,7620000,,,6,2
63,104,0.4375,3,1,7620000,,,6,7
51,104,0.25,4,1,7620000,,,6,4
56,104,0.5625,5,0,7620000,,,6,9
51,104,0.25,6,0,7620000,,,6,4
51,104,0.1875,7,0,7620000,,,6,3
44,104,0.1875,8,1,7620000,,,6,3
56,104,0.25,9,1,7620000,,,6,4
63,104,0.1875,0,1,7630000,,,6,3
58,104,0.4375,1,0,7630000,,,6,7
46,104,0.8125,2,1,7630000,,,6,13
58,104,0.1875,3,1,7630000,,,6,3
58,104,0.5,4,0,7630000,,,6,8
46,104,0.375,5,1,7630000,,,6,6
46,104,0.3125,6,0,7630000,,,6,5
58,104,0.375,7,1,7630000,,,6,6
32,104,0.75,8,1,7630000,,,6,12
32,104,0.1875,9,1,7630000,,,6,3
58,104,0.9375,0,1,7630001,,,6,15
58,104,0.75,1,1,7630001,,,6,12
46,104,0.5625,2,1,7630001,,,6,9
46,104,0.3125,3,0,7630001,,,6,5
58,104,0.25,4,1,7630001,,,6,4
58,104,0.125,5,0,7630001,,,6,2
53,104,0.25,6,0,7630001,,,6,4
47,104,0.25,7,0,7630001,,,6,4
53,104,0.25,8,0,7630001,,,6,4
52,104,0.5,0,1,7640000,,,6,8
52,104,0.375,1,0,7640000,,,6,6
52,104,0.75,2,0,7640000,,,6,12
52,104,0.375,3,1,7640000,,,6,6
55,104,0.4375,4,0,7640000,,,6,7
52,104,0.5,5,0,7640000,,,6,8
55,104,0.75,6,0,7640000,,,6,12
55,104,0.5,7,1,7640000,,,6,8
55,104,0.25,0,1,7640001,,,6,4
50,104,0.25,1,0,7640001,,,6,4
55,104,0.3125,2,0,7640001,,,6,5
53,104,0.625,3,0,7640001,,,6,10
53,104,0.5625,4,0,7640001,,,6,9
53,104,0.5625,5,0,7640001,,,6,9
57,104,0.4375,6,0,7640001,,,6,7
53,104,0.25,7,0,7640001,,,6,4
57,104,0.125,8,0,7640001,,,6,2
53,104,0.25,9,0,7640001,,,6,4
55,104,0.8125,10,0,7640001,,,6,13
52,104,0.1875,0,1,7640002,,,6,3
52,104,0.25,1,0,7640002,,,6,4
52,104,0.3125,2,0,7640002,,,6,5
52,104,0.125,3,0,7640002,,,6,2
55,104,0.1875,4,0,7640002,,,6,3
52,104,0.3125,5,0,7640002,,,6,5
62,104,0.9375,0,1,7650000,,,6,15
46,104,0.25,1,1,7650000,,,6,4
65,104,0.125,2,1,7650000,,,6,2
70,104,0.4375,3,0,7650000,,,6,7
65,104,0.25,4,0,7650000,,,6,4
70,104,0.1875,5,0,7650000,,,6,3
70,104,0.9375,6,0,7650000,,,6,15
58,104,0.25,7,1,7650000,,,6,4
58,104,0.125,8,0,7650000,,,6,2
70,104,0.125,9,1,7650000,,,6,2
48,104,0.1875,10,1,7650000,,,6,3
58,104,0.3125,11,1,7650000,,,6,5
58,104,0.125,0,1,7650001,,,6,2
60,104,0.25,1,0,7650001,,,6,4
58,104,0.4375,2,0,7650001,,,6,7
70,104,0.125,3,1,7650001,,,6,2
58,104,0.375,4,1,7650001,,,6,6
51,104,0.1875,5,1,7650001,,,6,3
63,104,0.125,6,1,7650001,,,6,2
63,104,0.1875,7,0,7650001,,,6,3
58,104,0.25,8,0,7650001,,,6,4
58,104,0.5625,9,0,7650001,,,6,9
70,104,0.0625,10,1,7650001,,,6,1
57,104,0.4375,0,1,7660000,,,6,7
33,104,0.25,1,1,7660000,,,6,4
33,104,0.1875,2,0,7660000,,,6,3
69,104,0.5,3,1,7660000,,,6,8
57,104,0.75,4,1,7660000,,,6,12
50,104,0.875,5,1,7660000,,,6,14
44,104,0.625,6,1,7660000,,,6,10
43,104,0.1875,7,0,7660000,,,6,3
43,104,0.9375,8,0,7660000,,,6,15
64,104,0.25,0,1,7660001,,,6,4
64,104,0.5625,1,0,7660001,,,6,9
64,104,0.5,2,0,7660001,,,6,8
53,104,0.1875,3,1,7660001,,,6,3
65,104,0.25,4,1,7660001,,,6,4
44,104,0.9375,5,1,7660001,,,6,15
51,104,0.875,0,1,7670000,,,6,14
63,104,0.125,1,1,7670000,,,6,2
63,104,0.125,2,0,7670000,,,6,2
63,104,0.9375,3,0,7670000,,,6,15
53,104,0.375,4,1,7670000,,,6,6
53,104,0.9375,5,0,7670000,,,6,15
65,104,0.5625,6,1,7670000,,,6,9
53,104,0.1875,7,1,7670000,,,6,3
65,104,0.25,0,1,7670001,,,6,4
77,104,0.375,1,1,7670001,,,6,6
77,104,0.625,2,0,7670001,,,6,10
77,104,0.4375,3,0,7670001,,,6,7
63,104,0.375,4,1,7670001,,,6,6
51,104,0.9375,5,1,7670001,,,6,15
51,104,0.9375,6,1,7670001,,,6,15
63,104,0.1875,0,1,7670002,,,6,3
51,104,0.4375,1,1,7670002,,,6,7
61,104,0.4375,0,1,7680000,,,6,7
64,104,0.1875,1,0,7680000,,,6,3
57,104,0.3125,2,1,7680000,,,6,5
45,104,0.25,3,1,7680000,,,6,4
47,104,0.375,4,0,7680000,,,6,6
35,104,0.4375,5,1,7680000,,,6,7
47,104,0.3125,6,1,7680000,,,6,5
47,104,0.9375,7,0,7680000,,,6,15
76,104,0.9375,8,1,7680000,,,6,15
52,104,0.9375,0,1,7680001,,,6,15
52,104,0.1875,1,1,7680001,,,6,3
55,104,0.3125,0,1,7690000,,,6,5
55,104,0.375,1,0,7690000,,,6,6
57,104,0.3125,2,0,7690000,,,6,5
50,104,0.625,3,1,7690000,,,6,10
50,104,0.4375,4,0,7690000,,,6,7
50,104,0.9375,5,0,7690000,,,6,15
57,104,0.3125,6,1,7690000,,,6,5
57,104,0.5,7,0,7690000,,,6,8
57,104,0.25,8,0,7690000,,,6,4
53,104,0.9375,0,1,7690001,,,6,15
53,104,0.1875,1,1,7690001,,,6,3
34,104,0.3125,2,1,7690001,,,6,5
53,104,0.25,3,1,7690001,,,6,4
53,104,0.625,4,0,7690001,,,6,10
53,104,0.9375,5,0,7690001,,,6,15
53,104,0.8125,6,1,7690001,,,6,13
53,104,0.4375,0,1,7690002,,,6,7
53,104,0.1875,1,0,7690002,,,6,3
53,104,0.3125,2,0,7690002,,,6,5
55,104,0.4375,3,0,7690002,,,6,7
48,104,0.4375,4,1,7690002,,,6,7
30,104,0.3125,0,1,7700000,,,6,5
49,104,0.25,1,1,7700000,,,6,4
49,104,0.1875,2,0,7700000,,,6,3
30,104,0.125,3,1,7700000,,,6,2
64,104,0.9375,4,1,7700000,,,6,15
47,104,0.9375,5,1,7700000,,,6,15
59,104,0.9375,6,1,7700000,,,6,15
59,104,0.5,7,1,7700000,,,6,8
66,104,0.25,0,1,7700001,,,6,4
47,104,0.5625,1,1,7700001,,,6,9
47,104,0.375,2,0,7700001,,,6,6
63,104,0.1875,3,1,7700001,,,6,3
63,104,0.5,4,0,7700001,,,6,8
59,104,0.9375,5,0,7700001,,,6,15
40,104,0.1875,6,1,7700001,,,6,3
52,104,0.6875,7,1,7700001,,,6,11
40,104,0.3125,8,1,7700001,,,6,5
64,104,0.3125,0,1,7700002,,,6,5
40,104,0.3125,1,1,7700002,,,6,5
64,104,0.3125,2,1,7700002,,,6,5
59,104,0.375,0,1,7710000,,,6,6
43,104,0.25,1,1,7710000,,,6,4
55,104,0.25,2,1,7710000,,,6,4
62,104,0.4375,3,1,7710000,,,6,7
43,104,0.25,4,1,7710000,,,6,4
57,104,0.9375,5,1,7710000,,,6,15
33,104,0.1875,6,1,7710000,,,6,3
57,104,0.9375,7,1,7710000,,,6,15
57,104,0.25,8,1,7710000,,,6,4
38,104,0.1875,9,1,7710000,,,6,3
57,104,0.125,0,1,7710001,,,6,2
57,104,0.3125,1,0,7710001,,,6,5
38,104,0.25,2,1,7710001,,,6,4
62,104,0.375,3,1,7710001,,,6,6
57,104,0.25,4,0,7710001,,,6,4
50,104,0.5625,5,1,7710001,,,6,9
57,104,0.125,6,1,7710001,,,6,2
50,104,0.25,7,1,7710001,,,6,4
55,104,0.375,8,0,7710001,,,6,6
63,104,0.9375,0,1,7720000,,,6,15
65,104,0.25,1,1,7720000,,,6,4
63,104,0.9375,2,0,7720000,,,6,15
51,104,0.75,3,1,7720000,,,6,12
51,104,0.1875,4,1,7720000,,,6,3
63,104,0.375,5,1,7720000,,,6,6
63,104,0.1875,6,0,7720000,,,6,3
63,104,0.8125,7,0,7720000,,,6,13
51,104,0.3125,0,1,7720001,,,6,5
63,104,0.9375,1,1,7720001,,,6,15
58,104,0.9375,2,1,7720001,,,6,15
56,104,0.9375,3,1,7720001,,,6,15
52,104,0.375,0,1,7730000,,,6,6
57,104,0.25,1,0,7730000,,,6,4
57,104,0.6875,2,0,7730000,,,6,11
59,104,0.4375,3,0,7730000,,,6,7
59,104,0.25,4,0,7730000,,,6,4
59,104,0.1875,5,0,7730000,,,6,3
52,104,0.1875,6,1,7730000,,,6,3
64,104,0.1875,7,1,7730000,,,6,3
52,104,0.1875,8,1,7730000,,,6,3
52,104,0.9375,9,0,7730000,,,6,15
56,104,0.375,10,1,7730000,,,6,6
45,104,0.9375,0,1,7740000,,,6,15
52,104,0.5,1,1,7740000,,,6,8
52,104,0.1875,2,0,7740000,,,6,3
53,104,0.125,3,0,7740000,,,6,2
30,104,0.1875,4,1,7740000,,,6,3
30,104,0.1875,5,0,7740000,,,6,3
30,104,0.5625,6,0,7740000,,,6,9
64,104,0.125,7,1,7740000,,,6,2
42,104,0.1875,8,1,7740000,,,6,3
30,104,0.5,9,1,7740000,,,6,8
54,104,0.3125,10,1,7740000,,,6,5
35,104,0.875,11,1,7740000,,,6,14
63,104,0.4375,0,1,7750000,,,6,7
63,104,0.5,1,0,7750000,,,6,8
51,104,0.9375,2,1,7750000,,,6,15
58,104,0.3125,3,1,7750000,,,6,5
62,104,0.3125,4,0,7750000,,,6,5
53,104,0.375,5,1,7750000,,,6,6
53,104,0.25,6,0,7750000,,,6,4
53,104,0.1875,7,0,7750000,,,6,3
53,104,0.25,8,0,7750000,,,6,4
65,104,0.125,9,1,7750000,,,6,2
48,104,0.375,10,1,7750000,,,6,6
55,104,0.125,0,1,7750001,,,6,2
51,104,0.6875,1,0,7750001,,,6,11
51,104,0.9375,2,0,7750001,,,6,15
59,104,0.625,0,1,7760000,,,6,10
43,104,0.6875,1,1,7760000,,,6,11
55,104,0.125,2,1,7760000,,,6,2
40,104,0.9375,3,1,7760000,,,6,15
52,104,0.9375,4,1,7760000,,,6,15
52,104,0.8125,5,1,7760000,,,6,13
52,104,0.25,0,1,7760001,,,6,4
33,104,0.25,1,1,7760001,,,6,4
52,104,0.3125,2,1,7760001,,,6,5
60,104,0.625,3,1,7760001,,,6,10
33,104,0.1875,4,1,7760001,,,6,3
55,104,0.375,5,1,7760001,,,6,6
38,104,0.5,6,1,7760001,,,6,8
57,104,0.25,7,1,7760001,,,6,4
38,104,0.1875,8,1,7760001,,,6,3
57,104,0.3125,9,1,7760001,,,6,5
38,104,0.1875,10,1,7760001,,,6,3
50,104,0.625,11,1,7760001,,,6,10
38,104,0.4375,0,1,7760002,,,6,7
38,104,0.25,1,0,7760002,,,6,4
38,104,0.125,2,0,7760002,,,6,2
51,104,0.1875,0,1,7770000,,,6,3
27,104,0.1875,1,1,7770000,,,6,3
51,104,0.25,2,1,7770000,,,6,4
51,104,0.125,3,0,7770000,,,6,2
51,104,0.1875,4,0,7770000,,,6,3
58,104,0.125,5,1,7770000,,,6,2
46,104,0.4375,6,1,7770000,,,6,7
46,104,0.1875,7,0,7770000,,,6,3
46,104,0.25,8,0,7770000,,,6,4
43,104,0.25,9,0,7770000,,,6,4
62,104,0.125,10,1,7770000,,,6,2
49,104,0.875,0,1,7780000,,,6,14
49,104,0.6875,1,1,7780000,,,6,11
59,104,0.1875,2,1,7780000,,,6,3
63,104,0.1875,3,0,7780000,,,6,3
47,104,0.1875,4,1,7780000,,,6,3
59,104,0.375,5,1,7780000,,,6,6
63,104,0.75,6,0,7780000,,,6,12
35,104,0.4375,7,1,7780000,,,6,7
59,104,0.1875,8,1,7780000,,,6,3
35,104,0.5,9,1,7780000,,,6,8
35,104,0.4375,0,1,7780001,,,6,7
61,104,0.3125,1,1,7780001,,,6,5
57,104,0.3125,2,0,7780001,,,6,5
45,104,0.3125,3,1,7780001,,,6,5
64,104,0.25,4,1,7780001,,,6,4
61,104,0.25,5,0,7780001,,,6,4
64,104,0.625,6,0,7780001,,,6,10
61,104,0.4375,7,0,7780001,,,6,7
61,104,0.5625,8,0,7780001,,,6,9
61,104,0.6875,0,1,7790000,,,6,11
50,104,0.9375,1,1,7790000,,,6,15
62,104,0.5625,2,1,7790000,,,6,9
52,104,0.9375,3,1,7790000,,,6,15
52,104,0.3125,4,1,7790000,,,6,5
52,104,0.25,5,0,7790000,,,6,4
53,104,0.9375,6,0,7790000,,,6,15
54,104,0.375,0,1,7790001,,,6,6
61,104,0.375,1,1,7790001,,,6,6
42,104,0.1875,2,1,7790001,,,6,3
61,104,0.6875,3,1,7790001,,,6,11
61,104,0.4375,4,0,7790001,,,6,7
57,104,0.1875,5,0,7790001,,,6,3
50,104,0.25,6,1,7790001,,,6,4
50,104,0.25,7,0,7790001,,,6,4
31,104,0.3125,0,1,7800000,,,6,5
31,104,0.1875,1,0,7800000,,,6,3
31,104,0.3125,2,0,7800000,,,6,5
55,104,0.5625,3,1,7800000,,,6,9
31,104,0.1875,4,1,7800000,,,6,3
31,104,0.25,5,0,7800000,,,6,4
51,104,0.625,6,1,7800000,,,6,10
27,104,0.3125,7,1,7800000,,,6,5
51,104,0.4375,8,1,7800000,,,6,7
39,104,0.125,9,1,7800000,,,6,2
27,104,0.25,10,1,7800000,,,6,4
27,104,0.25,11,0,7800000,,,6,4
39,104,0.25,12,1,7800000,,,6,4
27,104,0.25,0,1,7800001,,,6,4
27,104,0.1875,1,0,7800001,,,6,3
53,104,0.25,2,1,7800001,,,6,4
29,104,0.6875,3,1,7800001,,,6,11
29,104,0.3125,4,0,7800001,,,6,5
29,104,0.3125,5,0,7800001,,,6,5
29,104,0.375,6,0,7800001,,,6,6
48,104,0.4375,7,1,7800001,,,6,7
36,104,0.3125,8,1,7800001,,,6,5
36,104,0.25,9,0,7800001,,,6,4
43,104,0.0625,10,1,7800001,,,6,1
64,104,0.5,0,1,7810000,,,6,8
52,104,0.375,1,1,7810000,,,6,6
60,104,0.9375,2,1,7810000,,,6,15
55,104,0.25,3,1,7810000,,,6,4
55,104,0.9375,4,0,7810000,,,6,15
55,104,0.25,5,1,7810000,,,6,4
55,104,0.375,6,0,7810000,,,6,6
52,104,0.8125,7,0,7810000,,,6,13
52,104,0.1875,0,1,7810001,,,6,3
50,104,0.625,1,0,7810001,,,6,10
56,104,0.375,0,1,7820000,,,6,6
33,104,0.9375,1,1,7820000,,,6,15
52,104,0.75,2,1,7820000,,,6,12
28,104,0.5,3,1,7820000,,,6,8
47,104,0.9375,4,1,7820000,,,6,15
47,104,0.375,5,1,7820000,,,6,6
50,104,0.5625,6,0,7820000,,,6,9
38,104,0.375,0,1,7820001,,,6,6
38,104,0.25,1,0,7820001,,,6,4
50,104,0.25,2,1,7820001,,,6,4
28,104,0.625,3,1,7820001,,,6,10
57,104,0.625,0,1,7830000,,,6,10
55,104,0.5625,1,0,7830000,,,6,9
55,104,0.75,2,0,7830000,,,6,12
53,104,0.9375,3,1,7830000,,,6,15
53,104,0.3125,4,1,7830000,,,6,5
53,104,0.1875,5,0,7830000,,,6,3
53,104,0.25,6,0,7830000,,,6,4
53,104,0.625,7,0,7830000,,,6,10
53,104,0.4375,0,1,7830001,,,6,7
53,104,0.25,1,0,7830001,,,6,4
53,104,0.3125,2,0,7830001,,,6,5
53,104,0.5,3,0,7830001,,,6,8
53,104,0.1875,4,0,7830001,,,6,3
34,104,0.3125,5,1,7830001,,,6,5
57,104,0.9375,6,1,7830001,,,6,15
34,104,0.1875,7,1,7830001,,,6,3
34,104,0.1875,8,0,7830001,,,6,3
53,104,0.75,9,1,7830001,,,6,12
53,104,0.0625,0,1,7830002,,,6,1
49,104,0.5,0,1,7840000,,,6,8
49,104,0.25,1,0,7840000,,,6,4
49,104,0.375,2,0,7840000,,,6,6
56,104,0.3125,3,1,7840000,,,6,5
45,104,0.1875,4,1,7840000,,,6,3
50,104,0.125,5,0,7840000,,,6,2
50,104,0.625,6,0,7840000,,,6,10
50,104,0.1875,7,0,7840000,,,6,3
47,104,0.625,8,0,7840000,,,6,10
47,104,0.25,9,0,7840000,,,6,4
60,104,0.5625,10,1,7840000,,,6,9
49,104,0.625,0,1,7840001,,,6,10
49,104,0.0625,1,0,7840001,,,6,1
54,104,0.25,0,1,7850000,,,6,4
58,104,0.9375,1,0,7850000,,,6,15
58,104,0.75,2,1,7850000,,,6,12
58,104,0.5,3,1,7850000,,,6,8
47,104,0.9375,4,1,7850000,,,6,15
47,104,0.25,5,1,7850000,,,6,4
69,104,0.375,6,1,7850000,,,6,6
47,104,0.125,0,1,7850001,,,6,2
47,104,0.9375,1,0,7850001,,,6,15
47,104,0.25,2,1,7850001,,,6,4
47,104,0.1875,3,0,7850001,,,6,3
35,104,0.1875,0,1,7860000,,,6,3
35,104,0.5625,1,0,7860000,,,6,9
64,104,0.375,2,1,7860000,,,6,6
35,104,0.4375,3,1,7860000,,,6,7
54,104,0.4375,4,1,7860000,,,6,7
64,104,0.1875,5,1,7860000,,,6,3
64,104,0.375,6,0,7860000,,,6,6
40,104,0.9375,7,1,7860000,,,6,15
40,104,0.25,8,1,7860000,,,6,4
40,104,0.625,9,0,7860000,,,6,10
59,104,0.3125,0,1,7860001,,,6,5
40,104,0.6875,1,1,7860001,,,6,11
40,104,0.9375,2,0,7860001,,,6,15
40,104,0.9375,3,1,7860001,,,6,15
40,104,0.25,4,1,7860001,,,6,4
59,104,0.25,5,1,7860001,,,6,4
40,104,0.25,6,1,7860001,,,6,4
40,104,0.4375,0,1,7860002,,,6,7
40,104,0.625,1,0,7860002,,,6,10
64,104,0.5625,2,1,7860002,,,6,9
38,104,0.5,0,1,7870000,,,6,8
62,104,0.3125,1,1,7870000,,,6,5
50,104,0.3125,2,1,7870000,,,6,5
38,104,0.3125,3,1,7870000,,,6,5
38,104,0.1875,4,0,7870000,,,6,3
38,104,0.6875,5,0,7870000,,,6,11
50,104,0.9375,6,1,7870000,,,6,15
38,104,0.5,7,1,7870000,,,6,8
38,104,0.4375,8,0,7870000,,,6,7
38,104,0.9375,0,1,7870001,,,6,15
50,104,0.9375,1,1,7870001,,,6,15
47,104,0.1875,2,1,7870001,,,6,3
66,104,0.625,3,1,7870001,,,6,10
66,104,0.9375,4,0,7870001,,,6,15
66,104,0.5,5,1,7870001,,,6,8
50,104,0.4375,0,1,7880000,,,6,7
62,104,0.75,1,1,7880000,,,6,12
57,104,0.6875,2,1,7880000,,,6,11
62,104,0.9375,3,0,7880000,,,6,15
62,104,0.4375,4,1,7880000,,,6,7
54,104,0.1875,5,1,7880000,,,6,3
62,104,0.1875,6,1,7880000,,,6,3
68,104,0.3125,7,0,7880000,,,6,5
40,104,0.5,8,1,7880000,,,6,8
40,104,0.25,0,1,7880001,,,6,4
68,104,0.1875,1,1,7880001,,,6,3
68,104,0.75,2,0,7880001,,,6,12
61,104,0.9375,3,1,7880001,,,6,15
59,104,0.625,4,1,7880001,,,6,10
59,104,0.1875,5,0,7880001,,,6,3
47,104,0.25,0,1,7890000,,,6,4
66,104,0.3125,1,1,7890000,,,6,5
54,104,0.1875,2,1,7890000,,,6,3
52,104,0.125,3,0,7890000,,,6,2
52,104,0.4375,4,0,7890000,,,6,7
47,104,0.1875,5,0,7890000,,,6,3
52,104,0.25,6,0,7890000,,,6,4
52,104,0.375,7,0,7890000,,,6,6
52,104,0.375,8,0,7890000,,,6,6
52,104,0.3125,9,0,7890000,,,6,5
52,104,0.1875,10,0,7890000,,,6,3
64,104,0.1875,11,1,7890000,,,6,3
54,104,0.5,12,1,7890000,,,6,8
38,104,0.5625,13,1,7890000,,,6,9
38,104,0.375,0,1,7890001,,,6,6
38,104,0.1875,1,0,7890001,,,6,3
38,104,0.25,2,0,7890001,,,6,4
38,104,0.375,3,0,7890001,,,6,6
38,104,0.625,4,0,7890001,,,6,10
38,104,0.375,5,0,7890001,,,6,6
50,104,0.1875,6,1,7890001,,,6,3
53,104,0.3125,0,1,7900000,,,6,5
29,104,0.4375,1,1,7900000,,,6,7
53,104,0.1875,2,1,7900000,,,6,3
89,104,0.1875,3,1,7900000,,,6,3
58,104,0.1875,4,1,7900000,,,6,3
63,104,0.3125,5,0,7900000,,,6,5
63,104,0.25,6,0,7900000,,,6,4
34,104,0.25,7,1,7900000,,,6,4
27,104,0.25,8,1,7900000,,,6,4
41,104,0.125,9,1,7900000,,,6,2
41,104,0.1875,10,0,7900000,,,6,3
29,104,0.4375,11,1,7900000,,,6,7
43,104,0.25,12,1,7900000,,,6,4
58,104,0.25,0,1,7910000,,,6,4
34,104,0.4375,1,1,7910000,,,6,7
46,104,0.375,2,1,7910000,,,6,6
34,104,0.25,3,1,7910000,,,6,4
34,104,0.3125,4,0,7910000,,,6,5
46,104,0.875,5,1,7910000,,,6,14
46,104,0.1875,6,1,7910000,,,6,3
34,104,0.25,7,1,7910000,,,6,4
53,104,0.6875,8,1,7910000,,,6,11
53,104,0.5625,9,0,7910000,,,6,9
41,104,0.3125,0,1,7910001,,,6,5
29,104,0.25,1,1,7910001,,,6,4
41,104,0.4375,2,1,7910001,,,6,7
53,104,0.25,3,1,7910001,,,6,4
41,104,0.25,4,1,7910001,,,6,4
29,104,0.1875,5,1,7910001,,,6,3
60,104,0.5625,6,1,7910001,,,6,9
41,104,0.25,7,1,7910001,,,6,4
29,104,0.125,8,1,7910001,,,6,2
29,104,0.4375,9,0,7910001,,,6,7
53,104,0.3125,10,1,7910001,,,6,5
29,104,0.1875,11,1,7910001,,,6,3
60,104,0.1875,12,1,7910001,,,6,3
29,104,0.25,13,1,7910001,,,6,4
55,104,0.125,0,1,7910002,,,6,2
65,104,0.1875,1,1,7910002,,,6,3
31,104,0.375,2,1,7910002,,,6,6
31,104,0.375,3,0,7910002,,,6,6
67,104,0.1875,0,1,7920000,,,6,3
58,104,0.25,1,1,7920000,,,6,4
46,104,0.1875,2,1,7920000,,,6,3
39,104,0.25,3,1,7920000,,,6,4
67,104,0.25,4,1,7920000,,,6,4
63,104,0.375,5,0,7920000,,,6,6
39,104,0.25,6,1,7920000,,,6,4
51,104,0.1875,7,1,7920000,,,6,3
70,104,0.25,8,1,7920000,,,6,4
70,104,0.25,9,0,7920000,,,6,4
65,104,0.1875,10,0,7920000,,,6,3
58,104,0.375,0,1,7930000,,,6,6
51,104,0.3125,1,1,7930000,,,6,5
53,104,0.1875,2,0,7930000,,,6,3
53,104,0.375,3,0,7930000,,,6,6
53,104,0.1875,4,0,7930000,,,6,3
53,104,0.1875,5,0,7930000,,,6,3
58,104,0.125,6,0,7930000,,,6,2
58,104,0.25,7,0,7930000,,,6,4
55,104,0.875,8,0,7930000,,,6,14
53,104,0.25,9,1,7930000,,,6,4
53,104,0.25,10,0,7930000,,,6,4
53,104,0.3125,11,0,7930000,,,6,5
53,104,0.3125,12,0,7930000,,,6,5
53,104,0.25,0,1,7930001,,,6,4
51,104,0.9375,0,1,7940000,,,6,15
39,104,0.875,1,1,7940000,,,6,14
58,104,0.1875,2,1,7940000,,,6,3
58,104,0.3125,3,0,7940000,,,6,5
51,104,0.1875,4,1,7940000,,,6,3
51,104,0.9375,5,0,7940000,,,6,15
39,104,0.9375,6,1,7940000,,,6,15
58,104,0.25,0,1,7940001,,,6,4
39,104,0.9375,1,1,7940001,,,6,15
39,104,0.875,2,1,7940001,,,6,14
51,104,0.5,3,1,7940001,,,6,8
51,104,0.9375,4,0,7940001,,,6,15
51,104,0.375,5,1,7940001,,,6,6
51,104,0.5625,0,1,7940002,,,6,9
41,104,0.1875,0,1,7950000,,,6,3
41,104,0.25,1,0,7950000,,,6,4
60,104,0.5625,2,1,7950000,,,6,9
53,104,0.1875,3,1,7950000,,,6,3
60,104,0.5,4,1,7950000,,,6,8
50,104,0.25,5,1,7950000,,,6,4
50,104,0.3125,6,0,7950000,,,6,5
38,104,0.1875,7,1,7950000,,,6,3
50,104,0.375,8,1,7950000,,,6,6
65,104,0.375,9,1,7950000,,,6,6
50,104,0.75,10,1,7950000,,,6,12
50,104,0.5,11,1,7950000,,,6,8
50,104,0.1875,0,1,7950001,,,6,3
38,104,0.25,1,1,7950001,,,6,4
48,104,0.9375,0,1,7960000,,,6,15
36,104,0.4375,1,1,7960000,,,6,7
48,104,0.625,2,1,7960000,,,6,10
48,104,0.9375,3,0,7960000,,,6,15
60,104,0.5,4,1,7960000,,,6,8
55,104,0.1875,5,0,7960000,,,6,3
60,104,0.125,6,0,7960000,,,6,2
52,104,0.3125,7,1,7960000,,,6,5
43,104,0.9375,0,1,7960001,,,6,15
55,104,0.5625,1,1,7960001,,,6,9
31,104,0.3125,2,1,7960001,,,6,5
50,104,0.4375,3,1,7960001,,,6,7
31,104,0.625,4,1,7960001,,,6,10
31,104,0.9375,5,0,7960001,,,6,15
54,104,0.125,0,1,7970000,,,6,2
40,104,0.375,1,1,7970000,,,6,6
64,104,0.1875,2,1,7970000,,,6,3
71,104,0.25,3,1,7970000,,,6,4
72,104,0.25,4,0,7970000,,,6,4
68,104,0.1875,5,0,7970000,,,6,3
64,104,0.375,6,0,7970000,,,6,6
40,104,0.125,7,1,7970000,,,6,2
40,104,0.3125,8,0,7970000,,,6,5
54,104,0.125,9,1,7970000,,,6,2
55,104,0.125,10,0,7970000,,,6,2
52,104,0.3125,11,0,7970000,,,6,5
52,104,0.0625,12,0,7970000,,,6,1
48,104,0.375,0,1,7980000,,,6,6
36,104,0.5625,1,1,7980000,,,6,9
48,104,0.1875,2,1,7980000,,,6,3
50,104,0.4375,3,0,7980000,,,6,7
31,104,0.375,4,1,7980000,,,6,6
55,104,0.5,5,1,7980000,,,6,8
52,104,0.1875,6,0,7980000,,,6,3
55,104,0.9375,7,0,7980000,,,6,15
52,104,0.875,8,1,7980000,,,6,14
52,104,0.1875,0,1,7980001,,,6,3
36,104,0.3125,1,1,7980001,,,6,5
36,104,0.625,2,0,7980001,,,6,10
36,104,0.9375,3,0,7980001,,,6,15
41,104,0.9375,4,1,7980001,,,6,15
63,104,0.4375,0,1,7990000,,,6,7
63,104,0.1875,1,0,7990000,,,6,3
54,104,0.1875,2,1,7990000,,,6,3
63,104,0.1875,3,1,7990000,,,6,3
63,104,0.25,4,0,7990000,,,6,4
54,104,0.1875,5,1,7990000,,,6,3
63,104,0.1875,6,1,7990000,,,6,3
59,104,0.25,7,0,7990000,,,6,4
63,104,0.1875,8,0,7990000,,,6,3
54,104,0.375,9,1,7990000,,,6,6
54,104,0.8125,10,0,7990000,,,6,13
61,104,0.5625,11,1,7990000,,,6,9
54,104,0.25,12,1,7990000,,,6,4
66,104,0.1875,0,1,7990001,,,6,3
66,104,0.125,1,0,7990001,,,6,2
60,104,0.3125,0,1,8000000,,,6,5
65,104,0.3125,1,0,8000000,,,6,5
53,104,0.375,2,1,8000000,,,6,6
60,104,0.6875,3,1,8000000,,,6,11
60,104,0.75,4,0,8000000,,,6,12
65,104,0.5,5,1,8000000,,,6,8
60,104,0.1875,6,0,8000000,,,6,3
53,104,0.25,7,1,8000000,,,6,4
65,104,0.6875,8,1,8000000,,,6,11
53,104,0.6875,0,1,8000001,,,6,11
53,104,0.4375,1,0,8000001,,,6,7
53,104,0.3125,2,0,8000001,,,6,5
53,104,0.9375,3,0,8000001,,,6,15
41,104,0.375,4,1,8000001,,,6,6
60,104,0.25,5,1,8000001,,,6,4
41,104,0.4375,6,1,8000001,,,6,7
53,104,0.375,7,1,8000001,,,6,6
53,104,0.875,8,0,8000001,,,6,14
62,104,0.3125,0,1,8010000,,,6,5
53,104,0.5,1,1,8010000,,,6,8
65,104,0.25,2,1,8010000,,,6,4
62,104,0.9375,3,0,8010000,,,6,15
62,104,0.25,4,1,8010000,,,6,4
53,104,0.4375,5,1,8010000,,,6,7
69,104,0.25,6,1,8010000,,,6,4
62,104,0.9375,7,1,8010000,,,6,15
65,104,0.25,8,1,8010000,,,6,4
64,104,0.9375,0,1,8010001,,,6,15
60,104,0.375,1,1,8010001,,,6,6
60,104,0.75,2,0,8010001,,,6,12
64,104,0.5625,3,1,8010001,,,6,9
60,104,0.375,4,0,8010001,,,6,6
57,104,0.4375,5,0,8010001,,,6,7
60,104,0.8125,6,0,8010001,,,6,13
57,104,0.25,0,1,8010002,,,6,4
69,104,0.375,1,1,8010002,,,6,6
38,104,0.25,2,1,8010002,,,6,4
38,104,0.625,3,0,8010002,,,6,10
31,104,0.25,0,1,8020000,,,6,4
55,104,0.1875,1,1,8020000,,,6,3
43,104,0.375,2,1,8020000,,,6,6
31,104,0.9375,3,1,8020000,,,6,15
55,104,0.4375,4,1,8020000,,,6,7
55,104,0.1875,5,0,8020000,,,6,3
50,104,0.9375,6,0,8020000,,,6,15
55,104,0.1875,7,1,8020000,,,6,3
33,104,0.5,8,1,8020000,,,6,8
45,104,0.4375,0,1,8020001,,,6,7
33,104,0.25,1,1,8020001,,,6,4
60,104,0.875,2,1,8020001,,,6,14
28,104,0.625,3,1,8020001,,,6,10
60,104,0.375,4,1,8020001,,,6,6
50,104,0.125,5,1,8020001,,,6,2
41,104,0.0,6,1,8020001,,,6,0
59,104,0.25,0,1,8030000,,,6,4
59,104,0.1875,1,0,8030000,,,6,3
59,104,0.6875,2,0,8030000,,,6,11
64,104,0.375,3,0,8030000,,,6,6
64,104,0.25,4,0,8030000,,,6,4
49,104,0.5,5,1,8030000,,,6,8
59,104,0.5,6,1,8030000,,,6,8
64,104,0.3125,7,0,8030000,,,6,5
64,104,0.5625,8,0,8030000,,,6,9
64,104,0.375,9,0,8030000,,,6,6
59,104,0.3125,0,1,8030001,,,6,5
59,104,0.3125,1,0,8030001,,,6,5
60,104,0.875,0,1,8040000,,,6,14
50,104,0.3125,1,1,8040000,,,6,5
54,104,0.125,2,0,8040000,,,6,2
53,104,0.1875,3,0,8040000,,,6,3
53,104,0.1875,4,0,8040000,,,6,3
53,104,0.25,5,0,8040000,,,6,4
65,104,0.25,6,1,8040000,,,6,4
53,104,0.3125,7,1,8040000,,,6,5
53,104,0.1875,8,0,8040000,,,6,3
46,104,0.25,9,1,8040000,,,6,4
53,104,0.125,10,1,8040000,,,6,2
48,104,0.625,11,0,8040000,,,6,10
48,104,0.375,12,0,8040000,,,6,6
53,104,0.6875,0,1,8040001,,,6,11
48,104,0.3125,1,0,8040001,,,6,5
53,104,0.875,2,0,8040001,,,6,14
60,104,0.3125,3,1,8040001,,,6,5
53,104,0.1875,4,1,8040001,,,6,3
48,104,0.3125,5,0,8040001,,,6,5
48,104,0.125,6,0,8040001,,,6,2
53,104,0.25,7,0,8040001,,,6,4
36,104,0.25,8,1,8040001,,,6,4
48,104,0.375,9,1,8040001,,,6,6
53,104,0.25,10,0,8040001,,,6,4
59,104,0.25,0,1,8050000,,,6,4
64,104,0.25,1,0,8050000,,,6,4
64,104,0.3125,2,0,8050000,,,6,5
59,104,0.375,3,0,8050000,,,6,6
59,104,0.25,4,0,8050000,,,6,4
47,104,0.3125,5,1,8050000,,,6,5
59,104,0.625,6,1,8050000,,,6,10
59,104,0.8125,7,0,8050000,,,6,13
59,104,0.25,8,1,8050000,,,6,4
59,104,0.5,9,0,8050000,,,6,8
64,104,0.4375,10,0,8050000,,,6,7
59,104,0.3125,0,1,8050001,,,6,5
59,104,0.6875,1,0,8050001,,,6,11
35,104,0.4375,2,1,8050001,,,6,7
35,104,0.9375,3,0,8050001,,,6,15
35,104,0.375,4,1,8050001,,,6,6
35,104,0.25,5,0,8050001,,,6,4
47,104,0.4375,6,1,8050001,,,6,7
35,104,0.5,7,1,8050001,,,6,8
47,104,0.25,0,1,8050002,,,6,4
59,104,0.25,1,1,8050002,,,6,4
49,104,0.4375,2,1,8050002,,,6,7
50,104,0.1875,0,1,8060000,,,6,3
50,104,0.25,1,0,8060000,,,6,4
56,104,0.1875,2,0,8060000,,,6,3
52,104,0.3125,3,0,8060000,,,6,5
33,104,0.375,4,1,8060000,,,6,6
33,104,0.6875,5,0,8060000,,,6,11
62,104,0.375,6,1,8060000,,,6,6
57,104,0.3125,0,1,8070000,,,6,5
57,104,0.1875,1,0,8070000,,,6,3
33,104,0.1875,2,1,8070000,,,6,3
54,104,0.375,3,1,8070000,,,6,6
59,104,0.25,4,0,8070000,,,6,4
54,104,0.375,5,0,8070000,,,6,6
35,104,0.3125,6,1,8070000,,,6,5
59,104,0.125,7,1,8070000,,,6,2
54,104,0.4375,8,0,8070000,,,6,7
54,104,0.4375,9,0,8070000,,,6,7
35,104,0.375,10,1,8070000,,,6,6
35,104,0.1875,11,0,8070000,,,6,3
59,104,0.6875,12,1,8070000,,,6,11
31,104,0.25,0,1,8070001,,,6,4
43,104,0.3125,1,1,8070001,,,6,5
59,104,0.625,2,1,8070001,,,6,10
57,104,0.125,3,0,8070001,,,6,2
53,104,0.25,0,1,8080000,,,6,4
53,104,0.3125,1,0,8080000,,,6,5
58,104,0.125,2,0,8080000,,,6,2
51,104,0.375,3,1,8080000,,,6,6
70,104,0.125,4,1,8080000,,,6,2
51,104,0.6875,5,1,8080000,,,6,11
39,104,0.3125,6,1,8080000,,,6,5
51,104,0.5,7,1,8080000,,,6,8
51,104,0.9375,8,0,8080000,,,6,15
63,104,0.625,9,1,8080000,,,6,10
51,104,0.1875,0,1,8080001,,,6,3
51,104,0.9375,1,0,8080001,,,6,15
51,104,0.5625,2,1,8080001,,,6,9
63,104,0.1875,3,1,8080001,,,6,3
56,104,0.1875,0,1,8090000,,,6,3
51,104,0.4375,1,0,8090000,,,6,7
56,104,0.1875,2,0,8090000,,,6,3
51,104,0.625,3,0,8090000,,,6,10
51,104,0.25,4,0,8090000,,,6,4
51,104,0.375,5,0,8090000,,,6,6
51,104,0.125,6,0,8090000,,,6,2
56,104,0.1875,7,0,8090000,,,6,3
51,104,0.125,8,0,8090000,,,6,2
51,104,0.3125,9,0,8090000,,,6,5
56,104,0.1875,10,0,8090000,,,6,3
51,104,0.25,11,0,8090000,,,6,4
51,104,0.25,12,0,8090000,,,6,4
63,104,0.75,13,1,8090000,,,6,12
51,104,0.4375,0,1,8090001,,,6,7
65,104,0.25,1,1,8090001,,,6,4
67,104,0.375,2,0,8090001,,,6,6
70,104,0.4375,3,0,8090001,,,6,7
67,104,0.3125,4,0,8090001,,,6,5
56,104,0.3125,5,1,8090001,,,6,5
51,104,0.3125,6,0,8090001,,,6,5
65,104,0.375,7,1,8090001,,,6,6
67,104,0.3125,8,0,8090001,,,6,5
47,104,0.875,0,1,8100000,,,6,14
47,104,0.6875,1,1,8100000,,,6,11
48,104,0.75,2,0,8100000,,,6,12
36,104,0.875,3,1,8100000,,,6,14
51,104,0.9375,4,1,8100000,,,6,15
39,104,0.1875,0,1,8100001,,,6,3
39,104,0.1875,1,0,8100001,,,6,3
51,104,0.5625,2,1,8100001,,,6,9
39,104,0.25,3,1,8100001,,,6,4
50,104,0.9375,4,1,8100001,,,6,15
58,104,0.9375,5,1,8100001,,,6,15
48,104,0.9375,6,1,8100001,,,6,15
62,104,0.1875,0,1,8110000,,,6,3
52,104,0.1875,1,1,8110000,,,6,3
57,104,0.9375,2,0,8110000,,,6,15
38,104,0.3125,3,1,8110000,,,6,5
62,104,0.25,4,1,8110000,,,6,4
53,104,0.25,5,1,8110000,,,6,4
48,104,0.25,6,0,8110000,,,6,4
36,104,0.625,7,1,8110000,,,6,10
36,104,0.25,8,0,8110000,,,6,4
59,104,0.1875,9,1,8110000,,,6,3
33,104,0.0,10,1,8110000,,,6,0
63,104,0.3125,0,1,8120000,,,6,5
51,104,0.8125,1,1,8120000,,,6,13
51,104,0.5,2,1,8120000,,,6,8
51,104,0.9375,3,0,8120000,,,6,15
63,104,0.25,4,1,8120000,,,6,4
51,104,0.9375,5,1,8120000,,,6,15
63,104,0.3125,6,1,8120000,,,6,5
51,104,0.9375,0,1,8120001,,,6,15
51,104,0.6875,1,1,8120001,,,6,11
51,104,0.9375,2,0,8120001,,,6,15
51,104,0.125,3,1,8120001,,,6,2
51,104,0.1875,4,0,8120001,,,6,3
56,104,0.125,5,0,8120001,,,6,2
46,104,0.75,6,1,8120001,,,6,12
58,104,0.1875,7,1,8120001,,,6,3
58,104,0.1875,0,1,8120002,,,6,3
57,104,0.9375,0,1,8130000,,,6,15
38,104,0.375,1,1,8130000,,,6,6
57,104,0.625,2,1,8130000,,,6,10
57,104,0.375,3,0,8130000,,,6,6
50,104,0.3125,4,1,8130000,,,6,5
59,104,0.9375,5,1,8130000,,,6,15
61,104,0.375,6,1,8130000,,,6,6
49,104,0.5,7,1,8130000,,,6,8
50,104,0.9375,0,1,8130001,,,6,15
50,104,0.6875,1,1,8130001,,,6,11
59,104,0.9375,2,1,8130001,,,6,15
69,104,0.125,3,1,8130001,,,6,2
62,104,0.1875,4,1,8130001,,,6,3
62,104,0.25,5,0,8130001,,,6,4
64,104,0.75,6,0,8130001,,,6,12
54,104,0.125,0,1,8140000,,,6,2
52,104,0.25,1,0,8140000,,,6,4
64,104,0.375,2,1,8140000,,,6,6
59,104,0.1875,3,0,8140000,,,6,3
40,104,0.3125,4,1,8140000,,,6,5
59,104,0.3125,5,1,8140000,,,6,5
40,104,0.3125,6,1,8140000,,,6,5
52,104,0.3125,7,1,8140000,,,6,5
56,104,0.25,8,0,8140000,,,6,4
52,104,0.25,9,0,8140000,,,6,4
64,104,0.1875,10,1,8140000,,,6,3
52,104,0.1875,11,1,8140000,,,6,3
52,104,0.3125,12,0,8140000,,,6,5
57,104,0.3125,13,0,8140000,,,6,5
45,104,0.125,14,1,8140000,,,6,2
52,104,0.1875,15,1,8140000,,,6,3
64,104,0.125,0,1,8140001,,,6,2
52,104,0.3125,1,1,8140001,,,6,5
52,104,0.375,2,0,8140001,,,6,6
64,104,0.1875,3,1,8140001,,,6,3
32,104,0.5,0,1,8150000,,,6,8
32,104,0.25,1,0,8150000,,,6,4
56,104,0.3125,2,1,8150000,,,6,5
56,104,0.1875,3,0,8150000,,,6,3
32,104,0.4375,4,1,8150000,,,6,7
32,104,0.625,5,0,8150000,,,6,10
63,104,0.3125,6,1,8150000,,,6,5
36,104,0.625,7,1,8150000,,,6,10
36,104,0.625,8,0,8150000,,,6,10
46,104,0.125,9,1,8150000,,,6,2
34,104,0.5,0,1,8150001,,,6,8
34,104,0.375,1,0,8150001,,,6,6
27,104,0.5,2,1,8150001,,,6,8
27,104,0.5625,3,0,8150001,,,6,9
27,104,0.1875,4,0,8150001,,,6,3
34,104,0.3125,5,1,8150001,,,6,5
34,104,0.5625,6,0,8150001,,,6,9
57,104,0.5625,0,1,8160000,,,6,9
43,104,0.5,1,1,8160000,,,6,8
57,104,0.625,2,1,8160000,,,6,10
43,104,0.625,3,1,8160000,,,6,10
57,104,0.4375,4,1,8160000,,,6,7
50,104,0.125,5,1,8160000,,,6,2
57,104,0.4375,6,1,8160000,,,6,7
45,104,0.125,7,1,8160000,,,6,2
38,104,0.9375,0,1,8170000,,,6,15
50,104,0.9375,1,1,8170000,,,6,15
47,104,0.1875,2,1,8170000,,,6,3
66,104,0.625,3,1,8170000,,,6,10
66,104,0.9375,4,0,8170000,,,6,15
66,104,0.5,5,1,8170000,,,6,8
62,104,0.3125,0,1,8170001,,,6,5
62,104,0.1875,1,0,8170001,,,6,3
50,104,0.3125,2,1,8170001,,,6,5
55,104,0.4375,3,0,8170001,,,6,7
55,104,0.9375,4,0,8170001,,,6,15
50,104,0.9375,0,1,8180000,,,6,15
62,104,0.3125,1,1,8180000,,,6,5
62,104,0.625,2,0,8180000,,,6,10
62,104,0.9375,3,0,8180000,,,6,15
57,104,0.25,4,1,8180000,,,6,4
62,104,0.25,5,0,8180000,,,6,4
62,104,0.4375,6,0,8180000,,,6,7
50,104,0.625,7,1,8180000,,,6,10
62,104,0.1875,0,1,8180001,,,6,3
52,104,0.5625,1,1,8180001,,,6,9
50,104,0.125,2,0,8180001,,,6,2
62,104,0.5,3,1,8180001,,,6,8
43,104,0.125,4,1,8180001,,,6,2
55,104,0.6875,5,1,8180001,,,6,11
50,104,0.25,6,0,8180001,,,6,4
55,104,0.3125,7,0,8180001,,,6,5
48,104,0.1875,8,1,8180001,,,6,3
48,104,0.1875,9,0,8180001,,,6,3
53,104,0.3125,0,1,8190000,,,6,5
60,104,0.1875,1,1,8190000,,,6,3
34,104,0.25,2,1,8190000,,,6,4
53,104,0.1875,3,1,8190000,,,6,3
53,104,0.1875,4,0,8190000,,,6,3
53,104,0.25,5,0,8190000,,,6,4
58,104,0.1875,6,0,8190000,,,6,3
60,104,0.125,7,0,8190000,,,6,2
60,104,0.4375,8,0,8190000,,,6,7
55,104,0.25,9,0,8190000,,,6,4
65,104,0.9375,10,1,8190000,,,6,15
36,104,0.375,11,1,8190000,,,6,6
48,104,0.1875,12,1,8190000,,,6,3
48,104,0.25,13,0,8190000,,,6,4
46,104,0.6875,0,1,8190001,,,6,11
34,104,0.5,1,1,8190001,,,6,8
46,104,0.1875,2,1,8190001,,,6,3
46,104,0.25,3,0,8190001,,,6,4
46,104,0.25,0,1,8200000,,,6,4
50,104,0.1875,1,0,8200000,,,6,3
58,104,0.3125,2,1,8200000,,,6,5
50,104,0.1875,3,1,8200000,,,6,3
58,104,0.25,4,1,8200000,,,6,4
48,104,0.6875,5,1,8200000,,,6,11
48,104,0.3125,6,0,8200000,,,6,5
58,104,0.3125,7,1,8200000,,,6,5
56,104,0.25,8,0,8200000,,,6,4
58,104,0.375,9,0,8200000,,,6,6
58,104,0.25,10,0,8200000,,,6,4
58,104,0.4375,11,0,8200000,,,6,7
63,104,0.1875,12,0,8200000,,,6,3
37,104,0.1875,0,1,8210000,,,6,3
37,104,0.1875,1,0,8210000,,,6,3
61,104,0.625,2,1,8210000,,,6,10
61,104,0.9375,3,0,8210000,,,6,15
44,104,0.4375,4,1,8210000,,,6,7
56,104,0.1875,5,1,8210000,,,6,3
53,104,0.75,6,0,8210000,,,6,12
53,104,0.3125,7,1,8210000,,,6,5
61,104,0.6875,8,1,8210000,,,6,11
49,104,0.375,0,1,8210001,,,6,6
61,104,0.25,1,1,8210001,,,6,4
61,104,0.1875,2,0,8210001,,,6,3
44,104,0.375,3,1,8210001,,,6,6
64,104,0.4375,0,1,8220000,,,6,7
52,104,0.5,1,1,8220000,,,6,8
45,104,0.375,2,1,8220000,,,6,6
52,104,0.1875,3,1,8220000,,,6,3
45,104,0.1875,4,1,8220000,,,6,3
35,104,0.9375,5,1,8220000,,,6,15
35,104,0.5,6,1,8220000,,,6,8
35,104,0.375,7,0,8220000,,,6,6
35,104,0.5625,8,0,8220000,,,6,9
35,104,0.375,0,1,8220001,,,6,6
35,104,0.375,1,0,8220001,,,6,6
64,104,0.5625,2,1,8220001,,,6,9
40,104,0.5,3,1,8220001,,,6,8
40,104,0.4375,4,0,8220001,,,6,7
52,104,0.25,5,1,8220001,,,6,4
40,104,0.25,6,1,8220001,,,6,4
40,104,0.5,7,0,8220001,,,6,8
52,104,0.1875,8,1,8220001,,,6,3
40,104,0.3125,9,1,8220001,,,6,5
40,104,0.4375,10,0,8220001,,,6,7
40,104,0.3125,0,1,8220002,,,6,5
52,104,0.125,1,1,8220002,,,6,2
52,104,0.5,0,1,8230000,,,6,8
52,104,0.5625,1,0,8230000,,,6,9
53,104,0.1875,2,0,8230000,,,6,3
52,104,0.4375,3,0,8230000,,,6,7
52,104,0.5625,4,0,8230000,,,6,9
52,104,0.5,5,0,8230000,,,6,8
52,104,0.5,6,0,8230000,,,6,8
59,104,0.875,7,1,8230000,,,6,14
40,104,0.25,0,1,8230001,,,6,4
59,104,0.25,1,1,8230001,,,6,4
40,104,0.25,2,1,8230001,,,6,4
52,104,0.9375,3,1,8230001,,,6,15
52,104,0.4375,4,1,8230001,,,6,7
52,104,0.6875,5,0,8230001,,,6,11
52,104,0.9375,6,0,8230001,,,6,15
52,104,0.75,7,1,8230001,,,6,12
52,104,0.1875,0,1,8240000,,,6,3
49,104,0.9375,1,0,8240000,,,6,15
49,104,0.1875,2,1,8240000,,,6,3
49,104,0.5,3,0,8240000,,,6,8
49,104,0.9375,4,0,8240000,,,6,15
49,104,0.75,5,1,8240000,,,6,12
59,104,0.25,6,1,8240000,,,6,4
49,104,0.8125,7,1,8240000,,,6,13
49,104,0.5,0,1,8240001,,,6,8
49,104,0.5,1,0,8240001,,,6,8
49,104,0.9375,2,0,8240001,,,6,15
45,104,0.5625,3,1,8240001,,,6,9
45,104,0.4375,4,0,8240001,,,6,7
45,104,0.4375,5,0,8240001,,,6,7
45,104,0.4375,6,0,8240001,,,6,7
45,104,0.9375,0,1,8240002,,,6,15
45,104,0.375,1,1,8240002,,,6,6
45,104,0.25,2,0,8240002,,,6,4
54,104,0.3125,0,1,8250000,,,6,5
56,104,0.9375,1,0,8250000,,,6,15
56,104,0.3125,2,1,8250000,,,6,5
37,104,0.3125,3,1,8250000,,,6,5
47,104,0.1875,0,1,8260000,,,6,3
64,104,0.4375,1,1,8260000,,,6,7
64,104,0.9375,2,0,8260000,,,6,15
76,104,0.25,3,1,8260000,,,6,4
52,104,0.375,4,1,8260000,,,6,6
52,104,0.875,5,0,8260000,,,6,14
64,104,0.5,6,1,8260000,,,6,8
52,104,0.3125,7,1,8260000,,,6,5
52,104,0.1875,8,0,8260000,,,6,3
59,104,0.3125,0,1,8260001,,,6,5
54,104,0.25,1,0,8260001,,,6,4
64,104,0.4375,2,1,8260001,,,6,7
52,104,0.5,3,1,8260001,,,6,8
64,104,0.5,4,1,8260001,,,6,8
61,104,0.1875,5,0,8260001,,,6,3
49,104,0.1875,6,1,8260001,,,6,3
49,104,0.5,7,0,8260001,,,6,8
49,104,0.4375,8,0,8260001,,,6,7
53,104,0.25,0,1,8270000,,,6,4
53,104,0.4375,1,0,8270000,,,6,7
53,104,0.4375,2,0,8270000,,,6,7
53,104,0.25,3,0,8270000,,,6,4
53,104,0.3125,4,0,8270000,,,6,5
53,104,0.1875,5,0,8270000,,,6,3
53,104,0.3125,6,0,8270000,,,6,5
53,104,0.1875,7,0,8270000,,,6,3
46,104,0.9375,8,1,8270000,,,6,15
63,104,0.375,9,1,8270000,,,6,6
46,104,0.25,10,1,8270000,,,6,4
46,104,0.1875,11,0,8270000,,,6,3
51,104,0.875,0,1,8270001,,,6,14
39,104,0.1875,1,1,8270001,,,6,3
51,104,0.25,2,1,8270001,,,6,4
63,104,0.375,3,1,8270001,,,6,6
51,104,0.875,4,1,8270001,,,6,14
51,104,0.0625,5,1,8270001,,,6,1
56,104,0.375,0,1,8280000,,,6,6
32,104,0.25,1,1,8280000,,,6,4
56,104,0.375,2,1,8280000,,,6,6
32,104,0.1875,3,1,8280000,,,6,3
46,104,0.25,4,1,8280000,,,6,4
46,104,0.3125,5,0,8280000,,,6,5
34,104,0.8125,6,1,8280000,,,6,13
46,104,0.1875,7,1,8280000,,,6,3
34,104,0.375,8,1,8280000,,,6,6
34,104,0.1875,9,0,8280000,,,6,3
31,104,0.125,10,0,8280000,,,6,2
36,104,0.375,11,0,8280000,,,6,6
36,104,0.25,12,0,8280000,,,6,4
53,104,0.6875,0,1,8280001,,,6,11
62,104,0.9375,0,1,8290000,,,6,15
62,104,0.6875,1,1,8290000,,,6,11
47,104,0.1875,2,1,8290000,,,6,3
59,104,0.375,3,1,8290000,,,6,6
62,104,0.625,4,0,8290000,,,6,10
59,104,0.1875,5,0,8290000,,,6,3
66,104,0.1875,6,1,8290000,,,6,3
40,104,0.9375,7,1,8290000,,,6,15
40,104,0.75,0,1,8290001,,,6,12
40,104,0.375,1,1,8290001,,,6,6
40,104,0.4375,2,0,8290001,,,6,7
59,104,0.1875,3,1,8290001,,,6,3
59,104,0.25,4,0,8290001,,,6,4
40,104,0.4375,5,1,8290001,,,6,7
62,104,0.125,6,1,8290001,,,6,2
50,104,0.9375,7,1,8290001,,,6,15
52,104,0.125,0,1,8300000,,,6,2
40,104,0.4375,1,1,8300000,,,6,7
59,104,0.5625,2,1,8300000,,,6,9
54,104,0.5,3,0,8300000,,,6,8
45,104,0.1875,4,1,8300000,,,6,3
45,104,0.5625,5,0,8300000,,,6,9
52,104,0.5625,6,1,8300000,,,6,9
57,104,0.4375,7,0,8300000,,,6,7
52,104,0.125,8,0,8300000,,,6,2
57,104,0.3125,9,0,8300000,,,6,5
61,104,0.375,10,0,8300000,,,6,6
57,104,0.375,0,1,8300001,,,6,6
61,104,0.4375,1,0,8300001,,,6,7
57,104,0.1875,2,0,8300001,,,6,3
57,104,0.1875,3,0,8300001,,,6,3
50,104,0.1875,4,1,8300001,,,6,3
45,104,0.75,5,0,8300001,,,6,12
52,104,0.375,6,1,8300001,,,6,6
45,104,0.125,7,1,8300001,,,6,2
52,104,0.375,8,1,8300001,,,6,6
52,104,0.375,9,0,8300001,,,6,6
64,104,0.125,10,1,8300001,,,6,2
59,104,0.5,11,0,8300001,,,6,8
52,104,0.25,0,1,8300002,,,6,4
52,104,0.0,1,0,8300002,,,6,0
33,104,0.625,0,1,8310000,,,6,10
33,104,0.75,1,0,8310000,,,6,12
33,104,0.5625,2,1,8310000,,,6,9
45,104,0.25,3,1,8310000,,,6,4
45,104,0.4375,4,0,8310000,,,6,7
52,104,0.5625,5,1,8310000,,,6,9
52,104,0.5,6,0,8310000,,,6,8
52,104,0.25,7,0,8310000,,,6,4
38,104,0.1875,8,1,8310000,,,6,3
50,104,0.25,0,1,8310001,,,6,4
38,104,0.1875,1,1,8310001,,,6,3
50,104,0.25,2,1,8310001,,,6,4
52,104,0.625,3,0,8310001,,,6,10
52,104,0.25,4,0,8310001,,,6,4
52,104,0.1875,5,0,8310001,,,6,3
52,104,0.25,6,0,8310001,,,6,4
50,104,0.125,7,0,8310001,,,6,2
38,104,0.3125,8,1,8310001,,,6,5
38,104,0.125,9,0,8310001,,,6,2
59,104,0.6875,0,1,8320000,,,6,11
51,104,0.9375,1,1,8320000,,,6,15
56,104,0.3125,2,1,8320000,,,6,5
49,104,0.5,3,1,8320000,,,6,8
56,104,0.375,4,1,8320000,,,6,6
56,104,0.6875,5,0,8320000,,,6,11
56,104,0.5,6,0,8320000,,,6,8
56,104,0.9375,0,1,8320001,,,6,15
56,104,0.9375,1,1,8320001,,,6,15
57,104,0.5,2,1,8320001,,,6,8
45,104,0.4375,3,1,8320001,,,6,7
52,104,0.25,4,1,8320001,,,6,4
52,104,0.125,5,0,8320001,,,6,2
64,104,0.25,6,1,8320001,,,6,4
64,104,0.1875,7,0,8320001,,,6,3
64,104,0.3125,0,1,8330000,,,6,5
52,104,0.1875,1,1,8330000,,,6,3
57,104,0.9375,2,0,8330000,,,6,15
57,104,0.3125,3,1,8330000,,,6,5
57,104,0.1875,4,0,8330000,,,6,3
57,104,0.9375,5,0,8330000,,,6,15
61,104,0.25,6,1,8330000,,,6,4
57,104,0.9375,7,0,8330000,,,6,15
61,104,0.3125,0,1,8330001,,,6,5
61,104,0.625,1,0,8330001,,,6,10
56,104,0.9375,2,0,8330001,,,6,15
64,104,0.25,3,1,8330001,,,6,4
57,104,0.3125,4,1,8330001,,,6,5
64,104,0.75,5,1,8330001,,,6,12
57,104,0.375,6,1,8330001,,,6,6
45,104,0.5,7,1,8330001,,,6,8
52,104,0.125,0,1,8340000,,,6,2
40,104,0.4375,1,1,8340000,,,6,7
59,104,0.5625,2,1,8340000,,,6,9
54,104,0.5,3,0,8340000,,,6,8
45,104,0.1875,4,1,8340000,,,6,3
45,104,0.5625,5,0,8340000,,,6,9
52,104,0.5625,6,1,8340000,,,6,9
57,104,0.4375,7,0,8340000,,,6,7
52,104,0.125,8,0,8340000,,,6,2
57,104,0.3125,9,0,8340000,,,6,5
61,104,0.375,10,0,8340000,,,6,6
57,104,0.375,0,1,8340001,,,6,6
61,104,0.4375,1,0,8340001,,,6,7
57,104,0.1875,2,0,8340001,,,6,3
57,104,0.1875,3,0,8340001,,,6,3
50,104,0.1875,4,1,8340001,,,6,3
45,104,0.75,5,0,8340001,,,6,12
52,104,0.375,6,1,8340001,,,6,6
45,104,0.125,7,1,8340001,,,6,2
52,104,0.375,8,1,8340001,,,6,6
52,104,0.375,9,0,8340001,,,6,6
64,104,0.125,10,1,8340001,,,6,2
59,104,0.5,11,0,8340001,,,6,8
52,104,0.25,0,1,8340002,,,6,4
52,104,0.0,1,0,8340002,,,6,0
67,104,0.9375,0,1,8350000,,,6,15
67,104,0.4375,1,1,8350000,,,6,7
67,104,0.9375,2,0,8350000,,,6,15
67,104,0.9375,3,1,8350000,,,6,15
67,104,0.25,4,1,8350000,,,6,4
55,104,0.9375,5,1,8350000,,,6,15
48,104,0.75,0,1,8350001,,,6,12
50,104,0.9375,1,1,8350001,,,6,15
50,104,0.1875,2,1,8350001,,,6,3
50,104,0.9375,3,0,8350001,,,6,15
62,104,0.875,4,1,8350001,,,6,14
52,104,0.9375,0,1,8350002,,,6,15
64,104,0.5,0,1,8360000,,,6,8
52,104,0.375,1,1,8360000,,,6,6
60,104,0.9375,2,1,8360000,,,6,15
55,104,0.25,3,1,8360000,,,6,4
55,104,0.9375,4,0,8360000,,,6,15
55,104,0.25,5,1,8360000,,,6,4
55,104,0.375,6,0,8360000,,,6,6
52,104,0.8125,7,0,8360000,,,6,13
52,104,0.1875,0,1,8360001,,,6,3
50,104,0.625,1,0,8360001,,,6,10
28,104,0.5,0,1,8370000,,,6,8
40,104,0.375,1,1,8370000,,,6,6
28,104,0.3125,2,1,8370000,,,6,5
56,104,0.6875,3,1,8370000,,,6,11
28,104,0.3125,4,1,8370000,,,6,5
47,104,0.1875,5,1,8370000,,,6,3
56,104,0.9375,6,1,8370000,,,6,15
28,104,0.25,7,1,8370000,,,6,4
56,104,0.5625,8,1,8370000,,,6,9
47,104,0.5,0,1,8370001,,,6,8
56,104,0.25,1,1,8370001,,,6,4
35,104,0.8125,2,1,8370001,,,6,13
35,104,0.6875,3,1,8370001,,,6,11
53,104,0.1875,0,1,8380000,,,6,3
60,104,0.9375,1,1,8380000,,,6,15
46,104,0.875,2,1,8380000,,,6,14
46,104,0.375,3,1,8380000,,,6,6
46,104,0.75,4,0,8380000,,,6,12
65,104,0.3125,5,1,8380000,,,6,5
60,104,0.9375,6,0,8380000,,,6,15
53,104,0.1875,0,1,8380001,,,6,3
58,104,0.1875,1,0,8380001,,,6,3
58,104,0.9375,2,0,8380001,,,6,15
58,104,0.1875,3,1,8380001,,,6,3
43,104,0.375,4,1,8380001,,,6,6
60,104,0.1875,0,1,8390000,,,6,3
60,104,0.375,1,0,8390000,,,6,6
53,104,0.6875,2,1,8390000,,,6,11
65,104,0.1875,3,1,8390000,,,6,3
60,104,0.9375,4,0,8390000,,,6,15
57,104,0.9375,5,1,8390000,,,6,15
65,104,0.9375,6,1,8390000,,,6,15
62,104,0.9375,0,1,8390001,,,6,15
57,104,0.25,1,1,8390001,,,6,4
48,104,0.3125,2,1,8390001,,,6,5
60,104,0.75,3,1,8390001,,,6,12
46,104,0.25,4,1,8390001,,,6,4
60,104,0.375,5,1,8390001,,,6,6
46,104,0.4375,6,1,8390001,,,6,7
53,104,0.25,7,1,8390001,,,6,4
46,104,0.1875,8,1,8390001,,,6,3
46,104,0.625,0,1,8390002,,,6,10
53,104,0.3125,0,1,8400000,,,6,5
53,104,0.1875,1,0,8400000,,,6,3
34,104,0.9375,2,1,8400000,,,6,15
34,104,0.375,3,1,8400000,,,6,6
34,104,0.3125,4,0,8400000,,,6,5
31,104,0.25,5,0,8400000,,,6,4
31,104,0.75,6,0,8400000,,,6,12
31,104,0.4375,7,1,8400000,,,6,7
31,104,0.375,8,0,8400000,,,6,6
51,104,0.9375,9,1,8400000,,,6,15
51,104,0.1875,0,1,8400001,,,6,3
29,104,0.3125,1,1,8400001,,,6,5
48,104,0.375,2,1,8400001,,,6,6
41,104,0.375,3,1,8400001,,,6,6
53,104,0.125,4,1,8400001,,,6,2
29,104,0.25,5,1,8400001,,,6,4
57,104,0.9375,0,1,8410000,,,6,15
52,104,0.3125,1,1,8410000,,,6,5
57,104,0.9375,2,0,8410000,,,6,15
50,104,0.5,3,1,8410000,,,6,8
59,104,0.6875,4,1,8410000,,,6,11
67,104,0.375,5,1,8410000,,,6,6
55,104,0.3125,6,1,8410000,,,6,5
62,104,0.25,0,1,8410001,,,6,4
64,104,0.5,1,0,8410001,,,6,8
64,104,0.5,2,0,8410001,,,6,8
67,104,0.125,3,0,8410001,,,6,2
48,104,0.25,4,1,8410001,,,6,4
55,104,0.3125,5,1,8410001,,,6,5
43,104,0.4375,6,1,8410001,,,6,7
71,104,0.5,7,1,8410001,,,6,8
55,104,0.1875,8,1,8410001,,,6,3
43,104,0.1875,9,1,8410001,,,6,3
62,104,0.25,10,1,8410001,,,6,4
69,104,0.25,11,1,8410001,,,6,4
71,104,0.25,12,0,8410001,,,6,4
74,104,0.375,0,1,8410002,,,6,6
63,104,0.25,0,1,8420000,,,6,4
56,104,0.25,1,1,8420000,,,6,4
44,104,0.75,2,1,8420000,,,6,12
63,104,0.5625,3,1,8420000,,,6,9
44,104,0.625,4,1,8420000,,,6,10
56,104,0.375,5,1,8420000,,,6,6
44,104,0.3125,6,1,8420000,,,6,5
55,104,0.1875,7,1,8420000,,,6,3
58,104,0.4375,8,0,8420000,,,6,7
58,104,0.1875,9,0,8420000,,,6,3
58,104,0.25,10,0,8420000,,,6,4
58,104,0.25,0,1,8420001,,,6,4
74,104,0.625,1,1,8420001,,,6,10
74,104,0.375,2,0,8420001,,,6,6
63,104,0.9375,3,1,8420001,,,6,15
59,104,0.1875,0,1,8430000,,,6,3
66,104,0.1875,1,1,8430000,,,6,3
35,104,0.5625,2,1,8430000,,,6,9
59,104,0.25,3,1,8430000,,,6,4
49,104,0.9375,4,1,8430000,,,6,15
64,104,0.3125,5,1,8430000,,,6,5
49,104,0.3125,6,1,8430000,,,6,5
64,104,0.1875,7,1,8430000,,,6,3
57,104,0.4375,8,1,8430000,,,6,7
57,104,0.3125,0,1,8440000,,,6,5
45,104,0.375,1,1,8440000,,,6,6
57,104,0.4375,2,1,8440000,,,6,7
45,104,0.5625,3,1,8440000,,,6,9
45,104,0.3125,4,0,8440000,,,6,5
64,104,0.5625,5,1,8440000,,,6,9
45,104,0.1875,6,1,8440000,,,6,3
59,104,0.4375,7,1,8440000,,,6,7
47,104,0.75,8,1,8440000,,,6,12
59,104,0.25,9,1,8440000,,,6,4
47,104,0.4375,0,1,8440001,,,6,7
59,104,0.25,1,1,8440001,,,6,4
47,104,0.75,2,1,8440001,,,6,12
35,104,0.4375,3,1,8440001,,,6,7
59,104,0.625,4,1,8440001,,,6,10
68,104,0.5,5,1,8440001,,,6,8
68,104,0.25,6,0,8440001,,,6,4
53,104,0.25,0,1,8450000,,,6,4
53,104,0.4375,1,0,8450000,,,6,7
53,104,0.3125,2,0,8450000,,,6,5
53,104,0.3125,3,0,8450000,,,6,5
53,104,0.375,4,0,8450000,,,6,6
65,104,0.375,5,1,8450000,,,6,6
53,104,0.75,6,1,8450000,,,6,12
34,104,0.9375,7,1,8450000,,,6,15
46,104,0.6875,8,1,8450000,,,6,11
53,104,0.6875,0,1,8450001,,,6,11
53,104,0.375,1,0,8450001,,,6,6
53,104,0.1875,2,0,8450001,,,6,3
53,104,0.1875,3,0,8450001,,,6,3
53,104,0.1875,4,0,8450001,,,6,3
53,104,0.25,5,0,8450001,,,6,4
29,104,0.5625,6,1,8450001,,,6,9
53,104,0.5,7,1,8450001,,,6,8
48,104,0.1875,8,0,8450001,,,6,3
53,104,0.25,9,0,8450001,,,6,4
58,104,0.3125,10,0,8450001,,,6,5
57,104,0.4375,0,1,8460000,,,6,7
57,104,0.9375,1,0,8460000,,,6,15
57,104,0.3125,2,1,8460000,,,6,5
33,104,0.375,3,1,8460000,,,6,6
50,104,0.3125,4,1,8460000,,,6,5
50,104,0.25,5,0,8460000,,,6,4
52,104,0.1875,6,0,8460000,,,6,3
52,104,0.9375,7,0,8460000,,,6,15
52,104,0.75,8,1,8460000,,,6,12
61,104,0.8125,0,1,8460001,,,6,13
61,104,0.25,1,1,8460001,,,6,4
49,104,0.4375,2,1,8460001,,,6,7
49,104,0.6875,3,0,8460001,,,6,11
56,104,0.1875,0,1,8470000,,,6,3
51,104,0.4375,1,0,8470000,,,6,7
58,104,0.25,2,1,8470000,,,6,4
58,104,0.125,3,0,8470000,,,6,2
58,104,0.1875,4,0,8470000,,,6,3
54,104,0.625,0,1,8480000,,,6,10
54,104,0.3125,1,0,8480000,,,6,5
51,104,0.9375,2,0,8480000,,,6,15
52,104,0.1875,3,1,8480000,,,6,3
59,104,0.1875,4,1,8480000,,,6,3
40,104,0.1875,5,1,8480000,,,6,3
52,104,0.5,6,1,8480000,,,6,8
54,104,0.375,7,0,8480000,,,6,6
47,104,0.1875,8,1,8480000,,,6,3
52,104,0.1875,9,0,8480000,,,6,3
40,104,0.3125,10,1,8480000,,,6,5
52,104,0.1875,0,1,8480001,,,6,3
40,104,0.125,1,1,8480001,,,6,2
40,104,0.3125,2,0,8480001,,,6,5
52,104,0.1875,3,1,8480001,,,6,3
57,104,0.375,4,0,8480001,,,6,6
52,104,0.3125,5,0,8480001,,,6,5
33,104,0.1875,6,1,8480001,,,6,3
45,104,0.4375,7,1,8480001,,,6,7
45,104,0.6875,8,0,8480001,,,6,11
45,104,0.1875,9,0,8480001,,,6,3
52,104,0.1875,10,1,8480001,,,6,3
52,104,0.375,11,0,8480001,,,6,6
33,104,0.0,12,1,8480001,,,6,0
69,104,0.3125,0,1,8490000,,,6,5
69,104,0.25,1,0,8490000,,,6,4
50,104,0.625,2,1,8490000,,,6,10
50,104,0.4375,3,0,8490000,,,6,7
62,104,0.25,4,1,8490000,,,6,4
50,104,0.5625,5,1,8490000,,,6,9
67,104,0.25,6,1,8490000,,,6,4
55,104,0.4375,7,1,8490000,,,6,7
62,104,0.1875,8,1,8490000,,,6,3
64,104,0.5,9,0,8490000,,,6,8
67,104,0.3125,10,0,8490000,,,6,5
47,104,0.1875,0,1,8490001,,,6,3
64,104,0.375,1,1,8490001,,,6,6
48,104,0.3125,2,1,8490001,,,6,5
64,104,0.25,3,1,8490001,,,6,4
64,104,0.25,4,0,8490001,,,6,4
55,104,0.125,5,1,8490001,,,6,2
43,104,0.375,6,1,8490001,,,6,6
43,104,0.1875,7,0,8490001,,,6,3
43,104,0.25,8,0,8490001,,,6,4
69,104,0.375,9,1,8490001,,,6,6
59,104,0.1875,10,1,8490001,,,6,3
74,104,0.375,11,1,8490001,,,6,6
69,104,0.8125,12,0,8490001,,,6,13
50,104,0.5,0,1,8490002,,,6,8
62,104,0.6875,1,1,8490002,,,6,11
38,104,0.5,0,1,8500000,,,6,8
38,104,0.375,1,0,8500000,,,6,6
38,104,0.375,2,0,8500000,,,6,6
38,104,0.5625,3,0,8500000,,,6,9
52,104,0.25,4,1,8500000,,,6,4
59,104,0.5,5,1,8500000,,,6,8
52,104,0.1875,6,1,8500000,,,6,3
52,104,0.4375,7,0,8500000,,,6,7
40,104,0.75,8,1,8500000,,,6,12
56,104,0.9375,9,1,8500000,,,6,15
61,104,0.875,0,1,8500001,,,6,14
42,104,0.8125,1,1,8500001,,,6,13
64,104,0.5,2,1,8500001,,,6,8
54,104,0.625,3,1,8500001,,,6,10
47,104,0.9375,4,1,8500001,,,6,15
38,104,0.4375,0,1,8500002,,,6,7
62,104,0.125,1,1,8500002,,,6,2
51,104,0.9375,0,1,8510000,,,6,15
51,104,0.9375,1,1,8510000,,,6,15
32,104,0.1875,2,1,8510000,,,6,3
51,104,0.9375,3,1,8510000,,,6,15
51,104,0.125,4,1,8510000,,,6,2
51,104,0.9375,5,0,8510000,,,6,15
63,104,0.5,0,1,8510001,,,6,8
51,104,0.25,1,1,8510001,,,6,4
27,104,0.6875,0,1,8520000,,,6,11
39,104,0.6875,1,1,8520000,,,6,11
41,104,0.1875,2,0,8520000,,,6,3
29,104,0.9375,3,1,8520000,,,6,15
41,104,0.375,4,1,8520000,,,6,6
53,104,0.1875,5,1,8520000,,,6,3
41,104,0.3125,6,1,8520000,,,6,5
43,104,0.1875,7,0,8520000,,,6,3
43,104,0.25,8,0,8520000,,,6,4
43,104,0.375,9,0,8520000,,,6,6
55,104,0.8125,0,1,8520001,,,6,13
24,104,0.3125,1,1,8520001,,,6,5
53,104,0.5625,2,1,8520001,,,6,9
29,104,0.75,3,1,8520001,,,6,12
53,104,0.25,4,1,8520001,,,6,4
53,104,0.25,5,0,8520001,,,6,4
41,104,0.5,6,1,8520001,,,6,8
53,104,0.3125,7,1,8520001,,,6,5
41,104,0.625,8,1,8520001,,,6,10
29,104,0.25,0,1,8520002,,,6,4
41,104,0.25,1,1,8520002,,,6,4
29,104,0.1875,2,1,8520002,,,6,3
53,104,0.1875,3,1,8520002,,,6,3
53,104,0.1875,4,0,8520002,,,6,3
41,104,0.3125,5,1,8520002,,,6,5
53,104,0.375,6,1,8520002,,,6,6
41,104,0.25,7,1,8520002,,,6,4
29,104,0.1875,8,1,8520002,,,6,3
53,104,0.1875,0,1,8530000,,,6,3
53,104,0.75,1,0,8530000,,,6,12
53,104,0.4375,2,1,8530000,,,6,7
41,104,0.125,3,1,8530000,,,6,2
53,104,0.4375,4,1,8530000,,,6,7
55,104,0.5,5,0,8530000,,,6,8
36,104,0.375,6,1,8530000,,,6,6
36,104,0.3125,7,0,8530000,,,6,5
55,104,0.3125,8,1,8530000,,,6,5
48,104,0.0,9,1,8530000,,,6,0
57,104,0.3125,0,1,8540000,,,6,5
33,104,0.6875,1,1,8540000,,,6,11
33,104,0.25,2,0,8540000,,,6,4
33,104,0.25,3,0,8540000,,,6,4
33,104,0.3125,4,0,8540000,,,6,5
52,104,0.125,5,1,8540000,,,6,2
33,104,0.125,6,1,8540000,,,6,2
42,104,0.125,7,1,8540000,,,6,2
42,104,0.625,8,0,8540000,,,6,10
61,104,0.4375,9,1,8540000,,,6,7
42,104,0.1875,10,1,8540000,,,6,3
61,104,0.9375,11,1,8540000,,,6,15
42,104,0.6875,0,1,8540001,,,6,11
61,104,0.75,1,1,8540001,,,6,12
61,104,0.5625,2,1,8540001,,,6,9
52,104,0.6875,3,1,8540001,,,6,11
52,104,0.875,4,0,8540001,,,6,14
52,104,0.4375,5,1,8540001,,,6,7
52,104,0.5625,0,1,8540002,,,6,9
59,104,0.5,1,1,8540002,,,6,8
59,104,0.25,2,0,8540002,,,6,4
65,104,0.25,0,1,8550000,,,6,4
51,104,0.9375,1,1,8550000,,,6,15
65,104,0.9375,2,1,8550000,,,6,15
53,104,0.9375,3,1,8550000,,,6,15
41,104,0.4375,4,1,8550000,,,6,7
60,104,0.1875,5,1,8550000,,,6,3
65,104,0.375,6,0,8550000,,,6,6
65,104,0.1875,0,1,8550001,,,6,3
58,104,0.9375,1,1,8550001,,,6,15
46,104,0.9375,2,1,8550001,,,6,15
60,104,0.25,3,1,8550001,,,6,4
60,104,0.25,4,0,8550001,,,6,4
60,104,0.75,5,0,8550001,,,6,12
55,104,0.9375,6,1,8550001,,,6,15
67,104,0.375,0,1,8560000,,,6,6
59,104,0.1875,1,1,8560000,,,6,3
59,104,0.3125,2,0,8560000,,,6,5
55,104,0.3125,3,0,8560000,,,6,5
55,104,0.3125,4,0,8560000,,,6,5
48,104,0.1875,5,1,8560000,,,6,3
48,104,0.4375,6,0,8560000,,,6,7
48,104,0.5,7,0,8560000,,,6,8
60,104,0.125,8,1,8560000,,,6,2
55,104,0.375,9,0,8560000,,,6,6
55,104,0.25,10,0,8560000,,,6,4
60,104,0.125,11,0,8560000,,,6,2
55,104,0.125,12,0,8560000,,,6,2
50,104,0.1875,13,0,8560000,,,6,3
50,104,0.625,14,0,8560000,,,6,10
43,104,0.6875,0,1,8560001,,,6,11
50,104,0.3125,1,1,8560001,,,6,5
55,104,0.375,2,0,8560001,,,6,6
57,104,0.3125,3,0,8560001,,,6,5
35,104,0.5,0,1,8570000,,,6,8
35,104,0.5625,1,0,8570000,,,6,9
47,104,0.9375,2,1,8570000,,,6,15
30,104,0.75,3,1,8570000,,,6,12
57,104,0.4375,4,1,8570000,,,6,7
54,104,0.3125,5,0,8570000,,,6,5
32,104,0.3125,6,1,8570000,,,6,5
44,104,0.1875,7,1,8570000,,,6,3
51,104,0.25,0,1,8570001,,,6,4
51,104,0.4375,1,0,8570001,,,6,7
44,104,0.5,2,1,8570001,,,6,8
51,104,0.25,3,1,8570001,,,6,4
51,104,0.25,4,0,8570001,,,6,4
49,104,0.8125,5,0,8570001,,,6,13
61,104,0.625,6,1,8570001,,,6,10
49,104,0.1875,7,1,8570001,,,6,3
68,104,0.1875,8,1,8570001,,,6,3
66,104,0.3125,9,0,8570001,,,6,5
64,104,0.3125,10,0,8570001,,,6,5
66,104,0.4375,0,1,8570002,,,6,7
47,104,0.4375,1,1,8570002,,,6,7
32,104,0.4375,0,1,8580000,,,6,7
60,104,0.375,1,1,8580000,,,6,6
60,104,0.3125,2,0,8580000,,,6,5
60,104,0.1875,3,0,8580000,,,6,3
54,104,0.125,4,0,8580000,,,6,2
60,104,0.1875,5,0,8580000,,,6,3
63,104,0.6875,6,0,8580000,,,6,11
51,104,0.1875,7,1,8580000,,,6,3
56,104,0.6875,8,0,8580000,,,6,11
56,104,0.25,9,0,8580000,,,6,4
51,104,0.1875,10,0,8580000,,,6,3
56,104,0.3125,11,0,8580000,,,6,5
51,104,0.4375,12,0,8580000,,,6,7
63,104,0.3125,0,1,8580001,,,6,5
51,104,0.25,1,1,8580001,,,6,4
34,104,0.25,2,1,8580001,,,6,4
34,104,0.1875,3,0,8580001,,,6,3
34,104,0.5625,4,0,8580001,,,6,9
65,104,0.3125,0,1,8590000,,,6,5
65,104,0.8125,1,0,8590000,,,6,13
53,104,0.1875,2,1,8590000,,,6,3
65,104,0.9375,3,1,8590000,,,6,15
53,104,0.1875,4,1,8590000,,,6,3
65,104,0.4375,5,1,8590000,,,6,7
65,104,0.1875,6,0,8590000,,,6,3
50,104,0.625,7,1,8590000,,,6,10
55,104,0.1875,8,0,8590000,,,6,3
55,104,0.625,9,0,8590000,,,6,10
62,104,0.25,0,1,8590001,,,6,4
50,104,0.1875,1,1,8590001,,,6,3
50,104,0.1875,2,0,8590001,,,6,3
62,104,0.3125,3,1,8590001,,,6,5
55,104,0.4375,4,1,8590001,,,6,7
62,104,0.5625,5,1,8590001,,,6,9
52,104,0.125,6,1,8590001,,,6,2
36,104,0.125,7,1,8590001,,,6,2
36,104,0.3125,8,0,8590001,,,6,5
33,104,0.3125,0,1,8600000,,,6,5
52,104,0.1875,1,1,8600000,,,6,3
61,104,0.3125,2,1,8600000,,,6,5
47,104,0.9375,3,1,8600000,,,6,15
62,104,0.25,4,1,8600000,,,6,4
56,104,0.6875,5,0,8600000,,,6,11
56,104,0.25,6,0,8600000,,,6,4
56,104,0.5,7,0,8600000,,,6,8
59,104,0.9375,8,0,8600000,,,6,15
59,104,0.1875,0,1,8600001,,,6,3
61,104,0.75,1,0,8600001,,,6,12
61,104,0.5,2,1,8600001,,,6,8
49,104,0.375,3,1,8600001,,,6,6
61,104,0.1875,4,1,8600001,,,6,3
57,104,0.1875,5,0,8600001,,,6,3
62,104,0.6875,6,0,8600001,,,6,11
64,104,0.4375,0,1,8610000,,,6,7
66,104,0.4375,1,0,8610000,,,6,7
71,104,0.3125,2,0,8610000,,,6,5
73,104,0.9375,3,0,8610000,,,6,15
71,104,0.9375,4,1,8610000,,,6,15
73,104,0.9375,5,1,8610000,,,6,15
71,104,0.875,0,1,8610001,,,6,14
69,104,0.875,1,1,8610001,,,6,14
69,104,0.9375,2,1,8610001,,,6,15
36,104,0.4375,0,1,8620000,,,6,7
36,104,0.25,1,0,8620000,,,6,4
53,104,0.1875,2,1,8620000,,,6,3
53,104,0.4375,3,0,8620000,,,6,7
53,104,0.5,4,0,8620000,,,6,8
53,104,0.4375,5,0,8620000,,,6,7
53,104,0.375,6,0,8620000,,,6,6
57,104,0.1875,7,0,8620000,,,6,3
29,104,0.1875,8,1,8620000,,,6,3
29,104,0.25,9,0,8620000,,,6,4
41,104,0.3125,10,1,8620000,,,6,5
60,104,0.3125,11,1,8620000,,,6,5
60,104,0.3125,12,0,8620000,,,6,5
41,104,0.25,0,1,8620001,,,6,4
60,104,0.625,1,1,8620001,,,6,10
53,104,0.5,2,1,8620001,,,6,8
60,104,0.375,3,1,8620001,,,6,6
41,104,0.9375,4,1,8620001,,,6,15
60,104,0.4375,5,1,8620001,,,6,7
60,104,0.3125,6,0,8620001,,,6,5
60,104,0.1875,7,0,8620001,,,6,3
60,104,0.1875,8,0,8620001,,,6,3
49,104,0.5625,0,1,8630000,,,6,9
49,104,0.4375,1,0,8630000,,,6,7
49,104,0.625,2,0,8630000,,,6,10
61,104,0.25,3,1,8630000,,,6,4
49,104,0.125,4,1,8630000,,,6,2
61,104,0.25,5,1,8630000,,,6,4
49,104,0.5625,6,1,8630000,,,6,9
49,104,0.1875,7,0,8630000,,,6,3
52,104,0.1875,8,0,8630000,,,6,3
45,104,0.25,9,1,8630000,,,6,4
64,104,0.6875,10,1,8630000,,,6,11
59,104,0.125,0,1,8630001,,,6,2
59,104,0.3125,1,0,8630001,,,6,5
47,104,0.25,2,1,8630001,,,6,4
35,104,0.1875,3,1,8630001,,,6,3
47,104,0.1875,4,1,8630001,,,6,3
47,104,0.3125,5,0,8630001,,,6,5
59,104,0.0625,6,1,8630001,,,6,1
46,104,0.4375,0,1,8640000,,,6,7
53,104,0.5,1,1,8640000,,,6,8
62,104,0.25,2,1,8640000,,,6,4
43,104,0.125,3,1,8640000,,,6,2
34,104,0.25,4,1,8640000,,,6,4
46,104,0.9375,5,1,8640000,,,6,15
46,104,0.5,6,1,8640000,,,6,8
60,104,0.9375,7,1,8640000,,,6,15
48,104,0.8125,8,1,8640000,,,6,13
48,104,0.375,0,1,8640001,,,6,6
48,104,0.625,1,0,8640001,,,6,10
24,104,0.3125,2,1,8640001,,,6,5
48,104,0.9375,3,1,8640001,,,6,15
60,104,0.25,4,1,8640001,,,6,4
58,104,0.3125,5,0,8640001,,,6,5
54,104,0.1875,0,1,8650000,,,6,3
50,104,0.6875,1,0,8650000,,,6,11
50,104,0.4375,2,0,8650000,,,6,7
62,104,0.1875,3,1,8650000,,,6,3
62,104,0.1875,4,0,8650000,,,6,3
57,104,0.375,5,0,8650000,,,6,6
52,104,0.9375,6,0,8650000,,,6,15
52,104,0.625,7,1,8650000,,,6,10
52,104,0.8125,8,0,8650000,,,6,13
52,104,0.4375,0,1,8650001,,,6,7
52,104,0.25,1,0,8650001,,,6,4
64,104,0.3125,2,1,8650001,,,6,5
43,104,0.8125,3,1,8650001,,,6,13
55,104,0.625,0,1,8660000,,,6,10
46,104,0.6875,1,1,8660000,,,6,11
34,104,0.3125,2,1,8660000,,,6,5
34,104,0.3125,3,0,8660000,,,6,5
46,104,0.3125,4,1,8660000,,,6,5
34,104,0.5625,5,1,8660000,,,6,9
46,104,0.8125,6,1,8660000,,,6,13
53,104,0.875,7,1,8660000,,,6,14
29,104,0.25,0,1,8660001,,,6,4
53,104,0.375,1,1,8660001,,,6,6
31,104,0.3125,2,1,8660001,,,6,5
31,104,0.1875,3,0,8660001,,,6,3
70,104,0.375,4,1,8660001,,,6,6
72,104,0.375,5,0,8660001,,,6,6
58,104,0.1875,0,1,8670000,,,6,3
63,104,0.875,1,0,8670000,,,6,14
53,104,0.9375,2,1,8670000,,,6,15
63,104,0.25,3,1,8670000,,,6,4
44,104,0.1875,4,1,8670000,,,6,3
56,104,0.4375,5,1,8670000,,,6,7
58,104,0.5625,6,0,8670000,,,6,9
58,104,0.25,7,0,8670000,,,6,4
53,104,0.5625,8,0,8670000,,,6,9
68,104,0.5,0,1,8670001,,,6,8
68,104,0.75,1,0,8670001,,,6,12
53,104,0.25,0,1,8680000,,,6,4
53,104,0.375,1,0,8680000,,,6,6
57,104,0.75,2,0,8680000,,,6,12
53,104,0.4375,3,1,8680000,,,6,7
48,104,0.3125,4,0,8680000,,,6,5
53,104,0.3125,5,0,8680000,,,6,5
48,104,0.375,6,0,8680000,,,6,6
53,104,0.375,7,0,8680000,,,6,6
64,104,0.375,8,1,8680000,,,6,6
53,104,0.6875,9,1,8680000,,,6,11
53,104,0.25,0,1,8680001,,,6,4
53,104,0.9375,1,0,8680001,,,6,15
55,104,0.375,2,1,8680001,,,6,6
50,104,0.625,3,0,8680001,,,6,10
50,104,0.375,4,0,8680001,,,6,6
50,104,0.4375,5,0,8680001,,,6,7
50,104,0.25,6,0,8680001,,,6,4
50,104,0.1875,7,0,8680001,,,6,3
50,104,0.1875,8,0,8680001,,,6,3
64,104,0.9375,9,1,8680001,,,6,15
51,104,0.3125,0,1,8690000,,,6,5
63,104,0.5,1,1,8690000,,,6,8
51,104,0.125,2,1,8690000,,,6,2
51,104,0.4375,3,0,8690000,,,6,7
51,104,0.1875,4,0,8690000,,,6,3
56,104,0.375,5,0,8690000,,,6,6
56,104,0.125,6,0,8690000,,,6,2
56,104,0.5,7,0,8690000,,,6,8
42,104,0.875,8,1,8690000,,,6,14
30,104,0.4375,9,1,8690000,,,6,7
42,104,0.3125,10,1,8690000,,,6,5
30,104,0.5625,0,1,8690001,,,6,9
49,104,0.9375,1,1,8690001,,,6,15
37,104,0.5,2,1,8690001,,,6,8
37,104,0.625,3,0,8690001,,,6,10
44,104,0.4375,4,1,8690001,,,6,7
32,104,0.125,5,1,8690001,,,6,2
32,104,0.0625,6,0,8690001,,,6,1
70,104,0.125,0,1,8700000,,,6,2
70,104,0.3125,1,0,8700000,,,6,5
70,104,0.75,2,0,8700000,,,6,12
46,104,0.1875,3,1,8700000,,,6,3
46,104,0.3125,4,0,8700000,,,6,5
62,104,0.25,5,1,8700000,,,6,4
62,104,0.3125,6,0,8700000,,,6,5
51,104,0.375,7,1,8700000,,,6,6
51,104,0.6875,8,0,8700000,,,6,11
63,104,0.625,9,1,8700000,,,6,10
70,104,0.375,10,1,8700000,,,6,6
51,104,0.625,0,1,8700001,,,6,10
51,104,0.9375,1,0,8700001,,,6,15
70,104,0.8125,2,1,8700001,,,6,13
58,104,0.375,3,1,8700001,,,6,6
70,104,0.8125,4,1,8700001,,,6,13
70,104,0.1875,5,1,8700001,,,6,3
58,104,0.5,0,1,8700002,,,6,8
54,104,0.5625,0,1,8710000,,,6,9
54,104,0.375,1,0,8710000,,,6,6
66,104,0.1875,2,1,8710000,,,6,3
44,104,0.1875,3,1,8710000,,,6,3
44,104,0.5,4,0,8710000,,,6,8
38,104,0.9375,5,0,8710000,,,6,15
62,104,0.5,6,1,8710000,,,6,8
50,104,0.25,7,1,8710000,,,6,4
52,104,0.4375,8,0,8710000,,,6,7
52,104,0.1875,9,0,8710000,,,6,3
52,104,0.625,0,1,8710001,,,6,10
52,104,0.875,1,0,8710001,,,6,14
40,104,0.625,2,1,8710001,,,6,10
53,104,0.9375,3,1,8710001,,,6,15
49,104,0.9375,4,1,8710001,,,6,15
54,104,0.625,0,1,8710002,,,6,10
61,104,0.3125,1,1,8710002,,,6,5
42,104,0.75,2,1,8710002,,,6,12
31,104,0.6875,0,1,8720000,,,6,11
50,104,0.8125,1,1,8720000,,,6,13
31,104,0.875,2,1,8720000,,,6,14
43,104,0.375,3,1,8720000,,,6,6
52,104,0.9375,4,1,8720000,,,6,15
52,104,0.75,5,1,8720000,,,6,12
52,104,0.9375,0,1,8720001,,,6,15
52,104,0.4375,1,1,8720001,,,6,7
52,104,0.9375,2,0,8720001,,,6,15
52,104,0.25,3,1,8720001,,,6,4
38,104,0.1875,4,1,8720001,,,6,3
38,104,0.25,5,0,8720001,,,6,4
50,104,0.4375,6,1,8720001,,,6,7
53,104,0.25,0,1,8730000,,,6,4
65,104,0.25,1,1,8730000,,,6,4
53,104,0.1875,2,1,8730000,,,6,3
29,104,0.4375,3,1,8730000,,,6,7
53,104,0.375,4,1,8730000,,,6,6
41,104,0.25,5,1,8730000,,,6,4
53,104,0.25,6,1,8730000,,,6,4
53,104,0.4375,7,0,8730000,,,6,7
60,104,0.3125,8,1,8730000,,,6,5
36,104,0.3125,9,1,8730000,,,6,5
24,104,0.3125,10,1,8730000,,,6,5
36,104,0.125,11,1,8730000,,,6,2
60,104,0.3125,12,1,8730000,,,6,5
50,104,0.1875,13,1,8730000,,,6,3
31,104,0.3125,0,1,8730001,,,6,5
50,104,0.3125,1,1,8730001,,,6,5
31,104,0.6875,2,1,8730001,,,6,11
60,104,0.4375,3,1,8730001,,,6,7
58,104,0.1875,4,0,8730001,,,6,3
46,104,0.3125,0,1,8740000,,,6,5
46,104,0.4375,1,0,8740000,,,6,7
34,104,0.5625,2,1,8740000,,,6,9
46,104,0.1875,3,1,8740000,,,6,3
43,104,0.3125,4,0,8740000,,,6,5
43,104,0.25,5,0,8740000,,,6,4
31,104,0.9375,6,1,8740000,,,6,15
31,104,0.125,7,1,8740000,,,6,2
31,104,0.9375,8,0,8740000,,,6,15
31,104,0.4375,0,1,8740001,,,6,7
31,104,0.1875,1,0,8740001,,,6,3
31,104,0.1875,2,0,8740001,,,6,3
31,104,0.1875,3,0,8740001,,,6,3
43,104,0.9375,4,1,8740001,,,6,15
62,104,0.25,5,1,8740001,,,6,4
50,104,0.9375,6,1,8740001,,,6,15
50,104,0.1875,7,1,8740001,,,6,3
38,104,0.6875,8,1,8740001,,,6,11
69,104,0.375,0,1,8740002,,,6,6
59,104,0.3125,0,1,8750000,,,6,5
63,104,0.9375,1,0,8750000,,,6,15
51,104,0.75,2,1,8750000,,,6,12
51,104,0.125,3,1,8750000,,,6,2
49,104,0.9375,4,0,8750000,,,6,15
56,104,0.9375,5,1,8750000,,,6,15
56,104,0.4375,0,1,8750001,,,6,7
37,104,0.375,1,1,8750001,,,6,6
54,104,0.1875,2,1,8750001,,,6,3
59,104,0.8125,3,0,8750001,,,6,13
52,104,0.9375,4,1,8750001,,,6,15
57,104,0.4375,5,1,8750001,,,6,7
55,104,0.375,0,1,8760000,,,6,6
62,104,0.125,1,1,8760000,,,6,2
43,104,0.125,2,1,8760000,,,6,2
55,104,0.6875,3,1,8760000,,,6,11
57,104,0.375,4,0,8760000,,,6,6
57,104,0.9375,5,0,8760000,,,6,15
57,104,0.875,6,1,8760000,,,6,14
57,104,0.9375,7,1,8760000,,,6,15
38,104,0.1875,0,1,8760001,,,6,3
57,104,0.875,1,1,8760001,,,6,14
57,104,0.3125,2,1,8760001,,,6,5
55,104,0.5625,3,0,8760001,,,6,9
55,104,0.5625,4,0,8760001,,,6,9
52,104,0.125,5,0,8760001,,,6,2
52,104,0.4375,6,0,8760001,,,6,7
55,104,0.3125,7,0,8760001,,,6,5
55,104,0.125,8,0,8760001,,,6,2
40,104,0.4375,0,1,8770000,,,6,7
52,104,0.75,1,1,8770000,,,6,12
59,104,0.1875,2,1,8770000,,,6,3
59,104,0.1875,3,0,8770000,,,6,3
59,104,0.1875,4,0,8770000,,,6,3
47,104,0.375,5,1,8770000,,,6,6
47,104,0.25,6,0,8770000,,,6,4
59,104,0.125,7,1,8770000,,,6,2
47,104,0.5625,8,1,8770000,,,6,9
52,104,0.9375,9,0,8770000,,,6,15
40,104,0.3125,0,1,8770001,,,6,5
52,104,0.8125,1,1,8770001,,,6,13
52,104,0.375,2,1,8770001,,,6,6
49,104,0.8125,3,0,8770001,,,6,13
64,104,0.3125,4,1,8770001,,,6,5
61,104,0.5625,5,0,8770001,,,6,9
45,104,0.4375,6,1,8770001,,,6,7
45,104,0.1875,7,0,8770001,,,6,3
33,104,0.1875,8,1,8770001,,,6,3
61,104,0.125,0,1,8770002,,,6,2
71,104,0.1875,1,1,8770002,,,6,3
33,104,0.25,2,1,8770002,,,6,4
57,104,0.9375,0,1,8780000,,,6,15
40,104,0.25,1,1,8780000,,,6,4
40,104,0.1875,2,0,8780000,,,6,3
52,104,0.9375,3,1,8780000,,,6,15
57,104,0.1875,4,1,8780000,,,6,3
52,104,0.9375,5,0,8780000,,,6,15
52,104,0.3125,6,1,8780000,,,6,5
64,104,0.4375,7,1,8780000,,,6,7
52,104,0.1875,0,1,8780001,,,6,3
64,104,0.25,1,1,8780001,,,6,4
52,104,0.5625,2,1,8780001,,,6,9
40,104,0.9375,3,1,8780001,,,6,15
52,104,0.8125,4,1,8780001,,,6,13
52,104,0.9375,5,1,8780001,,,6,15
40,104,0.1875,6,1,8780001,,,6,3
64,104,0.1875,0,1,8780002,,,6,3
54,104,0.3125,0,1,8790000,,,6,5
61,104,0.375,1,1,8790000,,,6,6
63,104,0.5,2,0,8790000,,,6,8
56,104,0.375,3,1,8790000,,,6,6
63,104,0.1875,4,1,8790000,,,6,3
59,104,0.25,5,0,8790000,,,6,4
63,104,0.8125,6,0,8790000,,,6,13
63,104,0.875,7,1,8790000,,,6,14
63,104,0.625,8,1,8790000,,,6,10
49,104,0.8125,0,1,8790001,,,6,13
49,104,0.4375,1,1,8790001,,,6,7
49,104,0.125,2,0,8790001,,,6,2
49,104,0.5625,3,0,8790001,,,6,9
52,104,0.5,4,0,8790001,,,6,8
61,104,0.3125,5,1,8790001,,,6,5
53,104,0.3125,0,1,8800000,,,6,5
29,104,0.3125,1,1,8800000,,,6,5
57,104,0.5625,2,1,8800000,,,6,9
65,104,0.1875,3,1,8800000,,,6,3
53,104,0.4375,4,1,8800000,,,6,7
53,104,0.5,5,0,8800000,,,6,8
57,104,0.3125,6,0,8800000,,,6,5
53,104,0.375,7,0,8800000,,,6,6
53,104,0.5,8,0,8800000,,,6,8
53,104,0.375,9,0,8800000,,,6,6
57,104,0.5,10,0,8800000,,,6,8
53,104,0.5625,0,1,8800001,,,6,9
57,104,0.3125,1,0,8800001,,,6,5
53,104,0.3125,2,0,8800001,,,6,5
53,104,0.9375,3,0,8800001,,,6,15
53,104,0.3125,4,1,8800001,,,6,5
65,104,0.25,5,1,8800001,,,6,4
53,104,0.125,6,1,8800001,,,6,2
50,104,0.4375,0,1,8810000,,,6,7
38,104,0.25,1,1,8810000,,,6,4
57,104,0.25,2,1,8810000,,,6,4
50,104,0.1875,3,1,8810000,,,6,3
50,104,0.5,4,0,8810000,,,6,8
38,104,0.25,5,1,8810000,,,6,4
57,104,0.375,6,1,8810000,,,6,6
66,104,0.5,7,1,8810000,,,6,8
38,104,0.5,8,1,8810000,,,6,8
52,104,0.6875,9,1,8810000,,,6,11
40,104,0.1875,10,1,8810000,,,6,3
52,104,0.375,0,1,8810001,,,6,6
52,104,0.1875,1,0,8810001,,,6,3
56,104,0.25,2,0,8810001,,,6,4
52,104,0.25,3,0,8810001,,,6,4
52,104,0.1875,4,0,8810001,,,6,3
64,104,0.3125,5,1,8810001,,,6,5
52,104,0.625,6,1,8810001,,,6,10
40,104,0.1875,0,1,8820000,,,6,3
40,104,0.25,1,0,8820000,,,6,4
40,104,0.25,2,0,8820000,,,6,4
52,104,0.625,3,1,8820000,,,6,10
57,104,0.3125,4,0,8820000,,,6,5
66,104,0.25,5,1,8820000,,,6,4
38,104,0.625,6,1,8820000,,,6,10
55,104,0.1875,7,1,8820000,,,6,3
55,104,0.1875,8,0,8820000,,,6,3
56,104,0.1875,9,0,8820000,,,6,3
52,104,0.625,10,0,8820000,,,6,10
59,104,0.5,11,1,8820000,,,6,8
40,104,0.4375,0,1,8820001,,,6,7
64,104,0.25,1,1,8820001,,,6,4
59,104,0.1875,2,0,8820001,,,6,3
47,104,0.625,3,1,8820001,,,6,10
65,104,0.6875,4,1,8820001,,,6,11
65,104,0.4375,5,0,8820001,,,6,7
30,104,0.1875,6,1,8820001,,,6,3
57,104,0.625,7,1,8820001,,,6,10
38,104,0.5625,0,1,8830000,,,6,9
50,104,0.4375,1,1,8830000,,,6,7
62,104,0.1875,2,1,8830000,,,6,3
62,104,0.125,3,0,8830000,,,6,2
38,104,0.3125,4,1,8830000,,,6,5
57,104,0.4375,5,1,8830000,,,6,7
56,104,0.375,6,0,8830000,,,6,6
59,104,0.3125,7,0,8830000,,,6,5
56,104,0.5625,8,0,8830000,,,6,9
57,104,0.5,9,0,8830000,,,6,8
57,104,0.375,10,0,8830000,,,6,6
33,104,0.3125,0,1,8830001,,,6,5
33,104,0.1875,1,0,8830001,,,6,3
45,104,0.375,2,1,8830001,,,6,6
64,104,0.1875,3,1,8830001,,,6,3
45,104,0.375,4,1,8830001,,,6,6
57,104,0.9375,5,1,8830001,,,6,15
57,104,0.75,6,1,8830001,,,6,12
50,104,0.8125,7,1,8830001,,,6,13
66,104,0.3125,0,1,8840000,,,6,5
49,104,0.6875,1,1,8840000,,,6,11
49,104,0.25,2,0,8840000,,,6,4
54,104,0.625,3,0,8840000,,,6,10
54,104,0.1875,4,0,8840000,,,6,3
54,104,0.625,5,0,8840000,,,6,10
54,104,0.25,6,0,8840000,,,6,4
54,104,0.4375,7,0,8840000,,,6,7
54,104,0.25,8,0,8840000,,,6,4
54,104,0.9375,9,0,8840000,,,6,15
54,104,0.5625,0,1,8840001,,,6,9
54,104,0.1875,1,0,8840001,,,6,3
54,104,0.25,2,0,8840001,,,6,4
59,104,0.9375,3,0,8840001,,,6,15
54,104,0.1875,4,1,8840001,,,6,3
59,104,0.9375,5,0,8840001,,,6,15
59,104,0.1875,6,1,8840001,,,6,3
35,104,0.1875,7,1,8840001,,,6,3
54,104,0.25,0,1,8840002,,,6,4
35,104,0.1875,1,1,8840002,,,6,3
47,104,0.4375,2,1,8840002,,,6,7
47,104,0.1875,3,0,8840002,,,6,3
55,104,0.1875,0,1,8850000,,,6,3
51,104,0.3125,1,0,8850000,,,6,5
53,104,0.1875,2,0,8850000,,,6,3
48,104,0.6875,3,0,8850000,,,6,11
51,104,0.1875,4,0,8850000,,,6,3
53,104,0.5625,5,0,8850000,,,6,9
53,104,0.3125,6,0,8850000,,,6,5
53,104,0.1875,7,0,8850000,,,6,3
51,104,0.25,8,0,8850000,,,6,4
51,104,0.3125,9,0,8850000,,,6,5
51,104,0.3125,10,0,8850000,,,6,5
55,104,0.3125,11,0,8850000,,,6,5
55,104,0.0625,12,0,8850000,,,6,1
24,104,0.375,0,1,8860000,,,6,6
36,104,0.625,1,1,8860000,,,6,10
57,104,0.625,2,1,8860000,,,6,10
29,104,0.5,3,1,8860000,,,6,8
41,104,0.25,4,1,8860000,,,6,4
41,104,0.375,5,0,8860000,,,6,6
29,104,0.1875,6,1,8860000,,,6,3
53,104,0.3125,7,1,8860000,,,6,5
29,104,0.875,8,1,8860000,,,6,14
53,104,0.3125,0,1,8860001,,,6,5
53,104,0.3125,1,0,8860001,,,6,5
41,104,0.3125,2,1,8860001,,,6,5
53,104,0.1875,3,1,8860001,,,6,3
57,104,0.5,4,0,8860001,,,6,8
34,104,0.9375,5,1,8860001,,,6,15
34,104,0.375,6,1,8860001,,,6,6
62,104,0.1875,0,1,8870000,,,6,3
57,104,0.25,1,0,8870000,,,6,4
55,104,0.3125,2,0,8870000,,,6,5
55,104,0.1875,3,0,8870000,,,6,3
59,104,0.1875,4,0,8870000,,,6,3
57,104,0.375,5,0,8870000,,,6,6
48,104,0.6875,6,1,8870000,,,6,11
60,104,0.5,7,1,8870000,,,6,8
60,104,0.375,8,0,8870000,,,6,6
59,104,0.25,9,0,8870000,,,6,4
50,104,0.1875,10,1,8870000,,,6,3
38,104,0.1875,11,1,8870000,,,6,3
38,104,0.5625,12,0,8870000,,,6,9
38,104,0.625,0,1,8870001,,,6,10
65,104,0.1875,1,1,8870001,,,6,3
47,104,0.6875,2,1,8870001,,,6,11
47,104,0.5625,3,0,8870001,,,6,9
47,104,0.625,4,0,8870001,,,6,10
62,104,0.375,5,1,8870001,,,6,6
52,104,0.5,6,1,8870001,,,6,8
52,104,0.3125,7,0,8870001,,,6,5
59,104,0.1875,0,1,8870002,,,6,3
53,104,0.1875,0,1,8880000,,,6,3
29,104,0.25,1,1,8880000,,,6,4
29,104,0.25,2,0,8880000,,,6,4
29,104,0.1875,3,0,8880000,,,6,3
29,104,0.1875,4,0,8880000,,,6,3
53,104,0.1875,5,1,8880000,,,6,3
53,104,0.4375,6,0,8880000,,,6,7
34,104,0.3125,7,1,8880000,,,6,5
63,104,0.1875,8,1,8880000,,,6,3
46,104,0.375,9,1,8880000,,,6,6
34,104,0.125,10,1,8880000,,,6,2
53,104,0.375,11,1,8880000,,,6,6
53,104,0.25,12,0,8880000,,,6,4
53,104,0.1875,13,0,8880000,,,6,3
53,104,0.3125,14,0,8880000,,,6,5
34,104,0.375,15,1,8880000,,,6,6
24,104,0.1875,0,1,8890000,,,6,3
60,104,0.3125,1,1,8890000,,,6,5
36,104,0.25,2,1,8890000,,,6,4
31,104,0.0625,3,0,8890000,,,6,1
57,104,0.125,0,1,8900000,,,6,2
33,104,0.8125,1,1,8900000,,,6,13
33,104,0.1875,2,1,8900000,,,6,3
33,104,0.1875,3,0,8900000,,,6,3
57,104,0.9375,4,1,8900000,,,6,15
33,104,0.4375,5,1,8900000,,,6,7
33,104,0.875,6,0,8900000,,,6,14
57,104,0.375,7,1,8900000,,,6,6
57,104,0.75,8,0,8900000,,,6,12
57,104,0.8125,0,1,8900001,,,6,13
54,104,0.9375,1,1,8900001,,,6,15
57,104,0.4375,2,1,8900001,,,6,7
42,104,0.3125,3,1,8900001,,,6,5
54,104,0.625,4,1,8900001,,,6,10
54,104,0.125,5,0,8900001,,,6,2
57,104,0.6875,6,0,8900001,,,6,11
61,104,0.25,0,1,8900002,,,6,4
54,104,0.8125,1,1,8900002,,,6,13
60,104,0.9375,0,1,8910000,,,6,15
57,104,0.5625,1,1,8910000,,,6,9
53,104,0.375,2,0,8910000,,,6,6
31,104,0.6875,3,1,8910000,,,6,11
60,104,0.9375,4,1,8910000,,,6,15
59,104,0.25,5,1,8910000,,,6,4
59,104,0.1875,6,0,8910000,,,6,3
60,104,0.9375,7,0,8910000,,,6,15
55,104,0.9375,0,1,8910001,,,6,15
60,104,0.8125,1,1,8910001,,,6,13
55,104,0.9375,2,1,8910001,,,6,15
57,104,0.3125,3,1,8910001,,,6,5
29,104,0.5,4,1,8910001,,,6,8
60,104,0.5625,0,1,8910002,,,6,9
57,104,0.25,1,0,8910002,,,6,4
60,104,0.1875,2,0,8910002,,,6,3
57,104,0.1875,3,0,8910002,,,6,3
52,104,0.3125,0,1,8920000,,,6,5
52,104,0.125,1,0,8920000,,,6,2
54,104,0.1875,2,0,8920000,,,6,3
54,104,0.1875,3,0,8920000,,,6,3
47,104,0.1875,4,1,8920000,,,6,3
54,104,0.1875,5,1,8920000,,,6,3
52,104,0.3125,6,0,8920000,,,6,5
52,104,0.25,7,0,8920000,,,6,4
52,104,0.9375,8,0,8920000,,,6,15
49,104,0.3125,9,1,8920000,,,6,5
49,104,0.5,10,0,8920000,,,6,8
52,104,0.25,11,0,8920000,,,6,4
52,104,0.9375,12,0,8920000,,,6,15
52,104,0.125,0,1,8920001,,,6,2
52,104,0.3125,1,0,8920001,,,6,5
64,104,0.9375,0,1,8930000,,,6,15
64,104,0.25,1,1,8930000,,,6,4
64,104,0.3125,2,0,8930000,,,6,5
64,104,0.1875,3,0,8930000,,,6,3
64,104,0.3125,4,0,8930000,,,6,5
64,104,0.1875,5,0,8930000,,,6,3
64,104,0.5,6,0,8930000,,,6,8
64,104,0.375,7,0,8930000,,,6,6
64,104,0.5,8,0,8930000,,,6,8
59,104,0.1875,9,0,8930000,,,6,3
52,104,0.5,10,1,8930000,,,6,8
52,104,0.1875,0,1,8930001,,,6,3
59,104,0.3125,1,1,8930001,,,6,5
59,104,0.1875,2,0,8930001,,,6,3
47,104,0.5,3,1,8930001,,,6,8
35,104,0.4375,4,1,8930001,,,6,7
35,104,0.5625,5,0,8930001,,,6,9
47,104,0.375,6,1,8930001,,,6,6
47,104,0.5,7,0,8930001,,,6,8
68,104,0.3125,0,1,8940000,,,6,5
44,104,0.375,1,1,8940000,,,6,6
54,104,0.3125,2,1,8940000,,,6,5
49,104,0.375,3,0,8940000,,,6,6
61,104,0.3125,4,1,8940000,,,6,5
53,104,0.125,5,1,8940000,,,6,2
61,104,0.6875,6,1,8940000,,,6,11
49,104,0.375,7,1,8940000,,,6,6
61,104,0.125,8,1,8940000,,,6,2
61,104,0.5625,9,0,8940000,,,6,9
61,104,0.25,10,0,8940000,,,6,4
63,104,0.1875,11,0,8940000,,,6,3
51,104,0.25,0,1,8940001,,,6,4
32,104,0.375,1,1,8940001,,,6,6
56,104,0.25,2,1,8940001,,,6,4
56,104,0.4375,3,0,8940001,,,6,7
44,104,0.1875,4,1,8940001,,,6,3
56,104,0.25,5,1,8940001,,,6,4
56,104,0.1875,6,0,8940001,,,6,3
56,104,0.1875,7,0,8940001,,,6,3
61,104,0.25,8,0,8940001,,,6,4
53,104,0.6875,0,1,8950000,,,6,11
53,104,0.375,1,0,8950000,,,6,6
42,104,0.375,2,1,8950000,,,6,6
54,104,0.3125,3,1,8950000,,,6,5
54,104,0.1875,4,0,8950000,,,6,3
54,104,0.4375,5,0,8950000,,,6,7
49,104,0.9375,6,0,8950000,,,6,15
56,104,0.9375,7,1,8950000,,,6,15
44,104,0.6875,0,1,8950001,,,6,11
44,104,0.25,1,0,8950001,,,6,4
56,104,0.3125,2,1,8950001,,,6,5
44,104,0.3125,3,1,8950001,,,6,5
32,104,0.25,4,1,8950001,,,6,4
44,104,0.9375,5,1,8950001,,,6,15
30,104,0.1875,6,1,8950001,,,6,3
31,104,0.625,0,1,8960000,,,6,10
62,104,0.125,1,1,8960000,,,6,2
62,104,0.125,2,0,8960000,,,6,2
43,104,0.5625,3,1,8960000,,,6,9
62,104,0.1875,4,1,8960000,,,6,3
50,104,0.1875,5,1,8960000,,,6,3
48,104,0.625,6,0,8960000,,,6,10
36,104,0.375,7,1,8960000,,,6,6
36,104,0.6875,8,0,8960000,,,6,11
48,104,0.5,9,1,8960000,,,6,8
38,104,0.3125,0,1,8960001,,,6,5
43,104,0.9375,1,0,8960001,,,6,15
43,104,0.6875,2,1,8960001,,,6,11
31,104,0.75,3,1,8960001,,,6,12
31,104,0.1875,4,1,8960001,,,6,3
57,104,0.375,0,1,8970000,,,6,6
57,104,0.625,1,0,8970000,,,6,10
61,104,0.9375,2,0,8970000,,,6,15
57,104,0.1875,3,1,8970000,,,6,3
62,104,0.1875,4,0,8970000,,,6,3
47,104,0.5,5,1,8970000,,,6,8
47,104,0.1875,6,0,8970000,,,6,3
47,104,0.125,7,0,8970000,,,6,2
57,104,0.5,8,1,8970000,,,6,8
62,104,0.8125,9,0,8970000,,,6,13
50,104,0.1875,0,1,8970001,,,6,3
40,104,0.75,1,1,8970001,,,6,12
59,104,0.375,2,1,8970001,,,6,6
40,104,0.1875,3,1,8970001,,,6,3
64,104,0.375,4,1,8970001,,,6,6
33,104,0.1875,5,1,8970001,,,6,3
33,104,0.1875,6,0,8970001,,,6,3
45,104,0.5625,7,1,8970001,,,6,9
45,104,0.3125,8,0,8970001,,,6,5
64,104,0.25,9,1,8970001,,,6,4
33,104,0.1875,10,1,8970001,,,6,3
33,104,0.125,0,1,8970002,,,6,2
33,104,0.75,1,0,8970002,,,6,12
61,104,0.0625,2,1,8970002,,,6,1
48,104,0.625,0,1,8980000,,,6,10
36,104,0.375,1,1,8980000,,,6,6
48,104,0.125,2,1,8980000,,,6,2
48,104,0.125,3,0,8980000,,,6,2
48,104,0.1875,4,0,8980000,,,6,3
58,104,0.5,5,1,8980000,,,6,8
58,104,0.25,6,0,8980000,,,6,4
34,104,0.25,7,1,8980000,,,6,4
46,104,0.375,8,1,8980000,,,6,6
46,104,0.3125,9,0,8980000,,,6,5
58,104,0.75,10,1,8980000,,,6,12
58,104,0.9375,11,1,8980000,,,6,15
56,104,0.8125,0,1,8980001,,,6,13
56,104,0.25,1,1,8980001,,,6,4
44,104,0.1875,2,1,8980001,,,6,3
62,104,0.5,3,1,8980001,,,6,8
39,104,0.1875,0,1,8990000,,,6,3
39,104,0.5625,1,0,8990000,,,6,9
51,104,0.125,2,1,8990000,,,6,2
58,104,0.75,3,1,8990000,,,6,12
58,104,0.9375,4,1,8990000,,,6,15
58,104,0.875,5,1,8990000,,,6,14
58,104,0.5,6,1,8990000,,,6,8
60,104,0.9375,7,0,8990000,,,6,15
58,104,0.9375,0,1,8990001,,,6,15
58,104,0.625,1,1,8990001,,,6,10
55,104,0.1875,2,0,8990001,,,6,3
55,104,0.1875,3,0,8990001,,,6,3
55,104,0.1875,4,0,8990001,,,6,3
60,104,0.125,5,0,8990001,,,6,2
54,104,0.1875,0,1,9000000,,,6,3
50,104,0.6875,1,0,9000000,,,6,11
50,104,0.4375,2,0,9000000,,,6,7
62,104,0.1875,3,1,9000000,,,6,3
62,104,0.1875,4,0,9000000,,,6,3
57,104,0.375,5,0,9000000,,,6,6
52,104,0.9375,6,0,9000000,,,6,15
52,104,0.625,7,1,9000000,,,6,10
52,104,0.8125,8,0,9000000,,,6,13
52,104,0.4375,0,1,9000001,,,6,7
52,104,0.25,1,0,9000001,,,6,4
64,104,0.3125,2,1,9000001,,,6,5
43,104,0.8125,3,1,9000001,,,6,13
52,104,0.75,0,1,9010000,,,6,12
52,104,0.25,1,1,9010000,,,6,4
59,104,0.6875,2,1,9010000,,,6,11
35,104,0.75,3,1,9010000,,,6,12
47,104,0.9375,4,1,9010000,,,6,15
35,104,0.875,5,1,9010000,,,6,14
47,104,0.1875,0,1,9010001,,,6,3
47,104,0.1875,1,0,9010001,,,6,3
35,104,0.3125,2,1,9010001,,,6,5
59,104,0.625,3,1,9010001,,,6,10
35,104,0.4375,4,1,9010001,,,6,7
35,104,0.25,5,0,9010001,,,6,4
47,104,0.3125,6,1,9010001,,,6,5
35,104,0.5,7,1,9010001,,,6,8
35,104,0.375,8,0,9010001,,,6,6
47,104,0.1875,9,1,9010001,,,6,3
59,104,0.3125,10,1,9010001,,,6,5
59,104,0.4375,11,0,9010001,,,6,7
59,104,0.4375,0,1,9010002,,,6,7
64,104,0.5625,1,0,9010002,,,6,9
64,104,0.0,2,0,9010002,,,6,0
59,104,0.6875,0,1,9020000,,,6,11
35,104,0.1875,1,1,9020000,,,6,3
59,104,0.375,2,1,9020000,,,6,6
35,104,0.4375,3,1,9020000,,,6,7
35,104,0.375,4,0,9020000,,,6,6
59,104,0.25,5,1,9020000,,,6,4
35,104,0.25,6,1,9020000,,,6,4
59,104,0.375,7,1,9020000,,,6,6
64,104,0.4375,8,0,9020000,,,6,7
64,104,0.25,9,0,9020000,,,6,4
64,104,0.375,10,0,9020000,,,6,6
49,104,0.3125,0,1,9020001,,,6,5
49,104,0.1875,1,0,9020001,,,6,3
49,104,0.1875,2,0,9020001,,,6,3
64,104,0.25,3,1,9020001,,,6,4
64,104,0.1875,4,0,9020001,,,6,3
51,104,0.1875,0,1,9030000,,,6,3
63,104,0.125,1,1,9030000,,,6,2
51,104,0.1875,2,1,9030000,,,6,3
63,104,0.1875,3,1,9030000,,,6,3
39,104,0.1875,4,1,9030000,,,6,3
63,104,0.125,5,1,9030000,,,6,2
51,104,0.3125,6,1,9030000,,,6,5
58,104,0.25,7,1,9030000,,,6,4
58,104,0.25,8,0,9030000,,,6,4
51,104,0.3125,9,1,9030000,,,6,5
58,104,0.3125,10,1,9030000,,,6,5
58,104,0.25,11,0,9030000,,,6,4
39,104,0.25,12,1,9030000,,,6,4
39,104,0.375,13,0,9030000,,,6,6
51,104,0.375,14,1,9030000,,,6,6
51,104,0.1875,15,0,9030000,,,6,3
51,104,0.1875,16,0,9030000,,,6,3
51,104,0.1875,0,1,9030001,,,6,3
63,104,0.3125,1,1,9030001,,,6,5
70,104,0.25,2,1,9030001,,,6,4
46,104,0.1875,3,1,9030001,,,6,3
58,104,0.3125,4,1,9030001,,,6,5
58,104,0.1875,5,0,9030001,,,6,3
46,104,0.125,6,1,9030001,,,6,2
46,104,0.4375,7,0,9030001,,,6,7
58,104,0.5,8,1,9030001,,,6,8
58,104,0.1875,9,0,9030001,,,6,3
33,104,0.75,0,1,9040000,,,6,12
33,104,0.9375,1,1,9040000,,,6,15
33,104,0.9375,2,1,9040000,,,6,15
33,104,0.9375,3,1,9040000,,,6,15
33,104,0.9375,4,1,9040000,,,6,15
62,104,0.3125,0,1,9040001,,,6,5
47,104,0.125,1,1,9040001,,,6,2
47,104,0.1875,2,0,9040001,,,6,3
62,104,0.6875,3,1,9040001,,,6,11
47,104,0.9375,4,1,9040001,,,6,15
47,104,0.6875,5,1,9040001,,,6,11
31,104,0.5,6,1,9040001,,,6,8
31,104,0.125,0,1,9050000,,,6,2
31,104,0.125,1,0,9050000,,,6,2
51,104,0.9375,2,1,9050000,,,6,15
32,104,0.5625,3,1,9050000,,,6,9
51,104,0.9375,4,1,9050000,,,6,15
53,104,0.25,5,1,9050000,,,6,4
34,104,0.25,6,1,9050000,,,6,4
62,104,0.9375,7,1,9050000,,,6,15
51,104,0.3125,0,1,9050001,,,6,5
63,104,0.1875,1,1,9050001,,,6,3
58,104,0.9375,2,0,9050001,,,6,15
52,104,0.3125,0,1,9060000,,,6,5
57,104,0.25,1,0,9060000,,,6,4
57,104,0.625,2,0,9060000,,,6,10
59,104,0.4375,3,0,9060000,,,6,7
59,104,0.25,4,0,9060000,,,6,4
59,104,0.1875,5,0,9060000,,,6,3
52,104,0.1875,6,1,9060000,,,6,3
64,104,0.125,7,1,9060000,,,6,2
52,104,0.1875,8,1,9060000,,,6,3
52,104,0.9375,9,0,9060000,,,6,15
56,104,0.375,10,1,9060000,,,6,6
59,104,0.25,11,0,9060000,,,6,4
33,104,0.1875,0,1,9060001,,,6,3
45,104,0.3125,1,1,9060001,,,6,5
52,104,0.6875,2,1,9060001,,,6,11
52,104,0.0625,3,0,9060001,,,6,1
46,104,0.125,0,1,9070000,,,6,2
51,104,0.9375,1,0,9070000,,,6,15
63,104,0.125,2,1,9070000,,,6,2
63,104,0.3125,3,0,9070000,,,6,5
58,104,0.1875,4,0,9070000,,,6,3
46,104,0.5,5,1,9070000,,,6,8
46,104,0.5,6,0,9070000,,,6,8
46,104,0.4375,7,0,9070000,,,6,7
51,104,0.5,8,0,9070000,,,6,8
58,104,0.5,9,1,9070000,,,6,8
51,104,0.375,0,1,9070001,,,6,6
56,104,0.4375,1,0,9070001,,,6,7
51,104,0.375,2,0,9070001,,,6,6
56,104,0.1875,3,0,9070001,,,6,3
51,104,0.1875,4,0,9070001,,,6,3
51,104,0.5,5,0,9070001,,,6,8
52,104,0.6875,0,1,9080000,,,6,11
30,104,0.1875,1,1,9080000,,,6,3
54,104,0.375,2,1,9080000,,,6,6
54,104,0.25,3,0,9080000,,,6,4
35,104,0.9375,4,1,9080000,,,6,15
35,104,0.3125,5,1,9080000,,,6,5
35,104,0.125,6,0,9080000,,,6,2
35,104,0.375,7,0,9080000,,,6,6
54,104,0.1875,8,1,9080000,,,6,3
54,104,0.625,9,0,9080000,,,6,10
63,104,0.1875,0,1,9080001,,,6,3
51,104,0.1875,1,1,9080001,,,6,3
59,104,0.625,2,1,9080001,,,6,10
63,104,0.25,3,0,9080001,,,6,4
51,104,0.5625,4,1,9080001,,,6,9
54,104,0.3125,5,0,9080001,,,6,5
54,104,0.25,6,0,9080001,,,6,4
56,104,0.1875,0,1,9090000,,,6,3
45,104,0.1875,1,1,9090000,,,6,3
59,104,0.25,2,1,9090000,,,6,4
45,104,0.5625,3,1,9090000,,,6,9
45,104,0.25,4,0,9090000,,,6,4
57,104,0.3125,5,1,9090000,,,6,5
57,104,0.25,6,0,9090000,,,6,4
45,104,0.3125,7,1,9090000,,,6,5
57,104,0.5,8,1,9090000,,,6,8
45,104,0.5,9,1,9090000,,,6,8
57,104,0.3125,10,1,9090000,,,6,5
57,104,0.9375,11,0,9090000,,,6,15
57,104,0.125,0,1,9090001,,,6,2
57,104,0.3125,1,0,9090001,,,6,5
47,104,0.5625,2,1,9090001,,,6,9
47,104,0.25,3,0,9090001,,,6,4
35,104,0.3125,4,1,9090001,,,6,5
35,104,0.25,5,0,9090001,,,6,4
35,104,0.1875,6,0,9090001,,,6,3
35,104,0.5,7,0,9090001,,,6,8
47,104,0.4375,8,1,9090001,,,6,7
35,104,0.1875,9,1,9090001,,,6,3
54,104,0.125,10,1,9090001,,,6,2
35,104,0.6875,11,1,9090001,,,6,11
35,104,0.1875,0,1,9090002,,,6,3
39,104,0.25,0,1,9100000,,,6,4
58,104,0.1875,1,1,9100000,,,6,3
39,104,0.1875,2,1,9100000,,,6,3
39,104,0.25,3,0,9100000,,,6,4
58,104,0.6875,4,1,9100000,,,6,11
41,104,0.9375,5,1,9100000,,,6,15
60,104,0.25,6,1,9100000,,,6,4
41,104,0.1875,7,1,9100000,,,6,3
29,104,0.125,8,1,9100000,,,6,2
48,104,0.6875,9,1,9100000,,,6,11
34,104,0.9375,10,1,9100000,,,6,15
53,104,0.25,0,1,9100001,,,6,4
53,104,0.3125,1,0,9100001,,,6,5
53,104,0.4375,2,0,9100001,,,6,7
62,104,0.5,3,1,9100001,,,6,8
53,104,0.25,4,1,9100001,,,6,4
36,104,0.3125,5,1,9100001,,,6,5
36,104,0.25,6,0,9100001,,,6,4
58,104,0.3125,0,1,9110000,,,6,5
34,104,0.6875,1,1,9110000,,,6,11
34,104,0.25,2,0,9110000,,,6,4
34,104,0.125,3,0,9110000,,,6,2
46,104,0.3125,4,1,9110000,,,6,5
34,104,0.25,5,1,9110000,,,6,4
34,104,0.1875,6,0,9110000,,,6,3
34,104,0.125,7,0,9110000,,,6,2
53,104,0.4375,8,1,9110000,,,6,7
29,104,0.8125,9,1,9110000,,,6,13
41,104,0.5625,10,1,9110000,,,6,9
29,104,0.1875,0,1,9110001,,,6,3
53,104,0.25,1,1,9110001,,,6,4
29,104,0.875,2,1,9110001,,,6,14
41,104,0.1875,3,1,9110001,,,6,3
29,104,0.5625,4,1,9110001,,,6,9
41,104,0.1875,5,1,9110001,,,6,3
29,104,0.5,6,1,9110001,,,6,8
31,104,0.1875,7,0,9110001,,,6,3
31,104,0.1875,8,0,9110001,,,6,3
31,104,0.25,9,0,9110001,,,6,4
31,104,0.125,10,0,9110001,,,6,2
31,104,0.3125,11,0,9110001,,,6,5
31,104,0.6875,12,0,9110001,,,6,11
64,104,0.875,0,1,9120000,,,6,14
55,104,0.375,1,1,9120000,,,6,6
52,104,0.75,2,0,9120000,,,6,12
50,104,0.9375,3,1,9120000,,,6,15
62,104,0.3125,4,1,9120000,,,6,5
50,104,0.5,5,1,9120000,,,6,8
50,104,0.9375,6,0,9120000,,,6,15
55,104,0.4375,0,1,9120001,,,6,7
55,104,0.4375,1,0,9120001,,,6,7
50,104,0.1875,2,0,9120001,,,6,3
62,104,0.8125,3,1,9120001,,,6,13
55,104,0.9375,4,1,9120001,,,6,15
62,104,0.5,5,1,9120001,,,6,8
50,104,0.1875,0,1,9120002,,,6,3
50,104,0.9375,1,0,9120002,,,6,15
50,104,0.9375,2,1,9120002,,,6,15
64,104,0.125,3,1,9120002,,,6,2
32,104,0.75,0,1,9130000,,,6,12
44,104,0.3125,1,1,9130000,,,6,5
32,104,0.875,2,1,9130000,,,6,14
51,104,0.125,3,1,9130000,,,6,2
34,104,0.125,4,1,9130000,,,6,2
46,104,0.1875,5,1,9130000,,,6,3
46,104,0.5625,6,0,9130000,,,6,9
46,104,0.1875,7,0,9130000,,,6,3
46,104,0.1875,8,0,9130000,,,6,3
34,104,0.3125,9,1,9130000,,,6,5
34,104,0.25,10,0,9130000,,,6,4
37,104,0.625,0,1,9140000,,,6,10
56,104,0.1875,1,1,9140000,,,6,3
51,104,0.9375,2,0,9140000,,,6,15
51,104,0.5,3,1,9140000,,,6,8
51,104,0.8125,4,0,9140000,,,6,13
51,104,0.1875,5,1,9140000,,,6,3
51,104,0.3125,6,0,9140000,,,6,5
34,104,0.375,7,1,9140000,,,6,6
34,104,0.375,8,0,9140000,,,6,6
53,104,0.375,0,1,9140001,,,6,6
34,104,0.9375,1,1,9140001,,,6,15
54,104,0.1875,2,1,9140001,,,6,3
35,104,0.5625,3,1,9140001,,,6,9
47,104,0.75,4,1,9140001,,,6,12
35,104,0.5,5,1,9140001,,,6,8
54,104,0.0625,6,1,9140001,,,6,1
51,104,0.3125,0,1,9150000,,,6,5
51,104,0.5,1,0,9150000,,,6,8
51,104,0.9375,2,0,9150000,,,6,15
51,104,0.9375,3,1,9150000,,,6,15
51,104,0.25,4,1,9150000,,,6,4
34,104,0.75,5,1,9150000,,,6,12
53,104,0.9375,6,1,9150000,,,6,15
34,104,0.1875,0,1,9150001,,,6,3
53,104,0.3125,1,1,9150001,,,6,5
34,104,0.75,2,1,9150001,,,6,12
53,104,0.9375,3,1,9150001,,,6,15
53,104,0.1875,4,1,9150001,,,6,3
35,104,0.9375,5,1,9150001,,,6,15
35,104,0.25,6,1,9150001,,,6,4
35,104,0.25,0,1,9150002,,,6,4
54,104,0.9375,1,1,9150002,,,6,15
37,104,0.0,2,1,9150002,,,6,0
50,104,0.875,0,1,9160000,,,6,14
50,104,0.6875,1,1,9160000,,,6,11
62,104,0.1875,2,1,9160000,,,6,3
50,104,0.25,3,1,9160000,,,6,4
62,104,0.4375,4,1,9160000,,,6,7
35,104,0.3125,0,1,9170000,,,6,5
54,104,0.4375,1,1,9170000,,,6,7
35,104,0.1875,2,1,9170000,,,6,3
35,104,0.375,3,0,9170000,,,6,6
54,104,0.5,4,1,9170000,,,6,8
35,104,0.1875,5,1,9170000,,,6,3
69,104,0.375,6,1,9170000,,,6,6
50,104,0.25,7,1,9170000,,,6,4
54,104,0.1875,8,0,9170000,,,6,3
54,104,0.625,9,0,9170000,,,6,10
54,104,0.125,10,0,9170000,,,6,2
50,104,0.3125,11,0,9170000,,,6,5
52,104,0.3125,12,0,9170000,,,6,5
56,104,0.375,0,1,9170001,,,6,6
52,104,0.875,1,0,9170001,,,6,14
53,104,0.25,0,1,9180000,,,6,4
65,104,0.375,1,1,9180000,,,6,6
50,104,0.4375,2,1,9180000,,,6,7
65,104,0.375,3,1,9180000,,,6,6
58,104,0.3125,4,1,9180000,,,6,5
34,104,0.375,5,1,9180000,,,6,6
46,104,0.5625,6,1,9180000,,,6,9
53,104,0.25,7,1,9180000,,,6,4
53,104,0.6875,8,0,9180000,,,6,11
46,104,0.1875,9,1,9180000,,,6,3
34,104,0.3125,10,1,9180000,,,6,5
34,104,0.25,0,1,9180001,,,6,4
53,104,0.25,1,1,9180001,,,6,4
34,104,0.25,2,1,9180001,,,6,4
34,104,0.25,3,0,9180001,,,6,4
34,104,0.1875,4,0,9180001,,,6,3
34,104,0.3125,5,0,9180001,,,6,5
34,104,0.1875,6,0,9180001,,,6,3
53,104,0.3125,7,1,9180001,,,6,5
53,104,0.1875,8,0,9180001,,,6,3
34,104,0.3125,9,1,9180001,,,6,5
53,104,0.1875,10,1,9180001,,,6,3
65,104,0.1875,11,1,9180001,,,6,3
53,104,0.1875,12,1,9180001,,,6,3
34,104,0.5625,13,1,9180001,,,6,9
34,104,0.25,14,0,9180001,,,6,4
34,104,0.1875,0,1,9180002,,,6,3
34,104,0.5625,1,0,9180002,,,6,9
46,104,0.1875,2,1,9180002,,,6,3
55,104,0.5625,0,1,9190000,,,6,9
67,104,0.4375,1,1,9190000,,,6,7
60,104,0.4375,2,1,9190000,,,6,7
65,104,0.3125,3,0,9190000,,,6,5
62,104,0.25,4,0,9190000,,,6,4
60,104,0.5625,5,0,9190000,,,6,9
65,104,0.25,6,0,9190000,,,6,4
62,104,0.1875,7,0,9190000,,,6,3
60,104,0.125,8,0,9190000,,,6,2
65,104,0.9375,9,0,9190000,,,6,15
55,104,0.75,0,1,9190001,,,6,12
50,104,0.375,1,1,9190001,,,6,6
55,104,0.4375,2,0,9190001,,,6,7
50,104,0.1875,3,0,9190001,,,6,3
55,104,0.3125,4,0,9190001,,,6,5
55,104,0.375,5,0,9190001,,,6,6
55,104,0.5625,6,0,9190001,,,6,9
55,104,0.9375,7,0,9190001,,,6,15
62,104,0.3125,0,1,9190002,,,6,5
57,104,0.0625,1,0,9190002,,,6,1
51,104,0.3125,0,1,9200000,,,6,5
27,104,0.25,1,1,9200000,,,6,4
51,104,0.3125,2,1,9200000,,,6,5
39,104,0.125,3,1,9200000,,,6,2
51,104,0.1875,4,1,9200000,,,6,3
56,104,0.1875,5,0,9200000,,,6,3
56,104,0.1875,6,0,9200000,,,6,3
34,104,0.1875,7,1,9200000,,,6,3
63,104,0.5625,8,1,9200000,,,6,9
43,104,0.3125,9,1,9200000,,,6,5
55,104,0.375,10,1,9200000,,,6,6
67,104,0.5,11,1,9200000,,,6,8
67,104,0.25,12,0,9200000,,,6,4
58,104,0.3125,13,1,9200000,,,6,5
63,104,0.5,0,1,9200001,,,6,8
63,104,0.375,1,0,9200001,,,6,6
53,104,0.3125,2,1,9200001,,,6,5
56,104,0.1875,3,0,9200001,,,6,3
53,104,0.4375,0,1,9210000,,,6,7
41,104,0.1875,1,1,9210000,,,6,3
60,104,0.25,2,1,9210000,,,6,4
60,104,0.25,3,0,9210000,,,6,4
60,104,0.3125,4,0,9210000,,,6,5
60,104,0.1875,5,0,9210000,,,6,3
41,104,0.3125,6,1,9210000,,,6,5
29,104,0.5625,7,1,9210000,,,6,9
29,104,0.625,8,0,9210000,,,6,10
60,104,0.25,9,1,9210000,,,6,4
48,104,0.375,10,1,9210000,,,6,6
60,104,0.5,11,1,9210000,,,6,8
53,104,0.25,0,1,9210001,,,6,4
48,104,0.375,1,0,9210001,,,6,6
41,104,0.1875,2,1,9210001,,,6,3
60,104,0.375,3,1,9210001,,,6,6
41,104,0.25,4,1,9210001,,,6,4
29,104,0.625,5,1,9210001,,,6,10
57,104,0.375,0,1,9220000,,,6,6
50,104,0.1875,1,1,9220000,,,6,3
50,104,0.875,2,0,9220000,,,6,14
38,104,0.25,3,1,9220000,,,6,4
50,104,0.9375,4,1,9220000,,,6,15
57,104,0.4375,5,1,9220000,,,6,7
57,104,0.25,6,0,9220000,,,6,4
50,104,0.5,7,1,9220000,,,6,8
49,104,0.9375,8,0,9220000,,,6,15
69,104,0.25,0,1,9220001,,,6,4
49,104,0.9375,1,1,9220001,,,6,15
49,104,0.9375,2,1,9220001,,,6,15
69,104,0.375,3,1,9220001,,,6,6
57,104,0.25,4,1,9220001,,,6,4
61,104,0.375,5,0,9220001,,,6,6
47,104,0.1875,6,1,9220001,,,6,3
47,104,0.9375,0,1,9220002,,,6,15
47,104,0.375,1,1,9220002,,,6,6
47,104,0.25,2,0,9220002,,,6,4
40,104,0.1875,0,1,9230000,,,6,3
40,104,0.375,1,0,9230000,,,6,6
40,104,0.625,2,0,9230000,,,6,10
40,104,0.5,3,0,9230000,,,6,8
52,104,0.25,4,1,9230000,,,6,4
40,104,0.25,5,1,9230000,,,6,4
52,104,0.1875,6,1,9230000,,,6,3
52,104,0.25,7,0,9230000,,,6,4
52,104,0.25,8,0,9230000,,,6,4
52,104,0.25,9,0,9230000,,,6,4
52,104,0.3125,10,0,9230000,,,6,5
64,104,0.25,11,1,9230000,,,6,4
59,104,0.1875,12,0,9230000,,,6,3
35,104,0.625,13,1,9230000,,,6,10
35,104,0.5625,0,1,9230001,,,6,9
47,104,0.5625,1,1,9230001,,,6,9
35,104,0.1875,2,1,9230001,,,6,3
57,104,0.25,0,1,9240000,,,6,4
50,104,0.9375,1,1,9240000,,,6,15
50,104,0.75,2,1,9240000,,,6,12
69,104,0.5,3,1,9240000,,,6,8
52,104,0.9375,4,1,9240000,,,6,15
52,104,0.125,5,1,9240000,,,6,2
59,104,0.1875,6,1,9240000,,,6,3
40,104,0.3125,7,1,9240000,,,6,5
52,104,0.1875,0,1,9240001,,,6,3
44,104,0.75,1,1,9240001,,,6,12
54,104,0.625,2,1,9240001,,,6,10
59,104,0.3125,3,0,9240001,,,6,5
44,104,0.1875,4,1,9240001,,,6,3
30,104,0.5625,5,1,9240001,,,6,9
54,104,0.5,6,1,9240001,,,6,8
57,104,0.5,7,0,9240001,,,6,8
59,104,0.25,0,1,9250000,,,6,4
59,104,0.25,1,0,9250000,,,6,4
47,104,0.3125,2,1,9250000,,,6,5
35,104,0.75,3,1,9250000,,,6,12
35,104,0.5,4,1,9250000,,,6,8
35,104,0.9375,5,0,9250000,,,6,15
35,104,0.1875,6,1,9250000,,,6,3
59,104,0.25,7,1,9250000,,,6,4
35,104,0.9375,8,1,9250000,,,6,15
59,104,0.6875,0,1,9250001,,,6,11
35,104,0.9375,1,1,9250001,,,6,15
35,104,0.375,2,1,9250001,,,6,6
35,104,0.8125,3,0,9250001,,,6,13
47,104,0.625,4,1,9250001,,,6,10
35,104,0.9375,5,1,9250001,,,6,15
61,104,0.25,0,1,9260000,,,6,4
59,104,0.25,1,0,9260000,,,6,4
59,104,0.1875,2,0,9260000,,,6,3
59,104,0.9375,3,0,9260000,,,6,15
64,104,0.375,4,1,9260000,,,6,6
61,104,0.3125,5,0,9260000,,,6,5
64,104,0.375,6,0,9260000,,,6,6
40,104,0.4375,7,1,9260000,,,6,7
59,104,0.4375,8,1,9260000,,,6,7
61,104,0.4375,9,0,9260000,,,6,7
64,104,0.3125,0,1,9260001,,,6,5
49,104,0.625,1,1,9260001,,,6,10
61,104,0.625,2,1,9260001,,,6,10
49,104,0.1875,3,1,9260001,,,6,3
68,104,0.25,4,1,9260001,,,6,4
66,104,0.375,5,0,9260001,,,6,6
64,104,0.9375,6,0,9260001,,,6,15
66,104,0.9375,7,1,9260001,,,6,15
64,104,0.875,0,1,9260002,,,6,14
63,104,0.3125,1,1,9260002,,,6,5
64,104,0.4375,2,0,9260002,,,6,7
55,104,0.9375,0,1,9270000,,,6,15
55,104,0.5625,1,1,9270000,,,6,9
43,104,0.25,2,1,9270000,,,6,4
55,104,0.8125,3,1,9270000,,,6,13
43,104,0.375,4,1,9270000,,,6,6
53,104,0.6875,5,1,9270000,,,6,11
53,104,0.75,6,0,9270000,,,6,12
41,104,0.1875,0,1,9270001,,,6,3
60,104,0.25,1,1,9270001,,,6,4
53,104,0.1875,2,1,9270001,,,6,3
41,104,0.1875,3,1,9270001,,,6,3
53,104,0.1875,4,1,9270001,,,6,3
53,104,0.25,5,0,9270001,,,6,4
35,104,0.875,0,1,9280000,,,6,14
35,104,0.5625,1,1,9280000,,,6,9
35,104,0.875,2,0,9280000,,,6,14
35,104,0.75,3,1,9280000,,,6,12
35,104,0.375,4,1,9280000,,,6,6
35,104,0.25,5,0,9280000,,,6,4
35,104,0.6875,6,0,9280000,,,6,11
35,104,0.375,0,1,9280001,,,6,6
35,104,0.75,1,0,9280001,,,6,12
35,104,0.4375,2,1,9280001,,,6,7
64,104,0.1875,3,1,9280001,,,6,3
35,104,0.4375,4,1,9280001,,,6,7
35,104,0.75,5,0,9280001,,,6,12
56,104,0.3125,6,1,9280001,,,6,5
56,104,0.5,7,0,9280001,,,6,8
56,104,0.75,0,1,9280002,,,6,12
58,104,0.1875,0,1,9290000,,,6,3
58,104,0.25,1,0,9290000,,,6,4
58,104,0.375,2,0,9290000,,,6,6
58,104,0.625,3,0,9290000,,,6,10
55,104,0.9375,4,0,9290000,,,6,15
60,104,0.9375,5,1,9290000,,,6,15
63,104,0.1875,6,1,9290000,,,6,3
55,104,0.9375,7,1,9290000,,,6,15
65,104,0.4375,0,1,9290001,,,6,7
55,104,0.4375,1,1,9290001,,,6,7
56,104,0.9375,2,0,9290001,,,6,15
56,104,0.9375,3,1,9290001,,,6,15
58,104,0.125,4,1,9290001,,,6,2
46,104,0.25,5,1,9290001,,,6,4
46,104,0.75,6,0,9290001,,,6,12
65,104,0.25,0,1,9290002,,,6,4
31,104,0.375,0,1,9300000,,,6,6
53,104,0.5,1,1,9300000,,,6,8
53,104,0.5625,2,0,9300000,,,6,9
53,104,0.25,3,0,9300000,,,6,4
58,104,0.5,4,0,9300000,,,6,8
53,104,0.375,5,0,9300000,,,6,6
53,104,0.5,6,0,9300000,,,6,8
29,104,0.125,7,1,9300000,,,6,2
53,104,0.1875,8,1,9300000,,,6,3
48,104,0.1875,9,0,9300000,,,6,3
53,104,0.9375,10,0,9300000,,,6,15
53,104,0.4375,0,1,9300001,,,6,7
46,104,0.25,1,1,9300001,,,6,4
46,104,0.5625,2,0,9300001,,,6,9
53,104,0.4375,3,1,9300001,,,6,7
61,104,0.4375,0,1,9310000,,,6,7
49,104,0.3125,1,1,9310000,,,6,5
49,104,0.1875,2,0,9310000,,,6,3
49,104,0.9375,3,0,9310000,,,6,15
61,104,0.3125,4,1,9310000,,,6,5
56,104,0.5,5,0,9310000,,,6,8
59,104,0.9375,6,0,9310000,,,6,15
59,104,0.125,7,1,9310000,,,6,2
56,104,0.1875,8,0,9310000,,,6,3
59,104,0.9375,9,0,9310000,,,6,15
63,104,0.3125,0,1,9310001,,,6,5
63,104,0.1875,1,0,9310001,,,6,3
64,104,0.25,2,0,9310001,,,6,4
45,104,0.1875,3,1,9310001,,,6,3
51,104,0.1875,0,1,9320000,,,6,3
56,104,0.1875,1,0,9320000,,,6,3
34,104,0.3125,2,1,9320000,,,6,5
46,104,0.125,3,1,9320000,,,6,2
62,104,0.375,4,1,9320000,,,6,6
55,104,0.25,5,1,9320000,,,6,4
55,104,0.25,6,0,9320000,,,6,4
63,104,0.25,7,1,9320000,,,6,4
63,104,0.125,8,0,9320000,,,6,2
63,104,0.5,9,0,9320000,,,6,8
47,104,0.1875,0,1,9330000,,,6,3
59,104,0.3125,1,1,9330000,,,6,5
59,104,0.375,2,0,9330000,,,6,6
52,104,0.3125,3,1,9330000,,,6,5
64,104,0.125,4,1,9330000,,,6,2
45,104,0.375,5,1,9330000,,,6,6
45,104,0.3125,6,0,9330000,,,6,5
64,104,0.1875,7,1,9330000,,,6,3
47,104,0.5625,8,1,9330000,,,6,9
47,104,0.5,9,0,9330000,,,6,8
59,104,0.125,10,1,9330000,,,6,2
59,104,0.25,11,0,9330000,,,6,4
47,104,0.1875,12,1,9330000,,,6,3
47,104,0.1875,13,0,9330000,,,6,3
59,104,0.3125,0,1,9330001,,,6,5
47,104,0.5,1,1,9330001,,,6,8
59,104,0.625,2,1,9330001,,,6,10
59,104,0.25,3,0,9330001,,,6,4
59,104,0.3125,4,0,9330001,,,6,5
64,104,0.1875,5,0,9330001,,,6,3
52,104,0.375,6,1,9330001,,,6,6
52,104,0.1875,7,0,9330001,,,6,3
52,104,0.5625,8,0,9330001,,,6,9
52,104,0.25,9,0,9330001,,,6,4
52,104,0.9375,0,1,9340000,,,6,15
62,104,0.9375,1,1,9340000,,,6,15
33,104,0.125,2,1,9340000,,,6,2
33,104,0.375,3,0,9340000,,,6,6
33,104,0.1875,4,0,9340000,,,6,3
57,104,0.4375,5,1,9340000,,,6,7
57,104,0.1875,6,0,9340000,,,6,3
57,104,0.25,7,0,9340000,,,6,4
43,104,0.1875,8,1,9340000,,,6,3
50,104,0.5625,9,1,9340000,,,6,9
57,104,0.5,0,1,9340001,,,6,8
57,104,0.3125,1,0,9340001,,,6,5
38,104,0.9375,2,1,9340001,,,6,15
38,104,0.25,3,1,9340001,,,6,4
36,104,0.75,0,1,9350000,,,6,12
48,104,0.625,1,1,9350000,,,6,10
47,104,0.1875,2,0,9350000,,,6,3
50,104,0.625,3,0,9350000,,,6,10
50,104,0.375,4,0,9350000,,,6,6
47,104,0.9375,5,0,9350000,,,6,15
47,104,0.3125,6,1,9350000,,,6,5
47,104,0.875,7,0,9350000,,,6,14
58,104,0.1875,0,1,9360000,,,6,3
58,104,0.9375,1,0,9360000,,,6,15
58,104,0.9375,2,1,9360000,,,6,15
70,104,0.1875,3,1,9360000,,,6,3
58,104,0.9375,4,1,9360000,,,6,15
58,104,0.3125,5,1,9360000,,,6,5
34,104,0.125,6,1,9360000,,,6,2
46,104,0.6875,7,1,9360000,,,6,11
58,104,0.9375,0,1,9360001,,,6,15
58,104,0.375,1,1,9360001,,,6,6
46,104,0.25,2,1,9360001,,,6,4
58,104,0.9375,3,1,9360001,,,6,15
70,104,0.25,4,1,9360001,,,6,4
58,104,0.625,5,1,9360001,,,6,10
60,104,0.125,6,0,9360001,,,6,2
59,104,0.1875,0,1,9370000,,,6,3
59,104,0.25,1,0,9370000,,,6,4
59,104,0.25,2,0,9370000,,,6,4
56,104,0.9375,3,0,9370000,,,6,15
59,104,0.1875,4,1,9370000,,,6,3
59,104,0.25,5,0,9370000,,,6,4
47,104,0.25,6,1,9370000,,,6,4
35,104,0.6875,7,1,9370000,,,6,11
35,104,0.5,8,0,9370000,,,6,8
35,104,0.875,9,0,9370000,,,6,14
35,104,0.1875,0,1,9370001,,,6,3
59,104,0.1875,1,1,9370001,,,6,3
35,104,0.25,2,1,9370001,,,6,4
53,104,0.375,0,1,9380000,,,6,6
60,104,0.1875,1,1,9380000,,,6,3
55,104,0.3125,2,0,9380000,,,6,5
55,104,0.3125,3,0,9380000,,,6,5
65,104,0.25,4,1,9380000,,,6,4
53,104,0.375,5,1,9380000,,,6,6
65,104,0.5625,6,1,9380000,,,6,9
65,104,0.4375,7,0,9380000,,,6,7
53,104,0.6875,8,1,9380000,,,6,11
53,104,0.9375,9,0,9380000,,,6,15
65,104,0.9375,0,1,9380001,,,6,15
53,104,0.3125,1,1,9380001,,,6,5
53,104,0.3125,2,0,9380001,,,6,5
53,104,0.25,3,0,9380001,,,6,4
58,104,0.9375,4,0,9380001,,,6,15
46,104,0.9375,5,1,9380001,,,6,15
65,104,0.25,0,1,9380002,,,6,4
53,104,0.375,0,1,9390000,,,6,6
53,104,0.5,1,0,9390000,,,6,8
53,104,0.5,2,0,9390000,,,6,8
41,104,0.25,3,1,9390000,,,6,4
53,104,0.3125,4,1,9390000,,,6,5
53,104,0.9375,5,0,9390000,,,6,15
36,104,0.1875,6,1,9390000,,,6,3
36,104,0.9375,7,0,9390000,,,6,15
36,104,0.375,0,1,9390001,,,6,6
36,104,0.4375,1,0,9390001,,,6,7
36,104,0.5,2,0,9390001,,,6,8
55,104,0.25,3,1,9390001,,,6,4
46,104,0.1875,4,1,9390001,,,6,3
34,104,0.8125,5,1,9390001,,,6,13
34,104,0.375,6,1,9390001,,,6,6
34,104,0.375,7,0,9390001,,,6,6
34,104,0.3125,8,0,9390001,,,6,5
46,104,0.3125,9,1,9390001,,,6,5
50,104,0.9375,10,0,9390001,,,6,15
38,104,0.25,0,1,9390002,,,6,4
38,104,0.3125,1,0,9390002,,,6,5
57,104,0.5,0,1,9400000,,,6,8
57,104,0.375,1,0,9400000,,,6,6
57,104,0.4375,2,0,9400000,,,6,7
57,104,0.625,3,0,9400000,,,6,10
62,104,0.5625,4,0,9400000,,,6,9
57,104,0.875,5,0,9400000,,,6,14
57,104,0.3125,6,1,9400000,,,6,5
52,104,0.25,7,0,9400000,,,6,4
52,104,0.3125,8,0,9400000,,,6,5
57,104,0.3125,0,1,9400001,,,6,5
45,104,0.3125,1,1,9400001,,,6,5
57,104,0.9375,2,1,9400001,,,6,15
57,104,0.9375,3,1,9400001,,,6,15
62,104,0.625,4,1,9400001,,,6,10
57,104,0.9375,5,0,9400001,,,6,15
62,104,0.75,0,1,9400002,,,6,12
57,104,0.1875,1,1,9400002,,,6,3
62,104,0.4375,2,0,9400002,,,6,7
50,104,0.9375,0,1,9410000,,,6,15
57,104,0.25,1,1,9410000,,,6,4
50,104,0.25,2,1,9410000,,,6,4
50,104,0.375,3,0,9410000,,,6,6
50,104,0.9375,4,0,9410000,,,6,15
31,104,0.25,5,1,9410000,,,6,4
55,104,0.625,6,1,9410000,,,6,10
50,104,0.375,7,0,9410000,,,6,6
43,104,0.75,0,1,9410001,,,6,12
31,104,0.1875,1,1,9410001,,,6,3
50,104,0.9375,2,1,9410001,,,6,15
31,104,0.25,3,1,9410001,,,6,4
57,104,0.1875,4,1,9410001,,,6,3
38,104,0.5,5,1,9410001,,,6,8
31,104,0.9375,6,1,9410001,,,6,15
58,104,0.125,0,1,9420000,,,6,2
39,104,0.1875,1,1,9420000,,,6,3
58,104,0.4375,2,1,9420000,,,6,7
39,104,0.5625,3,1,9420000,,,6,9
51,104,0.5,4,1,9420000,,,6,8
51,104,0.6875,5,0,9420000,,,6,11
46,104,0.8125,6,0,9420000,,,6,13
46,104,0.25,7,1,9420000,,,6,4
58,104,0.25,8,1,9420000,,,6,4
58,104,0.5,9,0,9420000,,,6,8
58,104,0.125,0,1,9420001,,,6,2
70,104,0.4375,1,1,9420001,,,6,7
63,104,0.4375,2,1,9420001,,,6,7
58,104,0.1875,3,0,9420001,,,6,3
70,104,0.5,4,1,9420001,,,6,8
70,104,0.125,5,0,9420001,,,6,2
51,104,0.1875,0,1,9430000,,,6,3
51,104,0.625,1,0,9430000,,,6,10
63,104,0.1875,2,1,9430000,,,6,3
63,104,0.3125,3,0,9430000,,,6,5
63,104,0.5,4,0,9430000,,,6,8
51,104,0.1875,5,1,9430000,,,6,3
63,104,0.25,6,1,9430000,,,6,4
63,104,0.375,7,0,9430000,,,6,6
44,104,0.3125,8,1,9430000,,,6,5
62,104,0.6875,0,1,9440000,,,6,11
59,104,0.25,1,0,9440000,,,6,4
33,104,0.25,2,1,9440000,,,6,4
60,104,0.3125,3,1,9440000,,,6,5
33,104,0.4375,4,1,9440000,,,6,7
57,104,0.375,5,1,9440000,,,6,6
33,104,0.25,6,1,9440000,,,6,4
57,104,0.25,7,1,9440000,,,6,4
57,104,0.125,8,0,9440000,,,6,2
45,104,0.1875,9,1,9440000,,,6,3
57,104,0.375,10,1,9440000,,,6,6
38,104,0.125,11,1,9440000,,,6,2
38,104,0.125,12,0,9440000,,,6,2
57,104,0.5,13,1,9440000,,,6,8
31,104,0.25,0,1,9440001,,,6,4
31,104,0.125,1,0,9440001,,,6,2
57,104,0.1875,2,1,9440001,,,6,3
57,104,0.125,3,0,9440001,,,6,2
45,104,0.125,4,1,9440001,,,6,2
64,104,0.125,5,1,9440001,,,6,2
48,104,0.1875,6,1,9440001,,,6,3
58,104,0.25,0,1,9450000,,,6,4
58,104,0.9375,1,0,9450000,,,6,15
63,104,0.4375,2,1,9450000,,,6,7
52,104,0.25,3,1,9450000,,,6,4
24,104,0.125,4,1,9450000,,,6,2
24,104,0.125,5,0,9450000,,,6,2
52,104,0.5,6,1,9450000,,,6,8
48,104,0.25,7,0,9450000,,,6,4
62,104,0.375,8,1,9450000,,,6,6
62,104,0.4375,9,0,9450000,,,6,7
59,104,0.375,10,0,9450000,,,6,6
51,104,0.5,0,1,9460000,,,6,8
51,104,0.6875,1,0,9460000,,,6,11
51,104,0.25,2,0,9460000,,,6,4
51,104,0.1875,3,0,9460000,,,6,3
48,104,0.25,4,0,9460000,,,6,4
48,104,0.6875,5,0,9460000,,,6,11
58,104,0.625,6,1,9460000,,,6,10
46,104,0.4375,7,1,9460000,,,6,7
58,104,0.5,8,1,9460000,,,6,8
58,104,0.3125,0,1,9460001,,,6,5
58,104,0.1875,1,0,9460001,,,6,3
55,104,0.1875,2,0,9460001,,,6,3
48,104,0.25,3,1,9460001,,,6,4
53,104,0.8125,0,1,9470000,,,6,13
53,104,0.1875,1,1,9470000,,,6,3
58,104,0.1875,2,0,9470000,,,6,3
53,104,0.25,3,0,9470000,,,6,4
58,104,0.375,4,0,9470000,,,6,6
48,104,0.4375,5,1,9470000,,,6,7
60,104,0.1875,6,1,9470000,,,6,3
48,104,0.5,7,1,9470000,,,6,8
48,104,0.25,8,0,9470000,,,6,4
48,104,0.4375,9,0,9470000,,,6,7
48,104,0.1875,10,0,9470000,,,6,3
48,104,0.25,11,0,9470000,,,6,4
29,104,0.5,0,1,9470001,,,6,8
29,104,0.1875,1,0,9470001,,,6,3
29,104,0.125,2,0,9470001,,,6,2
38,104,0.1875,0,1,9480000,,,6,3
57,104,0.125,1,1,9480000,,,6,2
38,104,0.25,2,1,9480000,,,6,4
38,104,0.5,3,0,9480000,,,6,8
54,104,0.1875,4,1,9480000,,,6,3
54,104,0.1875,5,0,9480000,,,6,3
49,104,0.3125,6,0,9480000,,,6,5
42,104,0.5625,7,1,9480000,,,6,9
59,104,0.25,8,1,9480000,,,6,4
54,104,0.1875,9,0,9480000,,,6,3
55,104,0.1875,10,0,9480000,,,6,3
49,104,0.5,11,0,9480000,,,6,8
49,104,0.125,12,0,9480000,,,6,2
49,104,0.1875,13,0,9480000,,,6,3
64,104,0.4375,14,1,9480000,,,6,7
44,104,0.125,0,1,9490000,,,6,2
58,104,0.25,1,1,9490000,,,6,4
44,104,0.4375,2,1,9490000,,,6,7
58,104,0.1875,3,1,9490000,,,6,3
44,104,0.3125,4,1,9490000,,,6,5
58,104,0.25,5,1,9490000,,,6,4
56,104,0.1875,6,0,9490000,,,6,3
58,104,0.6875,7,0,9490000,,,6,11
44,104,0.1875,8,1,9490000,,,6,3
44,104,0.1875,9,0,9490000,,,6,3
44,104,0.1875,10,0,9490000,,,6,3
58,104,0.1875,11,1,9490000,,,6,3
43,104,0.125,12,1,9490000,,,6,2
58,104,0.375,13,1,9490000,,,6,6
58,104,0.4375,14,0,9490000,,,6,7
58,104,0.3125,0,1,9490001,,,6,5
50,104,0.125,0,1,9500000,,,6,2
50,104,0.125,1,0,9500000,,,6,2
50,104,0.1875,2,0,9500000,,,6,3
31,104,0.25,3,1,9500000,,,6,4
48,104,0.4375,4,1,9500000,,,6,7
60,104,0.3125,5,1,9500000,,,6,5
36,104,0.25,6,1,9500000,,,6,4
55,104,0.75,7,1,9500000,,,6,12
50,104,0.9375,8,1,9500000,,,6,15
50,104,0.25,9,1,9500000,,,6,4
54,104,0.4375,10,0,9500000,,,6,7
50,104,0.9375,0,1,9500001,,,6,15
50,104,0.6875,1,1,9500001,,,6,11
50,104,0.6875,2,0,9500001,,,6,11
47,104,0.6875,3,0,9500001,,,6,11
55,104,0.4375,4,1,9500001,,,6,7
55,104,0.3125,5,0,9500001,,,6,5
52,104,0.9375,6,0,9500001,,,6,15
55,104,0.4375,0,1,9500002,,,6,7
57,104,0.9375,1,0,9500002,,,6,15
52,104,0.4375,2,1,9500002,,,6,7
55,104,0.625,3,0,9500002,,,6,10
59,104,0.9375,0,1,9510000,,,6,15
52,104,0.1875,1,1,9510000,,,6,3
52,104,0.5625,2,0,9510000,,,6,9
64,104,0.25,3,1,9510000,,,6,4
47,104,0.1875,4,1,9510000,,,6,3
47,104,0.375,5,0,9510000,,,6,6
35,104,0.1875,6,1,9510000,,,6,3
59,104,0.4375,7,1,9510000,,,6,7
47,104,0.625,8,1,9510000,,,6,10
47,104,0.3125,9,0,9510000,,,6,5
47,104,0.5,0,1,9510001,,,6,8
35,104,0.1875,1,1,9510001,,,6,3
47,104,0.3125,2,1,9510001,,,6,5
47,104,0.25,3,0,9510001,,,6,4
35,104,0.1875,4,1,9510001,,,6,3
64,104,0.125,5,1,9510001,,,6,2
61,104,0.4375,6,0,9510001,,,6,7
49,104,0.1875,7,1,9510001,,,6,3
61,104,0.25,8,1,9510001,,,6,4
31,104,0.25,0,1,9520000,,,6,4
31,104,0.375,1,0,9520000,,,6,6
31,104,0.5,2,0,9520000,,,6,8
31,104,0.25,3,0,9520000,,,6,4
31,104,0.5625,4,0,9520000,,,6,9
31,104,0.3125,5,0,9520000,,,6,5
31,104,0.75,6,0,9520000,,,6,12
43,104,0.5,7,1,9520000,,,6,8
31,104,0.25,8,1,9520000,,,6,4
27,104,0.9375,9,0,9520000,,,6,15
27,104,0.3125,0,1,9520001,,,6,5
27,104,0.25,1,0,9520001,,,6,4
58,104,0.1875,2,1,9520001,,,6,3
27,104,0.4375,3,1,9520001,,,6,7
39,104,0.375,4,1,9520001,,,6,6
27,104,0.625,5,1,9520001,,,6,10
58,104,0.5,6,1,9520001,,,6,8
58,104,0.3125,7,0,9520001,,,6,5
58,104,0.1875,8,0,9520001,,,6,3
46,104,0.25,9,1,9520001,,,6,4
53,104,0.375,0,1,9530000,,,6,6
53,104,0.375,1,0,9530000,,,6,6
41,104,0.5,2,1,9530000,,,6,8
39,104,0.9375,3,0,9530000,,,6,15
51,104,0.25,4,1,9530000,,,6,4
39,104,0.1875,5,1,9530000,,,6,3
39,104,0.875,6,0,9530000,,,6,14
39,104,0.9375,7,1,9530000,,,6,15
51,104,0.3125,0,1,9530001,,,6,5
51,104,0.3125,1,0,9530001,,,6,5
39,104,0.875,2,1,9530001,,,6,14
39,104,0.9375,3,1,9530001,,,6,15
58,104,0.625,4,1,9530001,,,6,10
34,104,0.4375,5,1,9530001,,,6,7
34,104,0.9375,6,0,9530001,,,6,15
34,104,0.1875,0,1,9530002,,,6,3
34,104,0.3125,1,0,9530002,,,6,5
53,104,0.8125,2,1,9530002,,,6,13
34,104,0.5,3,1,9530002,,,6,8
34,104,0.25,4,0,9530002,,,6,4
59,104,0.5,0,1,9540000,,,6,8
40,104,0.125,1,1,9540000,,,6,2
59,104,0.6875,2,1,9540000,,,6,11
59,104,0.8125,3,0,9540000,,,6,13
40,104,0.125,4,1,9540000,,,6,2
59,104,0.9375,5,1,9540000,,,6,15
59,104,0.5625,6,1,9540000,,,6,9
47,104,0.1875,7,1,9540000,,,6,3
47,104,0.4375,8,0,9540000,,,6,7
59,104,0.1875,0,1,9540001,,,6,3
59,104,0.25,1,0,9540001,,,6,4
47,104,0.1875,2,1,9540001,,,6,3
52,104,0.3125,3,0,9540001,,,6,5
52,104,0.125,4,0,9540001,,,6,2
63,104,0.125,0,1,9550000,,,6,2
51,104,0.25,1,1,9550000,,,6,4
56,104,0.5,2,0,9550000,,,6,8
44,104,0.375,3,1,9550000,,,6,6
44,104,0.375,4,0,9550000,,,6,6
44,104,0.25,5,0,9550000,,,6,4
56,104,0.25,6,1,9550000,,,6,4
46,104,0.5,7,1,9550000,,,6,8
58,104,0.3125,8,1,9550000,,,6,5
63,104,0.25,9,0,9550000,,,6,4
46,104,0.25,10,1,9550000,,,6,4
46,104,0.5,11,0,9550000,,,6,8
46,104,0.1875,12,0,9550000,,,6,3
34,104,0.1875,0,1,9550001,,,6,3
39,104,0.25,1,0,9550001,,,6,4
39,104,0.125,2,0,9550001,,,6,2
39,104,0.125,3,0,9550001,,,6,2
51,104,0.375,4,1,9550001,,,6,6
46,104,0.3125,5,0,9550001,,,6,5
51,104,0.4375,6,0,9550001,,,6,7
46,104,0.1875,7,0,9550001,,,6,3
37,104,0.5625,0,1,9560000,,,6,9
49,104,0.25,1,1,9560000,,,6,4
61,104,0.25,2,1,9560000,,,6,4
53,104,0.1875,3,1,9560000,,,6,3
53,104,0.25,4,0,9560000,,,6,4
42,104,0.75,5,1,9560000,,,6,12
30,104,0.4375,6,1,9560000,,,6,7
49,104,0.3125,7,1,9560000,,,6,5
46,104,0.3125,8,0,9560000,,,6,5
53,104,0.125,0,1,9570000,,,6,2
53,104,0.75,1,0,9570000,,,6,12
53,104,0.6875,2,1,9570000,,,6,11
53,104,0.1875,3,0,9570000,,,6,3
53,104,0.4375,4,0,9570000,,,6,7
50,104,0.9375,5,0,9570000,,,6,15
50,104,0.9375,6,1,9570000,,,6,15
50,104,0.9375,0,1,9570001,,,6,15
58,104,0.75,1,1,9570001,,,6,12
51,104,0.9375,2,1,9570001,,,6,15
51,104,0.8125,3,1,9570001,,,6,13
51,104,0.5625,4,1,9570001,,,6,9
53,104,0.1875,0,1,9570002,,,6,3
58,104,0.25,1,0,9570002,,,6,4
52,104,0.5625,0,1,9580000,,,6,9
45,104,0.9375,1,1,9580000,,,6,15
45,104,0.625,2,1,9580000,,,6,10
50,104,0.9375,3,0,9580000,,,6,15
38,104,0.4375,4,1,9580000,,,6,7
50,104,0.4375,5,1,9580000,,,6,7
50,104,0.3125,6,0,9580000,,,6,5
40,104,0.875,0,1,9580001,,,6,14
40,104,0.4375,1,1,9580001,,,6,7
40,104,0.3125,2,0,9580001,,,6,5
64,104,0.1875,3,1,9580001,,,6,3
89,104,0.4375,4,1,9580001,,,6,7
57,104,0.0625,5,1,9580001,,,6,1
55,104,0.375,0,1,9590000,,,6,6
55,104,0.4375,1,0,9590000,,,6,7
55,104,0.6875,2,0,9590000,,,6,11
55,104,0.8125,3,0,9590000,,,6,13
55,104,0.8125,4,1,9590000,,,6,13
55,104,0.25,5,1,9590000,,,6,4
67,104,0.1875,6,1,9590000,,,6,3
52,104,0.3125,7,1,9590000,,,6,5
55,104,0.5,8,0,9590000,,,6,8
57,104,0.1875,0,1,9590001,,,6,3
55,104,0.4375,1,0,9590001,,,6,7
55,104,0.9375,2,0,9590001,,,6,15
55,104,0.9375,3,1,9590001,,,6,15
55,104,0.9375,4,1,9590001,,,6,15
41,104,0.3125,0,1,9600000,,,6,5
53,104,0.9375,1,1,9600000,,,6,15
56,104,0.9375,2,1,9600000,,,6,15
46,104,0.625,3,1,9600000,,,6,10
46,104,0.9375,4,0,9600000,,,6,15
43,104,0.9375,5,1,9600000,,,6,15
53,104,0.9375,0,1,9600001,,,6,15
53,104,0.1875,1,1,9600001,,,6,3
43,104,0.4375,2,1,9600001,,,6,7
53,104,0.625,3,1,9600001,,,6,10
48,104,0.8125,4,0,9600001,,,6,13
63,104,0.4375,5,1,9600001,,,6,7
63,104,0.25,0,1,9600002,,,6,4
63,104,0.0625,1,0,9600002,,,6,1
50,104,0.5625,0,1,9610000,,,6,9
50,104,0.9375,1,0,9610000,,,6,15
50,104,0.25,2,1,9610000,,,6,4
38,104,0.25,3,1,9610000,,,6,4
38,104,0.3125,4,0,9610000,,,6,5
50,104,0.8125,5,1,9610000,,,6,13
38,104,0.375,6,1,9610000,,,6,6
50,104,0.5625,7,1,9610000,,,6,9
50,104,0.5,0,1,9610001,,,6,8
49,104,0.8125,1,0,9610001,,,6,13
49,104,0.9375,2,1,9610001,,,6,15
61,104,0.25,3,1,9610001,,,6,4
49,104,0.3125,4,1,9610001,,,6,5
58,104,0.75,5,1,9610001,,,6,12
54,104,0.25,6,1,9610001,,,6,4
51,104,0.9375,0,1,9620000,,,6,15
39,104,0.9375,1,1,9620000,,,6,15
51,104,0.3125,2,1,9620000,,,6,5
39,104,0.5,3,1,9620000,,,6,8
39,104,0.625,4,0,9620000,,,6,10
51,104,0.9375,5,1,9620000,,,6,15
51,104,0.9375,0,1,9620001,,,6,15
51,104,0.9375,1,1,9620001,,,6,15
51,104,0.875,2,1,9620001,,,6,14
51,104,0.8125,3,1,9620001,,,6,13
51,104,0.8125,4,1,9620001,,,6,13
56,104,0.9375,0,1,9630000,,,6,15
49,104,0.375,1,1,9630000,,,6,6
61,104,0.625,2,1,9630000,,,6,10
60,104,0.9375,3,0,9630000,,,6,15
63,104,0.1875,4,1,9630000,,,6,3
63,104,0.9375,5,0,9630000,,,6,15
51,104,0.9375,0,1,9630001,,,6,15
51,104,0.5625,1,1,9630001,,,6,9
56,104,0.5,2,0,9630001,,,6,8
56,104,0.5625,3,0,9630001,,,6,9
63,104,0.9375,4,1,9630001,,,6,15
51,104,0.5,5,1,9630001,,,6,8
58,104,0.9375,0,1,9630002,,,6,15
63,104,0.375,1,1,9630002,,,6,6
51,104,0.3125,2,1,9630002,,,6,5
63,104,0.1875,3,1,9630002,,,6,3
51,104,0.4375,4,1,9630002,,,6,7
51,104,0.375,5,0,9630002,,,6,6
60,104,0.3125,0,1,9640000,,,6,5
60,104,0.9375,1,0,9640000,,,6,15
60,104,0.1875,2,1,9640000,,,6,3
60,104,0.5,3,0,9640000,,,6,8
60,104,0.9375,4,0,9640000,,,6,15
60,104,0.1875,5,1,9640000,,,6,3
55,104,0.9375,6,0,9640000,,,6,15
55,104,0.8125,0,1,9640001,,,6,13
55,104,0.9375,1,1,9640001,,,6,15
55,104,0.3125,2,1,9640001,,,6,5
55,104,0.9375,3,0,9640001,,,6,15
67,104,0.25,4,1,9640001,,,6,4
55,104,0.25,5,1,9640001,,,6,4
43,104,0.6875,6,1,9640001,,,6,11
55,104,0.9375,0,1,9640002,,,6,15
67,104,0.1875,1,1,9640002,,,6,3
55,104,0.1875,2,1,9640002,,,6,3
31,104,0.25,0,1,9650000,,,6,4
31,104,0.4375,1,0,9650000,,,6,7
31,104,0.375,2,0,9650000,,,6,6
55,104,0.5,3,1,9650000,,,6,8
53,104,0.3125,4,0,9650000,,,6,5
53,104,0.375,5,0,9650000,,,6,6
53,104,0.25,6,0,9650000,,,6,4
53,104,0.25,7,0,9650000,,,6,4
29,104,0.3125,8,1,9650000,,,6,5
53,104,0.4375,9,1,9650000,,,6,7
41,104,0.375,10,1,9650000,,,6,6
41,104,0.3125,11,0,9650000,,,6,5
41,104,0.1875,0,1,9650001,,,6,3
41,104,0.375,1,0,9650001,,,6,6
63,104,0.375,2,1,9650001,,,6,6
63,104,0.3125,3,0,9650001,,,6,5
63,104,0.8125,4,0,9650001,,,6,13
51,104,0.8125,5,1,9650001,,,6,13
56,104,0.5,0,1,9660000,,,6,8
45,104,0.8125,1,1,9660000,,,6,13
45,104,0.75,2,1,9660000,,,6,12
33,104,0.9375,3,1,9660000,,,6,15
45,104,0.25,4,1,9660000,,,6,4
47,104,0.8125,5,0,9660000,,,6,13
47,104,0.875,0,1,9660001,,,6,14
47,104,0.75,1,1,9660001,,,6,12
47,104,0.5625,2,1,9660001,,,6,9
50,104,0.8125,3,0,9660001,,,6,13
38,104,0.5625,4,1,9660001,,,6,9
40,104,0.625,5,0,9660001,,,6,10
56,104,0.1875,0,1,9660002,,,6,3
33,104,0.25,1,1,9660002,,,6,4
45,104,0.0,2,1,9660002,,,6,0
51,104,0.75,0,1,9670000,,,6,12
46,104,0.25,1,1,9670000,,,6,4
51,104,0.5625,2,0,9670000,,,6,9
63,104,0.1875,3,1,9670000,,,6,3
51,104,0.4375,4,1,9670000,,,6,7
58,104,0.3125,5,1,9670000,,,6,5
51,104,0.375,6,1,9670000,,,6,6
51,104,0.3125,7,0,9670000,,,6,5
65,104,0.1875,8,1,9670000,,,6,3
46,104,0.8125,9,1,9670000,,,6,13
65,104,0.5625,0,1,9670001,,,6,9
51,104,0.625,1,1,9670001,,,6,10
51,104,0.1875,2,0,9670001,,,6,3
51,104,0.375,3,0,9670001,,,6,6
63,104,0.25,4,1,9670001,,,6,4
51,104,0.9375,5,1,9670001,,,6,15
63,104,0.1875,6,1,9670001,,,6,3
51,104,0.1875,7,1,9670001,,,6,3
51,104,0.8125,8,0,9670001,,,6,13
51,104,0.25,0,1,9670002,,,6,4
63,104,0.625,1,1,9670002,,,6,10
60,104,0.5625,0,1,9680000,,,6,9
51,104,0.3125,1,1,9680000,,,6,5
56,104,0.125,2,0,9680000,,,6,2
51,104,0.6875,3,0,9680000,,,6,11
46,104,0.125,4,0,9680000,,,6,2
58,104,0.5,5,1,9680000,,,6,8
58,104,0.9375,6,0,9680000,,,6,15
58,104,0.875,7,1,9680000,,,6,14
70,104,0.3125,0,1,9680001,,,6,5
63,104,0.1875,1,1,9680001,,,6,3
51,104,0.625,2,1,9680001,,,6,10
58,104,0.1875,3,1,9680001,,,6,3
58,104,0.375,4,0,9680001,,,6,6
62,104,0.9375,5,0,9680001,,,6,15
62,104,0.3125,6,1,9680001,,,6,5
58,104,0.375,7,0,9680001,,,6,6
60,104,0.1875,8,0,9680001,,,6,3
48,104,0.125,9,1,9680001,,,6,2
60,104,0.5625,10,1,9680001,,,6,9
60,104,0.3125,0,1,9680002,,,6,5
36,104,0.9375,0,1,9690000,,,6,15
36,104,0.4375,1,1,9690000,,,6,7
36,104,0.375,2,0,9690000,,,6,6
48,104,0.625,3,1,9690000,,,6,10
67,104,0.4375,4,1,9690000,,,6,7
55,104,0.375,5,1,9690000,,,6,6
55,104,0.75,6,0,9690000,,,6,12
57,104,0.1875,7,1,9690000,,,6,3
55,104,0.9375,0,1,9690001,,,6,15
55,104,0.4375,1,1,9690001,,,6,7
55,104,0.3125,2,0,9690001,,,6,5
55,104,0.1875,3,0,9690001,,,6,3
55,104,0.0625,4,0,9690001,,,6,1
52,104,0.625,0,1,9700000,,,6,10
56,104,0.875,1,0,9700000,,,6,14
56,104,0.3125,2,1,9700000,,,6,5
40,104,0.375,3,1,9700000,,,6,6
57,104,0.3125,4,1,9700000,,,6,5
25,104,0.5,5,1,9700000,,,6,8
37,104,0.625,6,1,9700000,,,6,10
37,104,0.3125,7,0,9700000,,,6,5
56,104,0.25,8,1,9700000,,,6,4
50,104,0.5,0,1,9710000,,,6,8
38,104,0.1875,1,1,9710000,,,6,3
50,104,0.1875,2,1,9710000,,,6,3
57,104,0.1875,3,1,9710000,,,6,3
55,104,0.25,4,0,9710000,,,6,4
43,104,0.625,5,1,9710000,,,6,10
59,104,0.5,6,1,9710000,,,6,8
43,104,0.3125,7,1,9710000,,,6,5
55,104,0.3125,8,1,9710000,,,6,5
43,104,0.1875,9,1,9710000,,,6,3
45,104,0.9375,10,0,9710000,,,6,15
45,104,0.3125,0,1,9710001,,,6,5
45,104,0.1875,1,0,9710001,,,6,3
57,104,0.4375,2,1,9710001,,,6,7
56,104,0.3125,3,0,9710001,,,6,5
50,104,0.9375,4,0,9710001,,,6,15
38,104,0.375,5,1,9710001,,,6,6
50,104,0.9375,6,1,9710001,,,6,15
38,104,0.4375,7,1,9710001,,,6,7
50,104,0.8125,0,1,9710002,,,6,13
54,104,0.0625,1,1,9710002,,,6,1
45,104,0.3125,0,1,9720000,,,6,5
61,104,0.3125,1,1,9720000,,,6,5
45,104,0.75,2,1,9720000,,,6,12
52,104,0.875,3,1,9720000,,,6,14
59,104,0.5,4,1,9720000,,,6,8
52,104,0.4375,5,1,9720000,,,6,7
52,104,0.75,6,0,9720000,,,6,12
62,104,0.3125,7,1,9720000,,,6,5
69,104,0.75,0,1,9720001,,,6,12
68,104,0.3125,1,1,9720001,,,6,5
59,104,0.375,2,1,9720001,,,6,6
40,104,0.4375,3,1,9720001,,,6,7
52,104,0.125,4,1,9720001,,,6,2
66,104,0.5,5,1,9720001,,,6,8
54,104,0.1875,6,1,9720001,,,6,3
66,104,0.9375,7,1,9720001,,,6,15
61,104,0.5625,8,1,9720001,,,6,9
42,104,0.25,0,1,9720002,,,6,4
61,104,0.25,1,1,9720002,,,6,4
54,104,0.5625,2,1,9720002,,,6,9
69,104,0.4375,3,1,9720002,,,6,7
66,104,0.25,4,0,9720002,,,6,4
55,104,0.4375,0,1,9730000,,,6,7
67,104,0.3125,1,1,9730000,,,6,5
55,104,0.375,2,1,9730000,,,6,6
55,104,0.125,3,0,9730000,,,6,2
55,104,0.1875,4,0,9730000,,,6,3
55,104,0.4375,5,0,9730000,,,6,7
55,104,0.6875,6,0,9730000,,,6,11
60,104,0.25,7,0,9730000,,,6,4
55,104,0.9375,8,0,9730000,,,6,15
55,104,0.625,9,1,9730000,,,6,10
67,104,0.125,0,1,9730001,,,6,2
55,104,0.9375,1,1,9730001,,,6,15
55,104,0.1875,2,1,9730001,,,6,3
62,104,0.9375,3,1,9730001,,,6,15
74,104,0.375,4,1,9730001,,,6,6
67,104,0.1875,5,1,9730001,,,6,3
50,104,0.5625,6,1,9730001,,,6,9
62,104,0.1875,7,1,9730001,,,6,3
55,104,0.375,8,1,9730001,,,6,6
55,104,0.5625,0,1,9730002,,,6,9
57,104,0.375,0,1,9740000,,,6,6
45,104,0.4375,1,1,9740000,,,6,7
45,104,0.5625,2,0,9740000,,,6,9
61,104,0.25,3,1,9740000,,,6,4
57,104,0.8125,4,0,9740000,,,6,13
45,104,0.1875,5,1,9740000,,,6,3
61,104,0.375,6,1,9740000,,,6,6
52,104,0.1875,7,1,9740000,,,6,3
49,104,0.125,8,0,9740000,,,6,2
33,104,0.375,9,1,9740000,,,6,6
69,104,0.25,10,1,9740000,,,6,4
57,104,0.25,11,1,9740000,,,6,4
57,104,0.3125,0,1,9740001,,,6,5
49,104,0.5,1,1,9740001,,,6,8
69,104,0.3125,2,1,9740001,,,6,5
57,104,0.25,3,1,9740001,,,6,4
49,104,0.4375,4,1,9740001,,,6,7
49,104,0.125,5,0,9740001,,,6,2
49,104,0.5625,6,0,9740001,,,6,9
49,104,0.3125,0,1,9750000,,,6,5
54,104,0.75,1,0,9750000,,,6,12
52,104,0.25,2,1,9750000,,,6,4
59,104,0.1875,3,1,9750000,,,6,3
59,104,0.75,4,0,9750000,,,6,12
52,104,0.5625,5,1,9750000,,,6,9
59,104,0.3125,6,1,9750000,,,6,5
54,104,0.25,7,0,9750000,,,6,4
54,104,0.25,8,0,9750000,,,6,4
47,104,0.4375,9,1,9750000,,,6,7
35,104,0.1875,0,1,9750001,,,6,3
54,104,0.3125,1,1,9750001,,,6,5
54,104,0.4375,2,0,9750001,,,6,7
49,104,0.1875,3,0,9750001,,,6,3
49,104,0.25,4,0,9750001,,,6,4
49,104,0.3125,5,0,9750001,,,6,5
49,104,0.1875,6,0,9750001,,,6,3
56,104,0.9375,7,1,9750001,,,6,15
54,104,0.1875,8,1,9750001,,,6,3
52,104,0.1875,9,0,9750001,,,6,3
53,104,0.4375,0,1,9760000,,,6,7
29,104,0.5,1,1,9760000,,,6,8
53,104,0.4375,2,1,9760000,,,6,7
41,104,0.3125,3,1,9760000,,,6,5
31,104,0.9375,4,1,9760000,,,6,15
31,104,0.25,5,1,9760000,,,6,4
31,104,0.25,6,0,9760000,,,6,4
31,104,0.8125,7,0,9760000,,,6,13
31,104,0.4375,8,1,9760000,,,6,7
31,104,0.8125,0,1,9760001,,,6,13
31,104,0.5,1,1,9760001,,,6,8
31,104,0.1875,2,0,9760001,,,6,3
48,104,0.9375,3,1,9760001,,,6,15
48,104,0.375,4,1,9760001,,,6,6
49,104,0.3125,0,1,9770000,,,6,5
54,104,0.3125,1,0,9770000,,,6,5
54,104,0.9375,2,0,9770000,,,6,15
54,104,0.3125,3,1,9770000,,,6,5
54,104,0.25,4,0,9770000,,,6,4
54,104,0.125,5,0,9770000,,,6,2
54,104,0.25,6,0,9770000,,,6,4
35,104,0.25,7,1,9770000,,,6,4
61,104,0.125,8,1,9770000,,,6,2
37,104,0.25,9,1,9770000,,,6,4
49,104,0.125,10,1,9770000,,,6,2
61,104,0.625,11,1,9770000,,,6,10
38,104,0.125,12,1,9770000,,,6,2
38,104,0.4375,0,1,9780000,,,6,7
38,104,0.1875,1,0,9780000,,,6,3
50,104,0.4375,2,1,9780000,,,6,7
50,104,0.9375,3,0,9780000,,,6,15
36,104,0.75,4,1,9780000,,,6,12
48,104,0.5,5,1,9780000,,,6,8
48,104,0.6875,6,0,9780000,,,6,11
48,104,0.375,7,0,9780000,,,6,6
36,104,0.9375,0,1,9780001,,,6,15
50,104,0.9375,1,1,9780001,,,6,15
50,104,0.9375,2,1,9780001,,,6,15
50,104,0.1875,3,1,9780001,,,6,3
31,104,0.1875,4,1,9780001,,,6,3
50,104,0.4375,5,1,9780001,,,6,7
53,104,0.5625,0,1,9790000,,,6,9
53,104,0.625,1,0,9790000,,,6,10
60,104,0.75,2,1,9790000,,,6,12
60,104,0.875,3,1,9790000,,,6,14
53,104,0.375,4,1,9790000,,,6,6
60,104,0.875,5,1,9790000,,,6,14
53,104,0.5,0,1,9790001,,,6,8
53,104,0.4375,1,0,9790001,,,6,7
65,104,0.25,2,1,9790001,,,6,4
53,104,0.1875,3,1,9790001,,,6,3
53,104,0.5,4,0,9790001,,,6,8
60,104,0.875,5,1,9790001,,,6,14
60,104,0.1875,6,1,9790001,,,6,3
57,104,0.8125,7,0,9790001,,,6,13
62,104,0.3125,8,1,9790001,,,6,5
61,104,0.25,0,1,9790002,,,6,4
53,104,0.5,1,1,9790002,,,6,8
49,104,0.1875,0,1,9800000,,,6,3
64,104,0.9375,1,1,9800000,,,6,15
33,104,0.1875,2,1,9800000,,,6,3
52,104,0.3125,3,1,9800000,,,6,5
59,104,0.4375,4,1,9800000,,,6,7
47,104,0.6875,5,1,9800000,,,6,11
59,104,0.5,6,1,9800000,,,6,8
35,104,0.4375,7,1,9800000,,,6,7
35,104,0.4375,8,0,9800000,,,6,7
59,104,0.125,0,1,9800001,,,6,2
57,104,0.25,0,1,9810000,,,6,4
57,104,0.5625,1,0,9810000,,,6,9
53,104,0.3125,2,0,9810000,,,6,5
57,104,0.375,3,0,9810000,,,6,6
45,104,0.1875,4,1,9810000,,,6,3
61,104,0.375,5,1,9810000,,,6,6
61,104,0.9375,6,0,9810000,,,6,15
46,104,0.3125,7,1,9810000,,,6,5
61,104,0.9375,8,1,9810000,,,6,15
61,104,0.875,0,1,9810001,,,6,14
61,104,0.5,1,1,9810001,,,6,8
42,104,0.25,2,1,9810001,,,6,4
51,104,0.25,3,1,9810001,,,6,4
32,104,0.1875,4,1,9810001,,,6,3
44,104,0.3125,5,1,9810001,,,6,5
32,104,0.375,6,1,9810001,,,6,6
53,104,0.3125,0,1,9820000,,,6,5
46,104,0.375,1,1,9820000,,,6,6
58,104,0.3125,2,1,9820000,,,6,5
53,104,0.75,3,0,9820000,,,6,12
58,104,0.6875,4,1,9820000,,,6,11
58,104,0.5625,5,0,9820000,,,6,9
51,104,0.9375,6,1,9820000,,,6,15
51,104,0.9375,7,1,9820000,,,6,15
56,104,0.5625,0,1,9820001,,,6,9
56,104,0.4375,1,0,9820001,,,6,7
58,104,0.3125,2,0,9820001,,,6,5
60,104,0.25,3,0,9820001,,,6,4
56,104,0.375,0,1,9830000,,,6,6
49,104,0.375,1,1,9830000,,,6,6
49,104,0.9375,2,0,9830000,,,6,15
49,104,0.5625,3,1,9830000,,,6,9
52,104,0.3125,4,0,9830000,,,6,5
52,104,0.5625,5,0,9830000,,,6,9
52,104,0.25,6,0,9830000,,,6,4
33,104,0.25,7,1,9830000,,,6,4
54,104,0.8125,8,1,9830000,,,6,13
54,104,0.4375,0,1,9830001,,,6,7
52,104,0.1875,1,0,9830001,,,6,3
52,104,0.5,2,0,9830001,,,6,8
40,104,0.1875,3,1,9830001,,,6,3
52,104,0.6875,4,1,9830001,,,6,11
60,104,0.9375,0,1,9840000,,,6,15
55,104,0.25,1,1,9840000,,,6,4
50,104,0.625,2,0,9840000,,,6,10
50,104,0.875,3,0,9840000,,,6,14
57,104,0.5,4,1,9840000,,,6,8
53,104,0.5,5,0,9840000,,,6,8
53,104,0.3125,6,0,9840000,,,6,5
53,104,0.1875,0,1,9840001,,,6,3
41,104,0.25,1,1,9840001,,,6,4
53,104,0.1875,2,1,9840001,,,6,3
60,104,0.3125,3,1,9840001,,,6,5
69,104,0.4375,4,1,9840001,,,6,7
53,104,0.5,5,1,9840001,,,6,8
55,104,0.4375,6,0,9840001,,,6,7
36,104,0.1875,7,1,9840001,,,6,3
55,104,0.375,8,1,9840001,,,6,6
55,104,0.5,9,0,9840001,,,6,8
55,104,0.9375,10,0,9840001,,,6,15
55,104,0.1875,0,1,9840002,,,6,3
55,104,0.75,1,0,9840002,,,6,12
53,104,0.125,2,1,9840002,,,6,2
55,104,0.1875,3,0,9840002,,,6,3
59,104,0.3125,0,1,9850000,,,6,5
49,104,0.9375,1,1,9850000,,,6,15
64,104,0.375,2,1,9850000,,,6,6
49,104,0.375,3,1,9850000,,,6,6
64,104,0.1875,4,1,9850000,,,6,3
57,104,0.4375,5,1,9850000,,,6,7
51,104,0.4375,0,1,9860000,,,6,7
51,104,0.5,1,0,9860000,,,6,8
63,104,0.5,2,1,9860000,,,6,8
46,104,0.3125,3,1,9860000,,,6,5
56,104,0.3125,4,1,9860000,,,6,5
51,104,0.9375,5,0,9860000,,,6,15
56,104,0.1875,6,1,9860000,,,6,3
63,104,0.125,7,1,9860000,,,6,2
51,104,0.375,8,1,9860000,,,6,6
58,104,0.9375,9,1,9860000,,,6,15
56,104,0.9375,0,1,9860001,,,6,15
51,104,0.4375,1,1,9860001,,,6,7
56,104,0.5,2,0,9860001,,,6,8
63,104,0.1875,3,1,9860001,,,6,3
51,104,0.3125,4,1,9860001,,,6,5
56,104,0.3125,5,0,9860001,,,6,5
50,104,0.25,0,1,9870000,,,6,4
55,104,0.75,1,0,9870000,,,6,12
55,104,0.5,2,1,9870000,,,6,8
62,104,0.1875,3,1,9870000,,,6,3
50,104,0.75,4,1,9870000,,,6,12
55,104,0.3125,5,1,9870000,,,6,5
55,104,0.5625,6,0,9870000,,,6,9
52,104,0.4375,7,0,9870000,,,6,7
52,104,0.3125,8,0,9870000,,,6,5
52,104,0.5,0,1,9870001,,,6,8
52,104,0.9375,1,0,9870001,,,6,15
55,104,0.1875,2,1,9870001,,,6,3
33,104,0.25,3,1,9870001,,,6,4
52,104,0.4375,4,1,9870001,,,6,7
50,104,0.1875,5,0,9870001,,,6,3
31,104,0.125,6,1,9870001,,,6,2
61,104,0.6875,0,1,9880000,,,6,11
59,104,0.1875,1,0,9880000,,,6,3
64,104,0.25,2,0,9880000,,,6,4
57,104,0.5,3,1,9880000,,,6,8
61,104,0.75,4,0,9880000,,,6,12
57,104,0.9375,5,1,9880000,,,6,15
62,104,0.9375,6,1,9880000,,,6,15
50,104,0.1875,0,1,9880001,,,6,3
50,104,0.125,1,0,9880001,,,6,2
62,104,0.1875,2,1,9880001,,,6,3
40,104,0.1875,3,1,9880001,,,6,3
52,104,0.125,4,1,9880001,,,6,2
64,104,0.25,5,1,9880001,,,6,4
68,104,0.25,6,0,9880001,,,6,4
64,104,0.25,7,0,9880001,,,6,4
45,104,0.3125,8,1,9880001,,,6,5
64,104,0.1875,9,1,9880001,,,6,3
59,104,0.375,10,0,9880001,,,6,6
64,104,0.25,11,0,9880001,,,6,4
57,104,0.125,12,1,9880001,,,6,2
57,104,0.1875,0,1,9890000,,,6,3
49,104,0.25,1,1,9890000,,,6,4
49,104,0.5,2,0,9890000,,,6,8
49,104,0.5625,3,0,9890000,,,6,9
61,104,0.25,4,1,9890000,,,6,4
61,104,0.25,5,0,9890000,,,6,4
61,104,0.125,6,0,9890000,,,6,2
49,104,0.375,7,1,9890000,,,6,6
42,104,0.25,8,1,9890000,,,6,4
69,104,0.3125,9,1,9890000,,,6,5
49,104,0.5,10,1,9890000,,,6,8
57,104,0.9375,11,1,9890000,,,6,15
69,104,0.25,0,1,9890001,,,6,4
57,104,0.9375,1,1,9890001,,,6,15
69,104,0.25,2,1,9890001,,,6,4
57,104,0.9375,3,1,9890001,,,6,15
58,104,0.25,0,1,9900000,,,6,4
53,104,0.1875,1,0,9900000,,,6,3
46,104,0.1875,2,1,9900000,,,6,3
34,104,0.25,3,1,9900000,,,6,4
34,104,0.25,4,0,9900000,,,6,4
46,104,0.4375,5,1,9900000,,,6,7
53,104,0.1875,6,1,9900000,,,6,3
34,104,0.1875,7,1,9900000,,,6,3
46,104,0.25,8,1,9900000,,,6,4
34,104,0.3125,9,1,9900000,,,6,5
53,104,0.1875,10,1,9900000,,,6,3
56,104,0.25,0,1,9910000,,,6,4
47,104,0.25,1,1,9910000,,,6,4
57,104,0.9375,2,1,9910000,,,6,15
33,104,0.9375,3,1,9910000,,,6,15
45,104,0.875,4,1,9910000,,,6,14
33,104,0.1875,5,1,9910000,,,6,3
33,104,0.9375,6,0,9910000,,,6,15
45,104,0.25,0,1,9910001,,,6,4
33,104,0.25,1,1,9910001,,,6,4
45,104,0.875,2,1,9910001,,,6,14
33,104,0.625,3,1,9910001,,,6,10
57,104,0.5,4,1,9910001,,,6,8
33,104,0.8125,5,1,9910001,,,6,13
45,104,0.875,6,1,9910001,,,6,14
33,104,0.375,0,1,9910002,,,6,6
33,104,0.9375,1,0,9910002,,,6,15
33,104,0.6875,2,1,9910002,,,6,11
33,104,0.25,3,0,9910002,,,6,4
50,104,0.4375,0,1,9920000,,,6,7
52,104,0.9375,1,0,9920000,,,6,15
62,104,0.75,2,1,9920000,,,6,12
62,104,0.3125,3,1,9920000,,,6,5
52,104,0.5,4,1,9920000,,,6,8
50,104,0.3125,5,0,9920000,,,6,5
50,104,0.9375,6,0,9920000,,,6,15
50,104,0.1875,0,1,9920001,,,6,3
58,104,0.9375,1,1,9920001,,,6,15
58,104,0.75,2,1,9920001,,,6,12
33,104,0.25,3,1,9920001,,,6,4
33,104,0.9375,4,0,9920001,,,6,15
57,104,0.25,5,1,9920001,,,6,4
45,104,0.9375,6,1,9920001,,,6,15
57,104,0.1875,0,1,9920002,,,6,3
63,104,0.3125,0,1,9930000,,,6,5
60,104,0.25,1,0,9930000,,,6,4
63,104,0.125,2,0,9930000,,,6,2
62,104,0.25,3,0,9930000,,,6,4
62,104,0.5,4,0,9930000,,,6,8
62,104,0.3125,5,0,9930000,,,6,5
62,104,0.5,6,0,9930000,,,6,8
62,104,0.25,7,0,9930000,,,6,4
34,104,0.25,8,1,9930000,,,6,4
62,104,0.25,9,1,9930000,,,6,4
53,104,0.4375,0,1,9940000,,,6,7
56,104,0.125,1,0,9940000,,,6,2
63,104,0.3125,2,1,9940000,,,6,5
53,104,0.25,3,1,9940000,,,6,4
61,104,0.3125,4,1,9940000,,,6,5
49,104,0.1875,5,1,9940000,,,6,3
56,104,0.8125,6,1,9940000,,,6,13
63,104,0.9375,7,1,9940000,,,6,15
39,104,0.3125,8,1,9940000,,,6,5
63,104,0.1875,9,1,9940000,,,6,3
39,104,0.25,10,1,9940000,,,6,4
51,104,0.1875,0,1,9940001,,,6,3
32,104,0.1875,1,1,9940001,,,6,3
63,104,0.625,2,1,9940001,,,6,10
51,104,0.1875,3,1,9940001,,,6,3
63,104,0.9375,4,1,9940001,,,6,15
53,104,0.25,5,1,9940001,,,6,4
63,104,0.375,6,1,9940001,,,6,6
58,104,0.9375,0,1,9950000,,,6,15
58,104,0.9375,1,1,9950000,,,6,15
70,104,0.3125,2,1,9950000,,,6,5
58,104,0.9375,3,1,9950000,,,6,15
53,104,0.125,4,1,9950000,,,6,2
56,104,0.9375,0,1,9960000,,,6,15
51,104,0.9375,1,1,9960000,,,6,15
58,104,0.375,2,1,9960000,,,6,6
58,104,0.9375,3,0,9960000,,,6,15
51,104,0.5625,4,1,9960000,,,6,9
58,104,0.25,5,1,9960000,,,6,4
51,104,0.9375,0,1,9960001,,,6,15
56,104,0.9375,1,1,9960001,,,6,15
56,104,0.9375,2,1,9960001,,,6,15
58,104,0.3125,3,1,9960001,,,6,5
58,104,0.3125,4,0,9960001,,,6,5
55,104,0.3125,5,0,9960001,,,6,5
58,104,0.9375,6,0,9960001,,,6,15
58,104,0.0625,0,1,9960002,,,6,1
57,104,0.5625,0,1,9970000,,,6,9
64,104,0.375,1,1,9970000,,,6,6
57,104,0.125,2,1,9970000,,,6,2
50,104,0.9375,3,1,9970000,,,6,15
50,104,0.1875,4,1,9970000,,,6,3
62,104,0.25,5,1,9970000,,,6,4
50,104,0.3125,6,1,9970000,,,6,5
38,104,0.1875,7,1,9970000,,,6,3
62,104,0.3125,8,1,9970000,,,6,5
62,104,0.25,9,0,9970000,,,6,4
50,104,0.25,10,1,9970000,,,6,4
38,104,0.3125,11,1,9970000,,,6,5
38,104,0.1875,0,1,9970001,,,6,3
57,104,0.3125,1,1,9970001,,,6,5
64,104,0.9375,2,1,9970001,,,6,15
64,104,0.125,3,1,9970001,,,6,2
64,104,0.1875,4,0,9970001,,,6,3
45,104,0.1875,5,1,9970001,,,6,3
57,104,0.125,6,1,9970001,,,6,2
64,104,0.1875,7,1,9970001,,,6,3
64,104,0.9375,8,0,9970001,,,6,15
57,104,0.8125,9,1,9970001,,,6,13
62,104,0.9375,0,1,9970002,,,6,15
59,104,0.875,1,1,9970002,,,6,14
51,104,0.1875,0,1,9980000,,,6,3
51,104,0.125,1,0,9980000,,,6,2
51,104,0.1875,2,0,9980000,,,6,3
51,104,0.1875,3,0,9980000,,,6,3
58,104,0.25,4,1,9980000,,,6,4
27,104,0.5625,5,1,9980000,,,6,9
51,104,0.25,6,1,9980000,,,6,4
51,104,0.1875,7,0,9980000,,,6,3
51,104,0.1875,8,0,9980000,,,6,3
27,104,0.125,9,1,9980000,,,6,2
32,104,0.5625,10,0,9980000,,,6,9
56,104,0.25,11,1,9980000,,,6,4
56,104,0.1875,12,0,9980000,,,6,3
51,104,0.1875,13,0,9980000,,,6,3
51,104,0.1875,14,0,9980000,,,6,3
34,104,0.5,15,1,9980000,,,6,8
58,104,0.1875,0,1,9980001,,,6,3
63,104,0.25,0,1,9990000,,,6,4
49,104,0.875,1,1,9990000,,,6,14
63,104,0.4375,2,1,9990000,,,6,7
49,104,0.1875,3,1,9990000,,,6,3
63,104,0.875,4,1,9990000,,,6,14
53,104,0.25,5,1,9990000,,,6,4
63,104,0.1875,6,1,9990000,,,6,3
51,104,0.125,7,1,9990000,,,6,2
63,104,0.1875,8,1,9990000,,,6,3
51,104,0.75,9,1,9990000,,,6,12
63,104,0.1875,0,1,9990001,,,6,3
51,104,0.25,1,1,9990001,,,6,4
63,104,0.375,2,1,9990001,,,6,6
32,104,0.25,3,1,9990001,,,6,4
51,104,0.5,4,1,9990001,,,6,8
58,104,0.25,5,1,9990001,,,6,4
51,104,0.3125,6,1,9990001,,,6,5
53,104,0.625,7,0,9990001,,,6,10
35,104,0.1875,0,1,10000000,,,6,3
35,104,0.3125,1,0,10000000,,,6,5
35,104,0.5625,2,0,10000000,,,6,9
59,104,0.375,3,1,10000000,,,6,6
64,104,0.375,4,0,10000000,,,6,6
64,104,0.1875,5,0,10000000,,,6,3
64,104,0.25,6,0,10000000,,,6,4
52,104,0.5,7,1,10000000,,,6,8
59,104,0.6875,8,1,10000000,,,6,11
59,104,0.1875,9,0,10000000,,,6,3
47,104,0.375,10,1,10000000,,,6,6
35,104,0.5625,0,1,10000001,,,6,9
59,104,0.375,1,1,10000001,,,6,6
59,104,0.375,2,0,10000001,,,6,6
59,104,0.375,3,0,10000001,,,6,6
35,104,0.3125,4,1,10000001,,,6,5
59,104,0.1875,5,1,10000001,,,6,3
35,104,0.1875,6,1,10000001,,,6,3
59,104,0.1875,7,1,10000001,,,6,3
47,104,0.3125,8,1,10000001,,,6,5
35,104,0.1875,9,1,10000001,,,6,3
47,104,0.1875,10,1,10000001,,,6,3
64,104,0.5625,11,1,10000001,,,6,9
61,104,0.375,12,0,10000001,,,6,6
55,104,0.4375,0,1,10010000,,,6,7
48,104,0.9375,1,1,10010000,,,6,15
55,104,0.4375,2,1,10010000,,,6,7
55,104,0.25,3,0,10010000,,,6,4
54,104,0.125,4,0,10010000,,,6,2
48,104,0.9375,5,0,10010000,,,6,15
60,104,0.1875,6,1,10010000,,,6,3
60,104,0.4375,7,0,10010000,,,6,7
57,104,0.5,8,0,10010000,,,6,8
43,104,0.9375,0,1,10010001,,,6,15
43,104,0.25,1,1,10010001,,,6,4
50,104,0.25,2,1,10010001,,,6,4
43,104,0.9375,3,1,10010001,,,6,15
31,104,0.9375,4,1,10010001,,,6,15
60,104,0.6875,0,1,10020000,,,6,11
48,104,0.8125,1,1,10020000,,,6,13
60,104,0.875,2,1,10020000,,,6,14
60,104,0.1875,3,1,10020000,,,6,3
48,104,0.5,4,1,10020000,,,6,8
65,104,0.1875,5,1,10020000,,,6,3
53,104,0.5,6,1,10020000,,,6,8
53,104,0.4375,7,0,10020000,,,6,7
53,104,0.5,0,1,10020001,,,6,8
62,104,0.625,1,1,10020001,,,6,10
62,104,0.6875,2,0,10020001,,,6,11
62,104,0.4375,3,0,10020001,,,6,7
60,104,0.875,4,0,10020001,,,6,14
48,104,0.9375,5,1,10020001,,,6,15
48,104,0.75,0,1,10020002,,,6,12
61,104,0.25,0,1,10030000,,,6,4
65,104,0.1875,1,0,10030000,,,6,3
61,104,0.3125,2,0,10030000,,,6,5
61,104,0.4375,3,0,10030000,,,6,7
49,104,0.125,4,1,10030000,,,6,2
65,104,0.1875,5,1,10030000,,,6,3
61,104,0.6875,6,0,10030000,,,6,11
30,104,0.6875,7,1,10030000,,,6,11
49,104,0.8125,8,1,10030000,,,6,13
61,104,0.25,9,1,10030000,,,6,4
66,104,0.75,10,0,10030000,,,6,12
61,104,0.1875,0,1,10030001,,,6,3
66,104,0.25,1,0,10030001,,,6,4
61,104,0.8125,2,0,10030001,,,6,13
61,104,0.1875,3,1,10030001,,,6,3
46,104,0.75,4,1,10030001,,,6,12
31,104,0.1875,0,1,10040000,,,6,3
89,104,0.1875,1,1,10040000,,,6,3
31,104,0.9375,2,1,10040000,,,6,15
53,104,0.25,3,1,10040000,,,6,4
53,104,0.6875,4,0,10040000,,,6,11
41,104,0.1875,5,1,10040000,,,6,3
41,104,0.1875,6,0,10040000,,,6,3
53,104,0.1875,7,1,10040000,,,6,3
53,104,0.125,8,0,10040000,,,6,2
53,104,0.375,9,0,10040000,,,6,6
53,104,0.375,10,0,10040000,,,6,6
53,104,0.3125,11,0,10040000,,,6,5
51,104,0.9375,0,1,10040001,,,6,15
27,104,0.125,1,1,10040001,,,6,2
27,104,0.3125,2,0,10040001,,,6,5
27,104,0.8125,3,0,10040001,,,6,13
51,104,0.1875,4,1,10040001,,,6,3
27,104,0.25,5,1,10040001,,,6,4
51,104,0.375,0,1,10050000,,,6,6
63,104,0.75,1,1,10050000,,,6,12
53,104,0.1875,2,1,10050000,,,6,3
58,104,0.3125,3,0,10050000,,,6,5
51,104,0.75,4,1,10050000,,,6,12
51,104,0.1875,5,1,10050000,,,6,3
63,104,0.4375,6,1,10050000,,,6,7
51,104,0.8125,7,1,10050000,,,6,13
51,104,0.9375,8,1,10050000,,,6,15
51,104,0.125,0,1,10050001,,,6,2
51,104,0.3125,1,0,10050001,,,6,5
56,104,0.1875,2,0,10050001,,,6,3
53,104,0.375,3,0,10050001,,,6,6
53,104,0.25,4,0,10050001,,,6,4
63,104,0.5,5,1,10050001,,,6,8
53,104,0.375,6,1,10050001,,,6,6
55,104,0.5,7,0,10050001,,,6,8
55,104,0.9375,8,0,10050001,,,6,15
67,104,0.9375,0,1,10060000,,,6,15
67,104,0.5,1,1,10060000,,,6,8
67,104,0.625,2,0,10060000,,,6,10
62,104,0.125,3,0,10060000,,,6,2
43,104,0.5625,4,1,10060000,,,6,9
62,104,0.5625,5,1,10060000,,,6,9
43,104,0.6875,6,1,10060000,,,6,11
55,104,0.1875,0,1,10060001,,,6,3
55,104,0.25,1,0,10060001,,,6,4
62,104,0.5,2,1,10060001,,,6,8
67,104,0.9375,3,0,10060001,,,6,15
56,104,0.75,0,1,10070000,,,6,12
56,104,0.25,1,1,10070000,,,6,4
54,104,0.4375,2,0,10070000,,,6,7
49,104,0.875,3,0,10070000,,,6,14
56,104,0.3125,4,1,10070000,,,6,5
56,104,0.25,5,0,10070000,,,6,4
51,104,0.8125,6,0,10070000,,,6,13
56,104,0.375,7,1,10070000,,,6,6
63,104,0.1875,0,1,10070001,,,6,3
49,104,0.6875,1,1,10070001,,,6,11
37,104,0.1875,2,1,10070001,,,6,3
56,104,0.25,3,1,10070001,,,6,4
37,104,0.25,4,1,10070001,,,6,4
56,104,0.3125,5,1,10070001,,,6,5
61,104,0.375,6,0,10070001,,,6,6
56,104,0.3125,7,0,10070001,,,6,5
53,104,0.375,0,1,10080000,,,6,6
53,104,0.375,1,0,10080000,,,6,6
41,104,0.375,2,1,10080000,,,6,6
31,104,0.1875,3,1,10080000,,,6,3
50,104,0.1875,4,1,10080000,,,6,3
31,104,0.5,5,1,10080000,,,6,8
55,104,0.5,6,1,10080000,,,6,8
36,104,0.625,7,1,10080000,,,6,10
36,104,0.3125,8,0,10080000,,,6,5
55,104,0.1875,9,1,10080000,,,6,3
36,104,0.9375,10,1,10080000,,,6,15
48,104,0.625,0,1,10080001,,,6,10
36,104,0.375,1,1,10080001,,,6,6
34,104,0.375,2,0,10080001,,,6,6
34,104,0.3125,3,0,10080001,,,6,5
61,104,0.375,0,1,10090000,,,6,6
59,104,0.1875,1,0,10090000,,,6,3
61,104,0.1875,2,0,10090000,,,6,3
64,104,0.1875,3,0,10090000,,,6,3
66,104,0.5,4,0,10090000,,,6,8
66,104,0.375,5,0,10090000,,,6,6
47,104,0.1875,6,1,10090000,,,6,3
63,104,0.5625,7,1,10090000,,,6,9
60,104,0.1875,8,0,10090000,,,6,3
60,104,0.5,9,0,10090000,,,6,8
63,104,0.1875,10,0,10090000,,,6,3
61,104,0.9375,11,0,10090000,,,6,15
60,104,0.4375,0,1,10100000,,,6,7
60,104,0.375,1,0,10100000,,,6,6
53,104,0.25,2,1,10100000,,,6,4
62,104,0.25,3,1,10100000,,,6,4
62,104,0.375,4,0,10100000,,,6,6
62,104,0.6875,5,0,10100000,,,6,11
58,104,0.1875,6,0,10100000,,,6,3
53,104,0.1875,7,0,10100000,,,6,3
58,104,0.9375,8,0,10100000,,,6,15
58,104,0.4375,9,1,10100000,,,6,7
58,104,0.1875,0,1,10100001,,,6,3
70,104,0.3125,1,1,10100001,,,6,5
51,104,0.1875,2,1,10100001,,,6,3
55,104,0.4375,3,0,10100001,,,6,7
55,104,0.1875,4,0,10100001,,,6,3
63,104,0.1875,5,1,10100001,,,6,3
56,104,0.25,6,1,10100001,,,6,4
52,104,0.625,0,1,10110000,,,6,10
52,104,0.1875,1,0,10110000,,,6,3
42,104,0.125,2,1,10110000,,,6,2
61,104,0.1875,3,1,10110000,,,6,3
35,104,0.375,4,1,10110000,,,6,6
66,104,0.25,5,1,10110000,,,6,4
54,104,0.3125,6,1,10110000,,,6,5
64,104,0.1875,7,1,10110000,,,6,3
64,104,0.3125,8,0,10110000,,,6,5
64,104,0.1875,9,0,10110000,,,6,3
52,104,0.8125,10,1,10110000,,,6,13
64,104,0.125,11,1,10110000,,,6,2
30,104,0.1875,12,1,10110000,,,6,3
45,104,0.125,0,1,10120000,,,6,2
43,104,0.1875,1,0,10120000,,,6,3
62,104,0.375,2,1,10120000,,,6,6
62,104,0.1875,3,0,10120000,,,6,3
62,104,0.1875,4,0,10120000,,,6,3
64,104,0.5,5,0,10120000,,,6,8
55,104,0.25,6,1,10120000,,,6,4
62,104,0.3125,7,1,10120000,,,6,5
62,104,0.1875,8,0,10120000,,,6,3
64,104,0.4375,9,0,10120000,,,6,7
67,104,0.75,10,0,10120000,,,6,12
50,104,0.0625,11,1,10120000,,,6,1
55,104,0.9375,0,1,10130000,,,6,15
57,104,0.625,1,1,10130000,,,6,10
55,104,0.9375,2,0,10130000,,,6,15
43,104,0.75,3,1,10130000,,,6,12
55,104,0.5,4,1,10130000,,,6,8
55,104,0.4375,5,0,10130000,,,6,7
67,104,0.3125,0,1,10130001,,,6,5
55,104,0.375,1,1,10130001,,,6,6
55,104,0.125,2,0,10130001,,,6,2
55,104,0.1875,3,0,10130001,,,6,3
55,104,0.4375,4,0,10130001,,,6,7
55,104,0.6875,5,0,10130001,,,6,11
60,104,0.25,6,0,10130001,,,6,4
55,104,0.9375,7,0,10130001,,,6,15
55,104,0.625,8,1,10130001,,,6,10
67,104,0.125,0,1,10130002,,,6,2
55,104,0.9375,1,1,10130002,,,6,15
55,104,0.1875,2,1,10130002,,,6,3
62,104,0.0625,3,1,10130002,,,6,1
43,104,0.25,0,1,10140000,,,6,4
43,104,0.3125,1,0,10140000,,,6,5
57,104,0.6875,2,1,10140000,,,6,11
57,104,0.5625,3,0,10140000,,,6,9
50,104,0.375,4,1,10140000,,,6,6
69,104,0.1875,5,1,10140000,,,6,3
69,104,0.1875,6,0,10140000,,,6,3
57,104,0.25,7,1,10140000,,,6,4
69,104,0.125,8,1,10140000,,,6,2
57,104,0.9375,9,1,10140000,,,6,15
57,104,0.75,10,1,10140000,,,6,12
57,104,0.8125,0,1,10140001,,,6,13
52,104,0.25,1,1,10140001,,,6,4
52,104,0.1875,2,0,10140001,,,6,3
59,104,0.5625,3,1,10140001,,,6,9
59,104,0.375,4,0,10140001,,,6,6
52,104,0.125,5,1,10140001,,,6,2
59,104,0.1875,6,1,10140001,,,6,3
53,104,0.75,0,1,10150000,,,6,12
53,104,0.25,1,1,10150000,,,6,4
60,104,0.375,2,1,10150000,,,6,6
55,104,0.25,3,0,10150000,,,6,4
48,104,0.3125,4,1,10150000,,,6,5
65,104,0.25,5,1,10150000,,,6,4
55,104,0.125,6,1,10150000,,,6,2
53,104,0.25,7,0,10150000,,,6,4
53,104,0.4375,8,0,10150000,,,6,7
53,104,0.4375,9,0,10150000,,,6,7
60,104,0.5,10,1,10150000,,,6,8
63,104,0.375,11,0,10150000,,,6,6
53,104,0.125,0,1,10150001,,,6,2
55,104,0.25,1,0,10150001,,,6,4
53,104,0.1875,2,0,10150001,,,6,3
53,104,0.125,3,0,10150001,,,6,2
63,104,0.5,0,1,10160000,,,6,8
51,104,0.5625,1,1,10160000,,,6,9
63,104,0.75,2,1,10160000,,,6,12
53,104,0.3125,3,1,10160000,,,6,5
41,104,0.1875,4,1,10160000,,,6,3
29,104,0.8125,5,1,10160000,,,6,13
48,104,0.9375,6,1,10160000,,,6,15
51,104,0.5625,0,1,10160001,,,6,9
39,104,0.25,1,1,10160001,,,6,4
51,104,0.25,2,1,10160001,,,6,4
29,104,0.5625,3,1,10160001,,,6,9
29,104,0.1875,4,0,10160001,,,6,3
53,104,0.375,5,1,10160001,,,6,6
62,104,0.1875,0,1,10170000,,,6,3
63,104,0.5,1,0,10170000,,,6,8
63,104,0.25,2,0,10170000,,,6,4
58,104,0.125,3,0,10170000,,,6,2
34,104,0.375,4,1,10170000,,,6,6
65,104,0.4375,5,1,10170000,,,6,7
46,104,0.1875,6,1,10170000,,,6,3
62,104,0.1875,7,1,10170000,,,6,3
62,104,0.25,8,0,10170000,,,6,4
63,104,0.125,9,0,10170000,,,6,2
63,104,0.75,10,0,10170000,,,6,12
63,104,0.1875,11,1,10170000,,,6,3
51,104,0.1875,12,1,10170000,,,6,3
63,104,0.1875,13,1,10170000,,,6,3
63,104,0.25,14,0,10170000,,,6,4
51,104,0.25,0,1,10170001,,,6,4
63,104,0.1875,1,1,10170001,,,6,3
51,104,0.125,2,1,10170001,,,6,2
51,104,0.5,3,0,10170001,,,6,8
63,104,0.25,4,1,10170001,,,6,4
39,104,0.125,5,1,10170001,,,6,2
63,104,0.1875,6,1,10170001,,,6,3
51,104,0.0625,7,1,10170001,,,6,1
33,104,0.375,0,1,10180000,,,6,6
33,104,0.375,1,0,10180000,,,6,6
33,104,0.3125,2,0,10180000,,,6,5
33,104,0.8125,3,0,10180000,,,6,13
33,104,0.9375,4,1,10180000,,,6,15
61,104,0.75,5,1,10180000,,,6,12
59,104,0.25,6,1,10180000,,,6,4
60,104,0.25,7,0,10180000,,,6,4
59,104,0.375,0,1,10180001,,,6,6
57,104,0.375,1,0,10180001,,,6,6
57,104,0.1875,2,0,10180001,,,6,3
56,104,0.4375,3,0,10180001,,,6,7
52,104,0.5,4,0,10180001,,,6,8
52,104,0.125,5,0,10180001,,,6,2
52,104,0.25,6,0,10180001,,,6,4
40,104,0.75,7,1,10180001,,,6,12
57,104,0.6875,8,1,10180001,,,6,11
57,104,0.75,9,0,10180001,,,6,12
57,104,0.3125,0,1,10180002,,,6,5
47,104,0.25,1,1,10180002,,,6,4
57,104,0.5,2,1,10180002,,,6,8
68,104,0.25,0,1,10190000,,,6,4
40,104,0.4375,1,1,10190000,,,6,7
50,104,0.875,2,1,10190000,,,6,14
62,104,0.1875,3,1,10190000,,,6,3
40,104,0.9375,4,1,10190000,,,6,15
40,104,0.3125,5,1,10190000,,,6,5
40,104,0.125,6,0,10190000,,,6,2
40,104,0.375,7,0,10190000,,,6,6
49,104,0.625,8,1,10190000,,,6,10
49,104,0.9375,0,1,10190001,,,6,15
61,104,0.4375,1,1,10190001,,,6,7
64,104,0.4375,2,0,10190001,,,6,7
64,104,0.4375,3,0,10190001,,,6,7
61,104,0.75,4,0,10190001,,,6,12
57,104,0.0625,5,1,10190001,,,6,1
62,104,0.5,0,1,10200000,,,6,8
47,104,0.6875,1,1,10200000,,,6,11
47,104,0.4375,2,0,10200000,,,6,7
47,104,0.8125,3,0,10200000,,,6,13
47,104,0.5,4,1,10200000,,,6,8
47,104,0.9375,5,0,10200000,,,6,15
56,104,0.5,6,1,10200000,,,6,8
56,104,0.1875,0,1,10200001,,,6,3
56,104,0.8125,1,0,10200001,,,6,13
56,104,0.6875,2,1,10200001,,,6,11
56,104,0.9375,3,0,10200001,,,6,15
56,104,0.625,4,1,10200001,,,6,10
57,104,0.3125,5,0,10200001,,,6,5
47,104,0.8125,6,1,10200001,,,6,13
71,104,0.3125,0,1,10210000,,,6,5
50,104,0.4375,1,1,10210000,,,6,7
43,104,0.4375,2,1,10210000,,,6,7
50,104,0.9375,3,1,10210000,,,6,15
52,104,0.25,4,1,10210000,,,6,4
52,104,0.25,5,0,10210000,,,6,4
52,104,0.25,6,0,10210000,,,6,4
52,104,0.375,7,0,10210000,,,6,6
33,104,0.25,8,1,10210000,,,6,4
52,104,0.4375,9,1,10210000,,,6,7
52,104,0.9375,10,0,10210000,,,6,15
52,104,0.625,0,1,10210001,,,6,10
41,104,0.25,1,1,10210001,,,6,4
41,104,0.25,2,0,10210001,,,6,4
41,104,0.3125,3,0,10210001,,,6,5
69,104,0.4375,4,1,10210001,,,6,7
41,104,0.75,5,1,10210001,,,6,12
52,104,0.375,6,1,10210001,,,6,6
52,104,0.25,7,0,10210001,,,6,4
50,104,0.9375,0,1,10220000,,,6,15
57,104,0.1875,1,1,10220000,,,6,3
50,104,0.5625,2,1,10220000,,,6,9
69,104,0.4375,3,1,10220000,,,6,7
50,104,0.125,4,1,10220000,,,6,2
40,104,0.5,5,1,10220000,,,6,8
59,104,0.4375,6,1,10220000,,,6,7
64,104,0.4375,7,0,10220000,,,6,7
40,104,0.1875,8,1,10220000,,,6,3
40,104,0.5,9,0,10220000,,,6,8
45,104,0.8125,0,1,10220001,,,6,13
45,104,0.25,1,1,10220001,,,6,4
61,104,0.375,2,1,10220001,,,6,6
45,104,0.9375,3,1,10220001,,,6,15
64,104,0.4375,4,1,10220001,,,6,7
52,104,0.4375,5,1,10220001,,,6,7
50,104,0.8125,6,0,10220001,,,6,13
50,104,0.0,0,1,10220002,,,6,0
34,104,0.1875,0,1,10230000,,,6,3
46,104,0.25,1,1,10230000,,,6,4
32,104,0.5625,2,1,10230000,,,6,9
53,104,0.125,3,1,10230000,,,6,2
34,104,0.1875,4,1,10230000,,,6,3
34,104,0.3125,5,0,10230000,,,6,5
34,104,0.25,6,0,10230000,,,6,4
34,104,0.375,7,0,10230000,,,6,6
34,104,0.1875,8,0,10230000,,,6,3
58,104,0.125,9,1,10230000,,,6,2
55,104,0.375,10,0,10230000,,,6,6
53,104,0.625,11,0,10230000,,,6,10
49,104,0.25,0,1,10240000,,,6,4
61,104,0.25,1,1,10240000,,,6,4
40,104,0.125,2,1,10240000,,,6,2
40,104,0.3125,3,0,10240000,,,6,5
52,104,0.25,4,1,10240000,,,6,4
40,104,0.4375,5,1,10240000,,,6,7
52,104,0.25,6,1,10240000,,,6,4
59,104,0.25,7,1,10240000,,,6,4
40,104,0.4375,8,1,10240000,,,6,7
52,104,0.125,9,1,10240000,,,6,2
40,104,0.25,10,1,10240000,,,6,4
63,104,0.375,11,1,10240000,,,6,6
47,104,0.3125,12,1,10240000,,,6,5
35,104,0.4375,13,1,10240000,,,6,7
63,104,0.5,0,1,10240001,,,6,8
57,104,0.3125,1,0,10240001,,,6,5
57,104,0.3125,2,0,10240001,,,6,5
57,104,0.25,3,0,10240001,,,6,4
57,104,0.125,4,0,10240001,,,6,2
57,104,0.625,5,0,10240001,,,6,10
64,104,0.75,6,1,10240001,,,6,12
64,104,0.25,7,1,10240001,,,6,4
64,104,0.1875,8,0,10240001,,,6,3
61,104,0.5625,9,0,10240001,,,6,9
61,104,0.5625,10,0,10240001,,,6,9
52,104,0.25,0,1,10240002,,,6,4
52,104,0.4375,1,0,10240002,,,6,7
52,104,0.0625,2,0,10240002,,,6,1
25,104,0.75,0,1,10250000,,,6,12
25,104,0.25,1,1,10250000,,,6,4
25,104,0.1875,2,0,10250000,,,6,3
25,104,0.25,3,0,10250000,,,6,4
25,104,0.25,4,0,10250000,,,6,4
44,104,0.375,5,1,10250000,,,6,6
44,104,0.125,6,0,10250000,,,6,2
44,104,0.25,7,0,10250000,,,6,4
25,104,0.1875,8,1,10250000,,,6,3
53,104,0.25,9,1,10250000,,,6,4
53,104,0.1875,10,0,10250000,,,6,3
53,104,0.25,11,0,10250000,,,6,4
53,104,0.375,12,0,10250000,,,6,6
53,104,0.4375,13,0,10250000,,,6,7
41,104,0.1875,0,1,10250001,,,6,3
53,104,0.0625,1,1,10250001,,,6,1
47,104,0.25,0,1,10260000,,,6,4
47,104,0.1875,1,0,10260000,,,6,3
47,104,0.5,2,0,10260000,,,6,8
47,104,0.4375,3,0,10260000,,,6,7
47,104,0.5625,4,0,10260000,,,6,9
47,104,0.625,5,0,10260000,,,6,10
35,104,0.1875,6,1,10260000,,,6,3
35,104,0.1875,7,0,10260000,,,6,3
35,104,0.4375,8,0,10260000,,,6,7
47,104,0.375,9,1,10260000,,,6,6
35,104,0.25,10,1,10260000,,,6,4
35,104,0.5,0,1,10260001,,,6,8
59,104,0.1875,1,1,10260001,,,6,3
40,104,0.9375,2,1,10260001,,,6,15
40,104,0.25,3,1,10260001,,,6,4
52,104,0.1875,4,1,10260001,,,6,3
40,104,0.5625,5,1,10260001,,,6,9
52,104,0.25,6,1,10260001,,,6,4
40,104,0.625,7,1,10260001,,,6,10
40,104,0.9375,8,0,10260001,,,6,15
52,104,0.25,0,1,10260002,,,6,4
40,104,0.6875,1,1,10260002,,,6,11
40,104,0.3125,2,0,10260002,,,6,5
40,104,0.1875,3,0,10260002,,,6,3
49,104,0.5,0,1,10270000,,,6,8
37,104,0.6875,1,1,10270000,,,6,11
49,104,0.125,2,1,10270000,,,6,2
37,104,0.125,3,1,10270000,,,6,2
30,104,0.9375,4,1,10270000,,,6,15
30,104,0.5625,5,1,10270000,,,6,9
30,104,0.6875,6,0,10270000,,,6,11
30,104,0.375,7,0,10270000,,,6,6
54,104,0.25,0,1,10270001,,,6,4
49,104,0.1875,1,0,10270001,,,6,3
30,104,0.625,2,1,10270001,,,6,10
49,104,0.5,3,1,10270001,,,6,8
54,104,0.3125,4,0,10270001,,,6,5
30,104,0.1875,5,1,10270001,,,6,3
30,104,0.3125,6,0,10270001,,,6,5
49,104,0.375,7,1,10270001,,,6,6
30,104,0.625,8,1,10270001,,,6,10
30,104,0.5,9,0,10270001,,,6,8
54,104,0.25,10,1,10270001,,,6,4
54,104,0.5,0,1,10270002,,,6,8
62,104,0.3125,0,1,10280000,,,6,5
62,104,0.75,1,0,10280000,,,6,12
62,104,0.1875,2,1,10280000,,,6,3
53,104,0.25,3,1,10280000,,,6,4
53,104,0.375,4,0,10280000,,,6,6
53,104,0.375,5,0,10280000,,,6,6
60,104,0.25,6,1,10280000,,,6,4
48,104,0.3125,7,1,10280000,,,6,5
65,104,0.3125,8,1,10280000,,,6,5
53,104,0.75,9,1,10280000,,,6,12
53,104,0.4375,10,1,10280000,,,6,7
60,104,0.5,0,1,10280001,,,6,8
53,104,0.3125,1,1,10280001,,,6,5
53,104,0.9375,2,0,10280001,,,6,15
60,104,0.75,3,1,10280001,,,6,12
53,104,0.25,4,1,10280001,,,6,4
53,104,0.1875,5,0,10280001,,,6,3
53,104,0.625,6,0,10280001,,,6,10
41,104,0.1875,0,1,10290000,,,6,3
41,104,0.25,1,0,10290000,,,6,4
65,104,0.4375,2,1,10290000,,,6,7
55,104,0.8125,3,1,10290000,,,6,13
55,104,0.1875,4,1,10290000,,,6,3
53,104,0.25,5,0,10290000,,,6,4
65,104,0.9375,6,1,10290000,,,6,15
53,104,0.125,7,1,10290000,,,6,2
50,104,0.9375,8,0,10290000,,,6,15
65,104,0.9375,0,1,10290001,,,6,15
65,104,0.3125,1,1,10290001,,,6,5
39,104,0.75,2,1,10290001,,,6,12
58,104,0.375,3,1,10290001,,,6,6
65,104,0.625,4,1,10290001,,,6,10
51,104,0.5,5,1,10290001,,,6,8
53,104,0.3125,6,0,10290001,,,6,5
41,104,0.5,7,1,10290001,,,6,8
41,104,0.875,0,1,10290002,,,6,14
60,104,0.3125,1,1,10290002,,,6,5
51,104,0.8125,0,1,10300000,,,6,13
56,104,0.25,1,1,10300000,,,6,4
51,104,0.5625,2,0,10300000,,,6,9
51,104,0.375,3,0,10300000,,,6,6
58,104,0.4375,4,1,10300000,,,6,7
58,104,0.5625,5,0,10300000,,,6,9
53,104,0.125,6,0,10300000,,,6,2
58,104,0.4375,7,0,10300000,,,6,7
51,104,0.1875,8,1,10300000,,,6,3
51,104,0.1875,9,0,10300000,,,6,3
58,104,0.625,10,1,10300000,,,6,10
46,104,0.625,0,1,10300001,,,6,10
51,104,0.5625,1,0,10300001,,,6,9
51,104,0.1875,2,0,10300001,,,6,3
63,104,0.25,3,1,10300001,,,6,4
51,104,0.375,4,1,10300001,,,6,6
51,104,0.125,5,0,10300001,,,6,2
63,104,0.625,6,1,10300001,,,6,10
51,104,0.6875,7,1,10300001,,,6,11
56,104,0.1875,0,1,10300002,,,6,3
59,104,0.4375,0,1,10310000,,,6,7
62,104,0.3125,1,0,10310000,,,6,5
55,104,0.375,2,1,10310000,,,6,6
55,104,0.375,3,0,10310000,,,6,6
45,104,0.8125,4,1,10310000,,,6,13
57,104,0.3125,5,1,10310000,,,6,5
61,104,0.1875,6,0,10310000,,,6,3
50,104,0.9375,7,1,10310000,,,6,15
38,104,0.5625,8,1,10310000,,,6,9
50,104,0.6875,0,1,10310001,,,6,11
52,104,0.4375,0,1,10320000,,,6,7
57,104,0.1875,1,0,10320000,,,6,3
55,104,0.1875,2,0,10320000,,,6,3
55,104,0.9375,3,0,10320000,,,6,15
52,104,0.9375,4,1,10320000,,,6,15
55,104,0.5,5,1,10320000,,,6,8
53,104,0.5625,6,0,10320000,,,6,9
60,104,0.25,7,1,10320000,,,6,4
53,104,0.1875,0,1,10320001,,,6,3
50,104,0.75,1,0,10320001,,,6,12
50,104,0.125,2,1,10320001,,,6,2
50,104,0.25,3,0,10320001,,,6,4
52,104,0.875,4,0,10320001,,,6,14
48,104,0.3125,5,1,10320001,,,6,5
55,104,0.375,6,1,10320001,,,6,6
39,104,0.1875,0,1,10330000,,,6,3
53,104,0.5,1,1,10330000,,,6,8
48,104,0.1875,2,0,10330000,,,6,3
53,104,0.1875,3,0,10330000,,,6,3
41,104,0.3125,4,1,10330000,,,6,5
53,104,0.3125,5,1,10330000,,,6,5
46,104,0.5625,6,1,10330000,,,6,9
46,104,0.3125,7,0,10330000,,,6,5
66,104,0.1875,0,1,10340000,,,6,3
61,104,0.3125,1,0,10340000,,,6,5
54,104,0.5625,2,1,10340000,,,6,9
44,104,0.3125,3,1,10340000,,,6,5
49,104,0.625,4,0,10340000,,,6,10
37,104,0.3125,5,1,10340000,,,6,5
49,104,0.5625,6,1,10340000,,,6,9
37,104,0.375,7,1,10340000,,,6,6
32,104,0.5625,8,0,10340000,,,6,9
56,104,0.5625,9,1,10340000,,,6,9
32,104,0.125,0,1,10340001,,,6,2
32,104,0.1875,1,0,10340001,,,6,3
61,104,0.9375,2,1,10340001,,,6,15
49,104,0.5,3,1,10340001,,,6,8
61,104,0.875,4,1,10340001,,,6,14
64,104,0.5,0,1,10350000,,,6,8
57,104,0.8125,1,1,10350000,,,6,13
52,104,0.375,2,1,10350000,,,6,6
57,104,0.5625,3,0,10350000,,,6,9
57,104,0.3125,4,0,10350000,,,6,5
57,104,0.4375,5,0,10350000,,,6,7
59,104,0.25,6,0,10350000,,,6,4
59,104,0.9375,7,0,10350000,,,6,15
64,104,0.5,0,1,10350001,,,6,8
52,104,0.1875,1,1,10350001,,,6,3
64,104,0.3125,2,1,10350001,,,6,5
52,104,0.5625,3,1,10350001,,,6,9
64,104,0.4375,4,1,10350001,,,6,7
52,104,0.3125,5,1,10350001,,,6,5
64,104,0.4375,6,1,10350001,,,6,7
52,104,0.625,7,1,10350001,,,6,10
52,104,0.25,8,0,10350001,,,6,4
52,104,0.9375,9,0,10350001,,,6,15
57,104,0.1875,0,1,10350002,,,6,3
61,104,0.4375,1,0,10350002,,,6,7
54,104,0.1875,2,1,10350002,,,6,3
54,104,0.3125,3,0,10350002,,,6,5
54,104,0.3125,4,0,10350002,,,6,5
54,104,0.875,5,0,10350002,,,6,14
45,104,0.6875,0,1,10360000,,,6,11
64,104,0.6875,1,1,10360000,,,6,11
62,104,0.1875,2,0,10360000,,,6,3
59,104,0.3125,3,0,10360000,,,6,5
62,104,0.9375,4,0,10360000,,,6,15
50,104,0.4375,5,1,10360000,,,6,7
50,104,0.1875,6,0,10360000,,,6,3
57,104,0.4375,7,1,10360000,,,6,7
62,104,0.375,8,0,10360000,,,6,6
57,104,0.25,0,1,10360001,,,6,4
62,104,0.9375,1,0,10360001,,,6,15
57,104,0.875,2,1,10360001,,,6,14
57,104,0.375,3,1,10360001,,,6,6
57,104,0.375,4,0,10360001,,,6,6
50,104,0.1875,5,1,10360001,,,6,3
57,104,0.4375,6,1,10360001,,,6,7
57,104,0.375,7,0,10360001,,,6,6
59,104,0.375,0,1,10360002,,,6,6
45,104,0.375,0,1,10370000,,,6,6
45,104,0.5,1,0,10370000,,,6,8
45,104,0.5,2,0,10370000,,,6,8
45,104,0.4375,3,0,10370000,,,6,7
57,104,0.1875,4,1,10370000,,,6,3
45,104,0.375,5,1,10370000,,,6,6
45,104,0.5,6,0,10370000,,,6,8
45,104,0.5625,7,0,10370000,,,6,9
44,104,0.5,8,0,10370000,,,6,8
44,104,0.5625,9,0,10370000,,,6,9
44,104,0.9375,0,1,10370001,,,6,15
44,104,0.5625,1,1,10370001,,,6,9
44,104,0.5,2,0,10370001,,,6,8
49,104,0.9375,3,0,10370001,,,6,15
49,104,0.875,4,1,10370001,,,6,14
49,104,0.9375,0,1,10370002,,,6,15
49,104,0.5,1,1,10370002,,,6,8
60,104,0.9375,0,1,10380000,,,6,15
46,104,0.9375,1,1,10380000,,,6,15
34,104,0.9375,2,1,10380000,,,6,15
34,104,0.75,3,1,10380000,,,6,12
34,104,0.9375,4,1,10380000,,,6,15
34,104,0.25,0,1,10380001,,,6,4
53,104,0.1875,1,1,10380001,,,6,3
34,104,0.5,2,1,10380001,,,6,8
46,104,0.8125,3,1,10380001,,,6,13
34,104,0.25,4,1,10380001,,,6,4
53,104,0.1875,5,1,10380001,,,6,3
53,104,0.3125,6,0,10380001,,,6,5
46,104,0.6875,7,1,10380001,,,6,11
34,104,0.9375,8,1,10380001,,,6,15
58,104,0.6875,0,1,10380002,,,6,11
34,104,0.375,1,1,10380002,,,6,6
34,104,0.25,2,0,10380002,,,6,4
50,104,0.9375,0,1,10390000,,,6,15
69,104,0.25,1,1,10390000,,,6,4
50,104,0.25,2,1,10390000,,,6,4
67,104,0.1875,3,1,10390000,,,6,3
50,104,0.4375,4,1,10390000,,,6,7
50,104,0.3125,5,0,10390000,,,6,5
50,104,0.25,6,0,10390000,,,6,4
50,104,0.1875,7,0,10390000,,,6,3
50,104,0.375,8,0,10390000,,,6,6
31,104,0.375,9,1,10390000,,,6,6
31,104,0.9375,10,0,10390000,,,6,15
50,104,0.125,0,1,10390001,,,6,2
31,104,0.9375,1,1,10390001,,,6,15
50,104,0.1875,2,1,10390001,,,6,3
31,104,0.1875,3,1,10390001,,,6,3
45,104,0.75,0,1,10400000,,,6,12
52,104,0.4375,1,1,10400000,,,6,7
52,104,0.9375,2,0,10400000,,,6,15
61,104,0.9375,3,1,10400000,,,6,15
38,104,0.5625,4,1,10400000,,,6,9
50,104,0.1875,5,1,10400000,,,6,3
38,104,0.375,6,1,10400000,,,6,6
57,104,0.375,0,1,10400001,,,6,6
57,104,0.375,1,0,10400001,,,6,6
57,104,0.125,2,0,10400001,,,6,2
57,104,0.9375,3,0,10400001,,,6,15
50,104,0.25,4,1,10400001,,,6,4
57,104,0.1875,5,1,10400001,,,6,3
33,104,0.1875,6,1,10400001,,,6,3
33,104,0.0625,7,0,10400001,,,6,1
50,104,0.4375,0,1,10410000,,,6,7
38,104,0.25,1,1,10410000,,,6,4
50,104,0.4375,2,1,10410000,,,6,7
50,104,0.375,3,0,10410000,,,6,6
38,104,0.5,4,1,10410000,,,6,8
38,104,0.5625,5,0,10410000,,,6,9
57,104,0.25,6,1,10410000,,,6,4
50,104,0.9375,7,1,10410000,,,6,15
50,104,0.5625,8,1,10410000,,,6,9
50,104,0.1875,0,1,10410001,,,6,3
50,104,0.1875,1,0,10410001,,,6,3
45,104,0.5625,2,0,10410001,,,6,9
45,104,0.5,3,0,10410001,,,6,8
45,104,0.375,4,0,10410001,,,6,6
45,104,0.25,5,0,10410001,,,6,4
33,104,0.9375,6,1,10410001,,,6,15
53,104,0.25,0,1,10420000,,,6,4
53,104,0.1875,1,0,10420000,,,6,3
53,104,0.8125,2,0,10420000,,,6,13
58,104,0.1875,3,1,10420000,,,6,3
46,104,0.375,4,1,10420000,,,6,6
34,104,0.4375,5,1,10420000,,,6,7
34,104,0.4375,6,0,10420000,,,6,7
34,104,0.375,7,0,10420000,,,6,6
46,104,0.3125,8,1,10420000,,,6,5
34,104,0.75,9,1,10420000,,,6,12
45,104,0.4375,0,1,10420001,,,6,7
60,104,0.875,1,1,10420001,,,6,14
43,104,0.5,2,1,10420001,,,6,8
31,104,0.375,3,1,10420001,,,6,6
50,104,0.6875,4,1,10420001,,,6,11
65,104,0.1875,5,1,10420001,,,6,3
56,104,0.5625,0,1,10430000,,,6,9
63,104,0.75,1,1,10430000,,,6,12
51,104,0.375,2,1,10430000,,,6,6
63,104,0.5,3,1,10430000,,,6,8
56,104,0.25,4,1,10430000,,,6,4
56,104,0.375,5,0,10430000,,,6,6
56,104,0.375,6,0,10430000,,,6,6
44,104,0.3125,7,1,10430000,,,6,5
32,104,0.4375,8,1,10430000,,,6,7
63,104,0.9375,9,1,10430000,,,6,15
56,104,0.9375,0,1,10430001,,,6,15
63,104,0.375,1,1,10430001,,,6,6
63,104,0.625,2,0,10430001,,,6,10
49,104,0.25,3,1,10430001,,,6,4
51,104,0.9375,4,0,10430001,,,6,15
56,104,0.375,0,1,10430002,,,6,6
63,104,0.375,1,1,10430002,,,6,6
51,104,0.625,2,1,10430002,,,6,10
61,104,0.3125,0,1,10440000,,,6,5
57,104,0.1875,1,0,10440000,,,6,3
40,104,0.375,2,1,10440000,,,6,6
40,104,0.125,3,0,10440000,,,6,2
54,104,0.9375,4,1,10440000,,,6,15
54,104,0.4375,5,1,10440000,,,6,7
62,104,0.1875,6,1,10440000,,,6,3
50,104,0.625,7,1,10440000,,,6,10
50,104,0.1875,8,0,10440000,,,6,3
57,104,0.125,9,1,10440000,,,6,2
57,104,0.5625,10,0,10440000,,,6,9
57,104,0.25,0,1,10440001,,,6,4
52,104,0.875,1,0,10440001,,,6,14
52,104,0.1875,2,1,10440001,,,6,3
64,104,0.1875,3,1,10440001,,,6,3
54,104,0.625,4,1,10440001,,,6,10
54,104,0.9375,0,1,10450000,,,6,15
54,104,0.5625,1,1,10450000,,,6,9
57,104,0.25,2,0,10450000,,,6,4
64,104,0.4375,3,1,10450000,,,6,7
54,104,0.25,4,1,10450000,,,6,4
54,104,0.75,5,0,10450000,,,6,12
54,104,0.25,6,1,10450000,,,6,4
50,104,0.9375,7,0,10450000,,,6,15
66,104,0.375,0,1,10450001,,,6,6
66,104,0.375,1,0,10450001,,,6,6
69,104,0.25,2,0,10450001,,,6,4
45,104,0.6875,3,1,10450001,,,6,11
45,104,0.375,4,0,10450001,,,6,6
45,104,0.9375,5,0,10450001,,,6,15
52,104,0.875,6,1,10450001,,,6,14
40,104,0.625,0,1,10450002,,,6,10
59,104,0.5,1,1,10450002,,,6,8
40,104,0.25,2,1,10450002,,,6,4
52,104,0.3125,3,1,10450002,,,6,5
59,104,0.1875,4,1,10450002,,,6,3
58,104,0.5625,0,1,10460000,,,6,9
54,104,0.1875,1,0,10460000,,,6,3
57,104,0.375,2,0,10460000,,,6,6
57,104,0.375,3,0,10460000,,,6,6
59,104,0.3125,4,0,10460000,,,6,5
52,104,0.5625,5,1,10460000,,,6,9
61,104,0.9375,6,1,10460000,,,6,15
52,104,0.25,7,1,10460000,,,6,4
45,104,0.25,8,1,10460000,,,6,4
61,104,0.375,9,1,10460000,,,6,6
45,104,0.3125,0,1,10460001,,,6,5
61,104,0.375,1,1,10460001,,,6,6
83,104,0.1875,0,1,10470000,,,6,3
49,104,0.9375,1,1,10470000,,,6,15
59,104,0.25,2,1,10470000,,,6,4
49,104,0.9375,3,1,10470000,,,6,15
54,104,0.8125,4,1,10470000,,,6,13
58,104,0.9375,5,1,10470000,,,6,15
58,104,0.75,0,1,10470001,,,6,12
58,104,0.6875,1,1,10470001,,,6,11
54,104,0.75,2,0,10470001,,,6,12
58,104,0.75,3,1,10470001,,,6,12
43,104,0.875,0,1,10480000,,,6,14
31,104,0.25,1,1,10480000,,,6,4
43,104,0.9375,2,1,10480000,,,6,15
31,104,0.6875,3,1,10480000,,,6,11
31,104,0.5,4,0,10480000,,,6,8
31,104,0.9375,5,0,10480000,,,6,15
31,104,0.1875,0,1,10480001,,,6,3
43,104,0.1875,1,1,10480001,,,6,3
31,104,0.25,2,1,10480001,,,6,4
50,104,0.125,3,1,10480001,,,6,2
50,104,0.9375,4,0,10480001,,,6,15
50,104,0.5,5,1,10480001,,,6,8
31,104,0.125,6,1,10480001,,,6,2
50,104,0.1875,7,1,10480001,,,6,3
50,104,0.1875,8,0,10480001,,,6,3
50,104,0.1875,9,0,10480001,,,6,3
50,104,0.375,10,0,10480001,,,6,6
50,104,0.25,11,0,10480001,,,6,4
50,104,0.125,12,0,10480001,,,6,2
34,104,0.6875,0,1,10490000,,,6,11
53,104,0.1875,1,1,10490000,,,6,3
41,104,0.3125,2,1,10490000,,,6,5
29,104,0.875,3,1,10490000,,,6,14
29,104,0.625,4,1,10490000,,,6,10
29,104,0.1875,5,0,10490000,,,6,3
55,104,0.375,6,1,10490000,,,6,6
45,104,0.3125,7,1,10490000,,,6,5
57,104,0.9375,8,1,10490000,,,6,15
57,104,0.3125,0,1,10490001,,,6,5
58,104,0.375,0,1,10500000,,,6,6
58,104,0.9375,1,0,10500000,,,6,15
61,104,0.3125,2,1,10500000,,,6,5
60,104,0.3125,3,0,10500000,,,6,5
63,104,0.9375,4,0,10500000,,,6,15
56,104,0.375,5,1,10500000,,,6,6
63,104,0.9375,6,1,10500000,,,6,15
51,104,0.3125,0,1,10500001,,,6,5
63,104,0.9375,1,1,10500001,,,6,15
51,104,0.125,2,1,10500001,,,6,2
63,104,0.8125,3,1,10500001,,,6,13
63,104,0.4375,4,1,10500001,,,6,7
63,104,0.9375,5,0,10500001,,,6,15
63,104,0.8125,6,1,10500001,,,6,13
45,104,0.375,0,1,10510000,,,6,6
61,104,0.9375,1,1,10510000,,,6,15
62,104,0.4375,2,1,10510000,,,6,7
62,104,0.9375,3,0,10510000,,,6,15
62,104,0.1875,4,1,10510000,,,6,3
62,104,0.1875,5,0,10510000,,,6,3
47,104,0.375,6,1,10510000,,,6,6
59,104,0.25,7,1,10510000,,,6,4
59,104,0.9375,8,0,10510000,,,6,15
61,104,0.625,0,1,10510001,,,6,10
57,104,0.6875,1,0,10510001,,,6,11
58,104,0.4375,2,0,10510001,,,6,7
61,104,0.3125,3,0,10510001,,,6,5
50,104,0.9375,0,1,10520000,,,6,15
60,104,0.1875,1,1,10520000,,,6,3
62,104,0.25,2,0,10520000,,,6,4
55,104,0.625,3,1,10520000,,,6,10
55,104,0.1875,4,0,10520000,,,6,3
48,104,0.4375,5,1,10520000,,,6,7
48,104,0.25,6,0,10520000,,,6,4
60,104,0.9375,7,1,10520000,,,6,15
60,104,0.9375,8,1,10520000,,,6,15
53,104,0.375,0,1,10520001,,,6,6
59,104,0.125,0,1,10530000,,,6,2
59,104,0.3125,1,0,10530000,,,6,5
35,104,0.1875,2,1,10530000,,,6,3
59,104,0.1875,3,1,10530000,,,6,3
49,104,0.1875,4,1,10530000,,,6,3
49,104,0.6875,5,0,10530000,,,6,11
61,104,0.25,6,1,10530000,,,6,4
49,104,0.1875,7,1,10530000,,,6,3
49,104,0.5625,8,0,10530000,,,6,9
49,104,0.25,9,0,10530000,,,6,4
56,104,0.25,10,1,10530000,,,6,4
37,104,0.1875,11,1,10530000,,,6,3
49,104,0.1875,12,1,10530000,,,6,3
49,104,0.875,13,0,10530000,,,6,14
49,104,0.1875,0,1,10530001,,,6,3
56,104,0.3125,1,1,10530001,,,6,5
45,104,0.1875,2,1,10530001,,,6,3
52,104,0.1875,3,1,10530001,,,6,3
54,104,0.3125,0,1,10540000,,,6,5
63,104,0.375,1,1,10540000,,,6,6
63,104,0.5625,2,0,10540000,,,6,9
59,104,0.4375,3,0,10540000,,,6,7
63,104,0.125,4,0,10540000,,,6,2
54,104,0.125,5,1,10540000,,,6,2
64,104,0.375,6,1,10540000,,,6,6
64,104,0.1875,7,0,10540000,,,6,3
52,104,0.375,8,1,10540000,,,6,6
52,104,0.3125,9,0,10540000,,,6,5
52,104,0.3125,10,0,10540000,,,6,5
52,104,0.3125,11,0,10540000,,,6,5
47,104,0.1875,12,0,10540000,,,6,3
64,104,0.1875,0,1,10540001,,,6,3
59,104,0.25,1,0,10540001,,,6,4
54,104,0.4375,2,0,10540001,,,6,7
54,104,0.3125,3,0,10540001,,,6,5
50,104,0.5625,0,1,10550000,,,6,9
62,104,0.375,1,1,10550000,,,6,6
62,104,0.25,2,0,10550000,,,6,4
62,104,0.25,3,0,10550000,,,6,4
50,104,0.4375,4,1,10550000,,,6,7
62,104,0.1875,5,1,10550000,,,6,3
50,104,0.3125,6,1,10550000,,,6,5
50,104,0.4375,7,0,10550000,,,6,7
62,104,0.1875,8,1,10550000,,,6,3
62,104,0.125,9,0,10550000,,,6,2
60,104,0.9375,10,0,10550000,,,6,15
60,104,0.6875,0,1,10550001,,,6,11
57,104,0.375,1,0,10550001,,,6,6
60,104,0.25,2,0,10550001,,,6,4
53,104,0.3125,3,1,10550001,,,6,5
59,104,0.125,4,0,10550001,,,6,2
59,104,0.625,5,0,10550001,,,6,10
60,104,0.125,6,0,10550001,,,6,2
60,104,0.9375,7,0,10550001,,,6,15
54,104,0.375,0,1,10560000,,,6,6
54,104,0.25,1,0,10560000,,,6,4
66,104,0.3125,2,1,10560000,,,6,5
61,104,0.25,3,0,10560000,,,6,4
33,104,0.375,4,1,10560000,,,6,6
45,104,0.1875,5,1,10560000,,,6,3
45,104,0.1875,6,0,10560000,,,6,3
64,104,0.1875,7,1,10560000,,,6,3
61,104,0.3125,8,0,10560000,,,6,5
47,104,0.25,9,1,10560000,,,6,4
59,104,0.25,10,1,10560000,,,6,4
59,104,0.1875,11,0,10560000,,,6,3
59,104,0.5625,12,0,10560000,,,6,9
71,104,0.1875,13,1,10560000,,,6,3
59,104,0.375,14,1,10560000,,,6,6
64,104,0.375,0,1,10570000,,,6,6
61,104,0.3125,1,0,10570000,,,6,5
61,104,0.125,2,0,10570000,,,6,2
64,104,0.4375,3,0,10570000,,,6,7
49,104,0.5625,4,1,10570000,,,6,9
64,104,0.25,5,1,10570000,,,6,4
64,104,0.125,6,0,10570000,,,6,2
49,104,0.5,7,1,10570000,,,6,8
54,104,0.1875,8,0,10570000,,,6,3
52,104,0.1875,9,0,10570000,,,6,3
49,104,0.1875,10,0,10570000,,,6,3
64,104,0.25,11,1,10570000,,,6,4
61,104,0.1875,12,0,10570000,,,6,3
61,104,0.4375,13,0,10570000,,,6,7
33,104,0.6875,0,1,10580000,,,6,11
33,104,0.9375,1,0,10580000,,,6,15
57,104,0.5,2,1,10580000,,,6,8
50,104,0.125,3,1,10580000,,,6,2
54,104,0.5625,4,0,10580000,,,6,9
69,104,0.375,5,1,10580000,,,6,6
69,104,0.125,6,0,10580000,,,6,2
50,104,0.3125,7,1,10580000,,,6,5
50,104,0.9375,8,0,10580000,,,6,15
57,104,0.9375,0,1,10580001,,,6,15
69,104,0.125,1,1,10580001,,,6,2
56,104,0.5625,2,1,10580001,,,6,9
56,104,0.125,3,0,10580001,,,6,2
59,104,0.375,4,0,10580001,,,6,6
40,104,0.3125,5,1,10580001,,,6,5
40,104,0.5,6,0,10580001,,,6,8
50,104,0.9375,7,1,10580001,,,6,15
59,104,0.1875,0,1,10580002,,,6,3
52,104,0.25,1,1,10580002,,,6,4
52,104,0.1875,0,1,10590000,,,6,3
59,104,0.6875,1,1,10590000,,,6,11
35,104,0.25,2,1,10590000,,,6,4
59,104,0.5625,3,1,10590000,,,6,9
59,104,0.1875,4,0,10590000,,,6,3
49,104,0.5625,5,1,10590000,,,6,9
64,104,0.1875,6,1,10590000,,,6,3
64,104,0.25,7,0,10590000,,,6,4
64,104,0.4375,8,0,10590000,,,6,7
49,104,0.75,9,1,10590000,,,6,12
64,104,0.9375,0,1,10590001,,,6,15
64,104,0.125,1,1,10590001,,,6,2
50,104,0.9375,0,1,10600000,,,6,15
50,104,0.75,1,1,10600000,,,6,12
50,104,0.25,2,1,10600000,,,6,4
64,104,0.125,3,1,10600000,,,6,2
50,104,0.375,4,1,10600000,,,6,6
50,104,0.1875,5,0,10600000,,,6,3
47,104,0.9375,6,0,10600000,,,6,15
47,104,0.1875,7,1,10600000,,,6,3
52,104,0.3125,8,0,10600000,,,6,5
47,104,0.1875,0,1,10600001,,,6,3
52,104,0.6875,1,0,10600001,,,6,11
52,104,0.625,2,0,10600001,,,6,10
52,104,0.25,3,0,10600001,,,6,4
52,104,0.1875,4,0,10600001,,,6,3
60,104,0.1875,0,1,10610000,,,6,3
36,104,0.125,1,1,10610000,,,6,2
36,104,0.4375,2,0,10610000,,,6,7
36,104,0.1875,3,0,10610000,,,6,3
36,104,0.875,4,0,10610000,,,6,14
47,104,0.3125,5,1,10610000,,,6,5
35,104,0.25,6,1,10610000,,,6,4
47,104,0.875,7,1,10610000,,,6,14
62,104,0.125,8,1,10610000,,,6,2
47,104,0.9375,9,1,10610000,,,6,15
58,104,0.1875,0,1,10620000,,,6,3
51,104,0.1875,1,1,10620000,,,6,3
51,104,0.9375,2,0,10620000,,,6,15
39,104,0.5,3,1,10620000,,,6,8
51,104,0.9375,4,1,10620000,,,6,15
58,104,0.625,5,1,10620000,,,6,10
53,104,0.375,6,0,10620000,,,6,6
53,104,0.25,7,0,10620000,,,6,4
34,104,0.9375,0,1,10620001,,,6,15
34,104,0.4375,1,1,10620001,,,6,7
53,104,0.1875,2,1,10620001,,,6,3
34,104,0.6875,3,1,10620001,,,6,11
53,104,0.9375,4,1,10620001,,,6,15
34,104,0.625,5,1,10620001,,,6,10
53,104,0.625,6,1,10620001,,,6,10
48,104,0.9375,0,1,10620002,,,6,15
53,104,0.1875,1,1,10620002,,,6,3
65,104,0.1875,2,1,10620002,,,6,3
50,104,0.375,0,1,10630000,,,6,6
50,104,0.9375,1,0,10630000,,,6,15
52,104,0.625,2,1,10630000,,,6,10
56,104,0.4375,3,0,10630000,,,6,7
52,104,0.1875,4,0,10630000,,,6,3
52,104,0.3125,5,0,10630000,,,6,5
33,104,0.75,6,1,10630000,,,6,12
45,104,0.25,7,1,10630000,,,6,4
45,104,0.5625,8,0,10630000,,,6,9
33,104,0.6875,0,1,10630001,,,6,11
45,104,0.1875,1,1,10630001,,,6,3
45,104,0.4375,2,0,10630001,,,6,7
28,104,0.6875,3,1,10630001,,,6,11
47,104,0.4375,4,1,10630001,,,6,7
47,104,0.25,5,0,10630001,,,6,4
47,104,0.625,6,0,10630001,,,6,10
50,104,0.8125,7,0,10630001,,,6,13
50,104,0.25,0,1,10630002,,,6,4
64,104,0.9375,0,1,10640000,,,6,15
57,104,0.5,1,1,10640000,,,6,8
64,104,0.875,2,1,10640000,,,6,14
57,104,0.5,3,1,10640000,,,6,8
54,104,0.125,4,0,10640000,,,6,2
47,104,0.125,5,1,10640000,,,6,2
62,104,0.25,6,1,10640000,,,6,4
62,104,0.1875,7,0,10640000,,,6,3
62,104,0.9375,8,0,10640000,,,6,15
57,104,0.375,0,1,10640001,,,6,6
62,104,0.1875,1,0,10640001,,,6,3
62,104,0.9375,2,0,10640001,,,6,15
62,104,0.9375,3,1,10640001,,,6,15
62,104,0.4375,4,1,10640001,,,6,7
64,104,0.25,0,1,10650000,,,6,4
54,104,0.125,1,1,10650000,,,6,2
63,104,0.1875,2,1,10650000,,,6,3
35,104,0.1875,3,1,10650000,,,6,3
63,104,0.125,4,1,10650000,,,6,2
35,104,0.25,5,1,10650000,,,6,4
54,104,0.125,6,1,10650000,,,6,2
54,104,0.375,7,0,10650000,,,6,6
66,104,0.1875,8,1,10650000,,,6,3
54,104,0.1875,9,1,10650000,,,6,3
42,104,0.1875,10,1,10650000,,,6,3
54,104,0.3125,11,1,10650000,,,6,5
63,104,0.375,12,1,10650000,,,6,6
63,104,0.3125,13,0,10650000,,,6,5
59,104,0.1875,14,0,10650000,,,6,3
66,104,0.125,15,1,10650000,,,6,2
54,104,0.4375,16,1,10650000,,,6,7
66,104,0.25,17,1,10650000,,,6,4
42,104,0.1875,0,1,10650001,,,6,3
56,104,0.875,0,1,10660000,,,6,14
47,104,0.75,1,1,10660000,,,6,12
50,104,0.9375,2,1,10660000,,,6,15
83,104,0.25,3,1,10660000,,,6,4
50,104,0.9375,4,1,10660000,,,6,15
50,104,0.25,5,1,10660000,,,6,4
50,104,0.9375,0,1,10660001,,,6,15
38,104,0.5625,1,1,10660001,,,6,9
38,104,0.5625,2,0,10660001,,,6,9
50,104,0.9375,3,1,10660001,,,6,15
50,104,0.125,4,1,10660001,,,6,2
64,104,0.375,0,1,10670000,,,6,6
59,104,0.5625,1,0,10670000,,,6,9
52,104,0.375,2,1,10670000,,,6,6
64,104,0.25,3,1,10670000,,,6,4
40,104,0.3125,4,1,10670000,,,6,5
40,104,0.5,5,0,10670000,,,6,8
33,104,0.5625,6,1,10670000,,,6,9
59,104,0.4375,7,1,10670000,,,6,7
52,104,0.375,8,1,10670000,,,6,6
59,104,0.4375,9,1,10670000,,,6,7
35,104,0.8125,0,1,10670001,,,6,13
59,104,0.375,1,1,10670001,,,6,6
35,104,0.4375,2,1,10670001,,,6,7
47,104,0.25,3,1,10670001,,,6,4
35,104,0.8125,4,1,10670001,,,6,13
64,104,0.9375,0,1,10680000,,,6,15
64,104,0.1875,1,1,10680000,,,6,3
45,104,0.9375,2,1,10680000,,,6,15
64,104,0.5625,3,1,10680000,,,6,9
59,104,0.3125,4,0,10680000,,,6,5
64,104,0.6875,5,0,10680000,,,6,11
52,104,0.9375,6,1,10680000,,,6,15
40,104,0.3125,0,1,10680001,,,6,5
52,104,0.5,1,1,10680001,,,6,8
47,104,0.9375,2,0,10680001,,,6,15
61,104,0.6875,0,1,10690000,,,6,11
61,104,0.1875,1,0,10690000,,,6,3
54,104,0.375,2,1,10690000,,,6,6
56,104,0.4375,3,0,10690000,,,6,7
33,104,0.3125,4,1,10690000,,,6,5
52,104,0.3125,5,1,10690000,,,6,5
59,104,0.25,6,1,10690000,,,6,4
64,104,0.375,7,0,10690000,,,6,6
45,104,0.25,8,1,10690000,,,6,4
40,104,0.1875,9,0,10690000,,,6,3
35,104,0.3125,10,0,10690000,,,6,5
35,104,0.1875,11,0,10690000,,,6,3
47,104,0.25,12,1,10690000,,,6,4
59,104,0.1875,0,1,10690001,,,6,3
35,104,0.1875,1,1,10690001,,,6,3
35,104,0.125,2,0,10690001,,,6,2
52,104,0.375,0,1,10700000,,,6,6
52,104,0.4375,1,0,10700000,,,6,7
52,104,0.625,2,0,10700000,,,6,10
64,104,0.25,3,1,10700000,,,6,4
49,104,0.5625,4,1,10700000,,,6,9
49,104,0.375,5,0,10700000,,,6,6
50,104,0.1875,6,0,10700000,,,6,3
52,104,0.25,7,0,10700000,,,6,4
52,104,0.5625,8,0,10700000,,,6,9
50,104,0.375,9,0,10700000,,,6,6
57,104,0.9375,0,1,10710000,,,6,15
57,104,0.5,1,1,10710000,,,6,8
64,104,0.3125,2,1,10710000,,,6,5
61,104,0.1875,3,0,10710000,,,6,3
49,104,0.3125,4,1,10710000,,,6,5
57,104,0.9375,5,1,10710000,,,6,15
54,104,0.375,6,1,10710000,,,6,6
54,104,0.1875,7,0,10710000,,,6,3
69,104,0.1875,8,1,10710000,,,6,3
54,104,0.375,9,1,10710000,,,6,6
54,104,0.5,0,1,10710001,,,6,8
69,104,0.1875,1,1,10710001,,,6,3
54,104,0.625,2,1,10710001,,,6,10
54,104,0.1875,3,0,10710001,,,6,3
52,104,0.625,4,0,10710001,,,6,10
61,104,0.25,5,1,10710001,,,6,4
52,104,0.5,6,1,10710001,,,6,8
52,104,0.375,7,0,10710001,,,6,6
52,104,0.625,8,0,10710001,,,6,10
61,104,0.125,0,1,10710002,,,6,2
57,104,0.9375,0,1,10720000,,,6,15
57,104,0.25,1,1,10720000,,,6,4
57,104,0.75,2,0,10720000,,,6,12
57,104,0.3125,3,1,10720000,,,6,5
57,104,0.9375,4,0,10720000,,,6,15
60,104,0.9375,0,1,10730000,,,6,15
60,104,0.6875,1,1,10730000,,,6,11
58,104,0.9375,2,0,10730000,,,6,15
58,104,0.9375,3,1,10730000,,,6,15
58,104,0.3125,4,1,10730000,,,6,5
60,104,0.9375,5,0,10730000,,,6,15
58,104,0.5,0,1,10730001,,,6,8
58,104,0.3125,1,0,10730001,,,6,5
58,104,0.6875,2,0,10730001,,,6,11
60,104,0.1875,3,0,10730001,,,6,3
60,104,0.25,4,0,10730001,,,6,4
58,104,0.9375,5,0,10730001,,,6,15
48,104,0.3125,0,1,10740000,,,6,5
55,104,0.3125,1,1,10740000,,,6,5
55,104,0.375,2,0,10740000,,,6,6
57,104,0.3125,3,0,10740000,,,6,5
50,104,0.625,4,1,10740000,,,6,10
50,104,0.375,5,0,10740000,,,6,6
50,104,0.9375,6,0,10740000,,,6,15
57,104,0.3125,7,1,10740000,,,6,5
57,104,0.5,8,0,10740000,,,6,8
57,104,0.25,0,1,10740001,,,6,4
53,104,0.9375,1,0,10740001,,,6,15
53,104,0.1875,2,1,10740001,,,6,3
34,104,0.3125,3,1,10740001,,,6,5
53,104,0.25,4,1,10740001,,,6,4
53,104,0.625,5,0,10740001,,,6,10
53,104,0.9375,6,0,10740001,,,6,15
53,104,0.8125,7,1,10740001,,,6,13
53,104,0.4375,0,1,10740002,,,6,7
53,104,0.25,1,0,10740002,,,6,4
53,104,0.3125,2,0,10740002,,,6,5
55,104,0.4375,3,0,10740002,,,6,7
48,104,0.375,4,1,10740002,,,6,6
63,104,0.875,0,1,10750000,,,6,14
63,104,0.1875,1,1,10750000,,,6,3
63,104,0.25,2,0,10750000,,,6,4
46,104,0.1875,3,1,10750000,,,6,3
46,104,0.1875,4,0,10750000,,,6,3
46,104,0.8125,5,0,10750000,,,6,13
58,104,0.25,6,1,10750000,,,6,4
46,104,0.25,7,1,10750000,,,6,4
46,104,0.5,8,0,10750000,,,6,8
46,104,0.1875,9,0,10750000,,,6,3
46,104,0.5625,10,0,10750000,,,6,9
35,104,0.375,0,1,10760000,,,6,6
35,104,0.25,1,0,10760000,,,6,4
47,104,0.4375,2,1,10760000,,,6,7
35,104,0.5,3,1,10760000,,,6,8
47,104,0.25,4,1,10760000,,,6,4
59,104,0.1875,5,1,10760000,,,6,3
49,104,0.4375,6,1,10760000,,,6,7
61,104,0.375,7,1,10760000,,,6,6
49,104,0.25,8,1,10760000,,,6,4
64,104,0.375,9,1,10760000,,,6,6
59,104,0.25,10,0,10760000,,,6,4
59,104,0.1875,11,0,10760000,,,6,3
54,104,0.75,12,0,10760000,,,6,12
59,104,0.6875,0,1,10760001,,,6,11
64,104,0.1875,1,0,10760001,,,6,3
33,104,0.5,2,1,10760001,,,6,8
45,104,0.5625,3,1,10760001,,,6,9
33,104,0.1875,4,1,10760001,,,6,3
55,104,0.3125,0,1,10770000,,,6,5
60,104,0.1875,1,0,10770000,,,6,3
60,104,0.25,2,0,10770000,,,6,4
63,104,0.1875,3,0,10770000,,,6,3
48,104,0.1875,4,1,10770000,,,6,3
51,104,0.3125,5,0,10770000,,,6,5
53,104,0.8125,6,0,10770000,,,6,13
53,104,0.375,7,1,10770000,,,6,6
53,104,0.375,8,0,10770000,,,6,6
29,104,0.25,9,1,10770000,,,6,4
53,104,0.1875,10,1,10770000,,,6,3
55,104,0.375,11,0,10770000,,,6,6
53,104,0.1875,12,0,10770000,,,6,3
55,104,0.875,0,1,10770001,,,6,14
56,104,0.3125,1,1,10770001,,,6,5
51,104,0.1875,2,0,10770001,,,6,3
56,104,0.1875,3,0,10770001,,,6,3
56,104,0.3125,4,0,10770001,,,6,5
51,104,0.1875,5,0,10770001,,,6,3
56,104,0.4375,6,0,10770001,,,6,7
56,104,0.25,7,0,10770001,,,6,4
27,104,0.1875,0,1,10780000,,,6,3
29,104,0.9375,1,0,10780000,,,6,15
53,104,0.3125,2,1,10780000,,,6,5
41,104,0.1875,3,1,10780000,,,6,3
29,104,0.4375,4,1,10780000,,,6,7
41,104,0.1875,5,1,10780000,,,6,3
53,104,0.4375,6,1,10780000,,,6,7
34,104,0.5625,7,1,10780000,,,6,9
46,104,0.5625,8,1,10780000,,,6,9
34,104,0.3125,9,1,10780000,,,6,5
58,104,0.4375,0,1,10780001,,,6,7
34,104,0.3125,1,1,10780001,,,6,5
58,104,0.5625,2,1,10780001,,,6,9
43,104,0.1875,3,1,10780001,,,6,3
39,104,0.25,4,0,10780001,,,6,4
29,104,0.25,5,1,10780001,,,6,4
49,104,0.9375,0,1,10790000,,,6,15
49,104,0.25,1,1,10790000,,,6,4
50,104,0.125,2,0,10790000,,,6,2
54,104,0.1875,3,0,10790000,,,6,3
58,104,0.5,4,0,10790000,,,6,8
58,104,0.4375,5,0,10790000,,,6,7
54,104,0.3125,6,0,10790000,,,6,5
54,104,0.25,7,0,10790000,,,6,4
64,104,0.25,8,1,10790000,,,6,4
47,104,0.625,9,1,10790000,,,6,10
47,104,0.875,10,0,10790000,,,6,14
47,104,0.75,0,1,10790001,,,6,12
47,104,0.875,1,1,10790001,,,6,14
47,104,0.75,2,1,10790001,,,6,12
47,104,0.6875,3,1,10790001,,,6,11
38,104,0.1875,0,1,10800000,,,6,3
38,104,0.1875,1,0,10800000,,,6,3
61,104,0.4375,2,1,10800000,,,6,7
61,104,0.9375,3,0,10800000,,,6,15
61,104,0.5625,4,1,10800000,,,6,9
45,104,0.75,5,1,10800000,,,6,12
61,104,0.375,6,1,10800000,,,6,6
45,104,0.5625,7,1,10800000,,,6,9
61,104,0.9375,0,1,10800001,,,6,15
45,104,0.1875,1,1,10800001,,,6,3
50,104,0.9375,2,0,10800001,,,6,15
38,104,0.25,3,1,10800001,,,6,4
66,104,0.375,4,1,10800001,,,6,6
38,104,0.25,5,1,10800001,,,6,4
38,104,0.25,6,0,10800001,,,6,4
66,104,0.1875,7,1,10800001,,,6,3
54,104,0.5625,0,1,10810000,,,6,9
54,104,0.375,1,0,10810000,,,6,6
66,104,0.1875,2,1,10810000,,,6,3
44,104,0.1875,3,1,10810000,,,6,3
44,104,0.5,4,0,10810000,,,6,8
38,104,0.9375,5,0,10810000,,,6,15
62,104,0.5,6,1,10810000,,,6,8
50,104,0.25,7,1,10810000,,,6,4
52,104,0.4375,8,0,10810000,,,6,7
52,104,0.1875,9,0,10810000,,,6,3
52,104,0.625,0,1,10810001,,,6,10
52,104,0.875,1,0,10810001,,,6,14
40,104,0.625,2,1,10810001,,,6,10
53,104,0.9375,3,1,10810001,,,6,15
49,104,0.9375,4,1,10810001,,,6,15
54,104,0.625,0,1,10810002,,,6,10
61,104,0.3125,1,1,10810002,,,6,5
42,104,0.75,2,1,10810002,,,6,12
48,104,0.1875,0,1,10820000,,,6,3
63,104,0.125,1,1,10820000,,,6,2
63,104,0.3125,2,0,10820000,,,6,5
63,104,0.375,3,0,10820000,,,6,6
58,104,0.25,4,0,10820000,,,6,4
51,104,0.125,5,1,10820000,,,6,2
63,104,0.6875,6,1,10820000,,,6,11
39,104,0.25,7,1,10820000,,,6,4
51,104,0.5,8,1,10820000,,,6,8
46,104,0.1875,0,1,10830000,,,6,3
63,104,0.4375,1,1,10830000,,,6,7
43,104,0.25,2,1,10830000,,,6,4
51,104,0.625,3,1,10830000,,,6,10
51,104,0.3125,4,0,10830000,,,6,5
51,104,0.25,5,0,10830000,,,6,4
62,104,0.3125,6,1,10830000,,,6,5
46,104,0.25,7,1,10830000,,,6,4
53,104,0.1875,8,1,10830000,,,6,3
62,104,0.3125,9,1,10830000,,,6,5
62,104,0.1875,10,0,10830000,,,6,3
51,104,0.9375,11,1,10830000,,,6,15
51,104,0.125,0,1,10830001,,,6,2
51,104,0.1875,1,0,10830001,,,6,3
45,104,0.75,0,1,10840000,,,6,12
45,104,0.9375,1,1,10840000,,,6,15
45,104,0.25,2,1,10840000,,,6,4
57,104,0.4375,3,1,10840000,,,6,7
45,104,0.5,4,1,10840000,,,6,8
61,104,0.5,5,1,10840000,,,6,8
45,104,0.25,6,1,10840000,,,6,4
61,104,0.625,7,1,10840000,,,6,10
45,104,0.6875,0,1,10840001,,,6,11
52,104,0.875,1,1,10840001,,,6,14
68,104,0.75,2,1,10840001,,,6,12
52,104,0.25,3,1,10840001,,,6,4
59,104,0.3125,4,1,10840001,,,6,5
52,104,0.625,5,1,10840001,,,6,10
59,104,0.625,6,1,10840001,,,6,10
59,104,0.1875,0,1,10840002,,,6,3
68,104,0.3125,1,1,10840002,,,6,5
62,104,0.4375,2,0,10840002,,,6,7
59,104,0.5,3,0,10840002,,,6,8
40,104,0.3125,4,1,10840002,,,6,5
54,104,0.9375,5,1,10840002,,,6,15
66,104,0.25,6,1,10840002,,,6,4
36,104,0.9375,0,1,10850000,,,6,15
36,104,0.9375,1,1,10850000,,,6,15
55,104,0.6875,2,1,10850000,,,6,11
53,104,0.25,3,0,10850000,,,6,4
65,104,0.625,4,1,10850000,,,6,10
53,104,0.1875,5,1,10850000,,,6,3
65,104,0.1875,6,1,10850000,,,6,3
50,104,0.75,7,1,10850000,,,6,12
62,104,0.1875,0,1,10850001,,,6,3
50,104,0.25,1,1,10850001,,,6,4
53,104,0.25,2,0,10850001,,,6,4
55,104,0.1875,0,1,10860000,,,6,3
33,104,0.25,1,1,10860000,,,6,4
52,104,0.4375,2,1,10860000,,,6,7
50,104,0.1875,3,0,10860000,,,6,3
31,104,0.5,4,1,10860000,,,6,8
50,104,0.625,5,1,10860000,,,6,10
50,104,0.1875,6,0,10860000,,,6,3
55,104,0.4375,7,0,10860000,,,6,7
56,104,0.1875,8,0,10860000,,,6,3
60,104,0.9375,9,0,10860000,,,6,15
50,104,0.9375,10,1,10860000,,,6,15
52,104,0.75,0,1,10860001,,,6,12
55,104,0.4375,1,1,10860001,,,6,7
55,104,0.375,2,0,10860001,,,6,6
59,104,0.375,3,0,10860001,,,6,6
52,104,0.5,4,1,10860001,,,6,8
62,104,0.25,0,1,10870000,,,6,4
60,104,0.5625,1,0,10870000,,,6,9
65,104,0.25,2,0,10870000,,,6,4
62,104,0.1875,3,0,10870000,,,6,3
60,104,0.125,4,0,10870000,,,6,2
65,104,0.9375,5,0,10870000,,,6,15
55,104,0.75,6,1,10870000,,,6,12
50,104,0.375,7,1,10870000,,,6,6
55,104,0.4375,8,0,10870000,,,6,7
50,104,0.1875,9,0,10870000,,,6,3
55,104,0.3125,0,1,10870001,,,6,5
55,104,0.375,1,0,10870001,,,6,6
55,104,0.5625,2,0,10870001,,,6,9
55,104,0.9375,3,0,10870001,,,6,15
62,104,0.3125,4,1,10870001,,,6,5
57,104,0.9375,5,0,10870001,,,6,15
45,104,0.9375,6,1,10870001,,,6,15
55,104,0.25,0,1,10870002,,,6,4
43,104,0.9375,1,1,10870002,,,6,15
62,104,0.875,2,1,10870002,,,6,14
57,104,0.9375,0,1,10880000,,,6,15
57,104,0.75,1,1,10880000,,,6,12
50,104,0.9375,2,1,10880000,,,6,15
57,104,0.875,3,1,10880000,,,6,14
56,104,0.625,4,1,10880000,,,6,10
59,104,0.4375,0,1,10880001,,,6,7
59,104,0.25,1,0,10880001,,,6,4
61,104,0.9375,2,0,10880001,,,6,15
59,104,0.375,3,1,10880001,,,6,6
57,104,0.375,4,0,10880001,,,6,6
64,104,0.375,5,1,10880001,,,6,6
64,104,0.3125,6,0,10880001,,,6,5
57,104,0.4375,7,1,10880001,,,6,7
57,104,0.25,8,0,10880001,,,6,4
38,104,0.1875,9,1,10880001,,,6,3
50,104,0.0625,0,1,10880002,,,6,1
50,104,0.9375,0,1,10890000,,,6,15
50,104,0.5625,1,1,10890000,,,6,9
52,104,0.75,2,0,10890000,,,6,12
52,104,0.8125,3,1,10890000,,,6,13
54,104,0.25,4,1,10890000,,,6,4
54,104,0.25,5,0,10890000,,,6,4
52,104,0.375,6,0,10890000,,,6,6
45,104,0.25,7,1,10890000,,,6,4
33,104,0.25,0,1,10890001,,,6,4
33,104,0.6875,1,0,10890001,,,6,11
33,104,0.8125,2,0,10890001,,,6,13
45,104,0.4375,3,1,10890001,,,6,7
28,104,0.6875,4,1,10890001,,,6,11
47,104,0.1875,5,1,10890001,,,6,3
28,104,0.4375,6,1,10890001,,,6,7
56,104,0.375,7,1,10890001,,,6,6
47,104,0.1875,0,1,10890002,,,6,3
47,104,0.5,1,0,10890002,,,6,8
50,104,0.4375,2,0,10890002,,,6,7
50,104,0.9375,0,1,10900000,,,6,15
52,104,0.3125,1,1,10900000,,,6,5
33,104,0.1875,2,1,10900000,,,6,3
52,104,0.1875,3,1,10900000,,,6,3
52,104,0.625,4,0,10900000,,,6,10
60,104,0.25,5,1,10900000,,,6,4
52,104,0.1875,6,1,10900000,,,6,3
52,104,0.9375,7,0,10900000,,,6,15
33,104,0.25,8,1,10900000,,,6,4
33,104,0.1875,9,0,10900000,,,6,3
41,104,0.25,0,1,10900001,,,6,4
69,104,0.3125,1,1,10900001,,,6,5
69,104,0.375,2,0,10900001,,,6,6
41,104,0.1875,3,1,10900001,,,6,3
69,104,0.25,4,1,10900001,,,6,4
41,104,0.3125,5,1,10900001,,,6,5
41,104,0.375,6,0,10900001,,,6,6
52,104,0.8125,7,1,10900001,,,6,13
64,104,0.1875,8,1,10900001,,,6,3
52,104,0.9375,9,1,10900001,,,6,15
40,104,0.5,0,1,10910000,,,6,8
40,104,0.8125,1,0,10910000,,,6,13
40,104,0.8125,2,1,10910000,,,6,13
64,104,0.9375,3,1,10910000,,,6,15
47,104,0.625,4,1,10910000,,,6,10
47,104,0.25,5,0,10910000,,,6,4
59,104,0.1875,6,1,10910000,,,6,3
64,104,0.9375,0,1,10910001,,,6,15
40,104,0.875,1,1,10910001,,,6,14
57,104,0.125,2,1,10910001,,,6,2
64,104,0.5,3,1,10910001,,,6,8
45,104,0.5,4,1,10910001,,,6,8
45,104,0.75,5,0,10910001,,,6,12
64,104,0.1875,6,1,10910001,,,6,3
47,104,0.25,0,1,10910002,,,6,4
47,104,0.4375,1,0,10910002,,,6,7
59,104,0.5,2,1,10910002,,,6,8
47,104,0.5,3,1,10910002,,,6,8
54,104,0.25,4,1,10910002,,,6,4
66,104,0.1875,5,1,10910002,,,6,3
66,104,0.1875,6,0,10910002,,,6,3
66,104,0.4375,7,0,10910002,,,6,7
52,104,0.25,8,1,10910002,,,6,4
62,104,0.875,0,1,10920000,,,6,14
24,104,0.25,1,1,10920000,,,6,4
43,104,0.25,2,1,10920000,,,6,4
57,104,0.75,3,1,10920000,,,6,12
57,104,0.75,4,1,10920000,,,6,12
57,104,0.3125,5,1,10920000,,,6,5
53,104,0.125,6,0,10920000,,,6,2
57,104,0.0,7,0,10920000,,,6,0
62,104,0.9375,0,1,10930000,,,6,15
62,104,0.875,1,1,10930000,,,6,14
59,104,0.25,2,1,10930000,,,6,4
59,104,0.25,3,0,10930000,,,6,4
68,104,0.6875,4,1,10930000,,,6,11
68,104,0.625,5,0,10930000,,,6,10
47,104,0.25,6,1,10930000,,,6,4
64,104,0.375,7,1,10930000,,,6,6
61,104,0.4375,0,1,10930001,,,6,7
61,104,0.5,1,0,10930001,,,6,8
57,104,0.1875,2,0,10930001,,,6,3
57,104,0.625,3,0,10930001,,,6,10
57,104,0.3125,4,0,10930001,,,6,5
59,104,0.9375,5,0,10930001,,,6,15
47,104,0.5625,0,1,10940000,,,6,9
47,104,0.9375,1,0,10940000,,,6,15
47,104,0.3125,2,1,10940000,,,6,5
47,104,0.25,3,0,10940000,,,6,4
59,104,0.1875,4,1,10940000,,,6,3
59,104,0.125,5,0,10940000,,,6,2
59,104,0.6875,6,0,10940000,,,6,11
59,104,0.75,7,0,10940000,,,6,12
40,104,0.1875,8,1,10940000,,,6,3
52,104,0.0625,0,1,10940001,,,6,1
52,104,0.3125,0,1,10950000,,,6,5
36,104,0.25,1,1,10950000,,,6,4
36,104,0.3125,2,0,10950000,,,6,5
36,104,0.125,3,0,10950000,,,6,2
60,104,0.125,4,1,10950000,,,6,2
64,104,0.1875,5,0,10950000,,,6,3
64,104,0.4375,6,0,10950000,,,6,7
52,104,0.625,7,1,10950000,,,6,10
59,104,0.25,8,1,10950000,,,6,4
52,104,0.9375,9,1,10950000,,,6,15
53,104,0.125,10,1,10950000,,,6,2
60,104,0.6875,11,1,10950000,,,6,11
65,104,0.1875,0,1,10950001,,,6,3
57,104,0.25,1,1,10950001,,,6,4
57,104,0.4375,2,0,10950001,,,6,7
53,104,0.375,3,0,10950001,,,6,6
53,104,0.1875,4,0,10950001,,,6,3
53,104,0.25,5,0,10950001,,,6,4
60,104,0.5,6,1,10950001,,,6,8
46,104,0.9375,0,1,10960000,,,6,15
65,104,0.1875,1,1,10960000,,,6,3
46,104,0.625,2,1,10960000,,,6,10
46,104,0.8125,3,0,10960000,,,6,13
54,104,0.625,4,1,10960000,,,6,10
54,104,0.9375,5,0,10960000,,,6,15
54,104,0.4375,0,1,10960001,,,6,7
42,104,0.375,1,1,10960001,,,6,6
54,104,0.1875,2,1,10960001,,,6,3
49,104,0.9375,3,0,10960001,,,6,15
49,104,0.1875,4,1,10960001,,,6,3
37,104,0.125,5,1,10960001,,,6,2
49,104,0.9375,6,1,10960001,,,6,15
44,104,0.9375,7,1,10960001,,,6,15
44,104,0.75,0,1,10960002,,,6,12
46,104,0.9375,1,1,10960002,,,6,15
53,104,0.1875,2,1,10960002,,,6,3
63,104,0.125,0,1,10970000,,,6,2
56,104,0.8125,1,1,10970000,,,6,13
63,104,0.9375,2,1,10970000,,,6,15
63,104,0.875,3,1,10970000,,,6,14
63,104,0.375,4,1,10970000,,,6,6
63,104,0.875,5,0,10970000,,,6,14
63,104,0.75,0,1,10970001,,,6,12
49,104,0.5625,1,1,10970001,,,6,9
49,104,0.3125,2,0,10970001,,,6,5
63,104,0.5625,3,1,10970001,,,6,9
63,104,0.1875,4,0,10970001,,,6,3
63,104,0.9375,5,0,10970001,,,6,15
56,104,0.25,6,1,10970001,,,6,4
63,104,0.25,7,1,10970001,,,6,4
63,104,0.375,8,0,10970001,,,6,6
67,104,0.1875,0,1,10980000,,,6,3
62,104,0.1875,1,0,10980000,,,6,3
43,104,0.1875,2,1,10980000,,,6,3
55,104,0.5,3,1,10980000,,,6,8
43,104,0.75,4,1,10980000,,,6,12
55,104,0.4375,5,1,10980000,,,6,7
55,104,0.9375,6,0,10980000,,,6,15
55,104,0.4375,7,1,10980000,,,6,7
62,104,0.75,8,1,10980000,,,6,12
62,104,0.875,0,1,10980001,,,6,14
62,104,0.3125,1,1,10980001,,,6,5
62,104,0.1875,2,0,10980001,,,6,3
57,104,0.375,3,0,10980001,,,6,6
67,104,0.75,4,1,10980001,,,6,12
38,104,0.25,0,1,10990000,,,6,4
57,104,0.1875,1,1,10990000,,,6,3
38,104,0.5,2,1,10990000,,,6,8
57,104,0.125,3,1,10990000,,,6,2
57,104,0.25,4,0,10990000,,,6,4
59,104,0.6875,5,0,10990000,,,6,11
61,104,0.1875,6,0,10990000,,,6,3
59,104,0.5625,7,0,10990000,,,6,9
57,104,0.375,8,0,10990000,,,6,6
54,104,0.125,9,0,10990000,,,6,2
54,104,0.25,10,0,10990000,,,6,4
57,104,0.1875,11,0,10990000,,,6,3
54,104,0.1875,12,0,10990000,,,6,3
54,104,0.1875,13,0,10990000,,,6,3
57,104,0.25,0,1,10990001,,,6,4
38,104,0.9375,1,1,10990001,,,6,15
38,104,0.625,2,1,10990001,,,6,10
65,104,0.25,0,1,11000000,,,6,4
53,104,0.25,1,1,11000000,,,6,4
46,104,0.375,2,1,11000000,,,6,6
53,104,0.25,3,1,11000000,,,6,4
65,104,0.1875,4,1,11000000,,,6,3
65,104,0.1875,5,0,11000000,,,6,3
53,104,0.1875,6,1,11000000,,,6,3
60,104,0.5625,7,1,11000000,,,6,9
53,104,0.5,8,1,11000000,,,6,8
65,104,0.25,9,1,11000000,,,6,4
51,104,0.9375,10,1,11000000,,,6,15
51,104,0.1875,11,1,11000000,,,6,3
51,104,0.1875,0,1,11000001,,,6,3
51,104,0.5,1,0,11000001,,,6,8
58,104,0.5,2,1,11000001,,,6,8
58,104,0.25,3,0,11000001,,,6,4
58,104,0.9375,4,0,11000001,,,6,15
70,104,0.9375,0,1,11010000,,,6,15
70,104,0.3125,1,1,11010000,,,6,5
70,104,0.25,2,0,11010000,,,6,4
65,104,0.1875,3,0,11010000,,,6,3
46,104,0.5,4,1,11010000,,,6,8
70,104,0.5,5,1,11010000,,,6,8
70,104,0.25,6,0,11010000,,,6,4
70,104,0.1875,7,0,11010000,,,6,3
46,104,0.25,8,1,11010000,,,6,4
58,104,0.4375,9,1,11010000,,,6,7
58,104,0.125,10,0,11010000,,,6,2
58,104,0.25,11,0,11010000,,,6,4
46,104,0.25,0,1,11010001,,,6,4
70,104,0.1875,1,1,11010001,,,6,3
51,104,0.9375,2,1,11010001,,,6,15
60,104,0.1875,3,1,11010001,,,6,3
51,104,0.0625,4,1,11010001,,,6,1
43,104,0.5,0,1,11020000,,,6,8
43,104,0.1875,1,0,11020000,,,6,3
62,104,0.875,2,1,11020000,,,6,14
57,104,0.125,3,1,11020000,,,6,2
57,104,0.4375,4,0,11020000,,,6,7
52,104,0.375,5,0,11020000,,,6,6
64,104,0.625,6,1,11020000,,,6,10
41,104,0.25,7,1,11020000,,,6,4
47,104,0.5625,8,0,11020000,,,6,9
47,104,0.25,9,0,11020000,,,6,4
62,104,0.25,0,1,11020001,,,6,4
44,104,0.1875,0,1,11030000,,,6,3
32,104,0.1875,1,1,11030000,,,6,3
49,104,0.3125,2,1,11030000,,,6,5
37,104,0.375,3,1,11030000,,,6,6
49,104,0.1875,4,1,11030000,,,6,3
49,104,0.5,5,0,11030000,,,6,8
61,104,0.3125,6,1,11030000,,,6,5
61,104,0.6875,7,0,11030000,,,6,11
61,104,0.875,8,0,11030000,,,6,14
61,104,0.1875,9,1,11030000,,,6,3
49,104,0.25,10,1,11030000,,,6,4
61,104,0.875,0,1,11030001,,,6,14
61,104,0.375,1,1,11030001,,,6,6
54,104,0.8125,2,1,11030001,,,6,13
54,104,0.625,3,1,11030001,,,6,10
54,104,0.875,4,0,11030001,,,6,14
54,104,0.1875,5,1,11030001,,,6,3
51,104,0.1875,6,0,11030001,,,6,3
51,104,0.1875,0,1,11030002,,,6,3
34,104,0.9375,0,1,11040000,,,6,15
34,104,0.4375,1,1,11040000,,,6,7
34,104,0.75,2,0,11040000,,,6,12
58,104,0.1875,3,1,11040000,,,6,3
34,104,0.875,4,1,11040000,,,6,14
34,104,0.375,5,1,11040000,,,6,6
46,104,0.8125,6,1,11040000,,,6,13
46,104,0.1875,0,1,11040001,,,6,3
34,104,0.4375,1,1,11040001,,,6,7
29,104,0.4375,2,0,11040001,,,6,7
29,104,0.75,3,0,11040001,,,6,12
41,104,0.4375,4,1,11040001,,,6,7
29,104,0.3125,5,1,11040001,,,6,5
29,104,0.25,6,0,11040001,,,6,4
41,104,0.5,7,1,11040001,,,6,8
29,104,0.875,8,1,11040001,,,6,14
29,104,0.1875,0,1,11040002,,,6,3
29,104,0.5625,1,0,11040002,,,6,9
41,104,0.4375,2,1,11040002,,,6,7
29,104,0.3125,3,1,11040002,,,6,5
29,104,0.25,4,0,11040002,,,6,4
51,104,0.125,0,1,11050000,,,6,2
51,104,0.5,1,0,11050000,,,6,8
51,104,0.1875,2,0,11050000,,,6,3
32,104,0.25,3,1,11050000,,,6,4
41,104,0.1875,0,1,11060000,,,6,3
69,104,0.375,1,1,11060000,,,6,6
41,104,0.3125,2,1,11060000,,,6,5
41,104,0.3125,3,0,11060000,,,6,5
53,104,0.375,4,1,11060000,,,6,6
46,104,0.3125,5,1,11060000,,,6,5
53,104,0.5,6,1,11060000,,,6,8
58,104,0.6875,7,0,11060000,,,6,11
53,104,0.375,8,0,11060000,,,6,6
65,104,0.1875,9,1,11060000,,,6,3
53,104,0.25,10,1,11060000,,,6,4
50,104,0.625,11,0,11060000,,,6,10
51,104,0.3125,0,1,11060001,,,6,5
65,104,0.9375,1,1,11060001,,,6,15
53,104,0.1875,2,1,11060001,,,6,3
41,104,0.9375,3,1,11060001,,,6,15
41,104,0.5625,4,1,11060001,,,6,9
37,104,0.1875,0,1,11070000,,,6,3
51,104,0.75,1,1,11070000,,,6,12
51,104,0.5,2,1,11070000,,,6,8
51,104,0.9375,3,0,11070000,,,6,15
42,104,0.4375,4,1,11070000,,,6,7
54,104,0.75,5,1,11070000,,,6,12
54,104,0.375,6,1,11070000,,,6,6
47,104,0.9375,7,1,11070000,,,6,15
46,104,0.1875,0,1,11080000,,,6,3
34,104,0.1875,1,1,11080000,,,6,3
53,104,0.9375,2,1,11080000,,,6,15
48,104,0.25,3,1,11080000,,,6,4
48,104,0.9375,4,0,11080000,,,6,15
53,104,0.3125,5,1,11080000,,,6,5
31,104,0.9375,6,1,11080000,,,6,15
53,104,0.4375,7,1,11080000,,,6,7
50,104,0.8125,0,1,11080001,,,6,13
60,104,0.3125,1,1,11080001,,,6,5
57,104,0.125,2,0,11080001,,,6,2
53,104,0.1875,3,0,11080001,,,6,3
39,104,0.3125,4,1,11080001,,,6,5
29,104,0.6875,5,1,11080001,,,6,11
53,104,0.0625,6,1,11080001,,,6,1
38,104,0.25,0,1,11090000,,,6,4
38,104,0.375,1,0,11090000,,,6,6
38,104,0.25,2,0,11090000,,,6,4
66,104,0.25,3,1,11090000,,,6,4
38,104,0.125,4,1,11090000,,,6,2
50,104,0.25,5,1,11090000,,,6,4
38,104,0.5,6,1,11090000,,,6,8
57,104,0.4375,7,1,11090000,,,6,7
45,104,0.9375,8,1,11090000,,,6,15
45,104,0.3125,9,1,11090000,,,6,5
45,104,0.1875,10,0,11090000,,,6,3
57,104,0.8125,11,1,11090000,,,6,13
45,104,0.25,0,1,11090001,,,6,4
57,104,0.375,1,1,11090001,,,6,6
45,104,0.9375,2,1,11090001,,,6,15
45,104,0.25,3,1,11090001,,,6,4
61,104,0.9375,4,1,11090001,,,6,15
45,104,0.25,5,1,11090001,,,6,4
49,104,0.9375,6,0,11090001,,,6,15
49,104,0.6875,0,1,11090002,,,6,11
49,104,0.8125,1,0,11090002,,,6,13
49,104,0.3125,2,1,11090002,,,6,5
59,104,0.1875,3,1,11090002,,,6,3
35,104,0.3125,0,1,11100000,,,6,5
47,104,0.4375,1,1,11100000,,,6,7
35,104,0.4375,2,1,11100000,,,6,7
47,104,0.3125,3,1,11100000,,,6,5
35,104,0.375,4,1,11100000,,,6,6
59,104,0.125,5,1,11100000,,,6,2
35,104,0.375,6,1,11100000,,,6,6
35,104,0.5625,7,0,11100000,,,6,9
47,104,0.5,8,1,11100000,,,6,8
35,104,0.5625,9,1,11100000,,,6,9
35,104,0.625,0,1,11100001,,,6,10
47,104,0.4375,1,1,11100001,,,6,7
59,104,0.25,2,1,11100001,,,6,4
35,104,0.5,3,1,11100001,,,6,8
64,104,0.1875,4,1,11100001,,,6,3
64,104,0.25,5,0,11100001,,,6,4
59,104,0.6875,6,0,11100001,,,6,11
40,104,0.6875,7,1,11100001,,,6,11
52,104,0.1875,8,1,11100001,,,6,3
52,104,0.125,9,0,11100001,,,6,2
52,104,0.5,0,1,11110000,,,6,8
57,104,0.5,1,0,11110000,,,6,8
47,104,0.3125,2,1,11110000,,,6,5
47,104,0.4375,3,0,11110000,,,6,7
47,104,0.4375,4,0,11110000,,,6,7
59,104,0.375,5,1,11110000,,,6,6
64,104,0.4375,6,0,11110000,,,6,7
61,104,0.375,7,0,11110000,,,6,6
50,104,0.5625,8,1,11110000,,,6,9
50,104,0.25,9,0,11110000,,,6,4
50,104,0.4375,0,1,11110001,,,6,7
61,104,0.375,1,1,11110001,,,6,6
59,104,0.3125,2,0,11110001,,,6,5
59,104,0.9375,3,0,11110001,,,6,15
59,104,0.25,4,1,11110001,,,6,4
59,104,0.3125,5,0,11110001,,,6,5
64,104,0.1875,6,0,11110001,,,6,3
61,104,0.375,7,0,11110001,,,6,6
64,104,0.25,8,0,11110001,,,6,4
65,104,0.3125,0,1,11120000,,,6,5
57,104,0.3125,1,1,11120000,,,6,5
62,104,0.625,2,0,11120000,,,6,10
53,104,0.8125,3,1,11120000,,,6,13
60,104,0.9375,4,1,11120000,,,6,15
53,104,0.5625,5,1,11120000,,,6,9
65,104,0.3125,6,1,11120000,,,6,5
53,104,0.5,7,1,11120000,,,6,8
65,104,0.3125,0,1,11120001,,,6,5
57,104,0.125,0,1,11130000,,,6,2
64,104,0.1875,1,1,11130000,,,6,3
64,104,0.9375,2,0,11130000,,,6,15
57,104,0.75,3,1,11130000,,,6,12
62,104,0.9375,4,1,11130000,,,6,15
59,104,0.9375,5,1,11130000,,,6,15
62,104,0.9375,6,1,11130000,,,6,15
55,104,0.25,0,1,11130001,,,6,4
59,104,0.3125,1,0,11130001,,,6,5
59,104,0.625,2,0,11130001,,,6,10
64,104,0.5,3,0,11130001,,,6,8
66,104,0.0625,4,0,11130001,,,6,1
56,104,0.5,0,1,11140000,,,6,8
45,104,0.75,1,1,11140000,,,6,12
45,104,0.75,2,1,11140000,,,6,12
33,104,0.9375,3,1,11140000,,,6,15
45,104,0.25,4,1,11140000,,,6,4
47,104,0.8125,5,0,11140000,,,6,13
47,104,0.875,0,1,11140001,,,6,14
47,104,0.75,1,1,11140001,,,6,12
47,104,0.5625,2,1,11140001,,,6,9
50,104,0.875,3,0,11140001,,,6,14
38,104,0.5625,4,1,11140001,,,6,9
40,104,0.625,5,0,11140001,,,6,10
56,104,0.1875,0,1,11140002,,,6,3
51,104,0.6875,0,1,11150000,,,6,11
39,104,0.25,1,1,11150000,,,6,4
51,104,0.625,2,1,11150000,,,6,10
39,104,0.1875,3,1,11150000,,,6,3
51,104,0.9375,4,1,11150000,,,6,15
63,104,0.125,5,1,11150000,,,6,2
51,104,0.5625,6,1,11150000,,,6,9
46,104,0.5,7,0,11150000,,,6,8
46,104,0.375,8,0,11150000,,,6,6
32,104,0.4375,0,1,11150001,,,6,7
32,104,0.1875,1,0,11150001,,,6,3
32,104,0.25,2,0,11150001,,,6,4
32,104,0.25,3,0,11150001,,,6,4
32,104,0.1875,4,0,11150001,,,6,3
32,104,0.3125,5,0,11150001,,,6,5
44,104,0.1875,6,1,11150001,,,6,3
34,104,0.375,7,1,11150001,,,6,6
46,104,0.3125,8,1,11150001,,,6,5
58,104,0.4375,9,1,11150001,,,6,7
53,104,0.25,10,0,11150001,,,6,4
46,104,0.375,11,1,11150001,,,6,6
51,104,0.5625,0,1,11160000,,,6,9
58,104,0.375,1,1,11160000,,,6,6
58,104,0.9375,2,0,11160000,,,6,15
58,104,0.8125,3,1,11160000,,,6,13
58,104,0.25,4,1,11160000,,,6,4
58,104,0.3125,5,0,11160000,,,6,5
39,104,0.9375,6,1,11160000,,,6,15
39,104,0.375,0,1,11160001,,,6,6
58,104,0.375,1,1,11160001,,,6,6
58,104,0.5,2,0,11160001,,,6,8
39,104,0.125,3,1,11160001,,,6,2
58,104,0.375,4,1,11160001,,,6,6
58,104,0.5,5,0,11160001,,,6,8
58,104,0.25,6,0,11160001,,,6,4
34,104,0.3125,7,1,11160001,,,6,5
46,104,0.125,8,1,11160001,,,6,2
34,104,0.25,9,1,11160001,,,6,4
53,104,0.5,0,1,11170000,,,6,8
55,104,0.8125,1,0,11170000,,,6,13
55,104,0.5625,2,1,11170000,,,6,9
50,104,0.4375,3,0,11170000,,,6,7
65,104,0.4375,4,1,11170000,,,6,7
50,104,0.4375,5,1,11170000,,,6,7
55,104,0.9375,6,0,11170000,,,6,15
55,104,0.1875,0,1,11170001,,,6,3
43,104,0.1875,1,1,11170001,,,6,3
55,104,0.5,2,1,11170001,,,6,8
60,104,0.4375,3,0,11170001,,,6,7
60,104,0.25,4,0,11170001,,,6,4
55,104,0.5,5,0,11170001,,,6,8
31,104,0.6875,6,1,11170001,,,6,11
48,104,0.9375,7,1,11170001,,,6,15
48,104,0.4375,8,1,11170001,,,6,7
36,104,0.3125,0,1,11170002,,,6,5
36,104,0.375,1,0,11170002,,,6,6
60,104,0.1875,2,1,11170002,,,6,3
60,104,0.25,3,0,11170002,,,6,4
36,104,0.25,4,1,11170002,,,6,4
55,104,0.1875,5,1,11170002,,,6,3
55,104,0.9375,6,0,11170002,,,6,15
53,104,0.5625,7,1,11170002,,,6,9
55,104,0.5625,8,0,11170002,,,6,9
47,104,0.875,0,1,11180000,,,6,14
66,104,0.3125,1,1,11180000,,,6,5
52,104,0.4375,2,1,11180000,,,6,7
35,104,0.5,3,1,11180000,,,6,8
35,104,0.625,4,0,11180000,,,6,10
35,104,0.25,5,0,11180000,,,6,4
47,104,0.3125,6,1,11180000,,,6,5
59,104,0.1875,7,1,11180000,,,6,3
47,104,0.25,8,1,11180000,,,6,4
47,104,0.3125,9,0,11180000,,,6,5
47,104,0.8125,0,1,11180001,,,6,13
47,104,0.1875,1,1,11180001,,,6,3
47,104,0.1875,2,0,11180001,,,6,3
47,104,0.3125,3,0,11180001,,,6,5
46,104,0.875,0,1,11190000,,,6,14
62,104,0.25,1,1,11190000,,,6,4
60,104,0.1875,2,0,11190000,,,6,3
62,104,0.25,3,0,11190000,,,6,4
60,104,0.75,4,0,11190000,,,6,12
65,104,0.3125,5,1,11190000,,,6,5
53,104,0.25,6,1,11190000,,,6,4
65,104,0.125,7,1,11190000,,,6,2
51,104,0.25,8,1,11190000,,,6,4
65,104,0.25,9,1,11190000,,,6,4
65,104,0.3125,10,0,11190000,,,6,5
65,104,0.9375,11,0,11190000,,,6,15
51,104,0.5,0,1,11190001,,,6,8
65,104,0.375,1,1,11190001,,,6,6
53,104,0.25,2,1,11190001,,,6,4
65,104,0.3125,3,1,11190001,,,6,5
53,104,0.9375,4,1,11190001,,,6,15
53,104,0.5,5,1,11190001,,,6,8
41,104,0.1875,6,1,11190001,,,6,3
53,104,0.375,7,1,11190001,,,6,6
60,104,0.1875,0,1,11190002,,,6,3
50,104,0.6875,0,1,11200000,,,6,11
50,104,0.25,1,0,11200000,,,6,4
50,104,0.625,2,0,11200000,,,6,10
50,104,0.25,3,0,11200000,,,6,4
50,104,0.625,4,0,11200000,,,6,10
51,104,0.6875,5,0,11200000,,,6,11
51,104,0.1875,6,0,11200000,,,6,3
51,104,0.375,7,0,11200000,,,6,6
51,104,0.9375,8,0,11200000,,,6,15
39,104,0.25,0,1,11200001,,,6,4
51,104,0.4375,1,1,11200001,,,6,7
51,104,0.4375,2,0,11200001,,,6,7
51,104,0.875,3,0,11200001,,,6,14
34,104,0.375,4,1,11200001,,,6,6
34,104,0.25,5,0,11200001,,,6,4
58,104,0.1875,6,1,11200001,,,6,3
53,104,0.375,7,0,11200001,,,6,6
58,104,0.25,8,0,11200001,,,6,4
53,104,0.1875,0,1,11200002,,,6,3
53,104,0.25,1,0,11200002,,,6,4
58,104,0.4375,2,0,11200002,,,6,7
31,104,0.25,0,1,11210000,,,6,4
57,104,0.25,1,1,11210000,,,6,4
57,104,0.4375,2,0,11210000,,,6,7
50,104,0.125,3,1,11210000,,,6,2
31,104,0.125,4,1,11210000,,,6,2
50,104,0.3125,5,1,11210000,,,6,5
31,104,0.4375,6,1,11210000,,,6,7
43,104,0.4375,7,1,11210000,,,6,7
55,104,0.1875,8,1,11210000,,,6,3
55,104,0.125,9,0,11210000,,,6,2
55,104,0.125,10,0,11210000,,,6,2
29,104,0.5,11,1,11210000,,,6,8
29,104,0.1875,12,0,11210000,,,6,3
28,104,0.9375,13,0,11210000,,,6,15
28,104,0.0625,0,1,11210001,,,6,1
40,104,0.5,0,1,11220000,,,6,8
52,104,0.625,1,1,11220000,,,6,10
40,104,0.1875,2,1,11220000,,,6,3
40,104,0.6875,3,0,11220000,,,6,11
40,104,0.25,4,0,11220000,,,6,4
48,104,0.5,5,1,11220000,,,6,8
60,104,0.25,6,1,11220000,,,6,4
62,104,0.8125,7,0,11220000,,,6,13
43,104,0.25,8,1,11220000,,,6,4
62,104,0.625,0,1,11220001,,,6,10
43,104,0.375,1,1,11220001,,,6,6
62,104,0.1875,2,1,11220001,,,6,3
62,104,0.9375,3,0,11220001,,,6,15
50,104,0.1875,4,1,11220001,,,6,3
50,104,0.25,5,0,11220001,,,6,4
50,104,0.8125,6,0,11220001,,,6,13
38,104,0.1875,7,1,11220001,,,6,3
57,104,0.25,8,1,11220001,,,6,4
38,104,0.8125,9,1,11220001,,,6,13
38,104,0.625,0,1,11220002,,,6,10
53,104,0.1875,0,1,11230000,,,6,3
53,104,0.5625,1,0,11230000,,,6,9
58,104,0.1875,2,0,11230000,,,6,3
53,104,0.5625,3,0,11230000,,,6,9
58,104,0.1875,4,0,11230000,,,6,3
89,104,0.3125,5,1,11230000,,,6,5
33,104,0.1875,0,1,11240000,,,6,3
50,104,0.1875,1,1,11240000,,,6,3
57,104,0.375,2,1,11240000,,,6,6
57,104,0.6875,3,0,11240000,,,6,11
50,104,0.25,4,1,11240000,,,6,4
57,104,0.3125,5,1,11240000,,,6,5
57,104,0.625,6,0,11240000,,,6,10
50,104,0.1875,7,1,11240000,,,6,3
57,104,0.6875,8,1,11240000,,,6,11
57,104,0.375,9,0,11240000,,,6,6
69,104,0.1875,10,1,11240000,,,6,3
50,104,0.25,0,1,11240001,,,6,4
61,104,0.75,1,1,11240001,,,6,12
59,104,0.875,2,1,11240001,,,6,14
59,104,0.25,3,1,11240001,,,6,4
59,104,0.125,4,0,11240001,,,6,2
52,104,0.625,5,1,11240001,,,6,10
52,104,0.1875,6,0,11240001,,,6,3
40,104,0.3125,7,1,11240001,,,6,5
61,104,0.1875,8,1,11240001,,,6,3
35,104,0.4375,0,1,11250000,,,6,7
35,104,0.375,1,0,11250000,,,6,6
47,104,0.5625,2,1,11250000,,,6,9
47,104,0.1875,3,0,11250000,,,6,3
59,104,0.6875,4,1,11250000,,,6,11
47,104,0.1875,5,1,11250000,,,6,3
47,104,0.75,6,0,11250000,,,6,12
47,104,0.375,7,1,11250000,,,6,6
40,104,0.25,8,1,11250000,,,6,4
52,104,0.25,9,1,11250000,,,6,4
40,104,0.5625,0,1,11250001,,,6,9
40,104,0.625,1,0,11250001,,,6,10
40,104,0.5,2,0,11250001,,,6,8
40,104,0.9375,3,0,11250001,,,6,15
40,104,0.75,4,1,11250001,,,6,12
40,104,0.1875,5,1,11250001,,,6,3
40,104,0.3125,6,0,11250001,,,6,5
40,104,0.5625,7,0,11250001,,,6,9
40,104,0.5,0,1,11250002,,,6,8
52,104,0.25,1,1,11250002,,,6,4
40,104,0.25,2,1,11250002,,,6,4
62,104,0.9375,0,1,11260000,,,6,15
50,104,0.25,1,1,11260000,,,6,4
50,104,0.375,2,0,11260000,,,6,6
53,104,0.375,3,0,11260000,,,6,6
53,104,0.1875,4,0,11260000,,,6,3
53,104,0.375,5,0,11260000,,,6,6
53,104,0.1875,6,0,11260000,,,6,3
60,104,0.1875,7,1,11260000,,,6,3
60,104,0.3125,8,0,11260000,,,6,5
48,104,0.375,9,1,11260000,,,6,6
48,104,0.25,10,0,11260000,,,6,4
53,104,0.125,11,0,11260000,,,6,2
48,104,0.125,12,0,11260000,,,6,2
53,104,0.4375,0,1,11260001,,,6,7
48,104,0.75,1,0,11260001,,,6,12
53,104,0.125,2,1,11260001,,,6,2
53,104,0.3125,3,0,11260001,,,6,5
36,104,0.25,4,1,11260001,,,6,4
53,104,0.375,0,1,11270000,,,6,6
34,104,0.4375,1,1,11270000,,,6,7
46,104,0.3125,2,1,11270000,,,6,5
34,104,0.9375,3,1,11270000,,,6,15
46,104,0.875,4,1,11270000,,,6,14
34,104,0.5,5,1,11270000,,,6,8
27,104,0.25,6,1,11270000,,,6,4
53,104,0.25,7,1,11270000,,,6,4
27,104,0.25,8,1,11270000,,,6,4
29,104,0.25,0,1,11270001,,,6,4
29,104,0.1875,1,0,11270001,,,6,3
29,104,0.25,2,0,11270001,,,6,4
62,104,0.9375,0,1,11280000,,,6,15
55,104,0.25,1,1,11280000,,,6,4
59,104,0.3125,2,0,11280000,,,6,5
59,104,0.625,3,0,11280000,,,6,10
64,104,0.5,4,0,11280000,,,6,8
66,104,0.1875,5,0,11280000,,,6,3
38,104,0.5,6,1,11280000,,,6,8
62,104,0.3125,7,1,11280000,,,6,5
50,104,0.3125,8,1,11280000,,,6,5
38,104,0.3125,9,1,11280000,,,6,5
38,104,0.1875,0,1,11280001,,,6,3
38,104,0.75,1,0,11280001,,,6,12
50,104,0.9375,2,1,11280001,,,6,15
38,104,0.5,3,1,11280001,,,6,8
38,104,0.0625,4,0,11280001,,,6,1
63,104,0.1875,0,1,11290000,,,6,3
46,104,0.25,1,1,11290000,,,6,4
46,104,0.1875,2,0,11290000,,,6,3
32,104,0.3125,3,1,11290000,,,6,5
32,104,0.375,4,0,11290000,,,6,6
51,104,0.125,5,1,11290000,,,6,2
51,104,0.3125,6,0,11290000,,,6,5
55,104,0.5625,0,1,11300000,,,6,9
58,104,0.1875,1,0,11300000,,,6,3
60,104,0.75,2,0,11300000,,,6,12
60,104,0.9375,3,1,11300000,,,6,15
53,104,0.25,4,1,11300000,,,6,4
57,104,0.25,5,0,11300000,,,6,4
51,104,0.375,6,0,11300000,,,6,6
39,104,0.5,7,1,11300000,,,6,8
39,104,0.4375,8,0,11300000,,,6,7
58,104,0.1875,0,1,11300001,,,6,3
51,104,0.75,1,1,11300001,,,6,12
51,104,0.1875,2,1,11300001,,,6,3
39,104,0.25,3,1,11300001,,,6,4
51,104,0.9375,4,1,11300001,,,6,15
58,104,0.25,5,1,11300001,,,6,4
51,104,0.25,6,1,11300001,,,6,4
51,104,0.9375,7,0,11300001,,,6,15
52,104,0.625,0,1,11310000,,,6,10
56,104,0.875,1,0,11310000,,,6,14
56,104,0.375,2,1,11310000,,,6,6
40,104,0.375,3,1,11310000,,,6,6
57,104,0.25,4,1,11310000,,,6,4
25,104,0.5,5,1,11310000,,,6,8
37,104,0.6875,6,1,11310000,,,6,11
37,104,0.3125,7,0,11310000,,,6,5
56,104,0.0,0,1,11310001,,,6,0
55,104,0.1875,0,1,11320000,,,6,3
50,104,0.1875,1,0,11320000,,,6,3
62,104,0.5,2,1,11320000,,,6,8
62,104,0.9375,3,0,11320000,,,6,15
62,104,0.9375,4,1,11320000,,,6,15
34,104,0.125,5,1,11320000,,,6,2
53,104,0.1875,6,1,11320000,,,6,3
62,104,0.1875,7,1,11320000,,,6,3
62,104,0.9375,8,0,11320000,,,6,15
62,104,0.125,0,1,11320001,,,6,2
62,104,0.1875,1,0,11320001,,,6,3
71,104,0.25,0,1,11330000,,,6,4
73,104,0.9375,1,0,11330000,,,6,15
71,104,0.9375,2,1,11330000,,,6,15
73,104,0.4375,3,1,11330000,,,6,7
71,104,0.1875,4,0,11330000,,,6,3
69,104,0.4375,5,0,11330000,,,6,7
71,104,0.8125,6,0,11330000,,,6,13
73,104,0.5625,0,1,11330001,,,6,9
71,104,0.25,1,0,11330001,,,6,4
73,104,0.25,2,0,11330001,,,6,4
71,104,0.375,3,0,11330001,,,6,6
69,104,0.9375,4,0,11330001,,,6,15
66,104,0.9375,5,1,11330001,,,6,15
66,104,0.9375,6,1,11330001,,,6,15
64,104,0.5,0,1,11330002,,,6,8
66,104,0.3125,1,0,11330002,,,6,5
71,104,0.3125,2,0,11330002,,,6,5
73,104,0.9375,3,0,11330002,,,6,15
71,104,0.9375,4,1,11330002,,,6,15
71,104,0.0625,5,1,11330002,,,6,1
66,104,0.1875,0,1,11340000,,,6,3
71,104,0.375,1,0,11340000,,,6,6
71,104,0.375,2,0,11340000,,,6,6
66,104,0.25,3,0,11340000,,,6,4
62,104,0.125,4,0,11340000,,,6,2
71,104,0.25,5,1,11340000,,,6,4
50,104,0.9375,6,1,11340000,,,6,15
69,104,0.3125,7,1,11340000,,,6,5
67,104,0.9375,8,0,11340000,,,6,15
62,104,0.1875,9,1,11340000,,,6,3
64,104,0.1875,10,0,11340000,,,6,3
62,104,0.1875,0,1,11340001,,,6,3
64,104,0.5,1,0,11340001,,,6,8
62,104,0.1875,2,0,11340001,,,6,3
62,104,0.25,3,0,11340001,,,6,4
64,104,0.4375,4,0,11340001,,,6,7
67,104,0.8125,5,0,11340001,,,6,13
69,104,0.3125,6,1,11340001,,,6,5
50,104,0.25,7,1,11340001,,,6,4
50,104,0.125,8,0,11340001,,,6,2
50,104,0.125,9,0,11340001,,,6,2
50,104,0.125,10,0,11340001,,,6,2
71,104,0.9375,11,1,11340001,,,6,15
66,104,0.125,0,1,11340002,,,6,2
62,104,0.375,1,0,11340002,,,6,6
69,104,0.1875,2,1,11340002,,,6,3
59,104,0.1875,0,1,11350000,,,6,3
35,104,0.1875,1,1,11350000,,,6,3
59,104,0.5625,2,1,11350000,,,6,9
57,104,0.125,3,0,11350000,,,6,2
59,104,0.3125,4,0,11350000,,,6,5
57,104,0.5625,5,0,11350000,,,6,9
45,104,0.1875,6,1,11350000,,,6,3
45,104,0.4375,7,0,11350000,,,6,7
45,104,0.1875,8,0,11350000,,,6,3
45,104,0.125,9,0,11350000,,,6,2
57,104,0.1875,10,1,11350000,,,6,3
33,104,0.125,11,1,11350000,,,6,2
33,104,0.1875,12,0,11350000,,,6,3
47,104,0.25,13,1,11350000,,,6,4
59,104,0.1875,14,1,11350000,,,6,3
54,104,0.5625,15,0,11350000,,,6,9
35,104,0.25,0,1,11350001,,,6,4
52,104,0.4375,1,1,11350001,,,6,7
59,104,0.5625,2,1,11350001,,,6,9
59,104,0.9375,3,0,11350001,,,6,15
59,104,0.3125,4,1,11350001,,,6,5
59,104,0.0625,5,0,11350001,,,6,1
63,104,0.125,0,1,11360000,,,6,2
63,104,0.4375,1,0,11360000,,,6,7
33,104,0.6875,2,1,11360000,,,6,11
61,104,0.1875,3,1,11360000,,,6,3
33,104,0.25,4,1,11360000,,,6,4
35,104,0.625,5,0,11360000,,,6,10
54,104,0.9375,6,1,11360000,,,6,15
54,104,0.4375,7,1,11360000,,,6,7
56,104,0.3125,8,0,11360000,,,6,5
54,104,0.25,0,1,11360001,,,6,4
45,104,0.3125,1,1,11360001,,,6,5
45,104,0.4375,2,0,11360001,,,6,7
33,104,0.125,3,1,11360001,,,6,2
49,104,0.8125,4,1,11360001,,,6,13
59,104,0.25,5,1,11360001,,,6,4
56,104,0.25,0,1,11370000,,,6,4
49,104,0.125,1,1,11370000,,,6,2
64,104,0.875,2,1,11370000,,,6,14
59,104,0.375,3,1,11370000,,,6,6
61,104,0.3125,4,0,11370000,,,6,5
61,104,0.8125,5,0,11370000,,,6,13
57,104,0.25,6,1,11370000,,,6,4
54,104,0.25,7,0,11370000,,,6,4
57,104,0.8125,8,0,11370000,,,6,13
50,104,0.875,0,1,11370001,,,6,14
38,104,0.5625,1,1,11370001,,,6,9
57,104,0.3125,2,1,11370001,,,6,5
57,104,0.125,3,0,11370001,,,6,2
64,104,0.375,4,1,11370001,,,6,6
57,104,0.375,5,1,11370001,,,6,6
68,104,0.3125,6,1,11370001,,,6,5
40,104,0.1875,7,1,11370001,,,6,3
40,104,0.5625,8,0,11370001,,,6,9
64,104,0.25,9,1,11370001,,,6,4
69,104,0.3125,0,1,11370002,,,6,5
59,104,0.1875,1,1,11370002,,,6,3
45,104,0.4375,2,1,11370002,,,6,7
57,104,0.125,3,1,11370002,,,6,2
61,104,0.5,4,0,11370002,,,6,8
63,104,0.125,0,1,11380000,,,6,2
51,104,0.3125,1,1,11380000,,,6,5
39,104,0.8125,2,1,11380000,,,6,13
39,104,0.9375,3,1,11380000,,,6,15
39,104,0.4375,4,1,11380000,,,6,7
39,104,0.1875,5,0,11380000,,,6,3
50,104,0.3125,6,1,11380000,,,6,5
50,104,0.3125,7,0,11380000,,,6,5
58,104,0.25,8,1,11380000,,,6,4
50,104,0.9375,9,1,11380000,,,6,15
48,104,0.75,0,1,11380001,,,6,12
56,104,0.1875,1,1,11380001,,,6,3
63,104,0.3125,2,1,11380001,,,6,5
64,104,0.1875,0,1,11390000,,,6,3
50,104,0.5,1,1,11390000,,,6,8
50,104,0.4375,2,0,11390000,,,6,7
50,104,0.625,3,0,11390000,,,6,10
38,104,0.1875,4,1,11390000,,,6,3
38,104,0.375,5,0,11390000,,,6,6
50,104,0.5625,6,1,11390000,,,6,9
38,104,0.25,7,1,11390000,,,6,4
38,104,0.25,8,0,11390000,,,6,4
50,104,0.6875,9,1,11390000,,,6,11
38,104,0.1875,0,1,11390001,,,6,3
50,104,0.8125,1,1,11390001,,,6,13
50,104,0.375,2,1,11390001,,,6,6
50,104,0.5,3,0,11390001,,,6,8
56,104,0.875,4,0,11390001,,,6,14
49,104,0.25,5,1,11390001,,,6,4
49,104,0.375,6,0,11390001,,,6,6
60,104,0.125,0,1,11400000,,,6,2
57,104,0.5,1,0,11400000,,,6,8
45,104,0.5,2,1,11400000,,,6,8
41,104,0.1875,3,0,11400000,,,6,3
60,104,0.75,4,1,11400000,,,6,12
53,104,0.1875,5,1,11400000,,,6,3
60,104,0.25,6,1,11400000,,,6,4
58,104,0.9375,7,0,11400000,,,6,15
58,104,0.375,8,1,11400000,,,6,6
58,104,0.1875,9,0,11400000,,,6,3
65,104,0.4375,0,1,11400001,,,6,7
58,104,0.3125,1,1,11400001,,,6,5
53,104,0.1875,2,0,11400001,,,6,3
57,104,0.0625,3,0,11400001,,,6,1
58,104,0.9375,0,1,11410000,,,6,15
55,104,0.125,1,1,11410000,,,6,2
62,104,0.9375,2,1,11410000,,,6,15
55,104,0.9375,3,1,11410000,,,6,15
65,104,0.25,4,1,11410000,,,6,4
53,104,0.9375,5,1,11410000,,,6,15
60,104,0.9375,0,1,11410001,,,6,15
69,104,0.25,1,1,11410001,,,6,4
57,104,0.75,2,1,11410001,,,6,12
57,104,0.75,3,1,11410001,,,6,12
65,104,0.1875,4,1,11410001,,,6,3
28,104,0.4375,0,1,11420000,,,6,7
28,104,0.25,1,0,11420000,,,6,4
47,104,0.125,2,1,11420000,,,6,2
47,104,0.125,3,0,11420000,,,6,2
50,104,0.9375,4,0,11420000,,,6,15
54,104,0.1875,5,1,11420000,,,6,3
50,104,0.9375,6,0,11420000,,,6,15
52,104,0.3125,7,1,11420000,,,6,5
40,104,0.4375,8,1,11420000,,,6,7
52,104,0.75,9,1,11420000,,,6,12
54,104,0.1875,0,1,11420001,,,6,3
52,104,0.1875,1,0,11420001,,,6,3
33,104,0.25,2,1,11420001,,,6,4
33,104,0.25,3,0,11420001,,,6,4
33,104,0.25,4,0,11420001,,,6,4
45,104,0.25,5,1,11420001,,,6,4
45,104,0.8125,6,0,11420001,,,6,13
28,104,0.25,7,1,11420001,,,6,4
28,104,0.25,8,0,11420001,,,6,4
47,104,0.875,9,1,11420001,,,6,14
47,104,0.9375,0,1,11420002,,,6,15
57,104,0.875,0,1,11430000,,,6,14
62,104,0.1875,1,1,11430000,,,6,3
64,104,0.8125,2,0,11430000,,,6,13
37,104,0.1875,3,1,11430000,,,6,3
59,104,0.8125,4,1,11430000,,,6,13
50,104,0.9375,5,1,11430000,,,6,15
50,104,0.9375,6,1,11430000,,,6,15
45,104,0.5,0,1,11430001,,,6,8
33,104,0.375,1,1,11430001,,,6,6
33,104,0.6875,2,0,11430001,,,6,11
45,104,0.1875,3,1,11430001,,,6,3
45,104,0.3125,4,0,11430001,,,6,5
33,104,0.375,5,1,11430001,,,6,6
65,104,0.1875,0,1,11440000,,,6,3
50,104,0.25,1,1,11440000,,,6,4
57,104,0.5,2,1,11440000,,,6,8
62,104,0.3125,3,0,11440000,,,6,5
38,104,0.3125,4,1,11440000,,,6,5
62,104,0.25,5,1,11440000,,,6,4
65,104,0.5625,6,0,11440000,,,6,9
57,104,0.1875,7,1,11440000,,,6,3
50,104,0.8125,8,1,11440000,,,6,13
62,104,0.4375,9,1,11440000,,,6,7
53,104,0.5,10,1,11440000,,,6,8
50,104,0.25,0,1,11440001,,,6,4
50,104,0.5,1,0,11440001,,,6,8
62,104,0.375,2,1,11440001,,,6,6
65,104,0.375,3,0,11440001,,,6,6
65,104,0.75,4,0,11440001,,,6,12
50,104,0.3125,5,1,11440001,,,6,5
60,104,0.375,6,1,11440001,,,6,6
53,104,0.4375,7,1,11440001,,,6,7
53,104,0.5625,8,0,11440001,,,6,9
62,104,0.1875,0,1,11440002,,,6,3
49,104,0.1875,0,1,11450000,,,6,3
54,104,0.1875,1,0,11450000,,,6,3
66,104,0.4375,2,1,11450000,,,6,7
54,104,0.1875,3,1,11450000,,,6,3
45,104,0.3125,4,1,11450000,,,6,5
52,104,0.1875,5,1,11450000,,,6,3
45,104,0.9375,6,1,11450000,,,6,15
64,104,0.375,7,1,11450000,,,6,6
57,104,0.5625,8,1,11450000,,,6,9
45,104,0.25,9,1,11450000,,,6,4
45,104,0.3125,10,0,11450000,,,6,5
66,104,0.3125,11,1,11450000,,,6,5
66,104,0.1875,0,1,11450001,,,6,3
66,104,0.1875,1,0,11450001,,,6,3
47,104,0.1875,2,1,11450001,,,6,3
47,104,0.9375,3,0,11450001,,,6,15
64,104,0.9375,4,1,11450001,,,6,15
59,104,0.8125,5,1,11450001,,,6,13
64,104,0.1875,6,1,11450001,,,6,3
50,104,0.125,0,1,11460000,,,6,2
50,104,0.1875,1,0,11460000,,,6,3
61,104,0.9375,2,1,11460000,,,6,15
54,104,0.9375,3,1,11460000,,,6,15
54,104,0.9375,4,1,11460000,,,6,15
62,104,0.1875,5,1,11460000,,,6,3
54,104,0.4375,6,1,11460000,,,6,7
59,104,0.1875,7,0,11460000,,,6,3
54,104,0.125,8,0,11460000,,,6,2
54,104,0.25,0,1,11460001,,,6,4
66,104,0.125,1,1,11460001,,,6,2
43,104,0.3125,2,1,11460001,,,6,5
55,104,0.1875,3,1,11460001,,,6,3
54,104,0.25,0,1,11470000,,,6,4
47,104,0.3125,1,1,11470000,,,6,5
47,104,0.4375,2,0,11470000,,,6,7
59,104,0.5625,3,1,11470000,,,6,9
47,104,0.25,4,1,11470000,,,6,4
59,104,0.1875,5,1,11470000,,,6,3
54,104,0.375,6,0,11470000,,,6,6
47,104,0.5,7,1,11470000,,,6,8
56,104,0.3125,8,1,11470000,,,6,5
47,104,0.3125,9,1,11470000,,,6,5
47,104,0.4375,10,0,11470000,,,6,7
47,104,0.25,11,0,11470000,,,6,4
56,104,0.8125,0,1,11470001,,,6,13
56,104,0.9375,1,1,11470001,,,6,15
49,104,0.3125,2,1,11470001,,,6,5
40,104,0.625,0,1,11480000,,,6,10
40,104,0.9375,1,0,11480000,,,6,15
40,104,0.9375,2,1,11480000,,,6,15
40,104,0.25,3,1,11480000,,,6,4
59,104,0.25,4,1,11480000,,,6,4
40,104,0.25,5,1,11480000,,,6,4
40,104,0.4375,6,0,11480000,,,6,7
40,104,0.5625,7,0,11480000,,,6,9
64,104,0.5,0,1,11480001,,,6,8
57,104,0.4375,1,1,11480001,,,6,7
45,104,0.5,2,1,11480001,,,6,8
47,104,0.375,3,0,11480001,,,6,6
47,104,0.125,4,0,11480001,,,6,2
47,104,0.5,5,0,11480001,,,6,8
47,104,0.6875,6,0,11480001,,,6,11
35,104,0.25,7,1,11480001,,,6,4
47,104,0.5625,8,1,11480001,,,6,9
47,104,0.5625,0,1,11480002,,,6,9
47,104,0.3125,1,0,11480002,,,6,5
49,104,0.0625,2,0,11480002,,,6,1
53,104,0.3125,0,1,11490000,,,6,5
60,104,0.5,1,1,11490000,,,6,8
58,104,0.1875,2,0,11490000,,,6,3
60,104,0.375,3,0,11490000,,,6,6
53,104,0.1875,4,1,11490000,,,6,3
60,104,0.9375,5,1,11490000,,,6,15
60,104,0.875,6,1,11490000,,,6,14
65,104,0.125,7,1,11490000,,,6,2
65,104,0.25,8,0,11490000,,,6,4
58,104,0.125,9,1,11490000,,,6,2
62,104,0.375,10,0,11490000,,,6,6
58,104,0.9375,0,1,11490001,,,6,15
58,104,0.8125,1,1,11490001,,,6,13
64,104,0.3125,2,1,11490001,,,6,5
60,104,0.875,3,0,11490001,,,6,14
48,104,0.1875,4,1,11490001,,,6,3
65,104,0.3125,5,1,11490001,,,6,5
53,104,0.4375,6,1,11490001,,,6,7
49,104,0.125,0,1,11500000,,,6,2
49,104,0.25,1,0,11500000,,,6,4
49,104,0.5,2,0,11500000,,,6,8
59,104,0.4375,3,1,11500000,,,6,7
59,104,0.375,4,0,11500000,,,6,6
49,104,0.875,5,1,11500000,,,6,14
61,104,0.375,6,1,11500000,,,6,6
49,104,0.1875,7,1,11500000,,,6,3
50,104,0.6875,8,0,11500000,,,6,11
38,104,0.75,9,1,11500000,,,6,12
38,104,0.1875,0,1,11500001,,,6,3
50,104,0.5,1,1,11500001,,,6,8
38,104,0.75,2,1,11500001,,,6,12
54,104,0.25,3,1,11500001,,,6,4
54,104,0.1875,4,0,11500001,,,6,3
57,104,0.5625,5,0,11500001,,,6,9
49,104,0.875,6,1,11500001,,,6,14
56,104,0.25,7,1,11500001,,,6,4
49,104,0.5625,0,1,11500002,,,6,9
42,104,0.4375,1,1,11500002,,,6,7
55,104,0.4375,0,1,11510000,,,6,7
67,104,0.3125,1,1,11510000,,,6,5
55,104,0.375,2,1,11510000,,,6,6
55,104,0.125,3,0,11510000,,,6,2
55,104,0.1875,4,0,11510000,,,6,3
55,104,0.4375,5,0,11510000,,,6,7
55,104,0.6875,6,0,11510000,,,6,11
60,104,0.25,7,0,11510000,,,6,4
55,104,0.9375,8,0,11510000,,,6,15
55,104,0.625,9,1,11510000,,,6,10
67,104,0.125,0,1,11510001,,,6,2
55,104,0.9375,1,1,11510001,,,6,15
55,104,0.1875,2,1,11510001,,,6,3
62,104,0.9375,3,1,11510001,,,6,15
74,104,0.375,4,1,11510001,,,6,6
67,104,0.1875,5,1,11510001,,,6,3
50,104,0.5625,6,1,11510001,,,6,9
62,104,0.1875,7,1,11510001,,,6,3
55,104,0.375,8,1,11510001,,,6,6
55,104,0.5625,0,1,11510002,,,6,9
57,104,0.125,0,1,11520000,,,6,2
57,104,0.4375,1,0,11520000,,,6,7
59,104,0.375,2,0,11520000,,,6,6
40,104,0.4375,3,1,11520000,,,6,7
40,104,0.1875,4,0,11520000,,,6,3
64,104,0.25,5,1,11520000,,,6,4
61,104,0.875,6,0,11520000,,,6,14
59,104,0.1875,7,1,11520000,,,6,3
57,104,0.375,8,0,11520000,,,6,6
33,104,0.8125,9,1,11520000,,,6,13
59,104,0.8125,0,1,11520001,,,6,13
61,104,0.1875,1,1,11520001,,,6,3
57,104,0.9375,2,0,11520001,,,6,15
61,104,0.9375,3,1,11520001,,,6,15
57,104,0.25,4,1,11520001,,,6,4
59,104,0.1875,5,0,11520001,,,6,3
52,104,0.125,0,1,11530000,,,6,2
57,104,0.875,1,0,11530000,,,6,14
49,104,0.875,2,1,11530000,,,6,14
52,104,0.3125,3,1,11530000,,,6,5
52,104,0.1875,4,0,11530000,,,6,3
47,104,0.75,5,0,11530000,,,6,12
33,104,0.8125,6,1,11530000,,,6,13
33,104,0.1875,7,1,11530000,,,6,3
57,104,0.9375,0,1,11530001,,,6,15
57,104,0.125,1,1,11530001,,,6,2
64,104,0.9375,2,1,11530001,,,6,15
47,104,0.4375,3,1,11530001,,,6,7
47,104,0.5625,4,0,11530001,,,6,9
50,104,0.375,5,0,11530001,,,6,6
59,104,0.9375,6,1,11530001,,,6,15
62,104,0.3125,0,1,11530002,,,6,5
31,104,0.875,0,1,11540000,,,6,14
43,104,0.8125,1,1,11540000,,,6,13
43,104,0.9375,2,1,11540000,,,6,15
50,104,0.9375,3,1,11540000,,,6,15
62,104,0.9375,4,1,11540000,,,6,15
50,104,0.375,0,1,11540001,,,6,6
50,104,0.9375,1,0,11540001,,,6,15
57,104,0.4375,0,1,11550000,,,6,7
45,104,0.375,1,1,11550000,,,6,6
59,104,0.1875,2,1,11550000,,,6,3
68,104,0.5,3,1,11550000,,,6,8
64,104,0.25,4,0,11550000,,,6,4
52,104,0.25,5,1,11550000,,,6,4
40,104,0.3125,6,1,11550000,,,6,5
64,104,0.125,7,1,11550000,,,6,2
64,104,0.125,8,0,11550000,,,6,2
64,104,0.1875,9,0,11550000,,,6,3
64,104,0.5625,10,0,11550000,,,6,9
57,104,0.25,11,1,11550000,,,6,4
50,104,0.9375,12,1,11550000,,,6,15
50,104,0.5,0,1,11550001,,,6,8
64,104,0.3125,1,1,11550001,,,6,5
61,104,0.9375,2,0,11550001,,,6,15
59,104,0.3125,3,1,11550001,,,6,5
33,104,0.5,4,1,11550001,,,6,8
33,104,0.875,5,0,11550001,,,6,14
63,104,0.3125,0,1,11560000,,,6,5
51,104,0.1875,1,1,11560000,,,6,3
58,104,0.25,2,1,11560000,,,6,4
58,104,0.25,3,0,11560000,,,6,4
53,104,0.375,4,0,11560000,,,6,6
53,104,0.25,5,0,11560000,,,6,4
55,104,0.1875,6,0,11560000,,,6,3
50,104,0.3125,7,0,11560000,,,6,5
50,104,0.25,8,0,11560000,,,6,4
51,104,0.25,9,0,11560000,,,6,4
51,104,0.25,10,0,11560000,,,6,4
63,104,0.4375,11,1,11560000,,,6,7
65,104,0.3125,12,0,11560000,,,6,5
67,104,0.25,13,0,11560000,,,6,4
62,104,0.3125,14,0,11560000,,,6,5
62,104,0.3125,0,1,11560001,,,6,5
63,104,0.0625,1,0,11560001,,,6,1
59,104,0.1875,0,1,11570000,,,6,3
64,104,0.3125,1,0,11570000,,,6,5
68,104,0.375,2,0,11570000,,,6,6
59,104,0.1875,3,1,11570000,,,6,3
59,104,0.25,4,0,11570000,,,6,4
59,104,0.25,5,0,11570000,,,6,4
56,104,0.9375,6,0,11570000,,,6,15
56,104,0.1875,0,1,11580000,,,6,3
63,104,0.1875,1,1,11580000,,,6,3
56,104,0.375,2,1,11580000,,,6,6
51,104,0.125,3,0,11580000,,,6,2
65,104,0.1875,4,1,11580000,,,6,3
58,104,0.3125,5,1,11580000,,,6,5
65,104,0.5625,6,1,11580000,,,6,9
55,104,0.3125,7,1,11580000,,,6,5
55,104,0.3125,8,0,11580000,,,6,5
51,104,0.25,9,0,11580000,,,6,4
55,104,0.1875,10,0,11580000,,,6,3
51,104,0.3125,11,0,11580000,,,6,5
51,104,0.1875,12,0,11580000,,,6,3
70,104,0.1875,13,1,11580000,,,6,3
51,104,0.3125,14,1,11580000,,,6,5
39,104,0.5,0,1,11580001,,,6,8
55,104,0.1875,1,1,11580001,,,6,3
55,104,0.125,2,0,11580001,,,6,2
51,104,0.125,3,0,11580001,,,6,2
63,104,0.3125,4,1,11580001,,,6,5
47,104,0.3125,0,1,11590000,,,6,5
52,104,0.375,1,0,11590000,,,6,6
49,104,0.1875,2,0,11590000,,,6,3
49,104,0.9375,3,0,11590000,,,6,15
49,104,0.625,4,1,11590000,,,6,10
64,104,0.3125,5,1,11590000,,,6,5
64,104,0.1875,6,0,11590000,,,6,3
57,104,0.1875,7,1,11590000,,,6,3
50,104,0.9375,8,1,11590000,,,6,15
50,104,0.1875,0,1,11590001,,,6,3
52,104,0.1875,1,0,11590001,,,6,3
52,104,0.25,2,0,11590001,,,6,4
64,104,0.125,3,1,11590001,,,6,2
52,104,0.125,4,1,11590001,,,6,2
52,104,0.375,5,0,11590001,,,6,6
52,104,0.1875,6,0,11590001,,,6,3
57,104,0.375,7,0,11590001,,,6,6
57,104,0.0625,8,0,11590001,,,6,1
38,104,0.5625,0,1,11600000,,,6,9
38,104,0.1875,1,0,11600000,,,6,3
38,104,0.125,2,0,11600000,,,6,2
50,104,0.625,3,1,11600000,,,6,10
38,104,0.875,4,1,11600000,,,6,14
62,104,0.9375,5,1,11600000,,,6,15
45,104,0.9375,6,1,11600000,,,6,15
59,104,0.5,0,1,11610000,,,6,8
64,104,0.4375,1,0,11610000,,,6,7
64,104,0.4375,2,0,11610000,,,6,7
59,104,0.1875,3,0,11610000,,,6,3
52,104,0.4375,4,1,11610000,,,6,7
62,104,0.1875,5,1,11610000,,,6,3
57,104,0.375,6,0,11610000,,,6,6
57,104,0.9375,7,0,11610000,,,6,15
45,104,0.1875,8,1,11610000,,,6,3
57,104,0.625,9,1,11610000,,,6,10
57,104,0.5625,0,1,11610001,,,6,9
45,104,0.25,1,1,11610001,,,6,4
57,104,0.375,2,1,11610001,,,6,6
57,104,0.25,3,0,11610001,,,6,4
66,104,0.625,4,1,11610001,,,6,10
38,104,0.1875,5,1,11610001,,,6,3
50,104,0.1875,6,1,11610001,,,6,3
38,104,0.1875,7,1,11610001,,,6,3
38,104,0.3125,8,0,11610001,,,6,5
50,104,0.125,9,1,11610001,,,6,2
50,104,0.1875,10,0,11610001,,,6,3
38,104,0.1875,11,1,11610001,,,6,3
38,104,0.5,12,0,11610001,,,6,8
45,104,0.8125,0,1,11620000,,,6,13
33,104,0.8125,1,1,11620000,,,6,13
45,104,0.25,2,1,11620000,,,6,4
37,104,0.1875,3,1,11620000,,,6,3
49,104,0.4375,4,1,11620000,,,6,7
56,104,0.25,5,1,11620000,,,6,4
45,104,0.3125,6,1,11620000,,,6,5
26,104,0.125,7,1,11620000,,,6,2
45,104,0.25,8,1,11620000,,,6,4
45,104,0.9375,9,0,11620000,,,6,15
26,104,0.25,0,1,11620001,,,6,4
38,104,0.4375,1,1,11620001,,,6,7
44,104,0.1875,0,1,11630000,,,6,3
53,104,0.25,1,1,11630000,,,6,4
34,104,0.75,2,1,11630000,,,6,12
46,104,0.3125,3,1,11630000,,,6,5
34,104,0.9375,4,1,11630000,,,6,15
46,104,0.125,5,1,11630000,,,6,2
34,104,0.625,6,1,11630000,,,6,10
46,104,0.3125,7,1,11630000,,,6,5
46,104,0.4375,8,0,11630000,,,6,7
34,104,0.9375,9,1,11630000,,,6,15
53,104,0.25,0,1,11630001,,,6,4
65,104,0.375,1,1,11630001,,,6,6
55,104,0.5,2,1,11630001,,,6,8
53,104,0.25,3,0,11630001,,,6,4
53,104,0.4375,4,0,11630001,,,6,7
41,104,0.375,5,1,11630001,,,6,6
53,104,0.375,6,1,11630001,,,6,6
41,104,0.9375,7,1,11630001,,,6,15
58,104,0.1875,0,1,11640000,,,6,3
58,104,0.75,1,0,11640000,,,6,12
58,104,0.375,2,1,11640000,,,6,6
58,104,0.375,3,0,11640000,,,6,6
58,104,0.9375,4,0,11640000,,,6,15
60,104,0.25,5,1,11640000,,,6,4
58,104,0.9375,6,0,11640000,,,6,15
58,104,0.9375,7,1,11640000,,,6,15
56,104,0.6875,0,1,11640001,,,6,11
68,104,0.5625,1,1,11640001,,,6,9
68,104,0.75,2,0,11640001,,,6,12
68,104,0.6875,3,1,11640001,,,6,11
58,104,0.1875,4,1,11640001,,,6,3
56,104,0.25,5,0,11640001,,,6,4
57,104,0.4375,0,1,11650000,,,6,7
33,104,0.25,1,1,11650000,,,6,4
33,104,0.1875,2,0,11650000,,,6,3
69,104,0.5,3,1,11650000,,,6,8
57,104,0.75,4,1,11650000,,,6,12
50,104,0.875,5,1,11650000,,,6,14
44,104,0.625,6,1,11650000,,,6,10
43,104,0.1875,7,0,11650000,,,6,3
43,104,0.9375,8,0,11650000,,,6,15
64,104,0.25,0,1,11650001,,,6,4
64,104,0.5625,1,0,11650001,,,6,9
64,104,0.5,2,0,11650001,,,6,8
53,104,0.1875,3,1,11650001,,,6,3
65,104,0.25,4,1,11650001,,,6,4
44,104,0.9375,5,1,11650001,,,6,15
63,104,0.9375,0,1,11660000,,,6,15
53,104,0.1875,1,1,11660000,,,6,3
65,104,0.1875,2,1,11660000,,,6,3
60,104,0.1875,3,0,11660000,,,6,3
60,104,0.25,4,0,11660000,,,6,4
63,104,0.1875,5,0,11660000,,,6,3
63,104,0.25,6,0,11660000,,,6,4
63,104,0.3125,7,0,11660000,,,6,5
51,104,0.375,8,1,11660000,,,6,6
51,104,0.375,9,0,11660000,,,6,6
51,104,0.5625,10,0,11660000,,,6,9
51,104,0.4375,11,0,11660000,,,6,7
44,104,0.125,0,1,11660001,,,6,2
44,104,0.3125,1,0,11660001,,,6,5
32,104,0.25,2,1,11660001,,,6,4
51,104,0.75,3,1,11660001,,,6,12
51,104,0.375,4,1,11660001,,,6,6
53,104,0.25,5,0,11660001,,,6,4
50,104,0.25,0,1,11670000,,,6,4
55,104,0.75,1,0,11670000,,,6,12
55,104,0.5,2,1,11670000,,,6,8
62,104,0.1875,3,1,11670000,,,6,3
50,104,0.75,4,1,11670000,,,6,12
55,104,0.3125,5,1,11670000,,,6,5
55,104,0.5625,6,0,11670000,,,6,9
52,104,0.4375,7,0,11670000,,,6,7
52,104,0.3125,8,0,11670000,,,6,5
52,104,0.5,0,1,11670001,,,6,8
52,104,0.9375,1,0,11670001,,,6,15
55,104,0.1875,2,1,11670001,,,6,3
33,104,0.25,3,1,11670001,,,6,4
52,104,0.4375,4,1,11670001,,,6,7
50,104,0.1875,5,0,11670001,,,6,3
31,104,0.125,6,1,11670001,,,6,2
60,104,0.1875,0,1,11680000,,,6,3
58,104,0.9375,1,0,11680000,,,6,15
58,104,0.4375,2,1,11680000,,,6,7
58,104,0.5625,3,0,11680000,,,6,9
68,104,0.5,4,1,11680000,,,6,8
60,104,0.75,5,1,11680000,,,6,12
58,104,0.3125,6,1,11680000,,,6,5
68,104,0.1875,7,1,11680000,,,6,3
60,104,0.375,8,1,11680000,,,6,6
58,104,0.9375,0,1,11680001,,,6,15
68,104,0.9375,1,1,11680001,,,6,15
39,104,0.9375,2,1,11680001,,,6,15
39,104,0.5625,3,1,11680001,,,6,9
58,104,0.375,4,1,11680001,,,6,6
38,104,0.1875,0,1,11690000,,,6,3
50,104,0.9375,1,1,11690000,,,6,15
31,104,0.3125,2,1,11690000,,,6,5
69,104,0.375,3,1,11690000,,,6,6
59,104,0.5,4,1,11690000,,,6,8
62,104,0.375,5,0,11690000,,,6,6
62,104,0.1875,6,0,11690000,,,6,3
62,104,0.3125,7,0,11690000,,,6,5
53,104,0.375,0,1,11700000,,,6,6
53,104,0.1875,1,0,11700000,,,6,3
44,104,0.1875,2,1,11700000,,,6,3
54,104,0.1875,3,1,11700000,,,6,3
54,104,0.1875,4,0,11700000,,,6,3
54,104,0.625,5,0,11700000,,,6,10
42,104,0.25,6,1,11700000,,,6,4
54,104,0.9375,7,1,11700000,,,6,15
54,104,0.3125,8,1,11700000,,,6,5
49,104,0.9375,9,0,11700000,,,6,15
53,104,0.375,0,1,11700001,,,6,6
60,104,0.125,1,1,11700001,,,6,2
53,104,0.8125,2,1,11700001,,,6,13
65,104,0.1875,3,1,11700001,,,6,3
53,104,0.25,4,1,11700001,,,6,4
65,104,0.4375,0,1,11710000,,,6,7
65,104,0.1875,1,0,11710000,,,6,3
65,104,0.375,2,0,11710000,,,6,6
63,104,0.1875,3,0,11710000,,,6,3
53,104,0.9375,4,1,11710000,,,6,15
53,104,0.9375,5,1,11710000,,,6,15
53,104,0.375,6,1,11710000,,,6,6
53,104,0.9375,7,0,11710000,,,6,15
53,104,0.25,0,1,11710001,,,6,4
31,104,0.75,1,1,11710001,,,6,12
50,104,0.1875,2,1,11710001,,,6,3
53,104,0.375,3,0,11710001,,,6,6
63,104,0.25,4,1,11710001,,,6,4
29,104,0.125,5,1,11710001,,,6,2
61,104,0.125,0,1,11720000,,,6,2
61,104,0.9375,1,0,11720000,,,6,15
66,104,0.9375,2,1,11720000,,,6,15
57,104,0.9375,3,1,11720000,,,6,15
59,104,0.4375,4,1,11720000,,,6,7
40,104,0.25,5,1,11720000,,,6,4
40,104,0.1875,6,0,11720000,,,6,3
59,104,0.125,7,1,11720000,,,6,2
64,104,0.125,8,0,11720000,,,6,2
40,104,0.1875,0,1,11720001,,,6,3
59,104,0.125,1,1,11720001,,,6,2
61,104,0.125,2,0,11720001,,,6,2
64,104,0.75,3,0,11720001,,,6,12
53,104,0.1875,4,1,11720001,,,6,3
61,104,0.25,5,1,11720001,,,6,4
61,104,0.5,6,0,11720001,,,6,8
57,104,0.375,7,0,11720001,,,6,6
61,104,0.375,8,0,11720001,,,6,6
61,104,0.875,9,0,11720001,,,6,14
54,104,0.8125,10,1,11720001,,,6,13
61,104,0.9375,0,1,11720002,,,6,15
62,104,0.3125,1,1,11720002,,,6,5
59,104,0.125,0,1,11730000,,,6,2
59,104,0.125,1,0,11730000,,,6,2
59,104,0.375,2,0,11730000,,,6,6
59,104,0.625,3,0,11730000,,,6,10
59,104,0.75,4,0,11730000,,,6,12
57,104,0.5625,5,1,11730000,,,6,9
50,104,0.3125,6,1,11730000,,,6,5
50,104,0.125,7,0,11730000,,,6,2
47,104,0.125,8,0,11730000,,,6,2
31,104,0.9375,9,1,11730000,,,6,15
31,104,0.4375,0,1,11730001,,,6,7
31,104,0.1875,1,0,11730001,,,6,3
31,104,0.4375,2,0,11730001,,,6,7
50,104,0.375,3,1,11730001,,,6,6
62,104,0.1875,0,1,11740000,,,6,3
65,104,0.5,1,0,11740000,,,6,8
51,104,0.5,2,1,11740000,,,6,8
58,104,0.4375,3,1,11740000,,,6,7
58,104,0.75,4,0,11740000,,,6,12
58,104,0.375,5,1,11740000,,,6,6
53,104,0.8125,6,0,11740000,,,6,13
60,104,0.375,7,1,11740000,,,6,6
60,104,0.1875,8,0,11740000,,,6,3
57,104,0.6875,0,1,11740001,,,6,11
53,104,0.5,1,0,11740001,,,6,8
60,104,0.25,2,1,11740001,,,6,4
53,104,0.3125,3,1,11740001,,,6,5
46,104,0.9375,4,1,11740001,,,6,15
58,104,0.9375,5,1,11740001,,,6,15
53,104,0.4375,6,1,11740001,,,6,7
55,104,0.4375,0,1,11740002,,,6,7
58,104,0.3125,1,0,11740002,,,6,5
57,104,0.4375,0,1,11750000,,,6,7
45,104,0.4375,1,1,11750000,,,6,7
64,104,0.8125,2,1,11750000,,,6,13
47,104,0.9375,3,1,11750000,,,6,15
47,104,0.5,4,1,11750000,,,6,8
47,104,0.3125,5,0,11750000,,,6,5
47,104,0.75,6,0,11750000,,,6,12
40,104,0.5625,0,1,11750001,,,6,9
40,104,0.3125,1,0,11750001,,,6,5
59,104,0.3125,2,1,11750001,,,6,5
40,104,0.5,3,1,11750001,,,6,8
64,104,0.375,4,1,11750001,,,6,6
40,104,0.25,5,1,11750001,,,6,4
64,104,0.25,6,1,11750001,,,6,4
59,104,0.25,7,0,11750001,,,6,4
40,104,0.625,8,1,11750001,,,6,10
59,104,0.5,9,1,11750001,,,6,8
40,104,0.375,0,1,11750002,,,6,6
40,104,0.1875,1,0,11750002,,,6,3
40,104,0.125,2,0,11750002,,,6,2
35,104,0.375,3,0,11750002,,,6,6
31,104,0.375,0,1,11760000,,,6,6
31,104,0.6875,1,0,11760000,,,6,11
31,104,0.4375,2,0,11760000,,,6,7
53,104,0.25,3,1,11760000,,,6,4
29,104,0.25,4,1,11760000,,,6,4
38,104,0.1875,5,1,11760000,,,6,3
50,104,0.3125,6,1,11760000,,,6,5
50,104,0.1875,7,0,11760000,,,6,3
50,104,0.4375,8,0,11760000,,,6,7
50,104,0.625,9,0,11760000,,,6,10
50,104,0.625,10,0,11760000,,,6,10
31,104,0.3125,0,1,11760001,,,6,5
55,104,0.4375,1,1,11760001,,,6,7
31,104,0.4375,2,1,11760001,,,6,7
24,104,0.375,3,1,11760001,,,6,6
60,104,0.75,4,1,11760001,,,6,12
41,104,0.1875,0,1,11770000,,,6,3
60,104,0.5,1,1,11770000,,,6,8
41,104,0.375,2,1,11770000,,,6,6
60,104,0.625,3,1,11770000,,,6,10
48,104,0.1875,4,1,11770000,,,6,3
48,104,0.4375,5,0,11770000,,,6,7
60,104,0.5,6,1,11770000,,,6,8
53,104,0.375,7,1,11770000,,,6,6
50,104,0.9375,8,0,11770000,,,6,15
60,104,0.5625,0,1,11770001,,,6,9
60,104,0.9375,1,0,11770001,,,6,15
53,104,0.25,2,1,11770001,,,6,4
46,104,0.1875,3,1,11770001,,,6,3
58,104,0.4375,4,1,11770001,,,6,7
33,104,0.25,0,1,11780000,,,6,4
45,104,0.5,1,1,11780000,,,6,8
33,104,0.75,2,1,11780000,,,6,12
33,104,0.5625,3,1,11780000,,,6,9
33,104,0.4375,4,0,11780000,,,6,7
52,104,0.1875,5,1,11780000,,,6,3
52,104,0.25,6,0,11780000,,,6,4
40,104,0.1875,7,1,11780000,,,6,3
40,104,0.1875,8,0,11780000,,,6,3
52,104,0.6875,9,1,11780000,,,6,11
38,104,0.3125,0,1,11780001,,,6,5
38,104,0.3125,1,0,11780001,,,6,5
26,104,0.125,2,1,11780001,,,6,2
38,104,0.1875,3,1,11780001,,,6,3
52,104,0.5625,4,1,11780001,,,6,9
52,104,0.5625,5,0,11780001,,,6,9
53,104,0.625,0,1,11790000,,,6,10
53,104,0.5,1,0,11790000,,,6,8
53,104,0.375,2,0,11790000,,,6,6
29,104,0.375,3,1,11790000,,,6,6
51,104,0.25,4,1,11790000,,,6,4
51,104,0.9375,5,0,11790000,,,6,15
51,104,0.25,6,1,11790000,,,6,4
51,104,0.6875,7,0,11790000,,,6,11
41,104,0.25,0,1,11790001,,,6,4
41,104,0.3125,1,0,11790001,,,6,5
41,104,0.3125,2,0,11790001,,,6,5
60,104,0.3125,3,1,11790001,,,6,5
53,104,0.3125,4,1,11790001,,,6,5
34,104,0.4375,5,1,11790001,,,6,7
53,104,0.4375,6,1,11790001,,,6,7
34,104,0.8125,7,1,11790001,,,6,13
53,104,0.125,8,1,11790001,,,6,2
58,104,0.25,0,1,11800000,,,6,4
53,104,0.75,1,0,11800000,,,6,12
53,104,0.3125,2,1,11800000,,,6,5
29,104,0.6875,3,1,11800000,,,6,11
31,104,0.9375,4,0,11800000,,,6,15
31,104,0.4375,5,1,11800000,,,6,7
31,104,0.125,6,0,11800000,,,6,2
31,104,0.3125,7,0,11800000,,,6,5
31,104,0.1875,8,0,11800000,,,6,3
51,104,0.9375,0,1,11800001,,,6,15
51,104,0.3125,1,1,11800001,,,6,5
63,104,0.5,2,1,11800001,,,6,8
51,104,0.875,3,1,11800001,,,6,14
50,104,0.9375,4,1,11800001,,,6,15
50,104,0.6875,5,1,11800001,,,6,11
58,104,0.375,0,1,11810000,,,6,6
63,104,0.3125,1,0,11810000,,,6,5
51,104,0.1875,2,1,11810000,,,6,3
63,104,0.3125,3,1,11810000,,,6,5
63,104,0.25,4,0,11810000,,,6,4
51,104,0.4375,5,1,11810000,,,6,7
51,104,0.1875,6,0,11810000,,,6,3
48,104,0.25,7,0,11810000,,,6,4
48,104,0.1875,8,0,11810000,,,6,3
41,104,0.375,9,1,11810000,,,6,6
53,104,0.25,10,1,11810000,,,6,4
53,104,0.1875,11,0,11810000,,,6,3
29,104,0.375,12,1,11810000,,,6,6
53,104,0.75,13,1,11810000,,,6,12
53,104,0.25,0,1,11810001,,,6,4
53,104,0.5,1,0,11810001,,,6,8
53,104,0.3125,2,0,11810001,,,6,5
63,104,0.125,3,1,11810001,,,6,2
60,104,0.5,4,0,11810001,,,6,8
34,104,0.1875,0,1,11820000,,,6,3
82,104,0.1875,1,1,11820000,,,6,3
58,104,0.25,2,1,11820000,,,6,4
55,104,0.1875,3,0,11820000,,,6,3
55,104,0.1875,4,0,11820000,,,6,3
58,104,0.3125,5,0,11820000,,,6,5
58,104,0.9375,6,0,11820000,,,6,15
55,104,0.25,7,1,11820000,,,6,4
58,104,0.1875,8,0,11820000,,,6,3
58,104,0.125,9,0,11820000,,,6,2
58,104,0.25,10,0,11820000,,,6,4
58,104,0.375,11,0,11820000,,,6,6
55,104,0.1875,12,0,11820000,,,6,3
58,104,0.3125,13,0,11820000,,,6,5
58,104,0.1875,14,0,11820000,,,6,3
45,104,0.4375,0,1,11830000,,,6,7
57,104,0.25,1,1,11830000,,,6,4
57,104,0.125,2,0,11830000,,,6,2
45,104,0.5,3,1,11830000,,,6,8
48,104,0.125,4,0,11830000,,,6,2
59,104,0.25,5,1,11830000,,,6,4
45,104,0.25,6,1,11830000,,,6,4
50,104,0.125,7,0,11830000,,,6,2
50,104,0.375,8,0,11830000,,,6,6
50,104,0.125,9,0,11830000,,,6,2
50,104,0.125,10,0,11830000,,,6,2
57,104,0.5625,11,1,11830000,,,6,9
31,104,0.125,12,1,11830000,,,6,2
57,104,0.5,13,1,11830000,,,6,8
57,104,0.25,14,0,11830000,,,6,4
61,104,0.3125,0,1,11840000,,,6,5
49,104,0.625,1,1,11840000,,,6,10
49,104,0.1875,2,0,11840000,,,6,3
52,104,0.1875,3,0,11840000,,,6,3
45,104,0.25,4,1,11840000,,,6,4
64,104,0.75,5,1,11840000,,,6,12
59,104,0.1875,6,1,11840000,,,6,3
59,104,0.375,7,0,11840000,,,6,6
47,104,0.25,8,1,11840000,,,6,4
35,104,0.1875,9,1,11840000,,,6,3
47,104,0.25,10,1,11840000,,,6,4
47,104,0.3125,11,0,11840000,,,6,5
59,104,0.5625,12,1,11840000,,,6,9
59,104,0.1875,0,1,11840001,,,6,3
59,104,0.375,1,0,11840001,,,6,6
35,104,0.1875,2,1,11840001,,,6,3
59,104,0.25,3,1,11840001,,,6,4
49,104,0.25,4,1,11840001,,,6,4
49,104,0.75,5,0,11840001,,,6,12
61,104,0.25,6,1,11840001,,,6,4
49,104,0.25,7,1,11840001,,,6,4
60,104,0.125,0,1,11850000,,,6,2
53,104,0.5625,1,1,11850000,,,6,9
53,104,0.625,2,0,11850000,,,6,10
53,104,0.625,3,0,11850000,,,6,10
52,104,0.125,4,0,11850000,,,6,2
52,104,0.375,5,0,11850000,,,6,6
52,104,0.3125,6,0,11850000,,,6,5
55,104,0.25,7,0,11850000,,,6,4
33,104,0.875,8,1,11850000,,,6,14
45,104,0.125,9,1,11850000,,,6,2
45,104,0.25,0,1,11850001,,,6,4
45,104,0.125,1,0,11850001,,,6,2
55,104,0.625,2,1,11850001,,,6,10
55,104,0.125,3,0,11850001,,,6,2
33,104,0.25,4,1,11850001,,,6,4
33,104,0.5,5,0,11850001,,,6,8
50,104,0.5,6,1,11850001,,,6,8
34,104,0.1875,0,1,11860000,,,6,3
58,104,0.125,1,1,11860000,,,6,2
63,104,0.3125,2,0,11860000,,,6,5
53,104,0.125,3,1,11860000,,,6,2
53,104,0.1875,4,0,11860000,,,6,3
34,104,0.1875,5,1,11860000,,,6,3
46,104,0.375,6,1,11860000,,,6,6
53,104,0.3125,7,1,11860000,,,6,5
53,104,0.1875,8,0,11860000,,,6,3
53,104,0.25,9,0,11860000,,,6,4
34,104,0.25,10,1,11860000,,,6,4
46,104,0.5625,11,1,11860000,,,6,9
70,104,0.25,12,1,11860000,,,6,4
58,104,0.3125,13,1,11860000,,,6,5
39,104,0.125,14,1,11860000,,,6,2
51,104,0.6875,15,1,11860000,,,6,11
51,104,0.1875,0,1,11860001,,,6,3
63,104,0.25,0,1,11870000,,,6,4
51,104,0.25,1,1,11870000,,,6,4
51,104,0.375,2,0,11870000,,,6,6
65,104,0.25,3,1,11870000,,,6,4
34,104,0.1875,4,1,11870000,,,6,3
58,104,0.4375,5,1,11870000,,,6,7
58,104,0.1875,6,0,11870000,,,6,3
46,104,0.1875,7,1,11870000,,,6,3
63,104,0.1875,8,1,11870000,,,6,3
63,104,0.1875,9,0,11870000,,,6,3
63,104,0.3125,10,0,11870000,,,6,5
58,104,0.3125,11,0,11870000,,,6,5
63,104,0.25,12,0,11870000,,,6,4
62,104,0.5,0,1,11880000,,,6,8
55,104,0.9375,1,1,11880000,,,6,15
62,104,0.375,2,1,11880000,,,6,6
62,104,0.4375,3,0,11880000,,,6,7
36,104,0.125,4,1,11880000,,,6,2
36,104,0.125,5,0,11880000,,,6,2
36,104,0.125,6,0,11880000,,,6,2
36,104,0.9375,7,0,11880000,,,6,15
60,104,0.25,8,1,11880000,,,6,4
55,104,0.3125,9,0,11880000,,,6,5
55,104,0.9375,0,1,11880001,,,6,15
57,104,0.625,1,1,11880001,,,6,10
55,104,0.9375,2,0,11880001,,,6,15
43,104,0.75,3,1,11880001,,,6,12
55,104,0.1875,4,1,11880001,,,6,3
65,104,0.1875,0,1,11890000,,,6,3
58,104,0.5625,1,1,11890000,,,6,9
53,104,0.25,2,0,11890000,,,6,4
53,104,0.375,3,0,11890000,,,6,6
48,104,0.25,4,0,11890000,,,6,4
60,104,0.375,5,1,11890000,,,6,6
53,104,0.1875,6,1,11890000,,,6,3
53,104,0.9375,7,0,11890000,,,6,15
53,104,0.5,8,1,11890000,,,6,8
65,104,0.4375,9,1,11890000,,,6,7
57,104,0.375,0,1,11890001,,,6,6
60,104,0.1875,1,0,11890001,,,6,3
50,104,0.375,2,1,11890001,,,6,6
53,104,0.3125,3,0,11890001,,,6,5
53,104,0.1875,4,0,11890001,,,6,3
54,104,0.1875,0,1,11900000,,,6,3
47,104,0.6875,1,1,11900000,,,6,11
59,104,0.25,2,1,11900000,,,6,4
35,104,0.1875,3,1,11900000,,,6,3
59,104,0.375,4,1,11900000,,,6,6
47,104,0.3125,5,1,11900000,,,6,5
54,104,0.125,6,1,11900000,,,6,2
59,104,0.1875,7,0,11900000,,,6,3
54,104,0.9375,8,0,11900000,,,6,15
54,104,0.9375,9,1,11900000,,,6,15
66,104,0.1875,0,1,11900001,,,6,3
59,104,0.625,1,1,11900001,,,6,10
59,104,0.25,2,0,11900001,,,6,4
64,104,0.125,3,0,11900001,,,6,2
52,104,0.4375,4,1,11900001,,,6,7
59,104,0.1875,5,1,11900001,,,6,3
52,104,0.6875,6,1,11900001,,,6,11
54,104,0.625,7,0,11900001,,,6,10
54,104,0.0625,8,0,11900001,,,6,1
51,104,0.25,0,1,11910000,,,6,4
51,104,0.6875,1,0,11910000,,,6,11
51,104,0.1875,2,0,11910000,,,6,3
53,104,0.1875,3,0,11910000,,,6,3
34,104,0.1875,4,1,11910000,,,6,3
34,104,0.1875,5,0,11910000,,,6,3
58,104,0.25,6,1,11910000,,,6,4
34,104,0.1875,7,1,11910000,,,6,3
58,104,0.1875,8,1,11910000,,,6,3
55,104,0.6875,9,0,11910000,,,6,11
58,104,0.125,10,0,11910000,,,6,2
55,104,0.375,11,0,11910000,,,6,6
58,104,0.3125,12,0,11910000,,,6,5
58,104,0.25,13,0,11910000,,,6,4
63,104,0.375,0,1,11910001,,,6,6
53,104,0.5,1,1,11910001,,,6,8
48,104,0.3125,0,1,11920000,,,6,5
43,104,0.1875,1,0,11920000,,,6,3
64,104,0.1875,2,1,11920000,,,6,3
67,104,0.375,3,0,11920000,,,6,6
64,104,0.125,4,0,11920000,,,6,2
52,104,0.1875,5,1,11920000,,,6,3
67,104,0.6875,6,1,11920000,,,6,11
69,104,0.6875,7,0,11920000,,,6,11
59,104,0.9375,8,1,11920000,,,6,15
74,104,0.25,9,1,11920000,,,6,4
69,104,0.1875,10,0,11920000,,,6,3
59,104,0.4375,0,1,11920001,,,6,7
62,104,0.1875,1,0,11920001,,,6,3
50,104,0.75,2,1,11920001,,,6,12
62,104,0.4375,3,1,11920001,,,6,7
55,104,0.4375,4,1,11920001,,,6,7
55,104,0.4375,5,0,11920001,,,6,7
55,104,0.625,6,0,11920001,,,6,10
41,104,0.9375,0,1,11930000,,,6,15
41,104,0.5625,1,1,11930000,,,6,9
48,104,0.875,2,1,11930000,,,6,14
36,104,0.4375,3,1,11930000,,,6,7
36,104,0.6875,4,0,11930000,,,6,11
50,104,0.5625,5,1,11930000,,,6,9
46,104,0.9375,0,1,11930001,,,6,15
45,104,0.75,1,1,11930001,,,6,12
46,104,0.4375,2,1,11930001,,,6,7
46,104,0.375,3,0,11930001,,,6,6
56,104,0.9375,0,1,11940000,,,6,15
47,104,0.75,1,1,11940000,,,6,12
50,104,0.9375,2,1,11940000,,,6,15
83,104,0.25,3,1,11940000,,,6,4
50,104,0.9375,4,1,11940000,,,6,15
50,104,0.25,5,1,11940000,,,6,4
50,104,0.9375,0,1,11940001,,,6,15
38,104,0.5625,1,1,11940001,,,6,9
38,104,0.5625,2,0,11940001,,,6,9
50,104,0.9375,3,1,11940001,,,6,15
66,104,0.375,0,1,11950000,,,6,6
54,104,0.625,1,1,11950000,,,6,10
54,104,0.5625,2,0,11950000,,,6,9
56,104,0.375,3,0,11950000,,,6,6
56,104,0.5625,4,0,11950000,,,6,9
52,104,0.25,5,0,11950000,,,6,4
59,104,0.125,6,1,11950000,,,6,2
52,104,0.4375,7,1,11950000,,,6,7
57,104,0.25,8,0,11950000,,,6,4
52,104,0.4375,9,0,11950000,,,6,7
52,104,0.3125,0,1,11950001,,,6,5
45,104,0.125,1,1,11950001,,,6,2
52,104,0.1875,2,1,11950001,,,6,3
64,104,0.3125,3,1,11950001,,,6,5
52,104,0.1875,4,1,11950001,,,6,3
52,104,0.3125,5,0,11950001,,,6,5
52,104,0.125,6,0,11950001,,,6,2
57,104,0.25,7,0,11950001,,,6,4
57,104,0.5625,8,0,11950001,,,6,9
38,104,0.0625,9,1,11950001,,,6,1
70,104,0.1875,0,1,11960000,,,6,3
58,104,0.5,1,1,11960000,,,6,8
58,104,0.3125,2,0,11960000,,,6,5
60,104,0.1875,3,0,11960000,,,6,3
58,104,0.9375,4,0,11960000,,,6,15
58,104,0.9375,5,1,11960000,,,6,15
58,104,0.4375,6,1,11960000,,,6,7
60,104,0.75,7,0,11960000,,,6,12
58,104,0.9375,0,1,11960001,,,6,15
58,104,0.8125,1,1,11960001,,,6,13
58,104,0.1875,2,1,11960001,,,6,3
51,104,0.1875,3,1,11960001,,,6,3
58,104,0.9375,4,1,11960001,,,6,15
70,104,0.5625,5,1,11960001,,,6,9
58,104,0.5625,6,1,11960001,,,6,9
39,104,0.3125,0,1,11960002,,,6,5
51,104,0.4375,1,1,11960002,,,6,7
70,104,0.0,2,1,11960002,,,6,0
53,104,0.1875,0,1,11970000,,,6,3
55,104,0.625,1,0,11970000,,,6,10
27,104,0.375,2,1,11970000,,,6,6
58,104,0.1875,3,1,11970000,,,6,3
67,104,0.3125,4,1,11970000,,,6,5
46,104,0.9375,5,1,11970000,,,6,15
34,104,0.1875,6,1,11970000,,,6,3
58,104,0.5,7,1,11970000,,,6,8
46,104,0.25,8,1,11970000,,,6,4
46,104,0.6875,9,0,11970000,,,6,11
53,104,0.5,0,1,11970001,,,6,8
29,104,0.5625,1,1,11970001,,,6,9
43,104,0.125,2,1,11970001,,,6,2
70,104,0.375,3,1,11970001,,,6,6
72,104,0.375,4,0,11970001,,,6,6
70,104,0.375,5,0,11970001,,,6,6
72,104,0.375,6,0,11970001,,,6,6
53,104,0.1875,7,1,11970001,,,6,3
57,104,0.4375,0,1,11980000,,,6,7
43,104,0.1875,1,1,11980000,,,6,3
62,104,0.9375,2,1,11980000,,,6,15
62,104,0.9375,3,1,11980000,,,6,15
59,104,0.1875,4,1,11980000,,,6,3
62,104,0.75,5,0,11980000,,,6,12
52,104,0.9375,6,1,11980000,,,6,15
62,104,0.9375,0,1,11980001,,,6,15
33,104,0.125,1,1,11980001,,,6,2
33,104,0.375,2,0,11980001,,,6,6
33,104,0.1875,3,0,11980001,,,6,3
57,104,0.4375,4,1,11980001,,,6,7
57,104,0.1875,5,0,11980001,,,6,3
57,104,0.25,6,0,11980001,,,6,4
43,104,0.1875,7,1,11980001,,,6,3
50,104,0.5625,8,1,11980001,,,6,9
57,104,0.5,9,1,11980001,,,6,8
57,104,0.1875,0,1,11980002,,,6,3
29,104,0.4375,0,1,11990000,,,6,7
34,104,0.1875,1,0,11990000,,,6,3
55,104,0.6875,2,1,11990000,,,6,11
58,104,0.5625,3,0,11990000,,,6,9
55,104,0.3125,4,0,11990000,,,6,5
58,104,0.5,5,0,11990000,,,6,8
65,104,0.4375,6,1,11990000,,,6,7
51,104,0.75,7,1,11990000,,,6,12
51,104,0.625,8,1,11990000,,,6,10
51,104,0.1875,0,1,11990001,,,6,3
65,104,0.3125,1,1,11990001,,,6,5
65,104,0.25,2,0,11990001,,,6,4
48,104,0.1875,3,1,11990001,,,6,3
50,104,0.3125,4,0,11990001,,,6,5
50,104,0.1875,5,0,11990001,,,6,3
60,104,0.9375,0,1,12000000,,,6,15
58,104,0.8125,1,1,12000000,,,6,13
58,104,0.3125,2,1,12000000,,,6,5
58,104,0.9375,3,0,12000000,,,6,15
58,104,0.625,4,1,12000000,,,6,10
58,104,0.625,5,0,12000000,,,6,10
58,104,0.5,0,1,12000001,,,6,8
58,104,0.75,1,0,12000001,,,6,12
49,104,0.5625,0,1,12010000,,,6,9
49,104,0.25,1,0,12010000,,,6,4
56,104,0.25,2,1,12010000,,,6,4
37,104,0.25,3,1,12010000,,,6,4
49,104,0.1875,4,1,12010000,,,6,3
49,104,0.875,5,0,12010000,,,6,14
49,104,0.1875,6,1,12010000,,,6,3
56,104,0.3125,7,1,12010000,,,6,5
45,104,0.25,8,1,12010000,,,6,4
52,104,0.1875,9,1,12010000,,,6,3
57,104,0.1875,10,0,12010000,,,6,3
47,104,0.3125,11,1,12010000,,,6,5
47,104,0.5625,12,0,12010000,,,6,9
47,104,0.9375,0,1,12010001,,,6,15
35,104,0.375,1,1,12010001,,,6,6
35,104,0.4375,2,0,12010001,,,6,7
53,104,0.25,0,1,12020000,,,6,4
65,104,0.3125,1,1,12020000,,,6,5
53,104,0.25,2,1,12020000,,,6,4
62,104,0.6875,3,1,12020000,,,6,11
60,104,0.5,4,0,12020000,,,6,8
60,104,0.1875,5,0,12020000,,,6,3
48,104,0.1875,6,1,12020000,,,6,3
62,104,0.625,7,1,12020000,,,6,10
60,104,0.25,8,0,12020000,,,6,4
65,104,0.625,9,0,12020000,,,6,10
36,104,0.1875,10,1,12020000,,,6,3
36,104,0.8125,0,1,12020001,,,6,13
36,104,0.5,1,1,12020001,,,6,8
36,104,0.25,2,0,12020001,,,6,4
55,104,0.5625,0,1,12030000,,,6,9
51,104,0.1875,1,0,12030000,,,6,3
51,104,0.1875,2,0,12030000,,,6,3
56,104,0.1875,3,0,12030000,,,6,3
56,104,0.25,4,0,12030000,,,6,4
44,104,0.25,5,1,12030000,,,6,4
46,104,0.3125,6,0,12030000,,,6,5
58,104,0.375,7,1,12030000,,,6,6
58,104,0.1875,8,0,12030000,,,6,3
58,104,0.3125,9,0,12030000,,,6,5
55,104,0.25,10,0,12030000,,,6,4
58,104,0.1875,11,0,12030000,,,6,3
63,104,0.375,12,0,12030000,,,6,6
63,104,0.4375,13,0,12030000,,,6,7
47,104,0.3125,0,1,12040000,,,6,5
54,104,0.9375,1,1,12040000,,,6,15
66,104,0.1875,2,1,12040000,,,6,3
54,104,0.375,3,1,12040000,,,6,6
49,104,0.75,4,0,12040000,,,6,12
49,104,0.375,5,1,12040000,,,6,6
54,104,0.3125,6,0,12040000,,,6,5
49,104,0.375,7,0,12040000,,,6,6
54,104,0.1875,8,0,12040000,,,6,3
30,104,0.25,9,1,12040000,,,6,4
49,104,0.5,0,1,12040001,,,6,8
54,104,0.625,1,0,12040001,,,6,10
57,104,0.25,2,0,12040001,,,6,4
57,104,0.375,3,0,12040001,,,6,6
57,104,0.3125,4,0,12040001,,,6,5
57,104,0.1875,5,0,12040001,,,6,3
52,104,0.25,6,0,12040001,,,6,4
50,104,0.1875,7,0,12040001,,,6,3
50,104,0.375,0,1,12050000,,,6,6
28,104,0.625,1,1,12050000,,,6,10
28,104,0.25,2,0,12050000,,,6,4
28,104,0.1875,3,0,12050000,,,6,3
45,104,0.8125,4,1,12050000,,,6,13
33,104,0.6875,5,1,12050000,,,6,11
45,104,0.25,6,1,12050000,,,6,4
33,104,0.625,7,1,12050000,,,6,10
47,104,0.9375,8,1,12050000,,,6,15
47,104,0.625,0,1,12050001,,,6,10
47,104,0.5625,1,0,12050001,,,6,9
38,104,0.25,2,1,12050001,,,6,4
50,104,0.9375,3,1,12050001,,,6,15
50,104,0.3125,4,1,12050001,,,6,5
38,104,0.25,5,1,12050001,,,6,4
47,104,0.0625,6,1,12050001,,,6,1
59,104,0.25,0,1,12060000,,,6,4
59,104,0.6875,1,0,12060000,,,6,11
59,104,0.1875,2,0,12060000,,,6,3
59,104,0.25,3,0,12060000,,,6,4
64,104,0.1875,4,0,12060000,,,6,3
59,104,0.9375,5,0,12060000,,,6,15
52,104,0.375,6,1,12060000,,,6,6
59,104,0.25,7,1,12060000,,,6,4
59,104,0.9375,8,0,12060000,,,6,15
59,104,0.4375,0,1,12060001,,,6,7
47,104,0.1875,1,1,12060001,,,6,3
59,104,0.25,2,1,12060001,,,6,4
47,104,0.4375,3,1,12060001,,,6,7
59,104,0.25,4,1,12060001,,,6,4
62,104,0.375,5,0,12060001,,,6,6
59,104,0.75,6,0,12060001,,,6,12
62,104,0.375,7,1,12060001,,,6,6
59,104,0.25,8,0,12060001,,,6,4
47,104,0.1875,9,1,12060001,,,6,3
35,104,0.1875,10,1,12060001,,,6,3
60,104,0.3125,11,1,12060001,,,6,5
48,104,0.25,0,1,12060002,,,6,4
60,104,0.5625,1,1,12060002,,,6,9
55,104,0.0625,2,0,12060002,,,6,1
33,104,0.1875,0,1,12070000,,,6,3
50,104,0.1875,1,1,12070000,,,6,3
57,104,0.375,2,1,12070000,,,6,6
57,104,0.6875,3,0,12070000,,,6,11
50,104,0.25,4,1,12070000,,,6,4
57,104,0.3125,5,1,12070000,,,6,5
57,104,0.625,6,0,12070000,,,6,10
50,104,0.1875,7,1,12070000,,,6,3
57,104,0.6875,8,1,12070000,,,6,11
57,104,0.375,9,0,12070000,,,6,6
69,104,0.1875,10,1,12070000,,,6,3
50,104,0.25,0,1,12070001,,,6,4
61,104,0.75,1,1,12070001,,,6,12
59,104,0.875,2,1,12070001,,,6,14
59,104,0.25,3,1,12070001,,,6,4
59,104,0.125,4,0,12070001,,,6,2
52,104,0.625,5,1,12070001,,,6,10
52,104,0.1875,6,0,12070001,,,6,3
40,104,0.3125,7,1,12070001,,,6,5
61,104,0.1875,8,1,12070001,,,6,3
51,104,0.4375,0,1,12080000,,,6,7
63,104,0.3125,1,1,12080000,,,6,5
51,104,0.25,2,1,12080000,,,6,4
51,104,0.3125,3,0,12080000,,,6,5
60,104,0.375,4,1,12080000,,,6,6
60,104,0.4375,5,0,12080000,,,6,7
63,104,0.75,6,0,12080000,,,6,12
63,104,0.25,7,1,12080000,,,6,4
48,104,0.5625,8,1,12080000,,,6,9
48,104,0.3125,9,0,12080000,,,6,5
63,104,0.4375,0,1,12080001,,,6,7
63,104,0.25,1,0,12080001,,,6,4
49,104,0.6875,2,1,12080001,,,6,11
49,104,0.4375,3,0,12080001,,,6,7
49,104,0.5625,4,0,12080001,,,6,9
63,104,0.25,5,1,12080001,,,6,4
51,104,0.9375,6,1,12080001,,,6,15
51,104,0.875,0,1,12090000,,,6,14
46,104,0.875,1,1,12090000,,,6,14
62,104,0.25,2,1,12090000,,,6,4
46,104,0.5625,3,1,12090000,,,6,9
43,104,0.6875,4,0,12090000,,,6,11
43,104,0.3125,5,0,12090000,,,6,5
43,104,0.1875,6,0,12090000,,,6,3
43,104,0.1875,7,0,12090000,,,6,3
48,104,0.75,8,0,12090000,,,6,12
63,104,0.1875,0,1,12090001,,,6,3
63,104,0.125,1,0,12090001,,,6,2
63,104,0.3125,2,0,12090001,,,6,5
51,104,0.3125,3,1,12090001,,,6,5
51,104,0.9375,4,0,12090001,,,6,15
47,104,0.375,0,1,12100000,,,6,6
56,104,0.5625,1,1,12100000,,,6,9
33,104,0.3125,2,1,12100000,,,6,5
45,104,0.375,3,1,12100000,,,6,6
33,104,0.75,4,1,12100000,,,6,12
33,104,0.6875,5,1,12100000,,,6,11
45,104,0.75,6,1,12100000,,,6,12
47,104,0.375,7,1,12100000,,,6,6
47,104,0.8125,0,1,12100001,,,6,13
47,104,0.6875,1,1,12100001,,,6,11
47,104,0.5,2,0,12100001,,,6,8
38,104,0.4375,3,1,12100001,,,6,7
50,104,0.75,4,1,12100001,,,6,12
38,104,0.6875,5,1,12100001,,,6,11
38,104,0.3125,0,1,12100002,,,6,5
28,104,0.5,1,1,12100002,,,6,8
28,104,0.5,2,0,12100002,,,6,8
38,104,0.8125,0,1,12110000,,,6,13
35,104,0.1875,1,1,12110000,,,6,3
28,104,0.4375,2,1,12110000,,,6,7
47,104,0.6875,3,1,12110000,,,6,11
28,104,0.1875,4,1,12110000,,,6,3
33,104,0.3125,5,0,12110000,,,6,5
45,104,0.4375,6,1,12110000,,,6,7
33,104,0.6875,7,1,12110000,,,6,11
33,104,0.8125,8,0,12110000,,,6,13
33,104,0.3125,0,1,12110001,,,6,5
35,104,0.3125,1,0,12110001,,,6,5
47,104,0.9375,2,1,12110001,,,6,15
35,104,0.25,3,1,12110001,,,6,4
47,104,0.625,4,1,12110001,,,6,10
47,104,0.3125,5,0,12110001,,,6,5
38,104,0.4375,6,1,12110001,,,6,7
38,104,0.25,7,0,12110001,,,6,4
26,104,0.1875,0,1,12110002,,,6,3
53,104,0.4375,0,1,12120000,,,6,7
53,104,0.5625,1,0,12120000,,,6,9
53,104,0.3125,2,0,12120000,,,6,5
60,104,0.3125,3,1,12120000,,,6,5
53,104,0.375,4,1,12120000,,,6,6
65,104,0.1875,5,1,12120000,,,6,3
53,104,0.25,6,1,12120000,,,6,4
53,104,0.25,7,0,12120000,,,6,4
41,104,0.25,8,1,12120000,,,6,4
60,104,0.1875,9,1,12120000,,,6,3
53,104,0.5625,10,1,12120000,,,6,9
53,104,0.25,11,0,12120000,,,6,4
41,104,0.25,12,1,12120000,,,6,4
53,104,0.4375,0,1,12120001,,,6,7
53,104,0.4375,1,0,12120001,,,6,7
53,104,0.3125,2,0,12120001,,,6,5
53,104,0.4375,3,0,12120001,,,6,7
65,104,0.375,4,1,12120001,,,6,6
53,104,0.5,5,1,12120001,,,6,8
53,104,0.375,6,0,12120001,,,6,6
53,104,0.1875,7,0,12120001,,,6,3
53,104,0.25,8,0,12120001,,,6,4
53,104,0.3125,9,0,12120001,,,6,5
62,104,0.9375,10,1,12120001,,,6,15
65,104,0.3125,0,1,12120002,,,6,5
65,104,0.1875,1,0,12120002,,,6,3
62,104,0.1875,2,0,12120002,,,6,3
48,104,0.25,0,1,12130000,,,6,4
60,104,0.4375,1,1,12130000,,,6,7
48,104,0.25,2,1,12130000,,,6,4
53,104,0.125,3,0,12130000,,,6,2
46,104,0.1875,4,1,12130000,,,6,3
46,104,0.75,5,0,12130000,,,6,12
58,104,0.3125,6,1,12130000,,,6,5
50,104,0.25,7,1,12130000,,,6,4
43,104,0.1875,8,1,12130000,,,6,3
50,104,0.25,9,1,12130000,,,6,4
50,104,0.1875,10,0,12130000,,,6,3
50,104,0.1875,11,0,12130000,,,6,3
55,104,0.125,12,0,12130000,,,6,2
50,104,0.3125,13,0,12130000,,,6,5
48,104,0.25,14,0,12130000,,,6,4
60,104,0.25,0,1,12130001,,,6,4
58,104,0.125,1,0,12130001,,,6,2
46,104,0.5,2,1,12130001,,,6,8
46,104,0.1875,3,0,12130001,,,6,3
50,104,0.9375,0,1,12140000,,,6,15
50,104,0.9375,1,1,12140000,,,6,15
45,104,0.3125,2,1,12140000,,,6,5
50,104,0.1875,3,0,12140000,,,6,3
50,104,0.9375,4,0,12140000,,,6,15
50,104,0.9375,5,1,12140000,,,6,15
56,104,0.375,0,1,12150000,,,6,6
63,104,0.9375,1,1,12150000,,,6,15
51,104,0.375,2,1,12150000,,,6,6
39,104,0.1875,3,1,12150000,,,6,3
55,104,0.1875,4,1,12150000,,,6,3
39,104,0.3125,5,1,12150000,,,6,5
63,104,0.125,6,1,12150000,,,6,2
56,104,0.5,7,1,12150000,,,6,8
56,104,0.9375,8,0,12150000,,,6,15
56,104,0.1875,9,1,12150000,,,6,3
56,104,0.9375,0,1,12150001,,,6,15
56,104,0.9375,1,1,12150001,,,6,15
56,104,0.1875,2,1,12150001,,,6,3
56,104,0.375,3,0,12150001,,,6,6
56,104,0.5625,4,0,12150001,,,6,9
52,104,0.6875,0,1,12160000,,,6,11
33,104,0.1875,1,1,12160000,,,6,3
52,104,0.1875,2,1,12160000,,,6,3
43,104,0.125,3,1,12160000,,,6,2
50,104,0.375,4,1,12160000,,,6,6
66,104,0.25,5,1,12160000,,,6,4
52,104,0.125,6,1,12160000,,,6,2
40,104,0.5,7,1,12160000,,,6,8
68,104,0.375,8,1,12160000,,,6,6
54,104,0.375,9,1,12160000,,,6,6
40,104,0.3125,0,1,12170000,,,6,5
52,104,0.3125,1,1,12170000,,,6,5
40,104,0.1875,2,1,12170000,,,6,3
40,104,0.3125,3,0,12170000,,,6,5
40,104,0.3125,4,0,12170000,,,6,5
52,104,0.1875,5,1,12170000,,,6,3
40,104,0.3125,6,1,12170000,,,6,5
40,104,0.4375,7,0,12170000,,,6,7
40,104,0.3125,8,0,12170000,,,6,5
52,104,0.1875,9,1,12170000,,,6,3
40,104,0.25,10,1,12170000,,,6,4
40,104,0.375,11,0,12170000,,,6,6
35,104,0.25,12,0,12170000,,,6,4
47,104,0.5625,13,1,12170000,,,6,9
47,104,0.25,0,1,12170001,,,6,4
35,104,0.1875,1,1,12170001,,,6,3
35,104,0.1875,2,0,12170001,,,6,3
47,104,0.5625,3,1,12170001,,,6,9
35,104,0.3125,4,1,12170001,,,6,5
47,104,0.9375,5,1,12170001,,,6,15
35,104,0.375,6,1,12170001,,,6,6
47,104,0.5,7,1,12170001,,,6,8
47,104,0.5625,8,0,12170001,,,6,9
35,104,0.1875,0,1,12170002,,,6,3
47,104,0.5,1,1,12170002,,,6,8
35,104,0.25,2,1,12170002,,,6,4
47,104,0.5625,3,1,12170002,,,6,9
59,104,0.25,4,1,12170002,,,6,4
47,104,0.25,5,1,12170002,,,6,4
57,104,0.25,0,1,12180000,,,6,4
45,104,0.5,1,1,12180000,,,6,8
57,104,0.25,2,1,12180000,,,6,4
50,104,0.75,3,1,12180000,,,6,12
66,104,0.5625,4,1,12180000,,,6,9
66,104,0.3125,5,0,12180000,,,6,5
57,104,0.875,6,1,12180000,,,6,14
45,104,0.6875,7,1,12180000,,,6,11
57,104,0.6875,0,1,12180001,,,6,11
45,104,0.9375,1,1,12180001,,,6,15
52,104,0.9375,2,1,12180001,,,6,15
68,104,0.4375,3,1,12180001,,,6,7
58,104,0.3125,0,1,12190000,,,6,5
39,104,0.9375,1,1,12190000,,,6,15
58,104,0.4375,2,1,12190000,,,6,7
51,104,0.4375,3,1,12190000,,,6,7
58,104,0.125,4,1,12190000,,,6,2
39,104,0.25,5,1,12190000,,,6,4
39,104,0.6875,6,0,12190000,,,6,11
58,104,0.3125,7,1,12190000,,,6,5
58,104,0.9375,8,0,12190000,,,6,15
39,104,0.3125,0,1,12190001,,,6,5
58,104,0.5625,1,1,12190001,,,6,9
39,104,0.1875,2,1,12190001,,,6,3
58,104,0.9375,3,1,12190001,,,6,15
34,104,0.1875,4,1,12190001,,,6,3
62,104,0.1875,5,1,12190001,,,6,3
58,104,0.4375,6,0,12190001,,,6,7
62,104,0.1875,7,0,12190001,,,6,3
58,104,0.9375,8,0,12190001,,,6,15
58,104,0.3125,0,1,12190002,,,6,5
58,104,0.5,1,0,12190002,,,6,8
58,104,0.5625,2,0,12190002,,,6,9
64,104,0.375,0,1,12200000,,,6,6
61,104,0.1875,1,0,12200000,,,6,3
64,104,0.3125,2,0,12200000,,,6,5
57,104,0.4375,3,1,12200000,,,6,7
57,104,0.375,4,0,12200000,,,6,6
64,104,0.1875,5,1,12200000,,,6,3
57,104,0.5625,6,1,12200000,,,6,9
52,104,0.375,7,0,12200000,,,6,6
64,104,0.9375,8,1,12200000,,,6,15
52,104,0.125,9,1,12200000,,,6,2
64,104,0.6875,10,1,12200000,,,6,11
47,104,0.1875,0,1,12200001,,,6,3
47,104,0.1875,1,0,12200001,,,6,3
64,104,0.375,2,1,12200001,,,6,6
76,104,0.25,3,1,12200001,,,6,4
64,104,0.25,4,1,12200001,,,6,4
49,104,0.3125,5,1,12200001,,,6,5
64,104,0.3125,6,1,12200001,,,6,5
61,104,0.4375,7,0,12200001,,,6,7
49,104,0.5625,8,1,12200001,,,6,9
56,104,0.4375,0,1,12210000,,,6,7
44,104,0.8125,1,1,12210000,,,6,13
46,104,0.9375,2,1,12210000,,,6,15
53,104,0.9375,3,1,12210000,,,6,15
34,104,0.25,4,1,12210000,,,6,4
54,104,0.25,5,1,12210000,,,6,4
42,104,0.1875,6,1,12210000,,,6,3
54,104,0.1875,7,1,12210000,,,6,3
54,104,0.4375,0,1,12210001,,,6,7
42,104,0.1875,1,1,12210001,,,6,3
54,104,0.375,2,1,12210001,,,6,6
54,104,0.1875,3,0,12210001,,,6,3
49,104,0.75,4,0,12210001,,,6,12
37,104,0.5625,5,1,12210001,,,6,9
56,104,0.25,6,1,12210001,,,6,4
49,104,0.8125,7,1,12210001,,,6,13
44,104,0.4375,8,1,12210001,,,6,7
56,104,0.9375,0,1,12210002,,,6,15
44,104,0.25,1,1,12210002,,,6,4
63,104,0.375,2,1,12210002,,,6,6
44,104,0.3125,3,1,12210002,,,6,5
56,104,0.0625,4,1,12210002,,,6,1
62,104,0.5625,0,1,12220000,,,6,9
43,104,0.375,1,1,12220000,,,6,6
38,104,0.5,2,0,12220000,,,6,8
50,104,0.5,3,1,12220000,,,6,8
50,104,0.3125,4,0,12220000,,,6,5
62,104,0.3125,5,1,12220000,,,6,5
62,104,0.3125,6,0,12220000,,,6,5
57,104,0.5,7,0,12220000,,,6,8
31,104,0.1875,8,1,12220000,,,6,3
55,104,0.1875,9,1,12220000,,,6,3
62,104,0.1875,10,1,12220000,,,6,3
50,104,0.3125,11,1,12220000,,,6,5
43,104,0.625,0,1,12220001,,,6,10
50,104,0.75,1,1,12220001,,,6,12
50,104,0.125,2,1,12220001,,,6,2
31,104,0.3125,3,1,12220001,,,6,5
50,104,0.625,4,1,12220001,,,6,10
50,104,0.25,5,0,12220001,,,6,4
62,104,0.9375,0,1,12230000,,,6,15
62,104,0.5,1,1,12230000,,,6,8
64,104,0.375,2,0,12230000,,,6,6
62,104,0.9375,3,0,12230000,,,6,15
62,104,0.25,4,1,12230000,,,6,4
62,104,0.9375,5,0,12230000,,,6,15
66,104,0.3125,6,1,12230000,,,6,5
66,104,0.625,0,1,12230001,,,6,10
47,104,0.9375,1,1,12230001,,,6,15
47,104,0.5625,2,1,12230001,,,6,9
66,104,0.3125,3,1,12230001,,,6,5
43,104,0.9375,4,1,12230001,,,6,15
43,104,0.4375,5,1,12230001,,,6,7
62,104,0.3125,0,1,12230002,,,6,5
62,104,0.1875,1,0,12230002,,,6,3
43,104,0.8125,2,1,12230002,,,6,13
53,104,0.9375,0,1,12240000,,,6,15
53,104,0.6875,1,1,12240000,,,6,11
50,104,0.6875,2,0,12240000,,,6,11
62,104,0.4375,3,1,12240000,,,6,7
62,104,0.25,4,0,12240000,,,6,4
50,104,0.9375,5,1,12240000,,,6,15
50,104,0.8125,6,1,12240000,,,6,13
50,104,0.3125,0,1,12240001,,,6,5
50,104,0.3125,1,0,12240001,,,6,5
62,104,0.625,2,1,12240001,,,6,10
50,104,0.3125,3,1,12240001,,,6,5
62,104,0.375,4,1,12240001,,,6,6
65,104,0.375,5,0,12240001,,,6,6
62,104,0.625,6,0,12240001,,,6,10
50,104,0.1875,7,1,12240001,,,6,3
62,104,0.25,8,1,12240001,,,6,4
62,104,0.25,0,1,12240002,,,6,4
50,104,0.9375,1,1,12240002,,,6,15
50,104,0.5,2,1,12240002,,,6,8
51,104,0.25,0,1,12250000,,,6,4
63,104,0.1875,1,1,12250000,,,6,3
46,104,0.25,2,1,12250000,,,6,4
65,104,0.25,3,1,12250000,,,6,4
65,104,0.3125,4,0,12250000,,,6,5
46,104,0.25,5,1,12250000,,,6,4
65,104,0.1875,6,1,12250000,,,6,3
48,104,0.4375,7,1,12250000,,,6,7
48,104,0.1875,8,0,12250000,,,6,3
60,104,0.625,9,1,12250000,,,6,10
60,104,0.125,10,0,12250000,,,6,2
24,104,0.1875,11,1,12250000,,,6,3
63,104,0.1875,12,1,12250000,,,6,3
43,104,0.5,13,1,12250000,,,6,8
56,104,0.25,0,1,12260000,,,6,4
51,104,0.1875,1,0,12260000,,,6,3
63,104,0.1875,2,1,12260000,,,6,3
51,104,0.1875,3,1,12260000,,,6,3
46,104,0.25,4,0,12260000,,,6,4
34,104,0.1875,5,1,12260000,,,6,3
34,104,0.1875,6,0,12260000,,,6,3
39,104,0.1875,7,0,12260000,,,6,3
51,104,0.125,8,1,12260000,,,6,2
63,104,0.4375,9,1,12260000,,,6,7
51,104,0.75,10,1,12260000,,,6,12
39,104,0.1875,11,1,12260000,,,6,3
39,104,0.25,12,0,12260000,,,6,4
39,104,0.1875,13,0,12260000,,,6,3
51,104,0.25,14,1,12260000,,,6,4
50,104,0.9375,0,1,12270000,,,6,15
38,104,0.1875,1,1,12270000,,,6,3
38,104,0.5,2,0,12270000,,,6,8
38,104,0.25,3,0,12270000,,,6,4
38,104,0.1875,4,0,12270000,,,6,3
38,104,0.375,5,0,12270000,,,6,6
38,104,0.625,6,0,12270000,,,6,10
57,104,0.1875,7,1,12270000,,,6,3
57,104,0.3125,8,0,12270000,,,6,5
57,104,0.125,9,0,12270000,,,6,2
64,104,0.9375,10,1,12270000,,,6,15
57,104,0.5,0,1,12270001,,,6,8
64,104,0.875,1,1,12270001,,,6,14
57,104,0.5,2,1,12270001,,,6,8
54,104,0.125,3,0,12270001,,,6,2
47,104,0.125,4,1,12270001,,,6,2
62,104,0.25,5,1,12270001,,,6,4
55,104,0.375,0,1,12280000,,,6,6
53,104,0.125,1,0,12280000,,,6,2
55,104,0.25,2,0,12280000,,,6,4
55,104,0.25,3,0,12280000,,,6,4
55,104,0.3125,4,0,12280000,,,6,5
62,104,0.125,5,1,12280000,,,6,2
62,104,0.625,6,0,12280000,,,6,10
55,104,0.9375,7,1,12280000,,,6,15
52,104,0.75,8,1,12280000,,,6,12
52,104,0.1875,9,1,12280000,,,6,3
40,104,0.25,10,1,12280000,,,6,4
53,104,0.1875,0,1,12280001,,,6,3
60,104,0.25,1,1,12280001,,,6,4
29,104,0.3125,2,1,12280001,,,6,5
67,104,0.875,3,1,12280001,,,6,14
53,104,0.3125,4,1,12280001,,,6,5
40,104,0.375,0,1,12290000,,,6,6
52,104,0.8125,1,1,12290000,,,6,13
52,104,0.375,2,1,12290000,,,6,6
45,104,0.75,3,1,12290000,,,6,12
61,104,0.5625,4,1,12290000,,,6,9
57,104,0.5625,5,0,12290000,,,6,9
61,104,0.5,6,0,12290000,,,6,8
45,104,0.5,7,1,12290000,,,6,8
61,104,0.375,0,1,12290001,,,6,6
45,104,0.4375,1,1,12290001,,,6,7
45,104,0.6875,2,0,12290001,,,6,11
45,104,0.4375,3,0,12290001,,,6,7
52,104,0.4375,4,1,12290001,,,6,7
52,104,0.1875,5,0,12290001,,,6,3
52,104,0.25,6,0,12290001,,,6,4
52,104,0.9375,7,0,12290001,,,6,15
52,104,0.4375,0,1,12290002,,,6,7
40,104,0.625,1,1,12290002,,,6,10
52,104,0.375,2,1,12290002,,,6,6
40,104,0.1875,3,1,12290002,,,6,3
52,104,0.25,4,1,12290002,,,6,4
40,104,0.75,5,1,12290002,,,6,12
40,104,0.5,6,1,12290002,,,6,8
40,104,0.1875,7,0,12290002,,,6,3
54,104,0.25,0,1,12300000,,,6,4
54,104,0.375,1,0,12300000,,,6,6
59,104,0.125,2,0,12300000,,,6,2
54,104,0.5,3,0,12300000,,,6,8
59,104,0.6875,4,0,12300000,,,6,11
57,104,0.375,5,0,12300000,,,6,6
52,104,0.75,6,0,12300000,,,6,12
52,104,0.25,7,1,12300000,,,6,4
52,104,0.3125,8,0,12300000,,,6,5
33,104,0.1875,9,1,12300000,,,6,3
69,104,0.1875,10,1,12300000,,,6,3
45,104,0.3125,0,1,12300001,,,6,5
69,104,0.3125,1,1,12300001,,,6,5
57,104,0.3125,2,1,12300001,,,6,5
57,104,0.3125,3,0,12300001,,,6,5
45,104,0.625,4,1,12300001,,,6,10
52,104,0.3125,5,1,12300001,,,6,5
69,104,0.4375,6,1,12300001,,,6,7
57,104,0.0625,7,1,12300001,,,6,1
51,104,0.3125,0,1,12310000,,,6,5
51,104,0.1875,1,0,12310000,,,6,3
63,104,0.3125,2,1,12310000,,,6,5
63,104,0.125,3,0,12310000,,,6,2
75,104,0.125,4,1,12310000,,,6,2
63,104,0.4375,5,1,12310000,,,6,7
75,104,0.125,6,1,12310000,,,6,2
75,104,0.3125,7,0,12310000,,,6,5
63,104,0.5625,8,1,12310000,,,6,9
63,104,0.9375,9,0,12310000,,,6,15
62,104,0.9375,10,1,12310000,,,6,15
62,104,0.3125,0,1,12310001,,,6,5
38,104,0.4375,1,1,12310001,,,6,7
55,104,0.9375,0,1,12320000,,,6,15
55,104,0.4375,1,1,12320000,,,6,7
55,104,0.3125,2,0,12320000,,,6,5
55,104,0.1875,3,0,12320000,,,6,3
55,104,0.1875,4,0,12320000,,,6,3
55,104,0.9375,5,0,12320000,,,6,15
55,104,0.9375,6,1,12320000,,,6,15
55,104,0.1875,7,1,12320000,,,6,3
55,104,0.75,0,1,12320001,,,6,12
43,104,0.5625,1,1,12320001,,,6,9
55,104,0.9375,2,1,12320001,,,6,15
62,104,0.3125,3,1,12320001,,,6,5
55,104,0.3125,4,1,12320001,,,6,5
62,104,0.1875,5,1,12320001,,,6,3
53,104,0.375,0,1,12330000,,,6,6
53,104,0.25,1,0,12330000,,,6,4
53,104,0.25,2,0,12330000,,,6,4
58,104,0.9375,3,0,12330000,,,6,15
53,104,0.625,4,1,12330000,,,6,10
46,104,0.25,5,1,12330000,,,6,4
58,104,0.5,6,1,12330000,,,6,8
58,104,0.1875,7,0,12330000,,,6,3
53,104,0.4375,8,0,12330000,,,6,7
46,104,0.25,9,1,12330000,,,6,4
46,104,0.25,0,1,12330001,,,6,4
39,104,0.1875,1,1,12330001,,,6,3
46,104,0.25,2,1,12330001,,,6,4
46,104,0.3125,3,0,12330001,,,6,5
46,104,0.1875,4,0,12330001,,,6,3
58,104,0.1875,5,1,12330001,,,6,3
67,104,0.4375,6,1,12330001,,,6,7
58,104,0.25,7,1,12330001,,,6,4
53,104,0.1875,0,1,12340000,,,6,3
29,104,0.25,1,1,12340000,,,6,4
29,104,0.3125,2,0,12340000,,,6,5
29,104,0.125,3,0,12340000,,,6,2
36,104,0.3125,4,1,12340000,,,6,5
32,104,0.25,5,0,12340000,,,6,4
34,104,0.3125,6,0,12340000,,,6,5
46,104,0.375,7,1,12340000,,,6,6
53,104,0.25,8,1,12340000,,,6,4
34,104,0.25,9,1,12340000,,,6,4
46,104,0.25,10,1,12340000,,,6,4
53,104,0.3125,11,1,12340000,,,6,5
47,104,0.25,12,0,12340000,,,6,4
53,104,0.4375,13,0,12340000,,,6,7
47,104,0.125,14,0,12340000,,,6,2
47,104,0.1875,0,1,12340001,,,6,3
53,104,0.4375,1,0,12340001,,,6,7
53,104,0.75,2,0,12340001,,,6,12
52,104,0.3125,0,1,12350000,,,6,5
36,104,0.25,1,1,12350000,,,6,4
36,104,0.3125,2,0,12350000,,,6,5
36,104,0.125,3,0,12350000,,,6,2
60,104,0.125,4,1,12350000,,,6,2
64,104,0.1875,5,0,12350000,,,6,3
64,104,0.4375,6,0,12350000,,,6,7
52,104,0.625,7,1,12350000,,,6,10
59,104,0.25,8,1,12350000,,,6,4
52,104,0.9375,9,1,12350000,,,6,15
53,104,0.125,10,1,12350000,,,6,2
60,104,0.6875,11,1,12350000,,,6,11
65,104,0.1875,0,1,12350001,,,6,3
57,104,0.25,1,1,12350001,,,6,4
57,104,0.4375,2,0,12350001,,,6,7
53,104,0.375,3,0,12350001,,,6,6
53,104,0.1875,4,0,12350001,,,6,3
53,104,0.25,5,0,12350001,,,6,4
60,104,0.6875,6,1,12350001,,,6,11
28,104,0.9375,0,1,12360000,,,6,15
28,104,0.9375,1,1,12360000,,,6,15
28,104,0.25,2,1,12360000,,,6,4
28,104,0.25,3,0,12360000,,,6,4
28,104,0.1875,4,0,12360000,,,6,3
28,104,0.5,5,0,12360000,,,6,8
40,104,0.9375,6,1,12360000,,,6,15
33,104,0.9375,0,1,12360001,,,6,15
33,104,0.8125,1,1,12360001,,,6,13
33,104,0.4375,2,1,12360001,,,6,7
35,104,0.4375,3,0,12360001,,,6,7
47,104,0.1875,4,1,12360001,,,6,3
35,104,0.5,5,1,12360001,,,6,8
47,104,0.25,6,1,12360001,,,6,4
35,104,0.375,7,1,12360001,,,6,6
47,104,0.375,8,1,12360001,,,6,6
47,104,0.1875,0,1,12360002,,,6,3
50,104,0.3125,1,0,12360002,,,6,5
48,104,0.4375,0,1,12370000,,,6,7
55,104,0.3125,1,1,12370000,,,6,5
51,104,0.3125,2,0,12370000,,,6,5
51,104,0.125,3,0,12370000,,,6,2
51,104,0.25,4,0,12370000,,,6,4
51,104,0.5,5,0,12370000,,,6,8
63,104,0.4375,6,1,12370000,,,6,7
55,104,0.1875,7,1,12370000,,,6,3
55,104,0.1875,8,0,12370000,,,6,3
55,104,0.5625,9,0,12370000,,,6,9
55,104,0.75,10,0,12370000,,,6,12
60,104,0.875,0,1,12380000,,,6,14
50,104,0.3125,1,1,12380000,,,6,5
54,104,0.125,2,0,12380000,,,6,2
53,104,0.1875,3,0,12380000,,,6,3
53,104,0.1875,4,0,12380000,,,6,3
53,104,0.25,5,0,12380000,,,6,4
65,104,0.25,6,1,12380000,,,6,4
53,104,0.3125,7,1,12380000,,,6,5
53,104,0.1875,8,0,12380000,,,6,3
46,104,0.25,9,1,12380000,,,6,4
53,104,0.125,10,1,12380000,,,6,2
48,104,0.625,11,0,12380000,,,6,10
48,104,0.375,12,0,12380000,,,6,6
53,104,0.6875,0,1,12380001,,,6,11
48,104,0.3125,1,0,12380001,,,6,5
53,104,0.875,2,0,12380001,,,6,14
60,104,0.25,3,1,12380001,,,6,4
53,104,0.1875,4,1,12380001,,,6,3
48,104,0.3125,5,0,12380001,,,6,5
48,104,0.125,6,0,12380001,,,6,2
53,104,0.3125,7,0,12380001,,,6,5
36,104,0.25,8,1,12380001,,,6,4
48,104,0.375,9,1,12380001,,,6,6
50,104,0.9375,0,1,12390000,,,6,15
58,104,0.9375,1,1,12390000,,,6,15
31,104,0.125,2,1,12390000,,,6,2
50,104,0.1875,3,1,12390000,,,6,3
50,104,0.375,4,0,12390000,,,6,6
38,104,0.375,5,1,12390000,,,6,6
50,104,0.9375,6,1,12390000,,,6,15
65,104,0.9375,7,1,12390000,,,6,15
50,104,0.75,0,1,12390001,,,6,12
50,104,0.375,1,1,12390001,,,6,6
31,104,0.125,2,1,12390001,,,6,2
50,104,0.5,3,1,12390001,,,6,8
51,104,0.9375,4,0,12390001,,,6,15
58,104,0.25,5,1,12390001,,,6,4
39,104,0.1875,6,1,12390001,,,6,3
39,104,0.1875,7,0,12390001,,,6,3
51,104,0.3125,0,1,12390002,,,6,5
54,104,0.125,0,1,12400000,,,6,2
54,104,0.5625,1,0,12400000,,,6,9
54,104,0.8125,2,0,12400000,,,6,13
30,104,0.25,3,1,12400000,,,6,4
56,104,0.3125,4,1,12400000,,,6,5
56,104,0.5,5,0,12400000,,,6,8
56,104,0.875,6,0,12400000,,,6,14
63,104,0.375,7,1,12400000,,,6,6
56,104,0.25,8,1,12400000,,,6,4
51,104,0.9375,0,1,12400001,,,6,15
59,104,0.625,1,1,12400001,,,6,10
47,104,0.4375,2,1,12400001,,,6,7
47,104,0.1875,3,0,12400001,,,6,3
54,104,0.1875,4,1,12400001,,,6,3
47,104,0.5,5,1,12400001,,,6,8
47,104,0.5,6,0,12400001,,,6,8
45,104,0.8125,0,1,12410000,,,6,13
59,104,0.9375,1,1,12410000,,,6,15
59,104,0.5,2,1,12410000,,,6,8
47,104,0.3125,3,1,12410000,,,6,5
47,104,0.4375,4,0,12410000,,,6,7
47,104,0.3125,5,0,12410000,,,6,5
47,104,0.6875,6,0,12410000,,,6,11
49,104,0.75,0,1,12410001,,,6,12
49,104,0.25,1,1,12410001,,,6,4
59,104,0.375,2,1,12410001,,,6,6
49,104,0.375,3,1,12410001,,,6,6
49,104,0.5,4,0,12410001,,,6,8
28,104,0.5625,0,1,12420000,,,6,9
28,104,0.25,1,0,12420000,,,6,4
33,104,0.25,2,0,12420000,,,6,4
45,104,0.375,3,1,12420000,,,6,6
33,104,0.75,4,1,12420000,,,6,12
33,104,0.75,5,1,12420000,,,6,12
45,104,0.5625,6,1,12420000,,,6,9
28,104,0.625,7,1,12420000,,,6,10
47,104,0.1875,0,1,12420001,,,6,3
50,104,0.75,1,0,12420001,,,6,12
50,104,0.8125,2,1,12420001,,,6,13
38,104,0.4375,3,1,12420001,,,6,7
50,104,0.625,4,1,12420001,,,6,10
28,104,0.6875,5,1,12420001,,,6,11
28,104,0.5625,6,0,12420001,,,6,9
52,104,0.375,0,1,12430000,,,6,6
52,104,0.125,1,0,12430000,,,6,2
59,104,0.125,2,1,12430000,,,6,2
52,104,0.5,3,1,12430000,,,6,8
52,104,0.375,4,0,12430000,,,6,6
50,104,0.1875,5,0,12430000,,,6,3
50,104,0.3125,6,0,12430000,,,6,5
55,104,0.125,7,0,12430000,,,6,2
55,104,0.25,8,0,12430000,,,6,4
56,104,0.25,9,0,12430000,,,6,4
62,104,0.1875,10,0,12430000,,,6,3
43,104,0.1875,11,1,12430000,,,6,3
41,104,0.3125,0,1,12440000,,,6,5
41,104,0.3125,1,0,12440000,,,6,5
65,104,0.9375,2,1,12440000,,,6,15
41,104,0.5625,3,1,12440000,,,6,9
46,104,0.9375,4,0,12440000,,,6,15
34,104,0.9375,5,1,12440000,,,6,15
34,104,0.9375,0,1,12440001,,,6,15
34,104,0.25,1,1,12440001,,,6,4
46,104,0.9375,2,1,12440001,,,6,15
46,104,0.5625,3,1,12440001,,,6,9
46,104,0.625,4,0,12440001,,,6,10
46,104,0.1875,5,0,12440001,,,6,3
46,104,0.875,6,0,12440001,,,6,14
34,104,0.9375,0,1,12440002,,,6,15
46,104,0.5,1,1,12440002,,,6,8
40,104,0.25,0,1,12450000,,,6,4
62,104,0.25,1,1,12450000,,,6,4
52,104,0.5625,2,1,12450000,,,6,9
52,104,0.125,3,0,12450000,,,6,2
62,104,0.75,4,1,12450000,,,6,12
62,104,0.1875,5,1,12450000,,,6,3
62,104,0.75,6,0,12450000,,,6,12
55,104,0.5,7,1,12450000,,,6,8
48,104,0.3125,8,1,12450000,,,6,5
60,104,0.1875,9,1,12450000,,,6,3
38,104,0.625,10,1,12450000,,,6,10
38,104,0.625,0,1,12450001,,,6,10
62,104,0.75,1,1,12450001,,,6,12
50,104,0.25,2,1,12450001,,,6,4
62,104,0.375,3,1,12450001,,,6,6
55,104,0.125,4,1,12450001,,,6,2
43,104,0.1875,5,1,12450001,,,6,3
62,104,0.1875,6,1,12450001,,,6,3
31,104,0.4375,7,1,12450001,,,6,7
62,104,0.1875,8,1,12450001,,,6,3
43,104,0.125,9,1,12450001,,,6,2
50,104,0.125,0,1,12460000,,,6,2
53,104,0.1875,1,0,12460000,,,6,3
53,104,0.3125,2,0,12460000,,,6,5
53,104,0.375,3,0,12460000,,,6,6
53,104,0.3125,4,0,12460000,,,6,5
53,104,0.25,5,0,12460000,,,6,4
60,104,0.1875,6,1,12460000,,,6,3
53,104,0.25,7,1,12460000,,,6,4
53,104,0.25,8,0,12460000,,,6,4
48,104,0.5625,9,0,12460000,,,6,9
53,104,0.25,10,0,12460000,,,6,4
48,104,0.9375,11,0,12460000,,,6,15
53,104,0.5,0,1,12460001,,,6,8
53,104,0.5,1,0,12460001,,,6,8
55,104,0.3125,2,0,12460001,,,6,5
55,104,0.25,3,0,12460001,,,6,4
53,104,0.3125,4,0,12460001,,,6,5
53,104,0.375,0,1,12470000,,,6,6
60,104,0.125,1,1,12470000,,,6,2
34,104,0.25,2,1,12470000,,,6,4
53,104,0.1875,3,1,12470000,,,6,3
53,104,0.1875,4,0,12470000,,,6,3
53,104,0.25,5,0,12470000,,,6,4
58,104,0.1875,6,0,12470000,,,6,3
60,104,0.125,7,0,12470000,,,6,2
60,104,0.4375,8,0,12470000,,,6,7
55,104,0.25,9,0,12470000,,,6,4
65,104,0.9375,10,1,12470000,,,6,15
36,104,0.375,11,1,12470000,,,6,6
48,104,0.125,12,1,12470000,,,6,2
48,104,0.25,13,0,12470000,,,6,4
46,104,0.6875,0,1,12470001,,,6,11
34,104,0.4375,1,1,12470001,,,6,7
46,104,0.25,2,1,12470001,,,6,4
46,104,0.1875,3,0,12470001,,,6,3
53,104,0.1875,0,1,12480000,,,6,3
58,104,0.875,1,0,12480000,,,6,14
70,104,0.125,2,1,12480000,,,6,2
58,104,0.3125,3,1,12480000,,,6,5
58,104,0.375,4,0,12480000,,,6,6
53,104,0.9375,5,0,12480000,,,6,15
58,104,0.3125,6,1,12480000,,,6,5
58,104,0.5625,7,0,12480000,,,6,9
51,104,0.3125,8,1,12480000,,,6,5
51,104,0.9375,0,1,12480001,,,6,15
51,104,0.25,1,1,12480001,,,6,4
53,104,0.125,2,0,12480001,,,6,2
41,104,0.125,3,1,12480001,,,6,2
41,104,0.125,4,0,12480001,,,6,2
60,104,0.125,5,1,12480001,,,6,2
55,104,0.4375,6,0,12480001,,,6,7
55,104,0.25,7,0,12480001,,,6,4
55,104,0.25,8,0,12480001,,,6,4
58,104,0.625,9,0,12480001,,,6,10
57,104,0.1875,0,1,12490000,,,6,3
50,104,0.5625,1,1,12490000,,,6,9
69,104,0.1875,2,1,12490000,,,6,3
50,104,0.1875,3,1,12490000,,,6,3
69,104,0.125,4,1,12490000,,,6,2
59,104,0.1875,5,1,12490000,,,6,3
55,104,0.8125,6,0,12490000,,,6,13
67,104,0.25,7,1,12490000,,,6,4
62,104,0.375,8,0,12490000,,,6,6
50,104,0.9375,9,1,12490000,,,6,15
52,104,0.9375,10,1,12490000,,,6,15
57,104,0.625,0,1,12500000,,,6,10
55,104,0.5625,1,0,12500000,,,6,9
55,104,0.75,2,0,12500000,,,6,12
53,104,0.9375,3,1,12500000,,,6,15
53,104,0.25,4,1,12500000,,,6,4
53,104,0.1875,5,0,12500000,,,6,3
53,104,0.25,6,0,12500000,,,6,4
53,104,0.625,7,0,12500000,,,6,10
53,104,0.4375,0,1,12500001,,,6,7
53,104,0.25,1,0,12500001,,,6,4
53,104,0.3125,2,0,12500001,,,6,5
53,104,0.4375,3,0,12500001,,,6,7
53,104,0.1875,4,0,12500001,,,6,3
34,104,0.3125,5,1,12500001,,,6,5
57,104,0.9375,6,1,12500001,,,6,15
34,104,0.1875,7,1,12500001,,,6,3
34,104,0.1875,8,0,12500001,,,6,3
53,104,0.6875,9,1,12500001,,,6,11
53,104,0.0625,0,1,12500002,,,6,1
61,104,0.4375,0,1,12510000,,,6,7
61,104,0.375,1,0,12510000,,,6,6
61,104,0.4375,2,0,12510000,,,6,7
61,104,0.5,3,0,12510000,,,6,8
45,104,0.1875,4,1,12510000,,,6,3
61,104,0.5625,5,1,12510000,,,6,9
61,104,0.75,6,0,12510000,,,6,12
50,104,0.125,7,1,12510000,,,6,2
61,104,0.25,8,1,12510000,,,6,4
61,104,0.6875,9,0,12510000,,,6,11
61,104,0.5625,0,1,12510001,,,6,9
40,104,0.125,1,1,12510001,,,6,2
40,104,0.3125,2,0,12510001,,,6,5
52,104,0.25,3,1,12510001,,,6,4
40,104,0.6875,4,1,12510001,,,6,11
45,104,0.25,5,0,12510001,,,6,4
57,104,0.1875,6,1,12510001,,,6,3
52,104,0.125,7,0,12510001,,,6,2
64,104,0.5625,0,1,12520000,,,6,9
66,104,0.4375,1,0,12520000,,,6,7
69,104,0.375,2,0,12520000,,,6,6
73,104,0.375,3,0,12520000,,,6,6
71,104,0.375,4,0,12520000,,,6,6
73,104,0.9375,5,0,12520000,,,6,15
71,104,0.9375,6,1,12520000,,,6,15
71,104,0.1875,0,1,12520001,,,6,3
73,104,0.9375,1,0,12520001,,,6,15
71,104,0.9375,2,1,12520001,,,6,15
69,104,0.4375,3,1,12520001,,,6,7
71,104,0.6875,4,0,12520001,,,6,11
72,104,0.1875,5,0,12520001,,,6,3
73,104,0.5625,6,0,12520001,,,6,9
71,104,0.3125,7,0,12520001,,,6,5
73,104,0.1875,0,1,12520002,,,6,3
71,104,0.4375,1,0,12520002,,,6,7
69,104,0.875,2,0,12520002,,,6,14
66,104,0.9375,3,1,12520002,,,6,15
52,104,0.5,0,1,12530000,,,6,8
64,104,0.9375,1,1,12530000,,,6,15
59,104,0.3125,2,1,12530000,,,6,5
59,104,0.1875,3,0,12530000,,,6,3
64,104,0.3125,4,0,12530000,,,6,5
47,104,0.1875,5,1,12530000,,,6,3
47,104,0.6875,6,0,12530000,,,6,11
47,104,0.25,7,0,12530000,,,6,4
59,104,0.3125,8,1,12530000,,,6,5
59,104,0.375,9,0,12530000,,,6,6
52,104,0.3125,0,1,12530001,,,6,5
64,104,0.1875,1,1,12530001,,,6,3
45,104,0.375,2,1,12530001,,,6,6
45,104,0.375,3,0,12530001,,,6,6
64,104,0.1875,4,1,12530001,,,6,3
47,104,0.5625,5,1,12530001,,,6,9
47,104,0.5,6,0,12530001,,,6,8
59,104,0.1875,7,1,12530001,,,6,3
59,104,0.3125,8,0,12530001,,,6,5
47,104,0.1875,9,1,12530001,,,6,3
47,104,0.25,10,0,12530001,,,6,4
59,104,0.125,11,1,12530001,,,6,2
54,104,0.125,0,1,12540000,,,6,2
40,104,0.375,1,1,12540000,,,6,6
64,104,0.1875,2,1,12540000,,,6,3
71,104,0.25,3,1,12540000,,,6,4
72,104,0.25,4,0,12540000,,,6,4
68,104,0.1875,5,0,12540000,,,6,3
64,104,0.375,6,0,12540000,,,6,6
40,104,0.125,7,1,12540000,,,6,2
40,104,0.3125,8,0,12540000,,,6,5
54,104,0.125,9,1,12540000,,,6,2
55,104,0.125,10,0,12540000,,,6,2
52,104,0.3125,11,0,12540000,,,6,5
52,104,0.0625,12,0,12540000,,,6,1
55,104,0.4375,0,1,12550000,,,6,7
67,104,0.25,1,1,12550000,,,6,4
57,104,0.25,2,1,12550000,,,6,4
62,104,0.1875,3,0,12550000,,,6,3
62,104,0.375,4,0,12550000,,,6,6
38,104,0.3125,5,1,12550000,,,6,5
62,104,0.9375,6,1,12550000,,,6,15
62,104,0.1875,7,1,12550000,,,6,3
57,104,0.9375,8,0,12550000,,,6,15
41,104,0.1875,9,1,12550000,,,6,3
51,104,0.1875,0,1,12550001,,,6,3
62,104,0.5625,1,1,12550001,,,6,9
52,104,0.375,2,1,12550001,,,6,6
62,104,0.1875,0,1,12560000,,,6,3
57,104,0.6875,1,0,12560000,,,6,11
62,104,0.125,2,0,12560000,,,6,2
57,104,0.25,3,0,12560000,,,6,4
62,104,0.875,4,0,12560000,,,6,14
57,104,0.5625,5,1,12560000,,,6,9
54,104,0.1875,6,0,12560000,,,6,3
62,104,0.875,7,1,12560000,,,6,14
47,104,0.5,8,1,12560000,,,6,8
62,104,0.9375,0,1,12560001,,,6,15
57,104,0.4375,1,1,12560001,,,6,7
43,104,0.1875,2,1,12560001,,,6,3
62,104,0.9375,3,1,12560001,,,6,15
62,104,0.9375,4,1,12560001,,,6,15
59,104,0.1875,5,1,12560001,,,6,3
62,104,0.0625,6,0,12560001,,,6,1
53,104,0.1875,0,1,12570000,,,6,3
53,104,0.75,1,0,12570000,,,6,12
53,104,0.4375,2,1,12570000,,,6,7
41,104,0.125,3,1,12570000,,,6,2
53,104,0.4375,4,1,12570000,,,6,7
55,104,0.5,5,0,12570000,,,6,8
36,104,0.375,6,1,12570000,,,6,6
36,104,0.3125,7,0,12570000,,,6,5
55,104,0.375,8,1,12570000,,,6,6
46,104,0.1875,0,1,12580000,,,6,3
46,104,0.8125,1,0,12580000,,,6,13
46,104,0.5625,2,1,12580000,,,6,9
58,104,0.625,3,1,12580000,,,6,10
55,104,0.5,4,0,12580000,,,6,8
55,104,0.625,5,0,12580000,,,6,10
65,104,0.9375,6,1,12580000,,,6,15
53,104,0.625,0,1,12580001,,,6,10
58,104,0.25,1,0,12580001,,,6,4
48,104,0.3125,2,1,12580001,,,6,5
58,104,0.9375,3,1,12580001,,,6,15
46,104,0.75,4,1,12580001,,,6,12
53,104,0.25,5,1,12580001,,,6,4
53,104,0.8125,6,0,12580001,,,6,13
65,104,0.4375,0,1,12580002,,,6,7
53,104,0.125,1,1,12580002,,,6,2
34,104,0.1875,0,1,12590000,,,6,3
62,104,0.25,1,1,12590000,,,6,4
36,104,0.1875,2,1,12590000,,,6,3
63,104,0.1875,3,1,12590000,,,6,3
51,104,0.25,4,1,12590000,,,6,4
56,104,0.3125,5,0,12590000,,,6,5
32,104,0.125,6,1,12590000,,,6,2
32,104,0.5625,7,0,12590000,,,6,9
32,104,0.25,8,0,12590000,,,6,4
32,104,0.1875,9,0,12590000,,,6,3
34,104,0.5625,10,0,12590000,,,6,9
34,104,0.5,11,0,12590000,,,6,8
34,104,0.3125,12,0,12590000,,,6,5
62,104,0.1875,13,1,12590000,,,6,3
51,104,0.125,0,1,12590001,,,6,2
63,104,0.125,1,1,12590001,,,6,2
51,104,0.0,2,1,12590001,,,6,0
49,104,0.1875,0,1,12600000,,,6,3
63,104,0.9375,1,1,12600000,,,6,15
56,104,0.4375,2,1,12600000,,,6,7
56,104,0.1875,3,0,12600000,,,6,3
63,104,0.9375,4,1,12600000,,,6,15
56,104,0.1875,5,1,12600000,,,6,3
63,104,0.25,6,1,12600000,,,6,4
60,104,0.1875,7,0,12600000,,,6,3
48,104,0.25,8,1,12600000,,,6,4
63,104,0.5,9,1,12600000,,,6,8
63,104,0.5,0,1,12600001,,,6,8
63,104,0.4375,1,0,12600001,,,6,7
63,104,0.9375,2,0,12600001,,,6,15
63,104,0.9375,3,1,12600001,,,6,15
56,104,0.1875,4,1,12600001,,,6,3
63,104,0.5625,5,1,12600001,,,6,9
63,104,0.375,6,0,12600001,,,6,6
60,104,0.25,0,1,12610000,,,6,4
55,104,0.5,1,0,12610000,,,6,8
55,104,0.4375,2,0,12610000,,,6,7
52,104,0.125,3,0,12610000,,,6,2
53,104,0.25,4,0,12610000,,,6,4
60,104,0.125,5,1,12610000,,,6,2
60,104,0.125,6,0,12610000,,,6,2
60,104,0.3125,7,0,12610000,,,6,5
41,104,0.1875,8,1,12610000,,,6,3
60,104,0.1875,9,1,12610000,,,6,3
62,104,0.5625,10,0,12610000,,,6,9
55,104,0.375,11,1,12610000,,,6,6
62,104,0.25,12,1,12610000,,,6,4
62,104,0.375,13,0,12610000,,,6,6
62,104,0.125,0,1,12610001,,,6,2
62,104,0.625,1,0,12610001,,,6,10
33,104,0.125,2,1,12610001,,,6,2
61,104,0.1875,3,1,12610001,,,6,3
61,104,0.25,4,0,12610001,,,6,4
49,104,0.625,0,1,12620000,,,6,10
49,104,0.5625,1,0,12620000,,,6,9
37,104,0.4375,2,1,12620000,,,6,7
61,104,0.1875,3,1,12620000,,,6,3
49,104,0.9375,4,1,12620000,,,6,15
49,104,0.5,5,1,12620000,,,6,8
49,104,0.625,6,0,12620000,,,6,10
49,104,0.5625,7,0,12620000,,,6,9
37,104,0.5,0,1,12620001,,,6,8
49,104,0.5625,1,1,12620001,,,6,9
49,104,0.4375,2,0,12620001,,,6,7
61,104,0.3125,3,1,12620001,,,6,5
61,104,0.5625,4,0,12620001,,,6,9
57,104,0.375,5,0,12620001,,,6,6
45,104,0.5,6,1,12620001,,,6,8
45,104,0.4375,7,0,12620001,,,6,7
57,104,0.6875,0,1,12620002,,,6,11
57,104,0.1875,1,0,12620002,,,6,3
57,104,0.1875,2,0,12620002,,,6,3
45,104,0.5,3,1,12620002,,,6,8
45,104,0.3125,4,0,12620002,,,6,5
69,104,0.3125,0,1,12630000,,,6,5
62,104,0.875,1,1,12630000,,,6,14
40,104,0.9375,2,1,12630000,,,6,15
40,104,0.625,3,1,12630000,,,6,10
40,104,0.3125,4,0,12630000,,,6,5
40,104,0.5,5,0,12630000,,,6,8
59,104,0.125,6,1,12630000,,,6,2
33,104,0.1875,7,1,12630000,,,6,3
52,104,0.375,8,1,12630000,,,6,6
52,104,0.6875,0,1,12630001,,,6,11
52,104,0.3125,1,0,12630001,,,6,5
52,104,0.3125,2,0,12630001,,,6,5
57,104,0.5625,3,0,12630001,,,6,9
57,104,0.3125,4,0,12630001,,,6,5
56,104,0.5625,5,0,12630001,,,6,9
56,104,0.3125,6,0,12630001,,,6,5
57,104,0.625,7,0,12630001,,,6,10
57,104,0.875,8,0,12630001,,,6,14
69,104,0.5,0,1,12630002,,,6,8
57,104,0.1875,1,1,12630002,,,6,3
60,104,0.1875,0,1,12640000,,,6,3
41,104,0.375,1,1,12640000,,,6,6
60,104,0.375,2,1,12640000,,,6,6
55,104,0.9375,3,0,12640000,,,6,15
67,104,0.375,4,1,12640000,,,6,6
60,104,0.6875,5,1,12640000,,,6,11
53,104,0.6875,6,1,12640000,,,6,11
59,104,0.375,7,0,12640000,,,6,6
59,104,0.9375,0,1,12640001,,,6,15
45,104,0.9375,1,1,12640001,,,6,15
33,104,0.8125,2,1,12640001,,,6,13
33,104,0.6875,3,1,12640001,,,6,11
45,104,0.9375,4,1,12640001,,,6,15
38,104,0.25,0,1,12640002,,,6,4
26,104,0.9375,1,1,12640002,,,6,15
50,104,0.125,2,1,12640002,,,6,2
33,104,0.25,0,1,12650000,,,6,4
45,104,0.5,1,1,12650000,,,6,8
33,104,0.75,2,1,12650000,,,6,12
33,104,0.5625,3,1,12650000,,,6,9
33,104,0.4375,4,0,12650000,,,6,7
52,104,0.1875,5,1,12650000,,,6,3
52,104,0.25,6,0,12650000,,,6,4
40,104,0.1875,7,1,12650000,,,6,3
40,104,0.1875,8,0,12650000,,,6,3
52,104,0.6875,9,1,12650000,,,6,11
38,104,0.3125,0,1,12650001,,,6,5
38,104,0.3125,1,0,12650001,,,6,5
26,104,0.1875,2,1,12650001,,,6,3
38,104,0.1875,3,1,12650001,,,6,3
52,104,0.5625,4,1,12650001,,,6,9
52,104,0.5625,5,0,12650001,,,6,9
47,104,0.5625,0,1,12660000,,,6,9
47,104,0.1875,1,0,12660000,,,6,3
59,104,0.1875,2,1,12660000,,,6,3
47,104,0.9375,3,1,12660000,,,6,15
49,104,0.1875,4,1,12660000,,,6,3
49,104,0.3125,5,0,12660000,,,6,5
59,104,0.3125,6,1,12660000,,,6,5
49,104,0.25,7,1,12660000,,,6,4
64,104,0.9375,8,1,12660000,,,6,15
33,104,0.25,9,1,12660000,,,6,4
52,104,0.9375,0,1,12670000,,,6,15
59,104,0.25,1,1,12670000,,,6,4
59,104,0.125,2,0,12670000,,,6,2
49,104,0.5,3,1,12670000,,,6,8
59,104,0.3125,4,1,12670000,,,6,5
61,104,0.5625,5,0,12670000,,,6,9
64,104,0.875,6,0,12670000,,,6,14
61,104,0.25,7,1,12670000,,,6,4
66,104,0.3125,8,0,12670000,,,6,5
68,104,0.4375,0,1,12670001,,,6,7
66,104,0.6875,1,0,12670001,,,6,11
66,104,0.25,2,0,12670001,,,6,4
59,104,0.25,3,1,12670001,,,6,4
61,104,0.4375,4,0,12670001,,,6,7
59,104,0.9375,5,0,12670001,,,6,15
59,104,0.9375,6,1,12670001,,,6,15
64,104,0.3125,0,1,12670002,,,6,5
59,104,0.3125,1,0,12670002,,,6,5
64,104,0.3125,2,0,12670002,,,6,5
52,104,0.875,3,1,12670002,,,6,14
40,104,0.125,4,1,12670002,,,6,2
57,104,0.9375,0,1,12680000,,,6,15
57,104,0.3125,1,1,12680000,,,6,5
43,104,0.375,2,1,12680000,,,6,6
59,104,0.6875,3,1,12680000,,,6,11
40,104,0.625,4,1,12680000,,,6,10
64,104,0.1875,5,1,12680000,,,6,3
57,104,0.9375,6,1,12680000,,,6,15
57,104,0.1875,0,1,12680001,,,6,3
45,104,0.25,1,1,12680001,,,6,4
45,104,0.375,2,0,12680001,,,6,6
45,104,0.9375,3,0,12680001,,,6,15
45,104,0.9375,4,1,12680001,,,6,15
55,104,0.375,0,1,12690000,,,6,6
45,104,0.3125,1,1,12690000,,,6,5
57,104,0.9375,2,1,12690000,,,6,15
57,104,0.3125,3,1,12690000,,,6,5
36,104,0.25,4,1,12690000,,,6,4
55,104,0.4375,5,1,12690000,,,6,7
48,104,0.1875,6,1,12690000,,,6,3
48,104,0.375,7,0,12690000,,,6,6
53,104,0.4375,8,0,12690000,,,6,7
48,104,0.25,9,0,12690000,,,6,4
53,104,0.4375,10,0,12690000,,,6,7
53,104,0.1875,0,1,12690001,,,6,3
55,104,0.75,1,0,12690001,,,6,12
53,104,0.1875,0,1,12700000,,,6,3
29,104,0.1875,1,1,12700000,,,6,3
41,104,0.125,2,1,12700000,,,6,2
41,104,0.25,3,0,12700000,,,6,4
41,104,0.3125,4,0,12700000,,,6,5
41,104,0.25,5,0,12700000,,,6,4
29,104,0.25,6,1,12700000,,,6,4
53,104,0.1875,7,1,12700000,,,6,3
53,104,0.1875,8,0,12700000,,,6,3
46,104,0.375,9,1,12700000,,,6,6
53,104,0.5,10,1,12700000,,,6,8
53,104,0.25,11,0,12700000,,,6,4
53,104,0.1875,12,0,12700000,,,6,3
53,104,0.375,13,0,12700000,,,6,6
53,104,0.625,14,0,12700000,,,6,10
53,104,0.9375,0,1,12700001,,,6,15
53,104,0.25,1,1,12700001,,,6,4
53,104,0.4375,2,0,12700001,,,6,7
53,104,0.3125,3,0,12700001,,,6,5
51,104,0.875,4,0,12700001,,,6,14
63,104,0.1875,5,1,12700001,,,6,3
51,104,0.4375,6,1,12700001,,,6,7
47,104,0.6875,0,1,12710000,,,6,11
31,104,0.9375,1,1,12710000,,,6,15
43,104,0.1875,2,1,12710000,,,6,3
31,104,0.9375,3,1,12710000,,,6,15
31,104,0.375,4,1,12710000,,,6,6
62,104,0.6875,5,1,12710000,,,6,11
62,104,0.5625,6,0,12710000,,,6,9
38,104,0.9375,0,1,12710001,,,6,15
38,104,0.6875,1,1,12710001,,,6,11
50,104,0.3125,2,1,12710001,,,6,5
38,104,0.875,3,1,12710001,,,6,14
38,104,0.625,4,1,12710001,,,6,10
50,104,0.3125,5,1,12710001,,,6,5
38,104,0.9375,0,1,12710002,,,6,15
43,104,0.1875,0,1,12720000,,,6,3
31,104,0.9375,1,1,12720000,,,6,15
31,104,0.375,2,1,12720000,,,6,6
62,104,0.625,3,1,12720000,,,6,10
62,104,0.5625,4,0,12720000,,,6,9
38,104,0.9375,5,1,12720000,,,6,15
38,104,0.625,6,1,12720000,,,6,10
50,104,0.3125,0,1,12720001,,,6,5
38,104,0.875,1,1,12720001,,,6,14
38,104,0.625,2,1,12720001,,,6,10
50,104,0.3125,3,1,12720001,,,6,5
38,104,0.9375,4,1,12720001,,,6,15
57,104,0.9375,5,1,12720001,,,6,15
50,104,0.1875,0,1,12720002,,,6,3
38,104,0.1875,1,1,12720002,,,6,3
55,104,0.1875,0,1,12730000,,,6,3
48,104,0.1875,1,1,12730000,,,6,3
53,104,0.25,2,0,12730000,,,6,4
51,104,0.8125,3,0,12730000,,,6,13
51,104,0.75,4,1,12730000,,,6,12
56,104,0.3125,5,1,12730000,,,6,5
51,104,0.375,6,0,12730000,,,6,6
51,104,0.375,7,0,12730000,,,6,6
46,104,0.1875,8,0,12730000,,,6,3
51,104,0.9375,9,0,12730000,,,6,15
51,104,0.9375,0,1,12730001,,,6,15
51,104,0.375,1,1,12730001,,,6,6
53,104,0.25,0,1,12740000,,,6,4
53,104,0.25,1,0,12740000,,,6,4
62,104,0.1875,2,1,12740000,,,6,3
53,104,0.3125,3,1,12740000,,,6,5
53,104,0.125,4,0,12740000,,,6,2
55,104,0.25,5,0,12740000,,,6,4
53,104,0.9375,6,0,12740000,,,6,15
58,104,0.1875,7,1,12740000,,,6,3
58,104,0.1875,8,0,12740000,,,6,3
58,104,0.1875,9,0,12740000,,,6,3
58,104,0.5,10,0,12740000,,,6,8
51,104,0.3125,11,1,12740000,,,6,5
60,104,0.25,12,1,12740000,,,6,4
58,104,0.3125,13,0,12740000,,,6,5
53,104,0.375,0,1,12740001,,,6,6
58,104,0.1875,1,0,12740001,,,6,3
53,104,0.875,2,0,12740001,,,6,14
58,104,0.1875,3,1,12740001,,,6,3
53,104,0.125,4,0,12740001,,,6,2
55,104,0.75,5,0,12740001,,,6,12
34,104,0.9375,0,1,12750000,,,6,15
34,104,0.6875,1,1,12750000,,,6,11
34,104,0.4375,2,0,12750000,,,6,7
53,104,0.1875,3,1,12750000,,,6,3
53,104,0.1875,4,0,12750000,,,6,3
53,104,0.875,5,0,12750000,,,6,14
48,104,0.5,6,1,12750000,,,6,8
65,104,0.1875,7,1,12750000,,,6,3
48,104,0.5,0,1,12750001,,,6,8
60,104,0.9375,1,1,12750001,,,6,15
60,104,0.25,2,1,12750001,,,6,4
48,104,0.9375,3,1,12750001,,,6,15
48,104,0.875,4,1,12750001,,,6,14
60,104,0.9375,5,1,12750001,,,6,15
62,104,0.375,0,1,12750002,,,6,6
55,104,0.375,1,1,12750002,,,6,6
64,104,0.5,0,1,12760000,,,6,8
64,104,0.75,1,0,12760000,,,6,12
64,104,0.875,2,1,12760000,,,6,14
64,104,0.25,3,1,12760000,,,6,4
64,104,0.3125,4,0,12760000,,,6,5
64,104,0.1875,5,0,12760000,,,6,3
64,104,0.3125,6,0,12760000,,,6,5
64,104,0.1875,7,0,12760000,,,6,3
64,104,0.4375,8,0,12760000,,,6,7
64,104,0.375,9,0,12760000,,,6,6
64,104,0.5,0,1,12760001,,,6,8
59,104,0.125,1,0,12760001,,,6,2
52,104,0.4375,2,1,12760001,,,6,7
52,104,0.1875,3,0,12760001,,,6,3
59,104,0.25,4,1,12760001,,,6,4
59,104,0.1875,5,0,12760001,,,6,3
47,104,0.5,6,1,12760001,,,6,8
35,104,0.375,7,1,12760001,,,6,6
35,104,0.5,8,0,12760001,,,6,8
47,104,0.3125,9,1,12760001,,,6,5
47,104,0.0625,10,0,12760001,,,6,1
51,104,0.1875,0,1,12770000,,,6,3
51,104,0.9375,1,0,12770000,,,6,15
58,104,0.75,2,1,12770000,,,6,12
51,104,0.375,3,1,12770000,,,6,6
51,104,0.3125,4,0,12770000,,,6,5
51,104,0.75,5,0,12770000,,,6,12
63,104,0.9375,6,1,12770000,,,6,15
51,104,0.1875,0,1,12770001,,,6,3
51,104,0.6875,1,0,12770001,,,6,11
48,104,0.5,2,0,12770001,,,6,8
48,104,0.8125,3,0,12770001,,,6,13
58,104,0.625,4,1,12770001,,,6,10
46,104,0.625,5,1,12770001,,,6,10
46,104,0.3125,6,0,12770001,,,6,5
58,104,0.25,0,1,12770002,,,6,4
58,104,0.25,1,0,12770002,,,6,4
50,104,0.6875,2,1,12770002,,,6,11
64,104,0.25,0,1,12780000,,,6,4
61,104,0.3125,1,0,12780000,,,6,5
49,104,0.25,2,1,12780000,,,6,4
57,104,0.9375,3,1,12780000,,,6,15
59,104,0.1875,4,1,12780000,,,6,3
59,104,0.25,5,0,12780000,,,6,4
57,104,0.5,6,0,12780000,,,6,8
64,104,0.9375,7,1,12780000,,,6,15
64,104,0.125,8,1,12780000,,,6,2
47,104,0.8125,9,1,12780000,,,6,13
63,104,0.625,0,1,12780001,,,6,10
37,104,0.1875,1,1,12780001,,,6,3
59,104,0.1875,2,1,12780001,,,6,3
30,104,0.375,3,1,12780001,,,6,6
61,104,0.3125,0,1,12790000,,,6,5
57,104,0.1875,1,0,12790000,,,6,3
40,104,0.375,2,1,12790000,,,6,6
40,104,0.125,3,0,12790000,,,6,2
54,104,0.9375,4,1,12790000,,,6,15
54,104,0.4375,5,1,12790000,,,6,7
62,104,0.1875,6,1,12790000,,,6,3
50,104,0.625,7,1,12790000,,,6,10
50,104,0.1875,8,0,12790000,,,6,3
57,104,0.125,9,1,12790000,,,6,2
57,104,0.5625,10,0,12790000,,,6,9
57,104,0.25,0,1,12790001,,,6,4
52,104,0.875,1,0,12790001,,,6,14
52,104,0.1875,2,1,12790001,,,6,3
64,104,0.1875,3,1,12790001,,,6,3
54,104,0.625,4,1,12790001,,,6,10
58,104,0.25,0,1,12800000,,,6,4
43,104,0.6875,1,1,12800000,,,6,11
58,104,0.375,2,1,12800000,,,6,6
53,104,0.125,3,0,12800000,,,6,2
63,104,0.6875,4,1,12800000,,,6,11
55,104,0.1875,5,1,12800000,,,6,3
53,104,0.1875,6,0,12800000,,,6,3
53,104,0.1875,7,0,12800000,,,6,3
51,104,0.1875,8,0,12800000,,,6,3
53,104,0.125,9,0,12800000,,,6,2
53,104,0.375,10,0,12800000,,,6,6
53,104,0.1875,11,0,12800000,,,6,3
58,104,0.25,12,0,12800000,,,6,4
46,104,0.4375,13,1,12800000,,,6,7
53,104,0.3125,0,1,12800001,,,6,5
39,104,0.9375,0,1,12810000,,,6,15
70,104,0.125,1,1,12810000,,,6,2
39,104,0.875,2,1,12810000,,,6,14
39,104,0.75,3,1,12810000,,,6,12
51,104,0.125,4,1,12810000,,,6,2
39,104,0.9375,5,1,12810000,,,6,15
39,104,0.1875,6,1,12810000,,,6,3
39,104,0.375,7,0,12810000,,,6,6
51,104,0.625,0,1,12810001,,,6,10
58,104,0.3125,1,1,12810001,,,6,5
58,104,0.625,2,0,12810001,,,6,10
58,104,0.375,3,0,12810001,,,6,6
51,104,0.125,4,1,12810001,,,6,2
51,104,0.125,5,0,12810001,,,6,2
51,104,0.1875,6,0,12810001,,,6,3
46,104,0.5625,7,0,12810001,,,6,9
46,104,0.1875,8,0,12810001,,,6,3
58,104,0.125,9,1,12810001,,,6,2
58,104,0.375,10,0,12810001,,,6,6
58,104,0.1875,11,0,12810001,,,6,3
66,104,0.375,0,1,12820000,,,6,6
59,104,0.125,1,1,12820000,,,6,2
66,104,0.8125,2,1,12820000,,,6,13
52,104,0.25,3,1,12820000,,,6,4
47,104,0.25,4,0,12820000,,,6,4
52,104,0.9375,5,0,12820000,,,6,15
52,104,0.1875,6,1,12820000,,,6,3
52,104,0.875,7,0,12820000,,,6,14
47,104,0.1875,8,1,12820000,,,6,3
59,104,0.875,0,1,12820001,,,6,14
59,104,0.875,1,1,12820001,,,6,14
30,104,0.1875,2,1,12820001,,,6,3
49,104,0.9375,3,1,12820001,,,6,15
30,104,0.25,4,1,12820001,,,6,4
54,104,0.25,5,1,12820001,,,6,4
56,104,0.3125,6,0,12820001,,,6,5
55,104,0.25,0,1,12830000,,,6,4
31,104,0.25,1,1,12830000,,,6,4
67,104,0.125,2,1,12830000,,,6,2
31,104,0.5625,3,1,12830000,,,6,9
91,104,0.125,4,1,12830000,,,6,2
31,104,0.25,5,1,12830000,,,6,4
56,104,0.125,6,1,12830000,,,6,2
57,104,0.1875,7,0,12830000,,,6,3
33,104,0.125,8,1,12830000,,,6,2
31,104,0.5,9,0,12830000,,,6,8
55,104,0.3125,10,1,12830000,,,6,5
67,104,0.1875,11,1,12830000,,,6,3
55,104,0.1875,12,1,12830000,,,6,3
55,104,0.1875,13,0,12830000,,,6,3
55,104,0.1875,14,0,12830000,,,6,3
59,104,0.1875,0,1,12840000,,,6,3
54,104,0.8125,1,0,12840000,,,6,13
47,104,0.75,2,1,12840000,,,6,12
28,104,0.25,3,1,12840000,,,6,4
47,104,0.5,4,1,12840000,,,6,8
47,104,0.1875,5,0,12840000,,,6,3
52,104,0.375,6,0,12840000,,,6,6
52,104,0.3125,7,0,12840000,,,6,5
52,104,0.6875,8,0,12840000,,,6,11
52,104,0.5,0,1,12840001,,,6,8
47,104,0.375,1,0,12840001,,,6,6
62,104,0.9375,2,1,12840001,,,6,15
49,104,0.3125,3,1,12840001,,,6,5
61,104,0.25,4,1,12840001,,,6,4
64,104,0.8125,5,0,12840001,,,6,13
45,104,0.625,0,1,12850000,,,6,10
45,104,0.375,1,0,12850000,,,6,6
57,104,0.1875,2,1,12850000,,,6,3
34,104,0.4375,3,1,12850000,,,6,7
34,104,0.375,4,0,12850000,,,6,6
34,104,0.125,5,0,12850000,,,6,2
58,104,0.6875,6,1,12850000,,,6,11
34,104,0.5,7,1,12850000,,,6,8
57,104,0.1875,8,1,12850000,,,6,3
57,104,0.125,9,0,12850000,,,6,2
43,104,0.125,10,1,12850000,,,6,2
47,104,0.3125,11,0,12850000,,,6,5
47,104,0.1875,0,1,12850001,,,6,3
49,104,0.5,0,1,12860000,,,6,8
49,104,0.9375,1,0,12860000,,,6,15
49,104,0.9375,2,1,12860000,,,6,15
45,104,0.5,3,1,12860000,,,6,8
45,104,0.5625,4,0,12860000,,,6,9
45,104,0.5,5,0,12860000,,,6,8
45,104,0.9375,6,0,12860000,,,6,15
45,104,0.5625,0,1,12860001,,,6,9
45,104,0.5,1,0,12860001,,,6,8
45,104,0.5,2,0,12860001,,,6,8
47,104,0.9375,3,0,12860001,,,6,15
47,104,0.9375,4,1,12860001,,,6,15
47,104,0.5,0,1,12860002,,,6,8
47,104,0.5625,1,0,12860002,,,6,9
70,104,0.125,0,1,12870000,,,6,2
70,104,0.1875,1,0,12870000,,,6,3
67,104,0.25,2,0,12870000,,,6,4
65,104,0.4375,3,0,12870000,,,6,7
63,104,0.25,4,0,12870000,,,6,4
60,104,0.3125,5,0,12870000,,,6,5
58,104,0.125,6,0,12870000,,,6,2
60,104,0.5,7,0,12870000,,,6,8
63,104,0.1875,8,0,12870000,,,6,3
65,104,0.375,9,0,12870000,,,6,6
67,104,0.4375,10,0,12870000,,,6,7
53,104,0.125,11,1,12870000,,,6,2
65,104,0.5,12,1,12870000,,,6,8
63,104,0.125,13,0,12870000,,,6,2
63,104,0.5625,14,0,12870000,,,6,9
63,104,0.4375,0,1,12870001,,,6,7
65,104,0.1875,1,0,12870001,,,6,3
55,104,0.125,2,1,12870001,,,6,2
70,104,0.375,3,1,12870001,,,6,6
67,104,0.25,4,0,12870001,,,6,4
56,104,0.4375,5,1,12870001,,,6,7
72,104,0.375,6,1,12870001,,,6,6
70,104,0.375,7,0,12870001,,,6,6
65,104,0.375,8,0,12870001,,,6,6
63,104,0.3125,9,0,12870001,,,6,5
65,104,0.375,10,0,12870001,,,6,6
65,104,0.1875,0,1,12870002,,,6,3
67,104,0.25,1,0,12870002,,,6,4
67,104,0.1875,2,0,12870002,,,6,3
65,104,0.4375,3,0,12870002,,,6,7
65,104,0.375,4,0,12870002,,,6,6
46,104,0.3125,5,1,12870002,,,6,5
34,104,0.25,6,1,12870002,,,6,4
46,104,0.125,7,1,12870002,,,6,2
54,104,0.375,0,1,12880000,,,6,6
52,104,0.375,1,0,12880000,,,6,6
40,104,0.3125,2,1,12880000,,,6,5
68,104,0.25,3,1,12880000,,,6,4
54,104,0.1875,4,1,12880000,,,6,3
54,104,0.9375,5,0,12880000,,,6,15
54,104,0.3125,6,1,12880000,,,6,5
54,104,0.1875,7,0,12880000,,,6,3
54,104,0.1875,8,0,12880000,,,6,3
50,104,0.8125,9,0,12880000,,,6,13
62,104,0.375,10,1,12880000,,,6,6
62,104,0.4375,0,1,12880001,,,6,7
50,104,0.3125,1,1,12880001,,,6,5
57,104,0.1875,2,1,12880001,,,6,3
45,104,0.625,3,1,12880001,,,6,10
61,104,0.1875,4,1,12880001,,,6,3
57,104,0.8125,5,0,12880001,,,6,13
52,104,0.5625,6,1,12880001,,,6,9
52,104,0.25,7,0,12880001,,,6,4
52,104,0.5625,8,0,12880001,,,6,9
60,104,0.1875,0,1,12890000,,,6,3
60,104,0.375,1,0,12890000,,,6,6
60,104,0.75,2,0,12890000,,,6,12
60,104,0.3125,3,1,12890000,,,6,5
63,104,0.3125,4,0,12890000,,,6,5
44,104,0.75,5,1,12890000,,,6,12
56,104,0.9375,6,1,12890000,,,6,15
56,104,0.1875,7,1,12890000,,,6,3
60,104,0.9375,8,0,12890000,,,6,15
58,104,0.375,0,1,12890001,,,6,6
46,104,0.9375,1,1,12890001,,,6,15
46,104,0.375,2,1,12890001,,,6,6
53,104,0.25,0,1,12900000,,,6,4
61,104,0.25,1,1,12900000,,,6,4
49,104,0.25,2,1,12900000,,,6,4
54,104,0.1875,3,0,12900000,,,6,3
54,104,0.5625,4,0,12900000,,,6,9
61,104,0.4375,5,1,12900000,,,6,7
54,104,0.3125,6,1,12900000,,,6,5
54,104,0.25,7,0,12900000,,,6,4
61,104,0.1875,8,1,12900000,,,6,3
49,104,0.875,9,1,12900000,,,6,14
49,104,0.5,10,1,12900000,,,6,8
61,104,0.1875,0,1,12900001,,,6,3
61,104,0.6875,1,0,12900001,,,6,11
32,104,0.25,2,1,12900001,,,6,4
63,104,0.375,3,1,12900001,,,6,6
61,104,0.75,4,0,12900001,,,6,12
60,104,0.1875,5,1,12900001,,,6,3
42,104,0.25,6,1,12900001,,,6,4
49,104,0.3125,7,1,12900001,,,6,5
57,104,0.9375,0,1,12910000,,,6,15
33,104,0.375,1,1,12910000,,,6,6
45,104,0.625,2,1,12910000,,,6,10
55,104,0.25,3,1,12910000,,,6,4
55,104,0.1875,4,0,12910000,,,6,3
55,104,0.9375,5,0,12910000,,,6,15
53,104,0.9375,6,1,12910000,,,6,15
60,104,0.375,0,1,12910001,,,6,6
55,104,0.9375,1,0,12910001,,,6,15
52,104,0.25,2,1,12910001,,,6,4
33,104,0.5,3,1,12910001,,,6,8
33,104,0.1875,4,0,12910001,,,6,3
33,104,0.125,5,0,12910001,,,6,2
53,104,0.25,0,1,12920000,,,6,4
57,104,0.4375,1,0,12920000,,,6,7
57,104,0.1875,2,0,12920000,,,6,3
51,104,0.9375,3,0,12920000,,,6,15
51,104,0.5625,4,1,12920000,,,6,9
53,104,0.4375,5,0,12920000,,,6,7
58,104,0.3125,6,0,12920000,,,6,5
53,104,0.375,7,0,12920000,,,6,6
53,104,0.5,8,0,12920000,,,6,8
48,104,0.3125,0,1,12920001,,,6,5
53,104,0.3125,1,0,12920001,,,6,5
53,104,0.4375,2,0,12920001,,,6,7
53,104,0.9375,3,0,12920001,,,6,15
53,104,0.25,4,1,12920001,,,6,4
53,104,0.125,5,0,12920001,,,6,2
53,104,0.125,6,0,12920001,,,6,2
89,104,0.6875,0,1,12930000,,,6,11
89,104,0.3125,1,0,12930000,,,6,5
58,104,0.1875,2,1,12930000,,,6,3
89,104,0.4375,3,1,12930000,,,6,7
89,104,0.25,4,0,12930000,,,6,4
89,104,0.5625,5,0,12930000,,,6,9
89,104,0.3125,6,0,12930000,,,6,5
53,104,0.1875,7,1,12930000,,,6,3
52,104,0.25,0,1,12940000,,,6,4
47,104,0.6875,1,0,12940000,,,6,11
35,104,0.25,2,1,12940000,,,6,4
35,104,0.25,3,0,12940000,,,6,4
47,104,0.25,4,1,12940000,,,6,4
63,104,0.1875,5,1,12940000,,,6,3
45,104,0.4375,6,1,12940000,,,6,7
57,104,0.1875,7,1,12940000,,,6,3
52,104,0.3125,8,0,12940000,,,6,5
52,104,0.625,9,0,12940000,,,6,10
49,104,0.625,10,0,12940000,,,6,10
49,104,0.1875,0,1,12940001,,,6,3
49,104,0.375,1,0,12940001,,,6,6
49,104,0.25,2,0,12940001,,,6,4
57,104,0.3125,3,1,12940001,,,6,5
49,104,0.3125,4,1,12940001,,,6,5
49,104,0.25,5,0,12940001,,,6,4
32,104,0.9375,6,1,12940001,,,6,15
49,104,0.9375,7,1,12940001,,,6,15
45,104,0.125,0,1,12950000,,,6,2
57,104,0.1875,1,1,12950000,,,6,3
57,104,0.25,2,0,12950000,,,6,4
57,104,0.125,3,0,12950000,,,6,2
57,104,0.125,4,0,12950000,,,6,2
45,104,0.1875,5,1,12950000,,,6,3
50,104,0.1875,6,0,12950000,,,6,3
65,104,0.3125,7,1,12950000,,,6,5
65,104,0.25,8,0,12950000,,,6,4
57,104,0.5625,9,1,12950000,,,6,9
55,104,0.375,10,0,12950000,,,6,6
53,104,0.25,11,0,12950000,,,6,4
55,104,0.125,12,0,12950000,,,6,2
55,104,0.625,13,0,12950000,,,6,10
53,104,0.125,14,0,12950000,,,6,2
36,104,0.9375,0,1,12960000,,,6,15
36,104,0.4375,1,1,12960000,,,6,7
36,104,0.375,2,0,12960000,,,6,6
48,104,0.625,3,1,12960000,,,6,10
67,104,0.4375,4,1,12960000,,,6,7
55,104,0.375,5,1,12960000,,,6,6
55,104,0.75,6,0,12960000,,,6,12
57,104,0.1875,7,1,12960000,,,6,3
55,104,0.9375,0,1,12960001,,,6,15
55,104,0.4375,1,1,12960001,,,6,7
55,104,0.3125,2,0,12960001,,,6,5
55,104,0.1875,3,0,12960001,,,6,3
55,104,0.0625,4,0,12960001,,,6,1
55,104,0.3125,0,1,12970000,,,6,5
43,104,0.1875,1,1,12970000,,,6,3
44,104,0.3125,2,0,12970000,,,6,5
44,104,0.25,3,0,12970000,,,6,4
44,104,0.25,4,0,12970000,,,6,4
44,104,0.9375,5,0,12970000,,,6,15
44,104,0.25,6,1,12970000,,,6,4
44,104,0.1875,7,0,12970000,,,6,3
32,104,0.125,8,1,12970000,,,6,2
44,104,0.75,9,1,12970000,,,6,12
44,104,0.4375,10,1,12970000,,,6,7
56,104,0.1875,0,1,12970001,,,6,3
63,104,0.1875,1,1,12970001,,,6,3
44,104,0.25,2,1,12970001,,,6,4
63,104,0.1875,3,1,12970001,,,6,3
44,104,0.4375,4,1,12970001,,,6,7
44,104,0.25,5,0,12970001,,,6,4
46,104,0.1875,6,0,12970001,,,6,3
46,104,0.1875,7,0,12970001,,,6,3
46,104,0.125,8,0,12970001,,,6,2
46,104,0.4375,9,0,12970001,,,6,7
34,104,0.25,10,1,12970001,,,6,4
34,104,0.1875,11,0,12970001,,,6,3
46,104,0.1875,12,1,12970001,,,6,3
46,104,0.4375,13,0,12970001,,,6,7
46,104,0.6875,14,0,12970001,,,6,11
34,104,0.1875,0,1,12970002,,,6,3
55,104,0.625,0,1,12980000,,,6,10
46,104,0.6875,1,1,12980000,,,6,11
34,104,0.3125,2,1,12980000,,,6,5
34,104,0.3125,3,0,12980000,,,6,5
46,104,0.3125,4,1,12980000,,,6,5
34,104,0.5625,5,1,12980000,,,6,9
46,104,0.8125,6,1,12980000,,,6,13
53,104,0.9375,7,1,12980000,,,6,15
29,104,0.25,0,1,12980001,,,6,4
53,104,0.375,1,1,12980001,,,6,6
31,104,0.3125,2,1,12980001,,,6,5
31,104,0.1875,3,0,12980001,,,6,3
70,104,0.375,4,1,12980001,,,6,6
72,104,0.0625,5,0,12980001,,,6,1
39,104,0.875,0,1,12990000,,,6,14
63,104,0.625,1,1,12990000,,,6,10
63,104,0.5,2,0,12990000,,,6,8
39,104,0.9375,3,1,12990000,,,6,15
59,104,0.1875,0,1,13000000,,,6,3
57,104,0.3125,1,0,13000000,,,6,5
59,104,0.3125,2,0,13000000,,,6,5
40,104,0.1875,3,1,13000000,,,6,3
59,104,0.4375,4,1,13000000,,,6,7
59,104,0.3125,5,0,13000000,,,6,5
57,104,0.25,6,0,13000000,,,6,4
45,104,0.5625,7,1,13000000,,,6,9
57,104,0.25,8,1,13000000,,,6,4
69,104,0.4375,9,1,13000000,,,6,7
43,104,0.25,10,1,13000000,,,6,4
62,104,0.3125,11,1,13000000,,,6,5
50,104,0.25,12,1,13000000,,,6,4
38,104,0.25,0,1,13000001,,,6,4
50,104,0.25,1,1,13000001,,,6,4
57,104,0.8125,2,1,13000001,,,6,13
52,104,0.9375,3,1,13000001,,,6,15
31,104,0.75,0,1,13010000,,,6,12
62,104,0.1875,1,1,13010000,,,6,3
67,104,0.9375,2,0,13010000,,,6,15
67,104,0.9375,3,1,13010000,,,6,15
60,104,0.1875,4,1,13010000,,,6,3
48,104,0.25,5,1,13010000,,,6,4
48,104,0.1875,6,0,13010000,,,6,3
48,104,0.1875,7,0,13010000,,,6,3
55,104,0.375,8,1,13010000,,,6,6
55,104,0.1875,0,1,13010001,,,6,3
48,104,0.5,1,1,13010001,,,6,8
67,104,0.1875,2,1,13010001,,,6,3
67,104,0.4375,3,0,13010001,,,6,7
67,104,0.5625,4,0,13010001,,,6,9
67,104,0.5625,5,0,13010001,,,6,9
55,104,0.3125,6,1,13010001,,,6,5
55,104,0.375,7,0,13010001,,,6,6
55,104,0.4375,8,0,13010001,,,6,7
55,104,0.25,9,0,13010001,,,6,4
62,104,0.375,10,1,13010001,,,6,6
67,104,0.1875,0,1,13010002,,,6,3
43,104,0.3125,1,1,13010002,,,6,5
29,104,0.8125,0,1,13020000,,,6,13
60,104,0.9375,1,1,13020000,,,6,15
57,104,0.8125,2,1,13020000,,,6,13
41,104,0.25,3,1,13020000,,,6,4
59,104,0.9375,4,1,13020000,,,6,15
60,104,0.9375,5,1,13020000,,,6,15
33,104,0.6875,0,1,13020001,,,6,11
45,104,0.5,1,1,13020001,,,6,8
45,104,0.375,2,0,13020001,,,6,6
55,104,0.875,3,1,13020001,,,6,14
55,104,0.1875,4,1,13020001,,,6,3
55,104,0.25,5,0,13020001,,,6,4
60,104,0.5,6,0,13020001,,,6,8
55,104,0.9375,0,1,13020002,,,6,15
53,104,0.3125,1,1,13020002,,,6,5
63,104,0.8125,0,1,13030000,,,6,13
53,104,0.4375,1,1,13030000,,,6,7
61,104,0.9375,2,1,13030000,,,6,15
61,104,0.3125,3,1,13030000,,,6,5
51,104,0.375,4,1,13030000,,,6,6
51,104,0.9375,5,0,13030000,,,6,15
63,104,0.625,6,1,13030000,,,6,10
51,104,0.6875,0,1,13030001,,,6,11
63,104,0.9375,1,1,13030001,,,6,15
60,104,0.3125,2,1,13030001,,,6,5
48,104,0.5,3,1,13030001,,,6,8
53,104,0.1875,4,0,13030001,,,6,3
53,104,0.3125,5,0,13030001,,,6,5
52,104,0.4375,0,1,13040000,,,6,7
52,104,0.3125,1,0,13040000,,,6,5
52,104,0.625,2,0,13040000,,,6,10
52,104,0.125,3,0,13040000,,,6,2
52,104,0.1875,4,0,13040000,,,6,3
52,104,0.1875,5,0,13040000,,,6,3
62,104,0.1875,6,1,13040000,,,6,3
62,104,0.5625,7,0,13040000,,,6,9
62,104,0.5625,8,0,13040000,,,6,9
62,104,0.1875,9,0,13040000,,,6,3
62,104,0.4375,10,0,13040000,,,6,7
43,104,0.375,11,1,13040000,,,6,6
43,104,0.4375,0,1,13040001,,,6,7
62,104,0.25,1,1,13040001,,,6,4
43,104,0.1875,2,1,13040001,,,6,3
52,104,0.4375,3,1,13040001,,,6,7
52,104,0.25,4,0,13040001,,,6,4
52,104,0.875,5,0,13040001,,,6,14
60,104,0.25,6,1,13040001,,,6,4
41,104,0.3125,7,1,13040001,,,6,5
53,104,0.625,8,1,13040001,,,6,10
53,104,0.5,9,0,13040001,,,6,8
60,104,0.4375,0,1,13040002,,,6,7
41,104,0.1875,1,1,13040002,,,6,3
52,104,0.625,2,1,13040002,,,6,10
51,104,0.1875,0,1,13050000,,,6,3
51,104,0.3125,1,0,13050000,,,6,5
51,104,0.1875,2,0,13050000,,,6,3
32,104,0.3125,3,1,13050000,,,6,5
51,104,0.9375,4,1,13050000,,,6,15
53,104,0.25,5,1,13050000,,,6,4
53,104,0.125,6,0,13050000,,,6,2
58,104,0.1875,7,0,13050000,,,6,3
53,104,0.3125,8,0,13050000,,,6,5
53,104,0.25,9,0,13050000,,,6,4
41,104,0.25,10,1,13050000,,,6,4
41,104,0.1875,11,0,13050000,,,6,3
41,104,0.1875,12,0,13050000,,,6,3
53,104,0.125,13,1,13050000,,,6,2
41,104,0.25,14,1,13050000,,,6,4
53,104,0.375,0,1,13060000,,,6,6
58,104,0.25,1,0,13060000,,,6,4
58,104,0.9375,2,0,13060000,,,6,15
58,104,0.375,3,1,13060000,,,6,6
53,104,0.5,4,0,13060000,,,6,8
58,104,0.9375,5,0,13060000,,,6,15
58,104,0.75,6,1,13060000,,,6,12
58,104,0.25,0,1,13060001,,,6,4
63,104,0.625,1,0,13060001,,,6,10
51,104,0.375,2,1,13060001,,,6,6
63,104,0.5,3,1,13060001,,,6,8
51,104,0.5625,4,1,13060001,,,6,9
63,104,0.75,5,1,13060001,,,6,12
51,104,0.5,6,1,13060001,,,6,8
31,104,0.1875,0,1,13070000,,,6,3
51,104,0.9375,1,1,13070000,,,6,15
55,104,0.125,2,1,13070000,,,6,2
51,104,0.3125,3,0,13070000,,,6,5
51,104,0.3125,4,0,13070000,,,6,5
51,104,0.9375,5,0,13070000,,,6,15
55,104,0.375,6,1,13070000,,,6,6
53,104,0.375,7,0,13070000,,,6,6
53,104,0.5625,8,0,13070000,,,6,9
58,104,0.3125,0,1,13070001,,,6,5
53,104,0.25,1,0,13070001,,,6,4
53,104,0.3125,2,0,13070001,,,6,5
53,104,0.25,3,0,13070001,,,6,4
53,104,0.1875,4,0,13070001,,,6,3
53,104,0.8125,5,0,13070001,,,6,13
57,104,0.8125,0,1,13080000,,,6,13
52,104,0.4375,1,1,13080000,,,6,7
52,104,0.875,2,0,13080000,,,6,14
59,104,0.5,3,1,13080000,,,6,8
52,104,0.1875,4,1,13080000,,,6,3
57,104,0.3125,5,0,13080000,,,6,5
53,104,0.6875,6,0,13080000,,,6,11
53,104,0.8125,7,0,13080000,,,6,13
59,104,0.25,0,1,13080001,,,6,4
53,104,0.5625,1,0,13080001,,,6,9
54,104,0.625,2,0,13080001,,,6,10
54,104,0.1875,3,0,13080001,,,6,3
54,104,0.8125,4,0,13080001,,,6,13
54,104,0.8125,5,1,13080001,,,6,13
54,104,0.75,6,1,13080001,,,6,12
59,104,0.1875,0,1,13080002,,,6,3
59,104,0.9375,0,1,13090000,,,6,15
47,104,0.25,1,1,13090000,,,6,4
59,104,0.1875,2,1,13090000,,,6,3
52,104,0.9375,3,1,13090000,,,6,15
52,104,0.25,4,1,13090000,,,6,4
52,104,0.1875,5,0,13090000,,,6,3
47,104,0.9375,6,0,13090000,,,6,15
59,104,0.125,7,1,13090000,,,6,2
47,104,0.4375,8,1,13090000,,,6,7
49,104,0.9375,0,1,13090001,,,6,15
53,104,0.6875,0,1,13100000,,,6,11
47,104,0.625,1,0,13100000,,,6,10
48,104,0.625,2,0,13100000,,,6,10
36,104,0.4375,3,1,13100000,,,6,7
55,104,0.1875,4,1,13100000,,,6,3
55,104,0.375,5,0,13100000,,,6,6
57,104,0.9375,6,0,13100000,,,6,15
60,104,0.125,7,1,13100000,,,6,2
52,104,0.1875,0,1,13100001,,,6,3
33,104,0.25,1,1,13100001,,,6,4
33,104,0.9375,2,0,13100001,,,6,15
60,104,0.125,3,1,13100001,,,6,2
45,104,0.625,4,1,13100001,,,6,10
57,104,0.375,0,1,13110000,,,6,6
38,104,0.25,1,1,13110000,,,6,4
57,104,0.375,2,1,13110000,,,6,6
57,104,0.3125,3,0,13110000,,,6,5
59,104,0.8125,4,0,13110000,,,6,13
59,104,0.1875,5,1,13110000,,,6,3
59,104,0.625,6,0,13110000,,,6,10
59,104,0.3125,7,0,13110000,,,6,5
59,104,0.75,8,0,13110000,,,6,12
53,104,0.4375,0,1,13110001,,,6,7
59,104,0.3125,1,0,13110001,,,6,5
42,104,0.0625,2,1,13110001,,,6,1
58,104,0.125,0,1,13120000,,,6,2
58,104,0.9375,1,0,13120000,,,6,15
46,104,0.125,2,1,13120000,,,6,2
58,104,0.1875,3,1,13120000,,,6,3
39,104,0.3125,4,1,13120000,,,6,5
51,104,0.25,5,1,13120000,,,6,4
39,104,0.3125,6,1,13120000,,,6,5
39,104,0.9375,7,0,13120000,,,6,15
39,104,0.1875,8,1,13120000,,,6,3
27,104,0.25,9,1,13120000,,,6,4
51,104,0.9375,10,1,13120000,,,6,15
51,104,0.75,0,1,13120001,,,6,12
39,104,0.375,1,1,13120001,,,6,6
51,104,0.1875,2,1,13120001,,,6,3
39,104,0.8125,3,1,13120001,,,6,13
46,104,0.75,4,1,13120001,,,6,12
34,104,0.4375,5,1,13120001,,,6,7
51,104,0.9375,0,1,13130000,,,6,15
51,104,0.125,1,1,13130000,,,6,2
51,104,0.9375,2,0,13130000,,,6,15
51,104,0.1875,3,1,13130000,,,6,3
61,104,0.1875,4,1,13130000,,,6,3
47,104,0.625,5,1,13130000,,,6,10
54,104,0.1875,6,1,13130000,,,6,3
47,104,0.9375,7,1,13130000,,,6,15
47,104,0.5,0,1,13130001,,,6,8
47,104,0.625,1,0,13130001,,,6,10
59,104,0.9375,2,1,13130001,,,6,15
47,104,0.4375,3,1,13130001,,,6,7
59,104,0.1875,4,1,13130001,,,6,3
37,104,0.9375,5,1,13130001,,,6,15
56,104,0.1875,6,1,13130001,,,6,3
37,104,0.875,7,1,13130001,,,6,14
56,104,0.4375,0,1,13130002,,,6,7
37,104,0.0,1,1,13130002,,,6,0
43,104,0.1875,0,1,13140000,,,6,3
50,104,0.3125,1,1,13140000,,,6,5
62,104,0.9375,2,1,13140000,,,6,15
62,104,0.9375,3,1,13140000,,,6,15
52,104,0.5,4,1,13140000,,,6,8
60,104,0.25,5,1,13140000,,,6,4
52,104,0.75,6,1,13140000,,,6,12
65,104,0.3125,7,1,13140000,,,6,5
41,104,0.25,0,1,13140001,,,6,4
53,104,0.5625,1,1,13140001,,,6,9
53,104,0.75,2,0,13140001,,,6,12
41,104,0.25,3,1,13140001,,,6,4
53,104,0.1875,4,1,13140001,,,6,3
33,104,0.1875,0,1,13150000,,,6,3
64,104,0.4375,1,1,13150000,,,6,7
66,104,0.5625,2,0,13150000,,,6,9
68,104,0.625,3,0,13150000,,,6,10
59,104,0.125,4,1,13150000,,,6,2
52,104,0.875,5,1,13150000,,,6,14
59,104,0.4375,6,1,13150000,,,6,7
61,104,0.8125,7,0,13150000,,,6,13
64,104,0.6875,0,1,13150001,,,6,11
66,104,0.6875,1,0,13150001,,,6,11
66,104,0.9375,2,0,13150001,,,6,15
33,104,0.25,3,1,13150001,,,6,4
33,104,0.3125,4,0,13150001,,,6,5
64,104,0.6875,5,1,13150001,,,6,11
59,104,0.375,0,1,13160000,,,6,6
64,104,0.25,1,0,13160000,,,6,4
64,104,0.375,2,0,13160000,,,6,6
59,104,0.125,3,0,13160000,,,6,2
59,104,0.375,4,0,13160000,,,6,6
59,104,0.3125,5,0,13160000,,,6,5
59,104,0.1875,6,0,13160000,,,6,3
59,104,0.125,7,0,13160000,,,6,2
59,104,0.875,8,0,13160000,,,6,14
59,104,0.4375,9,1,13160000,,,6,7
59,104,0.3125,10,0,13160000,,,6,5
35,104,0.6875,11,1,13160000,,,6,11
47,104,0.3125,0,1,13160001,,,6,5
35,104,0.6875,1,1,13160001,,,6,11
61,104,0.4375,0,1,13170000,,,6,7
45,104,0.5,1,1,13170000,,,6,8
57,104,0.1875,2,1,13170000,,,6,3
45,104,0.1875,3,1,13170000,,,6,3
33,104,0.1875,4,1,13170000,,,6,3
57,104,0.1875,5,1,13170000,,,6,3
33,104,0.1875,6,1,13170000,,,6,3
61,104,0.8125,7,1,13170000,,,6,13
33,104,0.3125,8,1,13170000,,,6,5
61,104,0.5,9,1,13170000,,,6,8
42,104,0.1875,10,1,13170000,,,6,3
57,104,0.6875,11,1,13170000,,,6,11
54,104,0.5625,0,1,13170001,,,6,9
57,104,0.1875,1,0,13170001,,,6,3
38,104,0.125,2,1,13170001,,,6,2
55,104,0.125,0,1,13180000,,,6,2
55,104,0.125,1,0,13180000,,,6,2
36,104,0.6875,2,1,13180000,,,6,11
60,104,0.8125,3,1,13180000,,,6,13
60,104,0.9375,4,1,13180000,,,6,15
60,104,0.9375,5,1,13180000,,,6,15
48,104,0.9375,6,1,13180000,,,6,15
48,104,0.4375,0,1,13180001,,,6,7
60,104,0.125,1,1,13180001,,,6,2
48,104,0.9375,2,1,13180001,,,6,15
48,104,0.9375,3,1,13180001,,,6,15
61,104,0.4375,0,1,13190000,,,6,7
61,104,0.5,1,0,13190000,,,6,8
64,104,0.125,2,0,13190000,,,6,2
57,104,0.375,3,1,13190000,,,6,6
47,104,0.6875,4,1,13190000,,,6,11
63,104,0.4375,5,1,13190000,,,6,7
35,104,0.375,6,1,13190000,,,6,6
59,104,0.25,7,1,13190000,,,6,4
57,104,0.25,8,0,13190000,,,6,4
61,104,0.625,9,0,13190000,,,6,10
61,104,0.3125,0,1,13190001,,,6,5
57,104,0.25,1,0,13190001,,,6,4
61,104,0.3125,2,0,13190001,,,6,5
59,104,0.1875,3,0,13190001,,,6,3
63,104,0.9375,4,0,13190001,,,6,15
35,104,0.25,5,1,13190001,,,6,4
47,104,0.125,6,1,13190001,,,6,2
64,104,0.4375,7,1,13190001,,,6,7
57,104,0.8125,8,1,13190001,,,6,13
57,104,0.3125,9,1,13190001,,,6,5
61,104,0.5,0,1,13190002,,,6,8
52,104,0.9375,0,1,13200000,,,6,15
52,104,0.1875,1,1,13200000,,,6,3
33,104,0.9375,2,1,13200000,,,6,15
57,104,0.25,3,1,13200000,,,6,4
45,104,0.375,4,1,13200000,,,6,6
57,104,0.1875,5,1,13200000,,,6,3
57,104,0.5625,6,0,13200000,,,6,9
57,104,0.3125,7,0,13200000,,,6,5
57,104,0.5625,8,0,13200000,,,6,9
45,104,0.25,0,1,13200001,,,6,4
33,104,0.25,1,1,13200001,,,6,4
52,104,0.9375,0,1,13210000,,,6,15
40,104,0.25,1,1,13210000,,,6,4
52,104,0.3125,2,1,13210000,,,6,5
37,104,0.3125,3,1,13210000,,,6,5
61,104,0.25,4,1,13210000,,,6,4
49,104,0.1875,5,1,13210000,,,6,3
61,104,0.1875,6,1,13210000,,,6,3
61,104,0.75,7,0,13210000,,,6,12
45,104,0.4375,8,1,13210000,,,6,7
64,104,0.25,9,1,13210000,,,6,4
52,104,0.1875,10,1,13210000,,,6,3
59,104,0.125,0,1,13210001,,,6,2
47,104,0.4375,1,1,13210001,,,6,7
59,104,0.1875,2,1,13210001,,,6,3
40,104,0.1875,0,1,13220000,,,6,3
40,104,0.1875,1,0,13220000,,,6,3
40,104,0.25,2,0,13220000,,,6,4
52,104,0.25,3,1,13220000,,,6,4
52,104,0.3125,4,0,13220000,,,6,5
52,104,0.25,5,0,13220000,,,6,4
52,104,0.5,6,0,13220000,,,6,8
64,104,0.1875,7,1,13220000,,,6,3
64,104,0.4375,8,0,13220000,,,6,7
61,104,0.25,9,0,13220000,,,6,4
64,104,0.1875,10,0,13220000,,,6,3
49,104,0.4375,11,1,13220000,,,6,7
61,104,0.5,12,1,13220000,,,6,8
52,104,0.1875,13,1,13220000,,,6,3
52,104,0.1875,0,1,13220001,,,6,3
45,104,0.375,1,1,13220001,,,6,6
52,104,0.5625,2,1,13220001,,,6,9
45,104,0.5625,3,1,13220001,,,6,9
45,104,0.375,4,0,13220001,,,6,6
35,104,0.1875,5,1,13220001,,,6,3
54,104,0.8125,6,1,13220001,,,6,13
52,104,0.0625,7,1,13220001,,,6,1
38,104,0.9375,0,1,13230000,,,6,15
38,104,0.875,1,1,13230000,,,6,14
50,104,0.25,2,1,13230000,,,6,4
38,104,0.5,3,1,13230000,,,6,8
68,104,0.1875,4,1,13230000,,,6,3
40,104,0.1875,5,1,13230000,,,6,3
68,104,0.125,6,1,13230000,,,6,2
40,104,0.25,7,1,13230000,,,6,4
59,104,0.5625,8,1,13230000,,,6,9
61,104,0.375,9,0,13230000,,,6,6
45,104,0.3125,0,1,13230001,,,6,5
45,104,0.1875,1,0,13230001,,,6,3
64,104,0.5,2,1,13230001,,,6,8
57,104,0.8125,3,1,13230001,,,6,13
64,104,0.3125,4,1,13230001,,,6,5
57,104,0.9375,5,1,13230001,,,6,15
56,104,0.9375,6,1,13230001,,,6,15
62,104,0.1875,0,1,13230002,,,6,3
38,104,0.9375,1,1,13230002,,,6,15
49,104,0.4375,0,1,13240000,,,6,7
49,104,0.5,1,0,13240000,,,6,8
49,104,0.3125,2,0,13240000,,,6,5
68,104,0.25,3,1,13240000,,,6,4
35,104,0.1875,4,1,13240000,,,6,3
59,104,0.5,5,1,13240000,,,6,8
35,104,0.5,6,1,13240000,,,6,8
35,104,0.5,7,0,13240000,,,6,8
35,104,0.1875,8,0,13240000,,,6,3
59,104,0.3125,9,1,13240000,,,6,5
35,104,0.3125,10,1,13240000,,,6,5
35,104,0.375,0,1,13240001,,,6,6
59,104,0.3125,1,1,13240001,,,6,5
59,104,0.25,2,0,13240001,,,6,4
35,104,0.6875,3,1,13240001,,,6,11
59,104,0.375,4,1,13240001,,,6,6
68,104,0.25,5,1,13240001,,,6,4
60,104,0.25,0,1,13250000,,,6,4
60,104,0.4375,1,0,13250000,,,6,7
48,104,0.4375,2,1,13250000,,,6,7
55,104,0.5625,3,1,13250000,,,6,9
55,104,0.5,4,0,13250000,,,6,8
50,104,0.9375,5,0,13250000,,,6,15
62,104,0.3125,6,1,13250000,,,6,5
65,104,0.125,7,0,13250000,,,6,2
50,104,0.8125,8,1,13250000,,,6,13
50,104,0.625,0,1,13250001,,,6,10
53,104,0.5,1,0,13250001,,,6,8
53,104,0.25,2,0,13250001,,,6,4
53,104,0.4375,3,0,13250001,,,6,7
53,104,0.5625,4,0,13250001,,,6,9
53,104,0.5625,5,0,13250001,,,6,9
34,104,0.1875,6,1,13250001,,,6,3
55,104,0.125,7,1,13250001,,,6,2
38,104,0.75,8,1,13250001,,,6,12
50,104,0.4375,0,1,13250002,,,6,7
38,104,0.25,1,1,13250002,,,6,4
38,104,0.375,2,0,13250002,,,6,6
38,104,0.375,3,0,13250002,,,6,6
64,104,0.25,0,1,13260000,,,6,4
64,104,0.1875,1,0,13260000,,,6,3
52,104,0.1875,2,1,13260000,,,6,3
47,104,0.9375,3,0,13260000,,,6,15
59,104,0.1875,4,1,13260000,,,6,3
47,104,0.3125,5,1,13260000,,,6,5
59,104,0.5,6,1,13260000,,,6,8
47,104,0.375,7,1,13260000,,,6,6
47,104,0.1875,8,0,13260000,,,6,3
47,104,0.4375,9,0,13260000,,,6,7
64,104,0.1875,10,1,13260000,,,6,3
47,104,0.75,11,1,13260000,,,6,12
47,104,0.1875,0,1,13260001,,,6,3
59,104,0.1875,1,1,13260001,,,6,3
59,104,0.4375,2,0,13260001,,,6,7
60,104,0.25,3,0,13260001,,,6,4
48,104,0.1875,4,1,13260001,,,6,3
60,104,0.375,5,1,13260001,,,6,6
61,104,0.1875,6,0,13260001,,,6,3
49,104,0.875,7,1,13260001,,,6,14
61,104,0.4375,8,1,13260001,,,6,7
49,104,0.5,9,1,13260001,,,6,8
49,104,0.1875,0,1,13260002,,,6,3
49,104,0.1875,1,0,13260002,,,6,3
49,104,0.3125,2,0,13260002,,,6,5
49,104,0.1875,3,0,13260002,,,6,3
49,104,0.125,4,0,13260002,,,6,2
55,104,0.25,0,1,13270000,,,6,4
60,104,0.4375,1,0,13270000,,,6,7
55,104,0.9375,2,0,13270000,,,6,15
55,104,0.1875,3,1,13270000,,,6,3
62,104,0.5,4,1,13270000,,,6,8
55,104,0.9375,5,1,13270000,,,6,15
62,104,0.375,6,1,13270000,,,6,6
62,104,0.4375,7,0,13270000,,,6,7
36,104,0.125,0,1,13270001,,,6,2
36,104,0.125,1,0,13270001,,,6,2
36,104,0.125,2,0,13270001,,,6,2
36,104,0.9375,3,0,13270001,,,6,15
60,104,0.25,4,1,13270001,,,6,4
55,104,0.3125,5,0,13270001,,,6,5
51,104,0.4375,0,1,13280000,,,6,7
63,104,0.3125,1,1,13280000,,,6,5
51,104,0.8125,2,1,13280000,,,6,13
51,104,0.3125,3,1,13280000,,,6,5
51,104,0.625,4,0,13280000,,,6,10
56,104,0.9375,5,0,13280000,,,6,15
56,104,0.4375,6,1,13280000,,,6,7
56,104,0.1875,7,0,13280000,,,6,3
63,104,0.375,0,1,13280001,,,6,6
51,104,0.3125,1,1,13280001,,,6,5
56,104,0.375,2,0,13280001,,,6,6
56,104,0.25,3,0,13280001,,,6,4
53,104,0.4375,4,0,13280001,,,6,7
53,104,0.3125,5,0,13280001,,,6,5
46,104,0.1875,6,1,13280001,,,6,3
63,104,0.625,7,1,13280001,,,6,10
53,104,0.125,8,1,13280001,,,6,2
55,104,0.125,9,0,13280001,,,6,2
53,104,0.375,0,1,13290000,,,6,6
41,104,0.25,1,1,13290000,,,6,4
48,104,0.3125,2,1,13290000,,,6,5
38,104,0.3125,3,1,13290000,,,6,5
57,104,0.25,4,1,13290000,,,6,4
50,104,0.25,5,1,13290000,,,6,4
34,104,0.125,6,1,13290000,,,6,2
34,104,0.1875,7,0,13290000,,,6,3
53,104,0.1875,8,1,13290000,,,6,3
34,104,0.1875,9,1,13290000,,,6,3
34,104,0.1875,10,0,13290000,,,6,3
48,104,0.125,11,1,13290000,,,6,2
53,104,0.1875,0,1,13300000,,,6,3
65,104,0.1875,1,1,13300000,,,6,3
53,104,0.125,2,1,13300000,,,6,2
65,104,0.5625,3,1,13300000,,,6,9
65,104,0.3125,4,0,13300000,,,6,5
50,104,0.1875,5,1,13300000,,,6,3
65,104,0.3125,6,1,13300000,,,6,5
63,104,0.4375,7,0,13300000,,,6,7
55,104,0.1875,8,1,13300000,,,6,3
51,104,0.125,9,0,13300000,,,6,2
51,104,0.1875,10,0,13300000,,,6,3
63,104,0.1875,11,1,13300000,,,6,3
44,104,0.125,12,1,13300000,,,6,2
60,104,0.125,13,1,13300000,,,6,2
46,104,0.25,14,1,13300000,,,6,4
62,104,0.1875,15,1,13300000,,,6,3
53,104,0.25,16,1,13300000,,,6,4
31,104,0.25,0,1,13310000,,,6,4
62,104,0.3125,1,1,13310000,,,6,5
43,104,0.5,2,1,13310000,,,6,8
43,104,0.1875,3,0,13310000,,,6,3
33,104,0.5625,4,1,13310000,,,6,9
52,104,0.25,5,1,13310000,,,6,4
45,104,0.25,6,1,13310000,,,6,4
52,104,0.1875,7,1,13310000,,,6,3
52,104,0.25,8,0,13310000,,,6,4
52,104,0.5625,9,0,13310000,,,6,9
52,104,0.4375,10,0,13310000,,,6,7
53,104,0.25,11,0,13310000,,,6,4
60,104,0.3125,0,1,13310001,,,6,5
60,104,0.375,1,0,13310001,,,6,6
53,104,0.375,2,1,13310001,,,6,6
41,104,0.0625,3,1,13310001,,,6,1
56,104,0.9375,0,1,13320000,,,6,15
52,104,0.9375,1,1,13320000,,,6,15
59,104,0.3125,2,1,13320000,,,6,5
59,104,0.9375,3,0,13320000,,,6,15
59,104,0.1875,4,1,13320000,,,6,3
54,104,0.6875,5,0,13320000,,,6,11
47,104,0.3125,0,1,13320001,,,6,5
59,104,0.5,1,1,13320001,,,6,8
59,104,0.6875,2,0,13320001,,,6,11
54,104,0.3125,3,0,13320001,,,6,5
54,104,0.1875,4,0,13320001,,,6,3
49,104,0.375,5,0,13320001,,,6,6
54,104,0.875,6,0,13320001,,,6,14
30,104,0.375,7,1,13320001,,,6,6
54,104,0.8125,8,1,13320001,,,6,13
49,104,0.1875,0,1,13320002,,,6,3
54,104,0.375,1,0,13320002,,,6,6
54,104,0.3125,2,0,13320002,,,6,5
50,104,0.3125,0,1,13330000,,,6,5
48,104,0.9375,1,0,13330000,,,6,15
36,104,0.3125,2,1,13330000,,,6,5
48,104,0.3125,3,1,13330000,,,6,5
48,104,0.1875,4,0,13330000,,,6,3
50,104,0.9375,5,0,13330000,,,6,15
57,104,0.4375,6,1,13330000,,,6,7
59,104,0.5,7,0,13330000,,,6,8
50,104,0.8125,8,1,13330000,,,6,13
43,104,0.875,0,1,13330001,,,6,14
31,104,0.1875,1,1,13330001,,,6,3
55,104,0.1875,2,1,13330001,,,6,3
57,104,0.9375,3,0,13330001,,,6,15
59,104,0.9375,4,1,13330001,,,6,15
62,104,0.625,5,1,13330001,,,6,10
50,104,0.25,0,1,13330002,,,6,4
62,104,0.1875,1,1,13330002,,,6,3
62,104,0.25,2,0,13330002,,,6,4
55,104,0.25,3,1,13330002,,,6,4
52,104,0.375,0,1,13340000,,,6,6
40,104,0.375,1,1,13340000,,,6,6
52,104,0.3125,2,1,13340000,,,6,5
49,104,0.25,3,0,13340000,,,6,4
49,104,0.25,4,0,13340000,,,6,4
49,104,0.25,5,0,13340000,,,6,4
49,104,0.8125,6,0,13340000,,,6,13
52,104,0.375,7,1,13340000,,,6,6
45,104,0.8125,8,1,13340000,,,6,13
52,104,0.25,9,1,13340000,,,6,4
33,104,0.25,0,1,13340001,,,6,4
52,104,0.3125,1,1,13340001,,,6,5
52,104,0.125,2,0,13340001,,,6,2
52,104,0.25,3,0,13340001,,,6,4
33,104,0.125,4,1,13340001,,,6,2
54,104,0.25,5,1,13340001,,,6,4
59,104,0.25,6,0,13340001,,,6,4
35,104,0.1875,7,1,13340001,,,6,3
52,104,0.25,8,1,13340001,,,6,4
52,104,0.4375,9,0,13340001,,,6,7
52,104,0.3125,10,0,13340001,,,6,5
52,104,0.0625,11,0,13340001,,,6,1
55,104,0.375,0,1,13350000,,,6,6
36,104,0.125,1,1,13350000,,,6,2
55,104,0.3125,2,1,13350000,,,6,5
60,104,0.1875,3,0,13350000,,,6,3
60,104,0.25,4,0,13350000,,,6,4
55,104,0.5625,5,0,13350000,,,6,9
43,104,0.3125,6,1,13350000,,,6,5
55,104,0.1875,7,1,13350000,,,6,3
43,104,0.5,8,1,13350000,,,6,8
55,104,0.125,9,1,13350000,,,6,2
43,104,0.4375,10,1,13350000,,,6,7
53,104,0.5625,11,1,13350000,,,6,9
53,104,0.25,12,0,13350000,,,6,4
29,104,0.125,0,1,13350001,,,6,2
53,104,0.625,1,1,13350001,,,6,10
53,104,0.375,2,0,13350001,,,6,6
48,104,0.3125,3,0,13350001,,,6,5
52,104,0.4375,4,0,13350001,,,6,7
55,104,0.1875,5,0,13350001,,,6,3
52,104,0.1875,6,0,13350001,,,6,3
55,104,0.25,7,0,13350001,,,6,4
47,104,0.125,8,1,13350001,,,6,2
55,104,0.3125,9,1,13350001,,,6,5
57,104,0.75,10,0,13350001,,,6,12
55,104,0.25,0,1,13360000,,,6,4
60,104,0.9375,1,0,13360000,,,6,15
60,104,0.1875,2,1,13360000,,,6,3
55,104,0.1875,3,0,13360000,,,6,3
53,104,0.9375,4,0,13360000,,,6,15
53,104,0.25,5,1,13360000,,,6,4
53,104,0.25,6,0,13360000,,,6,4
65,104,0.1875,7,1,13360000,,,6,3
65,104,0.1875,8,0,13360000,,,6,3
65,104,0.375,9,0,13360000,,,6,6
65,104,0.1875,10,0,13360000,,,6,3
65,104,0.1875,11,0,13360000,,,6,3
58,104,0.3125,0,1,13360001,,,6,5
58,104,0.25,1,0,13360001,,,6,4
58,104,0.25,2,0,13360001,,,6,4
44,104,0.3125,3,1,13360001,,,6,5
51,104,0.1875,4,1,13360001,,,6,3
38,104,0.1875,0,1,13370000,,,6,3
50,104,0.3125,1,1,13370000,,,6,5
50,104,0.125,2,0,13370000,,,6,2
50,104,0.4375,3,0,13370000,,,6,7
50,104,0.625,4,0,13370000,,,6,10
50,104,0.625,5,0,13370000,,,6,10
31,104,0.3125,6,1,13370000,,,6,5
55,104,0.4375,7,1,13370000,,,6,7
31,104,0.4375,8,1,13370000,,,6,7
24,104,0.375,9,1,13370000,,,6,6
60,104,0.75,10,1,13370000,,,6,12
60,104,0.875,0,1,13370001,,,6,14
53,104,0.5,1,1,13370001,,,6,8
41,104,0.3125,2,1,13370001,,,6,5
41,104,0.3125,3,0,13370001,,,6,5
41,104,0.25,4,0,13370001,,,6,4
44,104,0.3125,0,1,13380000,,,6,5
51,104,0.25,1,1,13380000,,,6,4
58,104,0.9375,2,1,13380000,,,6,15
58,104,0.25,3,1,13380000,,,6,4
58,104,0.9375,4,0,13380000,,,6,15
70,104,0.1875,5,1,13380000,,,6,3
63,104,0.1875,6,1,13380000,,,6,3
63,104,0.875,7,0,13380000,,,6,14
62,104,0.4375,8,1,13380000,,,6,7
62,104,0.1875,0,1,13380001,,,6,3
60,104,0.75,1,0,13380001,,,6,12
60,104,0.25,2,1,13380001,,,6,4
40,104,0.3125,0,1,13390000,,,6,5
52,104,0.875,1,1,13390000,,,6,14
52,104,0.1875,2,1,13390000,,,6,3
52,104,0.25,3,0,13390000,,,6,4
52,104,0.8125,4,0,13390000,,,6,13
52,104,0.8125,5,1,13390000,,,6,13
40,104,0.1875,6,1,13390000,,,6,3
52,104,0.9375,7,1,13390000,,,6,15
52,104,0.625,0,1,13390001,,,6,10
40,104,0.1875,1,1,13390001,,,6,3
52,104,0.25,2,1,13390001,,,6,4
45,104,0.9375,3,1,13390001,,,6,15
52,104,0.1875,4,1,13390001,,,6,3
33,104,0.1875,5,1,13390001,,,6,3
40,104,0.625,6,1,13390001,,,6,10
52,104,0.3125,7,1,13390001,,,6,5
52,104,0.4375,8,0,13390001,,,6,7
40,104,0.1875,0,1,13390002,,,6,3
55,104,0.6875,0,1,13400000,,,6,11
55,104,0.3125,1,0,13400000,,,6,5
29,104,0.25,2,1,13400000,,,6,4
60,104,0.125,3,1,13400000,,,6,2
63,104,0.1875,4,0,13400000,,,6,3
48,104,0.375,5,1,13400000,,,6,6
48,104,0.125,6,0,13400000,,,6,2
56,104,0.1875,7,1,13400000,,,6,3
63,104,0.3125,8,1,13400000,,,6,5
34,104,0.4375,9,1,13400000,,,6,7
34,104,0.25,10,0,13400000,,,6,4
62,104,0.375,11,1,13400000,,,6,6
62,104,0.375,12,0,13400000,,,6,6
62,104,0.5,0,1,13400001,,,6,8
34,104,0.125,1,1,13400001,,,6,2
34,104,0.3125,2,0,13400001,,,6,5
62,104,0.3125,3,1,13400001,,,6,5
34,104,0.1875,4,1,13400001,,,6,3
51,104,0.75,5,1,13400001,,,6,12
55,104,0.1875,0,1,13410000,,,6,3
58,104,0.75,1,0,13410000,,,6,12
65,104,0.1875,2,1,13410000,,,6,3
65,104,0.625,3,0,13410000,,,6,10
43,104,0.3125,4,1,13410000,,,6,5
58,104,0.875,5,1,13410000,,,6,14
51,104,0.625,6,1,13410000,,,6,10
51,104,0.25,7,0,13410000,,,6,4
51,104,0.625,8,0,13410000,,,6,10
51,104,0.125,0,1,13410001,,,6,2
51,104,0.1875,1,0,13410001,,,6,3
58,104,0.3125,2,1,13410001,,,6,5
63,104,0.375,3,0,13410001,,,6,6
63,104,0.25,4,0,13410001,,,6,4
63,104,0.75,5,0,13410001,,,6,12
51,104,0.9375,6,1,13410001,,,6,15
58,104,0.4375,7,1,13410001,,,6,7
51,104,0.1875,8,1,13410001,,,6,3
51,104,0.8125,0,1,13410002,,,6,13
44,104,0.1875,1,1,13410002,,,6,3
56,104,0.25,2,1,13410002,,,6,4
45,104,0.25,0,1,13420000,,,6,4
33,104,0.25,1,1,13420000,,,6,4
57,104,0.4375,2,1,13420000,,,6,7
38,104,0.9375,3,1,13420000,,,6,15
65,104,0.1875,4,1,13420000,,,6,3
65,104,0.25,5,0,13420000,,,6,4
65,104,0.3125,6,0,13420000,,,6,5
65,104,0.9375,7,0,13420000,,,6,15
65,104,0.1875,8,1,13420000,,,6,3
65,104,0.75,9,0,13420000,,,6,12
59,104,0.3125,0,1,13420001,,,6,5
59,104,0.25,1,0,13420001,,,6,4
59,104,0.3125,2,0,13420001,,,6,5
49,104,0.25,0,1,13430000,,,6,4
61,104,0.25,1,1,13430000,,,6,4
59,104,0.3125,2,0,13430000,,,6,5
49,104,0.5,3,1,13430000,,,6,8
49,104,0.375,4,0,13430000,,,6,6
49,104,0.1875,5,0,13430000,,,6,3
61,104,0.1875,6,1,13430000,,,6,3
57,104,0.3125,7,0,13430000,,,6,5
59,104,0.3125,8,0,13430000,,,6,5
45,104,0.375,9,1,13430000,,,6,6
57,104,0.25,10,1,13430000,,,6,4
54,104,0.3125,11,0,13430000,,,6,5
57,104,0.375,12,0,13430000,,,6,6
45,104,0.375,0,1,13430001,,,6,6
54,104,0.375,1,1,13430001,,,6,6
51,104,0.4375,0,1,13440000,,,6,7
51,104,0.5,1,0,13440000,,,6,8
51,104,0.4375,2,0,13440000,,,6,7
51,104,0.1875,3,0,13440000,,,6,3
58,104,0.3125,4,1,13440000,,,6,5
53,104,0.1875,5,0,13440000,,,6,3
53,104,0.4375,6,0,13440000,,,6,7
53,104,0.5,7,0,13440000,,,6,8
46,104,0.5625,8,1,13440000,,,6,9
53,104,0.3125,9,1,13440000,,,6,5
53,104,0.25,10,0,13440000,,,6,4
53,104,0.1875,0,1,13440001,,,6,3
53,104,0.1875,1,0,13440001,,,6,3
53,104,0.375,2,0,13440001,,,6,6
53,104,0.3125,3,0,13440001,,,6,5
47,104,0.4375,0,1,13450000,,,6,7
47,104,0.875,1,0,13450000,,,6,14
55,104,0.25,2,1,13450000,,,6,4
50,104,0.5625,3,0,13450000,,,6,9
38,104,0.375,4,1,13450000,,,6,6
50,104,0.125,5,1,13450000,,,6,2
38,104,0.1875,6,1,13450000,,,6,3
38,104,0.375,7,0,13450000,,,6,6
38,104,0.625,8,0,13450000,,,6,10
50,104,0.4375,9,1,13450000,,,6,7
62,104,0.125,0,1,13460000,,,6,2
62,104,0.9375,1,0,13460000,,,6,15
50,104,0.4375,2,1,13460000,,,6,7
50,104,0.1875,3,0,13460000,,,6,3
62,104,0.1875,4,1,13460000,,,6,3
57,104,0.9375,5,0,13460000,,,6,15
45,104,0.375,6,1,13460000,,,6,6
57,104,0.75,7,1,13460000,,,6,12
57,104,0.9375,8,1,13460000,,,6,15
45,104,0.125,0,1,13460001,,,6,2
57,104,0.375,1,1,13460001,,,6,6
50,104,0.25,2,1,13460001,,,6,4
62,104,0.9375,3,1,13460001,,,6,15
62,104,0.3125,4,1,13460001,,,6,5
38,104,0.5625,5,1,13460001,,,6,9
48,104,0.375,0,1,13470000,,,6,6
48,104,0.4375,1,0,13470000,,,6,7
53,104,0.1875,2,0,13470000,,,6,3
53,104,0.375,3,0,13470000,,,6,6
55,104,0.5625,4,0,13470000,,,6,9
60,104,0.6875,5,0,13470000,,,6,11
50,104,0.1875,6,1,13470000,,,6,3
57,104,0.25,7,1,13470000,,,6,4
38,104,0.3125,8,1,13470000,,,6,5
38,104,0.375,9,0,13470000,,,6,6
50,104,0.375,10,1,13470000,,,6,6
38,104,0.1875,0,1,13470001,,,6,3
50,104,0.8125,1,1,13470001,,,6,13
55,104,0.1875,2,1,13470001,,,6,3
55,104,0.1875,3,0,13470001,,,6,3
55,104,0.3125,4,0,13470001,,,6,5
50,104,0.9375,5,0,13470001,,,6,15
49,104,0.8125,0,1,13480000,,,6,13
61,104,0.6875,1,1,13480000,,,6,11
61,104,0.1875,2,0,13480000,,,6,3
49,104,0.625,3,1,13480000,,,6,10
49,104,0.3125,4,0,13480000,,,6,5
52,104,0.9375,5,0,13480000,,,6,15
40,104,0.3125,6,1,13480000,,,6,5
40,104,0.3125,7,0,13480000,,,6,5
52,104,0.1875,0,1,13480001,,,6,3
52,104,0.625,1,0,13480001,,,6,10
59,104,0.125,2,1,13480001,,,6,2
35,104,0.3125,3,1,13480001,,,6,5
35,104,0.375,4,0,13480001,,,6,6
35,104,0.1875,5,0,13480001,,,6,3
63,104,0.3125,6,1,13480001,,,6,5
57,104,0.8125,7,0,13480001,,,6,13
61,104,0.4375,8,1,13480001,,,6,7
57,104,0.4375,9,0,13480001,,,6,7
57,104,0.9375,0,1,13480002,,,6,15
49,104,0.6875,1,1,13480002,,,6,11
61,104,0.3125,2,1,13480002,,,6,5
49,104,0.125,3,1,13480002,,,6,2
48,104,0.25,0,1,13490000,,,6,4
38,104,0.125,1,1,13490000,,,6,2
50,104,0.125,2,1,13490000,,,6,2
34,104,0.1875,3,1,13490000,,,6,3
46,104,0.125,4,1,13490000,,,6,2
46,104,0.3125,5,0,13490000,,,6,5
46,104,0.1875,6,0,13490000,,,6,3
46,104,0.25,7,0,13490000,,,6,4
60,104,0.9375,0,1,13500000,,,6,15
55,104,0.25,1,1,13500000,,,6,4
50,104,0.5625,2,0,13500000,,,6,9
50,104,0.875,3,0,13500000,,,6,14
57,104,0.5,4,1,13500000,,,6,8
53,104,0.4375,5,0,13500000,,,6,7
53,104,0.3125,6,0,13500000,,,6,5
53,104,0.1875,7,0,13500000,,,6,3
41,104,0.25,0,1,13500001,,,6,4
53,104,0.25,1,1,13500001,,,6,4
60,104,0.3125,2,1,13500001,,,6,5
69,104,0.4375,3,1,13500001,,,6,7
53,104,0.5,4,1,13500001,,,6,8
55,104,0.4375,5,0,13500001,,,6,7
36,104,0.1875,6,1,13500001,,,6,3
55,104,0.375,7,1,13500001,,,6,6
55,104,0.5,8,0,13500001,,,6,8
55,104,0.9375,9,0,13500001,,,6,15
55,104,0.1875,0,1,13500002,,,6,3
55,104,0.75,1,0,13500002,,,6,12
53,104,0.125,2,1,13500002,,,6,2
55,104,0.1875,3,0,13500002,,,6,3
32,104,0.4375,0,1,13510000,,,6,7
51,104,0.25,1,1,13510000,,,6,4
58,104,0.1875,2,1,13510000,,,6,3
34,104,0.3125,3,1,13510000,,,6,5
61,104,0.25,4,1,13510000,,,6,4
58,104,0.125,5,0,13510000,,,6,2
44,104,0.1875,6,1,13510000,,,6,3
30,104,0.625,7,1,13510000,,,6,10
30,104,0.625,8,0,13510000,,,6,10
56,104,0.25,9,1,13510000,,,6,4
37,104,0.1875,10,1,13510000,,,6,3
25,104,0.1875,11,1,13510000,,,6,3
37,104,0.375,12,1,13510000,,,6,6
25,104,0.1875,0,1,13510001,,,6,3
56,104,0.4375,1,1,13510001,,,6,7
56,104,0.25,2,0,13510001,,,6,4
61,104,0.1875,3,0,13510001,,,6,3
37,104,0.1875,4,1,13510001,,,6,3
63,104,0.25,5,1,13510001,,,6,4
32,104,0.625,6,1,13510001,,,6,10
32,104,0.625,7,0,13510001,,,6,10
56,104,0.375,8,1,13510001,,,6,6
50,104,0.75,0,1,13520000,,,6,12
50,104,0.3125,1,1,13520000,,,6,5
50,104,0.25,2,0,13520000,,,6,4
50,104,0.9375,3,0,13520000,,,6,15
57,104,0.5625,4,1,13520000,,,6,9
54,104,0.3125,5,0,13520000,,,6,5
66,104,0.625,6,1,13520000,,,6,10
47,104,0.5,7,1,13520000,,,6,8
47,104,0.1875,0,1,13520001,,,6,3
62,104,0.3125,1,1,13520001,,,6,5
52,104,0.375,2,1,13520001,,,6,6
52,104,0.4375,3,0,13520001,,,6,7
43,104,0.25,4,1,13520001,,,6,4
62,104,0.4375,5,1,13520001,,,6,7
42,104,0.0625,6,1,13520001,,,6,1
50,104,0.3125,0,1,13530000,,,6,5
58,104,0.625,1,1,13530000,,,6,10
50,104,0.25,2,1,13530000,,,6,4
44,104,0.6875,3,0,13530000,,,6,11
56,104,0.1875,4,1,13530000,,,6,3
56,104,0.4375,5,0,13530000,,,6,7
53,104,0.25,6,0,13530000,,,6,4
58,104,0.3125,7,0,13530000,,,6,5
50,104,0.5,8,1,13530000,,,6,8
50,104,0.25,9,0,13530000,,,6,4
58,104,0.1875,10,1,13530000,,,6,3
48,104,0.6875,0,1,13530001,,,6,11
43,104,0.25,0,1,13540000,,,6,4
29,104,0.3125,1,1,13540000,,,6,5
29,104,0.1875,2,0,13540000,,,6,3
29,104,0.375,3,0,13540000,,,6,6
49,104,0.875,4,1,13540000,,,6,14
37,104,0.1875,5,1,13540000,,,6,3
49,104,0.1875,6,1,13540000,,,6,3
39,104,0.9375,7,1,13540000,,,6,15
39,104,0.9375,8,1,13540000,,,6,15
63,104,0.625,0,1,13540001,,,6,10
57,104,0.125,0,1,13550000,,,6,2
45,104,0.25,1,1,13550000,,,6,4
45,104,0.375,2,0,13550000,,,6,6
45,104,0.25,3,0,13550000,,,6,4
46,104,0.3125,4,0,13550000,,,6,5
61,104,0.9375,5,1,13550000,,,6,15
61,104,0.1875,6,1,13550000,,,6,3
42,104,0.3125,7,1,13550000,,,6,5
49,104,0.375,8,1,13550000,,,6,6
61,104,0.3125,9,1,13550000,,,6,5
61,104,0.625,10,0,13550000,,,6,10
51,104,0.25,0,1,13550001,,,6,4
32,104,0.1875,1,1,13550001,,,6,3
60,104,0.375,2,1,13550001,,,6,6
60,104,0.375,3,0,13550001,,,6,6
60,104,0.1875,4,0,13550001,,,6,3
53,104,0.0625,5,1,13550001,,,6,1
64,104,0.4375,0,1,13560000,,,6,7
64,104,0.25,1,0,13560000,,,6,4
64,104,0.3125,2,0,13560000,,,6,5
64,104,0.25,3,0,13560000,,,6,4
52,104,0.125,4,1,13560000,,,6,2
52,104,0.8125,5,0,13560000,,,6,13
50,104,0.3125,6,1,13560000,,,6,5
60,104,0.5,7,1,13560000,,,6,8
57,104,0.9375,8,0,13560000,,,6,15
60,104,0.1875,9,1,13560000,,,6,3
62,104,0.4375,0,1,13560001,,,6,7
62,104,0.5,1,0,13560001,,,6,8
62,104,0.375,2,0,13560001,,,6,6
50,104,0.4375,3,1,13560001,,,6,7
62,104,0.8125,4,1,13560001,,,6,13
57,104,0.9375,0,1,13570000,,,6,15
57,104,0.1875,1,1,13570000,,,6,3
57,104,0.25,2,0,13570000,,,6,4
50,104,0.9375,3,1,13570000,,,6,15
38,104,0.1875,4,1,13570000,,,6,3
50,104,0.9375,5,1,13570000,,,6,15
31,104,0.3125,6,1,13570000,,,6,5
69,104,0.375,7,1,13570000,,,6,6
59,104,0.5,0,1,13570001,,,6,8
43,104,0.25,0,1,13580000,,,6,4
43,104,0.3125,1,0,13580000,,,6,5
57,104,0.6875,2,1,13580000,,,6,11
57,104,0.5625,3,0,13580000,,,6,9
50,104,0.375,4,1,13580000,,,6,6
69,104,0.1875,5,1,13580000,,,6,3
69,104,0.1875,6,0,13580000,,,6,3
57,104,0.25,7,1,13580000,,,6,4
69,104,0.125,8,1,13580000,,,6,2
57,104,0.9375,9,1,13580000,,,6,15
57,104,0.75,10,1,13580000,,,6,12
57,104,0.8125,0,1,13580001,,,6,13
52,104,0.25,1,1,13580001,,,6,4
52,104,0.1875,2,0,13580001,,,6,3
59,104,0.5625,3,1,13580001,,,6,9
59,104,0.375,4,0,13580001,,,6,6
52,104,0.125,5,1,13580001,,,6,2
59,104,0.1875,6,1,13580001,,,6,3
57,104,0.6875,0,1,13590000,,,6,11
62,104,0.25,1,0,13590000,,,6,4
62,104,0.4375,2,0,13590000,,,6,7
57,104,0.3125,3,0,13590000,,,6,5
62,104,0.5,4,0,13590000,,,6,8
62,104,0.1875,5,0,13590000,,,6,3
50,104,0.3125,6,1,13590000,,,6,5
36,104,0.625,7,1,13590000,,,6,10
60,104,0.1875,8,1,13590000,,,6,3
60,104,0.3125,9,0,13590000,,,6,5
60,104,0.1875,10,0,13590000,,,6,3
64,104,0.1875,0,1,13590001,,,6,3
64,104,0.3125,1,0,13590001,,,6,5
64,104,0.4375,2,0,13590001,,,6,7
52,104,0.1875,0,1,13600000,,,6,3
52,104,0.25,1,0,13600000,,,6,4
65,104,0.4375,2,1,13600000,,,6,7
53,104,0.875,3,1,13600000,,,6,14
53,104,0.375,4,1,13600000,,,6,6
59,104,0.25,5,0,13600000,,,6,4
54,104,0.6875,6,0,13600000,,,6,11
59,104,0.375,7,0,13600000,,,6,6
54,104,0.4375,8,0,13600000,,,6,7
54,104,0.375,9,0,13600000,,,6,6
54,104,0.4375,0,1,13600001,,,6,7
35,104,0.375,1,1,13600001,,,6,6
54,104,0.6875,2,1,13600001,,,6,11
59,104,0.375,3,0,13600001,,,6,6
62,104,0.3125,4,0,13600001,,,6,5
47,104,0.3125,5,1,13600001,,,6,5
57,104,0.3125,6,1,13600001,,,6,5
52,104,0.6875,7,0,13600001,,,6,11
59,104,0.4375,8,1,13600001,,,6,7
52,104,0.25,0,1,13600002,,,6,4
52,104,0.1875,1,0,13600002,,,6,3
43,104,0.5625,0,1,13610000,,,6,9
55,104,0.25,1,1,13610000,,,6,4
43,104,0.4375,2,1,13610000,,,6,7
59,104,0.75,3,1,13610000,,,6,12
55,104,0.25,4,1,13610000,,,6,4
55,104,0.25,5,0,13610000,,,6,4
55,104,0.1875,6,0,13610000,,,6,3
55,104,0.4375,7,0,13610000,,,6,7
59,104,0.875,8,0,13610000,,,6,14
55,104,0.375,0,1,13610001,,,6,6
57,104,0.9375,1,0,13610001,,,6,15
64,104,0.9375,2,1,13610001,,,6,15
57,104,0.1875,3,1,13610001,,,6,3
81,104,0.4375,4,1,13610001,,,6,7
57,104,0.375,5,1,13610001,,,6,6
57,104,0.25,6,0,13610001,,,6,4
55,104,0.8125,7,0,13610001,,,6,13
60,104,0.1875,0,1,13610002,,,6,3
48,104,0.1875,1,1,13610002,,,6,3
60,104,0.75,2,1,13610002,,,6,12
60,104,0.25,3,1,13610002,,,6,4
62,104,0.3125,4,0,13610002,,,6,5
50,104,0.9375,0,1,13620000,,,6,15
38,104,0.75,1,1,13620000,,,6,12
50,104,0.25,2,1,13620000,,,6,4
50,104,0.375,3,0,13620000,,,6,6
57,104,0.625,4,1,13620000,,,6,10
38,104,0.3125,5,1,13620000,,,6,5
50,104,0.375,6,1,13620000,,,6,6
38,104,0.1875,7,1,13620000,,,6,3
57,104,0.8125,8,1,13620000,,,6,13
45,104,0.9375,0,1,13620001,,,6,15
57,104,0.9375,1,1,13620001,,,6,15
57,104,0.3125,2,1,13620001,,,6,5
45,104,0.1875,3,1,13620001,,,6,3
57,104,0.5625,4,1,13620001,,,6,9
45,104,0.6875,5,1,13620001,,,6,11
49,104,0.3125,0,1,13620002,,,6,5
45,104,0.5625,0,1,13630000,,,6,9
57,104,0.3125,1,1,13630000,,,6,5
45,104,0.4375,2,1,13630000,,,6,7
57,104,0.4375,3,1,13630000,,,6,7
45,104,0.5625,4,1,13630000,,,6,9
45,104,0.375,5,0,13630000,,,6,6
64,104,0.5625,6,1,13630000,,,6,9
45,104,0.1875,7,1,13630000,,,6,3
59,104,0.4375,8,1,13630000,,,6,7
47,104,0.75,9,1,13630000,,,6,12
59,104,0.25,0,1,13630001,,,6,4
47,104,0.4375,1,1,13630001,,,6,7
59,104,0.25,2,1,13630001,,,6,4
47,104,0.75,3,1,13630001,,,6,12
35,104,0.4375,4,1,13630001,,,6,7
59,104,0.625,5,1,13630001,,,6,10
39,104,0.1875,0,1,13640000,,,6,3
51,104,0.375,1,1,13640000,,,6,6
39,104,0.625,2,1,13640000,,,6,10
58,104,0.8125,3,1,13640000,,,6,13
39,104,0.6875,4,1,13640000,,,6,11
51,104,0.9375,5,1,13640000,,,6,15
39,104,0.5,6,1,13640000,,,6,8
58,104,0.125,0,1,13640001,,,6,2
39,104,0.1875,1,1,13640001,,,6,3
58,104,0.9375,2,1,13640001,,,6,15
34,104,0.3125,3,1,13640001,,,6,5
70,104,0.4375,4,1,13640001,,,6,7
62,104,0.25,5,1,13640001,,,6,4
62,104,0.25,6,0,13640001,,,6,4
58,104,0.9375,7,0,13640001,,,6,15
70,104,0.4375,8,1,13640001,,,6,7
58,104,0.6875,0,1,13640002,,,6,11
58,104,0.6875,1,0,13640002,,,6,11
58,104,0.9375,2,0,13640002,,,6,15
70,104,0.1875,3,1,13640002,,,6,3
55,104,0.4375,4,1,13640002,,,6,7
60,104,0.1875,5,0,13640002,,,6,3
63,104,0.5,0,1,13650000,,,6,8
51,104,0.375,1,1,13650000,,,6,6
39,104,0.1875,2,1,13650000,,,6,3
58,104,0.125,3,1,13650000,,,6,2
51,104,0.25,4,1,13650000,,,6,4
39,104,0.375,5,1,13650000,,,6,6
63,104,0.25,6,1,13650000,,,6,4
51,104,0.3125,7,1,13650000,,,6,5
39,104,0.25,8,1,13650000,,,6,4
39,104,0.3125,9,0,13650000,,,6,5
63,104,0.375,10,1,13650000,,,6,6
43,104,0.25,11,1,13650000,,,6,4
58,104,0.25,12,1,13650000,,,6,4
43,104,0.1875,13,1,13650000,,,6,3
43,104,0.125,0,1,13650001,,,6,2
58,104,0.3125,1,1,13650001,,,6,5
43,104,0.3125,2,1,13650001,,,6,5
58,104,0.25,3,1,13650001,,,6,4
58,104,0.1875,4,0,13650001,,,6,3
57,104,0.1875,5,0,13650001,,,6,3
58,104,0.0625,6,0,13650001,,,6,1
54,104,0.9375,0,1,13660000,,,6,15
54,104,0.3125,1,1,13660000,,,6,5
54,104,0.3125,2,0,13660000,,,6,5
47,104,0.1875,3,1,13660000,,,6,3
47,104,0.3125,4,0,13660000,,,6,5
59,104,0.1875,5,1,13660000,,,6,3
61,104,0.4375,6,0,13660000,,,6,7
61,104,0.4375,7,0,13660000,,,6,7
42,104,0.25,8,1,13660000,,,6,4
59,104,0.25,9,1,13660000,,,6,4
66,104,0.1875,10,1,13660000,,,6,3
66,104,0.5625,11,0,13660000,,,6,9
59,104,0.6875,0,1,13660001,,,6,11
47,104,0.125,1,1,13660001,,,6,2
52,104,0.625,2,0,13660001,,,6,10
52,104,0.5625,3,0,13660001,,,6,9
47,104,0.1875,4,0,13660001,,,6,3
47,104,0.1875,5,0,13660001,,,6,3
55,104,0.5,0,1,13670000,,,6,8
57,104,0.1875,1,0,13670000,,,6,3
55,104,0.4375,2,0,13670000,,,6,7
55,104,0.9375,3,0,13670000,,,6,15
55,104,0.9375,4,1,13670000,,,6,15
55,104,0.9375,5,1,13670000,,,6,15
55,104,0.25,6,1,13670000,,,6,4
60,104,0.4375,0,1,13670001,,,6,7
55,104,0.9375,1,0,13670001,,,6,15
55,104,0.1875,2,1,13670001,,,6,3
59,104,0.1875,0,1,13680000,,,6,3
59,104,0.25,1,0,13680000,,,6,4
40,104,0.4375,2,1,13680000,,,6,7
62,104,0.125,3,1,13680000,,,6,2
50,104,0.9375,4,1,13680000,,,6,15
57,104,0.125,5,1,13680000,,,6,2
57,104,0.4375,6,0,13680000,,,6,7
59,104,0.375,7,0,13680000,,,6,6
40,104,0.4375,8,1,13680000,,,6,7
40,104,0.1875,9,0,13680000,,,6,3
64,104,0.25,10,1,13680000,,,6,4
61,104,0.875,11,0,13680000,,,6,14
59,104,0.1875,0,1,13680001,,,6,3
57,104,0.375,1,0,13680001,,,6,6
33,104,0.8125,2,1,13680001,,,6,13
59,104,0.75,3,1,13680001,,,6,12
61,104,0.1875,4,1,13680001,,,6,3
57,104,0.9375,5,0,13680001,,,6,15
46,104,0.9375,0,1,13690000,,,6,15
53,104,0.125,1,1,13690000,,,6,2
65,104,0.4375,2,1,13690000,,,6,7
53,104,0.125,3,1,13690000,,,6,2
65,104,0.25,4,1,13690000,,,6,4
57,104,0.4375,5,1,13690000,,,6,7
53,104,0.8125,6,0,13690000,,,6,13
65,104,0.625,7,1,13690000,,,6,10
57,104,0.5,8,1,13690000,,,6,8
57,104,0.5,0,1,13690001,,,6,8
60,104,0.9375,1,0,13690001,,,6,15
53,104,0.25,2,1,13690001,,,6,4
65,104,0.375,3,1,13690001,,,6,6
65,104,0.1875,4,0,13690001,,,6,3
50,104,0.875,5,1,13690001,,,6,14
53,104,0.1875,6,1,13690001,,,6,3
65,104,0.375,7,1,13690001,,,6,6
46,104,0.25,0,1,13700000,,,6,4
63,104,0.3125,1,1,13700000,,,6,5
51,104,0.25,2,1,13700000,,,6,4
63,104,0.25,3,1,13700000,,,6,4
58,104,0.1875,4,0,13700000,,,6,3
63,104,0.1875,5,0,13700000,,,6,3
51,104,0.1875,6,1,13700000,,,6,3
63,104,0.125,7,1,13700000,,,6,2
53,104,0.3125,8,1,13700000,,,6,5
58,104,0.625,9,0,13700000,,,6,10
58,104,0.3125,10,0,13700000,,,6,5
53,104,0.1875,11,0,13700000,,,6,3
53,104,0.3125,12,0,13700000,,,6,5
55,104,0.25,13,0,13700000,,,6,4
59,104,0.75,14,0,13700000,,,6,12
55,104,0.75,0,1,13700001,,,6,12
55,104,0.3125,1,1,13700001,,,6,5
63,104,0.1875,2,1,13700001,,,6,3
55,104,0.25,3,1,13700001,,,6,4
58,104,0.25,4,0,13700001,,,6,4
51,104,0.6875,5,1,13700001,,,6,11
50,104,0.25,0,1,13710000,,,6,4
50,104,0.9375,1,0,13710000,,,6,15
50,104,0.9375,2,1,13710000,,,6,15
50,104,0.125,3,1,13710000,,,6,2
67,104,0.5,4,1,13710000,,,6,8
67,104,0.125,5,0,13710000,,,6,2
67,104,0.125,6,0,13710000,,,6,2
47,104,0.25,7,1,13710000,,,6,4
60,104,0.625,8,1,13710000,,,6,10
31,104,0.125,9,1,13710000,,,6,2
24,104,0.125,0,1,13710001,,,6,2
52,104,0.1875,1,1,13710001,,,6,3
52,104,0.25,2,0,13710001,,,6,4
53,104,0.9375,3,0,13710001,,,6,15
60,104,0.25,0,1,13720000,,,6,4
46,104,0.6875,1,1,13720000,,,6,11
34,104,0.25,2,1,13720000,,,6,4
34,104,0.375,3,0,13720000,,,6,6
60,104,0.375,4,1,13720000,,,6,6
60,104,0.6875,5,0,13720000,,,6,11
60,104,0.8125,6,0,13720000,,,6,13
55,104,0.3125,7,1,13720000,,,6,5
53,104,0.9375,8,0,13720000,,,6,15
53,104,0.375,0,1,13720001,,,6,6
53,104,0.125,1,0,13720001,,,6,2
41,104,0.25,2,1,13720001,,,6,4
60,104,0.625,3,1,13720001,,,6,10
57,104,0.25,4,0,13720001,,,6,4
62,104,0.5,5,0,13720001,,,6,8
41,104,0.3125,6,1,13720001,,,6,5
53,104,0.1875,7,1,13720001,,,6,3
41,104,0.1875,8,1,13720001,,,6,3
60,104,0.9375,9,1,13720001,,,6,15
57,104,0.9375,0,1,13720002,,,6,15
48,104,0.25,1,1,13720002,,,6,4
48,104,0.25,2,0,13720002,,,6,4
57,104,0.875,0,1,13730000,,,6,14
33,104,0.1875,1,1,13730000,,,6,3
49,104,0.3125,2,1,13730000,,,6,5
61,104,0.5625,3,1,13730000,,,6,9
49,104,0.5625,4,1,13730000,,,6,9
61,104,0.3125,5,1,13730000,,,6,5
49,104,0.4375,6,1,13730000,,,6,7
52,104,0.875,7,0,13730000,,,6,14
40,104,0.1875,0,1,13730001,,,6,3
52,104,0.4375,1,1,13730001,,,6,7
52,104,0.3125,2,0,13730001,,,6,5
52,104,0.1875,3,0,13730001,,,6,3
35,104,0.3125,4,1,13730001,,,6,5
35,104,0.1875,5,0,13730001,,,6,3
59,104,0.3125,6,1,13730001,,,6,5
57,104,0.3125,7,0,13730001,,,6,5
45,104,0.3125,8,1,13730001,,,6,5
57,104,0.5,9,1,13730001,,,6,8
57,104,0.875,10,0,13730001,,,6,14
61,104,0.375,0,1,13730002,,,6,6
32,104,0.25,0,1,13740000,,,6,4
32,104,0.1875,1,0,13740000,,,6,3
44,104,0.4375,2,1,13740000,,,6,7
32,104,0.8125,3,1,13740000,,,6,13
32,104,0.3125,4,1,13740000,,,6,5
46,104,0.625,5,1,13740000,,,6,10
46,104,0.125,6,0,13740000,,,6,2
43,104,0.1875,7,0,13740000,,,6,3
60,104,0.125,0,1,13750000,,,6,2
56,104,0.3125,1,0,13750000,,,6,5
60,104,0.125,2,0,13750000,,,6,2
57,104,0.25,3,0,13750000,,,6,4
52,104,0.4375,4,0,13750000,,,6,7
52,104,0.5,5,0,13750000,,,6,8
45,104,0.1875,6,1,13750000,,,6,3
55,104,0.375,7,1,13750000,,,6,6
57,104,0.125,8,0,13750000,,,6,2
57,104,0.5625,9,0,13750000,,,6,9
57,104,0.25,10,0,13750000,,,6,4
57,104,0.25,11,0,13750000,,,6,4
57,104,0.1875,12,0,13750000,,,6,3
38,104,0.375,13,1,13750000,,,6,6
57,104,0.875,0,1,13750001,,,6,14
56,104,0.125,1,1,13750001,,,6,2
60,104,0.1875,2,0,13750001,,,6,3
55,104,0.125,3,0,13750001,,,6,2
55,104,0.1875,4,0,13750001,,,6,3
33,104,0.625,0,1,13760000,,,6,10
45,104,0.75,1,1,13760000,,,6,12
33,104,0.5625,2,1,13760000,,,6,9
56,104,0.5625,3,1,13760000,,,6,9
56,104,0.125,4,0,13760000,,,6,2
56,104,0.3125,5,0,13760000,,,6,5
28,104,0.3125,6,1,13760000,,,6,5
45,104,0.5,7,1,13760000,,,6,8
45,104,0.375,8,0,13760000,,,6,6
45,104,0.75,0,1,13760001,,,6,12
45,104,0.9375,1,1,13760001,,,6,15
45,104,0.375,2,1,13760001,,,6,6
47,104,0.8125,3,0,13760001,,,6,13
47,104,0.9375,4,1,13760001,,,6,15
47,104,0.6875,5,1,13760001,,,6,11
47,104,0.4375,0,1,13760002,,,6,7
50,104,0.1875,1,0,13760002,,,6,3
50,104,0.875,2,0,13760002,,,6,14
50,104,0.5625,3,1,13760002,,,6,9
50,104,0.0625,4,0,13760002,,,6,1
50,104,0.9375,0,1,13770000,,,6,15
50,104,0.1875,1,1,13770000,,,6,3
38,104,0.3125,2,1,13770000,,,6,5
38,104,0.1875,3,0,13770000,,,6,3
50,104,0.3125,4,1,13770000,,,6,5
57,104,0.3125,5,1,13770000,,,6,5
69,104,0.1875,6,1,13770000,,,6,3
50,104,0.5,7,1,13770000,,,6,8
57,104,0.1875,8,1,13770000,,,6,3
52,104,0.6875,9,0,13770000,,,6,11
52,104,0.3125,10,0,13770000,,,6,5
59,104,0.25,0,1,13770001,,,6,4
57,104,0.3125,1,0,13770001,,,6,5
45,104,0.25,2,1,13770001,,,6,4
57,104,0.25,3,1,13770001,,,6,4
64,104,0.5,4,1,13770001,,,6,8
57,104,0.9375,5,1,13770001,,,6,15
57,104,0.4375,6,1,13770001,,,6,7
64,104,0.6875,7,1,13770001,,,6,11
57,104,0.5,8,1,13770001,,,6,8
33,104,0.1875,0,1,13770002,,,6,3
57,104,0.25,1,1,13770002,,,6,4
50,104,0.4375,2,1,13770002,,,6,7
38,104,0.25,3,1,13770002,,,6,4
38,104,0.5,4,0,13770002,,,6,8
50,104,0.0625,5,1,13770002,,,6,1
48,104,0.5625,0,1,13780000,,,6,9
48,104,0.125,1,0,13780000,,,6,2
53,104,0.5625,2,0,13780000,,,6,9
41,104,0.125,3,1,13780000,,,6,2
53,104,0.125,4,1,13780000,,,6,2
53,104,0.5,5,0,13780000,,,6,8
53,104,0.1875,6,0,13780000,,,6,3
34,104,0.25,7,1,13780000,,,6,4
34,104,0.4375,8,0,13780000,,,6,7
34,104,0.1875,9,0,13780000,,,6,3
48,104,0.1875,10,1,13780000,,,6,3
36,104,0.6875,0,1,13790000,,,6,11
59,104,0.3125,1,1,13790000,,,6,5
57,104,0.3125,2,0,13790000,,,6,5
57,104,0.3125,3,0,13790000,,,6,5
57,104,0.125,4,0,13790000,,,6,2
57,104,0.3125,5,0,13790000,,,6,5
57,104,0.1875,6,0,13790000,,,6,3
59,104,0.125,7,0,13790000,,,6,2
45,104,0.9375,8,1,13790000,,,6,15
33,104,0.75,9,1,13790000,,,6,12
47,104,0.1875,0,1,13790001,,,6,3
