pitch,velocity,duration,pos,boundary,bar,instrument,velocity_bucket,duration_bucket
44,100,0.1,197,1,6,_Guitar,-1,-1
58,100,0.17727272727272728,273,0,6,_Guitar,-1,-1
44,100,0.32272727272727275,421,0,6,_Guitar,-1,-1
58,100,0.13636363636363635,590,0,6,_Guitar,-1,-1
44,100,0.21818181818181817,647,0,6,_Guitar,-1,-1
58,100,0.2,40,1,7,_Guitar,-1,-1
56,100,0.12272727272727273,268,1,7,_Guitar,-1,-1
58,100,0.5181818181818182,360,0,7,_Guitar,-1,-1
44,100,0.11818181818181818,514,0,7,_Guitar,-1,-1
44,100,0.12272727272727273,554,0,7,_Guitar,-1,-1
44,100,0.12272727272727273,598,0,7,_Guitar,-1,-1
58,100,0.1409090909090909,685,0,7,_Guitar,-1,-1
43,100,0.1,65,1,8,_Guitar,-1,-1
58,100,0.2590909090909091,123,0,8,_Guitar,-1,-1
58,100,0.3181818181818182,440,1,8,_Guitar,-1,-1
58,100,0.5409090909090909,752,1,8,_Guitar,-1,-1
44,100,0.22272727272727272,123,1,9,_Guitar,-1,-1
58,100,0.6181818181818182,185,0,9,_Guitar,-1,-1
44,100,0.3409090909090909,355,0,9,_Guitar,-1,-1
58,100,0.5,524,0,9,_Guitar,-1,-1
58,100,0.18181818181818182,857,1,9,_Guitar,-1,-1
58,100,0.1,25,1,10,_Guitar,-1,-1
58,100,0.5227272727272727,290,1,10,_Guitar,-1,-1
44,100,0.11818181818181818,527,1,10,_Guitar,-1,-1
44,100,0.11818181818181818,558,0,10,_Guitar,-1,-1
58,100,0.5,625,0,10,_Guitar,-1,-1
58,100,0.11818181818181818,53,1,11,_Guitar,-1,-1
58,100,0.6,374,1,11,_Guitar,-1,-1
58,100,0.5590909090909091,682,1,11,_Guitar,-1,-1
44,100,0.6409090909090909,845,0,11,_Guitar,-1,-1
44,100,0.1,197,1,12,_Guitar,-1,-1
46,100,0.32272727272727275,642,1,12,_Guitar,-1,-1
46,100,0.11818181818181818,725,0,12,_Guitar,-1,-1
58,100,0.38181818181818183,792,0,12,_Guitar,-1,-1
44,100,0.21818181818181817,61,1,13,_Guitar,-1,-1
56,100,0.18181818181818182,135,0,13,_Guitar,-1,-1
58,100,0.5772727272727273,216,0,13,_Guitar,-1,-1
44,100,0.1,426,1,13,_Guitar,-1,-1
44,100,0.11818181818181818,457,0,13,_Guitar,-1,-1
44,100,0.12272727272727273,488,0,13,_Guitar,-1,-1
58,100,0.5181818181818182,550,0,13,_Guitar,-1,-1
58,100,0.3409090909090909,871,1,13,_Guitar,-1,-1
58,100,0.1,312,1,14,_Guitar,-1,-1
58,100,0.21818181818181817,338,0,14,_Guitar,-1,-1
43,100,0.1409090909090909,493,0,14,_Guitar,-1,-1
43,100,0.12272727272727273,575,0,14,_Guitar,-1,-1
58,100,0.2818181818181818,637,0,14,_Guitar,-1,-1
63,100,0.18181818181818182,817,1,74,_Guitar,-1,-1
55,100,0.11818181818181818,457,1,75,_Guitar,-1,-1
63,100,0.12272727272727273,597,0,75,_Guitar,-1,-1
63,100,0.2818181818181818,637,0,75,_Guitar,-1,-1
63,100,0.2409090909090909,729,0,75,_Guitar,-1,-1
55,100,0.1,17,1,77,_Guitar,-1,-1
63,100,0.8409090909090909,163,0,77,_Guitar,-1,-1
63,100,0.18181818181818182,352,0,77,_Guitar,-1,-1
56,100,0.2,669,1,77,_Guitar,-1,-1
44,100,0.5590909090909091,734,0,77,_Guitar,-1,-1
63,100,0.4,857,0,77,_Guitar,-1,-1
44,100,0.4409090909090909,92,1,78,_Guitar,-1,-1
56,100,0.2590909090909091,189,0,78,_Guitar,-1,-1
44,100,0.21818181818181817,273,0,78,_Guitar,-1,-1
55,100,0.1409090909090909,426,0,78,_Guitar,-1,-1
58,100,0.3181818181818182,660,1,78,_Guitar,-1,-1
58,100,0.1409090909090909,294,1,79,_Guitar,-1,-1
58,100,0.2,360,0,79,_Guitar,-1,-1
58,100,0.2,514,0,79,_Guitar,-1,-1
63,100,1.3,9,1,80,_Guitar,-1,-1
58,100,0.12272727272727273,299,1,80,_Guitar,-1,-1
63,100,0.6590909090909091,343,0,80,_Guitar,-1,-1
53,100,1.7227272727272727,663,1,80,_Guitar,-1,-1
63,100,0.2,527,1,81,_Guitar,-1,-1
44,100,0.1409090909090909,686,0,81,_Guitar,-1,-1
56,100,0.3181818181818182,743,0,81,_Guitar,-1,-1
58,100,0.42272727272727273,826,0,81,_Guitar,-1,-1
58,100,0.18181818181818182,56,1,82,_Guitar,-1,-1
53,100,0.4,286,1,82,_Guitar,-1,-1
58,100,0.18181818181818182,399,1,83,_Guitar,-1,-1
55,100,0.1409090909090909,619,1,83,_Guitar,-1,-1
55,100,0.11818181818181818,690,0,83,_Guitar,-1,-1
58,100,0.21818181818181817,83,1,84,_Guitar,-1,-1
58,100,0.6818181818181818,197,0,84,_Guitar,-1,-1
55,100,0.2,373,0,84,_Guitar,-1,-1
58,100,0.1409090909090909,422,0,84,_Guitar,-1,-1
58,100,0.1,567,0,84,_Guitar,-1,-1
58,100,0.18181818181818182,312,1,85,_Guitar,-1,-1
58,100,0.3,462,0,85,_Guitar,-1,-1
55,100,0.1590909090909091,536,0,85,_Guitar,-1,-1
58,100,0.21818181818181817,703,0,85,_Guitar,-1,-1
58,100,0.2590909090909091,74,1,86,_Guitar,-1,-1
55,100,0.12272727272727273,509,1,86,_Guitar,-1,-1
63,100,0.21818181818181817,550,0,86,_Guitar,-1,-1
58,100,0.13636363636363635,876,1,86,_Guitar,-1,-1
55,100,0.17727272727272728,119,1,87,_Guitar,-1,-1
55,100,0.17727272727272728,184,0,87,_Guitar,-1,-1
58,100,0.18181818181818182,399,1,87,_Guitar,-1,-1
58,100,0.5,66,1,88,_Guitar,-1,-1
62,100,0.21818181818181817,176,0,88,_Guitar,-1,-1
58,100,0.2772727272727273,237,0,88,_Guitar,-1,-1
58,100,0.1590909090909091,409,0,88,_Guitar,-1,-1
55,100,0.12272727272727273,475,0,88,_Guitar,-1,-1
58,100,0.2,650,0,88,_Guitar,-1,-1
58,100,0.13636363636363635,106,1,89,_Guitar,-1,-1
48,100,0.8590909090909091,409,1,0,DL_Guitar,-1,-1
48,100,0.4,686,1,0,DL_Guitar,-1,-1
48,100,1.8227272727272728,827,0,0,DL_Guitar,-1,-1
60,100,0.33636363636363636,348,1,1,DL_Guitar,-1,-1
55,100,0.1409090909090909,431,0,1,DL_Guitar,-1,-1
60,100,0.1,487,0,1,DL_Guitar,-1,-1
52,100,0.2,590,0,1,DL_Guitar,-1,-1
43,100,0.9,651,0,1,DL_Guitar,-1,-1
55,100,0.38181818181818183,849,1,1,DL_Guitar,-1,-1
50,100,0.2818181818181818,113,1,2,DL_Guitar,-1,-1
50,100,0.37727272727272726,691,1,2,DL_Guitar,-1,-1
50,100,0.2818181818181818,813,0,2,DL_Guitar,-1,-1
41,100,0.6227272727272727,26,1,3,DL_Guitar,-1,-1
41,100,1.0818181818181818,443,1,3,DL_Guitar,-1,-1
53,100,0.11818181818181818,712,1,3,DL_Guitar,-1,-1
41,100,0.21818181818181817,788,0,3,DL_Guitar,-1,-1
53,100,0.1409090909090909,74,1,4,DL_Guitar,-1,-1
55,100,0.3,114,0,4,DL_Guitar,-1,-1
48,100,0.759090909090909,260,0,4,DL_Guitar,-1,-1
48,100,0.1590909090909091,440,0,4,DL_Guitar,-1,-1
48,100,0.2,550,0,4,DL_Guitar,-1,-1
60,100,0.37727272727272726,678,0,4,DL_Guitar,-1,-1
48,100,1.481818181818182,761,0,4,DL_Guitar,-1,-1
60,100,0.3181818181818182,220,1,5,DL_Guitar,-1,-1
60,100,0.1409090909090909,311,0,5,DL_Guitar,-1,-1
57,100,0.3,360,0,5,DL_Guitar,-1,-1
55,100,0.2,431,0,5,DL_Guitar,-1,-1
50,100,0.2,651,1,5,DL_Guitar,-1,-1
55,100,0.2409090909090909,716,0,5,DL_Guitar,-1,-1
55,100,0.3409090909090909,774,0,5,DL_Guitar,-1,-1
50,100,1.2,40,1,6,DL_Guitar,-1,-1
50,100,0.6818181818181818,307,1,6,DL_Guitar,-1,-1
55,100,0.6227272727272727,465,0,6,DL_Guitar,-1,-1
57,100,0.3409090909090909,606,0,6,DL_Guitar,-1,-1
48,100,0.8227272727272728,739,0,6,DL_Guitar,-1,-1
60,100,0.1,40,1,7,DL_Guitar,-1,-1
55,100,0.2818181818181818,79,0,7,DL_Guitar,-1,-1
50,100,1.8590909090909091,281,1,7,DL_Guitar,-1,-1
59,100,0.4818181818181818,703,1,7,DL_Guitar,-1,-1
55,100,0.2772727272727273,844,0,7,DL_Guitar,-1,-1
48,100,0.9590909090909091,118,1,8,DL_Guitar,-1,-1
55,100,0.3,333,1,8,DL_Guitar,-1,-1
55,100,0.17727272727272728,470,0,8,DL_Guitar,-1,-1
54,100,0.1,656,0,8,DL_Guitar,-1,-1
48,100,1.0,708,0,8,DL_Guitar,-1,-1
60,100,0.1409090909090909,65,1,9,DL_Guitar,-1,-1
60,100,0.2818181818181818,135,0,9,DL_Guitar,-1,-1
57,100,0.3409090909090909,211,0,9,DL_Guitar,-1,-1
43,100,0.6818181818181818,355,0,9,DL_Guitar,-1,-1
43,100,0.17727272727272728,589,1,9,DL_Guitar,-1,-1
50,100,0.18181818181818182,651,0,9,DL_Guitar,-1,-1
43,100,0.9772727272727273,778,0,9,DL_Guitar,-1,-1
50,100,0.1,391,1,10,DL_Guitar,-1,-1
50,100,0.1,417,0,10,DL_Guitar,-1,-1
50,100,0.1409090909090909,465,0,10,DL_Guitar,-1,-1
48,100,0.3,611,0,10,DL_Guitar,-1,-1
60,100,0.2,677,0,10,DL_Guitar,-1,-1
55,100,0.4818181818181818,818,0,10,DL_Guitar,-1,-1
50,100,0.6409090909090909,140,1,11,DL_Guitar,-1,-1
50,100,0.1590909090909091,295,0,11,DL_Guitar,-1,-1
54,100,0.2818181818181818,355,0,11,DL_Guitar,-1,-1
50,100,0.6409090909090909,426,0,11,DL_Guitar,-1,-1
50,100,0.4409090909090909,594,0,11,DL_Guitar,-1,-1
50,100,0.4636363636363636,708,0,11,DL_Guitar,-1,-1
47,100,0.4590909090909091,876,0,11,DL_Guitar,-1,-1
55,100,0.3,180,1,12,DL_Guitar,-1,-1
55,100,0.2,250,0,12,DL_Guitar,-1,-1
52,100,0.7181818181818181,360,0,12,DL_Guitar,-1,-1
55,100,0.2818181818181818,527,0,12,DL_Guitar,-1,-1
57,100,0.6,594,0,12,DL_Guitar,-1,-1
52,100,0.3,739,0,12,DL_Guitar,-1,-1
55,100,0.9409090909090909,804,0,12,DL_Guitar,-1,-1
52,100,0.3,140,1,13,DL_Guitar,-1,-1
55,100,1.2818181818181817,211,0,13,DL_Guitar,-1,-1
55,100,0.1409090909090909,505,1,13,DL_Guitar,-1,-1
50,100,0.41818181818181815,634,0,13,DL_Guitar,-1,-1
60,100,0.1590909090909091,783,0,13,DL_Guitar,-1,-1
50,100,0.38181818181818183,25,1,14,DL_Guitar,-1,-1
54,100,0.21818181818181817,175,0,14,DL_Guitar,-1,-1
50,100,0.18181818181818182,264,0,14,DL_Guitar,-1,-1
62,100,0.1,338,0,14,DL_Guitar,-1,-1
52,100,0.4409090909090909,448,0,14,DL_Guitar,-1,-1
52,100,0.3409090909090909,584,0,14,DL_Guitar,-1,-1
59,100,0.6,663,0,14,DL_Guitar,-1,-1
50,100,1.9,871,1,14,DL_Guitar,-1,-1
57,100,0.32272727272727275,409,1,15,DL_Guitar,-1,-1
59,100,0.3181818181818182,479,0,15,DL_Guitar,-1,-1
50,100,0.2,567,0,15,DL_Guitar,-1,-1
48,100,1.0227272727272727,694,0,15,DL_Guitar,-1,-1
48,100,0.2,92,1,16,DL_Guitar,-1,-1
48,100,0.13636363636363635,171,0,16,DL_Guitar,-1,-1
50,100,1.959090909090909,220,0,16,DL_Guitar,-1,-1
57,100,0.3,656,1,16,DL_Guitar,-1,-1
59,100,0.33636363636363636,721,0,16,DL_Guitar,-1,-1
50,100,0.5363636363636364,810,0,16,DL_Guitar,-1,-1
43,100,0.5818181818181818,57,1,17,DL_Guitar,-1,-1
55,100,0.1409090909090909,268,1,17,DL_Guitar,-1,-1
57,100,0.6,343,0,17,DL_Guitar,-1,-1
59,100,0.6,480,0,17,DL_Guitar,-1,-1
62,100,0.4,611,0,17,DL_Guitar,-1,-1
50,100,0.1590909090909091,700,0,17,DL_Guitar,-1,-1
62,100,0.1409090909090909,804,0,17,DL_Guitar,-1,-1
62,100,0.18181818181818182,870,0,17,DL_Guitar,-1,-1
55,100,0.1590909090909091,119,1,18,DL_Guitar,-1,-1
62,100,0.21818181818181817,237,0,18,DL_Guitar,-1,-1
55,100,0.3,356,0,18,DL_Guitar,-1,-1
55,100,0.8409090909090909,540,1,19,DL_Guitar,-1,-1
50,100,0.2,801,1,19,DL_Guitar,-1,-1
50,100,0.3181818181818182,9,1,20,DL_Guitar,-1,-1
50,100,0.1590909090909091,150,0,20,DL_Guitar,-1,-1
62,100,0.6636363636363637,223,0,20,DL_Guitar,-1,-1
57,100,0.2772727272727273,413,0,20,DL_Guitar,-1,-1
62,100,0.1409090909090909,474,0,20,DL_Guitar,-1,-1
50,100,0.8181818181818182,505,0,20,DL_Guitar,-1,-1
62,100,0.1409090909090909,686,0,20,DL_Guitar,-1,-1
55,100,0.3,725,0,20,DL_Guitar,-1,-1
52,100,0.5409090909090909,814,0,20,DL_Guitar,-1,-1
55,100,0.6409090909090909,57,1,21,DL_Guitar,-1,-1
55,100,0.18181818181818182,289,1,21,DL_Guitar,-1,-1
55,100,0.38181818181818183,333,0,21,DL_Guitar,-1,-1
55,100,0.1409090909090909,426,0,21,DL_Guitar,-1,-1
55,100,0.12272727272727273,466,0,21,DL_Guitar,-1,-1
54,100,0.11818181818181818,756,1,21,DL_Guitar,-1,-1
62,100,0.1,787,0,21,DL_Guitar,-1,-1
54,100,0.2590909090909091,810,0,21,DL_Guitar,-1,-1
55,100,0.3181818181818182,83,1,22,DL_Guitar,-1,-1
55,100,0.4,440,1,22,DL_Guitar,-1,-1
55,100,0.2818181818181818,642,1,22,DL_Guitar,-1,-1
50,100,0.6,712,0,22,DL_Guitar,-1,-1
62,100,0.1,21,1,23,DL_Guitar,-1,-1
50,100,0.740909090909091,44,0,23,DL_Guitar,-1,-1
62,100,0.1,237,0,23,DL_Guitar,-1,-1
50,100,0.2590909090909091,260,0,23,DL_Guitar,-1,-1
55,100,0.3409090909090909,330,0,23,DL_Guitar,-1,-1
64,100,0.5772727272727273,426,0,23,DL_Guitar,-1,-1
55,100,0.2409090909090909,752,1,23,DL_Guitar,-1,-1
52,100,0.5,814,0,23,DL_Guitar,-1,-1
50,100,0.6818181818181818,69,1,24,DL_Guitar,-1,-1
62,100,0.2,220,0,24,DL_Guitar,-1,-1
50,100,0.3181818181818182,281,0,24,DL_Guitar,-1,-1
50,100,0.7772727272727272,391,0,24,DL_Guitar,-1,-1
55,100,0.2772727272727273,567,0,24,DL_Guitar,-1,-1
55,100,0.3,642,0,24,DL_Guitar,-1,-1
50,100,0.11818181818181818,770,0,24,DL_Guitar,-1,-1
62,100,0.5227272727272727,796,0,24,DL_Guitar,-1,-1
55,100,0.6,44,1,25,DL_Guitar,-1,-1
62,100,0.32272727272727275,179,0,25,DL_Guitar,-1,-1
50,100,0.1409090909090909,250,0,25,DL_Guitar,-1,-1
50,100,1.8363636363636364,326,0,25,DL_Guitar,-1,-1
50,100,0.6,739,1,25,DL_Guitar,-1,-1
64,100,0.2818181818181818,3,1,26,DL_Guitar,-1,-1
52,100,0.3181818181818182,75,0,26,DL_Guitar,-1,-1
55,100,0.5590909090909091,144,0,26,DL_Guitar,-1,-1
55,100,1.1,281,0,26,DL_Guitar,-1,-1
54,100,0.1,540,1,26,DL_Guitar,-1,-1
54,100,0.11818181818181818,602,0,26,DL_Guitar,-1,-1
54,100,0.6409090909090909,691,0,26,DL_Guitar,-1,-1
62,100,0.1409090909090909,862,0,26,DL_Guitar,-1,-1
62,100,0.43636363636363634,17,1,27,DL_Guitar,-1,-1
54,100,0.22272727272727272,113,0,27,DL_Guitar,-1,-1
55,100,0.41818181818181815,162,0,27,DL_Guitar,-1,-1
48,100,0.5,268,0,27,DL_Guitar,-1,-1
55,100,0.5181818181818182,413,0,27,DL_Guitar,-1,-1
55,100,0.11818181818181818,756,1,27,DL_Guitar,-1,-1
50,100,0.6,804,0,27,DL_Guitar,-1,-1
50,100,0.4590909090909091,65,1,28,DL_Guitar,-1,-1
62,100,0.12272727272727273,179,0,28,DL_Guitar,-1,-1
50,100,0.5772727272727273,206,0,28,DL_Guitar,-1,-1
50,100,0.3,351,0,28,DL_Guitar,-1,-1
55,100,1.4181818181818182,418,0,28,DL_Guitar,-1,-1
50,100,1.1590909090909092,30,1,29,DL_Guitar,-1,-1
62,100,0.1,285,1,29,DL_Guitar,-1,-1
55,100,0.6409090909090909,316,1,40,DL_Guitar,-1,-1
48,100,0.5,461,0,40,DL_Guitar,-1,-1
50,100,1.0818181818181818,606,0,40,DL_Guitar,-1,-1
50,100,0.12272727272727273,848,1,40,DL_Guitar,-1,-1
50,100,0.6818181818181818,0,1,41,DL_Guitar,-1,-1
62,100,0.5818181818181818,153,0,41,DL_Guitar,-1,-1
52,100,1.2,286,0,41,DL_Guitar,-1,-1
52,100,0.18181818181818182,619,1,41,DL_Guitar,-1,-1
52,100,0.4818181818181818,664,0,41,DL_Guitar,-1,-1
50,100,0.2590909090909091,778,0,41,DL_Guitar,-1,-1
47,100,0.1,43,1,42,DL_Guitar,-1,-1
47,100,0.1409090909090909,228,0,42,DL_Guitar,-1,-1
55,100,0.35909090909090907,343,1,43,DL_Guitar,-1,-1
55,100,0.5227272727272727,453,0,43,DL_Guitar,-1,-1
62,100,0.5409090909090909,641,0,43,DL_Guitar,-1,-1
50,100,1.3181818181818181,765,0,43,DL_Guitar,-1,-1
57,100,0.1409090909090909,251,1,44,DL_Guitar,-1,-1
50,100,0.37727272727272726,370,0,44,DL_Guitar,-1,-1
50,100,0.13636363636363635,523,0,44,DL_Guitar,-1,-1
59,100,0.12272727272727273,254,1,45,DL_Guitar,-1,-1
55,100,0.5181818181818182,303,0,45,DL_Guitar,-1,-1
62,100,0.2409090909090909,641,1,45,DL_Guitar,-1,-1
50,100,2.481818181818182,694,0,45,DL_Guitar,-1,-1
52,100,1.9181818181818182,383,1,46,DL_Guitar,-1,-1
62,100,0.1409090909090909,21,1,47,DL_Guitar,-1,-1
55,100,0.17727272727272728,348,1,47,DL_Guitar,-1,-1
55,100,1.018181818181818,391,0,47,DL_Guitar,-1,-1
48,100,0.1,716,1,47,DL_Guitar,-1,-1
60,100,0.1590909090909091,813,0,47,DL_Guitar,-1,-1
48,100,0.6227272727272727,26,1,48,DL_Guitar,-1,-1
62,100,0.23636363636363636,238,1,48,DL_Guitar,-1,-1
50,100,2.6,298,0,48,DL_Guitar,-1,-1
62,100,0.4,871,1,48,DL_Guitar,-1,-1
62,100,1.6,101,1,49,DL_Guitar,-1,-1
43,100,0.4590909090909091,550,1,49,DL_Guitar,-1,-1
43,100,0.11818181818181818,700,0,49,DL_Guitar,-1,-1
43,100,0.2,748,0,49,DL_Guitar,-1,-1
62,100,0.18181818181818182,791,0,49,DL_Guitar,-1,-1
43,100,0.21818181818181817,831,0,49,DL_Guitar,-1,-1
62,100,1.040909090909091,0,1,50,DL_Guitar,-1,-1
62,100,0.1,43,1,77,DL_Guitar,-1,-1
43,100,0.38181818181818183,66,0,77,DL_Guitar,-1,-1
62,100,0.35909090909090907,150,0,77,DL_Guitar,-1,-1
43,100,0.4590909090909091,237,0,77,DL_Guitar,-1,-1
55,100,0.11818181818181818,360,0,77,DL_Guitar,-1,-1
55,100,0.17727272727272728,392,0,77,DL_Guitar,-1,-1
62,100,0.3409090909090909,690,1,77,DL_Guitar,-1,-1
62,100,0.32272727272727275,69,1,78,DL_Guitar,-1,-1
62,100,0.16363636363636364,422,1,78,DL_Guitar,-1,-1
55,100,0.4590909090909091,475,0,78,DL_Guitar,-1,-1
55,100,0.5227272727272727,597,0,78,DL_Guitar,-1,-1
55,100,0.1590909090909091,22,1,79,DL_Guitar,-1,-1
52,100,0.13636363636363635,62,0,79,DL_Guitar,-1,-1
55,100,0.759090909090909,110,0,79,DL_Guitar,-1,-1
55,100,0.5,286,0,79,DL_Guitar,-1,-1
55,100,0.2772727272727273,480,0,79,DL_Guitar,-1,-1
43,100,0.740909090909091,559,0,79,DL_Guitar,-1,-1
43,100,0.18181818181818182,739,0,79,DL_Guitar,-1,-1
43,100,0.1590909090909091,783,0,79,DL_Guitar,-1,-1
55,100,0.2636363636363636,839,0,79,DL_Guitar,-1,-1
43,100,0.13636363636363635,17,1,80,DL_Guitar,-1,-1
55,100,0.16363636363636364,47,0,80,DL_Guitar,-1,-1
62,100,0.9409090909090909,233,0,80,DL_Guitar,-1,-1
62,100,0.5181818181818182,523,1,80,DL_Guitar,-1,-1
62,100,0.13636363636363635,810,1,80,DL_Guitar,-1,-1
43,100,0.11818181818181818,857,0,80,DL_Guitar,-1,-1
55,100,0.3181818181818182,40,1,81,DL_Guitar,-1,-1
43,100,0.4818181818181818,202,0,81,DL_Guitar,-1,-1
55,100,0.2772727272727273,470,1,81,DL_Guitar,-1,-1
55,100,1.3590909090909091,590,0,81,DL_Guitar,-1,-1
55,100,0.3,87,1,82,DL_Guitar,-1,-1
62,100,0.5,312,1,82,DL_Guitar,-1,-1
62,100,0.5590909090909091,436,0,82,DL_Guitar,-1,-1
62,100,0.2,722,1,82,DL_Guitar,-1,-1
62,100,0.13636363636363635,810,0,82,DL_Guitar,-1,-1
57,100,0.2409090909090909,839,0,82,DL_Guitar,-1,-1
57,100,1.3227272727272728,386,1,83,DL_Guitar,-1,-1
62,100,0.13636363636363635,787,1,83,DL_Guitar,-1,-1
59,100,0.37727272727272726,83,1,84,DL_Guitar,-1,-1
59,100,0.2590909090909091,303,1,84,DL_Guitar,-1,-1
59,100,0.2772727272727273,404,0,84,DL_Guitar,-1,-1
59,100,0.41818181818181815,502,0,84,DL_Guitar,-1,-1
43,100,0.2590909090909091,646,0,84,DL_Guitar,-1,-1
62,100,0.9,716,0,84,DL_Guitar,-1,-1
43,100,0.1,56,1,85,DL_Guitar,-1,-1
55,100,0.17727272727272728,127,0,85,DL_Guitar,-1,-1
50,100,0.7,453,1,85,DL_Guitar,-1,-1
57,100,0.2590909090909091,616,0,85,DL_Guitar,-1,-1
57,100,0.17727272727272728,700,0,85,DL_Guitar,-1,-1
55,100,0.5409090909090909,0,1,86,DL_Guitar,-1,-1
55,100,0.1409090909090909,377,1,86,DL_Guitar,-1,-1
55,100,1.6181818181818182,449,0,86,DL_Guitar,-1,-1
55,100,0.6,853,1,86,DL_Guitar,-1,-1
50,100,0.33636363636363636,347,1,87,DL_Guitar,-1,-1
50,100,0.7227272727272728,553,1,87,DL_Guitar,-1,-1
50,100,0.2409090909090909,729,0,87,DL_Guitar,-1,-1
50,100,0.7,53,1,88,DL_Guitar,-1,-1
57,100,0.5818181818181818,220,0,88,DL_Guitar,-1,-1
55,100,0.13636363636363635,612,1,88,DL_Guitar,-1,-1
59,100,0.2590909090909091,106,1,89,DL_Guitar,-1,-1
59,100,0.6,176,0,89,DL_Guitar,-1,-1
59,100,0.1590909090909091,320,0,89,DL_Guitar,-1,-1
60,100,0.18181818181818182,378,1,0,DL_Remix_Guitar,-1,-1
55,100,0.37727272727272726,546,0,0,DL_Remix_Guitar,-1,-1
55,100,0.3409090909090909,796,1,0,DL_Remix_Guitar,-1,-1
52,100,0.1,267,1,1,DL_Remix_Guitar,-1,-1
53,100,0.18181818181818182,290,0,1,DL_Remix_Guitar,-1,-1
60,100,0.1,360,0,1,DL_Remix_Guitar,-1,-1
60,100,0.11818181818181818,405,0,1,DL_Remix_Guitar,-1,-1
60,100,0.2636363636363636,487,0,1,DL_Remix_Guitar,-1,-1
41,100,0.1590909090909091,559,0,1,DL_Remix_Guitar,-1,-1
60,100,0.1590909090909091,700,0,1,DL_Remix_Guitar,-1,-1
62,100,0.4409090909090909,34,1,2,DL_Remix_Guitar,-1,-1
55,100,0.2772727272727273,281,1,2,DL_Remix_Guitar,-1,-1
62,100,0.18181818181818182,421,0,2,DL_Remix_Guitar,-1,-1
62,100,0.2818181818181818,528,0,2,DL_Remix_Guitar,-1,-1
62,100,0.11818181818181818,611,0,2,DL_Remix_Guitar,-1,-1
62,100,0.5227272727272727,642,0,2,DL_Remix_Guitar,-1,-1
61,100,0.1590909090909091,83,1,3,DL_Remix_Guitar,-1,-1
61,100,0.18181818181818182,122,0,3,DL_Remix_Guitar,-1,-1
61,100,0.2818181818181818,254,0,3,DL_Remix_Guitar,-1,-1
57,100,0.37727272727272726,427,0,3,DL_Remix_Guitar,-1,-1
57,100,0.32272727272727275,607,0,3,DL_Remix_Guitar,-1,-1
60,100,0.2,694,0,3,DL_Remix_Guitar,-1,-1
57,100,0.38181818181818183,836,0,3,DL_Remix_Guitar,-1,-1
57,100,0.22272727272727272,48,1,4,DL_Remix_Guitar,-1,-1
62,100,0.6772727272727272,260,1,4,DL_Remix_Guitar,-1,-1
59,100,0.2818181818181818,465,1,4,DL_Remix_Guitar,-1,-1
60,100,0.1,527,0,4,DL_Remix_Guitar,-1,-1
60,100,0.18181818181818182,575,0,4,DL_Remix_Guitar,-1,-1
41,100,0.3409090909090909,616,0,4,DL_Remix_Guitar,-1,-1
41,100,0.2,721,0,4,DL_Remix_Guitar,-1,-1
60,100,0.5772727272727273,765,0,4,DL_Remix_Guitar,-1,-1
53,100,0.1,444,1,5,DL_Remix_Guitar,-1,-1
55,100,0.2590909090909091,545,0,5,DL_Remix_Guitar,-1,-1
60,100,0.2590909090909091,849,1,5,DL_Remix_Guitar,-1,-1
57,100,0.4,150,1,6,DL_Remix_Guitar,-1,-1
60,100,0.11818181818181818,360,1,6,DL_Remix_Guitar,-1,-1
56,100,0.2409090909090909,399,0,6,DL_Remix_Guitar,-1,-1
60,100,0.1,458,0,6,DL_Remix_Guitar,-1,-1
57,100,0.18181818181818182,708,1,6,DL_Remix_Guitar,-1,-1
52,100,0.36363636363636365,795,0,6,DL_Remix_Guitar,-1,-1
52,100,0.42272727272727273,4,1,7,DL_Remix_Guitar,-1,-1
45,100,0.1590909090909091,396,1,7,DL_Remix_Guitar,-1,-1
55,100,0.3,726,1,7,DL_Remix_Guitar,-1,-1
57,100,0.11818181818181818,836,0,7,DL_Remix_Guitar,-1,-1
57,100,0.4590909090909091,84,1,8,DL_Remix_Guitar,-1,-1
57,100,0.21818181818181817,338,1,8,DL_Remix_Guitar,-1,-1
57,100,0.18181818181818182,400,0,8,DL_Remix_Guitar,-1,-1
57,100,0.1409090909090909,462,0,8,DL_Remix_Guitar,-1,-1
57,100,0.6818181818181818,563,0,8,DL_Remix_Guitar,-1,-1
56,100,0.12272727272727273,761,0,8,DL_Remix_Guitar,-1,-1
60,100,0.1409090909090909,56,1,9,DL_Remix_Guitar,-1,-1
55,100,0.1,211,0,9,DL_Remix_Guitar,-1,-1
55,100,0.1409090909090909,426,1,9,DL_Remix_Guitar,-1,-1
53,100,0.3,804,1,9,DL_Remix_Guitar,-1,-1
53,100,0.16363636363636364,48,1,10,DL_Remix_Guitar,-1,-1
53,100,0.12272727272727273,101,0,10,DL_Remix_Guitar,-1,-1
48,100,0.17727272727272728,171,0,10,DL_Remix_Guitar,-1,-1
58,100,0.2409090909090909,756,1,10,DL_Remix_Guitar,-1,-1
50,100,0.17727272727272728,360,1,11,DL_Remix_Guitar,-1,-1
53,100,0.3,668,1,11,DL_Remix_Guitar,-1,-1
53,100,0.16363636363636364,752,0,11,DL_Remix_Guitar,-1,-1
53,100,0.4,826,0,11,DL_Remix_Guitar,-1,-1
60,100,0.1590909090909091,61,1,12,DL_Remix_Guitar,-1,-1
53,100,0.21818181818181817,96,0,12,DL_Remix_Guitar,-1,-1
53,100,0.2,163,0,12,DL_Remix_Guitar,-1,-1
52,100,0.3181818181818182,316,0,12,DL_Remix_Guitar,-1,-1
40,100,0.1,470,0,12,DL_Remix_Guitar,-1,-1
52,100,0.2,493,0,12,DL_Remix_Guitar,-1,-1
52,100,0.2409090909090909,625,0,12,DL_Remix_Guitar,-1,-1
52,100,0.3,685,0,12,DL_Remix_Guitar,-1,-1
52,100,0.3,44,1,13,DL_Remix_Guitar,-1,-1
52,100,0.1409090909090909,132,0,13,DL_Remix_Guitar,-1,-1
52,100,0.22272727272727272,180,0,13,DL_Remix_Guitar,-1,-1
57,100,0.18181818181818182,355,0,13,DL_Remix_Guitar,-1,-1
48,100,0.2590909090909091,431,0,13,DL_Remix_Guitar,-1,-1
57,100,0.1,519,0,13,DL_Remix_Guitar,-1,-1
48,100,0.1409090909090909,663,0,13,DL_Remix_Guitar,-1,-1
57,100,0.740909090909091,801,0,13,DL_Remix_Guitar,-1,-1
57,100,0.8818181818181818,123,1,14,DL_Remix_Guitar,-1,-1
52,100,0.5590909090909091,611,1,14,DL_Remix_Guitar,-1,-1
52,100,0.18181818181818182,25,1,15,DL_Remix_Guitar,-1,-1
52,100,0.5,233,1,15,DL_Remix_Guitar,-1,-1
52,100,0.2772727272727273,347,0,15,DL_Remix_Guitar,-1,-1
50,100,0.21818181818181817,766,1,15,DL_Remix_Guitar,-1,-1
50,100,0.16363636363636364,26,1,16,DL_Remix_Guitar,-1,-1
53,100,0.21818181818181817,440,1,16,DL_Remix_Guitar,-1,-1
48,100,1.9,691,1,16,DL_Remix_Guitar,-1,-1
58,100,0.2,343,1,17,DL_Remix_Guitar,-1,-1
55,100,0.2409090909090909,519,0,17,DL_Remix_Guitar,-1,-1
57,100,0.3,669,0,17,DL_Remix_Guitar,-1,-1
53,100,0.2,17,1,18,DL_Remix_Guitar,-1,-1
53,100,0.4636363636363636,488,1,18,DL_Remix_Guitar,-1,-1
53,100,0.16363636363636364,619,0,18,DL_Remix_Guitar,-1,-1
52,100,0.2772727272727273,229,1,19,DL_Remix_Guitar,-1,-1
52,100,0.12272727272727273,364,0,19,DL_Remix_Guitar,-1,-1
59,100,0.12272727272727273,488,0,19,DL_Remix_Guitar,-1,-1
52,100,0.4,590,0,19,DL_Remix_Guitar,-1,-1
52,100,0.32272727272727275,708,0,19,DL_Remix_Guitar,-1,-1
50,100,0.13636363636363635,150,1,20,DL_Remix_Guitar,-1,-1
50,100,0.2590909090909091,198,0,20,DL_Remix_Guitar,-1,-1
55,100,0.11818181818181818,559,1,20,DL_Remix_Guitar,-1,-1
55,100,0.17727272727272728,810,1,20,DL_Remix_Guitar,-1,-1
56,100,0.2,656,1,21,DL_Remix_Guitar,-1,-1
62,100,0.1409090909090909,773,0,21,DL_Remix_Guitar,-1,-1
43,100,0.1590909090909091,804,0,21,DL_Remix_Guitar,-1,-1
45,100,0.12272727272727273,289,1,22,DL_Remix_Guitar,-1,-1
57,100,0.16363636363636364,422,0,22,DL_Remix_Guitar,-1,-1
57,100,0.22272727272727272,497,0,22,DL_Remix_Guitar,-1,-1
57,100,0.1,756,1,22,DL_Remix_Guitar,-1,-1
57,100,0.11818181818181818,876,0,22,DL_Remix_Guitar,-1,-1
45,100,0.1590909090909091,100,1,23,DL_Remix_Guitar,-1,-1
50,100,0.13636363636363635,480,1,23,DL_Remix_Guitar,-1,-1
57,100,0.4409090909090909,65,1,24,DL_Remix_Guitar,-1,-1
55,100,0.2818181818181818,532,1,24,DL_Remix_Guitar,-1,-1
53,100,0.22272727272727272,796,1,24,DL_Remix_Guitar,-1,-1
55,100,0.12272727272727273,26,1,25,DL_Remix_Guitar,-1,-1
55,100,0.5,150,0,25,DL_Remix_Guitar,-1,-1
53,100,0.12272727272727273,378,1,25,DL_Remix_Guitar,-1,-1
55,100,0.3,611,1,25,DL_Remix_Guitar,-1,-1
55,100,0.43636363636363634,831,1,25,DL_Remix_Guitar,-1,-1
60,100,0.18181818181818182,351,1,26,DL_Remix_Guitar,-1,-1
53,100,0.1590909090909091,602,1,26,DL_Remix_Guitar,-1,-1
57,100,0.16363636363636364,663,0,26,DL_Remix_Guitar,-1,-1
57,100,0.5409090909090909,708,0,26,DL_Remix_Guitar,-1,-1
57,100,0.759090909090909,858,0,26,DL_Remix_Guitar,-1,-1
57,100,0.12272727272727273,223,1,27,DL_Remix_Guitar,-1,-1
57,100,0.4818181818181818,285,0,27,DL_Remix_Guitar,-1,-1
53,100,0.1409090909090909,453,0,27,DL_Remix_Guitar,-1,-1
57,100,0.11818181818181818,581,0,27,DL_Remix_Guitar,-1,-1
53,100,0.21818181818181817,581,1,28,DL_Remix_Guitar,-1,-1
53,100,0.22272727272727272,663,0,28,DL_Remix_Guitar,-1,-1
52,100,0.23636363636363636,787,0,28,DL_Remix_Guitar,-1,-1
52,100,0.23636363636363636,876,0,28,DL_Remix_Guitar,-1,-1
52,100,0.2,189,1,29,DL_Remix_Guitar,-1,-1
59,100,0.11818181818181818,405,1,29,DL_Remix_Guitar,-1,-1
62,100,0.1590909090909091,461,0,29,DL_Remix_Guitar,-1,-1
53,100,0.5590909090909091,611,1,44,DL_Remix_Guitar,-1,-1
47,100,0.5181818181818182,96,1,45,DL_Remix_Guitar,-1,-1
48,100,0.5227272727272727,211,0,45,DL_Remix_Guitar,-1,-1
55,100,0.1590909090909091,131,1,46,DL_Remix_Guitar,-1,-1
55,100,0.3181818181818182,338,1,46,DL_Remix_Guitar,-1,-1
57,100,0.8409090909090909,440,0,46,DL_Remix_Guitar,-1,-1
60,100,0.11818181818181818,668,1,46,DL_Remix_Guitar,-1,-1
52,100,0.13636363636363635,18,1,47,DL_Remix_Guitar,-1,-1
60,100,0.11818181818181818,370,1,47,DL_Remix_Guitar,-1,-1
45,100,0.5,405,0,47,DL_Remix_Guitar,-1,-1
62,100,0.1409090909090909,298,1,48,DL_Remix_Guitar,-1,-1
52,100,0.1409090909090909,378,0,48,DL_Remix_Guitar,-1,-1
57,100,0.8818181818181818,616,1,48,DL_Remix_Guitar,-1,-1
62,100,0.18181818181818182,576,1,49,DL_Remix_Guitar,-1,-1
53,100,0.18181818181818182,638,0,49,DL_Remix_Guitar,-1,-1
48,100,0.22272727272727272,729,0,49,DL_Remix_Guitar,-1,-1
59,100,0.1590909090909091,541,1,50,DL_Remix_Guitar,-1,-1
45,100,0.3409090909090909,206,1,51,DL_Remix_Guitar,-1,-1
57,100,0.21818181818181817,506,1,51,DL_Remix_Guitar,-1,-1
57,100,0.12272727272727273,716,1,51,DL_Remix_Guitar,-1,-1
45,100,0.42272727272727273,761,0,51,DL_Remix_Guitar,-1,-1
48,100,0.12272727272727273,78,1,52,DL_Remix_Guitar,-1,-1
59,100,0.2,738,1,52,DL_Remix_Guitar,-1,-1
45,100,0.18181818181818182,21,1,53,DL_Remix_Guitar,-1,-1
50,100,0.11818181818181818,105,0,53,DL_Remix_Guitar,-1,-1
50,100,0.2818181818181818,136,0,53,DL_Remix_Guitar,-1,-1
50,100,0.12272727272727273,201,0,53,DL_Remix_Guitar,-1,-1
50,100,0.11818181818181818,238,0,53,DL_Remix_Guitar,-1,-1
57,100,0.4636363636363636,311,0,53,DL_Remix_Guitar,-1,-1
57,100,0.4,673,1,53,DL_Remix_Guitar,-1,-1
57,100,0.17727272727272728,765,0,53,DL_Remix_Guitar,-1,-1
44,100,0.11818181818181818,131,1,54,DL_Remix_Guitar,-1,-1
64,100,0.37727272727272726,193,0,54,DL_Remix_Guitar,-1,-1
48,100,1.8409090909090908,421,1,54,DL_Remix_Guitar,-1,-1
48,100,0.4,831,1,54,DL_Remix_Guitar,-1,-1
48,100,0.11818181818181818,43,1,55,DL_Remix_Guitar,-1,-1
55,100,0.1409090909090909,206,0,55,DL_Remix_Guitar,-1,-1
57,100,0.8,276,0,55,DL_Remix_Guitar,-1,-1
57,100,0.11818181818181818,458,0,55,DL_Remix_Guitar,-1,-1
53,100,1.1181818181818182,568,0,55,DL_Remix_Guitar,-1,-1
57,100,0.2590909090909091,848,1,55,DL_Remix_Guitar,-1,-1
57,100,0.3,171,1,56,DL_Remix_Guitar,-1,-1
52,100,0.1409090909090909,295,0,56,DL_Remix_Guitar,-1,-1
52,100,0.4409090909090909,405,0,56,DL_Remix_Guitar,-1,-1
40,100,0.2818181818181818,518,0,56,DL_Remix_Guitar,-1,-1
52,100,0.7,628,0,56,DL_Remix_Guitar,-1,-1
52,100,0.2409090909090909,836,1,56,DL_Remix_Guitar,-1,-1
52,100,0.36363636363636365,224,1,57,DL_Remix_Guitar,-1,-1
64,100,0.2590909090909091,364,0,57,DL_Remix_Guitar,-1,-1
50,100,0.35909090909090907,480,0,57,DL_Remix_Guitar,-1,-1
50,100,0.2,861,1,57,DL_Remix_Guitar,-1,-1
53,100,0.2772727272727273,206,1,58,DL_Remix_Guitar,-1,-1
55,100,0.2409090909090909,66,1,59,DL_Remix_Guitar,-1,-1
47,100,0.1590909090909091,193,0,59,DL_Remix_Guitar,-1,-1
47,100,0.32272727272727275,268,0,59,DL_Remix_Guitar,-1,-1
52,100,0.17727272727272728,568,1,59,DL_Remix_Guitar,-1,-1
57,100,0.11818181818181818,735,0,59,DL_Remix_Guitar,-1,-1
60,100,0.17727272727272728,875,0,59,DL_Remix_Guitar,-1,-1
57,100,0.21818181818181817,105,1,60,DL_Remix_Guitar,-1,-1
57,100,0.12272727272727273,179,0,60,DL_Remix_Guitar,-1,-1
60,100,0.3,396,1,60,DL_Remix_Guitar,-1,-1
64,100,0.13636363636363635,633,1,60,DL_Remix_Guitar,-1,-1
57,100,1.040909090909091,716,0,60,DL_Remix_Guitar,-1,-1
60,100,0.12272727272727273,158,1,61,DL_Remix_Guitar,-1,-1
57,100,1.440909090909091,311,0,61,DL_Remix_Guitar,-1,-1
57,100,0.2,584,1,62,DL_Remix_Guitar,-1,-1
57,100,0.2409090909090909,8,1,63,DL_Remix_Guitar,-1,-1
57,100,0.1590909090909091,273,1,63,DL_Remix_Guitar,-1,-1
57,100,0.1590909090909091,364,0,63,DL_Remix_Guitar,-1,-1
57,100,0.12272727272727273,453,0,63,DL_Remix_Guitar,-1,-1
57,100,0.1409090909090909,515,0,63,DL_Remix_Guitar,-1,-1
55,100,0.3,546,1,65,DL_Remix_Guitar,-1,-1
43,100,0.1,796,1,65,DL_Remix_Guitar,-1,-1
43,100,0.3409090909090909,826,0,65,DL_Remix_Guitar,-1,-1
52,100,0.9409090909090909,307,1,66,DL_Remix_Guitar,-1,-1
52,100,0.2772727272727273,633,1,66,DL_Remix_Guitar,-1,-1
52,100,0.33636363636363636,743,0,66,DL_Remix_Guitar,-1,-1
62,100,0.5409090909090909,9,1,67,DL_Remix_Guitar,-1,-1
59,100,0.22272727272727272,166,0,67,DL_Remix_Guitar,-1,-1
60,100,0.2409090909090909,550,1,67,DL_Remix_Guitar,-1,-1
57,100,0.3,813,1,67,DL_Remix_Guitar,-1,-1
57,100,0.2,96,1,68,DL_Remix_Guitar,-1,-1
57,100,0.12272727272727273,189,0,68,DL_Remix_Guitar,-1,-1
45,100,0.1590909090909091,237,0,68,DL_Remix_Guitar,-1,-1
57,100,0.3,470,1,68,DL_Remix_Guitar,-1,-1
57,100,0.38181818181818183,606,0,68,DL_Remix_Guitar,-1,-1
57,100,0.13636363636363635,347,1,69,DL_Remix_Guitar,-1,-1
57,100,0.11818181818181818,462,0,69,DL_Remix_Guitar,-1,-1
45,100,0.11818181818181818,493,0,69,DL_Remix_Guitar,-1,-1
64,100,0.12272727272727273,540,0,69,DL_Remix_Guitar,-1,-1
48,100,0.16363636363636364,817,1,69,DL_Remix_Guitar,-1,-1
45,100,0.5181818181818182,282,1,70,DL_Remix_Guitar,-1,-1
45,100,0.2818181818181818,399,0,70,DL_Remix_Guitar,-1,-1
57,100,0.1590909090909091,462,0,70,DL_Remix_Guitar,-1,-1
58,100,0.5636363636363636,157,1,71,DL_Remix_Guitar,-1,-1
57,100,0.1590909090909091,30,1,72,DL_Remix_Guitar,-1,-1
57,100,0.11818181818181818,150,0,72,DL_Remix_Guitar,-1,-1
43,100,0.11818181818181818,339,0,72,DL_Remix_Guitar,-1,-1
47,100,0.2409090909090909,619,1,72,DL_Remix_Guitar,-1,-1
47,100,0.1590909090909091,677,0,72,DL_Remix_Guitar,-1,-1
64,100,0.1,343,1,73,DL_Remix_Guitar,-1,-1
64,100,0.4,377,0,73,DL_Remix_Guitar,-1,-1
45,100,0.1590909090909091,496,0,73,DL_Remix_Guitar,-1,-1
52,100,0.1,606,0,73,DL_Remix_Guitar,-1,-1
57,100,0.6590909090909091,660,0,73,DL_Remix_Guitar,-1,-1
56,100,0.2,53,1,74,DL_Remix_Guitar,-1,-1
56,100,1.2227272727272727,100,0,74,DL_Remix_Guitar,-1,-1
52,100,0.2409090909090909,383,1,74,DL_Remix_Guitar,-1,-1
57,100,0.11818181818181818,483,0,74,DL_Remix_Guitar,-1,-1
57,100,0.22272727272727272,519,0,74,DL_Remix_Guitar,-1,-1
45,100,0.4590909090909091,747,1,74,DL_Remix_Guitar,-1,-1
45,100,0.12272727272727273,13,1,75,DL_Remix_Guitar,-1,-1
45,100,0.18181818181818182,43,0,75,DL_Remix_Guitar,-1,-1
57,100,0.8,96,0,75,DL_Remix_Guitar,-1,-1
57,100,0.2818181818181818,352,1,75,DL_Remix_Guitar,-1,-1
57,100,0.2,417,0,75,DL_Remix_Guitar,-1,-1
50,100,0.1,523,0,75,DL_Remix_Guitar,-1,-1
43,100,0.3,619,0,75,DL_Remix_Guitar,-1,-1
55,100,0.3,839,1,75,DL_Remix_Guitar,-1,-1
62,100,0.6818181818181818,773,1,76,DL_Remix_Guitar,-1,-1
43,100,0.22272727272727272,145,1,77,DL_Remix_Guitar,-1,-1
57,100,0.5818181818181818,263,0,77,DL_Remix_Guitar,-1,-1
57,100,0.6,752,1,77,DL_Remix_Guitar,-1,-1
57,100,0.2590909090909091,404,1,78,DL_Remix_Guitar,-1,-1
53,100,0.12272727272727273,466,1,79,DL_Remix_Guitar,-1,-1
57,100,0.12272727272727273,553,0,79,DL_Remix_Guitar,-1,-1
57,100,0.4590909090909091,56,1,80,DL_Remix_Guitar,-1,-1
43,100,0.41818181818181815,206,0,80,DL_Remix_Guitar,-1,-1
57,100,0.5,550,1,80,DL_Remix_Guitar,-1,-1
43,100,0.4772727272727273,303,1,81,DL_Remix_Guitar,-1,-1
57,100,0.35909090909090907,633,1,81,DL_Remix_Guitar,-1,-1
50,100,0.1,722,0,81,DL_Remix_Guitar,-1,-1
57,100,0.35909090909090907,30,1,82,DL_Remix_Guitar,-1,-1
45,100,0.1,673,1,82,DL_Remix_Guitar,-1,-1
58,100,0.18181818181818182,157,1,83,DL_Remix_Guitar,-1,-1
58,100,0.8772727272727273,326,0,83,DL_Remix_Guitar,-1,-1
63,100,0.33636363636363636,567,1,83,DL_Remix_Guitar,-1,-1
52,100,0.17727272727272728,844,1,83,DL_Remix_Guitar,-1,-1
52,100,0.38181818181818183,396,1,84,DL_Remix_Guitar,-1,-1
48,100,0.17727272727272728,603,1,84,DL_Remix_Guitar,-1,-1
62,100,0.2818181818181818,35,1,85,DL_Remix_Guitar,-1,-1
62,100,0.35909090909090907,150,0,85,DL_Remix_Guitar,-1,-1
59,100,0.2772727272727273,480,1,85,DL_Remix_Guitar,-1,-1
57,100,0.17727272727272728,184,1,86,DL_Remix_Guitar,-1,-1
57,100,0.3409090909090909,229,0,86,DL_Remix_Guitar,-1,-1
50,100,0.11818181818181818,624,1,86,DL_Remix_Guitar,-1,-1
50,100,0.2590909090909091,677,0,86,DL_Remix_Guitar,-1,-1
43,100,0.3409090909090909,206,1,87,DL_Remix_Guitar,-1,-1
55,100,0.16363636363636364,817,1,87,DL_Remix_Guitar,-1,-1
55,100,0.1,43,1,88,DL_Remix_Guitar,-1,-1
55,100,0.1,69,0,88,DL_Remix_Guitar,-1,-1
56,100,0.1,356,1,89,DL_Remix_Guitar,-1,-1
50,100,0.21818181818181817,404,0,89,DL_Remix_Guitar,-1,-1
57,100,0.2590909090909091,743,1,89,DL_Remix_Guitar,-1,-1
57,100,0.1409090909090909,22,1,90,DL_Remix_Guitar,-1,-1
57,100,0.21818181818181817,216,0,90,DL_Remix_Guitar,-1,-1
43,100,0.7636363636363637,487,1,90,DL_Remix_Guitar,-1,-1
55,100,0.21818181818181817,766,1,90,DL_Remix_Guitar,-1,-1
55,100,0.4,817,0,90,DL_Remix_Guitar,-1,-1
43,100,0.12272727272727273,223,1,91,DL_Remix_Guitar,-1,-1
43,100,0.2818181818181818,453,1,91,DL_Remix_Guitar,-1,-1
43,100,0.21818181818181817,787,1,91,DL_Remix_Guitar,-1,-1
55,100,0.22272727272727272,862,0,91,DL_Remix_Guitar,-1,-1
55,100,0.2409090909090909,66,1,92,DL_Remix_Guitar,-1,-1
43,100,0.4590909090909091,783,1,92,DL_Remix_Guitar,-1,-1
57,100,0.8,83,1,97,DL_Remix_Guitar,-1,-1
52,100,0.2,707,1,97,DL_Remix_Guitar,-1,-1
52,100,0.13636363636363635,766,0,97,DL_Remix_Guitar,-1,-1
52,100,0.16363636363636364,839,0,97,DL_Remix_Guitar,-1,-1
44,100,0.1,113,1,98,DL_Remix_Guitar,-1,-1
46,100,0.1590909090909091,132,1,99,DL_Remix_Guitar,-1,-1
46,100,0.2590909090909091,197,0,99,DL_Remix_Guitar,-1,-1
45,100,0.2,282,0,99,DL_Remix_Guitar,-1,-1
45,100,0.1,330,0,99,DL_Remix_Guitar,-1,-1
45,100,0.11818181818181818,392,0,99,DL_Remix_Guitar,-1,-1
57,100,3.3,462,0,99,DL_Remix_Guitar,-1,-1
55,100,0.2590909090909091,483,1,101,DL_Remix_Guitar,-1,-1
50,100,0.2,876,1,101,DL_Remix_Guitar,-1,-1
50,100,1.3,53,1,102,DL_Remix_Guitar,-1,-1
50,100,0.7818181818181819,373,1,102,DL_Remix_Guitar,-1,-1
50,100,0.11818181818181818,756,1,102,DL_Remix_Guitar,-1,-1
47,100,0.18181818181818182,356,1,103,DL_Remix_Guitar,-1,-1
60,100,0.4818181818181818,399,0,103,DL_Remix_Guitar,-1,-1
52,100,0.1590909090909091,273,1,104,DL_Remix_Guitar,-1,-1
52,100,0.22272727272727272,540,1,104,DL_Remix_Guitar,-1,-1
53,100,0.7772727272727272,756,1,104,DL_Remix_Guitar,-1,-1
60,100,0.1,136,1,105,DL_Remix_Guitar,-1,-1
53,100,0.4590909090909091,233,0,105,DL_Remix_Guitar,-1,-1
53,100,0.5181818181818182,457,1,105,DL_Remix_Guitar,-1,-1
53,100,0.5181818181818182,590,0,105,DL_Remix_Guitar,-1,-1
52,100,0.11818181818181818,857,1,105,DL_Remix_Guitar,-1,-1
52,100,0.3,66,1,106,DL_Remix_Guitar,-1,-1
52,100,0.23636363636363636,567,1,106,DL_Remix_Guitar,-1,-1
55,100,0.17727272727272728,853,1,106,DL_Remix_Guitar,-1,-1
45,100,0.11818181818181818,206,1,107,DL_Remix_Guitar,-1,-1
45,100,0.2,267,0,107,DL_Remix_Guitar,-1,-1
45,100,0.1,356,0,107,DL_Remix_Guitar,-1,-1
55,100,0.5181818181818182,404,0,107,DL_Remix_Guitar,-1,-1
55,100,0.1,523,0,107,DL_Remix_Guitar,-1,-1
50,100,0.6,179,1,108,DL_Remix_Guitar,-1,-1
57,100,0.12272727272727273,386,1,108,DL_Remix_Guitar,-1,-1
55,100,0.6,567,0,108,DL_Remix_Guitar,-1,-1
43,100,0.18181818181818182,792,1,108,DL_Remix_Guitar,-1,-1
55,100,0.5409090909090909,3,1,109,DL_Remix_Guitar,-1,-1
55,100,0.2636363636363636,136,0,109,DL_Remix_Guitar,-1,-1
55,100,0.18181818181818182,519,1,109,DL_Remix_Guitar,-1,-1
55,100,0.11818181818181818,590,0,109,DL_Remix_Guitar,-1,-1
55,100,0.18181818181818182,87,1,110,DL_Remix_Guitar,-1,-1
45,100,0.4,184,0,110,DL_Remix_Guitar,-1,-1
46,100,0.4409090909090909,320,0,110,DL_Remix_Guitar,-1,-1
46,100,0.1,430,0,110,DL_Remix_Guitar,-1,-1
46,100,0.13636363636363635,457,0,110,DL_Remix_Guitar,-1,-1
46,100,0.12272727272727273,576,0,110,DL_Remix_Guitar,-1,-1
46,100,0.3181818181818182,22,1,111,DL_Remix_Guitar,-1,-1
46,100,0.11818181818181818,140,0,111,DL_Remix_Guitar,-1,-1
46,100,0.5,233,0,111,DL_Remix_Guitar,-1,-1
55,100,0.12272727272727273,399,0,111,DL_Remix_Guitar,-1,-1
55,100,0.21818181818181817,436,0,111,DL_Remix_Guitar,-1,-1
56,100,0.1,426,1,112,DL_Remix_Guitar,-1,-1
57,100,0.16363636363636364,532,0,112,DL_Remix_Guitar,-1,-1
55,100,0.2409090909090909,642,1,113,DL_Remix_Guitar,-1,-1
55,100,0.1590909090909091,9,1,114,DL_Remix_Guitar,-1,-1
55,100,0.16363636363636364,47,0,114,DL_Remix_Guitar,-1,-1
55,100,0.1409090909090909,179,0,114,DL_Remix_Guitar,-1,-1
48,100,0.12272727272727273,673,1,114,DL_Remix_Guitar,-1,-1
48,100,0.11818181818181818,832,0,114,DL_Remix_Guitar,-1,-1
53,100,0.35909090909090907,17,1,115,DL_Remix_Guitar,-1,-1
53,100,0.1590909090909091,282,1,115,DL_Remix_Guitar,-1,-1
53,100,0.5818181818181818,320,0,115,DL_Remix_Guitar,-1,-1
60,100,0.5590909090909091,536,1,115,DL_Remix_Guitar,-1,-1
55,100,0.1590909090909091,320,1,116,DL_Remix_Guitar,-1,-1
50,100,0.5409090909090909,839,1,116,DL_Remix_Guitar,-1,-1
59,100,0.3181818181818182,713,1,117,DL_Remix_Guitar,-1,-1
53,100,0.6363636363636364,83,1,118,DL_Remix_Guitar,-1,-1
53,100,0.5409090909090909,299,1,118,DL_Remix_Guitar,-1,-1
53,100,0.1409090909090909,426,0,118,DL_Remix_Guitar,-1,-1
55,100,0.4,572,0,118,DL_Remix_Guitar,-1,-1
53,100,0.7636363636363637,796,1,118,DL_Remix_Guitar,-1,-1
53,100,0.35909090909090907,233,1,119,DL_Remix_Guitar,-1,-1
53,100,0.18181818181818182,330,0,119,DL_Remix_Guitar,-1,-1
53,100,0.1,466,0,119,DL_Remix_Guitar,-1,-1
53,100,0.4636363636363636,576,0,119,DL_Remix_Guitar,-1,-1
53,100,0.3,729,0,119,DL_Remix_Guitar,-1,-1
53,100,0.1409090909090909,26,1,120,DL_Remix_Guitar,-1,-1
52,100,0.3,722,1,120,DL_Remix_Guitar,-1,-1
52,100,0.3,792,0,120,DL_Remix_Guitar,-1,-1
52,100,0.2818181818181818,110,1,121,DL_Remix_Guitar,-1,-1
50,100,0.42272727272727273,343,1,121,DL_Remix_Guitar,-1,-1
50,100,0.1,470,0,121,DL_Remix_Guitar,-1,-1
55,100,0.2409090909090909,836,1,121,DL_Remix_Guitar,-1,-1
55,100,0.2772727272727273,426,1,122,DL_Remix_Guitar,-1,-1
51,100,0.1590909090909091,801,1,0,_Remix_Guitar,-1,-1
62,100,0.16363636363636364,487,1,1,_Remix_Guitar,-1,-1
60,100,0.1,801,1,1,_Remix_Guitar,-1,-1
60,100,0.12272727272727273,122,1,2,_Remix_Guitar,-1,-1
55,100,0.1409090909090909,616,1,2,_Remix_Guitar,-1,-1
56,100,0.21818181818181817,229,1,3,_Remix_Guitar,-1,-1
56,100,0.1409090909090909,364,0,3,_Remix_Guitar,-1,-1
63,100,0.2409090909090909,730,1,3,_Remix_Guitar,-1,-1
46,100,0.11818181818181818,537,1,4,_Remix_Guitar,-1,-1
62,100,0.17727272727272728,118,1,6,_Remix_Guitar,-1,-1
63,100,0.11818181818181818,747,1,6,_Remix_Guitar,-1,-1
51,100,0.17727272727272728,854,0,6,_Remix_Guitar,-1,-1
56,100,0.22272727272727272,25,1,7,_Remix_Guitar,-1,-1
62,100,0.1409090909090909,374,1,8,_Remix_Guitar,-1,-1
51,100,0.11818181818181818,735,1,8,_Remix_Guitar,-1,-1
63,100,0.1,761,0,8,_Remix_Guitar,-1,-1
51,100,0.4636363636363636,48,1,9,_Remix_Guitar,-1,-1
56,100,0.13636363636363635,171,0,9,_Remix_Guitar,-1,-1
51,100,0.3409090909090909,202,0,9,_Remix_Guitar,-1,-1
56,100,0.12272727272727273,290,0,9,_Remix_Guitar,-1,-1
51,100,0.4590909090909091,383,0,9,_Remix_Guitar,-1,-1
51,100,0.17727272727272728,501,0,9,_Remix_Guitar,-1,-1
51,100,0.2818181818181818,594,0,9,_Remix_Guitar,-1,-1
51,100,0.1,752,0,9,_Remix_Guitar,-1,-1
56,100,0.12272727272727273,804,0,9,_Remix_Guitar,-1,-1
51,100,0.1,48,1,10,_Remix_Guitar,-1,-1
51,100,0.21818181818181817,110,0,10,_Remix_Guitar,-1,-1
56,100,0.1409090909090909,175,0,10,_Remix_Guitar,-1,-1
51,100,0.17727272727272728,237,0,10,_Remix_Guitar,-1,-1
51,100,0.17727272727272728,448,1,10,_Remix_Guitar,-1,-1
63,100,0.5818181818181818,792,1,10,_Remix_Guitar,-1,-1
51,100,0.3181818181818182,39,1,11,_Remix_Guitar,-1,-1
56,100,0.2409090909090909,426,1,11,_Remix_Guitar,-1,-1
51,100,0.2409090909090909,651,1,11,_Remix_Guitar,-1,-1
63,100,0.2,360,1,12,_Remix_Guitar,-1,-1
60,100,0.21818181818181817,414,0,12,_Remix_Guitar,-1,-1
58,100,0.1,501,0,12,_Remix_Guitar,-1,-1
60,100,0.36363636363636365,532,0,12,_Remix_Guitar,-1,-1
63,100,0.1409090909090909,620,0,12,_Remix_Guitar,-1,-1
53,100,0.1,876,1,12,_Remix_Guitar,-1,-1
63,100,0.1,135,1,13,_Remix_Guitar,-1,-1
63,100,0.41818181818181815,185,0,13,_Remix_Guitar,-1,-1
63,100,0.3181818181818182,281,0,13,_Remix_Guitar,-1,-1
55,100,0.1,505,1,13,_Remix_Guitar,-1,-1
56,100,0.3409090909090909,663,0,13,_Remix_Guitar,-1,-1
63,100,0.22272727272727272,233,1,14,_Remix_Guitar,-1,-1
46,100,0.22272727272727272,804,1,14,_Remix_Guitar,-1,-1
46,100,0.1,56,1,15,_Remix_Guitar,-1,-1
46,100,0.18181818181818182,87,0,15,_Remix_Guitar,-1,-1
46,100,0.2409090909090909,132,0,15,_Remix_Guitar,-1,-1
46,100,0.1590909090909091,285,0,15,_Remix_Guitar,-1,-1
46,100,0.17727272727272728,326,0,15,_Remix_Guitar,-1,-1
51,100,0.12272727272727273,620,1,15,_Remix_Guitar,-1,-1
51,100,0.18181818181818182,814,0,15,_Remix_Guitar,-1,-1
51,100,0.12272727272727273,862,0,15,_Remix_Guitar,-1,-1
58,100,0.22272727272727272,233,1,16,_Remix_Guitar,-1,-1
51,100,0.1409090909090909,858,1,16,_Remix_Guitar,-1,-1
51,100,0.17727272727272728,106,1,17,_Remix_Guitar,-1,-1
51,100,0.1409090909090909,374,1,17,_Remix_Guitar,-1,-1
51,100,0.17727272727272728,492,0,17,_Remix_Guitar,-1,-1
51,100,0.17727272727272728,866,1,17,_Remix_Guitar,-1,-1
51,100,0.1590909090909091,106,1,18,_Remix_Guitar,-1,-1
51,100,0.11818181818181818,505,1,18,_Remix_Guitar,-1,-1
51,100,0.1409090909090909,756,1,18,_Remix_Guitar,-1,-1
51,100,0.12272727272727273,113,1,19,_Remix_Guitar,-1,-1
58,100,0.18181818181818182,233,0,19,_Remix_Guitar,-1,-1
51,100,0.18181818181818182,615,1,19,_Remix_Guitar,-1,-1
51,100,0.1409090909090909,748,0,19,_Remix_Guitar,-1,-1
51,100,0.1409090909090909,783,0,19,_Remix_Guitar,-1,-1
56,100,0.16363636363636364,158,1,20,_Remix_Guitar,-1,-1
56,100,0.1590909090909091,364,1,20,_Remix_Guitar,-1,-1
51,100,0.1409090909090909,443,0,20,_Remix_Guitar,-1,-1
51,100,0.1590909090909091,484,0,20,_Remix_Guitar,-1,-1
58,100,0.1409090909090909,870,1,20,_Remix_Guitar,-1,-1
58,100,0.1409090909090909,113,1,21,_Remix_Guitar,-1,-1
51,100,0.2,729,1,21,_Remix_Guitar,-1,-1
51,100,0.18181818181818182,110,1,22,_Remix_Guitar,-1,-1
56,100,0.2409090909090909,474,1,22,_Remix_Guitar,-1,-1
46,100,0.11818181818181818,61,1,23,_Remix_Guitar,-1,-1
58,100,0.1590909090909091,229,0,23,_Remix_Guitar,-1,-1
51,100,0.1,457,1,23,_Remix_Guitar,-1,-1
51,100,0.1590909090909091,611,0,23,_Remix_Guitar,-1,-1
51,100,0.6,870,1,23,_Remix_Guitar,-1,-1
51,100,0.22272727272727272,233,1,24,_Remix_Guitar,-1,-1
51,100,0.21818181818181817,360,0,24,_Remix_Guitar,-1,-1
51,100,0.16363636363636364,553,0,24,_Remix_Guitar,-1,-1
56,100,0.1590909090909091,656,0,24,_Remix_Guitar,-1,-1
56,100,0.13636363636363635,876,1,24,_Remix_Guitar,-1,-1
63,100,0.42272727272727273,387,1,25,_Remix_Guitar,-1,-1
43,100,0.2409090909090909,663,1,25,_Remix_Guitar,-1,-1
55,100,0.2772727272727273,721,0,25,_Remix_Guitar,-1,-1
58,100,0.2409090909090909,167,1,26,_Remix_Guitar,-1,-1
63,100,0.35909090909090907,370,1,26,_Remix_Guitar,-1,-1
63,100,0.2818181818181818,461,0,26,_Remix_Guitar,-1,-1
53,100,0.2409090909090909,791,1,26,_Remix_Guitar,-1,-1
56,100,0.1590909090909091,79,1,27,_Remix_Guitar,-1,-1
63,100,0.2409090909090909,198,0,27,_Remix_Guitar,-1,-1
63,100,0.12272727272727273,254,0,27,_Remix_Guitar,-1,-1
46,100,0.1,443,0,27,_Remix_Guitar,-1,-1
58,100,0.11818181818181818,735,1,27,_Remix_Guitar,-1,-1
58,100,0.35909090909090907,57,1,29,_Remix_Guitar,-1,-1
44,100,0.3,206,0,29,_Remix_Guitar,-1,-1
58,100,0.11818181818181818,625,1,29,_Remix_Guitar,-1,-1
53,100,0.2,770,0,29,_Remix_Guitar,-1,-1
58,100,0.1409090909090909,119,1,30,_Remix_Guitar,-1,-1
53,100,0.1590909090909091,484,1,30,_Remix_Guitar,-1,-1
53,100,0.12272727272727273,598,0,30,_Remix_Guitar,-1,-1
63,100,0.8227272727272728,796,1,30,_Remix_Guitar,-1,-1
63,100,0.1,210,1,31,_Remix_Guitar,-1,-1
63,100,0.2409090909090909,295,0,31,_Remix_Guitar,-1,-1
53,100,0.5409090909090909,418,0,31,_Remix_Guitar,-1,-1
53,100,0.2590909090909091,611,0,31,_Remix_Guitar,-1,-1
53,100,0.16363636363636364,818,1,31,_Remix_Guitar,-1,-1
54,100,0.1,853,0,31,_Remix_Guitar,-1,-1
53,100,0.43636363636363634,876,0,31,_Remix_Guitar,-1,-1
63,100,0.18181818181818182,188,1,32,_Remix_Guitar,-1,-1
52,100,0.1409090909090909,421,1,32,_Remix_Guitar,-1,-1
62,100,1.5772727272727274,568,0,32,_Remix_Guitar,-1,-1
62,100,0.5409090909090909,69,1,33,_Remix_Guitar,-1,-1
62,100,1.1227272727272728,233,0,33,_Remix_Guitar,-1,-1
53,100,0.1409090909090909,619,1,33,_Remix_Guitar,-1,-1
51,100,0.2,796,0,33,_Remix_Guitar,-1,-1
53,100,0.21818181818181817,493,1,34,_Remix_Guitar,-1,-1
56,100,0.1409090909090909,646,0,34,_Remix_Guitar,-1,-1
51,100,0.3181818181818182,8,1,35,_Remix_Guitar,-1,-1
53,100,0.2,611,1,35,_Remix_Guitar,-1,-1
62,100,0.12272727272727273,818,1,35,_Remix_Guitar,-1,-1
55,100,0.1,56,1,36,_Remix_Guitar,-1,-1
55,100,0.18181818181818182,298,1,36,_Remix_Guitar,-1,-1
58,100,0.3181818181818182,660,1,36,_Remix_Guitar,-1,-1
56,100,0.2409090909090909,298,1,37,_Remix_Guitar,-1,-1
56,100,0.12272727272727273,378,0,37,_Remix_Guitar,-1,-1
51,100,0.11818181818181818,370,1,38,_Remix_Guitar,-1,-1
51,100,0.21818181818181817,523,0,38,_Remix_Guitar,-1,-1
51,100,0.1409090909090909,628,0,38,_Remix_Guitar,-1,-1
51,100,0.4590909090909091,813,0,38,_Remix_Guitar,-1,-1
51,100,0.22272727272727272,144,1,39,_Remix_Guitar,-1,-1
51,100,0.2,483,1,39,_Remix_Guitar,-1,-1
51,100,0.5409090909090909,603,0,39,_Remix_Guitar,-1,-1
51,100,0.1590909090909091,726,0,39,_Remix_Guitar,-1,-1
53,100,0.1409090909090909,53,1,40,_Remix_Guitar,-1,-1
58,100,0.18181818181818182,224,0,40,_Remix_Guitar,-1,-1
58,100,0.1409090909090909,386,0,40,_Remix_Guitar,-1,-1
55,100,0.5181818181818182,550,0,40,_Remix_Guitar,-1,-1
58,100,0.1,703,0,40,_Remix_Guitar,-1,-1
55,100,0.2818181818181818,748,0,40,_Remix_Guitar,-1,-1
58,100,0.21818181818181817,858,0,40,_Remix_Guitar,-1,-1
58,100,0.2,224,1,41,_Remix_Guitar,-1,-1
63,100,0.2818181818181818,408,0,41,_Remix_Guitar,-1,-1
53,100,0.4,664,1,41,_Remix_Guitar,-1,-1
58,100,0.2,678,1,42,_Remix_Guitar,-1,-1
58,100,0.13636363636363635,743,0,42,_Remix_Guitar,-1,-1
62,100,0.13636363636363635,303,1,43,_Remix_Guitar,-1,-1
53,100,0.1409090909090909,625,1,43,_Remix_Guitar,-1,-1
46,100,0.1409090909090909,778,0,43,_Remix_Guitar,-1,-1
51,100,0.4818181818181818,78,1,44,_Remix_Guitar,-1,-1
46,100,0.3,289,1,45,_Remix_Guitar,-1,-1
56,100,0.11818181818181818,373,1,46,_Remix_Guitar,-1,-1
51,100,0.1590909090909091,426,0,46,_Remix_Guitar,-1,-1
53,100,0.12272727272727273,783,1,46,_Remix_Guitar,-1,-1
55,100,0.1590909090909091,536,1,47,_Remix_Guitar,-1,-1
55,100,0.18181818181818182,576,0,47,_Remix_Guitar,-1,-1
56,100,0.2590909090909091,558,1,48,_Remix_Guitar,-1,-1
56,100,0.3,721,0,48,_Remix_Guitar,-1,-1
46,100,0.2,110,1,49,_Remix_Guitar,-1,-1
46,100,0.2590909090909091,163,0,49,_Remix_Guitar,-1,-1
46,100,0.1590909090909091,361,1,49,_Remix_Guitar,-1,-1
53,100,0.5,796,1,50,_Remix_Guitar,-1,-1
56,100,0.5636363636363636,179,1,52,_Remix_Guitar,-1,-1
51,100,0.2,426,1,52,_Remix_Guitar,-1,-1
46,100,0.1590909090909091,40,1,53,_Remix_Guitar,-1,-1
56,100,0.11818181818181818,263,1,53,_Remix_Guitar,-1,-1
46,100,0.3409090909090909,694,1,53,_Remix_Guitar,-1,-1
58,100,0.2,823,0,53,_Remix_Guitar,-1,-1
58,100,0.18181818181818182,0,1,54,_Remix_Guitar,-1,-1
53,100,0.18181818181818182,91,0,54,_Remix_Guitar,-1,-1
46,100,0.2,228,0,54,_Remix_Guitar,-1,-1
55,100,0.32272727272727275,289,0,54,_Remix_Guitar,-1,-1
55,100,0.11818181818181818,506,1,54,_Remix_Guitar,-1,-1
55,100,0.2772727272727273,668,0,54,_Remix_Guitar,-1,-1
63,100,0.21818181818181817,96,1,55,_Remix_Guitar,-1,-1
53,100,0.4772727272727273,426,1,55,_Remix_Guitar,-1,-1
53,100,0.3409090909090909,584,0,55,_Remix_Guitar,-1,-1
53,100,0.12272727272727273,826,1,55,_Remix_Guitar,-1,-1
53,100,0.2409090909090909,26,1,56,_Remix_Guitar,-1,-1
53,100,0.1409090909090909,311,1,56,_Remix_Guitar,-1,-1
63,100,0.2409090909090909,729,1,56,_Remix_Guitar,-1,-1
46,100,0.3,83,1,57,_Remix_Guitar,-1,-1
46,100,0.1409090909090909,246,0,57,_Remix_Guitar,-1,-1
46,100,0.18181818181818182,483,1,57,_Remix_Guitar,-1,-1
53,100,0.11818181818181818,286,1,58,_Remix_Guitar,-1,-1
58,100,0.11818181818181818,853,1,58,_Remix_Guitar,-1,-1
55,100,0.2772727272727273,105,1,59,_Remix_Guitar,-1,-1
53,100,0.4590909090909091,166,1,60,_Remix_Guitar,-1,-1
53,100,0.1409090909090909,364,1,60,_Remix_Guitar,-1,-1
53,100,0.1409090909090909,110,1,61,_Remix_Guitar,-1,-1
53,100,0.33636363636363636,171,0,61,_Remix_Guitar,-1,-1
63,100,0.1409090909090909,703,1,61,_Remix_Guitar,-1,-1
46,100,0.2590909090909091,783,0,61,_Remix_Guitar,-1,-1
53,100,0.3,163,1,62,_Remix_Guitar,-1,-1
53,100,0.2,289,0,62,_Remix_Guitar,-1,-1
53,100,0.13636363636363635,435,0,62,_Remix_Guitar,-1,-1
53,100,0.22272727272727272,584,0,62,_Remix_Guitar,-1,-1
51,100,0.3181818181818182,448,1,63,_Remix_Guitar,-1,-1
51,100,0.36363636363636365,554,0,63,_Remix_Guitar,-1,-1
63,100,0.38181818181818183,694,0,63,_Remix_Guitar,-1,-1
46,100,0.21818181818181817,853,0,63,_Remix_Guitar,-1,-1
56,100,0.22272727272727272,540,1,64,_Remix_Guitar,-1,-1
51,100,1.4,593,0,64,_Remix_Guitar,-1,-1
56,100,0.1409090909090909,30,1,65,_Remix_Guitar,-1,-1
63,100,0.1,113,0,65,_Remix_Guitar,-1,-1
51,100,0.2636363636363636,289,0,65,_Remix_Guitar,-1,-1
58,100,0.7227272727272728,356,0,65,_Remix_Guitar,-1,-1
56,100,0.8,536,0,65,_Remix_Guitar,-1,-1
51,100,0.3181818181818182,713,0,65,_Remix_Guitar,-1,-1
56,100,0.4,783,0,65,_Remix_Guitar,-1,-1
63,100,0.1409090909090909,66,1,66,_Remix_Guitar,-1,-1
51,100,0.21818181818181817,96,0,66,_Remix_Guitar,-1,-1
56,100,0.2409090909090909,157,0,66,_Remix_Guitar,-1,-1
46,100,0.11818181818181818,392,1,66,_Remix_Guitar,-1,-1
51,100,0.8409090909090909,792,1,66,_Remix_Guitar,-1,-1
63,100,0.1,100,1,67,_Remix_Guitar,-1,-1
63,100,0.2409090909090909,136,0,67,_Remix_Guitar,-1,-1
58,100,0.1409090909090909,273,0,67,_Remix_Guitar,-1,-1
46,100,0.4,436,0,67,_Remix_Guitar,-1,-1
46,100,0.35909090909090907,637,1,67,_Remix_Guitar,-1,-1
46,100,0.3409090909090909,773,0,67,_Remix_Guitar,-1,-1
51,100,0.35909090909090907,43,1,68,_Remix_Guitar,-1,-1
58,100,0.35909090909090907,176,0,68,_Remix_Guitar,-1,-1
51,100,0.2590909090909091,343,0,68,_Remix_Guitar,-1,-1
56,100,0.32272727272727275,430,0,68,_Remix_Guitar,-1,-1
51,100,0.2590909090909091,673,1,68,_Remix_Guitar,-1,-1
56,100,0.16363636363636364,157,1,69,_Remix_Guitar,-1,-1
51,100,0.1590909090909091,220,0,69,_Remix_Guitar,-1,-1
51,100,0.4818181818181818,289,0,69,_Remix_Guitar,-1,-1
60,100,0.2590909090909091,726,1,69,_Remix_Guitar,-1,-1
60,100,0.2409090909090909,796,0,69,_Remix_Guitar,-1,-1
60,100,0.12272727272727273,69,1,70,_Remix_Guitar,-1,-1
54,100,0.11818181818181818,119,0,70,_Remix_Guitar,-1,-1
60,100,0.1409090909090909,365,1,70,_Remix_Guitar,-1,-1
63,100,0.5,475,0,70,_Remix_Guitar,-1,-1
51,100,0.16363636363636364,619,0,70,_Remix_Guitar,-1,-1
56,100,0.5227272727272727,663,0,70,_Remix_Guitar,-1,-1
56,100,0.18181818181818182,826,0,70,_Remix_Guitar,-1,-1
51,100,0.1409090909090909,417,1,71,_Remix_Guitar,-1,-1
56,100,0.2409090909090909,475,0,71,_Remix_Guitar,-1,-1
51,100,0.32272727272727275,553,0,71,_Remix_Guitar,-1,-1
63,100,0.22272727272727272,673,0,71,_Remix_Guitar,-1,-1
51,100,0.2,796,0,71,_Remix_Guitar,-1,-1
55,100,0.2,853,1,72,_Remix_Guitar,-1,-1
51,100,0.16363636363636364,47,1,73,_Remix_Guitar,-1,-1
55,100,0.1409090909090909,113,0,73,_Remix_Guitar,-1,-1
63,100,0.18181818181818182,286,0,73,_Remix_Guitar,-1,-1
55,100,0.23636363636363636,546,1,73,_Remix_Guitar,-1,-1
51,100,0.36363636363636365,663,0,73,_Remix_Guitar,-1,-1
56,100,0.11818181818181818,836,0,73,_Remix_Guitar,-1,-1
51,100,0.2,56,1,74,_Remix_Guitar,-1,-1
51,100,0.21818181818181817,163,0,74,_Remix_Guitar,-1,-1
53,100,0.23636363636363636,502,1,74,_Remix_Guitar,-1,-1
60,100,0.1409090909090909,839,1,74,_Remix_Guitar,-1,-1
55,100,0.1,123,1,75,_Remix_Guitar,-1,-1
55,100,0.1409090909090909,299,0,75,_Remix_Guitar,-1,-1
63,100,0.23636363636363636,392,0,75,_Remix_Guitar,-1,-1
55,100,0.5,669,1,75,_Remix_Guitar,-1,-1
55,100,0.2590909090909091,800,0,75,_Remix_Guitar,-1,-1
60,100,0.1,250,1,76,_Remix_Guitar,-1,-1
63,100,0.1590909090909091,299,0,76,_Remix_Guitar,-1,-1
48,100,0.2590909090909091,540,1,76,_Remix_Guitar,-1,-1
48,100,0.1,690,0,76,_Remix_Guitar,-1,-1
56,100,0.13636363636363635,743,0,76,_Remix_Guitar,-1,-1
63,100,0.2409090909090909,800,0,76,_Remix_Guitar,-1,-1
62,100,0.3,462,1,77,_Remix_Guitar,-1,-1
62,100,0.3,590,0,77,_Remix_Guitar,-1,-1
62,100,0.37727272727272726,690,0,77,_Remix_Guitar,-1,-1
62,100,0.21818181818181817,119,1,78,_Remix_Guitar,-1,-1
51,100,0.8227272727272728,289,0,78,_Remix_Guitar,-1,-1
63,100,0.2409090909090909,470,0,78,_Remix_Guitar,-1,-1
51,100,0.6181818181818182,523,0,78,_Remix_Guitar,-1,-1
51,100,0.37727272727272726,669,0,78,_Remix_Guitar,-1,-1
51,100,0.8590909090909091,787,0,78,_Remix_Guitar,-1,-1
63,100,0.2,96,1,79,_Remix_Guitar,-1,-1
51,100,0.9,153,0,79,_Remix_Guitar,-1,-1
63,100,0.21818181818181817,352,1,79,_Remix_Guitar,-1,-1
51,100,1.6818181818181819,409,0,79,_Remix_Guitar,-1,-1
51,100,0.5409090909090909,783,1,79,_Remix_Guitar,-1,-1
51,100,1.0,40,1,80,_Remix_Guitar,-1,-1
51,100,0.1,563,1,80,_Remix_Guitar,-1,-1
51,100,0.1590909090909091,695,0,80,_Remix_Guitar,-1,-1
56,100,0.1,796,0,80,_Remix_Guitar,-1,-1
46,100,0.5590909090909091,145,1,81,_Remix_Guitar,-1,-1
58,100,0.1409090909090909,286,0,81,_Remix_Guitar,-1,-1
58,100,0.1409090909090909,320,0,81,_Remix_Guitar,-1,-1
46,100,0.12272727272727273,563,1,81,_Remix_Guitar,-1,-1
63,100,0.3409090909090909,330,1,82,_Remix_Guitar,-1,-1
43,100,0.18181818181818182,422,0,82,_Remix_Guitar,-1,-1
51,100,0.4590909090909091,800,1,82,_Remix_Guitar,-1,-1
51,100,0.2409090909090909,35,1,83,_Remix_Guitar,-1,-1
51,100,0.2,106,0,83,_Remix_Guitar,-1,-1
62,100,0.22272727272727272,475,1,83,_Remix_Guitar,-1,-1
46,100,0.2,553,0,83,_Remix_Guitar,-1,-1
53,100,0.1409090909090909,619,0,83,_Remix_Guitar,-1,-1
62,100,0.2409090909090909,729,0,83,_Remix_Guitar,-1,-1
62,100,0.1409090909090909,817,0,83,_Remix_Guitar,-1,-1
51,100,0.740909090909091,30,1,84,_Remix_Guitar,-1,-1
51,100,0.11818181818181818,316,1,84,_Remix_Guitar,-1,-1
51,100,0.2772727272727273,413,0,84,_Remix_Guitar,-1,-1
51,100,0.5181818181818182,550,0,84,_Remix_Guitar,-1,-1
51,100,0.1,870,1,84,_Remix_Guitar,-1,-1
63,100,0.3181818181818182,30,1,85,_Remix_Guitar,-1,-1
48,100,0.4590909090909091,172,0,85,_Remix_Guitar,-1,-1
63,100,0.21818181818181817,294,0,85,_Remix_Guitar,-1,-1
63,100,0.3,347,0,85,_Remix_Guitar,-1,-1
48,100,0.1590909090909091,483,0,85,_Remix_Guitar,-1,-1
62,100,0.11818181818181818,74,1,86,_Remix_Guitar,-1,-1
55,100,0.11818181818181818,237,0,86,_Remix_Guitar,-1,-1
55,100,0.22272727272727272,343,0,86,_Remix_Guitar,-1,-1
43,100,0.2,422,0,86,_Remix_Guitar,-1,-1
58,100,0.4,800,1,86,_Remix_Guitar,-1,-1
44,100,0.18181818181818182,43,1,87,_Remix_Guitar,-1,-1
44,100,0.3,157,0,87,_Remix_Guitar,-1,-1
63,100,0.16363636363636364,223,0,87,_Remix_Guitar,-1,-1
63,100,0.4590909090909091,303,0,87,_Remix_Guitar,-1,-1
56,100,0.11818181818181818,436,0,87,_Remix_Guitar,-1,-1
44,100,0.2,553,0,87,_Remix_Guitar,-1,-1
44,100,0.1590909090909091,650,0,87,_Remix_Guitar,-1,-1
63,100,0.18181818181818182,686,0,87,_Remix_Guitar,-1,-1
63,100,0.38181818181818183,796,0,87,_Remix_Guitar,-1,-1
56,100,0.12272727272727273,35,1,88,_Remix_Guitar,-1,-1
56,100,0.2,83,0,88,_Remix_Guitar,-1,-1
51,100,0.38181818181818183,197,1,89,_Remix_Guitar,-1,-1
44,100,0.2,430,1,89,_Remix_Guitar,-1,-1
53,100,0.2409090909090909,113,1,90,_Remix_Guitar,-1,-1
54,100,0.1,237,0,90,_Remix_Guitar,-1,-1
48,100,0.1409090909090909,637,1,90,_Remix_Guitar,-1,-1
63,100,0.11818181818181818,62,1,91,_Remix_Guitar,-1,-1
63,100,0.2409090909090909,163,0,91,_Remix_Guitar,-1,-1
63,100,0.2590909090909091,726,1,91,_Remix_Guitar,-1,-1
58,100,0.2,677,1,92,_Remix_Guitar,-1,-1
51,100,0.11818181818181818,876,1,92,_Remix_Guitar,-1,-1
63,100,0.5409090909090909,157,1,93,_Remix_Guitar,-1,-1
51,100,0.5590909090909091,409,1,93,_Remix_Guitar,-1,-1
51,100,0.1409090909090909,550,0,93,_Remix_Guitar,-1,-1
56,100,0.1590909090909091,787,1,93,_Remix_Guitar,-1,-1
46,100,0.11818181818181818,493,1,94,_Remix_Guitar,-1,-1
62,100,0.2590909090909091,559,0,94,_Remix_Guitar,-1,-1
55,100,0.18181818181818182,805,1,94,_Remix_Guitar,-1,-1
55,100,0.2,540,1,95,_Remix_Guitar,-1,-1
63,100,0.18181818181818182,110,1,96,_Remix_Guitar,-1,-1
63,100,0.11818181818181818,197,0,96,_Remix_Guitar,-1,-1
63,100,0.35909090909090907,263,0,96,_Remix_Guitar,-1,-1
55,100,0.1409090909090909,673,1,96,_Remix_Guitar,-1,-1
50,100,0.1590909090909091,747,0,96,_Remix_Guitar,-1,-1
62,100,0.37727272727272726,193,1,97,_Remix_Guitar,-1,-1
62,100,1.0636363636363637,289,0,97,_Remix_Guitar,-1,-1
62,100,0.7772727272727272,800,1,97,_Remix_Guitar,-1,-1
53,100,0.1590909090909091,145,1,98,_Remix_Guitar,-1,-1
62,100,0.1590909090909091,193,0,98,_Remix_Guitar,-1,-1
62,100,1.9772727272727273,339,0,98,_Remix_Guitar,-1,-1
62,100,0.11818181818181818,779,1,98,_Remix_Guitar,-1,-1
62,100,0.1409090909090909,356,1,99,_Remix_Guitar,-1,-1
55,100,0.35909090909090907,540,1,100,_Remix_Guitar,-1,-1
55,100,0.3,157,1,101,_Remix_Guitar,-1,-1
63,100,0.1590909090909091,580,1,102,_Remix_Guitar,-1,-1
56,100,0.2590909090909091,163,1,104,_Remix_Guitar,-1,-1
63,100,0.3,320,0,104,_Remix_Guitar,-1,-1
53,100,0.36363636363636365,157,1,105,_Remix_Guitar,-1,-1
62,100,0.1,466,1,105,_Remix_Guitar,-1,-1
63,100,0.2409090909090909,739,1,105,_Remix_Guitar,-1,-1
60,100,0.17727272727272728,193,1,106,_Remix_Guitar,-1,-1
63,100,0.1,690,1,106,_Remix_Guitar,-1,-1
62,100,0.2,436,1,107,_Remix_Guitar,-1,-1
62,100,0.4,509,0,107,_Remix_Guitar,-1,-1
62,100,0.2590909090909091,695,0,107,_Remix_Guitar,-1,-1
62,100,0.4,13,1,108,_Remix_Guitar,-1,-1
62,100,0.17727272727272728,106,0,108,_Remix_Guitar,-1,-1
62,100,0.2,430,1,108,_Remix_Guitar,-1,-1
53,100,0.18181818181818182,862,1,108,_Remix_Guitar,-1,-1
53,100,0.11818181818181818,30,1,109,_Remix_Guitar,-1,-1
63,100,0.6,857,1,109,_Remix_Guitar,-1,-1
63,100,0.1,113,1,110,_Remix_Guitar,-1,-1
53,100,0.1,294,0,110,_Remix_Guitar,-1,-1
48,100,0.5363636363636364,260,1,111,_Remix_Guitar,-1,-1
63,100,0.3409090909090909,496,1,111,_Remix_Guitar,-1,-1
63,100,0.1409090909090909,650,0,111,_Remix_Guitar,-1,-1
48,100,0.1409090909090909,796,0,111,_Remix_Guitar,-1,-1
58,100,0.2,686,1,113,_Remix_Guitar,-1,-1
53,100,0.3181818181818182,677,1,115,_Remix_Guitar,-1,-1
55,100,0.1590909090909091,62,1,116,_Remix_Guitar,-1,-1
55,100,0.1590909090909091,360,1,116,_Remix_Guitar,-1,-1
41,100,0.18181818181818182,593,1,116,_Remix_Guitar,-1,-1
53,100,0.2,677,0,116,_Remix_Guitar,-1,-1
53,100,0.1590909090909091,426,1,117,_Remix_Guitar,-1,-1
53,100,0.11818181818181818,237,1,119,_Remix_Guitar,-1,-1
55,100,0.1,457,1,119,_Remix_Guitar,-1,-1
43,100,0.2409090909090909,682,1,120,_Remix_Guitar,-1,-1
53,100,0.12272727272727273,210,1,121,_Remix_Guitar,-1,-1
53,100,0.1409090909090909,660,1,122,_Remix_Guitar,-1,-1
63,100,0.1,839,1,124,_Remix_Guitar,-1,-1
48,100,0.12272727272727273,532,1,125,_Remix_Guitar,-1,-1
48,100,0.2590909090909091,612,0,125,_Remix_Guitar,-1,-1
48,100,0.32272727272727275,673,0,125,_Remix_Guitar,-1,-1
48,100,0.1590909090909091,779,0,125,_Remix_Guitar,-1,-1
48,100,0.11818181818181818,153,1,126,_Remix_Guitar,-1,-1
48,100,0.4,206,0,126,_Remix_Guitar,-1,-1
48,100,0.9,307,0,126,_Remix_Guitar,-1,-1
53,100,0.3,40,1,127,_Remix_Guitar,-1,-1
41,100,0.2,106,0,127,_Remix_Guitar,-1,-1
48,100,0.2409090909090909,603,1,127,_Remix_Guitar,-1,-1
57,100,0.2,232,1,128,_Remix_Guitar,-1,-1
50,100,0.2,307,0,128,_Remix_Guitar,-1,-1
53,100,0.1409090909090909,295,1,129,_Remix_Guitar,-1,-1
48,100,0.1,584,1,129,_Remix_Guitar,-1,-1
48,100,0.43636363636363634,809,1,129,_Remix_Guitar,-1,-1
48,100,0.1,369,1,130,_Remix_Guitar,-1,-1
53,100,0.41818181818181815,413,0,130,_Remix_Guitar,-1,-1
41,100,0.1,633,1,130,_Remix_Guitar,-1,-1
53,100,0.1,682,0,130,_Remix_Guitar,-1,-1
53,100,0.38181818181818183,796,0,130,_Remix_Guitar,-1,-1
53,100,0.1590909090909091,238,1,131,_Remix_Guitar,-1,-1
48,100,0.16363636363636364,311,1,132,_Remix_Guitar,-1,-1
43,100,0.1,193,1,134,_Remix_Guitar,-1,-1
60,100,0.1,228,1,135,_Remix_Guitar,-1,-1
48,100,0.22272727272727272,826,1,135,_Remix_Guitar,-1,-1
53,100,0.1409090909090909,79,1,136,_Remix_Guitar,-1,-1
53,100,0.18181818181818182,180,0,136,_Remix_Guitar,-1,-1
46,100,0.21818181818181817,611,1,138,_Remix_Guitar,-1,-1
48,100,0.2,87,1,139,_Remix_Guitar,-1,-1
50,100,0.1,378,1,140,_Remix_Guitar,-1,-1
46,100,0.1,660,1,140,_Remix_Guitar,-1,-1
46,100,0.2409090909090909,686,0,140,_Remix_Guitar,-1,-1
46,100,0.1590909090909091,761,0,140,_Remix_Guitar,-1,-1
46,100,0.18181818181818182,826,0,140,_Remix_Guitar,-1,-1
60,100,0.1590909090909091,185,1,142,_Remix_Guitar,-1,-1
50,100,0.21818181818181817,307,0,142,_Remix_Guitar,-1,-1
50,100,0.2409090909090909,553,1,142,_Remix_Guitar,-1,-1
57,100,0.17727272727272728,492,1,0,DL_Guitar,-1,-1
50,100,0.6181818181818182,546,0,0,DL_Guitar,-1,-1
50,100,0.5227272727272727,695,0,0,DL_Guitar,-1,-1
52,100,0.7,166,1,1,DL_Guitar,-1,-1
52,100,0.1,351,0,1,DL_Guitar,-1,-1
59,100,0.1409090909090909,449,0,1,DL_Guitar,-1,-1
40,100,0.22272727272727272,576,0,1,DL_Guitar,-1,-1
52,100,0.11818181818181818,638,0,1,DL_Guitar,-1,-1
44,100,0.5,681,0,1,DL_Guitar,-1,-1
54,100,0.4409090909090909,796,0,1,DL_Guitar,-1,-1
59,100,0.2,12,1,2,DL_Guitar,-1,-1
44,100,0.12272727272727273,91,0,2,DL_Guitar,-1,-1
54,100,0.3409090909090909,421,1,2,DL_Guitar,-1,-1
57,100,0.33636363636363636,501,0,2,DL_Guitar,-1,-1
50,100,0.6818181818181818,796,1,2,DL_Guitar,-1,-1
57,100,0.1409090909090909,70,1,3,DL_Guitar,-1,-1
50,100,0.35909090909090907,100,0,3,DL_Guitar,-1,-1
50,100,0.1,356,1,3,DL_Guitar,-1,-1
40,100,0.3409090909090909,466,0,3,DL_Guitar,-1,-1
59,100,0.3,550,0,3,DL_Guitar,-1,-1
64,100,0.2818181818181818,629,0,3,DL_Guitar,-1,-1
40,100,0.1409090909090909,739,0,3,DL_Guitar,-1,-1
40,100,0.3181818181818182,836,0,3,DL_Guitar,-1,-1
45,100,0.5590909090909091,53,1,4,DL_Guitar,-1,-1
45,100,0.18181818181818182,189,0,4,DL_Guitar,-1,-1
61,100,0.2590909090909091,255,0,4,DL_Guitar,-1,-1
45,100,1.6227272727272728,444,0,4,DL_Guitar,-1,-1
64,100,0.3,871,1,4,DL_Guitar,-1,-1
52,100,0.3,56,1,5,DL_Guitar,-1,-1
50,100,0.5590909090909091,171,0,5,DL_Guitar,-1,-1
50,100,0.1590909090909091,325,0,5,DL_Guitar,-1,-1
50,100,0.22272727272727272,378,0,5,DL_Guitar,-1,-1
45,100,0.11818181818181818,572,0,5,DL_Guitar,-1,-1
52,100,0.5772727272727273,678,0,5,DL_Guitar,-1,-1
52,100,0.2636363636363636,862,0,5,DL_Guitar,-1,-1
64,100,0.1,79,1,6,DL_Guitar,-1,-1
52,100,0.8,105,0,6,DL_Guitar,-1,-1
44,100,0.5409090909090909,294,0,6,DL_Guitar,-1,-1
54,100,0.43636363636363634,414,0,6,DL_Guitar,-1,-1
59,100,0.2409090909090909,514,0,6,DL_Guitar,-1,-1
42,100,0.740909090909091,805,1,6,DL_Guitar,-1,-1
54,100,0.1409090909090909,87,1,7,DL_Guitar,-1,-1
57,100,0.32272727272727275,122,0,7,DL_Guitar,-1,-1
54,100,0.1409090909090909,317,0,7,DL_Guitar,-1,-1
50,100,0.2,581,1,7,DL_Guitar,-1,-1
59,100,0.1,34,1,8,DL_Guitar,-1,-1
52,100,0.1,127,0,8,DL_Guitar,-1,-1
40,100,0.2772727272727273,149,0,8,DL_Guitar,-1,-1
59,100,0.37727272727272726,347,0,8,DL_Guitar,-1,-1
54,100,0.3409090909090909,448,0,8,DL_Guitar,-1,-1
45,100,0.1409090909090909,558,0,8,DL_Guitar,-1,-1
45,100,0.35909090909090907,594,0,8,DL_Guitar,-1,-1
52,100,0.38181818181818183,673,0,8,DL_Guitar,-1,-1
57,100,0.3,766,0,8,DL_Guitar,-1,-1
52,100,0.1,840,0,8,DL_Guitar,-1,-1
57,100,0.21818181818181817,0,1,9,DL_Guitar,-1,-1
61,100,0.23636363636363636,106,0,9,DL_Guitar,-1,-1
57,100,0.2590909090909091,163,0,9,DL_Guitar,-1,-1
61,100,0.2772727272727273,405,1,9,DL_Guitar,-1,-1
57,100,0.11818181818181818,484,0,9,DL_Guitar,-1,-1
57,100,0.1409090909090909,515,0,9,DL_Guitar,-1,-1
50,100,0.1409090909090909,575,0,9,DL_Guitar,-1,-1
45,100,0.5,694,0,9,DL_Guitar,-1,-1
52,100,0.23636363636363636,809,0,9,DL_Guitar,-1,-1
45,100,0.1,87,1,10,DL_Guitar,-1,-1
52,100,0.2409090909090909,113,0,10,DL_Guitar,-1,-1
52,100,0.2409090909090909,299,0,10,DL_Guitar,-1,-1
64,100,0.1,400,0,10,DL_Guitar,-1,-1
59,100,0.32272727272727275,431,0,10,DL_Guitar,-1,-1
52,100,0.1590909090909091,611,0,10,DL_Guitar,-1,-1
52,100,0.43636363636363634,656,0,10,DL_Guitar,-1,-1
52,100,0.4409090909090909,795,0,10,DL_Guitar,-1,-1
52,100,0.11818181818181818,264,1,11,DL_Guitar,-1,-1
43,100,0.1,493,1,11,DL_Guitar,-1,-1
50,100,0.2636363636363636,70,1,12,DL_Guitar,-1,-1
52,100,0.1,572,1,12,DL_Guitar,-1,-1
40,100,0.3181818181818182,603,0,12,DL_Guitar,-1,-1
54,100,0.2590909090909091,189,1,13,DL_Guitar,-1,-1
54,100,0.1,691,1,13,DL_Guitar,-1,-1
40,100,0.2409090909090909,364,1,14,DL_Guitar,-1,-1
64,100,0.11818181818181818,457,0,14,DL_Guitar,-1,-1
64,100,0.2590909090909091,871,1,14,DL_Guitar,-1,-1
40,100,0.1,216,1,15,DL_Guitar,-1,-1
40,100,0.21818181818181817,242,0,15,DL_Guitar,-1,-1
54,100,0.1,694,1,15,DL_Guitar,-1,-1
55,100,0.1,747,0,15,DL_Guitar,-1,-1
52,100,0.2,52,1,16,DL_Guitar,-1,-1
52,100,0.35909090909090907,100,0,16,DL_Guitar,-1,-1
52,100,0.1409090909090909,638,1,16,DL_Guitar,-1,-1
52,100,0.2,193,1,17,DL_Guitar,-1,-1
52,100,0.2409090909090909,250,0,17,DL_Guitar,-1,-1
55,100,0.16363636363636364,443,0,17,DL_Guitar,-1,-1
55,100,0.1,492,1,18,DL_Guitar,-1,-1
45,100,0.2590909090909091,858,1,18,DL_Guitar,-1,-1
57,100,0.2590909090909091,430,1,19,DL_Guitar,-1,-1
52,100,0.2636363636363636,488,0,19,DL_Guitar,-1,-1
64,100,0.1,677,0,19,DL_Guitar,-1,-1
64,100,0.2,704,0,19,DL_Guitar,-1,-1
54,100,1.0818181818181818,57,1,20,DL_Guitar,-1,-1
54,100,0.17727272727272728,382,1,20,DL_Guitar,-1,-1
54,100,0.1409090909090909,426,0,20,DL_Guitar,-1,-1
50,100,0.5409090909090909,559,0,20,DL_Guitar,-1,-1
57,100,0.2636363636363636,686,0,20,DL_Guitar,-1,-1
57,100,0.18181818181818182,760,0,20,DL_Guitar,-1,-1
57,100,0.23636363636363636,106,1,21,DL_Guitar,-1,-1
57,100,0.1,179,0,21,DL_Guitar,-1,-1
45,100,0.18181818181818182,202,0,21,DL_Guitar,-1,-1
45,100,0.11818181818181818,260,0,21,DL_Guitar,-1,-1
57,100,0.38181818181818183,285,0,21,DL_Guitar,-1,-1
61,100,0.21818181818181817,505,1,21,DL_Guitar,-1,-1
57,100,0.11818181818181818,590,0,21,DL_Guitar,-1,-1
40,100,0.2409090909090909,739,0,21,DL_Guitar,-1,-1
40,100,0.1,839,0,21,DL_Guitar,-1,-1
54,100,1.0772727272727274,326,1,22,DL_Guitar,-1,-1
54,100,0.2818181818181818,694,1,22,DL_Guitar,-1,-1
62,100,0.1409090909090909,791,0,22,DL_Guitar,-1,-1
50,100,0.4409090909090909,822,0,22,DL_Guitar,-1,-1
50,100,0.1409090909090909,75,1,23,DL_Guitar,-1,-1
57,100,0.1,206,0,23,DL_Guitar,-1,-1
57,100,0.35909090909090907,299,0,23,DL_Guitar,-1,-1
57,100,0.1590909090909091,382,0,23,DL_Guitar,-1,-1
52,100,0.6,546,0,23,DL_Guitar,-1,-1
52,100,0.12272727272727273,717,0,23,DL_Guitar,-1,-1
64,100,0.1409090909090909,9,1,24,DL_Guitar,-1,-1
54,100,0.4,48,0,24,DL_Guitar,-1,-1
54,100,0.2409090909090909,189,0,24,DL_Guitar,-1,-1
52,100,0.2590909090909091,308,0,24,DL_Guitar,-1,-1
40,100,0.22272727272727272,364,0,24,DL_Guitar,-1,-1
54,100,0.1409090909090909,515,0,24,DL_Guitar,-1,-1
54,100,0.7772727272727272,567,0,24,DL_Guitar,-1,-1
54,100,0.21818181818181817,748,0,24,DL_Guitar,-1,-1
54,100,0.11818181818181818,52,1,25,DL_Guitar,-1,-1
54,100,0.11818181818181818,131,0,25,DL_Guitar,-1,-1
50,100,0.5636363636363636,179,0,25,DL_Guitar,-1,-1
62,100,0.2409090909090909,316,0,25,DL_Guitar,-1,-1
62,100,0.2818181818181818,374,0,25,DL_Guitar,-1,-1
50,100,0.22272727272727272,576,1,25,DL_Guitar,-1,-1
57,100,0.11818181818181818,677,0,25,DL_Guitar,-1,-1
45,100,0.41818181818181815,704,0,25,DL_Guitar,-1,-1
61,100,0.1409090909090909,818,0,25,DL_Guitar,-1,-1
57,100,0.5363636363636364,61,1,26,DL_Guitar,-1,-1
52,100,0.35909090909090907,409,1,26,DL_Guitar,-1,-1
52,100,0.1590909090909091,515,0,26,DL_Guitar,-1,-1
52,100,0.5227272727272727,686,0,26,DL_Guitar,-1,-1
54,100,0.1409090909090909,57,1,27,DL_Guitar,-1,-1
50,100,0.4636363636363636,443,1,27,DL_Guitar,-1,-1
50,100,0.3,559,0,27,DL_Guitar,-1,-1
62,100,0.1409090909090909,625,0,27,DL_Guitar,-1,-1
62,100,0.12272727272727273,739,0,27,DL_Guitar,-1,-1
57,100,0.2590909090909091,814,0,27,DL_Guitar,-1,-1
52,100,0.8,52,1,28,DL_Guitar,-1,-1
52,100,0.42272727272727273,443,1,28,DL_Guitar,-1,-1
52,100,0.5409090909090909,686,1,28,DL_Guitar,-1,-1
52,100,0.3,13,1,29,DL_Guitar,-1,-1
52,100,0.1590909090909091,83,0,29,DL_Guitar,-1,-1
64,100,0.2,119,0,29,DL_Guitar,-1,-1
43,100,1.0227272727272727,378,1,29,DL_Guitar,-1,-1
43,100,0.1590909090909091,611,1,29,DL_Guitar,-1,-1
43,100,0.22272727272727272,650,0,29,DL_Guitar,-1,-1
57,100,0.4818181818181818,320,1,30,DL_Guitar,-1,-1
57,100,0.38181818181818183,440,0,30,DL_Guitar,-1,-1
50,100,0.2590909090909091,633,0,30,DL_Guitar,-1,-1
57,100,0.1590909090909091,770,0,30,DL_Guitar,-1,-1
57,100,0.8409090909090909,866,0,30,DL_Guitar,-1,-1
57,100,0.5181818181818182,185,1,31,DL_Guitar,-1,-1
57,100,0.5409090909090909,308,0,31,DL_Guitar,-1,-1
52,100,0.18181818181818182,453,0,31,DL_Guitar,-1,-1
52,100,0.13636363636363635,523,0,31,DL_Guitar,-1,-1
59,100,0.35909090909090907,571,0,31,DL_Guitar,-1,-1
59,100,0.2590909090909091,700,0,31,DL_Guitar,-1,-1
52,100,0.1,822,0,31,DL_Guitar,-1,-1
59,100,0.5,188,1,32,DL_Guitar,-1,-1
54,100,0.1590909090909091,426,1,32,DL_Guitar,-1,-1
54,100,0.2636363636363636,488,0,32,DL_Guitar,-1,-1
59,100,0.1,593,0,32,DL_Guitar,-1,-1
54,100,0.3409090909090909,691,0,32,DL_Guitar,-1,-1
59,100,0.4772727272727273,831,0,32,DL_Guitar,-1,-1
57,100,0.2409090909090909,118,1,33,DL_Guitar,-1,-1
52,100,0.5181818181818182,308,0,33,DL_Guitar,-1,-1
52,100,0.1590909090909091,453,0,33,DL_Guitar,-1,-1
52,100,0.2,571,0,33,DL_Guitar,-1,-1
45,100,0.2,871,1,33,DL_Guitar,-1,-1
57,100,0.2,188,1,34,DL_Guitar,-1,-1
57,100,0.22272727272727272,254,0,34,DL_Guitar,-1,-1
45,100,0.41818181818181815,325,0,34,DL_Guitar,-1,-1
52,100,0.2,480,0,34,DL_Guitar,-1,-1
57,100,1.0818181818181818,818,1,34,DL_Guitar,-1,-1
57,100,0.5590909090909091,298,1,35,DL_Guitar,-1,-1
52,100,0.3,488,0,35,DL_Guitar,-1,-1
52,100,0.5772727272727273,558,0,35,DL_Guitar,-1,-1
59,100,0.3181818181818182,735,0,35,DL_Guitar,-1,-1
52,100,0.1409090909090909,826,0,35,DL_Guitar,-1,-1
57,100,0.22272727272727272,4,1,36,DL_Guitar,-1,-1
53,100,0.4818181818181818,66,0,36,DL_Guitar,-1,-1
53,100,0.5409090909090909,179,0,36,DL_Guitar,-1,-1
59,100,0.1590909090909091,325,0,36,DL_Guitar,-1,-1
53,100,0.37727272727272726,435,0,36,DL_Guitar,-1,-1
54,100,0.42272727272727273,554,0,36,DL_Guitar,-1,-1
54,100,0.1409090909090909,813,1,36,DL_Guitar,-1,-1
54,100,0.5409090909090909,871,0,36,DL_Guitar,-1,-1
54,100,0.5409090909090909,179,1,37,DL_Guitar,-1,-1
54,100,0.5,311,0,37,DL_Guitar,-1,-1
59,100,0.13636363636363635,523,1,37,DL_Guitar,-1,-1
59,100,0.1409090909090909,584,0,37,DL_Guitar,-1,-1
57,100,0.22272727272727272,628,0,37,DL_Guitar,-1,-1
59,100,0.2,708,0,37,DL_Guitar,-1,-1
40,100,0.11818181818181818,8,1,38,DL_Guitar,-1,-1
59,100,0.2818181818181818,48,0,38,DL_Guitar,-1,-1
59,100,0.2,198,0,38,DL_Guitar,-1,-1
57,100,0.1590909090909091,260,0,38,DL_Guitar,-1,-1
45,100,0.35909090909090907,343,0,38,DL_Guitar,-1,-1
57,100,0.1590909090909091,571,1,38,DL_Guitar,-1,-1
43,100,0.1590909090909091,858,1,38,DL_Guitar,-1,-1
62,100,0.2,461,1,39,DL_Guitar,-1,-1
50,100,0.18181818181818182,506,0,39,DL_Guitar,-1,-1
50,100,0.18181818181818182,694,0,39,DL_Guitar,-1,-1
57,100,0.5590909090909091,804,0,39,DL_Guitar,-1,-1
52,100,0.8772727272727273,75,1,40,DL_Guitar,-1,-1
52,100,0.13636363636363635,413,1,40,DL_Guitar,-1,-1
52,100,0.17727272727272728,448,0,40,DL_Guitar,-1,-1
53,100,0.6,681,1,40,DL_Guitar,-1,-1
53,100,0.2636363636363636,48,1,41,DL_Guitar,-1,-1
59,100,0.18181818181818182,224,0,41,DL_Guitar,-1,-1
54,100,0.4772727272727273,316,0,41,DL_Guitar,-1,-1
59,100,0.2590909090909091,435,0,41,DL_Guitar,-1,-1
54,100,0.3,501,0,41,DL_Guitar,-1,-1
54,100,0.2409090909090909,576,0,41,DL_Guitar,-1,-1
54,100,0.2772727272727273,678,0,41,DL_Guitar,-1,-1
54,100,0.4590909090909091,813,0,41,DL_Guitar,-1,-1
59,100,0.2409090909090909,66,1,42,DL_Guitar,-1,-1
62,100,0.2,128,0,42,DL_Guitar,-1,-1
47,100,0.2,193,0,42,DL_Guitar,-1,-1
57,100,0.2,254,0,42,DL_Guitar,-1,-1
52,100,0.4818181818181818,321,0,42,DL_Guitar,-1,-1
59,100,0.2818181818181818,616,1,42,DL_Guitar,-1,-1
52,100,0.16363636363636364,708,0,42,DL_Guitar,-1,-1
52,100,0.11818181818181818,831,0,42,DL_Guitar,-1,-1
57,100,0.2818181818181818,48,1,43,DL_Guitar,-1,-1
57,100,0.5181818181818182,813,1,43,DL_Guitar,-1,-1
50,100,0.5772727272727273,53,1,44,DL_Guitar,-1,-1
44,100,0.43636363636363634,193,0,44,DL_Guitar,-1,-1
43,100,0.1409090909090909,289,0,44,DL_Guitar,-1,-1
43,100,0.9181818181818182,330,0,44,DL_Guitar,-1,-1
64,100,0.1590909090909091,721,1,44,DL_Guitar,-1,-1
64,100,0.35909090909090907,788,0,44,DL_Guitar,-1,-1
64,100,0.32272727272727275,871,0,44,DL_Guitar,-1,-1
53,100,0.12272727272727273,211,1,45,DL_Guitar,-1,-1
44,100,0.6636363636363637,378,0,45,DL_Guitar,-1,-1
54,100,0.36363636363636365,686,1,45,DL_Guitar,-1,-1
54,100,0.23636363636363636,810,0,45,DL_Guitar,-1,-1
44,100,0.11818181818181818,61,1,46,DL_Guitar,-1,-1
44,100,0.33636363636363636,105,0,46,DL_Guitar,-1,-1
62,100,0.3181818181818182,668,1,46,DL_Guitar,-1,-1
50,100,0.17727272727272728,756,0,46,DL_Guitar,-1,-1
52,100,0.2818181818181818,826,0,46,DL_Guitar,-1,-1
52,100,0.12272727272727273,13,1,47,DL_Guitar,-1,-1
52,100,0.4409090909090909,43,0,47,DL_Guitar,-1,-1
52,100,0.5818181818181818,179,0,47,DL_Guitar,-1,-1
40,100,0.4,308,0,47,DL_Guitar,-1,-1
53,100,1.240909090909091,426,0,47,DL_Guitar,-1,-1
49,100,0.7,765,1,47,DL_Guitar,-1,-1
54,100,0.42272727272727273,48,1,48,DL_Guitar,-1,-1
61,100,0.2,163,0,48,DL_Guitar,-1,-1
42,100,0.8409090909090909,220,0,48,DL_Guitar,-1,-1
61,100,0.4818181818181818,440,1,48,DL_Guitar,-1,-1
50,100,1.1409090909090909,651,1,48,DL_Guitar,-1,-1
62,100,0.4,34,1,49,DL_Guitar,-1,-1
52,100,1.3590909090909091,176,0,49,DL_Guitar,-1,-1
52,100,0.2,480,1,49,DL_Guitar,-1,-1
52,100,0.1590909090909091,638,0,49,DL_Guitar,-1,-1
53,100,1.6363636363636365,678,0,49,DL_Guitar,-1,-1
54,100,0.23636363636363636,303,1,50,DL_Guitar,-1,-1
61,100,0.2409090909090909,440,0,50,DL_Guitar,-1,-1
42,100,0.11818181818181818,545,0,50,DL_Guitar,-1,-1
61,100,0.4818181818181818,571,0,50,DL_Guitar,-1,-1
61,100,0.3,691,0,50,DL_Guitar,-1,-1
57,100,0.13636363636363635,788,0,50,DL_Guitar,-1,-1
50,100,0.1590909090909091,853,0,50,DL_Guitar,-1,-1
50,100,1.3590909090909091,21,1,51,DL_Guitar,-1,-1
52,100,0.5,431,1,51,DL_Guitar,-1,-1
52,100,0.1,545,0,51,DL_Guitar,-1,-1
52,100,0.11818181818181818,691,0,51,DL_Guitar,-1,-1
40,100,0.5181818181818182,756,0,51,DL_Guitar,-1,-1
54,100,0.1590909090909091,0,1,52,DL_Guitar,-1,-1
54,100,0.1,56,0,52,DL_Guitar,-1,-1
61,100,0.7,91,0,52,DL_Guitar,-1,-1
54,100,0.3,254,0,52,DL_Guitar,-1,-1
54,100,0.1,325,0,52,DL_Guitar,-1,-1
61,100,2.640909090909091,426,0,52,DL_Guitar,-1,-1
57,100,1.440909090909091,158,1,53,DL_Guitar,-1,-1
50,100,0.11818181818181818,568,1,53,DL_Guitar,-1,-1
52,100,2.1,681,0,53,DL_Guitar,-1,-1
52,100,0.11818181818181818,303,1,54,DL_Guitar,-1,-1
57,100,0.18181818181818182,418,1,55,DL_Guitar,-1,-1
45,100,0.23636363636363636,458,0,55,DL_Guitar,-1,-1
57,100,0.1409090909090909,518,0,55,DL_Guitar,-1,-1
57,100,0.37727272727272726,558,0,55,DL_Guitar,-1,-1
57,100,0.21818181818181817,660,0,55,DL_Guitar,-1,-1
57,100,0.38181818181818183,726,0,55,DL_Guitar,-1,-1
45,100,0.17727272727272728,128,1,56,DL_Guitar,-1,-1
50,100,0.11818181818181818,568,1,56,DL_Guitar,-1,-1
57,100,0.2409090909090909,625,0,56,DL_Guitar,-1,-1
57,100,0.4818181818181818,703,0,56,DL_Guitar,-1,-1
50,100,0.16363636363636364,818,0,56,DL_Guitar,-1,-1
57,100,0.22272727272727272,4,1,57,DL_Guitar,-1,-1
57,100,0.4,91,0,57,DL_Guitar,-1,-1
50,100,0.13636363636363635,215,0,57,DL_Guitar,-1,-1
57,100,0.4818181818181818,330,0,57,DL_Guitar,-1,-1
57,100,0.2590909090909091,453,0,57,DL_Guitar,-1,-1
50,100,0.18181818181818182,576,0,57,DL_Guitar,-1,-1
61,100,0.5,691,0,57,DL_Guitar,-1,-1
59,100,0.6,810,0,57,DL_Guitar,-1,-1
59,100,0.18181818181818182,153,1,58,DL_Guitar,-1,-1
59,100,0.1,215,0,58,DL_Guitar,-1,-1
52,100,0.4409090909090909,330,0,58,DL_Guitar,-1,-1
52,100,0.11818181818181818,536,1,58,DL_Guitar,-1,-1
40,100,0.2,593,0,58,DL_Guitar,-1,-1
61,100,0.1409090909090909,48,1,59,DL_Guitar,-1,-1
61,100,0.3,110,0,59,DL_Guitar,-1,-1
45,100,0.3409090909090909,444,1,59,DL_Guitar,-1,-1
57,100,0.1409090909090909,770,1,59,DL_Guitar,-1,-1
45,100,0.1409090909090909,69,1,60,DL_Guitar,-1,-1
57,100,0.11818181818181818,330,1,60,DL_Guitar,-1,-1
61,100,0.5636363636363636,421,0,60,DL_Guitar,-1,-1
61,100,0.3181818181818182,678,1,60,DL_Guitar,-1,-1
42,100,0.11818181818181818,396,1,61,DL_Guitar,-1,-1
57,100,0.4636363636363636,444,0,61,DL_Guitar,-1,-1
54,100,0.35909090909090907,550,0,61,DL_Guitar,-1,-1
57,100,0.13636363636363635,633,0,61,DL_Guitar,-1,-1
57,100,0.11818181818181818,316,1,62,DL_Guitar,-1,-1
57,100,0.1,471,0,62,DL_Guitar,-1,-1
57,100,0.18181818181818182,628,0,62,DL_Guitar,-1,-1
59,100,0.4590909090909091,810,0,62,DL_Guitar,-1,-1
61,100,0.13636363636363635,171,1,63,DL_Guitar,-1,-1
59,100,0.35909090909090907,316,0,63,DL_Guitar,-1,-1
57,100,0.2409090909090909,431,0,63,DL_Guitar,-1,-1
54,100,0.1,691,1,63,DL_Guitar,-1,-1
54,100,0.17727272727272728,721,0,63,DL_Guitar,-1,-1
57,100,0.12272727272727273,774,0,63,DL_Guitar,-1,-1
54,100,0.11818181818181818,813,0,63,DL_Guitar,-1,-1
54,100,0.12272727272727273,848,0,63,DL_Guitar,-1,-1
57,100,0.1590909090909091,0,1,64,DL_Guitar,-1,-1
57,100,0.7181818181818181,550,1,64,DL_Guitar,-1,-1
57,100,0.4,849,1,64,DL_Guitar,-1,-1
57,100,0.2409090909090909,66,1,65,DL_Guitar,-1,-1
50,100,0.2,119,0,65,DL_Guitar,-1,-1
59,100,0.8363636363636363,172,0,65,DL_Guitar,-1,-1
61,100,0.2409090909090909,404,1,65,DL_Guitar,-1,-1
49,100,0.3409090909090909,475,0,65,DL_Guitar,-1,-1
50,100,1.6590909090909092,700,1,65,DL_Guitar,-1,-1
50,100,0.4590909090909091,193,1,66,DL_Guitar,-1,-1
59,100,0.8590909090909091,426,1,66,DL_Guitar,-1,-1
62,100,0.12272727272727273,849,1,66,DL_Guitar,-1,-1
62,100,0.1590909090909091,0,1,67,DL_Guitar,-1,-1
64,100,0.5181818181818182,40,0,67,DL_Guitar,-1,-1
64,100,0.3409090909090909,176,0,67,DL_Guitar,-1,-1
52,100,0.37727272727272726,436,1,67,DL_Guitar,-1,-1
40,100,0.12272727272727273,519,0,67,DL_Guitar,-1,-1
52,100,0.17727272727272728,546,0,67,DL_Guitar,-1,-1
52,100,0.1590909090909091,603,0,67,DL_Guitar,-1,-1
52,100,0.13636363636363635,656,0,67,DL_Guitar,-1,-1
52,100,0.3409090909090909,690,0,67,DL_Guitar,-1,-1
40,100,0.1590909090909091,766,0,67,DL_Guitar,-1,-1
52,100,0.38181818181818183,849,0,67,DL_Guitar,-1,-1
52,100,0.2,233,1,68,DL_Guitar,-1,-1
52,100,0.37727272727272726,294,0,68,DL_Guitar,-1,-1
40,100,0.1,430,0,68,DL_Guitar,-1,-1
59,100,0.13636363636363635,457,0,68,DL_Guitar,-1,-1
57,100,0.4,189,1,69,DL_Guitar,-1,-1
52,100,0.2,686,1,69,DL_Guitar,-1,-1
52,100,0.1590909090909091,832,0,69,DL_Guitar,-1,-1
52,100,0.2590909090909091,56,1,70,DL_Guitar,-1,-1
59,100,0.1409090909090909,140,0,70,DL_Guitar,-1,-1
53,100,0.5818181818181818,307,0,70,DL_Guitar,-1,-1
53,100,0.1590909090909091,453,0,70,DL_Guitar,-1,-1
53,100,0.1409090909090909,642,0,70,DL_Guitar,-1,-1
56,100,0.11818181818181818,734,0,70,DL_Guitar,-1,-1
42,100,0.32272727272727275,826,0,70,DL_Guitar,-1,-1
61,100,0.11818181818181818,153,1,71,DL_Guitar,-1,-1
57,100,0.1590909090909091,673,1,71,DL_Guitar,-1,-1
50,100,0.11818181818181818,770,0,71,DL_Guitar,-1,-1
57,100,0.2,823,0,71,DL_Guitar,-1,-1
57,100,0.1590909090909091,9,1,72,DL_Guitar,-1,-1
59,100,1.059090909090909,193,0,72,DL_Guitar,-1,-1
57,100,0.33636363636363636,743,1,72,DL_Guitar,-1,-1
45,100,0.5227272727272727,179,1,73,DL_Guitar,-1,-1
61,100,0.11818181818181818,514,1,73,DL_Guitar,-1,-1
61,100,0.42272727272727273,585,0,73,DL_Guitar,-1,-1
57,100,0.3409090909090909,870,1,73,DL_Guitar,-1,-1
57,100,0.21818181818181817,132,1,74,DL_Guitar,-1,-1
57,100,0.2772727272727273,237,0,74,DL_Guitar,-1,-1
40,100,0.1,392,0,74,DL_Guitar,-1,-1
52,100,0.2590909090909091,559,0,74,DL_Guitar,-1,-1
52,100,0.18181818181818182,619,0,74,DL_Guitar,-1,-1
64,100,0.18181818181818182,682,0,74,DL_Guitar,-1,-1
59,100,0.2818181818181818,726,0,74,DL_Guitar,-1,-1
61,100,0.1,17,1,75,DL_Guitar,-1,-1
53,100,1.1409090909090909,47,0,75,DL_Guitar,-1,-1
61,100,0.6409090909090909,316,1,75,DL_Guitar,-1,-1
42,100,0.4,457,0,75,DL_Guitar,-1,-1
61,100,0.12272727272727273,606,0,75,DL_Guitar,-1,-1
42,100,0.17727272727272728,633,0,75,DL_Guitar,-1,-1
61,100,0.3,739,0,75,DL_Guitar,-1,-1
59,100,0.17727272727272728,9,1,76,DL_Guitar,-1,-1
47,100,0.5818181818181818,47,0,76,DL_Guitar,-1,-1
47,100,0.42272727272727273,267,1,76,DL_Guitar,-1,-1
52,100,0.18181818181818182,550,1,76,DL_Guitar,-1,-1
40,100,0.35909090909090907,603,0,76,DL_Guitar,-1,-1
40,100,0.2,695,0,76,DL_Guitar,-1,-1
52,100,0.1409090909090909,739,0,76,DL_Guitar,-1,-1
52,100,0.16363636363636364,773,0,76,DL_Guitar,-1,-1
59,100,0.21818181818181817,813,0,76,DL_Guitar,-1,-1
40,100,0.17727272727272728,127,1,77,DL_Guitar,-1,-1
59,100,0.3,176,0,77,DL_Guitar,-1,-1
59,100,0.5590909090909091,307,0,77,DL_Guitar,-1,-1
64,100,0.18181818181818182,440,0,77,DL_Guitar,-1,-1
59,100,0.17727272727272728,502,0,77,DL_Guitar,-1,-1
59,100,0.4409090909090909,559,0,77,DL_Guitar,-1,-1
45,100,0.1590909090909091,110,1,78,DL_Guitar,-1,-1
57,100,0.3,289,0,78,DL_Guitar,-1,-1
59,100,0.2,246,1,80,DL_Guitar,-1,-1
59,100,0.17727272727272728,294,0,80,DL_Guitar,-1,-1
59,100,0.2,496,1,80,DL_Guitar,-1,-1
45,100,0.5227272727272727,553,0,80,DL_Guitar,-1,-1
52,100,0.2772727272727273,722,0,80,DL_Guitar,-1,-1
52,100,0.6227272727272727,47,1,81,DL_Guitar,-1,-1
61,100,1.7818181818181817,263,1,81,DL_Guitar,-1,-1
50,100,0.12272727272727273,862,1,81,DL_Guitar,-1,-1
57,100,0.2590909090909091,127,1,82,DL_Guitar,-1,-1
57,100,0.2409090909090909,263,0,82,DL_Guitar,-1,-1
57,100,0.1,320,0,82,DL_Guitar,-1,-1
57,100,0.759090909090909,440,0,82,DL_Guitar,-1,-1
50,100,0.18181818181818182,642,1,82,DL_Guitar,-1,-1
57,100,0.12272727272727273,13,1,83,DL_Guitar,-1,-1
57,100,0.2,303,1,83,DL_Guitar,-1,-1
52,100,0.1,857,1,83,DL_Guitar,-1,-1
42,100,0.1,56,1,84,DL_Guitar,-1,-1
42,100,0.41818181818181815,83,0,84,DL_Guitar,-1,-1
61,100,0.3,197,0,84,DL_Guitar,-1,-1
42,100,0.13636363636363635,303,0,84,DL_Guitar,-1,-1
61,100,1.0,347,0,84,DL_Guitar,-1,-1
42,100,0.4772727272727273,567,1,84,DL_Guitar,-1,-1
61,100,0.5227272727272727,707,0,84,DL_Guitar,-1,-1
61,100,0.38181818181818183,836,0,84,DL_Guitar,-1,-1
52,100,0.4818181818181818,166,1,85,DL_Guitar,-1,-1
52,100,0.6,286,0,85,DL_Guitar,-1,-1
52,100,0.3,422,0,85,DL_Guitar,-1,-1
52,100,0.35909090909090907,603,0,85,DL_Guitar,-1,-1
59,100,0.32272727272727275,729,0,85,DL_Guitar,-1,-1
59,100,0.18181818181818182,817,0,85,DL_Guitar,-1,-1
40,100,0.2,9,1,86,DL_Guitar,-1,-1
40,100,0.18181818181818182,66,0,86,DL_Guitar,-1,-1
64,100,0.2409090909090909,113,0,86,DL_Guitar,-1,-1
59,100,0.42272727272727273,202,0,86,DL_Guitar,-1,-1
57,100,0.1409090909090909,493,1,86,DL_Guitar,-1,-1
57,100,0.35909090909090907,527,0,86,DL_Guitar,-1,-1
57,100,0.2772727272727273,624,0,86,DL_Guitar,-1,-1
57,100,1.1590909090909092,813,0,86,DL_Guitar,-1,-1
57,100,0.2409090909090909,250,1,87,DL_Guitar,-1,-1
50,100,0.2,316,0,87,DL_Guitar,-1,-1
45,100,0.4,436,0,87,DL_Guitar,-1,-1
47,100,0.36363636363636365,729,1,88,DL_Guitar,-1,-1
47,100,0.7227272727272728,13,1,89,DL_Guitar,-1,-1
47,100,0.2,360,1,89,DL_Guitar,-1,-1
47,100,0.16363636363636364,509,0,89,DL_Guitar,-1,-1
59,100,0.1409090909090909,506,1,90,DL_Guitar,-1,-1
59,100,0.1,646,0,90,DL_Guitar,-1,-1
59,100,0.4590909090909091,823,0,90,DL_Guitar,-1,-1
59,100,0.5,79,1,91,DL_Guitar,-1,-1
40,100,0.12272727272727273,267,0,91,DL_Guitar,-1,-1
52,100,0.17727272727272728,316,0,91,DL_Guitar,-1,-1
40,100,0.1409090909090909,386,0,91,DL_Guitar,-1,-1
40,100,0.17727272727272728,502,0,91,DL_Guitar,-1,-1
40,100,0.17727272727272728,756,1,91,DL_Guitar,-1,-1
52,100,0.4,817,0,91,DL_Guitar,-1,-1
57,100,0.22272727272727272,100,1,92,DL_Guitar,-1,-1
55,100,0.11818181818181818,426,1,92,DL_Guitar,-1,-1
55,100,0.11818181818181818,480,0,92,DL_Guitar,-1,-1
56,100,0.1409090909090909,506,0,92,DL_Guitar,-1,-1
52,100,0.4,572,0,92,DL_Guitar,-1,-1
59,100,0.32272727272727275,707,0,92,DL_Guitar,-1,-1
40,100,0.2818181818181818,805,0,92,DL_Guitar,-1,-1
64,100,0.16363636363636364,3,1,93,DL_Guitar,-1,-1
59,100,0.11818181818181818,150,0,93,DL_Guitar,-1,-1
47,100,0.4,206,0,93,DL_Guitar,-1,-1
57,100,0.5181818181818182,844,1,93,DL_Guitar,-1,-1
59,100,0.3181818181818182,813,1,94,DL_Guitar,-1,-1
59,100,0.32272727272727275,92,1,95,DL_Guitar,-1,-1
40,100,0.2772727272727273,163,0,95,DL_Guitar,-1,-1
59,100,0.1409090909090909,223,0,95,DL_Guitar,-1,-1
47,100,0.41818181818181815,457,1,95,DL_Guitar,-1,-1
47,100,0.4590909090909091,624,0,95,DL_Guitar,-1,-1
54,100,0.1590909090909091,53,1,96,DL_Guitar,-1,-1
57,100,0.6181818181818182,734,1,96,DL_Guitar,-1,-1
57,100,0.21818181818181817,0,1,97,DL_Guitar,-1,-1
43,100,0.2590909090909091,119,0,97,DL_Guitar,-1,-1
59,100,0.4818181818181818,189,0,97,DL_Guitar,-1,-1
40,100,0.4,399,1,97,DL_Guitar,-1,-1
64,100,0.11818181818181818,493,0,97,DL_Guitar,-1,-1
57,100,0.8409090909090909,823,1,97,DL_Guitar,-1,-1
57,100,0.12272727272727273,157,1,98,DL_Guitar,-1,-1
45,100,0.1590909090909091,255,0,98,DL_Guitar,-1,-1
45,100,0.2409090909090909,377,0,98,DL_Guitar,-1,-1
45,100,1.8227272727272728,496,0,98,DL_Guitar,-1,-1
45,100,3.040909090909091,22,1,99,DL_Guitar,-1,-1
57,100,0.2409090909090909,443,1,100,DL_Guitar,-1,-1
57,100,0.2409090909090909,563,0,100,DL_Guitar,-1,-1
57,100,0.2,633,0,100,DL_Guitar,-1,-1
59,100,0.5590909090909091,810,0,100,DL_Guitar,-1,-1
59,100,0.11818181818181818,83,1,101,DL_Guitar,-1,-1
59,100,0.4,153,0,101,DL_Guitar,-1,-1
59,100,0.2,260,0,101,DL_Guitar,-1,-1
59,100,0.5227272727272727,430,0,101,DL_Guitar,-1,-1
53,100,0.3,677,1,101,DL_Guitar,-1,-1
59,100,0.2,756,0,101,DL_Guitar,-1,-1
42,100,0.32272727272727275,100,1,102,DL_Guitar,-1,-1
57,100,0.4772727272727273,193,0,102,DL_Guitar,-1,-1
45,100,0.1,576,1,102,DL_Guitar,-1,-1
57,100,0.18181818181818182,597,0,102,DL_Guitar,-1,-1
57,100,0.4636363636363636,707,0,102,DL_Guitar,-1,-1
57,100,0.1,839,0,102,DL_Guitar,-1,-1
57,100,0.12272727272727273,35,1,103,DL_Guitar,-1,-1
59,100,0.5181818181818182,184,0,103,DL_Guitar,-1,-1
59,100,0.7227272727272728,312,0,103,DL_Guitar,-1,-1
52,100,0.13636363636363635,502,0,103,DL_Guitar,-1,-1
45,100,0.32272727272727275,686,0,103,DL_Guitar,-1,-1
45,100,0.1590909090909091,770,0,103,DL_Guitar,-1,-1
45,100,0.11818181818181818,853,0,103,DL_Guitar,-1,-1
45,100,0.2,127,1,104,DL_Guitar,-1,-1
57,100,0.1,282,0,104,DL_Guitar,-1,-1
57,100,0.18181818181818182,466,0,104,DL_Guitar,-1,-1
57,100,0.1,514,0,104,DL_Guitar,-1,-1
57,100,0.2590909090909091,540,0,104,DL_Guitar,-1,-1
57,100,0.11818181818181818,616,0,104,DL_Guitar,-1,-1
57,100,0.2409090909090909,682,0,104,DL_Guitar,-1,-1
57,100,0.1,743,0,104,DL_Guitar,-1,-1
57,100,0.1590909090909091,770,0,104,DL_Guitar,-1,-1
57,100,0.1,813,0,104,DL_Guitar,-1,-1
57,100,0.11818181818181818,9,1,105,DL_Guitar,-1,-1
52,100,1.290909090909091,610,1,13,DL_deepemotion_Guitar_1,-1,-1
62,100,0.20909090909090908,764,1,15,DL_deepemotion_Guitar_1,-1,-1
47,100,0.10454545454545454,838,0,15,DL_deepemotion_Guitar_1,-1,-1
47,100,0.15,874,0,15,DL_deepemotion_Guitar_1,-1,-1
62,100,0.4772727272727273,37,1,16,DL_deepemotion_Guitar_1,-1,-1
47,100,1.3363636363636364,192,0,16,DL_deepemotion_Guitar_1,-1,-1
47,100,0.4772727272727273,499,1,16,DL_deepemotion_Guitar_1,-1,-1
43,100,0.12272727272727273,247,1,17,DL_deepemotion_Guitar_1,-1,-1
62,100,0.4590909090909091,715,1,17,DL_deepemotion_Guitar_1,-1,-1
62,100,0.37727272727272726,834,0,17,DL_deepemotion_Guitar_1,-1,-1
50,100,0.20909090909090908,361,1,18,DL_deepemotion_Guitar_1,-1,-1
50,100,0.2318181818181818,655,1,18,DL_deepemotion_Guitar_1,-1,-1
57,100,0.9181818181818182,270,1,19,DL_deepemotion_Guitar_1,-1,-1
50,100,0.14545454545454545,477,1,19,DL_deepemotion_Guitar_1,-1,-1
50,100,0.31363636363636366,567,0,19,DL_deepemotion_Guitar_1,-1,-1
52,100,2.3363636363636364,655,0,19,DL_deepemotion_Guitar_1,-1,-1
62,100,0.5181818181818182,288,1,20,DL_deepemotion_Guitar_1,-1,-1
62,100,0.20909090909090908,416,0,20,DL_deepemotion_Guitar_1,-1,-1
52,100,0.33181818181818185,540,0,20,DL_deepemotion_Guitar_1,-1,-1
50,100,0.20909090909090908,756,1,20,DL_deepemotion_Guitar_1,-1,-1
50,100,0.9545454545454546,807,0,20,DL_deepemotion_Guitar_1,-1,-1
50,100,0.12272727272727273,202,1,21,DL_deepemotion_Guitar_1,-1,-1
58,100,0.7318181818181818,292,0,21,DL_deepemotion_Guitar_1,-1,-1
58,100,0.5227272727272727,536,1,21,DL_deepemotion_Guitar_1,-1,-1
57,100,0.16818181818181818,110,1,22,DL_deepemotion_Guitar_1,-1,-1
45,100,0.9772727272727273,147,0,22,DL_deepemotion_Guitar_1,-1,-1
57,100,0.16818181818181818,361,1,22,DL_deepemotion_Guitar_1,-1,-1
45,100,0.19090909090909092,426,0,22,DL_deepemotion_Guitar_1,-1,-1
45,100,1.2272727272727273,471,0,22,DL_deepemotion_Guitar_1,-1,-1
64,100,0.14545454545454545,261,1,23,DL_deepemotion_Guitar_1,-1,-1
62,100,0.41363636363636364,797,1,23,DL_deepemotion_Guitar_1,-1,-1
50,100,0.16818181818181818,133,1,24,DL_deepemotion_Guitar_1,-1,-1
62,100,0.12272727272727273,188,0,24,DL_deepemotion_Guitar_1,-1,-1
50,100,0.4818181818181818,251,0,24,DL_deepemotion_Guitar_1,-1,-1
57,100,0.20909090909090908,361,0,24,DL_deepemotion_Guitar_1,-1,-1
50,100,0.35454545454545455,573,1,24,DL_deepemotion_Guitar_1,-1,-1
61,100,0.31363636363636366,518,1,25,DL_deepemotion_Guitar_1,-1,-1
61,100,0.75,642,0,25,DL_deepemotion_Guitar_1,-1,-1
61,100,0.37727272727272726,820,0,25,DL_deepemotion_Guitar_1,-1,-1
45,100,0.5,114,1,26,DL_deepemotion_Guitar_1,-1,-1
61,100,0.2681818181818182,279,0,26,DL_deepemotion_Guitar_1,-1,-1
45,100,0.37272727272727274,389,0,26,DL_deepemotion_Guitar_1,-1,-1
61,100,1.0,536,0,26,DL_deepemotion_Guitar_1,-1,-1
45,100,0.12727272727272726,779,1,26,DL_deepemotion_Guitar_1,-1,-1
50,100,0.8545454545454545,875,0,26,DL_deepemotion_Guitar_1,-1,-1
57,100,0.16363636363636364,114,1,28,DL_deepemotion_Guitar_1,-1,-1
57,100,0.16818181818181818,559,1,28,DL_deepemotion_Guitar_1,-1,-1
57,100,0.25,224,1,29,DL_deepemotion_Guitar_1,-1,-1
64,100,0.5,306,0,29,DL_deepemotion_Guitar_1,-1,-1
64,100,0.25,444,0,29,DL_deepemotion_Guitar_1,-1,-1
64,100,0.12272727272727273,532,0,29,DL_deepemotion_Guitar_1,-1,-1
61,100,1.0,669,0,29,DL_deepemotion_Guitar_1,-1,-1
57,100,0.41818181818181815,133,1,30,DL_deepemotion_Guitar_1,-1,-1
57,100,0.12272727272727273,233,0,30,DL_deepemotion_Guitar_1,-1,-1
64,100,0.16818181818181818,306,0,30,DL_deepemotion_Guitar_1,-1,-1
45,100,0.18636363636363637,357,0,30,DL_deepemotion_Guitar_1,-1,-1
45,100,0.16363636363636364,422,0,30,DL_deepemotion_Guitar_1,-1,-1
57,100,0.16363636363636364,595,0,30,DL_deepemotion_Guitar_1,-1,-1
61,100,0.10454545454545454,715,0,30,DL_deepemotion_Guitar_1,-1,-1
57,100,0.39545454545454545,746,0,30,DL_deepemotion_Guitar_1,-1,-1
62,100,0.5636363636363636,41,1,31,DL_deepemotion_Guitar_1,-1,-1
62,100,0.14545454545454545,206,0,31,DL_deepemotion_Guitar_1,-1,-1
62,100,1.0,243,0,31,DL_deepemotion_Guitar_1,-1,-1
47,100,0.2681818181818182,532,1,31,DL_deepemotion_Guitar_1,-1,-1
54,100,0.3090909090909091,609,0,31,DL_deepemotion_Guitar_1,-1,-1
62,100,0.20909090909090908,715,0,31,DL_deepemotion_Guitar_1,-1,-1
62,100,0.41818181818181815,765,0,31,DL_deepemotion_Guitar_1,-1,-1
50,100,0.18636363636363637,206,1,32,DL_deepemotion_Guitar_1,-1,-1
62,100,0.39545454545454545,256,0,32,DL_deepemotion_Guitar_1,-1,-1
62,100,0.22727272727272727,357,0,32,DL_deepemotion_Guitar_1,-1,-1
62,100,0.15,412,0,32,DL_deepemotion_Guitar_1,-1,-1
62,100,0.18636363636363637,467,0,32,DL_deepemotion_Guitar_1,-1,-1
57,100,0.43636363636363634,531,0,32,DL_deepemotion_Guitar_1,-1,-1
62,100,0.37727272727272726,632,0,32,DL_deepemotion_Guitar_1,-1,-1
57,100,0.20909090909090908,733,0,32,DL_deepemotion_Guitar_1,-1,-1
62,100,0.2727272727272727,811,0,32,DL_deepemotion_Guitar_1,-1,-1
62,100,1.1045454545454545,18,1,33,DL_deepemotion_Guitar_1,-1,-1
62,100,0.10454545454545454,266,1,33,DL_deepemotion_Guitar_1,-1,-1
62,100,0.8363636363636363,293,0,33,DL_deepemotion_Guitar_1,-1,-1
50,100,0.2909090909090909,665,1,33,DL_deepemotion_Guitar_1,-1,-1
50,100,0.12272727272727273,783,0,33,DL_deepemotion_Guitar_1,-1,-1
62,100,0.12272727272727273,22,1,34,DL_deepemotion_Guitar_1,-1,-1
57,100,1.3727272727272728,156,0,34,DL_deepemotion_Guitar_1,-1,-1
45,100,0.2727272727272727,458,1,34,DL_deepemotion_Guitar_1,-1,-1
57,100,0.5,544,0,34,DL_deepemotion_Guitar_1,-1,-1
57,100,1.0227272727272727,660,0,34,DL_deepemotion_Guitar_1,-1,-1
45,100,0.10454545454545454,5,1,35,DL_deepemotion_Guitar_1,-1,-1
57,100,0.2681818181818182,27,0,35,DL_deepemotion_Guitar_1,-1,-1
50,100,0.16818181818181818,118,0,35,DL_deepemotion_Guitar_1,-1,-1
62,100,0.7090909090909091,288,0,35,DL_deepemotion_Guitar_1,-1,-1
62,100,0.20909090909090908,448,0,35,DL_deepemotion_Guitar_1,-1,-1
50,100,0.35454545454545455,22,1,36,DL_deepemotion_Guitar_1,-1,-1
57,100,0.22727272727272727,385,1,36,DL_deepemotion_Guitar_1,-1,-1
62,100,0.2318181818181818,544,0,36,DL_deepemotion_Guitar_1,-1,-1
50,100,0.6227272727272727,641,0,36,DL_deepemotion_Guitar_1,-1,-1
62,100,0.29545454545454547,852,1,36,DL_deepemotion_Guitar_1,-1,-1
62,100,0.12272727272727273,55,1,37,DL_deepemotion_Guitar_1,-1,-1
62,100,0.14545454545454545,87,0,37,DL_deepemotion_Guitar_1,-1,-1
45,100,0.16818181818181818,192,0,37,DL_deepemotion_Guitar_1,-1,-1
64,100,0.14545454545454545,266,0,37,DL_deepemotion_Guitar_1,-1,-1
57,100,0.31363636363636366,352,0,37,DL_deepemotion_Guitar_1,-1,-1
57,100,0.25,558,1,37,DL_deepemotion_Guitar_1,-1,-1
57,100,0.16818181818181818,623,0,37,DL_deepemotion_Guitar_1,-1,-1
57,100,0.2318181818181818,668,0,37,DL_deepemotion_Guitar_1,-1,-1
57,100,0.2318181818181818,733,0,37,DL_deepemotion_Guitar_1,-1,-1
64,100,0.12727272727272726,788,0,37,DL_deepemotion_Guitar_1,-1,-1
57,100,1.290909090909091,866,0,37,DL_deepemotion_Guitar_1,-1,-1
64,100,0.5636363636363636,269,1,38,DL_deepemotion_Guitar_1,-1,-1
45,100,0.41818181818181815,440,0,38,DL_deepemotion_Guitar_1,-1,-1
45,100,0.4818181818181818,599,0,38,DL_deepemotion_Guitar_1,-1,-1
64,100,0.4772727272727273,706,0,38,DL_deepemotion_Guitar_1,-1,-1
62,100,0.14545454545454545,8,1,39,DL_deepemotion_Guitar_1,-1,-1
59,100,0.20909090909090908,311,1,39,DL_deepemotion_Guitar_1,-1,-1
62,100,0.8318181818181818,495,0,39,DL_deepemotion_Guitar_1,-1,-1
50,100,0.2909090909090909,678,0,39,DL_deepemotion_Guitar_1,-1,-1
50,100,0.14545454545454545,797,0,39,DL_deepemotion_Guitar_1,-1,-1
57,100,0.31363636363636366,833,0,39,DL_deepemotion_Guitar_1,-1,-1
62,100,0.2681818181818182,101,1,40,DL_deepemotion_Guitar_1,-1,-1
57,100,0.16818181818181818,165,0,40,DL_deepemotion_Guitar_1,-1,-1
62,100,0.8136363636363636,293,0,40,DL_deepemotion_Guitar_1,-1,-1
57,100,0.5818181818181818,476,0,40,DL_deepemotion_Guitar_1,-1,-1
57,100,0.25,627,0,40,DL_deepemotion_Guitar_1,-1,-1
57,100,0.2727272727272727,733,0,40,DL_deepemotion_Guitar_1,-1,-1
50,100,0.14545454545454545,5,1,41,DL_deepemotion_Guitar_1,-1,-1
57,100,0.31363636363636366,41,0,41,DL_deepemotion_Guitar_1,-1,-1
57,100,0.2727272727272727,118,0,41,DL_deepemotion_Guitar_1,-1,-1
59,100,1.3772727272727272,197,0,41,DL_deepemotion_Guitar_1,-1,-1
59,100,0.33181818181818185,627,1,41,DL_deepemotion_Guitar_1,-1,-1
64,100,0.2909090909090909,723,0,41,DL_deepemotion_Guitar_1,-1,-1
64,100,0.2909090909090909,806,0,41,DL_deepemotion_Guitar_1,-1,-1
59,100,0.12727272727272726,18,1,42,DL_deepemotion_Guitar_1,-1,-1
52,100,0.2909090909090909,63,0,42,DL_deepemotion_Guitar_1,-1,-1
62,100,0.12727272727272726,159,0,42,DL_deepemotion_Guitar_1,-1,-1
57,100,0.2727272727272727,220,0,42,DL_deepemotion_Guitar_1,-1,-1
57,100,0.6681818181818182,283,0,42,DL_deepemotion_Guitar_1,-1,-1
45,100,0.12727272727272726,440,0,42,DL_deepemotion_Guitar_1,-1,-1
57,100,0.43636363636363634,582,0,42,DL_deepemotion_Guitar_1,-1,-1
57,100,0.39545454545454545,706,0,42,DL_deepemotion_Guitar_1,-1,-1
45,100,0.16818181818181818,792,0,42,DL_deepemotion_Guitar_1,-1,-1
57,100,0.25,838,0,42,DL_deepemotion_Guitar_1,-1,-1
57,100,0.18636363636363637,101,1,43,DL_deepemotion_Guitar_1,-1,-1
50,100,0.12272727272727273,431,1,43,DL_deepemotion_Guitar_1,-1,-1
50,100,0.10454545454545454,591,0,43,DL_deepemotion_Guitar_1,-1,-1
50,100,0.12727272727272726,623,0,43,DL_deepemotion_Guitar_1,-1,-1
62,100,0.12727272727272726,214,1,44,DL_deepemotion_Guitar_1,-1,-1
57,100,0.4772727272727273,242,0,44,DL_deepemotion_Guitar_1,-1,-1
62,100,0.1,500,1,44,DL_deepemotion_Guitar_1,-1,-1
62,100,0.10454545454545454,527,0,44,DL_deepemotion_Guitar_1,-1,-1
62,100,0.25,816,1,44,DL_deepemotion_Guitar_1,-1,-1
62,100,0.12272727272727273,146,1,45,DL_deepemotion_Guitar_1,-1,-1
57,100,0.25,178,0,45,DL_deepemotion_Guitar_1,-1,-1
62,100,0.9818181818181818,238,0,45,DL_deepemotion_Guitar_1,-1,-1
62,100,0.5636363636363636,816,1,45,DL_deepemotion_Guitar_1,-1,-1
57,100,0.35454545454545455,142,1,46,DL_deepemotion_Guitar_1,-1,-1
57,100,0.25,269,0,46,DL_deepemotion_Guitar_1,-1,-1
59,100,0.29545454545454547,434,0,46,DL_deepemotion_Guitar_1,-1,-1
57,100,0.33636363636363636,503,0,46,DL_deepemotion_Guitar_1,-1,-1
57,100,0.7318181818181818,723,1,46,DL_deepemotion_Guitar_1,-1,-1
59,100,0.14545454545454545,701,1,47,DL_deepemotion_Guitar_1,-1,-1
52,100,0.20909090909090908,747,0,47,DL_deepemotion_Guitar_1,-1,-1
47,100,0.16818181818181818,871,0,47,DL_deepemotion_Guitar_1,-1,-1
62,100,0.33181818181818185,220,1,48,DL_deepemotion_Guitar_1,-1,-1
57,100,0.33181818181818185,531,1,48,DL_deepemotion_Guitar_1,-1,-1
50,100,0.2318181818181818,613,0,48,DL_deepemotion_Guitar_1,-1,-1
57,100,0.20454545454545456,555,1,49,DL_deepemotion_Guitar_1,-1,-1
59,100,0.16363636363636364,861,1,49,DL_deepemotion_Guitar_1,-1,-1
57,100,1.9136363636363636,115,1,50,DL_deepemotion_Guitar_1,-1,-1
52,100,0.9772727272727273,792,1,50,DL_deepemotion_Guitar_1,-1,-1
50,100,0.25,605,1,51,DL_deepemotion_Guitar_1,-1,-1
50,100,0.37272727272727274,728,0,51,DL_deepemotion_Guitar_1,-1,-1
57,100,0.10454545454545454,362,1,52,DL_deepemotion_Guitar_1,-1,-1
62,100,0.5454545454545454,489,0,52,DL_deepemotion_Guitar_1,-1,-1
62,100,0.35454545454545455,737,1,52,DL_deepemotion_Guitar_1,-1,-1
62,100,0.16818181818181818,128,1,53,DL_deepemotion_Guitar_1,-1,-1
62,100,0.12272727272727273,288,0,53,DL_deepemotion_Guitar_1,-1,-1
62,100,0.2727272727272727,330,0,53,DL_deepemotion_Guitar_1,-1,-1
54,100,0.39545454545454545,407,0,53,DL_deepemotion_Guitar_1,-1,-1
54,100,0.1,500,0,53,DL_deepemotion_Guitar_1,-1,-1
45,100,0.5636363636363636,843,1,53,DL_deepemotion_Guitar_1,-1,-1
57,100,0.18636363636363637,187,1,54,DL_deepemotion_Guitar_1,-1,-1
43,100,0.19090909090909092,403,1,54,DL_deepemotion_Guitar_1,-1,-1
62,100,0.18636363636363637,673,1,54,DL_deepemotion_Guitar_1,-1,-1
57,100,0.25,783,0,54,DL_deepemotion_Guitar_1,-1,-1
57,100,1.0,852,0,54,DL_deepemotion_Guitar_1,-1,-1
57,100,0.9545454545454546,201,1,55,DL_deepemotion_Guitar_1,-1,-1
57,100,0.14545454545454545,421,1,55,DL_deepemotion_Guitar_1,-1,-1
57,100,0.18636363636363637,462,0,55,DL_deepemotion_Guitar_1,-1,-1
50,100,2.040909090909091,503,0,55,DL_deepemotion_Guitar_1,-1,-1
50,100,5.1045454545454545,142,1,56,DL_deepemotion_Guitar_1,-1,-1
59,100,0.33181818181818185,618,1,57,DL_deepemotion_Guitar_1,-1,-1
62,100,0.2681818181818182,783,0,57,DL_deepemotion_Guitar_1,-1,-1
62,100,0.14545454545454545,641,1,58,DL_deepemotion_Guitar_1,-1,-1
62,100,0.20909090909090908,728,0,58,DL_deepemotion_Guitar_1,-1,-1
62,100,0.20909090909090908,843,0,58,DL_deepemotion_Guitar_1,-1,-1
62,100,0.2681818181818182,115,1,59,DL_deepemotion_Guitar_1,-1,-1
62,100,0.2727272727272727,183,0,59,DL_deepemotion_Guitar_1,-1,-1
57,100,0.8954545454545455,555,1,63,DL_deepemotion_Guitar_1,-1,-1
57,100,0.16818181818181818,764,1,63,DL_deepemotion_Guitar_1,-1,-1
57,100,0.5454545454545454,819,0,63,DL_deepemotion_Guitar_1,-1,-1
57,100,0.20909090909090908,100,1,64,DL_deepemotion_Guitar_1,-1,-1
57,100,1.209090909090909,151,0,64,DL_deepemotion_Guitar_1,-1,-1
57,100,0.35454545454545455,550,1,64,DL_deepemotion_Guitar_1,-1,-1
57,100,0.2727272727272727,655,0,64,DL_deepemotion_Guitar_1,-1,-1
57,100,0.31363636363636366,732,0,64,DL_deepemotion_Guitar_1,-1,-1
57,100,0.4590909090909091,834,0,64,DL_deepemotion_Guitar_1,-1,-1
62,100,0.39545454545454545,68,1,65,DL_deepemotion_Guitar_1,-1,-1
57,100,0.6227272727272727,210,0,65,DL_deepemotion_Guitar_1,-1,-1
57,100,0.20909090909090908,375,0,65,DL_deepemotion_Guitar_1,-1,-1
52,100,0.18636363636363637,440,0,65,DL_deepemotion_Guitar_1,-1,-1
52,100,0.20909090909090908,485,0,65,DL_deepemotion_Guitar_1,-1,-1
57,100,0.20909090909090908,600,0,65,DL_deepemotion_Guitar_1,-1,-1
45,100,0.22727272727272727,673,0,65,DL_deepemotion_Guitar_1,-1,-1
57,100,0.75,724,0,65,DL_deepemotion_Guitar_1,-1,-1
57,100,1.25,13,1,66,DL_deepemotion_Guitar_1,-1,-1
62,100,0.45454545454545453,499,1,66,DL_deepemotion_Guitar_1,-1,-1
57,100,0.8136363636363636,618,0,66,DL_deepemotion_Guitar_1,-1,-1
62,100,0.5227272727272727,9,1,67,DL_deepemotion_Guitar_1,-1,-1
57,100,0.14545454545454545,174,0,67,DL_deepemotion_Guitar_1,-1,-1
62,100,0.5409090909090909,210,0,67,DL_deepemotion_Guitar_1,-1,-1
57,100,0.33636363636363636,347,0,67,DL_deepemotion_Guitar_1,-1,-1
57,100,0.5636363636363636,471,0,67,DL_deepemotion_Guitar_1,-1,-1
57,100,1.790909090909091,618,0,67,DL_deepemotion_Guitar_1,-1,-1
62,100,0.7090909090909091,408,1,68,DL_deepemotion_Guitar_1,-1,-1
57,100,1.0227272727272727,567,0,68,DL_deepemotion_Guitar_1,-1,-1
57,100,0.12272727272727273,797,1,68,DL_deepemotion_Guitar_1,-1,-1
57,100,0.6863636363636364,862,0,68,DL_deepemotion_Guitar_1,-1,-1
62,100,0.39545454545454545,141,1,69,DL_deepemotion_Guitar_1,-1,-1
62,100,0.9772727272727273,233,0,69,DL_deepemotion_Guitar_1,-1,-1
62,100,0.20909090909090908,453,1,69,DL_deepemotion_Guitar_1,-1,-1
57,100,0.10454545454545454,701,1,69,DL_deepemotion_Guitar_1,-1,-1
62,100,0.7272727272727273,825,0,69,DL_deepemotion_Guitar_1,-1,-1
62,100,0.12272727272727273,165,1,70,DL_deepemotion_Guitar_1,-1,-1
62,100,0.33181818181818185,306,0,70,DL_deepemotion_Guitar_1,-1,-1
62,100,0.9409090909090909,467,0,70,DL_deepemotion_Guitar_1,-1,-1
59,100,0.5818181818181818,37,1,71,DL_deepemotion_Guitar_1,-1,-1
50,100,0.12272727272727273,202,0,71,DL_deepemotion_Guitar_1,-1,-1
62,100,0.7318181818181818,316,0,71,DL_deepemotion_Guitar_1,-1,-1
62,100,0.31363636363636366,481,0,71,DL_deepemotion_Guitar_1,-1,-1
43,100,0.2909090909090909,618,0,71,DL_deepemotion_Guitar_1,-1,-1
62,100,2.331818181818182,783,0,71,DL_deepemotion_Guitar_1,-1,-1
62,100,0.31363636363636366,430,1,72,DL_deepemotion_Guitar_1,-1,-1
62,100,0.5227272727272727,522,0,72,DL_deepemotion_Guitar_1,-1,-1
57,100,0.18636363636363637,636,0,72,DL_deepemotion_Guitar_1,-1,-1
57,100,0.5818181818181818,697,0,72,DL_deepemotion_Guitar_1,-1,-1
57,100,0.35454545454545455,41,1,73,DL_deepemotion_Guitar_1,-1,-1
50,100,0.14545454545454545,123,0,73,DL_deepemotion_Guitar_1,-1,-1
50,100,0.12727272727272726,182,0,73,DL_deepemotion_Guitar_1,-1,-1
50,100,0.2318181818181818,215,0,73,DL_deepemotion_Guitar_1,-1,-1
62,100,0.37272727272727274,422,1,73,DL_deepemotion_Guitar_1,-1,-1
62,100,0.16818181818181818,526,0,73,DL_deepemotion_Guitar_1,-1,-1
57,100,0.37272727272727274,573,0,73,DL_deepemotion_Guitar_1,-1,-1
55,100,0.12272727272727273,719,0,73,DL_deepemotion_Guitar_1,-1,-1
59,100,0.35454545454545455,815,0,73,DL_deepemotion_Guitar_1,-1,-1
59,100,0.2909090909090909,68,1,74,DL_deepemotion_Guitar_1,-1,-1
62,100,0.6454545454545455,292,1,74,DL_deepemotion_Guitar_1,-1,-1
59,100,0.6681818181818182,435,0,74,DL_deepemotion_Guitar_1,-1,-1
61,100,0.37727272727272726,655,1,74,DL_deepemotion_Guitar_1,-1,-1
62,100,0.6681818181818182,86,1,75,DL_deepemotion_Guitar_1,-1,-1
62,100,1.3545454545454545,302,1,75,DL_deepemotion_Guitar_1,-1,-1
62,100,0.5181818181818182,642,1,75,DL_deepemotion_Guitar_1,-1,-1
57,100,0.7954545454545454,765,0,75,DL_deepemotion_Guitar_1,-1,-1
62,100,1.1863636363636363,64,1,76,DL_deepemotion_Guitar_1,-1,-1
57,100,0.6272727272727273,325,1,76,DL_deepemotion_Guitar_1,-1,-1
62,100,0.8954545454545455,554,1,76,DL_deepemotion_Guitar_1,-1,-1
57,100,1.0,765,1,76,DL_deepemotion_Guitar_1,-1,-1
62,100,0.14545454545454545,110,1,77,DL_deepemotion_Guitar_1,-1,-1
57,100,0.4818181818181818,160,0,77,DL_deepemotion_Guitar_1,-1,-1
62,100,0.10454545454545454,265,0,77,DL_deepemotion_Guitar_1,-1,-1
57,100,0.18636363636363637,361,0,77,DL_deepemotion_Guitar_1,-1,-1
62,100,0.5818181818181818,416,0,77,DL_deepemotion_Guitar_1,-1,-1
57,100,0.37727272727272726,559,0,77,DL_deepemotion_Guitar_1,-1,-1
54,100,0.12272727272727273,797,1,77,DL_deepemotion_Guitar_1,-1,-1
62,100,0.6045454545454545,147,1,78,DL_deepemotion_Guitar_1,-1,-1
47,100,0.33181818181818185,288,0,78,DL_deepemotion_Guitar_1,-1,-1
62,100,0.8318181818181818,389,0,78,DL_deepemotion_Guitar_1,-1,-1
57,100,0.29545454545454547,742,1,78,DL_deepemotion_Guitar_1,-1,-1
43,100,0.12272727272727273,815,0,78,DL_deepemotion_Guitar_1,-1,-1
62,100,1.8545454545454545,852,0,78,DL_deepemotion_Guitar_1,-1,-1
62,100,0.8363636363636363,402,1,79,DL_deepemotion_Guitar_1,-1,-1
59,100,0.14545454545454545,669,1,79,DL_deepemotion_Guitar_1,-1,-1
62,100,0.5227272727272727,710,0,79,DL_deepemotion_Guitar_1,-1,-1
52,100,1.309090909090909,829,0,79,DL_deepemotion_Guitar_1,-1,-1
62,100,0.6681818181818182,237,1,80,DL_deepemotion_Guitar_1,-1,-1
57,100,0.2909090909090909,614,1,80,DL_deepemotion_Guitar_1,-1,-1
57,100,0.12727272727272726,724,0,80,DL_deepemotion_Guitar_1,-1,-1
57,100,0.18636363636363637,793,0,80,DL_deepemotion_Guitar_1,-1,-1
43,100,0.14545454545454545,9,1,81,DL_deepemotion_Guitar_1,-1,-1
50,100,0.37727272727272726,72,0,81,DL_deepemotion_Guitar_1,-1,-1
57,100,0.35454545454545455,192,0,81,DL_deepemotion_Guitar_1,-1,-1
57,100,0.22727272727272727,275,0,81,DL_deepemotion_Guitar_1,-1,-1
50,100,0.6454545454545455,618,1,82,DL_deepemotion_Guitar_1,-1,-1
57,100,0.14545454545454545,563,1,83,DL_deepemotion_Guitar_1,-1,-1
57,100,0.20454545454545456,664,0,83,DL_deepemotion_Guitar_1,-1,-1
57,100,0.10454545454545454,728,0,83,DL_deepemotion_Guitar_1,-1,-1
64,100,0.6454545454545455,169,1,84,DL_deepemotion_Guitar_1,-1,-1
57,100,0.33181818181818185,389,1,84,DL_deepemotion_Guitar_1,-1,-1
64,100,0.6045454545454545,567,0,84,DL_deepemotion_Guitar_1,-1,-1
57,100,0.33636363636363636,701,0,84,DL_deepemotion_Guitar_1,-1,-1
54,100,0.1,27,1,85,DL_deepemotion_Guitar_1,-1,-1
47,100,0.10454545454545454,210,0,85,DL_deepemotion_Guitar_1,-1,-1
62,100,0.18636363636363637,247,0,85,DL_deepemotion_Guitar_1,-1,-1
62,100,0.12272727272727273,298,0,85,DL_deepemotion_Guitar_1,-1,-1
62,100,2.331818181818182,334,0,85,DL_deepemotion_Guitar_1,-1,-1
57,100,0.2727272727272727,848,1,85,DL_deepemotion_Guitar_1,-1,-1
62,100,0.14545454545454545,68,1,86,DL_deepemotion_Guitar_1,-1,-1
62,100,1.5,105,0,86,DL_deepemotion_Guitar_1,-1,-1
62,100,1.2727272727272727,440,1,86,DL_deepemotion_Guitar_1,-1,-1
62,100,0.2909090909090909,756,1,86,DL_deepemotion_Guitar_1,-1,-1
62,100,0.12727272727272726,31,1,87,DL_deepemotion_Guitar_1,-1,-1
52,100,0.8545454545454545,72,0,87,DL_deepemotion_Guitar_1,-1,-1
62,100,1.5636363636363637,306,1,87,DL_deepemotion_Guitar_1,-1,-1
62,100,0.5636363636363636,746,1,87,DL_deepemotion_Guitar_1,-1,-1
57,100,0.2727272727272727,875,0,87,DL_deepemotion_Guitar_1,-1,-1
62,100,0.12272727272727273,78,1,88,DL_deepemotion_Guitar_1,-1,-1
57,100,0.22727272727272727,243,0,88,DL_deepemotion_Guitar_1,-1,-1
57,100,0.22727272727272727,312,0,88,DL_deepemotion_Guitar_1,-1,-1
62,100,0.20454545454545456,367,0,88,DL_deepemotion_Guitar_1,-1,-1
62,100,0.31363636363636366,467,0,88,DL_deepemotion_Guitar_1,-1,-1
50,100,0.2681818181818182,673,1,88,DL_deepemotion_Guitar_1,-1,-1
50,100,0.37727272727272726,746,0,88,DL_deepemotion_Guitar_1,-1,-1
50,100,0.2318181818181818,834,0,88,DL_deepemotion_Guitar_1,-1,-1
62,100,0.25,45,1,89,DL_deepemotion_Guitar_1,-1,-1
59,100,0.12272727272727273,224,0,89,DL_deepemotion_Guitar_1,-1,-1
59,100,0.5181818181818182,257,0,89,DL_deepemotion_Guitar_1,-1,-1
62,100,0.12727272727272726,380,0,89,DL_deepemotion_Guitar_1,-1,-1
62,100,1.1272727272727272,449,0,89,DL_deepemotion_Guitar_1,-1,-1
62,100,0.10454545454545454,701,1,89,DL_deepemotion_Guitar_1,-1,-1
62,100,0.20909090909090908,728,0,89,DL_deepemotion_Guitar_1,-1,-1
62,100,0.16818181818181818,801,0,89,DL_deepemotion_Guitar_1,-1,-1
59,100,0.4590909090909091,838,0,89,DL_deepemotion_Guitar_1,-1,-1
57,100,0.19090909090909092,105,1,90,DL_deepemotion_Guitar_1,-1,-1
64,100,0.2681818181818182,202,0,90,DL_deepemotion_Guitar_1,-1,-1
57,100,0.37727272727272726,325,0,90,DL_deepemotion_Guitar_1,-1,-1
64,100,1.018181818181818,563,1,90,DL_deepemotion_Guitar_1,-1,-1
57,100,0.37727272727272726,787,1,90,DL_deepemotion_Guitar_1,-1,-1
64,100,0.2727272727272727,875,0,90,DL_deepemotion_Guitar_1,-1,-1
57,100,0.1,59,1,91,DL_deepemotion_Guitar_1,-1,-1
50,100,0.9181818181818182,151,0,91,DL_deepemotion_Guitar_1,-1,-1
50,100,0.12727272727272726,380,1,91,DL_deepemotion_Guitar_1,-1,-1
62,100,0.16818181818181818,416,0,91,DL_deepemotion_Guitar_1,-1,-1
50,100,0.2318181818181818,522,0,91,DL_deepemotion_Guitar_1,-1,-1
62,100,0.20909090909090908,618,0,91,DL_deepemotion_Guitar_1,-1,-1
62,100,0.18636363636363637,669,0,91,DL_deepemotion_Guitar_1,-1,-1
50,100,0.19090909090909092,732,0,91,DL_deepemotion_Guitar_1,-1,-1
57,100,0.20909090909090908,23,1,92,DL_deepemotion_Guitar_1,-1,-1
64,100,1.0863636363636364,151,0,92,DL_deepemotion_Guitar_1,-1,-1
64,100,0.10454545454545454,394,1,92,DL_deepemotion_Guitar_1,-1,-1
64,100,0.12727272727272726,426,0,92,DL_deepemotion_Guitar_1,-1,-1
45,100,0.12727272727272726,490,0,92,DL_deepemotion_Guitar_1,-1,-1
57,100,0.10454545454545454,526,0,92,DL_deepemotion_Guitar_1,-1,-1
64,100,0.14545454545454545,614,0,92,DL_deepemotion_Guitar_1,-1,-1
64,100,0.7909090909090909,650,0,92,DL_deepemotion_Guitar_1,-1,-1
57,100,0.5409090909090909,825,0,92,DL_deepemotion_Guitar_1,-1,-1
62,100,1.040909090909091,114,1,93,DL_deepemotion_Guitar_1,-1,-1
59,100,1.0636363636363637,375,1,93,DL_deepemotion_Guitar_1,-1,-1
62,100,0.7045454545454546,4,1,94,DL_deepemotion_Guitar_1,-1,-1
55,100,0.18636363636363637,196,0,94,DL_deepemotion_Guitar_1,-1,-1
59,100,0.2318181818181818,316,0,94,DL_deepemotion_Guitar_1,-1,-1
59,100,0.43636363636363634,532,1,94,DL_deepemotion_Guitar_1,-1,-1
64,100,0.33636363636363636,50,1,95,DL_deepemotion_Guitar_1,-1,-1
62,100,0.20909090909090908,495,1,95,DL_deepemotion_Guitar_1,-1,-1
50,100,0.20909090909090908,540,0,95,DL_deepemotion_Guitar_1,-1,-1
50,100,0.75,875,1,95,DL_deepemotion_Guitar_1,-1,-1
50,100,2.4136363636363636,532,1,96,DL_deepemotion_Guitar_1,-1,-1
47,100,0.14545454545454545,339,1,97,DL_deepemotion_Guitar_1,-1,-1
62,100,0.22727272727272727,196,1,98,DL_deepemotion_Guitar_1,-1,-1
62,100,0.14545454545454545,292,0,98,DL_deepemotion_Guitar_1,-1,-1
50,100,0.22727272727272727,334,0,98,DL_deepemotion_Guitar_1,-1,-1
55,100,0.2909090909090909,536,1,98,DL_deepemotion_Guitar_1,-1,-1
55,100,1.0818181818181818,605,0,98,DL_deepemotion_Guitar_1,-1,-1
62,100,0.16818181818181818,100,1,99,DL_deepemotion_Guitar_1,-1,-1
62,100,0.5818181818181818,141,0,99,DL_deepemotion_Guitar_1,-1,-1
62,100,0.19090909090909092,347,1,100,DL_deepemotion_Guitar_1,-1,-1
62,100,0.6863636363636364,408,0,100,DL_deepemotion_Guitar_1,-1,-1
62,100,0.12272727272727273,587,0,100,DL_deepemotion_Guitar_1,-1,-1
62,100,0.19090909090909092,677,0,100,DL_deepemotion_Guitar_1,-1,-1
64,100,0.2727272727272727,724,0,100,DL_deepemotion_Guitar_1,-1,-1
64,100,0.25,92,1,101,DL_deepemotion_Guitar_1,-1,-1
52,100,0.18636363636363637,224,0,101,DL_deepemotion_Guitar_1,-1,-1
54,100,0.9181818181818182,298,0,101,DL_deepemotion_Guitar_1,-1,-1
54,100,0.43636363636363634,801,1,101,DL_deepemotion_Guitar_1,-1,-1
62,100,0.5227272727272727,165,1,102,DL_deepemotion_Guitar_1,-1,-1
55,100,1.7727272727272727,306,0,102,DL_deepemotion_Guitar_1,-1,-1
43,100,0.12272727272727273,870,1,102,DL_deepemotion_Guitar_1,-1,-1
62,100,0.22727272727272727,45,1,103,DL_deepemotion_Guitar_1,-1,-1
62,100,0.10454545454545454,302,1,103,DL_deepemotion_Guitar_1,-1,-1
50,100,0.2909090909090909,398,0,103,DL_deepemotion_Guitar_1,-1,-1
62,100,0.6909090909090909,622,1,103,DL_deepemotion_Guitar_1,-1,-1
57,100,0.16363636363636364,783,0,103,DL_deepemotion_Guitar_1,-1,-1
62,100,0.5818181818181818,210,1,104,DL_deepemotion_Guitar_1,-1,-1
62,100,1.1681818181818182,526,1,104,DL_deepemotion_Guitar_1,-1,-1
62,100,0.35454545454545455,866,1,104,DL_deepemotion_Guitar_1,-1,-1
64,100,0.2727272727272727,96,1,105,DL_deepemotion_Guitar_1,-1,-1
62,100,0.6909090909090909,206,0,105,DL_deepemotion_Guitar_1,-1,-1
62,100,0.19090909090909092,380,0,105,DL_deepemotion_Guitar_1,-1,-1
62,100,1.040909090909091,426,0,105,DL_deepemotion_Guitar_1,-1,-1
47,100,0.6272727272727273,820,1,105,DL_deepemotion_Guitar_1,-1,-1
47,100,0.39545454545454545,110,1,106,DL_deepemotion_Guitar_1,-1,-1
43,100,0.8772727272727273,385,1,106,DL_deepemotion_Guitar_1,-1,-1
43,100,0.2909090909090909,595,1,106,DL_deepemotion_Guitar_1,-1,-1
62,100,0.22727272727272727,697,0,106,DL_deepemotion_Guitar_1,-1,-1
62,100,0.12727272727272726,811,0,106,DL_deepemotion_Guitar_1,-1,-1
43,100,0.5409090909090909,866,0,106,DL_deepemotion_Guitar_1,-1,-1
50,100,0.41818181818181815,866,1,107,DL_deepemotion_Guitar_1,-1,-1
62,100,0.6454545454545455,265,1,108,DL_deepemotion_Guitar_1,-1,-1
45,100,0.6636363636363637,422,0,108,DL_deepemotion_Guitar_1,-1,-1
45,100,0.3181818181818182,528,1,0,DL_Guitar,-1,-1
52,100,0.12272727272727273,114,1,1,DL_Guitar,-1,-1
52,100,0.1590909090909091,166,0,1,DL_Guitar,-1,-1
40,100,0.11818181818181818,264,0,1,DL_Guitar,-1,-1
40,100,0.11818181818181818,304,0,1,DL_Guitar,-1,-1
52,100,0.4409090909090909,360,0,1,DL_Guitar,-1,-1
52,100,0.3409090909090909,246,1,2,DL_Guitar,-1,-1
52,100,0.3409090909090909,382,0,2,DL_Guitar,-1,-1
50,100,0.1590909090909091,748,1,3,DL_Guitar,-1,-1
52,100,0.3,619,1,4,DL_Guitar,-1,-1
45,100,0.1590909090909091,440,1,5,DL_Guitar,-1,-1
45,100,0.2636363636363636,488,0,5,DL_Guitar,-1,-1
52,100,0.3409090909090909,752,1,5,DL_Guitar,-1,-1
52,100,0.3181818181818182,875,0,5,DL_Guitar,-1,-1
52,100,0.16363636363636364,114,1,6,DL_Guitar,-1,-1
50,100,0.1590909090909091,427,1,6,DL_Guitar,-1,-1
50,100,0.1409090909090909,624,0,6,DL_Guitar,-1,-1
52,100,0.38181818181818183,871,1,6,DL_Guitar,-1,-1
52,100,0.1409090909090909,110,1,7,DL_Guitar,-1,-1
52,100,0.11818181818181818,153,0,7,DL_Guitar,-1,-1
52,100,0.17727272727272728,238,0,7,DL_Guitar,-1,-1
50,100,0.1,338,0,7,DL_Guitar,-1,-1
50,100,0.1,140,1,8,DL_Guitar,-1,-1
50,100,0.1,166,0,8,DL_Guitar,-1,-1
50,100,0.18181818181818182,364,0,8,DL_Guitar,-1,-1
50,100,0.1,589,1,8,DL_Guitar,-1,-1
50,100,0.2818181818181818,651,0,8,DL_Guitar,-1,-1
49,100,0.1409090909090909,493,1,9,DL_Guitar,-1,-1
50,100,1.5818181818181818,739,1,9,DL_Guitar,-1,-1
50,100,0.2,264,1,10,DL_Guitar,-1,-1
50,100,1.3409090909090908,417,0,10,DL_Guitar,-1,-1
50,100,0.11818181818181818,845,1,10,DL_Guitar,-1,-1
50,100,0.2636363636363636,25,1,11,DL_Guitar,-1,-1
50,100,0.7363636363636363,127,0,11,DL_Guitar,-1,-1
45,100,0.1409090909090909,374,1,12,DL_Guitar,-1,-1
47,100,0.5,510,0,12,DL_Guitar,-1,-1
47,100,0.1,849,1,12,DL_Guitar,-1,-1
47,100,0.1,8,1,13,DL_Guitar,-1,-1
50,100,1.0,118,0,13,DL_Guitar,-1,-1
54,100,0.11818181818181818,360,1,13,DL_Guitar,-1,-1
50,100,0.6590909090909091,395,0,13,DL_Guitar,-1,-1
52,100,0.2,611,1,13,DL_Guitar,-1,-1
40,100,0.2590909090909091,660,0,13,DL_Guitar,-1,-1
52,100,0.4590909090909091,735,0,13,DL_Guitar,-1,-1
54,100,0.11818181818181818,854,0,13,DL_Guitar,-1,-1
52,100,0.1,96,1,14,DL_Guitar,-1,-1
45,100,0.1590909090909091,409,1,14,DL_Guitar,-1,-1
45,100,0.5,470,0,14,DL_Guitar,-1,-1
47,100,0.5590909090909091,849,1,14,DL_Guitar,-1,-1
47,100,0.8409090909090909,101,1,15,DL_Guitar,-1,-1
50,100,1.0,378,1,15,DL_Guitar,-1,-1
50,100,0.3409090909090909,713,1,15,DL_Guitar,-1,-1
52,100,0.4772727272727273,866,0,15,DL_Guitar,-1,-1
52,100,0.5,96,1,16,DL_Guitar,-1,-1
54,100,0.1590909090909091,241,0,16,DL_Guitar,-1,-1
54,100,0.1590909090909091,281,0,16,DL_Guitar,-1,-1
52,100,0.23636363636363636,347,0,16,DL_Guitar,-1,-1
45,100,0.1409090909090909,515,0,16,DL_Guitar,-1,-1
45,100,0.2818181818181818,862,1,16,DL_Guitar,-1,-1
47,100,0.12272727272727273,223,1,17,DL_Guitar,-1,-1
56,100,0.2409090909090909,360,0,17,DL_Guitar,-1,-1
47,100,0.11818181818181818,413,0,17,DL_Guitar,-1,-1
47,100,0.3181818181818182,470,0,17,DL_Guitar,-1,-1
50,100,0.2818181818181818,660,0,17,DL_Guitar,-1,-1
50,100,0.21818181818181817,725,0,17,DL_Guitar,-1,-1
50,100,1.1181818181818182,791,0,17,DL_Guitar,-1,-1
52,100,0.4,241,1,18,DL_Guitar,-1,-1
56,100,0.2818181818181818,374,0,18,DL_Guitar,-1,-1
52,100,0.1409090909090909,594,1,18,DL_Guitar,-1,-1
52,100,0.18181818181818182,629,0,18,DL_Guitar,-1,-1
45,100,0.1590909090909091,849,1,18,DL_Guitar,-1,-1
45,100,0.3409090909090909,13,1,19,DL_Guitar,-1,-1
45,100,0.1,206,0,19,DL_Guitar,-1,-1
45,100,0.2590909090909091,237,0,19,DL_Guitar,-1,-1
47,100,0.2772727272727273,492,1,19,DL_Guitar,-1,-1
47,100,0.1409090909090909,619,0,19,DL_Guitar,-1,-1
47,100,0.38181818181818183,708,0,19,DL_Guitar,-1,-1
50,100,0.5,106,1,20,DL_Guitar,-1,-1
50,100,0.6590909090909091,281,0,20,DL_Guitar,-1,-1
52,100,0.7,466,0,20,DL_Guitar,-1,-1
52,100,0.18181818181818182,673,1,20,DL_Guitar,-1,-1
54,100,0.12272727272727273,818,0,20,DL_Guitar,-1,-1
52,100,0.3,849,0,20,DL_Guitar,-1,-1
45,100,0.1590909090909091,299,1,21,DL_Guitar,-1,-1
52,100,0.1,351,0,21,DL_Guitar,-1,-1
45,100,0.1409090909090909,474,0,21,DL_Guitar,-1,-1
45,100,0.12272727272727273,509,0,21,DL_Guitar,-1,-1
47,100,0.5,611,0,21,DL_Guitar,-1,-1
47,100,0.5181818181818182,725,0,21,DL_Guitar,-1,-1
47,100,0.17727272727272728,17,1,22,DL_Guitar,-1,-1
47,100,0.3,96,0,22,DL_Guitar,-1,-1
50,100,0.9590909090909091,260,0,22,DL_Guitar,-1,-1
50,100,0.3409090909090909,528,1,22,DL_Guitar,-1,-1
50,100,0.18181818181818182,615,0,22,DL_Guitar,-1,-1
52,100,0.9818181818181818,748,0,22,DL_Guitar,-1,-1
52,100,0.1590909090909091,119,1,23,DL_Guitar,-1,-1
52,100,0.16363636363636364,223,0,23,DL_Guitar,-1,-1
45,100,0.4590909090909091,364,0,23,DL_Guitar,-1,-1
45,100,0.32272727272727275,519,0,23,DL_Guitar,-1,-1
45,100,0.5,611,0,23,DL_Guitar,-1,-1
45,100,0.2590909090909091,739,0,23,DL_Guitar,-1,-1
47,100,0.4409090909090909,110,1,24,DL_Guitar,-1,-1
47,100,0.21818181818181817,285,0,24,DL_Guitar,-1,-1
40,100,0.2,405,0,24,DL_Guitar,-1,-1
56,100,0.38181818181818183,246,1,25,DL_Guitar,-1,-1
52,100,0.2590909090909091,347,0,25,DL_Guitar,-1,-1
50,100,0.1,162,1,26,DL_Guitar,-1,-1
50,100,0.2409090909090909,399,1,26,DL_Guitar,-1,-1
57,100,0.22272727272727272,540,1,27,DL_Guitar,-1,-1
54,100,0.11818181818181818,611,0,27,DL_Guitar,-1,-1
40,100,0.23636363636363636,303,1,28,DL_Guitar,-1,-1
56,100,0.4590909090909091,739,1,28,DL_Guitar,-1,-1
47,100,0.11818181818181818,175,1,29,DL_Guitar,-1,-1
56,100,0.5818181818181818,374,1,29,DL_Guitar,-1,-1
56,100,0.36363636363636365,619,1,29,DL_Guitar,-1,-1
47,100,0.32272727272727275,729,0,29,DL_Guitar,-1,-1
56,100,0.1590909090909091,171,1,30,DL_Guitar,-1,-1
64,100,0.1,870,1,31,DL_Guitar,-1,-1
56,100,0.18181818181818182,554,1,32,DL_Guitar,-1,-1
56,100,0.33636363636363636,633,0,32,DL_Guitar,-1,-1
56,100,0.4772727272727273,743,0,32,DL_Guitar,-1,-1
52,100,0.38181818181818183,246,1,33,DL_Guitar,-1,-1
56,100,0.5590909090909091,364,0,33,DL_Guitar,-1,-1
56,100,0.21818181818181817,493,0,33,DL_Guitar,-1,-1
40,100,0.2590909090909091,770,1,33,DL_Guitar,-1,-1
57,100,0.18181818181818182,176,1,34,DL_Guitar,-1,-1
56,100,0.7772727272727272,558,1,35,DL_Guitar,-1,-1
56,100,0.2409090909090909,233,1,36,DL_Guitar,-1,-1
56,100,0.22272727272727272,871,1,36,DL_Guitar,-1,-1
40,100,0.9409090909090909,123,1,39,DL_Guitar,-1,-1
47,100,0.11818181818181818,61,1,40,DL_Guitar,-1,-1
47,100,0.1409090909090909,198,0,40,DL_Guitar,-1,-1
47,100,0.23636363636363636,281,0,40,DL_Guitar,-1,-1
47,100,0.1409090909090909,386,0,40,DL_Guitar,-1,-1
50,100,0.2,501,0,40,DL_Guitar,-1,-1
47,100,0.4409090909090909,334,1,41,DL_Guitar,-1,-1
45,100,0.2818181818181818,660,1,41,DL_Guitar,-1,-1
47,100,0.9818181818181818,263,1,42,DL_Guitar,-1,-1
47,100,0.4,515,1,42,DL_Guitar,-1,-1
47,100,0.21818181818181817,616,0,42,DL_Guitar,-1,-1
56,100,0.22272727272727272,356,1,43,DL_Guitar,-1,-1
52,100,0.4772727272727273,228,1,44,DL_Guitar,-1,-1
47,100,1.0818181818181818,616,1,44,DL_Guitar,-1,-1
47,100,0.2636363636363636,861,1,44,DL_Guitar,-1,-1
50,100,0.38181818181818183,131,1,45,DL_Guitar,-1,-1
50,100,0.13636363636363635,501,1,45,DL_Guitar,-1,-1
45,100,0.22272727272727272,268,1,46,DL_Guitar,-1,-1
45,100,0.35909090909090907,584,1,46,DL_Guitar,-1,-1
47,100,0.11818181818181818,171,1,47,DL_Guitar,-1,-1
50,100,0.4818181818181818,364,0,47,DL_Guitar,-1,-1
50,100,0.5363636363636364,480,0,47,DL_Guitar,-1,-1
50,100,0.38181818181818183,708,1,47,DL_Guitar,-1,-1
45,100,1.0636363636363637,488,1,48,DL_Guitar,-1,-1
45,100,0.3,726,1,48,DL_Guitar,-1,-1
47,100,0.4590909090909091,110,1,49,DL_Guitar,-1,-1
47,100,0.5,220,0,49,DL_Guitar,-1,-1
47,100,0.5181818181818182,348,0,49,DL_Guitar,-1,-1
50,100,0.2590909090909091,668,1,49,DL_Guitar,-1,-1
50,100,0.38181818181818183,729,0,49,DL_Guitar,-1,-1
50,100,0.18181818181818182,114,1,50,DL_Guitar,-1,-1
47,100,0.5590909090909091,506,1,50,DL_Guitar,-1,-1
45,100,0.5181818181818182,735,1,50,DL_Guitar,-1,-1
45,100,0.4590909090909091,105,1,51,DL_Guitar,-1,-1
56,100,0.3409090909090909,364,1,51,DL_Guitar,-1,-1
56,100,0.1,496,0,51,DL_Guitar,-1,-1
56,100,0.2,616,0,51,DL_Guitar,-1,-1
45,100,0.3,848,1,51,DL_Guitar,-1,-1
45,100,0.23636363636363636,40,1,52,DL_Guitar,-1,-1
45,100,0.4818181818181818,110,0,52,DL_Guitar,-1,-1
45,100,0.6409090909090909,220,0,52,DL_Guitar,-1,-1
45,100,0.2409090909090909,364,0,52,DL_Guitar,-1,-1
47,100,0.5227272727272727,474,0,52,DL_Guitar,-1,-1
47,100,0.6818181818181818,598,0,52,DL_Guitar,-1,-1
47,100,0.42272727272727273,751,0,52,DL_Guitar,-1,-1
47,100,0.2818181818181818,861,0,52,DL_Guitar,-1,-1
50,100,0.13636363636363635,150,1,53,DL_Guitar,-1,-1
50,100,0.5636363636363636,224,0,53,DL_Guitar,-1,-1
50,100,0.35909090909090907,351,0,53,DL_Guitar,-1,-1
50,100,0.13636363636363635,435,0,53,DL_Guitar,-1,-1
50,100,0.22272727272727272,488,0,53,DL_Guitar,-1,-1
45,100,0.5,238,1,54,DL_Guitar,-1,-1
45,100,0.1590909090909091,528,1,54,DL_Guitar,-1,-1
47,100,1.1590909090909092,713,0,54,DL_Guitar,-1,-1
47,100,0.4,110,1,55,DL_Guitar,-1,-1
47,100,0.35909090909090907,251,0,55,DL_Guitar,-1,-1
50,100,0.6409090909090909,448,0,55,DL_Guitar,-1,-1
50,100,0.18181818181818182,694,1,55,DL_Guitar,-1,-1
47,100,0.23636363636363636,40,1,56,DL_Guitar,-1,-1
56,100,0.3409090909090909,343,1,56,DL_Guitar,-1,-1
45,100,0.21818181818181817,545,1,56,DL_Guitar,-1,-1
45,100,0.4590909090909091,845,1,56,DL_Guitar,-1,-1
47,100,0.22272727272727272,123,1,57,DL_Guitar,-1,-1
47,100,0.5,228,0,57,DL_Guitar,-1,-1
47,100,0.43636363636363634,370,0,57,DL_Guitar,-1,-1
47,100,0.3,488,0,57,DL_Guitar,-1,-1
50,100,0.4772727272727273,735,1,57,DL_Guitar,-1,-1
56,100,0.3181818181818182,603,1,58,DL_Guitar,-1,-1
45,100,0.5,729,0,58,DL_Guitar,-1,-1
45,100,0.4818181818181818,861,0,58,DL_Guitar,-1,-1
45,100,0.1590909090909091,233,1,59,DL_Guitar,-1,-1
47,100,0.5181818181818182,348,0,59,DL_Guitar,-1,-1
47,100,0.5409090909090909,471,0,59,DL_Guitar,-1,-1
47,100,0.4590909090909091,616,0,59,DL_Guitar,-1,-1
47,100,0.35909090909090907,721,0,59,DL_Guitar,-1,-1
50,100,0.5363636363636364,105,1,60,DL_Guitar,-1,-1
40,100,0.4,619,1,60,DL_Guitar,-1,-1
56,100,0.12272727272727273,4,1,61,DL_Guitar,-1,-1
45,100,0.41818181818181815,131,0,61,DL_Guitar,-1,-1
45,100,0.5,233,0,61,DL_Guitar,-1,-1
45,100,0.17727272727272728,480,1,61,DL_Guitar,-1,-1
49,100,0.2590909090909091,668,0,61,DL_Guitar,-1,-1
56,100,0.16363636363636364,158,1,62,DL_Guitar,-1,-1
45,100,0.2,246,0,62,DL_Guitar,-1,-1
45,100,0.1409090909090909,496,1,62,DL_Guitar,-1,-1
45,100,2.081818181818182,593,0,62,DL_Guitar,-1,-1
64,100,0.12272727272727273,641,1,63,DL_Guitar,-1,-1
50,100,0.3,726,0,63,DL_Guitar,-1,-1
50,100,0.2590909090909091,0,1,64,DL_Guitar,-1,-1
50,100,0.37727272727272726,127,0,64,DL_Guitar,-1,-1
50,100,0.3409090909090909,637,1,64,DL_Guitar,-1,-1
50,100,0.41818181818181815,22,1,65,DL_Guitar,-1,-1
50,100,0.5181818181818182,229,1,65,DL_Guitar,-1,-1
50,100,0.22272727272727272,377,0,65,DL_Guitar,-1,-1
50,100,0.3,502,0,65,DL_Guitar,-1,-1
56,100,0.5772727272727273,713,1,65,DL_Guitar,-1,-1
49,100,0.13636363636363635,62,1,66,DL_Guitar,-1,-1
49,100,0.2590909090909091,106,0,66,DL_Guitar,-1,-1
49,100,0.1409090909090909,210,0,66,DL_Guitar,-1,-1
49,100,0.759090909090909,303,0,66,DL_Guitar,-1,-1
49,100,0.1590909090909091,624,1,66,DL_Guitar,-1,-1
50,100,0.1,686,0,66,DL_Guitar,-1,-1
54,100,0.12272727272727273,92,1,67,DL_Guitar,-1,-1
58,100,0.3,409,1,67,DL_Guitar,-1,-1
58,100,0.2772727272727273,523,0,67,DL_Guitar,-1,-1
54,100,0.2,593,0,67,DL_Guitar,-1,-1
54,100,0.1590909090909091,726,0,67,DL_Guitar,-1,-1
64,100,0.1590909090909091,800,0,67,DL_Guitar,-1,-1
47,100,0.41818181818181815,876,0,67,DL_Guitar,-1,-1
47,100,0.5409090909090909,96,1,68,DL_Guitar,-1,-1
47,100,0.4772727272727273,229,0,68,DL_Guitar,-1,-1
47,100,0.5636363636363636,356,0,68,DL_Guitar,-1,-1
47,100,0.4772727272727273,493,0,68,DL_Guitar,-1,-1
47,100,0.5181818181818182,603,0,68,DL_Guitar,-1,-1
47,100,0.1409090909090909,805,1,68,DL_Guitar,-1,-1
47,100,0.5,839,0,68,DL_Guitar,-1,-1
52,100,0.1590909090909091,430,1,69,DL_Guitar,-1,-1
52,100,0.5181818181818182,603,0,69,DL_Guitar,-1,-1
56,100,0.5363636363636364,722,0,69,DL_Guitar,-1,-1
52,100,0.4772727272727273,853,0,69,DL_Guitar,-1,-1
50,100,0.9,273,1,70,DL_Guitar,-1,-1
50,100,0.12272727272727273,532,1,70,DL_Guitar,-1,-1
64,100,0.2,624,0,70,DL_Guitar,-1,-1
50,100,1.0818181818181818,729,0,70,DL_Guitar,-1,-1
50,100,0.35909090909090907,263,1,71,DL_Guitar,-1,-1
50,100,0.35909090909090907,373,0,71,DL_Guitar,-1,-1
50,100,0.6,457,0,71,DL_Guitar,-1,-1
50,100,0.17727272727272728,656,1,71,DL_Guitar,-1,-1
50,100,0.5181818181818182,43,1,72,DL_Guitar,-1,-1
50,100,0.3409090909090909,263,1,72,DL_Guitar,-1,-1
50,100,0.33636363636363636,347,0,72,DL_Guitar,-1,-1
49,100,0.5,470,0,72,DL_Guitar,-1,-1
49,100,1.1772727272727272,74,1,73,DL_Guitar,-1,-1
61,100,0.1590909090909091,449,1,73,DL_Guitar,-1,-1
49,100,0.21818181818181817,483,0,73,DL_Guitar,-1,-1
58,100,0.4818181818181818,619,0,73,DL_Guitar,-1,-1
54,100,0.1409090909090909,739,0,73,DL_Guitar,-1,-1
54,100,0.17727272727272728,844,0,73,DL_Guitar,-1,-1
58,100,0.7818181818181819,13,1,74,DL_Guitar,-1,-1
58,100,0.4636363636363636,246,1,74,DL_Guitar,-1,-1
58,100,0.3,370,0,74,DL_Guitar,-1,-1
47,100,1.1409090909090909,839,1,74,DL_Guitar,-1,-1
47,100,0.1409090909090909,307,1,75,DL_Guitar,-1,-1
47,100,0.1,576,1,75,DL_Guitar,-1,-1
47,100,0.6181818181818182,612,0,75,DL_Guitar,-1,-1
47,100,0.16363636363636364,752,0,75,DL_Guitar,-1,-1
47,100,0.11818181818181818,810,0,75,DL_Guitar,-1,-1
56,100,0.5772727272727273,470,1,76,DL_Guitar,-1,-1
47,100,0.4590909090909091,734,1,76,DL_Guitar,-1,-1
50,100,1.1,96,1,77,DL_Guitar,-1,-1
50,100,0.8,462,1,77,DL_Guitar,-1,-1
50,100,0.17727272727272728,669,1,77,DL_Guitar,-1,-1
50,100,1.518181818181818,722,0,77,DL_Guitar,-1,-1
50,100,1.040909090909091,619,1,78,DL_Guitar,-1,-1
50,100,0.6,853,1,78,DL_Guitar,-1,-1
49,100,1.0772727272727274,360,1,79,DL_Guitar,-1,-1
59,100,0.17727272727272728,677,1,79,DL_Guitar,-1,-1
49,100,2.1227272727272726,817,0,79,DL_Guitar,-1,-1
54,100,0.5,475,1,80,DL_Guitar,-1,-1
58,100,0.6181818181818182,593,0,80,DL_Guitar,-1,-1
58,100,0.4772727272727273,756,0,80,DL_Guitar,-1,-1
58,100,0.4409090909090909,3,1,81,DL_Guitar,-1,-1
54,100,0.4590909090909091,106,0,81,DL_Guitar,-1,-1
58,100,0.4818181818181818,233,0,81,DL_Guitar,-1,-1
62,100,0.3181818181818182,616,1,81,DL_Guitar,-1,-1
47,100,0.4409090909090909,862,1,81,DL_Guitar,-1,-1
47,100,0.2636363636363636,157,1,82,DL_Guitar,-1,-1
47,100,0.5,233,0,82,DL_Guitar,-1,-1
47,100,0.3181818181818182,404,0,82,DL_Guitar,-1,-1
47,100,0.9,480,0,82,DL_Guitar,-1,-1
56,100,0.3181818181818182,747,1,82,DL_Guitar,-1,-1
56,100,0.11818181818181818,823,0,82,DL_Guitar,-1,-1
56,100,0.5227272727272727,100,1,83,DL_Guitar,-1,-1
56,100,0.4409090909090909,242,0,83,DL_Guitar,-1,-1
56,100,1.0636363636363637,356,0,83,DL_Guitar,-1,-1
56,100,0.4,637,1,83,DL_Guitar,-1,-1
57,100,0.18181818181818182,796,0,83,DL_Guitar,-1,-1
47,100,0.5181818181818182,844,0,83,DL_Guitar,-1,-1
47,100,0.5181818181818182,119,1,84,DL_Guitar,-1,-1
47,100,0.5,242,0,84,DL_Guitar,-1,-1
47,100,1.018181818181818,360,0,84,DL_Guitar,-1,-1
47,100,0.4,734,1,84,DL_Guitar,-1,-1
47,100,0.3,826,0,84,DL_Guitar,-1,-1
47,100,0.13636363636363635,17,1,85,DL_Guitar,-1,-1
56,100,0.41818181818181815,127,0,85,DL_Guitar,-1,-1
56,100,0.5409090909090909,466,1,85,DL_Guitar,-1,-1
56,100,0.37727272727272726,633,0,85,DL_Guitar,-1,-1
56,100,0.9409090909090909,9,1,86,DL_Guitar,-1,-1
47,100,0.1590909090909091,216,1,86,DL_Guitar,-1,-1
47,100,0.22272727272727272,333,0,86,DL_Guitar,-1,-1
47,100,0.12272727272727273,386,0,86,DL_Guitar,-1,-1
47,100,0.2818181818181818,417,0,86,DL_Guitar,-1,-1
47,100,0.4818181818181818,483,0,86,DL_Guitar,-1,-1
47,100,0.42272727272727273,619,0,86,DL_Guitar,-1,-1
59,100,0.1,722,0,86,DL_Guitar,-1,-1
59,100,0.2590909090909091,760,0,86,DL_Guitar,-1,-1
59,100,0.1409090909090909,866,0,86,DL_Guitar,-1,-1
59,100,0.11818181818181818,22,1,87,DL_Guitar,-1,-1
47,100,0.1,123,0,87,DL_Guitar,-1,-1
47,100,0.21818181818181817,153,0,87,DL_Guitar,-1,-1
59,100,0.2818181818181818,223,0,87,DL_Guitar,-1,-1
56,100,0.18181818181818182,606,1,87,DL_Guitar,-1,-1
56,100,0.41818181818181815,660,0,87,DL_Guitar,-1,-1
56,100,0.1,760,0,87,DL_Guitar,-1,-1
56,100,0.3409090909090909,9,1,88,DL_Guitar,-1,-1
56,100,0.3181818181818182,127,0,88,DL_Guitar,-1,-1
56,100,0.11818181818181818,303,0,88,DL_Guitar,-1,-1
47,100,0.4,506,1,88,DL_Guitar,-1,-1
47,100,0.6,612,0,88,DL_Guitar,-1,-1
47,100,0.9590909090909091,747,0,88,DL_Guitar,-1,-1
47,100,0.4590909090909091,449,1,89,DL_Guitar,-1,-1
46,100,0.11818181818181818,550,0,89,DL_Guitar,-1,-1
50,100,0.21818181818181817,646,0,89,DL_Guitar,-1,-1
50,100,0.4818181818181818,862,1,89,DL_Guitar,-1,-1
50,100,0.6772727272727272,316,1,90,DL_Guitar,-1,-1
47,100,0.1409090909090909,624,1,90,DL_Guitar,-1,-1
47,100,0.2818181818181818,660,0,90,DL_Guitar,-1,-1
47,100,0.4409090909090909,866,1,90,DL_Guitar,-1,-1
47,100,0.18181818181818182,166,1,91,DL_Guitar,-1,-1
52,100,0.17727272727272728,216,0,91,DL_Guitar,-1,-1
56,100,0.4,377,0,91,DL_Guitar,-1,-1
56,100,0.4772727272727273,480,0,91,DL_Guitar,-1,-1
56,100,0.1590909090909091,637,0,91,DL_Guitar,-1,-1
47,100,0.1590909090909091,690,0,91,DL_Guitar,-1,-1
57,100,0.6818181818181818,26,1,92,DL_Guitar,-1,-1
45,100,0.5590909090909091,352,1,92,DL_Guitar,-1,-1
45,100,0.18181818181818182,752,1,92,DL_Guitar,-1,-1
45,100,0.5590909090909091,844,0,92,DL_Guitar,-1,-1
57,100,0.3,282,1,93,DL_Guitar,-1,-1
45,100,0.5636363636363636,466,0,93,DL_Guitar,-1,-1
57,100,0.6,223,1,94,DL_Guitar,-1,-1
45,100,0.3409090909090909,747,1,94,DL_Guitar,-1,-1
45,100,0.37727272727272726,844,0,94,DL_Guitar,-1,-1
57,100,0.4,365,1,95,DL_Guitar,-1,-1
57,100,0.5227272727272727,716,1,95,DL_Guitar,-1,-1
52,100,0.3181818181818182,866,0,95,DL_Guitar,-1,-1
52,100,0.11818181818181818,132,1,96,DL_Guitar,-1,-1
52,100,0.11818181818181818,163,0,96,DL_Guitar,-1,-1
52,100,0.1,193,0,96,DL_Guitar,-1,-1
64,100,0.2636363636363636,246,0,96,DL_Guitar,-1,-1
50,100,0.1409090909090909,470,1,96,DL_Guitar,-1,-1
50,100,0.8590909090909091,540,0,96,DL_Guitar,-1,-1
50,100,0.2772727272727273,743,1,96,DL_Guitar,-1,-1
50,100,0.2818181818181818,839,0,96,DL_Guitar,-1,-1
50,100,0.22272727272727272,79,1,97,DL_Guitar,-1,-1
57,100,0.1590909090909091,496,1,97,DL_Guitar,-1,-1
50,100,3.018181818181818,593,0,97,DL_Guitar,-1,-1
50,100,0.36363636363636365,466,1,98,DL_Guitar,-1,-1
50,100,0.1,567,0,98,DL_Guitar,-1,-1
50,100,0.12272727272727273,629,0,98,DL_Guitar,-1,-1
45,100,0.3409090909090909,669,0,98,DL_Guitar,-1,-1
45,100,0.3,747,0,98,DL_Guitar,-1,-1
45,100,0.22272727272727272,870,0,98,DL_Guitar,-1,-1
45,100,0.1409090909090909,47,1,99,DL_Guitar,-1,-1
50,100,0.22272727272727272,796,1,99,DL_Guitar,-1,-1
54,100,0.4590909090909091,857,0,99,DL_Guitar,-1,-1
54,100,0.35909090909090907,373,1,100,DL_Guitar,-1,-1
61,100,0.21818181818181817,603,1,100,DL_Guitar,-1,-1
61,100,0.4818181818181818,739,0,100,DL_Guitar,-1,-1
50,100,0.1409090909090909,100,1,101,DL_Guitar,-1,-1
50,100,0.8590909090909091,216,0,101,DL_Guitar,-1,-1
50,100,0.11818181818181818,413,0,101,DL_Guitar,-1,-1
50,100,0.8181818181818182,449,0,101,DL_Guitar,-1,-1
50,100,0.17727272727272728,713,1,101,DL_Guitar,-1,-1
57,100,0.17727272727272728,492,1,0,DL_Guitar,-1,-1
50,100,0.6181818181818182,546,0,0,DL_Guitar,-1,-1
50,100,0.5227272727272727,695,0,0,DL_Guitar,-1,-1
52,100,0.7,166,1,1,DL_Guitar,-1,-1
52,100,0.1,351,0,1,DL_Guitar,-1,-1
59,100,0.1409090909090909,449,0,1,DL_Guitar,-1,-1
40,100,0.22272727272727272,576,0,1,DL_Guitar,-1,-1
52,100,0.11818181818181818,638,0,1,DL_Guitar,-1,-1
44,100,0.5,681,0,1,DL_Guitar,-1,-1
54,100,0.4409090909090909,796,0,1,DL_Guitar,-1,-1
59,100,0.2,12,1,2,DL_Guitar,-1,-1
44,100,0.12272727272727273,91,0,2,DL_Guitar,-1,-1
54,100,0.3409090909090909,421,1,2,DL_Guitar,-1,-1
57,100,0.33636363636363636,501,0,2,DL_Guitar,-1,-1
50,100,0.6818181818181818,796,1,2,DL_Guitar,-1,-1
57,100,0.1409090909090909,70,1,3,DL_Guitar,-1,-1
50,100,0.35909090909090907,100,0,3,DL_Guitar,-1,-1
50,100,0.1,356,1,3,DL_Guitar,-1,-1
40,100,0.3409090909090909,466,0,3,DL_Guitar,-1,-1
59,100,0.3,550,0,3,DL_Guitar,-1,-1
64,100,0.2818181818181818,629,0,3,DL_Guitar,-1,-1
40,100,0.1409090909090909,739,0,3,DL_Guitar,-1,-1
40,100,0.3181818181818182,836,0,3,DL_Guitar,-1,-1
45,100,0.5590909090909091,53,1,4,DL_Guitar,-1,-1
45,100,0.18181818181818182,189,0,4,DL_Guitar,-1,-1
61,100,0.2590909090909091,255,0,4,DL_Guitar,-1,-1
45,100,1.6227272727272728,444,0,4,DL_Guitar,-1,-1
64,100,0.3,871,1,4,DL_Guitar,-1,-1
52,100,0.3,56,1,5,DL_Guitar,-1,-1
50,100,0.5590909090909091,171,0,5,DL_Guitar,-1,-1
50,100,0.1590909090909091,325,0,5,DL_Guitar,-1,-1
50,100,0.22272727272727272,378,0,5,DL_Guitar,-1,-1
45,100,0.11818181818181818,572,0,5,DL_Guitar,-1,-1
52,100,0.5772727272727273,678,0,5,DL_Guitar,-1,-1
52,100,0.2636363636363636,862,0,5,DL_Guitar,-1,-1
64,100,0.1,79,1,6,DL_Guitar,-1,-1
52,100,0.8,105,0,6,DL_Guitar,-1,-1
44,100,0.5409090909090909,294,0,6,DL_Guitar,-1,-1
54,100,0.43636363636363634,414,0,6,DL_Guitar,-1,-1
59,100,0.2409090909090909,514,0,6,DL_Guitar,-1,-1
42,100,0.740909090909091,805,1,6,DL_Guitar,-1,-1
54,100,0.1409090909090909,87,1,7,DL_Guitar,-1,-1
57,100,0.32272727272727275,122,0,7,DL_Guitar,-1,-1
54,100,0.1409090909090909,317,0,7,DL_Guitar,-1,-1
50,100,0.2,581,1,7,DL_Guitar,-1,-1
59,100,0.1,34,1,8,DL_Guitar,-1,-1
52,100,0.1,127,0,8,DL_Guitar,-1,-1
40,100,0.2772727272727273,149,0,8,DL_Guitar,-1,-1
59,100,0.37727272727272726,347,0,8,DL_Guitar,-1,-1
54,100,0.3409090909090909,448,0,8,DL_Guitar,-1,-1
45,100,0.1409090909090909,558,0,8,DL_Guitar,-1,-1
45,100,0.35909090909090907,594,0,8,DL_Guitar,-1,-1
52,100,0.38181818181818183,673,0,8,DL_Guitar,-1,-1
57,100,0.3,766,0,8,DL_Guitar,-1,-1
52,100,0.1,840,0,8,DL_Guitar,-1,-1
57,100,0.21818181818181817,0,1,9,DL_Guitar,-1,-1
61,100,0.23636363636363636,106,0,9,DL_Guitar,-1,-1
57,100,0.2590909090909091,163,0,9,DL_Guitar,-1,-1
61,100,0.2772727272727273,405,1,9,DL_Guitar,-1,-1
57,100,0.11818181818181818,484,0,9,DL_Guitar,-1,-1
57,100,0.1409090909090909,515,0,9,DL_Guitar,-1,-1
50,100,0.1409090909090909,575,0,9,DL_Guitar,-1,-1
45,100,0.5,694,0,9,DL_Guitar,-1,-1
52,100,0.23636363636363636,809,0,9,DL_Guitar,-1,-1
45,100,0.1,87,1,10,DL_Guitar,-1,-1
52,100,0.2409090909090909,113,0,10,DL_Guitar,-1,-1
52,100,0.2409090909090909,299,0,10,DL_Guitar,-1,-1
64,100,0.1,400,0,10,DL_Guitar,-1,-1
59,100,0.32272727272727275,431,0,10,DL_Guitar,-1,-1
52,100,0.1590909090909091,611,0,10,DL_Guitar,-1,-1
52,100,0.43636363636363634,656,0,10,DL_Guitar,-1,-1
52,100,0.4409090909090909,795,0,10,DL_Guitar,-1,-1
52,100,0.11818181818181818,264,1,11,DL_Guitar,-1,-1
43,100,0.1,493,1,11,DL_Guitar,-1,-1
50,100,0.2636363636363636,70,1,12,DL_Guitar,-1,-1
52,100,0.1,572,1,12,DL_Guitar,-1,-1
40,100,0.3181818181818182,603,0,12,DL_Guitar,-1,-1
54,100,0.2590909090909091,189,1,13,DL_Guitar,-1,-1
54,100,0.1,691,1,13,DL_Guitar,-1,-1
40,100,0.2409090909090909,364,1,14,DL_Guitar,-1,-1
64,100,0.11818181818181818,457,0,14,DL_Guitar,-1,-1
64,100,0.2590909090909091,871,1,14,DL_Guitar,-1,-1
40,100,0.1,216,1,15,DL_Guitar,-1,-1
40,100,0.21818181818181817,242,0,15,DL_Guitar,-1,-1
54,100,0.1,694,1,15,DL_Guitar,-1,-1
55,100,0.1,747,0,15,DL_Guitar,-1,-1
52,100,0.2,52,1,16,DL_Guitar,-1,-1
52,100,0.35909090909090907,100,0,16,DL_Guitar,-1,-1
52,100,0.1409090909090909,638,1,16,DL_Guitar,-1,-1
52,100,0.2,193,1,17,DL_Guitar,-1,-1
52,100,0.2409090909090909,250,0,17,DL_Guitar,-1,-1
55,100,0.16363636363636364,443,0,17,DL_Guitar,-1,-1
55,100,0.1,492,1,18,DL_Guitar,-1,-1
45,100,0.2590909090909091,858,1,18,DL_Guitar,-1,-1
57,100,0.2590909090909091,430,1,19,DL_Guitar,-1,-1
52,100,0.2636363636363636,488,0,19,DL_Guitar,-1,-1
64,100,0.1,677,0,19,DL_Guitar,-1,-1
64,100,0.2,704,0,19,DL_Guitar,-1,-1
54,100,1.0818181818181818,57,1,20,DL_Guitar,-1,-1
54,100,0.17727272727272728,382,1,20,DL_Guitar,-1,-1
54,100,0.1409090909090909,426,0,20,DL_Guitar,-1,-1
50,100,0.5409090909090909,559,0,20,DL_Guitar,-1,-1
57,100,0.2636363636363636,686,0,20,DL_Guitar,-1,-1
57,100,0.18181818181818182,760,0,20,DL_Guitar,-1,-1
57,100,0.23636363636363636,106,1,21,DL_Guitar,-1,-1
57,100,0.1,179,0,21,DL_Guitar,-1,-1
45,100,0.18181818181818182,202,0,21,DL_Guitar,-1,-1
45,100,0.11818181818181818,260,0,21,DL_Guitar,-1,-1
57,100,0.38181818181818183,285,0,21,DL_Guitar,-1,-1
61,100,0.21818181818181817,505,1,21,DL_Guitar,-1,-1
57,100,0.11818181818181818,590,0,21,DL_Guitar,-1,-1
40,100,0.2409090909090909,739,0,21,DL_Guitar,-1,-1
40,100,0.1,839,0,21,DL_Guitar,-1,-1
54,100,1.0772727272727274,326,1,22,DL_Guitar,-1,-1
54,100,0.2818181818181818,694,1,22,DL_Guitar,-1,-1
62,100,0.1409090909090909,791,0,22,DL_Guitar,-1,-1
50,100,0.4409090909090909,822,0,22,DL_Guitar,-1,-1
50,100,0.1409090909090909,75,1,23,DL_Guitar,-1,-1
57,100,0.1,206,0,23,DL_Guitar,-1,-1
57,100,0.35909090909090907,299,0,23,DL_Guitar,-1,-1
57,100,0.1590909090909091,382,0,23,DL_Guitar,-1,-1
52,100,0.6,546,0,23,DL_Guitar,-1,-1
52,100,0.12272727272727273,717,0,23,DL_Guitar,-1,-1
64,100,0.1409090909090909,9,1,24,DL_Guitar,-1,-1
54,100,0.4,48,0,24,DL_Guitar,-1,-1
54,100,0.2409090909090909,189,0,24,DL_Guitar,-1,-1
52,100,0.2590909090909091,308,0,24,DL_Guitar,-1,-1
40,100,0.22272727272727272,364,0,24,DL_Guitar,-1,-1
54,100,0.1409090909090909,515,0,24,DL_Guitar,-1,-1
54,100,0.7772727272727272,567,0,24,DL_Guitar,-1,-1
54,100,0.21818181818181817,748,0,24,DL_Guitar,-1,-1
54,100,0.11818181818181818,52,1,25,DL_Guitar,-1,-1
54,100,0.11818181818181818,131,0,25,DL_Guitar,-1,-1
50,100,0.5636363636363636,179,0,25,DL_Guitar,-1,-1
62,100,0.2409090909090909,316,0,25,DL_Guitar,-1,-1
62,100,0.2818181818181818,374,0,25,DL_Guitar,-1,-1
50,100,0.22272727272727272,576,1,25,DL_Guitar,-1,-1
57,100,0.11818181818181818,677,0,25,DL_Guitar,-1,-1
45,100,0.41818181818181815,704,0,25,DL_Guitar,-1,-1
61,100,0.1409090909090909,818,0,25,DL_Guitar,-1,-1
57,100,0.5363636363636364,61,1,26,DL_Guitar,-1,-1
52,100,0.35909090909090907,409,1,26,DL_Guitar,-1,-1
52,100,0.1590909090909091,515,0,26,DL_Guitar,-1,-1
52,100,0.5227272727272727,686,0,26,DL_Guitar,-1,-1
54,100,0.1409090909090909,57,1,27,DL_Guitar,-1,-1
50,100,0.4636363636363636,443,1,27,DL_Guitar,-1,-1
50,100,0.3,559,0,27,DL_Guitar,-1,-1
62,100,0.1409090909090909,625,0,27,DL_Guitar,-1,-1
62,100,0.12272727272727273,739,0,27,DL_Guitar,-1,-1
57,100,0.2590909090909091,814,0,27,DL_Guitar,-1,-1
52,100,0.8,52,1,28,DL_Guitar,-1,-1
52,100,0.42272727272727273,443,1,28,DL_Guitar,-1,-1
52,100,0.5409090909090909,686,1,28,DL_Guitar,-1,-1
52,100,0.3,13,1,29,DL_Guitar,-1,-1
52,100,0.1590909090909091,83,0,29,DL_Guitar,-1,-1
64,100,0.2,119,0,29,DL_Guitar,-1,-1
43,100,1.0227272727272727,378,1,29,DL_Guitar,-1,-1
43,100,0.1590909090909091,611,1,29,DL_Guitar,-1,-1
43,100,0.22272727272727272,650,0,29,DL_Guitar,-1,-1
57,100,0.4818181818181818,320,1,30,DL_Guitar,-1,-1
57,100,0.38181818181818183,440,0,30,DL_Guitar,-1,-1
50,100,0.2590909090909091,633,0,30,DL_Guitar,-1,-1
57,100,0.1590909090909091,770,0,30,DL_Guitar,-1,-1
57,100,0.8409090909090909,866,0,30,DL_Guitar,-1,-1
57,100,0.5181818181818182,185,1,31,DL_Guitar,-1,-1
57,100,0.5409090909090909,308,0,31,DL_Guitar,-1,-1
52,100,0.18181818181818182,453,0,31,DL_Guitar,-1,-1
52,100,0.13636363636363635,523,0,31,DL_Guitar,-1,-1
59,100,0.35909090909090907,571,0,31,DL_Guitar,-1,-1
59,100,0.2590909090909091,700,0,31,DL_Guitar,-1,-1
52,100,0.1,822,0,31,DL_Guitar,-1,-1
59,100,0.5,188,1,32,DL_Guitar,-1,-1
54,100,0.1590909090909091,426,1,32,DL_Guitar,-1,-1
54,100,0.2636363636363636,488,0,32,DL_Guitar,-1,-1
59,100,0.1,593,0,32,DL_Guitar,-1,-1
54,100,0.3409090909090909,691,0,32,DL_Guitar,-1,-1
59,100,0.4772727272727273,831,0,32,DL_Guitar,-1,-1
57,100,0.2409090909090909,118,1,33,DL_Guitar,-1,-1
52,100,0.5181818181818182,308,0,33,DL_Guitar,-1,-1
52,100,0.1590909090909091,453,0,33,DL_Guitar,-1,-1
52,100,0.2,571,0,33,DL_Guitar,-1,-1
45,100,0.2,871,1,33,DL_Guitar,-1,-1
57,100,0.2,188,1,34,DL_Guitar,-1,-1
57,100,0.22272727272727272,254,0,34,DL_Guitar,-1,-1
45,100,0.41818181818181815,325,0,34,DL_Guitar,-1,-1
52,100,0.2,480,0,34,DL_Guitar,-1,-1
57,100,1.0818181818181818,818,1,34,DL_Guitar,-1,-1
57,100,0.5590909090909091,298,1,35,DL_Guitar,-1,-1
52,100,0.3,488,0,35,DL_Guitar,-1,-1
52,100,0.5772727272727273,558,0,35,DL_Guitar,-1,-1
59,100,0.3181818181818182,735,0,35,DL_Guitar,-1,-1
52,100,0.1409090909090909,826,0,35,DL_Guitar,-1,-1
57,100,0.22272727272727272,4,1,36,DL_Guitar,-1,-1
53,100,0.4818181818181818,66,0,36,DL_Guitar,-1,-1
53,100,0.5409090909090909,179,0,36,DL_Guitar,-1,-1
59,100,0.1590909090909091,325,0,36,DL_Guitar,-1,-1
53,100,0.37727272727272726,435,0,36,DL_Guitar,-1,-1
54,100,0.42272727272727273,554,0,36,DL_Guitar,-1,-1
54,100,0.1409090909090909,813,1,36,DL_Guitar,-1,-1
54,100,0.5409090909090909,871,0,36,DL_Guitar,-1,-1
54,100,0.5409090909090909,179,1,37,DL_Guitar,-1,-1
54,100,0.5,311,0,37,DL_Guitar,-1,-1
59,100,0.13636363636363635,523,1,37,DL_Guitar,-1,-1
59,100,0.1409090909090909,584,0,37,DL_Guitar,-1,-1
57,100,0.22272727272727272,628,0,37,DL_Guitar,-1,-1
59,100,0.2,708,0,37,DL_Guitar,-1,-1
40,100,0.11818181818181818,8,1,38,DL_Guitar,-1,-1
59,100,0.2818181818181818,48,0,38,DL_Guitar,-1,-1
59,100,0.2,198,0,38,DL_Guitar,-1,-1
57,100,0.1590909090909091,260,0,38,DL_Guitar,-1,-1
45,100,0.35909090909090907,343,0,38,DL_Guitar,-1,-1
57,100,0.1590909090909091,571,1,38,DL_Guitar,-1,-1
43,100,0.1590909090909091,858,1,38,DL_Guitar,-1,-1
62,100,0.2,461,1,39,DL_Guitar,-1,-1
50,100,0.18181818181818182,506,0,39,DL_Guitar,-1,-1
50,100,0.18181818181818182,694,0,39,DL_Guitar,-1,-1
57,100,0.5590909090909091,804,0,39,DL_Guitar,-1,-1
52,100,0.8772727272727273,75,1,40,DL_Guitar,-1,-1
52,100,0.13636363636363635,413,1,40,DL_Guitar,-1,-1
52,100,0.17727272727272728,448,0,40,DL_Guitar,-1,-1
53,100,0.6,681,1,40,DL_Guitar,-1,-1
53,100,0.2636363636363636,48,1,41,DL_Guitar,-1,-1
59,100,0.18181818181818182,224,0,41,DL_Guitar,-1,-1
54,100,0.4772727272727273,316,0,41,DL_Guitar,-1,-1
59,100,0.2590909090909091,435,0,41,DL_Guitar,-1,-1
54,100,0.3,501,0,41,DL_Guitar,-1,-1
54,100,0.2409090909090909,576,0,41,DL_Guitar,-1,-1
54,100,0.2772727272727273,678,0,41,DL_Guitar,-1,-1
54,100,0.4590909090909091,813,0,41,DL_Guitar,-1,-1
59,100,0.2409090909090909,66,1,42,DL_Guitar,-1,-1
62,100,0.2,128,0,42,DL_Guitar,-1,-1
47,100,0.2,193,0,42,DL_Guitar,-1,-1
57,100,0.2,254,0,42,DL_Guitar,-1,-1
52,100,0.4818181818181818,321,0,42,DL_Guitar,-1,-1
59,100,0.2818181818181818,616,1,42,DL_Guitar,-1,-1
52,100,0.16363636363636364,708,0,42,DL_Guitar,-1,-1
52,100,0.11818181818181818,831,0,42,DL_Guitar,-1,-1
57,100,0.2818181818181818,48,1,43,DL_Guitar,-1,-1
57,100,0.5181818181818182,813,1,43,DL_Guitar,-1,-1
50,100,0.5772727272727273,53,1,44,DL_Guitar,-1,-1
44,100,0.43636363636363634,193,0,44,DL_Guitar,-1,-1
43,100,0.1409090909090909,289,0,44,DL_Guitar,-1,-1
43,100,0.9181818181818182,330,0,44,DL_Guitar,-1,-1
64,100,0.1590909090909091,721,1,44,DL_Guitar,-1,-1
64,100,0.35909090909090907,788,0,44,DL_Guitar,-1,-1
64,100,0.32272727272727275,871,0,44,DL_Guitar,-1,-1
53,100,0.12272727272727273,211,1,45,DL_Guitar,-1,-1
44,100,0.6636363636363637,378,0,45,DL_Guitar,-1,-1
54,100,0.36363636363636365,686,1,45,DL_Guitar,-1,-1
54,100,0.23636363636363636,810,0,45,DL_Guitar,-1,-1
44,100,0.11818181818181818,61,1,46,DL_Guitar,-1,-1
44,100,0.33636363636363636,105,0,46,DL_Guitar,-1,-1
62,100,0.3181818181818182,668,1,46,DL_Guitar,-1,-1
50,100,0.17727272727272728,756,0,46,DL_Guitar,-1,-1
52,100,0.2818181818181818,826,0,46,DL_Guitar,-1,-1
52,100,0.12272727272727273,13,1,47,DL_Guitar,-1,-1
52,100,0.4409090909090909,43,0,47,DL_Guitar,-1,-1
52,100,0.5818181818181818,179,0,47,DL_Guitar,-1,-1
40,100,0.4,308,0,47,DL_Guitar,-1,-1
53,100,1.240909090909091,426,0,47,DL_Guitar,-1,-1
49,100,0.7,765,1,47,DL_Guitar,-1,-1
54,100,0.42272727272727273,48,1,48,DL_Guitar,-1,-1
61,100,0.2,163,0,48,DL_Guitar,-1,-1
42,100,0.8409090909090909,220,0,48,DL_Guitar,-1,-1
61,100,0.4818181818181818,440,1,48,DL_Guitar,-1,-1
50,100,1.1409090909090909,651,1,48,DL_Guitar,-1,-1
62,100,0.4,34,1,49,DL_Guitar,-1,-1
52,100,1.3590909090909091,176,0,49,DL_Guitar,-1,-1
52,100,0.2,480,1,49,DL_Guitar,-1,-1
52,100,0.1590909090909091,638,0,49,DL_Guitar,-1,-1
53,100,1.6363636363636365,678,0,49,DL_Guitar,-1,-1
54,100,0.23636363636363636,303,1,50,DL_Guitar,-1,-1
61,100,0.2409090909090909,440,0,50,DL_Guitar,-1,-1
42,100,0.11818181818181818,545,0,50,DL_Guitar,-1,-1
61,100,0.4818181818181818,571,0,50,DL_Guitar,-1,-1
61,100,0.3,691,0,50,DL_Guitar,-1,-1
57,100,0.13636363636363635,788,0,50,DL_Guitar,-1,-1
50,100,0.1590909090909091,853,0,50,DL_Guitar,-1,-1
50,100,1.3590909090909091,21,1,51,DL_Guitar,-1,-1
52,100,0.5,431,1,51,DL_Guitar,-1,-1
52,100,0.1,545,0,51,DL_Guitar,-1,-1
52,100,0.11818181818181818,691,0,51,DL_Guitar,-1,-1
40,100,0.5181818181818182,756,0,51,DL_Guitar,-1,-1
54,100,0.1590909090909091,0,1,52,DL_Guitar,-1,-1
54,100,0.1,56,0,52,DL_Guitar,-1,-1
61,100,0.7,91,0,52,DL_Guitar,-1,-1
54,100,0.3,254,0,52,DL_Guitar,-1,-1
54,100,0.1,325,0,52,DL_Guitar,-1,-1
61,100,2.640909090909091,426,0,52,DL_Guitar,-1,-1
57,100,1.440909090909091,158,1,53,DL_Guitar,-1,-1
50,100,0.11818181818181818,568,1,53,DL_Guitar,-1,-1
52,100,2.1,681,0,53,DL_Guitar,-1,-1
52,100,0.11818181818181818,303,1,54,DL_Guitar,-1,-1
57,100,0.18181818181818182,418,1,55,DL_Guitar,-1,-1
45,100,0.23636363636363636,458,0,55,DL_Guitar,-1,-1
57,100,0.1409090909090909,518,0,55,DL_Guitar,-1,-1
57,100,0.37727272727272726,558,0,55,DL_Guitar,-1,-1
57,100,0.21818181818181817,660,0,55,DL_Guitar,-1,-1
57,100,0.38181818181818183,726,0,55,DL_Guitar,-1,-1
45,100,0.17727272727272728,128,1,56,DL_Guitar,-1,-1
50,100,0.11818181818181818,568,1,56,DL_Guitar,-1,-1
57,100,0.2409090909090909,625,0,56,DL_Guitar,-1,-1
57,100,0.4818181818181818,703,0,56,DL_Guitar,-1,-1
50,100,0.16363636363636364,818,0,56,DL_Guitar,-1,-1
57,100,0.22272727272727272,4,1,57,DL_Guitar,-1,-1
57,100,0.4,91,0,57,DL_Guitar,-1,-1
50,100,0.13636363636363635,215,0,57,DL_Guitar,-1,-1
57,100,0.4818181818181818,330,0,57,DL_Guitar,-1,-1
57,100,0.2590909090909091,453,0,57,DL_Guitar,-1,-1
50,100,0.18181818181818182,576,0,57,DL_Guitar,-1,-1
61,100,0.5,691,0,57,DL_Guitar,-1,-1
59,100,0.6,810,0,57,DL_Guitar,-1,-1
59,100,0.18181818181818182,153,1,58,DL_Guitar,-1,-1
59,100,0.1,215,0,58,DL_Guitar,-1,-1
52,100,0.4409090909090909,330,0,58,DL_Guitar,-1,-1
52,100,0.11818181818181818,536,1,58,DL_Guitar,-1,-1
40,100,0.2,593,0,58,DL_Guitar,-1,-1
61,100,0.1409090909090909,48,1,59,DL_Guitar,-1,-1
61,100,0.3,110,0,59,DL_Guitar,-1,-1
45,100,0.3409090909090909,444,1,59,DL_Guitar,-1,-1
57,100,0.1409090909090909,770,1,59,DL_Guitar,-1,-1
45,100,0.1409090909090909,69,1,60,DL_Guitar,-1,-1
57,100,0.11818181818181818,330,1,60,DL_Guitar,-1,-1
61,100,0.5636363636363636,421,0,60,DL_Guitar,-1,-1
61,100,0.3181818181818182,678,1,60,DL_Guitar,-1,-1
42,100,0.11818181818181818,396,1,61,DL_Guitar,-1,-1
57,100,0.4636363636363636,444,0,61,DL_Guitar,-1,-1
54,100,0.35909090909090907,550,0,61,DL_Guitar,-1,-1
57,100,0.13636363636363635,633,0,61,DL_Guitar,-1,-1
57,100,0.11818181818181818,316,1,62,DL_Guitar,-1,-1
57,100,0.1,471,0,62,DL_Guitar,-1,-1
57,100,0.18181818181818182,628,0,62,DL_Guitar,-1,-1
59,100,0.4590909090909091,810,0,62,DL_Guitar,-1,-1
61,100,0.13636363636363635,171,1,63,DL_Guitar,-1,-1
59,100,0.35909090909090907,316,0,63,DL_Guitar,-1,-1
57,100,0.2409090909090909,431,0,63,DL_Guitar,-1,-1
54,100,0.1,691,1,63,DL_Guitar,-1,-1
54,100,0.17727272727272728,721,0,63,DL_Guitar,-1,-1
57,100,0.12272727272727273,774,0,63,DL_Guitar,-1,-1
54,100,0.11818181818181818,813,0,63,DL_Guitar,-1,-1
54,100,0.12272727272727273,848,0,63,DL_Guitar,-1,-1
57,100,0.1590909090909091,0,1,64,DL_Guitar,-1,-1
57,100,0.7181818181818181,550,1,64,DL_Guitar,-1,-1
57,100,0.4,849,1,64,DL_Guitar,-1,-1
57,100,0.2409090909090909,66,1,65,DL_Guitar,-1,-1
50,100,0.2,119,0,65,DL_Guitar,-1,-1
59,100,0.8363636363636363,172,0,65,DL_Guitar,-1,-1
61,100,0.2409090909090909,404,1,65,DL_Guitar,-1,-1
49,100,0.3409090909090909,475,0,65,DL_Guitar,-1,-1
50,100,1.6590909090909092,700,1,65,DL_Guitar,-1,-1
50,100,0.4590909090909091,193,1,66,DL_Guitar,-1,-1
59,100,0.8590909090909091,426,1,66,DL_Guitar,-1,-1
62,100,0.12272727272727273,849,1,66,DL_Guitar,-1,-1
62,100,0.1590909090909091,0,1,67,DL_Guitar,-1,-1
64,100,0.5181818181818182,40,0,67,DL_Guitar,-1,-1
64,100,0.3409090909090909,176,0,67,DL_Guitar,-1,-1
52,100,0.37727272727272726,436,1,67,DL_Guitar,-1,-1
40,100,0.12272727272727273,519,0,67,DL_Guitar,-1,-1
52,100,0.17727272727272728,546,0,67,DL_Guitar,-1,-1
52,100,0.1590909090909091,603,0,67,DL_Guitar,-1,-1
52,100,0.13636363636363635,656,0,67,DL_Guitar,-1,-1
52,100,0.3409090909090909,690,0,67,DL_Guitar,-1,-1
40,100,0.1590909090909091,766,0,67,DL_Guitar,-1,-1
52,100,0.38181818181818183,849,0,67,DL_Guitar,-1,-1
52,100,0.2,233,1,68,DL_Guitar,-1,-1
52,100,0.37727272727272726,294,0,68,DL_Guitar,-1,-1
40,100,0.1,430,0,68,DL_Guitar,-1,-1
59,100,0.13636363636363635,457,0,68,DL_Guitar,-1,-1
57,100,0.4,189,1,69,DL_Guitar,-1,-1
52,100,0.2,686,1,69,DL_Guitar,-1,-1
52,100,0.1590909090909091,832,0,69,DL_Guitar,-1,-1
52,100,0.2590909090909091,56,1,70,DL_Guitar,-1,-1
59,100,0.1409090909090909,140,0,70,DL_Guitar,-1,-1
53,100,0.5818181818181818,307,0,70,DL_Guitar,-1,-1
53,100,0.1590909090909091,453,0,70,DL_Guitar,-1,-1
53,100,0.1409090909090909,642,0,70,DL_Guitar,-1,-1
56,100,0.11818181818181818,734,0,70,DL_Guitar,-1,-1
42,100,0.32272727272727275,826,0,70,DL_Guitar,-1,-1
61,100,0.11818181818181818,153,1,71,DL_Guitar,-1,-1
57,100,0.1590909090909091,673,1,71,DL_Guitar,-1,-1
50,100,0.11818181818181818,770,0,71,DL_Guitar,-1,-1
57,100,0.2,823,0,71,DL_Guitar,-1,-1
57,100,0.1590909090909091,9,1,72,DL_Guitar,-1,-1
59,100,1.059090909090909,193,0,72,DL_Guitar,-1,-1
57,100,0.33636363636363636,743,1,72,DL_Guitar,-1,-1
45,100,0.5227272727272727,179,1,73,DL_Guitar,-1,-1
61,100,0.11818181818181818,514,1,73,DL_Guitar,-1,-1
61,100,0.42272727272727273,585,0,73,DL_Guitar,-1,-1
57,100,0.3409090909090909,870,1,73,DL_Guitar,-1,-1
57,100,0.21818181818181817,132,1,74,DL_Guitar,-1,-1
57,100,0.2772727272727273,237,0,74,DL_Guitar,-1,-1
40,100,0.1,392,0,74,DL_Guitar,-1,-1
52,100,0.2590909090909091,559,0,74,DL_Guitar,-1,-1
52,100,0.18181818181818182,619,0,74,DL_Guitar,-1,-1
64,100,0.18181818181818182,682,0,74,DL_Guitar,-1,-1
59,100,0.2818181818181818,726,0,74,DL_Guitar,-1,-1
61,100,0.1,17,1,75,DL_Guitar,-1,-1
53,100,1.1409090909090909,47,0,75,DL_Guitar,-1,-1
61,100,0.6409090909090909,316,1,75,DL_Guitar,-1,-1
42,100,0.4,457,0,75,DL_Guitar,-1,-1
61,100,0.12272727272727273,606,0,75,DL_Guitar,-1,-1
42,100,0.17727272727272728,633,0,75,DL_Guitar,-1,-1
61,100,0.3,739,0,75,DL_Guitar,-1,-1
59,100,0.17727272727272728,9,1,76,DL_Guitar,-1,-1
47,100,0.5818181818181818,47,0,76,DL_Guitar,-1,-1
47,100,0.42272727272727273,267,1,76,DL_Guitar,-1,-1
52,100,0.18181818181818182,550,1,76,DL_Guitar,-1,-1
40,100,0.35909090909090907,603,0,76,DL_Guitar,-1,-1
40,100,0.2,695,0,76,DL_Guitar,-1,-1
52,100,0.1409090909090909,739,0,76,DL_Guitar,-1,-1
52,100,0.16363636363636364,773,0,76,DL_Guitar,-1,-1
59,100,0.21818181818181817,813,0,76,DL_Guitar,-1,-1
40,100,0.17727272727272728,127,1,77,DL_Guitar,-1,-1
59,100,0.3,176,0,77,DL_Guitar,-1,-1
59,100,0.5590909090909091,307,0,77,DL_Guitar,-1,-1
64,100,0.18181818181818182,440,0,77,DL_Guitar,-1,-1
59,100,0.17727272727272728,502,0,77,DL_Guitar,-1,-1
59,100,0.4409090909090909,559,0,77,DL_Guitar,-1,-1
45,100,0.1590909090909091,110,1,78,DL_Guitar,-1,-1
57,100,0.3,289,0,78,DL_Guitar,-1,-1
59,100,0.2,246,1,80,DL_Guitar,-1,-1
59,100,0.17727272727272728,294,0,80,DL_Guitar,-1,-1
59,100,0.2,496,1,80,DL_Guitar,-1,-1
45,100,0.5227272727272727,553,0,80,DL_Guitar,-1,-1
52,100,0.2772727272727273,722,0,80,DL_Guitar,-1,-1
52,100,0.6227272727272727,47,1,81,DL_Guitar,-1,-1
61,100,1.7818181818181817,263,1,81,DL_Guitar,-1,-1
50,100,0.12272727272727273,862,1,81,DL_Guitar,-1,-1
57,100,0.2590909090909091,127,1,82,DL_Guitar,-1,-1
57,100,0.2409090909090909,263,0,82,DL_Guitar,-1,-1
57,100,0.1,320,0,82,DL_Guitar,-1,-1
57,100,0.759090909090909,440,0,82,DL_Guitar,-1,-1
50,100,0.18181818181818182,642,1,82,DL_Guitar,-1,-1
57,100,0.12272727272727273,13,1,83,DL_Guitar,-1,-1
57,100,0.2,303,1,83,DL_Guitar,-1,-1
52,100,0.1,857,1,83,DL_Guitar,-1,-1
42,100,0.1,56,1,84,DL_Guitar,-1,-1
42,100,0.41818181818181815,83,0,84,DL_Guitar,-1,-1
61,100,0.3,197,0,84,DL_Guitar,-1,-1
42,100,0.13636363636363635,303,0,84,DL_Guitar,-1,-1
61,100,1.0,347,0,84,DL_Guitar,-1,-1
42,100,0.4772727272727273,567,1,84,DL_Guitar,-1,-1
61,100,0.5227272727272727,707,0,84,DL_Guitar,-1,-1
61,100,0.38181818181818183,836,0,84,DL_Guitar,-1,-1
52,100,0.4818181818181818,166,1,85,DL_Guitar,-1,-1
52,100,0.6,286,0,85,DL_Guitar,-1,-1
52,100,0.3,422,0,85,DL_Guitar,-1,-1
52,100,0.35909090909090907,603,0,85,DL_Guitar,-1,-1
59,100,0.32272727272727275,729,0,85,DL_Guitar,-1,-1
59,100,0.18181818181818182,817,0,85,DL_Guitar,-1,-1
40,100,0.2,9,1,86,DL_Guitar,-1,-1
40,100,0.18181818181818182,66,0,86,DL_Guitar,-1,-1
64,100,0.2409090909090909,113,0,86,DL_Guitar,-1,-1
59,100,0.42272727272727273,202,0,86,DL_Guitar,-1,-1
57,100,0.1409090909090909,493,1,86,DL_Guitar,-1,-1
57,100,0.35909090909090907,527,0,86,DL_Guitar,-1,-1
57,100,0.2772727272727273,624,0,86,DL_Guitar,-1,-1
57,100,1.1590909090909092,813,0,86,DL_Guitar,-1,-1
57,100,0.2409090909090909,250,1,87,DL_Guitar,-1,-1
50,100,0.2,316,0,87,DL_Guitar,-1,-1
45,100,0.4,436,0,87,DL_Guitar,-1,-1
47,100,0.36363636363636365,729,1,88,DL_Guitar,-1,-1
47,100,0.7227272727272728,13,1,89,DL_Guitar,-1,-1
47,100,0.2,360,1,89,DL_Guitar,-1,-1
47,100,0.16363636363636364,509,0,89,DL_Guitar,-1,-1
59,100,0.1409090909090909,506,1,90,DL_Guitar,-1,-1
59,100,0.1,646,0,90,DL_Guitar,-1,-1
59,100,0.4590909090909091,823,0,90,DL_Guitar,-1,-1
59,100,0.5,79,1,91,DL_Guitar,-1,-1
40,100,0.12272727272727273,267,0,91,DL_Guitar,-1,-1
52,100,0.17727272727272728,316,0,91,DL_Guitar,-1,-1
40,100,0.1409090909090909,386,0,91,DL_Guitar,-1,-1
40,100,0.17727272727272728,502,0,91,DL_Guitar,-1,-1
40,100,0.17727272727272728,756,1,91,DL_Guitar,-1,-1
52,100,0.4,817,0,91,DL_Guitar,-1,-1
57,100,0.22272727272727272,100,1,92,DL_Guitar,-1,-1
55,100,0.11818181818181818,426,1,92,DL_Guitar,-1,-1
55,100,0.11818181818181818,480,0,92,DL_Guitar,-1,-1
56,100,0.1409090909090909,506,0,92,DL_Guitar,-1,-1
52,100,0.4,572,0,92,DL_Guitar,-1,-1
59,100,0.32272727272727275,707,0,92,DL_Guitar,-1,-1
40,100,0.2818181818181818,805,0,92,DL_Guitar,-1,-1
64,100,0.16363636363636364,3,1,93,DL_Guitar,-1,-1
59,100,0.11818181818181818,150,0,93,DL_Guitar,-1,-1
47,100,0.4,206,0,93,DL_Guitar,-1,-1
57,100,0.5181818181818182,844,1,93,DL_Guitar,-1,-1
59,100,0.3181818181818182,813,1,94,DL_Guitar,-1,-1
59,100,0.32272727272727275,92,1,95,DL_Guitar,-1,-1
40,100,0.2772727272727273,163,0,95,DL_Guitar,-1,-1
59,100,0.1409090909090909,223,0,95,DL_Guitar,-1,-1
47,100,0.41818181818181815,457,1,95,DL_Guitar,-1,-1
47,100,0.4590909090909091,624,0,95,DL_Guitar,-1,-1
54,100,0.1590909090909091,53,1,96,DL_Guitar,-1,-1
57,100,0.6181818181818182,734,1,96,DL_Guitar,-1,-1
57,100,0.21818181818181817,0,1,97,DL_Guitar,-1,-1
43,100,0.2590909090909091,119,0,97,DL_Guitar,-1,-1
59,100,0.4818181818181818,189,0,97,DL_Guitar,-1,-1
40,100,0.4,399,1,97,DL_Guitar,-1,-1
64,100,0.11818181818181818,493,0,97,DL_Guitar,-1,-1
57,100,0.8409090909090909,823,1,97,DL_Guitar,-1,-1
57,100,0.12272727272727273,157,1,98,DL_Guitar,-1,-1
45,100,0.1590909090909091,255,0,98,DL_Guitar,-1,-1
45,100,0.2409090909090909,377,0,98,DL_Guitar,-1,-1
45,100,1.8227272727272728,496,0,98,DL_Guitar,-1,-1
45,100,3.040909090909091,22,1,99,DL_Guitar,-1,-1
57,100,0.2409090909090909,443,1,100,DL_Guitar,-1,-1
57,100,0.2409090909090909,563,0,100,DL_Guitar,-1,-1
57,100,0.2,633,0,100,DL_Guitar,-1,-1
59,100,0.5590909090909091,810,0,100,DL_Guitar,-1,-1
59,100,0.11818181818181818,83,1,101,DL_Guitar,-1,-1
59,100,0.4,153,0,101,DL_Guitar,-1,-1
59,100,0.2,260,0,101,DL_Guitar,-1,-1
59,100,0.5227272727272727,430,0,101,DL_Guitar,-1,-1
53,100,0.3,677,1,101,DL_Guitar,-1,-1
59,100,0.2,756,0,101,DL_Guitar,-1,-1
42,100,0.32272727272727275,100,1,102,DL_Guitar,-1,-1
57,100,0.4772727272727273,193,0,102,DL_Guitar,-1,-1
45,100,0.1,576,1,102,DL_Guitar,-1,-1
57,100,0.18181818181818182,597,0,102,DL_Guitar,-1,-1
57,100,0.4636363636363636,707,0,102,DL_Guitar,-1,-1
57,100,0.1,839,0,102,DL_Guitar,-1,-1
57,100,0.12272727272727273,35,1,103,DL_Guitar,-1,-1
59,100,0.5181818181818182,184,0,103,DL_Guitar,-1,-1
59,100,0.7227272727272728,312,0,103,DL_Guitar,-1,-1
52,100,0.13636363636363635,502,0,103,DL_Guitar,-1,-1
45,100,0.32272727272727275,686,0,103,DL_Guitar,-1,-1
45,100,0.1590909090909091,770,0,103,DL_Guitar,-1,-1
45,100,0.11818181818181818,853,0,103,DL_Guitar,-1,-1
45,100,0.2,127,1,104,DL_Guitar,-1,-1
57,100,0.1,282,0,104,DL_Guitar,-1,-1
57,100,0.18181818181818182,466,0,104,DL_Guitar,-1,-1
57,100,0.1,514,0,104,DL_Guitar,-1,-1
57,100,0.2590909090909091,540,0,104,DL_Guitar,-1,-1
57,100,0.11818181818181818,616,0,104,DL_Guitar,-1,-1
57,100,0.2409090909090909,682,0,104,DL_Guitar,-1,-1
57,100,0.1,743,0,104,DL_Guitar,-1,-1
57,100,0.1590909090909091,770,0,104,DL_Guitar,-1,-1
57,100,0.1,813,0,104,DL_Guitar,-1,-1
57,100,0.11818181818181818,9,1,105,DL_Guitar,-1,-1
60,100,0.18181818181818182,378,1,0,DL_Remix_Guitar,-1,-1
55,100,0.37727272727272726,546,0,0,DL_Remix_Guitar,-1,-1
55,100,0.3409090909090909,796,1,0,DL_Remix_Guitar,-1,-1
52,100,0.1,267,1,1,DL_Remix_Guitar,-1,-1
53,100,0.18181818181818182,290,0,1,DL_Remix_Guitar,-1,-1
60,100,0.1,360,0,1,DL_Remix_Guitar,-1,-1
60,100,0.11818181818181818,405,0,1,DL_Remix_Guitar,-1,-1
60,100,0.2636363636363636,487,0,1,DL_Remix_Guitar,-1,-1
41,100,0.1590909090909091,559,0,1,DL_Remix_Guitar,-1,-1
60,100,0.1590909090909091,700,0,1,DL_Remix_Guitar,-1,-1
62,100,0.4409090909090909,34,1,2,DL_Remix_Guitar,-1,-1
55,100,0.2772727272727273,281,1,2,DL_Remix_Guitar,-1,-1
62,100,0.18181818181818182,421,0,2,DL_Remix_Guitar,-1,-1
62,100,0.2818181818181818,528,0,2,DL_Remix_Guitar,-1,-1
62,100,0.11818181818181818,611,0,2,DL_Remix_Guitar,-1,-1
62,100,0.5227272727272727,642,0,2,DL_Remix_Guitar,-1,-1
61,100,0.1590909090909091,83,1,3,DL_Remix_Guitar,-1,-1
61,100,0.18181818181818182,122,0,3,DL_Remix_Guitar,-1,-1
61,100,0.2818181818181818,254,0,3,DL_Remix_Guitar,-1,-1
57,100,0.37727272727272726,427,0,3,DL_Remix_Guitar,-1,-1
57,100,0.32272727272727275,607,0,3,DL_Remix_Guitar,-1,-1
60,100,0.2,694,0,3,DL_Remix_Guitar,-1,-1
57,100,0.38181818181818183,836,0,3,DL_Remix_Guitar,-1,-1
57,100,0.22272727272727272,48,1,4,DL_Remix_Guitar,-1,-1
62,100,0.6772727272727272,260,1,4,DL_Remix_Guitar,-1,-1
59,100,0.2818181818181818,465,1,4,DL_Remix_Guitar,-1,-1
60,100,0.1,527,0,4,DL_Remix_Guitar,-1,-1
60,100,0.18181818181818182,575,0,4,DL_Remix_Guitar,-1,-1
41,100,0.3409090909090909,616,0,4,DL_Remix_Guitar,-1,-1
41,100,0.2,721,0,4,DL_Remix_Guitar,-1,-1
60,100,0.5772727272727273,765,0,4,DL_Remix_Guitar,-1,-1
53,100,0.1,444,1,5,DL_Remix_Guitar,-1,-1
55,100,0.2590909090909091,545,0,5,DL_Remix_Guitar,-1,-1
60,100,0.2590909090909091,849,1,5,DL_Remix_Guitar,-1,-1
57,100,0.4,150,1,6,DL_Remix_Guitar,-1,-1
60,100,0.11818181818181818,360,1,6,DL_Remix_Guitar,-1,-1
56,100,0.2409090909090909,399,0,6,DL_Remix_Guitar,-1,-1
60,100,0.1,458,0,6,DL_Remix_Guitar,-1,-1
57,100,0.18181818181818182,708,1,6,DL_Remix_Guitar,-1,-1
52,100,0.36363636363636365,795,0,6,DL_Remix_Guitar,-1,-1
52,100,0.42272727272727273,4,1,7,DL_Remix_Guitar,-1,-1
45,100,0.1590909090909091,396,1,7,DL_Remix_Guitar,-1,-1
55,100,0.3,726,1,7,DL_Remix_Guitar,-1,-1
57,100,0.11818181818181818,836,0,7,DL_Remix_Guitar,-1,-1
57,100,0.4590909090909091,84,1,8,DL_Remix_Guitar,-1,-1
57,100,0.21818181818181817,338,1,8,DL_Remix_Guitar,-1,-1
57,100,0.18181818181818182,400,0,8,DL_Remix_Guitar,-1,-1
57,100,0.1409090909090909,462,0,8,DL_Remix_Guitar,-1,-1
57,100,0.6818181818181818,563,0,8,DL_Remix_Guitar,-1,-1
56,100,0.12272727272727273,761,0,8,DL_Remix_Guitar,-1,-1
60,100,0.1409090909090909,56,1,9,DL_Remix_Guitar,-1,-1
55,100,0.1,211,0,9,DL_Remix_Guitar,-1,-1
55,100,0.1409090909090909,426,1,9,DL_Remix_Guitar,-1,-1
53,100,0.3,804,1,9,DL_Remix_Guitar,-1,-1
53,100,0.16363636363636364,48,1,10,DL_Remix_Guitar,-1,-1
53,100,0.12272727272727273,101,0,10,DL_Remix_Guitar,-1,-1
48,100,0.17727272727272728,171,0,10,DL_Remix_Guitar,-1,-1
58,100,0.2409090909090909,756,1,10,DL_Remix_Guitar,-1,-1
50,100,0.17727272727272728,360,1,11,DL_Remix_Guitar,-1,-1
53,100,0.3,668,1,11,DL_Remix_Guitar,-1,-1
53,100,0.16363636363636364,752,0,11,DL_Remix_Guitar,-1,-1
53,100,0.4,826,0,11,DL_Remix_Guitar,-1,-1
60,100,0.1590909090909091,61,1,12,DL_Remix_Guitar,-1,-1
53,100,0.21818181818181817,96,0,12,DL_Remix_Guitar,-1,-1
53,100,0.2,163,0,12,DL_Remix_Guitar,-1,-1
52,100,0.3181818181818182,316,0,12,DL_Remix_Guitar,-1,-1
40,100,0.1,470,0,12,DL_Remix_Guitar,-1,-1
52,100,0.2,493,0,12,DL_Remix_Guitar,-1,-1
52,100,0.2409090909090909,625,0,12,DL_Remix_Guitar,-1,-1
52,100,0.3,685,0,12,DL_Remix_Guitar,-1,-1
52,100,0.3,44,1,13,DL_Remix_Guitar,-1,-1
52,100,0.1409090909090909,132,0,13,DL_Remix_Guitar,-1,-1
52,100,0.22272727272727272,180,0,13,DL_Remix_Guitar,-1,-1
57,100,0.18181818181818182,355,0,13,DL_Remix_Guitar,-1,-1
48,100,0.2590909090909091,431,0,13,DL_Remix_Guitar,-1,-1
57,100,0.1,519,0,13,DL_Remix_Guitar,-1,-1
48,100,0.1409090909090909,663,0,13,DL_Remix_Guitar,-1,-1
57,100,0.740909090909091,801,0,13,DL_Remix_Guitar,-1,-1
57,100,0.8818181818181818,123,1,14,DL_Remix_Guitar,-1,-1
52,100,0.5590909090909091,611,1,14,DL_Remix_Guitar,-1,-1
52,100,0.18181818181818182,25,1,15,DL_Remix_Guitar,-1,-1
52,100,0.5,233,1,15,DL_Remix_Guitar,-1,-1
52,100,0.2772727272727273,347,0,15,DL_Remix_Guitar,-1,-1
50,100,0.21818181818181817,766,1,15,DL_Remix_Guitar,-1,-1
50,100,0.16363636363636364,26,1,16,DL_Remix_Guitar,-1,-1
53,100,0.21818181818181817,440,1,16,DL_Remix_Guitar,-1,-1
48,100,1.9,691,1,16,DL_Remix_Guitar,-1,-1
58,100,0.2,343,1,17,DL_Remix_Guitar,-1,-1
55,100,0.2409090909090909,519,0,17,DL_Remix_Guitar,-1,-1
57,100,0.3,669,0,17,DL_Remix_Guitar,-1,-1
53,100,0.2,17,1,18,DL_Remix_Guitar,-1,-1
53,100,0.4636363636363636,488,1,18,DL_Remix_Guitar,-1,-1
53,100,0.16363636363636364,619,0,18,DL_Remix_Guitar,-1,-1
52,100,0.2772727272727273,229,1,19,DL_Remix_Guitar,-1,-1
52,100,0.12272727272727273,364,0,19,DL_Remix_Guitar,-1,-1
59,100,0.12272727272727273,488,0,19,DL_Remix_Guitar,-1,-1
52,100,0.4,590,0,19,DL_Remix_Guitar,-1,-1
52,100,0.32272727272727275,708,0,19,DL_Remix_Guitar,-1,-1
50,100,0.13636363636363635,150,1,20,DL_Remix_Guitar,-1,-1
50,100,0.2590909090909091,198,0,20,DL_Remix_Guitar,-1,-1
55,100,0.11818181818181818,559,1,20,DL_Remix_Guitar,-1,-1
55,100,0.17727272727272728,810,1,20,DL_Remix_Guitar,-1,-1
56,100,0.2,656,1,21,DL_Remix_Guitar,-1,-1
62,100,0.1409090909090909,773,0,21,DL_Remix_Guitar,-1,-1
43,100,0.1590909090909091,804,0,21,DL_Remix_Guitar,-1,-1
45,100,0.12272727272727273,289,1,22,DL_Remix_Guitar,-1,-1
57,100,0.16363636363636364,422,0,22,DL_Remix_Guitar,-1,-1
57,100,0.22272727272727272,497,0,22,DL_Remix_Guitar,-1,-1
57,100,0.1,756,1,22,DL_Remix_Guitar,-1,-1
57,100,0.11818181818181818,876,0,22,DL_Remix_Guitar,-1,-1
45,100,0.1590909090909091,100,1,23,DL_Remix_Guitar,-1,-1
50,100,0.13636363636363635,480,1,23,DL_Remix_Guitar,-1,-1
57,100,0.4409090909090909,65,1,24,DL_Remix_Guitar,-1,-1
55,100,0.2818181818181818,532,1,24,DL_Remix_Guitar,-1,-1
53,100,0.22272727272727272,796,1,24,DL_Remix_Guitar,-1,-1
55,100,0.12272727272727273,26,1,25,DL_Remix_Guitar,-1,-1
55,100,0.5,150,0,25,DL_Remix_Guitar,-1,-1
53,100,0.12272727272727273,378,1,25,DL_Remix_Guitar,-1,-1
55,100,0.3,611,1,25,DL_Remix_Guitar,-1,-1
55,100,0.43636363636363634,831,1,25,DL_Remix_Guitar,-1,-1
60,100,0.18181818181818182,351,1,26,DL_Remix_Guitar,-1,-1
53,100,0.1590909090909091,602,1,26,DL_Remix_Guitar,-1,-1
57,100,0.16363636363636364,663,0,26,DL_Remix_Guitar,-1,-1
57,100,0.5409090909090909,708,0,26,DL_Remix_Guitar,-1,-1
57,100,0.759090909090909,858,0,26,DL_Remix_Guitar,-1,-1
57,100,0.12272727272727273,223,1,27,DL_Remix_Guitar,-1,-1
57,100,0.4818181818181818,285,0,27,DL_Remix_Guitar,-1,-1
53,100,0.1409090909090909,453,0,27,DL_Remix_Guitar,-1,-1
57,100,0.11818181818181818,581,0,27,DL_Remix_Guitar,-1,-1
53,100,0.21818181818181817,581,1,28,DL_Remix_Guitar,-1,-1
53,100,0.22272727272727272,663,0,28,DL_Remix_Guitar,-1,-1
52,100,0.23636363636363636,787,0,28,DL_Remix_Guitar,-1,-1
52,100,0.23636363636363636,876,0,28,DL_Remix_Guitar,-1,-1
52,100,0.2,189,1,29,DL_Remix_Guitar,-1,-1
59,100,0.11818181818181818,405,1,29,DL_Remix_Guitar,-1,-1
62,100,0.1590909090909091,461,0,29,DL_Remix_Guitar,-1,-1
53,100,0.5590909090909091,611,1,44,DL_Remix_Guitar,-1,-1
47,100,0.5181818181818182,96,1,45,DL_Remix_Guitar,-1,-1
48,100,0.5227272727272727,211,0,45,DL_Remix_Guitar,-1,-1
55,100,0.1590909090909091,131,1,46,DL_Remix_Guitar,-1,-1
55,100,0.3181818181818182,338,1,46,DL_Remix_Guitar,-1,-1
57,100,0.8409090909090909,440,0,46,DL_Remix_Guitar,-1,-1
60,100,0.11818181818181818,668,1,46,DL_Remix_Guitar,-1,-1
52,100,0.13636363636363635,18,1,47,DL_Remix_Guitar,-1,-1
60,100,0.11818181818181818,370,1,47,DL_Remix_Guitar,-1,-1
45,100,0.5,405,0,47,DL_Remix_Guitar,-1,-1
62,100,0.1409090909090909,298,1,48,DL_Remix_Guitar,-1,-1
52,100,0.1409090909090909,378,0,48,DL_Remix_Guitar,-1,-1
57,100,0.8818181818181818,616,1,48,DL_Remix_Guitar,-1,-1
62,100,0.18181818181818182,576,1,49,DL_Remix_Guitar,-1,-1
53,100,0.18181818181818182,638,0,49,DL_Remix_Guitar,-1,-1
48,100,0.22272727272727272,729,0,49,DL_Remix_Guitar,-1,-1
59,100,0.1590909090909091,541,1,50,DL_Remix_Guitar,-1,-1
45,100,0.3409090909090909,206,1,51,DL_Remix_Guitar,-1,-1
57,100,0.21818181818181817,506,1,51,DL_Remix_Guitar,-1,-1
57,100,0.12272727272727273,716,1,51,DL_Remix_Guitar,-1,-1
45,100,0.42272727272727273,761,0,51,DL_Remix_Guitar,-1,-1
48,100,0.12272727272727273,78,1,52,DL_Remix_Guitar,-1,-1
59,100,0.2,738,1,52,DL_Remix_Guitar,-1,-1
45,100,0.18181818181818182,21,1,53,DL_Remix_Guitar,-1,-1
50,100,0.11818181818181818,105,0,53,DL_Remix_Guitar,-1,-1
50,100,0.2818181818181818,136,0,53,DL_Remix_Guitar,-1,-1
50,100,0.12272727272727273,201,0,53,DL_Remix_Guitar,-1,-1
50,100,0.11818181818181818,238,0,53,DL_Remix_Guitar,-1,-1
57,100,0.4636363636363636,311,0,53,DL_Remix_Guitar,-1,-1
57,100,0.4,673,1,53,DL_Remix_Guitar,-1,-1
57,100,0.17727272727272728,765,0,53,DL_Remix_Guitar,-1,-1
44,100,0.11818181818181818,131,1,54,DL_Remix_Guitar,-1,-1
64,100,0.37727272727272726,193,0,54,DL_Remix_Guitar,-1,-1
48,100,1.8409090909090908,421,1,54,DL_Remix_Guitar,-1,-1
48,100,0.4,831,1,54,DL_Remix_Guitar,-1,-1
48,100,0.11818181818181818,43,1,55,DL_Remix_Guitar,-1,-1
55,100,0.1409090909090909,206,0,55,DL_Remix_Guitar,-1,-1
57,100,0.8,276,0,55,DL_Remix_Guitar,-1,-1
57,100,0.11818181818181818,458,0,55,DL_Remix_Guitar,-1,-1
53,100,1.1181818181818182,568,0,55,DL_Remix_Guitar,-1,-1
57,100,0.2590909090909091,848,1,55,DL_Remix_Guitar,-1,-1
57,100,0.3,171,1,56,DL_Remix_Guitar,-1,-1
52,100,0.1409090909090909,295,0,56,DL_Remix_Guitar,-1,-1
52,100,0.4409090909090909,405,0,56,DL_Remix_Guitar,-1,-1
40,100,0.2818181818181818,518,0,56,DL_Remix_Guitar,-1,-1
52,100,0.7,628,0,56,DL_Remix_Guitar,-1,-1
52,100,0.2409090909090909,836,1,56,DL_Remix_Guitar,-1,-1
52,100,0.36363636363636365,224,1,57,DL_Remix_Guitar,-1,-1
64,100,0.2590909090909091,364,0,57,DL_Remix_Guitar,-1,-1
50,100,0.35909090909090907,480,0,57,DL_Remix_Guitar,-1,-1
50,100,0.2,861,1,57,DL_Remix_Guitar,-1,-1
53,100,0.2772727272727273,206,1,58,DL_Remix_Guitar,-1,-1
55,100,0.2409090909090909,66,1,59,DL_Remix_Guitar,-1,-1
47,100,0.1590909090909091,193,0,59,DL_Remix_Guitar,-1,-1
47,100,0.32272727272727275,268,0,59,DL_Remix_Guitar,-1,-1
52,100,0.17727272727272728,568,1,59,DL_Remix_Guitar,-1,-1
57,100,0.11818181818181818,735,0,59,DL_Remix_Guitar,-1,-1
60,100,0.17727272727272728,875,0,59,DL_Remix_Guitar,-1,-1
57,100,0.21818181818181817,105,1,60,DL_Remix_Guitar,-1,-1
57,100,0.12272727272727273,179,0,60,DL_Remix_Guitar,-1,-1
60,100,0.3,396,1,60,DL_Remix_Guitar,-1,-1
64,100,0.13636363636363635,633,1,60,DL_Remix_Guitar,-1,-1
57,100,1.040909090909091,716,0,60,DL_Remix_Guitar,-1,-1
60,100,0.12272727272727273,158,1,61,DL_Remix_Guitar,-1,-1
57,100,1.440909090909091,311,0,61,DL_Remix_Guitar,-1,-1
57,100,0.2,584,1,62,DL_Remix_Guitar,-1,-1
57,100,0.2409090909090909,8,1,63,DL_Remix_Guitar,-1,-1
57,100,0.1590909090909091,273,1,63,DL_Remix_Guitar,-1,-1
57,100,0.1590909090909091,364,0,63,DL_Remix_Guitar,-1,-1
57,100,0.12272727272727273,453,0,63,DL_Remix_Guitar,-1,-1
57,100,0.1409090909090909,515,0,63,DL_Remix_Guitar,-1,-1
55,100,0.3,546,1,65,DL_Remix_Guitar,-1,-1
43,100,0.1,796,1,65,DL_Remix_Guitar,-1,-1
43,100,0.3409090909090909,826,0,65,DL_Remix_Guitar,-1,-1
52,100,0.9409090909090909,307,1,66,DL_Remix_Guitar,-1,-1
52,100,0.2772727272727273,633,1,66,DL_Remix_Guitar,-1,-1
52,100,0.33636363636363636,743,0,66,DL_Remix_Guitar,-1,-1
62,100,0.5409090909090909,9,1,67,DL_Remix_Guitar,-1,-1
59,100,0.22272727272727272,166,0,67,DL_Remix_Guitar,-1,-1
60,100,0.2409090909090909,550,1,67,DL_Remix_Guitar,-1,-1
57,100,0.3,813,1,67,DL_Remix_Guitar,-1,-1
57,100,0.2,96,1,68,DL_Remix_Guitar,-1,-1
57,100,0.12272727272727273,189,0,68,DL_Remix_Guitar,-1,-1
45,100,0.1590909090909091,237,0,68,DL_Remix_Guitar,-1,-1
57,100,0.3,470,1,68,DL_Remix_Guitar,-1,-1
57,100,0.38181818181818183,606,0,68,DL_Remix_Guitar,-1,-1
57,100,0.13636363636363635,347,1,69,DL_Remix_Guitar,-1,-1
57,100,0.11818181818181818,462,0,69,DL_Remix_Guitar,-1,-1
45,100,0.11818181818181818,493,0,69,DL_Remix_Guitar,-1,-1
64,100,0.12272727272727273,540,0,69,DL_Remix_Guitar,-1,-1
48,100,0.16363636363636364,817,1,69,DL_Remix_Guitar,-1,-1
45,100,0.5181818181818182,282,1,70,DL_Remix_Guitar,-1,-1
45,100,0.2818181818181818,399,0,70,DL_Remix_Guitar,-1,-1
57,100,0.1590909090909091,462,0,70,DL_Remix_Guitar,-1,-1
58,100,0.5636363636363636,157,1,71,DL_Remix_Guitar,-1,-1
57,100,0.1590909090909091,30,1,72,DL_Remix_Guitar,-1,-1
57,100,0.11818181818181818,150,0,72,DL_Remix_Guitar,-1,-1
43,100,0.11818181818181818,339,0,72,DL_Remix_Guitar,-1,-1
47,100,0.2409090909090909,619,1,72,DL_Remix_Guitar,-1,-1
47,100,0.1590909090909091,677,0,72,DL_Remix_Guitar,-1,-1
64,100,0.1,343,1,73,DL_Remix_Guitar,-1,-1
64,100,0.4,377,0,73,DL_Remix_Guitar,-1,-1
45,100,0.1590909090909091,496,0,73,DL_Remix_Guitar,-1,-1
52,100,0.1,606,0,73,DL_Remix_Guitar,-1,-1
57,100,0.6590909090909091,660,0,73,DL_Remix_Guitar,-1,-1
56,100,0.2,53,1,74,DL_Remix_Guitar,-1,-1
56,100,1.2227272727272727,100,0,74,DL_Remix_Guitar,-1,-1
52,100,0.2409090909090909,383,1,74,DL_Remix_Guitar,-1,-1
57,100,0.11818181818181818,483,0,74,DL_Remix_Guitar,-1,-1
57,100,0.22272727272727272,519,0,74,DL_Remix_Guitar,-1,-1
45,100,0.4590909090909091,747,1,74,DL_Remix_Guitar,-1,-1
45,100,0.12272727272727273,13,1,75,DL_Remix_Guitar,-1,-1
45,100,0.18181818181818182,43,0,75,DL_Remix_Guitar,-1,-1
57,100,0.8,96,0,75,DL_Remix_Guitar,-1,-1
57,100,0.2818181818181818,352,1,75,DL_Remix_Guitar,-1,-1
57,100,0.2,417,0,75,DL_Remix_Guitar,-1,-1
50,100,0.1,523,0,75,DL_Remix_Guitar,-1,-1
43,100,0.3,619,0,75,DL_Remix_Guitar,-1,-1
55,100,0.3,839,1,75,DL_Remix_Guitar,-1,-1
62,100,0.6818181818181818,773,1,76,DL_Remix_Guitar,-1,-1
43,100,0.22272727272727272,145,1,77,DL_Remix_Guitar,-1,-1
57,100,0.5818181818181818,263,0,77,DL_Remix_Guitar,-1,-1
57,100,0.6,752,1,77,DL_Remix_Guitar,-1,-1
57,100,0.2590909090909091,404,1,78,DL_Remix_Guitar,-1,-1
53,100,0.12272727272727273,466,1,79,DL_Remix_Guitar,-1,-1
57,100,0.12272727272727273,553,0,79,DL_Remix_Guitar,-1,-1
57,100,0.4590909090909091,56,1,80,DL_Remix_Guitar,-1,-1
43,100,0.41818181818181815,206,0,80,DL_Remix_Guitar,-1,-1
57,100,0.5,550,1,80,DL_Remix_Guitar,-1,-1
43,100,0.4772727272727273,303,1,81,DL_Remix_Guitar,-1,-1
57,100,0.35909090909090907,633,1,81,DL_Remix_Guitar,-1,-1
50,100,0.1,722,0,81,DL_Remix_Guitar,-1,-1
57,100,0.35909090909090907,30,1,82,DL_Remix_Guitar,-1,-1
45,100,0.1,673,1,82,DL_Remix_Guitar,-1,-1
58,100,0.18181818181818182,157,1,83,DL_Remix_Guitar,-1,-1
58,100,0.8772727272727273,326,0,83,DL_Remix_Guitar,-1,-1
63,100,0.33636363636363636,567,1,83,DL_Remix_Guitar,-1,-1
52,100,0.17727272727272728,844,1,83,DL_Remix_Guitar,-1,-1
52,100,0.38181818181818183,396,1,84,DL_Remix_Guitar,-1,-1
48,100,0.17727272727272728,603,1,84,DL_Remix_Guitar,-1,-1
62,100,0.2818181818181818,35,1,85,DL_Remix_Guitar,-1,-1
62,100,0.35909090909090907,150,0,85,DL_Remix_Guitar,-1,-1
59,100,0.2772727272727273,480,1,85,DL_Remix_Guitar,-1,-1
57,100,0.17727272727272728,184,1,86,DL_Remix_Guitar,-1,-1
57,100,0.3409090909090909,229,0,86,DL_Remix_Guitar,-1,-1
50,100,0.11818181818181818,624,1,86,DL_Remix_Guitar,-1,-1
50,100,0.2590909090909091,677,0,86,DL_Remix_Guitar,-1,-1
43,100,0.3409090909090909,206,1,87,DL_Remix_Guitar,-1,-1
55,100,0.16363636363636364,817,1,87,DL_Remix_Guitar,-1,-1
55,100,0.1,43,1,88,DL_Remix_Guitar,-1,-1
55,100,0.1,69,0,88,DL_Remix_Guitar,-1,-1
56,100,0.1,356,1,89,DL_Remix_Guitar,-1,-1
50,100,0.21818181818181817,404,0,89,DL_Remix_Guitar,-1,-1
57,100,0.2590909090909091,743,1,89,DL_Remix_Guitar,-1,-1
57,100,0.1409090909090909,22,1,90,DL_Remix_Guitar,-1,-1
57,100,0.21818181818181817,216,0,90,DL_Remix_Guitar,-1,-1
43,100,0.7636363636363637,487,1,90,DL_Remix_Guitar,-1,-1
55,100,0.21818181818181817,766,1,90,DL_Remix_Guitar,-1,-1
55,100,0.4,817,0,90,DL_Remix_Guitar,-1,-1
43,100,0.12272727272727273,223,1,91,DL_Remix_Guitar,-1,-1
43,100,0.2818181818181818,453,1,91,DL_Remix_Guitar,-1,-1
43,100,0.21818181818181817,787,1,91,DL_Remix_Guitar,-1,-1
55,100,0.22272727272727272,862,0,91,DL_Remix_Guitar,-1,-1
55,100,0.2409090909090909,66,1,92,DL_Remix_Guitar,-1,-1
43,100,0.4590909090909091,783,1,92,DL_Remix_Guitar,-1,-1
57,100,0.8,83,1,97,DL_Remix_Guitar,-1,-1
52,100,0.2,707,1,97,DL_Remix_Guitar,-1,-1
52,100,0.13636363636363635,766,0,97,DL_Remix_Guitar,-1,-1
52,100,0.16363636363636364,839,0,97,DL_Remix_Guitar,-1,-1
44,100,0.1,113,1,98,DL_Remix_Guitar,-1,-1
46,100,0.1590909090909091,132,1,99,DL_Remix_Guitar,-1,-1
46,100,0.2590909090909091,197,0,99,DL_Remix_Guitar,-1,-1
45,100,0.2,282,0,99,DL_Remix_Guitar,-1,-1
45,100,0.1,330,0,99,DL_Remix_Guitar,-1,-1
45,100,0.11818181818181818,392,0,99,DL_Remix_Guitar,-1,-1
57,100,3.3,462,0,99,DL_Remix_Guitar,-1,-1
55,100,0.2590909090909091,483,1,101,DL_Remix_Guitar,-1,-1
50,100,0.2,876,1,101,DL_Remix_Guitar,-1,-1
50,100,1.3,53,1,102,DL_Remix_Guitar,-1,-1
50,100,0.7818181818181819,373,1,102,DL_Remix_Guitar,-1,-1
50,100,0.11818181818181818,756,1,102,DL_Remix_Guitar,-1,-1
47,100,0.18181818181818182,356,1,103,DL_Remix_Guitar,-1,-1
60,100,0.4818181818181818,399,0,103,DL_Remix_Guitar,-1,-1
52,100,0.1590909090909091,273,1,104,DL_Remix_Guitar,-1,-1
52,100,0.22272727272727272,540,1,104,DL_Remix_Guitar,-1,-1
53,100,0.7772727272727272,756,1,104,DL_Remix_Guitar,-1,-1
60,100,0.1,136,1,105,DL_Remix_Guitar,-1,-1
53,100,0.4590909090909091,233,0,105,DL_Remix_Guitar,-1,-1
53,100,0.5181818181818182,457,1,105,DL_Remix_Guitar,-1,-1
53,100,0.5181818181818182,590,0,105,DL_Remix_Guitar,-1,-1
52,100,0.11818181818181818,857,1,105,DL_Remix_Guitar,-1,-1
52,100,0.3,66,1,106,DL_Remix_Guitar,-1,-1
52,100,0.23636363636363636,567,1,106,DL_Remix_Guitar,-1,-1
55,100,0.17727272727272728,853,1,106,DL_Remix_Guitar,-1,-1
45,100,0.11818181818181818,206,1,107,DL_Remix_Guitar,-1,-1
45,100,0.2,267,0,107,DL_Remix_Guitar,-1,-1
45,100,0.1,356,0,107,DL_Remix_Guitar,-1,-1
55,100,0.5181818181818182,404,0,107,DL_Remix_Guitar,-1,-1
55,100,0.1,523,0,107,DL_Remix_Guitar,-1,-1
50,100,0.6,179,1,108,DL_Remix_Guitar,-1,-1
57,100,0.12272727272727273,386,1,108,DL_Remix_Guitar,-1,-1
55,100,0.6,567,0,108,DL_Remix_Guitar,-1,-1
43,100,0.18181818181818182,792,1,108,DL_Remix_Guitar,-1,-1
55,100,0.5409090909090909,3,1,109,DL_Remix_Guitar,-1,-1
55,100,0.2636363636363636,136,0,109,DL_Remix_Guitar,-1,-1
55,100,0.18181818181818182,519,1,109,DL_Remix_Guitar,-1,-1
55,100,0.11818181818181818,590,0,109,DL_Remix_Guitar,-1,-1
55,100,0.18181818181818182,87,1,110,DL_Remix_Guitar,-1,-1
45,100,0.4,184,0,110,DL_Remix_Guitar,-1,-1
46,100,0.4409090909090909,320,0,110,DL_Remix_Guitar,-1,-1
46,100,0.1,430,0,110,DL_Remix_Guitar,-1,-1
46,100,0.13636363636363635,457,0,110,DL_Remix_Guitar,-1,-1
46,100,0.12272727272727273,576,0,110,DL_Remix_Guitar,-1,-1
46,100,0.3181818181818182,22,1,111,DL_Remix_Guitar,-1,-1
46,100,0.11818181818181818,140,0,111,DL_Remix_Guitar,-1,-1
46,100,0.5,233,0,111,DL_Remix_Guitar,-1,-1
55,100,0.12272727272727273,399,0,111,DL_Remix_Guitar,-1,-1
55,100,0.21818181818181817,436,0,111,DL_Remix_Guitar,-1,-1
56,100,0.1,426,1,112,DL_Remix_Guitar,-1,-1
57,100,0.16363636363636364,532,0,112,DL_Remix_Guitar,-1,-1
55,100,0.2409090909090909,642,1,113,DL_Remix_Guitar,-1,-1
55,100,0.1590909090909091,9,1,114,DL_Remix_Guitar,-1,-1
55,100,0.16363636363636364,47,0,114,DL_Remix_Guitar,-1,-1
55,100,0.1409090909090909,179,0,114,DL_Remix_Guitar,-1,-1
48,100,0.12272727272727273,673,1,114,DL_Remix_Guitar,-1,-1
48,100,0.11818181818181818,832,0,114,DL_Remix_Guitar,-1,-1
53,100,0.35909090909090907,17,1,115,DL_Remix_Guitar,-1,-1
53,100,0.1590909090909091,282,1,115,DL_Remix_Guitar,-1,-1
53,100,0.5818181818181818,320,0,115,DL_Remix_Guitar,-1,-1
60,100,0.5590909090909091,536,1,115,DL_Remix_Guitar,-1,-1
55,100,0.1590909090909091,320,1,116,DL_Remix_Guitar,-1,-1
50,100,0.5409090909090909,839,1,116,DL_Remix_Guitar,-1,-1
59,100,0.3181818181818182,713,1,117,DL_Remix_Guitar,-1,-1
53,100,0.6363636363636364,83,1,118,DL_Remix_Guitar,-1,-1
53,100,0.5409090909090909,299,1,118,DL_Remix_Guitar,-1,-1
53,100,0.1409090909090909,426,0,118,DL_Remix_Guitar,-1,-1
55,100,0.4,572,0,118,DL_Remix_Guitar,-1,-1
53,100,0.7636363636363637,796,1,118,DL_Remix_Guitar,-1,-1
53,100,0.35909090909090907,233,1,119,DL_Remix_Guitar,-1,-1
53,100,0.18181818181818182,330,0,119,DL_Remix_Guitar,-1,-1
53,100,0.1,466,0,119,DL_Remix_Guitar,-1,-1
53,100,0.4636363636363636,576,0,119,DL_Remix_Guitar,-1,-1
53,100,0.3,729,0,119,DL_Remix_Guitar,-1,-1
53,100,0.1409090909090909,26,1,120,DL_Remix_Guitar,-1,-1
52,100,0.3,722,1,120,DL_Remix_Guitar,-1,-1
52,100,0.3,792,0,120,DL_Remix_Guitar,-1,-1
52,100,0.2818181818181818,110,1,121,DL_Remix_Guitar,-1,-1
50,100,0.42272727272727273,343,1,121,DL_Remix_Guitar,-1,-1
50,100,0.1,470,0,121,DL_Remix_Guitar,-1,-1
55,100,0.2409090909090909,836,1,121,DL_Remix_Guitar,-1,-1
55,100,0.2772727272727273,426,1,122,DL_Remix_Guitar,-1,-1
60,100,0.2,188,1,45,DL_Guitar,-1,-1
50,100,0.2772727272727273,655,1,45,DL_Guitar,-1,-1
43,100,0.2818181818181818,726,0,45,DL_Guitar,-1,-1
50,100,0.7,813,0,45,DL_Guitar,-1,-1
52,100,0.1409090909090909,136,1,46,DL_Guitar,-1,-1
52,100,0.1590909090909091,185,0,46,DL_Guitar,-1,-1
52,100,0.16363636363636364,311,0,46,DL_Guitar,-1,-1
52,100,0.2409090909090909,373,0,46,DL_Guitar,-1,-1
52,100,0.2818181818181818,681,1,46,DL_Guitar,-1,-1
52,100,1.1590909090909092,756,0,46,DL_Guitar,-1,-1
52,100,0.38181818181818183,136,1,47,DL_Guitar,-1,-1
41,100,0.1590909090909091,316,0,47,DL_Guitar,-1,-1
41,100,0.1409090909090909,356,0,47,DL_Guitar,-1,-1
41,100,0.2,431,0,47,DL_Guitar,-1,-1
41,100,0.4818181818181818,681,1,47,DL_Guitar,-1,-1
52,100,0.21818181818181817,845,0,47,DL_Guitar,-1,-1
52,100,0.4590909090909091,18,1,48,DL_Guitar,-1,-1
52,100,0.1409090909090909,136,0,48,DL_Guitar,-1,-1
52,100,0.6409090909090909,188,0,48,DL_Guitar,-1,-1
52,100,0.1409090909090909,338,0,48,DL_Guitar,-1,-1
50,100,0.5181818181818182,458,0,48,DL_Guitar,-1,-1
50,100,0.2409090909090909,593,0,48,DL_Guitar,-1,-1
50,100,0.5409090909090909,845,1,48,DL_Guitar,-1,-1
50,100,0.1,91,1,49,DL_Guitar,-1,-1
50,100,0.22272727272727272,298,1,49,DL_Guitar,-1,-1
50,100,0.5363636363636364,370,0,49,DL_Guitar,-1,-1
50,100,0.5772727272727273,493,0,49,DL_Guitar,-1,-1
55,100,0.2590909090909091,75,1,50,DL_Guitar,-1,-1
50,100,0.2590909090909091,338,1,50,DL_Guitar,-1,-1
50,100,0.2,483,0,50,DL_Guitar,-1,-1
50,100,0.6818181818181818,550,0,50,DL_Guitar,-1,-1
52,100,0.18181818181818182,796,1,50,DL_Guitar,-1,-1
52,100,0.11818181818181818,96,1,51,DL_Guitar,-1,-1
52,100,0.37727272727272726,171,0,51,DL_Guitar,-1,-1
60,100,0.16363636363636364,268,0,51,DL_Guitar,-1,-1
52,100,0.1,545,1,51,DL_Guitar,-1,-1
52,100,1.2181818181818183,590,0,51,DL_Guitar,-1,-1
41,100,0.1409090909090909,136,1,52,DL_Guitar,-1,-1
41,100,0.13636363636363635,325,0,52,DL_Guitar,-1,-1
41,100,0.2,396,0,52,DL_Guitar,-1,-1
41,100,0.21818181818181817,528,0,52,DL_Guitar,-1,-1
52,100,0.5227272727272727,641,0,52,DL_Guitar,-1,-1
64,100,0.11818181818181818,791,0,52,DL_Guitar,-1,-1
52,100,0.8227272727272728,839,0,52,DL_Guitar,-1,-1
50,100,0.16363636363636364,289,1,53,DL_Guitar,-1,-1
50,100,0.3,330,0,53,DL_Guitar,-1,-1
50,100,0.2,474,0,53,DL_Guitar,-1,-1
50,100,0.2772727272727273,536,0,53,DL_Guitar,-1,-1
50,100,0.5818181818181818,664,0,53,DL_Guitar,-1,-1
50,100,0.2409090909090909,839,0,53,DL_Guitar,-1,-1
50,100,0.16363636363636364,201,1,54,DL_Guitar,-1,-1
50,100,0.35909090909090907,316,0,54,DL_Guitar,-1,-1
64,100,0.1409090909090909,598,1,60,DL_Guitar,-1,-1
62,100,0.2,246,1,61,DL_Guitar,-1,-1
43,100,0.32272727272727275,496,1,61,DL_Guitar,-1,-1
43,100,0.11818181818181818,590,0,61,DL_Guitar,-1,-1
52,100,0.1590909090909091,845,1,61,DL_Guitar,-1,-1
45,100,0.1590909090909091,56,1,62,DL_Guitar,-1,-1
52,100,0.12272727272727273,158,0,62,DL_Guitar,-1,-1
52,100,0.1409090909090909,418,1,62,DL_Guitar,-1,-1
52,100,0.35909090909090907,536,0,62,DL_Guitar,-1,-1
52,100,0.2818181818181818,729,0,62,DL_Guitar,-1,-1
53,100,0.1409090909090909,804,0,62,DL_Guitar,-1,-1
60,100,0.2,8,1,63,DL_Guitar,-1,-1
60,100,0.2409090909090909,56,0,63,DL_Guitar,-1,-1
53,100,0.22272727272727272,136,0,63,DL_Guitar,-1,-1
41,100,0.4409090909090909,201,0,63,DL_Guitar,-1,-1
41,100,0.2409090909090909,321,0,63,DL_Guitar,-1,-1
41,100,0.12272727272727273,399,0,63,DL_Guitar,-1,-1
52,100,0.5409090909090909,466,0,63,DL_Guitar,-1,-1
52,100,0.18181818181818182,13,1,64,DL_Guitar,-1,-1
50,100,0.3181818181818182,150,0,64,DL_Guitar,-1,-1
62,100,0.2,229,0,64,DL_Guitar,-1,-1
50,100,0.17727272727272728,316,0,64,DL_Guitar,-1,-1
50,100,0.1409090909090909,430,0,64,DL_Guitar,-1,-1
62,100,0.5772727272727273,559,0,64,DL_Guitar,-1,-1
43,100,0.3,686,0,64,DL_Guitar,-1,-1
62,100,0.1409090909090909,792,0,64,DL_Guitar,-1,-1
43,100,0.2,844,0,64,DL_Guitar,-1,-1
62,100,0.11818181818181818,106,1,65,DL_Guitar,-1,-1
55,100,0.35909090909090907,413,1,65,DL_Guitar,-1,-1
43,100,0.11818181818181818,713,1,65,DL_Guitar,-1,-1
50,100,0.2,796,0,65,DL_Guitar,-1,-1
62,100,0.8409090909090909,462,1,66,DL_Guitar,-1,-1
62,100,0.9409090909090909,713,1,66,DL_Guitar,-1,-1
52,100,0.3,106,1,67,DL_Guitar,-1,-1
60,100,0.1590909090909091,250,0,67,DL_Guitar,-1,-1
52,100,0.4818181818181818,320,0,67,DL_Guitar,-1,-1
41,100,0.1409090909090909,783,1,67,DL_Guitar,-1,-1
53,100,0.36363636363636365,817,0,67,DL_Guitar,-1,-1
53,100,0.4590909090909091,22,1,68,DL_Guitar,-1,-1
41,100,0.1409090909090909,184,0,68,DL_Guitar,-1,-1
53,100,0.13636363636363635,216,0,68,DL_Guitar,-1,-1
52,100,0.2772727272727273,282,0,68,DL_Guitar,-1,-1
52,100,0.2,417,0,68,DL_Guitar,-1,-1
52,100,0.37727272727272726,493,0,68,DL_Guitar,-1,-1
52,100,0.1,580,0,68,DL_Guitar,-1,-1
52,100,0.1,606,0,68,DL_Guitar,-1,-1
52,100,0.13636363636363635,633,0,68,DL_Guitar,-1,-1
62,100,0.12272727272727273,817,0,68,DL_Guitar,-1,-1
62,100,0.3409090909090909,849,0,68,DL_Guitar,-1,-1
62,100,0.36363636363636365,69,1,69,DL_Guitar,-1,-1
62,100,0.11818181818181818,172,0,69,DL_Guitar,-1,-1
62,100,0.2636363636363636,202,0,69,DL_Guitar,-1,-1
43,100,0.21818181818181817,260,0,69,DL_Guitar,-1,-1
43,100,0.2590909090909091,326,0,69,DL_Guitar,-1,-1
62,100,0.1409090909090909,383,0,69,DL_Guitar,-1,-1
43,100,0.11818181818181818,413,0,69,DL_Guitar,-1,-1
52,100,0.2818181818181818,593,0,69,DL_Guitar,-1,-1
52,100,0.1590909090909091,673,0,69,DL_Guitar,-1,-1
52,100,0.5363636363636364,722,0,69,DL_Guitar,-1,-1
60,100,0.1409090909090909,870,0,69,DL_Guitar,-1,-1
41,100,0.18181818181818182,113,1,70,DL_Guitar,-1,-1
53,100,0.38181818181818183,307,0,70,DL_Guitar,-1,-1
53,100,0.3,396,0,70,DL_Guitar,-1,-1
60,100,0.2818181818181818,506,0,70,DL_Guitar,-1,-1
41,100,0.11818181818181818,567,0,70,DL_Guitar,-1,-1
52,100,0.5636363636363636,642,0,70,DL_Guitar,-1,-1
52,100,0.18181818181818182,770,0,70,DL_Guitar,-1,-1
52,100,0.8,839,0,70,DL_Guitar,-1,-1
50,100,0.6181818181818182,282,1,71,DL_Guitar,-1,-1
62,100,0.1,417,0,71,DL_Guitar,-1,-1
62,100,0.21818181818181817,493,0,71,DL_Guitar,-1,-1
62,100,0.6409090909090909,650,0,71,DL_Guitar,-1,-1
62,100,0.1590909090909091,823,0,71,DL_Guitar,-1,-1
50,100,0.18181818181818182,69,1,72,DL_Guitar,-1,-1
50,100,0.13636363636363635,260,0,72,DL_Guitar,-1,-1
52,100,0.2,399,0,72,DL_Guitar,-1,-1
53,100,0.33636363636363636,457,0,72,DL_Guitar,-1,-1
53,100,0.16363636363636364,576,0,72,DL_Guitar,-1,-1
53,100,0.1590909090909091,660,0,72,DL_Guitar,-1,-1
60,100,0.1,734,0,72,DL_Guitar,-1,-1
41,100,0.2409090909090909,773,0,72,DL_Guitar,-1,-1
41,100,0.1590909090909091,870,0,72,DL_Guitar,-1,-1
53,100,0.2,30,1,73,DL_Guitar,-1,-1
50,100,0.1,193,0,73,DL_Guitar,-1,-1
55,100,0.6181818181818182,413,1,73,DL_Guitar,-1,-1
55,100,0.35909090909090907,590,0,73,DL_Guitar,-1,-1
43,100,0.16363636363636364,686,0,73,DL_Guitar,-1,-1
55,100,0.5,722,0,73,DL_Guitar,-1,-1
43,100,0.22272727272727272,849,0,73,DL_Guitar,-1,-1
53,100,0.42272727272727273,796,1,74,DL_Guitar,-1,-1
53,100,0.4590909090909091,62,1,75,DL_Guitar,-1,-1
41,100,0.11818181818181818,197,0,75,DL_Guitar,-1,-1
60,100,0.17727272727272728,250,0,75,DL_Guitar,-1,-1
53,100,0.1,303,0,75,DL_Guitar,-1,-1
41,100,0.13636363636363635,326,0,75,DL_Guitar,-1,-1
53,100,0.12272727272727273,356,0,75,DL_Guitar,-1,-1
53,100,0.1590909090909091,417,0,75,DL_Guitar,-1,-1
52,100,0.2818181818181818,92,1,76,DL_Guitar,-1,-1
52,100,0.1,263,0,76,DL_Guitar,-1,-1
52,100,0.2,352,0,76,DL_Guitar,-1,-1
52,100,0.2636363636363636,399,0,76,DL_Guitar,-1,-1
52,100,0.17727272727272728,480,0,76,DL_Guitar,-1,-1
52,100,0.1409090909090909,563,0,76,DL_Guitar,-1,-1
52,100,0.2,624,0,76,DL_Guitar,-1,-1
53,100,0.12272727272727273,729,0,76,DL_Guitar,-1,-1
52,100,0.2,157,1,77,DL_Guitar,-1,-1
53,100,0.35909090909090907,263,0,77,DL_Guitar,-1,-1
53,100,0.1590909090909091,417,0,77,DL_Guitar,-1,-1
53,100,0.11818181818181818,457,0,77,DL_Guitar,-1,-1
53,100,0.6,523,0,77,DL_Guitar,-1,-1
53,100,0.16363636363636364,663,0,77,DL_Guitar,-1,-1
60,100,0.11818181818181818,713,0,77,DL_Guitar,-1,-1
53,100,0.12272727272727273,35,1,78,DL_Guitar,-1,-1
64,100,0.13636363636363635,260,1,78,DL_Guitar,-1,-1
52,100,0.1409090909090909,316,0,78,DL_Guitar,-1,-1
57,100,0.42272727272727273,466,0,78,DL_Guitar,-1,-1
50,100,0.3409090909090909,849,1,78,DL_Guitar,-1,-1
50,100,0.9590909090909091,96,1,79,DL_Guitar,-1,-1
50,100,0.11818181818181818,703,1,80,DL_Guitar,-1,-1
52,100,0.7181818181818181,810,0,80,DL_Guitar,-1,-1
52,100,0.1409090909090909,189,1,81,DL_Guitar,-1,-1
52,100,0.7181818181818181,263,0,81,DL_Guitar,-1,-1
52,100,0.6363636363636364,436,0,81,DL_Guitar,-1,-1
52,100,0.6,656,1,81,DL_Guitar,-1,-1
52,100,0.1,800,0,81,DL_Guitar,-1,-1
52,100,0.5,849,0,81,DL_Guitar,-1,-1
53,100,0.35909090909090907,140,1,82,DL_Guitar,-1,-1
53,100,0.1590909090909091,326,0,82,DL_Guitar,-1,-1
53,100,0.3181818181818182,383,0,82,DL_Guitar,-1,-1
41,100,0.1409090909090909,453,0,82,DL_Guitar,-1,-1
53,100,0.2409090909090909,527,0,82,DL_Guitar,-1,-1
52,100,0.9,629,0,82,DL_Guitar,-1,-1
52,100,0.7636363636363637,839,1,82,DL_Guitar,-1,-1
52,100,0.4772727272727273,150,1,83,DL_Guitar,-1,-1
50,100,0.5,62,1,84,DL_Guitar,-1,-1
43,100,0.21818181818181817,360,1,84,DL_Guitar,-1,-1
52,100,0.7636363636363637,466,0,84,DL_Guitar,-1,-1
52,100,0.4590909090909091,682,1,84,DL_Guitar,-1,-1
52,100,0.6181818181818182,810,0,84,DL_Guitar,-1,-1
52,100,0.2590909090909091,229,1,85,DL_Guitar,-1,-1
52,100,0.8,316,0,85,DL_Guitar,-1,-1
52,100,0.1409090909090909,514,0,85,DL_Guitar,-1,-1
50,100,0.2590909090909091,760,1,85,DL_Guitar,-1,-1
55,100,0.1409090909090909,417,1,86,DL_Guitar,-1,-1
50,100,0.13636363636363635,457,0,86,DL_Guitar,-1,-1
50,100,0.2,496,0,86,DL_Guitar,-1,-1
50,100,0.6409090909090909,550,0,86,DL_Guitar,-1,-1
48,100,0.13636363636363635,237,1,87,DL_Guitar,-1,-1
48,100,0.1409090909090909,299,0,87,DL_Guitar,-1,-1
48,100,0.2636363636363636,356,0,87,DL_Guitar,-1,-1
50,100,1.3590909090909091,656,1,87,DL_Guitar,-1,-1
48,100,0.3181818181818182,457,1,93,DL_Guitar,-1,-1
55,100,0.6818181818181818,572,0,93,DL_Guitar,-1,-1
55,100,0.18181818181818182,849,1,93,DL_Guitar,-1,-1
53,100,0.21818181818181817,360,1,94,DL_Guitar,-1,-1
53,100,0.1590909090909091,493,0,94,DL_Guitar,-1,-1
61,100,0.2,779,1,94,DL_Guitar,-1,-1
44,100,0.17727272727272728,83,1,95,DL_Guitar,-1,-1
44,100,0.17727272727272728,172,0,95,DL_Guitar,-1,-1
46,100,0.1,756,1,95,DL_Guitar,-1,-1
53,100,0.12272727272727273,3,1,96,DL_Guitar,-1,-1
53,100,0.1590909090909091,140,0,96,DL_Guitar,-1,-1
53,100,0.1409090909090909,320,0,96,DL_Guitar,-1,-1
53,100,0.2,373,0,96,DL_Guitar,-1,-1
56,100,0.1,619,1,96,DL_Guitar,-1,-1
61,100,0.1590909090909091,866,1,96,DL_Guitar,-1,-1
61,100,0.16363636363636364,47,1,97,DL_Guitar,-1,-1
54,100,0.17727272727272728,163,0,97,DL_Guitar,-1,-1
54,100,0.3,242,0,97,DL_Guitar,-1,-1
53,100,0.1,330,0,97,DL_Guitar,-1,-1
61,100,0.12272727272727273,92,1,98,DL_Guitar,-1,-1
61,100,0.32272727272727275,202,0,98,DL_Guitar,-1,-1
61,100,0.13636363636363635,303,0,98,DL_Guitar,-1,-1
61,100,0.2,440,0,98,DL_Guitar,-1,-1
44,100,0.21818181818181817,876,1,99,DL_Guitar,-1,-1
44,100,0.1,56,1,100,DL_Guitar,-1,-1
44,100,0.1590909090909091,140,0,100,DL_Guitar,-1,-1
53,100,0.17727272727272728,370,1,100,DL_Guitar,-1,-1
53,100,0.1,502,0,100,DL_Guitar,-1,-1
53,100,0.1409090909090909,637,0,100,DL_Guitar,-1,-1
53,100,0.21818181818181817,779,0,100,DL_Guitar,-1,-1
53,100,0.2590909090909091,870,0,100,DL_Guitar,-1,-1
41,100,0.1,100,1,101,DL_Guitar,-1,-1
53,100,0.11818181818181818,150,0,101,DL_Guitar,-1,-1
53,100,0.1,307,0,101,DL_Guitar,-1,-1
53,100,0.2818181818181818,409,0,101,DL_Guitar,-1,-1
54,100,0.1,734,1,101,DL_Guitar,-1,-1
54,100,0.1590909090909091,9,1,102,DL_Guitar,-1,-1
53,100,0.1409090909090909,43,0,102,DL_Guitar,-1,-1
44,100,0.2590909090909091,216,0,102,DL_Guitar,-1,-1
53,100,0.17727272727272728,633,1,102,DL_Guitar,-1,-1
51,100,3.3636363636363638,48,1,0,_Remix_Guitar,-1,-1
51,100,0.4818181818181818,858,1,0,_Remix_Guitar,-1,-1
51,100,0.2409090909090909,157,1,1,_Remix_Guitar,-1,-1
58,100,0.2818181818181818,421,1,1,_Remix_Guitar,-1,-1
63,100,0.1590909090909091,673,1,1,_Remix_Guitar,-1,-1
58,100,0.2590909090909091,57,1,2,_Remix_Guitar,-1,-1
51,100,0.5590909090909091,128,0,2,_Remix_Guitar,-1,-1
51,100,0.2409090909090909,254,0,2,_Remix_Guitar,-1,-1
51,100,0.12272727272727273,333,0,2,_Remix_Guitar,-1,-1
51,100,0.2409090909090909,364,0,2,_Remix_Guitar,-1,-1
63,100,0.18181818181818182,443,0,2,_Remix_Guitar,-1,-1
63,100,0.3409090909090909,488,0,2,_Remix_Guitar,-1,-1
58,100,0.2772727272727273,568,0,2,_Remix_Guitar,-1,-1
46,100,0.9,633,0,2,_Remix_Guitar,-1,-1
62,100,0.1409090909090909,845,1,2,_Remix_Guitar,-1,-1
46,100,0.11818181818181818,88,1,3,_Remix_Guitar,-1,-1
46,100,0.3,144,0,3,_Remix_Guitar,-1,-1
58,100,0.23636363636363636,216,0,3,_Remix_Guitar,-1,-1
63,100,0.21818181818181817,461,1,3,_Remix_Guitar,-1,-1
48,100,0.11818181818181818,678,1,3,_Remix_Guitar,-1,-1
48,100,0.1409090909090909,726,0,3,_Remix_Guitar,-1,-1
63,100,0.22272727272727272,114,1,4,_Remix_Guitar,-1,-1
63,100,0.41818181818181815,184,0,4,_Remix_Guitar,-1,-1
58,100,0.2590909090909091,348,0,4,_Remix_Guitar,-1,-1
46,100,0.5409090909090909,417,0,4,_Remix_Guitar,-1,-1
46,100,0.23636363636363636,568,0,4,_Remix_Guitar,-1,-1
63,100,0.5409090909090909,629,0,4,_Remix_Guitar,-1,-1
46,100,0.11818181818181818,831,1,4,_Remix_Guitar,-1,-1
63,100,0.2818181818181818,862,0,4,_Remix_Guitar,-1,-1
46,100,0.5227272727272727,79,1,5,_Remix_Guitar,-1,-1
58,100,0.18181818181818182,409,1,5,_Remix_Guitar,-1,-1
51,100,1.3590909090909091,568,0,5,_Remix_Guitar,-1,-1
63,100,0.2590909090909091,867,1,5,_Remix_Guitar,-1,-1
56,100,0.38181818181818183,201,1,6,_Remix_Guitar,-1,-1
63,100,0.7181818181818181,396,0,6,_Remix_Guitar,-1,-1
51,100,0.1,810,1,6,_Remix_Guitar,-1,-1
63,100,0.1409090909090909,8,1,7,_Remix_Guitar,-1,-1
51,100,0.5,40,0,7,_Remix_Guitar,-1,-1
51,100,0.2,176,0,7,_Remix_Guitar,-1,-1
63,100,0.1,220,0,7,_Remix_Guitar,-1,-1
51,100,0.21818181818181817,281,0,7,_Remix_Guitar,-1,-1
46,100,0.11818181818181818,440,0,7,_Remix_Guitar,-1,-1
62,100,0.1,629,0,7,_Remix_Guitar,-1,-1
48,100,0.21818181818181817,867,1,7,_Remix_Guitar,-1,-1
48,100,0.1,65,1,8,_Remix_Guitar,-1,-1
63,100,0.2636363636363636,422,1,8,_Remix_Guitar,-1,-1
56,100,0.35909090909090907,505,0,8,_Remix_Guitar,-1,-1
51,100,0.11818181818181818,691,0,8,_Remix_Guitar,-1,-1
63,100,0.2772727272727273,744,0,8,_Remix_Guitar,-1,-1
63,100,0.13636363636363635,17,1,9,_Remix_Guitar,-1,-1
46,100,0.1409090909090909,144,0,9,_Remix_Guitar,-1,-1
46,100,0.1,250,0,9,_Remix_Guitar,-1,-1
46,100,0.2,338,0,9,_Remix_Guitar,-1,-1
46,100,0.1409090909090909,409,0,9,_Remix_Guitar,-1,-1
63,100,0.38181818181818183,637,1,9,_Remix_Guitar,-1,-1
63,100,0.23636363636363636,39,1,10,_Remix_Guitar,-1,-1
58,100,0.1,211,0,10,_Remix_Guitar,-1,-1
51,100,0.740909090909091,268,0,10,_Remix_Guitar,-1,-1
51,100,0.2818181818181818,462,0,10,_Remix_Guitar,-1,-1
51,100,0.2,536,0,10,_Remix_Guitar,-1,-1
58,100,0.32272727272727275,584,0,10,_Remix_Guitar,-1,-1
58,100,0.22272727272727272,716,0,10,_Remix_Guitar,-1,-1
56,100,0.4772727272727273,787,0,10,_Remix_Guitar,-1,-1
56,100,0.1590909090909091,30,1,11,_Remix_Guitar,-1,-1
44,100,0.6590909090909091,65,0,11,_Remix_Guitar,-1,-1
58,100,0.2590909090909091,343,1,11,_Remix_Guitar,-1,-1
51,100,0.5,414,0,11,_Remix_Guitar,-1,-1
63,100,0.1,642,1,11,_Remix_Guitar,-1,-1
58,100,0.18181818181818182,739,0,11,_Remix_Guitar,-1,-1
58,100,0.1,795,0,11,_Remix_Guitar,-1,-1
58,100,0.2772727272727273,854,0,11,_Remix_Guitar,-1,-1
43,100,0.3409090909090909,75,1,12,_Remix_Guitar,-1,-1
43,100,0.7,216,0,12,_Remix_Guitar,-1,-1
58,100,0.21818181818181817,493,1,12,_Remix_Guitar,-1,-1
48,100,0.5590909090909091,558,0,12,_Remix_Guitar,-1,-1
55,100,0.5181818181818182,756,0,12,_Remix_Guitar,-1,-1
55,100,0.18181818181818182,65,1,13,_Remix_Guitar,-1,-1
44,100,0.41818181818181815,220,0,13,_Remix_Guitar,-1,-1
56,100,0.11818181818181818,316,0,13,_Remix_Guitar,-1,-1
56,100,0.6,369,0,13,_Remix_Guitar,-1,-1
58,100,0.2590909090909091,634,1,13,_Remix_Guitar,-1,-1
58,100,0.1,694,0,13,_Remix_Guitar,-1,-1
46,100,0.4818181818181818,716,0,13,_Remix_Guitar,-1,-1
58,100,0.22272727272727272,840,0,13,_Remix_Guitar,-1,-1
63,100,0.5409090909090909,13,1,14,_Remix_Guitar,-1,-1
58,100,0.3,140,0,14,_Remix_Guitar,-1,-1
58,100,0.32272727272727275,268,0,14,_Remix_Guitar,-1,-1
46,100,0.5772727272727273,338,0,14,_Remix_Guitar,-1,-1
46,100,0.12272727272727273,474,0,14,_Remix_Guitar,-1,-1
46,100,0.21818181818181817,546,0,14,_Remix_Guitar,-1,-1
62,100,0.2,603,0,14,_Remix_Guitar,-1,-1
58,100,0.1409090909090909,730,0,14,_Remix_Guitar,-1,-1
58,100,0.2772727272727273,778,0,14,_Remix_Guitar,-1,-1
51,100,0.6227272727272727,840,0,14,_Remix_Guitar,-1,-1
51,100,0.8,101,1,15,_Remix_Guitar,-1,-1
51,100,0.13636363636363635,347,1,15,_Remix_Guitar,-1,-1
63,100,0.1590909090909091,383,0,15,_Remix_Guitar,-1,-1
56,100,0.12272727272727273,474,0,15,_Remix_Guitar,-1,-1
44,100,0.2409090909090909,615,0,15,_Remix_Guitar,-1,-1
58,100,0.1,795,0,15,_Remix_Guitar,-1,-1
58,100,0.2590909090909091,40,1,16,_Remix_Guitar,-1,-1
43,100,0.4409090909090909,123,0,16,_Remix_Guitar,-1,-1
55,100,0.4818181818181818,223,0,16,_Remix_Guitar,-1,-1
58,100,0.2,567,1,16,_Remix_Guitar,-1,-1
48,100,0.8590909090909091,615,0,16,_Remix_Guitar,-1,-1
53,100,0.2,391,1,17,_Remix_Guitar,-1,-1
53,100,0.3,440,0,17,_Remix_Guitar,-1,-1
56,100,0.2,656,1,17,_Remix_Guitar,-1,-1
58,100,0.17727272727272728,712,0,17,_Remix_Guitar,-1,-1
46,100,0.6590909090909091,770,0,17,_Remix_Guitar,-1,-1
58,100,0.1590909090909091,52,1,18,_Remix_Guitar,-1,-1
60,100,0.2409090909090909,96,0,18,_Remix_Guitar,-1,-1
58,100,0.8,154,0,18,_Remix_Guitar,-1,-1
58,100,0.2590909090909091,339,0,18,_Remix_Guitar,-1,-1
51,100,0.5636363636363636,399,0,18,_Remix_Guitar,-1,-1
51,100,0.8636363636363636,532,0,18,_Remix_Guitar,-1,-1
58,100,0.2,729,0,18,_Remix_Guitar,-1,-1
63,100,0.12272727272727273,827,0,18,_Remix_Guitar,-1,-1
51,100,0.7,26,1,19,_Remix_Guitar,-1,-1
51,100,0.12272727272727273,202,0,19,_Remix_Guitar,-1,-1
63,100,0.2,550,1,19,_Remix_Guitar,-1,-1
60,100,0.11818181818181818,779,1,19,_Remix_Guitar,-1,-1
51,100,0.2818181818181818,69,1,20,_Remix_Guitar,-1,-1
51,100,0.16363636363636364,158,0,20,_Remix_Guitar,-1,-1
51,100,0.13636363636363635,216,0,20,_Remix_Guitar,-1,-1
63,100,0.2,343,0,20,_Remix_Guitar,-1,-1
51,100,0.16363636363636364,598,1,20,_Remix_Guitar,-1,-1
53,100,0.2409090909090909,144,1,21,_Remix_Guitar,-1,-1
51,100,0.11818181818181818,216,0,21,_Remix_Guitar,-1,-1
56,100,0.1,351,1,22,_Remix_Guitar,-1,-1
53,100,0.1409090909090909,822,1,22,_Remix_Guitar,-1,-1
53,100,0.1,34,1,23,_Remix_Guitar,-1,-1
50,100,0.11818181818181818,382,1,23,_Remix_Guitar,-1,-1
63,100,0.3181818181818182,0,1,24,_Remix_Guitar,-1,-1
55,100,0.12272727272727273,79,0,24,_Remix_Guitar,-1,-1
51,100,0.1,351,1,24,_Remix_Guitar,-1,-1
51,100,0.11818181818181818,395,0,24,_Remix_Guitar,-1,-1
63,100,0.1409090909090909,461,0,24,_Remix_Guitar,-1,-1
44,100,0.1,536,0,24,_Remix_Guitar,-1,-1
60,100,0.1,602,0,24,_Remix_Guitar,-1,-1
46,100,0.1590909090909091,822,1,24,_Remix_Guitar,-1,-1
62,100,0.11818181818181818,171,1,25,_Remix_Guitar,-1,-1
53,100,0.17727272727272728,250,0,25,_Remix_Guitar,-1,-1
43,100,0.4409090909090909,405,0,25,_Remix_Guitar,-1,-1
63,100,0.16363636363636364,69,1,26,_Remix_Guitar,-1,-1
63,100,0.2590909090909091,140,0,26,_Remix_Guitar,-1,-1
60,100,0.3,223,0,26,_Remix_Guitar,-1,-1
55,100,0.21818181818181817,360,0,26,_Remix_Guitar,-1,-1
48,100,0.12272727272727273,443,0,26,_Remix_Guitar,-1,-1
53,100,0.1409090909090909,509,0,26,_Remix_Guitar,-1,-1
53,100,0.12272727272727273,553,0,26,_Remix_Guitar,-1,-1
63,100,0.4818181818181818,663,0,26,_Remix_Guitar,-1,-1
63,100,0.1409090909090909,818,0,26,_Remix_Guitar,-1,-1
63,100,0.1,853,0,26,_Remix_Guitar,-1,-1
63,100,0.1409090909090909,277,1,27,_Remix_Guitar,-1,-1
63,100,0.22272727272727272,312,0,27,_Remix_Guitar,-1,-1
63,100,0.1,382,0,27,_Remix_Guitar,-1,-1
63,100,0.2590909090909091,484,0,27,_Remix_Guitar,-1,-1
53,100,0.22272727272727272,673,0,27,_Remix_Guitar,-1,-1
46,100,0.11818181818181818,748,0,27,_Remix_Guitar,-1,-1
60,100,0.12272727272727273,839,0,27,_Remix_Guitar,-1,-1
53,100,0.3409090909090909,44,1,28,_Remix_Guitar,-1,-1
53,100,0.1590909090909091,185,0,28,_Remix_Guitar,-1,-1
53,100,0.17727272727272728,260,0,28,_Remix_Guitar,-1,-1
62,100,0.11818181818181818,418,0,28,_Remix_Guitar,-1,-1
53,100,0.2,519,0,28,_Remix_Guitar,-1,-1
53,100,0.1,567,0,28,_Remix_Guitar,-1,-1
55,100,0.18181818181818182,88,1,29,_Remix_Guitar,-1,-1
53,100,1.1,202,0,29,_Remix_Guitar,-1,-1
58,100,0.12272727272727273,474,1,29,_Remix_Guitar,-1,-1
58,100,0.12272727272727273,563,0,29,_Remix_Guitar,-1,-1
58,100,0.13636363636363635,656,0,29,_Remix_Guitar,-1,-1
58,100,0.3409090909090909,694,0,29,_Remix_Guitar,-1,-1
51,100,0.2,791,0,29,_Remix_Guitar,-1,-1
60,100,0.16363636363636364,862,0,29,_Remix_Guitar,-1,-1
58,100,0.21818181818181817,40,1,30,_Remix_Guitar,-1,-1
53,100,0.2772727272727273,96,0,30,_Remix_Guitar,-1,-1
58,100,0.11818181818181818,171,0,30,_Remix_Guitar,-1,-1
53,100,0.6,216,0,30,_Remix_Guitar,-1,-1
58,100,0.12272727272727273,422,1,30,_Remix_Guitar,-1,-1
53,100,0.1,492,0,30,_Remix_Guitar,-1,-1
55,100,0.5181818181818182,766,1,30,_Remix_Guitar,-1,-1
55,100,0.12272727272727273,179,1,31,_Remix_Guitar,-1,-1
51,100,0.23636363636363636,391,1,31,_Remix_Guitar,-1,-1
53,100,0.1409090909090909,646,1,31,_Remix_Guitar,-1,-1
48,100,0.5,78,1,32,_Remix_Guitar,-1,-1
51,100,0.11818181818181818,228,0,32,_Remix_Guitar,-1,-1
53,100,0.37727272727272726,383,0,32,_Remix_Guitar,-1,-1
53,100,0.2,471,0,32,_Remix_Guitar,-1,-1
53,100,0.13636363636363635,765,1,32,_Remix_Guitar,-1,-1
51,100,0.18181818181818182,220,1,33,_Remix_Guitar,-1,-1
51,100,0.2,338,0,33,_Remix_Guitar,-1,-1
51,100,0.2,528,0,33,_Remix_Guitar,-1,-1
55,100,0.21818181818181817,581,0,33,_Remix_Guitar,-1,-1
55,100,0.6,726,0,33,_Remix_Guitar,-1,-1
58,100,0.2772727272727273,413,1,34,_Remix_Guitar,-1,-1
51,100,0.21818181818181817,493,0,34,_Remix_Guitar,-1,-1
53,100,0.11818181818181818,681,0,34,_Remix_Guitar,-1,-1
53,100,0.2818181818181818,804,0,34,_Remix_Guitar,-1,-1
53,100,0.1409090909090909,75,1,35,_Remix_Guitar,-1,-1
53,100,0.1409090909090909,179,0,35,_Remix_Guitar,-1,-1
58,100,0.1,215,0,35,_Remix_Guitar,-1,-1
58,100,0.18181818181818182,241,0,35,_Remix_Guitar,-1,-1
55,100,0.6,311,0,35,_Remix_Guitar,-1,-1
53,100,0.17727272727272728,823,1,35,_Remix_Guitar,-1,-1
53,100,0.1590909090909091,18,1,36,_Remix_Guitar,-1,-1
53,100,0.2,338,1,36,_Remix_Guitar,-1,-1
53,100,0.2409090909090909,466,0,36,_Remix_Guitar,-1,-1
53,100,0.7227272727272728,541,0,36,_Remix_Guitar,-1,-1
53,100,0.3,778,1,36,_Remix_Guitar,-1,-1
51,100,0.2,105,1,37,_Remix_Guitar,-1,-1
55,100,0.18181818181818182,263,0,37,_Remix_Guitar,-1,-1
51,100,0.22272727272727272,408,0,37,_Remix_Guitar,-1,-1
51,100,0.11818181818181818,506,0,37,_Remix_Guitar,-1,-1
51,100,0.2590909090909091,616,0,37,_Remix_Guitar,-1,-1
55,100,0.5,804,0,37,_Remix_Guitar,-1,-1
51,100,0.2590909090909091,163,1,38,_Remix_Guitar,-1,-1
51,100,0.42272727272727273,254,0,38,_Remix_Guitar,-1,-1
56,100,0.4590909090909091,361,0,38,_Remix_Guitar,-1,-1
53,100,0.5181818181818182,748,1,38,_Remix_Guitar,-1,-1
53,100,0.23636363636363636,40,1,39,_Remix_Guitar,-1,-1
58,100,0.2772727272727273,185,0,39,_Remix_Guitar,-1,-1
58,100,0.2636363636363636,268,0,39,_Remix_Guitar,-1,-1
53,100,0.1590909090909091,515,1,39,_Remix_Guitar,-1,-1
53,100,0.2,703,0,39,_Remix_Guitar,-1,-1
53,100,0.1590909090909091,756,0,39,_Remix_Guitar,-1,-1
63,100,0.11818181818181818,215,1,40,_Remix_Guitar,-1,-1
53,100,0.3,528,1,40,_Remix_Guitar,-1,-1
53,100,0.2409090909090909,646,0,40,_Remix_Guitar,-1,-1
56,100,0.1590909090909091,783,0,40,_Remix_Guitar,-1,-1
53,100,0.11818181818181818,858,0,40,_Remix_Guitar,-1,-1
53,100,0.4,153,1,41,_Remix_Guitar,-1,-1
58,100,0.1409090909090909,241,0,41,_Remix_Guitar,-1,-1
53,100,0.2409090909090909,276,0,41,_Remix_Guitar,-1,-1
53,100,0.16363636363636364,334,0,41,_Remix_Guitar,-1,-1
53,100,0.23636363636363636,413,0,41,_Remix_Guitar,-1,-1
53,100,0.13636363636363635,501,0,41,_Remix_Guitar,-1,-1
53,100,0.1590909090909091,541,0,41,_Remix_Guitar,-1,-1
53,100,0.1409090909090909,123,1,42,_Remix_Guitar,-1,-1
63,100,0.13636363636363635,391,1,42,_Remix_Guitar,-1,-1
55,100,0.32272727272727275,554,0,42,_Remix_Guitar,-1,-1
60,100,0.12272727272727273,641,0,42,_Remix_Guitar,-1,-1
60,100,0.2,761,0,42,_Remix_Guitar,-1,-1
56,100,0.21818181818181817,866,0,42,_Remix_Guitar,-1,-1
51,100,0.22272727272727272,201,1,43,_Remix_Guitar,-1,-1
53,100,0.2818181818181818,440,1,43,_Remix_Guitar,-1,-1
53,100,0.3,581,0,43,_Remix_Guitar,-1,-1
58,100,0.2,651,0,43,_Remix_Guitar,-1,-1
53,100,0.1590909090909091,703,0,43,_Remix_Guitar,-1,-1
53,100,0.13636363636363635,788,0,43,_Remix_Guitar,-1,-1
53,100,0.1590909090909091,826,0,43,_Remix_Guitar,-1,-1
53,100,0.13636363636363635,18,1,44,_Remix_Guitar,-1,-1
53,100,0.5,83,0,44,_Remix_Guitar,-1,-1
53,100,0.2409090909090909,206,0,44,_Remix_Guitar,-1,-1
53,100,0.18181818181818182,431,1,44,_Remix_Guitar,-1,-1
60,100,0.33636363636363636,765,1,44,_Remix_Guitar,-1,-1
53,100,0.18181818181818182,220,1,45,_Remix_Guitar,-1,-1
53,100,0.36363636363636365,356,0,45,_Remix_Guitar,-1,-1
41,100,0.13636363636363635,568,1,45,_Remix_Guitar,-1,-1
48,100,0.1409090909090909,641,0,45,_Remix_Guitar,-1,-1
48,100,0.4818181818181818,751,0,45,_Remix_Guitar,-1,-1
53,100,0.12272727272727273,871,0,45,_Remix_Guitar,-1,-1
48,100,0.2,131,1,46,_Remix_Guitar,-1,-1
53,100,0.2,185,0,46,_Remix_Guitar,-1,-1
58,100,0.3181818181818182,391,1,46,_Remix_Guitar,-1,-1
53,100,0.2,501,0,46,_Remix_Guitar,-1,-1
53,100,0.17727272727272728,558,0,46,_Remix_Guitar,-1,-1
53,100,0.2,700,0,46,_Remix_Guitar,-1,-1
53,100,0.5,751,0,46,_Remix_Guitar,-1,-1
53,100,0.1590909090909091,8,1,47,_Remix_Guitar,-1,-1
53,100,0.2409090909090909,69,0,47,_Remix_Guitar,-1,-1
53,100,0.12272727272727273,136,0,47,_Remix_Guitar,-1,-1
46,100,0.1409090909090909,286,0,47,_Remix_Guitar,-1,-1
58,100,0.22272727272727272,321,0,47,_Remix_Guitar,-1,-1
53,100,0.22272727272727272,386,0,47,_Remix_Guitar,-1,-1
58,100,0.2818181818181818,616,1,47,_Remix_Guitar,-1,-1
51,100,0.8181818181818182,801,1,48,_Remix_Guitar,-1,-1
55,100,0.1,153,1,49,_Remix_Guitar,-1,-1
51,100,0.2409090909090909,185,0,49,_Remix_Guitar,-1,-1
51,100,0.2409090909090909,316,0,49,_Remix_Guitar,-1,-1
51,100,0.740909090909091,396,0,49,_Remix_Guitar,-1,-1
55,100,0.2590909090909091,558,0,49,_Remix_Guitar,-1,-1
53,100,0.2772727272727273,823,1,49,_Remix_Guitar,-1,-1
53,100,0.4,43,1,50,_Remix_Guitar,-1,-1
58,100,0.2409090909090909,131,0,50,_Remix_Guitar,-1,-1
53,100,0.18181818181818182,188,0,50,_Remix_Guitar,-1,-1
53,100,0.21818181818181817,260,0,50,_Remix_Guitar,-1,-1
53,100,0.18181818181818182,311,0,50,_Remix_Guitar,-1,-1
53,100,0.1409090909090909,399,0,50,_Remix_Guitar,-1,-1
53,100,0.6,545,0,50,_Remix_Guitar,-1,-1
53,100,0.17727272727272728,765,1,50,_Remix_Guitar,-1,-1
53,100,0.16363636363636364,818,0,50,_Remix_Guitar,-1,-1
55,100,0.11818181818181818,281,1,51,_Remix_Guitar,-1,-1
48,100,0.2409090909090909,330,0,51,_Remix_Guitar,-1,-1
48,100,0.12272727272727273,826,1,51,_Remix_Guitar,-1,-1
55,100,0.1,91,1,52,_Remix_Guitar,-1,-1
55,100,0.1,166,0,52,_Remix_Guitar,-1,-1
50,100,0.33636363636363636,765,1,52,_Remix_Guitar,-1,-1
55,100,0.3181818181818182,853,0,52,_Remix_Guitar,-1,-1
50,100,0.17727272727272728,118,1,53,_Remix_Guitar,-1,-1
55,100,0.2590909090909091,171,0,53,_Remix_Guitar,-1,-1
53,100,0.1590909090909091,303,0,53,_Remix_Guitar,-1,-1
56,100,0.2409090909090909,396,0,53,_Remix_Guitar,-1,-1
51,100,0.11818181818181818,638,1,53,_Remix_Guitar,-1,-1
56,100,0.11818181818181818,853,1,53,_Remix_Guitar,-1,-1
51,100,0.11818181818181818,215,1,54,_Remix_Guitar,-1,-1
51,100,0.2409090909090909,263,0,54,_Remix_Guitar,-1,-1
63,100,0.1409090909090909,461,1,54,_Remix_Guitar,-1,-1
58,100,0.2409090909090909,528,0,54,_Remix_Guitar,-1,-1
51,100,0.759090909090909,655,0,54,_Remix_Guitar,-1,-1
51,100,0.18181818181818182,839,0,54,_Remix_Guitar,-1,-1
63,100,0.2,75,1,55,_Remix_Guitar,-1,-1
51,100,0.1590909090909091,166,0,55,_Remix_Guitar,-1,-1
51,100,0.5409090909090909,295,0,55,_Remix_Guitar,-1,-1
55,100,0.11818181818181818,458,0,55,_Remix_Guitar,-1,-1
51,100,0.2,550,0,55,_Remix_Guitar,-1,-1
53,100,0.2590909090909091,606,0,55,_Remix_Guitar,-1,-1
53,100,0.12272727272727273,166,1,56,_Remix_Guitar,-1,-1
53,100,0.1590909090909091,220,0,56,_Remix_Guitar,-1,-1
53,100,0.17727272727272728,338,0,56,_Remix_Guitar,-1,-1
53,100,0.2,554,1,56,_Remix_Guitar,-1,-1
53,100,0.22272727272727272,606,0,56,_Remix_Guitar,-1,-1
53,100,0.4590909090909091,801,0,56,_Remix_Guitar,-1,-1
53,100,0.21818181818181817,40,1,57,_Remix_Guitar,-1,-1
53,100,0.16363636363636364,114,0,57,_Remix_Guitar,-1,-1
53,100,0.17727272727272728,185,0,57,_Remix_Guitar,-1,-1
53,100,0.1409090909090909,254,0,57,_Remix_Guitar,-1,-1
53,100,0.1,373,0,57,_Remix_Guitar,-1,-1
53,100,0.42272727272727273,421,0,57,_Remix_Guitar,-1,-1
51,100,0.5181818181818182,440,1,58,_Remix_Guitar,-1,-1
51,100,0.9409090909090909,576,0,58,_Remix_Guitar,-1,-1
51,100,0.5,788,1,58,_Remix_Guitar,-1,-1
51,100,0.2818181818181818,21,1,59,_Remix_Guitar,-1,-1
51,100,0.11818181818181818,105,0,59,_Remix_Guitar,-1,-1
53,100,0.1409090909090909,201,0,59,_Remix_Guitar,-1,-1
53,100,0.12272727272727273,298,0,59,_Remix_Guitar,-1,-1
53,100,0.18181818181818182,343,0,59,_Remix_Guitar,-1,-1
58,100,0.38181818181818183,440,0,59,_Remix_Guitar,-1,-1
58,100,0.2,536,0,59,_Remix_Guitar,-1,-1
53,100,0.5590909090909091,590,0,59,_Remix_Guitar,-1,-1
58,100,0.5772727272727273,721,0,59,_Remix_Guitar,-1,-1
58,100,0.21818181818181817,866,0,59,_Remix_Guitar,-1,-1
53,100,0.18181818181818182,114,1,60,_Remix_Guitar,-1,-1
53,100,0.12272727272727273,311,0,60,_Remix_Guitar,-1,-1
48,100,0.2590909090909091,408,0,60,_Remix_Guitar,-1,-1
43,100,0.2636363636363636,751,1,60,_Remix_Guitar,-1,-1
53,100,0.12272727272727273,466,1,61,_Remix_Guitar,-1,-1
53,100,1.059090909090909,501,0,61,_Remix_Guitar,-1,-1
53,100,0.22272727272727272,761,1,61,_Remix_Guitar,-1,-1
53,100,0.21818181818181817,813,0,61,_Remix_Guitar,-1,-1
53,100,0.11818181818181818,8,1,62,_Remix_Guitar,-1,-1
53,100,0.1409090909090909,56,0,62,_Remix_Guitar,-1,-1
53,100,0.21818181818181817,260,1,62,_Remix_Guitar,-1,-1
53,100,0.32272727272727275,321,0,62,_Remix_Guitar,-1,-1
53,100,0.17727272727272728,413,0,62,_Remix_Guitar,-1,-1
53,100,0.16363636363636364,466,0,62,_Remix_Guitar,-1,-1
53,100,0.22272727272727272,576,0,62,_Remix_Guitar,-1,-1
51,100,0.4,673,0,62,_Remix_Guitar,-1,-1
51,100,0.11818181818181818,8,1,63,_Remix_Guitar,-1,-1
51,100,0.2590909090909091,40,0,63,_Remix_Guitar,-1,-1
53,100,0.4409090909090909,289,1,63,_Remix_Guitar,-1,-1
58,100,0.7636363636363637,421,0,63,_Remix_Guitar,-1,-1
53,100,0.32272727272727275,598,0,63,_Remix_Guitar,-1,-1
55,100,0.2818181818181818,813,1,63,_Remix_Guitar,-1,-1
55,100,0.4590909090909091,87,1,64,_Remix_Guitar,-1,-1
55,100,0.17727272727272728,502,1,64,_Remix_Guitar,-1,-1
55,100,0.11818181818181818,853,1,64,_Remix_Guitar,-1,-1
53,100,0.13636363636363635,62,1,65,_Remix_Guitar,-1,-1
53,100,0.2772727272727273,96,0,65,_Remix_Guitar,-1,-1
41,100,0.1409090909090909,396,1,65,_Remix_Guitar,-1,-1
53,100,0.1590909090909091,606,1,65,_Remix_Guitar,-1,-1
53,100,0.6590909090909091,700,0,65,_Remix_Guitar,-1,-1
53,100,0.1590909090909091,849,0,65,_Remix_Guitar,-1,-1
41,100,0.11818181818181818,30,1,66,_Remix_Guitar,-1,-1
41,100,0.18181818181818182,87,0,66,_Remix_Guitar,-1,-1
53,100,0.3181818181818182,150,0,66,_Remix_Guitar,-1,-1
58,100,0.36363636363636365,223,0,66,_Remix_Guitar,-1,-1
53,100,0.6181818181818182,330,0,66,_Remix_Guitar,-1,-1
58,100,0.18181818181818182,466,0,66,_Remix_Guitar,-1,-1
53,100,0.23636363636363636,523,0,66,_Remix_Guitar,-1,-1
53,100,0.4409090909090909,593,0,66,_Remix_Guitar,-1,-1
53,100,0.4409090909090909,695,0,66,_Remix_Guitar,-1,-1
53,100,0.1590909090909091,849,0,66,_Remix_Guitar,-1,-1
53,100,0.5636363636363636,26,1,67,_Remix_Guitar,-1,-1
58,100,0.12272727272727273,246,1,67,_Remix_Guitar,-1,-1
51,100,0.12272727272727273,312,0,67,_Remix_Guitar,-1,-1
51,100,0.38181818181818183,373,0,67,_Remix_Guitar,-1,-1
55,100,0.11818181818181818,690,1,67,_Remix_Guitar,-1,-1
55,100,0.11818181818181818,779,0,67,_Remix_Guitar,-1,-1
51,100,0.18181818181818182,47,1,68,_Remix_Guitar,-1,-1
51,100,0.1590909090909091,326,1,68,_Remix_Guitar,-1,-1
53,100,0.1,624,1,68,_Remix_Guitar,-1,-1
51,100,0.1409090909090909,669,0,68,_Remix_Guitar,-1,-1
58,100,0.1590909090909091,87,1,69,_Remix_Guitar,-1,-1
51,100,0.6181818181818182,237,0,69,_Remix_Guitar,-1,-1
55,100,0.13636363636363635,392,0,69,_Remix_Guitar,-1,-1
55,100,0.41818181818181815,426,0,69,_Remix_Guitar,-1,-1
51,100,0.2818181818181818,783,1,69,_Remix_Guitar,-1,-1
51,100,0.32272727272727275,69,1,70,_Remix_Guitar,-1,-1
51,100,0.1590909090909091,145,0,70,_Remix_Guitar,-1,-1
51,100,0.32272727272727275,320,0,70,_Remix_Guitar,-1,-1
51,100,0.5227272727272727,475,0,70,_Remix_Guitar,-1,-1
56,100,0.11818181818181818,603,0,70,_Remix_Guitar,-1,-1
51,100,0.17727272727272728,656,0,70,_Remix_Guitar,-1,-1
51,100,0.8227272727272728,707,0,70,_Remix_Guitar,-1,-1
51,100,0.9590909090909091,17,1,71,_Remix_Guitar,-1,-1
51,100,0.5590909090909091,286,1,71,_Remix_Guitar,-1,-1
63,100,0.5227272727272727,409,0,71,_Remix_Guitar,-1,-1
43,100,0.1409090909090909,690,1,71,_Remix_Guitar,-1,-1
63,100,0.4,832,0,71,_Remix_Guitar,-1,-1
63,100,0.21818181818181817,83,1,72,_Remix_Guitar,-1,-1
55,100,0.2772727272727273,250,0,72,_Remix_Guitar,-1,-1
55,100,0.3,333,0,72,_Remix_Guitar,-1,-1
55,100,0.1409090909090909,422,0,72,_Remix_Guitar,-1,-1
51,100,0.2772727272727273,580,0,72,_Remix_Guitar,-1,-1
53,100,0.6,176,1,73,_Remix_Guitar,-1,-1
53,100,0.11818181818181818,330,0,73,_Remix_Guitar,-1,-1
58,100,0.6181818181818182,436,0,73,_Remix_Guitar,-1,-1
58,100,0.2,650,1,73,_Remix_Guitar,-1,-1
58,100,0.2590909090909091,722,0,73,_Remix_Guitar,-1,-1
53,100,1.018181818181818,787,0,73,_Remix_Guitar,-1,-1
58,100,0.22272727272727272,145,1,74,_Remix_Guitar,-1,-1
58,100,0.38181818181818183,246,0,74,_Remix_Guitar,-1,-1
51,100,0.22272727272727272,422,0,74,_Remix_Guitar,-1,-1
51,100,0.6409090909090909,509,0,74,_Remix_Guitar,-1,-1
51,100,0.18181818181818182,686,0,74,_Remix_Guitar,-1,-1
53,100,0.1,179,1,75,_Remix_Guitar,-1,-1
41,100,0.1,307,0,75,_Remix_Guitar,-1,-1
41,100,0.1,373,0,75,_Remix_Guitar,-1,-1
60,100,0.1,443,0,75,_Remix_Guitar,-1,-1
55,100,0.3181818181818182,483,0,75,_Remix_Guitar,-1,-1
55,100,0.1590909090909091,559,0,75,_Remix_Guitar,-1,-1
55,100,0.1590909090909091,766,1,75,_Remix_Guitar,-1,-1
58,100,0.4590909090909091,866,0,75,_Remix_Guitar,-1,-1
48,100,0.3,127,1,76,_Remix_Guitar,-1,-1
55,100,0.2409090909090909,250,0,76,_Remix_Guitar,-1,-1
51,100,0.2,703,1,76,_Remix_Guitar,-1,-1
51,100,0.1,770,0,76,_Remix_Guitar,-1,-1
51,100,0.18181818181818182,817,0,76,_Remix_Guitar,-1,-1
51,100,0.3409090909090909,53,1,77,_Remix_Guitar,-1,-1
63,100,0.3,449,1,77,_Remix_Guitar,-1,-1
55,100,0.11818181818181818,294,1,78,_Remix_Guitar,-1,-1
55,100,0.13636363636363635,326,0,78,_Remix_Guitar,-1,-1
55,100,0.4,430,0,78,_Remix_Guitar,-1,-1
55,100,0.8,729,1,78,_Remix_Guitar,-1,-1
63,100,0.1409090909090909,606,1,79,_Remix_Guitar,-1,-1
48,100,0.18181818181818182,707,0,79,_Remix_Guitar,-1,-1
53,100,0.4818181818181818,22,1,80,_Remix_Guitar,-1,-1
53,100,0.11818181818181818,506,1,80,_Remix_Guitar,-1,-1
53,100,0.2590909090909091,567,0,80,_Remix_Guitar,-1,-1
53,100,0.1409090909090909,22,1,81,_Remix_Guitar,-1,-1
53,100,0.1,136,0,81,_Remix_Guitar,-1,-1
53,100,0.5409090909090909,202,0,81,_Remix_Guitar,-1,-1
51,100,0.32272727272727275,519,1,82,_Remix_Guitar,-1,-1
51,100,0.35909090909090907,870,1,82,_Remix_Guitar,-1,-1
51,100,0.3181818181818182,250,1,83,_Remix_Guitar,-1,-1
51,100,0.13636363636363635,326,0,83,_Remix_Guitar,-1,-1
58,100,0.2,436,0,83,_Remix_Guitar,-1,-1
53,100,0.12272727272727273,496,0,83,_Remix_Guitar,-1,-1
53,100,0.3,532,0,83,_Remix_Guitar,-1,-1
53,100,0.35909090909090907,646,0,83,_Remix_Guitar,-1,-1
46,100,0.4,836,0,83,_Remix_Guitar,-1,-1
53,100,0.2,79,1,84,_Remix_Guitar,-1,-1
53,100,0.1590909090909091,153,0,84,_Remix_Guitar,-1,-1
53,100,0.1409090909090909,210,0,84,_Remix_Guitar,-1,-1
53,100,0.1409090909090909,250,0,84,_Remix_Guitar,-1,-1
53,100,0.2590909090909091,299,0,84,_Remix_Guitar,-1,-1
53,100,0.2,377,0,84,_Remix_Guitar,-1,-1
53,100,0.11818181818181818,593,1,84,_Remix_Guitar,-1,-1
55,100,0.1409090909090909,289,1,85,_Remix_Guitar,-1,-1
48,100,0.13636363636363635,480,0,85,_Remix_Guitar,-1,-1
50,100,0.18181818181818182,320,1,86,_Remix_Guitar,-1,-1
55,100,0.1409090909090909,417,0,86,_Remix_Guitar,-1,-1
50,100,0.13636363636363635,502,0,86,_Remix_Guitar,-1,-1
43,100,0.2818181818181818,817,1,86,_Remix_Guitar,-1,-1
51,100,0.11818181818181818,449,1,87,_Remix_Guitar,-1,-1
51,100,0.2,629,0,87,_Remix_Guitar,-1,-1
51,100,0.1409090909090909,813,0,87,_Remix_Guitar,-1,-1
51,100,1.7,320,1,88,_Remix_Guitar,-1,-1
53,100,0.16363636363636364,707,1,88,_Remix_Guitar,-1,-1
53,100,0.1,760,0,88,_Remix_Guitar,-1,-1
58,100,0.12272727272727273,13,1,89,_Remix_Guitar,-1,-1
53,100,0.2409090909090909,462,1,89,_Remix_Guitar,-1,-1
53,100,0.1590909090909091,823,1,89,_Remix_Guitar,-1,-1
41,100,0.18181818181818182,857,0,89,_Remix_Guitar,-1,-1
41,100,0.1409090909090909,66,1,90,_Remix_Guitar,-1,-1
41,100,0.12272727272727273,113,0,90,_Remix_Guitar,-1,-1
53,100,0.1,140,0,90,_Remix_Guitar,-1,-1
41,100,0.17727272727272728,172,0,90,_Remix_Guitar,-1,-1
41,100,0.11818181818181818,326,0,90,_Remix_Guitar,-1,-1
41,100,0.1,430,0,90,_Remix_Guitar,-1,-1
58,100,0.11818181818181818,633,1,90,_Remix_Guitar,-1,-1
53,100,0.1590909090909091,726,0,90,_Remix_Guitar,-1,-1
53,100,0.5409090909090909,862,0,90,_Remix_Guitar,-1,-1
53,100,0.12272727272727273,202,1,91,_Remix_Guitar,-1,-1
53,100,0.38181818181818183,242,0,91,_Remix_Guitar,-1,-1
53,100,0.1409090909090909,330,0,91,_Remix_Guitar,-1,-1
53,100,0.1,373,0,91,_Remix_Guitar,-1,-1
53,100,0.18181818181818182,440,0,91,_Remix_Guitar,-1,-1
53,100,0.2,514,0,91,_Remix_Guitar,-1,-1
53,100,0.35909090909090907,590,0,91,_Remix_Guitar,-1,-1
53,100,0.11818181818181818,713,0,91,_Remix_Guitar,-1,-1
51,100,0.42272727272727273,386,1,92,_Remix_Guitar,-1,-1
51,100,0.5590909090909091,483,0,92,_Remix_Guitar,-1,-1
53,100,0.7363636363636363,40,1,93,_Remix_Guitar,-1,-1
53,100,0.3181818181818182,250,1,93,_Remix_Guitar,-1,-1
53,100,0.2590909090909091,404,0,93,_Remix_Guitar,-1,-1
53,100,0.11818181818181818,483,0,93,_Remix_Guitar,-1,-1
53,100,0.1,540,0,93,_Remix_Guitar,-1,-1
46,100,0.11818181818181818,567,0,93,_Remix_Guitar,-1,-1
53,100,0.2,606,0,93,_Remix_Guitar,-1,-1
53,100,0.4590909090909091,669,0,93,_Remix_Guitar,-1,-1
53,100,0.2409090909090909,43,1,94,_Remix_Guitar,-1,-1
58,100,0.22272727272727272,100,0,94,_Remix_Guitar,-1,-1
55,100,0.12272727272727273,13,1,95,_Remix_Guitar,-1,-1
55,100,0.18181818181818182,47,0,95,_Remix_Guitar,-1,-1
53,100,0.1409090909090909,312,1,95,_Remix_Guitar,-1,-1
43,100,0.1409090909090909,729,1,95,_Remix_Guitar,-1,-1
60,100,0.1,496,1,96,_Remix_Guitar,-1,-1
46,100,0.22272727272727272,157,1,97,_Remix_Guitar,-1,-1
53,100,0.18181818181818182,220,0,97,_Remix_Guitar,-1,-1
46,100,0.4590909090909091,282,0,97,_Remix_Guitar,-1,-1
53,100,0.1590909090909091,475,0,97,_Remix_Guitar,-1,-1
53,100,0.11818181818181818,770,1,98,_Remix_Guitar,-1,-1
41,100,0.1,250,1,99,_Remix_Guitar,-1,-1
41,100,0.1590909090909091,392,0,99,_Remix_Guitar,-1,-1
41,100,0.2,449,0,99,_Remix_Guitar,-1,-1
41,100,0.1590909090909091,502,0,99,_Remix_Guitar,-1,-1
53,100,0.11818181818181818,700,0,99,_Remix_Guitar,-1,-1
53,100,0.1409090909090909,773,0,99,_Remix_Guitar,-1,-1
46,100,0.2590909090909091,74,1,100,_Remix_Guitar,-1,-1
53,100,0.36363636363636365,157,0,100,_Remix_Guitar,-1,-1
53,100,0.18181818181818182,267,0,100,_Remix_Guitar,-1,-1
53,100,0.1409090909090909,352,0,100,_Remix_Guitar,-1,-1
53,100,0.2818181818181818,386,0,100,_Remix_Guitar,-1,-1
53,100,0.4409090909090909,470,0,100,_Remix_Guitar,-1,-1
53,100,1.1409090909090909,593,0,100,_Remix_Guitar,-1,-1
53,100,0.1590909090909091,853,1,100,_Remix_Guitar,-1,-1
53,100,0.3,22,1,101,_Remix_Guitar,-1,-1
53,100,0.2,106,0,101,_Remix_Guitar,-1,-1
51,100,0.6,184,0,101,_Remix_Guitar,-1,-1
63,100,0.11818181818181818,330,0,101,_Remix_Guitar,-1,-1
51,100,0.37727272727272726,383,0,101,_Remix_Guitar,-1,-1
51,100,1.2181818181818183,527,0,101,_Remix_Guitar,-1,-1
63,100,0.3409090909090909,92,1,102,_Remix_Guitar,-1,-1
51,100,0.13636363636363635,172,0,102,_Remix_Guitar,-1,-1
51,100,0.41818181818181815,206,0,102,_Remix_Guitar,-1,-1
53,100,0.33636363636363636,326,0,102,_Remix_Guitar,-1,-1
53,100,0.2590909090909091,426,0,102,_Remix_Guitar,-1,-1
53,100,0.36363636363636365,619,0,102,_Remix_Guitar,-1,-1
46,100,0.1409090909090909,716,0,102,_Remix_Guitar,-1,-1
46,100,0.17727272727272728,756,0,102,_Remix_Guitar,-1,-1
51,100,0.35909090909090907,303,1,103,_Remix_Guitar,-1,-1
51,100,0.18181818181818182,396,0,103,_Remix_Guitar,-1,-1
48,100,0.9181818181818182,457,0,103,_Remix_Guitar,-1,-1
60,100,0.4818181818181818,817,1,103,_Remix_Guitar,-1,-1
63,100,0.1,140,1,104,_Remix_Guitar,-1,-1
63,100,0.1409090909090909,206,0,104,_Remix_Guitar,-1,-1
63,100,0.7636363636363637,267,0,104,_Remix_Guitar,-1,-1
51,100,0.1409090909090909,443,0,104,_Remix_Guitar,-1,-1
51,100,0.11818181818181818,876,1,104,_Remix_Guitar,-1,-1
56,100,0.1,96,1,105,_Remix_Guitar,-1,-1
60,100,0.43636363636363634,260,0,105,_Remix_Guitar,-1,-1
58,100,0.11818181818181818,493,1,105,_Remix_Guitar,-1,-1
58,100,0.18181818181818182,553,0,105,_Remix_Guitar,-1,-1
58,100,0.1590909090909091,690,0,105,_Remix_Guitar,-1,-1
53,100,0.16363636363636364,729,0,105,_Remix_Guitar,-1,-1
48,100,0.11818181818181818,787,0,105,_Remix_Guitar,-1,-1
58,100,0.11818181818181818,326,1,106,_Remix_Guitar,-1,-1
51,100,0.6409090909090909,383,0,106,_Remix_Guitar,-1,-1
51,100,0.1,633,1,106,_Remix_Guitar,-1,-1
63,100,0.2590909090909091,656,0,106,_Remix_Guitar,-1,-1
51,100,0.18181818181818182,729,0,106,_Remix_Guitar,-1,-1
63,100,0.2,770,0,106,_Remix_Guitar,-1,-1
53,100,0.1,826,0,106,_Remix_Guitar,-1,-1
43,100,0.4590909090909091,17,1,107,_Remix_Guitar,-1,-1
53,100,0.2,132,0,107,_Remix_Guitar,-1,-1
63,100,0.8409090909090909,189,0,107,_Remix_Guitar,-1,-1
53,100,0.12272727272727273,377,0,107,_Remix_Guitar,-1,-1
60,100,0.11818181818181818,590,1,107,_Remix_Guitar,-1,-1
60,100,0.18181818181818182,660,0,107,_Remix_Guitar,-1,-1
63,100,0.11818181818181818,43,1,108,_Remix_Guitar,-1,-1
63,100,0.1590909090909091,347,1,108,_Remix_Guitar,-1,-1
63,100,0.2,386,0,108,_Remix_Guitar,-1,-1
51,100,0.2590909090909091,462,0,108,_Remix_Guitar,-1,-1
51,100,0.2590909090909091,540,0,108,_Remix_Guitar,-1,-1
51,100,0.4,682,0,108,_Remix_Guitar,-1,-1
51,100,0.32272727272727275,773,0,108,_Remix_Guitar,-1,-1
44,100,0.1,316,1,109,_Remix_Guitar,-1,-1
44,100,0.23636363636363636,347,0,109,_Remix_Guitar,-1,-1
51,100,0.5181818181818182,502,0,109,_Remix_Guitar,-1,-1
51,100,0.2636363636363636,663,0,109,_Remix_Guitar,-1,-1
53,100,0.2,823,0,109,_Remix_Guitar,-1,-1
53,100,0.16363636363636364,179,1,110,_Remix_Guitar,-1,-1
53,100,0.2,312,0,110,_Remix_Guitar,-1,-1
58,100,0.1,360,0,110,_Remix_Guitar,-1,-1
51,100,0.2590909090909091,493,0,110,_Remix_Guitar,-1,-1
51,100,0.5,695,1,110,_Remix_Guitar,-1,-1
51,100,0.3409090909090909,79,1,111,_Remix_Guitar,-1,-1
51,100,0.740909090909091,286,1,111,_Remix_Guitar,-1,-1
63,100,0.41818181818181815,462,0,111,_Remix_Guitar,-1,-1
51,100,0.12272727272727273,553,0,111,_Remix_Guitar,-1,-1
51,100,2.022727272727273,619,0,111,_Remix_Guitar,-1,-1
51,100,0.41818181818181815,242,1,112,_Remix_Guitar,-1,-1
63,100,0.12272727272727273,386,0,112,_Remix_Guitar,-1,-1
44,100,0.35909090909090907,756,1,112,_Remix_Guitar,-1,-1
56,100,0.11818181818181818,9,1,113,_Remix_Guitar,-1,-1
53,100,0.740909090909091,312,1,113,_Remix_Guitar,-1,-1
53,100,0.18181818181818182,483,0,113,_Remix_Guitar,-1,-1
53,100,0.18181818181818182,527,0,113,_Remix_Guitar,-1,-1
46,100,0.1,677,0,113,_Remix_Guitar,-1,-1
53,100,0.1590909090909091,747,0,113,_Remix_Guitar,-1,-1
53,100,0.11818181818181818,810,0,113,_Remix_Guitar,-1,-1
55,100,0.22272727272727272,13,1,114,_Remix_Guitar,-1,-1
44,100,0.11818181818181818,184,1,115,_Remix_Guitar,-1,-1
56,100,0.1590909090909091,216,0,115,_Remix_Guitar,-1,-1
51,100,0.16363636363636364,312,0,115,_Remix_Guitar,-1,-1
51,100,0.4818181818181818,365,0,115,_Remix_Guitar,-1,-1
51,100,0.2409090909090909,475,0,115,_Remix_Guitar,-1,-1
51,100,0.2590909090909091,536,0,115,_Remix_Guitar,-1,-1
53,100,0.1,650,0,115,_Remix_Guitar,-1,-1
53,100,0.1409090909090909,747,0,115,_Remix_Guitar,-1,-1
53,100,0.1590909090909091,857,0,115,_Remix_Guitar,-1,-1
53,100,0.1590909090909091,30,1,116,_Remix_Guitar,-1,-1
58,100,0.16363636363636364,69,0,116,_Remix_Guitar,-1,-1
51,100,0.2409090909090909,440,1,116,_Remix_Guitar,-1,-1
51,100,0.4818181818181818,506,0,116,_Remix_Guitar,-1,-1
51,100,0.18181818181818182,619,0,116,_Remix_Guitar,-1,-1
55,100,0.4,26,1,117,_Remix_Guitar,-1,-1
55,100,0.3,127,0,117,_Remix_Guitar,-1,-1
51,100,0.2409090909090909,493,1,117,_Remix_Guitar,-1,-1
51,100,0.18181818181818182,773,1,117,_Remix_Guitar,-1,-1
58,100,0.3,106,1,118,_Remix_Guitar,-1,-1
53,100,0.1409090909090909,184,0,118,_Remix_Guitar,-1,-1
53,100,0.1409090909090909,386,1,118,_Remix_Guitar,-1,-1
53,100,0.13636363636363635,457,0,118,_Remix_Guitar,-1,-1
43,100,0.42272727272727273,597,0,118,_Remix_Guitar,-1,-1
62,100,0.1590909090909091,792,0,118,_Remix_Guitar,-1,-1
62,100,0.37727272727272726,832,0,118,_Remix_Guitar,-1,-1
55,100,0.38181818181818183,223,1,119,_Remix_Guitar,-1,-1
43,100,0.12272727272727273,597,1,119,_Remix_Guitar,-1,-1
53,100,0.12272727272727273,739,0,119,_Remix_Guitar,-1,-1
60,100,0.2590909090909091,110,1,120,_Remix_Guitar,-1,-1
53,100,0.1,866,1,120,_Remix_Guitar,-1,-1
53,100,0.38181818181818183,22,1,121,_Remix_Guitar,-1,-1
53,100,0.18181818181818182,113,0,121,_Remix_Guitar,-1,-1
58,100,0.8818181818181818,153,0,121,_Remix_Guitar,-1,-1
53,100,0.18181818181818182,377,1,121,_Remix_Guitar,-1,-1
53,100,0.3,440,0,121,_Remix_Guitar,-1,-1
53,100,0.3,519,0,121,_Remix_Guitar,-1,-1
53,100,0.1590909090909091,637,0,121,_Remix_Guitar,-1,-1
53,100,0.2409090909090909,752,0,121,_Remix_Guitar,-1,-1
53,100,0.1409090909090909,826,0,121,_Remix_Guitar,-1,-1
53,100,0.2409090909090909,0,1,122,_Remix_Guitar,-1,-1
53,100,0.1409090909090909,56,0,122,_Remix_Guitar,-1,-1
46,100,1.759090909090909,316,1,122,_Remix_Guitar,-1,-1
63,100,0.2818181818181818,729,1,122,_Remix_Guitar,-1,-1
46,100,0.16363636363636364,862,0,122,_Remix_Guitar,-1,-1
46,100,0.11818181818181818,30,1,123,_Remix_Guitar,-1,-1
51,100,0.6,276,1,123,_Remix_Guitar,-1,-1
51,100,0.17727272727272728,669,1,123,_Remix_Guitar,-1,-1
63,100,0.2772727272727273,722,0,123,_Remix_Guitar,-1,-1
51,100,0.6,787,0,123,_Remix_Guitar,-1,-1
51,100,0.1590909090909091,62,1,124,_Remix_Guitar,-1,-1
51,100,0.1590909090909091,237,0,124,_Remix_Guitar,-1,-1
63,100,0.12272727272727273,312,0,124,_Remix_Guitar,-1,-1
46,100,0.1590909090909091,436,0,124,_Remix_Guitar,-1,-1
46,100,0.18181818181818182,197,1,125,_Remix_Guitar,-1,-1
48,100,0.32272727272727275,576,1,125,_Remix_Guitar,-1,-1
48,100,0.1409090909090909,650,0,125,_Remix_Guitar,-1,-1
60,100,0.4409090909090909,87,1,126,_Remix_Guitar,-1,-1
60,100,0.1,193,0,126,_Remix_Guitar,-1,-1
63,100,0.1409090909090909,663,1,126,_Remix_Guitar,-1,-1
43,100,0.5409090909090909,713,0,126,_Remix_Guitar,-1,-1
43,100,0.11818181818181818,876,0,126,_Remix_Guitar,-1,-1
58,100,0.17727272727272728,163,1,127,_Remix_Guitar,-1,-1
43,100,0.5590909090909091,339,0,127,_Remix_Guitar,-1,-1
63,100,0.21818181818181817,546,1,127,_Remix_Guitar,-1,-1
58,100,0.2,734,0,127,_Remix_Guitar,-1,-1
43,100,0.1590909090909091,805,0,127,_Remix_Guitar,-1,-1
56,100,0.1,876,0,127,_Remix_Guitar,-1,-1
44,100,0.1409090909090909,22,1,128,_Remix_Guitar,-1,-1
51,100,0.12272727272727273,232,1,128,_Remix_Guitar,-1,-1
51,100,0.16363636363636364,311,0,128,_Remix_Guitar,-1,-1
58,100,0.2,436,0,128,_Remix_Guitar,-1,-1
44,100,0.2818181818181818,531,0,128,_Remix_Guitar,-1,-1
51,100,0.3,804,1,128,_Remix_Guitar,-1,-1
51,100,0.5,132,1,129,_Remix_Guitar,-1,-1
51,100,0.2409090909090909,254,0,129,_Remix_Guitar,-1,-1
51,100,0.37727272727272726,391,0,129,_Remix_Guitar,-1,-1
51,100,0.8181818181818182,625,1,129,_Remix_Guitar,-1,-1
53,100,0.1,285,1,130,_Remix_Guitar,-1,-1
53,100,0.1590909090909091,321,0,130,_Remix_Guitar,-1,-1
60,100,0.4772727272727273,479,0,130,_Remix_Guitar,-1,-1
60,100,0.2818181818181818,704,1,130,_Remix_Guitar,-1,-1
53,100,0.6,773,0,130,_Remix_Guitar,-1,-1
56,100,0.17727272727272728,39,1,131,_Remix_Guitar,-1,-1
60,100,0.2590909090909091,338,1,131,_Remix_Guitar,-1,-1
58,100,0.12272727272727273,400,0,131,_Remix_Guitar,-1,-1
58,100,0.18181818181818182,431,0,131,_Remix_Guitar,-1,-1
46,100,0.2409090909090909,488,0,131,_Remix_Guitar,-1,-1
46,100,0.43636363636363634,633,0,131,_Remix_Guitar,-1,-1
46,100,0.18181818181818182,835,1,131,_Remix_Guitar,-1,-1
46,100,0.42272727272727273,48,1,132,_Remix_Guitar,-1,-1
46,100,0.4590909090909091,238,0,132,_Remix_Guitar,-1,-1
46,100,0.12272727272727273,356,0,132,_Remix_Guitar,-1,-1
51,100,0.5772727272727273,558,1,132,_Remix_Guitar,-1,-1
58,100,0.16363636363636364,751,0,132,_Remix_Guitar,-1,-1
51,100,1.040909090909091,154,1,133,_Remix_Guitar,-1,-1
53,100,0.1409090909090909,603,1,133,_Remix_Guitar,-1,-1
46,100,0.17727272727272728,743,0,133,_Remix_Guitar,-1,-1
58,100,0.2772727272727273,831,0,133,_Remix_Guitar,-1,-1
58,100,0.1409090909090909,30,1,134,_Remix_Guitar,-1,-1
58,100,0.2636363636363636,70,0,134,_Remix_Guitar,-1,-1
58,100,0.2409090909090909,273,1,134,_Remix_Guitar,-1,-1
58,100,0.41818181818181815,352,0,134,_Remix_Guitar,-1,-1
53,100,0.1,479,0,134,_Remix_Guitar,-1,-1
53,100,0.1,546,0,134,_Remix_Guitar,-1,-1
62,100,0.13636363636363635,678,0,134,_Remix_Guitar,-1,-1
58,100,0.11818181818181818,721,0,134,_Remix_Guitar,-1,-1
48,100,0.4,876,0,134,_Remix_Guitar,-1,-1
63,100,0.1,694,1,135,_Remix_Guitar,-1,-1
63,100,0.1409090909090909,747,0,135,_Remix_Guitar,-1,-1
63,100,0.38181818181818183,840,1,136,_Remix_Guitar,-1,-1
51,100,0.4818181818181818,268,1,137,_Remix_Guitar,-1,-1
46,100,0.3,823,1,137,_Remix_Guitar,-1,-1
58,100,0.4772727272727273,53,1,138,_Remix_Guitar,-1,-1
58,100,0.17727272727272728,273,1,138,_Remix_Guitar,-1,-1
43,100,0.4818181818181818,421,0,138,_Remix_Guitar,-1,-1
58,100,0.2818181818181818,725,1,138,_Remix_Guitar,-1,-1
53,100,0.1,796,0,138,_Remix_Guitar,-1,-1
63,100,0.5,264,1,139,_Remix_Guitar,-1,-1
55,100,0.12272727272727273,466,1,139,_Remix_Guitar,-1,-1
53,100,0.12272727272727273,562,0,139,_Remix_Guitar,-1,-1
53,100,0.11818181818181818,594,0,139,_Remix_Guitar,-1,-1
51,100,0.1409090909090909,730,0,139,_Remix_Guitar,-1,-1
53,100,0.1,185,1,140,_Remix_Guitar,-1,-1
53,100,0.2590909090909091,211,0,140,_Remix_Guitar,-1,-1
53,100,0.13636363636363635,611,1,140,_Remix_Guitar,-1,-1
58,100,0.18181818181818182,694,0,140,_Remix_Guitar,-1,-1
46,100,0.3181818181818182,735,0,140,_Remix_Guitar,-1,-1
53,100,0.2409090909090909,823,0,140,_Remix_Guitar,-1,-1
58,100,0.2590909090909091,12,1,141,_Remix_Guitar,-1,-1
58,100,0.2,75,0,141,_Remix_Guitar,-1,-1
53,100,0.4,166,0,141,_Remix_Guitar,-1,-1
53,100,0.35909090909090907,452,1,141,_Remix_Guitar,-1,-1
53,100,0.1,576,0,141,_Remix_Guitar,-1,-1
58,100,0.2,660,0,141,_Remix_Guitar,-1,-1
51,100,0.5227272727272727,849,0,141,_Remix_Guitar,-1,-1
51,100,1.0,106,1,142,_Remix_Guitar,-1,-1
51,100,0.2818181818181818,364,1,142,_Remix_Guitar,-1,-1
51,100,0.5772727272727273,470,0,142,_Remix_Guitar,-1,-1
51,100,0.2772727272727273,611,0,142,_Remix_Guitar,-1,-1
51,100,0.21818181818181817,678,0,142,_Remix_Guitar,-1,-1
58,100,0.1409090909090909,818,0,142,_Remix_Guitar,-1,-1
51,100,0.2590909090909091,39,1,143,_Remix_Guitar,-1,-1
51,100,0.8409090909090909,110,0,143,_Remix_Guitar,-1,-1
58,100,0.21818181818181817,436,1,143,_Remix_Guitar,-1,-1
51,100,0.8590909090909091,615,0,143,_Remix_Guitar,-1,-1
51,100,0.12272727272727273,826,1,143,_Remix_Guitar,-1,-1
51,100,0.3,254,1,144,_Remix_Guitar,-1,-1
51,100,0.1409090909090909,519,1,144,_Remix_Guitar,-1,-1
48,100,0.5590909090909091,395,1,145,_Remix_Guitar,-1,-1
63,100,0.18181818181818182,871,1,145,_Remix_Guitar,-1,-1
55,100,0.4818181818181818,158,1,146,_Remix_Guitar,-1,-1
55,100,0.1,342,0,146,_Remix_Guitar,-1,-1
53,100,0.1,546,1,146,_Remix_Guitar,-1,-1
53,100,0.12272727272727273,400,1,0,_Guitar,-1,-1
50,100,0.2772727272727273,471,0,0,_Guitar,-1,-1
50,100,0.2409090909090909,537,0,0,_Guitar,-1,-1
60,100,0.1,686,0,0,_Guitar,-1,-1
60,100,0.6772727272727272,713,0,0,_Guitar,-1,-1
50,100,0.11818181818181818,0,1,1,_Guitar,-1,-1
48,100,0.2,194,0,1,_Guitar,-1,-1
48,100,0.7,241,0,1,_Guitar,-1,-1
53,100,0.12272727272727273,597,1,1,_Guitar,-1,-1
60,100,0.2,651,0,1,_Guitar,-1,-1
46,100,1.8772727272727272,713,0,1,_Guitar,-1,-1
48,100,2.140909090909091,295,1,2,_Guitar,-1,-1
50,100,0.6227272727272727,48,1,3,_Guitar,-1,-1
60,100,0.12272727272727273,254,1,3,_Guitar,-1,-1
62,100,0.1590909090909091,387,0,3,_Guitar,-1,-1
55,100,0.4409090909090909,660,1,3,_Guitar,-1,-1
55,100,0.1409090909090909,773,0,3,_Guitar,-1,-1
48,100,0.2818181818181818,858,0,3,_Guitar,-1,-1
48,100,0.1590909090909091,79,1,4,_Guitar,-1,-1
60,100,1.7772727272727273,228,0,4,_Guitar,-1,-1
60,100,2.081818181818182,672,1,4,_Guitar,-1,-1
53,100,0.2636363636363636,289,1,5,_Guitar,-1,-1
58,100,0.38181818181818183,585,1,5,_Guitar,-1,-1
53,100,0.17727272727272728,744,0,5,_Guitar,-1,-1
53,100,0.2590909090909091,788,0,5,_Guitar,-1,-1
48,100,0.17727272727272728,140,1,6,_Guitar,-1,-1
60,100,0.2409090909090909,554,1,6,_Guitar,-1,-1
53,100,0.1409090909090909,682,0,6,_Guitar,-1,-1
53,100,0.7,805,0,6,_Guitar,-1,-1
53,100,0.3181818181818182,150,1,7,_Guitar,-1,-1
57,100,0.2590909090909091,307,0,7,_Guitar,-1,-1
60,100,0.1409090909090909,452,0,7,_Guitar,-1,-1
50,100,0.2409090909090909,637,0,7,_Guitar,-1,-1
53,100,0.2,713,0,7,_Guitar,-1,-1
53,100,0.11818181818181818,8,1,8,_Guitar,-1,-1
60,100,0.1590909090909091,118,0,8,_Guitar,-1,-1
58,100,0.17727272727272728,194,0,8,_Guitar,-1,-1
53,100,0.12272727272727273,312,0,8,_Guitar,-1,-1
60,100,0.2409090909090909,713,1,8,_Guitar,-1,-1
55,100,0.2590909090909091,787,0,8,_Guitar,-1,-1
48,100,0.22272727272727272,113,1,9,_Guitar,-1,-1
60,100,0.35909090909090907,211,0,9,_Guitar,-1,-1
60,100,0.12272727272727273,333,0,9,_Guitar,-1,-1
48,100,0.1409090909090909,360,0,9,_Guitar,-1,-1
48,100,0.4,436,0,9,_Guitar,-1,-1
53,100,0.1590909090909091,558,0,9,_Guitar,-1,-1
53,100,0.1590909090909091,603,0,9,_Guitar,-1,-1
60,100,0.3181818181818182,756,0,9,_Guitar,-1,-1
53,100,0.5590909090909091,84,1,10,_Guitar,-1,-1
48,100,0.18181818181818182,233,0,10,_Guitar,-1,-1
53,100,0.3,276,0,10,_Guitar,-1,-1
53,100,0.1,479,1,10,_Guitar,-1,-1
41,100,0.2590909090909091,515,0,10,_Guitar,-1,-1
41,100,0.5227272727272727,34,1,11,_Guitar,-1,-1
41,100,0.2,254,1,11,_Guitar,-1,-1
41,100,0.22272727272727272,321,0,11,_Guitar,-1,-1
41,100,0.21818181818181817,383,0,11,_Guitar,-1,-1
53,100,0.16363636363636364,443,0,11,_Guitar,-1,-1
41,100,0.21818181818181817,479,0,11,_Guitar,-1,-1
60,100,0.2818181818181818,527,0,11,_Guitar,-1,-1
53,100,0.3181818181818182,594,0,11,_Guitar,-1,-1
41,100,0.12272727272727273,673,0,11,_Guitar,-1,-1
60,100,1.4772727272727273,721,0,11,_Guitar,-1,-1
53,100,0.18181818181818182,180,1,12,_Guitar,-1,-1
53,100,0.22272727272727272,13,1,13,_Guitar,-1,-1
53,100,0.12272727272727273,79,0,13,_Guitar,-1,-1
60,100,0.6,154,0,13,_Guitar,-1,-1
60,100,0.11818181818181818,615,1,13,_Guitar,-1,-1
53,100,0.13636363636363635,831,1,13,_Guitar,-1,-1
46,100,0.1590909090909091,96,1,14,_Guitar,-1,-1
53,100,0.4590909090909091,166,0,14,_Guitar,-1,-1
60,100,0.12272727272727273,290,0,14,_Guitar,-1,-1
48,100,0.1,431,0,14,_Guitar,-1,-1
48,100,0.1590909090909091,470,0,14,_Guitar,-1,-1
60,100,0.1,567,0,14,_Guitar,-1,-1
60,100,0.11818181818181818,699,0,14,_Guitar,-1,-1
60,100,0.11818181818181818,766,0,14,_Guitar,-1,-1
48,100,0.1590909090909091,8,1,15,_Guitar,-1,-1
48,100,0.2818181818181818,135,0,15,_Guitar,-1,-1
48,100,0.2,206,0,15,_Guitar,-1,-1
60,100,0.2409090909090909,312,0,15,_Guitar,-1,-1
48,100,0.1409090909090909,364,0,15,_Guitar,-1,-1
60,100,0.1409090909090909,400,0,15,_Guitar,-1,-1
41,100,0.1,474,0,15,_Guitar,-1,-1
60,100,0.12272727272727273,496,0,15,_Guitar,-1,-1
41,100,0.13636363636363635,546,0,15,_Guitar,-1,-1
60,100,0.5590909090909091,615,0,15,_Guitar,-1,-1
41,100,0.1409090909090909,761,0,15,_Guitar,-1,-1
53,100,0.1409090909090909,792,0,15,_Guitar,-1,-1
53,100,0.2590909090909091,857,0,15,_Guitar,-1,-1
60,100,0.22272727272727272,100,1,16,_Guitar,-1,-1
48,100,0.2590909090909091,150,0,16,_Guitar,-1,-1
60,100,0.18181818181818182,233,0,16,_Guitar,-1,-1
53,100,0.21818181818181817,281,0,16,_Guitar,-1,-1
60,100,0.2590909090909091,351,0,16,_Guitar,-1,-1
41,100,0.11818181818181818,440,0,16,_Guitar,-1,-1
60,100,0.41818181818181815,550,0,16,_Guitar,-1,-1
60,100,0.1409090909090909,673,0,16,_Guitar,-1,-1
57,100,0.11818181818181818,721,0,16,_Guitar,-1,-1
60,100,0.35909090909090907,831,0,16,_Guitar,-1,-1
60,100,0.2409090909090909,119,1,17,_Guitar,-1,-1
57,100,1.1772727272727272,316,0,17,_Guitar,-1,-1
57,100,0.2409090909090909,650,1,17,_Guitar,-1,-1
57,100,0.4409090909090909,739,0,17,_Guitar,-1,-1
53,100,0.2,858,0,17,_Guitar,-1,-1
53,100,0.21818181818181817,30,1,18,_Guitar,-1,-1
58,100,0.4,175,0,18,_Guitar,-1,-1
58,100,0.38181818181818183,268,0,18,_Guitar,-1,-1
60,100,0.5409090909090909,615,1,18,_Guitar,-1,-1
60,100,0.21818181818181817,756,0,18,_Guitar,-1,-1
60,100,0.22272727272727272,233,1,19,_Guitar,-1,-1
55,100,0.18181818181818182,299,0,19,_Guitar,-1,-1
48,100,0.5,370,0,19,_Guitar,-1,-1
48,100,0.5363636363636364,501,0,19,_Guitar,-1,-1
48,100,0.2590909090909091,633,0,19,_Guitar,-1,-1
48,100,0.1,725,0,19,_Guitar,-1,-1
48,100,0.5772727272727273,787,0,19,_Guitar,-1,-1
48,100,0.2772727272727273,40,1,20,_Guitar,-1,-1
48,100,0.13636363636363635,127,0,20,_Guitar,-1,-1
48,100,0.3409090909090909,162,0,20,_Guitar,-1,-1
55,100,0.11818181818181818,281,0,20,_Guitar,-1,-1
60,100,0.2,378,0,20,_Guitar,-1,-1
60,100,0.3,430,0,20,_Guitar,-1,-1
53,100,0.11818181818181818,581,0,20,_Guitar,-1,-1
58,100,0.7818181818181819,619,0,20,_Guitar,-1,-1
53,100,0.2409090909090909,44,1,21,_Guitar,-1,-1
53,100,0.17727272727272728,119,0,21,_Guitar,-1,-1
60,100,0.6,206,0,21,_Guitar,-1,-1
58,100,0.3409090909090909,399,0,21,_Guitar,-1,-1
53,100,0.1590909090909091,546,0,21,_Guitar,-1,-1
60,100,0.1,646,0,21,_Guitar,-1,-1
41,100,0.12272727272727273,827,0,21,_Guitar,-1,-1
53,100,0.12272727272727273,13,1,22,_Guitar,-1,-1
41,100,0.13636363636363635,83,0,22,_Guitar,-1,-1
60,100,0.41818181818181815,119,0,22,_Guitar,-1,-1
60,100,0.12272727272727273,378,1,22,_Guitar,-1,-1
41,100,0.2409090909090909,405,0,22,_Guitar,-1,-1
60,100,0.2818181818181818,474,0,22,_Guitar,-1,-1
41,100,0.11818181818181818,581,0,22,_Guitar,-1,-1
53,100,0.2590909090909091,691,0,22,_Guitar,-1,-1
53,100,0.4409090909090909,752,0,22,_Guitar,-1,-1
41,100,0.1,866,0,22,_Guitar,-1,-1
41,100,0.18181818181818182,48,1,23,_Guitar,-1,-1
53,100,0.17727272727272728,96,0,23,_Guitar,-1,-1
60,100,0.7181818181818181,602,1,23,_Guitar,-1,-1
57,100,0.2590909090909091,791,0,23,_Guitar,-1,-1
57,100,0.21818181818181817,9,1,24,_Guitar,-1,-1
45,100,0.16363636363636364,69,0,24,_Guitar,-1,-1
57,100,0.11818181818181818,131,0,24,_Guitar,-1,-1
57,100,0.2,343,1,24,_Guitar,-1,-1
60,100,0.11818181818181818,492,0,24,_Guitar,-1,-1
57,100,0.3,598,0,24,_Guitar,-1,-1
57,100,0.8636363636363636,796,1,24,_Guitar,-1,-1
57,100,0.11818181818181818,110,1,25,_Guitar,-1,-1
50,100,0.21818181818181817,229,0,25,_Guitar,-1,-1
62,100,0.2,422,0,25,_Guitar,-1,-1
53,100,0.2409090909090909,563,0,25,_Guitar,-1,-1
60,100,0.2818181818181818,663,0,25,_Guitar,-1,-1
60,100,0.2,787,0,25,_Guitar,-1,-1
53,100,0.18181818181818182,839,0,25,_Guitar,-1,-1
53,100,0.22272727272727272,34,1,26,_Guitar,-1,-1
58,100,0.7181818181818181,229,0,26,_Guitar,-1,-1
58,100,0.2818181818181818,395,0,26,_Guitar,-1,-1
58,100,0.1409090909090909,466,0,26,_Guitar,-1,-1
58,100,0.1,567,0,26,_Guitar,-1,-1
58,100,0.11818181818181818,0,1,27,_Guitar,-1,-1
58,100,0.6818181818181818,34,0,27,_Guitar,-1,-1
58,100,0.7,413,1,27,_Guitar,-1,-1
50,100,0.12272727272727273,629,1,27,_Guitar,-1,-1
48,100,0.32272727272727275,356,1,28,_Guitar,-1,-1
55,100,0.37727272727272726,480,0,28,_Guitar,-1,-1
55,100,0.9,625,0,28,_Guitar,-1,-1
48,100,0.5181818181818182,40,1,29,_Guitar,-1,-1
55,100,0.41818181818181815,154,0,29,_Guitar,-1,-1
60,100,0.11818181818181818,264,0,29,_Guitar,-1,-1
48,100,0.5409090909090909,299,0,29,_Guitar,-1,-1
48,100,0.4,553,1,29,_Guitar,-1,-1
41,100,0.13636363636363635,743,0,29,_Guitar,-1,-1
60,100,0.3409090909090909,773,0,29,_Guitar,-1,-1
41,100,0.23636363636363636,876,0,29,_Guitar,-1,-1
60,100,0.4409090909090909,92,1,30,_Guitar,-1,-1
48,100,0.1409090909090909,443,1,30,_Guitar,-1,-1
48,100,0.2818181818181818,484,0,30,_Guitar,-1,-1
60,100,0.33636363636363636,546,0,30,_Guitar,-1,-1
53,100,0.2590909090909091,673,0,30,_Guitar,-1,-1
50,100,0.6409090909090909,739,0,30,_Guitar,-1,-1
60,100,0.37727272727272726,326,1,31,_Guitar,-1,-1
60,100,0.759090909090909,449,0,31,_Guitar,-1,-1
53,100,0.18181818181818182,858,1,31,_Guitar,-1,-1
46,100,0.11818181818181818,96,1,32,_Guitar,-1,-1
58,100,0.2818181818181818,254,0,32,_Guitar,-1,-1
60,100,0.38181818181818183,334,0,32,_Guitar,-1,-1
58,100,0.17727272727272728,448,0,32,_Guitar,-1,-1
58,100,0.1409090909090909,493,0,32,_Guitar,-1,-1
53,100,0.2818181818181818,716,1,32,_Guitar,-1,-1
48,100,0.1,801,0,32,_Guitar,-1,-1
60,100,0.1409090909090909,823,0,32,_Guitar,-1,-1
53,100,0.22272727272727272,871,0,32,_Guitar,-1,-1
60,100,0.1409090909090909,188,1,33,_Guitar,-1,-1
50,100,0.5181818181818182,348,0,33,_Guitar,-1,-1
60,100,0.2590909090909091,826,1,33,_Guitar,-1,-1
55,100,0.21818181818181817,215,1,34,_Guitar,-1,-1
48,100,0.1409090909090909,334,0,34,_Guitar,-1,-1
41,100,0.21818181818181817,435,0,34,_Guitar,-1,-1
60,100,0.6227272727272727,563,0,34,_Guitar,-1,-1
53,100,0.17727272727272728,721,0,34,_Guitar,-1,-1
41,100,0.2409090909090909,26,1,35,_Guitar,-1,-1
60,100,0.11818181818181818,153,0,35,_Guitar,-1,-1
41,100,0.11818181818181818,678,1,35,_Guitar,-1,-1
60,100,0.1590909090909091,810,0,35,_Guitar,-1,-1
60,100,0.4818181818181818,298,1,36,_Guitar,-1,-1
53,100,0.1590909090909091,474,0,36,_Guitar,-1,-1
60,100,0.5227272727272727,554,0,36,_Guitar,-1,-1
60,100,0.3181818181818182,823,1,36,_Guitar,-1,-1
60,100,0.17727272727272728,18,1,37,_Guitar,-1,-1
53,100,0.2409090909090909,286,1,37,_Guitar,-1,-1
53,100,0.1590909090909091,493,1,37,_Guitar,-1,-1
60,100,0.1409090909090909,668,0,37,_Guitar,-1,-1
53,100,0.1590909090909091,21,1,38,_Guitar,-1,-1
53,100,0.1409090909090909,444,1,38,_Guitar,-1,-1
53,100,0.2590909090909091,716,1,38,_Guitar,-1,-1
41,100,0.18181818181818182,791,0,38,_Guitar,-1,-1
53,100,0.16363636363636364,861,0,38,_Guitar,-1,-1
53,100,0.2818181818181818,34,1,39,_Guitar,-1,-1
60,100,0.21818181818181817,131,0,39,_Guitar,-1,-1
60,100,0.22272727272727272,431,1,39,_Guitar,-1,-1
50,100,0.1409090909090909,536,0,39,_Guitar,-1,-1
50,100,0.21818181818181817,625,0,39,_Guitar,-1,-1
60,100,0.3,69,1,40,_Guitar,-1,-1
58,100,0.1409090909090909,356,1,40,_Guitar,-1,-1
53,100,0.2409090909090909,708,1,40,_Guitar,-1,-1
58,100,0.36363636363636365,26,1,41,_Guitar,-1,-1
46,100,0.12272727272727273,268,1,41,_Guitar,-1,-1
58,100,0.35909090909090907,303,0,41,_Guitar,-1,-1
53,100,0.3181818181818182,506,1,41,_Guitar,-1,-1
60,100,0.11818181818181818,581,0,41,_Guitar,-1,-1
57,100,0.2409090909090909,735,0,41,_Guitar,-1,-1
45,100,0.17727272727272728,810,0,41,_Guitar,-1,-1
43,100,0.5818181818181818,131,1,42,_Guitar,-1,-1
43,100,0.2,638,1,42,_Guitar,-1,-1
43,100,0.1409090909090909,26,1,43,_Guitar,-1,-1
48,100,0.21818181818181817,96,0,43,_Guitar,-1,-1
53,100,0.1409090909090909,351,1,43,_Guitar,-1,-1
41,100,0.11818181818181818,523,0,43,_Guitar,-1,-1
53,100,0.17727272727272728,611,0,43,_Guitar,-1,-1
41,100,0.11818181818181818,726,0,43,_Guitar,-1,-1
53,100,0.11818181818181818,770,0,43,_Guitar,-1,-1
41,100,0.1409090909090909,796,0,43,_Guitar,-1,-1
60,100,0.1,826,0,43,_Guitar,-1,-1
41,100,0.2,853,0,43,_Guitar,-1,-1
53,100,0.3181818181818182,96,1,44,_Guitar,-1,-1
60,100,0.3409090909090909,166,0,44,_Guitar,-1,-1
48,100,0.1590909090909091,241,0,44,_Guitar,-1,-1
48,100,0.3409090909090909,338,0,44,_Guitar,-1,-1
60,100,0.3409090909090909,444,0,44,_Guitar,-1,-1
50,100,0.21818181818181817,801,1,44,_Guitar,-1,-1
43,100,0.2,289,1,45,_Guitar,-1,-1
41,100,0.12272727272727273,364,0,45,_Guitar,-1,-1
53,100,0.11818181818181818,480,0,45,_Guitar,-1,-1
46,100,0.2772727272727273,823,1,45,_Guitar,-1,-1
53,100,0.3181818181818182,88,1,46,_Guitar,-1,-1
62,100,0.18181818181818182,373,1,46,_Guitar,-1,-1
43,100,0.1,531,0,46,_Guitar,-1,-1
46,100,0.6590909090909091,783,1,46,_Guitar,-1,-1
46,100,0.32272727272727275,78,1,47,_Guitar,-1,-1
60,100,0.8,166,0,47,_Guitar,-1,-1
48,100,0.5409090909090909,343,0,47,_Guitar,-1,-1
48,100,0.2636363636363636,509,0,47,_Guitar,-1,-1
48,100,0.4409090909090909,616,0,47,_Guitar,-1,-1
48,100,0.6227272727272727,78,1,48,_Guitar,-1,-1
60,100,0.18181818181818182,254,0,48,_Guitar,-1,-1
58,100,0.2,418,0,48,_Guitar,-1,-1
58,100,0.18181818181818182,509,0,48,_Guitar,-1,-1
46,100,0.5818181818181818,804,1,48,_Guitar,-1,-1
60,100,0.3409090909090909,53,1,49,_Guitar,-1,-1
46,100,0.7636363636363637,136,0,49,_Guitar,-1,-1
46,100,0.8181818181818182,308,0,49,_Guitar,-1,-1
46,100,0.1409090909090909,493,0,49,_Guitar,-1,-1
57,100,0.9590909090909091,633,0,49,_Guitar,-1,-1
60,100,0.3409090909090909,91,1,50,_Guitar,-1,-1
57,100,1.1818181818181819,188,0,50,_Guitar,-1,-1
57,100,0.2818181818181818,453,1,50,_Guitar,-1,-1
57,100,0.18181818181818182,528,0,50,_Guitar,-1,-1
57,100,0.5772727272727273,590,0,50,_Guitar,-1,-1
60,100,0.6,721,0,50,_Guitar,-1,-1
48,100,0.9181818181818182,866,0,50,_Guitar,-1,-1
60,100,0.1409090909090909,246,1,51,_Guitar,-1,-1
60,100,0.2409090909090909,334,0,51,_Guitar,-1,-1
53,100,0.4590909090909091,396,0,51,_Guitar,-1,-1
60,100,1.2636363636363637,531,0,51,_Guitar,-1,-1
57,100,0.8,853,1,51,_Guitar,-1,-1
62,100,0.7818181818181819,651,1,52,_Guitar,-1,-1
57,100,0.16363636363636364,48,1,53,_Guitar,-1,-1
48,100,0.2,188,0,53,_Guitar,-1,-1
60,100,0.5,268,0,53,_Guitar,-1,-1
46,100,0.1590909090909091,483,1,53,_Guitar,-1,-1
60,100,0.2590909090909091,523,0,53,_Guitar,-1,-1
46,100,0.3,590,0,53,_Guitar,-1,-1
53,100,0.1590909090909091,655,0,53,_Guitar,-1,-1
46,100,0.11818181818181818,713,0,53,_Guitar,-1,-1
46,100,0.4409090909090909,751,0,53,_Guitar,-1,-1
53,100,0.1590909090909091,43,1,54,_Guitar,-1,-1
58,100,0.6,179,0,54,_Guitar,-1,-1
53,100,0.2,515,1,54,_Guitar,-1,-1
41,100,0.1590909090909091,18,1,55,_Guitar,-1,-1
53,100,0.1409090909090909,75,0,55,_Guitar,-1,-1
53,100,0.35909090909090907,110,0,55,_Guitar,-1,-1
53,100,0.3181818181818182,206,0,55,_Guitar,-1,-1
60,100,0.3181818181818182,281,0,55,_Guitar,-1,-1
60,100,0.5181818181818182,506,1,55,_Guitar,-1,-1
60,100,0.3181818181818182,713,1,55,_Guitar,-1,-1
60,100,0.3181818181818182,831,0,55,_Guitar,-1,-1
50,100,0.2,53,1,56,_Guitar,-1,-1
62,100,0.21818181818181817,176,0,56,_Guitar,-1,-1
60,100,0.6772727272727272,281,0,56,_Guitar,-1,-1
53,100,0.21818181818181817,448,0,56,_Guitar,-1,-1
57,100,0.2772727272727273,590,0,56,_Guitar,-1,-1
60,100,0.9818181818181818,703,0,56,_Guitar,-1,-1
60,100,0.6,118,1,57,_Guitar,-1,-1
46,100,0.8818181818181818,268,0,57,_Guitar,-1,-1
46,100,0.2818181818181818,593,1,57,_Guitar,-1,-1
58,100,0.33636363636363636,655,0,57,_Guitar,-1,-1
60,100,0.1590909090909091,765,0,57,_Guitar,-1,-1
53,100,0.3181818181818182,810,0,57,_Guitar,-1,-1
60,100,0.2818181818181818,4,1,58,_Guitar,-1,-1
53,100,0.4818181818181818,78,0,58,_Guitar,-1,-1
53,100,0.13636363636363635,215,0,58,_Guitar,-1,-1
53,100,0.12272727272727273,298,0,58,_Guitar,-1,-1
60,100,0.18181818181818182,378,0,58,_Guitar,-1,-1
60,100,0.9181818181818182,105,1,59,_Guitar,-1,-1
55,100,0.1,361,1,59,_Guitar,-1,-1
60,100,0.22272727272727272,619,1,59,_Guitar,-1,-1
60,100,0.1409090909090909,694,0,59,_Guitar,-1,-1
60,100,0.8,748,0,59,_Guitar,-1,-1
53,100,0.2,43,1,60,_Guitar,-1,-1
60,100,0.5409090909090909,141,0,60,_Guitar,-1,-1
41,100,0.2,263,0,60,_Guitar,-1,-1
60,100,1.3590909090909091,308,0,60,_Guitar,-1,-1
60,100,0.4409090909090909,726,1,60,_Guitar,-1,-1
50,100,0.2,101,1,61,_Guitar,-1,-1
60,100,0.35909090909090907,263,0,61,_Guitar,-1,-1
62,100,0.35909090909090907,351,0,61,_Guitar,-1,-1
50,100,0.32272727272727275,431,0,61,_Guitar,-1,-1
60,100,0.6590909090909091,703,1,61,_Guitar,-1,-1
45,100,0.11818181818181818,96,1,62,_Guitar,-1,-1
60,100,0.6181818181818182,171,0,62,_Guitar,-1,-1
58,100,0.1590909090909091,405,1,62,_Guitar,-1,-1
60,100,0.5,461,0,62,_Guitar,-1,-1
58,100,0.13636363636363635,678,1,62,_Guitar,-1,-1
60,100,1.0227272727272727,774,0,62,_Guitar,-1,-1
60,100,0.2818181818181818,289,1,63,_Guitar,-1,-1
60,100,0.22272727272727272,444,0,63,_Guitar,-1,-1
58,100,0.5409090909090909,563,0,63,_Guitar,-1,-1
46,100,0.3,681,0,63,_Guitar,-1,-1
60,100,0.5,818,0,63,_Guitar,-1,-1
46,100,0.2,92,1,64,_Guitar,-1,-1
46,100,0.3409090909090909,273,0,64,_Guitar,-1,-1
58,100,0.5227272727272727,430,0,64,_Guitar,-1,-1
60,100,0.36363636363636365,553,0,64,_Guitar,-1,-1
60,100,0.1,870,1,64,_Guitar,-1,-1
57,100,0.3181818181818182,163,1,65,_Guitar,-1,-1
45,100,0.35909090909090907,286,0,65,_Guitar,-1,-1
41,100,0.12272727272727273,597,1,65,_Guitar,-1,-1
60,100,0.5227272727272727,629,0,65,_Guitar,-1,-1
53,100,0.12272727272727273,870,1,65,_Guitar,-1,-1
60,100,0.1590909090909091,79,1,66,_Guitar,-1,-1
58,100,0.8,136,0,66,_Guitar,-1,-1
58,100,0.2409090909090909,316,0,66,_Guitar,-1,-1
58,100,0.12272727272727273,650,1,66,_Guitar,-1,-1
58,100,0.2,157,1,67,_Guitar,-1,-1
53,100,0.1409090909090909,286,0,67,_Guitar,-1,-1
57,100,0.33636363636363636,392,0,67,_Guitar,-1,-1
53,100,0.3181818181818182,493,0,67,_Guitar,-1,-1
53,100,0.18181818181818182,585,0,67,_Guitar,-1,-1
60,100,0.5,650,0,67,_Guitar,-1,-1
60,100,1.1409090909090909,770,0,67,_Guitar,-1,-1
60,100,0.1409090909090909,233,1,68,_Guitar,-1,-1
60,100,0.4772727272727273,392,0,68,_Guitar,-1,-1
60,100,0.35909090909090907,233,1,69,_Guitar,-1,-1
46,100,0.22272727272727272,333,0,69,_Guitar,-1,-1
53,100,0.2409090909090909,399,0,69,_Guitar,-1,-1
60,100,0.18181818181818182,487,0,69,_Guitar,-1,-1
60,100,0.12272727272727273,673,0,69,_Guitar,-1,-1
60,100,0.1590909090909091,713,0,69,_Guitar,-1,-1
53,100,0.1590909090909091,756,0,69,_Guitar,-1,-1
53,100,0.12272727272727273,826,0,69,_Guitar,-1,-1
57,100,0.37727272727272726,853,0,69,_Guitar,-1,-1
60,100,0.2,166,1,70,_Guitar,-1,-1
60,100,0.21818181818181817,273,0,70,_Guitar,-1,-1
53,100,0.12272727272727273,356,0,70,_Guitar,-1,-1
57,100,0.1,550,0,70,_Guitar,-1,-1
53,100,0.1,633,0,70,_Guitar,-1,-1
53,100,0.16363636363636364,663,0,70,_Guitar,-1,-1
60,100,0.2,826,0,70,_Guitar,-1,-1
53,100,0.2409090909090909,35,1,71,_Guitar,-1,-1
58,100,0.1,184,0,71,_Guitar,-1,-1
58,100,1.0227272727272727,210,0,71,_Guitar,-1,-1
60,100,0.2590909090909091,519,1,71,_Guitar,-1,-1
60,100,0.3,734,1,71,_Guitar,-1,-1
60,100,0.8181818181818182,844,0,71,_Guitar,-1,-1
60,100,0.12272727272727273,157,1,72,_Guitar,-1,-1
45,100,0.12272727272727273,223,0,72,_Guitar,-1,-1
53,100,0.12272727272727273,276,0,72,_Guitar,-1,-1
53,100,0.12272727272727273,399,0,72,_Guitar,-1,-1
46,100,0.5409090909090909,493,0,72,_Guitar,-1,-1
46,100,0.2590909090909091,616,0,72,_Guitar,-1,-1
46,100,0.18181818181818182,770,0,72,_Guitar,-1,-1
46,100,0.2,22,1,73,_Guitar,-1,-1
46,100,0.3409090909090909,69,0,73,_Guitar,-1,-1
46,100,0.11818181818181818,176,0,73,_Guitar,-1,-1
53,100,0.2590909090909091,210,0,73,_Guitar,-1,-1
60,100,0.21818181818181817,303,0,73,_Guitar,-1,-1
53,100,0.18181818181818182,487,0,73,_Guitar,-1,-1
48,100,0.6,633,0,73,_Guitar,-1,-1
55,100,0.37727272727272726,832,1,73,_Guitar,-1,-1
60,100,0.4590909090909091,56,1,74,_Guitar,-1,-1
64,100,0.17727272727272728,392,1,74,_Guitar,-1,-1
48,100,1.7,466,0,74,_Guitar,-1,-1
41,100,0.2818181818181818,857,1,74,_Guitar,-1,-1
60,100,0.4772727272727273,40,1,75,_Guitar,-1,-1
41,100,0.5363636363636364,172,0,75,_Guitar,-1,-1
60,100,0.9590909090909091,299,0,75,_Guitar,-1,-1
53,100,0.1409090909090909,550,1,75,_Guitar,-1,-1
60,100,1.6409090909090909,682,0,75,_Guitar,-1,-1
46,100,0.6,352,1,76,_Guitar,-1,-1
46,100,0.2636363636363636,487,0,76,_Guitar,-1,-1
46,100,0.5,559,0,76,_Guitar,-1,-1
60,100,0.8590909090909091,96,1,77,_Guitar,-1,-1
53,100,0.12272727272727273,443,1,77,_Guitar,-1,-1
58,100,0.13636363636363635,480,0,77,_Guitar,-1,-1
58,100,1.3590909090909091,563,0,77,_Guitar,-1,-1
58,100,0.1409090909090909,22,1,78,_Guitar,-1,-1
43,100,0.2409090909090909,66,0,78,_Guitar,-1,-1
55,100,0.1,263,0,78,_Guitar,-1,-1
55,100,0.1,289,0,78,_Guitar,-1,-1
60,100,0.5590909090909091,493,1,78,_Guitar,-1,-1
60,100,2.2590909090909093,677,0,78,_Guitar,-1,-1
60,100,0.8636363636363636,356,1,79,_Guitar,-1,-1
48,100,0.7,593,1,79,_Guitar,-1,-1
48,100,0.2818181818181818,752,0,79,_Guitar,-1,-1
60,100,0.1,123,1,80,_Guitar,-1,-1
48,100,1.8818181818181818,157,0,80,_Guitar,-1,-1
48,100,2.340909090909091,576,1,80,_Guitar,-1,-1
41,100,0.5590909090909091,263,1,81,_Guitar,-1,-1
60,100,0.38181818181818183,386,0,81,_Guitar,-1,-1
41,100,0.21818181818181817,470,0,81,_Guitar,-1,-1
60,100,0.5227272727272727,519,0,81,_Guitar,-1,-1
41,100,0.1590909090909091,633,0,81,_Guitar,-1,-1
60,100,0.6772727272727272,669,0,81,_Guitar,-1,-1
60,100,0.9409090909090909,3,1,82,_Guitar,-1,-1
62,100,0.5,493,1,82,_Guitar,-1,-1
60,100,1.1818181818181819,637,0,82,_Guitar,-1,-1
53,100,0.2,26,1,83,_Guitar,-1,-1
60,100,0.8409090909090909,229,1,83,_Guitar,-1,-1
53,100,0.1,466,1,83,_Guitar,-1,-1
53,100,0.22272727272727272,716,1,83,_Guitar,-1,-1
60,100,0.35909090909090907,783,0,83,_Guitar,-1,-1
58,100,0.13636363636363635,40,1,84,_Guitar,-1,-1
60,100,0.2409090909090909,189,0,84,_Guitar,-1,-1
53,100,0.11818181818181818,326,0,84,_Guitar,-1,-1
60,100,0.9409090909090909,466,0,84,_Guitar,-1,-1
60,100,0.6,677,1,84,_Guitar,-1,-1
58,100,0.1,184,1,85,_Guitar,-1,-1
62,100,0.2409090909090909,220,0,85,_Guitar,-1,-1
58,100,0.6181818181818182,370,0,85,_Guitar,-1,-1
58,100,0.5636363636363636,509,0,85,_Guitar,-1,-1
64,100,0.22272727272727272,642,0,85,_Guitar,-1,-1
60,100,0.5818181818181818,695,0,85,_Guitar,-1,-1
48,100,0.1409090909090909,136,1,86,_Guitar,-1,-1
53,100,0.35909090909090907,237,0,86,_Guitar,-1,-1
41,100,0.2590909090909091,316,0,86,_Guitar,-1,-1
60,100,0.6181818181818182,373,0,86,_Guitar,-1,-1
41,100,0.1409090909090909,514,0,86,_Guitar,-1,-1
41,100,0.2818181818181818,726,1,86,_Guitar,-1,-1
60,100,0.18181818181818182,839,0,86,_Guitar,-1,-1
48,100,0.3,43,1,87,_Guitar,-1,-1
64,100,0.35909090909090907,386,1,87,_Guitar,-1,-1
60,100,0.17727272727272728,493,0,87,_Guitar,-1,-1
57,100,0.1590909090909091,612,0,87,_Guitar,-1,-1
60,100,0.2818181818181818,686,0,87,_Guitar,-1,-1
41,100,0.1409090909090909,752,0,87,_Guitar,-1,-1
50,100,0.12272727272727273,13,1,88,_Guitar,-1,-1
53,100,0.2,66,0,88,_Guitar,-1,-1
53,100,0.37727272727272726,347,1,88,_Guitar,-1,-1
60,100,0.21818181818181817,703,1,88,_Guitar,-1,-1
53,100,0.11818181818181818,766,0,88,_Guitar,-1,-1
60,100,0.17727272727272728,40,1,89,_Guitar,-1,-1
60,100,0.4772727272727273,193,0,89,_Guitar,-1,-1
58,100,0.1590909090909091,303,0,89,_Guitar,-1,-1
60,100,0.2409090909090909,409,0,89,_Guitar,-1,-1
64,100,0.11818181818181818,677,1,89,_Guitar,-1,-1
48,100,0.23636363636363636,810,0,89,_Guitar,-1,-1
53,100,0.5,294,1,90,_Guitar,-1,-1
60,100,0.2409090909090909,593,1,90,_Guitar,-1,-1
60,100,0.1,686,0,90,_Guitar,-1,-1
55,100,0.2,743,0,90,_Guitar,-1,-1
60,100,0.18181818181818182,813,0,90,_Guitar,-1,-1
60,100,0.42272727272727273,113,1,91,_Guitar,-1,-1
55,100,0.2818181818181818,276,0,91,_Guitar,-1,-1
58,100,0.2590909090909091,360,0,91,_Guitar,-1,-1
53,100,0.1590909090909091,409,1,92,_Guitar,-1,-1
60,100,0.1409090909090909,616,1,92,_Guitar,-1,-1
53,100,0.38181818181818183,760,0,92,_Guitar,-1,-1
53,100,0.18181818181818182,136,1,93,_Guitar,-1,-1
60,100,0.32272727272727275,179,0,93,_Guitar,-1,-1
60,100,0.2409090909090909,267,0,93,_Guitar,-1,-1
60,100,0.3181818181818182,396,0,93,_Guitar,-1,-1
60,100,0.6409090909090909,532,0,93,_Guitar,-1,-1
60,100,0.1409090909090909,726,0,93,_Guitar,-1,-1
55,100,0.21818181818181817,756,0,93,_Guitar,-1,-1
60,100,0.11818181818181818,22,1,94,_Guitar,-1,-1
58,100,0.4,113,0,94,_Guitar,-1,-1
57,100,0.2,436,1,94,_Guitar,-1,-1
57,100,0.13636363636363635,656,1,94,_Guitar,-1,-1
53,100,0.18181818181818182,462,1,95,_Guitar,-1,-1
53,100,0.22272727272727272,585,0,95,_Guitar,-1,-1
60,100,0.21818181818181817,660,0,95,_Guitar,-1,-1
60,100,0.6181818181818182,787,0,95,_Guitar,-1,-1
60,100,0.4,172,1,96,_Guitar,-1,-1
48,100,0.1,282,0,96,_Guitar,-1,-1
53,100,0.12272727272727273,409,0,96,_Guitar,-1,-1
57,100,1.5818181818181818,673,1,96,_Guitar,-1,-1
53,100,0.5590909090909091,343,1,97,_Guitar,-1,-1
41,100,0.12272727272727273,540,0,97,_Guitar,-1,-1
57,100,0.2409090909090909,739,1,97,_Guitar,-1,-1
41,100,0.3409090909090909,839,0,97,_Guitar,-1,-1
41,100,0.12272727272727273,157,1,98,_Guitar,-1,-1
41,100,0.38181818181818183,210,0,98,_Guitar,-1,-1
57,100,0.33636363636363636,347,0,98,_Guitar,-1,-1
54,100,0.759090909090909,189,1,0,DL_EnglishEdition_Remastered_Guitar,-1,-1
54,100,0.2,374,0,0,DL_EnglishEdition_Remastered_Guitar,-1,-1
54,100,0.22272727272727272,466,0,0,DL_EnglishEdition_Remastered_Guitar,-1,-1
47,100,0.12272727272727273,563,0,0,DL_EnglishEdition_Remastered_Guitar,-1,-1
47,100,0.2,594,0,0,DL_EnglishEdition_Remastered_Guitar,-1,-1
59,100,0.12272727272727273,673,0,0,DL_EnglishEdition_Remastered_Guitar,-1,-1
61,100,0.3,770,0,0,DL_EnglishEdition_Remastered_Guitar,-1,-1
61,100,0.3,18,1,1,DL_EnglishEdition_Remastered_Guitar,-1,-1
42,100,0.18181818181818182,175,0,1,DL_EnglishEdition_Remastered_Guitar,-1,-1
59,100,0.1590909090909091,238,0,1,DL_EnglishEdition_Remastered_Guitar,-1,-1
59,100,0.4409090909090909,625,1,1,DL_EnglishEdition_Remastered_Guitar,-1,-1
47,100,0.1,854,1,1,DL_EnglishEdition_Remastered_Guitar,-1,-1
52,100,0.41818181818181815,140,1,2,DL_EnglishEdition_Remastered_Guitar,-1,-1
52,100,0.35909090909090907,364,1,2,DL_EnglishEdition_Remastered_Guitar,-1,-1
47,100,0.1409090909090909,474,0,2,DL_EnglishEdition_Remastered_Guitar,-1,-1
47,100,0.32272727272727275,553,0,2,DL_EnglishEdition_Remastered_Guitar,-1,-1
47,100,0.5818181818181818,638,0,2,DL_EnglishEdition_Remastered_Guitar,-1,-1
54,100,0.6181818181818182,770,0,2,DL_EnglishEdition_Remastered_Guitar,-1,-1
59,100,0.2636363636363636,26,1,3,DL_EnglishEdition_Remastered_Guitar,-1,-1
61,100,0.12272727272727273,210,0,3,DL_EnglishEdition_Remastered_Guitar,-1,-1
61,100,0.5227272727272727,246,0,3,DL_EnglishEdition_Remastered_Guitar,-1,-1
61,100,0.17727272727272728,458,1,3,DL_EnglishEdition_Remastered_Guitar,-1,-1
59,100,1.2,681,1,3,DL_EnglishEdition_Remastered_Guitar,-1,-1
59,100,0.8,87,1,4,DL_EnglishEdition_Remastered_Guitar,-1,-1
59,100,0.22272727272727272,276,0,4,DL_EnglishEdition_Remastered_Guitar,-1,-1
52,100,0.16363636363636364,795,1,4,DL_EnglishEdition_Remastered_Guitar,-1,-1
54,100,0.22272727272727272,849,0,4,DL_EnglishEdition_Remastered_Guitar,-1,-1
54,100,0.5,232,1,5,DL_EnglishEdition_Remastered_Guitar,-1,-1
54,100,0.21818181818181817,370,0,5,DL_EnglishEdition_Remastered_Guitar,-1,-1
61,100,0.12272727272727273,541,0,5,DL_EnglishEdition_Remastered_Guitar,-1,-1
54,100,0.11818181818181818,581,0,5,DL_EnglishEdition_Remastered_Guitar,-1,-1
59,100,0.11818181818181818,18,1,6,DL_EnglishEdition_Remastered_Guitar,-1,-1
59,100,0.13636363636363635,61,0,6,DL_EnglishEdition_Remastered_Guitar,-1,-1
52,100,0.3409090909090909,163,0,6,DL_EnglishEdition_Remastered_Guitar,-1,-1
59,100,0.3,409,1,6,DL_EnglishEdition_Remastered_Guitar,-1,-1
61,100,0.2409090909090909,792,1,6,DL_EnglishEdition_Remastered_Guitar,-1,-1
47,100,0.4,122,1,7,DL_EnglishEdition_Remastered_Guitar,-1,-1
59,100,0.18181818181818182,289,0,7,DL_EnglishEdition_Remastered_Guitar,-1,-1
59,100,0.1409090909090909,360,0,7,DL_EnglishEdition_Remastered_Guitar,-1,-1
54,100,0.1590909090909091,572,1,7,DL_EnglishEdition_Remastered_Guitar,-1,-1
47,100,0.1590909090909091,700,0,7,DL_EnglishEdition_Remastered_Guitar,-1,-1
59,100,0.11818181818181818,734,0,7,DL_EnglishEdition_Remastered_Guitar,-1,-1
59,100,0.1590909090909091,778,0,7,DL_EnglishEdition_Remastered_Guitar,-1,-1
54,100,0.2409090909090909,3,1,8,DL_EnglishEdition_Remastered_Guitar,-1,-1
54,100,0.7,206,1,8,DL_EnglishEdition_Remastered_Guitar,-1,-1
59,100,0.3409090909090909,453,1,8,DL_EnglishEdition_Remastered_Guitar,-1,-1
59,100,0.11818181818181818,589,0,8,DL_EnglishEdition_Remastered_Guitar,-1,-1
59,100,0.1,682,0,8,DL_EnglishEdition_Remastered_Guitar,-1,-1
47,100,0.2409090909090909,730,0,8,DL_EnglishEdition_Remastered_Guitar,-1,-1
47,100,0.1409090909090909,70,1,9,DL_EnglishEdition_Remastered_Guitar,-1,-1
52,100,0.5,245,0,9,DL_EnglishEdition_Remastered_Guitar,-1,-1
54,100,0.11818181818181818,374,0,9,DL_EnglishEdition_Remastered_Guitar,-1,-1
52,100,0.1590909090909091,519,0,9,DL_EnglishEdition_Remastered_Guitar,-1,-1
57,100,0.1,620,0,9,DL_EnglishEdition_Remastered_Guitar,-1,-1
57,100,0.5590909090909091,677,0,9,DL_EnglishEdition_Remastered_Guitar,-1,-1
45,100,0.16363636363636364,818,0,9,DL_EnglishEdition_Remastered_Guitar,-1,-1
61,100,0.18181818181818182,268,1,10,DL_EnglishEdition_Remastered_Guitar,-1,-1
59,100,0.1590909090909091,395,0,10,DL_EnglishEdition_Remastered_Guitar,-1,-1
59,100,0.1590909090909091,457,0,10,DL_EnglishEdition_Remastered_Guitar,-1,-1
59,100,0.38181818181818183,532,0,10,DL_EnglishEdition_Remastered_Guitar,-1,-1
59,100,0.5409090909090909,795,1,10,DL_EnglishEdition_Remastered_Guitar,-1,-1
59,100,0.2409090909090909,110,1,11,DL_EnglishEdition_Remastered_Guitar,-1,-1
52,100,0.2590909090909091,364,1,11,DL_EnglishEdition_Remastered_Guitar,-1,-1
54,100,0.1590909090909091,436,0,11,DL_EnglishEdition_Remastered_Guitar,-1,-1
59,100,0.4,470,0,11,DL_EnglishEdition_Remastered_Guitar,-1,-1
52,100,0.6409090909090909,87,1,12,DL_EnglishEdition_Remastered_Guitar,-1,-1
59,100,0.1,242,0,12,DL_EnglishEdition_Remastered_Guitar,-1,-1
59,100,0.2636363636363636,268,0,12,DL_EnglishEdition_Remastered_Guitar,-1,-1
59,100,0.37727272727272726,347,0,12,DL_EnglishEdition_Remastered_Guitar,-1,-1
64,100,0.1,620,1,12,DL_EnglishEdition_Remastered_Guitar,-1,-1
59,100,0.41818181818181815,656,0,12,DL_EnglishEdition_Remastered_Guitar,-1,-1
59,100,0.8772727272727273,866,1,12,DL_EnglishEdition_Remastered_Guitar,-1,-1
54,100,0.11818181818181818,194,1,13,DL_EnglishEdition_Remastered_Guitar,-1,-1
54,100,0.2772727272727273,250,0,13,DL_EnglishEdition_Remastered_Guitar,-1,-1
47,100,0.8590909090909091,369,0,13,DL_EnglishEdition_Remastered_Guitar,-1,-1
47,100,3.2818181818181817,563,0,13,DL_EnglishEdition_Remastered_Guitar,-1,-1
59,100,0.5409090909090909,496,1,14,DL_EnglishEdition_Remastered_Guitar,-1,-1
47,100,0.2,615,0,14,DL_EnglishEdition_Remastered_Guitar,-1,-1
59,100,0.41818181818181815,660,0,14,DL_EnglishEdition_Remastered_Guitar,-1,-1
59,100,0.1409090909090909,756,0,14,DL_EnglishEdition_Remastered_Guitar,-1,-1
54,100,0.8409090909090909,113,1,15,DL_EnglishEdition_Remastered_Guitar,-1,-1
54,100,0.22272727272727272,333,1,15,DL_EnglishEdition_Remastered_Guitar,-1,-1
61,100,0.17727272727272728,426,0,15,DL_EnglishEdition_Remastered_Guitar,-1,-1
59,100,0.35909090909090907,501,0,15,DL_EnglishEdition_Remastered_Guitar,-1,-1
59,100,0.42272727272727273,673,0,15,DL_EnglishEdition_Remastered_Guitar,-1,-1
47,100,0.21818181818181817,778,0,15,DL_EnglishEdition_Remastered_Guitar,-1,-1
47,100,0.4590909090909091,857,0,15,DL_EnglishEdition_Remastered_Guitar,-1,-1
47,100,0.1,83,1,16,DL_EnglishEdition_Remastered_Guitar,-1,-1
54,100,0.1590909090909091,175,0,16,DL_EnglishEdition_Remastered_Guitar,-1,-1
59,100,0.2409090909090909,594,1,16,DL_EnglishEdition_Remastered_Guitar,-1,-1
54,100,0.2590909090909091,677,0,16,DL_EnglishEdition_Remastered_Guitar,-1,-1
47,100,0.759090909090909,831,0,16,DL_EnglishEdition_Remastered_Guitar,-1,-1
47,100,0.2590909090909091,250,1,17,DL_EnglishEdition_Remastered_Guitar,-1,-1
54,100,0.2,326,0,17,DL_EnglishEdition_Remastered_Guitar,-1,-1
54,100,0.2,457,0,17,DL_EnglishEdition_Remastered_Guitar,-1,-1
61,100,0.12272727272727273,509,0,17,DL_EnglishEdition_Remastered_Guitar,-1,-1
61,100,0.42272727272727273,540,0,17,DL_EnglishEdition_Remastered_Guitar,-1,-1
54,100,0.5772727272727273,646,0,17,DL_EnglishEdition_Remastered_Guitar,-1,-1
59,100,0.11818181818181818,835,0,17,DL_EnglishEdition_Remastered_Guitar,-1,-1
52,100,0.1,866,0,17,DL_EnglishEdition_Remastered_Guitar,-1,-1
59,100,0.5590909090909091,21,1,18,DL_EnglishEdition_Remastered_Guitar,-1,-1
59,100,1.059090909090909,193,0,18,DL_EnglishEdition_Remastered_Guitar,-1,-1
47,100,0.17727272727272728,426,1,18,DL_EnglishEdition_Remastered_Guitar,-1,-1
59,100,0.2,515,0,18,DL_EnglishEdition_Remastered_Guitar,-1,-1
47,100,0.1590909090909091,563,0,18,DL_EnglishEdition_Remastered_Guitar,-1,-1
59,100,0.1590909090909091,677,0,18,DL_EnglishEdition_Remastered_Guitar,-1,-1
54,100,0.4590909090909091,814,0,18,DL_EnglishEdition_Remastered_Guitar,-1,-1
59,100,0.32272727272727275,113,1,19,DL_EnglishEdition_Remastered_Guitar,-1,-1
59,100,0.2,395,1,19,DL_EnglishEdition_Remastered_Guitar,-1,-1
54,100,0.1,461,0,19,DL_EnglishEdition_Remastered_Guitar,-1,-1
47,100,0.1409090909090909,553,0,19,DL_EnglishEdition_Remastered_Guitar,-1,-1
54,100,0.1,646,0,19,DL_EnglishEdition_Remastered_Guitar,-1,-1
59,100,0.4,770,0,19,DL_EnglishEdition_Remastered_Guitar,-1,-1
54,100,0.22272727272727272,862,0,19,DL_EnglishEdition_Remastered_Guitar,-1,-1
59,100,0.11818181818181818,65,1,20,DL_EnglishEdition_Remastered_Guitar,-1,-1
54,100,0.2409090909090909,110,0,20,DL_EnglishEdition_Remastered_Guitar,-1,-1
59,100,0.2818181818181818,220,0,20,DL_EnglishEdition_Remastered_Guitar,-1,-1
59,100,0.21818181818181817,360,0,20,DL_EnglishEdition_Remastered_Guitar,-1,-1
59,100,0.8818181818181818,430,0,20,DL_EnglishEdition_Remastered_Guitar,-1,-1
47,100,0.5409090909090909,629,1,20,DL_EnglishEdition_Remastered_Guitar,-1,-1
52,100,0.2636363636363636,773,0,20,DL_EnglishEdition_Remastered_Guitar,-1,-1
52,100,0.2,9,1,21,DL_EnglishEdition_Remastered_Guitar,-1,-1
52,100,0.2818181818181818,65,0,21,DL_EnglishEdition_Remastered_Guitar,-1,-1
54,100,0.1409090909090909,154,0,21,DL_EnglishEdition_Remastered_Guitar,-1,-1
54,100,0.11818181818181818,480,1,21,DL_EnglishEdition_Remastered_Guitar,-1,-1
47,100,0.4409090909090909,553,0,21,DL_EnglishEdition_Remastered_Guitar,-1,-1
59,100,0.18181818181818182,708,0,21,DL_EnglishEdition_Remastered_Guitar,-1,-1
59,100,0.2590909090909091,866,0,21,DL_EnglishEdition_Remastered_Guitar,-1,-1
47,100,0.2,44,1,22,DL_EnglishEdition_Remastered_Guitar,-1,-1
54,100,0.1,100,0,22,DL_EnglishEdition_Remastered_Guitar,-1,-1
59,100,0.1409090909090909,179,0,22,DL_EnglishEdition_Remastered_Guitar,-1,-1
54,100,0.8,237,0,22,DL_EnglishEdition_Remastered_Guitar,-1,-1
54,100,0.6590909090909091,426,0,22,DL_EnglishEdition_Remastered_Guitar,-1,-1
59,100,0.4,611,0,22,DL_EnglishEdition_Remastered_Guitar,-1,-1
59,100,0.1590909090909091,725,0,22,DL_EnglishEdition_Remastered_Guitar,-1,-1
64,100,0.1,193,1,23,DL_EnglishEdition_Remastered_Guitar,-1,-1
52,100,0.2818181818181818,268,0,23,DL_EnglishEdition_Remastered_Guitar,-1,-1
59,100,0.1409090909090909,387,0,23,DL_EnglishEdition_Remastered_Guitar,-1,-1
52,100,0.4409090909090909,484,0,23,DL_EnglishEdition_Remastered_Guitar,-1,-1
54,100,0.41818181818181815,602,0,23,DL_EnglishEdition_Remastered_Guitar,-1,-1
54,100,0.1590909090909091,814,1,23,DL_EnglishEdition_Remastered_Guitar,-1,-1
52,100,0.1,34,1,24,DL_EnglishEdition_Remastered_Guitar,-1,-1
59,100,0.2409090909090909,382,1,24,DL_EnglishEdition_Remastered_Guitar,-1,-1
59,100,0.2409090909090909,440,0,24,DL_EnglishEdition_Remastered_Guitar,-1,-1
40,100,0.3,532,0,24,DL_EnglishEdition_Remastered_Guitar,-1,-1
59,100,0.5636363636363636,619,0,24,DL_EnglishEdition_Remastered_Guitar,-1,-1
59,100,0.2,773,0,24,DL_EnglishEdition_Remastered_Guitar,-1,-1
59,100,0.4590909090909091,827,0,24,DL_EnglishEdition_Remastered_Guitar,-1,-1
59,100,0.2772727272727273,52,1,25,DL_EnglishEdition_Remastered_Guitar,-1,-1
63,100,0.2590909090909091,216,0,25,DL_EnglishEdition_Remastered_Guitar,-1,-1
59,100,0.6,272,0,25,DL_EnglishEdition_Remastered_Guitar,-1,-1
59,100,0.6,409,0,25,DL_EnglishEdition_Remastered_Guitar,-1,-1
59,100,0.5,686,1,25,DL_EnglishEdition_Remastered_Guitar,-1,-1
54,100,0.2636363636363636,796,0,25,DL_EnglishEdition_Remastered_Guitar,-1,-1
54,100,0.4,52,1,26,DL_EnglishEdition_Remastered_Guitar,-1,-1
52,100,0.4,241,0,26,DL_EnglishEdition_Remastered_Guitar,-1,-1
52,100,0.6772727272727272,382,0,26,DL_EnglishEdition_Remastered_Guitar,-1,-1
59,100,0.3181818181818182,700,1,26,DL_EnglishEdition_Remastered_Guitar,-1,-1
40,100,0.1,804,0,26,DL_EnglishEdition_Remastered_Guitar,-1,-1
59,100,0.4590909090909091,100,1,27,DL_EnglishEdition_Remastered_Guitar,-1,-1
59,100,0.5590909090909091,216,0,27,DL_EnglishEdition_Remastered_Guitar,-1,-1
40,100,0.1,382,0,27,DL_EnglishEdition_Remastered_Guitar,-1,-1
59,100,0.6227272727272727,773,1,27,DL_EnglishEdition_Remastered_Guitar,-1,-1
59,100,0.35909090909090907,65,1,28,DL_EnglishEdition_Remastered_Guitar,-1,-1
47,100,0.12272727272727273,650,1,28,DL_EnglishEdition_Remastered_Guitar,-1,-1
47,100,0.2772727272727273,700,0,28,DL_EnglishEdition_Remastered_Guitar,-1,-1
59,100,0.1409090909090909,791,0,28,DL_EnglishEdition_Remastered_Guitar,-1,-1
59,100,0.16363636363636364,26,1,29,DL_EnglishEdition_Remastered_Guitar,-1,-1
47,100,0.11818181818181818,61,0,29,DL_EnglishEdition_Remastered_Guitar,-1,-1
52,100,0.21818181818181817,154,0,29,DL_EnglishEdition_Remastered_Guitar,-1,-1
52,100,0.2590909090909091,206,0,29,DL_EnglishEdition_Remastered_Guitar,-1,-1
47,100,0.5818181818181818,285,0,29,DL_EnglishEdition_Remastered_Guitar,-1,-1
47,100,0.11818181818181818,501,1,29,DL_EnglishEdition_Remastered_Guitar,-1,-1
54,100,0.6363636363636364,61,1,30,DL_EnglishEdition_Remastered_Guitar,-1,-1
56,100,0.3409090909090909,739,1,30,DL_EnglishEdition_Remastered_Guitar,-1,-1
40,100,0.1409090909090909,131,1,31,DL_EnglishEdition_Remastered_Guitar,-1,-1
40,100,0.17727272727272728,171,0,31,DL_EnglishEdition_Remastered_Guitar,-1,-1
52,100,0.2590909090909091,272,0,31,DL_EnglishEdition_Remastered_Guitar,-1,-1
59,100,0.11818181818181818,501,1,31,DL_EnglishEdition_Remastered_Guitar,-1,-1
47,100,0.1590909090909091,827,1,31,DL_EnglishEdition_Remastered_Guitar,-1,-1
59,100,0.12272727272727273,34,1,32,DL_EnglishEdition_Remastered_Guitar,-1,-1
59,100,0.2409090909090909,141,0,32,DL_EnglishEdition_Remastered_Guitar,-1,-1
61,100,0.22272727272727272,276,0,32,DL_EnglishEdition_Remastered_Guitar,-1,-1
54,100,0.4409090909090909,364,0,32,DL_EnglishEdition_Remastered_Guitar,-1,-1
54,100,0.6409090909090909,518,0,32,DL_EnglishEdition_Remastered_Guitar,-1,-1
42,100,0.2,660,0,32,DL_EnglishEdition_Remastered_Guitar,-1,-1
61,100,0.2,128,1,33,DL_EnglishEdition_Remastered_Guitar,-1,-1
61,100,0.11818181818181818,193,0,33,DL_EnglishEdition_Remastered_Guitar,-1,-1
61,100,0.3,295,0,33,DL_EnglishEdition_Remastered_Guitar,-1,-1
40,100,0.18181818181818182,444,0,33,DL_EnglishEdition_Remastered_Guitar,-1,-1
59,100,0.22272727272727272,509,0,33,DL_EnglishEdition_Remastered_Guitar,-1,-1
59,100,0.4818181818181818,563,0,33,DL_EnglishEdition_Remastered_Guitar,-1,-1
59,100,0.23636363636363636,700,0,33,DL_EnglishEdition_Remastered_Guitar,-1,-1
52,100,0.1590909090909091,761,0,33,DL_EnglishEdition_Remastered_Guitar,-1,-1
59,100,0.4818181818181818,839,0,33,DL_EnglishEdition_Remastered_Guitar,-1,-1
59,100,0.6227272727272727,101,1,34,DL_EnglishEdition_Remastered_Guitar,-1,-1
54,100,0.3,325,1,34,DL_EnglishEdition_Remastered_Guitar,-1,-1
42,100,0.18181818181818182,628,1,34,DL_EnglishEdition_Remastered_Guitar,-1,-1
54,100,0.18181818181818182,681,0,34,DL_EnglishEdition_Remastered_Guitar,-1,-1
54,100,0.4590909090909091,726,0,34,DL_EnglishEdition_Remastered_Guitar,-1,-1
54,100,0.2590909090909091,831,0,34,DL_EnglishEdition_Remastered_Guitar,-1,-1
54,100,0.3409090909090909,13,1,35,DL_EnglishEdition_Remastered_Guitar,-1,-1
54,100,0.2818181818181818,166,0,35,DL_EnglishEdition_Remastered_Guitar,-1,-1
56,100,0.2,391,1,35,DL_EnglishEdition_Remastered_Guitar,-1,-1
59,100,0.2,458,0,35,DL_EnglishEdition_Remastered_Guitar,-1,-1
59,100,0.11818181818181818,536,0,35,DL_EnglishEdition_Remastered_Guitar,-1,-1
59,100,0.32272727272727275,641,0,35,DL_EnglishEdition_Remastered_Guitar,-1,-1
59,100,0.1409090909090909,751,0,35,DL_EnglishEdition_Remastered_Guitar,-1,-1
52,100,0.5818181818181818,871,0,35,DL_EnglishEdition_Remastered_Guitar,-1,-1
59,100,0.5590909090909091,150,1,36,DL_EnglishEdition_Remastered_Guitar,-1,-1
59,100,0.38181818181818183,286,0,36,DL_EnglishEdition_Remastered_Guitar,-1,-1
42,100,0.11818181818181818,413,0,36,DL_EnglishEdition_Remastered_Guitar,-1,-1
61,100,0.12272727272727273,466,0,36,DL_EnglishEdition_Remastered_Guitar,-1,-1
42,100,0.22272727272727272,531,0,36,DL_EnglishEdition_Remastered_Guitar,-1,-1
42,100,0.13636363636363635,611,0,36,DL_EnglishEdition_Remastered_Guitar,-1,-1
54,100,0.6363636363636364,655,0,36,DL_EnglishEdition_Remastered_Guitar,-1,-1
54,100,0.2409090909090909,818,0,36,DL_EnglishEdition_Remastered_Guitar,-1,-1
54,100,0.2590909090909091,875,0,36,DL_EnglishEdition_Remastered_Guitar,-1,-1
59,100,0.2,171,1,37,DL_EnglishEdition_Remastered_Guitar,-1,-1
54,100,0.1409090909090909,426,1,37,DL_EnglishEdition_Remastered_Guitar,-1,-1
54,100,0.38181818181818183,506,0,37,DL_EnglishEdition_Remastered_Guitar,-1,-1
54,100,0.3,603,0,37,DL_EnglishEdition_Remastered_Guitar,-1,-1
54,100,0.2,694,0,37,DL_EnglishEdition_Remastered_Guitar,-1,-1
51,100,0.36363636363636365,311,1,38,DL_EnglishEdition_Remastered_Guitar,-1,-1
54,100,0.1590909090909091,413,0,38,DL_EnglishEdition_Remastered_Guitar,-1,-1
54,100,0.6409090909090909,471,0,38,DL_EnglishEdition_Remastered_Guitar,-1,-1
47,100,1.0,751,1,38,DL_EnglishEdition_Remastered_Guitar,-1,-1
59,100,0.18181818181818182,114,1,39,DL_EnglishEdition_Remastered_Guitar,-1,-1
52,100,0.2818181818181818,188,0,39,DL_EnglishEdition_Remastered_Guitar,-1,-1
47,100,0.6772727272727272,471,1,39,DL_EnglishEdition_Remastered_Guitar,-1,-1
59,100,0.6409090909090909,628,0,39,DL_EnglishEdition_Remastered_Guitar,-1,-1
47,100,0.18181818181818182,770,0,39,DL_EnglishEdition_Remastered_Guitar,-1,-1
59,100,0.13636363636363635,810,0,39,DL_EnglishEdition_Remastered_Guitar,-1,-1
54,100,0.1590909090909091,866,0,39,DL_EnglishEdition_Remastered_Guitar,-1,-1
52,100,0.12272727272727273,144,1,40,DL_EnglishEdition_Remastered_Guitar,-1,-1
47,100,0.6181818181818182,330,0,40,DL_EnglishEdition_Remastered_Guitar,-1,-1
54,100,0.2818181818181818,483,0,40,DL_EnglishEdition_Remastered_Guitar,-1,-1
54,100,0.21818181818181817,550,0,40,DL_EnglishEdition_Remastered_Guitar,-1,-1
59,100,0.1,641,0,40,DL_EnglishEdition_Remastered_Guitar,-1,-1
59,100,0.41818181818181815,853,1,40,DL_EnglishEdition_Remastered_Guitar,-1,-1
52,100,0.5181818181818182,308,1,41,DL_EnglishEdition_Remastered_Guitar,-1,-1
47,100,0.2818181818181818,761,1,41,DL_EnglishEdition_Remastered_Guitar,-1,-1
54,100,0.1409090909090909,88,1,42,DL_EnglishEdition_Remastered_Guitar,-1,-1
47,100,0.4590909090909091,153,0,42,DL_EnglishEdition_Remastered_Guitar,-1,-1
54,100,0.5227272727272727,276,0,42,DL_EnglishEdition_Remastered_Guitar,-1,-1
59,100,1.040909090909091,638,1,42,DL_EnglishEdition_Remastered_Guitar,-1,-1
51,100,0.23636363636363636,128,1,43,DL_EnglishEdition_Remastered_Guitar,-1,-1
54,100,0.4409090909090909,399,1,43,DL_EnglishEdition_Remastered_Guitar,-1,-1
52,100,0.7,509,0,43,DL_EnglishEdition_Remastered_Guitar,-1,-1
52,100,0.37727272727272726,823,1,43,DL_EnglishEdition_Remastered_Guitar,-1,-1
47,100,0.6590909090909091,188,1,44,DL_EnglishEdition_Remastered_Guitar,-1,-1
59,100,0.5181818181818182,413,1,44,DL_EnglishEdition_Remastered_Guitar,-1,-1
59,100,0.11818181818181818,593,0,44,DL_EnglishEdition_Remastered_Guitar,-1,-1
59,100,0.13636363636363635,633,0,44,DL_EnglishEdition_Remastered_Guitar,-1,-1
59,100,0.3409090909090909,220,1,45,DL_EnglishEdition_Remastered_Guitar,-1,-1
59,100,0.5181818181818182,303,0,45,DL_EnglishEdition_Remastered_Guitar,-1,-1
47,100,0.2636363636363636,444,0,45,DL_EnglishEdition_Remastered_Guitar,-1,-1
59,100,0.2772727272727273,501,0,45,DL_EnglishEdition_Remastered_Guitar,-1,-1
47,100,0.18181818181818182,651,0,45,DL_EnglishEdition_Remastered_Guitar,-1,-1
47,100,0.21818181818181817,713,0,45,DL_EnglishEdition_Remastered_Guitar,-1,-1
54,100,0.4,770,0,45,DL_EnglishEdition_Remastered_Guitar,-1,-1
54,100,0.1409090909090909,861,0,45,DL_EnglishEdition_Remastered_Guitar,-1,-1
47,100,0.11818181818181818,185,1,46,DL_EnglishEdition_Remastered_Guitar,-1,-1
54,100,0.16363636363636364,224,0,46,DL_EnglishEdition_Remastered_Guitar,-1,-1
59,100,0.5818181818181818,364,0,46,DL_EnglishEdition_Remastered_Guitar,-1,-1
54,100,0.2,673,1,46,DL_EnglishEdition_Remastered_Guitar,-1,-1
59,100,0.2772727272727273,823,0,46,DL_EnglishEdition_Remastered_Guitar,-1,-1
59,100,0.2409090909090909,53,1,47,DL_EnglishEdition_Remastered_Guitar,-1,-1
47,100,0.3181818181818182,176,0,47,DL_EnglishEdition_Remastered_Guitar,-1,-1
47,100,0.2590909090909091,281,0,47,DL_EnglishEdition_Remastered_Guitar,-1,-1
54,100,0.2818181818181818,506,1,47,DL_EnglishEdition_Remastered_Guitar,-1,-1
59,100,0.2409090909090909,584,0,47,DL_EnglishEdition_Remastered_Guitar,-1,-1
59,100,0.5181818181818182,735,0,47,DL_EnglishEdition_Remastered_Guitar,-1,-1
54,100,0.23636363636363636,853,0,47,DL_EnglishEdition_Remastered_Guitar,-1,-1
59,100,1.0,31,1,48,DL_EnglishEdition_Remastered_Guitar,-1,-1
47,100,0.2,370,1,48,DL_EnglishEdition_Remastered_Guitar,-1,-1
47,100,0.1590909090909091,418,0,48,DL_EnglishEdition_Remastered_Guitar,-1,-1
47,100,0.17727272727272728,458,0,48,DL_EnglishEdition_Remastered_Guitar,-1,-1
47,100,0.1409090909090909,641,0,48,DL_EnglishEdition_Remastered_Guitar,-1,-1
59,100,0.2409090909090909,748,0,48,DL_EnglishEdition_Remastered_Guitar,-1,-1
59,100,0.13636363636363635,150,1,49,DL_EnglishEdition_Remastered_Guitar,-1,-1
54,100,0.3,215,0,49,DL_EnglishEdition_Remastered_Guitar,-1,-1
54,100,0.21818181818181817,286,0,49,DL_EnglishEdition_Remastered_Guitar,-1,-1
47,100,0.3409090909090909,493,1,49,DL_EnglishEdition_Remastered_Guitar,-1,-1
59,100,0.4772727272727273,568,0,49,DL_EnglishEdition_Remastered_Guitar,-1,-1
59,100,0.17727272727272728,678,0,49,DL_EnglishEdition_Remastered_Guitar,-1,-1
59,100,0.3,774,0,49,DL_EnglishEdition_Remastered_Guitar,-1,-1
59,100,0.18181818181818182,48,1,50,DL_EnglishEdition_Remastered_Guitar,-1,-1
59,100,0.5818181818181818,364,1,50,DL_EnglishEdition_Remastered_Guitar,-1,-1
59,100,0.17727272727272728,545,0,50,DL_EnglishEdition_Remastered_Guitar,-1,-1
59,100,0.7,735,0,50,DL_EnglishEdition_Remastered_Guitar,-1,-1
52,100,0.7818181818181819,26,1,51,DL_EnglishEdition_Remastered_Guitar,-1,-1
47,100,0.5,286,1,51,DL_EnglishEdition_Remastered_Guitar,-1,-1
47,100,0.11818181818181818,405,0,51,DL_EnglishEdition_Remastered_Guitar,-1,-1
47,100,0.4409090909090909,550,0,51,DL_EnglishEdition_Remastered_Guitar,-1,-1
47,100,0.1409090909090909,726,0,51,DL_EnglishEdition_Remastered_Guitar,-1,-1
54,100,0.2590909090909091,783,0,51,DL_EnglishEdition_Remastered_Guitar,-1,-1
59,100,0.6409090909090909,26,1,52,DL_EnglishEdition_Remastered_Guitar,-1,-1
54,100,0.23636363636363636,171,0,52,DL_EnglishEdition_Remastered_Guitar,-1,-1
54,100,0.7181818181818181,308,0,52,DL_EnglishEdition_Remastered_Guitar,-1,-1
47,100,0.2590909090909091,550,1,52,DL_EnglishEdition_Remastered_Guitar,-1,-1
54,100,0.3409090909090909,681,0,52,DL_EnglishEdition_Remastered_Guitar,-1,-1
59,100,0.11818181818181818,823,0,52,DL_EnglishEdition_Remastered_Guitar,-1,-1
59,100,0.11818181818181818,198,1,53,DL_EnglishEdition_Remastered_Guitar,-1,-1
52,100,0.4818181818181818,334,0,53,DL_EnglishEdition_Remastered_Guitar,-1,-1
47,100,0.1590909090909091,461,0,53,DL_EnglishEdition_Remastered_Guitar,-1,-1
47,100,0.11818181818181818,691,1,53,DL_EnglishEdition_Remastered_Guitar,-1,-1
54,100,0.3409090909090909,735,0,53,DL_EnglishEdition_Remastered_Guitar,-1,-1
59,100,0.5,875,0,53,DL_EnglishEdition_Remastered_Guitar,-1,-1
54,100,0.18181818181818182,110,1,54,DL_EnglishEdition_Remastered_Guitar,-1,-1
54,100,0.2590909090909091,153,0,54,DL_EnglishEdition_Remastered_Guitar,-1,-1
47,100,0.4772727272727273,251,0,54,DL_EnglishEdition_Remastered_Guitar,-1,-1
47,100,0.4590909090909091,391,0,54,DL_EnglishEdition_Remastered_Guitar,-1,-1
59,100,0.7,536,0,54,DL_EnglishEdition_Remastered_Guitar,-1,-1
54,100,0.2409090909090909,708,0,54,DL_EnglishEdition_Remastered_Guitar,-1,-1
47,100,0.2818181818181818,826,0,54,DL_EnglishEdition_Remastered_Guitar,-1,-1
59,100,0.2,78,1,55,DL_EnglishEdition_Remastered_Guitar,-1,-1
54,100,0.1,141,0,55,DL_EnglishEdition_Remastered_Guitar,-1,-1
54,100,0.2409090909090909,198,0,55,DL_EnglishEdition_Remastered_Guitar,-1,-1
47,100,0.3409090909090909,273,0,55,DL_EnglishEdition_Remastered_Guitar,-1,-1
47,100,0.4590909090909091,435,0,55,DL_EnglishEdition_Remastered_Guitar,-1,-1
59,100,0.35909090909090907,536,0,55,DL_EnglishEdition_Remastered_Guitar,-1,-1
59,100,0.9590909090909091,651,0,55,DL_EnglishEdition_Remastered_Guitar,-1,-1
54,100,0.1,861,1,55,DL_EnglishEdition_Remastered_Guitar,-1,-1
54,100,0.35909090909090907,40,1,56,DL_EnglishEdition_Remastered_Guitar,-1,-1
54,100,0.5227272727272727,166,0,56,DL_EnglishEdition_Remastered_Guitar,-1,-1
56,100,0.21818181818181817,633,1,56,DL_EnglishEdition_Remastered_Guitar,-1,-1
56,100,0.33636363636363636,700,0,56,DL_EnglishEdition_Remastered_Guitar,-1,-1
56,100,0.5636363636363636,818,0,56,DL_EnglishEdition_Remastered_Guitar,-1,-1
63,100,0.2409090909090909,158,1,57,DL_EnglishEdition_Remastered_Guitar,-1,-1
56,100,0.1590909090909091,295,0,57,DL_EnglishEdition_Remastered_Guitar,-1,-1
51,100,0.6636363636363637,466,0,57,DL_EnglishEdition_Remastered_Guitar,-1,-1
59,100,0.42272727272727273,774,1,57,DL_EnglishEdition_Remastered_Guitar,-1,-1
47,100,0.3,43,1,58,DL_EnglishEdition_Remastered_Guitar,-1,-1
47,100,0.11818181818181818,193,0,58,DL_EnglishEdition_Remastered_Guitar,-1,-1
54,100,0.1409090909090909,254,0,58,DL_EnglishEdition_Remastered_Guitar,-1,-1
47,100,0.3181818181818182,308,0,58,DL_EnglishEdition_Remastered_Guitar,-1,-1
47,100,0.5409090909090909,383,0,58,DL_EnglishEdition_Remastered_Guitar,-1,-1
54,100,0.16363636363636364,531,0,58,DL_EnglishEdition_Remastered_Guitar,-1,-1
47,100,0.12272727272727273,598,0,58,DL_EnglishEdition_Remastered_Guitar,-1,-1
54,100,0.22272727272727272,628,0,58,DL_EnglishEdition_Remastered_Guitar,-1,-1
54,100,0.1590909090909091,703,0,58,DL_EnglishEdition_Remastered_Guitar,-1,-1
59,100,0.21818181818181817,31,1,59,DL_EnglishEdition_Remastered_Guitar,-1,-1
59,100,0.2590909090909091,141,0,59,DL_EnglishEdition_Remastered_Guitar,-1,-1
59,100,0.4409090909090909,316,0,59,DL_EnglishEdition_Remastered_Guitar,-1,-1
61,100,0.5181818181818182,198,1,60,DL_EnglishEdition_Remastered_Guitar,-1,-1
61,100,0.6181818181818182,440,1,60,DL_EnglishEdition_Remastered_Guitar,-1,-1
54,100,0.2409090909090909,641,1,60,DL_EnglishEdition_Remastered_Guitar,-1,-1
64,100,0.12272727272727273,729,0,60,DL_EnglishEdition_Remastered_Guitar,-1,-1
59,100,0.1,325,1,61,DL_EnglishEdition_Remastered_Guitar,-1,-1
52,100,0.18181818181818182,606,1,61,DL_EnglishEdition_Remastered_Guitar,-1,-1
47,100,0.1590909090909091,691,0,61,DL_EnglishEdition_Remastered_Guitar,-1,-1
52,100,0.9409090909090909,871,0,61,DL_EnglishEdition_Remastered_Guitar,-1,-1
52,100,0.1409090909090909,211,1,62,DL_EnglishEdition_Remastered_Guitar,-1,-1
52,100,0.6,251,0,62,DL_EnglishEdition_Remastered_Guitar,-1,-1
47,100,0.1409090909090909,603,1,62,DL_EnglishEdition_Remastered_Guitar,-1,-1
59,100,0.6,641,0,62,DL_EnglishEdition_Remastered_Guitar,-1,-1
59,100,0.6,18,1,63,DL_EnglishEdition_Remastered_Guitar,-1,-1
49,100,0.6227272727272727,268,1,63,DL_EnglishEdition_Remastered_Guitar,-1,-1
54,100,0.1590909090909091,606,1,63,DL_EnglishEdition_Remastered_Guitar,-1,-1
56,100,0.9818181818181818,694,0,63,DL_EnglishEdition_Remastered_Guitar,-1,-1
56,100,0.8409090909090909,66,1,64,DL_EnglishEdition_Remastered_Guitar,-1,-1
52,100,0.8818181818181818,320,1,64,DL_EnglishEdition_Remastered_Guitar,-1,-1
59,100,0.22272727272727272,519,1,64,DL_EnglishEdition_Remastered_Guitar,-1,-1
59,100,0.8590909090909091,590,0,64,DL_EnglishEdition_Remastered_Guitar,-1,-1
59,100,0.12272727272727273,817,1,64,DL_EnglishEdition_Remastered_Guitar,-1,-1
54,100,0.4409090909090909,857,0,64,DL_EnglishEdition_Remastered_Guitar,-1,-1
47,100,0.21818181818181817,110,1,65,DL_EnglishEdition_Remastered_Guitar,-1,-1
59,100,0.32272727272727275,157,0,65,DL_EnglishEdition_Remastered_Guitar,-1,-1
59,100,0.4409090909090909,255,0,65,DL_EnglishEdition_Remastered_Guitar,-1,-1
54,100,0.2,480,1,65,DL_EnglishEdition_Remastered_Guitar,-1,-1
54,100,0.12272727272727273,597,0,65,DL_EnglishEdition_Remastered_Guitar,-1,-1
49,100,0.2409090909090909,686,0,65,DL_EnglishEdition_Remastered_Guitar,-1,-1
54,100,0.5772727272727273,756,0,65,DL_EnglishEdition_Remastered_Guitar,-1,-1
54,100,0.5409090909090909,132,1,66,DL_EnglishEdition_Remastered_Guitar,-1,-1
49,100,0.12272727272727273,267,0,66,DL_EnglishEdition_Remastered_Guitar,-1,-1
54,100,0.23636363636363636,326,0,66,DL_EnglishEdition_Remastered_Guitar,-1,-1
54,100,0.2,396,0,66,DL_EnglishEdition_Remastered_Guitar,-1,-1
49,100,0.21818181818181817,462,0,66,DL_EnglishEdition_Remastered_Guitar,-1,-1
54,100,0.5181818181818182,527,0,66,DL_EnglishEdition_Remastered_Guitar,-1,-1
52,100,0.18181818181818182,660,0,66,DL_EnglishEdition_Remastered_Guitar,-1,-1
59,100,0.1409090909090909,726,0,66,DL_EnglishEdition_Remastered_Guitar,-1,-1
59,100,0.5181818181818182,779,0,66,DL_EnglishEdition_Remastered_Guitar,-1,-1
52,100,0.36363636363636365,47,1,67,DL_EnglishEdition_Remastered_Guitar,-1,-1
59,100,0.2,189,0,67,DL_EnglishEdition_Remastered_Guitar,-1,-1
54,100,0.18181818181818182,246,0,67,DL_EnglishEdition_Remastered_Guitar,-1,-1
54,100,0.17727272727272728,294,0,67,DL_EnglishEdition_Remastered_Guitar,-1,-1
47,100,0.2818181818181818,483,0,67,DL_EnglishEdition_Remastered_Guitar,-1,-1
54,100,0.22272727272727272,760,1,67,DL_EnglishEdition_Remastered_Guitar,-1,-1
54,100,0.3,823,0,67,DL_EnglishEdition_Remastered_Guitar,-1,-1
49,100,0.12272727272727273,56,1,68,DL_EnglishEdition_Remastered_Guitar,-1,-1
49,100,0.18181818181818182,100,0,68,DL_EnglishEdition_Remastered_Guitar,-1,-1
49,100,0.22272727272727272,145,0,68,DL_EnglishEdition_Remastered_Guitar,-1,-1
49,100,0.11818181818181818,303,0,68,DL_EnglishEdition_Remastered_Guitar,-1,-1
56,100,2.040909090909091,466,0,68,DL_EnglishEdition_Remastered_Guitar,-1,-1
54,100,0.13636363636363635,40,1,69,DL_EnglishEdition_Remastered_Guitar,-1,-1
52,100,1.7181818181818183,110,0,69,DL_EnglishEdition_Remastered_Guitar,-1,-1
52,100,0.1590909090909091,527,1,69,DL_EnglishEdition_Remastered_Guitar,-1,-1
54,100,0.1590909090909091,616,0,69,DL_EnglishEdition_Remastered_Guitar,-1,-1
54,100,0.2772727272727273,677,0,69,DL_EnglishEdition_Remastered_Guitar,-1,-1
61,100,0.12272727272727273,752,0,69,DL_EnglishEdition_Remastered_Guitar,-1,-1
61,100,0.35909090909090907,783,0,69,DL_EnglishEdition_Remastered_Guitar,-1,-1
54,100,0.6590909090909091,9,1,70,DL_EnglishEdition_Remastered_Guitar,-1,-1
59,100,0.16363636363636364,179,0,70,DL_EnglishEdition_Remastered_Guitar,-1,-1
59,100,0.1,453,1,70,DL_EnglishEdition_Remastered_Guitar,-1,-1
54,100,0.3,590,0,70,DL_EnglishEdition_Remastered_Guitar,-1,-1
54,100,0.2409090909090909,739,0,70,DL_EnglishEdition_Remastered_Guitar,-1,-1
52,100,1.7818181818181817,796,0,70,DL_EnglishEdition_Remastered_Guitar,-1,-1
52,100,0.2590909090909091,316,1,71,DL_EnglishEdition_Remastered_Guitar,-1,-1
52,100,0.740909090909091,399,0,71,DL_EnglishEdition_Remastered_Guitar,-1,-1
52,100,0.4409090909090909,597,0,71,DL_EnglishEdition_Remastered_Guitar,-1,-1
52,100,0.6181818181818182,713,0,71,DL_EnglishEdition_Remastered_Guitar,-1,-1
54,100,0.1,210,1,72,DL_EnglishEdition_Remastered_Guitar,-1,-1
47,100,0.2818181818181818,267,0,72,DL_EnglishEdition_Remastered_Guitar,-1,-1
59,100,0.17727272727272728,457,0,72,DL_EnglishEdition_Remastered_Guitar,-1,-1
59,100,0.2,509,0,72,DL_EnglishEdition_Remastered_Guitar,-1,-1
54,100,0.4590909090909091,612,0,72,DL_EnglishEdition_Remastered_Guitar,-1,-1
54,100,0.1590909090909091,716,0,72,DL_EnglishEdition_Remastered_Guitar,-1,-1
49,100,0.2636363636363636,3,1,73,DL_EnglishEdition_Remastered_Guitar,-1,-1
49,100,0.2,92,0,73,DL_EnglishEdition_Remastered_Guitar,-1,-1
54,100,0.2818181818181818,166,0,73,DL_EnglishEdition_Remastered_Guitar,-1,-1
56,100,0.6409090909090909,242,0,73,DL_EnglishEdition_Remastered_Guitar,-1,-1
56,100,0.7818181818181819,506,1,73,DL_EnglishEdition_Remastered_Guitar,-1,-1
52,100,0.1590909090909091,770,1,73,DL_EnglishEdition_Remastered_Guitar,-1,-1
59,100,0.11818181818181818,30,1,74,DL_EnglishEdition_Remastered_Guitar,-1,-1
52,100,0.3409090909090909,153,0,74,DL_EnglishEdition_Remastered_Guitar,-1,-1
52,100,0.1,233,0,74,DL_EnglishEdition_Remastered_Guitar,-1,-1
59,100,0.12272727272727273,255,0,74,DL_EnglishEdition_Remastered_Guitar,-1,-1
52,100,0.2,303,0,74,DL_EnglishEdition_Remastered_Guitar,-1,-1
47,100,0.16363636363636364,729,1,74,DL_EnglishEdition_Remastered_Guitar,-1,-1
54,100,0.2590909090909091,783,0,74,DL_EnglishEdition_Remastered_Guitar,-1,-1
54,100,0.17727272727272728,876,0,74,DL_EnglishEdition_Remastered_Guitar,-1,-1
54,100,0.5227272727272727,56,1,75,DL_EnglishEdition_Remastered_Guitar,-1,-1
54,100,0.3,202,0,75,DL_EnglishEdition_Remastered_Guitar,-1,-1
54,100,0.18181818181818182,289,0,75,DL_EnglishEdition_Remastered_Guitar,-1,-1
54,100,0.2772727272727273,404,0,75,DL_EnglishEdition_Remastered_Guitar,-1,-1
49,100,0.12272727272727273,540,0,75,DL_EnglishEdition_Remastered_Guitar,-1,-1
54,100,0.7181818181818181,572,0,75,DL_EnglishEdition_Remastered_Guitar,-1,-1
49,100,0.16363636363636364,773,1,75,DL_EnglishEdition_Remastered_Guitar,-1,-1
54,100,0.4409090909090909,849,0,75,DL_EnglishEdition_Remastered_Guitar,-1,-1
54,100,0.5,92,1,76,DL_EnglishEdition_Remastered_Guitar,-1,-1
59,100,0.4590909090909091,242,0,76,DL_EnglishEdition_Remastered_Guitar,-1,-1
54,100,0.2409090909090909,365,0,76,DL_EnglishEdition_Remastered_Guitar,-1,-1
54,100,0.5181818181818182,436,0,76,DL_EnglishEdition_Remastered_Guitar,-1,-1
59,100,0.4818181818181818,629,0,76,DL_EnglishEdition_Remastered_Guitar,-1,-1
54,100,0.22272727272727272,739,0,76,DL_EnglishEdition_Remastered_Guitar,-1,-1
59,100,0.3181818181818182,17,1,77,DL_EnglishEdition_Remastered_Guitar,-1,-1
59,100,0.13636363636363635,216,1,77,DL_EnglishEdition_Remastered_Guitar,-1,-1
54,100,0.12272727272727273,255,0,77,DL_EnglishEdition_Remastered_Guitar,-1,-1
54,100,0.11818181818181818,303,0,77,DL_EnglishEdition_Remastered_Guitar,-1,-1
52,100,0.6,383,0,77,DL_EnglishEdition_Remastered_Guitar,-1,-1
59,100,0.12272727272727273,540,0,77,DL_EnglishEdition_Remastered_Guitar,-1,-1
40,100,0.1590909090909091,593,0,77,DL_EnglishEdition_Remastered_Guitar,-1,-1
52,100,0.9181818181818182,637,0,77,DL_EnglishEdition_Remastered_Guitar,-1,-1
54,100,0.21818181818181817,150,1,78,DL_EnglishEdition_Remastered_Guitar,-1,-1
59,100,0.4,250,0,78,DL_EnglishEdition_Remastered_Guitar,-1,-1
54,100,0.2818181818181818,475,1,78,DL_EnglishEdition_Remastered_Guitar,-1,-1
59,100,0.8363636363636363,612,0,78,DL_EnglishEdition_Remastered_Guitar,-1,-1
54,100,0.18181818181818182,817,1,78,DL_EnglishEdition_Remastered_Guitar,-1,-1
54,100,0.11818181818181818,119,1,79,DL_EnglishEdition_Remastered_Guitar,-1,-1
54,100,0.2772727272727273,193,0,79,DL_EnglishEdition_Remastered_Guitar,-1,-1
59,100,0.2409090909090909,263,0,79,DL_EnglishEdition_Remastered_Guitar,-1,-1
54,100,0.1409090909090909,320,0,79,DL_EnglishEdition_Remastered_Guitar,-1,-1
54,100,0.3409090909090909,365,0,79,DL_EnglishEdition_Remastered_Guitar,-1,-1
59,100,0.17727272727272728,449,0,79,DL_EnglishEdition_Remastered_Guitar,-1,-1
59,100,0.4636363636363636,729,1,79,DL_EnglishEdition_Remastered_Guitar,-1,-1
52,100,0.6409090909090909,79,1,80,DL_EnglishEdition_Remastered_Guitar,-1,-1
40,100,0.11818181818181818,260,0,80,DL_EnglishEdition_Remastered_Guitar,-1,-1
52,100,0.2818181818181818,409,0,80,DL_EnglishEdition_Remastered_Guitar,-1,-1
54,100,0.3181818181818182,747,1,80,DL_EnglishEdition_Remastered_Guitar,-1,-1
54,100,0.11818181818181818,823,0,80,DL_EnglishEdition_Remastered_Guitar,-1,-1
54,100,0.5227272727272727,3,1,81,DL_EnglishEdition_Remastered_Guitar,-1,-1
59,100,0.2409090909090909,163,0,81,DL_EnglishEdition_Remastered_Guitar,-1,-1
54,100,0.6,396,1,81,DL_EnglishEdition_Remastered_Guitar,-1,-1
59,100,0.12272727272727273,629,1,81,DL_EnglishEdition_Remastered_Guitar,-1,-1
59,100,0.4,700,0,81,DL_EnglishEdition_Remastered_Guitar,-1,-1
59,100,0.21818181818181817,853,0,81,DL_EnglishEdition_Remastered_Guitar,-1,-1
54,100,0.3,30,1,82,DL_EnglishEdition_Remastered_Guitar,-1,-1
52,100,0.4409090909090909,163,0,82,DL_EnglishEdition_Remastered_Guitar,-1,-1
59,100,0.35909090909090907,276,0,82,DL_EnglishEdition_Remastered_Guitar,-1,-1
52,100,0.4818181818181818,430,0,82,DL_EnglishEdition_Remastered_Guitar,-1,-1
52,100,0.11818181818181818,660,1,82,DL_EnglishEdition_Remastered_Guitar,-1,-1
52,100,0.1590909090909091,713,0,82,DL_EnglishEdition_Remastered_Guitar,-1,-1
54,100,0.17727272727272728,832,0,82,DL_EnglishEdition_Remastered_Guitar,-1,-1
54,100,0.16363636363636364,3,1,83,DL_EnglishEdition_Remastered_Guitar,-1,-1
54,100,0.3409090909090909,123,0,83,DL_EnglishEdition_Remastered_Guitar,-1,-1
54,100,0.18181818181818182,312,0,83,DL_EnglishEdition_Remastered_Guitar,-1,-1
54,100,0.41818181818181815,426,0,83,DL_EnglishEdition_Remastered_Guitar,-1,-1
54,100,0.4409090909090909,713,1,83,DL_EnglishEdition_Remastered_Guitar,-1,-1
54,100,0.2818181818181818,110,1,84,DL_EnglishEdition_Remastered_Guitar,-1,-1
54,100,0.1590909090909091,347,1,84,DL_EnglishEdition_Remastered_Guitar,-1,-1
59,100,0.4818181818181818,386,0,84,DL_EnglishEdition_Remastered_Guitar,-1,-1
54,100,0.8227272727272728,496,0,84,DL_EnglishEdition_Remastered_Guitar,-1,-1
54,100,0.17727272727272728,470,1,85,DL_EnglishEdition_Remastered_Guitar,-1,-1
47,100,1.3227272727272728,553,0,85,DL_EnglishEdition_Remastered_Guitar,-1,-1
47,100,1.7772727272727273,83,1,86,DL_EnglishEdition_Remastered_Guitar,-1,-1
47,100,2.463636363636364,487,1,86,DL_EnglishEdition_Remastered_Guitar,-1,-1
47,100,0.1590909090909091,172,1,87,DL_EnglishEdition_Remastered_Guitar,-1,-1
47,100,0.23636363636363636,216,0,87,DL_EnglishEdition_Remastered_Guitar,-1,-1
47,100,0.1409090909090909,466,1,87,DL_EnglishEdition_Remastered_Guitar,-1,-1
47,100,0.2,110,1,88,DL_EnglishEdition_Remastered_Guitar,-1,-1
47,100,0.1,237,0,88,DL_EnglishEdition_Remastered_Guitar,-1,-1
47,100,0.11818181818181818,273,0,88,DL_EnglishEdition_Remastered_Guitar,-1,-1
47,100,0.1409090909090909,360,0,88,DL_EnglishEdition_Remastered_Guitar,-1,-1
47,100,0.2590909090909091,436,0,88,DL_EnglishEdition_Remastered_Guitar,-1,-1
47,100,0.2818181818181818,519,0,88,DL_EnglishEdition_Remastered_Guitar,-1,-1
47,100,0.33636363636363636,633,0,88,DL_EnglishEdition_Remastered_Guitar,-1,-1
61,100,0.38181818181818183,0,1,34,DL_Nostalgic_Guitar,-1,-1
58,100,2.459090909090909,83,0,34,DL_Nostalgic_Guitar,-1,-1
58,100,0.2590909090909091,646,1,34,DL_Nostalgic_Guitar,-1,-1
58,100,1.3,708,0,34,DL_Nostalgic_Guitar,-1,-1
61,100,0.2409090909090909,114,1,35,DL_Nostalgic_Guitar,-1,-1
60,100,0.23636363636363636,260,0,35,DL_Nostalgic_Guitar,-1,-1
63,100,1.5772727272727274,413,0,35,DL_Nostalgic_Guitar,-1,-1
56,100,0.2772727272727273,765,1,35,DL_Nostalgic_Guitar,-1,-1
63,100,1.1227272727272728,826,0,35,DL_Nostalgic_Guitar,-1,-1
51,100,0.21818181818181817,193,1,36,DL_Nostalgic_Guitar,-1,-1
63,100,0.8409090909090909,241,0,36,DL_Nostalgic_Guitar,-1,-1
51,100,0.1,435,0,36,DL_Nostalgic_Guitar,-1,-1
63,100,0.6,471,0,36,DL_Nostalgic_Guitar,-1,-1
63,100,0.3,611,0,36,DL_Nostalgic_Guitar,-1,-1
63,100,0.6590909090909091,681,0,36,DL_Nostalgic_Guitar,-1,-1
63,100,1.7818181818181817,871,0,36,DL_Nostalgic_Guitar,-1,-1
58,100,0.5409090909090909,386,1,37,DL_Nostalgic_Guitar,-1,-1
58,100,0.2409090909090909,558,0,37,DL_Nostalgic_Guitar,-1,-1
63,100,0.18181818181818182,638,0,37,DL_Nostalgic_Guitar,-1,-1
58,100,1.6590909090909092,770,0,37,DL_Nostalgic_Guitar,-1,-1
58,100,0.3,796,1,38,DL_Nostalgic_Guitar,-1,-1
58,100,2.118181818181818,875,0,38,DL_Nostalgic_Guitar,-1,-1
63,100,0.9,619,1,39,DL_Nostalgic_Guitar,-1,-1
63,100,0.37727272727272726,823,1,39,DL_Nostalgic_Guitar,-1,-1
63,100,3.4,43,1,40,DL_Nostalgic_Guitar,-1,-1
63,100,1.1227272727272728,839,1,40,DL_Nostalgic_Guitar,-1,-1
51,100,0.5590909090909091,206,1,41,DL_Nostalgic_Guitar,-1,-1
51,100,0.1409090909090909,351,0,41,DL_Nostalgic_Guitar,-1,-1
63,100,0.2772727272727273,383,0,41,DL_Nostalgic_Guitar,-1,-1
63,100,0.12272727272727273,488,0,41,DL_Nostalgic_Guitar,-1,-1
63,100,0.5772727272727273,668,0,41,DL_Nostalgic_Guitar,-1,-1
51,100,0.2409090909090909,796,0,41,DL_Nostalgic_Guitar,-1,-1
63,100,1.040909090909091,848,0,41,DL_Nostalgic_Guitar,-1,-1
58,100,1.1181818181818182,198,1,42,DL_Nostalgic_Guitar,-1,-1
56,100,1.559090909090909,448,1,42,DL_Nostalgic_Guitar,-1,-1
56,100,1.2363636363636363,810,1,42,DL_Nostalgic_Guitar,-1,-1
58,100,2.922727272727273,201,1,43,DL_Nostalgic_Guitar,-1,-1
56,100,0.759090909090909,848,1,43,DL_Nostalgic_Guitar,-1,-1
53,100,0.35909090909090907,141,1,44,DL_Nostalgic_Guitar,-1,-1
56,100,0.5409090909090909,220,0,44,DL_Nostalgic_Guitar,-1,-1
53,100,0.22272727272727272,356,0,44,DL_Nostalgic_Guitar,-1,-1
56,100,0.7818181818181819,431,0,44,DL_Nostalgic_Guitar,-1,-1
58,100,0.1409090909090909,606,0,44,DL_Nostalgic_Guitar,-1,-1
51,100,0.2590909090909091,804,1,44,DL_Nostalgic_Guitar,-1,-1
63,100,0.3,26,1,45,DL_Nostalgic_Guitar,-1,-1
58,100,0.8818181818181818,131,0,45,DL_Nostalgic_Guitar,-1,-1
56,100,0.4590909090909091,383,1,45,DL_Nostalgic_Guitar,-1,-1
56,100,3.3227272727272728,606,1,45,DL_Nostalgic_Guitar,-1,-1
51,100,1.4772727272727273,458,1,46,DL_Nostalgic_Guitar,-1,-1
56,100,0.7,783,1,46,DL_Nostalgic_Guitar,-1,-1
53,100,0.3409090909090909,66,1,47,DL_Nostalgic_Guitar,-1,-1
56,100,0.38181818181818183,144,0,47,DL_Nostalgic_Guitar,-1,-1
56,100,1.1409090909090909,289,0,47,DL_Nostalgic_Guitar,-1,-1
58,100,0.9818181818181818,541,1,47,DL_Nostalgic_Guitar,-1,-1
58,100,0.4409090909090909,783,1,47,DL_Nostalgic_Guitar,-1,-1
58,100,0.17727272727272728,118,1,48,DL_Nostalgic_Guitar,-1,-1
51,100,0.2,254,0,48,DL_Nostalgic_Guitar,-1,-1
53,100,0.23636363636363636,391,0,48,DL_Nostalgic_Guitar,-1,-1
53,100,0.4590909090909091,448,0,48,DL_Nostalgic_Guitar,-1,-1
56,100,0.3181818181818182,550,0,48,DL_Nostalgic_Guitar,-1,-1
53,100,0.2590909090909091,628,0,48,DL_Nostalgic_Guitar,-1,-1
56,100,0.5409090909090909,703,0,48,DL_Nostalgic_Guitar,-1,-1
56,100,0.1590909090909091,826,0,48,DL_Nostalgic_Guitar,-1,-1
58,100,0.35909090909090907,871,0,48,DL_Nostalgic_Guitar,-1,-1
44,100,0.21818181818181817,171,1,49,DL_Nostalgic_Guitar,-1,-1
56,100,0.2,351,0,49,DL_Nostalgic_Guitar,-1,-1
51,100,1.1590909090909092,474,0,49,DL_Nostalgic_Guitar,-1,-1
61,100,0.5,756,1,49,DL_Nostalgic_Guitar,-1,-1
56,100,0.9818181818181818,166,1,50,DL_Nostalgic_Guitar,-1,-1
58,100,0.1590909090909091,405,1,50,DL_Nostalgic_Guitar,-1,-1
51,100,0.6227272727272727,584,0,50,DL_Nostalgic_Guitar,-1,-1
58,100,0.3,729,0,50,DL_Nostalgic_Guitar,-1,-1
58,100,0.38181818181818183,4,1,51,DL_Nostalgic_Guitar,-1,-1
51,100,0.16363636363636364,91,0,51,DL_Nostalgic_Guitar,-1,-1
63,100,0.12272727272727273,136,0,51,DL_Nostalgic_Guitar,-1,-1
51,100,0.37727272727272726,163,0,51,DL_Nostalgic_Guitar,-1,-1
56,100,1.059090909090909,405,1,51,DL_Nostalgic_Guitar,-1,-1
49,100,0.2590909090909091,646,1,51,DL_Nostalgic_Guitar,-1,-1
61,100,0.4409090909090909,703,0,51,DL_Nostalgic_Guitar,-1,-1
60,100,1.1,8,1,52,DL_Nostalgic_Guitar,-1,-1
63,100,0.1409090909090909,263,1,52,DL_Nostalgic_Guitar,-1,-1
63,100,1.0772727272727274,413,0,52,DL_Nostalgic_Guitar,-1,-1
51,100,0.8772727272727273,655,1,52,DL_Nostalgic_Guitar,-1,-1
51,100,0.38181818181818183,4,1,53,DL_Nostalgic_Guitar,-1,-1
56,100,0.3409090909090909,91,0,53,DL_Nostalgic_Guitar,-1,-1
56,100,0.38181818181818183,179,0,53,DL_Nostalgic_Guitar,-1,-1
63,100,1.059090909090909,263,0,53,DL_Nostalgic_Guitar,-1,-1
51,100,0.35909090909090907,496,1,53,DL_Nostalgic_Guitar,-1,-1
58,100,0.7818181818181819,638,0,53,DL_Nostalgic_Guitar,-1,-1
63,100,0.2636363636363636,818,0,53,DL_Nostalgic_Guitar,-1,-1
51,100,0.21818181818181817,8,1,54,DL_Nostalgic_Guitar,-1,-1
63,100,0.11818181818181818,61,0,54,DL_Nostalgic_Guitar,-1,-1
51,100,0.32272727272727275,101,0,54,DL_Nostalgic_Guitar,-1,-1
51,100,0.7,179,0,54,DL_Nostalgic_Guitar,-1,-1
56,100,0.2590909090909091,338,0,54,DL_Nostalgic_Guitar,-1,-1
63,100,0.740909090909091,563,1,54,DL_Nostalgic_Guitar,-1,-1
51,100,0.2590909090909091,801,1,54,DL_Nostalgic_Guitar,-1,-1
55,100,0.13636363636363635,150,1,55,DL_Nostalgic_Guitar,-1,-1
63,100,0.1,703,1,55,DL_Nostalgic_Guitar,-1,-1
56,100,0.36363636363636365,751,0,55,DL_Nostalgic_Guitar,-1,-1
56,100,0.9590909090909091,31,1,56,DL_Nostalgic_Guitar,-1,-1
56,100,0.12272727272727273,268,1,56,DL_Nostalgic_Guitar,-1,-1
56,100,0.7,338,0,56,DL_Nostalgic_Guitar,-1,-1
56,100,0.8590909090909091,501,0,56,DL_Nostalgic_Guitar,-1,-1
56,100,0.12272727272727273,694,0,56,DL_Nostalgic_Guitar,-1,-1
56,100,0.2590909090909091,761,0,56,DL_Nostalgic_Guitar,-1,-1
56,100,1.4,26,1,57,DL_Nostalgic_Guitar,-1,-1
56,100,0.8409090909090909,338,1,57,DL_Nostalgic_Guitar,-1,-1
51,100,0.8590909090909091,804,1,57,DL_Nostalgic_Guitar,-1,-1
58,100,0.2590909090909091,118,1,58,DL_Nostalgic_Guitar,-1,-1
58,100,0.7636363636363637,179,0,58,DL_Nostalgic_Guitar,-1,-1
51,100,0.4,361,0,58,DL_Nostalgic_Guitar,-1,-1
58,100,0.1590909090909091,448,0,58,DL_Nostalgic_Guitar,-1,-1
51,100,0.7227272727272728,518,0,58,DL_Nostalgic_Guitar,-1,-1
56,100,0.9,681,0,58,DL_Nostalgic_Guitar,-1,-1
56,100,0.9409090909090909,26,1,59,DL_Nostalgic_Guitar,-1,-1
58,100,0.2409090909090909,298,1,59,DL_Nostalgic_Guitar,-1,-1
58,100,0.2409090909090909,378,0,59,DL_Nostalgic_Guitar,-1,-1
55,100,0.21818181818181817,448,0,59,DL_Nostalgic_Guitar,-1,-1
58,100,1.4,518,0,59,DL_Nostalgic_Guitar,-1,-1
58,100,0.2,853,1,59,DL_Nostalgic_Guitar,-1,-1
60,100,0.7227272727272728,48,1,60,DL_Nostalgic_Guitar,-1,-1
56,100,0.5590909090909091,241,0,60,DL_Nostalgic_Guitar,-1,-1
60,100,0.11818181818181818,405,0,60,DL_Nostalgic_Guitar,-1,-1
56,100,0.23636363636363636,545,0,60,DL_Nostalgic_Guitar,-1,-1
56,100,0.3181818181818182,616,0,60,DL_Nostalgic_Guitar,-1,-1
51,100,0.2,686,0,60,DL_Nostalgic_Guitar,-1,-1
56,100,0.6,848,0,60,DL_Nostalgic_Guitar,-1,-1
56,100,0.6818181818181818,289,1,61,DL_Nostalgic_Guitar,-1,-1
56,100,0.12272727272727273,453,0,61,DL_Nostalgic_Guitar,-1,-1
56,100,0.3,700,1,61,DL_Nostalgic_Guitar,-1,-1
56,100,0.1,43,1,62,DL_Nostalgic_Guitar,-1,-1
56,100,0.5818181818181818,91,0,62,DL_Nostalgic_Guitar,-1,-1
58,100,0.2,228,0,62,DL_Nostalgic_Guitar,-1,-1
51,100,0.17727272727272728,348,0,62,DL_Nostalgic_Guitar,-1,-1
58,100,0.1,483,0,62,DL_Nostalgic_Guitar,-1,-1
58,100,1.559090909090909,518,0,62,DL_Nostalgic_Guitar,-1,-1
51,100,2.959090909090909,871,1,62,DL_Nostalgic_Guitar,-1,-1
51,100,0.9409090909090909,748,1,63,DL_Nostalgic_Guitar,-1,-1
51,100,0.6818181818181818,123,1,64,DL_Nostalgic_Guitar,-1,-1
51,100,0.1,276,0,64,DL_Nostalgic_Guitar,-1,-1
51,100,1.5818181818181818,330,0,64,DL_Nostalgic_Guitar,-1,-1
63,100,0.35909090909090907,677,1,64,DL_Nostalgic_Guitar,-1,-1
51,100,0.18181818181818182,770,0,64,DL_Nostalgic_Guitar,-1,-1
50,100,1.5636363636363637,221,1,0,_DL_Japanese_Folk_Pop_Acoustic_Folk_Guitar_1,-1,-1
64,100,0.9363636363636364,565,1,0,_DL_Japanese_Folk_Pop_Acoustic_Folk_Guitar_1,-1,-1
40,100,0.4727272727272727,854,1,0,_DL_Japanese_Folk_Pop_Acoustic_Folk_Guitar_1,-1,-1
52,100,0.1318181818181818,77,1,1,_DL_Japanese_Folk_Pop_Acoustic_Folk_Guitar_1,-1,-1
64,100,0.15454545454545454,171,0,1,_DL_Japanese_Folk_Pop_Acoustic_Folk_Guitar_1,-1,-1
59,100,0.10909090909090909,279,0,1,_DL_Japanese_Folk_Pop_Acoustic_Folk_Guitar_1,-1,-1
40,100,0.13636363636363635,377,0,1,_DL_Japanese_Folk_Pop_Acoustic_Folk_Guitar_1,-1,-1
45,100,0.24545454545454545,490,0,1,_DL_Japanese_Folk_Pop_Acoustic_Folk_Guitar_1,-1,-1
45,100,0.2,559,0,1,_DL_Japanese_Folk_Pop_Acoustic_Folk_Guitar_1,-1,-1
59,100,0.8909090909090909,672,0,1,_DL_Japanese_Folk_Pop_Acoustic_Folk_Guitar_1,-1,-1
40,100,0.24545454545454545,36,1,2,_DL_Japanese_Folk_Pop_Acoustic_Folk_Guitar_1,-1,-1
57,100,0.17727272727272728,110,0,2,_DL_Japanese_Folk_Pop_Acoustic_Folk_Guitar_1,-1,-1
61,100,0.31363636363636366,247,0,2,_DL_Japanese_Folk_Pop_Acoustic_Folk_Guitar_1,-1,-1
52,100,0.33636363636363636,360,0,2,_DL_Japanese_Folk_Pop_Acoustic_Folk_Guitar_1,-1,-1
56,100,0.1318181818181818,449,0,2,_DL_Japanese_Folk_Pop_Acoustic_Folk_Guitar_1,-1,-1
57,100,0.6909090909090909,504,0,2,_DL_Japanese_Folk_Pop_Acoustic_Folk_Guitar_1,-1,-1
57,100,0.11363636363636363,660,0,2,_DL_Japanese_Folk_Pop_Acoustic_Folk_Guitar_1,-1,-1
62,100,0.6454545454545455,739,0,2,_DL_Japanese_Folk_Pop_Acoustic_Folk_Guitar_1,-1,-1
62,100,0.15454545454545454,6,1,3,_DL_Japanese_Folk_Pop_Acoustic_Folk_Guitar_1,-1,-1
57,100,0.6681818181818182,45,0,3,_DL_Japanese_Folk_Pop_Acoustic_Folk_Guitar_1,-1,-1
62,100,0.15454545454545454,351,1,3,_DL_Japanese_Folk_Pop_Acoustic_Folk_Guitar_1,-1,-1
64,100,0.6045454545454545,418,0,3,_DL_Japanese_Folk_Pop_Acoustic_Folk_Guitar_1,-1,-1
59,100,0.6045454545454545,639,1,3,_DL_Japanese_Folk_Pop_Acoustic_Folk_Guitar_1,-1,-1
50,100,2.2545454545454544,134,1,4,_DL_Japanese_Folk_Pop_Acoustic_Folk_Guitar_1,-1,-1
50,100,2.4318181818181817,684,1,4,_DL_Japanese_Folk_Pop_Acoustic_Folk_Guitar_1,-1,-1
45,100,0.35909090909090907,427,1,5,_DL_Japanese_Folk_Pop_Acoustic_Folk_Guitar_1,-1,-1
45,100,0.13636363636363635,712,1,5,_DL_Japanese_Folk_Pop_Acoustic_Folk_Guitar_1,-1,-1
45,100,0.22272727272727272,765,0,5,_DL_Japanese_Folk_Pop_Acoustic_Folk_Guitar_1,-1,-1
61,100,0.5545454545454546,686,1,6,_DL_Japanese_Folk_Pop_Acoustic_Folk_Guitar_1,-1,-1
59,100,0.18181818181818182,808,0,6,_DL_Japanese_Folk_Pop_Acoustic_Folk_Guitar_1,-1,-1
60,100,0.2,849,0,6,_DL_Japanese_Folk_Pop_Acoustic_Folk_Guitar_1,-1,-1
59,100,0.2681818181818182,12,1,7,_DL_Japanese_Folk_Pop_Acoustic_Folk_Guitar_1,-1,-1
57,100,0.2636363636363636,81,0,7,_DL_Japanese_Folk_Pop_Acoustic_Folk_Guitar_1,-1,-1
57,100,0.1318181818181818,189,0,7,_DL_Japanese_Folk_Pop_Acoustic_Folk_Guitar_1,-1,-1
56,100,0.33181818181818185,298,0,7,_DL_Japanese_Folk_Pop_Acoustic_Folk_Guitar_1,-1,-1
52,100,0.37727272727272726,459,0,7,_DL_Japanese_Folk_Pop_Acoustic_Folk_Guitar_1,-1,-1
52,100,0.10909090909090909,557,0,7,_DL_Japanese_Folk_Pop_Acoustic_Folk_Guitar_1,-1,-1
52,100,0.17727272727272728,597,0,7,_DL_Japanese_Folk_Pop_Acoustic_Folk_Guitar_1,-1,-1
40,100,0.5363636363636364,715,0,7,_DL_Japanese_Folk_Pop_Acoustic_Folk_Guitar_1,-1,-1
57,100,0.5136363636363637,848,0,7,_DL_Japanese_Folk_Pop_Acoustic_Folk_Guitar_1,-1,-1
57,100,0.5545454545454546,189,1,8,_DL_Japanese_Folk_Pop_Acoustic_Folk_Guitar_1,-1,-1
57,100,0.22272727272727272,340,0,8,_DL_Japanese_Folk_Pop_Acoustic_Folk_Guitar_1,-1,-1
47,100,0.2,453,0,8,_DL_Japanese_Folk_Pop_Acoustic_Folk_Guitar_1,-1,-1
57,100,0.37727272727272726,551,0,8,_DL_Japanese_Folk_Pop_Acoustic_Folk_Guitar_1,-1,-1
57,100,0.37727272727272726,280,1,9,_DL_Japanese_Folk_Pop_Acoustic_Folk_Guitar_1,-1,-1
50,100,0.11363636363636363,374,0,9,_DL_Japanese_Folk_Pop_Acoustic_Folk_Guitar_1,-1,-1
54,100,0.42272727272727273,486,0,9,_DL_Japanese_Folk_Pop_Acoustic_Folk_Guitar_1,-1,-1
50,100,0.24545454545454545,737,1,9,_DL_Japanese_Folk_Pop_Acoustic_Folk_Guitar_1,-1,-1
50,100,1.45,816,0,9,_DL_Japanese_Folk_Pop_Acoustic_Folk_Guitar_1,-1,-1
57,100,0.6681818181818182,280,1,10,_DL_Japanese_Folk_Pop_Acoustic_Folk_Guitar_1,-1,-1
56,100,0.4,491,1,10,_DL_Japanese_Folk_Pop_Acoustic_Folk_Guitar_1,-1,-1
56,100,0.11363636363636363,584,0,10,_DL_Japanese_Folk_Pop_Acoustic_Folk_Guitar_1,-1,-1
59,100,0.2681818181818182,697,0,10,_DL_Japanese_Folk_Pop_Acoustic_Folk_Guitar_1,-1,-1
40,100,0.24545454545454545,780,0,10,_DL_Japanese_Folk_Pop_Acoustic_Folk_Guitar_1,-1,-1
40,100,0.35454545454545455,63,1,11,_DL_Japanese_Folk_Pop_Acoustic_Folk_Guitar_1,-1,-1
50,100,0.759090909090909,204,0,11,_DL_Japanese_Folk_Pop_Acoustic_Folk_Guitar_1,-1,-1
59,100,0.13636363636363635,381,0,11,_DL_Japanese_Folk_Pop_Acoustic_Folk_Guitar_1,-1,-1
52,100,0.2909090909090909,613,1,11,_DL_Japanese_Folk_Pop_Acoustic_Folk_Guitar_1,-1,-1
52,100,0.11363636363636363,696,0,11,_DL_Japanese_Folk_Pop_Acoustic_Folk_Guitar_1,-1,-1
57,100,0.6272727272727273,749,0,11,_DL_Japanese_Folk_Pop_Acoustic_Folk_Guitar_1,-1,-1
49,100,0.6227272727272727,61,1,12,_DL_Japanese_Folk_Pop_Acoustic_Folk_Guitar_1,-1,-1
52,100,0.24545454545454545,316,1,12,_DL_Japanese_Folk_Pop_Acoustic_Folk_Guitar_1,-1,-1
52,100,0.1590909090909091,376,0,12,_DL_Japanese_Folk_Pop_Acoustic_Folk_Guitar_1,-1,-1
47,100,0.5363636363636364,532,0,12,_DL_Japanese_Folk_Pop_Acoustic_Folk_Guitar_1,-1,-1
57,100,0.8045454545454546,115,1,13,_DL_Japanese_Folk_Pop_Acoustic_Folk_Guitar_1,-1,-1
57,100,0.11363636363636363,379,1,13,_DL_Japanese_Folk_Pop_Acoustic_Folk_Guitar_1,-1,-1
64,100,0.8227272727272728,453,0,13,_DL_Japanese_Folk_Pop_Acoustic_Folk_Guitar_1,-1,-1
47,100,0.33181818181818185,733,1,13,_DL_Japanese_Folk_Pop_Acoustic_Folk_Guitar_1,-1,-1
47,100,0.40454545454545454,811,0,13,_DL_Japanese_Folk_Pop_Acoustic_Folk_Guitar_1,-1,-1
50,100,0.2681818181818182,34,1,14,_DL_Japanese_Folk_Pop_Acoustic_Folk_Guitar_1,-1,-1
59,100,0.6909090909090909,152,0,14,_DL_Japanese_Folk_Pop_Acoustic_Folk_Guitar_1,-1,-1
62,100,0.24545454545454545,491,1,14,_DL_Japanese_Folk_Pop_Acoustic_Folk_Guitar_1,-1,-1
62,100,0.7136363636363636,723,1,14,_DL_Japanese_Folk_Pop_Acoustic_Folk_Guitar_1,-1,-1
57,100,0.17727272727272728,0,1,15,_DL_Japanese_Folk_Pop_Acoustic_Folk_Guitar_1,-1,-1
57,100,0.31363636363636366,97,0,15,_DL_Japanese_Folk_Pop_Acoustic_Folk_Guitar_1,-1,-1
45,100,0.35909090909090907,166,0,15,_DL_Japanese_Folk_Pop_Acoustic_Folk_Guitar_1,-1,-1
57,100,0.15454545454545454,245,0,15,_DL_Japanese_Folk_Pop_Acoustic_Folk_Guitar_1,-1,-1
57,100,0.2,290,0,15,_DL_Japanese_Folk_Pop_Acoustic_Folk_Guitar_1,-1,-1
49,100,0.5363636363636364,343,0,15,_DL_Japanese_Folk_Pop_Acoustic_Folk_Guitar_1,-1,-1
57,100,0.37727272727272726,775,1,15,_DL_Japanese_Folk_Pop_Acoustic_Folk_Guitar_1,-1,-1
57,100,0.15454545454545454,878,0,15,_DL_Japanese_Folk_Pop_Acoustic_Folk_Guitar_1,-1,-1
64,100,0.2909090909090909,381,1,16,_DL_Japanese_Folk_Pop_Acoustic_Folk_Guitar_1,-1,-1
59,100,0.17727272727272728,559,0,16,_DL_Japanese_Folk_Pop_Acoustic_Folk_Guitar_1,-1,-1
56,100,0.2,598,0,16,_DL_Japanese_Folk_Pop_Acoustic_Folk_Guitar_1,-1,-1
59,100,0.2,677,0,16,_DL_Japanese_Folk_Pop_Acoustic_Folk_Guitar_1,-1,-1
57,100,0.22272727272727272,790,0,16,_DL_Japanese_Folk_Pop_Acoustic_Folk_Guitar_1,-1,-1
59,100,0.11363636363636363,873,0,16,_DL_Japanese_Folk_Pop_Acoustic_Folk_Guitar_1,-1,-1
61,100,0.10909090909090909,116,1,17,_DL_Japanese_Folk_Pop_Acoustic_Folk_Guitar_1,-1,-1
61,100,0.5590909090909091,169,0,17,_DL_Japanese_Folk_Pop_Acoustic_Folk_Guitar_1,-1,-1
61,100,0.5136363636363637,298,0,17,_DL_Japanese_Folk_Pop_Acoustic_Folk_Guitar_1,-1,-1
57,100,0.22272727272727272,494,0,17,_DL_Japanese_Folk_Pop_Acoustic_Folk_Guitar_1,-1,-1
61,100,0.9818181818181818,700,1,17,_DL_Japanese_Folk_Pop_Acoustic_Folk_Guitar_1,-1,-1
57,100,0.24545454545454545,41,1,18,_DL_Japanese_Folk_Pop_Acoustic_Folk_Guitar_1,-1,-1
61,100,0.35909090909090907,105,0,18,_DL_Japanese_Folk_Pop_Acoustic_Folk_Guitar_1,-1,-1
50,100,0.33636363636363636,385,1,18,_DL_Japanese_Folk_Pop_Acoustic_Folk_Guitar_1,-1,-1
62,100,0.15454545454545454,508,0,18,_DL_Japanese_Folk_Pop_Acoustic_Folk_Guitar_1,-1,-1
62,100,0.11363636363636363,635,0,18,_DL_Japanese_Folk_Pop_Acoustic_Folk_Guitar_1,-1,-1
57,100,0.31363636363636366,728,0,18,_DL_Japanese_Folk_Pop_Acoustic_Folk_Guitar_1,-1,-1
56,100,0.2681818181818182,836,0,18,_DL_Japanese_Folk_Pop_Acoustic_Folk_Guitar_1,-1,-1
59,100,0.24545454545454545,83,1,19,_DL_Japanese_Folk_Pop_Acoustic_Folk_Guitar_1,-1,-1
56,100,0.45,255,0,19,_DL_Japanese_Folk_Pop_Acoustic_Folk_Guitar_1,-1,-1
57,100,0.37727272727272726,354,0,19,_DL_Japanese_Folk_Pop_Acoustic_Folk_Guitar_1,-1,-1
57,100,0.2909090909090909,643,1,19,_DL_Japanese_Folk_Pop_Acoustic_Folk_Guitar_1,-1,-1
45,100,0.2681818181818182,68,1,20,_DL_Japanese_Folk_Pop_Acoustic_Folk_Guitar_1,-1,-1
64,100,0.1318181818181818,133,0,20,_DL_Japanese_Folk_Pop_Acoustic_Folk_Guitar_1,-1,-1
45,100,0.2909090909090909,264,0,20,_DL_Japanese_Folk_Pop_Acoustic_Folk_Guitar_1,-1,-1
57,100,0.9363636363636364,539,1,20,_DL_Japanese_Folk_Pop_Acoustic_Folk_Guitar_1,-1,-1
57,100,0.5590909090909091,750,1,20,_DL_Japanese_Folk_Pop_Acoustic_Folk_Guitar_1,-1,-1
50,100,1.4272727272727272,873,0,20,_DL_Japanese_Folk_Pop_Acoustic_Folk_Guitar_1,-1,-1
57,100,0.65,308,1,21,_DL_Japanese_Folk_Pop_Acoustic_Folk_Guitar_1,-1,-1
56,100,0.4681818181818182,450,0,21,_DL_Japanese_Folk_Pop_Acoustic_Folk_Guitar_1,-1,-1
59,100,0.33636363636363636,814,1,21,_DL_Japanese_Folk_Pop_Acoustic_Folk_Guitar_1,-1,-1
59,100,0.17727272727272728,82,1,22,_DL_Japanese_Folk_Pop_Acoustic_Folk_Guitar_1,-1,-1
61,100,0.7363636363636363,332,1,22,_DL_Japanese_Folk_Pop_Acoustic_Folk_Guitar_1,-1,-1
59,100,0.2909090909090909,567,1,22,_DL_Japanese_Folk_Pop_Acoustic_Folk_Guitar_1,-1,-1
57,100,0.2681818181818182,636,0,22,_DL_Japanese_Folk_Pop_Acoustic_Folk_Guitar_1,-1,-1
64,100,0.2681818181818182,783,0,22,_DL_Japanese_Folk_Pop_Acoustic_Folk_Guitar_1,-1,-1
64,100,0.22272727272727272,848,0,22,_DL_Japanese_Folk_Pop_Acoustic_Folk_Guitar_1,-1,-1
57,100,0.31363636363636366,174,1,23,_DL_Japanese_Folk_Pop_Acoustic_Folk_Guitar_1,-1,-1
57,100,0.17727272727272728,326,0,23,_DL_Japanese_Folk_Pop_Acoustic_Folk_Guitar_1,-1,-1
50,100,0.13636363636363635,423,0,23,_DL_Japanese_Folk_Pop_Acoustic_Folk_Guitar_1,-1,-1
50,100,0.2681818181818182,467,0,23,_DL_Japanese_Folk_Pop_Acoustic_Folk_Guitar_1,-1,-1
57,100,0.2863636363636364,739,1,23,_DL_Japanese_Folk_Pop_Acoustic_Folk_Guitar_1,-1,-1
57,100,0.35454545454545455,831,0,23,_DL_Japanese_Folk_Pop_Acoustic_Folk_Guitar_1,-1,-1
59,100,0.1590909090909091,261,1,24,_DL_Japanese_Folk_Pop_Acoustic_Folk_Guitar_1,-1,-1
40,100,0.17727272727272728,344,0,24,_DL_Japanese_Folk_Pop_Acoustic_Folk_Guitar_1,-1,-1
52,100,0.11363636363636363,384,0,24,_DL_Japanese_Folk_Pop_Acoustic_Folk_Guitar_1,-1,-1
57,100,0.15454545454545454,550,0,24,_DL_Japanese_Folk_Pop_Acoustic_Folk_Guitar_1,-1,-1
57,100,0.18181818181818182,687,0,24,_DL_Japanese_Folk_Pop_Acoustic_Folk_Guitar_1,-1,-1
57,100,0.15454545454545454,776,0,24,_DL_Japanese_Folk_Pop_Acoustic_Folk_Guitar_1,-1,-1
57,100,0.22272727272727272,815,0,24,_DL_Japanese_Folk_Pop_Acoustic_Folk_Guitar_1,-1,-1
57,100,0.4681818181818182,0,1,25,_DL_Japanese_Folk_Pop_Acoustic_Folk_Guitar_1,-1,-1
57,100,0.31363636363636366,113,0,25,_DL_Japanese_Folk_Pop_Acoustic_Folk_Guitar_1,-1,-1
57,100,0.2,289,0,25,_DL_Japanese_Folk_Pop_Acoustic_Folk_Guitar_1,-1,-1
64,100,0.6045454545454545,412,0,25,_DL_Japanese_Folk_Pop_Acoustic_Folk_Guitar_1,-1,-1
52,100,0.22272727272727272,677,1,25,_DL_Japanese_Folk_Pop_Acoustic_Folk_Guitar_1,-1,-1
52,100,0.13636363636363635,760,0,25,_DL_Japanese_Folk_Pop_Acoustic_Folk_Guitar_1,-1,-1
52,100,0.2,820,0,25,_DL_Japanese_Folk_Pop_Acoustic_Folk_Guitar_1,-1,-1
62,100,0.5772727272727273,13,1,26,_DL_Japanese_Folk_Pop_Acoustic_Folk_Guitar_1,-1,-1
62,100,0.65,215,1,26,_DL_Japanese_Folk_Pop_Acoustic_Folk_Guitar_1,-1,-1
64,100,0.31363636363636366,361,0,26,_DL_Japanese_Folk_Pop_Acoustic_Folk_Guitar_1,-1,-1
57,100,0.33636363636363636,436,0,26,_DL_Japanese_Folk_Pop_Acoustic_Folk_Guitar_1,-1,-1
64,100,0.13636363636363635,533,0,26,_DL_Japanese_Folk_Pop_Acoustic_Folk_Guitar_1,-1,-1
40,100,0.22272727272727272,814,1,26,_DL_Japanese_Folk_Pop_Acoustic_Folk_Guitar_1,-1,-1
52,100,0.18181818181818182,862,0,26,_DL_Japanese_Folk_Pop_Acoustic_Folk_Guitar_1,-1,-1
59,100,0.6045454545454545,110,1,27,_DL_Japanese_Folk_Pop_Acoustic_Folk_Guitar_1,-1,-1
56,100,0.2,322,1,27,_DL_Japanese_Folk_Pop_Acoustic_Folk_Guitar_1,-1,-1
49,100,0.11363636363636363,429,0,27,_DL_Japanese_Folk_Pop_Acoustic_Folk_Guitar_1,-1,-1
64,100,0.6681818181818182,464,0,27,_DL_Japanese_Folk_Pop_Acoustic_Folk_Guitar_1,-1,-1
59,100,0.2681818181818182,690,1,27,_DL_Japanese_Folk_Pop_Acoustic_Folk_Guitar_1,-1,-1
61,100,0.22272727272727272,11,1,28,_DL_Japanese_Folk_Pop_Acoustic_Folk_Guitar_1,-1,-1
61,100,0.6227272727272727,65,0,28,_DL_Japanese_Folk_Pop_Acoustic_Folk_Guitar_1,-1,-1
57,100,0.2,213,0,28,_DL_Japanese_Folk_Pop_Acoustic_Folk_Guitar_1,-1,-1
54,100,0.2,261,0,28,_DL_Japanese_Folk_Pop_Acoustic_Folk_Guitar_1,-1,-1
57,100,0.6272727272727273,370,0,28,_DL_Japanese_Folk_Pop_Acoustic_Folk_Guitar_1,-1,-1
50,100,0.6727272727272727,532,0,28,_DL_Japanese_Folk_Pop_Acoustic_Folk_Guitar_1,-1,-1
57,100,0.22272727272727272,777,1,28,_DL_Japanese_Folk_Pop_Acoustic_Folk_Guitar_1,-1,-1
57,100,0.10909090909090909,852,0,28,_DL_Japanese_Folk_Pop_Acoustic_Folk_Guitar_1,-1,-1
64,100,0.2909090909090909,0,1,29,_DL_Japanese_Folk_Pop_Acoustic_Folk_Guitar_1,-1,-1
57,100,0.2636363636363636,134,0,29,_DL_Japanese_Folk_Pop_Acoustic_Folk_Guitar_1,-1,-1
40,100,0.15454545454545454,271,0,29,_DL_Japanese_Folk_Pop_Acoustic_Folk_Guitar_1,-1,-1
40,100,0.42727272727272725,309,0,29,_DL_Japanese_Folk_Pop_Acoustic_Folk_Guitar_1,-1,-1
64,100,0.18181818181818182,422,0,29,_DL_Japanese_Folk_Pop_Acoustic_Folk_Guitar_1,-1,-1
59,100,0.13636363636363635,693,1,29,_DL_Japanese_Folk_Pop_Acoustic_Folk_Guitar_1,-1,-1
45,100,0.3090909090909091,797,0,29,_DL_Japanese_Folk_Pop_Acoustic_Folk_Guitar_1,-1,-1
57,100,0.10909090909090909,14,1,30,_DL_Japanese_Folk_Pop_Acoustic_Folk_Guitar_1,-1,-1
61,100,1.2045454545454546,103,0,30,_DL_Japanese_Folk_Pop_Acoustic_Folk_Guitar_1,-1,-1
45,100,0.2681818181818182,470,1,30,_DL_Japanese_Folk_Pop_Acoustic_Folk_Guitar_1,-1,-1
45,100,0.5590909090909091,701,1,30,_DL_Japanese_Folk_Pop_Acoustic_Folk_Guitar_1,-1,-1
52,100,0.15454545454545454,849,0,30,_DL_Japanese_Folk_Pop_Acoustic_Folk_Guitar_1,-1,-1
50,100,0.5818181818181818,145,1,31,_DL_Japanese_Folk_Pop_Acoustic_Folk_Guitar_1,-1,-1
61,100,0.18181818181818182,312,0,31,_DL_Japanese_Folk_Pop_Acoustic_Folk_Guitar_1,-1,-1
61,100,0.20454545454545456,361,0,31,_DL_Japanese_Folk_Pop_Acoustic_Folk_Guitar_1,-1,-1
64,100,0.17727272727272728,515,0,31,_DL_Japanese_Folk_Pop_Acoustic_Folk_Guitar_1,-1,-1
56,100,0.13636363636363635,701,0,31,_DL_Japanese_Folk_Pop_Acoustic_Folk_Guitar_1,-1,-1
49,100,0.2636363636363636,849,0,31,_DL_Japanese_Folk_Pop_Acoustic_Folk_Guitar_1,-1,-1
59,100,0.65,36,1,32,_DL_Japanese_Folk_Pop_Acoustic_Folk_Guitar_1,-1,-1
59,100,0.2,233,0,32,_DL_Japanese_Folk_Pop_Acoustic_Folk_Guitar_1,-1,-1
54,100,0.6227272727272727,385,0,32,_DL_Japanese_Folk_Pop_Acoustic_Folk_Guitar_1,-1,-1
42,100,0.15454545454545454,557,0,32,_DL_Japanese_Folk_Pop_Acoustic_Folk_Guitar_1,-1,-1
61,100,0.31363636363636366,222,1,33,_DL_Japanese_Folk_Pop_Acoustic_Folk_Guitar_1,-1,-1
61,100,0.44545454545454544,330,0,33,_DL_Japanese_Folk_Pop_Acoustic_Folk_Guitar_1,-1,-1
62,100,0.15454545454545454,738,1,33,_DL_Japanese_Folk_Pop_Acoustic_Folk_Guitar_1,-1,-1
62,100,0.33636363636363636,777,0,33,_DL_Japanese_Folk_Pop_Acoustic_Folk_Guitar_1,-1,-1
47,100,0.5363636363636364,875,0,33,_DL_Japanese_Folk_Pop_Acoustic_Folk_Guitar_1,-1,-1
62,100,0.18181818181818182,255,1,34,_DL_Japanese_Folk_Pop_Acoustic_Folk_Guitar_1,-1,-1
62,100,1.0227272727272727,462,1,34,_DL_Japanese_Folk_Pop_Acoustic_Folk_Guitar_1,-1,-1
62,100,0.4681818181818182,756,1,34,_DL_Japanese_Folk_Pop_Acoustic_Folk_Guitar_1,-1,-1
40,100,0.5590909090909091,39,1,35,_DL_Japanese_Folk_Pop_Acoustic_Folk_Guitar_1,-1,-1
40,100,0.24545454545454545,309,1,35,_DL_Japanese_Folk_Pop_Acoustic_Folk_Guitar_1,-1,-1
52,100,0.7818181818181819,363,0,35,_DL_Japanese_Folk_Pop_Acoustic_Folk_Guitar_1,-1,-1
40,100,0.65,584,1,35,_DL_Japanese_Folk_Pop_Acoustic_Folk_Guitar_1,-1,-1
40,100,0.2863636363636364,742,0,35,_DL_Japanese_Folk_Pop_Acoustic_Folk_Guitar_1,-1,-1
40,100,0.13636363636363635,819,0,35,_DL_Japanese_Folk_Pop_Acoustic_Folk_Guitar_1,-1,-1
40,100,0.40454545454545454,864,0,35,_DL_Japanese_Folk_Pop_Acoustic_Folk_Guitar_1,-1,-1
52,100,0.31363636363636366,165,1,36,_DL_Japanese_Folk_Pop_Acoustic_Folk_Guitar_1,-1,-1
50,100,0.7363636363636363,279,0,36,_DL_Japanese_Folk_Pop_Acoustic_Folk_Guitar_1,-1,-1
50,100,0.15454545454545454,455,0,36,_DL_Japanese_Folk_Pop_Acoustic_Folk_Guitar_1,-1,-1
50,100,0.24545454545454545,577,0,36,_DL_Japanese_Folk_Pop_Acoustic_Folk_Guitar_1,-1,-1
57,100,0.25,632,0,36,_DL_Japanese_Folk_Pop_Acoustic_Folk_Guitar_1,-1,-1
50,100,0.4,715,0,36,_DL_Japanese_Folk_Pop_Acoustic_Folk_Guitar_1,-1,-1
57,100,0.13636363636363635,804,0,36,_DL_Japanese_Folk_Pop_Acoustic_Folk_Guitar_1,-1,-1
52,100,0.5363636363636364,2,1,37,_DL_Japanese_Folk_Pop_Acoustic_Folk_Guitar_1,-1,-1
52,100,0.22272727272727272,258,1,37,_DL_Japanese_Folk_Pop_Acoustic_Folk_Guitar_1,-1,-1
59,100,0.20454545454545456,474,1,37,_DL_Japanese_Folk_Pop_Acoustic_Folk_Guitar_1,-1,-1
57,100,0.22727272727272727,522,0,37,_DL_Japanese_Folk_Pop_Acoustic_Folk_Guitar_1,-1,-1
45,100,0.2,597,0,37,_DL_Japanese_Folk_Pop_Acoustic_Folk_Guitar_1,-1,-1
57,100,0.2,655,0,37,_DL_Japanese_Folk_Pop_Acoustic_Folk_Guitar_1,-1,-1
64,100,0.4,735,0,37,_DL_Japanese_Folk_Pop_Acoustic_Folk_Guitar_1,-1,-1
57,100,1.0045454545454546,877,0,37,_DL_Japanese_Folk_Pop_Acoustic_Folk_Guitar_1,-1,-1
57,100,0.3090909090909091,345,1,38,_DL_Japanese_Folk_Pop_Acoustic_Folk_Guitar_1,-1,-1
64,100,0.5136363636363637,433,0,38,_DL_Japanese_Folk_Pop_Acoustic_Folk_Guitar_1,-1,-1
57,100,0.35454545454545455,562,0,38,_DL_Japanese_Folk_Pop_Acoustic_Folk_Guitar_1,-1,-1
57,100,0.18181818181818182,742,0,38,_DL_Japanese_Folk_Pop_Acoustic_Folk_Guitar_1,-1,-1
50,100,0.33636363636363636,860,0,38,_DL_Japanese_Folk_Pop_Acoustic_Folk_Guitar_1,-1,-1
50,100,0.15454545454545454,232,1,39,_DL_Japanese_Folk_Pop_Acoustic_Folk_Guitar_1,-1,-1
57,100,0.2909090909090909,330,0,39,_DL_Japanese_Folk_Pop_Acoustic_Folk_Guitar_1,-1,-1
57,100,0.18181818181818182,412,0,39,_DL_Japanese_Folk_Pop_Acoustic_Folk_Guitar_1,-1,-1
40,100,0.7136363636363636,507,0,39,_DL_Japanese_Folk_Pop_Acoustic_Folk_Guitar_1,-1,-1
40,100,0.13636363636363635,698,0,39,_DL_Japanese_Folk_Pop_Acoustic_Folk_Guitar_1,-1,-1
40,100,0.24545454545454545,756,0,39,_DL_Japanese_Folk_Pop_Acoustic_Folk_Guitar_1,-1,-1
59,100,0.15454545454545454,851,0,39,_DL_Japanese_Folk_Pop_Acoustic_Folk_Guitar_1,-1,-1
40,100,0.2909090909090909,48,1,40,_DL_Japanese_Folk_Pop_Acoustic_Folk_Guitar_1,-1,-1
57,100,1.1636363636363636,146,0,40,_DL_Japanese_Folk_Pop_Acoustic_Folk_Guitar_1,-1,-1
57,100,0.37727272727272726,407,1,40,_DL_Japanese_Folk_Pop_Acoustic_Folk_Guitar_1,-1,-1
57,100,0.38181818181818183,643,1,40,_DL_Japanese_Folk_Pop_Acoustic_Folk_Guitar_1,-1,-1
57,100,0.24545454545454545,736,0,40,_DL_Japanese_Folk_Pop_Acoustic_Folk_Guitar_1,-1,-1
57,100,0.2,819,0,40,_DL_Japanese_Folk_Pop_Acoustic_Folk_Guitar_1,-1,-1
52,100,0.31363636363636366,864,0,40,_DL_Japanese_Folk_Pop_Acoustic_Folk_Guitar_1,-1,-1
57,100,0.1318181818181818,53,1,41,_DL_Japanese_Folk_Pop_Acoustic_Folk_Guitar_1,-1,-1
64,100,0.24545454545454545,131,0,41,_DL_Japanese_Folk_Pop_Acoustic_Folk_Guitar_1,-1,-1
57,100,0.37727272727272726,185,0,41,_DL_Japanese_Folk_Pop_Acoustic_Folk_Guitar_1,-1,-1
64,100,0.1318181818181818,343,0,41,_DL_Japanese_Folk_Pop_Acoustic_Folk_Guitar_1,-1,-1
57,100,0.1318181818181818,386,0,41,_DL_Japanese_Folk_Pop_Acoustic_Folk_Guitar_1,-1,-1
50,100,0.24545454545454545,420,0,41,_DL_Japanese_Folk_Pop_Acoustic_Folk_Guitar_1,-1,-1
57,100,0.22272727272727272,543,0,41,_DL_Japanese_Folk_Pop_Acoustic_Folk_Guitar_1,-1,-1
50,100,0.17727272727272728,603,0,41,_DL_Japanese_Folk_Pop_Acoustic_Folk_Guitar_1,-1,-1
50,100,0.44545454545454544,726,0,41,_DL_Japanese_Folk_Pop_Acoustic_Folk_Guitar_1,-1,-1
57,100,0.35909090909090907,824,0,41,_DL_Japanese_Folk_Pop_Acoustic_Folk_Guitar_1,-1,-1
57,100,0.1590909090909091,47,1,42,_DL_Japanese_Folk_Pop_Acoustic_Folk_Guitar_1,-1,-1
40,100,0.6954545454545454,139,0,42,_DL_Japanese_Folk_Pop_Acoustic_Folk_Guitar_1,-1,-1
40,100,0.2,400,1,42,_DL_Japanese_Folk_Pop_Acoustic_Folk_Guitar_1,-1,-1
59,100,0.42272727272727273,445,0,42,_DL_Japanese_Folk_Pop_Acoustic_Folk_Guitar_1,-1,-1
59,100,0.2909090909090909,591,0,42,_DL_Japanese_Folk_Pop_Acoustic_Folk_Guitar_1,-1,-1
61,100,0.2681818181818182,130,1,43,_DL_Japanese_Folk_Pop_Acoustic_Folk_Guitar_1,-1,-1
59,100,0.5590909090909091,203,0,43,_DL_Japanese_Folk_Pop_Acoustic_Folk_Guitar_1,-1,-1
64,100,0.20454545454545456,585,1,43,_DL_Japanese_Folk_Pop_Acoustic_Folk_Guitar_1,-1,-1
57,100,0.31363636363636366,699,0,43,_DL_Japanese_Folk_Pop_Acoustic_Folk_Guitar_1,-1,-1
61,100,0.1590909090909091,817,0,43,_DL_Japanese_Folk_Pop_Acoustic_Folk_Guitar_1,-1,-1
57,100,0.2681818181818182,856,0,43,_DL_Japanese_Folk_Pop_Acoustic_Folk_Guitar_1,-1,-1
57,100,0.4,393,1,44,_DL_Japanese_Folk_Pop_Acoustic_Folk_Guitar_1,-1,-1
57,100,0.2,511,0,44,_DL_Japanese_Folk_Pop_Acoustic_Folk_Guitar_1,-1,-1
40,100,0.17727272727272728,630,0,44,_DL_Japanese_Folk_Pop_Acoustic_Folk_Guitar_1,-1,-1
57,100,0.4909090909090909,550,1,45,_DL_Japanese_Folk_Pop_Acoustic_Folk_Guitar_1,-1,-1
57,100,0.1590909090909091,696,0,45,_DL_Japanese_Folk_Pop_Acoustic_Folk_Guitar_1,-1,-1
57,100,0.24545454545454545,554,1,46,_DL_Japanese_Folk_Pop_Acoustic_Folk_Guitar_1,-1,-1
61,100,0.7181818181818181,744,0,46,_DL_Japanese_Folk_Pop_Acoustic_Folk_Guitar_1,-1,-1
50,100,1.809090909090909,253,1,47,_DL_Japanese_Folk_Pop_Acoustic_Folk_Guitar_1,-1,-1
50,100,0.4909090909090909,655,1,47,_DL_Japanese_Folk_Pop_Acoustic_Folk_Guitar_1,-1,-1
61,100,1.6272727272727272,789,0,47,_DL_Japanese_Folk_Pop_Acoustic_Folk_Guitar_1,-1,-1
57,100,0.33636363636363636,330,1,48,_DL_Japanese_Folk_Pop_Acoustic_Folk_Guitar_1,-1,-1
45,100,0.2681818181818182,405,0,48,_DL_Japanese_Folk_Pop_Acoustic_Folk_Guitar_1,-1,-1
59,100,0.1590909090909091,645,1,48,_DL_Japanese_Folk_Pop_Acoustic_Folk_Guitar_1,-1,-1
64,100,0.2,837,0,48,_DL_Japanese_Folk_Pop_Acoustic_Folk_Guitar_1,-1,-1
52,100,0.17727272727272728,0,1,49,_DL_Japanese_Folk_Pop_Acoustic_Folk_Guitar_1,-1,-1
40,100,0.24545454545454545,40,0,49,_DL_Japanese_Folk_Pop_Acoustic_Folk_Guitar_1,-1,-1
64,100,0.11363636363636363,143,0,49,_DL_Japanese_Folk_Pop_Acoustic_Folk_Guitar_1,-1,-1
64,100,0.11363636363636363,212,0,49,_DL_Japanese_Folk_Pop_Acoustic_Folk_Guitar_1,-1,-1
64,100,0.15454545454545454,241,0,49,_DL_Japanese_Folk_Pop_Acoustic_Folk_Guitar_1,-1,-1
64,100,0.42272727272727273,281,0,49,_DL_Japanese_Folk_Pop_Acoustic_Folk_Guitar_1,-1,-1
57,100,0.20454545454545456,579,1,49,_DL_Japanese_Folk_Pop_Acoustic_Folk_Guitar_1,-1,-1
50,100,0.9363636363636364,733,0,49,_DL_Japanese_Folk_Pop_Acoustic_Folk_Guitar_1,-1,-1
50,100,0.37727272727272726,68,1,50,_DL_Japanese_Folk_Pop_Acoustic_Folk_Guitar_1,-1,-1
64,100,0.22272727272727272,349,1,50,_DL_Japanese_Folk_Pop_Acoustic_Folk_Guitar_1,-1,-1
61,100,1.6045454545454545,407,0,50,_DL_Japanese_Folk_Pop_Acoustic_Folk_Guitar_1,-1,-1
59,100,0.24545454545454545,781,1,50,_DL_Japanese_Folk_Pop_Acoustic_Folk_Guitar_1,-1,-1
61,100,1.5863636363636364,317,1,51,_DL_Japanese_Folk_Pop_Acoustic_Folk_Guitar_1,-1,-1
62,100,0.9363636363636364,672,1,51,_DL_Japanese_Folk_Pop_Acoustic_Folk_Guitar_1,-1,-1
62,100,0.42727272727272725,139,1,52,_DL_Japanese_Folk_Pop_Acoustic_Folk_Guitar_1,-1,-1
62,100,0.4727272727272727,253,0,52,_DL_Japanese_Folk_Pop_Acoustic_Folk_Guitar_1,-1,-1
40,100,0.5136363636363637,376,0,52,_DL_Japanese_Folk_Pop_Acoustic_Folk_Guitar_1,-1,-1
59,100,0.33636363636363636,818,1,52,_DL_Japanese_Folk_Pop_Acoustic_Folk_Guitar_1,-1,-1
57,100,0.1590909090909091,41,1,53,_DL_Japanese_Folk_Pop_Acoustic_Folk_Guitar_1,-1,-1
45,100,0.6909090909090909,100,0,53,_DL_Japanese_Folk_Pop_Acoustic_Folk_Guitar_1,-1,-1
45,100,0.2,267,0,53,_DL_Japanese_Folk_Pop_Acoustic_Folk_Guitar_1,-1,-1
45,100,0.11363636363636363,321,0,53,_DL_Japanese_Folk_Pop_Acoustic_Folk_Guitar_1,-1,-1
61,100,0.4681818181818182,433,0,53,_DL_Japanese_Folk_Pop_Acoustic_Folk_Guitar_1,-1,-1
54,100,0.5363636363636364,620,0,53,_DL_Japanese_Folk_Pop_Acoustic_Folk_Guitar_1,-1,-1
57,100,0.31363636363636366,753,0,53,_DL_Japanese_Folk_Pop_Acoustic_Folk_Guitar_1,-1,-1
54,100,0.42272727272727273,852,0,53,_DL_Japanese_Folk_Pop_Acoustic_Folk_Guitar_1,-1,-1
57,100,0.31363636363636366,94,1,54,_DL_Japanese_Folk_Pop_Acoustic_Folk_Guitar_1,-1,-1
57,100,0.44545454545454544,167,0,54,_DL_Japanese_Folk_Pop_Acoustic_Folk_Guitar_1,-1,-1
62,100,0.9136363636363637,301,0,54,_DL_Japanese_Folk_Pop_Acoustic_Folk_Guitar_1,-1,-1
62,100,0.6727272727272727,702,1,54,_DL_Japanese_Folk_Pop_Acoustic_Folk_Guitar_1,-1,-1
40,100,0.8272727272727273,874,0,54,_DL_Japanese_Folk_Pop_Acoustic_Folk_Guitar_1,-1,-1
40,100,0.4909090909090909,215,1,55,_DL_Japanese_Folk_Pop_Acoustic_Folk_Guitar_1,-1,-1
40,100,0.22272727272727272,349,0,55,_DL_Japanese_Folk_Pop_Acoustic_Folk_Guitar_1,-1,-1
40,100,0.37727272727272726,403,0,55,_DL_Japanese_Folk_Pop_Acoustic_Folk_Guitar_1,-1,-1
59,100,0.10909090909090909,510,0,55,_DL_Japanese_Folk_Pop_Acoustic_Folk_Guitar_1,-1,-1
52,100,0.2636363636363636,628,0,55,_DL_Japanese_Folk_Pop_Acoustic_Folk_Guitar_1,-1,-1
52,100,0.5363636363636364,781,0,55,_DL_Japanese_Folk_Pop_Acoustic_Folk_Guitar_1,-1,-1
52,100,0.22272727272727272,116,1,56,_DL_Japanese_Folk_Pop_Acoustic_Folk_Guitar_1,-1,-1
52,100,0.24545454545454545,171,0,56,_DL_Japanese_Folk_Pop_Acoustic_Folk_Guitar_1,-1,-1
57,100,0.42272727272727273,234,0,56,_DL_Japanese_Folk_Pop_Acoustic_Folk_Guitar_1,-1,-1
57,100,0.22272727272727272,440,1,56,_DL_Japanese_Folk_Pop_Acoustic_Folk_Guitar_1,-1,-1
56,100,0.44545454545454544,489,0,56,_DL_Japanese_Folk_Pop_Acoustic_Folk_Guitar_1,-1,-1
56,100,0.24545454545454545,652,0,56,_DL_Japanese_Folk_Pop_Acoustic_Folk_Guitar_1,-1,-1
57,100,0.4681818181818182,730,0,56,_DL_Japanese_Folk_Pop_Acoustic_Folk_Guitar_1,-1,-1
57,100,0.6454545454545455,878,0,56,_DL_Japanese_Folk_Pop_Acoustic_Folk_Guitar_1,-1,-1
57,100,0.1318181818181818,233,1,57,_DL_Japanese_Folk_Pop_Acoustic_Folk_Guitar_1,-1,-1
61,100,0.15454545454545454,391,0,57,_DL_Japanese_Folk_Pop_Acoustic_Folk_Guitar_1,-1,-1
50,100,0.1590909090909091,872,1,57,_DL_Japanese_Folk_Pop_Acoustic_Folk_Guitar_1,-1,-1
49,100,0.8954545454545455,203,1,58,_DL_Japanese_Folk_Pop_Acoustic_Folk_Guitar_1,-1,-1
61,100,0.2,448,1,58,_DL_Japanese_Folk_Pop_Acoustic_Folk_Guitar_1,-1,-1
61,100,0.2909090909090909,611,0,58,_DL_Japanese_Folk_Pop_Acoustic_Folk_Guitar_1,-1,-1
64,100,0.6909090909090909,734,0,58,_DL_Japanese_Folk_Pop_Acoustic_Folk_Guitar_1,-1,-1
61,100,0.6,80,1,59,_DL_Japanese_Folk_Pop_Acoustic_Folk_Guitar_1,-1,-1
61,100,0.33181818181818185,290,1,59,_DL_Japanese_Folk_Pop_Acoustic_Folk_Guitar_1,-1,-1
61,100,0.13636363636363635,378,0,59,_DL_Japanese_Folk_Pop_Acoustic_Folk_Guitar_1,-1,-1
62,100,0.5590909090909091,433,0,59,_DL_Japanese_Folk_Pop_Acoustic_Folk_Guitar_1,-1,-1
62,100,0.8909090909090909,786,1,59,_DL_Japanese_Folk_Pop_Acoustic_Folk_Guitar_1,-1,-1
40,100,0.15454545454545454,177,1,60,_DL_Japanese_Folk_Pop_Acoustic_Folk_Guitar_1,-1,-1
52,100,0.42272727272727273,240,0,60,_DL_Japanese_Folk_Pop_Acoustic_Folk_Guitar_1,-1,-1
40,100,0.6681818181818182,334,0,60,_DL_Japanese_Folk_Pop_Acoustic_Folk_Guitar_1,-1,-1
40,100,0.2,486,0,60,_DL_Japanese_Folk_Pop_Acoustic_Folk_Guitar_1,-1,-1
52,100,0.24545454545454545,618,0,60,_DL_Japanese_Folk_Pop_Acoustic_Folk_Guitar_1,-1,-1
45,100,0.4909090909090909,796,0,60,_DL_Japanese_Folk_Pop_Acoustic_Folk_Guitar_1,-1,-1
59,100,0.24545454545454545,151,1,61,_DL_Japanese_Folk_Pop_Acoustic_Folk_Guitar_1,-1,-1
61,100,0.2,294,0,61,_DL_Japanese_Folk_Pop_Acoustic_Folk_Guitar_1,-1,-1
61,100,0.4,357,0,61,_DL_Japanese_Folk_Pop_Acoustic_Folk_Guitar_1,-1,-1
54,100,0.13636363636363635,86,1,62,_DL_Japanese_Folk_Pop_Acoustic_Folk_Guitar_1,-1,-1
62,100,0.17727272727272728,346,1,62,_DL_Japanese_Folk_Pop_Acoustic_Folk_Guitar_1,-1,-1
59,100,0.5545454545454546,411,0,62,_DL_Japanese_Folk_Pop_Acoustic_Folk_Guitar_1,-1,-1
54,100,0.17727272727272728,577,0,62,_DL_Japanese_Folk_Pop_Acoustic_Folk_Guitar_1,-1,-1
62,100,0.2681818181818182,130,1,63,_DL_Japanese_Folk_Pop_Acoustic_Folk_Guitar_1,-1,-1
61,100,0.9363636363636364,316,0,63,_DL_Japanese_Folk_Pop_Acoustic_Folk_Guitar_1,-1,-1
61,100,0.24545454545454545,527,1,63,_DL_Japanese_Folk_Pop_Acoustic_Folk_Guitar_1,-1,-1
61,100,0.2681818181818182,665,0,63,_DL_Japanese_Folk_Pop_Acoustic_Folk_Guitar_1,-1,-1
61,100,0.17727272727272728,826,0,63,_DL_Japanese_Folk_Pop_Acoustic_Folk_Guitar_1,-1,-1
57,100,0.1318181818181818,349,1,64,_DL_Japanese_Folk_Pop_Acoustic_Folk_Guitar_1,-1,-1
62,100,0.6909090909090909,565,1,64,_DL_Japanese_Folk_Pop_Acoustic_Folk_Guitar_1,-1,-1
62,100,0.4909090909090909,43,1,65,_DL_Japanese_Folk_Pop_Acoustic_Folk_Guitar_1,-1,-1
47,100,0.1590909090909091,422,1,65,_DL_Japanese_Folk_Pop_Acoustic_Folk_Guitar_1,-1,-1
59,100,0.2863636363636364,467,0,65,_DL_Japanese_Folk_Pop_Acoustic_Folk_Guitar_1,-1,-1
62,100,0.4681818181818182,550,0,65,_DL_Japanese_Folk_Pop_Acoustic_Folk_Guitar_1,-1,-1
59,100,0.15454545454545454,658,0,65,_DL_Japanese_Folk_Pop_Acoustic_Folk_Guitar_1,-1,-1
40,100,0.6681818181818182,879,1,65,_DL_Japanese_Folk_Pop_Acoustic_Folk_Guitar_1,-1,-1
40,100,0.5363636363636364,165,1,66,_DL_Japanese_Folk_Pop_Acoustic_Folk_Guitar_1,-1,-1
40,100,0.2636363636363636,299,0,66,_DL_Japanese_Folk_Pop_Acoustic_Folk_Guitar_1,-1,-1
40,100,0.33636363636363636,367,0,66,_DL_Japanese_Folk_Pop_Acoustic_Folk_Guitar_1,-1,-1
59,100,0.1318181818181818,466,0,66,_DL_Japanese_Folk_Pop_Acoustic_Folk_Guitar_1,-1,-1
59,100,0.2,505,0,66,_DL_Japanese_Folk_Pop_Acoustic_Folk_Guitar_1,-1,-1
40,100,0.33636363636363636,549,0,66,_DL_Japanese_Folk_Pop_Acoustic_Folk_Guitar_1,-1,-1
62,100,0.11363636363636363,193,1,67,_DL_Japanese_Folk_Pop_Acoustic_Folk_Guitar_1,-1,-1
50,100,1.1818181818181819,219,0,67,_DL_Japanese_Folk_Pop_Acoustic_Folk_Guitar_1,-1,-1
57,100,0.10909090909090909,617,1,67,_DL_Japanese_Folk_Pop_Acoustic_Folk_Guitar_1,-1,-1
57,100,0.33636363636363636,646,0,67,_DL_Japanese_Folk_Pop_Acoustic_Folk_Guitar_1,-1,-1
59,100,0.2909090909090909,748,0,67,_DL_Japanese_Folk_Pop_Acoustic_Folk_Guitar_1,-1,-1
40,100,0.31363636363636366,817,0,67,_DL_Japanese_Folk_Pop_Acoustic_Folk_Guitar_1,-1,-1
40,100,0.1318181818181818,22,1,68,_DL_Japanese_Folk_Pop_Acoustic_Folk_Guitar_1,-1,-1
64,100,0.17727272727272728,51,0,68,_DL_Japanese_Folk_Pop_Acoustic_Folk_Guitar_1,-1,-1
61,100,0.65,95,0,68,_DL_Japanese_Folk_Pop_Acoustic_Folk_Guitar_1,-1,-1
59,100,0.1318181818181818,243,0,68,_DL_Japanese_Folk_Pop_Acoustic_Folk_Guitar_1,-1,-1
57,100,0.2909090909090909,439,0,68,_DL_Japanese_Folk_Pop_Acoustic_Folk_Guitar_1,-1,-1
59,100,0.5818181818181818,801,1,68,_DL_Japanese_Folk_Pop_Acoustic_Folk_Guitar_1,-1,-1
61,100,0.13636363636363635,211,1,69,_DL_Japanese_Folk_Pop_Acoustic_Folk_Guitar_1,-1,-1
57,100,0.9590909090909091,256,0,69,_DL_Japanese_Folk_Pop_Acoustic_Folk_Guitar_1,-1,-1
61,100,0.8954545454545455,471,1,69,_DL_Japanese_Folk_Pop_Acoustic_Folk_Guitar_1,-1,-1
57,100,0.2,64,1,70,_DL_Japanese_Folk_Pop_Acoustic_Folk_Guitar_1,-1,-1
59,100,0.1318181818181818,177,0,70,_DL_Japanese_Folk_Pop_Acoustic_Folk_Guitar_1,-1,-1
40,100,0.2,426,1,70,_DL_Japanese_Folk_Pop_Acoustic_Folk_Guitar_1,-1,-1
52,100,0.2681818181818182,470,0,70,_DL_Japanese_Folk_Pop_Acoustic_Folk_Guitar_1,-1,-1
56,100,0.22272727272727272,550,0,70,_DL_Japanese_Folk_Pop_Acoustic_Folk_Guitar_1,-1,-1
56,100,0.17727272727272728,687,0,70,_DL_Japanese_Folk_Pop_Acoustic_Folk_Guitar_1,-1,-1
40,100,0.2636363636363636,742,0,70,_DL_Japanese_Folk_Pop_Acoustic_Folk_Guitar_1,-1,-1
57,100,0.2,63,1,71,_DL_Japanese_Folk_Pop_Acoustic_Folk_Guitar_1,-1,-1
61,100,0.13636363636363635,155,0,71,_DL_Japanese_Folk_Pop_Acoustic_Folk_Guitar_1,-1,-1
57,100,0.33636363636363636,194,0,71,_DL_Japanese_Folk_Pop_Acoustic_Folk_Guitar_1,-1,-1
61,100,0.33181818181818185,284,0,71,_DL_Japanese_Folk_Pop_Acoustic_Folk_Guitar_1,-1,-1
57,100,0.35909090909090907,361,0,71,_DL_Japanese_Folk_Pop_Acoustic_Folk_Guitar_1,-1,-1
61,100,0.2681818181818182,469,0,71,_DL_Japanese_Folk_Pop_Acoustic_Folk_Guitar_1,-1,-1
59,100,0.11363636363636363,577,0,71,_DL_Japanese_Folk_Pop_Acoustic_Folk_Guitar_1,-1,-1
61,100,0.17727272727272728,849,1,71,_DL_Japanese_Folk_Pop_Acoustic_Folk_Guitar_1,-1,-1
61,100,0.7818181818181819,145,1,72,_DL_Japanese_Folk_Pop_Acoustic_Folk_Guitar_1,-1,-1
50,100,0.42272727272727273,321,0,72,_DL_Japanese_Folk_Pop_Acoustic_Folk_Guitar_1,-1,-1
50,100,0.5590909090909091,444,0,72,_DL_Japanese_Folk_Pop_Acoustic_Folk_Guitar_1,-1,-1
59,100,0.1318181818181818,617,0,72,_DL_Japanese_Folk_Pop_Acoustic_Folk_Guitar_1,-1,-1
50,100,0.17727272727272728,773,0,72,_DL_Japanese_Folk_Pop_Acoustic_Folk_Guitar_1,-1,-1
40,100,0.22727272727272727,30,1,73,_DL_Japanese_Folk_Pop_Acoustic_Folk_Guitar_1,-1,-1
40,100,0.13636363636363635,105,0,73,_DL_Japanese_Folk_Pop_Acoustic_Folk_Guitar_1,-1,-1
56,100,0.22272727272727272,168,0,73,_DL_Japanese_Folk_Pop_Acoustic_Folk_Guitar_1,-1,-1
64,100,0.1590909090909091,305,0,73,_DL_Japanese_Folk_Pop_Acoustic_Folk_Guitar_1,-1,-1
59,100,0.40454545454545454,365,0,73,_DL_Japanese_Folk_Pop_Acoustic_Folk_Guitar_1,-1,-1
52,100,0.2,482,0,73,_DL_Japanese_Folk_Pop_Acoustic_Folk_Guitar_1,-1,-1
40,100,0.11363636363636363,526,0,73,_DL_Japanese_Folk_Pop_Acoustic_Folk_Guitar_1,-1,-1
57,100,0.42272727272727273,577,0,73,_DL_Japanese_Folk_Pop_Acoustic_Folk_Guitar_1,-1,-1
61,100,0.8272727272727273,688,0,73,_DL_Japanese_Folk_Pop_Acoustic_Folk_Guitar_1,-1,-1
57,100,0.24545454545454545,870,0,73,_DL_Japanese_Folk_Pop_Acoustic_Folk_Guitar_1,-1,-1
61,100,0.2681818181818182,59,1,74,_DL_Japanese_Folk_Pop_Acoustic_Folk_Guitar_1,-1,-1
57,100,0.13636363636363635,157,0,74,_DL_Japanese_Folk_Pop_Acoustic_Folk_Guitar_1,-1,-1
57,100,0.1318181818181818,403,1,74,_DL_Japanese_Folk_Pop_Acoustic_Folk_Guitar_1,-1,-1
61,100,0.6272727272727273,471,0,74,_DL_Japanese_Folk_Pop_Acoustic_Folk_Guitar_1,-1,-1
61,100,0.1318181818181818,659,0,74,_DL_Japanese_Folk_Pop_Acoustic_Folk_Guitar_1,-1,-1
61,100,0.11363636363636363,702,0,74,_DL_Japanese_Folk_Pop_Acoustic_Folk_Guitar_1,-1,-1
61,100,0.31363636363636366,742,0,74,_DL_Japanese_Folk_Pop_Acoustic_Folk_Guitar_1,-1,-1
62,100,0.1318181818181818,333,1,75,_DL_Japanese_Folk_Pop_Acoustic_Folk_Guitar_1,-1,-1
40,100,0.4681818181818182,535,1,75,_DL_Japanese_Folk_Pop_Acoustic_Folk_Guitar_1,-1,-1
59,100,0.65,652,0,75,_DL_Japanese_Folk_Pop_Acoustic_Folk_Guitar_1,-1,-1
59,100,0.2909090909090909,799,0,75,_DL_Japanese_Folk_Pop_Acoustic_Folk_Guitar_1,-1,-1
40,100,0.33636363636363636,27,1,76,_DL_Japanese_Folk_Pop_Acoustic_Folk_Guitar_1,-1,-1
59,100,0.2681818181818182,484,1,76,_DL_Japanese_Folk_Pop_Acoustic_Folk_Guitar_1,-1,-1
61,100,0.2681818181818182,559,0,76,_DL_Japanese_Folk_Pop_Acoustic_Folk_Guitar_1,-1,-1
61,100,0.15454545454545454,661,0,76,_DL_Japanese_Folk_Pop_Acoustic_Folk_Guitar_1,-1,-1
57,100,0.4909090909090909,741,0,76,_DL_Japanese_Folk_Pop_Acoustic_Folk_Guitar_1,-1,-1
45,100,0.2909090909090909,867,0,76,_DL_Japanese_Folk_Pop_Acoustic_Folk_Guitar_1,-1,-1
64,100,0.13636363636363635,425,1,77,_DL_Japanese_Folk_Pop_Acoustic_Folk_Guitar_1,-1,-1
50,100,0.9590909090909091,454,0,77,_DL_Japanese_Folk_Pop_Acoustic_Folk_Guitar_1,-1,-1
57,100,0.5136363636363637,671,1,77,_DL_Japanese_Folk_Pop_Acoustic_Folk_Guitar_1,-1,-1
57,100,0.24545454545454545,76,1,78,_DL_Japanese_Folk_Pop_Acoustic_Folk_Guitar_1,-1,-1
40,100,0.5363636363636364,164,0,78,_DL_Japanese_Folk_Pop_Acoustic_Folk_Guitar_1,-1,-1
40,100,0.2,302,0,78,_DL_Japanese_Folk_Pop_Acoustic_Folk_Guitar_1,-1,-1
64,100,0.10909090909090909,345,0,78,_DL_Japanese_Folk_Pop_Acoustic_Folk_Guitar_1,-1,-1
40,100,0.15454545454545454,385,0,78,_DL_Japanese_Folk_Pop_Acoustic_Folk_Guitar_1,-1,-1
40,100,0.2,443,0,78,_DL_Japanese_Folk_Pop_Acoustic_Folk_Guitar_1,-1,-1
40,100,0.2909090909090909,512,0,78,_DL_Japanese_Folk_Pop_Acoustic_Folk_Guitar_1,-1,-1
64,100,0.35454545454545455,577,0,78,_DL_Japanese_Folk_Pop_Acoustic_Folk_Guitar_1,-1,-1
57,100,0.8045454545454546,670,0,78,_DL_Japanese_Folk_Pop_Acoustic_Folk_Guitar_1,-1,-1
61,100,0.2,69,1,79,_DL_Japanese_Folk_Pop_Acoustic_Folk_Guitar_1,-1,-1
61,100,0.2,134,0,79,_DL_Japanese_Folk_Pop_Acoustic_Folk_Guitar_1,-1,-1
61,100,0.2909090909090909,196,0,79,_DL_Japanese_Folk_Pop_Acoustic_Folk_Guitar_1,-1,-1
57,100,0.2681818181818182,394,0,79,_DL_Japanese_Folk_Pop_Acoustic_Folk_Guitar_1,-1,-1
57,100,0.44545454545454544,507,0,79,_DL_Japanese_Folk_Pop_Acoustic_Folk_Guitar_1,-1,-1
61,100,0.9136363636363637,619,0,79,_DL_Japanese_Folk_Pop_Acoustic_Folk_Guitar_1,-1,-1
57,100,0.15454545454545454,830,1,79,_DL_Japanese_Folk_Pop_Acoustic_Folk_Guitar_1,-1,-1
62,100,0.1318181818181818,14,1,80,_DL_Japanese_Folk_Pop_Acoustic_Folk_Guitar_1,-1,-1
47,100,0.35909090909090907,87,0,80,_DL_Japanese_Folk_Pop_Acoustic_Folk_Guitar_1,-1,-1
47,100,0.1318181818181818,172,0,80,_DL_Japanese_Folk_Pop_Acoustic_Folk_Guitar_1,-1,-1
47,100,0.11363636363636363,255,0,80,_DL_Japanese_Folk_Pop_Acoustic_Folk_Guitar_1,-1,-1
57,100,0.37727272727272726,343,0,80,_DL_Japanese_Folk_Pop_Acoustic_Folk_Guitar_1,-1,-1
62,100,0.5818181818181818,441,0,80,_DL_Japanese_Folk_Pop_Acoustic_Folk_Guitar_1,-1,-1
50,100,0.15454545454545454,569,0,80,_DL_Japanese_Folk_Pop_Acoustic_Folk_Guitar_1,-1,-1
40,100,0.5590909090909091,662,0,80,_DL_Japanese_Folk_Pop_Acoustic_Folk_Guitar_1,-1,-1
59,100,0.2681818181818182,829,0,80,_DL_Japanese_Folk_Pop_Acoustic_Folk_Guitar_1,-1,-1
40,100,0.1318181818181818,78,1,81,_DL_Japanese_Folk_Pop_Acoustic_Folk_Guitar_1,-1,-1
64,100,0.2681818181818182,161,0,81,_DL_Japanese_Folk_Pop_Acoustic_Folk_Guitar_1,-1,-1
45,100,0.42272727272727273,451,1,81,_DL_Japanese_Folk_Pop_Acoustic_Folk_Guitar_1,-1,-1
45,100,0.22272727272727272,563,0,81,_DL_Japanese_Folk_Pop_Acoustic_Folk_Guitar_1,-1,-1
64,100,0.17727272727272728,618,0,81,_DL_Japanese_Folk_Pop_Acoustic_Folk_Guitar_1,-1,-1
61,100,0.5363636363636364,179,1,82,_DL_Japanese_Folk_Pop_Acoustic_Folk_Guitar_1,-1,-1
61,100,0.10909090909090909,342,0,82,_DL_Japanese_Folk_Pop_Acoustic_Folk_Guitar_1,-1,-1
61,100,0.85,371,0,82,_DL_Japanese_Folk_Pop_Acoustic_Folk_Guitar_1,-1,-1
57,100,0.7181818181818181,802,1,82,_DL_Japanese_Folk_Pop_Acoustic_Folk_Guitar_1,-1,-1
59,100,0.31363636363636366,272,1,83,_DL_Japanese_Folk_Pop_Acoustic_Folk_Guitar_1,-1,-1
40,100,0.2,374,0,83,_DL_Japanese_Folk_Pop_Acoustic_Folk_Guitar_1,-1,-1
40,100,0.13636363636363635,434,0,83,_DL_Japanese_Folk_Pop_Acoustic_Folk_Guitar_1,-1,-1
59,100,0.11363636363636363,487,0,83,_DL_Japanese_Folk_Pop_Acoustic_Folk_Guitar_1,-1,-1
64,100,0.11363636363636363,547,0,83,_DL_Japanese_Folk_Pop_Acoustic_Folk_Guitar_1,-1,-1
40,100,0.1590909090909091,586,0,83,_DL_Japanese_Folk_Pop_Acoustic_Folk_Guitar_1,-1,-1
59,100,0.10909090909090909,626,0,83,_DL_Japanese_Folk_Pop_Acoustic_Folk_Guitar_1,-1,-1
61,100,0.11363636363636363,655,0,83,_DL_Japanese_Folk_Pop_Acoustic_Folk_Guitar_1,-1,-1
64,100,0.5363636363636364,714,0,83,_DL_Japanese_Folk_Pop_Acoustic_Folk_Guitar_1,-1,-1
53,100,0.1318181818181818,837,0,83,_DL_Japanese_Folk_Pop_Acoustic_Folk_Guitar_1,-1,-1
61,100,0.18181818181818182,35,1,84,_DL_Japanese_Folk_Pop_Acoustic_Folk_Guitar_1,-1,-1
61,100,0.38181818181818183,88,0,84,_DL_Japanese_Folk_Pop_Acoustic_Folk_Guitar_1,-1,-1
57,100,0.2909090909090909,178,0,84,_DL_Japanese_Folk_Pop_Acoustic_Folk_Guitar_1,-1,-1
61,100,0.2681818181818182,310,0,84,_DL_Japanese_Folk_Pop_Acoustic_Folk_Guitar_1,-1,-1
61,100,0.65,379,0,84,_DL_Japanese_Folk_Pop_Acoustic_Folk_Guitar_1,-1,-1
54,100,0.5818181818181818,546,0,84,_DL_Japanese_Folk_Pop_Acoustic_Folk_Guitar_1,-1,-1
61,100,0.8272727272727273,702,0,84,_DL_Japanese_Folk_Pop_Acoustic_Folk_Guitar_1,-1,-1
62,100,0.31363636363636366,82,1,85,_DL_Japanese_Folk_Pop_Acoustic_Folk_Guitar_1,-1,-1
59,100,0.24545454545454545,210,0,85,_DL_Japanese_Folk_Pop_Acoustic_Folk_Guitar_1,-1,-1
62,100,0.6681818181818182,275,0,85,_DL_Japanese_Folk_Pop_Acoustic_Folk_Guitar_1,-1,-1
59,100,0.10909090909090909,781,1,85,_DL_Japanese_Folk_Pop_Acoustic_Folk_Guitar_1,-1,-1
40,100,0.1590909090909091,805,0,85,_DL_Japanese_Folk_Pop_Acoustic_Folk_Guitar_1,-1,-1
52,100,0.42272727272727273,850,0,85,_DL_Japanese_Folk_Pop_Acoustic_Folk_Guitar_1,-1,-1
59,100,0.2636363636363636,191,1,86,_DL_Japanese_Folk_Pop_Acoustic_Folk_Guitar_1,-1,-1
52,100,0.6045454545454545,278,0,86,_DL_Japanese_Folk_Pop_Acoustic_Folk_Guitar_1,-1,-1
61,100,0.740909090909091,523,1,86,_DL_Japanese_Folk_Pop_Acoustic_Folk_Guitar_1,-1,-1
61,100,0.1318181818181818,789,1,86,_DL_Japanese_Folk_Pop_Acoustic_Folk_Guitar_1,-1,-1
61,100,0.7818181818181819,843,0,86,_DL_Japanese_Folk_Pop_Acoustic_Folk_Guitar_1,-1,-1
61,100,0.17727272727272728,190,1,87,_DL_Japanese_Folk_Pop_Acoustic_Folk_Guitar_1,-1,-1
61,100,0.10909090909090909,233,0,87,_DL_Japanese_Folk_Pop_Acoustic_Folk_Guitar_1,-1,-1
61,100,0.6909090909090909,292,0,87,_DL_Japanese_Folk_Pop_Acoustic_Folk_Guitar_1,-1,-1
57,100,0.2681818181818182,489,0,87,_DL_Japanese_Folk_Pop_Acoustic_Folk_Guitar_1,-1,-1
45,100,0.2409090909090909,220,1,0,_Guitar,-1,-1
45,100,0.32272727272727275,299,0,0,_Guitar,-1,-1
45,100,0.3409090909090909,383,0,0,_Guitar,-1,-1
45,100,0.3,568,0,0,_Guitar,-1,-1
57,100,0.11818181818181818,638,0,0,_Guitar,-1,-1
45,100,0.2409090909090909,664,0,0,_Guitar,-1,-1
45,100,0.3181818181818182,735,0,0,_Guitar,-1,-1
45,100,0.37727272727272726,810,0,0,_Guitar,-1,-1
44,100,0.3409090909090909,119,1,1,_Guitar,-1,-1
44,100,0.36363636363636365,201,0,1,_Guitar,-1,-1
44,100,0.740909090909091,374,0,1,_Guitar,-1,-1
44,100,0.36363636363636365,554,0,1,_Guitar,-1,-1
44,100,0.3409090909090909,646,0,1,_Guitar,-1,-1
49,100,0.759090909090909,823,0,1,_Guitar,-1,-1
49,100,0.5818181818181818,153,1,2,_Guitar,-1,-1
49,100,0.759090909090909,286,0,2,_Guitar,-1,-1
49,100,0.32272727272727275,466,0,2,_Guitar,-1,-1
49,100,0.759090909090909,647,0,2,_Guitar,-1,-1
49,100,1.5636363636363637,26,1,3,_Guitar,-1,-1
45,100,0.3181818181818182,396,1,3,_Guitar,-1,-1
45,100,0.3409090909090909,470,0,3,_Guitar,-1,-1
45,100,0.3,562,0,3,_Guitar,-1,-1
45,100,0.7227272727272728,651,0,3,_Guitar,-1,-1
45,100,0.3409090909090909,822,0,3,_Guitar,-1,-1
45,100,0.3181818181818182,30,1,4,_Guitar,-1,-1
45,100,0.3181818181818182,118,0,4,_Guitar,-1,-1
47,100,1.1590909090909092,207,0,4,_Guitar,-1,-1
47,100,1.1227272727272728,475,1,4,_Guitar,-1,-1
47,100,0.3,729,1,4,_Guitar,-1,-1
47,100,0.35909090909090907,813,0,4,_Guitar,-1,-1
52,100,0.32272727272727275,122,1,5,_Guitar,-1,-1
52,100,0.36363636363636365,201,0,5,_Guitar,-1,-1
53,100,0.1,373,0,5,_Guitar,-1,-1
52,100,0.2818181818181818,396,0,5,_Guitar,-1,-1
52,100,0.3409090909090909,475,0,5,_Guitar,-1,-1
52,100,0.3,568,0,5,_Guitar,-1,-1
52,100,0.3,647,0,5,_Guitar,-1,-1
59,100,0.5590909090909091,79,1,6,_Guitar,-1,-1
40,100,0.1409090909090909,220,0,6,_Guitar,-1,-1
59,100,0.1590909090909091,276,0,6,_Guitar,-1,-1
40,100,0.1409090909090909,572,1,6,_Guitar,-1,-1
52,100,0.8181818181818182,634,0,6,_Guitar,-1,-1
52,100,0.2772727272727273,823,0,6,_Guitar,-1,-1
52,100,0.4409090909090909,12,1,7,_Guitar,-1,-1
52,100,1.1409090909090909,118,0,7,_Guitar,-1,-1
52,100,1.459090909090909,383,1,7,_Guitar,-1,-1
40,100,0.1,703,1,7,_Guitar,-1,-1
52,100,0.4409090909090909,726,0,7,_Guitar,-1,-1
52,100,0.7,836,0,7,_Guitar,-1,-1
52,100,0.1409090909090909,113,1,8,_Guitar,-1,-1
49,100,0.8227272727272728,276,0,8,_Guitar,-1,-1
49,100,0.13636363636363635,479,1,8,_Guitar,-1,-1
49,100,0.32272727272727275,563,0,8,_Guitar,-1,-1
49,100,0.759090909090909,646,0,8,_Guitar,-1,-1
49,100,0.5,818,0,8,_Guitar,-1,-1
59,100,0.16363636363636364,70,1,9,_Guitar,-1,-1
49,100,0.5409090909090909,118,0,9,_Guitar,-1,-1
49,100,0.3181818181818182,383,1,9,_Guitar,-1,-1
49,100,0.3409090909090909,470,0,9,_Guitar,-1,-1
49,100,0.759090909090909,550,0,9,_Guitar,-1,-1
45,100,0.35909090909090907,744,0,9,_Guitar,-1,-1
45,100,0.2772727272727273,831,0,9,_Guitar,-1,-1
45,100,0.2772727272727273,39,1,10,_Guitar,-1,-1
45,100,0.3,211,0,10,_Guitar,-1,-1
45,100,0.740909090909091,295,0,10,_Guitar,-1,-1
45,100,0.2590909090909091,470,0,10,_Guitar,-1,-1
45,100,0.3,567,0,10,_Guitar,-1,-1
45,100,0.3409090909090909,651,0,10,_Guitar,-1,-1
45,100,0.3,735,0,10,_Guitar,-1,-1
45,100,0.2818181818181818,44,1,11,_Guitar,-1,-1
45,100,0.36363636363636365,113,0,11,_Guitar,-1,-1
45,100,0.35909090909090907,197,0,11,_Guitar,-1,-1
45,100,0.3,295,0,11,_Guitar,-1,-1
47,100,0.2,417,0,11,_Guitar,-1,-1
47,100,0.7227272727272728,474,0,11,_Guitar,-1,-1
47,100,0.8409090909090909,716,1,11,_Guitar,-1,-1
59,100,0.11818181818181818,44,1,12,_Guitar,-1,-1
47,100,0.5227272727272727,92,0,12,_Guitar,-1,-1
47,100,0.1590909090909091,216,0,12,_Guitar,-1,-1
47,100,0.5227272727272727,254,0,12,_Guitar,-1,-1
47,100,0.3181818181818182,383,0,12,_Guitar,-1,-1
47,100,0.1,465,0,12,_Guitar,-1,-1
47,100,0.1,519,0,12,_Guitar,-1,-1
47,100,1.4227272727272726,553,0,12,_Guitar,-1,-1
45,100,0.1,30,1,13,_Guitar,-1,-1
57,100,0.37727272727272726,53,0,13,_Guitar,-1,-1
45,100,0.1,135,0,13,_Guitar,-1,-1
45,100,0.11818181818181818,163,0,13,_Guitar,-1,-1
57,100,0.22272727272727272,409,1,13,_Guitar,-1,-1
47,100,0.35909090909090907,563,0,13,_Guitar,-1,-1
47,100,0.22272727272727272,708,0,13,_Guitar,-1,-1
59,100,0.11818181818181818,766,0,13,_Guitar,-1,-1
59,100,0.2409090909090909,840,0,13,_Guitar,-1,-1
64,100,0.11818181818181818,53,1,14,_Guitar,-1,-1
59,100,0.1,92,0,14,_Guitar,-1,-1
47,100,0.2818181818181818,220,0,14,_Guitar,-1,-1
59,100,0.4,285,0,14,_Guitar,-1,-1
64,100,0.2409090909090909,383,0,14,_Guitar,-1,-1
64,100,0.17727272727272728,536,0,14,_Guitar,-1,-1
64,100,0.6227272727272727,598,0,14,_Guitar,-1,-1
52,100,0.21818181818181817,823,1,14,_Guitar,-1,-1
40,100,0.1,34,1,15,_Guitar,-1,-1
52,100,0.1,56,0,15,_Guitar,-1,-1
52,100,0.3,132,0,15,_Guitar,-1,-1
64,100,0.8818181818181818,197,0,15,_Guitar,-1,-1
59,100,0.2,395,0,15,_Guitar,-1,-1
59,100,0.11818181818181818,493,0,15,_Guitar,-1,-1
64,100,0.18181818181818182,553,0,15,_Guitar,-1,-1
47,100,0.12272727272727273,663,0,15,_Guitar,-1,-1
47,100,0.42272727272727273,730,0,15,_Guitar,-1,-1
47,100,0.1409090909090909,69,1,16,_Guitar,-1,-1
59,100,0.2,123,0,16,_Guitar,-1,-1
59,100,0.2409090909090909,175,0,16,_Guitar,-1,-1
52,100,0.2,326,0,16,_Guitar,-1,-1
64,100,0.1,413,0,16,_Guitar,-1,-1
45,100,0.2409090909090909,581,0,16,_Guitar,-1,-1
45,100,0.22272727272727272,673,0,16,_Guitar,-1,-1
64,100,0.12272727272727273,729,0,16,_Guitar,-1,-1
47,100,0.35909090909090907,123,1,17,_Guitar,-1,-1
47,100,0.3181818181818182,220,0,17,_Guitar,-1,-1
59,100,0.1,303,0,17,_Guitar,-1,-1
59,100,0.18181818181818182,333,0,17,_Guitar,-1,-1
47,100,0.11818181818181818,382,0,17,_Guitar,-1,-1
47,100,0.1409090909090909,488,0,17,_Guitar,-1,-1
59,100,0.22272727272727272,519,0,17,_Guitar,-1,-1
47,100,0.33636363636363636,567,0,17,_Guitar,-1,-1
59,100,0.4,646,0,17,_Guitar,-1,-1
59,100,0.18181818181818182,739,0,17,_Guitar,-1,-1
59,100,0.21818181818181817,845,0,17,_Guitar,-1,-1
64,100,0.12272727272727273,113,1,18,_Guitar,-1,-1
52,100,0.2590909090909091,140,0,18,_Guitar,-1,-1
52,100,0.11818181818181818,220,0,18,_Guitar,-1,-1
52,100,0.35909090909090907,308,0,18,_Guitar,-1,-1
52,100,0.17727272727272728,413,0,18,_Guitar,-1,-1
64,100,0.2,752,1,18,_Guitar,-1,-1
61,100,0.1409090909090909,870,0,18,_Guitar,-1,-1
64,100,0.4,26,1,19,_Guitar,-1,-1
64,100,0.1590909090909091,140,0,19,_Guitar,-1,-1
64,100,0.32272727272727275,210,0,19,_Guitar,-1,-1
59,100,0.1,351,0,19,_Guitar,-1,-1
52,100,0.21818181818181817,505,0,19,_Guitar,-1,-1
64,100,0.35909090909090907,563,0,19,_Guitar,-1,-1
57,100,0.2,766,1,19,_Guitar,-1,-1
57,100,0.17727272727272728,30,1,20,_Guitar,-1,-1
64,100,0.1409090909090909,113,0,20,_Guitar,-1,-1
59,100,0.11818181818181818,162,0,20,_Guitar,-1,-1
59,100,0.11818181818181818,206,0,20,_Guitar,-1,-1
47,100,0.38181818181818183,308,0,20,_Guitar,-1,-1
59,100,0.3181818181818182,492,0,20,_Guitar,-1,-1
47,100,0.41818181818181815,656,0,20,_Guitar,-1,-1
47,100,0.2409090909090909,760,0,20,_Guitar,-1,-1
47,100,0.1409090909090909,827,0,20,_Guitar,-1,-1
47,100,0.1,870,0,20,_Guitar,-1,-1
52,100,0.3,136,1,21,_Guitar,-1,-1
64,100,0.11818181818181818,241,0,21,_Guitar,-1,-1
59,100,0.13636363636363635,326,0,21,_Guitar,-1,-1
64,100,0.2409090909090909,364,0,21,_Guitar,-1,-1
52,100,0.38181818181818183,466,0,21,_Guitar,-1,-1
64,100,0.2772727272727273,766,1,21,_Guitar,-1,-1
52,100,0.22272727272727272,752,1,22,_Guitar,-1,-1
64,100,0.1409090909090909,801,0,22,_Guitar,-1,-1
64,100,0.3409090909090909,839,0,22,_Guitar,-1,-1
64,100,0.1409090909090909,382,1,23,_Guitar,-1,-1
64,100,0.21818181818181817,436,0,23,_Guitar,-1,-1
64,100,0.1409090909090909,571,0,23,_Guitar,-1,-1
64,100,0.11818181818181818,615,0,23,_Guitar,-1,-1
52,100,0.35909090909090907,681,0,23,_Guitar,-1,-1
52,100,0.1409090909090909,791,0,23,_Guitar,-1,-1
59,100,0.18181818181818182,839,0,23,_Guitar,-1,-1
64,100,0.11818181818181818,40,1,24,_Guitar,-1,-1
64,100,0.1409090909090909,69,0,24,_Guitar,-1,-1
64,100,0.1409090909090909,233,0,24,_Guitar,-1,-1
45,100,0.17727272727272728,326,0,24,_Guitar,-1,-1
57,100,0.22272727272727272,364,0,24,_Guitar,-1,-1
45,100,0.21818181818181817,413,0,24,_Guitar,-1,-1
45,100,0.1590909090909091,563,0,24,_Guitar,-1,-1
47,100,0.2409090909090909,144,1,25,_Guitar,-1,-1
59,100,0.2590909090909091,233,0,25,_Guitar,-1,-1
59,100,0.2,378,0,25,_Guitar,-1,-1
59,100,0.3409090909090909,466,0,25,_Guitar,-1,-1
47,100,0.2590909090909091,594,0,25,_Guitar,-1,-1
47,100,0.3,669,0,25,_Guitar,-1,-1
47,100,0.2,783,0,25,_Guitar,-1,-1
47,100,0.759090909090909,34,1,26,_Guitar,-1,-1
47,100,0.2818181818181818,220,0,26,_Guitar,-1,-1
40,100,0.4,656,1,26,_Guitar,-1,-1
40,100,0.16363636363636364,752,0,26,_Guitar,-1,-1
40,100,0.1409090909090909,0,1,27,_Guitar,-1,-1
52,100,0.11818181818181818,61,0,27,_Guitar,-1,-1
40,100,0.1590909090909091,154,0,27,_Guitar,-1,-1
40,100,0.2636363636363636,202,0,27,_Guitar,-1,-1
52,100,0.3,299,0,27,_Guitar,-1,-1
59,100,0.13636363636363635,391,0,27,_Guitar,-1,-1
59,100,0.2590909090909091,430,0,27,_Guitar,-1,-1
59,100,0.18181818181818182,497,0,27,_Guitar,-1,-1
59,100,0.1,584,0,27,_Guitar,-1,-1
59,100,0.1409090909090909,691,0,27,_Guitar,-1,-1
64,100,0.1590909090909091,756,0,27,_Guitar,-1,-1
64,100,0.2,853,0,27,_Guitar,-1,-1
59,100,0.21818181818181817,131,1,28,_Guitar,-1,-1
59,100,0.1409090909090909,289,0,28,_Guitar,-1,-1
47,100,0.18181818181818182,333,0,28,_Guitar,-1,-1
59,100,0.4,378,0,28,_Guitar,-1,-1
59,100,0.5,474,0,28,_Guitar,-1,-1
59,100,0.1590909090909091,590,0,28,_Guitar,-1,-1
59,100,0.3,656,0,28,_Guitar,-1,-1
64,100,0.2636363636363636,729,0,28,_Guitar,-1,-1
59,100,0.2,57,1,29,_Guitar,-1,-1
59,100,0.41818181818181815,127,0,29,_Guitar,-1,-1
47,100,0.2772727272727273,590,1,29,_Guitar,-1,-1
47,100,0.1590909090909091,725,0,29,_Guitar,-1,-1
59,100,0.1409090909090909,818,0,29,_Guitar,-1,-1
49,100,0.2818181818181818,48,1,30,_Guitar,-1,-1
61,100,0.2409090909090909,223,0,30,_Guitar,-1,-1
49,100,0.1590909090909091,326,0,30,_Guitar,-1,-1
64,100,0.2409090909090909,576,1,30,_Guitar,-1,-1
59,100,0.17727272727272728,721,0,30,_Guitar,-1,-1
59,100,0.1409090909090909,796,0,30,_Guitar,-1,-1
54,100,0.5181818181818182,831,0,30,_Guitar,-1,-1
59,100,0.4590909090909091,96,1,31,_Guitar,-1,-1
64,100,0.11818181818181818,440,1,31,_Guitar,-1,-1
45,100,0.35909090909090907,646,1,31,_Guitar,-1,-1
45,100,0.1409090909090909,69,1,32,_Guitar,-1,-1
57,100,0.2409090909090909,123,0,32,_Guitar,-1,-1
59,100,0.1590909090909091,590,1,32,_Guitar,-1,-1
47,100,0.11818181818181818,703,0,32,_Guitar,-1,-1
64,100,0.11818181818181818,18,1,33,_Guitar,-1,-1
57,100,0.1590909090909091,233,1,33,_Guitar,-1,-1
52,100,0.3,303,0,33,_Guitar,-1,-1
64,100,0.2409090909090909,664,1,33,_Guitar,-1,-1
47,100,0.2772727272727273,260,1,34,_Guitar,-1,-1
59,100,0.1590909090909091,330,0,34,_Guitar,-1,-1
47,100,0.38181818181818183,386,0,34,_Guitar,-1,-1
59,100,0.3409090909090909,471,0,34,_Guitar,-1,-1
47,100,0.13636363636363635,545,0,34,_Guitar,-1,-1
59,100,0.12272727272727273,686,0,34,_Guitar,-1,-1
59,100,0.18181818181818182,386,1,35,_Guitar,-1,-1
49,100,0.8181818181818182,735,1,35,_Guitar,-1,-1
64,100,0.22272727272727272,201,1,36,_Guitar,-1,-1
49,100,0.21818181818181817,303,0,36,_Guitar,-1,-1
64,100,0.12272727272727273,783,1,36,_Guitar,-1,-1
57,100,0.2818181818181818,836,0,36,_Guitar,-1,-1
64,100,0.2590909090909091,761,1,37,_Guitar,-1,-1
52,100,0.3181818181818182,831,0,37,_Guitar,-1,-1
45,100,0.2409090909090909,43,1,38,_Guitar,-1,-1
52,100,0.13636363636363635,238,0,38,_Guitar,-1,-1
45,100,0.12272727272727273,378,0,38,_Guitar,-1,-1
64,100,0.35909090909090907,383,1,39,_Guitar,-1,-1
40,100,0.3181818181818182,480,0,39,_Guitar,-1,-1
40,100,0.2818181818181818,571,0,39,_Guitar,-1,-1
52,100,0.17727272727272728,646,0,39,_Guitar,-1,-1
40,100,0.1409090909090909,694,0,39,_Guitar,-1,-1
40,100,0.3,751,0,39,_Guitar,-1,-1
52,100,0.12272727272727273,826,0,39,_Guitar,-1,-1
40,100,0.2,853,0,39,_Guitar,-1,-1
40,100,0.2590909090909091,56,1,40,_Guitar,-1,-1
40,100,0.2,150,0,40,_Guitar,-1,-1
52,100,0.2,206,0,40,_Guitar,-1,-1
40,100,0.1409090909090909,251,0,40,_Guitar,-1,-1
40,100,0.21818181818181817,316,0,40,_Guitar,-1,-1
40,100,0.21818181818181817,413,0,40,_Guitar,-1,-1
52,100,0.12272727272727273,474,0,40,_Guitar,-1,-1
40,100,0.2,501,0,40,_Guitar,-1,-1
40,100,0.2818181818181818,571,0,40,_Guitar,-1,-1
40,100,0.2,681,0,40,_Guitar,-1,-1
52,100,0.13636363636363635,743,0,40,_Guitar,-1,-1
40,100,0.16363636363636364,774,0,40,_Guitar,-1,-1
40,100,0.23636363636363636,853,0,40,_Guitar,-1,-1
47,100,0.38181818181818183,179,1,41,_Guitar,-1,-1
47,100,0.1590909090909091,295,0,41,_Guitar,-1,-1
47,100,0.38181818181818183,466,0,41,_Guitar,-1,-1
47,100,0.7181818181818181,646,0,41,_Guitar,-1,-1
47,100,0.3409090909090909,34,1,42,_Guitar,-1,-1
47,100,0.35909090909090907,123,0,42,_Guitar,-1,-1
47,100,0.32272727272727275,298,0,42,_Guitar,-1,-1
47,100,0.35909090909090907,471,0,42,_Guitar,-1,-1
59,100,0.16363636363636364,554,0,42,_Guitar,-1,-1
47,100,0.1590909090909091,590,0,42,_Guitar,-1,-1
49,100,0.4,721,0,42,_Guitar,-1,-1
49,100,0.36363636363636365,818,0,42,_Guitar,-1,-1
61,100,0.11818181818181818,110,1,43,_Guitar,-1,-1
49,100,1.0636363636363637,136,0,43,_Guitar,-1,-1
49,100,0.3,391,1,43,_Guitar,-1,-1
49,100,0.38181818181818183,554,0,43,_Guitar,-1,-1
49,100,0.36363636363636365,641,0,43,_Guitar,-1,-1
49,100,0.35909090909090907,836,0,43,_Guitar,-1,-1
49,100,0.2772727272727273,40,1,44,_Guitar,-1,-1
61,100,0.2,114,0,44,_Guitar,-1,-1
61,100,0.33636363636363636,171,0,44,_Guitar,-1,-1
57,100,0.21818181818181817,330,0,44,_Guitar,-1,-1
45,100,0.3181818181818182,396,0,44,_Guitar,-1,-1
45,100,0.2818181818181818,488,0,44,_Guitar,-1,-1
57,100,0.42272727272727273,584,0,44,_Guitar,-1,-1
57,100,0.11818181818181818,691,0,44,_Guitar,-1,-1
57,100,0.12272727272727273,738,0,44,_Guitar,-1,-1
45,100,0.3181818181818182,831,0,44,_Guitar,-1,-1
45,100,0.2,40,1,45,_Guitar,-1,-1
45,100,0.35909090909090907,295,1,45,_Guitar,-1,-1
57,100,0.2,408,0,45,_Guitar,-1,-1
45,100,0.2590909090909091,496,0,45,_Guitar,-1,-1
57,100,0.2818181818181818,576,0,45,_Guitar,-1,-1
45,100,0.35909090909090907,646,0,45,_Guitar,-1,-1
45,100,0.22272727272727272,738,0,45,_Guitar,-1,-1
64,100,0.35909090909090907,364,1,46,_Guitar,-1,-1
45,100,0.13636363636363635,523,0,46,_Guitar,-1,-1
59,100,0.2772727272727273,646,0,46,_Guitar,-1,-1
47,100,0.4772727272727273,735,0,46,_Guitar,-1,-1
59,100,0.1590909090909091,845,0,46,_Guitar,-1,-1
47,100,0.2772727272727273,31,1,47,_Guitar,-1,-1
59,100,0.16363636363636364,91,0,47,_Guitar,-1,-1
47,100,0.4772727272727273,128,0,47,_Guitar,-1,-1
59,100,0.4,466,1,47,_Guitar,-1,-1
49,100,0.17727272727272728,141,1,48,_Guitar,-1,-1
61,100,0.1590909090909091,211,0,48,_Guitar,-1,-1
59,100,0.2,334,0,48,_Guitar,-1,-1
49,100,0.32272727272727275,386,0,48,_Guitar,-1,-1
49,100,0.2590909090909091,584,1,48,_Guitar,-1,-1
49,100,0.13636363636363635,810,1,48,_Guitar,-1,-1
61,100,0.12272727272727273,48,1,49,_Guitar,-1,-1
57,100,0.22272727272727272,224,0,49,_Guitar,-1,-1
59,100,0.2,496,1,49,_Guitar,-1,-1
45,100,0.2409090909090909,651,0,49,_Guitar,-1,-1
57,100,0.17727272727272728,735,0,49,_Guitar,-1,-1
54,100,0.21818181818181817,61,1,50,_Guitar,-1,-1
57,100,0.2409090909090909,131,0,50,_Guitar,-1,-1
45,100,0.2409090909090909,408,1,50,_Guitar,-1,-1
54,100,0.2409090909090909,576,0,50,_Guitar,-1,-1
47,100,0.1590909090909091,703,0,50,_Guitar,-1,-1
47,100,0.1409090909090909,748,0,50,_Guitar,-1,-1
47,100,0.3409090909090909,826,0,50,_Guitar,-1,-1
47,100,0.3,123,1,51,_Guitar,-1,-1
47,100,0.35909090909090907,206,0,51,_Guitar,-1,-1
47,100,0.4,295,0,51,_Guitar,-1,-1
47,100,0.2409090909090909,584,1,51,_Guitar,-1,-1
59,100,0.12272727272727273,861,1,51,_Guitar,-1,-1
40,100,0.7818181818181819,298,1,52,_Guitar,-1,-1
40,100,0.18181818181818182,483,0,52,_Guitar,-1,-1
52,100,0.13636363636363635,523,0,52,_Guitar,-1,-1
40,100,0.36363636363636365,554,0,52,_Guitar,-1,-1
52,100,0.1590909090909091,633,0,52,_Guitar,-1,-1
40,100,0.4409090909090909,668,0,52,_Guitar,-1,-1
40,100,0.6181818181818182,831,0,52,_Guitar,-1,-1
52,100,0.1590909090909091,88,1,53,_Guitar,-1,-1
40,100,0.4818181818181818,123,0,53,_Guitar,-1,-1
40,100,0.21818181818181817,241,0,53,_Guitar,-1,-1
40,100,0.11818181818181818,330,0,53,_Guitar,-1,-1
64,100,0.1,386,0,53,_Guitar,-1,-1
40,100,0.2818181818181818,408,0,53,_Guitar,-1,-1
40,100,0.6227272727272727,474,0,53,_Guitar,-1,-1
52,100,0.17727272727272728,633,0,53,_Guitar,-1,-1
40,100,0.18181818181818182,673,0,53,_Guitar,-1,-1
64,100,0.13636363636363635,721,0,53,_Guitar,-1,-1
52,100,0.3,765,0,53,_Guitar,-1,-1
64,100,0.11818181818181818,831,0,53,_Guitar,-1,-1
52,100,0.2590909090909091,858,0,53,_Guitar,-1,-1
52,100,0.3,40,1,54,_Guitar,-1,-1
52,100,0.17727272727272728,215,0,54,_Guitar,-1,-1
57,100,0.2409090909090909,295,0,54,_Guitar,-1,-1
64,100,0.1590909090909091,550,1,54,_Guitar,-1,-1
52,100,0.35909090909090907,593,0,54,_Guitar,-1,-1
52,100,0.21818181818181817,128,1,55,_Guitar,-1,-1
47,100,0.36363636363636365,466,1,56,_Guitar,-1,-1
47,100,0.1409090909090909,593,0,56,_Guitar,-1,-1
59,100,0.43636363636363634,633,0,56,_Guitar,-1,-1
47,100,0.1409090909090909,738,0,56,_Guitar,-1,-1
47,100,0.4818181818181818,804,0,56,_Guitar,-1,-1
47,100,0.2409090909090909,48,1,57,_Guitar,-1,-1
40,100,0.17727272727272728,128,0,57,_Guitar,-1,-1
52,100,0.18181818181818182,166,0,57,_Guitar,-1,-1
40,100,0.35909090909090907,206,0,57,_Guitar,-1,-1
40,100,0.4,295,0,57,_Guitar,-1,-1
40,100,0.3409090909090909,396,0,57,_Guitar,-1,-1
40,100,0.6818181818181818,488,0,57,_Guitar,-1,-1
40,100,0.5,641,0,57,_Guitar,-1,-1
40,100,0.11818181818181818,778,0,57,_Guitar,-1,-1
40,100,0.21818181818181817,853,0,57,_Guitar,-1,-1
40,100,0.38181818181818183,198,1,58,_Guitar,-1,-1
40,100,0.3181818181818182,316,0,58,_Guitar,-1,-1
52,100,0.1590909090909091,413,0,58,_Guitar,-1,-1
40,100,0.1590909090909091,474,0,58,_Guitar,-1,-1
52,100,0.13636363636363635,853,1,58,_Guitar,-1,-1
52,100,0.1590909090909091,78,1,59,_Guitar,-1,-1
52,100,0.1409090909090909,153,0,59,_Guitar,-1,-1
52,100,0.1409090909090909,220,0,59,_Guitar,-1,-1
52,100,0.2,308,0,59,_Guitar,-1,-1
64,100,0.1590909090909091,351,0,59,_Guitar,-1,-1
59,100,0.11818181818181818,480,0,59,_Guitar,-1,-1
47,100,0.3409090909090909,131,1,60,_Guitar,-1,-1
49,100,0.2590909090909091,584,1,61,_Guitar,-1,-1
61,100,0.2818181818181818,748,0,61,_Guitar,-1,-1
59,100,0.1,655,1,62,_Guitar,-1,-1
64,100,0.22272727272727272,123,1,63,_Guitar,-1,-1
54,100,0.2590909090909091,298,0,63,_Guitar,-1,-1
64,100,0.12272727272727273,408,0,63,_Guitar,-1,-1
64,100,0.22272727272727272,488,0,63,_Guitar,-1,-1
40,100,0.7227272727272728,563,0,63,_Guitar,-1,-1
40,100,0.1590909090909091,761,1,63,_Guitar,-1,-1
40,100,0.4,823,0,63,_Guitar,-1,-1
59,100,0.2,62,1,64,_Guitar,-1,-1
40,100,0.41818181818181815,106,0,64,_Guitar,-1,-1
40,100,1.1181818181818182,220,0,64,_Guitar,-1,-1
40,100,0.7181818181818181,480,1,64,_Guitar,-1,-1
40,100,0.1590909090909091,650,0,64,_Guitar,-1,-1
59,100,0.17727272727272728,713,0,64,_Guitar,-1,-1
40,100,0.16363636363636364,752,0,64,_Guitar,-1,-1
40,100,0.2818181818181818,836,0,64,_Guitar,-1,-1
40,100,0.38181818181818183,22,1,65,_Guitar,-1,-1
64,100,0.3409090909090909,289,1,65,_Guitar,-1,-1
57,100,0.3,377,0,65,_Guitar,-1,-1
45,100,0.32272727272727275,475,0,65,_Guitar,-1,-1
47,100,0.2590909090909091,766,1,65,_Guitar,-1,-1
47,100,0.1,870,0,65,_Guitar,-1,-1
47,100,0.3409090909090909,35,1,66,_Guitar,-1,-1
47,100,0.4590909090909091,123,0,66,_Guitar,-1,-1
47,100,0.38181818181818183,289,0,66,_Guitar,-1,-1
47,100,0.38181818181818183,377,0,66,_Guitar,-1,-1
47,100,0.21818181818181817,470,0,66,_Guitar,-1,-1
49,100,1.4,682,1,66,_Guitar,-1,-1
49,100,0.35909090909090907,119,1,67,_Guitar,-1,-1
49,100,0.3,330,1,67,_Guitar,-1,-1
49,100,0.42272727272727273,509,0,67,_Guitar,-1,-1
61,100,0.17727272727272728,656,0,67,_Guitar,-1,-1
49,100,0.1,734,0,67,_Guitar,-1,-1
61,100,0.18181818181818182,826,0,67,_Guitar,-1,-1
49,100,0.37727272727272726,30,1,68,_Guitar,-1,-1
49,100,0.13636363636363635,127,0,68,_Guitar,-1,-1
52,100,0.11818181818181818,417,1,68,_Guitar,-1,-1
45,100,0.1590909090909091,629,1,68,_Guitar,-1,-1
64,100,0.4590909090909091,726,0,68,_Guitar,-1,-1
59,100,0.1,140,1,69,_Guitar,-1,-1
59,100,0.22272727272727272,166,0,69,_Guitar,-1,-1
47,100,0.1590909090909091,216,0,69,_Guitar,-1,-1
47,100,0.1409090909090909,286,0,69,_Guitar,-1,-1
47,100,0.2,326,0,69,_Guitar,-1,-1
59,100,0.33636363636363636,392,0,69,_Guitar,-1,-1
59,100,0.1,496,0,69,_Guitar,-1,-1
59,100,0.21818181818181817,567,0,69,_Guitar,-1,-1
59,100,0.1409090909090909,779,1,69,_Guitar,-1,-1
49,100,0.1409090909090909,857,0,69,_Guitar,-1,-1
49,100,0.4590909090909091,17,1,70,_Guitar,-1,-1
61,100,0.17727272727272728,229,1,70,_Guitar,-1,-1
49,100,0.1409090909090909,294,0,70,_Guitar,-1,-1
49,100,0.35909090909090907,426,0,70,_Guitar,-1,-1
49,100,0.1590909090909091,540,0,70,_Guitar,-1,-1
56,100,0.1590909090909091,660,0,70,_Guitar,-1,-1
49,100,0.11818181818181818,813,0,70,_Guitar,-1,-1
49,100,0.5590909090909091,857,0,70,_Guitar,-1,-1
49,100,0.12272727272727273,157,1,71,_Guitar,-1,-1
56,100,0.2,303,0,71,_Guitar,-1,-1
45,100,0.1409090909090909,673,1,71,_Guitar,-1,-1
52,100,0.13636363636363635,787,0,71,_Guitar,-1,-1
57,100,0.11818181818181818,127,1,72,_Guitar,-1,-1
47,100,0.18181818181818182,246,0,72,_Guitar,-1,-1
47,100,0.35909090909090907,326,0,72,_Guitar,-1,-1
47,100,0.6,417,0,72,_Guitar,-1,-1
49,100,0.4,197,1,73,_Guitar,-1,-1
61,100,0.1590909090909091,307,0,73,_Guitar,-1,-1
49,100,0.1,343,0,73,_Guitar,-1,-1
49,100,0.1409090909090909,422,0,73,_Guitar,-1,-1
61,100,0.33636363636363636,480,0,73,_Guitar,-1,-1
61,100,0.11818181818181818,590,0,73,_Guitar,-1,-1
49,100,0.11818181818181818,616,0,73,_Guitar,-1,-1
61,100,0.18181818181818182,739,0,73,_Guitar,-1,-1
49,100,0.43636363636363634,17,1,74,_Guitar,-1,-1
49,100,0.18181818181818182,166,0,74,_Guitar,-1,-1
49,100,0.4409090909090909,286,0,74,_Guitar,-1,-1
59,100,0.18181818181818182,572,1,74,_Guitar,-1,-1
61,100,0.4590909090909091,726,0,74,_Guitar,-1,-1
61,100,0.11818181818181818,74,1,75,_Guitar,-1,-1
54,100,0.2590909090909091,233,0,75,_Guitar,-1,-1
56,100,0.3,483,1,75,_Guitar,-1,-1
52,100,0.2,409,1,76,_Guitar,-1,-1
59,100,0.17727272727272728,493,0,76,_Guitar,-1,-1
64,100,0.2409090909090909,576,0,76,_Guitar,-1,-1
45,100,0.18181818181818182,673,0,76,_Guitar,-1,-1
40,100,0.11818181818181818,832,0,76,_Guitar,-1,-1
47,100,0.18181818181818182,246,1,77,_Guitar,-1,-1
59,100,0.1,289,0,77,_Guitar,-1,-1
47,100,0.2772727272727273,523,1,77,_Guitar,-1,-1
47,100,0.21818181818181817,713,0,77,_Guitar,-1,-1
59,100,0.1,813,0,77,_Guitar,-1,-1
47,100,0.3409090909090909,132,1,78,_Guitar,-1,-1
47,100,0.3,399,1,78,_Guitar,-1,-1
59,100,0.18181818181818182,475,0,78,_Guitar,-1,-1
64,100,0.1409090909090909,475,1,79,_Guitar,-1,-1
64,100,0.1590909090909091,519,0,79,_Guitar,-1,-1
59,100,0.4590909090909091,572,0,79,_Guitar,-1,-1
40,100,0.4409090909090909,756,0,79,_Guitar,-1,-1
52,100,0.1409090909090909,0,1,80,_Guitar,-1,-1
52,100,0.1,62,0,80,_Guitar,-1,-1
52,100,0.12272727272727273,233,0,80,_Guitar,-1,-1
64,100,0.2,422,0,80,_Guitar,-1,-1
52,100,0.4772727272727273,546,0,80,_Guitar,-1,-1
52,100,0.17727272727272728,743,0,80,_Guitar,-1,-1
59,100,0.42272727272727273,805,0,80,_Guitar,-1,-1
47,100,0.6,242,1,81,_Guitar,-1,-1
47,100,0.11818181818181818,493,1,81,_Guitar,-1,-1
47,100,0.11818181818181818,527,0,81,_Guitar,-1,-1
59,100,0.38181818181818183,637,0,81,_Guitar,-1,-1
47,100,0.2,866,1,81,_Guitar,-1,-1
47,100,0.1,179,1,82,_Guitar,-1,-1
59,100,0.18181818181818182,299,0,82,_Guitar,-1,-1
59,100,0.2772727272727273,404,0,82,_Guitar,-1,-1
59,100,0.2772727272727273,470,0,82,_Guitar,-1,-1
64,100,0.3409090909090909,734,1,82,_Guitar,-1,-1
64,100,0.5,26,1,83,_Guitar,-1,-1
64,100,0.6,157,0,83,_Guitar,-1,-1
64,100,0.1590909090909091,559,1,83,_Guitar,-1,-1
64,100,0.2,646,0,83,_Guitar,-1,-1
64,100,0.11818181818181818,743,0,83,_Guitar,-1,-1
64,100,0.2,123,1,84,_Guitar,-1,-1
64,100,0.13636363636363635,172,0,84,_Guitar,-1,-1
64,100,0.3,242,0,84,_Guitar,-1,-1
64,100,0.2409090909090909,312,0,84,_Guitar,-1,-1
64,100,0.3181818181818182,373,0,84,_Guitar,-1,-1
59,100,0.1,470,0,84,_Guitar,-1,-1
52,100,0.3,663,0,84,_Guitar,-1,-1
52,100,0.11818181818181818,787,0,84,_Guitar,-1,-1
59,100,0.18181818181818182,839,0,84,_Guitar,-1,-1
59,100,0.1,30,1,85,_Guitar,-1,-1
47,100,0.32272727272727275,136,0,85,_Guitar,-1,-1
47,100,0.22272727272727272,365,1,85,_Guitar,-1,-1
47,100,0.6818181818181818,417,0,85,_Guitar,-1,-1
59,100,0.2409090909090909,756,1,85,_Guitar,-1,-1
64,100,0.22272727272727272,826,0,85,_Guitar,-1,-1
64,100,0.11818181818181818,30,1,86,_Guitar,-1,-1
64,100,0.1409090909090909,74,0,86,_Guitar,-1,-1
52,100,0.32272727272727275,377,1,86,_Guitar,-1,-1
59,100,0.41818181818181815,470,0,86,_Guitar,-1,-1
59,100,0.1,663,0,86,_Guitar,-1,-1
47,100,0.22272727272727272,686,0,86,_Guitar,-1,-1
59,100,0.2409090909090909,813,0,86,_Guitar,-1,-1
59,100,0.22272727272727272,13,1,87,_Guitar,-1,-1
59,100,0.2409090909090909,74,0,87,_Guitar,-1,-1
59,100,0.1,197,0,87,_Guitar,-1,-1
59,100,0.1,294,0,87,_Guitar,-1,-1
47,100,0.18181818181818182,330,0,87,_Guitar,-1,-1
47,100,0.1,404,0,87,_Guitar,-1,-1
64,100,0.35909090909090907,483,0,87,_Guitar,-1,-1
61,100,0.2409090909090909,747,1,87,_Guitar,-1,-1
49,100,0.3,229,1,88,_Guitar,-1,-1
49,100,0.3181818181818182,392,0,88,_Guitar,-1,-1
49,100,0.21818181818181817,523,0,88,_Guitar,-1,-1
59,100,0.32272727272727275,453,1,89,_Guitar,-1,-1
59,100,0.22272727272727272,145,1,90,_Guitar,-1,-1
59,100,0.2,352,1,90,_Guitar,-1,-1
59,100,0.1590909090909091,404,0,90,_Guitar,-1,-1
59,100,0.2590909090909091,590,0,90,_Guitar,-1,-1
64,100,0.2590909090909091,87,1,91,_Guitar,-1,-1
59,100,0.21818181818181817,392,1,91,_Guitar,-1,-1
64,100,0.1409090909090909,483,0,91,_Guitar,-1,-1
47,100,0.38181818181818183,826,1,91,_Guitar,-1,-1
52,100,0.1,62,1,92,_Guitar,-1,-1
64,100,0.1,140,0,92,_Guitar,-1,-1
59,100,0.1409090909090909,197,0,92,_Guitar,-1,-1
59,100,0.2409090909090909,233,0,92,_Guitar,-1,-1
52,100,0.2818181818181818,299,0,92,_Guitar,-1,-1
64,100,0.1590909090909091,360,0,92,_Guitar,-1,-1
52,100,0.16363636363636364,399,0,92,_Guitar,-1,-1
64,100,0.22272727272727272,553,0,92,_Guitar,-1,-1
59,100,0.4409090909090909,210,1,93,_Guitar,-1,-1
59,100,0.22272727272727272,377,0,93,_Guitar,-1,-1
59,100,0.1590909090909091,603,1,93,_Guitar,-1,-1
59,100,0.2409090909090909,770,0,93,_Guitar,-1,-1
64,100,0.2818181818181818,132,1,94,_Guitar,-1,-1
64,100,0.1409090909090909,220,0,94,_Guitar,-1,-1
64,100,0.22272727272727272,430,1,94,_Guitar,-1,-1
49,100,0.2,509,0,94,_Guitar,-1,-1
49,100,0.11818181818181818,792,1,94,_Guitar,-1,-1
49,100,0.11818181818181818,9,1,95,_Guitar,-1,-1
64,100,0.1590909090909091,123,0,95,_Guitar,-1,-1
64,100,0.11818181818181818,303,0,95,_Guitar,-1,-1
52,100,0.12272727272727273,650,1,95,_Guitar,-1,-1
59,100,0.42272727272727273,356,1,96,_Guitar,-1,-1
59,100,0.3409090909090909,585,1,96,_Guitar,-1,-1
59,100,0.13636363636363635,83,1,97,_Guitar,-1,-1
49,100,0.3409090909090909,123,0,97,_Guitar,-1,-1
64,100,0.13636363636363635,260,0,97,_Guitar,-1,-1
64,100,0.1409090909090909,496,1,97,_Guitar,-1,-1
64,100,0.2636363636363636,597,0,97,_Guitar,-1,-1
49,100,0.4818181818181818,663,0,97,_Guitar,-1,-1
64,100,0.5818181818181818,826,0,97,_Guitar,-1,-1
64,100,0.2590909090909091,100,1,98,_Guitar,-1,-1
52,100,0.1409090909090909,157,0,98,_Guitar,-1,-1
64,100,0.22272727272727272,189,0,98,_Guitar,-1,-1
57,100,0.12272727272727273,783,1,98,_Guitar,-1,-1
64,100,0.1,197,1,99,_Guitar,-1,-1
52,100,0.35909090909090907,220,0,99,_Guitar,-1,-1
52,100,0.13636363636363635,326,0,99,_Guitar,-1,-1
59,100,0.1,690,1,99,_Guitar,-1,-1
59,100,0.1590909090909091,716,0,99,_Guitar,-1,-1
47,100,0.35909090909090907,123,1,100,_Guitar,-1,-1
64,100,0.11818181818181818,514,1,100,_Guitar,-1,-1
59,100,0.12272727272727273,695,0,100,_Guitar,-1,-1
64,100,0.2,832,0,100,_Guitar,-1,-1
59,100,0.11818181818181818,612,1,101,_Guitar,-1,-1
59,100,0.1590909090909091,787,0,101,_Guitar,-1,-1
59,100,0.1590909090909091,172,1,102,_Guitar,-1,-1
56,100,0.6818181818181818,660,1,102,_Guitar,-1,-1
59,100,0.1409090909090909,255,1,103,_Guitar,-1,-1
59,100,0.1590909090909091,470,1,103,_Guitar,-1,-1
47,100,0.18181818181818182,509,0,103,_Guitar,-1,-1
59,100,0.1409090909090909,69,1,104,_Guitar,-1,-1
59,100,0.4409090909090909,343,1,104,_Guitar,-1,-1
47,100,0.38181818181818183,145,1,105,_Guitar,-1,-1
45,100,0.5590909090909091,770,1,106,_Guitar,-1,-1
59,100,0.7,62,1,107,_Guitar,-1,-1
59,100,0.32272727272727275,233,0,107,_Guitar,-1,-1
47,100,0.2,585,1,107,_Guitar,-1,-1
47,100,0.3,660,0,107,_Guitar,-1,-1
47,100,0.22272727272727272,862,1,107,_Guitar,-1,-1
47,100,0.4409090909090909,189,1,108,_Guitar,-1,-1
49,100,0.5,576,1,108,_Guitar,-1,-1
49,100,0.1590909090909091,703,0,108,_Guitar,-1,-1
59,100,0.2590909090909091,779,0,108,_Guitar,-1,-1
49,100,0.2409090909090909,157,1,109,_Guitar,-1,-1
49,100,0.33636363636363636,216,0,109,_Guitar,-1,-1
54,100,0.1,857,1,109,_Guitar,-1,-1
49,100,0.5772727272727273,30,1,110,_Guitar,-1,-1
54,100,1.7,179,0,110,_Guitar,-1,-1
56,100,0.1590909090909091,572,1,110,_Guitar,-1,-1
47,100,0.36363636363636365,707,0,110,_Guitar,-1,-1
47,100,0.11818181818181818,792,0,110,_Guitar,-1,-1
59,100,0.12272727272727273,255,1,111,_Guitar,-1,-1
47,100,0.6,326,0,111,_Guitar,-1,-1
49,100,0.1,646,1,111,_Guitar,-1,-1
49,100,0.2,673,0,111,_Guitar,-1,-1
59,100,0.17727272727272728,83,1,112,_Guitar,-1,-1
49,100,0.1409090909090909,642,1,112,_Guitar,-1,-1
64,100,1.1636363636363636,729,0,112,_Guitar,-1,-1
52,100,0.2,210,1,113,_Guitar,-1,-1
59,100,0.2818181818181818,747,1,113,_Guitar,-1,-1
47,100,0.4590909090909091,22,1,114,_Guitar,-1,-1
59,100,0.3181818181818182,127,0,114,_Guitar,-1,-1
59,100,0.1,606,1,114,_Guitar,-1,-1
64,100,0.18181818181818182,66,1,115,_Guitar,-1,-1
64,100,0.4409090909090909,206,0,115,_Guitar,-1,-1
64,100,0.3,386,0,115,_Guitar,-1,-1
64,100,0.4409090909090909,726,1,115,_Guitar,-1,-1
64,100,0.2,832,0,115,_Guitar,-1,-1
64,100,0.3409090909090909,22,1,116,_Guitar,-1,-1
64,100,0.1,127,0,116,_Guitar,-1,-1
64,100,0.1,197,0,116,_Guitar,-1,-1
59,100,0.22272727272727272,233,0,116,_Guitar,-1,-1
54,100,0.1409090909090909,646,1,116,_Guitar,-1,-1
59,100,0.42272727272727273,35,1,117,_Guitar,-1,-1
59,100,0.3,132,0,117,_Guitar,-1,-1
47,100,0.38181818181818183,202,0,117,_Guitar,-1,-1
47,100,0.1,307,0,117,_Guitar,-1,-1
47,100,0.11818181818181818,352,0,117,_Guitar,-1,-1
59,100,0.1,716,1,117,_Guitar,-1,-1
59,100,0.37727272727272726,119,1,118,_Guitar,-1,-1
64,100,0.2409090909090909,233,0,118,_Guitar,-1,-1
59,100,0.3409090909090909,383,0,118,_Guitar,-1,-1
52,100,0.22272727272727272,496,0,118,_Guitar,-1,-1
64,100,0.1409090909090909,660,0,118,_Guitar,-1,-1
40,100,0.18181818181818182,862,1,118,_Guitar,-1,-1
40,100,0.3,40,1,119,_Guitar,-1,-1
59,100,0.2590909090909091,756,1,119,_Guitar,-1,-1
52,100,0.2409090909090909,56,1,120,_Guitar,-1,-1
59,100,0.2636363636363636,202,0,120,_Guitar,-1,-1
59,100,0.21818181818181817,426,1,120,_Guitar,-1,-1
47,100,0.1409090909090909,536,0,120,_Guitar,-1,-1
59,100,0.1409090909090909,739,1,120,_Guitar,-1,-1
59,100,0.1,796,0,120,_Guitar,-1,-1
59,100,0.4409090909090909,823,0,120,_Guitar,-1,-1
64,100,0.23636363636363636,392,1,121,_Guitar,-1,-1
64,100,0.1590909090909091,475,0,121,_Guitar,-1,-1
49,100,0.3181818181818182,656,0,121,_Guitar,-1,-1
59,100,0.3181818181818182,43,1,122,_Guitar,-1,-1
64,100,0.18181818181818182,123,0,122,_Guitar,-1,-1
64,100,0.36363636363636365,289,0,122,_Guitar,-1,-1
64,100,0.21818181818181817,404,0,122,_Guitar,-1,-1
59,100,0.2,695,1,122,_Guitar,-1,-1
59,100,0.2,752,0,122,_Guitar,-1,-1
59,100,0.2636363636363636,399,1,123,_Guitar,-1,-1
64,100,0.1590909090909091,800,1,123,_Guitar,-1,-1
64,100,0.2590909090909091,849,0,123,_Guitar,-1,-1
59,100,0.1,30,1,124,_Guitar,-1,-1
59,100,0.2590909090909091,62,0,124,_Guitar,-1,-1
59,100,0.21818181818181817,417,1,124,_Guitar,-1,-1
59,100,0.11818181818181818,483,0,124,_Guitar,-1,-1
59,100,0.1,576,0,124,_Guitar,-1,-1
59,100,0.5772727272727273,603,0,124,_Guitar,-1,-1
59,100,0.2772727272727273,756,0,124,_Guitar,-1,-1
59,100,0.2,153,1,125,_Guitar,-1,-1
47,100,0.2,294,0,125,_Guitar,-1,-1
47,100,0.2,509,1,125,_Guitar,-1,-1
47,100,0.2409090909090909,716,1,125,_Guitar,-1,-1
59,100,0.6590909090909091,172,1,126,_Guitar,-1,-1
59,100,0.5409090909090909,365,0,126,_Guitar,-1,-1
54,100,0.6363636363636364,722,1,126,_Guitar,-1,-1
47,100,0.8227272727272728,210,1,127,_Guitar,-1,-1
59,100,1.4772727272727273,546,1,128,_Guitar,-1,-1
47,100,0.1590909090909091,0,1,129,_Guitar,-1,-1
59,100,0.12272727272727273,70,0,129,_Guitar,-1,-1
52,100,1.940909090909091,118,0,129,_Guitar,-1,-1
52,100,0.1590909090909091,580,1,129,_Guitar,-1,-1
52,100,0.13636363636363635,743,0,129,_Guitar,-1,-1
47,100,2.577272727272727,823,0,129,_Guitar,-1,-1
59,100,0.1,527,1,130,_Guitar,-1,-1
47,100,0.3,550,0,130,_Guitar,-1,-1
49,100,1.540909090909091,641,0,130,_Guitar,-1,-1
64,100,0.6818181818181818,232,1,131,_Guitar,-1,-1
64,100,0.13636363636363635,436,1,131,_Guitar,-1,-1
45,100,0.7818181818181819,474,0,131,_Guitar,-1,-1
64,100,0.35909090909090907,656,0,131,_Guitar,-1,-1
59,100,0.2,751,0,131,_Guitar,-1,-1
64,100,0.4409090909090909,189,1,132,_Guitar,-1,-1
52,100,1.3,285,0,132,_Guitar,-1,-1
40,100,0.2,589,1,132,_Guitar,-1,-1
52,100,0.3,633,0,132,_Guitar,-1,-1
47,100,2.5,118,1,133,_Guitar,-1,-1
47,100,0.5590909090909091,694,1,133,_Guitar,-1,-1
52,100,0.2818181818181818,197,1,134,_Guitar,-1,-1
47,100,0.2,637,1,134,_Guitar,-1,-1
59,100,0.11818181818181818,690,0,134,_Guitar,-1,-1
47,100,0.1590909090909091,761,0,134,_Guitar,-1,-1
47,100,0.2,0,1,135,_Guitar,-1,-1
47,100,0.5181818181818182,128,0,135,_Guitar,-1,-1
47,100,0.13636363636363635,413,1,135,_Guitar,-1,-1
47,100,0.13636363636363635,589,0,135,_Guitar,-1,-1
47,100,0.18181818181818182,716,0,135,_Guitar,-1,-1
64,100,0.6818181818181818,770,0,135,_Guitar,-1,-1
64,100,0.1409090909090909,44,1,136,_Guitar,-1,-1
47,100,0.759090909090909,75,0,136,_Guitar,-1,-1
59,100,0.3,840,1,136,_Guitar,-1,-1
52,100,0.35909090909090907,207,1,137,_Guitar,-1,-1
40,100,0.11818181818181818,348,0,137,_Guitar,-1,-1
59,100,0.21818181818181817,458,0,137,_Guitar,-1,-1
59,100,0.1409090909090909,510,0,137,_Guitar,-1,-1
56,100,0.13636363636363635,678,0,137,_Guitar,-1,-1
56,100,0.1590909090909091,747,0,137,_Guitar,-1,-1
57,100,0.4590909090909091,53,1,138,_Guitar,-1,-1
57,100,0.3409090909090909,207,0,138,_Guitar,-1,-1
52,100,0.21818181818181817,835,1,138,_Guitar,-1,-1
57,100,0.17727272727272728,118,1,139,_Guitar,-1,-1
57,100,0.41818181818181815,197,0,139,_Guitar,-1,-1
59,100,0.2818181818181818,311,0,139,_Guitar,-1,-1
59,100,0.1590909090909091,562,1,139,_Guitar,-1,-1
59,100,0.11818181818181818,603,0,139,_Guitar,-1,-1
52,100,0.11818181818181818,678,0,139,_Guitar,-1,-1
64,100,0.1,735,0,139,_Guitar,-1,-1
52,100,0.11818181818181818,800,0,139,_Guitar,-1,-1
52,100,0.7,106,1,140,_Guitar,-1,-1
56,100,0.2409090909090909,299,0,140,_Guitar,-1,-1
59,100,0.18181818181818182,826,1,140,_Guitar,-1,-1
45,100,0.2,254,1,141,_Guitar,-1,-1
52,100,0.4590909090909091,391,0,141,_Guitar,-1,-1
52,100,0.1409090909090909,505,0,141,_Guitar,-1,-1
57,100,0.1,589,0,141,_Guitar,-1,-1
45,100,0.3409090909090909,735,0,141,_Guitar,-1,-1
59,100,0.42272727272727273,246,1,142,_Guitar,-1,-1
45,100,0.4,470,1,142,_Guitar,-1,-1
52,100,0.1,699,1,142,_Guitar,-1,-1
52,100,0.1,804,0,142,_Guitar,-1,-1
52,100,0.759090909090909,849,0,142,_Guitar,-1,-1
52,100,0.1409090909090909,158,1,143,_Guitar,-1,-1
52,100,0.11818181818181818,307,0,143,_Guitar,-1,-1
52,100,0.2409090909090909,405,0,143,_Guitar,-1,-1
40,100,0.2590909090909091,458,0,143,_Guitar,-1,-1
52,100,0.38181818181818183,519,0,143,_Guitar,-1,-1
40,100,0.17727272727272728,656,0,143,_Guitar,-1,-1
47,100,0.1,770,0,143,_Guitar,-1,-1
47,100,0.1,8,1,144,_Guitar,-1,-1
64,100,0.1,30,0,144,_Guitar,-1,-1
52,100,0.13636363636363635,479,1,144,_Guitar,-1,-1
53,100,0.22272727272727272,488,1,0,DL_Remix_Guitar,-1,-1
58,100,0.21818181818181817,682,0,0,DL_Remix_Guitar,-1,-1
58,100,0.5818181818181818,748,0,0,DL_Remix_Guitar,-1,-1
62,100,0.6636363636363637,4,1,1,DL_Remix_Guitar,-1,-1
53,100,0.37727272727272726,163,0,1,DL_Remix_Guitar,-1,-1
58,100,0.18181818181818182,255,0,1,DL_Remix_Guitar,-1,-1
51,100,0.740909090909091,311,0,1,DL_Remix_Guitar,-1,-1
51,100,0.21818181818181817,550,1,1,DL_Remix_Guitar,-1,-1
63,100,0.12272727272727273,597,0,1,DL_Remix_Guitar,-1,-1
51,100,0.11818181818181818,625,0,1,DL_Remix_Guitar,-1,-1
63,100,0.5,651,0,1,DL_Remix_Guitar,-1,-1
58,100,0.3409090909090909,823,0,1,DL_Remix_Guitar,-1,-1
53,100,0.2818181818181818,21,1,2,DL_Remix_Guitar,-1,-1
60,100,0.3409090909090909,220,1,2,DL_Remix_Guitar,-1,-1
60,100,0.32272727272727275,541,1,2,DL_Remix_Guitar,-1,-1
46,100,0.16363636363636364,642,0,2,DL_Remix_Guitar,-1,-1
46,100,0.12272727272727273,26,1,3,DL_Remix_Guitar,-1,-1
53,100,0.9,61,0,3,DL_Remix_Guitar,-1,-1
58,100,0.3409090909090909,263,1,3,DL_Remix_Guitar,-1,-1
53,100,0.12272727272727273,364,0,3,DL_Remix_Guitar,-1,-1
43,100,0.5181818181818182,546,0,3,DL_Remix_Guitar,-1,-1
53,100,0.32272727272727275,818,1,3,DL_Remix_Guitar,-1,-1
58,100,0.12272727272727273,56,1,4,DL_Remix_Guitar,-1,-1
51,100,0.7227272727272728,91,0,4,DL_Remix_Guitar,-1,-1
58,100,0.1409090909090909,255,0,4,DL_Remix_Guitar,-1,-1
51,100,0.11818181818181818,370,0,4,DL_Remix_Guitar,-1,-1
51,100,0.2818181818181818,399,0,4,DL_Remix_Guitar,-1,-1
63,100,0.5409090909090909,532,0,4,DL_Remix_Guitar,-1,-1
53,100,0.2,695,0,4,DL_Remix_Guitar,-1,-1
41,100,0.1590909090909091,739,0,4,DL_Remix_Guitar,-1,-1
41,100,0.1590909090909091,778,0,4,DL_Remix_Guitar,-1,-1
53,100,0.8818181818181818,813,0,4,DL_Remix_Guitar,-1,-1
41,100,0.2,458,1,5,DL_Remix_Guitar,-1,-1
41,100,0.2,506,0,5,DL_Remix_Guitar,-1,-1
41,100,0.4,48,1,6,DL_Remix_Guitar,-1,-1
46,100,0.6590909090909091,150,0,6,DL_Remix_Guitar,-1,-1
46,100,0.7772727272727272,788,1,6,DL_Remix_Guitar,-1,-1
46,100,0.4,87,1,7,DL_Remix_Guitar,-1,-1
46,100,0.4409090909090909,201,0,7,DL_Remix_Guitar,-1,-1
46,100,0.1409090909090909,330,0,7,DL_Remix_Guitar,-1,-1
46,100,0.6,501,0,7,DL_Remix_Guitar,-1,-1
46,100,0.32272727272727275,25,1,8,DL_Remix_Guitar,-1,-1
46,100,0.2,233,1,8,DL_Remix_Guitar,-1,-1
46,100,0.3181818181818182,285,0,8,DL_Remix_Guitar,-1,-1
46,100,0.11818181818181818,479,0,8,DL_Remix_Guitar,-1,-1
43,100,0.2,831,1,8,DL_Remix_Guitar,-1,-1
43,100,0.16363636363636364,48,1,9,DL_Remix_Guitar,-1,-1
43,100,1.1818181818181819,840,1,9,DL_Remix_Guitar,-1,-1
62,100,0.1590909090909091,220,1,10,DL_Remix_Guitar,-1,-1
50,100,0.740909090909091,264,0,10,DL_Remix_Guitar,-1,-1
50,100,0.11818181818181818,448,0,10,DL_Remix_Guitar,-1,-1
50,100,0.1,273,1,11,DL_Remix_Guitar,-1,-1
50,100,1.1409090909090909,321,0,11,DL_Remix_Guitar,-1,-1
51,100,0.1409090909090909,629,1,11,DL_Remix_Guitar,-1,-1
51,100,0.9772727272727273,668,0,11,DL_Remix_Guitar,-1,-1
51,100,0.33636363636363636,61,1,12,DL_Remix_Guitar,-1,-1
51,100,0.2772727272727273,140,0,12,DL_Remix_Guitar,-1,-1
51,100,1.759090909090909,405,1,12,DL_Remix_Guitar,-1,-1
50,100,0.8818181818181818,44,1,13,DL_Remix_Guitar,-1,-1
50,100,0.12272727272727273,276,1,13,DL_Remix_Guitar,-1,-1
43,100,0.12272727272727273,685,1,13,DL_Remix_Guitar,-1,-1
43,100,0.6636363636363637,752,0,13,DL_Remix_Guitar,-1,-1
62,100,0.6227272727272727,166,1,14,DL_Remix_Guitar,-1,-1
62,100,0.21818181818181817,307,0,14,DL_Remix_Guitar,-1,-1
48,100,0.6409090909090909,405,0,14,DL_Remix_Guitar,-1,-1
58,100,0.22272727272727272,862,1,14,DL_Remix_Guitar,-1,-1
62,100,0.21818181818181817,360,1,15,DL_Remix_Guitar,-1,-1
58,100,0.6409090909090909,563,1,15,DL_Remix_Guitar,-1,-1
53,100,0.32272727272727275,716,0,15,DL_Remix_Guitar,-1,-1
58,100,0.35909090909090907,162,1,16,DL_Remix_Guitar,-1,-1
53,100,1.018181818181818,413,1,16,DL_Remix_Guitar,-1,-1
60,100,1.0,822,1,16,DL_Remix_Guitar,-1,-1
46,100,0.7227272727272728,179,1,17,DL_Remix_Guitar,-1,-1
53,100,0.1409090909090909,34,1,18,DL_Remix_Guitar,-1,-1
46,100,0.5409090909090909,189,0,18,DL_Remix_Guitar,-1,-1
53,100,0.1409090909090909,430,1,18,DL_Remix_Guitar,-1,-1
53,100,0.2,474,0,18,DL_Remix_Guitar,-1,-1
46,100,0.4772727272727273,546,0,18,DL_Remix_Guitar,-1,-1
58,100,0.4590909090909091,835,1,18,DL_Remix_Guitar,-1,-1
53,100,0.1409090909090909,804,1,19,DL_Remix_Guitar,-1,-1
46,100,0.740909090909091,845,0,19,DL_Remix_Guitar,-1,-1
46,100,0.11818181818181818,260,1,20,DL_Remix_Guitar,-1,-1
46,100,0.3181818181818182,418,0,20,DL_Remix_Guitar,-1,-1
53,100,0.5181818181818182,492,0,20,DL_Remix_Guitar,-1,-1
50,100,0.35909090909090907,638,0,20,DL_Remix_Guitar,-1,-1
53,100,0.11818181818181818,725,0,20,DL_Remix_Guitar,-1,-1
58,100,0.35909090909090907,611,1,21,DL_Remix_Guitar,-1,-1
58,100,0.1,694,0,21,DL_Remix_Guitar,-1,-1
62,100,0.8181818181818182,770,0,21,DL_Remix_Guitar,-1,-1
50,100,1.0818181818181818,79,1,22,DL_Remix_Guitar,-1,-1
58,100,0.6772727272727272,347,1,22,DL_Remix_Guitar,-1,-1
50,100,0.1409090909090909,615,1,22,DL_Remix_Guitar,-1,-1
50,100,0.2590909090909091,650,0,22,DL_Remix_Guitar,-1,-1
50,100,0.7636363636363637,773,0,22,DL_Remix_Guitar,-1,-1
50,100,0.5,550,1,23,DL_Remix_Guitar,-1,-1
50,100,0.2772727272727273,721,0,23,DL_Remix_Guitar,-1,-1
50,100,0.35909090909090907,853,0,23,DL_Remix_Guitar,-1,-1
51,100,1.3772727272727272,83,1,24,DL_Remix_Guitar,-1,-1
58,100,0.1590909090909091,413,1,24,DL_Remix_Guitar,-1,-1
51,100,1.0772727272727274,602,0,24,DL_Remix_Guitar,-1,-1
58,100,0.2,370,1,25,DL_Remix_Guitar,-1,-1
50,100,1.3409090909090908,426,0,25,DL_Remix_Guitar,-1,-1
50,100,0.2,44,1,26,DL_Remix_Guitar,-1,-1
50,100,0.3181818181818182,374,1,26,DL_Remix_Guitar,-1,-1
50,100,0.5818181818181818,466,0,26,DL_Remix_Guitar,-1,-1
63,100,0.9409090909090909,449,1,27,DL_Remix_Guitar,-1,-1
63,100,0.3409090909090909,708,1,27,DL_Remix_Guitar,-1,-1
63,100,0.11818181818181818,65,1,28,DL_Remix_Guitar,-1,-1
63,100,0.21818181818181817,119,0,28,DL_Remix_Guitar,-1,-1
53,100,0.18181818181818182,202,0,28,DL_Remix_Guitar,-1,-1
41,100,0.11818181818181818,316,0,28,DL_Remix_Guitar,-1,-1
48,100,0.6772727272727272,360,0,28,DL_Remix_Guitar,-1,-1
48,100,0.12272727272727273,694,1,28,DL_Remix_Guitar,-1,-1
48,100,0.5590909090909091,831,0,28,DL_Remix_Guitar,-1,-1
53,100,0.2409090909090909,553,1,29,DL_Remix_Guitar,-1,-1
46,100,0.1409090909090909,615,0,29,DL_Remix_Guitar,-1,-1
53,100,0.1,787,0,29,DL_Remix_Guitar,-1,-1
53,100,0.3409090909090909,858,0,29,DL_Remix_Guitar,-1,-1
53,100,0.1,289,1,30,DL_Remix_Guitar,-1,-1
53,100,0.5363636363636364,413,0,30,DL_Remix_Guitar,-1,-1
53,100,0.4590909090909091,581,0,30,DL_Remix_Guitar,-1,-1
53,100,0.12272727272727273,760,0,30,DL_Remix_Guitar,-1,-1
53,100,0.2818181818181818,791,0,30,DL_Remix_Guitar,-1,-1
50,100,1.040909090909091,65,1,31,DL_Remix_Guitar,-1,-1
50,100,1.040909090909091,378,1,31,DL_Remix_Guitar,-1,-1
50,100,1.1,663,1,31,DL_Remix_Guitar,-1,-1
58,100,0.5227272727272727,201,1,32,DL_Remix_Guitar,-1,-1
51,100,0.8181818181818182,330,0,32,DL_Remix_Guitar,-1,-1
51,100,0.5409090909090909,515,0,32,DL_Remix_Guitar,-1,-1
51,100,0.4,664,0,32,DL_Remix_Guitar,-1,-1
53,100,0.1409090909090909,804,0,32,DL_Remix_Guitar,-1,-1
58,100,0.2590909090909091,836,0,32,DL_Remix_Guitar,-1,-1
53,100,0.38181818181818183,13,1,33,DL_Remix_Guitar,-1,-1
53,100,0.5590909090909091,105,0,33,DL_Remix_Guitar,-1,-1
53,100,0.38181818181818183,378,1,33,DL_Remix_Guitar,-1,-1
53,100,0.4636363636363636,554,0,33,DL_Remix_Guitar,-1,-1
55,100,0.43636363636363634,678,0,33,DL_Remix_Guitar,-1,-1
55,100,0.2772727272727273,215,1,34,DL_Remix_Guitar,-1,-1
53,100,0.18181818181818182,321,0,34,DL_Remix_Guitar,-1,-1
60,100,0.16363636363636364,421,0,34,DL_Remix_Guitar,-1,-1
41,100,0.35909090909090907,458,0,34,DL_Remix_Guitar,-1,-1
41,100,0.3409090909090909,606,0,34,DL_Remix_Guitar,-1,-1
53,100,1.2,681,0,34,DL_Remix_Guitar,-1,-1
53,100,0.18181818181818182,69,1,35,DL_Remix_Guitar,-1,-1
50,100,0.1409090909090909,286,1,35,DL_Remix_Guitar,-1,-1
50,100,0.17727272727272728,545,1,35,DL_Remix_Guitar,-1,-1
63,100,0.1409090909090909,75,1,36,DL_Remix_Guitar,-1,-1
53,100,0.6409090909090909,311,1,36,DL_Remix_Guitar,-1,-1
53,100,0.8590909090909091,458,0,36,DL_Remix_Guitar,-1,-1
53,100,0.2590909090909091,694,1,36,DL_Remix_Guitar,-1,-1
53,100,0.9,756,0,36,DL_Remix_Guitar,-1,-1
53,100,0.1590909090909091,88,1,37,DL_Remix_Guitar,-1,-1
50,100,0.1409090909090909,364,1,37,DL_Remix_Guitar,-1,-1
53,100,0.2590909090909091,721,1,37,DL_Remix_Guitar,-1,-1
63,100,0.17727272727272728,163,1,38,DL_Remix_Guitar,-1,-1
53,100,0.1590909090909091,518,1,38,DL_Remix_Guitar,-1,-1
53,100,0.1409090909090909,638,0,38,DL_Remix_Guitar,-1,-1
53,100,0.5409090909090909,694,0,38,DL_Remix_Guitar,-1,-1
58,100,0.1409090909090909,233,1,39,DL_Remix_Guitar,-1,-1
46,100,0.2590909090909091,263,0,39,DL_Remix_Guitar,-1,-1
46,100,0.21818181818181817,646,1,39,DL_Remix_Guitar,-1,-1
45,100,0.3,861,1,39,DL_Remix_Guitar,-1,-1
60,100,0.5818181818181818,431,1,40,DL_Remix_Guitar,-1,-1
43,100,0.32272727272727275,584,0,40,DL_Remix_Guitar,-1,-1
50,100,0.4772727272727273,8,1,41,DL_Remix_Guitar,-1,-1
58,100,0.11818181818181818,251,1,41,DL_Remix_Guitar,-1,-1
51,100,0.11818181818181818,303,0,41,DL_Remix_Guitar,-1,-1
51,100,0.7,338,0,41,DL_Remix_Guitar,-1,-1
51,100,0.7772727272727272,590,1,41,DL_Remix_Guitar,-1,-1
58,100,0.41818181818181815,801,1,41,DL_Remix_Guitar,-1,-1
53,100,0.2590909090909091,31,1,42,DL_Remix_Guitar,-1,-1
53,100,0.18181818181818182,91,0,42,DL_Remix_Guitar,-1,-1
53,100,0.1409090909090909,638,1,42,DL_Remix_Guitar,-1,-1
53,100,0.740909090909091,791,0,42,DL_Remix_Guitar,-1,-1
53,100,0.42272727272727273,334,1,43,DL_Remix_Guitar,-1,-1
48,100,1.059090909090909,431,0,43,DL_Remix_Guitar,-1,-1
53,100,0.11818181818181818,700,1,43,DL_Remix_Guitar,-1,-1
53,100,0.2590909090909091,13,1,44,DL_Remix_Guitar,-1,-1
55,100,0.2590909090909091,144,0,44,DL_Remix_Guitar,-1,-1
53,100,0.1409090909090909,233,0,44,DL_Remix_Guitar,-1,-1
55,100,0.21818181818181817,303,0,44,DL_Remix_Guitar,-1,-1
53,100,0.11818181818181818,545,1,44,DL_Remix_Guitar,-1,-1
58,100,0.6590909090909091,668,1,45,DL_Remix_Guitar,-1,-1
58,100,0.4772727272727273,875,1,45,DL_Remix_Guitar,-1,-1
51,100,0.4,163,1,46,DL_Remix_Guitar,-1,-1
51,100,0.11818181818181818,281,0,46,DL_Remix_Guitar,-1,-1
51,100,0.2409090909090909,383,0,46,DL_Remix_Guitar,-1,-1
51,100,0.21818181818181817,480,0,46,DL_Remix_Guitar,-1,-1
58,100,0.1409090909090909,550,0,46,DL_Remix_Guitar,-1,-1
58,100,0.12272727272727273,619,0,46,DL_Remix_Guitar,-1,-1
46,100,0.1409090909090909,668,0,46,DL_Remix_Guitar,-1,-1
53,100,0.8,761,0,46,DL_Remix_Guitar,-1,-1
48,100,0.1590909090909091,66,1,47,DL_Remix_Guitar,-1,-1
48,100,0.8181818181818182,215,0,47,DL_Remix_Guitar,-1,-1
53,100,0.22272727272727272,408,0,47,DL_Remix_Guitar,-1,-1
53,100,0.2818181818181818,804,1,47,DL_Remix_Guitar,-1,-1
50,100,0.5772727272727273,163,1,48,DL_Remix_Guitar,-1,-1
60,100,0.2,373,1,48,DL_Remix_Guitar,-1,-1
57,100,0.1,703,1,48,DL_Remix_Guitar,-1,-1
53,100,0.12272727272727273,751,0,48,DL_Remix_Guitar,-1,-1
53,100,0.2409090909090909,418,1,49,DL_Remix_Guitar,-1,-1
46,100,0.12272727272727273,518,0,49,DL_Remix_Guitar,-1,-1
46,100,0.5590909090909091,568,0,49,DL_Remix_Guitar,-1,-1
46,100,0.4,751,0,49,DL_Remix_Guitar,-1,-1
58,100,0.41818181818181815,43,1,50,DL_Remix_Guitar,-1,-1
55,100,0.32272727272727275,364,1,50,DL_Remix_Guitar,-1,-1
55,100,0.41818181818181815,440,0,50,DL_Remix_Guitar,-1,-1
53,100,0.4409090909090909,861,1,50,DL_Remix_Guitar,-1,-1
58,100,0.1590909090909091,144,1,51,DL_Remix_Guitar,-1,-1
48,100,0.2,193,0,51,DL_Remix_Guitar,-1,-1
58,100,0.9772727272727273,383,0,51,DL_Remix_Guitar,-1,-1
46,100,0.5181818181818182,633,1,51,DL_Remix_Guitar,-1,-1
53,100,0.16363636363636364,751,0,51,DL_Remix_Guitar,-1,-1
53,100,0.5409090909090909,801,0,51,DL_Remix_Guitar,-1,-1
53,100,0.35909090909090907,188,1,52,DL_Remix_Guitar,-1,-1
53,100,0.16363636363636364,334,0,52,DL_Remix_Guitar,-1,-1
53,100,0.3,386,0,52,DL_Remix_Guitar,-1,-1
53,100,0.21818181818181817,480,0,52,DL_Remix_Guitar,-1,-1
53,100,0.2,536,0,52,DL_Remix_Guitar,-1,-1
53,100,0.2590909090909091,646,0,52,DL_Remix_Guitar,-1,-1
53,100,0.5,858,1,52,DL_Remix_Guitar,-1,-1
46,100,0.4772727272727273,238,1,53,DL_Remix_Guitar,-1,-1
53,100,0.4818181818181818,373,0,53,DL_Remix_Guitar,-1,-1
53,100,0.23636363636363636,523,0,53,DL_Remix_Guitar,-1,-1
53,100,0.11818181818181818,593,0,53,DL_Remix_Guitar,-1,-1
53,100,0.1409090909090909,668,0,53,DL_Remix_Guitar,-1,-1
53,100,0.12272727272727273,751,0,53,DL_Remix_Guitar,-1,-1
53,100,0.1590909090909091,813,0,53,DL_Remix_Guitar,-1,-1
53,100,0.3409090909090909,88,1,54,DL_Remix_Guitar,-1,-1
48,100,0.1409090909090909,251,0,54,DL_Remix_Guitar,-1,-1
53,100,0.17727272727272728,348,0,54,DL_Remix_Guitar,-1,-1
58,100,0.22272727272727272,541,0,54,DL_Remix_Guitar,-1,-1
55,100,0.2409090909090909,488,1,55,DL_Remix_Guitar,-1,-1
53,100,0.1590909090909091,678,0,55,DL_Remix_Guitar,-1,-1
51,100,0.9772727272727273,743,0,55,DL_Remix_Guitar,-1,-1
51,100,0.6590909090909091,166,1,56,DL_Remix_Guitar,-1,-1
58,100,0.18181818181818182,321,0,56,DL_Remix_Guitar,-1,-1
51,100,0.1590909090909091,364,0,56,DL_Remix_Guitar,-1,-1
53,100,0.2409090909090909,466,0,56,DL_Remix_Guitar,-1,-1
53,100,0.9590909090909091,756,1,56,DL_Remix_Guitar,-1,-1
53,100,0.2,91,1,57,DL_Remix_Guitar,-1,-1
53,100,0.5590909090909091,141,0,57,DL_Remix_Guitar,-1,-1
58,100,0.1409090909090909,263,0,57,DL_Remix_Guitar,-1,-1
53,100,0.6,334,0,57,DL_Remix_Guitar,-1,-1
53,100,0.23636363636363636,633,1,57,DL_Remix_Guitar,-1,-1
53,100,0.2590909090909091,726,0,57,DL_Remix_Guitar,-1,-1
53,100,0.11818181818181818,61,1,58,DL_Remix_Guitar,-1,-1
53,100,0.22272727272727272,188,0,58,DL_Remix_Guitar,-1,-1
53,100,0.4,241,0,58,DL_Remix_Guitar,-1,-1
53,100,0.1590909090909091,458,1,58,DL_Remix_Guitar,-1,-1
46,100,0.2818181818181818,751,1,58,DL_Remix_Guitar,-1,-1
53,100,0.3181818181818182,18,1,59,DL_Remix_Guitar,-1,-1
53,100,0.42272727272727273,101,0,59,DL_Remix_Guitar,-1,-1
53,100,0.35909090909090907,558,1,59,DL_Remix_Guitar,-1,-1
53,100,0.23636363636363636,788,1,59,DL_Remix_Guitar,-1,-1
58,100,0.18181818181818182,91,1,60,DL_Remix_Guitar,-1,-1
58,100,0.3181818181818182,501,1,60,DL_Remix_Guitar,-1,-1
58,100,0.4,633,0,60,DL_Remix_Guitar,-1,-1
58,100,0.1409090909090909,801,0,60,DL_Remix_Guitar,-1,-1
53,100,0.18181818181818182,0,1,61,DL_Remix_Guitar,-1,-1
53,100,0.16363636363636364,246,1,61,DL_Remix_Guitar,-1,-1
51,100,1.2818181818181817,321,0,61,DL_Remix_Guitar,-1,-1
51,100,0.42272727272727273,641,1,61,DL_Remix_Guitar,-1,-1
46,100,0.35909090909090907,826,0,61,DL_Remix_Guitar,-1,-1
58,100,0.11818181818181818,105,1,62,DL_Remix_Guitar,-1,-1
46,100,0.3,131,0,62,DL_Remix_Guitar,-1,-1
53,100,0.5181818181818182,348,1,62,DL_Remix_Guitar,-1,-1
53,100,0.1409090909090909,584,1,62,DL_Remix_Guitar,-1,-1
63,100,0.2,4,1,63,DL_Remix_Guitar,-1,-1
58,100,0.4,118,0,63,DL_Remix_Guitar,-1,-1
58,100,0.18181818181818182,308,0,63,DL_Remix_Guitar,-1,-1
53,100,0.5,378,0,63,DL_Remix_Guitar,-1,-1
53,100,0.21818181818181817,493,0,63,DL_Remix_Guitar,-1,-1
51,100,1.259090909090909,716,1,64,DL_Remix_Guitar,-1,-1
51,100,0.2,145,1,65,DL_Remix_Guitar,-1,-1
63,100,0.32272727272727275,189,0,65,DL_Remix_Guitar,-1,-1
51,100,0.6,282,0,65,DL_Remix_Guitar,-1,-1
50,100,1.1409090909090909,470,0,65,DL_Remix_Guitar,-1,-1
50,100,0.5409090909090909,756,1,65,DL_Remix_Guitar,-1,-1
53,100,0.2,92,1,66,DL_Remix_Guitar,-1,-1
58,100,0.37727272727272726,612,1,66,DL_Remix_Guitar,-1,-1
48,100,0.18181818181818182,286,1,67,DL_Remix_Guitar,-1,-1
53,100,0.2590909090909091,493,1,67,DL_Remix_Guitar,-1,-1
53,100,0.16363636363636364,553,0,67,DL_Remix_Guitar,-1,-1
53,100,0.11818181818181818,593,0,67,DL_Remix_Guitar,-1,-1
53,100,0.11818181818181818,624,0,67,DL_Remix_Guitar,-1,-1
58,100,0.11818181818181818,66,1,68,DL_Remix_Guitar,-1,-1
46,100,0.1409090909090909,157,0,68,DL_Remix_Guitar,-1,-1
46,100,0.2409090909090909,383,1,68,DL_Remix_Guitar,-1,-1
51,100,0.13636363636363635,480,0,68,DL_Remix_Guitar,-1,-1
53,100,0.5409090909090909,686,1,68,DL_Remix_Guitar,-1,-1
53,100,0.1409090909090909,273,1,69,DL_Remix_Guitar,-1,-1
58,100,0.1409090909090909,399,0,69,DL_Remix_Guitar,-1,-1
53,100,0.18181818181818182,430,0,69,DL_Remix_Guitar,-1,-1
58,100,0.2409090909090909,470,0,69,DL_Remix_Guitar,-1,-1
48,100,0.3,206,1,70,DL_Remix_Guitar,-1,-1
60,100,0.1409090909090909,316,0,70,DL_Remix_Guitar,-1,-1
48,100,0.35909090909090907,559,1,70,DL_Remix_Guitar,-1,-1
48,100,0.16363636363636364,642,0,70,DL_Remix_Guitar,-1,-1
48,100,0.3,734,0,70,DL_Remix_Guitar,-1,-1
48,100,0.12272727272727273,805,0,70,DL_Remix_Guitar,-1,-1
48,100,0.1590909090909091,836,0,70,DL_Remix_Guitar,-1,-1
55,100,0.4818181818181818,682,1,71,DL_Remix_Guitar,-1,-1
58,100,0.4,800,0,71,DL_Remix_Guitar,-1,-1
55,100,0.22272727272727272,69,1,72,DL_Remix_Guitar,-1,-1
58,100,0.3409090909090909,179,0,72,DL_Remix_Guitar,-1,-1
51,100,0.5227272727272727,399,1,72,DL_Remix_Guitar,-1,-1
51,100,0.41818181818181815,536,0,72,DL_Remix_Guitar,-1,-1
51,100,0.11818181818181818,690,0,72,DL_Remix_Guitar,-1,-1
48,100,0.1409090909090909,320,1,73,DL_Remix_Guitar,-1,-1
50,100,0.21818181818181817,770,1,73,DL_Remix_Guitar,-1,-1
50,100,0.1409090909090909,844,0,73,DL_Remix_Guitar,-1,-1
53,100,0.1,413,1,74,DL_Remix_Guitar,-1,-1
55,100,0.1590909090909091,475,0,74,DL_Remix_Guitar,-1,-1
51,100,0.3181818181818182,206,1,75,DL_Remix_Guitar,-1,-1
51,100,0.1409090909090909,316,0,75,DL_Remix_Guitar,-1,-1
51,100,0.5818181818181818,453,0,75,DL_Remix_Guitar,-1,-1
51,100,0.3,585,0,75,DL_Remix_Guitar,-1,-1
53,100,0.11818181818181818,656,0,75,DL_Remix_Guitar,-1,-1
53,100,0.35909090909090907,734,0,75,DL_Remix_Guitar,-1,-1
63,100,0.2772727272727273,303,1,76,DL_Remix_Guitar,-1,-1
46,100,0.2,457,0,76,DL_Remix_Guitar,-1,-1
53,100,0.22272727272727272,619,0,76,DL_Remix_Guitar,-1,-1
46,100,0.1409090909090909,707,0,76,DL_Remix_Guitar,-1,-1
53,100,0.11818181818181818,770,0,76,DL_Remix_Guitar,-1,-1
53,100,0.11818181818181818,800,0,76,DL_Remix_Guitar,-1,-1
53,100,0.4590909090909091,836,0,76,DL_Remix_Guitar,-1,-1
53,100,0.33636363636363636,502,1,77,DL_Remix_Guitar,-1,-1
53,100,0.4,637,0,77,DL_Remix_Guitar,-1,-1
53,100,0.18181818181818182,729,0,77,DL_Remix_Guitar,-1,-1
58,100,0.35909090909090907,119,1,78,DL_Remix_Guitar,-1,-1
53,100,0.2772727272727273,383,1,78,DL_Remix_Guitar,-1,-1
53,100,0.3409090909090909,527,0,78,DL_Remix_Guitar,-1,-1
53,100,0.1409090909090909,703,0,78,DL_Remix_Guitar,-1,-1
48,100,0.1409090909090909,770,0,78,DL_Remix_Guitar,-1,-1
53,100,0.7,817,0,78,DL_Remix_Guitar,-1,-1
53,100,0.3,106,1,79,DL_Remix_Guitar,-1,-1
46,100,0.1590909090909091,409,1,79,DL_Remix_Guitar,-1,-1
46,100,0.4,449,0,79,DL_Remix_Guitar,-1,-1
53,100,0.3,567,0,79,DL_Remix_Guitar,-1,-1
53,100,0.17727272727272728,677,0,79,DL_Remix_Guitar,-1,-1
57,100,0.3,716,0,79,DL_Remix_Guitar,-1,-1
57,100,0.11818181818181818,813,0,79,DL_Remix_Guitar,-1,-1
51,100,0.6409090909090909,866,0,79,DL_Remix_Guitar,-1,-1
51,100,0.38181818181818183,157,1,80,DL_Remix_Guitar,-1,-1
53,100,0.3,157,1,81,DL_Remix_Guitar,-1,-1
58,100,0.22272727272727272,246,0,81,DL_Remix_Guitar,-1,-1
53,100,0.2590909090909091,316,0,81,DL_Remix_Guitar,-1,-1
53,100,0.32272727272727275,453,0,81,DL_Remix_Guitar,-1,-1
48,100,0.22272727272727272,540,0,81,DL_Remix_Guitar,-1,-1
53,100,0.2,597,0,81,DL_Remix_Guitar,-1,-1
53,100,0.3,766,0,81,DL_Remix_Guitar,-1,-1
53,100,0.6818181818181818,26,1,82,DL_Remix_Guitar,-1,-1
53,100,0.1590909090909091,193,0,82,DL_Remix_Guitar,-1,-1
53,100,0.1,233,0,82,DL_Remix_Guitar,-1,-1
53,100,0.1,343,0,82,DL_Remix_Guitar,-1,-1
53,100,0.3181818181818182,506,0,82,DL_Remix_Guitar,-1,-1
53,100,0.11818181818181818,612,0,82,DL_Remix_Guitar,-1,-1
41,100,0.17727272727272728,677,0,82,DL_Remix_Guitar,-1,-1
60,100,0.18181818181818182,770,0,82,DL_Remix_Guitar,-1,-1
53,100,0.2409090909090909,13,1,83,DL_Remix_Guitar,-1,-1
41,100,0.11818181818181818,74,0,83,DL_Remix_Guitar,-1,-1
51,100,1.1409090909090909,430,1,85,DL_Remix_Guitar,-1,-1
51,100,0.1409090909090909,686,1,85,DL_Remix_Guitar,-1,-1
53,100,0.3181818181818182,303,1,86,DL_Remix_Guitar,-1,-1
48,100,0.22272727272727272,343,1,87,DL_Remix_Guitar,-1,-1
53,100,0.22272727272727272,553,1,87,DL_Remix_Guitar,-1,-1
53,100,0.38181818181818183,606,0,87,DL_Remix_Guitar,-1,-1
53,100,0.5181818181818182,866,1,87,DL_Remix_Guitar,-1,-1
46,100,0.1,580,1,88,DL_Remix_Guitar,-1,-1
46,100,0.9409090909090909,606,0,88,DL_Remix_Guitar,-1,-1
53,100,0.23636363636363636,832,1,88,DL_Remix_Guitar,-1,-1
46,100,0.3,22,1,89,DL_Remix_Guitar,-1,-1
46,100,0.3,255,1,89,DL_Remix_Guitar,-1,-1
46,100,8.25909090909091,360,0,89,DL_Remix_Guitar,-1,-1
58,100,1.481818181818182,343,1,1,DL_MelancholicFolk_Guitar,-1,-1
58,100,2.7181818181818183,681,1,1,DL_MelancholicFolk_Guitar,-1,-1
58,100,1.2818181818181817,461,1,2,DL_MelancholicFolk_Guitar,-1,-1
53,100,0.7227272727272728,752,1,2,DL_MelancholicFolk_Guitar,-1,-1
60,100,0.8409090909090909,34,1,3,DL_MelancholicFolk_Guitar,-1,-1
60,100,2.6227272727272726,223,0,3,DL_MelancholicFolk_Guitar,-1,-1
41,100,0.11818181818181818,801,1,3,DL_MelancholicFolk_Guitar,-1,-1
60,100,0.2,827,0,3,DL_MelancholicFolk_Guitar,-1,-1
41,100,0.7227272727272728,12,1,4,DL_MelancholicFolk_Guitar,-1,-1
60,100,0.3181818181818182,194,0,4,DL_MelancholicFolk_Guitar,-1,-1
55,100,0.8227272727272728,276,0,4,DL_MelancholicFolk_Guitar,-1,-1
62,100,0.7,462,0,4,DL_MelancholicFolk_Guitar,-1,-1
62,100,0.21818181818181817,682,1,4,DL_MelancholicFolk_Guitar,-1,-1
62,100,0.5409090909090909,558,1,5,DL_MelancholicFolk_Guitar,-1,-1
51,100,0.7636363636363637,685,0,5,DL_MelancholicFolk_Guitar,-1,-1
58,100,0.11818181818181818,128,1,6,DL_MelancholicFolk_Guitar,-1,-1
58,100,0.2409090909090909,184,0,6,DL_MelancholicFolk_Guitar,-1,-1
51,100,0.1409090909090909,664,1,6,DL_MelancholicFolk_Guitar,-1,-1
51,100,1.1818181818181819,132,1,7,DL_MelancholicFolk_Guitar,-1,-1
58,100,0.1590909090909091,541,1,7,DL_MelancholicFolk_Guitar,-1,-1
51,100,0.35909090909090907,56,1,8,DL_MelancholicFolk_Guitar,-1,-1
51,100,1.1818181818181819,154,0,8,DL_MelancholicFolk_Guitar,-1,-1
51,100,0.2818181818181818,417,1,8,DL_MelancholicFolk_Guitar,-1,-1
51,100,0.5818181818181818,484,0,8,DL_MelancholicFolk_Guitar,-1,-1
53,100,0.8227272727272728,620,0,8,DL_MelancholicFolk_Guitar,-1,-1
41,100,0.4409090909090909,801,0,8,DL_MelancholicFolk_Guitar,-1,-1
60,100,0.8409090909090909,206,1,9,DL_MelancholicFolk_Guitar,-1,-1
41,100,0.2590909090909091,405,1,9,DL_MelancholicFolk_Guitar,-1,-1
41,100,0.1409090909090909,470,0,9,DL_MelancholicFolk_Guitar,-1,-1
41,100,1.3818181818181818,505,0,9,DL_MelancholicFolk_Guitar,-1,-1
41,100,0.37727272727272726,823,1,9,DL_MelancholicFolk_Guitar,-1,-1
60,100,0.4409090909090909,25,1,10,DL_MelancholicFolk_Guitar,-1,-1
46,100,1.4772727272727273,149,0,10,DL_MelancholicFolk_Guitar,-1,-1
46,100,4.3,488,1,10,DL_MelancholicFolk_Guitar,-1,-1
46,100,0.6590909090909091,572,1,11,DL_MelancholicFolk_Guitar,-1,-1
46,100,3.6,730,0,11,DL_MelancholicFolk_Guitar,-1,-1
46,100,0.16363636363636364,663,1,12,DL_MelancholicFolk_Guitar,-1,-1
46,100,0.2818181818181818,730,0,12,DL_MelancholicFolk_Guitar,-1,-1
46,100,0.2590909090909091,826,0,12,DL_MelancholicFolk_Guitar,-1,-1
46,100,0.21818181818181817,8,1,13,DL_MelancholicFolk_Guitar,-1,-1
58,100,0.1,56,0,13,DL_MelancholicFolk_Guitar,-1,-1
50,100,0.7772727272727272,84,0,13,DL_MelancholicFolk_Guitar,-1,-1
50,100,0.21818181818181817,264,0,13,DL_MelancholicFolk_Guitar,-1,-1
50,100,0.3181818181818182,338,0,13,DL_MelancholicFolk_Guitar,-1,-1
62,100,0.11818181818181818,831,1,13,DL_MelancholicFolk_Guitar,-1,-1
62,100,0.12272727272727273,862,0,13,DL_MelancholicFolk_Guitar,-1,-1
58,100,0.1409090909090909,355,1,14,DL_MelancholicFolk_Guitar,-1,-1
58,100,0.1,391,0,14,DL_MelancholicFolk_Guitar,-1,-1
51,100,1.3,501,0,14,DL_MelancholicFolk_Guitar,-1,-1
58,100,0.4636363636363636,795,1,14,DL_MelancholicFolk_Guitar,-1,-1
58,100,0.7,106,1,15,DL_MelancholicFolk_Guitar,-1,-1
51,100,0.4636363636363636,268,0,15,DL_MelancholicFolk_Guitar,-1,-1
58,100,0.4818181818181818,422,0,15,DL_MelancholicFolk_Guitar,-1,-1
48,100,1.940909090909091,26,1,16,DL_MelancholicFolk_Guitar,-1,-1
48,100,0.1590909090909091,457,1,16,DL_MelancholicFolk_Guitar,-1,-1
48,100,0.12272727272727273,686,1,16,DL_MelancholicFolk_Guitar,-1,-1
48,100,0.4818181818181818,717,0,16,DL_MelancholicFolk_Guitar,-1,-1
50,100,0.7,430,1,17,DL_MelancholicFolk_Guitar,-1,-1
50,100,0.5409090909090909,791,1,17,DL_MelancholicFolk_Guitar,-1,-1
50,100,0.8363636363636363,193,1,18,DL_MelancholicFolk_Guitar,-1,-1
50,100,0.12272727272727273,399,1,18,DL_MelancholicFolk_Guitar,-1,-1
50,100,0.2590909090909091,453,0,18,DL_MelancholicFolk_Guitar,-1,-1
51,100,1.440909090909091,839,1,18,DL_MelancholicFolk_Guitar,-1,-1
51,100,0.1409090909090909,343,1,19,DL_MelancholicFolk_Guitar,-1,-1
58,100,0.6181818181818182,457,0,19,DL_MelancholicFolk_Guitar,-1,-1
53,100,0.8409090909090909,598,0,19,DL_MelancholicFolk_Guitar,-1,-1
41,100,0.3181818181818182,787,0,19,DL_MelancholicFolk_Guitar,-1,-1
53,100,0.18181818181818182,858,0,19,DL_MelancholicFolk_Guitar,-1,-1
53,100,0.4,75,1,20,DL_MelancholicFolk_Guitar,-1,-1
41,100,0.5636363636363636,223,0,20,DL_MelancholicFolk_Guitar,-1,-1
46,100,1.440909090909091,374,0,20,DL_MelancholicFolk_Guitar,-1,-1
46,100,0.740909090909091,845,1,20,DL_MelancholicFolk_Guitar,-1,-1
46,100,1.9227272727272726,158,1,21,DL_MelancholicFolk_Guitar,-1,-1
58,100,0.35909090909090907,52,1,22,DL_MelancholicFolk_Guitar,-1,-1
63,100,0.12272727272727273,422,1,22,DL_MelancholicFolk_Guitar,-1,-1
53,100,0.3181818181818182,461,0,22,DL_MelancholicFolk_Guitar,-1,-1
53,100,0.1,540,0,22,DL_MelancholicFolk_Guitar,-1,-1
41,100,0.9409090909090909,571,0,22,DL_MelancholicFolk_Guitar,-1,-1
60,100,0.1,835,1,22,DL_MelancholicFolk_Guitar,-1,-1
41,100,0.5181818181818182,876,0,22,DL_MelancholicFolk_Guitar,-1,-1
41,100,0.12272727272727273,113,1,23,DL_MelancholicFolk_Guitar,-1,-1
41,100,0.16363636363636364,158,0,23,DL_MelancholicFolk_Guitar,-1,-1
55,100,0.6,370,1,23,DL_MelancholicFolk_Guitar,-1,-1
55,100,0.11818181818181818,546,0,23,DL_MelancholicFolk_Guitar,-1,-1
53,100,0.1590909090909091,625,0,23,DL_MelancholicFolk_Guitar,-1,-1
53,100,0.1,65,1,24,DL_MelancholicFolk_Guitar,-1,-1
50,100,0.7,220,0,24,DL_MelancholicFolk_Guitar,-1,-1
58,100,0.2590909090909091,83,1,25,DL_MelancholicFolk_Guitar,-1,-1
51,100,0.3409090909090909,320,1,25,DL_MelancholicFolk_Guitar,-1,-1
53,100,0.2409090909090909,409,0,25,DL_MelancholicFolk_Guitar,-1,-1
41,100,0.3409090909090909,492,0,25,DL_MelancholicFolk_Guitar,-1,-1
41,100,0.6409090909090909,571,0,25,DL_MelancholicFolk_Guitar,-1,-1
60,100,0.2409090909090909,712,0,25,DL_MelancholicFolk_Guitar,-1,-1
41,100,0.1409090909090909,866,0,25,DL_MelancholicFolk_Guitar,-1,-1
41,100,0.23636363636363636,106,1,26,DL_MelancholicFolk_Guitar,-1,-1
41,100,0.21818181818181817,175,0,26,DL_MelancholicFolk_Guitar,-1,-1
53,100,0.2818181818181818,241,0,26,DL_MelancholicFolk_Guitar,-1,-1
46,100,0.21818181818181817,405,0,26,DL_MelancholicFolk_Guitar,-1,-1
53,100,0.35909090909090907,480,0,26,DL_MelancholicFolk_Guitar,-1,-1
58,100,0.5,590,0,26,DL_MelancholicFolk_Guitar,-1,-1
53,100,0.2818181818181818,729,0,26,DL_MelancholicFolk_Guitar,-1,-1
53,100,0.16363636363636364,818,0,26,DL_MelancholicFolk_Guitar,-1,-1
50,100,0.4590909090909091,484,1,27,DL_MelancholicFolk_Guitar,-1,-1
51,100,0.2409090909090909,748,1,27,DL_MelancholicFolk_Guitar,-1,-1
53,100,0.1409090909090909,339,1,28,DL_MelancholicFolk_Guitar,-1,-1
41,100,0.8590909090909091,426,0,28,DL_MelancholicFolk_Guitar,-1,-1
41,100,0.42272727272727273,619,0,28,DL_MelancholicFolk_Guitar,-1,-1
41,100,0.18181818181818182,748,0,28,DL_MelancholicFolk_Guitar,-1,-1
41,100,0.4409090909090909,791,0,28,DL_MelancholicFolk_Guitar,-1,-1
41,100,0.2,44,1,29,DL_MelancholicFolk_Guitar,-1,-1
55,100,1.059090909090909,254,1,29,DL_MelancholicFolk_Guitar,-1,-1
58,100,0.5,523,1,29,DL_MelancholicFolk_Guitar,-1,-1
50,100,1.2,870,1,29,DL_MelancholicFolk_Guitar,-1,-1
53,100,0.18181818181818182,430,1,30,DL_MelancholicFolk_Guitar,-1,-1
53,100,0.2590909090909091,501,0,30,DL_MelancholicFolk_Guitar,-1,-1
51,100,0.38181818181818183,615,0,30,DL_MelancholicFolk_Guitar,-1,-1
51,100,0.7818181818181819,717,0,30,DL_MelancholicFolk_Guitar,-1,-1
58,100,0.6363636363636364,40,1,31,DL_MelancholicFolk_Guitar,-1,-1
51,100,0.2,193,0,31,DL_MelancholicFolk_Guitar,-1,-1
53,100,0.13636363636363635,303,0,31,DL_MelancholicFolk_Guitar,-1,-1
41,100,1.3409090909090908,360,0,31,DL_MelancholicFolk_Guitar,-1,-1
41,100,0.5409090909090909,673,1,31,DL_MelancholicFolk_Guitar,-1,-1
60,100,0.1590909090909091,791,0,31,DL_MelancholicFolk_Guitar,-1,-1
41,100,0.11818181818181818,845,0,31,DL_MelancholicFolk_Guitar,-1,-1
41,100,0.1409090909090909,53,1,32,DL_MelancholicFolk_Guitar,-1,-1
50,100,1.440909090909091,114,0,32,DL_MelancholicFolk_Guitar,-1,-1
41,100,0.1590909090909091,606,1,32,DL_MelancholicFolk_Guitar,-1,-1
58,100,0.1590909090909091,765,0,32,DL_MelancholicFolk_Guitar,-1,-1
55,100,1.1409090909090909,818,0,32,DL_MelancholicFolk_Guitar,-1,-1
53,100,0.11818181818181818,193,1,33,DL_MelancholicFolk_Guitar,-1,-1
53,100,0.1409090909090909,361,0,33,DL_MelancholicFolk_Guitar,-1,-1
53,100,0.1409090909090909,453,0,33,DL_MelancholicFolk_Guitar,-1,-1
63,100,0.2772727272727273,765,1,33,DL_MelancholicFolk_Guitar,-1,-1
55,100,0.32272727272727275,48,1,34,DL_MelancholicFolk_Guitar,-1,-1
55,100,0.6,136,0,34,DL_MelancholicFolk_Guitar,-1,-1
62,100,0.4818181818181818,298,0,34,DL_MelancholicFolk_Guitar,-1,-1
50,100,0.6818181818181818,408,0,34,DL_MelancholicFolk_Guitar,-1,-1
60,100,0.6409090909090909,616,1,34,DL_MelancholicFolk_Guitar,-1,-1
53,100,0.1590909090909091,765,0,34,DL_MelancholicFolk_Guitar,-1,-1
53,100,0.2,861,0,34,DL_MelancholicFolk_Guitar,-1,-1
53,100,0.2409090909090909,628,1,35,DL_MelancholicFolk_Guitar,-1,-1
41,100,0.12272727272727273,738,0,35,DL_MelancholicFolk_Guitar,-1,-1
53,100,0.8363636363636363,765,0,35,DL_MelancholicFolk_Guitar,-1,-1
53,100,0.1590909090909091,118,1,36,DL_MelancholicFolk_Guitar,-1,-1
41,100,0.5,153,0,36,DL_MelancholicFolk_Guitar,-1,-1
53,100,0.22272727272727272,311,0,36,DL_MelancholicFolk_Guitar,-1,-1
41,100,0.32272727272727275,364,0,36,DL_MelancholicFolk_Guitar,-1,-1
53,100,0.9409090909090909,474,0,36,DL_MelancholicFolk_Guitar,-1,-1
41,100,1.6818181818181819,681,1,36,DL_MelancholicFolk_Guitar,-1,-1
41,100,1.5636363636363637,179,1,37,DL_MelancholicFolk_Guitar,-1,-1
53,100,0.17727272727272728,523,1,37,DL_MelancholicFolk_Guitar,-1,-1
41,100,0.2,563,0,37,DL_MelancholicFolk_Guitar,-1,-1
60,100,0.11818181818181818,611,0,37,DL_MelancholicFolk_Guitar,-1,-1
41,100,0.5409090909090909,638,0,37,DL_MelancholicFolk_Guitar,-1,-1
41,100,0.12272727272727273,761,0,37,DL_MelancholicFolk_Guitar,-1,-1
58,100,0.4636363636363636,69,1,38,DL_MelancholicFolk_Guitar,-1,-1
46,100,0.2409090909090909,364,1,38,DL_MelancholicFolk_Guitar,-1,-1
53,100,0.4,444,1,39,DL_MelancholicFolk_Guitar,-1,-1
60,100,0.22272727272727272,694,1,39,DL_MelancholicFolk_Guitar,-1,-1
60,100,0.21818181818181817,748,0,39,DL_MelancholicFolk_Guitar,-1,-1
41,100,0.2818181818181818,796,0,39,DL_MelancholicFolk_Guitar,-1,-1
41,100,0.17727272727272728,128,1,40,DL_MelancholicFolk_Guitar,-1,-1
41,100,0.1409090909090909,268,0,40,DL_MelancholicFolk_Guitar,-1,-1
41,100,0.18181818181818182,321,0,40,DL_MelancholicFolk_Guitar,-1,-1
41,100,0.4,370,0,40,DL_MelancholicFolk_Guitar,-1,-1
41,100,0.4,480,0,40,DL_MelancholicFolk_Guitar,-1,-1
53,100,0.22272727272727272,651,0,40,DL_MelancholicFolk_Guitar,-1,-1
55,100,1.3409090909090908,813,0,40,DL_MelancholicFolk_Guitar,-1,-1
58,100,0.7227272727272728,246,1,41,DL_MelancholicFolk_Guitar,-1,-1
58,100,0.4,550,1,41,DL_MelancholicFolk_Guitar,-1,-1
55,100,0.6590909090909091,735,0,41,DL_MelancholicFolk_Guitar,-1,-1
58,100,0.18181818181818182,179,1,42,DL_MelancholicFolk_Guitar,-1,-1
63,100,0.2818181818181818,334,0,42,DL_MelancholicFolk_Guitar,-1,-1
58,100,0.13636363636363635,545,1,42,DL_MelancholicFolk_Guitar,-1,-1
51,100,0.6772727272727272,810,1,42,DL_MelancholicFolk_Guitar,-1,-1
63,100,0.11818181818181818,241,1,43,DL_MelancholicFolk_Guitar,-1,-1
51,100,0.2,528,1,43,DL_MelancholicFolk_Guitar,-1,-1
58,100,0.35909090909090907,581,0,43,DL_MelancholicFolk_Guitar,-1,-1
55,100,1.040909090909091,756,0,43,DL_MelancholicFolk_Guitar,-1,-1
55,100,0.4,364,1,44,DL_MelancholicFolk_Guitar,-1,-1
58,100,0.2409090909090909,606,1,44,DL_MelancholicFolk_Guitar,-1,-1
58,100,0.6181818181818182,836,1,44,DL_MelancholicFolk_Guitar,-1,-1
53,100,0.1590909090909091,101,1,45,DL_MelancholicFolk_Guitar,-1,-1
58,100,0.1409090909090909,220,0,45,DL_MelancholicFolk_Guitar,-1,-1
53,100,0.1590909090909091,584,1,45,DL_MelancholicFolk_Guitar,-1,-1
60,100,0.8772727272727273,8,1,46,DL_MelancholicFolk_Guitar,-1,-1
60,100,0.5818181818181818,373,1,46,DL_MelancholicFolk_Guitar,-1,-1
53,100,0.4,515,0,46,DL_MelancholicFolk_Guitar,-1,-1
51,100,0.9227272727272727,673,0,46,DL_MelancholicFolk_Guitar,-1,-1
51,100,0.740909090909091,101,1,47,DL_MelancholicFolk_Guitar,-1,-1
58,100,0.12272727272727273,276,0,47,DL_MelancholicFolk_Guitar,-1,-1
51,100,0.2818181818181818,444,0,47,DL_MelancholicFolk_Guitar,-1,-1
51,100,0.1409090909090909,584,0,47,DL_MelancholicFolk_Guitar,-1,-1
51,100,0.2409090909090909,619,0,47,DL_MelancholicFolk_Guitar,-1,-1
51,100,0.2,681,0,47,DL_MelancholicFolk_Guitar,-1,-1
51,100,0.3,810,0,47,DL_MelancholicFolk_Guitar,-1,-1
58,100,0.6227272727272727,48,1,48,DL_MelancholicFolk_Guitar,-1,-1
53,100,0.4,188,0,48,DL_MelancholicFolk_Guitar,-1,-1
60,100,0.5,413,1,48,DL_MelancholicFolk_Guitar,-1,-1
41,100,0.1,581,0,48,DL_MelancholicFolk_Guitar,-1,-1
53,100,0.2772727272727273,603,0,48,DL_MelancholicFolk_Guitar,-1,-1
53,100,0.2,668,0,48,DL_MelancholicFolk_Guitar,-1,-1
41,100,0.17727272727272728,743,0,48,DL_MelancholicFolk_Guitar,-1,-1
41,100,0.13636363636363635,788,0,48,DL_MelancholicFolk_Guitar,-1,-1
53,100,0.8181818181818182,96,1,49,DL_MelancholicFolk_Guitar,-1,-1
41,100,0.11818181818181818,308,1,49,DL_MelancholicFolk_Guitar,-1,-1
53,100,0.4409090909090909,351,0,49,DL_MelancholicFolk_Guitar,-1,-1
53,100,0.23636363636363636,458,0,49,DL_MelancholicFolk_Guitar,-1,-1
58,100,0.35909090909090907,651,0,49,DL_MelancholicFolk_Guitar,-1,-1
50,100,0.4590909090909091,418,1,50,DL_MelancholicFolk_Guitar,-1,-1
58,100,0.5409090909090909,716,1,50,DL_MelancholicFolk_Guitar,-1,-1
53,100,0.1409090909090909,858,0,50,DL_MelancholicFolk_Guitar,-1,-1
58,100,0.17727272727272728,8,1,51,DL_MelancholicFolk_Guitar,-1,-1
53,100,0.2,48,0,51,DL_MelancholicFolk_Guitar,-1,-1
58,100,0.11818181818181818,96,0,51,DL_MelancholicFolk_Guitar,-1,-1
51,100,1.3227272727272728,144,0,51,DL_MelancholicFolk_Guitar,-1,-1
53,100,0.21818181818181817,448,1,51,DL_MelancholicFolk_Guitar,-1,-1
53,100,0.17727272727272728,523,0,51,DL_MelancholicFolk_Guitar,-1,-1
53,100,0.35909090909090907,568,0,51,DL_MelancholicFolk_Guitar,-1,-1
41,100,0.11818181818181818,700,0,51,DL_MelancholicFolk_Guitar,-1,-1
46,100,0.6409090909090909,801,0,51,DL_MelancholicFolk_Guitar,-1,-1
62,100,0.1590909090909091,153,1,52,DL_MelancholicFolk_Guitar,-1,-1
60,100,0.12272727272727273,268,0,52,DL_MelancholicFolk_Guitar,-1,-1
62,100,0.18181818181818182,466,1,52,DL_MelancholicFolk_Guitar,-1,-1
60,100,0.5409090909090909,598,0,52,DL_MelancholicFolk_Guitar,-1,-1
53,100,0.18181818181818182,224,1,53,DL_MelancholicFolk_Guitar,-1,-1
51,100,0.18181818181818182,308,0,53,DL_MelancholicFolk_Guitar,-1,-1
51,100,0.35909090909090907,801,1,53,DL_MelancholicFolk_Guitar,-1,-1
53,100,0.16363636363636364,69,1,54,DL_MelancholicFolk_Guitar,-1,-1
53,100,0.7181818181818181,215,0,54,DL_MelancholicFolk_Guitar,-1,-1
53,100,0.37727272727272726,391,0,54,DL_MelancholicFolk_Guitar,-1,-1
41,100,0.12272727272727273,474,0,54,DL_MelancholicFolk_Guitar,-1,-1
53,100,0.2590909090909091,501,0,54,DL_MelancholicFolk_Guitar,-1,-1
60,100,0.1409090909090909,606,0,54,DL_MelancholicFolk_Guitar,-1,-1
55,100,0.1409090909090909,735,0,54,DL_MelancholicFolk_Guitar,-1,-1
55,100,0.2590909090909091,338,1,55,DL_MelancholicFolk_Guitar,-1,-1
55,100,0.21818181818181817,413,0,55,DL_MelancholicFolk_Guitar,-1,-1
50,100,0.4590909090909091,691,1,55,DL_MelancholicFolk_Guitar,-1,-1
53,100,0.17727272727272728,75,1,56,DL_MelancholicFolk_Guitar,-1,-1
58,100,0.2,114,0,56,DL_MelancholicFolk_Guitar,-1,-1
58,100,0.18181818181818182,179,0,56,DL_MelancholicFolk_Guitar,-1,-1
51,100,0.6772727272727272,238,0,56,DL_MelancholicFolk_Guitar,-1,-1
58,100,0.18181818181818182,483,1,56,DL_MelancholicFolk_Guitar,-1,-1
60,100,0.41818181818181815,8,1,57,DL_MelancholicFolk_Guitar,-1,-1
41,100,0.18181818181818182,114,0,57,DL_MelancholicFolk_Guitar,-1,-1
41,100,0.2590909090909091,211,0,57,DL_MelancholicFolk_Guitar,-1,-1
41,100,0.17727272727272728,273,0,57,DL_MelancholicFolk_Guitar,-1,-1
41,100,0.5181818181818182,361,0,57,DL_MelancholicFolk_Guitar,-1,-1
53,100,0.3,488,0,57,DL_MelancholicFolk_Guitar,-1,-1
60,100,0.1409090909090909,593,0,57,DL_MelancholicFolk_Guitar,-1,-1
62,100,0.21818181818181817,325,1,58,DL_MelancholicFolk_Guitar,-1,-1
60,100,1.440909090909091,418,0,58,DL_MelancholicFolk_Guitar,-1,-1
46,100,0.4636363636363636,796,1,58,DL_MelancholicFolk_Guitar,-1,-1
51,100,0.3,179,1,59,DL_MelancholicFolk_Guitar,-1,-1
51,100,0.7181818181818181,251,0,59,DL_MelancholicFolk_Guitar,-1,-1
51,100,0.18181818181818182,453,1,59,DL_MelancholicFolk_Guitar,-1,-1
51,100,0.4,576,0,59,DL_MelancholicFolk_Guitar,-1,-1
51,100,0.1409090909090909,668,0,59,DL_MelancholicFolk_Guitar,-1,-1
51,100,0.18181818181818182,703,0,59,DL_MelancholicFolk_Guitar,-1,-1
58,100,0.2818181818181818,751,0,59,DL_MelancholicFolk_Guitar,-1,-1
60,100,0.11818181818181818,21,1,60,DL_MelancholicFolk_Guitar,-1,-1
53,100,0.1,91,0,60,DL_MelancholicFolk_Guitar,-1,-1
53,100,0.1409090909090909,131,0,60,DL_MelancholicFolk_Guitar,-1,-1
60,100,0.4,176,0,60,DL_MelancholicFolk_Guitar,-1,-1
53,100,0.1590909090909091,263,0,60,DL_MelancholicFolk_Guitar,-1,-1
41,100,0.1409090909090909,298,0,60,DL_MelancholicFolk_Guitar,-1,-1
53,100,0.21818181818181817,330,0,60,DL_MelancholicFolk_Guitar,-1,-1
53,100,0.1590909090909091,426,0,60,DL_MelancholicFolk_Guitar,-1,-1
55,100,0.41818181818181815,646,1,60,DL_MelancholicFolk_Guitar,-1,-1
58,100,0.12272727272727273,246,1,61,DL_MelancholicFolk_Guitar,-1,-1
60,100,0.5409090909090909,541,1,61,DL_MelancholicFolk_Guitar,-1,-1
60,100,0.7636363636363637,664,0,61,DL_MelancholicFolk_Guitar,-1,-1
53,100,0.16363636363636364,839,0,61,DL_MelancholicFolk_Guitar,-1,-1
57,100,0.17727272727272728,61,1,62,DL_MelancholicFolk_Guitar,-1,-1
51,100,0.2636363636363636,114,0,62,DL_MelancholicFolk_Guitar,-1,-1
58,100,0.11818181818181818,418,1,62,DL_MelancholicFolk_Guitar,-1,-1
51,100,0.5590909090909091,474,0,62,DL_MelancholicFolk_Guitar,-1,-1
51,100,0.1409090909090909,603,0,62,DL_MelancholicFolk_Guitar,-1,-1
51,100,0.759090909090909,668,0,62,DL_MelancholicFolk_Guitar,-1,-1
58,100,0.2,853,0,62,DL_MelancholicFolk_Guitar,-1,-1
51,100,0.16363636363636364,48,1,63,DL_MelancholicFolk_Guitar,-1,-1
51,100,0.740909090909091,188,0,63,DL_MelancholicFolk_Guitar,-1,-1
53,100,0.16363636363636364,509,1,63,DL_MelancholicFolk_Guitar,-1,-1
46,100,0.2772727272727273,611,0,63,DL_MelancholicFolk_Guitar,-1,-1
53,100,0.1590909090909091,286,1,64,DL_MelancholicFolk_Guitar,-1,-1
53,100,0.1409090909090909,440,0,64,DL_MelancholicFolk_Guitar,-1,-1
60,100,0.4,502,0,64,DL_MelancholicFolk_Guitar,-1,-1
53,100,0.35909090909090907,760,1,64,DL_MelancholicFolk_Guitar,-1,-1
51,100,1.3,35,1,65,DL_MelancholicFolk_Guitar,-1,-1
51,100,0.13636363636363635,347,1,65,DL_MelancholicFolk_Guitar,-1,-1
51,100,0.1409090909090909,417,0,65,DL_MelancholicFolk_Guitar,-1,-1
51,100,0.37727272727272726,624,1,65,DL_MelancholicFolk_Guitar,-1,-1
58,100,0.35909090909090907,760,0,65,DL_MelancholicFolk_Guitar,-1,-1
58,100,0.16363636363636364,862,0,65,DL_MelancholicFolk_Guitar,-1,-1
58,100,0.7,106,1,66,DL_MelancholicFolk_Guitar,-1,-1
63,100,0.18181818181818182,333,1,66,DL_MelancholicFolk_Guitar,-1,-1
53,100,0.17727272727272728,436,0,66,DL_MelancholicFolk_Guitar,-1,-1
53,100,0.2590909090909091,519,0,66,DL_MelancholicFolk_Guitar,-1,-1
41,100,0.1,576,0,66,DL_MelancholicFolk_Guitar,-1,-1
41,100,0.6818181818181818,616,0,66,DL_MelancholicFolk_Guitar,-1,-1
41,100,0.4,792,0,66,DL_MelancholicFolk_Guitar,-1,-1
41,100,0.2,69,1,67,DL_MelancholicFolk_Guitar,-1,-1
53,100,0.2,127,0,67,DL_MelancholicFolk_Guitar,-1,-1
53,100,0.12272727272727273,202,0,67,DL_MelancholicFolk_Guitar,-1,-1
41,100,0.41818181818181815,229,0,67,DL_MelancholicFolk_Guitar,-1,-1
41,100,0.13636363636363635,326,0,67,DL_MelancholicFolk_Guitar,-1,-1
41,100,0.2,409,0,67,DL_MelancholicFolk_Guitar,-1,-1
41,100,0.1,470,0,67,DL_MelancholicFolk_Guitar,-1,-1
41,100,0.6363636363636364,546,0,67,DL_MelancholicFolk_Guitar,-1,-1
41,100,0.17727272727272728,713,0,67,DL_MelancholicFolk_Guitar,-1,-1
41,100,0.12272727272727273,760,0,67,DL_MelancholicFolk_Guitar,-1,-1
53,100,0.8409090909090909,862,0,67,DL_MelancholicFolk_Guitar,-1,-1
46,100,0.35909090909090907,413,1,69,DL_MelancholicFolk_Guitar,-1,-1
58,100,0.1590909090909091,493,0,69,DL_MelancholicFolk_Guitar,-1,-1
46,100,0.7818181818181819,527,0,69,DL_MelancholicFolk_Guitar,-1,-1
46,100,0.9,826,1,69,DL_MelancholicFolk_Guitar,-1,-1
58,100,1.3772727272727272,470,1,70,DL_MelancholicFolk_Guitar,-1,-1
60,100,1.518181818181818,787,1,70,DL_MelancholicFolk_Guitar,-1,-1
60,100,1.3,0,1,72,DL_MelancholicFolk_Guitar,-1,-1
58,100,1.2227272727272727,333,1,72,DL_MelancholicFolk_Guitar,-1,-1
55,100,0.1,663,1,72,DL_MelancholicFolk_Guitar,-1,-1
62,100,1.518181818181818,83,1,73,DL_MelancholicFolk_Guitar,-1,-1
55,100,0.7,426,1,73,DL_MelancholicFolk_Guitar,-1,-1
53,100,1.518181818181818,722,1,73,DL_MelancholicFolk_Guitar,-1,-1
60,100,0.759090909090909,286,1,74,DL_MelancholicFolk_Guitar,-1,-1
57,100,0.5181818181818182,546,1,74,DL_MelancholicFolk_Guitar,-1,-1
57,100,0.5227272727272727,695,0,74,DL_MelancholicFolk_Guitar,-1,-1
51,100,1.440909090909091,263,1,75,DL_MelancholicFolk_Guitar,-1,-1
53,100,0.759090909090909,30,1,76,DL_MelancholicFolk_Guitar,-1,-1
41,100,0.32272727272727275,223,0,76,DL_MelancholicFolk_Guitar,-1,-1
60,100,0.1409090909090909,316,0,76,DL_MelancholicFolk_Guitar,-1,-1
58,100,0.8181818181818182,514,0,76,DL_MelancholicFolk_Guitar,-1,-1
46,100,1.2818181818181817,695,0,76,DL_MelancholicFolk_Guitar,-1,-1
60,100,0.2,119,1,77,DL_MelancholicFolk_Guitar,-1,-1
60,100,0.17727272727272728,229,0,77,DL_MelancholicFolk_Guitar,-1,-1
60,100,0.5590909090909091,307,0,77,DL_MelancholicFolk_Guitar,-1,-1
55,100,1.3590909090909091,449,0,77,DL_MelancholicFolk_Guitar,-1,-1
51,100,1.4181818181818182,197,1,78,DL_MelancholicFolk_Guitar,-1,-1
58,100,0.38181818181818183,752,1,78,DL_MelancholicFolk_Guitar,-1,-1
53,100,0.759090909090909,849,0,78,DL_MelancholicFolk_Guitar,-1,-1
41,100,0.1590909090909091,237,1,79,DL_MelancholicFolk_Guitar,-1,-1
60,100,0.2818181818181818,386,0,79,DL_MelancholicFolk_Guitar,-1,-1
58,100,0.4,509,0,79,DL_MelancholicFolk_Guitar,-1,-1
46,100,1.6181818181818182,637,0,79,DL_MelancholicFolk_Guitar,-1,-1
46,100,0.6818181818181818,220,1,80,DL_MelancholicFolk_Guitar,-1,-1
46,100,0.2636363636363636,377,0,80,DL_MelancholicFolk_Guitar,-1,-1
58,100,0.2,440,0,80,DL_MelancholicFolk_Guitar,-1,-1
46,100,0.1590909090909091,483,0,80,DL_MelancholicFolk_Guitar,-1,-1
58,100,0.18181818181818182,519,0,80,DL_MelancholicFolk_Guitar,-1,-1
46,100,0.5181818181818182,572,0,80,DL_MelancholicFolk_Guitar,-1,-1
60,100,1.1409090909090909,703,0,80,DL_MelancholicFolk_Guitar,-1,-1
51,100,0.9181818181818182,83,1,81,DL_MelancholicFolk_Guitar,-1,-1
51,100,0.6409090909090909,320,1,81,DL_MelancholicFolk_Guitar,-1,-1
51,100,0.1590909090909091,475,0,81,DL_MelancholicFolk_Guitar,-1,-1
63,100,0.11818181818181818,660,0,81,DL_MelancholicFolk_Guitar,-1,-1
63,100,0.1,690,0,81,DL_MelancholicFolk_Guitar,-1,-1
53,100,0.35909090909090907,770,0,81,DL_MelancholicFolk_Guitar,-1,-1
53,100,0.12272727272727273,862,0,81,DL_MelancholicFolk_Guitar,-1,-1
53,100,0.5772727272727273,30,1,82,DL_MelancholicFolk_Guitar,-1,-1
53,100,0.21818181818181817,163,0,82,DL_MelancholicFolk_Guitar,-1,-1
60,100,0.5227272727272727,299,0,82,DL_MelancholicFolk_Guitar,-1,-1
60,100,0.36363636363636365,443,0,82,DL_MelancholicFolk_Guitar,-1,-1
53,100,0.2409090909090909,540,0,82,DL_MelancholicFolk_Guitar,-1,-1
46,100,0.4818181818181818,629,0,82,DL_MelancholicFolk_Guitar,-1,-1
58,100,0.2590909090909091,743,0,82,DL_MelancholicFolk_Guitar,-1,-1
58,100,0.18181818181818182,805,0,82,DL_MelancholicFolk_Guitar,-1,-1
53,100,0.7,857,0,82,DL_MelancholicFolk_Guitar,-1,-1
58,100,0.1,193,1,83,DL_MelancholicFolk_Guitar,-1,-1
46,100,0.13636363636363635,260,0,83,DL_MelancholicFolk_Guitar,-1,-1
62,100,0.1409090909090909,800,1,83,DL_MelancholicFolk_Guitar,-1,-1
51,100,0.38181818181818183,92,1,84,DL_MelancholicFolk_Guitar,-1,-1
58,100,0.3,330,1,84,DL_MelancholicFolk_Guitar,-1,-1
58,100,0.5181818181818182,502,0,84,DL_MelancholicFolk_Guitar,-1,-1
58,100,0.2590909090909091,637,0,84,DL_MelancholicFolk_Guitar,-1,-1
53,100,0.5818181818181818,726,0,84,DL_MelancholicFolk_Guitar,-1,-1
60,100,0.2590909090909091,30,1,85,DL_MelancholicFolk_Guitar,-1,-1
60,100,0.12272727272727273,100,0,85,DL_MelancholicFolk_Guitar,-1,-1
57,100,0.4818181818181818,166,0,85,DL_MelancholicFolk_Guitar,-1,-1
53,100,0.37727272727272726,316,0,85,DL_MelancholicFolk_Guitar,-1,-1
60,100,0.1590909090909091,417,0,85,DL_MelancholicFolk_Guitar,-1,-1
53,100,0.2409090909090909,470,0,85,DL_MelancholicFolk_Guitar,-1,-1
46,100,0.7772727272727272,612,0,85,DL_MelancholicFolk_Guitar,-1,-1
58,100,0.8818181818181818,817,1,85,DL_MelancholicFolk_Guitar,-1,-1
53,100,0.32272727272727275,136,1,86,DL_MelancholicFolk_Guitar,-1,-1
55,100,0.3181818181818182,220,0,86,DL_MelancholicFolk_Guitar,-1,-1
58,100,0.2409090909090909,339,0,86,DL_MelancholicFolk_Guitar,-1,-1
53,100,0.1409090909090909,550,1,86,DL_MelancholicFolk_Guitar,-1,-1
58,100,0.4590909090909091,612,0,86,DL_MelancholicFolk_Guitar,-1,-1
58,100,0.13636363636363635,810,0,86,DL_MelancholicFolk_Guitar,-1,-1
58,100,0.1,844,0,86,DL_MelancholicFolk_Guitar,-1,-1
58,100,0.6409090909090909,119,1,87,DL_MelancholicFolk_Guitar,-1,-1
51,100,0.11818181818181818,286,0,87,DL_MelancholicFolk_Guitar,-1,-1
51,100,0.5409090909090909,316,0,87,DL_MelancholicFolk_Guitar,-1,-1
51,100,0.5772727272727273,449,0,87,DL_MelancholicFolk_Guitar,-1,-1
53,100,0.759090909090909,633,0,87,DL_MelancholicFolk_Guitar,-1,-1
60,100,0.6772727272727272,810,0,87,DL_MelancholicFolk_Guitar,-1,-1
57,100,0.2,87,1,88,DL_MelancholicFolk_Guitar,-1,-1
57,100,0.37727272727272726,140,0,88,DL_MelancholicFolk_Guitar,-1,-1
60,100,0.12272727272727273,223,0,88,DL_MelancholicFolk_Guitar,-1,-1
60,100,0.5772727272727273,273,0,88,DL_MelancholicFolk_Guitar,-1,-1
53,100,0.7227272727272728,399,0,88,DL_MelancholicFolk_Guitar,-1,-1
46,100,0.18181818181818182,572,0,88,DL_MelancholicFolk_Guitar,-1,-1
53,100,0.759090909090909,624,0,88,DL_MelancholicFolk_Guitar,-1,-1
58,100,0.2772727272727273,832,1,88,DL_MelancholicFolk_Guitar,-1,-1
53,100,0.38181818181818183,22,1,89,DL_MelancholicFolk_Guitar,-1,-1
58,100,0.2409090909090909,140,0,89,DL_MelancholicFolk_Guitar,-1,-1
60,100,0.4,250,0,89,DL_MelancholicFolk_Guitar,-1,-1
58,100,0.18181818181818182,343,0,89,DL_MelancholicFolk_Guitar,-1,-1
58,100,0.5,386,0,89,DL_MelancholicFolk_Guitar,-1,-1
60,100,0.1409090909090909,559,0,89,DL_MelancholicFolk_Guitar,-1,-1
60,100,0.9818181818181818,637,0,89,DL_MelancholicFolk_Guitar,-1,-1
60,100,0.5590909090909091,866,1,89,DL_MelancholicFolk_Guitar,-1,-1
41,100,0.6409090909090909,110,1,90,DL_MelancholicFolk_Guitar,-1,-1
53,100,0.33636363636363636,260,0,90,DL_MelancholicFolk_Guitar,-1,-1
41,100,0.2590909090909091,343,0,90,DL_MelancholicFolk_Guitar,-1,-1
57,100,0.6181818181818182,436,0,90,DL_MelancholicFolk_Guitar,-1,-1
53,100,0.22272727272727272,585,0,90,DL_MelancholicFolk_Guitar,-1,-1
53,100,0.3,660,0,90,DL_MelancholicFolk_Guitar,-1,-1
60,100,0.11818181818181818,726,0,90,DL_MelancholicFolk_Guitar,-1,-1
53,100,0.1,770,0,90,DL_MelancholicFolk_Guitar,-1,-1
60,100,0.16363636363636364,862,0,90,DL_MelancholicFolk_Guitar,-1,-1
60,100,0.5636363636363636,26,1,91,DL_MelancholicFolk_Guitar,-1,-1
60,100,0.1,153,0,91,DL_MelancholicFolk_Guitar,-1,-1
53,100,0.1409090909090909,286,0,91,DL_MelancholicFolk_Guitar,-1,-1
58,100,0.5181818181818182,396,0,91,DL_MelancholicFolk_Guitar,-1,-1
46,100,0.1590909090909091,527,0,91,DL_MelancholicFolk_Guitar,-1,-1
58,100,0.12272727272727273,576,0,91,DL_MelancholicFolk_Guitar,-1,-1
58,100,0.32272727272727275,606,0,91,DL_MelancholicFolk_Guitar,-1,-1
53,100,0.13636363636363635,677,0,91,DL_MelancholicFolk_Guitar,-1,-1
58,100,0.2,707,0,91,DL_MelancholicFolk_Guitar,-1,-1
46,100,0.9818181818181818,752,0,91,DL_MelancholicFolk_Guitar,-1,-1
58,100,0.2590909090909091,96,1,92,DL_MelancholicFolk_Guitar,-1,-1
58,100,0.2,202,0,92,DL_MelancholicFolk_Guitar,-1,-1
46,100,0.6590909090909091,276,0,92,DL_MelancholicFolk_Guitar,-1,-1
53,100,0.1,440,0,92,DL_MelancholicFolk_Guitar,-1,-1
53,100,0.1,593,0,92,DL_MelancholicFolk_Guitar,-1,-1
57,100,0.3,783,0,92,DL_MelancholicFolk_Guitar,-1,-1
53,100,0.6,179,1,93,DL_MelancholicFolk_Guitar,-1,-1
57,100,0.3409090909090909,453,1,93,DL_MelancholicFolk_Guitar,-1,-1
57,100,0.3409090909090909,559,0,93,DL_MelancholicFolk_Guitar,-1,-1
60,100,0.9181818181818182,633,0,93,DL_MelancholicFolk_Guitar,-1,-1
53,100,0.18181818181818182,113,1,94,DL_MelancholicFolk_Guitar,-1,-1
50,100,0.6227272727272727,422,1,94,DL_MelancholicFolk_Guitar,-1,-1
53,100,0.11818181818181818,603,0,94,DL_MelancholicFolk_Guitar,-1,-1
53,100,0.38181818181818183,540,1,95,DL_MelancholicFolk_Guitar,-1,-1
53,100,0.2,663,0,95,DL_MelancholicFolk_Guitar,-1,-1
60,100,0.9636363636363636,796,0,95,DL_MelancholicFolk_Guitar,-1,-1
53,100,0.9,166,1,96,DL_MelancholicFolk_Guitar,-1,-1
60,100,0.2772727272727273,404,1,96,DL_MelancholicFolk_Guitar,-1,-1
60,100,1.3590909090909091,470,0,96,DL_MelancholicFolk_Guitar,-1,-1
53,100,0.7,40,1,97,DL_MelancholicFolk_Guitar,-1,-1
51,100,0.43636363636363634,237,0,97,DL_MelancholicFolk_Guitar,-1,-1
51,100,0.6409090909090909,373,0,97,DL_MelancholicFolk_Guitar,-1,-1
51,100,0.22272727272727272,532,0,97,DL_MelancholicFolk_Guitar,-1,-1
63,100,0.2,783,1,97,DL_MelancholicFolk_Guitar,-1,-1
53,100,0.1590909090909091,849,0,97,DL_MelancholicFolk_Guitar,-1,-1
57,100,0.1409090909090909,74,1,98,DL_MelancholicFolk_Guitar,-1,-1
53,100,0.1409090909090909,145,0,98,DL_MelancholicFolk_Guitar,-1,-1
60,100,0.35909090909090907,216,0,98,DL_MelancholicFolk_Guitar,-1,-1
60,100,0.11818181818181818,404,0,98,DL_MelancholicFolk_Guitar,-1,-1
53,100,0.4590909090909091,470,0,98,DL_MelancholicFolk_Guitar,-1,-1
53,100,0.5,629,0,98,DL_MelancholicFolk_Guitar,-1,-1
46,100,0.3409090909090909,862,1,98,DL_MelancholicFolk_Guitar,-1,-1
53,100,0.2,74,1,99,DL_MelancholicFolk_Guitar,-1,-1
46,100,0.11818181818181818,197,0,99,DL_MelancholicFolk_Guitar,-1,-1
58,100,0.33636363636363636,237,0,99,DL_MelancholicFolk_Guitar,-1,-1
62,100,0.9590909090909091,506,1,99,DL_MelancholicFolk_Guitar,-1,-1
53,100,0.1590909090909091,0,1,100,DL_MelancholicFolk_Guitar,-1,-1
58,100,0.12272727272727273,35,0,100,DL_MelancholicFolk_Guitar,-1,-1
51,100,2.481818181818182,157,0,100,DL_MelancholicFolk_Guitar,-1,-1
58,100,0.2,716,1,100,DL_MelancholicFolk_Guitar,-1,-1
53,100,0.35909090909090907,810,0,100,DL_MelancholicFolk_Guitar,-1,-1
60,100,0.3,176,1,101,DL_MelancholicFolk_Guitar,-1,-1
53,100,0.2772727272727273,250,0,101,DL_MelancholicFolk_Guitar,-1,-1
60,100,0.12272727272727273,333,0,101,DL_MelancholicFolk_Guitar,-1,-1
53,100,0.4409090909090909,386,0,101,DL_MelancholicFolk_Guitar,-1,-1
53,100,0.16363636363636364,576,0,101,DL_MelancholicFolk_Guitar,-1,-1
46,100,0.6,629,0,101,DL_MelancholicFolk_Guitar,-1,-1
58,100,0.5181818181818182,770,0,101,DL_MelancholicFolk_Guitar,-1,-1
58,100,0.2,43,1,102,DL_MelancholicFolk_Guitar,-1,-1
58,100,0.2409090909090909,123,0,102,DL_MelancholicFolk_Guitar,-1,-1
46,100,0.1590909090909091,206,0,102,DL_MelancholicFolk_Guitar,-1,-1
53,100,0.12272727272727273,255,0,102,DL_MelancholicFolk_Guitar,-1,-1
58,100,0.5409090909090909,286,0,102,DL_MelancholicFolk_Guitar,-1,-1
53,100,0.2590909090909091,417,0,102,DL_MelancholicFolk_Guitar,-1,-1
58,100,0.23636363636363636,502,0,102,DL_MelancholicFolk_Guitar,-1,-1
46,100,0.1409090909090909,553,0,102,DL_MelancholicFolk_Guitar,-1,-1
53,100,0.3409090909090909,629,0,102,DL_MelancholicFolk_Guitar,-1,-1
58,100,0.3,716,0,102,DL_MelancholicFolk_Guitar,-1,-1
51,100,2.522727272727273,92,1,103,DL_MelancholicFolk_Guitar,-1,-1
53,100,0.2409090909090909,726,1,103,DL_MelancholicFolk_Guitar,-1,-1
60,100,0.2590909090909091,110,1,104,DL_MelancholicFolk_Guitar,-1,-1
53,100,0.1,172,0,104,DL_MelancholicFolk_Guitar,-1,-1
53,100,0.2818181818181818,343,0,104,DL_MelancholicFolk_Guitar,-1,-1
62,100,0.42272727272727273,563,1,104,DL_MelancholicFolk_Guitar,-1,-1
62,100,0.1590909090909091,660,0,104,DL_MelancholicFolk_Guitar,-1,-1
62,100,0.1409090909090909,713,1,105,DL_MelancholicFolk_Guitar,-1,-1
53,100,0.6590909090909091,747,0,105,DL_MelancholicFolk_Guitar,-1,-1
51,100,1.440909090909091,22,1,106,DL_MelancholicFolk_Guitar,-1,-1
51,100,0.5590909090909091,383,1,106,DL_MelancholicFolk_Guitar,-1,-1
53,100,0.18181818181818182,673,1,106,DL_MelancholicFolk_Guitar,-1,-1
57,100,0.18181818181818182,726,0,106,DL_MelancholicFolk_Guitar,-1,-1
60,100,0.6409090909090909,844,0,106,DL_MelancholicFolk_Guitar,-1,-1
53,100,0.11818181818181818,119,1,107,DL_MelancholicFolk_Guitar,-1,-1
60,100,0.7772727272727272,250,0,107,DL_MelancholicFolk_Guitar,-1,-1
53,100,0.2590909090909091,430,0,107,DL_MelancholicFolk_Guitar,-1,-1
46,100,0.7,523,0,107,DL_MelancholicFolk_Guitar,-1,-1
58,100,0.1590909090909091,677,0,107,DL_MelancholicFolk_Guitar,-1,-1
53,100,0.2590909090909091,747,0,107,DL_MelancholicFolk_Guitar,-1,-1
46,100,0.1409090909090909,3,1,108,DL_MelancholicFolk_Guitar,-1,-1
46,100,0.6636363636363637,202,1,108,DL_MelancholicFolk_Guitar,-1,-1
58,100,0.12272727272727273,386,0,108,DL_MelancholicFolk_Guitar,-1,-1
46,100,0.4409090909090909,426,0,108,DL_MelancholicFolk_Guitar,-1,-1
46,100,0.6590909090909091,540,0,108,DL_MelancholicFolk_Guitar,-1,-1
53,100,0.16363636363636364,686,0,108,DL_MelancholicFolk_Guitar,-1,-1
51,100,0.2409090909090909,113,1,109,DL_MelancholicFolk_Guitar,-1,-1
53,100,0.2,597,1,109,DL_MelancholicFolk_Guitar,-1,-1
60,100,0.4590909090909091,650,0,109,DL_MelancholicFolk_Guitar,-1,-1
53,100,0.3409090909090909,779,0,109,DL_MelancholicFolk_Guitar,-1,-1
53,100,0.1590909090909091,857,0,109,DL_MelancholicFolk_Guitar,-1,-1
53,100,0.5181818181818182,43,1,110,DL_MelancholicFolk_Guitar,-1,-1
53,100,0.6636363636363637,179,0,110,DL_MelancholicFolk_Guitar,-1,-1
53,100,0.2772727272727273,370,0,110,DL_MelancholicFolk_Guitar,-1,-1
58,100,0.6818181818181818,443,0,110,DL_MelancholicFolk_Guitar,-1,-1
46,100,0.38181818181818183,593,0,110,DL_MelancholicFolk_Guitar,-1,-1
46,100,0.6636363636363637,707,0,110,DL_MelancholicFolk_Guitar,-1,-1
58,100,0.2,853,0,110,DL_MelancholicFolk_Guitar,-1,-1
58,100,0.1590909090909091,409,1,111,DL_MelancholicFolk_Guitar,-1,-1
58,100,0.6,493,0,111,DL_MelancholicFolk_Guitar,-1,-1
53,100,0.1409090909090909,624,0,111,DL_MelancholicFolk_Guitar,-1,-1
58,100,0.1590909090909091,656,0,111,DL_MelancholicFolk_Guitar,-1,-1
58,100,0.1590909090909091,726,0,111,DL_MelancholicFolk_Guitar,-1,-1
51,100,0.9363636363636364,787,0,111,DL_MelancholicFolk_Guitar,-1,-1
51,100,0.1590909090909091,299,1,112,DL_MelancholicFolk_Guitar,-1,-1
51,100,0.1409090909090909,339,0,112,DL_MelancholicFolk_Guitar,-1,-1
53,100,0.16363636363636364,532,0,112,DL_MelancholicFolk_Guitar,-1,-1
53,100,0.5590909090909091,593,0,112,DL_MelancholicFolk_Guitar,-1,-1
53,100,0.2590909090909091,0,1,113,DL_MelancholicFolk_Guitar,-1,-1
53,100,0.41818181818181815,110,0,113,DL_MelancholicFolk_Guitar,-1,-1
58,100,0.5227272727272727,399,1,113,DL_MelancholicFolk_Guitar,-1,-1
46,100,0.1590909090909091,572,0,113,DL_MelancholicFolk_Guitar,-1,-1
53,100,0.2409090909090909,624,0,113,DL_MelancholicFolk_Guitar,-1,-1
46,100,0.4409090909090909,686,0,113,DL_MelancholicFolk_Guitar,-1,-1
46,100,0.35909090909090907,66,1,114,DL_MelancholicFolk_Guitar,-1,-1
58,100,0.2,145,0,114,DL_MelancholicFolk_Guitar,-1,-1
58,100,0.8,220,0,114,DL_MelancholicFolk_Guitar,-1,-1
58,100,0.6227272727272727,409,0,114,DL_MelancholicFolk_Guitar,-1,-1
53,100,0.1,553,0,114,DL_MelancholicFolk_Guitar,-1,-1
51,100,2.2,810,1,114,DL_MelancholicFolk_Guitar,-1,-1
51,100,0.1,417,1,115,DL_MelancholicFolk_Guitar,-1,-1
60,100,0.2636363636363636,487,0,115,DL_MelancholicFolk_Guitar,-1,-1
41,100,0.9409090909090909,572,0,115,DL_MelancholicFolk_Guitar,-1,-1
60,100,0.23636363636363636,787,1,115,DL_MelancholicFolk_Guitar,-1,-1
41,100,3.1227272727272726,849,0,115,DL_MelancholicFolk_Guitar,-1,-1
60,100,0.23636363636363636,656,1,116,DL_MelancholicFolk_Guitar,-1,-1
60,100,2.7,734,0,116,DL_MelancholicFolk_Guitar,-1,-1
46,100,0.18181818181818182,597,1,117,DL_MelancholicFolk_Guitar,-1,-1
46,100,1.2181818181818183,703,0,117,DL_MelancholicFolk_Guitar,-1,-1
46,100,1.4227272727272726,255,1,118,DL_MelancholicFolk_Guitar,-1,-1
46,100,0.6590909090909091,585,1,118,DL_MelancholicFolk_Guitar,-1,-1
46,100,1.040909090909091,783,0,118,DL_MelancholicFolk_Guitar,-1,-1
46,100,0.32272727272727275,343,1,119,DL_MelancholicFolk_Guitar,-1,-1
46,100,0.41818181818181815,53,1,120,DL_MelancholicFolk_Guitar,-1,-1
46,100,0.6818181818181818,189,0,120,DL_MelancholicFolk_Guitar,-1,-1
46,100,0.1,373,0,120,DL_MelancholicFolk_Guitar,-1,-1
53,100,0.22272727272727272,488,1,0,DL_Remix_Guitar,-1,-1
58,100,0.21818181818181817,682,0,0,DL_Remix_Guitar,-1,-1
58,100,0.5818181818181818,748,0,0,DL_Remix_Guitar,-1,-1
62,100,0.6636363636363637,4,1,1,DL_Remix_Guitar,-1,-1
53,100,0.37727272727272726,163,0,1,DL_Remix_Guitar,-1,-1
58,100,0.18181818181818182,255,0,1,DL_Remix_Guitar,-1,-1
51,100,0.740909090909091,311,0,1,DL_Remix_Guitar,-1,-1
51,100,0.21818181818181817,550,1,1,DL_Remix_Guitar,-1,-1
63,100,0.12272727272727273,597,0,1,DL_Remix_Guitar,-1,-1
51,100,0.11818181818181818,625,0,1,DL_Remix_Guitar,-1,-1
63,100,0.5,651,0,1,DL_Remix_Guitar,-1,-1
58,100,0.3409090909090909,823,0,1,DL_Remix_Guitar,-1,-1
53,100,0.2818181818181818,21,1,2,DL_Remix_Guitar,-1,-1
60,100,0.3409090909090909,220,1,2,DL_Remix_Guitar,-1,-1
60,100,0.32272727272727275,541,1,2,DL_Remix_Guitar,-1,-1
46,100,0.16363636363636364,642,0,2,DL_Remix_Guitar,-1,-1
46,100,0.12272727272727273,26,1,3,DL_Remix_Guitar,-1,-1
53,100,0.9,61,0,3,DL_Remix_Guitar,-1,-1
58,100,0.3409090909090909,263,1,3,DL_Remix_Guitar,-1,-1
53,100,0.12272727272727273,364,0,3,DL_Remix_Guitar,-1,-1
43,100,0.5181818181818182,546,0,3,DL_Remix_Guitar,-1,-1
53,100,0.32272727272727275,818,1,3,DL_Remix_Guitar,-1,-1
58,100,0.12272727272727273,56,1,4,DL_Remix_Guitar,-1,-1
51,100,0.7227272727272728,91,0,4,DL_Remix_Guitar,-1,-1
58,100,0.1409090909090909,255,0,4,DL_Remix_Guitar,-1,-1
51,100,0.11818181818181818,370,0,4,DL_Remix_Guitar,-1,-1
51,100,0.2818181818181818,399,0,4,DL_Remix_Guitar,-1,-1
63,100,0.5409090909090909,532,0,4,DL_Remix_Guitar,-1,-1
53,100,0.2,695,0,4,DL_Remix_Guitar,-1,-1
41,100,0.1590909090909091,739,0,4,DL_Remix_Guitar,-1,-1
41,100,0.1590909090909091,778,0,4,DL_Remix_Guitar,-1,-1
53,100,0.8818181818181818,813,0,4,DL_Remix_Guitar,-1,-1
41,100,0.2,458,1,5,DL_Remix_Guitar,-1,-1
41,100,0.2,506,0,5,DL_Remix_Guitar,-1,-1
41,100,0.4,48,1,6,DL_Remix_Guitar,-1,-1
46,100,0.6590909090909091,150,0,6,DL_Remix_Guitar,-1,-1
46,100,0.7772727272727272,788,1,6,DL_Remix_Guitar,-1,-1
46,100,0.4,87,1,7,DL_Remix_Guitar,-1,-1
46,100,0.4409090909090909,201,0,7,DL_Remix_Guitar,-1,-1
46,100,0.1409090909090909,330,0,7,DL_Remix_Guitar,-1,-1
46,100,0.6,501,0,7,DL_Remix_Guitar,-1,-1
46,100,0.32272727272727275,25,1,8,DL_Remix_Guitar,-1,-1
46,100,0.2,233,1,8,DL_Remix_Guitar,-1,-1
46,100,0.3181818181818182,285,0,8,DL_Remix_Guitar,-1,-1
46,100,0.11818181818181818,479,0,8,DL_Remix_Guitar,-1,-1
43,100,0.2,831,1,8,DL_Remix_Guitar,-1,-1
43,100,0.16363636363636364,48,1,9,DL_Remix_Guitar,-1,-1
43,100,1.1818181818181819,840,1,9,DL_Remix_Guitar,-1,-1
62,100,0.1590909090909091,220,1,10,DL_Remix_Guitar,-1,-1
50,100,0.740909090909091,264,0,10,DL_Remix_Guitar,-1,-1
50,100,0.11818181818181818,448,0,10,DL_Remix_Guitar,-1,-1
50,100,0.1,273,1,11,DL_Remix_Guitar,-1,-1
50,100,1.1409090909090909,321,0,11,DL_Remix_Guitar,-1,-1
51,100,0.1409090909090909,629,1,11,DL_Remix_Guitar,-1,-1
51,100,0.9772727272727273,668,0,11,DL_Remix_Guitar,-1,-1
51,100,0.33636363636363636,61,1,12,DL_Remix_Guitar,-1,-1
51,100,0.2772727272727273,140,0,12,DL_Remix_Guitar,-1,-1
51,100,1.759090909090909,405,1,12,DL_Remix_Guitar,-1,-1
50,100,0.8818181818181818,44,1,13,DL_Remix_Guitar,-1,-1
50,100,0.12272727272727273,276,1,13,DL_Remix_Guitar,-1,-1
43,100,0.12272727272727273,685,1,13,DL_Remix_Guitar,-1,-1
43,100,0.6636363636363637,752,0,13,DL_Remix_Guitar,-1,-1
62,100,0.6227272727272727,166,1,14,DL_Remix_Guitar,-1,-1
62,100,0.21818181818181817,307,0,14,DL_Remix_Guitar,-1,-1
48,100,0.6409090909090909,405,0,14,DL_Remix_Guitar,-1,-1
58,100,0.22272727272727272,862,1,14,DL_Remix_Guitar,-1,-1
62,100,0.21818181818181817,360,1,15,DL_Remix_Guitar,-1,-1
58,100,0.6409090909090909,563,1,15,DL_Remix_Guitar,-1,-1
53,100,0.32272727272727275,716,0,15,DL_Remix_Guitar,-1,-1
58,100,0.35909090909090907,162,1,16,DL_Remix_Guitar,-1,-1
53,100,1.018181818181818,413,1,16,DL_Remix_Guitar,-1,-1
60,100,1.0,822,1,16,DL_Remix_Guitar,-1,-1
46,100,0.7227272727272728,179,1,17,DL_Remix_Guitar,-1,-1
53,100,0.1409090909090909,34,1,18,DL_Remix_Guitar,-1,-1
46,100,0.5409090909090909,189,0,18,DL_Remix_Guitar,-1,-1
53,100,0.1409090909090909,430,1,18,DL_Remix_Guitar,-1,-1
53,100,0.2,474,0,18,DL_Remix_Guitar,-1,-1
46,100,0.4772727272727273,546,0,18,DL_Remix_Guitar,-1,-1
58,100,0.4590909090909091,835,1,18,DL_Remix_Guitar,-1,-1
53,100,0.1409090909090909,804,1,19,DL_Remix_Guitar,-1,-1
46,100,0.740909090909091,845,0,19,DL_Remix_Guitar,-1,-1
46,100,0.11818181818181818,260,1,20,DL_Remix_Guitar,-1,-1
46,100,0.3181818181818182,418,0,20,DL_Remix_Guitar,-1,-1
53,100,0.5181818181818182,492,0,20,DL_Remix_Guitar,-1,-1
50,100,0.35909090909090907,638,0,20,DL_Remix_Guitar,-1,-1
53,100,0.11818181818181818,725,0,20,DL_Remix_Guitar,-1,-1
58,100,0.35909090909090907,611,1,21,DL_Remix_Guitar,-1,-1
58,100,0.1,694,0,21,DL_Remix_Guitar,-1,-1
62,100,0.8181818181818182,770,0,21,DL_Remix_Guitar,-1,-1
50,100,1.0818181818181818,79,1,22,DL_Remix_Guitar,-1,-1
58,100,0.6772727272727272,347,1,22,DL_Remix_Guitar,-1,-1
50,100,0.1409090909090909,615,1,22,DL_Remix_Guitar,-1,-1
50,100,0.2590909090909091,650,0,22,DL_Remix_Guitar,-1,-1
50,100,0.7636363636363637,773,0,22,DL_Remix_Guitar,-1,-1
50,100,0.5,550,1,23,DL_Remix_Guitar,-1,-1
50,100,0.2772727272727273,721,0,23,DL_Remix_Guitar,-1,-1
50,100,0.35909090909090907,853,0,23,DL_Remix_Guitar,-1,-1
51,100,1.3772727272727272,83,1,24,DL_Remix_Guitar,-1,-1
58,100,0.1590909090909091,413,1,24,DL_Remix_Guitar,-1,-1
51,100,1.0772727272727274,602,0,24,DL_Remix_Guitar,-1,-1
58,100,0.2,370,1,25,DL_Remix_Guitar,-1,-1
50,100,1.3409090909090908,426,0,25,DL_Remix_Guitar,-1,-1
50,100,0.2,44,1,26,DL_Remix_Guitar,-1,-1
50,100,0.3181818181818182,374,1,26,DL_Remix_Guitar,-1,-1
50,100,0.5818181818181818,466,0,26,DL_Remix_Guitar,-1,-1
63,100,0.9409090909090909,449,1,27,DL_Remix_Guitar,-1,-1
63,100,0.3409090909090909,708,1,27,DL_Remix_Guitar,-1,-1
63,100,0.11818181818181818,65,1,28,DL_Remix_Guitar,-1,-1
63,100,0.21818181818181817,119,0,28,DL_Remix_Guitar,-1,-1
53,100,0.18181818181818182,202,0,28,DL_Remix_Guitar,-1,-1
41,100,0.11818181818181818,316,0,28,DL_Remix_Guitar,-1,-1
48,100,0.6772727272727272,360,0,28,DL_Remix_Guitar,-1,-1
48,100,0.12272727272727273,694,1,28,DL_Remix_Guitar,-1,-1
48,100,0.5590909090909091,831,0,28,DL_Remix_Guitar,-1,-1
53,100,0.2409090909090909,553,1,29,DL_Remix_Guitar,-1,-1
46,100,0.1409090909090909,615,0,29,DL_Remix_Guitar,-1,-1
53,100,0.1,787,0,29,DL_Remix_Guitar,-1,-1
53,100,0.3409090909090909,858,0,29,DL_Remix_Guitar,-1,-1
53,100,0.1,289,1,30,DL_Remix_Guitar,-1,-1
53,100,0.5363636363636364,413,0,30,DL_Remix_Guitar,-1,-1
53,100,0.4590909090909091,581,0,30,DL_Remix_Guitar,-1,-1
53,100,0.12272727272727273,760,0,30,DL_Remix_Guitar,-1,-1
53,100,0.2818181818181818,791,0,30,DL_Remix_Guitar,-1,-1
50,100,1.040909090909091,65,1,31,DL_Remix_Guitar,-1,-1
50,100,1.040909090909091,378,1,31,DL_Remix_Guitar,-1,-1
50,100,1.1,663,1,31,DL_Remix_Guitar,-1,-1
58,100,0.5227272727272727,201,1,32,DL_Remix_Guitar,-1,-1
51,100,0.8181818181818182,330,0,32,DL_Remix_Guitar,-1,-1
51,100,0.5409090909090909,515,0,32,DL_Remix_Guitar,-1,-1
51,100,0.4,664,0,32,DL_Remix_Guitar,-1,-1
53,100,0.1409090909090909,804,0,32,DL_Remix_Guitar,-1,-1
58,100,0.2590909090909091,836,0,32,DL_Remix_Guitar,-1,-1
53,100,0.38181818181818183,13,1,33,DL_Remix_Guitar,-1,-1
53,100,0.5590909090909091,105,0,33,DL_Remix_Guitar,-1,-1
53,100,0.38181818181818183,378,1,33,DL_Remix_Guitar,-1,-1
53,100,0.4636363636363636,554,0,33,DL_Remix_Guitar,-1,-1
55,100,0.43636363636363634,678,0,33,DL_Remix_Guitar,-1,-1
55,100,0.2772727272727273,215,1,34,DL_Remix_Guitar,-1,-1
53,100,0.18181818181818182,321,0,34,DL_Remix_Guitar,-1,-1
60,100,0.16363636363636364,421,0,34,DL_Remix_Guitar,-1,-1
41,100,0.35909090909090907,458,0,34,DL_Remix_Guitar,-1,-1
41,100,0.3409090909090909,606,0,34,DL_Remix_Guitar,-1,-1
53,100,1.2,681,0,34,DL_Remix_Guitar,-1,-1
53,100,0.18181818181818182,69,1,35,DL_Remix_Guitar,-1,-1
50,100,0.1409090909090909,286,1,35,DL_Remix_Guitar,-1,-1
50,100,0.17727272727272728,545,1,35,DL_Remix_Guitar,-1,-1
63,100,0.1409090909090909,75,1,36,DL_Remix_Guitar,-1,-1
53,100,0.6409090909090909,311,1,36,DL_Remix_Guitar,-1,-1
53,100,0.8590909090909091,458,0,36,DL_Remix_Guitar,-1,-1
53,100,0.2590909090909091,694,1,36,DL_Remix_Guitar,-1,-1
53,100,0.9,756,0,36,DL_Remix_Guitar,-1,-1
53,100,0.1590909090909091,88,1,37,DL_Remix_Guitar,-1,-1
50,100,0.1409090909090909,364,1,37,DL_Remix_Guitar,-1,-1
53,100,0.2590909090909091,721,1,37,DL_Remix_Guitar,-1,-1
63,100,0.17727272727272728,163,1,38,DL_Remix_Guitar,-1,-1
53,100,0.1590909090909091,518,1,38,DL_Remix_Guitar,-1,-1
53,100,0.1409090909090909,638,0,38,DL_Remix_Guitar,-1,-1
53,100,0.5409090909090909,694,0,38,DL_Remix_Guitar,-1,-1
58,100,0.1409090909090909,233,1,39,DL_Remix_Guitar,-1,-1
46,100,0.2590909090909091,263,0,39,DL_Remix_Guitar,-1,-1
46,100,0.21818181818181817,646,1,39,DL_Remix_Guitar,-1,-1
45,100,0.3,861,1,39,DL_Remix_Guitar,-1,-1
60,100,0.5818181818181818,431,1,40,DL_Remix_Guitar,-1,-1
43,100,0.32272727272727275,584,0,40,DL_Remix_Guitar,-1,-1
50,100,0.4772727272727273,8,1,41,DL_Remix_Guitar,-1,-1
58,100,0.11818181818181818,251,1,41,DL_Remix_Guitar,-1,-1
51,100,0.11818181818181818,303,0,41,DL_Remix_Guitar,-1,-1
51,100,0.7,338,0,41,DL_Remix_Guitar,-1,-1
51,100,0.7772727272727272,590,1,41,DL_Remix_Guitar,-1,-1
58,100,0.41818181818181815,801,1,41,DL_Remix_Guitar,-1,-1
53,100,0.2590909090909091,31,1,42,DL_Remix_Guitar,-1,-1
53,100,0.18181818181818182,91,0,42,DL_Remix_Guitar,-1,-1
53,100,0.1409090909090909,638,1,42,DL_Remix_Guitar,-1,-1
53,100,0.740909090909091,791,0,42,DL_Remix_Guitar,-1,-1
53,100,0.42272727272727273,334,1,43,DL_Remix_Guitar,-1,-1
48,100,1.059090909090909,431,0,43,DL_Remix_Guitar,-1,-1
53,100,0.11818181818181818,700,1,43,DL_Remix_Guitar,-1,-1
53,100,0.2590909090909091,13,1,44,DL_Remix_Guitar,-1,-1
55,100,0.2590909090909091,144,0,44,DL_Remix_Guitar,-1,-1
53,100,0.1409090909090909,233,0,44,DL_Remix_Guitar,-1,-1
55,100,0.21818181818181817,303,0,44,DL_Remix_Guitar,-1,-1
53,100,0.11818181818181818,545,1,44,DL_Remix_Guitar,-1,-1
58,100,0.6590909090909091,668,1,45,DL_Remix_Guitar,-1,-1
58,100,0.4772727272727273,875,1,45,DL_Remix_Guitar,-1,-1
51,100,0.4,163,1,46,DL_Remix_Guitar,-1,-1
51,100,0.11818181818181818,281,0,46,DL_Remix_Guitar,-1,-1
51,100,0.2409090909090909,383,0,46,DL_Remix_Guitar,-1,-1
51,100,0.21818181818181817,480,0,46,DL_Remix_Guitar,-1,-1
58,100,0.1409090909090909,550,0,46,DL_Remix_Guitar,-1,-1
58,100,0.12272727272727273,619,0,46,DL_Remix_Guitar,-1,-1
46,100,0.1409090909090909,668,0,46,DL_Remix_Guitar,-1,-1
53,100,0.8,761,0,46,DL_Remix_Guitar,-1,-1
48,100,0.1590909090909091,66,1,47,DL_Remix_Guitar,-1,-1
48,100,0.8181818181818182,215,0,47,DL_Remix_Guitar,-1,-1
53,100,0.22272727272727272,408,0,47,DL_Remix_Guitar,-1,-1
53,100,0.2818181818181818,804,1,47,DL_Remix_Guitar,-1,-1
50,100,0.5772727272727273,163,1,48,DL_Remix_Guitar,-1,-1
60,100,0.2,373,1,48,DL_Remix_Guitar,-1,-1
57,100,0.1,703,1,48,DL_Remix_Guitar,-1,-1
53,100,0.12272727272727273,751,0,48,DL_Remix_Guitar,-1,-1
53,100,0.2409090909090909,418,1,49,DL_Remix_Guitar,-1,-1
46,100,0.12272727272727273,518,0,49,DL_Remix_Guitar,-1,-1
46,100,0.5590909090909091,568,0,49,DL_Remix_Guitar,-1,-1
46,100,0.4,751,0,49,DL_Remix_Guitar,-1,-1
58,100,0.41818181818181815,43,1,50,DL_Remix_Guitar,-1,-1
55,100,0.32272727272727275,364,1,50,DL_Remix_Guitar,-1,-1
55,100,0.41818181818181815,440,0,50,DL_Remix_Guitar,-1,-1
53,100,0.4409090909090909,861,1,50,DL_Remix_Guitar,-1,-1
58,100,0.1590909090909091,144,1,51,DL_Remix_Guitar,-1,-1
48,100,0.2,193,0,51,DL_Remix_Guitar,-1,-1
58,100,0.9772727272727273,383,0,51,DL_Remix_Guitar,-1,-1
46,100,0.5181818181818182,633,1,51,DL_Remix_Guitar,-1,-1
53,100,0.16363636363636364,751,0,51,DL_Remix_Guitar,-1,-1
53,100,0.5409090909090909,801,0,51,DL_Remix_Guitar,-1,-1
53,100,0.35909090909090907,188,1,52,DL_Remix_Guitar,-1,-1
53,100,0.16363636363636364,334,0,52,DL_Remix_Guitar,-1,-1
53,100,0.3,386,0,52,DL_Remix_Guitar,-1,-1
53,100,0.21818181818181817,480,0,52,DL_Remix_Guitar,-1,-1
53,100,0.2,536,0,52,DL_Remix_Guitar,-1,-1
53,100,0.2590909090909091,646,0,52,DL_Remix_Guitar,-1,-1
53,100,0.5,858,1,52,DL_Remix_Guitar,-1,-1
46,100,0.4772727272727273,238,1,53,DL_Remix_Guitar,-1,-1
53,100,0.4818181818181818,373,0,53,DL_Remix_Guitar,-1,-1
53,100,0.23636363636363636,523,0,53,DL_Remix_Guitar,-1,-1
53,100,0.11818181818181818,593,0,53,DL_Remix_Guitar,-1,-1
53,100,0.1409090909090909,668,0,53,DL_Remix_Guitar,-1,-1
53,100,0.12272727272727273,751,0,53,DL_Remix_Guitar,-1,-1
53,100,0.1590909090909091,813,0,53,DL_Remix_Guitar,-1,-1
53,100,0.3409090909090909,88,1,54,DL_Remix_Guitar,-1,-1
48,100,0.1409090909090909,251,0,54,DL_Remix_Guitar,-1,-1
53,100,0.17727272727272728,348,0,54,DL_Remix_Guitar,-1,-1
58,100,0.22272727272727272,541,0,54,DL_Remix_Guitar,-1,-1
55,100,0.2409090909090909,488,1,55,DL_Remix_Guitar,-1,-1
53,100,0.1590909090909091,678,0,55,DL_Remix_Guitar,-1,-1
51,100,0.9772727272727273,743,0,55,DL_Remix_Guitar,-1,-1
51,100,0.6590909090909091,166,1,56,DL_Remix_Guitar,-1,-1
58,100,0.18181818181818182,321,0,56,DL_Remix_Guitar,-1,-1
51,100,0.1590909090909091,364,0,56,DL_Remix_Guitar,-1,-1
53,100,0.2409090909090909,466,0,56,DL_Remix_Guitar,-1,-1
53,100,0.9590909090909091,756,1,56,DL_Remix_Guitar,-1,-1
53,100,0.2,91,1,57,DL_Remix_Guitar,-1,-1
53,100,0.5590909090909091,141,0,57,DL_Remix_Guitar,-1,-1
58,100,0.1409090909090909,263,0,57,DL_Remix_Guitar,-1,-1
53,100,0.6,334,0,57,DL_Remix_Guitar,-1,-1
53,100,0.23636363636363636,633,1,57,DL_Remix_Guitar,-1,-1
53,100,0.2590909090909091,726,0,57,DL_Remix_Guitar,-1,-1
53,100,0.11818181818181818,61,1,58,DL_Remix_Guitar,-1,-1
53,100,0.22272727272727272,188,0,58,DL_Remix_Guitar,-1,-1
53,100,0.4,241,0,58,DL_Remix_Guitar,-1,-1
53,100,0.1590909090909091,458,1,58,DL_Remix_Guitar,-1,-1
46,100,0.2818181818181818,751,1,58,DL_Remix_Guitar,-1,-1
53,100,0.3181818181818182,18,1,59,DL_Remix_Guitar,-1,-1
53,100,0.42272727272727273,101,0,59,DL_Remix_Guitar,-1,-1
53,100,0.35909090909090907,558,1,59,DL_Remix_Guitar,-1,-1
53,100,0.23636363636363636,788,1,59,DL_Remix_Guitar,-1,-1
58,100,0.18181818181818182,91,1,60,DL_Remix_Guitar,-1,-1
58,100,0.3181818181818182,501,1,60,DL_Remix_Guitar,-1,-1
58,100,0.4,633,0,60,DL_Remix_Guitar,-1,-1
58,100,0.1409090909090909,801,0,60,DL_Remix_Guitar,-1,-1
53,100,0.18181818181818182,0,1,61,DL_Remix_Guitar,-1,-1
53,100,0.16363636363636364,246,1,61,DL_Remix_Guitar,-1,-1
51,100,1.2818181818181817,321,0,61,DL_Remix_Guitar,-1,-1
51,100,0.42272727272727273,641,1,61,DL_Remix_Guitar,-1,-1
46,100,0.35909090909090907,826,0,61,DL_Remix_Guitar,-1,-1
58,100,0.11818181818181818,105,1,62,DL_Remix_Guitar,-1,-1
46,100,0.3,131,0,62,DL_Remix_Guitar,-1,-1
53,100,0.5181818181818182,348,1,62,DL_Remix_Guitar,-1,-1
53,100,0.1409090909090909,584,1,62,DL_Remix_Guitar,-1,-1
63,100,0.2,4,1,63,DL_Remix_Guitar,-1,-1
58,100,0.4,118,0,63,DL_Remix_Guitar,-1,-1
58,100,0.18181818181818182,308,0,63,DL_Remix_Guitar,-1,-1
53,100,0.5,378,0,63,DL_Remix_Guitar,-1,-1
53,100,0.21818181818181817,493,0,63,DL_Remix_Guitar,-1,-1
51,100,1.259090909090909,716,1,64,DL_Remix_Guitar,-1,-1
51,100,0.2,145,1,65,DL_Remix_Guitar,-1,-1
63,100,0.32272727272727275,189,0,65,DL_Remix_Guitar,-1,-1
51,100,0.6,282,0,65,DL_Remix_Guitar,-1,-1
50,100,1.1409090909090909,470,0,65,DL_Remix_Guitar,-1,-1
50,100,0.5409090909090909,756,1,65,DL_Remix_Guitar,-1,-1
53,100,0.2,92,1,66,DL_Remix_Guitar,-1,-1
58,100,0.37727272727272726,612,1,66,DL_Remix_Guitar,-1,-1
48,100,0.18181818181818182,286,1,67,DL_Remix_Guitar,-1,-1
53,100,0.2590909090909091,493,1,67,DL_Remix_Guitar,-1,-1
53,100,0.16363636363636364,553,0,67,DL_Remix_Guitar,-1,-1
53,100,0.11818181818181818,593,0,67,DL_Remix_Guitar,-1,-1
53,100,0.11818181818181818,624,0,67,DL_Remix_Guitar,-1,-1
58,100,0.11818181818181818,66,1,68,DL_Remix_Guitar,-1,-1
46,100,0.1409090909090909,157,0,68,DL_Remix_Guitar,-1,-1
46,100,0.2409090909090909,383,1,68,DL_Remix_Guitar,-1,-1
51,100,0.13636363636363635,480,0,68,DL_Remix_Guitar,-1,-1
53,100,0.5409090909090909,686,1,68,DL_Remix_Guitar,-1,-1
53,100,0.1409090909090909,273,1,69,DL_Remix_Guitar,-1,-1
58,100,0.1409090909090909,399,0,69,DL_Remix_Guitar,-1,-1
53,100,0.18181818181818182,430,0,69,DL_Remix_Guitar,-1,-1
58,100,0.2409090909090909,470,0,69,DL_Remix_Guitar,-1,-1
48,100,0.3,206,1,70,DL_Remix_Guitar,-1,-1
60,100,0.1409090909090909,316,0,70,DL_Remix_Guitar,-1,-1
48,100,0.35909090909090907,559,1,70,DL_Remix_Guitar,-1,-1
48,100,0.16363636363636364,642,0,70,DL_Remix_Guitar,-1,-1
48,100,0.3,734,0,70,DL_Remix_Guitar,-1,-1
48,100,0.12272727272727273,805,0,70,DL_Remix_Guitar,-1,-1
48,100,0.1590909090909091,836,0,70,DL_Remix_Guitar,-1,-1
55,100,0.4818181818181818,682,1,71,DL_Remix_Guitar,-1,-1
58,100,0.4,800,0,71,DL_Remix_Guitar,-1,-1
55,100,0.22272727272727272,69,1,72,DL_Remix_Guitar,-1,-1
58,100,0.3409090909090909,179,0,72,DL_Remix_Guitar,-1,-1
51,100,0.5227272727272727,399,1,72,DL_Remix_Guitar,-1,-1
51,100,0.41818181818181815,536,0,72,DL_Remix_Guitar,-1,-1
51,100,0.11818181818181818,690,0,72,DL_Remix_Guitar,-1,-1
48,100,0.1409090909090909,320,1,73,DL_Remix_Guitar,-1,-1
50,100,0.21818181818181817,770,1,73,DL_Remix_Guitar,-1,-1
50,100,0.1409090909090909,844,0,73,DL_Remix_Guitar,-1,-1
53,100,0.1,413,1,74,DL_Remix_Guitar,-1,-1
55,100,0.1590909090909091,475,0,74,DL_Remix_Guitar,-1,-1
51,100,0.3181818181818182,206,1,75,DL_Remix_Guitar,-1,-1
51,100,0.1409090909090909,316,0,75,DL_Remix_Guitar,-1,-1
51,100,0.5818181818181818,453,0,75,DL_Remix_Guitar,-1,-1
51,100,0.3,585,0,75,DL_Remix_Guitar,-1,-1
53,100,0.11818181818181818,656,0,75,DL_Remix_Guitar,-1,-1
53,100,0.35909090909090907,734,0,75,DL_Remix_Guitar,-1,-1
63,100,0.2772727272727273,303,1,76,DL_Remix_Guitar,-1,-1
46,100,0.2,457,0,76,DL_Remix_Guitar,-1,-1
53,100,0.22272727272727272,619,0,76,DL_Remix_Guitar,-1,-1
46,100,0.1409090909090909,707,0,76,DL_Remix_Guitar,-1,-1
53,100,0.11818181818181818,770,0,76,DL_Remix_Guitar,-1,-1
53,100,0.11818181818181818,800,0,76,DL_Remix_Guitar,-1,-1
53,100,0.4590909090909091,836,0,76,DL_Remix_Guitar,-1,-1
53,100,0.33636363636363636,502,1,77,DL_Remix_Guitar,-1,-1
53,100,0.4,637,0,77,DL_Remix_Guitar,-1,-1
53,100,0.18181818181818182,729,0,77,DL_Remix_Guitar,-1,-1
58,100,0.35909090909090907,119,1,78,DL_Remix_Guitar,-1,-1
53,100,0.2772727272727273,383,1,78,DL_Remix_Guitar,-1,-1
53,100,0.3409090909090909,527,0,78,DL_Remix_Guitar,-1,-1
53,100,0.1409090909090909,703,0,78,DL_Remix_Guitar,-1,-1
48,100,0.1409090909090909,770,0,78,DL_Remix_Guitar,-1,-1
53,100,0.7,817,0,78,DL_Remix_Guitar,-1,-1
53,100,0.3,106,1,79,DL_Remix_Guitar,-1,-1
46,100,0.1590909090909091,409,1,79,DL_Remix_Guitar,-1,-1
46,100,0.4,449,0,79,DL_Remix_Guitar,-1,-1
53,100,0.3,567,0,79,DL_Remix_Guitar,-1,-1
53,100,0.17727272727272728,677,0,79,DL_Remix_Guitar,-1,-1
57,100,0.3,716,0,79,DL_Remix_Guitar,-1,-1
57,100,0.11818181818181818,813,0,79,DL_Remix_Guitar,-1,-1
51,100,0.6409090909090909,866,0,79,DL_Remix_Guitar,-1,-1
51,100,0.38181818181818183,157,1,80,DL_Remix_Guitar,-1,-1
53,100,0.3,157,1,81,DL_Remix_Guitar,-1,-1
58,100,0.22272727272727272,246,0,81,DL_Remix_Guitar,-1,-1
53,100,0.2590909090909091,316,0,81,DL_Remix_Guitar,-1,-1
53,100,0.32272727272727275,453,0,81,DL_Remix_Guitar,-1,-1
48,100,0.22272727272727272,540,0,81,DL_Remix_Guitar,-1,-1
53,100,0.2,597,0,81,DL_Remix_Guitar,-1,-1
53,100,0.3,766,0,81,DL_Remix_Guitar,-1,-1
53,100,0.6818181818181818,26,1,82,DL_Remix_Guitar,-1,-1
53,100,0.1590909090909091,193,0,82,DL_Remix_Guitar,-1,-1
53,100,0.1,233,0,82,DL_Remix_Guitar,-1,-1
53,100,0.1,343,0,82,DL_Remix_Guitar,-1,-1
53,100,0.3181818181818182,506,0,82,DL_Remix_Guitar,-1,-1
53,100,0.11818181818181818,612,0,82,DL_Remix_Guitar,-1,-1
41,100,0.17727272727272728,677,0,82,DL_Remix_Guitar,-1,-1
60,100,0.18181818181818182,770,0,82,DL_Remix_Guitar,-1,-1
53,100,0.2409090909090909,13,1,83,DL_Remix_Guitar,-1,-1
41,100,0.11818181818181818,74,0,83,DL_Remix_Guitar,-1,-1
51,100,1.1409090909090909,430,1,85,DL_Remix_Guitar,-1,-1
51,100,0.1409090909090909,686,1,85,DL_Remix_Guitar,-1,-1
53,100,0.3181818181818182,303,1,86,DL_Remix_Guitar,-1,-1
48,100,0.22272727272727272,343,1,87,DL_Remix_Guitar,-1,-1
53,100,0.22272727272727272,553,1,87,DL_Remix_Guitar,-1,-1
53,100,0.38181818181818183,606,0,87,DL_Remix_Guitar,-1,-1
53,100,0.5181818181818182,866,1,87,DL_Remix_Guitar,-1,-1
46,100,0.1,580,1,88,DL_Remix_Guitar,-1,-1
46,100,0.9409090909090909,606,0,88,DL_Remix_Guitar,-1,-1
53,100,0.23636363636363636,832,1,88,DL_Remix_Guitar,-1,-1
46,100,0.3,22,1,89,DL_Remix_Guitar,-1,-1
46,100,0.3,255,1,89,DL_Remix_Guitar,-1,-1
46,100,8.25909090909091,360,0,89,DL_Remix_Guitar,-1,-1
52,100,0.7227272727272728,48,1,0,_tunecore_Remastered_Guitar,-1,-1
59,100,0.2,370,1,0,_tunecore_Remastered_Guitar,-1,-1
59,100,0.1,559,0,0,_tunecore_Remastered_Guitar,-1,-1
49,100,0.3409090909090909,629,0,0,_tunecore_Remastered_Guitar,-1,-1
59,100,0.2,713,0,0,_tunecore_Remastered_Guitar,-1,-1
61,100,0.4,801,0,0,_tunecore_Remastered_Guitar,-1,-1
64,100,0.6181818181818182,18,1,1,_tunecore_Remastered_Guitar,-1,-1
61,100,0.1590909090909091,241,1,1,_tunecore_Remastered_Guitar,-1,-1
59,100,0.1590909090909091,744,1,1,_tunecore_Remastered_Guitar,-1,-1
61,100,0.3181818181818182,791,0,1,_tunecore_Remastered_Guitar,-1,-1
59,100,0.759090909090909,871,0,1,_tunecore_Remastered_Guitar,-1,-1
59,100,0.6772727272727272,193,1,2,_tunecore_Remastered_Guitar,-1,-1
64,100,0.21818181818181817,348,0,2,_tunecore_Remastered_Guitar,-1,-1
59,100,0.2409090909090909,427,0,2,_tunecore_Remastered_Guitar,-1,-1
64,100,0.2409090909090909,488,0,2,_tunecore_Remastered_Guitar,-1,-1
52,100,0.6409090909090909,541,0,2,_tunecore_Remastered_Guitar,-1,-1
40,100,0.1409090909090909,712,0,2,_tunecore_Remastered_Guitar,-1,-1
64,100,0.1,779,0,2,_tunecore_Remastered_Guitar,-1,-1
64,100,0.1,849,0,2,_tunecore_Remastered_Guitar,-1,-1
59,100,0.2,34,1,3,_tunecore_Remastered_Guitar,-1,-1
61,100,0.2818181818181818,100,0,3,_tunecore_Remastered_Guitar,-1,-1
64,100,0.3181818181818182,176,0,3,_tunecore_Remastered_Guitar,-1,-1
49,100,0.2772727272727273,295,0,3,_tunecore_Remastered_Guitar,-1,-1
61,100,0.35909090909090907,369,0,3,_tunecore_Remastered_Guitar,-1,-1
64,100,0.2,458,0,3,_tunecore_Remastered_Guitar,-1,-1
64,100,0.23636363636363636,656,1,3,_tunecore_Remastered_Guitar,-1,-1
61,100,0.2636363636363636,708,0,3,_tunecore_Remastered_Guitar,-1,-1
57,100,0.13636363636363635,810,0,3,_tunecore_Remastered_Guitar,-1,-1
64,100,1.2636363636363637,334,1,4,_tunecore_Remastered_Guitar,-1,-1
47,100,0.5409090909090909,664,1,4,_tunecore_Remastered_Guitar,-1,-1
63,100,0.1409090909090909,836,0,4,_tunecore_Remastered_Guitar,-1,-1
64,100,0.12272727272727273,135,1,5,_tunecore_Remastered_Guitar,-1,-1
52,100,0.740909090909091,163,0,5,_tunecore_Remastered_Guitar,-1,-1
40,100,0.21818181818181817,330,0,5,_tunecore_Remastered_Guitar,-1,-1
40,100,0.1590909090909091,383,0,5,_tunecore_Remastered_Guitar,-1,-1
49,100,0.5590909090909091,726,1,5,_tunecore_Remastered_Guitar,-1,-1
61,100,0.4590909090909091,854,0,5,_tunecore_Remastered_Guitar,-1,-1
64,100,0.1409090909090909,74,1,6,_tunecore_Remastered_Guitar,-1,-1
64,100,0.42272727272727273,145,0,6,_tunecore_Remastered_Guitar,-1,-1
49,100,0.5636363636363636,268,0,6,_tunecore_Remastered_Guitar,-1,-1
61,100,0.1,550,1,6,_tunecore_Remastered_Guitar,-1,-1
61,100,0.1,598,0,6,_tunecore_Remastered_Guitar,-1,-1
61,100,0.2,721,0,6,_tunecore_Remastered_Guitar,-1,-1
57,100,0.1409090909090909,826,0,6,_tunecore_Remastered_Guitar,-1,-1
61,100,0.3409090909090909,871,0,6,_tunecore_Remastered_Guitar,-1,-1
47,100,0.18181818181818182,91,1,7,_tunecore_Remastered_Guitar,-1,-1
47,100,0.2818181818181818,135,0,7,_tunecore_Remastered_Guitar,-1,-1
63,100,0.4,220,0,7,_tunecore_Remastered_Guitar,-1,-1
52,100,0.6363636363636364,634,1,7,_tunecore_Remastered_Guitar,-1,-1
52,100,0.22272727272727272,818,0,7,_tunecore_Remastered_Guitar,-1,-1
40,100,0.5,197,1,8,_tunecore_Remastered_Guitar,-1,-1
49,100,0.5818181818181818,321,0,8,_tunecore_Remastered_Guitar,-1,-1
64,100,0.2590909090909091,462,0,8,_tunecore_Remastered_Guitar,-1,-1
64,100,0.1590909090909091,558,0,8,_tunecore_Remastered_Guitar,-1,-1
49,100,0.2409090909090909,629,0,8,_tunecore_Remastered_Guitar,-1,-1
49,100,0.5,761,0,8,_tunecore_Remastered_Guitar,-1,-1
61,100,0.1590909090909091,194,1,9,_tunecore_Remastered_Guitar,-1,-1
64,100,0.1,369,0,9,_tunecore_Remastered_Guitar,-1,-1
45,100,0.1,479,0,9,_tunecore_Remastered_Guitar,-1,-1
59,100,0.11818181818181818,527,0,9,_tunecore_Remastered_Guitar,-1,-1
63,100,0.2590909090909091,677,0,9,_tunecore_Remastered_Guitar,-1,-1
45,100,0.2409090909090909,845,0,9,_tunecore_Remastered_Guitar,-1,-1
44,100,0.1,17,1,10,_tunecore_Remastered_Guitar,-1,-1
52,100,0.5818181818181818,245,1,10,_tunecore_Remastered_Guitar,-1,-1
40,100,0.17727272727272728,470,1,10,_tunecore_Remastered_Guitar,-1,-1
40,100,0.13636363636363635,699,1,10,_tunecore_Remastered_Guitar,-1,-1
40,100,0.1409090909090909,761,0,10,_tunecore_Remastered_Guitar,-1,-1
49,100,0.5,818,0,10,_tunecore_Remastered_Guitar,-1,-1
61,100,0.5,65,1,11,_tunecore_Remastered_Guitar,-1,-1
61,100,0.42272727272727273,343,1,11,_tunecore_Remastered_Guitar,-1,-1
49,100,0.21818181818181817,436,0,11,_tunecore_Remastered_Guitar,-1,-1
45,100,0.1,527,0,11,_tunecore_Remastered_Guitar,-1,-1
45,100,0.2,567,0,11,_tunecore_Remastered_Guitar,-1,-1
61,100,0.36363636363636365,663,0,11,_tunecore_Remastered_Guitar,-1,-1
57,100,0.2,849,0,11,_tunecore_Remastered_Guitar,-1,-1
57,100,0.1409090909090909,48,1,12,_tunecore_Remastered_Guitar,-1,-1
61,100,0.12272727272727273,135,0,12,_tunecore_Remastered_Guitar,-1,-1
47,100,0.5181818181818182,185,0,12,_tunecore_Remastered_Guitar,-1,-1
59,100,0.11818181818181818,307,0,12,_tunecore_Remastered_Guitar,-1,-1
63,100,0.2,378,0,12,_tunecore_Remastered_Guitar,-1,-1
47,100,0.1590909090909091,426,0,12,_tunecore_Remastered_Guitar,-1,-1
52,100,0.6,730,1,12,_tunecore_Remastered_Guitar,-1,-1
52,100,0.12272727272727273,48,1,13,_tunecore_Remastered_Guitar,-1,-1
40,100,0.1,79,0,13,_tunecore_Remastered_Guitar,-1,-1
52,100,0.1409090909090909,285,1,13,_tunecore_Remastered_Guitar,-1,-1
40,100,0.2,360,0,13,_tunecore_Remastered_Guitar,-1,-1
49,100,0.5409090909090909,431,0,13,_tunecore_Remastered_Guitar,-1,-1
61,100,0.18181818181818182,615,0,13,_tunecore_Remastered_Guitar,-1,-1
64,100,0.2818181818181818,716,0,13,_tunecore_Remastered_Guitar,-1,-1
61,100,0.1,787,0,13,_tunecore_Remastered_Guitar,-1,-1
61,100,0.12272727272727273,840,0,13,_tunecore_Remastered_Guitar,-1,-1
49,100,0.5181818181818182,866,0,13,_tunecore_Remastered_Guitar,-1,-1
61,100,0.3181818181818182,295,1,14,_tunecore_Remastered_Guitar,-1,-1
61,100,0.3409090909090909,395,0,14,_tunecore_Remastered_Guitar,-1,-1
64,100,0.1,470,0,14,_tunecore_Remastered_Guitar,-1,-1
57,100,0.2590909090909091,519,0,14,_tunecore_Remastered_Guitar,-1,-1
47,100,0.5,673,0,14,_tunecore_Remastered_Guitar,-1,-1
63,100,0.32272727272727275,840,0,14,_tunecore_Remastered_Guitar,-1,-1
59,100,0.18181818181818182,276,1,15,_tunecore_Remastered_Guitar,-1,-1
57,100,0.2,426,0,15,_tunecore_Remastered_Guitar,-1,-1
61,100,0.4409090909090909,510,0,15,_tunecore_Remastered_Guitar,-1,-1
61,100,0.2,656,0,15,_tunecore_Remastered_Guitar,-1,-1
57,100,0.16363636363636364,773,0,15,_tunecore_Remastered_Guitar,-1,-1
61,100,0.21818181818181817,823,0,15,_tunecore_Remastered_Guitar,-1,-1
59,100,0.1409090909090909,3,1,16,_tunecore_Remastered_Guitar,-1,-1
63,100,0.6772727272727272,61,0,16,_tunecore_Remastered_Guitar,-1,-1
47,100,0.1,395,1,16,_tunecore_Remastered_Guitar,-1,-1
64,100,0.3181818181818182,505,0,16,_tunecore_Remastered_Guitar,-1,-1
57,100,0.5818181818181818,584,0,16,_tunecore_Remastered_Guitar,-1,-1
57,100,0.2,721,0,16,_tunecore_Remastered_Guitar,-1,-1
61,100,0.35909090909090907,783,0,16,_tunecore_Remastered_Guitar,-1,-1
57,100,0.6,0,1,17,_tunecore_Remastered_Guitar,-1,-1
49,100,0.2,281,1,17,_tunecore_Remastered_Guitar,-1,-1
61,100,0.41818181818181815,405,0,17,_tunecore_Remastered_Guitar,-1,-1
49,100,0.4,584,0,17,_tunecore_Remastered_Guitar,-1,-1
61,100,0.2,686,0,17,_tunecore_Remastered_Guitar,-1,-1
49,100,0.3,729,0,17,_tunecore_Remastered_Guitar,-1,-1
52,100,0.6181818181818182,831,0,17,_tunecore_Remastered_Guitar,-1,-1
40,100,0.1409090909090909,119,1,18,_tunecore_Remastered_Guitar,-1,-1
52,100,0.32272727272727275,233,0,18,_tunecore_Remastered_Guitar,-1,-1
52,100,0.21818181818181817,316,0,18,_tunecore_Remastered_Guitar,-1,-1
52,100,0.1409090909090909,440,0,18,_tunecore_Remastered_Guitar,-1,-1
59,100,0.22272727272727272,69,1,19,_tunecore_Remastered_Guitar,-1,-1
57,100,0.21818181818181817,193,0,19,_tunecore_Remastered_Guitar,-1,-1
45,100,0.23636363636363636,260,0,19,_tunecore_Remastered_Guitar,-1,-1
57,100,0.35909090909090907,382,0,19,_tunecore_Remastered_Guitar,-1,-1
57,100,0.6,470,0,19,_tunecore_Remastered_Guitar,-1,-1
61,100,0.2590909090909091,677,1,19,_tunecore_Remastered_Guitar,-1,-1
49,100,0.5818181818181818,760,0,19,_tunecore_Remastered_Guitar,-1,-1
61,100,0.5,9,1,20,_tunecore_Remastered_Guitar,-1,-1
61,100,0.13636363636363635,150,0,20,_tunecore_Remastered_Guitar,-1,-1
49,100,0.4636363636363636,179,0,20,_tunecore_Remastered_Guitar,-1,-1
49,100,0.2409090909090909,320,0,20,_tunecore_Remastered_Guitar,-1,-1
52,100,0.6590909090909091,449,0,20,_tunecore_Remastered_Guitar,-1,-1
40,100,0.2409090909090909,638,0,20,_tunecore_Remastered_Guitar,-1,-1
40,100,0.21818181818181817,766,0,20,_tunecore_Remastered_Guitar,-1,-1
52,100,0.1409090909090909,814,0,20,_tunecore_Remastered_Guitar,-1,-1
52,100,0.42272727272727273,862,0,20,_tunecore_Remastered_Guitar,-1,-1
59,100,0.1,113,1,21,_tunecore_Remastered_Guitar,-1,-1
63,100,0.22272727272727272,584,1,21,_tunecore_Remastered_Guitar,-1,-1
57,100,0.5818181818181818,681,0,21,_tunecore_Remastered_Guitar,-1,-1
61,100,0.3181818181818182,831,0,21,_tunecore_Remastered_Guitar,-1,-1
57,100,0.32272727272727275,69,1,22,_tunecore_Remastered_Guitar,-1,-1
57,100,0.6818181818181818,144,0,22,_tunecore_Remastered_Guitar,-1,-1
49,100,0.4772727272727273,382,1,22,_tunecore_Remastered_Guitar,-1,-1
61,100,0.2409090909090909,509,0,22,_tunecore_Remastered_Guitar,-1,-1
49,100,0.12272727272727273,563,0,22,_tunecore_Remastered_Guitar,-1,-1
49,100,0.6,638,0,22,_tunecore_Remastered_Guitar,-1,-1
49,100,0.4772727272727273,801,0,22,_tunecore_Remastered_Guitar,-1,-1
59,100,0.1409090909090909,110,1,23,_tunecore_Remastered_Guitar,-1,-1
63,100,0.13636363636363635,237,0,23,_tunecore_Remastered_Guitar,-1,-1
47,100,0.12272727272727273,268,0,23,_tunecore_Remastered_Guitar,-1,-1
59,100,0.2772727272727273,405,0,23,_tunecore_Remastered_Guitar,-1,-1
63,100,0.5181818181818182,546,0,23,_tunecore_Remastered_Guitar,-1,-1
59,100,0.11818181818181818,866,1,23,_tunecore_Remastered_Guitar,-1,-1
61,100,0.21818181818181817,480,1,24,_tunecore_Remastered_Guitar,-1,-1
57,100,0.22272727272727272,576,0,24,_tunecore_Remastered_Guitar,-1,-1
45,100,0.22272727272727272,642,0,24,_tunecore_Remastered_Guitar,-1,-1
64,100,0.2,862,1,24,_tunecore_Remastered_Guitar,-1,-1
61,100,0.17727272727272728,52,1,25,_tunecore_Remastered_Guitar,-1,-1
64,100,0.4409090909090909,100,0,25,_tunecore_Remastered_Guitar,-1,-1
61,100,0.3,220,0,25,_tunecore_Remastered_Guitar,-1,-1
61,100,0.4,289,0,25,_tunecore_Remastered_Guitar,-1,-1
49,100,0.2,443,0,25,_tunecore_Remastered_Guitar,-1,-1
61,100,0.16363636363636364,488,0,25,_tunecore_Remastered_Guitar,-1,-1
40,100,0.1,540,0,25,_tunecore_Remastered_Guitar,-1,-1
40,100,0.22272727272727272,584,0,25,_tunecore_Remastered_Guitar,-1,-1
52,100,0.17727272727272728,633,0,25,_tunecore_Remastered_Guitar,-1,-1
40,100,0.3181818181818182,677,0,25,_tunecore_Remastered_Guitar,-1,-1
52,100,0.1590909090909091,760,0,25,_tunecore_Remastered_Guitar,-1,-1
59,100,0.17727272727272728,801,0,25,_tunecore_Remastered_Guitar,-1,-1
40,100,0.3,849,0,25,_tunecore_Remastered_Guitar,-1,-1
52,100,0.1,34,1,26,_tunecore_Remastered_Guitar,-1,-1
40,100,0.18181818181818182,110,0,26,_tunecore_Remastered_Guitar,-1,-1
63,100,0.2818181818181818,285,0,26,_tunecore_Remastered_Guitar,-1,-1
47,100,0.2409090909090909,422,0,26,_tunecore_Remastered_Guitar,-1,-1
63,100,0.3409090909090909,694,1,26,_tunecore_Remastered_Guitar,-1,-1
57,100,0.21818181818181817,858,0,26,_tunecore_Remastered_Guitar,-1,-1
57,100,0.2,30,1,27,_tunecore_Remastered_Guitar,-1,-1
57,100,0.1590909090909091,79,0,27,_tunecore_Remastered_Guitar,-1,-1
57,100,0.1,127,0,27,_tunecore_Remastered_Guitar,-1,-1
57,100,0.4590909090909091,198,0,27,_tunecore_Remastered_Guitar,-1,-1
64,100,0.5181818181818182,461,1,27,_tunecore_Remastered_Guitar,-1,-1
64,100,0.2,598,0,27,_tunecore_Remastered_Guitar,-1,-1
64,100,0.11818181818181818,677,0,27,_tunecore_Remastered_Guitar,-1,-1
61,100,0.38181818181818183,704,0,27,_tunecore_Remastered_Guitar,-1,-1
61,100,0.38181818181818183,791,0,27,_tunecore_Remastered_Guitar,-1,-1
52,100,0.2,154,1,28,_tunecore_Remastered_Guitar,-1,-1
52,100,0.3,206,0,28,_tunecore_Remastered_Guitar,-1,-1
52,100,0.11818181818181818,281,0,28,_tunecore_Remastered_Guitar,-1,-1
40,100,0.3,333,0,28,_tunecore_Remastered_Guitar,-1,-1
52,100,0.5409090909090909,430,0,28,_tunecore_Remastered_Guitar,-1,-1
59,100,0.12272727272727273,553,0,28,_tunecore_Remastered_Guitar,-1,-1
59,100,0.11818181818181818,646,0,28,_tunecore_Remastered_Guitar,-1,-1
59,100,0.11818181818181818,835,0,28,_tunecore_Remastered_Guitar,-1,-1
47,100,0.2590909090909091,100,1,29,_tunecore_Remastered_Guitar,-1,-1
47,100,0.17727272727272728,171,0,29,_tunecore_Remastered_Guitar,-1,-1
59,100,0.1,210,0,29,_tunecore_Remastered_Guitar,-1,-1
47,100,0.38181818181818183,233,0,29,_tunecore_Remastered_Guitar,-1,-1
52,100,0.7227272727272728,364,0,29,_tunecore_Remastered_Guitar,-1,-1
40,100,0.23636363636363636,523,0,29,_tunecore_Remastered_Guitar,-1,-1
52,100,0.5818181818181818,576,0,29,_tunecore_Remastered_Guitar,-1,-1
52,100,0.2636363636363636,818,1,29,_tunecore_Remastered_Guitar,-1,-1
49,100,0.5772727272727273,61,1,30,_tunecore_Remastered_Guitar,-1,-1
64,100,0.23636363636363636,281,1,30,_tunecore_Remastered_Guitar,-1,-1
61,100,0.37727272727272726,515,1,30,_tunecore_Remastered_Guitar,-1,-1
45,100,0.3,633,0,30,_tunecore_Remastered_Guitar,-1,-1
45,100,0.1409090909090909,717,0,30,_tunecore_Remastered_Guitar,-1,-1
61,100,0.1,822,0,30,_tunecore_Remastered_Guitar,-1,-1
52,100,0.22272727272727272,179,1,31,_tunecore_Remastered_Guitar,-1,-1
52,100,0.1590909090909091,260,0,31,_tunecore_Remastered_Guitar,-1,-1
47,100,0.5227272727272727,312,0,31,_tunecore_Remastered_Guitar,-1,-1
59,100,0.12272727272727273,453,0,31,_tunecore_Remastered_Guitar,-1,-1
63,100,0.2590909090909091,646,0,31,_tunecore_Remastered_Guitar,-1,-1
54,100,0.12272727272727273,739,0,31,_tunecore_Remastered_Guitar,-1,-1
59,100,0.16363636363636364,818,0,31,_tunecore_Remastered_Guitar,-1,-1
52,100,0.8409090909090909,862,0,31,_tunecore_Remastered_Guitar,-1,-1
59,100,0.16363636363636364,421,1,32,_tunecore_Remastered_Guitar,-1,-1
59,100,0.11818181818181818,506,0,32,_tunecore_Remastered_Guitar,-1,-1
49,100,0.6409090909090909,541,0,32,_tunecore_Remastered_Guitar,-1,-1
64,100,0.2,778,1,32,_tunecore_Remastered_Guitar,-1,-1
61,100,0.4772727272727273,105,1,33,_tunecore_Remastered_Guitar,-1,-1
64,100,0.1590909090909091,211,0,33,_tunecore_Remastered_Guitar,-1,-1
64,100,0.3409090909090909,268,0,33,_tunecore_Remastered_Guitar,-1,-1
61,100,0.1409090909090909,351,0,33,_tunecore_Remastered_Guitar,-1,-1
52,100,0.6590909090909091,461,1,34,_tunecore_Remastered_Guitar,-1,-1
40,100,0.3181818181818182,660,1,34,_tunecore_Remastered_Guitar,-1,-1
49,100,0.6181818181818182,163,1,35,_tunecore_Remastered_Guitar,-1,-1
61,100,0.12272727272727273,364,1,35,_tunecore_Remastered_Guitar,-1,-1
64,100,0.16363636363636364,399,0,35,_tunecore_Remastered_Guitar,-1,-1
64,100,0.1409090909090909,474,0,35,_tunecore_Remastered_Guitar,-1,-1
61,100,0.2,641,0,35,_tunecore_Remastered_Guitar,-1,-1
45,100,0.5227272727272727,729,0,35,_tunecore_Remastered_Guitar,-1,-1
52,100,0.2590909090909091,866,0,35,_tunecore_Remastered_Guitar,-1,-1
52,100,0.5227272727272727,268,1,36,_tunecore_Remastered_Guitar,-1,-1
47,100,0.5590909090909091,396,0,36,_tunecore_Remastered_Guitar,-1,-1
59,100,0.1590909090909091,545,0,36,_tunecore_Remastered_Guitar,-1,-1
59,100,0.32272727272727275,606,0,36,_tunecore_Remastered_Guitar,-1,-1
52,100,0.6181818181818182,75,1,37,_tunecore_Remastered_Guitar,-1,-1
40,100,0.1409090909090909,286,1,37,_tunecore_Remastered_Guitar,-1,-1
61,100,0.1409090909090909,708,1,37,_tunecore_Remastered_Guitar,-1,-1
61,100,0.2590909090909091,791,0,37,_tunecore_Remastered_Guitar,-1,-1
64,100,0.1409090909090909,0,1,38,_tunecore_Remastered_Guitar,-1,-1
61,100,0.18181818181818182,56,0,38,_tunecore_Remastered_Guitar,-1,-1
64,100,0.12272727272727273,123,0,38,_tunecore_Remastered_Guitar,-1,-1
61,100,0.3,215,0,38,_tunecore_Remastered_Guitar,-1,-1
64,100,0.17727272727272728,281,0,38,_tunecore_Remastered_Guitar,-1,-1
57,100,0.3,330,0,38,_tunecore_Remastered_Guitar,-1,-1
57,100,0.1,471,0,38,_tunecore_Remastered_Guitar,-1,-1
61,100,0.23636363636363636,765,1,38,_tunecore_Remastered_Guitar,-1,-1
52,100,0.17727272727272728,831,0,38,_tunecore_Remastered_Guitar,-1,-1
59,100,0.5818181818181818,136,1,39,_tunecore_Remastered_Guitar,-1,-1
59,100,0.13636363636363635,281,0,39,_tunecore_Remastered_Guitar,-1,-1
63,100,0.1590909090909091,321,0,39,_tunecore_Remastered_Guitar,-1,-1
57,100,0.17727272727272728,700,1,39,_tunecore_Remastered_Guitar,-1,-1
57,100,0.12272727272727273,751,0,39,_tunecore_Remastered_Guitar,-1,-1
52,100,0.2409090909090909,778,0,39,_tunecore_Remastered_Guitar,-1,-1
64,100,0.6818181818181818,839,0,39,_tunecore_Remastered_Guitar,-1,-1
52,100,0.11818181818181818,150,1,40,_tunecore_Remastered_Guitar,-1,-1
64,100,0.9,188,0,40,_tunecore_Remastered_Guitar,-1,-1
61,100,0.11818181818181818,391,1,40,_tunecore_Remastered_Guitar,-1,-1
61,100,0.3,431,0,40,_tunecore_Remastered_Guitar,-1,-1
61,100,0.5227272727272727,541,0,40,_tunecore_Remastered_Guitar,-1,-1
61,100,0.5772727272727273,668,0,40,_tunecore_Remastered_Guitar,-1,-1
52,100,0.7,801,0,40,_tunecore_Remastered_Guitar,-1,-1
40,100,0.1590909090909091,105,1,41,_tunecore_Remastered_Guitar,-1,-1
64,100,0.6227272727272727,201,0,41,_tunecore_Remastered_Guitar,-1,-1
40,100,0.21818181818181817,396,0,41,_tunecore_Remastered_Guitar,-1,-1
64,100,0.13636363636363635,458,0,41,_tunecore_Remastered_Guitar,-1,-1
63,100,1.040909090909091,628,0,41,_tunecore_Remastered_Guitar,-1,-1
64,100,0.1590909090909091,858,1,41,_tunecore_Remastered_Guitar,-1,-1
59,100,0.2409090909090909,26,1,42,_tunecore_Remastered_Guitar,-1,-1
59,100,0.4818181818181818,91,0,42,_tunecore_Remastered_Guitar,-1,-1
61,100,0.2,370,1,42,_tunecore_Remastered_Guitar,-1,-1
64,100,0.32272727272727275,796,1,42,_tunecore_Remastered_Guitar,-1,-1
59,100,0.1,801,1,43,_tunecore_Remastered_Guitar,-1,-1
52,100,0.6181818181818182,836,0,43,_tunecore_Remastered_Guitar,-1,-1
59,100,0.3,171,1,44,_tunecore_Remastered_Guitar,-1,-1
61,100,0.5590909090909091,241,0,44,_tunecore_Remastered_Guitar,-1,-1
64,100,0.4818181818181818,373,0,44,_tunecore_Remastered_Guitar,-1,-1
64,100,0.4772727272727273,185,1,45,_tunecore_Remastered_Guitar,-1,-1
61,100,0.17727272727272728,295,0,45,_tunecore_Remastered_Guitar,-1,-1
59,100,0.16363636363636364,334,0,45,_tunecore_Remastered_Guitar,-1,-1
59,100,0.1409090909090909,373,0,45,_tunecore_Remastered_Guitar,-1,-1
59,100,1.2818181818181817,418,0,45,_tunecore_Remastered_Guitar,-1,-1
64,100,0.2590909090909091,700,1,45,_tunecore_Remastered_Guitar,-1,-1
61,100,0.23636363636363636,765,0,45,_tunecore_Remastered_Guitar,-1,-1
64,100,0.2590909090909091,836,0,45,_tunecore_Remastered_Guitar,-1,-1
40,100,0.3,83,1,46,_tunecore_Remastered_Guitar,-1,-1
59,100,0.3181818181818182,370,1,46,_tunecore_Remastered_Guitar,-1,-1
61,100,0.3,440,0,46,_tunecore_Remastered_Guitar,-1,-1
64,100,0.21818181818181817,528,0,46,_tunecore_Remastered_Guitar,-1,-1
49,100,0.4590909090909091,603,0,46,_tunecore_Remastered_Guitar,-1,-1
61,100,0.42272727272727273,716,0,46,_tunecore_Remastered_Guitar,-1,-1
49,100,0.13636363636363635,810,0,46,_tunecore_Remastered_Guitar,-1,-1
64,100,0.7772727272727272,141,1,47,_tunecore_Remastered_Guitar,-1,-1
64,100,0.6409090909090909,673,1,47,_tunecore_Remastered_Guitar,-1,-1
63,100,0.22272727272727272,839,0,47,_tunecore_Remastered_Guitar,-1,-1
64,100,1.9,75,1,48,_tunecore_Remastered_Guitar,-1,-1
52,100,0.740909090909091,493,1,48,_tunecore_Remastered_Guitar,-1,-1
40,100,0.1590909090909091,735,1,48,_tunecore_Remastered_Guitar,-1,-1
52,100,0.21818181818181817,96,1,49,_tunecore_Remastered_Guitar,-1,-1
61,100,0.1590909090909091,351,1,49,_tunecore_Remastered_Guitar,-1,-1
49,100,0.12272727272727273,421,0,49,_tunecore_Remastered_Guitar,-1,-1
61,100,0.11818181818181818,506,0,49,_tunecore_Remastered_Guitar,-1,-1
61,100,0.5227272727272727,598,0,49,_tunecore_Remastered_Guitar,-1,-1
45,100,0.3,801,1,49,_tunecore_Remastered_Guitar,-1,-1
64,100,0.2,185,1,50,_tunecore_Remastered_Guitar,-1,-1
52,100,0.13636363636363635,348,0,50,_tunecore_Remastered_Guitar,-1,-1
59,100,0.1,421,0,50,_tunecore_Remastered_Guitar,-1,-1
47,100,0.3181818181818182,461,0,50,_tunecore_Remastered_Guitar,-1,-1
59,100,0.11818181818181818,558,0,50,_tunecore_Remastered_Guitar,-1,-1
52,100,0.740909090909091,110,1,51,_tunecore_Remastered_Guitar,-1,-1
40,100,0.11818181818181818,281,0,51,_tunecore_Remastered_Guitar,-1,-1
40,100,0.3,325,0,51,_tunecore_Remastered_Guitar,-1,-1
52,100,0.2772727272727273,458,0,51,_tunecore_Remastered_Guitar,-1,-1
49,100,0.38181818181818183,813,1,51,_tunecore_Remastered_Guitar,-1,-1
61,100,0.41818181818181815,198,1,52,_tunecore_Remastered_Guitar,-1,-1
57,100,0.33636363636363636,370,0,52,_tunecore_Remastered_Guitar,-1,-1
52,100,0.1590909090909091,448,0,52,_tunecore_Remastered_Guitar,-1,-1
52,100,0.21818181818181817,581,0,52,_tunecore_Remastered_Guitar,-1,-1
59,100,0.2,651,0,52,_tunecore_Remastered_Guitar,-1,-1
47,100,0.5590909090909091,34,1,53,_tunecore_Remastered_Guitar,-1,-1
59,100,0.1409090909090909,176,0,53,_tunecore_Remastered_Guitar,-1,-1
59,100,0.35909090909090907,238,0,53,_tunecore_Remastered_Guitar,-1,-1
59,100,0.16363636363636364,554,1,53,_tunecore_Remastered_Guitar,-1,-1
52,100,0.3,818,1,53,_tunecore_Remastered_Guitar,-1,-1
52,100,0.2,88,1,54,_tunecore_Remastered_Guitar,-1,-1
61,100,0.17727272727272728,141,0,54,_tunecore_Remastered_Guitar,-1,-1
52,100,0.22272727272727272,201,0,54,_tunecore_Remastered_Guitar,-1,-1
54,100,0.4,276,0,54,_tunecore_Remastered_Guitar,-1,-1
47,100,1.018181818181818,483,1,54,_tunecore_Remastered_Guitar,-1,-1
54,100,0.2409090909090909,761,1,54,_tunecore_Remastered_Guitar,-1,-1
52,100,0.12272727272727273,56,1,55,_tunecore_Remastered_Guitar,-1,-1
45,100,0.41818181818181815,506,1,55,_tunecore_Remastered_Guitar,-1,-1
57,100,0.1409090909090909,628,0,55,_tunecore_Remastered_Guitar,-1,-1
45,100,0.5409090909090909,796,0,55,_tunecore_Remastered_Guitar,-1,-1
54,100,0.2,158,1,56,_tunecore_Remastered_Guitar,-1,-1
47,100,0.21818181818181817,251,0,56,_tunecore_Remastered_Guitar,-1,-1
47,100,2.340909090909091,801,1,56,_tunecore_Remastered_Guitar,-1,-1
57,100,0.3,593,1,57,_tunecore_Remastered_Guitar,-1,-1
54,100,0.23636363636363636,875,1,57,_tunecore_Remastered_Guitar,-1,-1
44,100,0.12272727272727273,211,1,58,_tunecore_Remastered_Guitar,-1,-1
51,100,0.16363636363636364,289,0,58,_tunecore_Remastered_Guitar,-1,-1
51,100,0.3181818181818182,330,0,58,_tunecore_Remastered_Guitar,-1,-1
44,100,0.3409090909090909,440,0,58,_tunecore_Remastered_Guitar,-1,-1
51,100,0.18181818181818182,571,0,58,_tunecore_Remastered_Guitar,-1,-1
51,100,0.1590909090909091,625,0,58,_tunecore_Remastered_Guitar,-1,-1
49,100,0.5818181818181818,694,0,58,_tunecore_Remastered_Guitar,-1,-1
61,100,0.4590909090909091,823,0,58,_tunecore_Remastered_Guitar,-1,-1
49,100,0.1409090909090909,43,1,59,_tunecore_Remastered_Guitar,-1,-1
64,100,0.23636363636363636,238,0,59,_tunecore_Remastered_Guitar,-1,-1
47,100,0.3181818181818182,370,0,59,_tunecore_Remastered_Guitar,-1,-1
64,100,0.32272727272727275,444,0,59,_tunecore_Remastered_Guitar,-1,-1
47,100,0.4,545,0,59,_tunecore_Remastered_Guitar,-1,-1
59,100,0.1409090909090909,681,0,59,_tunecore_Remastered_Guitar,-1,-1
63,100,0.12272727272727273,804,0,59,_tunecore_Remastered_Guitar,-1,-1
63,100,0.1,861,0,59,_tunecore_Remastered_Guitar,-1,-1
57,100,0.1409090909090909,48,1,60,_tunecore_Remastered_Guitar,-1,-1
45,100,1.7,88,0,60,_tunecore_Remastered_Guitar,-1,-1
56,100,0.12272727272727273,606,1,60,_tunecore_Remastered_Guitar,-1,-1
63,100,0.11818181818181818,831,1,60,_tunecore_Remastered_Guitar,-1,-1
51,100,0.1409090909090909,861,0,60,_tunecore_Remastered_Guitar,-1,-1
57,100,0.12272727272727273,224,1,61,_tunecore_Remastered_Guitar,-1,-1
49,100,0.1409090909090909,681,1,61,_tunecore_Remastered_Guitar,-1,-1
63,100,0.1409090909090909,858,0,61,_tunecore_Remastered_Guitar,-1,-1
63,100,0.9590909090909091,13,1,62,_tunecore_Remastered_Guitar,-1,-1
63,100,0.1,386,1,62,_tunecore_Remastered_Guitar,-1,-1
63,100,0.3,448,0,62,_tunecore_Remastered_Guitar,-1,-1
61,100,0.12272727272727273,13,1,63,_tunecore_Remastered_Guitar,-1,-1
54,100,0.9,325,1,63,_tunecore_Remastered_Guitar,-1,-1
54,100,0.32272727272727275,554,1,63,_tunecore_Remastered_Guitar,-1,-1
56,100,0.22272727272727272,641,0,63,_tunecore_Remastered_Guitar,-1,-1
54,100,0.18181818181818182,726,0,63,_tunecore_Remastered_Guitar,-1,-1
45,100,0.22272727272727272,796,0,63,_tunecore_Remastered_Guitar,-1,-1
45,100,0.3,853,0,63,_tunecore_Remastered_Guitar,-1,-1
49,100,0.5590909090909091,480,1,64,_tunecore_Remastered_Guitar,-1,-1
59,100,0.1590909090909091,832,1,64,_tunecore_Remastered_Guitar,-1,-1
40,100,0.22272727272727272,365,1,65,_tunecore_Remastered_Guitar,-1,-1
64,100,0.35909090909090907,475,0,65,_tunecore_Remastered_Guitar,-1,-1
52,100,0.38181818181818183,572,0,65,_tunecore_Remastered_Guitar,-1,-1
59,100,0.5772727272727273,119,1,66,_tunecore_Remastered_Guitar,-1,-1
54,100,0.2772727272727273,260,0,66,_tunecore_Remastered_Guitar,-1,-1
45,100,0.5636363636363636,399,0,66,_tunecore_Remastered_Guitar,-1,-1
61,100,0.18181818181818182,532,0,66,_tunecore_Remastered_Guitar,-1,-1
45,100,0.1409090909090909,616,0,66,_tunecore_Remastered_Guitar,-1,-1
52,100,0.21818181818181817,836,1,66,_tunecore_Remastered_Guitar,-1,-1
49,100,0.2,163,1,67,_tunecore_Remastered_Guitar,-1,-1
61,100,0.2409090909090909,220,0,67,_tunecore_Remastered_Guitar,-1,-1
49,100,0.1590909090909091,273,0,67,_tunecore_Remastered_Guitar,-1,-1
49,100,0.12272727272727273,849,1,67,_tunecore_Remastered_Guitar,-1,-1
49,100,0.1,3,1,68,_tunecore_Remastered_Guitar,-1,-1
56,100,0.1409090909090909,43,0,68,_tunecore_Remastered_Guitar,-1,-1
51,100,0.16363636363636364,113,0,68,_tunecore_Remastered_Guitar,-1,-1
61,100,0.4409090909090909,316,1,68,_tunecore_Remastered_Guitar,-1,-1
49,100,0.1409090909090909,483,0,68,_tunecore_Remastered_Guitar,-1,-1
59,100,0.18181818181818182,796,1,68,_tunecore_Remastered_Guitar,-1,-1
52,100,0.21818181818181817,74,1,69,_tunecore_Remastered_Guitar,-1,-1
52,100,0.3,197,0,69,_tunecore_Remastered_Guitar,-1,-1
52,100,0.4,426,1,69,_tunecore_Remastered_Guitar,-1,-1
49,100,0.35909090909090907,629,1,69,_tunecore_Remastered_Guitar,-1,-1
56,100,0.3409090909090909,13,1,70,_tunecore_Remastered_Guitar,-1,-1
52,100,0.12272727272727273,267,1,70,_tunecore_Remastered_Guitar,-1,-1
52,100,0.18181818181818182,333,0,70,_tunecore_Remastered_Guitar,-1,-1
40,100,0.17727272727272728,404,0,70,_tunecore_Remastered_Guitar,-1,-1
52,100,0.3409090909090909,443,0,70,_tunecore_Remastered_Guitar,-1,-1
52,100,0.17727272727272728,559,0,70,_tunecore_Remastered_Guitar,-1,-1
52,100,0.1409090909090909,713,0,70,_tunecore_Remastered_Guitar,-1,-1
52,100,0.18181818181818182,760,0,70,_tunecore_Remastered_Guitar,-1,-1
47,100,0.4818181818181818,817,0,70,_tunecore_Remastered_Guitar,-1,-1
47,100,0.18181818181818182,289,1,71,_tunecore_Remastered_Guitar,-1,-1
63,100,0.1409090909090909,396,0,71,_tunecore_Remastered_Guitar,-1,-1
45,100,0.32272727272727275,496,0,71,_tunecore_Remastered_Guitar,-1,-1
57,100,0.12272727272727273,576,0,71,_tunecore_Remastered_Guitar,-1,-1
52,100,0.21818181818181817,703,0,71,_tunecore_Remastered_Guitar,-1,-1
52,100,0.4409090909090909,53,1,72,_tunecore_Remastered_Guitar,-1,-1
49,100,0.4590909090909091,176,0,72,_tunecore_Remastered_Guitar,-1,-1
49,100,0.1409090909090909,294,0,72,_tunecore_Remastered_Guitar,-1,-1
49,100,0.2818181818181818,373,0,72,_tunecore_Remastered_Guitar,-1,-1
49,100,0.17727272727272728,493,0,72,_tunecore_Remastered_Guitar,-1,-1
57,100,0.21818181818181817,747,1,72,_tunecore_Remastered_Guitar,-1,-1
49,100,0.2,13,1,73,_tunecore_Remastered_Guitar,-1,-1
49,100,0.1590909090909091,79,0,73,_tunecore_Remastered_Guitar,-1,-1
49,100,1.0,413,1,73,_tunecore_Remastered_Guitar,-1,-1
59,100,0.12272727272727273,686,1,73,_tunecore_Remastered_Guitar,-1,-1
59,100,0.4,743,0,73,_tunecore_Remastered_Guitar,-1,-1
57,100,0.1,179,1,74,_tunecore_Remastered_Guitar,-1,-1
59,100,0.2409090909090909,383,1,74,_tunecore_Remastered_Guitar,-1,-1
57,100,0.37727272727272726,523,0,74,_tunecore_Remastered_Guitar,-1,-1
45,100,0.13636363636363635,612,0,74,_tunecore_Remastered_Guitar,-1,-1
45,100,0.3,646,0,74,_tunecore_Remastered_Guitar,-1,-1
45,100,0.11818181818181818,844,0,74,_tunecore_Remastered_Guitar,-1,-1
45,100,0.1,17,1,75,_tunecore_Remastered_Guitar,-1,-1
57,100,0.11818181818181818,127,0,75,_tunecore_Remastered_Guitar,-1,-1
47,100,0.2,422,1,75,_tunecore_Remastered_Guitar,-1,-1
59,100,0.12272727272727273,532,0,75,_tunecore_Remastered_Guitar,-1,-1
54,100,0.4,606,0,75,_tunecore_Remastered_Guitar,-1,-1
52,100,0.3,810,1,75,_tunecore_Remastered_Guitar,-1,-1
59,100,0.4,53,1,76,_tunecore_Remastered_Guitar,-1,-1
59,100,0.7363636363636363,172,0,76,_tunecore_Remastered_Guitar,-1,-1
59,100,0.2409090909090909,360,0,76,_tunecore_Remastered_Guitar,-1,-1
59,100,0.41818181818181815,426,0,76,_tunecore_Remastered_Guitar,-1,-1
40,100,0.1409090909090909,576,0,76,_tunecore_Remastered_Guitar,-1,-1
40,100,0.13636363636363635,612,0,76,_tunecore_Remastered_Guitar,-1,-1
40,100,0.1590909090909091,646,0,76,_tunecore_Remastered_Guitar,-1,-1
52,100,0.18181818181818182,682,0,76,_tunecore_Remastered_Guitar,-1,-1
52,100,0.2409090909090909,53,1,77,_tunecore_Remastered_Guitar,-1,-1
52,100,0.17727272727272728,119,0,77,_tunecore_Remastered_Guitar,-1,-1
52,100,0.37727272727272726,163,0,77,_tunecore_Remastered_Guitar,-1,-1
64,100,0.1409090909090909,299,0,77,_tunecore_Remastered_Guitar,-1,-1
64,100,0.3181818181818182,370,0,77,_tunecore_Remastered_Guitar,-1,-1
61,100,0.1590909090909091,462,0,77,_tunecore_Remastered_Guitar,-1,-1
64,100,0.11818181818181818,502,0,77,_tunecore_Remastered_Guitar,-1,-1
49,100,0.3,536,0,77,_tunecore_Remastered_Guitar,-1,-1
61,100,0.35909090909090907,673,0,77,_tunecore_Remastered_Guitar,-1,-1
52,100,0.1409090909090909,770,0,77,_tunecore_Remastered_Guitar,-1,-1
52,100,0.12272727272727273,849,0,77,_tunecore_Remastered_Guitar,-1,-1
45,100,0.2818181818181818,22,1,78,_tunecore_Remastered_Guitar,-1,-1
52,100,0.38181818181818183,145,0,78,_tunecore_Remastered_Guitar,-1,-1
45,100,0.37727272727272726,260,0,78,_tunecore_Remastered_Guitar,-1,-1
45,100,0.2636363636363636,377,0,78,_tunecore_Remastered_Guitar,-1,-1
54,100,0.5818181818181818,783,1,78,_tunecore_Remastered_Guitar,-1,-1
52,100,0.2590909090909091,282,1,79,_tunecore_Remastered_Guitar,-1,-1
52,100,0.2636363636363636,377,0,79,_tunecore_Remastered_Guitar,-1,-1
40,100,0.2590909090909091,493,0,79,_tunecore_Remastered_Guitar,-1,-1
52,100,0.2,700,1,79,_tunecore_Remastered_Guitar,-1,-1
49,100,0.18181818181818182,836,0,79,_tunecore_Remastered_Guitar,-1,-1
49,100,0.18181818181818182,22,1,80,_tunecore_Remastered_Guitar,-1,-1
49,100,0.17727272727272728,96,0,80,_tunecore_Remastered_Guitar,-1,-1
49,100,0.5772727272727273,150,0,80,_tunecore_Remastered_Guitar,-1,-1
52,100,0.2636363636363636,289,0,80,_tunecore_Remastered_Guitar,-1,-1
45,100,0.5590909090909091,436,0,80,_tunecore_Remastered_Guitar,-1,-1
52,100,0.17727272727272728,567,0,80,_tunecore_Remastered_Guitar,-1,-1
52,100,0.22272727272727272,650,0,80,_tunecore_Remastered_Guitar,-1,-1
52,100,0.1,716,0,80,_tunecore_Remastered_Guitar,-1,-1
52,100,0.17727272727272728,832,0,80,_tunecore_Remastered_Guitar,-1,-1
54,100,0.18181818181818182,386,1,81,_tunecore_Remastered_Guitar,-1,-1
59,100,0.18181818181818182,430,0,81,_tunecore_Remastered_Guitar,-1,-1
52,100,0.1590909090909091,673,1,81,_tunecore_Remastered_Guitar,-1,-1
52,100,0.3,739,0,81,_tunecore_Remastered_Guitar,-1,-1
52,100,0.22272727272727272,3,1,82,_tunecore_Remastered_Guitar,-1,-1
52,100,0.33636363636363636,127,0,82,_tunecore_Remastered_Guitar,-1,-1
56,100,0.2590909090909091,229,0,82,_tunecore_Remastered_Guitar,-1,-1
49,100,0.2590909090909091,370,0,82,_tunecore_Remastered_Guitar,-1,-1
49,100,1.040909090909091,509,0,82,_tunecore_Remastered_Guitar,-1,-1
49,100,0.41818181818181815,770,1,82,_tunecore_Remastered_Guitar,-1,-1
52,100,0.21818181818181817,307,1,83,_tunecore_Remastered_Guitar,-1,-1
52,100,0.4,392,0,83,_tunecore_Remastered_Guitar,-1,-1
52,100,0.1590909090909091,483,0,83,_tunecore_Remastered_Guitar,-1,-1
54,100,0.5590909090909091,590,0,83,_tunecore_Remastered_Guitar,-1,-1
54,100,0.32272727272727275,145,1,84,_tunecore_Remastered_Guitar,-1,-1
52,100,0.12272727272727273,343,0,84,_tunecore_Remastered_Guitar,-1,-1
52,100,0.3409090909090909,470,0,84,_tunecore_Remastered_Guitar,-1,-1
40,100,0.1409090909090909,646,0,84,_tunecore_Remastered_Guitar,-1,-1
52,100,0.4818181818181818,707,0,84,_tunecore_Remastered_Guitar,-1,-1
61,100,0.12272727272727273,157,1,85,_tunecore_Remastered_Guitar,-1,-1
49,100,0.5409090909090909,184,0,85,_tunecore_Remastered_Guitar,-1,-1
45,100,0.3,523,1,85,_tunecore_Remastered_Guitar,-1,-1
45,100,0.4,805,1,85,_tunecore_Remastered_Guitar,-1,-1
54,100,0.1409090909090909,189,1,86,_tunecore_Remastered_Guitar,-1,-1
63,100,0.35909090909090907,373,0,86,_tunecore_Remastered_Guitar,-1,-1
59,100,0.1,663,1,86,_tunecore_Remastered_Guitar,-1,-1
52,100,0.17727272727272728,787,0,86,_tunecore_Remastered_Guitar,-1,-1
57,100,0.5409090909090909,210,1,87,_tunecore_Remastered_Guitar,-1,-1
52,100,0.1590909090909091,383,0,87,_tunecore_Remastered_Guitar,-1,-1
49,100,0.5818181818181818,440,0,87,_tunecore_Remastered_Guitar,-1,-1
49,100,1.0,572,0,87,_tunecore_Remastered_Guitar,-1,-1
52,100,0.3181818181818182,30,1,88,_tunecore_Remastered_Guitar,-1,-1
45,100,0.3181818181818182,220,0,88,_tunecore_Remastered_Guitar,-1,-1
45,100,0.11818181818181818,294,0,88,_tunecore_Remastered_Guitar,-1,-1
45,100,0.38181818181818183,330,0,88,_tunecore_Remastered_Guitar,-1,-1
47,100,0.5,747,1,88,_tunecore_Remastered_Guitar,-1,-1
59,100,0.2590909090909091,857,0,88,_tunecore_Remastered_Guitar,-1,-1
47,100,0.6409090909090909,35,1,89,_tunecore_Remastered_Guitar,-1,-1
59,100,0.1409090909090909,176,0,89,_tunecore_Remastered_Guitar,-1,-1
47,100,0.4772727272727273,206,0,89,_tunecore_Remastered_Guitar,-1,-1
52,100,1.0,352,0,89,_tunecore_Remastered_Guitar,-1,-1
45,100,0.4590909090909091,612,1,89,_tunecore_Remastered_Guitar,-1,-1
64,100,0.11818181818181818,800,0,89,_tunecore_Remastered_Guitar,-1,-1
64,100,0.21818181818181817,832,0,89,_tunecore_Remastered_Guitar,-1,-1
49,100,0.3,17,1,90,_tunecore_Remastered_Guitar,-1,-1
64,100,0.4,480,1,90,_tunecore_Remastered_Guitar,-1,-1
59,100,0.1590909090909091,603,0,90,_tunecore_Remastered_Guitar,-1,-1
52,100,0.7227272727272728,673,0,90,_tunecore_Remastered_Guitar,-1,-1
59,100,0.22272727272727272,862,0,90,_tunecore_Remastered_Guitar,-1,-1
59,100,0.12272727272727273,35,1,91,_tunecore_Remastered_Guitar,-1,-1
59,100,0.6,113,0,91,_tunecore_Remastered_Guitar,-1,-1
54,100,0.12272727272727273,289,0,91,_tunecore_Remastered_Guitar,-1,-1
47,100,0.42272727272727273,496,1,91,_tunecore_Remastered_Guitar,-1,-1
47,100,0.2772727272727273,603,0,91,_tunecore_Remastered_Guitar,-1,-1
47,100,0.2818181818181818,673,0,91,_tunecore_Remastered_Guitar,-1,-1
59,100,0.1590909090909091,787,0,91,_tunecore_Remastered_Guitar,-1,-1
52,100,0.21818181818181817,844,0,91,_tunecore_Remastered_Guitar,-1,-1
59,100,0.4,22,1,92,_tunecore_Remastered_Guitar,-1,-1
52,100,0.2,250,1,92,_tunecore_Remastered_Guitar,-1,-1
52,100,0.3409090909090909,386,0,92,_tunecore_Remastered_Guitar,-1,-1
52,100,0.35909090909090907,480,0,92,_tunecore_Remastered_Guitar,-1,-1
52,100,0.2,74,1,93,_tunecore_Remastered_Guitar,-1,-1
52,100,1.1181818181818182,193,0,93,_tunecore_Remastered_Guitar,-1,-1
52,100,0.21818181818181817,493,1,93,_tunecore_Remastered_Guitar,-1,-1
52,100,0.1,646,0,93,_tunecore_Remastered_Guitar,-1,-1
54,100,0.11818181818181818,779,0,93,_tunecore_Remastered_Guitar,-1,-1
54,100,0.11818181818181818,823,0,93,_tunecore_Remastered_Guitar,-1,-1
47,100,0.1409090909090909,246,1,94,_tunecore_Remastered_Guitar,-1,-1
54,100,0.11818181818181818,330,0,94,_tunecore_Remastered_Guitar,-1,-1
52,100,0.2,462,0,94,_tunecore_Remastered_Guitar,-1,-1
52,100,0.1590909090909091,739,1,94,_tunecore_Remastered_Guitar,-1,-1
52,100,0.7181818181818181,0,1,95,_tunecore_Remastered_Guitar,-1,-1
49,100,0.23636363636363636,303,1,95,_tunecore_Remastered_Guitar,-1,-1
49,100,0.3409090909090909,466,0,95,_tunecore_Remastered_Guitar,-1,-1
52,100,0.18181818181818182,563,0,95,_tunecore_Remastered_Guitar,-1,-1
52,100,1.0227272727272727,695,0,95,_tunecore_Remastered_Guitar,-1,-1
52,100,0.1,100,1,96,_tunecore_Remastered_Guitar,-1,-1
52,100,0.3,242,0,96,_tunecore_Remastered_Guitar,-1,-1
53,100,0.11818181818181818,326,0,96,_tunecore_Remastered_Guitar,-1,-1
54,100,0.2818181818181818,352,0,96,_tunecore_Remastered_Guitar,-1,-1
47,100,0.2590909090909091,449,0,96,_tunecore_Remastered_Guitar,-1,-1
47,100,0.4,567,0,96,_tunecore_Remastered_Guitar,-1,-1
54,100,0.2409090909090909,800,1,96,_tunecore_Remastered_Guitar,-1,-1
52,100,0.5636363636363636,47,1,97,_tunecore_Remastered_Guitar,-1,-1
52,100,0.22272727272727272,210,0,97,_tunecore_Remastered_Guitar,-1,-1
52,100,0.1590909090909091,343,0,97,_tunecore_Remastered_Guitar,-1,-1
49,100,0.2772727272727273,436,0,97,_tunecore_Remastered_Guitar,-1,-1
49,100,0.5363636363636364,502,0,97,_tunecore_Remastered_Guitar,-1,-1
49,100,0.18181818181818182,637,0,97,_tunecore_Remastered_Guitar,-1,-1
49,100,0.38181818181818183,729,0,97,_tunecore_Remastered_Guitar,-1,-1
54,100,0.38181818181818183,26,1,98,_tunecore_Remastered_Guitar,-1,-1
54,100,0.1409090909090909,119,0,98,_tunecore_Remastered_Guitar,-1,-1
59,100,0.4,202,0,98,_tunecore_Remastered_Guitar,-1,-1
52,100,0.759090909090909,299,0,98,_tunecore_Remastered_Guitar,-1,-1
59,100,0.35909090909090907,502,1,98,_tunecore_Remastered_Guitar,-1,-1
54,100,0.35909090909090907,593,0,98,_tunecore_Remastered_Guitar,-1,-1
54,100,0.1,870,1,98,_tunecore_Remastered_Guitar,-1,-1
54,100,0.2,176,1,99,_tunecore_Remastered_Guitar,-1,-1
47,100,0.1,263,0,99,_tunecore_Remastered_Guitar,-1,-1
47,100,0.12272727272727273,487,1,99,_tunecore_Remastered_Guitar,-1,-1
52,100,0.21818181818181817,550,0,99,_tunecore_Remastered_Guitar,-1,-1
52,100,0.4,673,0,99,_tunecore_Remastered_Guitar,-1,-1
52,100,0.2590909090909091,836,0,99,_tunecore_Remastered_Guitar,-1,-1
52,100,0.11818181818181818,197,1,100,_tunecore_Remastered_Guitar,-1,-1
52,100,0.2,303,0,100,_tunecore_Remastered_Guitar,-1,-1
61,100,0.11818181818181818,396,0,100,_tunecore_Remastered_Guitar,-1,-1
49,100,0.38181818181818183,422,0,100,_tunecore_Remastered_Guitar,-1,-1
52,100,0.17727272727272728,580,0,100,_tunecore_Remastered_Guitar,-1,-1
61,100,0.4,646,0,100,_tunecore_Remastered_Guitar,-1,-1
64,100,0.12272727272727273,783,0,100,_tunecore_Remastered_Guitar,-1,-1
64,100,0.11818181818181818,127,1,101,_tunecore_Remastered_Guitar,-1,-1
64,100,0.1,172,0,101,_tunecore_Remastered_Guitar,-1,-1
64,100,0.3409090909090909,206,0,101,_tunecore_Remastered_Guitar,-1,-1
52,100,0.16363636363636364,356,0,101,_tunecore_Remastered_Guitar,-1,-1
52,100,0.1409090909090909,426,0,101,_tunecore_Remastered_Guitar,-1,-1
53,100,0.11818181818181818,462,0,101,_tunecore_Remastered_Guitar,-1,-1
47,100,0.11818181818181818,756,1,101,_tunecore_Remastered_Guitar,-1,-1
47,100,0.11818181818181818,787,0,101,_tunecore_Remastered_Guitar,-1,-1
40,100,0.3,157,1,102,_tunecore_Remastered_Guitar,-1,-1
52,100,0.11818181818181818,303,0,102,_tunecore_Remastered_Guitar,-1,-1
40,100,0.21818181818181817,330,0,102,_tunecore_Remastered_Guitar,-1,-1
40,100,0.6,430,0,102,_tunecore_Remastered_Guitar,-1,-1
52,100,0.6,590,0,102,_tunecore_Remastered_Guitar,-1,-1
59,100,0.2409090909090909,800,1,102,_tunecore_Remastered_Guitar,-1,-1
61,100,0.1,857,0,102,_tunecore_Remastered_Guitar,-1,-1
49,100,0.4409090909090909,0,1,103,_tunecore_Remastered_Guitar,-1,-1
64,100,0.32272727272727275,123,0,103,_tunecore_Remastered_Guitar,-1,-1
64,100,0.1,800,1,103,_tunecore_Remastered_Guitar,-1,-1
64,100,0.18181818181818182,862,0,103,_tunecore_Remastered_Guitar,-1,-1
61,100,0.18181818181818182,26,1,104,_tunecore_Remastered_Guitar,-1,-1
59,100,0.7,69,0,104,_tunecore_Remastered_Guitar,-1,-1
59,100,0.2590909090909091,255,0,104,_tunecore_Remastered_Guitar,-1,-1
64,100,0.2590909090909091,440,0,104,_tunecore_Remastered_Guitar,-1,-1
64,100,0.3,593,0,104,_tunecore_Remastered_Guitar,-1,-1
45,100,0.3,703,0,104,_tunecore_Remastered_Guitar,-1,-1
45,100,0.11818181818181818,17,1,105,_tunecore_Remastered_Guitar,-1,-1
59,100,0.2,123,0,105,_tunecore_Remastered_Guitar,-1,-1
61,100,0.37727272727272726,172,0,105,_tunecore_Remastered_Guitar,-1,-1
64,100,0.2636363636363636,267,0,105,_tunecore_Remastered_Guitar,-1,-1
49,100,0.5409090909090909,333,0,105,_tunecore_Remastered_Guitar,-1,-1
59,100,0.1590909090909091,550,1,105,_tunecore_Remastered_Guitar,-1,-1
64,100,0.42272727272727273,739,0,105,_tunecore_Remastered_Guitar,-1,-1
64,100,0.2409090909090909,0,1,106,_tunecore_Remastered_Guitar,-1,-1
54,100,0.6,66,0,106,_tunecore_Remastered_Guitar,-1,-1
52,100,0.38181818181818183,422,1,106,_tunecore_Remastered_Guitar,-1,-1
40,100,0.1,540,0,106,_tunecore_Remastered_Guitar,-1,-1
40,100,0.4409090909090909,593,0,106,_tunecore_Remastered_Guitar,-1,-1
40,100,0.11818181818181818,747,0,106,_tunecore_Remastered_Guitar,-1,-1
59,100,0.11818181818181818,792,0,106,_tunecore_Remastered_Guitar,-1,-1
59,100,0.5227272727272727,839,0,106,_tunecore_Remastered_Guitar,-1,-1
40,100,0.4590909090909091,74,1,107,_tunecore_Remastered_Guitar,-1,-1
40,100,3.1,179,0,107,_tunecore_Remastered_Guitar,-1,-1
40,100,3.7,870,1,107,_tunecore_Remastered_Guitar,-1,-1
40,100,0.6227272727272727,817,1,108,_tunecore_Remastered_Guitar,-1,-1
51,100,0.2590909090909091,647,1,0,DL_MelancholicFolk_Guitar,-1,-1
58,100,0.33636363636363636,876,1,0,DL_MelancholicFolk_Guitar,-1,-1
51,100,0.18181818181818182,189,1,1,DL_MelancholicFolk_Guitar,-1,-1
58,100,0.21818181818181817,325,0,1,DL_MelancholicFolk_Guitar,-1,-1
50,100,0.5772727272727273,392,0,1,DL_MelancholicFolk_Guitar,-1,-1
58,100,0.17727272727272728,39,1,2,DL_MelancholicFolk_Guitar,-1,-1
60,100,0.4590909090909091,83,0,2,DL_MelancholicFolk_Guitar,-1,-1
60,100,0.1590909090909091,232,0,2,DL_MelancholicFolk_Guitar,-1,-1
60,100,0.740909090909091,382,0,2,DL_MelancholicFolk_Guitar,-1,-1
63,100,0.1409090909090909,550,0,2,DL_MelancholicFolk_Guitar,-1,-1
60,100,0.2409090909090909,638,0,2,DL_MelancholicFolk_Guitar,-1,-1
60,100,0.12272727272727273,773,0,2,DL_MelancholicFolk_Guitar,-1,-1
60,100,0.2818181818181818,818,0,2,DL_MelancholicFolk_Guitar,-1,-1
60,100,0.5409090909090909,30,1,3,DL_MelancholicFolk_Guitar,-1,-1
60,100,0.21818181818181817,216,0,3,DL_MelancholicFolk_Guitar,-1,-1
63,100,0.2,268,0,3,DL_MelancholicFolk_Guitar,-1,-1
44,100,0.5409090909090909,427,0,3,DL_MelancholicFolk_Guitar,-1,-1
56,100,1.3409090909090908,553,0,3,DL_MelancholicFolk_Guitar,-1,-1
56,100,0.1409090909090909,101,1,4,DL_MelancholicFolk_Guitar,-1,-1
60,100,1.5,355,1,4,DL_MelancholicFolk_Guitar,-1,-1
58,100,0.2772727272727273,721,1,4,DL_MelancholicFolk_Guitar,-1,-1
46,100,2.2227272727272727,795,0,4,DL_MelancholicFolk_Guitar,-1,-1
46,100,0.2818181818181818,483,1,5,DL_MelancholicFolk_Guitar,-1,-1
46,100,0.1,603,0,5,DL_MelancholicFolk_Guitar,-1,-1
46,100,0.7181818181818181,700,0,5,DL_MelancholicFolk_Guitar,-1,-1
46,100,0.13636363636363635,84,1,6,DL_MelancholicFolk_Guitar,-1,-1
51,100,0.6590909090909091,153,0,6,DL_MelancholicFolk_Guitar,-1,-1
51,100,0.6409090909090909,311,0,6,DL_MelancholicFolk_Guitar,-1,-1
51,100,0.41818181818181815,616,1,6,DL_MelancholicFolk_Guitar,-1,-1
50,100,0.6409090909090909,739,0,6,DL_MelancholicFolk_Guitar,-1,-1
50,100,0.5772727272727273,18,1,7,DL_MelancholicFolk_Guitar,-1,-1
48,100,1.240909090909091,440,1,7,DL_MelancholicFolk_Guitar,-1,-1
58,100,0.6590909090909091,716,1,7,DL_MelancholicFolk_Guitar,-1,-1
58,100,0.3409090909090909,53,1,8,DL_MelancholicFolk_Guitar,-1,-1
46,100,0.6363636363636364,127,0,8,DL_MelancholicFolk_Guitar,-1,-1
46,100,0.5409090909090909,295,0,8,DL_MelancholicFolk_Guitar,-1,-1
46,100,0.1590909090909091,519,1,8,DL_MelancholicFolk_Guitar,-1,-1
46,100,0.6181818181818182,558,0,8,DL_MelancholicFolk_Guitar,-1,-1
44,100,0.5409090909090909,725,0,8,DL_MelancholicFolk_Guitar,-1,-1
44,100,0.4590909090909091,0,1,9,DL_MelancholicFolk_Guitar,-1,-1
58,100,1.2818181818181817,110,0,9,DL_MelancholicFolk_Guitar,-1,-1
51,100,0.6,409,1,9,DL_MelancholicFolk_Guitar,-1,-1
51,100,0.5636363636363636,553,0,9,DL_MelancholicFolk_Guitar,-1,-1
58,100,0.6409090909090909,685,0,9,DL_MelancholicFolk_Guitar,-1,-1
51,100,0.42272727272727273,826,0,9,DL_MelancholicFolk_Guitar,-1,-1
44,100,0.12272727272727273,123,1,10,DL_MelancholicFolk_Guitar,-1,-1
58,100,1.3409090909090908,386,1,10,DL_MelancholicFolk_Guitar,-1,-1
46,100,0.22272727272727272,685,1,10,DL_MelancholicFolk_Guitar,-1,-1
48,100,0.1,409,1,11,DL_MelancholicFolk_Guitar,-1,-1
60,100,0.3,440,0,11,DL_MelancholicFolk_Guitar,-1,-1
48,100,0.11818181818181818,524,0,11,DL_MelancholicFolk_Guitar,-1,-1
60,100,0.6772727272727272,646,0,11,DL_MelancholicFolk_Guitar,-1,-1
53,100,0.22272727272727272,871,1,11,DL_MelancholicFolk_Guitar,-1,-1
55,100,0.6590909090909091,61,1,12,DL_MelancholicFolk_Guitar,-1,-1
63,100,0.1,527,1,12,DL_MelancholicFolk_Guitar,-1,-1
63,100,0.23636363636363636,567,0,12,DL_MelancholicFolk_Guitar,-1,-1
56,100,0.2772727272727273,656,0,12,DL_MelancholicFolk_Guitar,-1,-1
56,100,0.11818181818181818,814,0,12,DL_MelancholicFolk_Guitar,-1,-1
56,100,0.3,849,0,12,DL_MelancholicFolk_Guitar,-1,-1
51,100,0.12272727272727273,180,1,13,DL_MelancholicFolk_Guitar,-1,-1
51,100,0.4,326,0,13,DL_MelancholicFolk_Guitar,-1,-1
51,100,0.42272727272727273,474,0,13,DL_MelancholicFolk_Guitar,-1,-1
63,100,0.12272727272727273,575,0,13,DL_MelancholicFolk_Guitar,-1,-1
51,100,0.5590909090909091,625,0,13,DL_MelancholicFolk_Guitar,-1,-1
48,100,0.23636363636363636,787,0,13,DL_MelancholicFolk_Guitar,-1,-1
55,100,0.18181818181818182,34,1,14,DL_MelancholicFolk_Guitar,-1,-1
60,100,0.3,216,0,14,DL_MelancholicFolk_Guitar,-1,-1
60,100,0.2818181818181818,343,0,14,DL_MelancholicFolk_Guitar,-1,-1
53,100,0.1590909090909091,524,0,14,DL_MelancholicFolk_Guitar,-1,-1
62,100,0.1590909090909091,778,1,14,DL_MelancholicFolk_Guitar,-1,-1
62,100,0.2590909090909091,826,0,14,DL_MelancholicFolk_Guitar,-1,-1
62,100,0.4818181818181818,34,1,15,DL_MelancholicFolk_Guitar,-1,-1
58,100,0.11818181818181818,175,0,15,DL_MelancholicFolk_Guitar,-1,-1
53,100,0.12272727272727273,268,0,15,DL_MelancholicFolk_Guitar,-1,-1
58,100,0.7,417,0,15,DL_MelancholicFolk_Guitar,-1,-1
58,100,0.3,594,0,15,DL_MelancholicFolk_Guitar,-1,-1
58,100,0.13636363636363635,721,0,15,DL_MelancholicFolk_Guitar,-1,-1
51,100,0.12272727272727273,862,0,15,DL_MelancholicFolk_Guitar,-1,-1
55,100,0.32272727272727275,167,1,16,DL_MelancholicFolk_Guitar,-1,-1
55,100,0.11818181818181818,360,0,16,DL_MelancholicFolk_Guitar,-1,-1
63,100,0.1409090909090909,638,1,16,DL_MelancholicFolk_Guitar,-1,-1
56,100,0.5181818181818182,725,0,16,DL_MelancholicFolk_Guitar,-1,-1
56,100,1.1772727272727272,866,0,16,DL_MelancholicFolk_Guitar,-1,-1
56,100,0.1,382,1,17,DL_MelancholicFolk_Guitar,-1,-1
56,100,0.2,536,0,17,DL_MelancholicFolk_Guitar,-1,-1
53,100,0.2818181818181818,773,1,17,DL_MelancholicFolk_Guitar,-1,-1
58,100,1.459090909090909,57,1,18,DL_MelancholicFolk_Guitar,-1,-1
46,100,0.1590909090909091,409,1,18,DL_MelancholicFolk_Guitar,-1,-1
58,100,0.3409090909090909,735,1,18,DL_MelancholicFolk_Guitar,-1,-1
58,100,0.3181818181818182,822,0,18,DL_MelancholicFolk_Guitar,-1,-1
51,100,0.18181818181818182,210,1,19,DL_MelancholicFolk_Guitar,-1,-1
51,100,0.4,260,0,19,DL_MelancholicFolk_Guitar,-1,-1
51,100,0.2409090909090909,351,0,19,DL_MelancholicFolk_Guitar,-1,-1
51,100,0.6818181818181818,488,0,19,DL_MelancholicFolk_Guitar,-1,-1
63,100,0.3,638,0,19,DL_MelancholicFolk_Guitar,-1,-1
62,100,0.1,21,1,20,DL_MelancholicFolk_Guitar,-1,-1
46,100,0.6590909090909091,216,0,20,DL_MelancholicFolk_Guitar,-1,-1
53,100,0.2,422,1,20,DL_MelancholicFolk_Guitar,-1,-1
60,100,0.2590909090909091,484,0,20,DL_MelancholicFolk_Guitar,-1,-1
60,100,0.1409090909090909,607,0,20,DL_MelancholicFolk_Guitar,-1,-1
63,100,0.21818181818181817,712,0,20,DL_MelancholicFolk_Guitar,-1,-1
55,100,0.5590909090909091,185,1,21,DL_MelancholicFolk_Guitar,-1,-1
55,100,0.5,347,0,21,DL_MelancholicFolk_Guitar,-1,-1
56,100,0.17727272727272728,853,1,21,DL_MelancholicFolk_Guitar,-1,-1
56,100,0.36363636363636365,223,1,22,DL_MelancholicFolk_Guitar,-1,-1
55,100,0.7818181818181819,430,1,22,DL_MelancholicFolk_Guitar,-1,-1
55,100,0.2818181818181818,673,1,22,DL_MelancholicFolk_Guitar,-1,-1
58,100,0.2590909090909091,814,0,22,DL_MelancholicFolk_Guitar,-1,-1
58,100,0.2590909090909091,13,1,23,DL_MelancholicFolk_Guitar,-1,-1
51,100,0.5181818181818182,162,0,23,DL_MelancholicFolk_Guitar,-1,-1
56,100,0.6818181818181818,277,0,23,DL_MelancholicFolk_Guitar,-1,-1
56,100,0.1409090909090909,484,1,23,DL_MelancholicFolk_Guitar,-1,-1
56,100,0.2,519,0,23,DL_MelancholicFolk_Guitar,-1,-1
56,100,0.2818181818181818,576,0,23,DL_MelancholicFolk_Guitar,-1,-1
53,100,0.1590909090909091,691,0,23,DL_MelancholicFolk_Guitar,-1,-1
46,100,0.17727272727272728,40,1,24,DL_MelancholicFolk_Guitar,-1,-1
58,100,0.1590909090909091,83,0,24,DL_MelancholicFolk_Guitar,-1,-1
58,100,0.6181818181818182,250,0,24,DL_MelancholicFolk_Guitar,-1,-1
51,100,0.37727272727272726,426,0,24,DL_MelancholicFolk_Guitar,-1,-1
58,100,0.11818181818181818,550,0,24,DL_MelancholicFolk_Guitar,-1,-1
51,100,1.518181818181818,590,0,24,DL_MelancholicFolk_Guitar,-1,-1
58,100,0.1409090909090909,119,1,25,DL_MelancholicFolk_Guitar,-1,-1
58,100,0.11818181818181818,285,0,25,DL_MelancholicFolk_Guitar,-1,-1
58,100,0.1590909090909091,343,0,25,DL_MelancholicFolk_Guitar,-1,-1
58,100,0.2772727272727273,391,0,25,DL_MelancholicFolk_Guitar,-1,-1
58,100,0.4409090909090909,505,0,25,DL_MelancholicFolk_Guitar,-1,-1
55,100,1.0818181818181818,717,1,25,DL_MelancholicFolk_Guitar,-1,-1
60,100,0.6590909090909091,83,1,26,DL_MelancholicFolk_Guitar,-1,-1
63,100,0.11818181818181818,326,1,26,DL_MelancholicFolk_Guitar,-1,-1
55,100,0.6409090909090909,509,0,26,DL_MelancholicFolk_Guitar,-1,-1
55,100,0.3,810,1,26,DL_MelancholicFolk_Guitar,-1,-1
56,100,0.8363636363636363,106,1,27,DL_MelancholicFolk_Guitar,-1,-1
56,100,0.759090909090909,374,1,27,DL_MelancholicFolk_Guitar,-1,-1
58,100,0.1,650,1,27,DL_MelancholicFolk_Guitar,-1,-1
46,100,0.18181818181818182,729,0,27,DL_MelancholicFolk_Guitar,-1,-1
46,100,0.5409090909090909,818,0,27,DL_MelancholicFolk_Guitar,-1,-1
46,100,0.1,193,1,28,DL_MelancholicFolk_Guitar,-1,-1
46,100,0.3,220,0,28,DL_MelancholicFolk_Guitar,-1,-1
51,100,0.9772727272727273,326,0,28,DL_MelancholicFolk_Guitar,-1,-1
51,100,0.11818181818181818,571,1,28,DL_MelancholicFolk_Guitar,-1,-1
58,100,0.3409090909090909,598,0,28,DL_MelancholicFolk_Guitar,-1,-1
51,100,0.1590909090909091,756,0,28,DL_MelancholicFolk_Guitar,-1,-1
63,100,0.2,30,1,29,DL_MelancholicFolk_Guitar,-1,-1
51,100,0.5,106,0,29,DL_MelancholicFolk_Guitar,-1,-1
63,100,0.8590909090909091,216,0,29,DL_MelancholicFolk_Guitar,-1,-1
51,100,0.6590909090909091,440,1,29,DL_MelancholicFolk_Guitar,-1,-1
63,100,0.12272727272727273,584,0,29,DL_MelancholicFolk_Guitar,-1,-1
51,100,0.6590909090909091,615,0,29,DL_MelancholicFolk_Guitar,-1,-1
51,100,0.12272727272727273,862,1,29,DL_MelancholicFolk_Guitar,-1,-1
51,100,0.5,21,1,30,DL_MelancholicFolk_Guitar,-1,-1
58,100,0.41818181818181815,193,0,30,DL_MelancholicFolk_Guitar,-1,-1
53,100,0.6409090909090909,285,0,30,DL_MelancholicFolk_Guitar,-1,-1
46,100,0.1590909090909091,571,1,30,DL_MelancholicFolk_Guitar,-1,-1
46,100,0.4,725,0,30,DL_MelancholicFolk_Guitar,-1,-1
53,100,0.16363636363636364,818,0,30,DL_MelancholicFolk_Guitar,-1,-1
55,100,0.22272727272727272,862,0,30,DL_MelancholicFolk_Guitar,-1,-1
55,100,0.1,34,1,31,DL_MelancholicFolk_Guitar,-1,-1
55,100,0.1590909090909091,106,0,31,DL_MelancholicFolk_Guitar,-1,-1
48,100,0.38181818181818183,320,1,31,DL_MelancholicFolk_Guitar,-1,-1
55,100,0.2409090909090909,673,1,31,DL_MelancholicFolk_Guitar,-1,-1
55,100,0.16363636363636364,729,0,31,DL_MelancholicFolk_Guitar,-1,-1
58,100,0.3409090909090909,21,1,32,DL_MelancholicFolk_Guitar,-1,-1
56,100,0.1590909090909091,251,1,32,DL_MelancholicFolk_Guitar,-1,-1
44,100,0.4409090909090909,444,0,32,DL_MelancholicFolk_Guitar,-1,-1
56,100,0.37727272727272726,545,0,32,DL_MelancholicFolk_Guitar,-1,-1
56,100,0.2409090909090909,761,1,32,DL_MelancholicFolk_Guitar,-1,-1
58,100,0.6818181818181818,826,0,32,DL_MelancholicFolk_Guitar,-1,-1
44,100,0.5,563,1,33,DL_MelancholicFolk_Guitar,-1,-1
44,100,0.41818181818181815,858,1,33,DL_MelancholicFolk_Guitar,-1,-1
56,100,0.18181818181818182,69,1,34,DL_MelancholicFolk_Guitar,-1,-1
53,100,0.2590909090909091,153,0,34,DL_MelancholicFolk_Guitar,-1,-1
53,100,0.5181818181818182,215,0,34,DL_MelancholicFolk_Guitar,-1,-1
53,100,0.2772727272727273,361,0,34,DL_MelancholicFolk_Guitar,-1,-1
58,100,0.5818181818181818,440,0,34,DL_MelancholicFolk_Guitar,-1,-1
46,100,0.11818181818181818,616,0,34,DL_MelancholicFolk_Guitar,-1,-1
56,100,0.5181818181818182,810,0,34,DL_MelancholicFolk_Guitar,-1,-1
51,100,0.22272727272727272,56,1,35,DL_MelancholicFolk_Guitar,-1,-1
56,100,0.11818181818181818,220,0,35,DL_MelancholicFolk_Guitar,-1,-1
56,100,0.2590909090909091,254,0,35,DL_MelancholicFolk_Guitar,-1,-1
58,100,0.5818181818181818,418,0,35,DL_MelancholicFolk_Guitar,-1,-1
58,100,0.7,761,1,35,DL_MelancholicFolk_Guitar,-1,-1
53,100,0.3,40,1,36,DL_MelancholicFolk_Guitar,-1,-1
58,100,0.1409090909090909,110,0,36,DL_MelancholicFolk_Guitar,-1,-1
53,100,0.21818181818181817,176,0,36,DL_MelancholicFolk_Guitar,-1,-1
55,100,0.5181818181818182,351,0,36,DL_MelancholicFolk_Guitar,-1,-1
55,100,0.1590909090909091,783,1,36,DL_MelancholicFolk_Guitar,-1,-1
60,100,0.9772727272727273,8,1,37,DL_MelancholicFolk_Guitar,-1,-1
60,100,0.11818181818181818,228,1,37,DL_MelancholicFolk_Guitar,-1,-1
55,100,0.12272727272727273,321,0,37,DL_MelancholicFolk_Guitar,-1,-1
53,100,1.3818181818181818,440,0,37,DL_MelancholicFolk_Guitar,-1,-1
53,100,0.1590909090909091,765,1,37,DL_MelancholicFolk_Guitar,-1,-1
53,100,0.18181818181818182,804,0,37,DL_MelancholicFolk_Guitar,-1,-1
58,100,0.2,361,1,38,DL_MelancholicFolk_Guitar,-1,-1
58,100,0.17727272727272728,536,0,38,DL_MelancholicFolk_Guitar,-1,-1
58,100,0.17727272727272728,633,0,38,DL_MelancholicFolk_Guitar,-1,-1
44,100,0.21818181818181817,735,0,38,DL_MelancholicFolk_Guitar,-1,-1
51,100,0.1409090909090909,263,1,39,DL_MelancholicFolk_Guitar,-1,-1
53,100,0.21818181818181817,348,0,39,DL_MelancholicFolk_Guitar,-1,-1
46,100,0.2590909090909091,453,0,39,DL_MelancholicFolk_Guitar,-1,-1
58,100,0.2,509,0,39,DL_MelancholicFolk_Guitar,-1,-1
53,100,0.5409090909090909,554,0,39,DL_MelancholicFolk_Guitar,-1,-1
58,100,0.5,721,0,39,DL_MelancholicFolk_Guitar,-1,-1
58,100,0.4,853,0,39,DL_MelancholicFolk_Guitar,-1,-1
51,100,0.7,75,1,40,DL_MelancholicFolk_Guitar,-1,-1
51,100,3.481818181818182,466,1,40,DL_MelancholicFolk_Guitar,-1,-1
56,100,0.4,418,1,41,DL_MelancholicFolk_Guitar,-1,-1
56,100,0.3,558,0,41,DL_MelancholicFolk_Guitar,-1,-1
58,100,0.2,655,0,41,DL_MelancholicFolk_Guitar,-1,-1
60,100,0.18181818181818182,21,1,42,DL_MelancholicFolk_Guitar,-1,-1
56,100,0.2409090909090909,641,1,42,DL_MelancholicFolk_Guitar,-1,-1
63,100,0.1590909090909091,866,1,42,DL_MelancholicFolk_Guitar,-1,-1
46,100,0.4818181818181818,69,1,43,DL_MelancholicFolk_Guitar,-1,-1
58,100,0.4590909090909091,198,0,43,DL_MelancholicFolk_Guitar,-1,-1
58,100,0.1409090909090909,581,1,43,DL_MelancholicFolk_Guitar,-1,-1
58,100,0.4590909090909091,646,0,43,DL_MelancholicFolk_Guitar,-1,-1
63,100,0.1409090909090909,866,1,43,DL_MelancholicFolk_Guitar,-1,-1
51,100,0.5636363636363636,26,1,44,DL_MelancholicFolk_Guitar,-1,-1
63,100,0.8181818181818182,150,0,44,DL_MelancholicFolk_Guitar,-1,-1
63,100,0.1590909090909091,461,1,44,DL_MelancholicFolk_Guitar,-1,-1
58,100,0.11818181818181818,528,0,44,DL_MelancholicFolk_Guitar,-1,-1
46,100,0.5590909090909091,616,0,44,DL_MelancholicFolk_Guitar,-1,-1
46,100,0.4818181818181818,770,0,44,DL_MelancholicFolk_Guitar,-1,-1
58,100,0.8363636363636363,875,0,44,DL_MelancholicFolk_Guitar,-1,-1
58,100,0.11818181818181818,228,1,45,DL_MelancholicFolk_Guitar,-1,-1
55,100,0.2,399,0,45,DL_MelancholicFolk_Guitar,-1,-1
55,100,0.2772727272727273,721,1,45,DL_MelancholicFolk_Guitar,-1,-1
55,100,0.2590909090909091,131,1,46,DL_MelancholicFolk_Guitar,-1,-1
58,100,0.16363636363636364,289,0,46,DL_MelancholicFolk_Guitar,-1,-1
58,100,0.3409090909090909,330,0,46,DL_MelancholicFolk_Guitar,-1,-1
58,100,0.3,480,0,46,DL_MelancholicFolk_Guitar,-1,-1
46,100,0.3,461,1,47,DL_MelancholicFolk_Guitar,-1,-1
58,100,0.32272727272727275,541,0,47,DL_MelancholicFolk_Guitar,-1,-1
46,100,0.4409090909090909,686,0,47,DL_MelancholicFolk_Guitar,-1,-1
58,100,0.21818181818181817,801,0,47,DL_MelancholicFolk_Guitar,-1,-1
58,100,0.11818181818181818,0,1,48,DL_MelancholicFolk_Guitar,-1,-1
51,100,0.2409090909090909,118,0,48,DL_MelancholicFolk_Guitar,-1,-1
51,100,0.35909090909090907,298,0,48,DL_MelancholicFolk_Guitar,-1,-1
51,100,0.2818181818181818,440,0,48,DL_MelancholicFolk_Guitar,-1,-1
51,100,0.2409090909090909,606,0,48,DL_MelancholicFolk_Guitar,-1,-1
63,100,0.3409090909090909,660,0,48,DL_MelancholicFolk_Guitar,-1,-1
55,100,0.11818181818181818,66,1,49,DL_MelancholicFolk_Guitar,-1,-1
56,100,0.5181818181818182,241,0,49,DL_MelancholicFolk_Guitar,-1,-1
56,100,0.4,509,1,49,DL_MelancholicFolk_Guitar,-1,-1
56,100,0.2409090909090909,646,0,49,DL_MelancholicFolk_Guitar,-1,-1
58,100,1.1636363636363636,818,0,49,DL_MelancholicFolk_Guitar,-1,-1
58,100,0.38181818181818183,201,1,50,DL_MelancholicFolk_Guitar,-1,-1
58,100,0.740909090909091,295,0,50,DL_MelancholicFolk_Guitar,-1,-1
53,100,0.33636363636363636,105,1,51,DL_MelancholicFolk_Guitar,-1,-1
55,100,0.1590909090909091,185,0,51,DL_MelancholicFolk_Guitar,-1,-1
58,100,0.1409090909090909,405,1,52,DL_MelancholicFolk_Guitar,-1,-1
46,100,0.4590909090909091,496,0,52,DL_MelancholicFolk_Guitar,-1,-1
46,100,0.1,691,0,52,DL_MelancholicFolk_Guitar,-1,-1
58,100,1.1409090909090909,761,0,52,DL_MelancholicFolk_Guitar,-1,-1
51,100,0.1409090909090909,246,1,53,DL_MelancholicFolk_Guitar,-1,-1
51,100,0.1590909090909091,364,0,53,DL_MelancholicFolk_Guitar,-1,-1
51,100,0.5409090909090909,866,1,53,DL_MelancholicFolk_Guitar,-1,-1
58,100,0.21818181818181817,141,1,54,DL_MelancholicFolk_Guitar,-1,-1
51,100,0.11818181818181818,238,0,54,DL_MelancholicFolk_Guitar,-1,-1
58,100,0.4772727272727273,273,0,54,DL_MelancholicFolk_Guitar,-1,-1
53,100,0.18181818181818182,48,1,55,DL_MelancholicFolk_Guitar,-1,-1
58,100,1.3,105,0,55,DL_MelancholicFolk_Guitar,-1,-1
58,100,0.6818181818181818,396,1,55,DL_MelancholicFolk_Guitar,-1,-1
58,100,0.18181818181818182,563,0,55,DL_MelancholicFolk_Guitar,-1,-1
55,100,0.4590909090909091,673,0,55,DL_MelancholicFolk_Guitar,-1,-1
53,100,0.2590909090909091,303,1,56,DL_MelancholicFolk_Guitar,-1,-1
60,100,0.11818181818181818,383,0,56,DL_MelancholicFolk_Guitar,-1,-1
55,100,0.2,458,0,56,DL_MelancholicFolk_Guitar,-1,-1
55,100,0.22272727272727272,694,1,56,DL_MelancholicFolk_Guitar,-1,-1
53,100,0.2636363636363636,861,0,56,DL_MelancholicFolk_Guitar,-1,-1
53,100,0.5,215,1,57,DL_MelancholicFolk_Guitar,-1,-1
53,100,0.8772727272727273,348,0,57,DL_MelancholicFolk_Guitar,-1,-1
53,100,0.21818181818181817,788,1,57,DL_MelancholicFolk_Guitar,-1,-1
53,100,0.21818181818181817,858,0,57,DL_MelancholicFolk_Guitar,-1,-1
53,100,0.1590909090909091,40,1,58,DL_MelancholicFolk_Guitar,-1,-1
58,100,1.0636363636363637,334,1,58,DL_MelancholicFolk_Guitar,-1,-1
46,100,0.9181818181818182,568,1,58,DL_MelancholicFolk_Guitar,-1,-1
46,100,2.659090909090909,83,1,59,DL_MelancholicFolk_Guitar,-1,-1
46,100,0.11818181818181818,691,1,59,DL_MelancholicFolk_Guitar,-1,-1
46,100,0.1409090909090909,26,1,60,DL_MelancholicFolk_Guitar,-1,-1
51,100,0.18181818181818182,188,0,60,DL_MelancholicFolk_Guitar,-1,-1
58,100,0.13636363636363635,238,0,60,DL_MelancholicFolk_Guitar,-1,-1
63,100,0.36363636363636365,311,0,60,DL_MelancholicFolk_Guitar,-1,-1
51,100,0.2590909090909091,391,0,60,DL_MelancholicFolk_Guitar,-1,-1
63,100,0.5,458,0,60,DL_MelancholicFolk_Guitar,-1,-1
51,100,1.0,576,0,60,DL_MelancholicFolk_Guitar,-1,-1
51,100,0.1409090909090909,823,1,60,DL_MelancholicFolk_Guitar,-1,-1
58,100,1.2636363636363637,861,0,60,DL_MelancholicFolk_Guitar,-1,-1
58,100,0.5,334,1,61,DL_MelancholicFolk_Guitar,-1,-1
55,100,0.2409090909090909,691,1,61,DL_MelancholicFolk_Guitar,-1,-1
55,100,0.11818181818181818,778,0,61,DL_MelancholicFolk_Guitar,-1,-1
58,100,0.5227272727272727,871,0,61,DL_MelancholicFolk_Guitar,-1,-1
43,100,0.21818181818181817,611,1,62,DL_MelancholicFolk_Guitar,-1,-1
58,100,0.6227272727272727,686,0,62,DL_MelancholicFolk_Guitar,-1,-1
51,100,0.43636363636363634,853,0,62,DL_MelancholicFolk_Guitar,-1,-1
51,100,0.18181818181818182,91,1,63,DL_MelancholicFolk_Guitar,-1,-1
51,100,0.4409090909090909,273,0,63,DL_MelancholicFolk_Guitar,-1,-1
51,100,0.1,373,0,63,DL_MelancholicFolk_Guitar,-1,-1
51,100,0.13636363636363635,413,0,63,DL_MelancholicFolk_Guitar,-1,-1
58,100,0.2409090909090909,461,0,63,DL_MelancholicFolk_Guitar,-1,-1
63,100,0.2409090909090909,531,0,63,DL_MelancholicFolk_Guitar,-1,-1
63,100,0.1590909090909091,638,0,63,DL_MelancholicFolk_Guitar,-1,-1
63,100,0.5181818181818182,681,0,63,DL_MelancholicFolk_Guitar,-1,-1
51,100,0.9181818181818182,801,0,63,DL_MelancholicFolk_Guitar,-1,-1
58,100,0.3,140,1,64,DL_MelancholicFolk_Guitar,-1,-1
51,100,0.1409090909090909,289,0,64,DL_MelancholicFolk_Guitar,-1,-1
51,100,0.5818181818181818,365,0,64,DL_MelancholicFolk_Guitar,-1,-1
44,100,0.11818181818181818,523,0,64,DL_MelancholicFolk_Guitar,-1,-1
56,100,0.2772727272727273,559,0,64,DL_MelancholicFolk_Guitar,-1,-1
46,100,0.38181818181818183,839,1,64,DL_MelancholicFolk_Guitar,-1,-1
46,100,0.1,83,1,65,DL_MelancholicFolk_Guitar,-1,-1
46,100,0.18181818181818182,145,0,65,DL_MelancholicFolk_Guitar,-1,-1
58,100,0.7227272727272728,189,0,65,DL_MelancholicFolk_Guitar,-1,-1
56,100,0.2,580,1,65,DL_MelancholicFolk_Guitar,-1,-1
56,100,0.21818181818181817,633,0,65,DL_MelancholicFolk_Guitar,-1,-1
56,100,0.1409090909090909,686,0,65,DL_MelancholicFolk_Guitar,-1,-1
51,100,0.12272727272727273,773,0,65,DL_MelancholicFolk_Guitar,-1,-1
56,100,0.37727272727272726,30,1,66,DL_MelancholicFolk_Guitar,-1,-1
46,100,0.1590909090909091,242,1,66,DL_MelancholicFolk_Guitar,-1,-1
58,100,0.1590909090909091,276,0,66,DL_MelancholicFolk_Guitar,-1,-1
53,100,0.11818181818181818,483,1,66,DL_MelancholicFolk_Guitar,-1,-1
58,100,1.0,509,0,66,DL_MelancholicFolk_Guitar,-1,-1
55,100,1.240909090909091,747,1,66,DL_MelancholicFolk_Guitar,-1,-1
55,100,0.12272727272727273,157,1,67,DL_MelancholicFolk_Guitar,-1,-1
55,100,0.21818181818181817,216,0,67,DL_MelancholicFolk_Guitar,-1,-1
55,100,0.3,326,0,67,DL_MelancholicFolk_Guitar,-1,-1
55,100,0.12272727272727273,409,0,67,DL_MelancholicFolk_Guitar,-1,-1
58,100,0.2,650,1,67,DL_MelancholicFolk_Guitar,-1,-1
58,100,0.3,62,1,68,DL_MelancholicFolk_Guitar,-1,-1
56,100,0.22272727272727272,145,0,68,DL_MelancholicFolk_Guitar,-1,-1
56,100,0.12272727272727273,255,0,68,DL_MelancholicFolk_Guitar,-1,-1
56,100,0.4,320,0,68,DL_MelancholicFolk_Guitar,-1,-1
56,100,0.2,506,0,68,DL_MelancholicFolk_Guitar,-1,-1
63,100,0.1590909090909091,590,0,68,DL_MelancholicFolk_Guitar,-1,-1
58,100,0.22272727272727272,650,0,68,DL_MelancholicFolk_Guitar,-1,-1
58,100,0.7,703,0,68,DL_MelancholicFolk_Guitar,-1,-1
46,100,0.17727272727272728,9,1,69,DL_MelancholicFolk_Guitar,-1,-1
46,100,0.2772727272727273,53,0,69,DL_MelancholicFolk_Guitar,-1,-1
58,100,0.3181818181818182,184,0,69,DL_MelancholicFolk_Guitar,-1,-1
58,100,0.5772727272727273,273,0,69,DL_MelancholicFolk_Guitar,-1,-1
51,100,0.6818181818181818,422,0,69,DL_MelancholicFolk_Guitar,-1,-1
63,100,0.21818181818181817,572,0,69,DL_MelancholicFolk_Guitar,-1,-1
51,100,0.1590909090909091,650,0,69,DL_MelancholicFolk_Guitar,-1,-1
51,100,0.6,703,0,69,DL_MelancholicFolk_Guitar,-1,-1
58,100,0.18181818181818182,849,0,69,DL_MelancholicFolk_Guitar,-1,-1
63,100,0.1,83,1,70,DL_MelancholicFolk_Guitar,-1,-1
58,100,0.11818181818181818,140,0,70,DL_MelancholicFolk_Guitar,-1,-1
58,100,0.23636363636363636,237,0,70,DL_MelancholicFolk_Guitar,-1,-1
51,100,1.2818181818181817,343,0,70,DL_MelancholicFolk_Guitar,-1,-1
51,100,0.5590909090909091,734,1,70,DL_MelancholicFolk_Guitar,-1,-1
51,100,0.1409090909090909,866,0,70,DL_MelancholicFolk_Guitar,-1,-1
63,100,0.35909090909090907,206,1,71,DL_MelancholicFolk_Guitar,-1,-1
51,100,0.2772727272727273,303,1,76,DL_MelancholicFolk_Guitar,-1,-1
56,100,0.2636363636363636,422,0,76,DL_MelancholicFolk_Guitar,-1,-1
53,100,0.16363636363636364,509,0,76,DL_MelancholicFolk_Guitar,-1,-1
58,100,0.3409090909090909,553,0,76,DL_MelancholicFolk_Guitar,-1,-1
58,100,0.37727272727272726,669,0,76,DL_MelancholicFolk_Guitar,-1,-1
58,100,1.018181818181818,756,0,76,DL_MelancholicFolk_Guitar,-1,-1
58,100,0.2409090909090909,110,1,77,DL_MelancholicFolk_Guitar,-1,-1
58,100,0.18181818181818182,176,0,77,DL_MelancholicFolk_Guitar,-1,-1
55,100,1.0636363636363637,289,0,77,DL_MelancholicFolk_Guitar,-1,-1
58,100,0.4772727272727273,656,1,77,DL_MelancholicFolk_Guitar,-1,-1
55,100,0.16363636363636364,246,1,78,DL_MelancholicFolk_Guitar,-1,-1
55,100,0.3409090909090909,360,0,78,DL_MelancholicFolk_Guitar,-1,-1
56,100,0.5227272727272727,519,0,78,DL_MelancholicFolk_Guitar,-1,-1
63,100,0.1590909090909091,660,0,78,DL_MelancholicFolk_Guitar,-1,-1
55,100,0.32272727272727275,365,1,79,DL_MelancholicFolk_Guitar,-1,-1
55,100,0.21818181818181817,440,0,79,DL_MelancholicFolk_Guitar,-1,-1
55,100,0.2,509,0,79,DL_MelancholicFolk_Guitar,-1,-1
44,100,0.2,844,1,79,DL_MelancholicFolk_Guitar,-1,-1
63,100,0.32272727272727275,26,1,80,DL_MelancholicFolk_Guitar,-1,-1
63,100,0.1409090909090909,153,0,80,DL_MelancholicFolk_Guitar,-1,-1
51,100,0.1409090909090909,330,0,80,DL_MelancholicFolk_Guitar,-1,-1
63,100,0.22272727272727272,365,0,80,DL_MelancholicFolk_Guitar,-1,-1
51,100,0.17727272727272728,413,0,80,DL_MelancholicFolk_Guitar,-1,-1
58,100,1.0,475,0,80,DL_MelancholicFolk_Guitar,-1,-1
53,100,0.2409090909090909,703,1,80,DL_MelancholicFolk_Guitar,-1,-1
53,100,0.8590909090909091,766,0,80,DL_MelancholicFolk_Guitar,-1,-1
53,100,0.18181818181818182,79,1,81,DL_MelancholicFolk_Guitar,-1,-1
60,100,0.11818181818181818,193,0,81,DL_MelancholicFolk_Guitar,-1,-1
60,100,0.5363636363636364,303,0,81,DL_MelancholicFolk_Guitar,-1,-1
60,100,0.13636363636363635,436,0,81,DL_MelancholicFolk_Guitar,-1,-1
55,100,0.4409090909090909,475,0,81,DL_MelancholicFolk_Guitar,-1,-1
60,100,0.4,603,0,81,DL_MelancholicFolk_Guitar,-1,-1
51,100,0.2,770,0,81,DL_MelancholicFolk_Guitar,-1,-1
56,100,0.1,857,0,81,DL_MelancholicFolk_Guitar,-1,-1
51,100,0.4772727272727273,193,1,82,DL_MelancholicFolk_Guitar,-1,-1
46,100,0.1,457,1,82,DL_MelancholicFolk_Guitar,-1,-1
58,100,0.33636363636363636,480,0,82,DL_MelancholicFolk_Guitar,-1,-1
58,100,0.8,590,0,82,DL_MelancholicFolk_Guitar,-1,-1
58,100,0.6181818181818182,832,1,82,DL_MelancholicFolk_Guitar,-1,-1
63,100,0.11818181818181818,140,1,83,DL_MelancholicFolk_Guitar,-1,-1
51,100,0.4590909090909091,166,0,83,DL_MelancholicFolk_Guitar,-1,-1
58,100,0.11818181818181818,307,0,83,DL_MelancholicFolk_Guitar,-1,-1
58,100,0.2772727272727273,339,0,83,DL_MelancholicFolk_Guitar,-1,-1
62,100,0.6409090909090909,426,0,83,DL_MelancholicFolk_Guitar,-1,-1
62,100,0.2,572,0,83,DL_MelancholicFolk_Guitar,-1,-1
58,100,0.2409090909090909,650,0,83,DL_MelancholicFolk_Guitar,-1,-1
60,100,0.11818181818181818,787,0,83,DL_MelancholicFolk_Guitar,-1,-1
48,100,0.1,0,1,84,DL_MelancholicFolk_Guitar,-1,-1
60,100,0.37727272727272726,184,0,84,DL_MelancholicFolk_Guitar,-1,-1
60,100,0.3,273,0,84,DL_MelancholicFolk_Guitar,-1,-1
60,100,0.2,343,0,84,DL_MelancholicFolk_Guitar,-1,-1
63,100,0.1590909090909091,519,0,84,DL_MelancholicFolk_Guitar,-1,-1
56,100,0.22272727272727272,563,0,84,DL_MelancholicFolk_Guitar,-1,-1
51,100,0.1409090909090909,707,0,84,DL_MelancholicFolk_Guitar,-1,-1
51,100,0.1590909090909091,743,0,84,DL_MelancholicFolk_Guitar,-1,-1
56,100,1.3409090909090908,823,0,84,DL_MelancholicFolk_Guitar,-1,-1
56,100,0.11818181818181818,392,1,85,DL_MelancholicFolk_Guitar,-1,-1
56,100,0.1,576,0,85,DL_MelancholicFolk_Guitar,-1,-1
58,100,0.1590909090909091,616,0,85,DL_MelancholicFolk_Guitar,-1,-1
60,100,0.18181818181818182,773,0,85,DL_MelancholicFolk_Guitar,-1,-1
53,100,0.11818181818181818,823,0,85,DL_MelancholicFolk_Guitar,-1,-1
53,100,0.17727272727272728,30,1,86,DL_MelancholicFolk_Guitar,-1,-1
53,100,0.1590909090909091,189,0,86,DL_MelancholicFolk_Guitar,-1,-1
58,100,0.4772727272727273,229,0,86,DL_MelancholicFolk_Guitar,-1,-1
60,100,0.38181818181818183,409,0,86,DL_MelancholicFolk_Guitar,-1,-1
60,100,0.2,519,0,86,DL_MelancholicFolk_Guitar,-1,-1
60,100,0.1,567,0,86,DL_MelancholicFolk_Guitar,-1,-1
60,100,0.8,752,0,86,DL_MelancholicFolk_Guitar,-1,-1
56,100,0.5409090909090909,69,1,87,DL_MelancholicFolk_Guitar,-1,-1
44,100,0.23636363636363636,260,0,87,DL_MelancholicFolk_Guitar,-1,-1
51,100,0.17727272727272728,426,0,87,DL_MelancholicFolk_Guitar,-1,-1
58,100,1.259090909090909,637,1,87,DL_MelancholicFolk_Guitar,-1,-1
58,100,0.1590909090909091,53,1,88,DL_MelancholicFolk_Guitar,-1,-1
58,100,0.7,100,0,88,DL_MelancholicFolk_Guitar,-1,-1
63,100,0.11818181818181818,330,1,88,DL_MelancholicFolk_Guitar,-1,-1
63,100,0.6,453,0,88,DL_MelancholicFolk_Guitar,-1,-1
62,100,0.3181818181818182,612,0,88,DL_MelancholicFolk_Guitar,-1,-1
62,100,0.13636363636363635,722,0,88,DL_MelancholicFolk_Guitar,-1,-1
60,100,0.5409090909090909,30,1,89,DL_MelancholicFolk_Guitar,-1,-1
60,100,0.17727272727272728,493,1,89,DL_MelancholicFolk_Guitar,-1,-1
51,100,0.2409090909090909,74,1,90,DL_MelancholicFolk_Guitar,-1,-1
58,100,1.6409090909090909,299,1,90,DL_MelancholicFolk_Guitar,-1,-1
58,100,0.11818181818181818,677,1,90,DL_MelancholicFolk_Guitar,-1,-1
51,100,0.13636363636363635,40,1,91,DL_MelancholicFolk_Guitar,-1,-1
51,100,0.11818181818181818,326,1,91,DL_MelancholicFolk_Guitar,-1,-1
53,100,0.12272727272727273,400,1,0,_Guitar,-1,-1
50,100,0.2772727272727273,471,0,0,_Guitar,-1,-1
50,100,0.2409090909090909,537,0,0,_Guitar,-1,-1
60,100,0.1,686,0,0,_Guitar,-1,-1
60,100,0.6772727272727272,713,0,0,_Guitar,-1,-1
50,100,0.11818181818181818,0,1,1,_Guitar,-1,-1
48,100,0.2,194,0,1,_Guitar,-1,-1
48,100,0.7,241,0,1,_Guitar,-1,-1
53,100,0.12272727272727273,597,1,1,_Guitar,-1,-1
60,100,0.2,651,0,1,_Guitar,-1,-1
46,100,1.8772727272727272,713,0,1,_Guitar,-1,-1
48,100,2.140909090909091,295,1,2,_Guitar,-1,-1
50,100,0.6227272727272727,48,1,3,_Guitar,-1,-1
60,100,0.12272727272727273,254,1,3,_Guitar,-1,-1
62,100,0.1590909090909091,387,0,3,_Guitar,-1,-1
55,100,0.4409090909090909,660,1,3,_Guitar,-1,-1
55,100,0.1409090909090909,773,0,3,_Guitar,-1,-1
48,100,0.2818181818181818,858,0,3,_Guitar,-1,-1
48,100,0.1590909090909091,79,1,4,_Guitar,-1,-1
60,100,1.7772727272727273,228,0,4,_Guitar,-1,-1
60,100,2.081818181818182,672,1,4,_Guitar,-1,-1
53,100,0.2636363636363636,289,1,5,_Guitar,-1,-1
58,100,0.38181818181818183,585,1,5,_Guitar,-1,-1
53,100,0.17727272727272728,744,0,5,_Guitar,-1,-1
53,100,0.2590909090909091,788,0,5,_Guitar,-1,-1
48,100,0.17727272727272728,140,1,6,_Guitar,-1,-1
60,100,0.2409090909090909,554,1,6,_Guitar,-1,-1
53,100,0.1409090909090909,682,0,6,_Guitar,-1,-1
53,100,0.7,805,0,6,_Guitar,-1,-1
53,100,0.3181818181818182,150,1,7,_Guitar,-1,-1
57,100,0.2590909090909091,307,0,7,_Guitar,-1,-1
60,100,0.1409090909090909,452,0,7,_Guitar,-1,-1
50,100,0.2409090909090909,637,0,7,_Guitar,-1,-1
53,100,0.2,713,0,7,_Guitar,-1,-1
53,100,0.11818181818181818,8,1,8,_Guitar,-1,-1
60,100,0.1590909090909091,118,0,8,_Guitar,-1,-1
58,100,0.17727272727272728,194,0,8,_Guitar,-1,-1
53,100,0.12272727272727273,312,0,8,_Guitar,-1,-1
60,100,0.2409090909090909,713,1,8,_Guitar,-1,-1
55,100,0.2590909090909091,787,0,8,_Guitar,-1,-1
48,100,0.22272727272727272,113,1,9,_Guitar,-1,-1
60,100,0.35909090909090907,211,0,9,_Guitar,-1,-1
60,100,0.12272727272727273,333,0,9,_Guitar,-1,-1
48,100,0.1409090909090909,360,0,9,_Guitar,-1,-1
48,100,0.4,436,0,9,_Guitar,-1,-1
53,100,0.1590909090909091,558,0,9,_Guitar,-1,-1
53,100,0.1590909090909091,603,0,9,_Guitar,-1,-1
60,100,0.3181818181818182,756,0,9,_Guitar,-1,-1
53,100,0.5590909090909091,84,1,10,_Guitar,-1,-1
48,100,0.18181818181818182,233,0,10,_Guitar,-1,-1
53,100,0.3,276,0,10,_Guitar,-1,-1
53,100,0.1,479,1,10,_Guitar,-1,-1
41,100,0.2590909090909091,515,0,10,_Guitar,-1,-1
41,100,0.5227272727272727,34,1,11,_Guitar,-1,-1
41,100,0.2,254,1,11,_Guitar,-1,-1
41,100,0.22272727272727272,321,0,11,_Guitar,-1,-1
41,100,0.21818181818181817,383,0,11,_Guitar,-1,-1
53,100,0.16363636363636364,443,0,11,_Guitar,-1,-1
41,100,0.21818181818181817,479,0,11,_Guitar,-1,-1
60,100,0.2818181818181818,527,0,11,_Guitar,-1,-1
53,100,0.3181818181818182,594,0,11,_Guitar,-1,-1
41,100,0.12272727272727273,673,0,11,_Guitar,-1,-1
60,100,1.4772727272727273,721,0,11,_Guitar,-1,-1
53,100,0.18181818181818182,180,1,12,_Guitar,-1,-1
53,100,0.22272727272727272,13,1,13,_Guitar,-1,-1
53,100,0.12272727272727273,79,0,13,_Guitar,-1,-1
60,100,0.6,154,0,13,_Guitar,-1,-1
60,100,0.11818181818181818,615,1,13,_Guitar,-1,-1
53,100,0.13636363636363635,831,1,13,_Guitar,-1,-1
46,100,0.1590909090909091,96,1,14,_Guitar,-1,-1
53,100,0.4590909090909091,166,0,14,_Guitar,-1,-1
60,100,0.12272727272727273,290,0,14,_Guitar,-1,-1
48,100,0.1,431,0,14,_Guitar,-1,-1
48,100,0.1590909090909091,470,0,14,_Guitar,-1,-1
60,100,0.1,567,0,14,_Guitar,-1,-1
60,100,0.11818181818181818,699,0,14,_Guitar,-1,-1
60,100,0.11818181818181818,766,0,14,_Guitar,-1,-1
48,100,0.1590909090909091,8,1,15,_Guitar,-1,-1
48,100,0.2818181818181818,135,0,15,_Guitar,-1,-1
48,100,0.2,206,0,15,_Guitar,-1,-1
60,100,0.2409090909090909,312,0,15,_Guitar,-1,-1
48,100,0.1409090909090909,364,0,15,_Guitar,-1,-1
60,100,0.1409090909090909,400,0,15,_Guitar,-1,-1
41,100,0.1,474,0,15,_Guitar,-1,-1
60,100,0.12272727272727273,496,0,15,_Guitar,-1,-1
41,100,0.13636363636363635,546,0,15,_Guitar,-1,-1
60,100,0.5590909090909091,615,0,15,_Guitar,-1,-1
41,100,0.1409090909090909,761,0,15,_Guitar,-1,-1
53,100,0.1409090909090909,792,0,15,_Guitar,-1,-1
53,100,0.2590909090909091,857,0,15,_Guitar,-1,-1
60,100,0.22272727272727272,100,1,16,_Guitar,-1,-1
48,100,0.2590909090909091,150,0,16,_Guitar,-1,-1
60,100,0.18181818181818182,233,0,16,_Guitar,-1,-1
53,100,0.21818181818181817,281,0,16,_Guitar,-1,-1
60,100,0.2590909090909091,351,0,16,_Guitar,-1,-1
41,100,0.11818181818181818,440,0,16,_Guitar,-1,-1
60,100,0.41818181818181815,550,0,16,_Guitar,-1,-1
60,100,0.1409090909090909,673,0,16,_Guitar,-1,-1
57,100,0.11818181818181818,721,0,16,_Guitar,-1,-1
60,100,0.35909090909090907,831,0,16,_Guitar,-1,-1
60,100,0.2409090909090909,119,1,17,_Guitar,-1,-1
57,100,1.1772727272727272,316,0,17,_Guitar,-1,-1
57,100,0.2409090909090909,650,1,17,_Guitar,-1,-1
57,100,0.4409090909090909,739,0,17,_Guitar,-1,-1
53,100,0.2,858,0,17,_Guitar,-1,-1
53,100,0.21818181818181817,30,1,18,_Guitar,-1,-1
58,100,0.4,175,0,18,_Guitar,-1,-1
58,100,0.38181818181818183,268,0,18,_Guitar,-1,-1
60,100,0.5409090909090909,615,1,18,_Guitar,-1,-1
60,100,0.21818181818181817,756,0,18,_Guitar,-1,-1
60,100,0.22272727272727272,233,1,19,_Guitar,-1,-1
55,100,0.18181818181818182,299,0,19,_Guitar,-1,-1
48,100,0.5,370,0,19,_Guitar,-1,-1
48,100,0.5363636363636364,501,0,19,_Guitar,-1,-1
48,100,0.2590909090909091,633,0,19,_Guitar,-1,-1
48,100,0.1,725,0,19,_Guitar,-1,-1
48,100,0.5772727272727273,787,0,19,_Guitar,-1,-1
48,100,0.2772727272727273,40,1,20,_Guitar,-1,-1
48,100,0.13636363636363635,127,0,20,_Guitar,-1,-1
48,100,0.3409090909090909,162,0,20,_Guitar,-1,-1
55,100,0.11818181818181818,281,0,20,_Guitar,-1,-1
60,100,0.2,378,0,20,_Guitar,-1,-1
60,100,0.3,430,0,20,_Guitar,-1,-1
53,100,0.11818181818181818,581,0,20,_Guitar,-1,-1
58,100,0.7818181818181819,619,0,20,_Guitar,-1,-1
53,100,0.2409090909090909,44,1,21,_Guitar,-1,-1
53,100,0.17727272727272728,119,0,21,_Guitar,-1,-1
60,100,0.6,206,0,21,_Guitar,-1,-1
58,100,0.3409090909090909,399,0,21,_Guitar,-1,-1
53,100,0.1590909090909091,546,0,21,_Guitar,-1,-1
60,100,0.1,646,0,21,_Guitar,-1,-1
41,100,0.12272727272727273,827,0,21,_Guitar,-1,-1
53,100,0.12272727272727273,13,1,22,_Guitar,-1,-1
41,100,0.13636363636363635,83,0,22,_Guitar,-1,-1
60,100,0.41818181818181815,119,0,22,_Guitar,-1,-1
60,100,0.12272727272727273,378,1,22,_Guitar,-1,-1
41,100,0.2409090909090909,405,0,22,_Guitar,-1,-1
60,100,0.2818181818181818,474,0,22,_Guitar,-1,-1
41,100,0.11818181818181818,581,0,22,_Guitar,-1,-1
53,100,0.2590909090909091,691,0,22,_Guitar,-1,-1
53,100,0.4409090909090909,752,0,22,_Guitar,-1,-1
41,100,0.1,866,0,22,_Guitar,-1,-1
41,100,0.18181818181818182,48,1,23,_Guitar,-1,-1
53,100,0.17727272727272728,96,0,23,_Guitar,-1,-1
60,100,0.7181818181818181,602,1,23,_Guitar,-1,-1
57,100,0.2590909090909091,791,0,23,_Guitar,-1,-1
57,100,0.21818181818181817,9,1,24,_Guitar,-1,-1
45,100,0.16363636363636364,69,0,24,_Guitar,-1,-1
57,100,0.11818181818181818,131,0,24,_Guitar,-1,-1
57,100,0.2,343,1,24,_Guitar,-1,-1
60,100,0.11818181818181818,492,0,24,_Guitar,-1,-1
57,100,0.3,598,0,24,_Guitar,-1,-1
57,100,0.8636363636363636,796,1,24,_Guitar,-1,-1
57,100,0.11818181818181818,110,1,25,_Guitar,-1,-1
50,100,0.21818181818181817,229,0,25,_Guitar,-1,-1
62,100,0.2,422,0,25,_Guitar,-1,-1
53,100,0.2409090909090909,563,0,25,_Guitar,-1,-1
60,100,0.2818181818181818,663,0,25,_Guitar,-1,-1
60,100,0.2,787,0,25,_Guitar,-1,-1
53,100,0.18181818181818182,839,0,25,_Guitar,-1,-1
53,100,0.22272727272727272,34,1,26,_Guitar,-1,-1
58,100,0.7181818181818181,229,0,26,_Guitar,-1,-1
58,100,0.2818181818181818,395,0,26,_Guitar,-1,-1
58,100,0.1409090909090909,466,0,26,_Guitar,-1,-1
58,100,0.1,567,0,26,_Guitar,-1,-1
58,100,0.11818181818181818,0,1,27,_Guitar,-1,-1
58,100,0.6818181818181818,34,0,27,_Guitar,-1,-1
58,100,0.7,413,1,27,_Guitar,-1,-1
50,100,0.12272727272727273,629,1,27,_Guitar,-1,-1
48,100,0.32272727272727275,356,1,28,_Guitar,-1,-1
55,100,0.37727272727272726,480,0,28,_Guitar,-1,-1
55,100,0.9,625,0,28,_Guitar,-1,-1
48,100,0.5181818181818182,40,1,29,_Guitar,-1,-1
55,100,0.41818181818181815,154,0,29,_Guitar,-1,-1
60,100,0.11818181818181818,264,0,29,_Guitar,-1,-1
48,100,0.5409090909090909,299,0,29,_Guitar,-1,-1
48,100,0.4,553,1,29,_Guitar,-1,-1
41,100,0.13636363636363635,743,0,29,_Guitar,-1,-1
60,100,0.3409090909090909,773,0,29,_Guitar,-1,-1
41,100,0.23636363636363636,876,0,29,_Guitar,-1,-1
60,100,0.4409090909090909,92,1,30,_Guitar,-1,-1
48,100,0.1409090909090909,443,1,30,_Guitar,-1,-1
48,100,0.2818181818181818,484,0,30,_Guitar,-1,-1
60,100,0.33636363636363636,546,0,30,_Guitar,-1,-1
53,100,0.2590909090909091,673,0,30,_Guitar,-1,-1
50,100,0.6409090909090909,739,0,30,_Guitar,-1,-1
60,100,0.37727272727272726,326,1,31,_Guitar,-1,-1
60,100,0.759090909090909,449,0,31,_Guitar,-1,-1
53,100,0.18181818181818182,858,1,31,_Guitar,-1,-1
46,100,0.11818181818181818,96,1,32,_Guitar,-1,-1
58,100,0.2818181818181818,254,0,32,_Guitar,-1,-1
60,100,0.38181818181818183,334,0,32,_Guitar,-1,-1
58,100,0.17727272727272728,448,0,32,_Guitar,-1,-1
58,100,0.1409090909090909,493,0,32,_Guitar,-1,-1
53,100,0.2818181818181818,716,1,32,_Guitar,-1,-1
48,100,0.1,801,0,32,_Guitar,-1,-1
60,100,0.1409090909090909,823,0,32,_Guitar,-1,-1
53,100,0.22272727272727272,871,0,32,_Guitar,-1,-1
60,100,0.1409090909090909,188,1,33,_Guitar,-1,-1
50,100,0.5181818181818182,348,0,33,_Guitar,-1,-1
60,100,0.2590909090909091,826,1,33,_Guitar,-1,-1
55,100,0.21818181818181817,215,1,34,_Guitar,-1,-1
48,100,0.1409090909090909,334,0,34,_Guitar,-1,-1
41,100,0.21818181818181817,435,0,34,_Guitar,-1,-1
60,100,0.6227272727272727,563,0,34,_Guitar,-1,-1
53,100,0.17727272727272728,721,0,34,_Guitar,-1,-1
41,100,0.2409090909090909,26,1,35,_Guitar,-1,-1
60,100,0.11818181818181818,153,0,35,_Guitar,-1,-1
41,100,0.11818181818181818,678,1,35,_Guitar,-1,-1
60,100,0.1590909090909091,810,0,35,_Guitar,-1,-1
60,100,0.4818181818181818,298,1,36,_Guitar,-1,-1
53,100,0.1590909090909091,474,0,36,_Guitar,-1,-1
60,100,0.5227272727272727,554,0,36,_Guitar,-1,-1
60,100,0.3181818181818182,823,1,36,_Guitar,-1,-1
60,100,0.17727272727272728,18,1,37,_Guitar,-1,-1
53,100,0.2409090909090909,286,1,37,_Guitar,-1,-1
53,100,0.1590909090909091,493,1,37,_Guitar,-1,-1
60,100,0.1409090909090909,668,0,37,_Guitar,-1,-1
53,100,0.1590909090909091,21,1,38,_Guitar,-1,-1
53,100,0.1409090909090909,444,1,38,_Guitar,-1,-1
53,100,0.2590909090909091,716,1,38,_Guitar,-1,-1
41,100,0.18181818181818182,791,0,38,_Guitar,-1,-1
53,100,0.16363636363636364,861,0,38,_Guitar,-1,-1
53,100,0.2818181818181818,34,1,39,_Guitar,-1,-1
60,100,0.21818181818181817,131,0,39,_Guitar,-1,-1
60,100,0.22272727272727272,431,1,39,_Guitar,-1,-1
50,100,0.1409090909090909,536,0,39,_Guitar,-1,-1
50,100,0.21818181818181817,625,0,39,_Guitar,-1,-1
60,100,0.3,69,1,40,_Guitar,-1,-1
58,100,0.1409090909090909,356,1,40,_Guitar,-1,-1
53,100,0.2409090909090909,708,1,40,_Guitar,-1,-1
58,100,0.36363636363636365,26,1,41,_Guitar,-1,-1
46,100,0.12272727272727273,268,1,41,_Guitar,-1,-1
58,100,0.35909090909090907,303,0,41,_Guitar,-1,-1
53,100,0.3181818181818182,506,1,41,_Guitar,-1,-1
60,100,0.11818181818181818,581,0,41,_Guitar,-1,-1
57,100,0.2409090909090909,735,0,41,_Guitar,-1,-1
45,100,0.17727272727272728,810,0,41,_Guitar,-1,-1
43,100,0.5818181818181818,131,1,42,_Guitar,-1,-1
43,100,0.2,638,1,42,_Guitar,-1,-1
43,100,0.1409090909090909,26,1,43,_Guitar,-1,-1
48,100,0.21818181818181817,96,0,43,_Guitar,-1,-1
53,100,0.1409090909090909,351,1,43,_Guitar,-1,-1
41,100,0.11818181818181818,523,0,43,_Guitar,-1,-1
53,100,0.17727272727272728,611,0,43,_Guitar,-1,-1
41,100,0.11818181818181818,726,0,43,_Guitar,-1,-1
53,100,0.11818181818181818,770,0,43,_Guitar,-1,-1
41,100,0.1409090909090909,796,0,43,_Guitar,-1,-1
60,100,0.1,826,0,43,_Guitar,-1,-1
41,100,0.2,853,0,43,_Guitar,-1,-1
53,100,0.3181818181818182,96,1,44,_Guitar,-1,-1
60,100,0.3409090909090909,166,0,44,_Guitar,-1,-1
48,100,0.1590909090909091,241,0,44,_Guitar,-1,-1
48,100,0.3409090909090909,338,0,44,_Guitar,-1,-1
60,100,0.3409090909090909,444,0,44,_Guitar,-1,-1
50,100,0.21818181818181817,801,1,44,_Guitar,-1,-1
43,100,0.2,289,1,45,_Guitar,-1,-1
41,100,0.12272727272727273,364,0,45,_Guitar,-1,-1
53,100,0.11818181818181818,480,0,45,_Guitar,-1,-1
46,100,0.2772727272727273,823,1,45,_Guitar,-1,-1
53,100,0.3181818181818182,88,1,46,_Guitar,-1,-1
62,100,0.18181818181818182,373,1,46,_Guitar,-1,-1
43,100,0.1,531,0,46,_Guitar,-1,-1
46,100,0.6590909090909091,783,1,46,_Guitar,-1,-1
46,100,0.32272727272727275,78,1,47,_Guitar,-1,-1
60,100,0.8,166,0,47,_Guitar,-1,-1
48,100,0.5409090909090909,343,0,47,_Guitar,-1,-1
48,100,0.2636363636363636,509,0,47,_Guitar,-1,-1
48,100,0.4409090909090909,616,0,47,_Guitar,-1,-1
48,100,0.6227272727272727,78,1,48,_Guitar,-1,-1
60,100,0.18181818181818182,254,0,48,_Guitar,-1,-1
58,100,0.2,418,0,48,_Guitar,-1,-1
58,100,0.18181818181818182,509,0,48,_Guitar,-1,-1
46,100,0.5818181818181818,804,1,48,_Guitar,-1,-1
60,100,0.3409090909090909,53,1,49,_Guitar,-1,-1
46,100,0.7636363636363637,136,0,49,_Guitar,-1,-1
46,100,0.8181818181818182,308,0,49,_Guitar,-1,-1
46,100,0.1409090909090909,493,0,49,_Guitar,-1,-1
57,100,0.9590909090909091,633,0,49,_Guitar,-1,-1
60,100,0.3409090909090909,91,1,50,_Guitar,-1,-1
57,100,1.1818181818181819,188,0,50,_Guitar,-1,-1
57,100,0.2818181818181818,453,1,50,_Guitar,-1,-1
57,100,0.18181818181818182,528,0,50,_Guitar,-1,-1
57,100,0.5772727272727273,590,0,50,_Guitar,-1,-1
60,100,0.6,721,0,50,_Guitar,-1,-1
48,100,0.9181818181818182,866,0,50,_Guitar,-1,-1
60,100,0.1409090909090909,246,1,51,_Guitar,-1,-1
60,100,0.2409090909090909,334,0,51,_Guitar,-1,-1
53,100,0.4590909090909091,396,0,51,_Guitar,-1,-1
60,100,1.2636363636363637,531,0,51,_Guitar,-1,-1
57,100,0.8,853,1,51,_Guitar,-1,-1
62,100,0.7818181818181819,651,1,52,_Guitar,-1,-1
57,100,0.16363636363636364,48,1,53,_Guitar,-1,-1
48,100,0.2,188,0,53,_Guitar,-1,-1
60,100,0.5,268,0,53,_Guitar,-1,-1
46,100,0.1590909090909091,483,1,53,_Guitar,-1,-1
60,100,0.2590909090909091,523,0,53,_Guitar,-1,-1
46,100,0.3,590,0,53,_Guitar,-1,-1
53,100,0.1590909090909091,655,0,53,_Guitar,-1,-1
46,100,0.11818181818181818,713,0,53,_Guitar,-1,-1
46,100,0.4409090909090909,751,0,53,_Guitar,-1,-1
53,100,0.1590909090909091,43,1,54,_Guitar,-1,-1
58,100,0.6,179,0,54,_Guitar,-1,-1
53,100,0.2,515,1,54,_Guitar,-1,-1
41,100,0.1590909090909091,18,1,55,_Guitar,-1,-1
53,100,0.1409090909090909,75,0,55,_Guitar,-1,-1
53,100,0.35909090909090907,110,0,55,_Guitar,-1,-1
53,100,0.3181818181818182,206,0,55,_Guitar,-1,-1
60,100,0.3181818181818182,281,0,55,_Guitar,-1,-1
60,100,0.5181818181818182,506,1,55,_Guitar,-1,-1
60,100,0.3181818181818182,713,1,55,_Guitar,-1,-1
60,100,0.3181818181818182,831,0,55,_Guitar,-1,-1
50,100,0.2,53,1,56,_Guitar,-1,-1
62,100,0.21818181818181817,176,0,56,_Guitar,-1,-1
60,100,0.6772727272727272,281,0,56,_Guitar,-1,-1
53,100,0.21818181818181817,448,0,56,_Guitar,-1,-1
57,100,0.2772727272727273,590,0,56,_Guitar,-1,-1
60,100,0.9818181818181818,703,0,56,_Guitar,-1,-1
60,100,0.6,118,1,57,_Guitar,-1,-1
46,100,0.8818181818181818,268,0,57,_Guitar,-1,-1
46,100,0.2818181818181818,593,1,57,_Guitar,-1,-1
58,100,0.33636363636363636,655,0,57,_Guitar,-1,-1
60,100,0.1590909090909091,765,0,57,_Guitar,-1,-1
53,100,0.3181818181818182,810,0,57,_Guitar,-1,-1
60,100,0.2818181818181818,4,1,58,_Guitar,-1,-1
53,100,0.4818181818181818,78,0,58,_Guitar,-1,-1
53,100,0.13636363636363635,215,0,58,_Guitar,-1,-1
53,100,0.12272727272727273,298,0,58,_Guitar,-1,-1
60,100,0.18181818181818182,378,0,58,_Guitar,-1,-1
60,100,0.9181818181818182,105,1,59,_Guitar,-1,-1
55,100,0.1,361,1,59,_Guitar,-1,-1
60,100,0.22272727272727272,619,1,59,_Guitar,-1,-1
60,100,0.1409090909090909,694,0,59,_Guitar,-1,-1
60,100,0.8,748,0,59,_Guitar,-1,-1
53,100,0.2,43,1,60,_Guitar,-1,-1
60,100,0.5409090909090909,141,0,60,_Guitar,-1,-1
41,100,0.2,263,0,60,_Guitar,-1,-1
60,100,1.3590909090909091,308,0,60,_Guitar,-1,-1
60,100,0.4409090909090909,726,1,60,_Guitar,-1,-1
50,100,0.2,101,1,61,_Guitar,-1,-1
60,100,0.35909090909090907,263,0,61,_Guitar,-1,-1
62,100,0.35909090909090907,351,0,61,_Guitar,-1,-1
50,100,0.32272727272727275,431,0,61,_Guitar,-1,-1
60,100,0.6590909090909091,703,1,61,_Guitar,-1,-1
45,100,0.11818181818181818,96,1,62,_Guitar,-1,-1
60,100,0.6181818181818182,171,0,62,_Guitar,-1,-1
58,100,0.1590909090909091,405,1,62,_Guitar,-1,-1
60,100,0.5,461,0,62,_Guitar,-1,-1
58,100,0.13636363636363635,678,1,62,_Guitar,-1,-1
60,100,1.0227272727272727,774,0,62,_Guitar,-1,-1
60,100,0.2818181818181818,289,1,63,_Guitar,-1,-1
60,100,0.22272727272727272,444,0,63,_Guitar,-1,-1
58,100,0.5409090909090909,563,0,63,_Guitar,-1,-1
46,100,0.3,681,0,63,_Guitar,-1,-1
60,100,0.5,818,0,63,_Guitar,-1,-1
46,100,0.2,92,1,64,_Guitar,-1,-1
46,100,0.3409090909090909,273,0,64,_Guitar,-1,-1
58,100,0.5227272727272727,430,0,64,_Guitar,-1,-1
60,100,0.36363636363636365,553,0,64,_Guitar,-1,-1
60,100,0.1,870,1,64,_Guitar,-1,-1
57,100,0.3181818181818182,163,1,65,_Guitar,-1,-1
45,100,0.35909090909090907,286,0,65,_Guitar,-1,-1
41,100,0.12272727272727273,597,1,65,_Guitar,-1,-1
60,100,0.5227272727272727,629,0,65,_Guitar,-1,-1
53,100,0.12272727272727273,870,1,65,_Guitar,-1,-1
60,100,0.1590909090909091,79,1,66,_Guitar,-1,-1
58,100,0.8,136,0,66,_Guitar,-1,-1
58,100,0.2409090909090909,316,0,66,_Guitar,-1,-1
58,100,0.12272727272727273,650,1,66,_Guitar,-1,-1
58,100,0.2,157,1,67,_Guitar,-1,-1
53,100,0.1409090909090909,286,0,67,_Guitar,-1,-1
57,100,0.33636363636363636,392,0,67,_Guitar,-1,-1
53,100,0.3181818181818182,493,0,67,_Guitar,-1,-1
53,100,0.18181818181818182,585,0,67,_Guitar,-1,-1
60,100,0.5,650,0,67,_Guitar,-1,-1
60,100,1.1409090909090909,770,0,67,_Guitar,-1,-1
60,100,0.1409090909090909,233,1,68,_Guitar,-1,-1
60,100,0.4772727272727273,392,0,68,_Guitar,-1,-1
60,100,0.35909090909090907,233,1,69,_Guitar,-1,-1
46,100,0.22272727272727272,333,0,69,_Guitar,-1,-1
53,100,0.2409090909090909,399,0,69,_Guitar,-1,-1
60,100,0.18181818181818182,487,0,69,_Guitar,-1,-1
60,100,0.12272727272727273,673,0,69,_Guitar,-1,-1
60,100,0.1590909090909091,713,0,69,_Guitar,-1,-1
53,100,0.1590909090909091,756,0,69,_Guitar,-1,-1
53,100,0.12272727272727273,826,0,69,_Guitar,-1,-1
57,100,0.37727272727272726,853,0,69,_Guitar,-1,-1
60,100,0.2,166,1,70,_Guitar,-1,-1
60,100,0.21818181818181817,273,0,70,_Guitar,-1,-1
53,100,0.12272727272727273,356,0,70,_Guitar,-1,-1
57,100,0.1,550,0,70,_Guitar,-1,-1
53,100,0.1,633,0,70,_Guitar,-1,-1
53,100,0.16363636363636364,663,0,70,_Guitar,-1,-1
60,100,0.2,826,0,70,_Guitar,-1,-1
53,100,0.2409090909090909,35,1,71,_Guitar,-1,-1
58,100,0.1,184,0,71,_Guitar,-1,-1
58,100,1.0227272727272727,210,0,71,_Guitar,-1,-1
60,100,0.2590909090909091,519,1,71,_Guitar,-1,-1
60,100,0.3,734,1,71,_Guitar,-1,-1
60,100,0.8181818181818182,844,0,71,_Guitar,-1,-1
60,100,0.12272727272727273,157,1,72,_Guitar,-1,-1
45,100,0.12272727272727273,223,0,72,_Guitar,-1,-1
53,100,0.12272727272727273,276,0,72,_Guitar,-1,-1
53,100,0.12272727272727273,399,0,72,_Guitar,-1,-1
46,100,0.5409090909090909,493,0,72,_Guitar,-1,-1
46,100,0.2590909090909091,616,0,72,_Guitar,-1,-1
46,100,0.18181818181818182,770,0,72,_Guitar,-1,-1
46,100,0.2,22,1,73,_Guitar,-1,-1
46,100,0.3409090909090909,69,0,73,_Guitar,-1,-1
46,100,0.11818181818181818,176,0,73,_Guitar,-1,-1
53,100,0.2590909090909091,210,0,73,_Guitar,-1,-1
60,100,0.21818181818181817,303,0,73,_Guitar,-1,-1
53,100,0.18181818181818182,487,0,73,_Guitar,-1,-1
48,100,0.6,633,0,73,_Guitar,-1,-1
55,100,0.37727272727272726,832,1,73,_Guitar,-1,-1
60,100,0.4590909090909091,56,1,74,_Guitar,-1,-1
64,100,0.17727272727272728,392,1,74,_Guitar,-1,-1
48,100,1.7,466,0,74,_Guitar,-1,-1
41,100,0.2818181818181818,857,1,74,_Guitar,-1,-1
60,100,0.4772727272727273,40,1,75,_Guitar,-1,-1
41,100,0.5363636363636364,172,0,75,_Guitar,-1,-1
60,100,0.9590909090909091,299,0,75,_Guitar,-1,-1
53,100,0.1409090909090909,550,1,75,_Guitar,-1,-1
60,100,1.6409090909090909,682,0,75,_Guitar,-1,-1
46,100,0.6,352,1,76,_Guitar,-1,-1
46,100,0.2636363636363636,487,0,76,_Guitar,-1,-1
46,100,0.5,559,0,76,_Guitar,-1,-1
60,100,0.8590909090909091,96,1,77,_Guitar,-1,-1
53,100,0.12272727272727273,443,1,77,_Guitar,-1,-1
58,100,0.13636363636363635,480,0,77,_Guitar,-1,-1
58,100,1.3590909090909091,563,0,77,_Guitar,-1,-1
58,100,0.1409090909090909,22,1,78,_Guitar,-1,-1
43,100,0.2409090909090909,66,0,78,_Guitar,-1,-1
55,100,0.1,263,0,78,_Guitar,-1,-1
55,100,0.1,289,0,78,_Guitar,-1,-1
60,100,0.5590909090909091,493,1,78,_Guitar,-1,-1
60,100,2.2590909090909093,677,0,78,_Guitar,-1,-1
60,100,0.8636363636363636,356,1,79,_Guitar,-1,-1
48,100,0.7,593,1,79,_Guitar,-1,-1
48,100,0.2818181818181818,752,0,79,_Guitar,-1,-1
60,100,0.1,123,1,80,_Guitar,-1,-1
48,100,1.8818181818181818,157,0,80,_Guitar,-1,-1
48,100,2.340909090909091,576,1,80,_Guitar,-1,-1
41,100,0.5590909090909091,263,1,81,_Guitar,-1,-1
60,100,0.38181818181818183,386,0,81,_Guitar,-1,-1
41,100,0.21818181818181817,470,0,81,_Guitar,-1,-1
60,100,0.5227272727272727,519,0,81,_Guitar,-1,-1
41,100,0.1590909090909091,633,0,81,_Guitar,-1,-1
60,100,0.6772727272727272,669,0,81,_Guitar,-1,-1
60,100,0.9409090909090909,3,1,82,_Guitar,-1,-1
62,100,0.5,493,1,82,_Guitar,-1,-1
60,100,1.1818181818181819,637,0,82,_Guitar,-1,-1
53,100,0.2,26,1,83,_Guitar,-1,-1
60,100,0.8409090909090909,229,1,83,_Guitar,-1,-1
53,100,0.1,466,1,83,_Guitar,-1,-1
53,100,0.22272727272727272,716,1,83,_Guitar,-1,-1
60,100,0.35909090909090907,783,0,83,_Guitar,-1,-1
58,100,0.13636363636363635,40,1,84,_Guitar,-1,-1
60,100,0.2409090909090909,189,0,84,_Guitar,-1,-1
53,100,0.11818181818181818,326,0,84,_Guitar,-1,-1
60,100,0.9409090909090909,466,0,84,_Guitar,-1,-1
60,100,0.6,677,1,84,_Guitar,-1,-1
58,100,0.1,184,1,85,_Guitar,-1,-1
62,100,0.2409090909090909,220,0,85,_Guitar,-1,-1
58,100,0.6181818181818182,370,0,85,_Guitar,-1,-1
58,100,0.5636363636363636,509,0,85,_Guitar,-1,-1
64,100,0.22272727272727272,642,0,85,_Guitar,-1,-1
60,100,0.5818181818181818,695,0,85,_Guitar,-1,-1
48,100,0.1409090909090909,136,1,86,_Guitar,-1,-1
53,100,0.35909090909090907,237,0,86,_Guitar,-1,-1
41,100,0.2590909090909091,316,0,86,_Guitar,-1,-1
60,100,0.6181818181818182,373,0,86,_Guitar,-1,-1
41,100,0.1409090909090909,514,0,86,_Guitar,-1,-1
41,100,0.2818181818181818,726,1,86,_Guitar,-1,-1
60,100,0.18181818181818182,839,0,86,_Guitar,-1,-1
48,100,0.3,43,1,87,_Guitar,-1,-1
64,100,0.35909090909090907,386,1,87,_Guitar,-1,-1
60,100,0.17727272727272728,493,0,87,_Guitar,-1,-1
57,100,0.1590909090909091,612,0,87,_Guitar,-1,-1
60,100,0.2818181818181818,686,0,87,_Guitar,-1,-1
41,100,0.1409090909090909,752,0,87,_Guitar,-1,-1
50,100,0.12272727272727273,13,1,88,_Guitar,-1,-1
53,100,0.2,66,0,88,_Guitar,-1,-1
53,100,0.37727272727272726,347,1,88,_Guitar,-1,-1
60,100,0.21818181818181817,703,1,88,_Guitar,-1,-1
53,100,0.11818181818181818,766,0,88,_Guitar,-1,-1
60,100,0.17727272727272728,40,1,89,_Guitar,-1,-1
60,100,0.4772727272727273,193,0,89,_Guitar,-1,-1
58,100,0.1590909090909091,303,0,89,_Guitar,-1,-1
60,100,0.2409090909090909,409,0,89,_Guitar,-1,-1
64,100,0.11818181818181818,677,1,89,_Guitar,-1,-1
48,100,0.23636363636363636,810,0,89,_Guitar,-1,-1
53,100,0.5,294,1,90,_Guitar,-1,-1
60,100,0.2409090909090909,593,1,90,_Guitar,-1,-1
60,100,0.1,686,0,90,_Guitar,-1,-1
55,100,0.2,743,0,90,_Guitar,-1,-1
60,100,0.18181818181818182,813,0,90,_Guitar,-1,-1
60,100,0.42272727272727273,113,1,91,_Guitar,-1,-1
55,100,0.2818181818181818,276,0,91,_Guitar,-1,-1
58,100,0.2590909090909091,360,0,91,_Guitar,-1,-1
53,100,0.1590909090909091,409,1,92,_Guitar,-1,-1
60,100,0.1409090909090909,616,1,92,_Guitar,-1,-1
53,100,0.38181818181818183,760,0,92,_Guitar,-1,-1
53,100,0.18181818181818182,136,1,93,_Guitar,-1,-1
60,100,0.32272727272727275,179,0,93,_Guitar,-1,-1
60,100,0.2409090909090909,267,0,93,_Guitar,-1,-1
60,100,0.3181818181818182,396,0,93,_Guitar,-1,-1
60,100,0.6409090909090909,532,0,93,_Guitar,-1,-1
60,100,0.1409090909090909,726,0,93,_Guitar,-1,-1
55,100,0.21818181818181817,756,0,93,_Guitar,-1,-1
60,100,0.11818181818181818,22,1,94,_Guitar,-1,-1
58,100,0.4,113,0,94,_Guitar,-1,-1
57,100,0.2,436,1,94,_Guitar,-1,-1
57,100,0.13636363636363635,656,1,94,_Guitar,-1,-1
53,100,0.18181818181818182,462,1,95,_Guitar,-1,-1
53,100,0.22272727272727272,585,0,95,_Guitar,-1,-1
60,100,0.21818181818181817,660,0,95,_Guitar,-1,-1
60,100,0.6181818181818182,787,0,95,_Guitar,-1,-1
60,100,0.4,172,1,96,_Guitar,-1,-1
48,100,0.1,282,0,96,_Guitar,-1,-1
53,100,0.12272727272727273,409,0,96,_Guitar,-1,-1
57,100,1.5818181818181818,673,1,96,_Guitar,-1,-1
53,100,0.5590909090909091,343,1,97,_Guitar,-1,-1
41,100,0.12272727272727273,540,0,97,_Guitar,-1,-1
57,100,0.2409090909090909,739,1,97,_Guitar,-1,-1
41,100,0.3409090909090909,839,0,97,_Guitar,-1,-1
41,100,0.12272727272727273,157,1,98,_Guitar,-1,-1
41,100,0.38181818181818183,210,0,98,_Guitar,-1,-1
57,100,0.33636363636363636,347,0,98,_Guitar,-1,-1
44,100,0.2,607,1,0,DL_Guitar,-1,-1
56,100,0.18181818181818182,651,0,0,DL_Guitar,-1,-1
44,100,0.2,752,0,0,DL_Guitar,-1,-1
61,100,0.9,655,1,1,DL_Guitar,-1,-1
43,100,0.2,497,1,2,DL_Guitar,-1,-1
43,100,0.33636363636363636,546,0,2,DL_Guitar,-1,-1
43,100,0.1590909090909091,678,0,2,DL_Guitar,-1,-1
49,100,0.6,436,1,3,DL_Guitar,-1,-1
49,100,0.13636363636363635,788,1,3,DL_Guitar,-1,-1
63,100,0.41818181818181815,140,1,5,DL_Guitar,-1,-1
56,100,0.1409090909090909,541,1,5,DL_Guitar,-1,-1
56,100,0.38181818181818183,575,0,5,DL_Guitar,-1,-1
56,100,0.3181818181818182,721,0,5,DL_Guitar,-1,-1
44,100,0.1590909090909091,66,1,6,DL_Guitar,-1,-1
63,100,0.3409090909090909,153,0,6,DL_Guitar,-1,-1
63,100,0.1409090909090909,311,0,6,DL_Guitar,-1,-1
60,100,0.1590909090909091,386,0,6,DL_Guitar,-1,-1
53,100,0.42272727272727273,695,1,6,DL_Guitar,-1,-1
53,100,0.23636363636363636,810,0,6,DL_Guitar,-1,-1
63,100,0.2772727272727273,325,1,7,DL_Guitar,-1,-1
44,100,0.1,399,0,7,DL_Guitar,-1,-1
51,100,0.6,431,0,7,DL_Guitar,-1,-1
51,100,0.23636363636363636,568,0,7,DL_Guitar,-1,-1
51,100,0.2,713,0,7,DL_Guitar,-1,-1
51,100,0.18181818181818182,774,0,7,DL_Guitar,-1,-1
63,100,0.6,818,0,7,DL_Guitar,-1,-1
63,100,0.32272727272727275,321,1,8,DL_Guitar,-1,-1
63,100,0.17727272727272728,426,0,8,DL_Guitar,-1,-1
53,100,0.12272727272727273,795,1,8,DL_Guitar,-1,-1
48,100,0.35909090909090907,386,1,9,DL_Guitar,-1,-1
48,100,0.2409090909090909,493,0,9,DL_Guitar,-1,-1
63,100,0.2636363636363636,862,1,9,DL_Guitar,-1,-1
56,100,0.1590909090909091,364,1,10,DL_Guitar,-1,-1
51,100,0.2636363636363636,400,0,10,DL_Guitar,-1,-1
56,100,0.13636363636363635,457,0,10,DL_Guitar,-1,-1
56,100,0.740909090909091,527,0,10,DL_Guitar,-1,-1
56,100,0.5590909090909091,716,0,10,DL_Guitar,-1,-1
63,100,0.11818181818181818,110,1,11,DL_Guitar,-1,-1
56,100,0.2409090909090909,250,0,11,DL_Guitar,-1,-1
63,100,0.22272727272727272,443,0,11,DL_Guitar,-1,-1
63,100,0.1,691,1,11,DL_Guitar,-1,-1
63,100,0.3,876,0,11,DL_Guitar,-1,-1
56,100,0.22272727272727272,70,1,12,DL_Guitar,-1,-1
63,100,0.1,144,0,12,DL_Guitar,-1,-1
63,100,0.2,273,0,12,DL_Guitar,-1,-1
56,100,0.2818181818181818,378,0,12,DL_Guitar,-1,-1
51,100,0.32272727272727275,465,0,12,DL_Guitar,-1,-1
63,100,0.3,598,0,12,DL_Guitar,-1,-1
51,100,0.3409090909090909,795,0,12,DL_Guitar,-1,-1
44,100,0.1,127,1,13,DL_Guitar,-1,-1
63,100,0.23636363636363636,149,0,13,DL_Guitar,-1,-1
63,100,0.1409090909090909,333,0,13,DL_Guitar,-1,-1
56,100,0.17727272727272728,436,0,13,DL_Guitar,-1,-1
49,100,0.16363636363636364,553,0,13,DL_Guitar,-1,-1
63,100,0.8,660,0,13,DL_Guitar,-1,-1
51,100,0.1590909090909091,22,1,14,DL_Guitar,-1,-1
63,100,1.6590909090909092,56,0,14,DL_Guitar,-1,-1
63,100,0.3409090909090909,488,1,14,DL_Guitar,-1,-1
56,100,0.22272727272727272,685,0,14,DL_Guitar,-1,-1
51,100,0.12272727272727273,761,0,14,DL_Guitar,-1,-1
63,100,0.42272727272727273,849,0,14,DL_Guitar,-1,-1
44,100,0.33636363636363636,61,1,15,DL_Guitar,-1,-1
63,100,0.2409090909090909,140,0,15,DL_Guitar,-1,-1
44,100,0.17727272727272728,194,0,15,DL_Guitar,-1,-1
44,100,0.21818181818181817,304,0,15,DL_Guitar,-1,-1
63,100,0.22272727272727272,355,0,15,DL_Guitar,-1,-1
44,100,0.1590909090909091,405,0,15,DL_Guitar,-1,-1
44,100,0.2,453,0,15,DL_Guitar,-1,-1
49,100,0.5590909090909091,584,0,15,DL_Guitar,-1,-1
49,100,0.5,716,0,15,DL_Guitar,-1,-1
63,100,0.1,835,0,15,DL_Guitar,-1,-1
56,100,0.1590909090909091,13,1,16,DL_Guitar,-1,-1
63,100,0.6227272727272727,69,0,16,DL_Guitar,-1,-1
63,100,0.18181818181818182,210,0,16,DL_Guitar,-1,-1
63,100,0.1409090909090909,308,0,16,DL_Guitar,-1,-1
51,100,0.17727272727272728,339,0,16,DL_Guitar,-1,-1
63,100,0.16363636363636364,378,0,16,DL_Guitar,-1,-1
63,100,0.4772727272727273,449,0,16,DL_Guitar,-1,-1
63,100,0.36363636363636365,576,0,16,DL_Guitar,-1,-1
56,100,0.2,660,0,16,DL_Guitar,-1,-1
63,100,0.41818181818181815,725,0,16,DL_Guitar,-1,-1
63,100,0.1409090909090909,822,0,16,DL_Guitar,-1,-1
63,100,0.5409090909090909,21,1,17,DL_Guitar,-1,-1
63,100,0.3409090909090909,206,0,17,DL_Guitar,-1,-1
53,100,0.1590909090909091,480,1,17,DL_Guitar,-1,-1
53,100,0.3,532,0,17,DL_Guitar,-1,-1
52,100,0.3,611,0,17,DL_Guitar,-1,-1
52,100,0.2590909090909091,681,0,17,DL_Guitar,-1,-1
53,100,0.2409090909090909,119,1,18,DL_Guitar,-1,-1
63,100,0.2409090909090909,356,1,18,DL_Guitar,-1,-1
63,100,0.23636363636363636,436,0,18,DL_Guitar,-1,-1
63,100,0.22272727272727272,497,0,18,DL_Guitar,-1,-1
63,100,0.7,625,0,18,DL_Guitar,-1,-1
56,100,0.35909090909090907,804,0,18,DL_Guitar,-1,-1
63,100,0.5181818181818182,21,1,19,DL_Guitar,-1,-1
51,100,0.23636363636363636,171,0,19,DL_Guitar,-1,-1
63,100,0.3181818181818182,370,1,19,DL_Guitar,-1,-1
56,100,0.18181818181818182,453,0,19,DL_Guitar,-1,-1
56,100,0.2590909090909091,501,0,19,DL_Guitar,-1,-1
56,100,0.2636363636363636,576,0,19,DL_Guitar,-1,-1
44,100,0.2,638,0,19,DL_Guitar,-1,-1
63,100,0.7818181818181819,791,0,19,DL_Guitar,-1,-1
56,100,0.7818181818181819,88,1,20,DL_Guitar,-1,-1
63,100,0.2409090909090909,272,0,20,DL_Guitar,-1,-1
63,100,0.41818181818181815,449,0,20,DL_Guitar,-1,-1
49,100,0.18181818181818182,642,0,20,DL_Guitar,-1,-1
51,100,0.6227272727272727,783,0,20,DL_Guitar,-1,-1
56,100,0.23636363636363636,40,1,21,DL_Guitar,-1,-1
63,100,0.2590909090909091,106,0,21,DL_Guitar,-1,-1
51,100,0.42272727272727273,223,0,21,DL_Guitar,-1,-1
63,100,0.22272727272727272,422,1,21,DL_Guitar,-1,-1
63,100,0.1409090909090909,550,0,21,DL_Guitar,-1,-1
63,100,0.6181818181818182,700,0,21,DL_Guitar,-1,-1
60,100,0.1409090909090909,198,1,22,DL_Guitar,-1,-1
63,100,0.12272727272727273,246,0,22,DL_Guitar,-1,-1
63,100,0.1409090909090909,285,0,22,DL_Guitar,-1,-1
63,100,0.17727272727272728,326,0,22,DL_Guitar,-1,-1
53,100,0.17727272727272728,370,0,22,DL_Guitar,-1,-1
63,100,0.1,523,0,22,DL_Guitar,-1,-1
49,100,0.2818181818181818,694,0,22,DL_Guitar,-1,-1
63,100,0.1590909090909091,779,0,22,DL_Guitar,-1,-1
63,100,0.11818181818181818,845,0,22,DL_Guitar,-1,-1
49,100,0.21818181818181817,127,1,23,DL_Guitar,-1,-1
51,100,0.4,220,0,23,DL_Guitar,-1,-1
63,100,0.1409090909090909,308,0,23,DL_Guitar,-1,-1
51,100,0.4,339,0,23,DL_Guitar,-1,-1
63,100,0.3,581,1,23,DL_Guitar,-1,-1
56,100,0.1409090909090909,669,0,23,DL_Guitar,-1,-1
44,100,0.1409090909090909,725,0,23,DL_Guitar,-1,-1
56,100,0.1590909090909091,760,0,23,DL_Guitar,-1,-1
63,100,0.2,810,0,23,DL_Guitar,-1,-1
63,100,0.3,3,1,24,DL_Guitar,-1,-1
56,100,0.3409090909090909,79,0,24,DL_Guitar,-1,-1
60,100,0.1590909090909091,175,0,24,DL_Guitar,-1,-1
63,100,0.13636363636363635,391,1,24,DL_Guitar,-1,-1
60,100,0.8590909090909091,453,0,24,DL_Guitar,-1,-1
56,100,0.1409090909090909,717,1,24,DL_Guitar,-1,-1
56,100,0.2590909090909091,876,0,24,DL_Guitar,-1,-1
51,100,0.22272727272727272,123,1,25,DL_Guitar,-1,-1
63,100,0.3181818181818182,171,0,25,DL_Guitar,-1,-1
63,100,0.1,347,0,25,DL_Guitar,-1,-1
63,100,0.2818181818181818,378,0,25,DL_Guitar,-1,-1
63,100,0.2636363636363636,443,0,25,DL_Guitar,-1,-1
61,100,0.3181818181818182,735,1,25,DL_Guitar,-1,-1
63,100,0.4590909090909091,17,1,26,DL_Guitar,-1,-1
51,100,1.440909090909091,123,0,26,DL_Guitar,-1,-1
51,100,0.5181818181818182,505,1,26,DL_Guitar,-1,-1
56,100,0.32272727272727275,642,0,26,DL_Guitar,-1,-1
51,100,0.2818181818181818,3,1,27,DL_Guitar,-1,-1
63,100,0.2,88,0,27,DL_Guitar,-1,-1
51,100,0.1590909090909091,150,0,27,DL_Guitar,-1,-1
51,100,0.21818181818181817,198,0,27,DL_Guitar,-1,-1
60,100,0.2409090909090909,333,0,27,DL_Guitar,-1,-1
60,100,0.3,519,0,27,DL_Guitar,-1,-1
63,100,0.5181818181818182,611,0,27,DL_Guitar,-1,-1
63,100,0.1590909090909091,743,0,27,DL_Guitar,-1,-1
48,100,0.38181818181818183,814,0,27,DL_Guitar,-1,-1
48,100,0.2,154,1,28,DL_Guitar,-1,-1
63,100,0.3,216,0,28,DL_Guitar,-1,-1
63,100,0.17727272727272728,303,0,28,DL_Guitar,-1,-1
49,100,0.4772727272727273,405,0,28,DL_Guitar,-1,-1
49,100,0.2818181818181818,532,0,28,DL_Guitar,-1,-1
49,100,0.35909090909090907,669,0,28,DL_Guitar,-1,-1
63,100,0.1590909090909091,0,1,29,DL_Guitar,-1,-1
51,100,1.8409090909090908,88,0,29,DL_Guitar,-1,-1
49,100,0.12272727272727273,642,1,29,DL_Guitar,-1,-1
63,100,0.9181818181818182,743,0,29,DL_Guitar,-1,-1
56,100,0.3,83,1,30,DL_Guitar,-1,-1
56,100,0.1409090909090909,154,0,30,DL_Guitar,-1,-1
63,100,0.740909090909091,320,0,30,DL_Guitar,-1,-1
56,100,0.13636363636363635,523,1,30,DL_Guitar,-1,-1
63,100,0.17727272727272728,602,0,30,DL_Guitar,-1,-1
60,100,0.11818181818181818,691,0,30,DL_Guitar,-1,-1
48,100,0.18181818181818182,729,0,30,DL_Guitar,-1,-1
63,100,0.3409090909090909,783,0,30,DL_Guitar,-1,-1
63,100,0.3181818181818182,9,1,31,DL_Guitar,-1,-1
63,100,0.3,83,0,31,DL_Guitar,-1,-1
63,100,0.8227272727272728,189,0,31,DL_Guitar,-1,-1
63,100,1.1818181818181819,443,1,31,DL_Guitar,-1,-1
56,100,0.13636363636363635,721,1,31,DL_Guitar,-1,-1
63,100,0.36363636363636365,752,0,31,DL_Guitar,-1,-1
63,100,0.32272727272727275,26,1,32,DL_Guitar,-1,-1
63,100,0.4818181818181818,158,0,32,DL_Guitar,-1,-1
56,100,0.2409090909090909,298,0,32,DL_Guitar,-1,-1
63,100,0.1590909090909091,396,0,32,DL_Guitar,-1,-1
61,100,0.2772727272727273,536,0,32,DL_Guitar,-1,-1
53,100,0.2590909090909091,611,0,32,DL_Guitar,-1,-1
63,100,0.2772727272727273,735,0,32,DL_Guitar,-1,-1
63,100,0.6363636363636364,105,1,33,DL_Guitar,-1,-1
51,100,0.5181818181818182,325,1,33,DL_Guitar,-1,-1
56,100,0.5227272727272727,444,0,33,DL_Guitar,-1,-1
63,100,0.35909090909090907,558,0,33,DL_Guitar,-1,-1
63,100,0.12272727272727273,751,0,33,DL_Guitar,-1,-1
63,100,0.6409090909090909,866,0,33,DL_Guitar,-1,-1
49,100,0.38181818181818183,254,1,34,DL_Guitar,-1,-1
63,100,0.2590909090909091,518,1,34,DL_Guitar,-1,-1
63,100,0.2,619,0,34,DL_Guitar,-1,-1
49,100,0.18181818181818182,716,0,34,DL_Guitar,-1,-1
63,100,0.2,770,0,34,DL_Guitar,-1,-1
61,100,0.4818181818181818,861,0,34,DL_Guitar,-1,-1
49,100,0.2409090909090909,88,1,35,DL_Guitar,-1,-1
61,100,0.1409090909090909,241,0,35,DL_Guitar,-1,-1
63,100,0.1,361,0,35,DL_Guitar,-1,-1
63,100,0.9227272727272727,408,0,35,DL_Guitar,-1,-1
63,100,0.3,738,1,35,DL_Guitar,-1,-1
63,100,0.21818181818181817,8,1,36,DL_Guitar,-1,-1
48,100,0.3,220,1,36,DL_Guitar,-1,-1
48,100,0.2,448,1,36,DL_Guitar,-1,-1
48,100,0.12272727272727273,496,0,36,DL_Guitar,-1,-1
53,100,0.13636363636363635,678,0,36,DL_Guitar,-1,-1
61,100,0.22272727272727272,751,0,36,DL_Guitar,-1,-1
53,100,0.5590909090909091,801,0,36,DL_Guitar,-1,-1
53,100,0.2636363636363636,311,1,37,DL_Guitar,-1,-1
53,100,0.21818181818181817,373,0,37,DL_Guitar,-1,-1
63,100,0.5590909090909091,545,0,37,DL_Guitar,-1,-1
55,100,0.2772727272727273,141,1,38,DL_Guitar,-1,-1
55,100,0.21818181818181817,418,1,38,DL_Guitar,-1,-1
48,100,0.3409090909090909,509,0,38,DL_Guitar,-1,-1
53,100,0.2,163,1,39,DL_Guitar,-1,-1
53,100,0.1590909090909091,211,0,39,DL_Guitar,-1,-1
53,100,0.2818181818181818,276,0,39,DL_Guitar,-1,-1
53,100,0.43636363636363634,348,0,39,DL_Guitar,-1,-1
63,100,0.6227272727272727,474,0,39,DL_Guitar,-1,-1
49,100,0.17727272727272728,678,1,39,DL_Guitar,-1,-1
61,100,0.11818181818181818,765,0,39,DL_Guitar,-1,-1
49,100,0.18181818181818182,804,0,39,DL_Guitar,-1,-1
51,100,1.7,866,0,39,DL_Guitar,-1,-1
63,100,0.1409090909090909,361,1,40,DL_Guitar,-1,-1
63,100,0.1409090909090909,405,0,40,DL_Guitar,-1,-1
51,100,0.2,435,0,40,DL_Guitar,-1,-1
51,100,0.21818181818181817,493,0,40,DL_Guitar,-1,-1
51,100,0.11818181818181818,571,0,40,DL_Guitar,-1,-1
63,100,0.18181818181818182,664,0,40,DL_Guitar,-1,-1
51,100,0.37727272727272726,778,0,40,DL_Guitar,-1,-1
63,100,0.12272727272727273,861,0,40,DL_Guitar,-1,-1
63,100,0.21818181818181817,75,1,41,DL_Guitar,-1,-1
51,100,0.18181818181818182,123,0,41,DL_Guitar,-1,-1
51,100,0.2818181818181818,179,0,41,DL_Guitar,-1,-1
53,100,0.3409090909090909,246,0,41,DL_Guitar,-1,-1
63,100,0.12272727272727273,334,0,41,DL_Guitar,-1,-1
63,100,0.18181818181818182,399,0,41,DL_Guitar,-1,-1
53,100,0.2,448,0,41,DL_Guitar,-1,-1
56,100,0.2,619,0,41,DL_Guitar,-1,-1
63,100,0.1409090909090909,691,0,41,DL_Guitar,-1,-1
63,100,0.11818181818181818,735,0,41,DL_Guitar,-1,-1
63,100,0.33636363636363636,765,0,41,DL_Guitar,-1,-1
63,100,0.21818181818181817,0,1,42,DL_Guitar,-1,-1
63,100,0.2818181818181818,198,1,42,DL_Guitar,-1,-1
49,100,0.6409090909090909,619,1,42,DL_Guitar,-1,-1
63,100,0.16363636363636364,774,0,42,DL_Guitar,-1,-1
49,100,0.5818181818181818,114,1,43,DL_Guitar,-1,-1
63,100,0.3,295,0,43,DL_Guitar,-1,-1
49,100,0.1409090909090909,364,0,43,DL_Guitar,-1,-1
63,100,0.6,399,0,43,DL_Guitar,-1,-1
53,100,0.18181818181818182,673,1,43,DL_Guitar,-1,-1
63,100,0.12272727272727273,136,1,44,DL_Guitar,-1,-1
51,100,0.1,166,0,44,DL_Guitar,-1,-1
63,100,0.12272727272727273,268,0,44,DL_Guitar,-1,-1
51,100,0.5181818181818182,295,0,44,DL_Guitar,-1,-1
63,100,0.1409090909090909,550,1,44,DL_Guitar,-1,-1
51,100,0.1590909090909091,581,0,44,DL_Guitar,-1,-1
63,100,0.2409090909090909,616,0,44,DL_Guitar,-1,-1
51,100,0.3181818181818182,813,0,44,DL_Guitar,-1,-1
58,100,0.18181818181818182,21,1,45,DL_Guitar,-1,-1
51,100,0.2,260,1,45,DL_Guitar,-1,-1
53,100,0.5409090909090909,321,0,45,DL_Guitar,-1,-1
60,100,0.16363636363636364,444,0,45,DL_Guitar,-1,-1
53,100,0.1590909090909091,506,0,45,DL_Guitar,-1,-1
63,100,0.18181818181818182,729,1,45,DL_Guitar,-1,-1
63,100,0.4,861,0,45,DL_Guitar,-1,-1
63,100,0.6818181818181818,254,1,46,DL_Guitar,-1,-1
61,100,0.13636363636363635,458,1,46,DL_Guitar,-1,-1
61,100,0.5,493,0,46,DL_Guitar,-1,-1
49,100,0.2590909090909091,603,0,46,DL_Guitar,-1,-1
61,100,0.21818181818181817,678,0,46,DL_Guitar,-1,-1
61,100,0.16363636363636364,774,0,46,DL_Guitar,-1,-1
49,100,0.1590909090909091,810,0,46,DL_Guitar,-1,-1
49,100,0.1409090909090909,0,1,47,DL_Guitar,-1,-1
64,100,0.1590909090909091,810,1,47,DL_Guitar,-1,-1
53,100,0.18181818181818182,56,1,48,DL_Guitar,-1,-1
53,100,0.2818181818181818,263,1,48,DL_Guitar,-1,-1
56,100,0.1,421,0,48,DL_Guitar,-1,-1
63,100,0.2,483,0,48,DL_Guitar,-1,-1
53,100,0.16363636363636364,554,0,48,DL_Guitar,-1,-1
61,100,0.2,845,1,48,DL_Guitar,-1,-1
49,100,0.11818181818181818,220,1,49,DL_Guitar,-1,-1
56,100,0.5590909090909091,251,0,49,DL_Guitar,-1,-1
63,100,0.9181818181818182,396,0,49,DL_Guitar,-1,-1
63,100,0.11818181818181818,770,1,49,DL_Guitar,-1,-1
51,100,0.1409090909090909,21,1,50,DL_Guitar,-1,-1
63,100,0.41818181818181815,118,0,50,DL_Guitar,-1,-1
51,100,0.1409090909090909,233,0,50,DL_Guitar,-1,-1
63,100,0.6590909090909091,263,0,50,DL_Guitar,-1,-1
53,100,0.18181818181818182,606,1,50,DL_Guitar,-1,-1
63,100,0.35909090909090907,655,0,50,DL_Guitar,-1,-1
63,100,0.1,765,0,50,DL_Guitar,-1,-1
56,100,0.5590909090909091,31,1,51,DL_Guitar,-1,-1
63,100,0.7227272727272728,254,1,51,DL_Guitar,-1,-1
63,100,0.6,531,1,51,DL_Guitar,-1,-1
63,100,0.2409090909090909,668,0,51,DL_Guitar,-1,-1
63,100,0.5818181818181818,110,1,52,DL_Guitar,-1,-1
63,100,0.5181818181818182,435,1,52,DL_Guitar,-1,-1
49,100,0.35909090909090907,558,0,52,DL_Guitar,-1,-1
49,100,0.2,646,0,52,DL_Guitar,-1,-1
63,100,0.37727272727272726,721,0,52,DL_Guitar,-1,-1
63,100,0.1409090909090909,861,0,52,DL_Guitar,-1,-1
63,100,0.9181818181818182,18,1,53,DL_Guitar,-1,-1
56,100,0.1590909090909091,254,1,53,DL_Guitar,-1,-1
63,100,0.18181818181818182,289,0,53,DL_Guitar,-1,-1
63,100,0.3409090909090909,378,0,53,DL_Guitar,-1,-1
63,100,0.5590909090909091,480,0,53,DL_Guitar,-1,-1
53,100,0.3,26,1,54,DL_Guitar,-1,-1
61,100,0.8363636363636363,150,0,54,DL_Guitar,-1,-1
61,100,0.21818181818181817,370,1,54,DL_Guitar,-1,-1
51,100,0.2409090909090909,541,0,54,DL_Guitar,-1,-1
51,100,0.9590909090909091,638,0,54,DL_Guitar,-1,-1
63,100,0.42272727272727273,848,1,54,DL_Guitar,-1,-1
51,100,0.4409090909090909,69,1,55,DL_Guitar,-1,-1
63,100,1.559090909090909,166,0,55,DL_Guitar,-1,-1
60,100,0.21818181818181817,523,1,55,DL_Guitar,-1,-1
48,100,0.3409090909090909,571,0,55,DL_Guitar,-1,-1
53,100,0.1409090909090909,694,0,55,DL_Guitar,-1,-1
53,100,0.21818181818181817,735,0,55,DL_Guitar,-1,-1
56,100,0.1590909090909091,273,1,56,DL_Guitar,-1,-1
61,100,0.9227272727272727,421,0,56,DL_Guitar,-1,-1
51,100,0.1,826,1,56,DL_Guitar,-1,-1
51,100,0.35909090909090907,853,0,56,DL_Guitar,-1,-1
51,100,1.8,56,1,57,DL_Guitar,-1,-1
63,100,0.11818181818181818,593,1,57,DL_Guitar,-1,-1
63,100,0.759090909090909,625,0,57,DL_Guitar,-1,-1
48,100,0.1409090909090909,246,1,58,DL_Guitar,-1,-1
63,100,0.13636363636363635,370,0,58,DL_Guitar,-1,-1
63,100,0.11818181818181818,528,0,58,DL_Guitar,-1,-1
46,100,0.1590909090909091,616,0,58,DL_Guitar,-1,-1
53,100,0.4,655,0,58,DL_Guitar,-1,-1
61,100,0.42272727272727273,774,0,58,DL_Guitar,-1,-1
49,100,0.1409090909090909,4,1,59,DL_Guitar,-1,-1
61,100,0.3,34,0,59,DL_Guitar,-1,-1
49,100,0.18181818181818182,176,0,59,DL_Guitar,-1,-1
51,100,1.259090909090909,251,0,59,DL_Guitar,-1,-1
63,100,1.040909090909091,553,1,64,DL_Guitar,-1,-1
63,100,0.7181818181818181,853,1,64,DL_Guitar,-1,-1
63,100,0.1409090909090909,176,1,65,DL_Guitar,-1,-1
63,100,0.38181818181818183,220,0,65,DL_Guitar,-1,-1
53,100,0.6,113,1,68,DL_Guitar,-1,-1
53,100,0.6409090909090909,307,0,68,DL_Guitar,-1,-1
49,100,0.3,669,1,68,DL_Guitar,-1,-1
49,100,0.1409090909090909,747,0,68,DL_Guitar,-1,-1
49,100,0.16363636363636364,796,0,68,DL_Guitar,-1,-1
49,100,0.1409090909090909,35,1,69,DL_Guitar,-1,-1
63,100,0.35909090909090907,193,0,69,DL_Guitar,-1,-1
63,100,0.5590909090909091,276,0,69,DL_Guitar,-1,-1
51,100,0.2,399,0,69,DL_Guitar,-1,-1
63,100,0.2,443,0,69,DL_Guitar,-1,-1
51,100,0.5636363636363636,487,0,69,DL_Guitar,-1,-1
63,100,0.1,612,0,69,DL_Guitar,-1,-1
63,100,0.1,650,0,69,DL_Guitar,-1,-1
63,100,1.6181818181818182,700,0,69,DL_Guitar,-1,-1
53,100,0.2590909090909091,343,1,70,DL_Guitar,-1,-1
53,100,0.9,462,0,70,DL_Guitar,-1,-1
53,100,0.11818181818181818,766,1,70,DL_Guitar,-1,-1
63,100,0.2636363636363636,509,1,71,DL_Guitar,-1,-1
51,100,0.6590909090909091,567,0,71,DL_Guitar,-1,-1
51,100,0.9409090909090909,747,0,71,DL_Guitar,-1,-1
63,100,0.11818181818181818,96,1,72,DL_Guitar,-1,-1
51,100,1.8227272727272728,123,0,72,DL_Guitar,-1,-1
51,100,0.22272727272727272,540,1,72,DL_Guitar,-1,-1
51,100,0.12272727272727273,673,0,72,DL_Guitar,-1,-1
63,100,0.21818181818181817,700,0,72,DL_Guitar,-1,-1
63,100,0.1,756,0,72,DL_Guitar,-1,-1
63,100,0.3,805,0,72,DL_Guitar,-1,-1
63,100,0.35909090909090907,74,1,73,DL_Guitar,-1,-1
63,100,0.8636363636363636,157,0,73,DL_Guitar,-1,-1
62,100,0.8409090909090909,466,1,74,DL_Guitar,-1,-1
62,100,0.22272727272727272,663,0,74,DL_Guitar,-1,-1
62,100,0.1590909090909091,9,1,75,DL_Guitar,-1,-1
59,100,1.0818181818181818,92,0,75,DL_Guitar,-1,-1
40,100,0.5181818181818182,330,1,75,DL_Guitar,-1,-1
40,100,0.1409090909090909,449,0,75,DL_Guitar,-1,-1
40,100,0.13636363636363635,523,0,75,DL_Guitar,-1,-1
61,100,1.0363636363636364,567,0,75,DL_Guitar,-1,-1
59,100,1.1590909090909092,823,1,75,DL_Guitar,-1,-1
61,100,1.2,202,1,76,DL_Guitar,-1,-1
61,100,3.2,509,1,76,DL_Guitar,-1,-1
62,100,1.2227272727272727,343,1,77,DL_Guitar,-1,-1
50,100,0.2818181818181818,783,1,77,DL_Guitar,-1,-1
62,100,0.5,853,0,77,DL_Guitar,-1,-1
57,100,0.4590909090909091,132,1,78,DL_Guitar,-1,-1
62,100,0.8181818181818182,502,1,78,DL_Guitar,-1,-1
62,100,0.3,826,1,78,DL_Guitar,-1,-1
54,100,0.12272727272727273,26,1,79,DL_Guitar,-1,-1
62,100,0.13636363636363635,83,0,79,DL_Guitar,-1,-1
40,100,0.3181818181818182,172,0,79,DL_Guitar,-1,-1
40,100,0.18181818181818182,263,0,79,DL_Guitar,-1,-1
61,100,0.8363636363636363,633,1,79,DL_Guitar,-1,-1
59,100,0.41818181818181815,9,1,80,DL_Guitar,-1,-1
59,100,0.11818181818181818,132,0,80,DL_Guitar,-1,-1
64,100,0.7363636363636363,303,0,80,DL_Guitar,-1,-1
45,100,0.1590909090909091,475,0,80,DL_Guitar,-1,-1
61,100,0.17727272727272728,646,0,80,DL_Guitar,-1,-1
62,100,0.4409090909090909,779,0,80,DL_Guitar,-1,-1
62,100,0.13636363636363635,17,1,81,DL_Guitar,-1,-1
62,100,0.5772727272727273,53,0,81,DL_Guitar,-1,-1
40,100,0.11818181818181818,457,1,81,DL_Guitar,-1,-1
40,100,0.11818181818181818,559,0,81,DL_Guitar,-1,-1
59,100,0.3,597,0,81,DL_Guitar,-1,-1
52,100,0.12272727272727273,817,1,81,DL_Guitar,-1,-1
57,100,0.3181818181818182,66,1,82,DL_Guitar,-1,-1
61,100,0.2,166,0,82,DL_Guitar,-1,-1
61,100,0.2590909090909091,273,0,82,DL_Guitar,-1,-1
64,100,0.2818181818181818,330,0,82,DL_Guitar,-1,-1
57,100,0.37727272727272726,436,0,82,DL_Guitar,-1,-1
61,100,0.2772727272727273,567,0,82,DL_Guitar,-1,-1
57,100,0.2590909090909091,633,0,82,DL_Guitar,-1,-1
61,100,0.2590909090909091,700,0,82,DL_Guitar,-1,-1
61,100,0.4409090909090909,826,0,82,DL_Guitar,-1,-1
59,100,0.12272727272727273,92,1,83,DL_Guitar,-1,-1
64,100,0.17727272727272728,127,0,83,DL_Guitar,-1,-1
57,100,0.33636363636363636,193,0,83,DL_Guitar,-1,-1
61,100,0.5227272727272727,320,0,83,DL_Guitar,-1,-1
57,100,0.9590909090909091,483,0,83,DL_Guitar,-1,-1
62,100,1.2,703,1,83,DL_Guitar,-1,-1
50,100,0.1409090909090909,163,1,84,DL_Guitar,-1,-1
50,100,0.1,223,0,84,DL_Guitar,-1,-1
62,100,0.1409090909090909,263,0,84,DL_Guitar,-1,-1
40,100,0.13636363636363635,523,1,84,DL_Guitar,-1,-1
52,100,0.1,663,0,84,DL_Guitar,-1,-1
64,100,0.16363636363636364,752,0,84,DL_Guitar,-1,-1
64,100,0.18181818181818182,66,1,85,DL_Guitar,-1,-1
45,100,0.21818181818181817,106,0,85,DL_Guitar,-1,-1
64,100,0.11818181818181818,197,0,85,DL_Guitar,-1,-1
59,100,0.23636363636363636,237,0,85,DL_Guitar,-1,-1
64,100,0.16363636363636364,289,0,85,DL_Guitar,-1,-1
57,100,0.3181818181818182,493,1,85,DL_Guitar,-1,-1
57,100,0.759090909090909,567,0,85,DL_Guitar,-1,-1
57,100,0.8409090909090909,752,0,85,DL_Guitar,-1,-1
61,100,0.32272727272727275,56,1,86,DL_Guitar,-1,-1
61,100,1.0,140,0,86,DL_Guitar,-1,-1
64,100,0.2772727272727273,559,1,86,DL_Guitar,-1,-1
62,100,1.0,624,0,86,DL_Guitar,-1,-1
62,100,0.1409090909090909,849,1,86,DL_Guitar,-1,-1
57,100,0.21818181818181817,17,1,87,DL_Guitar,-1,-1
50,100,0.2,100,0,87,DL_Guitar,-1,-1
62,100,0.6590909090909091,210,0,87,DL_Guitar,-1,-1
50,100,0.1,413,1,87,DL_Guitar,-1,-1
50,100,0.2772727272727273,449,0,87,DL_Guitar,-1,-1
40,100,0.2818181818181818,487,1,88,DL_Guitar,-1,-1
50,100,0.5772727272727273,383,1,89,DL_Guitar,-1,-1
62,100,0.12272727272727273,509,0,89,DL_Guitar,-1,-1
40,100,0.759090909090909,559,0,89,DL_Guitar,-1,-1
40,100,0.2,729,0,89,DL_Guitar,-1,-1
40,100,0.1,826,0,89,DL_Guitar,-1,-1
40,100,0.2409090909090909,96,1,90,DL_Guitar,-1,-1
49,100,0.4,179,0,90,DL_Guitar,-1,-1
49,100,0.9,282,0,90,DL_Guitar,-1,-1
61,100,0.3,480,0,90,DL_Guitar,-1,-1
64,100,0.2818181818181818,553,0,90,DL_Guitar,-1,-1
64,100,0.3,619,0,90,DL_Guitar,-1,-1
61,100,0.5,690,0,90,DL_Guitar,-1,-1
57,100,1.7363636363636363,810,0,90,DL_Guitar,-1,-1
62,100,0.3181818181818182,316,1,91,DL_Guitar,-1,-1
40,100,0.8409090909090909,844,1,91,DL_Guitar,-1,-1
40,100,0.2409090909090909,153,1,92,DL_Guitar,-1,-1
40,100,1.5,216,0,92,DL_Guitar,-1,-1
57,100,0.2,747,1,92,DL_Guitar,-1,-1
64,100,0.2,805,0,92,DL_Guitar,-1,-1
57,100,0.5590909090909091,853,0,92,DL_Guitar,-1,-1
61,100,0.3181818181818182,110,1,93,DL_Guitar,-1,-1
57,100,0.4,229,0,93,DL_Guitar,-1,-1
45,100,0.13636363636363635,326,0,93,DL_Guitar,-1,-1
61,100,0.17727272727272728,383,0,93,DL_Guitar,-1,-1
50,100,0.1590909090909091,140,1,94,DL_Guitar,-1,-1
40,100,0.11818181818181818,316,0,94,DL_Guitar,-1,-1
40,100,0.1590909090909091,567,1,94,DL_Guitar,-1,-1
59,100,0.36363636363636365,663,0,94,DL_Guitar,-1,-1
61,100,0.2409090909090909,773,0,94,DL_Guitar,-1,-1
45,100,0.2,26,1,95,DL_Guitar,-1,-1
45,100,0.11818181818181818,110,0,95,DL_Guitar,-1,-1
64,100,0.3181818181818182,140,0,95,DL_Guitar,-1,-1
57,100,0.5409090909090909,210,0,95,DL_Guitar,-1,-1
64,100,0.2,347,0,95,DL_Guitar,-1,-1
57,100,1.0772727272727274,413,0,95,DL_Guitar,-1,-1
56,100,0.9181818181818182,656,1,95,DL_Guitar,-1,-1
62,100,0.12272727272727273,26,1,96,DL_Guitar,-1,-1
52,100,0.1590909090909091,550,1,96,DL_Guitar,-1,-1
40,100,0.2409090909090909,629,0,96,DL_Guitar,-1,-1
40,100,0.21818181818181817,743,0,96,DL_Guitar,-1,-1
40,100,0.5181818181818182,43,1,97,DL_Guitar,-1,-1
57,100,1.8,233,0,97,DL_Guitar,-1,-1
57,100,0.2590909090909091,823,1,97,DL_Guitar,-1,-1
57,100,0.6590909090909091,166,1,98,DL_Guitar,-1,-1
62,100,0.3,320,0,98,DL_Guitar,-1,-1
62,100,0.2590909090909091,430,0,98,DL_Guitar,-1,-1
57,100,0.2409090909090909,527,0,98,DL_Guitar,-1,-1
62,100,0.11818181818181818,580,0,98,DL_Guitar,-1,-1
62,100,0.1,633,0,98,DL_Guitar,-1,-1
57,100,0.12272727272727273,695,0,98,DL_Guitar,-1,-1
59,100,0.35909090909090907,316,1,99,DL_Guitar,-1,-1
40,100,0.2590909090909091,396,0,99,DL_Guitar,-1,-1
61,100,0.3181818181818182,770,1,99,DL_Guitar,-1,-1
61,100,0.2,876,0,99,DL_Guitar,-1,-1
64,100,0.23636363636363636,40,1,100,DL_Guitar,-1,-1
61,100,0.5,96,0,100,DL_Guitar,-1,-1
61,100,0.6181818181818182,237,0,100,DL_Guitar,-1,-1
49,100,0.4,373,0,100,DL_Guitar,-1,-1
64,100,0.5181818181818182,483,0,100,DL_Guitar,-1,-1
50,100,0.9181818181818182,624,0,100,DL_Guitar,-1,-1
57,100,0.18181818181818182,189,1,101,DL_Guitar,-1,-1
52,100,0.1,282,0,101,DL_Guitar,-1,-1
52,100,0.1,330,0,101,DL_Guitar,-1,-1
40,100,1.940909090909091,377,0,101,DL_Guitar,-1,-1
52,100,0.38181818181818183,813,1,101,DL_Guitar,-1,-1
45,100,3.140909090909091,30,1,102,DL_Guitar,-1,-1
45,100,0.4,734,1,102,DL_Guitar,-1,-1
50,100,0.9409090909090909,13,1,103,DL_Guitar,-1,-1
50,100,0.3,282,1,103,DL_Guitar,-1,-1
50,100,0.21818181818181817,373,0,103,DL_Guitar,-1,-1
40,100,0.6,590,1,103,DL_Guitar,-1,-1
40,100,0.2818181818181818,773,0,103,DL_Guitar,-1,-1
40,100,0.21818181818181817,40,1,104,DL_Guitar,-1,-1
64,100,0.11818181818181818,87,0,104,DL_Guitar,-1,-1
57,100,0.2,255,0,104,DL_Guitar,-1,-1
57,100,0.13636363636363635,370,0,104,DL_Guitar,-1,-1
57,100,0.2590909090909091,413,0,104,DL_Guitar,-1,-1
52,100,0.2590909090909091,480,0,104,DL_Guitar,-1,-1
57,100,0.21818181818181817,536,0,104,DL_Guitar,-1,-1
57,100,0.3,597,0,104,DL_Guitar,-1,-1
57,100,0.8409090909090909,695,0,104,DL_Guitar,-1,-1
42,100,0.11818181818181818,127,1,105,DL_Guitar,-1,-1
64,100,0.18181818181818182,202,0,105,DL_Guitar,-1,-1
56,100,0.12272727272727273,575,1,4,_Remix_Guitar,-1,-1
51,100,0.3,685,0,4,_Remix_Guitar,-1,-1
58,100,0.18181818181818182,66,1,5,_Remix_Guitar,-1,-1
58,100,0.1,128,0,5,_Remix_Guitar,-1,-1
58,100,0.12272727272727273,232,0,5,_Remix_Guitar,-1,-1
56,100,0.13636363636363635,391,0,5,_Remix_Guitar,-1,-1
63,100,0.12272727272727273,431,0,5,_Remix_Guitar,-1,-1
56,100,0.2590909090909091,550,0,5,_Remix_Guitar,-1,-1
51,100,0.1,729,0,5,_Remix_Guitar,-1,-1
58,100,0.22272727272727272,12,1,6,_Remix_Guitar,-1,-1
55,100,0.2,399,1,6,_Remix_Guitar,-1,-1
55,100,0.21818181818181817,493,0,6,_Remix_Guitar,-1,-1
51,100,0.1590909090909091,545,0,6,_Remix_Guitar,-1,-1
55,100,0.13636363636363635,678,0,6,_Remix_Guitar,-1,-1
51,100,0.21818181818181817,150,1,7,_Remix_Guitar,-1,-1
51,100,0.1409090909090909,207,0,7,_Remix_Guitar,-1,-1
51,100,0.2,396,0,7,_Remix_Guitar,-1,-1
55,100,0.1409090909090909,581,0,7,_Remix_Guitar,-1,-1
55,100,0.1,810,1,7,_Remix_Guitar,-1,-1
51,100,0.1,849,0,7,_Remix_Guitar,-1,-1
63,100,0.22272727272727272,871,0,7,_Remix_Guitar,-1,-1
51,100,0.2,53,1,8,_Remix_Guitar,-1,-1
51,100,0.1409090909090909,135,0,8,_Remix_Guitar,-1,-1
56,100,0.4818181818181818,254,0,8,_Remix_Guitar,-1,-1
51,100,0.18181818181818182,541,1,8,_Remix_Guitar,-1,-1
51,100,0.1,598,0,8,_Remix_Guitar,-1,-1
58,100,0.11818181818181818,814,1,8,_Remix_Guitar,-1,-1
55,100,0.11818181818181818,22,1,9,_Remix_Guitar,-1,-1
51,100,0.12272727272727273,123,0,9,_Remix_Guitar,-1,-1
51,100,0.2409090909090909,417,1,9,_Remix_Guitar,-1,-1
51,100,0.21818181818181817,484,0,9,_Remix_Guitar,-1,-1
51,100,0.17727272727272728,611,0,9,_Remix_Guitar,-1,-1
51,100,0.5590909090909091,725,0,9,_Remix_Guitar,-1,-1
51,100,0.1590909090909091,96,1,10,_Remix_Guitar,-1,-1
51,100,0.3,163,0,10,_Remix_Guitar,-1,-1
58,100,0.12272727272727273,553,1,10,_Remix_Guitar,-1,-1
51,100,0.1590909090909091,637,0,10,_Remix_Guitar,-1,-1
51,100,0.2590909090909091,691,0,10,_Remix_Guitar,-1,-1
51,100,0.1590909090909091,756,0,10,_Remix_Guitar,-1,-1
51,100,0.11818181818181818,823,0,10,_Remix_Guitar,-1,-1
51,100,0.1,862,0,10,_Remix_Guitar,-1,-1
51,100,0.18181818181818182,113,1,11,_Remix_Guitar,-1,-1
51,100,0.17727272727272728,831,1,11,_Remix_Guitar,-1,-1
50,100,0.1,581,1,12,_Remix_Guitar,-1,-1
43,100,0.21818181818181817,854,1,12,_Remix_Guitar,-1,-1
58,100,0.12272727272727273,101,1,13,_Remix_Guitar,-1,-1
50,100,0.1590909090909091,154,0,13,_Remix_Guitar,-1,-1
50,100,0.1590909090909091,194,0,13,_Remix_Guitar,-1,-1
51,100,0.12272727272727273,276,0,13,_Remix_Guitar,-1,-1
51,100,0.1,312,0,13,_Remix_Guitar,-1,-1
56,100,0.16363636363636364,465,0,13,_Remix_Guitar,-1,-1
51,100,0.2,795,1,13,_Remix_Guitar,-1,-1
51,100,0.17727272727272728,876,0,13,_Remix_Guitar,-1,-1
51,100,0.5,211,1,14,_Remix_Guitar,-1,-1
58,100,0.2590909090909091,326,0,14,_Remix_Guitar,-1,-1
63,100,0.18181818181818182,474,0,14,_Remix_Guitar,-1,-1
51,100,0.1590909090909091,541,0,14,_Remix_Guitar,-1,-1
51,100,0.11818181818181818,615,0,14,_Remix_Guitar,-1,-1
51,100,0.12272727272727273,694,0,14,_Remix_Guitar,-1,-1
51,100,0.17727272727272728,831,0,14,_Remix_Guitar,-1,-1
51,100,0.2772727272727273,17,1,15,_Remix_Guitar,-1,-1
51,100,0.41818181818181815,106,0,15,_Remix_Guitar,-1,-1
48,100,0.12272727272727273,553,1,15,_Remix_Guitar,-1,-1
53,100,0.11818181818181818,876,1,15,_Remix_Guitar,-1,-1
53,100,0.11818181818181818,44,1,16,_Remix_Guitar,-1,-1
41,100,0.18181818181818182,69,0,16,_Remix_Guitar,-1,-1
46,100,0.2818181818181818,474,1,16,_Remix_Guitar,-1,-1
46,100,0.16363636363636364,663,0,16,_Remix_Guitar,-1,-1
51,100,0.11818181818181818,787,0,16,_Remix_Guitar,-1,-1
51,100,0.2,839,0,16,_Remix_Guitar,-1,-1
51,100,0.2,113,1,17,_Remix_Guitar,-1,-1
51,100,0.17727272727272728,162,0,17,_Remix_Guitar,-1,-1
51,100,0.2818181818181818,264,0,17,_Remix_Guitar,-1,-1
51,100,0.3409090909090909,374,0,17,_Remix_Guitar,-1,-1
51,100,0.6,607,1,17,_Remix_Guitar,-1,-1
51,100,1.3590909090909091,858,1,17,_Remix_Guitar,-1,-1
51,100,0.2590909090909091,281,1,18,_Remix_Guitar,-1,-1
51,100,0.1,347,0,18,_Remix_Guitar,-1,-1
58,100,0.4772727272727273,449,0,18,_Remix_Guitar,-1,-1
51,100,0.7636363636363637,576,0,18,_Remix_Guitar,-1,-1
51,100,0.1409090909090909,818,1,18,_Remix_Guitar,-1,-1
51,100,0.6227272727272727,26,1,19,_Remix_Guitar,-1,-1
58,100,0.5,246,1,19,_Remix_Guitar,-1,-1
51,100,0.2409090909090909,364,0,19,_Remix_Guitar,-1,-1
51,100,0.2,484,0,19,_Remix_Guitar,-1,-1
51,100,0.5227272727272727,532,0,19,_Remix_Guitar,-1,-1
63,100,0.7,660,0,19,_Remix_Guitar,-1,-1
51,100,0.11818181818181818,835,0,19,_Remix_Guitar,-1,-1
51,100,0.4818181818181818,0,1,20,_Remix_Guitar,-1,-1
48,100,0.33636363636363636,171,0,20,_Remix_Guitar,-1,-1
48,100,0.5590909090909091,364,0,20,_Remix_Guitar,-1,-1
58,100,0.41818181818181815,528,0,20,_Remix_Guitar,-1,-1
46,100,0.42272727272727273,619,0,20,_Remix_Guitar,-1,-1
46,100,0.2,822,1,20,_Remix_Guitar,-1,-1
58,100,0.18181818181818182,34,1,21,_Remix_Guitar,-1,-1
58,100,0.1590909090909091,119,0,21,_Remix_Guitar,-1,-1
50,100,1.040909090909091,320,1,21,_Remix_Guitar,-1,-1
50,100,0.21818181818181817,559,1,21,_Remix_Guitar,-1,-1
58,100,0.41818181818181815,615,0,21,_Remix_Guitar,-1,-1
50,100,0.1590909090909091,52,1,22,_Remix_Guitar,-1,-1
44,100,0.4409090909090909,308,1,22,_Remix_Guitar,-1,-1
56,100,0.1409090909090909,405,0,22,_Remix_Guitar,-1,-1
56,100,0.3,602,0,22,_Remix_Guitar,-1,-1
53,100,0.18181818181818182,268,1,23,_Remix_Guitar,-1,-1
58,100,0.21818181818181817,316,0,23,_Remix_Guitar,-1,-1
50,100,0.3409090909090909,378,0,23,_Remix_Guitar,-1,-1
50,100,0.18181818181818182,553,0,23,_Remix_Guitar,-1,-1
58,100,0.1409090909090909,818,1,23,_Remix_Guitar,-1,-1
48,100,0.4772727272727273,853,0,23,_Remix_Guitar,-1,-1
48,100,0.4,185,1,24,_Remix_Guitar,-1,-1
58,100,0.2590909090909091,743,1,24,_Remix_Guitar,-1,-1
53,100,0.41818181818181815,52,1,25,_Remix_Guitar,-1,-1
53,100,0.11818181818181818,206,0,25,_Remix_Guitar,-1,-1
58,100,0.4,246,0,25,_Remix_Guitar,-1,-1
53,100,0.18181818181818182,474,1,25,_Remix_Guitar,-1,-1
46,100,0.5,553,0,25,_Remix_Guitar,-1,-1
58,100,0.11818181818181818,700,0,25,_Remix_Guitar,-1,-1
46,100,0.2818181818181818,796,0,25,_Remix_Guitar,-1,-1
46,100,0.2409090909090909,862,0,25,_Remix_Guitar,-1,-1
58,100,0.3,61,1,26,_Remix_Guitar,-1,-1
53,100,0.17727272727272728,140,0,26,_Remix_Guitar,-1,-1
46,100,0.11818181818181818,193,0,26,_Remix_Guitar,-1,-1
46,100,0.13636363636363635,237,0,26,_Remix_Guitar,-1,-1
46,100,0.37727272727272726,281,0,26,_Remix_Guitar,-1,-1
58,100,0.8227272727272728,422,0,26,_Remix_Guitar,-1,-1
58,100,0.2,849,1,26,_Remix_Guitar,-1,-1
63,100,0.1590909090909091,88,1,27,_Remix_Guitar,-1,-1
58,100,0.21818181818181817,281,0,27,_Remix_Guitar,-1,-1
46,100,0.3181818181818182,351,0,27,_Remix_Guitar,-1,-1
58,100,0.41818181818181815,822,1,27,_Remix_Guitar,-1,-1
55,100,0.1409090909090909,113,1,28,_Remix_Guitar,-1,-1
58,100,0.22272727272727272,752,1,28,_Remix_Guitar,-1,-1
58,100,0.1409090909090909,131,1,29,_Remix_Guitar,-1,-1
58,100,0.22272727272727272,320,0,29,_Remix_Guitar,-1,-1
46,100,0.4409090909090909,629,1,29,_Remix_Guitar,-1,-1
51,100,0.3181818181818182,835,1,29,_Remix_Guitar,-1,-1
58,100,0.2,44,1,30,_Remix_Guitar,-1,-1
58,100,0.38181818181818183,285,1,30,_Remix_Guitar,-1,-1
63,100,0.21818181818181817,567,1,30,_Remix_Guitar,-1,-1
51,100,0.4,708,0,30,_Remix_Guitar,-1,-1
58,100,0.1409090909090909,69,1,31,_Remix_Guitar,-1,-1
56,100,0.2,167,0,31,_Remix_Guitar,-1,-1
46,100,0.12272727272727273,619,1,31,_Remix_Guitar,-1,-1
58,100,0.2,796,0,31,_Remix_Guitar,-1,-1
46,100,0.17727272727272728,866,0,31,_Remix_Guitar,-1,-1
58,100,0.2409090909090909,311,1,32,_Remix_Guitar,-1,-1
63,100,0.21818181818181817,391,0,32,_Remix_Guitar,-1,-1
51,100,0.11818181818181818,501,0,32,_Remix_Guitar,-1,-1
63,100,0.21818181818181817,678,0,32,_Remix_Guitar,-1,-1
63,100,0.18181818181818182,783,0,32,_Remix_Guitar,-1,-1
51,100,0.3,845,0,32,_Remix_Guitar,-1,-1
51,100,0.1409090909090909,34,1,33,_Remix_Guitar,-1,-1
48,100,0.17727272727272728,251,1,33,_Remix_Guitar,-1,-1
48,100,0.11818181818181818,348,0,33,_Remix_Guitar,-1,-1
41,100,0.2590909090909091,568,1,33,_Remix_Guitar,-1,-1
53,100,0.1590909090909091,743,0,33,_Remix_Guitar,-1,-1
53,100,0.1409090909090909,804,0,33,_Remix_Guitar,-1,-1
53,100,0.4818181818181818,43,1,34,_Remix_Guitar,-1,-1
53,100,0.18181818181818182,158,0,34,_Remix_Guitar,-1,-1
53,100,0.3181818181818182,215,0,34,_Remix_Guitar,-1,-1
53,100,0.2,295,0,34,_Remix_Guitar,-1,-1
63,100,0.1,606,1,34,_Remix_Guitar,-1,-1
60,100,0.32272727272727275,708,0,34,_Remix_Guitar,-1,-1
53,100,0.5772727272727273,831,0,34,_Remix_Guitar,-1,-1
53,100,0.1590909090909091,128,1,35,_Remix_Guitar,-1,-1
48,100,0.1,263,0,35,_Remix_Guitar,-1,-1
58,100,0.1409090909090909,373,0,35,_Remix_Guitar,-1,-1
58,100,0.2818181818181818,431,0,35,_Remix_Guitar,-1,-1
46,100,0.5181818181818182,493,0,35,_Remix_Guitar,-1,-1
46,100,0.12272727272727273,453,1,36,_Remix_Guitar,-1,-1
46,100,0.2590909090909091,515,0,36,_Remix_Guitar,-1,-1
46,100,0.6181818181818182,638,0,36,_Remix_Guitar,-1,-1
46,100,0.5818181818181818,796,0,36,_Remix_Guitar,-1,-1
46,100,0.1590909090909091,128,1,37,_Remix_Guitar,-1,-1
58,100,0.21818181818181817,163,0,37,_Remix_Guitar,-1,-1
58,100,0.12272727272727273,584,1,37,_Remix_Guitar,-1,-1
63,100,0.1409090909090909,770,0,37,_Remix_Guitar,-1,-1
51,100,0.2409090909090909,21,1,38,_Remix_Guitar,-1,-1
62,100,0.17727272727272728,185,0,38,_Remix_Guitar,-1,-1
58,100,0.37727272727272726,448,1,38,_Remix_Guitar,-1,-1
58,100,0.3,536,0,38,_Remix_Guitar,-1,-1
58,100,0.2,338,1,39,_Remix_Guitar,-1,-1
58,100,0.2590909090909091,748,1,39,_Remix_Guitar,-1,-1
56,100,0.1409090909090909,823,0,39,_Remix_Guitar,-1,-1
51,100,0.11818181818181818,40,1,40,_Remix_Guitar,-1,-1
51,100,0.2,118,0,40,_Remix_Guitar,-1,-1
58,100,0.16363636363636364,246,0,40,_Remix_Guitar,-1,-1
53,100,0.18181818181818182,308,0,40,_Remix_Guitar,-1,-1
58,100,0.2,418,0,40,_Remix_Guitar,-1,-1
58,100,0.11818181818181818,550,0,40,_Remix_Guitar,-1,-1
53,100,0.2,655,0,40,_Remix_Guitar,-1,-1
58,100,0.1590909090909091,703,0,40,_Remix_Guitar,-1,-1
51,100,0.21818181818181817,251,1,41,_Remix_Guitar,-1,-1
58,100,0.1590909090909091,496,1,41,_Remix_Guitar,-1,-1
58,100,0.3181818181818182,536,0,41,_Remix_Guitar,-1,-1
46,100,0.13636363636363635,678,0,41,_Remix_Guitar,-1,-1
58,100,0.1590909090909091,21,1,42,_Remix_Guitar,-1,-1
51,100,0.12272727272727273,343,1,42,_Remix_Guitar,-1,-1
46,100,0.1,483,0,42,_Remix_Guitar,-1,-1
46,100,0.37727272727272726,545,0,42,_Remix_Guitar,-1,-1
58,100,0.2818181818181818,638,0,42,_Remix_Guitar,-1,-1
46,100,0.21818181818181817,700,0,42,_Remix_Guitar,-1,-1
58,100,0.21818181818181817,823,0,42,_Remix_Guitar,-1,-1
46,100,0.1590909090909091,0,1,43,_Remix_Guitar,-1,-1
50,100,0.11818181818181818,141,0,43,_Remix_Guitar,-1,-1
58,100,0.2,179,0,43,_Remix_Guitar,-1,-1
50,100,0.13636363636363635,260,0,43,_Remix_Guitar,-1,-1
58,100,0.18181818181818182,298,0,43,_Remix_Guitar,-1,-1
48,100,0.4409090909090909,554,1,43,_Remix_Guitar,-1,-1
48,100,0.21818181818181817,75,1,44,_Remix_Guitar,-1,-1
58,100,0.21818181818181817,31,1,45,_Remix_Guitar,-1,-1
56,100,0.18181818181818182,114,0,45,_Remix_Guitar,-1,-1
58,100,0.2590909090909091,228,0,45,_Remix_Guitar,-1,-1
58,100,0.1590909090909091,338,0,45,_Remix_Guitar,-1,-1
58,100,0.2818181818181818,378,0,45,_Remix_Guitar,-1,-1
63,100,0.1409090909090909,461,0,45,_Remix_Guitar,-1,-1
56,100,0.1,56,1,46,_Remix_Guitar,-1,-1
63,100,0.2,171,0,46,_Remix_Guitar,-1,-1
56,100,0.6,474,1,46,_Remix_Guitar,-1,-1
58,100,0.3,770,1,46,_Remix_Guitar,-1,-1
58,100,0.22272727272727272,123,1,47,_Remix_Guitar,-1,-1
63,100,0.2,303,0,47,_Remix_Guitar,-1,-1
58,100,0.1590909090909091,810,1,47,_Remix_Guitar,-1,-1
55,100,0.3181818181818182,150,1,48,_Remix_Guitar,-1,-1
58,100,0.4818181818181818,289,0,48,_Remix_Guitar,-1,-1
53,100,0.12272727272727273,554,1,48,_Remix_Guitar,-1,-1
41,100,0.11818181818181818,581,0,48,_Remix_Guitar,-1,-1
53,100,0.2590909090909091,646,0,48,_Remix_Guitar,-1,-1
51,100,0.22272727272727272,673,1,49,_Remix_Guitar,-1,-1
51,100,0.1590909090909091,735,0,49,_Remix_Guitar,-1,-1
58,100,0.2,356,1,50,_Remix_Guitar,-1,-1
58,100,0.16363636363636364,444,0,50,_Remix_Guitar,-1,-1
58,100,0.32272727272727275,651,1,50,_Remix_Guitar,-1,-1
58,100,0.1409090909090909,518,1,51,_Remix_Guitar,-1,-1
63,100,0.2,576,0,51,_Remix_Guitar,-1,-1
51,100,0.1,703,0,51,_Remix_Guitar,-1,-1
63,100,0.18181818181818182,871,0,51,_Remix_Guitar,-1,-1
51,100,0.1,31,1,52,_Remix_Guitar,-1,-1
63,100,0.16363636363636364,69,0,52,_Remix_Guitar,-1,-1
63,100,0.11818181818181818,198,0,52,_Remix_Guitar,-1,-1
51,100,0.4818181818181818,289,0,52,_Remix_Guitar,-1,-1
46,100,0.3,531,1,52,_Remix_Guitar,-1,-1
63,100,0.5,778,1,52,_Remix_Guitar,-1,-1
51,100,0.3409090909090909,88,1,53,_Remix_Guitar,-1,-1
63,100,0.37727272727272726,171,0,53,_Remix_Guitar,-1,-1
56,100,0.1409090909090909,268,0,53,_Remix_Guitar,-1,-1
46,100,0.2818181818181818,421,0,53,_Remix_Guitar,-1,-1
58,100,0.21818181818181817,483,0,53,_Remix_Guitar,-1,-1
58,100,0.21818181818181817,568,0,53,_Remix_Guitar,-1,-1
46,100,0.1409090909090909,616,0,53,_Remix_Guitar,-1,-1
58,100,0.5590909090909091,646,0,53,_Remix_Guitar,-1,-1
51,100,0.5818181818181818,858,1,53,_Remix_Guitar,-1,-1
46,100,0.4590909090909091,518,1,54,_Remix_Guitar,-1,-1
46,100,0.33636363636363636,678,0,54,_Remix_Guitar,-1,-1
51,100,0.3409090909090909,88,1,55,_Remix_Guitar,-1,-1
51,100,0.4409090909090909,254,0,55,_Remix_Guitar,-1,-1
51,100,0.1590909090909091,370,0,55,_Remix_Guitar,-1,-1
58,100,0.1409090909090909,474,0,55,_Remix_Guitar,-1,-1
51,100,0.4818181818181818,563,0,55,_Remix_Guitar,-1,-1
58,100,0.1409090909090909,673,0,55,_Remix_Guitar,-1,-1
58,100,0.2409090909090909,796,0,55,_Remix_Guitar,-1,-1
58,100,0.13636363636363635,853,0,55,_Remix_Guitar,-1,-1
58,100,0.1590909090909091,83,1,56,_Remix_Guitar,-1,-1
60,100,0.5,141,0,56,_Remix_Guitar,-1,-1
48,100,0.21818181818181817,263,0,56,_Remix_Guitar,-1,-1
48,100,0.17727272727272728,348,0,56,_Remix_Guitar,-1,-1
60,100,0.2818181818181818,431,0,56,_Remix_Guitar,-1,-1
48,100,0.1590909090909091,518,0,56,_Remix_Guitar,-1,-1
53,100,0.1,641,0,56,_Remix_Guitar,-1,-1
46,100,0.12272727272727273,738,0,56,_Remix_Guitar,-1,-1
46,100,0.5,796,0,56,_Remix_Guitar,-1,-1
58,100,0.22272727272727272,101,1,57,_Remix_Guitar,-1,-1
50,100,0.1590909090909091,295,0,57,_Remix_Guitar,-1,-1
43,100,0.1409090909090909,338,0,57,_Remix_Guitar,-1,-1
50,100,0.1590909090909091,413,0,57,_Remix_Guitar,-1,-1
50,100,0.1409090909090909,593,0,57,_Remix_Guitar,-1,-1
50,100,0.1409090909090909,783,0,57,_Remix_Guitar,-1,-1
55,100,0.1,826,0,57,_Remix_Guitar,-1,-1
50,100,0.2,31,1,58,_Remix_Guitar,-1,-1
48,100,0.16363636363636364,421,1,58,_Remix_Guitar,-1,-1
60,100,0.16363636363636364,488,0,58,_Remix_Guitar,-1,-1
58,100,0.1,581,0,58,_Remix_Guitar,-1,-1
46,100,0.3409090909090909,813,1,58,_Remix_Guitar,-1,-1
46,100,0.18181818181818182,26,1,59,_Remix_Guitar,-1,-1
46,100,0.8181818181818182,88,0,59,_Remix_Guitar,-1,-1
55,100,0.11818181818181818,625,1,59,_Remix_Guitar,-1,-1
58,100,0.1409090909090909,770,0,59,_Remix_Guitar,-1,-1
48,100,0.2,48,1,60,_Remix_Guitar,-1,-1
48,100,0.1409090909090909,110,0,60,_Remix_Guitar,-1,-1
48,100,0.8818181818181818,158,0,60,_Remix_Guitar,-1,-1
53,100,0.12272727272727273,584,1,60,_Remix_Guitar,-1,-1
46,100,0.18181818181818182,166,1,61,_Remix_Guitar,-1,-1
46,100,0.11818181818181818,251,0,61,_Remix_Guitar,-1,-1
46,100,0.17727272727272728,338,0,61,_Remix_Guitar,-1,-1
46,100,0.4,383,0,61,_Remix_Guitar,-1,-1
58,100,0.3,96,1,62,_Remix_Guitar,-1,-1
51,100,0.18181818181818182,198,0,62,_Remix_Guitar,-1,-1
58,100,0.1409090909090909,364,0,62,_Remix_Guitar,-1,-1
51,100,0.23636363636363636,678,1,62,_Remix_Guitar,-1,-1
58,100,0.18181818181818182,738,0,62,_Remix_Guitar,-1,-1
58,100,0.22272727272727272,136,1,63,_Remix_Guitar,-1,-1
58,100,0.22272727272727272,233,0,63,_Remix_Guitar,-1,-1
51,100,0.2772727272727273,413,0,63,_Remix_Guitar,-1,-1
58,100,0.3181818181818182,616,1,63,_Remix_Guitar,-1,-1
55,100,0.2,743,0,63,_Remix_Guitar,-1,-1
51,100,0.12272727272727273,839,0,63,_Remix_Guitar,-1,-1
51,100,0.22272727272727272,113,1,64,_Remix_Guitar,-1,-1
58,100,0.21818181818181817,176,0,64,_Remix_Guitar,-1,-1
51,100,0.2,237,0,64,_Remix_Guitar,-1,-1
51,100,0.3181818181818182,392,0,64,_Remix_Guitar,-1,-1
51,100,0.4818181818181818,506,0,64,_Remix_Guitar,-1,-1
51,100,0.18181818181818182,616,0,64,_Remix_Guitar,-1,-1
51,100,0.13636363636363635,677,0,64,_Remix_Guitar,-1,-1
48,100,0.1590909090909091,787,0,64,_Remix_Guitar,-1,-1
48,100,0.4818181818181818,100,1,65,_Remix_Guitar,-1,-1
58,100,0.4,267,0,65,_Remix_Guitar,-1,-1
46,100,0.3,360,0,65,_Remix_Guitar,-1,-1
58,100,0.33636363636363636,567,1,65,_Remix_Guitar,-1,-1
58,100,0.21818181818181817,713,0,65,_Remix_Guitar,-1,-1
58,100,0.1409090909090909,343,1,66,_Remix_Guitar,-1,-1
55,100,0.1409090909090909,839,1,66,_Remix_Guitar,-1,-1
48,100,0.17727272727272728,62,1,67,_Remix_Guitar,-1,-1
48,100,0.1,140,0,67,_Remix_Guitar,-1,-1
55,100,0.1,303,0,67,_Remix_Guitar,-1,-1
55,100,0.11818181818181818,360,0,67,_Remix_Guitar,-1,-1
56,100,0.1409090909090909,422,0,67,_Remix_Guitar,-1,-1
58,100,0.1409090909090909,550,0,67,_Remix_Guitar,-1,-1
46,100,0.1,686,0,67,_Remix_Guitar,-1,-1
53,100,0.16363636363636364,839,0,67,_Remix_Guitar,-1,-1
53,100,0.2,30,1,68,_Remix_Guitar,-1,-1
58,100,0.3409090909090909,223,0,68,_Remix_Guitar,-1,-1
58,100,0.3181818181818182,339,0,68,_Remix_Guitar,-1,-1
58,100,0.3181818181818182,436,0,68,_Remix_Guitar,-1,-1
58,100,0.3,527,0,68,_Remix_Guitar,-1,-1
48,100,0.1,673,0,68,_Remix_Guitar,-1,-1
48,100,0.2590909090909091,853,0,68,_Remix_Guitar,-1,-1
48,100,0.1,56,1,69,_Remix_Guitar,-1,-1
58,100,0.17727272727272728,163,0,69,_Remix_Guitar,-1,-1
53,100,0.17727272727272728,347,0,69,_Remix_Guitar,-1,-1
56,100,0.1409090909090909,637,1,69,_Remix_Guitar,-1,-1
53,100,0.2590909090909091,722,0,69,_Remix_Guitar,-1,-1
53,100,0.1590909090909091,832,0,69,_Remix_Guitar,-1,-1
53,100,0.18181818181818182,47,1,70,_Remix_Guitar,-1,-1
53,100,0.4,127,0,70,_Remix_Guitar,-1,-1
46,100,0.41818181818181815,316,0,70,_Remix_Guitar,-1,-1
58,100,0.11818181818181818,417,0,70,_Remix_Guitar,-1,-1
46,100,0.1590909090909091,585,0,70,_Remix_Guitar,-1,-1
58,100,0.12272727272727273,783,0,70,_Remix_Guitar,-1,-1
46,100,0.1590909090909091,832,0,70,_Remix_Guitar,-1,-1
58,100,0.1,30,1,71,_Remix_Guitar,-1,-1
58,100,0.1590909090909091,140,0,71,_Remix_Guitar,-1,-1
58,100,0.3409090909090909,184,0,71,_Remix_Guitar,-1,-1
58,100,0.12272727272727273,333,0,71,_Remix_Guitar,-1,-1
56,100,0.1590909090909091,496,0,71,_Remix_Guitar,-1,-1
58,100,0.12272727272727273,752,1,71,_Remix_Guitar,-1,-1
58,100,0.18181818181818182,43,1,72,_Remix_Guitar,-1,-1
58,100,0.1590909090909091,189,0,72,_Remix_Guitar,-1,-1
58,100,0.1409090909090909,462,1,72,_Remix_Guitar,-1,-1
46,100,0.2818181818181818,506,0,72,_Remix_Guitar,-1,-1
58,100,0.1,619,0,72,_Remix_Guitar,-1,-1
55,100,0.17727272727272728,722,0,72,_Remix_Guitar,-1,-1
58,100,0.2,0,1,73,_Remix_Guitar,-1,-1
55,100,0.12272727272727273,365,1,73,_Remix_Guitar,-1,-1
56,100,0.2,779,1,73,_Remix_Guitar,-1,-1
56,100,0.1590909090909091,836,0,73,_Remix_Guitar,-1,-1
58,100,0.2818181818181818,47,1,74,_Remix_Guitar,-1,-1
58,100,0.2409090909090909,136,0,74,_Remix_Guitar,-1,-1
58,100,0.1,250,0,74,_Remix_Guitar,-1,-1
58,100,0.22272727272727272,276,0,74,_Remix_Guitar,-1,-1
46,100,0.3409090909090909,356,0,74,_Remix_Guitar,-1,-1
53,100,0.2409090909090909,449,0,74,_Remix_Guitar,-1,-1
46,100,0.1409090909090909,532,0,74,_Remix_Guitar,-1,-1
58,100,0.2409090909090909,726,0,74,_Remix_Guitar,-1,-1
55,100,0.18181818181818182,813,0,74,_Remix_Guitar,-1,-1
58,100,0.18181818181818182,0,1,75,_Remix_Guitar,-1,-1
55,100,0.35909090909090907,237,1,75,_Remix_Guitar,-1,-1
51,100,0.13636363636363635,480,1,75,_Remix_Guitar,-1,-1
51,100,0.11818181818181818,590,0,75,_Remix_Guitar,-1,-1
56,100,0.1409090909090909,796,1,75,_Remix_Guitar,-1,-1
56,100,0.17727272727272728,876,0,75,_Remix_Guitar,-1,-1
44,100,0.1590909090909091,66,1,76,_Remix_Guitar,-1,-1
46,100,0.2,316,1,76,_Remix_Guitar,-1,-1
58,100,0.2409090909090909,399,0,76,_Remix_Guitar,-1,-1
58,100,0.12272727272727273,553,0,76,_Remix_Guitar,-1,-1
58,100,0.22272727272727272,597,0,76,_Remix_Guitar,-1,-1
55,100,0.17727272727272728,832,1,76,_Remix_Guitar,-1,-1
58,100,0.1409090909090909,43,1,77,_Remix_Guitar,-1,-1
63,100,0.23636363636363636,436,1,77,_Remix_Guitar,-1,-1
63,100,0.3,593,0,77,_Remix_Guitar,-1,-1
53,100,0.3181818181818182,0,1,78,_Remix_Guitar,-1,-1
53,100,0.13636363636363635,106,0,78,_Remix_Guitar,-1,-1
53,100,0.4590909090909091,166,0,78,_Remix_Guitar,-1,-1
53,100,0.7,343,0,78,_Remix_Guitar,-1,-1
53,100,0.4818181818181818,619,1,78,_Remix_Guitar,-1,-1
53,100,0.11818181818181818,770,0,78,_Remix_Guitar,-1,-1
53,100,0.1,800,0,78,_Remix_Guitar,-1,-1
53,100,0.11818181818181818,857,0,78,_Remix_Guitar,-1,-1
58,100,0.12272727272727273,79,1,79,_Remix_Guitar,-1,-1
58,100,0.1590909090909091,119,0,79,_Remix_Guitar,-1,-1
63,100,0.7,246,0,79,_Remix_Guitar,-1,-1
53,100,0.35909090909090907,660,1,79,_Remix_Guitar,-1,-1
53,100,0.2,22,1,80,_Remix_Guitar,-1,-1
46,100,0.1409090909090909,163,0,80,_Remix_Guitar,-1,-1
58,100,0.1409090909090909,333,0,80,_Remix_Guitar,-1,-1
53,100,0.2409090909090909,409,0,80,_Remix_Guitar,-1,-1
53,100,0.21818181818181817,506,0,80,_Remix_Guitar,-1,-1
53,100,0.11818181818181818,616,0,80,_Remix_Guitar,-1,-1
53,100,0.1409090909090909,686,0,80,_Remix_Guitar,-1,-1
46,100,0.2,417,1,81,_Remix_Guitar,-1,-1
55,100,0.1,800,1,81,_Remix_Guitar,-1,-1
55,100,0.38181818181818183,166,1,82,_Remix_Guitar,-1,-1
48,100,0.5409090909090909,307,0,82,_Remix_Guitar,-1,-1
48,100,0.18181818181818182,483,0,82,_Remix_Guitar,-1,-1
48,100,0.4818181818181818,527,0,82,_Remix_Guitar,-1,-1
48,100,0.11818181818181818,682,0,82,_Remix_Guitar,-1,-1
48,100,0.2,722,0,82,_Remix_Guitar,-1,-1
48,100,0.21818181818181817,836,0,82,_Remix_Guitar,-1,-1
63,100,0.2,13,1,83,_Remix_Guitar,-1,-1
48,100,0.2590909090909091,140,0,83,_Remix_Guitar,-1,-1
48,100,0.2,282,0,83,_Remix_Guitar,-1,-1
44,100,0.1409090909090909,443,0,83,_Remix_Guitar,-1,-1
58,100,0.11818181818181818,792,1,83,_Remix_Guitar,-1,-1
46,100,0.2,96,1,84,_Remix_Guitar,-1,-1
46,100,0.16363636363636364,356,1,84,_Remix_Guitar,-1,-1
58,100,0.1409090909090909,823,1,84,_Remix_Guitar,-1,-1
58,100,0.1590909090909091,857,0,84,_Remix_Guitar,-1,-1
48,100,0.32272727272727275,79,1,85,_Remix_Guitar,-1,-1
58,100,0.2772727272727273,216,0,85,_Remix_Guitar,-1,-1
58,100,0.5,299,0,85,_Remix_Guitar,-1,-1
46,100,0.21818181818181817,417,0,85,_Remix_Guitar,-1,-1
46,100,0.1,470,0,85,_Remix_Guitar,-1,-1
56,100,0.2409090909090909,550,0,85,_Remix_Guitar,-1,-1
58,100,0.17727272727272728,62,1,86,_Remix_Guitar,-1,-1
46,100,0.2409090909090909,163,0,86,_Remix_Guitar,-1,-1
53,100,0.42272727272727273,255,0,86,_Remix_Guitar,-1,-1
53,100,0.1590909090909091,453,0,86,_Remix_Guitar,-1,-1
55,100,0.2,673,1,86,_Remix_Guitar,-1,-1
48,100,0.1590909090909091,237,1,87,_Remix_Guitar,-1,-1
60,100,0.1,289,0,87,_Remix_Guitar,-1,-1
60,100,0.2,413,0,87,_Remix_Guitar,-1,-1
60,100,0.18181818181818182,462,0,87,_Remix_Guitar,-1,-1
60,100,0.2,519,0,87,_Remix_Guitar,-1,-1
48,100,0.3181818181818182,612,0,87,_Remix_Guitar,-1,-1
60,100,0.11818181818181818,743,0,87,_Remix_Guitar,-1,-1
60,100,0.11818181818181818,876,0,87,_Remix_Guitar,-1,-1
60,100,0.13636363636363635,62,1,88,_Remix_Guitar,-1,-1
48,100,0.21818181818181817,176,0,88,_Remix_Guitar,-1,-1
41,100,0.2,360,0,88,_Remix_Guitar,-1,-1
46,100,0.2772727272727273,119,1,89,_Remix_Guitar,-1,-1
58,100,0.3,179,0,89,_Remix_Guitar,-1,-1
46,100,0.3181818181818182,286,0,89,_Remix_Guitar,-1,-1
46,100,0.17727272727272728,493,1,89,_Remix_Guitar,-1,-1
46,100,0.21818181818181817,624,0,89,_Remix_Guitar,-1,-1
60,100,0.12272727272727273,145,1,90,_Remix_Guitar,-1,-1
60,100,0.41818181818181815,193,0,90,_Remix_Guitar,-1,-1
53,100,0.21818181818181817,470,1,90,_Remix_Guitar,-1,-1
46,100,0.21818181818181817,866,1,90,_Remix_Guitar,-1,-1
46,100,0.1,62,1,91,_Remix_Guitar,-1,-1
51,100,0.1590909090909091,263,1,92,_Remix_Guitar,-1,-1
63,100,0.1590909090909091,339,0,92,_Remix_Guitar,-1,-1
51,100,0.21818181818181817,436,0,92,_Remix_Guitar,-1,-1
58,100,0.13636363636363635,567,0,92,_Remix_Guitar,-1,-1
58,100,0.2590909090909091,637,0,92,_Remix_Guitar,-1,-1
58,100,0.13636363636363635,700,0,92,_Remix_Guitar,-1,-1
46,100,0.12272727272727273,739,0,92,_Remix_Guitar,-1,-1
46,100,0.3181818181818182,836,0,92,_Remix_Guitar,-1,-1
46,100,0.1409090909090909,30,1,93,_Remix_Guitar,-1,-1
46,100,0.11818181818181818,96,0,93,_Remix_Guitar,-1,-1
46,100,0.11818181818181818,127,0,93,_Remix_Guitar,-1,-1
58,100,0.12272727272727273,466,1,93,_Remix_Guitar,-1,-1
63,100,0.21818181818181817,523,0,93,_Remix_Guitar,-1,-1
58,100,0.1,17,1,94,_Remix_Guitar,-1,-1
63,100,0.1590909090909091,176,0,94,_Remix_Guitar,-1,-1
63,100,0.3181818181818182,216,0,94,_Remix_Guitar,-1,-1
53,100,0.1,289,0,94,_Remix_Guitar,-1,-1
53,100,0.3409090909090909,660,1,94,_Remix_Guitar,-1,-1
50,100,0.1,844,0,94,_Remix_Guitar,-1,-1
50,100,0.13636363636363635,17,1,95,_Remix_Guitar,-1,-1
58,100,0.4772727272727273,83,0,95,_Remix_Guitar,-1,-1
58,100,0.17727272727272728,206,0,95,_Remix_Guitar,-1,-1
53,100,0.1,303,0,95,_Remix_Guitar,-1,-1
48,100,0.2818181818181818,563,1,95,_Remix_Guitar,-1,-1
63,100,0.4772727272727273,624,0,95,_Remix_Guitar,-1,-1
46,100,0.1590909090909091,106,1,97,_Remix_Guitar,-1,-1
53,100,0.2818181818181818,166,0,97,_Remix_Guitar,-1,-1
46,100,0.2772727272727273,413,1,97,_Remix_Guitar,-1,-1
58,100,0.23636363636363636,480,0,97,_Remix_Guitar,-1,-1
63,100,0.2,550,0,97,_Remix_Guitar,-1,-1
63,100,0.759090909090909,716,0,97,_Remix_Guitar,-1,-1
58,100,0.13636363636363635,83,1,98,_Remix_Guitar,-1,-1
63,100,0.1409090909090909,443,1,98,_Remix_Guitar,-1,-1
63,100,0.2,876,1,98,_Remix_Guitar,-1,-1
53,100,0.21818181818181817,96,1,99,_Remix_Guitar,-1,-1
63,100,0.23636363636363636,150,0,99,_Remix_Guitar,-1,-1
53,100,0.33636363636363636,216,0,99,_Remix_Guitar,-1,-1
53,100,0.2409090909090909,333,0,99,_Remix_Guitar,-1,-1
53,100,0.1590909090909091,449,0,99,_Remix_Guitar,-1,-1
53,100,0.17727272727272728,502,0,99,_Remix_Guitar,-1,-1
58,100,0.6227272727272727,695,0,99,_Remix_Guitar,-1,-1
53,100,0.42272727272727273,870,0,99,_Remix_Guitar,-1,-1
46,100,0.1590909090909091,145,1,100,_Remix_Guitar,-1,-1
58,100,0.3409090909090909,179,0,100,_Remix_Guitar,-1,-1
58,100,0.1409090909090909,365,0,100,_Remix_Guitar,-1,-1
53,100,0.3,470,0,100,_Remix_Guitar,-1,-1
46,100,0.16363636363636364,553,0,100,_Remix_Guitar,-1,-1
46,100,0.17727272727272728,612,0,100,_Remix_Guitar,-1,-1
46,100,0.17727272727272728,83,1,101,_Remix_Guitar,-1,-1
46,100,0.2,157,0,101,_Remix_Guitar,-1,-1
46,100,0.1409090909090909,443,1,101,_Remix_Guitar,-1,-1
58,100,0.12272727272727273,540,0,101,_Remix_Guitar,-1,-1
58,100,0.1590909090909091,703,0,101,_Remix_Guitar,-1,-1
51,100,0.7181818181818181,62,1,103,_Remix_Guitar,-1,-1
51,100,0.8818181818181818,333,1,103,_Remix_Guitar,-1,-1
53,100,0.18181818181818182,532,1,103,_Remix_Guitar,-1,-1
62,100,1.018181818181818,722,0,103,_Remix_Guitar,-1,-1
51,100,0.2,150,1,104,_Remix_Guitar,-1,-1
63,100,0.1409090909090909,197,0,104,_Remix_Guitar,-1,-1
58,100,1.3772727272727272,360,0,104,_Remix_Guitar,-1,-1
58,100,0.11818181818181818,669,1,104,_Remix_Guitar,-1,-1
58,100,1.459090909090909,703,0,104,_Remix_Guitar,-1,-1
51,100,0.6409090909090909,206,1,105,_Remix_Guitar,-1,-1
44,100,0.1590909090909091,514,1,105,_Remix_Guitar,-1,-1
56,100,0.21818181818181817,567,0,105,_Remix_Guitar,-1,-1
44,100,0.2590909090909091,629,0,105,_Remix_Guitar,-1,-1
62,100,0.1409090909090909,695,0,105,_Remix_Guitar,-1,-1
46,100,0.1590909090909091,132,1,106,_Remix_Guitar,-1,-1
51,100,4.277272727272727,303,0,106,_Remix_Guitar,-1,-1
51,100,0.3,392,1,107,_Remix_Guitar,-1,-1
51,100,0.2409090909090909,483,0,107,_Remix_Guitar,-1,-1
58,100,0.1590909090909091,826,1,107,_Remix_Guitar,-1,-1
46,100,0.740909090909091,862,0,107,_Remix_Guitar,-1,-1
63,100,0.3,260,1,108,_Remix_Guitar,-1,-1
58,100,0.5,343,0,108,_Remix_Guitar,-1,-1
43,100,0.13636363636363635,502,0,108,_Remix_Guitar,-1,-1
58,100,1.3772727272727272,633,0,108,_Remix_Guitar,-1,-1
48,100,0.22272727272727272,189,1,109,_Remix_Guitar,-1,-1
41,100,0.32272727272727275,585,1,109,_Remix_Guitar,-1,-1
63,100,0.4,713,0,109,_Remix_Guitar,-1,-1
63,100,0.21818181818181817,832,0,109,_Remix_Guitar,-1,-1
58,100,0.12272727272727273,47,1,110,_Remix_Guitar,-1,-1
58,100,0.13636363636363635,260,1,110,_Remix_Guitar,-1,-1
63,100,0.759090909090909,506,1,110,_Remix_Guitar,-1,-1
58,100,0.3,695,0,110,_Remix_Guitar,-1,-1
63,100,0.21818181818181817,792,0,110,_Remix_Guitar,-1,-1
63,100,0.2,92,1,111,_Remix_Guitar,-1,-1
58,100,0.1,179,0,111,_Remix_Guitar,-1,-1
63,100,0.13636363636363635,237,0,111,_Remix_Guitar,-1,-1
63,100,0.2818181818181818,377,0,111,_Remix_Guitar,-1,-1
63,100,0.42272727272727273,443,0,111,_Remix_Guitar,-1,-1
46,100,0.2818181818181818,703,1,111,_Remix_Guitar,-1,-1
46,100,0.2818181818181818,770,0,111,_Remix_Guitar,-1,-1
46,100,0.1,17,1,112,_Remix_Guitar,-1,-1
46,100,0.5,56,0,112,_Remix_Guitar,-1,-1
46,100,0.2818181818181818,299,1,112,_Remix_Guitar,-1,-1
63,100,0.7227272727272728,443,0,112,_Remix_Guitar,-1,-1
62,100,0.1409090909090909,616,0,112,_Remix_Guitar,-1,-1
58,100,0.2818181818181818,770,0,112,_Remix_Guitar,-1,-1
46,100,3.959090909090909,844,0,112,_Remix_Guitar,-1,-1
60,100,0.7818181818181819,839,1,113,_Remix_Guitar,-1,-1
58,100,0.2,157,1,114,_Remix_Guitar,-1,-1
63,100,0.3409090909090909,206,0,114,_Remix_Guitar,-1,-1
63,100,0.4,312,0,114,_Remix_Guitar,-1,-1
58,100,0.4,593,1,114,_Remix_Guitar,-1,-1
63,100,0.6,686,0,114,_Remix_Guitar,-1,-1
58,100,0.4590909090909091,826,0,114,_Remix_Guitar,-1,-1
51,100,0.11818181818181818,62,1,115,_Remix_Guitar,-1,-1
63,100,0.6,294,1,115,_Remix_Guitar,-1,-1
63,100,0.3,449,0,115,_Remix_Guitar,-1,-1
55,100,0.4818181818181818,540,0,115,_Remix_Guitar,-1,-1
58,100,0.11818181818181818,656,0,115,_Remix_Guitar,-1,-1
58,100,0.4,686,0,115,_Remix_Guitar,-1,-1
63,100,0.4409090909090909,792,0,115,_Remix_Guitar,-1,-1
58,100,0.43636363636363634,17,1,116,_Remix_Guitar,-1,-1
60,100,0.6227272727272727,123,0,116,_Remix_Guitar,-1,-1
58,100,0.4590909090909091,263,0,116,_Remix_Guitar,-1,-1
63,100,0.5590909090909091,370,0,116,_Remix_Guitar,-1,-1
63,100,0.23636363636363636,546,0,116,_Remix_Guitar,-1,-1
58,100,0.5409090909090909,606,0,116,_Remix_Guitar,-1,-1
58,100,0.4,760,0,116,_Remix_Guitar,-1,-1
62,100,0.5181818181818182,87,1,117,_Remix_Guitar,-1,-1
55,100,0.4,242,0,117,_Remix_Guitar,-1,-1
63,100,1.059090909090909,453,1,117,_Remix_Guitar,-1,-1
55,100,0.4818181818181818,703,1,117,_Remix_Guitar,-1,-1
58,100,0.4772727272727273,823,0,117,_Remix_Guitar,-1,-1
63,100,0.4409090909090909,69,1,118,_Remix_Guitar,-1,-1
58,100,0.5181818181818182,176,0,118,_Remix_Guitar,-1,-1
53,100,0.1590909090909091,303,0,118,_Remix_Guitar,-1,-1
53,100,0.3,343,0,118,_Remix_Guitar,-1,-1
58,100,0.41818181818181815,417,0,118,_Remix_Guitar,-1,-1
62,100,0.5818181818181818,527,0,118,_Remix_Guitar,-1,-1
58,100,0.1409090909090909,663,0,118,_Remix_Guitar,-1,-1
62,100,0.2636363636363636,707,0,118,_Remix_Guitar,-1,-1
63,100,0.1,857,0,118,_Remix_Guitar,-1,-1
58,100,0.11818181818181818,17,1,119,_Remix_Guitar,-1,-1
63,100,0.7,119,0,119,_Remix_Guitar,-1,-1
63,100,0.11818181818181818,326,1,119,_Remix_Guitar,-1,-1
55,100,0.4409090909090909,396,0,119,_Remix_Guitar,-1,-1
58,100,0.4590909090909091,502,0,119,_Remix_Guitar,-1,-1
63,100,0.5772727272727273,612,0,119,_Remix_Guitar,-1,-1
58,100,0.41818181818181815,743,0,119,_Remix_Guitar,-1,-1
55,100,0.4409090909090909,866,0,119,_Remix_Guitar,-1,-1
63,100,0.5,216,1,120,_Remix_Guitar,-1,-1
58,100,0.5,330,0,120,_Remix_Guitar,-1,-1
56,100,0.2409090909090909,466,0,120,_Remix_Guitar,-1,-1
56,100,0.7,523,0,120,_Remix_Guitar,-1,-1
63,100,0.5409090909090909,695,0,120,_Remix_Guitar,-1,-1
58,100,0.4,826,0,120,_Remix_Guitar,-1,-1
56,100,0.5181818181818182,53,1,121,_Remix_Guitar,-1,-1
58,100,0.2,176,0,121,_Remix_Guitar,-1,-1
58,100,0.3,223,0,121,_Remix_Guitar,-1,-1
58,100,0.3,436,1,121,_Remix_Guitar,-1,-1
51,100,0.18181818181818182,540,0,121,_Remix_Guitar,-1,-1
56,100,0.3409090909090909,585,0,121,_Remix_Guitar,-1,-1
56,100,0.1590909090909091,734,0,121,_Remix_Guitar,-1,-1
56,100,0.2,810,0,121,_Remix_Guitar,-1,-1
56,100,0.1409090909090909,857,0,121,_Remix_Guitar,-1,-1
58,100,0.3,43,1,122,_Remix_Guitar,-1,-1
56,100,0.1,136,0,122,_Remix_Guitar,-1,-1
55,100,0.2,193,0,122,_Remix_Guitar,-1,-1
58,100,0.1409090909090909,255,0,122,_Remix_Guitar,-1,-1
58,100,0.3409090909090909,289,0,122,_Remix_Guitar,-1,-1
63,100,0.5227272727272727,377,0,122,_Remix_Guitar,-1,-1
58,100,0.43636363636363634,502,0,122,_Remix_Guitar,-1,-1
58,100,1.018181818181818,624,0,122,_Remix_Guitar,-1,-1
63,100,0.5590909090909091,849,1,122,_Remix_Guitar,-1,-1
62,100,0.6227272727272727,92,1,123,_Remix_Guitar,-1,-1
62,100,0.4,255,0,123,_Remix_Guitar,-1,-1
62,100,0.11818181818181818,370,0,123,_Remix_Guitar,-1,-1
58,100,0.1,593,1,123,_Remix_Guitar,-1,-1
58,100,0.2772727272727273,823,1,123,_Remix_Guitar,-1,-1
51,100,0.3409090909090909,92,1,124,_Remix_Guitar,-1,-1
51,100,0.4590909090909091,184,0,124,_Remix_Guitar,-1,-1
46,100,0.5409090909090909,299,0,124,_Remix_Guitar,-1,-1
46,100,0.17727272727272728,436,0,124,_Remix_Guitar,-1,-1
58,100,0.18181818181818182,66,1,125,_Remix_Guitar,-1,-1
58,100,0.3181818181818182,172,0,125,_Remix_Guitar,-1,-1
58,100,0.1,333,0,125,_Remix_Guitar,-1,-1
63,100,0.2772727272727273,502,0,125,_Remix_Guitar,-1,-1
58,100,0.1409090909090909,817,1,125,_Remix_Guitar,-1,-1
46,100,0.11818181818181818,493,1,126,_Remix_Guitar,-1,-1
46,100,0.22272727272727272,629,0,126,_Remix_Guitar,-1,-1
62,100,0.17727272727272728,779,0,126,_Remix_Guitar,-1,-1
62,100,0.2,876,0,126,_Remix_Guitar,-1,-1
51,100,0.2590909090909091,83,1,127,_Remix_Guitar,-1,-1
51,100,0.4590909090909091,210,0,127,_Remix_Guitar,-1,-1
63,100,0.41818181818181815,316,0,127,_Remix_Guitar,-1,-1
51,100,0.42272727272727273,576,1,127,_Remix_Guitar,-1,-1
51,100,1.059090909090909,770,0,127,_Remix_Guitar,-1,-1
58,100,0.2409090909090909,264,1,128,_Remix_Guitar,-1,-1
58,100,0.33636363636363636,633,1,128,_Remix_Guitar,-1,-1
62,100,0.7227272727272728,773,0,128,_Remix_Guitar,-1,-1
46,100,0.1590909090909091,97,1,129,_Remix_Guitar,-1,-1
58,100,0.1590909090909091,611,1,129,_Remix_Guitar,-1,-1
58,100,0.1,778,0,129,_Remix_Guitar,-1,-1
48,100,0.12272727272727273,56,1,130,_Remix_Guitar,-1,-1
58,100,0.2,242,0,130,_Remix_Guitar,-1,-1
58,100,0.1,452,1,130,_Remix_Guitar,-1,-1
60,100,0.17727272727272728,501,0,130,_Remix_Guitar,-1,-1
58,100,0.3,606,0,130,_Remix_Guitar,-1,-1
58,100,0.2636363636363636,818,1,130,_Remix_Guitar,-1,-1
51,100,0.11818181818181818,132,1,131,_Remix_Guitar,-1,-1
63,100,0.1,158,0,131,_Remix_Guitar,-1,-1
63,100,0.1409090909090909,211,0,131,_Remix_Guitar,-1,-1
58,100,0.17727272727272728,250,0,131,_Remix_Guitar,-1,-1
58,100,0.35909090909090907,364,0,131,_Remix_Guitar,-1,-1
46,100,0.3409090909090909,22,1,132,_Remix_Guitar,-1,-1
46,100,0.1590909090909091,391,1,132,_Remix_Guitar,-1,-1
58,100,0.3,83,1,133,_Remix_Guitar,-1,-1
58,100,0.1,189,0,133,_Remix_Guitar,-1,-1
58,100,0.18181818181818182,400,1,133,_Remix_Guitar,-1,-1
46,100,0.18181818181818182,440,0,133,_Remix_Guitar,-1,-1
51,100,1.8772727272727272,580,0,133,_Remix_Guitar,-1,-1
60,100,0.11818181818181818,140,1,134,_Remix_Guitar,-1,-1
51,100,0.8227272727272728,189,0,134,_Remix_Guitar,-1,-1
51,100,0.11818181818181818,374,0,134,_Remix_Guitar,-1,-1
63,100,1.2,611,1,134,_Remix_Guitar,-1,-1
63,100,0.4818181818181818,0,1,135,_Remix_Guitar,-1,-1
51,100,0.4,106,0,135,_Remix_Guitar,-1,-1
51,100,0.2818181818181818,330,1,135,_Remix_Guitar,-1,-1
58,100,0.17727272727272728,656,1,135,_Remix_Guitar,-1,-1
46,100,0.11818181818181818,845,0,135,_Remix_Guitar,-1,-1
58,100,0.11818181818181818,18,1,136,_Remix_Guitar,-1,-1
58,100,0.2,122,0,136,_Remix_Guitar,-1,-1
63,100,0.18181818181818182,421,1,136,_Remix_Guitar,-1,-1
58,100,0.11818181818181818,493,0,136,_Remix_Guitar,-1,-1
58,100,0.4409090909090909,541,0,136,_Remix_Guitar,-1,-1
63,100,0.1409090909090909,682,0,136,_Remix_Guitar,-1,-1
63,100,0.1590909090909091,721,0,136,_Remix_Guitar,-1,-1
58,100,0.1409090909090909,166,1,137,_Remix_Guitar,-1,-1
58,100,0.1,378,1,137,_Remix_Guitar,-1,-1
58,100,0.7818181818181819,553,0,137,_Remix_Guitar,-1,-1
63,100,0.21818181818181817,747,0,137,_Remix_Guitar,-1,-1
58,100,0.18181818181818182,3,1,138,_Remix_Guitar,-1,-1
58,100,0.6409090909090909,185,0,138,_Remix_Guitar,-1,-1
63,100,0.1409090909090909,409,1,138,_Remix_Guitar,-1,-1
51,100,0.5181818181818182,458,0,138,_Remix_Guitar,-1,-1
51,100,0.3,576,0,138,_Remix_Guitar,-1,-1
51,100,0.1590909090909091,668,0,138,_Remix_Guitar,-1,-1
51,100,0.1590909090909091,716,0,138,_Remix_Guitar,-1,-1
51,100,0.21818181818181817,757,0,138,_Remix_Guitar,-1,-1
51,100,0.4,840,0,138,_Remix_Guitar,-1,-1
51,100,0.16363636363636364,136,1,139,_Remix_Guitar,-1,-1
51,100,0.4636363636363636,180,0,139,_Remix_Guitar,-1,-1
58,100,0.1409090909090909,307,0,139,_Remix_Guitar,-1,-1
51,100,0.1,259,1,140,_Remix_Guitar,-1,-1
51,100,0.41818181818181815,615,1,140,_Remix_Guitar,-1,-1
58,100,0.2,739,0,140,_Remix_Guitar,-1,-1
58,100,0.41818181818181815,800,0,140,_Remix_Guitar,-1,-1
58,100,0.2409090909090909,158,1,141,_Remix_Guitar,-1,-1
51,100,0.1,220,0,141,_Remix_Guitar,-1,-1
51,100,0.1,576,1,141,_Remix_Guitar,-1,-1
51,100,0.13636363636363635,678,0,141,_Remix_Guitar,-1,-1
46,100,0.35909090909090907,725,0,141,_Remix_Guitar,-1,-1
46,100,0.12272727272727273,3,1,142,_Remix_Guitar,-1,-1
58,100,0.1,30,0,142,_Remix_Guitar,-1,-1
58,100,0.2590909090909091,110,0,142,_Remix_Guitar,-1,-1
58,100,0.2409090909090909,223,0,142,_Remix_Guitar,-1,-1
51,100,0.12272727272727273,299,0,142,_Remix_Guitar,-1,-1
63,100,0.1,496,0,142,_Remix_Guitar,-1,-1
51,100,0.1409090909090909,527,0,142,_Remix_Guitar,-1,-1
63,100,0.12272727272727273,576,0,142,_Remix_Guitar,-1,-1
63,100,0.1,792,1,142,_Remix_Guitar,-1,-1
51,100,0.2,814,0,142,_Remix_Guitar,-1,-1
58,100,0.17727272727272728,18,1,143,_Remix_Guitar,-1,-1
58,100,0.17727272727272728,140,0,143,_Remix_Guitar,-1,-1
51,100,0.21818181818181817,264,0,143,_Remix_Guitar,-1,-1
58,100,0.2,326,0,143,_Remix_Guitar,-1,-1
58,100,0.17727272727272728,436,0,143,_Remix_Guitar,-1,-1
51,100,0.2409090909090909,663,1,143,_Remix_Guitar,-1,-1
51,100,0.12272727272727273,730,0,143,_Remix_Guitar,-1,-1
51,100,0.1409090909090909,0,1,144,_Remix_Guitar,-1,-1
51,100,0.1409090909090909,220,1,144,_Remix_Guitar,-1,-1
63,100,0.2,338,0,144,_Remix_Guitar,-1,-1
46,100,0.1409090909090909,462,0,144,_Remix_Guitar,-1,-1
58,100,0.2,505,0,144,_Remix_Guitar,-1,-1
58,100,0.1409090909090909,594,0,144,_Remix_Guitar,-1,-1
46,100,0.1,641,0,144,_Remix_Guitar,-1,-1
46,100,0.3,668,0,144,_Remix_Guitar,-1,-1
58,100,0.3409090909090909,735,0,144,_Remix_Guitar,-1,-1
58,100,0.2818181818181818,826,0,144,_Remix_Guitar,-1,-1
51,100,0.6,53,1,145,_Remix_Guitar,-1,-1
51,100,0.2636363636363636,311,1,145,_Remix_Guitar,-1,-1
51,100,0.1409090909090909,421,0,145,_Remix_Guitar,-1,-1
51,100,0.1,527,0,145,_Remix_Guitar,-1,-1
58,100,0.11818181818181818,704,0,145,_Remix_Guitar,-1,-1
46,100,0.4772727272727273,140,1,146,_Remix_Guitar,-1,-1
46,100,0.2,259,0,146,_Remix_Guitar,-1,-1
58,100,0.2409090909090909,431,0,146,_Remix_Guitar,-1,-1
46,100,0.1,515,0,146,_Remix_Guitar,-1,-1
58,100,0.2772727272727273,537,0,146,_Remix_Guitar,-1,-1
48,100,0.11818181818181818,660,0,146,_Remix_Guitar,-1,-1
56,100,0.12272727272727273,575,1,4,_Remix_Guitar,-1,-1
51,100,0.3,685,0,4,_Remix_Guitar,-1,-1
58,100,0.18181818181818182,66,1,5,_Remix_Guitar,-1,-1
58,100,0.1,128,0,5,_Remix_Guitar,-1,-1
58,100,0.12272727272727273,232,0,5,_Remix_Guitar,-1,-1
56,100,0.13636363636363635,391,0,5,_Remix_Guitar,-1,-1
63,100,0.12272727272727273,431,0,5,_Remix_Guitar,-1,-1
56,100,0.2590909090909091,550,0,5,_Remix_Guitar,-1,-1
51,100,0.1,729,0,5,_Remix_Guitar,-1,-1
58,100,0.22272727272727272,12,1,6,_Remix_Guitar,-1,-1
55,100,0.2,399,1,6,_Remix_Guitar,-1,-1
55,100,0.21818181818181817,493,0,6,_Remix_Guitar,-1,-1
51,100,0.1590909090909091,545,0,6,_Remix_Guitar,-1,-1
55,100,0.13636363636363635,678,0,6,_Remix_Guitar,-1,-1
51,100,0.21818181818181817,150,1,7,_Remix_Guitar,-1,-1
51,100,0.1409090909090909,207,0,7,_Remix_Guitar,-1,-1
51,100,0.2,396,0,7,_Remix_Guitar,-1,-1
55,100,0.1409090909090909,581,0,7,_Remix_Guitar,-1,-1
55,100,0.1,810,1,7,_Remix_Guitar,-1,-1
51,100,0.1,849,0,7,_Remix_Guitar,-1,-1
63,100,0.22272727272727272,871,0,7,_Remix_Guitar,-1,-1
51,100,0.2,53,1,8,_Remix_Guitar,-1,-1
51,100,0.1409090909090909,135,0,8,_Remix_Guitar,-1,-1
56,100,0.4818181818181818,254,0,8,_Remix_Guitar,-1,-1
51,100,0.18181818181818182,541,1,8,_Remix_Guitar,-1,-1
51,100,0.1,598,0,8,_Remix_Guitar,-1,-1
58,100,0.11818181818181818,814,1,8,_Remix_Guitar,-1,-1
55,100,0.11818181818181818,22,1,9,_Remix_Guitar,-1,-1
51,100,0.12272727272727273,123,0,9,_Remix_Guitar,-1,-1
51,100,0.2409090909090909,417,1,9,_Remix_Guitar,-1,-1
51,100,0.21818181818181817,484,0,9,_Remix_Guitar,-1,-1
51,100,0.17727272727272728,611,0,9,_Remix_Guitar,-1,-1
51,100,0.5590909090909091,725,0,9,_Remix_Guitar,-1,-1
51,100,0.1590909090909091,96,1,10,_Remix_Guitar,-1,-1
51,100,0.3,163,0,10,_Remix_Guitar,-1,-1
58,100,0.12272727272727273,553,1,10,_Remix_Guitar,-1,-1
51,100,0.1590909090909091,637,0,10,_Remix_Guitar,-1,-1
51,100,0.2590909090909091,691,0,10,_Remix_Guitar,-1,-1
51,100,0.1590909090909091,756,0,10,_Remix_Guitar,-1,-1
51,100,0.11818181818181818,823,0,10,_Remix_Guitar,-1,-1
51,100,0.1,862,0,10,_Remix_Guitar,-1,-1
51,100,0.18181818181818182,113,1,11,_Remix_Guitar,-1,-1
51,100,0.17727272727272728,831,1,11,_Remix_Guitar,-1,-1
50,100,0.1,581,1,12,_Remix_Guitar,-1,-1
43,100,0.21818181818181817,854,1,12,_Remix_Guitar,-1,-1
58,100,0.12272727272727273,101,1,13,_Remix_Guitar,-1,-1
50,100,0.1590909090909091,154,0,13,_Remix_Guitar,-1,-1
50,100,0.1590909090909091,194,0,13,_Remix_Guitar,-1,-1
51,100,0.12272727272727273,276,0,13,_Remix_Guitar,-1,-1
51,100,0.1,312,0,13,_Remix_Guitar,-1,-1
56,100,0.16363636363636364,465,0,13,_Remix_Guitar,-1,-1
51,100,0.2,795,1,13,_Remix_Guitar,-1,-1
51,100,0.17727272727272728,876,0,13,_Remix_Guitar,-1,-1
51,100,0.5,211,1,14,_Remix_Guitar,-1,-1
58,100,0.2590909090909091,326,0,14,_Remix_Guitar,-1,-1
63,100,0.18181818181818182,474,0,14,_Remix_Guitar,-1,-1
51,100,0.1590909090909091,541,0,14,_Remix_Guitar,-1,-1
51,100,0.11818181818181818,615,0,14,_Remix_Guitar,-1,-1
51,100,0.12272727272727273,694,0,14,_Remix_Guitar,-1,-1
51,100,0.17727272727272728,831,0,14,_Remix_Guitar,-1,-1
51,100,0.2772727272727273,17,1,15,_Remix_Guitar,-1,-1
51,100,0.41818181818181815,106,0,15,_Remix_Guitar,-1,-1
48,100,0.12272727272727273,553,1,15,_Remix_Guitar,-1,-1
53,100,0.11818181818181818,876,1,15,_Remix_Guitar,-1,-1
53,100,0.11818181818181818,44,1,16,_Remix_Guitar,-1,-1
41,100,0.18181818181818182,69,0,16,_Remix_Guitar,-1,-1
46,100,0.2818181818181818,474,1,16,_Remix_Guitar,-1,-1
46,100,0.16363636363636364,663,0,16,_Remix_Guitar,-1,-1
51,100,0.11818181818181818,787,0,16,_Remix_Guitar,-1,-1
51,100,0.2,839,0,16,_Remix_Guitar,-1,-1
51,100,0.2,113,1,17,_Remix_Guitar,-1,-1
51,100,0.17727272727272728,162,0,17,_Remix_Guitar,-1,-1
51,100,0.2818181818181818,264,0,17,_Remix_Guitar,-1,-1
51,100,0.3409090909090909,374,0,17,_Remix_Guitar,-1,-1
51,100,0.6,607,1,17,_Remix_Guitar,-1,-1
51,100,1.3590909090909091,858,1,17,_Remix_Guitar,-1,-1
51,100,0.2590909090909091,281,1,18,_Remix_Guitar,-1,-1
51,100,0.1,347,0,18,_Remix_Guitar,-1,-1
58,100,0.4772727272727273,449,0,18,_Remix_Guitar,-1,-1
51,100,0.7636363636363637,576,0,18,_Remix_Guitar,-1,-1
51,100,0.1409090909090909,818,1,18,_Remix_Guitar,-1,-1
51,100,0.6227272727272727,26,1,19,_Remix_Guitar,-1,-1
58,100,0.5,246,1,19,_Remix_Guitar,-1,-1
51,100,0.2409090909090909,364,0,19,_Remix_Guitar,-1,-1
51,100,0.2,484,0,19,_Remix_Guitar,-1,-1
51,100,0.5227272727272727,532,0,19,_Remix_Guitar,-1,-1
63,100,0.7,660,0,19,_Remix_Guitar,-1,-1
51,100,0.11818181818181818,835,0,19,_Remix_Guitar,-1,-1
51,100,0.4818181818181818,0,1,20,_Remix_Guitar,-1,-1
48,100,0.33636363636363636,171,0,20,_Remix_Guitar,-1,-1
48,100,0.5590909090909091,364,0,20,_Remix_Guitar,-1,-1
58,100,0.41818181818181815,528,0,20,_Remix_Guitar,-1,-1
46,100,0.42272727272727273,619,0,20,_Remix_Guitar,-1,-1
46,100,0.2,822,1,20,_Remix_Guitar,-1,-1
58,100,0.18181818181818182,34,1,21,_Remix_Guitar,-1,-1
58,100,0.1590909090909091,119,0,21,_Remix_Guitar,-1,-1
50,100,1.040909090909091,320,1,21,_Remix_Guitar,-1,-1
50,100,0.21818181818181817,559,1,21,_Remix_Guitar,-1,-1
58,100,0.41818181818181815,615,0,21,_Remix_Guitar,-1,-1
50,100,0.1590909090909091,52,1,22,_Remix_Guitar,-1,-1
44,100,0.4409090909090909,308,1,22,_Remix_Guitar,-1,-1
56,100,0.1409090909090909,405,0,22,_Remix_Guitar,-1,-1
56,100,0.3,602,0,22,_Remix_Guitar,-1,-1
53,100,0.18181818181818182,268,1,23,_Remix_Guitar,-1,-1
58,100,0.21818181818181817,316,0,23,_Remix_Guitar,-1,-1
50,100,0.3409090909090909,378,0,23,_Remix_Guitar,-1,-1
50,100,0.18181818181818182,553,0,23,_Remix_Guitar,-1,-1
58,100,0.1409090909090909,818,1,23,_Remix_Guitar,-1,-1
48,100,0.4772727272727273,853,0,23,_Remix_Guitar,-1,-1
48,100,0.4,185,1,24,_Remix_Guitar,-1,-1
58,100,0.2590909090909091,743,1,24,_Remix_Guitar,-1,-1
53,100,0.41818181818181815,52,1,25,_Remix_Guitar,-1,-1
53,100,0.11818181818181818,206,0,25,_Remix_Guitar,-1,-1
58,100,0.4,246,0,25,_Remix_Guitar,-1,-1
53,100,0.18181818181818182,474,1,25,_Remix_Guitar,-1,-1
46,100,0.5,553,0,25,_Remix_Guitar,-1,-1
58,100,0.11818181818181818,700,0,25,_Remix_Guitar,-1,-1
46,100,0.2818181818181818,796,0,25,_Remix_Guitar,-1,-1
46,100,0.2409090909090909,862,0,25,_Remix_Guitar,-1,-1
58,100,0.3,61,1,26,_Remix_Guitar,-1,-1
53,100,0.17727272727272728,140,0,26,_Remix_Guitar,-1,-1
46,100,0.11818181818181818,193,0,26,_Remix_Guitar,-1,-1
46,100,0.13636363636363635,237,0,26,_Remix_Guitar,-1,-1
46,100,0.37727272727272726,281,0,26,_Remix_Guitar,-1,-1
58,100,0.8227272727272728,422,0,26,_Remix_Guitar,-1,-1
58,100,0.2,849,1,26,_Remix_Guitar,-1,-1
63,100,0.1590909090909091,88,1,27,_Remix_Guitar,-1,-1
58,100,0.21818181818181817,281,0,27,_Remix_Guitar,-1,-1
46,100,0.3181818181818182,351,0,27,_Remix_Guitar,-1,-1
58,100,0.41818181818181815,822,1,27,_Remix_Guitar,-1,-1
55,100,0.1409090909090909,113,1,28,_Remix_Guitar,-1,-1
58,100,0.22272727272727272,752,1,28,_Remix_Guitar,-1,-1
58,100,0.1409090909090909,131,1,29,_Remix_Guitar,-1,-1
58,100,0.22272727272727272,320,0,29,_Remix_Guitar,-1,-1
46,100,0.4409090909090909,629,1,29,_Remix_Guitar,-1,-1
51,100,0.3181818181818182,835,1,29,_Remix_Guitar,-1,-1
58,100,0.2,44,1,30,_Remix_Guitar,-1,-1
58,100,0.38181818181818183,285,1,30,_Remix_Guitar,-1,-1
63,100,0.21818181818181817,567,1,30,_Remix_Guitar,-1,-1
51,100,0.4,708,0,30,_Remix_Guitar,-1,-1
58,100,0.1409090909090909,69,1,31,_Remix_Guitar,-1,-1
56,100,0.2,167,0,31,_Remix_Guitar,-1,-1
46,100,0.12272727272727273,619,1,31,_Remix_Guitar,-1,-1
58,100,0.2,796,0,31,_Remix_Guitar,-1,-1
46,100,0.17727272727272728,866,0,31,_Remix_Guitar,-1,-1
58,100,0.2409090909090909,311,1,32,_Remix_Guitar,-1,-1
63,100,0.21818181818181817,391,0,32,_Remix_Guitar,-1,-1
51,100,0.11818181818181818,501,0,32,_Remix_Guitar,-1,-1
63,100,0.21818181818181817,678,0,32,_Remix_Guitar,-1,-1
63,100,0.18181818181818182,783,0,32,_Remix_Guitar,-1,-1
51,100,0.3,845,0,32,_Remix_Guitar,-1,-1
51,100,0.1409090909090909,34,1,33,_Remix_Guitar,-1,-1
48,100,0.17727272727272728,251,1,33,_Remix_Guitar,-1,-1
48,100,0.11818181818181818,348,0,33,_Remix_Guitar,-1,-1
41,100,0.2590909090909091,568,1,33,_Remix_Guitar,-1,-1
53,100,0.1590909090909091,743,0,33,_Remix_Guitar,-1,-1
53,100,0.1409090909090909,804,0,33,_Remix_Guitar,-1,-1
53,100,0.4818181818181818,43,1,34,_Remix_Guitar,-1,-1
53,100,0.18181818181818182,158,0,34,_Remix_Guitar,-1,-1
53,100,0.3181818181818182,215,0,34,_Remix_Guitar,-1,-1
53,100,0.2,295,0,34,_Remix_Guitar,-1,-1
63,100,0.1,606,1,34,_Remix_Guitar,-1,-1
60,100,0.32272727272727275,708,0,34,_Remix_Guitar,-1,-1
53,100,0.5772727272727273,831,0,34,_Remix_Guitar,-1,-1
53,100,0.1590909090909091,128,1,35,_Remix_Guitar,-1,-1
48,100,0.1,263,0,35,_Remix_Guitar,-1,-1
58,100,0.1409090909090909,373,0,35,_Remix_Guitar,-1,-1
58,100,0.2818181818181818,431,0,35,_Remix_Guitar,-1,-1
46,100,0.5181818181818182,493,0,35,_Remix_Guitar,-1,-1
46,100,0.12272727272727273,453,1,36,_Remix_Guitar,-1,-1
46,100,0.2590909090909091,515,0,36,_Remix_Guitar,-1,-1
46,100,0.6181818181818182,638,0,36,_Remix_Guitar,-1,-1
46,100,0.5818181818181818,796,0,36,_Remix_Guitar,-1,-1
46,100,0.1590909090909091,128,1,37,_Remix_Guitar,-1,-1
58,100,0.21818181818181817,163,0,37,_Remix_Guitar,-1,-1
58,100,0.12272727272727273,584,1,37,_Remix_Guitar,-1,-1
63,100,0.1409090909090909,770,0,37,_Remix_Guitar,-1,-1
51,100,0.2409090909090909,21,1,38,_Remix_Guitar,-1,-1
62,100,0.17727272727272728,185,0,38,_Remix_Guitar,-1,-1
58,100,0.37727272727272726,448,1,38,_Remix_Guitar,-1,-1
58,100,0.3,536,0,38,_Remix_Guitar,-1,-1
58,100,0.2,338,1,39,_Remix_Guitar,-1,-1
58,100,0.2590909090909091,748,1,39,_Remix_Guitar,-1,-1
56,100,0.1409090909090909,823,0,39,_Remix_Guitar,-1,-1
51,100,0.11818181818181818,40,1,40,_Remix_Guitar,-1,-1
51,100,0.2,118,0,40,_Remix_Guitar,-1,-1
58,100,0.16363636363636364,246,0,40,_Remix_Guitar,-1,-1
53,100,0.18181818181818182,308,0,40,_Remix_Guitar,-1,-1
58,100,0.2,418,0,40,_Remix_Guitar,-1,-1
58,100,0.11818181818181818,550,0,40,_Remix_Guitar,-1,-1
53,100,0.2,655,0,40,_Remix_Guitar,-1,-1
58,100,0.1590909090909091,703,0,40,_Remix_Guitar,-1,-1
51,100,0.21818181818181817,251,1,41,_Remix_Guitar,-1,-1
58,100,0.1590909090909091,496,1,41,_Remix_Guitar,-1,-1
58,100,0.3181818181818182,536,0,41,_Remix_Guitar,-1,-1
46,100,0.13636363636363635,678,0,41,_Remix_Guitar,-1,-1
58,100,0.1590909090909091,21,1,42,_Remix_Guitar,-1,-1
51,100,0.12272727272727273,343,1,42,_Remix_Guitar,-1,-1
46,100,0.1,483,0,42,_Remix_Guitar,-1,-1
46,100,0.37727272727272726,545,0,42,_Remix_Guitar,-1,-1
58,100,0.2818181818181818,638,0,42,_Remix_Guitar,-1,-1
46,100,0.21818181818181817,700,0,42,_Remix_Guitar,-1,-1
58,100,0.21818181818181817,823,0,42,_Remix_Guitar,-1,-1
46,100,0.1590909090909091,0,1,43,_Remix_Guitar,-1,-1
50,100,0.11818181818181818,141,0,43,_Remix_Guitar,-1,-1
58,100,0.2,179,0,43,_Remix_Guitar,-1,-1
50,100,0.13636363636363635,260,0,43,_Remix_Guitar,-1,-1
58,100,0.18181818181818182,298,0,43,_Remix_Guitar,-1,-1
48,100,0.4409090909090909,554,1,43,_Remix_Guitar,-1,-1
48,100,0.21818181818181817,75,1,44,_Remix_Guitar,-1,-1
58,100,0.21818181818181817,31,1,45,_Remix_Guitar,-1,-1
56,100,0.18181818181818182,114,0,45,_Remix_Guitar,-1,-1
58,100,0.2590909090909091,228,0,45,_Remix_Guitar,-1,-1
58,100,0.1590909090909091,338,0,45,_Remix_Guitar,-1,-1
58,100,0.2818181818181818,378,0,45,_Remix_Guitar,-1,-1
63,100,0.1409090909090909,461,0,45,_Remix_Guitar,-1,-1
56,100,0.1,56,1,46,_Remix_Guitar,-1,-1
63,100,0.2,171,0,46,_Remix_Guitar,-1,-1
56,100,0.6,474,1,46,_Remix_Guitar,-1,-1
58,100,0.3,770,1,46,_Remix_Guitar,-1,-1
58,100,0.22272727272727272,123,1,47,_Remix_Guitar,-1,-1
63,100,0.2,303,0,47,_Remix_Guitar,-1,-1
58,100,0.1590909090909091,810,1,47,_Remix_Guitar,-1,-1
55,100,0.3181818181818182,150,1,48,_Remix_Guitar,-1,-1
58,100,0.4818181818181818,289,0,48,_Remix_Guitar,-1,-1
53,100,0.12272727272727273,554,1,48,_Remix_Guitar,-1,-1
41,100,0.11818181818181818,581,0,48,_Remix_Guitar,-1,-1
53,100,0.2590909090909091,646,0,48,_Remix_Guitar,-1,-1
51,100,0.22272727272727272,673,1,49,_Remix_Guitar,-1,-1
51,100,0.1590909090909091,735,0,49,_Remix_Guitar,-1,-1
58,100,0.2,356,1,50,_Remix_Guitar,-1,-1
58,100,0.16363636363636364,444,0,50,_Remix_Guitar,-1,-1
58,100,0.32272727272727275,651,1,50,_Remix_Guitar,-1,-1
58,100,0.1409090909090909,518,1,51,_Remix_Guitar,-1,-1
63,100,0.2,576,0,51,_Remix_Guitar,-1,-1
51,100,0.1,703,0,51,_Remix_Guitar,-1,-1
63,100,0.18181818181818182,871,0,51,_Remix_Guitar,-1,-1
51,100,0.1,31,1,52,_Remix_Guitar,-1,-1
63,100,0.16363636363636364,69,0,52,_Remix_Guitar,-1,-1
63,100,0.11818181818181818,198,0,52,_Remix_Guitar,-1,-1
51,100,0.4818181818181818,289,0,52,_Remix_Guitar,-1,-1
46,100,0.3,531,1,52,_Remix_Guitar,-1,-1
63,100,0.5,778,1,52,_Remix_Guitar,-1,-1
51,100,0.3409090909090909,88,1,53,_Remix_Guitar,-1,-1
63,100,0.37727272727272726,171,0,53,_Remix_Guitar,-1,-1
56,100,0.1409090909090909,268,0,53,_Remix_Guitar,-1,-1
46,100,0.2818181818181818,421,0,53,_Remix_Guitar,-1,-1
58,100,0.21818181818181817,483,0,53,_Remix_Guitar,-1,-1
58,100,0.21818181818181817,568,0,53,_Remix_Guitar,-1,-1
46,100,0.1409090909090909,616,0,53,_Remix_Guitar,-1,-1
58,100,0.5590909090909091,646,0,53,_Remix_Guitar,-1,-1
51,100,0.5818181818181818,858,1,53,_Remix_Guitar,-1,-1
46,100,0.4590909090909091,518,1,54,_Remix_Guitar,-1,-1
46,100,0.33636363636363636,678,0,54,_Remix_Guitar,-1,-1
51,100,0.3409090909090909,88,1,55,_Remix_Guitar,-1,-1
51,100,0.4409090909090909,254,0,55,_Remix_Guitar,-1,-1
51,100,0.1590909090909091,370,0,55,_Remix_Guitar,-1,-1
58,100,0.1409090909090909,474,0,55,_Remix_Guitar,-1,-1
51,100,0.4818181818181818,563,0,55,_Remix_Guitar,-1,-1
58,100,0.1409090909090909,673,0,55,_Remix_Guitar,-1,-1
58,100,0.2409090909090909,796,0,55,_Remix_Guitar,-1,-1
58,100,0.13636363636363635,853,0,55,_Remix_Guitar,-1,-1
58,100,0.1590909090909091,83,1,56,_Remix_Guitar,-1,-1
60,100,0.5,141,0,56,_Remix_Guitar,-1,-1
48,100,0.21818181818181817,263,0,56,_Remix_Guitar,-1,-1
48,100,0.17727272727272728,348,0,56,_Remix_Guitar,-1,-1
60,100,0.2818181818181818,431,0,56,_Remix_Guitar,-1,-1
48,100,0.1590909090909091,518,0,56,_Remix_Guitar,-1,-1
53,100,0.1,641,0,56,_Remix_Guitar,-1,-1
46,100,0.12272727272727273,738,0,56,_Remix_Guitar,-1,-1
46,100,0.5,796,0,56,_Remix_Guitar,-1,-1
58,100,0.22272727272727272,101,1,57,_Remix_Guitar,-1,-1
50,100,0.1590909090909091,295,0,57,_Remix_Guitar,-1,-1
43,100,0.1409090909090909,338,0,57,_Remix_Guitar,-1,-1
50,100,0.1590909090909091,413,0,57,_Remix_Guitar,-1,-1
50,100,0.1409090909090909,593,0,57,_Remix_Guitar,-1,-1
50,100,0.1409090909090909,783,0,57,_Remix_Guitar,-1,-1
55,100,0.1,826,0,57,_Remix_Guitar,-1,-1
50,100,0.2,31,1,58,_Remix_Guitar,-1,-1
48,100,0.16363636363636364,421,1,58,_Remix_Guitar,-1,-1
60,100,0.16363636363636364,488,0,58,_Remix_Guitar,-1,-1
58,100,0.1,581,0,58,_Remix_Guitar,-1,-1
46,100,0.3409090909090909,813,1,58,_Remix_Guitar,-1,-1
46,100,0.18181818181818182,26,1,59,_Remix_Guitar,-1,-1
46,100,0.8181818181818182,88,0,59,_Remix_Guitar,-1,-1
55,100,0.11818181818181818,625,1,59,_Remix_Guitar,-1,-1
58,100,0.1409090909090909,770,0,59,_Remix_Guitar,-1,-1
48,100,0.2,48,1,60,_Remix_Guitar,-1,-1
48,100,0.1409090909090909,110,0,60,_Remix_Guitar,-1,-1
48,100,0.8818181818181818,158,0,60,_Remix_Guitar,-1,-1
53,100,0.12272727272727273,584,1,60,_Remix_Guitar,-1,-1
46,100,0.18181818181818182,166,1,61,_Remix_Guitar,-1,-1
46,100,0.11818181818181818,251,0,61,_Remix_Guitar,-1,-1
46,100,0.17727272727272728,338,0,61,_Remix_Guitar,-1,-1
46,100,0.4,383,0,61,_Remix_Guitar,-1,-1
58,100,0.3,96,1,62,_Remix_Guitar,-1,-1
51,100,0.18181818181818182,198,0,62,_Remix_Guitar,-1,-1
58,100,0.1409090909090909,364,0,62,_Remix_Guitar,-1,-1
51,100,0.23636363636363636,678,1,62,_Remix_Guitar,-1,-1
58,100,0.18181818181818182,738,0,62,_Remix_Guitar,-1,-1
58,100,0.22272727272727272,136,1,63,_Remix_Guitar,-1,-1
58,100,0.22272727272727272,233,0,63,_Remix_Guitar,-1,-1
51,100,0.2772727272727273,413,0,63,_Remix_Guitar,-1,-1
58,100,0.3181818181818182,616,1,63,_Remix_Guitar,-1,-1
55,100,0.2,743,0,63,_Remix_Guitar,-1,-1
51,100,0.12272727272727273,839,0,63,_Remix_Guitar,-1,-1
51,100,0.22272727272727272,113,1,64,_Remix_Guitar,-1,-1
58,100,0.21818181818181817,176,0,64,_Remix_Guitar,-1,-1
51,100,0.2,237,0,64,_Remix_Guitar,-1,-1
51,100,0.3181818181818182,392,0,64,_Remix_Guitar,-1,-1
51,100,0.4818181818181818,506,0,64,_Remix_Guitar,-1,-1
51,100,0.18181818181818182,616,0,64,_Remix_Guitar,-1,-1
51,100,0.13636363636363635,677,0,64,_Remix_Guitar,-1,-1
48,100,0.1590909090909091,787,0,64,_Remix_Guitar,-1,-1
48,100,0.4818181818181818,100,1,65,_Remix_Guitar,-1,-1
58,100,0.4,267,0,65,_Remix_Guitar,-1,-1
46,100,0.3,360,0,65,_Remix_Guitar,-1,-1
58,100,0.33636363636363636,567,1,65,_Remix_Guitar,-1,-1
58,100,0.21818181818181817,713,0,65,_Remix_Guitar,-1,-1
58,100,0.1409090909090909,343,1,66,_Remix_Guitar,-1,-1
55,100,0.1409090909090909,839,1,66,_Remix_Guitar,-1,-1
48,100,0.17727272727272728,62,1,67,_Remix_Guitar,-1,-1
48,100,0.1,140,0,67,_Remix_Guitar,-1,-1
55,100,0.1,303,0,67,_Remix_Guitar,-1,-1
55,100,0.11818181818181818,360,0,67,_Remix_Guitar,-1,-1
56,100,0.1409090909090909,422,0,67,_Remix_Guitar,-1,-1
58,100,0.1409090909090909,550,0,67,_Remix_Guitar,-1,-1
46,100,0.1,686,0,67,_Remix_Guitar,-1,-1
53,100,0.16363636363636364,839,0,67,_Remix_Guitar,-1,-1
53,100,0.2,30,1,68,_Remix_Guitar,-1,-1
58,100,0.3409090909090909,223,0,68,_Remix_Guitar,-1,-1
58,100,0.3181818181818182,339,0,68,_Remix_Guitar,-1,-1
58,100,0.3181818181818182,436,0,68,_Remix_Guitar,-1,-1
58,100,0.3,527,0,68,_Remix_Guitar,-1,-1
48,100,0.1,673,0,68,_Remix_Guitar,-1,-1
48,100,0.2590909090909091,853,0,68,_Remix_Guitar,-1,-1
48,100,0.1,56,1,69,_Remix_Guitar,-1,-1
58,100,0.17727272727272728,163,0,69,_Remix_Guitar,-1,-1
53,100,0.17727272727272728,347,0,69,_Remix_Guitar,-1,-1
56,100,0.1409090909090909,637,1,69,_Remix_Guitar,-1,-1
53,100,0.2590909090909091,722,0,69,_Remix_Guitar,-1,-1
53,100,0.1590909090909091,832,0,69,_Remix_Guitar,-1,-1
53,100,0.18181818181818182,47,1,70,_Remix_Guitar,-1,-1
53,100,0.4,127,0,70,_Remix_Guitar,-1,-1
46,100,0.41818181818181815,316,0,70,_Remix_Guitar,-1,-1
58,100,0.11818181818181818,417,0,70,_Remix_Guitar,-1,-1
46,100,0.1590909090909091,585,0,70,_Remix_Guitar,-1,-1
58,100,0.12272727272727273,783,0,70,_Remix_Guitar,-1,-1
46,100,0.1590909090909091,832,0,70,_Remix_Guitar,-1,-1
58,100,0.1,30,1,71,_Remix_Guitar,-1,-1
58,100,0.1590909090909091,140,0,71,_Remix_Guitar,-1,-1
58,100,0.3409090909090909,184,0,71,_Remix_Guitar,-1,-1
58,100,0.12272727272727273,333,0,71,_Remix_Guitar,-1,-1
56,100,0.1590909090909091,496,0,71,_Remix_Guitar,-1,-1
58,100,0.12272727272727273,752,1,71,_Remix_Guitar,-1,-1
58,100,0.18181818181818182,43,1,72,_Remix_Guitar,-1,-1
58,100,0.1590909090909091,189,0,72,_Remix_Guitar,-1,-1
58,100,0.1409090909090909,462,1,72,_Remix_Guitar,-1,-1
46,100,0.2818181818181818,506,0,72,_Remix_Guitar,-1,-1
58,100,0.1,619,0,72,_Remix_Guitar,-1,-1
55,100,0.17727272727272728,722,0,72,_Remix_Guitar,-1,-1
58,100,0.2,0,1,73,_Remix_Guitar,-1,-1
55,100,0.12272727272727273,365,1,73,_Remix_Guitar,-1,-1
56,100,0.2,779,1,73,_Remix_Guitar,-1,-1
56,100,0.1590909090909091,836,0,73,_Remix_Guitar,-1,-1
58,100,0.2818181818181818,47,1,74,_Remix_Guitar,-1,-1
58,100,0.2409090909090909,136,0,74,_Remix_Guitar,-1,-1
58,100,0.1,250,0,74,_Remix_Guitar,-1,-1
58,100,0.22272727272727272,276,0,74,_Remix_Guitar,-1,-1
46,100,0.3409090909090909,356,0,74,_Remix_Guitar,-1,-1
53,100,0.2409090909090909,449,0,74,_Remix_Guitar,-1,-1
46,100,0.1409090909090909,532,0,74,_Remix_Guitar,-1,-1
58,100,0.2409090909090909,726,0,74,_Remix_Guitar,-1,-1
55,100,0.18181818181818182,813,0,74,_Remix_Guitar,-1,-1
58,100,0.18181818181818182,0,1,75,_Remix_Guitar,-1,-1
55,100,0.35909090909090907,237,1,75,_Remix_Guitar,-1,-1
51,100,0.13636363636363635,480,1,75,_Remix_Guitar,-1,-1
51,100,0.11818181818181818,590,0,75,_Remix_Guitar,-1,-1
56,100,0.1409090909090909,796,1,75,_Remix_Guitar,-1,-1
56,100,0.17727272727272728,876,0,75,_Remix_Guitar,-1,-1
44,100,0.1590909090909091,66,1,76,_Remix_Guitar,-1,-1
46,100,0.2,316,1,76,_Remix_Guitar,-1,-1
58,100,0.2409090909090909,399,0,76,_Remix_Guitar,-1,-1
58,100,0.12272727272727273,553,0,76,_Remix_Guitar,-1,-1
58,100,0.22272727272727272,597,0,76,_Remix_Guitar,-1,-1
55,100,0.17727272727272728,832,1,76,_Remix_Guitar,-1,-1
58,100,0.1409090909090909,43,1,77,_Remix_Guitar,-1,-1
63,100,0.23636363636363636,436,1,77,_Remix_Guitar,-1,-1
63,100,0.3,593,0,77,_Remix_Guitar,-1,-1
53,100,0.3181818181818182,0,1,78,_Remix_Guitar,-1,-1
53,100,0.13636363636363635,106,0,78,_Remix_Guitar,-1,-1
53,100,0.4590909090909091,166,0,78,_Remix_Guitar,-1,-1
53,100,0.7,343,0,78,_Remix_Guitar,-1,-1
53,100,0.4818181818181818,619,1,78,_Remix_Guitar,-1,-1
53,100,0.11818181818181818,770,0,78,_Remix_Guitar,-1,-1
53,100,0.1,800,0,78,_Remix_Guitar,-1,-1
53,100,0.11818181818181818,857,0,78,_Remix_Guitar,-1,-1
58,100,0.12272727272727273,79,1,79,_Remix_Guitar,-1,-1
58,100,0.1590909090909091,119,0,79,_Remix_Guitar,-1,-1
63,100,0.7,246,0,79,_Remix_Guitar,-1,-1
53,100,0.35909090909090907,660,1,79,_Remix_Guitar,-1,-1
53,100,0.2,22,1,80,_Remix_Guitar,-1,-1
46,100,0.1409090909090909,163,0,80,_Remix_Guitar,-1,-1
58,100,0.1409090909090909,333,0,80,_Remix_Guitar,-1,-1
53,100,0.2409090909090909,409,0,80,_Remix_Guitar,-1,-1
53,100,0.21818181818181817,506,0,80,_Remix_Guitar,-1,-1
53,100,0.11818181818181818,616,0,80,_Remix_Guitar,-1,-1
53,100,0.1409090909090909,686,0,80,_Remix_Guitar,-1,-1
46,100,0.2,417,1,81,_Remix_Guitar,-1,-1
55,100,0.1,800,1,81,_Remix_Guitar,-1,-1
55,100,0.38181818181818183,166,1,82,_Remix_Guitar,-1,-1
48,100,0.5409090909090909,307,0,82,_Remix_Guitar,-1,-1
48,100,0.18181818181818182,483,0,82,_Remix_Guitar,-1,-1
48,100,0.4818181818181818,527,0,82,_Remix_Guitar,-1,-1
48,100,0.11818181818181818,682,0,82,_Remix_Guitar,-1,-1
48,100,0.2,722,0,82,_Remix_Guitar,-1,-1
48,100,0.21818181818181817,836,0,82,_Remix_Guitar,-1,-1
63,100,0.2,13,1,83,_Remix_Guitar,-1,-1
48,100,0.2590909090909091,140,0,83,_Remix_Guitar,-1,-1
48,100,0.2,282,0,83,_Remix_Guitar,-1,-1
44,100,0.1409090909090909,443,0,83,_Remix_Guitar,-1,-1
58,100,0.11818181818181818,792,1,83,_Remix_Guitar,-1,-1
46,100,0.2,96,1,84,_Remix_Guitar,-1,-1
46,100,0.16363636363636364,356,1,84,_Remix_Guitar,-1,-1
58,100,0.1409090909090909,823,1,84,_Remix_Guitar,-1,-1
58,100,0.1590909090909091,857,0,84,_Remix_Guitar,-1,-1
48,100,0.32272727272727275,79,1,85,_Remix_Guitar,-1,-1
58,100,0.2772727272727273,216,0,85,_Remix_Guitar,-1,-1
58,100,0.5,299,0,85,_Remix_Guitar,-1,-1
46,100,0.21818181818181817,417,0,85,_Remix_Guitar,-1,-1
46,100,0.1,470,0,85,_Remix_Guitar,-1,-1
56,100,0.2409090909090909,550,0,85,_Remix_Guitar,-1,-1
58,100,0.17727272727272728,62,1,86,_Remix_Guitar,-1,-1
46,100,0.2409090909090909,163,0,86,_Remix_Guitar,-1,-1
53,100,0.42272727272727273,255,0,86,_Remix_Guitar,-1,-1
53,100,0.1590909090909091,453,0,86,_Remix_Guitar,-1,-1
55,100,0.2,673,1,86,_Remix_Guitar,-1,-1
48,100,0.1590909090909091,237,1,87,_Remix_Guitar,-1,-1
60,100,0.1,289,0,87,_Remix_Guitar,-1,-1
60,100,0.2,413,0,87,_Remix_Guitar,-1,-1
60,100,0.18181818181818182,462,0,87,_Remix_Guitar,-1,-1
60,100,0.2,519,0,87,_Remix_Guitar,-1,-1
48,100,0.3181818181818182,612,0,87,_Remix_Guitar,-1,-1
60,100,0.11818181818181818,743,0,87,_Remix_Guitar,-1,-1
60,100,0.11818181818181818,876,0,87,_Remix_Guitar,-1,-1
60,100,0.13636363636363635,62,1,88,_Remix_Guitar,-1,-1
48,100,0.21818181818181817,176,0,88,_Remix_Guitar,-1,-1
41,100,0.2,360,0,88,_Remix_Guitar,-1,-1
46,100,0.2772727272727273,119,1,89,_Remix_Guitar,-1,-1
58,100,0.3,179,0,89,_Remix_Guitar,-1,-1
46,100,0.3181818181818182,286,0,89,_Remix_Guitar,-1,-1
46,100,0.17727272727272728,493,1,89,_Remix_Guitar,-1,-1
46,100,0.21818181818181817,624,0,89,_Remix_Guitar,-1,-1
60,100,0.12272727272727273,145,1,90,_Remix_Guitar,-1,-1
60,100,0.41818181818181815,193,0,90,_Remix_Guitar,-1,-1
53,100,0.21818181818181817,470,1,90,_Remix_Guitar,-1,-1
46,100,0.21818181818181817,866,1,90,_Remix_Guitar,-1,-1
46,100,0.1,62,1,91,_Remix_Guitar,-1,-1
51,100,0.1590909090909091,263,1,92,_Remix_Guitar,-1,-1
63,100,0.1590909090909091,339,0,92,_Remix_Guitar,-1,-1
51,100,0.21818181818181817,436,0,92,_Remix_Guitar,-1,-1
58,100,0.13636363636363635,567,0,92,_Remix_Guitar,-1,-1
58,100,0.2590909090909091,637,0,92,_Remix_Guitar,-1,-1
58,100,0.13636363636363635,700,0,92,_Remix_Guitar,-1,-1
46,100,0.12272727272727273,739,0,92,_Remix_Guitar,-1,-1
46,100,0.3181818181818182,836,0,92,_Remix_Guitar,-1,-1
46,100,0.1409090909090909,30,1,93,_Remix_Guitar,-1,-1
46,100,0.11818181818181818,96,0,93,_Remix_Guitar,-1,-1
46,100,0.11818181818181818,127,0,93,_Remix_Guitar,-1,-1
58,100,0.12272727272727273,466,1,93,_Remix_Guitar,-1,-1
63,100,0.21818181818181817,523,0,93,_Remix_Guitar,-1,-1
58,100,0.1,17,1,94,_Remix_Guitar,-1,-1
63,100,0.1590909090909091,176,0,94,_Remix_Guitar,-1,-1
63,100,0.3181818181818182,216,0,94,_Remix_Guitar,-1,-1
53,100,0.1,289,0,94,_Remix_Guitar,-1,-1
53,100,0.3409090909090909,660,1,94,_Remix_Guitar,-1,-1
50,100,0.1,844,0,94,_Remix_Guitar,-1,-1
50,100,0.13636363636363635,17,1,95,_Remix_Guitar,-1,-1
58,100,0.4772727272727273,83,0,95,_Remix_Guitar,-1,-1
58,100,0.17727272727272728,206,0,95,_Remix_Guitar,-1,-1
53,100,0.1,303,0,95,_Remix_Guitar,-1,-1
48,100,0.2818181818181818,563,1,95,_Remix_Guitar,-1,-1
63,100,0.4772727272727273,624,0,95,_Remix_Guitar,-1,-1
46,100,0.1590909090909091,106,1,97,_Remix_Guitar,-1,-1
53,100,0.2818181818181818,166,0,97,_Remix_Guitar,-1,-1
46,100,0.2772727272727273,413,1,97,_Remix_Guitar,-1,-1
58,100,0.23636363636363636,480,0,97,_Remix_Guitar,-1,-1
63,100,0.2,550,0,97,_Remix_Guitar,-1,-1
63,100,0.759090909090909,716,0,97,_Remix_Guitar,-1,-1
58,100,0.13636363636363635,83,1,98,_Remix_Guitar,-1,-1
63,100,0.1409090909090909,443,1,98,_Remix_Guitar,-1,-1
63,100,0.2,876,1,98,_Remix_Guitar,-1,-1
53,100,0.21818181818181817,96,1,99,_Remix_Guitar,-1,-1
63,100,0.23636363636363636,150,0,99,_Remix_Guitar,-1,-1
53,100,0.33636363636363636,216,0,99,_Remix_Guitar,-1,-1
53,100,0.2409090909090909,333,0,99,_Remix_Guitar,-1,-1
53,100,0.1590909090909091,449,0,99,_Remix_Guitar,-1,-1
53,100,0.17727272727272728,502,0,99,_Remix_Guitar,-1,-1
58,100,0.6227272727272727,695,0,99,_Remix_Guitar,-1,-1
53,100,0.42272727272727273,870,0,99,_Remix_Guitar,-1,-1
46,100,0.1590909090909091,145,1,100,_Remix_Guitar,-1,-1
58,100,0.3409090909090909,179,0,100,_Remix_Guitar,-1,-1
58,100,0.1409090909090909,365,0,100,_Remix_Guitar,-1,-1
53,100,0.3,470,0,100,_Remix_Guitar,-1,-1
46,100,0.16363636363636364,553,0,100,_Remix_Guitar,-1,-1
46,100,0.17727272727272728,612,0,100,_Remix_Guitar,-1,-1
46,100,0.17727272727272728,83,1,101,_Remix_Guitar,-1,-1
46,100,0.2,157,0,101,_Remix_Guitar,-1,-1
46,100,0.1409090909090909,443,1,101,_Remix_Guitar,-1,-1
58,100,0.12272727272727273,540,0,101,_Remix_Guitar,-1,-1
58,100,0.1590909090909091,703,0,101,_Remix_Guitar,-1,-1
51,100,0.7181818181818181,62,1,103,_Remix_Guitar,-1,-1
51,100,0.8818181818181818,333,1,103,_Remix_Guitar,-1,-1
53,100,0.18181818181818182,532,1,103,_Remix_Guitar,-1,-1
62,100,1.018181818181818,722,0,103,_Remix_Guitar,-1,-1
51,100,0.2,150,1,104,_Remix_Guitar,-1,-1
63,100,0.1409090909090909,197,0,104,_Remix_Guitar,-1,-1
58,100,1.3772727272727272,360,0,104,_Remix_Guitar,-1,-1
58,100,0.11818181818181818,669,1,104,_Remix_Guitar,-1,-1
58,100,1.459090909090909,703,0,104,_Remix_Guitar,-1,-1
51,100,0.6409090909090909,206,1,105,_Remix_Guitar,-1,-1
44,100,0.1590909090909091,514,1,105,_Remix_Guitar,-1,-1
56,100,0.21818181818181817,567,0,105,_Remix_Guitar,-1,-1
44,100,0.2590909090909091,629,0,105,_Remix_Guitar,-1,-1
62,100,0.1409090909090909,695,0,105,_Remix_Guitar,-1,-1
46,100,0.1590909090909091,132,1,106,_Remix_Guitar,-1,-1
51,100,4.277272727272727,303,0,106,_Remix_Guitar,-1,-1
51,100,0.3,392,1,107,_Remix_Guitar,-1,-1
51,100,0.2409090909090909,483,0,107,_Remix_Guitar,-1,-1
58,100,0.1590909090909091,826,1,107,_Remix_Guitar,-1,-1
46,100,0.740909090909091,862,0,107,_Remix_Guitar,-1,-1
63,100,0.3,260,1,108,_Remix_Guitar,-1,-1
58,100,0.5,343,0,108,_Remix_Guitar,-1,-1
43,100,0.13636363636363635,502,0,108,_Remix_Guitar,-1,-1
58,100,1.3772727272727272,633,0,108,_Remix_Guitar,-1,-1
48,100,0.22272727272727272,189,1,109,_Remix_Guitar,-1,-1
41,100,0.32272727272727275,585,1,109,_Remix_Guitar,-1,-1
63,100,0.4,713,0,109,_Remix_Guitar,-1,-1
63,100,0.21818181818181817,832,0,109,_Remix_Guitar,-1,-1
58,100,0.12272727272727273,47,1,110,_Remix_Guitar,-1,-1
58,100,0.13636363636363635,260,1,110,_Remix_Guitar,-1,-1
63,100,0.759090909090909,506,1,110,_Remix_Guitar,-1,-1
58,100,0.3,695,0,110,_Remix_Guitar,-1,-1
63,100,0.21818181818181817,792,0,110,_Remix_Guitar,-1,-1
63,100,0.2,92,1,111,_Remix_Guitar,-1,-1
58,100,0.1,179,0,111,_Remix_Guitar,-1,-1
63,100,0.13636363636363635,237,0,111,_Remix_Guitar,-1,-1
63,100,0.2818181818181818,377,0,111,_Remix_Guitar,-1,-1
63,100,0.42272727272727273,443,0,111,_Remix_Guitar,-1,-1
46,100,0.2818181818181818,703,1,111,_Remix_Guitar,-1,-1
46,100,0.2818181818181818,770,0,111,_Remix_Guitar,-1,-1
46,100,0.1,17,1,112,_Remix_Guitar,-1,-1
46,100,0.5,56,0,112,_Remix_Guitar,-1,-1
46,100,0.2818181818181818,299,1,112,_Remix_Guitar,-1,-1
63,100,0.7227272727272728,443,0,112,_Remix_Guitar,-1,-1
62,100,0.1409090909090909,616,0,112,_Remix_Guitar,-1,-1
58,100,0.2818181818181818,770,0,112,_Remix_Guitar,-1,-1
46,100,3.959090909090909,844,0,112,_Remix_Guitar,-1,-1
60,100,0.7818181818181819,839,1,113,_Remix_Guitar,-1,-1
58,100,0.2,157,1,114,_Remix_Guitar,-1,-1
63,100,0.3409090909090909,206,0,114,_Remix_Guitar,-1,-1
63,100,0.4,312,0,114,_Remix_Guitar,-1,-1
58,100,0.4,593,1,114,_Remix_Guitar,-1,-1
63,100,0.6,686,0,114,_Remix_Guitar,-1,-1
58,100,0.4590909090909091,826,0,114,_Remix_Guitar,-1,-1
51,100,0.11818181818181818,62,1,115,_Remix_Guitar,-1,-1
63,100,0.6,294,1,115,_Remix_Guitar,-1,-1
63,100,0.3,449,0,115,_Remix_Guitar,-1,-1
55,100,0.4818181818181818,540,0,115,_Remix_Guitar,-1,-1
58,100,0.11818181818181818,656,0,115,_Remix_Guitar,-1,-1
58,100,0.4,686,0,115,_Remix_Guitar,-1,-1
63,100,0.4409090909090909,792,0,115,_Remix_Guitar,-1,-1
58,100,0.43636363636363634,17,1,116,_Remix_Guitar,-1,-1
60,100,0.6227272727272727,123,0,116,_Remix_Guitar,-1,-1
58,100,0.4590909090909091,263,0,116,_Remix_Guitar,-1,-1
63,100,0.5590909090909091,370,0,116,_Remix_Guitar,-1,-1
63,100,0.23636363636363636,546,0,116,_Remix_Guitar,-1,-1
58,100,0.5409090909090909,606,0,116,_Remix_Guitar,-1,-1
58,100,0.4,760,0,116,_Remix_Guitar,-1,-1
62,100,0.5181818181818182,87,1,117,_Remix_Guitar,-1,-1
55,100,0.4,242,0,117,_Remix_Guitar,-1,-1
63,100,1.059090909090909,453,1,117,_Remix_Guitar,-1,-1
55,100,0.4818181818181818,703,1,117,_Remix_Guitar,-1,-1
58,100,0.4772727272727273,823,0,117,_Remix_Guitar,-1,-1
63,100,0.4409090909090909,69,1,118,_Remix_Guitar,-1,-1
58,100,0.5181818181818182,176,0,118,_Remix_Guitar,-1,-1
53,100,0.1590909090909091,303,0,118,_Remix_Guitar,-1,-1
53,100,0.3,343,0,118,_Remix_Guitar,-1,-1
58,100,0.41818181818181815,417,0,118,_Remix_Guitar,-1,-1
62,100,0.5818181818181818,527,0,118,_Remix_Guitar,-1,-1
58,100,0.1409090909090909,663,0,118,_Remix_Guitar,-1,-1
62,100,0.2636363636363636,707,0,118,_Remix_Guitar,-1,-1
63,100,0.1,857,0,118,_Remix_Guitar,-1,-1
58,100,0.11818181818181818,17,1,119,_Remix_Guitar,-1,-1
63,100,0.7,119,0,119,_Remix_Guitar,-1,-1
63,100,0.11818181818181818,326,1,119,_Remix_Guitar,-1,-1
55,100,0.4409090909090909,396,0,119,_Remix_Guitar,-1,-1
58,100,0.4590909090909091,502,0,119,_Remix_Guitar,-1,-1
63,100,0.5772727272727273,612,0,119,_Remix_Guitar,-1,-1
58,100,0.41818181818181815,743,0,119,_Remix_Guitar,-1,-1
55,100,0.4409090909090909,866,0,119,_Remix_Guitar,-1,-1
63,100,0.5,216,1,120,_Remix_Guitar,-1,-1
58,100,0.5,330,0,120,_Remix_Guitar,-1,-1
56,100,0.2409090909090909,466,0,120,_Remix_Guitar,-1,-1
56,100,0.7,523,0,120,_Remix_Guitar,-1,-1
63,100,0.5409090909090909,695,0,120,_Remix_Guitar,-1,-1
58,100,0.4,826,0,120,_Remix_Guitar,-1,-1
56,100,0.5181818181818182,53,1,121,_Remix_Guitar,-1,-1
58,100,0.2,176,0,121,_Remix_Guitar,-1,-1
58,100,0.3,223,0,121,_Remix_Guitar,-1,-1
58,100,0.3,436,1,121,_Remix_Guitar,-1,-1
51,100,0.18181818181818182,540,0,121,_Remix_Guitar,-1,-1
56,100,0.3409090909090909,585,0,121,_Remix_Guitar,-1,-1
56,100,0.1590909090909091,734,0,121,_Remix_Guitar,-1,-1
56,100,0.2,810,0,121,_Remix_Guitar,-1,-1
56,100,0.1409090909090909,857,0,121,_Remix_Guitar,-1,-1
58,100,0.3,43,1,122,_Remix_Guitar,-1,-1
56,100,0.1,136,0,122,_Remix_Guitar,-1,-1
55,100,0.2,193,0,122,_Remix_Guitar,-1,-1
58,100,0.1409090909090909,255,0,122,_Remix_Guitar,-1,-1
58,100,0.3409090909090909,289,0,122,_Remix_Guitar,-1,-1
63,100,0.5227272727272727,377,0,122,_Remix_Guitar,-1,-1
58,100,0.43636363636363634,502,0,122,_Remix_Guitar,-1,-1
58,100,1.018181818181818,624,0,122,_Remix_Guitar,-1,-1
63,100,0.5590909090909091,849,1,122,_Remix_Guitar,-1,-1
62,100,0.6227272727272727,92,1,123,_Remix_Guitar,-1,-1
62,100,0.4,255,0,123,_Remix_Guitar,-1,-1
62,100,0.11818181818181818,370,0,123,_Remix_Guitar,-1,-1
58,100,0.1,593,1,123,_Remix_Guitar,-1,-1
58,100,0.2772727272727273,823,1,123,_Remix_Guitar,-1,-1
51,100,0.3409090909090909,92,1,124,_Remix_Guitar,-1,-1
51,100,0.4590909090909091,184,0,124,_Remix_Guitar,-1,-1
46,100,0.5409090909090909,299,0,124,_Remix_Guitar,-1,-1
46,100,0.17727272727272728,436,0,124,_Remix_Guitar,-1,-1
58,100,0.18181818181818182,66,1,125,_Remix_Guitar,-1,-1
58,100,0.3181818181818182,172,0,125,_Remix_Guitar,-1,-1
58,100,0.1,333,0,125,_Remix_Guitar,-1,-1
63,100,0.2772727272727273,502,0,125,_Remix_Guitar,-1,-1
58,100,0.1409090909090909,817,1,125,_Remix_Guitar,-1,-1
46,100,0.11818181818181818,493,1,126,_Remix_Guitar,-1,-1
46,100,0.22272727272727272,629,0,126,_Remix_Guitar,-1,-1
62,100,0.17727272727272728,779,0,126,_Remix_Guitar,-1,-1
62,100,0.2,876,0,126,_Remix_Guitar,-1,-1
51,100,0.2590909090909091,83,1,127,_Remix_Guitar,-1,-1
51,100,0.4590909090909091,210,0,127,_Remix_Guitar,-1,-1
63,100,0.41818181818181815,316,0,127,_Remix_Guitar,-1,-1
51,100,0.42272727272727273,576,1,127,_Remix_Guitar,-1,-1
51,100,1.059090909090909,770,0,127,_Remix_Guitar,-1,-1
58,100,0.2409090909090909,264,1,128,_Remix_Guitar,-1,-1
58,100,0.33636363636363636,633,1,128,_Remix_Guitar,-1,-1
62,100,0.7227272727272728,773,0,128,_Remix_Guitar,-1,-1
46,100,0.1590909090909091,97,1,129,_Remix_Guitar,-1,-1
58,100,0.1590909090909091,611,1,129,_Remix_Guitar,-1,-1
58,100,0.1,778,0,129,_Remix_Guitar,-1,-1
48,100,0.12272727272727273,56,1,130,_Remix_Guitar,-1,-1
58,100,0.2,242,0,130,_Remix_Guitar,-1,-1
58,100,0.1,452,1,130,_Remix_Guitar,-1,-1
60,100,0.17727272727272728,501,0,130,_Remix_Guitar,-1,-1
58,100,0.3,606,0,130,_Remix_Guitar,-1,-1
58,100,0.2636363636363636,818,1,130,_Remix_Guitar,-1,-1
51,100,0.11818181818181818,132,1,131,_Remix_Guitar,-1,-1
63,100,0.1,158,0,131,_Remix_Guitar,-1,-1
63,100,0.1409090909090909,211,0,131,_Remix_Guitar,-1,-1
58,100,0.17727272727272728,250,0,131,_Remix_Guitar,-1,-1
58,100,0.35909090909090907,364,0,131,_Remix_Guitar,-1,-1
46,100,0.3409090909090909,22,1,132,_Remix_Guitar,-1,-1
46,100,0.1590909090909091,391,1,132,_Remix_Guitar,-1,-1
58,100,0.3,83,1,133,_Remix_Guitar,-1,-1
58,100,0.1,189,0,133,_Remix_Guitar,-1,-1
58,100,0.18181818181818182,400,1,133,_Remix_Guitar,-1,-1
46,100,0.18181818181818182,440,0,133,_Remix_Guitar,-1,-1
51,100,1.8772727272727272,580,0,133,_Remix_Guitar,-1,-1
60,100,0.11818181818181818,140,1,134,_Remix_Guitar,-1,-1
51,100,0.8227272727272728,189,0,134,_Remix_Guitar,-1,-1
51,100,0.11818181818181818,374,0,134,_Remix_Guitar,-1,-1
63,100,1.2,611,1,134,_Remix_Guitar,-1,-1
63,100,0.4818181818181818,0,1,135,_Remix_Guitar,-1,-1
51,100,0.4,106,0,135,_Remix_Guitar,-1,-1
51,100,0.2818181818181818,330,1,135,_Remix_Guitar,-1,-1
58,100,0.17727272727272728,656,1,135,_Remix_Guitar,-1,-1
46,100,0.11818181818181818,845,0,135,_Remix_Guitar,-1,-1
58,100,0.11818181818181818,18,1,136,_Remix_Guitar,-1,-1
58,100,0.2,122,0,136,_Remix_Guitar,-1,-1
63,100,0.18181818181818182,421,1,136,_Remix_Guitar,-1,-1
58,100,0.11818181818181818,493,0,136,_Remix_Guitar,-1,-1
58,100,0.4409090909090909,541,0,136,_Remix_Guitar,-1,-1
63,100,0.1409090909090909,682,0,136,_Remix_Guitar,-1,-1
63,100,0.1590909090909091,721,0,136,_Remix_Guitar,-1,-1
58,100,0.1409090909090909,166,1,137,_Remix_Guitar,-1,-1
58,100,0.1,378,1,137,_Remix_Guitar,-1,-1
58,100,0.7818181818181819,553,0,137,_Remix_Guitar,-1,-1
63,100,0.21818181818181817,747,0,137,_Remix_Guitar,-1,-1
58,100,0.18181818181818182,3,1,138,_Remix_Guitar,-1,-1
58,100,0.6409090909090909,185,0,138,_Remix_Guitar,-1,-1
63,100,0.1409090909090909,409,1,138,_Remix_Guitar,-1,-1
51,100,0.5181818181818182,458,0,138,_Remix_Guitar,-1,-1
51,100,0.3,576,0,138,_Remix_Guitar,-1,-1
51,100,0.1590909090909091,668,0,138,_Remix_Guitar,-1,-1
51,100,0.1590909090909091,716,0,138,_Remix_Guitar,-1,-1
51,100,0.21818181818181817,757,0,138,_Remix_Guitar,-1,-1
51,100,0.4,840,0,138,_Remix_Guitar,-1,-1
51,100,0.16363636363636364,136,1,139,_Remix_Guitar,-1,-1
51,100,0.4636363636363636,180,0,139,_Remix_Guitar,-1,-1
58,100,0.1409090909090909,307,0,139,_Remix_Guitar,-1,-1
51,100,0.1,259,1,140,_Remix_Guitar,-1,-1
51,100,0.41818181818181815,615,1,140,_Remix_Guitar,-1,-1
58,100,0.2,739,0,140,_Remix_Guitar,-1,-1
58,100,0.41818181818181815,800,0,140,_Remix_Guitar,-1,-1
58,100,0.2409090909090909,158,1,141,_Remix_Guitar,-1,-1
51,100,0.1,220,0,141,_Remix_Guitar,-1,-1
51,100,0.1,576,1,141,_Remix_Guitar,-1,-1
51,100,0.13636363636363635,678,0,141,_Remix_Guitar,-1,-1
46,100,0.35909090909090907,725,0,141,_Remix_Guitar,-1,-1
46,100,0.12272727272727273,3,1,142,_Remix_Guitar,-1,-1
58,100,0.1,30,0,142,_Remix_Guitar,-1,-1
58,100,0.2590909090909091,110,0,142,_Remix_Guitar,-1,-1
58,100,0.2409090909090909,223,0,142,_Remix_Guitar,-1,-1
51,100,0.12272727272727273,299,0,142,_Remix_Guitar,-1,-1
63,100,0.1,496,0,142,_Remix_Guitar,-1,-1
51,100,0.1409090909090909,527,0,142,_Remix_Guitar,-1,-1
63,100,0.12272727272727273,576,0,142,_Remix_Guitar,-1,-1
63,100,0.1,792,1,142,_Remix_Guitar,-1,-1
51,100,0.2,814,0,142,_Remix_Guitar,-1,-1
58,100,0.17727272727272728,18,1,143,_Remix_Guitar,-1,-1
58,100,0.17727272727272728,140,0,143,_Remix_Guitar,-1,-1
51,100,0.21818181818181817,264,0,143,_Remix_Guitar,-1,-1
58,100,0.2,326,0,143,_Remix_Guitar,-1,-1
58,100,0.17727272727272728,436,0,143,_Remix_Guitar,-1,-1
51,100,0.2409090909090909,663,1,143,_Remix_Guitar,-1,-1
51,100,0.12272727272727273,730,0,143,_Remix_Guitar,-1,-1
51,100,0.1409090909090909,0,1,144,_Remix_Guitar,-1,-1
51,100,0.1409090909090909,220,1,144,_Remix_Guitar,-1,-1
63,100,0.2,338,0,144,_Remix_Guitar,-1,-1
46,100,0.1409090909090909,462,0,144,_Remix_Guitar,-1,-1
58,100,0.2,505,0,144,_Remix_Guitar,-1,-1
58,100,0.1409090909090909,594,0,144,_Remix_Guitar,-1,-1
46,100,0.1,641,0,144,_Remix_Guitar,-1,-1
46,100,0.3,668,0,144,_Remix_Guitar,-1,-1
58,100,0.3409090909090909,735,0,144,_Remix_Guitar,-1,-1
58,100,0.2818181818181818,826,0,144,_Remix_Guitar,-1,-1
51,100,0.6,53,1,145,_Remix_Guitar,-1,-1
51,100,0.2636363636363636,311,1,145,_Remix_Guitar,-1,-1
51,100,0.1409090909090909,421,0,145,_Remix_Guitar,-1,-1
51,100,0.1,527,0,145,_Remix_Guitar,-1,-1
58,100,0.11818181818181818,704,0,145,_Remix_Guitar,-1,-1
46,100,0.4772727272727273,140,1,146,_Remix_Guitar,-1,-1
46,100,0.2,259,0,146,_Remix_Guitar,-1,-1
58,100,0.2409090909090909,431,0,146,_Remix_Guitar,-1,-1
46,100,0.1,515,0,146,_Remix_Guitar,-1,-1
58,100,0.2772727272727273,537,0,146,_Remix_Guitar,-1,-1
48,100,0.11818181818181818,660,0,146,_Remix_Guitar,-1,-1
49,100,0.1590909090909091,449,1,0,DL_Guitar,-1,-1
61,100,0.1590909090909091,541,0,0,DL_Guitar,-1,-1
53,100,0.13636363636363635,172,1,1,DL_Guitar,-1,-1
53,100,0.16363636363636364,224,0,1,DL_Guitar,-1,-1
42,100,0.4818181818181818,365,0,1,DL_Guitar,-1,-1
49,100,0.2,541,0,1,DL_Guitar,-1,-1
46,100,0.43636363636363634,479,1,2,DL_Guitar,-1,-1
56,100,0.2772727272727273,625,0,2,DL_Guitar,-1,-1
46,100,0.11818181818181818,735,0,2,DL_Guitar,-1,-1
46,100,0.12272727272727273,796,0,2,DL_Guitar,-1,-1
53,100,0.38181818181818183,461,1,3,DL_Guitar,-1,-1
51,100,0.2590909090909091,712,1,3,DL_Guitar,-1,-1
44,100,0.16363636363636364,840,0,3,DL_Guitar,-1,-1
51,100,0.5363636363636364,194,1,4,DL_Guitar,-1,-1
41,100,0.4590909090909091,330,0,4,DL_Guitar,-1,-1
42,100,0.2636363636363636,444,0,4,DL_Guitar,-1,-1
48,100,0.17727272727272728,524,0,4,DL_Guitar,-1,-1
49,100,0.11818181818181818,703,0,4,DL_Guitar,-1,-1
49,100,0.3409090909090909,734,0,4,DL_Guitar,-1,-1
61,100,0.12272727272727273,818,0,4,DL_Guitar,-1,-1
61,100,0.16363636363636364,179,1,5,DL_Guitar,-1,-1
61,100,0.2,260,0,5,DL_Guitar,-1,-1
61,100,0.2818181818181818,355,0,5,DL_Guitar,-1,-1
49,100,0.1,527,0,5,DL_Guitar,-1,-1
61,100,0.4590909090909091,660,0,5,DL_Guitar,-1,-1
49,100,0.5409090909090909,53,1,6,DL_Guitar,-1,-1
61,100,0.16363636363636364,201,0,6,DL_Guitar,-1,-1
61,100,0.11818181818181818,383,0,6,DL_Guitar,-1,-1
61,100,0.5409090909090909,703,1,6,DL_Guitar,-1,-1
61,100,0.12272727272727273,839,0,6,DL_Guitar,-1,-1
46,100,0.4772727272727273,61,1,7,DL_Guitar,-1,-1
53,100,0.17727272727272728,734,1,7,DL_Guitar,-1,-1
41,100,0.12272727272727273,70,1,8,DL_Guitar,-1,-1
44,100,0.2590909090909091,171,0,8,DL_Guitar,-1,-1
51,100,0.12272727272727273,290,0,8,DL_Guitar,-1,-1
44,100,0.1,558,1,8,DL_Guitar,-1,-1
56,100,0.18181818181818182,598,0,8,DL_Guitar,-1,-1
44,100,0.4409090909090909,673,0,8,DL_Guitar,-1,-1
51,100,0.12272727272727273,783,0,8,DL_Guitar,-1,-1
51,100,0.17727272727272728,149,1,9,DL_Guitar,-1,-1
42,100,0.1,352,1,9,DL_Guitar,-1,-1
54,100,0.1590909090909091,374,0,9,DL_Guitar,-1,-1
54,100,0.11818181818181818,426,0,9,DL_Guitar,-1,-1
42,100,0.17727272727272728,809,1,9,DL_Guitar,-1,-1
54,100,0.5227272727272727,849,0,9,DL_Guitar,-1,-1
49,100,0.22272727272727272,409,1,10,DL_Guitar,-1,-1
49,100,0.11818181818181818,505,0,10,DL_Guitar,-1,-1
56,100,0.5,660,0,10,DL_Guitar,-1,-1
53,100,0.11818181818181818,823,0,10,DL_Guitar,-1,-1
61,100,0.17727272727272728,338,1,11,DL_Guitar,-1,-1
61,100,0.1,391,0,11,DL_Guitar,-1,-1
54,100,0.1409090909090909,505,0,11,DL_Guitar,-1,-1
54,100,0.5636363636363636,575,0,11,DL_Guitar,-1,-1
49,100,0.6181818181818182,132,1,12,DL_Guitar,-1,-1
54,100,0.21818181818181817,501,1,12,DL_Guitar,-1,-1
53,100,0.2590909090909091,550,0,12,DL_Guitar,-1,-1
49,100,0.2590909090909091,646,0,12,DL_Guitar,-1,-1
49,100,0.41818181818181815,713,0,12,DL_Guitar,-1,-1
56,100,0.2409090909090909,8,1,13,DL_Guitar,-1,-1
49,100,0.17727272727272728,127,0,13,DL_Guitar,-1,-1
49,100,0.11818181818181818,391,1,13,DL_Guitar,-1,-1
49,100,0.1409090909090909,453,0,13,DL_Guitar,-1,-1
61,100,0.4409090909090909,527,0,13,DL_Guitar,-1,-1
61,100,0.12272727272727273,642,0,13,DL_Guitar,-1,-1
44,100,0.6818181818181818,773,0,13,DL_Guitar,-1,-1
56,100,0.2590909090909091,44,1,14,DL_Guitar,-1,-1
51,100,0.1409090909090909,185,0,14,DL_Guitar,-1,-1
51,100,0.17727272727272728,250,0,14,DL_Guitar,-1,-1
56,100,0.37727272727272726,391,0,14,DL_Guitar,-1,-1
60,100,0.12272727272727273,510,0,14,DL_Guitar,-1,-1
51,100,0.1590909090909091,704,0,14,DL_Guitar,-1,-1
56,100,0.4,801,0,14,DL_Guitar,-1,-1
56,100,0.1590909090909091,118,1,15,DL_Guitar,-1,-1
56,100,0.2409090909090909,166,0,15,DL_Guitar,-1,-1
51,100,0.5,220,0,15,DL_Guitar,-1,-1
51,100,0.21818181818181817,352,0,15,DL_Guitar,-1,-1
51,100,0.5590909090909091,479,0,15,DL_Guitar,-1,-1
44,100,0.2636363636363636,795,1,15,DL_Guitar,-1,-1
54,100,0.2,123,1,16,DL_Guitar,-1,-1
49,100,0.2409090909090909,167,0,16,DL_Guitar,-1,-1
61,100,0.2,466,1,16,DL_Guitar,-1,-1
53,100,0.1,540,0,16,DL_Guitar,-1,-1
61,100,0.43636363636363634,677,0,16,DL_Guitar,-1,-1
49,100,0.2636363636363636,773,0,16,DL_Guitar,-1,-1
61,100,0.1,835,0,16,DL_Guitar,-1,-1
61,100,0.35909090909090907,0,1,17,DL_Guitar,-1,-1
61,100,0.1590909090909091,96,0,17,DL_Guitar,-1,-1
63,100,0.1409090909090909,272,0,17,DL_Guitar,-1,-1
51,100,0.18181818181818182,312,0,17,DL_Guitar,-1,-1
56,100,0.17727272727272728,470,0,17,DL_Guitar,-1,-1
56,100,0.2772727272727273,515,0,17,DL_Guitar,-1,-1
44,100,0.1409090909090909,602,0,17,DL_Guitar,-1,-1
56,100,0.17727272727272728,810,1,17,DL_Guitar,-1,-1
56,100,0.12272727272727273,13,1,18,DL_Guitar,-1,-1
56,100,0.11818181818181818,44,0,18,DL_Guitar,-1,-1
61,100,0.16363636363636364,92,0,18,DL_Guitar,-1,-1
53,100,0.1590909090909091,272,0,18,DL_Guitar,-1,-1
61,100,0.1590909090909091,360,0,18,DL_Guitar,-1,-1
49,100,0.18181818181818182,395,0,18,DL_Guitar,-1,-1
54,100,0.12272727272727273,453,0,18,DL_Guitar,-1,-1
54,100,0.38181818181818183,484,0,18,DL_Guitar,-1,-1
61,100,0.2772727272727273,581,0,18,DL_Guitar,-1,-1
54,100,0.2,650,0,18,DL_Guitar,-1,-1
54,100,0.1590909090909091,712,0,18,DL_Guitar,-1,-1
61,100,0.1409090909090909,752,0,18,DL_Guitar,-1,-1
49,100,0.5590909090909091,827,0,18,DL_Guitar,-1,-1
49,100,0.3409090909090909,110,1,19,DL_Guitar,-1,-1
61,100,0.13636363636363635,216,0,19,DL_Guitar,-1,-1
61,100,0.43636363636363634,281,0,19,DL_Guitar,-1,-1
63,100,0.2590909090909091,700,1,19,DL_Guitar,-1,-1
61,100,0.5,193,1,20,DL_Guitar,-1,-1
60,100,0.11818181818181818,501,1,20,DL_Guitar,-1,-1
42,100,0.18181818181818182,576,0,20,DL_Guitar,-1,-1
49,100,0.2,633,0,20,DL_Guitar,-1,-1
42,100,0.2,760,0,20,DL_Guitar,-1,-1
61,100,0.18181818181818182,835,0,20,DL_Guitar,-1,-1
45,100,0.1590909090909091,264,1,21,DL_Guitar,-1,-1
63,100,0.2,497,1,21,DL_Guitar,-1,-1
46,100,0.2409090909090909,739,1,21,DL_Guitar,-1,-1
61,100,0.1409090909090909,581,1,22,DL_Guitar,-1,-1
61,100,0.2409090909090909,638,0,22,DL_Guitar,-1,-1
61,100,0.2409090909090909,735,0,22,DL_Guitar,-1,-1
56,100,0.22272727272727272,233,1,23,DL_Guitar,-1,-1
44,100,0.11818181818181818,505,1,23,DL_Guitar,-1,-1
49,100,0.2,48,1,24,DL_Guitar,-1,-1
49,100,0.1409090909090909,144,0,24,DL_Guitar,-1,-1
49,100,0.33636363636363636,260,0,24,DL_Guitar,-1,-1
61,100,0.21818181818181817,339,0,24,DL_Guitar,-1,-1
61,100,0.43636363636363634,413,0,24,DL_Guitar,-1,-1
61,100,0.5772727272727273,625,1,24,DL_Guitar,-1,-1
61,100,0.11818181818181818,770,0,24,DL_Guitar,-1,-1
49,100,0.18181818181818182,796,0,24,DL_Guitar,-1,-1
61,100,0.5818181818181818,835,0,24,DL_Guitar,-1,-1
61,100,0.2409090909090909,88,1,25,DL_Guitar,-1,-1
54,100,0.5409090909090909,144,0,25,DL_Guitar,-1,-1
54,100,0.4,295,0,25,DL_Guitar,-1,-1
54,100,0.5590909090909091,413,0,25,DL_Guitar,-1,-1
54,100,0.11818181818181818,550,0,25,DL_Guitar,-1,-1
51,100,0.12272727272727273,773,1,25,DL_Guitar,-1,-1
51,100,0.2409090909090909,839,0,25,DL_Guitar,-1,-1
57,100,0.1,272,1,26,DL_Guitar,-1,-1
45,100,0.17727272727272728,295,0,26,DL_Guitar,-1,-1
45,100,0.2590909090909091,347,0,26,DL_Guitar,-1,-1
45,100,0.18181818181818182,409,0,26,DL_Guitar,-1,-1
46,100,0.2,831,1,26,DL_Guitar,-1,-1
61,100,1.0636363636363637,26,1,27,DL_Guitar,-1,-1
61,100,0.11818181818181818,339,1,27,DL_Guitar,-1,-1
42,100,0.2,387,0,27,DL_Guitar,-1,-1
49,100,0.2409090909090909,515,0,27,DL_Guitar,-1,-1
61,100,0.2,638,0,27,DL_Guitar,-1,-1
61,100,0.4,773,0,27,DL_Guitar,-1,-1
51,100,0.18181818181818182,131,1,28,DL_Guitar,-1,-1
60,100,0.2590909090909091,250,0,28,DL_Guitar,-1,-1
60,100,0.2590909090909091,382,0,28,DL_Guitar,-1,-1
60,100,0.13636363636363635,457,0,28,DL_Guitar,-1,-1
53,100,0.5772727272727273,501,0,28,DL_Guitar,-1,-1
53,100,0.22272727272727272,673,0,28,DL_Guitar,-1,-1
53,100,0.11818181818181818,0,1,29,DL_Guitar,-1,-1
44,100,0.11818181818181818,370,1,29,DL_Guitar,-1,-1
54,100,0.11818181818181818,611,1,29,DL_Guitar,-1,-1
54,100,0.12272727272727273,686,0,29,DL_Guitar,-1,-1
54,100,0.41818181818181815,725,0,29,DL_Guitar,-1,-1
42,100,0.1590909090909091,30,1,30,DL_Guitar,-1,-1
54,100,0.7181818181818181,65,0,30,DL_Guitar,-1,-1
54,100,0.2,246,0,30,DL_Guitar,-1,-1
49,100,0.6409090909090909,536,1,30,DL_Guitar,-1,-1
53,100,0.23636363636363636,721,0,30,DL_Guitar,-1,-1
60,100,0.1,787,0,30,DL_Guitar,-1,-1
53,100,0.5363636363636364,831,0,30,DL_Guitar,-1,-1
53,100,0.9181818181818182,127,1,31,DL_Guitar,-1,-1
53,100,0.4,356,1,31,DL_Guitar,-1,-1
61,100,0.4,488,0,31,DL_Guitar,-1,-1
61,100,0.8,642,0,31,DL_Guitar,-1,-1
61,100,0.18181818181818182,0,1,32,DL_Guitar,-1,-1
61,100,0.13636363636363635,171,0,32,DL_Guitar,-1,-1
42,100,0.35909090909090907,233,0,32,DL_Guitar,-1,-1
42,100,0.2,391,0,32,DL_Guitar,-1,-1
54,100,0.1409090909090909,453,0,32,DL_Guitar,-1,-1
49,100,0.1409090909090909,593,0,32,DL_Guitar,-1,-1
61,100,0.11818181818181818,668,0,32,DL_Guitar,-1,-1
56,100,0.11818181818181818,845,0,32,DL_Guitar,-1,-1
53,100,0.22272727272727272,211,1,33,DL_Guitar,-1,-1
53,100,0.5409090909090909,321,0,33,DL_Guitar,-1,-1
53,100,0.42272727272727273,444,0,33,DL_Guitar,-1,-1
61,100,0.2590909090909091,633,0,33,DL_Guitar,-1,-1
53,100,0.11818181818181818,713,0,33,DL_Guitar,-1,-1
56,100,0.11818181818181818,31,1,34,DL_Guitar,-1,-1
54,100,0.18181818181818182,201,0,34,DL_Guitar,-1,-1
54,100,0.6227272727272727,289,0,34,DL_Guitar,-1,-1
42,100,0.11818181818181818,461,0,34,DL_Guitar,-1,-1
42,100,0.18181818181818182,509,0,34,DL_Guitar,-1,-1
42,100,0.1,581,0,34,DL_Guitar,-1,-1
54,100,0.1409090909090909,619,0,34,DL_Guitar,-1,-1
54,100,0.3409090909090909,694,0,34,DL_Guitar,-1,-1
49,100,0.1590909090909091,848,0,34,DL_Guitar,-1,-1
61,100,0.11818181818181818,118,1,35,DL_Guitar,-1,-1
53,100,0.2409090909090909,308,0,35,DL_Guitar,-1,-1
53,100,0.4,421,0,35,DL_Guitar,-1,-1
60,100,0.2,576,0,35,DL_Guitar,-1,-1
60,100,0.1409090909090909,625,0,35,DL_Guitar,-1,-1
53,100,1.018181818181818,691,0,35,DL_Guitar,-1,-1
61,100,0.38181818181818183,69,1,36,DL_Guitar,-1,-1
61,100,0.2636363636363636,356,1,36,DL_Guitar,-1,-1
54,100,0.8227272727272728,421,0,36,DL_Guitar,-1,-1
42,100,0.4,691,1,36,DL_Guitar,-1,-1
42,100,0.17727272727272728,853,0,36,DL_Guitar,-1,-1
54,100,0.2409090909090909,153,1,37,DL_Guitar,-1,-1
42,100,0.1,215,0,37,DL_Guitar,-1,-1
54,100,0.11818181818181818,238,0,37,DL_Guitar,-1,-1
54,100,0.1590909090909091,298,0,37,DL_Guitar,-1,-1
42,100,0.18181818181818182,334,0,37,DL_Guitar,-1,-1
54,100,0.11818181818181818,418,0,37,DL_Guitar,-1,-1
42,100,0.32272727272727275,444,0,37,DL_Guitar,-1,-1
51,100,0.2409090909090909,616,0,37,DL_Guitar,-1,-1
51,100,0.4,686,0,37,DL_Guitar,-1,-1
44,100,0.4818181818181818,796,0,37,DL_Guitar,-1,-1
56,100,0.5,40,1,38,DL_Guitar,-1,-1
44,100,0.11818181818181818,163,0,38,DL_Guitar,-1,-1
51,100,0.2,418,1,38,DL_Guitar,-1,-1
51,100,0.18181818181818182,496,0,38,DL_Guitar,-1,-1
51,100,0.35909090909090907,558,0,38,DL_Guitar,-1,-1
54,100,0.1590909090909091,713,0,38,DL_Guitar,-1,-1
49,100,0.12272727272727273,751,0,38,DL_Guitar,-1,-1
61,100,0.7818181818181819,791,0,38,DL_Guitar,-1,-1
61,100,0.5590909090909091,141,1,39,DL_Guitar,-1,-1
49,100,0.3409090909090909,289,0,39,DL_Guitar,-1,-1
61,100,0.3409090909090909,364,0,39,DL_Guitar,-1,-1
49,100,0.4,440,0,39,DL_Guitar,-1,-1
61,100,0.6181818181818182,568,0,39,DL_Guitar,-1,-1
49,100,0.2,703,0,39,DL_Guitar,-1,-1
44,100,0.18181818181818182,813,0,39,DL_Guitar,-1,-1
44,100,0.11818181818181818,875,0,39,DL_Guitar,-1,-1
56,100,0.12272727272727273,48,1,40,DL_Guitar,-1,-1
60,100,0.11818181818181818,295,1,40,DL_Guitar,-1,-1
53,100,0.5409090909090909,399,0,40,DL_Guitar,-1,-1
61,100,0.5181818181818182,703,1,40,DL_Guitar,-1,-1
49,100,0.4409090909090909,66,1,41,DL_Guitar,-1,-1
61,100,0.5590909090909091,193,0,41,DL_Guitar,-1,-1
61,100,0.3,396,1,41,DL_Guitar,-1,-1
61,100,0.41818181818181815,691,1,41,DL_Guitar,-1,-1
61,100,0.9409090909090909,804,0,41,DL_Guitar,-1,-1
44,100,0.2772727272727273,163,1,42,DL_Guitar,-1,-1
56,100,0.11818181818181818,303,0,42,DL_Guitar,-1,-1
53,100,0.5,638,1,42,DL_Guitar,-1,-1
53,100,0.21818181818181817,0,1,43,DL_Guitar,-1,-1
61,100,0.4636363636363636,48,0,43,DL_Guitar,-1,-1
49,100,0.2409090909090909,273,1,43,DL_Guitar,-1,-1
61,100,0.1590909090909091,373,0,43,DL_Guitar,-1,-1
61,100,0.11818181818181818,448,0,43,DL_Guitar,-1,-1
44,100,0.2590909090909091,801,1,43,DL_Guitar,-1,-1
56,100,0.16363636363636364,311,1,44,DL_Guitar,-1,-1
61,100,0.1409090909090909,660,1,44,DL_Guitar,-1,-1
61,100,0.2409090909090909,694,0,44,DL_Guitar,-1,-1
61,100,0.4409090909090909,118,1,45,DL_Guitar,-1,-1
61,100,0.2,426,1,45,DL_Guitar,-1,-1
54,100,0.1409090909090909,603,0,45,DL_Guitar,-1,-1
54,100,0.1,751,0,45,DL_Guitar,-1,-1
44,100,0.1409090909090909,43,1,46,DL_Guitar,-1,-1
56,100,0.1590909090909091,96,0,46,DL_Guitar,-1,-1
49,100,0.2590909090909091,220,0,46,DL_Guitar,-1,-1
56,100,0.2,466,1,46,DL_Guitar,-1,-1
44,100,0.12272727272727273,541,0,46,DL_Guitar,-1,-1
51,100,0.1590909090909091,34,1,47,DL_Guitar,-1,-1
58,100,0.1409090909090909,224,0,47,DL_Guitar,-1,-1
61,100,0.18181818181818182,396,0,47,DL_Guitar,-1,-1
58,100,0.1,593,0,47,DL_Guitar,-1,-1
44,100,0.11818181818181818,668,0,47,DL_Guitar,-1,-1
56,100,0.1590909090909091,260,1,48,DL_Guitar,-1,-1
56,100,0.2818181818181818,518,1,48,DL_Guitar,-1,-1
56,100,0.17727272727272728,633,0,48,DL_Guitar,-1,-1
61,100,0.1409090909090909,694,0,48,DL_Guitar,-1,-1
63,100,0.18181818181818182,770,0,48,DL_Guitar,-1,-1
56,100,0.2590909090909091,260,1,49,DL_Guitar,-1,-1
51,100,0.11818181818181818,391,0,49,DL_Guitar,-1,-1
61,100,0.2590909090909091,633,1,49,DL_Guitar,-1,-1
49,100,0.2818181818181818,123,1,50,DL_Guitar,-1,-1
54,100,0.3409090909090909,188,0,50,DL_Guitar,-1,-1
54,100,0.1590909090909091,405,1,50,DL_Guitar,-1,-1
56,100,0.16363636363636364,509,0,50,DL_Guitar,-1,-1
56,100,0.5227272727272727,751,1,50,DL_Guitar,-1,-1
61,100,0.2590909090909091,875,0,50,DL_Guitar,-1,-1
56,100,0.2590909090909091,56,1,51,DL_Guitar,-1,-1
44,100,0.1,215,0,51,DL_Guitar,-1,-1
56,100,0.5181818181818182,308,0,51,DL_Guitar,-1,-1
56,100,0.3,444,0,51,DL_Guitar,-1,-1
56,100,0.4409090909090909,550,0,51,DL_Guitar,-1,-1
56,100,0.38181818181818183,686,0,51,DL_Guitar,-1,-1
56,100,0.4590909090909091,791,0,51,DL_Guitar,-1,-1
56,100,0.4772727272727273,61,1,52,DL_Guitar,-1,-1
56,100,0.18181818181818182,233,0,52,DL_Guitar,-1,-1
54,100,0.3,311,0,52,DL_Guitar,-1,-1
49,100,0.5818181818181818,396,0,52,DL_Guitar,-1,-1
56,100,0.2,40,1,53,DL_Guitar,-1,-1
56,100,0.18181818181818182,110,0,53,DL_Guitar,-1,-1
51,100,0.5409090909090909,153,0,53,DL_Guitar,-1,-1
56,100,0.2590909090909091,281,0,53,DL_Guitar,-1,-1
63,100,0.11818181818181818,373,0,53,DL_Guitar,-1,-1
49,100,0.4409090909090909,606,1,53,DL_Guitar,-1,-1
56,100,0.16363636363636364,774,0,53,DL_Guitar,-1,-1
56,100,0.22272727272727272,848,0,53,DL_Guitar,-1,-1
61,100,0.2409090909090909,48,1,54,DL_Guitar,-1,-1
56,100,0.2,110,0,54,DL_Guitar,-1,-1
61,100,0.2,810,1,54,DL_Guitar,-1,-1
54,100,0.38181818181818183,861,0,54,DL_Guitar,-1,-1
44,100,0.2,96,1,55,DL_Guitar,-1,-1
49,100,0.4,163,0,55,DL_Guitar,-1,-1
49,100,0.35909090909090907,295,0,55,DL_Guitar,-1,-1
56,100,0.36363636363636365,818,1,55,DL_Guitar,-1,-1
61,100,2.040909090909091,268,1,56,DL_Guitar,-1,-1
49,100,0.3409090909090909,791,1,56,DL_Guitar,-1,-1
61,100,0.5772727272727273,866,0,56,DL_Guitar,-1,-1
49,100,0.11818181818181818,286,1,57,DL_Guitar,-1,-1
49,100,0.9181818181818182,435,0,57,DL_Guitar,-1,-1
49,100,0.1590909090909091,726,1,57,DL_Guitar,-1,-1
44,100,0.1409090909090909,8,1,58,DL_Guitar,-1,-1
44,100,0.17727272727272728,128,0,58,DL_Guitar,-1,-1
56,100,0.21818181818181817,361,1,58,DL_Guitar,-1,-1
61,100,1.759090909090909,550,0,58,DL_Guitar,-1,-1
61,100,0.1590909090909091,215,1,59,DL_Guitar,-1,-1
49,100,0.1,325,0,59,DL_Guitar,-1,-1
61,100,0.1409090909090909,373,0,59,DL_Guitar,-1,-1
56,100,0.22272727272727272,541,0,59,DL_Guitar,-1,-1
57,100,0.1590909090909091,726,0,59,DL_Guitar,-1,-1
57,100,0.35909090909090907,783,0,59,DL_Guitar,-1,-1
53,100,0.2,875,0,59,DL_Guitar,-1,-1
57,100,0.2409090909090909,48,1,60,DL_Guitar,-1,-1
45,100,0.12272727272727273,136,0,60,DL_Guitar,-1,-1
61,100,0.23636363636363636,171,0,60,DL_Guitar,-1,-1
61,100,1.1181818181818182,228,0,60,DL_Guitar,-1,-1
46,100,0.21818181818181817,493,1,60,DL_Guitar,-1,-1
61,100,2.2409090909090907,673,0,60,DL_Guitar,-1,-1
61,100,0.5818181818181818,364,1,61,DL_Guitar,-1,-1
61,100,0.3409090909090909,531,0,61,DL_Guitar,-1,-1
42,100,0.1590909090909091,681,0,61,DL_Guitar,-1,-1
51,100,0.1590909090909091,21,1,62,DL_Guitar,-1,-1
44,100,0.21818181818181817,163,0,62,DL_Guitar,-1,-1
61,100,0.8818181818181818,461,1,62,DL_Guitar,-1,-1
61,100,0.5,681,1,62,DL_Guitar,-1,-1
61,100,0.2636363636363636,796,0,62,DL_Guitar,-1,-1
61,100,1.9636363636363636,48,1,63,DL_Guitar,-1,-1
61,100,0.2409090909090909,576,1,63,DL_Guitar,-1,-1
42,100,0.9409090909090909,628,0,63,DL_Guitar,-1,-1
42,100,0.9181818181818182,858,1,63,DL_Guitar,-1,-1
49,100,0.6,189,1,64,DL_Guitar,-1,-1
61,100,0.5409090909090909,440,1,64,DL_Guitar,-1,-1
49,100,0.12272727272727273,629,0,64,DL_Guitar,-1,-1
56,100,0.4,713,0,64,DL_Guitar,-1,-1
44,100,0.2409090909090909,800,0,64,DL_Guitar,-1,-1
56,100,0.2772727272727273,853,0,64,DL_Guitar,-1,-1
44,100,0.5409090909090909,184,1,65,DL_Guitar,-1,-1
46,100,0.6590909090909091,307,0,65,DL_Guitar,-1,-1
53,100,0.9590909090909091,470,0,65,DL_Guitar,-1,-1
54,100,0.1590909090909091,805,1,65,DL_Guitar,-1,-1
42,100,0.1409090909090909,839,0,65,DL_Guitar,-1,-1
54,100,0.11818181818181818,40,1,66,DL_Guitar,-1,-1
54,100,0.3,106,0,66,DL_Guitar,-1,-1
42,100,0.1409090909090909,242,0,66,DL_Guitar,-1,-1
54,100,0.2590909090909091,273,0,66,DL_Guitar,-1,-1
54,100,0.1409090909090909,404,0,66,DL_Guitar,-1,-1
49,100,0.5,436,0,66,DL_Guitar,-1,-1
56,100,0.18181818181818182,729,1,66,DL_Guitar,-1,-1
49,100,0.5227272727272727,796,0,66,DL_Guitar,-1,-1
44,100,0.2772727272727273,53,1,67,DL_Guitar,-1,-1
56,100,0.740909090909091,113,0,67,DL_Guitar,-1,-1
44,100,0.18181818181818182,276,0,67,DL_Guitar,-1,-1
63,100,0.2409090909090909,377,0,67,DL_Guitar,-1,-1
44,100,0.22272727272727272,430,0,67,DL_Guitar,-1,-1
56,100,0.22272727272727272,487,0,67,DL_Guitar,-1,-1
46,100,0.8590909090909091,550,0,67,DL_Guitar,-1,-1
46,100,0.4,796,1,67,DL_Guitar,-1,-1
46,100,0.5363636363636364,40,1,68,DL_Guitar,-1,-1
54,100,0.4,163,0,68,DL_Guitar,-1,-1
54,100,0.9590909090909091,263,0,68,DL_Guitar,-1,-1
54,100,0.3,480,1,68,DL_Guitar,-1,-1
42,100,0.23636363636363636,546,0,68,DL_Guitar,-1,-1
54,100,0.11818181818181818,624,0,68,DL_Guitar,-1,-1
49,100,0.6181818181818182,656,0,68,DL_Guitar,-1,-1
49,100,0.13636363636363635,810,0,68,DL_Guitar,-1,-1
49,100,1.259090909090909,866,0,68,DL_Guitar,-1,-1
44,100,1.6590909090909092,282,1,69,DL_Guitar,-1,-1
44,100,0.5,660,1,69,DL_Guitar,-1,-1
46,100,0.6818181818181818,773,0,69,DL_Guitar,-1,-1
53,100,0.18181818181818182,110,1,70,DL_Guitar,-1,-1
53,100,0.4590909090909091,176,0,70,DL_Guitar,-1,-1
53,100,0.2590909090909091,316,0,70,DL_Guitar,-1,-1
42,100,0.22272727272727272,409,0,70,DL_Guitar,-1,-1
54,100,0.2,633,1,70,DL_Guitar,-1,-1
54,100,0.1409090909090909,760,0,70,DL_Guitar,-1,-1
54,100,0.3,813,0,70,DL_Guitar,-1,-1
49,100,0.6,9,1,71,DL_Guitar,-1,-1
56,100,0.7227272727272728,356,1,71,DL_Guitar,-1,-1
44,100,0.4409090909090909,514,0,71,DL_Guitar,-1,-1
44,100,0.17727272727272728,756,1,71,DL_Guitar,-1,-1
56,100,0.2,800,0,71,DL_Guitar,-1,-1
44,100,0.21818181818181817,876,0,71,DL_Guitar,-1,-1
44,100,0.7,87,1,72,DL_Guitar,-1,-1
54,100,0.3181818181818182,0,1,73,DL_Guitar,-1,-1
54,100,0.11818181818181818,83,0,73,DL_Guitar,-1,-1
61,100,0.3,606,1,73,DL_Guitar,-1,-1
61,100,0.18181818181818182,695,0,73,DL_Guitar,-1,-1
44,100,0.42272727272727273,760,0,73,DL_Guitar,-1,-1
61,100,0.4,506,1,74,DL_Guitar,-1,-1
61,100,0.2409090909090909,783,1,74,DL_Guitar,-1,-1
57,100,0.35909090909090907,140,1,75,DL_Guitar,-1,-1
54,100,0.12272727272727273,255,0,75,DL_Guitar,-1,-1
54,100,0.22272727272727272,422,0,75,DL_Guitar,-1,-1
54,100,0.3,546,0,75,DL_Guitar,-1,-1
61,100,0.1409090909090909,650,0,75,DL_Guitar,-1,-1
42,100,0.12272727272727273,686,0,75,DL_Guitar,-1,-1
61,100,0.17727272727272728,722,0,75,DL_Guitar,-1,-1
56,100,0.11818181818181818,0,1,76,DL_Guitar,-1,-1
53,100,1.1,100,0,76,DL_Guitar,-1,-1
60,100,0.4772727272727273,370,1,76,DL_Guitar,-1,-1
57,100,0.12272727272727273,509,0,76,DL_Guitar,-1,-1
63,100,0.1,550,0,76,DL_Guitar,-1,-1
61,100,0.3181818181818182,770,1,76,DL_Guitar,-1,-1
60,100,0.2409090909090909,839,0,76,DL_Guitar,-1,-1
44,100,0.18181818181818182,26,1,77,DL_Guitar,-1,-1
56,100,0.3409090909090909,110,0,77,DL_Guitar,-1,-1
49,100,0.21818181818181817,263,0,77,DL_Guitar,-1,-1
61,100,0.2,356,0,77,DL_Guitar,-1,-1
54,100,0.1590909090909091,413,0,77,DL_Guitar,-1,-1
54,100,0.1,466,0,77,DL_Guitar,-1,-1
54,100,0.3409090909090909,514,0,77,DL_Guitar,-1,-1
61,100,0.17727272727272728,603,0,77,DL_Guitar,-1,-1
61,100,0.21818181818181817,779,0,77,DL_Guitar,-1,-1
61,100,0.9181818181818182,119,1,78,DL_Guitar,-1,-1
44,100,0.4818181818181818,333,1,78,DL_Guitar,-1,-1
56,100,0.12272727272727273,466,0,78,DL_Guitar,-1,-1
51,100,0.1409090909090909,540,0,78,DL_Guitar,-1,-1
51,100,0.5409090909090909,580,0,78,DL_Guitar,-1,-1
46,100,0.8590909090909091,74,1,79,DL_Guitar,-1,-1
46,100,0.1,307,1,79,DL_Guitar,-1,-1
61,100,0.2818181818181818,333,0,79,DL_Guitar,-1,-1
61,100,0.16363636363636364,399,0,79,DL_Guitar,-1,-1
54,100,0.3181818181818182,449,0,79,DL_Guitar,-1,-1
54,100,0.11818181818181818,580,0,79,DL_Guitar,-1,-1
54,100,0.1,624,0,79,DL_Guitar,-1,-1
54,100,0.35909090909090907,9,1,80,DL_Guitar,-1,-1
54,100,0.21818181818181817,153,0,80,DL_Guitar,-1,-1
49,100,0.4,210,0,80,DL_Guitar,-1,-1
61,100,0.13636363636363635,436,1,80,DL_Guitar,-1,-1
51,100,0.2,563,0,80,DL_Guitar,-1,-1
63,100,0.32272727272727275,606,0,80,DL_Guitar,-1,-1
51,100,0.1,686,0,80,DL_Guitar,-1,-1
51,100,0.2772727272727273,823,0,80,DL_Guitar,-1,-1
51,100,0.1409090909090909,87,1,81,DL_Guitar,-1,-1
56,100,0.2409090909090909,307,1,81,DL_Guitar,-1,-1
56,100,0.1,553,1,81,DL_Guitar,-1,-1
56,100,0.33636363636363636,590,0,81,DL_Guitar,-1,-1
42,100,0.5818181818181818,739,0,81,DL_Guitar,-1,-1
42,100,0.2,113,1,82,DL_Guitar,-1,-1
49,100,0.8772727272727273,303,0,82,DL_Guitar,-1,-1
44,100,0.3,792,1,82,DL_Guitar,-1,-1
44,100,0.3181818181818182,220,1,83,DL_Guitar,-1,-1
46,100,0.6181818181818182,417,0,83,DL_Guitar,-1,-1
54,100,0.1409090909090909,47,1,84,DL_Guitar,-1,-1
54,100,0.22272727272727272,136,0,84,DL_Guitar,-1,-1
42,100,0.11818181818181818,184,0,84,DL_Guitar,-1,-1
42,100,1.3,233,0,84,DL_Guitar,-1,-1
49,100,1.1181818181818182,527,1,84,DL_Guitar,-1,-1
49,100,0.7,870,1,84,DL_Guitar,-1,-1
56,100,0.1,153,1,85,DL_Guitar,-1,-1
44,100,0.11818181818181818,216,0,85,DL_Guitar,-1,-1
44,100,0.9409090909090909,250,0,85,DL_Guitar,-1,-1
51,100,0.21818181818181817,572,1,85,DL_Guitar,-1,-1
59,100,0.2,443,1,86,DL_Guitar,-1,-1
55,100,0.1409090909090909,572,0,86,DL_Guitar,-1,-1
50,100,0.17727272727272728,669,0,86,DL_Guitar,-1,-1
57,100,0.36363636363636365,796,0,86,DL_Guitar,-1,-1
50,100,0.4772727272727273,30,1,87,DL_Guitar,-1,-1
57,100,0.42272727272727273,136,0,87,DL_Guitar,-1,-1
50,100,0.6590909090909091,229,0,87,DL_Guitar,-1,-1
57,100,0.1,413,0,87,DL_Guitar,-1,-1
57,100,0.16363636363636364,443,0,87,DL_Guitar,-1,-1
47,100,0.1409090909090909,110,1,88,DL_Guitar,-1,-1
59,100,0.2590909090909091,373,1,88,DL_Guitar,-1,-1
43,100,0.16363636363636364,509,0,88,DL_Guitar,-1,-1
55,100,0.18181818181818182,550,0,88,DL_Guitar,-1,-1
62,100,0.2818181818181818,637,0,88,DL_Guitar,-1,-1
43,100,0.1590909090909091,700,0,88,DL_Guitar,-1,-1
57,100,0.9409090909090909,110,1,89,DL_Guitar,-1,-1
57,100,0.6818181818181818,619,1,89,DL_Guitar,-1,-1
57,100,0.16363636363636364,773,0,89,DL_Guitar,-1,-1
57,100,0.1,866,0,89,DL_Guitar,-1,-1
57,100,0.21818181818181817,53,1,90,DL_Guitar,-1,-1
62,100,0.2409090909090909,157,0,90,DL_Guitar,-1,-1
57,100,0.1590909090909091,294,0,90,DL_Guitar,-1,-1
50,100,0.37727272727272726,392,0,90,DL_Guitar,-1,-1
57,100,0.1,540,0,90,DL_Guitar,-1,-1
50,100,0.1590909090909091,572,0,90,DL_Guitar,-1,-1
55,100,0.41818181818181815,779,1,90,DL_Guitar,-1,-1
50,100,0.1,197,1,91,DL_Guitar,-1,-1
50,100,0.11818181818181818,294,0,91,DL_Guitar,-1,-1
61,100,0.759090909090909,347,0,91,DL_Guitar,-1,-1
54,100,0.9409090909090909,836,1,91,DL_Guitar,-1,-1
54,100,0.6818181818181818,255,1,92,DL_Guitar,-1,-1
62,100,0.12272727272727273,430,0,92,DL_Guitar,-1,-1
54,100,0.3,466,0,92,DL_Guitar,-1,-1
59,100,0.1409090909090909,536,0,92,DL_Guitar,-1,-1
54,100,0.1,612,0,92,DL_Guitar,-1,-1
54,100,0.1590909090909091,656,0,92,DL_Guitar,-1,-1
43,100,0.2,333,1,93,DL_Guitar,-1,-1
55,100,0.2409090909090909,453,0,93,DL_Guitar,-1,-1
57,100,0.21818181818181817,603,0,93,DL_Guitar,-1,-1
57,100,0.11818181818181818,713,0,93,DL_Guitar,-1,-1
54,100,0.2590909090909091,210,1,94,DL_Guitar,-1,-1
59,100,0.18181818181818182,276,0,94,DL_Guitar,-1,-1
54,100,0.2409090909090909,320,0,94,DL_Guitar,-1,-1
59,100,0.1,457,0,94,DL_Guitar,-1,-1
54,100,0.2818181818181818,637,0,94,DL_Guitar,-1,-1
54,100,0.2818181818181818,826,0,94,DL_Guitar,-1,-1
59,100,0.4409090909090909,197,1,95,DL_Guitar,-1,-1
43,100,0.2,743,1,95,DL_Guitar,-1,-1
59,100,0.42272727272727273,826,0,95,DL_Guitar,-1,-1
57,100,0.2818181818181818,110,1,96,DL_Guitar,-1,-1
57,100,0.1,179,0,96,DL_Guitar,-1,-1
57,100,0.4590909090909091,206,0,96,DL_Guitar,-1,-1
50,100,3.340909090909091,690,1,96,DL_Guitar,-1,-1
51,100,0.1590909090909091,801,1,0,_Remix_Guitar,-1,-1
62,100,0.16363636363636364,487,1,1,_Remix_Guitar,-1,-1
60,100,0.1,801,1,1,_Remix_Guitar,-1,-1
60,100,0.12272727272727273,122,1,2,_Remix_Guitar,-1,-1
55,100,0.1409090909090909,616,1,2,_Remix_Guitar,-1,-1
56,100,0.21818181818181817,229,1,3,_Remix_Guitar,-1,-1
56,100,0.1409090909090909,364,0,3,_Remix_Guitar,-1,-1
63,100,0.2409090909090909,730,1,3,_Remix_Guitar,-1,-1
46,100,0.11818181818181818,537,1,4,_Remix_Guitar,-1,-1
62,100,0.17727272727272728,118,1,6,_Remix_Guitar,-1,-1
63,100,0.11818181818181818,747,1,6,_Remix_Guitar,-1,-1
51,100,0.17727272727272728,854,0,6,_Remix_Guitar,-1,-1
56,100,0.22272727272727272,25,1,7,_Remix_Guitar,-1,-1
62,100,0.1409090909090909,374,1,8,_Remix_Guitar,-1,-1
51,100,0.11818181818181818,735,1,8,_Remix_Guitar,-1,-1
63,100,0.1,761,0,8,_Remix_Guitar,-1,-1
51,100,0.4636363636363636,48,1,9,_Remix_Guitar,-1,-1
56,100,0.13636363636363635,171,0,9,_Remix_Guitar,-1,-1
51,100,0.3409090909090909,202,0,9,_Remix_Guitar,-1,-1
56,100,0.12272727272727273,290,0,9,_Remix_Guitar,-1,-1
51,100,0.4590909090909091,383,0,9,_Remix_Guitar,-1,-1
51,100,0.17727272727272728,501,0,9,_Remix_Guitar,-1,-1
51,100,0.2818181818181818,594,0,9,_Remix_Guitar,-1,-1
51,100,0.1,752,0,9,_Remix_Guitar,-1,-1
56,100,0.12272727272727273,804,0,9,_Remix_Guitar,-1,-1
51,100,0.1,48,1,10,_Remix_Guitar,-1,-1
51,100,0.21818181818181817,110,0,10,_Remix_Guitar,-1,-1
56,100,0.1409090909090909,175,0,10,_Remix_Guitar,-1,-1
51,100,0.17727272727272728,237,0,10,_Remix_Guitar,-1,-1
51,100,0.17727272727272728,448,1,10,_Remix_Guitar,-1,-1
63,100,0.5818181818181818,792,1,10,_Remix_Guitar,-1,-1
51,100,0.3181818181818182,39,1,11,_Remix_Guitar,-1,-1
56,100,0.2409090909090909,426,1,11,_Remix_Guitar,-1,-1
51,100,0.2409090909090909,651,1,11,_Remix_Guitar,-1,-1
63,100,0.2,360,1,12,_Remix_Guitar,-1,-1
60,100,0.21818181818181817,414,0,12,_Remix_Guitar,-1,-1
58,100,0.1,501,0,12,_Remix_Guitar,-1,-1
60,100,0.36363636363636365,532,0,12,_Remix_Guitar,-1,-1
63,100,0.1409090909090909,620,0,12,_Remix_Guitar,-1,-1
53,100,0.1,876,1,12,_Remix_Guitar,-1,-1
63,100,0.1,135,1,13,_Remix_Guitar,-1,-1
63,100,0.41818181818181815,185,0,13,_Remix_Guitar,-1,-1
63,100,0.3181818181818182,281,0,13,_Remix_Guitar,-1,-1
55,100,0.1,505,1,13,_Remix_Guitar,-1,-1
56,100,0.3409090909090909,663,0,13,_Remix_Guitar,-1,-1
63,100,0.22272727272727272,233,1,14,_Remix_Guitar,-1,-1
46,100,0.22272727272727272,804,1,14,_Remix_Guitar,-1,-1
46,100,0.1,56,1,15,_Remix_Guitar,-1,-1
46,100,0.18181818181818182,87,0,15,_Remix_Guitar,-1,-1
46,100,0.2409090909090909,132,0,15,_Remix_Guitar,-1,-1
46,100,0.1590909090909091,285,0,15,_Remix_Guitar,-1,-1
46,100,0.17727272727272728,326,0,15,_Remix_Guitar,-1,-1
51,100,0.12272727272727273,620,1,15,_Remix_Guitar,-1,-1
51,100,0.18181818181818182,814,0,15,_Remix_Guitar,-1,-1
51,100,0.12272727272727273,862,0,15,_Remix_Guitar,-1,-1
58,100,0.22272727272727272,233,1,16,_Remix_Guitar,-1,-1
51,100,0.1409090909090909,858,1,16,_Remix_Guitar,-1,-1
51,100,0.17727272727272728,106,1,17,_Remix_Guitar,-1,-1
51,100,0.1409090909090909,374,1,17,_Remix_Guitar,-1,-1
51,100,0.17727272727272728,492,0,17,_Remix_Guitar,-1,-1
51,100,0.17727272727272728,866,1,17,_Remix_Guitar,-1,-1
51,100,0.1590909090909091,106,1,18,_Remix_Guitar,-1,-1
51,100,0.11818181818181818,505,1,18,_Remix_Guitar,-1,-1
51,100,0.1409090909090909,756,1,18,_Remix_Guitar,-1,-1
51,100,0.12272727272727273,113,1,19,_Remix_Guitar,-1,-1
58,100,0.18181818181818182,233,0,19,_Remix_Guitar,-1,-1
51,100,0.18181818181818182,615,1,19,_Remix_Guitar,-1,-1
51,100,0.1409090909090909,748,0,19,_Remix_Guitar,-1,-1
51,100,0.1409090909090909,783,0,19,_Remix_Guitar,-1,-1
56,100,0.16363636363636364,158,1,20,_Remix_Guitar,-1,-1
56,100,0.1590909090909091,364,1,20,_Remix_Guitar,-1,-1
51,100,0.1409090909090909,443,0,20,_Remix_Guitar,-1,-1
51,100,0.1590909090909091,484,0,20,_Remix_Guitar,-1,-1
58,100,0.1409090909090909,870,1,20,_Remix_Guitar,-1,-1
58,100,0.1409090909090909,113,1,21,_Remix_Guitar,-1,-1
51,100,0.2,729,1,21,_Remix_Guitar,-1,-1
51,100,0.18181818181818182,110,1,22,_Remix_Guitar,-1,-1
56,100,0.2409090909090909,474,1,22,_Remix_Guitar,-1,-1
46,100,0.11818181818181818,61,1,23,_Remix_Guitar,-1,-1
58,100,0.1590909090909091,229,0,23,_Remix_Guitar,-1,-1
51,100,0.1,457,1,23,_Remix_Guitar,-1,-1
51,100,0.1590909090909091,611,0,23,_Remix_Guitar,-1,-1
51,100,0.6,870,1,23,_Remix_Guitar,-1,-1
51,100,0.22272727272727272,233,1,24,_Remix_Guitar,-1,-1
51,100,0.21818181818181817,360,0,24,_Remix_Guitar,-1,-1
51,100,0.16363636363636364,553,0,24,_Remix_Guitar,-1,-1
56,100,0.1590909090909091,656,0,24,_Remix_Guitar,-1,-1
56,100,0.13636363636363635,876,1,24,_Remix_Guitar,-1,-1
63,100,0.42272727272727273,387,1,25,_Remix_Guitar,-1,-1
43,100,0.2409090909090909,663,1,25,_Remix_Guitar,-1,-1
55,100,0.2772727272727273,721,0,25,_Remix_Guitar,-1,-1
58,100,0.2409090909090909,167,1,26,_Remix_Guitar,-1,-1
63,100,0.35909090909090907,370,1,26,_Remix_Guitar,-1,-1
63,100,0.2818181818181818,461,0,26,_Remix_Guitar,-1,-1
53,100,0.2409090909090909,791,1,26,_Remix_Guitar,-1,-1
56,100,0.1590909090909091,79,1,27,_Remix_Guitar,-1,-1
63,100,0.2409090909090909,198,0,27,_Remix_Guitar,-1,-1
63,100,0.12272727272727273,254,0,27,_Remix_Guitar,-1,-1
46,100,0.1,443,0,27,_Remix_Guitar,-1,-1
58,100,0.11818181818181818,735,1,27,_Remix_Guitar,-1,-1
58,100,0.35909090909090907,57,1,29,_Remix_Guitar,-1,-1
44,100,0.3,206,0,29,_Remix_Guitar,-1,-1
58,100,0.11818181818181818,625,1,29,_Remix_Guitar,-1,-1
53,100,0.2,770,0,29,_Remix_Guitar,-1,-1
58,100,0.1409090909090909,119,1,30,_Remix_Guitar,-1,-1
53,100,0.1590909090909091,484,1,30,_Remix_Guitar,-1,-1
53,100,0.12272727272727273,598,0,30,_Remix_Guitar,-1,-1
63,100,0.8227272727272728,796,1,30,_Remix_Guitar,-1,-1
63,100,0.1,210,1,31,_Remix_Guitar,-1,-1
63,100,0.2409090909090909,295,0,31,_Remix_Guitar,-1,-1
53,100,0.5409090909090909,418,0,31,_Remix_Guitar,-1,-1
53,100,0.2590909090909091,611,0,31,_Remix_Guitar,-1,-1
53,100,0.16363636363636364,818,1,31,_Remix_Guitar,-1,-1
54,100,0.1,853,0,31,_Remix_Guitar,-1,-1
53,100,0.43636363636363634,876,0,31,_Remix_Guitar,-1,-1
63,100,0.18181818181818182,188,1,32,_Remix_Guitar,-1,-1
52,100,0.1409090909090909,421,1,32,_Remix_Guitar,-1,-1
62,100,1.5772727272727274,568,0,32,_Remix_Guitar,-1,-1
62,100,0.5409090909090909,69,1,33,_Remix_Guitar,-1,-1
62,100,1.1227272727272728,233,0,33,_Remix_Guitar,-1,-1
53,100,0.1409090909090909,619,1,33,_Remix_Guitar,-1,-1
51,100,0.2,796,0,33,_Remix_Guitar,-1,-1
53,100,0.21818181818181817,493,1,34,_Remix_Guitar,-1,-1
56,100,0.1409090909090909,646,0,34,_Remix_Guitar,-1,-1
51,100,0.3181818181818182,8,1,35,_Remix_Guitar,-1,-1
53,100,0.2,611,1,35,_Remix_Guitar,-1,-1
62,100,0.12272727272727273,818,1,35,_Remix_Guitar,-1,-1
55,100,0.1,56,1,36,_Remix_Guitar,-1,-1
55,100,0.18181818181818182,298,1,36,_Remix_Guitar,-1,-1
58,100,0.3181818181818182,660,1,36,_Remix_Guitar,-1,-1
56,100,0.2409090909090909,298,1,37,_Remix_Guitar,-1,-1
56,100,0.12272727272727273,378,0,37,_Remix_Guitar,-1,-1
51,100,0.11818181818181818,370,1,38,_Remix_Guitar,-1,-1
51,100,0.21818181818181817,523,0,38,_Remix_Guitar,-1,-1
51,100,0.1409090909090909,628,0,38,_Remix_Guitar,-1,-1
51,100,0.4590909090909091,813,0,38,_Remix_Guitar,-1,-1
51,100,0.22272727272727272,144,1,39,_Remix_Guitar,-1,-1
51,100,0.2,483,1,39,_Remix_Guitar,-1,-1
51,100,0.5409090909090909,603,0,39,_Remix_Guitar,-1,-1
51,100,0.1590909090909091,726,0,39,_Remix_Guitar,-1,-1
53,100,0.1409090909090909,53,1,40,_Remix_Guitar,-1,-1
58,100,0.18181818181818182,224,0,40,_Remix_Guitar,-1,-1
58,100,0.1409090909090909,386,0,40,_Remix_Guitar,-1,-1
55,100,0.5181818181818182,550,0,40,_Remix_Guitar,-1,-1
58,100,0.1,703,0,40,_Remix_Guitar,-1,-1
55,100,0.2818181818181818,748,0,40,_Remix_Guitar,-1,-1
58,100,0.21818181818181817,858,0,40,_Remix_Guitar,-1,-1
58,100,0.2,224,1,41,_Remix_Guitar,-1,-1
63,100,0.2818181818181818,408,0,41,_Remix_Guitar,-1,-1
53,100,0.4,664,1,41,_Remix_Guitar,-1,-1
58,100,0.2,678,1,42,_Remix_Guitar,-1,-1
58,100,0.13636363636363635,743,0,42,_Remix_Guitar,-1,-1
62,100,0.13636363636363635,303,1,43,_Remix_Guitar,-1,-1
53,100,0.1409090909090909,625,1,43,_Remix_Guitar,-1,-1
46,100,0.1409090909090909,778,0,43,_Remix_Guitar,-1,-1
51,100,0.4818181818181818,78,1,44,_Remix_Guitar,-1,-1
46,100,0.3,289,1,45,_Remix_Guitar,-1,-1
56,100,0.11818181818181818,373,1,46,_Remix_Guitar,-1,-1
51,100,0.1590909090909091,426,0,46,_Remix_Guitar,-1,-1
53,100,0.12272727272727273,783,1,46,_Remix_Guitar,-1,-1
55,100,0.1590909090909091,536,1,47,_Remix_Guitar,-1,-1
55,100,0.18181818181818182,576,0,47,_Remix_Guitar,-1,-1
56,100,0.2590909090909091,558,1,48,_Remix_Guitar,-1,-1
56,100,0.3,721,0,48,_Remix_Guitar,-1,-1
46,100,0.2,110,1,49,_Remix_Guitar,-1,-1
46,100,0.2590909090909091,163,0,49,_Remix_Guitar,-1,-1
46,100,0.1590909090909091,361,1,49,_Remix_Guitar,-1,-1
53,100,0.5,796,1,50,_Remix_Guitar,-1,-1
56,100,0.5636363636363636,179,1,52,_Remix_Guitar,-1,-1
51,100,0.2,426,1,52,_Remix_Guitar,-1,-1
46,100,0.1590909090909091,40,1,53,_Remix_Guitar,-1,-1
56,100,0.11818181818181818,263,1,53,_Remix_Guitar,-1,-1
46,100,0.3409090909090909,694,1,53,_Remix_Guitar,-1,-1
58,100,0.2,823,0,53,_Remix_Guitar,-1,-1
58,100,0.18181818181818182,0,1,54,_Remix_Guitar,-1,-1
53,100,0.18181818181818182,91,0,54,_Remix_Guitar,-1,-1
46,100,0.2,228,0,54,_Remix_Guitar,-1,-1
55,100,0.32272727272727275,289,0,54,_Remix_Guitar,-1,-1
55,100,0.11818181818181818,506,1,54,_Remix_Guitar,-1,-1
55,100,0.2772727272727273,668,0,54,_Remix_Guitar,-1,-1
63,100,0.21818181818181817,96,1,55,_Remix_Guitar,-1,-1
53,100,0.4772727272727273,426,1,55,_Remix_Guitar,-1,-1
53,100,0.3409090909090909,584,0,55,_Remix_Guitar,-1,-1
53,100,0.12272727272727273,826,1,55,_Remix_Guitar,-1,-1
53,100,0.2409090909090909,26,1,56,_Remix_Guitar,-1,-1
53,100,0.1409090909090909,311,1,56,_Remix_Guitar,-1,-1
63,100,0.2409090909090909,729,1,56,_Remix_Guitar,-1,-1
46,100,0.3,83,1,57,_Remix_Guitar,-1,-1
46,100,0.1409090909090909,246,0,57,_Remix_Guitar,-1,-1
46,100,0.18181818181818182,483,1,57,_Remix_Guitar,-1,-1
53,100,0.11818181818181818,286,1,58,_Remix_Guitar,-1,-1
58,100,0.11818181818181818,853,1,58,_Remix_Guitar,-1,-1
55,100,0.2772727272727273,105,1,59,_Remix_Guitar,-1,-1
53,100,0.4590909090909091,166,1,60,_Remix_Guitar,-1,-1
53,100,0.1409090909090909,364,1,60,_Remix_Guitar,-1,-1
53,100,0.1409090909090909,110,1,61,_Remix_Guitar,-1,-1
53,100,0.33636363636363636,171,0,61,_Remix_Guitar,-1,-1
63,100,0.1409090909090909,703,1,61,_Remix_Guitar,-1,-1
46,100,0.2590909090909091,783,0,61,_Remix_Guitar,-1,-1
53,100,0.3,163,1,62,_Remix_Guitar,-1,-1
53,100,0.2,289,0,62,_Remix_Guitar,-1,-1
53,100,0.13636363636363635,435,0,62,_Remix_Guitar,-1,-1
53,100,0.22272727272727272,584,0,62,_Remix_Guitar,-1,-1
51,100,0.3181818181818182,448,1,63,_Remix_Guitar,-1,-1
51,100,0.36363636363636365,554,0,63,_Remix_Guitar,-1,-1
63,100,0.38181818181818183,694,0,63,_Remix_Guitar,-1,-1
46,100,0.21818181818181817,853,0,63,_Remix_Guitar,-1,-1
56,100,0.22272727272727272,540,1,64,_Remix_Guitar,-1,-1
51,100,1.4,593,0,64,_Remix_Guitar,-1,-1
56,100,0.1409090909090909,30,1,65,_Remix_Guitar,-1,-1
63,100,0.1,113,0,65,_Remix_Guitar,-1,-1
51,100,0.2636363636363636,289,0,65,_Remix_Guitar,-1,-1
58,100,0.7227272727272728,356,0,65,_Remix_Guitar,-1,-1
56,100,0.8,536,0,65,_Remix_Guitar,-1,-1
51,100,0.3181818181818182,713,0,65,_Remix_Guitar,-1,-1
56,100,0.4,783,0,65,_Remix_Guitar,-1,-1
63,100,0.1409090909090909,66,1,66,_Remix_Guitar,-1,-1
51,100,0.21818181818181817,96,0,66,_Remix_Guitar,-1,-1
56,100,0.2409090909090909,157,0,66,_Remix_Guitar,-1,-1
46,100,0.11818181818181818,392,1,66,_Remix_Guitar,-1,-1
51,100,0.8409090909090909,792,1,66,_Remix_Guitar,-1,-1
63,100,0.1,100,1,67,_Remix_Guitar,-1,-1
63,100,0.2409090909090909,136,0,67,_Remix_Guitar,-1,-1
58,100,0.1409090909090909,273,0,67,_Remix_Guitar,-1,-1
46,100,0.4,436,0,67,_Remix_Guitar,-1,-1
46,100,0.35909090909090907,637,1,67,_Remix_Guitar,-1,-1
46,100,0.3409090909090909,773,0,67,_Remix_Guitar,-1,-1
51,100,0.35909090909090907,43,1,68,_Remix_Guitar,-1,-1
58,100,0.35909090909090907,176,0,68,_Remix_Guitar,-1,-1
51,100,0.2590909090909091,343,0,68,_Remix_Guitar,-1,-1
56,100,0.32272727272727275,430,0,68,_Remix_Guitar,-1,-1
51,100,0.2590909090909091,673,1,68,_Remix_Guitar,-1,-1
56,100,0.16363636363636364,157,1,69,_Remix_Guitar,-1,-1
51,100,0.1590909090909091,220,0,69,_Remix_Guitar,-1,-1
51,100,0.4818181818181818,289,0,69,_Remix_Guitar,-1,-1
60,100,0.2590909090909091,726,1,69,_Remix_Guitar,-1,-1
60,100,0.2409090909090909,796,0,69,_Remix_Guitar,-1,-1
60,100,0.12272727272727273,69,1,70,_Remix_Guitar,-1,-1
54,100,0.11818181818181818,119,0,70,_Remix_Guitar,-1,-1
60,100,0.1409090909090909,365,1,70,_Remix_Guitar,-1,-1
63,100,0.5,475,0,70,_Remix_Guitar,-1,-1
51,100,0.16363636363636364,619,0,70,_Remix_Guitar,-1,-1
56,100,0.5227272727272727,663,0,70,_Remix_Guitar,-1,-1
56,100,0.18181818181818182,826,0,70,_Remix_Guitar,-1,-1
51,100,0.1409090909090909,417,1,71,_Remix_Guitar,-1,-1
56,100,0.2409090909090909,475,0,71,_Remix_Guitar,-1,-1
51,100,0.32272727272727275,553,0,71,_Remix_Guitar,-1,-1
63,100,0.22272727272727272,673,0,71,_Remix_Guitar,-1,-1
51,100,0.2,796,0,71,_Remix_Guitar,-1,-1
55,100,0.2,853,1,72,_Remix_Guitar,-1,-1
51,100,0.16363636363636364,47,1,73,_Remix_Guitar,-1,-1
55,100,0.1409090909090909,113,0,73,_Remix_Guitar,-1,-1
63,100,0.18181818181818182,286,0,73,_Remix_Guitar,-1,-1
55,100,0.23636363636363636,546,1,73,_Remix_Guitar,-1,-1
51,100,0.36363636363636365,663,0,73,_Remix_Guitar,-1,-1
56,100,0.11818181818181818,836,0,73,_Remix_Guitar,-1,-1
51,100,0.2,56,1,74,_Remix_Guitar,-1,-1
51,100,0.21818181818181817,163,0,74,_Remix_Guitar,-1,-1
53,100,0.23636363636363636,502,1,74,_Remix_Guitar,-1,-1
60,100,0.1409090909090909,839,1,74,_Remix_Guitar,-1,-1
55,100,0.1,123,1,75,_Remix_Guitar,-1,-1
55,100,0.1409090909090909,299,0,75,_Remix_Guitar,-1,-1
63,100,0.23636363636363636,392,0,75,_Remix_Guitar,-1,-1
55,100,0.5,669,1,75,_Remix_Guitar,-1,-1
55,100,0.2590909090909091,800,0,75,_Remix_Guitar,-1,-1
60,100,0.1,250,1,76,_Remix_Guitar,-1,-1
63,100,0.1590909090909091,299,0,76,_Remix_Guitar,-1,-1
48,100,0.2590909090909091,540,1,76,_Remix_Guitar,-1,-1
48,100,0.1,690,0,76,_Remix_Guitar,-1,-1
56,100,0.13636363636363635,743,0,76,_Remix_Guitar,-1,-1
63,100,0.2409090909090909,800,0,76,_Remix_Guitar,-1,-1
62,100,0.3,462,1,77,_Remix_Guitar,-1,-1
62,100,0.3,590,0,77,_Remix_Guitar,-1,-1
62,100,0.37727272727272726,690,0,77,_Remix_Guitar,-1,-1
62,100,0.21818181818181817,119,1,78,_Remix_Guitar,-1,-1
51,100,0.8227272727272728,289,0,78,_Remix_Guitar,-1,-1
63,100,0.2409090909090909,470,0,78,_Remix_Guitar,-1,-1
51,100,0.6181818181818182,523,0,78,_Remix_Guitar,-1,-1
51,100,0.37727272727272726,669,0,78,_Remix_Guitar,-1,-1
51,100,0.8590909090909091,787,0,78,_Remix_Guitar,-1,-1
63,100,0.2,96,1,79,_Remix_Guitar,-1,-1
51,100,0.9,153,0,79,_Remix_Guitar,-1,-1
63,100,0.21818181818181817,352,1,79,_Remix_Guitar,-1,-1
51,100,1.6818181818181819,409,0,79,_Remix_Guitar,-1,-1
51,100,0.5409090909090909,783,1,79,_Remix_Guitar,-1,-1
51,100,1.0,40,1,80,_Remix_Guitar,-1,-1
51,100,0.1,563,1,80,_Remix_Guitar,-1,-1
51,100,0.1590909090909091,695,0,80,_Remix_Guitar,-1,-1
56,100,0.1,796,0,80,_Remix_Guitar,-1,-1
46,100,0.5590909090909091,145,1,81,_Remix_Guitar,-1,-1
58,100,0.1409090909090909,286,0,81,_Remix_Guitar,-1,-1
58,100,0.1409090909090909,320,0,81,_Remix_Guitar,-1,-1
46,100,0.12272727272727273,563,1,81,_Remix_Guitar,-1,-1
63,100,0.3409090909090909,330,1,82,_Remix_Guitar,-1,-1
43,100,0.18181818181818182,422,0,82,_Remix_Guitar,-1,-1
51,100,0.4590909090909091,800,1,82,_Remix_Guitar,-1,-1
51,100,0.2409090909090909,35,1,83,_Remix_Guitar,-1,-1
51,100,0.2,106,0,83,_Remix_Guitar,-1,-1
62,100,0.22272727272727272,475,1,83,_Remix_Guitar,-1,-1
46,100,0.2,553,0,83,_Remix_Guitar,-1,-1
53,100,0.1409090909090909,619,0,83,_Remix_Guitar,-1,-1
62,100,0.2409090909090909,729,0,83,_Remix_Guitar,-1,-1
62,100,0.1409090909090909,817,0,83,_Remix_Guitar,-1,-1
51,100,0.740909090909091,30,1,84,_Remix_Guitar,-1,-1
51,100,0.11818181818181818,316,1,84,_Remix_Guitar,-1,-1
51,100,0.2772727272727273,413,0,84,_Remix_Guitar,-1,-1
51,100,0.5181818181818182,550,0,84,_Remix_Guitar,-1,-1
51,100,0.1,870,1,84,_Remix_Guitar,-1,-1
63,100,0.3181818181818182,30,1,85,_Remix_Guitar,-1,-1
48,100,0.4590909090909091,172,0,85,_Remix_Guitar,-1,-1
63,100,0.21818181818181817,294,0,85,_Remix_Guitar,-1,-1
63,100,0.3,347,0,85,_Remix_Guitar,-1,-1
48,100,0.1590909090909091,483,0,85,_Remix_Guitar,-1,-1
62,100,0.11818181818181818,74,1,86,_Remix_Guitar,-1,-1
55,100,0.11818181818181818,237,0,86,_Remix_Guitar,-1,-1
55,100,0.22272727272727272,343,0,86,_Remix_Guitar,-1,-1
43,100,0.2,422,0,86,_Remix_Guitar,-1,-1
58,100,0.4,800,1,86,_Remix_Guitar,-1,-1
44,100,0.18181818181818182,43,1,87,_Remix_Guitar,-1,-1
44,100,0.3,157,0,87,_Remix_Guitar,-1,-1
63,100,0.16363636363636364,223,0,87,_Remix_Guitar,-1,-1
63,100,0.4590909090909091,303,0,87,_Remix_Guitar,-1,-1
56,100,0.11818181818181818,436,0,87,_Remix_Guitar,-1,-1
44,100,0.2,553,0,87,_Remix_Guitar,-1,-1
44,100,0.1590909090909091,650,0,87,_Remix_Guitar,-1,-1
63,100,0.18181818181818182,686,0,87,_Remix_Guitar,-1,-1
63,100,0.38181818181818183,796,0,87,_Remix_Guitar,-1,-1
56,100,0.12272727272727273,35,1,88,_Remix_Guitar,-1,-1
56,100,0.2,83,0,88,_Remix_Guitar,-1,-1
51,100,0.38181818181818183,197,1,89,_Remix_Guitar,-1,-1
44,100,0.2,430,1,89,_Remix_Guitar,-1,-1
53,100,0.2409090909090909,113,1,90,_Remix_Guitar,-1,-1
54,100,0.1,237,0,90,_Remix_Guitar,-1,-1
48,100,0.1409090909090909,637,1,90,_Remix_Guitar,-1,-1
63,100,0.11818181818181818,62,1,91,_Remix_Guitar,-1,-1
63,100,0.2409090909090909,163,0,91,_Remix_Guitar,-1,-1
63,100,0.2590909090909091,726,1,91,_Remix_Guitar,-1,-1
58,100,0.2,677,1,92,_Remix_Guitar,-1,-1
51,100,0.11818181818181818,876,1,92,_Remix_Guitar,-1,-1
63,100,0.5409090909090909,157,1,93,_Remix_Guitar,-1,-1
51,100,0.5590909090909091,409,1,93,_Remix_Guitar,-1,-1
51,100,0.1409090909090909,550,0,93,_Remix_Guitar,-1,-1
56,100,0.1590909090909091,787,1,93,_Remix_Guitar,-1,-1
46,100,0.11818181818181818,493,1,94,_Remix_Guitar,-1,-1
62,100,0.2590909090909091,559,0,94,_Remix_Guitar,-1,-1
55,100,0.18181818181818182,805,1,94,_Remix_Guitar,-1,-1
55,100,0.2,540,1,95,_Remix_Guitar,-1,-1
63,100,0.18181818181818182,110,1,96,_Remix_Guitar,-1,-1
63,100,0.11818181818181818,197,0,96,_Remix_Guitar,-1,-1
63,100,0.35909090909090907,263,0,96,_Remix_Guitar,-1,-1
55,100,0.1409090909090909,673,1,96,_Remix_Guitar,-1,-1
50,100,0.1590909090909091,747,0,96,_Remix_Guitar,-1,-1
62,100,0.37727272727272726,193,1,97,_Remix_Guitar,-1,-1
62,100,1.0636363636363637,289,0,97,_Remix_Guitar,-1,-1
62,100,0.7772727272727272,800,1,97,_Remix_Guitar,-1,-1
53,100,0.1590909090909091,145,1,98,_Remix_Guitar,-1,-1
62,100,0.1590909090909091,193,0,98,_Remix_Guitar,-1,-1
62,100,1.9772727272727273,339,0,98,_Remix_Guitar,-1,-1
62,100,0.11818181818181818,779,1,98,_Remix_Guitar,-1,-1
62,100,0.1409090909090909,356,1,99,_Remix_Guitar,-1,-1
55,100,0.35909090909090907,540,1,100,_Remix_Guitar,-1,-1
55,100,0.3,157,1,101,_Remix_Guitar,-1,-1
63,100,0.1590909090909091,580,1,102,_Remix_Guitar,-1,-1
56,100,0.2590909090909091,163,1,104,_Remix_Guitar,-1,-1
63,100,0.3,320,0,104,_Remix_Guitar,-1,-1
53,100,0.36363636363636365,157,1,105,_Remix_Guitar,-1,-1
62,100,0.1,466,1,105,_Remix_Guitar,-1,-1
63,100,0.2409090909090909,739,1,105,_Remix_Guitar,-1,-1
60,100,0.17727272727272728,193,1,106,_Remix_Guitar,-1,-1
63,100,0.1,690,1,106,_Remix_Guitar,-1,-1
62,100,0.2,436,1,107,_Remix_Guitar,-1,-1
62,100,0.4,509,0,107,_Remix_Guitar,-1,-1
62,100,0.2590909090909091,695,0,107,_Remix_Guitar,-1,-1
62,100,0.4,13,1,108,_Remix_Guitar,-1,-1
62,100,0.17727272727272728,106,0,108,_Remix_Guitar,-1,-1
62,100,0.2,430,1,108,_Remix_Guitar,-1,-1
53,100,0.18181818181818182,862,1,108,_Remix_Guitar,-1,-1
53,100,0.11818181818181818,30,1,109,_Remix_Guitar,-1,-1
63,100,0.6,857,1,109,_Remix_Guitar,-1,-1
63,100,0.1,113,1,110,_Remix_Guitar,-1,-1
53,100,0.1,294,0,110,_Remix_Guitar,-1,-1
48,100,0.5363636363636364,260,1,111,_Remix_Guitar,-1,-1
63,100,0.3409090909090909,496,1,111,_Remix_Guitar,-1,-1
63,100,0.1409090909090909,650,0,111,_Remix_Guitar,-1,-1
48,100,0.1409090909090909,796,0,111,_Remix_Guitar,-1,-1
58,100,0.2,686,1,113,_Remix_Guitar,-1,-1
53,100,0.3181818181818182,677,1,115,_Remix_Guitar,-1,-1
55,100,0.1590909090909091,62,1,116,_Remix_Guitar,-1,-1
55,100,0.1590909090909091,360,1,116,_Remix_Guitar,-1,-1
41,100,0.18181818181818182,593,1,116,_Remix_Guitar,-1,-1
53,100,0.2,677,0,116,_Remix_Guitar,-1,-1
53,100,0.1590909090909091,426,1,117,_Remix_Guitar,-1,-1
53,100,0.11818181818181818,237,1,119,_Remix_Guitar,-1,-1
55,100,0.1,457,1,119,_Remix_Guitar,-1,-1
43,100,0.2409090909090909,682,1,120,_Remix_Guitar,-1,-1
53,100,0.12272727272727273,210,1,121,_Remix_Guitar,-1,-1
53,100,0.1409090909090909,660,1,122,_Remix_Guitar,-1,-1
63,100,0.1,839,1,124,_Remix_Guitar,-1,-1
48,100,0.12272727272727273,532,1,125,_Remix_Guitar,-1,-1
48,100,0.2590909090909091,612,0,125,_Remix_Guitar,-1,-1
48,100,0.32272727272727275,673,0,125,_Remix_Guitar,-1,-1
48,100,0.1590909090909091,779,0,125,_Remix_Guitar,-1,-1
48,100,0.11818181818181818,153,1,126,_Remix_Guitar,-1,-1
48,100,0.4,206,0,126,_Remix_Guitar,-1,-1
48,100,0.9,307,0,126,_Remix_Guitar,-1,-1
53,100,0.3,40,1,127,_Remix_Guitar,-1,-1
41,100,0.2,106,0,127,_Remix_Guitar,-1,-1
48,100,0.2409090909090909,603,1,127,_Remix_Guitar,-1,-1
57,100,0.2,232,1,128,_Remix_Guitar,-1,-1
50,100,0.2,307,0,128,_Remix_Guitar,-1,-1
53,100,0.1409090909090909,295,1,129,_Remix_Guitar,-1,-1
48,100,0.1,584,1,129,_Remix_Guitar,-1,-1
48,100,0.43636363636363634,809,1,129,_Remix_Guitar,-1,-1
48,100,0.1,369,1,130,_Remix_Guitar,-1,-1
53,100,0.41818181818181815,413,0,130,_Remix_Guitar,-1,-1
41,100,0.1,633,1,130,_Remix_Guitar,-1,-1
53,100,0.1,682,0,130,_Remix_Guitar,-1,-1
53,100,0.38181818181818183,796,0,130,_Remix_Guitar,-1,-1
53,100,0.1590909090909091,238,1,131,_Remix_Guitar,-1,-1
48,100,0.16363636363636364,311,1,132,_Remix_Guitar,-1,-1
43,100,0.1,193,1,134,_Remix_Guitar,-1,-1
60,100,0.1,228,1,135,_Remix_Guitar,-1,-1
48,100,0.22272727272727272,826,1,135,_Remix_Guitar,-1,-1
53,100,0.1409090909090909,79,1,136,_Remix_Guitar,-1,-1
53,100,0.18181818181818182,180,0,136,_Remix_Guitar,-1,-1
46,100,0.21818181818181817,611,1,138,_Remix_Guitar,-1,-1
48,100,0.2,87,1,139,_Remix_Guitar,-1,-1
50,100,0.1,378,1,140,_Remix_Guitar,-1,-1
46,100,0.1,660,1,140,_Remix_Guitar,-1,-1
46,100,0.2409090909090909,686,0,140,_Remix_Guitar,-1,-1
46,100,0.1590909090909091,761,0,140,_Remix_Guitar,-1,-1
46,100,0.18181818181818182,826,0,140,_Remix_Guitar,-1,-1
60,100,0.1590909090909091,185,1,142,_Remix_Guitar,-1,-1
50,100,0.21818181818181817,307,0,142,_Remix_Guitar,-1,-1
50,100,0.2409090909090909,553,1,142,_Remix_Guitar,-1,-1
55,100,0.5181818181818182,537,1,0,DL_Warm_Pop_Rock_Guitar,-1,-1
55,100,0.6590909090909091,845,1,0,DL_Warm_Pop_Rock_Guitar,-1,-1
41,100,0.1409090909090909,189,1,1,DL_Warm_Pop_Rock_Guitar,-1,-1
41,100,0.4590909090909091,304,0,1,DL_Warm_Pop_Rock_Guitar,-1,-1
62,100,0.4636363636363636,576,1,1,DL_Warm_Pop_Rock_Guitar,-1,-1
52,100,0.740909090909091,862,1,1,DL_Warm_Pop_Rock_Guitar,-1,-1
41,100,0.17727272727272728,216,1,2,DL_Warm_Pop_Rock_Guitar,-1,-1
41,100,0.22272727272727272,342,0,2,DL_Warm_Pop_Rock_Guitar,-1,-1
55,100,0.1,629,1,2,DL_Warm_Pop_Rock_Guitar,-1,-1
55,100,0.21818181818181817,660,0,2,DL_Warm_Pop_Rock_Guitar,-1,-1
41,100,0.13636363636363635,831,0,2,DL_Warm_Pop_Rock_Guitar,-1,-1
55,100,0.2,91,1,3,DL_Warm_Pop_Rock_Guitar,-1,-1
52,100,0.6772727272727272,590,1,3,DL_Warm_Pop_Rock_Guitar,-1,-1
52,100,0.12272727272727273,761,0,3,DL_Warm_Pop_Rock_Guitar,-1,-1
41,100,0.18181818181818182,813,0,3,DL_Warm_Pop_Rock_Guitar,-1,-1
52,100,0.740909090909091,35,1,4,DL_Warm_Pop_Rock_Guitar,-1,-1
52,100,0.2,330,1,4,DL_Warm_Pop_Rock_Guitar,-1,-1
64,100,0.2,8,1,5,DL_Warm_Pop_Rock_Guitar,-1,-1
43,100,0.21818181818181817,87,0,5,DL_Warm_Pop_Rock_Guitar,-1,-1
55,100,0.5636363636363636,135,0,5,DL_Warm_Pop_Rock_Guitar,-1,-1
43,100,0.1409090909090909,268,0,5,DL_Warm_Pop_Rock_Guitar,-1,-1
55,100,0.2818181818181818,330,0,5,DL_Warm_Pop_Rock_Guitar,-1,-1
57,100,0.17727272727272728,823,1,5,DL_Warm_Pop_Rock_Guitar,-1,-1
62,100,0.1409090909090909,56,1,6,DL_Warm_Pop_Rock_Guitar,-1,-1
62,100,0.2409090909090909,132,0,6,DL_Warm_Pop_Rock_Guitar,-1,-1
62,100,0.9818181818181818,330,0,6,DL_Warm_Pop_Rock_Guitar,-1,-1
62,100,0.1409090909090909,581,1,6,DL_Warm_Pop_Rock_Guitar,-1,-1
57,100,0.6409090909090909,691,0,6,DL_Warm_Pop_Rock_Guitar,-1,-1
41,100,0.1409090909090909,35,1,7,DL_Warm_Pop_Rock_Guitar,-1,-1
51,100,0.11818181818181818,307,1,7,DL_Warm_Pop_Rock_Guitar,-1,-1
62,100,0.38181818181818183,606,1,7,DL_Warm_Pop_Rock_Guitar,-1,-1
52,100,0.2818181818181818,826,1,7,DL_Warm_Pop_Rock_Guitar,-1,-1
40,100,0.33636363636363636,171,1,8,DL_Warm_Pop_Rock_Guitar,-1,-1
52,100,0.42272727272727273,245,0,8,DL_Warm_Pop_Rock_Guitar,-1,-1
40,100,0.13636363636363635,347,0,8,DL_Warm_Pop_Rock_Guitar,-1,-1
40,100,0.4590909090909091,391,0,8,DL_Warm_Pop_Rock_Guitar,-1,-1
40,100,0.1590909090909091,660,1,8,DL_Warm_Pop_Rock_Guitar,-1,-1
48,100,0.32272727272727275,826,0,8,DL_Warm_Pop_Rock_Guitar,-1,-1
60,100,0.1590909090909091,140,1,9,DL_Warm_Pop_Rock_Guitar,-1,-1
62,100,0.5409090909090909,185,0,9,DL_Warm_Pop_Rock_Guitar,-1,-1
43,100,0.18181818181818182,307,0,9,DL_Warm_Pop_Rock_Guitar,-1,-1
62,100,0.4,347,0,9,DL_Warm_Pop_Rock_Guitar,-1,-1
43,100,0.2409090909090909,470,0,9,DL_Warm_Pop_Rock_Guitar,-1,-1
62,100,0.11818181818181818,524,0,9,DL_Warm_Pop_Rock_Guitar,-1,-1
62,100,0.8590909090909091,563,0,9,DL_Warm_Pop_Rock_Guitar,-1,-1
50,100,0.12272727272727273,752,0,9,DL_Warm_Pop_Rock_Guitar,-1,-1
50,100,0.18181818181818182,783,0,9,DL_Warm_Pop_Rock_Guitar,-1,-1
50,100,0.5227272727272727,826,0,9,DL_Warm_Pop_Rock_Guitar,-1,-1
57,100,0.17727272727272728,171,1,10,DL_Warm_Pop_Rock_Guitar,-1,-1
55,100,0.1,211,1,11,DL_Warm_Pop_Rock_Guitar,-1,-1
62,100,0.32272727272727275,519,1,11,DL_Warm_Pop_Rock_Guitar,-1,-1
50,100,0.16363636363636364,773,1,11,DL_Warm_Pop_Rock_Guitar,-1,-1
62,100,1.059090909090909,536,1,12,DL_Warm_Pop_Rock_Guitar,-1,-1
50,100,0.3409090909090909,65,1,13,DL_Warm_Pop_Rock_Guitar,-1,-1
50,100,0.1409090909090909,158,0,13,DL_Warm_Pop_Rock_Guitar,-1,-1
55,100,0.2409090909090909,321,0,13,DL_Warm_Pop_Rock_Guitar,-1,-1
62,100,0.1,479,0,13,DL_Warm_Pop_Rock_Guitar,-1,-1
43,100,0.1,501,0,13,DL_Warm_Pop_Rock_Guitar,-1,-1
55,100,0.4590909090909091,694,0,13,DL_Warm_Pop_Rock_Guitar,-1,-1
57,100,0.2590909090909091,814,0,13,DL_Warm_Pop_Rock_Guitar,-1,-1
57,100,0.740909090909091,3,1,14,DL_Warm_Pop_Rock_Guitar,-1,-1
57,100,0.6,194,0,14,DL_Warm_Pop_Rock_Guitar,-1,-1
57,100,1.3,347,0,14,DL_Warm_Pop_Rock_Guitar,-1,-1
57,100,0.5772727272727273,691,1,14,DL_Warm_Pop_Rock_Guitar,-1,-1
57,100,0.2,862,0,14,DL_Warm_Pop_Rock_Guitar,-1,-1
55,100,0.38181818181818183,123,1,15,DL_Warm_Pop_Rock_Guitar,-1,-1
55,100,0.36363636363636365,268,0,15,DL_Warm_Pop_Rock_Guitar,-1,-1
52,100,0.1,383,0,15,DL_Warm_Pop_Rock_Guitar,-1,-1
52,100,0.2818181818181818,550,0,15,DL_Warm_Pop_Rock_Guitar,-1,-1
55,100,0.22272727272727272,651,0,15,DL_Warm_Pop_Rock_Guitar,-1,-1
55,100,0.1,761,0,15,DL_Warm_Pop_Rock_Guitar,-1,-1
43,100,0.3409090909090909,100,1,16,DL_Warm_Pop_Rock_Guitar,-1,-1
43,100,0.1409090909090909,356,1,16,DL_Warm_Pop_Rock_Guitar,-1,-1
62,100,0.5772727272727273,391,0,16,DL_Warm_Pop_Rock_Guitar,-1,-1
57,100,0.1,712,1,16,DL_Warm_Pop_Rock_Guitar,-1,-1
57,100,0.2772727272727273,756,0,16,DL_Warm_Pop_Rock_Guitar,-1,-1
52,100,0.2409090909090909,96,1,17,DL_Warm_Pop_Rock_Guitar,-1,-1
64,100,0.4,250,0,17,DL_Warm_Pop_Rock_Guitar,-1,-1
41,100,0.1590909090909091,700,1,17,DL_Warm_Pop_Rock_Guitar,-1,-1
47,100,0.37727272727272726,150,1,18,DL_Warm_Pop_Rock_Guitar,-1,-1
47,100,0.17727272727272728,237,0,18,DL_Warm_Pop_Rock_Guitar,-1,-1
62,100,0.18181818181818182,528,1,18,DL_Warm_Pop_Rock_Guitar,-1,-1
62,100,0.2,660,0,18,DL_Warm_Pop_Rock_Guitar,-1,-1
62,100,0.3,748,0,18,DL_Warm_Pop_Rock_Guitar,-1,-1
62,100,0.5818181818181818,839,0,18,DL_Warm_Pop_Rock_Guitar,-1,-1
43,100,0.11818181818181818,110,1,19,DL_Warm_Pop_Rock_Guitar,-1,-1
62,100,0.5590909090909091,154,0,19,DL_Warm_Pop_Rock_Guitar,-1,-1
48,100,3.4,281,0,19,DL_Warm_Pop_Rock_Guitar,-1,-1
50,100,0.9,198,1,20,DL_Warm_Pop_Rock_Guitar,-1,-1
43,100,0.1,602,1,20,DL_Warm_Pop_Rock_Guitar,-1,-1
43,100,0.5772727272727273,677,0,20,DL_Warm_Pop_Rock_Guitar,-1,-1
50,100,0.8636363636363636,3,1,21,DL_Warm_Pop_Rock_Guitar,-1,-1
40,100,0.41818181818181815,229,1,21,DL_Warm_Pop_Rock_Guitar,-1,-1
40,100,0.18181818181818182,333,0,21,DL_Warm_Pop_Rock_Guitar,-1,-1
62,100,0.1590909090909091,519,0,21,DL_Warm_Pop_Rock_Guitar,-1,-1
52,100,0.35909090909090907,567,0,21,DL_Warm_Pop_Rock_Guitar,-1,-1
52,100,0.1,677,0,21,DL_Warm_Pop_Rock_Guitar,-1,-1
62,100,0.5,810,0,21,DL_Warm_Pop_Rock_Guitar,-1,-1
62,100,0.1409090909090909,57,1,22,DL_Warm_Pop_Rock_Guitar,-1,-1
62,100,0.4818181818181818,92,0,22,DL_Warm_Pop_Rock_Guitar,-1,-1
55,100,0.3181818181818182,360,1,22,DL_Warm_Pop_Rock_Guitar,-1,-1
48,100,0.21818181818181817,590,1,22,DL_Warm_Pop_Rock_Guitar,-1,-1
60,100,0.11818181818181818,638,0,22,DL_Warm_Pop_Rock_Guitar,-1,-1
62,100,0.5,158,1,23,DL_Warm_Pop_Rock_Guitar,-1,-1
50,100,0.1590909090909091,281,0,23,DL_Warm_Pop_Rock_Guitar,-1,-1
62,100,0.2409090909090909,343,0,23,DL_Warm_Pop_Rock_Guitar,-1,-1
55,100,0.1,443,0,23,DL_Warm_Pop_Rock_Guitar,-1,-1
43,100,0.12272727272727273,474,0,23,DL_Warm_Pop_Rock_Guitar,-1,-1
62,100,0.11818181818181818,501,0,23,DL_Warm_Pop_Rock_Guitar,-1,-1
62,100,0.1409090909090909,607,0,23,DL_Warm_Pop_Rock_Guitar,-1,-1
43,100,0.1,866,1,23,DL_Warm_Pop_Rock_Guitar,-1,-1
50,100,0.21818181818181817,21,1,24,DL_Warm_Pop_Rock_Guitar,-1,-1
55,100,0.32272727272727275,92,0,24,DL_Warm_Pop_Rock_Guitar,-1,-1
50,100,0.1,223,0,24,DL_Warm_Pop_Rock_Guitar,-1,-1
50,100,0.11818181818181818,360,0,24,DL_Warm_Pop_Rock_Guitar,-1,-1
62,100,0.2818181818181818,461,0,24,DL_Warm_Pop_Rock_Guitar,-1,-1
62,100,0.2409090909090909,704,1,24,DL_Warm_Pop_Rock_Guitar,-1,-1
62,100,0.2,835,0,24,DL_Warm_Pop_Rock_Guitar,-1,-1
61,100,0.11818181818181818,0,1,25,DL_Warm_Pop_Rock_Guitar,-1,-1
43,100,0.36363636363636365,92,0,25,DL_Warm_Pop_Rock_Guitar,-1,-1
43,100,0.1,175,0,25,DL_Warm_Pop_Rock_Guitar,-1,-1
55,100,0.12272727272727273,277,0,25,DL_Warm_Pop_Rock_Guitar,-1,-1
43,100,0.3,356,0,25,DL_Warm_Pop_Rock_Guitar,-1,-1
62,100,0.3409090909090909,497,0,25,DL_Warm_Pop_Rock_Guitar,-1,-1
62,100,0.2409090909090909,712,1,25,DL_Warm_Pop_Rock_Guitar,-1,-1
62,100,0.2818181818181818,13,1,26,DL_Warm_Pop_Rock_Guitar,-1,-1
50,100,0.17727272727272728,75,0,26,DL_Warm_Pop_Rock_Guitar,-1,-1
62,100,0.2636363636363636,136,0,26,DL_Warm_Pop_Rock_Guitar,-1,-1
50,100,0.2409090909090909,241,0,26,DL_Warm_Pop_Rock_Guitar,-1,-1
47,100,0.33636363636363636,480,1,26,DL_Warm_Pop_Rock_Guitar,-1,-1
52,100,0.2818181818181818,708,1,26,DL_Warm_Pop_Rock_Guitar,-1,-1
62,100,0.3409090909090909,48,1,27,DL_Warm_Pop_Rock_Guitar,-1,-1
57,100,0.2409090909090909,158,0,27,DL_Warm_Pop_Rock_Guitar,-1,-1
52,100,0.6,260,0,27,DL_Warm_Pop_Rock_Guitar,-1,-1
55,100,0.23636363636363636,413,0,27,DL_Warm_Pop_Rock_Guitar,-1,-1
55,100,0.3409090909090909,484,0,27,DL_Warm_Pop_Rock_Guitar,-1,-1
62,100,0.2590909090909091,567,0,27,DL_Warm_Pop_Rock_Guitar,-1,-1
50,100,0.1409090909090909,735,0,27,DL_Warm_Pop_Rock_Guitar,-1,-1
50,100,0.16363636363636364,818,0,27,DL_Warm_Pop_Rock_Guitar,-1,-1
62,100,0.21818181818181817,162,1,28,DL_Warm_Pop_Rock_Guitar,-1,-1
54,100,0.4636363636363636,443,1,28,DL_Warm_Pop_Rock_Guitar,-1,-1
59,100,0.13636363636363635,810,1,28,DL_Warm_Pop_Rock_Guitar,-1,-1
64,100,0.23636363636363636,61,1,29,DL_Warm_Pop_Rock_Guitar,-1,-1
52,100,0.5818181818181818,113,0,29,DL_Warm_Pop_Rock_Guitar,-1,-1
52,100,0.3,333,1,29,DL_Warm_Pop_Rock_Guitar,-1,-1
48,100,0.1409090909090909,576,1,29,DL_Warm_Pop_Rock_Guitar,-1,-1
62,100,0.37727272727272726,625,0,29,DL_Warm_Pop_Rock_Guitar,-1,-1
64,100,0.4,708,0,29,DL_Warm_Pop_Rock_Guitar,-1,-1
62,100,0.11818181818181818,801,0,29,DL_Warm_Pop_Rock_Guitar,-1,-1
62,100,0.3181818181818182,150,1,30,DL_Warm_Pop_Rock_Guitar,-1,-1
62,100,0.2,594,1,30,DL_Warm_Pop_Rock_Guitar,-1,-1
62,100,0.2772727272727273,646,0,30,DL_Warm_Pop_Rock_Guitar,-1,-1
57,100,0.4,739,0,30,DL_Warm_Pop_Rock_Guitar,-1,-1
57,100,0.36363636363636365,48,1,31,DL_Warm_Pop_Rock_Guitar,-1,-1
50,100,0.16363636363636364,136,0,31,DL_Warm_Pop_Rock_Guitar,-1,-1
62,100,0.5363636363636364,171,0,31,DL_Warm_Pop_Rock_Guitar,-1,-1
53,100,0.11818181818181818,461,1,31,DL_Warm_Pop_Rock_Guitar,-1,-1
62,100,0.4772727272727273,523,0,31,DL_Warm_Pop_Rock_Guitar,-1,-1
62,100,0.11818181818181818,638,0,31,DL_Warm_Pop_Rock_Guitar,-1,-1
62,100,0.18181818181818182,694,0,31,DL_Warm_Pop_Rock_Guitar,-1,-1
47,100,0.35909090909090907,766,0,31,DL_Warm_Pop_Rock_Guitar,-1,-1
62,100,0.33636363636363636,853,0,31,DL_Warm_Pop_Rock_Guitar,-1,-1
62,100,0.38181818181818183,201,1,32,DL_Warm_Pop_Rock_Guitar,-1,-1
43,100,0.2409090909090909,453,1,32,DL_Warm_Pop_Rock_Guitar,-1,-1
50,100,0.3181818181818182,765,1,32,DL_Warm_Pop_Rock_Guitar,-1,-1
50,100,0.2,128,1,33,DL_Warm_Pop_Rock_Guitar,-1,-1
62,100,0.21818181818181817,185,0,33,DL_Warm_Pop_Rock_Guitar,-1,-1
62,100,0.2,289,0,33,DL_Warm_Pop_Rock_Guitar,-1,-1
57,100,0.33636363636363636,370,0,33,DL_Warm_Pop_Rock_Guitar,-1,-1
55,100,0.1409090909090909,668,1,33,DL_Warm_Pop_Rock_Guitar,-1,-1
62,100,0.13636363636363635,721,0,33,DL_Warm_Pop_Rock_Guitar,-1,-1
50,100,0.21818181818181817,756,0,33,DL_Warm_Pop_Rock_Guitar,-1,-1
43,100,0.42272727272727273,818,0,33,DL_Warm_Pop_Rock_Guitar,-1,-1
50,100,0.4818181818181818,48,1,34,DL_Warm_Pop_Rock_Guitar,-1,-1
50,100,0.1,276,1,34,DL_Warm_Pop_Rock_Guitar,-1,-1
50,100,0.41818181818181815,396,0,34,DL_Warm_Pop_Rock_Guitar,-1,-1
50,100,0.17727272727272728,501,0,34,DL_Warm_Pop_Rock_Guitar,-1,-1
62,100,0.8,774,1,34,DL_Warm_Pop_Rock_Guitar,-1,-1
50,100,0.33636363636363636,150,1,35,DL_Warm_Pop_Rock_Guitar,-1,-1
50,100,0.17727272727272728,251,0,35,DL_Warm_Pop_Rock_Guitar,-1,-1
50,100,0.32272727272727275,421,0,35,DL_Warm_Pop_Rock_Guitar,-1,-1
57,100,0.2409090909090909,571,0,35,DL_Warm_Pop_Rock_Guitar,-1,-1
52,100,0.3,655,0,35,DL_Warm_Pop_Rock_Guitar,-1,-1
62,100,0.11818181818181818,721,0,35,DL_Warm_Pop_Rock_Guitar,-1,-1
62,100,0.1409090909090909,823,0,35,DL_Warm_Pop_Rock_Guitar,-1,-1
52,100,0.21818181818181817,866,0,35,DL_Warm_Pop_Rock_Guitar,-1,-1
52,100,0.21818181818181817,40,1,36,DL_Warm_Pop_Rock_Guitar,-1,-1
52,100,0.17727272727272728,206,0,36,DL_Warm_Pop_Rock_Guitar,-1,-1
62,100,1.0,321,0,36,DL_Warm_Pop_Rock_Guitar,-1,-1
52,100,0.21818181818181817,545,1,36,DL_Warm_Pop_Rock_Guitar,-1,-1
62,100,1.1818181818181819,716,0,36,DL_Warm_Pop_Rock_Guitar,-1,-1
60,100,0.11818181818181818,118,1,37,DL_Warm_Pop_Rock_Guitar,-1,-1
62,100,0.2818181818181818,201,0,37,DL_Warm_Pop_Rock_Guitar,-1,-1
50,100,0.17727272727272728,281,0,37,DL_Warm_Pop_Rock_Guitar,-1,-1
50,100,0.6227272727272727,334,0,37,DL_Warm_Pop_Rock_Guitar,-1,-1
62,100,0.2,545,1,37,DL_Warm_Pop_Rock_Guitar,-1,-1
62,100,0.4,721,0,37,DL_Warm_Pop_Rock_Guitar,-1,-1
62,100,0.8227272727272728,56,1,38,DL_Warm_Pop_Rock_Guitar,-1,-1
57,100,0.1590909090909091,325,1,38,DL_Warm_Pop_Rock_Guitar,-1,-1
62,100,0.1590909090909091,396,0,38,DL_Warm_Pop_Rock_Guitar,-1,-1
62,100,0.2772727272727273,471,0,38,DL_Warm_Pop_Rock_Guitar,-1,-1
50,100,0.41818181818181815,545,0,38,DL_Warm_Pop_Rock_Guitar,-1,-1
62,100,0.13636363636363635,810,1,38,DL_Warm_Pop_Rock_Guitar,-1,-1
52,100,0.38181818181818183,861,0,38,DL_Warm_Pop_Rock_Guitar,-1,-1
50,100,0.1,276,1,39,DL_Warm_Pop_Rock_Guitar,-1,-1
62,100,0.32272727272727275,298,0,39,DL_Warm_Pop_Rock_Guitar,-1,-1
43,100,0.1,386,0,39,DL_Warm_Pop_Rock_Guitar,-1,-1
55,100,0.4409090909090909,421,0,39,DL_Warm_Pop_Rock_Guitar,-1,-1
50,100,0.17727272727272728,536,0,39,DL_Warm_Pop_Rock_Guitar,-1,-1
55,100,0.22272727272727272,584,0,39,DL_Warm_Pop_Rock_Guitar,-1,-1
48,100,0.1409090909090909,751,0,39,DL_Warm_Pop_Rock_Guitar,-1,-1
48,100,0.3,861,0,39,DL_Warm_Pop_Rock_Guitar,-1,-1
60,100,0.2409090909090909,48,1,40,DL_Warm_Pop_Rock_Guitar,-1,-1
62,100,0.3,220,0,40,DL_Warm_Pop_Rock_Guitar,-1,-1
62,100,0.1409090909090909,289,0,40,DL_Warm_Pop_Rock_Guitar,-1,-1
62,100,0.38181818181818183,474,0,40,DL_Warm_Pop_Rock_Guitar,-1,-1
50,100,0.4409090909090909,571,0,40,DL_Warm_Pop_Rock_Guitar,-1,-1
57,100,0.2772727272727273,691,0,40,DL_Warm_Pop_Rock_Guitar,-1,-1
52,100,0.4818181818181818,783,0,40,DL_Warm_Pop_Rock_Guitar,-1,-1
52,100,0.4772727272727273,18,1,41,DL_Warm_Pop_Rock_Guitar,-1,-1
52,100,0.16363636363636364,158,0,41,DL_Warm_Pop_Rock_Guitar,-1,-1
52,100,0.22272727272727272,201,0,41,DL_Warm_Pop_Rock_Guitar,-1,-1
52,100,0.3,260,0,41,DL_Warm_Pop_Rock_Guitar,-1,-1
52,100,0.38181818181818183,396,0,41,DL_Warm_Pop_Rock_Guitar,-1,-1
64,100,0.6590909090909091,496,0,41,DL_Warm_Pop_Rock_Guitar,-1,-1
50,100,0.12272727272727273,826,1,41,DL_Warm_Pop_Rock_Guitar,-1,-1
50,100,0.6590909090909091,866,0,41,DL_Warm_Pop_Rock_Guitar,-1,-1
50,100,0.5,334,1,42,DL_Warm_Pop_Rock_Guitar,-1,-1
50,100,0.2,458,0,42,DL_Warm_Pop_Rock_Guitar,-1,-1
50,100,0.4818181818181818,509,0,42,DL_Warm_Pop_Rock_Guitar,-1,-1
50,100,0.4818181818181818,638,0,42,DL_Warm_Pop_Rock_Guitar,-1,-1
50,100,0.2,818,0,42,DL_Warm_Pop_Rock_Guitar,-1,-1
50,100,0.1590909090909091,866,0,42,DL_Warm_Pop_Rock_Guitar,-1,-1
50,100,0.740909090909091,26,1,43,DL_Warm_Pop_Rock_Guitar,-1,-1
57,100,0.35909090909090907,206,0,43,DL_Warm_Pop_Rock_Guitar,-1,-1
54,100,0.22272727272727272,421,1,43,DL_Warm_Pop_Rock_Guitar,-1,-1
47,100,0.3181818181818182,735,1,43,DL_Warm_Pop_Rock_Guitar,-1,-1
47,100,0.11818181818181818,40,1,44,DL_Warm_Pop_Rock_Guitar,-1,-1
62,100,0.21818181818181817,571,1,44,DL_Warm_Pop_Rock_Guitar,-1,-1
52,100,0.2409090909090909,625,0,44,DL_Warm_Pop_Rock_Guitar,-1,-1
52,100,0.2818181818181818,738,0,44,DL_Warm_Pop_Rock_Guitar,-1,-1
43,100,0.1590909090909091,75,1,45,DL_Warm_Pop_Rock_Guitar,-1,-1
62,100,0.2818181818181818,198,0,45,DL_Warm_Pop_Rock_Guitar,-1,-1
42,100,0.17727272727272728,295,0,45,DL_Warm_Pop_Rock_Guitar,-1,-1
43,100,0.1590909090909091,373,0,45,DL_Warm_Pop_Rock_Guitar,-1,-1
43,100,0.3,413,0,45,DL_Warm_Pop_Rock_Guitar,-1,-1
50,100,0.21818181818181817,493,0,45,DL_Warm_Pop_Rock_Guitar,-1,-1
52,100,0.1409090909090909,13,1,46,DL_Warm_Pop_Rock_Guitar,-1,-1
52,100,0.6818181818181818,69,0,46,DL_Warm_Pop_Rock_Guitar,-1,-1
52,100,0.1590909090909091,241,0,46,DL_Warm_Pop_Rock_Guitar,-1,-1
52,100,0.7,471,1,46,DL_Warm_Pop_Rock_Guitar,-1,-1
52,100,0.9772727272727273,668,0,46,DL_Warm_Pop_Rock_Guitar,-1,-1
62,100,0.1590909090909091,276,1,47,DL_Warm_Pop_Rock_Guitar,-1,-1
62,100,0.6818181818181818,606,1,47,DL_Warm_Pop_Rock_Guitar,-1,-1
50,100,0.6772727272727272,150,1,48,DL_Warm_Pop_Rock_Guitar,-1,-1
50,100,2.018181818181818,373,1,48,DL_Warm_Pop_Rock_Guitar,-1,-1
45,100,0.2,853,1,48,DL_Warm_Pop_Rock_Guitar,-1,-1
50,100,0.1409090909090909,166,1,49,DL_Warm_Pop_Rock_Guitar,-1,-1
50,100,0.7818181818181819,211,0,49,DL_Warm_Pop_Rock_Guitar,-1,-1
50,100,2.2409090909090907,251,1,50,DL_Warm_Pop_Rock_Guitar,-1,-1
50,100,0.2409090909090909,783,1,50,DL_Warm_Pop_Rock_Guitar,-1,-1
50,100,0.9,316,1,54,DL_Warm_Pop_Rock_Guitar,-1,-1
50,100,0.23636363636363636,678,1,54,DL_Warm_Pop_Rock_Guitar,-1,-1
50,100,0.1409090909090909,818,0,54,DL_Warm_Pop_Rock_Guitar,-1,-1
50,100,0.2,853,0,54,DL_Warm_Pop_Rock_Guitar,-1,-1
50,100,0.36363636363636365,114,1,55,DL_Warm_Pop_Rock_Guitar,-1,-1
50,100,0.35909090909090907,343,1,55,DL_Warm_Pop_Rock_Guitar,-1,-1
50,100,0.1590909090909091,515,0,55,DL_Warm_Pop_Rock_Guitar,-1,-1
50,100,0.33636363636363636,590,0,55,DL_Warm_Pop_Rock_Guitar,-1,-1
50,100,0.4590909090909091,21,1,56,DL_Warm_Pop_Rock_Guitar,-1,-1
50,100,0.13636363636363635,281,1,56,DL_Warm_Pop_Rock_Guitar,-1,-1
57,100,0.2409090909090909,871,1,56,DL_Warm_Pop_Rock_Guitar,-1,-1
50,100,0.2818181818181818,276,1,57,DL_Warm_Pop_Rock_Guitar,-1,-1
48,100,0.12272727272727273,408,0,57,DL_Warm_Pop_Rock_Guitar,-1,-1
43,100,0.1590909090909091,638,1,57,DL_Warm_Pop_Rock_Guitar,-1,-1
42,100,0.32272727272727275,861,1,57,DL_Warm_Pop_Rock_Guitar,-1,-1
50,100,0.1409090909090909,440,1,58,DL_Warm_Pop_Rock_Guitar,-1,-1
50,100,0.3,528,0,58,DL_Warm_Pop_Rock_Guitar,-1,-1
50,100,0.21818181818181817,603,0,58,DL_Warm_Pop_Rock_Guitar,-1,-1
50,100,0.2409090909090909,818,1,58,DL_Warm_Pop_Rock_Guitar,-1,-1
50,100,0.2409090909090909,466,1,59,DL_Warm_Pop_Rock_Guitar,-1,-1
50,100,1.9636363636363636,686,1,59,DL_Warm_Pop_Rock_Guitar,-1,-1
50,100,0.41818181818181815,281,1,60,DL_Warm_Pop_Rock_Guitar,-1,-1
50,100,0.18181818181818182,386,0,60,DL_Warm_Pop_Rock_Guitar,-1,-1
52,100,0.2409090909090909,431,0,60,DL_Warm_Pop_Rock_Guitar,-1,-1
52,100,0.11818181818181818,493,0,60,DL_Warm_Pop_Rock_Guitar,-1,-1
52,100,0.1,531,0,60,DL_Warm_Pop_Rock_Guitar,-1,-1
47,100,0.11818181818181818,571,0,60,DL_Warm_Pop_Rock_Guitar,-1,-1
47,100,0.7636363636363637,641,0,60,DL_Warm_Pop_Rock_Guitar,-1,-1
52,100,0.42272727272727273,826,0,60,DL_Warm_Pop_Rock_Guitar,-1,-1
62,100,0.21818181818181817,198,1,61,DL_Warm_Pop_Rock_Guitar,-1,-1
47,100,0.3,303,0,61,DL_Warm_Pop_Rock_Guitar,-1,-1
47,100,0.6,383,0,61,DL_Warm_Pop_Rock_Guitar,-1,-1
55,100,0.17727272727272728,691,1,61,DL_Warm_Pop_Rock_Guitar,-1,-1
50,100,0.37727272727272726,611,1,62,DL_Warm_Pop_Rock_Guitar,-1,-1
50,100,0.1,813,1,62,DL_Warm_Pop_Rock_Guitar,-1,-1
50,100,0.3,496,1,63,DL_Warm_Pop_Rock_Guitar,-1,-1
43,100,0.5409090909090909,734,1,64,DL_Warm_Pop_Rock_Guitar,-1,-1
43,100,2.481818181818182,22,1,65,DL_Warm_Pop_Rock_Guitar,-1,-1
50,100,1.2818181818181817,576,1,65,DL_Warm_Pop_Rock_Guitar,-1,-1
62,100,0.7,9,1,66,DL_Warm_Pop_Rock_Guitar,-1,-1
50,100,0.23636363636363636,172,0,66,DL_Warm_Pop_Rock_Guitar,-1,-1
50,100,1.8,229,0,66,DL_Warm_Pop_Rock_Guitar,-1,-1
62,100,2.081818181818182,716,1,66,DL_Warm_Pop_Rock_Guitar,-1,-1
62,100,0.2,603,1,67,DL_Warm_Pop_Rock_Guitar,-1,-1
48,100,0.1409090909090909,660,0,67,DL_Warm_Pop_Rock_Guitar,-1,-1
48,100,0.1,703,0,67,DL_Warm_Pop_Rock_Guitar,-1,-1
48,100,3.922727272727273,729,0,67,DL_Warm_Pop_Rock_Guitar,-1,-1
43,100,3.036363636363636,62,1,69,DL_Warm_Pop_Rock_Guitar,-1,-1
50,100,3.059090909090909,734,1,69,DL_Warm_Pop_Rock_Guitar,-1,-1
50,100,0.6636363636363637,553,1,70,DL_Warm_Pop_Rock_Guitar,-1,-1
50,100,0.1590909090909091,722,0,70,DL_Warm_Pop_Rock_Guitar,-1,-1
62,100,0.1,756,0,70,DL_Warm_Pop_Rock_Guitar,-1,-1
48,100,3.7590909090909093,826,0,70,DL_Warm_Pop_Rock_Guitar,-1,-1
50,100,0.17727272727272728,779,1,71,DL_Warm_Pop_Rock_Guitar,-1,-1
43,100,0.6,35,1,72,DL_Warm_Pop_Rock_Guitar,-1,-1
43,100,1.8,223,0,72,DL_Warm_Pop_Rock_Guitar,-1,-1
43,100,0.11818181818181818,216,1,73,DL_Warm_Pop_Rock_Guitar,-1,-1
50,100,0.1,360,0,73,DL_Warm_Pop_Rock_Guitar,-1,-1
50,100,0.7,386,0,73,DL_Warm_Pop_Rock_Guitar,-1,-1
50,100,0.3409090909090909,580,0,73,DL_Warm_Pop_Rock_Guitar,-1,-1
50,100,0.11818181818181818,726,0,73,DL_Warm_Pop_Rock_Guitar,-1,-1
50,100,0.11818181818181818,779,0,73,DL_Warm_Pop_Rock_Guitar,-1,-1
50,100,0.11818181818181818,844,0,73,DL_Warm_Pop_Rock_Guitar,-1,-1
50,100,0.2590909090909091,163,1,74,DL_Warm_Pop_Rock_Guitar,-1,-1
50,100,0.16363636363636364,422,1,74,DL_Warm_Pop_Rock_Guitar,-1,-1
50,100,0.1,536,0,74,DL_Warm_Pop_Rock_Guitar,-1,-1
50,100,0.2,633,0,74,DL_Warm_Pop_Rock_Guitar,-1,-1
62,100,0.2590909090909091,743,0,74,DL_Warm_Pop_Rock_Guitar,-1,-1
50,100,0.1590909090909091,810,0,74,DL_Warm_Pop_Rock_Guitar,-1,-1
52,100,0.6818181818181818,35,1,75,DL_Warm_Pop_Rock_Guitar,-1,-1
64,100,0.1,330,1,75,DL_Warm_Pop_Rock_Guitar,-1,-1
62,100,0.759090909090909,365,0,75,DL_Warm_Pop_Rock_Guitar,-1,-1
52,100,0.21818181818181817,546,0,75,DL_Warm_Pop_Rock_Guitar,-1,-1
62,100,0.5,734,0,75,DL_Warm_Pop_Rock_Guitar,-1,-1
62,100,1.0,849,0,75,DL_Warm_Pop_Rock_Guitar,-1,-1
62,100,0.35909090909090907,426,1,76,DL_Warm_Pop_Rock_Guitar,-1,-1
50,100,0.1409090909090909,536,0,76,DL_Warm_Pop_Rock_Guitar,-1,-1
62,100,0.2,590,0,76,DL_Warm_Pop_Rock_Guitar,-1,-1
50,100,0.2,35,1,77,DL_Warm_Pop_Rock_Guitar,-1,-1
62,100,0.11818181818181818,282,1,77,DL_Warm_Pop_Rock_Guitar,-1,-1
62,100,0.3181818181818182,572,1,77,DL_Warm_Pop_Rock_Guitar,-1,-1
52,100,0.3,206,1,78,DL_Warm_Pop_Rock_Guitar,-1,-1
52,100,0.2818181818181818,276,0,78,DL_Warm_Pop_Rock_Guitar,-1,-1
43,100,0.1409090909090909,603,1,78,DL_Warm_Pop_Rock_Guitar,-1,-1
43,100,0.1590909090909091,646,0,78,DL_Warm_Pop_Rock_Guitar,-1,-1
62,100,0.18181818181818182,695,0,78,DL_Warm_Pop_Rock_Guitar,-1,-1
62,100,0.12272727272727273,739,0,78,DL_Warm_Pop_Rock_Guitar,-1,-1
43,100,0.4,817,0,78,DL_Warm_Pop_Rock_Guitar,-1,-1
43,100,0.11818181818181818,96,1,79,DL_Warm_Pop_Rock_Guitar,-1,-1
62,100,0.3,163,0,79,DL_Warm_Pop_Rock_Guitar,-1,-1
48,100,0.1409090909090909,339,0,79,DL_Warm_Pop_Rock_Guitar,-1,-1
48,100,0.11818181818181818,373,0,79,DL_Warm_Pop_Rock_Guitar,-1,-1
50,100,0.4,839,1,79,DL_Warm_Pop_Rock_Guitar,-1,-1
50,100,0.3181818181818182,96,1,80,DL_Warm_Pop_Rock_Guitar,-1,-1
52,100,0.4590909090909091,193,0,80,DL_Warm_Pop_Rock_Guitar,-1,-1
62,100,0.5181818181818182,440,1,81,DL_Warm_Pop_Rock_Guitar,-1,-1
62,100,0.7,624,0,81,DL_Warm_Pop_Rock_Guitar,-1,-1
40,100,0.35909090909090907,373,1,82,DL_Warm_Pop_Rock_Guitar,-1,-1
52,100,0.22272727272727272,532,0,82,DL_Warm_Pop_Rock_Guitar,-1,-1
50,100,0.2409090909090909,585,0,82,DL_Warm_Pop_Rock_Guitar,-1,-1
62,100,0.1,839,1,82,DL_Warm_Pop_Rock_Guitar,-1,-1
62,100,0.1,866,0,82,DL_Warm_Pop_Rock_Guitar,-1,-1
43,100,0.35909090909090907,66,1,83,DL_Warm_Pop_Rock_Guitar,-1,-1
62,100,0.13636363636363635,150,0,83,DL_Warm_Pop_Rock_Guitar,-1,-1
50,100,0.11818181818181818,216,0,83,DL_Warm_Pop_Rock_Guitar,-1,-1
48,100,0.4,326,0,83,DL_Warm_Pop_Rock_Guitar,-1,-1
48,100,0.3409090909090909,646,1,83,DL_Warm_Pop_Rock_Guitar,-1,-1
43,100,1.1409090909090909,352,1,84,DL_Warm_Pop_Rock_Guitar,-1,-1
43,100,0.4409090909090909,773,1,84,DL_Warm_Pop_Rock_Guitar,-1,-1
43,100,0.13636363636363635,370,1,85,DL_Warm_Pop_Rock_Guitar,-1,-1
43,100,0.2590909090909091,559,0,85,DL_Warm_Pop_Rock_Guitar,-1,-1
43,100,0.2,145,1,86,DL_Warm_Pop_Rock_Guitar,-1,-1
43,100,0.22272727272727272,377,1,86,DL_Warm_Pop_Rock_Guitar,-1,-1
50,100,0.1409090909090909,550,0,86,DL_Warm_Pop_Rock_Guitar,-1,-1
43,100,0.5818181818181818,220,1,87,DL_Warm_Pop_Rock_Guitar,-1,-1
54,100,0.2,0,1,21,_Remix_Guitar,-1,-1
54,100,0.1,712,1,21,_Remix_Guitar,-1,-1
54,100,0.22272727272727272,752,0,21,_Remix_Guitar,-1,-1
49,100,1.2227272727272727,26,1,22,_Remix_Guitar,-1,-1
49,100,0.2,540,1,22,_Remix_Guitar,-1,-1
51,100,0.7818181818181819,791,1,22,_Remix_Guitar,-1,-1
51,100,0.2,92,1,23,_Remix_Guitar,-1,-1
51,100,0.3181818181818182,185,0,23,_Remix_Guitar,-1,-1
51,100,0.6,289,0,23,_Remix_Guitar,-1,-1
51,100,0.7,430,0,23,_Remix_Guitar,-1,-1
51,100,0.1409090909090909,619,0,23,_Remix_Guitar,-1,-1
53,100,0.6,814,0,23,_Remix_Guitar,-1,-1
53,100,0.18181818181818182,113,1,24,_Remix_Guitar,-1,-1
53,100,0.8,272,0,24,_Remix_Guitar,-1,-1
53,100,0.12272727272727273,509,1,24,_Remix_Guitar,-1,-1
54,100,0.8818181818181818,113,1,25,_Remix_Guitar,-1,-1
49,100,0.3181818181818182,712,1,25,_Remix_Guitar,-1,-1
49,100,0.1,52,1,26,_Remix_Guitar,-1,-1
54,100,0.1409090909090909,13,1,27,_Remix_Guitar,-1,-1
49,100,0.12272727272727273,57,0,27,_Remix_Guitar,-1,-1
49,100,0.32272727272727275,277,1,27,_Remix_Guitar,-1,-1
54,100,0.2,347,0,27,_Remix_Guitar,-1,-1
49,100,0.2409090909090909,515,0,27,_Remix_Guitar,-1,-1
54,100,0.17727272727272728,801,1,27,_Remix_Guitar,-1,-1
54,100,0.3,849,0,27,_Remix_Guitar,-1,-1
49,100,0.2,9,1,29,_Remix_Guitar,-1,-1
49,100,0.18181818181818182,57,0,29,_Remix_Guitar,-1,-1
49,100,0.37727272727272726,237,0,29,_Remix_Guitar,-1,-1
49,100,0.3,440,1,29,_Remix_Guitar,-1,-1
49,100,0.22272727272727272,532,0,29,_Remix_Guitar,-1,-1
54,100,0.2409090909090909,373,1,89,_Remix_Guitar,-1,-1
54,100,0.2590909090909091,475,0,89,_Remix_Guitar,-1,-1
54,100,0.2818181818181818,663,0,89,_Remix_Guitar,-1,-1
54,100,0.2,857,0,89,_Remix_Guitar,-1,-1
54,100,0.1590909090909091,184,1,90,_Remix_Guitar,-1,-1
54,100,0.3409090909090909,267,0,90,_Remix_Guitar,-1,-1
54,100,0.1,392,0,90,_Remix_Guitar,-1,-1
54,100,0.21818181818181817,462,0,90,_Remix_Guitar,-1,-1
54,100,0.37727272727272726,523,0,90,_Remix_Guitar,-1,-1
54,100,0.2,356,1,91,_Remix_Guitar,-1,-1
56,100,0.1409090909090909,616,1,91,_Remix_Guitar,-1,-1
56,100,0.13636363636363635,216,1,92,_Remix_Guitar,-1,-1
51,100,1.2,409,0,92,_Remix_Guitar,-1,-1
51,100,0.32272727272727275,707,1,92,_Remix_Guitar,-1,-1
51,100,0.5227272727272727,796,0,92,_Remix_Guitar,-1,-1
51,100,0.11818181818181818,74,1,93,_Remix_Guitar,-1,-1
51,100,0.2,110,0,93,_Remix_Guitar,-1,-1
53,100,0.2409090909090909,580,1,93,_Remix_Guitar,-1,-1
54,100,0.11818181818181818,140,1,94,_Remix_Guitar,-1,-1
47,100,0.4818181818181818,255,0,94,_Remix_Guitar,-1,-1
54,100,0.3,466,1,94,_Remix_Guitar,-1,-1
47,100,0.3409090909090909,553,0,94,_Remix_Guitar,-1,-1
55,100,0.1,826,1,94,_Remix_Guitar,-1,-1
54,100,0.1590909090909091,870,0,94,_Remix_Guitar,-1,-1
56,100,0.1590909090909091,263,1,95,_Remix_Guitar,-1,-1
54,100,0.11818181818181818,396,0,95,_Remix_Guitar,-1,-1
49,100,0.1409090909090909,449,0,95,_Remix_Guitar,-1,-1
54,100,0.1409090909090909,716,1,95,_Remix_Guitar,-1,-1
54,100,0.1409090909090909,760,0,95,_Remix_Guitar,-1,-1
56,100,0.17727272727272728,832,0,95,_Remix_Guitar,-1,-1
61,100,0.38181818181818183,0,1,34,DL_Nostalgic_Guitar,-1,-1
58,100,2.459090909090909,83,0,34,DL_Nostalgic_Guitar,-1,-1
58,100,0.2590909090909091,646,1,34,DL_Nostalgic_Guitar,-1,-1
58,100,1.3,708,0,34,DL_Nostalgic_Guitar,-1,-1
61,100,0.2409090909090909,114,1,35,DL_Nostalgic_Guitar,-1,-1
60,100,0.23636363636363636,260,0,35,DL_Nostalgic_Guitar,-1,-1
63,100,1.5772727272727274,413,0,35,DL_Nostalgic_Guitar,-1,-1
56,100,0.2772727272727273,765,1,35,DL_Nostalgic_Guitar,-1,-1
63,100,1.1227272727272728,826,0,35,DL_Nostalgic_Guitar,-1,-1
51,100,0.21818181818181817,193,1,36,DL_Nostalgic_Guitar,-1,-1
63,100,0.8409090909090909,241,0,36,DL_Nostalgic_Guitar,-1,-1
51,100,0.1,435,0,36,DL_Nostalgic_Guitar,-1,-1
63,100,0.6,471,0,36,DL_Nostalgic_Guitar,-1,-1
63,100,0.3,611,0,36,DL_Nostalgic_Guitar,-1,-1
63,100,0.6590909090909091,681,0,36,DL_Nostalgic_Guitar,-1,-1
63,100,1.7818181818181817,871,0,36,DL_Nostalgic_Guitar,-1,-1
58,100,0.5409090909090909,386,1,37,DL_Nostalgic_Guitar,-1,-1
58,100,0.2409090909090909,558,0,37,DL_Nostalgic_Guitar,-1,-1
63,100,0.18181818181818182,638,0,37,DL_Nostalgic_Guitar,-1,-1
58,100,1.6590909090909092,770,0,37,DL_Nostalgic_Guitar,-1,-1
58,100,0.3,796,1,38,DL_Nostalgic_Guitar,-1,-1
58,100,2.118181818181818,875,0,38,DL_Nostalgic_Guitar,-1,-1
63,100,0.9,619,1,39,DL_Nostalgic_Guitar,-1,-1
63,100,0.37727272727272726,823,1,39,DL_Nostalgic_Guitar,-1,-1
63,100,3.4,43,1,40,DL_Nostalgic_Guitar,-1,-1
63,100,1.1227272727272728,839,1,40,DL_Nostalgic_Guitar,-1,-1
51,100,0.5590909090909091,206,1,41,DL_Nostalgic_Guitar,-1,-1
51,100,0.1409090909090909,351,0,41,DL_Nostalgic_Guitar,-1,-1
63,100,0.2772727272727273,383,0,41,DL_Nostalgic_Guitar,-1,-1
63,100,0.12272727272727273,488,0,41,DL_Nostalgic_Guitar,-1,-1
63,100,0.5772727272727273,668,0,41,DL_Nostalgic_Guitar,-1,-1
51,100,0.2409090909090909,796,0,41,DL_Nostalgic_Guitar,-1,-1
63,100,1.040909090909091,848,0,41,DL_Nostalgic_Guitar,-1,-1
58,100,1.1181818181818182,198,1,42,DL_Nostalgic_Guitar,-1,-1
56,100,1.559090909090909,448,1,42,DL_Nostalgic_Guitar,-1,-1
56,100,1.2363636363636363,810,1,42,DL_Nostalgic_Guitar,-1,-1
58,100,2.922727272727273,201,1,43,DL_Nostalgic_Guitar,-1,-1
56,100,0.759090909090909,848,1,43,DL_Nostalgic_Guitar,-1,-1
53,100,0.35909090909090907,141,1,44,DL_Nostalgic_Guitar,-1,-1
56,100,0.5409090909090909,220,0,44,DL_Nostalgic_Guitar,-1,-1
53,100,0.22272727272727272,356,0,44,DL_Nostalgic_Guitar,-1,-1
56,100,0.7818181818181819,431,0,44,DL_Nostalgic_Guitar,-1,-1
58,100,0.1409090909090909,606,0,44,DL_Nostalgic_Guitar,-1,-1
51,100,0.2590909090909091,804,1,44,DL_Nostalgic_Guitar,-1,-1
63,100,0.3,26,1,45,DL_Nostalgic_Guitar,-1,-1
58,100,0.8818181818181818,131,0,45,DL_Nostalgic_Guitar,-1,-1
56,100,0.4590909090909091,383,1,45,DL_Nostalgic_Guitar,-1,-1
56,100,3.3227272727272728,606,1,45,DL_Nostalgic_Guitar,-1,-1
51,100,1.4772727272727273,458,1,46,DL_Nostalgic_Guitar,-1,-1
56,100,0.7,783,1,46,DL_Nostalgic_Guitar,-1,-1
53,100,0.3409090909090909,66,1,47,DL_Nostalgic_Guitar,-1,-1
56,100,0.38181818181818183,144,0,47,DL_Nostalgic_Guitar,-1,-1
56,100,1.1409090909090909,289,0,47,DL_Nostalgic_Guitar,-1,-1
58,100,0.9818181818181818,541,1,47,DL_Nostalgic_Guitar,-1,-1
58,100,0.4409090909090909,783,1,47,DL_Nostalgic_Guitar,-1,-1
58,100,0.17727272727272728,118,1,48,DL_Nostalgic_Guitar,-1,-1
51,100,0.2,254,0,48,DL_Nostalgic_Guitar,-1,-1
53,100,0.23636363636363636,391,0,48,DL_Nostalgic_Guitar,-1,-1
53,100,0.4590909090909091,448,0,48,DL_Nostalgic_Guitar,-1,-1
56,100,0.3181818181818182,550,0,48,DL_Nostalgic_Guitar,-1,-1
53,100,0.2590909090909091,628,0,48,DL_Nostalgic_Guitar,-1,-1
56,100,0.5409090909090909,703,0,48,DL_Nostalgic_Guitar,-1,-1
56,100,0.1590909090909091,826,0,48,DL_Nostalgic_Guitar,-1,-1
58,100,0.35909090909090907,871,0,48,DL_Nostalgic_Guitar,-1,-1
44,100,0.21818181818181817,171,1,49,DL_Nostalgic_Guitar,-1,-1
56,100,0.2,351,0,49,DL_Nostalgic_Guitar,-1,-1
51,100,1.1590909090909092,474,0,49,DL_Nostalgic_Guitar,-1,-1
61,100,0.5,756,1,49,DL_Nostalgic_Guitar,-1,-1
56,100,0.9818181818181818,166,1,50,DL_Nostalgic_Guitar,-1,-1
58,100,0.1590909090909091,405,1,50,DL_Nostalgic_Guitar,-1,-1
51,100,0.6227272727272727,584,0,50,DL_Nostalgic_Guitar,-1,-1
58,100,0.3,729,0,50,DL_Nostalgic_Guitar,-1,-1
58,100,0.38181818181818183,4,1,51,DL_Nostalgic_Guitar,-1,-1
51,100,0.16363636363636364,91,0,51,DL_Nostalgic_Guitar,-1,-1
63,100,0.12272727272727273,136,0,51,DL_Nostalgic_Guitar,-1,-1
51,100,0.37727272727272726,163,0,51,DL_Nostalgic_Guitar,-1,-1
56,100,1.059090909090909,405,1,51,DL_Nostalgic_Guitar,-1,-1
49,100,0.2590909090909091,646,1,51,DL_Nostalgic_Guitar,-1,-1
61,100,0.4409090909090909,703,0,51,DL_Nostalgic_Guitar,-1,-1
60,100,1.1,8,1,52,DL_Nostalgic_Guitar,-1,-1
63,100,0.1409090909090909,263,1,52,DL_Nostalgic_Guitar,-1,-1
63,100,1.0772727272727274,413,0,52,DL_Nostalgic_Guitar,-1,-1
51,100,0.8772727272727273,655,1,52,DL_Nostalgic_Guitar,-1,-1
51,100,0.38181818181818183,4,1,53,DL_Nostalgic_Guitar,-1,-1
56,100,0.3409090909090909,91,0,53,DL_Nostalgic_Guitar,-1,-1
56,100,0.38181818181818183,179,0,53,DL_Nostalgic_Guitar,-1,-1
63,100,1.059090909090909,263,0,53,DL_Nostalgic_Guitar,-1,-1
51,100,0.35909090909090907,496,1,53,DL_Nostalgic_Guitar,-1,-1
58,100,0.7818181818181819,638,0,53,DL_Nostalgic_Guitar,-1,-1
63,100,0.2636363636363636,818,0,53,DL_Nostalgic_Guitar,-1,-1
51,100,0.21818181818181817,8,1,54,DL_Nostalgic_Guitar,-1,-1
63,100,0.11818181818181818,61,0,54,DL_Nostalgic_Guitar,-1,-1
51,100,0.32272727272727275,101,0,54,DL_Nostalgic_Guitar,-1,-1
51,100,0.7,179,0,54,DL_Nostalgic_Guitar,-1,-1
56,100,0.2590909090909091,338,0,54,DL_Nostalgic_Guitar,-1,-1
63,100,0.740909090909091,563,1,54,DL_Nostalgic_Guitar,-1,-1
51,100,0.2590909090909091,801,1,54,DL_Nostalgic_Guitar,-1,-1
55,100,0.13636363636363635,150,1,55,DL_Nostalgic_Guitar,-1,-1
63,100,0.1,703,1,55,DL_Nostalgic_Guitar,-1,-1
56,100,0.36363636363636365,751,0,55,DL_Nostalgic_Guitar,-1,-1
56,100,0.9590909090909091,31,1,56,DL_Nostalgic_Guitar,-1,-1
56,100,0.12272727272727273,268,1,56,DL_Nostalgic_Guitar,-1,-1
56,100,0.7,338,0,56,DL_Nostalgic_Guitar,-1,-1
56,100,0.8590909090909091,501,0,56,DL_Nostalgic_Guitar,-1,-1
56,100,0.12272727272727273,694,0,56,DL_Nostalgic_Guitar,-1,-1
56,100,0.2590909090909091,761,0,56,DL_Nostalgic_Guitar,-1,-1
56,100,1.4,26,1,57,DL_Nostalgic_Guitar,-1,-1
56,100,0.8409090909090909,338,1,57,DL_Nostalgic_Guitar,-1,-1
51,100,0.8590909090909091,804,1,57,DL_Nostalgic_Guitar,-1,-1
58,100,0.2590909090909091,118,1,58,DL_Nostalgic_Guitar,-1,-1
58,100,0.7636363636363637,179,0,58,DL_Nostalgic_Guitar,-1,-1
51,100,0.4,361,0,58,DL_Nostalgic_Guitar,-1,-1
58,100,0.1590909090909091,448,0,58,DL_Nostalgic_Guitar,-1,-1
51,100,0.7227272727272728,518,0,58,DL_Nostalgic_Guitar,-1,-1
56,100,0.9,681,0,58,DL_Nostalgic_Guitar,-1,-1
56,100,0.9409090909090909,26,1,59,DL_Nostalgic_Guitar,-1,-1
58,100,0.2409090909090909,298,1,59,DL_Nostalgic_Guitar,-1,-1
58,100,0.2409090909090909,378,0,59,DL_Nostalgic_Guitar,-1,-1
55,100,0.21818181818181817,448,0,59,DL_Nostalgic_Guitar,-1,-1
58,100,1.4,518,0,59,DL_Nostalgic_Guitar,-1,-1
58,100,0.2,853,1,59,DL_Nostalgic_Guitar,-1,-1
60,100,0.7227272727272728,48,1,60,DL_Nostalgic_Guitar,-1,-1
56,100,0.5590909090909091,241,0,60,DL_Nostalgic_Guitar,-1,-1
60,100,0.11818181818181818,405,0,60,DL_Nostalgic_Guitar,-1,-1
56,100,0.23636363636363636,545,0,60,DL_Nostalgic_Guitar,-1,-1
56,100,0.3181818181818182,616,0,60,DL_Nostalgic_Guitar,-1,-1
51,100,0.2,686,0,60,DL_Nostalgic_Guitar,-1,-1
56,100,0.6,848,0,60,DL_Nostalgic_Guitar,-1,-1
56,100,0.6818181818181818,289,1,61,DL_Nostalgic_Guitar,-1,-1
56,100,0.12272727272727273,453,0,61,DL_Nostalgic_Guitar,-1,-1
56,100,0.3,700,1,61,DL_Nostalgic_Guitar,-1,-1
56,100,0.1,43,1,62,DL_Nostalgic_Guitar,-1,-1
56,100,0.5818181818181818,91,0,62,DL_Nostalgic_Guitar,-1,-1
58,100,0.2,228,0,62,DL_Nostalgic_Guitar,-1,-1
51,100,0.17727272727272728,348,0,62,DL_Nostalgic_Guitar,-1,-1
58,100,0.1,483,0,62,DL_Nostalgic_Guitar,-1,-1
58,100,1.559090909090909,518,0,62,DL_Nostalgic_Guitar,-1,-1
51,100,2.959090909090909,871,1,62,DL_Nostalgic_Guitar,-1,-1
51,100,0.9409090909090909,748,1,63,DL_Nostalgic_Guitar,-1,-1
51,100,0.6818181818181818,123,1,64,DL_Nostalgic_Guitar,-1,-1
51,100,0.1,276,0,64,DL_Nostalgic_Guitar,-1,-1
51,100,1.5818181818181818,330,0,64,DL_Nostalgic_Guitar,-1,-1
63,100,0.35909090909090907,677,1,64,DL_Nostalgic_Guitar,-1,-1
51,100,0.18181818181818182,770,0,64,DL_Nostalgic_Guitar,-1,-1
45,100,0.19545454545454546,181,1,0,_Guitar_1,-1,-1
45,100,0.2636363636363636,246,0,0,_Guitar_1,-1,-1
45,100,0.2772727272727273,315,0,0,_Guitar_1,-1,-1
45,100,0.24545454545454545,466,0,0,_Guitar_1,-1,-1
57,100,0.09545454545454546,525,0,0,_Guitar_1,-1,-1
45,100,0.2,546,0,0,_Guitar_1,-1,-1
45,100,0.2636363636363636,604,0,0,_Guitar_1,-1,-1
45,100,0.31363636363636366,666,0,0,_Guitar_1,-1,-1
44,100,0.2818181818181818,821,0,0,_Guitar_1,-1,-1
44,100,0.29545454545454547,10,1,1,_Guitar_1,-1,-1
44,100,0.6090909090909091,151,0,1,_Guitar_1,-1,-1
44,100,0.29545454545454547,299,0,1,_Guitar_1,-1,-1
44,100,0.2772727272727273,376,0,1,_Guitar_1,-1,-1
49,100,0.6272727272727273,519,0,1,_Guitar_1,-1,-1
49,100,0.4772727272727273,694,0,1,_Guitar_1,-1,-1
49,100,0.6227272727272727,803,0,1,_Guitar_1,-1,-1
49,100,0.2636363636363636,70,1,2,_Guitar_1,-1,-1
49,100,0.6272727272727273,219,0,2,_Guitar_1,-1,-1
49,100,1.2818181818181817,433,1,2,_Guitar_1,-1,-1
45,100,0.2636363636363636,736,1,2,_Guitar_1,-1,-1
45,100,0.2818181818181818,797,0,2,_Guitar_1,-1,-1
45,100,0.24545454545454545,874,0,2,_Guitar_1,-1,-1
45,100,0.5909090909090909,67,1,3,_Guitar_1,-1,-1
45,100,0.2772727272727273,207,0,3,_Guitar_1,-1,-1
45,100,0.2636363636363636,280,0,3,_Guitar_1,-1,-1
45,100,0.2636363636363636,351,0,3,_Guitar_1,-1,-1
47,100,0.9545454545454546,424,0,3,_Guitar_1,-1,-1
47,100,0.9181818181818182,645,1,3,_Guitar_1,-1,-1
47,100,0.25,855,1,3,_Guitar_1,-1,-1
47,100,0.29545454545454547,43,1,4,_Guitar_1,-1,-1
52,100,0.2636363636363636,200,0,4,_Guitar_1,-1,-1
52,100,0.29545454545454547,264,0,4,_Guitar_1,-1,-1
53,100,0.08181818181818182,405,0,4,_Guitar_1,-1,-1
52,100,0.2318181818181818,423,0,4,_Guitar_1,-1,-1
52,100,0.2818181818181818,489,0,4,_Guitar_1,-1,-1
52,100,0.24545454545454545,564,0,4,_Guitar_1,-1,-1
52,100,0.25,629,0,4,_Guitar_1,-1,-1
59,100,0.4636363636363636,6,1,5,_Guitar_1,-1,-1
40,100,0.11363636363636363,122,0,5,_Guitar_1,-1,-1
59,100,0.1318181818181818,170,0,5,_Guitar_1,-1,-1
40,100,0.11363636363636363,413,1,5,_Guitar_1,-1,-1
52,100,0.6772727272727272,463,0,5,_Guitar_1,-1,-1
52,100,0.22727272727272727,618,0,5,_Guitar_1,-1,-1
52,100,0.35909090909090907,677,0,5,_Guitar_1,-1,-1
52,100,0.9409090909090909,763,0,5,_Guitar_1,-1,-1
52,100,1.2,101,1,6,_Guitar_1,-1,-1
40,100,0.08181818181818182,365,1,6,_Guitar_1,-1,-1
52,100,0.35909090909090907,383,0,6,_Guitar_1,-1,-1
52,100,0.5772727272727273,472,0,6,_Guitar_1,-1,-1
52,100,0.11363636363636363,604,0,6,_Guitar_1,-1,-1
49,100,0.6772727272727272,737,0,6,_Guitar_1,-1,-1
49,100,0.11363636363636363,24,1,7,_Guitar_1,-1,-1
49,100,0.2636363636363636,92,0,7,_Guitar_1,-1,-1
49,100,0.6272727272727273,160,0,7,_Guitar_1,-1,-1
49,100,0.41363636363636364,301,0,7,_Guitar_1,-1,-1
59,100,0.1318181818181818,410,0,7,_Guitar_1,-1,-1
49,100,0.44545454545454544,451,0,7,_Guitar_1,-1,-1
49,100,0.2636363636363636,667,1,7,_Guitar_1,-1,-1
49,100,0.2818181818181818,739,0,7,_Guitar_1,-1,-1
49,100,0.6272727272727273,805,0,7,_Guitar_1,-1,-1
45,100,0.29545454545454547,84,1,8,_Guitar_1,-1,-1
45,100,0.2318181818181818,156,0,8,_Guitar_1,-1,-1
45,100,0.2318181818181818,228,0,8,_Guitar_1,-1,-1
45,100,0.24545454545454545,371,0,8,_Guitar_1,-1,-1
45,100,0.6090909090909091,438,0,8,_Guitar_1,-1,-1
45,100,0.21363636363636362,584,0,8,_Guitar_1,-1,-1
45,100,0.24545454545454545,663,0,8,_Guitar_1,-1,-1
45,100,0.2818181818181818,732,0,8,_Guitar_1,-1,-1
45,100,0.24545454545454545,801,0,8,_Guitar_1,-1,-1
45,100,0.22727272727272727,77,1,9,_Guitar_1,-1,-1
45,100,0.29545454545454547,135,0,9,_Guitar_1,-1,-1
45,100,0.29545454545454547,202,0,9,_Guitar_1,-1,-1
45,100,0.24545454545454545,283,0,9,_Guitar_1,-1,-1
47,100,0.16363636363636364,383,0,9,_Guitar_1,-1,-1
47,100,0.5954545454545455,431,0,9,_Guitar_1,-1,-1
47,100,0.6909090909090909,630,1,9,_Guitar_1,-1,-1
59,100,0.1,799,0,9,_Guitar_1,-1,-1
47,100,0.42727272727272725,840,0,9,_Guitar_1,-1,-1
47,100,0.12727272727272726,61,1,10,_Guitar_1,-1,-1
47,100,0.42727272727272725,94,0,10,_Guitar_1,-1,-1
47,100,0.2636363636363636,199,0,10,_Guitar_1,-1,-1
47,100,0.08181818181818182,268,0,10,_Guitar_1,-1,-1
47,100,0.08181818181818182,311,0,10,_Guitar_1,-1,-1
47,100,1.1681818181818182,340,0,10,_Guitar_1,-1,-1
45,100,0.08181818181818182,632,1,10,_Guitar_1,-1,-1
57,100,0.31363636363636366,651,0,10,_Guitar_1,-1,-1
45,100,0.08181818181818182,720,0,10,_Guitar_1,-1,-1
45,100,0.09545454545454546,742,0,10,_Guitar_1,-1,-1
57,100,0.18181818181818182,63,1,11,_Guitar_1,-1,-1
47,100,0.29545454545454547,190,0,11,_Guitar_1,-1,-1
47,100,0.18181818181818182,309,0,11,_Guitar_1,-1,-1
59,100,0.09545454545454546,357,0,11,_Guitar_1,-1,-1
59,100,0.19545454545454546,419,0,11,_Guitar_1,-1,-1
64,100,0.1,495,0,11,_Guitar_1,-1,-1
59,100,0.08181818181818182,527,0,11,_Guitar_1,-1,-1
47,100,0.2318181818181818,632,0,11,_Guitar_1,-1,-1
59,100,0.32727272727272727,687,0,11,_Guitar_1,-1,-1
64,100,0.2,766,0,11,_Guitar_1,-1,-1
64,100,0.15,13,1,12,_Guitar_1,-1,-1
64,100,0.509090909090909,63,0,12,_Guitar_1,-1,-1
52,100,0.18181818181818182,247,0,12,_Guitar_1,-1,-1
40,100,0.08181818181818182,324,0,12,_Guitar_1,-1,-1
52,100,0.08181818181818182,342,0,12,_Guitar_1,-1,-1
52,100,0.24545454545454545,403,0,12,_Guitar_1,-1,-1
64,100,0.7227272727272728,457,0,12,_Guitar_1,-1,-1
59,100,0.16363636363636364,620,0,12,_Guitar_1,-1,-1
59,100,0.09545454545454546,701,0,12,_Guitar_1,-1,-1
64,100,0.15,751,0,12,_Guitar_1,-1,-1
47,100,0.09545454545454546,842,0,12,_Guitar_1,-1,-1
47,100,0.34545454545454546,15,1,13,_Guitar_1,-1,-1
47,100,0.11363636363636363,197,0,13,_Guitar_1,-1,-1
59,100,0.16363636363636364,240,0,13,_Guitar_1,-1,-1
59,100,0.19545454545454546,283,0,13,_Guitar_1,-1,-1
52,100,0.16363636363636364,407,0,13,_Guitar_1,-1,-1
64,100,0.08181818181818182,479,0,13,_Guitar_1,-1,-1
45,100,0.19545454545454546,617,0,13,_Guitar_1,-1,-1
45,100,0.17727272727272728,692,0,13,_Guitar_1,-1,-1
64,100,0.09545454545454546,740,0,13,_Guitar_1,-1,-1
47,100,0.29545454545454547,84,1,14,_Guitar_1,-1,-1
47,100,0.2590909090909091,163,0,14,_Guitar_1,-1,-1
59,100,0.08181818181818182,232,0,14,_Guitar_1,-1,-1
59,100,0.14545454545454545,257,0,14,_Guitar_1,-1,-1
47,100,0.1,297,0,14,_Guitar_1,-1,-1
47,100,0.11818181818181818,383,0,14,_Guitar_1,-1,-1
59,100,0.17727272727272728,410,0,14,_Guitar_1,-1,-1
47,100,0.2818181818181818,448,0,14,_Guitar_1,-1,-1
59,100,0.32727272727272727,515,0,14,_Guitar_1,-1,-1
59,100,0.14545454545454545,591,0,14,_Guitar_1,-1,-1
59,100,0.18181818181818182,677,0,14,_Guitar_1,-1,-1
64,100,0.1,799,0,14,_Guitar_1,-1,-1
52,100,0.21363636363636362,821,0,14,_Guitar_1,-1,-1
52,100,0.1,6,1,15,_Guitar_1,-1,-1
52,100,0.29545454545454547,80,0,15,_Guitar_1,-1,-1
52,100,0.15,166,0,15,_Guitar_1,-1,-1
64,100,0.16363636363636364,445,1,15,_Guitar_1,-1,-1
61,100,0.11363636363636363,543,0,15,_Guitar_1,-1,-1
64,100,0.32727272727272727,572,0,15,_Guitar_1,-1,-1
64,100,0.1318181818181818,665,0,15,_Guitar_1,-1,-1
64,100,0.2636363636363636,723,0,15,_Guitar_1,-1,-1
59,100,0.08636363636363636,838,0,15,_Guitar_1,-1,-1
52,100,0.18181818181818182,85,1,16,_Guitar_1,-1,-1
64,100,0.29545454545454547,133,0,16,_Guitar_1,-1,-1
57,100,0.16363636363636364,299,0,16,_Guitar_1,-1,-1
57,100,0.15,419,0,16,_Guitar_1,-1,-1
64,100,0.11363636363636363,488,0,16,_Guitar_1,-1,-1
59,100,0.09545454545454546,528,0,16,_Guitar_1,-1,-1
59,100,0.09545454545454546,563,0,16,_Guitar_1,-1,-1
47,100,0.31363636363636366,646,0,16,_Guitar_1,-1,-1
59,100,0.2636363636363636,798,0,16,_Guitar_1,-1,-1
47,100,0.34545454545454546,52,1,17,_Guitar_1,-1,-1
47,100,0.19545454545454546,140,0,17,_Guitar_1,-1,-1
47,100,0.11363636363636363,193,0,17,_Guitar_1,-1,-1
47,100,0.08181818181818182,230,0,17,_Guitar_1,-1,-1
52,100,0.24545454545454545,350,0,17,_Guitar_1,-1,-1
64,100,0.1,436,0,17,_Guitar_1,-1,-1
59,100,0.11363636363636363,505,0,17,_Guitar_1,-1,-1
64,100,0.19545454545454546,538,0,17,_Guitar_1,-1,-1
52,100,0.31363636363636366,621,0,17,_Guitar_1,-1,-1
64,100,0.2318181818181818,866,1,17,_Guitar_1,-1,-1
52,100,0.18181818181818182,700,1,18,_Guitar_1,-1,-1
64,100,0.11363636363636363,739,0,18,_Guitar_1,-1,-1
64,100,0.2818181818181818,772,0,18,_Guitar_1,-1,-1
64,100,0.11363636363636363,240,1,19,_Guitar_1,-1,-1
64,100,0.18181818181818182,282,0,19,_Guitar_1,-1,-1
64,100,0.11363636363636363,395,0,19,_Guitar_1,-1,-1
64,100,0.1,430,0,19,_Guitar_1,-1,-1
52,100,0.29545454545454547,485,0,19,_Guitar_1,-1,-1
52,100,0.11363636363636363,576,0,19,_Guitar_1,-1,-1
59,100,0.14545454545454545,615,0,19,_Guitar_1,-1,-1
64,100,0.1,680,0,19,_Guitar_1,-1,-1
64,100,0.11818181818181818,705,0,19,_Guitar_1,-1,-1
64,100,0.11818181818181818,839,0,19,_Guitar_1,-1,-1
45,100,0.15,35,1,20,_Guitar_1,-1,-1
57,100,0.18181818181818182,68,0,20,_Guitar_1,-1,-1
45,100,0.17727272727272728,109,0,20,_Guitar_1,-1,-1
45,100,0.1318181818181818,231,0,20,_Guitar_1,-1,-1
47,100,0.19545454545454546,611,1,20,_Guitar_1,-1,-1
59,100,0.21363636363636362,684,0,20,_Guitar_1,-1,-1
59,100,0.16363636363636364,803,0,20,_Guitar_1,-1,-1
59,100,0.2772727272727273,876,0,20,_Guitar_1,-1,-1
47,100,0.21363636363636362,100,1,21,_Guitar_1,-1,-1
47,100,0.24545454545454545,161,0,21,_Guitar_1,-1,-1
47,100,0.16363636363636364,255,0,21,_Guitar_1,-1,-1
47,100,0.6227272727272727,364,0,21,_Guitar_1,-1,-1
47,100,0.22727272727272727,516,0,21,_Guitar_1,-1,-1
40,100,0.32727272727272727,875,1,21,_Guitar_1,-1,-1
40,100,0.12727272727272726,75,1,22,_Guitar_1,-1,-1
40,100,0.11818181818181818,178,0,22,_Guitar_1,-1,-1
52,100,0.1,230,0,22,_Guitar_1,-1,-1
40,100,0.1318181818181818,305,0,22,_Guitar_1,-1,-1
40,100,0.21363636363636362,346,0,22,_Guitar_1,-1,-1
52,100,0.24545454545454545,426,0,22,_Guitar_1,-1,-1
59,100,0.11363636363636363,501,0,22,_Guitar_1,-1,-1
59,100,0.21363636363636362,533,0,22,_Guitar_1,-1,-1
59,100,0.15,587,0,22,_Guitar_1,-1,-1
59,100,0.08181818181818182,660,0,22,_Guitar_1,-1,-1
59,100,0.11363636363636363,748,0,22,_Guitar_1,-1,-1
64,100,0.1318181818181818,801,0,22,_Guitar_1,-1,-1
64,100,0.16818181818181818,0,1,23,_Guitar_1,-1,-1
59,100,0.18181818181818182,131,0,23,_Guitar_1,-1,-1
59,100,0.11363636363636363,261,0,23,_Guitar_1,-1,-1
47,100,0.15,298,0,23,_Guitar_1,-1,-1
59,100,0.33181818181818185,333,0,23,_Guitar_1,-1,-1
59,100,0.4090909090909091,413,0,23,_Guitar_1,-1,-1
59,100,0.1318181818181818,508,0,23,_Guitar_1,-1,-1
59,100,0.25,561,0,23,_Guitar_1,-1,-1
64,100,0.21363636363636362,624,0,23,_Guitar_1,-1,-1
59,100,0.16363636363636364,794,0,23,_Guitar_1,-1,-1
59,100,0.34545454545454546,852,0,23,_Guitar_1,-1,-1
47,100,0.22727272727272727,351,1,24,_Guitar_1,-1,-1
47,100,0.1318181818181818,464,0,24,_Guitar_1,-1,-1
59,100,0.11363636363636363,539,0,24,_Guitar_1,-1,-1
49,100,0.2318181818181818,629,0,24,_Guitar_1,-1,-1
61,100,0.19545454545454546,774,0,24,_Guitar_1,-1,-1
49,100,0.1318181818181818,858,0,24,_Guitar_1,-1,-1
64,100,0.19545454545454546,185,1,25,_Guitar_1,-1,-1
59,100,0.15,303,0,25,_Guitar_1,-1,-1
59,100,0.11818181818181818,364,0,25,_Guitar_1,-1,-1
54,100,0.42727272727272725,394,0,25,_Guitar_1,-1,-1
59,100,0.37727272727272726,514,0,25,_Guitar_1,-1,-1
64,100,0.1,796,1,25,_Guitar_1,-1,-1
45,100,0.29545454545454547,85,1,26,_Guitar_1,-1,-1
45,100,0.11363636363636363,336,1,26,_Guitar_1,-1,-1
57,100,0.2,378,0,26,_Guitar_1,-1,-1
59,100,0.1318181818181818,763,1,26,_Guitar_1,-1,-1
47,100,0.1,856,0,26,_Guitar_1,-1,-1
64,100,0.1,136,1,27,_Guitar_1,-1,-1
57,100,0.1318181818181818,312,0,27,_Guitar_1,-1,-1
52,100,0.25,371,0,27,_Guitar_1,-1,-1
64,100,0.19545454545454546,667,1,27,_Guitar_1,-1,-1
47,100,0.22727272727272727,178,1,28,_Guitar_1,-1,-1
59,100,0.1318181818181818,237,0,28,_Guitar_1,-1,-1
47,100,0.3090909090909091,284,0,28,_Guitar_1,-1,-1
59,100,0.2818181818181818,351,0,28,_Guitar_1,-1,-1
47,100,0.11363636363636363,413,0,28,_Guitar_1,-1,-1
59,100,0.09545454545454546,529,0,28,_Guitar_1,-1,-1
59,100,0.15,127,1,29,_Guitar_1,-1,-1
49,100,0.6772727272727272,412,1,29,_Guitar_1,-1,-1
64,100,0.18181818181818182,698,1,29,_Guitar_1,-1,-1
49,100,0.18181818181818182,781,0,29,_Guitar_1,-1,-1
64,100,0.09545454545454546,296,1,30,_Guitar_1,-1,-1
57,100,0.2318181818181818,340,0,30,_Guitar_1,-1,-1
64,100,0.21363636363636362,121,1,31,_Guitar_1,-1,-1
52,100,0.2636363636363636,179,0,31,_Guitar_1,-1,-1
45,100,0.2,255,0,31,_Guitar_1,-1,-1
52,100,0.11818181818181818,415,0,31,_Guitar_1,-1,-1
45,100,0.1,530,0,31,_Guitar_1,-1,-1
64,100,0.3,378,1,32,_Guitar_1,-1,-1
40,100,0.2636363636363636,458,0,32,_Guitar_1,-1,-1
40,100,0.2318181818181818,534,0,32,_Guitar_1,-1,-1
52,100,0.14545454545454545,596,0,32,_Guitar_1,-1,-1
40,100,0.11818181818181818,634,0,32,_Guitar_1,-1,-1
40,100,0.25,681,0,32,_Guitar_1,-1,-1
52,100,0.1,743,0,32,_Guitar_1,-1,-1
40,100,0.16363636363636364,765,0,32,_Guitar_1,-1,-1
40,100,0.21363636363636362,833,0,32,_Guitar_1,-1,-1
40,100,0.16818181818181818,29,1,33,_Guitar_1,-1,-1
52,100,0.16818181818181818,76,0,33,_Guitar_1,-1,-1
40,100,0.11363636363636363,114,0,33,_Guitar_1,-1,-1
40,100,0.18181818181818182,167,0,33,_Guitar_1,-1,-1
40,100,0.17727272727272728,247,0,33,_Guitar_1,-1,-1
52,100,0.1,297,0,33,_Guitar_1,-1,-1
40,100,0.16363636363636364,320,0,33,_Guitar_1,-1,-1
40,100,0.22727272727272727,378,0,33,_Guitar_1,-1,-1
40,100,0.16363636363636364,467,0,33,_Guitar_1,-1,-1
52,100,0.11363636363636363,518,0,33,_Guitar_1,-1,-1
40,100,0.1318181818181818,543,0,33,_Guitar_1,-1,-1
40,100,0.2,609,0,33,_Guitar_1,-1,-1
47,100,0.31363636363636366,778,0,33,_Guitar_1,-1,-1
47,100,0.1318181818181818,873,0,33,_Guitar_1,-1,-1
47,100,0.3090909090909091,135,1,34,_Guitar_1,-1,-1
47,100,0.5909090909090909,282,0,34,_Guitar_1,-1,-1
47,100,0.2772727272727273,503,1,34,_Guitar_1,-1,-1
47,100,0.29545454545454547,576,0,34,_Guitar_1,-1,-1
47,100,0.2636363636363636,721,0,34,_Guitar_1,-1,-1
47,100,0.29545454545454547,861,0,34,_Guitar_1,-1,-1
59,100,0.1318181818181818,50,1,35,_Guitar_1,-1,-1
47,100,0.1318181818181818,80,0,35,_Guitar_1,-1,-1
49,100,0.33181818181818185,187,0,35,_Guitar_1,-1,-1
49,100,0.29545454545454547,268,0,35,_Guitar_1,-1,-1
61,100,0.1,408,0,35,_Guitar_1,-1,-1
49,100,0.8681818181818182,431,0,35,_Guitar_1,-1,-1
49,100,0.25,639,1,35,_Guitar_1,-1,-1
49,100,0.31363636363636366,774,0,35,_Guitar_1,-1,-1
49,100,0.29545454545454547,846,0,35,_Guitar_1,-1,-1
49,100,0.29545454545454547,125,1,36,_Guitar_1,-1,-1
49,100,0.22727272727272727,194,0,36,_Guitar_1,-1,-1
61,100,0.16363636363636364,255,0,36,_Guitar_1,-1,-1
61,100,0.2818181818181818,302,0,36,_Guitar_1,-1,-1
57,100,0.18181818181818182,433,0,36,_Guitar_1,-1,-1
45,100,0.2636363636363636,488,0,36,_Guitar_1,-1,-1
45,100,0.22727272727272727,563,0,36,_Guitar_1,-1,-1
57,100,0.34545454545454546,643,0,36,_Guitar_1,-1,-1
57,100,0.1,729,0,36,_Guitar_1,-1,-1
57,100,0.1,770,0,36,_Guitar_1,-1,-1
45,100,0.2636363636363636,845,0,36,_Guitar_1,-1,-1
45,100,0.16818181818181818,38,1,37,_Guitar_1,-1,-1
45,100,0.29545454545454547,247,1,37,_Guitar_1,-1,-1
57,100,0.16363636363636364,342,0,37,_Guitar_1,-1,-1
45,100,0.21363636363636362,414,0,37,_Guitar_1,-1,-1
57,100,0.22727272727272727,480,0,37,_Guitar_1,-1,-1
45,100,0.29545454545454547,537,0,37,_Guitar_1,-1,-1
45,100,0.17727272727272728,613,0,37,_Guitar_1,-1,-1
64,100,0.29545454545454547,150,1,38,_Guitar_1,-1,-1
45,100,0.11363636363636363,280,0,38,_Guitar_1,-1,-1
59,100,0.2318181818181818,380,0,38,_Guitar_1,-1,-1
47,100,0.39545454545454545,453,0,38,_Guitar_1,-1,-1
59,100,0.1318181818181818,543,0,38,_Guitar_1,-1,-1
47,100,0.2318181818181818,598,0,38,_Guitar_1,-1,-1
59,100,0.1318181818181818,648,0,38,_Guitar_1,-1,-1
47,100,0.39545454545454545,678,0,38,_Guitar_1,-1,-1
59,100,0.32727272727272727,76,1,39,_Guitar_1,-1,-1
49,100,0.14545454545454545,533,1,39,_Guitar_1,-1,-1
61,100,0.12727272727272726,591,0,39,_Guitar_1,-1,-1
59,100,0.16363636363636364,692,0,39,_Guitar_1,-1,-1
49,100,0.2636363636363636,735,0,39,_Guitar_1,-1,-1
49,100,0.21363636363636362,18,1,40,_Guitar_1,-1,-1
49,100,0.11363636363636363,203,0,40,_Guitar_1,-1,-1
61,100,0.1,300,0,40,_Guitar_1,-1,-1
57,100,0.18181818181818182,445,0,40,_Guitar_1,-1,-1
59,100,0.16818181818181818,668,1,40,_Guitar_1,-1,-1
45,100,0.19545454545454546,796,0,40,_Guitar_1,-1,-1
57,100,0.14545454545454545,865,0,40,_Guitar_1,-1,-1
54,100,0.18181818181818182,155,1,41,_Guitar_1,-1,-1
57,100,0.19545454545454546,213,0,41,_Guitar_1,-1,-1
45,100,0.19545454545454546,440,1,41,_Guitar_1,-1,-1
54,100,0.2,577,0,41,_Guitar_1,-1,-1
47,100,0.1318181818181818,682,0,41,_Guitar_1,-1,-1
47,100,0.11818181818181818,719,0,41,_Guitar_1,-1,-1
47,100,0.2818181818181818,783,0,41,_Guitar_1,-1,-1
47,100,0.24545454545454545,48,1,42,_Guitar_1,-1,-1
47,100,0.29545454545454547,117,0,42,_Guitar_1,-1,-1
47,100,0.33181818181818185,190,0,42,_Guitar_1,-1,-1
47,100,0.2,428,1,42,_Guitar_1,-1,-1
59,100,0.1,657,1,42,_Guitar_1,-1,-1
40,100,0.6409090909090909,38,1,43,_Guitar_1,-1,-1
40,100,0.14545454545454545,190,0,43,_Guitar_1,-1,-1
52,100,0.11818181818181818,221,0,43,_Guitar_1,-1,-1
40,100,0.29545454545454547,247,0,43,_Guitar_1,-1,-1
52,100,0.1318181818181818,313,0,43,_Guitar_1,-1,-1
40,100,0.35909090909090907,342,0,43,_Guitar_1,-1,-1
40,100,0.5136363636363637,474,0,43,_Guitar_1,-1,-1
52,100,0.1318181818181818,588,0,43,_Guitar_1,-1,-1
40,100,0.39090909090909093,617,0,43,_Guitar_1,-1,-1
40,100,0.18181818181818182,714,0,43,_Guitar_1,-1,-1
40,100,0.09545454545454546,786,0,43,_Guitar_1,-1,-1
64,100,0.08181818181818182,833,0,43,_Guitar_1,-1,-1
40,100,0.22727272727272727,852,0,43,_Guitar_1,-1,-1
40,100,0.509090909090909,26,1,44,_Guitar_1,-1,-1
52,100,0.15,156,0,44,_Guitar_1,-1,-1
40,100,0.14545454545454545,188,0,44,_Guitar_1,-1,-1
64,100,0.11363636363636363,228,0,44,_Guitar_1,-1,-1
52,100,0.24545454545454545,265,0,44,_Guitar_1,-1,-1
64,100,0.1,318,0,44,_Guitar_1,-1,-1
52,100,0.21363636363636362,341,0,44,_Guitar_1,-1,-1
52,100,0.24545454545454545,391,0,44,_Guitar_1,-1,-1
52,100,0.15,536,0,44,_Guitar_1,-1,-1
57,100,0.2,600,0,44,_Guitar_1,-1,-1
64,100,0.1318181818181818,811,1,44,_Guitar_1,-1,-1
52,100,0.3,846,0,44,_Guitar_1,-1,-1
52,100,0.17727272727272728,308,1,45,_Guitar_1,-1,-1
47,100,0.29545454545454547,430,1,46,_Guitar_1,-1,-1
47,100,0.11363636363636363,535,0,46,_Guitar_1,-1,-1
59,100,0.36363636363636365,566,0,46,_Guitar_1,-1,-1
47,100,0.11818181818181818,653,0,46,_Guitar_1,-1,-1
47,100,0.39545454545454545,708,0,46,_Guitar_1,-1,-1
47,100,0.19545454545454546,810,0,46,_Guitar_1,-1,-1
40,100,0.15,874,0,46,_Guitar_1,-1,-1
52,100,0.14545454545454545,27,1,47,_Guitar_1,-1,-1
40,100,0.29545454545454547,60,0,47,_Guitar_1,-1,-1
40,100,0.33181818181818185,131,0,47,_Guitar_1,-1,-1
40,100,0.2772727272727273,215,0,47,_Guitar_1,-1,-1
40,100,0.5590909090909091,291,0,47,_Guitar_1,-1,-1
40,100,0.41363636363636364,418,0,47,_Guitar_1,-1,-1
40,100,0.1,529,0,47,_Guitar_1,-1,-1
40,100,0.18181818181818182,591,0,47,_Guitar_1,-1,-1
40,100,0.3090909090909091,776,0,47,_Guitar_1,-1,-1
40,100,0.2636363636363636,873,0,47,_Guitar_1,-1,-1
52,100,0.1318181818181818,74,1,48,_Guitar_1,-1,-1
40,100,0.1318181818181818,123,0,48,_Guitar_1,-1,-1
52,100,0.11363636363636363,435,1,48,_Guitar_1,-1,-1
52,100,0.12727272727272726,522,0,48,_Guitar_1,-1,-1
52,100,0.11363636363636363,584,0,48,_Guitar_1,-1,-1
52,100,0.11818181818181818,638,0,48,_Guitar_1,-1,-1
52,100,0.16363636363636364,710,0,48,_Guitar_1,-1,-1
64,100,0.1318181818181818,747,0,48,_Guitar_1,-1,-1
59,100,0.09545454545454546,852,0,48,_Guitar_1,-1,-1
47,100,0.2772727272727273,410,1,49,_Guitar_1,-1,-1
49,100,0.21363636363636362,625,1,50,_Guitar_1,-1,-1
61,100,0.2318181818181818,760,0,50,_Guitar_1,-1,-1
59,100,0.08181818181818182,528,1,51,_Guitar_1,-1,-1
64,100,0.18181818181818182,812,1,51,_Guitar_1,-1,-1
54,100,0.21363636363636362,77,1,52,_Guitar_1,-1,-1
64,100,0.09545454545454546,169,0,52,_Guitar_1,-1,-1
64,100,0.18181818181818182,233,0,52,_Guitar_1,-1,-1
40,100,0.5954545454545455,295,0,52,_Guitar_1,-1,-1
40,100,0.1318181818181818,458,0,52,_Guitar_1,-1,-1
40,100,0.32727272727272727,508,0,52,_Guitar_1,-1,-1
59,100,0.16818181818181818,605,0,52,_Guitar_1,-1,-1
40,100,0.34545454545454546,643,0,52,_Guitar_1,-1,-1
40,100,0.9181818181818182,736,0,52,_Guitar_1,-1,-1
40,100,0.5909090909090909,69,1,53,_Guitar_1,-1,-1
40,100,0.1318181818181818,211,0,53,_Guitar_1,-1,-1
59,100,0.15,261,0,53,_Guitar_1,-1,-1
40,100,0.12727272727272726,295,0,53,_Guitar_1,-1,-1
40,100,0.2318181818181818,363,0,53,_Guitar_1,-1,-1
40,100,0.3090909090909091,418,0,53,_Guitar_1,-1,-1
64,100,0.2818181818181818,638,1,53,_Guitar_1,-1,-1
57,100,0.24545454545454545,710,0,53,_Guitar_1,-1,-1
45,100,0.2636363636363636,790,0,53,_Guitar_1,-1,-1
47,100,0.21363636363636362,149,1,54,_Guitar_1,-1,-1
47,100,0.08181818181818182,235,0,54,_Guitar_1,-1,-1
47,100,0.2818181818181818,272,0,54,_Guitar_1,-1,-1
47,100,0.38181818181818183,343,0,54,_Guitar_1,-1,-1
47,100,0.31363636363636366,481,0,54,_Guitar_1,-1,-1
47,100,0.31363636363636366,554,0,54,_Guitar_1,-1,-1
47,100,0.18181818181818182,630,0,54,_Guitar_1,-1,-1
49,100,1.15,804,0,54,_Guitar_1,-1,-1
49,100,0.29545454545454547,185,1,55,_Guitar_1,-1,-1
49,100,0.25,357,0,55,_Guitar_1,-1,-1
49,100,0.34545454545454546,507,0,55,_Guitar_1,-1,-1
61,100,0.15,625,0,55,_Guitar_1,-1,-1
49,100,0.08181818181818182,691,0,55,_Guitar_1,-1,-1
61,100,0.15,767,0,55,_Guitar_1,-1,-1
49,100,0.31363636363636366,836,0,55,_Guitar_1,-1,-1
49,100,0.11818181818181818,34,1,56,_Guitar_1,-1,-1
52,100,0.1,274,1,56,_Guitar_1,-1,-1
45,100,0.1318181818181818,447,0,56,_Guitar_1,-1,-1
64,100,0.37727272727272726,528,0,56,_Guitar_1,-1,-1
59,100,0.08181818181818182,770,1,56,_Guitar_1,-1,-1
59,100,0.18181818181818182,791,0,56,_Guitar_1,-1,-1
47,100,0.12727272727272726,831,0,56,_Guitar_1,-1,-1
47,100,0.11818181818181818,8,1,57,_Guitar_1,-1,-1
47,100,0.16363636363636364,41,0,57,_Guitar_1,-1,-1
59,100,0.2818181818181818,96,0,57,_Guitar_1,-1,-1
59,100,0.08181818181818182,183,0,57,_Guitar_1,-1,-1
59,100,0.18181818181818182,240,0,57,_Guitar_1,-1,-1
59,100,0.11363636363636363,414,0,57,_Guitar_1,-1,-1
49,100,0.11363636363636363,480,0,57,_Guitar_1,-1,-1
49,100,0.38181818181818183,511,0,57,_Guitar_1,-1,-1
61,100,0.15,686,0,57,_Guitar_1,-1,-1
49,100,0.11818181818181818,740,0,57,_Guitar_1,-1,-1
49,100,0.29545454545454547,848,0,57,_Guitar_1,-1,-1
49,100,0.1318181818181818,62,1,58,_Guitar_1,-1,-1
56,100,0.1318181818181818,160,0,58,_Guitar_1,-1,-1
49,100,0.1,287,0,58,_Guitar_1,-1,-1
49,100,0.4636363636363636,323,0,58,_Guitar_1,-1,-1
49,100,0.1,472,0,58,_Guitar_1,-1,-1
56,100,0.16363636363636364,591,0,58,_Guitar_1,-1,-1
45,100,0.11818181818181818,14,1,59,_Guitar_1,-1,-1
52,100,0.11818181818181818,109,0,59,_Guitar_1,-1,-1
57,100,0.1,289,0,59,_Guitar_1,-1,-1
47,100,0.14545454545454545,387,0,59,_Guitar_1,-1,-1
47,100,0.29545454545454547,453,0,59,_Guitar_1,-1,-1
47,100,0.4954545454545455,529,0,59,_Guitar_1,-1,-1
49,100,0.32727272727272727,192,1,60,_Guitar_1,-1,-1
61,100,0.1318181818181818,281,0,60,_Guitar_1,-1,-1
49,100,0.08181818181818182,310,0,60,_Guitar_1,-1,-1
49,100,0.11818181818181818,376,0,60,_Guitar_1,-1,-1
61,100,0.2818181818181818,423,0,60,_Guitar_1,-1,-1
61,100,0.1,514,0,60,_Guitar_1,-1,-1
49,100,0.09545454545454546,536,0,60,_Guitar_1,-1,-1
61,100,0.14545454545454545,637,0,60,_Guitar_1,-1,-1
49,100,0.36363636363636365,767,0,60,_Guitar_1,-1,-1
49,100,0.15,9,1,61,_Guitar_1,-1,-1
49,100,0.35909090909090907,108,0,61,_Guitar_1,-1,-1
59,100,0.15,343,1,61,_Guitar_1,-1,-1
61,100,0.37727272727272726,469,0,61,_Guitar_1,-1,-1
61,100,0.1,658,0,61,_Guitar_1,-1,-1
54,100,0.21363636363636362,788,0,61,_Guitar_1,-1,-1
56,100,0.25,114,1,62,_Guitar_1,-1,-1
52,100,0.16363636363636364,776,1,62,_Guitar_1,-1,-1
59,100,0.15,845,0,62,_Guitar_1,-1,-1
64,100,0.19545454545454546,34,1,63,_Guitar_1,-1,-1
45,100,0.14545454545454545,114,0,63,_Guitar_1,-1,-1
40,100,0.1,243,0,63,_Guitar_1,-1,-1
47,100,0.15,486,1,63,_Guitar_1,-1,-1
59,100,0.08636363636363636,522,0,63,_Guitar_1,-1,-1
47,100,0.2318181818181818,714,0,63,_Guitar_1,-1,-1
47,100,0.18181818181818182,870,0,63,_Guitar_1,-1,-1
59,100,0.08181818181818182,72,1,64,_Guitar_1,-1,-1
47,100,0.2772727272727273,235,0,64,_Guitar_1,-1,-1
47,100,0.24545454545454545,456,1,64,_Guitar_1,-1,-1
59,100,0.15,518,0,64,_Guitar_1,-1,-1
64,100,0.11363636363636363,361,1,65,_Guitar_1,-1,-1
64,100,0.1318181818181818,398,0,65,_Guitar_1,-1,-1
59,100,0.38181818181818183,440,0,65,_Guitar_1,-1,-1
40,100,0.36363636363636365,592,0,65,_Guitar_1,-1,-1
52,100,0.11363636363636363,695,0,65,_Guitar_1,-1,-1
52,100,0.08181818181818182,744,0,65,_Guitar_1,-1,-1
52,100,0.09545454545454546,7,1,66,_Guitar_1,-1,-1
64,100,0.16363636363636364,162,0,66,_Guitar_1,-1,-1
52,100,0.39545454545454545,262,0,66,_Guitar_1,-1,-1
52,100,0.15,426,0,66,_Guitar_1,-1,-1
59,100,0.34545454545454546,477,0,66,_Guitar_1,-1,-1
47,100,0.4954545454545455,737,1,66,_Guitar_1,-1,-1
47,100,0.09545454545454546,64,1,67,_Guitar_1,-1,-1
47,100,0.09545454545454546,93,0,67,_Guitar_1,-1,-1
59,100,0.31363636363636366,182,0,67,_Guitar_1,-1,-1
47,100,0.16363636363636364,371,0,67,_Guitar_1,-1,-1
47,100,0.08636363636363636,530,0,67,_Guitar_1,-1,-1
59,100,0.15,628,0,67,_Guitar_1,-1,-1
59,100,0.2318181818181818,715,0,67,_Guitar_1,-1,-1
59,100,0.2318181818181818,769,0,67,_Guitar_1,-1,-1
64,100,0.2818181818181818,106,1,68,_Guitar_1,-1,-1
64,100,0.4090909090909091,247,0,68,_Guitar_1,-1,-1
64,100,0.4954545454545455,356,0,68,_Guitar_1,-1,-1
64,100,0.1318181818181818,685,1,68,_Guitar_1,-1,-1
64,100,0.16363636363636364,757,0,68,_Guitar_1,-1,-1
64,100,0.1,837,0,68,_Guitar_1,-1,-1
64,100,0.16363636363636364,170,1,69,_Guitar_1,-1,-1
64,100,0.11363636363636363,210,0,69,_Guitar_1,-1,-1
64,100,0.25,267,0,69,_Guitar_1,-1,-1
64,100,0.2,326,0,69,_Guitar_1,-1,-1
64,100,0.2636363636363636,376,0,69,_Guitar_1,-1,-1
59,100,0.08181818181818182,456,0,69,_Guitar_1,-1,-1
52,100,0.24545454545454545,616,0,69,_Guitar_1,-1,-1
52,100,0.1,716,0,69,_Guitar_1,-1,-1
59,100,0.14545454545454545,760,0,69,_Guitar_1,-1,-1
59,100,0.08636363636363636,817,0,69,_Guitar_1,-1,-1
47,100,0.2636363636363636,25,1,70,_Guitar_1,-1,-1
47,100,0.18181818181818182,212,0,70,_Guitar_1,-1,-1
47,100,0.5590909090909091,257,0,70,_Guitar_1,-1,-1
59,100,0.19545454545454546,536,1,70,_Guitar_1,-1,-1
64,100,0.18181818181818182,592,0,70,_Guitar_1,-1,-1
64,100,0.1,661,0,70,_Guitar_1,-1,-1
64,100,0.11818181818181818,698,0,70,_Guitar_1,-1,-1
52,100,0.2636363636363636,68,1,71,_Guitar_1,-1,-1
59,100,0.34545454545454546,143,0,71,_Guitar_1,-1,-1
59,100,0.08181818181818182,302,0,71,_Guitar_1,-1,-1
47,100,0.18181818181818182,320,0,71,_Guitar_1,-1,-1
59,100,0.2,426,0,71,_Guitar_1,-1,-1
59,100,0.18181818181818182,491,0,71,_Guitar_1,-1,-1
59,100,0.19545454545454546,541,0,71,_Guitar_1,-1,-1
59,100,0.08181818181818182,643,0,71,_Guitar_1,-1,-1
59,100,0.08181818181818182,723,0,71,_Guitar_1,-1,-1
47,100,0.14545454545454545,752,0,71,_Guitar_1,-1,-1
47,100,0.08636363636363636,812,0,71,_Guitar_1,-1,-1
64,100,0.29545454545454547,879,0,71,_Guitar_1,-1,-1
61,100,0.19545454545454546,216,1,72,_Guitar_1,-1,-1
49,100,0.25,511,1,72,_Guitar_1,-1,-1
49,100,0.2636363636363636,646,0,72,_Guitar_1,-1,-1
49,100,0.18181818181818182,755,0,72,_Guitar_1,-1,-1
59,100,0.2590909090909091,540,1,73,_Guitar_1,-1,-1
59,100,0.18181818181818182,131,1,74,_Guitar_1,-1,-1
59,100,0.16363636363636364,301,0,74,_Guitar_1,-1,-1
59,100,0.1318181818181818,343,0,74,_Guitar_1,-1,-1
59,100,0.21363636363636362,495,0,74,_Guitar_1,-1,-1
64,100,0.21363636363636362,808,1,74,_Guitar_1,-1,-1
59,100,0.18181818181818182,177,1,75,_Guitar_1,-1,-1
64,100,0.11818181818181818,252,0,75,_Guitar_1,-1,-1
47,100,0.3090909090909091,536,1,75,_Guitar_1,-1,-1
52,100,0.08181818181818182,630,0,75,_Guitar_1,-1,-1
64,100,0.08181818181818182,695,0,75,_Guitar_1,-1,-1
59,100,0.11363636363636363,742,0,75,_Guitar_1,-1,-1
59,100,0.19545454545454546,770,0,75,_Guitar_1,-1,-1
52,100,0.2318181818181818,825,0,75,_Guitar_1,-1,-1
64,100,0.1318181818181818,876,0,75,_Guitar_1,-1,-1
52,100,0.1318181818181818,27,1,76,_Guitar_1,-1,-1
64,100,0.18181818181818182,154,0,76,_Guitar_1,-1,-1
59,100,0.36363636363636365,595,1,76,_Guitar_1,-1,-1
59,100,0.18181818181818182,733,0,76,_Guitar_1,-1,-1
59,100,0.1318181818181818,38,1,77,_Guitar_1,-1,-1
59,100,0.19545454545454546,176,0,77,_Guitar_1,-1,-1
64,100,0.2318181818181818,374,1,77,_Guitar_1,-1,-1
64,100,0.11818181818181818,447,0,77,_Guitar_1,-1,-1
64,100,0.18181818181818182,620,0,77,_Guitar_1,-1,-1
49,100,0.16363636363636364,686,0,77,_Guitar_1,-1,-1
49,100,0.09545454545454546,38,1,78,_Guitar_1,-1,-1
49,100,0.1,117,0,78,_Guitar_1,-1,-1
64,100,0.1318181818181818,210,0,78,_Guitar_1,-1,-1
64,100,0.09545454545454546,359,0,78,_Guitar_1,-1,-1
52,100,0.09545454545454546,646,1,78,_Guitar_1,-1,-1
59,100,0.34545454545454546,247,1,79,_Guitar_1,-1,-1
59,100,0.2772727272727273,435,0,79,_Guitar_1,-1,-1
59,100,0.11363636363636363,745,1,79,_Guitar_1,-1,-1
49,100,0.2772727272727273,779,0,79,_Guitar_1,-1,-1
64,100,0.11363636363636363,11,1,80,_Guitar_1,-1,-1
64,100,0.11818181818181818,206,0,80,_Guitar_1,-1,-1
64,100,0.21818181818181817,288,0,80,_Guitar_1,-1,-1
49,100,0.39545454545454545,343,0,80,_Guitar_1,-1,-1
64,100,0.4772727272727273,478,0,80,_Guitar_1,-1,-1
64,100,0.21363636363636362,604,0,80,_Guitar_1,-1,-1
52,100,0.11818181818181818,650,0,80,_Guitar_1,-1,-1
64,100,0.17727272727272728,676,0,80,_Guitar_1,-1,-1
57,100,0.1,285,1,81,_Guitar_1,-1,-1
64,100,0.08181818181818182,527,1,81,_Guitar_1,-1,-1
52,100,0.29545454545454547,546,0,81,_Guitar_1,-1,-1
52,100,0.11818181818181818,632,0,81,_Guitar_1,-1,-1
59,100,0.08181818181818182,53,1,82,_Guitar_1,-1,-1
59,100,0.12727272727272726,74,0,82,_Guitar_1,-1,-1
47,100,0.29545454545454547,310,1,82,_Guitar_1,-1,-1
64,100,0.09545454545454546,632,1,82,_Guitar_1,-1,-1
59,100,0.1,780,0,82,_Guitar_1,-1,-1
64,100,0.16363636363636364,12,1,83,_Guitar_1,-1,-1
59,100,0.1,554,1,83,_Guitar_1,-1,-1
59,100,0.1318181818181818,700,0,83,_Guitar_1,-1,-1
59,100,0.1318181818181818,37,1,84,_Guitar_1,-1,-1
56,100,0.5590909090909091,439,1,84,_Guitar_1,-1,-1
59,100,0.11818181818181818,828,1,84,_Guitar_1,-1,-1
59,100,0.1318181818181818,126,1,85,_Guitar_1,-1,-1
47,100,0.15,159,0,85,_Guitar_1,-1,-1
59,100,0.11363636363636363,521,1,85,_Guitar_1,-1,-1
59,100,0.36363636363636365,744,1,85,_Guitar_1,-1,-1
47,100,0.31363636363636366,426,1,86,_Guitar_1,-1,-1
45,100,0.4590909090909091,783,1,87,_Guitar_1,-1,-1
59,100,0.5772727272727273,44,1,88,_Guitar_1,-1,-1
59,100,0.2636363636363636,186,0,88,_Guitar_1,-1,-1
47,100,0.16818181818181818,475,1,88,_Guitar_1,-1,-1
47,100,0.24545454545454545,536,0,88,_Guitar_1,-1,-1
47,100,0.18181818181818182,702,0,88,_Guitar_1,-1,-1
47,100,0.36363636363636365,872,0,88,_Guitar_1,-1,-1
49,100,0.4090909090909091,312,1,89,_Guitar_1,-1,-1
49,100,0.1318181818181818,416,0,89,_Guitar_1,-1,-1
59,100,0.21363636363636362,478,0,89,_Guitar_1,-1,-1
49,100,0.19545454545454546,691,1,89,_Guitar_1,-1,-1
49,100,0.2772727272727273,739,0,89,_Guitar_1,-1,-1
54,100,0.08181818181818182,386,1,90,_Guitar_1,-1,-1
49,100,0.4772727272727273,430,0,90,_Guitar_1,-1,-1
54,100,1.3954545454545455,553,0,90,_Guitar_1,-1,-1
56,100,0.1318181818181818,876,1,90,_Guitar_1,-1,-1
47,100,0.29545454545454547,108,1,91,_Guitar_1,-1,-1
47,100,0.09545454545454546,177,0,91,_Guitar_1,-1,-1
59,100,0.1,458,1,91,_Guitar_1,-1,-1
47,100,0.4909090909090909,517,0,91,_Guitar_1,-1,-1
49,100,0.08181818181818182,781,1,91,_Guitar_1,-1,-1
49,100,0.16363636363636364,802,0,91,_Guitar_1,-1,-1
59,100,0.15,161,1,92,_Guitar_1,-1,-1
49,100,0.11363636363636363,620,1,92,_Guitar_1,-1,-1
64,100,0.9545454545454546,692,0,92,_Guitar_1,-1,-1
52,100,0.16363636363636364,110,1,93,_Guitar_1,-1,-1
59,100,0.2318181818181818,550,1,93,_Guitar_1,-1,-1
47,100,0.37727272727272726,677,0,93,_Guitar_1,-1,-1
59,100,0.2636363636363636,765,0,93,_Guitar_1,-1,-1
59,100,0.08181818181818182,278,1,94,_Guitar_1,-1,-1
64,100,0.15,558,1,94,_Guitar_1,-1,-1
64,100,0.35909090909090907,673,0,94,_Guitar_1,-1,-1
64,100,0.24545454545454545,822,0,94,_Guitar_1,-1,-1
64,100,0.35909090909090907,220,1,95,_Guitar_1,-1,-1
64,100,0.16363636363636364,307,0,95,_Guitar_1,-1,-1
64,100,0.2818181818181818,365,0,95,_Guitar_1,-1,-1
64,100,0.08181818181818182,452,0,95,_Guitar_1,-1,-1
64,100,0.08181818181818182,509,0,95,_Guitar_1,-1,-1
59,100,0.18181818181818182,538,0,95,_Guitar_1,-1,-1
54,100,0.11818181818181818,879,1,95,_Guitar_1,-1,-1
59,100,0.34545454545454546,220,1,96,_Guitar_1,-1,-1
59,100,0.24545454545454545,300,0,96,_Guitar_1,-1,-1
47,100,0.3090909090909091,357,0,96,_Guitar_1,-1,-1
47,100,0.08181818181818182,443,0,96,_Guitar_1,-1,-1
47,100,0.09545454545454546,481,0,96,_Guitar_1,-1,-1
59,100,0.08181818181818182,781,1,96,_Guitar_1,-1,-1
59,100,0.31363636363636366,132,1,97,_Guitar_1,-1,-1
64,100,0.19545454545454546,227,0,97,_Guitar_1,-1,-1
59,100,0.2772727272727273,349,0,97,_Guitar_1,-1,-1
52,100,0.17727272727272728,443,0,97,_Guitar_1,-1,-1
64,100,0.11363636363636363,577,0,97,_Guitar_1,-1,-1
40,100,0.15,743,0,97,_Guitar_1,-1,-1
40,100,0.24545454545454545,791,0,97,_Guitar_1,-1,-1
59,100,0.21363636363636362,500,1,98,_Guitar_1,-1,-1
52,100,0.2,648,0,98,_Guitar_1,-1,-1
59,100,0.21363636363636362,769,0,98,_Guitar_1,-1,-1
59,100,0.18181818181818182,72,1,99,_Guitar_1,-1,-1
47,100,0.11363636363636363,164,0,99,_Guitar_1,-1,-1
59,100,0.11363636363636363,330,0,99,_Guitar_1,-1,-1
59,100,0.08181818181818182,376,0,99,_Guitar_1,-1,-1
59,100,0.35909090909090907,398,0,99,_Guitar_1,-1,-1
64,100,0.19545454545454546,768,1,99,_Guitar_1,-1,-1
64,100,0.1318181818181818,837,0,99,_Guitar_1,-1,-1
49,100,0.2636363636363636,105,1,100,_Guitar_1,-1,-1
59,100,0.2636363636363636,326,1,100,_Guitar_1,-1,-1
64,100,0.14545454545454545,390,0,100,_Guitar_1,-1,-1
64,100,0.29545454545454547,527,0,100,_Guitar_1,-1,-1
64,100,0.18181818181818182,621,0,100,_Guitar_1,-1,-1
59,100,0.16363636363636364,861,1,100,_Guitar_1,-1,-1
59,100,0.16363636363636364,27,1,101,_Guitar_1,-1,-1
59,100,0.21363636363636362,462,1,101,_Guitar_1,-1,-1
64,100,0.1318181818181818,792,1,101,_Guitar_1,-1,-1
64,100,0.21363636363636362,832,0,101,_Guitar_1,-1,-1
59,100,0.08181818181818182,1,1,102,_Guitar_1,-1,-1
59,100,0.21363636363636362,27,0,102,_Guitar_1,-1,-1
59,100,0.17727272727272728,320,1,102,_Guitar_1,-1,-1
59,100,0.1,374,0,102,_Guitar_1,-1,-1
59,100,0.08181818181818182,451,0,102,_Guitar_1,-1,-1
59,100,0.4772727272727273,472,0,102,_Guitar_1,-1,-1
59,100,0.2318181818181818,599,0,102,_Guitar_1,-1,-1
59,100,0.16363636363636364,826,1,102,_Guitar_1,-1,-1
47,100,0.16363636363636364,63,1,103,_Guitar_1,-1,-1
47,100,0.16363636363636364,239,0,103,_Guitar_1,-1,-1
47,100,0.2,410,0,103,_Guitar_1,-1,-1
59,100,0.5454545454545454,685,1,103,_Guitar_1,-1,-1
59,100,0.4409090909090909,844,0,103,_Guitar_1,-1,-1
54,100,0.5227272727272727,258,1,104,_Guitar_1,-1,-1
47,100,0.6727272727272727,562,1,104,_Guitar_1,-1,-1
59,100,1.2181818181818183,679,1,105,_Guitar_1,-1,-1
47,100,0.1318181818181818,74,1,106,_Guitar_1,-1,-1
59,100,0.1,133,0,106,_Guitar_1,-1,-1
52,100,1.5954545454545455,173,0,106,_Guitar_1,-1,-1
52,100,0.1318181818181818,552,1,106,_Guitar_1,-1,-1
52,100,0.11363636363636363,687,0,106,_Guitar_1,-1,-1
47,100,2.1227272727272726,752,0,106,_Guitar_1,-1,-1
59,100,0.08181818181818182,353,1,107,_Guitar_1,-1,-1
47,100,0.25,371,0,107,_Guitar_1,-1,-1
49,100,1.268181818181818,447,0,107,_Guitar_1,-1,-1
64,100,0.5590909090909091,834,1,107,_Guitar_1,-1,-1
64,100,0.11363636363636363,121,1,108,_Guitar_1,-1,-1
45,100,0.6454545454545455,152,0,108,_Guitar_1,-1,-1
64,100,0.29545454545454547,302,0,108,_Guitar_1,-1,-1
59,100,0.16818181818181818,381,0,108,_Guitar_1,-1,-1
64,100,0.36363636363636365,642,1,108,_Guitar_1,-1,-1
52,100,1.0681818181818181,722,0,108,_Guitar_1,-1,-1
40,100,0.16363636363636364,91,1,109,_Guitar_1,-1,-1
52,100,0.25,126,0,109,_Guitar_1,-1,-1
47,100,2.0545454545454547,427,1,109,_Guitar_1,-1,-1
47,100,0.4590909090909091,22,1,110,_Guitar_1,-1,-1
52,100,0.22727272727272727,337,1,110,_Guitar_1,-1,-1
47,100,0.16818181818181818,698,1,110,_Guitar_1,-1,-1
59,100,0.09545454545454546,742,0,110,_Guitar_1,-1,-1
47,100,0.1318181818181818,799,0,110,_Guitar_1,-1,-1
47,100,0.16818181818181818,16,1,111,_Guitar_1,-1,-1
47,100,0.42727272727272725,122,0,111,_Guitar_1,-1,-1
47,100,0.11363636363636363,357,1,111,_Guitar_1,-1,-1
47,100,0.11818181818181818,502,0,111,_Guitar_1,-1,-1
47,100,0.15,606,0,111,_Guitar_1,-1,-1
64,100,0.5590909090909091,650,0,111,_Guitar_1,-1,-1
64,100,0.11818181818181818,777,0,111,_Guitar_1,-1,-1
47,100,0.6227272727272727,802,0,111,_Guitar_1,-1,-1
59,100,0.24545454545454545,551,1,112,_Guitar_1,-1,-1
52,100,0.29545454545454547,755,1,112,_Guitar_1,-1,-1
40,100,0.09545454545454546,870,0,112,_Guitar_1,-1,-1
59,100,0.18181818181818182,81,1,113,_Guitar_1,-1,-1
59,100,0.11818181818181818,123,0,113,_Guitar_1,-1,-1
56,100,0.11363636363636363,261,0,113,_Guitar_1,-1,-1
56,100,0.1318181818181818,319,0,113,_Guitar_1,-1,-1
57,100,0.37727272727272726,471,0,113,_Guitar_1,-1,-1
57,100,0.2818181818181818,597,0,113,_Guitar_1,-1,-1
52,100,0.18181818181818182,235,1,114,_Guitar_1,-1,-1
57,100,0.14545454545454545,370,0,114,_Guitar_1,-1,-1
57,100,0.34545454545454546,435,0,114,_Guitar_1,-1,-1
59,100,0.2318181818181818,528,0,114,_Guitar_1,-1,-1
59,100,0.1318181818181818,734,1,114,_Guitar_1,-1,-1
59,100,0.1,768,0,114,_Guitar_1,-1,-1
52,100,0.1,828,0,114,_Guitar_1,-1,-1
64,100,0.08181818181818182,876,0,114,_Guitar_1,-1,-1
52,100,0.09545454545454546,51,1,115,_Guitar_1,-1,-1
52,100,0.5727272727272728,203,0,115,_Guitar_1,-1,-1
56,100,0.19545454545454546,361,0,115,_Guitar_1,-1,-1
59,100,0.15,796,1,115,_Guitar_1,-1,-1
45,100,0.16818181818181818,168,1,116,_Guitar_1,-1,-1
52,100,0.37727272727272726,282,0,116,_Guitar_1,-1,-1
52,100,0.11363636363636363,375,0,116,_Guitar_1,-1,-1
57,100,0.08181818181818182,443,0,116,_Guitar_1,-1,-1
45,100,0.2772727272727273,563,0,116,_Guitar_1,-1,-1
59,100,0.34545454545454546,5,1,117,_Guitar_1,-1,-1
45,100,0.33181818181818185,190,0,117,_Guitar_1,-1,-1
52,100,0.08636363636363636,377,0,117,_Guitar_1,-1,-1
52,100,0.08181818181818182,465,0,117,_Guitar_1,-1,-1
52,100,0.6227272727272727,502,0,117,_Guitar_1,-1,-1
52,100,0.11363636363636363,657,0,117,_Guitar_1,-1,-1
52,100,0.1,780,0,117,_Guitar_1,-1,-1
52,100,0.19545454545454546,860,0,117,_Guitar_1,-1,-1
40,100,0.21363636363636362,23,1,118,_Guitar_1,-1,-1
52,100,0.31363636363636366,73,0,118,_Guitar_1,-1,-1
40,100,0.15,186,0,118,_Guitar_1,-1,-1
47,100,0.08181818181818182,279,0,118,_Guitar_1,-1,-1
47,100,0.08181818181818182,377,0,118,_Guitar_1,-1,-1
64,100,0.08181818181818182,396,0,118,_Guitar_1,-1,-1
52,100,0.11363636363636363,765,1,118,_Guitar_1,-1,-1
44,100,0.1,197,1,6,_Guitar,-1,-1
58,100,0.17727272727272728,273,0,6,_Guitar,-1,-1
44,100,0.32272727272727275,421,0,6,_Guitar,-1,-1
58,100,0.13636363636363635,590,0,6,_Guitar,-1,-1
44,100,0.21818181818181817,647,0,6,_Guitar,-1,-1
58,100,0.2,40,1,7,_Guitar,-1,-1
56,100,0.12272727272727273,268,1,7,_Guitar,-1,-1
58,100,0.5181818181818182,360,0,7,_Guitar,-1,-1
44,100,0.11818181818181818,514,0,7,_Guitar,-1,-1
44,100,0.12272727272727273,554,0,7,_Guitar,-1,-1
44,100,0.12272727272727273,598,0,7,_Guitar,-1,-1
58,100,0.1409090909090909,685,0,7,_Guitar,-1,-1
43,100,0.1,65,1,8,_Guitar,-1,-1
58,100,0.2590909090909091,123,0,8,_Guitar,-1,-1
58,100,0.3181818181818182,440,1,8,_Guitar,-1,-1
58,100,0.5409090909090909,752,1,8,_Guitar,-1,-1
44,100,0.22272727272727272,123,1,9,_Guitar,-1,-1
58,100,0.6181818181818182,185,0,9,_Guitar,-1,-1
44,100,0.3409090909090909,355,0,9,_Guitar,-1,-1
58,100,0.5,524,0,9,_Guitar,-1,-1
58,100,0.18181818181818182,857,1,9,_Guitar,-1,-1
58,100,0.1,25,1,10,_Guitar,-1,-1
58,100,0.5227272727272727,290,1,10,_Guitar,-1,-1
44,100,0.11818181818181818,527,1,10,_Guitar,-1,-1
44,100,0.11818181818181818,558,0,10,_Guitar,-1,-1
58,100,0.5,625,0,10,_Guitar,-1,-1
58,100,0.11818181818181818,53,1,11,_Guitar,-1,-1
58,100,0.6,374,1,11,_Guitar,-1,-1
58,100,0.5590909090909091,682,1,11,_Guitar,-1,-1
44,100,0.6409090909090909,845,0,11,_Guitar,-1,-1
44,100,0.1,197,1,12,_Guitar,-1,-1
46,100,0.32272727272727275,642,1,12,_Guitar,-1,-1
46,100,0.11818181818181818,725,0,12,_Guitar,-1,-1
58,100,0.38181818181818183,792,0,12,_Guitar,-1,-1
44,100,0.21818181818181817,61,1,13,_Guitar,-1,-1
56,100,0.18181818181818182,135,0,13,_Guitar,-1,-1
58,100,0.5772727272727273,216,0,13,_Guitar,-1,-1
44,100,0.1,426,1,13,_Guitar,-1,-1
44,100,0.11818181818181818,457,0,13,_Guitar,-1,-1
44,100,0.12272727272727273,488,0,13,_Guitar,-1,-1
58,100,0.5181818181818182,550,0,13,_Guitar,-1,-1
58,100,0.3409090909090909,871,1,13,_Guitar,-1,-1
58,100,0.1,312,1,14,_Guitar,-1,-1
58,100,0.21818181818181817,338,0,14,_Guitar,-1,-1
43,100,0.1409090909090909,493,0,14,_Guitar,-1,-1
43,100,0.12272727272727273,575,0,14,_Guitar,-1,-1
58,100,0.2818181818181818,637,0,14,_Guitar,-1,-1
63,100,0.18181818181818182,817,1,74,_Guitar,-1,-1
55,100,0.11818181818181818,457,1,75,_Guitar,-1,-1
63,100,0.12272727272727273,597,0,75,_Guitar,-1,-1
63,100,0.2818181818181818,637,0,75,_Guitar,-1,-1
63,100,0.2409090909090909,729,0,75,_Guitar,-1,-1
55,100,0.1,17,1,77,_Guitar,-1,-1
63,100,0.8409090909090909,163,0,77,_Guitar,-1,-1
63,100,0.18181818181818182,352,0,77,_Guitar,-1,-1
56,100,0.2,669,1,77,_Guitar,-1,-1
44,100,0.5590909090909091,734,0,77,_Guitar,-1,-1
63,100,0.4,857,0,77,_Guitar,-1,-1
44,100,0.4409090909090909,92,1,78,_Guitar,-1,-1
56,100,0.2590909090909091,189,0,78,_Guitar,-1,-1
44,100,0.21818181818181817,273,0,78,_Guitar,-1,-1
55,100,0.1409090909090909,426,0,78,_Guitar,-1,-1
58,100,0.3181818181818182,660,1,78,_Guitar,-1,-1
58,100,0.1409090909090909,294,1,79,_Guitar,-1,-1
58,100,0.2,360,0,79,_Guitar,-1,-1
58,100,0.2,514,0,79,_Guitar,-1,-1
63,100,1.3,9,1,80,_Guitar,-1,-1
58,100,0.12272727272727273,299,1,80,_Guitar,-1,-1
63,100,0.6590909090909091,343,0,80,_Guitar,-1,-1
53,100,1.7227272727272727,663,1,80,_Guitar,-1,-1
63,100,0.2,527,1,81,_Guitar,-1,-1
44,100,0.1409090909090909,686,0,81,_Guitar,-1,-1
56,100,0.3181818181818182,743,0,81,_Guitar,-1,-1
58,100,0.42272727272727273,826,0,81,_Guitar,-1,-1
58,100,0.18181818181818182,56,1,82,_Guitar,-1,-1
53,100,0.4,286,1,82,_Guitar,-1,-1
58,100,0.18181818181818182,399,1,83,_Guitar,-1,-1
55,100,0.1409090909090909,619,1,83,_Guitar,-1,-1
55,100,0.11818181818181818,690,0,83,_Guitar,-1,-1
58,100,0.21818181818181817,83,1,84,_Guitar,-1,-1
58,100,0.6818181818181818,197,0,84,_Guitar,-1,-1
55,100,0.2,373,0,84,_Guitar,-1,-1
58,100,0.1409090909090909,422,0,84,_Guitar,-1,-1
58,100,0.1,567,0,84,_Guitar,-1,-1
58,100,0.18181818181818182,312,1,85,_Guitar,-1,-1
58,100,0.3,462,0,85,_Guitar,-1,-1
55,100,0.1590909090909091,536,0,85,_Guitar,-1,-1
58,100,0.21818181818181817,703,0,85,_Guitar,-1,-1
58,100,0.2590909090909091,74,1,86,_Guitar,-1,-1
55,100,0.12272727272727273,509,1,86,_Guitar,-1,-1
63,100,0.21818181818181817,550,0,86,_Guitar,-1,-1
58,100,0.13636363636363635,876,1,86,_Guitar,-1,-1
55,100,0.17727272727272728,119,1,87,_Guitar,-1,-1
55,100,0.17727272727272728,184,0,87,_Guitar,-1,-1
58,100,0.18181818181818182,399,1,87,_Guitar,-1,-1
58,100,0.5,66,1,88,_Guitar,-1,-1
62,100,0.21818181818181817,176,0,88,_Guitar,-1,-1
58,100,0.2772727272727273,237,0,88,_Guitar,-1,-1
58,100,0.1590909090909091,409,0,88,_Guitar,-1,-1
55,100,0.12272727272727273,475,0,88,_Guitar,-1,-1
58,100,0.2,650,0,88,_Guitar,-1,-1
58,100,0.13636363636363635,106,1,89,_Guitar,-1,-1
53,100,0.5818181818181818,532,1,0,_Guitar,-1,-1
41,100,0.21818181818181817,660,0,0,_Guitar,-1,-1
55,100,0.17727272727272728,722,0,0,_Guitar,-1,-1
53,100,0.3409090909090909,783,0,0,_Guitar,-1,-1
55,100,0.2409090909090909,47,1,1,_Guitar,-1,-1
50,100,0.5636363636363636,180,0,1,_Guitar,-1,-1
50,100,0.5409090909090909,444,1,1,_Guitar,-1,-1
60,100,0.2818181818181818,571,0,1,_Guitar,-1,-1
48,100,0.12272727272727273,642,0,1,_Guitar,-1,-1
43,100,0.2,849,1,1,_Guitar,-1,-1
43,100,0.2409090909090909,91,1,2,_Guitar,-1,-1
53,100,0.32272727272727275,144,0,2,_Guitar,-1,-1
53,100,0.3,272,0,2,_Guitar,-1,-1
48,100,0.5636363636363636,356,0,2,_Guitar,-1,-1
48,100,0.3181818181818182,483,0,2,_Guitar,-1,-1
48,100,0.3,611,0,2,_Guitar,-1,-1
48,100,0.11818181818181818,743,0,2,_Guitar,-1,-1
53,100,0.4,3,1,3,_Guitar,-1,-1
41,100,0.17727272727272728,140,0,3,_Guitar,-1,-1
55,100,0.2,189,0,3,_Guitar,-1,-1
53,100,0.5590909090909091,259,0,3,_Guitar,-1,-1
50,100,0.6590909090909091,523,1,3,_Guitar,-1,-1
50,100,0.18181818181818182,672,0,3,_Guitar,-1,-1
60,100,0.1409090909090909,717,0,3,_Guitar,-1,-1
60,100,0.1409090909090909,761,0,3,_Guitar,-1,-1
50,100,0.4818181818181818,804,0,3,_Guitar,-1,-1
43,100,0.2,448,1,4,_Guitar,-1,-1
53,100,0.1590909090909091,496,0,4,_Guitar,-1,-1
53,100,0.22272727272727272,642,0,4,_Guitar,-1,-1
48,100,0.8409090909090909,713,0,4,_Guitar,-1,-1
55,100,0.41818181818181815,352,1,5,_Guitar,-1,-1
53,100,0.6227272727272727,465,0,5,_Guitar,-1,-1
53,100,0.2409090909090909,637,0,5,_Guitar,-1,-1
53,100,0.1,695,0,5,_Guitar,-1,-1
55,100,0.2772727272727273,810,0,5,_Guitar,-1,-1
50,100,0.35909090909090907,875,0,5,_Guitar,-1,-1
50,100,0.5818181818181818,79,1,6,_Guitar,-1,-1
50,100,0.5227272727272727,211,0,6,_Guitar,-1,-1
60,100,0.1,493,1,6,_Guitar,-1,-1
60,100,0.13636363636363635,721,1,6,_Guitar,-1,-1
53,100,0.2590909090909091,35,1,7,_Guitar,-1,-1
48,100,0.5818181818181818,176,0,7,_Guitar,-1,-1
48,100,0.2818181818181818,311,0,7,_Guitar,-1,-1
48,100,0.11818181818181818,448,0,7,_Guitar,-1,-1
48,100,0.11818181818181818,480,0,7,_Guitar,-1,-1
48,100,0.2636363636363636,532,0,7,_Guitar,-1,-1
60,100,0.1,619,0,7,_Guitar,-1,-1
53,100,0.9,700,0,7,_Guitar,-1,-1
53,100,0.5818181818181818,87,1,8,_Guitar,-1,-1
55,100,0.3,285,0,8,_Guitar,-1,-1
50,100,0.5409090909090909,470,0,8,_Guitar,-1,-1
50,100,0.2818181818181818,620,0,8,_Guitar,-1,-1
55,100,0.2409090909090909,804,0,8,_Guitar,-1,-1
43,100,0.18181818181818182,87,1,9,_Guitar,-1,-1
53,100,0.21818181818181817,127,0,9,_Guitar,-1,-1
43,100,0.3,254,0,9,_Guitar,-1,-1
53,100,0.3181818181818182,326,0,9,_Guitar,-1,-1
53,100,0.3,443,0,9,_Guitar,-1,-1
48,100,0.5818181818181818,532,0,9,_Guitar,-1,-1
48,100,0.21818181818181817,668,0,9,_Guitar,-1,-1
48,100,0.6590909090909091,792,0,9,_Guitar,-1,-1
60,100,0.2,369,1,10,_Guitar,-1,-1
53,100,0.3181818181818182,436,0,10,_Guitar,-1,-1
55,100,0.5181818181818182,505,0,10,_Guitar,-1,-1
55,100,0.37727272727272726,625,0,10,_Guitar,-1,-1
50,100,0.2818181818181818,826,1,10,_Guitar,-1,-1
50,100,0.2818181818181818,87,1,11,_Guitar,-1,-1
55,100,0.6,158,0,11,_Guitar,-1,-1
55,100,0.12272727272727273,343,0,11,_Guitar,-1,-1
43,100,0.13636363636363635,369,0,11,_Guitar,-1,-1
55,100,0.32272727272727275,409,0,11,_Guitar,-1,-1
60,100,0.2818181818181818,541,0,11,_Guitar,-1,-1
60,100,0.1590909090909091,629,0,11,_Guitar,-1,-1
55,100,0.3181818181818182,677,0,11,_Guitar,-1,-1
48,100,0.6772727272727272,876,1,11,_Guitar,-1,-1
48,100,0.3,189,1,12,_Guitar,-1,-1
60,100,0.13636363636363635,391,1,12,_Guitar,-1,-1
60,100,0.17727272727272728,426,0,12,_Guitar,-1,-1
55,100,0.1409090909090909,515,0,12,_Guitar,-1,-1
55,100,0.6590909090909091,572,0,12,_Guitar,-1,-1
53,100,0.35909090909090907,770,0,12,_Guitar,-1,-1
55,100,0.35909090909090907,854,0,12,_Guitar,-1,-1
50,100,0.9,171,1,13,_Guitar,-1,-1
50,100,0.3181818181818182,436,1,13,_Guitar,-1,-1
55,100,0.1409090909090909,101,1,14,_Guitar,-1,-1
55,100,0.8590909090909091,149,0,14,_Guitar,-1,-1
60,100,2.081818181818182,343,0,14,_Guitar,-1,-1
53,100,0.17727272727272728,810,1,25,_Guitar,-1,-1
53,100,0.17727272727272728,853,0,25,_Guitar,-1,-1
53,100,0.13636363636363635,17,1,26,_Guitar,-1,-1
53,100,0.1,839,1,27,_Guitar,-1,-1
53,100,0.1409090909090909,9,1,28,_Guitar,-1,-1
53,100,0.3,61,0,28,_Guitar,-1,-1
53,100,0.5590909090909091,144,0,28,_Guitar,-1,-1
53,100,0.8227272727272728,277,0,28,_Guitar,-1,-1
53,100,1.3227272727272728,466,0,28,_Guitar,-1,-1
53,100,0.7636363636363637,443,1,29,_Guitar,-1,-1
53,100,0.11818181818181818,615,0,29,_Guitar,-1,-1
50,100,0.5818181818181818,4,1,45,_Guitar,-1,-1
57,100,0.23636363636363636,150,0,45,_Guitar,-1,-1
60,100,0.6,201,0,45,_Guitar,-1,-1
50,100,0.2,619,1,45,_Guitar,-1,-1
50,100,0.4772727272727273,668,0,45,_Guitar,-1,-1
60,100,0.18181818181818182,791,0,45,_Guitar,-1,-1
57,100,0.1590909090909091,875,0,45,_Guitar,-1,-1
57,100,0.4,53,1,46,_Guitar,-1,-1
48,100,0.7818181818181819,176,0,46,_Guitar,-1,-1
48,100,0.7636363636363637,378,1,46,_Guitar,-1,-1
48,100,0.1409090909090909,75,1,47,_Guitar,-1,-1
48,100,0.18181818181818182,110,0,47,_Guitar,-1,-1
46,100,0.5818181818181818,351,1,47,_Guitar,-1,-1
46,100,0.11818181818181818,625,1,47,_Guitar,-1,-1
50,100,0.6,748,0,47,_Guitar,-1,-1
60,100,0.4590909090909091,721,1,48,_Guitar,-1,-1
60,100,0.4,370,1,49,_Guitar,-1,-1
60,100,0.18181818181818182,474,0,49,_Guitar,-1,-1
55,100,0.11818181818181818,691,1,49,_Guitar,-1,-1
43,100,0.2590909090909091,716,0,49,_Guitar,-1,-1
55,100,0.2818181818181818,179,1,50,_Guitar,-1,-1
55,100,0.1409090909090909,246,0,50,_Guitar,-1,-1
50,100,0.6590909090909091,418,0,50,_Guitar,-1,-1
55,100,0.1409090909090909,686,1,50,_Guitar,-1,-1
45,100,0.3,88,1,51,_Guitar,-1,-1
60,100,0.5590909090909091,198,0,51,_Guitar,-1,-1
60,100,0.2409090909090909,756,1,51,_Guitar,-1,-1
50,100,0.1,153,1,52,_Guitar,-1,-1
41,100,0.4772727272727273,273,0,52,_Guitar,-1,-1
60,100,0.5636363636363636,378,0,52,_Guitar,-1,-1
60,100,0.2818181818181818,21,1,53,_Guitar,-1,-1
48,100,0.12272727272727273,114,0,53,_Guitar,-1,-1
55,100,1.0227272727272727,144,0,53,_Guitar,-1,-1
60,100,0.4590909090909091,558,1,53,_Guitar,-1,-1
55,100,0.17727272727272728,678,0,53,_Guitar,-1,-1
55,100,0.6409090909090909,726,0,53,_Guitar,-1,-1
40,100,0.12272727272727273,48,1,54,_Guitar,-1,-1
40,100,0.18181818181818182,88,0,54,_Guitar,-1,-1
40,100,0.2590909090909091,131,0,54,_Guitar,-1,-1
60,100,0.5818181818181818,198,0,54,_Guitar,-1,-1
55,100,0.33636363636363636,325,0,54,_Guitar,-1,-1
55,100,0.2818181818181818,431,0,54,_Guitar,-1,-1
60,100,0.5,721,1,54,_Guitar,-1,-1
48,100,1.4772727272727273,171,1,55,_Guitar,-1,-1
55,100,0.4,716,1,55,_Guitar,-1,-1
57,100,0.6181818181818182,875,1,62,_Guitar,-1,-1
60,100,0.6409090909090909,188,1,63,_Guitar,-1,-1
57,100,0.3409090909090909,334,0,63,_Guitar,-1,-1
60,100,0.6590909090909091,716,1,63,_Guitar,-1,-1
60,100,0.4,13,1,64,_Guitar,-1,-1
55,100,0.2772727272727273,106,0,64,_Guitar,-1,-1
57,100,0.2409090909090909,179,0,64,_Guitar,-1,-1
60,100,0.6227272727272727,365,0,64,_Guitar,-1,-1
60,100,0.1590909090909091,546,0,64,_Guitar,-1,-1
55,100,0.37727272727272726,612,0,64,_Guitar,-1,-1
55,100,0.42272727272727273,760,0,64,_Guitar,-1,-1
55,100,0.1,866,0,64,_Guitar,-1,-1
60,100,0.6409090909090909,22,1,65,_Guitar,-1,-1
55,100,0.6818181818181818,197,0,65,_Guitar,-1,-1
60,100,0.6590909090909091,540,1,65,_Guitar,-1,-1
57,100,0.5409090909090909,686,0,65,_Guitar,-1,-1
41,100,0.1590909090909091,823,0,65,_Guitar,-1,-1
59,100,0.6409090909090909,47,1,66,_Guitar,-1,-1
60,100,1.540909090909091,189,0,66,_Guitar,-1,-1
45,100,0.3409090909090909,650,1,66,_Guitar,-1,-1
45,100,0.2409090909090909,796,0,66,_Guitar,-1,-1
55,100,0.5818181818181818,870,0,66,_Guitar,-1,-1
55,100,0.11818181818181818,153,1,67,_Guitar,-1,-1
55,100,0.1590909090909091,233,0,67,_Guitar,-1,-1
60,100,0.33636363636363636,370,0,67,_Guitar,-1,-1
55,100,0.8772727272727273,502,0,67,_Guitar,-1,-1
53,100,0.22272727272727272,805,1,67,_Guitar,-1,-1
60,100,0.8772727272727273,9,1,68,_Guitar,-1,-1
57,100,0.38181818181818183,202,0,68,_Guitar,-1,-1
53,100,0.2409090909090909,294,0,68,_Guitar,-1,-1
60,100,1.0,540,1,68,_Guitar,-1,-1
59,100,0.17727272727272728,779,1,68,_Guitar,-1,-1
59,100,0.1409090909090909,100,1,69,_Guitar,-1,-1
60,100,0.6,189,0,69,_Guitar,-1,-1
55,100,0.9,339,0,69,_Guitar,-1,-1
60,100,0.5409090909090909,726,1,69,_Guitar,-1,-1
55,100,0.8590909090909091,866,0,69,_Guitar,-1,-1
57,100,0.2,184,1,70,_Guitar,-1,-1
60,100,0.37727272727272726,360,0,70,_Guitar,-1,-1
57,100,0.16363636363636364,443,0,70,_Guitar,-1,-1
60,100,0.11818181818181818,483,0,70,_Guitar,-1,-1
57,100,0.2,519,0,70,_Guitar,-1,-1
53,100,0.1590909090909091,580,0,70,_Guitar,-1,-1
59,100,0.5227272727272727,773,0,70,_Guitar,-1,-1
60,100,1.1,13,1,71,_Guitar,-1,-1
55,100,0.759090909090909,365,1,71,_Guitar,-1,-1
60,100,0.5818181818181818,540,0,71,_Guitar,-1,-1
55,100,0.2590909090909091,682,0,71,_Guitar,-1,-1
43,100,0.2590909090909091,747,0,71,_Guitar,-1,-1
55,100,1.981818181818182,870,0,71,_Guitar,-1,-1
43,100,0.1409090909090909,426,1,72,_Guitar,-1,-1
52,100,0.2409090909090909,528,1,0,DL_Guitar,-1,-1
52,100,0.3,660,0,0,DL_Guitar,-1,-1
52,100,0.42272727272727273,761,0,0,DL_Guitar,-1,-1
64,100,0.16363636363636364,4,1,1,DL_Guitar,-1,-1
49,100,0.4,224,1,1,DL_Guitar,-1,-1
49,100,0.2409090909090909,377,0,1,DL_Guitar,-1,-1
50,100,0.11818181818181818,528,0,1,DL_Guitar,-1,-1
52,100,0.17727272727272728,229,1,2,DL_Guitar,-1,-1
52,100,0.38181818181818183,409,0,2,DL_Guitar,-1,-1
50,100,0.9590909090909091,660,1,2,DL_Guitar,-1,-1
50,100,0.16363636363636364,48,1,3,DL_Guitar,-1,-1
50,100,0.1409090909090909,88,0,3,DL_Guitar,-1,-1
50,100,0.4818181818181818,122,0,3,DL_Guitar,-1,-1
56,100,0.2,488,1,3,DL_Guitar,-1,-1
56,100,0.1590909090909091,546,0,3,DL_Guitar,-1,-1
50,100,0.2409090909090909,607,0,3,DL_Guitar,-1,-1
47,100,0.6181818181818182,757,0,3,DL_Guitar,-1,-1
52,100,0.17727272727272728,184,1,4,DL_Guitar,-1,-1
52,100,0.17727272727272728,317,0,4,DL_Guitar,-1,-1
52,100,0.1590909090909091,458,0,4,DL_Guitar,-1,-1
45,100,0.2,826,1,4,DL_Guitar,-1,-1
45,100,0.1590909090909091,875,0,4,DL_Guitar,-1,-1
45,100,0.35909090909090907,53,1,5,DL_Guitar,-1,-1
47,100,0.2,550,1,5,DL_Guitar,-1,-1
52,100,0.2772727272727273,700,0,5,DL_Guitar,-1,-1
49,100,0.12272727272727273,145,1,6,DL_Guitar,-1,-1
49,100,0.7181818181818181,242,0,6,DL_Guitar,-1,-1
49,100,0.42272727272727273,585,1,6,DL_Guitar,-1,-1
64,100,0.2,757,0,6,DL_Guitar,-1,-1
64,100,0.12272727272727273,839,0,6,DL_Guitar,-1,-1
57,100,0.13636363636363635,238,1,7,DL_Guitar,-1,-1
50,100,0.8,304,0,7,DL_Guitar,-1,-1
50,100,0.1409090909090909,483,0,7,DL_Guitar,-1,-1
52,100,0.12272727272727273,629,0,7,DL_Guitar,-1,-1
52,100,0.17727272727272728,757,0,7,DL_Guitar,-1,-1
64,100,0.1,8,1,8,DL_Guitar,-1,-1
52,100,0.1,92,0,8,DL_Guitar,-1,-1
52,100,0.2772727272727273,127,0,8,DL_Guitar,-1,-1
52,100,0.11818181818181818,237,0,8,DL_Guitar,-1,-1
57,100,0.2590909090909091,285,0,8,DL_Guitar,-1,-1
57,100,1.0,369,0,8,DL_Guitar,-1,-1
52,100,0.2,708,1,8,DL_Guitar,-1,-1
52,100,0.2590909090909091,857,0,8,DL_Guitar,-1,-1
57,100,0.1590909090909091,34,1,9,DL_Guitar,-1,-1
50,100,0.11818181818181818,185,0,9,DL_Guitar,-1,-1
50,100,0.35909090909090907,457,1,9,DL_Guitar,-1,-1
50,100,0.16363636363636364,620,0,9,DL_Guitar,-1,-1
56,100,0.2590909090909091,835,1,9,DL_Guitar,-1,-1
52,100,0.2,48,1,10,DL_Guitar,-1,-1
52,100,0.1,118,0,10,DL_Guitar,-1,-1
52,100,0.1,144,0,10,DL_Guitar,-1,-1
54,100,0.1,330,0,10,DL_Guitar,-1,-1
49,100,0.36363636363636365,598,1,10,DL_Guitar,-1,-1
54,100,0.1590909090909091,854,1,10,DL_Guitar,-1,-1
54,100,0.2,30,1,11,DL_Guitar,-1,-1
50,100,0.8590909090909091,304,1,11,DL_Guitar,-1,-1
50,100,0.5409090909090909,584,1,11,DL_Guitar,-1,-1
50,100,0.18181818181818182,725,0,11,DL_Guitar,-1,-1
64,100,0.1,770,0,11,DL_Guitar,-1,-1
50,100,0.2590909090909091,175,1,12,DL_Guitar,-1,-1
50,100,0.11818181818181818,264,0,12,DL_Guitar,-1,-1
47,100,0.6636363636363637,422,0,12,DL_Guitar,-1,-1
47,100,0.13636363636363635,721,1,12,DL_Guitar,-1,-1
52,100,0.22272727272727272,826,0,12,DL_Guitar,-1,-1
47,100,0.11818181818181818,185,1,13,DL_Guitar,-1,-1
52,100,0.5,598,1,13,DL_Guitar,-1,-1
52,100,0.42272727272727273,730,0,13,DL_Guitar,-1,-1
52,100,0.18181818181818182,835,0,13,DL_Guitar,-1,-1
52,100,0.21818181818181817,22,1,14,DL_Guitar,-1,-1
47,100,0.1,202,0,14,DL_Guitar,-1,-1
47,100,0.1590909090909091,259,0,14,DL_Guitar,-1,-1
64,100,0.1409090909090909,835,1,14,DL_Guitar,-1,-1
49,100,0.11818181818181818,457,1,15,DL_Guitar,-1,-1
54,100,0.13636363636363635,766,1,15,DL_Guitar,-1,-1
54,100,0.11818181818181818,809,0,15,DL_Guitar,-1,-1
49,100,0.35909090909090907,804,1,16,DL_Guitar,-1,-1
49,100,0.1590909090909091,21,1,17,DL_Guitar,-1,-1
49,100,0.2772727272727273,567,1,17,DL_Guitar,-1,-1
56,100,0.2,663,0,17,DL_Guitar,-1,-1
45,100,0.1409090909090909,804,0,17,DL_Guitar,-1,-1
50,100,0.1,69,1,18,DL_Guitar,-1,-1
50,100,0.42272727272727273,136,0,18,DL_Guitar,-1,-1
50,100,0.11818181818181818,250,0,18,DL_Guitar,-1,-1
47,100,0.42272727272727273,387,0,18,DL_Guitar,-1,-1
47,100,0.18181818181818182,717,1,18,DL_Guitar,-1,-1
60,100,0.37727272727272726,96,1,19,DL_Guitar,-1,-1
49,100,0.42272727272727273,254,0,19,DL_Guitar,-1,-1
49,100,0.2772727272727273,590,1,19,DL_Guitar,-1,-1
54,100,0.4409090909090909,140,1,20,DL_Guitar,-1,-1
54,100,0.4,272,0,20,DL_Guitar,-1,-1
56,100,0.2818181818181818,550,1,20,DL_Guitar,-1,-1
56,100,0.37727272727272726,756,1,20,DL_Guitar,-1,-1
52,100,0.16363636363636364,3,1,21,DL_Guitar,-1,-1
59,100,0.1,241,1,21,DL_Guitar,-1,-1
52,100,0.3,339,0,21,DL_Guitar,-1,-1
57,100,0.17727272727272728,413,0,21,DL_Guitar,-1,-1
52,100,0.3,453,0,21,DL_Guitar,-1,-1
52,100,0.21818181818181817,523,0,21,DL_Guitar,-1,-1
45,100,0.1,650,0,21,DL_Guitar,-1,-1
52,100,0.11818181818181818,712,0,21,DL_Guitar,-1,-1
64,100,0.2,787,0,21,DL_Guitar,-1,-1
52,100,0.13636363636363635,831,0,21,DL_Guitar,-1,-1
52,100,0.21818181818181817,0,1,22,DL_Guitar,-1,-1
52,100,0.1,52,0,22,DL_Guitar,-1,-1
57,100,0.17727272727272728,75,0,22,DL_Guitar,-1,-1
57,100,0.38181818181818183,175,0,22,DL_Guitar,-1,-1
57,100,0.1,567,1,22,DL_Guitar,-1,-1
54,100,0.1409090909090909,308,1,23,DL_Guitar,-1,-1
54,100,0.1409090909090909,550,1,23,DL_Guitar,-1,-1
49,100,0.2409090909090909,650,0,23,DL_Guitar,-1,-1
42,100,0.37727272727272726,96,1,24,DL_Guitar,-1,-1
59,100,0.16363636363636364,466,1,24,DL_Guitar,-1,-1
54,100,0.1409090909090909,571,0,24,DL_Guitar,-1,-1
55,100,0.1409090909090909,691,0,24,DL_Guitar,-1,-1
49,100,0.3409090909090909,818,0,24,DL_Guitar,-1,-1
49,100,0.1,52,1,25,DL_Guitar,-1,-1
49,100,0.12272727272727273,92,0,25,DL_Guitar,-1,-1
64,100,0.3,167,0,25,DL_Guitar,-1,-1
52,100,0.22272727272727272,320,0,25,DL_Guitar,-1,-1
47,100,0.11818181818181818,484,0,25,DL_Guitar,-1,-1
47,100,0.22272727272727272,540,0,25,DL_Guitar,-1,-1
47,100,0.12272727272727273,708,0,25,DL_Guitar,-1,-1
59,100,0.11818181818181818,831,0,25,DL_Guitar,-1,-1
52,100,0.22272727272727272,57,1,26,DL_Guitar,-1,-1
47,100,0.1409090909090909,119,0,26,DL_Guitar,-1,-1
52,100,0.6,206,0,26,DL_Guitar,-1,-1
52,100,0.16363636363636364,3,1,27,DL_Guitar,-1,-1
52,100,0.2636363636363636,48,0,27,DL_Guitar,-1,-1
59,100,0.2636363636363636,223,0,27,DL_Guitar,-1,-1
52,100,0.12272727272727273,299,0,27,DL_Guitar,-1,-1
49,100,0.1409090909090909,34,1,28,DL_Guitar,-1,-1
50,100,0.12272727272727273,57,1,29,DL_Guitar,-1,-1
50,100,0.18181818181818182,144,0,29,DL_Guitar,-1,-1
56,100,0.1409090909090909,246,0,29,DL_Guitar,-1,-1
52,100,0.2409090909090909,607,1,29,DL_Guitar,-1,-1
62,100,0.32272727272727275,752,1,30,DL_Guitar,-1,-1
50,100,0.3,140,1,31,DL_Guitar,-1,-1
50,100,0.17727272727272728,229,0,31,DL_Guitar,-1,-1
50,100,0.18181818181818182,285,0,31,DL_Guitar,-1,-1
50,100,0.2,347,0,31,DL_Guitar,-1,-1
49,100,0.1409090909090909,123,1,32,DL_Guitar,-1,-1
54,100,0.2,215,0,32,DL_Guitar,-1,-1
49,100,0.4636363636363636,641,1,32,DL_Guitar,-1,-1
54,100,0.1,801,1,33,DL_Guitar,-1,-1
52,100,0.18181818181818182,69,1,34,DL_Guitar,-1,-1
64,100,0.2590909090909091,123,0,34,DL_Guitar,-1,-1
59,100,0.12272727272727273,254,0,34,DL_Guitar,-1,-1
40,100,0.2,308,0,34,DL_Guitar,-1,-1
59,100,0.2,373,0,34,DL_Guitar,-1,-1
40,100,0.22272727272727272,421,0,34,DL_Guitar,-1,-1
52,100,0.22272727272727272,716,1,34,DL_Guitar,-1,-1
56,100,0.1590909090909091,831,0,34,DL_Guitar,-1,-1
52,100,0.1590909090909091,13,1,35,DL_Guitar,-1,-1
64,100,0.11818181818181818,105,0,35,DL_Guitar,-1,-1
52,100,0.11818181818181818,150,0,35,DL_Guitar,-1,-1
52,100,0.22272727272727272,378,1,35,DL_Guitar,-1,-1
57,100,0.21818181818181817,483,0,35,DL_Guitar,-1,-1
45,100,0.1,531,0,35,DL_Guitar,-1,-1
52,100,0.1409090909090909,584,0,35,DL_Guitar,-1,-1
64,100,0.1,655,0,35,DL_Guitar,-1,-1
52,100,0.21818181818181817,735,0,35,DL_Guitar,-1,-1
52,100,0.2590909090909091,56,1,36,DL_Guitar,-1,-1
64,100,0.1409090909090909,251,0,36,DL_Guitar,-1,-1
64,100,0.2818181818181818,576,1,36,DL_Guitar,-1,-1
61,100,0.21818181818181817,660,0,36,DL_Guitar,-1,-1
61,100,0.1,716,0,36,DL_Guitar,-1,-1
64,100,0.32272727272727275,738,0,36,DL_Guitar,-1,-1
49,100,0.4,826,0,36,DL_Guitar,-1,-1
64,100,0.18181818181818182,34,1,37,DL_Guitar,-1,-1
64,100,0.1,105,0,37,DL_Guitar,-1,-1
49,100,0.33636363636363636,435,1,37,DL_Guitar,-1,-1
54,100,0.13636363636363635,193,1,38,DL_Guitar,-1,-1
52,100,0.12272727272727273,311,0,38,DL_Guitar,-1,-1
49,100,0.1409090909090909,361,0,38,DL_Guitar,-1,-1
64,100,0.1590909090909091,735,1,38,DL_Guitar,-1,-1
61,100,0.12272727272727273,861,0,38,DL_Guitar,-1,-1
61,100,0.3181818181818182,110,1,39,DL_Guitar,-1,-1
56,100,0.1590909090909091,351,1,39,DL_Guitar,-1,-1
50,100,0.18181818181818182,506,0,39,DL_Guitar,-1,-1
50,100,0.4,571,0,39,DL_Guitar,-1,-1
50,100,0.2409090909090909,796,1,39,DL_Guitar,-1,-1
64,100,0.12272727272727273,91,1,40,DL_Guitar,-1,-1
52,100,0.13636363636363635,150,0,40,DL_Guitar,-1,-1
40,100,0.2636363636363636,179,0,40,DL_Guitar,-1,-1
40,100,0.4,286,0,40,DL_Guitar,-1,-1
49,100,0.11818181818181818,8,1,41,DL_Guitar,-1,-1
54,100,0.5,220,1,41,DL_Guitar,-1,-1
54,100,0.1409090909090909,418,1,41,DL_Guitar,-1,-1
50,100,0.22272727272727272,474,0,41,DL_Guitar,-1,-1
47,100,0.11818181818181818,703,1,41,DL_Guitar,-1,-1
47,100,0.11818181818181818,858,0,41,DL_Guitar,-1,-1
47,100,0.35909090909090907,40,1,42,DL_Guitar,-1,-1
59,100,0.13636363636363635,171,0,42,DL_Guitar,-1,-1
54,100,0.5772727272727273,391,1,42,DL_Guitar,-1,-1
47,100,0.5181818181818182,655,1,42,DL_Guitar,-1,-1
47,100,0.3409090909090909,31,1,43,DL_Guitar,-1,-1
47,100,0.11818181818181818,141,0,43,DL_Guitar,-1,-1
52,100,0.2590909090909091,171,0,43,DL_Guitar,-1,-1
52,100,0.2,260,0,43,DL_Guitar,-1,-1
52,100,0.4772727272727273,480,1,43,DL_Guitar,-1,-1
52,100,0.3409090909090909,593,0,43,DL_Guitar,-1,-1
47,100,0.2590909090909091,845,1,43,DL_Guitar,-1,-1
62,100,0.9181818181818182,31,1,44,DL_Guitar,-1,-1
49,100,0.2409090909090909,351,1,44,DL_Guitar,-1,-1
61,100,0.1590909090909091,448,0,44,DL_Guitar,-1,-1
64,100,0.5590909090909091,493,0,44,DL_Guitar,-1,-1
54,100,0.4409090909090909,26,1,45,DL_Guitar,-1,-1
54,100,0.2,131,0,45,DL_Guitar,-1,-1
51,100,0.7818181818181819,263,0,45,DL_Guitar,-1,-1
52,100,0.13636363636363635,545,1,45,DL_Guitar,-1,-1
59,100,0.12272727272727273,651,0,45,DL_Guitar,-1,-1
40,100,0.12272727272727273,694,0,45,DL_Guitar,-1,-1
52,100,0.33636363636363636,721,0,45,DL_Guitar,-1,-1
54,100,0.2818181818181818,211,1,46,DL_Guitar,-1,-1
47,100,0.1409090909090909,536,1,46,DL_Guitar,-1,-1
52,100,0.1409090909090909,571,0,46,DL_Guitar,-1,-1
40,100,0.2409090909090909,694,0,46,DL_Guitar,-1,-1
52,100,0.1409090909090909,756,0,46,DL_Guitar,-1,-1
40,100,0.1,801,0,46,DL_Guitar,-1,-1
40,100,0.22272727272727272,826,0,46,DL_Guitar,-1,-1
52,100,0.11818181818181818,875,0,46,DL_Guitar,-1,-1
57,100,0.2772727272727273,40,1,47,DL_Guitar,-1,-1
52,100,0.2,101,0,47,DL_Guitar,-1,-1
45,100,0.32272727272727275,211,0,47,DL_Guitar,-1,-1
45,100,0.5,351,0,47,DL_Guitar,-1,-1
45,100,0.12272727272727273,466,0,47,DL_Guitar,-1,-1
52,100,0.11818181818181818,523,0,47,DL_Guitar,-1,-1
52,100,0.2590909090909091,584,0,47,DL_Guitar,-1,-1
45,100,0.12272727272727273,826,1,47,DL_Guitar,-1,-1
52,100,0.42272727272727273,26,1,48,DL_Guitar,-1,-1
50,100,0.6,220,0,48,DL_Guitar,-1,-1
57,100,0.1,361,0,48,DL_Guitar,-1,-1
59,100,0.2772727272727273,251,1,49,DL_Guitar,-1,-1
47,100,0.18181818181818182,421,0,49,DL_Guitar,-1,-1
52,100,0.1,545,0,49,DL_Guitar,-1,-1
56,100,0.11818181818181818,721,0,49,DL_Guitar,-1,-1
52,100,0.2,804,0,49,DL_Guitar,-1,-1
52,100,0.11818181818181818,866,0,49,DL_Guitar,-1,-1
52,100,0.1409090909090909,69,1,50,DL_Guitar,-1,-1
64,100,0.12272727272727273,123,0,50,DL_Guitar,-1,-1
52,100,0.1,166,0,50,DL_Guitar,-1,-1
56,100,0.1590909090909091,506,1,50,DL_Guitar,-1,-1
56,100,0.12272727272727273,554,0,50,DL_Guitar,-1,-1
49,100,0.1409090909090909,651,0,50,DL_Guitar,-1,-1
49,100,0.2,408,1,51,DL_Guitar,-1,-1
54,100,0.6,136,1,52,DL_Guitar,-1,-1
57,100,0.3,325,0,52,DL_Guitar,-1,-1
59,100,0.1590909090909091,515,0,52,DL_Guitar,-1,-1
59,100,0.1590909090909091,568,0,52,DL_Guitar,-1,-1
54,100,0.4590909090909091,703,0,52,DL_Guitar,-1,-1
54,100,0.3409090909090909,826,0,52,DL_Guitar,-1,-1
54,100,0.18181818181818182,408,1,53,DL_Guitar,-1,-1
61,100,0.22272727272727272,651,1,53,DL_Guitar,-1,-1
61,100,0.1590909090909091,721,0,53,DL_Guitar,-1,-1
61,100,0.1,765,0,53,DL_Guitar,-1,-1
59,100,0.2,0,1,54,DL_Guitar,-1,-1
61,100,0.4,206,1,54,DL_Guitar,-1,-1
50,100,0.11818181818181818,681,1,54,DL_Guitar,-1,-1
57,100,0.17727272727272728,743,0,54,DL_Guitar,-1,-1
57,100,0.1,215,1,55,DL_Guitar,-1,-1
52,100,0.5,678,1,55,DL_Guitar,-1,-1
52,100,0.6181818181818182,791,0,55,DL_Guitar,-1,-1
40,100,0.2,48,1,56,DL_Guitar,-1,-1
52,100,0.18181818181818182,136,0,56,DL_Guitar,-1,-1
64,100,0.16363636363636364,179,0,56,DL_Guitar,-1,-1
40,100,0.22272727272727272,268,0,56,DL_Guitar,-1,-1
52,100,0.6363636363636364,391,0,56,DL_Guitar,-1,-1
52,100,0.11818181818181818,568,0,56,DL_Guitar,-1,-1
52,100,0.16363636363636364,598,0,56,DL_Guitar,-1,-1
52,100,0.5590909090909091,700,0,56,DL_Guitar,-1,-1
52,100,0.5818181818181818,839,0,56,DL_Guitar,-1,-1
40,100,0.1409090909090909,188,1,57,DL_Guitar,-1,-1
52,100,1.059090909090909,286,0,57,DL_Guitar,-1,-1
52,100,0.4409090909090909,541,1,57,DL_Guitar,-1,-1
40,100,0.11818181818181818,721,0,57,DL_Guitar,-1,-1
52,100,0.18181818181818182,770,0,57,DL_Guitar,-1,-1
45,100,0.740909090909091,813,0,57,DL_Guitar,-1,-1
52,100,0.12272727272727273,114,1,58,DL_Guitar,-1,-1
40,100,0.41818181818181815,501,1,58,DL_Guitar,-1,-1
52,100,0.2,603,0,58,DL_Guitar,-1,-1
52,100,0.3,678,0,58,DL_Guitar,-1,-1
40,100,0.13636363636363635,743,0,58,DL_Guitar,-1,-1
49,100,0.4818181818181818,88,1,59,DL_Guitar,-1,-1
49,100,0.17727272727272728,260,0,59,DL_Guitar,-1,-1
52,100,0.11818181818181818,523,1,59,DL_Guitar,-1,-1
56,100,0.22272727272727272,606,0,59,DL_Guitar,-1,-1
57,100,0.3,185,1,60,DL_Guitar,-1,-1
52,100,0.18181818181818182,444,1,60,DL_Guitar,-1,-1
52,100,0.18181818181818182,488,0,60,DL_Guitar,-1,-1
40,100,0.13636363636363635,611,0,60,DL_Guitar,-1,-1
52,100,0.4590909090909091,660,0,60,DL_Guitar,-1,-1
52,100,0.11818181818181818,810,0,60,DL_Guitar,-1,-1
40,100,0.2,861,0,60,DL_Guitar,-1,-1
52,100,0.2,176,1,61,DL_Guitar,-1,-1
45,100,0.22272727272727272,224,0,61,DL_Guitar,-1,-1
45,100,0.1409090909090909,289,0,61,DL_Guitar,-1,-1
52,100,0.37727272727272726,361,0,61,DL_Guitar,-1,-1
52,100,0.2590909090909091,458,0,61,DL_Guitar,-1,-1
64,100,0.42272727272727273,563,0,61,DL_Guitar,-1,-1
52,100,0.11818181818181818,655,0,61,DL_Guitar,-1,-1
49,100,0.11818181818181818,700,0,61,DL_Guitar,-1,-1
49,100,0.2818181818181818,818,0,61,DL_Guitar,-1,-1
50,100,0.3409090909090909,158,1,62,DL_Guitar,-1,-1
50,100,0.2,413,1,62,DL_Guitar,-1,-1
64,100,0.2409090909090909,603,0,62,DL_Guitar,-1,-1
64,100,0.11818181818181818,660,0,62,DL_Guitar,-1,-1
52,100,0.18181818181818182,751,0,62,DL_Guitar,-1,-1
52,100,0.11818181818181818,75,1,63,DL_Guitar,-1,-1
57,100,0.3409090909090909,246,0,63,DL_Guitar,-1,-1
45,100,0.4590909090909091,364,0,63,DL_Guitar,-1,-1
56,100,0.1590909090909091,673,1,63,DL_Guitar,-1,-1
49,100,0.2818181818181818,858,0,63,DL_Guitar,-1,-1
54,100,0.21818181818181817,260,1,64,DL_Guitar,-1,-1
54,100,0.4,563,1,64,DL_Guitar,-1,-1
47,100,0.1590909090909091,660,0,64,DL_Guitar,-1,-1
54,100,0.1409090909090909,756,0,64,DL_Guitar,-1,-1
52,100,0.1,373,1,65,DL_Guitar,-1,-1
52,100,0.3181818181818182,770,1,65,DL_Guitar,-1,-1
47,100,0.1409090909090909,35,1,66,DL_Guitar,-1,-1
52,100,0.16363636363636364,92,0,66,DL_Guitar,-1,-1
52,100,0.2772727272727273,184,0,66,DL_Guitar,-1,-1
52,100,0.2409090909090909,273,0,66,DL_Guitar,-1,-1
52,100,0.2409090909090909,356,0,66,DL_Guitar,-1,-1
52,100,0.13636363636363635,413,0,66,DL_Guitar,-1,-1
64,100,0.12272727272727273,509,0,66,DL_Guitar,-1,-1
54,100,0.3409090909090909,576,0,66,DL_Guitar,-1,-1
50,100,0.1409090909090909,352,1,67,DL_Guitar,-1,-1
50,100,0.11818181818181818,436,0,67,DL_Guitar,-1,-1
52,100,0.3409090909090909,563,0,67,DL_Guitar,-1,-1
52,100,0.2818181818181818,686,0,67,DL_Guitar,-1,-1
52,100,0.4590909090909091,766,0,67,DL_Guitar,-1,-1
59,100,0.18181818181818182,79,1,68,DL_Guitar,-1,-1
40,100,0.11818181818181818,140,0,68,DL_Guitar,-1,-1
47,100,0.3181818181818182,273,0,68,DL_Guitar,-1,-1
52,100,0.17727272727272728,523,1,68,DL_Guitar,-1,-1
56,100,0.11818181818181818,74,1,69,DL_Guitar,-1,-1
59,100,0.4590909090909091,189,0,69,DL_Guitar,-1,-1
56,100,0.4409090909090909,430,1,69,DL_Guitar,-1,-1
52,100,0.13636363636363635,612,0,69,DL_Guitar,-1,-1
52,100,0.1409090909090909,35,1,70,DL_Guitar,-1,-1
54,100,0.3,140,0,70,DL_Guitar,-1,-1
49,100,0.23636363636363636,260,0,70,DL_Guitar,-1,-1
54,100,0.2409090909090909,399,0,70,DL_Guitar,-1,-1
54,100,1.3409090909090908,747,1,70,DL_Guitar,-1,-1
54,100,0.2409090909090909,220,1,71,DL_Guitar,-1,-1
54,100,0.18181818181818182,286,0,71,DL_Guitar,-1,-1
54,100,0.1,453,0,71,DL_Guitar,-1,-1
54,100,0.1590909090909091,580,0,71,DL_Guitar,-1,-1
61,100,0.1,796,1,71,DL_Guitar,-1,-1
49,100,0.1,483,1,72,DL_Guitar,-1,-1
61,100,0.42272727272727273,540,0,72,DL_Guitar,-1,-1
57,100,0.21818181818181817,242,1,73,DL_Guitar,-1,-1
50,100,0.1590909090909091,392,0,73,DL_Guitar,-1,-1
52,100,0.11818181818181818,66,1,74,DL_Guitar,-1,-1
52,100,0.2772727272727273,150,0,74,DL_Guitar,-1,-1
52,100,0.12272727272727273,289,0,74,DL_Guitar,-1,-1
64,100,0.1409090909090909,320,0,74,DL_Guitar,-1,-1
52,100,0.12272727272727273,386,0,74,DL_Guitar,-1,-1
64,100,0.13636363636363635,413,0,74,DL_Guitar,-1,-1
40,100,0.1590909090909091,483,0,74,DL_Guitar,-1,-1
52,100,0.1409090909090909,603,0,74,DL_Guitar,-1,-1
52,100,0.2590909090909091,787,0,74,DL_Guitar,-1,-1
40,100,0.1409090909090909,844,0,74,DL_Guitar,-1,-1
52,100,0.2590909090909091,79,1,75,DL_Guitar,-1,-1
52,100,0.11818181818181818,184,0,75,DL_Guitar,-1,-1
52,100,0.1,223,0,75,DL_Guitar,-1,-1
52,100,0.12272727272727273,267,0,75,DL_Guitar,-1,-1
64,100,0.11818181818181818,316,0,75,DL_Guitar,-1,-1
52,100,0.2818181818181818,409,0,75,DL_Guitar,-1,-1
40,100,0.11818181818181818,514,0,75,DL_Guitar,-1,-1
52,100,0.22272727272727272,540,0,75,DL_Guitar,-1,-1
45,100,0.9,242,1,76,DL_Guitar,-1,-1
52,100,0.3409090909090909,462,1,76,DL_Guitar,-1,-1
52,100,0.12272727272727273,650,0,76,DL_Guitar,-1,-1
53,100,0.1,677,0,76,DL_Guitar,-1,-1
64,100,0.1,576,1,77,DL_Guitar,-1,-1
42,100,0.1409090909090909,637,0,77,DL_Guitar,-1,-1
54,100,0.2,360,1,78,DL_Guitar,-1,-1
54,100,0.3,443,1,79,DL_Guitar,-1,-1
54,100,0.3409090909090909,682,1,79,DL_Guitar,-1,-1
50,100,0.1590909090909091,96,1,80,DL_Guitar,-1,-1
54,100,0.12272727272727273,166,0,80,DL_Guitar,-1,-1
54,100,0.4590909090909091,519,1,80,DL_Guitar,-1,-1
54,100,0.1,633,0,80,DL_Guitar,-1,-1
50,100,0.21818181818181817,853,1,80,DL_Guitar,-1,-1
52,100,0.2,106,1,81,DL_Guitar,-1,-1
56,100,0.2590909090909091,220,0,81,DL_Guitar,-1,-1
52,100,0.8818181818181818,333,0,81,DL_Guitar,-1,-1
42,100,0.32272727272727275,673,1,81,DL_Guitar,-1,-1
61,100,0.2590909090909091,760,0,81,DL_Guitar,-1,-1
57,100,0.1409090909090909,136,1,82,DL_Guitar,-1,-1
61,100,0.18181818181818182,246,0,82,DL_Guitar,-1,-1
61,100,0.2772727272727273,347,0,82,DL_Guitar,-1,-1
54,100,0.1409090909090909,553,1,82,DL_Guitar,-1,-1
54,100,0.3,646,0,82,DL_Guitar,-1,-1
54,100,0.1590909090909091,716,0,82,DL_Guitar,-1,-1
57,100,0.18181818181818182,752,0,82,DL_Guitar,-1,-1
62,100,0.1,826,0,82,DL_Guitar,-1,-1
62,100,0.1,853,0,82,DL_Guitar,-1,-1
54,100,0.32272727272727275,136,1,83,DL_Guitar,-1,-1
57,100,0.4,233,0,83,DL_Guitar,-1,-1
50,100,0.2636363636363636,399,0,83,DL_Guitar,-1,-1
52,100,0.1,839,1,83,DL_Guitar,-1,-1
52,100,0.43636363636363634,83,1,84,DL_Guitar,-1,-1
59,100,0.1409090909090909,210,0,84,DL_Guitar,-1,-1
64,100,0.1590909090909091,713,1,84,DL_Guitar,-1,-1
54,100,0.1,787,0,84,DL_Guitar,-1,-1
63,100,0.1409090909090909,836,0,84,DL_Guitar,-1,-1
63,100,0.1,26,1,85,DL_Guitar,-1,-1
54,100,0.1,87,0,85,DL_Guitar,-1,-1
54,100,0.2409090909090909,163,0,85,DL_Guitar,-1,-1
54,100,0.1409090909090909,299,0,85,DL_Guitar,-1,-1
42,100,0.1409090909090909,453,0,85,DL_Guitar,-1,-1
54,100,0.2,729,1,85,DL_Guitar,-1,-1
63,100,0.2818181818181818,35,1,86,DL_Guitar,-1,-1
63,100,0.23636363636363636,106,0,86,DL_Guitar,-1,-1
59,100,0.1409090909090909,267,0,86,DL_Guitar,-1,-1
54,100,0.3,690,1,86,DL_Guitar,-1,-1
42,100,0.12272727272727273,817,0,86,DL_Guitar,-1,-1
52,100,0.4590909090909091,163,1,87,DL_Guitar,-1,-1
52,100,0.1409090909090909,470,1,87,DL_Guitar,-1,-1
42,100,0.1,650,0,87,DL_Guitar,-1,-1
61,100,0.12272727272727273,26,1,88,DL_Guitar,-1,-1
54,100,0.21818181818181817,30,1,89,DL_Guitar,-1,-1
64,100,0.11818181818181818,176,0,89,DL_Guitar,-1,-1
64,100,0.21818181818181817,237,0,89,DL_Guitar,-1,-1
64,100,0.11818181818181818,330,0,89,DL_Guitar,-1,-1
52,100,0.5590909090909091,417,0,89,DL_Guitar,-1,-1
64,100,0.1,593,0,89,DL_Guitar,-1,-1
54,100,0.2,857,1,89,DL_Guitar,-1,-1
63,100,0.2409090909090909,307,1,90,DL_Guitar,-1,-1
63,100,0.37727272727272726,404,0,90,DL_Guitar,-1,-1
59,100,0.3181818181818182,726,1,90,DL_Guitar,-1,-1
63,100,0.1,233,1,91,DL_Guitar,-1,-1
54,100,0.1,276,0,91,DL_Guitar,-1,-1
64,100,0.2818181818181818,333,0,91,DL_Guitar,-1,-1
64,100,0.12272727272727273,443,0,91,DL_Guitar,-1,-1
52,100,0.2590909090909091,502,0,91,DL_Guitar,-1,-1
52,100,0.2409090909090909,572,0,91,DL_Guitar,-1,-1
52,100,0.21818181818181817,747,0,91,DL_Guitar,-1,-1
52,100,0.2,870,0,91,DL_Guitar,-1,-1
47,100,0.1409090909090909,74,1,92,DL_Guitar,-1,-1
64,100,0.1409090909090909,206,0,92,DL_Guitar,-1,-1
59,100,0.1590909090909091,276,0,92,DL_Guitar,-1,-1
54,100,0.3181818181818182,436,0,92,DL_Guitar,-1,-1
54,100,0.2409090909090909,572,0,92,DL_Guitar,-1,-1
52,100,0.5,700,0,92,DL_Guitar,-1,-1
54,100,0.2636363636363636,47,1,93,DL_Guitar,-1,-1
54,100,0.18181818181818182,132,0,93,DL_Guitar,-1,-1
54,100,0.1409090909090909,110,1,94,DL_Guitar,-1,-1
54,100,0.41818181818181815,307,0,94,DL_Guitar,-1,-1
63,100,0.11818181818181818,612,1,94,DL_Guitar,-1,-1
51,100,0.12272727272727273,752,0,94,DL_Guitar,-1,-1
59,100,0.42272727272727273,796,0,94,DL_Guitar,-1,-1
63,100,0.1590909090909091,206,1,95,DL_Guitar,-1,-1
51,100,0.38181818181818183,276,0,95,DL_Guitar,-1,-1
54,100,0.23636363636363636,392,0,95,DL_Guitar,-1,-1
54,100,0.2409090909090909,475,0,95,DL_Guitar,-1,-1
52,100,0.2590909090909091,606,0,95,DL_Guitar,-1,-1
52,100,0.2409090909090909,716,0,95,DL_Guitar,-1,-1
52,100,0.9181818181818182,813,0,95,DL_Guitar,-1,-1
54,100,0.11818181818181818,176,1,96,DL_Guitar,-1,-1
54,100,0.1409090909090909,404,1,96,DL_Guitar,-1,-1
54,100,0.12272727272727273,629,1,96,DL_Guitar,-1,-1
47,100,0.1409090909090909,663,0,96,DL_Guitar,-1,-1
47,100,0.4409090909090909,823,0,96,DL_Guitar,-1,-1
54,100,0.11818181818181818,132,1,97,DL_Guitar,-1,-1
54,100,0.1590909090909091,453,1,97,DL_Guitar,-1,-1
54,100,0.4818181818181818,509,0,97,DL_Guitar,-1,-1
52,100,0.4,805,1,97,DL_Guitar,-1,-1
52,100,0.3181818181818182,153,1,98,DL_Guitar,-1,-1
54,100,0.22272727272727272,475,1,98,DL_Guitar,-1,-1
61,100,0.2409090909090909,650,0,98,DL_Guitar,-1,-1
63,100,0.35909090909090907,779,0,98,DL_Guitar,-1,-1
56,100,0.2409090909090909,9,1,99,DL_Guitar,-1,-1
63,100,0.1409090909090909,74,0,99,DL_Guitar,-1,-1
59,100,0.1590909090909091,119,0,99,DL_Guitar,-1,-1
63,100,0.5818181818181818,176,0,99,DL_Guitar,-1,-1
63,100,0.6181818181818182,527,1,99,DL_Guitar,-1,-1
63,100,0.41818181818181815,722,0,99,DL_Guitar,-1,-1
49,100,0.5590909090909091,62,1,100,DL_Guitar,-1,-1
49,100,0.3,316,1,100,DL_Guitar,-1,-1
49,100,0.1,392,0,100,DL_Guitar,-1,-1
49,100,0.37727272727272726,523,0,100,DL_Guitar,-1,-1
52,100,0.3409090909090909,849,1,100,DL_Guitar,-1,-1
61,100,0.3,136,1,101,DL_Guitar,-1,-1
54,100,0.23636363636363636,282,0,101,DL_Guitar,-1,-1
42,100,0.1590909090909091,352,0,101,DL_Guitar,-1,-1
54,100,0.4590909090909091,624,1,101,DL_Guitar,-1,-1
54,100,0.5590909090909091,787,0,101,DL_Guitar,-1,-1
54,100,0.1,153,1,102,DL_Guitar,-1,-1
54,100,0.1409090909090909,92,1,103,DL_Guitar,-1,-1
63,100,0.38181818181818183,386,1,103,DL_Guitar,-1,-1
54,100,0.21818181818181817,527,0,103,DL_Guitar,-1,-1
54,100,0.11818181818181818,832,1,103,DL_Guitar,-1,-1
59,100,0.12272727272727273,267,1,104,DL_Guitar,-1,-1
59,100,0.7227272727272728,343,0,104,DL_Guitar,-1,-1
54,100,0.1409090909090909,550,1,104,DL_Guitar,-1,-1
54,100,0.3,100,1,105,DL_Guitar,-1,-1
54,100,0.2772727272727273,172,0,105,DL_Guitar,-1,-1
63,100,0.2818181818181818,739,1,105,DL_Guitar,-1,-1
64,100,0.3409090909090909,110,1,106,DL_Guitar,-1,-1
64,100,0.11818181818181818,250,0,106,DL_Guitar,-1,-1
64,100,0.11818181818181818,303,0,106,DL_Guitar,-1,-1
64,100,0.12272727272727273,365,0,106,DL_Guitar,-1,-1
47,100,0.1,839,1,106,DL_Guitar,-1,-1
64,100,0.2818181818181818,386,1,107,DL_Guitar,-1,-1
63,100,0.1,633,1,107,DL_Guitar,-1,-1
54,100,0.4818181818181818,760,0,107,DL_Guitar,-1,-1
54,100,0.12272727272727273,3,1,108,DL_Guitar,-1,-1
54,100,0.759090909090909,123,0,108,DL_Guitar,-1,-1
49,100,0.4590909090909091,603,1,108,DL_Guitar,-1,-1
64,100,0.2409090909090909,726,0,108,DL_Guitar,-1,-1
64,100,0.1409090909090909,792,0,108,DL_Guitar,-1,-1
56,100,0.4,316,1,109,DL_Guitar,-1,-1
63,100,0.3181818181818182,593,1,109,DL_Guitar,-1,-1
63,100,0.13636363636363635,677,0,109,DL_Guitar,-1,-1
54,100,0.11818181818181818,770,0,109,DL_Guitar,-1,-1
63,100,0.1409090909090909,87,1,110,DL_Guitar,-1,-1
63,100,0.18181818181818182,153,0,110,DL_Guitar,-1,-1
54,100,0.12272727272727273,320,0,110,DL_Guitar,-1,-1
63,100,0.1409090909090909,383,0,110,DL_Guitar,-1,-1
59,100,0.1590909090909091,563,0,110,DL_Guitar,-1,-1
63,100,0.12272727272727273,752,0,110,DL_Guitar,-1,-1
54,100,0.2590909090909091,83,1,111,DL_Guitar,-1,-1
54,100,0.5590909090909091,220,0,111,DL_Guitar,-1,-1
61,100,0.38181818181818183,475,1,111,DL_Guitar,-1,-1
54,100,0.18181818181818182,637,0,111,DL_Guitar,-1,-1
54,100,0.32272727272727275,422,1,112,DL_Guitar,-1,-1
54,100,0.18181818181818182,255,1,113,DL_Guitar,-1,-1
54,100,0.18181818181818182,299,0,113,DL_Guitar,-1,-1
54,100,0.22272727272727272,409,0,113,DL_Guitar,-1,-1
59,100,0.12272727272727273,496,0,113,DL_Guitar,-1,-1
47,100,0.1590909090909091,276,1,114,DL_Guitar,-1,-1
55,100,0.37727272727272726,317,1,0,DL_Guitar,-1,-1
46,100,0.4409090909090909,827,1,0,DL_Guitar,-1,-1
46,100,0.18181818181818182,180,1,1,DL_Guitar,-1,-1
46,100,0.5,325,0,1,DL_Guitar,-1,-1
53,100,0.5590909090909091,563,1,1,DL_Guitar,-1,-1
53,100,0.23636363636363636,765,1,1,DL_Guitar,-1,-1
51,100,0.11818181818181818,791,1,2,DL_Guitar,-1,-1
58,100,0.2,26,1,3,DL_Guitar,-1,-1
58,100,0.1590909090909091,207,0,3,DL_Guitar,-1,-1
46,100,0.7,241,0,3,DL_Guitar,-1,-1
46,100,0.2409090909090909,616,1,3,DL_Guitar,-1,-1
53,100,0.5,845,1,3,DL_Guitar,-1,-1
53,100,0.22272727272727272,166,1,4,DL_Guitar,-1,-1
53,100,0.2,299,0,4,DL_Guitar,-1,-1
53,100,0.22272727272727272,355,0,4,DL_Guitar,-1,-1
48,100,0.2,435,0,4,DL_Guitar,-1,-1
53,100,0.18181818181818182,619,0,4,DL_Guitar,-1,-1
53,100,0.12272727272727273,774,0,4,DL_Guitar,-1,-1
58,100,0.1,514,1,5,DL_Guitar,-1,-1
46,100,0.5181818181818182,765,1,5,DL_Guitar,-1,-1
46,100,0.11818181818181818,66,1,6,DL_Guitar,-1,-1
41,100,0.2590909090909091,470,1,6,DL_Guitar,-1,-1
41,100,0.3,651,0,6,DL_Guitar,-1,-1
41,100,0.2590909090909091,176,1,7,DL_Guitar,-1,-1
43,100,0.3181818181818182,307,1,8,DL_Guitar,-1,-1
58,100,0.1,70,1,9,DL_Guitar,-1,-1
58,100,0.3,453,1,9,DL_Guitar,-1,-1
58,100,0.2,550,0,9,DL_Guitar,-1,-1
58,100,0.12272727272727273,598,0,9,DL_Guitar,-1,-1
46,100,0.6590909090909091,716,0,9,DL_Guitar,-1,-1
58,100,0.1590909090909091,175,1,10,DL_Guitar,-1,-1
46,100,0.22272727272727272,299,0,10,DL_Guitar,-1,-1
46,100,0.5590909090909091,457,0,10,DL_Guitar,-1,-1
46,100,0.11818181818181818,691,1,10,DL_Guitar,-1,-1
53,100,0.4409090909090909,835,0,10,DL_Guitar,-1,-1
53,100,0.35909090909090907,96,1,11,DL_Guitar,-1,-1
41,100,0.2,175,0,11,DL_Guitar,-1,-1
41,100,0.2590909090909091,281,0,11,DL_Guitar,-1,-1
53,100,0.13636363636363635,347,0,11,DL_Guitar,-1,-1
41,100,0.16363636363636364,378,0,11,DL_Guitar,-1,-1
60,100,0.3409090909090909,470,0,11,DL_Guitar,-1,-1
41,100,0.13636363636363635,546,0,11,DL_Guitar,-1,-1
53,100,0.2,735,0,11,DL_Guitar,-1,-1
60,100,0.11818181818181818,854,0,11,DL_Guitar,-1,-1
55,100,0.1,101,1,12,DL_Guitar,-1,-1
55,100,0.3409090909090909,13,1,13,DL_Guitar,-1,-1
51,100,0.37727272727272726,259,1,13,DL_Guitar,-1,-1
51,100,0.2818181818181818,462,1,13,DL_Guitar,-1,-1
53,100,0.1409090909090909,426,1,14,DL_Guitar,-1,-1
48,100,0.2590909090909091,835,1,14,DL_Guitar,-1,-1
43,100,0.1590909090909091,175,1,15,DL_Guitar,-1,-1
57,100,0.38181818181818183,584,1,15,DL_Guitar,-1,-1
41,100,0.13636363636363635,766,0,15,DL_Guitar,-1,-1
41,100,0.21818181818181817,831,0,15,DL_Guitar,-1,-1
53,100,0.2,48,1,16,DL_Guitar,-1,-1
53,100,0.18181818181818182,246,1,16,DL_Guitar,-1,-1
53,100,0.2,316,0,16,DL_Guitar,-1,-1
41,100,0.2,382,0,16,DL_Guitar,-1,-1
53,100,0.12272727272727273,430,0,16,DL_Guitar,-1,-1
57,100,0.3,501,0,16,DL_Guitar,-1,-1
58,100,0.35909090909090907,457,1,18,DL_Guitar,-1,-1
58,100,0.1590909090909091,766,1,18,DL_Guitar,-1,-1
58,100,0.22272727272727272,862,0,18,DL_Guitar,-1,-1
57,100,0.2,299,1,19,DL_Guitar,-1,-1
53,100,0.1409090909090909,779,1,19,DL_Guitar,-1,-1
53,100,0.2590909090909091,17,1,20,DL_Guitar,-1,-1
53,100,0.2772727272727273,272,1,20,DL_Guitar,-1,-1
58,100,0.11818181818181818,360,0,20,DL_Guitar,-1,-1
58,100,0.2409090909090909,576,1,20,DL_Guitar,-1,-1
50,100,0.2,663,0,20,DL_Guitar,-1,-1
50,100,0.17727272727272728,712,0,20,DL_Guitar,-1,-1
53,100,0.18181818181818182,835,0,20,DL_Guitar,-1,-1
57,100,0.5818181818181818,791,1,21,DL_Guitar,-1,-1
57,100,0.18181818181818182,44,1,22,DL_Guitar,-1,-1
51,100,0.9,40,1,23,DL_Guitar,-1,-1
51,100,0.17727272727272728,303,1,23,DL_Guitar,-1,-1
58,100,0.21818181818181817,426,0,23,DL_Guitar,-1,-1
51,100,0.12272727272727273,598,0,23,DL_Guitar,-1,-1
58,100,0.1,650,0,23,DL_Guitar,-1,-1
53,100,0.1409090909090909,13,1,24,DL_Guitar,-1,-1
57,100,0.2,75,0,24,DL_Guitar,-1,-1
57,100,0.6227272727272727,223,0,24,DL_Guitar,-1,-1
53,100,0.11818181818181818,418,0,24,DL_Guitar,-1,-1
41,100,0.41818181818181815,470,0,24,DL_Guitar,-1,-1
41,100,0.21818181818181817,611,0,24,DL_Guitar,-1,-1
60,100,0.1409090909090909,660,0,24,DL_Guitar,-1,-1
43,100,0.1590909090909091,123,1,25,DL_Guitar,-1,-1
55,100,0.3181818181818182,835,1,25,DL_Guitar,-1,-1
53,100,0.17727272727272728,96,1,26,DL_Guitar,-1,-1
53,100,0.2409090909090909,140,0,26,DL_Guitar,-1,-1
53,100,0.1409090909090909,308,0,26,DL_Guitar,-1,-1
53,100,0.16363636363636364,509,1,26,DL_Guitar,-1,-1
53,100,0.2590909090909091,677,0,26,DL_Guitar,-1,-1
41,100,0.23636363636363636,787,0,26,DL_Guitar,-1,-1
41,100,0.17727272727272728,876,0,26,DL_Guitar,-1,-1
41,100,0.11818181818181818,40,1,27,DL_Guitar,-1,-1
41,100,0.22272727272727272,113,0,27,DL_Guitar,-1,-1
63,100,0.21818181818181817,285,0,27,DL_Guitar,-1,-1
63,100,0.2,360,0,27,DL_Guitar,-1,-1
63,100,0.5227272727272727,540,0,27,DL_Guitar,-1,-1
51,100,1.2181818181818183,656,0,27,DL_Guitar,-1,-1
63,100,0.3181818181818182,44,1,28,DL_Guitar,-1,-1
51,100,0.3409090909090909,136,0,28,DL_Guitar,-1,-1
63,100,0.4636363636363636,223,0,28,DL_Guitar,-1,-1
53,100,0.2,330,0,28,DL_Guitar,-1,-1
41,100,0.12272727272727273,399,0,28,DL_Guitar,-1,-1
48,100,1.0,694,1,28,DL_Guitar,-1,-1
51,100,0.35909090909090907,540,1,29,DL_Guitar,-1,-1
51,100,0.13636363636363635,787,1,29,DL_Guitar,-1,-1
53,100,0.22272727272727272,233,1,30,DL_Guitar,-1,-1
53,100,0.2,625,1,30,DL_Guitar,-1,-1
53,100,0.11818181818181818,691,0,30,DL_Guitar,-1,-1
51,100,1.018181818181818,853,1,31,DL_Guitar,-1,-1
51,100,0.11818181818181818,241,1,32,DL_Guitar,-1,-1
48,100,0.2409090909090909,461,1,32,DL_Guitar,-1,-1
41,100,0.2409090909090909,528,0,32,DL_Guitar,-1,-1
53,100,0.1,581,0,32,DL_Guitar,-1,-1
41,100,0.1409090909090909,861,1,32,DL_Guitar,-1,-1
53,100,0.2409090909090909,13,1,33,DL_Guitar,-1,-1
53,100,0.42272727272727273,69,0,33,DL_Guitar,-1,-1
53,100,0.22272727272727272,289,1,33,DL_Guitar,-1,-1
53,100,0.18181818181818182,351,0,33,DL_Guitar,-1,-1
53,100,0.2590909090909091,408,0,33,DL_Guitar,-1,-1
53,100,0.5409090909090909,474,0,33,DL_Guitar,-1,-1
53,100,0.2409090909090909,673,1,33,DL_Guitar,-1,-1
53,100,0.23636363636363636,743,0,33,DL_Guitar,-1,-1
53,100,0.1409090909090909,813,1,34,DL_Guitar,-1,-1
50,100,0.18181818181818182,453,1,35,DL_Guitar,-1,-1
50,100,0.1,496,0,35,DL_Guitar,-1,-1
50,100,0.2636363636363636,576,0,35,DL_Guitar,-1,-1
50,100,0.4,655,0,35,DL_Guitar,-1,-1
50,100,0.37727272727272726,40,1,36,DL_Guitar,-1,-1
55,100,0.2636363636363636,201,0,36,DL_Guitar,-1,-1
60,100,0.4590909090909091,603,1,36,DL_Guitar,-1,-1
60,100,0.5590909090909091,83,1,37,DL_Guitar,-1,-1
53,100,0.32272727272727275,606,1,37,DL_Guitar,-1,-1
41,100,0.2,703,0,37,DL_Guitar,-1,-1
41,100,0.2,751,0,37,DL_Guitar,-1,-1
41,100,0.1590909090909091,810,0,37,DL_Guitar,-1,-1
53,100,0.4,48,1,38,DL_Guitar,-1,-1
53,100,0.3,241,0,38,DL_Guitar,-1,-1
53,100,0.22272727272727272,421,0,38,DL_Guitar,-1,-1
51,100,0.16363636363636364,708,1,38,DL_Guitar,-1,-1
51,100,1.1636363636363636,751,0,38,DL_Guitar,-1,-1
51,100,0.1409090909090909,179,1,39,DL_Guitar,-1,-1
51,100,0.43636363636363634,215,0,39,DL_Guitar,-1,-1
41,100,0.1409090909090909,334,0,39,DL_Guitar,-1,-1
41,100,0.17727272727272728,515,0,39,DL_Guitar,-1,-1
41,100,0.2,713,1,39,DL_Guitar,-1,-1
60,100,0.2,783,0,39,DL_Guitar,-1,-1
53,100,0.2,8,1,40,DL_Guitar,-1,-1
53,100,0.2590909090909091,281,1,40,DL_Guitar,-1,-1
53,100,0.1409090909090909,466,0,40,DL_Guitar,-1,-1
58,100,0.4409090909090909,550,0,40,DL_Guitar,-1,-1
53,100,0.1590909090909091,668,0,40,DL_Guitar,-1,-1
53,100,0.5,853,0,40,DL_Guitar,-1,-1
51,100,0.6363636363636364,281,1,41,DL_Guitar,-1,-1
51,100,0.1409090909090909,528,1,41,DL_Guitar,-1,-1
53,100,0.2590909090909091,810,1,41,DL_Guitar,-1,-1
53,100,0.2772727272727273,118,1,42,DL_Guitar,-1,-1
41,100,0.2,251,0,42,DL_Guitar,-1,-1
48,100,2.159090909090909,528,1,43,DL_Guitar,-1,-1
48,100,0.21818181818181817,238,1,44,DL_Guitar,-1,-1
48,100,0.2818181818181818,321,0,44,DL_Guitar,-1,-1
60,100,0.6181818181818182,383,0,44,DL_Guitar,-1,-1
48,100,0.18181818181818182,550,0,44,DL_Guitar,-1,-1
51,100,0.2772727272727273,625,0,44,DL_Guitar,-1,-1
51,100,1.2,804,1,45,DL_Guitar,-1,-1
51,100,0.11818181818181818,220,1,46,DL_Guitar,-1,-1
53,100,0.11818181818181818,845,1,46,DL_Guitar,-1,-1
41,100,0.2,83,1,47,DL_Guitar,-1,-1
55,100,0.2409090909090909,295,1,48,DL_Guitar,-1,-1
45,100,0.2,641,1,48,DL_Guitar,-1,-1
57,100,0.7,826,0,48,DL_Guitar,-1,-1
57,100,0.18181818181818182,179,1,49,DL_Guitar,-1,-1
55,100,0.2636363636363636,554,1,49,DL_Guitar,-1,-1
48,100,0.11818181818181818,813,1,49,DL_Guitar,-1,-1
48,100,0.23636363636363636,875,0,49,DL_Guitar,-1,-1
53,100,0.2818181818181818,123,1,50,DL_Guitar,-1,-1
48,100,0.16363636363636364,201,0,50,DL_Guitar,-1,-1
53,100,0.2818181818181818,254,0,50,DL_Guitar,-1,-1
53,100,0.12272727272727273,378,0,50,DL_Guitar,-1,-1
55,100,2.7181818181818183,501,0,50,DL_Guitar,-1,-1
51,100,0.5590909090909091,238,1,57,DL_Guitar,-1,-1
51,100,0.18181818181818182,364,0,57,DL_Guitar,-1,-1
41,100,0.2772727272727273,691,1,57,DL_Guitar,-1,-1
41,100,0.6818181818181818,110,1,58,DL_Guitar,-1,-1
53,100,0.1,263,0,58,DL_Guitar,-1,-1
41,100,0.11818181818181818,286,0,58,DL_Guitar,-1,-1
50,100,0.7363636363636363,678,1,58,DL_Guitar,-1,-1
50,100,0.38181818181818183,66,1,59,DL_Guitar,-1,-1
50,100,1.059090909090909,163,0,59,DL_Guitar,-1,-1
50,100,0.38181818181818183,440,1,59,DL_Guitar,-1,-1
58,100,0.1590909090909091,823,1,0,Guitar,-1,-1
46,100,0.12272727272727273,70,1,1,Guitar,-1,-1
63,100,0.2409090909090909,686,1,1,Guitar,-1,-1
51,100,0.11818181818181818,866,0,1,Guitar,-1,-1
62,100,0.1409090909090909,782,1,2,Guitar,-1,-1
63,100,0.3181818181818182,83,1,3,Guitar,-1,-1
63,100,0.17727272727272728,171,0,3,Guitar,-1,-1
58,100,0.1,391,1,3,Guitar,-1,-1
46,100,0.12272727272727273,35,1,4,Guitar,-1,-1
62,100,0.11818181818181818,128,0,4,Guitar,-1,-1
62,100,0.16363636363636364,179,0,4,Guitar,-1,-1
63,100,0.1,263,0,4,Guitar,-1,-1
63,100,0.4772727272727273,317,0,4,Guitar,-1,-1
63,100,0.1409090909090909,554,1,4,Guitar,-1,-1
51,100,0.12272727272727273,585,0,4,Guitar,-1,-1
63,100,0.11818181818181818,611,0,4,Guitar,-1,-1
63,100,0.1590909090909091,695,0,4,Guitar,-1,-1
51,100,0.18181818181818182,729,0,4,Guitar,-1,-1
63,100,0.11818181818181818,792,0,4,Guitar,-1,-1
51,100,0.1,839,0,4,Guitar,-1,-1
51,100,0.3181818181818182,18,1,5,Guitar,-1,-1
63,100,0.18181818181818182,145,0,5,Guitar,-1,-1
63,100,0.1409090909090909,211,0,5,Guitar,-1,-1
51,100,0.18181818181818182,245,0,5,Guitar,-1,-1
63,100,0.2772727272727273,655,1,5,Guitar,-1,-1
51,100,0.3,792,0,5,Guitar,-1,-1
51,100,0.1,87,1,6,Guitar,-1,-1
51,100,0.1,294,1,6,Guitar,-1,-1
63,100,0.13636363636363635,348,0,6,Guitar,-1,-1
51,100,0.1409090909090909,399,0,6,Guitar,-1,-1
51,100,0.23636363636363636,634,1,6,Guitar,-1,-1
63,100,0.1590909090909091,739,0,6,Guitar,-1,-1
51,100,0.11818181818181818,831,0,6,Guitar,-1,-1
51,100,0.2409090909090909,43,1,7,Guitar,-1,-1
43,100,0.22272727272727272,386,1,7,Guitar,-1,-1
43,100,0.22272727272727272,598,1,7,Guitar,-1,-1
43,100,0.2,801,1,7,Guitar,-1,-1
55,100,0.2,123,1,8,Guitar,-1,-1
43,100,0.12272727272727273,223,0,8,Guitar,-1,-1
44,100,0.2,330,0,8,Guitar,-1,-1
44,100,0.1590909090909091,414,0,8,Guitar,-1,-1
44,100,0.17727272727272728,479,0,8,Guitar,-1,-1
44,100,0.8181818181818182,527,0,8,Guitar,-1,-1
44,100,0.1590909090909091,739,1,8,Guitar,-1,-1
44,100,0.11818181818181818,801,0,8,Guitar,-1,-1
44,100,0.4818181818181818,13,1,9,Guitar,-1,-1
44,100,0.2818181818181818,132,0,9,Guitar,-1,-1
56,100,0.12272727272727273,211,0,9,Guitar,-1,-1
63,100,0.11818181818181818,259,0,9,Guitar,-1,-1
44,100,0.1590909090909091,285,0,9,Guitar,-1,-1
63,100,0.12272727272727273,355,0,9,Guitar,-1,-1
44,100,0.3,383,0,9,Guitar,-1,-1
44,100,0.16363636363636364,465,0,9,Guitar,-1,-1
46,100,0.12272727272727273,563,0,9,Guitar,-1,-1
46,100,0.12272727272727273,651,0,9,Guitar,-1,-1
46,100,0.1,778,0,9,Guitar,-1,-1
46,100,0.3,804,0,9,Guitar,-1,-1
46,100,0.12272727272727273,135,1,10,Guitar,-1,-1
46,100,0.3,276,0,10,Guitar,-1,-1
46,100,0.4590909090909091,374,0,10,Guitar,-1,-1
46,100,0.3,541,0,10,Guitar,-1,-1
51,100,0.3,814,1,10,Guitar,-1,-1
51,100,0.3181818181818182,17,1,11,Guitar,-1,-1
51,100,0.2590909090909091,220,1,11,Guitar,-1,-1
51,100,0.1409090909090909,299,0,11,Guitar,-1,-1
51,100,0.2409090909090909,360,0,11,Guitar,-1,-1
51,100,0.2636363636363636,465,0,11,Guitar,-1,-1
51,100,0.2772727272727273,581,0,11,Guitar,-1,-1
51,100,0.1590909090909091,646,0,11,Guitar,-1,-1
51,100,0.2,713,0,11,Guitar,-1,-1
51,100,0.1,809,0,11,Guitar,-1,-1
51,100,0.1,53,1,12,Guitar,-1,-1
43,100,0.1409090909090909,360,1,12,Guitar,-1,-1
43,100,0.18181818181818182,510,0,12,Guitar,-1,-1
43,100,0.17727272727272728,581,0,12,Guitar,-1,-1
43,100,0.16363636363636364,642,0,12,Guitar,-1,-1
43,100,0.2772727272727273,96,1,13,Guitar,-1,-1
63,100,0.16363636363636364,180,0,13,Guitar,-1,-1
63,100,0.1,268,0,13,Guitar,-1,-1
51,100,0.18181818181818182,299,0,13,Guitar,-1,-1
56,100,0.3409090909090909,360,0,13,Guitar,-1,-1
44,100,0.23636363636363636,436,0,13,Guitar,-1,-1
44,100,0.2409090909090909,505,0,13,Guitar,-1,-1
44,100,0.17727272727272728,625,0,13,Guitar,-1,-1
56,100,0.18181818181818182,663,0,13,Guitar,-1,-1
46,100,0.3409090909090909,849,0,13,Guitar,-1,-1
58,100,0.2,44,1,14,Guitar,-1,-1
63,100,0.1590909090909091,118,0,14,Guitar,-1,-1
46,100,0.18181818181818182,189,0,14,Guitar,-1,-1
46,100,0.3409090909090909,250,0,14,Guitar,-1,-1
46,100,0.1409090909090909,330,0,14,Guitar,-1,-1
51,100,0.2590909090909091,56,1,15,Guitar,-1,-1
46,100,0.21818181818181817,264,1,15,Guitar,-1,-1
51,100,0.3,391,0,15,Guitar,-1,-1
46,100,0.11818181818181818,550,0,15,Guitar,-1,-1
55,100,0.17727272727272728,52,1,16,Guitar,-1,-1
63,100,0.11818181818181818,220,0,16,Guitar,-1,-1
55,100,0.1,254,0,16,Guitar,-1,-1
63,100,0.11818181818181818,351,0,16,Guitar,-1,-1
63,100,0.13636363636363635,436,0,16,Guitar,-1,-1
63,100,0.21818181818181817,492,0,16,Guitar,-1,-1
43,100,0.1409090909090909,9,1,17,Guitar,-1,-1
43,100,0.21818181818181817,75,0,17,Guitar,-1,-1
43,100,0.2409090909090909,210,0,17,Guitar,-1,-1
43,100,0.1,303,0,17,Guitar,-1,-1
43,100,0.4409090909090909,470,0,17,Guitar,-1,-1
43,100,0.12272727272727273,752,1,17,Guitar,-1,-1
58,100,0.11818181818181818,845,0,17,Guitar,-1,-1
44,100,0.3,466,1,18,Guitar,-1,-1
44,100,0.2,629,0,18,Guitar,-1,-1
56,100,0.11818181818181818,700,0,18,Guitar,-1,-1
56,100,0.11818181818181818,735,0,18,Guitar,-1,-1
51,100,0.11818181818181818,44,1,19,Guitar,-1,-1
56,100,0.3181818181818182,88,0,19,Guitar,-1,-1
44,100,0.1409090909090909,185,0,19,Guitar,-1,-1
44,100,0.1409090909090909,316,0,19,Guitar,-1,-1
56,100,0.1,347,0,19,Guitar,-1,-1
44,100,0.1409090909090909,374,0,19,Guitar,-1,-1
46,100,0.1409090909090909,581,1,19,Guitar,-1,-1
46,100,0.1,633,0,19,Guitar,-1,-1
46,100,0.1590909090909091,660,0,19,Guitar,-1,-1
46,100,0.2,770,0,19,Guitar,-1,-1
46,100,0.2590909090909091,866,0,19,Guitar,-1,-1
46,100,0.11818181818181818,75,1,20,Guitar,-1,-1
46,100,0.18181818181818182,110,0,20,Guitar,-1,-1
46,100,0.6,250,0,20,Guitar,-1,-1
46,100,0.4590909090909091,391,0,20,Guitar,-1,-1
46,100,0.32272727272727275,519,0,20,Guitar,-1,-1
44,100,0.1590909090909091,810,1,20,Guitar,-1,-1
44,100,0.1,870,0,20,Guitar,-1,-1
56,100,0.1590909090909091,65,1,21,Guitar,-1,-1
63,100,0.1590909090909091,185,0,21,Guitar,-1,-1
63,100,0.22272727272727272,268,0,21,Guitar,-1,-1
63,100,0.11818181818181818,339,0,21,Guitar,-1,-1
44,100,0.11818181818181818,546,1,21,Guitar,-1,-1
44,100,0.17727272727272728,590,0,21,Guitar,-1,-1
63,100,0.17727272727272728,735,0,21,Guitar,-1,-1
63,100,0.12272727272727273,553,1,22,Guitar,-1,-1
51,100,0.1590909090909091,743,0,22,Guitar,-1,-1
51,100,0.1,272,1,23,Guitar,-1,-1
51,100,0.2818181818181818,308,0,23,Guitar,-1,-1
63,100,0.1,633,1,23,Guitar,-1,-1
63,100,0.5772727272727273,876,1,23,Guitar,-1,-1
63,100,0.11818181818181818,131,1,24,Guitar,-1,-1
63,100,0.18181818181818182,285,0,24,Guitar,-1,-1
46,100,0.12272727272727273,202,1,25,Guitar,-1,-1
46,100,0.1409090909090909,289,0,25,Guitar,-1,-1
46,100,0.5363636363636364,347,0,25,Guitar,-1,-1
58,100,0.1590909090909091,691,1,25,Guitar,-1,-1
46,100,0.1590909090909091,725,0,25,Guitar,-1,-1
46,100,0.3409090909090909,849,0,25,Guitar,-1,-1
46,100,0.12272727272727273,69,1,26,Guitar,-1,-1
46,100,0.35909090909090907,229,0,26,Guitar,-1,-1
63,100,0.11818181818181818,590,1,26,Guitar,-1,-1
64,100,0.1590909090909091,625,0,26,Guitar,-1,-1
51,100,0.1590909090909091,717,1,27,Guitar,-1,-1
63,100,0.1409090909090909,822,0,27,Guitar,-1,-1
46,100,0.2409090909090909,246,1,28,Guitar,-1,-1
46,100,0.21818181818181817,440,0,28,Guitar,-1,-1
46,100,0.1,760,1,28,Guitar,-1,-1
46,100,0.1409090909090909,796,0,28,Guitar,-1,-1
46,100,0.12272727272727273,3,1,29,Guitar,-1,-1
62,100,0.12272727272727273,202,1,29,Guitar,-1,-1
46,100,0.11818181818181818,382,0,29,Guitar,-1,-1
63,100,0.1590909090909091,810,1,29,Guitar,-1,-1
63,100,0.21818181818181817,866,1,30,Guitar,-1,-1
63,100,0.2818181818181818,113,1,31,Guitar,-1,-1
63,100,0.22272727272727272,254,0,31,Guitar,-1,-1
63,100,0.18181818181818182,422,0,31,Guitar,-1,-1
63,100,0.2590909090909091,528,0,31,Guitar,-1,-1
63,100,0.6,598,0,31,Guitar,-1,-1
56,100,0.17727272727272728,822,1,31,Guitar,-1,-1
51,100,0.1409090909090909,21,1,32,Guitar,-1,-1
63,100,0.11818181818181818,303,1,32,Guitar,-1,-1
51,100,0.11818181818181818,405,0,32,Guitar,-1,-1
46,100,0.18181818181818182,628,1,32,Guitar,-1,-1
51,100,0.1,311,1,33,Guitar,-1,-1
63,100,0.3,408,0,33,Guitar,-1,-1
51,100,0.4818181818181818,474,0,33,Guitar,-1,-1
51,100,0.18181818181818182,101,1,34,Guitar,-1,-1
63,100,0.1590909090909091,391,1,34,Guitar,-1,-1
51,100,0.18181818181818182,708,1,34,Guitar,-1,-1
51,100,0.2409090909090909,774,0,34,Guitar,-1,-1
58,100,0.2818181818181818,298,1,35,Guitar,-1,-1
58,100,0.12272727272727273,474,0,35,Guitar,-1,-1
46,100,0.11818181818181818,523,0,35,Guitar,-1,-1
63,100,0.11818181818181818,735,1,35,Guitar,-1,-1
63,100,0.11818181818181818,110,1,36,Guitar,-1,-1
63,100,0.2,246,0,36,Guitar,-1,-1
58,100,0.2,316,0,36,Guitar,-1,-1
63,100,0.18181818181818182,651,1,36,Guitar,-1,-1
63,100,0.22272727272727272,179,1,37,Guitar,-1,-1
63,100,0.11818181818181818,295,0,37,Guitar,-1,-1
58,100,0.1590909090909091,743,1,37,Guitar,-1,-1
58,100,0.22272727272727272,871,0,37,Guitar,-1,-1
58,100,0.2,66,1,38,Guitar,-1,-1
58,100,0.3,118,0,38,Guitar,-1,-1
58,100,0.11818181818181818,215,0,38,Guitar,-1,-1
58,100,0.11818181818181818,295,0,38,Guitar,-1,-1
58,100,0.1590909090909091,343,0,38,Guitar,-1,-1
58,100,0.18181818181818182,396,0,38,Guitar,-1,-1
51,100,0.1409090909090909,8,1,39,Guitar,-1,-1
53,100,0.2409090909090909,66,0,39,Guitar,-1,-1
63,100,0.22272727272727272,211,0,39,Guitar,-1,-1
55,100,0.1409090909090909,289,0,39,Guitar,-1,-1
55,100,0.18181818181818182,351,0,39,Guitar,-1,-1
62,100,0.37727272727272726,480,0,39,Guitar,-1,-1
50,100,0.1590909090909091,563,0,39,Guitar,-1,-1
63,100,0.21818181818181817,748,0,39,Guitar,-1,-1
51,100,0.13636363636363635,831,0,39,Guitar,-1,-1
58,100,0.16363636363636364,26,1,40,Guitar,-1,-1
58,100,0.17727272727272728,83,0,40,Guitar,-1,-1
53,100,0.2409090909090909,286,1,40,Guitar,-1,-1
53,100,0.18181818181818182,364,0,40,Guitar,-1,-1
55,100,0.11818181818181818,493,0,40,Guitar,-1,-1
50,100,0.21818181818181817,700,1,40,Guitar,-1,-1
50,100,0.1590909090909091,770,0,40,Guitar,-1,-1
51,100,0.16363636363636364,26,1,41,Guitar,-1,-1
51,100,0.18181818181818182,101,0,41,Guitar,-1,-1
63,100,0.2772727272727273,141,0,41,Guitar,-1,-1
62,100,0.21818181818181817,31,1,42,Guitar,-1,-1
62,100,0.22272727272727272,166,0,42,Guitar,-1,-1
63,100,0.41818181818181815,286,0,42,Guitar,-1,-1
63,100,0.3181818181818182,625,1,42,Guitar,-1,-1
51,100,0.2409090909090909,848,1,42,Guitar,-1,-1
58,100,0.1,166,1,43,Guitar,-1,-1
51,100,0.1590909090909091,238,0,43,Guitar,-1,-1
63,100,0.18181818181818182,421,0,43,Guitar,-1,-1
51,100,0.21818181818181817,461,0,43,Guitar,-1,-1
63,100,0.2409090909090909,726,1,43,Guitar,-1,-1
43,100,0.1590909090909091,858,0,43,Guitar,-1,-1
58,100,0.1590909090909091,53,1,44,Guitar,-1,-1
43,100,0.11818181818181818,260,1,44,Guitar,-1,-1
43,100,0.1,386,0,44,Guitar,-1,-1
58,100,0.22272727272727272,453,0,44,Guitar,-1,-1
43,100,0.2,531,0,44,Guitar,-1,-1
58,100,0.18181818181818182,593,0,44,Guitar,-1,-1
58,100,0.1409090909090909,716,0,44,Guitar,-1,-1
57,100,0.11818181818181818,748,0,44,Guitar,-1,-1
58,100,0.2,853,0,44,Guitar,-1,-1
53,100,0.4590909090909091,53,1,45,Guitar,-1,-1
53,100,0.21818181818181817,193,0,45,Guitar,-1,-1
53,100,0.11818181818181818,281,0,45,Guitar,-1,-1
56,100,0.11818181818181818,413,0,45,Guitar,-1,-1
56,100,0.11818181818181818,536,0,45,Guitar,-1,-1
53,100,0.3409090909090909,581,0,45,Guitar,-1,-1
55,100,0.3,664,0,45,Guitar,-1,-1
55,100,0.2772727272727273,801,0,45,Guitar,-1,-1
55,100,0.4818181818181818,56,1,46,Guitar,-1,-1
55,100,0.22272727272727272,188,0,46,Guitar,-1,-1
44,100,0.1409090909090909,263,0,46,Guitar,-1,-1
51,100,0.1409090909090909,330,0,46,Guitar,-1,-1
56,100,0.2409090909090909,466,0,46,Guitar,-1,-1
56,100,0.22272727272727272,606,0,46,Guitar,-1,-1
51,100,0.2,743,0,46,Guitar,-1,-1
56,100,0.3409090909090909,871,0,46,Guitar,-1,-1
44,100,0.16363636363636364,69,1,47,Guitar,-1,-1
56,100,0.36363636363636365,136,0,47,Guitar,-1,-1
56,100,0.2409090909090909,273,0,47,Guitar,-1,-1
44,100,0.1590909090909091,418,0,47,Guitar,-1,-1
58,100,0.22272727272727272,488,0,47,Guitar,-1,-1
58,100,0.4772727272727273,545,0,47,Guitar,-1,-1
58,100,0.3,673,0,47,Guitar,-1,-1
58,100,0.17727272727272728,823,0,47,Guitar,-1,-1
53,100,0.1409090909090909,21,1,48,Guitar,-1,-1
58,100,0.3,69,0,48,Guitar,-1,-1
58,100,0.5636363636363636,201,0,48,Guitar,-1,-1
58,100,0.12272727272727273,334,0,48,Guitar,-1,-1
46,100,0.2,361,0,48,Guitar,-1,-1
58,100,0.3,405,0,48,Guitar,-1,-1
58,100,0.3,474,0,48,Guitar,-1,-1
51,100,0.3,691,1,48,Guitar,-1,-1
51,100,0.2,171,1,49,Guitar,-1,-1
51,100,0.1409090909090909,246,0,49,Guitar,-1,-1
51,100,0.5772727272727273,295,0,49,Guitar,-1,-1
51,100,0.5,435,0,49,Guitar,-1,-1
51,100,0.23636363636363636,568,0,49,Guitar,-1,-1
51,100,0.5409090909090909,638,0,49,Guitar,-1,-1
53,100,0.5181818181818182,40,1,50,Guitar,-1,-1
53,100,0.2818181818181818,444,1,50,Guitar,-1,-1
50,100,0.3,836,1,50,Guitar,-1,-1
51,100,0.11818181818181818,141,1,51,Guitar,-1,-1
51,100,0.5636363636363636,246,0,51,Guitar,-1,-1
51,100,0.2409090909090909,448,1,51,Guitar,-1,-1
51,100,0.18181818181818182,531,0,51,Guitar,-1,-1
53,100,0.11818181818181818,853,1,51,Guitar,-1,-1
58,100,0.1590909090909091,628,1,52,Guitar,-1,-1
63,100,0.21818181818181817,735,0,52,Guitar,-1,-1
51,100,0.1409090909090909,4,1,53,Guitar,-1,-1
51,100,0.4,96,0,53,Guitar,-1,-1
63,100,0.11818181818181818,198,0,53,Guitar,-1,-1
63,100,0.2,268,0,53,Guitar,-1,-1
63,100,0.3409090909090909,408,0,53,Guitar,-1,-1
51,100,0.11818181818181818,483,0,53,Guitar,-1,-1
63,100,0.18181818181818182,708,1,54,Guitar,-1,-1
63,100,0.2409090909090909,153,1,55,Guitar,-1,-1
44,100,0.21818181818181817,273,0,55,Guitar,-1,-1
51,100,0.1,166,1,56,Guitar,-1,-1
51,100,0.3181818181818182,351,0,56,Guitar,-1,-1
51,100,0.11818181818181818,483,1,57,Guitar,-1,-1
63,100,0.12272727272727273,444,1,58,Guitar,-1,-1
46,100,0.1590909090909091,791,1,58,Guitar,-1,-1
46,100,0.1409090909090909,383,1,59,Guitar,-1,-1
51,100,0.1,141,1,60,Guitar,-1,-1
51,100,0.22272727272727272,466,1,60,Guitar,-1,-1
63,100,0.1409090909090909,343,1,61,Guitar,-1,-1
63,100,0.18181818181818182,751,1,61,Guitar,-1,-1
63,100,0.4590909090909091,848,1,63,Guitar,-1,-1
63,100,0.1,87,1,64,Guitar,-1,-1
51,100,0.1,123,0,64,Guitar,-1,-1
63,100,0.2818181818181818,145,0,64,Guitar,-1,-1
51,100,0.1590909090909091,383,1,64,Guitar,-1,-1
56,100,0.35909090909090907,866,1,64,Guitar,-1,-1
51,100,0.18181818181818182,246,1,65,Guitar,-1,-1
51,100,0.11818181818181818,457,1,65,Guitar,-1,-1
44,100,0.1409090909090909,509,0,65,Guitar,-1,-1
56,100,0.17727272727272728,713,1,65,Guitar,-1,-1
48,100,0.5227272727272727,56,1,67,Guitar,-1,-1
48,100,0.1590909090909091,220,0,67,Guitar,-1,-1
51,100,0.1,26,1,68,Guitar,-1,-1
58,100,0.1,74,1,69,Guitar,-1,-1
63,100,0.2,140,0,69,Guitar,-1,-1
53,100,0.1,282,0,69,Guitar,-1,-1
53,100,0.11818181818181818,677,1,69,Guitar,-1,-1
46,100,0.2409090909090909,9,1,70,Guitar,-1,-1
53,100,0.2,153,0,70,Guitar,-1,-1
53,100,0.12272727272727273,356,1,70,Guitar,-1,-1
53,100,0.18181818181818182,422,0,70,Guitar,-1,-1
46,100,0.38181818181818183,637,1,70,Guitar,-1,-1
58,100,0.2,96,1,71,Guitar,-1,-1
51,100,0.4590909090909091,250,0,71,Guitar,-1,-1
51,100,0.17727272727272728,360,0,71,Guitar,-1,-1
51,100,0.12272727272727273,443,0,71,Guitar,-1,-1
51,100,0.17727272727272728,713,1,71,Guitar,-1,-1
51,100,0.1,56,1,72,Guitar,-1,-1
51,100,0.1409090909090909,163,0,72,Guitar,-1,-1
58,100,0.1,136,1,73,Guitar,-1,-1
46,100,0.2818181818181818,166,0,73,Guitar,-1,-1
46,100,0.11818181818181818,392,1,73,Guitar,-1,-1
46,100,0.1590909090909091,449,0,73,Guitar,-1,-1
43,100,0.18181818181818182,660,1,73,Guitar,-1,-1
62,100,0.1,734,0,73,Guitar,-1,-1
48,100,0.2590909090909091,250,1,74,Guitar,-1,-1
51,100,0.5818181818181818,312,1,76,Guitar,-1,-1
51,100,0.1409090909090909,483,0,76,Guitar,-1,-1
51,100,0.2409090909090909,536,0,76,Guitar,-1,-1
51,100,0.2,593,0,76,Guitar,-1,-1
63,100,0.1590909090909091,233,1,77,Guitar,-1,-1
51,100,0.12272727272727273,686,1,77,Guitar,-1,-1
43,100,0.1409090909090909,35,1,78,Guitar,-1,-1
43,100,0.11818181818181818,347,1,78,Guitar,-1,-1
43,100,0.1409090909090909,462,0,78,Guitar,-1,-1
63,100,0.11818181818181818,792,1,78,Guitar,-1,-1
44,100,0.2590909090909091,823,0,78,Guitar,-1,-1
51,100,0.1590909090909091,166,1,79,Guitar,-1,-1
63,100,0.1,246,0,79,Guitar,-1,-1
48,100,0.2590909090909091,163,1,80,Guitar,-1,-1
63,100,0.11818181818181818,726,1,81,Guitar,-1,-1
53,100,0.17727272727272728,127,1,82,Guitar,-1,-1
53,100,0.2,184,0,82,Guitar,-1,-1
46,100,0.17727272727272728,316,0,82,Guitar,-1,-1
46,100,0.2,466,0,82,Guitar,-1,-1
46,100,0.2590909090909091,572,0,82,Guitar,-1,-1
53,100,0.18181818181818182,663,0,82,Guitar,-1,-1
51,100,0.1,800,0,82,Guitar,-1,-1
63,100,0.12272727272727273,3,1,83,Guitar,-1,-1
58,100,0.2,677,1,83,Guitar,-1,-1
46,100,0.17727272727272728,743,0,83,Guitar,-1,-1
62,100,0.3181818181818182,263,1,84,Guitar,-1,-1
63,100,0.6818181818181818,483,1,84,Guitar,-1,-1
62,100,0.2590909090909091,480,1,85,Guitar,-1,-1
62,100,0.5227272727272727,553,0,85,Guitar,-1,-1
63,100,0.3409090909090909,703,0,85,Guitar,-1,-1
63,100,0.4,783,0,85,Guitar,-1,-1
63,100,0.2590909090909091,13,1,86,Guitar,-1,-1
51,100,0.2,100,0,86,Guitar,-1,-1
56,100,0.1409090909090909,365,1,86,Guitar,-1,-1
63,100,0.1,443,0,86,Guitar,-1,-1
51,100,0.2636363636363636,466,0,86,Guitar,-1,-1
43,100,0.22272727272727272,312,1,87,Guitar,-1,-1
48,100,0.22272727272727272,35,1,88,Guitar,-1,-1
44,100,0.2,677,1,88,Guitar,-1,-1
63,100,0.11818181818181818,722,0,88,Guitar,-1,-1
44,100,0.3,770,0,88,Guitar,-1,-1
63,100,0.2590909090909091,106,1,89,Guitar,-1,-1
46,100,0.1,282,0,89,Guitar,-1,-1
43,100,0.2590909090909091,457,1,90,Guitar,-1,-1
55,100,0.5363636363636364,523,0,90,Guitar,-1,-1
55,100,0.7772727272727272,646,0,90,Guitar,-1,-1
44,100,0.12272727272727273,157,1,91,Guitar,-1,-1
46,100,0.1590909090909091,646,1,91,Guitar,-1,-1
46,100,0.17727272727272728,734,0,91,Guitar,-1,-1
46,100,0.5,876,0,91,Guitar,-1,-1
43,100,0.1590909090909091,0,1,93,Guitar,-1,-1
46,100,0.6409090909090909,79,1,95,Guitar,-1,-1
44,100,0.1,123,1,96,Guitar,-1,-1
44,100,0.35909090909090907,150,0,96,Guitar,-1,-1
46,100,0.4,624,1,96,Guitar,-1,-1
46,100,0.1,756,0,96,Guitar,-1,-1
46,100,0.6363636363636364,853,0,96,Guitar,-1,-1
43,100,0.16363636363636364,333,1,97,Guitar,-1,-1
58,100,0.18181818181818182,597,1,97,Guitar,-1,-1
44,100,0.2818181818181818,593,1,98,Guitar,-1,-1
46,100,0.11818181818181818,176,1,99,Guitar,-1,-1
46,100,0.2409090909090909,206,0,99,Guitar,-1,-1
46,100,0.1,307,0,99,Guitar,-1,-1
43,100,0.22272727272727272,752,1,99,Guitar,-1,-1
44,100,0.3,136,1,101,Guitar,-1,-1
46,100,0.4,593,1,101,Guitar,-1,-1
46,100,0.1,734,0,101,Guitar,-1,-1
43,100,0.1409090909090909,307,1,102,Guitar,-1,-1
44,100,0.2,593,1,103,Guitar,-1,-1
51,100,0.1,783,0,103,Guitar,-1,-1
46,100,0.1409090909090909,145,1,104,Guitar,-1,-1
46,100,0.35909090909090907,184,0,104,Guitar,-1,-1
46,100,0.1409090909090909,276,0,104,Guitar,-1,-1
46,100,0.1409090909090909,343,0,104,Guitar,-1,-1
58,100,0.2409090909090909,870,1,105,Guitar,-1,-1
62,100,0.2,616,1,106,Guitar,-1,-1
50,100,0.12272727272727273,695,0,106,Guitar,-1,-1
63,100,0.5181818181818182,22,1,107,Guitar,-1,-1
62,100,0.2590909090909091,823,1,107,Guitar,-1,-1
62,100,0.2409090909090909,13,1,108,Guitar,-1,-1
62,100,0.3,163,1,109,Guitar,-1,-1
62,100,0.1409090909090909,242,0,109,Guitar,-1,-1
63,100,0.21818181818181817,383,0,109,Guitar,-1,-1
63,100,0.16363636363636364,443,0,109,Guitar,-1,-1
63,100,0.1,509,0,109,Guitar,-1,-1
46,100,0.11818181818181818,660,0,109,Guitar,-1,-1
46,100,0.13636363636363635,766,0,109,Guitar,-1,-1
58,100,0.1409090909090909,163,1,110,Guitar,-1,-1
63,100,0.17727272727272728,237,0,110,Guitar,-1,-1
51,100,0.1409090909090909,443,1,110,Guitar,-1,-1
51,100,0.11818181818181818,502,0,110,Guitar,-1,-1
51,100,1.0636363636363637,839,1,110,Guitar,-1,-1
51,100,0.1590909090909091,210,1,111,Guitar,-1,-1
51,100,0.759090909090909,250,0,111,Guitar,-1,-1
51,100,5.9,443,0,111,Guitar,-1,-1
51,100,0.5590909090909091,17,1,113,Guitar,-1,-1
53,100,0.2818181818181818,510,1,0,DL_heartfullpop_2_Guitar,-1,-1
41,100,0.11818181818181818,647,0,0,DL_heartfullpop_2_Guitar,-1,-1
60,100,0.1409090909090909,673,0,0,DL_heartfullpop_2_Guitar,-1,-1
60,100,0.16363636363636364,708,0,0,DL_heartfullpop_2_Guitar,-1,-1
60,100,0.2,748,0,0,DL_heartfullpop_2_Guitar,-1,-1
60,100,0.1,801,0,0,DL_heartfullpop_2_Guitar,-1,-1
41,100,0.18181818181818182,35,1,1,DL_heartfullpop_2_Guitar,-1,-1
60,100,0.1590909090909091,343,1,1,DL_heartfullpop_2_Guitar,-1,-1
48,100,0.2409090909090909,475,0,1,DL_heartfullpop_2_Guitar,-1,-1
60,100,0.3,695,1,1,DL_heartfullpop_2_Guitar,-1,-1
53,100,0.16363636363636364,796,0,1,DL_heartfullpop_2_Guitar,-1,-1
48,100,0.22272727272727272,871,0,1,DL_heartfullpop_2_Guitar,-1,-1
41,100,0.12272727272727273,70,1,2,DL_heartfullpop_2_Guitar,-1,-1
60,100,0.21818181818181817,106,0,2,DL_heartfullpop_2_Guitar,-1,-1
41,100,0.1590909090909091,189,0,2,DL_heartfullpop_2_Guitar,-1,-1
41,100,0.11818181818181818,528,1,2,DL_heartfullpop_2_Guitar,-1,-1
41,100,0.1409090909090909,581,0,2,DL_heartfullpop_2_Guitar,-1,-1
60,100,0.3409090909090909,616,0,2,DL_heartfullpop_2_Guitar,-1,-1
53,100,0.12272727272727273,694,0,2,DL_heartfullpop_2_Guitar,-1,-1
60,100,0.3,761,0,2,DL_heartfullpop_2_Guitar,-1,-1
50,100,0.16363636363636364,223,1,3,DL_heartfullpop_2_Guitar,-1,-1
50,100,0.2,449,1,3,DL_heartfullpop_2_Guitar,-1,-1
50,100,0.2409090909090909,660,1,3,DL_heartfullpop_2_Guitar,-1,-1
50,100,0.4590909090909091,228,1,4,DL_heartfullpop_2_Guitar,-1,-1
50,100,0.3181818181818182,348,0,4,DL_heartfullpop_2_Guitar,-1,-1
50,100,0.1,585,1,4,DL_heartfullpop_2_Guitar,-1,-1
53,100,0.13636363636363635,875,1,4,DL_heartfullpop_2_Guitar,-1,-1
50,100,0.2818181818181818,122,1,5,DL_heartfullpop_2_Guitar,-1,-1
58,100,0.2,391,1,5,DL_heartfullpop_2_Guitar,-1,-1
46,100,0.35909090909090907,493,0,5,DL_heartfullpop_2_Guitar,-1,-1
53,100,0.1590909090909091,721,1,5,DL_heartfullpop_2_Guitar,-1,-1
53,100,0.4409090909090909,770,0,5,DL_heartfullpop_2_Guitar,-1,-1
46,100,0.1,0,1,6,DL_heartfullpop_2_Guitar,-1,-1
53,100,0.1590909090909091,150,0,6,DL_heartfullpop_2_Guitar,-1,-1
53,100,0.17727272727272728,545,1,6,DL_heartfullpop_2_Guitar,-1,-1
53,100,0.12272727272727273,598,0,6,DL_heartfullpop_2_Guitar,-1,-1
53,100,0.11818181818181818,721,0,6,DL_heartfullpop_2_Guitar,-1,-1
53,100,0.11818181818181818,801,0,6,DL_heartfullpop_2_Guitar,-1,-1
46,100,0.12272727272727273,399,1,7,DL_heartfullpop_2_Guitar,-1,-1
53,100,0.38181818181818183,506,0,7,DL_heartfullpop_2_Guitar,-1,-1
50,100,0.1,163,1,8,DL_heartfullpop_2_Guitar,-1,-1
50,100,0.1409090909090909,343,0,8,DL_heartfullpop_2_Guitar,-1,-1
50,100,0.23636363636363636,414,0,8,DL_heartfullpop_2_Guitar,-1,-1
50,100,0.1,691,1,8,DL_heartfullpop_2_Guitar,-1,-1
50,100,0.2818181818181818,25,1,9,DL_heartfullpop_2_Guitar,-1,-1
50,100,0.2,113,0,9,DL_heartfullpop_2_Guitar,-1,-1
50,100,0.1409090909090909,321,1,9,DL_heartfullpop_2_Guitar,-1,-1
50,100,0.8,369,0,9,DL_heartfullpop_2_Guitar,-1,-1
50,100,0.42272727272727273,629,1,9,DL_heartfullpop_2_Guitar,-1,-1
53,100,0.3409090909090909,13,1,10,DL_heartfullpop_2_Guitar,-1,-1
53,100,0.4,118,0,10,DL_heartfullpop_2_Guitar,-1,-1
60,100,0.4772727272727273,216,0,10,DL_heartfullpop_2_Guitar,-1,-1
60,100,0.5590909090909091,391,0,10,DL_heartfullpop_2_Guitar,-1,-1
53,100,0.23636363636363636,524,0,10,DL_heartfullpop_2_Guitar,-1,-1
60,100,0.5409090909090909,584,0,10,DL_heartfullpop_2_Guitar,-1,-1
53,100,0.3,756,0,10,DL_heartfullpop_2_Guitar,-1,-1
53,100,0.2772727272727273,17,1,11,DL_heartfullpop_2_Guitar,-1,-1
53,100,0.12272727272727273,113,0,11,DL_heartfullpop_2_Guitar,-1,-1
53,100,0.3181818181818182,149,0,11,DL_heartfullpop_2_Guitar,-1,-1
60,100,0.5363636363636364,281,0,11,DL_heartfullpop_2_Guitar,-1,-1
60,100,0.1,422,0,11,DL_heartfullpop_2_Guitar,-1,-1
57,100,0.5,61,1,12,DL_heartfullpop_2_Guitar,-1,-1
62,100,0.2,206,0,12,DL_heartfullpop_2_Guitar,-1,-1
61,100,0.1409090909090909,250,0,12,DL_heartfullpop_2_Guitar,-1,-1
53,100,0.3181818181818182,307,0,12,DL_heartfullpop_2_Guitar,-1,-1
58,100,0.5181818181818182,594,1,12,DL_heartfullpop_2_Guitar,-1,-1
58,100,0.2409090909090909,233,1,13,DL_heartfullpop_2_Guitar,-1,-1
53,100,0.21818181818181817,589,1,13,DL_heartfullpop_2_Guitar,-1,-1
48,100,2.7181818181818183,637,0,13,DL_heartfullpop_2_Guitar,-1,-1
48,100,0.6818181818181818,496,1,14,DL_heartfullpop_2_Guitar,-1,-1
53,100,0.22272727272727272,708,1,14,DL_heartfullpop_2_Guitar,-1,-1
60,100,0.2409090909090909,773,0,14,DL_heartfullpop_2_Guitar,-1,-1
60,100,0.23636363636363636,831,0,14,DL_heartfullpop_2_Guitar,-1,-1
41,100,0.2,8,1,15,DL_heartfullpop_2_Guitar,-1,-1
53,100,0.2409090909090909,70,0,15,DL_heartfullpop_2_Guitar,-1,-1
53,100,0.42272727272727273,158,0,15,DL_heartfullpop_2_Guitar,-1,-1
53,100,0.35909090909090907,254,0,15,DL_heartfullpop_2_Guitar,-1,-1
53,100,0.35909090909090907,391,0,15,DL_heartfullpop_2_Guitar,-1,-1
60,100,0.33636363636363636,656,1,15,DL_heartfullpop_2_Guitar,-1,-1
60,100,0.11818181818181818,756,0,15,DL_heartfullpop_2_Guitar,-1,-1
60,100,0.1,840,0,15,DL_heartfullpop_2_Guitar,-1,-1
60,100,0.1409090909090909,866,0,15,DL_heartfullpop_2_Guitar,-1,-1
53,100,0.22272727272727272,26,1,16,DL_heartfullpop_2_Guitar,-1,-1
60,100,0.12272727272727273,92,0,16,DL_heartfullpop_2_Guitar,-1,-1
41,100,0.2,167,0,16,DL_heartfullpop_2_Guitar,-1,-1
60,100,0.2590909090909091,220,0,16,DL_heartfullpop_2_Guitar,-1,-1
60,100,0.18181818181818182,308,0,16,DL_heartfullpop_2_Guitar,-1,-1
53,100,0.21818181818181817,347,0,16,DL_heartfullpop_2_Guitar,-1,-1
41,100,0.1590909090909091,440,0,16,DL_heartfullpop_2_Guitar,-1,-1
60,100,0.17727272727272728,501,0,16,DL_heartfullpop_2_Guitar,-1,-1
53,100,0.35909090909090907,540,0,16,DL_heartfullpop_2_Guitar,-1,-1
41,100,0.11818181818181818,625,0,16,DL_heartfullpop_2_Guitar,-1,-1
53,100,0.4,669,0,16,DL_heartfullpop_2_Guitar,-1,-1
53,100,0.11818181818181818,9,1,17,DL_heartfullpop_2_Guitar,-1,-1
53,100,0.4590909090909091,57,0,17,DL_heartfullpop_2_Guitar,-1,-1
62,100,0.1409090909090909,175,0,17,DL_heartfullpop_2_Guitar,-1,-1
62,100,0.11818181818181818,216,0,17,DL_heartfullpop_2_Guitar,-1,-1
50,100,0.4772727272727273,303,0,17,DL_heartfullpop_2_Guitar,-1,-1
50,100,0.1409090909090909,515,1,17,DL_heartfullpop_2_Guitar,-1,-1
57,100,0.32272727272727275,576,0,17,DL_heartfullpop_2_Guitar,-1,-1
62,100,0.18181818181818182,663,0,17,DL_heartfullpop_2_Guitar,-1,-1
62,100,0.1409090909090909,783,0,17,DL_heartfullpop_2_Guitar,-1,-1
57,100,0.11818181818181818,295,1,18,DL_heartfullpop_2_Guitar,-1,-1
50,100,0.5,333,0,18,DL_heartfullpop_2_Guitar,-1,-1
62,100,0.2818181818181818,443,0,18,DL_heartfullpop_2_Guitar,-1,-1
53,100,0.3,607,0,18,DL_heartfullpop_2_Guitar,-1,-1
50,100,0.1590909090909091,743,0,18,DL_heartfullpop_2_Guitar,-1,-1
50,100,0.3181818181818182,787,0,18,DL_heartfullpop_2_Guitar,-1,-1
62,100,0.21818181818181817,858,0,18,DL_heartfullpop_2_Guitar,-1,-1
50,100,0.2,303,1,19,DL_heartfullpop_2_Guitar,-1,-1
60,100,0.2409090909090909,405,0,19,DL_heartfullpop_2_Guitar,-1,-1
53,100,0.2636363636363636,488,0,19,DL_heartfullpop_2_Guitar,-1,-1
53,100,0.35909090909090907,681,0,19,DL_heartfullpop_2_Guitar,-1,-1
62,100,0.11818181818181818,810,0,19,DL_heartfullpop_2_Guitar,-1,-1
53,100,0.9409090909090909,9,1,20,DL_heartfullpop_2_Guitar,-1,-1
53,100,0.2,254,1,20,DL_heartfullpop_2_Guitar,-1,-1
62,100,0.2590909090909091,320,0,20,DL_heartfullpop_2_Guitar,-1,-1
53,100,0.2,391,0,20,DL_heartfullpop_2_Guitar,-1,-1
53,100,0.36363636363636365,509,0,20,DL_heartfullpop_2_Guitar,-1,-1
62,100,0.1409090909090909,602,0,20,DL_heartfullpop_2_Guitar,-1,-1
53,100,0.740909090909091,642,0,20,DL_heartfullpop_2_Guitar,-1,-1
53,100,0.33636363636363636,150,1,21,DL_heartfullpop_2_Guitar,-1,-1
62,100,0.11818181818181818,241,0,21,DL_heartfullpop_2_Guitar,-1,-1
62,100,0.18181818181818182,299,0,21,DL_heartfullpop_2_Guitar,-1,-1
53,100,0.2,422,0,21,DL_heartfullpop_2_Guitar,-1,-1
53,100,0.4,669,1,21,DL_heartfullpop_2_Guitar,-1,-1
53,100,0.1409090909090909,804,0,21,DL_heartfullpop_2_Guitar,-1,-1
55,100,0.3,30,1,22,DL_heartfullpop_2_Guitar,-1,-1
62,100,0.5590909090909091,171,0,22,DL_heartfullpop_2_Guitar,-1,-1
53,100,0.2409090909090909,316,0,22,DL_heartfullpop_2_Guitar,-1,-1
62,100,0.18181818181818182,528,1,22,DL_heartfullpop_2_Guitar,-1,-1
62,100,0.4590909090909091,594,0,22,DL_heartfullpop_2_Guitar,-1,-1
62,100,0.12272727272727273,729,0,22,DL_heartfullpop_2_Guitar,-1,-1
53,100,0.1409090909090909,801,0,22,DL_heartfullpop_2_Guitar,-1,-1
53,100,0.21818181818181817,0,1,23,DL_heartfullpop_2_Guitar,-1,-1
53,100,0.22272727272727272,79,0,23,DL_heartfullpop_2_Guitar,-1,-1
60,100,0.1590909090909091,150,0,23,DL_heartfullpop_2_Guitar,-1,-1
48,100,0.17727272727272728,281,0,23,DL_heartfullpop_2_Guitar,-1,-1
53,100,0.4590909090909091,453,0,23,DL_heartfullpop_2_Guitar,-1,-1
53,100,0.2772727272727273,590,0,23,DL_heartfullpop_2_Guitar,-1,-1
60,100,0.3,779,0,23,DL_heartfullpop_2_Guitar,-1,-1
53,100,0.2,862,0,23,DL_heartfullpop_2_Guitar,-1,-1
53,100,0.7181818181818181,119,1,24,DL_heartfullpop_2_Guitar,-1,-1
60,100,0.4590909090909091,347,1,24,DL_heartfullpop_2_Guitar,-1,-1
53,100,0.13636363636363635,567,1,24,DL_heartfullpop_2_Guitar,-1,-1
53,100,0.11818181818181818,656,0,24,DL_heartfullpop_2_Guitar,-1,-1
53,100,0.37727272727272726,735,0,24,DL_heartfullpop_2_Guitar,-1,-1
60,100,0.13636363636363635,61,1,25,DL_heartfullpop_2_Guitar,-1,-1
53,100,0.1409090909090909,144,0,25,DL_heartfullpop_2_Guitar,-1,-1
53,100,0.4409090909090909,206,0,25,DL_heartfullpop_2_Guitar,-1,-1
41,100,0.16363636363636364,399,0,25,DL_heartfullpop_2_Guitar,-1,-1
60,100,0.4590909090909091,440,0,25,DL_heartfullpop_2_Guitar,-1,-1
60,100,0.1409090909090909,563,0,25,DL_heartfullpop_2_Guitar,-1,-1
60,100,0.16363636363636364,729,0,25,DL_heartfullpop_2_Guitar,-1,-1
53,100,0.23636363636363636,766,0,25,DL_heartfullpop_2_Guitar,-1,-1
60,100,0.1,839,0,25,DL_heartfullpop_2_Guitar,-1,-1
53,100,0.6227272727272727,26,1,26,DL_heartfullpop_2_Guitar,-1,-1
53,100,0.1590909090909091,175,0,26,DL_heartfullpop_2_Guitar,-1,-1
60,100,0.13636363636363635,216,0,26,DL_heartfullpop_2_Guitar,-1,-1
53,100,0.7,370,0,26,DL_heartfullpop_2_Guitar,-1,-1
50,100,0.1409090909090909,717,1,26,DL_heartfullpop_2_Guitar,-1,-1
60,100,0.4772727272727273,779,0,26,DL_heartfullpop_2_Guitar,-1,-1
50,100,0.35909090909090907,40,1,27,DL_heartfullpop_2_Guitar,-1,-1
50,100,0.12272727272727273,312,1,27,DL_heartfullpop_2_Guitar,-1,-1
50,100,0.35909090909090907,347,0,27,DL_heartfullpop_2_Guitar,-1,-1
57,100,0.18181818181818182,356,1,28,DL_heartfullpop_2_Guitar,-1,-1
62,100,0.4,584,1,28,DL_heartfullpop_2_Guitar,-1,-1
53,100,0.5,796,1,28,DL_heartfullpop_2_Guitar,-1,-1
60,100,1.2818181818181817,88,1,29,DL_heartfullpop_2_Guitar,-1,-1
53,100,0.3409090909090909,492,1,29,DL_heartfullpop_2_Guitar,-1,-1
53,100,0.32272727272727275,629,0,29,DL_heartfullpop_2_Guitar,-1,-1
60,100,0.2818181818181818,3,1,30,DL_heartfullpop_2_Guitar,-1,-1
53,100,0.4409090909090909,131,0,30,DL_heartfullpop_2_Guitar,-1,-1
53,100,0.2590909090909091,326,0,30,DL_heartfullpop_2_Guitar,-1,-1
46,100,0.1409090909090909,598,1,30,DL_heartfullpop_2_Guitar,-1,-1
60,100,0.2,650,0,30,DL_heartfullpop_2_Guitar,-1,-1
60,100,0.2636363636363636,708,0,30,DL_heartfullpop_2_Guitar,-1,-1
62,100,0.35909090909090907,21,1,31,DL_heartfullpop_2_Guitar,-1,-1
60,100,0.33636363636363636,150,0,31,DL_heartfullpop_2_Guitar,-1,-1
53,100,0.22272727272727272,223,0,31,DL_heartfullpop_2_Guitar,-1,-1
48,100,0.37727272727272726,295,0,31,DL_heartfullpop_2_Guitar,-1,-1
62,100,0.1590909090909091,501,1,31,DL_heartfullpop_2_Guitar,-1,-1
48,100,0.3409090909090909,550,0,31,DL_heartfullpop_2_Guitar,-1,-1
48,100,0.38181818181818183,708,0,31,DL_heartfullpop_2_Guitar,-1,-1
48,100,0.3409090909090909,804,0,31,DL_heartfullpop_2_Guitar,-1,-1
48,100,0.22272727272727272,4,1,32,DL_heartfullpop_2_Guitar,-1,-1
48,100,0.1590909090909091,56,0,32,DL_heartfullpop_2_Guitar,-1,-1
48,100,0.11818181818181818,193,0,32,DL_heartfullpop_2_Guitar,-1,-1
48,100,0.2818181818181818,311,0,32,DL_heartfullpop_2_Guitar,-1,-1
48,100,0.740909090909091,515,1,32,DL_heartfullpop_2_Guitar,-1,-1
53,100,0.3,748,1,32,DL_heartfullpop_2_Guitar,-1,-1
60,100,0.43636363636363634,875,0,32,DL_heartfullpop_2_Guitar,-1,-1
48,100,0.38181818181818183,110,1,33,DL_heartfullpop_2_Guitar,-1,-1
48,100,0.5,211,0,33,DL_heartfullpop_2_Guitar,-1,-1
53,100,0.2,330,0,33,DL_heartfullpop_2_Guitar,-1,-1
48,100,0.8,373,0,33,DL_heartfullpop_2_Guitar,-1,-1
53,100,0.1,91,1,34,DL_heartfullpop_2_Guitar,-1,-1
62,100,0.2590909090909091,228,0,34,DL_heartfullpop_2_Guitar,-1,-1
62,100,0.21818181818181817,295,0,34,DL_heartfullpop_2_Guitar,-1,-1
53,100,0.2636363636363636,356,0,34,DL_heartfullpop_2_Guitar,-1,-1
62,100,0.3,418,0,34,DL_heartfullpop_2_Guitar,-1,-1
53,100,0.12272727272727273,628,1,34,DL_heartfullpop_2_Guitar,-1,-1
58,100,0.13636363636363635,700,0,34,DL_heartfullpop_2_Guitar,-1,-1
62,100,0.17727272727272728,8,1,35,DL_heartfullpop_2_Guitar,-1,-1
53,100,0.3,78,0,35,DL_heartfullpop_2_Guitar,-1,-1
62,100,0.9,251,0,35,DL_heartfullpop_2_Guitar,-1,-1
62,100,0.1409090909090909,471,1,35,DL_heartfullpop_2_Guitar,-1,-1
53,100,0.2590909090909091,528,0,35,DL_heartfullpop_2_Guitar,-1,-1
62,100,0.6590909090909091,691,0,35,DL_heartfullpop_2_Guitar,-1,-1
64,100,0.8,13,1,36,DL_heartfullpop_2_Guitar,-1,-1
60,100,0.21818181818181817,228,1,36,DL_heartfullpop_2_Guitar,-1,-1
60,100,0.4636363636363636,289,0,36,DL_heartfullpop_2_Guitar,-1,-1
64,100,0.35909090909090907,453,0,36,DL_heartfullpop_2_Guitar,-1,-1
60,100,0.2409090909090909,554,0,36,DL_heartfullpop_2_Guitar,-1,-1
57,100,0.2590909090909091,611,0,36,DL_heartfullpop_2_Guitar,-1,-1
60,100,0.5181818181818182,748,0,36,DL_heartfullpop_2_Guitar,-1,-1
57,100,0.1409090909090909,4,1,37,DL_heartfullpop_2_Guitar,-1,-1
62,100,0.13636363636363635,655,1,37,DL_heartfullpop_2_Guitar,-1,-1
62,100,0.1590909090909091,43,1,38,DL_heartfullpop_2_Guitar,-1,-1
64,100,0.11818181818181818,241,1,38,DL_heartfullpop_2_Guitar,-1,-1
53,100,0.11818181818181818,330,0,38,DL_heartfullpop_2_Guitar,-1,-1
46,100,0.33636363636363636,458,0,38,DL_heartfullpop_2_Guitar,-1,-1
53,100,0.22272727272727272,541,0,38,DL_heartfullpop_2_Guitar,-1,-1
53,100,0.1409090909090909,713,0,38,DL_heartfullpop_2_Guitar,-1,-1
62,100,0.11818181818181818,756,0,38,DL_heartfullpop_2_Guitar,-1,-1
53,100,0.37727272727272726,105,1,39,DL_heartfullpop_2_Guitar,-1,-1
58,100,0.1409090909090909,276,0,39,DL_heartfullpop_2_Guitar,-1,-1
48,100,0.11818181818181818,625,1,39,DL_heartfullpop_2_Guitar,-1,-1
48,100,0.2409090909090909,673,0,39,DL_heartfullpop_2_Guitar,-1,-1
48,100,0.13636363636363635,831,0,39,DL_heartfullpop_2_Guitar,-1,-1
60,100,0.4409090909090909,861,0,39,DL_heartfullpop_2_Guitar,-1,-1
48,100,0.5227272727272727,78,1,40,DL_heartfullpop_2_Guitar,-1,-1
60,100,0.5636363636363636,268,0,40,DL_heartfullpop_2_Guitar,-1,-1
60,100,0.1,421,0,40,DL_heartfullpop_2_Guitar,-1,-1
48,100,0.3,541,0,40,DL_heartfullpop_2_Guitar,-1,-1
53,100,0.3181818181818182,638,0,40,DL_heartfullpop_2_Guitar,-1,-1
53,100,0.2590909090909091,765,0,40,DL_heartfullpop_2_Guitar,-1,-1
53,100,0.3,839,0,40,DL_heartfullpop_2_Guitar,-1,-1
62,100,0.4,61,1,41,DL_heartfullpop_2_Guitar,-1,-1
62,100,0.4409090909090909,440,1,41,DL_heartfullpop_2_Guitar,-1,-1
62,100,0.2818181818181818,563,0,41,DL_heartfullpop_2_Guitar,-1,-1
60,100,0.5590909090909091,668,0,41,DL_heartfullpop_2_Guitar,-1,-1
48,100,1.4,866,1,41,DL_heartfullpop_2_Guitar,-1,-1
48,100,2.9,298,1,42,DL_heartfullpop_2_Guitar,-1,-1
53,100,0.17727272727272728,75,1,43,DL_heartfullpop_2_Guitar,-1,-1
57,100,0.33636363636363636,193,0,43,DL_heartfullpop_2_Guitar,-1,-1
53,100,0.2772727272727273,383,0,43,DL_heartfullpop_2_Guitar,-1,-1
53,100,0.32272727272727275,453,0,43,DL_heartfullpop_2_Guitar,-1,-1
57,100,0.17727272727272728,545,0,43,DL_heartfullpop_2_Guitar,-1,-1
53,100,0.22272727272727272,598,0,43,DL_heartfullpop_2_Guitar,-1,-1
53,100,0.32272727272727275,716,0,43,DL_heartfullpop_2_Guitar,-1,-1
53,100,0.23636363636363636,853,0,43,DL_heartfullpop_2_Guitar,-1,-1
57,100,0.32272727272727275,144,1,44,DL_heartfullpop_2_Guitar,-1,-1
53,100,0.3409090909090909,228,0,44,DL_heartfullpop_2_Guitar,-1,-1
57,100,0.18181818181818182,378,0,44,DL_heartfullpop_2_Guitar,-1,-1
53,100,0.2,493,0,44,DL_heartfullpop_2_Guitar,-1,-1
53,100,0.6590909090909091,545,0,44,DL_heartfullpop_2_Guitar,-1,-1
53,100,0.18181818181818182,751,1,44,DL_heartfullpop_2_Guitar,-1,-1
53,100,0.1409090909090909,823,0,44,DL_heartfullpop_2_Guitar,-1,-1
53,100,0.8181818181818182,875,0,44,DL_heartfullpop_2_Guitar,-1,-1
53,100,0.4409090909090909,211,1,45,DL_heartfullpop_2_Guitar,-1,-1
50,100,0.4409090909090909,399,0,45,DL_heartfullpop_2_Guitar,-1,-1
62,100,0.2590909090909091,496,0,45,DL_heartfullpop_2_Guitar,-1,-1
62,100,0.1590909090909091,558,0,45,DL_heartfullpop_2_Guitar,-1,-1
50,100,0.6590909090909091,616,0,45,DL_heartfullpop_2_Guitar,-1,-1
50,100,0.5181818181818182,788,0,45,DL_heartfullpop_2_Guitar,-1,-1
50,100,0.2,43,1,46,DL_heartfullpop_2_Guitar,-1,-1
50,100,0.2,303,1,46,DL_heartfullpop_2_Guitar,-1,-1
62,100,0.37727272727272726,348,0,46,DL_heartfullpop_2_Guitar,-1,-1
50,100,0.2,431,0,46,DL_heartfullpop_2_Guitar,-1,-1
62,100,0.2409090909090909,474,0,46,DL_heartfullpop_2_Guitar,-1,-1
62,100,0.4,694,1,46,DL_heartfullpop_2_Guitar,-1,-1
50,100,0.11818181818181818,836,0,46,DL_heartfullpop_2_Guitar,-1,-1
62,100,0.1409090909090909,861,0,46,DL_heartfullpop_2_Guitar,-1,-1
62,100,0.13636363636363635,61,1,47,DL_heartfullpop_2_Guitar,-1,-1
50,100,0.6636363636363637,91,0,47,DL_heartfullpop_2_Guitar,-1,-1
50,100,0.3181818181818182,316,1,47,DL_heartfullpop_2_Guitar,-1,-1
50,100,0.1590909090909091,461,0,47,DL_heartfullpop_2_Guitar,-1,-1
62,100,0.3,496,0,47,DL_heartfullpop_2_Guitar,-1,-1
50,100,0.11818181818181818,568,0,47,DL_heartfullpop_2_Guitar,-1,-1
53,100,0.3,638,0,47,DL_heartfullpop_2_Guitar,-1,-1
46,100,0.17727272727272728,118,1,48,DL_heartfullpop_2_Guitar,-1,-1
53,100,0.12272727272727273,201,0,48,DL_heartfullpop_2_Guitar,-1,-1
53,100,0.22272727272727272,453,1,48,DL_heartfullpop_2_Guitar,-1,-1
53,100,0.1590909090909091,506,0,48,DL_heartfullpop_2_Guitar,-1,-1
53,100,0.41818181818181815,655,0,48,DL_heartfullpop_2_Guitar,-1,-1
53,100,0.2590909090909091,853,1,48,DL_heartfullpop_2_Guitar,-1,-1
53,100,0.2818181818181818,179,1,49,DL_heartfullpop_2_Guitar,-1,-1
62,100,0.11818181818181818,458,1,49,DL_heartfullpop_2_Guitar,-1,-1
60,100,0.1409090909090909,515,0,49,DL_heartfullpop_2_Guitar,-1,-1
53,100,0.17727272727272728,558,0,49,DL_heartfullpop_2_Guitar,-1,-1
41,100,0.12272727272727273,694,0,49,DL_heartfullpop_2_Guitar,-1,-1
53,100,0.5590909090909091,738,0,49,DL_heartfullpop_2_Guitar,-1,-1
53,100,0.1590909090909091,871,0,49,DL_heartfullpop_2_Guitar,-1,-1
53,100,0.1409090909090909,66,1,50,DL_heartfullpop_2_Guitar,-1,-1
62,100,0.4409090909090909,185,0,50,DL_heartfullpop_2_Guitar,-1,-1
60,100,0.3,396,1,50,DL_heartfullpop_2_Guitar,-1,-1
60,100,0.12272727272727273,474,0,50,DL_heartfullpop_2_Guitar,-1,-1
48,100,0.12272727272727273,729,1,50,DL_heartfullpop_2_Guitar,-1,-1
62,100,0.4,114,1,51,DL_heartfullpop_2_Guitar,-1,-1
60,100,0.1409090909090909,211,0,51,DL_heartfullpop_2_Guitar,-1,-1
58,100,0.1590909090909091,651,1,52,DL_heartfullpop_2_Guitar,-1,-1
53,100,0.1,691,0,52,DL_heartfullpop_2_Guitar,-1,-1
46,100,0.21818181818181817,765,0,52,DL_heartfullpop_2_Guitar,-1,-1
58,100,0.3409090909090909,66,1,53,DL_heartfullpop_2_Guitar,-1,-1
53,100,0.12272727272727273,408,1,53,DL_heartfullpop_2_Guitar,-1,-1
46,100,0.33636363636363636,501,0,53,DL_heartfullpop_2_Guitar,-1,-1
62,100,0.4,616,0,53,DL_heartfullpop_2_Guitar,-1,-1
50,100,0.22272727272727272,796,0,53,DL_heartfullpop_2_Guitar,-1,-1
62,100,0.4590909090909091,853,1,54,DL_heartfullpop_2_Guitar,-1,-1
62,100,0.1409090909090909,166,1,55,DL_heartfullpop_2_Guitar,-1,-1
62,100,0.759090909090909,286,0,55,DL_heartfullpop_2_Guitar,-1,-1
55,100,0.5590909090909091,518,1,55,DL_heartfullpop_2_Guitar,-1,-1
55,100,0.43636363636363634,655,0,55,DL_heartfullpop_2_Guitar,-1,-1
53,100,0.11818181818181818,765,0,55,DL_heartfullpop_2_Guitar,-1,-1
55,100,0.1409090909090909,804,0,55,DL_heartfullpop_2_Guitar,-1,-1
55,100,0.12272727272727273,48,1,56,DL_heartfullpop_2_Guitar,-1,-1
60,100,0.7,351,1,56,DL_heartfullpop_2_Guitar,-1,-1
60,100,1.040909090909091,571,1,56,DL_heartfullpop_2_Guitar,-1,-1
48,100,0.8772727272727273,823,1,56,DL_heartfullpop_2_Guitar,-1,-1
53,100,0.11818181818181818,153,1,57,DL_heartfullpop_2_Guitar,-1,-1
48,100,0.6409090909090909,440,1,58,DL_heartfullpop_2_Guitar,-1,-1
60,100,0.4636363636363636,774,1,58,DL_heartfullpop_2_Guitar,-1,-1
48,100,0.6363636363636364,875,0,58,DL_heartfullpop_2_Guitar,-1,-1
60,100,0.18181818181818182,136,1,59,DL_heartfullpop_2_Guitar,-1,-1
60,100,0.2636363636363636,179,0,59,DL_heartfullpop_2_Guitar,-1,-1
60,100,0.1409090909090909,311,0,59,DL_heartfullpop_2_Guitar,-1,-1
41,100,0.1409090909090909,396,0,59,DL_heartfullpop_2_Guitar,-1,-1
53,100,0.5409090909090909,474,0,59,DL_heartfullpop_2_Guitar,-1,-1
53,100,0.3,606,0,59,DL_heartfullpop_2_Guitar,-1,-1
53,100,0.5363636363636364,743,0,59,DL_heartfullpop_2_Guitar,-1,-1
53,100,0.2818181818181818,871,0,59,DL_heartfullpop_2_Guitar,-1,-1
53,100,0.35909090909090907,128,1,60,DL_heartfullpop_2_Guitar,-1,-1
53,100,0.18181818181818182,276,0,60,DL_heartfullpop_2_Guitar,-1,-1
60,100,0.2,330,0,60,DL_heartfullpop_2_Guitar,-1,-1
53,100,0.2409090909090909,386,0,60,DL_heartfullpop_2_Guitar,-1,-1
53,100,0.16363636363636364,466,0,60,DL_heartfullpop_2_Guitar,-1,-1
53,100,0.16363636363636364,509,0,60,DL_heartfullpop_2_Guitar,-1,-1
41,100,0.16363636363636364,554,0,60,DL_heartfullpop_2_Guitar,-1,-1
60,100,0.1,606,0,60,DL_heartfullpop_2_Guitar,-1,-1
53,100,0.33636363636363636,633,0,60,DL_heartfullpop_2_Guitar,-1,-1
53,100,0.1590909090909091,716,0,60,DL_heartfullpop_2_Guitar,-1,-1
41,100,0.1590909090909091,801,0,60,DL_heartfullpop_2_Guitar,-1,-1
53,100,0.2590909090909091,18,1,61,DL_heartfullpop_2_Guitar,-1,-1
53,100,0.2590909090909091,78,0,61,DL_heartfullpop_2_Guitar,-1,-1
53,100,0.2,153,0,61,DL_heartfullpop_2_Guitar,-1,-1
53,100,0.2818181818181818,289,0,61,DL_heartfullpop_2_Guitar,-1,-1
53,100,0.3,405,0,61,DL_heartfullpop_2_Guitar,-1,-1
53,100,0.23636363636363636,545,0,61,DL_heartfullpop_2_Guitar,-1,-1
53,100,0.11818181818181818,625,0,61,DL_heartfullpop_2_Guitar,-1,-1
53,100,0.16363636363636364,664,0,61,DL_heartfullpop_2_Guitar,-1,-1
53,100,0.17727272727272728,713,0,61,DL_heartfullpop_2_Guitar,-1,-1
62,100,1.1636363636363636,796,0,61,DL_heartfullpop_2_Guitar,-1,-1
62,100,0.2,361,1,62,DL_heartfullpop_2_Guitar,-1,-1
50,100,0.2636363636363636,444,0,62,DL_heartfullpop_2_Guitar,-1,-1
62,100,0.21818181818181817,506,0,62,DL_heartfullpop_2_Guitar,-1,-1
62,100,0.5590909090909091,568,0,62,DL_heartfullpop_2_Guitar,-1,-1
50,100,0.2,713,0,62,DL_heartfullpop_2_Guitar,-1,-1
62,100,0.22272727272727272,13,1,63,DL_heartfullpop_2_Guitar,-1,-1
62,100,0.3181818181818182,198,0,63,DL_heartfullpop_2_Guitar,-1,-1
62,100,0.11818181818181818,603,1,63,DL_heartfullpop_2_Guitar,-1,-1
50,100,0.12272727272727273,628,0,63,DL_heartfullpop_2_Guitar,-1,-1
50,100,0.21818181818181817,127,1,64,DL_heartfullpop_2_Guitar,-1,-1
62,100,0.1590909090909091,176,0,64,DL_heartfullpop_2_Guitar,-1,-1
53,100,0.3,237,0,64,DL_heartfullpop_2_Guitar,-1,-1
62,100,0.5,316,0,64,DL_heartfullpop_2_Guitar,-1,-1
58,100,0.2,519,1,64,DL_heartfullpop_2_Guitar,-1,-1
53,100,0.3,619,0,64,DL_heartfullpop_2_Guitar,-1,-1
53,100,0.32272727272727275,752,0,64,DL_heartfullpop_2_Guitar,-1,-1
53,100,0.35909090909090907,876,0,64,DL_heartfullpop_2_Guitar,-1,-1
53,100,0.5181818181818182,250,1,65,DL_heartfullpop_2_Guitar,-1,-1
53,100,0.32272727272727275,377,0,65,DL_heartfullpop_2_Guitar,-1,-1
58,100,0.3409090909090909,475,0,65,DL_heartfullpop_2_Guitar,-1,-1
53,100,0.42272727272727273,642,0,65,DL_heartfullpop_2_Guitar,-1,-1
53,100,0.2,773,0,65,DL_heartfullpop_2_Guitar,-1,-1
62,100,0.3,823,0,65,DL_heartfullpop_2_Guitar,-1,-1
53,100,0.11818181818181818,150,1,66,DL_heartfullpop_2_Guitar,-1,-1
60,100,0.35909090909090907,193,0,66,DL_heartfullpop_2_Guitar,-1,-1
53,100,0.4409090909090909,396,1,66,DL_heartfullpop_2_Guitar,-1,-1
53,100,0.1590909090909091,496,0,66,DL_heartfullpop_2_Guitar,-1,-1
53,100,0.1409090909090909,540,0,66,DL_heartfullpop_2_Guitar,-1,-1
60,100,0.8181818181818182,572,0,66,DL_heartfullpop_2_Guitar,-1,-1
53,100,0.1,56,1,67,DL_heartfullpop_2_Guitar,-1,-1
60,100,0.32272727272727275,179,0,67,DL_heartfullpop_2_Guitar,-1,-1
60,100,0.2,365,0,67,DL_heartfullpop_2_Guitar,-1,-1
60,100,0.7,413,0,67,DL_heartfullpop_2_Guitar,-1,-1
60,100,0.3,612,1,67,DL_heartfullpop_2_Guitar,-1,-1
60,100,0.21818181818181817,30,1,68,DL_heartfullpop_2_Guitar,-1,-1
53,100,0.12272727272727273,202,0,68,DL_heartfullpop_2_Guitar,-1,-1
60,100,0.5409090909090909,330,0,68,DL_heartfullpop_2_Guitar,-1,-1
60,100,0.7818181818181819,593,1,68,DL_heartfullpop_2_Guitar,-1,-1
53,100,0.9409090909090909,839,1,68,DL_heartfullpop_2_Guitar,-1,-1
53,100,0.11818181818181818,263,1,69,DL_heartfullpop_2_Guitar,-1,-1
53,100,0.1590909090909091,294,0,69,DL_heartfullpop_2_Guitar,-1,-1
53,100,0.2590909090909091,352,0,69,DL_heartfullpop_2_Guitar,-1,-1
53,100,0.3,496,0,69,DL_heartfullpop_2_Guitar,-1,-1
41,100,0.2,682,0,69,DL_heartfullpop_2_Guitar,-1,-1
41,100,0.1590909090909091,832,0,69,DL_heartfullpop_2_Guitar,-1,-1
41,100,0.1409090909090909,3,1,70,DL_heartfullpop_2_Guitar,-1,-1
60,100,0.1590909090909091,40,0,70,DL_heartfullpop_2_Guitar,-1,-1
60,100,0.11818181818181818,87,0,70,DL_heartfullpop_2_Guitar,-1,-1
53,100,0.2818181818181818,123,0,70,DL_heartfullpop_2_Guitar,-1,-1
53,100,0.2818181818181818,396,1,70,DL_heartfullpop_2_Guitar,-1,-1
53,100,0.11818181818181818,470,0,70,DL_heartfullpop_2_Guitar,-1,-1
53,100,0.36363636363636365,509,0,70,DL_heartfullpop_2_Guitar,-1,-1
60,100,0.2409090909090909,597,0,70,DL_heartfullpop_2_Guitar,-1,-1
53,100,0.4772727272727273,656,0,70,DL_heartfullpop_2_Guitar,-1,-1
53,100,0.5772727272727273,766,0,70,DL_heartfullpop_2_Guitar,-1,-1
60,100,0.21818181818181817,40,1,71,DL_heartfullpop_2_Guitar,-1,-1
53,100,0.11818181818181818,106,0,71,DL_heartfullpop_2_Guitar,-1,-1
53,100,0.1409090909090909,157,0,71,DL_heartfullpop_2_Guitar,-1,-1
60,100,0.21818181818181817,197,0,71,DL_heartfullpop_2_Guitar,-1,-1
62,100,0.2590909090909091,276,0,71,DL_heartfullpop_2_Guitar,-1,-1
62,100,0.6181818181818182,339,0,71,DL_heartfullpop_2_Guitar,-1,-1
62,100,0.2590909090909091,480,0,71,DL_heartfullpop_2_Guitar,-1,-1
62,100,0.2409090909090909,603,0,71,DL_heartfullpop_2_Guitar,-1,-1
50,100,0.2590909090909091,805,1,71,DL_heartfullpop_2_Guitar,-1,-1
50,100,0.1590909090909091,197,1,72,DL_heartfullpop_2_Guitar,-1,-1
62,100,0.3,233,0,72,DL_heartfullpop_2_Guitar,-1,-1
50,100,0.1,466,1,72,DL_heartfullpop_2_Guitar,-1,-1
62,100,0.36363636363636365,553,0,72,DL_heartfullpop_2_Guitar,-1,-1
53,100,0.2,716,0,72,DL_heartfullpop_2_Guitar,-1,-1
62,100,0.11818181818181818,823,0,72,DL_heartfullpop_2_Guitar,-1,-1
62,100,0.4,866,0,72,DL_heartfullpop_2_Guitar,-1,-1
57,100,0.1590909090909091,79,1,73,DL_heartfullpop_2_Guitar,-1,-1
57,100,0.13636363636363635,216,0,73,DL_heartfullpop_2_Guitar,-1,-1
62,100,0.12272727272727273,453,1,73,DL_heartfullpop_2_Guitar,-1,-1
53,100,0.18181818181818182,593,0,73,DL_heartfullpop_2_Guitar,-1,-1
60,100,0.32272727272727275,13,1,74,DL_heartfullpop_2_Guitar,-1,-1
53,100,0.2590909090909091,100,0,74,DL_heartfullpop_2_Guitar,-1,-1
53,100,0.35909090909090907,352,1,74,DL_heartfullpop_2_Guitar,-1,-1
53,100,0.2,436,0,74,DL_heartfullpop_2_Guitar,-1,-1
53,100,0.1409090909090909,619,0,74,DL_heartfullpop_2_Guitar,-1,-1
53,100,0.2,747,0,74,DL_heartfullpop_2_Guitar,-1,-1
48,100,0.1409090909090909,800,0,74,DL_heartfullpop_2_Guitar,-1,-1
60,100,0.2,849,0,74,DL_heartfullpop_2_Guitar,-1,-1
53,100,0.2409090909090909,69,1,75,DL_heartfullpop_2_Guitar,-1,-1
60,100,0.41818181818181815,150,0,75,DL_heartfullpop_2_Guitar,-1,-1
60,100,0.4818181818181818,286,0,75,DL_heartfullpop_2_Guitar,-1,-1
60,100,0.12272727272727273,466,0,75,DL_heartfullpop_2_Guitar,-1,-1
53,100,0.16363636363636364,509,0,75,DL_heartfullpop_2_Guitar,-1,-1
53,100,0.4409090909090909,844,1,75,DL_heartfullpop_2_Guitar,-1,-1
53,100,0.2590909090909091,83,1,76,DL_heartfullpop_2_Guitar,-1,-1
53,100,0.18181818181818182,176,0,76,DL_heartfullpop_2_Guitar,-1,-1
53,100,1.1,229,0,76,DL_heartfullpop_2_Guitar,-1,-1
41,100,0.2409090909090909,483,1,76,DL_heartfullpop_2_Guitar,-1,-1
60,100,0.1409090909090909,713,1,76,DL_heartfullpop_2_Guitar,-1,-1
41,100,0.2590909090909091,810,0,76,DL_heartfullpop_2_Guitar,-1,-1
53,100,0.23636363636363636,876,0,76,DL_heartfullpop_2_Guitar,-1,-1
53,100,0.5590909090909091,127,1,77,DL_heartfullpop_2_Guitar,-1,-1
60,100,0.1,413,1,77,DL_heartfullpop_2_Guitar,-1,-1
53,100,0.5,440,0,77,DL_heartfullpop_2_Guitar,-1,-1
53,100,0.18181818181818182,563,0,77,DL_heartfullpop_2_Guitar,-1,-1
60,100,0.3181818181818182,734,0,77,DL_heartfullpop_2_Guitar,-1,-1
41,100,0.6,813,0,77,DL_heartfullpop_2_Guitar,-1,-1
53,100,0.12272727272727273,69,1,78,DL_heartfullpop_2_Guitar,-1,-1
41,100,0.1,96,0,78,DL_heartfullpop_2_Guitar,-1,-1
60,100,0.11818181818181818,119,0,78,DL_heartfullpop_2_Guitar,-1,-1
41,100,0.3409090909090909,145,0,78,DL_heartfullpop_2_Guitar,-1,-1
53,100,0.8772727272727273,273,0,78,DL_heartfullpop_2_Guitar,-1,-1
53,100,0.1,722,1,78,DL_heartfullpop_2_Guitar,-1,-1
53,100,0.1,110,1,79,DL_heartfullpop_2_Guitar,-1,-1
55,100,0.21818181818181817,457,1,79,DL_heartfullpop_2_Guitar,-1,-1
55,100,1.3,673,1,79,DL_heartfullpop_2_Guitar,-1,-1
55,100,0.42272727272727273,453,1,80,DL_heartfullpop_2_Guitar,-1,-1
53,100,0.1409090909090909,637,0,80,DL_heartfullpop_2_Guitar,-1,-1
53,100,0.11818181818181818,153,1,81,DL_heartfullpop_2_Guitar,-1,-1
50,100,0.4818181818181818,637,1,81,DL_heartfullpop_2_Guitar,-1,-1
62,100,0.1,743,0,81,DL_heartfullpop_2_Guitar,-1,-1
50,100,0.1590909090909091,62,1,82,DL_heartfullpop_2_Guitar,-1,-1
53,100,0.13636363636363635,303,1,82,DL_heartfullpop_2_Guitar,-1,-1
55,100,0.1,197,1,84,DL_heartfullpop_2_Guitar,-1,-1
60,100,0.1409090909090909,426,1,84,DL_heartfullpop_2_Guitar,-1,-1
60,100,1.8772727272727272,480,0,84,DL_heartfullpop_2_Guitar,-1,-1
53,100,0.1,330,1,85,DL_heartfullpop_2_Guitar,-1,-1
53,100,0.2772727272727273,392,0,85,DL_heartfullpop_2_Guitar,-1,-1
53,100,0.3,462,0,85,DL_heartfullpop_2_Guitar,-1,-1
53,100,0.2772727272727273,567,0,85,DL_heartfullpop_2_Guitar,-1,-1
53,100,0.2409090909090909,800,1,85,DL_heartfullpop_2_Guitar,-1,-1
57,100,0.1,866,0,85,DL_heartfullpop_2_Guitar,-1,-1
41,100,0.2,229,1,86,DL_heartfullpop_2_Guitar,-1,-1
60,100,0.17727272727272728,273,0,86,DL_heartfullpop_2_Guitar,-1,-1
60,100,0.18181818181818182,320,0,86,DL_heartfullpop_2_Guitar,-1,-1
41,100,0.1409090909090909,360,0,86,DL_heartfullpop_2_Guitar,-1,-1
60,100,0.4,392,0,86,DL_heartfullpop_2_Guitar,-1,-1
53,100,0.3181818181818182,480,0,86,DL_heartfullpop_2_Guitar,-1,-1
60,100,0.2409090909090909,559,0,86,DL_heartfullpop_2_Guitar,-1,-1
41,100,0.9363636363636364,612,0,86,DL_heartfullpop_2_Guitar,-1,-1
60,100,0.2772727272727273,844,1,86,DL_heartfullpop_2_Guitar,-1,-1
60,100,0.2,30,1,87,DL_heartfullpop_2_Guitar,-1,-1
60,100,0.11818181818181818,87,0,87,DL_heartfullpop_2_Guitar,-1,-1
60,100,0.11818181818181818,197,0,87,DL_heartfullpop_2_Guitar,-1,-1
53,100,0.8590909090909091,703,1,87,DL_heartfullpop_2_Guitar,-1,-1
53,100,0.21818181818181817,140,1,88,DL_heartfullpop_2_Guitar,-1,-1
53,100,0.1409090909090909,202,0,88,DL_heartfullpop_2_Guitar,-1,-1
53,100,0.21818181818181817,480,1,88,DL_heartfullpop_2_Guitar,-1,-1
62,100,0.11818181818181818,580,0,88,DL_heartfullpop_2_Guitar,-1,-1
60,100,0.2409090909090909,35,1,89,DL_heartfullpop_2_Guitar,-1,-1
48,100,0.1409090909090909,250,1,89,DL_heartfullpop_2_Guitar,-1,-1
53,100,0.13636363636363635,282,0,89,DL_heartfullpop_2_Guitar,-1,-1
60,100,0.6590909090909091,370,0,89,DL_heartfullpop_2_Guitar,-1,-1
60,100,0.35909090909090907,536,0,89,DL_heartfullpop_2_Guitar,-1,-1
60,100,0.11818181818181818,792,1,89,DL_heartfullpop_2_Guitar,-1,-1
53,100,0.1590909090909091,866,0,89,DL_heartfullpop_2_Guitar,-1,-1
60,100,1.2227272727272727,123,1,90,DL_heartfullpop_2_Guitar,-1,-1
60,100,1.1818181818181819,506,1,90,DL_heartfullpop_2_Guitar,-1,-1
60,100,0.1409090909090909,100,1,91,DL_heartfullpop_2_Guitar,-1,-1
53,100,0.11818181818181818,220,0,91,DL_heartfullpop_2_Guitar,-1,-1
53,100,0.6181818181818182,273,0,91,DL_heartfullpop_2_Guitar,-1,-1
53,100,0.2590909090909091,426,0,91,DL_heartfullpop_2_Guitar,-1,-1
53,100,0.38181818181818183,519,0,91,DL_heartfullpop_2_Guitar,-1,-1
53,100,0.23636363636363636,633,0,91,DL_heartfullpop_2_Guitar,-1,-1
53,100,0.3409090909090909,695,0,91,DL_heartfullpop_2_Guitar,-1,-1
41,100,0.18181818181818182,796,0,91,DL_heartfullpop_2_Guitar,-1,-1
53,100,0.32272727272727275,870,0,91,DL_heartfullpop_2_Guitar,-1,-1
41,100,0.13636363636363635,62,1,92,DL_heartfullpop_2_Guitar,-1,-1
53,100,0.1409090909090909,92,0,92,DL_heartfullpop_2_Guitar,-1,-1
53,100,0.759090909090909,172,0,92,DL_heartfullpop_2_Guitar,-1,-1
41,100,0.17727272727272728,347,0,92,DL_heartfullpop_2_Guitar,-1,-1
53,100,0.16363636363636364,399,0,92,DL_heartfullpop_2_Guitar,-1,-1
53,100,0.38181818181818183,440,0,92,DL_heartfullpop_2_Guitar,-1,-1
41,100,0.11818181818181818,523,0,92,DL_heartfullpop_2_Guitar,-1,-1
53,100,0.12272727272727273,629,0,92,DL_heartfullpop_2_Guitar,-1,-1
41,100,0.2818181818181818,716,0,92,DL_heartfullpop_2_Guitar,-1,-1
53,100,0.6,826,0,92,DL_heartfullpop_2_Guitar,-1,-1
41,100,0.2409090909090909,132,1,93,DL_heartfullpop_2_Guitar,-1,-1
41,100,0.4,229,0,93,DL_heartfullpop_2_Guitar,-1,-1
53,100,0.3,399,0,93,DL_heartfullpop_2_Guitar,-1,-1
41,100,0.2,483,0,93,DL_heartfullpop_2_Guitar,-1,-1
61,100,0.41818181818181815,39,1,15,DL_deepemotion_Guitar,-1,-1
54,100,0.2,712,1,17,DL_deepemotion_Guitar,-1,-1
56,100,0.7,801,0,17,DL_deepemotion_Guitar,-1,-1
56,100,0.2,83,1,18,DL_deepemotion_Guitar,-1,-1
51,100,0.5,461,1,18,DL_deepemotion_Guitar,-1,-1
51,100,0.3409090909090909,650,0,18,DL_deepemotion_Guitar,-1,-1
51,100,0.7818181818181819,223,1,19,DL_deepemotion_Guitar,-1,-1
42,100,0.2772727272727273,853,1,19,DL_deepemotion_Guitar,-1,-1
54,100,0.4818181818181818,34,1,20,DL_deepemotion_Guitar,-1,-1
54,100,0.22272727272727272,179,0,20,DL_deepemotion_Guitar,-1,-1
47,100,1.459090909090909,528,1,20,DL_deepemotion_Guitar,-1,-1
47,100,0.1,853,1,20,DL_deepemotion_Guitar,-1,-1
47,100,0.6409090909090909,0,1,21,DL_deepemotion_Guitar,-1,-1
54,100,0.32272727272727275,409,1,21,DL_deepemotion_Guitar,-1,-1
42,100,2.077272727272727,536,0,21,DL_deepemotion_Guitar,-1,-1
42,100,0.759090909090909,119,1,22,DL_deepemotion_Guitar,-1,-1
54,100,0.11818181818181818,326,1,22,DL_deepemotion_Guitar,-1,-1
51,100,1.440909090909091,563,1,22,DL_deepemotion_Guitar,-1,-1
63,100,0.2818181818181818,189,1,23,DL_deepemotion_Guitar,-1,-1
51,100,0.5636363636363636,268,0,23,DL_deepemotion_Guitar,-1,-1
51,100,0.6818181818181818,461,0,23,DL_deepemotion_Guitar,-1,-1
51,100,0.1,615,0,23,DL_deepemotion_Guitar,-1,-1
51,100,0.6,642,0,23,DL_deepemotion_Guitar,-1,-1
51,100,0.11818181818181818,801,0,23,DL_deepemotion_Guitar,-1,-1
61,100,0.1409090909090909,866,0,23,DL_deepemotion_Guitar,-1,-1
47,100,0.41818181818181815,44,1,24,DL_deepemotion_Guitar,-1,-1
54,100,0.11818181818181818,326,1,24,DL_deepemotion_Guitar,-1,-1
47,100,0.8590909090909091,492,0,24,DL_deepemotion_Guitar,-1,-1
47,100,0.3181818181818182,704,1,24,DL_deepemotion_Guitar,-1,-1
47,100,0.4,839,0,24,DL_deepemotion_Guitar,-1,-1
59,100,0.740909090909091,65,1,25,DL_deepemotion_Guitar,-1,-1
47,100,0.3,229,0,25,DL_deepemotion_Guitar,-1,-1
59,100,0.11818181818181818,295,0,25,DL_deepemotion_Guitar,-1,-1
56,100,0.11818181818181818,656,1,25,DL_deepemotion_Guitar,-1,-1
56,100,0.2818181818181818,818,0,25,DL_deepemotion_Guitar,-1,-1
56,100,0.37727272727272726,61,1,26,DL_deepemotion_Guitar,-1,-1
56,100,0.2409090909090909,223,0,26,DL_deepemotion_Guitar,-1,-1
62,100,0.18181818181818182,202,1,27,DL_deepemotion_Guitar,-1,-1
51,100,2.140909090909091,100,1,28,DL_deepemotion_Guitar,-1,-1
51,100,0.9363636363636364,590,1,28,DL_deepemotion_Guitar,-1,-1
63,100,0.23636363636363636,810,1,28,DL_deepemotion_Guitar,-1,-1
51,100,0.5772727272727273,876,0,28,DL_deepemotion_Guitar,-1,-1
51,100,0.8,127,1,29,DL_deepemotion_Guitar,-1,-1
51,100,0.3409090909090909,308,0,29,DL_deepemotion_Guitar,-1,-1
52,100,0.11818181818181818,382,0,29,DL_deepemotion_Guitar,-1,-1
54,100,0.12272727272727273,422,0,29,DL_deepemotion_Guitar,-1,-1
54,100,0.2,567,0,29,DL_deepemotion_Guitar,-1,-1
45,100,0.5409090909090909,211,1,0,DL_JapaneseFolk_Guitar,-1,-1
57,100,0.18181818181818182,356,0,0,DL_JapaneseFolk_Guitar,-1,-1
61,100,0.17727272727272728,524,0,0,DL_JapaneseFolk_Guitar,-1,-1
54,100,0.18181818181818182,717,0,0,DL_JapaneseFolk_Guitar,-1,-1
52,100,0.2590909090909091,849,0,0,DL_JapaneseFolk_Guitar,-1,-1
57,100,0.3181818181818182,30,1,1,DL_JapaneseFolk_Guitar,-1,-1
59,100,0.37727272727272726,149,0,1,DL_JapaneseFolk_Guitar,-1,-1
59,100,0.2409090909090909,290,0,1,DL_JapaneseFolk_Guitar,-1,-1
45,100,0.41818181818181815,374,0,1,DL_JapaneseFolk_Guitar,-1,-1
57,100,0.2772727272727273,479,0,1,DL_JapaneseFolk_Guitar,-1,-1
41,100,0.1,625,0,1,DL_JapaneseFolk_Guitar,-1,-1
57,100,0.7,673,0,1,DL_JapaneseFolk_Guitar,-1,-1
54,100,0.3,866,0,1,DL_JapaneseFolk_Guitar,-1,-1
52,100,0.5590909090909091,57,1,2,DL_JapaneseFolk_Guitar,-1,-1
57,100,0.2818181818181818,180,0,2,DL_JapaneseFolk_Guitar,-1,-1
45,100,0.4772727272727273,523,1,2,DL_JapaneseFolk_Guitar,-1,-1
57,100,0.2590909090909091,633,0,2,DL_JapaneseFolk_Guitar,-1,-1
59,100,0.2590909090909091,703,0,2,DL_JapaneseFolk_Guitar,-1,-1
57,100,0.740909090909091,822,0,2,DL_JapaneseFolk_Guitar,-1,-1
54,100,0.1409090909090909,144,1,3,DL_JapaneseFolk_Guitar,-1,-1
57,100,0.9,201,0,3,DL_JapaneseFolk_Guitar,-1,-1
42,100,0.1409090909090909,418,1,3,DL_JapaneseFolk_Guitar,-1,-1
52,100,0.2409090909090909,466,0,3,DL_JapaneseFolk_Guitar,-1,-1
45,100,0.2,546,0,3,DL_JapaneseFolk_Guitar,-1,-1
52,100,0.1590909090909091,611,0,3,DL_JapaneseFolk_Guitar,-1,-1
44,100,0.3,660,0,3,DL_JapaneseFolk_Guitar,-1,-1
52,100,0.11818181818181818,788,0,3,DL_JapaneseFolk_Guitar,-1,-1
40,100,0.18181818181818182,827,0,3,DL_JapaneseFolk_Guitar,-1,-1
59,100,0.6409090909090909,91,1,4,DL_JapaneseFolk_Guitar,-1,-1
56,100,0.2,307,1,4,DL_JapaneseFolk_Guitar,-1,-1
64,100,0.21818181818181817,373,0,4,DL_JapaneseFolk_Guitar,-1,-1
52,100,0.22272727272727272,421,0,4,DL_JapaneseFolk_Guitar,-1,-1
59,100,0.1409090909090909,509,0,4,DL_JapaneseFolk_Guitar,-1,-1
59,100,0.6590909090909091,637,0,4,DL_JapaneseFolk_Guitar,-1,-1
42,100,0.4772727272727273,823,0,4,DL_JapaneseFolk_Guitar,-1,-1
61,100,0.1590909090909091,128,1,5,DL_JapaneseFolk_Guitar,-1,-1
57,100,0.740909090909091,242,0,5,DL_JapaneseFolk_Guitar,-1,-1
52,100,0.1590909090909091,452,1,5,DL_JapaneseFolk_Guitar,-1,-1
52,100,0.3409090909090909,496,0,5,DL_JapaneseFolk_Guitar,-1,-1
42,100,0.1590909090909091,716,1,5,DL_JapaneseFolk_Guitar,-1,-1
52,100,0.38181818181818183,761,0,5,DL_JapaneseFolk_Guitar,-1,-1
57,100,0.5181818181818182,844,0,5,DL_JapaneseFolk_Guitar,-1,-1
42,100,0.18181818181818182,153,1,6,DL_JapaneseFolk_Guitar,-1,-1
57,100,0.4,207,0,6,DL_JapaneseFolk_Guitar,-1,-1
52,100,0.1,307,0,6,DL_JapaneseFolk_Guitar,-1,-1
42,100,0.1409090909090909,355,0,6,DL_JapaneseFolk_Guitar,-1,-1
57,100,0.8772727272727273,391,0,6,DL_JapaneseFolk_Guitar,-1,-1
52,100,0.6181818181818182,593,1,6,DL_JapaneseFolk_Guitar,-1,-1
57,100,0.3181818181818182,40,1,7,DL_JapaneseFolk_Guitar,-1,-1
52,100,0.2590909090909091,110,0,7,DL_JapaneseFolk_Guitar,-1,-1
50,100,0.18181818181818182,276,0,7,DL_JapaneseFolk_Guitar,-1,-1
42,100,0.11818181818181818,506,1,7,DL_JapaneseFolk_Guitar,-1,-1
57,100,0.3181818181818182,545,0,7,DL_JapaneseFolk_Guitar,-1,-1
50,100,0.4818181818181818,637,0,7,DL_JapaneseFolk_Guitar,-1,-1
59,100,0.36363636363636365,180,1,8,DL_JapaneseFolk_Guitar,-1,-1
49,100,0.6,378,0,8,DL_JapaneseFolk_Guitar,-1,-1
42,100,0.11818181818181818,656,1,8,DL_JapaneseFolk_Guitar,-1,-1
49,100,0.1,857,1,8,DL_JapaneseFolk_Guitar,-1,-1
57,100,0.23636363636363636,17,1,9,DL_JapaneseFolk_Guitar,-1,-1
42,100,0.17727272727272728,281,1,9,DL_JapaneseFolk_Guitar,-1,-1
47,100,0.5181818181818182,527,1,9,DL_JapaneseFolk_Guitar,-1,-1
62,100,0.3181818181818182,646,0,9,DL_JapaneseFolk_Guitar,-1,-1
42,100,0.12272727272727273,804,0,9,DL_JapaneseFolk_Guitar,-1,-1
57,100,0.5590909090909091,876,0,9,DL_JapaneseFolk_Guitar,-1,-1
47,100,0.1,127,1,10,DL_JapaneseFolk_Guitar,-1,-1
62,100,0.5409090909090909,233,0,10,DL_JapaneseFolk_Guitar,-1,-1
57,100,0.2818181818181818,355,0,10,DL_JapaneseFolk_Guitar,-1,-1
42,100,0.13636363636363635,436,0,10,DL_JapaneseFolk_Guitar,-1,-1
62,100,0.11818181818181818,470,0,10,DL_JapaneseFolk_Guitar,-1,-1
42,100,0.22272727272727272,685,1,10,DL_JapaneseFolk_Guitar,-1,-1
52,100,0.3,818,0,10,DL_JapaneseFolk_Guitar,-1,-1
56,100,0.7,395,1,11,DL_JapaneseFolk_Guitar,-1,-1
42,100,0.8772727272727273,589,0,11,DL_JapaneseFolk_Guitar,-1,-1
50,100,0.5818181818181818,818,1,11,DL_JapaneseFolk_Guitar,-1,-1
57,100,0.35909090909090907,259,1,12,DL_JapaneseFolk_Guitar,-1,-1
50,100,0.2590909090909091,405,0,12,DL_JapaneseFolk_Guitar,-1,-1
56,100,0.1409090909090909,488,0,12,DL_JapaneseFolk_Guitar,-1,-1
49,100,0.5818181818181818,92,1,13,DL_JapaneseFolk_Guitar,-1,-1
56,100,0.18181818181818182,440,1,13,DL_JapaneseFolk_Guitar,-1,-1
57,100,0.2590909090909091,625,0,13,DL_JapaneseFolk_Guitar,-1,-1
49,100,0.2,756,0,13,DL_JapaneseFolk_Guitar,-1,-1
56,100,0.2,818,0,13,DL_JapaneseFolk_Guitar,-1,-1
64,100,0.2772727272727273,876,0,13,DL_JapaneseFolk_Guitar,-1,-1
56,100,0.17727272727272728,75,1,14,DL_JapaneseFolk_Guitar,-1,-1
49,100,0.2,123,0,14,DL_JapaneseFolk_Guitar,-1,-1
47,100,0.5636363636363636,245,0,14,DL_JapaneseFolk_Guitar,-1,-1
57,100,0.2409090909090909,448,1,14,DL_JapaneseFolk_Guitar,-1,-1
62,100,0.2409090909090909,510,0,14,DL_JapaneseFolk_Guitar,-1,-1
57,100,0.32272727272727275,642,0,14,DL_JapaneseFolk_Guitar,-1,-1
52,100,0.1409090909090909,770,0,14,DL_JapaneseFolk_Guitar,-1,-1
57,100,0.12272727272727273,189,1,15,DL_JapaneseFolk_Guitar,-1,-1
57,100,0.6,254,0,15,DL_JapaneseFolk_Guitar,-1,-1
40,100,0.1409090909090909,405,0,15,DL_JapaneseFolk_Guitar,-1,-1
40,100,0.11818181818181818,440,0,15,DL_JapaneseFolk_Guitar,-1,-1
52,100,0.6409090909090909,465,0,15,DL_JapaneseFolk_Guitar,-1,-1
57,100,0.1,716,1,15,DL_JapaneseFolk_Guitar,-1,-1
52,100,0.6363636363636364,766,0,15,DL_JapaneseFolk_Guitar,-1,-1
52,100,0.2,119,1,16,DL_JapaneseFolk_Guitar,-1,-1
64,100,0.2772727272727273,216,0,16,DL_JapaneseFolk_Guitar,-1,-1
52,100,0.13636363636363635,326,0,16,DL_JapaneseFolk_Guitar,-1,-1
64,100,0.1409090909090909,374,0,16,DL_JapaneseFolk_Guitar,-1,-1
52,100,0.37727272727272726,413,0,16,DL_JapaneseFolk_Guitar,-1,-1
40,100,2.559090909090909,584,0,16,DL_JapaneseFolk_Guitar,-1,-1
52,100,0.5,299,1,17,DL_JapaneseFolk_Guitar,-1,-1
52,100,0.6409090909090909,430,0,17,DL_JapaneseFolk_Guitar,-1,-1
40,100,0.1,602,0,17,DL_JapaneseFolk_Guitar,-1,-1
64,100,0.11818181818181818,625,0,17,DL_JapaneseFolk_Guitar,-1,-1
45,100,0.4590909090909091,712,0,17,DL_JapaneseFolk_Guitar,-1,-1
45,100,0.9,839,0,17,DL_JapaneseFolk_Guitar,-1,-1
45,100,0.1409090909090909,162,1,18,DL_JapaneseFolk_Guitar,-1,-1
57,100,0.2590909090909091,198,0,18,DL_JapaneseFolk_Guitar,-1,-1
45,100,0.3,254,0,18,DL_JapaneseFolk_Guitar,-1,-1
61,100,0.3181818181818182,326,0,18,DL_JapaneseFolk_Guitar,-1,-1
45,100,0.1409090909090909,422,0,18,DL_JapaneseFolk_Guitar,-1,-1
61,100,0.4,509,0,18,DL_JapaneseFolk_Guitar,-1,-1
45,100,0.4409090909090909,739,1,18,DL_JapaneseFolk_Guitar,-1,-1
52,100,0.5409090909090909,845,0,18,DL_JapaneseFolk_Guitar,-1,-1
52,100,0.1409090909090909,241,1,19,DL_JapaneseFolk_Guitar,-1,-1
59,100,0.2,303,0,19,DL_JapaneseFolk_Guitar,-1,-1
52,100,0.4,382,0,19,DL_JapaneseFolk_Guitar,-1,-1
59,100,0.4,480,0,19,DL_JapaneseFolk_Guitar,-1,-1
59,100,0.11818181818181818,581,0,19,DL_JapaneseFolk_Guitar,-1,-1
62,100,0.2818181818181818,673,0,19,DL_JapaneseFolk_Guitar,-1,-1
59,100,0.32272727272727275,796,0,19,DL_JapaneseFolk_Guitar,-1,-1
40,100,0.2,0,1,20,DL_JapaneseFolk_Guitar,-1,-1
54,100,0.5818181818181818,113,0,20,DL_JapaneseFolk_Guitar,-1,-1
54,100,0.1409090909090909,316,1,20,DL_JapaneseFolk_Guitar,-1,-1
54,100,0.2590909090909091,374,0,20,DL_JapaneseFolk_Guitar,-1,-1
61,100,0.3181818181818182,436,0,20,DL_JapaneseFolk_Guitar,-1,-1
49,100,0.5818181818181818,264,1,21,DL_JapaneseFolk_Guitar,-1,-1
59,100,0.3409090909090909,409,0,21,DL_JapaneseFolk_Guitar,-1,-1
59,100,0.18181818181818182,528,0,21,DL_JapaneseFolk_Guitar,-1,-1
59,100,0.2590909090909091,594,0,21,DL_JapaneseFolk_Guitar,-1,-1
59,100,0.1,694,0,21,DL_JapaneseFolk_Guitar,-1,-1
49,100,0.1,760,0,21,DL_JapaneseFolk_Guitar,-1,-1
49,100,0.4409090909090909,801,0,21,DL_JapaneseFolk_Guitar,-1,-1
59,100,0.21818181818181817,83,1,22,DL_JapaneseFolk_Guitar,-1,-1
59,100,0.12272727272727273,144,0,22,DL_JapaneseFolk_Guitar,-1,-1
59,100,0.6181818181818182,216,0,22,DL_JapaneseFolk_Guitar,-1,-1
50,100,0.5590909090909091,418,1,22,DL_JapaneseFolk_Guitar,-1,-1
50,100,0.21818181818181817,853,1,22,DL_JapaneseFolk_Guitar,-1,-1
40,100,0.37727272727272726,61,1,23,DL_JapaneseFolk_Guitar,-1,-1
52,100,0.1590909090909091,144,0,23,DL_JapaneseFolk_Guitar,-1,-1
59,100,0.2409090909090909,229,0,23,DL_JapaneseFolk_Guitar,-1,-1
52,100,0.1590909090909091,320,0,23,DL_JapaneseFolk_Guitar,-1,-1
62,100,0.1590909090909091,387,0,23,DL_JapaneseFolk_Guitar,-1,-1
52,100,0.4590909090909091,440,0,23,DL_JapaneseFolk_Guitar,-1,-1
53,100,0.6409090909090909,553,0,23,DL_JapaneseFolk_Guitar,-1,-1
61,100,0.4590909090909091,779,1,23,DL_JapaneseFolk_Guitar,-1,-1
53,100,0.1,69,1,24,DL_JapaneseFolk_Guitar,-1,-1
54,100,0.5818181818181818,189,0,24,DL_JapaneseFolk_Guitar,-1,-1
54,100,0.1590909090909091,571,1,24,DL_JapaneseFolk_Guitar,-1,-1
54,100,0.1,615,0,24,DL_JapaneseFolk_Guitar,-1,-1
54,100,0.1409090909090909,642,0,24,DL_JapaneseFolk_Guitar,-1,-1
54,100,0.23636363636363636,40,1,25,DL_JapaneseFolk_Guitar,-1,-1
57,100,0.38181818181818183,154,0,25,DL_JapaneseFolk_Guitar,-1,-1
54,100,0.2818181818181818,550,1,25,DL_JapaneseFolk_Guitar,-1,-1
62,100,0.2818181818181818,619,0,25,DL_JapaneseFolk_Guitar,-1,-1
62,100,0.21818181818181817,756,0,25,DL_JapaneseFolk_Guitar,-1,-1
52,100,0.6,866,0,25,DL_JapaneseFolk_Guitar,-1,-1
52,100,0.3,123,1,26,DL_JapaneseFolk_Guitar,-1,-1
52,100,0.18181818181818182,223,0,26,DL_JapaneseFolk_Guitar,-1,-1
64,100,0.11818181818181818,295,0,26,DL_JapaneseFolk_Guitar,-1,-1
52,100,0.5818181818181818,374,0,26,DL_JapaneseFolk_Guitar,-1,-1
59,100,0.4590909090909091,515,0,26,DL_JapaneseFolk_Guitar,-1,-1
64,100,0.35909090909090907,677,0,26,DL_JapaneseFolk_Guitar,-1,-1
52,100,0.3,17,1,27,DL_JapaneseFolk_Guitar,-1,-1
57,100,0.2409090909090909,136,0,27,DL_JapaneseFolk_Guitar,-1,-1
45,100,0.32272727272727275,189,0,27,DL_JapaneseFolk_Guitar,-1,-1
57,100,0.1590909090909091,260,0,27,DL_JapaneseFolk_Guitar,-1,-1
45,100,0.5590909090909091,295,0,27,DL_JapaneseFolk_Guitar,-1,-1
45,100,0.4636363636363636,422,0,27,DL_JapaneseFolk_Guitar,-1,-1
57,100,0.1590909090909091,528,0,27,DL_JapaneseFolk_Guitar,-1,-1
45,100,0.5,563,0,27,DL_JapaneseFolk_Guitar,-1,-1
45,100,0.37727272727272726,691,0,27,DL_JapaneseFolk_Guitar,-1,-1
61,100,0.38181818181818183,835,0,27,DL_JapaneseFolk_Guitar,-1,-1
45,100,0.18181818181818182,44,1,28,DL_JapaneseFolk_Guitar,-1,-1
61,100,0.2,88,0,28,DL_JapaneseFolk_Guitar,-1,-1
45,100,0.4636363636363636,179,0,28,DL_JapaneseFolk_Guitar,-1,-1
52,100,0.5409090909090909,285,0,28,DL_JapaneseFolk_Guitar,-1,-1
59,100,0.3181818181818182,470,0,28,DL_JapaneseFolk_Guitar,-1,-1
52,100,0.2818181818181818,550,0,28,DL_JapaneseFolk_Guitar,-1,-1
52,100,0.4772727272727273,691,0,28,DL_JapaneseFolk_Guitar,-1,-1
62,100,0.2,804,0,28,DL_JapaneseFolk_Guitar,-1,-1
59,100,0.23636363636363636,237,1,29,DL_JapaneseFolk_Guitar,-1,-1
40,100,0.2818181818181818,320,0,29,DL_JapaneseFolk_Guitar,-1,-1
52,100,0.1,382,0,29,DL_JapaneseFolk_Guitar,-1,-1
54,100,0.11818181818181818,528,0,29,DL_JapaneseFolk_Guitar,-1,-1
61,100,0.36363636363636365,752,1,29,DL_JapaneseFolk_Guitar,-1,-1
42,100,0.1409090909090909,862,0,29,DL_JapaneseFolk_Guitar,-1,-1
61,100,0.1590909090909091,40,1,30,DL_JapaneseFolk_Guitar,-1,-1
54,100,0.35909090909090907,110,0,30,DL_JapaneseFolk_Guitar,-1,-1
54,100,0.3409090909090909,453,1,30,DL_JapaneseFolk_Guitar,-1,-1
57,100,0.22272727272727272,532,0,30,DL_JapaneseFolk_Guitar,-1,-1
49,100,0.5227272727272727,598,0,30,DL_JapaneseFolk_Guitar,-1,-1
49,100,0.22272727272727272,849,1,30,DL_JapaneseFolk_Guitar,-1,-1
59,100,0.2409090909090909,44,1,31,DL_JapaneseFolk_Guitar,-1,-1
49,100,0.17727272727272728,303,1,31,DL_JapaneseFolk_Guitar,-1,-1
59,100,0.42272727272727273,399,0,31,DL_JapaneseFolk_Guitar,-1,-1
49,100,0.22272727272727272,497,0,31,DL_JapaneseFolk_Guitar,-1,-1
59,100,0.6181818181818182,559,0,31,DL_JapaneseFolk_Guitar,-1,-1
50,100,0.5181818181818182,743,0,31,DL_JapaneseFolk_Guitar,-1,-1
50,100,0.2772727272727273,105,1,32,DL_JapaneseFolk_Guitar,-1,-1
61,100,0.3181818181818182,176,0,32,DL_JapaneseFolk_Guitar,-1,-1
57,100,0.2409090909090909,263,0,32,DL_JapaneseFolk_Guitar,-1,-1
57,100,0.2,330,0,32,DL_JapaneseFolk_Guitar,-1,-1
52,100,0.5590909090909091,383,0,32,DL_JapaneseFolk_Guitar,-1,-1
59,100,0.12272727272727273,598,1,32,DL_JapaneseFolk_Guitar,-1,-1
40,100,0.18181818181818182,708,0,32,DL_JapaneseFolk_Guitar,-1,-1
40,100,0.2818181818181818,770,0,32,DL_JapaneseFolk_Guitar,-1,-1
52,100,0.17727272727272728,845,0,32,DL_JapaneseFolk_Guitar,-1,-1
41,100,0.4818181818181818,21,1,33,DL_JapaneseFolk_Guitar,-1,-1
56,100,0.4818181818181818,166,0,33,DL_JapaneseFolk_Guitar,-1,-1
49,100,0.12272727272727273,289,0,33,DL_JapaneseFolk_Guitar,-1,-1
61,100,0.21818181818181817,316,0,33,DL_JapaneseFolk_Guitar,-1,-1
61,100,0.32272727272727275,431,0,33,DL_JapaneseFolk_Guitar,-1,-1
42,100,0.4818181818181818,541,0,33,DL_JapaneseFolk_Guitar,-1,-1
57,100,0.21818181818181817,791,1,33,DL_JapaneseFolk_Guitar,-1,-1
54,100,0.2772727272727273,31,1,34,DL_JapaneseFolk_Guitar,-1,-1
57,100,0.21818181818181817,105,0,34,DL_JapaneseFolk_Guitar,-1,-1
47,100,0.5227272727272727,166,0,34,DL_JapaneseFolk_Guitar,-1,-1
62,100,0.2636363636363636,289,0,34,DL_JapaneseFolk_Guitar,-1,-1
57,100,0.38181818181818183,378,0,34,DL_JapaneseFolk_Guitar,-1,-1
62,100,0.4590909090909091,545,0,34,DL_JapaneseFolk_Guitar,-1,-1
40,100,0.4636363636363636,686,0,34,DL_JapaneseFolk_Guitar,-1,-1
64,100,0.13636363636363635,18,1,35,DL_JapaneseFolk_Guitar,-1,-1
40,100,0.1409090909090909,69,0,35,DL_JapaneseFolk_Guitar,-1,-1
40,100,0.2,123,0,35,DL_JapaneseFolk_Guitar,-1,-1
64,100,0.17727272727272728,171,0,35,DL_JapaneseFolk_Guitar,-1,-1
40,100,0.18181818181818182,224,0,35,DL_JapaneseFolk_Guitar,-1,-1
64,100,0.2,273,0,35,DL_JapaneseFolk_Guitar,-1,-1
57,100,0.2409090909090909,316,0,35,DL_JapaneseFolk_Guitar,-1,-1
61,100,1.240909090909091,444,0,35,DL_JapaneseFolk_Guitar,-1,-1
57,100,0.16363636363636364,334,1,36,DL_JapaneseFolk_Guitar,-1,-1
45,100,0.33636363636363636,370,0,36,DL_JapaneseFolk_Guitar,-1,-1
57,100,0.1409090909090909,444,0,36,DL_JapaneseFolk_Guitar,-1,-1
50,100,0.4590909090909091,480,0,36,DL_JapaneseFolk_Guitar,-1,-1
57,100,0.5636363636363636,839,1,36,DL_JapaneseFolk_Guitar,-1,-1
45,100,0.4409090909090909,101,1,37,DL_JapaneseFolk_Guitar,-1,-1
57,100,0.4409090909090909,198,0,37,DL_JapaneseFolk_Guitar,-1,-1
45,100,0.8,421,1,37,DL_JapaneseFolk_Guitar,-1,-1
52,100,0.6,606,0,37,DL_JapaneseFolk_Guitar,-1,-1
54,100,0.5818181818181818,110,1,38,DL_JapaneseFolk_Guitar,-1,-1
54,100,0.3409090909090909,246,0,38,DL_JapaneseFolk_Guitar,-1,-1
57,100,0.1590909090909091,330,0,38,DL_JapaneseFolk_Guitar,-1,-1
64,100,0.2772727272727273,383,0,38,DL_JapaneseFolk_Guitar,-1,-1
54,100,0.1590909090909091,461,0,38,DL_JapaneseFolk_Guitar,-1,-1
54,100,0.4772727272727273,568,0,38,DL_JapaneseFolk_Guitar,-1,-1
54,100,0.1409090909090909,694,0,38,DL_JapaneseFolk_Guitar,-1,-1
50,100,0.8227272727272728,761,0,38,DL_JapaneseFolk_Guitar,-1,-1
45,100,0.41818181818181815,308,1,39,DL_JapaneseFolk_Guitar,-1,-1
45,100,0.21818181818181817,418,0,39,DL_JapaneseFolk_Guitar,-1,-1
45,100,0.7,743,1,39,DL_JapaneseFolk_Guitar,-1,-1
52,100,0.5409090909090909,34,1,40,DL_JapaneseFolk_Guitar,-1,-1
40,100,0.37727272727272726,193,0,40,DL_JapaneseFolk_Guitar,-1,-1
59,100,0.32272727272727275,356,0,40,DL_JapaneseFolk_Guitar,-1,-1
40,100,0.16363636363636364,444,0,40,DL_JapaneseFolk_Guitar,-1,-1
52,100,0.18181818181818182,496,0,40,DL_JapaneseFolk_Guitar,-1,-1
59,100,0.36363636363636365,554,0,40,DL_JapaneseFolk_Guitar,-1,-1
59,100,0.1409090909090909,641,0,40,DL_JapaneseFolk_Guitar,-1,-1
40,100,0.1409090909090909,703,0,40,DL_JapaneseFolk_Guitar,-1,-1
40,100,0.17727272727272728,875,0,40,DL_JapaneseFolk_Guitar,-1,-1
40,100,0.3,61,1,41,DL_JapaneseFolk_Guitar,-1,-1
52,100,0.1409090909090909,141,0,41,DL_JapaneseFolk_Guitar,-1,-1
50,100,0.6181818181818182,176,0,41,DL_JapaneseFolk_Guitar,-1,-1
45,100,0.21818181818181817,593,1,41,DL_JapaneseFolk_Guitar,-1,-1
45,100,0.7636363636363637,664,0,41,DL_JapaneseFolk_Guitar,-1,-1
45,100,0.3181818181818182,0,1,42,DL_JapaneseFolk_Guitar,-1,-1
45,100,0.8,141,0,42,DL_JapaneseFolk_Guitar,-1,-1
49,100,0.6,330,0,42,DL_JapaneseFolk_Guitar,-1,-1
49,100,0.1409090909090909,506,0,42,DL_JapaneseFolk_Guitar,-1,-1
54,100,0.6590909090909091,703,0,42,DL_JapaneseFolk_Guitar,-1,-1
54,100,0.3,853,0,42,DL_JapaneseFolk_Guitar,-1,-1
57,100,0.13636363636363635,61,1,43,DL_JapaneseFolk_Guitar,-1,-1
64,100,0.3181818181818182,105,0,43,DL_JapaneseFolk_Guitar,-1,-1
61,100,0.2409090909090909,176,0,43,DL_JapaneseFolk_Guitar,-1,-1
54,100,0.3409090909090909,276,0,43,DL_JapaneseFolk_Guitar,-1,-1
54,100,0.16363636363636364,356,0,43,DL_JapaneseFolk_Guitar,-1,-1
54,100,0.1590909090909091,431,0,43,DL_JapaneseFolk_Guitar,-1,-1
47,100,0.5227272727272727,488,0,43,DL_JapaneseFolk_Guitar,-1,-1
57,100,0.2,611,0,43,DL_JapaneseFolk_Guitar,-1,-1
61,100,0.38181818181818183,13,1,44,DL_JapaneseFolk_Guitar,-1,-1
49,100,0.3409090909090909,163,0,44,DL_JapaneseFolk_Guitar,-1,-1
50,100,0.17727272727272728,391,1,44,DL_JapaneseFolk_Guitar,-1,-1
64,100,0.13636363636363635,435,0,44,DL_JapaneseFolk_Guitar,-1,-1
52,100,0.11818181818181818,501,0,44,DL_JapaneseFolk_Guitar,-1,-1
52,100,0.4,531,0,44,DL_JapaneseFolk_Guitar,-1,-1
40,100,2.3636363636363638,619,0,44,DL_JapaneseFolk_Guitar,-1,-1
41,100,0.11818181818181818,571,1,45,DL_JapaneseFolk_Guitar,-1,-1
50,100,0.9,774,1,45,DL_JapaneseFolk_Guitar,-1,-1
50,100,0.1409090909090909,246,1,46,DL_JapaneseFolk_Guitar,-1,-1
50,100,0.21818181818181817,373,0,46,DL_JapaneseFolk_Guitar,-1,-1
57,100,0.37727272727272726,426,0,46,DL_JapaneseFolk_Guitar,-1,-1
50,100,0.22272727272727272,563,0,46,DL_JapaneseFolk_Guitar,-1,-1
57,100,0.5181818181818182,743,0,46,DL_JapaneseFolk_Guitar,-1,-1
45,100,0.8,61,1,47,DL_JapaneseFolk_Guitar,-1,-1
57,100,0.8590909090909091,348,1,47,DL_JapaneseFolk_Guitar,-1,-1
57,100,0.18181818181818182,571,1,47,DL_JapaneseFolk_Guitar,-1,-1
45,100,0.11818181818181818,858,1,47,DL_JapaneseFolk_Guitar,-1,-1
57,100,0.3409090909090909,13,1,48,DL_JapaneseFolk_Guitar,-1,-1
45,100,0.41818181818181815,105,0,48,DL_JapaneseFolk_Guitar,-1,-1
49,100,0.8590909090909091,206,0,48,DL_JapaneseFolk_Guitar,-1,-1
56,100,0.2409090909090909,408,1,48,DL_JapaneseFolk_Guitar,-1,-1
59,100,0.1,581,0,48,DL_JapaneseFolk_Guitar,-1,-1
49,100,0.1590909090909091,651,0,48,DL_JapaneseFolk_Guitar,-1,-1
56,100,0.18181818181818182,791,0,48,DL_JapaneseFolk_Guitar,-1,-1
56,100,0.18181818181818182,26,1,49,DL_JapaneseFolk_Guitar,-1,-1
59,100,0.1409090909090909,163,0,49,DL_JapaneseFolk_Guitar,-1,-1
42,100,0.759090909090909,364,1,49,DL_JapaneseFolk_Guitar,-1,-1
54,100,0.4772727272727273,545,0,49,DL_JapaneseFolk_Guitar,-1,-1
54,100,0.21818181818181817,193,1,50,DL_JapaneseFolk_Guitar,-1,-1
42,100,0.1590909090909091,273,0,50,DL_JapaneseFolk_Guitar,-1,-1
61,100,0.2,325,0,50,DL_JapaneseFolk_Guitar,-1,-1
61,100,0.11818181818181818,405,0,50,DL_JapaneseFolk_Guitar,-1,-1
47,100,0.5590909090909091,496,0,50,DL_JapaneseFolk_Guitar,-1,-1
47,100,0.3,628,0,50,DL_JapaneseFolk_Guitar,-1,-1
47,100,0.5818181818181818,761,0,50,DL_JapaneseFolk_Guitar,-1,-1
47,100,0.2636363636363636,26,1,51,DL_JapaneseFolk_Guitar,-1,-1
47,100,0.23636363636363636,150,0,51,DL_JapaneseFolk_Guitar,-1,-1
47,100,0.22272727272727272,276,0,51,DL_JapaneseFolk_Guitar,-1,-1
47,100,0.5818181818181818,330,0,51,DL_JapaneseFolk_Guitar,-1,-1
59,100,0.21818181818181817,480,0,51,DL_JapaneseFolk_Guitar,-1,-1
47,100,0.36363636363636365,531,0,51,DL_JapaneseFolk_Guitar,-1,-1
49,100,0.9590909090909091,651,0,51,DL_JapaneseFolk_Guitar,-1,-1
59,100,0.13636363636363635,875,1,51,DL_JapaneseFolk_Guitar,-1,-1
59,100,0.2772727272727273,105,1,52,DL_JapaneseFolk_Guitar,-1,-1
49,100,0.35909090909090907,211,0,52,DL_JapaneseFolk_Guitar,-1,-1
56,100,0.22272727272727272,298,0,52,DL_JapaneseFolk_Guitar,-1,-1
61,100,0.12272727272727273,576,1,52,DL_JapaneseFolk_Guitar,-1,-1
59,100,0.17727272727272728,625,0,52,DL_JapaneseFolk_Guitar,-1,-1
49,100,0.2,738,0,52,DL_JapaneseFolk_Guitar,-1,-1
50,100,2.3181818181818183,810,0,52,DL_JapaneseFolk_Guitar,-1,-1
57,100,0.4409090909090909,440,1,53,DL_JapaneseFolk_Guitar,-1,-1
50,100,0.2409090909090909,694,1,53,DL_JapaneseFolk_Guitar,-1,-1
57,100,0.2590909090909091,761,0,53,DL_JapaneseFolk_Guitar,-1,-1
50,100,0.22272727272727272,26,1,54,DL_JapaneseFolk_Guitar,-1,-1
52,100,0.8181818181818182,83,0,54,DL_JapaneseFolk_Guitar,-1,-1
40,100,0.3,295,1,54,DL_JapaneseFolk_Guitar,-1,-1
52,100,0.11818181818181818,361,0,54,DL_JapaneseFolk_Guitar,-1,-1
40,100,0.32272727272727275,641,1,54,DL_JapaneseFolk_Guitar,-1,-1
40,100,0.1,751,0,54,DL_JapaneseFolk_Guitar,-1,-1
52,100,0.11818181818181818,836,0,54,DL_JapaneseFolk_Guitar,-1,-1
40,100,0.32272727272727275,114,1,55,DL_JapaneseFolk_Guitar,-1,-1
50,100,0.8409090909090909,233,0,55,DL_JapaneseFolk_Guitar,-1,-1
50,100,0.1,581,1,55,DL_JapaneseFolk_Guitar,-1,-1
50,100,0.18181818181818182,638,0,55,DL_JapaneseFolk_Guitar,-1,-1
50,100,0.1590909090909091,260,1,56,DL_JapaneseFolk_Guitar,-1,-1
57,100,0.2772727272727273,370,0,56,DL_JapaneseFolk_Guitar,-1,-1
45,100,0.6,431,0,56,DL_JapaneseFolk_Guitar,-1,-1
45,100,0.2,606,0,56,DL_JapaneseFolk_Guitar,-1,-1
45,100,0.12272727272727273,664,0,56,DL_JapaneseFolk_Guitar,-1,-1
57,100,0.5,694,0,56,DL_JapaneseFolk_Guitar,-1,-1
45,100,0.1409090909090909,826,0,56,DL_JapaneseFolk_Guitar,-1,-1
57,100,0.21818181818181817,0,1,57,DL_JapaneseFolk_Guitar,-1,-1
45,100,0.6636363636363637,48,0,57,DL_JapaneseFolk_Guitar,-1,-1
45,100,0.1590909090909091,295,1,57,DL_JapaneseFolk_Guitar,-1,-1
61,100,0.6409090909090909,330,0,57,DL_JapaneseFolk_Guitar,-1,-1
45,100,0.1590909090909091,480,0,57,DL_JapaneseFolk_Guitar,-1,-1
49,100,0.8590909090909091,523,0,57,DL_JapaneseFolk_Guitar,-1,-1
49,100,0.41818181818181815,756,1,57,DL_JapaneseFolk_Guitar,-1,-1
49,100,0.5181818181818182,43,1,58,DL_JapaneseFolk_Guitar,-1,-1
49,100,0.18181818181818182,308,1,58,DL_JapaneseFolk_Guitar,-1,-1
59,100,0.22272727272727272,364,0,58,DL_JapaneseFolk_Guitar,-1,-1
49,100,0.3,418,0,58,DL_JapaneseFolk_Guitar,-1,-1
49,100,0.2772727272727273,603,0,58,DL_JapaneseFolk_Guitar,-1,-1
42,100,0.8,681,0,58,DL_JapaneseFolk_Guitar,-1,-1
61,100,0.2,141,1,59,DL_JapaneseFolk_Guitar,-1,-1
54,100,0.11818181818181818,185,0,59,DL_JapaneseFolk_Guitar,-1,-1
54,100,0.1,215,0,59,DL_JapaneseFolk_Guitar,-1,-1
61,100,0.1409090909090909,276,0,59,DL_JapaneseFolk_Guitar,-1,-1
64,100,0.1590909090909091,453,0,59,DL_JapaneseFolk_Guitar,-1,-1
64,100,0.32272727272727275,751,1,59,DL_JapaneseFolk_Guitar,-1,-1
54,100,0.1,826,0,59,DL_JapaneseFolk_Guitar,-1,-1
62,100,0.38181818181818183,136,1,60,DL_JapaneseFolk_Guitar,-1,-1
47,100,0.3409090909090909,383,1,60,DL_JapaneseFolk_Guitar,-1,-1
47,100,0.11818181818181818,568,0,60,DL_JapaneseFolk_Guitar,-1,-1
47,100,0.2409090909090909,598,0,60,DL_JapaneseFolk_Guitar,-1,-1
47,100,0.4,691,0,60,DL_JapaneseFolk_Guitar,-1,-1
62,100,0.3,788,0,60,DL_JapaneseFolk_Guitar,-1,-1
50,100,0.2590909090909091,96,1,61,DL_JapaneseFolk_Guitar,-1,-1
57,100,0.1590909090909091,386,1,61,DL_JapaneseFolk_Guitar,-1,-1
50,100,0.1,655,1,61,DL_JapaneseFolk_Guitar,-1,-1
50,100,0.3,708,0,61,DL_JapaneseFolk_Guitar,-1,-1
57,100,0.21818181818181817,875,0,61,DL_JapaneseFolk_Guitar,-1,-1
52,100,0.4409090909090909,233,1,62,DL_JapaneseFolk_Guitar,-1,-1
40,100,0.11818181818181818,528,1,62,DL_JapaneseFolk_Guitar,-1,-1
52,100,0.2409090909090909,619,0,62,DL_JapaneseFolk_Guitar,-1,-1
52,100,0.11818181818181818,726,0,62,DL_JapaneseFolk_Guitar,-1,-1
56,100,0.1409090909090909,845,0,62,DL_JapaneseFolk_Guitar,-1,-1
52,100,0.1409090909090909,8,1,63,DL_JapaneseFolk_Guitar,-1,-1
52,100,0.11818181818181818,75,0,63,DL_JapaneseFolk_Guitar,-1,-1
64,100,0.18181818181818182,220,0,63,DL_JapaneseFolk_Guitar,-1,-1
52,100,0.4,263,0,63,DL_JapaneseFolk_Guitar,-1,-1
59,100,0.1590909090909091,875,1,63,DL_JapaneseFolk_Guitar,-1,-1
59,100,0.6227272727272727,136,1,64,DL_JapaneseFolk_Guitar,-1,-1
59,100,0.5590909090909091,383,1,64,DL_JapaneseFolk_Guitar,-1,-1
57,100,1.1636363636363636,553,0,64,DL_JapaneseFolk_Guitar,-1,-1
45,100,0.18181818181818182,813,1,64,DL_JapaneseFolk_Guitar,-1,-1
45,100,0.13636363636363635,17,1,65,DL_JapaneseFolk_Guitar,-1,-1
45,100,0.8363636363636363,106,0,65,DL_JapaneseFolk_Guitar,-1,-1
61,100,0.3,303,0,65,DL_JapaneseFolk_Guitar,-1,-1
61,100,0.1590909090909091,404,0,65,DL_JapaneseFolk_Guitar,-1,-1
57,100,0.1590909090909091,449,0,65,DL_JapaneseFolk_Guitar,-1,-1
61,100,0.3,496,0,65,DL_JapaneseFolk_Guitar,-1,-1
57,100,0.22272727272727272,576,0,65,DL_JapaneseFolk_Guitar,-1,-1
45,100,0.23636363636363636,633,0,65,DL_JapaneseFolk_Guitar,-1,-1
40,100,0.4772727272727273,713,0,65,DL_JapaneseFolk_Guitar,-1,-1
59,100,0.1590909090909091,9,1,66,DL_JapaneseFolk_Guitar,-1,-1
52,100,0.1590909090909091,206,0,66,DL_JapaneseFolk_Guitar,-1,-1
40,100,0.42272727272727273,365,0,66,DL_JapaneseFolk_Guitar,-1,-1
40,100,0.12272727272727273,532,0,66,DL_JapaneseFolk_Guitar,-1,-1
40,100,0.2409090909090909,597,0,66,DL_JapaneseFolk_Guitar,-1,-1
59,100,0.22272727272727272,673,0,66,DL_JapaneseFolk_Guitar,-1,-1
52,100,0.42272727272727273,729,0,66,DL_JapaneseFolk_Guitar,-1,-1
42,100,0.5,857,0,66,DL_JapaneseFolk_Guitar,-1,-1
61,100,0.3,223,1,67,DL_JapaneseFolk_Guitar,-1,-1
57,100,0.1,523,1,67,DL_JapaneseFolk_Guitar,-1,-1
57,100,0.2409090909090909,550,0,67,DL_JapaneseFolk_Guitar,-1,-1
57,100,0.21818181818181817,810,1,67,DL_JapaneseFolk_Guitar,-1,-1
54,100,0.18181818181818182,862,0,67,DL_JapaneseFolk_Guitar,-1,-1
54,100,0.2,26,1,68,DL_JapaneseFolk_Guitar,-1,-1
49,100,0.1,113,0,68,DL_JapaneseFolk_Guitar,-1,-1
61,100,0.1590909090909091,206,0,68,DL_JapaneseFolk_Guitar,-1,-1
59,100,0.3181818181818182,250,0,68,DL_JapaneseFolk_Guitar,-1,-1
61,100,0.12272727272727273,365,0,68,DL_JapaneseFolk_Guitar,-1,-1
49,100,0.5181818181818182,392,0,68,DL_JapaneseFolk_Guitar,-1,-1
49,100,0.1,576,0,68,DL_JapaneseFolk_Guitar,-1,-1
49,100,0.1409090909090909,650,0,68,DL_JapaneseFolk_Guitar,-1,-1
49,100,0.3,686,0,68,DL_JapaneseFolk_Guitar,-1,-1
59,100,0.2818181818181818,773,0,68,DL_JapaneseFolk_Guitar,-1,-1
59,100,0.22272727272727272,839,0,68,DL_JapaneseFolk_Guitar,-1,-1
49,100,0.5590909090909091,17,1,69,DL_JapaneseFolk_Guitar,-1,-1
61,100,0.22272727272727272,166,0,69,DL_JapaneseFolk_Guitar,-1,-1
49,100,0.13636363636363635,216,0,69,DL_JapaneseFolk_Guitar,-1,-1
50,100,0.41818181818181815,286,0,69,DL_JapaneseFolk_Guitar,-1,-1
50,100,0.3181818181818182,572,1,69,DL_JapaneseFolk_Guitar,-1,-1
54,100,0.1409090909090909,826,1,69,DL_JapaneseFolk_Guitar,-1,-1
54,100,0.12272727272727273,862,0,69,DL_JapaneseFolk_Guitar,-1,-1
57,100,0.3409090909090909,53,1,70,DL_JapaneseFolk_Guitar,-1,-1
49,100,0.5590909090909091,417,1,70,DL_JapaneseFolk_Guitar,-1,-1
56,100,0.1590909090909091,546,0,70,DL_JapaneseFolk_Guitar,-1,-1
49,100,0.3409090909090909,686,0,70,DL_JapaneseFolk_Guitar,-1,-1
42,100,0.4590909090909091,74,1,71,DL_JapaneseFolk_Guitar,-1,-1
61,100,0.1590909090909091,206,0,71,DL_JapaneseFolk_Guitar,-1,-1
54,100,0.1,440,1,71,DL_JapaneseFolk_Guitar,-1,-1
54,100,0.11818181818181818,593,0,71,DL_JapaneseFolk_Guitar,-1,-1
47,100,0.11818181818181818,656,0,71,DL_JapaneseFolk_Guitar,-1,-1
57,100,0.21818181818181817,703,0,71,DL_JapaneseFolk_Guitar,-1,-1
47,100,0.17727272727272728,150,1,72,DL_JapaneseFolk_Guitar,-1,-1
47,100,0.2818181818181818,202,0,72,DL_JapaneseFolk_Guitar,-1,-1
47,100,0.2590909090909091,603,1,72,DL_JapaneseFolk_Guitar,-1,-1
52,100,0.6772727272727272,722,0,72,DL_JapaneseFolk_Guitar,-1,-1
52,100,0.2409090909090909,96,1,73,DL_JapaneseFolk_Guitar,-1,-1
59,100,0.11818181818181818,184,0,73,DL_JapaneseFolk_Guitar,-1,-1
52,100,0.3181818181818182,220,0,73,DL_JapaneseFolk_Guitar,-1,-1
52,100,0.1,294,0,73,DL_JapaneseFolk_Guitar,-1,-1
52,100,0.5227272727272727,356,0,73,DL_JapaneseFolk_Guitar,-1,-1
40,100,0.22272727272727272,619,1,73,DL_JapaneseFolk_Guitar,-1,-1
52,100,0.5,673,0,73,DL_JapaneseFolk_Guitar,-1,-1
52,100,0.22272727272727272,817,0,73,DL_JapaneseFolk_Guitar,-1,-1
45,100,0.4772727272727273,17,1,74,DL_JapaneseFolk_Guitar,-1,-1
61,100,0.35909090909090907,166,0,74,DL_JapaneseFolk_Guitar,-1,-1
57,100,0.35909090909090907,260,0,74,DL_JapaneseFolk_Guitar,-1,-1
61,100,0.32272727272727275,443,0,74,DL_JapaneseFolk_Guitar,-1,-1
45,100,0.3,563,0,74,DL_JapaneseFolk_Guitar,-1,-1
61,100,0.2409090909090909,637,0,74,DL_JapaneseFolk_Guitar,-1,-1
45,100,0.2818181818181818,707,0,74,DL_JapaneseFolk_Guitar,-1,-1
45,100,0.42272727272727273,783,0,74,DL_JapaneseFolk_Guitar,-1,-1
45,100,0.2590909090909091,43,1,75,DL_JapaneseFolk_Guitar,-1,-1
52,100,0.2772727272727273,140,0,75,DL_JapaneseFolk_Guitar,-1,-1
52,100,0.1,206,0,75,DL_JapaneseFolk_Guitar,-1,-1
52,100,0.1409090909090909,242,0,75,DL_JapaneseFolk_Guitar,-1,-1
52,100,0.7363636363636363,282,0,75,DL_JapaneseFolk_Guitar,-1,-1
52,100,0.2590909090909091,449,0,75,DL_JapaneseFolk_Guitar,-1,-1
40,100,0.38181818181818183,563,0,75,DL_JapaneseFolk_Guitar,-1,-1
52,100,0.2409090909090909,646,0,75,DL_JapaneseFolk_Guitar,-1,-1
40,100,0.1,743,0,75,DL_JapaneseFolk_Guitar,-1,-1
52,100,0.1590909090909091,766,0,75,DL_JapaneseFolk_Guitar,-1,-1
40,100,0.4772727272727273,800,0,75,DL_JapaneseFolk_Guitar,-1,-1
40,100,0.3,35,1,76,DL_JapaneseFolk_Guitar,-1,-1
40,100,0.21818181818181817,184,0,76,DL_JapaneseFolk_Guitar,-1,-1
52,100,0.2409090909090909,233,0,76,DL_JapaneseFolk_Guitar,-1,-1
42,100,0.5409090909090909,299,0,76,DL_JapaneseFolk_Guitar,-1,-1
54,100,0.1590909090909091,430,0,76,DL_JapaneseFolk_Guitar,-1,-1
61,100,0.2772727272727273,119,1,77,DL_JapaneseFolk_Guitar,-1,-1
54,100,0.2,303,0,77,DL_JapaneseFolk_Guitar,-1,-1
42,100,0.2,360,0,77,DL_JapaneseFolk_Guitar,-1,-1
49,100,0.5590909090909091,440,0,77,DL_JapaneseFolk_Guitar,-1,-1
56,100,0.5181818181818182,580,0,77,DL_JapaneseFolk_Guitar,-1,-1
59,100,0.2409090909090909,695,0,77,DL_JapaneseFolk_Guitar,-1,-1
59,100,0.35909090909090907,756,0,77,DL_JapaneseFolk_Guitar,-1,-1
59,100,0.12272727272727273,47,1,78,DL_JapaneseFolk_Guitar,-1,-1
61,100,0.2409090909090909,140,0,78,DL_JapaneseFolk_Guitar,-1,-1
49,100,0.2818181818181818,333,0,78,DL_JapaneseFolk_Guitar,-1,-1
49,100,0.2772727272727273,514,0,78,DL_JapaneseFolk_Guitar,-1,-1
50,100,0.4818181818181818,593,0,78,DL_JapaneseFolk_Guitar,-1,-1
52,100,0.17727272727272728,229,1,79,DL_JapaneseFolk_Guitar,-1,-1
59,100,0.32272727272727275,409,0,79,DL_JapaneseFolk_Guitar,-1,-1
52,100,0.11818181818181818,502,0,79,DL_JapaneseFolk_Guitar,-1,-1
52,100,0.2636363636363636,532,0,79,DL_JapaneseFolk_Guitar,-1,-1
40,100,0.4818181818181818,619,0,79,DL_JapaneseFolk_Guitar,-1,-1
56,100,1.1181818181818182,747,0,79,DL_JapaneseFolk_Guitar,-1,-1
61,100,0.5363636363636364,127,1,80,DL_JapaneseFolk_Guitar,-1,-1
42,100,0.5,386,1,80,DL_JapaneseFolk_Guitar,-1,-1
64,100,0.3,509,0,80,DL_JapaneseFolk_Guitar,-1,-1
54,100,0.4,629,0,80,DL_JapaneseFolk_Guitar,-1,-1
47,100,0.5772727272727273,9,1,81,DL_JapaneseFolk_Guitar,-1,-1
62,100,0.1,263,1,81,DL_JapaneseFolk_Guitar,-1,-1
47,100,0.41818181818181815,426,0,81,DL_JapaneseFolk_Guitar,-1,-1
49,100,0.5409090909090909,532,0,81,DL_JapaneseFolk_Guitar,-1,-1
59,100,0.5227272727272727,783,1,81,DL_JapaneseFolk_Guitar,-1,-1
61,100,0.1,17,1,82,DL_JapaneseFolk_Guitar,-1,-1
49,100,0.43636363636363634,40,0,82,DL_JapaneseFolk_Guitar,-1,-1
42,100,0.4636363636363636,179,0,82,DL_JapaneseFolk_Guitar,-1,-1
40,100,0.35909090909090907,426,1,82,DL_JapaneseFolk_Guitar,-1,-1
52,100,0.2,506,0,82,DL_JapaneseFolk_Guitar,-1,-1
57,100,0.42272727272727273,716,1,82,DL_JapaneseFolk_Guitar,-1,-1
49,100,1.1,47,1,83,DL_JapaneseFolk_Guitar,-1,-1
54,100,0.11818181818181818,339,1,83,DL_JapaneseFolk_Guitar,-1,-1
50,100,1.040909090909091,223,1,84,DL_JapaneseFolk_Guitar,-1,-1
52,100,0.38181818181818183,453,1,84,DL_JapaneseFolk_Guitar,-1,-1
52,100,0.5227272727272727,597,0,84,DL_JapaneseFolk_Guitar,-1,-1
52,100,0.38181818181818183,849,1,84,DL_JapaneseFolk_Guitar,-1,-1
40,100,0.1590909090909091,132,1,85,DL_JapaneseFolk_Guitar,-1,-1
59,100,0.1590909090909091,193,0,85,DL_JapaneseFolk_Guitar,-1,-1
42,100,0.41818181818181815,237,0,85,DL_JapaneseFolk_Guitar,-1,-1
42,100,0.1,333,0,85,DL_JapaneseFolk_Guitar,-1,-1
50,100,0.9181818181818182,660,1,85,DL_JapaneseFolk_Guitar,-1,-1
42,100,0.5,17,1,86,DL_JapaneseFolk_Guitar,-1,-1
42,100,0.21818181818181817,132,0,86,DL_JapaneseFolk_Guitar,-1,-1
64,100,0.1409090909090909,220,0,86,DL_JapaneseFolk_Guitar,-1,-1
64,100,0.8590909090909091,307,0,86,DL_JapaneseFolk_Guitar,-1,-1
42,100,0.4636363636363636,509,1,86,DL_JapaneseFolk_Guitar,-1,-1
64,100,0.4,616,0,86,DL_JapaneseFolk_Guitar,-1,-1
45,100,1.1590909090909092,756,0,86,DL_JapaneseFolk_Guitar,-1,-1
57,100,0.5227272727272727,532,1,87,DL_JapaneseFolk_Guitar,-1,-1
52,100,0.6818181818181818,660,0,87,DL_JapaneseFolk_Guitar,-1,-1
57,100,0.17727272727272728,866,1,87,DL_JapaneseFolk_Guitar,-1,-1
50,100,0.5181818181818182,43,1,88,DL_JapaneseFolk_Guitar,-1,-1
50,100,0.3,223,0,88,DL_JapaneseFolk_Guitar,-1,-1
57,100,0.5772727272727273,294,0,88,DL_JapaneseFolk_Guitar,-1,-1
50,100,0.12272727272727273,430,0,88,DL_JapaneseFolk_Guitar,-1,-1
52,100,0.6,540,0,88,DL_JapaneseFolk_Guitar,-1,-1
52,100,0.21818181818181817,682,0,88,DL_JapaneseFolk_Guitar,-1,-1
52,100,0.3181818181818182,734,0,88,DL_JapaneseFolk_Guitar,-1,-1
64,100,0.2409090909090909,13,1,89,DL_JapaneseFolk_Guitar,-1,-1
64,100,0.22272727272727272,92,0,89,DL_JapaneseFolk_Guitar,-1,-1
64,100,0.2590909090909091,184,0,89,DL_JapaneseFolk_Guitar,-1,-1
45,100,0.11818181818181818,260,0,89,DL_JapaneseFolk_Guitar,-1,-1
41,100,0.1,330,0,89,DL_JapaneseFolk_Guitar,-1,-1
42,100,0.12272727272727273,399,0,89,DL_JapaneseFolk_Guitar,-1,-1
40,100,0.5818181818181818,440,0,89,DL_JapaneseFolk_Guitar,-1,-1
40,100,0.12272727272727273,576,0,89,DL_JapaneseFolk_Guitar,-1,-1
64,100,0.5590909090909091,603,0,89,DL_JapaneseFolk_Guitar,-1,-1
42,100,0.2590909090909091,805,1,89,DL_JapaneseFolk_Guitar,-1,-1
52,100,0.4818181818181818,730,1,0,DL_Guitar,-1,-1
50,100,0.12272727272727273,47,1,1,DL_Guitar,-1,-1
52,100,0.21818181818181817,105,0,1,DL_Guitar,-1,-1
62,100,0.1409090909090909,276,0,1,DL_Guitar,-1,-1
52,100,0.2590909090909091,348,0,1,DL_Guitar,-1,-1
52,100,0.11818181818181818,744,1,1,DL_Guitar,-1,-1
59,100,0.32272727272727275,849,0,1,DL_Guitar,-1,-1
59,100,0.3,229,1,2,DL_Guitar,-1,-1
57,100,0.2818181818181818,488,1,2,DL_Guitar,-1,-1
55,100,0.11818181818181818,721,1,2,DL_Guitar,-1,-1
48,100,0.21818181818181817,149,1,3,DL_Guitar,-1,-1
43,100,0.13636363636363635,216,0,3,DL_Guitar,-1,-1
64,100,0.11818181818181818,373,0,3,DL_Guitar,-1,-1
64,100,0.1,629,1,3,DL_Guitar,-1,-1
52,100,0.1409090909090909,651,0,3,DL_Guitar,-1,-1
59,100,0.759090909090909,163,1,4,DL_Guitar,-1,-1
59,100,0.3409090909090909,514,1,4,DL_Guitar,-1,-1
62,100,0.11818181818181818,757,1,4,DL_Guitar,-1,-1
50,100,0.5636363636363636,818,0,4,DL_Guitar,-1,-1
62,100,0.3409090909090909,122,1,5,DL_Guitar,-1,-1
55,100,0.3409090909090909,263,0,5,DL_Guitar,-1,-1
55,100,0.3409090909090909,360,0,5,DL_Guitar,-1,-1
55,100,0.4818181818181818,496,0,5,DL_Guitar,-1,-1
56,100,0.35909090909090907,0,1,6,DL_Guitar,-1,-1
56,100,0.12272727272727273,245,1,6,DL_Guitar,-1,-1
52,100,0.18181818181818182,452,1,6,DL_Guitar,-1,-1
45,100,0.3181818181818182,506,0,6,DL_Guitar,-1,-1
57,100,0.759090909090909,651,0,6,DL_Guitar,-1,-1
47,100,0.18181818181818182,431,1,7,DL_Guitar,-1,-1
59,100,0.17727272727272728,470,0,7,DL_Guitar,-1,-1
62,100,0.11818181818181818,603,0,7,DL_Guitar,-1,-1
48,100,0.42272727272727273,672,0,7,DL_Guitar,-1,-1
55,100,0.2,774,0,7,DL_Guitar,-1,-1
48,100,0.1590909090909091,857,0,7,DL_Guitar,-1,-1
64,100,0.1409090909090909,48,1,8,DL_Guitar,-1,-1
60,100,0.2,79,0,8,DL_Guitar,-1,-1
55,100,0.3181818181818182,405,1,8,DL_Guitar,-1,-1
43,100,0.3,673,1,8,DL_Guitar,-1,-1
50,100,0.3409090909090909,835,0,8,DL_Guitar,-1,-1
43,100,0.42272727272727273,48,1,9,DL_Guitar,-1,-1
43,100,0.1590909090909091,563,1,9,DL_Guitar,-1,-1
59,100,0.21818181818181817,747,0,9,DL_Guitar,-1,-1
40,100,0.3,106,1,10,DL_Guitar,-1,-1
59,100,0.4590909090909091,185,0,10,DL_Guitar,-1,-1
64,100,0.32272727272727275,378,0,10,DL_Guitar,-1,-1
59,100,0.4,567,0,10,DL_Guitar,-1,-1
59,100,0.5363636363636364,699,0,10,DL_Guitar,-1,-1
59,100,0.2409090909090909,13,1,11,DL_Guitar,-1,-1
50,100,0.12272727272727273,355,1,11,DL_Guitar,-1,-1
57,100,0.17727272727272728,414,0,11,DL_Guitar,-1,-1
57,100,0.12272727272727273,474,0,11,DL_Guitar,-1,-1
55,100,0.12272727272727273,730,1,11,DL_Guitar,-1,-1
59,100,0.1409090909090909,871,0,11,DL_Guitar,-1,-1
59,100,0.22272727272727272,25,1,12,DL_Guitar,-1,-1
55,100,0.2409090909090909,92,0,12,DL_Guitar,-1,-1
55,100,0.2409090909090909,163,0,12,DL_Guitar,-1,-1
48,100,0.12272727272727273,343,0,12,DL_Guitar,-1,-1
48,100,0.3181818181818182,374,0,12,DL_Guitar,-1,-1
48,100,0.37727272727272726,515,0,12,DL_Guitar,-1,-1
60,100,0.1,682,0,12,DL_Guitar,-1,-1
55,100,0.2818181818181818,795,0,12,DL_Guitar,-1,-1
55,100,0.16363636363636364,3,1,13,DL_Guitar,-1,-1
60,100,0.1,202,1,13,DL_Guitar,-1,-1
55,100,0.1,391,0,13,DL_Guitar,-1,-1
50,100,0.1590909090909091,440,0,13,DL_Guitar,-1,-1
50,100,0.4409090909090909,510,0,13,DL_Guitar,-1,-1
43,100,0.5,629,0,13,DL_Guitar,-1,-1
50,100,0.21818181818181817,766,0,13,DL_Guitar,-1,-1
55,100,0.2590909090909091,194,1,14,DL_Guitar,-1,-1
57,100,0.2409090909090909,409,1,14,DL_Guitar,-1,-1
62,100,0.37727272727272726,809,1,14,DL_Guitar,-1,-1
55,100,0.21818181818181817,220,1,15,DL_Guitar,-1,-1
43,100,0.5227272727272727,783,1,15,DL_Guitar,-1,-1
43,100,0.2409090909090909,100,1,16,DL_Guitar,-1,-1
62,100,0.23636363636363636,281,0,16,DL_Guitar,-1,-1
43,100,0.1590909090909091,364,0,16,DL_Guitar,-1,-1
56,100,0.17727272727272728,492,0,16,DL_Guitar,-1,-1
55,100,0.2590909090909091,550,0,16,DL_Guitar,-1,-1
55,100,0.21818181818181817,611,0,16,DL_Guitar,-1,-1
55,100,0.5636363636363636,796,0,16,DL_Guitar,-1,-1
52,100,0.22272727272727272,48,1,17,DL_Guitar,-1,-1
52,100,0.1409090909090909,246,1,17,DL_Guitar,-1,-1
57,100,0.1,430,0,17,DL_Guitar,-1,-1
57,100,0.22272727272727272,729,1,17,DL_Guitar,-1,-1
57,100,0.5181818181818182,814,0,17,DL_Guitar,-1,-1
50,100,0.21818181818181817,131,1,18,DL_Guitar,-1,-1
50,100,0.1,615,1,18,DL_Guitar,-1,-1
62,100,0.1590909090909091,409,1,19,DL_Guitar,-1,-1
50,100,0.1,443,0,19,DL_Guitar,-1,-1
50,100,0.2772727272727273,470,0,19,DL_Guitar,-1,-1
59,100,0.5181818181818182,602,0,19,DL_Guitar,-1,-1
62,100,0.21818181818181817,858,1,19,DL_Guitar,-1,-1
59,100,0.2409090909090909,48,1,20,DL_Guitar,-1,-1
62,100,0.5409090909090909,229,0,20,DL_Guitar,-1,-1
62,100,0.11818181818181818,370,0,20,DL_Guitar,-1,-1
62,100,0.11818181818181818,436,0,20,DL_Guitar,-1,-1
62,100,0.22272727272727272,739,1,20,DL_Guitar,-1,-1
62,100,0.7227272727272728,870,0,20,DL_Guitar,-1,-1
57,100,0.11818181818181818,150,1,21,DL_Guitar,-1,-1
62,100,0.11818181818181818,175,0,21,DL_Guitar,-1,-1
50,100,0.36363636363636365,202,0,21,DL_Guitar,-1,-1
50,100,0.2,289,0,21,DL_Guitar,-1,-1
50,100,0.18181818181818182,399,0,21,DL_Guitar,-1,-1
50,100,0.22272727272727272,443,0,21,DL_Guitar,-1,-1
62,100,0.2,501,0,21,DL_Guitar,-1,-1
62,100,0.13636363636363635,567,0,21,DL_Guitar,-1,-1
48,100,0.9,638,0,21,DL_Guitar,-1,-1
48,100,0.1590909090909091,849,1,21,DL_Guitar,-1,-1
48,100,0.3,123,1,22,DL_Guitar,-1,-1
60,100,0.1590909090909091,237,0,22,DL_Guitar,-1,-1
48,100,0.12272727272727273,277,0,22,DL_Guitar,-1,-1
60,100,0.12272727272727273,312,0,22,DL_Guitar,-1,-1
60,100,0.3409090909090909,443,0,22,DL_Guitar,-1,-1
55,100,0.1590909090909091,646,1,22,DL_Guitar,-1,-1
59,100,0.12272727272727273,158,1,23,DL_Guitar,-1,-1
59,100,0.4590909090909091,250,0,23,DL_Guitar,-1,-1
59,100,0.1409090909090909,430,0,23,DL_Guitar,-1,-1
59,100,0.17727272727272728,492,0,23,DL_Guitar,-1,-1
59,100,0.2590909090909091,571,0,23,DL_Guitar,-1,-1
59,100,0.2,633,0,23,DL_Guitar,-1,-1
59,100,0.5,681,0,23,DL_Guitar,-1,-1
59,100,0.1409090909090909,801,0,23,DL_Guitar,-1,-1
59,100,0.2,862,0,23,DL_Guitar,-1,-1
64,100,0.1590909090909091,44,1,24,DL_Guitar,-1,-1
59,100,0.8363636363636363,127,0,24,DL_Guitar,-1,-1
52,100,0.3,320,0,24,DL_Guitar,-1,-1
59,100,0.17727272727272728,413,0,24,DL_Guitar,-1,-1
59,100,0.9,567,0,24,DL_Guitar,-1,-1
59,100,0.3409090909090909,801,1,24,DL_Guitar,-1,-1
47,100,0.1590909090909091,229,1,25,DL_Guitar,-1,-1
59,100,0.2,281,0,25,DL_Guitar,-1,-1
47,100,0.33636363636363636,326,0,25,DL_Guitar,-1,-1
59,100,0.17727272727272728,413,0,25,DL_Guitar,-1,-1
62,100,0.2590909090909091,567,0,25,DL_Guitar,-1,-1
59,100,0.5772727272727273,625,0,25,DL_Guitar,-1,-1
62,100,0.3,756,0,25,DL_Guitar,-1,-1
59,100,0.16363636363636364,862,0,25,DL_Guitar,-1,-1
47,100,0.12272727272727273,34,1,26,DL_Guitar,-1,-1
60,100,0.2409090909090909,387,1,26,DL_Guitar,-1,-1
48,100,0.18181818181818182,440,0,26,DL_Guitar,-1,-1
60,100,0.4,480,0,26,DL_Guitar,-1,-1
55,100,0.22272727272727272,584,0,26,DL_Guitar,-1,-1
60,100,0.1590909090909091,760,0,26,DL_Guitar,-1,-1
60,100,0.2,839,0,26,DL_Guitar,-1,-1
60,100,0.740909090909091,57,1,27,DL_Guitar,-1,-1
55,100,0.11818181818181818,250,0,27,DL_Guitar,-1,-1
60,100,0.1590909090909091,285,0,27,DL_Guitar,-1,-1
50,100,0.3181818181818182,505,1,27,DL_Guitar,-1,-1
50,100,0.1590909090909091,590,0,27,DL_Guitar,-1,-1
50,100,0.16363636363636364,686,0,27,DL_Guitar,-1,-1
57,100,0.1590909090909091,735,0,27,DL_Guitar,-1,-1
50,100,0.3,770,0,27,DL_Guitar,-1,-1
57,100,0.35909090909090907,835,0,27,DL_Guitar,-1,-1
62,100,0.2409090909090909,44,1,28,DL_Guitar,-1,-1
62,100,0.4409090909090909,131,0,28,DL_Guitar,-1,-1
50,100,0.2,241,0,28,DL_Guitar,-1,-1
57,100,0.5590909090909091,360,0,28,DL_Guitar,-1,-1
57,100,0.17727272727272728,515,0,28,DL_Guitar,-1,-1
62,100,0.740909090909091,725,1,28,DL_Guitar,-1,-1
50,100,0.1,17,1,29,DL_Guitar,-1,-1
62,100,0.11818181818181818,40,0,29,DL_Guitar,-1,-1
59,100,0.17727272727272728,75,0,29,DL_Guitar,-1,-1
62,100,0.42272727272727273,202,0,29,DL_Guitar,-1,-1
55,100,0.5409090909090909,382,0,29,DL_Guitar,-1,-1
59,100,0.11818181818181818,523,0,29,DL_Guitar,-1,-1
62,100,0.23636363636363636,567,0,29,DL_Guitar,-1,-1
62,100,0.3409090909090909,629,0,29,DL_Guitar,-1,-1
57,100,0.6181818181818182,756,0,29,DL_Guitar,-1,-1
50,100,0.11818181818181818,21,1,30,DL_Guitar,-1,-1
50,100,0.1590909090909091,79,0,30,DL_Guitar,-1,-1
57,100,0.5590909090909091,144,0,30,DL_Guitar,-1,-1
50,100,0.18181818181818182,277,0,30,DL_Guitar,-1,-1
57,100,0.37727272727272726,339,0,30,DL_Guitar,-1,-1
62,100,0.2409090909090909,422,0,30,DL_Guitar,-1,-1
50,100,0.2,474,0,30,DL_Guitar,-1,-1
57,100,0.6181818181818182,660,0,30,DL_Guitar,-1,-1
57,100,0.4636363636363636,48,1,31,DL_Guitar,-1,-1
57,100,0.2409090909090909,223,0,31,DL_Guitar,-1,-1
57,100,0.6409090909090909,285,0,31,DL_Guitar,-1,-1
47,100,0.18181818181818182,430,0,31,DL_Guitar,-1,-1
57,100,0.3,474,0,31,DL_Guitar,-1,-1
57,100,0.12272727272727273,629,0,31,DL_Guitar,-1,-1
47,100,0.13636363636363635,700,0,31,DL_Guitar,-1,-1
57,100,0.5181818181818182,810,0,31,DL_Guitar,-1,-1
57,100,0.1409090909090909,48,1,32,DL_Guitar,-1,-1
57,100,0.2,114,0,32,DL_Guitar,-1,-1
40,100,0.11818181818181818,220,0,32,DL_Guitar,-1,-1
59,100,0.22272727272727272,246,0,32,DL_Guitar,-1,-1
59,100,0.11818181818181818,316,0,32,DL_Guitar,-1,-1
59,100,0.3,361,0,32,DL_Guitar,-1,-1
62,100,0.11818181818181818,590,1,32,DL_Guitar,-1,-1
57,100,0.18181818181818182,641,0,32,DL_Guitar,-1,-1
55,100,0.21818181818181817,691,0,32,DL_Guitar,-1,-1
55,100,0.1409090909090909,21,1,33,DL_Guitar,-1,-1
59,100,0.11818181818181818,131,0,33,DL_Guitar,-1,-1
57,100,0.3,241,0,33,DL_Guitar,-1,-1
48,100,0.5,330,0,33,DL_Guitar,-1,-1
60,100,0.35909090909090907,581,1,33,DL_Guitar,-1,-1
60,100,0.2636363636363636,708,0,33,DL_Guitar,-1,-1
59,100,0.2,778,0,33,DL_Guitar,-1,-1
50,100,0.1590909090909091,875,0,33,DL_Guitar,-1,-1
47,100,0.5,483,1,34,DL_Guitar,-1,-1
47,100,0.41818181818181815,603,0,34,DL_Guitar,-1,-1
47,100,0.4818181818181818,738,0,34,DL_Guitar,-1,-1
62,100,0.2772727272727273,31,1,35,DL_Guitar,-1,-1
52,100,0.38181818181818183,110,0,35,DL_Guitar,-1,-1
52,100,0.21818181818181817,251,0,35,DL_Guitar,-1,-1
59,100,0.6409090909090909,466,1,35,DL_Guitar,-1,-1
57,100,1.059090909090909,628,0,35,DL_Guitar,-1,-1
52,100,0.2409090909090909,4,1,36,DL_Guitar,-1,-1
57,100,0.9818181818181818,110,0,36,DL_Guitar,-1,-1
50,100,0.36363636363636365,356,1,36,DL_Guitar,-1,-1
59,100,0.5,761,1,36,DL_Guitar,-1,-1
55,100,0.22272727272727272,78,1,37,DL_Guitar,-1,-1
62,100,0.2,131,0,37,DL_Guitar,-1,-1
64,100,0.38181818181818183,179,0,37,DL_Guitar,-1,-1
64,100,0.35909090909090907,435,1,37,DL_Guitar,-1,-1
48,100,0.2,584,0,37,DL_Guitar,-1,-1
55,100,0.21818181818181817,655,0,37,DL_Guitar,-1,-1
43,100,0.3181818181818182,810,0,37,DL_Guitar,-1,-1
55,100,0.11818181818181818,150,1,38,DL_Guitar,-1,-1
43,100,0.1590909090909091,176,0,38,DL_Guitar,-1,-1
62,100,0.18181818181818182,220,0,38,DL_Guitar,-1,-1
50,100,0.4818181818181818,673,1,38,DL_Guitar,-1,-1
50,100,0.3409090909090909,56,1,39,DL_Guitar,-1,-1
62,100,0.2,131,0,39,DL_Guitar,-1,-1
50,100,0.41818181818181815,176,0,39,DL_Guitar,-1,-1
55,100,0.3181818181818182,348,0,39,DL_Guitar,-1,-1
62,100,0.1590909090909091,435,0,39,DL_Guitar,-1,-1
64,100,0.35909090909090907,474,0,39,DL_Guitar,-1,-1
47,100,0.1409090909090909,625,0,39,DL_Guitar,-1,-1
64,100,0.3,738,0,39,DL_Guitar,-1,-1
48,100,0.22272727272727272,848,0,39,DL_Guitar,-1,-1
64,100,0.2,88,1,40,DL_Guitar,-1,-1
64,100,0.16363636363636364,136,0,40,DL_Guitar,-1,-1
55,100,0.1,201,0,40,DL_Guitar,-1,-1
43,100,0.2818181818181818,246,0,40,DL_Guitar,-1,-1
43,100,0.11818181818181818,471,1,40,DL_Guitar,-1,-1
43,100,0.17727272727272728,501,0,40,DL_Guitar,-1,-1
59,100,0.1409090909090909,646,0,40,DL_Guitar,-1,-1
50,100,0.36363636363636365,114,1,41,DL_Guitar,-1,-1
62,100,0.5590909090909091,321,1,41,DL_Guitar,-1,-1
43,100,0.4,488,0,41,DL_Guitar,-1,-1
55,100,0.2,584,0,41,DL_Guitar,-1,-1
43,100,0.3409090909090909,628,0,41,DL_Guitar,-1,-1
59,100,0.5590909090909091,713,0,41,DL_Guitar,-1,-1
55,100,0.2,839,0,41,DL_Guitar,-1,-1
55,100,0.2,101,1,42,DL_Guitar,-1,-1
55,100,0.1590909090909091,150,0,42,DL_Guitar,-1,-1
55,100,0.3409090909090909,201,0,42,DL_Guitar,-1,-1
59,100,0.6409090909090909,351,0,42,DL_Guitar,-1,-1
55,100,0.2772727272727273,515,0,42,DL_Guitar,-1,-1
57,100,1.1409090909090909,606,0,42,DL_Guitar,-1,-1
64,100,1.1409090909090909,871,1,42,DL_Guitar,-1,-1
57,100,0.1409090909090909,241,1,43,DL_Guitar,-1,-1
57,100,0.3,413,0,43,DL_Guitar,-1,-1
57,100,0.16363636363636364,509,0,43,DL_Guitar,-1,-1
55,100,0.6,611,0,43,DL_Guitar,-1,-1
60,100,0.1590909090909091,875,1,43,DL_Guitar,-1,-1
48,100,0.1409090909090909,31,1,44,DL_Guitar,-1,-1
60,100,0.5590909090909091,61,0,44,DL_Guitar,-1,-1
60,100,0.16363636363636364,224,0,44,DL_Guitar,-1,-1
62,100,0.33636363636363636,348,0,44,DL_Guitar,-1,-1
60,100,0.5590909090909091,496,0,44,DL_Guitar,-1,-1
42,100,0.12272727272727273,26,1,45,DL_Guitar,-1,-1
60,100,0.12272727272727273,69,1,51,DL_Guitar,-1,-1
47,100,0.2409090909090909,826,1,51,DL_Guitar,-1,-1
47,100,0.6363636363636364,61,1,52,DL_Guitar,-1,-1
62,100,0.1,361,1,52,DL_Guitar,-1,-1
47,100,2.2,396,0,52,DL_Guitar,-1,-1
60,100,0.38181818181818183,311,1,53,DL_Guitar,-1,-1
60,100,1.1409090909090909,471,0,53,DL_Guitar,-1,-1
60,100,0.2,861,1,53,DL_Guitar,-1,-1
60,100,0.4772727272727273,53,1,54,DL_Guitar,-1,-1
59,100,0.16363636363636364,224,0,54,DL_Guitar,-1,-1
48,100,1.040909090909091,311,0,54,DL_Guitar,-1,-1
48,100,0.3181818181818182,558,1,54,DL_Guitar,-1,-1
59,100,0.11818181818181818,743,0,54,DL_Guitar,-1,-1
50,100,0.5772727272727273,831,0,54,DL_Guitar,-1,-1
50,100,1.6181818181818182,83,1,55,DL_Guitar,-1,-1
50,100,1.0818181818181818,453,1,55,DL_Guitar,-1,-1
50,100,1.6636363636363636,708,1,55,DL_Guitar,-1,-1
50,100,0.4590909090909091,228,1,56,DL_Guitar,-1,-1
50,100,0.5227272727272727,343,0,56,DL_Guitar,-1,-1
50,100,0.2409090909090909,21,1,57,DL_Guitar,-1,-1
62,100,0.2590909090909091,123,0,57,DL_Guitar,-1,-1
50,100,0.1409090909090909,179,0,57,DL_Guitar,-1,-1
50,100,0.17727272727272728,458,1,58,DL_Guitar,-1,-1
50,100,0.6818181818181818,21,1,59,DL_Guitar,-1,-1
50,100,0.1409090909090909,176,0,59,DL_Guitar,-1,-1
50,100,0.18181818181818182,220,0,59,DL_Guitar,-1,-1
50,100,0.3409090909090909,444,1,59,DL_Guitar,-1,-1
50,100,2.1772727272727272,536,0,59,DL_Guitar,-1,-1
48,100,0.36363636363636365,311,1,60,DL_Guitar,-1,-1
48,100,0.5,408,0,60,DL_Guitar,-1,-1
48,100,0.3,523,0,60,DL_Guitar,-1,-1
50,100,1.0,303,1,61,DL_Guitar,-1,-1
50,100,0.8227272727272728,554,1,61,DL_Guitar,-1,-1
50,100,0.1409090909090909,813,1,61,DL_Guitar,-1,-1
50,100,0.3409090909090909,69,1,62,DL_Guitar,-1,-1
50,100,0.2,364,1,62,DL_Guitar,-1,-1
47,100,0.12272727272727273,686,1,62,DL_Guitar,-1,-1
40,100,0.1409090909090909,53,1,63,DL_Guitar,-1,-1
59,100,0.2636363636363636,114,0,63,DL_Guitar,-1,-1
40,100,0.21818181818181817,251,0,63,DL_Guitar,-1,-1
58,100,0.13636363636363635,501,1,63,DL_Guitar,-1,-1
47,100,1.3818181818181818,0,1,64,DL_Guitar,-1,-1
47,100,0.2,475,1,64,DL_Guitar,-1,-1
47,100,0.8,536,0,64,DL_Guitar,-1,-1
48,100,0.8818181818181818,783,1,64,DL_Guitar,-1,-1
59,100,0.1,360,1,65,DL_Guitar,-1,-1
59,100,0.1,386,0,65,DL_Guitar,-1,-1
59,100,0.2636363636363636,422,0,65,DL_Guitar,-1,-1
59,100,0.4409090909090909,506,0,65,DL_Guitar,-1,-1
59,100,0.5409090909090909,624,0,65,DL_Guitar,-1,-1
57,100,0.41818181818181815,9,1,66,DL_Guitar,-1,-1
50,100,0.21818181818181817,110,0,66,DL_Guitar,-1,-1
50,100,0.1,184,0,66,DL_Guitar,-1,-1
47,100,0.1,514,1,66,DL_Guitar,-1,-1
50,100,0.2818181818181818,66,1,68,DL_Guitar,-1,-1
50,100,0.11818181818181818,220,0,68,DL_Guitar,-1,-1
50,100,1.0636363636363637,289,0,68,DL_Guitar,-1,-1
50,100,0.4,633,1,68,DL_Guitar,-1,-1
50,100,0.3409090909090909,783,0,68,DL_Guitar,-1,-1
50,100,0.1590909090909091,870,0,68,DL_Guitar,-1,-1
50,100,0.9818181818181818,202,1,69,DL_Guitar,-1,-1
47,100,0.1590909090909091,166,1,70,DL_Guitar,-1,-1
47,100,0.5181818181818182,339,0,70,DL_Guitar,-1,-1
47,100,0.17727272727272728,590,1,70,DL_Guitar,-1,-1
47,100,0.4,656,0,70,DL_Guitar,-1,-1
47,100,0.9636363636363636,839,0,70,DL_Guitar,-1,-1
48,100,0.4409090909090909,862,1,71,DL_Guitar,-1,-1
47,100,0.1409090909090909,289,1,72,DL_Guitar,-1,-1
50,100,0.4590909090909091,360,0,72,DL_Guitar,-1,-1
50,100,0.2818181818181818,532,0,72,DL_Guitar,-1,-1
47,100,0.8,263,1,73,DL_Guitar,-1,-1
47,100,0.21818181818181817,457,0,73,DL_Guitar,-1,-1
47,100,0.6409090909090909,593,0,73,DL_Guitar,-1,-1
47,100,0.740909090909091,276,1,75,DL_Guitar,-1,-1
47,100,0.1,443,0,75,DL_Guitar,-1,-1
47,100,0.1409090909090909,506,0,75,DL_Guitar,-1,-1
47,100,0.5409090909090909,553,0,75,DL_Guitar,-1,-1
48,100,0.1409090909090909,443,1,76,DL_Guitar,-1,-1
59,100,0.2409090909090909,443,1,77,DL_Guitar,-1,-1
57,100,0.23636363636363636,700,1,77,DL_Guitar,-1,-1
57,100,0.2409090909090909,0,1,78,DL_Guitar,-1,-1
57,100,0.1,83,0,78,DL_Guitar,-1,-1
57,100,0.22272727272727272,145,0,78,DL_Guitar,-1,-1
57,100,0.11818181818181818,294,0,78,DL_Guitar,-1,-1
59,100,0.1,360,0,78,DL_Guitar,-1,-1
45,100,0.8590909090909091,722,1,78,DL_Guitar,-1,-1
47,100,0.8636363636363636,862,1,79,DL_Guitar,-1,-1
47,100,0.18181818181818182,210,1,80,DL_Guitar,-1,-1
47,100,0.1409090909090909,267,0,80,DL_Guitar,-1,-1
47,100,1.040909090909091,320,0,80,DL_Guitar,-1,-1
47,100,1.1,563,1,80,DL_Guitar,-1,-1
47,100,0.5,849,1,80,DL_Guitar,-1,-1
47,100,0.11818181818181818,96,1,81,DL_Guitar,-1,-1
48,100,0.8,220,0,81,DL_Guitar,-1,-1
48,100,0.7,475,1,81,DL_Guitar,-1,-1
50,100,0.11818181818181818,74,1,87,DL_Guitar,-1,-1
50,100,0.22272727272727272,113,0,87,DL_Guitar,-1,-1
50,100,0.5590909090909091,233,0,87,DL_Guitar,-1,-1
50,100,0.1409090909090909,377,0,87,DL_Guitar,-1,-1
47,100,0.4590909090909091,260,1,88,DL_Guitar,-1,-1
47,100,0.12272727272727273,399,0,88,DL_Guitar,-1,-1
45,100,0.1,716,1,93,DL_Guitar,-1,-1
43,100,0.1409090909090909,839,0,93,DL_Guitar,-1,-1
62,100,0.2818181818181818,0,1,94,DL_Guitar,-1,-1
62,100,0.11818181818181818,110,0,94,DL_Guitar,-1,-1
62,100,0.1409090909090909,229,0,94,DL_Guitar,-1,-1
64,100,0.35909090909090907,260,0,94,DL_Guitar,-1,-1
55,100,0.17727272727272728,347,0,94,DL_Guitar,-1,-1
62,100,0.21818181818181817,413,0,94,DL_Guitar,-1,-1
62,100,0.13636363636363635,480,0,94,DL_Guitar,-1,-1
64,100,0.3409090909090909,514,0,94,DL_Guitar,-1,-1
50,100,0.5181818181818182,726,1,94,DL_Guitar,-1,-1
62,100,0.1,307,1,95,DL_Guitar,-1,-1
50,100,0.740909090909091,637,1,95,DL_Guitar,-1,-1
62,100,0.12272727272727273,365,1,96,DL_Guitar,-1,-1
64,100,0.13636363636363635,392,0,96,DL_Guitar,-1,-1
62,100,0.1409090909090909,506,0,96,DL_Guitar,-1,-1
64,100,0.38181818181818183,540,0,96,DL_Guitar,-1,-1
62,100,0.11818181818181818,726,0,96,DL_Guitar,-1,-1
62,100,0.17727272727272728,756,0,96,DL_Guitar,-1,-1
64,100,0.3409090909090909,796,0,96,DL_Guitar,-1,-1
50,100,0.18181818181818182,179,1,97,DL_Guitar,-1,-1
50,100,0.1,223,0,97,DL_Guitar,-1,-1
50,100,0.1,276,0,97,DL_Guitar,-1,-1
50,100,0.1,303,0,97,DL_Guitar,-1,-1
62,100,0.2590909090909091,567,1,97,DL_Guitar,-1,-1
50,100,0.9181818181818182,30,1,98,DL_Guitar,-1,-1
50,100,0.18181818181818182,320,1,98,DL_Guitar,-1,-1
50,100,0.3181818181818182,559,1,98,DL_Guitar,-1,-1
50,100,0.21818181818181817,172,1,99,DL_Guitar,-1,-1
50,100,0.18181818181818182,276,0,99,DL_Guitar,-1,-1
50,100,0.1409090909090909,365,0,99,DL_Guitar,-1,-1
50,100,0.2818181818181818,817,1,99,DL_Guitar,-1,-1
50,100,0.1,333,1,100,DL_Guitar,-1,-1
50,100,0.11818181818181818,612,1,100,DL_Guitar,-1,-1
52,100,0.20454545454545456,384,1,0,DL_Guitar_2,-1,-1
60,100,0.09090909090909091,732,1,0,DL_Guitar_2,-1,-1
64,100,0.12727272727272726,809,0,0,DL_Guitar_2,-1,-1
64,100,0.2590909090909091,845,0,0,DL_Guitar_2,-1,-1
52,100,0.36818181818181817,73,1,1,DL_Guitar_2,-1,-1
59,100,0.14545454545454545,183,0,1,DL_Guitar_2,-1,-1
52,100,0.5909090909090909,244,0,1,DL_Guitar_2,-1,-1
53,100,0.09090909090909091,386,0,1,DL_Guitar_2,-1,-1
60,100,0.40454545454545454,620,1,1,DL_Guitar_2,-1,-1
57,100,0.16363636363636364,778,0,1,DL_Guitar_2,-1,-1
57,100,0.2590909090909091,863,0,1,DL_Guitar_2,-1,-1
53,100,0.23636363636363636,60,1,2,DL_Guitar_2,-1,-1
53,100,0.11363636363636363,116,0,2,DL_Guitar_2,-1,-1
53,100,0.16363636363636364,222,0,2,DL_Guitar_2,-1,-1
60,100,0.40454545454545454,290,0,2,DL_Guitar_2,-1,-1
57,100,0.40454545454545454,428,0,2,DL_Guitar_2,-1,-1
62,100,0.15,573,0,2,DL_Guitar_2,-1,-1
62,100,0.2772727272727273,638,0,2,DL_Guitar_2,-1,-1
57,100,0.18181818181818182,776,0,2,DL_Guitar_2,-1,-1
62,100,0.31363636363636366,852,0,2,DL_Guitar_2,-1,-1
62,100,0.10909090909090909,210,1,3,DL_Guitar_2,-1,-1
50,100,0.2,256,0,3,DL_Guitar_2,-1,-1
60,100,0.12727272727272726,663,1,3,DL_Guitar_2,-1,-1
60,100,0.20454545454545456,877,1,3,DL_Guitar_2,-1,-1
60,100,0.11363636363636363,551,1,4,DL_Guitar_2,-1,-1
64,100,0.11363636363636363,633,0,4,DL_Guitar_2,-1,-1
64,100,0.18181818181818182,682,0,4,DL_Guitar_2,-1,-1
64,100,0.2772727272727273,733,0,4,DL_Guitar_2,-1,-1
64,100,0.16818181818181818,799,0,4,DL_Guitar_2,-1,-1
64,100,0.18181818181818182,851,0,4,DL_Guitar_2,-1,-1
64,100,0.15,16,1,5,DL_Guitar_2,-1,-1
52,100,0.09090909090909091,80,0,5,DL_Guitar_2,-1,-1
52,100,0.4818181818181818,226,0,5,DL_Guitar_2,-1,-1
50,100,0.20454545454545456,562,1,5,DL_Guitar_2,-1,-1
60,100,0.29545454545454547,654,0,5,DL_Guitar_2,-1,-1
57,100,0.7545454545454545,735,0,5,DL_Guitar_2,-1,-1
60,100,0.10909090909090909,22,1,6,DL_Guitar_2,-1,-1
62,100,0.2772727272727273,446,1,6,DL_Guitar_2,-1,-1
62,100,0.31363636363636366,526,0,6,DL_Guitar_2,-1,-1
62,100,0.2409090909090909,704,0,6,DL_Guitar_2,-1,-1
50,100,0.2545454545454545,758,0,6,DL_Guitar_2,-1,-1
62,100,0.4954545454545455,75,1,7,DL_Guitar_2,-1,-1
62,100,0.12727272727272726,218,0,7,DL_Guitar_2,-1,-1
50,100,0.55,245,0,7,DL_Guitar_2,-1,-1
50,100,0.35,435,0,7,DL_Guitar_2,-1,-1
62,100,0.22272727272727272,625,0,7,DL_Guitar_2,-1,-1
62,100,0.16363636363636364,686,0,7,DL_Guitar_2,-1,-1
62,100,0.15,731,0,7,DL_Guitar_2,-1,-1
50,100,0.2727272727272727,764,0,7,DL_Guitar_2,-1,-1
62,100,0.10909090909090909,865,0,7,DL_Guitar_2,-1,-1
50,100,0.2,8,1,8,DL_Guitar_2,-1,-1
50,100,0.2727272727272727,85,0,8,DL_Guitar_2,-1,-1
62,100,0.12727272727272726,199,0,8,DL_Guitar_2,-1,-1
62,100,0.09090909090909091,369,0,8,DL_Guitar_2,-1,-1
60,100,0.8454545454545455,453,0,8,DL_Guitar_2,-1,-1
60,100,0.40454545454545454,648,0,8,DL_Guitar_2,-1,-1
57,100,0.2409090909090909,842,0,8,DL_Guitar_2,-1,-1
60,100,0.14545454545454545,22,1,9,DL_Guitar_2,-1,-1
53,100,0.20454545454545456,70,0,9,DL_Guitar_2,-1,-1
59,100,0.09090909090909091,120,0,9,DL_Guitar_2,-1,-1
59,100,0.38636363636363635,305,0,9,DL_Guitar_2,-1,-1
60,100,0.09090909090909091,398,0,9,DL_Guitar_2,-1,-1
60,100,0.7545454545454545,458,0,9,DL_Guitar_2,-1,-1
55,100,0.22272727272727272,737,1,9,DL_Guitar_2,-1,-1
53,100,0.09090909090909091,790,0,9,DL_Guitar_2,-1,-1
55,100,0.16818181818181818,819,0,9,DL_Guitar_2,-1,-1
55,100,0.14545454545454545,146,1,10,DL_Guitar_2,-1,-1
55,100,0.18181818181818182,182,0,10,DL_Guitar_2,-1,-1
62,100,0.09090909090909091,278,0,10,DL_Guitar_2,-1,-1
62,100,0.36818181818181817,307,0,10,DL_Guitar_2,-1,-1
55,100,0.6636363636363637,477,0,10,DL_Guitar_2,-1,-1
52,100,0.44545454545454544,82,1,11,DL_Guitar_2,-1,-1
52,100,0.1318181818181818,247,0,11,DL_Guitar_2,-1,-1
40,100,0.16818181818181818,321,0,11,DL_Guitar_2,-1,-1
53,100,0.12727272727272726,362,0,11,DL_Guitar_2,-1,-1
60,100,0.16363636363636364,498,0,11,DL_Guitar_2,-1,-1
53,100,0.18181818181818182,75,1,12,DL_Guitar_2,-1,-1
53,100,0.14545454545454545,254,0,12,DL_Guitar_2,-1,-1
55,100,0.11363636363636363,371,0,12,DL_Guitar_2,-1,-1
62,100,0.5681818181818182,508,0,12,DL_Guitar_2,-1,-1
62,100,0.11363636363636363,665,0,12,DL_Guitar_2,-1,-1
62,100,0.38636363636363635,694,0,12,DL_Guitar_2,-1,-1
62,100,0.31363636363636366,792,0,12,DL_Guitar_2,-1,-1
43,100,0.12727272727272726,32,1,13,DL_Guitar_2,-1,-1
55,100,0.35,101,0,13,DL_Guitar_2,-1,-1
55,100,0.12727272727272726,348,1,13,DL_Guitar_2,-1,-1
64,100,0.33181818181818185,752,1,13,DL_Guitar_2,-1,-1
62,100,0.22272727272727272,1,1,14,DL_Guitar_2,-1,-1
62,100,0.3090909090909091,123,0,14,DL_Guitar_2,-1,-1
50,100,0.10909090909090909,221,0,14,DL_Guitar_2,-1,-1
55,100,0.7,252,0,14,DL_Guitar_2,-1,-1
52,100,0.33181818181818185,422,0,14,DL_Guitar_2,-1,-1
55,100,0.36818181818181817,555,0,14,DL_Guitar_2,-1,-1
52,100,0.18636363636363637,27,1,15,DL_Guitar_2,-1,-1
52,100,0.16363636363636364,89,0,15,DL_Guitar_2,-1,-1
60,100,0.18181818181818182,154,0,15,DL_Guitar_2,-1,-1
52,100,0.6954545454545454,250,0,15,DL_Guitar_2,-1,-1
60,100,0.2590909090909091,465,1,15,DL_Guitar_2,-1,-1
50,100,0.09090909090909091,744,1,15,DL_Guitar_2,-1,-1
50,100,0.35,123,1,16,DL_Guitar_2,-1,-1
50,100,0.5136363636363637,272,0,16,DL_Guitar_2,-1,-1
50,100,0.10909090909090909,405,0,16,DL_Guitar_2,-1,-1
50,100,0.6454545454545455,495,0,16,DL_Guitar_2,-1,-1
50,100,0.5681818181818182,729,1,16,DL_Guitar_2,-1,-1
50,100,0.09545454545454546,23,1,17,DL_Guitar_2,-1,-1
50,100,0.09090909090909091,51,0,17,DL_Guitar_2,-1,-1
53,100,0.16818181818181818,88,0,17,DL_Guitar_2,-1,-1
53,100,0.10909090909090909,133,0,17,DL_Guitar_2,-1,-1
64,100,0.29545454545454547,475,1,17,DL_Guitar_2,-1,-1
52,100,0.23636363636363636,461,1,18,DL_Guitar_2,-1,-1
60,100,0.6090909090909091,514,0,18,DL_Guitar_2,-1,-1
55,100,0.14545454545454545,660,0,18,DL_Guitar_2,-1,-1
55,100,0.7727272727272727,700,0,18,DL_Guitar_2,-1,-1
55,100,0.16363636363636364,43,1,19,DL_Guitar_2,-1,-1
55,100,0.22272727272727272,168,0,19,DL_Guitar_2,-1,-1
52,100,0.5136363636363637,220,0,19,DL_Guitar_2,-1,-1
52,100,0.1318181818181818,354,0,19,DL_Guitar_2,-1,-1
50,100,0.8090909090909091,443,0,19,DL_Guitar_2,-1,-1
50,100,0.15,714,1,19,DL_Guitar_2,-1,-1
55,100,0.4409090909090909,763,0,19,DL_Guitar_2,-1,-1
55,100,0.29545454545454547,0,1,20,DL_Guitar_2,-1,-1
62,100,0.12727272727272726,65,0,20,DL_Guitar_2,-1,-1
50,100,0.4772727272727273,105,0,20,DL_Guitar_2,-1,-1
55,100,0.18181818181818182,267,0,20,DL_Guitar_2,-1,-1
55,100,0.34545454545454546,323,0,20,DL_Guitar_2,-1,-1
52,100,0.2772727272727273,865,1,20,DL_Guitar_2,-1,-1
52,100,0.18181818181818182,103,1,21,DL_Guitar_2,-1,-1
52,100,0.2909090909090909,188,0,21,DL_Guitar_2,-1,-1
52,100,1.3045454545454545,268,0,21,DL_Guitar_2,-1,-1
55,100,0.11363636363636363,624,1,21,DL_Guitar_2,-1,-1
52,100,0.2590909090909091,786,0,21,DL_Guitar_2,-1,-1
50,100,0.10909090909090909,862,0,21,DL_Guitar_2,-1,-1
50,100,0.38636363636363635,116,1,22,DL_Guitar_2,-1,-1
50,100,0.12727272727272726,233,0,22,DL_Guitar_2,-1,-1
55,100,0.2590909090909091,281,0,22,DL_Guitar_2,-1,-1
56,100,0.10909090909090909,399,0,22,DL_Guitar_2,-1,-1
60,100,0.8272727272727273,475,0,22,DL_Guitar_2,-1,-1
50,100,0.7,715,1,22,DL_Guitar_2,-1,-1
52,100,0.4409090909090909,4,1,23,DL_Guitar_2,-1,-1
55,100,0.2590909090909091,223,1,23,DL_Guitar_2,-1,-1
55,100,0.22272727272727272,336,0,23,DL_Guitar_2,-1,-1
59,100,0.23636363636363636,543,1,23,DL_Guitar_2,-1,-1
52,100,0.29545454545454547,2,1,24,DL_Guitar_2,-1,-1
52,100,0.5,277,1,24,DL_Guitar_2,-1,-1
53,100,0.12727272727272726,657,1,24,DL_Guitar_2,-1,-1
53,100,0.12727272727272726,876,1,24,DL_Guitar_2,-1,-1
50,100,0.38636363636363635,457,1,25,DL_Guitar_2,-1,-1
55,100,0.12727272727272726,550,0,25,DL_Guitar_2,-1,-1
55,100,0.38636363636363635,683,0,25,DL_Guitar_2,-1,-1
62,100,0.16363636363636364,6,1,26,DL_Guitar_2,-1,-1
50,100,0.12727272727272726,41,0,26,DL_Guitar_2,-1,-1
50,100,0.1318181818181818,74,0,26,DL_Guitar_2,-1,-1
62,100,0.18181818181818182,130,0,26,DL_Guitar_2,-1,-1
55,100,0.2772727272727273,227,0,26,DL_Guitar_2,-1,-1
62,100,0.33181818181818185,316,0,26,DL_Guitar_2,-1,-1
52,100,0.09090909090909091,450,0,26,DL_Guitar_2,-1,-1
48,100,0.22272727272727272,168,1,27,DL_Guitar_2,-1,-1
64,100,0.2,246,0,27,DL_Guitar_2,-1,-1
50,100,0.5363636363636364,77,1,41,DL_Guitar_2,-1,-1
50,100,0.40454545454545454,215,0,41,DL_Guitar_2,-1,-1
62,100,0.10909090909090909,324,0,41,DL_Guitar_2,-1,-1
50,100,0.16363636363636364,362,0,41,DL_Guitar_2,-1,-1
62,100,0.2590909090909091,410,0,41,DL_Guitar_2,-1,-1
62,100,0.10909090909090909,60,1,42,DL_Guitar_2,-1,-1
60,100,0.1318181818181818,483,1,42,DL_Guitar_2,-1,-1
48,100,0.16363636363636364,513,0,42,DL_Guitar_2,-1,-1
48,100,0.10909090909090909,585,0,42,DL_Guitar_2,-1,-1
48,100,0.10909090909090909,625,0,42,DL_Guitar_2,-1,-1
55,100,0.23636363636363636,702,0,42,DL_Guitar_2,-1,-1
55,100,0.10909090909090909,799,0,42,DL_Guitar_2,-1,-1
48,100,0.3090909090909091,74,1,43,DL_Guitar_2,-1,-1
55,100,0.2,441,1,43,DL_Guitar_2,-1,-1
55,100,0.2409090909090909,489,0,43,DL_Guitar_2,-1,-1
55,100,0.2772727272727273,563,0,43,DL_Guitar_2,-1,-1
55,100,0.16818181818181818,700,0,43,DL_Guitar_2,-1,-1
62,100,0.2409090909090909,772,0,43,DL_Guitar_2,-1,-1
43,100,0.2,50,1,44,DL_Guitar_2,-1,-1
62,100,0.10909090909090909,123,0,44,DL_Guitar_2,-1,-1
64,100,0.5318181818181819,150,1,45,DL_Guitar_2,-1,-1
64,100,0.4409090909090909,298,0,45,DL_Guitar_2,-1,-1
60,100,0.31363636363636366,537,1,45,DL_Guitar_2,-1,-1
60,100,0.18181818181818182,715,0,45,DL_Guitar_2,-1,-1
60,100,0.8272727272727273,792,0,45,DL_Guitar_2,-1,-1
60,100,0.10909090909090909,103,1,46,DL_Guitar_2,-1,-1
60,100,0.29545454545454547,151,0,46,DL_Guitar_2,-1,-1
60,100,0.8818181818181818,235,0,46,DL_Guitar_2,-1,-1
60,100,0.10909090909090909,467,1,46,DL_Guitar_2,-1,-1
55,100,0.6045454545454545,495,0,46,DL_Guitar_2,-1,-1
55,100,0.4818181818181818,713,1,46,DL_Guitar_2,-1,-1
55,100,0.6636363636363637,874,0,46,DL_Guitar_2,-1,-1
55,100,0.2,144,1,47,DL_Guitar_2,-1,-1
55,100,0.8454545454545455,192,0,47,DL_Guitar_2,-1,-1
55,100,0.16363636363636364,419,1,47,DL_Guitar_2,-1,-1
43,100,0.40454545454545454,513,0,47,DL_Guitar_2,-1,-1
55,100,1.4681818181818183,602,0,47,DL_Guitar_2,-1,-1
55,100,0.10909090909090909,122,1,48,DL_Guitar_2,-1,-1
55,100,0.35,153,0,48,DL_Guitar_2,-1,-1
60,100,0.2590909090909091,603,1,48,DL_Guitar_2,-1,-1
62,100,0.14545454545454545,14,1,49,DL_Guitar_2,-1,-1
60,100,0.33181818181818185,55,0,49,DL_Guitar_2,-1,-1
62,100,0.12727272727272726,225,0,49,DL_Guitar_2,-1,-1
60,100,0.09090909090909091,294,0,49,DL_Guitar_2,-1,-1
55,100,0.44545454545454544,556,1,49,DL_Guitar_2,-1,-1
50,100,0.21818181818181817,661,0,49,DL_Guitar_2,-1,-1
55,100,0.2590909090909091,709,0,49,DL_Guitar_2,-1,-1
50,100,0.12727272727272726,767,0,49,DL_Guitar_2,-1,-1
55,100,0.20454545454545456,795,0,49,DL_Guitar_2,-1,-1
55,100,0.23636363636363636,56,1,50,DL_Guitar_2,-1,-1
55,100,0.35,112,0,50,DL_Guitar_2,-1,-1
55,100,0.7,193,0,50,DL_Guitar_2,-1,-1
62,100,0.18636363636363637,396,1,50,DL_Guitar_2,-1,-1
57,100,0.7363636363636363,501,0,50,DL_Guitar_2,-1,-1
45,100,1.2136363636363636,662,0,50,DL_Guitar_2,-1,-1
55,100,0.15,57,1,51,DL_Guitar_2,-1,-1
43,100,0.8818181818181818,90,0,51,DL_Guitar_2,-1,-1
62,100,0.8272727272727273,284,0,51,DL_Guitar_2,-1,-1
48,100,0.36818181818181817,315,1,52,DL_Guitar_2,-1,-1
55,100,0.21818181818181817,508,0,52,DL_Guitar_2,-1,-1
55,100,0.4409090909090909,653,0,52,DL_Guitar_2,-1,-1
57,100,0.10909090909090909,819,0,52,DL_Guitar_2,-1,-1
55,100,0.7363636363636363,178,1,53,DL_Guitar_2,-1,-1
55,100,0.2727272727272727,357,0,53,DL_Guitar_2,-1,-1
55,100,0.18181818181818182,449,0,53,DL_Guitar_2,-1,-1
55,100,0.10909090909090909,680,1,53,DL_Guitar_2,-1,-1
55,100,0.1318181818181818,792,0,53,DL_Guitar_2,-1,-1
55,100,0.8454545454545455,825,0,53,DL_Guitar_2,-1,-1
55,100,0.6272727272727273,148,1,54,DL_Guitar_2,-1,-1
55,100,0.10909090909090909,330,0,54,DL_Guitar_2,-1,-1
55,100,0.4409090909090909,378,0,54,DL_Guitar_2,-1,-1
43,100,0.32727272727272727,572,0,54,DL_Guitar_2,-1,-1
55,100,0.6272727272727273,698,0,54,DL_Guitar_2,-1,-1
62,100,0.20454545454545456,12,1,55,DL_Guitar_2,-1,-1
55,100,0.18636363636363637,190,0,55,DL_Guitar_2,-1,-1
62,100,0.10909090909090909,267,0,55,DL_Guitar_2,-1,-1
55,100,0.22272727272727272,404,0,55,DL_Guitar_2,-1,-1
55,100,0.2772727272727273,456,0,55,DL_Guitar_2,-1,-1
55,100,0.40454545454545454,611,0,55,DL_Guitar_2,-1,-1
55,100,0.4772727272727273,731,0,55,DL_Guitar_2,-1,-1
55,100,0.5,857,0,55,DL_Guitar_2,-1,-1
55,100,0.16818181818181818,151,1,56,DL_Guitar_2,-1,-1
52,100,0.18181818181818182,296,0,56,DL_Guitar_2,-1,-1
55,100,0.31363636363636366,421,0,56,DL_Guitar_2,-1,-1
57,100,0.10909090909090909,648,1,56,DL_Guitar_2,-1,-1
55,100,0.2772727272727273,782,0,56,DL_Guitar_2,-1,-1
55,100,1.4863636363636363,846,0,56,DL_Guitar_2,-1,-1
55,100,0.9409090909090909,297,1,57,DL_Guitar_2,-1,-1
55,100,1.1045454545454545,521,1,57,DL_Guitar_2,-1,-1
55,100,0.16363636363636364,776,1,57,DL_Guitar_2,-1,-1
60,100,0.2590909090909091,13,1,58,DL_Guitar_2,-1,-1
55,100,0.9545454545454546,206,0,58,DL_Guitar_2,-1,-1
55,100,0.1318181818181818,428,1,58,DL_Guitar_2,-1,-1
62,100,0.2909090909090909,14,1,59,DL_Guitar_2,-1,-1
55,100,1.05,90,0,59,DL_Guitar_2,-1,-1
62,100,0.22272727272727272,337,1,59,DL_Guitar_2,-1,-1
62,100,0.2772727272727273,451,0,59,DL_Guitar_2,-1,-1
60,100,0.14545454545454545,852,1,59,DL_Guitar_2,-1,-1
55,100,0.18181818181818182,93,1,60,DL_Guitar_2,-1,-1
55,100,0.7,302,1,60,DL_Guitar_2,-1,-1
57,100,0.38636363636363635,618,1,60,DL_Guitar_2,-1,-1
55,100,0.9954545454545455,751,0,60,DL_Guitar_2,-1,-1
43,100,0.4590909090909091,98,1,61,DL_Guitar_2,-1,-1
55,100,0.31363636363636366,199,0,61,DL_Guitar_2,-1,-1
55,100,0.2772727272727273,349,0,61,DL_Guitar_2,-1,-1
55,100,0.21818181818181817,462,0,61,DL_Guitar_2,-1,-1
55,100,0.09545454545454546,538,0,61,DL_Guitar_2,-1,-1
55,100,0.12727272727272726,563,0,61,DL_Guitar_2,-1,-1
55,100,0.2727272727272727,637,0,61,DL_Guitar_2,-1,-1
55,100,0.40454545454545454,705,0,61,DL_Guitar_2,-1,-1
60,100,0.15,797,0,61,DL_Guitar_2,-1,-1
55,100,0.5909090909090909,19,1,62,DL_Guitar_2,-1,-1
55,100,0.36818181818181817,165,0,62,DL_Guitar_2,-1,-1
55,100,0.8272727272727273,289,0,62,DL_Guitar_2,-1,-1
55,100,0.12727272727272726,501,1,62,DL_Guitar_2,-1,-1
62,100,0.7,541,0,62,DL_Guitar_2,-1,-1
50,100,0.33181818181818185,105,1,63,DL_Guitar_2,-1,-1
62,100,0.12727272727272726,206,0,63,DL_Guitar_2,-1,-1
55,100,0.23636363636363636,364,0,63,DL_Guitar_2,-1,-1
55,100,1.4681818181818183,547,0,63,DL_Guitar_2,-1,-1
55,100,0.42272727272727273,11,1,64,DL_Guitar_2,-1,-1
52,100,0.10909090909090909,115,0,64,DL_Guitar_2,-1,-1
55,100,0.09545454545454546,188,0,64,DL_Guitar_2,-1,-1
55,100,1.009090909090909,305,0,64,DL_Guitar_2,-1,-1
57,100,0.11363636363636363,632,1,64,DL_Guitar_2,-1,-1
55,100,0.2545454545454545,670,0,64,DL_Guitar_2,-1,-1
55,100,0.11363636363636363,738,0,64,DL_Guitar_2,-1,-1
60,100,0.10909090909090909,762,0,64,DL_Guitar_2,-1,-1
55,100,0.29545454545454547,802,0,64,DL_Guitar_2,-1,-1
55,100,0.42272727272727273,0,1,65,DL_Guitar_2,-1,-1
43,100,0.1318181818181818,112,0,65,DL_Guitar_2,-1,-1
62,100,0.2909090909090909,141,0,65,DL_Guitar_2,-1,-1
62,100,0.35,218,0,65,DL_Guitar_2,-1,-1
62,100,0.38636363636363635,299,0,65,DL_Guitar_2,-1,-1
43,100,0.11363636363636363,387,0,65,DL_Guitar_2,-1,-1
55,100,0.5318181818181819,412,0,65,DL_Guitar_2,-1,-1
55,100,0.1318181818181818,577,0,65,DL_Guitar_2,-1,-1
55,100,1.0272727272727273,627,0,65,DL_Guitar_2,-1,-1
55,100,2.040909090909091,861,1,65,DL_Guitar_2,-1,-1
55,100,0.38636363636363635,458,1,66,DL_Guitar_2,-1,-1
60,100,0.7727272727272727,560,0,66,DL_Guitar_2,-1,-1
60,100,0.6227272727272727,733,0,66,DL_Guitar_2,-1,-1
55,100,0.11363636363636363,476,1,67,DL_Guitar_2,-1,-1
55,100,0.10909090909090909,533,0,67,DL_Guitar_2,-1,-1
55,100,1.1181818181818182,605,0,67,DL_Guitar_2,-1,-1
55,100,1.9090909090909092,0,1,68,DL_Guitar_2,-1,-1
53,100,0.5818181818181818,532,1,0,_Guitar,-1,-1
41,100,0.21818181818181817,660,0,0,_Guitar,-1,-1
55,100,0.17727272727272728,722,0,0,_Guitar,-1,-1
53,100,0.3409090909090909,783,0,0,_Guitar,-1,-1
55,100,0.2409090909090909,47,1,1,_Guitar,-1,-1
50,100,0.5636363636363636,180,0,1,_Guitar,-1,-1
50,100,0.5409090909090909,444,1,1,_Guitar,-1,-1
60,100,0.2818181818181818,571,0,1,_Guitar,-1,-1
48,100,0.12272727272727273,642,0,1,_Guitar,-1,-1
43,100,0.2,849,1,1,_Guitar,-1,-1
43,100,0.2409090909090909,91,1,2,_Guitar,-1,-1
53,100,0.32272727272727275,144,0,2,_Guitar,-1,-1
53,100,0.3,272,0,2,_Guitar,-1,-1
48,100,0.5636363636363636,356,0,2,_Guitar,-1,-1
48,100,0.3181818181818182,483,0,2,_Guitar,-1,-1
48,100,0.3,611,0,2,_Guitar,-1,-1
48,100,0.11818181818181818,743,0,2,_Guitar,-1,-1
53,100,0.4,3,1,3,_Guitar,-1,-1
41,100,0.17727272727272728,140,0,3,_Guitar,-1,-1
55,100,0.2,189,0,3,_Guitar,-1,-1
53,100,0.5590909090909091,259,0,3,_Guitar,-1,-1
50,100,0.6590909090909091,523,1,3,_Guitar,-1,-1
50,100,0.18181818181818182,672,0,3,_Guitar,-1,-1
60,100,0.1409090909090909,717,0,3,_Guitar,-1,-1
60,100,0.1409090909090909,761,0,3,_Guitar,-1,-1
50,100,0.4818181818181818,804,0,3,_Guitar,-1,-1
43,100,0.2,448,1,4,_Guitar,-1,-1
53,100,0.1590909090909091,496,0,4,_Guitar,-1,-1
53,100,0.22272727272727272,642,0,4,_Guitar,-1,-1
48,100,0.8409090909090909,713,0,4,_Guitar,-1,-1
55,100,0.41818181818181815,352,1,5,_Guitar,-1,-1
53,100,0.6227272727272727,465,0,5,_Guitar,-1,-1
53,100,0.2409090909090909,637,0,5,_Guitar,-1,-1
53,100,0.1,695,0,5,_Guitar,-1,-1
55,100,0.2772727272727273,810,0,5,_Guitar,-1,-1
50,100,0.35909090909090907,875,0,5,_Guitar,-1,-1
50,100,0.5818181818181818,79,1,6,_Guitar,-1,-1
50,100,0.5227272727272727,211,0,6,_Guitar,-1,-1
60,100,0.1,493,1,6,_Guitar,-1,-1
60,100,0.13636363636363635,721,1,6,_Guitar,-1,-1
53,100,0.2590909090909091,35,1,7,_Guitar,-1,-1
48,100,0.5818181818181818,176,0,7,_Guitar,-1,-1
48,100,0.2818181818181818,311,0,7,_Guitar,-1,-1
48,100,0.11818181818181818,448,0,7,_Guitar,-1,-1
48,100,0.11818181818181818,480,0,7,_Guitar,-1,-1
48,100,0.2636363636363636,532,0,7,_Guitar,-1,-1
60,100,0.1,619,0,7,_Guitar,-1,-1
53,100,0.9,700,0,7,_Guitar,-1,-1
53,100,0.5818181818181818,87,1,8,_Guitar,-1,-1
55,100,0.3,285,0,8,_Guitar,-1,-1
50,100,0.5409090909090909,470,0,8,_Guitar,-1,-1
50,100,0.2818181818181818,620,0,8,_Guitar,-1,-1
55,100,0.2409090909090909,804,0,8,_Guitar,-1,-1
43,100,0.18181818181818182,87,1,9,_Guitar,-1,-1
53,100,0.21818181818181817,127,0,9,_Guitar,-1,-1
43,100,0.3,254,0,9,_Guitar,-1,-1
53,100,0.3181818181818182,326,0,9,_Guitar,-1,-1
53,100,0.3,443,0,9,_Guitar,-1,-1
48,100,0.5818181818181818,532,0,9,_Guitar,-1,-1
48,100,0.21818181818181817,668,0,9,_Guitar,-1,-1
48,100,0.6590909090909091,792,0,9,_Guitar,-1,-1
60,100,0.2,369,1,10,_Guitar,-1,-1
53,100,0.3181818181818182,436,0,10,_Guitar,-1,-1
55,100,0.5181818181818182,505,0,10,_Guitar,-1,-1
55,100,0.37727272727272726,625,0,10,_Guitar,-1,-1
50,100,0.2818181818181818,826,1,10,_Guitar,-1,-1
50,100,0.2818181818181818,87,1,11,_Guitar,-1,-1
55,100,0.6,158,0,11,_Guitar,-1,-1
55,100,0.12272727272727273,343,0,11,_Guitar,-1,-1
43,100,0.13636363636363635,369,0,11,_Guitar,-1,-1
55,100,0.32272727272727275,409,0,11,_Guitar,-1,-1
60,100,0.2818181818181818,541,0,11,_Guitar,-1,-1
60,100,0.1590909090909091,629,0,11,_Guitar,-1,-1
55,100,0.3181818181818182,677,0,11,_Guitar,-1,-1
48,100,0.6772727272727272,876,1,11,_Guitar,-1,-1
48,100,0.3,189,1,12,_Guitar,-1,-1
60,100,0.13636363636363635,391,1,12,_Guitar,-1,-1
60,100,0.17727272727272728,426,0,12,_Guitar,-1,-1
55,100,0.1409090909090909,515,0,12,_Guitar,-1,-1
55,100,0.6590909090909091,572,0,12,_Guitar,-1,-1
53,100,0.35909090909090907,770,0,12,_Guitar,-1,-1
55,100,0.35909090909090907,854,0,12,_Guitar,-1,-1
50,100,0.9,171,1,13,_Guitar,-1,-1
50,100,0.3181818181818182,436,1,13,_Guitar,-1,-1
55,100,0.1409090909090909,101,1,14,_Guitar,-1,-1
55,100,0.8590909090909091,149,0,14,_Guitar,-1,-1
60,100,2.081818181818182,343,0,14,_Guitar,-1,-1
53,100,0.17727272727272728,810,1,25,_Guitar,-1,-1
53,100,0.17727272727272728,853,0,25,_Guitar,-1,-1
53,100,0.13636363636363635,17,1,26,_Guitar,-1,-1
53,100,0.1,839,1,27,_Guitar,-1,-1
53,100,0.1409090909090909,9,1,28,_Guitar,-1,-1
53,100,0.3,61,0,28,_Guitar,-1,-1
53,100,0.5590909090909091,144,0,28,_Guitar,-1,-1
53,100,0.8227272727272728,277,0,28,_Guitar,-1,-1
53,100,1.3227272727272728,466,0,28,_Guitar,-1,-1
53,100,0.7636363636363637,443,1,29,_Guitar,-1,-1
53,100,0.11818181818181818,615,0,29,_Guitar,-1,-1
50,100,0.5818181818181818,4,1,45,_Guitar,-1,-1
57,100,0.23636363636363636,150,0,45,_Guitar,-1,-1
60,100,0.6,201,0,45,_Guitar,-1,-1
50,100,0.2,619,1,45,_Guitar,-1,-1
50,100,0.4772727272727273,668,0,45,_Guitar,-1,-1
60,100,0.18181818181818182,791,0,45,_Guitar,-1,-1
57,100,0.1590909090909091,875,0,45,_Guitar,-1,-1
57,100,0.4,53,1,46,_Guitar,-1,-1
48,100,0.7818181818181819,176,0,46,_Guitar,-1,-1
48,100,0.7636363636363637,378,1,46,_Guitar,-1,-1
48,100,0.1409090909090909,75,1,47,_Guitar,-1,-1
48,100,0.18181818181818182,110,0,47,_Guitar,-1,-1
46,100,0.5818181818181818,351,1,47,_Guitar,-1,-1
46,100,0.11818181818181818,625,1,47,_Guitar,-1,-1
50,100,0.6,748,0,47,_Guitar,-1,-1
60,100,0.4590909090909091,721,1,48,_Guitar,-1,-1
60,100,0.4,370,1,49,_Guitar,-1,-1
60,100,0.18181818181818182,474,0,49,_Guitar,-1,-1
55,100,0.11818181818181818,691,1,49,_Guitar,-1,-1
43,100,0.2590909090909091,716,0,49,_Guitar,-1,-1
55,100,0.2818181818181818,179,1,50,_Guitar,-1,-1
55,100,0.1409090909090909,246,0,50,_Guitar,-1,-1
50,100,0.6590909090909091,418,0,50,_Guitar,-1,-1
55,100,0.1409090909090909,686,1,50,_Guitar,-1,-1
45,100,0.3,88,1,51,_Guitar,-1,-1
60,100,0.5590909090909091,198,0,51,_Guitar,-1,-1
60,100,0.2409090909090909,756,1,51,_Guitar,-1,-1
50,100,0.1,153,1,52,_Guitar,-1,-1
41,100,0.4772727272727273,273,0,52,_Guitar,-1,-1
60,100,0.5636363636363636,378,0,52,_Guitar,-1,-1
60,100,0.2818181818181818,21,1,53,_Guitar,-1,-1
48,100,0.12272727272727273,114,0,53,_Guitar,-1,-1
55,100,1.0227272727272727,144,0,53,_Guitar,-1,-1
60,100,0.4590909090909091,558,1,53,_Guitar,-1,-1
55,100,0.17727272727272728,678,0,53,_Guitar,-1,-1
55,100,0.6409090909090909,726,0,53,_Guitar,-1,-1
40,100,0.12272727272727273,48,1,54,_Guitar,-1,-1
40,100,0.18181818181818182,88,0,54,_Guitar,-1,-1
40,100,0.2590909090909091,131,0,54,_Guitar,-1,-1
60,100,0.5818181818181818,198,0,54,_Guitar,-1,-1
55,100,0.33636363636363636,325,0,54,_Guitar,-1,-1
55,100,0.2818181818181818,431,0,54,_Guitar,-1,-1
60,100,0.5,721,1,54,_Guitar,-1,-1
48,100,1.4772727272727273,171,1,55,_Guitar,-1,-1
55,100,0.4,716,1,55,_Guitar,-1,-1
57,100,0.6181818181818182,875,1,62,_Guitar,-1,-1
60,100,0.6409090909090909,188,1,63,_Guitar,-1,-1
57,100,0.3409090909090909,334,0,63,_Guitar,-1,-1
60,100,0.6590909090909091,716,1,63,_Guitar,-1,-1
60,100,0.4,13,1,64,_Guitar,-1,-1
55,100,0.2772727272727273,106,0,64,_Guitar,-1,-1
57,100,0.2409090909090909,179,0,64,_Guitar,-1,-1
60,100,0.6227272727272727,365,0,64,_Guitar,-1,-1
60,100,0.1590909090909091,546,0,64,_Guitar,-1,-1
55,100,0.37727272727272726,612,0,64,_Guitar,-1,-1
55,100,0.42272727272727273,760,0,64,_Guitar,-1,-1
55,100,0.1,866,0,64,_Guitar,-1,-1
60,100,0.6409090909090909,22,1,65,_Guitar,-1,-1
55,100,0.6818181818181818,197,0,65,_Guitar,-1,-1
60,100,0.6590909090909091,540,1,65,_Guitar,-1,-1
57,100,0.5409090909090909,686,0,65,_Guitar,-1,-1
41,100,0.1590909090909091,823,0,65,_Guitar,-1,-1
59,100,0.6409090909090909,47,1,66,_Guitar,-1,-1
60,100,1.540909090909091,189,0,66,_Guitar,-1,-1
45,100,0.3409090909090909,650,1,66,_Guitar,-1,-1
45,100,0.2409090909090909,796,0,66,_Guitar,-1,-1
55,100,0.5818181818181818,870,0,66,_Guitar,-1,-1
55,100,0.11818181818181818,153,1,67,_Guitar,-1,-1
55,100,0.1590909090909091,233,0,67,_Guitar,-1,-1
60,100,0.33636363636363636,370,0,67,_Guitar,-1,-1
55,100,0.8772727272727273,502,0,67,_Guitar,-1,-1
53,100,0.22272727272727272,805,1,67,_Guitar,-1,-1
60,100,0.8772727272727273,9,1,68,_Guitar,-1,-1
57,100,0.38181818181818183,202,0,68,_Guitar,-1,-1
53,100,0.2409090909090909,294,0,68,_Guitar,-1,-1
60,100,1.0,540,1,68,_Guitar,-1,-1
59,100,0.17727272727272728,779,1,68,_Guitar,-1,-1
59,100,0.1409090909090909,100,1,69,_Guitar,-1,-1
60,100,0.6,189,0,69,_Guitar,-1,-1
55,100,0.9,339,0,69,_Guitar,-1,-1
60,100,0.5409090909090909,726,1,69,_Guitar,-1,-1
55,100,0.8590909090909091,866,0,69,_Guitar,-1,-1
57,100,0.2,184,1,70,_Guitar,-1,-1
60,100,0.37727272727272726,360,0,70,_Guitar,-1,-1
57,100,0.16363636363636364,443,0,70,_Guitar,-1,-1
60,100,0.11818181818181818,483,0,70,_Guitar,-1,-1
57,100,0.2,519,0,70,_Guitar,-1,-1
53,100,0.1590909090909091,580,0,70,_Guitar,-1,-1
59,100,0.5227272727272727,773,0,70,_Guitar,-1,-1
60,100,1.1,13,1,71,_Guitar,-1,-1
55,100,0.759090909090909,365,1,71,_Guitar,-1,-1
60,100,0.5818181818181818,540,0,71,_Guitar,-1,-1
55,100,0.2590909090909091,682,0,71,_Guitar,-1,-1
43,100,0.2590909090909091,747,0,71,_Guitar,-1,-1
55,100,1.981818181818182,870,0,71,_Guitar,-1,-1
43,100,0.1409090909090909,426,1,72,_Guitar,-1,-1
54,100,0.2,0,1,21,_Remix_Guitar,-1,-1
54,100,0.1,712,1,21,_Remix_Guitar,-1,-1
54,100,0.22272727272727272,752,0,21,_Remix_Guitar,-1,-1
49,100,1.2227272727272727,26,1,22,_Remix_Guitar,-1,-1
49,100,0.2,540,1,22,_Remix_Guitar,-1,-1
51,100,0.7818181818181819,791,1,22,_Remix_Guitar,-1,-1
51,100,0.2,92,1,23,_Remix_Guitar,-1,-1
51,100,0.3181818181818182,185,0,23,_Remix_Guitar,-1,-1
51,100,0.6,289,0,23,_Remix_Guitar,-1,-1
51,100,0.7,430,0,23,_Remix_Guitar,-1,-1
51,100,0.1409090909090909,619,0,23,_Remix_Guitar,-1,-1
53,100,0.6,814,0,23,_Remix_Guitar,-1,-1
53,100,0.18181818181818182,113,1,24,_Remix_Guitar,-1,-1
53,100,0.8,272,0,24,_Remix_Guitar,-1,-1
53,100,0.12272727272727273,509,1,24,_Remix_Guitar,-1,-1
54,100,0.8818181818181818,113,1,25,_Remix_Guitar,-1,-1
49,100,0.3181818181818182,712,1,25,_Remix_Guitar,-1,-1
49,100,0.1,52,1,26,_Remix_Guitar,-1,-1
54,100,0.1409090909090909,13,1,27,_Remix_Guitar,-1,-1
49,100,0.12272727272727273,57,0,27,_Remix_Guitar,-1,-1
49,100,0.32272727272727275,277,1,27,_Remix_Guitar,-1,-1
54,100,0.2,347,0,27,_Remix_Guitar,-1,-1
49,100,0.2409090909090909,515,0,27,_Remix_Guitar,-1,-1
54,100,0.17727272727272728,801,1,27,_Remix_Guitar,-1,-1
54,100,0.3,849,0,27,_Remix_Guitar,-1,-1
49,100,0.2,9,1,29,_Remix_Guitar,-1,-1
49,100,0.18181818181818182,57,0,29,_Remix_Guitar,-1,-1
49,100,0.37727272727272726,237,0,29,_Remix_Guitar,-1,-1
49,100,0.3,440,1,29,_Remix_Guitar,-1,-1
49,100,0.22272727272727272,532,0,29,_Remix_Guitar,-1,-1
54,100,0.2409090909090909,373,1,89,_Remix_Guitar,-1,-1
54,100,0.2590909090909091,475,0,89,_Remix_Guitar,-1,-1
54,100,0.2818181818181818,663,0,89,_Remix_Guitar,-1,-1
54,100,0.2,857,0,89,_Remix_Guitar,-1,-1
54,100,0.1590909090909091,184,1,90,_Remix_Guitar,-1,-1
54,100,0.3409090909090909,267,0,90,_Remix_Guitar,-1,-1
54,100,0.1,392,0,90,_Remix_Guitar,-1,-1
54,100,0.21818181818181817,462,0,90,_Remix_Guitar,-1,-1
54,100,0.37727272727272726,523,0,90,_Remix_Guitar,-1,-1
54,100,0.2,356,1,91,_Remix_Guitar,-1,-1
56,100,0.1409090909090909,616,1,91,_Remix_Guitar,-1,-1
56,100,0.13636363636363635,216,1,92,_Remix_Guitar,-1,-1
51,100,1.2,409,0,92,_Remix_Guitar,-1,-1
51,100,0.32272727272727275,707,1,92,_Remix_Guitar,-1,-1
51,100,0.5227272727272727,796,0,92,_Remix_Guitar,-1,-1
51,100,0.11818181818181818,74,1,93,_Remix_Guitar,-1,-1
51,100,0.2,110,0,93,_Remix_Guitar,-1,-1
53,100,0.2409090909090909,580,1,93,_Remix_Guitar,-1,-1
54,100,0.11818181818181818,140,1,94,_Remix_Guitar,-1,-1
47,100,0.4818181818181818,255,0,94,_Remix_Guitar,-1,-1
54,100,0.3,466,1,94,_Remix_Guitar,-1,-1
47,100,0.3409090909090909,553,0,94,_Remix_Guitar,-1,-1
55,100,0.1,826,1,94,_Remix_Guitar,-1,-1
54,100,0.1590909090909091,870,0,94,_Remix_Guitar,-1,-1
56,100,0.1590909090909091,263,1,95,_Remix_Guitar,-1,-1
54,100,0.11818181818181818,396,0,95,_Remix_Guitar,-1,-1
49,100,0.1409090909090909,449,0,95,_Remix_Guitar,-1,-1
54,100,0.1409090909090909,716,1,95,_Remix_Guitar,-1,-1
54,100,0.1409090909090909,760,0,95,_Remix_Guitar,-1,-1
56,100,0.17727272727272728,832,0,95,_Remix_Guitar,-1,-1
55,100,0.2590909090909091,475,1,0,_Guitar,-1,-1
48,100,0.7,546,0,0,_Guitar,-1,-1
52,100,0.1590909090909091,704,0,0,_Guitar,-1,-1
52,100,0.17727272727272728,757,0,0,_Guitar,-1,-1
55,100,0.35909090909090907,871,0,0,_Guitar,-1,-1
47,100,0.6590909090909091,285,1,1,_Guitar,-1,-1
47,100,0.4590909090909091,475,0,1,_Guitar,-1,-1
55,100,0.18181818181818182,597,0,1,_Guitar,-1,-1
55,100,0.3,642,0,1,_Guitar,-1,-1
45,100,0.6227272727272727,26,1,2,_Guitar,-1,-1
55,100,0.11818181818181818,339,1,2,_Guitar,-1,-1
60,100,0.2590909090909091,474,0,2,_Guitar,-1,-1
40,100,0.6409090909090909,642,0,2,_Guitar,-1,-1
40,100,0.4636363636363636,818,0,2,_Guitar,-1,-1
55,100,0.32272727272727275,136,1,3,_Guitar,-1,-1
53,100,0.2590909090909091,351,1,3,_Guitar,-1,-1
41,100,0.21818181818181817,449,0,3,_Guitar,-1,-1
53,100,0.1409090909090909,537,0,3,_Guitar,-1,-1
57,100,0.5,571,0,3,_Guitar,-1,-1
57,100,0.2590909090909091,703,0,3,_Guitar,-1,-1
57,100,0.1590909090909091,61,1,4,_Guitar,-1,-1
53,100,0.35909090909090907,101,0,4,_Guitar,-1,-1
52,100,0.2,179,0,4,_Guitar,-1,-1
52,100,0.2,238,0,4,_Guitar,-1,-1
55,100,0.1409090909090909,317,0,4,_Guitar,-1,-1
60,100,0.4,496,0,4,_Guitar,-1,-1
50,100,0.7363636363636363,700,1,4,_Guitar,-1,-1
50,100,0.2818181818181818,69,1,5,_Guitar,-1,-1
57,100,0.5,317,1,5,_Guitar,-1,-1
50,100,0.1,695,1,5,_Guitar,-1,-1
55,100,1.0,744,0,5,_Guitar,-1,-1
55,100,0.1409090909090909,135,1,6,_Guitar,-1,-1
48,100,0.6818181818181818,176,0,6,_Guitar,-1,-1
52,100,0.5590909090909091,352,0,6,_Guitar,-1,-1
55,100,1.3818181818181818,483,0,6,_Guitar,-1,-1
47,100,0.6636363636363637,795,1,6,_Guitar,-1,-1
50,100,0.41818181818181815,61,1,7,_Guitar,-1,-1
47,100,0.12272727272727273,179,0,7,_Guitar,-1,-1
55,100,0.8590909090909091,220,0,7,_Guitar,-1,-1
50,100,0.13636363636363635,480,1,7,_Guitar,-1,-1
45,100,0.6590909090909091,527,0,7,_Guitar,-1,-1
45,100,0.1409090909090909,795,1,7,_Guitar,-1,-1
45,100,0.9227272727272727,871,0,7,_Guitar,-1,-1
52,100,0.7181818181818181,250,1,8,_Guitar,-1,-1
55,100,0.33636363636363636,436,0,8,_Guitar,-1,-1
55,100,0.1590909090909091,515,0,8,_Guitar,-1,-1
57,100,0.7772727272727272,567,0,8,_Guitar,-1,-1
57,100,0.4,744,0,8,_Guitar,-1,-1
53,100,0.759090909090909,871,0,8,_Guitar,-1,-1
53,100,0.18181818181818182,166,1,9,_Guitar,-1,-1
53,100,0.11818181818181818,259,0,9,_Guitar,-1,-1
57,100,1.3590909090909091,295,0,9,_Guitar,-1,-1
40,100,0.5818181818181818,620,1,9,_Guitar,-1,-1
52,100,0.6818181818181818,44,1,10,_Guitar,-1,-1
47,100,0.6590909090909091,347,1,10,_Guitar,-1,-1
50,100,0.6363636363636364,501,0,10,_Guitar,-1,-1
55,100,0.9818181818181818,660,0,10,_Guitar,-1,-1
55,100,0.3,0,1,11,_Guitar,-1,-1
48,100,0.7227272727272728,70,0,11,_Guitar,-1,-1
52,100,0.6181818181818182,228,0,11,_Guitar,-1,-1
55,100,0.4590909090909091,383,0,11,_Guitar,-1,-1
55,100,0.11818181818181818,493,0,11,_Guitar,-1,-1
48,100,0.1590909090909091,606,0,11,_Guitar,-1,-1
53,100,0.3181818181818182,646,0,11,_Guitar,-1,-1
57,100,0.2409090909090909,783,0,11,_Guitar,-1,-1
53,100,0.18181818181818182,849,0,11,_Guitar,-1,-1
48,100,0.2590909090909091,13,1,12,_Guitar,-1,-1
48,100,0.1590909090909091,237,1,12,_Guitar,-1,-1
55,100,0.1,352,0,12,_Guitar,-1,-1
43,100,0.1,431,0,12,_Guitar,-1,-1
55,100,0.38181818181818183,462,0,12,_Guitar,-1,-1
50,100,0.12272727272727273,563,0,12,_Guitar,-1,-1
55,100,0.21818181818181817,634,0,12,_Guitar,-1,-1
50,100,0.8590909090909091,682,0,12,_Guitar,-1,-1
55,100,0.4,871,0,12,_Guitar,-1,-1
52,100,0.21818181818181817,110,1,13,_Guitar,-1,-1
52,100,0.6,171,0,13,_Guitar,-1,-1
60,100,0.32272727272727275,321,0,13,_Guitar,-1,-1
47,100,0.13636363636363635,524,1,13,_Guitar,-1,-1
55,100,0.2409090909090909,663,0,13,_Guitar,-1,-1
45,100,0.6409090909090909,65,1,14,_Guitar,-1,-1
57,100,0.35909090909090907,206,0,14,_Guitar,-1,-1
60,100,0.2818181818181818,386,0,14,_Guitar,-1,-1
53,100,0.21818181818181817,493,0,14,_Guitar,-1,-1
62,100,0.37727272727272726,546,0,14,_Guitar,-1,-1
50,100,0.4,801,1,14,_Guitar,-1,-1
50,100,0.38181818181818183,92,1,15,_Guitar,-1,-1
52,100,0.35909090909090907,189,0,15,_Guitar,-1,-1
40,100,0.2409090909090909,285,0,15,_Guitar,-1,-1
50,100,0.2409090909090909,527,1,15,_Guitar,-1,-1
64,100,0.2,716,0,15,_Guitar,-1,-1
64,100,0.1,766,0,15,_Guitar,-1,-1
57,100,0.3181818181818182,281,1,16,_Guitar,-1,-1
45,100,0.9181818181818182,374,0,16,_Guitar,-1,-1
52,100,0.2,598,1,16,_Guitar,-1,-1
52,100,0.18181818181818182,650,0,16,_Guitar,-1,-1
57,100,0.12272727272727273,804,0,16,_Guitar,-1,-1
59,100,1.2,9,1,17,_Guitar,-1,-1
53,100,0.18181818181818182,285,1,17,_Guitar,-1,-1
48,100,0.4590909090909091,370,0,17,_Guitar,-1,-1
57,100,0.21818181818181817,470,0,17,_Guitar,-1,-1
48,100,0.1,646,0,17,_Guitar,-1,-1
43,100,0.2590909090909091,866,1,17,_Guitar,-1,-1
50,100,0.8,144,1,18,_Guitar,-1,-1
50,100,0.6,374,1,18,_Guitar,-1,-1
56,100,0.7181818181818181,656,1,18,_Guitar,-1,-1
56,100,0.2409090909090909,88,1,19,_Guitar,-1,-1
56,100,0.8590909090909091,144,0,19,_Guitar,-1,-1
45,100,0.2409090909090909,563,1,19,_Guitar,-1,-1
45,100,0.3,629,0,19,_Guitar,-1,-1
57,100,0.18181818181818182,88,1,20,_Guitar,-1,-1
50,100,0.5181818181818182,162,0,20,_Guitar,-1,-1
50,100,0.7,436,1,20,_Guitar,-1,-1
50,100,0.3,779,1,20,_Guitar,-1,-1
50,100,0.2,862,0,20,_Guitar,-1,-1
50,100,0.8227272727272728,254,1,21,_Guitar,-1,-1
50,100,0.9590909090909091,563,1,21,_Guitar,-1,-1
50,100,0.2590909090909091,876,1,21,_Guitar,-1,-1
55,100,0.2590909090909091,131,1,22,_Guitar,-1,-1
55,100,0.3409090909090909,210,0,22,_Guitar,-1,-1
55,100,0.1409090909090909,333,0,22,_Guitar,-1,-1
50,100,0.1,364,0,22,_Guitar,-1,-1
55,100,0.5409090909090909,405,0,22,_Guitar,-1,-1
52,100,0.33636363636363636,831,1,22,_Guitar,-1,-1
52,100,0.2590909090909091,61,1,23,_Guitar,-1,-1
52,100,0.5590909090909091,123,0,23,_Guitar,-1,-1
52,100,0.2818181818181818,277,0,23,_Guitar,-1,-1
55,100,0.32272727272727275,356,0,23,_Guitar,-1,-1
52,100,0.3409090909090909,426,0,23,_Guitar,-1,-1
55,100,0.5181818181818182,581,0,23,_Guitar,-1,-1
55,100,0.37727272727272726,779,1,23,_Guitar,-1,-1
55,100,0.16363636363636364,113,1,24,_Guitar,-1,-1
50,100,0.18181818181818182,175,0,24,_Guitar,-1,-1
55,100,0.22272727272727272,246,0,24,_Guitar,-1,-1
53,100,0.4409090909090909,308,0,24,_Guitar,-1,-1
53,100,0.4,430,0,24,_Guitar,-1,-1
53,100,0.4,594,0,24,_Guitar,-1,-1
57,100,0.3,694,0,24,_Guitar,-1,-1
53,100,0.2,770,0,24,_Guitar,-1,-1
57,100,0.1,822,0,24,_Guitar,-1,-1
53,100,0.1590909090909091,853,0,24,_Guitar,-1,-1
55,100,0.5636363636363636,69,1,25,_Guitar,-1,-1
52,100,0.12272727272727273,210,0,25,_Guitar,-1,-1
52,100,0.17727272727272728,250,0,25,_Guitar,-1,-1
52,100,0.21818181818181817,374,0,25,_Guitar,-1,-1
52,100,0.1,457,0,25,_Guitar,-1,-1
55,100,0.11818181818181818,492,0,25,_Guitar,-1,-1
52,100,0.6227272727272727,663,0,25,_Guitar,-1,-1
57,100,0.3,839,0,25,_Guitar,-1,-1
45,100,0.11818181818181818,198,1,26,_Guitar,-1,-1
52,100,0.18181818181818182,443,1,26,_Guitar,-1,-1
52,100,0.35909090909090907,501,0,26,_Guitar,-1,-1
52,100,0.42272727272727273,752,1,26,_Guitar,-1,-1
52,100,0.5818181818181818,862,0,26,_Guitar,-1,-1
53,100,0.12272727272727273,123,1,27,_Guitar,-1,-1
53,100,0.2818181818181818,154,0,27,_Guitar,-1,-1
53,100,0.2590909090909091,220,0,27,_Guitar,-1,-1
48,100,0.1409090909090909,374,0,27,_Guitar,-1,-1
53,100,0.4590909090909091,413,0,27,_Guitar,-1,-1
57,100,0.1590909090909091,615,1,27,_Guitar,-1,-1
53,100,0.2818181818181818,660,0,27,_Guitar,-1,-1
55,100,0.1,791,0,27,_Guitar,-1,-1
50,100,0.2590909090909091,827,0,27,_Guitar,-1,-1
50,100,0.35909090909090907,61,1,28,_Guitar,-1,-1
55,100,0.11818181818181818,285,1,28,_Guitar,-1,-1
50,100,0.2,339,0,28,_Guitar,-1,-1
52,100,0.11818181818181818,470,0,28,_Guitar,-1,-1
52,100,0.2,717,1,28,_Guitar,-1,-1
52,100,0.3409090909090909,773,0,28,_Guitar,-1,-1
55,100,0.1590909090909091,17,1,29,_Guitar,-1,-1
55,100,0.5,206,0,29,_Guitar,-1,-1
50,100,0.11818181818181818,316,0,29,_Guitar,-1,-1
55,100,0.3181818181818182,426,0,29,_Guitar,-1,-1
62,100,0.1409090909090909,584,0,29,_Guitar,-1,-1
43,100,0.1,615,0,29,_Guitar,-1,-1
50,100,0.11818181818181818,681,0,29,_Guitar,-1,-1
55,100,0.11818181818181818,735,0,29,_Guitar,-1,-1
53,100,0.3,818,0,29,_Guitar,-1,-1
48,100,0.11818181818181818,52,1,30,_Guitar,-1,-1
53,100,0.2818181818181818,92,0,30,_Guitar,-1,-1
53,100,0.32272727272727275,223,0,30,_Guitar,-1,-1
53,100,0.37727272727272726,303,0,30,_Guitar,-1,-1
53,100,0.11818181818181818,413,0,30,_Guitar,-1,-1
53,100,0.32272727272727275,474,0,30,_Guitar,-1,-1
48,100,0.2818181818181818,773,1,30,_Guitar,-1,-1
52,100,0.1590909090909091,285,1,31,_Guitar,-1,-1
52,100,0.1,333,0,31,_Guitar,-1,-1
52,100,0.5,430,0,31,_Guitar,-1,-1
52,100,0.8409090909090909,576,0,31,_Guitar,-1,-1
57,100,0.1590909090909091,760,0,31,_Guitar,-1,-1
57,100,0.11818181818181818,801,0,31,_Guitar,-1,-1
43,100,0.2590909090909091,31,1,32,_Guitar,-1,-1
62,100,0.13636363636363635,348,1,32,_Guitar,-1,-1
50,100,0.2818181818181818,483,0,32,_Guitar,-1,-1
55,100,0.7181818181818181,778,1,32,_Guitar,-1,-1
55,100,0.11818181818181818,206,1,33,_Guitar,-1,-1
52,100,0.2,295,0,33,_Guitar,-1,-1
52,100,0.2,461,0,33,_Guitar,-1,-1
52,100,0.1,691,1,33,_Guitar,-1,-1
55,100,0.5409090909090909,818,0,33,_Guitar,-1,-1
48,100,0.740909090909091,96,1,34,_Guitar,-1,-1
60,100,0.1409090909090909,541,1,34,_Guitar,-1,-1
43,100,0.3409090909090909,708,0,34,_Guitar,-1,-1
55,100,0.18181818181818182,871,0,34,_Guitar,-1,-1
50,100,0.2,40,1,35,_Guitar,-1,-1
62,100,1.018181818181818,141,0,35,_Guitar,-1,-1
57,100,0.16363636363636364,444,1,35,_Guitar,-1,-1
45,100,0.35909090909090907,518,0,35,_Guitar,-1,-1
57,100,0.4,660,0,35,_Guitar,-1,-1
60,100,0.11818181818181818,765,0,35,_Guitar,-1,-1
57,100,0.12272727272727273,826,0,35,_Guitar,-1,-1
57,100,0.22272727272727272,26,1,36,_Guitar,-1,-1
62,100,0.3409090909090909,554,1,36,_Guitar,-1,-1
53,100,0.11818181818181818,220,1,37,_Guitar,-1,-1
48,100,0.4818181818181818,254,0,37,_Guitar,-1,-1
48,100,0.21818181818181817,391,0,37,_Guitar,-1,-1
48,100,0.2409090909090909,466,0,37,_Guitar,-1,-1
48,100,0.6772727272727272,536,0,37,_Guitar,-1,-1
52,100,0.13636363636363635,700,0,37,_Guitar,-1,-1
52,100,0.3181818181818182,866,0,37,_Guitar,-1,-1
52,100,0.3409090909090909,96,1,38,_Guitar,-1,-1
60,100,0.4,171,0,38,_Guitar,-1,-1
57,100,0.35909090909090907,260,0,38,_Guitar,-1,-1
57,100,0.740909090909091,386,0,38,_Guitar,-1,-1
62,100,0.3181818181818182,646,1,38,_Guitar,-1,-1
57,100,0.12272727272727273,738,0,38,_Guitar,-1,-1
53,100,0.3181818181818182,810,0,38,_Guitar,-1,-1
50,100,0.1409090909090909,114,1,39,_Guitar,-1,-1
43,100,0.4,179,0,39,_Guitar,-1,-1
62,100,0.17727272727272728,361,0,39,_Guitar,-1,-1
59,100,0.2,471,0,39,_Guitar,-1,-1
52,100,0.6227272727272727,774,1,39,_Guitar,-1,-1
60,100,0.5181818181818182,75,1,40,_Guitar,-1,-1
52,100,0.2818181818181818,201,0,40,_Guitar,-1,-1
55,100,0.13636363636363635,303,0,40,_Guitar,-1,-1
55,100,0.2409090909090909,488,0,40,_Guitar,-1,-1
55,100,0.36363636363636365,796,1,40,_Guitar,-1,-1
45,100,0.6409090909090909,88,1,41,_Guitar,-1,-1
60,100,0.6409090909090909,396,1,41,_Guitar,-1,-1
57,100,0.12272727272727273,541,0,41,_Guitar,-1,-1
57,100,0.33636363636363636,611,0,41,_Guitar,-1,-1
62,100,0.3,211,1,42,_Guitar,-1,-1
57,100,0.6590909090909091,426,1,42,_Guitar,-1,-1
57,100,0.41818181818181815,633,1,42,_Guitar,-1,-1
60,100,0.16363636363636364,751,0,42,_Guitar,-1,-1
60,100,0.22272727272727272,839,0,42,_Guitar,-1,-1
41,100,0.11818181818181818,18,1,43,_Guitar,-1,-1
60,100,0.38181818181818183,43,0,43,_Guitar,-1,-1
43,100,0.2590909090909091,251,1,43,_Guitar,-1,-1
55,100,0.3181818181818182,383,0,43,_Guitar,-1,-1
55,100,0.16363636363636364,509,0,43,_Guitar,-1,-1
50,100,0.4772727272727273,633,0,43,_Guitar,-1,-1
48,100,0.1590909090909091,770,0,43,_Guitar,-1,-1
52,100,0.4818181818181818,48,1,44,_Guitar,-1,-1
60,100,0.18181818181818182,351,1,44,_Guitar,-1,-1
60,100,0.2818181818181818,408,0,44,_Guitar,-1,-1
55,100,0.3181818181818182,515,0,44,_Guitar,-1,-1
55,100,0.2590909090909091,616,0,44,_Guitar,-1,-1
52,100,1.7,678,0,44,_Guitar,-1,-1
60,100,0.12272727272727273,201,1,45,_Guitar,-1,-1
53,100,0.11818181818181818,238,0,45,_Guitar,-1,-1
41,100,0.6,263,0,45,_Guitar,-1,-1
41,100,0.36363636363636365,399,0,45,_Guitar,-1,-1
48,100,0.1590909090909091,743,1,45,_Guitar,-1,-1
53,100,0.18181818181818182,791,0,45,_Guitar,-1,-1
43,100,0.7181818181818181,858,0,45,_Guitar,-1,-1
59,100,0.8227272727272728,276,1,46,_Guitar,-1,-1
50,100,0.2818181818181818,474,1,46,_Guitar,-1,-1
52,100,0.8,581,0,46,_Guitar,-1,-1
52,100,0.2772727272727273,31,1,47,_Guitar,-1,-1
62,100,0.9,105,0,47,_Guitar,-1,-1
45,100,0.6,343,1,47,_Guitar,-1,-1
50,100,1.3409090909090908,56,1,48,_Guitar,-1,-1
50,100,0.7,421,1,48,_Guitar,-1,-1
50,100,0.2,581,0,48,_Guitar,-1,-1
47,100,0.35909090909090907,748,0,48,_Guitar,-1,-1
50,100,1.1227272727272728,123,1,49,_Guitar,-1,-1
45,100,0.2818181818181818,496,1,49,_Guitar,-1,-1
43,100,0.18181818181818182,619,1,50,_Guitar,-1,-1
53,100,0.2636363636363636,686,0,50,_Guitar,-1,-1
53,100,1.4,748,0,50,_Guitar,-1,-1
60,100,0.759090909090909,185,1,51,_Guitar,-1,-1
53,100,0.4,391,1,51,_Guitar,-1,-1
50,100,0.1590909090909091,515,0,51,_Guitar,-1,-1
59,100,0.4409090909090909,550,0,51,_Guitar,-1,-1
43,100,0.5,839,1,51,_Guitar,-1,-1
55,100,0.1,276,1,52,_Guitar,-1,-1
40,100,0.740909090909091,356,0,52,_Guitar,-1,-1
52,100,1.0818181818181818,528,0,52,_Guitar,-1,-1
52,100,0.5818181818181818,826,1,52,_Guitar,-1,-1
52,100,0.1590909090909091,96,1,53,_Guitar,-1,-1
52,100,0.22272727272727272,166,0,53,_Guitar,-1,-1
60,100,0.4590909090909091,308,0,53,_Guitar,-1,-1
55,100,0.2772727272727273,493,0,53,_Guitar,-1,-1
57,100,0.18181818181818182,703,1,53,_Guitar,-1,-1
57,100,0.21818181818181817,770,0,53,_Guitar,-1,-1
50,100,0.4409090909090909,48,1,54,_Guitar,-1,-1
50,100,0.740909090909091,444,1,54,_Guitar,-1,-1
57,100,0.18181818181818182,616,0,54,_Guitar,-1,-1
50,100,0.17727272727272728,721,0,54,_Guitar,-1,-1
50,100,0.2590909090909091,788,0,54,_Guitar,-1,-1
50,100,0.6590909090909091,128,1,55,_Guitar,-1,-1
55,100,0.4590909090909091,383,1,55,_Guitar,-1,-1
50,100,0.2590909090909091,518,0,55,_Guitar,-1,-1
43,100,0.5409090909090909,673,0,55,_Guitar,-1,-1
50,100,1.2772727272727273,105,1,56,_Guitar,-1,-1
57,100,0.1409090909090909,541,1,56,_Guitar,-1,-1
57,100,1.0818181818181818,748,1,57,_Guitar,-1,-1
45,100,0.4590909090909091,286,1,58,_Guitar,-1,-1
55,100,0.18181818181818182,399,0,58,_Guitar,-1,-1
55,100,0.11818181818181818,506,0,58,_Guitar,-1,-1
55,100,1.9227272727272726,598,0,58,_Guitar,-1,-1
53,100,0.8181818181818182,193,1,59,_Guitar,-1,-1
60,100,0.2590909090909091,418,1,59,_Guitar,-1,-1
55,100,1.2181818181818183,506,0,59,_Guitar,-1,-1
52,100,0.18181818181818182,813,1,59,_Guitar,-1,-1
45,100,0.2409090909090909,431,1,60,_Guitar,-1,-1
50,100,0.6181818181818182,558,0,60,_Guitar,-1,-1
57,100,0.4,0,1,61,_Guitar,-1,-1
50,100,0.21818181818181817,131,0,61,_Guitar,-1,-1
45,100,0.9,660,1,61,_Guitar,-1,-1
50,100,0.11818181818181818,40,1,62,_Guitar,-1,-1
43,100,0.12272727272727273,694,1,62,_Guitar,-1,-1
55,100,0.12272727272727273,861,0,62,_Guitar,-1,-1
55,100,0.7181818181818181,370,1,63,_Guitar,-1,-1
55,100,0.13636363636363635,633,1,63,_Guitar,-1,-1
55,100,0.6772727272727272,668,0,63,_Guitar,-1,-1
55,100,0.6181818181818182,823,0,63,_Guitar,-1,-1
55,100,0.1,96,1,64,_Guitar,-1,-1
50,100,0.5,145,0,64,_Guitar,-1,-1
50,100,0.7227272727272728,443,1,64,_Guitar,-1,-1
52,100,0.11818181818181818,197,1,65,_Guitar,-1,-1
52,100,0.1,250,0,65,_Guitar,-1,-1
57,100,0.13636363636363635,282,0,65,_Guitar,-1,-1
55,100,0.1590909090909091,457,0,65,_Guitar,-1,-1
55,100,0.1409090909090909,496,0,65,_Guitar,-1,-1
55,100,0.18181818181818182,540,0,65,_Guitar,-1,-1
55,100,0.11818181818181818,590,0,65,_Guitar,-1,-1
55,100,0.5409090909090909,619,0,65,_Guitar,-1,-1
55,100,0.11818181818181818,756,0,65,_Guitar,-1,-1
52,100,0.5363636363636364,787,0,65,_Guitar,-1,-1
55,100,0.4818181818181818,35,1,66,_Guitar,-1,-1
53,100,0.2590909090909091,184,0,66,_Guitar,-1,-1
53,100,0.2772727272727273,470,1,66,_Guitar,-1,-1
53,100,0.2409090909090909,572,0,66,_Guitar,-1,-1
48,100,0.3181818181818182,646,0,66,_Guitar,-1,-1
55,100,0.41818181818181815,726,0,66,_Guitar,-1,-1
52,100,0.12272727272727273,13,1,67,_Guitar,-1,-1
55,100,0.1590909090909091,66,0,67,_Guitar,-1,-1
57,100,0.6818181818181818,540,1,67,_Guitar,-1,-1
62,100,0.1409090909090909,66,1,68,_Guitar,-1,-1
57,100,0.3,110,0,68,_Guitar,-1,-1
50,100,0.11818181818181818,260,0,68,_Guitar,-1,-1
50,100,0.18181818181818182,289,0,68,_Guitar,-1,-1
43,100,0.1590909090909091,519,1,68,_Guitar,-1,-1
50,100,0.5409090909090909,606,0,68,_Guitar,-1,-1
52,100,0.3,330,1,69,_Guitar,-1,-1
57,100,0.12272727272727273,475,0,69,_Guitar,-1,-1
55,100,0.1409090909090909,624,0,69,_Guitar,-1,-1
55,100,0.6772727272727272,756,0,69,_Guitar,-1,-1
52,100,0.759090909090909,35,1,70,_Guitar,-1,-1
55,100,0.37727272727272726,229,0,70,_Guitar,-1,-1
53,100,0.41818181818181815,347,0,70,_Guitar,-1,-1
60,100,0.1590909090909091,457,0,70,_Guitar,-1,-1
53,100,0.11818181818181818,590,0,70,_Guitar,-1,-1
50,100,0.5409090909090909,682,0,70,_Guitar,-1,-1
50,100,0.1,826,0,70,_Guitar,-1,-1
50,100,0.18181818181818182,22,1,71,_Guitar,-1,-1
52,100,0.6409090909090909,92,0,71,_Guitar,-1,-1
48,100,0.21818181818181817,260,0,71,_Guitar,-1,-1
55,100,0.3409090909090909,550,1,71,_Guitar,-1,-1
55,100,0.2409090909090909,629,0,71,_Guitar,-1,-1
57,100,0.5818181818181818,3,1,72,_Guitar,-1,-1
57,100,0.4,202,1,72,_Guitar,-1,-1
52,100,0.1,316,0,72,_Guitar,-1,-1
52,100,0.3409090909090909,426,0,72,_Guitar,-1,-1
55,100,0.2409090909090909,509,0,72,_Guitar,-1,-1
52,100,0.1409090909090909,585,0,72,_Guitar,-1,-1
52,100,0.4590909090909091,633,0,72,_Guitar,-1,-1
52,100,0.12272727272727273,817,0,72,_Guitar,-1,-1
52,100,0.12272727272727273,849,0,72,_Guitar,-1,-1
53,100,0.5409090909090909,166,1,73,_Guitar,-1,-1
48,100,0.4818181818181818,352,0,73,_Guitar,-1,-1
53,100,0.18181818181818182,487,0,73,_Guitar,-1,-1
48,100,0.1409090909090909,695,1,73,_Guitar,-1,-1
53,100,0.6,783,0,73,_Guitar,-1,-1
53,100,0.7181818181818181,43,1,74,_Guitar,-1,-1
53,100,0.5409090909090909,242,1,74,_Guitar,-1,-1
53,100,0.2,502,1,74,_Guitar,-1,-1
53,100,0.2818181818181818,593,0,74,_Guitar,-1,-1
57,100,0.5181818181818182,690,0,74,_Guitar,-1,-1
53,100,0.3,817,0,74,_Guitar,-1,-1
48,100,0.2409090909090909,30,1,75,_Guitar,-1,-1
53,100,0.2409090909090909,92,0,75,_Guitar,-1,-1
48,100,0.2590909090909091,153,0,75,_Guitar,-1,-1
53,100,0.2636363636363636,223,0,75,_Guitar,-1,-1
64,100,0.2772727272727273,326,0,75,_Guitar,-1,-1
53,100,0.4772727272727273,392,0,75,_Guitar,-1,-1
53,100,0.2,532,0,75,_Guitar,-1,-1
53,100,0.6818181818181818,686,0,75,_Guitar,-1,-1
55,100,0.2590909090909091,62,1,76,_Guitar,-1,-1
50,100,0.4590909090909091,163,0,76,_Guitar,-1,-1
50,100,0.2772727272727273,303,0,76,_Guitar,-1,-1
50,100,0.3181818181818182,370,0,76,_Guitar,-1,-1
50,100,0.1590909090909091,546,0,76,_Guitar,-1,-1
50,100,0.11818181818181818,747,1,76,_Guitar,-1,-1
50,100,0.12272727272727273,826,0,76,_Guitar,-1,-1
64,100,0.6772727272727272,119,1,77,_Guitar,-1,-1
55,100,0.2590909090909091,457,1,77,_Guitar,-1,-1
55,100,0.2409090909090909,642,0,77,_Guitar,-1,-1
60,100,0.1409090909090909,703,0,77,_Guitar,-1,-1
60,100,0.18181818181818182,739,0,77,_Guitar,-1,-1
55,100,0.4,805,0,77,_Guitar,-1,-1
43,100,0.2409090909090909,276,1,78,_Guitar,-1,-1
55,100,0.11818181818181818,373,0,78,_Guitar,-1,-1
43,100,0.38181818181818183,422,0,78,_Guitar,-1,-1
55,100,0.1,523,0,78,_Guitar,-1,-1
43,100,0.3181818181818182,546,0,78,_Guitar,-1,-1
53,100,0.4,677,0,78,_Guitar,-1,-1
53,100,0.1590909090909091,770,0,78,_Guitar,-1,-1
53,100,0.4409090909090909,100,1,79,_Guitar,-1,-1
53,100,0.2818181818181818,263,0,79,_Guitar,-1,-1
48,100,0.21818181818181817,360,0,79,_Guitar,-1,-1
52,100,0.3,417,0,79,_Guitar,-1,-1
55,100,0.11818181818181818,546,0,79,_Guitar,-1,-1
52,100,0.12272727272727273,629,0,79,_Guitar,-1,-1
55,100,0.2,703,0,79,_Guitar,-1,-1
47,100,0.1,826,0,79,_Guitar,-1,-1
55,100,0.22272727272727272,35,1,80,_Guitar,-1,-1
57,100,1.2181818181818183,140,0,80,_Guitar,-1,-1
57,100,1.0636363636363637,422,1,80,_Guitar,-1,-1
57,100,0.11818181818181818,677,1,80,_Guitar,-1,-1
52,100,0.5590909090909091,756,0,80,_Guitar,-1,-1
55,100,0.1,136,1,81,_Guitar,-1,-1
52,100,1.059090909090909,172,0,81,_Guitar,-1,-1
52,100,0.2,436,1,81,_Guitar,-1,-1
53,100,0.3,480,0,81,_Guitar,-1,-1
48,100,0.18181818181818182,805,1,81,_Guitar,-1,-1
48,100,0.4,866,0,81,_Guitar,-1,-1
48,100,0.4409090909090909,79,1,82,_Guitar,-1,-1
55,100,0.5409090909090909,220,0,82,_Guitar,-1,-1
43,100,0.3409090909090909,550,1,82,_Guitar,-1,-1
43,100,0.18181818181818182,629,0,82,_Guitar,-1,-1
62,100,0.1409090909090909,703,0,82,_Guitar,-1,-1
43,100,0.16363636363636364,773,0,82,_Guitar,-1,-1
55,100,0.5590909090909091,826,0,82,_Guitar,-1,-1
48,100,0.2772727272727273,184,1,83,_Guitar,-1,-1
48,100,0.1409090909090909,506,1,83,_Guitar,-1,-1
50,100,0.3,686,0,83,_Guitar,-1,-1
55,100,0.38181818181818183,289,1,84,_Guitar,-1,-1
52,100,0.13636363636363635,436,0,84,_Guitar,-1,-1
55,100,0.6818181818181818,606,0,84,_Guitar,-1,-1
52,100,0.6181818181818182,770,0,84,_Guitar,-1,-1
52,100,0.13636363636363635,106,1,85,_Guitar,-1,-1
41,100,1.2772727272727273,669,1,85,_Guitar,-1,-1
60,100,0.11818181818181818,96,1,86,_Guitar,-1,-1
41,100,0.2818181818181818,246,0,86,_Guitar,-1,-1
60,100,0.2818181818181818,307,0,86,_Guitar,-1,-1
55,100,0.6818181818181818,377,0,86,_Guitar,-1,-1
60,100,0.5,844,1,86,_Guitar,-1,-1
53,100,0.5,119,1,87,_Guitar,-1,-1
59,100,0.2636363636363636,443,1,87,_Guitar,-1,-1
59,100,0.8818181818181818,509,0,87,_Guitar,-1,-1
45,100,0.6590909090909091,739,1,87,_Guitar,-1,-1
45,100,0.7818181818181819,286,1,88,_Guitar,-1,-1
50,100,0.1,760,1,88,_Guitar,-1,-1
62,100,0.8818181818181818,0,1,89,_Guitar,-1,-1
53,100,0.6181818181818182,360,1,89,_Guitar,-1,-1
50,100,0.3409090909090909,100,1,90,_Guitar,-1,-1
48,100,0.16363636363636364,69,1,92,_Guitar,-1,-1
55,100,0.11818181818181818,339,1,92,_Guitar,-1,-1
55,100,0.37727272727272726,493,0,92,_Guitar,-1,-1
50,100,0.11818181818181818,603,0,92,_Guitar,-1,-1
55,100,0.4590909090909091,646,0,92,_Guitar,-1,-1
50,100,0.11818181818181818,172,1,93,_Guitar,-1,-1
52,100,0.2636363636363636,333,0,93,_Guitar,-1,-1
52,100,0.22272727272727272,553,1,93,_Guitar,-1,-1
57,100,0.2,677,0,93,_Guitar,-1,-1
52,100,0.18181818181818182,729,0,93,_Guitar,-1,-1
52,100,0.11818181818181818,66,1,94,_Guitar,-1,-1
52,100,0.5,276,1,94,_Guitar,-1,-1
52,100,1.0,417,0,94,_Guitar,-1,-1
48,100,0.2636363636363636,729,1,94,_Guitar,-1,-1
48,100,0.3,805,0,94,_Guitar,-1,-1
53,100,0.1409090909090909,100,1,95,_Guitar,-1,-1
53,100,0.2590909090909091,303,1,95,_Guitar,-1,-1
55,100,0.41818181818181815,449,0,95,_Guitar,-1,-1
60,100,0.5,624,0,95,_Guitar,-1,-1
50,100,0.11818181818181818,153,1,96,_Guitar,-1,-1
57,100,0.2,184,0,96,_Guitar,-1,-1
50,100,0.2590909090909091,365,0,96,_Guitar,-1,-1
50,100,0.5818181818181818,597,1,96,_Guitar,-1,-1
55,100,0.11818181818181818,770,0,96,_Guitar,-1,-1
55,100,0.11818181818181818,823,0,96,_Guitar,-1,-1
55,100,0.22272727272727272,862,0,96,_Guitar,-1,-1
50,100,2.022727272727273,35,1,97,_Guitar,-1,-1
52,100,0.12272727272727273,509,1,97,_Guitar,-1,-1
48,100,5.363636363636363,686,0,97,_Guitar,-1,-1
48,100,3.4,123,1,99,_Guitar,-1,-1
45,100,0.2772727272727273,458,1,0,DL_Guitar_1,-1,-1
52,100,0.10454545454545454,863,1,0,DL_Guitar_1,-1,-1
52,100,0.1409090909090909,29,1,1,DL_Guitar_1,-1,-1
40,100,0.10454545454545454,113,0,1,DL_Guitar_1,-1,-1
40,100,0.10454545454545454,146,0,1,DL_Guitar_1,-1,-1
52,100,0.38181818181818183,197,0,1,DL_Guitar_1,-1,-1
52,100,0.29545454545454547,862,1,1,DL_Guitar_1,-1,-1
52,100,0.29545454545454547,100,1,2,DL_Guitar_1,-1,-1
50,100,0.1409090909090909,301,1,3,DL_Guitar_1,-1,-1
52,100,0.2590909090909091,73,1,4,DL_Guitar_1,-1,-1
45,100,0.1409090909090909,680,1,4,DL_Guitar_1,-1,-1
45,100,0.22727272727272727,722,0,4,DL_Guitar_1,-1,-1
52,100,0.29545454545454547,73,1,5,DL_Guitar_1,-1,-1
52,100,0.2772727272727273,179,0,5,DL_Guitar_1,-1,-1
52,100,0.13636363636363635,282,0,5,DL_Guitar_1,-1,-1
50,100,0.13636363636363635,554,1,5,DL_Guitar_1,-1,-1
50,100,0.11818181818181818,726,0,5,DL_Guitar_1,-1,-1
52,100,0.32727272727272727,60,1,6,DL_Guitar_1,-1,-1
52,100,0.11818181818181818,163,0,6,DL_Guitar_1,-1,-1
52,100,0.10454545454545454,201,0,6,DL_Guitar_1,-1,-1
52,100,0.1590909090909091,273,0,6,DL_Guitar_1,-1,-1
50,100,0.08636363636363636,360,0,6,DL_Guitar_1,-1,-1
50,100,0.08636363636363636,73,1,7,DL_Guitar_1,-1,-1
50,100,0.08636363636363636,96,0,7,DL_Guitar_1,-1,-1
50,100,0.1590909090909091,268,0,7,DL_Guitar_1,-1,-1
50,100,0.08636363636363636,463,0,7,DL_Guitar_1,-1,-1
50,100,0.24545454545454545,515,0,7,DL_Guitar_1,-1,-1
49,100,0.12272727272727273,263,1,8,DL_Guitar_1,-1,-1
50,100,1.3681818181818182,477,1,8,DL_Guitar_1,-1,-1
50,100,0.17272727272727273,828,1,8,DL_Guitar_1,-1,-1
50,100,1.1636363636363636,82,1,9,DL_Guitar_1,-1,-1
50,100,0.10454545454545454,452,1,9,DL_Guitar_1,-1,-1
50,100,0.22272727272727272,505,0,9,DL_Guitar_1,-1,-1
50,100,0.6409090909090909,594,0,9,DL_Guitar_1,-1,-1
45,100,0.12272727272727273,691,1,10,DL_Guitar_1,-1,-1
47,100,0.4318181818181818,809,0,10,DL_Guitar_1,-1,-1
47,100,0.08636363636363636,223,1,11,DL_Guitar_1,-1,-1
47,100,0.08636363636363636,257,0,11,DL_Guitar_1,-1,-1
50,100,0.8681818181818182,354,0,11,DL_Guitar_1,-1,-1
54,100,0.10454545454545454,563,1,11,DL_Guitar_1,-1,-1
50,100,0.5727272727272728,594,0,11,DL_Guitar_1,-1,-1
52,100,0.17727272727272728,780,0,11,DL_Guitar_1,-1,-1
40,100,0.22727272727272727,823,0,11,DL_Guitar_1,-1,-1
52,100,0.4,8,1,12,DL_Guitar_1,-1,-1
54,100,0.1,111,0,12,DL_Guitar_1,-1,-1
52,100,0.09090909090909091,218,0,12,DL_Guitar_1,-1,-1
45,100,0.13636363636363635,489,1,12,DL_Guitar_1,-1,-1
45,100,0.43636363636363634,543,0,12,DL_Guitar_1,-1,-1
47,100,0.4863636363636364,871,1,12,DL_Guitar_1,-1,-1
47,100,0.7318181818181818,106,1,13,DL_Guitar_1,-1,-1
50,100,0.8681818181818182,347,1,13,DL_Guitar_1,-1,-1
50,100,0.29545454545454547,637,1,13,DL_Guitar_1,-1,-1
52,100,0.41363636363636364,771,0,13,DL_Guitar_1,-1,-1
52,100,0.43636363636363634,866,0,13,DL_Guitar_1,-1,-1
54,100,0.1409090909090909,111,1,14,DL_Guitar_1,-1,-1
54,100,0.13636363636363635,147,0,14,DL_Guitar_1,-1,-1
52,100,0.20909090909090908,204,0,14,DL_Guitar_1,-1,-1
45,100,0.12272727272727273,348,0,14,DL_Guitar_1,-1,-1
45,100,0.2409090909090909,651,1,14,DL_Guitar_1,-1,-1
47,100,0.10454545454545454,861,1,14,DL_Guitar_1,-1,-1
56,100,0.20909090909090908,99,1,15,DL_Guitar_1,-1,-1
47,100,0.10454545454545454,144,0,15,DL_Guitar_1,-1,-1
47,100,0.2772727272727273,194,0,15,DL_Guitar_1,-1,-1
50,100,0.2409090909090909,359,0,15,DL_Guitar_1,-1,-1
50,100,0.19090909090909092,415,0,15,DL_Guitar_1,-1,-1
50,100,0.9727272727272728,474,0,15,DL_Guitar_1,-1,-1
52,100,0.34545454545454546,759,1,15,DL_Guitar_1,-1,-1
56,100,0.2409090909090909,874,0,15,DL_Guitar_1,-1,-1
52,100,0.11818181818181818,185,1,16,DL_Guitar_1,-1,-1
52,100,0.1590909090909091,216,0,16,DL_Guitar_1,-1,-1
45,100,0.1409090909090909,406,0,16,DL_Guitar_1,-1,-1
45,100,0.29545454545454547,444,0,16,DL_Guitar_1,-1,-1
45,100,0.09090909090909091,612,0,16,DL_Guitar_1,-1,-1
45,100,0.22727272727272727,639,0,16,DL_Guitar_1,-1,-1
47,100,0.2409090909090909,862,1,16,DL_Guitar_1,-1,-1
47,100,0.12272727272727273,92,1,17,DL_Guitar_1,-1,-1
47,100,0.32727272727272727,168,0,17,DL_Guitar_1,-1,-1
50,100,0.43636363636363634,409,1,17,DL_Guitar_1,-1,-1
50,100,0.5727272727272728,561,0,17,DL_Guitar_1,-1,-1
52,100,0.6045454545454545,722,0,17,DL_Guitar_1,-1,-1
52,100,0.1590909090909091,21,1,18,DL_Guitar_1,-1,-1
54,100,0.10454545454545454,147,0,18,DL_Guitar_1,-1,-1
52,100,0.2590909090909091,175,0,18,DL_Guitar_1,-1,-1
45,100,0.1409090909090909,460,1,18,DL_Guitar_1,-1,-1
52,100,0.08636363636363636,506,0,18,DL_Guitar_1,-1,-1
45,100,0.12272727272727273,614,0,18,DL_Guitar_1,-1,-1
45,100,0.10454545454545454,645,0,18,DL_Guitar_1,-1,-1
47,100,0.4318181818181818,732,0,18,DL_Guitar_1,-1,-1
47,100,0.45,831,0,18,DL_Guitar_1,-1,-1
47,100,0.15454545454545454,100,1,19,DL_Guitar_1,-1,-1
47,100,0.2590909090909091,169,0,19,DL_Guitar_1,-1,-1
50,100,0.8318181818181818,310,0,19,DL_Guitar_1,-1,-1
50,100,0.29545454545454547,543,1,19,DL_Guitar_1,-1,-1
50,100,0.1590909090909091,619,0,19,DL_Guitar_1,-1,-1
52,100,0.85,735,0,19,DL_Guitar_1,-1,-1
52,100,0.13636363636363635,72,1,20,DL_Guitar_1,-1,-1
52,100,0.1409090909090909,164,0,20,DL_Guitar_1,-1,-1
45,100,0.4,285,0,20,DL_Guitar_1,-1,-1
45,100,0.2772727272727273,419,0,20,DL_Guitar_1,-1,-1
45,100,0.43636363636363634,499,0,20,DL_Guitar_1,-1,-1
45,100,0.22727272727272727,611,0,20,DL_Guitar_1,-1,-1
47,100,0.38181818181818183,828,1,20,DL_Guitar_1,-1,-1
47,100,0.19090909090909092,102,1,21,DL_Guitar_1,-1,-1
40,100,0.17272727272727273,205,0,21,DL_Guitar_1,-1,-1
56,100,0.33181818181818185,831,1,21,DL_Guitar_1,-1,-1
52,100,0.22727272727272727,38,1,22,DL_Guitar_1,-1,-1
50,100,0.09090909090909091,642,1,22,DL_Guitar_1,-1,-1
50,100,0.20909090909090908,849,1,22,DL_Guitar_1,-1,-1
57,100,0.19090909090909092,855,1,23,DL_Guitar_1,-1,-1
54,100,0.10454545454545454,35,1,24,DL_Guitar_1,-1,-1
40,100,0.20909090909090908,532,1,24,DL_Guitar_1,-1,-1
56,100,0.39545454545454545,30,1,25,DL_Guitar_1,-1,-1
47,100,0.1,305,1,25,DL_Guitar_1,-1,-1
56,100,0.5045454545454545,477,0,25,DL_Guitar_1,-1,-1
56,100,0.31363636363636366,691,1,25,DL_Guitar_1,-1,-1
47,100,0.2772727272727273,787,0,25,DL_Guitar_1,-1,-1
56,100,0.13636363636363635,185,1,26,DL_Guitar_1,-1,-1
64,100,0.08636363636363636,677,1,27,DL_Guitar_1,-1,-1
56,100,0.15454545454545454,285,1,28,DL_Guitar_1,-1,-1
56,100,0.29545454545454547,354,0,28,DL_Guitar_1,-1,-1
56,100,0.41818181818181815,450,0,28,DL_Guitar_1,-1,-1
52,100,0.33181818181818185,781,1,28,DL_Guitar_1,-1,-1
56,100,0.4863636363636364,4,1,29,DL_Guitar_1,-1,-1
56,100,0.19090909090909092,116,0,29,DL_Guitar_1,-1,-1
40,100,0.22272727272727272,357,1,29,DL_Guitar_1,-1,-1
57,100,0.15454545454545454,605,1,29,DL_Guitar_1,-1,-1
56,100,0.6772727272727272,821,1,30,DL_Guitar_1,-1,-1
56,100,0.20909090909090908,422,1,31,DL_Guitar_1,-1,-1
56,100,0.19090909090909092,96,1,32,DL_Guitar_1,-1,-1
40,100,0.8136363636363636,859,1,33,DL_Guitar_1,-1,-1
47,100,0.10454545454545454,688,1,34,DL_Guitar_1,-1,-1
47,100,0.12272727272727273,806,0,34,DL_Guitar_1,-1,-1
47,100,0.20909090909090908,0,1,35,DL_Guitar_1,-1,-1
47,100,0.11818181818181818,91,0,35,DL_Guitar_1,-1,-1
50,100,0.17272727272727273,191,0,35,DL_Guitar_1,-1,-1
47,100,0.38181818181818183,810,1,35,DL_Guitar_1,-1,-1
45,100,0.24545454545454545,212,1,36,DL_Guitar_1,-1,-1
47,100,0.8545454545454545,632,1,36,DL_Guitar_1,-1,-1
47,100,0.35,850,1,36,DL_Guitar_1,-1,-1
47,100,0.19090909090909092,57,1,37,DL_Guitar_1,-1,-1
56,100,0.19090909090909092,597,1,37,DL_Guitar_1,-1,-1
52,100,0.41363636363636364,370,1,38,DL_Guitar_1,-1,-1
47,100,0.9363636363636364,706,1,38,DL_Guitar_1,-1,-1
47,100,0.22272727272727272,40,1,39,DL_Guitar_1,-1,-1
50,100,0.32727272727272727,170,0,39,DL_Guitar_1,-1,-1
50,100,0.12272727272727273,489,1,39,DL_Guitar_1,-1,-1
45,100,0.19090909090909092,171,1,40,DL_Guitar_1,-1,-1
45,100,0.31363636363636366,446,1,40,DL_Guitar_1,-1,-1
47,100,0.10454545454545454,852,1,40,DL_Guitar_1,-1,-1
50,100,0.41363636363636364,139,1,41,DL_Guitar_1,-1,-1
50,100,0.4681818181818182,239,0,41,DL_Guitar_1,-1,-1
50,100,0.32727272727272727,438,1,41,DL_Guitar_1,-1,-1
45,100,0.9181818181818182,130,1,42,DL_Guitar_1,-1,-1
45,100,0.2590909090909091,336,1,42,DL_Guitar_1,-1,-1
47,100,0.4,565,1,42,DL_Guitar_1,-1,-1
47,100,0.4318181818181818,661,0,42,DL_Guitar_1,-1,-1
47,100,0.45454545454545453,771,0,42,DL_Guitar_1,-1,-1
50,100,0.22727272727272727,171,1,43,DL_Guitar_1,-1,-1
50,100,0.32727272727272727,225,0,43,DL_Guitar_1,-1,-1
50,100,0.15454545454545454,453,1,43,DL_Guitar_1,-1,-1
47,100,0.4863636363636364,793,1,43,DL_Guitar_1,-1,-1
45,100,0.45454545454545453,111,1,44,DL_Guitar_1,-1,-1
45,100,0.4,330,1,44,DL_Guitar_1,-1,-1
56,100,0.29545454545454547,555,1,44,DL_Guitar_1,-1,-1
56,100,0.08636363636363636,669,0,44,DL_Guitar_1,-1,-1
56,100,0.17272727272727273,772,0,44,DL_Guitar_1,-1,-1
45,100,0.2636363636363636,95,1,45,DL_Guitar_1,-1,-1
45,100,0.20454545454545456,157,0,45,DL_Guitar_1,-1,-1
45,100,0.41363636363636364,218,0,45,DL_Guitar_1,-1,-1
45,100,0.5545454545454546,313,0,45,DL_Guitar_1,-1,-1
45,100,0.20909090909090908,439,0,45,DL_Guitar_1,-1,-1
47,100,0.45,535,0,45,DL_Guitar_1,-1,-1
47,100,0.5909090909090909,641,0,45,DL_Guitar_1,-1,-1
47,100,0.36818181818181817,775,0,45,DL_Guitar_1,-1,-1
47,100,0.2409090909090909,871,0,45,DL_Guitar_1,-1,-1
50,100,0.12272727272727273,136,1,46,DL_Guitar_1,-1,-1
50,100,0.4863636363636364,200,0,46,DL_Guitar_1,-1,-1
50,100,0.3090909090909091,311,0,46,DL_Guitar_1,-1,-1
50,100,0.12272727272727273,384,0,46,DL_Guitar_1,-1,-1
50,100,0.19090909090909092,430,0,46,DL_Guitar_1,-1,-1
45,100,0.43636363636363634,96,1,47,DL_Guitar_1,-1,-1
45,100,0.1409090909090909,348,1,47,DL_Guitar_1,-1,-1
47,100,1.0045454545454546,508,0,47,DL_Guitar_1,-1,-1
47,100,0.35,749,1,47,DL_Guitar_1,-1,-1
47,100,0.3090909090909091,872,0,47,DL_Guitar_1,-1,-1
50,100,0.5590909090909091,163,1,48,DL_Guitar_1,-1,-1
50,100,0.1590909090909091,377,1,48,DL_Guitar_1,-1,-1
47,100,0.20909090909090908,571,0,48,DL_Guitar_1,-1,-1
56,100,0.29545454545454547,836,1,48,DL_Guitar_1,-1,-1
45,100,0.19090909090909092,130,1,49,DL_Guitar_1,-1,-1
45,100,0.4,391,1,49,DL_Guitar_1,-1,-1
47,100,0.19090909090909092,529,0,49,DL_Guitar_1,-1,-1
47,100,0.43636363636363634,619,0,49,DL_Guitar_1,-1,-1
47,100,0.38636363636363635,742,0,49,DL_Guitar_1,-1,-1
47,100,0.2590909090909091,845,0,49,DL_Guitar_1,-1,-1
50,100,0.41363636363636364,179,1,50,DL_Guitar_1,-1,-1
56,100,0.2772727272727273,829,1,50,DL_Guitar_1,-1,-1
45,100,0.4318181818181818,60,1,51,DL_Guitar_1,-1,-1
45,100,0.41818181818181815,173,0,51,DL_Guitar_1,-1,-1
45,100,0.13636363636363635,391,1,51,DL_Guitar_1,-1,-1
47,100,0.45,490,0,51,DL_Guitar_1,-1,-1
47,100,0.4681818181818182,598,0,51,DL_Guitar_1,-1,-1
47,100,0.4,723,0,51,DL_Guitar_1,-1,-1
47,100,0.31363636363636366,816,0,51,DL_Guitar_1,-1,-1
50,100,0.4681818181818182,165,1,52,DL_Guitar_1,-1,-1
40,100,0.34545454545454546,611,1,52,DL_Guitar_1,-1,-1
56,100,0.10454545454545454,840,1,52,DL_Guitar_1,-1,-1
45,100,0.36363636363636365,71,1,53,DL_Guitar_1,-1,-1
45,100,0.4318181818181818,159,0,53,DL_Guitar_1,-1,-1
45,100,0.15454545454545454,373,1,53,DL_Guitar_1,-1,-1
49,100,0.22272727272727272,537,0,53,DL_Guitar_1,-1,-1
56,100,0.13636363636363635,859,1,53,DL_Guitar_1,-1,-1
45,100,0.17272727272727273,55,1,54,DL_Guitar_1,-1,-1
45,100,0.11818181818181818,273,1,54,DL_Guitar_1,-1,-1
45,100,1.8045454545454545,357,0,54,DL_Guitar_1,-1,-1
64,100,0.10454545454545454,282,1,55,DL_Guitar_1,-1,-1
50,100,0.2590909090909091,355,0,55,DL_Guitar_1,-1,-1
50,100,0.22727272727272727,488,0,55,DL_Guitar_1,-1,-1
50,100,0.32727272727272727,599,0,55,DL_Guitar_1,-1,-1
50,100,0.29545454545454547,163,1,56,DL_Guitar_1,-1,-1
50,100,0.36363636363636365,391,1,56,DL_Guitar_1,-1,-1
50,100,0.45454545454545453,570,0,56,DL_Guitar_1,-1,-1
50,100,0.19090909090909092,701,0,56,DL_Guitar_1,-1,-1
50,100,0.2590909090909091,808,0,56,DL_Guitar_1,-1,-1
56,100,0.5,111,1,57,DL_Guitar_1,-1,-1
49,100,0.12272727272727273,309,1,57,DL_Guitar_1,-1,-1
49,100,0.22727272727272727,348,0,57,DL_Guitar_1,-1,-1
49,100,0.12272727272727273,440,0,57,DL_Guitar_1,-1,-1
49,100,0.6590909090909091,520,0,57,DL_Guitar_1,-1,-1
49,100,0.1409090909090909,798,1,57,DL_Guitar_1,-1,-1
50,100,0.09090909090909091,852,0,57,DL_Guitar_1,-1,-1
54,100,0.10454545454545454,220,1,58,DL_Guitar_1,-1,-1
58,100,0.2590909090909091,495,1,58,DL_Guitar_1,-1,-1
58,100,0.24545454545454545,595,0,58,DL_Guitar_1,-1,-1
54,100,0.17272727272727273,655,0,58,DL_Guitar_1,-1,-1
54,100,0.13636363636363635,770,0,58,DL_Guitar_1,-1,-1
64,100,0.13636363636363635,836,0,58,DL_Guitar_1,-1,-1
47,100,0.36363636363636365,20,1,59,DL_Guitar_1,-1,-1
47,100,0.4727272727272727,108,0,59,DL_Guitar_1,-1,-1
47,100,0.41818181818181815,222,0,59,DL_Guitar_1,-1,-1
47,100,0.4863636363636364,334,0,59,DL_Guitar_1,-1,-1
47,100,0.41818181818181815,452,0,59,DL_Guitar_1,-1,-1
47,100,0.45,548,0,59,DL_Guitar_1,-1,-1
47,100,0.12272727272727273,722,0,59,DL_Guitar_1,-1,-1
47,100,0.4318181818181818,754,0,59,DL_Guitar_1,-1,-1
52,100,0.13636363636363635,282,1,60,DL_Guitar_1,-1,-1
52,100,0.45,432,0,60,DL_Guitar_1,-1,-1
56,100,0.4681818181818182,535,0,60,DL_Guitar_1,-1,-1
52,100,0.41818181818181815,648,0,60,DL_Guitar_1,-1,-1
50,100,0.7818181818181819,28,1,61,DL_Guitar_1,-1,-1
50,100,0.10454545454545454,254,1,61,DL_Guitar_1,-1,-1
64,100,0.17272727272727273,335,0,61,DL_Guitar_1,-1,-1
50,100,0.9363636363636364,426,0,61,DL_Guitar_1,-1,-1
50,100,0.31363636363636366,784,1,61,DL_Guitar_1,-1,-1
50,100,0.31363636363636366,0,1,62,DL_Guitar_1,-1,-1
50,100,0.5227272727272727,73,0,62,DL_Guitar_1,-1,-1
50,100,0.1590909090909091,245,0,62,DL_Guitar_1,-1,-1
50,100,0.45454545454545453,478,1,62,DL_Guitar_1,-1,-1
50,100,0.29545454545454547,668,0,62,DL_Guitar_1,-1,-1
50,100,0.29545454545454547,742,0,62,DL_Guitar_1,-1,-1
49,100,0.4318181818181818,848,0,62,DL_Guitar_1,-1,-1
49,100,1.0227272727272727,389,1,63,DL_Guitar_1,-1,-1
61,100,0.1409090909090909,713,1,63,DL_Guitar_1,-1,-1
49,100,0.19090909090909092,743,0,63,DL_Guitar_1,-1,-1
58,100,0.41818181818181815,861,0,63,DL_Guitar_1,-1,-1
54,100,0.11818181818181818,85,1,64,DL_Guitar_1,-1,-1
54,100,0.1590909090909091,177,0,64,DL_Guitar_1,-1,-1
58,100,0.6772727272727272,219,0,64,DL_Guitar_1,-1,-1
58,100,0.4,422,1,64,DL_Guitar_1,-1,-1
58,100,0.2590909090909091,528,0,64,DL_Guitar_1,-1,-1
47,100,0.990909090909091,56,1,65,DL_Guitar_1,-1,-1
47,100,0.12272727272727273,358,1,65,DL_Guitar_1,-1,-1
47,100,0.08636363636363636,591,1,65,DL_Guitar_1,-1,-1
47,100,0.5363636363636364,622,0,65,DL_Guitar_1,-1,-1
47,100,0.13636363636363635,744,0,65,DL_Guitar_1,-1,-1
47,100,0.10454545454545454,794,0,65,DL_Guitar_1,-1,-1
56,100,0.5045454545454545,384,1,66,DL_Guitar_1,-1,-1
47,100,0.4,613,1,66,DL_Guitar_1,-1,-1
50,100,0.9590909090909091,823,1,66,DL_Guitar_1,-1,-1
50,100,0.6954545454545454,260,1,67,DL_Guitar_1,-1,-1
50,100,0.15454545454545454,440,0,67,DL_Guitar_1,-1,-1
50,100,1.3181818181818181,485,0,67,DL_Guitar_1,-1,-1
50,100,0.9,282,1,68,DL_Guitar_1,-1,-1
50,100,0.5227272727272727,483,1,68,DL_Guitar_1,-1,-1
49,100,0.9409090909090909,820,1,68,DL_Guitar_1,-1,-1
59,100,0.1590909090909091,215,1,69,DL_Guitar_1,-1,-1
49,100,1.8363636363636364,338,0,69,DL_Guitar_1,-1,-1
54,100,0.4318181818181818,803,1,69,DL_Guitar_1,-1,-1
58,100,0.5363636363636364,27,1,70,DL_Guitar_1,-1,-1
58,100,0.41818181818181815,167,0,70,DL_Guitar_1,-1,-1
58,100,0.38181818181818183,278,0,70,DL_Guitar_1,-1,-1
54,100,0.4,367,0,70,DL_Guitar_1,-1,-1
58,100,0.41818181818181815,477,0,70,DL_Guitar_1,-1,-1
62,100,0.2772727272727273,810,1,70,DL_Guitar_1,-1,-1
47,100,0.38181818181818183,143,1,71,DL_Guitar_1,-1,-1
47,100,0.22727272727272727,296,0,71,DL_Guitar_1,-1,-1
47,100,0.43636363636363634,360,0,71,DL_Guitar_1,-1,-1
47,100,0.2772727272727273,509,0,71,DL_Guitar_1,-1,-1
47,100,0.7818181818181819,575,0,71,DL_Guitar_1,-1,-1
56,100,0.2772727272727273,808,1,71,DL_Guitar_1,-1,-1
56,100,0.10454545454545454,872,0,71,DL_Guitar_1,-1,-1
56,100,0.45,131,1,72,DL_Guitar_1,-1,-1
56,100,0.38181818181818183,252,0,72,DL_Guitar_1,-1,-1
56,100,0.9227272727272727,352,0,72,DL_Guitar_1,-1,-1
56,100,0.34545454545454546,596,1,72,DL_Guitar_1,-1,-1
57,100,0.15454545454545454,733,0,72,DL_Guitar_1,-1,-1
47,100,0.45,775,0,72,DL_Guitar_1,-1,-1
47,100,0.45,29,1,73,DL_Guitar_1,-1,-1
47,100,0.4318181818181818,137,0,73,DL_Guitar_1,-1,-1
47,100,0.8863636363636364,239,0,73,DL_Guitar_1,-1,-1
47,100,0.34545454545454546,564,1,73,DL_Guitar_1,-1,-1
47,100,0.2590909090909091,645,0,73,DL_Guitar_1,-1,-1
47,100,0.12272727272727273,705,0,73,DL_Guitar_1,-1,-1
56,100,0.36818181818181817,800,0,73,DL_Guitar_1,-1,-1
56,100,0.4727272727272727,215,1,74,DL_Guitar_1,-1,-1
56,100,0.32727272727272727,360,0,74,DL_Guitar_1,-1,-1
56,100,0.8181818181818182,581,1,74,DL_Guitar_1,-1,-1
47,100,0.13636363636363635,761,0,74,DL_Guitar_1,-1,-1
47,100,0.19090909090909092,865,0,74,DL_Guitar_1,-1,-1
47,100,0.1,30,1,75,DL_Guitar_1,-1,-1
47,100,0.24545454545454545,56,0,75,DL_Guitar_1,-1,-1
47,100,0.41363636363636364,114,0,75,DL_Guitar_1,-1,-1
47,100,0.36363636363636365,233,0,75,DL_Guitar_1,-1,-1
59,100,0.08636363636363636,320,0,75,DL_Guitar_1,-1,-1
59,100,0.22727272727272727,355,0,75,DL_Guitar_1,-1,-1
59,100,0.12272727272727273,447,0,75,DL_Guitar_1,-1,-1
59,100,0.10454545454545454,477,0,75,DL_Guitar_1,-1,-1
47,100,0.08636363636363636,564,0,75,DL_Guitar_1,-1,-1
47,100,0.19090909090909092,591,0,75,DL_Guitar_1,-1,-1
59,100,0.24545454545454545,652,0,75,DL_Guitar_1,-1,-1
56,100,0.1590909090909091,105,1,76,DL_Guitar_1,-1,-1
56,100,0.36363636363636365,151,0,76,DL_Guitar_1,-1,-1
56,100,0.08636363636363636,238,0,76,DL_Guitar_1,-1,-1
56,100,0.29545454545454547,349,0,76,DL_Guitar_1,-1,-1
56,100,0.2772727272727273,453,0,76,DL_Guitar_1,-1,-1
56,100,0.10454545454545454,605,0,76,DL_Guitar_1,-1,-1
47,100,0.35,781,0,76,DL_Guitar_1,-1,-1
47,100,0.5227272727272727,872,0,76,DL_Guitar_1,-1,-1
47,100,0.8318181818181818,111,1,77,DL_Guitar_1,-1,-1
47,100,0.4,616,1,77,DL_Guitar_1,-1,-1
46,100,0.1,703,0,77,DL_Guitar_1,-1,-1
50,100,0.19090909090909092,787,0,77,DL_Guitar_1,-1,-1
50,100,0.41363636363636364,95,1,78,DL_Guitar_1,-1,-1
50,100,0.5909090909090909,385,1,78,DL_Guitar_1,-1,-1
47,100,0.12272727272727273,651,1,78,DL_Guitar_1,-1,-1
47,100,0.2409090909090909,683,0,78,DL_Guitar_1,-1,-1
47,100,0.38181818181818183,862,0,78,DL_Guitar_1,-1,-1
47,100,0.15454545454545454,138,1,79,DL_Guitar_1,-1,-1
52,100,0.15454545454545454,180,0,79,DL_Guitar_1,-1,-1
56,100,0.35,321,0,79,DL_Guitar_1,-1,-1
56,100,0.41818181818181815,410,0,79,DL_Guitar_1,-1,-1
56,100,0.13636363636363635,548,0,79,DL_Guitar_1,-1,-1
47,100,0.13636363636363635,593,0,79,DL_Guitar_1,-1,-1
57,100,0.5909090909090909,781,0,79,DL_Guitar_1,-1,-1
45,100,0.4863636363636364,182,1,80,DL_Guitar_1,-1,-1
45,100,0.15454545454545454,531,1,80,DL_Guitar_1,-1,-1
45,100,0.4863636363636364,610,0,80,DL_Guitar_1,-1,-1
57,100,0.2590909090909091,5,1,81,DL_Guitar_1,-1,-1
45,100,0.4818181818181818,166,0,81,DL_Guitar_1,-1,-1
57,100,0.5227272727272727,719,1,81,DL_Guitar_1,-1,-1
45,100,0.29545454545454547,294,1,82,DL_Guitar_1,-1,-1
45,100,0.32727272727272727,379,0,82,DL_Guitar_1,-1,-1
57,100,0.35,726,1,82,DL_Guitar_1,-1,-1
57,100,0.45,151,1,83,DL_Guitar_1,-1,-1
52,100,0.2772727272727273,282,0,83,DL_Guitar_1,-1,-1
52,100,0.10454545454545454,408,0,83,DL_Guitar_1,-1,-1
52,100,0.10454545454545454,435,0,83,DL_Guitar_1,-1,-1
52,100,0.08636363636363636,461,0,83,DL_Guitar_1,-1,-1
64,100,0.22727272727272727,507,0,83,DL_Guitar_1,-1,-1
50,100,0.12272727272727273,701,0,83,DL_Guitar_1,-1,-1
50,100,0.7454545454545455,762,0,83,DL_Guitar_1,-1,-1
50,100,0.2409090909090909,58,1,84,DL_Guitar_1,-1,-1
50,100,0.2409090909090909,142,0,84,DL_Guitar_1,-1,-1
50,100,0.19090909090909092,246,0,84,DL_Guitar_1,-1,-1
57,100,0.13636363636363635,608,1,84,DL_Guitar_1,-1,-1
50,100,2.6227272727272726,692,0,84,DL_Guitar_1,-1,-1
50,100,0.31363636363636366,466,1,85,DL_Guitar_1,-1,-1
50,100,0.08636363636363636,553,0,85,DL_Guitar_1,-1,-1
50,100,0.10454545454545454,606,0,85,DL_Guitar_1,-1,-1
45,100,0.29545454545454547,642,0,85,DL_Guitar_1,-1,-1
45,100,0.2636363636363636,710,0,85,DL_Guitar_1,-1,-1
45,100,0.19090909090909092,816,0,85,DL_Guitar_1,-1,-1
45,100,0.12272727272727273,866,0,85,DL_Guitar_1,-1,-1
50,100,0.19090909090909092,635,1,86,DL_Guitar_1,-1,-1
54,100,0.4,689,0,86,DL_Guitar_1,-1,-1
54,100,0.3090909090909091,153,1,87,DL_Guitar_1,-1,-1
61,100,0.19090909090909092,352,1,87,DL_Guitar_1,-1,-1
61,100,0.41363636363636364,470,0,87,DL_Guitar_1,-1,-1
50,100,0.11818181818181818,681,1,87,DL_Guitar_1,-1,-1
50,100,0.7454545454545455,780,0,87,DL_Guitar_1,-1,-1
50,100,0.10454545454545454,71,1,88,DL_Guitar_1,-1,-1
50,100,0.7136363636363636,101,0,88,DL_Guitar_1,-1,-1
50,100,0.15454545454545454,331,1,88,DL_Guitar_1,-1,-1
52,100,0.21818181818181817,418,1,0,DL_Guitar,-1,-1
60,100,0.1,796,1,0,DL_Guitar,-1,-1
64,100,0.1409090909090909,0,1,1,DL_Guitar,-1,-1
64,100,0.2772727272727273,39,0,1,DL_Guitar,-1,-1
52,100,0.4,157,0,1,DL_Guitar,-1,-1
59,100,0.1590909090909091,276,0,1,DL_Guitar,-1,-1
52,100,0.6409090909090909,343,0,1,DL_Guitar,-1,-1
53,100,0.1,496,0,1,DL_Guitar,-1,-1
60,100,0.4409090909090909,752,1,1,DL_Guitar,-1,-1
57,100,0.18181818181818182,43,1,2,DL_Guitar,-1,-1
57,100,0.2818181818181818,136,0,2,DL_Guitar,-1,-1
53,100,0.2590909090909091,220,0,2,DL_Guitar,-1,-1
53,100,0.11818181818181818,281,0,2,DL_Guitar,-1,-1
53,100,0.18181818181818182,396,0,2,DL_Guitar,-1,-1
60,100,0.4409090909090909,470,0,2,DL_Guitar,-1,-1
57,100,0.4409090909090909,620,0,2,DL_Guitar,-1,-1
62,100,0.1590909090909091,779,0,2,DL_Guitar,-1,-1
62,100,0.3,849,0,2,DL_Guitar,-1,-1
57,100,0.2,119,1,3,DL_Guitar,-1,-1
62,100,0.3409090909090909,201,0,3,DL_Guitar,-1,-1
62,100,0.11818181818181818,461,1,3,DL_Guitar,-1,-1
50,100,0.22272727272727272,510,0,3,DL_Guitar,-1,-1
60,100,0.1409090909090909,74,1,4,DL_Guitar,-1,-1
60,100,0.21818181818181817,307,1,4,DL_Guitar,-1,-1
60,100,0.11818181818181818,30,1,5,DL_Guitar,-1,-1
64,100,0.11818181818181818,118,0,5,DL_Guitar,-1,-1
64,100,0.2,171,0,5,DL_Guitar,-1,-1
64,100,0.3,228,0,5,DL_Guitar,-1,-1
64,100,0.18181818181818182,299,0,5,DL_Guitar,-1,-1
64,100,0.2,355,0,5,DL_Guitar,-1,-1
64,100,0.1590909090909091,404,0,5,DL_Guitar,-1,-1
52,100,0.1,475,0,5,DL_Guitar,-1,-1
52,100,0.5181818181818182,634,0,5,DL_Guitar,-1,-1
50,100,0.21818181818181817,118,1,6,DL_Guitar,-1,-1
60,100,0.3181818181818182,220,0,6,DL_Guitar,-1,-1
57,100,0.8181818181818182,307,0,6,DL_Guitar,-1,-1
60,100,0.12272727272727273,488,0,6,DL_Guitar,-1,-1
62,100,0.3,69,1,7,DL_Guitar,-1,-1
62,100,0.3409090909090909,158,0,7,DL_Guitar,-1,-1
62,100,0.2590909090909091,352,0,7,DL_Guitar,-1,-1
50,100,0.2818181818181818,409,0,7,DL_Guitar,-1,-1
62,100,0.5409090909090909,624,1,7,DL_Guitar,-1,-1
62,100,0.1409090909090909,778,0,7,DL_Guitar,-1,-1
50,100,0.6,810,0,7,DL_Guitar,-1,-1
50,100,0.38181818181818183,135,1,8,DL_Guitar,-1,-1
62,100,0.2409090909090909,343,1,8,DL_Guitar,-1,-1
62,100,0.18181818181818182,409,0,8,DL_Guitar,-1,-1
62,100,0.1590909090909091,457,0,8,DL_Guitar,-1,-1
50,100,0.3,493,0,8,DL_Guitar,-1,-1
62,100,0.11818181818181818,603,0,8,DL_Guitar,-1,-1
50,100,0.22272727272727272,629,0,8,DL_Guitar,-1,-1
50,100,0.3,713,0,8,DL_Guitar,-1,-1
62,100,0.1409090909090909,835,0,8,DL_Guitar,-1,-1
62,100,0.1,140,1,9,DL_Guitar,-1,-1
60,100,0.9227272727272727,233,0,9,DL_Guitar,-1,-1
60,100,0.4409090909090909,443,1,9,DL_Guitar,-1,-1
57,100,0.2590909090909091,656,1,9,DL_Guitar,-1,-1
60,100,0.1590909090909091,721,0,9,DL_Guitar,-1,-1
53,100,0.22272727272727272,773,0,9,DL_Guitar,-1,-1
59,100,0.1,826,0,9,DL_Guitar,-1,-1
59,100,0.41818181818181815,149,1,10,DL_Guitar,-1,-1
60,100,0.1,250,0,10,DL_Guitar,-1,-1
60,100,0.8181818181818182,316,0,10,DL_Guitar,-1,-1
55,100,0.2409090909090909,620,1,10,DL_Guitar,-1,-1
53,100,0.1,677,0,10,DL_Guitar,-1,-1
55,100,0.18181818181818182,708,0,10,DL_Guitar,-1,-1
55,100,0.1590909090909091,53,1,11,DL_Guitar,-1,-1
55,100,0.2,92,0,11,DL_Guitar,-1,-1
62,100,0.1,197,0,11,DL_Guitar,-1,-1
62,100,0.4,228,0,11,DL_Guitar,-1,-1
55,100,0.7181818181818181,414,0,11,DL_Guitar,-1,-1
52,100,0.4772727272727273,61,1,12,DL_Guitar,-1,-1
52,100,0.1409090909090909,242,0,12,DL_Guitar,-1,-1
40,100,0.18181818181818182,321,0,12,DL_Guitar,-1,-1
53,100,0.1409090909090909,364,0,12,DL_Guitar,-1,-1
60,100,0.17727272727272728,515,0,12,DL_Guitar,-1,-1
53,100,0.2,132,1,13,DL_Guitar,-1,-1
53,100,0.1590909090909091,326,0,13,DL_Guitar,-1,-1
55,100,0.12272727272727273,453,0,13,DL_Guitar,-1,-1
62,100,0.6181818181818182,603,0,13,DL_Guitar,-1,-1
62,100,0.12272727272727273,773,0,13,DL_Guitar,-1,-1
62,100,0.42272727272727273,804,0,13,DL_Guitar,-1,-1
62,100,0.3409090909090909,30,1,14,DL_Guitar,-1,-1
43,100,0.1409090909090909,163,0,14,DL_Guitar,-1,-1
55,100,0.37727272727272726,237,0,14,DL_Guitar,-1,-1
55,100,0.1409090909090909,505,1,14,DL_Guitar,-1,-1
64,100,0.35909090909090907,65,1,15,DL_Guitar,-1,-1
62,100,0.2409090909090909,206,0,15,DL_Guitar,-1,-1
62,100,0.3409090909090909,338,0,15,DL_Guitar,-1,-1
50,100,0.12272727272727273,443,0,15,DL_Guitar,-1,-1
55,100,0.759090909090909,479,0,15,DL_Guitar,-1,-1
52,100,0.36363636363636365,663,0,15,DL_Guitar,-1,-1
55,100,0.4,809,0,15,DL_Guitar,-1,-1
52,100,0.2,312,1,16,DL_Guitar,-1,-1
52,100,0.18181818181818182,378,0,16,DL_Guitar,-1,-1
60,100,0.2,449,0,16,DL_Guitar,-1,-1
52,100,0.7636363636363637,553,0,16,DL_Guitar,-1,-1
60,100,0.2772727272727273,787,1,16,DL_Guitar,-1,-1
50,100,0.1,210,1,17,DL_Guitar,-1,-1
50,100,0.37727272727272726,492,1,17,DL_Guitar,-1,-1
50,100,0.5590909090909091,656,0,17,DL_Guitar,-1,-1
50,100,0.11818181818181818,801,0,17,DL_Guitar,-1,-1
50,100,0.7,17,1,18,DL_Guitar,-1,-1
50,100,0.6181818181818182,272,1,18,DL_Guitar,-1,-1
50,100,0.1,461,0,18,DL_Guitar,-1,-1
50,100,0.1,492,0,18,DL_Guitar,-1,-1
53,100,0.18181818181818182,532,0,18,DL_Guitar,-1,-1
53,100,0.11818181818181818,581,0,18,DL_Guitar,-1,-1
64,100,0.3181818181818182,75,1,19,DL_Guitar,-1,-1
52,100,0.2636363636363636,136,1,20,DL_Guitar,-1,-1
60,100,0.6590909090909091,193,0,20,DL_Guitar,-1,-1
55,100,0.1590909090909091,351,0,20,DL_Guitar,-1,-1
55,100,0.8409090909090909,395,0,20,DL_Guitar,-1,-1
55,100,0.18181818181818182,638,1,20,DL_Guitar,-1,-1
55,100,0.2409090909090909,773,0,20,DL_Guitar,-1,-1
52,100,0.5590909090909091,831,0,20,DL_Guitar,-1,-1
52,100,0.1409090909090909,96,1,21,DL_Guitar,-1,-1
50,100,0.8772727272727273,193,0,21,DL_Guitar,-1,-1
50,100,0.16363636363636364,488,1,21,DL_Guitar,-1,-1
55,100,0.4818181818181818,540,0,21,DL_Guitar,-1,-1
55,100,0.3181818181818182,669,0,21,DL_Guitar,-1,-1
62,100,0.1409090909090909,739,0,21,DL_Guitar,-1,-1
50,100,0.5227272727272727,783,0,21,DL_Guitar,-1,-1
55,100,0.2,79,1,22,DL_Guitar,-1,-1
55,100,0.37727272727272726,140,0,22,DL_Guitar,-1,-1
52,100,0.3,729,1,22,DL_Guitar,-1,-1
52,100,0.2,858,0,22,DL_Guitar,-1,-1
52,100,0.32272727272727275,69,1,23,DL_Guitar,-1,-1
52,100,1.4227272727272726,158,0,23,DL_Guitar,-1,-1
55,100,0.11818181818181818,546,1,23,DL_Guitar,-1,-1
52,100,0.2772727272727273,721,0,23,DL_Guitar,-1,-1
50,100,0.12272727272727273,804,0,23,DL_Guitar,-1,-1
50,100,0.42272727272727273,69,1,24,DL_Guitar,-1,-1
50,100,0.1409090909090909,198,0,24,DL_Guitar,-1,-1
55,100,0.2772727272727273,250,0,24,DL_Guitar,-1,-1
56,100,0.12272727272727273,378,0,24,DL_Guitar,-1,-1
60,100,0.9,461,0,24,DL_Guitar,-1,-1
50,100,0.759090909090909,721,1,24,DL_Guitar,-1,-1
52,100,0.4818181818181818,26,1,25,DL_Guitar,-1,-1
55,100,0.2818181818181818,264,1,25,DL_Guitar,-1,-1
55,100,0.2409090909090909,387,0,25,DL_Guitar,-1,-1
59,100,0.2590909090909091,611,1,25,DL_Guitar,-1,-1
52,100,0.32272727272727275,100,1,26,DL_Guitar,-1,-1
52,100,0.5409090909090909,399,1,26,DL_Guitar,-1,-1
53,100,0.1409090909090909,814,1,26,DL_Guitar,-1,-1
53,100,0.13636363636363635,171,1,27,DL_Guitar,-1,-1
50,100,0.42272727272727273,673,1,27,DL_Guitar,-1,-1
55,100,0.1409090909090909,773,0,27,DL_Guitar,-1,-1
55,100,0.41818181818181815,40,1,28,DL_Guitar,-1,-1
62,100,0.17727272727272728,260,1,28,DL_Guitar,-1,-1
50,100,0.1409090909090909,299,0,28,DL_Guitar,-1,-1
50,100,0.1409090909090909,333,0,28,DL_Guitar,-1,-1
62,100,0.2,395,0,28,DL_Guitar,-1,-1
55,100,0.3,501,0,28,DL_Guitar,-1,-1
62,100,0.36363636363636365,598,0,28,DL_Guitar,-1,-1
52,100,0.1,743,0,28,DL_Guitar,-1,-1
48,100,0.2409090909090909,515,1,29,DL_Guitar,-1,-1
64,100,0.22272727272727272,598,0,29,DL_Guitar,-1,-1
50,100,0.5818181818181818,619,1,44,DL_Guitar,-1,-1
50,100,0.4409090909090909,770,0,44,DL_Guitar,-1,-1
62,100,0.11818181818181818,8,1,45,DL_Guitar,-1,-1
50,100,0.18181818181818182,48,0,45,DL_Guitar,-1,-1
62,100,0.2818181818181818,101,0,45,DL_Guitar,-1,-1
62,100,0.11818181818181818,678,1,45,DL_Guitar,-1,-1
60,100,0.13636363636363635,260,1,46,DL_Guitar,-1,-1
48,100,0.18181818181818182,289,0,46,DL_Guitar,-1,-1
48,100,0.11818181818181818,370,0,46,DL_Guitar,-1,-1
48,100,0.11818181818181818,413,0,46,DL_Guitar,-1,-1
55,100,0.2590909090909091,496,0,46,DL_Guitar,-1,-1
55,100,0.11818181818181818,603,0,46,DL_Guitar,-1,-1
48,100,0.3409090909090909,770,0,46,DL_Guitar,-1,-1
55,100,0.22272727272727272,289,1,47,DL_Guitar,-1,-1
55,100,0.2590909090909091,343,0,47,DL_Guitar,-1,-1
55,100,0.3,421,0,47,DL_Guitar,-1,-1
55,100,0.18181818181818182,571,0,47,DL_Guitar,-1,-1
62,100,0.2590909090909091,651,0,47,DL_Guitar,-1,-1
43,100,0.21818181818181817,823,0,47,DL_Guitar,-1,-1
62,100,0.11818181818181818,21,1,48,DL_Guitar,-1,-1
64,100,0.5772727272727273,128,1,49,DL_Guitar,-1,-1
64,100,0.4818181818181818,289,0,49,DL_Guitar,-1,-1
60,100,0.3409090909090909,550,1,49,DL_Guitar,-1,-1
60,100,0.2,743,0,49,DL_Guitar,-1,-1
60,100,0.9,826,0,49,DL_Guitar,-1,-1
60,100,0.11818181818181818,153,1,50,DL_Guitar,-1,-1
60,100,0.3181818181818182,206,0,50,DL_Guitar,-1,-1
60,100,0.9590909090909091,298,0,50,DL_Guitar,-1,-1
60,100,0.11818181818181818,550,1,50,DL_Guitar,-1,-1
55,100,0.6590909090909091,581,0,50,DL_Guitar,-1,-1
55,100,0.5227272727272727,818,1,50,DL_Guitar,-1,-1
55,100,0.7227272727272728,114,1,51,DL_Guitar,-1,-1
55,100,0.22272727272727272,276,0,51,DL_Guitar,-1,-1
55,100,0.9181818181818182,330,0,51,DL_Guitar,-1,-1
55,100,0.18181818181818182,576,1,51,DL_Guitar,-1,-1
43,100,0.43636363636363634,678,0,51,DL_Guitar,-1,-1
55,100,1.6,774,0,51,DL_Guitar,-1,-1
55,100,0.11818181818181818,330,1,52,DL_Guitar,-1,-1
55,100,0.38181818181818183,364,0,52,DL_Guitar,-1,-1
60,100,0.2772727272727273,853,1,52,DL_Guitar,-1,-1
62,100,0.16363636363636364,289,1,53,DL_Guitar,-1,-1
60,100,0.36363636363636365,334,0,53,DL_Guitar,-1,-1
62,100,0.1409090909090909,518,0,53,DL_Guitar,-1,-1
60,100,0.1,593,0,53,DL_Guitar,-1,-1
55,100,0.4818181818181818,0,1,54,DL_Guitar,-1,-1
50,100,0.2409090909090909,114,0,54,DL_Guitar,-1,-1
55,100,0.2818181818181818,166,0,54,DL_Guitar,-1,-1
50,100,0.1409090909090909,228,0,54,DL_Guitar,-1,-1
55,100,0.21818181818181817,260,0,54,DL_Guitar,-1,-1
55,100,0.2590909090909091,413,0,54,DL_Guitar,-1,-1
55,100,0.38181818181818183,474,0,54,DL_Guitar,-1,-1
55,100,0.759090909090909,563,0,54,DL_Guitar,-1,-1
62,100,0.2,783,1,54,DL_Guitar,-1,-1
57,100,0.8,18,1,55,DL_Guitar,-1,-1
45,100,1.3181818181818181,193,0,55,DL_Guitar,-1,-1
55,100,0.1590909090909091,493,1,55,DL_Guitar,-1,-1
43,100,0.9590909090909091,528,0,55,DL_Guitar,-1,-1
62,100,0.9,738,1,55,DL_Guitar,-1,-1
48,100,0.4,848,1,56,DL_Guitar,-1,-1
55,100,0.2409090909090909,179,1,57,DL_Guitar,-1,-1
55,100,0.4772727272727273,338,0,57,DL_Guitar,-1,-1
57,100,0.12272727272727273,518,0,57,DL_Guitar,-1,-1
55,100,0.8,778,1,57,DL_Guitar,-1,-1
55,100,0.3,91,1,58,DL_Guitar,-1,-1
55,100,0.2,193,0,58,DL_Guitar,-1,-1
55,100,0.12272727272727273,444,1,58,DL_Guitar,-1,-1
55,100,0.13636363636363635,568,0,58,DL_Guitar,-1,-1
55,100,0.9181818181818182,603,0,58,DL_Guitar,-1,-1
55,100,0.6772727272727272,823,1,58,DL_Guitar,-1,-1
55,100,0.11818181818181818,141,1,59,DL_Guitar,-1,-1
55,100,0.4772727272727273,193,0,59,DL_Guitar,-1,-1
43,100,0.35909090909090907,405,1,59,DL_Guitar,-1,-1
55,100,0.6818181818181818,541,0,59,DL_Guitar,-1,-1
62,100,0.22272727272727272,751,1,59,DL_Guitar,-1,-1
55,100,0.2,66,1,60,DL_Guitar,-1,-1
62,100,0.11818181818181818,150,0,60,DL_Guitar,-1,-1
55,100,0.2409090909090909,298,0,60,DL_Guitar,-1,-1
55,100,0.3,356,0,60,DL_Guitar,-1,-1
55,100,0.43636363636363634,523,0,60,DL_Guitar,-1,-1
55,100,0.5181818181818182,655,0,60,DL_Guitar,-1,-1
55,100,0.5409090909090909,791,0,60,DL_Guitar,-1,-1
55,100,0.18181818181818182,101,1,61,DL_Guitar,-1,-1
52,100,0.2,260,0,61,DL_Guitar,-1,-1
55,100,0.3409090909090909,396,0,61,DL_Guitar,-1,-1
57,100,0.12272727272727273,641,1,61,DL_Guitar,-1,-1
55,100,0.3,788,0,61,DL_Guitar,-1,-1
55,100,1.6181818181818182,858,0,61,DL_Guitar,-1,-1
55,100,1.018181818181818,338,1,62,DL_Guitar,-1,-1
55,100,1.2,581,1,62,DL_Guitar,-1,-1
55,100,0.18181818181818182,858,1,62,DL_Guitar,-1,-1
60,100,0.2772727272727273,105,1,63,DL_Guitar,-1,-1
55,100,1.040909090909091,316,1,63,DL_Guitar,-1,-1
55,100,0.1409090909090909,558,1,63,DL_Guitar,-1,-1
62,100,0.3181818181818182,184,1,64,DL_Guitar,-1,-1
55,100,1.1409090909090909,267,0,64,DL_Guitar,-1,-1
62,100,0.2409090909090909,536,1,64,DL_Guitar,-1,-1
62,100,0.3,660,0,64,DL_Guitar,-1,-1
60,100,0.1590909090909091,216,1,65,DL_Guitar,-1,-1
55,100,0.2,347,0,65,DL_Guitar,-1,-1
55,100,0.7636363636363637,576,1,65,DL_Guitar,-1,-1
57,100,0.41818181818181815,40,1,66,DL_Guitar,-1,-1
55,100,1.0772727272727274,184,0,66,DL_Guitar,-1,-1
43,100,0.5,430,1,66,DL_Guitar,-1,-1
55,100,0.3409090909090909,540,0,66,DL_Guitar,-1,-1
55,100,0.3,703,0,66,DL_Guitar,-1,-1
55,100,0.2409090909090909,826,0,66,DL_Guitar,-1,-1
55,100,0.1,30,1,67,DL_Guitar,-1,-1
55,100,0.1409090909090909,56,0,67,DL_Guitar,-1,-1
55,100,0.3,136,0,67,DL_Guitar,-1,-1
55,100,0.4409090909090909,210,0,67,DL_Guitar,-1,-1
60,100,0.16363636363636364,312,0,67,DL_Guitar,-1,-1
55,100,0.6409090909090909,422,0,67,DL_Guitar,-1,-1
55,100,0.4,580,0,67,DL_Guitar,-1,-1
55,100,0.9,716,0,67,DL_Guitar,-1,-1
55,100,0.1409090909090909,66,1,68,DL_Guitar,-1,-1
62,100,0.759090909090909,110,0,68,DL_Guitar,-1,-1
50,100,0.35909090909090907,593,1,68,DL_Guitar,-1,-1
62,100,0.1409090909090909,703,0,68,DL_Guitar,-1,-1
55,100,0.2590909090909091,876,0,68,DL_Guitar,-1,-1
55,100,1.6,193,1,69,DL_Guitar,-1,-1
55,100,0.4590909090909091,567,1,69,DL_Guitar,-1,-1
52,100,0.11818181818181818,682,0,69,DL_Guitar,-1,-1
55,100,0.1,760,0,69,DL_Guitar,-1,-1
55,100,1.1,9,1,70,DL_Guitar,-1,-1
57,100,0.12272727272727273,365,1,70,DL_Guitar,-1,-1
55,100,0.2772727272727273,404,0,70,DL_Guitar,-1,-1
55,100,0.11818181818181818,480,0,70,DL_Guitar,-1,-1
60,100,0.11818181818181818,506,0,70,DL_Guitar,-1,-1
55,100,0.3181818181818182,550,0,70,DL_Guitar,-1,-1
55,100,0.4590909090909091,633,0,70,DL_Guitar,-1,-1
43,100,0.1409090909090909,756,0,70,DL_Guitar,-1,-1
62,100,0.3181818181818182,787,0,70,DL_Guitar,-1,-1
62,100,0.38181818181818183,870,0,70,DL_Guitar,-1,-1
62,100,0.42272727272727273,79,1,71,DL_Guitar,-1,-1
43,100,0.11818181818181818,176,0,71,DL_Guitar,-1,-1
55,100,0.5818181818181818,202,0,71,DL_Guitar,-1,-1
55,100,0.1409090909090909,383,0,71,DL_Guitar,-1,-1
55,100,1.1181818181818182,436,0,71,DL_Guitar,-1,-1
55,100,2.2181818181818183,690,1,71,DL_Guitar,-1,-1
55,100,0.41818181818181815,330,1,72,DL_Guitar,-1,-1
60,100,0.8409090909090909,440,0,72,DL_Guitar,-1,-1
60,100,0.6818181818181818,629,0,72,DL_Guitar,-1,-1
55,100,0.11818181818181818,426,1,73,DL_Guitar,-1,-1
55,100,0.12272727272727273,487,0,73,DL_Guitar,-1,-1
55,100,1.2181818181818183,567,0,73,DL_Guitar,-1,-1
55,100,2.077272727272727,866,1,73,DL_Guitar,-1,-1
52,100,0.6227272727272727,246,1,0,DL_Remix_emotional_folk_Guitar,-1,-1
59,100,0.2590909090909091,396,0,0,DL_Remix_emotional_folk_Guitar,-1,-1
59,100,0.2,492,0,0,DL_Remix_emotional_folk_Guitar,-1,-1
59,100,0.21818181818181817,559,0,0,DL_Remix_emotional_folk_Guitar,-1,-1
59,100,0.18181818181818182,752,0,0,DL_Remix_emotional_folk_Guitar,-1,-1
59,100,0.3,867,0,0,DL_Remix_emotional_folk_Guitar,-1,-1
59,100,0.3409090909090909,136,1,1,DL_Remix_emotional_folk_Guitar,-1,-1
40,100,0.2,233,0,1,DL_Remix_emotional_folk_Guitar,-1,-1
52,100,0.32272727272727275,356,0,1,DL_Remix_emotional_folk_Guitar,-1,-1
59,100,0.4590909090909091,458,0,1,DL_Remix_emotional_folk_Guitar,-1,-1
61,100,0.18181818181818182,606,0,1,DL_Remix_emotional_folk_Guitar,-1,-1
49,100,0.2772727272727273,646,0,1,DL_Remix_emotional_folk_Guitar,-1,-1
49,100,0.11818181818181818,726,0,1,DL_Remix_emotional_folk_Guitar,-1,-1
49,100,0.1,61,1,2,DL_Remix_emotional_folk_Guitar,-1,-1
49,100,0.38181818181818183,88,0,2,DL_Remix_emotional_folk_Guitar,-1,-1
49,100,0.8,321,1,2,DL_Remix_emotional_folk_Guitar,-1,-1
49,100,0.38181818181818183,576,1,2,DL_Remix_emotional_folk_Guitar,-1,-1
49,100,0.4818181818181818,708,0,2,DL_Remix_emotional_folk_Guitar,-1,-1
49,100,0.18181818181818182,818,0,2,DL_Remix_emotional_folk_Guitar,-1,-1
54,100,0.42272727272727273,34,1,3,DL_Remix_emotional_folk_Guitar,-1,-1
54,100,0.1409090909090909,131,0,3,DL_Remix_emotional_folk_Guitar,-1,-1
54,100,0.41818181818181815,396,1,3,DL_Remix_emotional_folk_Guitar,-1,-1
54,100,0.1590909090909091,506,0,3,DL_Remix_emotional_folk_Guitar,-1,-1
54,100,0.2818181818181818,553,0,3,DL_Remix_emotional_folk_Guitar,-1,-1
54,100,0.1590909090909091,629,0,3,DL_Remix_emotional_folk_Guitar,-1,-1
54,100,0.7,858,1,3,DL_Remix_emotional_folk_Guitar,-1,-1
54,100,0.38181818181818183,135,1,4,DL_Remix_emotional_folk_Guitar,-1,-1
54,100,0.1409090909090909,383,1,4,DL_Remix_emotional_folk_Guitar,-1,-1
54,100,0.17727272727272728,427,0,4,DL_Remix_emotional_folk_Guitar,-1,-1
59,100,0.6181818181818182,470,0,4,DL_Remix_emotional_folk_Guitar,-1,-1
54,100,0.11818181818181818,624,0,4,DL_Remix_emotional_folk_Guitar,-1,-1
59,100,0.6227272727272727,739,0,4,DL_Remix_emotional_folk_Guitar,-1,-1
59,100,0.1409090909090909,0,1,5,DL_Remix_emotional_folk_Guitar,-1,-1
54,100,0.18181818181818182,189,0,5,DL_Remix_emotional_folk_Guitar,-1,-1
47,100,0.3,263,0,5,DL_Remix_emotional_folk_Guitar,-1,-1
47,100,0.9227272727272727,334,0,5,DL_Remix_emotional_folk_Guitar,-1,-1
47,100,0.8,554,1,5,DL_Remix_emotional_folk_Guitar,-1,-1
59,100,0.1,782,1,5,DL_Remix_emotional_folk_Guitar,-1,-1
52,100,0.1409090909090909,0,1,6,DL_Remix_emotional_folk_Guitar,-1,-1
40,100,0.1409090909090909,30,0,6,DL_Remix_emotional_folk_Guitar,-1,-1
40,100,0.3409090909090909,132,0,6,DL_Remix_emotional_folk_Guitar,-1,-1
59,100,0.2409090909090909,245,0,6,DL_Remix_emotional_folk_Guitar,-1,-1
40,100,0.11818181818181818,307,0,6,DL_Remix_emotional_folk_Guitar,-1,-1
40,100,0.21818181818181817,338,0,6,DL_Remix_emotional_folk_Guitar,-1,-1
52,100,0.41818181818181815,440,0,6,DL_Remix_emotional_folk_Guitar,-1,-1
40,100,0.1590909090909091,590,0,6,DL_Remix_emotional_folk_Guitar,-1,-1
47,100,0.5227272727272727,752,0,6,DL_Remix_emotional_folk_Guitar,-1,-1
52,100,1.1227272727272728,871,0,6,DL_Remix_emotional_folk_Guitar,-1,-1
59,100,0.11818181818181818,263,1,7,DL_Remix_emotional_folk_Guitar,-1,-1
63,100,0.12272727272727273,541,1,7,DL_Remix_emotional_folk_Guitar,-1,-1
63,100,0.1,585,0,7,DL_Remix_emotional_folk_Guitar,-1,-1
63,100,0.2772727272727273,647,0,7,DL_Remix_emotional_folk_Guitar,-1,-1
63,100,0.22272727272727272,739,0,7,DL_Remix_emotional_folk_Guitar,-1,-1
63,100,0.2,826,0,7,DL_Remix_emotional_folk_Guitar,-1,-1
59,100,0.7,53,1,8,DL_Remix_emotional_folk_Guitar,-1,-1
59,100,0.4772727272727273,237,0,8,DL_Remix_emotional_folk_Guitar,-1,-1
51,100,0.6636363636363637,355,0,8,DL_Remix_emotional_folk_Guitar,-1,-1
56,100,0.22272727272727272,519,0,8,DL_Remix_emotional_folk_Guitar,-1,-1
49,100,0.32272727272727275,716,0,8,DL_Remix_emotional_folk_Guitar,-1,-1
56,100,0.2636363636363636,818,0,8,DL_Remix_emotional_folk_Guitar,-1,-1
56,100,0.4818181818181818,3,1,9,DL_Remix_emotional_folk_Guitar,-1,-1
56,100,0.33636363636363636,259,1,9,DL_Remix_emotional_folk_Guitar,-1,-1
56,100,0.7636363636363637,553,1,9,DL_Remix_emotional_folk_Guitar,-1,-1
56,100,0.9818181818181818,725,0,9,DL_Remix_emotional_folk_Guitar,-1,-1
57,100,0.3409090909090909,144,1,10,DL_Remix_emotional_folk_Guitar,-1,-1
45,100,0.3,220,0,10,DL_Remix_emotional_folk_Guitar,-1,-1
52,100,0.17727272727272728,369,0,10,DL_Remix_emotional_folk_Guitar,-1,-1
52,100,0.1,440,0,10,DL_Remix_emotional_folk_Guitar,-1,-1
64,100,0.18181818181818182,620,0,10,DL_Remix_emotional_folk_Guitar,-1,-1
64,100,0.12272727272727273,663,0,10,DL_Remix_emotional_folk_Guitar,-1,-1
47,100,0.11818181818181818,845,0,10,DL_Remix_emotional_folk_Guitar,-1,-1
47,100,1.240909090909091,8,1,11,DL_Remix_emotional_folk_Guitar,-1,-1
47,100,0.6181818181818182,285,1,11,DL_Remix_emotional_folk_Guitar,-1,-1
59,100,0.12272727272727273,519,1,11,DL_Remix_emotional_folk_Guitar,-1,-1
40,100,1.2,546,0,11,DL_Remix_emotional_folk_Guitar,-1,-1
59,100,0.5590909090909091,845,1,11,DL_Remix_emotional_folk_Guitar,-1,-1
59,100,0.2,259,1,12,DL_Remix_emotional_folk_Guitar,-1,-1
47,100,0.1,436,0,12,DL_Remix_emotional_folk_Guitar,-1,-1
52,100,0.11818181818181818,589,0,12,DL_Remix_emotional_folk_Guitar,-1,-1
59,100,0.18181818181818182,804,1,12,DL_Remix_emotional_folk_Guitar,-1,-1
51,100,0.5772727272727273,140,1,13,DL_Remix_emotional_folk_Guitar,-1,-1
44,100,0.5,326,0,13,DL_Remix_emotional_folk_Guitar,-1,-1
63,100,0.7227272727272728,443,0,13,DL_Remix_emotional_folk_Guitar,-1,-1
59,100,0.2,606,0,13,DL_Remix_emotional_folk_Guitar,-1,-1
63,100,1.0,673,0,13,DL_Remix_emotional_folk_Guitar,-1,-1
51,100,0.5,48,1,14,DL_Remix_emotional_folk_Guitar,-1,-1
51,100,0.1,163,0,14,DL_Remix_emotional_folk_Guitar,-1,-1
49,100,0.6818181818181818,352,0,14,DL_Remix_emotional_folk_Guitar,-1,-1
56,100,1.3636363636363635,510,0,14,DL_Remix_emotional_folk_Guitar,-1,-1
56,100,0.3,273,1,15,DL_Remix_emotional_folk_Guitar,-1,-1
54,100,0.1409090909090909,629,1,15,DL_Remix_emotional_folk_Guitar,-1,-1
59,100,0.5363636363636364,744,0,15,DL_Remix_emotional_folk_Guitar,-1,-1
52,100,0.7181818181818181,866,0,15,DL_Remix_emotional_folk_Guitar,-1,-1
57,100,0.7,144,1,16,DL_Remix_emotional_folk_Guitar,-1,-1
64,100,0.5409090909090909,299,0,16,DL_Remix_emotional_folk_Guitar,-1,-1
54,100,0.2409090909090909,440,0,16,DL_Remix_emotional_folk_Guitar,-1,-1
47,100,0.9636363636363636,663,1,16,DL_Remix_emotional_folk_Guitar,-1,-1
59,100,0.4409090909090909,52,1,17,DL_Remix_emotional_folk_Guitar,-1,-1
52,100,0.2,220,0,17,DL_Remix_emotional_folk_Guitar,-1,-1
52,100,0.6818181818181818,351,0,17,DL_Remix_emotional_folk_Guitar,-1,-1
61,100,0.7,660,1,17,DL_Remix_emotional_folk_Guitar,-1,-1
44,100,0.4818181818181818,858,1,17,DL_Remix_emotional_folk_Guitar,-1,-1
54,100,0.2409090909090909,92,1,18,DL_Remix_emotional_folk_Guitar,-1,-1
54,100,0.1409090909090909,154,0,18,DL_Remix_emotional_folk_Guitar,-1,-1
64,100,0.35909090909090907,395,1,18,DL_Remix_emotional_folk_Guitar,-1,-1
63,100,0.1409090909090909,515,0,18,DL_Remix_emotional_folk_Guitar,-1,-1
45,100,0.5772727272727273,581,0,18,DL_Remix_emotional_folk_Guitar,-1,-1
52,100,0.7,708,0,18,DL_Remix_emotional_folk_Guitar,-1,-1
57,100,0.2818181818181818,0,1,19,DL_Remix_emotional_folk_Guitar,-1,-1
45,100,0.3,61,0,19,DL_Remix_emotional_folk_Guitar,-1,-1
64,100,0.5590909090909091,140,0,19,DL_Remix_emotional_folk_Guitar,-1,-1
47,100,1.0818181818181818,320,0,19,DL_Remix_emotional_folk_Guitar,-1,-1
47,100,0.3409090909090909,584,1,19,DL_Remix_emotional_folk_Guitar,-1,-1
47,100,0.21818181818181817,691,0,19,DL_Remix_emotional_folk_Guitar,-1,-1
47,100,0.5,743,0,19,DL_Remix_emotional_folk_Guitar,-1,-1
40,100,0.38181818181818183,79,1,20,DL_Remix_emotional_folk_Guitar,-1,-1
40,100,0.22272727272727272,289,1,20,DL_Remix_emotional_folk_Guitar,-1,-1
59,100,0.2,351,0,20,DL_Remix_emotional_folk_Guitar,-1,-1
40,100,0.3181818181818182,418,0,20,DL_Remix_emotional_folk_Guitar,-1,-1
64,100,0.2590909090909091,492,0,20,DL_Remix_emotional_folk_Guitar,-1,-1
40,100,0.1590909090909091,567,0,20,DL_Remix_emotional_folk_Guitar,-1,-1
64,100,0.1590909090909091,650,0,20,DL_Remix_emotional_folk_Guitar,-1,-1
59,100,0.17727272727272728,831,0,20,DL_Remix_emotional_folk_Guitar,-1,-1
40,100,0.42272727272727273,870,0,20,DL_Remix_emotional_folk_Guitar,-1,-1
59,100,0.33636363636363636,106,1,21,DL_Remix_emotional_folk_Guitar,-1,-1
40,100,0.2590909090909091,189,0,21,DL_Remix_emotional_folk_Guitar,-1,-1
40,100,0.1409090909090909,299,0,21,DL_Remix_emotional_folk_Guitar,-1,-1
40,100,0.1,333,0,21,DL_Remix_emotional_folk_Guitar,-1,-1
47,100,0.2409090909090909,650,1,21,DL_Remix_emotional_folk_Guitar,-1,-1
59,100,0.2818181818181818,708,0,21,DL_Remix_emotional_folk_Guitar,-1,-1
47,100,0.41818181818181815,770,0,21,DL_Remix_emotional_folk_Guitar,-1,-1
47,100,0.4409090909090909,9,1,22,DL_Remix_emotional_folk_Guitar,-1,-1
47,100,0.2818181818181818,320,1,22,DL_Remix_emotional_folk_Guitar,-1,-1
54,100,0.1,457,0,22,DL_Remix_emotional_folk_Guitar,-1,-1
59,100,0.18181818181818182,540,0,22,DL_Remix_emotional_folk_Guitar,-1,-1
52,100,0.4590909090909091,791,1,22,DL_Remix_emotional_folk_Guitar,-1,-1
52,100,0.2,44,1,23,DL_Remix_emotional_folk_Guitar,-1,-1
57,100,0.7227272727272728,113,0,23,DL_Remix_emotional_folk_Guitar,-1,-1
45,100,0.2772727272727273,382,1,23,DL_Remix_emotional_folk_Guitar,-1,-1
64,100,0.2818181818181818,505,0,23,DL_Remix_emotional_folk_Guitar,-1,-1
57,100,0.16363636363636364,663,0,23,DL_Remix_emotional_folk_Guitar,-1,-1
57,100,0.3,717,0,23,DL_Remix_emotional_folk_Guitar,-1,-1
64,100,0.6590909090909091,822,0,23,DL_Remix_emotional_folk_Guitar,-1,-1
59,100,0.13636363636363635,106,1,24,DL_Remix_emotional_folk_Guitar,-1,-1
59,100,0.11818181818181818,303,0,24,DL_Remix_emotional_folk_Guitar,-1,-1
40,100,0.3409090909090909,330,0,24,DL_Remix_emotional_folk_Guitar,-1,-1
40,100,0.5590909090909091,430,0,24,DL_Remix_emotional_folk_Guitar,-1,-1
40,100,0.5409090909090909,581,0,24,DL_Remix_emotional_folk_Guitar,-1,-1
64,100,1.0772727272727274,700,0,24,DL_Remix_emotional_folk_Guitar,-1,-1
47,100,0.42272727272727273,92,1,25,DL_Remix_emotional_folk_Guitar,-1,-1
47,100,0.18181818181818182,198,0,25,DL_Remix_emotional_folk_Guitar,-1,-1
59,100,0.13636363636363635,260,0,25,DL_Remix_emotional_folk_Guitar,-1,-1
64,100,0.7181818181818181,308,0,25,DL_Remix_emotional_folk_Guitar,-1,-1
40,100,0.5818181818181818,466,0,25,DL_Remix_emotional_folk_Guitar,-1,-1
57,100,0.1,646,0,25,DL_Remix_emotional_folk_Guitar,-1,-1
64,100,0.35909090909090907,673,0,25,DL_Remix_emotional_folk_Guitar,-1,-1
45,100,0.3409090909090909,100,1,26,DL_Remix_emotional_folk_Guitar,-1,-1
45,100,0.5227272727272727,223,0,26,DL_Remix_emotional_folk_Guitar,-1,-1
64,100,0.1409090909090909,343,0,26,DL_Remix_emotional_folk_Guitar,-1,-1
47,100,0.18181818181818182,378,0,26,DL_Remix_emotional_folk_Guitar,-1,-1
47,100,0.3,430,0,26,DL_Remix_emotional_folk_Guitar,-1,-1
59,100,0.3409090909090909,497,0,26,DL_Remix_emotional_folk_Guitar,-1,-1
47,100,0.35909090909090907,571,0,26,DL_Remix_emotional_folk_Guitar,-1,-1
54,100,0.18181818181818182,660,0,26,DL_Remix_emotional_folk_Guitar,-1,-1
52,100,0.3181818181818182,17,1,27,DL_Remix_emotional_folk_Guitar,-1,-1
56,100,0.1409090909090909,268,1,27,DL_Remix_emotional_folk_Guitar,-1,-1
54,100,0.1,870,1,27,DL_Remix_emotional_folk_Guitar,-1,-1
56,100,0.2409090909090909,88,1,28,DL_Remix_emotional_folk_Guitar,-1,-1
61,100,0.2,378,1,28,DL_Remix_emotional_folk_Guitar,-1,-1
44,100,0.6772727272727272,457,0,28,DL_Remix_emotional_folk_Guitar,-1,-1
44,100,0.2636363636363636,708,1,28,DL_Remix_emotional_folk_Guitar,-1,-1
44,100,0.5181818181818182,810,0,28,DL_Remix_emotional_folk_Guitar,-1,-1
59,100,0.3409090909090909,52,1,29,DL_Remix_emotional_folk_Guitar,-1,-1
51,100,0.32272727272727275,233,0,29,DL_Remix_emotional_folk_Guitar,-1,-1
51,100,0.11818181818181818,308,0,29,DL_Remix_emotional_folk_Guitar,-1,-1
63,100,0.3,360,0,29,DL_Remix_emotional_folk_Guitar,-1,-1
51,100,0.21818181818181817,426,0,29,DL_Remix_emotional_folk_Guitar,-1,-1
51,100,0.7818181818181819,484,0,29,DL_Remix_emotional_folk_Guitar,-1,-1
63,100,0.3,656,0,29,DL_Remix_emotional_folk_Guitar,-1,-1
56,100,0.1409090909090909,752,0,29,DL_Remix_emotional_folk_Guitar,-1,-1
45,100,0.11818181818181818,0,1,30,DL_Remix_emotional_folk_Guitar,-1,-1
59,100,0.17727272727272728,30,0,30,DL_Remix_emotional_folk_Guitar,-1,-1
45,100,0.4,69,0,30,DL_Remix_emotional_folk_Guitar,-1,-1
45,100,0.1590909090909091,171,0,30,DL_Remix_emotional_folk_Guitar,-1,-1
57,100,0.21818181818181817,206,0,30,DL_Remix_emotional_folk_Guitar,-1,-1
57,100,0.1590909090909091,264,0,30,DL_Remix_emotional_folk_Guitar,-1,-1
45,100,0.2,430,0,30,DL_Remix_emotional_folk_Guitar,-1,-1
57,100,0.3181818181818182,505,0,30,DL_Remix_emotional_folk_Guitar,-1,-1
45,100,0.32272727272727275,576,0,30,DL_Remix_emotional_folk_Guitar,-1,-1
57,100,0.2,646,0,30,DL_Remix_emotional_folk_Guitar,-1,-1
57,100,0.7818181818181819,804,0,30,DL_Remix_emotional_folk_Guitar,-1,-1
57,100,0.1,193,1,31,DL_Remix_emotional_folk_Guitar,-1,-1
57,100,0.21818181818181817,241,0,31,DL_Remix_emotional_folk_Guitar,-1,-1
47,100,0.38181818181818183,299,0,31,DL_Remix_emotional_folk_Guitar,-1,-1
47,100,0.18181818181818182,387,0,31,DL_Remix_emotional_folk_Guitar,-1,-1
47,100,0.3,870,1,31,DL_Remix_emotional_folk_Guitar,-1,-1
54,100,0.1,201,1,32,DL_Remix_emotional_folk_Guitar,-1,-1
63,100,0.2,531,1,32,DL_Remix_emotional_folk_Guitar,-1,-1
45,100,0.1590909090909091,53,1,33,DL_Remix_emotional_folk_Guitar,-1,-1
45,100,0.21818181818181817,131,0,33,DL_Remix_emotional_folk_Guitar,-1,-1
57,100,0.2409090909090909,228,0,33,DL_Remix_emotional_folk_Guitar,-1,-1
45,100,0.1409090909090909,316,0,33,DL_Remix_emotional_folk_Guitar,-1,-1
45,100,0.2818181818181818,351,0,33,DL_Remix_emotional_folk_Guitar,-1,-1
57,100,0.6181818181818182,426,0,33,DL_Remix_emotional_folk_Guitar,-1,-1
64,100,0.5,584,0,33,DL_Remix_emotional_folk_Guitar,-1,-1
64,100,0.2590909090909091,716,0,33,DL_Remix_emotional_folk_Guitar,-1,-1
59,100,0.22272727272727272,774,0,33,DL_Remix_emotional_folk_Guitar,-1,-1
64,100,0.5818181818181818,826,0,33,DL_Remix_emotional_folk_Guitar,-1,-1
52,100,0.2,110,1,34,DL_Remix_emotional_folk_Guitar,-1,-1
52,100,0.22272727272727272,158,0,34,DL_Remix_emotional_folk_Guitar,-1,-1
59,100,0.11818181818181818,295,0,34,DL_Remix_emotional_folk_Guitar,-1,-1
52,100,0.12272727272727273,378,0,34,DL_Remix_emotional_folk_Guitar,-1,-1
52,100,0.1409090909090909,418,0,34,DL_Remix_emotional_folk_Guitar,-1,-1
59,100,0.4,461,0,34,DL_Remix_emotional_folk_Guitar,-1,-1
59,100,0.3181818181818182,681,1,34,DL_Remix_emotional_folk_Guitar,-1,-1
59,100,0.1590909090909091,765,0,34,DL_Remix_emotional_folk_Guitar,-1,-1
52,100,0.2590909090909091,801,0,34,DL_Remix_emotional_folk_Guitar,-1,-1
52,100,0.4590909090909091,40,1,35,DL_Remix_emotional_folk_Guitar,-1,-1
64,100,0.13636363636363635,150,0,35,DL_Remix_emotional_folk_Guitar,-1,-1
64,100,0.18181818181818182,321,0,35,DL_Remix_emotional_folk_Guitar,-1,-1
64,100,0.1409090909090909,440,0,35,DL_Remix_emotional_folk_Guitar,-1,-1
52,100,0.1409090909090909,471,0,35,DL_Remix_emotional_folk_Guitar,-1,-1
47,100,0.7,509,0,35,DL_Remix_emotional_folk_Guitar,-1,-1
59,100,0.1409090909090909,664,0,35,DL_Remix_emotional_folk_Guitar,-1,-1
47,100,0.22272727272727272,694,0,35,DL_Remix_emotional_folk_Guitar,-1,-1
59,100,0.3181818181818182,743,0,35,DL_Remix_emotional_folk_Guitar,-1,-1
47,100,0.2409090909090909,818,0,35,DL_Remix_emotional_folk_Guitar,-1,-1
47,100,0.13636363636363635,875,0,35,DL_Remix_emotional_folk_Guitar,-1,-1
47,100,0.2818181818181818,34,1,36,DL_Remix_emotional_folk_Guitar,-1,-1
64,100,0.13636363636363635,150,0,36,DL_Remix_emotional_folk_Guitar,-1,-1
47,100,0.5,201,0,36,DL_Remix_emotional_folk_Guitar,-1,-1
47,100,0.11818181818181818,330,0,36,DL_Remix_emotional_folk_Guitar,-1,-1
59,100,0.12272727272727273,399,0,36,DL_Remix_emotional_folk_Guitar,-1,-1
59,100,0.3,496,0,36,DL_Remix_emotional_folk_Guitar,-1,-1
60,100,0.17727272727272728,603,0,36,DL_Remix_emotional_folk_Guitar,-1,-1
48,100,0.12272727272727273,641,0,36,DL_Remix_emotional_folk_Guitar,-1,-1
60,100,0.2590909090909091,668,0,36,DL_Remix_emotional_folk_Guitar,-1,-1
61,100,0.1409090909090909,866,1,36,DL_Remix_emotional_folk_Guitar,-1,-1
49,100,0.5772727272727273,18,1,37,DL_Remix_emotional_folk_Guitar,-1,-1
61,100,0.3,144,0,37,DL_Remix_emotional_folk_Guitar,-1,-1
49,100,0.33636363636363636,215,0,37,DL_Remix_emotional_folk_Guitar,-1,-1
49,100,0.12272727272727273,364,0,37,DL_Remix_emotional_folk_Guitar,-1,-1
49,100,0.1409090909090909,576,1,37,DL_Remix_emotional_folk_Guitar,-1,-1
49,100,0.22272727272727272,641,0,37,DL_Remix_emotional_folk_Guitar,-1,-1
49,100,0.12272727272727273,729,0,37,DL_Remix_emotional_folk_Guitar,-1,-1
49,100,0.41818181818181815,770,0,37,DL_Remix_emotional_folk_Guitar,-1,-1
44,100,0.2409090909090909,386,1,38,DL_Remix_emotional_folk_Guitar,-1,-1
63,100,0.21818181818181817,461,0,38,DL_Remix_emotional_folk_Guitar,-1,-1
63,100,0.32272727272727275,598,0,38,DL_Remix_emotional_folk_Guitar,-1,-1
51,100,0.7,668,0,38,DL_Remix_emotional_folk_Guitar,-1,-1
56,100,0.4,241,1,39,DL_Remix_emotional_folk_Guitar,-1,-1
56,100,0.1,373,0,39,DL_Remix_emotional_folk_Guitar,-1,-1
56,100,1.0227272727272727,399,0,39,DL_Remix_emotional_folk_Guitar,-1,-1
57,100,0.1590909090909091,735,1,39,DL_Remix_emotional_folk_Guitar,-1,-1
45,100,0.4,778,0,39,DL_Remix_emotional_folk_Guitar,-1,-1
57,100,0.3409090909090909,866,0,39,DL_Remix_emotional_folk_Guitar,-1,-1
45,100,0.12272727272727273,78,1,40,DL_Remix_emotional_folk_Guitar,-1,-1
57,100,0.4590909090909091,150,0,40,DL_Remix_emotional_folk_Guitar,-1,-1
57,100,0.12272727272727273,268,0,40,DL_Remix_emotional_folk_Guitar,-1,-1
64,100,0.7181818181818181,303,0,40,DL_Remix_emotional_folk_Guitar,-1,-1
64,100,0.3409090909090909,576,1,40,DL_Remix_emotional_folk_Guitar,-1,-1
57,100,0.5590909090909091,651,0,40,DL_Remix_emotional_folk_Guitar,-1,-1
52,100,0.2590909090909091,778,0,40,DL_Remix_emotional_folk_Guitar,-1,-1
57,100,0.37727272727272726,845,0,40,DL_Remix_emotional_folk_Guitar,-1,-1
57,100,0.2,61,1,41,DL_Remix_emotional_folk_Guitar,-1,-1
57,100,0.3,123,0,41,DL_Remix_emotional_folk_Guitar,-1,-1
59,100,0.18181818181818182,241,0,41,DL_Remix_emotional_folk_Guitar,-1,-1
59,100,0.7363636363636363,348,0,41,DL_Remix_emotional_folk_Guitar,-1,-1
64,100,0.3181818181818182,616,1,41,DL_Remix_emotional_folk_Guitar,-1,-1
52,100,0.11818181818181818,713,0,41,DL_Remix_emotional_folk_Guitar,-1,-1
64,100,0.22272727272727272,738,0,41,DL_Remix_emotional_folk_Guitar,-1,-1
52,100,0.4,796,0,41,DL_Remix_emotional_folk_Guitar,-1,-1
64,100,0.3,4,1,42,DL_Remix_emotional_folk_Guitar,-1,-1
52,100,0.21818181818181817,75,0,42,DL_Remix_emotional_folk_Guitar,-1,-1
64,100,0.3,163,0,42,DL_Remix_emotional_folk_Guitar,-1,-1
52,100,0.42272727272727273,254,0,42,DL_Remix_emotional_folk_Guitar,-1,-1
52,100,0.1590909090909091,351,0,42,DL_Remix_emotional_folk_Guitar,-1,-1
52,100,0.759090909090909,396,0,42,DL_Remix_emotional_folk_Guitar,-1,-1
57,100,0.1409090909090909,571,0,42,DL_Remix_emotional_folk_Guitar,-1,-1
61,100,0.2818181818181818,791,1,42,DL_Remix_emotional_folk_Guitar,-1,-1
54,100,0.11818181818181818,858,0,42,DL_Remix_emotional_folk_Guitar,-1,-1
54,100,0.2,18,1,43,DL_Remix_emotional_folk_Guitar,-1,-1
54,100,0.2,91,0,43,DL_Remix_emotional_folk_Guitar,-1,-1
54,100,1.7772727272727273,141,0,43,DL_Remix_emotional_folk_Guitar,-1,-1
49,100,0.1409090909090909,550,1,43,DL_Remix_emotional_folk_Guitar,-1,-1
54,100,0.13636363636363635,590,0,43,DL_Remix_emotional_folk_Guitar,-1,-1
54,100,0.1409090909090909,726,0,43,DL_Remix_emotional_folk_Guitar,-1,-1
45,100,0.22272727272727272,848,0,43,DL_Remix_emotional_folk_Guitar,-1,-1
52,100,0.1409090909090909,43,1,44,DL_Remix_emotional_folk_Guitar,-1,-1
45,100,0.9,144,0,44,DL_Remix_emotional_folk_Guitar,-1,-1
64,100,0.2590909090909091,351,1,44,DL_Remix_emotional_folk_Guitar,-1,-1
57,100,0.4,418,0,44,DL_Remix_emotional_folk_Guitar,-1,-1
45,100,0.1590909090909091,523,0,44,DL_Remix_emotional_folk_Guitar,-1,-1
45,100,0.21818181818181817,568,0,44,DL_Remix_emotional_folk_Guitar,-1,-1
47,100,0.1409090909090909,88,1,45,DL_Remix_emotional_folk_Guitar,-1,-1
47,100,1.040909090909091,166,0,45,DL_Remix_emotional_folk_Guitar,-1,-1
64,100,0.6409090909090909,431,1,45,DL_Remix_emotional_folk_Guitar,-1,-1
59,100,0.5590909090909091,628,0,45,DL_Remix_emotional_folk_Guitar,-1,-1
64,100,0.8,861,1,45,DL_Remix_emotional_folk_Guitar,-1,-1
64,100,0.37727272727272726,193,1,46,DL_Remix_emotional_folk_Guitar,-1,-1
59,100,0.7,289,0,46,DL_Remix_emotional_folk_Guitar,-1,-1
64,100,1.3181818181818181,448,0,46,DL_Remix_emotional_folk_Guitar,-1,-1
52,100,0.11818181818181818,831,1,46,DL_Remix_emotional_folk_Guitar,-1,-1
57,100,0.5818181818181818,373,1,47,DL_Remix_emotional_folk_Guitar,-1,-1
54,100,0.1590909090909091,198,1,48,DL_Remix_emotional_folk_Guitar,-1,-1
63,100,0.12272727272727273,298,0,48,DL_Remix_emotional_folk_Guitar,-1,-1
63,100,0.5590909090909091,523,1,48,DL_Remix_emotional_folk_Guitar,-1,-1
54,100,0.1590909090909091,703,0,48,DL_Remix_emotional_folk_Guitar,-1,-1
47,100,0.22272727272727272,796,0,48,DL_Remix_emotional_folk_Guitar,-1,-1
47,100,0.2818181818181818,871,0,48,DL_Remix_emotional_folk_Guitar,-1,-1
59,100,0.4,118,1,49,DL_Remix_emotional_folk_Guitar,-1,-1
47,100,0.16363636363636364,224,0,49,DL_Remix_emotional_folk_Guitar,-1,-1
59,100,0.11818181818181818,260,0,49,DL_Remix_emotional_folk_Guitar,-1,-1
54,100,0.2409090909090909,295,0,49,DL_Remix_emotional_folk_Guitar,-1,-1
47,100,0.3181818181818182,361,0,49,DL_Remix_emotional_folk_Guitar,-1,-1
56,100,0.2,83,1,50,DL_Remix_emotional_folk_Guitar,-1,-1
47,100,0.2,238,0,50,DL_Remix_emotional_folk_Guitar,-1,-1
47,100,0.3,286,0,50,DL_Remix_emotional_folk_Guitar,-1,-1
47,100,0.1590909090909091,386,0,50,DL_Remix_emotional_folk_Guitar,-1,-1
56,100,0.5590909090909091,515,0,50,DL_Remix_emotional_folk_Guitar,-1,-1
56,100,0.759090909090909,700,0,50,DL_Remix_emotional_folk_Guitar,-1,-1
49,100,0.36363636363636365,334,1,51,DL_Remix_emotional_folk_Guitar,-1,-1
49,100,0.4590909090909091,435,0,51,DL_Remix_emotional_folk_Guitar,-1,-1
49,100,0.2590909090909091,668,1,51,DL_Remix_emotional_folk_Guitar,-1,-1
49,100,0.22272727272727272,729,0,51,DL_Remix_emotional_folk_Guitar,-1,-1
49,100,5.0590909090909095,826,0,51,DL_Remix_emotional_folk_Guitar,-1,-1
45,100,0.35909090909090907,273,1,53,DL_Remix_emotional_folk_Guitar,-1,-1
59,100,0.2636363636363636,378,0,53,DL_Remix_emotional_folk_Guitar,-1,-1
59,100,0.1409090909090909,440,0,53,DL_Remix_emotional_folk_Guitar,-1,-1
57,100,0.6409090909090909,506,0,53,DL_Remix_emotional_folk_Guitar,-1,-1
45,100,0.12272727272727273,783,1,53,DL_Remix_emotional_folk_Guitar,-1,-1
63,100,0.11818181818181818,440,1,54,DL_Remix_emotional_folk_Guitar,-1,-1
57,100,0.2409090909090909,584,0,54,DL_Remix_emotional_folk_Guitar,-1,-1
45,100,0.6409090909090909,638,0,54,DL_Remix_emotional_folk_Guitar,-1,-1
45,100,0.18181818181818182,836,1,54,DL_Remix_emotional_folk_Guitar,-1,-1
57,100,0.6818181818181818,0,1,55,DL_Remix_emotional_folk_Guitar,-1,-1
64,100,0.7,163,0,55,DL_Remix_emotional_folk_Guitar,-1,-1
45,100,0.1590909090909091,364,1,55,DL_Remix_emotional_folk_Guitar,-1,-1
45,100,0.2590909090909091,405,0,55,DL_Remix_emotional_folk_Guitar,-1,-1
64,100,0.5181818181818182,483,0,55,DL_Remix_emotional_folk_Guitar,-1,-1
52,100,0.11818181818181818,616,0,55,DL_Remix_emotional_folk_Guitar,-1,-1
57,100,0.11818181818181818,646,0,55,DL_Remix_emotional_folk_Guitar,-1,-1
57,100,0.5,729,0,55,DL_Remix_emotional_folk_Guitar,-1,-1
45,100,0.3,848,0,55,DL_Remix_emotional_folk_Guitar,-1,-1
47,100,0.5590909090909091,56,1,56,DL_Remix_emotional_folk_Guitar,-1,-1
59,100,0.12272727272727273,233,0,56,DL_Remix_emotional_folk_Guitar,-1,-1
47,100,0.3181818181818182,260,0,56,DL_Remix_emotional_folk_Guitar,-1,-1
59,100,0.11818181818181818,330,0,56,DL_Remix_emotional_folk_Guitar,-1,-1
47,100,0.1409090909090909,431,0,56,DL_Remix_emotional_folk_Guitar,-1,-1
47,100,0.11818181818181818,788,1,56,DL_Remix_emotional_folk_Guitar,-1,-1
64,100,0.2818181818181818,0,1,57,DL_Remix_emotional_folk_Guitar,-1,-1
64,100,0.8,118,0,57,DL_Remix_emotional_folk_Guitar,-1,-1
52,100,0.2636363636363636,334,1,57,DL_Remix_emotional_folk_Guitar,-1,-1
52,100,0.6,405,0,57,DL_Remix_emotional_folk_Guitar,-1,-1
64,100,0.33636363636363636,611,1,57,DL_Remix_emotional_folk_Guitar,-1,-1
52,100,0.21818181818181817,721,0,57,DL_Remix_emotional_folk_Guitar,-1,-1
52,100,0.1409090909090909,796,0,57,DL_Remix_emotional_folk_Guitar,-1,-1
59,100,0.21818181818181817,75,1,58,DL_Remix_emotional_folk_Guitar,-1,-1
54,100,0.1590909090909091,298,1,58,DL_Remix_emotional_folk_Guitar,-1,-1
64,100,0.2818181818181818,386,0,58,DL_Remix_emotional_folk_Guitar,-1,-1
52,100,0.35909090909090907,483,0,58,DL_Remix_emotional_folk_Guitar,-1,-1
64,100,0.33636363636363636,678,0,58,DL_Remix_emotional_folk_Guitar,-1,-1
61,100,0.11818181818181818,813,0,58,DL_Remix_emotional_folk_Guitar,-1,-1
49,100,0.12272727272727273,839,0,58,DL_Remix_emotional_folk_Guitar,-1,-1
49,100,0.3409090909090909,118,1,59,DL_Remix_emotional_folk_Guitar,-1,-1
49,100,0.3,370,1,59,DL_Remix_emotional_folk_Guitar,-1,-1
59,100,0.4590909090909091,144,1,60,DL_Remix_emotional_folk_Guitar,-1,-1
45,100,0.2,444,1,60,DL_Remix_emotional_folk_Guitar,-1,-1
59,100,0.2590909090909091,493,0,60,DL_Remix_emotional_folk_Guitar,-1,-1
59,100,0.3,633,0,60,DL_Remix_emotional_folk_Guitar,-1,-1
64,100,0.1409090909090909,708,0,60,DL_Remix_emotional_folk_Guitar,-1,-1
40,100,0.12272727272727273,774,0,60,DL_Remix_emotional_folk_Guitar,-1,-1
64,100,0.17727272727272728,801,0,60,DL_Remix_emotional_folk_Guitar,-1,-1
52,100,0.1590909090909091,40,1,61,DL_Remix_emotional_folk_Guitar,-1,-1
40,100,0.2772727272727273,75,0,61,DL_Remix_emotional_folk_Guitar,-1,-1
47,100,0.42272727272727273,311,1,61,DL_Remix_emotional_folk_Guitar,-1,-1
61,100,0.42272727272727273,738,1,61,DL_Remix_emotional_folk_Guitar,-1,-1
57,100,0.41818181818181815,43,1,62,DL_Remix_emotional_folk_Guitar,-1,-1
61,100,0.2818181818181818,408,1,62,DL_Remix_emotional_folk_Guitar,-1,-1
64,100,0.1409090909090909,668,1,62,DL_Remix_emotional_folk_Guitar,-1,-1
57,100,0.2,788,0,62,DL_Remix_emotional_folk_Guitar,-1,-1
45,100,0.17727272727272728,853,0,62,DL_Remix_emotional_folk_Guitar,-1,-1
47,100,0.2590909090909091,325,1,63,DL_Remix_emotional_folk_Guitar,-1,-1
47,100,0.2,641,1,63,DL_Remix_emotional_folk_Guitar,-1,-1
47,100,0.8,848,1,63,DL_Remix_emotional_folk_Guitar,-1,-1
52,100,1.3227272727272728,453,1,64,DL_Remix_emotional_folk_Guitar,-1,-1
52,100,0.11818181818181818,792,1,64,DL_Remix_emotional_folk_Guitar,-1,-1
59,100,0.6227272727272727,333,1,65,DL_Remix_emotional_folk_Guitar,-1,-1
52,100,0.12272727272727273,540,1,65,DL_Remix_emotional_folk_Guitar,-1,-1
52,100,0.38181818181818183,663,0,65,DL_Remix_emotional_folk_Guitar,-1,-1
64,100,0.1590909090909091,832,0,65,DL_Remix_emotional_folk_Guitar,-1,-1
47,100,0.12272727272727273,47,1,66,DL_Remix_emotional_folk_Guitar,-1,-1
47,100,0.23636363636363636,106,0,66,DL_Remix_emotional_folk_Guitar,-1,-1
59,100,0.2818181818181818,430,1,66,DL_Remix_emotional_folk_Guitar,-1,-1
47,100,0.4409090909090909,563,0,66,DL_Remix_emotional_folk_Guitar,-1,-1
47,100,0.2,673,0,66,DL_Remix_emotional_folk_Guitar,-1,-1
47,100,0.3181818181818182,726,0,66,DL_Remix_emotional_folk_Guitar,-1,-1
47,100,0.2,870,0,66,DL_Remix_emotional_folk_Guitar,-1,-1
47,100,0.1590909090909091,106,1,67,DL_Remix_emotional_folk_Guitar,-1,-1
64,100,0.1,360,1,67,DL_Remix_emotional_folk_Guitar,-1,-1
61,100,0.3,383,0,67,DL_Remix_emotional_folk_Guitar,-1,-1
49,100,0.1409090909090909,449,0,67,DL_Remix_emotional_folk_Guitar,-1,-1
61,100,0.18181818181818182,519,0,67,DL_Remix_emotional_folk_Guitar,-1,-1
61,100,0.2818181818181818,642,0,67,DL_Remix_emotional_folk_Guitar,-1,-1
49,100,0.2,703,0,67,DL_Remix_emotional_folk_Guitar,-1,-1
49,100,0.13636363636363635,876,0,67,DL_Remix_emotional_folk_Guitar,-1,-1
49,100,0.7,360,1,68,DL_Remix_emotional_folk_Guitar,-1,-1
61,100,0.21818181818181817,612,1,68,DL_Remix_emotional_folk_Guitar,-1,-1
56,100,0.35909090909090907,844,1,68,DL_Remix_emotional_folk_Guitar,-1,-1
59,100,0.8590909090909091,110,1,69,DL_Remix_emotional_folk_Guitar,-1,-1
59,100,0.1,443,1,69,DL_Remix_emotional_folk_Guitar,-1,-1
56,100,0.12272727272727273,585,0,69,DL_Remix_emotional_folk_Guitar,-1,-1
59,100,0.8227272727272728,695,0,69,DL_Remix_emotional_folk_Guitar,-1,-1
63,100,0.21818181818181817,876,0,69,DL_Remix_emotional_folk_Guitar,-1,-1
63,100,0.12272727272727273,56,1,70,DL_Remix_emotional_folk_Guitar,-1,-1
64,100,0.17727272727272728,83,0,70,DL_Remix_emotional_folk_Guitar,-1,-1
45,100,0.11818181818181818,229,0,70,DL_Remix_emotional_folk_Guitar,-1,-1
64,100,0.42272727272727273,386,0,70,DL_Remix_emotional_folk_Guitar,-1,-1
57,100,0.11818181818181818,536,0,70,DL_Remix_emotional_folk_Guitar,-1,-1
64,100,0.8181818181818182,580,0,70,DL_Remix_emotional_folk_Guitar,-1,-1
45,100,0.2,766,0,70,DL_Remix_emotional_folk_Guitar,-1,-1
45,100,0.1,813,0,70,DL_Remix_emotional_folk_Guitar,-1,-1
45,100,0.2818181818181818,56,1,71,DL_Remix_emotional_folk_Guitar,-1,-1
57,100,0.4590909090909091,127,0,71,DL_Remix_emotional_folk_Guitar,-1,-1
40,100,0.11818181818181818,559,1,71,DL_Remix_emotional_folk_Guitar,-1,-1
40,100,0.13636363636363635,633,0,71,DL_Remix_emotional_folk_Guitar,-1,-1
64,100,0.16363636363636364,729,0,71,DL_Remix_emotional_folk_Guitar,-1,-1
40,100,0.1409090909090909,770,0,71,DL_Remix_emotional_folk_Guitar,-1,-1
64,100,0.1,832,0,71,DL_Remix_emotional_folk_Guitar,-1,-1
40,100,0.5,853,0,71,DL_Remix_emotional_folk_Guitar,-1,-1
59,100,0.2636363636363636,179,1,72,DL_Remix_emotional_folk_Guitar,-1,-1
59,100,1.1590909090909092,260,0,72,DL_Remix_emotional_folk_Guitar,-1,-1
59,100,0.43636363636363634,567,1,72,DL_Remix_emotional_folk_Guitar,-1,-1
64,100,0.1409090909090909,663,0,72,DL_Remix_emotional_folk_Guitar,-1,-1
59,100,0.21818181818181817,726,0,72,DL_Remix_emotional_folk_Guitar,-1,-1
54,100,0.41818181818181815,30,1,73,DL_Remix_emotional_folk_Guitar,-1,-1
54,100,0.2590909090909091,172,0,73,DL_Remix_emotional_folk_Guitar,-1,-1
54,100,0.1590909090909091,286,0,73,DL_Remix_emotional_folk_Guitar,-1,-1
61,100,0.17727272727272728,260,1,74,DL_Remix_emotional_folk_Guitar,-1,-1
45,100,0.11818181818181818,502,1,74,DL_Remix_emotional_folk_Guitar,-1,-1
45,100,0.11818181818181818,624,0,74,DL_Remix_emotional_folk_Guitar,-1,-1
64,100,0.1409090909090909,792,0,74,DL_Remix_emotional_folk_Guitar,-1,-1
61,100,0.21818181818181817,30,1,75,DL_Remix_emotional_folk_Guitar,-1,-1
47,100,0.16363636363636364,157,0,75,DL_Remix_emotional_folk_Guitar,-1,-1
59,100,0.17727272727272728,250,0,75,DL_Remix_emotional_folk_Guitar,-1,-1
59,100,0.11818181818181818,303,0,75,DL_Remix_emotional_folk_Guitar,-1,-1
59,100,0.38181818181818183,333,0,75,DL_Remix_emotional_folk_Guitar,-1,-1
59,100,0.2409090909090909,563,1,75,DL_Remix_emotional_folk_Guitar,-1,-1
52,100,0.1590909090909091,722,0,75,DL_Remix_emotional_folk_Guitar,-1,-1
61,100,0.12272727272727273,783,0,75,DL_Remix_emotional_folk_Guitar,-1,-1
52,100,0.1,866,0,75,DL_Remix_emotional_folk_Guitar,-1,-1
52,100,0.3,56,1,76,DL_Remix_emotional_folk_Guitar,-1,-1
57,100,0.4409090909090909,157,0,76,DL_Remix_emotional_folk_Guitar,-1,-1
57,100,0.5181818181818182,339,0,76,DL_Remix_emotional_folk_Guitar,-1,-1
52,100,0.4409090909090909,509,0,76,DL_Remix_emotional_folk_Guitar,-1,-1
52,100,0.2409090909090909,747,1,76,DL_Remix_emotional_folk_Guitar,-1,-1
64,100,0.17727272727272728,800,0,76,DL_Remix_emotional_folk_Guitar,-1,-1
64,100,1.0,849,0,76,DL_Remix_emotional_folk_Guitar,-1,-1
54,100,0.11818181818181818,193,1,77,DL_Remix_emotional_folk_Guitar,-1,-1
63,100,0.2409090909090909,255,0,77,DL_Remix_emotional_folk_Guitar,-1,-1
64,100,0.11818181818181818,480,1,77,DL_Remix_emotional_folk_Guitar,-1,-1
64,100,0.2409090909090909,585,0,77,DL_Remix_emotional_folk_Guitar,-1,-1
64,100,0.5409090909090909,690,0,77,DL_Remix_emotional_folk_Guitar,-1,-1
56,100,0.3181818181818182,150,1,78,DL_Remix_emotional_folk_Guitar,-1,-1
61,100,0.1,307,0,78,DL_Remix_emotional_folk_Guitar,-1,-1
64,100,0.23636363636363636,502,0,78,DL_Remix_emotional_folk_Guitar,-1,-1
61,100,0.11818181818181818,660,0,78,DL_Remix_emotional_folk_Guitar,-1,-1
64,100,0.2,866,1,78,DL_Remix_emotional_folk_Guitar,-1,-1
57,100,0.2772727272727273,40,1,79,DL_Remix_emotional_folk_Guitar,-1,-1
57,100,0.2590909090909091,110,0,79,DL_Remix_emotional_folk_Guitar,-1,-1
64,100,0.11818181818181818,176,0,79,DL_Remix_emotional_folk_Guitar,-1,-1
57,100,0.37727272727272726,206,0,79,DL_Remix_emotional_folk_Guitar,-1,-1
52,100,0.2409090909090909,470,1,79,DL_Remix_emotional_folk_Guitar,-1,-1
64,100,0.6590909090909091,624,0,79,DL_Remix_emotional_folk_Guitar,-1,-1
52,100,0.1,773,0,79,DL_Remix_emotional_folk_Guitar,-1,-1
64,100,0.4818181818181818,796,0,79,DL_Remix_emotional_folk_Guitar,-1,-1
47,100,0.12272727272727273,157,1,80,DL_Remix_emotional_folk_Guitar,-1,-1
47,100,0.1409090909090909,333,0,80,DL_Remix_emotional_folk_Guitar,-1,-1
64,100,0.2409090909090909,422,0,80,DL_Remix_emotional_folk_Guitar,-1,-1
64,100,0.16363636363636364,619,0,80,DL_Remix_emotional_folk_Guitar,-1,-1
49,100,0.2,686,0,80,DL_Remix_emotional_folk_Guitar,-1,-1
64,100,0.22272727272727272,760,0,80,DL_Remix_emotional_folk_Guitar,-1,-1
61,100,0.3,9,1,81,DL_Remix_emotional_folk_Guitar,-1,-1
49,100,0.7636363636363637,92,0,81,DL_Remix_emotional_folk_Guitar,-1,-1
61,100,0.2636363636363636,729,1,81,DL_Remix_emotional_folk_Guitar,-1,-1
59,100,0.12272727272727273,817,0,81,DL_Remix_emotional_folk_Guitar,-1,-1
61,100,0.12272727272727273,870,0,81,DL_Remix_emotional_folk_Guitar,-1,-1
64,100,0.13636363636363635,17,1,82,DL_Remix_emotional_folk_Guitar,-1,-1
47,100,0.1409090909090909,536,1,82,DL_Remix_emotional_folk_Guitar,-1,-1
63,100,0.38181818181818183,673,0,82,DL_Remix_emotional_folk_Guitar,-1,-1
60,100,0.1409090909090909,289,1,83,DL_Remix_emotional_folk_Guitar,-1,-1
60,100,0.32272727272727275,386,0,83,DL_Remix_emotional_folk_Guitar,-1,-1
63,100,0.1409090909090909,466,0,83,DL_Remix_emotional_folk_Guitar,-1,-1
61,100,0.6409090909090909,536,0,83,DL_Remix_emotional_folk_Guitar,-1,-1
64,100,0.1590909090909091,79,1,84,DL_Remix_emotional_folk_Guitar,-1,-1
61,100,0.22272727272727272,157,0,84,DL_Remix_emotional_folk_Guitar,-1,-1
49,100,0.17727272727272728,206,0,84,DL_Remix_emotional_folk_Guitar,-1,-1
57,100,0.6363636363636364,413,1,84,DL_Remix_emotional_folk_Guitar,-1,-1
59,100,0.11818181818181818,616,1,84,DL_Remix_emotional_folk_Guitar,-1,-1
59,100,0.18181818181818182,716,0,84,DL_Remix_emotional_folk_Guitar,-1,-1
57,100,0.3181818181818182,787,0,84,DL_Remix_emotional_folk_Guitar,-1,-1
64,100,0.8181818181818182,9,1,85,DL_Remix_emotional_folk_Guitar,-1,-1
64,100,0.1,193,0,85,DL_Remix_emotional_folk_Guitar,-1,-1
47,100,0.5636363636363636,356,0,85,DL_Remix_emotional_folk_Guitar,-1,-1
63,100,0.4409090909090909,506,0,85,DL_Remix_emotional_folk_Guitar,-1,-1
59,100,0.12272727272727273,123,1,86,DL_Remix_emotional_folk_Guitar,-1,-1
49,100,0.1590909090909091,656,1,86,DL_Remix_emotional_folk_Guitar,-1,-1
49,100,0.12272727272727273,695,0,86,DL_Remix_emotional_folk_Guitar,-1,-1
64,100,0.7636363636363637,796,0,86,DL_Remix_emotional_folk_Guitar,-1,-1
47,100,0.7,92,1,87,DL_Remix_emotional_folk_Guitar,-1,-1
59,100,0.740909090909091,246,0,87,DL_Remix_emotional_folk_Guitar,-1,-1
59,100,0.3181818181818182,493,1,87,DL_Remix_emotional_folk_Guitar,-1,-1
47,100,0.4,787,1,87,DL_Remix_emotional_folk_Guitar,-1,-1
47,100,0.2409090909090909,87,1,88,DL_Remix_emotional_folk_Guitar,-1,-1
63,100,0.1409090909090909,184,0,88,DL_Remix_emotional_folk_Guitar,-1,-1
63,100,0.35909090909090907,220,0,88,DL_Remix_emotional_folk_Guitar,-1,-1
59,100,0.7,299,0,88,DL_Remix_emotional_folk_Guitar,-1,-1
40,100,0.11818181818181818,470,0,88,DL_Remix_emotional_folk_Guitar,-1,-1
52,100,0.4818181818181818,496,0,88,DL_Remix_emotional_folk_Guitar,-1,-1
40,100,0.21818181818181817,713,1,88,DL_Remix_emotional_folk_Guitar,-1,-1
64,100,0.2,43,1,89,DL_Remix_emotional_folk_Guitar,-1,-1
40,100,0.21818181818181817,119,0,89,DL_Remix_emotional_folk_Guitar,-1,-1
64,100,0.3,237,0,89,DL_Remix_emotional_folk_Guitar,-1,-1
40,100,0.2,303,0,89,DL_Remix_emotional_folk_Guitar,-1,-1
40,100,0.16363636363636364,817,1,89,DL_Remix_emotional_folk_Guitar,-1,-1
46,100,0.4409090909090909,361,1,0,_Heartfelt_folk-pop-rock_Guitar,-1,-1
53,100,0.1,510,0,0,_Heartfelt_folk-pop-rock_Guitar,-1,-1
57,100,0.2590909090909091,612,0,0,_Heartfelt_folk-pop-rock_Guitar,-1,-1
53,100,0.4772727272727273,766,0,0,_Heartfelt_folk-pop-rock_Guitar,-1,-1
53,100,0.6227272727272727,201,1,1,_Heartfelt_folk-pop-rock_Guitar,-1,-1
53,100,0.21818181818181817,360,0,1,_Heartfelt_folk-pop-rock_Guitar,-1,-1
53,100,0.5818181818181818,510,0,1,_Heartfelt_folk-pop-rock_Guitar,-1,-1
55,100,0.2818181818181818,664,0,1,_Heartfelt_folk-pop-rock_Guitar,-1,-1
46,100,0.2409090909090909,761,0,1,_Heartfelt_folk-pop-rock_Guitar,-1,-1
53,100,0.3409090909090909,241,1,2,_Heartfelt_folk-pop-rock_Guitar,-1,-1
55,100,0.22272727272727272,409,0,2,_Heartfelt_folk-pop-rock_Guitar,-1,-1
53,100,0.22272727272727272,562,0,2,_Heartfelt_folk-pop-rock_Guitar,-1,-1
53,100,0.18181818181818182,616,0,2,_Heartfelt_folk-pop-rock_Guitar,-1,-1
53,100,0.32272727272727275,871,1,2,_Heartfelt_folk-pop-rock_Guitar,-1,-1
46,100,0.1409090909090909,110,1,3,_Heartfelt_folk-pop-rock_Guitar,-1,-1
48,100,0.4,238,0,3,_Heartfelt_folk-pop-rock_Guitar,-1,-1
57,100,0.2590909090909091,418,0,3,_Heartfelt_folk-pop-rock_Guitar,-1,-1
57,100,0.6227272727272727,642,1,3,_Heartfelt_folk-pop-rock_Guitar,-1,-1
55,100,0.2409090909090909,791,0,3,_Heartfelt_folk-pop-rock_Guitar,-1,-1
53,100,0.3409090909090909,849,0,3,_Heartfelt_folk-pop-rock_Guitar,-1,-1
55,100,0.33636363636363636,61,1,4,_Heartfelt_folk-pop-rock_Guitar,-1,-1
55,100,0.2409090909090909,383,1,4,_Heartfelt_folk-pop-rock_Guitar,-1,-1
55,100,0.3181818181818182,537,0,4,_Heartfelt_folk-pop-rock_Guitar,-1,-1
41,100,0.2,637,0,4,_Heartfelt_folk-pop-rock_Guitar,-1,-1
41,100,0.16363636363636364,708,0,4,_Heartfelt_folk-pop-rock_Guitar,-1,-1
53,100,0.12272727272727273,752,0,4,_Heartfelt_folk-pop-rock_Guitar,-1,-1
41,100,0.3,778,0,4,_Heartfelt_folk-pop-rock_Guitar,-1,-1
60,100,0.12272727272727273,849,0,4,_Heartfelt_folk-pop-rock_Guitar,-1,-1
57,100,0.12272727272727273,79,1,5,_Heartfelt_folk-pop-rock_Guitar,-1,-1
57,100,0.41818181818181815,171,0,5,_Heartfelt_folk-pop-rock_Guitar,-1,-1
55,100,0.35909090909090907,360,0,5,_Heartfelt_folk-pop-rock_Guitar,-1,-1
55,100,0.4772727272727273,480,0,5,_Heartfelt_folk-pop-rock_Guitar,-1,-1
53,100,0.759090909090909,668,0,5,_Heartfelt_folk-pop-rock_Guitar,-1,-1
53,100,0.17727272727272728,30,1,6,_Heartfelt_folk-pop-rock_Guitar,-1,-1
53,100,0.11818181818181818,74,0,6,_Heartfelt_folk-pop-rock_Guitar,-1,-1
53,100,0.16363636363636364,114,0,6,_Heartfelt_folk-pop-rock_Guitar,-1,-1
53,100,0.41818181818181815,171,0,6,_Heartfelt_folk-pop-rock_Guitar,-1,-1
53,100,0.3,268,0,6,_Heartfelt_folk-pop-rock_Guitar,-1,-1
53,100,0.1590909090909091,342,0,6,_Heartfelt_folk-pop-rock_Guitar,-1,-1
53,100,0.2,383,0,6,_Heartfelt_folk-pop-rock_Guitar,-1,-1
53,100,0.3,545,0,6,_Heartfelt_folk-pop-rock_Guitar,-1,-1
53,100,0.11818181818181818,721,0,6,_Heartfelt_folk-pop-rock_Guitar,-1,-1
57,100,0.6590909090909091,805,0,6,_Heartfelt_folk-pop-rock_Guitar,-1,-1
53,100,0.4590909090909091,470,1,7,_Heartfelt_folk-pop-rock_Guitar,-1,-1
53,100,0.22272727272727272,619,0,7,_Heartfelt_folk-pop-rock_Guitar,-1,-1
53,100,0.4772727272727273,691,0,7,_Heartfelt_folk-pop-rock_Guitar,-1,-1
53,100,0.1590909090909091,22,1,8,_Heartfelt_folk-pop-rock_Guitar,-1,-1
60,100,0.2590909090909091,206,0,8,_Heartfelt_folk-pop-rock_Guitar,-1,-1
55,100,0.17727272727272728,316,0,8,_Heartfelt_folk-pop-rock_Guitar,-1,-1
48,100,0.18181818181818182,378,0,8,_Heartfelt_folk-pop-rock_Guitar,-1,-1
55,100,0.1,501,0,8,_Heartfelt_folk-pop-rock_Guitar,-1,-1
53,100,0.1590909090909091,629,0,8,_Heartfelt_folk-pop-rock_Guitar,-1,-1
53,100,0.2590909090909091,831,1,8,_Heartfelt_folk-pop-rock_Guitar,-1,-1
53,100,0.3,22,1,9,_Heartfelt_folk-pop-rock_Guitar,-1,-1
60,100,0.3409090909090909,101,0,9,_Heartfelt_folk-pop-rock_Guitar,-1,-1
63,100,0.23636363636363636,216,0,9,_Heartfelt_folk-pop-rock_Guitar,-1,-1
53,100,0.1,364,0,9,_Heartfelt_folk-pop-rock_Guitar,-1,-1
55,100,0.17727272727272728,414,0,9,_Heartfelt_folk-pop-rock_Guitar,-1,-1
53,100,0.1409090909090909,56,1,10,_Heartfelt_folk-pop-rock_Guitar,-1,-1
53,100,0.1,92,0,10,_Heartfelt_folk-pop-rock_Guitar,-1,-1
53,100,0.22272727272727272,474,1,10,_Heartfelt_folk-pop-rock_Guitar,-1,-1
60,100,0.1,620,0,10,_Heartfelt_folk-pop-rock_Guitar,-1,-1
53,100,0.12272727272727273,386,1,11,_Heartfelt_folk-pop-rock_Guitar,-1,-1
53,100,0.12272727272727273,453,0,11,_Heartfelt_folk-pop-rock_Guitar,-1,-1
53,100,0.1409090909090909,515,0,11,_Heartfelt_folk-pop-rock_Guitar,-1,-1
58,100,0.11818181818181818,572,0,11,_Heartfelt_folk-pop-rock_Guitar,-1,-1
60,100,0.1,685,0,11,_Heartfelt_folk-pop-rock_Guitar,-1,-1
60,100,0.2772727272727273,744,0,11,_Heartfelt_folk-pop-rock_Guitar,-1,-1
55,100,0.17727272727272728,17,1,12,_Heartfelt_folk-pop-rock_Guitar,-1,-1
48,100,0.1,338,1,12,_Heartfelt_folk-pop-rock_Guitar,-1,-1
48,100,0.1590909090909091,364,0,12,_Heartfelt_folk-pop-rock_Guitar,-1,-1
46,100,0.4590909090909091,436,0,12,_Heartfelt_folk-pop-rock_Guitar,-1,-1
46,100,0.1409090909090909,629,0,12,_Heartfelt_folk-pop-rock_Guitar,-1,-1
46,100,0.35909090909090907,725,0,12,_Heartfelt_folk-pop-rock_Guitar,-1,-1
60,100,0.18181818181818182,110,1,13,_Heartfelt_folk-pop-rock_Guitar,-1,-1
46,100,0.4409090909090909,189,0,13,_Heartfelt_folk-pop-rock_Guitar,-1,-1
60,100,0.23636363636363636,414,1,13,_Heartfelt_folk-pop-rock_Guitar,-1,-1
60,100,0.4590909090909091,470,0,13,_Heartfelt_folk-pop-rock_Guitar,-1,-1
60,100,0.5409090909090909,606,0,13,_Heartfelt_folk-pop-rock_Guitar,-1,-1
55,100,0.17727272727272728,744,0,13,_Heartfelt_folk-pop-rock_Guitar,-1,-1
53,100,0.7,801,0,13,_Heartfelt_folk-pop-rock_Guitar,-1,-1
53,100,0.21818181818181817,96,1,14,_Heartfelt_folk-pop-rock_Guitar,-1,-1
53,100,0.1,158,0,14,_Heartfelt_folk-pop-rock_Guitar,-1,-1
41,100,0.1590909090909091,211,0,14,_Heartfelt_folk-pop-rock_Guitar,-1,-1
60,100,0.4,245,0,14,_Heartfelt_folk-pop-rock_Guitar,-1,-1
57,100,0.1590909090909091,431,0,14,_Heartfelt_folk-pop-rock_Guitar,-1,-1
62,100,0.3409090909090909,470,0,14,_Heartfelt_folk-pop-rock_Guitar,-1,-1
41,100,0.2,563,0,14,_Heartfelt_folk-pop-rock_Guitar,-1,-1
53,100,0.11818181818181818,713,0,14,_Heartfelt_folk-pop-rock_Guitar,-1,-1
41,100,0.12272727272727273,739,0,14,_Heartfelt_folk-pop-rock_Guitar,-1,-1
60,100,0.7,778,0,14,_Heartfelt_folk-pop-rock_Guitar,-1,-1
57,100,0.7,61,1,15,_Heartfelt_folk-pop-rock_Guitar,-1,-1
48,100,0.1590909090909091,281,1,15,_Heartfelt_folk-pop-rock_Guitar,-1,-1
48,100,0.21818181818181817,352,0,15,_Heartfelt_folk-pop-rock_Guitar,-1,-1
55,100,0.4,453,0,15,_Heartfelt_folk-pop-rock_Guitar,-1,-1
55,100,0.2772727272727273,546,0,15,_Heartfelt_folk-pop-rock_Guitar,-1,-1
60,100,0.3,651,0,15,_Heartfelt_folk-pop-rock_Guitar,-1,-1
64,100,0.2772727272727273,127,1,16,_Heartfelt_folk-pop-rock_Guitar,-1,-1
55,100,0.3,233,0,16,_Heartfelt_folk-pop-rock_Guitar,-1,-1
53,100,0.1409090909090909,364,0,16,_Heartfelt_folk-pop-rock_Guitar,-1,-1
55,100,0.2409090909090909,443,0,16,_Heartfelt_folk-pop-rock_Guitar,-1,-1
53,100,0.21818181818181817,505,0,16,_Heartfelt_folk-pop-rock_Guitar,-1,-1
62,100,0.1,584,0,16,_Heartfelt_folk-pop-rock_Guitar,-1,-1
62,100,0.3,686,0,16,_Heartfelt_folk-pop-rock_Guitar,-1,-1
57,100,0.6818181818181818,814,0,16,_Heartfelt_folk-pop-rock_Guitar,-1,-1
60,100,0.1409090909090909,312,1,17,_Heartfelt_folk-pop-rock_Guitar,-1,-1
53,100,0.1590909090909091,691,1,17,_Heartfelt_folk-pop-rock_Guitar,-1,-1
41,100,0.1,760,0,17,_Heartfelt_folk-pop-rock_Guitar,-1,-1
44,100,0.11818181818181818,61,1,18,_Heartfelt_folk-pop-rock_Guitar,-1,-1
53,100,0.1590909090909091,167,0,18,_Heartfelt_folk-pop-rock_Guitar,-1,-1
46,100,0.2,339,0,18,_Heartfelt_folk-pop-rock_Guitar,-1,-1
46,100,0.1,571,1,18,_Heartfelt_folk-pop-rock_Guitar,-1,-1
46,100,0.2,0,1,19,_Heartfelt_folk-pop-rock_Guitar,-1,-1
46,100,0.2818181818181818,131,0,19,_Heartfelt_folk-pop-rock_Guitar,-1,-1
53,100,0.1590909090909091,339,1,19,_Heartfelt_folk-pop-rock_Guitar,-1,-1
55,100,0.33636363636363636,457,0,19,_Heartfelt_folk-pop-rock_Guitar,-1,-1
53,100,0.1409090909090909,536,0,19,_Heartfelt_folk-pop-rock_Guitar,-1,-1
53,100,0.3,576,0,19,_Heartfelt_folk-pop-rock_Guitar,-1,-1
41,100,0.2590909090909091,694,0,19,_Heartfelt_folk-pop-rock_Guitar,-1,-1
53,100,0.22272727272727272,57,1,20,_Heartfelt_folk-pop-rock_Guitar,-1,-1
41,100,0.6227272727272727,277,1,20,_Heartfelt_folk-pop-rock_Guitar,-1,-1
41,100,0.9409090909090909,519,1,20,_Heartfelt_folk-pop-rock_Guitar,-1,-1
41,100,0.38181818181818183,773,1,20,_Heartfelt_folk-pop-rock_Guitar,-1,-1
48,100,0.5590909090909091,44,1,21,_Heartfelt_folk-pop-rock_Guitar,-1,-1
50,100,0.35909090909090907,866,1,21,_Heartfelt_folk-pop-rock_Guitar,-1,-1
46,100,0.7,382,1,22,_Heartfelt_folk-pop-rock_Guitar,-1,-1
45,100,0.4772727272727273,567,0,22,_Heartfelt_folk-pop-rock_Guitar,-1,-1
46,100,0.2818181818181818,739,0,22,_Heartfelt_folk-pop-rock_Guitar,-1,-1
46,100,0.23636363636363636,40,1,23,_Heartfelt_folk-pop-rock_Guitar,-1,-1
53,100,0.11818181818181818,501,1,24,_Heartfelt_folk-pop-rock_Guitar,-1,-1
53,100,0.4818181818181818,650,0,24,_Heartfelt_folk-pop-rock_Guitar,-1,-1
53,100,0.2818181818181818,770,0,24,_Heartfelt_folk-pop-rock_Guitar,-1,-1
41,100,0.1,113,1,25,_Heartfelt_folk-pop-rock_Guitar,-1,-1
53,100,0.2772727272727273,162,0,25,_Heartfelt_folk-pop-rock_Guitar,-1,-1
55,100,0.3181818181818182,260,0,25,_Heartfelt_folk-pop-rock_Guitar,-1,-1
55,100,0.22272727272727272,497,1,25,_Heartfelt_folk-pop-rock_Guitar,-1,-1
48,100,0.21818181818181817,638,0,25,_Heartfelt_folk-pop-rock_Guitar,-1,-1
55,100,0.2,712,0,25,_Heartfelt_folk-pop-rock_Guitar,-1,-1
55,100,0.2590909090909091,801,0,25,_Heartfelt_folk-pop-rock_Guitar,-1,-1
57,100,0.2,17,1,26,_Heartfelt_folk-pop-rock_Guitar,-1,-1
50,100,0.4,61,0,26,_Heartfelt_folk-pop-rock_Guitar,-1,-1
50,100,0.2590909090909091,175,0,26,_Heartfelt_folk-pop-rock_Guitar,-1,-1
50,100,0.6363636363636364,237,0,26,_Heartfelt_folk-pop-rock_Guitar,-1,-1
57,100,0.2,387,0,26,_Heartfelt_folk-pop-rock_Guitar,-1,-1
57,100,0.3409090909090909,466,0,26,_Heartfelt_folk-pop-rock_Guitar,-1,-1
57,100,0.1590909090909091,550,0,26,_Heartfelt_folk-pop-rock_Guitar,-1,-1
53,100,0.740909090909091,673,0,26,_Heartfelt_folk-pop-rock_Guitar,-1,-1
53,100,0.13636363636363635,40,1,27,_Heartfelt_folk-pop-rock_Guitar,-1,-1
53,100,0.16363636363636364,113,0,27,_Heartfelt_folk-pop-rock_Guitar,-1,-1
53,100,0.41818181818181815,154,0,27,_Heartfelt_folk-pop-rock_Guitar,-1,-1
53,100,0.6409090909090909,364,1,27,_Heartfelt_folk-pop-rock_Guitar,-1,-1
53,100,0.5181818181818182,515,0,27,_Heartfelt_folk-pop-rock_Guitar,-1,-1
53,100,0.3,642,0,27,_Heartfelt_folk-pop-rock_Guitar,-1,-1
53,100,0.1409090909090909,748,0,27,_Heartfelt_folk-pop-rock_Guitar,-1,-1
53,100,0.2,40,1,28,_Heartfelt_folk-pop-rock_Guitar,-1,-1
55,100,0.2818181818181818,113,0,28,_Heartfelt_folk-pop-rock_Guitar,-1,-1
48,100,0.2818181818181818,198,0,28,_Heartfelt_folk-pop-rock_Guitar,-1,-1
60,100,0.1590909090909091,285,0,28,_Heartfelt_folk-pop-rock_Guitar,-1,-1
60,100,0.2818181818181818,422,0,28,_Heartfelt_folk-pop-rock_Guitar,-1,-1
48,100,0.2818181818181818,484,0,28,_Heartfelt_folk-pop-rock_Guitar,-1,-1
55,100,0.35909090909090907,567,0,28,_Heartfelt_folk-pop-rock_Guitar,-1,-1
55,100,0.3409090909090909,650,0,28,_Heartfelt_folk-pop-rock_Guitar,-1,-1
50,100,0.6409090909090909,756,0,28,_Heartfelt_folk-pop-rock_Guitar,-1,-1
62,100,0.21818181818181817,17,1,29,_Heartfelt_folk-pop-rock_Guitar,-1,-1
50,100,0.5227272727272727,144,0,29,_Heartfelt_folk-pop-rock_Guitar,-1,-1
50,100,0.38181818181818183,330,0,29,_Heartfelt_folk-pop-rock_Guitar,-1,-1
53,100,0.3409090909090909,470,0,29,_Heartfelt_folk-pop-rock_Guitar,-1,-1
53,100,0.1590909090909091,571,0,29,_Heartfelt_folk-pop-rock_Guitar,-1,-1
53,100,0.2818181818181818,638,0,29,_Heartfelt_folk-pop-rock_Guitar,-1,-1
53,100,0.35909090909090907,770,0,29,_Heartfelt_folk-pop-rock_Guitar,-1,-1
53,100,0.35909090909090907,870,0,29,_Heartfelt_folk-pop-rock_Guitar,-1,-1
55,100,0.1,179,1,30,_Heartfelt_folk-pop-rock_Guitar,-1,-1
50,100,0.2818181818181818,387,1,30,_Heartfelt_folk-pop-rock_Guitar,-1,-1
53,100,0.2590909090909091,791,1,30,_Heartfelt_folk-pop-rock_Guitar,-1,-1
53,100,0.32272727272727275,3,1,31,_Heartfelt_folk-pop-rock_Guitar,-1,-1
53,100,0.3,79,0,31,_Heartfelt_folk-pop-rock_Guitar,-1,-1
41,100,0.18181818181818182,144,0,31,_Heartfelt_folk-pop-rock_Guitar,-1,-1
53,100,0.21818181818181817,198,0,31,_Heartfelt_folk-pop-rock_Guitar,-1,-1
53,100,0.759090909090909,347,0,31,_Heartfelt_folk-pop-rock_Guitar,-1,-1
55,100,0.18181818181818182,268,1,32,_Heartfelt_folk-pop-rock_Guitar,-1,-1
46,100,0.11818181818181818,338,0,32,_Heartfelt_folk-pop-rock_Guitar,-1,-1
46,100,0.2,823,1,32,_Heartfelt_folk-pop-rock_Guitar,-1,-1
50,100,0.7772727272727272,75,1,33,_Heartfelt_folk-pop-rock_Guitar,-1,-1
53,100,0.5,651,1,33,_Heartfelt_folk-pop-rock_Guitar,-1,-1
41,100,0.5590909090909091,761,0,33,_Heartfelt_folk-pop-rock_Guitar,-1,-1
53,100,0.1409090909090909,91,1,34,_Heartfelt_folk-pop-rock_Guitar,-1,-1
53,100,0.3409090909090909,211,0,34,_Heartfelt_folk-pop-rock_Guitar,-1,-1
53,100,0.23636363636363636,325,0,34,_Heartfelt_folk-pop-rock_Guitar,-1,-1
55,100,0.12272727272727273,386,0,34,_Heartfelt_folk-pop-rock_Guitar,-1,-1
48,100,0.33636363636363636,458,0,34,_Heartfelt_folk-pop-rock_Guitar,-1,-1
53,100,0.740909090909091,418,1,35,_Heartfelt_folk-pop-rock_Guitar,-1,-1
55,100,0.21818181818181817,836,1,35,_Heartfelt_folk-pop-rock_Guitar,-1,-1
50,100,0.4409090909090909,8,1,36,_Heartfelt_folk-pop-rock_Guitar,-1,-1
50,100,0.21818181818181817,131,0,36,_Heartfelt_folk-pop-rock_Guitar,-1,-1
50,100,0.11818181818181818,220,0,36,_Heartfelt_folk-pop-rock_Guitar,-1,-1
57,100,0.2636363636363636,334,0,36,_Heartfelt_folk-pop-rock_Guitar,-1,-1
53,100,0.2818181818181818,506,0,36,_Heartfelt_folk-pop-rock_Guitar,-1,-1
60,100,0.3,590,0,36,_Heartfelt_folk-pop-rock_Guitar,-1,-1
53,100,0.6181818181818182,875,1,36,_Heartfelt_folk-pop-rock_Guitar,-1,-1
60,100,0.2409090909090909,185,1,37,_Heartfelt_folk-pop-rock_Guitar,-1,-1
55,100,0.35909090909090907,286,0,37,_Heartfelt_folk-pop-rock_Guitar,-1,-1
48,100,0.4409090909090909,364,0,37,_Heartfelt_folk-pop-rock_Guitar,-1,-1
55,100,0.4,471,0,37,_Heartfelt_folk-pop-rock_Guitar,-1,-1
48,100,0.12272727272727273,563,0,37,_Heartfelt_folk-pop-rock_Guitar,-1,-1
55,100,0.43636363636363634,700,0,37,_Heartfelt_folk-pop-rock_Guitar,-1,-1
55,100,0.16363636363636364,818,0,37,_Heartfelt_folk-pop-rock_Guitar,-1,-1
55,100,0.1409090909090909,858,0,37,_Heartfelt_folk-pop-rock_Guitar,-1,-1
53,100,0.1590909090909091,56,1,38,_Heartfelt_folk-pop-rock_Guitar,-1,-1
53,100,0.2772727272727273,251,0,38,_Heartfelt_folk-pop-rock_Guitar,-1,-1
53,100,0.6,370,0,38,_Heartfelt_folk-pop-rock_Guitar,-1,-1
60,100,0.6,531,0,38,_Heartfelt_folk-pop-rock_Guitar,-1,-1
55,100,0.1409090909090909,694,0,38,_Heartfelt_folk-pop-rock_Guitar,-1,-1
50,100,0.38181818181818183,761,0,38,_Heartfelt_folk-pop-rock_Guitar,-1,-1
50,100,0.5590909090909091,61,1,39,_Heartfelt_folk-pop-rock_Guitar,-1,-1
57,100,0.32272727272727275,276,1,39,_Heartfelt_folk-pop-rock_Guitar,-1,-1
53,100,0.3,356,0,39,_Heartfelt_folk-pop-rock_Guitar,-1,-1
53,100,0.18181818181818182,431,0,39,_Heartfelt_folk-pop-rock_Guitar,-1,-1
53,100,0.11818181818181818,633,1,39,_Heartfelt_folk-pop-rock_Guitar,-1,-1
41,100,0.16363636363636364,686,0,39,_Heartfelt_folk-pop-rock_Guitar,-1,-1
53,100,0.13636363636363635,721,0,39,_Heartfelt_folk-pop-rock_Guitar,-1,-1
60,100,0.2,770,0,39,_Heartfelt_folk-pop-rock_Guitar,-1,-1
53,100,0.3409090909090909,4,1,40,_Heartfelt_folk-pop-rock_Guitar,-1,-1
55,100,0.2818181818181818,91,0,40,_Heartfelt_folk-pop-rock_Guitar,-1,-1
55,100,0.2409090909090909,273,0,40,_Heartfelt_folk-pop-rock_Guitar,-1,-1
55,100,0.3181818181818182,330,0,40,_Heartfelt_folk-pop-rock_Guitar,-1,-1
55,100,0.6409090909090909,421,0,40,_Heartfelt_folk-pop-rock_Guitar,-1,-1
55,100,0.11818181818181818,581,0,40,_Heartfelt_folk-pop-rock_Guitar,-1,-1
55,100,0.4772727272727273,700,0,40,_Heartfelt_folk-pop-rock_Guitar,-1,-1
53,100,0.1,826,0,40,_Heartfelt_folk-pop-rock_Guitar,-1,-1
55,100,0.12272727272727273,13,1,41,_Heartfelt_folk-pop-rock_Guitar,-1,-1
50,100,0.21818181818181817,603,1,41,_Heartfelt_folk-pop-rock_Guitar,-1,-1
58,100,0.18181818181818182,13,1,48,_Heartfelt_folk-pop-rock_Guitar,-1,-1
53,100,0.11818181818181818,96,0,48,_Heartfelt_folk-pop-rock_Guitar,-1,-1
46,100,0.11818181818181818,176,0,48,_Heartfelt_folk-pop-rock_Guitar,-1,-1
46,100,0.2818181818181818,399,1,48,_Heartfelt_folk-pop-rock_Guitar,-1,-1
53,100,0.11818181818181818,471,0,48,_Heartfelt_folk-pop-rock_Guitar,-1,-1
46,100,0.1590909090909091,523,0,48,_Heartfelt_folk-pop-rock_Guitar,-1,-1
53,100,0.11818181818181818,633,0,48,_Heartfelt_folk-pop-rock_Guitar,-1,-1
53,100,0.1590909090909091,105,1,49,_Heartfelt_folk-pop-rock_Guitar,-1,-1
53,100,0.1409090909090909,144,0,49,_Heartfelt_folk-pop-rock_Guitar,-1,-1
60,100,0.2409090909090909,431,1,49,_Heartfelt_folk-pop-rock_Guitar,-1,-1
64,100,0.2818181818181818,628,0,49,_Heartfelt_folk-pop-rock_Guitar,-1,-1
60,100,0.22272727272727272,431,1,50,_Heartfelt_folk-pop-rock_Guitar,-1,-1
59,100,0.17727272727272728,501,0,50,_Heartfelt_folk-pop-rock_Guitar,-1,-1
46,100,0.1590909090909091,34,1,51,_Heartfelt_folk-pop-rock_Guitar,-1,-1
53,100,0.11818181818181818,105,0,51,_Heartfelt_folk-pop-rock_Guitar,-1,-1
58,100,0.1590909090909091,131,0,51,_Heartfelt_folk-pop-rock_Guitar,-1,-1
46,100,0.32272727272727275,246,0,51,_Heartfelt_folk-pop-rock_Guitar,-1,-1
53,100,0.21818181818181817,405,0,51,_Heartfelt_folk-pop-rock_Guitar,-1,-1
53,100,0.21818181818181817,603,1,51,_Heartfelt_folk-pop-rock_Guitar,-1,-1
41,100,0.21818181818181817,810,1,51,_Heartfelt_folk-pop-rock_Guitar,-1,-1
50,100,0.11818181818181818,515,1,52,_Heartfelt_folk-pop-rock_Guitar,-1,-1
55,100,0.32272727272727275,848,1,52,_Heartfelt_folk-pop-rock_Guitar,-1,-1
55,100,0.1,276,1,53,_Heartfelt_folk-pop-rock_Guitar,-1,-1
48,100,0.4,444,0,53,_Heartfelt_folk-pop-rock_Guitar,-1,-1
53,100,0.11818181818181818,646,1,54,_Heartfelt_folk-pop-rock_Guitar,-1,-1
53,100,0.12272727272727273,761,0,54,_Heartfelt_folk-pop-rock_Guitar,-1,-1
53,100,0.5409090909090909,118,1,55,_Heartfelt_folk-pop-rock_Guitar,-1,-1
48,100,0.33636363636363636,238,0,55,_Heartfelt_folk-pop-rock_Guitar,-1,-1
48,100,0.3409090909090909,356,0,55,_Heartfelt_folk-pop-rock_Guitar,-1,-1
60,100,0.6409090909090909,453,0,55,_Heartfelt_folk-pop-rock_Guitar,-1,-1
60,100,0.1409090909090909,598,0,55,_Heartfelt_folk-pop-rock_Guitar,-1,-1
48,100,0.7,716,0,55,_Heartfelt_folk-pop-rock_Guitar,-1,-1
48,100,0.5590909090909091,8,1,56,_Heartfelt_folk-pop-rock_Guitar,-1,-1
60,100,0.7227272727272728,144,0,56,_Heartfelt_folk-pop-rock_Guitar,-1,-1
62,100,0.22272727272727272,334,0,56,_Heartfelt_folk-pop-rock_Guitar,-1,-1
55,100,0.2590909090909091,471,0,56,_Heartfelt_folk-pop-rock_Guitar,-1,-1
48,100,0.21818181818181817,528,0,56,_Heartfelt_folk-pop-rock_Guitar,-1,-1
55,100,0.4772727272727273,581,0,56,_Heartfelt_folk-pop-rock_Guitar,-1,-1
48,100,3.618181818181818,700,0,56,_Heartfelt_folk-pop-rock_Guitar,-1,-1
55,100,0.36363636363636365,619,1,57,_Heartfelt_folk-pop-rock_Guitar,-1,-1
55,100,0.3409090909090909,708,0,57,_Heartfelt_folk-pop-rock_Guitar,-1,-1
57,100,0.1590909090909091,801,0,57,_Heartfelt_folk-pop-rock_Guitar,-1,-1
50,100,1.3181818181818181,53,1,58,_Heartfelt_folk-pop-rock_Guitar,-1,-1
50,100,0.6181818181818182,348,1,58,_Heartfelt_folk-pop-rock_Guitar,-1,-1
50,100,0.18181818181818182,488,0,58,_Heartfelt_folk-pop-rock_Guitar,-1,-1
50,100,0.1590909090909091,541,0,58,_Heartfelt_folk-pop-rock_Guitar,-1,-1
48,100,0.5590909090909091,756,1,58,_Heartfelt_folk-pop-rock_Guitar,-1,-1
48,100,0.8772727272727273,8,1,59,_Heartfelt_folk-pop-rock_Guitar,-1,-1
53,100,0.759090909090909,338,1,59,_Heartfelt_folk-pop-rock_Guitar,-1,-1
48,100,0.2772727272727273,514,1,64,_Heartfelt_folk-pop-rock_Guitar,-1,-1
53,100,0.13636363636363635,40,1,65,_Heartfelt_folk-pop-rock_Guitar,-1,-1
48,100,0.3409090909090909,74,0,65,_Heartfelt_folk-pop-rock_Guitar,-1,-1
48,100,0.1409090909090909,153,0,65,_Heartfelt_folk-pop-rock_Guitar,-1,-1
53,100,0.1409090909090909,189,0,65,_Heartfelt_folk-pop-rock_Guitar,-1,-1
53,100,0.2409090909090909,267,0,65,_Heartfelt_folk-pop-rock_Guitar,-1,-1
48,100,0.2590909090909091,370,0,65,_Heartfelt_folk-pop-rock_Guitar,-1,-1
48,100,0.18181818181818182,453,0,65,_Heartfelt_folk-pop-rock_Guitar,-1,-1
53,100,0.6818181818181818,506,0,65,_Heartfelt_folk-pop-rock_Guitar,-1,-1
48,100,0.7,734,1,65,_Heartfelt_folk-pop-rock_Guitar,-1,-1
55,100,0.1409090909090909,30,1,66,_Heartfelt_folk-pop-rock_Guitar,-1,-1
48,100,0.18181818181818182,132,0,66,_Heartfelt_folk-pop-rock_Guitar,-1,-1
55,100,0.1409090909090909,179,0,66,_Heartfelt_folk-pop-rock_Guitar,-1,-1
53,100,0.3181818181818182,326,0,66,_Heartfelt_folk-pop-rock_Guitar,-1,-1
50,100,0.1409090909090909,430,0,66,_Heartfelt_folk-pop-rock_Guitar,-1,-1
62,100,0.3181818181818182,559,0,66,_Heartfelt_folk-pop-rock_Guitar,-1,-1
50,100,0.1,839,1,66,_Heartfelt_folk-pop-rock_Guitar,-1,-1
53,100,0.12272727272727273,870,0,66,_Heartfelt_folk-pop-rock_Guitar,-1,-1
53,100,0.22272727272727272,157,1,67,_Heartfelt_folk-pop-rock_Guitar,-1,-1
53,100,0.2590909090909091,299,0,67,_Heartfelt_folk-pop-rock_Guitar,-1,-1
53,100,0.18181818181818182,396,0,67,_Heartfelt_folk-pop-rock_Guitar,-1,-1
53,100,0.1409090909090909,619,1,67,_Heartfelt_folk-pop-rock_Guitar,-1,-1
60,100,0.1409090909090909,660,0,67,_Heartfelt_folk-pop-rock_Guitar,-1,-1
53,100,0.1590909090909091,695,0,67,_Heartfelt_folk-pop-rock_Guitar,-1,-1
53,100,0.18181818181818182,783,0,67,_Heartfelt_folk-pop-rock_Guitar,-1,-1
48,100,0.36363636363636365,839,0,67,_Heartfelt_folk-pop-rock_Guitar,-1,-1
53,100,0.1409090909090909,43,1,68,_Heartfelt_folk-pop-rock_Guitar,-1,-1
48,100,0.6772727272727272,184,0,68,_Heartfelt_folk-pop-rock_Guitar,-1,-1
53,100,0.3409090909090909,352,0,68,_Heartfelt_folk-pop-rock_Guitar,-1,-1
53,100,0.32272727272727275,443,0,68,_Heartfelt_folk-pop-rock_Guitar,-1,-1
55,100,0.22272727272727272,553,0,68,_Heartfelt_folk-pop-rock_Guitar,-1,-1
55,100,0.18181818181818182,673,0,68,_Heartfelt_folk-pop-rock_Guitar,-1,-1
53,100,0.2,184,1,69,_Heartfelt_folk-pop-rock_Guitar,-1,-1
60,100,0.5772727272727273,514,1,69,_Heartfelt_folk-pop-rock_Guitar,-1,-1
50,100,0.2,677,0,69,_Heartfelt_folk-pop-rock_Guitar,-1,-1
54,100,0.1,3,1,70,_Heartfelt_folk-pop-rock_Guitar,-1,-1
53,100,0.12272727272727273,26,0,70,_Heartfelt_folk-pop-rock_Guitar,-1,-1
53,100,0.11818181818181818,172,0,70,_Heartfelt_folk-pop-rock_Guitar,-1,-1
53,100,0.1590909090909091,237,0,70,_Heartfelt_folk-pop-rock_Guitar,-1,-1
53,100,0.21818181818181817,396,0,70,_Heartfelt_folk-pop-rock_Guitar,-1,-1
53,100,0.11818181818181818,480,0,70,_Heartfelt_folk-pop-rock_Guitar,-1,-1
46,100,0.1590909090909091,514,0,70,_Heartfelt_folk-pop-rock_Guitar,-1,-1
53,100,0.1,633,0,70,_Heartfelt_folk-pop-rock_Guitar,-1,-1
48,100,0.42272727272727273,695,0,70,_Heartfelt_folk-pop-rock_Guitar,-1,-1
48,100,0.23636363636363636,810,0,70,_Heartfelt_folk-pop-rock_Guitar,-1,-1
53,100,0.4409090909090909,9,1,71,_Heartfelt_folk-pop-rock_Guitar,-1,-1
48,100,0.2,106,0,71,_Heartfelt_folk-pop-rock_Guitar,-1,-1
53,100,0.5772727272727273,150,0,71,_Heartfelt_folk-pop-rock_Guitar,-1,-1
60,100,0.17727272727272728,282,0,71,_Heartfelt_folk-pop-rock_Guitar,-1,-1
53,100,0.11818181818181818,339,0,71,_Heartfelt_folk-pop-rock_Guitar,-1,-1
48,100,0.2,449,0,71,_Heartfelt_folk-pop-rock_Guitar,-1,-1
48,100,0.1,509,0,71,_Heartfelt_folk-pop-rock_Guitar,-1,-1
53,100,0.18181818181818182,619,0,71,_Heartfelt_folk-pop-rock_Guitar,-1,-1
48,100,0.23636363636363636,787,0,71,_Heartfelt_folk-pop-rock_Guitar,-1,-1
53,100,0.1590909090909091,0,1,72,_Heartfelt_folk-pop-rock_Guitar,-1,-1
62,100,0.6181818181818182,176,0,72,_Heartfelt_folk-pop-rock_Guitar,-1,-1
50,100,0.17727272727272728,360,0,72,_Heartfelt_folk-pop-rock_Guitar,-1,-1
50,100,0.2409090909090909,527,0,72,_Heartfelt_folk-pop-rock_Guitar,-1,-1
53,100,0.2409090909090909,756,1,72,_Heartfelt_folk-pop-rock_Guitar,-1,-1
53,100,0.12272727272727273,13,1,73,_Heartfelt_folk-pop-rock_Guitar,-1,-1
53,100,0.22272727272727272,113,0,73,_Heartfelt_folk-pop-rock_Guitar,-1,-1
53,100,0.1409090909090909,273,0,73,_Heartfelt_folk-pop-rock_Guitar,-1,-1
60,100,0.11818181818181818,404,0,73,_Heartfelt_folk-pop-rock_Guitar,-1,-1
60,100,0.2,440,0,73,_Heartfelt_folk-pop-rock_Guitar,-1,-1
48,100,0.21818181818181817,527,0,73,_Heartfelt_folk-pop-rock_Guitar,-1,-1
48,100,0.13636363636363635,612,0,73,_Heartfelt_folk-pop-rock_Guitar,-1,-1
53,100,0.1,650,0,73,_Heartfelt_folk-pop-rock_Guitar,-1,-1
48,100,0.1,673,0,73,_Heartfelt_folk-pop-rock_Guitar,-1,-1
53,100,0.2590909090909091,722,0,73,_Heartfelt_folk-pop-rock_Guitar,-1,-1
48,100,0.4772727272727273,779,0,73,_Heartfelt_folk-pop-rock_Guitar,-1,-1
53,100,0.1,110,1,74,_Heartfelt_folk-pop-rock_Guitar,-1,-1
53,100,0.21818181818181817,163,0,74,_Heartfelt_folk-pop-rock_Guitar,-1,-1
48,100,0.35909090909090907,540,1,74,_Heartfelt_folk-pop-rock_Guitar,-1,-1
50,100,0.3,40,1,75,_Heartfelt_folk-pop-rock_Guitar,-1,-1
50,100,0.1590909090909091,172,0,75,_Heartfelt_folk-pop-rock_Guitar,-1,-1
60,100,0.12272727272727273,356,0,75,_Heartfelt_folk-pop-rock_Guitar,-1,-1
53,100,0.1590909090909091,540,0,75,_Heartfelt_folk-pop-rock_Guitar,-1,-1
46,100,0.1590909090909091,590,0,75,_Heartfelt_folk-pop-rock_Guitar,-1,-1
58,100,0.11818181818181818,633,0,75,_Heartfelt_folk-pop-rock_Guitar,-1,-1
51,100,0.2590909090909091,647,1,0,DL_MelancholicFolk_Guitar,-1,-1
58,100,0.33636363636363636,876,1,0,DL_MelancholicFolk_Guitar,-1,-1
51,100,0.18181818181818182,189,1,1,DL_MelancholicFolk_Guitar,-1,-1
58,100,0.21818181818181817,325,0,1,DL_MelancholicFolk_Guitar,-1,-1
50,100,0.5772727272727273,392,0,1,DL_MelancholicFolk_Guitar,-1,-1
58,100,0.17727272727272728,39,1,2,DL_MelancholicFolk_Guitar,-1,-1
60,100,0.4590909090909091,83,0,2,DL_MelancholicFolk_Guitar,-1,-1
60,100,0.1590909090909091,232,0,2,DL_MelancholicFolk_Guitar,-1,-1
60,100,0.740909090909091,382,0,2,DL_MelancholicFolk_Guitar,-1,-1
63,100,0.1409090909090909,550,0,2,DL_MelancholicFolk_Guitar,-1,-1
60,100,0.2409090909090909,638,0,2,DL_MelancholicFolk_Guitar,-1,-1
60,100,0.12272727272727273,773,0,2,DL_MelancholicFolk_Guitar,-1,-1
60,100,0.2818181818181818,818,0,2,DL_MelancholicFolk_Guitar,-1,-1
60,100,0.5409090909090909,30,1,3,DL_MelancholicFolk_Guitar,-1,-1
60,100,0.21818181818181817,216,0,3,DL_MelancholicFolk_Guitar,-1,-1
63,100,0.2,268,0,3,DL_MelancholicFolk_Guitar,-1,-1
44,100,0.5409090909090909,427,0,3,DL_MelancholicFolk_Guitar,-1,-1
56,100,1.3409090909090908,553,0,3,DL_MelancholicFolk_Guitar,-1,-1
56,100,0.1409090909090909,101,1,4,DL_MelancholicFolk_Guitar,-1,-1
60,100,1.5,355,1,4,DL_MelancholicFolk_Guitar,-1,-1
58,100,0.2772727272727273,721,1,4,DL_MelancholicFolk_Guitar,-1,-1
46,100,2.2227272727272727,795,0,4,DL_MelancholicFolk_Guitar,-1,-1
46,100,0.2818181818181818,483,1,5,DL_MelancholicFolk_Guitar,-1,-1
46,100,0.1,603,0,5,DL_MelancholicFolk_Guitar,-1,-1
46,100,0.7181818181818181,700,0,5,DL_MelancholicFolk_Guitar,-1,-1
46,100,0.13636363636363635,84,1,6,DL_MelancholicFolk_Guitar,-1,-1
51,100,0.6590909090909091,153,0,6,DL_MelancholicFolk_Guitar,-1,-1
51,100,0.6409090909090909,311,0,6,DL_MelancholicFolk_Guitar,-1,-1
51,100,0.41818181818181815,616,1,6,DL_MelancholicFolk_Guitar,-1,-1
50,100,0.6409090909090909,739,0,6,DL_MelancholicFolk_Guitar,-1,-1
50,100,0.5772727272727273,18,1,7,DL_MelancholicFolk_Guitar,-1,-1
48,100,1.240909090909091,440,1,7,DL_MelancholicFolk_Guitar,-1,-1
58,100,0.6590909090909091,716,1,7,DL_MelancholicFolk_Guitar,-1,-1
58,100,0.3409090909090909,53,1,8,DL_MelancholicFolk_Guitar,-1,-1
46,100,0.6363636363636364,127,0,8,DL_MelancholicFolk_Guitar,-1,-1
46,100,0.5409090909090909,295,0,8,DL_MelancholicFolk_Guitar,-1,-1
46,100,0.1590909090909091,519,1,8,DL_MelancholicFolk_Guitar,-1,-1
46,100,0.6181818181818182,558,0,8,DL_MelancholicFolk_Guitar,-1,-1
44,100,0.5409090909090909,725,0,8,DL_MelancholicFolk_Guitar,-1,-1
44,100,0.4590909090909091,0,1,9,DL_MelancholicFolk_Guitar,-1,-1
58,100,1.2818181818181817,110,0,9,DL_MelancholicFolk_Guitar,-1,-1
51,100,0.6,409,1,9,DL_MelancholicFolk_Guitar,-1,-1
51,100,0.5636363636363636,553,0,9,DL_MelancholicFolk_Guitar,-1,-1
58,100,0.6409090909090909,685,0,9,DL_MelancholicFolk_Guitar,-1,-1
51,100,0.42272727272727273,826,0,9,DL_MelancholicFolk_Guitar,-1,-1
44,100,0.12272727272727273,123,1,10,DL_MelancholicFolk_Guitar,-1,-1
58,100,1.3409090909090908,386,1,10,DL_MelancholicFolk_Guitar,-1,-1
46,100,0.22272727272727272,685,1,10,DL_MelancholicFolk_Guitar,-1,-1
48,100,0.1,409,1,11,DL_MelancholicFolk_Guitar,-1,-1
60,100,0.3,440,0,11,DL_MelancholicFolk_Guitar,-1,-1
48,100,0.11818181818181818,524,0,11,DL_MelancholicFolk_Guitar,-1,-1
60,100,0.6772727272727272,646,0,11,DL_MelancholicFolk_Guitar,-1,-1
53,100,0.22272727272727272,871,1,11,DL_MelancholicFolk_Guitar,-1,-1
55,100,0.6590909090909091,61,1,12,DL_MelancholicFolk_Guitar,-1,-1
63,100,0.1,527,1,12,DL_MelancholicFolk_Guitar,-1,-1
63,100,0.23636363636363636,567,0,12,DL_MelancholicFolk_Guitar,-1,-1
56,100,0.2772727272727273,656,0,12,DL_MelancholicFolk_Guitar,-1,-1
56,100,0.11818181818181818,814,0,12,DL_MelancholicFolk_Guitar,-1,-1
56,100,0.3,849,0,12,DL_MelancholicFolk_Guitar,-1,-1
51,100,0.12272727272727273,180,1,13,DL_MelancholicFolk_Guitar,-1,-1
51,100,0.4,326,0,13,DL_MelancholicFolk_Guitar,-1,-1
51,100,0.42272727272727273,474,0,13,DL_MelancholicFolk_Guitar,-1,-1
63,100,0.12272727272727273,575,0,13,DL_MelancholicFolk_Guitar,-1,-1
51,100,0.5590909090909091,625,0,13,DL_MelancholicFolk_Guitar,-1,-1
48,100,0.23636363636363636,787,0,13,DL_MelancholicFolk_Guitar,-1,-1
55,100,0.18181818181818182,34,1,14,DL_MelancholicFolk_Guitar,-1,-1
60,100,0.3,216,0,14,DL_MelancholicFolk_Guitar,-1,-1
60,100,0.2818181818181818,343,0,14,DL_MelancholicFolk_Guitar,-1,-1
53,100,0.1590909090909091,524,0,14,DL_MelancholicFolk_Guitar,-1,-1
62,100,0.1590909090909091,778,1,14,DL_MelancholicFolk_Guitar,-1,-1
62,100,0.2590909090909091,826,0,14,DL_MelancholicFolk_Guitar,-1,-1
62,100,0.4818181818181818,34,1,15,DL_MelancholicFolk_Guitar,-1,-1
58,100,0.11818181818181818,175,0,15,DL_MelancholicFolk_Guitar,-1,-1
53,100,0.12272727272727273,268,0,15,DL_MelancholicFolk_Guitar,-1,-1
58,100,0.7,417,0,15,DL_MelancholicFolk_Guitar,-1,-1
58,100,0.3,594,0,15,DL_MelancholicFolk_Guitar,-1,-1
58,100,0.13636363636363635,721,0,15,DL_MelancholicFolk_Guitar,-1,-1
51,100,0.12272727272727273,862,0,15,DL_MelancholicFolk_Guitar,-1,-1
55,100,0.32272727272727275,167,1,16,DL_MelancholicFolk_Guitar,-1,-1
55,100,0.11818181818181818,360,0,16,DL_MelancholicFolk_Guitar,-1,-1
63,100,0.1409090909090909,638,1,16,DL_MelancholicFolk_Guitar,-1,-1
56,100,0.5181818181818182,725,0,16,DL_MelancholicFolk_Guitar,-1,-1
56,100,1.1772727272727272,866,0,16,DL_MelancholicFolk_Guitar,-1,-1
56,100,0.1,382,1,17,DL_MelancholicFolk_Guitar,-1,-1
56,100,0.2,536,0,17,DL_MelancholicFolk_Guitar,-1,-1
53,100,0.2818181818181818,773,1,17,DL_MelancholicFolk_Guitar,-1,-1
58,100,1.459090909090909,57,1,18,DL_MelancholicFolk_Guitar,-1,-1
46,100,0.1590909090909091,409,1,18,DL_MelancholicFolk_Guitar,-1,-1
58,100,0.3409090909090909,735,1,18,DL_MelancholicFolk_Guitar,-1,-1
58,100,0.3181818181818182,822,0,18,DL_MelancholicFolk_Guitar,-1,-1
51,100,0.18181818181818182,210,1,19,DL_MelancholicFolk_Guitar,-1,-1
51,100,0.4,260,0,19,DL_MelancholicFolk_Guitar,-1,-1
51,100,0.2409090909090909,351,0,19,DL_MelancholicFolk_Guitar,-1,-1
51,100,0.6818181818181818,488,0,19,DL_MelancholicFolk_Guitar,-1,-1
63,100,0.3,638,0,19,DL_MelancholicFolk_Guitar,-1,-1
62,100,0.1,21,1,20,DL_MelancholicFolk_Guitar,-1,-1
46,100,0.6590909090909091,216,0,20,DL_MelancholicFolk_Guitar,-1,-1
53,100,0.2,422,1,20,DL_MelancholicFolk_Guitar,-1,-1
60,100,0.2590909090909091,484,0,20,DL_MelancholicFolk_Guitar,-1,-1
60,100,0.1409090909090909,607,0,20,DL_MelancholicFolk_Guitar,-1,-1
63,100,0.21818181818181817,712,0,20,DL_MelancholicFolk_Guitar,-1,-1
55,100,0.5590909090909091,185,1,21,DL_MelancholicFolk_Guitar,-1,-1
55,100,0.5,347,0,21,DL_MelancholicFolk_Guitar,-1,-1
56,100,0.17727272727272728,853,1,21,DL_MelancholicFolk_Guitar,-1,-1
56,100,0.36363636363636365,223,1,22,DL_MelancholicFolk_Guitar,-1,-1
55,100,0.7818181818181819,430,1,22,DL_MelancholicFolk_Guitar,-1,-1
55,100,0.2818181818181818,673,1,22,DL_MelancholicFolk_Guitar,-1,-1
58,100,0.2590909090909091,814,0,22,DL_MelancholicFolk_Guitar,-1,-1
58,100,0.2590909090909091,13,1,23,DL_MelancholicFolk_Guitar,-1,-1
51,100,0.5181818181818182,162,0,23,DL_MelancholicFolk_Guitar,-1,-1
56,100,0.6818181818181818,277,0,23,DL_MelancholicFolk_Guitar,-1,-1
56,100,0.1409090909090909,484,1,23,DL_MelancholicFolk_Guitar,-1,-1
56,100,0.2,519,0,23,DL_MelancholicFolk_Guitar,-1,-1
56,100,0.2818181818181818,576,0,23,DL_MelancholicFolk_Guitar,-1,-1
53,100,0.1590909090909091,691,0,23,DL_MelancholicFolk_Guitar,-1,-1
46,100,0.17727272727272728,40,1,24,DL_MelancholicFolk_Guitar,-1,-1
58,100,0.1590909090909091,83,0,24,DL_MelancholicFolk_Guitar,-1,-1
58,100,0.6181818181818182,250,0,24,DL_MelancholicFolk_Guitar,-1,-1
51,100,0.37727272727272726,426,0,24,DL_MelancholicFolk_Guitar,-1,-1
58,100,0.11818181818181818,550,0,24,DL_MelancholicFolk_Guitar,-1,-1
51,100,1.518181818181818,590,0,24,DL_MelancholicFolk_Guitar,-1,-1
58,100,0.1409090909090909,119,1,25,DL_MelancholicFolk_Guitar,-1,-1
58,100,0.11818181818181818,285,0,25,DL_MelancholicFolk_Guitar,-1,-1
58,100,0.1590909090909091,343,0,25,DL_MelancholicFolk_Guitar,-1,-1
58,100,0.2772727272727273,391,0,25,DL_MelancholicFolk_Guitar,-1,-1
58,100,0.4409090909090909,505,0,25,DL_MelancholicFolk_Guitar,-1,-1
55,100,1.0818181818181818,717,1,25,DL_MelancholicFolk_Guitar,-1,-1
60,100,0.6590909090909091,83,1,26,DL_MelancholicFolk_Guitar,-1,-1
63,100,0.11818181818181818,326,1,26,DL_MelancholicFolk_Guitar,-1,-1
55,100,0.6409090909090909,509,0,26,DL_MelancholicFolk_Guitar,-1,-1
55,100,0.3,810,1,26,DL_MelancholicFolk_Guitar,-1,-1
56,100,0.8363636363636363,106,1,27,DL_MelancholicFolk_Guitar,-1,-1
56,100,0.759090909090909,374,1,27,DL_MelancholicFolk_Guitar,-1,-1
58,100,0.1,650,1,27,DL_MelancholicFolk_Guitar,-1,-1
46,100,0.18181818181818182,729,0,27,DL_MelancholicFolk_Guitar,-1,-1
46,100,0.5409090909090909,818,0,27,DL_MelancholicFolk_Guitar,-1,-1
46,100,0.1,193,1,28,DL_MelancholicFolk_Guitar,-1,-1
46,100,0.3,220,0,28,DL_MelancholicFolk_Guitar,-1,-1
51,100,0.9772727272727273,326,0,28,DL_MelancholicFolk_Guitar,-1,-1
51,100,0.11818181818181818,571,1,28,DL_MelancholicFolk_Guitar,-1,-1
58,100,0.3409090909090909,598,0,28,DL_MelancholicFolk_Guitar,-1,-1
51,100,0.1590909090909091,756,0,28,DL_MelancholicFolk_Guitar,-1,-1
63,100,0.2,30,1,29,DL_MelancholicFolk_Guitar,-1,-1
51,100,0.5,106,0,29,DL_MelancholicFolk_Guitar,-1,-1
63,100,0.8590909090909091,216,0,29,DL_MelancholicFolk_Guitar,-1,-1
51,100,0.6590909090909091,440,1,29,DL_MelancholicFolk_Guitar,-1,-1
63,100,0.12272727272727273,584,0,29,DL_MelancholicFolk_Guitar,-1,-1
51,100,0.6590909090909091,615,0,29,DL_MelancholicFolk_Guitar,-1,-1
51,100,0.12272727272727273,862,1,29,DL_MelancholicFolk_Guitar,-1,-1
51,100,0.5,21,1,30,DL_MelancholicFolk_Guitar,-1,-1
58,100,0.41818181818181815,193,0,30,DL_MelancholicFolk_Guitar,-1,-1
53,100,0.6409090909090909,285,0,30,DL_MelancholicFolk_Guitar,-1,-1
46,100,0.1590909090909091,571,1,30,DL_MelancholicFolk_Guitar,-1,-1
46,100,0.4,725,0,30,DL_MelancholicFolk_Guitar,-1,-1
53,100,0.16363636363636364,818,0,30,DL_MelancholicFolk_Guitar,-1,-1
55,100,0.22272727272727272,862,0,30,DL_MelancholicFolk_Guitar,-1,-1
55,100,0.1,34,1,31,DL_MelancholicFolk_Guitar,-1,-1
55,100,0.1590909090909091,106,0,31,DL_MelancholicFolk_Guitar,-1,-1
48,100,0.38181818181818183,320,1,31,DL_MelancholicFolk_Guitar,-1,-1
55,100,0.2409090909090909,673,1,31,DL_MelancholicFolk_Guitar,-1,-1
55,100,0.16363636363636364,729,0,31,DL_MelancholicFolk_Guitar,-1,-1
58,100,0.3409090909090909,21,1,32,DL_MelancholicFolk_Guitar,-1,-1
56,100,0.1590909090909091,251,1,32,DL_MelancholicFolk_Guitar,-1,-1
44,100,0.4409090909090909,444,0,32,DL_MelancholicFolk_Guitar,-1,-1
56,100,0.37727272727272726,545,0,32,DL_MelancholicFolk_Guitar,-1,-1
56,100,0.2409090909090909,761,1,32,DL_MelancholicFolk_Guitar,-1,-1
58,100,0.6818181818181818,826,0,32,DL_MelancholicFolk_Guitar,-1,-1
44,100,0.5,563,1,33,DL_MelancholicFolk_Guitar,-1,-1
44,100,0.41818181818181815,858,1,33,DL_MelancholicFolk_Guitar,-1,-1
56,100,0.18181818181818182,69,1,34,DL_MelancholicFolk_Guitar,-1,-1
53,100,0.2590909090909091,153,0,34,DL_MelancholicFolk_Guitar,-1,-1
53,100,0.5181818181818182,215,0,34,DL_MelancholicFolk_Guitar,-1,-1
53,100,0.2772727272727273,361,0,34,DL_MelancholicFolk_Guitar,-1,-1
58,100,0.5818181818181818,440,0,34,DL_MelancholicFolk_Guitar,-1,-1
46,100,0.11818181818181818,616,0,34,DL_MelancholicFolk_Guitar,-1,-1
56,100,0.5181818181818182,810,0,34,DL_MelancholicFolk_Guitar,-1,-1
51,100,0.22272727272727272,56,1,35,DL_MelancholicFolk_Guitar,-1,-1
56,100,0.11818181818181818,220,0,35,DL_MelancholicFolk_Guitar,-1,-1
56,100,0.2590909090909091,254,0,35,DL_MelancholicFolk_Guitar,-1,-1
58,100,0.5818181818181818,418,0,35,DL_MelancholicFolk_Guitar,-1,-1
58,100,0.7,761,1,35,DL_MelancholicFolk_Guitar,-1,-1
53,100,0.3,40,1,36,DL_MelancholicFolk_Guitar,-1,-1
58,100,0.1409090909090909,110,0,36,DL_MelancholicFolk_Guitar,-1,-1
53,100,0.21818181818181817,176,0,36,DL_MelancholicFolk_Guitar,-1,-1
55,100,0.5181818181818182,351,0,36,DL_MelancholicFolk_Guitar,-1,-1
55,100,0.1590909090909091,783,1,36,DL_MelancholicFolk_Guitar,-1,-1
60,100,0.9772727272727273,8,1,37,DL_MelancholicFolk_Guitar,-1,-1
60,100,0.11818181818181818,228,1,37,DL_MelancholicFolk_Guitar,-1,-1
55,100,0.12272727272727273,321,0,37,DL_MelancholicFolk_Guitar,-1,-1
53,100,1.3818181818181818,440,0,37,DL_MelancholicFolk_Guitar,-1,-1
53,100,0.1590909090909091,765,1,37,DL_MelancholicFolk_Guitar,-1,-1
53,100,0.18181818181818182,804,0,37,DL_MelancholicFolk_Guitar,-1,-1
58,100,0.2,361,1,38,DL_MelancholicFolk_Guitar,-1,-1
58,100,0.17727272727272728,536,0,38,DL_MelancholicFolk_Guitar,-1,-1
58,100,0.17727272727272728,633,0,38,DL_MelancholicFolk_Guitar,-1,-1
44,100,0.21818181818181817,735,0,38,DL_MelancholicFolk_Guitar,-1,-1
51,100,0.1409090909090909,263,1,39,DL_MelancholicFolk_Guitar,-1,-1
53,100,0.21818181818181817,348,0,39,DL_MelancholicFolk_Guitar,-1,-1
46,100,0.2590909090909091,453,0,39,DL_MelancholicFolk_Guitar,-1,-1
58,100,0.2,509,0,39,DL_MelancholicFolk_Guitar,-1,-1
53,100,0.5409090909090909,554,0,39,DL_MelancholicFolk_Guitar,-1,-1
58,100,0.5,721,0,39,DL_MelancholicFolk_Guitar,-1,-1
58,100,0.4,853,0,39,DL_MelancholicFolk_Guitar,-1,-1
51,100,0.7,75,1,40,DL_MelancholicFolk_Guitar,-1,-1
51,100,3.481818181818182,466,1,40,DL_MelancholicFolk_Guitar,-1,-1
56,100,0.4,418,1,41,DL_MelancholicFolk_Guitar,-1,-1
56,100,0.3,558,0,41,DL_MelancholicFolk_Guitar,-1,-1
58,100,0.2,655,0,41,DL_MelancholicFolk_Guitar,-1,-1
60,100,0.18181818181818182,21,1,42,DL_MelancholicFolk_Guitar,-1,-1
56,100,0.2409090909090909,641,1,42,DL_MelancholicFolk_Guitar,-1,-1
63,100,0.1590909090909091,866,1,42,DL_MelancholicFolk_Guitar,-1,-1
46,100,0.4818181818181818,69,1,43,DL_MelancholicFolk_Guitar,-1,-1
58,100,0.4590909090909091,198,0,43,DL_MelancholicFolk_Guitar,-1,-1
58,100,0.1409090909090909,581,1,43,DL_MelancholicFolk_Guitar,-1,-1
58,100,0.4590909090909091,646,0,43,DL_MelancholicFolk_Guitar,-1,-1
63,100,0.1409090909090909,866,1,43,DL_MelancholicFolk_Guitar,-1,-1
51,100,0.5636363636363636,26,1,44,DL_MelancholicFolk_Guitar,-1,-1
63,100,0.8181818181818182,150,0,44,DL_MelancholicFolk_Guitar,-1,-1
63,100,0.1590909090909091,461,1,44,DL_MelancholicFolk_Guitar,-1,-1
58,100,0.11818181818181818,528,0,44,DL_MelancholicFolk_Guitar,-1,-1
46,100,0.5590909090909091,616,0,44,DL_MelancholicFolk_Guitar,-1,-1
46,100,0.4818181818181818,770,0,44,DL_MelancholicFolk_Guitar,-1,-1
58,100,0.8363636363636363,875,0,44,DL_MelancholicFolk_Guitar,-1,-1
58,100,0.11818181818181818,228,1,45,DL_MelancholicFolk_Guitar,-1,-1
55,100,0.2,399,0,45,DL_MelancholicFolk_Guitar,-1,-1
55,100,0.2772727272727273,721,1,45,DL_MelancholicFolk_Guitar,-1,-1
55,100,0.2590909090909091,131,1,46,DL_MelancholicFolk_Guitar,-1,-1
58,100,0.16363636363636364,289,0,46,DL_MelancholicFolk_Guitar,-1,-1
58,100,0.3409090909090909,330,0,46,DL_MelancholicFolk_Guitar,-1,-1
58,100,0.3,480,0,46,DL_MelancholicFolk_Guitar,-1,-1
46,100,0.3,461,1,47,DL_MelancholicFolk_Guitar,-1,-1
58,100,0.32272727272727275,541,0,47,DL_MelancholicFolk_Guitar,-1,-1
46,100,0.4409090909090909,686,0,47,DL_MelancholicFolk_Guitar,-1,-1
58,100,0.21818181818181817,801,0,47,DL_MelancholicFolk_Guitar,-1,-1
58,100,0.11818181818181818,0,1,48,DL_MelancholicFolk_Guitar,-1,-1
51,100,0.2409090909090909,118,0,48,DL_MelancholicFolk_Guitar,-1,-1
51,100,0.35909090909090907,298,0,48,DL_MelancholicFolk_Guitar,-1,-1
51,100,0.2818181818181818,440,0,48,DL_MelancholicFolk_Guitar,-1,-1
51,100,0.2409090909090909,606,0,48,DL_MelancholicFolk_Guitar,-1,-1
63,100,0.3409090909090909,660,0,48,DL_MelancholicFolk_Guitar,-1,-1
55,100,0.11818181818181818,66,1,49,DL_MelancholicFolk_Guitar,-1,-1
56,100,0.5181818181818182,241,0,49,DL_MelancholicFolk_Guitar,-1,-1
56,100,0.4,509,1,49,DL_MelancholicFolk_Guitar,-1,-1
56,100,0.2409090909090909,646,0,49,DL_MelancholicFolk_Guitar,-1,-1
58,100,1.1636363636363636,818,0,49,DL_MelancholicFolk_Guitar,-1,-1
58,100,0.38181818181818183,201,1,50,DL_MelancholicFolk_Guitar,-1,-1
58,100,0.740909090909091,295,0,50,DL_MelancholicFolk_Guitar,-1,-1
53,100,0.33636363636363636,105,1,51,DL_MelancholicFolk_Guitar,-1,-1
55,100,0.1590909090909091,185,0,51,DL_MelancholicFolk_Guitar,-1,-1
58,100,0.1409090909090909,405,1,52,DL_MelancholicFolk_Guitar,-1,-1
46,100,0.4590909090909091,496,0,52,DL_MelancholicFolk_Guitar,-1,-1
46,100,0.1,691,0,52,DL_MelancholicFolk_Guitar,-1,-1
58,100,1.1409090909090909,761,0,52,DL_MelancholicFolk_Guitar,-1,-1
51,100,0.1409090909090909,246,1,53,DL_MelancholicFolk_Guitar,-1,-1
51,100,0.1590909090909091,364,0,53,DL_MelancholicFolk_Guitar,-1,-1
51,100,0.5409090909090909,866,1,53,DL_MelancholicFolk_Guitar,-1,-1
58,100,0.21818181818181817,141,1,54,DL_MelancholicFolk_Guitar,-1,-1
51,100,0.11818181818181818,238,0,54,DL_MelancholicFolk_Guitar,-1,-1
58,100,0.4772727272727273,273,0,54,DL_MelancholicFolk_Guitar,-1,-1
53,100,0.18181818181818182,48,1,55,DL_MelancholicFolk_Guitar,-1,-1
58,100,1.3,105,0,55,DL_MelancholicFolk_Guitar,-1,-1
58,100,0.6818181818181818,396,1,55,DL_MelancholicFolk_Guitar,-1,-1
58,100,0.18181818181818182,563,0,55,DL_MelancholicFolk_Guitar,-1,-1
55,100,0.4590909090909091,673,0,55,DL_MelancholicFolk_Guitar,-1,-1
53,100,0.2590909090909091,303,1,56,DL_MelancholicFolk_Guitar,-1,-1
60,100,0.11818181818181818,383,0,56,DL_MelancholicFolk_Guitar,-1,-1
55,100,0.2,458,0,56,DL_MelancholicFolk_Guitar,-1,-1
55,100,0.22272727272727272,694,1,56,DL_MelancholicFolk_Guitar,-1,-1
53,100,0.2636363636363636,861,0,56,DL_MelancholicFolk_Guitar,-1,-1
53,100,0.5,215,1,57,DL_MelancholicFolk_Guitar,-1,-1
53,100,0.8772727272727273,348,0,57,DL_MelancholicFolk_Guitar,-1,-1
53,100,0.21818181818181817,788,1,57,DL_MelancholicFolk_Guitar,-1,-1
53,100,0.21818181818181817,858,0,57,DL_MelancholicFolk_Guitar,-1,-1
53,100,0.1590909090909091,40,1,58,DL_MelancholicFolk_Guitar,-1,-1
58,100,1.0636363636363637,334,1,58,DL_MelancholicFolk_Guitar,-1,-1
46,100,0.9181818181818182,568,1,58,DL_MelancholicFolk_Guitar,-1,-1
46,100,2.659090909090909,83,1,59,DL_MelancholicFolk_Guitar,-1,-1
46,100,0.11818181818181818,691,1,59,DL_MelancholicFolk_Guitar,-1,-1
46,100,0.1409090909090909,26,1,60,DL_MelancholicFolk_Guitar,-1,-1
51,100,0.18181818181818182,188,0,60,DL_MelancholicFolk_Guitar,-1,-1
58,100,0.13636363636363635,238,0,60,DL_MelancholicFolk_Guitar,-1,-1
63,100,0.36363636363636365,311,0,60,DL_MelancholicFolk_Guitar,-1,-1
51,100,0.2590909090909091,391,0,60,DL_MelancholicFolk_Guitar,-1,-1
63,100,0.5,458,0,60,DL_MelancholicFolk_Guitar,-1,-1
51,100,1.0,576,0,60,DL_MelancholicFolk_Guitar,-1,-1
51,100,0.1409090909090909,823,1,60,DL_MelancholicFolk_Guitar,-1,-1
58,100,1.2636363636363637,861,0,60,DL_MelancholicFolk_Guitar,-1,-1
58,100,0.5,334,1,61,DL_MelancholicFolk_Guitar,-1,-1
55,100,0.2409090909090909,691,1,61,DL_MelancholicFolk_Guitar,-1,-1
55,100,0.11818181818181818,778,0,61,DL_MelancholicFolk_Guitar,-1,-1
58,100,0.5227272727272727,871,0,61,DL_MelancholicFolk_Guitar,-1,-1
43,100,0.21818181818181817,611,1,62,DL_MelancholicFolk_Guitar,-1,-1
58,100,0.6227272727272727,686,0,62,DL_MelancholicFolk_Guitar,-1,-1
51,100,0.43636363636363634,853,0,62,DL_MelancholicFolk_Guitar,-1,-1
51,100,0.18181818181818182,91,1,63,DL_MelancholicFolk_Guitar,-1,-1
51,100,0.4409090909090909,273,0,63,DL_MelancholicFolk_Guitar,-1,-1
51,100,0.1,373,0,63,DL_MelancholicFolk_Guitar,-1,-1
51,100,0.13636363636363635,413,0,63,DL_MelancholicFolk_Guitar,-1,-1
58,100,0.2409090909090909,461,0,63,DL_MelancholicFolk_Guitar,-1,-1
63,100,0.2409090909090909,531,0,63,DL_MelancholicFolk_Guitar,-1,-1
63,100,0.1590909090909091,638,0,63,DL_MelancholicFolk_Guitar,-1,-1
63,100,0.5181818181818182,681,0,63,DL_MelancholicFolk_Guitar,-1,-1
51,100,0.9181818181818182,801,0,63,DL_MelancholicFolk_Guitar,-1,-1
58,100,0.3,140,1,64,DL_MelancholicFolk_Guitar,-1,-1
51,100,0.1409090909090909,289,0,64,DL_MelancholicFolk_Guitar,-1,-1
51,100,0.5818181818181818,365,0,64,DL_MelancholicFolk_Guitar,-1,-1
44,100,0.11818181818181818,523,0,64,DL_MelancholicFolk_Guitar,-1,-1
56,100,0.2772727272727273,559,0,64,DL_MelancholicFolk_Guitar,-1,-1
46,100,0.38181818181818183,839,1,64,DL_MelancholicFolk_Guitar,-1,-1
46,100,0.1,83,1,65,DL_MelancholicFolk_Guitar,-1,-1
46,100,0.18181818181818182,145,0,65,DL_MelancholicFolk_Guitar,-1,-1
58,100,0.7227272727272728,189,0,65,DL_MelancholicFolk_Guitar,-1,-1
56,100,0.2,580,1,65,DL_MelancholicFolk_Guitar,-1,-1
56,100,0.21818181818181817,633,0,65,DL_MelancholicFolk_Guitar,-1,-1
56,100,0.1409090909090909,686,0,65,DL_MelancholicFolk_Guitar,-1,-1
51,100,0.12272727272727273,773,0,65,DL_MelancholicFolk_Guitar,-1,-1
56,100,0.37727272727272726,30,1,66,DL_MelancholicFolk_Guitar,-1,-1
46,100,0.1590909090909091,242,1,66,DL_MelancholicFolk_Guitar,-1,-1
58,100,0.1590909090909091,276,0,66,DL_MelancholicFolk_Guitar,-1,-1
53,100,0.11818181818181818,483,1,66,DL_MelancholicFolk_Guitar,-1,-1
58,100,1.0,509,0,66,DL_MelancholicFolk_Guitar,-1,-1
55,100,1.240909090909091,747,1,66,DL_MelancholicFolk_Guitar,-1,-1
55,100,0.12272727272727273,157,1,67,DL_MelancholicFolk_Guitar,-1,-1
55,100,0.21818181818181817,216,0,67,DL_MelancholicFolk_Guitar,-1,-1
55,100,0.3,326,0,67,DL_MelancholicFolk_Guitar,-1,-1
55,100,0.12272727272727273,409,0,67,DL_MelancholicFolk_Guitar,-1,-1
58,100,0.2,650,1,67,DL_MelancholicFolk_Guitar,-1,-1
58,100,0.3,62,1,68,DL_MelancholicFolk_Guitar,-1,-1
56,100,0.22272727272727272,145,0,68,DL_MelancholicFolk_Guitar,-1,-1
56,100,0.12272727272727273,255,0,68,DL_MelancholicFolk_Guitar,-1,-1
56,100,0.4,320,0,68,DL_MelancholicFolk_Guitar,-1,-1
56,100,0.2,506,0,68,DL_MelancholicFolk_Guitar,-1,-1
63,100,0.1590909090909091,590,0,68,DL_MelancholicFolk_Guitar,-1,-1
58,100,0.22272727272727272,650,0,68,DL_MelancholicFolk_Guitar,-1,-1
58,100,0.7,703,0,68,DL_MelancholicFolk_Guitar,-1,-1
46,100,0.17727272727272728,9,1,69,DL_MelancholicFolk_Guitar,-1,-1
46,100,0.2772727272727273,53,0,69,DL_MelancholicFolk_Guitar,-1,-1
58,100,0.3181818181818182,184,0,69,DL_MelancholicFolk_Guitar,-1,-1
58,100,0.5772727272727273,273,0,69,DL_MelancholicFolk_Guitar,-1,-1
51,100,0.6818181818181818,422,0,69,DL_MelancholicFolk_Guitar,-1,-1
63,100,0.21818181818181817,572,0,69,DL_MelancholicFolk_Guitar,-1,-1
51,100,0.1590909090909091,650,0,69,DL_MelancholicFolk_Guitar,-1,-1
51,100,0.6,703,0,69,DL_MelancholicFolk_Guitar,-1,-1
58,100,0.18181818181818182,849,0,69,DL_MelancholicFolk_Guitar,-1,-1
63,100,0.1,83,1,70,DL_MelancholicFolk_Guitar,-1,-1
58,100,0.11818181818181818,140,0,70,DL_MelancholicFolk_Guitar,-1,-1
58,100,0.23636363636363636,237,0,70,DL_MelancholicFolk_Guitar,-1,-1
51,100,1.2818181818181817,343,0,70,DL_MelancholicFolk_Guitar,-1,-1
51,100,0.5590909090909091,734,1,70,DL_MelancholicFolk_Guitar,-1,-1
51,100,0.1409090909090909,866,0,70,DL_MelancholicFolk_Guitar,-1,-1
63,100,0.35909090909090907,206,1,71,DL_MelancholicFolk_Guitar,-1,-1
51,100,0.2772727272727273,303,1,76,DL_MelancholicFolk_Guitar,-1,-1
56,100,0.2636363636363636,422,0,76,DL_MelancholicFolk_Guitar,-1,-1
53,100,0.16363636363636364,509,0,76,DL_MelancholicFolk_Guitar,-1,-1
58,100,0.3409090909090909,553,0,76,DL_MelancholicFolk_Guitar,-1,-1
58,100,0.37727272727272726,669,0,76,DL_MelancholicFolk_Guitar,-1,-1
58,100,1.018181818181818,756,0,76,DL_MelancholicFolk_Guitar,-1,-1
58,100,0.2409090909090909,110,1,77,DL_MelancholicFolk_Guitar,-1,-1
58,100,0.18181818181818182,176,0,77,DL_MelancholicFolk_Guitar,-1,-1
55,100,1.0636363636363637,289,0,77,DL_MelancholicFolk_Guitar,-1,-1
58,100,0.4772727272727273,656,1,77,DL_MelancholicFolk_Guitar,-1,-1
55,100,0.16363636363636364,246,1,78,DL_MelancholicFolk_Guitar,-1,-1
55,100,0.3409090909090909,360,0,78,DL_MelancholicFolk_Guitar,-1,-1
56,100,0.5227272727272727,519,0,78,DL_MelancholicFolk_Guitar,-1,-1
63,100,0.1590909090909091,660,0,78,DL_MelancholicFolk_Guitar,-1,-1
55,100,0.32272727272727275,365,1,79,DL_MelancholicFolk_Guitar,-1,-1
55,100,0.21818181818181817,440,0,79,DL_MelancholicFolk_Guitar,-1,-1
55,100,0.2,509,0,79,DL_MelancholicFolk_Guitar,-1,-1
44,100,0.2,844,1,79,DL_MelancholicFolk_Guitar,-1,-1
63,100,0.32272727272727275,26,1,80,DL_MelancholicFolk_Guitar,-1,-1
63,100,0.1409090909090909,153,0,80,DL_MelancholicFolk_Guitar,-1,-1
51,100,0.1409090909090909,330,0,80,DL_MelancholicFolk_Guitar,-1,-1
63,100,0.22272727272727272,365,0,80,DL_MelancholicFolk_Guitar,-1,-1
51,100,0.17727272727272728,413,0,80,DL_MelancholicFolk_Guitar,-1,-1
58,100,1.0,475,0,80,DL_MelancholicFolk_Guitar,-1,-1
53,100,0.2409090909090909,703,1,80,DL_MelancholicFolk_Guitar,-1,-1
53,100,0.8590909090909091,766,0,80,DL_MelancholicFolk_Guitar,-1,-1
53,100,0.18181818181818182,79,1,81,DL_MelancholicFolk_Guitar,-1,-1
60,100,0.11818181818181818,193,0,81,DL_MelancholicFolk_Guitar,-1,-1
60,100,0.5363636363636364,303,0,81,DL_MelancholicFolk_Guitar,-1,-1
60,100,0.13636363636363635,436,0,81,DL_MelancholicFolk_Guitar,-1,-1
55,100,0.4409090909090909,475,0,81,DL_MelancholicFolk_Guitar,-1,-1
60,100,0.4,603,0,81,DL_MelancholicFolk_Guitar,-1,-1
51,100,0.2,770,0,81,DL_MelancholicFolk_Guitar,-1,-1
56,100,0.1,857,0,81,DL_MelancholicFolk_Guitar,-1,-1
51,100,0.4772727272727273,193,1,82,DL_MelancholicFolk_Guitar,-1,-1
46,100,0.1,457,1,82,DL_MelancholicFolk_Guitar,-1,-1
58,100,0.33636363636363636,480,0,82,DL_MelancholicFolk_Guitar,-1,-1
58,100,0.8,590,0,82,DL_MelancholicFolk_Guitar,-1,-1
58,100,0.6181818181818182,832,1,82,DL_MelancholicFolk_Guitar,-1,-1
63,100,0.11818181818181818,140,1,83,DL_MelancholicFolk_Guitar,-1,-1
51,100,0.4590909090909091,166,0,83,DL_MelancholicFolk_Guitar,-1,-1
58,100,0.11818181818181818,307,0,83,DL_MelancholicFolk_Guitar,-1,-1
58,100,0.2772727272727273,339,0,83,DL_MelancholicFolk_Guitar,-1,-1
62,100,0.6409090909090909,426,0,83,DL_MelancholicFolk_Guitar,-1,-1
62,100,0.2,572,0,83,DL_MelancholicFolk_Guitar,-1,-1
58,100,0.2409090909090909,650,0,83,DL_MelancholicFolk_Guitar,-1,-1
60,100,0.11818181818181818,787,0,83,DL_MelancholicFolk_Guitar,-1,-1
48,100,0.1,0,1,84,DL_MelancholicFolk_Guitar,-1,-1
60,100,0.37727272727272726,184,0,84,DL_MelancholicFolk_Guitar,-1,-1
60,100,0.3,273,0,84,DL_MelancholicFolk_Guitar,-1,-1
60,100,0.2,343,0,84,DL_MelancholicFolk_Guitar,-1,-1
63,100,0.1590909090909091,519,0,84,DL_MelancholicFolk_Guitar,-1,-1
56,100,0.22272727272727272,563,0,84,DL_MelancholicFolk_Guitar,-1,-1
51,100,0.1409090909090909,707,0,84,DL_MelancholicFolk_Guitar,-1,-1
51,100,0.1590909090909091,743,0,84,DL_MelancholicFolk_Guitar,-1,-1
56,100,1.3409090909090908,823,0,84,DL_MelancholicFolk_Guitar,-1,-1
56,100,0.11818181818181818,392,1,85,DL_MelancholicFolk_Guitar,-1,-1
56,100,0.1,576,0,85,DL_MelancholicFolk_Guitar,-1,-1
58,100,0.1590909090909091,616,0,85,DL_MelancholicFolk_Guitar,-1,-1
60,100,0.18181818181818182,773,0,85,DL_MelancholicFolk_Guitar,-1,-1
53,100,0.11818181818181818,823,0,85,DL_MelancholicFolk_Guitar,-1,-1
53,100,0.17727272727272728,30,1,86,DL_MelancholicFolk_Guitar,-1,-1
53,100,0.1590909090909091,189,0,86,DL_MelancholicFolk_Guitar,-1,-1
58,100,0.4772727272727273,229,0,86,DL_MelancholicFolk_Guitar,-1,-1
60,100,0.38181818181818183,409,0,86,DL_MelancholicFolk_Guitar,-1,-1
60,100,0.2,519,0,86,DL_MelancholicFolk_Guitar,-1,-1
60,100,0.1,567,0,86,DL_MelancholicFolk_Guitar,-1,-1
60,100,0.8,752,0,86,DL_MelancholicFolk_Guitar,-1,-1
56,100,0.5409090909090909,69,1,87,DL_MelancholicFolk_Guitar,-1,-1
44,100,0.23636363636363636,260,0,87,DL_MelancholicFolk_Guitar,-1,-1
51,100,0.17727272727272728,426,0,87,DL_MelancholicFolk_Guitar,-1,-1
58,100,1.259090909090909,637,1,87,DL_MelancholicFolk_Guitar,-1,-1
58,100,0.1590909090909091,53,1,88,DL_MelancholicFolk_Guitar,-1,-1
58,100,0.7,100,0,88,DL_MelancholicFolk_Guitar,-1,-1
63,100,0.11818181818181818,330,1,88,DL_MelancholicFolk_Guitar,-1,-1
63,100,0.6,453,0,88,DL_MelancholicFolk_Guitar,-1,-1
62,100,0.3181818181818182,612,0,88,DL_MelancholicFolk_Guitar,-1,-1
62,100,0.13636363636363635,722,0,88,DL_MelancholicFolk_Guitar,-1,-1
60,100,0.5409090909090909,30,1,89,DL_MelancholicFolk_Guitar,-1,-1
60,100,0.17727272727272728,493,1,89,DL_MelancholicFolk_Guitar,-1,-1
51,100,0.2409090909090909,74,1,90,DL_MelancholicFolk_Guitar,-1,-1
58,100,1.6409090909090909,299,1,90,DL_MelancholicFolk_Guitar,-1,-1
58,100,0.11818181818181818,677,1,90,DL_MelancholicFolk_Guitar,-1,-1
51,100,0.13636363636363635,40,1,91,DL_MelancholicFolk_Guitar,-1,-1
51,100,0.11818181818181818,326,1,91,DL_MelancholicFolk_Guitar,-1,-1
53,100,0.2818181818181818,510,1,0,DL_heartfullpop_2_Guitar,-1,-1
41,100,0.11818181818181818,647,0,0,DL_heartfullpop_2_Guitar,-1,-1
60,100,0.1409090909090909,673,0,0,DL_heartfullpop_2_Guitar,-1,-1
60,100,0.16363636363636364,708,0,0,DL_heartfullpop_2_Guitar,-1,-1
60,100,0.2,748,0,0,DL_heartfullpop_2_Guitar,-1,-1
60,100,0.1,801,0,0,DL_heartfullpop_2_Guitar,-1,-1
41,100,0.18181818181818182,35,1,1,DL_heartfullpop_2_Guitar,-1,-1
60,100,0.1590909090909091,343,1,1,DL_heartfullpop_2_Guitar,-1,-1
48,100,0.2409090909090909,475,0,1,DL_heartfullpop_2_Guitar,-1,-1
60,100,0.3,695,1,1,DL_heartfullpop_2_Guitar,-1,-1
53,100,0.16363636363636364,796,0,1,DL_heartfullpop_2_Guitar,-1,-1
48,100,0.22272727272727272,871,0,1,DL_heartfullpop_2_Guitar,-1,-1
41,100,0.12272727272727273,70,1,2,DL_heartfullpop_2_Guitar,-1,-1
60,100,0.21818181818181817,106,0,2,DL_heartfullpop_2_Guitar,-1,-1
41,100,0.1590909090909091,189,0,2,DL_heartfullpop_2_Guitar,-1,-1
41,100,0.11818181818181818,528,1,2,DL_heartfullpop_2_Guitar,-1,-1
41,100,0.1409090909090909,581,0,2,DL_heartfullpop_2_Guitar,-1,-1
60,100,0.3409090909090909,616,0,2,DL_heartfullpop_2_Guitar,-1,-1
53,100,0.12272727272727273,694,0,2,DL_heartfullpop_2_Guitar,-1,-1
60,100,0.3,761,0,2,DL_heartfullpop_2_Guitar,-1,-1
50,100,0.16363636363636364,223,1,3,DL_heartfullpop_2_Guitar,-1,-1
50,100,0.2,449,1,3,DL_heartfullpop_2_Guitar,-1,-1
50,100,0.2409090909090909,660,1,3,DL_heartfullpop_2_Guitar,-1,-1
50,100,0.4590909090909091,228,1,4,DL_heartfullpop_2_Guitar,-1,-1
50,100,0.3181818181818182,348,0,4,DL_heartfullpop_2_Guitar,-1,-1
50,100,0.1,585,1,4,DL_heartfullpop_2_Guitar,-1,-1
53,100,0.13636363636363635,875,1,4,DL_heartfullpop_2_Guitar,-1,-1
50,100,0.2818181818181818,122,1,5,DL_heartfullpop_2_Guitar,-1,-1
58,100,0.2,391,1,5,DL_heartfullpop_2_Guitar,-1,-1
46,100,0.35909090909090907,493,0,5,DL_heartfullpop_2_Guitar,-1,-1
53,100,0.1590909090909091,721,1,5,DL_heartfullpop_2_Guitar,-1,-1
53,100,0.4409090909090909,770,0,5,DL_heartfullpop_2_Guitar,-1,-1
46,100,0.1,0,1,6,DL_heartfullpop_2_Guitar,-1,-1
53,100,0.1590909090909091,150,0,6,DL_heartfullpop_2_Guitar,-1,-1
53,100,0.17727272727272728,545,1,6,DL_heartfullpop_2_Guitar,-1,-1
53,100,0.12272727272727273,598,0,6,DL_heartfullpop_2_Guitar,-1,-1
53,100,0.11818181818181818,721,0,6,DL_heartfullpop_2_Guitar,-1,-1
53,100,0.11818181818181818,801,0,6,DL_heartfullpop_2_Guitar,-1,-1
46,100,0.12272727272727273,399,1,7,DL_heartfullpop_2_Guitar,-1,-1
53,100,0.38181818181818183,506,0,7,DL_heartfullpop_2_Guitar,-1,-1
50,100,0.1,163,1,8,DL_heartfullpop_2_Guitar,-1,-1
50,100,0.1409090909090909,343,0,8,DL_heartfullpop_2_Guitar,-1,-1
50,100,0.23636363636363636,414,0,8,DL_heartfullpop_2_Guitar,-1,-1
50,100,0.1,691,1,8,DL_heartfullpop_2_Guitar,-1,-1
50,100,0.2818181818181818,25,1,9,DL_heartfullpop_2_Guitar,-1,-1
50,100,0.2,113,0,9,DL_heartfullpop_2_Guitar,-1,-1
50,100,0.1409090909090909,321,1,9,DL_heartfullpop_2_Guitar,-1,-1
50,100,0.8,369,0,9,DL_heartfullpop_2_Guitar,-1,-1
50,100,0.42272727272727273,629,1,9,DL_heartfullpop_2_Guitar,-1,-1
53,100,0.3409090909090909,13,1,10,DL_heartfullpop_2_Guitar,-1,-1
53,100,0.4,118,0,10,DL_heartfullpop_2_Guitar,-1,-1
60,100,0.4772727272727273,216,0,10,DL_heartfullpop_2_Guitar,-1,-1
60,100,0.5590909090909091,391,0,10,DL_heartfullpop_2_Guitar,-1,-1
53,100,0.23636363636363636,524,0,10,DL_heartfullpop_2_Guitar,-1,-1
60,100,0.5409090909090909,584,0,10,DL_heartfullpop_2_Guitar,-1,-1
53,100,0.3,756,0,10,DL_heartfullpop_2_Guitar,-1,-1
53,100,0.2772727272727273,17,1,11,DL_heartfullpop_2_Guitar,-1,-1
53,100,0.12272727272727273,113,0,11,DL_heartfullpop_2_Guitar,-1,-1
53,100,0.3181818181818182,149,0,11,DL_heartfullpop_2_Guitar,-1,-1
60,100,0.5363636363636364,281,0,11,DL_heartfullpop_2_Guitar,-1,-1
60,100,0.1,422,0,11,DL_heartfullpop_2_Guitar,-1,-1
57,100,0.5,61,1,12,DL_heartfullpop_2_Guitar,-1,-1
62,100,0.2,206,0,12,DL_heartfullpop_2_Guitar,-1,-1
61,100,0.1409090909090909,250,0,12,DL_heartfullpop_2_Guitar,-1,-1
53,100,0.3181818181818182,307,0,12,DL_heartfullpop_2_Guitar,-1,-1
58,100,0.5181818181818182,594,1,12,DL_heartfullpop_2_Guitar,-1,-1
58,100,0.2409090909090909,233,1,13,DL_heartfullpop_2_Guitar,-1,-1
53,100,0.21818181818181817,589,1,13,DL_heartfullpop_2_Guitar,-1,-1
48,100,2.7181818181818183,637,0,13,DL_heartfullpop_2_Guitar,-1,-1
48,100,0.6818181818181818,496,1,14,DL_heartfullpop_2_Guitar,-1,-1
53,100,0.22272727272727272,708,1,14,DL_heartfullpop_2_Guitar,-1,-1
60,100,0.2409090909090909,773,0,14,DL_heartfullpop_2_Guitar,-1,-1
60,100,0.23636363636363636,831,0,14,DL_heartfullpop_2_Guitar,-1,-1
41,100,0.2,8,1,15,DL_heartfullpop_2_Guitar,-1,-1
53,100,0.2409090909090909,70,0,15,DL_heartfullpop_2_Guitar,-1,-1
53,100,0.42272727272727273,158,0,15,DL_heartfullpop_2_Guitar,-1,-1
53,100,0.35909090909090907,254,0,15,DL_heartfullpop_2_Guitar,-1,-1
53,100,0.35909090909090907,391,0,15,DL_heartfullpop_2_Guitar,-1,-1
60,100,0.33636363636363636,656,1,15,DL_heartfullpop_2_Guitar,-1,-1
60,100,0.11818181818181818,756,0,15,DL_heartfullpop_2_Guitar,-1,-1
60,100,0.1,840,0,15,DL_heartfullpop_2_Guitar,-1,-1
60,100,0.1409090909090909,866,0,15,DL_heartfullpop_2_Guitar,-1,-1
53,100,0.22272727272727272,26,1,16,DL_heartfullpop_2_Guitar,-1,-1
60,100,0.12272727272727273,92,0,16,DL_heartfullpop_2_Guitar,-1,-1
41,100,0.2,167,0,16,DL_heartfullpop_2_Guitar,-1,-1
60,100,0.2590909090909091,220,0,16,DL_heartfullpop_2_Guitar,-1,-1
60,100,0.18181818181818182,308,0,16,DL_heartfullpop_2_Guitar,-1,-1
53,100,0.21818181818181817,347,0,16,DL_heartfullpop_2_Guitar,-1,-1
41,100,0.1590909090909091,440,0,16,DL_heartfullpop_2_Guitar,-1,-1
60,100,0.17727272727272728,501,0,16,DL_heartfullpop_2_Guitar,-1,-1
53,100,0.35909090909090907,540,0,16,DL_heartfullpop_2_Guitar,-1,-1
41,100,0.11818181818181818,625,0,16,DL_heartfullpop_2_Guitar,-1,-1
53,100,0.4,669,0,16,DL_heartfullpop_2_Guitar,-1,-1
53,100,0.11818181818181818,9,1,17,DL_heartfullpop_2_Guitar,-1,-1
53,100,0.4590909090909091,57,0,17,DL_heartfullpop_2_Guitar,-1,-1
62,100,0.1409090909090909,175,0,17,DL_heartfullpop_2_Guitar,-1,-1
62,100,0.11818181818181818,216,0,17,DL_heartfullpop_2_Guitar,-1,-1
50,100,0.4772727272727273,303,0,17,DL_heartfullpop_2_Guitar,-1,-1
50,100,0.1409090909090909,515,1,17,DL_heartfullpop_2_Guitar,-1,-1
57,100,0.32272727272727275,576,0,17,DL_heartfullpop_2_Guitar,-1,-1
62,100,0.18181818181818182,663,0,17,DL_heartfullpop_2_Guitar,-1,-1
62,100,0.1409090909090909,783,0,17,DL_heartfullpop_2_Guitar,-1,-1
57,100,0.11818181818181818,295,1,18,DL_heartfullpop_2_Guitar,-1,-1
50,100,0.5,333,0,18,DL_heartfullpop_2_Guitar,-1,-1
62,100,0.2818181818181818,443,0,18,DL_heartfullpop_2_Guitar,-1,-1
53,100,0.3,607,0,18,DL_heartfullpop_2_Guitar,-1,-1
50,100,0.1590909090909091,743,0,18,DL_heartfullpop_2_Guitar,-1,-1
50,100,0.3181818181818182,787,0,18,DL_heartfullpop_2_Guitar,-1,-1
62,100,0.21818181818181817,858,0,18,DL_heartfullpop_2_Guitar,-1,-1
50,100,0.2,303,1,19,DL_heartfullpop_2_Guitar,-1,-1
60,100,0.2409090909090909,405,0,19,DL_heartfullpop_2_Guitar,-1,-1
53,100,0.2636363636363636,488,0,19,DL_heartfullpop_2_Guitar,-1,-1
53,100,0.35909090909090907,681,0,19,DL_heartfullpop_2_Guitar,-1,-1
62,100,0.11818181818181818,810,0,19,DL_heartfullpop_2_Guitar,-1,-1
53,100,0.9409090909090909,9,1,20,DL_heartfullpop_2_Guitar,-1,-1
53,100,0.2,254,1,20,DL_heartfullpop_2_Guitar,-1,-1
62,100,0.2590909090909091,320,0,20,DL_heartfullpop_2_Guitar,-1,-1
53,100,0.2,391,0,20,DL_heartfullpop_2_Guitar,-1,-1
53,100,0.36363636363636365,509,0,20,DL_heartfullpop_2_Guitar,-1,-1
62,100,0.1409090909090909,602,0,20,DL_heartfullpop_2_Guitar,-1,-1
53,100,0.740909090909091,642,0,20,DL_heartfullpop_2_Guitar,-1,-1
53,100,0.33636363636363636,150,1,21,DL_heartfullpop_2_Guitar,-1,-1
62,100,0.11818181818181818,241,0,21,DL_heartfullpop_2_Guitar,-1,-1
62,100,0.18181818181818182,299,0,21,DL_heartfullpop_2_Guitar,-1,-1
53,100,0.2,422,0,21,DL_heartfullpop_2_Guitar,-1,-1
53,100,0.4,669,1,21,DL_heartfullpop_2_Guitar,-1,-1
53,100,0.1409090909090909,804,0,21,DL_heartfullpop_2_Guitar,-1,-1
55,100,0.3,30,1,22,DL_heartfullpop_2_Guitar,-1,-1
62,100,0.5590909090909091,171,0,22,DL_heartfullpop_2_Guitar,-1,-1
53,100,0.2409090909090909,316,0,22,DL_heartfullpop_2_Guitar,-1,-1
62,100,0.18181818181818182,528,1,22,DL_heartfullpop_2_Guitar,-1,-1
62,100,0.4590909090909091,594,0,22,DL_heartfullpop_2_Guitar,-1,-1
62,100,0.12272727272727273,729,0,22,DL_heartfullpop_2_Guitar,-1,-1
53,100,0.1409090909090909,801,0,22,DL_heartfullpop_2_Guitar,-1,-1
53,100,0.21818181818181817,0,1,23,DL_heartfullpop_2_Guitar,-1,-1
53,100,0.22272727272727272,79,0,23,DL_heartfullpop_2_Guitar,-1,-1
60,100,0.1590909090909091,150,0,23,DL_heartfullpop_2_Guitar,-1,-1
48,100,0.17727272727272728,281,0,23,DL_heartfullpop_2_Guitar,-1,-1
53,100,0.4590909090909091,453,0,23,DL_heartfullpop_2_Guitar,-1,-1
53,100,0.2772727272727273,590,0,23,DL_heartfullpop_2_Guitar,-1,-1
60,100,0.3,779,0,23,DL_heartfullpop_2_Guitar,-1,-1
53,100,0.2,862,0,23,DL_heartfullpop_2_Guitar,-1,-1
53,100,0.7181818181818181,119,1,24,DL_heartfullpop_2_Guitar,-1,-1
60,100,0.4590909090909091,347,1,24,DL_heartfullpop_2_Guitar,-1,-1
53,100,0.13636363636363635,567,1,24,DL_heartfullpop_2_Guitar,-1,-1
53,100,0.11818181818181818,656,0,24,DL_heartfullpop_2_Guitar,-1,-1
53,100,0.37727272727272726,735,0,24,DL_heartfullpop_2_Guitar,-1,-1
60,100,0.13636363636363635,61,1,25,DL_heartfullpop_2_Guitar,-1,-1
53,100,0.1409090909090909,144,0,25,DL_heartfullpop_2_Guitar,-1,-1
53,100,0.4409090909090909,206,0,25,DL_heartfullpop_2_Guitar,-1,-1
41,100,0.16363636363636364,399,0,25,DL_heartfullpop_2_Guitar,-1,-1
60,100,0.4590909090909091,440,0,25,DL_heartfullpop_2_Guitar,-1,-1
60,100,0.1409090909090909,563,0,25,DL_heartfullpop_2_Guitar,-1,-1
60,100,0.16363636363636364,729,0,25,DL_heartfullpop_2_Guitar,-1,-1
53,100,0.23636363636363636,766,0,25,DL_heartfullpop_2_Guitar,-1,-1
60,100,0.1,839,0,25,DL_heartfullpop_2_Guitar,-1,-1
53,100,0.6227272727272727,26,1,26,DL_heartfullpop_2_Guitar,-1,-1
53,100,0.1590909090909091,175,0,26,DL_heartfullpop_2_Guitar,-1,-1
60,100,0.13636363636363635,216,0,26,DL_heartfullpop_2_Guitar,-1,-1
53,100,0.7,370,0,26,DL_heartfullpop_2_Guitar,-1,-1
50,100,0.1409090909090909,717,1,26,DL_heartfullpop_2_Guitar,-1,-1
60,100,0.4772727272727273,779,0,26,DL_heartfullpop_2_Guitar,-1,-1
50,100,0.35909090909090907,40,1,27,DL_heartfullpop_2_Guitar,-1,-1
50,100,0.12272727272727273,312,1,27,DL_heartfullpop_2_Guitar,-1,-1
50,100,0.35909090909090907,347,0,27,DL_heartfullpop_2_Guitar,-1,-1
57,100,0.18181818181818182,356,1,28,DL_heartfullpop_2_Guitar,-1,-1
62,100,0.4,584,1,28,DL_heartfullpop_2_Guitar,-1,-1
53,100,0.5,796,1,28,DL_heartfullpop_2_Guitar,-1,-1
60,100,1.2818181818181817,88,1,29,DL_heartfullpop_2_Guitar,-1,-1
53,100,0.3409090909090909,492,1,29,DL_heartfullpop_2_Guitar,-1,-1
53,100,0.32272727272727275,629,0,29,DL_heartfullpop_2_Guitar,-1,-1
60,100,0.2818181818181818,3,1,30,DL_heartfullpop_2_Guitar,-1,-1
53,100,0.4409090909090909,131,0,30,DL_heartfullpop_2_Guitar,-1,-1
53,100,0.2590909090909091,326,0,30,DL_heartfullpop_2_Guitar,-1,-1
46,100,0.1409090909090909,598,1,30,DL_heartfullpop_2_Guitar,-1,-1
60,100,0.2,650,0,30,DL_heartfullpop_2_Guitar,-1,-1
60,100,0.2636363636363636,708,0,30,DL_heartfullpop_2_Guitar,-1,-1
62,100,0.35909090909090907,21,1,31,DL_heartfullpop_2_Guitar,-1,-1
60,100,0.33636363636363636,150,0,31,DL_heartfullpop_2_Guitar,-1,-1
53,100,0.22272727272727272,223,0,31,DL_heartfullpop_2_Guitar,-1,-1
48,100,0.37727272727272726,295,0,31,DL_heartfullpop_2_Guitar,-1,-1
62,100,0.1590909090909091,501,1,31,DL_heartfullpop_2_Guitar,-1,-1
48,100,0.3409090909090909,550,0,31,DL_heartfullpop_2_Guitar,-1,-1
48,100,0.38181818181818183,708,0,31,DL_heartfullpop_2_Guitar,-1,-1
48,100,0.3409090909090909,804,0,31,DL_heartfullpop_2_Guitar,-1,-1
48,100,0.22272727272727272,4,1,32,DL_heartfullpop_2_Guitar,-1,-1
48,100,0.1590909090909091,56,0,32,DL_heartfullpop_2_Guitar,-1,-1
48,100,0.11818181818181818,193,0,32,DL_heartfullpop_2_Guitar,-1,-1
48,100,0.2818181818181818,311,0,32,DL_heartfullpop_2_Guitar,-1,-1
48,100,0.740909090909091,515,1,32,DL_heartfullpop_2_Guitar,-1,-1
53,100,0.3,748,1,32,DL_heartfullpop_2_Guitar,-1,-1
60,100,0.43636363636363634,875,0,32,DL_heartfullpop_2_Guitar,-1,-1
48,100,0.38181818181818183,110,1,33,DL_heartfullpop_2_Guitar,-1,-1
48,100,0.5,211,0,33,DL_heartfullpop_2_Guitar,-1,-1
53,100,0.2,330,0,33,DL_heartfullpop_2_Guitar,-1,-1
48,100,0.8,373,0,33,DL_heartfullpop_2_Guitar,-1,-1
53,100,0.1,91,1,34,DL_heartfullpop_2_Guitar,-1,-1
62,100,0.2590909090909091,228,0,34,DL_heartfullpop_2_Guitar,-1,-1
62,100,0.21818181818181817,295,0,34,DL_heartfullpop_2_Guitar,-1,-1
53,100,0.2636363636363636,356,0,34,DL_heartfullpop_2_Guitar,-1,-1
62,100,0.3,418,0,34,DL_heartfullpop_2_Guitar,-1,-1
53,100,0.12272727272727273,628,1,34,DL_heartfullpop_2_Guitar,-1,-1
58,100,0.13636363636363635,700,0,34,DL_heartfullpop_2_Guitar,-1,-1
62,100,0.17727272727272728,8,1,35,DL_heartfullpop_2_Guitar,-1,-1
53,100,0.3,78,0,35,DL_heartfullpop_2_Guitar,-1,-1
62,100,0.9,251,0,35,DL_heartfullpop_2_Guitar,-1,-1
62,100,0.1409090909090909,471,1,35,DL_heartfullpop_2_Guitar,-1,-1
53,100,0.2590909090909091,528,0,35,DL_heartfullpop_2_Guitar,-1,-1
62,100,0.6590909090909091,691,0,35,DL_heartfullpop_2_Guitar,-1,-1
64,100,0.8,13,1,36,DL_heartfullpop_2_Guitar,-1,-1
60,100,0.21818181818181817,228,1,36,DL_heartfullpop_2_Guitar,-1,-1
60,100,0.4636363636363636,289,0,36,DL_heartfullpop_2_Guitar,-1,-1
64,100,0.35909090909090907,453,0,36,DL_heartfullpop_2_Guitar,-1,-1
60,100,0.2409090909090909,554,0,36,DL_heartfullpop_2_Guitar,-1,-1
57,100,0.2590909090909091,611,0,36,DL_heartfullpop_2_Guitar,-1,-1
60,100,0.5181818181818182,748,0,36,DL_heartfullpop_2_Guitar,-1,-1
57,100,0.1409090909090909,4,1,37,DL_heartfullpop_2_Guitar,-1,-1
62,100,0.13636363636363635,655,1,37,DL_heartfullpop_2_Guitar,-1,-1
62,100,0.1590909090909091,43,1,38,DL_heartfullpop_2_Guitar,-1,-1
64,100,0.11818181818181818,241,1,38,DL_heartfullpop_2_Guitar,-1,-1
53,100,0.11818181818181818,330,0,38,DL_heartfullpop_2_Guitar,-1,-1
46,100,0.33636363636363636,458,0,38,DL_heartfullpop_2_Guitar,-1,-1
53,100,0.22272727272727272,541,0,38,DL_heartfullpop_2_Guitar,-1,-1
53,100,0.1409090909090909,713,0,38,DL_heartfullpop_2_Guitar,-1,-1
62,100,0.11818181818181818,756,0,38,DL_heartfullpop_2_Guitar,-1,-1
53,100,0.37727272727272726,105,1,39,DL_heartfullpop_2_Guitar,-1,-1
58,100,0.1409090909090909,276,0,39,DL_heartfullpop_2_Guitar,-1,-1
48,100,0.11818181818181818,625,1,39,DL_heartfullpop_2_Guitar,-1,-1
48,100,0.2409090909090909,673,0,39,DL_heartfullpop_2_Guitar,-1,-1
48,100,0.13636363636363635,831,0,39,DL_heartfullpop_2_Guitar,-1,-1
60,100,0.4409090909090909,861,0,39,DL_heartfullpop_2_Guitar,-1,-1
48,100,0.5227272727272727,78,1,40,DL_heartfullpop_2_Guitar,-1,-1
60,100,0.5636363636363636,268,0,40,DL_heartfullpop_2_Guitar,-1,-1
60,100,0.1,421,0,40,DL_heartfullpop_2_Guitar,-1,-1
48,100,0.3,541,0,40,DL_heartfullpop_2_Guitar,-1,-1
53,100,0.3181818181818182,638,0,40,DL_heartfullpop_2_Guitar,-1,-1
53,100,0.2590909090909091,765,0,40,DL_heartfullpop_2_Guitar,-1,-1
53,100,0.3,839,0,40,DL_heartfullpop_2_Guitar,-1,-1
62,100,0.4,61,1,41,DL_heartfullpop_2_Guitar,-1,-1
62,100,0.4409090909090909,440,1,41,DL_heartfullpop_2_Guitar,-1,-1
62,100,0.2818181818181818,563,0,41,DL_heartfullpop_2_Guitar,-1,-1
60,100,0.5590909090909091,668,0,41,DL_heartfullpop_2_Guitar,-1,-1
48,100,1.4,866,1,41,DL_heartfullpop_2_Guitar,-1,-1
48,100,2.9,298,1,42,DL_heartfullpop_2_Guitar,-1,-1
53,100,0.17727272727272728,75,1,43,DL_heartfullpop_2_Guitar,-1,-1
57,100,0.33636363636363636,193,0,43,DL_heartfullpop_2_Guitar,-1,-1
53,100,0.2772727272727273,383,0,43,DL_heartfullpop_2_Guitar,-1,-1
53,100,0.32272727272727275,453,0,43,DL_heartfullpop_2_Guitar,-1,-1
57,100,0.17727272727272728,545,0,43,DL_heartfullpop_2_Guitar,-1,-1
53,100,0.22272727272727272,598,0,43,DL_heartfullpop_2_Guitar,-1,-1
53,100,0.32272727272727275,716,0,43,DL_heartfullpop_2_Guitar,-1,-1
53,100,0.23636363636363636,853,0,43,DL_heartfullpop_2_Guitar,-1,-1
57,100,0.32272727272727275,144,1,44,DL_heartfullpop_2_Guitar,-1,-1
53,100,0.3409090909090909,228,0,44,DL_heartfullpop_2_Guitar,-1,-1
57,100,0.18181818181818182,378,0,44,DL_heartfullpop_2_Guitar,-1,-1
53,100,0.2,493,0,44,DL_heartfullpop_2_Guitar,-1,-1
53,100,0.6590909090909091,545,0,44,DL_heartfullpop_2_Guitar,-1,-1
53,100,0.18181818181818182,751,1,44,DL_heartfullpop_2_Guitar,-1,-1
53,100,0.1409090909090909,823,0,44,DL_heartfullpop_2_Guitar,-1,-1
53,100,0.8181818181818182,875,0,44,DL_heartfullpop_2_Guitar,-1,-1
53,100,0.4409090909090909,211,1,45,DL_heartfullpop_2_Guitar,-1,-1
50,100,0.4409090909090909,399,0,45,DL_heartfullpop_2_Guitar,-1,-1
62,100,0.2590909090909091,496,0,45,DL_heartfullpop_2_Guitar,-1,-1
62,100,0.1590909090909091,558,0,45,DL_heartfullpop_2_Guitar,-1,-1
50,100,0.6590909090909091,616,0,45,DL_heartfullpop_2_Guitar,-1,-1
50,100,0.5181818181818182,788,0,45,DL_heartfullpop_2_Guitar,-1,-1
50,100,0.2,43,1,46,DL_heartfullpop_2_Guitar,-1,-1
50,100,0.2,303,1,46,DL_heartfullpop_2_Guitar,-1,-1
62,100,0.37727272727272726,348,0,46,DL_heartfullpop_2_Guitar,-1,-1
50,100,0.2,431,0,46,DL_heartfullpop_2_Guitar,-1,-1
62,100,0.2409090909090909,474,0,46,DL_heartfullpop_2_Guitar,-1,-1
62,100,0.4,694,1,46,DL_heartfullpop_2_Guitar,-1,-1
50,100,0.11818181818181818,836,0,46,DL_heartfullpop_2_Guitar,-1,-1
62,100,0.1409090909090909,861,0,46,DL_heartfullpop_2_Guitar,-1,-1
62,100,0.13636363636363635,61,1,47,DL_heartfullpop_2_Guitar,-1,-1
50,100,0.6636363636363637,91,0,47,DL_heartfullpop_2_Guitar,-1,-1
50,100,0.3181818181818182,316,1,47,DL_heartfullpop_2_Guitar,-1,-1
50,100,0.1590909090909091,461,0,47,DL_heartfullpop_2_Guitar,-1,-1
62,100,0.3,496,0,47,DL_heartfullpop_2_Guitar,-1,-1
50,100,0.11818181818181818,568,0,47,DL_heartfullpop_2_Guitar,-1,-1
53,100,0.3,638,0,47,DL_heartfullpop_2_Guitar,-1,-1
46,100,0.17727272727272728,118,1,48,DL_heartfullpop_2_Guitar,-1,-1
53,100,0.12272727272727273,201,0,48,DL_heartfullpop_2_Guitar,-1,-1
53,100,0.22272727272727272,453,1,48,DL_heartfullpop_2_Guitar,-1,-1
53,100,0.1590909090909091,506,0,48,DL_heartfullpop_2_Guitar,-1,-1
53,100,0.41818181818181815,655,0,48,DL_heartfullpop_2_Guitar,-1,-1
53,100,0.2590909090909091,853,1,48,DL_heartfullpop_2_Guitar,-1,-1
53,100,0.2818181818181818,179,1,49,DL_heartfullpop_2_Guitar,-1,-1
62,100,0.11818181818181818,458,1,49,DL_heartfullpop_2_Guitar,-1,-1
60,100,0.1409090909090909,515,0,49,DL_heartfullpop_2_Guitar,-1,-1
53,100,0.17727272727272728,558,0,49,DL_heartfullpop_2_Guitar,-1,-1
41,100,0.12272727272727273,694,0,49,DL_heartfullpop_2_Guitar,-1,-1
53,100,0.5590909090909091,738,0,49,DL_heartfullpop_2_Guitar,-1,-1
53,100,0.1590909090909091,871,0,49,DL_heartfullpop_2_Guitar,-1,-1
53,100,0.1409090909090909,66,1,50,DL_heartfullpop_2_Guitar,-1,-1
62,100,0.4409090909090909,185,0,50,DL_heartfullpop_2_Guitar,-1,-1
60,100,0.3,396,1,50,DL_heartfullpop_2_Guitar,-1,-1
60,100,0.12272727272727273,474,0,50,DL_heartfullpop_2_Guitar,-1,-1
48,100,0.12272727272727273,729,1,50,DL_heartfullpop_2_Guitar,-1,-1
62,100,0.4,114,1,51,DL_heartfullpop_2_Guitar,-1,-1
60,100,0.1409090909090909,211,0,51,DL_heartfullpop_2_Guitar,-1,-1
58,100,0.1590909090909091,651,1,52,DL_heartfullpop_2_Guitar,-1,-1
53,100,0.1,691,0,52,DL_heartfullpop_2_Guitar,-1,-1
46,100,0.21818181818181817,765,0,52,DL_heartfullpop_2_Guitar,-1,-1
58,100,0.3409090909090909,66,1,53,DL_heartfullpop_2_Guitar,-1,-1
53,100,0.12272727272727273,408,1,53,DL_heartfullpop_2_Guitar,-1,-1
46,100,0.33636363636363636,501,0,53,DL_heartfullpop_2_Guitar,-1,-1
62,100,0.4,616,0,53,DL_heartfullpop_2_Guitar,-1,-1
50,100,0.22272727272727272,796,0,53,DL_heartfullpop_2_Guitar,-1,-1
62,100,0.4590909090909091,853,1,54,DL_heartfullpop_2_Guitar,-1,-1
62,100,0.1409090909090909,166,1,55,DL_heartfullpop_2_Guitar,-1,-1
62,100,0.759090909090909,286,0,55,DL_heartfullpop_2_Guitar,-1,-1
55,100,0.5590909090909091,518,1,55,DL_heartfullpop_2_Guitar,-1,-1
55,100,0.43636363636363634,655,0,55,DL_heartfullpop_2_Guitar,-1,-1
53,100,0.11818181818181818,765,0,55,DL_heartfullpop_2_Guitar,-1,-1
55,100,0.1409090909090909,804,0,55,DL_heartfullpop_2_Guitar,-1,-1
55,100,0.12272727272727273,48,1,56,DL_heartfullpop_2_Guitar,-1,-1
60,100,0.7,351,1,56,DL_heartfullpop_2_Guitar,-1,-1
60,100,1.040909090909091,571,1,56,DL_heartfullpop_2_Guitar,-1,-1
48,100,0.8772727272727273,823,1,56,DL_heartfullpop_2_Guitar,-1,-1
53,100,0.11818181818181818,153,1,57,DL_heartfullpop_2_Guitar,-1,-1
48,100,0.6409090909090909,440,1,58,DL_heartfullpop_2_Guitar,-1,-1
60,100,0.4636363636363636,774,1,58,DL_heartfullpop_2_Guitar,-1,-1
48,100,0.6363636363636364,875,0,58,DL_heartfullpop_2_Guitar,-1,-1
60,100,0.18181818181818182,136,1,59,DL_heartfullpop_2_Guitar,-1,-1
60,100,0.2636363636363636,179,0,59,DL_heartfullpop_2_Guitar,-1,-1
60,100,0.1409090909090909,311,0,59,DL_heartfullpop_2_Guitar,-1,-1
41,100,0.1409090909090909,396,0,59,DL_heartfullpop_2_Guitar,-1,-1
53,100,0.5409090909090909,474,0,59,DL_heartfullpop_2_Guitar,-1,-1
53,100,0.3,606,0,59,DL_heartfullpop_2_Guitar,-1,-1
53,100,0.5363636363636364,743,0,59,DL_heartfullpop_2_Guitar,-1,-1
53,100,0.2818181818181818,871,0,59,DL_heartfullpop_2_Guitar,-1,-1
53,100,0.35909090909090907,128,1,60,DL_heartfullpop_2_Guitar,-1,-1
53,100,0.18181818181818182,276,0,60,DL_heartfullpop_2_Guitar,-1,-1
60,100,0.2,330,0,60,DL_heartfullpop_2_Guitar,-1,-1
53,100,0.2409090909090909,386,0,60,DL_heartfullpop_2_Guitar,-1,-1
53,100,0.16363636363636364,466,0,60,DL_heartfullpop_2_Guitar,-1,-1
53,100,0.16363636363636364,509,0,60,DL_heartfullpop_2_Guitar,-1,-1
41,100,0.16363636363636364,554,0,60,DL_heartfullpop_2_Guitar,-1,-1
60,100,0.1,606,0,60,DL_heartfullpop_2_Guitar,-1,-1
53,100,0.33636363636363636,633,0,60,DL_heartfullpop_2_Guitar,-1,-1
53,100,0.1590909090909091,716,0,60,DL_heartfullpop_2_Guitar,-1,-1
41,100,0.1590909090909091,801,0,60,DL_heartfullpop_2_Guitar,-1,-1
53,100,0.2590909090909091,18,1,61,DL_heartfullpop_2_Guitar,-1,-1
53,100,0.2590909090909091,78,0,61,DL_heartfullpop_2_Guitar,-1,-1
53,100,0.2,153,0,61,DL_heartfullpop_2_Guitar,-1,-1
53,100,0.2818181818181818,289,0,61,DL_heartfullpop_2_Guitar,-1,-1
53,100,0.3,405,0,61,DL_heartfullpop_2_Guitar,-1,-1
53,100,0.23636363636363636,545,0,61,DL_heartfullpop_2_Guitar,-1,-1
53,100,0.11818181818181818,625,0,61,DL_heartfullpop_2_Guitar,-1,-1
53,100,0.16363636363636364,664,0,61,DL_heartfullpop_2_Guitar,-1,-1
53,100,0.17727272727272728,713,0,61,DL_heartfullpop_2_Guitar,-1,-1
62,100,1.1636363636363636,796,0,61,DL_heartfullpop_2_Guitar,-1,-1
62,100,0.2,361,1,62,DL_heartfullpop_2_Guitar,-1,-1
50,100,0.2636363636363636,444,0,62,DL_heartfullpop_2_Guitar,-1,-1
62,100,0.21818181818181817,506,0,62,DL_heartfullpop_2_Guitar,-1,-1
62,100,0.5590909090909091,568,0,62,DL_heartfullpop_2_Guitar,-1,-1
50,100,0.2,713,0,62,DL_heartfullpop_2_Guitar,-1,-1
62,100,0.22272727272727272,13,1,63,DL_heartfullpop_2_Guitar,-1,-1
62,100,0.3181818181818182,198,0,63,DL_heartfullpop_2_Guitar,-1,-1
62,100,0.11818181818181818,603,1,63,DL_heartfullpop_2_Guitar,-1,-1
50,100,0.12272727272727273,628,0,63,DL_heartfullpop_2_Guitar,-1,-1
50,100,0.21818181818181817,127,1,64,DL_heartfullpop_2_Guitar,-1,-1
62,100,0.1590909090909091,176,0,64,DL_heartfullpop_2_Guitar,-1,-1
53,100,0.3,237,0,64,DL_heartfullpop_2_Guitar,-1,-1
62,100,0.5,316,0,64,DL_heartfullpop_2_Guitar,-1,-1
58,100,0.2,519,1,64,DL_heartfullpop_2_Guitar,-1,-1
53,100,0.3,619,0,64,DL_heartfullpop_2_Guitar,-1,-1
53,100,0.32272727272727275,752,0,64,DL_heartfullpop_2_Guitar,-1,-1
53,100,0.35909090909090907,876,0,64,DL_heartfullpop_2_Guitar,-1,-1
53,100,0.5181818181818182,250,1,65,DL_heartfullpop_2_Guitar,-1,-1
53,100,0.32272727272727275,377,0,65,DL_heartfullpop_2_Guitar,-1,-1
58,100,0.3409090909090909,475,0,65,DL_heartfullpop_2_Guitar,-1,-1
53,100,0.42272727272727273,642,0,65,DL_heartfullpop_2_Guitar,-1,-1
53,100,0.2,773,0,65,DL_heartfullpop_2_Guitar,-1,-1
62,100,0.3,823,0,65,DL_heartfullpop_2_Guitar,-1,-1
53,100,0.11818181818181818,150,1,66,DL_heartfullpop_2_Guitar,-1,-1
60,100,0.35909090909090907,193,0,66,DL_heartfullpop_2_Guitar,-1,-1
53,100,0.4409090909090909,396,1,66,DL_heartfullpop_2_Guitar,-1,-1
53,100,0.1590909090909091,496,0,66,DL_heartfullpop_2_Guitar,-1,-1
53,100,0.1409090909090909,540,0,66,DL_heartfullpop_2_Guitar,-1,-1
60,100,0.8181818181818182,572,0,66,DL_heartfullpop_2_Guitar,-1,-1
53,100,0.1,56,1,67,DL_heartfullpop_2_Guitar,-1,-1
60,100,0.32272727272727275,179,0,67,DL_heartfullpop_2_Guitar,-1,-1
60,100,0.2,365,0,67,DL_heartfullpop_2_Guitar,-1,-1
60,100,0.7,413,0,67,DL_heartfullpop_2_Guitar,-1,-1
60,100,0.3,612,1,67,DL_heartfullpop_2_Guitar,-1,-1
60,100,0.21818181818181817,30,1,68,DL_heartfullpop_2_Guitar,-1,-1
53,100,0.12272727272727273,202,0,68,DL_heartfullpop_2_Guitar,-1,-1
60,100,0.5409090909090909,330,0,68,DL_heartfullpop_2_Guitar,-1,-1
60,100,0.7818181818181819,593,1,68,DL_heartfullpop_2_Guitar,-1,-1
53,100,0.9409090909090909,839,1,68,DL_heartfullpop_2_Guitar,-1,-1
53,100,0.11818181818181818,263,1,69,DL_heartfullpop_2_Guitar,-1,-1
53,100,0.1590909090909091,294,0,69,DL_heartfullpop_2_Guitar,-1,-1
53,100,0.2590909090909091,352,0,69,DL_heartfullpop_2_Guitar,-1,-1
53,100,0.3,496,0,69,DL_heartfullpop_2_Guitar,-1,-1
41,100,0.2,682,0,69,DL_heartfullpop_2_Guitar,-1,-1
41,100,0.1590909090909091,832,0,69,DL_heartfullpop_2_Guitar,-1,-1
41,100,0.1409090909090909,3,1,70,DL_heartfullpop_2_Guitar,-1,-1
60,100,0.1590909090909091,40,0,70,DL_heartfullpop_2_Guitar,-1,-1
60,100,0.11818181818181818,87,0,70,DL_heartfullpop_2_Guitar,-1,-1
53,100,0.2818181818181818,123,0,70,DL_heartfullpop_2_Guitar,-1,-1
53,100,0.2818181818181818,396,1,70,DL_heartfullpop_2_Guitar,-1,-1
53,100,0.11818181818181818,470,0,70,DL_heartfullpop_2_Guitar,-1,-1
53,100,0.36363636363636365,509,0,70,DL_heartfullpop_2_Guitar,-1,-1
60,100,0.2409090909090909,597,0,70,DL_heartfullpop_2_Guitar,-1,-1
53,100,0.4772727272727273,656,0,70,DL_heartfullpop_2_Guitar,-1,-1
53,100,0.5772727272727273,766,0,70,DL_heartfullpop_2_Guitar,-1,-1
60,100,0.21818181818181817,40,1,71,DL_heartfullpop_2_Guitar,-1,-1
53,100,0.11818181818181818,106,0,71,DL_heartfullpop_2_Guitar,-1,-1
53,100,0.1409090909090909,157,0,71,DL_heartfullpop_2_Guitar,-1,-1
60,100,0.21818181818181817,197,0,71,DL_heartfullpop_2_Guitar,-1,-1
62,100,0.2590909090909091,276,0,71,DL_heartfullpop_2_Guitar,-1,-1
62,100,0.6181818181818182,339,0,71,DL_heartfullpop_2_Guitar,-1,-1
62,100,0.2590909090909091,480,0,71,DL_heartfullpop_2_Guitar,-1,-1
62,100,0.2409090909090909,603,0,71,DL_heartfullpop_2_Guitar,-1,-1
50,100,0.2590909090909091,805,1,71,DL_heartfullpop_2_Guitar,-1,-1
50,100,0.1590909090909091,197,1,72,DL_heartfullpop_2_Guitar,-1,-1
62,100,0.3,233,0,72,DL_heartfullpop_2_Guitar,-1,-1
50,100,0.1,466,1,72,DL_heartfullpop_2_Guitar,-1,-1
62,100,0.36363636363636365,553,0,72,DL_heartfullpop_2_Guitar,-1,-1
53,100,0.2,716,0,72,DL_heartfullpop_2_Guitar,-1,-1
62,100,0.11818181818181818,823,0,72,DL_heartfullpop_2_Guitar,-1,-1
62,100,0.4,866,0,72,DL_heartfullpop_2_Guitar,-1,-1
57,100,0.1590909090909091,79,1,73,DL_heartfullpop_2_Guitar,-1,-1
57,100,0.13636363636363635,216,0,73,DL_heartfullpop_2_Guitar,-1,-1
62,100,0.12272727272727273,453,1,73,DL_heartfullpop_2_Guitar,-1,-1
53,100,0.18181818181818182,593,0,73,DL_heartfullpop_2_Guitar,-1,-1
60,100,0.32272727272727275,13,1,74,DL_heartfullpop_2_Guitar,-1,-1
53,100,0.2590909090909091,100,0,74,DL_heartfullpop_2_Guitar,-1,-1
53,100,0.35909090909090907,352,1,74,DL_heartfullpop_2_Guitar,-1,-1
53,100,0.2,436,0,74,DL_heartfullpop_2_Guitar,-1,-1
53,100,0.1409090909090909,619,0,74,DL_heartfullpop_2_Guitar,-1,-1
53,100,0.2,747,0,74,DL_heartfullpop_2_Guitar,-1,-1
48,100,0.1409090909090909,800,0,74,DL_heartfullpop_2_Guitar,-1,-1
60,100,0.2,849,0,74,DL_heartfullpop_2_Guitar,-1,-1
53,100,0.2409090909090909,69,1,75,DL_heartfullpop_2_Guitar,-1,-1
60,100,0.41818181818181815,150,0,75,DL_heartfullpop_2_Guitar,-1,-1
60,100,0.4818181818181818,286,0,75,DL_heartfullpop_2_Guitar,-1,-1
60,100,0.12272727272727273,466,0,75,DL_heartfullpop_2_Guitar,-1,-1
53,100,0.16363636363636364,509,0,75,DL_heartfullpop_2_Guitar,-1,-1
53,100,0.4409090909090909,844,1,75,DL_heartfullpop_2_Guitar,-1,-1
53,100,0.2590909090909091,83,1,76,DL_heartfullpop_2_Guitar,-1,-1
53,100,0.18181818181818182,176,0,76,DL_heartfullpop_2_Guitar,-1,-1
53,100,1.1,229,0,76,DL_heartfullpop_2_Guitar,-1,-1
41,100,0.2409090909090909,483,1,76,DL_heartfullpop_2_Guitar,-1,-1
60,100,0.1409090909090909,713,1,76,DL_heartfullpop_2_Guitar,-1,-1
41,100,0.2590909090909091,810,0,76,DL_heartfullpop_2_Guitar,-1,-1
53,100,0.23636363636363636,876,0,76,DL_heartfullpop_2_Guitar,-1,-1
53,100,0.5590909090909091,127,1,77,DL_heartfullpop_2_Guitar,-1,-1
60,100,0.1,413,1,77,DL_heartfullpop_2_Guitar,-1,-1
53,100,0.5,440,0,77,DL_heartfullpop_2_Guitar,-1,-1
53,100,0.18181818181818182,563,0,77,DL_heartfullpop_2_Guitar,-1,-1
60,100,0.3181818181818182,734,0,77,DL_heartfullpop_2_Guitar,-1,-1
41,100,0.6,813,0,77,DL_heartfullpop_2_Guitar,-1,-1
53,100,0.12272727272727273,69,1,78,DL_heartfullpop_2_Guitar,-1,-1
41,100,0.1,96,0,78,DL_heartfullpop_2_Guitar,-1,-1
60,100,0.11818181818181818,119,0,78,DL_heartfullpop_2_Guitar,-1,-1
41,100,0.3409090909090909,145,0,78,DL_heartfullpop_2_Guitar,-1,-1
53,100,0.8772727272727273,273,0,78,DL_heartfullpop_2_Guitar,-1,-1
53,100,0.1,722,1,78,DL_heartfullpop_2_Guitar,-1,-1
53,100,0.1,110,1,79,DL_heartfullpop_2_Guitar,-1,-1
55,100,0.21818181818181817,457,1,79,DL_heartfullpop_2_Guitar,-1,-1
55,100,1.3,673,1,79,DL_heartfullpop_2_Guitar,-1,-1
55,100,0.42272727272727273,453,1,80,DL_heartfullpop_2_Guitar,-1,-1
53,100,0.1409090909090909,637,0,80,DL_heartfullpop_2_Guitar,-1,-1
53,100,0.11818181818181818,153,1,81,DL_heartfullpop_2_Guitar,-1,-1
50,100,0.4818181818181818,637,1,81,DL_heartfullpop_2_Guitar,-1,-1
62,100,0.1,743,0,81,DL_heartfullpop_2_Guitar,-1,-1
50,100,0.1590909090909091,62,1,82,DL_heartfullpop_2_Guitar,-1,-1
53,100,0.13636363636363635,303,1,82,DL_heartfullpop_2_Guitar,-1,-1
55,100,0.1,197,1,84,DL_heartfullpop_2_Guitar,-1,-1
60,100,0.1409090909090909,426,1,84,DL_heartfullpop_2_Guitar,-1,-1
60,100,1.8772727272727272,480,0,84,DL_heartfullpop_2_Guitar,-1,-1
53,100,0.1,330,1,85,DL_heartfullpop_2_Guitar,-1,-1
53,100,0.2772727272727273,392,0,85,DL_heartfullpop_2_Guitar,-1,-1
53,100,0.3,462,0,85,DL_heartfullpop_2_Guitar,-1,-1
53,100,0.2772727272727273,567,0,85,DL_heartfullpop_2_Guitar,-1,-1
53,100,0.2409090909090909,800,1,85,DL_heartfullpop_2_Guitar,-1,-1
57,100,0.1,866,0,85,DL_heartfullpop_2_Guitar,-1,-1
41,100,0.2,229,1,86,DL_heartfullpop_2_Guitar,-1,-1
60,100,0.17727272727272728,273,0,86,DL_heartfullpop_2_Guitar,-1,-1
60,100,0.18181818181818182,320,0,86,DL_heartfullpop_2_Guitar,-1,-1
41,100,0.1409090909090909,360,0,86,DL_heartfullpop_2_Guitar,-1,-1
60,100,0.4,392,0,86,DL_heartfullpop_2_Guitar,-1,-1
53,100,0.3181818181818182,480,0,86,DL_heartfullpop_2_Guitar,-1,-1
60,100,0.2409090909090909,559,0,86,DL_heartfullpop_2_Guitar,-1,-1
41,100,0.9363636363636364,612,0,86,DL_heartfullpop_2_Guitar,-1,-1
60,100,0.2772727272727273,844,1,86,DL_heartfullpop_2_Guitar,-1,-1
60,100,0.2,30,1,87,DL_heartfullpop_2_Guitar,-1,-1
60,100,0.11818181818181818,87,0,87,DL_heartfullpop_2_Guitar,-1,-1
60,100,0.11818181818181818,197,0,87,DL_heartfullpop_2_Guitar,-1,-1
53,100,0.8590909090909091,703,1,87,DL_heartfullpop_2_Guitar,-1,-1
53,100,0.21818181818181817,140,1,88,DL_heartfullpop_2_Guitar,-1,-1
53,100,0.1409090909090909,202,0,88,DL_heartfullpop_2_Guitar,-1,-1
53,100,0.21818181818181817,480,1,88,DL_heartfullpop_2_Guitar,-1,-1
62,100,0.11818181818181818,580,0,88,DL_heartfullpop_2_Guitar,-1,-1
60,100,0.2409090909090909,35,1,89,DL_heartfullpop_2_Guitar,-1,-1
48,100,0.1409090909090909,250,1,89,DL_heartfullpop_2_Guitar,-1,-1
53,100,0.13636363636363635,282,0,89,DL_heartfullpop_2_Guitar,-1,-1
60,100,0.6590909090909091,370,0,89,DL_heartfullpop_2_Guitar,-1,-1
60,100,0.35909090909090907,536,0,89,DL_heartfullpop_2_Guitar,-1,-1
60,100,0.11818181818181818,792,1,89,DL_heartfullpop_2_Guitar,-1,-1
53,100,0.1590909090909091,866,0,89,DL_heartfullpop_2_Guitar,-1,-1
60,100,1.2227272727272727,123,1,90,DL_heartfullpop_2_Guitar,-1,-1
60,100,1.1818181818181819,506,1,90,DL_heartfullpop_2_Guitar,-1,-1
60,100,0.1409090909090909,100,1,91,DL_heartfullpop_2_Guitar,-1,-1
53,100,0.11818181818181818,220,0,91,DL_heartfullpop_2_Guitar,-1,-1
53,100,0.6181818181818182,273,0,91,DL_heartfullpop_2_Guitar,-1,-1
53,100,0.2590909090909091,426,0,91,DL_heartfullpop_2_Guitar,-1,-1
53,100,0.38181818181818183,519,0,91,DL_heartfullpop_2_Guitar,-1,-1
53,100,0.23636363636363636,633,0,91,DL_heartfullpop_2_Guitar,-1,-1
53,100,0.3409090909090909,695,0,91,DL_heartfullpop_2_Guitar,-1,-1
41,100,0.18181818181818182,796,0,91,DL_heartfullpop_2_Guitar,-1,-1
53,100,0.32272727272727275,870,0,91,DL_heartfullpop_2_Guitar,-1,-1
41,100,0.13636363636363635,62,1,92,DL_heartfullpop_2_Guitar,-1,-1
53,100,0.1409090909090909,92,0,92,DL_heartfullpop_2_Guitar,-1,-1
53,100,0.759090909090909,172,0,92,DL_heartfullpop_2_Guitar,-1,-1
41,100,0.17727272727272728,347,0,92,DL_heartfullpop_2_Guitar,-1,-1
53,100,0.16363636363636364,399,0,92,DL_heartfullpop_2_Guitar,-1,-1
53,100,0.38181818181818183,440,0,92,DL_heartfullpop_2_Guitar,-1,-1
41,100,0.11818181818181818,523,0,92,DL_heartfullpop_2_Guitar,-1,-1
53,100,0.12272727272727273,629,0,92,DL_heartfullpop_2_Guitar,-1,-1
41,100,0.2818181818181818,716,0,92,DL_heartfullpop_2_Guitar,-1,-1
53,100,0.6,826,0,92,DL_heartfullpop_2_Guitar,-1,-1
41,100,0.2409090909090909,132,1,93,DL_heartfullpop_2_Guitar,-1,-1
41,100,0.4,229,0,93,DL_heartfullpop_2_Guitar,-1,-1
53,100,0.3,399,0,93,DL_heartfullpop_2_Guitar,-1,-1
41,100,0.2,483,0,93,DL_heartfullpop_2_Guitar,-1,-1
52,100,0.4818181818181818,730,1,0,DL_Guitar,-1,-1
50,100,0.12272727272727273,47,1,1,DL_Guitar,-1,-1
52,100,0.21818181818181817,105,0,1,DL_Guitar,-1,-1
62,100,0.1409090909090909,276,0,1,DL_Guitar,-1,-1
52,100,0.2590909090909091,348,0,1,DL_Guitar,-1,-1
52,100,0.11818181818181818,744,1,1,DL_Guitar,-1,-1
59,100,0.32272727272727275,849,0,1,DL_Guitar,-1,-1
59,100,0.3,229,1,2,DL_Guitar,-1,-1
57,100,0.2818181818181818,488,1,2,DL_Guitar,-1,-1
55,100,0.11818181818181818,721,1,2,DL_Guitar,-1,-1
48,100,0.21818181818181817,149,1,3,DL_Guitar,-1,-1
43,100,0.13636363636363635,216,0,3,DL_Guitar,-1,-1
64,100,0.11818181818181818,373,0,3,DL_Guitar,-1,-1
64,100,0.1,629,1,3,DL_Guitar,-1,-1
52,100,0.1409090909090909,651,0,3,DL_Guitar,-1,-1
59,100,0.759090909090909,163,1,4,DL_Guitar,-1,-1
59,100,0.3409090909090909,514,1,4,DL_Guitar,-1,-1
62,100,0.11818181818181818,757,1,4,DL_Guitar,-1,-1
50,100,0.5636363636363636,818,0,4,DL_Guitar,-1,-1
62,100,0.3409090909090909,122,1,5,DL_Guitar,-1,-1
55,100,0.3409090909090909,263,0,5,DL_Guitar,-1,-1
55,100,0.3409090909090909,360,0,5,DL_Guitar,-1,-1
55,100,0.4818181818181818,496,0,5,DL_Guitar,-1,-1
56,100,0.35909090909090907,0,1,6,DL_Guitar,-1,-1
56,100,0.12272727272727273,245,1,6,DL_Guitar,-1,-1
52,100,0.18181818181818182,452,1,6,DL_Guitar,-1,-1
45,100,0.3181818181818182,506,0,6,DL_Guitar,-1,-1
57,100,0.759090909090909,651,0,6,DL_Guitar,-1,-1
47,100,0.18181818181818182,431,1,7,DL_Guitar,-1,-1
59,100,0.17727272727272728,470,0,7,DL_Guitar,-1,-1
62,100,0.11818181818181818,603,0,7,DL_Guitar,-1,-1
48,100,0.42272727272727273,672,0,7,DL_Guitar,-1,-1
55,100,0.2,774,0,7,DL_Guitar,-1,-1
48,100,0.1590909090909091,857,0,7,DL_Guitar,-1,-1
64,100,0.1409090909090909,48,1,8,DL_Guitar,-1,-1
60,100,0.2,79,0,8,DL_Guitar,-1,-1
55,100,0.3181818181818182,405,1,8,DL_Guitar,-1,-1
43,100,0.3,673,1,8,DL_Guitar,-1,-1
50,100,0.3409090909090909,835,0,8,DL_Guitar,-1,-1
43,100,0.42272727272727273,48,1,9,DL_Guitar,-1,-1
43,100,0.1590909090909091,563,1,9,DL_Guitar,-1,-1
59,100,0.21818181818181817,747,0,9,DL_Guitar,-1,-1
40,100,0.3,106,1,10,DL_Guitar,-1,-1
59,100,0.4590909090909091,185,0,10,DL_Guitar,-1,-1
64,100,0.32272727272727275,378,0,10,DL_Guitar,-1,-1
59,100,0.4,567,0,10,DL_Guitar,-1,-1
59,100,0.5363636363636364,699,0,10,DL_Guitar,-1,-1
59,100,0.2409090909090909,13,1,11,DL_Guitar,-1,-1
50,100,0.12272727272727273,355,1,11,DL_Guitar,-1,-1
57,100,0.17727272727272728,414,0,11,DL_Guitar,-1,-1
57,100,0.12272727272727273,474,0,11,DL_Guitar,-1,-1
55,100,0.12272727272727273,730,1,11,DL_Guitar,-1,-1
59,100,0.1409090909090909,871,0,11,DL_Guitar,-1,-1
59,100,0.22272727272727272,25,1,12,DL_Guitar,-1,-1
55,100,0.2409090909090909,92,0,12,DL_Guitar,-1,-1
55,100,0.2409090909090909,163,0,12,DL_Guitar,-1,-1
48,100,0.12272727272727273,343,0,12,DL_Guitar,-1,-1
48,100,0.3181818181818182,374,0,12,DL_Guitar,-1,-1
48,100,0.37727272727272726,515,0,12,DL_Guitar,-1,-1
60,100,0.1,682,0,12,DL_Guitar,-1,-1
55,100,0.2818181818181818,795,0,12,DL_Guitar,-1,-1
55,100,0.16363636363636364,3,1,13,DL_Guitar,-1,-1
60,100,0.1,202,1,13,DL_Guitar,-1,-1
55,100,0.1,391,0,13,DL_Guitar,-1,-1
50,100,0.1590909090909091,440,0,13,DL_Guitar,-1,-1
50,100,0.4409090909090909,510,0,13,DL_Guitar,-1,-1
43,100,0.5,629,0,13,DL_Guitar,-1,-1
50,100,0.21818181818181817,766,0,13,DL_Guitar,-1,-1
55,100,0.2590909090909091,194,1,14,DL_Guitar,-1,-1
57,100,0.2409090909090909,409,1,14,DL_Guitar,-1,-1
62,100,0.37727272727272726,809,1,14,DL_Guitar,-1,-1
55,100,0.21818181818181817,220,1,15,DL_Guitar,-1,-1
43,100,0.5227272727272727,783,1,15,DL_Guitar,-1,-1
43,100,0.2409090909090909,100,1,16,DL_Guitar,-1,-1
62,100,0.23636363636363636,281,0,16,DL_Guitar,-1,-1
43,100,0.1590909090909091,364,0,16,DL_Guitar,-1,-1
56,100,0.17727272727272728,492,0,16,DL_Guitar,-1,-1
55,100,0.2590909090909091,550,0,16,DL_Guitar,-1,-1
55,100,0.21818181818181817,611,0,16,DL_Guitar,-1,-1
55,100,0.5636363636363636,796,0,16,DL_Guitar,-1,-1
52,100,0.22272727272727272,48,1,17,DL_Guitar,-1,-1
52,100,0.1409090909090909,246,1,17,DL_Guitar,-1,-1
57,100,0.1,430,0,17,DL_Guitar,-1,-1
57,100,0.22272727272727272,729,1,17,DL_Guitar,-1,-1
57,100,0.5181818181818182,814,0,17,DL_Guitar,-1,-1
50,100,0.21818181818181817,131,1,18,DL_Guitar,-1,-1
50,100,0.1,615,1,18,DL_Guitar,-1,-1
62,100,0.1590909090909091,409,1,19,DL_Guitar,-1,-1
50,100,0.1,443,0,19,DL_Guitar,-1,-1
50,100,0.2772727272727273,470,0,19,DL_Guitar,-1,-1
59,100,0.5181818181818182,602,0,19,DL_Guitar,-1,-1
62,100,0.21818181818181817,858,1,19,DL_Guitar,-1,-1
59,100,0.2409090909090909,48,1,20,DL_Guitar,-1,-1
62,100,0.5409090909090909,229,0,20,DL_Guitar,-1,-1
62,100,0.11818181818181818,370,0,20,DL_Guitar,-1,-1
62,100,0.11818181818181818,436,0,20,DL_Guitar,-1,-1
62,100,0.22272727272727272,739,1,20,DL_Guitar,-1,-1
62,100,0.7227272727272728,870,0,20,DL_Guitar,-1,-1
57,100,0.11818181818181818,150,1,21,DL_Guitar,-1,-1
62,100,0.11818181818181818,175,0,21,DL_Guitar,-1,-1
50,100,0.36363636363636365,202,0,21,DL_Guitar,-1,-1
50,100,0.2,289,0,21,DL_Guitar,-1,-1
50,100,0.18181818181818182,399,0,21,DL_Guitar,-1,-1
50,100,0.22272727272727272,443,0,21,DL_Guitar,-1,-1
62,100,0.2,501,0,21,DL_Guitar,-1,-1
62,100,0.13636363636363635,567,0,21,DL_Guitar,-1,-1
48,100,0.9,638,0,21,DL_Guitar,-1,-1
48,100,0.1590909090909091,849,1,21,DL_Guitar,-1,-1
48,100,0.3,123,1,22,DL_Guitar,-1,-1
60,100,0.1590909090909091,237,0,22,DL_Guitar,-1,-1
48,100,0.12272727272727273,277,0,22,DL_Guitar,-1,-1
60,100,0.12272727272727273,312,0,22,DL_Guitar,-1,-1
60,100,0.3409090909090909,443,0,22,DL_Guitar,-1,-1
55,100,0.1590909090909091,646,1,22,DL_Guitar,-1,-1
59,100,0.12272727272727273,158,1,23,DL_Guitar,-1,-1
59,100,0.4590909090909091,250,0,23,DL_Guitar,-1,-1
59,100,0.1409090909090909,430,0,23,DL_Guitar,-1,-1
59,100,0.17727272727272728,492,0,23,DL_Guitar,-1,-1
59,100,0.2590909090909091,571,0,23,DL_Guitar,-1,-1
59,100,0.2,633,0,23,DL_Guitar,-1,-1
59,100,0.5,681,0,23,DL_Guitar,-1,-1
59,100,0.1409090909090909,801,0,23,DL_Guitar,-1,-1
59,100,0.2,862,0,23,DL_Guitar,-1,-1
64,100,0.1590909090909091,44,1,24,DL_Guitar,-1,-1
59,100,0.8363636363636363,127,0,24,DL_Guitar,-1,-1
52,100,0.3,320,0,24,DL_Guitar,-1,-1
59,100,0.17727272727272728,413,0,24,DL_Guitar,-1,-1
59,100,0.9,567,0,24,DL_Guitar,-1,-1
59,100,0.3409090909090909,801,1,24,DL_Guitar,-1,-1
47,100,0.1590909090909091,229,1,25,DL_Guitar,-1,-1
59,100,0.2,281,0,25,DL_Guitar,-1,-1
47,100,0.33636363636363636,326,0,25,DL_Guitar,-1,-1
59,100,0.17727272727272728,413,0,25,DL_Guitar,-1,-1
62,100,0.2590909090909091,567,0,25,DL_Guitar,-1,-1
59,100,0.5772727272727273,625,0,25,DL_Guitar,-1,-1
62,100,0.3,756,0,25,DL_Guitar,-1,-1
59,100,0.16363636363636364,862,0,25,DL_Guitar,-1,-1
47,100,0.12272727272727273,34,1,26,DL_Guitar,-1,-1
60,100,0.2409090909090909,387,1,26,DL_Guitar,-1,-1
48,100,0.18181818181818182,440,0,26,DL_Guitar,-1,-1
60,100,0.4,480,0,26,DL_Guitar,-1,-1
55,100,0.22272727272727272,584,0,26,DL_Guitar,-1,-1
60,100,0.1590909090909091,760,0,26,DL_Guitar,-1,-1
60,100,0.2,839,0,26,DL_Guitar,-1,-1
60,100,0.740909090909091,57,1,27,DL_Guitar,-1,-1
55,100,0.11818181818181818,250,0,27,DL_Guitar,-1,-1
60,100,0.1590909090909091,285,0,27,DL_Guitar,-1,-1
50,100,0.3181818181818182,505,1,27,DL_Guitar,-1,-1
50,100,0.1590909090909091,590,0,27,DL_Guitar,-1,-1
50,100,0.16363636363636364,686,0,27,DL_Guitar,-1,-1
57,100,0.1590909090909091,735,0,27,DL_Guitar,-1,-1
50,100,0.3,770,0,27,DL_Guitar,-1,-1
57,100,0.35909090909090907,835,0,27,DL_Guitar,-1,-1
62,100,0.2409090909090909,44,1,28,DL_Guitar,-1,-1
62,100,0.4409090909090909,131,0,28,DL_Guitar,-1,-1
50,100,0.2,241,0,28,DL_Guitar,-1,-1
57,100,0.5590909090909091,360,0,28,DL_Guitar,-1,-1
57,100,0.17727272727272728,515,0,28,DL_Guitar,-1,-1
62,100,0.740909090909091,725,1,28,DL_Guitar,-1,-1
50,100,0.1,17,1,29,DL_Guitar,-1,-1
62,100,0.11818181818181818,40,0,29,DL_Guitar,-1,-1
59,100,0.17727272727272728,75,0,29,DL_Guitar,-1,-1
62,100,0.42272727272727273,202,0,29,DL_Guitar,-1,-1
55,100,0.5409090909090909,382,0,29,DL_Guitar,-1,-1
59,100,0.11818181818181818,523,0,29,DL_Guitar,-1,-1
62,100,0.23636363636363636,567,0,29,DL_Guitar,-1,-1
62,100,0.3409090909090909,629,0,29,DL_Guitar,-1,-1
57,100,0.6181818181818182,756,0,29,DL_Guitar,-1,-1
50,100,0.11818181818181818,21,1,30,DL_Guitar,-1,-1
50,100,0.1590909090909091,79,0,30,DL_Guitar,-1,-1
57,100,0.5590909090909091,144,0,30,DL_Guitar,-1,-1
50,100,0.18181818181818182,277,0,30,DL_Guitar,-1,-1
57,100,0.37727272727272726,339,0,30,DL_Guitar,-1,-1
62,100,0.2409090909090909,422,0,30,DL_Guitar,-1,-1
50,100,0.2,474,0,30,DL_Guitar,-1,-1
57,100,0.6181818181818182,660,0,30,DL_Guitar,-1,-1
57,100,0.4636363636363636,48,1,31,DL_Guitar,-1,-1
57,100,0.2409090909090909,223,0,31,DL_Guitar,-1,-1
57,100,0.6409090909090909,285,0,31,DL_Guitar,-1,-1
47,100,0.18181818181818182,430,0,31,DL_Guitar,-1,-1
57,100,0.3,474,0,31,DL_Guitar,-1,-1
57,100,0.12272727272727273,629,0,31,DL_Guitar,-1,-1
47,100,0.13636363636363635,700,0,31,DL_Guitar,-1,-1
57,100,0.5181818181818182,810,0,31,DL_Guitar,-1,-1
57,100,0.1409090909090909,48,1,32,DL_Guitar,-1,-1
57,100,0.2,114,0,32,DL_Guitar,-1,-1
40,100,0.11818181818181818,220,0,32,DL_Guitar,-1,-1
59,100,0.22272727272727272,246,0,32,DL_Guitar,-1,-1
59,100,0.11818181818181818,316,0,32,DL_Guitar,-1,-1
59,100,0.3,361,0,32,DL_Guitar,-1,-1
62,100,0.11818181818181818,590,1,32,DL_Guitar,-1,-1
57,100,0.18181818181818182,641,0,32,DL_Guitar,-1,-1
55,100,0.21818181818181817,691,0,32,DL_Guitar,-1,-1
55,100,0.1409090909090909,21,1,33,DL_Guitar,-1,-1
59,100,0.11818181818181818,131,0,33,DL_Guitar,-1,-1
57,100,0.3,241,0,33,DL_Guitar,-1,-1
48,100,0.5,330,0,33,DL_Guitar,-1,-1
60,100,0.35909090909090907,581,1,33,DL_Guitar,-1,-1
60,100,0.2636363636363636,708,0,33,DL_Guitar,-1,-1
59,100,0.2,778,0,33,DL_Guitar,-1,-1
50,100,0.1590909090909091,875,0,33,DL_Guitar,-1,-1
47,100,0.5,483,1,34,DL_Guitar,-1,-1
47,100,0.41818181818181815,603,0,34,DL_Guitar,-1,-1
47,100,0.4818181818181818,738,0,34,DL_Guitar,-1,-1
62,100,0.2772727272727273,31,1,35,DL_Guitar,-1,-1
52,100,0.38181818181818183,110,0,35,DL_Guitar,-1,-1
52,100,0.21818181818181817,251,0,35,DL_Guitar,-1,-1
59,100,0.6409090909090909,466,1,35,DL_Guitar,-1,-1
57,100,1.059090909090909,628,0,35,DL_Guitar,-1,-1
52,100,0.2409090909090909,4,1,36,DL_Guitar,-1,-1
57,100,0.9818181818181818,110,0,36,DL_Guitar,-1,-1
50,100,0.36363636363636365,356,1,36,DL_Guitar,-1,-1
59,100,0.5,761,1,36,DL_Guitar,-1,-1
55,100,0.22272727272727272,78,1,37,DL_Guitar,-1,-1
62,100,0.2,131,0,37,DL_Guitar,-1,-1
64,100,0.38181818181818183,179,0,37,DL_Guitar,-1,-1
64,100,0.35909090909090907,435,1,37,DL_Guitar,-1,-1
48,100,0.2,584,0,37,DL_Guitar,-1,-1
55,100,0.21818181818181817,655,0,37,DL_Guitar,-1,-1
43,100,0.3181818181818182,810,0,37,DL_Guitar,-1,-1
55,100,0.11818181818181818,150,1,38,DL_Guitar,-1,-1
43,100,0.1590909090909091,176,0,38,DL_Guitar,-1,-1
62,100,0.18181818181818182,220,0,38,DL_Guitar,-1,-1
50,100,0.4818181818181818,673,1,38,DL_Guitar,-1,-1
50,100,0.3409090909090909,56,1,39,DL_Guitar,-1,-1
62,100,0.2,131,0,39,DL_Guitar,-1,-1
50,100,0.41818181818181815,176,0,39,DL_Guitar,-1,-1
55,100,0.3181818181818182,348,0,39,DL_Guitar,-1,-1
62,100,0.1590909090909091,435,0,39,DL_Guitar,-1,-1
64,100,0.35909090909090907,474,0,39,DL_Guitar,-1,-1
47,100,0.1409090909090909,625,0,39,DL_Guitar,-1,-1
64,100,0.3,738,0,39,DL_Guitar,-1,-1
48,100,0.22272727272727272,848,0,39,DL_Guitar,-1,-1
64,100,0.2,88,1,40,DL_Guitar,-1,-1
64,100,0.16363636363636364,136,0,40,DL_Guitar,-1,-1
55,100,0.1,201,0,40,DL_Guitar,-1,-1
43,100,0.2818181818181818,246,0,40,DL_Guitar,-1,-1
43,100,0.11818181818181818,471,1,40,DL_Guitar,-1,-1
43,100,0.17727272727272728,501,0,40,DL_Guitar,-1,-1
59,100,0.1409090909090909,646,0,40,DL_Guitar,-1,-1
50,100,0.36363636363636365,114,1,41,DL_Guitar,-1,-1
62,100,0.5590909090909091,321,1,41,DL_Guitar,-1,-1
43,100,0.4,488,0,41,DL_Guitar,-1,-1
55,100,0.2,584,0,41,DL_Guitar,-1,-1
43,100,0.3409090909090909,628,0,41,DL_Guitar,-1,-1
59,100,0.5590909090909091,713,0,41,DL_Guitar,-1,-1
55,100,0.2,839,0,41,DL_Guitar,-1,-1
55,100,0.2,101,1,42,DL_Guitar,-1,-1
55,100,0.1590909090909091,150,0,42,DL_Guitar,-1,-1
55,100,0.3409090909090909,201,0,42,DL_Guitar,-1,-1
59,100,0.6409090909090909,351,0,42,DL_Guitar,-1,-1
55,100,0.2772727272727273,515,0,42,DL_Guitar,-1,-1
57,100,1.1409090909090909,606,0,42,DL_Guitar,-1,-1
64,100,1.1409090909090909,871,1,42,DL_Guitar,-1,-1
57,100,0.1409090909090909,241,1,43,DL_Guitar,-1,-1
57,100,0.3,413,0,43,DL_Guitar,-1,-1
57,100,0.16363636363636364,509,0,43,DL_Guitar,-1,-1
55,100,0.6,611,0,43,DL_Guitar,-1,-1
60,100,0.1590909090909091,875,1,43,DL_Guitar,-1,-1
48,100,0.1409090909090909,31,1,44,DL_Guitar,-1,-1
60,100,0.5590909090909091,61,0,44,DL_Guitar,-1,-1
60,100,0.16363636363636364,224,0,44,DL_Guitar,-1,-1
62,100,0.33636363636363636,348,0,44,DL_Guitar,-1,-1
60,100,0.5590909090909091,496,0,44,DL_Guitar,-1,-1
42,100,0.12272727272727273,26,1,45,DL_Guitar,-1,-1
60,100,0.12272727272727273,69,1,51,DL_Guitar,-1,-1
47,100,0.2409090909090909,826,1,51,DL_Guitar,-1,-1
47,100,0.6363636363636364,61,1,52,DL_Guitar,-1,-1
62,100,0.1,361,1,52,DL_Guitar,-1,-1
47,100,2.2,396,0,52,DL_Guitar,-1,-1
60,100,0.38181818181818183,311,1,53,DL_Guitar,-1,-1
60,100,1.1409090909090909,471,0,53,DL_Guitar,-1,-1
60,100,0.2,861,1,53,DL_Guitar,-1,-1
60,100,0.4772727272727273,53,1,54,DL_Guitar,-1,-1
59,100,0.16363636363636364,224,0,54,DL_Guitar,-1,-1
48,100,1.040909090909091,311,0,54,DL_Guitar,-1,-1
48,100,0.3181818181818182,558,1,54,DL_Guitar,-1,-1
59,100,0.11818181818181818,743,0,54,DL_Guitar,-1,-1
50,100,0.5772727272727273,831,0,54,DL_Guitar,-1,-1
50,100,1.6181818181818182,83,1,55,DL_Guitar,-1,-1
50,100,1.0818181818181818,453,1,55,DL_Guitar,-1,-1
50,100,1.6636363636363636,708,1,55,DL_Guitar,-1,-1
50,100,0.4590909090909091,228,1,56,DL_Guitar,-1,-1
50,100,0.5227272727272727,343,0,56,DL_Guitar,-1,-1
50,100,0.2409090909090909,21,1,57,DL_Guitar,-1,-1
62,100,0.2590909090909091,123,0,57,DL_Guitar,-1,-1
50,100,0.1409090909090909,179,0,57,DL_Guitar,-1,-1
50,100,0.17727272727272728,458,1,58,DL_Guitar,-1,-1
50,100,0.6818181818181818,21,1,59,DL_Guitar,-1,-1
50,100,0.1409090909090909,176,0,59,DL_Guitar,-1,-1
50,100,0.18181818181818182,220,0,59,DL_Guitar,-1,-1
50,100,0.3409090909090909,444,1,59,DL_Guitar,-1,-1
50,100,2.1772727272727272,536,0,59,DL_Guitar,-1,-1
48,100,0.36363636363636365,311,1,60,DL_Guitar,-1,-1
48,100,0.5,408,0,60,DL_Guitar,-1,-1
48,100,0.3,523,0,60,DL_Guitar,-1,-1
50,100,1.0,303,1,61,DL_Guitar,-1,-1
50,100,0.8227272727272728,554,1,61,DL_Guitar,-1,-1
50,100,0.1409090909090909,813,1,61,DL_Guitar,-1,-1
50,100,0.3409090909090909,69,1,62,DL_Guitar,-1,-1
50,100,0.2,364,1,62,DL_Guitar,-1,-1
47,100,0.12272727272727273,686,1,62,DL_Guitar,-1,-1
40,100,0.1409090909090909,53,1,63,DL_Guitar,-1,-1
59,100,0.2636363636363636,114,0,63,DL_Guitar,-1,-1
40,100,0.21818181818181817,251,0,63,DL_Guitar,-1,-1
58,100,0.13636363636363635,501,1,63,DL_Guitar,-1,-1
47,100,1.3818181818181818,0,1,64,DL_Guitar,-1,-1
47,100,0.2,475,1,64,DL_Guitar,-1,-1
47,100,0.8,536,0,64,DL_Guitar,-1,-1
48,100,0.8818181818181818,783,1,64,DL_Guitar,-1,-1
59,100,0.1,360,1,65,DL_Guitar,-1,-1
59,100,0.1,386,0,65,DL_Guitar,-1,-1
59,100,0.2636363636363636,422,0,65,DL_Guitar,-1,-1
59,100,0.4409090909090909,506,0,65,DL_Guitar,-1,-1
59,100,0.5409090909090909,624,0,65,DL_Guitar,-1,-1
57,100,0.41818181818181815,9,1,66,DL_Guitar,-1,-1
50,100,0.21818181818181817,110,0,66,DL_Guitar,-1,-1
50,100,0.1,184,0,66,DL_Guitar,-1,-1
47,100,0.1,514,1,66,DL_Guitar,-1,-1
50,100,0.2818181818181818,66,1,68,DL_Guitar,-1,-1
50,100,0.11818181818181818,220,0,68,DL_Guitar,-1,-1
50,100,1.0636363636363637,289,0,68,DL_Guitar,-1,-1
50,100,0.4,633,1,68,DL_Guitar,-1,-1
50,100,0.3409090909090909,783,0,68,DL_Guitar,-1,-1
50,100,0.1590909090909091,870,0,68,DL_Guitar,-1,-1
50,100,0.9818181818181818,202,1,69,DL_Guitar,-1,-1
47,100,0.1590909090909091,166,1,70,DL_Guitar,-1,-1
47,100,0.5181818181818182,339,0,70,DL_Guitar,-1,-1
47,100,0.17727272727272728,590,1,70,DL_Guitar,-1,-1
47,100,0.4,656,0,70,DL_Guitar,-1,-1
47,100,0.9636363636363636,839,0,70,DL_Guitar,-1,-1
48,100,0.4409090909090909,862,1,71,DL_Guitar,-1,-1
47,100,0.1409090909090909,289,1,72,DL_Guitar,-1,-1
50,100,0.4590909090909091,360,0,72,DL_Guitar,-1,-1
50,100,0.2818181818181818,532,0,72,DL_Guitar,-1,-1
47,100,0.8,263,1,73,DL_Guitar,-1,-1
47,100,0.21818181818181817,457,0,73,DL_Guitar,-1,-1
47,100,0.6409090909090909,593,0,73,DL_Guitar,-1,-1
47,100,0.740909090909091,276,1,75,DL_Guitar,-1,-1
47,100,0.1,443,0,75,DL_Guitar,-1,-1
47,100,0.1409090909090909,506,0,75,DL_Guitar,-1,-1
47,100,0.5409090909090909,553,0,75,DL_Guitar,-1,-1
48,100,0.1409090909090909,443,1,76,DL_Guitar,-1,-1
59,100,0.2409090909090909,443,1,77,DL_Guitar,-1,-1
57,100,0.23636363636363636,700,1,77,DL_Guitar,-1,-1
57,100,0.2409090909090909,0,1,78,DL_Guitar,-1,-1
57,100,0.1,83,0,78,DL_Guitar,-1,-1
57,100,0.22272727272727272,145,0,78,DL_Guitar,-1,-1
57,100,0.11818181818181818,294,0,78,DL_Guitar,-1,-1
59,100,0.1,360,0,78,DL_Guitar,-1,-1
45,100,0.8590909090909091,722,1,78,DL_Guitar,-1,-1
47,100,0.8636363636363636,862,1,79,DL_Guitar,-1,-1
47,100,0.18181818181818182,210,1,80,DL_Guitar,-1,-1
47,100,0.1409090909090909,267,0,80,DL_Guitar,-1,-1
47,100,1.040909090909091,320,0,80,DL_Guitar,-1,-1
47,100,1.1,563,1,80,DL_Guitar,-1,-1
47,100,0.5,849,1,80,DL_Guitar,-1,-1
47,100,0.11818181818181818,96,1,81,DL_Guitar,-1,-1
48,100,0.8,220,0,81,DL_Guitar,-1,-1
48,100,0.7,475,1,81,DL_Guitar,-1,-1
50,100,0.11818181818181818,74,1,87,DL_Guitar,-1,-1
50,100,0.22272727272727272,113,0,87,DL_Guitar,-1,-1
50,100,0.5590909090909091,233,0,87,DL_Guitar,-1,-1
50,100,0.1409090909090909,377,0,87,DL_Guitar,-1,-1
47,100,0.4590909090909091,260,1,88,DL_Guitar,-1,-1
47,100,0.12272727272727273,399,0,88,DL_Guitar,-1,-1
45,100,0.1,716,1,93,DL_Guitar,-1,-1
43,100,0.1409090909090909,839,0,93,DL_Guitar,-1,-1
62,100,0.2818181818181818,0,1,94,DL_Guitar,-1,-1
62,100,0.11818181818181818,110,0,94,DL_Guitar,-1,-1
62,100,0.1409090909090909,229,0,94,DL_Guitar,-1,-1
64,100,0.35909090909090907,260,0,94,DL_Guitar,-1,-1
55,100,0.17727272727272728,347,0,94,DL_Guitar,-1,-1
62,100,0.21818181818181817,413,0,94,DL_Guitar,-1,-1
62,100,0.13636363636363635,480,0,94,DL_Guitar,-1,-1
64,100,0.3409090909090909,514,0,94,DL_Guitar,-1,-1
50,100,0.5181818181818182,726,1,94,DL_Guitar,-1,-1
62,100,0.1,307,1,95,DL_Guitar,-1,-1
50,100,0.740909090909091,637,1,95,DL_Guitar,-1,-1
62,100,0.12272727272727273,365,1,96,DL_Guitar,-1,-1
64,100,0.13636363636363635,392,0,96,DL_Guitar,-1,-1
62,100,0.1409090909090909,506,0,96,DL_Guitar,-1,-1
64,100,0.38181818181818183,540,0,96,DL_Guitar,-1,-1
62,100,0.11818181818181818,726,0,96,DL_Guitar,-1,-1
62,100,0.17727272727272728,756,0,96,DL_Guitar,-1,-1
64,100,0.3409090909090909,796,0,96,DL_Guitar,-1,-1
50,100,0.18181818181818182,179,1,97,DL_Guitar,-1,-1
50,100,0.1,223,0,97,DL_Guitar,-1,-1
50,100,0.1,276,0,97,DL_Guitar,-1,-1
50,100,0.1,303,0,97,DL_Guitar,-1,-1
62,100,0.2590909090909091,567,1,97,DL_Guitar,-1,-1
50,100,0.9181818181818182,30,1,98,DL_Guitar,-1,-1
50,100,0.18181818181818182,320,1,98,DL_Guitar,-1,-1
50,100,0.3181818181818182,559,1,98,DL_Guitar,-1,-1
50,100,0.21818181818181817,172,1,99,DL_Guitar,-1,-1
50,100,0.18181818181818182,276,0,99,DL_Guitar,-1,-1
50,100,0.1409090909090909,365,0,99,DL_Guitar,-1,-1
50,100,0.2818181818181818,817,1,99,DL_Guitar,-1,-1
50,100,0.1,333,1,100,DL_Guitar,-1,-1
50,100,0.11818181818181818,612,1,100,DL_Guitar,-1,-1
53,100,0.11818181818181818,282,1,0,DL_Guitar,-1,-1
55,100,0.4409090909090909,317,0,0,DL_Guitar,-1,-1
58,100,0.13636363636363635,634,1,0,DL_Guitar,-1,-1
46,100,0.6590909090909091,845,1,0,DL_Guitar,-1,-1
58,100,0.36363636363636365,180,1,1,DL_Guitar,-1,-1
46,100,0.17727272727272728,259,0,1,DL_Guitar,-1,-1
46,100,0.4590909090909091,325,0,1,DL_Guitar,-1,-1
53,100,0.3409090909090909,559,1,1,DL_Guitar,-1,-1
43,100,0.1,263,1,2,DL_Guitar,-1,-1
53,100,0.12272727272727273,651,1,2,DL_Guitar,-1,-1
58,100,0.2590909090909091,21,1,3,DL_Guitar,-1,-1
46,100,0.3,326,1,3,DL_Guitar,-1,-1
53,100,0.2409090909090909,0,1,4,DL_Guitar,-1,-1
53,100,0.6227272727272727,79,0,4,DL_Guitar,-1,-1
53,100,0.4590909090909091,299,1,4,DL_Guitar,-1,-1
41,100,0.33636363636363636,414,0,4,DL_Guitar,-1,-1
53,100,0.11818181818181818,493,0,4,DL_Guitar,-1,-1
53,100,0.3181818181818182,527,0,4,DL_Guitar,-1,-1
53,100,0.17727272727272728,611,0,4,DL_Guitar,-1,-1
53,100,0.2,739,0,4,DL_Guitar,-1,-1
53,100,0.1409090909090909,493,1,5,DL_Guitar,-1,-1
58,100,0.2,524,0,5,DL_Guitar,-1,-1
46,100,0.21818181818181817,831,1,5,DL_Guitar,-1,-1
53,100,0.3,255,1,6,DL_Guitar,-1,-1
41,100,0.37727272727272726,470,1,6,DL_Guitar,-1,-1
53,100,0.17727272727272728,647,0,6,DL_Guitar,-1,-1
41,100,0.11818181818181818,844,0,6,DL_Guitar,-1,-1
41,100,0.1409090909090909,166,1,7,DL_Guitar,-1,-1
43,100,0.2818181818181818,431,1,8,DL_Guitar,-1,-1
58,100,0.5181818181818182,457,1,9,DL_Guitar,-1,-1
46,100,0.21818181818181817,316,1,10,DL_Guitar,-1,-1
46,100,0.6181818181818182,581,1,10,DL_Guitar,-1,-1
53,100,0.18181818181818182,783,1,10,DL_Guitar,-1,-1
53,100,0.2590909090909091,835,0,10,DL_Guitar,-1,-1
41,100,0.23636363636363636,171,1,11,DL_Guitar,-1,-1
41,100,0.22272727272727272,290,0,11,DL_Guitar,-1,-1
41,100,0.11818181818181818,391,0,11,DL_Guitar,-1,-1
41,100,0.21818181818181817,550,0,11,DL_Guitar,-1,-1
41,100,0.23636363636363636,634,0,11,DL_Guitar,-1,-1
41,100,0.1,747,0,11,DL_Guitar,-1,-1
43,100,0.13636363636363635,391,1,12,DL_Guitar,-1,-1
43,100,0.1409090909090909,691,1,12,DL_Guitar,-1,-1
43,100,0.1,220,1,13,DL_Guitar,-1,-1
63,100,0.1,259,0,13,DL_Guitar,-1,-1
51,100,0.21818181818181817,281,0,13,DL_Guitar,-1,-1
41,100,0.11818181818181818,347,1,14,DL_Guitar,-1,-1
41,100,0.2409090909090909,606,1,14,DL_Guitar,-1,-1
53,100,0.11818181818181818,668,0,14,DL_Guitar,-1,-1
41,100,0.22272727272727272,730,0,14,DL_Guitar,-1,-1
43,100,0.11818181818181818,39,1,15,DL_Guitar,-1,-1
43,100,0.18181818181818182,110,0,15,DL_Guitar,-1,-1
43,100,0.2409090909090909,166,0,15,DL_Guitar,-1,-1
55,100,0.5636363636363636,290,0,15,DL_Guitar,-1,-1
53,100,0.38181818181818183,519,1,15,DL_Guitar,-1,-1
53,100,0.18181818181818182,739,1,15,DL_Guitar,-1,-1
53,100,0.17727272727272728,801,0,15,DL_Guitar,-1,-1
41,100,0.36363636363636365,840,0,15,DL_Guitar,-1,-1
53,100,0.22272727272727272,48,1,16,DL_Guitar,-1,-1
41,100,0.4409090909090909,96,0,16,DL_Guitar,-1,-1
41,100,0.1590909090909091,233,0,16,DL_Guitar,-1,-1
53,100,0.11818181818181818,308,0,16,DL_Guitar,-1,-1
53,100,0.12272727272727273,343,0,16,DL_Guitar,-1,-1
41,100,0.21818181818181817,370,0,16,DL_Guitar,-1,-1
53,100,0.2590909090909091,436,0,16,DL_Guitar,-1,-1
41,100,0.1590909090909091,492,0,16,DL_Guitar,-1,-1
53,100,0.2772727272727273,700,1,16,DL_Guitar,-1,-1
46,100,0.21818181818181817,845,0,16,DL_Guitar,-1,-1
46,100,0.6227272727272727,312,1,17,DL_Guitar,-1,-1
53,100,0.17727272727272728,546,1,18,DL_Guitar,-1,-1
53,100,0.2409090909090909,505,1,19,DL_Guitar,-1,-1
48,100,0.11818181818181818,625,0,19,DL_Guitar,-1,-1
53,100,0.2590909090909091,681,0,19,DL_Guitar,-1,-1
53,100,0.13636363636363635,150,1,20,DL_Guitar,-1,-1
58,100,0.2818181818181818,461,1,20,DL_Guitar,-1,-1
43,100,0.1590909090909091,409,1,21,DL_Guitar,-1,-1
53,100,0.43636363636363634,810,1,21,DL_Guitar,-1,-1
53,100,0.2,162,1,22,DL_Guitar,-1,-1
53,100,0.2,299,0,22,DL_Guitar,-1,-1
53,100,0.13636363636363635,436,0,22,DL_Guitar,-1,-1
58,100,0.11818181818181818,0,1,23,DL_Guitar,-1,-1
63,100,0.22272727272727272,100,0,23,DL_Guitar,-1,-1
63,100,0.18181818181818182,179,0,23,DL_Guitar,-1,-1
41,100,0.1,756,1,23,DL_Guitar,-1,-1
41,100,0.1409090909090909,827,0,23,DL_Guitar,-1,-1
43,100,0.17727272727272728,845,1,24,DL_Guitar,-1,-1
53,100,0.1590909090909091,430,1,26,DL_Guitar,-1,-1
53,100,0.4818181818181818,474,0,26,DL_Guitar,-1,-1
41,100,0.1409090909090909,581,0,26,DL_Guitar,-1,-1
41,100,0.13636363636363635,633,0,26,DL_Guitar,-1,-1
53,100,0.11818181818181818,700,0,26,DL_Guitar,-1,-1
53,100,0.1,756,0,26,DL_Guitar,-1,-1
53,100,0.2590909090909091,801,0,26,DL_Guitar,-1,-1
53,100,0.2818181818181818,870,0,26,DL_Guitar,-1,-1
53,100,0.21818181818181817,131,1,27,DL_Guitar,-1,-1
51,100,0.9590909090909091,260,0,27,DL_Guitar,-1,-1
51,100,0.1409090909090909,694,1,27,DL_Guitar,-1,-1
63,100,0.33636363636363636,106,1,28,DL_Guitar,-1,-1
53,100,0.1,426,1,28,DL_Guitar,-1,-1
48,100,0.8590909090909091,484,0,28,DL_Guitar,-1,-1
51,100,0.1409090909090909,760,1,29,DL_Guitar,-1,-1
51,100,0.1409090909090909,827,0,29,DL_Guitar,-1,-1
41,100,0.11818181818181818,44,1,30,DL_Guitar,-1,-1
48,100,0.11818181818181818,193,0,30,DL_Guitar,-1,-1
41,100,0.2590909090909091,299,0,30,DL_Guitar,-1,-1
41,100,0.1590909090909091,360,0,30,DL_Guitar,-1,-1
41,100,0.17727272727272728,559,1,30,DL_Guitar,-1,-1
53,100,0.2409090909090909,607,0,30,DL_Guitar,-1,-1
46,100,0.22272727272727272,818,1,30,DL_Guitar,-1,-1
58,100,0.8409090909090909,866,0,30,DL_Guitar,-1,-1
58,100,0.1409090909090909,405,1,31,DL_Guitar,-1,-1
41,100,0.3,603,1,32,DL_Guitar,-1,-1
41,100,0.2,848,1,32,DL_Guitar,-1,-1
58,100,0.11818181818181818,43,1,33,DL_Guitar,-1,-1
58,100,1.0,118,0,33,DL_Guitar,-1,-1
53,100,0.2,364,1,33,DL_Guitar,-1,-1
58,100,0.21818181818181817,616,1,33,DL_Guitar,-1,-1
58,100,0.17727272727272728,765,0,33,DL_Guitar,-1,-1
53,100,0.2818181818181818,123,1,35,DL_Guitar,-1,-1
50,100,0.1409090909090909,515,1,35,DL_Guitar,-1,-1
55,100,0.1409090909090909,483,1,36,DL_Guitar,-1,-1
43,100,0.1590909090909091,735,1,36,DL_Guitar,-1,-1
55,100,0.2,818,0,36,DL_Guitar,-1,-1
55,100,0.2409090909090909,34,1,37,DL_Guitar,-1,-1
55,100,0.1409090909090909,228,0,37,DL_Guitar,-1,-1
53,100,0.1590909090909091,616,1,37,DL_Guitar,-1,-1
53,100,0.2,678,0,37,DL_Guitar,-1,-1
53,100,0.2,866,0,37,DL_Guitar,-1,-1
53,100,0.2,114,1,38,DL_Guitar,-1,-1
53,100,0.2590909090909091,298,0,38,DL_Guitar,-1,-1
53,100,0.32272727272727275,431,0,38,DL_Guitar,-1,-1
51,100,0.2409090909090909,584,0,38,DL_Guitar,-1,-1
51,100,0.32272727272727275,751,0,38,DL_Guitar,-1,-1
53,100,0.22272727272727272,518,1,39,DL_Guitar,-1,-1
41,100,0.1409090909090909,581,0,39,DL_Guitar,-1,-1
41,100,0.11818181818181818,845,1,39,DL_Guitar,-1,-1
53,100,0.3,13,1,40,DL_Guitar,-1,-1
46,100,0.37727272727272726,171,0,40,DL_Guitar,-1,-1
58,100,0.3181818181818182,338,0,40,DL_Guitar,-1,-1
58,100,0.38181818181818183,571,1,40,DL_Guitar,-1,-1
43,100,0.1409090909090909,123,1,41,DL_Guitar,-1,-1
53,100,0.2409090909090909,813,1,41,DL_Guitar,-1,-1
41,100,0.11818181818181818,131,1,42,DL_Guitar,-1,-1
53,100,0.2,298,0,42,DL_Guitar,-1,-1
48,100,1.518181818181818,568,1,43,DL_Guitar,-1,-1
53,100,0.4636363636363636,378,1,44,DL_Guitar,-1,-1
53,100,0.1409090909090909,483,0,44,DL_Guitar,-1,-1
53,100,0.17727272727272728,193,1,46,DL_Guitar,-1,-1
53,100,0.3409090909090909,246,0,46,DL_Guitar,-1,-1
46,100,0.21818181818181817,448,1,46,DL_Guitar,-1,-1
53,100,0.4590909090909091,396,1,47,DL_Guitar,-1,-1
53,100,0.7181818181818181,655,1,47,DL_Guitar,-1,-1
53,100,0.6818181818181818,839,0,47,DL_Guitar,-1,-1
58,100,0.5409090909090909,289,1,48,DL_Guitar,-1,-1
53,100,0.17727272727272728,536,1,48,DL_Guitar,-1,-1
57,100,0.21818181818181817,791,1,48,DL_Guitar,-1,-1
53,100,0.21818181818181817,286,1,49,DL_Guitar,-1,-1
54,100,0.11818181818181818,616,1,49,DL_Guitar,-1,-1
53,100,0.2590909090909091,678,0,49,DL_Guitar,-1,-1
53,100,0.2,128,1,50,DL_Guitar,-1,-1
53,100,0.18181818181818182,286,0,50,DL_Guitar,-1,-1
53,100,0.11818181818181818,330,0,50,DL_Guitar,-1,-1
53,100,0.1590909090909091,370,0,50,DL_Guitar,-1,-1
58,100,0.1409090909090909,681,1,56,DL_Guitar,-1,-1
53,100,0.11818181818181818,396,1,58,DL_Guitar,-1,-1
53,100,0.1409090909090909,509,0,58,DL_Guitar,-1,-1
53,100,0.37727272727272726,646,0,58,DL_Guitar,-1,-1
58,100,0.11818181818181818,858,1,58,DL_Guitar,-1,-1
53,100,0.4,150,1,59,DL_Guitar,-1,-1
58,100,0.12272727272727273,276,0,59,DL_Guitar,-1,-1
63,100,0.4409090909090909,703,1,74,DL_Guitar,-1,-1
63,100,0.3409090909090909,826,0,74,DL_Guitar,-1,-1
53,100,0.3409090909090909,487,1,75,DL_Guitar,-1,-1
48,100,0.11818181818181818,633,0,75,DL_Guitar,-1,-1
53,100,0.12272727272727273,805,0,75,DL_Guitar,-1,-1
41,100,0.2,832,0,75,DL_Guitar,-1,-1
53,100,0.23636363636363636,876,0,75,DL_Guitar,-1,-1
46,100,0.37727272727272726,493,1,76,DL_Guitar,-1,-1
46,100,0.21818181818181817,612,0,76,DL_Guitar,-1,-1
58,100,0.1409090909090909,770,1,86,DL_Guitar,-1,-1
58,100,0.4590909090909091,132,1,87,DL_Guitar,-1,-1
41,100,1.0,267,0,87,DL_Guitar,-1,-1
60,100,0.18181818181818182,487,1,87,DL_Guitar,-1,-1
41,100,0.11818181818181818,536,0,87,DL_Guitar,-1,-1
48,100,0.4818181818181818,619,0,87,DL_Guitar,-1,-1
53,100,0.1590909090909091,153,1,88,DL_Guitar,-1,-1
53,100,0.22272727272727272,202,0,88,DL_Guitar,-1,-1
53,100,0.3,286,0,88,DL_Guitar,-1,-1
62,100,0.33636363636363636,523,1,88,DL_Guitar,-1,-1
53,100,0.16363636363636364,839,1,88,DL_Guitar,-1,-1
48,100,0.1590909090909091,299,1,89,DL_Guitar,-1,-1
41,100,0.8409090909090909,597,1,89,DL_Guitar,-1,-1
48,100,0.21818181818181817,43,1,90,DL_Guitar,-1,-1
48,100,0.11818181818181818,106,0,90,DL_Guitar,-1,-1
58,100,0.5409090909090909,197,0,90,DL_Guitar,-1,-1
58,100,0.1,509,1,90,DL_Guitar,-1,-1
43,100,0.9590909090909091,593,0,90,DL_Guitar,-1,-1
62,100,0.1590909090909091,810,1,90,DL_Guitar,-1,-1
43,100,0.32272727272727275,92,1,91,DL_Guitar,-1,-1
62,100,0.22272727272727272,246,0,91,DL_Guitar,-1,-1
51,100,1.5,303,0,91,DL_Guitar,-1,-1
53,100,1.040909090909091,703,1,91,DL_Guitar,-1,-1
41,100,0.5181818181818182,53,1,92,DL_Guitar,-1,-1
41,100,0.5,179,0,92,DL_Guitar,-1,-1
53,100,0.18181818181818182,289,0,92,DL_Guitar,-1,-1
41,100,0.2590909090909091,360,0,92,DL_Guitar,-1,-1
53,100,0.4,430,0,92,DL_Guitar,-1,-1
49,100,0.1590909090909091,449,1,0,DL_Guitar,-1,-1
61,100,0.1590909090909091,541,0,0,DL_Guitar,-1,-1
53,100,0.13636363636363635,172,1,1,DL_Guitar,-1,-1
53,100,0.16363636363636364,224,0,1,DL_Guitar,-1,-1
42,100,0.4818181818181818,365,0,1,DL_Guitar,-1,-1
49,100,0.2,541,0,1,DL_Guitar,-1,-1
46,100,0.43636363636363634,479,1,2,DL_Guitar,-1,-1
56,100,0.2772727272727273,625,0,2,DL_Guitar,-1,-1
46,100,0.11818181818181818,735,0,2,DL_Guitar,-1,-1
46,100,0.12272727272727273,796,0,2,DL_Guitar,-1,-1
53,100,0.38181818181818183,461,1,3,DL_Guitar,-1,-1
51,100,0.2590909090909091,712,1,3,DL_Guitar,-1,-1
44,100,0.16363636363636364,840,0,3,DL_Guitar,-1,-1
51,100,0.5363636363636364,194,1,4,DL_Guitar,-1,-1
41,100,0.4590909090909091,330,0,4,DL_Guitar,-1,-1
42,100,0.2636363636363636,444,0,4,DL_Guitar,-1,-1
48,100,0.17727272727272728,524,0,4,DL_Guitar,-1,-1
49,100,0.11818181818181818,703,0,4,DL_Guitar,-1,-1
49,100,0.3409090909090909,734,0,4,DL_Guitar,-1,-1
61,100,0.12272727272727273,818,0,4,DL_Guitar,-1,-1
61,100,0.16363636363636364,179,1,5,DL_Guitar,-1,-1
61,100,0.2,260,0,5,DL_Guitar,-1,-1
61,100,0.2818181818181818,355,0,5,DL_Guitar,-1,-1
49,100,0.1,527,0,5,DL_Guitar,-1,-1
61,100,0.4590909090909091,660,0,5,DL_Guitar,-1,-1
49,100,0.5409090909090909,53,1,6,DL_Guitar,-1,-1
61,100,0.16363636363636364,201,0,6,DL_Guitar,-1,-1
61,100,0.11818181818181818,383,0,6,DL_Guitar,-1,-1
61,100,0.5409090909090909,703,1,6,DL_Guitar,-1,-1
61,100,0.12272727272727273,839,0,6,DL_Guitar,-1,-1
46,100,0.4772727272727273,61,1,7,DL_Guitar,-1,-1
53,100,0.17727272727272728,734,1,7,DL_Guitar,-1,-1
41,100,0.12272727272727273,70,1,8,DL_Guitar,-1,-1
44,100,0.2590909090909091,171,0,8,DL_Guitar,-1,-1
51,100,0.12272727272727273,290,0,8,DL_Guitar,-1,-1
44,100,0.1,558,1,8,DL_Guitar,-1,-1
56,100,0.18181818181818182,598,0,8,DL_Guitar,-1,-1
44,100,0.4409090909090909,673,0,8,DL_Guitar,-1,-1
51,100,0.12272727272727273,783,0,8,DL_Guitar,-1,-1
51,100,0.17727272727272728,149,1,9,DL_Guitar,-1,-1
42,100,0.1,352,1,9,DL_Guitar,-1,-1
54,100,0.1590909090909091,374,0,9,DL_Guitar,-1,-1
54,100,0.11818181818181818,426,0,9,DL_Guitar,-1,-1
42,100,0.17727272727272728,809,1,9,DL_Guitar,-1,-1
54,100,0.5227272727272727,849,0,9,DL_Guitar,-1,-1
49,100,0.22272727272727272,409,1,10,DL_Guitar,-1,-1
49,100,0.11818181818181818,505,0,10,DL_Guitar,-1,-1
56,100,0.5,660,0,10,DL_Guitar,-1,-1
53,100,0.11818181818181818,823,0,10,DL_Guitar,-1,-1
61,100,0.17727272727272728,338,1,11,DL_Guitar,-1,-1
61,100,0.1,391,0,11,DL_Guitar,-1,-1
54,100,0.1409090909090909,505,0,11,DL_Guitar,-1,-1
54,100,0.5636363636363636,575,0,11,DL_Guitar,-1,-1
49,100,0.6181818181818182,132,1,12,DL_Guitar,-1,-1
54,100,0.21818181818181817,501,1,12,DL_Guitar,-1,-1
53,100,0.2590909090909091,550,0,12,DL_Guitar,-1,-1
49,100,0.2590909090909091,646,0,12,DL_Guitar,-1,-1
49,100,0.41818181818181815,713,0,12,DL_Guitar,-1,-1
56,100,0.2409090909090909,8,1,13,DL_Guitar,-1,-1
49,100,0.17727272727272728,127,0,13,DL_Guitar,-1,-1
49,100,0.11818181818181818,391,1,13,DL_Guitar,-1,-1
49,100,0.1409090909090909,453,0,13,DL_Guitar,-1,-1
61,100,0.4409090909090909,527,0,13,DL_Guitar,-1,-1
61,100,0.12272727272727273,642,0,13,DL_Guitar,-1,-1
44,100,0.6818181818181818,773,0,13,DL_Guitar,-1,-1
56,100,0.2590909090909091,44,1,14,DL_Guitar,-1,-1
51,100,0.1409090909090909,185,0,14,DL_Guitar,-1,-1
51,100,0.17727272727272728,250,0,14,DL_Guitar,-1,-1
56,100,0.37727272727272726,391,0,14,DL_Guitar,-1,-1
60,100,0.12272727272727273,510,0,14,DL_Guitar,-1,-1
51,100,0.1590909090909091,704,0,14,DL_Guitar,-1,-1
56,100,0.4,801,0,14,DL_Guitar,-1,-1
56,100,0.1590909090909091,118,1,15,DL_Guitar,-1,-1
56,100,0.2409090909090909,166,0,15,DL_Guitar,-1,-1
51,100,0.5,220,0,15,DL_Guitar,-1,-1
51,100,0.21818181818181817,352,0,15,DL_Guitar,-1,-1
51,100,0.5590909090909091,479,0,15,DL_Guitar,-1,-1
44,100,0.2636363636363636,795,1,15,DL_Guitar,-1,-1
54,100,0.2,123,1,16,DL_Guitar,-1,-1
49,100,0.2409090909090909,167,0,16,DL_Guitar,-1,-1
61,100,0.2,466,1,16,DL_Guitar,-1,-1
53,100,0.1,540,0,16,DL_Guitar,-1,-1
61,100,0.43636363636363634,677,0,16,DL_Guitar,-1,-1
49,100,0.2636363636363636,773,0,16,DL_Guitar,-1,-1
61,100,0.1,835,0,16,DL_Guitar,-1,-1
61,100,0.35909090909090907,0,1,17,DL_Guitar,-1,-1
61,100,0.1590909090909091,96,0,17,DL_Guitar,-1,-1
63,100,0.1409090909090909,272,0,17,DL_Guitar,-1,-1
51,100,0.18181818181818182,312,0,17,DL_Guitar,-1,-1
56,100,0.17727272727272728,470,0,17,DL_Guitar,-1,-1
56,100,0.2772727272727273,515,0,17,DL_Guitar,-1,-1
44,100,0.1409090909090909,602,0,17,DL_Guitar,-1,-1
56,100,0.17727272727272728,810,1,17,DL_Guitar,-1,-1
56,100,0.12272727272727273,13,1,18,DL_Guitar,-1,-1
56,100,0.11818181818181818,44,0,18,DL_Guitar,-1,-1
61,100,0.16363636363636364,92,0,18,DL_Guitar,-1,-1
53,100,0.1590909090909091,272,0,18,DL_Guitar,-1,-1
61,100,0.1590909090909091,360,0,18,DL_Guitar,-1,-1
49,100,0.18181818181818182,395,0,18,DL_Guitar,-1,-1
54,100,0.12272727272727273,453,0,18,DL_Guitar,-1,-1
54,100,0.38181818181818183,484,0,18,DL_Guitar,-1,-1
61,100,0.2772727272727273,581,0,18,DL_Guitar,-1,-1
54,100,0.2,650,0,18,DL_Guitar,-1,-1
54,100,0.1590909090909091,712,0,18,DL_Guitar,-1,-1
61,100,0.1409090909090909,752,0,18,DL_Guitar,-1,-1
49,100,0.5590909090909091,827,0,18,DL_Guitar,-1,-1
49,100,0.3409090909090909,110,1,19,DL_Guitar,-1,-1
61,100,0.13636363636363635,216,0,19,DL_Guitar,-1,-1
61,100,0.43636363636363634,281,0,19,DL_Guitar,-1,-1
63,100,0.2590909090909091,700,1,19,DL_Guitar,-1,-1
61,100,0.5,193,1,20,DL_Guitar,-1,-1
60,100,0.11818181818181818,501,1,20,DL_Guitar,-1,-1
42,100,0.18181818181818182,576,0,20,DL_Guitar,-1,-1
49,100,0.2,633,0,20,DL_Guitar,-1,-1
42,100,0.2,760,0,20,DL_Guitar,-1,-1
61,100,0.18181818181818182,835,0,20,DL_Guitar,-1,-1
45,100,0.1590909090909091,264,1,21,DL_Guitar,-1,-1
63,100,0.2,497,1,21,DL_Guitar,-1,-1
46,100,0.2409090909090909,739,1,21,DL_Guitar,-1,-1
61,100,0.1409090909090909,581,1,22,DL_Guitar,-1,-1
61,100,0.2409090909090909,638,0,22,DL_Guitar,-1,-1
61,100,0.2409090909090909,735,0,22,DL_Guitar,-1,-1
56,100,0.22272727272727272,233,1,23,DL_Guitar,-1,-1
44,100,0.11818181818181818,505,1,23,DL_Guitar,-1,-1
49,100,0.2,48,1,24,DL_Guitar,-1,-1
49,100,0.1409090909090909,144,0,24,DL_Guitar,-1,-1
49,100,0.33636363636363636,260,0,24,DL_Guitar,-1,-1
61,100,0.21818181818181817,339,0,24,DL_Guitar,-1,-1
61,100,0.43636363636363634,413,0,24,DL_Guitar,-1,-1
61,100,0.5772727272727273,625,1,24,DL_Guitar,-1,-1
61,100,0.11818181818181818,770,0,24,DL_Guitar,-1,-1
49,100,0.18181818181818182,796,0,24,DL_Guitar,-1,-1
61,100,0.5818181818181818,835,0,24,DL_Guitar,-1,-1
61,100,0.2409090909090909,88,1,25,DL_Guitar,-1,-1
54,100,0.5409090909090909,144,0,25,DL_Guitar,-1,-1
54,100,0.4,295,0,25,DL_Guitar,-1,-1
54,100,0.5590909090909091,413,0,25,DL_Guitar,-1,-1
54,100,0.11818181818181818,550,0,25,DL_Guitar,-1,-1
51,100,0.12272727272727273,773,1,25,DL_Guitar,-1,-1
51,100,0.2409090909090909,839,0,25,DL_Guitar,-1,-1
57,100,0.1,272,1,26,DL_Guitar,-1,-1
45,100,0.17727272727272728,295,0,26,DL_Guitar,-1,-1
45,100,0.2590909090909091,347,0,26,DL_Guitar,-1,-1
45,100,0.18181818181818182,409,0,26,DL_Guitar,-1,-1
46,100,0.2,831,1,26,DL_Guitar,-1,-1
61,100,1.0636363636363637,26,1,27,DL_Guitar,-1,-1
61,100,0.11818181818181818,339,1,27,DL_Guitar,-1,-1
42,100,0.2,387,0,27,DL_Guitar,-1,-1
49,100,0.2409090909090909,515,0,27,DL_Guitar,-1,-1
61,100,0.2,638,0,27,DL_Guitar,-1,-1
61,100,0.4,773,0,27,DL_Guitar,-1,-1
51,100,0.18181818181818182,131,1,28,DL_Guitar,-1,-1
60,100,0.2590909090909091,250,0,28,DL_Guitar,-1,-1
60,100,0.2590909090909091,382,0,28,DL_Guitar,-1,-1
60,100,0.13636363636363635,457,0,28,DL_Guitar,-1,-1
53,100,0.5772727272727273,501,0,28,DL_Guitar,-1,-1
53,100,0.22272727272727272,673,0,28,DL_Guitar,-1,-1
53,100,0.11818181818181818,0,1,29,DL_Guitar,-1,-1
44,100,0.11818181818181818,370,1,29,DL_Guitar,-1,-1
54,100,0.11818181818181818,611,1,29,DL_Guitar,-1,-1
54,100,0.12272727272727273,686,0,29,DL_Guitar,-1,-1
54,100,0.41818181818181815,725,0,29,DL_Guitar,-1,-1
42,100,0.1590909090909091,30,1,30,DL_Guitar,-1,-1
54,100,0.7181818181818181,65,0,30,DL_Guitar,-1,-1
54,100,0.2,246,0,30,DL_Guitar,-1,-1
49,100,0.6409090909090909,536,1,30,DL_Guitar,-1,-1
53,100,0.23636363636363636,721,0,30,DL_Guitar,-1,-1
60,100,0.1,787,0,30,DL_Guitar,-1,-1
53,100,0.5363636363636364,831,0,30,DL_Guitar,-1,-1
53,100,0.9181818181818182,127,1,31,DL_Guitar,-1,-1
53,100,0.4,356,1,31,DL_Guitar,-1,-1
61,100,0.4,488,0,31,DL_Guitar,-1,-1
61,100,0.8,642,0,31,DL_Guitar,-1,-1
61,100,0.18181818181818182,0,1,32,DL_Guitar,-1,-1
61,100,0.13636363636363635,171,0,32,DL_Guitar,-1,-1
42,100,0.35909090909090907,233,0,32,DL_Guitar,-1,-1
42,100,0.2,391,0,32,DL_Guitar,-1,-1
54,100,0.1409090909090909,453,0,32,DL_Guitar,-1,-1
49,100,0.1409090909090909,593,0,32,DL_Guitar,-1,-1
61,100,0.11818181818181818,668,0,32,DL_Guitar,-1,-1
56,100,0.11818181818181818,845,0,32,DL_Guitar,-1,-1
53,100,0.22272727272727272,211,1,33,DL_Guitar,-1,-1
53,100,0.5409090909090909,321,0,33,DL_Guitar,-1,-1
53,100,0.42272727272727273,444,0,33,DL_Guitar,-1,-1
61,100,0.2590909090909091,633,0,33,DL_Guitar,-1,-1
53,100,0.11818181818181818,713,0,33,DL_Guitar,-1,-1
56,100,0.11818181818181818,31,1,34,DL_Guitar,-1,-1
54,100,0.18181818181818182,201,0,34,DL_Guitar,-1,-1
54,100,0.6227272727272727,289,0,34,DL_Guitar,-1,-1
42,100,0.11818181818181818,461,0,34,DL_Guitar,-1,-1
42,100,0.18181818181818182,509,0,34,DL_Guitar,-1,-1
42,100,0.1,581,0,34,DL_Guitar,-1,-1
54,100,0.1409090909090909,619,0,34,DL_Guitar,-1,-1
54,100,0.3409090909090909,694,0,34,DL_Guitar,-1,-1
49,100,0.1590909090909091,848,0,34,DL_Guitar,-1,-1
61,100,0.11818181818181818,118,1,35,DL_Guitar,-1,-1
53,100,0.2409090909090909,308,0,35,DL_Guitar,-1,-1
53,100,0.4,421,0,35,DL_Guitar,-1,-1
60,100,0.2,576,0,35,DL_Guitar,-1,-1
60,100,0.1409090909090909,625,0,35,DL_Guitar,-1,-1
53,100,1.018181818181818,691,0,35,DL_Guitar,-1,-1
61,100,0.38181818181818183,69,1,36,DL_Guitar,-1,-1
61,100,0.2636363636363636,356,1,36,DL_Guitar,-1,-1
54,100,0.8227272727272728,421,0,36,DL_Guitar,-1,-1
42,100,0.4,691,1,36,DL_Guitar,-1,-1
42,100,0.17727272727272728,853,0,36,DL_Guitar,-1,-1
54,100,0.2409090909090909,153,1,37,DL_Guitar,-1,-1
42,100,0.1,215,0,37,DL_Guitar,-1,-1
54,100,0.11818181818181818,238,0,37,DL_Guitar,-1,-1
54,100,0.1590909090909091,298,0,37,DL_Guitar,-1,-1
42,100,0.18181818181818182,334,0,37,DL_Guitar,-1,-1
54,100,0.11818181818181818,418,0,37,DL_Guitar,-1,-1
42,100,0.32272727272727275,444,0,37,DL_Guitar,-1,-1
51,100,0.2409090909090909,616,0,37,DL_Guitar,-1,-1
51,100,0.4,686,0,37,DL_Guitar,-1,-1
44,100,0.4818181818181818,796,0,37,DL_Guitar,-1,-1
56,100,0.5,40,1,38,DL_Guitar,-1,-1
44,100,0.11818181818181818,163,0,38,DL_Guitar,-1,-1
51,100,0.2,418,1,38,DL_Guitar,-1,-1
51,100,0.18181818181818182,496,0,38,DL_Guitar,-1,-1
51,100,0.35909090909090907,558,0,38,DL_Guitar,-1,-1
54,100,0.1590909090909091,713,0,38,DL_Guitar,-1,-1
49,100,0.12272727272727273,751,0,38,DL_Guitar,-1,-1
61,100,0.7818181818181819,791,0,38,DL_Guitar,-1,-1
61,100,0.5590909090909091,141,1,39,DL_Guitar,-1,-1
49,100,0.3409090909090909,289,0,39,DL_Guitar,-1,-1
61,100,0.3409090909090909,364,0,39,DL_Guitar,-1,-1
49,100,0.4,440,0,39,DL_Guitar,-1,-1
61,100,0.6181818181818182,568,0,39,DL_Guitar,-1,-1
49,100,0.2,703,0,39,DL_Guitar,-1,-1
44,100,0.18181818181818182,813,0,39,DL_Guitar,-1,-1
44,100,0.11818181818181818,875,0,39,DL_Guitar,-1,-1
56,100,0.12272727272727273,48,1,40,DL_Guitar,-1,-1
60,100,0.11818181818181818,295,1,40,DL_Guitar,-1,-1
53,100,0.5409090909090909,399,0,40,DL_Guitar,-1,-1
61,100,0.5181818181818182,703,1,40,DL_Guitar,-1,-1
49,100,0.4409090909090909,66,1,41,DL_Guitar,-1,-1
61,100,0.5590909090909091,193,0,41,DL_Guitar,-1,-1
61,100,0.3,396,1,41,DL_Guitar,-1,-1
61,100,0.41818181818181815,691,1,41,DL_Guitar,-1,-1
61,100,0.9409090909090909,804,0,41,DL_Guitar,-1,-1
44,100,0.2772727272727273,163,1,42,DL_Guitar,-1,-1
56,100,0.11818181818181818,303,0,42,DL_Guitar,-1,-1
53,100,0.5,638,1,42,DL_Guitar,-1,-1
53,100,0.21818181818181817,0,1,43,DL_Guitar,-1,-1
61,100,0.4636363636363636,48,0,43,DL_Guitar,-1,-1
49,100,0.2409090909090909,273,1,43,DL_Guitar,-1,-1
61,100,0.1590909090909091,373,0,43,DL_Guitar,-1,-1
61,100,0.11818181818181818,448,0,43,DL_Guitar,-1,-1
44,100,0.2590909090909091,801,1,43,DL_Guitar,-1,-1
56,100,0.16363636363636364,311,1,44,DL_Guitar,-1,-1
61,100,0.1409090909090909,660,1,44,DL_Guitar,-1,-1
61,100,0.2409090909090909,694,0,44,DL_Guitar,-1,-1
61,100,0.4409090909090909,118,1,45,DL_Guitar,-1,-1
61,100,0.2,426,1,45,DL_Guitar,-1,-1
54,100,0.1409090909090909,603,0,45,DL_Guitar,-1,-1
54,100,0.1,751,0,45,DL_Guitar,-1,-1
44,100,0.1409090909090909,43,1,46,DL_Guitar,-1,-1
56,100,0.1590909090909091,96,0,46,DL_Guitar,-1,-1
49,100,0.2590909090909091,220,0,46,DL_Guitar,-1,-1
56,100,0.2,466,1,46,DL_Guitar,-1,-1
44,100,0.12272727272727273,541,0,46,DL_Guitar,-1,-1
51,100,0.1590909090909091,34,1,47,DL_Guitar,-1,-1
58,100,0.1409090909090909,224,0,47,DL_Guitar,-1,-1
61,100,0.18181818181818182,396,0,47,DL_Guitar,-1,-1
58,100,0.1,593,0,47,DL_Guitar,-1,-1
44,100,0.11818181818181818,668,0,47,DL_Guitar,-1,-1
56,100,0.1590909090909091,260,1,48,DL_Guitar,-1,-1
56,100,0.2818181818181818,518,1,48,DL_Guitar,-1,-1
56,100,0.17727272727272728,633,0,48,DL_Guitar,-1,-1
61,100,0.1409090909090909,694,0,48,DL_Guitar,-1,-1
63,100,0.18181818181818182,770,0,48,DL_Guitar,-1,-1
56,100,0.2590909090909091,260,1,49,DL_Guitar,-1,-1
51,100,0.11818181818181818,391,0,49,DL_Guitar,-1,-1
61,100,0.2590909090909091,633,1,49,DL_Guitar,-1,-1
49,100,0.2818181818181818,123,1,50,DL_Guitar,-1,-1
54,100,0.3409090909090909,188,0,50,DL_Guitar,-1,-1
54,100,0.1590909090909091,405,1,50,DL_Guitar,-1,-1
56,100,0.16363636363636364,509,0,50,DL_Guitar,-1,-1
56,100,0.5227272727272727,751,1,50,DL_Guitar,-1,-1
61,100,0.2590909090909091,875,0,50,DL_Guitar,-1,-1
56,100,0.2590909090909091,56,1,51,DL_Guitar,-1,-1
44,100,0.1,215,0,51,DL_Guitar,-1,-1
56,100,0.5181818181818182,308,0,51,DL_Guitar,-1,-1
56,100,0.3,444,0,51,DL_Guitar,-1,-1
56,100,0.4409090909090909,550,0,51,DL_Guitar,-1,-1
56,100,0.38181818181818183,686,0,51,DL_Guitar,-1,-1
56,100,0.4590909090909091,791,0,51,DL_Guitar,-1,-1
56,100,0.4772727272727273,61,1,52,DL_Guitar,-1,-1
56,100,0.18181818181818182,233,0,52,DL_Guitar,-1,-1
54,100,0.3,311,0,52,DL_Guitar,-1,-1
49,100,0.5818181818181818,396,0,52,DL_Guitar,-1,-1
56,100,0.2,40,1,53,DL_Guitar,-1,-1
56,100,0.18181818181818182,110,0,53,DL_Guitar,-1,-1
51,100,0.5409090909090909,153,0,53,DL_Guitar,-1,-1
56,100,0.2590909090909091,281,0,53,DL_Guitar,-1,-1
63,100,0.11818181818181818,373,0,53,DL_Guitar,-1,-1
49,100,0.4409090909090909,606,1,53,DL_Guitar,-1,-1
56,100,0.16363636363636364,774,0,53,DL_Guitar,-1,-1
56,100,0.22272727272727272,848,0,53,DL_Guitar,-1,-1
61,100,0.2409090909090909,48,1,54,DL_Guitar,-1,-1
56,100,0.2,110,0,54,DL_Guitar,-1,-1
61,100,0.2,810,1,54,DL_Guitar,-1,-1
54,100,0.38181818181818183,861,0,54,DL_Guitar,-1,-1
44,100,0.2,96,1,55,DL_Guitar,-1,-1
49,100,0.4,163,0,55,DL_Guitar,-1,-1
49,100,0.35909090909090907,295,0,55,DL_Guitar,-1,-1
56,100,0.36363636363636365,818,1,55,DL_Guitar,-1,-1
61,100,2.040909090909091,268,1,56,DL_Guitar,-1,-1
49,100,0.3409090909090909,791,1,56,DL_Guitar,-1,-1
61,100,0.5772727272727273,866,0,56,DL_Guitar,-1,-1
49,100,0.11818181818181818,286,1,57,DL_Guitar,-1,-1
49,100,0.9181818181818182,435,0,57,DL_Guitar,-1,-1
49,100,0.1590909090909091,726,1,57,DL_Guitar,-1,-1
44,100,0.1409090909090909,8,1,58,DL_Guitar,-1,-1
44,100,0.17727272727272728,128,0,58,DL_Guitar,-1,-1
56,100,0.21818181818181817,361,1,58,DL_Guitar,-1,-1
61,100,1.759090909090909,550,0,58,DL_Guitar,-1,-1
61,100,0.1590909090909091,215,1,59,DL_Guitar,-1,-1
49,100,0.1,325,0,59,DL_Guitar,-1,-1
61,100,0.1409090909090909,373,0,59,DL_Guitar,-1,-1
56,100,0.22272727272727272,541,0,59,DL_Guitar,-1,-1
57,100,0.1590909090909091,726,0,59,DL_Guitar,-1,-1
57,100,0.35909090909090907,783,0,59,DL_Guitar,-1,-1
53,100,0.2,875,0,59,DL_Guitar,-1,-1
57,100,0.2409090909090909,48,1,60,DL_Guitar,-1,-1
45,100,0.12272727272727273,136,0,60,DL_Guitar,-1,-1
61,100,0.23636363636363636,171,0,60,DL_Guitar,-1,-1
61,100,1.1181818181818182,228,0,60,DL_Guitar,-1,-1
46,100,0.21818181818181817,493,1,60,DL_Guitar,-1,-1
61,100,2.2409090909090907,673,0,60,DL_Guitar,-1,-1
61,100,0.5818181818181818,364,1,61,DL_Guitar,-1,-1
61,100,0.3409090909090909,531,0,61,DL_Guitar,-1,-1
42,100,0.1590909090909091,681,0,61,DL_Guitar,-1,-1
51,100,0.1590909090909091,21,1,62,DL_Guitar,-1,-1
44,100,0.21818181818181817,163,0,62,DL_Guitar,-1,-1
61,100,0.8818181818181818,461,1,62,DL_Guitar,-1,-1
61,100,0.5,681,1,62,DL_Guitar,-1,-1
61,100,0.2636363636363636,796,0,62,DL_Guitar,-1,-1
61,100,1.9636363636363636,48,1,63,DL_Guitar,-1,-1
61,100,0.2409090909090909,576,1,63,DL_Guitar,-1,-1
42,100,0.9409090909090909,628,0,63,DL_Guitar,-1,-1
42,100,0.9181818181818182,858,1,63,DL_Guitar,-1,-1
49,100,0.6,189,1,64,DL_Guitar,-1,-1
61,100,0.5409090909090909,440,1,64,DL_Guitar,-1,-1
49,100,0.12272727272727273,629,0,64,DL_Guitar,-1,-1
56,100,0.4,713,0,64,DL_Guitar,-1,-1
44,100,0.2409090909090909,800,0,64,DL_Guitar,-1,-1
56,100,0.2772727272727273,853,0,64,DL_Guitar,-1,-1
44,100,0.5409090909090909,184,1,65,DL_Guitar,-1,-1
46,100,0.6590909090909091,307,0,65,DL_Guitar,-1,-1
53,100,0.9590909090909091,470,0,65,DL_Guitar,-1,-1
54,100,0.1590909090909091,805,1,65,DL_Guitar,-1,-1
42,100,0.1409090909090909,839,0,65,DL_Guitar,-1,-1
54,100,0.11818181818181818,40,1,66,DL_Guitar,-1,-1
54,100,0.3,106,0,66,DL_Guitar,-1,-1
42,100,0.1409090909090909,242,0,66,DL_Guitar,-1,-1
54,100,0.2590909090909091,273,0,66,DL_Guitar,-1,-1
54,100,0.1409090909090909,404,0,66,DL_Guitar,-1,-1
49,100,0.5,436,0,66,DL_Guitar,-1,-1
56,100,0.18181818181818182,729,1,66,DL_Guitar,-1,-1
49,100,0.5227272727272727,796,0,66,DL_Guitar,-1,-1
44,100,0.2772727272727273,53,1,67,DL_Guitar,-1,-1
56,100,0.740909090909091,113,0,67,DL_Guitar,-1,-1
44,100,0.18181818181818182,276,0,67,DL_Guitar,-1,-1
63,100,0.2409090909090909,377,0,67,DL_Guitar,-1,-1
44,100,0.22272727272727272,430,0,67,DL_Guitar,-1,-1
56,100,0.22272727272727272,487,0,67,DL_Guitar,-1,-1
46,100,0.8590909090909091,550,0,67,DL_Guitar,-1,-1
46,100,0.4,796,1,67,DL_Guitar,-1,-1
46,100,0.5363636363636364,40,1,68,DL_Guitar,-1,-1
54,100,0.4,163,0,68,DL_Guitar,-1,-1
54,100,0.9590909090909091,263,0,68,DL_Guitar,-1,-1
54,100,0.3,480,1,68,DL_Guitar,-1,-1
42,100,0.23636363636363636,546,0,68,DL_Guitar,-1,-1
54,100,0.11818181818181818,624,0,68,DL_Guitar,-1,-1
49,100,0.6181818181818182,656,0,68,DL_Guitar,-1,-1
49,100,0.13636363636363635,810,0,68,DL_Guitar,-1,-1
49,100,1.259090909090909,866,0,68,DL_Guitar,-1,-1
44,100,1.6590909090909092,282,1,69,DL_Guitar,-1,-1
44,100,0.5,660,1,69,DL_Guitar,-1,-1
46,100,0.6818181818181818,773,0,69,DL_Guitar,-1,-1
53,100,0.18181818181818182,110,1,70,DL_Guitar,-1,-1
53,100,0.4590909090909091,176,0,70,DL_Guitar,-1,-1
53,100,0.2590909090909091,316,0,70,DL_Guitar,-1,-1
42,100,0.22272727272727272,409,0,70,DL_Guitar,-1,-1
54,100,0.2,633,1,70,DL_Guitar,-1,-1
54,100,0.1409090909090909,760,0,70,DL_Guitar,-1,-1
54,100,0.3,813,0,70,DL_Guitar,-1,-1
49,100,0.6,9,1,71,DL_Guitar,-1,-1
56,100,0.7227272727272728,356,1,71,DL_Guitar,-1,-1
44,100,0.4409090909090909,514,0,71,DL_Guitar,-1,-1
44,100,0.17727272727272728,756,1,71,DL_Guitar,-1,-1
56,100,0.2,800,0,71,DL_Guitar,-1,-1
44,100,0.21818181818181817,876,0,71,DL_Guitar,-1,-1
44,100,0.7,87,1,72,DL_Guitar,-1,-1
54,100,0.3181818181818182,0,1,73,DL_Guitar,-1,-1
54,100,0.11818181818181818,83,0,73,DL_Guitar,-1,-1
61,100,0.3,606,1,73,DL_Guitar,-1,-1
61,100,0.18181818181818182,695,0,73,DL_Guitar,-1,-1
44,100,0.42272727272727273,760,0,73,DL_Guitar,-1,-1
61,100,0.4,506,1,74,DL_Guitar,-1,-1
61,100,0.2409090909090909,783,1,74,DL_Guitar,-1,-1
57,100,0.35909090909090907,140,1,75,DL_Guitar,-1,-1
54,100,0.12272727272727273,255,0,75,DL_Guitar,-1,-1
54,100,0.22272727272727272,422,0,75,DL_Guitar,-1,-1
54,100,0.3,546,0,75,DL_Guitar,-1,-1
61,100,0.1409090909090909,650,0,75,DL_Guitar,-1,-1
42,100,0.12272727272727273,686,0,75,DL_Guitar,-1,-1
61,100,0.17727272727272728,722,0,75,DL_Guitar,-1,-1
56,100,0.11818181818181818,0,1,76,DL_Guitar,-1,-1
53,100,1.1,100,0,76,DL_Guitar,-1,-1
60,100,0.4772727272727273,370,1,76,DL_Guitar,-1,-1
57,100,0.12272727272727273,509,0,76,DL_Guitar,-1,-1
63,100,0.1,550,0,76,DL_Guitar,-1,-1
61,100,0.3181818181818182,770,1,76,DL_Guitar,-1,-1
60,100,0.2409090909090909,839,0,76,DL_Guitar,-1,-1
44,100,0.18181818181818182,26,1,77,DL_Guitar,-1,-1
56,100,0.3409090909090909,110,0,77,DL_Guitar,-1,-1
49,100,0.21818181818181817,263,0,77,DL_Guitar,-1,-1
61,100,0.2,356,0,77,DL_Guitar,-1,-1
54,100,0.1590909090909091,413,0,77,DL_Guitar,-1,-1
54,100,0.1,466,0,77,DL_Guitar,-1,-1
54,100,0.3409090909090909,514,0,77,DL_Guitar,-1,-1
61,100,0.17727272727272728,603,0,77,DL_Guitar,-1,-1
61,100,0.21818181818181817,779,0,77,DL_Guitar,-1,-1
61,100,0.9181818181818182,119,1,78,DL_Guitar,-1,-1
44,100,0.4818181818181818,333,1,78,DL_Guitar,-1,-1
56,100,0.12272727272727273,466,0,78,DL_Guitar,-1,-1
51,100,0.1409090909090909,540,0,78,DL_Guitar,-1,-1
51,100,0.5409090909090909,580,0,78,DL_Guitar,-1,-1
46,100,0.8590909090909091,74,1,79,DL_Guitar,-1,-1
46,100,0.1,307,1,79,DL_Guitar,-1,-1
61,100,0.2818181818181818,333,0,79,DL_Guitar,-1,-1
61,100,0.16363636363636364,399,0,79,DL_Guitar,-1,-1
54,100,0.3181818181818182,449,0,79,DL_Guitar,-1,-1
54,100,0.11818181818181818,580,0,79,DL_Guitar,-1,-1
54,100,0.1,624,0,79,DL_Guitar,-1,-1
54,100,0.35909090909090907,9,1,80,DL_Guitar,-1,-1
54,100,0.21818181818181817,153,0,80,DL_Guitar,-1,-1
49,100,0.4,210,0,80,DL_Guitar,-1,-1
61,100,0.13636363636363635,436,1,80,DL_Guitar,-1,-1
51,100,0.2,563,0,80,DL_Guitar,-1,-1
63,100,0.32272727272727275,606,0,80,DL_Guitar,-1,-1
51,100,0.1,686,0,80,DL_Guitar,-1,-1
51,100,0.2772727272727273,823,0,80,DL_Guitar,-1,-1
51,100,0.1409090909090909,87,1,81,DL_Guitar,-1,-1
56,100,0.2409090909090909,307,1,81,DL_Guitar,-1,-1
56,100,0.1,553,1,81,DL_Guitar,-1,-1
56,100,0.33636363636363636,590,0,81,DL_Guitar,-1,-1
42,100,0.5818181818181818,739,0,81,DL_Guitar,-1,-1
42,100,0.2,113,1,82,DL_Guitar,-1,-1
49,100,0.8772727272727273,303,0,82,DL_Guitar,-1,-1
44,100,0.3,792,1,82,DL_Guitar,-1,-1
44,100,0.3181818181818182,220,1,83,DL_Guitar,-1,-1
46,100,0.6181818181818182,417,0,83,DL_Guitar,-1,-1
54,100,0.1409090909090909,47,1,84,DL_Guitar,-1,-1
54,100,0.22272727272727272,136,0,84,DL_Guitar,-1,-1
42,100,0.11818181818181818,184,0,84,DL_Guitar,-1,-1
42,100,1.3,233,0,84,DL_Guitar,-1,-1
49,100,1.1181818181818182,527,1,84,DL_Guitar,-1,-1
49,100,0.7,870,1,84,DL_Guitar,-1,-1
56,100,0.1,153,1,85,DL_Guitar,-1,-1
44,100,0.11818181818181818,216,0,85,DL_Guitar,-1,-1
44,100,0.9409090909090909,250,0,85,DL_Guitar,-1,-1
51,100,0.21818181818181817,572,1,85,DL_Guitar,-1,-1
59,100,0.2,443,1,86,DL_Guitar,-1,-1
55,100,0.1409090909090909,572,0,86,DL_Guitar,-1,-1
50,100,0.17727272727272728,669,0,86,DL_Guitar,-1,-1
57,100,0.36363636363636365,796,0,86,DL_Guitar,-1,-1
50,100,0.4772727272727273,30,1,87,DL_Guitar,-1,-1
57,100,0.42272727272727273,136,0,87,DL_Guitar,-1,-1
50,100,0.6590909090909091,229,0,87,DL_Guitar,-1,-1
57,100,0.1,413,0,87,DL_Guitar,-1,-1
57,100,0.16363636363636364,443,0,87,DL_Guitar,-1,-1
47,100,0.1409090909090909,110,1,88,DL_Guitar,-1,-1
59,100,0.2590909090909091,373,1,88,DL_Guitar,-1,-1
43,100,0.16363636363636364,509,0,88,DL_Guitar,-1,-1
55,100,0.18181818181818182,550,0,88,DL_Guitar,-1,-1
62,100,0.2818181818181818,637,0,88,DL_Guitar,-1,-1
43,100,0.1590909090909091,700,0,88,DL_Guitar,-1,-1
57,100,0.9409090909090909,110,1,89,DL_Guitar,-1,-1
57,100,0.6818181818181818,619,1,89,DL_Guitar,-1,-1
57,100,0.16363636363636364,773,0,89,DL_Guitar,-1,-1
57,100,0.1,866,0,89,DL_Guitar,-1,-1
57,100,0.21818181818181817,53,1,90,DL_Guitar,-1,-1
62,100,0.2409090909090909,157,0,90,DL_Guitar,-1,-1
57,100,0.1590909090909091,294,0,90,DL_Guitar,-1,-1
50,100,0.37727272727272726,392,0,90,DL_Guitar,-1,-1
57,100,0.1,540,0,90,DL_Guitar,-1,-1
50,100,0.1590909090909091,572,0,90,DL_Guitar,-1,-1
55,100,0.41818181818181815,779,1,90,DL_Guitar,-1,-1
50,100,0.1,197,1,91,DL_Guitar,-1,-1
50,100,0.11818181818181818,294,0,91,DL_Guitar,-1,-1
61,100,0.759090909090909,347,0,91,DL_Guitar,-1,-1
54,100,0.9409090909090909,836,1,91,DL_Guitar,-1,-1
54,100,0.6818181818181818,255,1,92,DL_Guitar,-1,-1
62,100,0.12272727272727273,430,0,92,DL_Guitar,-1,-1
54,100,0.3,466,0,92,DL_Guitar,-1,-1
59,100,0.1409090909090909,536,0,92,DL_Guitar,-1,-1
54,100,0.1,612,0,92,DL_Guitar,-1,-1
54,100,0.1590909090909091,656,0,92,DL_Guitar,-1,-1
43,100,0.2,333,1,93,DL_Guitar,-1,-1
55,100,0.2409090909090909,453,0,93,DL_Guitar,-1,-1
57,100,0.21818181818181817,603,0,93,DL_Guitar,-1,-1
57,100,0.11818181818181818,713,0,93,DL_Guitar,-1,-1
54,100,0.2590909090909091,210,1,94,DL_Guitar,-1,-1
59,100,0.18181818181818182,276,0,94,DL_Guitar,-1,-1
54,100,0.2409090909090909,320,0,94,DL_Guitar,-1,-1
59,100,0.1,457,0,94,DL_Guitar,-1,-1
54,100,0.2818181818181818,637,0,94,DL_Guitar,-1,-1
54,100,0.2818181818181818,826,0,94,DL_Guitar,-1,-1
59,100,0.4409090909090909,197,1,95,DL_Guitar,-1,-1
43,100,0.2,743,1,95,DL_Guitar,-1,-1
59,100,0.42272727272727273,826,0,95,DL_Guitar,-1,-1
57,100,0.2818181818181818,110,1,96,DL_Guitar,-1,-1
57,100,0.1,179,0,96,DL_Guitar,-1,-1
57,100,0.4590909090909091,206,0,96,DL_Guitar,-1,-1
50,100,3.340909090909091,690,1,96,DL_Guitar,-1,-1
57,100,0.17727272727272728,492,1,0,DL_Guitar,-1,-1
50,100,0.6181818181818182,546,0,0,DL_Guitar,-1,-1
50,100,0.5227272727272727,695,0,0,DL_Guitar,-1,-1
52,100,0.7,166,1,1,DL_Guitar,-1,-1
52,100,0.1,351,0,1,DL_Guitar,-1,-1
59,100,0.1409090909090909,449,0,1,DL_Guitar,-1,-1
40,100,0.22272727272727272,576,0,1,DL_Guitar,-1,-1
52,100,0.11818181818181818,638,0,1,DL_Guitar,-1,-1
44,100,0.5,681,0,1,DL_Guitar,-1,-1
54,100,0.4409090909090909,796,0,1,DL_Guitar,-1,-1
59,100,0.2,12,1,2,DL_Guitar,-1,-1
44,100,0.12272727272727273,91,0,2,DL_Guitar,-1,-1
54,100,0.3409090909090909,421,1,2,DL_Guitar,-1,-1
57,100,0.33636363636363636,501,0,2,DL_Guitar,-1,-1
50,100,0.6818181818181818,796,1,2,DL_Guitar,-1,-1
57,100,0.1409090909090909,70,1,3,DL_Guitar,-1,-1
50,100,0.35909090909090907,100,0,3,DL_Guitar,-1,-1
50,100,0.1,356,1,3,DL_Guitar,-1,-1
40,100,0.3409090909090909,466,0,3,DL_Guitar,-1,-1
59,100,0.3,550,0,3,DL_Guitar,-1,-1
64,100,0.2818181818181818,629,0,3,DL_Guitar,-1,-1
40,100,0.1409090909090909,739,0,3,DL_Guitar,-1,-1
40,100,0.3181818181818182,836,0,3,DL_Guitar,-1,-1
45,100,0.5590909090909091,53,1,4,DL_Guitar,-1,-1
45,100,0.18181818181818182,189,0,4,DL_Guitar,-1,-1
61,100,0.2590909090909091,255,0,4,DL_Guitar,-1,-1
45,100,1.6227272727272728,444,0,4,DL_Guitar,-1,-1
64,100,0.3,871,1,4,DL_Guitar,-1,-1
52,100,0.3,56,1,5,DL_Guitar,-1,-1
50,100,0.5590909090909091,171,0,5,DL_Guitar,-1,-1
50,100,0.1590909090909091,325,0,5,DL_Guitar,-1,-1
50,100,0.22272727272727272,378,0,5,DL_Guitar,-1,-1
45,100,0.11818181818181818,572,0,5,DL_Guitar,-1,-1
52,100,0.5772727272727273,678,0,5,DL_Guitar,-1,-1
52,100,0.2636363636363636,862,0,5,DL_Guitar,-1,-1
64,100,0.1,79,1,6,DL_Guitar,-1,-1
52,100,0.8,105,0,6,DL_Guitar,-1,-1
44,100,0.5409090909090909,294,0,6,DL_Guitar,-1,-1
54,100,0.43636363636363634,414,0,6,DL_Guitar,-1,-1
59,100,0.2409090909090909,514,0,6,DL_Guitar,-1,-1
42,100,0.740909090909091,805,1,6,DL_Guitar,-1,-1
54,100,0.1409090909090909,87,1,7,DL_Guitar,-1,-1
57,100,0.32272727272727275,122,0,7,DL_Guitar,-1,-1
54,100,0.1409090909090909,317,0,7,DL_Guitar,-1,-1
50,100,0.2,581,1,7,DL_Guitar,-1,-1
59,100,0.1,34,1,8,DL_Guitar,-1,-1
52,100,0.1,127,0,8,DL_Guitar,-1,-1
40,100,0.2772727272727273,149,0,8,DL_Guitar,-1,-1
59,100,0.37727272727272726,347,0,8,DL_Guitar,-1,-1
54,100,0.3409090909090909,448,0,8,DL_Guitar,-1,-1
45,100,0.1409090909090909,558,0,8,DL_Guitar,-1,-1
45,100,0.35909090909090907,594,0,8,DL_Guitar,-1,-1
52,100,0.38181818181818183,673,0,8,DL_Guitar,-1,-1
57,100,0.3,766,0,8,DL_Guitar,-1,-1
52,100,0.1,840,0,8,DL_Guitar,-1,-1
57,100,0.21818181818181817,0,1,9,DL_Guitar,-1,-1
61,100,0.23636363636363636,106,0,9,DL_Guitar,-1,-1
57,100,0.2590909090909091,163,0,9,DL_Guitar,-1,-1
61,100,0.2772727272727273,405,1,9,DL_Guitar,-1,-1
57,100,0.11818181818181818,484,0,9,DL_Guitar,-1,-1
57,100,0.1409090909090909,515,0,9,DL_Guitar,-1,-1
50,100,0.1409090909090909,575,0,9,DL_Guitar,-1,-1
45,100,0.5,694,0,9,DL_Guitar,-1,-1
52,100,0.23636363636363636,809,0,9,DL_Guitar,-1,-1
45,100,0.1,87,1,10,DL_Guitar,-1,-1
52,100,0.2409090909090909,113,0,10,DL_Guitar,-1,-1
52,100,0.2409090909090909,299,0,10,DL_Guitar,-1,-1
64,100,0.1,400,0,10,DL_Guitar,-1,-1
59,100,0.32272727272727275,431,0,10,DL_Guitar,-1,-1
52,100,0.1590909090909091,611,0,10,DL_Guitar,-1,-1
52,100,0.43636363636363634,656,0,10,DL_Guitar,-1,-1
52,100,0.4409090909090909,795,0,10,DL_Guitar,-1,-1
52,100,0.11818181818181818,264,1,11,DL_Guitar,-1,-1
43,100,0.1,493,1,11,DL_Guitar,-1,-1
50,100,0.2636363636363636,70,1,12,DL_Guitar,-1,-1
52,100,0.1,572,1,12,DL_Guitar,-1,-1
40,100,0.3181818181818182,603,0,12,DL_Guitar,-1,-1
54,100,0.2590909090909091,189,1,13,DL_Guitar,-1,-1
54,100,0.1,691,1,13,DL_Guitar,-1,-1
40,100,0.2409090909090909,364,1,14,DL_Guitar,-1,-1
64,100,0.11818181818181818,457,0,14,DL_Guitar,-1,-1
64,100,0.2590909090909091,871,1,14,DL_Guitar,-1,-1
40,100,0.1,216,1,15,DL_Guitar,-1,-1
40,100,0.21818181818181817,242,0,15,DL_Guitar,-1,-1
54,100,0.1,694,1,15,DL_Guitar,-1,-1
55,100,0.1,747,0,15,DL_Guitar,-1,-1
52,100,0.2,52,1,16,DL_Guitar,-1,-1
52,100,0.35909090909090907,100,0,16,DL_Guitar,-1,-1
52,100,0.1409090909090909,638,1,16,DL_Guitar,-1,-1
52,100,0.2,193,1,17,DL_Guitar,-1,-1
52,100,0.2409090909090909,250,0,17,DL_Guitar,-1,-1
55,100,0.16363636363636364,443,0,17,DL_Guitar,-1,-1
55,100,0.1,492,1,18,DL_Guitar,-1,-1
45,100,0.2590909090909091,858,1,18,DL_Guitar,-1,-1
57,100,0.2590909090909091,430,1,19,DL_Guitar,-1,-1
52,100,0.2636363636363636,488,0,19,DL_Guitar,-1,-1
64,100,0.1,677,0,19,DL_Guitar,-1,-1
64,100,0.2,704,0,19,DL_Guitar,-1,-1
54,100,1.0818181818181818,57,1,20,DL_Guitar,-1,-1
54,100,0.17727272727272728,382,1,20,DL_Guitar,-1,-1
54,100,0.1409090909090909,426,0,20,DL_Guitar,-1,-1
50,100,0.5409090909090909,559,0,20,DL_Guitar,-1,-1
57,100,0.2636363636363636,686,0,20,DL_Guitar,-1,-1
57,100,0.18181818181818182,760,0,20,DL_Guitar,-1,-1
57,100,0.23636363636363636,106,1,21,DL_Guitar,-1,-1
57,100,0.1,179,0,21,DL_Guitar,-1,-1
45,100,0.18181818181818182,202,0,21,DL_Guitar,-1,-1
45,100,0.11818181818181818,260,0,21,DL_Guitar,-1,-1
57,100,0.38181818181818183,285,0,21,DL_Guitar,-1,-1
61,100,0.21818181818181817,505,1,21,DL_Guitar,-1,-1
57,100,0.11818181818181818,590,0,21,DL_Guitar,-1,-1
40,100,0.2409090909090909,739,0,21,DL_Guitar,-1,-1
40,100,0.1,839,0,21,DL_Guitar,-1,-1
54,100,1.0772727272727274,326,1,22,DL_Guitar,-1,-1
54,100,0.2818181818181818,694,1,22,DL_Guitar,-1,-1
62,100,0.1409090909090909,791,0,22,DL_Guitar,-1,-1
50,100,0.4409090909090909,822,0,22,DL_Guitar,-1,-1
50,100,0.1409090909090909,75,1,23,DL_Guitar,-1,-1
57,100,0.1,206,0,23,DL_Guitar,-1,-1
57,100,0.35909090909090907,299,0,23,DL_Guitar,-1,-1
57,100,0.1590909090909091,382,0,23,DL_Guitar,-1,-1
52,100,0.6,546,0,23,DL_Guitar,-1,-1
52,100,0.12272727272727273,717,0,23,DL_Guitar,-1,-1
64,100,0.1409090909090909,9,1,24,DL_Guitar,-1,-1
54,100,0.4,48,0,24,DL_Guitar,-1,-1
54,100,0.2409090909090909,189,0,24,DL_Guitar,-1,-1
52,100,0.2590909090909091,308,0,24,DL_Guitar,-1,-1
40,100,0.22272727272727272,364,0,24,DL_Guitar,-1,-1
54,100,0.1409090909090909,515,0,24,DL_Guitar,-1,-1
54,100,0.7772727272727272,567,0,24,DL_Guitar,-1,-1
54,100,0.21818181818181817,748,0,24,DL_Guitar,-1,-1
54,100,0.11818181818181818,52,1,25,DL_Guitar,-1,-1
54,100,0.11818181818181818,131,0,25,DL_Guitar,-1,-1
50,100,0.5636363636363636,179,0,25,DL_Guitar,-1,-1
62,100,0.2409090909090909,316,0,25,DL_Guitar,-1,-1
62,100,0.2818181818181818,374,0,25,DL_Guitar,-1,-1
50,100,0.22272727272727272,576,1,25,DL_Guitar,-1,-1
57,100,0.11818181818181818,677,0,25,DL_Guitar,-1,-1
45,100,0.41818181818181815,704,0,25,DL_Guitar,-1,-1
61,100,0.1409090909090909,818,0,25,DL_Guitar,-1,-1
57,100,0.5363636363636364,61,1,26,DL_Guitar,-1,-1
52,100,0.35909090909090907,409,1,26,DL_Guitar,-1,-1
52,100,0.1590909090909091,515,0,26,DL_Guitar,-1,-1
52,100,0.5227272727272727,686,0,26,DL_Guitar,-1,-1
54,100,0.1409090909090909,57,1,27,DL_Guitar,-1,-1
50,100,0.4636363636363636,443,1,27,DL_Guitar,-1,-1
50,100,0.3,559,0,27,DL_Guitar,-1,-1
62,100,0.1409090909090909,625,0,27,DL_Guitar,-1,-1
62,100,0.12272727272727273,739,0,27,DL_Guitar,-1,-1
57,100,0.2590909090909091,814,0,27,DL_Guitar,-1,-1
52,100,0.8,52,1,28,DL_Guitar,-1,-1
52,100,0.42272727272727273,443,1,28,DL_Guitar,-1,-1
52,100,0.5409090909090909,686,1,28,DL_Guitar,-1,-1
52,100,0.3,13,1,29,DL_Guitar,-1,-1
52,100,0.1590909090909091,83,0,29,DL_Guitar,-1,-1
64,100,0.2,119,0,29,DL_Guitar,-1,-1
43,100,1.0227272727272727,378,1,29,DL_Guitar,-1,-1
43,100,0.1590909090909091,611,1,29,DL_Guitar,-1,-1
43,100,0.22272727272727272,650,0,29,DL_Guitar,-1,-1
57,100,0.4818181818181818,320,1,30,DL_Guitar,-1,-1
57,100,0.38181818181818183,440,0,30,DL_Guitar,-1,-1
50,100,0.2590909090909091,633,0,30,DL_Guitar,-1,-1
57,100,0.1590909090909091,770,0,30,DL_Guitar,-1,-1
57,100,0.8409090909090909,866,0,30,DL_Guitar,-1,-1
57,100,0.5181818181818182,185,1,31,DL_Guitar,-1,-1
57,100,0.5409090909090909,308,0,31,DL_Guitar,-1,-1
52,100,0.18181818181818182,453,0,31,DL_Guitar,-1,-1
52,100,0.13636363636363635,523,0,31,DL_Guitar,-1,-1
59,100,0.35909090909090907,571,0,31,DL_Guitar,-1,-1
59,100,0.2590909090909091,700,0,31,DL_Guitar,-1,-1
52,100,0.1,822,0,31,DL_Guitar,-1,-1
59,100,0.5,188,1,32,DL_Guitar,-1,-1
54,100,0.1590909090909091,426,1,32,DL_Guitar,-1,-1
54,100,0.2636363636363636,488,0,32,DL_Guitar,-1,-1
59,100,0.1,593,0,32,DL_Guitar,-1,-1
54,100,0.3409090909090909,691,0,32,DL_Guitar,-1,-1
59,100,0.4772727272727273,831,0,32,DL_Guitar,-1,-1
57,100,0.2409090909090909,118,1,33,DL_Guitar,-1,-1
52,100,0.5181818181818182,308,0,33,DL_Guitar,-1,-1
52,100,0.1590909090909091,453,0,33,DL_Guitar,-1,-1
52,100,0.2,571,0,33,DL_Guitar,-1,-1
45,100,0.2,871,1,33,DL_Guitar,-1,-1
57,100,0.2,188,1,34,DL_Guitar,-1,-1
57,100,0.22272727272727272,254,0,34,DL_Guitar,-1,-1
45,100,0.41818181818181815,325,0,34,DL_Guitar,-1,-1
52,100,0.2,480,0,34,DL_Guitar,-1,-1
57,100,1.0818181818181818,818,1,34,DL_Guitar,-1,-1
57,100,0.5590909090909091,298,1,35,DL_Guitar,-1,-1
52,100,0.3,488,0,35,DL_Guitar,-1,-1
52,100,0.5772727272727273,558,0,35,DL_Guitar,-1,-1
59,100,0.3181818181818182,735,0,35,DL_Guitar,-1,-1
52,100,0.1409090909090909,826,0,35,DL_Guitar,-1,-1
57,100,0.22272727272727272,4,1,36,DL_Guitar,-1,-1
53,100,0.4818181818181818,66,0,36,DL_Guitar,-1,-1
53,100,0.5409090909090909,179,0,36,DL_Guitar,-1,-1
59,100,0.1590909090909091,325,0,36,DL_Guitar,-1,-1
53,100,0.37727272727272726,435,0,36,DL_Guitar,-1,-1
54,100,0.42272727272727273,554,0,36,DL_Guitar,-1,-1
54,100,0.1409090909090909,813,1,36,DL_Guitar,-1,-1
54,100,0.5409090909090909,871,0,36,DL_Guitar,-1,-1
54,100,0.5409090909090909,179,1,37,DL_Guitar,-1,-1
54,100,0.5,311,0,37,DL_Guitar,-1,-1
59,100,0.13636363636363635,523,1,37,DL_Guitar,-1,-1
59,100,0.1409090909090909,584,0,37,DL_Guitar,-1,-1
57,100,0.22272727272727272,628,0,37,DL_Guitar,-1,-1
59,100,0.2,708,0,37,DL_Guitar,-1,-1
40,100,0.11818181818181818,8,1,38,DL_Guitar,-1,-1
59,100,0.2818181818181818,48,0,38,DL_Guitar,-1,-1
59,100,0.2,198,0,38,DL_Guitar,-1,-1
57,100,0.1590909090909091,260,0,38,DL_Guitar,-1,-1
45,100,0.35909090909090907,343,0,38,DL_Guitar,-1,-1
57,100,0.1590909090909091,571,1,38,DL_Guitar,-1,-1
43,100,0.1590909090909091,858,1,38,DL_Guitar,-1,-1
62,100,0.2,461,1,39,DL_Guitar,-1,-1
50,100,0.18181818181818182,506,0,39,DL_Guitar,-1,-1
50,100,0.18181818181818182,694,0,39,DL_Guitar,-1,-1
57,100,0.5590909090909091,804,0,39,DL_Guitar,-1,-1
52,100,0.8772727272727273,75,1,40,DL_Guitar,-1,-1
52,100,0.13636363636363635,413,1,40,DL_Guitar,-1,-1
52,100,0.17727272727272728,448,0,40,DL_Guitar,-1,-1
53,100,0.6,681,1,40,DL_Guitar,-1,-1
53,100,0.2636363636363636,48,1,41,DL_Guitar,-1,-1
59,100,0.18181818181818182,224,0,41,DL_Guitar,-1,-1
54,100,0.4772727272727273,316,0,41,DL_Guitar,-1,-1
59,100,0.2590909090909091,435,0,41,DL_Guitar,-1,-1
54,100,0.3,501,0,41,DL_Guitar,-1,-1
54,100,0.2409090909090909,576,0,41,DL_Guitar,-1,-1
54,100,0.2772727272727273,678,0,41,DL_Guitar,-1,-1
54,100,0.4590909090909091,813,0,41,DL_Guitar,-1,-1
59,100,0.2409090909090909,66,1,42,DL_Guitar,-1,-1
62,100,0.2,128,0,42,DL_Guitar,-1,-1
47,100,0.2,193,0,42,DL_Guitar,-1,-1
57,100,0.2,254,0,42,DL_Guitar,-1,-1
52,100,0.4818181818181818,321,0,42,DL_Guitar,-1,-1
59,100,0.2818181818181818,616,1,42,DL_Guitar,-1,-1
52,100,0.16363636363636364,708,0,42,DL_Guitar,-1,-1
52,100,0.11818181818181818,831,0,42,DL_Guitar,-1,-1
57,100,0.2818181818181818,48,1,43,DL_Guitar,-1,-1
57,100,0.5181818181818182,813,1,43,DL_Guitar,-1,-1
50,100,0.5772727272727273,53,1,44,DL_Guitar,-1,-1
44,100,0.43636363636363634,193,0,44,DL_Guitar,-1,-1
43,100,0.1409090909090909,289,0,44,DL_Guitar,-1,-1
43,100,0.9181818181818182,330,0,44,DL_Guitar,-1,-1
64,100,0.1590909090909091,721,1,44,DL_Guitar,-1,-1
64,100,0.35909090909090907,788,0,44,DL_Guitar,-1,-1
64,100,0.32272727272727275,871,0,44,DL_Guitar,-1,-1
53,100,0.12272727272727273,211,1,45,DL_Guitar,-1,-1
44,100,0.6636363636363637,378,0,45,DL_Guitar,-1,-1
54,100,0.36363636363636365,686,1,45,DL_Guitar,-1,-1
54,100,0.23636363636363636,810,0,45,DL_Guitar,-1,-1
44,100,0.11818181818181818,61,1,46,DL_Guitar,-1,-1
44,100,0.33636363636363636,105,0,46,DL_Guitar,-1,-1
62,100,0.3181818181818182,668,1,46,DL_Guitar,-1,-1
50,100,0.17727272727272728,756,0,46,DL_Guitar,-1,-1
52,100,0.2818181818181818,826,0,46,DL_Guitar,-1,-1
52,100,0.12272727272727273,13,1,47,DL_Guitar,-1,-1
52,100,0.4409090909090909,43,0,47,DL_Guitar,-1,-1
52,100,0.5818181818181818,179,0,47,DL_Guitar,-1,-1
40,100,0.4,308,0,47,DL_Guitar,-1,-1
53,100,1.240909090909091,426,0,47,DL_Guitar,-1,-1
49,100,0.7,765,1,47,DL_Guitar,-1,-1
54,100,0.42272727272727273,48,1,48,DL_Guitar,-1,-1
61,100,0.2,163,0,48,DL_Guitar,-1,-1
42,100,0.8409090909090909,220,0,48,DL_Guitar,-1,-1
61,100,0.4818181818181818,440,1,48,DL_Guitar,-1,-1
50,100,1.1409090909090909,651,1,48,DL_Guitar,-1,-1
62,100,0.4,34,1,49,DL_Guitar,-1,-1
52,100,1.3590909090909091,176,0,49,DL_Guitar,-1,-1
52,100,0.2,480,1,49,DL_Guitar,-1,-1
52,100,0.1590909090909091,638,0,49,DL_Guitar,-1,-1
53,100,1.6363636363636365,678,0,49,DL_Guitar,-1,-1
54,100,0.23636363636363636,303,1,50,DL_Guitar,-1,-1
61,100,0.2409090909090909,440,0,50,DL_Guitar,-1,-1
42,100,0.11818181818181818,545,0,50,DL_Guitar,-1,-1
61,100,0.4818181818181818,571,0,50,DL_Guitar,-1,-1
61,100,0.3,691,0,50,DL_Guitar,-1,-1
57,100,0.13636363636363635,788,0,50,DL_Guitar,-1,-1
50,100,0.1590909090909091,853,0,50,DL_Guitar,-1,-1
50,100,1.3590909090909091,21,1,51,DL_Guitar,-1,-1
52,100,0.5,431,1,51,DL_Guitar,-1,-1
52,100,0.1,545,0,51,DL_Guitar,-1,-1
52,100,0.11818181818181818,691,0,51,DL_Guitar,-1,-1
40,100,0.5181818181818182,756,0,51,DL_Guitar,-1,-1
54,100,0.1590909090909091,0,1,52,DL_Guitar,-1,-1
54,100,0.1,56,0,52,DL_Guitar,-1,-1
61,100,0.7,91,0,52,DL_Guitar,-1,-1
54,100,0.3,254,0,52,DL_Guitar,-1,-1
54,100,0.1,325,0,52,DL_Guitar,-1,-1
61,100,2.640909090909091,426,0,52,DL_Guitar,-1,-1
57,100,1.440909090909091,158,1,53,DL_Guitar,-1,-1
50,100,0.11818181818181818,568,1,53,DL_Guitar,-1,-1
52,100,2.1,681,0,53,DL_Guitar,-1,-1
52,100,0.11818181818181818,303,1,54,DL_Guitar,-1,-1
57,100,0.18181818181818182,418,1,55,DL_Guitar,-1,-1
45,100,0.23636363636363636,458,0,55,DL_Guitar,-1,-1
57,100,0.1409090909090909,518,0,55,DL_Guitar,-1,-1
57,100,0.37727272727272726,558,0,55,DL_Guitar,-1,-1
57,100,0.21818181818181817,660,0,55,DL_Guitar,-1,-1
57,100,0.38181818181818183,726,0,55,DL_Guitar,-1,-1
45,100,0.17727272727272728,128,1,56,DL_Guitar,-1,-1
50,100,0.11818181818181818,568,1,56,DL_Guitar,-1,-1
57,100,0.2409090909090909,625,0,56,DL_Guitar,-1,-1
57,100,0.4818181818181818,703,0,56,DL_Guitar,-1,-1
50,100,0.16363636363636364,818,0,56,DL_Guitar,-1,-1
57,100,0.22272727272727272,4,1,57,DL_Guitar,-1,-1
57,100,0.4,91,0,57,DL_Guitar,-1,-1
50,100,0.13636363636363635,215,0,57,DL_Guitar,-1,-1
57,100,0.4818181818181818,330,0,57,DL_Guitar,-1,-1
57,100,0.2590909090909091,453,0,57,DL_Guitar,-1,-1
50,100,0.18181818181818182,576,0,57,DL_Guitar,-1,-1
61,100,0.5,691,0,57,DL_Guitar,-1,-1
59,100,0.6,810,0,57,DL_Guitar,-1,-1
59,100,0.18181818181818182,153,1,58,DL_Guitar,-1,-1
59,100,0.1,215,0,58,DL_Guitar,-1,-1
52,100,0.4409090909090909,330,0,58,DL_Guitar,-1,-1
52,100,0.11818181818181818,536,1,58,DL_Guitar,-1,-1
40,100,0.2,593,0,58,DL_Guitar,-1,-1
61,100,0.1409090909090909,48,1,59,DL_Guitar,-1,-1
61,100,0.3,110,0,59,DL_Guitar,-1,-1
45,100,0.3409090909090909,444,1,59,DL_Guitar,-1,-1
57,100,0.1409090909090909,770,1,59,DL_Guitar,-1,-1
45,100,0.1409090909090909,69,1,60,DL_Guitar,-1,-1
57,100,0.11818181818181818,330,1,60,DL_Guitar,-1,-1
61,100,0.5636363636363636,421,0,60,DL_Guitar,-1,-1
61,100,0.3181818181818182,678,1,60,DL_Guitar,-1,-1
42,100,0.11818181818181818,396,1,61,DL_Guitar,-1,-1
57,100,0.4636363636363636,444,0,61,DL_Guitar,-1,-1
54,100,0.35909090909090907,550,0,61,DL_Guitar,-1,-1
57,100,0.13636363636363635,633,0,61,DL_Guitar,-1,-1
57,100,0.11818181818181818,316,1,62,DL_Guitar,-1,-1
57,100,0.1,471,0,62,DL_Guitar,-1,-1
57,100,0.18181818181818182,628,0,62,DL_Guitar,-1,-1
59,100,0.4590909090909091,810,0,62,DL_Guitar,-1,-1
61,100,0.13636363636363635,171,1,63,DL_Guitar,-1,-1
59,100,0.35909090909090907,316,0,63,DL_Guitar,-1,-1
57,100,0.2409090909090909,431,0,63,DL_Guitar,-1,-1
54,100,0.1,691,1,63,DL_Guitar,-1,-1
54,100,0.17727272727272728,721,0,63,DL_Guitar,-1,-1
57,100,0.12272727272727273,774,0,63,DL_Guitar,-1,-1
54,100,0.11818181818181818,813,0,63,DL_Guitar,-1,-1
54,100,0.12272727272727273,848,0,63,DL_Guitar,-1,-1
57,100,0.1590909090909091,0,1,64,DL_Guitar,-1,-1
57,100,0.7181818181818181,550,1,64,DL_Guitar,-1,-1
57,100,0.4,849,1,64,DL_Guitar,-1,-1
57,100,0.2409090909090909,66,1,65,DL_Guitar,-1,-1
50,100,0.2,119,0,65,DL_Guitar,-1,-1
59,100,0.8363636363636363,172,0,65,DL_Guitar,-1,-1
61,100,0.2409090909090909,404,1,65,DL_Guitar,-1,-1
49,100,0.3409090909090909,475,0,65,DL_Guitar,-1,-1
50,100,1.6590909090909092,700,1,65,DL_Guitar,-1,-1
50,100,0.4590909090909091,193,1,66,DL_Guitar,-1,-1
59,100,0.8590909090909091,426,1,66,DL_Guitar,-1,-1
62,100,0.12272727272727273,849,1,66,DL_Guitar,-1,-1
62,100,0.1590909090909091,0,1,67,DL_Guitar,-1,-1
64,100,0.5181818181818182,40,0,67,DL_Guitar,-1,-1
64,100,0.3409090909090909,176,0,67,DL_Guitar,-1,-1
52,100,0.37727272727272726,436,1,67,DL_Guitar,-1,-1
40,100,0.12272727272727273,519,0,67,DL_Guitar,-1,-1
52,100,0.17727272727272728,546,0,67,DL_Guitar,-1,-1
52,100,0.1590909090909091,603,0,67,DL_Guitar,-1,-1
52,100,0.13636363636363635,656,0,67,DL_Guitar,-1,-1
52,100,0.3409090909090909,690,0,67,DL_Guitar,-1,-1
40,100,0.1590909090909091,766,0,67,DL_Guitar,-1,-1
52,100,0.38181818181818183,849,0,67,DL_Guitar,-1,-1
52,100,0.2,233,1,68,DL_Guitar,-1,-1
52,100,0.37727272727272726,294,0,68,DL_Guitar,-1,-1
40,100,0.1,430,0,68,DL_Guitar,-1,-1
59,100,0.13636363636363635,457,0,68,DL_Guitar,-1,-1
57,100,0.4,189,1,69,DL_Guitar,-1,-1
52,100,0.2,686,1,69,DL_Guitar,-1,-1
52,100,0.1590909090909091,832,0,69,DL_Guitar,-1,-1
52,100,0.2590909090909091,56,1,70,DL_Guitar,-1,-1
59,100,0.1409090909090909,140,0,70,DL_Guitar,-1,-1
53,100,0.5818181818181818,307,0,70,DL_Guitar,-1,-1
53,100,0.1590909090909091,453,0,70,DL_Guitar,-1,-1
53,100,0.1409090909090909,642,0,70,DL_Guitar,-1,-1
56,100,0.11818181818181818,734,0,70,DL_Guitar,-1,-1
42,100,0.32272727272727275,826,0,70,DL_Guitar,-1,-1
61,100,0.11818181818181818,153,1,71,DL_Guitar,-1,-1
57,100,0.1590909090909091,673,1,71,DL_Guitar,-1,-1
50,100,0.11818181818181818,770,0,71,DL_Guitar,-1,-1
57,100,0.2,823,0,71,DL_Guitar,-1,-1
57,100,0.1590909090909091,9,1,72,DL_Guitar,-1,-1
59,100,1.059090909090909,193,0,72,DL_Guitar,-1,-1
57,100,0.33636363636363636,743,1,72,DL_Guitar,-1,-1
45,100,0.5227272727272727,179,1,73,DL_Guitar,-1,-1
61,100,0.11818181818181818,514,1,73,DL_Guitar,-1,-1
61,100,0.42272727272727273,585,0,73,DL_Guitar,-1,-1
57,100,0.3409090909090909,870,1,73,DL_Guitar,-1,-1
57,100,0.21818181818181817,132,1,74,DL_Guitar,-1,-1
57,100,0.2772727272727273,237,0,74,DL_Guitar,-1,-1
40,100,0.1,392,0,74,DL_Guitar,-1,-1
52,100,0.2590909090909091,559,0,74,DL_Guitar,-1,-1
52,100,0.18181818181818182,619,0,74,DL_Guitar,-1,-1
64,100,0.18181818181818182,682,0,74,DL_Guitar,-1,-1
59,100,0.2818181818181818,726,0,74,DL_Guitar,-1,-1
61,100,0.1,17,1,75,DL_Guitar,-1,-1
53,100,1.1409090909090909,47,0,75,DL_Guitar,-1,-1
61,100,0.6409090909090909,316,1,75,DL_Guitar,-1,-1
42,100,0.4,457,0,75,DL_Guitar,-1,-1
61,100,0.12272727272727273,606,0,75,DL_Guitar,-1,-1
42,100,0.17727272727272728,633,0,75,DL_Guitar,-1,-1
61,100,0.3,739,0,75,DL_Guitar,-1,-1
59,100,0.17727272727272728,9,1,76,DL_Guitar,-1,-1
47,100,0.5818181818181818,47,0,76,DL_Guitar,-1,-1
47,100,0.42272727272727273,267,1,76,DL_Guitar,-1,-1
52,100,0.18181818181818182,550,1,76,DL_Guitar,-1,-1
40,100,0.35909090909090907,603,0,76,DL_Guitar,-1,-1
40,100,0.2,695,0,76,DL_Guitar,-1,-1
52,100,0.1409090909090909,739,0,76,DL_Guitar,-1,-1
52,100,0.16363636363636364,773,0,76,DL_Guitar,-1,-1
59,100,0.21818181818181817,813,0,76,DL_Guitar,-1,-1
40,100,0.17727272727272728,127,1,77,DL_Guitar,-1,-1
59,100,0.3,176,0,77,DL_Guitar,-1,-1
59,100,0.5590909090909091,307,0,77,DL_Guitar,-1,-1
64,100,0.18181818181818182,440,0,77,DL_Guitar,-1,-1
59,100,0.17727272727272728,502,0,77,DL_Guitar,-1,-1
59,100,0.4409090909090909,559,0,77,DL_Guitar,-1,-1
45,100,0.1590909090909091,110,1,78,DL_Guitar,-1,-1
57,100,0.3,289,0,78,DL_Guitar,-1,-1
59,100,0.2,246,1,80,DL_Guitar,-1,-1
59,100,0.17727272727272728,294,0,80,DL_Guitar,-1,-1
59,100,0.2,496,1,80,DL_Guitar,-1,-1
45,100,0.5227272727272727,553,0,80,DL_Guitar,-1,-1
52,100,0.2772727272727273,722,0,80,DL_Guitar,-1,-1
52,100,0.6227272727272727,47,1,81,DL_Guitar,-1,-1
61,100,1.7818181818181817,263,1,81,DL_Guitar,-1,-1
50,100,0.12272727272727273,862,1,81,DL_Guitar,-1,-1
57,100,0.2590909090909091,127,1,82,DL_Guitar,-1,-1
57,100,0.2409090909090909,263,0,82,DL_Guitar,-1,-1
57,100,0.1,320,0,82,DL_Guitar,-1,-1
57,100,0.759090909090909,440,0,82,DL_Guitar,-1,-1
50,100,0.18181818181818182,642,1,82,DL_Guitar,-1,-1
57,100,0.12272727272727273,13,1,83,DL_Guitar,-1,-1
57,100,0.2,303,1,83,DL_Guitar,-1,-1
52,100,0.1,857,1,83,DL_Guitar,-1,-1
42,100,0.1,56,1,84,DL_Guitar,-1,-1
42,100,0.41818181818181815,83,0,84,DL_Guitar,-1,-1
61,100,0.3,197,0,84,DL_Guitar,-1,-1
42,100,0.13636363636363635,303,0,84,DL_Guitar,-1,-1
61,100,1.0,347,0,84,DL_Guitar,-1,-1
42,100,0.4772727272727273,567,1,84,DL_Guitar,-1,-1
61,100,0.5227272727272727,707,0,84,DL_Guitar,-1,-1
61,100,0.38181818181818183,836,0,84,DL_Guitar,-1,-1
52,100,0.4818181818181818,166,1,85,DL_Guitar,-1,-1
52,100,0.6,286,0,85,DL_Guitar,-1,-1
52,100,0.3,422,0,85,DL_Guitar,-1,-1
52,100,0.35909090909090907,603,0,85,DL_Guitar,-1,-1
59,100,0.32272727272727275,729,0,85,DL_Guitar,-1,-1
59,100,0.18181818181818182,817,0,85,DL_Guitar,-1,-1
40,100,0.2,9,1,86,DL_Guitar,-1,-1
40,100,0.18181818181818182,66,0,86,DL_Guitar,-1,-1
64,100,0.2409090909090909,113,0,86,DL_Guitar,-1,-1
59,100,0.42272727272727273,202,0,86,DL_Guitar,-1,-1
57,100,0.1409090909090909,493,1,86,DL_Guitar,-1,-1
57,100,0.35909090909090907,527,0,86,DL_Guitar,-1,-1
57,100,0.2772727272727273,624,0,86,DL_Guitar,-1,-1
57,100,1.1590909090909092,813,0,86,DL_Guitar,-1,-1
57,100,0.2409090909090909,250,1,87,DL_Guitar,-1,-1
50,100,0.2,316,0,87,DL_Guitar,-1,-1
45,100,0.4,436,0,87,DL_Guitar,-1,-1
47,100,0.36363636363636365,729,1,88,DL_Guitar,-1,-1
47,100,0.7227272727272728,13,1,89,DL_Guitar,-1,-1
47,100,0.2,360,1,89,DL_Guitar,-1,-1
47,100,0.16363636363636364,509,0,89,DL_Guitar,-1,-1
59,100,0.1409090909090909,506,1,90,DL_Guitar,-1,-1
59,100,0.1,646,0,90,DL_Guitar,-1,-1
59,100,0.4590909090909091,823,0,90,DL_Guitar,-1,-1
59,100,0.5,79,1,91,DL_Guitar,-1,-1
40,100,0.12272727272727273,267,0,91,DL_Guitar,-1,-1
52,100,0.17727272727272728,316,0,91,DL_Guitar,-1,-1
40,100,0.1409090909090909,386,0,91,DL_Guitar,-1,-1
40,100,0.17727272727272728,502,0,91,DL_Guitar,-1,-1
40,100,0.17727272727272728,756,1,91,DL_Guitar,-1,-1
52,100,0.4,817,0,91,DL_Guitar,-1,-1
57,100,0.22272727272727272,100,1,92,DL_Guitar,-1,-1
55,100,0.11818181818181818,426,1,92,DL_Guitar,-1,-1
55,100,0.11818181818181818,480,0,92,DL_Guitar,-1,-1
56,100,0.1409090909090909,506,0,92,DL_Guitar,-1,-1
52,100,0.4,572,0,92,DL_Guitar,-1,-1
59,100,0.32272727272727275,707,0,92,DL_Guitar,-1,-1
40,100,0.2818181818181818,805,0,92,DL_Guitar,-1,-1
64,100,0.16363636363636364,3,1,93,DL_Guitar,-1,-1
59,100,0.11818181818181818,150,0,93,DL_Guitar,-1,-1
47,100,0.4,206,0,93,DL_Guitar,-1,-1
57,100,0.5181818181818182,844,1,93,DL_Guitar,-1,-1
59,100,0.3181818181818182,813,1,94,DL_Guitar,-1,-1
59,100,0.32272727272727275,92,1,95,DL_Guitar,-1,-1
40,100,0.2772727272727273,163,0,95,DL_Guitar,-1,-1
59,100,0.1409090909090909,223,0,95,DL_Guitar,-1,-1
47,100,0.41818181818181815,457,1,95,DL_Guitar,-1,-1
47,100,0.4590909090909091,624,0,95,DL_Guitar,-1,-1
54,100,0.1590909090909091,53,1,96,DL_Guitar,-1,-1
57,100,0.6181818181818182,734,1,96,DL_Guitar,-1,-1
57,100,0.21818181818181817,0,1,97,DL_Guitar,-1,-1
43,100,0.2590909090909091,119,0,97,DL_Guitar,-1,-1
59,100,0.4818181818181818,189,0,97,DL_Guitar,-1,-1
40,100,0.4,399,1,97,DL_Guitar,-1,-1
64,100,0.11818181818181818,493,0,97,DL_Guitar,-1,-1
57,100,0.8409090909090909,823,1,97,DL_Guitar,-1,-1
57,100,0.12272727272727273,157,1,98,DL_Guitar,-1,-1
45,100,0.1590909090909091,255,0,98,DL_Guitar,-1,-1
45,100,0.2409090909090909,377,0,98,DL_Guitar,-1,-1
45,100,1.8227272727272728,496,0,98,DL_Guitar,-1,-1
45,100,3.040909090909091,22,1,99,DL_Guitar,-1,-1
57,100,0.2409090909090909,443,1,100,DL_Guitar,-1,-1
57,100,0.2409090909090909,563,0,100,DL_Guitar,-1,-1
57,100,0.2,633,0,100,DL_Guitar,-1,-1
59,100,0.5590909090909091,810,0,100,DL_Guitar,-1,-1
59,100,0.11818181818181818,83,1,101,DL_Guitar,-1,-1
59,100,0.4,153,0,101,DL_Guitar,-1,-1
59,100,0.2,260,0,101,DL_Guitar,-1,-1
59,100,0.5227272727272727,430,0,101,DL_Guitar,-1,-1
53,100,0.3,677,1,101,DL_Guitar,-1,-1
59,100,0.2,756,0,101,DL_Guitar,-1,-1
42,100,0.32272727272727275,100,1,102,DL_Guitar,-1,-1
57,100,0.4772727272727273,193,0,102,DL_Guitar,-1,-1
45,100,0.1,576,1,102,DL_Guitar,-1,-1
57,100,0.18181818181818182,597,0,102,DL_Guitar,-1,-1
57,100,0.4636363636363636,707,0,102,DL_Guitar,-1,-1
57,100,0.1,839,0,102,DL_Guitar,-1,-1
57,100,0.12272727272727273,35,1,103,DL_Guitar,-1,-1
59,100,0.5181818181818182,184,0,103,DL_Guitar,-1,-1
59,100,0.7227272727272728,312,0,103,DL_Guitar,-1,-1
52,100,0.13636363636363635,502,0,103,DL_Guitar,-1,-1
45,100,0.32272727272727275,686,0,103,DL_Guitar,-1,-1
45,100,0.1590909090909091,770,0,103,DL_Guitar,-1,-1
45,100,0.11818181818181818,853,0,103,DL_Guitar,-1,-1
45,100,0.2,127,1,104,DL_Guitar,-1,-1
57,100,0.1,282,0,104,DL_Guitar,-1,-1
57,100,0.18181818181818182,466,0,104,DL_Guitar,-1,-1
57,100,0.1,514,0,104,DL_Guitar,-1,-1
57,100,0.2590909090909091,540,0,104,DL_Guitar,-1,-1
57,100,0.11818181818181818,616,0,104,DL_Guitar,-1,-1
57,100,0.2409090909090909,682,0,104,DL_Guitar,-1,-1
57,100,0.1,743,0,104,DL_Guitar,-1,-1
57,100,0.1590909090909091,770,0,104,DL_Guitar,-1,-1
57,100,0.1,813,0,104,DL_Guitar,-1,-1
57,100,0.11818181818181818,9,1,105,DL_Guitar,-1,-1
45,100,0.5409090909090909,211,1,0,DL_JapaneseFolk_Guitar,-1,-1
57,100,0.18181818181818182,356,0,0,DL_JapaneseFolk_Guitar,-1,-1
61,100,0.17727272727272728,524,0,0,DL_JapaneseFolk_Guitar,-1,-1
54,100,0.18181818181818182,717,0,0,DL_JapaneseFolk_Guitar,-1,-1
52,100,0.2590909090909091,849,0,0,DL_JapaneseFolk_Guitar,-1,-1
57,100,0.3181818181818182,30,1,1,DL_JapaneseFolk_Guitar,-1,-1
59,100,0.37727272727272726,149,0,1,DL_JapaneseFolk_Guitar,-1,-1
59,100,0.2409090909090909,290,0,1,DL_JapaneseFolk_Guitar,-1,-1
45,100,0.41818181818181815,374,0,1,DL_JapaneseFolk_Guitar,-1,-1
57,100,0.2772727272727273,479,0,1,DL_JapaneseFolk_Guitar,-1,-1
41,100,0.1,625,0,1,DL_JapaneseFolk_Guitar,-1,-1
57,100,0.7,673,0,1,DL_JapaneseFolk_Guitar,-1,-1
54,100,0.3,866,0,1,DL_JapaneseFolk_Guitar,-1,-1
52,100,0.5590909090909091,57,1,2,DL_JapaneseFolk_Guitar,-1,-1
57,100,0.2818181818181818,180,0,2,DL_JapaneseFolk_Guitar,-1,-1
45,100,0.4772727272727273,523,1,2,DL_JapaneseFolk_Guitar,-1,-1
57,100,0.2590909090909091,633,0,2,DL_JapaneseFolk_Guitar,-1,-1
59,100,0.2590909090909091,703,0,2,DL_JapaneseFolk_Guitar,-1,-1
57,100,0.740909090909091,822,0,2,DL_JapaneseFolk_Guitar,-1,-1
54,100,0.1409090909090909,144,1,3,DL_JapaneseFolk_Guitar,-1,-1
57,100,0.9,201,0,3,DL_JapaneseFolk_Guitar,-1,-1
42,100,0.1409090909090909,418,1,3,DL_JapaneseFolk_Guitar,-1,-1
52,100,0.2409090909090909,466,0,3,DL_JapaneseFolk_Guitar,-1,-1
45,100,0.2,546,0,3,DL_JapaneseFolk_Guitar,-1,-1
52,100,0.1590909090909091,611,0,3,DL_JapaneseFolk_Guitar,-1,-1
44,100,0.3,660,0,3,DL_JapaneseFolk_Guitar,-1,-1
52,100,0.11818181818181818,788,0,3,DL_JapaneseFolk_Guitar,-1,-1
40,100,0.18181818181818182,827,0,3,DL_JapaneseFolk_Guitar,-1,-1
59,100,0.6409090909090909,91,1,4,DL_JapaneseFolk_Guitar,-1,-1
56,100,0.2,307,1,4,DL_JapaneseFolk_Guitar,-1,-1
64,100,0.21818181818181817,373,0,4,DL_JapaneseFolk_Guitar,-1,-1
52,100,0.22272727272727272,421,0,4,DL_JapaneseFolk_Guitar,-1,-1
59,100,0.1409090909090909,509,0,4,DL_JapaneseFolk_Guitar,-1,-1
59,100,0.6590909090909091,637,0,4,DL_JapaneseFolk_Guitar,-1,-1
42,100,0.4772727272727273,823,0,4,DL_JapaneseFolk_Guitar,-1,-1
61,100,0.1590909090909091,128,1,5,DL_JapaneseFolk_Guitar,-1,-1
57,100,0.740909090909091,242,0,5,DL_JapaneseFolk_Guitar,-1,-1
52,100,0.1590909090909091,452,1,5,DL_JapaneseFolk_Guitar,-1,-1
52,100,0.3409090909090909,496,0,5,DL_JapaneseFolk_Guitar,-1,-1
42,100,0.1590909090909091,716,1,5,DL_JapaneseFolk_Guitar,-1,-1
52,100,0.38181818181818183,761,0,5,DL_JapaneseFolk_Guitar,-1,-1
57,100,0.5181818181818182,844,0,5,DL_JapaneseFolk_Guitar,-1,-1
42,100,0.18181818181818182,153,1,6,DL_JapaneseFolk_Guitar,-1,-1
57,100,0.4,207,0,6,DL_JapaneseFolk_Guitar,-1,-1
52,100,0.1,307,0,6,DL_JapaneseFolk_Guitar,-1,-1
42,100,0.1409090909090909,355,0,6,DL_JapaneseFolk_Guitar,-1,-1
57,100,0.8772727272727273,391,0,6,DL_JapaneseFolk_Guitar,-1,-1
52,100,0.6181818181818182,593,1,6,DL_JapaneseFolk_Guitar,-1,-1
57,100,0.3181818181818182,40,1,7,DL_JapaneseFolk_Guitar,-1,-1
52,100,0.2590909090909091,110,0,7,DL_JapaneseFolk_Guitar,-1,-1
50,100,0.18181818181818182,276,0,7,DL_JapaneseFolk_Guitar,-1,-1
42,100,0.11818181818181818,506,1,7,DL_JapaneseFolk_Guitar,-1,-1
57,100,0.3181818181818182,545,0,7,DL_JapaneseFolk_Guitar,-1,-1
50,100,0.4818181818181818,637,0,7,DL_JapaneseFolk_Guitar,-1,-1
59,100,0.36363636363636365,180,1,8,DL_JapaneseFolk_Guitar,-1,-1
49,100,0.6,378,0,8,DL_JapaneseFolk_Guitar,-1,-1
42,100,0.11818181818181818,656,1,8,DL_JapaneseFolk_Guitar,-1,-1
49,100,0.1,857,1,8,DL_JapaneseFolk_Guitar,-1,-1
57,100,0.23636363636363636,17,1,9,DL_JapaneseFolk_Guitar,-1,-1
42,100,0.17727272727272728,281,1,9,DL_JapaneseFolk_Guitar,-1,-1
47,100,0.5181818181818182,527,1,9,DL_JapaneseFolk_Guitar,-1,-1
62,100,0.3181818181818182,646,0,9,DL_JapaneseFolk_Guitar,-1,-1
42,100,0.12272727272727273,804,0,9,DL_JapaneseFolk_Guitar,-1,-1
57,100,0.5590909090909091,876,0,9,DL_JapaneseFolk_Guitar,-1,-1
47,100,0.1,127,1,10,DL_JapaneseFolk_Guitar,-1,-1
62,100,0.5409090909090909,233,0,10,DL_JapaneseFolk_Guitar,-1,-1
57,100,0.2818181818181818,355,0,10,DL_JapaneseFolk_Guitar,-1,-1
42,100,0.13636363636363635,436,0,10,DL_JapaneseFolk_Guitar,-1,-1
62,100,0.11818181818181818,470,0,10,DL_JapaneseFolk_Guitar,-1,-1
42,100,0.22272727272727272,685,1,10,DL_JapaneseFolk_Guitar,-1,-1
52,100,0.3,818,0,10,DL_JapaneseFolk_Guitar,-1,-1
56,100,0.7,395,1,11,DL_JapaneseFolk_Guitar,-1,-1
42,100,0.8772727272727273,589,0,11,DL_JapaneseFolk_Guitar,-1,-1
50,100,0.5818181818181818,818,1,11,DL_JapaneseFolk_Guitar,-1,-1
57,100,0.35909090909090907,259,1,12,DL_JapaneseFolk_Guitar,-1,-1
50,100,0.2590909090909091,405,0,12,DL_JapaneseFolk_Guitar,-1,-1
56,100,0.1409090909090909,488,0,12,DL_JapaneseFolk_Guitar,-1,-1
49,100,0.5818181818181818,92,1,13,DL_JapaneseFolk_Guitar,-1,-1
56,100,0.18181818181818182,440,1,13,DL_JapaneseFolk_Guitar,-1,-1
57,100,0.2590909090909091,625,0,13,DL_JapaneseFolk_Guitar,-1,-1
49,100,0.2,756,0,13,DL_JapaneseFolk_Guitar,-1,-1
56,100,0.2,818,0,13,DL_JapaneseFolk_Guitar,-1,-1
64,100,0.2772727272727273,876,0,13,DL_JapaneseFolk_Guitar,-1,-1
56,100,0.17727272727272728,75,1,14,DL_JapaneseFolk_Guitar,-1,-1
49,100,0.2,123,0,14,DL_JapaneseFolk_Guitar,-1,-1
47,100,0.5636363636363636,245,0,14,DL_JapaneseFolk_Guitar,-1,-1
57,100,0.2409090909090909,448,1,14,DL_JapaneseFolk_Guitar,-1,-1
62,100,0.2409090909090909,510,0,14,DL_JapaneseFolk_Guitar,-1,-1
57,100,0.32272727272727275,642,0,14,DL_JapaneseFolk_Guitar,-1,-1
52,100,0.1409090909090909,770,0,14,DL_JapaneseFolk_Guitar,-1,-1
57,100,0.12272727272727273,189,1,15,DL_JapaneseFolk_Guitar,-1,-1
57,100,0.6,254,0,15,DL_JapaneseFolk_Guitar,-1,-1
40,100,0.1409090909090909,405,0,15,DL_JapaneseFolk_Guitar,-1,-1
40,100,0.11818181818181818,440,0,15,DL_JapaneseFolk_Guitar,-1,-1
52,100,0.6409090909090909,465,0,15,DL_JapaneseFolk_Guitar,-1,-1
57,100,0.1,716,1,15,DL_JapaneseFolk_Guitar,-1,-1
52,100,0.6363636363636364,766,0,15,DL_JapaneseFolk_Guitar,-1,-1
52,100,0.2,119,1,16,DL_JapaneseFolk_Guitar,-1,-1
64,100,0.2772727272727273,216,0,16,DL_JapaneseFolk_Guitar,-1,-1
52,100,0.13636363636363635,326,0,16,DL_JapaneseFolk_Guitar,-1,-1
64,100,0.1409090909090909,374,0,16,DL_JapaneseFolk_Guitar,-1,-1
52,100,0.37727272727272726,413,0,16,DL_JapaneseFolk_Guitar,-1,-1
40,100,2.559090909090909,584,0,16,DL_JapaneseFolk_Guitar,-1,-1
52,100,0.5,299,1,17,DL_JapaneseFolk_Guitar,-1,-1
52,100,0.6409090909090909,430,0,17,DL_JapaneseFolk_Guitar,-1,-1
40,100,0.1,602,0,17,DL_JapaneseFolk_Guitar,-1,-1
64,100,0.11818181818181818,625,0,17,DL_JapaneseFolk_Guitar,-1,-1
45,100,0.4590909090909091,712,0,17,DL_JapaneseFolk_Guitar,-1,-1
45,100,0.9,839,0,17,DL_JapaneseFolk_Guitar,-1,-1
45,100,0.1409090909090909,162,1,18,DL_JapaneseFolk_Guitar,-1,-1
57,100,0.2590909090909091,198,0,18,DL_JapaneseFolk_Guitar,-1,-1
45,100,0.3,254,0,18,DL_JapaneseFolk_Guitar,-1,-1
61,100,0.3181818181818182,326,0,18,DL_JapaneseFolk_Guitar,-1,-1
45,100,0.1409090909090909,422,0,18,DL_JapaneseFolk_Guitar,-1,-1
61,100,0.4,509,0,18,DL_JapaneseFolk_Guitar,-1,-1
45,100,0.4409090909090909,739,1,18,DL_JapaneseFolk_Guitar,-1,-1
52,100,0.5409090909090909,845,0,18,DL_JapaneseFolk_Guitar,-1,-1
52,100,0.1409090909090909,241,1,19,DL_JapaneseFolk_Guitar,-1,-1
59,100,0.2,303,0,19,DL_JapaneseFolk_Guitar,-1,-1
52,100,0.4,382,0,19,DL_JapaneseFolk_Guitar,-1,-1
59,100,0.4,480,0,19,DL_JapaneseFolk_Guitar,-1,-1
59,100,0.11818181818181818,581,0,19,DL_JapaneseFolk_Guitar,-1,-1
62,100,0.2818181818181818,673,0,19,DL_JapaneseFolk_Guitar,-1,-1
59,100,0.32272727272727275,796,0,19,DL_JapaneseFolk_Guitar,-1,-1
40,100,0.2,0,1,20,DL_JapaneseFolk_Guitar,-1,-1
54,100,0.5818181818181818,113,0,20,DL_JapaneseFolk_Guitar,-1,-1
54,100,0.1409090909090909,316,1,20,DL_JapaneseFolk_Guitar,-1,-1
54,100,0.2590909090909091,374,0,20,DL_JapaneseFolk_Guitar,-1,-1
61,100,0.3181818181818182,436,0,20,DL_JapaneseFolk_Guitar,-1,-1
49,100,0.5818181818181818,264,1,21,DL_JapaneseFolk_Guitar,-1,-1
59,100,0.3409090909090909,409,0,21,DL_JapaneseFolk_Guitar,-1,-1
59,100,0.18181818181818182,528,0,21,DL_JapaneseFolk_Guitar,-1,-1
59,100,0.2590909090909091,594,0,21,DL_JapaneseFolk_Guitar,-1,-1
59,100,0.1,694,0,21,DL_JapaneseFolk_Guitar,-1,-1
49,100,0.1,760,0,21,DL_JapaneseFolk_Guitar,-1,-1
49,100,0.4409090909090909,801,0,21,DL_JapaneseFolk_Guitar,-1,-1
59,100,0.21818181818181817,83,1,22,DL_JapaneseFolk_Guitar,-1,-1
59,100,0.12272727272727273,144,0,22,DL_JapaneseFolk_Guitar,-1,-1
59,100,0.6181818181818182,216,0,22,DL_JapaneseFolk_Guitar,-1,-1
50,100,0.5590909090909091,418,1,22,DL_JapaneseFolk_Guitar,-1,-1
50,100,0.21818181818181817,853,1,22,DL_JapaneseFolk_Guitar,-1,-1
40,100,0.37727272727272726,61,1,23,DL_JapaneseFolk_Guitar,-1,-1
52,100,0.1590909090909091,144,0,23,DL_JapaneseFolk_Guitar,-1,-1
59,100,0.2409090909090909,229,0,23,DL_JapaneseFolk_Guitar,-1,-1
52,100,0.1590909090909091,320,0,23,DL_JapaneseFolk_Guitar,-1,-1
62,100,0.1590909090909091,387,0,23,DL_JapaneseFolk_Guitar,-1,-1
52,100,0.4590909090909091,440,0,23,DL_JapaneseFolk_Guitar,-1,-1
53,100,0.6409090909090909,553,0,23,DL_JapaneseFolk_Guitar,-1,-1
61,100,0.4590909090909091,779,1,23,DL_JapaneseFolk_Guitar,-1,-1
53,100,0.1,69,1,24,DL_JapaneseFolk_Guitar,-1,-1
54,100,0.5818181818181818,189,0,24,DL_JapaneseFolk_Guitar,-1,-1
54,100,0.1590909090909091,571,1,24,DL_JapaneseFolk_Guitar,-1,-1
54,100,0.1,615,0,24,DL_JapaneseFolk_Guitar,-1,-1
54,100,0.1409090909090909,642,0,24,DL_JapaneseFolk_Guitar,-1,-1
54,100,0.23636363636363636,40,1,25,DL_JapaneseFolk_Guitar,-1,-1
57,100,0.38181818181818183,154,0,25,DL_JapaneseFolk_Guitar,-1,-1
54,100,0.2818181818181818,550,1,25,DL_JapaneseFolk_Guitar,-1,-1
62,100,0.2818181818181818,619,0,25,DL_JapaneseFolk_Guitar,-1,-1
62,100,0.21818181818181817,756,0,25,DL_JapaneseFolk_Guitar,-1,-1
52,100,0.6,866,0,25,DL_JapaneseFolk_Guitar,-1,-1
52,100,0.3,123,1,26,DL_JapaneseFolk_Guitar,-1,-1
52,100,0.18181818181818182,223,0,26,DL_JapaneseFolk_Guitar,-1,-1
64,100,0.11818181818181818,295,0,26,DL_JapaneseFolk_Guitar,-1,-1
52,100,0.5818181818181818,374,0,26,DL_JapaneseFolk_Guitar,-1,-1
59,100,0.4590909090909091,515,0,26,DL_JapaneseFolk_Guitar,-1,-1
64,100,0.35909090909090907,677,0,26,DL_JapaneseFolk_Guitar,-1,-1
52,100,0.3,17,1,27,DL_JapaneseFolk_Guitar,-1,-1
57,100,0.2409090909090909,136,0,27,DL_JapaneseFolk_Guitar,-1,-1
45,100,0.32272727272727275,189,0,27,DL_JapaneseFolk_Guitar,-1,-1
57,100,0.1590909090909091,260,0,27,DL_JapaneseFolk_Guitar,-1,-1
45,100,0.5590909090909091,295,0,27,DL_JapaneseFolk_Guitar,-1,-1
45,100,0.4636363636363636,422,0,27,DL_JapaneseFolk_Guitar,-1,-1
57,100,0.1590909090909091,528,0,27,DL_JapaneseFolk_Guitar,-1,-1
45,100,0.5,563,0,27,DL_JapaneseFolk_Guitar,-1,-1
45,100,0.37727272727272726,691,0,27,DL_JapaneseFolk_Guitar,-1,-1
61,100,0.38181818181818183,835,0,27,DL_JapaneseFolk_Guitar,-1,-1
45,100,0.18181818181818182,44,1,28,DL_JapaneseFolk_Guitar,-1,-1
61,100,0.2,88,0,28,DL_JapaneseFolk_Guitar,-1,-1
45,100,0.4636363636363636,179,0,28,DL_JapaneseFolk_Guitar,-1,-1
52,100,0.5409090909090909,285,0,28,DL_JapaneseFolk_Guitar,-1,-1
59,100,0.3181818181818182,470,0,28,DL_JapaneseFolk_Guitar,-1,-1
52,100,0.2818181818181818,550,0,28,DL_JapaneseFolk_Guitar,-1,-1
52,100,0.4772727272727273,691,0,28,DL_JapaneseFolk_Guitar,-1,-1
62,100,0.2,804,0,28,DL_JapaneseFolk_Guitar,-1,-1
59,100,0.23636363636363636,237,1,29,DL_JapaneseFolk_Guitar,-1,-1
40,100,0.2818181818181818,320,0,29,DL_JapaneseFolk_Guitar,-1,-1
52,100,0.1,382,0,29,DL_JapaneseFolk_Guitar,-1,-1
54,100,0.11818181818181818,528,0,29,DL_JapaneseFolk_Guitar,-1,-1
61,100,0.36363636363636365,752,1,29,DL_JapaneseFolk_Guitar,-1,-1
42,100,0.1409090909090909,862,0,29,DL_JapaneseFolk_Guitar,-1,-1
61,100,0.1590909090909091,40,1,30,DL_JapaneseFolk_Guitar,-1,-1
54,100,0.35909090909090907,110,0,30,DL_JapaneseFolk_Guitar,-1,-1
54,100,0.3409090909090909,453,1,30,DL_JapaneseFolk_Guitar,-1,-1
57,100,0.22272727272727272,532,0,30,DL_JapaneseFolk_Guitar,-1,-1
49,100,0.5227272727272727,598,0,30,DL_JapaneseFolk_Guitar,-1,-1
49,100,0.22272727272727272,849,1,30,DL_JapaneseFolk_Guitar,-1,-1
59,100,0.2409090909090909,44,1,31,DL_JapaneseFolk_Guitar,-1,-1
49,100,0.17727272727272728,303,1,31,DL_JapaneseFolk_Guitar,-1,-1
59,100,0.42272727272727273,399,0,31,DL_JapaneseFolk_Guitar,-1,-1
49,100,0.22272727272727272,497,0,31,DL_JapaneseFolk_Guitar,-1,-1
59,100,0.6181818181818182,559,0,31,DL_JapaneseFolk_Guitar,-1,-1
50,100,0.5181818181818182,743,0,31,DL_JapaneseFolk_Guitar,-1,-1
50,100,0.2772727272727273,105,1,32,DL_JapaneseFolk_Guitar,-1,-1
61,100,0.3181818181818182,176,0,32,DL_JapaneseFolk_Guitar,-1,-1
57,100,0.2409090909090909,263,0,32,DL_JapaneseFolk_Guitar,-1,-1
57,100,0.2,330,0,32,DL_JapaneseFolk_Guitar,-1,-1
52,100,0.5590909090909091,383,0,32,DL_JapaneseFolk_Guitar,-1,-1
59,100,0.12272727272727273,598,1,32,DL_JapaneseFolk_Guitar,-1,-1
40,100,0.18181818181818182,708,0,32,DL_JapaneseFolk_Guitar,-1,-1
40,100,0.2818181818181818,770,0,32,DL_JapaneseFolk_Guitar,-1,-1
52,100,0.17727272727272728,845,0,32,DL_JapaneseFolk_Guitar,-1,-1
41,100,0.4818181818181818,21,1,33,DL_JapaneseFolk_Guitar,-1,-1
56,100,0.4818181818181818,166,0,33,DL_JapaneseFolk_Guitar,-1,-1
49,100,0.12272727272727273,289,0,33,DL_JapaneseFolk_Guitar,-1,-1
61,100,0.21818181818181817,316,0,33,DL_JapaneseFolk_Guitar,-1,-1
61,100,0.32272727272727275,431,0,33,DL_JapaneseFolk_Guitar,-1,-1
42,100,0.4818181818181818,541,0,33,DL_JapaneseFolk_Guitar,-1,-1
57,100,0.21818181818181817,791,1,33,DL_JapaneseFolk_Guitar,-1,-1
54,100,0.2772727272727273,31,1,34,DL_JapaneseFolk_Guitar,-1,-1
57,100,0.21818181818181817,105,0,34,DL_JapaneseFolk_Guitar,-1,-1
47,100,0.5227272727272727,166,0,34,DL_JapaneseFolk_Guitar,-1,-1
62,100,0.2636363636363636,289,0,34,DL_JapaneseFolk_Guitar,-1,-1
57,100,0.38181818181818183,378,0,34,DL_JapaneseFolk_Guitar,-1,-1
62,100,0.4590909090909091,545,0,34,DL_JapaneseFolk_Guitar,-1,-1
40,100,0.4636363636363636,686,0,34,DL_JapaneseFolk_Guitar,-1,-1
64,100,0.13636363636363635,18,1,35,DL_JapaneseFolk_Guitar,-1,-1
40,100,0.1409090909090909,69,0,35,DL_JapaneseFolk_Guitar,-1,-1
40,100,0.2,123,0,35,DL_JapaneseFolk_Guitar,-1,-1
64,100,0.17727272727272728,171,0,35,DL_JapaneseFolk_Guitar,-1,-1
40,100,0.18181818181818182,224,0,35,DL_JapaneseFolk_Guitar,-1,-1
64,100,0.2,273,0,35,DL_JapaneseFolk_Guitar,-1,-1
57,100,0.2409090909090909,316,0,35,DL_JapaneseFolk_Guitar,-1,-1
61,100,1.240909090909091,444,0,35,DL_JapaneseFolk_Guitar,-1,-1
57,100,0.16363636363636364,334,1,36,DL_JapaneseFolk_Guitar,-1,-1
45,100,0.33636363636363636,370,0,36,DL_JapaneseFolk_Guitar,-1,-1
57,100,0.1409090909090909,444,0,36,DL_JapaneseFolk_Guitar,-1,-1
50,100,0.4590909090909091,480,0,36,DL_JapaneseFolk_Guitar,-1,-1
57,100,0.5636363636363636,839,1,36,DL_JapaneseFolk_Guitar,-1,-1
45,100,0.4409090909090909,101,1,37,DL_JapaneseFolk_Guitar,-1,-1
57,100,0.4409090909090909,198,0,37,DL_JapaneseFolk_Guitar,-1,-1
45,100,0.8,421,1,37,DL_JapaneseFolk_Guitar,-1,-1
52,100,0.6,606,0,37,DL_JapaneseFolk_Guitar,-1,-1
54,100,0.5818181818181818,110,1,38,DL_JapaneseFolk_Guitar,-1,-1
54,100,0.3409090909090909,246,0,38,DL_JapaneseFolk_Guitar,-1,-1
57,100,0.1590909090909091,330,0,38,DL_JapaneseFolk_Guitar,-1,-1
64,100,0.2772727272727273,383,0,38,DL_JapaneseFolk_Guitar,-1,-1
54,100,0.1590909090909091,461,0,38,DL_JapaneseFolk_Guitar,-1,-1
54,100,0.4772727272727273,568,0,38,DL_JapaneseFolk_Guitar,-1,-1
54,100,0.1409090909090909,694,0,38,DL_JapaneseFolk_Guitar,-1,-1
50,100,0.8227272727272728,761,0,38,DL_JapaneseFolk_Guitar,-1,-1
45,100,0.41818181818181815,308,1,39,DL_JapaneseFolk_Guitar,-1,-1
45,100,0.21818181818181817,418,0,39,DL_JapaneseFolk_Guitar,-1,-1
45,100,0.7,743,1,39,DL_JapaneseFolk_Guitar,-1,-1
52,100,0.5409090909090909,34,1,40,DL_JapaneseFolk_Guitar,-1,-1
40,100,0.37727272727272726,193,0,40,DL_JapaneseFolk_Guitar,-1,-1
59,100,0.32272727272727275,356,0,40,DL_JapaneseFolk_Guitar,-1,-1
40,100,0.16363636363636364,444,0,40,DL_JapaneseFolk_Guitar,-1,-1
52,100,0.18181818181818182,496,0,40,DL_JapaneseFolk_Guitar,-1,-1
59,100,0.36363636363636365,554,0,40,DL_JapaneseFolk_Guitar,-1,-1
59,100,0.1409090909090909,641,0,40,DL_JapaneseFolk_Guitar,-1,-1
40,100,0.1409090909090909,703,0,40,DL_JapaneseFolk_Guitar,-1,-1
40,100,0.17727272727272728,875,0,40,DL_JapaneseFolk_Guitar,-1,-1
40,100,0.3,61,1,41,DL_JapaneseFolk_Guitar,-1,-1
52,100,0.1409090909090909,141,0,41,DL_JapaneseFolk_Guitar,-1,-1
50,100,0.6181818181818182,176,0,41,DL_JapaneseFolk_Guitar,-1,-1
45,100,0.21818181818181817,593,1,41,DL_JapaneseFolk_Guitar,-1,-1
45,100,0.7636363636363637,664,0,41,DL_JapaneseFolk_Guitar,-1,-1
45,100,0.3181818181818182,0,1,42,DL_JapaneseFolk_Guitar,-1,-1
45,100,0.8,141,0,42,DL_JapaneseFolk_Guitar,-1,-1
49,100,0.6,330,0,42,DL_JapaneseFolk_Guitar,-1,-1
49,100,0.1409090909090909,506,0,42,DL_JapaneseFolk_Guitar,-1,-1
54,100,0.6590909090909091,703,0,42,DL_JapaneseFolk_Guitar,-1,-1
54,100,0.3,853,0,42,DL_JapaneseFolk_Guitar,-1,-1
57,100,0.13636363636363635,61,1,43,DL_JapaneseFolk_Guitar,-1,-1
64,100,0.3181818181818182,105,0,43,DL_JapaneseFolk_Guitar,-1,-1
61,100,0.2409090909090909,176,0,43,DL_JapaneseFolk_Guitar,-1,-1
54,100,0.3409090909090909,276,0,43,DL_JapaneseFolk_Guitar,-1,-1
54,100,0.16363636363636364,356,0,43,DL_JapaneseFolk_Guitar,-1,-1
54,100,0.1590909090909091,431,0,43,DL_JapaneseFolk_Guitar,-1,-1
47,100,0.5227272727272727,488,0,43,DL_JapaneseFolk_Guitar,-1,-1
57,100,0.2,611,0,43,DL_JapaneseFolk_Guitar,-1,-1
61,100,0.38181818181818183,13,1,44,DL_JapaneseFolk_Guitar,-1,-1
49,100,0.3409090909090909,163,0,44,DL_JapaneseFolk_Guitar,-1,-1
50,100,0.17727272727272728,391,1,44,DL_JapaneseFolk_Guitar,-1,-1
64,100,0.13636363636363635,435,0,44,DL_JapaneseFolk_Guitar,-1,-1
52,100,0.11818181818181818,501,0,44,DL_JapaneseFolk_Guitar,-1,-1
52,100,0.4,531,0,44,DL_JapaneseFolk_Guitar,-1,-1
40,100,2.3636363636363638,619,0,44,DL_JapaneseFolk_Guitar,-1,-1
41,100,0.11818181818181818,571,1,45,DL_JapaneseFolk_Guitar,-1,-1
50,100,0.9,774,1,45,DL_JapaneseFolk_Guitar,-1,-1
50,100,0.1409090909090909,246,1,46,DL_JapaneseFolk_Guitar,-1,-1
50,100,0.21818181818181817,373,0,46,DL_JapaneseFolk_Guitar,-1,-1
57,100,0.37727272727272726,426,0,46,DL_JapaneseFolk_Guitar,-1,-1
50,100,0.22272727272727272,563,0,46,DL_JapaneseFolk_Guitar,-1,-1
57,100,0.5181818181818182,743,0,46,DL_JapaneseFolk_Guitar,-1,-1
45,100,0.8,61,1,47,DL_JapaneseFolk_Guitar,-1,-1
57,100,0.8590909090909091,348,1,47,DL_JapaneseFolk_Guitar,-1,-1
57,100,0.18181818181818182,571,1,47,DL_JapaneseFolk_Guitar,-1,-1
45,100,0.11818181818181818,858,1,47,DL_JapaneseFolk_Guitar,-1,-1
57,100,0.3409090909090909,13,1,48,DL_JapaneseFolk_Guitar,-1,-1
45,100,0.41818181818181815,105,0,48,DL_JapaneseFolk_Guitar,-1,-1
49,100,0.8590909090909091,206,0,48,DL_JapaneseFolk_Guitar,-1,-1
56,100,0.2409090909090909,408,1,48,DL_JapaneseFolk_Guitar,-1,-1
59,100,0.1,581,0,48,DL_JapaneseFolk_Guitar,-1,-1
49,100,0.1590909090909091,651,0,48,DL_JapaneseFolk_Guitar,-1,-1
56,100,0.18181818181818182,791,0,48,DL_JapaneseFolk_Guitar,-1,-1
56,100,0.18181818181818182,26,1,49,DL_JapaneseFolk_Guitar,-1,-1
59,100,0.1409090909090909,163,0,49,DL_JapaneseFolk_Guitar,-1,-1
42,100,0.759090909090909,364,1,49,DL_JapaneseFolk_Guitar,-1,-1
54,100,0.4772727272727273,545,0,49,DL_JapaneseFolk_Guitar,-1,-1
54,100,0.21818181818181817,193,1,50,DL_JapaneseFolk_Guitar,-1,-1
42,100,0.1590909090909091,273,0,50,DL_JapaneseFolk_Guitar,-1,-1
61,100,0.2,325,0,50,DL_JapaneseFolk_Guitar,-1,-1
61,100,0.11818181818181818,405,0,50,DL_JapaneseFolk_Guitar,-1,-1
47,100,0.5590909090909091,496,0,50,DL_JapaneseFolk_Guitar,-1,-1
47,100,0.3,628,0,50,DL_JapaneseFolk_Guitar,-1,-1
47,100,0.5818181818181818,761,0,50,DL_JapaneseFolk_Guitar,-1,-1
47,100,0.2636363636363636,26,1,51,DL_JapaneseFolk_Guitar,-1,-1
47,100,0.23636363636363636,150,0,51,DL_JapaneseFolk_Guitar,-1,-1
47,100,0.22272727272727272,276,0,51,DL_JapaneseFolk_Guitar,-1,-1
47,100,0.5818181818181818,330,0,51,DL_JapaneseFolk_Guitar,-1,-1
59,100,0.21818181818181817,480,0,51,DL_JapaneseFolk_Guitar,-1,-1
47,100,0.36363636363636365,531,0,51,DL_JapaneseFolk_Guitar,-1,-1
49,100,0.9590909090909091,651,0,51,DL_JapaneseFolk_Guitar,-1,-1
59,100,0.13636363636363635,875,1,51,DL_JapaneseFolk_Guitar,-1,-1
59,100,0.2772727272727273,105,1,52,DL_JapaneseFolk_Guitar,-1,-1
49,100,0.35909090909090907,211,0,52,DL_JapaneseFolk_Guitar,-1,-1
56,100,0.22272727272727272,298,0,52,DL_JapaneseFolk_Guitar,-1,-1
61,100,0.12272727272727273,576,1,52,DL_JapaneseFolk_Guitar,-1,-1
59,100,0.17727272727272728,625,0,52,DL_JapaneseFolk_Guitar,-1,-1
49,100,0.2,738,0,52,DL_JapaneseFolk_Guitar,-1,-1
50,100,2.3181818181818183,810,0,52,DL_JapaneseFolk_Guitar,-1,-1
57,100,0.4409090909090909,440,1,53,DL_JapaneseFolk_Guitar,-1,-1
50,100,0.2409090909090909,694,1,53,DL_JapaneseFolk_Guitar,-1,-1
57,100,0.2590909090909091,761,0,53,DL_JapaneseFolk_Guitar,-1,-1
50,100,0.22272727272727272,26,1,54,DL_JapaneseFolk_Guitar,-1,-1
52,100,0.8181818181818182,83,0,54,DL_JapaneseFolk_Guitar,-1,-1
40,100,0.3,295,1,54,DL_JapaneseFolk_Guitar,-1,-1
52,100,0.11818181818181818,361,0,54,DL_JapaneseFolk_Guitar,-1,-1
40,100,0.32272727272727275,641,1,54,DL_JapaneseFolk_Guitar,-1,-1
40,100,0.1,751,0,54,DL_JapaneseFolk_Guitar,-1,-1
52,100,0.11818181818181818,836,0,54,DL_JapaneseFolk_Guitar,-1,-1
40,100,0.32272727272727275,114,1,55,DL_JapaneseFolk_Guitar,-1,-1
50,100,0.8409090909090909,233,0,55,DL_JapaneseFolk_Guitar,-1,-1
50,100,0.1,581,1,55,DL_JapaneseFolk_Guitar,-1,-1
50,100,0.18181818181818182,638,0,55,DL_JapaneseFolk_Guitar,-1,-1
50,100,0.1590909090909091,260,1,56,DL_JapaneseFolk_Guitar,-1,-1
57,100,0.2772727272727273,370,0,56,DL_JapaneseFolk_Guitar,-1,-1
45,100,0.6,431,0,56,DL_JapaneseFolk_Guitar,-1,-1
45,100,0.2,606,0,56,DL_JapaneseFolk_Guitar,-1,-1
45,100,0.12272727272727273,664,0,56,DL_JapaneseFolk_Guitar,-1,-1
57,100,0.5,694,0,56,DL_JapaneseFolk_Guitar,-1,-1
45,100,0.1409090909090909,826,0,56,DL_JapaneseFolk_Guitar,-1,-1
57,100,0.21818181818181817,0,1,57,DL_JapaneseFolk_Guitar,-1,-1
45,100,0.6636363636363637,48,0,57,DL_JapaneseFolk_Guitar,-1,-1
45,100,0.1590909090909091,295,1,57,DL_JapaneseFolk_Guitar,-1,-1
61,100,0.6409090909090909,330,0,57,DL_JapaneseFolk_Guitar,-1,-1
45,100,0.1590909090909091,480,0,57,DL_JapaneseFolk_Guitar,-1,-1
49,100,0.8590909090909091,523,0,57,DL_JapaneseFolk_Guitar,-1,-1
49,100,0.41818181818181815,756,1,57,DL_JapaneseFolk_Guitar,-1,-1
49,100,0.5181818181818182,43,1,58,DL_JapaneseFolk_Guitar,-1,-1
49,100,0.18181818181818182,308,1,58,DL_JapaneseFolk_Guitar,-1,-1
59,100,0.22272727272727272,364,0,58,DL_JapaneseFolk_Guitar,-1,-1
49,100,0.3,418,0,58,DL_JapaneseFolk_Guitar,-1,-1
49,100,0.2772727272727273,603,0,58,DL_JapaneseFolk_Guitar,-1,-1
42,100,0.8,681,0,58,DL_JapaneseFolk_Guitar,-1,-1
61,100,0.2,141,1,59,DL_JapaneseFolk_Guitar,-1,-1
54,100,0.11818181818181818,185,0,59,DL_JapaneseFolk_Guitar,-1,-1
54,100,0.1,215,0,59,DL_JapaneseFolk_Guitar,-1,-1
61,100,0.1409090909090909,276,0,59,DL_JapaneseFolk_Guitar,-1,-1
64,100,0.1590909090909091,453,0,59,DL_JapaneseFolk_Guitar,-1,-1
64,100,0.32272727272727275,751,1,59,DL_JapaneseFolk_Guitar,-1,-1
54,100,0.1,826,0,59,DL_JapaneseFolk_Guitar,-1,-1
62,100,0.38181818181818183,136,1,60,DL_JapaneseFolk_Guitar,-1,-1
47,100,0.3409090909090909,383,1,60,DL_JapaneseFolk_Guitar,-1,-1
47,100,0.11818181818181818,568,0,60,DL_JapaneseFolk_Guitar,-1,-1
47,100,0.2409090909090909,598,0,60,DL_JapaneseFolk_Guitar,-1,-1
47,100,0.4,691,0,60,DL_JapaneseFolk_Guitar,-1,-1
62,100,0.3,788,0,60,DL_JapaneseFolk_Guitar,-1,-1
50,100,0.2590909090909091,96,1,61,DL_JapaneseFolk_Guitar,-1,-1
57,100,0.1590909090909091,386,1,61,DL_JapaneseFolk_Guitar,-1,-1
50,100,0.1,655,1,61,DL_JapaneseFolk_Guitar,-1,-1
50,100,0.3,708,0,61,DL_JapaneseFolk_Guitar,-1,-1
57,100,0.21818181818181817,875,0,61,DL_JapaneseFolk_Guitar,-1,-1
52,100,0.4409090909090909,233,1,62,DL_JapaneseFolk_Guitar,-1,-1
40,100,0.11818181818181818,528,1,62,DL_JapaneseFolk_Guitar,-1,-1
52,100,0.2409090909090909,619,0,62,DL_JapaneseFolk_Guitar,-1,-1
52,100,0.11818181818181818,726,0,62,DL_JapaneseFolk_Guitar,-1,-1
56,100,0.1409090909090909,845,0,62,DL_JapaneseFolk_Guitar,-1,-1
52,100,0.1409090909090909,8,1,63,DL_JapaneseFolk_Guitar,-1,-1
52,100,0.11818181818181818,75,0,63,DL_JapaneseFolk_Guitar,-1,-1
64,100,0.18181818181818182,220,0,63,DL_JapaneseFolk_Guitar,-1,-1
52,100,0.4,263,0,63,DL_JapaneseFolk_Guitar,-1,-1
59,100,0.1590909090909091,875,1,63,DL_JapaneseFolk_Guitar,-1,-1
59,100,0.6227272727272727,136,1,64,DL_JapaneseFolk_Guitar,-1,-1
59,100,0.5590909090909091,383,1,64,DL_JapaneseFolk_Guitar,-1,-1
57,100,1.1636363636363636,553,0,64,DL_JapaneseFolk_Guitar,-1,-1
45,100,0.18181818181818182,813,1,64,DL_JapaneseFolk_Guitar,-1,-1
45,100,0.13636363636363635,17,1,65,DL_JapaneseFolk_Guitar,-1,-1
45,100,0.8363636363636363,106,0,65,DL_JapaneseFolk_Guitar,-1,-1
61,100,0.3,303,0,65,DL_JapaneseFolk_Guitar,-1,-1
61,100,0.1590909090909091,404,0,65,DL_JapaneseFolk_Guitar,-1,-1
57,100,0.1590909090909091,449,0,65,DL_JapaneseFolk_Guitar,-1,-1
61,100,0.3,496,0,65,DL_JapaneseFolk_Guitar,-1,-1
57,100,0.22272727272727272,576,0,65,DL_JapaneseFolk_Guitar,-1,-1
45,100,0.23636363636363636,633,0,65,DL_JapaneseFolk_Guitar,-1,-1
40,100,0.4772727272727273,713,0,65,DL_JapaneseFolk_Guitar,-1,-1
59,100,0.1590909090909091,9,1,66,DL_JapaneseFolk_Guitar,-1,-1
52,100,0.1590909090909091,206,0,66,DL_JapaneseFolk_Guitar,-1,-1
40,100,0.42272727272727273,365,0,66,DL_JapaneseFolk_Guitar,-1,-1
40,100,0.12272727272727273,532,0,66,DL_JapaneseFolk_Guitar,-1,-1
40,100,0.2409090909090909,597,0,66,DL_JapaneseFolk_Guitar,-1,-1
59,100,0.22272727272727272,673,0,66,DL_JapaneseFolk_Guitar,-1,-1
52,100,0.42272727272727273,729,0,66,DL_JapaneseFolk_Guitar,-1,-1
42,100,0.5,857,0,66,DL_JapaneseFolk_Guitar,-1,-1
61,100,0.3,223,1,67,DL_JapaneseFolk_Guitar,-1,-1
57,100,0.1,523,1,67,DL_JapaneseFolk_Guitar,-1,-1
57,100,0.2409090909090909,550,0,67,DL_JapaneseFolk_Guitar,-1,-1
57,100,0.21818181818181817,810,1,67,DL_JapaneseFolk_Guitar,-1,-1
54,100,0.18181818181818182,862,0,67,DL_JapaneseFolk_Guitar,-1,-1
54,100,0.2,26,1,68,DL_JapaneseFolk_Guitar,-1,-1
49,100,0.1,113,0,68,DL_JapaneseFolk_Guitar,-1,-1
61,100,0.1590909090909091,206,0,68,DL_JapaneseFolk_Guitar,-1,-1
59,100,0.3181818181818182,250,0,68,DL_JapaneseFolk_Guitar,-1,-1
61,100,0.12272727272727273,365,0,68,DL_JapaneseFolk_Guitar,-1,-1
49,100,0.5181818181818182,392,0,68,DL_JapaneseFolk_Guitar,-1,-1
49,100,0.1,576,0,68,DL_JapaneseFolk_Guitar,-1,-1
49,100,0.1409090909090909,650,0,68,DL_JapaneseFolk_Guitar,-1,-1
49,100,0.3,686,0,68,DL_JapaneseFolk_Guitar,-1,-1
59,100,0.2818181818181818,773,0,68,DL_JapaneseFolk_Guitar,-1,-1
59,100,0.22272727272727272,839,0,68,DL_JapaneseFolk_Guitar,-1,-1
49,100,0.5590909090909091,17,1,69,DL_JapaneseFolk_Guitar,-1,-1
61,100,0.22272727272727272,166,0,69,DL_JapaneseFolk_Guitar,-1,-1
49,100,0.13636363636363635,216,0,69,DL_JapaneseFolk_Guitar,-1,-1
50,100,0.41818181818181815,286,0,69,DL_JapaneseFolk_Guitar,-1,-1
50,100,0.3181818181818182,572,1,69,DL_JapaneseFolk_Guitar,-1,-1
54,100,0.1409090909090909,826,1,69,DL_JapaneseFolk_Guitar,-1,-1
54,100,0.12272727272727273,862,0,69,DL_JapaneseFolk_Guitar,-1,-1
57,100,0.3409090909090909,53,1,70,DL_JapaneseFolk_Guitar,-1,-1
49,100,0.5590909090909091,417,1,70,DL_JapaneseFolk_Guitar,-1,-1
56,100,0.1590909090909091,546,0,70,DL_JapaneseFolk_Guitar,-1,-1
49,100,0.3409090909090909,686,0,70,DL_JapaneseFolk_Guitar,-1,-1
42,100,0.4590909090909091,74,1,71,DL_JapaneseFolk_Guitar,-1,-1
61,100,0.1590909090909091,206,0,71,DL_JapaneseFolk_Guitar,-1,-1
54,100,0.1,440,1,71,DL_JapaneseFolk_Guitar,-1,-1
54,100,0.11818181818181818,593,0,71,DL_JapaneseFolk_Guitar,-1,-1
47,100,0.11818181818181818,656,0,71,DL_JapaneseFolk_Guitar,-1,-1
57,100,0.21818181818181817,703,0,71,DL_JapaneseFolk_Guitar,-1,-1
47,100,0.17727272727272728,150,1,72,DL_JapaneseFolk_Guitar,-1,-1
47,100,0.2818181818181818,202,0,72,DL_JapaneseFolk_Guitar,-1,-1
47,100,0.2590909090909091,603,1,72,DL_JapaneseFolk_Guitar,-1,-1
52,100,0.6772727272727272,722,0,72,DL_JapaneseFolk_Guitar,-1,-1
52,100,0.2409090909090909,96,1,73,DL_JapaneseFolk_Guitar,-1,-1
59,100,0.11818181818181818,184,0,73,DL_JapaneseFolk_Guitar,-1,-1
52,100,0.3181818181818182,220,0,73,DL_JapaneseFolk_Guitar,-1,-1
52,100,0.1,294,0,73,DL_JapaneseFolk_Guitar,-1,-1
52,100,0.5227272727272727,356,0,73,DL_JapaneseFolk_Guitar,-1,-1
40,100,0.22272727272727272,619,1,73,DL_JapaneseFolk_Guitar,-1,-1
52,100,0.5,673,0,73,DL_JapaneseFolk_Guitar,-1,-1
52,100,0.22272727272727272,817,0,73,DL_JapaneseFolk_Guitar,-1,-1
45,100,0.4772727272727273,17,1,74,DL_JapaneseFolk_Guitar,-1,-1
61,100,0.35909090909090907,166,0,74,DL_JapaneseFolk_Guitar,-1,-1
57,100,0.35909090909090907,260,0,74,DL_JapaneseFolk_Guitar,-1,-1
61,100,0.32272727272727275,443,0,74,DL_JapaneseFolk_Guitar,-1,-1
45,100,0.3,563,0,74,DL_JapaneseFolk_Guitar,-1,-1
61,100,0.2409090909090909,637,0,74,DL_JapaneseFolk_Guitar,-1,-1
45,100,0.2818181818181818,707,0,74,DL_JapaneseFolk_Guitar,-1,-1
45,100,0.42272727272727273,783,0,74,DL_JapaneseFolk_Guitar,-1,-1
45,100,0.2590909090909091,43,1,75,DL_JapaneseFolk_Guitar,-1,-1
52,100,0.2772727272727273,140,0,75,DL_JapaneseFolk_Guitar,-1,-1
52,100,0.1,206,0,75,DL_JapaneseFolk_Guitar,-1,-1
52,100,0.1409090909090909,242,0,75,DL_JapaneseFolk_Guitar,-1,-1
52,100,0.7363636363636363,282,0,75,DL_JapaneseFolk_Guitar,-1,-1
52,100,0.2590909090909091,449,0,75,DL_JapaneseFolk_Guitar,-1,-1
40,100,0.38181818181818183,563,0,75,DL_JapaneseFolk_Guitar,-1,-1
52,100,0.2409090909090909,646,0,75,DL_JapaneseFolk_Guitar,-1,-1
40,100,0.1,743,0,75,DL_JapaneseFolk_Guitar,-1,-1
52,100,0.1590909090909091,766,0,75,DL_JapaneseFolk_Guitar,-1,-1
40,100,0.4772727272727273,800,0,75,DL_JapaneseFolk_Guitar,-1,-1
40,100,0.3,35,1,76,DL_JapaneseFolk_Guitar,-1,-1
40,100,0.21818181818181817,184,0,76,DL_JapaneseFolk_Guitar,-1,-1
52,100,0.2409090909090909,233,0,76,DL_JapaneseFolk_Guitar,-1,-1
42,100,0.5409090909090909,299,0,76,DL_JapaneseFolk_Guitar,-1,-1
54,100,0.1590909090909091,430,0,76,DL_JapaneseFolk_Guitar,-1,-1
61,100,0.2772727272727273,119,1,77,DL_JapaneseFolk_Guitar,-1,-1
54,100,0.2,303,0,77,DL_JapaneseFolk_Guitar,-1,-1
42,100,0.2,360,0,77,DL_JapaneseFolk_Guitar,-1,-1
49,100,0.5590909090909091,440,0,77,DL_JapaneseFolk_Guitar,-1,-1
56,100,0.5181818181818182,580,0,77,DL_JapaneseFolk_Guitar,-1,-1
59,100,0.2409090909090909,695,0,77,DL_JapaneseFolk_Guitar,-1,-1
59,100,0.35909090909090907,756,0,77,DL_JapaneseFolk_Guitar,-1,-1
59,100,0.12272727272727273,47,1,78,DL_JapaneseFolk_Guitar,-1,-1
61,100,0.2409090909090909,140,0,78,DL_JapaneseFolk_Guitar,-1,-1
49,100,0.2818181818181818,333,0,78,DL_JapaneseFolk_Guitar,-1,-1
49,100,0.2772727272727273,514,0,78,DL_JapaneseFolk_Guitar,-1,-1
50,100,0.4818181818181818,593,0,78,DL_JapaneseFolk_Guitar,-1,-1
52,100,0.17727272727272728,229,1,79,DL_JapaneseFolk_Guitar,-1,-1
59,100,0.32272727272727275,409,0,79,DL_JapaneseFolk_Guitar,-1,-1
52,100,0.11818181818181818,502,0,79,DL_JapaneseFolk_Guitar,-1,-1
52,100,0.2636363636363636,532,0,79,DL_JapaneseFolk_Guitar,-1,-1
40,100,0.4818181818181818,619,0,79,DL_JapaneseFolk_Guitar,-1,-1
56,100,1.1181818181818182,747,0,79,DL_JapaneseFolk_Guitar,-1,-1
61,100,0.5363636363636364,127,1,80,DL_JapaneseFolk_Guitar,-1,-1
42,100,0.5,386,1,80,DL_JapaneseFolk_Guitar,-1,-1
64,100,0.3,509,0,80,DL_JapaneseFolk_Guitar,-1,-1
54,100,0.4,629,0,80,DL_JapaneseFolk_Guitar,-1,-1
47,100,0.5772727272727273,9,1,81,DL_JapaneseFolk_Guitar,-1,-1
62,100,0.1,263,1,81,DL_JapaneseFolk_Guitar,-1,-1
47,100,0.41818181818181815,426,0,81,DL_JapaneseFolk_Guitar,-1,-1
49,100,0.5409090909090909,532,0,81,DL_JapaneseFolk_Guitar,-1,-1
59,100,0.5227272727272727,783,1,81,DL_JapaneseFolk_Guitar,-1,-1
61,100,0.1,17,1,82,DL_JapaneseFolk_Guitar,-1,-1
49,100,0.43636363636363634,40,0,82,DL_JapaneseFolk_Guitar,-1,-1
42,100,0.4636363636363636,179,0,82,DL_JapaneseFolk_Guitar,-1,-1
40,100,0.35909090909090907,426,1,82,DL_JapaneseFolk_Guitar,-1,-1
52,100,0.2,506,0,82,DL_JapaneseFolk_Guitar,-1,-1
57,100,0.42272727272727273,716,1,82,DL_JapaneseFolk_Guitar,-1,-1
49,100,1.1,47,1,83,DL_JapaneseFolk_Guitar,-1,-1
54,100,0.11818181818181818,339,1,83,DL_JapaneseFolk_Guitar,-1,-1
50,100,1.040909090909091,223,1,84,DL_JapaneseFolk_Guitar,-1,-1
52,100,0.38181818181818183,453,1,84,DL_JapaneseFolk_Guitar,-1,-1
52,100,0.5227272727272727,597,0,84,DL_JapaneseFolk_Guitar,-1,-1
52,100,0.38181818181818183,849,1,84,DL_JapaneseFolk_Guitar,-1,-1
40,100,0.1590909090909091,132,1,85,DL_JapaneseFolk_Guitar,-1,-1
59,100,0.1590909090909091,193,0,85,DL_JapaneseFolk_Guitar,-1,-1
42,100,0.41818181818181815,237,0,85,DL_JapaneseFolk_Guitar,-1,-1
42,100,0.1,333,0,85,DL_JapaneseFolk_Guitar,-1,-1
50,100,0.9181818181818182,660,1,85,DL_JapaneseFolk_Guitar,-1,-1
42,100,0.5,17,1,86,DL_JapaneseFolk_Guitar,-1,-1
42,100,0.21818181818181817,132,0,86,DL_JapaneseFolk_Guitar,-1,-1
64,100,0.1409090909090909,220,0,86,DL_JapaneseFolk_Guitar,-1,-1
64,100,0.8590909090909091,307,0,86,DL_JapaneseFolk_Guitar,-1,-1
42,100,0.4636363636363636,509,1,86,DL_JapaneseFolk_Guitar,-1,-1
64,100,0.4,616,0,86,DL_JapaneseFolk_Guitar,-1,-1
45,100,1.1590909090909092,756,0,86,DL_JapaneseFolk_Guitar,-1,-1
57,100,0.5227272727272727,532,1,87,DL_JapaneseFolk_Guitar,-1,-1
52,100,0.6818181818181818,660,0,87,DL_JapaneseFolk_Guitar,-1,-1
57,100,0.17727272727272728,866,1,87,DL_JapaneseFolk_Guitar,-1,-1
50,100,0.5181818181818182,43,1,88,DL_JapaneseFolk_Guitar,-1,-1
50,100,0.3,223,0,88,DL_JapaneseFolk_Guitar,-1,-1
57,100,0.5772727272727273,294,0,88,DL_JapaneseFolk_Guitar,-1,-1
50,100,0.12272727272727273,430,0,88,DL_JapaneseFolk_Guitar,-1,-1
52,100,0.6,540,0,88,DL_JapaneseFolk_Guitar,-1,-1
52,100,0.21818181818181817,682,0,88,DL_JapaneseFolk_Guitar,-1,-1
52,100,0.3181818181818182,734,0,88,DL_JapaneseFolk_Guitar,-1,-1
64,100,0.2409090909090909,13,1,89,DL_JapaneseFolk_Guitar,-1,-1
64,100,0.22272727272727272,92,0,89,DL_JapaneseFolk_Guitar,-1,-1
64,100,0.2590909090909091,184,0,89,DL_JapaneseFolk_Guitar,-1,-1
45,100,0.11818181818181818,260,0,89,DL_JapaneseFolk_Guitar,-1,-1
41,100,0.1,330,0,89,DL_JapaneseFolk_Guitar,-1,-1
42,100,0.12272727272727273,399,0,89,DL_JapaneseFolk_Guitar,-1,-1
40,100,0.5818181818181818,440,0,89,DL_JapaneseFolk_Guitar,-1,-1
40,100,0.12272727272727273,576,0,89,DL_JapaneseFolk_Guitar,-1,-1
64,100,0.5590909090909091,603,0,89,DL_JapaneseFolk_Guitar,-1,-1
42,100,0.2590909090909091,805,1,89,DL_JapaneseFolk_Guitar,-1,-1
46,100,0.40454545454545454,332,1,0,_Heartfelt_folk-pop-rock_Guitar_1,-1,-1
53,100,0.09090909090909091,469,0,0,_Heartfelt_folk-pop-rock_Guitar_1,-1,-1
57,100,0.2409090909090909,562,0,0,_Heartfelt_folk-pop-rock_Guitar_1,-1,-1
53,100,0.4409090909090909,704,0,0,_Heartfelt_folk-pop-rock_Guitar_1,-1,-1
53,100,0.5681818181818182,114,1,1,_Heartfelt_folk-pop-rock_Guitar_1,-1,-1
53,100,0.20454545454545456,259,0,1,_Heartfelt_folk-pop-rock_Guitar_1,-1,-1
53,100,0.5318181818181819,398,0,1,_Heartfelt_folk-pop-rock_Guitar_1,-1,-1
55,100,0.2590909090909091,539,0,1,_Heartfelt_folk-pop-rock_Guitar_1,-1,-1
46,100,0.22272727272727272,628,0,1,_Heartfelt_folk-pop-rock_Guitar_1,-1,-1
53,100,0.31363636363636366,79,1,2,_Heartfelt_folk-pop-rock_Guitar_1,-1,-1
55,100,0.2,234,0,2,_Heartfelt_folk-pop-rock_Guitar_1,-1,-1
53,100,0.20454545454545456,375,0,2,_Heartfelt_folk-pop-rock_Guitar_1,-1,-1
53,100,0.16363636363636364,424,0,2,_Heartfelt_folk-pop-rock_Guitar_1,-1,-1
53,100,0.29545454545454547,657,1,2,_Heartfelt_folk-pop-rock_Guitar_1,-1,-1
46,100,0.12727272727272726,767,0,2,_Heartfelt_folk-pop-rock_Guitar_1,-1,-1
48,100,0.36818181818181817,5,1,3,_Heartfelt_folk-pop-rock_Guitar_1,-1,-1
57,100,0.23636363636363636,171,0,3,_Heartfelt_folk-pop-rock_Guitar_1,-1,-1
57,100,0.5681818181818182,376,1,3,_Heartfelt_folk-pop-rock_Guitar_1,-1,-1
55,100,0.22272727272727272,513,0,3,_Heartfelt_folk-pop-rock_Guitar_1,-1,-1
53,100,0.31363636363636366,567,0,3,_Heartfelt_folk-pop-rock_Guitar_1,-1,-1
55,100,0.31363636363636366,651,0,3,_Heartfelt_folk-pop-rock_Guitar_1,-1,-1
55,100,0.22272727272727272,67,1,4,_Heartfelt_folk-pop-rock_Guitar_1,-1,-1
55,100,0.2909090909090909,208,0,4,_Heartfelt_folk-pop-rock_Guitar_1,-1,-1
41,100,0.18181818181818182,301,0,4,_Heartfelt_folk-pop-rock_Guitar_1,-1,-1
41,100,0.15,366,0,4,_Heartfelt_folk-pop-rock_Guitar_1,-1,-1
53,100,0.10909090909090909,407,0,4,_Heartfelt_folk-pop-rock_Guitar_1,-1,-1
41,100,0.2772727272727273,431,0,4,_Heartfelt_folk-pop-rock_Guitar_1,-1,-1
60,100,0.10909090909090909,495,0,4,_Heartfelt_folk-pop-rock_Guitar_1,-1,-1
57,100,0.10909090909090909,597,0,4,_Heartfelt_folk-pop-rock_Guitar_1,-1,-1
57,100,0.38636363636363635,682,0,4,_Heartfelt_folk-pop-rock_Guitar_1,-1,-1
55,100,0.33181818181818185,856,0,4,_Heartfelt_folk-pop-rock_Guitar_1,-1,-1
55,100,0.4409090909090909,85,1,5,_Heartfelt_folk-pop-rock_Guitar_1,-1,-1
53,100,0.6954545454545454,258,0,5,_Heartfelt_folk-pop-rock_Guitar_1,-1,-1
53,100,0.16818181818181818,481,1,5,_Heartfelt_folk-pop-rock_Guitar_1,-1,-1
53,100,0.10909090909090909,521,0,5,_Heartfelt_folk-pop-rock_Guitar_1,-1,-1
53,100,0.14545454545454545,557,0,5,_Heartfelt_folk-pop-rock_Guitar_1,-1,-1
53,100,0.38636363636363635,611,0,5,_Heartfelt_folk-pop-rock_Guitar_1,-1,-1
53,100,0.2727272727272727,700,0,5,_Heartfelt_folk-pop-rock_Guitar_1,-1,-1
53,100,0.15,768,0,5,_Heartfelt_folk-pop-rock_Guitar_1,-1,-1
53,100,0.18181818181818182,805,0,5,_Heartfelt_folk-pop-rock_Guitar_1,-1,-1
53,100,0.2772727272727273,73,1,6,_Heartfelt_folk-pop-rock_Guitar_1,-1,-1
53,100,0.10909090909090909,236,0,6,_Heartfelt_folk-pop-rock_Guitar_1,-1,-1
57,100,0.6045454545454545,312,0,6,_Heartfelt_folk-pop-rock_Guitar_1,-1,-1
53,100,0.42727272727272725,813,1,6,_Heartfelt_folk-pop-rock_Guitar_1,-1,-1
53,100,0.2,72,1,7,_Heartfelt_folk-pop-rock_Guitar_1,-1,-1
53,100,0.4409090909090909,136,0,7,_Heartfelt_folk-pop-rock_Guitar_1,-1,-1
53,100,0.14545454545454545,330,0,7,_Heartfelt_folk-pop-rock_Guitar_1,-1,-1
60,100,0.23636363636363636,501,0,7,_Heartfelt_folk-pop-rock_Guitar_1,-1,-1
55,100,0.16363636363636364,602,0,7,_Heartfelt_folk-pop-rock_Guitar_1,-1,-1
48,100,0.16818181818181818,658,0,7,_Heartfelt_folk-pop-rock_Guitar_1,-1,-1
55,100,0.09090909090909091,771,0,7,_Heartfelt_folk-pop-rock_Guitar_1,-1,-1
53,100,0.14545454545454545,8,1,8,_Heartfelt_folk-pop-rock_Guitar_1,-1,-1
53,100,0.2409090909090909,194,0,8,_Heartfelt_folk-pop-rock_Guitar_1,-1,-1
53,100,0.2727272727272727,259,0,8,_Heartfelt_folk-pop-rock_Guitar_1,-1,-1
60,100,0.31363636363636366,331,0,8,_Heartfelt_folk-pop-rock_Guitar_1,-1,-1
63,100,0.21818181818181817,438,0,8,_Heartfelt_folk-pop-rock_Guitar_1,-1,-1
53,100,0.09090909090909091,575,0,8,_Heartfelt_folk-pop-rock_Guitar_1,-1,-1
55,100,0.16363636363636364,620,0,8,_Heartfelt_folk-pop-rock_Guitar_1,-1,-1
53,100,0.12727272727272726,221,1,9,_Heartfelt_folk-pop-rock_Guitar_1,-1,-1
53,100,0.09090909090909091,252,0,9,_Heartfelt_folk-pop-rock_Guitar_1,-1,-1
53,100,0.2,605,1,9,_Heartfelt_folk-pop-rock_Guitar_1,-1,-1
60,100,0.09545454545454546,737,0,9,_Heartfelt_folk-pop-rock_Guitar_1,-1,-1
53,100,0.10909090909090909,453,1,10,_Heartfelt_folk-pop-rock_Guitar_1,-1,-1
53,100,0.10909090909090909,513,0,10,_Heartfelt_folk-pop-rock_Guitar_1,-1,-1
53,100,0.1318181818181818,570,0,10,_Heartfelt_folk-pop-rock_Guitar_1,-1,-1
58,100,0.10909090909090909,622,0,10,_Heartfelt_folk-pop-rock_Guitar_1,-1,-1
60,100,0.09090909090909091,728,0,10,_Heartfelt_folk-pop-rock_Guitar_1,-1,-1
60,100,0.2545454545454545,780,0,10,_Heartfelt_folk-pop-rock_Guitar_1,-1,-1
55,100,0.16363636363636364,41,1,11,_Heartfelt_folk-pop-rock_Guitar_1,-1,-1
48,100,0.09545454545454546,336,1,11,_Heartfelt_folk-pop-rock_Guitar_1,-1,-1
48,100,0.14545454545454545,362,0,11,_Heartfelt_folk-pop-rock_Guitar_1,-1,-1
46,100,0.42272727272727273,426,0,11,_Heartfelt_folk-pop-rock_Guitar_1,-1,-1
46,100,0.12727272727272726,603,0,11,_Heartfelt_folk-pop-rock_Guitar_1,-1,-1
46,100,0.33181818181818185,692,0,11,_Heartfelt_folk-pop-rock_Guitar_1,-1,-1
60,100,0.16363636363636364,56,1,12,_Heartfelt_folk-pop-rock_Guitar_1,-1,-1
46,100,0.40454545454545454,128,0,12,_Heartfelt_folk-pop-rock_Guitar_1,-1,-1
60,100,0.21818181818181817,335,1,12,_Heartfelt_folk-pop-rock_Guitar_1,-1,-1
60,100,0.42272727272727273,386,0,12,_Heartfelt_folk-pop-rock_Guitar_1,-1,-1
60,100,0.4954545454545455,512,0,12,_Heartfelt_folk-pop-rock_Guitar_1,-1,-1
55,100,0.16818181818181818,637,0,12,_Heartfelt_folk-pop-rock_Guitar_1,-1,-1
53,100,0.6409090909090909,691,0,12,_Heartfelt_folk-pop-rock_Guitar_1,-1,-1
53,100,0.20454545454545456,852,0,12,_Heartfelt_folk-pop-rock_Guitar_1,-1,-1
53,100,0.09090909090909091,29,1,13,_Heartfelt_folk-pop-rock_Guitar_1,-1,-1
41,100,0.14545454545454545,77,0,13,_Heartfelt_folk-pop-rock_Guitar_1,-1,-1
60,100,0.36818181818181817,110,0,13,_Heartfelt_folk-pop-rock_Guitar_1,-1,-1
57,100,0.14545454545454545,280,0,13,_Heartfelt_folk-pop-rock_Guitar_1,-1,-1
62,100,0.31363636363636366,316,0,13,_Heartfelt_folk-pop-rock_Guitar_1,-1,-1
41,100,0.18636363636363637,400,0,13,_Heartfelt_folk-pop-rock_Guitar_1,-1,-1
53,100,0.10909090909090909,539,0,13,_Heartfelt_folk-pop-rock_Guitar_1,-1,-1
41,100,0.10909090909090909,563,0,13,_Heartfelt_folk-pop-rock_Guitar_1,-1,-1
60,100,0.6454545454545455,599,0,13,_Heartfelt_folk-pop-rock_Guitar_1,-1,-1
57,100,0.6454545454545455,749,0,13,_Heartfelt_folk-pop-rock_Guitar_1,-1,-1
48,100,0.15,70,1,14,_Heartfelt_folk-pop-rock_Guitar_1,-1,-1
48,100,0.2,135,0,14,_Heartfelt_folk-pop-rock_Guitar_1,-1,-1
55,100,0.36818181818181817,228,0,14,_Heartfelt_folk-pop-rock_Guitar_1,-1,-1
55,100,0.2545454545454545,314,0,14,_Heartfelt_folk-pop-rock_Guitar_1,-1,-1
60,100,0.2772727272727273,410,0,14,_Heartfelt_folk-pop-rock_Guitar_1,-1,-1
64,100,0.2590909090909091,737,1,14,_Heartfelt_folk-pop-rock_Guitar_1,-1,-1
55,100,0.2727272727272727,835,0,14,_Heartfelt_folk-pop-rock_Guitar_1,-1,-1
53,100,0.12727272727272726,77,1,15,_Heartfelt_folk-pop-rock_Guitar_1,-1,-1
55,100,0.21818181818181817,149,0,15,_Heartfelt_folk-pop-rock_Guitar_1,-1,-1
53,100,0.20454545454545456,206,0,15,_Heartfelt_folk-pop-rock_Guitar_1,-1,-1
62,100,0.09090909090909091,278,0,15,_Heartfelt_folk-pop-rock_Guitar_1,-1,-1
62,100,0.2772727272727273,371,0,15,_Heartfelt_folk-pop-rock_Guitar_1,-1,-1
57,100,0.6272727272727273,489,0,15,_Heartfelt_folk-pop-rock_Guitar_1,-1,-1
60,100,0.12727272727272726,837,1,15,_Heartfelt_folk-pop-rock_Guitar_1,-1,-1
53,100,0.14545454545454545,305,1,16,_Heartfelt_folk-pop-rock_Guitar_1,-1,-1
41,100,0.09090909090909091,370,0,16,_Heartfelt_folk-pop-rock_Guitar_1,-1,-1
44,100,0.11363636363636363,535,0,16,_Heartfelt_folk-pop-rock_Guitar_1,-1,-1
53,100,0.14545454545454545,632,0,16,_Heartfelt_folk-pop-rock_Guitar_1,-1,-1
46,100,0.18636363636363637,790,0,16,_Heartfelt_folk-pop-rock_Guitar_1,-1,-1
46,100,0.09090909090909091,124,1,17,_Heartfelt_folk-pop-rock_Guitar_1,-1,-1
46,100,0.18181818181818182,408,1,17,_Heartfelt_folk-pop-rock_Guitar_1,-1,-1
46,100,0.2590909090909091,529,0,17,_Heartfelt_folk-pop-rock_Guitar_1,-1,-1
53,100,0.14545454545454545,718,0,17,_Heartfelt_folk-pop-rock_Guitar_1,-1,-1
55,100,0.31363636363636366,828,0,17,_Heartfelt_folk-pop-rock_Guitar_1,-1,-1
53,100,0.12727272727272726,20,1,18,_Heartfelt_folk-pop-rock_Guitar_1,-1,-1
53,100,0.2772727272727273,57,0,18,_Heartfelt_folk-pop-rock_Guitar_1,-1,-1
41,100,0.23636363636363636,167,0,18,_Heartfelt_folk-pop-rock_Guitar_1,-1,-1
53,100,0.20454545454545456,388,1,18,_Heartfelt_folk-pop-rock_Guitar_1,-1,-1
41,100,0.5727272727272728,591,1,18,_Heartfelt_folk-pop-rock_Guitar_1,-1,-1
41,100,0.8636363636363636,814,1,18,_Heartfelt_folk-pop-rock_Guitar_1,-1,-1
41,100,0.35,168,1,19,_Heartfelt_folk-pop-rock_Guitar_1,-1,-1
48,100,0.5136363636363637,305,0,19,_Heartfelt_folk-pop-rock_Guitar_1,-1,-1
50,100,0.33181818181818185,182,1,20,_Heartfelt_folk-pop-rock_Guitar_1,-1,-1
46,100,0.6454545454545455,546,1,20,_Heartfelt_folk-pop-rock_Guitar_1,-1,-1
45,100,0.4409090909090909,715,0,20,_Heartfelt_folk-pop-rock_Guitar_1,-1,-1
46,100,0.2545454545454545,873,0,20,_Heartfelt_folk-pop-rock_Guitar_1,-1,-1
46,100,0.22272727272727272,158,1,21,_Heartfelt_folk-pop-rock_Guitar_1,-1,-1
53,100,0.10909090909090909,512,1,22,_Heartfelt_folk-pop-rock_Guitar_1,-1,-1
53,100,0.4409090909090909,649,0,22,_Heartfelt_folk-pop-rock_Guitar_1,-1,-1
53,100,0.2590909090909091,759,0,22,_Heartfelt_folk-pop-rock_Guitar_1,-1,-1
41,100,0.09090909090909091,85,1,23,_Heartfelt_folk-pop-rock_Guitar_1,-1,-1
53,100,0.2590909090909091,130,0,23,_Heartfelt_folk-pop-rock_Guitar_1,-1,-1
55,100,0.29545454545454547,219,0,23,_Heartfelt_folk-pop-rock_Guitar_1,-1,-1
55,100,0.2,437,1,23,_Heartfelt_folk-pop-rock_Guitar_1,-1,-1
48,100,0.2,567,0,23,_Heartfelt_folk-pop-rock_Guitar_1,-1,-1
55,100,0.18181818181818182,636,0,23,_Heartfelt_folk-pop-rock_Guitar_1,-1,-1
55,100,0.23636363636363636,717,0,23,_Heartfelt_folk-pop-rock_Guitar_1,-1,-1
57,100,0.18181818181818182,805,0,23,_Heartfelt_folk-pop-rock_Guitar_1,-1,-1
50,100,0.36818181818181817,845,0,23,_Heartfelt_folk-pop-rock_Guitar_1,-1,-1
50,100,0.2409090909090909,71,1,24,_Heartfelt_folk-pop-rock_Guitar_1,-1,-1
50,100,0.5863636363636363,127,0,24,_Heartfelt_folk-pop-rock_Guitar_1,-1,-1
57,100,0.18636363636363637,264,0,24,_Heartfelt_folk-pop-rock_Guitar_1,-1,-1
57,100,0.31363636363636366,337,0,24,_Heartfelt_folk-pop-rock_Guitar_1,-1,-1
57,100,0.14545454545454545,415,0,24,_Heartfelt_folk-pop-rock_Guitar_1,-1,-1
53,100,0.6818181818181818,528,0,24,_Heartfelt_folk-pop-rock_Guitar_1,-1,-1
53,100,0.12727272727272726,755,1,24,_Heartfelt_folk-pop-rock_Guitar_1,-1,-1
53,100,0.15,822,0,24,_Heartfelt_folk-pop-rock_Guitar_1,-1,-1
53,100,0.38636363636363635,859,0,24,_Heartfelt_folk-pop-rock_Guitar_1,-1,-1
53,100,0.5863636363636363,174,1,25,_Heartfelt_folk-pop-rock_Guitar_1,-1,-1
53,100,0.4818181818181818,310,0,25,_Heartfelt_folk-pop-rock_Guitar_1,-1,-1
53,100,0.2727272727272727,429,0,25,_Heartfelt_folk-pop-rock_Guitar_1,-1,-1
53,100,0.12727272727272726,526,0,25,_Heartfelt_folk-pop-rock_Guitar_1,-1,-1
53,100,0.18636363636363637,683,0,25,_Heartfelt_folk-pop-rock_Guitar_1,-1,-1
55,100,0.2590909090909091,752,0,25,_Heartfelt_folk-pop-rock_Guitar_1,-1,-1
48,100,0.2590909090909091,828,0,25,_Heartfelt_folk-pop-rock_Guitar_1,-1,-1
60,100,0.14545454545454545,30,1,26,_Heartfelt_folk-pop-rock_Guitar_1,-1,-1
60,100,0.2590909090909091,154,0,26,_Heartfelt_folk-pop-rock_Guitar_1,-1,-1
48,100,0.2590909090909091,212,0,26,_Heartfelt_folk-pop-rock_Guitar_1,-1,-1
55,100,0.33181818181818185,288,0,26,_Heartfelt_folk-pop-rock_Guitar_1,-1,-1
55,100,0.3090909090909091,365,0,26,_Heartfelt_folk-pop-rock_Guitar_1,-1,-1
50,100,0.5863636363636363,463,0,26,_Heartfelt_folk-pop-rock_Guitar_1,-1,-1
62,100,0.20454545454545456,591,0,26,_Heartfelt_folk-pop-rock_Guitar_1,-1,-1
50,100,0.4772727272727273,708,0,26,_Heartfelt_folk-pop-rock_Guitar_1,-1,-1
50,100,0.35,879,0,26,_Heartfelt_folk-pop-rock_Guitar_1,-1,-1
53,100,0.3090909090909091,129,1,27,_Heartfelt_folk-pop-rock_Guitar_1,-1,-1
53,100,0.14545454545454545,222,0,27,_Heartfelt_folk-pop-rock_Guitar_1,-1,-1
53,100,0.2590909090909091,281,0,27,_Heartfelt_folk-pop-rock_Guitar_1,-1,-1
53,100,0.32727272727272727,404,0,27,_Heartfelt_folk-pop-rock_Guitar_1,-1,-1
53,100,0.32727272727272727,497,0,27,_Heartfelt_folk-pop-rock_Guitar_1,-1,-1
55,100,0.09090909090909091,670,0,27,_Heartfelt_folk-pop-rock_Guitar_1,-1,-1
50,100,0.2545454545454545,860,0,27,_Heartfelt_folk-pop-rock_Guitar_1,-1,-1
53,100,0.23636363636363636,353,1,28,_Heartfelt_folk-pop-rock_Guitar_1,-1,-1
53,100,0.2909090909090909,437,0,28,_Heartfelt_folk-pop-rock_Guitar_1,-1,-1
53,100,0.2772727272727273,505,0,28,_Heartfelt_folk-pop-rock_Guitar_1,-1,-1
41,100,0.16363636363636364,567,0,28,_Heartfelt_folk-pop-rock_Guitar_1,-1,-1
53,100,0.2,615,0,28,_Heartfelt_folk-pop-rock_Guitar_1,-1,-1
53,100,0.7,752,0,28,_Heartfelt_folk-pop-rock_Guitar_1,-1,-1
55,100,0.16363636363636364,608,1,29,_Heartfelt_folk-pop-rock_Guitar_1,-1,-1
46,100,0.10909090909090909,673,0,29,_Heartfelt_folk-pop-rock_Guitar_1,-1,-1
46,100,0.18181818181818182,239,1,30,_Heartfelt_folk-pop-rock_Guitar_1,-1,-1
50,100,0.7181818181818181,360,0,30,_Heartfelt_folk-pop-rock_Guitar_1,-1,-1
53,100,0.4590909090909091,10,1,31,_Heartfelt_folk-pop-rock_Guitar_1,-1,-1
41,100,0.5136363636363637,110,0,31,_Heartfelt_folk-pop-rock_Guitar_1,-1,-1
53,100,0.12727272727272726,305,0,31,_Heartfelt_folk-pop-rock_Guitar_1,-1,-1
53,100,0.31363636363636366,413,0,31,_Heartfelt_folk-pop-rock_Guitar_1,-1,-1
53,100,0.22272727272727272,519,0,31,_Heartfelt_folk-pop-rock_Guitar_1,-1,-1
55,100,0.10909090909090909,576,0,31,_Heartfelt_folk-pop-rock_Guitar_1,-1,-1
48,100,0.3090909090909091,640,0,31,_Heartfelt_folk-pop-rock_Guitar_1,-1,-1
53,100,0.6818181818181818,533,1,32,_Heartfelt_folk-pop-rock_Guitar_1,-1,-1
55,100,0.20454545454545456,36,1,33,_Heartfelt_folk-pop-rock_Guitar_1,-1,-1
50,100,0.40454545454545454,86,0,33,_Heartfelt_folk-pop-rock_Guitar_1,-1,-1
50,100,0.2,199,0,33,_Heartfelt_folk-pop-rock_Guitar_1,-1,-1
50,100,0.10909090909090909,280,0,33,_Heartfelt_folk-pop-rock_Guitar_1,-1,-1
57,100,0.2409090909090909,385,0,33,_Heartfelt_folk-pop-rock_Guitar_1,-1,-1
53,100,0.2545454545454545,543,0,33,_Heartfelt_folk-pop-rock_Guitar_1,-1,-1
60,100,0.2727272727272727,619,0,33,_Heartfelt_folk-pop-rock_Guitar_1,-1,-1
53,100,0.5727272727272728,1,1,34,_Heartfelt_folk-pop-rock_Guitar_1,-1,-1
60,100,0.22272727272727272,176,0,34,_Heartfelt_folk-pop-rock_Guitar_1,-1,-1
55,100,0.33181818181818185,268,0,34,_Heartfelt_folk-pop-rock_Guitar_1,-1,-1
48,100,0.40454545454545454,342,0,34,_Heartfelt_folk-pop-rock_Guitar_1,-1,-1
55,100,0.36818181818181817,439,0,34,_Heartfelt_folk-pop-rock_Guitar_1,-1,-1
48,100,0.10909090909090909,523,0,34,_Heartfelt_folk-pop-rock_Guitar_1,-1,-1
55,100,0.40454545454545454,648,0,34,_Heartfelt_folk-pop-rock_Guitar_1,-1,-1
55,100,0.14545454545454545,758,0,34,_Heartfelt_folk-pop-rock_Guitar_1,-1,-1
55,100,0.12727272727272726,795,0,34,_Heartfelt_folk-pop-rock_Guitar_1,-1,-1
53,100,0.14545454545454545,867,0,34,_Heartfelt_folk-pop-rock_Guitar_1,-1,-1
53,100,0.2545454545454545,165,1,35,_Heartfelt_folk-pop-rock_Guitar_1,-1,-1
53,100,0.55,275,0,35,_Heartfelt_folk-pop-rock_Guitar_1,-1,-1
60,100,0.55,425,0,35,_Heartfelt_folk-pop-rock_Guitar_1,-1,-1
55,100,0.1318181818181818,573,0,35,_Heartfelt_folk-pop-rock_Guitar_1,-1,-1
50,100,0.35,634,0,35,_Heartfelt_folk-pop-rock_Guitar_1,-1,-1
50,100,0.5136363636363637,801,0,35,_Heartfelt_folk-pop-rock_Guitar_1,-1,-1
57,100,0.29545454545454547,118,1,36,_Heartfelt_folk-pop-rock_Guitar_1,-1,-1
53,100,0.2727272727272727,192,0,36,_Heartfelt_folk-pop-rock_Guitar_1,-1,-1
53,100,0.16818181818181818,260,0,36,_Heartfelt_folk-pop-rock_Guitar_1,-1,-1
53,100,0.11363636363636363,446,0,36,_Heartfelt_folk-pop-rock_Guitar_1,-1,-1
41,100,0.14545454545454545,495,0,36,_Heartfelt_folk-pop-rock_Guitar_1,-1,-1
53,100,0.1318181818181818,527,0,36,_Heartfelt_folk-pop-rock_Guitar_1,-1,-1
60,100,0.18181818181818182,571,0,36,_Heartfelt_folk-pop-rock_Guitar_1,-1,-1
53,100,0.31363636363636366,676,0,36,_Heartfelt_folk-pop-rock_Guitar_1,-1,-1
55,100,0.2545454545454545,757,0,36,_Heartfelt_folk-pop-rock_Guitar_1,-1,-1
55,100,0.21818181818181817,43,1,37,_Heartfelt_folk-pop-rock_Guitar_1,-1,-1
55,100,0.29545454545454547,96,0,37,_Heartfelt_folk-pop-rock_Guitar_1,-1,-1
55,100,0.5909090909090909,180,0,37,_Heartfelt_folk-pop-rock_Guitar_1,-1,-1
55,100,0.10909090909090909,327,0,37,_Heartfelt_folk-pop-rock_Guitar_1,-1,-1
55,100,0.4409090909090909,435,0,37,_Heartfelt_folk-pop-rock_Guitar_1,-1,-1
53,100,0.09090909090909091,552,0,37,_Heartfelt_folk-pop-rock_Guitar_1,-1,-1
55,100,0.10909090909090909,613,0,37,_Heartfelt_folk-pop-rock_Guitar_1,-1,-1
50,100,0.2,275,1,38,_Heartfelt_folk-pop-rock_Guitar_1,-1,-1
58,100,0.16363636363636364,116,1,44,_Heartfelt_folk-pop-rock_Guitar_1,-1,-1
53,100,0.11363636363636363,192,0,44,_Heartfelt_folk-pop-rock_Guitar_1,-1,-1
46,100,0.11363636363636363,265,0,44,_Heartfelt_folk-pop-rock_Guitar_1,-1,-1
46,100,0.2545454545454545,472,1,44,_Heartfelt_folk-pop-rock_Guitar_1,-1,-1
53,100,0.11363636363636363,536,0,44,_Heartfelt_folk-pop-rock_Guitar_1,-1,-1
46,100,0.14545454545454545,584,0,44,_Heartfelt_folk-pop-rock_Guitar_1,-1,-1
53,100,0.10909090909090909,686,0,44,_Heartfelt_folk-pop-rock_Guitar_1,-1,-1
53,100,0.15,129,1,45,_Heartfelt_folk-pop-rock_Guitar_1,-1,-1
53,100,0.12727272727272726,165,0,45,_Heartfelt_folk-pop-rock_Guitar_1,-1,-1
60,100,0.21818181818181817,428,1,45,_Heartfelt_folk-pop-rock_Guitar_1,-1,-1
64,100,0.2545454545454545,611,0,45,_Heartfelt_folk-pop-rock_Guitar_1,-1,-1
60,100,0.2,357,1,46,_Heartfelt_folk-pop-rock_Guitar_1,-1,-1
59,100,0.16818181818181818,421,0,46,_Heartfelt_folk-pop-rock_Guitar_1,-1,-1
46,100,0.15,802,1,46,_Heartfelt_folk-pop-rock_Guitar_1,-1,-1
53,100,0.10909090909090909,866,0,46,_Heartfelt_folk-pop-rock_Guitar_1,-1,-1
58,100,0.15,11,1,47,_Heartfelt_folk-pop-rock_Guitar_1,-1,-1
46,100,0.29545454545454547,116,0,47,_Heartfelt_folk-pop-rock_Guitar_1,-1,-1
53,100,0.20454545454545456,261,0,47,_Heartfelt_folk-pop-rock_Guitar_1,-1,-1
53,100,0.20454545454545456,444,0,47,_Heartfelt_folk-pop-rock_Guitar_1,-1,-1
41,100,0.20454545454545456,633,0,47,_Heartfelt_folk-pop-rock_Guitar_1,-1,-1
50,100,0.10909090909090909,291,1,48,_Heartfelt_folk-pop-rock_Guitar_1,-1,-1
55,100,0.29545454545454547,598,1,48,_Heartfelt_folk-pop-rock_Guitar_1,-1,-1
55,100,0.09545454545454546,1,1,49,_Heartfelt_folk-pop-rock_Guitar_1,-1,-1
48,100,0.36818181818181817,156,0,49,_Heartfelt_folk-pop-rock_Guitar_1,-1,-1
53,100,0.10909090909090909,270,1,50,_Heartfelt_folk-pop-rock_Guitar_1,-1,-1
53,100,0.10909090909090909,376,0,50,_Heartfelt_folk-pop-rock_Guitar_1,-1,-1
53,100,0.5,593,1,50,_Heartfelt_folk-pop-rock_Guitar_1,-1,-1
48,100,0.3090909090909091,703,0,50,_Heartfelt_folk-pop-rock_Guitar_1,-1,-1
48,100,0.31363636363636366,812,0,50,_Heartfelt_folk-pop-rock_Guitar_1,-1,-1
60,100,0.5863636363636363,21,1,51,_Heartfelt_folk-pop-rock_Guitar_1,-1,-1
60,100,0.1318181818181818,155,0,51,_Heartfelt_folk-pop-rock_Guitar_1,-1,-1
48,100,0.6454545454545455,263,0,51,_Heartfelt_folk-pop-rock_Guitar_1,-1,-1
48,100,0.5136363636363637,421,0,51,_Heartfelt_folk-pop-rock_Guitar_1,-1,-1
60,100,0.6590909090909091,548,0,51,_Heartfelt_folk-pop-rock_Guitar_1,-1,-1
62,100,0.20454545454545456,721,0,51,_Heartfelt_folk-pop-rock_Guitar_1,-1,-1
55,100,0.23636363636363636,846,0,51,_Heartfelt_folk-pop-rock_Guitar_1,-1,-1
48,100,0.20454545454545456,19,1,52,_Heartfelt_folk-pop-rock_Guitar_1,-1,-1
55,100,0.4409090909090909,68,0,52,_Heartfelt_folk-pop-rock_Guitar_1,-1,-1
48,100,3.327272727272727,177,0,52,_Heartfelt_folk-pop-rock_Guitar_1,-1,-1
55,100,0.33181818181818185,33,1,53,_Heartfelt_folk-pop-rock_Guitar_1,-1,-1
55,100,0.31363636363636366,114,0,53,_Heartfelt_folk-pop-rock_Guitar_1,-1,-1
57,100,0.14545454545454545,199,0,53,_Heartfelt_folk-pop-rock_Guitar_1,-1,-1
50,100,1.2136363636363636,320,0,53,_Heartfelt_folk-pop-rock_Guitar_1,-1,-1
50,100,0.5727272727272728,591,1,53,_Heartfelt_folk-pop-rock_Guitar_1,-1,-1
50,100,0.16363636363636364,721,0,53,_Heartfelt_folk-pop-rock_Guitar_1,-1,-1
50,100,0.15,769,0,53,_Heartfelt_folk-pop-rock_Guitar_1,-1,-1
48,100,0.5181818181818182,87,1,54,_Heartfelt_folk-pop-rock_Guitar_1,-1,-1
48,100,0.8090909090909091,208,0,54,_Heartfelt_folk-pop-rock_Guitar_1,-1,-1
53,100,0.7,511,1,54,_Heartfelt_folk-pop-rock_Guitar_1,-1,-1
48,100,0.2545454545454545,317,1,59,_Heartfelt_folk-pop-rock_Guitar_1,-1,-1
53,100,0.12727272727272726,689,1,59,_Heartfelt_folk-pop-rock_Guitar_1,-1,-1
48,100,0.31363636363636366,721,0,59,_Heartfelt_folk-pop-rock_Guitar_1,-1,-1
48,100,0.12727272727272726,795,0,59,_Heartfelt_folk-pop-rock_Guitar_1,-1,-1
53,100,0.1318181818181818,826,0,59,_Heartfelt_folk-pop-rock_Guitar_1,-1,-1
53,100,0.22272727272727272,20,1,60,_Heartfelt_folk-pop-rock_Guitar_1,-1,-1
48,100,0.2409090909090909,112,0,60,_Heartfelt_folk-pop-rock_Guitar_1,-1,-1
48,100,0.16363636363636364,190,0,60,_Heartfelt_folk-pop-rock_Guitar_1,-1,-1
53,100,0.6227272727272727,239,0,60,_Heartfelt_folk-pop-rock_Guitar_1,-1,-1
48,100,0.6409090909090909,448,1,60,_Heartfelt_folk-pop-rock_Guitar_1,-1,-1
55,100,0.12727272727272726,611,0,60,_Heartfelt_folk-pop-rock_Guitar_1,-1,-1
48,100,0.16363636363636364,703,0,60,_Heartfelt_folk-pop-rock_Guitar_1,-1,-1
55,100,0.12727272727272726,748,0,60,_Heartfelt_folk-pop-rock_Guitar_1,-1,-1
53,100,0.2909090909090909,1,1,61,_Heartfelt_folk-pop-rock_Guitar_1,-1,-1
50,100,0.12727272727272726,98,0,61,_Heartfelt_folk-pop-rock_Guitar_1,-1,-1
62,100,0.29545454545454547,215,0,61,_Heartfelt_folk-pop-rock_Guitar_1,-1,-1
50,100,0.09090909090909091,474,1,61,_Heartfelt_folk-pop-rock_Guitar_1,-1,-1
53,100,0.10909090909090909,502,0,61,_Heartfelt_folk-pop-rock_Guitar_1,-1,-1
53,100,0.2,657,0,61,_Heartfelt_folk-pop-rock_Guitar_1,-1,-1
53,100,0.2409090909090909,785,0,61,_Heartfelt_folk-pop-rock_Guitar_1,-1,-1
53,100,0.16818181818181818,874,0,61,_Heartfelt_folk-pop-rock_Guitar_1,-1,-1
53,100,0.1318181818181818,200,1,62,_Heartfelt_folk-pop-rock_Guitar_1,-1,-1
60,100,0.12727272727272726,238,0,62,_Heartfelt_folk-pop-rock_Guitar_1,-1,-1
53,100,0.14545454545454545,269,0,62,_Heartfelt_folk-pop-rock_Guitar_1,-1,-1
53,100,0.16363636363636364,350,0,62,_Heartfelt_folk-pop-rock_Guitar_1,-1,-1
48,100,0.32727272727272727,404,0,62,_Heartfelt_folk-pop-rock_Guitar_1,-1,-1
53,100,0.1318181818181818,480,0,62,_Heartfelt_folk-pop-rock_Guitar_1,-1,-1
48,100,0.6227272727272727,610,0,62,_Heartfelt_folk-pop-rock_Guitar_1,-1,-1
53,100,0.3090909090909091,763,0,62,_Heartfelt_folk-pop-rock_Guitar_1,-1,-1
53,100,0.29545454545454547,847,0,62,_Heartfelt_folk-pop-rock_Guitar_1,-1,-1
55,100,0.2,69,1,63,_Heartfelt_folk-pop-rock_Guitar_1,-1,-1
55,100,0.16363636363636364,178,0,63,_Heartfelt_folk-pop-rock_Guitar_1,-1,-1
53,100,0.18181818181818182,538,1,63,_Heartfelt_folk-pop-rock_Guitar_1,-1,-1
60,100,0.5318181818181819,841,1,63,_Heartfelt_folk-pop-rock_Guitar_1,-1,-1
50,100,0.18181818181818182,111,1,64,_Heartfelt_folk-pop-rock_Guitar_1,-1,-1
54,100,0.09090909090909091,302,0,64,_Heartfelt_folk-pop-rock_Guitar_1,-1,-1
53,100,0.10909090909090909,321,0,64,_Heartfelt_folk-pop-rock_Guitar_1,-1,-1
53,100,0.11363636363636363,454,0,64,_Heartfelt_folk-pop-rock_Guitar_1,-1,-1
53,100,0.14545454545454545,516,0,64,_Heartfelt_folk-pop-rock_Guitar_1,-1,-1
53,100,0.2,661,0,64,_Heartfelt_folk-pop-rock_Guitar_1,-1,-1
53,100,0.11363636363636363,738,0,64,_Heartfelt_folk-pop-rock_Guitar_1,-1,-1
46,100,0.14545454545454545,770,0,64,_Heartfelt_folk-pop-rock_Guitar_1,-1,-1
53,100,0.09090909090909091,0,1,65,_Heartfelt_folk-pop-rock_Guitar_1,-1,-1
48,100,0.38636363636363635,56,0,65,_Heartfelt_folk-pop-rock_Guitar_1,-1,-1
48,100,0.21818181818181817,162,0,65,_Heartfelt_folk-pop-rock_Guitar_1,-1,-1
53,100,0.40454545454545454,234,0,65,_Heartfelt_folk-pop-rock_Guitar_1,-1,-1
48,100,0.18181818181818182,324,0,65,_Heartfelt_folk-pop-rock_Guitar_1,-1,-1
53,100,0.5318181818181819,363,0,65,_Heartfelt_folk-pop-rock_Guitar_1,-1,-1
60,100,0.16818181818181818,484,0,65,_Heartfelt_folk-pop-rock_Guitar_1,-1,-1
53,100,0.10909090909090909,537,0,65,_Heartfelt_folk-pop-rock_Guitar_1,-1,-1
48,100,0.18181818181818182,638,0,65,_Heartfelt_folk-pop-rock_Guitar_1,-1,-1
48,100,0.09090909090909091,696,0,65,_Heartfelt_folk-pop-rock_Guitar_1,-1,-1
53,100,0.16363636363636364,797,0,65,_Heartfelt_folk-pop-rock_Guitar_1,-1,-1
48,100,0.22272727272727272,69,1,66,_Heartfelt_folk-pop-rock_Guitar_1,-1,-1
53,100,0.15,154,0,66,_Heartfelt_folk-pop-rock_Guitar_1,-1,-1
62,100,0.5681818181818182,316,0,66,_Heartfelt_folk-pop-rock_Guitar_1,-1,-1
50,100,0.16363636363636364,486,0,66,_Heartfelt_folk-pop-rock_Guitar_1,-1,-1
50,100,0.21818181818181817,641,0,66,_Heartfelt_folk-pop-rock_Guitar_1,-1,-1
53,100,0.21818181818181817,851,1,66,_Heartfelt_folk-pop-rock_Guitar_1,-1,-1
53,100,0.11363636363636363,96,1,67,_Heartfelt_folk-pop-rock_Guitar_1,-1,-1
53,100,0.20454545454545456,189,0,67,_Heartfelt_folk-pop-rock_Guitar_1,-1,-1
53,100,0.12727272727272726,334,0,67,_Heartfelt_folk-pop-rock_Guitar_1,-1,-1
60,100,0.10909090909090909,455,0,67,_Heartfelt_folk-pop-rock_Guitar_1,-1,-1
60,100,0.18181818181818182,489,0,67,_Heartfelt_folk-pop-rock_Guitar_1,-1,-1
48,100,0.20454545454545456,568,0,67,_Heartfelt_folk-pop-rock_Guitar_1,-1,-1
48,100,0.1318181818181818,646,0,67,_Heartfelt_folk-pop-rock_Guitar_1,-1,-1
53,100,0.09090909090909091,683,0,67,_Heartfelt_folk-pop-rock_Guitar_1,-1,-1
48,100,0.09090909090909091,702,0,67,_Heartfelt_folk-pop-rock_Guitar_1,-1,-1
53,100,0.2409090909090909,746,0,67,_Heartfelt_folk-pop-rock_Guitar_1,-1,-1
48,100,0.4409090909090909,799,0,67,_Heartfelt_folk-pop-rock_Guitar_1,-1,-1
53,100,0.09090909090909091,113,1,68,_Heartfelt_folk-pop-rock_Guitar_1,-1,-1
53,100,0.2,163,0,68,_Heartfelt_folk-pop-rock_Guitar_1,-1,-1
48,100,0.33181818181818185,509,1,68,_Heartfelt_folk-pop-rock_Guitar_1,-1,-1
50,100,0.2772727272727273,857,1,68,_Heartfelt_folk-pop-rock_Guitar_1,-1,-1
50,100,0.15,98,1,69,_Heartfelt_folk-pop-rock_Guitar_1,-1,-1
60,100,0.11363636363636363,269,0,69,_Heartfelt_folk-pop-rock_Guitar_1,-1,-1
53,100,0.15,439,0,69,_Heartfelt_folk-pop-rock_Guitar_1,-1,-1
46,100,0.14545454545454545,483,0,69,_Heartfelt_folk-pop-rock_Guitar_1,-1,-1
58,100,0.10909090909090909,523,0,69,_Heartfelt_folk-pop-rock_Guitar_1,-1,-1
64,100,0.3409090909090909,79,1,0,_Remastered_Guitar,-1,-1
64,100,0.2772727272727273,590,1,2,_Remastered_Guitar,-1,-1
64,100,0.36363636363636365,4,1,51,_Remastered_Guitar,-1,-1
57,100,0.3409090909090909,751,1,60,_Remastered_Guitar,-1,-1
54,100,0.2,836,0,60,_Remastered_Guitar,-1,-1
43,100,0.11818181818181818,844,1,89,_Remastered_Guitar,-1,-1
43,100,0.1590909090909091,0,1,90,_Remastered_Guitar,-1,-1
43,100,0.1,773,1,90,_Remastered_Guitar,-1,-1
43,100,0.1409090909090909,817,0,90,_Remastered_Guitar,-1,-1
43,100,0.13636363636363635,853,0,90,_Remastered_Guitar,-1,-1
43,100,0.2,603,1,93,_Remastered_Guitar,-1,-1
43,100,0.1409090909090909,593,1,94,_Remastered_Guitar,-1,-1
43,100,0.21818181818181817,426,1,95,_Remastered_Guitar,-1,-1
43,100,0.12272727272727273,585,0,95,_Remastered_Guitar,-1,-1
43,100,0.12272727272727273,642,0,95,_Remastered_Guitar,-1,-1
43,100,0.2409090909090909,43,1,96,_Remastered_Guitar,-1,-1
43,100,0.1,233,0,96,_Remastered_Guitar,-1,-1
43,100,0.21818181818181817,392,0,96,_Remastered_Guitar,-1,-1
43,100,0.2,572,0,96,_Remastered_Guitar,-1,-1
43,100,0.1590909090909091,779,1,96,_Remastered_Guitar,-1,-1
43,100,0.11818181818181818,832,0,96,_Remastered_Guitar,-1,-1
64,100,0.3409090909090909,56,1,97,_Remastered_Guitar,-1,-1
64,100,0.3,563,1,99,_Remastered_Guitar,-1,-1
43,100,0.1,536,1,102,_Remastered_Guitar,-1,-1
43,100,0.12272727272727273,585,0,102,_Remastered_Guitar,-1,-1
43,100,0.1409090909090909,726,0,102,_Remastered_Guitar,-1,-1
43,100,0.1409090909090909,800,0,102,_Remastered_Guitar,-1,-1
43,100,0.12272727272727273,839,0,102,_Remastered_Guitar,-1,-1
55,100,0.2590909090909091,475,1,0,_Guitar,-1,-1
48,100,0.7,546,0,0,_Guitar,-1,-1
52,100,0.1590909090909091,704,0,0,_Guitar,-1,-1
52,100,0.17727272727272728,757,0,0,_Guitar,-1,-1
55,100,0.35909090909090907,871,0,0,_Guitar,-1,-1
47,100,0.6590909090909091,285,1,1,_Guitar,-1,-1
47,100,0.4590909090909091,475,0,1,_Guitar,-1,-1
55,100,0.18181818181818182,597,0,1,_Guitar,-1,-1
55,100,0.3,642,0,1,_Guitar,-1,-1
45,100,0.6227272727272727,26,1,2,_Guitar,-1,-1
55,100,0.11818181818181818,339,1,2,_Guitar,-1,-1
60,100,0.2590909090909091,474,0,2,_Guitar,-1,-1
40,100,0.6409090909090909,642,0,2,_Guitar,-1,-1
40,100,0.4636363636363636,818,0,2,_Guitar,-1,-1
55,100,0.32272727272727275,136,1,3,_Guitar,-1,-1
53,100,0.2590909090909091,351,1,3,_Guitar,-1,-1
41,100,0.21818181818181817,449,0,3,_Guitar,-1,-1
53,100,0.1409090909090909,537,0,3,_Guitar,-1,-1
57,100,0.5,571,0,3,_Guitar,-1,-1
57,100,0.2590909090909091,703,0,3,_Guitar,-1,-1
57,100,0.1590909090909091,61,1,4,_Guitar,-1,-1
53,100,0.35909090909090907,101,0,4,_Guitar,-1,-1
52,100,0.2,179,0,4,_Guitar,-1,-1
52,100,0.2,238,0,4,_Guitar,-1,-1
55,100,0.1409090909090909,317,0,4,_Guitar,-1,-1
60,100,0.4,496,0,4,_Guitar,-1,-1
50,100,0.7363636363636363,700,1,4,_Guitar,-1,-1
50,100,0.2818181818181818,69,1,5,_Guitar,-1,-1
57,100,0.5,317,1,5,_Guitar,-1,-1
50,100,0.1,695,1,5,_Guitar,-1,-1
55,100,1.0,744,0,5,_Guitar,-1,-1
55,100,0.1409090909090909,135,1,6,_Guitar,-1,-1
48,100,0.6818181818181818,176,0,6,_Guitar,-1,-1
52,100,0.5590909090909091,352,0,6,_Guitar,-1,-1
55,100,1.3818181818181818,483,0,6,_Guitar,-1,-1
47,100,0.6636363636363637,795,1,6,_Guitar,-1,-1
50,100,0.41818181818181815,61,1,7,_Guitar,-1,-1
47,100,0.12272727272727273,179,0,7,_Guitar,-1,-1
55,100,0.8590909090909091,220,0,7,_Guitar,-1,-1
50,100,0.13636363636363635,480,1,7,_Guitar,-1,-1
45,100,0.6590909090909091,527,0,7,_Guitar,-1,-1
45,100,0.1409090909090909,795,1,7,_Guitar,-1,-1
45,100,0.9227272727272727,871,0,7,_Guitar,-1,-1
52,100,0.7181818181818181,250,1,8,_Guitar,-1,-1
55,100,0.33636363636363636,436,0,8,_Guitar,-1,-1
55,100,0.1590909090909091,515,0,8,_Guitar,-1,-1
57,100,0.7772727272727272,567,0,8,_Guitar,-1,-1
57,100,0.4,744,0,8,_Guitar,-1,-1
53,100,0.759090909090909,871,0,8,_Guitar,-1,-1
53,100,0.18181818181818182,166,1,9,_Guitar,-1,-1
53,100,0.11818181818181818,259,0,9,_Guitar,-1,-1
57,100,1.3590909090909091,295,0,9,_Guitar,-1,-1
40,100,0.5818181818181818,620,1,9,_Guitar,-1,-1
52,100,0.6818181818181818,44,1,10,_Guitar,-1,-1
47,100,0.6590909090909091,347,1,10,_Guitar,-1,-1
50,100,0.6363636363636364,501,0,10,_Guitar,-1,-1
55,100,0.9818181818181818,660,0,10,_Guitar,-1,-1
55,100,0.3,0,1,11,_Guitar,-1,-1
48,100,0.7227272727272728,70,0,11,_Guitar,-1,-1
52,100,0.6181818181818182,228,0,11,_Guitar,-1,-1
55,100,0.4590909090909091,383,0,11,_Guitar,-1,-1
55,100,0.11818181818181818,493,0,11,_Guitar,-1,-1
48,100,0.1590909090909091,606,0,11,_Guitar,-1,-1
53,100,0.3181818181818182,646,0,11,_Guitar,-1,-1
57,100,0.2409090909090909,783,0,11,_Guitar,-1,-1
53,100,0.18181818181818182,849,0,11,_Guitar,-1,-1
48,100,0.2590909090909091,13,1,12,_Guitar,-1,-1
48,100,0.1590909090909091,237,1,12,_Guitar,-1,-1
55,100,0.1,352,0,12,_Guitar,-1,-1
43,100,0.1,431,0,12,_Guitar,-1,-1
55,100,0.38181818181818183,462,0,12,_Guitar,-1,-1
50,100,0.12272727272727273,563,0,12,_Guitar,-1,-1
55,100,0.21818181818181817,634,0,12,_Guitar,-1,-1
50,100,0.8590909090909091,682,0,12,_Guitar,-1,-1
55,100,0.4,871,0,12,_Guitar,-1,-1
52,100,0.21818181818181817,110,1,13,_Guitar,-1,-1
52,100,0.6,171,0,13,_Guitar,-1,-1
60,100,0.32272727272727275,321,0,13,_Guitar,-1,-1
47,100,0.13636363636363635,524,1,13,_Guitar,-1,-1
55,100,0.2409090909090909,663,0,13,_Guitar,-1,-1
45,100,0.6409090909090909,65,1,14,_Guitar,-1,-1
57,100,0.35909090909090907,206,0,14,_Guitar,-1,-1
60,100,0.2818181818181818,386,0,14,_Guitar,-1,-1
53,100,0.21818181818181817,493,0,14,_Guitar,-1,-1
62,100,0.37727272727272726,546,0,14,_Guitar,-1,-1
50,100,0.4,801,1,14,_Guitar,-1,-1
50,100,0.38181818181818183,92,1,15,_Guitar,-1,-1
52,100,0.35909090909090907,189,0,15,_Guitar,-1,-1
40,100,0.2409090909090909,285,0,15,_Guitar,-1,-1
50,100,0.2409090909090909,527,1,15,_Guitar,-1,-1
64,100,0.2,716,0,15,_Guitar,-1,-1
64,100,0.1,766,0,15,_Guitar,-1,-1
57,100,0.3181818181818182,281,1,16,_Guitar,-1,-1
45,100,0.9181818181818182,374,0,16,_Guitar,-1,-1
52,100,0.2,598,1,16,_Guitar,-1,-1
52,100,0.18181818181818182,650,0,16,_Guitar,-1,-1
57,100,0.12272727272727273,804,0,16,_Guitar,-1,-1
59,100,1.2,9,1,17,_Guitar,-1,-1
53,100,0.18181818181818182,285,1,17,_Guitar,-1,-1
48,100,0.4590909090909091,370,0,17,_Guitar,-1,-1
57,100,0.21818181818181817,470,0,17,_Guitar,-1,-1
48,100,0.1,646,0,17,_Guitar,-1,-1
43,100,0.2590909090909091,866,1,17,_Guitar,-1,-1
50,100,0.8,144,1,18,_Guitar,-1,-1
50,100,0.6,374,1,18,_Guitar,-1,-1
56,100,0.7181818181818181,656,1,18,_Guitar,-1,-1
56,100,0.2409090909090909,88,1,19,_Guitar,-1,-1
56,100,0.8590909090909091,144,0,19,_Guitar,-1,-1
45,100,0.2409090909090909,563,1,19,_Guitar,-1,-1
45,100,0.3,629,0,19,_Guitar,-1,-1
57,100,0.18181818181818182,88,1,20,_Guitar,-1,-1
50,100,0.5181818181818182,162,0,20,_Guitar,-1,-1
50,100,0.7,436,1,20,_Guitar,-1,-1
50,100,0.3,779,1,20,_Guitar,-1,-1
50,100,0.2,862,0,20,_Guitar,-1,-1
50,100,0.8227272727272728,254,1,21,_Guitar,-1,-1
50,100,0.9590909090909091,563,1,21,_Guitar,-1,-1
50,100,0.2590909090909091,876,1,21,_Guitar,-1,-1
55,100,0.2590909090909091,131,1,22,_Guitar,-1,-1
55,100,0.3409090909090909,210,0,22,_Guitar,-1,-1
55,100,0.1409090909090909,333,0,22,_Guitar,-1,-1
50,100,0.1,364,0,22,_Guitar,-1,-1
55,100,0.5409090909090909,405,0,22,_Guitar,-1,-1
52,100,0.33636363636363636,831,1,22,_Guitar,-1,-1
52,100,0.2590909090909091,61,1,23,_Guitar,-1,-1
52,100,0.5590909090909091,123,0,23,_Guitar,-1,-1
52,100,0.2818181818181818,277,0,23,_Guitar,-1,-1
55,100,0.32272727272727275,356,0,23,_Guitar,-1,-1
52,100,0.3409090909090909,426,0,23,_Guitar,-1,-1
55,100,0.5181818181818182,581,0,23,_Guitar,-1,-1
55,100,0.37727272727272726,779,1,23,_Guitar,-1,-1
55,100,0.16363636363636364,113,1,24,_Guitar,-1,-1
50,100,0.18181818181818182,175,0,24,_Guitar,-1,-1
55,100,0.22272727272727272,246,0,24,_Guitar,-1,-1
53,100,0.4409090909090909,308,0,24,_Guitar,-1,-1
53,100,0.4,430,0,24,_Guitar,-1,-1
53,100,0.4,594,0,24,_Guitar,-1,-1
57,100,0.3,694,0,24,_Guitar,-1,-1
53,100,0.2,770,0,24,_Guitar,-1,-1
57,100,0.1,822,0,24,_Guitar,-1,-1
53,100,0.1590909090909091,853,0,24,_Guitar,-1,-1
55,100,0.5636363636363636,69,1,25,_Guitar,-1,-1
52,100,0.12272727272727273,210,0,25,_Guitar,-1,-1
52,100,0.17727272727272728,250,0,25,_Guitar,-1,-1
52,100,0.21818181818181817,374,0,25,_Guitar,-1,-1
52,100,0.1,457,0,25,_Guitar,-1,-1
55,100,0.11818181818181818,492,0,25,_Guitar,-1,-1
52,100,0.6227272727272727,663,0,25,_Guitar,-1,-1
57,100,0.3,839,0,25,_Guitar,-1,-1
45,100,0.11818181818181818,198,1,26,_Guitar,-1,-1
52,100,0.18181818181818182,443,1,26,_Guitar,-1,-1
52,100,0.35909090909090907,501,0,26,_Guitar,-1,-1
52,100,0.42272727272727273,752,1,26,_Guitar,-1,-1
52,100,0.5818181818181818,862,0,26,_Guitar,-1,-1
53,100,0.12272727272727273,123,1,27,_Guitar,-1,-1
53,100,0.2818181818181818,154,0,27,_Guitar,-1,-1
53,100,0.2590909090909091,220,0,27,_Guitar,-1,-1
48,100,0.1409090909090909,374,0,27,_Guitar,-1,-1
53,100,0.4590909090909091,413,0,27,_Guitar,-1,-1
57,100,0.1590909090909091,615,1,27,_Guitar,-1,-1
53,100,0.2818181818181818,660,0,27,_Guitar,-1,-1
55,100,0.1,791,0,27,_Guitar,-1,-1
50,100,0.2590909090909091,827,0,27,_Guitar,-1,-1
50,100,0.35909090909090907,61,1,28,_Guitar,-1,-1
55,100,0.11818181818181818,285,1,28,_Guitar,-1,-1
50,100,0.2,339,0,28,_Guitar,-1,-1
52,100,0.11818181818181818,470,0,28,_Guitar,-1,-1
52,100,0.2,717,1,28,_Guitar,-1,-1
52,100,0.3409090909090909,773,0,28,_Guitar,-1,-1
55,100,0.1590909090909091,17,1,29,_Guitar,-1,-1
55,100,0.5,206,0,29,_Guitar,-1,-1
50,100,0.11818181818181818,316,0,29,_Guitar,-1,-1
55,100,0.3181818181818182,426,0,29,_Guitar,-1,-1
62,100,0.1409090909090909,584,0,29,_Guitar,-1,-1
43,100,0.1,615,0,29,_Guitar,-1,-1
50,100,0.11818181818181818,681,0,29,_Guitar,-1,-1
55,100,0.11818181818181818,735,0,29,_Guitar,-1,-1
53,100,0.3,818,0,29,_Guitar,-1,-1
48,100,0.11818181818181818,52,1,30,_Guitar,-1,-1
53,100,0.2818181818181818,92,0,30,_Guitar,-1,-1
53,100,0.32272727272727275,223,0,30,_Guitar,-1,-1
53,100,0.37727272727272726,303,0,30,_Guitar,-1,-1
53,100,0.11818181818181818,413,0,30,_Guitar,-1,-1
53,100,0.32272727272727275,474,0,30,_Guitar,-1,-1
48,100,0.2818181818181818,773,1,30,_Guitar,-1,-1
52,100,0.1590909090909091,285,1,31,_Guitar,-1,-1
52,100,0.1,333,0,31,_Guitar,-1,-1
52,100,0.5,430,0,31,_Guitar,-1,-1
52,100,0.8409090909090909,576,0,31,_Guitar,-1,-1
57,100,0.1590909090909091,760,0,31,_Guitar,-1,-1
57,100,0.11818181818181818,801,0,31,_Guitar,-1,-1
43,100,0.2590909090909091,31,1,32,_Guitar,-1,-1
62,100,0.13636363636363635,348,1,32,_Guitar,-1,-1
50,100,0.2818181818181818,483,0,32,_Guitar,-1,-1
55,100,0.7181818181818181,778,1,32,_Guitar,-1,-1
55,100,0.11818181818181818,206,1,33,_Guitar,-1,-1
52,100,0.2,295,0,33,_Guitar,-1,-1
52,100,0.2,461,0,33,_Guitar,-1,-1
52,100,0.1,691,1,33,_Guitar,-1,-1
55,100,0.5409090909090909,818,0,33,_Guitar,-1,-1
48,100,0.740909090909091,96,1,34,_Guitar,-1,-1
60,100,0.1409090909090909,541,1,34,_Guitar,-1,-1
43,100,0.3409090909090909,708,0,34,_Guitar,-1,-1
55,100,0.18181818181818182,871,0,34,_Guitar,-1,-1
50,100,0.2,40,1,35,_Guitar,-1,-1
62,100,1.018181818181818,141,0,35,_Guitar,-1,-1
57,100,0.16363636363636364,444,1,35,_Guitar,-1,-1
45,100,0.35909090909090907,518,0,35,_Guitar,-1,-1
57,100,0.4,660,0,35,_Guitar,-1,-1
60,100,0.11818181818181818,765,0,35,_Guitar,-1,-1
57,100,0.12272727272727273,826,0,35,_Guitar,-1,-1
57,100,0.22272727272727272,26,1,36,_Guitar,-1,-1
62,100,0.3409090909090909,554,1,36,_Guitar,-1,-1
53,100,0.11818181818181818,220,1,37,_Guitar,-1,-1
48,100,0.4818181818181818,254,0,37,_Guitar,-1,-1
48,100,0.21818181818181817,391,0,37,_Guitar,-1,-1
48,100,0.2409090909090909,466,0,37,_Guitar,-1,-1
48,100,0.6772727272727272,536,0,37,_Guitar,-1,-1
52,100,0.13636363636363635,700,0,37,_Guitar,-1,-1
52,100,0.3181818181818182,866,0,37,_Guitar,-1,-1
52,100,0.3409090909090909,96,1,38,_Guitar,-1,-1
60,100,0.4,171,0,38,_Guitar,-1,-1
57,100,0.35909090909090907,260,0,38,_Guitar,-1,-1
57,100,0.740909090909091,386,0,38,_Guitar,-1,-1
62,100,0.3181818181818182,646,1,38,_Guitar,-1,-1
57,100,0.12272727272727273,738,0,38,_Guitar,-1,-1
53,100,0.3181818181818182,810,0,38,_Guitar,-1,-1
50,100,0.1409090909090909,114,1,39,_Guitar,-1,-1
43,100,0.4,179,0,39,_Guitar,-1,-1
62,100,0.17727272727272728,361,0,39,_Guitar,-1,-1
59,100,0.2,471,0,39,_Guitar,-1,-1
52,100,0.6227272727272727,774,1,39,_Guitar,-1,-1
60,100,0.5181818181818182,75,1,40,_Guitar,-1,-1
52,100,0.2818181818181818,201,0,40,_Guitar,-1,-1
55,100,0.13636363636363635,303,0,40,_Guitar,-1,-1
55,100,0.2409090909090909,488,0,40,_Guitar,-1,-1
55,100,0.36363636363636365,796,1,40,_Guitar,-1,-1
45,100,0.6409090909090909,88,1,41,_Guitar,-1,-1
60,100,0.6409090909090909,396,1,41,_Guitar,-1,-1
57,100,0.12272727272727273,541,0,41,_Guitar,-1,-1
57,100,0.33636363636363636,611,0,41,_Guitar,-1,-1
62,100,0.3,211,1,42,_Guitar,-1,-1
57,100,0.6590909090909091,426,1,42,_Guitar,-1,-1
57,100,0.41818181818181815,633,1,42,_Guitar,-1,-1
60,100,0.16363636363636364,751,0,42,_Guitar,-1,-1
60,100,0.22272727272727272,839,0,42,_Guitar,-1,-1
41,100,0.11818181818181818,18,1,43,_Guitar,-1,-1
60,100,0.38181818181818183,43,0,43,_Guitar,-1,-1
43,100,0.2590909090909091,251,1,43,_Guitar,-1,-1
55,100,0.3181818181818182,383,0,43,_Guitar,-1,-1
55,100,0.16363636363636364,509,0,43,_Guitar,-1,-1
50,100,0.4772727272727273,633,0,43,_Guitar,-1,-1
48,100,0.1590909090909091,770,0,43,_Guitar,-1,-1
52,100,0.4818181818181818,48,1,44,_Guitar,-1,-1
60,100,0.18181818181818182,351,1,44,_Guitar,-1,-1
60,100,0.2818181818181818,408,0,44,_Guitar,-1,-1
55,100,0.3181818181818182,515,0,44,_Guitar,-1,-1
55,100,0.2590909090909091,616,0,44,_Guitar,-1,-1
52,100,1.7,678,0,44,_Guitar,-1,-1
60,100,0.12272727272727273,201,1,45,_Guitar,-1,-1
53,100,0.11818181818181818,238,0,45,_Guitar,-1,-1
41,100,0.6,263,0,45,_Guitar,-1,-1
41,100,0.36363636363636365,399,0,45,_Guitar,-1,-1
48,100,0.1590909090909091,743,1,45,_Guitar,-1,-1
53,100,0.18181818181818182,791,0,45,_Guitar,-1,-1
43,100,0.7181818181818181,858,0,45,_Guitar,-1,-1
59,100,0.8227272727272728,276,1,46,_Guitar,-1,-1
50,100,0.2818181818181818,474,1,46,_Guitar,-1,-1
52,100,0.8,581,0,46,_Guitar,-1,-1
52,100,0.2772727272727273,31,1,47,_Guitar,-1,-1
62,100,0.9,105,0,47,_Guitar,-1,-1
45,100,0.6,343,1,47,_Guitar,-1,-1
50,100,1.3409090909090908,56,1,48,_Guitar,-1,-1
50,100,0.7,421,1,48,_Guitar,-1,-1
50,100,0.2,581,0,48,_Guitar,-1,-1
47,100,0.35909090909090907,748,0,48,_Guitar,-1,-1
50,100,1.1227272727272728,123,1,49,_Guitar,-1,-1
45,100,0.2818181818181818,496,1,49,_Guitar,-1,-1
43,100,0.18181818181818182,619,1,50,_Guitar,-1,-1
53,100,0.2636363636363636,686,0,50,_Guitar,-1,-1
53,100,1.4,748,0,50,_Guitar,-1,-1
60,100,0.759090909090909,185,1,51,_Guitar,-1,-1
53,100,0.4,391,1,51,_Guitar,-1,-1
50,100,0.1590909090909091,515,0,51,_Guitar,-1,-1
59,100,0.4409090909090909,550,0,51,_Guitar,-1,-1
43,100,0.5,839,1,51,_Guitar,-1,-1
55,100,0.1,276,1,52,_Guitar,-1,-1
40,100,0.740909090909091,356,0,52,_Guitar,-1,-1
52,100,1.0818181818181818,528,0,52,_Guitar,-1,-1
52,100,0.5818181818181818,826,1,52,_Guitar,-1,-1
52,100,0.1590909090909091,96,1,53,_Guitar,-1,-1
52,100,0.22272727272727272,166,0,53,_Guitar,-1,-1
60,100,0.4590909090909091,308,0,53,_Guitar,-1,-1
55,100,0.2772727272727273,493,0,53,_Guitar,-1,-1
57,100,0.18181818181818182,703,1,53,_Guitar,-1,-1
57,100,0.21818181818181817,770,0,53,_Guitar,-1,-1
50,100,0.4409090909090909,48,1,54,_Guitar,-1,-1
50,100,0.740909090909091,444,1,54,_Guitar,-1,-1
57,100,0.18181818181818182,616,0,54,_Guitar,-1,-1
50,100,0.17727272727272728,721,0,54,_Guitar,-1,-1
50,100,0.2590909090909091,788,0,54,_Guitar,-1,-1
50,100,0.6590909090909091,128,1,55,_Guitar,-1,-1
55,100,0.4590909090909091,383,1,55,_Guitar,-1,-1
50,100,0.2590909090909091,518,0,55,_Guitar,-1,-1
43,100,0.5409090909090909,673,0,55,_Guitar,-1,-1
50,100,1.2772727272727273,105,1,56,_Guitar,-1,-1
57,100,0.1409090909090909,541,1,56,_Guitar,-1,-1
57,100,1.0818181818181818,748,1,57,_Guitar,-1,-1
45,100,0.4590909090909091,286,1,58,_Guitar,-1,-1
55,100,0.18181818181818182,399,0,58,_Guitar,-1,-1
55,100,0.11818181818181818,506,0,58,_Guitar,-1,-1
55,100,1.9227272727272726,598,0,58,_Guitar,-1,-1
53,100,0.8181818181818182,193,1,59,_Guitar,-1,-1
60,100,0.2590909090909091,418,1,59,_Guitar,-1,-1
55,100,1.2181818181818183,506,0,59,_Guitar,-1,-1
52,100,0.18181818181818182,813,1,59,_Guitar,-1,-1
45,100,0.2409090909090909,431,1,60,_Guitar,-1,-1
50,100,0.6181818181818182,558,0,60,_Guitar,-1,-1
57,100,0.4,0,1,61,_Guitar,-1,-1
50,100,0.21818181818181817,131,0,61,_Guitar,-1,-1
45,100,0.9,660,1,61,_Guitar,-1,-1
50,100,0.11818181818181818,40,1,62,_Guitar,-1,-1
43,100,0.12272727272727273,694,1,62,_Guitar,-1,-1
55,100,0.12272727272727273,861,0,62,_Guitar,-1,-1
55,100,0.7181818181818181,370,1,63,_Guitar,-1,-1
55,100,0.13636363636363635,633,1,63,_Guitar,-1,-1
55,100,0.6772727272727272,668,0,63,_Guitar,-1,-1
55,100,0.6181818181818182,823,0,63,_Guitar,-1,-1
55,100,0.1,96,1,64,_Guitar,-1,-1
50,100,0.5,145,0,64,_Guitar,-1,-1
50,100,0.7227272727272728,443,1,64,_Guitar,-1,-1
52,100,0.11818181818181818,197,1,65,_Guitar,-1,-1
52,100,0.1,250,0,65,_Guitar,-1,-1
57,100,0.13636363636363635,282,0,65,_Guitar,-1,-1
55,100,0.1590909090909091,457,0,65,_Guitar,-1,-1
55,100,0.1409090909090909,496,0,65,_Guitar,-1,-1
55,100,0.18181818181818182,540,0,65,_Guitar,-1,-1
55,100,0.11818181818181818,590,0,65,_Guitar,-1,-1
55,100,0.5409090909090909,619,0,65,_Guitar,-1,-1
55,100,0.11818181818181818,756,0,65,_Guitar,-1,-1
52,100,0.5363636363636364,787,0,65,_Guitar,-1,-1
55,100,0.4818181818181818,35,1,66,_Guitar,-1,-1
53,100,0.2590909090909091,184,0,66,_Guitar,-1,-1
53,100,0.2772727272727273,470,1,66,_Guitar,-1,-1
53,100,0.2409090909090909,572,0,66,_Guitar,-1,-1
48,100,0.3181818181818182,646,0,66,_Guitar,-1,-1
55,100,0.41818181818181815,726,0,66,_Guitar,-1,-1
52,100,0.12272727272727273,13,1,67,_Guitar,-1,-1
55,100,0.1590909090909091,66,0,67,_Guitar,-1,-1
57,100,0.6818181818181818,540,1,67,_Guitar,-1,-1
62,100,0.1409090909090909,66,1,68,_Guitar,-1,-1
57,100,0.3,110,0,68,_Guitar,-1,-1
50,100,0.11818181818181818,260,0,68,_Guitar,-1,-1
50,100,0.18181818181818182,289,0,68,_Guitar,-1,-1
43,100,0.1590909090909091,519,1,68,_Guitar,-1,-1
50,100,0.5409090909090909,606,0,68,_Guitar,-1,-1
52,100,0.3,330,1,69,_Guitar,-1,-1
57,100,0.12272727272727273,475,0,69,_Guitar,-1,-1
55,100,0.1409090909090909,624,0,69,_Guitar,-1,-1
55,100,0.6772727272727272,756,0,69,_Guitar,-1,-1
52,100,0.759090909090909,35,1,70,_Guitar,-1,-1
55,100,0.37727272727272726,229,0,70,_Guitar,-1,-1
53,100,0.41818181818181815,347,0,70,_Guitar,-1,-1
60,100,0.1590909090909091,457,0,70,_Guitar,-1,-1
53,100,0.11818181818181818,590,0,70,_Guitar,-1,-1
50,100,0.5409090909090909,682,0,70,_Guitar,-1,-1
50,100,0.1,826,0,70,_Guitar,-1,-1
50,100,0.18181818181818182,22,1,71,_Guitar,-1,-1
52,100,0.6409090909090909,92,0,71,_Guitar,-1,-1
48,100,0.21818181818181817,260,0,71,_Guitar,-1,-1
55,100,0.3409090909090909,550,1,71,_Guitar,-1,-1
55,100,0.2409090909090909,629,0,71,_Guitar,-1,-1
57,100,0.5818181818181818,3,1,72,_Guitar,-1,-1
57,100,0.4,202,1,72,_Guitar,-1,-1
52,100,0.1,316,0,72,_Guitar,-1,-1
52,100,0.3409090909090909,426,0,72,_Guitar,-1,-1
55,100,0.2409090909090909,509,0,72,_Guitar,-1,-1
52,100,0.1409090909090909,585,0,72,_Guitar,-1,-1
52,100,0.4590909090909091,633,0,72,_Guitar,-1,-1
52,100,0.12272727272727273,817,0,72,_Guitar,-1,-1
52,100,0.12272727272727273,849,0,72,_Guitar,-1,-1
53,100,0.5409090909090909,166,1,73,_Guitar,-1,-1
48,100,0.4818181818181818,352,0,73,_Guitar,-1,-1
53,100,0.18181818181818182,487,0,73,_Guitar,-1,-1
48,100,0.1409090909090909,695,1,73,_Guitar,-1,-1
53,100,0.6,783,0,73,_Guitar,-1,-1
53,100,0.7181818181818181,43,1,74,_Guitar,-1,-1
53,100,0.5409090909090909,242,1,74,_Guitar,-1,-1
53,100,0.2,502,1,74,_Guitar,-1,-1
53,100,0.2818181818181818,593,0,74,_Guitar,-1,-1
57,100,0.5181818181818182,690,0,74,_Guitar,-1,-1
53,100,0.3,817,0,74,_Guitar,-1,-1
48,100,0.2409090909090909,30,1,75,_Guitar,-1,-1
53,100,0.2409090909090909,92,0,75,_Guitar,-1,-1
48,100,0.2590909090909091,153,0,75,_Guitar,-1,-1
53,100,0.2636363636363636,223,0,75,_Guitar,-1,-1
64,100,0.2772727272727273,326,0,75,_Guitar,-1,-1
53,100,0.4772727272727273,392,0,75,_Guitar,-1,-1
53,100,0.2,532,0,75,_Guitar,-1,-1
53,100,0.6818181818181818,686,0,75,_Guitar,-1,-1
55,100,0.2590909090909091,62,1,76,_Guitar,-1,-1
50,100,0.4590909090909091,163,0,76,_Guitar,-1,-1
50,100,0.2772727272727273,303,0,76,_Guitar,-1,-1
50,100,0.3181818181818182,370,0,76,_Guitar,-1,-1
50,100,0.1590909090909091,546,0,76,_Guitar,-1,-1
50,100,0.11818181818181818,747,1,76,_Guitar,-1,-1
50,100,0.12272727272727273,826,0,76,_Guitar,-1,-1
64,100,0.6772727272727272,119,1,77,_Guitar,-1,-1
55,100,0.2590909090909091,457,1,77,_Guitar,-1,-1
55,100,0.2409090909090909,642,0,77,_Guitar,-1,-1
60,100,0.1409090909090909,703,0,77,_Guitar,-1,-1
60,100,0.18181818181818182,739,0,77,_Guitar,-1,-1
55,100,0.4,805,0,77,_Guitar,-1,-1
43,100,0.2409090909090909,276,1,78,_Guitar,-1,-1
55,100,0.11818181818181818,373,0,78,_Guitar,-1,-1
43,100,0.38181818181818183,422,0,78,_Guitar,-1,-1
55,100,0.1,523,0,78,_Guitar,-1,-1
43,100,0.3181818181818182,546,0,78,_Guitar,-1,-1
53,100,0.4,677,0,78,_Guitar,-1,-1
53,100,0.1590909090909091,770,0,78,_Guitar,-1,-1
53,100,0.4409090909090909,100,1,79,_Guitar,-1,-1
53,100,0.2818181818181818,263,0,79,_Guitar,-1,-1
48,100,0.21818181818181817,360,0,79,_Guitar,-1,-1
52,100,0.3,417,0,79,_Guitar,-1,-1
55,100,0.11818181818181818,546,0,79,_Guitar,-1,-1
52,100,0.12272727272727273,629,0,79,_Guitar,-1,-1
55,100,0.2,703,0,79,_Guitar,-1,-1
47,100,0.1,826,0,79,_Guitar,-1,-1
55,100,0.22272727272727272,35,1,80,_Guitar,-1,-1
57,100,1.2181818181818183,140,0,80,_Guitar,-1,-1
57,100,1.0636363636363637,422,1,80,_Guitar,-1,-1
57,100,0.11818181818181818,677,1,80,_Guitar,-1,-1
52,100,0.5590909090909091,756,0,80,_Guitar,-1,-1
55,100,0.1,136,1,81,_Guitar,-1,-1
52,100,1.059090909090909,172,0,81,_Guitar,-1,-1
52,100,0.2,436,1,81,_Guitar,-1,-1
53,100,0.3,480,0,81,_Guitar,-1,-1
48,100,0.18181818181818182,805,1,81,_Guitar,-1,-1
48,100,0.4,866,0,81,_Guitar,-1,-1
48,100,0.4409090909090909,79,1,82,_Guitar,-1,-1
55,100,0.5409090909090909,220,0,82,_Guitar,-1,-1
43,100,0.3409090909090909,550,1,82,_Guitar,-1,-1
43,100,0.18181818181818182,629,0,82,_Guitar,-1,-1
62,100,0.1409090909090909,703,0,82,_Guitar,-1,-1
43,100,0.16363636363636364,773,0,82,_Guitar,-1,-1
55,100,0.5590909090909091,826,0,82,_Guitar,-1,-1
48,100,0.2772727272727273,184,1,83,_Guitar,-1,-1
48,100,0.1409090909090909,506,1,83,_Guitar,-1,-1
50,100,0.3,686,0,83,_Guitar,-1,-1
55,100,0.38181818181818183,289,1,84,_Guitar,-1,-1
52,100,0.13636363636363635,436,0,84,_Guitar,-1,-1
55,100,0.6818181818181818,606,0,84,_Guitar,-1,-1
52,100,0.6181818181818182,770,0,84,_Guitar,-1,-1
52,100,0.13636363636363635,106,1,85,_Guitar,-1,-1
41,100,1.2772727272727273,669,1,85,_Guitar,-1,-1
60,100,0.11818181818181818,96,1,86,_Guitar,-1,-1
41,100,0.2818181818181818,246,0,86,_Guitar,-1,-1
60,100,0.2818181818181818,307,0,86,_Guitar,-1,-1
55,100,0.6818181818181818,377,0,86,_Guitar,-1,-1
60,100,0.5,844,1,86,_Guitar,-1,-1
53,100,0.5,119,1,87,_Guitar,-1,-1
59,100,0.2636363636363636,443,1,87,_Guitar,-1,-1
59,100,0.8818181818181818,509,0,87,_Guitar,-1,-1
45,100,0.6590909090909091,739,1,87,_Guitar,-1,-1
45,100,0.7818181818181819,286,1,88,_Guitar,-1,-1
50,100,0.1,760,1,88,_Guitar,-1,-1
62,100,0.8818181818181818,0,1,89,_Guitar,-1,-1
53,100,0.6181818181818182,360,1,89,_Guitar,-1,-1
50,100,0.3409090909090909,100,1,90,_Guitar,-1,-1
48,100,0.16363636363636364,69,1,92,_Guitar,-1,-1
55,100,0.11818181818181818,339,1,92,_Guitar,-1,-1
55,100,0.37727272727272726,493,0,92,_Guitar,-1,-1
50,100,0.11818181818181818,603,0,92,_Guitar,-1,-1
55,100,0.4590909090909091,646,0,92,_Guitar,-1,-1
50,100,0.11818181818181818,172,1,93,_Guitar,-1,-1
52,100,0.2636363636363636,333,0,93,_Guitar,-1,-1
52,100,0.22272727272727272,553,1,93,_Guitar,-1,-1
57,100,0.2,677,0,93,_Guitar,-1,-1
52,100,0.18181818181818182,729,0,93,_Guitar,-1,-1
52,100,0.11818181818181818,66,1,94,_Guitar,-1,-1
52,100,0.5,276,1,94,_Guitar,-1,-1
52,100,1.0,417,0,94,_Guitar,-1,-1
48,100,0.2636363636363636,729,1,94,_Guitar,-1,-1
48,100,0.3,805,0,94,_Guitar,-1,-1
53,100,0.1409090909090909,100,1,95,_Guitar,-1,-1
53,100,0.2590909090909091,303,1,95,_Guitar,-1,-1
55,100,0.41818181818181815,449,0,95,_Guitar,-1,-1
60,100,0.5,624,0,95,_Guitar,-1,-1
50,100,0.11818181818181818,153,1,96,_Guitar,-1,-1
57,100,0.2,184,0,96,_Guitar,-1,-1
50,100,0.2590909090909091,365,0,96,_Guitar,-1,-1
50,100,0.5818181818181818,597,1,96,_Guitar,-1,-1
55,100,0.11818181818181818,770,0,96,_Guitar,-1,-1
55,100,0.11818181818181818,823,0,96,_Guitar,-1,-1
55,100,0.22272727272727272,862,0,96,_Guitar,-1,-1
50,100,2.022727272727273,35,1,97,_Guitar,-1,-1
52,100,0.12272727272727273,509,1,97,_Guitar,-1,-1
48,100,5.363636363636363,686,0,97,_Guitar,-1,-1
48,100,3.4,123,1,99,_Guitar,-1,-1
50,100,1.4,198,1,0,_DL_Japanese_Folk_Pop_Acoustic_Folk_Guitar,-1,-1
64,100,0.8409090909090909,505,1,0,_DL_Japanese_Folk_Pop_Acoustic_Folk_Guitar,-1,-1
40,100,0.41818181818181815,766,1,0,_DL_Japanese_Folk_Pop_Acoustic_Folk_Guitar,-1,-1
52,100,0.11818181818181818,858,0,0,_DL_Japanese_Folk_Pop_Acoustic_Folk_Guitar,-1,-1
64,100,0.13636363636363635,62,1,1,_DL_Japanese_Folk_Pop_Acoustic_Folk_Guitar,-1,-1
59,100,0.1,157,0,1,_DL_Japanese_Folk_Pop_Acoustic_Folk_Guitar,-1,-1
40,100,0.12272727272727273,246,0,1,_DL_Japanese_Folk_Pop_Acoustic_Folk_Guitar,-1,-1
45,100,0.21818181818181817,348,0,1,_DL_Japanese_Folk_Pop_Acoustic_Folk_Guitar,-1,-1
45,100,0.18181818181818182,409,0,1,_DL_Japanese_Folk_Pop_Acoustic_Folk_Guitar,-1,-1
59,100,0.8,510,0,1,_DL_Japanese_Folk_Pop_Acoustic_Folk_Guitar,-1,-1
40,100,0.22272727272727272,730,1,1,_DL_Japanese_Folk_Pop_Acoustic_Folk_Guitar,-1,-1
57,100,0.16363636363636364,796,0,1,_DL_Japanese_Folk_Pop_Acoustic_Folk_Guitar,-1,-1
61,100,0.2772727272727273,39,1,2,_DL_Japanese_Folk_Pop_Acoustic_Folk_Guitar,-1,-1
52,100,0.3,140,0,2,_DL_Japanese_Folk_Pop_Acoustic_Folk_Guitar,-1,-1
56,100,0.11818181818181818,220,0,2,_DL_Japanese_Folk_Pop_Acoustic_Folk_Guitar,-1,-1
57,100,0.6227272727272727,268,0,2,_DL_Japanese_Folk_Pop_Acoustic_Folk_Guitar,-1,-1
57,100,0.1,409,0,2,_DL_Japanese_Folk_Pop_Acoustic_Folk_Guitar,-1,-1
62,100,0.5772727272727273,479,0,2,_DL_Japanese_Folk_Pop_Acoustic_Folk_Guitar,-1,-1
62,100,0.13636363636363635,611,0,2,_DL_Japanese_Folk_Pop_Acoustic_Folk_Guitar,-1,-1
57,100,0.6,647,0,2,_DL_Japanese_Folk_Pop_Acoustic_Folk_Guitar,-1,-1
62,100,0.13636363636363635,39,1,3,_DL_Japanese_Folk_Pop_Acoustic_Folk_Guitar,-1,-1
64,100,0.5409090909090909,100,0,3,_DL_Japanese_Folk_Pop_Acoustic_Folk_Guitar,-1,-1
59,100,0.5409090909090909,299,1,3,_DL_Japanese_Folk_Pop_Acoustic_Folk_Guitar,-1,-1
50,100,2.018181818181818,633,1,3,_DL_Japanese_Folk_Pop_Acoustic_Folk_Guitar,-1,-1
50,100,2.1818181818181817,245,1,4,_DL_Japanese_Folk_Pop_Acoustic_Folk_Guitar,-1,-1
45,100,0.32272727272727275,805,1,4,_DL_Japanese_Folk_Pop_Acoustic_Folk_Guitar,-1,-1
45,100,0.12272727272727273,179,1,5,_DL_Japanese_Folk_Pop_Acoustic_Folk_Guitar,-1,-1
45,100,0.2,228,0,5,_DL_Japanese_Folk_Pop_Acoustic_Folk_Guitar,-1,-1
61,100,0.5,66,1,6,_DL_Japanese_Folk_Pop_Acoustic_Folk_Guitar,-1,-1
59,100,0.1590909090909091,176,0,6,_DL_Japanese_Folk_Pop_Acoustic_Folk_Guitar,-1,-1
60,100,0.18181818181818182,211,0,6,_DL_Japanese_Folk_Pop_Acoustic_Folk_Guitar,-1,-1
59,100,0.2409090909090909,250,0,6,_DL_Japanese_Folk_Pop_Acoustic_Folk_Guitar,-1,-1
57,100,0.2409090909090909,311,0,6,_DL_Japanese_Folk_Pop_Acoustic_Folk_Guitar,-1,-1
57,100,0.12272727272727273,409,0,6,_DL_Japanese_Folk_Pop_Acoustic_Folk_Guitar,-1,-1
56,100,0.3,506,0,6,_DL_Japanese_Folk_Pop_Acoustic_Folk_Guitar,-1,-1
52,100,0.3409090909090909,651,0,6,_DL_Japanese_Folk_Pop_Acoustic_Folk_Guitar,-1,-1
52,100,0.1,739,0,6,_DL_Japanese_Folk_Pop_Acoustic_Folk_Guitar,-1,-1
52,100,0.16363636363636364,774,0,6,_DL_Japanese_Folk_Pop_Acoustic_Folk_Guitar,-1,-1
40,100,0.4818181818181818,0,1,7,_DL_Japanese_Folk_Pop_Acoustic_Folk_Guitar,-1,-1
57,100,0.4590909090909091,118,0,7,_DL_Japanese_Folk_Pop_Acoustic_Folk_Guitar,-1,-1
57,100,0.5,317,1,7,_DL_Japanese_Folk_Pop_Acoustic_Folk_Guitar,-1,-1
57,100,0.2,452,0,7,_DL_Japanese_Folk_Pop_Acoustic_Folk_Guitar,-1,-1
47,100,0.18181818181818182,554,0,7,_DL_Japanese_Folk_Pop_Acoustic_Folk_Guitar,-1,-1
57,100,0.3409090909090909,642,0,7,_DL_Japanese_Folk_Pop_Acoustic_Folk_Guitar,-1,-1
57,100,0.3409090909090909,307,1,8,_DL_Japanese_Folk_Pop_Acoustic_Folk_Guitar,-1,-1
50,100,0.1,391,0,8,_DL_Japanese_Folk_Pop_Acoustic_Folk_Guitar,-1,-1
54,100,0.37727272727272726,493,0,8,_DL_Japanese_Folk_Pop_Acoustic_Folk_Guitar,-1,-1
50,100,0.22272727272727272,716,1,8,_DL_Japanese_Folk_Pop_Acoustic_Folk_Guitar,-1,-1
50,100,1.3,787,0,8,_DL_Japanese_Folk_Pop_Acoustic_Folk_Guitar,-1,-1
57,100,0.6,216,1,9,_DL_Japanese_Folk_Pop_Acoustic_Folk_Guitar,-1,-1
56,100,0.35909090909090907,405,0,9,_DL_Japanese_Folk_Pop_Acoustic_Folk_Guitar,-1,-1
56,100,0.1,488,0,9,_DL_Japanese_Folk_Pop_Acoustic_Folk_Guitar,-1,-1
59,100,0.23636363636363636,589,0,9,_DL_Japanese_Folk_Pop_Acoustic_Folk_Guitar,-1,-1
40,100,0.22272727272727272,663,0,9,_DL_Japanese_Folk_Pop_Acoustic_Folk_Guitar,-1,-1
40,100,0.3181818181818182,809,0,9,_DL_Japanese_Folk_Pop_Acoustic_Folk_Guitar,-1,-1
50,100,0.6818181818181818,56,1,10,_DL_Japanese_Folk_Pop_Acoustic_Folk_Guitar,-1,-1
59,100,0.11818181818181818,216,0,10,_DL_Japanese_Folk_Pop_Acoustic_Folk_Guitar,-1,-1
52,100,0.2636363636363636,422,1,10,_DL_Japanese_Folk_Pop_Acoustic_Folk_Guitar,-1,-1
52,100,0.1,496,0,10,_DL_Japanese_Folk_Pop_Acoustic_Folk_Guitar,-1,-1
57,100,0.5590909090909091,546,0,10,_DL_Japanese_Folk_Pop_Acoustic_Folk_Guitar,-1,-1
49,100,0.5590909090909091,716,0,10,_DL_Japanese_Folk_Pop_Acoustic_Folk_Guitar,-1,-1
52,100,0.21818181818181817,65,1,11,_DL_Japanese_Folk_Pop_Acoustic_Folk_Guitar,-1,-1
52,100,0.1409090909090909,118,0,11,_DL_Japanese_Folk_Pop_Acoustic_Folk_Guitar,-1,-1
47,100,0.4772727272727273,259,0,11,_DL_Japanese_Folk_Pop_Acoustic_Folk_Guitar,-1,-1
57,100,0.7227272727272728,673,1,11,_DL_Japanese_Folk_Pop_Acoustic_Folk_Guitar,-1,-1
57,100,0.1,30,1,12,_DL_Japanese_Folk_Pop_Acoustic_Folk_Guitar,-1,-1
64,100,0.740909090909091,96,0,12,_DL_Japanese_Folk_Pop_Acoustic_Folk_Guitar,-1,-1
47,100,0.3,347,1,12,_DL_Japanese_Folk_Pop_Acoustic_Folk_Guitar,-1,-1
47,100,0.35909090909090907,417,0,12,_DL_Japanese_Folk_Pop_Acoustic_Folk_Guitar,-1,-1
50,100,0.2409090909090909,510,0,12,_DL_Japanese_Folk_Pop_Acoustic_Folk_Guitar,-1,-1
59,100,0.6181818181818182,615,0,12,_DL_Japanese_Folk_Pop_Acoustic_Folk_Guitar,-1,-1
62,100,0.21818181818181817,39,1,13,_DL_Japanese_Folk_Pop_Acoustic_Folk_Guitar,-1,-1
62,100,0.6409090909090909,245,1,13,_DL_Japanese_Folk_Pop_Acoustic_Folk_Guitar,-1,-1
57,100,0.1590909090909091,386,0,13,_DL_Japanese_Folk_Pop_Acoustic_Folk_Guitar,-1,-1
57,100,0.2818181818181818,474,0,13,_DL_Japanese_Folk_Pop_Acoustic_Folk_Guitar,-1,-1
45,100,0.3181818181818182,536,0,13,_DL_Japanese_Folk_Pop_Acoustic_Folk_Guitar,-1,-1
57,100,0.1409090909090909,606,0,13,_DL_Japanese_Folk_Pop_Acoustic_Folk_Guitar,-1,-1
57,100,0.17727272727272728,646,0,13,_DL_Japanese_Folk_Pop_Acoustic_Folk_Guitar,-1,-1
49,100,0.4818181818181818,694,0,13,_DL_Japanese_Folk_Pop_Acoustic_Folk_Guitar,-1,-1
57,100,0.3409090909090909,202,1,14,_DL_Japanese_Folk_Pop_Acoustic_Folk_Guitar,-1,-1
57,100,0.1409090909090909,295,0,14,_DL_Japanese_Folk_Pop_Acoustic_Folk_Guitar,-1,-1
64,100,0.2590909090909091,637,1,14,_DL_Japanese_Folk_Pop_Acoustic_Folk_Guitar,-1,-1
59,100,0.16363636363636364,795,0,14,_DL_Japanese_Folk_Pop_Acoustic_Folk_Guitar,-1,-1
56,100,0.17727272727272728,831,0,14,_DL_Japanese_Folk_Pop_Acoustic_Folk_Guitar,-1,-1
59,100,0.18181818181818182,22,1,15,_DL_Japanese_Folk_Pop_Acoustic_Folk_Guitar,-1,-1
57,100,0.2,123,0,15,_DL_Japanese_Folk_Pop_Acoustic_Folk_Guitar,-1,-1
59,100,0.1,197,0,15,_DL_Japanese_Folk_Pop_Acoustic_Folk_Guitar,-1,-1
61,100,0.1,307,0,15,_DL_Japanese_Folk_Pop_Acoustic_Folk_Guitar,-1,-1
61,100,0.5,355,0,15,_DL_Japanese_Folk_Pop_Acoustic_Folk_Guitar,-1,-1
61,100,0.4590909090909091,470,0,15,_DL_Japanese_Folk_Pop_Acoustic_Folk_Guitar,-1,-1
57,100,0.2,646,0,15,_DL_Japanese_Folk_Pop_Acoustic_Folk_Guitar,-1,-1
61,100,0.8772727272727273,831,0,15,_DL_Japanese_Folk_Pop_Acoustic_Folk_Guitar,-1,-1
57,100,0.21818181818181817,150,1,16,_DL_Japanese_Folk_Pop_Acoustic_Folk_Guitar,-1,-1
61,100,0.3181818181818182,206,0,16,_DL_Japanese_Folk_Pop_Acoustic_Folk_Guitar,-1,-1
50,100,0.3,457,1,16,_DL_Japanese_Folk_Pop_Acoustic_Folk_Guitar,-1,-1
62,100,0.13636363636363635,567,0,16,_DL_Japanese_Folk_Pop_Acoustic_Folk_Guitar,-1,-1
62,100,0.1,681,0,16,_DL_Japanese_Folk_Pop_Acoustic_Folk_Guitar,-1,-1
57,100,0.2772727272727273,766,0,16,_DL_Japanese_Folk_Pop_Acoustic_Folk_Guitar,-1,-1
56,100,0.2409090909090909,862,0,16,_DL_Japanese_Folk_Pop_Acoustic_Folk_Guitar,-1,-1
59,100,0.21818181818181817,96,1,17,_DL_Japanese_Folk_Pop_Acoustic_Folk_Guitar,-1,-1
56,100,0.4,250,0,17,_DL_Japanese_Folk_Pop_Acoustic_Folk_Guitar,-1,-1
57,100,0.3409090909090909,339,0,17,_DL_Japanese_Folk_Pop_Acoustic_Folk_Guitar,-1,-1
57,100,0.2636363636363636,598,1,17,_DL_Japanese_Folk_Pop_Acoustic_Folk_Guitar,-1,-1
45,100,0.2409090909090909,870,1,17,_DL_Japanese_Folk_Pop_Acoustic_Folk_Guitar,-1,-1
64,100,0.12272727272727273,48,1,18,_DL_Japanese_Folk_Pop_Acoustic_Folk_Guitar,-1,-1
45,100,0.2590909090909091,167,0,18,_DL_Japanese_Folk_Pop_Acoustic_Folk_Guitar,-1,-1
57,100,0.8363636363636363,413,1,18,_DL_Japanese_Folk_Pop_Acoustic_Folk_Guitar,-1,-1
57,100,0.5,602,0,18,_DL_Japanese_Folk_Pop_Acoustic_Folk_Guitar,-1,-1
50,100,1.2772727272727273,712,0,18,_DL_Japanese_Folk_Pop_Acoustic_Folk_Guitar,-1,-1
57,100,0.5818181818181818,113,1,19,_DL_Japanese_Folk_Pop_Acoustic_Folk_Guitar,-1,-1
56,100,0.41818181818181815,241,0,19,_DL_Japanese_Folk_Pop_Acoustic_Folk_Guitar,-1,-1
59,100,0.3,567,1,19,_DL_Japanese_Folk_Pop_Acoustic_Folk_Guitar,-1,-1
59,100,0.1590909090909091,700,0,19,_DL_Japanese_Folk_Pop_Acoustic_Folk_Guitar,-1,-1
61,100,0.6590909090909091,44,1,20,_DL_Japanese_Folk_Pop_Acoustic_Folk_Guitar,-1,-1
59,100,0.2590909090909091,254,1,20,_DL_Japanese_Folk_Pop_Acoustic_Folk_Guitar,-1,-1
57,100,0.2409090909090909,316,0,20,_DL_Japanese_Folk_Pop_Acoustic_Folk_Guitar,-1,-1
64,100,0.2409090909090909,449,0,20,_DL_Japanese_Folk_Pop_Acoustic_Folk_Guitar,-1,-1
64,100,0.2,505,0,20,_DL_Japanese_Folk_Pop_Acoustic_Folk_Guitar,-1,-1
57,100,0.2772727272727273,691,0,20,_DL_Japanese_Folk_Pop_Acoustic_Folk_Guitar,-1,-1
57,100,0.1590909090909091,827,0,20,_DL_Japanese_Folk_Pop_Acoustic_Folk_Guitar,-1,-1
50,100,0.12272727272727273,34,1,21,_DL_Japanese_Folk_Pop_Acoustic_Folk_Guitar,-1,-1
50,100,0.2409090909090909,75,0,21,_DL_Japanese_Folk_Pop_Acoustic_Folk_Guitar,-1,-1
57,100,0.2590909090909091,316,1,21,_DL_Japanese_Folk_Pop_Acoustic_Folk_Guitar,-1,-1
57,100,0.32272727272727275,399,0,21,_DL_Japanese_Folk_Pop_Acoustic_Folk_Guitar,-1,-1
59,100,0.13636363636363635,677,1,21,_DL_Japanese_Folk_Pop_Acoustic_Folk_Guitar,-1,-1
40,100,0.16363636363636364,752,0,21,_DL_Japanese_Folk_Pop_Acoustic_Folk_Guitar,-1,-1
52,100,0.1,787,0,21,_DL_Japanese_Folk_Pop_Acoustic_Folk_Guitar,-1,-1
57,100,0.1409090909090909,57,1,22,_DL_Japanese_Folk_Pop_Acoustic_Folk_Guitar,-1,-1
57,100,0.16363636363636364,179,0,22,_DL_Japanese_Folk_Pop_Acoustic_Folk_Guitar,-1,-1
57,100,0.13636363636363635,260,0,22,_DL_Japanese_Folk_Pop_Acoustic_Folk_Guitar,-1,-1
57,100,0.2,295,0,22,_DL_Japanese_Folk_Pop_Acoustic_Folk_Guitar,-1,-1
57,100,0.41818181818181815,351,0,22,_DL_Japanese_Folk_Pop_Acoustic_Folk_Guitar,-1,-1
57,100,0.2818181818181818,453,0,22,_DL_Japanese_Folk_Pop_Acoustic_Folk_Guitar,-1,-1
57,100,0.17727272727272728,611,0,22,_DL_Japanese_Folk_Pop_Acoustic_Folk_Guitar,-1,-1
64,100,0.5363636363636364,721,0,22,_DL_Japanese_Folk_Pop_Acoustic_Folk_Guitar,-1,-1
52,100,0.2,79,1,23,_DL_Japanese_Folk_Pop_Acoustic_Folk_Guitar,-1,-1
52,100,0.11818181818181818,154,0,23,_DL_Japanese_Folk_Pop_Acoustic_Folk_Guitar,-1,-1
52,100,0.17727272727272728,206,0,23,_DL_Japanese_Folk_Pop_Acoustic_Folk_Guitar,-1,-1
62,100,0.5181818181818182,272,0,23,_DL_Japanese_Folk_Pop_Acoustic_Folk_Guitar,-1,-1
62,100,0.5818181818181818,453,0,23,_DL_Japanese_Folk_Pop_Acoustic_Folk_Guitar,-1,-1
64,100,0.2818181818181818,584,0,23,_DL_Japanese_Folk_Pop_Acoustic_Folk_Guitar,-1,-1
57,100,0.3,650,0,23,_DL_Japanese_Folk_Pop_Acoustic_Folk_Guitar,-1,-1
64,100,0.12272727272727273,739,0,23,_DL_Japanese_Folk_Pop_Acoustic_Folk_Guitar,-1,-1
40,100,0.2,110,1,24,_DL_Japanese_Folk_Pop_Acoustic_Folk_Guitar,-1,-1
52,100,0.1590909090909091,154,0,24,_DL_Japanese_Folk_Pop_Acoustic_Folk_Guitar,-1,-1
59,100,0.5409090909090909,268,0,24,_DL_Japanese_Folk_Pop_Acoustic_Folk_Guitar,-1,-1
56,100,0.17727272727272728,457,0,24,_DL_Japanese_Folk_Pop_Acoustic_Folk_Guitar,-1,-1
49,100,0.1,553,0,24,_DL_Japanese_Folk_Pop_Acoustic_Folk_Guitar,-1,-1
64,100,0.6,584,0,24,_DL_Japanese_Folk_Pop_Acoustic_Folk_Guitar,-1,-1
59,100,0.23636363636363636,787,1,24,_DL_Japanese_Folk_Pop_Acoustic_Folk_Guitar,-1,-1
61,100,0.2,88,1,25,_DL_Japanese_Folk_Pop_Acoustic_Folk_Guitar,-1,-1
61,100,0.5636363636363636,136,0,25,_DL_Japanese_Folk_Pop_Acoustic_Folk_Guitar,-1,-1
57,100,0.18181818181818182,268,0,25,_DL_Japanese_Folk_Pop_Acoustic_Folk_Guitar,-1,-1
54,100,0.18181818181818182,312,0,25,_DL_Japanese_Folk_Pop_Acoustic_Folk_Guitar,-1,-1
57,100,0.5590909090909091,409,0,25,_DL_Japanese_Folk_Pop_Acoustic_Folk_Guitar,-1,-1
50,100,0.6,553,0,25,_DL_Japanese_Folk_Pop_Acoustic_Folk_Guitar,-1,-1
57,100,0.2,773,1,25,_DL_Japanese_Folk_Pop_Acoustic_Folk_Guitar,-1,-1
57,100,0.1,839,0,25,_DL_Japanese_Folk_Pop_Acoustic_Folk_Guitar,-1,-1
64,100,0.2590909090909091,866,0,25,_DL_Japanese_Folk_Pop_Acoustic_Folk_Guitar,-1,-1
57,100,0.23636363636363636,106,1,26,_DL_Japanese_Folk_Pop_Acoustic_Folk_Guitar,-1,-1
40,100,0.1409090909090909,229,0,26,_DL_Japanese_Folk_Pop_Acoustic_Folk_Guitar,-1,-1
40,100,0.38181818181818183,264,0,26,_DL_Japanese_Folk_Pop_Acoustic_Folk_Guitar,-1,-1
64,100,0.1590909090909091,364,0,26,_DL_Japanese_Folk_Pop_Acoustic_Folk_Guitar,-1,-1
59,100,0.12272727272727273,607,1,26,_DL_Japanese_Folk_Pop_Acoustic_Folk_Guitar,-1,-1
45,100,0.2772727272727273,700,0,26,_DL_Japanese_Folk_Pop_Acoustic_Folk_Guitar,-1,-1
57,100,0.1,787,0,26,_DL_Japanese_Folk_Pop_Acoustic_Folk_Guitar,-1,-1
61,100,1.0772727272727274,866,0,26,_DL_Japanese_Folk_Pop_Acoustic_Folk_Guitar,-1,-1
45,100,0.2409090909090909,316,1,27,_DL_Japanese_Folk_Pop_Acoustic_Folk_Guitar,-1,-1
45,100,0.5,523,1,27,_DL_Japanese_Folk_Pop_Acoustic_Folk_Guitar,-1,-1
52,100,0.13636363636363635,656,0,27,_DL_Japanese_Folk_Pop_Acoustic_Folk_Guitar,-1,-1
50,100,0.5181818181818182,814,0,27,_DL_Japanese_Folk_Pop_Acoustic_Folk_Guitar,-1,-1
61,100,0.1590909090909091,83,1,28,_DL_Japanese_Folk_Pop_Acoustic_Folk_Guitar,-1,-1
61,100,0.17727272727272728,127,0,28,_DL_Japanese_Folk_Pop_Acoustic_Folk_Guitar,-1,-1
64,100,0.1590909090909091,264,0,28,_DL_Japanese_Folk_Pop_Acoustic_Folk_Guitar,-1,-1
56,100,0.12272727272727273,430,0,28,_DL_Japanese_Folk_Pop_Acoustic_Folk_Guitar,-1,-1
49,100,0.2409090909090909,563,0,28,_DL_Japanese_Folk_Pop_Acoustic_Folk_Guitar,-1,-1
59,100,0.5772727272727273,625,0,28,_DL_Japanese_Folk_Pop_Acoustic_Folk_Guitar,-1,-1
59,100,0.17727272727272728,801,0,28,_DL_Japanese_Folk_Pop_Acoustic_Folk_Guitar,-1,-1
54,100,0.5590909090909091,57,1,29,_DL_Japanese_Folk_Pop_Acoustic_Folk_Guitar,-1,-1
42,100,0.1409090909090909,210,0,29,_DL_Japanese_Folk_Pop_Acoustic_Folk_Guitar,-1,-1
61,100,0.2772727272727273,700,1,29,_DL_Japanese_Folk_Pop_Acoustic_Folk_Guitar,-1,-1
61,100,0.4,796,0,29,_DL_Japanese_Folk_Pop_Acoustic_Folk_Guitar,-1,-1
62,100,0.13636363636363635,281,1,30,_DL_Japanese_Folk_Pop_Acoustic_Folk_Guitar,-1,-1
62,100,0.3,316,0,30,_DL_Japanese_Folk_Pop_Acoustic_Folk_Guitar,-1,-1
47,100,0.4772727272727273,405,0,30,_DL_Japanese_Folk_Pop_Acoustic_Folk_Guitar,-1,-1
62,100,0.1590909090909091,638,1,30,_DL_Japanese_Folk_Pop_Acoustic_Folk_Guitar,-1,-1
62,100,0.9181818181818182,822,0,30,_DL_Japanese_Folk_Pop_Acoustic_Folk_Guitar,-1,-1
62,100,0.41818181818181815,206,1,31,_DL_Japanese_Folk_Pop_Acoustic_Folk_Guitar,-1,-1
40,100,0.5,351,0,31,_DL_Japanese_Folk_Pop_Acoustic_Folk_Guitar,-1,-1
40,100,0.21818181818181817,594,1,31,_DL_Japanese_Folk_Pop_Acoustic_Folk_Guitar,-1,-1
52,100,0.7,642,0,31,_DL_Japanese_Folk_Pop_Acoustic_Folk_Guitar,-1,-1
40,100,0.5818181818181818,839,0,31,_DL_Japanese_Folk_Pop_Acoustic_Folk_Guitar,-1,-1
40,100,0.2590909090909091,101,1,32,_DL_Japanese_Folk_Pop_Acoustic_Folk_Guitar,-1,-1
40,100,0.11818181818181818,171,0,32,_DL_Japanese_Folk_Pop_Acoustic_Folk_Guitar,-1,-1
40,100,0.35909090909090907,211,0,32,_DL_Japanese_Folk_Pop_Acoustic_Folk_Guitar,-1,-1
52,100,0.2818181818181818,373,0,32,_DL_Japanese_Folk_Pop_Acoustic_Folk_Guitar,-1,-1
50,100,0.6590909090909091,474,0,32,_DL_Japanese_Folk_Pop_Acoustic_Folk_Guitar,-1,-1
50,100,0.13636363636363635,633,0,32,_DL_Japanese_Folk_Pop_Acoustic_Folk_Guitar,-1,-1
50,100,0.21818181818181817,743,0,32,_DL_Japanese_Folk_Pop_Acoustic_Folk_Guitar,-1,-1
57,100,0.21818181818181817,791,0,32,_DL_Japanese_Folk_Pop_Acoustic_Folk_Guitar,-1,-1
50,100,0.35909090909090907,866,0,32,_DL_Japanese_Folk_Pop_Acoustic_Folk_Guitar,-1,-1
57,100,0.11818181818181818,66,1,33,_DL_Japanese_Folk_Pop_Acoustic_Folk_Guitar,-1,-1
52,100,0.4818181818181818,136,0,33,_DL_Japanese_Folk_Pop_Acoustic_Folk_Guitar,-1,-1
52,100,0.2,364,1,33,_DL_Japanese_Folk_Pop_Acoustic_Folk_Guitar,-1,-1
59,100,0.17727272727272728,558,0,33,_DL_Japanese_Folk_Pop_Acoustic_Folk_Guitar,-1,-1
57,100,0.2,603,0,33,_DL_Japanese_Folk_Pop_Acoustic_Folk_Guitar,-1,-1
45,100,0.17727272727272728,668,0,33,_DL_Japanese_Folk_Pop_Acoustic_Folk_Guitar,-1,-1
57,100,0.17727272727272728,721,0,33,_DL_Japanese_Folk_Pop_Acoustic_Folk_Guitar,-1,-1
64,100,0.35909090909090907,791,0,33,_DL_Japanese_Folk_Pop_Acoustic_Folk_Guitar,-1,-1
57,100,0.9,40,1,34,_DL_Japanese_Folk_Pop_Acoustic_Folk_Guitar,-1,-1
57,100,0.2818181818181818,351,1,34,_DL_Japanese_Folk_Pop_Acoustic_Folk_Guitar,-1,-1
64,100,0.4590909090909091,431,0,34,_DL_Japanese_Folk_Pop_Acoustic_Folk_Guitar,-1,-1
57,100,0.3181818181818182,545,0,34,_DL_Japanese_Folk_Pop_Acoustic_Folk_Guitar,-1,-1
57,100,0.16363636363636364,708,0,34,_DL_Japanese_Folk_Pop_Acoustic_Folk_Guitar,-1,-1
50,100,0.3,813,0,34,_DL_Japanese_Folk_Pop_Acoustic_Folk_Guitar,-1,-1
50,100,0.1409090909090909,158,1,35,_DL_Japanese_Folk_Pop_Acoustic_Folk_Guitar,-1,-1
57,100,0.2636363636363636,246,0,35,_DL_Japanese_Folk_Pop_Acoustic_Folk_Guitar,-1,-1
57,100,0.1590909090909091,321,0,35,_DL_Japanese_Folk_Pop_Acoustic_Folk_Guitar,-1,-1
40,100,0.6409090909090909,405,0,35,_DL_Japanese_Folk_Pop_Acoustic_Folk_Guitar,-1,-1
40,100,0.12272727272727273,576,0,35,_DL_Japanese_Folk_Pop_Acoustic_Folk_Guitar,-1,-1
40,100,0.22272727272727272,628,0,35,_DL_Japanese_Folk_Pop_Acoustic_Folk_Guitar,-1,-1
59,100,0.1409090909090909,713,0,35,_DL_Japanese_Folk_Pop_Acoustic_Folk_Guitar,-1,-1
40,100,0.2590909090909091,783,0,35,_DL_Japanese_Folk_Pop_Acoustic_Folk_Guitar,-1,-1
57,100,1.040909090909091,871,0,35,_DL_Japanese_Folk_Pop_Acoustic_Folk_Guitar,-1,-1
57,100,0.3409090909090909,224,1,36,_DL_Japanese_Folk_Pop_Acoustic_Folk_Guitar,-1,-1
57,100,0.33636363636363636,435,1,36,_DL_Japanese_Folk_Pop_Acoustic_Folk_Guitar,-1,-1
57,100,0.22272727272727272,518,0,36,_DL_Japanese_Folk_Pop_Acoustic_Folk_Guitar,-1,-1
57,100,0.18181818181818182,593,0,36,_DL_Japanese_Folk_Pop_Acoustic_Folk_Guitar,-1,-1
52,100,0.2772727272727273,633,0,36,_DL_Japanese_Folk_Pop_Acoustic_Folk_Guitar,-1,-1
57,100,0.12272727272727273,694,0,36,_DL_Japanese_Folk_Pop_Acoustic_Folk_Guitar,-1,-1
64,100,0.21818181818181817,765,0,36,_DL_Japanese_Folk_Pop_Acoustic_Folk_Guitar,-1,-1
57,100,0.3409090909090909,813,0,36,_DL_Japanese_Folk_Pop_Acoustic_Folk_Guitar,-1,-1
64,100,0.11818181818181818,75,1,37,_DL_Japanese_Folk_Pop_Acoustic_Folk_Guitar,-1,-1
57,100,0.12272727272727273,114,0,37,_DL_Japanese_Folk_Pop_Acoustic_Folk_Guitar,-1,-1
50,100,0.22272727272727272,144,0,37,_DL_Japanese_Folk_Pop_Acoustic_Folk_Guitar,-1,-1
57,100,0.2,254,0,37,_DL_Japanese_Folk_Pop_Acoustic_Folk_Guitar,-1,-1
50,100,0.1590909090909091,308,0,37,_DL_Japanese_Folk_Pop_Acoustic_Folk_Guitar,-1,-1
50,100,0.4,418,0,37,_DL_Japanese_Folk_Pop_Acoustic_Folk_Guitar,-1,-1
57,100,0.3181818181818182,506,0,37,_DL_Japanese_Folk_Pop_Acoustic_Folk_Guitar,-1,-1
57,100,0.1409090909090909,598,0,37,_DL_Japanese_Folk_Pop_Acoustic_Folk_Guitar,-1,-1
40,100,0.6181818181818182,681,0,37,_DL_Japanese_Folk_Pop_Acoustic_Folk_Guitar,-1,-1
40,100,0.18181818181818182,34,1,38,_DL_Japanese_Folk_Pop_Acoustic_Folk_Guitar,-1,-1
59,100,0.37727272727272726,75,0,38,_DL_Japanese_Folk_Pop_Acoustic_Folk_Guitar,-1,-1
59,100,0.2590909090909091,206,0,38,_DL_Japanese_Folk_Pop_Acoustic_Folk_Guitar,-1,-1
61,100,0.2409090909090909,581,1,38,_DL_Japanese_Folk_Pop_Acoustic_Folk_Guitar,-1,-1
59,100,0.5,646,0,38,_DL_Japanese_Folk_Pop_Acoustic_Folk_Guitar,-1,-1
64,100,0.18181818181818182,110,1,39,_DL_Japanese_Folk_Pop_Acoustic_Folk_Guitar,-1,-1
57,100,0.2818181818181818,211,0,39,_DL_Japanese_Folk_Pop_Acoustic_Folk_Guitar,-1,-1
61,100,0.1409090909090909,316,0,39,_DL_Japanese_Folk_Pop_Acoustic_Folk_Guitar,-1,-1
57,100,0.2409090909090909,351,0,39,_DL_Japanese_Folk_Pop_Acoustic_Folk_Guitar,-1,-1
57,100,0.35909090909090907,726,1,39,_DL_Japanese_Folk_Pop_Acoustic_Folk_Guitar,-1,-1
57,100,0.17727272727272728,831,0,39,_DL_Japanese_Folk_Pop_Acoustic_Folk_Guitar,-1,-1
40,100,0.1590909090909091,56,1,40,_DL_Japanese_Folk_Pop_Acoustic_Folk_Guitar,-1,-1
57,100,0.4409090909090909,774,1,40,_DL_Japanese_Folk_Pop_Acoustic_Folk_Guitar,-1,-1
57,100,0.1409090909090909,26,1,41,_DL_Japanese_Folk_Pop_Acoustic_Folk_Guitar,-1,-1
57,100,0.22272727272727272,686,1,41,_DL_Japanese_Folk_Pop_Acoustic_Folk_Guitar,-1,-1
61,100,0.6409090909090909,858,0,41,_DL_Japanese_Folk_Pop_Acoustic_Folk_Guitar,-1,-1
50,100,1.6181818181818182,325,1,42,_DL_Japanese_Folk_Pop_Acoustic_Folk_Guitar,-1,-1
50,100,0.4409090909090909,686,1,42,_DL_Japanese_Folk_Pop_Acoustic_Folk_Guitar,-1,-1
61,100,1.459090909090909,804,0,42,_DL_Japanese_Folk_Pop_Acoustic_Folk_Guitar,-1,-1
57,100,0.3,303,1,43,_DL_Japanese_Folk_Pop_Acoustic_Folk_Guitar,-1,-1
45,100,0.23636363636363636,370,0,43,_DL_Japanese_Folk_Pop_Acoustic_Folk_Guitar,-1,-1
59,100,0.1409090909090909,584,1,43,_DL_Japanese_Folk_Pop_Acoustic_Folk_Guitar,-1,-1
64,100,0.17727272727272728,756,0,43,_DL_Japanese_Folk_Pop_Acoustic_Folk_Guitar,-1,-1
52,100,0.16363636363636364,796,0,43,_DL_Japanese_Folk_Pop_Acoustic_Folk_Guitar,-1,-1
40,100,0.21818181818181817,831,0,43,_DL_Japanese_Folk_Pop_Acoustic_Folk_Guitar,-1,-1
64,100,0.1,43,1,44,_DL_Japanese_Folk_Pop_Acoustic_Folk_Guitar,-1,-1
64,100,0.1,105,0,44,_DL_Japanese_Folk_Pop_Acoustic_Folk_Guitar,-1,-1
64,100,0.1409090909090909,131,0,44,_DL_Japanese_Folk_Pop_Acoustic_Folk_Guitar,-1,-1
64,100,0.38181818181818183,166,0,44,_DL_Japanese_Folk_Pop_Acoustic_Folk_Guitar,-1,-1
57,100,0.17727272727272728,435,1,44,_DL_Japanese_Folk_Pop_Acoustic_Folk_Guitar,-1,-1
50,100,0.8409090909090909,571,0,44,_DL_Japanese_Folk_Pop_Acoustic_Folk_Guitar,-1,-1
50,100,0.33636363636363636,765,0,44,_DL_Japanese_Folk_Pop_Acoustic_Folk_Guitar,-1,-1
64,100,0.2,136,1,45,_DL_Japanese_Folk_Pop_Acoustic_Folk_Guitar,-1,-1
61,100,1.440909090909091,188,0,45,_DL_Japanese_Folk_Pop_Acoustic_Folk_Guitar,-1,-1
59,100,0.21818181818181817,523,1,45,_DL_Japanese_Folk_Pop_Acoustic_Folk_Guitar,-1,-1
61,100,1.4181818181818182,18,1,46,_DL_Japanese_Folk_Pop_Acoustic_Folk_Guitar,-1,-1
62,100,0.8409090909090909,334,1,46,_DL_Japanese_Folk_Pop_Acoustic_Folk_Guitar,-1,-1
62,100,0.37727272727272726,646,1,46,_DL_Japanese_Folk_Pop_Acoustic_Folk_Guitar,-1,-1
62,100,0.41818181818181815,748,0,46,_DL_Japanese_Folk_Pop_Acoustic_Folk_Guitar,-1,-1
40,100,0.4590909090909091,858,0,46,_DL_Japanese_Folk_Pop_Acoustic_Folk_Guitar,-1,-1
59,100,0.3,373,1,47,_DL_Japanese_Folk_Pop_Acoustic_Folk_Guitar,-1,-1
57,100,0.1409090909090909,466,0,47,_DL_Japanese_Folk_Pop_Acoustic_Folk_Guitar,-1,-1
45,100,0.6227272727272727,518,0,47,_DL_Japanese_Folk_Pop_Acoustic_Folk_Guitar,-1,-1
45,100,0.17727272727272728,668,0,47,_DL_Japanese_Folk_Pop_Acoustic_Folk_Guitar,-1,-1
45,100,0.1,716,0,47,_DL_Japanese_Folk_Pop_Acoustic_Folk_Guitar,-1,-1
61,100,0.42272727272727273,818,0,47,_DL_Japanese_Folk_Pop_Acoustic_Folk_Guitar,-1,-1
54,100,0.4772727272727273,105,1,48,_DL_Japanese_Folk_Pop_Acoustic_Folk_Guitar,-1,-1
57,100,0.2818181818181818,224,0,48,_DL_Japanese_Folk_Pop_Acoustic_Folk_Guitar,-1,-1
54,100,0.38181818181818183,311,0,48,_DL_Japanese_Folk_Pop_Acoustic_Folk_Guitar,-1,-1
57,100,0.2818181818181818,421,0,48,_DL_Japanese_Folk_Pop_Acoustic_Folk_Guitar,-1,-1
57,100,0.4,488,0,48,_DL_Japanese_Folk_Pop_Acoustic_Folk_Guitar,-1,-1
62,100,0.8227272727272728,606,0,48,_DL_Japanese_Folk_Pop_Acoustic_Folk_Guitar,-1,-1
62,100,0.6,88,1,49,_DL_Japanese_Folk_Pop_Acoustic_Folk_Guitar,-1,-1
40,100,0.740909090909091,241,0,49,_DL_Japanese_Folk_Pop_Acoustic_Folk_Guitar,-1,-1
40,100,0.4409090909090909,440,1,49,_DL_Japanese_Folk_Pop_Acoustic_Folk_Guitar,-1,-1
40,100,0.2,558,0,49,_DL_Japanese_Folk_Pop_Acoustic_Folk_Guitar,-1,-1
40,100,0.3409090909090909,606,0,49,_DL_Japanese_Folk_Pop_Acoustic_Folk_Guitar,-1,-1
59,100,0.1,703,0,49,_DL_Japanese_Folk_Pop_Acoustic_Folk_Guitar,-1,-1
52,100,0.23636363636363636,810,0,49,_DL_Japanese_Folk_Pop_Acoustic_Folk_Guitar,-1,-1
52,100,0.4818181818181818,66,1,50,_DL_Japanese_Folk_Pop_Acoustic_Folk_Guitar,-1,-1
52,100,0.2,260,0,50,_DL_Japanese_Folk_Pop_Acoustic_Folk_Guitar,-1,-1
52,100,0.21818181818181817,308,0,50,_DL_Japanese_Folk_Pop_Acoustic_Folk_Guitar,-1,-1
57,100,0.38181818181818183,364,0,50,_DL_Japanese_Folk_Pop_Acoustic_Folk_Guitar,-1,-1
57,100,0.2,550,0,50,_DL_Japanese_Folk_Pop_Acoustic_Folk_Guitar,-1,-1
56,100,0.4,593,0,50,_DL_Japanese_Folk_Pop_Acoustic_Folk_Guitar,-1,-1
56,100,0.22272727272727272,738,0,50,_DL_Japanese_Folk_Pop_Acoustic_Folk_Guitar,-1,-1
57,100,0.41818181818181815,810,0,50,_DL_Japanese_Folk_Pop_Acoustic_Folk_Guitar,-1,-1
57,100,0.5772727272727273,61,1,51,_DL_Japanese_Folk_Pop_Acoustic_Folk_Guitar,-1,-1
57,100,0.11818181818181818,273,1,51,_DL_Japanese_Folk_Pop_Acoustic_Folk_Guitar,-1,-1
61,100,0.13636363636363635,413,0,51,_DL_Japanese_Folk_Pop_Acoustic_Folk_Guitar,-1,-1
50,100,0.1409090909090909,845,1,51,_DL_Japanese_Folk_Pop_Acoustic_Folk_Guitar,-1,-1
49,100,0.8,153,1,52,_DL_Japanese_Folk_Pop_Acoustic_Folk_Guitar,-1,-1
61,100,0.18181818181818182,373,1,52,_DL_Japanese_Folk_Pop_Acoustic_Folk_Guitar,-1,-1
61,100,0.2590909090909091,518,0,52,_DL_Japanese_Folk_Pop_Acoustic_Folk_Guitar,-1,-1
64,100,0.6227272727272727,628,0,52,_DL_Japanese_Folk_Pop_Acoustic_Folk_Guitar,-1,-1
61,100,0.5363636363636364,831,1,52,_DL_Japanese_Folk_Pop_Acoustic_Folk_Guitar,-1,-1
61,100,0.3,141,1,53,_DL_Japanese_Folk_Pop_Acoustic_Folk_Guitar,-1,-1
61,100,0.11818181818181818,220,0,53,_DL_Japanese_Folk_Pop_Acoustic_Folk_Guitar,-1,-1
62,100,0.5,268,0,53,_DL_Japanese_Folk_Pop_Acoustic_Folk_Guitar,-1,-1
62,100,0.8,584,1,53,_DL_Japanese_Folk_Pop_Acoustic_Folk_Guitar,-1,-1
40,100,0.1409090909090909,826,1,53,_DL_Japanese_Folk_Pop_Acoustic_Folk_Guitar,-1,-1
52,100,0.38181818181818183,4,1,54,_DL_Japanese_Folk_Pop_Acoustic_Folk_Guitar,-1,-1
40,100,0.6,88,0,54,_DL_Japanese_Folk_Pop_Acoustic_Folk_Guitar,-1,-1
40,100,0.18181818181818182,224,0,54,_DL_Japanese_Folk_Pop_Acoustic_Folk_Guitar,-1,-1
52,100,0.22272727272727272,343,0,54,_DL_Japanese_Folk_Pop_Acoustic_Folk_Guitar,-1,-1
45,100,0.43636363636363634,501,0,54,_DL_Japanese_Folk_Pop_Acoustic_Folk_Guitar,-1,-1
59,100,0.21818181818181817,713,1,54,_DL_Japanese_Folk_Pop_Acoustic_Folk_Guitar,-1,-1
61,100,0.18181818181818182,839,0,54,_DL_Japanese_Folk_Pop_Acoustic_Folk_Guitar,-1,-1
61,100,0.35909090909090907,18,1,55,_DL_Japanese_Folk_Pop_Acoustic_Folk_Guitar,-1,-1
54,100,0.12272727272727273,563,1,55,_DL_Japanese_Folk_Pop_Acoustic_Folk_Guitar,-1,-1
62,100,0.16363636363636364,796,1,55,_DL_Japanese_Folk_Pop_Acoustic_Folk_Guitar,-1,-1
59,100,0.5,853,0,55,_DL_Japanese_Folk_Pop_Acoustic_Folk_Guitar,-1,-1
54,100,0.1590909090909091,123,1,56,_DL_Japanese_Folk_Pop_Acoustic_Folk_Guitar,-1,-1
62,100,0.2409090909090909,509,1,56,_DL_Japanese_Folk_Pop_Acoustic_Folk_Guitar,-1,-1
61,100,0.8363636363636363,678,0,56,_DL_Japanese_Folk_Pop_Acoustic_Folk_Guitar,-1,-1
61,100,0.21818181818181817,866,0,56,_DL_Japanese_Folk_Pop_Acoustic_Folk_Guitar,-1,-1
61,100,0.2409090909090909,110,1,57,_DL_Japanese_Folk_Pop_Acoustic_Folk_Guitar,-1,-1
61,100,0.1590909090909091,254,0,57,_DL_Japanese_Folk_Pop_Acoustic_Folk_Guitar,-1,-1
57,100,0.11818181818181818,616,1,57,_DL_Japanese_Folk_Pop_Acoustic_Folk_Guitar,-1,-1
62,100,0.6181818181818182,810,0,57,_DL_Japanese_Folk_Pop_Acoustic_Folk_Guitar,-1,-1
62,100,0.4409090909090909,251,1,58,_DL_Japanese_Folk_Pop_Acoustic_Folk_Guitar,-1,-1
47,100,0.13636363636363635,590,1,58,_DL_Japanese_Folk_Pop_Acoustic_Folk_Guitar,-1,-1
59,100,0.2590909090909091,628,0,58,_DL_Japanese_Folk_Pop_Acoustic_Folk_Guitar,-1,-1
62,100,0.41818181818181815,703,0,58,_DL_Japanese_Folk_Pop_Acoustic_Folk_Guitar,-1,-1
59,100,0.1409090909090909,801,0,58,_DL_Japanese_Folk_Pop_Acoustic_Folk_Guitar,-1,-1
40,100,0.6,118,1,59,_DL_Japanese_Folk_Pop_Acoustic_Folk_Guitar,-1,-1
40,100,0.4818181818181818,268,0,59,_DL_Japanese_Folk_Pop_Acoustic_Folk_Guitar,-1,-1
40,100,0.2409090909090909,386,0,59,_DL_Japanese_Folk_Pop_Acoustic_Folk_Guitar,-1,-1
40,100,0.3,448,0,59,_DL_Japanese_Folk_Pop_Acoustic_Folk_Guitar,-1,-1
59,100,0.11818181818181818,536,0,59,_DL_Japanese_Folk_Pop_Acoustic_Folk_Guitar,-1,-1
59,100,0.18181818181818182,571,0,59,_DL_Japanese_Folk_Pop_Acoustic_Folk_Guitar,-1,-1
40,100,0.3,611,0,59,_DL_Japanese_Folk_Pop_Acoustic_Folk_Guitar,-1,-1
62,100,0.1,201,1,60,_DL_Japanese_Folk_Pop_Acoustic_Folk_Guitar,-1,-1
50,100,1.0636363636363637,224,0,60,_DL_Japanese_Folk_Pop_Acoustic_Folk_Guitar,-1,-1
57,100,0.1,581,1,60,_DL_Japanese_Folk_Pop_Acoustic_Folk_Guitar,-1,-1
57,100,0.3,606,0,60,_DL_Japanese_Folk_Pop_Acoustic_Folk_Guitar,-1,-1
59,100,0.2590909090909091,700,0,60,_DL_Japanese_Folk_Pop_Acoustic_Folk_Guitar,-1,-1
40,100,0.2818181818181818,761,0,60,_DL_Japanese_Folk_Pop_Acoustic_Folk_Guitar,-1,-1
40,100,0.11818181818181818,836,0,60,_DL_Japanese_Folk_Pop_Acoustic_Folk_Guitar,-1,-1
64,100,0.16363636363636364,861,0,60,_DL_Japanese_Folk_Pop_Acoustic_Folk_Guitar,-1,-1
61,100,0.5818181818181818,21,1,61,_DL_Japanese_Folk_Pop_Acoustic_Folk_Guitar,-1,-1
59,100,0.11818181818181818,153,0,61,_DL_Japanese_Folk_Pop_Acoustic_Folk_Guitar,-1,-1
57,100,0.2590909090909091,330,0,61,_DL_Japanese_Folk_Pop_Acoustic_Folk_Guitar,-1,-1
59,100,0.5181818181818182,655,1,61,_DL_Japanese_Folk_Pop_Acoustic_Folk_Guitar,-1,-1
61,100,0.12272727272727273,34,1,62,_DL_Japanese_Folk_Pop_Acoustic_Folk_Guitar,-1,-1
57,100,0.8590909090909091,75,0,62,_DL_Japanese_Folk_Pop_Acoustic_Folk_Guitar,-1,-1
61,100,0.8,268,0,62,_DL_Japanese_Folk_Pop_Acoustic_Folk_Guitar,-1,-1
57,100,0.17727272727272728,691,1,62,_DL_Japanese_Folk_Pop_Acoustic_Folk_Guitar,-1,-1
59,100,0.11818181818181818,791,0,62,_DL_Japanese_Folk_Pop_Acoustic_Folk_Guitar,-1,-1
40,100,0.18181818181818182,136,1,63,_DL_Japanese_Folk_Pop_Acoustic_Folk_Guitar,-1,-1
52,100,0.2409090909090909,176,0,63,_DL_Japanese_Folk_Pop_Acoustic_Folk_Guitar,-1,-1
56,100,0.2,246,0,63,_DL_Japanese_Folk_Pop_Acoustic_Folk_Guitar,-1,-1
56,100,0.1590909090909091,370,0,63,_DL_Japanese_Folk_Pop_Acoustic_Folk_Guitar,-1,-1
40,100,0.2409090909090909,418,0,63,_DL_Japanese_Folk_Pop_Acoustic_Folk_Guitar,-1,-1
57,100,0.18181818181818182,598,0,63,_DL_Japanese_Folk_Pop_Acoustic_Folk_Guitar,-1,-1
61,100,0.11818181818181818,681,0,63,_DL_Japanese_Folk_Pop_Acoustic_Folk_Guitar,-1,-1
57,100,0.3,716,0,63,_DL_Japanese_Folk_Pop_Acoustic_Folk_Guitar,-1,-1
61,100,0.3,796,0,63,_DL_Japanese_Folk_Pop_Acoustic_Folk_Guitar,-1,-1
57,100,0.3181818181818182,866,0,63,_DL_Japanese_Folk_Pop_Acoustic_Folk_Guitar,-1,-1
61,100,0.23636363636363636,83,1,64,_DL_Japanese_Folk_Pop_Acoustic_Folk_Guitar,-1,-1
59,100,0.1,179,0,64,_DL_Japanese_Folk_Pop_Acoustic_Folk_Guitar,-1,-1
61,100,0.16363636363636364,422,1,64,_DL_Japanese_Folk_Pop_Acoustic_Folk_Guitar,-1,-1
61,100,0.7,580,0,64,_DL_Japanese_Folk_Pop_Acoustic_Folk_Guitar,-1,-1
50,100,0.38181818181818183,739,0,64,_DL_Japanese_Folk_Pop_Acoustic_Folk_Guitar,-1,-1
50,100,0.5,849,0,64,_DL_Japanese_Folk_Pop_Acoustic_Folk_Guitar,-1,-1
59,100,0.12272727272727273,123,1,65,_DL_Japanese_Folk_Pop_Acoustic_Folk_Guitar,-1,-1
50,100,0.1590909090909091,263,0,65,_DL_Japanese_Folk_Pop_Acoustic_Folk_Guitar,-1,-1
40,100,0.2,386,0,65,_DL_Japanese_Folk_Pop_Acoustic_Folk_Guitar,-1,-1
40,100,0.12272727272727273,453,0,65,_DL_Japanese_Folk_Pop_Acoustic_Folk_Guitar,-1,-1
56,100,0.2,509,0,65,_DL_Japanese_Folk_Pop_Acoustic_Folk_Guitar,-1,-1
64,100,0.13636363636363635,633,0,65,_DL_Japanese_Folk_Pop_Acoustic_Folk_Guitar,-1,-1
59,100,0.36363636363636365,686,0,65,_DL_Japanese_Folk_Pop_Acoustic_Folk_Guitar,-1,-1
52,100,0.18181818181818182,792,0,65,_DL_Japanese_Folk_Pop_Acoustic_Folk_Guitar,-1,-1
40,100,0.1,832,0,65,_DL_Japanese_Folk_Pop_Acoustic_Folk_Guitar,-1,-1
57,100,0.37727272727272726,876,0,65,_DL_Japanese_Folk_Pop_Acoustic_Folk_Guitar,-1,-1
61,100,0.740909090909091,96,1,66,_DL_Japanese_Folk_Pop_Acoustic_Folk_Guitar,-1,-1
57,100,0.21818181818181817,260,0,66,_DL_Japanese_Folk_Pop_Acoustic_Folk_Guitar,-1,-1
61,100,0.2409090909090909,320,0,66,_DL_Japanese_Folk_Pop_Acoustic_Folk_Guitar,-1,-1
57,100,0.12272727272727273,409,0,66,_DL_Japanese_Folk_Pop_Acoustic_Folk_Guitar,-1,-1
57,100,0.12272727272727273,629,1,66,_DL_Japanese_Folk_Pop_Acoustic_Folk_Guitar,-1,-1
61,100,0.5590909090909091,690,0,66,_DL_Japanese_Folk_Pop_Acoustic_Folk_Guitar,-1,-1
61,100,0.11818181818181818,857,0,66,_DL_Japanese_Folk_Pop_Acoustic_Folk_Guitar,-1,-1
61,100,0.1,17,1,67,_DL_Japanese_Folk_Pop_Acoustic_Folk_Guitar,-1,-1
61,100,0.2772727272727273,53,0,67,_DL_Japanese_Folk_Pop_Acoustic_Folk_Guitar,-1,-1
62,100,0.12272727272727273,475,1,67,_DL_Japanese_Folk_Pop_Acoustic_Folk_Guitar,-1,-1
40,100,0.41818181818181815,656,0,67,_DL_Japanese_Folk_Pop_Acoustic_Folk_Guitar,-1,-1
59,100,0.5818181818181818,760,0,67,_DL_Japanese_Folk_Pop_Acoustic_Folk_Guitar,-1,-1
59,100,0.2590909090909091,13,1,68,_DL_Japanese_Folk_Pop_Acoustic_Folk_Guitar,-1,-1
40,100,0.3,110,0,68,_DL_Japanese_Folk_Pop_Acoustic_Folk_Guitar,-1,-1
59,100,0.2409090909090909,519,1,68,_DL_Japanese_Folk_Pop_Acoustic_Folk_Guitar,-1,-1
61,100,0.2409090909090909,585,0,68,_DL_Japanese_Folk_Pop_Acoustic_Folk_Guitar,-1,-1
61,100,0.13636363636363635,677,0,68,_DL_Japanese_Folk_Pop_Acoustic_Folk_Guitar,-1,-1
57,100,0.4409090909090909,747,0,68,_DL_Japanese_Folk_Pop_Acoustic_Folk_Guitar,-1,-1
45,100,0.2636363636363636,862,0,68,_DL_Japanese_Folk_Pop_Acoustic_Folk_Guitar,-1,-1
64,100,0.11818181818181818,373,1,69,_DL_Japanese_Folk_Pop_Acoustic_Folk_Guitar,-1,-1
50,100,0.8636363636363636,399,0,69,_DL_Japanese_Folk_Pop_Acoustic_Folk_Guitar,-1,-1
57,100,0.4590909090909091,593,0,69,_DL_Japanese_Folk_Pop_Acoustic_Folk_Guitar,-1,-1
57,100,0.22272727272727272,849,1,69,_DL_Japanese_Folk_Pop_Acoustic_Folk_Guitar,-1,-1
40,100,0.4818181818181818,47,1,70,_DL_Japanese_Folk_Pop_Acoustic_Folk_Guitar,-1,-1
40,100,0.17727272727272728,172,0,70,_DL_Japanese_Folk_Pop_Acoustic_Folk_Guitar,-1,-1
64,100,0.1,210,0,70,_DL_Japanese_Folk_Pop_Acoustic_Folk_Guitar,-1,-1
40,100,0.1409090909090909,246,0,70,_DL_Japanese_Folk_Pop_Acoustic_Folk_Guitar,-1,-1
40,100,0.18181818181818182,299,0,70,_DL_Japanese_Folk_Pop_Acoustic_Folk_Guitar,-1,-1
40,100,0.2590909090909091,360,0,70,_DL_Japanese_Folk_Pop_Acoustic_Folk_Guitar,-1,-1
64,100,0.3181818181818182,417,0,70,_DL_Japanese_Folk_Pop_Acoustic_Folk_Guitar,-1,-1
57,100,0.7181818181818181,502,0,70,_DL_Japanese_Folk_Pop_Acoustic_Folk_Guitar,-1,-1
61,100,0.18181818181818182,752,1,70,_DL_Japanese_Folk_Pop_Acoustic_Folk_Guitar,-1,-1
61,100,0.17727272727272728,810,0,70,_DL_Japanese_Folk_Pop_Acoustic_Folk_Guitar,-1,-1
61,100,0.2590909090909091,866,0,70,_DL_Japanese_Folk_Pop_Acoustic_Folk_Guitar,-1,-1
57,100,0.2409090909090909,163,1,71,_DL_Japanese_Folk_Pop_Acoustic_Folk_Guitar,-1,-1
57,100,0.4,263,0,71,_DL_Japanese_Folk_Pop_Acoustic_Folk_Guitar,-1,-1
61,100,0.8227272727272728,365,0,71,_DL_Japanese_Folk_Pop_Acoustic_Folk_Guitar,-1,-1
57,100,0.1409090909090909,553,0,71,_DL_Japanese_Folk_Pop_Acoustic_Folk_Guitar,-1,-1
62,100,0.11818181818181818,612,0,71,_DL_Japanese_Folk_Pop_Acoustic_Folk_Guitar,-1,-1
47,100,0.3181818181818182,677,0,71,_DL_Japanese_Folk_Pop_Acoustic_Folk_Guitar,-1,-1
47,100,0.12272727272727273,752,0,71,_DL_Japanese_Folk_Pop_Acoustic_Folk_Guitar,-1,-1
47,100,0.1,826,0,71,_DL_Japanese_Folk_Pop_Acoustic_Folk_Guitar,-1,-1
57,100,0.3409090909090909,26,1,72,_DL_Japanese_Folk_Pop_Acoustic_Folk_Guitar,-1,-1
62,100,0.5227272727272727,113,0,72,_DL_Japanese_Folk_Pop_Acoustic_Folk_Guitar,-1,-1
50,100,0.1409090909090909,229,0,72,_DL_Japanese_Folk_Pop_Acoustic_Folk_Guitar,-1,-1
40,100,0.5,312,0,72,_DL_Japanese_Folk_Pop_Acoustic_Folk_Guitar,-1,-1
59,100,0.2409090909090909,462,0,72,_DL_Japanese_Folk_Pop_Acoustic_Folk_Guitar,-1,-1
40,100,0.12272727272727273,576,0,72,_DL_Japanese_Folk_Pop_Acoustic_Folk_Guitar,-1,-1
64,100,0.2409090909090909,650,0,72,_DL_Japanese_Folk_Pop_Acoustic_Folk_Guitar,-1,-1
45,100,0.37727272727272726,30,1,73,_DL_Japanese_Folk_Pop_Acoustic_Folk_Guitar,-1,-1
45,100,0.2,132,0,73,_DL_Japanese_Folk_Pop_Acoustic_Folk_Guitar,-1,-1
64,100,0.16363636363636364,179,0,73,_DL_Japanese_Folk_Pop_Acoustic_Folk_Guitar,-1,-1
61,100,0.4818181818181818,576,1,73,_DL_Japanese_Folk_Pop_Acoustic_Folk_Guitar,-1,-1
61,100,0.1,722,0,73,_DL_Japanese_Folk_Pop_Acoustic_Folk_Guitar,-1,-1
61,100,0.759090909090909,747,0,73,_DL_Japanese_Folk_Pop_Acoustic_Folk_Guitar,-1,-1
57,100,0.6409090909090909,255,1,74,_DL_Japanese_Folk_Pop_Acoustic_Folk_Guitar,-1,-1
59,100,0.2772727272727273,567,1,74,_DL_Japanese_Folk_Pop_Acoustic_Folk_Guitar,-1,-1
40,100,0.18181818181818182,660,0,74,_DL_Japanese_Folk_Pop_Acoustic_Folk_Guitar,-1,-1
40,100,0.11818181818181818,713,0,74,_DL_Japanese_Folk_Pop_Acoustic_Folk_Guitar,-1,-1
59,100,0.1,760,0,74,_DL_Japanese_Folk_Pop_Acoustic_Folk_Guitar,-1,-1
64,100,0.1,813,0,74,_DL_Japanese_Folk_Pop_Acoustic_Folk_Guitar,-1,-1
40,100,0.1409090909090909,849,0,74,_DL_Japanese_Folk_Pop_Acoustic_Folk_Guitar,-1,-1
59,100,0.1,3,1,75,_DL_Japanese_Folk_Pop_Acoustic_Folk_Guitar,-1,-1
61,100,0.1,30,0,75,_DL_Japanese_Folk_Pop_Acoustic_Folk_Guitar,-1,-1
64,100,0.4772727272727273,83,0,75,_DL_Japanese_Folk_Pop_Acoustic_Folk_Guitar,-1,-1
53,100,0.11818181818181818,193,0,75,_DL_Japanese_Folk_Pop_Acoustic_Folk_Guitar,-1,-1
61,100,0.1590909090909091,263,0,75,_DL_Japanese_Folk_Pop_Acoustic_Folk_Guitar,-1,-1
61,100,0.3409090909090909,312,0,75,_DL_Japanese_Folk_Pop_Acoustic_Folk_Guitar,-1,-1
57,100,0.2590909090909091,392,0,75,_DL_Japanese_Folk_Pop_Acoustic_Folk_Guitar,-1,-1
61,100,0.2409090909090909,509,0,75,_DL_Japanese_Folk_Pop_Acoustic_Folk_Guitar,-1,-1
61,100,0.5818181818181818,572,0,75,_DL_Japanese_Folk_Pop_Acoustic_Folk_Guitar,-1,-1
54,100,0.5181818181818182,722,0,75,_DL_Japanese_Folk_Pop_Acoustic_Folk_Guitar,-1,-1
61,100,0.740909090909091,862,0,75,_DL_Japanese_Folk_Pop_Acoustic_Folk_Guitar,-1,-1
62,100,0.2772727272727273,216,1,76,_DL_Japanese_Folk_Pop_Acoustic_Folk_Guitar,-1,-1
59,100,0.21818181818181817,330,0,76,_DL_Japanese_Folk_Pop_Acoustic_Folk_Guitar,-1,-1
62,100,0.6,386,0,76,_DL_Japanese_Folk_Pop_Acoustic_Folk_Guitar,-1,-1
59,100,0.1,839,1,76,_DL_Japanese_Folk_Pop_Acoustic_Folk_Guitar,-1,-1
40,100,0.1409090909090909,862,0,76,_DL_Japanese_Folk_Pop_Acoustic_Folk_Guitar,-1,-1
52,100,0.38181818181818183,22,1,77,_DL_Japanese_Folk_Pop_Acoustic_Folk_Guitar,-1,-1
59,100,0.2409090909090909,220,0,77,_DL_Japanese_Folk_Pop_Acoustic_Folk_Guitar,-1,-1
52,100,0.5409090909090909,299,0,77,_DL_Japanese_Folk_Pop_Acoustic_Folk_Guitar,-1,-1
61,100,0.6590909090909091,519,1,77,_DL_Japanese_Folk_Pop_Acoustic_Folk_Guitar,-1,-1
61,100,0.11818181818181818,756,1,77,_DL_Japanese_Folk_Pop_Acoustic_Folk_Guitar,-1,-1
61,100,0.7,805,0,77,_DL_Japanese_Folk_Pop_Acoustic_Folk_Guitar,-1,-1
61,100,0.1590909090909091,127,1,78,_DL_Japanese_Folk_Pop_Acoustic_Folk_Guitar,-1,-1
61,100,0.1,166,0,78,_DL_Japanese_Folk_Pop_Acoustic_Folk_Guitar,-1,-1
61,100,0.6181818181818182,220,0,78,_DL_Japanese_Folk_Pop_Acoustic_Folk_Guitar,-1,-1
57,100,0.2409090909090909,396,0,78,_DL_Japanese_Folk_Pop_Acoustic_Folk_Guitar,-1,-1
55,100,0.5181818181818182,537,1,0,DL_Warm_Pop_Rock_Guitar,-1,-1
55,100,0.6590909090909091,845,1,0,DL_Warm_Pop_Rock_Guitar,-1,-1
41,100,0.1409090909090909,189,1,1,DL_Warm_Pop_Rock_Guitar,-1,-1
41,100,0.4590909090909091,304,0,1,DL_Warm_Pop_Rock_Guitar,-1,-1
62,100,0.4636363636363636,576,1,1,DL_Warm_Pop_Rock_Guitar,-1,-1
52,100,0.740909090909091,862,1,1,DL_Warm_Pop_Rock_Guitar,-1,-1
41,100,0.17727272727272728,216,1,2,DL_Warm_Pop_Rock_Guitar,-1,-1
41,100,0.22272727272727272,342,0,2,DL_Warm_Pop_Rock_Guitar,-1,-1
55,100,0.1,629,1,2,DL_Warm_Pop_Rock_Guitar,-1,-1
55,100,0.21818181818181817,660,0,2,DL_Warm_Pop_Rock_Guitar,-1,-1
41,100,0.13636363636363635,831,0,2,DL_Warm_Pop_Rock_Guitar,-1,-1
55,100,0.2,91,1,3,DL_Warm_Pop_Rock_Guitar,-1,-1
52,100,0.6772727272727272,590,1,3,DL_Warm_Pop_Rock_Guitar,-1,-1
52,100,0.12272727272727273,761,0,3,DL_Warm_Pop_Rock_Guitar,-1,-1
41,100,0.18181818181818182,813,0,3,DL_Warm_Pop_Rock_Guitar,-1,-1
52,100,0.740909090909091,35,1,4,DL_Warm_Pop_Rock_Guitar,-1,-1
52,100,0.2,330,1,4,DL_Warm_Pop_Rock_Guitar,-1,-1
64,100,0.2,8,1,5,DL_Warm_Pop_Rock_Guitar,-1,-1
43,100,0.21818181818181817,87,0,5,DL_Warm_Pop_Rock_Guitar,-1,-1
55,100,0.5636363636363636,135,0,5,DL_Warm_Pop_Rock_Guitar,-1,-1
43,100,0.1409090909090909,268,0,5,DL_Warm_Pop_Rock_Guitar,-1,-1
55,100,0.2818181818181818,330,0,5,DL_Warm_Pop_Rock_Guitar,-1,-1
57,100,0.17727272727272728,823,1,5,DL_Warm_Pop_Rock_Guitar,-1,-1
62,100,0.1409090909090909,56,1,6,DL_Warm_Pop_Rock_Guitar,-1,-1
62,100,0.2409090909090909,132,0,6,DL_Warm_Pop_Rock_Guitar,-1,-1
62,100,0.9818181818181818,330,0,6,DL_Warm_Pop_Rock_Guitar,-1,-1
62,100,0.1409090909090909,581,1,6,DL_Warm_Pop_Rock_Guitar,-1,-1
57,100,0.6409090909090909,691,0,6,DL_Warm_Pop_Rock_Guitar,-1,-1
41,100,0.1409090909090909,35,1,7,DL_Warm_Pop_Rock_Guitar,-1,-1
51,100,0.11818181818181818,307,1,7,DL_Warm_Pop_Rock_Guitar,-1,-1
62,100,0.38181818181818183,606,1,7,DL_Warm_Pop_Rock_Guitar,-1,-1
52,100,0.2818181818181818,826,1,7,DL_Warm_Pop_Rock_Guitar,-1,-1
40,100,0.33636363636363636,171,1,8,DL_Warm_Pop_Rock_Guitar,-1,-1
52,100,0.42272727272727273,245,0,8,DL_Warm_Pop_Rock_Guitar,-1,-1
40,100,0.13636363636363635,347,0,8,DL_Warm_Pop_Rock_Guitar,-1,-1
40,100,0.4590909090909091,391,0,8,DL_Warm_Pop_Rock_Guitar,-1,-1
40,100,0.1590909090909091,660,1,8,DL_Warm_Pop_Rock_Guitar,-1,-1
48,100,0.32272727272727275,826,0,8,DL_Warm_Pop_Rock_Guitar,-1,-1
60,100,0.1590909090909091,140,1,9,DL_Warm_Pop_Rock_Guitar,-1,-1
62,100,0.5409090909090909,185,0,9,DL_Warm_Pop_Rock_Guitar,-1,-1
43,100,0.18181818181818182,307,0,9,DL_Warm_Pop_Rock_Guitar,-1,-1
62,100,0.4,347,0,9,DL_Warm_Pop_Rock_Guitar,-1,-1
43,100,0.2409090909090909,470,0,9,DL_Warm_Pop_Rock_Guitar,-1,-1
62,100,0.11818181818181818,524,0,9,DL_Warm_Pop_Rock_Guitar,-1,-1
62,100,0.8590909090909091,563,0,9,DL_Warm_Pop_Rock_Guitar,-1,-1
50,100,0.12272727272727273,752,0,9,DL_Warm_Pop_Rock_Guitar,-1,-1
50,100,0.18181818181818182,783,0,9,DL_Warm_Pop_Rock_Guitar,-1,-1
50,100,0.5227272727272727,826,0,9,DL_Warm_Pop_Rock_Guitar,-1,-1
57,100,0.17727272727272728,171,1,10,DL_Warm_Pop_Rock_Guitar,-1,-1
55,100,0.1,211,1,11,DL_Warm_Pop_Rock_Guitar,-1,-1
62,100,0.32272727272727275,519,1,11,DL_Warm_Pop_Rock_Guitar,-1,-1
50,100,0.16363636363636364,773,1,11,DL_Warm_Pop_Rock_Guitar,-1,-1
62,100,1.059090909090909,536,1,12,DL_Warm_Pop_Rock_Guitar,-1,-1
50,100,0.3409090909090909,65,1,13,DL_Warm_Pop_Rock_Guitar,-1,-1
50,100,0.1409090909090909,158,0,13,DL_Warm_Pop_Rock_Guitar,-1,-1
55,100,0.2409090909090909,321,0,13,DL_Warm_Pop_Rock_Guitar,-1,-1
62,100,0.1,479,0,13,DL_Warm_Pop_Rock_Guitar,-1,-1
43,100,0.1,501,0,13,DL_Warm_Pop_Rock_Guitar,-1,-1
55,100,0.4590909090909091,694,0,13,DL_Warm_Pop_Rock_Guitar,-1,-1
57,100,0.2590909090909091,814,0,13,DL_Warm_Pop_Rock_Guitar,-1,-1
57,100,0.740909090909091,3,1,14,DL_Warm_Pop_Rock_Guitar,-1,-1
57,100,0.6,194,0,14,DL_Warm_Pop_Rock_Guitar,-1,-1
57,100,1.3,347,0,14,DL_Warm_Pop_Rock_Guitar,-1,-1
57,100,0.5772727272727273,691,1,14,DL_Warm_Pop_Rock_Guitar,-1,-1
57,100,0.2,862,0,14,DL_Warm_Pop_Rock_Guitar,-1,-1
55,100,0.38181818181818183,123,1,15,DL_Warm_Pop_Rock_Guitar,-1,-1
55,100,0.36363636363636365,268,0,15,DL_Warm_Pop_Rock_Guitar,-1,-1
52,100,0.1,383,0,15,DL_Warm_Pop_Rock_Guitar,-1,-1
52,100,0.2818181818181818,550,0,15,DL_Warm_Pop_Rock_Guitar,-1,-1
55,100,0.22272727272727272,651,0,15,DL_Warm_Pop_Rock_Guitar,-1,-1
55,100,0.1,761,0,15,DL_Warm_Pop_Rock_Guitar,-1,-1
43,100,0.3409090909090909,100,1,16,DL_Warm_Pop_Rock_Guitar,-1,-1
43,100,0.1409090909090909,356,1,16,DL_Warm_Pop_Rock_Guitar,-1,-1
62,100,0.5772727272727273,391,0,16,DL_Warm_Pop_Rock_Guitar,-1,-1
57,100,0.1,712,1,16,DL_Warm_Pop_Rock_Guitar,-1,-1
57,100,0.2772727272727273,756,0,16,DL_Warm_Pop_Rock_Guitar,-1,-1
52,100,0.2409090909090909,96,1,17,DL_Warm_Pop_Rock_Guitar,-1,-1
64,100,0.4,250,0,17,DL_Warm_Pop_Rock_Guitar,-1,-1
41,100,0.1590909090909091,700,1,17,DL_Warm_Pop_Rock_Guitar,-1,-1
47,100,0.37727272727272726,150,1,18,DL_Warm_Pop_Rock_Guitar,-1,-1
47,100,0.17727272727272728,237,0,18,DL_Warm_Pop_Rock_Guitar,-1,-1
62,100,0.18181818181818182,528,1,18,DL_Warm_Pop_Rock_Guitar,-1,-1
62,100,0.2,660,0,18,DL_Warm_Pop_Rock_Guitar,-1,-1
62,100,0.3,748,0,18,DL_Warm_Pop_Rock_Guitar,-1,-1
62,100,0.5818181818181818,839,0,18,DL_Warm_Pop_Rock_Guitar,-1,-1
43,100,0.11818181818181818,110,1,19,DL_Warm_Pop_Rock_Guitar,-1,-1
62,100,0.5590909090909091,154,0,19,DL_Warm_Pop_Rock_Guitar,-1,-1
48,100,3.4,281,0,19,DL_Warm_Pop_Rock_Guitar,-1,-1
50,100,0.9,198,1,20,DL_Warm_Pop_Rock_Guitar,-1,-1
43,100,0.1,602,1,20,DL_Warm_Pop_Rock_Guitar,-1,-1
43,100,0.5772727272727273,677,0,20,DL_Warm_Pop_Rock_Guitar,-1,-1
50,100,0.8636363636363636,3,1,21,DL_Warm_Pop_Rock_Guitar,-1,-1
40,100,0.41818181818181815,229,1,21,DL_Warm_Pop_Rock_Guitar,-1,-1
40,100,0.18181818181818182,333,0,21,DL_Warm_Pop_Rock_Guitar,-1,-1
62,100,0.1590909090909091,519,0,21,DL_Warm_Pop_Rock_Guitar,-1,-1
52,100,0.35909090909090907,567,0,21,DL_Warm_Pop_Rock_Guitar,-1,-1
52,100,0.1,677,0,21,DL_Warm_Pop_Rock_Guitar,-1,-1
62,100,0.5,810,0,21,DL_Warm_Pop_Rock_Guitar,-1,-1
62,100,0.1409090909090909,57,1,22,DL_Warm_Pop_Rock_Guitar,-1,-1
62,100,0.4818181818181818,92,0,22,DL_Warm_Pop_Rock_Guitar,-1,-1
55,100,0.3181818181818182,360,1,22,DL_Warm_Pop_Rock_Guitar,-1,-1
48,100,0.21818181818181817,590,1,22,DL_Warm_Pop_Rock_Guitar,-1,-1
60,100,0.11818181818181818,638,0,22,DL_Warm_Pop_Rock_Guitar,-1,-1
62,100,0.5,158,1,23,DL_Warm_Pop_Rock_Guitar,-1,-1
50,100,0.1590909090909091,281,0,23,DL_Warm_Pop_Rock_Guitar,-1,-1
62,100,0.2409090909090909,343,0,23,DL_Warm_Pop_Rock_Guitar,-1,-1
55,100,0.1,443,0,23,DL_Warm_Pop_Rock_Guitar,-1,-1
43,100,0.12272727272727273,474,0,23,DL_Warm_Pop_Rock_Guitar,-1,-1
62,100,0.11818181818181818,501,0,23,DL_Warm_Pop_Rock_Guitar,-1,-1
62,100,0.1409090909090909,607,0,23,DL_Warm_Pop_Rock_Guitar,-1,-1
43,100,0.1,866,1,23,DL_Warm_Pop_Rock_Guitar,-1,-1
50,100,0.21818181818181817,21,1,24,DL_Warm_Pop_Rock_Guitar,-1,-1
55,100,0.32272727272727275,92,0,24,DL_Warm_Pop_Rock_Guitar,-1,-1
50,100,0.1,223,0,24,DL_Warm_Pop_Rock_Guitar,-1,-1
50,100,0.11818181818181818,360,0,24,DL_Warm_Pop_Rock_Guitar,-1,-1
62,100,0.2818181818181818,461,0,24,DL_Warm_Pop_Rock_Guitar,-1,-1
62,100,0.2409090909090909,704,1,24,DL_Warm_Pop_Rock_Guitar,-1,-1
62,100,0.2,835,0,24,DL_Warm_Pop_Rock_Guitar,-1,-1
61,100,0.11818181818181818,0,1,25,DL_Warm_Pop_Rock_Guitar,-1,-1
43,100,0.36363636363636365,92,0,25,DL_Warm_Pop_Rock_Guitar,-1,-1
43,100,0.1,175,0,25,DL_Warm_Pop_Rock_Guitar,-1,-1
55,100,0.12272727272727273,277,0,25,DL_Warm_Pop_Rock_Guitar,-1,-1
43,100,0.3,356,0,25,DL_Warm_Pop_Rock_Guitar,-1,-1
62,100,0.3409090909090909,497,0,25,DL_Warm_Pop_Rock_Guitar,-1,-1
62,100,0.2409090909090909,712,1,25,DL_Warm_Pop_Rock_Guitar,-1,-1
62,100,0.2818181818181818,13,1,26,DL_Warm_Pop_Rock_Guitar,-1,-1
50,100,0.17727272727272728,75,0,26,DL_Warm_Pop_Rock_Guitar,-1,-1
62,100,0.2636363636363636,136,0,26,DL_Warm_Pop_Rock_Guitar,-1,-1
50,100,0.2409090909090909,241,0,26,DL_Warm_Pop_Rock_Guitar,-1,-1
47,100,0.33636363636363636,480,1,26,DL_Warm_Pop_Rock_Guitar,-1,-1
52,100,0.2818181818181818,708,1,26,DL_Warm_Pop_Rock_Guitar,-1,-1
62,100,0.3409090909090909,48,1,27,DL_Warm_Pop_Rock_Guitar,-1,-1
57,100,0.2409090909090909,158,0,27,DL_Warm_Pop_Rock_Guitar,-1,-1
52,100,0.6,260,0,27,DL_Warm_Pop_Rock_Guitar,-1,-1
55,100,0.23636363636363636,413,0,27,DL_Warm_Pop_Rock_Guitar,-1,-1
55,100,0.3409090909090909,484,0,27,DL_Warm_Pop_Rock_Guitar,-1,-1
62,100,0.2590909090909091,567,0,27,DL_Warm_Pop_Rock_Guitar,-1,-1
50,100,0.1409090909090909,735,0,27,DL_Warm_Pop_Rock_Guitar,-1,-1
50,100,0.16363636363636364,818,0,27,DL_Warm_Pop_Rock_Guitar,-1,-1
62,100,0.21818181818181817,162,1,28,DL_Warm_Pop_Rock_Guitar,-1,-1
54,100,0.4636363636363636,443,1,28,DL_Warm_Pop_Rock_Guitar,-1,-1
59,100,0.13636363636363635,810,1,28,DL_Warm_Pop_Rock_Guitar,-1,-1
64,100,0.23636363636363636,61,1,29,DL_Warm_Pop_Rock_Guitar,-1,-1
52,100,0.5818181818181818,113,0,29,DL_Warm_Pop_Rock_Guitar,-1,-1
52,100,0.3,333,1,29,DL_Warm_Pop_Rock_Guitar,-1,-1
48,100,0.1409090909090909,576,1,29,DL_Warm_Pop_Rock_Guitar,-1,-1
62,100,0.37727272727272726,625,0,29,DL_Warm_Pop_Rock_Guitar,-1,-1
64,100,0.4,708,0,29,DL_Warm_Pop_Rock_Guitar,-1,-1
62,100,0.11818181818181818,801,0,29,DL_Warm_Pop_Rock_Guitar,-1,-1
62,100,0.3181818181818182,150,1,30,DL_Warm_Pop_Rock_Guitar,-1,-1
62,100,0.2,594,1,30,DL_Warm_Pop_Rock_Guitar,-1,-1
62,100,0.2772727272727273,646,0,30,DL_Warm_Pop_Rock_Guitar,-1,-1
57,100,0.4,739,0,30,DL_Warm_Pop_Rock_Guitar,-1,-1
57,100,0.36363636363636365,48,1,31,DL_Warm_Pop_Rock_Guitar,-1,-1
50,100,0.16363636363636364,136,0,31,DL_Warm_Pop_Rock_Guitar,-1,-1
62,100,0.5363636363636364,171,0,31,DL_Warm_Pop_Rock_Guitar,-1,-1
53,100,0.11818181818181818,461,1,31,DL_Warm_Pop_Rock_Guitar,-1,-1
62,100,0.4772727272727273,523,0,31,DL_Warm_Pop_Rock_Guitar,-1,-1
62,100,0.11818181818181818,638,0,31,DL_Warm_Pop_Rock_Guitar,-1,-1
62,100,0.18181818181818182,694,0,31,DL_Warm_Pop_Rock_Guitar,-1,-1
47,100,0.35909090909090907,766,0,31,DL_Warm_Pop_Rock_Guitar,-1,-1
62,100,0.33636363636363636,853,0,31,DL_Warm_Pop_Rock_Guitar,-1,-1
62,100,0.38181818181818183,201,1,32,DL_Warm_Pop_Rock_Guitar,-1,-1
43,100,0.2409090909090909,453,1,32,DL_Warm_Pop_Rock_Guitar,-1,-1
50,100,0.3181818181818182,765,1,32,DL_Warm_Pop_Rock_Guitar,-1,-1
50,100,0.2,128,1,33,DL_Warm_Pop_Rock_Guitar,-1,-1
62,100,0.21818181818181817,185,0,33,DL_Warm_Pop_Rock_Guitar,-1,-1
62,100,0.2,289,0,33,DL_Warm_Pop_Rock_Guitar,-1,-1
57,100,0.33636363636363636,370,0,33,DL_Warm_Pop_Rock_Guitar,-1,-1
55,100,0.1409090909090909,668,1,33,DL_Warm_Pop_Rock_Guitar,-1,-1
62,100,0.13636363636363635,721,0,33,DL_Warm_Pop_Rock_Guitar,-1,-1
50,100,0.21818181818181817,756,0,33,DL_Warm_Pop_Rock_Guitar,-1,-1
43,100,0.42272727272727273,818,0,33,DL_Warm_Pop_Rock_Guitar,-1,-1
50,100,0.4818181818181818,48,1,34,DL_Warm_Pop_Rock_Guitar,-1,-1
50,100,0.1,276,1,34,DL_Warm_Pop_Rock_Guitar,-1,-1
50,100,0.41818181818181815,396,0,34,DL_Warm_Pop_Rock_Guitar,-1,-1
50,100,0.17727272727272728,501,0,34,DL_Warm_Pop_Rock_Guitar,-1,-1
62,100,0.8,774,1,34,DL_Warm_Pop_Rock_Guitar,-1,-1
50,100,0.33636363636363636,150,1,35,DL_Warm_Pop_Rock_Guitar,-1,-1
50,100,0.17727272727272728,251,0,35,DL_Warm_Pop_Rock_Guitar,-1,-1
50,100,0.32272727272727275,421,0,35,DL_Warm_Pop_Rock_Guitar,-1,-1
57,100,0.2409090909090909,571,0,35,DL_Warm_Pop_Rock_Guitar,-1,-1
52,100,0.3,655,0,35,DL_Warm_Pop_Rock_Guitar,-1,-1
62,100,0.11818181818181818,721,0,35,DL_Warm_Pop_Rock_Guitar,-1,-1
62,100,0.1409090909090909,823,0,35,DL_Warm_Pop_Rock_Guitar,-1,-1
52,100,0.21818181818181817,866,0,35,DL_Warm_Pop_Rock_Guitar,-1,-1
52,100,0.21818181818181817,40,1,36,DL_Warm_Pop_Rock_Guitar,-1,-1
52,100,0.17727272727272728,206,0,36,DL_Warm_Pop_Rock_Guitar,-1,-1
62,100,1.0,321,0,36,DL_Warm_Pop_Rock_Guitar,-1,-1
52,100,0.21818181818181817,545,1,36,DL_Warm_Pop_Rock_Guitar,-1,-1
62,100,1.1818181818181819,716,0,36,DL_Warm_Pop_Rock_Guitar,-1,-1
60,100,0.11818181818181818,118,1,37,DL_Warm_Pop_Rock_Guitar,-1,-1
62,100,0.2818181818181818,201,0,37,DL_Warm_Pop_Rock_Guitar,-1,-1
50,100,0.17727272727272728,281,0,37,DL_Warm_Pop_Rock_Guitar,-1,-1
50,100,0.6227272727272727,334,0,37,DL_Warm_Pop_Rock_Guitar,-1,-1
62,100,0.2,545,1,37,DL_Warm_Pop_Rock_Guitar,-1,-1
62,100,0.4,721,0,37,DL_Warm_Pop_Rock_Guitar,-1,-1
62,100,0.8227272727272728,56,1,38,DL_Warm_Pop_Rock_Guitar,-1,-1
57,100,0.1590909090909091,325,1,38,DL_Warm_Pop_Rock_Guitar,-1,-1
62,100,0.1590909090909091,396,0,38,DL_Warm_Pop_Rock_Guitar,-1,-1
62,100,0.2772727272727273,471,0,38,DL_Warm_Pop_Rock_Guitar,-1,-1
50,100,0.41818181818181815,545,0,38,DL_Warm_Pop_Rock_Guitar,-1,-1
62,100,0.13636363636363635,810,1,38,DL_Warm_Pop_Rock_Guitar,-1,-1
52,100,0.38181818181818183,861,0,38,DL_Warm_Pop_Rock_Guitar,-1,-1
50,100,0.1,276,1,39,DL_Warm_Pop_Rock_Guitar,-1,-1
62,100,0.32272727272727275,298,0,39,DL_Warm_Pop_Rock_Guitar,-1,-1
43,100,0.1,386,0,39,DL_Warm_Pop_Rock_Guitar,-1,-1
55,100,0.4409090909090909,421,0,39,DL_Warm_Pop_Rock_Guitar,-1,-1
50,100,0.17727272727272728,536,0,39,DL_Warm_Pop_Rock_Guitar,-1,-1
55,100,0.22272727272727272,584,0,39,DL_Warm_Pop_Rock_Guitar,-1,-1
48,100,0.1409090909090909,751,0,39,DL_Warm_Pop_Rock_Guitar,-1,-1
48,100,0.3,861,0,39,DL_Warm_Pop_Rock_Guitar,-1,-1
60,100,0.2409090909090909,48,1,40,DL_Warm_Pop_Rock_Guitar,-1,-1
62,100,0.3,220,0,40,DL_Warm_Pop_Rock_Guitar,-1,-1
62,100,0.1409090909090909,289,0,40,DL_Warm_Pop_Rock_Guitar,-1,-1
62,100,0.38181818181818183,474,0,40,DL_Warm_Pop_Rock_Guitar,-1,-1
50,100,0.4409090909090909,571,0,40,DL_Warm_Pop_Rock_Guitar,-1,-1
57,100,0.2772727272727273,691,0,40,DL_Warm_Pop_Rock_Guitar,-1,-1
52,100,0.4818181818181818,783,0,40,DL_Warm_Pop_Rock_Guitar,-1,-1
52,100,0.4772727272727273,18,1,41,DL_Warm_Pop_Rock_Guitar,-1,-1
52,100,0.16363636363636364,158,0,41,DL_Warm_Pop_Rock_Guitar,-1,-1
52,100,0.22272727272727272,201,0,41,DL_Warm_Pop_Rock_Guitar,-1,-1
52,100,0.3,260,0,41,DL_Warm_Pop_Rock_Guitar,-1,-1
52,100,0.38181818181818183,396,0,41,DL_Warm_Pop_Rock_Guitar,-1,-1
64,100,0.6590909090909091,496,0,41,DL_Warm_Pop_Rock_Guitar,-1,-1
50,100,0.12272727272727273,826,1,41,DL_Warm_Pop_Rock_Guitar,-1,-1
50,100,0.6590909090909091,866,0,41,DL_Warm_Pop_Rock_Guitar,-1,-1
50,100,0.5,334,1,42,DL_Warm_Pop_Rock_Guitar,-1,-1
50,100,0.2,458,0,42,DL_Warm_Pop_Rock_Guitar,-1,-1
50,100,0.4818181818181818,509,0,42,DL_Warm_Pop_Rock_Guitar,-1,-1
50,100,0.4818181818181818,638,0,42,DL_Warm_Pop_Rock_Guitar,-1,-1
50,100,0.2,818,0,42,DL_Warm_Pop_Rock_Guitar,-1,-1
50,100,0.1590909090909091,866,0,42,DL_Warm_Pop_Rock_Guitar,-1,-1
50,100,0.740909090909091,26,1,43,DL_Warm_Pop_Rock_Guitar,-1,-1
57,100,0.35909090909090907,206,0,43,DL_Warm_Pop_Rock_Guitar,-1,-1
54,100,0.22272727272727272,421,1,43,DL_Warm_Pop_Rock_Guitar,-1,-1
47,100,0.3181818181818182,735,1,43,DL_Warm_Pop_Rock_Guitar,-1,-1
47,100,0.11818181818181818,40,1,44,DL_Warm_Pop_Rock_Guitar,-1,-1
62,100,0.21818181818181817,571,1,44,DL_Warm_Pop_Rock_Guitar,-1,-1
52,100,0.2409090909090909,625,0,44,DL_Warm_Pop_Rock_Guitar,-1,-1
52,100,0.2818181818181818,738,0,44,DL_Warm_Pop_Rock_Guitar,-1,-1
43,100,0.1590909090909091,75,1,45,DL_Warm_Pop_Rock_Guitar,-1,-1
62,100,0.2818181818181818,198,0,45,DL_Warm_Pop_Rock_Guitar,-1,-1
42,100,0.17727272727272728,295,0,45,DL_Warm_Pop_Rock_Guitar,-1,-1
43,100,0.1590909090909091,373,0,45,DL_Warm_Pop_Rock_Guitar,-1,-1
43,100,0.3,413,0,45,DL_Warm_Pop_Rock_Guitar,-1,-1
50,100,0.21818181818181817,493,0,45,DL_Warm_Pop_Rock_Guitar,-1,-1
52,100,0.1409090909090909,13,1,46,DL_Warm_Pop_Rock_Guitar,-1,-1
52,100,0.6818181818181818,69,0,46,DL_Warm_Pop_Rock_Guitar,-1,-1
52,100,0.1590909090909091,241,0,46,DL_Warm_Pop_Rock_Guitar,-1,-1
52,100,0.7,471,1,46,DL_Warm_Pop_Rock_Guitar,-1,-1
52,100,0.9772727272727273,668,0,46,DL_Warm_Pop_Rock_Guitar,-1,-1
62,100,0.1590909090909091,276,1,47,DL_Warm_Pop_Rock_Guitar,-1,-1
62,100,0.6818181818181818,606,1,47,DL_Warm_Pop_Rock_Guitar,-1,-1
50,100,0.6772727272727272,150,1,48,DL_Warm_Pop_Rock_Guitar,-1,-1
50,100,2.018181818181818,373,1,48,DL_Warm_Pop_Rock_Guitar,-1,-1
45,100,0.2,853,1,48,DL_Warm_Pop_Rock_Guitar,-1,-1
50,100,0.1409090909090909,166,1,49,DL_Warm_Pop_Rock_Guitar,-1,-1
50,100,0.7818181818181819,211,0,49,DL_Warm_Pop_Rock_Guitar,-1,-1
50,100,2.2409090909090907,251,1,50,DL_Warm_Pop_Rock_Guitar,-1,-1
50,100,0.2409090909090909,783,1,50,DL_Warm_Pop_Rock_Guitar,-1,-1
50,100,0.9,316,1,54,DL_Warm_Pop_Rock_Guitar,-1,-1
50,100,0.23636363636363636,678,1,54,DL_Warm_Pop_Rock_Guitar,-1,-1
50,100,0.1409090909090909,818,0,54,DL_Warm_Pop_Rock_Guitar,-1,-1
50,100,0.2,853,0,54,DL_Warm_Pop_Rock_Guitar,-1,-1
50,100,0.36363636363636365,114,1,55,DL_Warm_Pop_Rock_Guitar,-1,-1
50,100,0.35909090909090907,343,1,55,DL_Warm_Pop_Rock_Guitar,-1,-1
50,100,0.1590909090909091,515,0,55,DL_Warm_Pop_Rock_Guitar,-1,-1
50,100,0.33636363636363636,590,0,55,DL_Warm_Pop_Rock_Guitar,-1,-1
50,100,0.4590909090909091,21,1,56,DL_Warm_Pop_Rock_Guitar,-1,-1
50,100,0.13636363636363635,281,1,56,DL_Warm_Pop_Rock_Guitar,-1,-1
57,100,0.2409090909090909,871,1,56,DL_Warm_Pop_Rock_Guitar,-1,-1
50,100,0.2818181818181818,276,1,57,DL_Warm_Pop_Rock_Guitar,-1,-1
48,100,0.12272727272727273,408,0,57,DL_Warm_Pop_Rock_Guitar,-1,-1
43,100,0.1590909090909091,638,1,57,DL_Warm_Pop_Rock_Guitar,-1,-1
42,100,0.32272727272727275,861,1,57,DL_Warm_Pop_Rock_Guitar,-1,-1
50,100,0.1409090909090909,440,1,58,DL_Warm_Pop_Rock_Guitar,-1,-1
50,100,0.3,528,0,58,DL_Warm_Pop_Rock_Guitar,-1,-1
50,100,0.21818181818181817,603,0,58,DL_Warm_Pop_Rock_Guitar,-1,-1
50,100,0.2409090909090909,818,1,58,DL_Warm_Pop_Rock_Guitar,-1,-1
50,100,0.2409090909090909,466,1,59,DL_Warm_Pop_Rock_Guitar,-1,-1
50,100,1.9636363636363636,686,1,59,DL_Warm_Pop_Rock_Guitar,-1,-1
50,100,0.41818181818181815,281,1,60,DL_Warm_Pop_Rock_Guitar,-1,-1
50,100,0.18181818181818182,386,0,60,DL_Warm_Pop_Rock_Guitar,-1,-1
52,100,0.2409090909090909,431,0,60,DL_Warm_Pop_Rock_Guitar,-1,-1
52,100,0.11818181818181818,493,0,60,DL_Warm_Pop_Rock_Guitar,-1,-1
52,100,0.1,531,0,60,DL_Warm_Pop_Rock_Guitar,-1,-1
47,100,0.11818181818181818,571,0,60,DL_Warm_Pop_Rock_Guitar,-1,-1
47,100,0.7636363636363637,641,0,60,DL_Warm_Pop_Rock_Guitar,-1,-1
52,100,0.42272727272727273,826,0,60,DL_Warm_Pop_Rock_Guitar,-1,-1
62,100,0.21818181818181817,198,1,61,DL_Warm_Pop_Rock_Guitar,-1,-1
47,100,0.3,303,0,61,DL_Warm_Pop_Rock_Guitar,-1,-1
47,100,0.6,383,0,61,DL_Warm_Pop_Rock_Guitar,-1,-1
55,100,0.17727272727272728,691,1,61,DL_Warm_Pop_Rock_Guitar,-1,-1
50,100,0.37727272727272726,611,1,62,DL_Warm_Pop_Rock_Guitar,-1,-1
50,100,0.1,813,1,62,DL_Warm_Pop_Rock_Guitar,-1,-1
50,100,0.3,496,1,63,DL_Warm_Pop_Rock_Guitar,-1,-1
43,100,0.5409090909090909,734,1,64,DL_Warm_Pop_Rock_Guitar,-1,-1
43,100,2.481818181818182,22,1,65,DL_Warm_Pop_Rock_Guitar,-1,-1
50,100,1.2818181818181817,576,1,65,DL_Warm_Pop_Rock_Guitar,-1,-1
62,100,0.7,9,1,66,DL_Warm_Pop_Rock_Guitar,-1,-1
50,100,0.23636363636363636,172,0,66,DL_Warm_Pop_Rock_Guitar,-1,-1
50,100,1.8,229,0,66,DL_Warm_Pop_Rock_Guitar,-1,-1
62,100,2.081818181818182,716,1,66,DL_Warm_Pop_Rock_Guitar,-1,-1
62,100,0.2,603,1,67,DL_Warm_Pop_Rock_Guitar,-1,-1
48,100,0.1409090909090909,660,0,67,DL_Warm_Pop_Rock_Guitar,-1,-1
48,100,0.1,703,0,67,DL_Warm_Pop_Rock_Guitar,-1,-1
48,100,3.922727272727273,729,0,67,DL_Warm_Pop_Rock_Guitar,-1,-1
43,100,3.036363636363636,62,1,69,DL_Warm_Pop_Rock_Guitar,-1,-1
50,100,3.059090909090909,734,1,69,DL_Warm_Pop_Rock_Guitar,-1,-1
50,100,0.6636363636363637,553,1,70,DL_Warm_Pop_Rock_Guitar,-1,-1
50,100,0.1590909090909091,722,0,70,DL_Warm_Pop_Rock_Guitar,-1,-1
62,100,0.1,756,0,70,DL_Warm_Pop_Rock_Guitar,-1,-1
48,100,3.7590909090909093,826,0,70,DL_Warm_Pop_Rock_Guitar,-1,-1
50,100,0.17727272727272728,779,1,71,DL_Warm_Pop_Rock_Guitar,-1,-1
43,100,0.6,35,1,72,DL_Warm_Pop_Rock_Guitar,-1,-1
43,100,1.8,223,0,72,DL_Warm_Pop_Rock_Guitar,-1,-1
43,100,0.11818181818181818,216,1,73,DL_Warm_Pop_Rock_Guitar,-1,-1
50,100,0.1,360,0,73,DL_Warm_Pop_Rock_Guitar,-1,-1
50,100,0.7,386,0,73,DL_Warm_Pop_Rock_Guitar,-1,-1
50,100,0.3409090909090909,580,0,73,DL_Warm_Pop_Rock_Guitar,-1,-1
50,100,0.11818181818181818,726,0,73,DL_Warm_Pop_Rock_Guitar,-1,-1
50,100,0.11818181818181818,779,0,73,DL_Warm_Pop_Rock_Guitar,-1,-1
50,100,0.11818181818181818,844,0,73,DL_Warm_Pop_Rock_Guitar,-1,-1
50,100,0.2590909090909091,163,1,74,DL_Warm_Pop_Rock_Guitar,-1,-1
50,100,0.16363636363636364,422,1,74,DL_Warm_Pop_Rock_Guitar,-1,-1
50,100,0.1,536,0,74,DL_Warm_Pop_Rock_Guitar,-1,-1
50,100,0.2,633,0,74,DL_Warm_Pop_Rock_Guitar,-1,-1
62,100,0.2590909090909091,743,0,74,DL_Warm_Pop_Rock_Guitar,-1,-1
50,100,0.1590909090909091,810,0,74,DL_Warm_Pop_Rock_Guitar,-1,-1
52,100,0.6818181818181818,35,1,75,DL_Warm_Pop_Rock_Guitar,-1,-1
64,100,0.1,330,1,75,DL_Warm_Pop_Rock_Guitar,-1,-1
62,100,0.759090909090909,365,0,75,DL_Warm_Pop_Rock_Guitar,-1,-1
52,100,0.21818181818181817,546,0,75,DL_Warm_Pop_Rock_Guitar,-1,-1
62,100,0.5,734,0,75,DL_Warm_Pop_Rock_Guitar,-1,-1
62,100,1.0,849,0,75,DL_Warm_Pop_Rock_Guitar,-1,-1
62,100,0.35909090909090907,426,1,76,DL_Warm_Pop_Rock_Guitar,-1,-1
50,100,0.1409090909090909,536,0,76,DL_Warm_Pop_Rock_Guitar,-1,-1
62,100,0.2,590,0,76,DL_Warm_Pop_Rock_Guitar,-1,-1
50,100,0.2,35,1,77,DL_Warm_Pop_Rock_Guitar,-1,-1
62,100,0.11818181818181818,282,1,77,DL_Warm_Pop_Rock_Guitar,-1,-1
62,100,0.3181818181818182,572,1,77,DL_Warm_Pop_Rock_Guitar,-1,-1
52,100,0.3,206,1,78,DL_Warm_Pop_Rock_Guitar,-1,-1
52,100,0.2818181818181818,276,0,78,DL_Warm_Pop_Rock_Guitar,-1,-1
43,100,0.1409090909090909,603,1,78,DL_Warm_Pop_Rock_Guitar,-1,-1
43,100,0.1590909090909091,646,0,78,DL_Warm_Pop_Rock_Guitar,-1,-1
62,100,0.18181818181818182,695,0,78,DL_Warm_Pop_Rock_Guitar,-1,-1
62,100,0.12272727272727273,739,0,78,DL_Warm_Pop_Rock_Guitar,-1,-1
43,100,0.4,817,0,78,DL_Warm_Pop_Rock_Guitar,-1,-1
43,100,0.11818181818181818,96,1,79,DL_Warm_Pop_Rock_Guitar,-1,-1
62,100,0.3,163,0,79,DL_Warm_Pop_Rock_Guitar,-1,-1
48,100,0.1409090909090909,339,0,79,DL_Warm_Pop_Rock_Guitar,-1,-1
48,100,0.11818181818181818,373,0,79,DL_Warm_Pop_Rock_Guitar,-1,-1
50,100,0.4,839,1,79,DL_Warm_Pop_Rock_Guitar,-1,-1
50,100,0.3181818181818182,96,1,80,DL_Warm_Pop_Rock_Guitar,-1,-1
52,100,0.4590909090909091,193,0,80,DL_Warm_Pop_Rock_Guitar,-1,-1
62,100,0.5181818181818182,440,1,81,DL_Warm_Pop_Rock_Guitar,-1,-1
62,100,0.7,624,0,81,DL_Warm_Pop_Rock_Guitar,-1,-1
40,100,0.35909090909090907,373,1,82,DL_Warm_Pop_Rock_Guitar,-1,-1
52,100,0.22272727272727272,532,0,82,DL_Warm_Pop_Rock_Guitar,-1,-1
50,100,0.2409090909090909,585,0,82,DL_Warm_Pop_Rock_Guitar,-1,-1
62,100,0.1,839,1,82,DL_Warm_Pop_Rock_Guitar,-1,-1
62,100,0.1,866,0,82,DL_Warm_Pop_Rock_Guitar,-1,-1
43,100,0.35909090909090907,66,1,83,DL_Warm_Pop_Rock_Guitar,-1,-1
62,100,0.13636363636363635,150,0,83,DL_Warm_Pop_Rock_Guitar,-1,-1
50,100,0.11818181818181818,216,0,83,DL_Warm_Pop_Rock_Guitar,-1,-1
48,100,0.4,326,0,83,DL_Warm_Pop_Rock_Guitar,-1,-1
48,100,0.3409090909090909,646,1,83,DL_Warm_Pop_Rock_Guitar,-1,-1
43,100,1.1409090909090909,352,1,84,DL_Warm_Pop_Rock_Guitar,-1,-1
43,100,0.4409090909090909,773,1,84,DL_Warm_Pop_Rock_Guitar,-1,-1
43,100,0.13636363636363635,370,1,85,DL_Warm_Pop_Rock_Guitar,-1,-1
43,100,0.2590909090909091,559,0,85,DL_Warm_Pop_Rock_Guitar,-1,-1
43,100,0.2,145,1,86,DL_Warm_Pop_Rock_Guitar,-1,-1
43,100,0.22272727272727272,377,1,86,DL_Warm_Pop_Rock_Guitar,-1,-1
50,100,0.1409090909090909,550,0,86,DL_Warm_Pop_Rock_Guitar,-1,-1
43,100,0.5818181818181818,220,1,87,DL_Warm_Pop_Rock_Guitar,-1,-1
57,100,0.17727272727272728,492,1,0,DL_Guitar,-1,-1
50,100,0.6181818181818182,546,0,0,DL_Guitar,-1,-1
50,100,0.5227272727272727,695,0,0,DL_Guitar,-1,-1
52,100,0.7,166,1,1,DL_Guitar,-1,-1
52,100,0.1,351,0,1,DL_Guitar,-1,-1
59,100,0.1409090909090909,449,0,1,DL_Guitar,-1,-1
40,100,0.22272727272727272,576,0,1,DL_Guitar,-1,-1
52,100,0.11818181818181818,638,0,1,DL_Guitar,-1,-1
44,100,0.5,681,0,1,DL_Guitar,-1,-1
54,100,0.4409090909090909,796,0,1,DL_Guitar,-1,-1
59,100,0.2,12,1,2,DL_Guitar,-1,-1
44,100,0.12272727272727273,91,0,2,DL_Guitar,-1,-1
54,100,0.3409090909090909,421,1,2,DL_Guitar,-1,-1
57,100,0.33636363636363636,501,0,2,DL_Guitar,-1,-1
50,100,0.6818181818181818,796,1,2,DL_Guitar,-1,-1
57,100,0.1409090909090909,70,1,3,DL_Guitar,-1,-1
50,100,0.35909090909090907,100,0,3,DL_Guitar,-1,-1
50,100,0.1,356,1,3,DL_Guitar,-1,-1
40,100,0.3409090909090909,466,0,3,DL_Guitar,-1,-1
59,100,0.3,550,0,3,DL_Guitar,-1,-1
64,100,0.2818181818181818,629,0,3,DL_Guitar,-1,-1
40,100,0.1409090909090909,739,0,3,DL_Guitar,-1,-1
40,100,0.3181818181818182,836,0,3,DL_Guitar,-1,-1
45,100,0.5590909090909091,53,1,4,DL_Guitar,-1,-1
45,100,0.18181818181818182,189,0,4,DL_Guitar,-1,-1
61,100,0.2590909090909091,255,0,4,DL_Guitar,-1,-1
45,100,1.6227272727272728,444,0,4,DL_Guitar,-1,-1
64,100,0.3,871,1,4,DL_Guitar,-1,-1
52,100,0.3,56,1,5,DL_Guitar,-1,-1
50,100,0.5590909090909091,171,0,5,DL_Guitar,-1,-1
50,100,0.1590909090909091,325,0,5,DL_Guitar,-1,-1
50,100,0.22272727272727272,378,0,5,DL_Guitar,-1,-1
45,100,0.11818181818181818,572,0,5,DL_Guitar,-1,-1
52,100,0.5772727272727273,678,0,5,DL_Guitar,-1,-1
52,100,0.2636363636363636,862,0,5,DL_Guitar,-1,-1
64,100,0.1,79,1,6,DL_Guitar,-1,-1
52,100,0.8,105,0,6,DL_Guitar,-1,-1
44,100,0.5409090909090909,294,0,6,DL_Guitar,-1,-1
54,100,0.43636363636363634,414,0,6,DL_Guitar,-1,-1
59,100,0.2409090909090909,514,0,6,DL_Guitar,-1,-1
42,100,0.740909090909091,805,1,6,DL_Guitar,-1,-1
54,100,0.1409090909090909,87,1,7,DL_Guitar,-1,-1
57,100,0.32272727272727275,122,0,7,DL_Guitar,-1,-1
54,100,0.1409090909090909,317,0,7,DL_Guitar,-1,-1
50,100,0.2,581,1,7,DL_Guitar,-1,-1
59,100,0.1,34,1,8,DL_Guitar,-1,-1
52,100,0.1,127,0,8,DL_Guitar,-1,-1
40,100,0.2772727272727273,149,0,8,DL_Guitar,-1,-1
59,100,0.37727272727272726,347,0,8,DL_Guitar,-1,-1
54,100,0.3409090909090909,448,0,8,DL_Guitar,-1,-1
45,100,0.1409090909090909,558,0,8,DL_Guitar,-1,-1
45,100,0.35909090909090907,594,0,8,DL_Guitar,-1,-1
52,100,0.38181818181818183,673,0,8,DL_Guitar,-1,-1
57,100,0.3,766,0,8,DL_Guitar,-1,-1
52,100,0.1,840,0,8,DL_Guitar,-1,-1
57,100,0.21818181818181817,0,1,9,DL_Guitar,-1,-1
61,100,0.23636363636363636,106,0,9,DL_Guitar,-1,-1
57,100,0.2590909090909091,163,0,9,DL_Guitar,-1,-1
61,100,0.2772727272727273,405,1,9,DL_Guitar,-1,-1
57,100,0.11818181818181818,484,0,9,DL_Guitar,-1,-1
57,100,0.1409090909090909,515,0,9,DL_Guitar,-1,-1
50,100,0.1409090909090909,575,0,9,DL_Guitar,-1,-1
45,100,0.5,694,0,9,DL_Guitar,-1,-1
52,100,0.23636363636363636,809,0,9,DL_Guitar,-1,-1
45,100,0.1,87,1,10,DL_Guitar,-1,-1
52,100,0.2409090909090909,113,0,10,DL_Guitar,-1,-1
52,100,0.2409090909090909,299,0,10,DL_Guitar,-1,-1
64,100,0.1,400,0,10,DL_Guitar,-1,-1
59,100,0.32272727272727275,431,0,10,DL_Guitar,-1,-1
52,100,0.1590909090909091,611,0,10,DL_Guitar,-1,-1
52,100,0.43636363636363634,656,0,10,DL_Guitar,-1,-1
52,100,0.4409090909090909,795,0,10,DL_Guitar,-1,-1
52,100,0.11818181818181818,264,1,11,DL_Guitar,-1,-1
43,100,0.1,493,1,11,DL_Guitar,-1,-1
50,100,0.2636363636363636,70,1,12,DL_Guitar,-1,-1
52,100,0.1,572,1,12,DL_Guitar,-1,-1
40,100,0.3181818181818182,603,0,12,DL_Guitar,-1,-1
54,100,0.2590909090909091,189,1,13,DL_Guitar,-1,-1
54,100,0.1,691,1,13,DL_Guitar,-1,-1
40,100,0.2409090909090909,364,1,14,DL_Guitar,-1,-1
64,100,0.11818181818181818,457,0,14,DL_Guitar,-1,-1
64,100,0.2590909090909091,871,1,14,DL_Guitar,-1,-1
40,100,0.1,216,1,15,DL_Guitar,-1,-1
40,100,0.21818181818181817,242,0,15,DL_Guitar,-1,-1
54,100,0.1,694,1,15,DL_Guitar,-1,-1
55,100,0.1,747,0,15,DL_Guitar,-1,-1
52,100,0.2,52,1,16,DL_Guitar,-1,-1
52,100,0.35909090909090907,100,0,16,DL_Guitar,-1,-1
52,100,0.1409090909090909,638,1,16,DL_Guitar,-1,-1
52,100,0.2,193,1,17,DL_Guitar,-1,-1
52,100,0.2409090909090909,250,0,17,DL_Guitar,-1,-1
55,100,0.16363636363636364,443,0,17,DL_Guitar,-1,-1
55,100,0.1,492,1,18,DL_Guitar,-1,-1
45,100,0.2590909090909091,858,1,18,DL_Guitar,-1,-1
57,100,0.2590909090909091,430,1,19,DL_Guitar,-1,-1
52,100,0.2636363636363636,488,0,19,DL_Guitar,-1,-1
64,100,0.1,677,0,19,DL_Guitar,-1,-1
64,100,0.2,704,0,19,DL_Guitar,-1,-1
54,100,1.0818181818181818,57,1,20,DL_Guitar,-1,-1
54,100,0.17727272727272728,382,1,20,DL_Guitar,-1,-1
54,100,0.1409090909090909,426,0,20,DL_Guitar,-1,-1
50,100,0.5409090909090909,559,0,20,DL_Guitar,-1,-1
57,100,0.2636363636363636,686,0,20,DL_Guitar,-1,-1
57,100,0.18181818181818182,760,0,20,DL_Guitar,-1,-1
57,100,0.23636363636363636,106,1,21,DL_Guitar,-1,-1
57,100,0.1,179,0,21,DL_Guitar,-1,-1
45,100,0.18181818181818182,202,0,21,DL_Guitar,-1,-1
45,100,0.11818181818181818,260,0,21,DL_Guitar,-1,-1
57,100,0.38181818181818183,285,0,21,DL_Guitar,-1,-1
61,100,0.21818181818181817,505,1,21,DL_Guitar,-1,-1
57,100,0.11818181818181818,590,0,21,DL_Guitar,-1,-1
40,100,0.2409090909090909,739,0,21,DL_Guitar,-1,-1
40,100,0.1,839,0,21,DL_Guitar,-1,-1
54,100,1.0772727272727274,326,1,22,DL_Guitar,-1,-1
54,100,0.2818181818181818,694,1,22,DL_Guitar,-1,-1
62,100,0.1409090909090909,791,0,22,DL_Guitar,-1,-1
50,100,0.4409090909090909,822,0,22,DL_Guitar,-1,-1
50,100,0.1409090909090909,75,1,23,DL_Guitar,-1,-1
57,100,0.1,206,0,23,DL_Guitar,-1,-1
57,100,0.35909090909090907,299,0,23,DL_Guitar,-1,-1
57,100,0.1590909090909091,382,0,23,DL_Guitar,-1,-1
52,100,0.6,546,0,23,DL_Guitar,-1,-1
52,100,0.12272727272727273,717,0,23,DL_Guitar,-1,-1
64,100,0.1409090909090909,9,1,24,DL_Guitar,-1,-1
54,100,0.4,48,0,24,DL_Guitar,-1,-1
54,100,0.2409090909090909,189,0,24,DL_Guitar,-1,-1
52,100,0.2590909090909091,308,0,24,DL_Guitar,-1,-1
40,100,0.22272727272727272,364,0,24,DL_Guitar,-1,-1
54,100,0.1409090909090909,515,0,24,DL_Guitar,-1,-1
54,100,0.7772727272727272,567,0,24,DL_Guitar,-1,-1
54,100,0.21818181818181817,748,0,24,DL_Guitar,-1,-1
54,100,0.11818181818181818,52,1,25,DL_Guitar,-1,-1
54,100,0.11818181818181818,131,0,25,DL_Guitar,-1,-1
50,100,0.5636363636363636,179,0,25,DL_Guitar,-1,-1
62,100,0.2409090909090909,316,0,25,DL_Guitar,-1,-1
62,100,0.2818181818181818,374,0,25,DL_Guitar,-1,-1
50,100,0.22272727272727272,576,1,25,DL_Guitar,-1,-1
57,100,0.11818181818181818,677,0,25,DL_Guitar,-1,-1
45,100,0.41818181818181815,704,0,25,DL_Guitar,-1,-1
61,100,0.1409090909090909,818,0,25,DL_Guitar,-1,-1
57,100,0.5363636363636364,61,1,26,DL_Guitar,-1,-1
52,100,0.35909090909090907,409,1,26,DL_Guitar,-1,-1
52,100,0.1590909090909091,515,0,26,DL_Guitar,-1,-1
52,100,0.5227272727272727,686,0,26,DL_Guitar,-1,-1
54,100,0.1409090909090909,57,1,27,DL_Guitar,-1,-1
50,100,0.4636363636363636,443,1,27,DL_Guitar,-1,-1
50,100,0.3,559,0,27,DL_Guitar,-1,-1
62,100,0.1409090909090909,625,0,27,DL_Guitar,-1,-1
62,100,0.12272727272727273,739,0,27,DL_Guitar,-1,-1
57,100,0.2590909090909091,814,0,27,DL_Guitar,-1,-1
52,100,0.8,52,1,28,DL_Guitar,-1,-1
52,100,0.42272727272727273,443,1,28,DL_Guitar,-1,-1
52,100,0.5409090909090909,686,1,28,DL_Guitar,-1,-1
52,100,0.3,13,1,29,DL_Guitar,-1,-1
52,100,0.1590909090909091,83,0,29,DL_Guitar,-1,-1
64,100,0.2,119,0,29,DL_Guitar,-1,-1
43,100,1.0227272727272727,378,1,29,DL_Guitar,-1,-1
43,100,0.1590909090909091,611,1,29,DL_Guitar,-1,-1
43,100,0.22272727272727272,650,0,29,DL_Guitar,-1,-1
57,100,0.4818181818181818,320,1,30,DL_Guitar,-1,-1
57,100,0.38181818181818183,440,0,30,DL_Guitar,-1,-1
50,100,0.2590909090909091,633,0,30,DL_Guitar,-1,-1
57,100,0.1590909090909091,770,0,30,DL_Guitar,-1,-1
57,100,0.8409090909090909,866,0,30,DL_Guitar,-1,-1
57,100,0.5181818181818182,185,1,31,DL_Guitar,-1,-1
57,100,0.5409090909090909,308,0,31,DL_Guitar,-1,-1
52,100,0.18181818181818182,453,0,31,DL_Guitar,-1,-1
52,100,0.13636363636363635,523,0,31,DL_Guitar,-1,-1
59,100,0.35909090909090907,571,0,31,DL_Guitar,-1,-1
59,100,0.2590909090909091,700,0,31,DL_Guitar,-1,-1
52,100,0.1,822,0,31,DL_Guitar,-1,-1
59,100,0.5,188,1,32,DL_Guitar,-1,-1
54,100,0.1590909090909091,426,1,32,DL_Guitar,-1,-1
54,100,0.2636363636363636,488,0,32,DL_Guitar,-1,-1
59,100,0.1,593,0,32,DL_Guitar,-1,-1
54,100,0.3409090909090909,691,0,32,DL_Guitar,-1,-1
59,100,0.4772727272727273,831,0,32,DL_Guitar,-1,-1
57,100,0.2409090909090909,118,1,33,DL_Guitar,-1,-1
52,100,0.5181818181818182,308,0,33,DL_Guitar,-1,-1
52,100,0.1590909090909091,453,0,33,DL_Guitar,-1,-1
52,100,0.2,571,0,33,DL_Guitar,-1,-1
45,100,0.2,871,1,33,DL_Guitar,-1,-1
57,100,0.2,188,1,34,DL_Guitar,-1,-1
57,100,0.22272727272727272,254,0,34,DL_Guitar,-1,-1
45,100,0.41818181818181815,325,0,34,DL_Guitar,-1,-1
52,100,0.2,480,0,34,DL_Guitar,-1,-1
57,100,1.0818181818181818,818,1,34,DL_Guitar,-1,-1
57,100,0.5590909090909091,298,1,35,DL_Guitar,-1,-1
52,100,0.3,488,0,35,DL_Guitar,-1,-1
52,100,0.5772727272727273,558,0,35,DL_Guitar,-1,-1
59,100,0.3181818181818182,735,0,35,DL_Guitar,-1,-1
52,100,0.1409090909090909,826,0,35,DL_Guitar,-1,-1
57,100,0.22272727272727272,4,1,36,DL_Guitar,-1,-1
53,100,0.4818181818181818,66,0,36,DL_Guitar,-1,-1
53,100,0.5409090909090909,179,0,36,DL_Guitar,-1,-1
59,100,0.1590909090909091,325,0,36,DL_Guitar,-1,-1
53,100,0.37727272727272726,435,0,36,DL_Guitar,-1,-1
54,100,0.42272727272727273,554,0,36,DL_Guitar,-1,-1
54,100,0.1409090909090909,813,1,36,DL_Guitar,-1,-1
54,100,0.5409090909090909,871,0,36,DL_Guitar,-1,-1
54,100,0.5409090909090909,179,1,37,DL_Guitar,-1,-1
54,100,0.5,311,0,37,DL_Guitar,-1,-1
59,100,0.13636363636363635,523,1,37,DL_Guitar,-1,-1
59,100,0.1409090909090909,584,0,37,DL_Guitar,-1,-1
57,100,0.22272727272727272,628,0,37,DL_Guitar,-1,-1
59,100,0.2,708,0,37,DL_Guitar,-1,-1
40,100,0.11818181818181818,8,1,38,DL_Guitar,-1,-1
59,100,0.2818181818181818,48,0,38,DL_Guitar,-1,-1
59,100,0.2,198,0,38,DL_Guitar,-1,-1
57,100,0.1590909090909091,260,0,38,DL_Guitar,-1,-1
45,100,0.35909090909090907,343,0,38,DL_Guitar,-1,-1
57,100,0.1590909090909091,571,1,38,DL_Guitar,-1,-1
43,100,0.1590909090909091,858,1,38,DL_Guitar,-1,-1
62,100,0.2,461,1,39,DL_Guitar,-1,-1
50,100,0.18181818181818182,506,0,39,DL_Guitar,-1,-1
50,100,0.18181818181818182,694,0,39,DL_Guitar,-1,-1
57,100,0.5590909090909091,804,0,39,DL_Guitar,-1,-1
52,100,0.8772727272727273,75,1,40,DL_Guitar,-1,-1
52,100,0.13636363636363635,413,1,40,DL_Guitar,-1,-1
52,100,0.17727272727272728,448,0,40,DL_Guitar,-1,-1
53,100,0.6,681,1,40,DL_Guitar,-1,-1
53,100,0.2636363636363636,48,1,41,DL_Guitar,-1,-1
59,100,0.18181818181818182,224,0,41,DL_Guitar,-1,-1
54,100,0.4772727272727273,316,0,41,DL_Guitar,-1,-1
59,100,0.2590909090909091,435,0,41,DL_Guitar,-1,-1
54,100,0.3,501,0,41,DL_Guitar,-1,-1
54,100,0.2409090909090909,576,0,41,DL_Guitar,-1,-1
54,100,0.2772727272727273,678,0,41,DL_Guitar,-1,-1
54,100,0.4590909090909091,813,0,41,DL_Guitar,-1,-1
59,100,0.2409090909090909,66,1,42,DL_Guitar,-1,-1
62,100,0.2,128,0,42,DL_Guitar,-1,-1
47,100,0.2,193,0,42,DL_Guitar,-1,-1
57,100,0.2,254,0,42,DL_Guitar,-1,-1
52,100,0.4818181818181818,321,0,42,DL_Guitar,-1,-1
59,100,0.2818181818181818,616,1,42,DL_Guitar,-1,-1
52,100,0.16363636363636364,708,0,42,DL_Guitar,-1,-1
52,100,0.11818181818181818,831,0,42,DL_Guitar,-1,-1
57,100,0.2818181818181818,48,1,43,DL_Guitar,-1,-1
57,100,0.5181818181818182,813,1,43,DL_Guitar,-1,-1
50,100,0.5772727272727273,53,1,44,DL_Guitar,-1,-1
44,100,0.43636363636363634,193,0,44,DL_Guitar,-1,-1
43,100,0.1409090909090909,289,0,44,DL_Guitar,-1,-1
43,100,0.9181818181818182,330,0,44,DL_Guitar,-1,-1
64,100,0.1590909090909091,721,1,44,DL_Guitar,-1,-1
64,100,0.35909090909090907,788,0,44,DL_Guitar,-1,-1
64,100,0.32272727272727275,871,0,44,DL_Guitar,-1,-1
53,100,0.12272727272727273,211,1,45,DL_Guitar,-1,-1
44,100,0.6636363636363637,378,0,45,DL_Guitar,-1,-1
54,100,0.36363636363636365,686,1,45,DL_Guitar,-1,-1
54,100,0.23636363636363636,810,0,45,DL_Guitar,-1,-1
44,100,0.11818181818181818,61,1,46,DL_Guitar,-1,-1
44,100,0.33636363636363636,105,0,46,DL_Guitar,-1,-1
62,100,0.3181818181818182,668,1,46,DL_Guitar,-1,-1
50,100,0.17727272727272728,756,0,46,DL_Guitar,-1,-1
52,100,0.2818181818181818,826,0,46,DL_Guitar,-1,-1
52,100,0.12272727272727273,13,1,47,DL_Guitar,-1,-1
52,100,0.4409090909090909,43,0,47,DL_Guitar,-1,-1
52,100,0.5818181818181818,179,0,47,DL_Guitar,-1,-1
40,100,0.4,308,0,47,DL_Guitar,-1,-1
53,100,1.240909090909091,426,0,47,DL_Guitar,-1,-1
49,100,0.7,765,1,47,DL_Guitar,-1,-1
54,100,0.42272727272727273,48,1,48,DL_Guitar,-1,-1
61,100,0.2,163,0,48,DL_Guitar,-1,-1
42,100,0.8409090909090909,220,0,48,DL_Guitar,-1,-1
61,100,0.4818181818181818,440,1,48,DL_Guitar,-1,-1
50,100,1.1409090909090909,651,1,48,DL_Guitar,-1,-1
62,100,0.4,34,1,49,DL_Guitar,-1,-1
52,100,1.3590909090909091,176,0,49,DL_Guitar,-1,-1
52,100,0.2,480,1,49,DL_Guitar,-1,-1
52,100,0.1590909090909091,638,0,49,DL_Guitar,-1,-1
53,100,1.6363636363636365,678,0,49,DL_Guitar,-1,-1
54,100,0.23636363636363636,303,1,50,DL_Guitar,-1,-1
61,100,0.2409090909090909,440,0,50,DL_Guitar,-1,-1
42,100,0.11818181818181818,545,0,50,DL_Guitar,-1,-1
61,100,0.4818181818181818,571,0,50,DL_Guitar,-1,-1
61,100,0.3,691,0,50,DL_Guitar,-1,-1
57,100,0.13636363636363635,788,0,50,DL_Guitar,-1,-1
50,100,0.1590909090909091,853,0,50,DL_Guitar,-1,-1
50,100,1.3590909090909091,21,1,51,DL_Guitar,-1,-1
52,100,0.5,431,1,51,DL_Guitar,-1,-1
52,100,0.1,545,0,51,DL_Guitar,-1,-1
52,100,0.11818181818181818,691,0,51,DL_Guitar,-1,-1
40,100,0.5181818181818182,756,0,51,DL_Guitar,-1,-1
54,100,0.1590909090909091,0,1,52,DL_Guitar,-1,-1
54,100,0.1,56,0,52,DL_Guitar,-1,-1
61,100,0.7,91,0,52,DL_Guitar,-1,-1
54,100,0.3,254,0,52,DL_Guitar,-1,-1
54,100,0.1,325,0,52,DL_Guitar,-1,-1
61,100,2.640909090909091,426,0,52,DL_Guitar,-1,-1
57,100,1.440909090909091,158,1,53,DL_Guitar,-1,-1
50,100,0.11818181818181818,568,1,53,DL_Guitar,-1,-1
52,100,2.1,681,0,53,DL_Guitar,-1,-1
52,100,0.11818181818181818,303,1,54,DL_Guitar,-1,-1
57,100,0.18181818181818182,418,1,55,DL_Guitar,-1,-1
45,100,0.23636363636363636,458,0,55,DL_Guitar,-1,-1
57,100,0.1409090909090909,518,0,55,DL_Guitar,-1,-1
57,100,0.37727272727272726,558,0,55,DL_Guitar,-1,-1
57,100,0.21818181818181817,660,0,55,DL_Guitar,-1,-1
57,100,0.38181818181818183,726,0,55,DL_Guitar,-1,-1
45,100,0.17727272727272728,128,1,56,DL_Guitar,-1,-1
50,100,0.11818181818181818,568,1,56,DL_Guitar,-1,-1
57,100,0.2409090909090909,625,0,56,DL_Guitar,-1,-1
57,100,0.4818181818181818,703,0,56,DL_Guitar,-1,-1
50,100,0.16363636363636364,818,0,56,DL_Guitar,-1,-1
57,100,0.22272727272727272,4,1,57,DL_Guitar,-1,-1
57,100,0.4,91,0,57,DL_Guitar,-1,-1
50,100,0.13636363636363635,215,0,57,DL_Guitar,-1,-1
57,100,0.4818181818181818,330,0,57,DL_Guitar,-1,-1
57,100,0.2590909090909091,453,0,57,DL_Guitar,-1,-1
50,100,0.18181818181818182,576,0,57,DL_Guitar,-1,-1
61,100,0.5,691,0,57,DL_Guitar,-1,-1
59,100,0.6,810,0,57,DL_Guitar,-1,-1
59,100,0.18181818181818182,153,1,58,DL_Guitar,-1,-1
59,100,0.1,215,0,58,DL_Guitar,-1,-1
52,100,0.4409090909090909,330,0,58,DL_Guitar,-1,-1
52,100,0.11818181818181818,536,1,58,DL_Guitar,-1,-1
40,100,0.2,593,0,58,DL_Guitar,-1,-1
61,100,0.1409090909090909,48,1,59,DL_Guitar,-1,-1
61,100,0.3,110,0,59,DL_Guitar,-1,-1
45,100,0.3409090909090909,444,1,59,DL_Guitar,-1,-1
57,100,0.1409090909090909,770,1,59,DL_Guitar,-1,-1
45,100,0.1409090909090909,69,1,60,DL_Guitar,-1,-1
57,100,0.11818181818181818,330,1,60,DL_Guitar,-1,-1
61,100,0.5636363636363636,421,0,60,DL_Guitar,-1,-1
61,100,0.3181818181818182,678,1,60,DL_Guitar,-1,-1
42,100,0.11818181818181818,396,1,61,DL_Guitar,-1,-1
57,100,0.4636363636363636,444,0,61,DL_Guitar,-1,-1
54,100,0.35909090909090907,550,0,61,DL_Guitar,-1,-1
57,100,0.13636363636363635,633,0,61,DL_Guitar,-1,-1
57,100,0.11818181818181818,316,1,62,DL_Guitar,-1,-1
57,100,0.1,471,0,62,DL_Guitar,-1,-1
57,100,0.18181818181818182,628,0,62,DL_Guitar,-1,-1
59,100,0.4590909090909091,810,0,62,DL_Guitar,-1,-1
61,100,0.13636363636363635,171,1,63,DL_Guitar,-1,-1
59,100,0.35909090909090907,316,0,63,DL_Guitar,-1,-1
57,100,0.2409090909090909,431,0,63,DL_Guitar,-1,-1
54,100,0.1,691,1,63,DL_Guitar,-1,-1
54,100,0.17727272727272728,721,0,63,DL_Guitar,-1,-1
57,100,0.12272727272727273,774,0,63,DL_Guitar,-1,-1
54,100,0.11818181818181818,813,0,63,DL_Guitar,-1,-1
54,100,0.12272727272727273,848,0,63,DL_Guitar,-1,-1
57,100,0.1590909090909091,0,1,64,DL_Guitar,-1,-1
57,100,0.7181818181818181,550,1,64,DL_Guitar,-1,-1
57,100,0.4,849,1,64,DL_Guitar,-1,-1
57,100,0.2409090909090909,66,1,65,DL_Guitar,-1,-1
50,100,0.2,119,0,65,DL_Guitar,-1,-1
59,100,0.8363636363636363,172,0,65,DL_Guitar,-1,-1
61,100,0.2409090909090909,404,1,65,DL_Guitar,-1,-1
49,100,0.3409090909090909,475,0,65,DL_Guitar,-1,-1
50,100,1.6590909090909092,700,1,65,DL_Guitar,-1,-1
50,100,0.4590909090909091,193,1,66,DL_Guitar,-1,-1
59,100,0.8590909090909091,426,1,66,DL_Guitar,-1,-1
62,100,0.12272727272727273,849,1,66,DL_Guitar,-1,-1
62,100,0.1590909090909091,0,1,67,DL_Guitar,-1,-1
64,100,0.5181818181818182,40,0,67,DL_Guitar,-1,-1
64,100,0.3409090909090909,176,0,67,DL_Guitar,-1,-1
52,100,0.37727272727272726,436,1,67,DL_Guitar,-1,-1
40,100,0.12272727272727273,519,0,67,DL_Guitar,-1,-1
52,100,0.17727272727272728,546,0,67,DL_Guitar,-1,-1
52,100,0.1590909090909091,603,0,67,DL_Guitar,-1,-1
52,100,0.13636363636363635,656,0,67,DL_Guitar,-1,-1
52,100,0.3409090909090909,690,0,67,DL_Guitar,-1,-1
40,100,0.1590909090909091,766,0,67,DL_Guitar,-1,-1
52,100,0.38181818181818183,849,0,67,DL_Guitar,-1,-1
52,100,0.2,233,1,68,DL_Guitar,-1,-1
52,100,0.37727272727272726,294,0,68,DL_Guitar,-1,-1
40,100,0.1,430,0,68,DL_Guitar,-1,-1
59,100,0.13636363636363635,457,0,68,DL_Guitar,-1,-1
57,100,0.4,189,1,69,DL_Guitar,-1,-1
52,100,0.2,686,1,69,DL_Guitar,-1,-1
52,100,0.1590909090909091,832,0,69,DL_Guitar,-1,-1
52,100,0.2590909090909091,56,1,70,DL_Guitar,-1,-1
59,100,0.1409090909090909,140,0,70,DL_Guitar,-1,-1
53,100,0.5818181818181818,307,0,70,DL_Guitar,-1,-1
53,100,0.1590909090909091,453,0,70,DL_Guitar,-1,-1
53,100,0.1409090909090909,642,0,70,DL_Guitar,-1,-1
56,100,0.11818181818181818,734,0,70,DL_Guitar,-1,-1
42,100,0.32272727272727275,826,0,70,DL_Guitar,-1,-1
61,100,0.11818181818181818,153,1,71,DL_Guitar,-1,-1
57,100,0.1590909090909091,673,1,71,DL_Guitar,-1,-1
50,100,0.11818181818181818,770,0,71,DL_Guitar,-1,-1
57,100,0.2,823,0,71,DL_Guitar,-1,-1
57,100,0.1590909090909091,9,1,72,DL_Guitar,-1,-1
59,100,1.059090909090909,193,0,72,DL_Guitar,-1,-1
57,100,0.33636363636363636,743,1,72,DL_Guitar,-1,-1
45,100,0.5227272727272727,179,1,73,DL_Guitar,-1,-1
61,100,0.11818181818181818,514,1,73,DL_Guitar,-1,-1
61,100,0.42272727272727273,585,0,73,DL_Guitar,-1,-1
57,100,0.3409090909090909,870,1,73,DL_Guitar,-1,-1
57,100,0.21818181818181817,132,1,74,DL_Guitar,-1,-1
57,100,0.2772727272727273,237,0,74,DL_Guitar,-1,-1
40,100,0.1,392,0,74,DL_Guitar,-1,-1
52,100,0.2590909090909091,559,0,74,DL_Guitar,-1,-1
52,100,0.18181818181818182,619,0,74,DL_Guitar,-1,-1
64,100,0.18181818181818182,682,0,74,DL_Guitar,-1,-1
59,100,0.2818181818181818,726,0,74,DL_Guitar,-1,-1
61,100,0.1,17,1,75,DL_Guitar,-1,-1
53,100,1.1409090909090909,47,0,75,DL_Guitar,-1,-1
61,100,0.6409090909090909,316,1,75,DL_Guitar,-1,-1
42,100,0.4,457,0,75,DL_Guitar,-1,-1
61,100,0.12272727272727273,606,0,75,DL_Guitar,-1,-1
42,100,0.17727272727272728,633,0,75,DL_Guitar,-1,-1
61,100,0.3,739,0,75,DL_Guitar,-1,-1
59,100,0.17727272727272728,9,1,76,DL_Guitar,-1,-1
47,100,0.5818181818181818,47,0,76,DL_Guitar,-1,-1
47,100,0.42272727272727273,267,1,76,DL_Guitar,-1,-1
52,100,0.18181818181818182,550,1,76,DL_Guitar,-1,-1
40,100,0.35909090909090907,603,0,76,DL_Guitar,-1,-1
40,100,0.2,695,0,76,DL_Guitar,-1,-1
52,100,0.1409090909090909,739,0,76,DL_Guitar,-1,-1
52,100,0.16363636363636364,773,0,76,DL_Guitar,-1,-1
59,100,0.21818181818181817,813,0,76,DL_Guitar,-1,-1
40,100,0.17727272727272728,127,1,77,DL_Guitar,-1,-1
59,100,0.3,176,0,77,DL_Guitar,-1,-1
59,100,0.5590909090909091,307,0,77,DL_Guitar,-1,-1
64,100,0.18181818181818182,440,0,77,DL_Guitar,-1,-1
59,100,0.17727272727272728,502,0,77,DL_Guitar,-1,-1
59,100,0.4409090909090909,559,0,77,DL_Guitar,-1,-1
45,100,0.1590909090909091,110,1,78,DL_Guitar,-1,-1
57,100,0.3,289,0,78,DL_Guitar,-1,-1
59,100,0.2,246,1,80,DL_Guitar,-1,-1
59,100,0.17727272727272728,294,0,80,DL_Guitar,-1,-1
59,100,0.2,496,1,80,DL_Guitar,-1,-1
45,100,0.5227272727272727,553,0,80,DL_Guitar,-1,-1
52,100,0.2772727272727273,722,0,80,DL_Guitar,-1,-1
52,100,0.6227272727272727,47,1,81,DL_Guitar,-1,-1
61,100,1.7818181818181817,263,1,81,DL_Guitar,-1,-1
50,100,0.12272727272727273,862,1,81,DL_Guitar,-1,-1
57,100,0.2590909090909091,127,1,82,DL_Guitar,-1,-1
57,100,0.2409090909090909,263,0,82,DL_Guitar,-1,-1
57,100,0.1,320,0,82,DL_Guitar,-1,-1
57,100,0.759090909090909,440,0,82,DL_Guitar,-1,-1
50,100,0.18181818181818182,642,1,82,DL_Guitar,-1,-1
57,100,0.12272727272727273,13,1,83,DL_Guitar,-1,-1
57,100,0.2,303,1,83,DL_Guitar,-1,-1
52,100,0.1,857,1,83,DL_Guitar,-1,-1
42,100,0.1,56,1,84,DL_Guitar,-1,-1
42,100,0.41818181818181815,83,0,84,DL_Guitar,-1,-1
61,100,0.3,197,0,84,DL_Guitar,-1,-1
42,100,0.13636363636363635,303,0,84,DL_Guitar,-1,-1
61,100,1.0,347,0,84,DL_Guitar,-1,-1
42,100,0.4772727272727273,567,1,84,DL_Guitar,-1,-1
61,100,0.5227272727272727,707,0,84,DL_Guitar,-1,-1
61,100,0.38181818181818183,836,0,84,DL_Guitar,-1,-1
52,100,0.4818181818181818,166,1,85,DL_Guitar,-1,-1
52,100,0.6,286,0,85,DL_Guitar,-1,-1
52,100,0.3,422,0,85,DL_Guitar,-1,-1
52,100,0.35909090909090907,603,0,85,DL_Guitar,-1,-1
59,100,0.32272727272727275,729,0,85,DL_Guitar,-1,-1
59,100,0.18181818181818182,817,0,85,DL_Guitar,-1,-1
40,100,0.2,9,1,86,DL_Guitar,-1,-1
40,100,0.18181818181818182,66,0,86,DL_Guitar,-1,-1
64,100,0.2409090909090909,113,0,86,DL_Guitar,-1,-1
59,100,0.42272727272727273,202,0,86,DL_Guitar,-1,-1
57,100,0.1409090909090909,493,1,86,DL_Guitar,-1,-1
57,100,0.35909090909090907,527,0,86,DL_Guitar,-1,-1
57,100,0.2772727272727273,624,0,86,DL_Guitar,-1,-1
57,100,1.1590909090909092,813,0,86,DL_Guitar,-1,-1
57,100,0.2409090909090909,250,1,87,DL_Guitar,-1,-1
50,100,0.2,316,0,87,DL_Guitar,-1,-1
45,100,0.4,436,0,87,DL_Guitar,-1,-1
47,100,0.36363636363636365,729,1,88,DL_Guitar,-1,-1
47,100,0.7227272727272728,13,1,89,DL_Guitar,-1,-1
47,100,0.2,360,1,89,DL_Guitar,-1,-1
47,100,0.16363636363636364,509,0,89,DL_Guitar,-1,-1
59,100,0.1409090909090909,506,1,90,DL_Guitar,-1,-1
59,100,0.1,646,0,90,DL_Guitar,-1,-1
59,100,0.4590909090909091,823,0,90,DL_Guitar,-1,-1
59,100,0.5,79,1,91,DL_Guitar,-1,-1
40,100,0.12272727272727273,267,0,91,DL_Guitar,-1,-1
52,100,0.17727272727272728,316,0,91,DL_Guitar,-1,-1
40,100,0.1409090909090909,386,0,91,DL_Guitar,-1,-1
40,100,0.17727272727272728,502,0,91,DL_Guitar,-1,-1
40,100,0.17727272727272728,756,1,91,DL_Guitar,-1,-1
52,100,0.4,817,0,91,DL_Guitar,-1,-1
57,100,0.22272727272727272,100,1,92,DL_Guitar,-1,-1
55,100,0.11818181818181818,426,1,92,DL_Guitar,-1,-1
55,100,0.11818181818181818,480,0,92,DL_Guitar,-1,-1
56,100,0.1409090909090909,506,0,92,DL_Guitar,-1,-1
52,100,0.4,572,0,92,DL_Guitar,-1,-1
59,100,0.32272727272727275,707,0,92,DL_Guitar,-1,-1
40,100,0.2818181818181818,805,0,92,DL_Guitar,-1,-1
64,100,0.16363636363636364,3,1,93,DL_Guitar,-1,-1
59,100,0.11818181818181818,150,0,93,DL_Guitar,-1,-1
47,100,0.4,206,0,93,DL_Guitar,-1,-1
57,100,0.5181818181818182,844,1,93,DL_Guitar,-1,-1
59,100,0.3181818181818182,813,1,94,DL_Guitar,-1,-1
59,100,0.32272727272727275,92,1,95,DL_Guitar,-1,-1
40,100,0.2772727272727273,163,0,95,DL_Guitar,-1,-1
59,100,0.1409090909090909,223,0,95,DL_Guitar,-1,-1
47,100,0.41818181818181815,457,1,95,DL_Guitar,-1,-1
47,100,0.4590909090909091,624,0,95,DL_Guitar,-1,-1
54,100,0.1590909090909091,53,1,96,DL_Guitar,-1,-1
57,100,0.6181818181818182,734,1,96,DL_Guitar,-1,-1
57,100,0.21818181818181817,0,1,97,DL_Guitar,-1,-1
43,100,0.2590909090909091,119,0,97,DL_Guitar,-1,-1
59,100,0.4818181818181818,189,0,97,DL_Guitar,-1,-1
40,100,0.4,399,1,97,DL_Guitar,-1,-1
64,100,0.11818181818181818,493,0,97,DL_Guitar,-1,-1
57,100,0.8409090909090909,823,1,97,DL_Guitar,-1,-1
57,100,0.12272727272727273,157,1,98,DL_Guitar,-1,-1
45,100,0.1590909090909091,255,0,98,DL_Guitar,-1,-1
45,100,0.2409090909090909,377,0,98,DL_Guitar,-1,-1
45,100,1.8227272727272728,496,0,98,DL_Guitar,-1,-1
45,100,3.040909090909091,22,1,99,DL_Guitar,-1,-1
57,100,0.2409090909090909,443,1,100,DL_Guitar,-1,-1
57,100,0.2409090909090909,563,0,100,DL_Guitar,-1,-1
57,100,0.2,633,0,100,DL_Guitar,-1,-1
59,100,0.5590909090909091,810,0,100,DL_Guitar,-1,-1
59,100,0.11818181818181818,83,1,101,DL_Guitar,-1,-1
59,100,0.4,153,0,101,DL_Guitar,-1,-1
59,100,0.2,260,0,101,DL_Guitar,-1,-1
59,100,0.5227272727272727,430,0,101,DL_Guitar,-1,-1
53,100,0.3,677,1,101,DL_Guitar,-1,-1
59,100,0.2,756,0,101,DL_Guitar,-1,-1
42,100,0.32272727272727275,100,1,102,DL_Guitar,-1,-1
57,100,0.4772727272727273,193,0,102,DL_Guitar,-1,-1
45,100,0.1,576,1,102,DL_Guitar,-1,-1
57,100,0.18181818181818182,597,0,102,DL_Guitar,-1,-1
57,100,0.4636363636363636,707,0,102,DL_Guitar,-1,-1
57,100,0.1,839,0,102,DL_Guitar,-1,-1
57,100,0.12272727272727273,35,1,103,DL_Guitar,-1,-1
59,100,0.5181818181818182,184,0,103,DL_Guitar,-1,-1
59,100,0.7227272727272728,312,0,103,DL_Guitar,-1,-1
52,100,0.13636363636363635,502,0,103,DL_Guitar,-1,-1
45,100,0.32272727272727275,686,0,103,DL_Guitar,-1,-1
45,100,0.1590909090909091,770,0,103,DL_Guitar,-1,-1
45,100,0.11818181818181818,853,0,103,DL_Guitar,-1,-1
45,100,0.2,127,1,104,DL_Guitar,-1,-1
57,100,0.1,282,0,104,DL_Guitar,-1,-1
57,100,0.18181818181818182,466,0,104,DL_Guitar,-1,-1
57,100,0.1,514,0,104,DL_Guitar,-1,-1
57,100,0.2590909090909091,540,0,104,DL_Guitar,-1,-1
57,100,0.11818181818181818,616,0,104,DL_Guitar,-1,-1
57,100,0.2409090909090909,682,0,104,DL_Guitar,-1,-1
57,100,0.1,743,0,104,DL_Guitar,-1,-1
57,100,0.1590909090909091,770,0,104,DL_Guitar,-1,-1
57,100,0.1,813,0,104,DL_Guitar,-1,-1
57,100,0.11818181818181818,9,1,105,DL_Guitar,-1,-1
64,100,0.3409090909090909,79,1,0,_Remastered_Guitar,-1,-1
64,100,0.2772727272727273,590,1,2,_Remastered_Guitar,-1,-1
64,100,0.36363636363636365,4,1,51,_Remastered_Guitar,-1,-1
57,100,0.3409090909090909,751,1,60,_Remastered_Guitar,-1,-1
54,100,0.2,836,0,60,_Remastered_Guitar,-1,-1
43,100,0.11818181818181818,844,1,89,_Remastered_Guitar,-1,-1
43,100,0.1590909090909091,0,1,90,_Remastered_Guitar,-1,-1
43,100,0.1,773,1,90,_Remastered_Guitar,-1,-1
43,100,0.1409090909090909,817,0,90,_Remastered_Guitar,-1,-1
43,100,0.13636363636363635,853,0,90,_Remastered_Guitar,-1,-1
43,100,0.2,603,1,93,_Remastered_Guitar,-1,-1
43,100,0.1409090909090909,593,1,94,_Remastered_Guitar,-1,-1
43,100,0.21818181818181817,426,1,95,_Remastered_Guitar,-1,-1
43,100,0.12272727272727273,585,0,95,_Remastered_Guitar,-1,-1
43,100,0.12272727272727273,642,0,95,_Remastered_Guitar,-1,-1
43,100,0.2409090909090909,43,1,96,_Remastered_Guitar,-1,-1
43,100,0.1,233,0,96,_Remastered_Guitar,-1,-1
43,100,0.21818181818181817,392,0,96,_Remastered_Guitar,-1,-1
43,100,0.2,572,0,96,_Remastered_Guitar,-1,-1
43,100,0.1590909090909091,779,1,96,_Remastered_Guitar,-1,-1
43,100,0.11818181818181818,832,0,96,_Remastered_Guitar,-1,-1
64,100,0.3409090909090909,56,1,97,_Remastered_Guitar,-1,-1
64,100,0.3,563,1,99,_Remastered_Guitar,-1,-1
43,100,0.1,536,1,102,_Remastered_Guitar,-1,-1
43,100,0.12272727272727273,585,0,102,_Remastered_Guitar,-1,-1
43,100,0.1409090909090909,726,0,102,_Remastered_Guitar,-1,-1
43,100,0.1409090909090909,800,0,102,_Remastered_Guitar,-1,-1
43,100,0.12272727272727273,839,0,102,_Remastered_Guitar,-1,-1
52,100,0.37727272727272726,414,1,0,Dl_Nostalgic_2_Guitar,-1,-1
54,100,0.3181818181818182,502,0,0,Dl_Nostalgic_2_Guitar,-1,-1
57,100,0.2818181818181818,585,0,0,Dl_Nostalgic_2_Guitar,-1,-1
45,100,0.4409090909090909,664,0,0,Dl_Nostalgic_2_Guitar,-1,-1
45,100,0.4772727272727273,788,0,0,Dl_Nostalgic_2_Guitar,-1,-1
61,100,0.2,157,1,1,Dl_Nostalgic_2_Guitar,-1,-1
61,100,0.17727272727272728,206,0,1,Dl_Nostalgic_2_Guitar,-1,-1
45,100,0.33636363636363636,348,0,1,Dl_Nostalgic_2_Guitar,-1,-1
45,100,0.1409090909090909,559,1,1,Dl_Nostalgic_2_Guitar,-1,-1
45,100,0.2409090909090909,603,0,1,Dl_Nostalgic_2_Guitar,-1,-1
52,100,0.2,752,0,1,Dl_Nostalgic_2_Guitar,-1,-1
45,100,0.2772727272727273,30,1,2,Dl_Nostalgic_2_Guitar,-1,-1
61,100,0.1409090909090909,220,0,2,Dl_Nostalgic_2_Guitar,-1,-1
52,100,0.12272727272727273,342,0,2,Dl_Nostalgic_2_Guitar,-1,-1
61,100,0.2,440,0,2,Dl_Nostalgic_2_Guitar,-1,-1
47,100,0.2,761,1,2,Dl_Nostalgic_2_Guitar,-1,-1
54,100,1.1590909090909092,804,0,2,Dl_Nostalgic_2_Guitar,-1,-1
54,100,0.2409090909090909,421,1,3,Dl_Nostalgic_2_Guitar,-1,-1
49,100,0.4818181818181818,483,0,3,Dl_Nostalgic_2_Guitar,-1,-1
49,100,0.22272727272727272,598,0,3,Dl_Nostalgic_2_Guitar,-1,-1
54,100,0.21818181818181817,703,0,3,Dl_Nostalgic_2_Guitar,-1,-1
49,100,0.2409090909090909,757,0,3,Dl_Nostalgic_2_Guitar,-1,-1
54,100,0.12272727272727273,48,1,4,Dl_Nostalgic_2_Guitar,-1,-1
49,100,0.32272727272727275,342,1,4,Dl_Nostalgic_2_Guitar,-1,-1
54,100,0.4,435,0,4,Dl_Nostalgic_2_Guitar,-1,-1
57,100,0.17727272727272728,524,0,4,Dl_Nostalgic_2_Guitar,-1,-1
57,100,0.2409090909090909,606,0,4,Dl_Nostalgic_2_Guitar,-1,-1
57,100,0.21818181818181817,691,0,4,Dl_Nostalgic_2_Guitar,-1,-1
57,100,0.1409090909090909,813,0,4,Dl_Nostalgic_2_Guitar,-1,-1
52,100,0.1409090909090909,8,1,5,Dl_Nostalgic_2_Guitar,-1,-1
50,100,1.0,118,0,5,Dl_Nostalgic_2_Guitar,-1,-1
57,100,0.2409090909090909,338,1,5,Dl_Nostalgic_2_Guitar,-1,-1
50,100,0.11818181818181818,396,0,5,Dl_Nostalgic_2_Guitar,-1,-1
50,100,0.5818181818181818,488,0,5,Dl_Nostalgic_2_Guitar,-1,-1
50,100,0.6590909090909091,660,0,5,Dl_Nostalgic_2_Guitar,-1,-1
57,100,0.2772727272727273,810,0,5,Dl_Nostalgic_2_Guitar,-1,-1
57,100,0.16363636363636364,4,1,6,Dl_Nostalgic_2_Guitar,-1,-1
50,100,0.3181818181818182,40,0,6,Dl_Nostalgic_2_Guitar,-1,-1
49,100,1.059090909090909,176,0,6,Dl_Nostalgic_2_Guitar,-1,-1
49,100,0.8409090909090909,475,1,6,Dl_Nostalgic_2_Guitar,-1,-1
49,100,1.0,668,0,6,Dl_Nostalgic_2_Guitar,-1,-1
57,100,0.1590909090909091,74,1,7,Dl_Nostalgic_2_Guitar,-1,-1
61,100,0.22272727272727272,158,0,7,Dl_Nostalgic_2_Guitar,-1,-1
47,100,0.11818181818181818,242,0,7,Dl_Nostalgic_2_Guitar,-1,-1
47,100,0.7,342,0,7,Dl_Nostalgic_2_Guitar,-1,-1
47,100,0.2409090909090909,562,1,7,Dl_Nostalgic_2_Guitar,-1,-1
47,100,0.4636363636363636,619,0,7,Dl_Nostalgic_2_Guitar,-1,-1
54,100,0.9409090909090909,761,0,7,Dl_Nostalgic_2_Guitar,-1,-1
57,100,0.2,110,1,8,Dl_Nostalgic_2_Guitar,-1,-1
54,100,0.2,154,0,8,Dl_Nostalgic_2_Guitar,-1,-1
52,100,0.13636363636363635,326,0,8,Dl_Nostalgic_2_Guitar,-1,-1
52,100,0.8636363636363636,378,0,8,Dl_Nostalgic_2_Guitar,-1,-1
54,100,0.1590909090909091,625,1,8,Dl_Nostalgic_2_Guitar,-1,-1
52,100,0.9,792,0,8,Dl_Nostalgic_2_Guitar,-1,-1
64,100,0.22272727272727272,123,1,9,Dl_Nostalgic_2_Guitar,-1,-1
57,100,0.1409090909090909,202,0,9,Dl_Nostalgic_2_Guitar,-1,-1
52,100,0.2,259,0,9,Dl_Nostalgic_2_Guitar,-1,-1
59,100,0.33636363636363636,326,0,9,Dl_Nostalgic_2_Guitar,-1,-1
57,100,1.1818181818181819,400,0,9,Dl_Nostalgic_2_Guitar,-1,-1
57,100,0.22272727272727272,761,1,9,Dl_Nostalgic_2_Guitar,-1,-1
57,100,0.12272727272727273,25,1,10,Dl_Nostalgic_2_Guitar,-1,-1
57,100,0.6409090909090909,276,1,10,Dl_Nostalgic_2_Guitar,-1,-1
57,100,0.1,470,0,10,Dl_Nostalgic_2_Guitar,-1,-1
57,100,0.740909090909091,735,1,10,Dl_Nostalgic_2_Guitar,-1,-1
57,100,0.2590909090909091,233,1,11,Dl_Nostalgic_2_Guitar,-1,-1
57,100,0.5,295,0,11,Dl_Nostalgic_2_Guitar,-1,-1
57,100,0.5363636363636364,414,0,11,Dl_Nostalgic_2_Guitar,-1,-1
54,100,1.240909090909091,541,0,11,Dl_Nostalgic_2_Guitar,-1,-1
57,100,0.2818181818181818,818,1,11,Dl_Nostalgic_2_Guitar,-1,-1
42,100,0.2,22,1,12,Dl_Nostalgic_2_Guitar,-1,-1
54,100,0.4,175,0,12,Dl_Nostalgic_2_Guitar,-1,-1
54,100,0.1,268,0,12,Dl_Nostalgic_2_Guitar,-1,-1
57,100,0.4590909090909091,414,0,12,Dl_Nostalgic_2_Guitar,-1,-1
61,100,0.17727272727272728,536,0,12,Dl_Nostalgic_2_Guitar,-1,-1
54,100,0.5409090909090909,660,0,12,Dl_Nostalgic_2_Guitar,-1,-1
57,100,0.1,809,0,12,Dl_Nostalgic_2_Guitar,-1,-1
57,100,0.1590909090909091,13,1,13,Dl_Nostalgic_2_Guitar,-1,-1
57,100,0.2636363636363636,290,1,13,Dl_Nostalgic_2_Guitar,-1,-1
57,100,0.6818181818181818,527,1,13,Dl_Nostalgic_2_Guitar,-1,-1
50,100,0.4,721,0,13,Dl_Nostalgic_2_Guitar,-1,-1
50,100,0.35909090909090907,13,1,14,Dl_Nostalgic_2_Guitar,-1,-1
57,100,0.3409090909090909,96,0,14,Dl_Nostalgic_2_Guitar,-1,-1
50,100,0.6590909090909091,189,0,14,Dl_Nostalgic_2_Guitar,-1,-1
50,100,0.12272727272727273,343,0,14,Dl_Nostalgic_2_Guitar,-1,-1
50,100,0.2636363636363636,378,0,14,Dl_Nostalgic_2_Guitar,-1,-1
50,100,0.2590909090909091,448,0,14,Dl_Nostalgic_2_Guitar,-1,-1
57,100,0.8363636363636363,567,0,14,Dl_Nostalgic_2_Guitar,-1,-1
57,100,0.35909090909090907,171,1,15,Dl_Nostalgic_2_Guitar,-1,-1
57,100,0.2590909090909091,254,0,15,Dl_Nostalgic_2_Guitar,-1,-1
57,100,0.38181818181818183,321,0,15,Dl_Nostalgic_2_Guitar,-1,-1
57,100,0.1409090909090909,558,1,15,Dl_Nostalgic_2_Guitar,-1,-1
57,100,0.42272727272727273,651,0,15,Dl_Nostalgic_2_Guitar,-1,-1
57,100,0.38181818181818183,804,0,15,Dl_Nostalgic_2_Guitar,-1,-1
57,100,0.1,100,1,16,Dl_Nostalgic_2_Guitar,-1,-1
57,100,0.38181818181818183,254,0,16,Dl_Nostalgic_2_Guitar,-1,-1
57,100,0.21818181818181817,347,0,16,Dl_Nostalgic_2_Guitar,-1,-1
57,100,0.3,426,0,16,Dl_Nostalgic_2_Guitar,-1,-1
57,100,0.2818181818181818,550,0,16,Dl_Nostalgic_2_Guitar,-1,-1
57,100,0.6409090909090909,729,0,16,Dl_Nostalgic_2_Guitar,-1,-1
57,100,1.3818181818181818,3,1,17,Dl_Nostalgic_2_Guitar,-1,-1
57,100,0.5590909090909091,326,1,17,Dl_Nostalgic_2_Guitar,-1,-1
57,100,0.4590909090909091,457,0,17,Dl_Nostalgic_2_Guitar,-1,-1
57,100,0.2409090909090909,594,0,17,Dl_Nostalgic_2_Guitar,-1,-1
57,100,0.1409090909090909,660,0,17,Dl_Nostalgic_2_Guitar,-1,-1
57,100,0.2,700,0,17,Dl_Nostalgic_2_Guitar,-1,-1
57,100,0.38181818181818183,804,0,17,Dl_Nostalgic_2_Guitar,-1,-1
57,100,0.5,52,1,18,Dl_Nostalgic_2_Guitar,-1,-1
52,100,0.3409090909090909,185,0,18,Dl_Nostalgic_2_Guitar,-1,-1
57,100,0.3409090909090909,409,1,18,Dl_Nostalgic_2_Guitar,-1,-1
47,100,0.2,619,1,18,Dl_Nostalgic_2_Guitar,-1,-1
47,100,0.3,712,0,18,Dl_Nostalgic_2_Guitar,-1,-1
47,100,0.2772727272727273,822,0,18,Dl_Nostalgic_2_Guitar,-1,-1
59,100,0.22272727272727272,3,1,19,Dl_Nostalgic_2_Guitar,-1,-1
64,100,0.2818181818181818,110,0,19,Dl_Nostalgic_2_Guitar,-1,-1
61,100,0.2590909090909091,189,0,19,Dl_Nostalgic_2_Guitar,-1,-1
50,100,0.35909090909090907,351,0,19,Dl_Nostalgic_2_Guitar,-1,-1
50,100,0.1409090909090909,440,0,19,Dl_Nostalgic_2_Guitar,-1,-1
50,100,0.2772727272727273,581,0,19,Dl_Nostalgic_2_Guitar,-1,-1
61,100,0.2409090909090909,673,0,19,Dl_Nostalgic_2_Guitar,-1,-1
59,100,0.2,752,0,19,Dl_Nostalgic_2_Guitar,-1,-1
59,100,0.9,814,0,19,Dl_Nostalgic_2_Guitar,-1,-1
59,100,0.1409090909090909,136,1,20,Dl_Nostalgic_2_Guitar,-1,-1
59,100,0.21818181818181817,175,0,20,Dl_Nostalgic_2_Guitar,-1,-1
64,100,0.1409090909090909,295,0,20,Dl_Nostalgic_2_Guitar,-1,-1
61,100,0.2409090909090909,409,0,20,Dl_Nostalgic_2_Guitar,-1,-1
64,100,0.18181818181818182,488,0,20,Dl_Nostalgic_2_Guitar,-1,-1
61,100,0.3,638,0,20,Dl_Nostalgic_2_Guitar,-1,-1
61,100,0.2590909090909091,756,0,20,Dl_Nostalgic_2_Guitar,-1,-1
61,100,0.2772727272727273,866,0,20,Dl_Nostalgic_2_Guitar,-1,-1
61,100,0.3181818181818182,162,1,21,Dl_Nostalgic_2_Guitar,-1,-1
45,100,0.12272727272727273,246,0,21,Dl_Nostalgic_2_Guitar,-1,-1
61,100,0.35909090909090907,330,0,21,Dl_Nostalgic_2_Guitar,-1,-1
61,100,0.4818181818181818,430,0,21,Dl_Nostalgic_2_Guitar,-1,-1
50,100,0.1,540,0,21,Dl_Nostalgic_2_Guitar,-1,-1
61,100,0.1590909090909091,611,0,21,Dl_Nostalgic_2_Guitar,-1,-1
61,100,0.43636363636363634,656,0,21,Dl_Nostalgic_2_Guitar,-1,-1
61,100,0.37727272727272726,810,0,21,Dl_Nostalgic_2_Guitar,-1,-1
40,100,0.1,65,1,22,Dl_Nostalgic_2_Guitar,-1,-1
40,100,0.18181818181818182,123,0,22,Dl_Nostalgic_2_Guitar,-1,-1
52,100,0.1409090909090909,220,0,22,Dl_Nostalgic_2_Guitar,-1,-1
40,100,0.4590909090909091,308,0,22,Dl_Nostalgic_2_Guitar,-1,-1
45,100,0.1590909090909091,590,1,22,Dl_Nostalgic_2_Guitar,-1,-1
57,100,0.11818181818181818,748,0,22,Dl_Nostalgic_2_Guitar,-1,-1
52,100,0.1,21,1,23,Dl_Nostalgic_2_Guitar,-1,-1
45,100,0.2409090909090909,202,0,23,Dl_Nostalgic_2_Guitar,-1,-1
61,100,0.759090909090909,339,0,23,Dl_Nostalgic_2_Guitar,-1,-1
62,100,0.3,584,1,23,Dl_Nostalgic_2_Guitar,-1,-1
62,100,0.8590909090909091,673,0,23,Dl_Nostalgic_2_Guitar,-1,-1
62,100,0.1409090909090909,870,0,23,Dl_Nostalgic_2_Guitar,-1,-1
62,100,0.12272727272727273,144,1,24,Dl_Nostalgic_2_Guitar,-1,-1
47,100,0.22272727272727272,254,0,24,Dl_Nostalgic_2_Guitar,-1,-1
59,100,0.1590909090909091,320,0,24,Dl_Nostalgic_2_Guitar,-1,-1
59,100,0.6,436,0,24,Dl_Nostalgic_2_Guitar,-1,-1
61,100,0.4,717,1,24,Dl_Nostalgic_2_Guitar,-1,-1
57,100,0.4590909090909091,30,1,25,Dl_Nostalgic_2_Guitar,-1,-1
58,100,0.2818181818181818,179,0,25,Dl_Nostalgic_2_Guitar,-1,-1
61,100,0.21818181818181817,339,0,25,Dl_Nostalgic_2_Guitar,-1,-1
62,100,0.6181818181818182,756,1,25,Dl_Nostalgic_2_Guitar,-1,-1
57,100,0.12272727272727273,48,1,26,Dl_Nostalgic_2_Guitar,-1,-1
62,100,0.2,100,0,26,Dl_Nostalgic_2_Guitar,-1,-1
57,100,0.6181818181818182,150,0,26,Dl_Nostalgic_2_Guitar,-1,-1
47,100,0.7,333,0,26,Dl_Nostalgic_2_Guitar,-1,-1
59,100,0.1590909090909091,656,1,26,Dl_Nostalgic_2_Guitar,-1,-1
59,100,0.12272727272727273,708,0,26,Dl_Nostalgic_2_Guitar,-1,-1
57,100,0.1590909090909091,822,0,26,Dl_Nostalgic_2_Guitar,-1,-1
45,100,0.4,858,0,26,Dl_Nostalgic_2_Guitar,-1,-1
61,100,0.3409090909090909,92,1,27,Dl_Nostalgic_2_Guitar,-1,-1
61,100,0.3,316,1,27,Dl_Nostalgic_2_Guitar,-1,-1
52,100,0.4,488,0,27,Dl_Nostalgic_2_Guitar,-1,-1
52,100,0.11818181818181818,602,0,27,Dl_Nostalgic_2_Guitar,-1,-1
61,100,0.2590909090909091,700,0,27,Dl_Nostalgic_2_Guitar,-1,-1
64,100,0.12272727272727273,862,0,27,Dl_Nostalgic_2_Guitar,-1,-1
61,100,0.11818181818181818,9,1,28,Dl_Nostalgic_2_Guitar,-1,-1
61,100,0.1409090909090909,44,0,28,Dl_Nostalgic_2_Guitar,-1,-1
57,100,0.3181818181818182,281,1,28,Dl_Nostalgic_2_Guitar,-1,-1
57,100,0.2409090909090909,387,0,28,Dl_Nostalgic_2_Guitar,-1,-1
45,100,0.2818181818181818,440,0,28,Dl_Nostalgic_2_Guitar,-1,-1
45,100,0.38181818181818183,550,0,28,Dl_Nostalgic_2_Guitar,-1,-1
61,100,0.1590909090909091,691,0,28,Dl_Nostalgic_2_Guitar,-1,-1
57,100,0.5409090909090909,791,0,28,Dl_Nostalgic_2_Guitar,-1,-1
45,100,0.12272727272727273,57,1,29,Dl_Nostalgic_2_Guitar,-1,-1
61,100,0.2409090909090909,123,0,29,Dl_Nostalgic_2_Guitar,-1,-1
52,100,0.11818181818181818,501,1,29,Dl_Nostalgic_2_Guitar,-1,-1
49,100,0.1,633,0,29,Dl_Nostalgic_2_Guitar,-1,-1
57,100,0.1409090909090909,167,1,30,Dl_Nostalgic_2_Guitar,-1,-1
57,100,0.2,202,0,30,Dl_Nostalgic_2_Guitar,-1,-1
49,100,0.32272727272727275,333,0,30,Dl_Nostalgic_2_Guitar,-1,-1
57,100,0.1409090909090909,466,0,30,Dl_Nostalgic_2_Guitar,-1,-1
49,100,0.3,646,0,30,Dl_Nostalgic_2_Guitar,-1,-1
49,100,0.1,743,0,30,Dl_Nostalgic_2_Guitar,-1,-1
49,100,0.5,770,0,30,Dl_Nostalgic_2_Guitar,-1,-1
57,100,0.1409090909090909,48,1,31,Dl_Nostalgic_2_Guitar,-1,-1
49,100,0.1590909090909091,106,0,31,Dl_Nostalgic_2_Guitar,-1,-1
49,100,0.3181818181818182,185,0,31,Dl_Nostalgic_2_Guitar,-1,-1
49,100,0.35909090909090907,326,0,31,Dl_Nostalgic_2_Guitar,-1,-1
61,100,0.1409090909090909,532,1,31,Dl_Nostalgic_2_Guitar,-1,-1
61,100,0.17727272727272728,567,0,31,Dl_Nostalgic_2_Guitar,-1,-1
61,100,0.1,646,0,31,Dl_Nostalgic_2_Guitar,-1,-1
49,100,0.2590909090909091,760,0,31,Dl_Nostalgic_2_Guitar,-1,-1
42,100,0.18181818181818182,26,1,32,Dl_Nostalgic_2_Guitar,-1,-1
49,100,0.3181818181818182,193,0,32,Dl_Nostalgic_2_Guitar,-1,-1
57,100,0.7227272727272728,334,0,32,Dl_Nostalgic_2_Guitar,-1,-1
57,100,1.8227272727272728,651,1,32,Dl_Nostalgic_2_Guitar,-1,-1
57,100,0.9181818181818182,215,1,33,Dl_Nostalgic_2_Guitar,-1,-1
57,100,0.6227272727272727,509,1,33,Dl_Nostalgic_2_Guitar,-1,-1
57,100,0.33636363636363636,655,0,33,Dl_Nostalgic_2_Guitar,-1,-1
64,100,0.2,765,0,33,Dl_Nostalgic_2_Guitar,-1,-1
61,100,0.11818181818181818,0,1,34,Dl_Nostalgic_2_Guitar,-1,-1
49,100,0.21818181818181817,198,1,34,Dl_Nostalgic_2_Guitar,-1,-1
57,100,1.018181818181818,263,0,34,Dl_Nostalgic_2_Guitar,-1,-1
54,100,0.2409090909090909,496,1,34,Dl_Nostalgic_2_Guitar,-1,-1
54,100,0.12272727272727273,619,0,34,Dl_Nostalgic_2_Guitar,-1,-1
54,100,0.2409090909090909,804,0,34,Dl_Nostalgic_2_Guitar,-1,-1
54,100,0.3409090909090909,21,1,35,Dl_Nostalgic_2_Guitar,-1,-1
54,100,0.42272727272727273,399,1,35,Dl_Nostalgic_2_Guitar,-1,-1
54,100,0.11818181818181818,506,0,35,Dl_Nostalgic_2_Guitar,-1,-1
52,100,0.4,576,0,35,Dl_Nostalgic_2_Guitar,-1,-1
61,100,0.16363636363636364,664,0,35,Dl_Nostalgic_2_Guitar,-1,-1
52,100,0.3409090909090909,729,0,35,Dl_Nostalgic_2_Guitar,-1,-1
52,100,0.2590909090909091,810,0,35,Dl_Nostalgic_2_Guitar,-1,-1
52,100,0.4,8,1,36,Dl_Nostalgic_2_Guitar,-1,-1
61,100,0.21818181818181817,96,0,36,Dl_Nostalgic_2_Guitar,-1,-1
52,100,0.2,185,0,36,Dl_Nostalgic_2_Guitar,-1,-1
40,100,0.11818181818181818,260,0,36,Dl_Nostalgic_2_Guitar,-1,-1
52,100,0.3181818181818182,308,0,36,Dl_Nostalgic_2_Guitar,-1,-1
57,100,0.1409090909090909,421,0,36,Dl_Nostalgic_2_Guitar,-1,-1
47,100,0.2409090909090909,471,0,36,Dl_Nostalgic_2_Guitar,-1,-1
52,100,0.1409090909090909,619,0,36,Dl_Nostalgic_2_Guitar,-1,-1
61,100,0.13636363636363635,700,0,36,Dl_Nostalgic_2_Guitar,-1,-1
52,100,0.2,778,0,36,Dl_Nostalgic_2_Guitar,-1,-1
52,100,0.17727272727272728,845,0,36,Dl_Nostalgic_2_Guitar,-1,-1
47,100,0.4818181818181818,56,1,37,Dl_Nostalgic_2_Guitar,-1,-1
52,100,0.1409090909090909,185,0,37,Dl_Nostalgic_2_Guitar,-1,-1
59,100,0.2772727272727273,238,0,37,Dl_Nostalgic_2_Guitar,-1,-1
59,100,0.3,348,0,37,Dl_Nostalgic_2_Guitar,-1,-1
52,100,0.2,426,0,37,Dl_Nostalgic_2_Guitar,-1,-1
52,100,0.2,506,0,37,Dl_Nostalgic_2_Guitar,-1,-1
40,100,0.4,558,0,37,Dl_Nostalgic_2_Guitar,-1,-1
61,100,0.2590909090909091,660,0,37,Dl_Nostalgic_2_Guitar,-1,-1
61,100,0.3181818181818182,823,0,37,Dl_Nostalgic_2_Guitar,-1,-1
61,100,0.2,179,1,38,Dl_Nostalgic_2_Guitar,-1,-1
57,100,0.1,263,0,38,Dl_Nostalgic_2_Guitar,-1,-1
61,100,0.1409090909090909,298,0,38,Dl_Nostalgic_2_Guitar,-1,-1
56,100,0.4,338,0,38,Dl_Nostalgic_2_Guitar,-1,-1
56,100,0.3,431,0,38,Dl_Nostalgic_2_Guitar,-1,-1
59,100,0.11818181818181818,536,0,38,Dl_Nostalgic_2_Guitar,-1,-1
64,100,0.18181818181818182,783,1,38,Dl_Nostalgic_2_Guitar,-1,-1
52,100,0.11818181818181818,831,0,38,Dl_Nostalgic_2_Guitar,-1,-1
57,100,0.8227272727272728,871,0,38,Dl_Nostalgic_2_Guitar,-1,-1
57,100,0.2,246,1,39,Dl_Nostalgic_2_Guitar,-1,-1
57,100,0.11818181818181818,295,0,39,Dl_Nostalgic_2_Guitar,-1,-1
57,100,0.7818181818181819,364,0,39,Dl_Nostalgic_2_Guitar,-1,-1
61,100,0.17727272727272728,611,1,39,Dl_Nostalgic_2_Guitar,-1,-1
57,100,1.040909090909091,664,0,39,Dl_Nostalgic_2_Guitar,-1,-1
61,100,0.21818181818181817,118,1,40,Dl_Nostalgic_2_Guitar,-1,-1
61,100,0.41818181818181815,418,1,40,Dl_Nostalgic_2_Guitar,-1,-1
56,100,0.6,515,0,40,Dl_Nostalgic_2_Guitar,-1,-1
64,100,0.1409090909090909,686,0,40,Dl_Nostalgic_2_Guitar,-1,-1
57,100,0.2,748,0,40,Dl_Nostalgic_2_Guitar,-1,-1
64,100,0.5,796,0,40,Dl_Nostalgic_2_Guitar,-1,-1
57,100,0.2590909090909091,131,1,41,Dl_Nostalgic_2_Guitar,-1,-1
45,100,0.6227272727272727,188,0,41,Dl_Nostalgic_2_Guitar,-1,-1
45,100,0.12272727272727273,399,1,41,Dl_Nostalgic_2_Guitar,-1,-1
45,100,0.3,431,0,41,Dl_Nostalgic_2_Guitar,-1,-1
57,100,0.1590909090909091,506,0,41,Dl_Nostalgic_2_Guitar,-1,-1
57,100,1.0,598,0,41,Dl_Nostalgic_2_Guitar,-1,-1
61,100,0.12272727272727273,839,1,41,Dl_Nostalgic_2_Guitar,-1,-1
57,100,0.23636363636363636,40,1,42,Dl_Nostalgic_2_Guitar,-1,-1
45,100,0.2590909090909091,105,0,42,Dl_Nostalgic_2_Guitar,-1,-1
62,100,0.35909090909090907,330,1,42,Dl_Nostalgic_2_Guitar,-1,-1
62,100,0.38181818181818183,571,1,42,Dl_Nostalgic_2_Guitar,-1,-1
59,100,0.36363636363636365,664,0,42,Dl_Nostalgic_2_Guitar,-1,-1
64,100,0.11818181818181818,858,0,42,Dl_Nostalgic_2_Guitar,-1,-1
45,100,0.1409090909090909,211,1,43,Dl_Nostalgic_2_Guitar,-1,-1
57,100,0.9227272727272727,254,0,43,Dl_Nostalgic_2_Guitar,-1,-1
57,100,0.2,506,1,43,Dl_Nostalgic_2_Guitar,-1,-1
58,100,0.740909090909091,651,0,43,Dl_Nostalgic_2_Guitar,-1,-1
58,100,0.37727272727272726,875,1,43,Dl_Nostalgic_2_Guitar,-1,-1
54,100,0.12272727272727273,364,1,44,Dl_Nostalgic_2_Guitar,-1,-1
57,100,0.2590909090909091,625,1,44,Dl_Nostalgic_2_Guitar,-1,-1
57,100,0.2590909090909091,756,0,44,Dl_Nostalgic_2_Guitar,-1,-1
59,100,0.21818181818181817,823,0,44,Dl_Nostalgic_2_Guitar,-1,-1
52,100,0.35909090909090907,298,1,45,Dl_Nostalgic_2_Guitar,-1,-1
61,100,1.1,418,0,45,Dl_Nostalgic_2_Guitar,-1,-1
52,100,0.1409090909090909,716,1,45,Dl_Nostalgic_2_Guitar,-1,-1
45,100,0.17727272727272728,765,0,45,Dl_Nostalgic_2_Guitar,-1,-1
61,100,0.2590909090909091,813,0,45,Dl_Nostalgic_2_Guitar,-1,-1
45,100,0.18181818181818182,43,1,46,Dl_Nostalgic_2_Guitar,-1,-1
61,100,0.2409090909090909,166,0,46,Dl_Nostalgic_2_Guitar,-1,-1
61,100,0.1,496,1,46,Dl_Nostalgic_2_Guitar,-1,-1
61,100,0.4,523,0,46,Dl_Nostalgic_2_Guitar,-1,-1
61,100,0.17727272727272728,655,0,46,Dl_Nostalgic_2_Guitar,-1,-1
62,100,0.41818181818181815,813,0,46,Dl_Nostalgic_2_Guitar,-1,-1
61,100,0.32272727272727275,26,1,47,Dl_Nostalgic_2_Guitar,-1,-1
56,100,0.9,110,0,47,Dl_Nostalgic_2_Guitar,-1,-1
52,100,0.1590909090909091,528,1,47,Dl_Nostalgic_2_Guitar,-1,-1
52,100,0.11818181818181818,568,0,47,Dl_Nostalgic_2_Guitar,-1,-1
57,100,0.11818181818181818,625,0,47,Dl_Nostalgic_2_Guitar,-1,-1
57,100,0.4,678,0,47,Dl_Nostalgic_2_Guitar,-1,-1
57,100,0.3,31,1,48,Dl_Nostalgic_2_Guitar,-1,-1
57,100,0.6590909090909091,101,0,48,Dl_Nostalgic_2_Guitar,-1,-1
57,100,0.8590909090909091,343,1,48,Dl_Nostalgic_2_Guitar,-1,-1
45,100,0.3409090909090909,541,1,48,Dl_Nostalgic_2_Guitar,-1,-1
61,100,1.0,646,0,48,Dl_Nostalgic_2_Guitar,-1,-1
61,100,0.12272727272727273,871,1,48,Dl_Nostalgic_2_Guitar,-1,-1
61,100,0.1409090909090909,53,1,49,Dl_Nostalgic_2_Guitar,-1,-1
62,100,0.1409090909090909,179,0,49,Dl_Nostalgic_2_Guitar,-1,-1
62,100,0.1,215,0,49,Dl_Nostalgic_2_Guitar,-1,-1
56,100,0.32272727272727275,268,0,49,Dl_Nostalgic_2_Guitar,-1,-1
59,100,1.1409090909090909,383,0,49,Dl_Nostalgic_2_Guitar,-1,-1
52,100,0.18181818181818182,694,1,49,Dl_Nostalgic_2_Guitar,-1,-1
61,100,1.1227272727272728,738,0,49,Dl_Nostalgic_2_Guitar,-1,-1
57,100,0.1590909090909091,123,1,50,Dl_Nostalgic_2_Guitar,-1,-1
61,100,0.2409090909090909,268,0,50,Dl_Nostalgic_2_Guitar,-1,-1
57,100,0.5181818181818182,325,0,50,Dl_Nostalgic_2_Guitar,-1,-1
52,100,0.17727272727272728,448,0,50,Dl_Nostalgic_2_Guitar,-1,-1
52,100,0.11818181818181818,743,1,50,Dl_Nostalgic_2_Guitar,-1,-1
62,100,0.3,144,1,51,Dl_Nostalgic_2_Guitar,-1,-1
62,100,0.1590909090909091,316,0,51,Dl_Nostalgic_2_Guitar,-1,-1
56,100,0.4,483,0,51,Dl_Nostalgic_2_Guitar,-1,-1
64,100,0.12272727272727273,686,1,51,Dl_Nostalgic_2_Guitar,-1,-1
61,100,0.22272727272727272,839,0,51,Dl_Nostalgic_2_Guitar,-1,-1
57,100,0.11818181818181818,31,1,52,Dl_Nostalgic_2_Guitar,-1,-1
57,100,0.13636363636363635,61,0,52,Dl_Nostalgic_2_Guitar,-1,-1
57,100,0.5227272727272727,123,0,52,Dl_Nostalgic_2_Guitar,-1,-1
61,100,0.37727272727272726,238,0,52,Dl_Nostalgic_2_Guitar,-1,-1
61,100,0.36363636363636365,421,0,52,Dl_Nostalgic_2_Guitar,-1,-1
61,100,0.41818181818181815,545,0,52,Dl_Nostalgic_2_Guitar,-1,-1
49,100,0.1409090909090909,729,0,52,Dl_Nostalgic_2_Guitar,-1,-1
57,100,0.1409090909090909,13,1,53,Dl_Nostalgic_2_Guitar,-1,-1
61,100,0.1,43,0,53,Dl_Nostalgic_2_Guitar,-1,-1
54,100,0.35909090909090907,101,0,53,Dl_Nostalgic_2_Guitar,-1,-1
57,100,0.1409090909090909,220,0,53,Dl_Nostalgic_2_Guitar,-1,-1
57,100,0.1,276,0,53,Dl_Nostalgic_2_Guitar,-1,-1
57,100,0.1409090909090909,506,1,53,Dl_Nostalgic_2_Guitar,-1,-1
56,100,0.11818181818181818,590,0,53,Dl_Nostalgic_2_Guitar,-1,-1
56,100,0.8409090909090909,619,0,53,Dl_Nostalgic_2_Guitar,-1,-1
61,100,0.2590909090909091,96,1,54,Dl_Nostalgic_2_Guitar,-1,-1
57,100,0.5590909090909091,163,0,54,Dl_Nostalgic_2_Guitar,-1,-1
57,100,0.3,480,1,54,Dl_Nostalgic_2_Guitar,-1,-1
57,100,1.0,584,0,54,Dl_Nostalgic_2_Guitar,-1,-1
57,100,0.21818181818181817,40,1,55,Dl_Nostalgic_2_Guitar,-1,-1
50,100,0.2,466,1,55,Dl_Nostalgic_2_Guitar,-1,-1
50,100,0.17727272727272728,515,0,55,Dl_Nostalgic_2_Guitar,-1,-1
52,100,0.13636363636363635,875,1,55,Dl_Nostalgic_2_Guitar,-1,-1
52,100,0.6,31,1,56,Dl_Nostalgic_2_Guitar,-1,-1
52,100,0.4818181818181818,188,0,56,Dl_Nostalgic_2_Guitar,-1,-1
61,100,0.5363636363636364,325,0,56,Dl_Nostalgic_2_Guitar,-1,-1
61,100,0.1590909090909091,448,0,56,Dl_Nostalgic_2_Guitar,-1,-1
49,100,0.3,515,0,56,Dl_Nostalgic_2_Guitar,-1,-1
49,100,0.740909090909091,584,0,56,Dl_Nostalgic_2_Guitar,-1,-1
49,100,0.2409090909090909,751,0,56,Dl_Nostalgic_2_Guitar,-1,-1
61,100,0.9590909090909091,866,0,56,Dl_Nostalgic_2_Guitar,-1,-1
61,100,0.2,211,1,57,Dl_Nostalgic_2_Guitar,-1,-1
64,100,0.21818181818181817,273,0,57,Dl_Nostalgic_2_Guitar,-1,-1
61,100,0.2590909090909091,321,0,57,Dl_Nostalgic_2_Guitar,-1,-1
50,100,0.8181818181818182,515,0,57,Dl_Nostalgic_2_Guitar,-1,-1
50,100,0.2590909090909091,738,1,57,Dl_Nostalgic_2_Guitar,-1,-1
62,100,0.1409090909090909,848,0,57,Dl_Nostalgic_2_Guitar,-1,-1
52,100,0.32272727272727275,188,1,58,Dl_Nostalgic_2_Guitar,-1,-1
40,100,0.12272727272727273,334,0,58,Dl_Nostalgic_2_Guitar,-1,-1
52,100,0.5590909090909091,386,0,58,Dl_Nostalgic_2_Guitar,-1,-1
57,100,1.540909090909091,515,0,58,Dl_Nostalgic_2_Guitar,-1,-1
45,100,0.17727272727272728,853,1,58,Dl_Nostalgic_2_Guitar,-1,-1
57,100,0.3181818181818182,21,1,59,Dl_Nostalgic_2_Guitar,-1,-1
61,100,0.6181818181818182,96,0,59,Dl_Nostalgic_2_Guitar,-1,-1
52,100,0.1409090909090909,431,1,59,Dl_Nostalgic_2_Guitar,-1,-1
61,100,0.2,506,0,59,Dl_Nostalgic_2_Guitar,-1,-1
47,100,1.259090909090909,681,0,59,Dl_Nostalgic_2_Guitar,-1,-1
62,100,0.18181818181818182,91,1,60,Dl_Nostalgic_2_Guitar,-1,-1
56,100,0.4409090909090909,166,0,60,Dl_Nostalgic_2_Guitar,-1,-1
56,100,0.1409090909090909,273,0,60,Dl_Nostalgic_2_Guitar,-1,-1
56,100,0.3181818181818182,308,0,60,Dl_Nostalgic_2_Guitar,-1,-1
59,100,0.9409090909090909,638,1,60,Dl_Nostalgic_2_Guitar,-1,-1
59,100,0.11818181818181818,866,1,60,Dl_Nostalgic_2_Guitar,-1,-1
61,100,0.5,105,1,61,Dl_Nostalgic_2_Guitar,-1,-1
61,100,0.3409090909090909,251,0,61,Dl_Nostalgic_2_Guitar,-1,-1
49,100,0.2590909090909091,338,0,61,Dl_Nostalgic_2_Guitar,-1,-1
61,100,0.11818181818181818,536,1,61,Dl_Nostalgic_2_Guitar,-1,-1
57,100,0.12272727272727273,686,0,61,Dl_Nostalgic_2_Guitar,-1,-1
62,100,1.5818181818181818,729,0,61,Dl_Nostalgic_2_Guitar,-1,-1
62,100,0.4409090909090909,220,1,62,Dl_Nostalgic_2_Guitar,-1,-1
52,100,1.1772727272727272,338,0,62,Dl_Nostalgic_2_Guitar,-1,-1
40,100,0.1409090909090909,606,1,62,Dl_Nostalgic_2_Guitar,-1,-1
40,100,0.1,641,0,62,Dl_Nostalgic_2_Guitar,-1,-1
40,100,0.4,668,0,62,Dl_Nostalgic_2_Guitar,-1,-1
40,100,0.18181818181818182,761,0,62,Dl_Nostalgic_2_Guitar,-1,-1
64,100,0.42272727272727273,804,0,62,Dl_Nostalgic_2_Guitar,-1,-1
59,100,0.3,96,1,63,Dl_Nostalgic_2_Guitar,-1,-1
52,100,0.4409090909090909,201,0,63,Dl_Nostalgic_2_Guitar,-1,-1
52,100,0.43636363636363634,303,0,63,Dl_Nostalgic_2_Guitar,-1,-1
47,100,0.2,426,0,63,Dl_Nostalgic_2_Guitar,-1,-1
47,100,0.12272727272727273,686,1,63,Dl_Nostalgic_2_Guitar,-1,-1
59,100,0.21818181818181817,546,1,64,Dl_Nostalgic_2_Guitar,-1,-1
50,100,0.32272727272727275,255,1,65,Dl_Nostalgic_2_Guitar,-1,-1
61,100,0.22272727272727272,377,0,65,Dl_Nostalgic_2_Guitar,-1,-1
56,100,1.0,585,1,65,Dl_Nostalgic_2_Guitar,-1,-1
47,100,0.18181818181818182,870,1,65,Dl_Nostalgic_2_Guitar,-1,-1
61,100,0.1409090909090909,202,1,66,Dl_Nostalgic_2_Guitar,-1,-1
64,100,0.41818181818181815,260,0,66,Dl_Nostalgic_2_Guitar,-1,-1
61,100,0.35909090909090907,352,0,66,Dl_Nostalgic_2_Guitar,-1,-1
57,100,0.12272727272727273,443,0,66,Dl_Nostalgic_2_Guitar,-1,-1
61,100,0.11818181818181818,590,0,66,Dl_Nostalgic_2_Guitar,-1,-1
64,100,0.1,673,0,66,Dl_Nostalgic_2_Guitar,-1,-1
59,100,0.21818181818181817,722,0,66,Dl_Nostalgic_2_Guitar,-1,-1
61,100,0.5409090909090909,817,0,66,Dl_Nostalgic_2_Guitar,-1,-1
50,100,0.1409090909090909,299,1,67,Dl_Nostalgic_2_Guitar,-1,-1
50,100,0.17727272727272728,404,0,67,Dl_Nostalgic_2_Guitar,-1,-1
50,100,0.1409090909090909,453,0,67,Dl_Nostalgic_2_Guitar,-1,-1
62,100,0.7181818181818181,567,0,67,Dl_Nostalgic_2_Guitar,-1,-1
56,100,0.9590909090909091,726,0,67,Dl_Nostalgic_2_Guitar,-1,-1
59,100,0.12272727272727273,136,1,68,Dl_Nostalgic_2_Guitar,-1,-1
52,100,0.12272727272727273,255,0,68,Dl_Nostalgic_2_Guitar,-1,-1
52,100,0.1,294,0,68,Dl_Nostalgic_2_Guitar,-1,-1
64,100,0.1,316,0,68,Dl_Nostalgic_2_Guitar,-1,-1
61,100,0.22272727272727272,343,0,68,Dl_Nostalgic_2_Guitar,-1,-1
61,100,0.21818181818181817,457,0,68,Dl_Nostalgic_2_Guitar,-1,-1
61,100,0.2409090909090909,509,0,68,Dl_Nostalgic_2_Guitar,-1,-1
61,100,0.12272727272727273,576,0,68,Dl_Nostalgic_2_Guitar,-1,-1
57,100,0.7,792,1,68,Dl_Nostalgic_2_Guitar,-1,-1
57,100,0.13636363636363635,83,1,69,Dl_Nostalgic_2_Guitar,-1,-1
57,100,0.17727272727272728,119,0,69,Dl_Nostalgic_2_Guitar,-1,-1
57,100,0.2,650,1,69,Dl_Nostalgic_2_Guitar,-1,-1
47,100,0.2,743,0,69,Dl_Nostalgic_2_Guitar,-1,-1
52,100,0.21818181818181817,440,1,70,Dl_Nostalgic_2_Guitar,-1,-1
61,100,1.1,502,0,70,Dl_Nostalgic_2_Guitar,-1,-1
61,100,0.1409090909090909,770,1,70,Dl_Nostalgic_2_Guitar,-1,-1
61,100,0.1590909090909091,805,0,70,Dl_Nostalgic_2_Guitar,-1,-1
61,100,0.1409090909090909,844,0,70,Dl_Nostalgic_2_Guitar,-1,-1
61,100,0.4590909090909091,87,1,71,Dl_Nostalgic_2_Guitar,-1,-1
57,100,0.5409090909090909,210,0,71,Dl_Nostalgic_2_Guitar,-1,-1
61,100,0.7,413,1,71,Dl_Nostalgic_2_Guitar,-1,-1
62,100,0.2818181818181818,619,1,71,Dl_Nostalgic_2_Guitar,-1,-1
62,100,0.1,787,0,71,Dl_Nostalgic_2_Guitar,-1,-1
62,100,0.12272727272727273,56,1,72,Dl_Nostalgic_2_Guitar,-1,-1
52,100,0.12272727272727273,166,0,72,Dl_Nostalgic_2_Guitar,-1,-1
59,100,0.3181818181818182,347,0,72,Dl_Nostalgic_2_Guitar,-1,-1
56,100,0.1,483,0,72,Dl_Nostalgic_2_Guitar,-1,-1
57,100,0.11818181818181818,656,0,72,Dl_Nostalgic_2_Guitar,-1,-1
59,100,0.17727272727272728,216,1,73,Dl_Nostalgic_2_Guitar,-1,-1
61,100,0.8772727272727273,260,0,73,Dl_Nostalgic_2_Guitar,-1,-1
61,100,0.18181818181818182,466,1,73,Dl_Nostalgic_2_Guitar,-1,-1
57,100,0.4818181818181818,553,0,73,Dl_Nostalgic_2_Guitar,-1,-1
64,100,0.1409090909090909,703,0,73,Dl_Nostalgic_2_Guitar,-1,-1
61,100,0.5590909090909091,743,0,73,Dl_Nostalgic_2_Guitar,-1,-1
50,100,0.13636363636363635,17,1,74,Dl_Nostalgic_2_Guitar,-1,-1
57,100,0.11818181818181818,119,0,74,Dl_Nostalgic_2_Guitar,-1,-1
61,100,0.7181818181818181,163,0,74,Dl_Nostalgic_2_Guitar,-1,-1
59,100,0.2409090909090909,752,1,74,Dl_Nostalgic_2_Guitar,-1,-1
57,100,0.3,832,0,74,Dl_Nostalgic_2_Guitar,-1,-1
61,100,0.38181818181818183,87,1,75,Dl_Nostalgic_2_Guitar,-1,-1
57,100,0.2818181818181818,286,1,75,Dl_Nostalgic_2_Guitar,-1,-1
59,100,0.5590909090909091,370,0,75,Dl_Nostalgic_2_Guitar,-1,-1
57,100,0.2772727272727273,502,0,75,Dl_Nostalgic_2_Guitar,-1,-1
59,100,0.9,677,0,75,Dl_Nostalgic_2_Guitar,-1,-1
61,100,1.0636363636363637,3,1,76,Dl_Nostalgic_2_Guitar,-1,-1
61,100,0.9409090909090909,276,1,76,Dl_Nostalgic_2_Guitar,-1,-1
56,100,0.2590909090909091,493,1,76,Dl_Nostalgic_2_Guitar,-1,-1
52,100,0.2,603,0,76,Dl_Nostalgic_2_Guitar,-1,-1
52,100,0.11818181818181818,660,0,76,Dl_Nostalgic_2_Guitar,-1,-1
56,100,0.6181818181818182,779,0,76,Dl_Nostalgic_2_Guitar,-1,-1
61,100,0.7181818181818181,110,1,77,Dl_Nostalgic_2_Guitar,-1,-1
61,100,0.4,399,1,77,Dl_Nostalgic_2_Guitar,-1,-1
57,100,0.4,493,0,77,Dl_Nostalgic_2_Guitar,-1,-1
57,100,0.37727272727272726,656,0,77,Dl_Nostalgic_2_Guitar,-1,-1
57,100,0.41818181818181815,184,1,78,Dl_Nostalgic_2_Guitar,-1,-1
57,100,0.1409090909090909,440,1,78,Dl_Nostalgic_2_Guitar,-1,-1
47,100,0.5590909090909091,502,0,78,Dl_Nostalgic_2_Guitar,-1,-1
52,100,0.1,796,1,78,Dl_Nostalgic_2_Guitar,-1,-1
59,100,0.16363636363636364,69,1,79,Dl_Nostalgic_2_Guitar,-1,-1
56,100,0.38181818181818183,145,0,79,Dl_Nostalgic_2_Guitar,-1,-1
61,100,0.759090909090909,263,0,79,Dl_Nostalgic_2_Guitar,-1,-1
61,100,0.21818181818181817,436,0,79,Dl_Nostalgic_2_Guitar,-1,-1
61,100,0.5409090909090909,506,0,79,Dl_Nostalgic_2_Guitar,-1,-1
61,100,0.5181818181818182,633,0,79,Dl_Nostalgic_2_Guitar,-1,-1
54,100,0.4818181818181818,747,0,79,Dl_Nostalgic_2_Guitar,-1,-1
62,100,0.8,333,1,80,Dl_Nostalgic_2_Guitar,-1,-1
62,100,0.5590909090909091,563,1,80,Dl_Nostalgic_2_Guitar,-1,-1
59,100,0.1409090909090909,734,0,80,Dl_Nostalgic_2_Guitar,-1,-1
59,100,0.1590909090909091,770,0,80,Dl_Nostalgic_2_Guitar,-1,-1
47,100,0.18181818181818182,299,1,81,Dl_Nostalgic_2_Guitar,-1,-1
64,100,0.2409090909090909,343,0,81,Dl_Nostalgic_2_Guitar,-1,-1
61,100,0.2818181818181818,396,0,81,Dl_Nostalgic_2_Guitar,-1,-1
61,100,0.33636363636363636,502,0,81,Dl_Nostalgic_2_Guitar,-1,-1
57,100,0.11818181818181818,669,0,81,Dl_Nostalgic_2_Guitar,-1,-1
57,100,0.41818181818181815,713,0,81,Dl_Nostalgic_2_Guitar,-1,-1
57,100,0.2,202,1,82,Dl_Nostalgic_2_Guitar,-1,-1
59,100,1.240909090909091,255,0,82,Dl_Nostalgic_2_Guitar,-1,-1
58,100,0.1590909090909091,823,1,0,Guitar,-1,-1
46,100,0.12272727272727273,70,1,1,Guitar,-1,-1
63,100,0.2409090909090909,686,1,1,Guitar,-1,-1
51,100,0.11818181818181818,866,0,1,Guitar,-1,-1
62,100,0.1409090909090909,782,1,2,Guitar,-1,-1
63,100,0.3181818181818182,83,1,3,Guitar,-1,-1
63,100,0.17727272727272728,171,0,3,Guitar,-1,-1
58,100,0.1,391,1,3,Guitar,-1,-1
46,100,0.12272727272727273,35,1,4,Guitar,-1,-1
62,100,0.11818181818181818,128,0,4,Guitar,-1,-1
62,100,0.16363636363636364,179,0,4,Guitar,-1,-1
63,100,0.1,263,0,4,Guitar,-1,-1
63,100,0.4772727272727273,317,0,4,Guitar,-1,-1
63,100,0.1409090909090909,554,1,4,Guitar,-1,-1
51,100,0.12272727272727273,585,0,4,Guitar,-1,-1
63,100,0.11818181818181818,611,0,4,Guitar,-1,-1
63,100,0.1590909090909091,695,0,4,Guitar,-1,-1
51,100,0.18181818181818182,729,0,4,Guitar,-1,-1
63,100,0.11818181818181818,792,0,4,Guitar,-1,-1
51,100,0.1,839,0,4,Guitar,-1,-1
51,100,0.3181818181818182,18,1,5,Guitar,-1,-1
63,100,0.18181818181818182,145,0,5,Guitar,-1,-1
63,100,0.1409090909090909,211,0,5,Guitar,-1,-1
51,100,0.18181818181818182,245,0,5,Guitar,-1,-1
63,100,0.2772727272727273,655,1,5,Guitar,-1,-1
51,100,0.3,792,0,5,Guitar,-1,-1
51,100,0.1,87,1,6,Guitar,-1,-1
51,100,0.1,294,1,6,Guitar,-1,-1
63,100,0.13636363636363635,348,0,6,Guitar,-1,-1
51,100,0.1409090909090909,399,0,6,Guitar,-1,-1
51,100,0.23636363636363636,634,1,6,Guitar,-1,-1
63,100,0.1590909090909091,739,0,6,Guitar,-1,-1
51,100,0.11818181818181818,831,0,6,Guitar,-1,-1
51,100,0.2409090909090909,43,1,7,Guitar,-1,-1
43,100,0.22272727272727272,386,1,7,Guitar,-1,-1
43,100,0.22272727272727272,598,1,7,Guitar,-1,-1
43,100,0.2,801,1,7,Guitar,-1,-1
55,100,0.2,123,1,8,Guitar,-1,-1
43,100,0.12272727272727273,223,0,8,Guitar,-1,-1
44,100,0.2,330,0,8,Guitar,-1,-1
44,100,0.1590909090909091,414,0,8,Guitar,-1,-1
44,100,0.17727272727272728,479,0,8,Guitar,-1,-1
44,100,0.8181818181818182,527,0,8,Guitar,-1,-1
44,100,0.1590909090909091,739,1,8,Guitar,-1,-1
44,100,0.11818181818181818,801,0,8,Guitar,-1,-1
44,100,0.4818181818181818,13,1,9,Guitar,-1,-1
44,100,0.2818181818181818,132,0,9,Guitar,-1,-1
56,100,0.12272727272727273,211,0,9,Guitar,-1,-1
63,100,0.11818181818181818,259,0,9,Guitar,-1,-1
44,100,0.1590909090909091,285,0,9,Guitar,-1,-1
63,100,0.12272727272727273,355,0,9,Guitar,-1,-1
44,100,0.3,383,0,9,Guitar,-1,-1
44,100,0.16363636363636364,465,0,9,Guitar,-1,-1
46,100,0.12272727272727273,563,0,9,Guitar,-1,-1
46,100,0.12272727272727273,651,0,9,Guitar,-1,-1
46,100,0.1,778,0,9,Guitar,-1,-1
46,100,0.3,804,0,9,Guitar,-1,-1
46,100,0.12272727272727273,135,1,10,Guitar,-1,-1
46,100,0.3,276,0,10,Guitar,-1,-1
46,100,0.4590909090909091,374,0,10,Guitar,-1,-1
46,100,0.3,541,0,10,Guitar,-1,-1
51,100,0.3,814,1,10,Guitar,-1,-1
51,100,0.3181818181818182,17,1,11,Guitar,-1,-1
51,100,0.2590909090909091,220,1,11,Guitar,-1,-1
51,100,0.1409090909090909,299,0,11,Guitar,-1,-1
51,100,0.2409090909090909,360,0,11,Guitar,-1,-1
51,100,0.2636363636363636,465,0,11,Guitar,-1,-1
51,100,0.2772727272727273,581,0,11,Guitar,-1,-1
51,100,0.1590909090909091,646,0,11,Guitar,-1,-1
51,100,0.2,713,0,11,Guitar,-1,-1
51,100,0.1,809,0,11,Guitar,-1,-1
51,100,0.1,53,1,12,Guitar,-1,-1
43,100,0.1409090909090909,360,1,12,Guitar,-1,-1
43,100,0.18181818181818182,510,0,12,Guitar,-1,-1
43,100,0.17727272727272728,581,0,12,Guitar,-1,-1
43,100,0.16363636363636364,642,0,12,Guitar,-1,-1
43,100,0.2772727272727273,96,1,13,Guitar,-1,-1
63,100,0.16363636363636364,180,0,13,Guitar,-1,-1
63,100,0.1,268,0,13,Guitar,-1,-1
51,100,0.18181818181818182,299,0,13,Guitar,-1,-1
56,100,0.3409090909090909,360,0,13,Guitar,-1,-1
44,100,0.23636363636363636,436,0,13,Guitar,-1,-1
44,100,0.2409090909090909,505,0,13,Guitar,-1,-1
44,100,0.17727272727272728,625,0,13,Guitar,-1,-1
56,100,0.18181818181818182,663,0,13,Guitar,-1,-1
46,100,0.3409090909090909,849,0,13,Guitar,-1,-1
58,100,0.2,44,1,14,Guitar,-1,-1
63,100,0.1590909090909091,118,0,14,Guitar,-1,-1
46,100,0.18181818181818182,189,0,14,Guitar,-1,-1
46,100,0.3409090909090909,250,0,14,Guitar,-1,-1
46,100,0.1409090909090909,330,0,14,Guitar,-1,-1
51,100,0.2590909090909091,56,1,15,Guitar,-1,-1
46,100,0.21818181818181817,264,1,15,Guitar,-1,-1
51,100,0.3,391,0,15,Guitar,-1,-1
46,100,0.11818181818181818,550,0,15,Guitar,-1,-1
55,100,0.17727272727272728,52,1,16,Guitar,-1,-1
63,100,0.11818181818181818,220,0,16,Guitar,-1,-1
55,100,0.1,254,0,16,Guitar,-1,-1
63,100,0.11818181818181818,351,0,16,Guitar,-1,-1
63,100,0.13636363636363635,436,0,16,Guitar,-1,-1
63,100,0.21818181818181817,492,0,16,Guitar,-1,-1
43,100,0.1409090909090909,9,1,17,Guitar,-1,-1
43,100,0.21818181818181817,75,0,17,Guitar,-1,-1
43,100,0.2409090909090909,210,0,17,Guitar,-1,-1
43,100,0.1,303,0,17,Guitar,-1,-1
43,100,0.4409090909090909,470,0,17,Guitar,-1,-1
43,100,0.12272727272727273,752,1,17,Guitar,-1,-1
58,100,0.11818181818181818,845,0,17,Guitar,-1,-1
44,100,0.3,466,1,18,Guitar,-1,-1
44,100,0.2,629,0,18,Guitar,-1,-1
56,100,0.11818181818181818,700,0,18,Guitar,-1,-1
56,100,0.11818181818181818,735,0,18,Guitar,-1,-1
51,100,0.11818181818181818,44,1,19,Guitar,-1,-1
56,100,0.3181818181818182,88,0,19,Guitar,-1,-1
44,100,0.1409090909090909,185,0,19,Guitar,-1,-1
44,100,0.1409090909090909,316,0,19,Guitar,-1,-1
56,100,0.1,347,0,19,Guitar,-1,-1
44,100,0.1409090909090909,374,0,19,Guitar,-1,-1
46,100,0.1409090909090909,581,1,19,Guitar,-1,-1
46,100,0.1,633,0,19,Guitar,-1,-1
46,100,0.1590909090909091,660,0,19,Guitar,-1,-1
46,100,0.2,770,0,19,Guitar,-1,-1
46,100,0.2590909090909091,866,0,19,Guitar,-1,-1
46,100,0.11818181818181818,75,1,20,Guitar,-1,-1
46,100,0.18181818181818182,110,0,20,Guitar,-1,-1
46,100,0.6,250,0,20,Guitar,-1,-1
46,100,0.4590909090909091,391,0,20,Guitar,-1,-1
46,100,0.32272727272727275,519,0,20,Guitar,-1,-1
44,100,0.1590909090909091,810,1,20,Guitar,-1,-1
44,100,0.1,870,0,20,Guitar,-1,-1
56,100,0.1590909090909091,65,1,21,Guitar,-1,-1
63,100,0.1590909090909091,185,0,21,Guitar,-1,-1
63,100,0.22272727272727272,268,0,21,Guitar,-1,-1
63,100,0.11818181818181818,339,0,21,Guitar,-1,-1
44,100,0.11818181818181818,546,1,21,Guitar,-1,-1
44,100,0.17727272727272728,590,0,21,Guitar,-1,-1
63,100,0.17727272727272728,735,0,21,Guitar,-1,-1
63,100,0.12272727272727273,553,1,22,Guitar,-1,-1
51,100,0.1590909090909091,743,0,22,Guitar,-1,-1
51,100,0.1,272,1,23,Guitar,-1,-1
51,100,0.2818181818181818,308,0,23,Guitar,-1,-1
63,100,0.1,633,1,23,Guitar,-1,-1
63,100,0.5772727272727273,876,1,23,Guitar,-1,-1
63,100,0.11818181818181818,131,1,24,Guitar,-1,-1
63,100,0.18181818181818182,285,0,24,Guitar,-1,-1
46,100,0.12272727272727273,202,1,25,Guitar,-1,-1
46,100,0.1409090909090909,289,0,25,Guitar,-1,-1
46,100,0.5363636363636364,347,0,25,Guitar,-1,-1
58,100,0.1590909090909091,691,1,25,Guitar,-1,-1
46,100,0.1590909090909091,725,0,25,Guitar,-1,-1
46,100,0.3409090909090909,849,0,25,Guitar,-1,-1
46,100,0.12272727272727273,69,1,26,Guitar,-1,-1
46,100,0.35909090909090907,229,0,26,Guitar,-1,-1
63,100,0.11818181818181818,590,1,26,Guitar,-1,-1
64,100,0.1590909090909091,625,0,26,Guitar,-1,-1
51,100,0.1590909090909091,717,1,27,Guitar,-1,-1
63,100,0.1409090909090909,822,0,27,Guitar,-1,-1
46,100,0.2409090909090909,246,1,28,Guitar,-1,-1
46,100,0.21818181818181817,440,0,28,Guitar,-1,-1
46,100,0.1,760,1,28,Guitar,-1,-1
46,100,0.1409090909090909,796,0,28,Guitar,-1,-1
46,100,0.12272727272727273,3,1,29,Guitar,-1,-1
62,100,0.12272727272727273,202,1,29,Guitar,-1,-1
46,100,0.11818181818181818,382,0,29,Guitar,-1,-1
63,100,0.1590909090909091,810,1,29,Guitar,-1,-1
63,100,0.21818181818181817,866,1,30,Guitar,-1,-1
63,100,0.2818181818181818,113,1,31,Guitar,-1,-1
63,100,0.22272727272727272,254,0,31,Guitar,-1,-1
63,100,0.18181818181818182,422,0,31,Guitar,-1,-1
63,100,0.2590909090909091,528,0,31,Guitar,-1,-1
63,100,0.6,598,0,31,Guitar,-1,-1
56,100,0.17727272727272728,822,1,31,Guitar,-1,-1
51,100,0.1409090909090909,21,1,32,Guitar,-1,-1
63,100,0.11818181818181818,303,1,32,Guitar,-1,-1
51,100,0.11818181818181818,405,0,32,Guitar,-1,-1
46,100,0.18181818181818182,628,1,32,Guitar,-1,-1
51,100,0.1,311,1,33,Guitar,-1,-1
63,100,0.3,408,0,33,Guitar,-1,-1
51,100,0.4818181818181818,474,0,33,Guitar,-1,-1
51,100,0.18181818181818182,101,1,34,Guitar,-1,-1
63,100,0.1590909090909091,391,1,34,Guitar,-1,-1
51,100,0.18181818181818182,708,1,34,Guitar,-1,-1
51,100,0.2409090909090909,774,0,34,Guitar,-1,-1
58,100,0.2818181818181818,298,1,35,Guitar,-1,-1
58,100,0.12272727272727273,474,0,35,Guitar,-1,-1
46,100,0.11818181818181818,523,0,35,Guitar,-1,-1
63,100,0.11818181818181818,735,1,35,Guitar,-1,-1
63,100,0.11818181818181818,110,1,36,Guitar,-1,-1
63,100,0.2,246,0,36,Guitar,-1,-1
58,100,0.2,316,0,36,Guitar,-1,-1
63,100,0.18181818181818182,651,1,36,Guitar,-1,-1
63,100,0.22272727272727272,179,1,37,Guitar,-1,-1
63,100,0.11818181818181818,295,0,37,Guitar,-1,-1
58,100,0.1590909090909091,743,1,37,Guitar,-1,-1
58,100,0.22272727272727272,871,0,37,Guitar,-1,-1
58,100,0.2,66,1,38,Guitar,-1,-1
58,100,0.3,118,0,38,Guitar,-1,-1
58,100,0.11818181818181818,215,0,38,Guitar,-1,-1
58,100,0.11818181818181818,295,0,38,Guitar,-1,-1
58,100,0.1590909090909091,343,0,38,Guitar,-1,-1
58,100,0.18181818181818182,396,0,38,Guitar,-1,-1
51,100,0.1409090909090909,8,1,39,Guitar,-1,-1
53,100,0.2409090909090909,66,0,39,Guitar,-1,-1
63,100,0.22272727272727272,211,0,39,Guitar,-1,-1
55,100,0.1409090909090909,289,0,39,Guitar,-1,-1
55,100,0.18181818181818182,351,0,39,Guitar,-1,-1
62,100,0.37727272727272726,480,0,39,Guitar,-1,-1
50,100,0.1590909090909091,563,0,39,Guitar,-1,-1
63,100,0.21818181818181817,748,0,39,Guitar,-1,-1
51,100,0.13636363636363635,831,0,39,Guitar,-1,-1
58,100,0.16363636363636364,26,1,40,Guitar,-1,-1
58,100,0.17727272727272728,83,0,40,Guitar,-1,-1
53,100,0.2409090909090909,286,1,40,Guitar,-1,-1
53,100,0.18181818181818182,364,0,40,Guitar,-1,-1
55,100,0.11818181818181818,493,0,40,Guitar,-1,-1
50,100,0.21818181818181817,700,1,40,Guitar,-1,-1
50,100,0.1590909090909091,770,0,40,Guitar,-1,-1
51,100,0.16363636363636364,26,1,41,Guitar,-1,-1
51,100,0.18181818181818182,101,0,41,Guitar,-1,-1
63,100,0.2772727272727273,141,0,41,Guitar,-1,-1
62,100,0.21818181818181817,31,1,42,Guitar,-1,-1
62,100,0.22272727272727272,166,0,42,Guitar,-1,-1
63,100,0.41818181818181815,286,0,42,Guitar,-1,-1
63,100,0.3181818181818182,625,1,42,Guitar,-1,-1
51,100,0.2409090909090909,848,1,42,Guitar,-1,-1
58,100,0.1,166,1,43,Guitar,-1,-1
51,100,0.1590909090909091,238,0,43,Guitar,-1,-1
63,100,0.18181818181818182,421,0,43,Guitar,-1,-1
51,100,0.21818181818181817,461,0,43,Guitar,-1,-1
63,100,0.2409090909090909,726,1,43,Guitar,-1,-1
43,100,0.1590909090909091,858,0,43,Guitar,-1,-1
58,100,0.1590909090909091,53,1,44,Guitar,-1,-1
43,100,0.11818181818181818,260,1,44,Guitar,-1,-1
43,100,0.1,386,0,44,Guitar,-1,-1
58,100,0.22272727272727272,453,0,44,Guitar,-1,-1
43,100,0.2,531,0,44,Guitar,-1,-1
58,100,0.18181818181818182,593,0,44,Guitar,-1,-1
58,100,0.1409090909090909,716,0,44,Guitar,-1,-1
57,100,0.11818181818181818,748,0,44,Guitar,-1,-1
58,100,0.2,853,0,44,Guitar,-1,-1
53,100,0.4590909090909091,53,1,45,Guitar,-1,-1
53,100,0.21818181818181817,193,0,45,Guitar,-1,-1
53,100,0.11818181818181818,281,0,45,Guitar,-1,-1
56,100,0.11818181818181818,413,0,45,Guitar,-1,-1
56,100,0.11818181818181818,536,0,45,Guitar,-1,-1
53,100,0.3409090909090909,581,0,45,Guitar,-1,-1
55,100,0.3,664,0,45,Guitar,-1,-1
55,100,0.2772727272727273,801,0,45,Guitar,-1,-1
55,100,0.4818181818181818,56,1,46,Guitar,-1,-1
55,100,0.22272727272727272,188,0,46,Guitar,-1,-1
44,100,0.1409090909090909,263,0,46,Guitar,-1,-1
51,100,0.1409090909090909,330,0,46,Guitar,-1,-1
56,100,0.2409090909090909,466,0,46,Guitar,-1,-1
56,100,0.22272727272727272,606,0,46,Guitar,-1,-1
51,100,0.2,743,0,46,Guitar,-1,-1
56,100,0.3409090909090909,871,0,46,Guitar,-1,-1
44,100,0.16363636363636364,69,1,47,Guitar,-1,-1
56,100,0.36363636363636365,136,0,47,Guitar,-1,-1
56,100,0.2409090909090909,273,0,47,Guitar,-1,-1
44,100,0.1590909090909091,418,0,47,Guitar,-1,-1
58,100,0.22272727272727272,488,0,47,Guitar,-1,-1
58,100,0.4772727272727273,545,0,47,Guitar,-1,-1
58,100,0.3,673,0,47,Guitar,-1,-1
58,100,0.17727272727272728,823,0,47,Guitar,-1,-1
53,100,0.1409090909090909,21,1,48,Guitar,-1,-1
58,100,0.3,69,0,48,Guitar,-1,-1
58,100,0.5636363636363636,201,0,48,Guitar,-1,-1
58,100,0.12272727272727273,334,0,48,Guitar,-1,-1
46,100,0.2,361,0,48,Guitar,-1,-1
58,100,0.3,405,0,48,Guitar,-1,-1
58,100,0.3,474,0,48,Guitar,-1,-1
51,100,0.3,691,1,48,Guitar,-1,-1
51,100,0.2,171,1,49,Guitar,-1,-1
51,100,0.1409090909090909,246,0,49,Guitar,-1,-1
51,100,0.5772727272727273,295,0,49,Guitar,-1,-1
51,100,0.5,435,0,49,Guitar,-1,-1
51,100,0.23636363636363636,568,0,49,Guitar,-1,-1
51,100,0.5409090909090909,638,0,49,Guitar,-1,-1
53,100,0.5181818181818182,40,1,50,Guitar,-1,-1
53,100,0.2818181818181818,444,1,50,Guitar,-1,-1
50,100,0.3,836,1,50,Guitar,-1,-1
51,100,0.11818181818181818,141,1,51,Guitar,-1,-1
51,100,0.5636363636363636,246,0,51,Guitar,-1,-1
51,100,0.2409090909090909,448,1,51,Guitar,-1,-1
51,100,0.18181818181818182,531,0,51,Guitar,-1,-1
53,100,0.11818181818181818,853,1,51,Guitar,-1,-1
58,100,0.1590909090909091,628,1,52,Guitar,-1,-1
63,100,0.21818181818181817,735,0,52,Guitar,-1,-1
51,100,0.1409090909090909,4,1,53,Guitar,-1,-1
51,100,0.4,96,0,53,Guitar,-1,-1
63,100,0.11818181818181818,198,0,53,Guitar,-1,-1
63,100,0.2,268,0,53,Guitar,-1,-1
63,100,0.3409090909090909,408,0,53,Guitar,-1,-1
51,100,0.11818181818181818,483,0,53,Guitar,-1,-1
63,100,0.18181818181818182,708,1,54,Guitar,-1,-1
63,100,0.2409090909090909,153,1,55,Guitar,-1,-1
44,100,0.21818181818181817,273,0,55,Guitar,-1,-1
51,100,0.1,166,1,56,Guitar,-1,-1
51,100,0.3181818181818182,351,0,56,Guitar,-1,-1
51,100,0.11818181818181818,483,1,57,Guitar,-1,-1
63,100,0.12272727272727273,444,1,58,Guitar,-1,-1
46,100,0.1590909090909091,791,1,58,Guitar,-1,-1
46,100,0.1409090909090909,383,1,59,Guitar,-1,-1
51,100,0.1,141,1,60,Guitar,-1,-1
51,100,0.22272727272727272,466,1,60,Guitar,-1,-1
63,100,0.1409090909090909,343,1,61,Guitar,-1,-1
63,100,0.18181818181818182,751,1,61,Guitar,-1,-1
63,100,0.4590909090909091,848,1,63,Guitar,-1,-1
63,100,0.1,87,1,64,Guitar,-1,-1
51,100,0.1,123,0,64,Guitar,-1,-1
63,100,0.2818181818181818,145,0,64,Guitar,-1,-1
51,100,0.1590909090909091,383,1,64,Guitar,-1,-1
56,100,0.35909090909090907,866,1,64,Guitar,-1,-1
51,100,0.18181818181818182,246,1,65,Guitar,-1,-1
51,100,0.11818181818181818,457,1,65,Guitar,-1,-1
44,100,0.1409090909090909,509,0,65,Guitar,-1,-1
56,100,0.17727272727272728,713,1,65,Guitar,-1,-1
48,100,0.5227272727272727,56,1,67,Guitar,-1,-1
48,100,0.1590909090909091,220,0,67,Guitar,-1,-1
51,100,0.1,26,1,68,Guitar,-1,-1
58,100,0.1,74,1,69,Guitar,-1,-1
63,100,0.2,140,0,69,Guitar,-1,-1
53,100,0.1,282,0,69,Guitar,-1,-1
53,100,0.11818181818181818,677,1,69,Guitar,-1,-1
46,100,0.2409090909090909,9,1,70,Guitar,-1,-1
53,100,0.2,153,0,70,Guitar,-1,-1
53,100,0.12272727272727273,356,1,70,Guitar,-1,-1
53,100,0.18181818181818182,422,0,70,Guitar,-1,-1
46,100,0.38181818181818183,637,1,70,Guitar,-1,-1
58,100,0.2,96,1,71,Guitar,-1,-1
51,100,0.4590909090909091,250,0,71,Guitar,-1,-1
51,100,0.17727272727272728,360,0,71,Guitar,-1,-1
51,100,0.12272727272727273,443,0,71,Guitar,-1,-1
51,100,0.17727272727272728,713,1,71,Guitar,-1,-1
51,100,0.1,56,1,72,Guitar,-1,-1
51,100,0.1409090909090909,163,0,72,Guitar,-1,-1
58,100,0.1,136,1,73,Guitar,-1,-1
46,100,0.2818181818181818,166,0,73,Guitar,-1,-1
46,100,0.11818181818181818,392,1,73,Guitar,-1,-1
46,100,0.1590909090909091,449,0,73,Guitar,-1,-1
43,100,0.18181818181818182,660,1,73,Guitar,-1,-1
62,100,0.1,734,0,73,Guitar,-1,-1
48,100,0.2590909090909091,250,1,74,Guitar,-1,-1
51,100,0.5818181818181818,312,1,76,Guitar,-1,-1
51,100,0.1409090909090909,483,0,76,Guitar,-1,-1
51,100,0.2409090909090909,536,0,76,Guitar,-1,-1
51,100,0.2,593,0,76,Guitar,-1,-1
63,100,0.1590909090909091,233,1,77,Guitar,-1,-1
51,100,0.12272727272727273,686,1,77,Guitar,-1,-1
43,100,0.1409090909090909,35,1,78,Guitar,-1,-1
43,100,0.11818181818181818,347,1,78,Guitar,-1,-1
43,100,0.1409090909090909,462,0,78,Guitar,-1,-1
63,100,0.11818181818181818,792,1,78,Guitar,-1,-1
44,100,0.2590909090909091,823,0,78,Guitar,-1,-1
51,100,0.1590909090909091,166,1,79,Guitar,-1,-1
63,100,0.1,246,0,79,Guitar,-1,-1
48,100,0.2590909090909091,163,1,80,Guitar,-1,-1
63,100,0.11818181818181818,726,1,81,Guitar,-1,-1
53,100,0.17727272727272728,127,1,82,Guitar,-1,-1
53,100,0.2,184,0,82,Guitar,-1,-1
46,100,0.17727272727272728,316,0,82,Guitar,-1,-1
46,100,0.2,466,0,82,Guitar,-1,-1
46,100,0.2590909090909091,572,0,82,Guitar,-1,-1
53,100,0.18181818181818182,663,0,82,Guitar,-1,-1
51,100,0.1,800,0,82,Guitar,-1,-1
63,100,0.12272727272727273,3,1,83,Guitar,-1,-1
58,100,0.2,677,1,83,Guitar,-1,-1
46,100,0.17727272727272728,743,0,83,Guitar,-1,-1
62,100,0.3181818181818182,263,1,84,Guitar,-1,-1
63,100,0.6818181818181818,483,1,84,Guitar,-1,-1
62,100,0.2590909090909091,480,1,85,Guitar,-1,-1
62,100,0.5227272727272727,553,0,85,Guitar,-1,-1
63,100,0.3409090909090909,703,0,85,Guitar,-1,-1
63,100,0.4,783,0,85,Guitar,-1,-1
63,100,0.2590909090909091,13,1,86,Guitar,-1,-1
51,100,0.2,100,0,86,Guitar,-1,-1
56,100,0.1409090909090909,365,1,86,Guitar,-1,-1
63,100,0.1,443,0,86,Guitar,-1,-1
51,100,0.2636363636363636,466,0,86,Guitar,-1,-1
43,100,0.22272727272727272,312,1,87,Guitar,-1,-1
48,100,0.22272727272727272,35,1,88,Guitar,-1,-1
44,100,0.2,677,1,88,Guitar,-1,-1
63,100,0.11818181818181818,722,0,88,Guitar,-1,-1
44,100,0.3,770,0,88,Guitar,-1,-1
63,100,0.2590909090909091,106,1,89,Guitar,-1,-1
46,100,0.1,282,0,89,Guitar,-1,-1
43,100,0.2590909090909091,457,1,90,Guitar,-1,-1
55,100,0.5363636363636364,523,0,90,Guitar,-1,-1
55,100,0.7772727272727272,646,0,90,Guitar,-1,-1
44,100,0.12272727272727273,157,1,91,Guitar,-1,-1
46,100,0.1590909090909091,646,1,91,Guitar,-1,-1
46,100,0.17727272727272728,734,0,91,Guitar,-1,-1
46,100,0.5,876,0,91,Guitar,-1,-1
43,100,0.1590909090909091,0,1,93,Guitar,-1,-1
46,100,0.6409090909090909,79,1,95,Guitar,-1,-1
44,100,0.1,123,1,96,Guitar,-1,-1
44,100,0.35909090909090907,150,0,96,Guitar,-1,-1
46,100,0.4,624,1,96,Guitar,-1,-1
46,100,0.1,756,0,96,Guitar,-1,-1
46,100,0.6363636363636364,853,0,96,Guitar,-1,-1
43,100,0.16363636363636364,333,1,97,Guitar,-1,-1
58,100,0.18181818181818182,597,1,97,Guitar,-1,-1
44,100,0.2818181818181818,593,1,98,Guitar,-1,-1
46,100,0.11818181818181818,176,1,99,Guitar,-1,-1
46,100,0.2409090909090909,206,0,99,Guitar,-1,-1
46,100,0.1,307,0,99,Guitar,-1,-1
43,100,0.22272727272727272,752,1,99,Guitar,-1,-1
44,100,0.3,136,1,101,Guitar,-1,-1
46,100,0.4,593,1,101,Guitar,-1,-1
46,100,0.1,734,0,101,Guitar,-1,-1
43,100,0.1409090909090909,307,1,102,Guitar,-1,-1
44,100,0.2,593,1,103,Guitar,-1,-1
51,100,0.1,783,0,103,Guitar,-1,-1
46,100,0.1409090909090909,145,1,104,Guitar,-1,-1
46,100,0.35909090909090907,184,0,104,Guitar,-1,-1
46,100,0.1409090909090909,276,0,104,Guitar,-1,-1
46,100,0.1409090909090909,343,0,104,Guitar,-1,-1
58,100,0.2409090909090909,870,1,105,Guitar,-1,-1
62,100,0.2,616,1,106,Guitar,-1,-1
50,100,0.12272727272727273,695,0,106,Guitar,-1,-1
63,100,0.5181818181818182,22,1,107,Guitar,-1,-1
62,100,0.2590909090909091,823,1,107,Guitar,-1,-1
62,100,0.2409090909090909,13,1,108,Guitar,-1,-1
62,100,0.3,163,1,109,Guitar,-1,-1
62,100,0.1409090909090909,242,0,109,Guitar,-1,-1
63,100,0.21818181818181817,383,0,109,Guitar,-1,-1
63,100,0.16363636363636364,443,0,109,Guitar,-1,-1
63,100,0.1,509,0,109,Guitar,-1,-1
46,100,0.11818181818181818,660,0,109,Guitar,-1,-1
46,100,0.13636363636363635,766,0,109,Guitar,-1,-1
58,100,0.1409090909090909,163,1,110,Guitar,-1,-1
63,100,0.17727272727272728,237,0,110,Guitar,-1,-1
51,100,0.1409090909090909,443,1,110,Guitar,-1,-1
51,100,0.11818181818181818,502,0,110,Guitar,-1,-1
51,100,1.0636363636363637,839,1,110,Guitar,-1,-1
51,100,0.1590909090909091,210,1,111,Guitar,-1,-1
51,100,0.759090909090909,250,0,111,Guitar,-1,-1
51,100,5.9,443,0,111,Guitar,-1,-1
51,100,0.5590909090909091,17,1,113,Guitar,-1,-1
58,100,1.481818181818182,343,1,1,DL_MelancholicFolk_Guitar,-1,-1
58,100,2.7181818181818183,681,1,1,DL_MelancholicFolk_Guitar,-1,-1
58,100,1.2818181818181817,461,1,2,DL_MelancholicFolk_Guitar,-1,-1
53,100,0.7227272727272728,752,1,2,DL_MelancholicFolk_Guitar,-1,-1
60,100,0.8409090909090909,34,1,3,DL_MelancholicFolk_Guitar,-1,-1
60,100,2.6227272727272726,223,0,3,DL_MelancholicFolk_Guitar,-1,-1
41,100,0.11818181818181818,801,1,3,DL_MelancholicFolk_Guitar,-1,-1
60,100,0.2,827,0,3,DL_MelancholicFolk_Guitar,-1,-1
41,100,0.7227272727272728,12,1,4,DL_MelancholicFolk_Guitar,-1,-1
60,100,0.3181818181818182,194,0,4,DL_MelancholicFolk_Guitar,-1,-1
55,100,0.8227272727272728,276,0,4,DL_MelancholicFolk_Guitar,-1,-1
62,100,0.7,462,0,4,DL_MelancholicFolk_Guitar,-1,-1
62,100,0.21818181818181817,682,1,4,DL_MelancholicFolk_Guitar,-1,-1
62,100,0.5409090909090909,558,1,5,DL_MelancholicFolk_Guitar,-1,-1
51,100,0.7636363636363637,685,0,5,DL_MelancholicFolk_Guitar,-1,-1
58,100,0.11818181818181818,128,1,6,DL_MelancholicFolk_Guitar,-1,-1
58,100,0.2409090909090909,184,0,6,DL_MelancholicFolk_Guitar,-1,-1
51,100,0.1409090909090909,664,1,6,DL_MelancholicFolk_Guitar,-1,-1
51,100,1.1818181818181819,132,1,7,DL_MelancholicFolk_Guitar,-1,-1
58,100,0.1590909090909091,541,1,7,DL_MelancholicFolk_Guitar,-1,-1
51,100,0.35909090909090907,56,1,8,DL_MelancholicFolk_Guitar,-1,-1
51,100,1.1818181818181819,154,0,8,DL_MelancholicFolk_Guitar,-1,-1
51,100,0.2818181818181818,417,1,8,DL_MelancholicFolk_Guitar,-1,-1
51,100,0.5818181818181818,484,0,8,DL_MelancholicFolk_Guitar,-1,-1
53,100,0.8227272727272728,620,0,8,DL_MelancholicFolk_Guitar,-1,-1
41,100,0.4409090909090909,801,0,8,DL_MelancholicFolk_Guitar,-1,-1
60,100,0.8409090909090909,206,1,9,DL_MelancholicFolk_Guitar,-1,-1
41,100,0.2590909090909091,405,1,9,DL_MelancholicFolk_Guitar,-1,-1
41,100,0.1409090909090909,470,0,9,DL_MelancholicFolk_Guitar,-1,-1
41,100,1.3818181818181818,505,0,9,DL_MelancholicFolk_Guitar,-1,-1
41,100,0.37727272727272726,823,1,9,DL_MelancholicFolk_Guitar,-1,-1
60,100,0.4409090909090909,25,1,10,DL_MelancholicFolk_Guitar,-1,-1
46,100,1.4772727272727273,149,0,10,DL_MelancholicFolk_Guitar,-1,-1
46,100,4.3,488,1,10,DL_MelancholicFolk_Guitar,-1,-1
46,100,0.6590909090909091,572,1,11,DL_MelancholicFolk_Guitar,-1,-1
46,100,3.6,730,0,11,DL_MelancholicFolk_Guitar,-1,-1
46,100,0.16363636363636364,663,1,12,DL_MelancholicFolk_Guitar,-1,-1
46,100,0.2818181818181818,730,0,12,DL_MelancholicFolk_Guitar,-1,-1
46,100,0.2590909090909091,826,0,12,DL_MelancholicFolk_Guitar,-1,-1
46,100,0.21818181818181817,8,1,13,DL_MelancholicFolk_Guitar,-1,-1
58,100,0.1,56,0,13,DL_MelancholicFolk_Guitar,-1,-1
50,100,0.7772727272727272,84,0,13,DL_MelancholicFolk_Guitar,-1,-1
50,100,0.21818181818181817,264,0,13,DL_MelancholicFolk_Guitar,-1,-1
50,100,0.3181818181818182,338,0,13,DL_MelancholicFolk_Guitar,-1,-1
62,100,0.11818181818181818,831,1,13,DL_MelancholicFolk_Guitar,-1,-1
62,100,0.12272727272727273,862,0,13,DL_MelancholicFolk_Guitar,-1,-1
58,100,0.1409090909090909,355,1,14,DL_MelancholicFolk_Guitar,-1,-1
58,100,0.1,391,0,14,DL_MelancholicFolk_Guitar,-1,-1
51,100,1.3,501,0,14,DL_MelancholicFolk_Guitar,-1,-1
58,100,0.4636363636363636,795,1,14,DL_MelancholicFolk_Guitar,-1,-1
58,100,0.7,106,1,15,DL_MelancholicFolk_Guitar,-1,-1
51,100,0.4636363636363636,268,0,15,DL_MelancholicFolk_Guitar,-1,-1
58,100,0.4818181818181818,422,0,15,DL_MelancholicFolk_Guitar,-1,-1
48,100,1.940909090909091,26,1,16,DL_MelancholicFolk_Guitar,-1,-1
48,100,0.1590909090909091,457,1,16,DL_MelancholicFolk_Guitar,-1,-1
48,100,0.12272727272727273,686,1,16,DL_MelancholicFolk_Guitar,-1,-1
48,100,0.4818181818181818,717,0,16,DL_MelancholicFolk_Guitar,-1,-1
50,100,0.7,430,1,17,DL_MelancholicFolk_Guitar,-1,-1
50,100,0.5409090909090909,791,1,17,DL_MelancholicFolk_Guitar,-1,-1
50,100,0.8363636363636363,193,1,18,DL_MelancholicFolk_Guitar,-1,-1
50,100,0.12272727272727273,399,1,18,DL_MelancholicFolk_Guitar,-1,-1
50,100,0.2590909090909091,453,0,18,DL_MelancholicFolk_Guitar,-1,-1
51,100,1.440909090909091,839,1,18,DL_MelancholicFolk_Guitar,-1,-1
51,100,0.1409090909090909,343,1,19,DL_MelancholicFolk_Guitar,-1,-1
58,100,0.6181818181818182,457,0,19,DL_MelancholicFolk_Guitar,-1,-1
53,100,0.8409090909090909,598,0,19,DL_MelancholicFolk_Guitar,-1,-1
41,100,0.3181818181818182,787,0,19,DL_MelancholicFolk_Guitar,-1,-1
53,100,0.18181818181818182,858,0,19,DL_MelancholicFolk_Guitar,-1,-1
53,100,0.4,75,1,20,DL_MelancholicFolk_Guitar,-1,-1
41,100,0.5636363636363636,223,0,20,DL_MelancholicFolk_Guitar,-1,-1
46,100,1.440909090909091,374,0,20,DL_MelancholicFolk_Guitar,-1,-1
46,100,0.740909090909091,845,1,20,DL_MelancholicFolk_Guitar,-1,-1
46,100,1.9227272727272726,158,1,21,DL_MelancholicFolk_Guitar,-1,-1
58,100,0.35909090909090907,52,1,22,DL_MelancholicFolk_Guitar,-1,-1
63,100,0.12272727272727273,422,1,22,DL_MelancholicFolk_Guitar,-1,-1
53,100,0.3181818181818182,461,0,22,DL_MelancholicFolk_Guitar,-1,-1
53,100,0.1,540,0,22,DL_MelancholicFolk_Guitar,-1,-1
41,100,0.9409090909090909,571,0,22,DL_MelancholicFolk_Guitar,-1,-1
60,100,0.1,835,1,22,DL_MelancholicFolk_Guitar,-1,-1
41,100,0.5181818181818182,876,0,22,DL_MelancholicFolk_Guitar,-1,-1
41,100,0.12272727272727273,113,1,23,DL_MelancholicFolk_Guitar,-1,-1
41,100,0.16363636363636364,158,0,23,DL_MelancholicFolk_Guitar,-1,-1
55,100,0.6,370,1,23,DL_MelancholicFolk_Guitar,-1,-1
55,100,0.11818181818181818,546,0,23,DL_MelancholicFolk_Guitar,-1,-1
53,100,0.1590909090909091,625,0,23,DL_MelancholicFolk_Guitar,-1,-1
53,100,0.1,65,1,24,DL_MelancholicFolk_Guitar,-1,-1
50,100,0.7,220,0,24,DL_MelancholicFolk_Guitar,-1,-1
58,100,0.2590909090909091,83,1,25,DL_MelancholicFolk_Guitar,-1,-1
51,100,0.3409090909090909,320,1,25,DL_MelancholicFolk_Guitar,-1,-1
53,100,0.2409090909090909,409,0,25,DL_MelancholicFolk_Guitar,-1,-1
41,100,0.3409090909090909,492,0,25,DL_MelancholicFolk_Guitar,-1,-1
41,100,0.6409090909090909,571,0,25,DL_MelancholicFolk_Guitar,-1,-1
60,100,0.2409090909090909,712,0,25,DL_MelancholicFolk_Guitar,-1,-1
41,100,0.1409090909090909,866,0,25,DL_MelancholicFolk_Guitar,-1,-1
41,100,0.23636363636363636,106,1,26,DL_MelancholicFolk_Guitar,-1,-1
41,100,0.21818181818181817,175,0,26,DL_MelancholicFolk_Guitar,-1,-1
53,100,0.2818181818181818,241,0,26,DL_MelancholicFolk_Guitar,-1,-1
46,100,0.21818181818181817,405,0,26,DL_MelancholicFolk_Guitar,-1,-1
53,100,0.35909090909090907,480,0,26,DL_MelancholicFolk_Guitar,-1,-1
58,100,0.5,590,0,26,DL_MelancholicFolk_Guitar,-1,-1
53,100,0.2818181818181818,729,0,26,DL_MelancholicFolk_Guitar,-1,-1
53,100,0.16363636363636364,818,0,26,DL_MelancholicFolk_Guitar,-1,-1
50,100,0.4590909090909091,484,1,27,DL_MelancholicFolk_Guitar,-1,-1
51,100,0.2409090909090909,748,1,27,DL_MelancholicFolk_Guitar,-1,-1
53,100,0.1409090909090909,339,1,28,DL_MelancholicFolk_Guitar,-1,-1
41,100,0.8590909090909091,426,0,28,DL_MelancholicFolk_Guitar,-1,-1
41,100,0.42272727272727273,619,0,28,DL_MelancholicFolk_Guitar,-1,-1
41,100,0.18181818181818182,748,0,28,DL_MelancholicFolk_Guitar,-1,-1
41,100,0.4409090909090909,791,0,28,DL_MelancholicFolk_Guitar,-1,-1
41,100,0.2,44,1,29,DL_MelancholicFolk_Guitar,-1,-1
55,100,1.059090909090909,254,1,29,DL_MelancholicFolk_Guitar,-1,-1
58,100,0.5,523,1,29,DL_MelancholicFolk_Guitar,-1,-1
50,100,1.2,870,1,29,DL_MelancholicFolk_Guitar,-1,-1
53,100,0.18181818181818182,430,1,30,DL_MelancholicFolk_Guitar,-1,-1
53,100,0.2590909090909091,501,0,30,DL_MelancholicFolk_Guitar,-1,-1
51,100,0.38181818181818183,615,0,30,DL_MelancholicFolk_Guitar,-1,-1
51,100,0.7818181818181819,717,0,30,DL_MelancholicFolk_Guitar,-1,-1
58,100,0.6363636363636364,40,1,31,DL_MelancholicFolk_Guitar,-1,-1
51,100,0.2,193,0,31,DL_MelancholicFolk_Guitar,-1,-1
53,100,0.13636363636363635,303,0,31,DL_MelancholicFolk_Guitar,-1,-1
41,100,1.3409090909090908,360,0,31,DL_MelancholicFolk_Guitar,-1,-1
41,100,0.5409090909090909,673,1,31,DL_MelancholicFolk_Guitar,-1,-1
60,100,0.1590909090909091,791,0,31,DL_MelancholicFolk_Guitar,-1,-1
41,100,0.11818181818181818,845,0,31,DL_MelancholicFolk_Guitar,-1,-1
41,100,0.1409090909090909,53,1,32,DL_MelancholicFolk_Guitar,-1,-1
50,100,1.440909090909091,114,0,32,DL_MelancholicFolk_Guitar,-1,-1
41,100,0.1590909090909091,606,1,32,DL_MelancholicFolk_Guitar,-1,-1
58,100,0.1590909090909091,765,0,32,DL_MelancholicFolk_Guitar,-1,-1
55,100,1.1409090909090909,818,0,32,DL_MelancholicFolk_Guitar,-1,-1
53,100,0.11818181818181818,193,1,33,DL_MelancholicFolk_Guitar,-1,-1
53,100,0.1409090909090909,361,0,33,DL_MelancholicFolk_Guitar,-1,-1
53,100,0.1409090909090909,453,0,33,DL_MelancholicFolk_Guitar,-1,-1
63,100,0.2772727272727273,765,1,33,DL_MelancholicFolk_Guitar,-1,-1
55,100,0.32272727272727275,48,1,34,DL_MelancholicFolk_Guitar,-1,-1
55,100,0.6,136,0,34,DL_MelancholicFolk_Guitar,-1,-1
62,100,0.4818181818181818,298,0,34,DL_MelancholicFolk_Guitar,-1,-1
50,100,0.6818181818181818,408,0,34,DL_MelancholicFolk_Guitar,-1,-1
60,100,0.6409090909090909,616,1,34,DL_MelancholicFolk_Guitar,-1,-1
53,100,0.1590909090909091,765,0,34,DL_MelancholicFolk_Guitar,-1,-1
53,100,0.2,861,0,34,DL_MelancholicFolk_Guitar,-1,-1
53,100,0.2409090909090909,628,1,35,DL_MelancholicFolk_Guitar,-1,-1
41,100,0.12272727272727273,738,0,35,DL_MelancholicFolk_Guitar,-1,-1
53,100,0.8363636363636363,765,0,35,DL_MelancholicFolk_Guitar,-1,-1
53,100,0.1590909090909091,118,1,36,DL_MelancholicFolk_Guitar,-1,-1
41,100,0.5,153,0,36,DL_MelancholicFolk_Guitar,-1,-1
53,100,0.22272727272727272,311,0,36,DL_MelancholicFolk_Guitar,-1,-1
41,100,0.32272727272727275,364,0,36,DL_MelancholicFolk_Guitar,-1,-1
53,100,0.9409090909090909,474,0,36,DL_MelancholicFolk_Guitar,-1,-1
41,100,1.6818181818181819,681,1,36,DL_MelancholicFolk_Guitar,-1,-1
41,100,1.5636363636363637,179,1,37,DL_MelancholicFolk_Guitar,-1,-1
53,100,0.17727272727272728,523,1,37,DL_MelancholicFolk_Guitar,-1,-1
41,100,0.2,563,0,37,DL_MelancholicFolk_Guitar,-1,-1
60,100,0.11818181818181818,611,0,37,DL_MelancholicFolk_Guitar,-1,-1
41,100,0.5409090909090909,638,0,37,DL_MelancholicFolk_Guitar,-1,-1
41,100,0.12272727272727273,761,0,37,DL_MelancholicFolk_Guitar,-1,-1
58,100,0.4636363636363636,69,1,38,DL_MelancholicFolk_Guitar,-1,-1
46,100,0.2409090909090909,364,1,38,DL_MelancholicFolk_Guitar,-1,-1
53,100,0.4,444,1,39,DL_MelancholicFolk_Guitar,-1,-1
60,100,0.22272727272727272,694,1,39,DL_MelancholicFolk_Guitar,-1,-1
60,100,0.21818181818181817,748,0,39,DL_MelancholicFolk_Guitar,-1,-1
41,100,0.2818181818181818,796,0,39,DL_MelancholicFolk_Guitar,-1,-1
41,100,0.17727272727272728,128,1,40,DL_MelancholicFolk_Guitar,-1,-1
41,100,0.1409090909090909,268,0,40,DL_MelancholicFolk_Guitar,-1,-1
41,100,0.18181818181818182,321,0,40,DL_MelancholicFolk_Guitar,-1,-1
41,100,0.4,370,0,40,DL_MelancholicFolk_Guitar,-1,-1
41,100,0.4,480,0,40,DL_MelancholicFolk_Guitar,-1,-1
53,100,0.22272727272727272,651,0,40,DL_MelancholicFolk_Guitar,-1,-1
55,100,1.3409090909090908,813,0,40,DL_MelancholicFolk_Guitar,-1,-1
58,100,0.7227272727272728,246,1,41,DL_MelancholicFolk_Guitar,-1,-1
58,100,0.4,550,1,41,DL_MelancholicFolk_Guitar,-1,-1
55,100,0.6590909090909091,735,0,41,DL_MelancholicFolk_Guitar,-1,-1
58,100,0.18181818181818182,179,1,42,DL_MelancholicFolk_Guitar,-1,-1
63,100,0.2818181818181818,334,0,42,DL_MelancholicFolk_Guitar,-1,-1
58,100,0.13636363636363635,545,1,42,DL_MelancholicFolk_Guitar,-1,-1
51,100,0.6772727272727272,810,1,42,DL_MelancholicFolk_Guitar,-1,-1
63,100,0.11818181818181818,241,1,43,DL_MelancholicFolk_Guitar,-1,-1
51,100,0.2,528,1,43,DL_MelancholicFolk_Guitar,-1,-1
58,100,0.35909090909090907,581,0,43,DL_MelancholicFolk_Guitar,-1,-1
55,100,1.040909090909091,756,0,43,DL_MelancholicFolk_Guitar,-1,-1
55,100,0.4,364,1,44,DL_MelancholicFolk_Guitar,-1,-1
58,100,0.2409090909090909,606,1,44,DL_MelancholicFolk_Guitar,-1,-1
58,100,0.6181818181818182,836,1,44,DL_MelancholicFolk_Guitar,-1,-1
53,100,0.1590909090909091,101,1,45,DL_MelancholicFolk_Guitar,-1,-1
58,100,0.1409090909090909,220,0,45,DL_MelancholicFolk_Guitar,-1,-1
53,100,0.1590909090909091,584,1,45,DL_MelancholicFolk_Guitar,-1,-1
60,100,0.8772727272727273,8,1,46,DL_MelancholicFolk_Guitar,-1,-1
60,100,0.5818181818181818,373,1,46,DL_MelancholicFolk_Guitar,-1,-1
53,100,0.4,515,0,46,DL_MelancholicFolk_Guitar,-1,-1
51,100,0.9227272727272727,673,0,46,DL_MelancholicFolk_Guitar,-1,-1
51,100,0.740909090909091,101,1,47,DL_MelancholicFolk_Guitar,-1,-1
58,100,0.12272727272727273,276,0,47,DL_MelancholicFolk_Guitar,-1,-1
51,100,0.2818181818181818,444,0,47,DL_MelancholicFolk_Guitar,-1,-1
51,100,0.1409090909090909,584,0,47,DL_MelancholicFolk_Guitar,-1,-1
51,100,0.2409090909090909,619,0,47,DL_MelancholicFolk_Guitar,-1,-1
51,100,0.2,681,0,47,DL_MelancholicFolk_Guitar,-1,-1
51,100,0.3,810,0,47,DL_MelancholicFolk_Guitar,-1,-1
58,100,0.6227272727272727,48,1,48,DL_MelancholicFolk_Guitar,-1,-1
53,100,0.4,188,0,48,DL_MelancholicFolk_Guitar,-1,-1
60,100,0.5,413,1,48,DL_MelancholicFolk_Guitar,-1,-1
41,100,0.1,581,0,48,DL_MelancholicFolk_Guitar,-1,-1
53,100,0.2772727272727273,603,0,48,DL_MelancholicFolk_Guitar,-1,-1
53,100,0.2,668,0,48,DL_MelancholicFolk_Guitar,-1,-1
41,100,0.17727272727272728,743,0,48,DL_MelancholicFolk_Guitar,-1,-1
41,100,0.13636363636363635,788,0,48,DL_MelancholicFolk_Guitar,-1,-1
53,100,0.8181818181818182,96,1,49,DL_MelancholicFolk_Guitar,-1,-1
41,100,0.11818181818181818,308,1,49,DL_MelancholicFolk_Guitar,-1,-1
53,100,0.4409090909090909,351,0,49,DL_MelancholicFolk_Guitar,-1,-1
53,100,0.23636363636363636,458,0,49,DL_MelancholicFolk_Guitar,-1,-1
58,100,0.35909090909090907,651,0,49,DL_MelancholicFolk_Guitar,-1,-1
50,100,0.4590909090909091,418,1,50,DL_MelancholicFolk_Guitar,-1,-1
58,100,0.5409090909090909,716,1,50,DL_MelancholicFolk_Guitar,-1,-1
53,100,0.1409090909090909,858,0,50,DL_MelancholicFolk_Guitar,-1,-1
58,100,0.17727272727272728,8,1,51,DL_MelancholicFolk_Guitar,-1,-1
53,100,0.2,48,0,51,DL_MelancholicFolk_Guitar,-1,-1
58,100,0.11818181818181818,96,0,51,DL_MelancholicFolk_Guitar,-1,-1
51,100,1.3227272727272728,144,0,51,DL_MelancholicFolk_Guitar,-1,-1
53,100,0.21818181818181817,448,1,51,DL_MelancholicFolk_Guitar,-1,-1
53,100,0.17727272727272728,523,0,51,DL_MelancholicFolk_Guitar,-1,-1
53,100,0.35909090909090907,568,0,51,DL_MelancholicFolk_Guitar,-1,-1
41,100,0.11818181818181818,700,0,51,DL_MelancholicFolk_Guitar,-1,-1
46,100,0.6409090909090909,801,0,51,DL_MelancholicFolk_Guitar,-1,-1
62,100,0.1590909090909091,153,1,52,DL_MelancholicFolk_Guitar,-1,-1
60,100,0.12272727272727273,268,0,52,DL_MelancholicFolk_Guitar,-1,-1
62,100,0.18181818181818182,466,1,52,DL_MelancholicFolk_Guitar,-1,-1
60,100,0.5409090909090909,598,0,52,DL_MelancholicFolk_Guitar,-1,-1
53,100,0.18181818181818182,224,1,53,DL_MelancholicFolk_Guitar,-1,-1
51,100,0.18181818181818182,308,0,53,DL_MelancholicFolk_Guitar,-1,-1
51,100,0.35909090909090907,801,1,53,DL_MelancholicFolk_Guitar,-1,-1
53,100,0.16363636363636364,69,1,54,DL_MelancholicFolk_Guitar,-1,-1
53,100,0.7181818181818181,215,0,54,DL_MelancholicFolk_Guitar,-1,-1
53,100,0.37727272727272726,391,0,54,DL_MelancholicFolk_Guitar,-1,-1
41,100,0.12272727272727273,474,0,54,DL_MelancholicFolk_Guitar,-1,-1
53,100,0.2590909090909091,501,0,54,DL_MelancholicFolk_Guitar,-1,-1
60,100,0.1409090909090909,606,0,54,DL_MelancholicFolk_Guitar,-1,-1
55,100,0.1409090909090909,735,0,54,DL_MelancholicFolk_Guitar,-1,-1
55,100,0.2590909090909091,338,1,55,DL_MelancholicFolk_Guitar,-1,-1
55,100,0.21818181818181817,413,0,55,DL_MelancholicFolk_Guitar,-1,-1
50,100,0.4590909090909091,691,1,55,DL_MelancholicFolk_Guitar,-1,-1
53,100,0.17727272727272728,75,1,56,DL_MelancholicFolk_Guitar,-1,-1
58,100,0.2,114,0,56,DL_MelancholicFolk_Guitar,-1,-1
58,100,0.18181818181818182,179,0,56,DL_MelancholicFolk_Guitar,-1,-1
51,100,0.6772727272727272,238,0,56,DL_MelancholicFolk_Guitar,-1,-1
58,100,0.18181818181818182,483,1,56,DL_MelancholicFolk_Guitar,-1,-1
60,100,0.41818181818181815,8,1,57,DL_MelancholicFolk_Guitar,-1,-1
41,100,0.18181818181818182,114,0,57,DL_MelancholicFolk_Guitar,-1,-1
41,100,0.2590909090909091,211,0,57,DL_MelancholicFolk_Guitar,-1,-1
41,100,0.17727272727272728,273,0,57,DL_MelancholicFolk_Guitar,-1,-1
41,100,0.5181818181818182,361,0,57,DL_MelancholicFolk_Guitar,-1,-1
53,100,0.3,488,0,57,DL_MelancholicFolk_Guitar,-1,-1
60,100,0.1409090909090909,593,0,57,DL_MelancholicFolk_Guitar,-1,-1
62,100,0.21818181818181817,325,1,58,DL_MelancholicFolk_Guitar,-1,-1
60,100,1.440909090909091,418,0,58,DL_MelancholicFolk_Guitar,-1,-1
46,100,0.4636363636363636,796,1,58,DL_MelancholicFolk_Guitar,-1,-1
51,100,0.3,179,1,59,DL_MelancholicFolk_Guitar,-1,-1
51,100,0.7181818181818181,251,0,59,DL_MelancholicFolk_Guitar,-1,-1
51,100,0.18181818181818182,453,1,59,DL_MelancholicFolk_Guitar,-1,-1
51,100,0.4,576,0,59,DL_MelancholicFolk_Guitar,-1,-1
51,100,0.1409090909090909,668,0,59,DL_MelancholicFolk_Guitar,-1,-1
51,100,0.18181818181818182,703,0,59,DL_MelancholicFolk_Guitar,-1,-1
58,100,0.2818181818181818,751,0,59,DL_MelancholicFolk_Guitar,-1,-1
60,100,0.11818181818181818,21,1,60,DL_MelancholicFolk_Guitar,-1,-1
53,100,0.1,91,0,60,DL_MelancholicFolk_Guitar,-1,-1
53,100,0.1409090909090909,131,0,60,DL_MelancholicFolk_Guitar,-1,-1
60,100,0.4,176,0,60,DL_MelancholicFolk_Guitar,-1,-1
53,100,0.1590909090909091,263,0,60,DL_MelancholicFolk_Guitar,-1,-1
41,100,0.1409090909090909,298,0,60,DL_MelancholicFolk_Guitar,-1,-1
53,100,0.21818181818181817,330,0,60,DL_MelancholicFolk_Guitar,-1,-1
53,100,0.1590909090909091,426,0,60,DL_MelancholicFolk_Guitar,-1,-1
55,100,0.41818181818181815,646,1,60,DL_MelancholicFolk_Guitar,-1,-1
58,100,0.12272727272727273,246,1,61,DL_MelancholicFolk_Guitar,-1,-1
60,100,0.5409090909090909,541,1,61,DL_MelancholicFolk_Guitar,-1,-1
60,100,0.7636363636363637,664,0,61,DL_MelancholicFolk_Guitar,-1,-1
53,100,0.16363636363636364,839,0,61,DL_MelancholicFolk_Guitar,-1,-1
57,100,0.17727272727272728,61,1,62,DL_MelancholicFolk_Guitar,-1,-1
51,100,0.2636363636363636,114,0,62,DL_MelancholicFolk_Guitar,-1,-1
58,100,0.11818181818181818,418,1,62,DL_MelancholicFolk_Guitar,-1,-1
51,100,0.5590909090909091,474,0,62,DL_MelancholicFolk_Guitar,-1,-1
51,100,0.1409090909090909,603,0,62,DL_MelancholicFolk_Guitar,-1,-1
51,100,0.759090909090909,668,0,62,DL_MelancholicFolk_Guitar,-1,-1
58,100,0.2,853,0,62,DL_MelancholicFolk_Guitar,-1,-1
51,100,0.16363636363636364,48,1,63,DL_MelancholicFolk_Guitar,-1,-1
51,100,0.740909090909091,188,0,63,DL_MelancholicFolk_Guitar,-1,-1
53,100,0.16363636363636364,509,1,63,DL_MelancholicFolk_Guitar,-1,-1
46,100,0.2772727272727273,611,0,63,DL_MelancholicFolk_Guitar,-1,-1
53,100,0.1590909090909091,286,1,64,DL_MelancholicFolk_Guitar,-1,-1
53,100,0.1409090909090909,440,0,64,DL_MelancholicFolk_Guitar,-1,-1
60,100,0.4,502,0,64,DL_MelancholicFolk_Guitar,-1,-1
53,100,0.35909090909090907,760,1,64,DL_MelancholicFolk_Guitar,-1,-1
51,100,1.3,35,1,65,DL_MelancholicFolk_Guitar,-1,-1
51,100,0.13636363636363635,347,1,65,DL_MelancholicFolk_Guitar,-1,-1
51,100,0.1409090909090909,417,0,65,DL_MelancholicFolk_Guitar,-1,-1
51,100,0.37727272727272726,624,1,65,DL_MelancholicFolk_Guitar,-1,-1
58,100,0.35909090909090907,760,0,65,DL_MelancholicFolk_Guitar,-1,-1
58,100,0.16363636363636364,862,0,65,DL_MelancholicFolk_Guitar,-1,-1
58,100,0.7,106,1,66,DL_MelancholicFolk_Guitar,-1,-1
63,100,0.18181818181818182,333,1,66,DL_MelancholicFolk_Guitar,-1,-1
53,100,0.17727272727272728,436,0,66,DL_MelancholicFolk_Guitar,-1,-1
53,100,0.2590909090909091,519,0,66,DL_MelancholicFolk_Guitar,-1,-1
41,100,0.1,576,0,66,DL_MelancholicFolk_Guitar,-1,-1
41,100,0.6818181818181818,616,0,66,DL_MelancholicFolk_Guitar,-1,-1
41,100,0.4,792,0,66,DL_MelancholicFolk_Guitar,-1,-1
41,100,0.2,69,1,67,DL_MelancholicFolk_Guitar,-1,-1
53,100,0.2,127,0,67,DL_MelancholicFolk_Guitar,-1,-1
53,100,0.12272727272727273,202,0,67,DL_MelancholicFolk_Guitar,-1,-1
41,100,0.41818181818181815,229,0,67,DL_MelancholicFolk_Guitar,-1,-1
41,100,0.13636363636363635,326,0,67,DL_MelancholicFolk_Guitar,-1,-1
41,100,0.2,409,0,67,DL_MelancholicFolk_Guitar,-1,-1
41,100,0.1,470,0,67,DL_MelancholicFolk_Guitar,-1,-1
41,100,0.6363636363636364,546,0,67,DL_MelancholicFolk_Guitar,-1,-1
41,100,0.17727272727272728,713,0,67,DL_MelancholicFolk_Guitar,-1,-1
41,100,0.12272727272727273,760,0,67,DL_MelancholicFolk_Guitar,-1,-1
53,100,0.8409090909090909,862,0,67,DL_MelancholicFolk_Guitar,-1,-1
46,100,0.35909090909090907,413,1,69,DL_MelancholicFolk_Guitar,-1,-1
58,100,0.1590909090909091,493,0,69,DL_MelancholicFolk_Guitar,-1,-1
46,100,0.7818181818181819,527,0,69,DL_MelancholicFolk_Guitar,-1,-1
46,100,0.9,826,1,69,DL_MelancholicFolk_Guitar,-1,-1
58,100,1.3772727272727272,470,1,70,DL_MelancholicFolk_Guitar,-1,-1
60,100,1.518181818181818,787,1,70,DL_MelancholicFolk_Guitar,-1,-1
60,100,1.3,0,1,72,DL_MelancholicFolk_Guitar,-1,-1
58,100,1.2227272727272727,333,1,72,DL_MelancholicFolk_Guitar,-1,-1
55,100,0.1,663,1,72,DL_MelancholicFolk_Guitar,-1,-1
62,100,1.518181818181818,83,1,73,DL_MelancholicFolk_Guitar,-1,-1
55,100,0.7,426,1,73,DL_MelancholicFolk_Guitar,-1,-1
53,100,1.518181818181818,722,1,73,DL_MelancholicFolk_Guitar,-1,-1
60,100,0.759090909090909,286,1,74,DL_MelancholicFolk_Guitar,-1,-1
57,100,0.5181818181818182,546,1,74,DL_MelancholicFolk_Guitar,-1,-1
57,100,0.5227272727272727,695,0,74,DL_MelancholicFolk_Guitar,-1,-1
51,100,1.440909090909091,263,1,75,DL_MelancholicFolk_Guitar,-1,-1
53,100,0.759090909090909,30,1,76,DL_MelancholicFolk_Guitar,-1,-1
41,100,0.32272727272727275,223,0,76,DL_MelancholicFolk_Guitar,-1,-1
60,100,0.1409090909090909,316,0,76,DL_MelancholicFolk_Guitar,-1,-1
58,100,0.8181818181818182,514,0,76,DL_MelancholicFolk_Guitar,-1,-1
46,100,1.2818181818181817,695,0,76,DL_MelancholicFolk_Guitar,-1,-1
60,100,0.2,119,1,77,DL_MelancholicFolk_Guitar,-1,-1
60,100,0.17727272727272728,229,0,77,DL_MelancholicFolk_Guitar,-1,-1
60,100,0.5590909090909091,307,0,77,DL_MelancholicFolk_Guitar,-1,-1
55,100,1.3590909090909091,449,0,77,DL_MelancholicFolk_Guitar,-1,-1
51,100,1.4181818181818182,197,1,78,DL_MelancholicFolk_Guitar,-1,-1
58,100,0.38181818181818183,752,1,78,DL_MelancholicFolk_Guitar,-1,-1
53,100,0.759090909090909,849,0,78,DL_MelancholicFolk_Guitar,-1,-1
41,100,0.1590909090909091,237,1,79,DL_MelancholicFolk_Guitar,-1,-1
60,100,0.2818181818181818,386,0,79,DL_MelancholicFolk_Guitar,-1,-1
58,100,0.4,509,0,79,DL_MelancholicFolk_Guitar,-1,-1
46,100,1.6181818181818182,637,0,79,DL_MelancholicFolk_Guitar,-1,-1
46,100,0.6818181818181818,220,1,80,DL_MelancholicFolk_Guitar,-1,-1
46,100,0.2636363636363636,377,0,80,DL_MelancholicFolk_Guitar,-1,-1
58,100,0.2,440,0,80,DL_MelancholicFolk_Guitar,-1,-1
46,100,0.1590909090909091,483,0,80,DL_MelancholicFolk_Guitar,-1,-1
58,100,0.18181818181818182,519,0,80,DL_MelancholicFolk_Guitar,-1,-1
46,100,0.5181818181818182,572,0,80,DL_MelancholicFolk_Guitar,-1,-1
60,100,1.1409090909090909,703,0,80,DL_MelancholicFolk_Guitar,-1,-1
51,100,0.9181818181818182,83,1,81,DL_MelancholicFolk_Guitar,-1,-1
51,100,0.6409090909090909,320,1,81,DL_MelancholicFolk_Guitar,-1,-1
51,100,0.1590909090909091,475,0,81,DL_MelancholicFolk_Guitar,-1,-1
63,100,0.11818181818181818,660,0,81,DL_MelancholicFolk_Guitar,-1,-1
63,100,0.1,690,0,81,DL_MelancholicFolk_Guitar,-1,-1
53,100,0.35909090909090907,770,0,81,DL_MelancholicFolk_Guitar,-1,-1
53,100,0.12272727272727273,862,0,81,DL_MelancholicFolk_Guitar,-1,-1
53,100,0.5772727272727273,30,1,82,DL_MelancholicFolk_Guitar,-1,-1
53,100,0.21818181818181817,163,0,82,DL_MelancholicFolk_Guitar,-1,-1
60,100,0.5227272727272727,299,0,82,DL_MelancholicFolk_Guitar,-1,-1
60,100,0.36363636363636365,443,0,82,DL_MelancholicFolk_Guitar,-1,-1
53,100,0.2409090909090909,540,0,82,DL_MelancholicFolk_Guitar,-1,-1
46,100,0.4818181818181818,629,0,82,DL_MelancholicFolk_Guitar,-1,-1
58,100,0.2590909090909091,743,0,82,DL_MelancholicFolk_Guitar,-1,-1
58,100,0.18181818181818182,805,0,82,DL_MelancholicFolk_Guitar,-1,-1
53,100,0.7,857,0,82,DL_MelancholicFolk_Guitar,-1,-1
58,100,0.1,193,1,83,DL_MelancholicFolk_Guitar,-1,-1
46,100,0.13636363636363635,260,0,83,DL_MelancholicFolk_Guitar,-1,-1
62,100,0.1409090909090909,800,1,83,DL_MelancholicFolk_Guitar,-1,-1
51,100,0.38181818181818183,92,1,84,DL_MelancholicFolk_Guitar,-1,-1
58,100,0.3,330,1,84,DL_MelancholicFolk_Guitar,-1,-1
58,100,0.5181818181818182,502,0,84,DL_MelancholicFolk_Guitar,-1,-1
58,100,0.2590909090909091,637,0,84,DL_MelancholicFolk_Guitar,-1,-1
53,100,0.5818181818181818,726,0,84,DL_MelancholicFolk_Guitar,-1,-1
60,100,0.2590909090909091,30,1,85,DL_MelancholicFolk_Guitar,-1,-1
60,100,0.12272727272727273,100,0,85,DL_MelancholicFolk_Guitar,-1,-1
57,100,0.4818181818181818,166,0,85,DL_MelancholicFolk_Guitar,-1,-1
53,100,0.37727272727272726,316,0,85,DL_MelancholicFolk_Guitar,-1,-1
60,100,0.1590909090909091,417,0,85,DL_MelancholicFolk_Guitar,-1,-1
53,100,0.2409090909090909,470,0,85,DL_MelancholicFolk_Guitar,-1,-1
46,100,0.7772727272727272,612,0,85,DL_MelancholicFolk_Guitar,-1,-1
58,100,0.8818181818181818,817,1,85,DL_MelancholicFolk_Guitar,-1,-1
53,100,0.32272727272727275,136,1,86,DL_MelancholicFolk_Guitar,-1,-1
55,100,0.3181818181818182,220,0,86,DL_MelancholicFolk_Guitar,-1,-1
58,100,0.2409090909090909,339,0,86,DL_MelancholicFolk_Guitar,-1,-1
53,100,0.1409090909090909,550,1,86,DL_MelancholicFolk_Guitar,-1,-1
58,100,0.4590909090909091,612,0,86,DL_MelancholicFolk_Guitar,-1,-1
58,100,0.13636363636363635,810,0,86,DL_MelancholicFolk_Guitar,-1,-1
58,100,0.1,844,0,86,DL_MelancholicFolk_Guitar,-1,-1
58,100,0.6409090909090909,119,1,87,DL_MelancholicFolk_Guitar,-1,-1
51,100,0.11818181818181818,286,0,87,DL_MelancholicFolk_Guitar,-1,-1
51,100,0.5409090909090909,316,0,87,DL_MelancholicFolk_Guitar,-1,-1
51,100,0.5772727272727273,449,0,87,DL_MelancholicFolk_Guitar,-1,-1
53,100,0.759090909090909,633,0,87,DL_MelancholicFolk_Guitar,-1,-1
60,100,0.6772727272727272,810,0,87,DL_MelancholicFolk_Guitar,-1,-1
57,100,0.2,87,1,88,DL_MelancholicFolk_Guitar,-1,-1
57,100,0.37727272727272726,140,0,88,DL_MelancholicFolk_Guitar,-1,-1
60,100,0.12272727272727273,223,0,88,DL_MelancholicFolk_Guitar,-1,-1
60,100,0.5772727272727273,273,0,88,DL_MelancholicFolk_Guitar,-1,-1
53,100,0.7227272727272728,399,0,88,DL_MelancholicFolk_Guitar,-1,-1
46,100,0.18181818181818182,572,0,88,DL_MelancholicFolk_Guitar,-1,-1
53,100,0.759090909090909,624,0,88,DL_MelancholicFolk_Guitar,-1,-1
58,100,0.2772727272727273,832,1,88,DL_MelancholicFolk_Guitar,-1,-1
53,100,0.38181818181818183,22,1,89,DL_MelancholicFolk_Guitar,-1,-1
58,100,0.2409090909090909,140,0,89,DL_MelancholicFolk_Guitar,-1,-1
60,100,0.4,250,0,89,DL_MelancholicFolk_Guitar,-1,-1
58,100,0.18181818181818182,343,0,89,DL_MelancholicFolk_Guitar,-1,-1
58,100,0.5,386,0,89,DL_MelancholicFolk_Guitar,-1,-1
60,100,0.1409090909090909,559,0,89,DL_MelancholicFolk_Guitar,-1,-1
60,100,0.9818181818181818,637,0,89,DL_MelancholicFolk_Guitar,-1,-1
60,100,0.5590909090909091,866,1,89,DL_MelancholicFolk_Guitar,-1,-1
41,100,0.6409090909090909,110,1,90,DL_MelancholicFolk_Guitar,-1,-1
53,100,0.33636363636363636,260,0,90,DL_MelancholicFolk_Guitar,-1,-1
41,100,0.2590909090909091,343,0,90,DL_MelancholicFolk_Guitar,-1,-1
57,100,0.6181818181818182,436,0,90,DL_MelancholicFolk_Guitar,-1,-1
53,100,0.22272727272727272,585,0,90,DL_MelancholicFolk_Guitar,-1,-1
53,100,0.3,660,0,90,DL_MelancholicFolk_Guitar,-1,-1
60,100,0.11818181818181818,726,0,90,DL_MelancholicFolk_Guitar,-1,-1
53,100,0.1,770,0,90,DL_MelancholicFolk_Guitar,-1,-1
60,100,0.16363636363636364,862,0,90,DL_MelancholicFolk_Guitar,-1,-1
60,100,0.5636363636363636,26,1,91,DL_MelancholicFolk_Guitar,-1,-1
60,100,0.1,153,0,91,DL_MelancholicFolk_Guitar,-1,-1
53,100,0.1409090909090909,286,0,91,DL_MelancholicFolk_Guitar,-1,-1
58,100,0.5181818181818182,396,0,91,DL_MelancholicFolk_Guitar,-1,-1
46,100,0.1590909090909091,527,0,91,DL_MelancholicFolk_Guitar,-1,-1
58,100,0.12272727272727273,576,0,91,DL_MelancholicFolk_Guitar,-1,-1
58,100,0.32272727272727275,606,0,91,DL_MelancholicFolk_Guitar,-1,-1
53,100,0.13636363636363635,677,0,91,DL_MelancholicFolk_Guitar,-1,-1
58,100,0.2,707,0,91,DL_MelancholicFolk_Guitar,-1,-1
46,100,0.9818181818181818,752,0,91,DL_MelancholicFolk_Guitar,-1,-1
58,100,0.2590909090909091,96,1,92,DL_MelancholicFolk_Guitar,-1,-1
58,100,0.2,202,0,92,DL_MelancholicFolk_Guitar,-1,-1
46,100,0.6590909090909091,276,0,92,DL_MelancholicFolk_Guitar,-1,-1
53,100,0.1,440,0,92,DL_MelancholicFolk_Guitar,-1,-1
53,100,0.1,593,0,92,DL_MelancholicFolk_Guitar,-1,-1
57,100,0.3,783,0,92,DL_MelancholicFolk_Guitar,-1,-1
53,100,0.6,179,1,93,DL_MelancholicFolk_Guitar,-1,-1
57,100,0.3409090909090909,453,1,93,DL_MelancholicFolk_Guitar,-1,-1
57,100,0.3409090909090909,559,0,93,DL_MelancholicFolk_Guitar,-1,-1
60,100,0.9181818181818182,633,0,93,DL_MelancholicFolk_Guitar,-1,-1
53,100,0.18181818181818182,113,1,94,DL_MelancholicFolk_Guitar,-1,-1
50,100,0.6227272727272727,422,1,94,DL_MelancholicFolk_Guitar,-1,-1
53,100,0.11818181818181818,603,0,94,DL_MelancholicFolk_Guitar,-1,-1
53,100,0.38181818181818183,540,1,95,DL_MelancholicFolk_Guitar,-1,-1
53,100,0.2,663,0,95,DL_MelancholicFolk_Guitar,-1,-1
60,100,0.9636363636363636,796,0,95,DL_MelancholicFolk_Guitar,-1,-1
53,100,0.9,166,1,96,DL_MelancholicFolk_Guitar,-1,-1
60,100,0.2772727272727273,404,1,96,DL_MelancholicFolk_Guitar,-1,-1
60,100,1.3590909090909091,470,0,96,DL_MelancholicFolk_Guitar,-1,-1
53,100,0.7,40,1,97,DL_MelancholicFolk_Guitar,-1,-1
51,100,0.43636363636363634,237,0,97,DL_MelancholicFolk_Guitar,-1,-1
51,100,0.6409090909090909,373,0,97,DL_MelancholicFolk_Guitar,-1,-1
51,100,0.22272727272727272,532,0,97,DL_MelancholicFolk_Guitar,-1,-1
63,100,0.2,783,1,97,DL_MelancholicFolk_Guitar,-1,-1
53,100,0.1590909090909091,849,0,97,DL_MelancholicFolk_Guitar,-1,-1
57,100,0.1409090909090909,74,1,98,DL_MelancholicFolk_Guitar,-1,-1
53,100,0.1409090909090909,145,0,98,DL_MelancholicFolk_Guitar,-1,-1
60,100,0.35909090909090907,216,0,98,DL_MelancholicFolk_Guitar,-1,-1
60,100,0.11818181818181818,404,0,98,DL_MelancholicFolk_Guitar,-1,-1
53,100,0.4590909090909091,470,0,98,DL_MelancholicFolk_Guitar,-1,-1
53,100,0.5,629,0,98,DL_MelancholicFolk_Guitar,-1,-1
46,100,0.3409090909090909,862,1,98,DL_MelancholicFolk_Guitar,-1,-1
53,100,0.2,74,1,99,DL_MelancholicFolk_Guitar,-1,-1
46,100,0.11818181818181818,197,0,99,DL_MelancholicFolk_Guitar,-1,-1
58,100,0.33636363636363636,237,0,99,DL_MelancholicFolk_Guitar,-1,-1
62,100,0.9590909090909091,506,1,99,DL_MelancholicFolk_Guitar,-1,-1
53,100,0.1590909090909091,0,1,100,DL_MelancholicFolk_Guitar,-1,-1
58,100,0.12272727272727273,35,0,100,DL_MelancholicFolk_Guitar,-1,-1
51,100,2.481818181818182,157,0,100,DL_MelancholicFolk_Guitar,-1,-1
58,100,0.2,716,1,100,DL_MelancholicFolk_Guitar,-1,-1
53,100,0.35909090909090907,810,0,100,DL_MelancholicFolk_Guitar,-1,-1
60,100,0.3,176,1,101,DL_MelancholicFolk_Guitar,-1,-1
53,100,0.2772727272727273,250,0,101,DL_MelancholicFolk_Guitar,-1,-1
60,100,0.12272727272727273,333,0,101,DL_MelancholicFolk_Guitar,-1,-1
53,100,0.4409090909090909,386,0,101,DL_MelancholicFolk_Guitar,-1,-1
53,100,0.16363636363636364,576,0,101,DL_MelancholicFolk_Guitar,-1,-1
46,100,0.6,629,0,101,DL_MelancholicFolk_Guitar,-1,-1
58,100,0.5181818181818182,770,0,101,DL_MelancholicFolk_Guitar,-1,-1
58,100,0.2,43,1,102,DL_MelancholicFolk_Guitar,-1,-1
58,100,0.2409090909090909,123,0,102,DL_MelancholicFolk_Guitar,-1,-1
46,100,0.1590909090909091,206,0,102,DL_MelancholicFolk_Guitar,-1,-1
53,100,0.12272727272727273,255,0,102,DL_MelancholicFolk_Guitar,-1,-1
58,100,0.5409090909090909,286,0,102,DL_MelancholicFolk_Guitar,-1,-1
53,100,0.2590909090909091,417,0,102,DL_MelancholicFolk_Guitar,-1,-1
58,100,0.23636363636363636,502,0,102,DL_MelancholicFolk_Guitar,-1,-1
46,100,0.1409090909090909,553,0,102,DL_MelancholicFolk_Guitar,-1,-1
53,100,0.3409090909090909,629,0,102,DL_MelancholicFolk_Guitar,-1,-1
58,100,0.3,716,0,102,DL_MelancholicFolk_Guitar,-1,-1
51,100,2.522727272727273,92,1,103,DL_MelancholicFolk_Guitar,-1,-1
53,100,0.2409090909090909,726,1,103,DL_MelancholicFolk_Guitar,-1,-1
60,100,0.2590909090909091,110,1,104,DL_MelancholicFolk_Guitar,-1,-1
53,100,0.1,172,0,104,DL_MelancholicFolk_Guitar,-1,-1
53,100,0.2818181818181818,343,0,104,DL_MelancholicFolk_Guitar,-1,-1
62,100,0.42272727272727273,563,1,104,DL_MelancholicFolk_Guitar,-1,-1
62,100,0.1590909090909091,660,0,104,DL_MelancholicFolk_Guitar,-1,-1
62,100,0.1409090909090909,713,1,105,DL_MelancholicFolk_Guitar,-1,-1
53,100,0.6590909090909091,747,0,105,DL_MelancholicFolk_Guitar,-1,-1
51,100,1.440909090909091,22,1,106,DL_MelancholicFolk_Guitar,-1,-1
51,100,0.5590909090909091,383,1,106,DL_MelancholicFolk_Guitar,-1,-1
53,100,0.18181818181818182,673,1,106,DL_MelancholicFolk_Guitar,-1,-1
57,100,0.18181818181818182,726,0,106,DL_MelancholicFolk_Guitar,-1,-1
60,100,0.6409090909090909,844,0,106,DL_MelancholicFolk_Guitar,-1,-1
53,100,0.11818181818181818,119,1,107,DL_MelancholicFolk_Guitar,-1,-1
60,100,0.7772727272727272,250,0,107,DL_MelancholicFolk_Guitar,-1,-1
53,100,0.2590909090909091,430,0,107,DL_MelancholicFolk_Guitar,-1,-1
46,100,0.7,523,0,107,DL_MelancholicFolk_Guitar,-1,-1
58,100,0.1590909090909091,677,0,107,DL_MelancholicFolk_Guitar,-1,-1
53,100,0.2590909090909091,747,0,107,DL_MelancholicFolk_Guitar,-1,-1
46,100,0.1409090909090909,3,1,108,DL_MelancholicFolk_Guitar,-1,-1
46,100,0.6636363636363637,202,1,108,DL_MelancholicFolk_Guitar,-1,-1
58,100,0.12272727272727273,386,0,108,DL_MelancholicFolk_Guitar,-1,-1
46,100,0.4409090909090909,426,0,108,DL_MelancholicFolk_Guitar,-1,-1
46,100,0.6590909090909091,540,0,108,DL_MelancholicFolk_Guitar,-1,-1
53,100,0.16363636363636364,686,0,108,DL_MelancholicFolk_Guitar,-1,-1
51,100,0.2409090909090909,113,1,109,DL_MelancholicFolk_Guitar,-1,-1
53,100,0.2,597,1,109,DL_MelancholicFolk_Guitar,-1,-1
60,100,0.4590909090909091,650,0,109,DL_MelancholicFolk_Guitar,-1,-1
53,100,0.3409090909090909,779,0,109,DL_MelancholicFolk_Guitar,-1,-1
53,100,0.1590909090909091,857,0,109,DL_MelancholicFolk_Guitar,-1,-1
53,100,0.5181818181818182,43,1,110,DL_MelancholicFolk_Guitar,-1,-1
53,100,0.6636363636363637,179,0,110,DL_MelancholicFolk_Guitar,-1,-1
53,100,0.2772727272727273,370,0,110,DL_MelancholicFolk_Guitar,-1,-1
58,100,0.6818181818181818,443,0,110,DL_MelancholicFolk_Guitar,-1,-1
46,100,0.38181818181818183,593,0,110,DL_MelancholicFolk_Guitar,-1,-1
46,100,0.6636363636363637,707,0,110,DL_MelancholicFolk_Guitar,-1,-1
58,100,0.2,853,0,110,DL_MelancholicFolk_Guitar,-1,-1
58,100,0.1590909090909091,409,1,111,DL_MelancholicFolk_Guitar,-1,-1
58,100,0.6,493,0,111,DL_MelancholicFolk_Guitar,-1,-1
53,100,0.1409090909090909,624,0,111,DL_MelancholicFolk_Guitar,-1,-1
58,100,0.1590909090909091,656,0,111,DL_MelancholicFolk_Guitar,-1,-1
58,100,0.1590909090909091,726,0,111,DL_MelancholicFolk_Guitar,-1,-1
51,100,0.9363636363636364,787,0,111,DL_MelancholicFolk_Guitar,-1,-1
51,100,0.1590909090909091,299,1,112,DL_MelancholicFolk_Guitar,-1,-1
51,100,0.1409090909090909,339,0,112,DL_MelancholicFolk_Guitar,-1,-1
53,100,0.16363636363636364,532,0,112,DL_MelancholicFolk_Guitar,-1,-1
53,100,0.5590909090909091,593,0,112,DL_MelancholicFolk_Guitar,-1,-1
53,100,0.2590909090909091,0,1,113,DL_MelancholicFolk_Guitar,-1,-1
53,100,0.41818181818181815,110,0,113,DL_MelancholicFolk_Guitar,-1,-1
58,100,0.5227272727272727,399,1,113,DL_MelancholicFolk_Guitar,-1,-1
46,100,0.1590909090909091,572,0,113,DL_MelancholicFolk_Guitar,-1,-1
53,100,0.2409090909090909,624,0,113,DL_MelancholicFolk_Guitar,-1,-1
46,100,0.4409090909090909,686,0,113,DL_MelancholicFolk_Guitar,-1,-1
46,100,0.35909090909090907,66,1,114,DL_MelancholicFolk_Guitar,-1,-1
58,100,0.2,145,0,114,DL_MelancholicFolk_Guitar,-1,-1
58,100,0.8,220,0,114,DL_MelancholicFolk_Guitar,-1,-1
58,100,0.6227272727272727,409,0,114,DL_MelancholicFolk_Guitar,-1,-1
53,100,0.1,553,0,114,DL_MelancholicFolk_Guitar,-1,-1
51,100,2.2,810,1,114,DL_MelancholicFolk_Guitar,-1,-1
51,100,0.1,417,1,115,DL_MelancholicFolk_Guitar,-1,-1
60,100,0.2636363636363636,487,0,115,DL_MelancholicFolk_Guitar,-1,-1
41,100,0.9409090909090909,572,0,115,DL_MelancholicFolk_Guitar,-1,-1
60,100,0.23636363636363636,787,1,115,DL_MelancholicFolk_Guitar,-1,-1
41,100,3.1227272727272726,849,0,115,DL_MelancholicFolk_Guitar,-1,-1
60,100,0.23636363636363636,656,1,116,DL_MelancholicFolk_Guitar,-1,-1
60,100,2.7,734,0,116,DL_MelancholicFolk_Guitar,-1,-1
46,100,0.18181818181818182,597,1,117,DL_MelancholicFolk_Guitar,-1,-1
46,100,1.2181818181818183,703,0,117,DL_MelancholicFolk_Guitar,-1,-1
46,100,1.4227272727272726,255,1,118,DL_MelancholicFolk_Guitar,-1,-1
46,100,0.6590909090909091,585,1,118,DL_MelancholicFolk_Guitar,-1,-1
46,100,1.040909090909091,783,0,118,DL_MelancholicFolk_Guitar,-1,-1
46,100,0.32272727272727275,343,1,119,DL_MelancholicFolk_Guitar,-1,-1
46,100,0.41818181818181815,53,1,120,DL_MelancholicFolk_Guitar,-1,-1
46,100,0.6818181818181818,189,0,120,DL_MelancholicFolk_Guitar,-1,-1
46,100,0.1,373,0,120,DL_MelancholicFolk_Guitar,-1,-1
58,100,0.38181818181818183,817,1,1,DL_warm_Guitar,-1,-1
58,100,0.17727272727272728,259,1,2,DL_warm_Guitar,-1,-1
58,100,0.2818181818181818,330,0,2,DL_warm_Guitar,-1,-1
55,100,0.1,501,0,2,DL_warm_Guitar,-1,-1
58,100,0.18181818181818182,528,0,2,DL_warm_Guitar,-1,-1
58,100,0.759090909090909,607,0,2,DL_warm_Guitar,-1,-1
58,100,0.7227272727272728,510,1,3,DL_warm_Guitar,-1,-1
58,100,0.36363636363636365,840,1,3,DL_warm_Guitar,-1,-1
58,100,0.1409090909090909,43,1,4,DL_warm_Guitar,-1,-1
58,100,0.5818181818181818,770,1,4,DL_warm_Guitar,-1,-1
58,100,0.5,43,1,5,DL_warm_Guitar,-1,-1
58,100,0.2409090909090909,232,0,5,DL_warm_Guitar,-1,-1
51,100,0.38181818181818183,664,1,5,DL_warm_Guitar,-1,-1
58,100,0.2636363636363636,818,0,5,DL_warm_Guitar,-1,-1
58,100,0.8409090909090909,56,1,6,DL_warm_Guitar,-1,-1
58,100,0.5227272727272727,268,1,6,DL_warm_Guitar,-1,-1
58,100,0.16363636363636364,399,0,6,DL_warm_Guitar,-1,-1
58,100,0.2,440,0,6,DL_warm_Guitar,-1,-1
58,100,0.2590909090909091,770,1,6,DL_warm_Guitar,-1,-1
58,100,0.3409090909090909,69,1,7,DL_warm_Guitar,-1,-1
58,100,0.2409090909090909,299,1,7,DL_warm_Guitar,-1,-1
58,100,0.32272727272727275,355,0,7,DL_warm_Guitar,-1,-1
58,100,0.16363636363636364,444,0,7,DL_warm_Guitar,-1,-1
46,100,0.1,739,1,7,DL_warm_Guitar,-1,-1
58,100,0.13636363636363635,171,1,8,DL_warm_Guitar,-1,-1
58,100,0.11818181818181818,646,1,8,DL_warm_Guitar,-1,-1
56,100,0.1,721,0,8,DL_warm_Guitar,-1,-1
58,100,0.1,391,1,9,DL_warm_Guitar,-1,-1
58,100,0.5409090909090909,651,1,9,DL_warm_Guitar,-1,-1
58,100,0.3,818,0,9,DL_warm_Guitar,-1,-1
58,100,0.5772727272727273,75,1,10,DL_warm_Guitar,-1,-1
51,100,0.6181818181818182,479,1,10,DL_warm_Guitar,-1,-1
51,100,0.1,826,1,10,DL_warm_Guitar,-1,-1
58,100,0.5,53,1,11,DL_warm_Guitar,-1,-1
58,100,0.6,166,0,11,DL_warm_Guitar,-1,-1
58,100,0.5818181818181818,307,0,11,DL_warm_Guitar,-1,-1
58,100,0.32272727272727275,443,0,11,DL_warm_Guitar,-1,-1
60,100,0.740909090909091,826,1,11,DL_warm_Guitar,-1,-1
58,100,1.1590909090909092,132,1,12,DL_warm_Guitar,-1,-1
58,100,0.41818181818181815,414,1,12,DL_warm_Guitar,-1,-1
55,100,0.12272727272727273,541,0,12,DL_warm_Guitar,-1,-1
55,100,0.1409090909090909,572,0,12,DL_warm_Guitar,-1,-1
55,100,0.13636363636363635,611,0,12,DL_warm_Guitar,-1,-1
60,100,0.3,158,1,13,DL_warm_Guitar,-1,-1
58,100,0.1409090909090909,862,1,13,DL_warm_Guitar,-1,-1
51,100,0.17727272727272728,304,1,14,DL_warm_Guitar,-1,-1
58,100,0.21818181818181817,660,1,14,DL_warm_Guitar,-1,-1
58,100,0.11818181818181818,854,0,14,DL_warm_Guitar,-1,-1
58,100,0.4818181818181818,3,1,15,DL_warm_Guitar,-1,-1
58,100,0.8,254,1,15,DL_warm_Guitar,-1,-1
58,100,0.11818181818181818,876,1,15,DL_warm_Guitar,-1,-1
58,100,0.6818181818181818,110,1,16,DL_warm_Guitar,-1,-1
58,100,0.1409090909090909,364,1,16,DL_warm_Guitar,-1,-1
58,100,0.22272727272727272,430,0,16,DL_warm_Guitar,-1,-1
58,100,0.3409090909090909,691,1,16,DL_warm_Guitar,-1,-1
48,100,0.21818181818181817,845,0,16,DL_warm_Guitar,-1,-1
58,100,0.1409090909090909,21,1,17,DL_warm_Guitar,-1,-1
48,100,0.3181818181818182,131,0,17,DL_warm_Guitar,-1,-1
58,100,0.5409090909090909,246,0,17,DL_warm_Guitar,-1,-1
58,100,0.9590909090909091,497,1,17,DL_warm_Guitar,-1,-1
58,100,0.16363636363636364,729,1,17,DL_warm_Guitar,-1,-1
58,100,0.1590909090909091,260,1,18,DL_warm_Guitar,-1,-1
56,100,0.17727272727272728,691,1,18,DL_warm_Guitar,-1,-1
58,100,0.6409090909090909,752,0,18,DL_warm_Guitar,-1,-1
58,100,0.11818181818181818,30,1,19,DL_warm_Guitar,-1,-1
58,100,0.38181818181818183,92,0,19,DL_warm_Guitar,-1,-1
58,100,0.16363636363636364,179,0,19,DL_warm_Guitar,-1,-1
58,100,0.1590909090909091,320,0,19,DL_warm_Guitar,-1,-1
58,100,0.5818181818181818,488,0,19,DL_warm_Guitar,-1,-1
58,100,0.5772727272727273,721,1,19,DL_warm_Guitar,-1,-1
58,100,0.740909090909091,92,1,20,DL_warm_Guitar,-1,-1
58,100,0.1409090909090909,268,0,20,DL_warm_Guitar,-1,-1
58,100,0.1409090909090909,316,0,20,DL_warm_Guitar,-1,-1
58,100,0.8409090909090909,351,0,20,DL_warm_Guitar,-1,-1
58,100,1.018181818181818,669,1,20,DL_warm_Guitar,-1,-1
58,100,0.2590909090909091,61,1,21,DL_warm_Guitar,-1,-1
58,100,1.3,123,0,21,DL_warm_Guitar,-1,-1
63,100,0.21818181818181817,413,1,21,DL_warm_Guitar,-1,-1
55,100,0.2,540,0,21,DL_warm_Guitar,-1,-1
48,100,0.2772727272727273,17,1,22,DL_warm_Guitar,-1,-1
48,100,0.35909090909090907,206,0,22,DL_warm_Guitar,-1,-1
60,100,0.11818181818181818,330,0,22,DL_warm_Guitar,-1,-1
48,100,0.22272727272727272,430,0,22,DL_warm_Guitar,-1,-1
60,100,0.2590909090909091,559,0,22,DL_warm_Guitar,-1,-1
51,100,0.7,144,1,23,DL_warm_Guitar,-1,-1
58,100,0.2,61,1,24,DL_warm_Guitar,-1,-1
58,100,0.3,343,1,24,DL_warm_Guitar,-1,-1
51,100,0.3,413,0,24,DL_warm_Guitar,-1,-1
58,100,0.1,540,0,24,DL_warm_Guitar,-1,-1
58,100,0.2,743,1,24,DL_warm_Guitar,-1,-1
58,100,0.6772727272727272,822,0,24,DL_warm_Guitar,-1,-1
58,100,0.37727272727272726,162,1,25,DL_warm_Guitar,-1,-1
58,100,0.9590909090909091,277,0,25,DL_warm_Guitar,-1,-1
62,100,0.11818181818181818,528,1,25,DL_warm_Guitar,-1,-1
58,100,0.2772727272727273,567,0,25,DL_warm_Guitar,-1,-1
62,100,0.1409090909090909,669,0,25,DL_warm_Guitar,-1,-1
58,100,0.6,770,0,25,DL_warm_Guitar,-1,-1
58,100,0.2,123,1,26,DL_warm_Guitar,-1,-1
58,100,0.3181818181818182,175,0,26,DL_warm_Guitar,-1,-1
58,100,0.5772727272727273,272,0,26,DL_warm_Guitar,-1,-1
58,100,0.11818181818181818,413,0,26,DL_warm_Guitar,-1,-1
58,100,0.5,461,0,26,DL_warm_Guitar,-1,-1
58,100,0.2636363636363636,619,0,26,DL_warm_Guitar,-1,-1
58,100,0.2590909090909091,831,1,26,DL_warm_Guitar,-1,-1
58,100,0.6227272727272727,69,1,27,DL_warm_Guitar,-1,-1
60,100,0.17727272727272728,260,0,27,DL_warm_Guitar,-1,-1
58,100,0.6227272727272727,333,0,27,DL_warm_Guitar,-1,-1
58,100,1.4636363636363636,488,0,27,DL_warm_Guitar,-1,-1
56,100,0.43636363636363634,831,1,27,DL_warm_Guitar,-1,-1
58,100,0.13636363636363635,677,1,28,DL_warm_Guitar,-1,-1
56,100,0.1590909090909091,787,0,28,DL_warm_Guitar,-1,-1
58,100,0.1409090909090909,229,1,29,DL_warm_Guitar,-1,-1
51,100,0.17727272727272728,405,0,29,DL_warm_Guitar,-1,-1
51,100,0.4,708,1,29,DL_warm_Guitar,-1,-1
58,100,0.4,804,0,29,DL_warm_Guitar,-1,-1
58,100,0.3409090909090909,57,1,30,DL_warm_Guitar,-1,-1
58,100,0.2590909090909091,254,0,30,DL_warm_Guitar,-1,-1
58,100,0.6409090909090909,387,0,30,DL_warm_Guitar,-1,-1
58,100,2.0,804,1,30,DL_warm_Guitar,-1,-1
58,100,0.7227272727272728,453,1,31,DL_warm_Guitar,-1,-1
58,100,0.5818181818181818,619,0,31,DL_warm_Guitar,-1,-1
60,100,0.17727272727272728,801,0,31,DL_warm_Guitar,-1,-1
63,100,0.36363636363636365,48,1,32,DL_warm_Guitar,-1,-1
58,100,0.5590909090909091,166,0,32,DL_warm_Guitar,-1,-1
58,100,1.018181818181818,435,1,32,DL_warm_Guitar,-1,-1
58,100,0.7227272727272728,694,1,32,DL_warm_Guitar,-1,-1
60,100,0.9636363636363636,268,1,33,DL_warm_Guitar,-1,-1
51,100,0.5,554,1,33,DL_warm_Guitar,-1,-1
58,100,0.6227272727272727,673,0,33,DL_warm_Guitar,-1,-1
58,100,0.12272727272727273,201,1,34,DL_warm_Guitar,-1,-1
51,100,0.2409090909090909,431,1,34,DL_warm_Guitar,-1,-1
58,100,0.5409090909090909,581,0,34,DL_warm_Guitar,-1,-1
51,100,1.0,826,1,34,DL_warm_Guitar,-1,-1
58,100,0.1,251,1,35,DL_warm_Guitar,-1,-1
58,100,0.7818181818181819,364,0,35,DL_warm_Guitar,-1,-1
62,100,0.17727272727272728,778,1,35,DL_warm_Guitar,-1,-1
62,100,0.1590909090909091,823,0,35,DL_warm_Guitar,-1,-1
58,100,0.740909090909091,866,0,35,DL_warm_Guitar,-1,-1
58,100,0.4590909090909091,260,1,36,DL_warm_Guitar,-1,-1
58,100,0.4636363636363636,378,0,36,DL_warm_Guitar,-1,-1
58,100,0.6,515,0,36,DL_warm_Guitar,-1,-1
55,100,0.2818181818181818,686,0,36,DL_warm_Guitar,-1,-1
60,100,0.11818181818181818,801,0,36,DL_warm_Guitar,-1,-1
58,100,0.3,8,1,37,DL_warm_Guitar,-1,-1
58,100,0.1590909090909091,166,0,37,DL_warm_Guitar,-1,-1
58,100,1.0227272727272727,211,0,37,DL_warm_Guitar,-1,-1
58,100,0.4409090909090909,483,1,37,DL_warm_Guitar,-1,-1
55,100,0.11818181818181818,633,0,37,DL_warm_Guitar,-1,-1
58,100,0.9,703,0,37,DL_warm_Guitar,-1,-1
58,100,0.2409090909090909,34,1,38,DL_warm_Guitar,-1,-1
58,100,0.2590909090909091,281,1,38,DL_warm_Guitar,-1,-1
58,100,0.2,444,0,38,DL_warm_Guitar,-1,-1
58,100,0.5818181818181818,726,1,38,DL_warm_Guitar,-1,-1
51,100,0.2636363636363636,334,1,39,DL_warm_Guitar,-1,-1
51,100,0.42272727272727273,444,0,39,DL_warm_Guitar,-1,-1
58,100,0.6409090909090909,668,1,39,DL_warm_Guitar,-1,-1
58,100,0.4590909090909091,0,1,40,DL_warm_Guitar,-1,-1
51,100,0.1409090909090909,241,1,40,DL_warm_Guitar,-1,-1
58,100,0.3,383,0,40,DL_warm_Guitar,-1,-1
58,100,0.5,483,0,40,DL_warm_Guitar,-1,-1
58,100,0.740909090909091,31,1,41,DL_warm_Guitar,-1,-1
58,100,0.5,295,1,41,DL_warm_Guitar,-1,-1
58,100,0.6590909090909091,435,0,41,DL_warm_Guitar,-1,-1
58,100,0.8227272727272728,716,1,41,DL_warm_Guitar,-1,-1
58,100,0.4,75,1,42,DL_warm_Guitar,-1,-1
48,100,0.12272727272727273,179,0,42,DL_warm_Guitar,-1,-1
60,100,0.12272727272727273,224,0,42,DL_warm_Guitar,-1,-1
58,100,2.2772727272727273,260,0,42,DL_warm_Guitar,-1,-1
58,100,0.2818181818181818,4,1,43,DL_warm_Guitar,-1,-1
58,100,0.35909090909090907,83,0,43,DL_warm_Guitar,-1,-1
60,100,0.5,373,1,43,DL_warm_Guitar,-1,-1
58,100,0.21818181818181817,501,0,43,DL_warm_Guitar,-1,-1
60,100,0.2590909090909091,703,1,43,DL_warm_Guitar,-1,-1
58,100,0.6818181818181818,770,0,43,DL_warm_Guitar,-1,-1
58,100,0.5409090909090909,716,1,44,DL_warm_Guitar,-1,-1
58,100,0.33636363636363636,40,1,45,DL_warm_Guitar,-1,-1
58,100,0.18181818181818182,131,0,45,DL_warm_Guitar,-1,-1
58,100,0.2409090909090909,276,0,45,DL_warm_Guitar,-1,-1
58,100,0.18181818181818182,483,1,45,DL_warm_Guitar,-1,-1
58,100,1.8590909090909091,545,0,45,DL_warm_Guitar,-1,-1
58,100,1.8,96,1,46,DL_warm_Guitar,-1,-1
58,100,0.8,518,1,46,DL_warm_Guitar,-1,-1
58,100,0.2,708,0,46,DL_warm_Guitar,-1,-1
58,100,0.4590909090909091,848,0,46,DL_warm_Guitar,-1,-1
60,100,0.6,171,1,47,DL_warm_Guitar,-1,-1
58,100,0.7181818181818181,383,1,47,DL_warm_Guitar,-1,-1
58,100,0.6181818181818182,593,1,47,DL_warm_Guitar,-1,-1
58,100,0.3181818181818182,813,1,47,DL_warm_Guitar,-1,-1
58,100,0.35909090909090907,118,1,48,DL_warm_Guitar,-1,-1
60,100,0.22272727272727272,343,1,48,DL_warm_Guitar,-1,-1
60,100,0.2818181818181818,708,1,48,DL_warm_Guitar,-1,-1
41,100,0.1409090909090909,444,1,49,DL_warm_Guitar,-1,-1
41,100,0.11818181818181818,480,0,49,DL_warm_Guitar,-1,-1
60,100,0.16363636363636364,641,0,49,DL_warm_Guitar,-1,-1
41,100,0.2636363636363636,708,0,49,DL_warm_Guitar,-1,-1
60,100,0.42272727272727273,69,1,50,DL_warm_Guitar,-1,-1
53,100,0.2590909090909091,176,0,50,DL_warm_Guitar,-1,-1
53,100,0.2409090909090909,241,0,50,DL_warm_Guitar,-1,-1
41,100,0.32272727272727275,334,0,50,DL_warm_Guitar,-1,-1
51,100,0.1590909090909091,756,1,50,DL_warm_Guitar,-1,-1
51,100,0.2,281,1,51,DL_warm_Guitar,-1,-1
51,100,0.2,338,0,51,DL_warm_Guitar,-1,-1
58,100,0.41818181818181815,831,1,51,DL_warm_Guitar,-1,-1
53,100,0.5181818181818182,426,1,52,DL_warm_Guitar,-1,-1
58,100,2.340909090909091,163,1,53,DL_warm_Guitar,-1,-1
51,100,0.18181818181818182,770,1,53,DL_warm_Guitar,-1,-1
58,100,0.5590909090909091,845,0,53,DL_warm_Guitar,-1,-1
58,100,0.5636363636363636,114,1,54,DL_warm_Guitar,-1,-1
58,100,5.318181818181818,295,0,54,DL_warm_Guitar,-1,-1
60,100,1.8227272727272728,641,1,55,DL_warm_Guitar,-1,-1
58,100,0.5181818181818182,171,1,56,DL_warm_Guitar,-1,-1
58,100,0.21818181818181817,396,1,56,DL_warm_Guitar,-1,-1
58,100,1.1181818181818182,448,0,56,DL_warm_Guitar,-1,-1
58,100,0.4,703,1,56,DL_warm_Guitar,-1,-1
58,100,0.4,871,0,56,DL_warm_Guitar,-1,-1
58,100,0.3181818181818182,678,1,57,DL_warm_Guitar,-1,-1
58,100,0.5,810,0,57,DL_warm_Guitar,-1,-1
58,100,0.2,386,1,58,DL_warm_Guitar,-1,-1
58,100,0.7,435,0,58,DL_warm_Guitar,-1,-1
58,100,0.5181818181818182,625,0,58,DL_warm_Guitar,-1,-1
58,100,0.3,839,1,58,DL_warm_Guitar,-1,-1
58,100,1.759090909090909,31,1,59,DL_warm_Guitar,-1,-1
58,100,0.36363636363636365,444,1,59,DL_warm_Guitar,-1,-1
58,100,0.36363636363636365,531,0,59,DL_warm_Guitar,-1,-1
58,100,2.459090909090909,638,0,59,DL_warm_Guitar,-1,-1
58,100,0.4590909090909091,303,1,60,DL_warm_Guitar,-1,-1
58,100,1.1,426,0,60,DL_warm_Guitar,-1,-1
60,100,1.3818181818181818,791,1,60,DL_warm_Guitar,-1,-1
60,100,0.4409090909090909,334,1,61,DL_warm_Guitar,-1,-1
58,100,0.6409090909090909,483,0,61,DL_warm_Guitar,-1,-1
58,100,0.6409090909090909,638,0,61,DL_warm_Guitar,-1,-1
58,100,0.21818181818181817,858,1,61,DL_warm_Guitar,-1,-1
60,100,0.6181818181818182,96,1,62,DL_warm_Guitar,-1,-1
58,100,0.3409090909090909,246,0,62,DL_warm_Guitar,-1,-1
58,100,0.21818181818181817,351,0,62,DL_warm_Guitar,-1,-1
58,100,0.4409090909090909,440,0,62,DL_warm_Guitar,-1,-1
60,100,0.11818181818181818,703,1,62,DL_warm_Guitar,-1,-1
60,100,0.18181818181818182,813,0,62,DL_warm_Guitar,-1,-1
58,100,0.8590909090909091,858,0,62,DL_warm_Guitar,-1,-1
51,100,0.3,3,1,64,DL_warm_Guitar,-1,-1
58,100,0.18181818181818182,92,0,64,DL_warm_Guitar,-1,-1
58,100,0.6409090909090909,145,0,64,DL_warm_Guitar,-1,-1
58,100,0.6,487,1,64,DL_warm_Guitar,-1,-1
58,100,0.13636363636363635,787,1,64,DL_warm_Guitar,-1,-1
58,100,0.2772727272727273,30,1,65,DL_warm_Guitar,-1,-1
58,100,0.2590909090909091,100,0,65,DL_warm_Guitar,-1,-1
46,100,0.2590909090909091,166,0,65,DL_warm_Guitar,-1,-1
46,100,0.12272727272727273,343,0,65,DL_warm_Guitar,-1,-1
51,100,0.2818181818181818,532,0,65,DL_warm_Guitar,-1,-1
51,100,0.11818181818181818,633,0,65,DL_warm_Guitar,-1,-1
51,100,0.12272727272727273,663,0,65,DL_warm_Guitar,-1,-1
60,100,0.11818181818181818,787,0,65,DL_warm_Guitar,-1,-1
60,100,0.12272727272727273,26,1,66,DL_warm_Guitar,-1,-1
60,100,0.2409090909090909,123,0,66,DL_warm_Guitar,-1,-1
60,100,1.3636363636363635,179,0,66,DL_warm_Guitar,-1,-1
60,100,0.23636363636363636,546,1,66,DL_warm_Guitar,-1,-1
60,100,0.7181818181818181,787,1,66,DL_warm_Guitar,-1,-1
60,100,0.9409090909090909,79,1,67,DL_warm_Guitar,-1,-1
60,100,0.4772727272727273,502,1,67,DL_warm_Guitar,-1,-1
60,100,0.3409090909090909,629,0,67,DL_warm_Guitar,-1,-1
58,100,0.22272727272727272,26,1,68,DL_warm_Guitar,-1,-1
51,100,0.1590909090909091,210,0,68,DL_warm_Guitar,-1,-1
58,100,0.2590909090909091,303,0,68,DL_warm_Guitar,-1,-1
51,100,0.759090909090909,413,0,68,DL_warm_Guitar,-1,-1
58,100,0.22272727272727272,597,0,68,DL_warm_Guitar,-1,-1
51,100,0.11818181818181818,682,0,68,DL_warm_Guitar,-1,-1
51,100,1.5,734,0,68,DL_warm_Guitar,-1,-1
58,100,0.2409090909090909,255,1,69,DL_warm_Guitar,-1,-1
51,100,0.3,339,0,69,DL_warm_Guitar,-1,-1
58,100,0.6772727272727272,536,0,69,DL_warm_Guitar,-1,-1
58,100,0.5818181818181818,739,1,69,DL_warm_Guitar,-1,-1
46,100,0.17727272727272728,96,1,70,DL_warm_Guitar,-1,-1
46,100,0.21818181818181817,184,0,70,DL_warm_Guitar,-1,-1
46,100,0.4,294,0,70,DL_warm_Guitar,-1,-1
58,100,0.38181818181818183,440,0,70,DL_warm_Guitar,-1,-1
46,100,0.8,523,0,70,DL_warm_Guitar,-1,-1
46,100,0.18181818181818182,716,0,70,DL_warm_Guitar,-1,-1
60,100,0.6409090909090909,760,0,70,DL_warm_Guitar,-1,-1
48,100,0.2590909090909091,35,1,71,DL_warm_Guitar,-1,-1
60,100,0.17727272727272728,172,0,71,DL_warm_Guitar,-1,-1
60,100,0.18181818181818182,263,0,71,DL_warm_Guitar,-1,-1
60,100,0.9409090909090909,316,0,71,DL_warm_Guitar,-1,-1
58,100,0.2409090909090909,343,1,73,DL_warm_Guitar,-1,-1
58,100,0.7,559,1,73,DL_warm_Guitar,-1,-1
58,100,0.740909090909091,729,0,73,DL_warm_Guitar,-1,-1
58,100,0.13636363636363635,83,1,74,DL_warm_Guitar,-1,-1
58,100,1.518181818181818,140,0,74,DL_warm_Guitar,-1,-1
58,100,1.1181818181818182,502,1,74,DL_warm_Guitar,-1,-1
58,100,0.8636363636363636,817,1,74,DL_warm_Guitar,-1,-1
58,100,0.21818181818181817,132,1,75,DL_warm_Guitar,-1,-1
46,100,0.4590909090909091,365,1,75,DL_warm_Guitar,-1,-1
58,100,0.7636363636363637,487,0,75,DL_warm_Guitar,-1,-1
58,100,0.2409090909090909,660,0,75,DL_warm_Guitar,-1,-1
46,100,0.17727272727272728,713,0,75,DL_warm_Guitar,-1,-1
58,100,1.3636363636363635,752,0,75,DL_warm_Guitar,-1,-1
58,100,0.41818181818181815,347,1,76,DL_warm_Guitar,-1,-1
60,100,0.37727272727272726,470,0,76,DL_warm_Guitar,-1,-1
58,100,0.33636363636363636,633,0,76,DL_warm_Guitar,-1,-1
58,100,0.2,783,0,76,DL_warm_Guitar,-1,-1
60,100,0.11818181818181818,853,0,76,DL_warm_Guitar,-1,-1
58,100,0.759090909090909,172,1,77,DL_warm_Guitar,-1,-1
58,100,0.9,386,1,77,DL_warm_Guitar,-1,-1
58,100,0.2818181818181818,593,1,77,DL_warm_Guitar,-1,-1
60,100,0.5,743,0,77,DL_warm_Guitar,-1,-1
58,100,0.6181818181818182,866,0,77,DL_warm_Guitar,-1,-1
58,100,0.5409090909090909,136,1,78,DL_warm_Guitar,-1,-1
58,100,0.11818181818181818,316,0,78,DL_warm_Guitar,-1,-1
51,100,0.1409090909090909,360,0,78,DL_warm_Guitar,-1,-1
58,100,1.018181818181818,396,0,78,DL_warm_Guitar,-1,-1
58,100,0.37727272727272726,766,1,78,DL_warm_Guitar,-1,-1
51,100,0.2818181818181818,79,1,79,DL_warm_Guitar,-1,-1
58,100,1.240909090909091,220,0,79,DL_warm_Guitar,-1,-1
51,100,0.2,493,1,79,DL_warm_Guitar,-1,-1
58,100,0.2409090909090909,119,1,80,DL_warm_Guitar,-1,-1
58,100,0.11818181818181818,220,0,80,DL_warm_Guitar,-1,-1
58,100,0.32272727272727275,707,1,80,DL_warm_Guitar,-1,-1
58,100,0.8818181818181818,783,0,80,DL_warm_Guitar,-1,-1
58,100,0.5409090909090909,396,1,81,DL_warm_Guitar,-1,-1
60,100,0.2772727272727273,536,0,81,DL_warm_Guitar,-1,-1
58,100,0.6227272727272727,673,0,81,DL_warm_Guitar,-1,-1
60,100,0.6590909090909091,813,0,81,DL_warm_Guitar,-1,-1
58,100,0.2409090909090909,206,1,82,DL_warm_Guitar,-1,-1
63,100,0.18181818181818182,453,1,82,DL_warm_Guitar,-1,-1
63,100,0.1,496,0,82,DL_warm_Guitar,-1,-1
63,100,0.4,619,0,82,DL_warm_Guitar,-1,-1
58,100,0.11818181818181818,40,1,83,DL_warm_Guitar,-1,-1
58,100,0.11818181818181818,83,0,83,DL_warm_Guitar,-1,-1
58,100,0.5636363636363636,113,0,83,DL_warm_Guitar,-1,-1
58,100,0.38181818181818183,817,1,1,DL_warm_Guitar,-1,-1
58,100,0.17727272727272728,259,1,2,DL_warm_Guitar,-1,-1
58,100,0.2818181818181818,330,0,2,DL_warm_Guitar,-1,-1
55,100,0.1,501,0,2,DL_warm_Guitar,-1,-1
58,100,0.18181818181818182,528,0,2,DL_warm_Guitar,-1,-1
58,100,0.759090909090909,607,0,2,DL_warm_Guitar,-1,-1
58,100,0.7227272727272728,510,1,3,DL_warm_Guitar,-1,-1
58,100,0.36363636363636365,840,1,3,DL_warm_Guitar,-1,-1
58,100,0.1409090909090909,43,1,4,DL_warm_Guitar,-1,-1
58,100,0.5818181818181818,770,1,4,DL_warm_Guitar,-1,-1
58,100,0.5,43,1,5,DL_warm_Guitar,-1,-1
58,100,0.2409090909090909,232,0,5,DL_warm_Guitar,-1,-1
51,100,0.38181818181818183,664,1,5,DL_warm_Guitar,-1,-1
58,100,0.2636363636363636,818,0,5,DL_warm_Guitar,-1,-1
58,100,0.8409090909090909,56,1,6,DL_warm_Guitar,-1,-1
58,100,0.5227272727272727,268,1,6,DL_warm_Guitar,-1,-1
58,100,0.16363636363636364,399,0,6,DL_warm_Guitar,-1,-1
58,100,0.2,440,0,6,DL_warm_Guitar,-1,-1
58,100,0.2590909090909091,770,1,6,DL_warm_Guitar,-1,-1
58,100,0.3409090909090909,69,1,7,DL_warm_Guitar,-1,-1
58,100,0.2409090909090909,299,1,7,DL_warm_Guitar,-1,-1
58,100,0.32272727272727275,355,0,7,DL_warm_Guitar,-1,-1
58,100,0.16363636363636364,444,0,7,DL_warm_Guitar,-1,-1
46,100,0.1,739,1,7,DL_warm_Guitar,-1,-1
58,100,0.13636363636363635,171,1,8,DL_warm_Guitar,-1,-1
58,100,0.11818181818181818,646,1,8,DL_warm_Guitar,-1,-1
56,100,0.1,721,0,8,DL_warm_Guitar,-1,-1
58,100,0.1,391,1,9,DL_warm_Guitar,-1,-1
58,100,0.5409090909090909,651,1,9,DL_warm_Guitar,-1,-1
58,100,0.3,818,0,9,DL_warm_Guitar,-1,-1
58,100,0.5772727272727273,75,1,10,DL_warm_Guitar,-1,-1
51,100,0.6181818181818182,479,1,10,DL_warm_Guitar,-1,-1
51,100,0.1,826,1,10,DL_warm_Guitar,-1,-1
58,100,0.5,53,1,11,DL_warm_Guitar,-1,-1
58,100,0.6,166,0,11,DL_warm_Guitar,-1,-1
58,100,0.5818181818181818,307,0,11,DL_warm_Guitar,-1,-1
58,100,0.32272727272727275,443,0,11,DL_warm_Guitar,-1,-1
60,100,0.740909090909091,826,1,11,DL_warm_Guitar,-1,-1
58,100,1.1590909090909092,132,1,12,DL_warm_Guitar,-1,-1
58,100,0.41818181818181815,414,1,12,DL_warm_Guitar,-1,-1
55,100,0.12272727272727273,541,0,12,DL_warm_Guitar,-1,-1
55,100,0.1409090909090909,572,0,12,DL_warm_Guitar,-1,-1
55,100,0.13636363636363635,611,0,12,DL_warm_Guitar,-1,-1
60,100,0.3,158,1,13,DL_warm_Guitar,-1,-1
58,100,0.1409090909090909,862,1,13,DL_warm_Guitar,-1,-1
51,100,0.17727272727272728,304,1,14,DL_warm_Guitar,-1,-1
58,100,0.21818181818181817,660,1,14,DL_warm_Guitar,-1,-1
58,100,0.11818181818181818,854,0,14,DL_warm_Guitar,-1,-1
58,100,0.4818181818181818,3,1,15,DL_warm_Guitar,-1,-1
58,100,0.8,254,1,15,DL_warm_Guitar,-1,-1
58,100,0.11818181818181818,876,1,15,DL_warm_Guitar,-1,-1
58,100,0.6818181818181818,110,1,16,DL_warm_Guitar,-1,-1
58,100,0.1409090909090909,364,1,16,DL_warm_Guitar,-1,-1
58,100,0.22272727272727272,430,0,16,DL_warm_Guitar,-1,-1
58,100,0.3409090909090909,691,1,16,DL_warm_Guitar,-1,-1
48,100,0.21818181818181817,845,0,16,DL_warm_Guitar,-1,-1
58,100,0.1409090909090909,21,1,17,DL_warm_Guitar,-1,-1
48,100,0.3181818181818182,131,0,17,DL_warm_Guitar,-1,-1
58,100,0.5409090909090909,246,0,17,DL_warm_Guitar,-1,-1
58,100,0.9590909090909091,497,1,17,DL_warm_Guitar,-1,-1
58,100,0.16363636363636364,729,1,17,DL_warm_Guitar,-1,-1
58,100,0.1590909090909091,260,1,18,DL_warm_Guitar,-1,-1
56,100,0.17727272727272728,691,1,18,DL_warm_Guitar,-1,-1
58,100,0.6409090909090909,752,0,18,DL_warm_Guitar,-1,-1
58,100,0.11818181818181818,30,1,19,DL_warm_Guitar,-1,-1
58,100,0.38181818181818183,92,0,19,DL_warm_Guitar,-1,-1
58,100,0.16363636363636364,179,0,19,DL_warm_Guitar,-1,-1
58,100,0.1590909090909091,320,0,19,DL_warm_Guitar,-1,-1
58,100,0.5818181818181818,488,0,19,DL_warm_Guitar,-1,-1
58,100,0.5772727272727273,721,1,19,DL_warm_Guitar,-1,-1
58,100,0.740909090909091,92,1,20,DL_warm_Guitar,-1,-1
58,100,0.1409090909090909,268,0,20,DL_warm_Guitar,-1,-1
58,100,0.1409090909090909,316,0,20,DL_warm_Guitar,-1,-1
58,100,0.8409090909090909,351,0,20,DL_warm_Guitar,-1,-1
58,100,1.018181818181818,669,1,20,DL_warm_Guitar,-1,-1
58,100,0.2590909090909091,61,1,21,DL_warm_Guitar,-1,-1
58,100,1.3,123,0,21,DL_warm_Guitar,-1,-1
63,100,0.21818181818181817,413,1,21,DL_warm_Guitar,-1,-1
55,100,0.2,540,0,21,DL_warm_Guitar,-1,-1
48,100,0.2772727272727273,17,1,22,DL_warm_Guitar,-1,-1
48,100,0.35909090909090907,206,0,22,DL_warm_Guitar,-1,-1
60,100,0.11818181818181818,330,0,22,DL_warm_Guitar,-1,-1
48,100,0.22272727272727272,430,0,22,DL_warm_Guitar,-1,-1
60,100,0.2590909090909091,559,0,22,DL_warm_Guitar,-1,-1
51,100,0.7,144,1,23,DL_warm_Guitar,-1,-1
58,100,0.2,61,1,24,DL_warm_Guitar,-1,-1
58,100,0.3,343,1,24,DL_warm_Guitar,-1,-1
51,100,0.3,413,0,24,DL_warm_Guitar,-1,-1
58,100,0.1,540,0,24,DL_warm_Guitar,-1,-1
58,100,0.2,743,1,24,DL_warm_Guitar,-1,-1
58,100,0.6772727272727272,822,0,24,DL_warm_Guitar,-1,-1
58,100,0.37727272727272726,162,1,25,DL_warm_Guitar,-1,-1
58,100,0.9590909090909091,277,0,25,DL_warm_Guitar,-1,-1
62,100,0.11818181818181818,528,1,25,DL_warm_Guitar,-1,-1
58,100,0.2772727272727273,567,0,25,DL_warm_Guitar,-1,-1
62,100,0.1409090909090909,669,0,25,DL_warm_Guitar,-1,-1
58,100,0.6,770,0,25,DL_warm_Guitar,-1,-1
58,100,0.2,123,1,26,DL_warm_Guitar,-1,-1
58,100,0.3181818181818182,175,0,26,DL_warm_Guitar,-1,-1
58,100,0.5772727272727273,272,0,26,DL_warm_Guitar,-1,-1
58,100,0.11818181818181818,413,0,26,DL_warm_Guitar,-1,-1
58,100,0.5,461,0,26,DL_warm_Guitar,-1,-1
58,100,0.2636363636363636,619,0,26,DL_warm_Guitar,-1,-1
58,100,0.2590909090909091,831,1,26,DL_warm_Guitar,-1,-1
58,100,0.6227272727272727,69,1,27,DL_warm_Guitar,-1,-1
60,100,0.17727272727272728,260,0,27,DL_warm_Guitar,-1,-1
58,100,0.6227272727272727,333,0,27,DL_warm_Guitar,-1,-1
58,100,1.4636363636363636,488,0,27,DL_warm_Guitar,-1,-1
56,100,0.43636363636363634,831,1,27,DL_warm_Guitar,-1,-1
58,100,0.13636363636363635,677,1,28,DL_warm_Guitar,-1,-1
56,100,0.1590909090909091,787,0,28,DL_warm_Guitar,-1,-1
58,100,0.1409090909090909,229,1,29,DL_warm_Guitar,-1,-1
51,100,0.17727272727272728,405,0,29,DL_warm_Guitar,-1,-1
51,100,0.4,708,1,29,DL_warm_Guitar,-1,-1
58,100,0.4,804,0,29,DL_warm_Guitar,-1,-1
58,100,0.3409090909090909,57,1,30,DL_warm_Guitar,-1,-1
58,100,0.2590909090909091,254,0,30,DL_warm_Guitar,-1,-1
58,100,0.6409090909090909,387,0,30,DL_warm_Guitar,-1,-1
58,100,2.0,804,1,30,DL_warm_Guitar,-1,-1
58,100,0.7227272727272728,453,1,31,DL_warm_Guitar,-1,-1
58,100,0.5818181818181818,619,0,31,DL_warm_Guitar,-1,-1
60,100,0.17727272727272728,801,0,31,DL_warm_Guitar,-1,-1
63,100,0.36363636363636365,48,1,32,DL_warm_Guitar,-1,-1
58,100,0.5590909090909091,166,0,32,DL_warm_Guitar,-1,-1
58,100,1.018181818181818,435,1,32,DL_warm_Guitar,-1,-1
58,100,0.7227272727272728,694,1,32,DL_warm_Guitar,-1,-1
60,100,0.9636363636363636,268,1,33,DL_warm_Guitar,-1,-1
51,100,0.5,554,1,33,DL_warm_Guitar,-1,-1
58,100,0.6227272727272727,673,0,33,DL_warm_Guitar,-1,-1
58,100,0.12272727272727273,201,1,34,DL_warm_Guitar,-1,-1
51,100,0.2409090909090909,431,1,34,DL_warm_Guitar,-1,-1
58,100,0.5409090909090909,581,0,34,DL_warm_Guitar,-1,-1
51,100,1.0,826,1,34,DL_warm_Guitar,-1,-1
58,100,0.1,251,1,35,DL_warm_Guitar,-1,-1
58,100,0.7818181818181819,364,0,35,DL_warm_Guitar,-1,-1
62,100,0.17727272727272728,778,1,35,DL_warm_Guitar,-1,-1
62,100,0.1590909090909091,823,0,35,DL_warm_Guitar,-1,-1
58,100,0.740909090909091,866,0,35,DL_warm_Guitar,-1,-1
58,100,0.4590909090909091,260,1,36,DL_warm_Guitar,-1,-1
58,100,0.4636363636363636,378,0,36,DL_warm_Guitar,-1,-1
58,100,0.6,515,0,36,DL_warm_Guitar,-1,-1
55,100,0.2818181818181818,686,0,36,DL_warm_Guitar,-1,-1
60,100,0.11818181818181818,801,0,36,DL_warm_Guitar,-1,-1
58,100,0.3,8,1,37,DL_warm_Guitar,-1,-1
58,100,0.1590909090909091,166,0,37,DL_warm_Guitar,-1,-1
58,100,1.0227272727272727,211,0,37,DL_warm_Guitar,-1,-1
58,100,0.4409090909090909,483,1,37,DL_warm_Guitar,-1,-1
55,100,0.11818181818181818,633,0,37,DL_warm_Guitar,-1,-1
58,100,0.9,703,0,37,DL_warm_Guitar,-1,-1
58,100,0.2409090909090909,34,1,38,DL_warm_Guitar,-1,-1
58,100,0.2590909090909091,281,1,38,DL_warm_Guitar,-1,-1
58,100,0.2,444,0,38,DL_warm_Guitar,-1,-1
58,100,0.5818181818181818,726,1,38,DL_warm_Guitar,-1,-1
51,100,0.2636363636363636,334,1,39,DL_warm_Guitar,-1,-1
51,100,0.42272727272727273,444,0,39,DL_warm_Guitar,-1,-1
58,100,0.6409090909090909,668,1,39,DL_warm_Guitar,-1,-1
58,100,0.4590909090909091,0,1,40,DL_warm_Guitar,-1,-1
51,100,0.1409090909090909,241,1,40,DL_warm_Guitar,-1,-1
58,100,0.3,383,0,40,DL_warm_Guitar,-1,-1
58,100,0.5,483,0,40,DL_warm_Guitar,-1,-1
58,100,0.740909090909091,31,1,41,DL_warm_Guitar,-1,-1
58,100,0.5,295,1,41,DL_warm_Guitar,-1,-1
58,100,0.6590909090909091,435,0,41,DL_warm_Guitar,-1,-1
58,100,0.8227272727272728,716,1,41,DL_warm_Guitar,-1,-1
58,100,0.4,75,1,42,DL_warm_Guitar,-1,-1
48,100,0.12272727272727273,179,0,42,DL_warm_Guitar,-1,-1
60,100,0.12272727272727273,224,0,42,DL_warm_Guitar,-1,-1
58,100,2.2772727272727273,260,0,42,DL_warm_Guitar,-1,-1
58,100,0.2818181818181818,4,1,43,DL_warm_Guitar,-1,-1
58,100,0.35909090909090907,83,0,43,DL_warm_Guitar,-1,-1
60,100,0.5,373,1,43,DL_warm_Guitar,-1,-1
58,100,0.21818181818181817,501,0,43,DL_warm_Guitar,-1,-1
60,100,0.2590909090909091,703,1,43,DL_warm_Guitar,-1,-1
58,100,0.6818181818181818,770,0,43,DL_warm_Guitar,-1,-1
58,100,0.5409090909090909,716,1,44,DL_warm_Guitar,-1,-1
58,100,0.33636363636363636,40,1,45,DL_warm_Guitar,-1,-1
58,100,0.18181818181818182,131,0,45,DL_warm_Guitar,-1,-1
58,100,0.2409090909090909,276,0,45,DL_warm_Guitar,-1,-1
58,100,0.18181818181818182,483,1,45,DL_warm_Guitar,-1,-1
58,100,1.8590909090909091,545,0,45,DL_warm_Guitar,-1,-1
58,100,1.8,96,1,46,DL_warm_Guitar,-1,-1
58,100,0.8,518,1,46,DL_warm_Guitar,-1,-1
58,100,0.2,708,0,46,DL_warm_Guitar,-1,-1
58,100,0.4590909090909091,848,0,46,DL_warm_Guitar,-1,-1
60,100,0.6,171,1,47,DL_warm_Guitar,-1,-1
58,100,0.7181818181818181,383,1,47,DL_warm_Guitar,-1,-1
58,100,0.6181818181818182,593,1,47,DL_warm_Guitar,-1,-1
58,100,0.3181818181818182,813,1,47,DL_warm_Guitar,-1,-1
58,100,0.35909090909090907,118,1,48,DL_warm_Guitar,-1,-1
60,100,0.22272727272727272,343,1,48,DL_warm_Guitar,-1,-1
60,100,0.2818181818181818,708,1,48,DL_warm_Guitar,-1,-1
41,100,0.1409090909090909,444,1,49,DL_warm_Guitar,-1,-1
41,100,0.11818181818181818,480,0,49,DL_warm_Guitar,-1,-1
60,100,0.16363636363636364,641,0,49,DL_warm_Guitar,-1,-1
41,100,0.2636363636363636,708,0,49,DL_warm_Guitar,-1,-1
60,100,0.42272727272727273,69,1,50,DL_warm_Guitar,-1,-1
53,100,0.2590909090909091,176,0,50,DL_warm_Guitar,-1,-1
53,100,0.2409090909090909,241,0,50,DL_warm_Guitar,-1,-1
41,100,0.32272727272727275,334,0,50,DL_warm_Guitar,-1,-1
51,100,0.1590909090909091,756,1,50,DL_warm_Guitar,-1,-1
51,100,0.2,281,1,51,DL_warm_Guitar,-1,-1
51,100,0.2,338,0,51,DL_warm_Guitar,-1,-1
58,100,0.41818181818181815,831,1,51,DL_warm_Guitar,-1,-1
53,100,0.5181818181818182,426,1,52,DL_warm_Guitar,-1,-1
58,100,2.340909090909091,163,1,53,DL_warm_Guitar,-1,-1
51,100,0.18181818181818182,770,1,53,DL_warm_Guitar,-1,-1
58,100,0.5590909090909091,845,0,53,DL_warm_Guitar,-1,-1
58,100,0.5636363636363636,114,1,54,DL_warm_Guitar,-1,-1
58,100,5.318181818181818,295,0,54,DL_warm_Guitar,-1,-1
60,100,1.8227272727272728,641,1,55,DL_warm_Guitar,-1,-1
58,100,0.5181818181818182,171,1,56,DL_warm_Guitar,-1,-1
58,100,0.21818181818181817,396,1,56,DL_warm_Guitar,-1,-1
58,100,1.1181818181818182,448,0,56,DL_warm_Guitar,-1,-1
58,100,0.4,703,1,56,DL_warm_Guitar,-1,-1
58,100,0.4,871,0,56,DL_warm_Guitar,-1,-1
58,100,0.3181818181818182,678,1,57,DL_warm_Guitar,-1,-1
58,100,0.5,810,0,57,DL_warm_Guitar,-1,-1
58,100,0.2,386,1,58,DL_warm_Guitar,-1,-1
58,100,0.7,435,0,58,DL_warm_Guitar,-1,-1
58,100,0.5181818181818182,625,0,58,DL_warm_Guitar,-1,-1
58,100,0.3,839,1,58,DL_warm_Guitar,-1,-1
58,100,1.759090909090909,31,1,59,DL_warm_Guitar,-1,-1
58,100,0.36363636363636365,444,1,59,DL_warm_Guitar,-1,-1
58,100,0.36363636363636365,531,0,59,DL_warm_Guitar,-1,-1
58,100,2.459090909090909,638,0,59,DL_warm_Guitar,-1,-1
58,100,0.4590909090909091,303,1,60,DL_warm_Guitar,-1,-1
58,100,1.1,426,0,60,DL_warm_Guitar,-1,-1
60,100,1.3818181818181818,791,1,60,DL_warm_Guitar,-1,-1
60,100,0.4409090909090909,334,1,61,DL_warm_Guitar,-1,-1
58,100,0.6409090909090909,483,0,61,DL_warm_Guitar,-1,-1
58,100,0.6409090909090909,638,0,61,DL_warm_Guitar,-1,-1
58,100,0.21818181818181817,858,1,61,DL_warm_Guitar,-1,-1
60,100,0.6181818181818182,96,1,62,DL_warm_Guitar,-1,-1
58,100,0.3409090909090909,246,0,62,DL_warm_Guitar,-1,-1
58,100,0.21818181818181817,351,0,62,DL_warm_Guitar,-1,-1
58,100,0.4409090909090909,440,0,62,DL_warm_Guitar,-1,-1
60,100,0.11818181818181818,703,1,62,DL_warm_Guitar,-1,-1
60,100,0.18181818181818182,813,0,62,DL_warm_Guitar,-1,-1
58,100,0.8590909090909091,858,0,62,DL_warm_Guitar,-1,-1
51,100,0.3,3,1,64,DL_warm_Guitar,-1,-1
58,100,0.18181818181818182,92,0,64,DL_warm_Guitar,-1,-1
58,100,0.6409090909090909,145,0,64,DL_warm_Guitar,-1,-1
58,100,0.6,487,1,64,DL_warm_Guitar,-1,-1
58,100,0.13636363636363635,787,1,64,DL_warm_Guitar,-1,-1
58,100,0.2772727272727273,30,1,65,DL_warm_Guitar,-1,-1
58,100,0.2590909090909091,100,0,65,DL_warm_Guitar,-1,-1
46,100,0.2590909090909091,166,0,65,DL_warm_Guitar,-1,-1
46,100,0.12272727272727273,343,0,65,DL_warm_Guitar,-1,-1
51,100,0.2818181818181818,532,0,65,DL_warm_Guitar,-1,-1
51,100,0.11818181818181818,633,0,65,DL_warm_Guitar,-1,-1
51,100,0.12272727272727273,663,0,65,DL_warm_Guitar,-1,-1
60,100,0.11818181818181818,787,0,65,DL_warm_Guitar,-1,-1
60,100,0.12272727272727273,26,1,66,DL_warm_Guitar,-1,-1
60,100,0.2409090909090909,123,0,66,DL_warm_Guitar,-1,-1
60,100,1.3636363636363635,179,0,66,DL_warm_Guitar,-1,-1
60,100,0.23636363636363636,546,1,66,DL_warm_Guitar,-1,-1
60,100,0.7181818181818181,787,1,66,DL_warm_Guitar,-1,-1
60,100,0.9409090909090909,79,1,67,DL_warm_Guitar,-1,-1
60,100,0.4772727272727273,502,1,67,DL_warm_Guitar,-1,-1
60,100,0.3409090909090909,629,0,67,DL_warm_Guitar,-1,-1
58,100,0.22272727272727272,26,1,68,DL_warm_Guitar,-1,-1
51,100,0.1590909090909091,210,0,68,DL_warm_Guitar,-1,-1
58,100,0.2590909090909091,303,0,68,DL_warm_Guitar,-1,-1
51,100,0.759090909090909,413,0,68,DL_warm_Guitar,-1,-1
58,100,0.22272727272727272,597,0,68,DL_warm_Guitar,-1,-1
51,100,0.11818181818181818,682,0,68,DL_warm_Guitar,-1,-1
51,100,1.5,734,0,68,DL_warm_Guitar,-1,-1
58,100,0.2409090909090909,255,1,69,DL_warm_Guitar,-1,-1
51,100,0.3,339,0,69,DL_warm_Guitar,-1,-1
58,100,0.6772727272727272,536,0,69,DL_warm_Guitar,-1,-1
58,100,0.5818181818181818,739,1,69,DL_warm_Guitar,-1,-1
46,100,0.17727272727272728,96,1,70,DL_warm_Guitar,-1,-1
46,100,0.21818181818181817,184,0,70,DL_warm_Guitar,-1,-1
46,100,0.4,294,0,70,DL_warm_Guitar,-1,-1
58,100,0.38181818181818183,440,0,70,DL_warm_Guitar,-1,-1
46,100,0.8,523,0,70,DL_warm_Guitar,-1,-1
46,100,0.18181818181818182,716,0,70,DL_warm_Guitar,-1,-1
60,100,0.6409090909090909,760,0,70,DL_warm_Guitar,-1,-1
48,100,0.2590909090909091,35,1,71,DL_warm_Guitar,-1,-1
60,100,0.17727272727272728,172,0,71,DL_warm_Guitar,-1,-1
60,100,0.18181818181818182,263,0,71,DL_warm_Guitar,-1,-1
60,100,0.9409090909090909,316,0,71,DL_warm_Guitar,-1,-1
58,100,0.2409090909090909,343,1,73,DL_warm_Guitar,-1,-1
58,100,0.7,559,1,73,DL_warm_Guitar,-1,-1
58,100,0.740909090909091,729,0,73,DL_warm_Guitar,-1,-1
58,100,0.13636363636363635,83,1,74,DL_warm_Guitar,-1,-1
58,100,1.518181818181818,140,0,74,DL_warm_Guitar,-1,-1
58,100,1.1181818181818182,502,1,74,DL_warm_Guitar,-1,-1
58,100,0.8636363636363636,817,1,74,DL_warm_Guitar,-1,-1
58,100,0.21818181818181817,132,1,75,DL_warm_Guitar,-1,-1
46,100,0.4590909090909091,365,1,75,DL_warm_Guitar,-1,-1
58,100,0.7636363636363637,487,0,75,DL_warm_Guitar,-1,-1
58,100,0.2409090909090909,660,0,75,DL_warm_Guitar,-1,-1
46,100,0.17727272727272728,713,0,75,DL_warm_Guitar,-1,-1
58,100,1.3636363636363635,752,0,75,DL_warm_Guitar,-1,-1
58,100,0.41818181818181815,347,1,76,DL_warm_Guitar,-1,-1
60,100,0.37727272727272726,470,0,76,DL_warm_Guitar,-1,-1
58,100,0.33636363636363636,633,0,76,DL_warm_Guitar,-1,-1
58,100,0.2,783,0,76,DL_warm_Guitar,-1,-1
60,100,0.11818181818181818,853,0,76,DL_warm_Guitar,-1,-1
58,100,0.759090909090909,172,1,77,DL_warm_Guitar,-1,-1
58,100,0.9,386,1,77,DL_warm_Guitar,-1,-1
58,100,0.2818181818181818,593,1,77,DL_warm_Guitar,-1,-1
60,100,0.5,743,0,77,DL_warm_Guitar,-1,-1
58,100,0.6181818181818182,866,0,77,DL_warm_Guitar,-1,-1
58,100,0.5409090909090909,136,1,78,DL_warm_Guitar,-1,-1
58,100,0.11818181818181818,316,0,78,DL_warm_Guitar,-1,-1
51,100,0.1409090909090909,360,0,78,DL_warm_Guitar,-1,-1
58,100,1.018181818181818,396,0,78,DL_warm_Guitar,-1,-1
58,100,0.37727272727272726,766,1,78,DL_warm_Guitar,-1,-1
51,100,0.2818181818181818,79,1,79,DL_warm_Guitar,-1,-1
58,100,1.240909090909091,220,0,79,DL_warm_Guitar,-1,-1
51,100,0.2,493,1,79,DL_warm_Guitar,-1,-1
58,100,0.2409090909090909,119,1,80,DL_warm_Guitar,-1,-1
58,100,0.11818181818181818,220,0,80,DL_warm_Guitar,-1,-1
58,100,0.32272727272727275,707,1,80,DL_warm_Guitar,-1,-1
58,100,0.8818181818181818,783,0,80,DL_warm_Guitar,-1,-1
58,100,0.5409090909090909,396,1,81,DL_warm_Guitar,-1,-1
60,100,0.2772727272727273,536,0,81,DL_warm_Guitar,-1,-1
58,100,0.6227272727272727,673,0,81,DL_warm_Guitar,-1,-1
60,100,0.6590909090909091,813,0,81,DL_warm_Guitar,-1,-1
58,100,0.2409090909090909,206,1,82,DL_warm_Guitar,-1,-1
63,100,0.18181818181818182,453,1,82,DL_warm_Guitar,-1,-1
63,100,0.1,496,0,82,DL_warm_Guitar,-1,-1
63,100,0.4,619,0,82,DL_warm_Guitar,-1,-1
58,100,0.11818181818181818,40,1,83,DL_warm_Guitar,-1,-1
58,100,0.11818181818181818,83,0,83,DL_warm_Guitar,-1,-1
58,100,0.5636363636363636,113,0,83,DL_warm_Guitar,-1,-1
48,100,0.8590909090909091,409,1,0,DL_Guitar,-1,-1
48,100,0.4,686,1,0,DL_Guitar,-1,-1
48,100,1.8227272727272728,827,0,0,DL_Guitar,-1,-1
60,100,0.33636363636363636,348,1,1,DL_Guitar,-1,-1
55,100,0.1409090909090909,431,0,1,DL_Guitar,-1,-1
60,100,0.1,487,0,1,DL_Guitar,-1,-1
52,100,0.2,590,0,1,DL_Guitar,-1,-1
43,100,0.9,651,0,1,DL_Guitar,-1,-1
55,100,0.38181818181818183,849,1,1,DL_Guitar,-1,-1
50,100,0.2818181818181818,113,1,2,DL_Guitar,-1,-1
50,100,0.37727272727272726,691,1,2,DL_Guitar,-1,-1
50,100,0.2818181818181818,813,0,2,DL_Guitar,-1,-1
41,100,0.6227272727272727,26,1,3,DL_Guitar,-1,-1
41,100,1.0818181818181818,443,1,3,DL_Guitar,-1,-1
53,100,0.11818181818181818,712,1,3,DL_Guitar,-1,-1
41,100,0.21818181818181817,788,0,3,DL_Guitar,-1,-1
53,100,0.1409090909090909,74,1,4,DL_Guitar,-1,-1
55,100,0.3,114,0,4,DL_Guitar,-1,-1
48,100,0.759090909090909,260,0,4,DL_Guitar,-1,-1
48,100,0.1590909090909091,440,0,4,DL_Guitar,-1,-1
48,100,0.2,550,0,4,DL_Guitar,-1,-1
60,100,0.37727272727272726,678,0,4,DL_Guitar,-1,-1
48,100,1.481818181818182,761,0,4,DL_Guitar,-1,-1
60,100,0.3181818181818182,220,1,5,DL_Guitar,-1,-1
60,100,0.1409090909090909,311,0,5,DL_Guitar,-1,-1
57,100,0.3,360,0,5,DL_Guitar,-1,-1
55,100,0.2,431,0,5,DL_Guitar,-1,-1
50,100,0.2,651,1,5,DL_Guitar,-1,-1
55,100,0.2409090909090909,716,0,5,DL_Guitar,-1,-1
55,100,0.3409090909090909,774,0,5,DL_Guitar,-1,-1
50,100,1.2,40,1,6,DL_Guitar,-1,-1
50,100,0.6818181818181818,307,1,6,DL_Guitar,-1,-1
55,100,0.6227272727272727,465,0,6,DL_Guitar,-1,-1
57,100,0.3409090909090909,606,0,6,DL_Guitar,-1,-1
48,100,0.8227272727272728,739,0,6,DL_Guitar,-1,-1
60,100,0.1,40,1,7,DL_Guitar,-1,-1
55,100,0.2818181818181818,79,0,7,DL_Guitar,-1,-1
50,100,1.8590909090909091,281,1,7,DL_Guitar,-1,-1
59,100,0.4818181818181818,703,1,7,DL_Guitar,-1,-1
55,100,0.2772727272727273,844,0,7,DL_Guitar,-1,-1
48,100,0.9590909090909091,118,1,8,DL_Guitar,-1,-1
55,100,0.3,333,1,8,DL_Guitar,-1,-1
55,100,0.17727272727272728,470,0,8,DL_Guitar,-1,-1
54,100,0.1,656,0,8,DL_Guitar,-1,-1
48,100,1.0,708,0,8,DL_Guitar,-1,-1
60,100,0.1409090909090909,65,1,9,DL_Guitar,-1,-1
60,100,0.2818181818181818,135,0,9,DL_Guitar,-1,-1
57,100,0.3409090909090909,211,0,9,DL_Guitar,-1,-1
43,100,0.6818181818181818,355,0,9,DL_Guitar,-1,-1
43,100,0.17727272727272728,589,1,9,DL_Guitar,-1,-1
50,100,0.18181818181818182,651,0,9,DL_Guitar,-1,-1
43,100,0.9772727272727273,778,0,9,DL_Guitar,-1,-1
50,100,0.1,391,1,10,DL_Guitar,-1,-1
50,100,0.1,417,0,10,DL_Guitar,-1,-1
50,100,0.1409090909090909,465,0,10,DL_Guitar,-1,-1
48,100,0.3,611,0,10,DL_Guitar,-1,-1
60,100,0.2,677,0,10,DL_Guitar,-1,-1
55,100,0.4818181818181818,818,0,10,DL_Guitar,-1,-1
50,100,0.6409090909090909,140,1,11,DL_Guitar,-1,-1
50,100,0.1590909090909091,295,0,11,DL_Guitar,-1,-1
54,100,0.2818181818181818,355,0,11,DL_Guitar,-1,-1
50,100,0.6409090909090909,426,0,11,DL_Guitar,-1,-1
50,100,0.4409090909090909,594,0,11,DL_Guitar,-1,-1
50,100,0.4636363636363636,708,0,11,DL_Guitar,-1,-1
47,100,0.4590909090909091,876,0,11,DL_Guitar,-1,-1
55,100,0.3,180,1,12,DL_Guitar,-1,-1
55,100,0.2,250,0,12,DL_Guitar,-1,-1
52,100,0.7181818181818181,360,0,12,DL_Guitar,-1,-1
55,100,0.2818181818181818,527,0,12,DL_Guitar,-1,-1
57,100,0.6,594,0,12,DL_Guitar,-1,-1
52,100,0.3,739,0,12,DL_Guitar,-1,-1
55,100,0.9409090909090909,804,0,12,DL_Guitar,-1,-1
52,100,0.3,140,1,13,DL_Guitar,-1,-1
55,100,1.2818181818181817,211,0,13,DL_Guitar,-1,-1
55,100,0.1409090909090909,505,1,13,DL_Guitar,-1,-1
50,100,0.41818181818181815,634,0,13,DL_Guitar,-1,-1
60,100,0.1590909090909091,783,0,13,DL_Guitar,-1,-1
50,100,0.38181818181818183,25,1,14,DL_Guitar,-1,-1
54,100,0.21818181818181817,175,0,14,DL_Guitar,-1,-1
50,100,0.18181818181818182,264,0,14,DL_Guitar,-1,-1
62,100,0.1,338,0,14,DL_Guitar,-1,-1
52,100,0.4409090909090909,448,0,14,DL_Guitar,-1,-1
52,100,0.3409090909090909,584,0,14,DL_Guitar,-1,-1
59,100,0.6,663,0,14,DL_Guitar,-1,-1
50,100,1.9,871,1,14,DL_Guitar,-1,-1
57,100,0.32272727272727275,409,1,15,DL_Guitar,-1,-1
59,100,0.3181818181818182,479,0,15,DL_Guitar,-1,-1
50,100,0.2,567,0,15,DL_Guitar,-1,-1
48,100,1.0227272727272727,694,0,15,DL_Guitar,-1,-1
48,100,0.2,92,1,16,DL_Guitar,-1,-1
48,100,0.13636363636363635,171,0,16,DL_Guitar,-1,-1
50,100,1.959090909090909,220,0,16,DL_Guitar,-1,-1
57,100,0.3,656,1,16,DL_Guitar,-1,-1
59,100,0.33636363636363636,721,0,16,DL_Guitar,-1,-1
50,100,0.5363636363636364,810,0,16,DL_Guitar,-1,-1
43,100,0.5818181818181818,57,1,17,DL_Guitar,-1,-1
55,100,0.1409090909090909,268,1,17,DL_Guitar,-1,-1
57,100,0.6,343,0,17,DL_Guitar,-1,-1
59,100,0.6,480,0,17,DL_Guitar,-1,-1
62,100,0.4,611,0,17,DL_Guitar,-1,-1
50,100,0.1590909090909091,700,0,17,DL_Guitar,-1,-1
62,100,0.1409090909090909,804,0,17,DL_Guitar,-1,-1
62,100,0.18181818181818182,870,0,17,DL_Guitar,-1,-1
55,100,0.1590909090909091,119,1,18,DL_Guitar,-1,-1
62,100,0.21818181818181817,237,0,18,DL_Guitar,-1,-1
55,100,0.3,356,0,18,DL_Guitar,-1,-1
55,100,0.8409090909090909,540,1,19,DL_Guitar,-1,-1
50,100,0.2,801,1,19,DL_Guitar,-1,-1
50,100,0.3181818181818182,9,1,20,DL_Guitar,-1,-1
50,100,0.1590909090909091,150,0,20,DL_Guitar,-1,-1
62,100,0.6636363636363637,223,0,20,DL_Guitar,-1,-1
57,100,0.2772727272727273,413,0,20,DL_Guitar,-1,-1
62,100,0.1409090909090909,474,0,20,DL_Guitar,-1,-1
50,100,0.8181818181818182,505,0,20,DL_Guitar,-1,-1
62,100,0.1409090909090909,686,0,20,DL_Guitar,-1,-1
55,100,0.3,725,0,20,DL_Guitar,-1,-1
52,100,0.5409090909090909,814,0,20,DL_Guitar,-1,-1
55,100,0.6409090909090909,57,1,21,DL_Guitar,-1,-1
55,100,0.18181818181818182,289,1,21,DL_Guitar,-1,-1
55,100,0.38181818181818183,333,0,21,DL_Guitar,-1,-1
55,100,0.1409090909090909,426,0,21,DL_Guitar,-1,-1
55,100,0.12272727272727273,466,0,21,DL_Guitar,-1,-1
54,100,0.11818181818181818,756,1,21,DL_Guitar,-1,-1
62,100,0.1,787,0,21,DL_Guitar,-1,-1
54,100,0.2590909090909091,810,0,21,DL_Guitar,-1,-1
55,100,0.3181818181818182,83,1,22,DL_Guitar,-1,-1
55,100,0.4,440,1,22,DL_Guitar,-1,-1
55,100,0.2818181818181818,642,1,22,DL_Guitar,-1,-1
50,100,0.6,712,0,22,DL_Guitar,-1,-1
62,100,0.1,21,1,23,DL_Guitar,-1,-1
50,100,0.740909090909091,44,0,23,DL_Guitar,-1,-1
62,100,0.1,237,0,23,DL_Guitar,-1,-1
50,100,0.2590909090909091,260,0,23,DL_Guitar,-1,-1
55,100,0.3409090909090909,330,0,23,DL_Guitar,-1,-1
64,100,0.5772727272727273,426,0,23,DL_Guitar,-1,-1
55,100,0.2409090909090909,752,1,23,DL_Guitar,-1,-1
52,100,0.5,814,0,23,DL_Guitar,-1,-1
50,100,0.6818181818181818,69,1,24,DL_Guitar,-1,-1
62,100,0.2,220,0,24,DL_Guitar,-1,-1
50,100,0.3181818181818182,281,0,24,DL_Guitar,-1,-1
50,100,0.7772727272727272,391,0,24,DL_Guitar,-1,-1
55,100,0.2772727272727273,567,0,24,DL_Guitar,-1,-1
55,100,0.3,642,0,24,DL_Guitar,-1,-1
50,100,0.11818181818181818,770,0,24,DL_Guitar,-1,-1
62,100,0.5227272727272727,796,0,24,DL_Guitar,-1,-1
55,100,0.6,44,1,25,DL_Guitar,-1,-1
62,100,0.32272727272727275,179,0,25,DL_Guitar,-1,-1
50,100,0.1409090909090909,250,0,25,DL_Guitar,-1,-1
50,100,1.8363636363636364,326,0,25,DL_Guitar,-1,-1
50,100,0.6,739,1,25,DL_Guitar,-1,-1
64,100,0.2818181818181818,3,1,26,DL_Guitar,-1,-1
52,100,0.3181818181818182,75,0,26,DL_Guitar,-1,-1
55,100,0.5590909090909091,144,0,26,DL_Guitar,-1,-1
55,100,1.1,281,0,26,DL_Guitar,-1,-1
54,100,0.1,540,1,26,DL_Guitar,-1,-1
54,100,0.11818181818181818,602,0,26,DL_Guitar,-1,-1
54,100,0.6409090909090909,691,0,26,DL_Guitar,-1,-1
62,100,0.1409090909090909,862,0,26,DL_Guitar,-1,-1
62,100,0.43636363636363634,17,1,27,DL_Guitar,-1,-1
54,100,0.22272727272727272,113,0,27,DL_Guitar,-1,-1
55,100,0.41818181818181815,162,0,27,DL_Guitar,-1,-1
48,100,0.5,268,0,27,DL_Guitar,-1,-1
55,100,0.5181818181818182,413,0,27,DL_Guitar,-1,-1
55,100,0.11818181818181818,756,1,27,DL_Guitar,-1,-1
50,100,0.6,804,0,27,DL_Guitar,-1,-1
50,100,0.4590909090909091,65,1,28,DL_Guitar,-1,-1
62,100,0.12272727272727273,179,0,28,DL_Guitar,-1,-1
50,100,0.5772727272727273,206,0,28,DL_Guitar,-1,-1
50,100,0.3,351,0,28,DL_Guitar,-1,-1
55,100,1.4181818181818182,418,0,28,DL_Guitar,-1,-1
50,100,1.1590909090909092,30,1,29,DL_Guitar,-1,-1
62,100,0.1,285,1,29,DL_Guitar,-1,-1
55,100,0.6409090909090909,316,1,40,DL_Guitar,-1,-1
48,100,0.5,461,0,40,DL_Guitar,-1,-1
50,100,1.0818181818181818,606,0,40,DL_Guitar,-1,-1
50,100,0.12272727272727273,848,1,40,DL_Guitar,-1,-1
50,100,0.6818181818181818,0,1,41,DL_Guitar,-1,-1
62,100,0.5818181818181818,153,0,41,DL_Guitar,-1,-1
52,100,1.2,286,0,41,DL_Guitar,-1,-1
52,100,0.18181818181818182,619,1,41,DL_Guitar,-1,-1
52,100,0.4818181818181818,664,0,41,DL_Guitar,-1,-1
50,100,0.2590909090909091,778,0,41,DL_Guitar,-1,-1
47,100,0.1,43,1,42,DL_Guitar,-1,-1
47,100,0.1409090909090909,228,0,42,DL_Guitar,-1,-1
55,100,0.35909090909090907,343,1,43,DL_Guitar,-1,-1
55,100,0.5227272727272727,453,0,43,DL_Guitar,-1,-1
62,100,0.5409090909090909,641,0,43,DL_Guitar,-1,-1
50,100,1.3181818181818181,765,0,43,DL_Guitar,-1,-1
57,100,0.1409090909090909,251,1,44,DL_Guitar,-1,-1
50,100,0.37727272727272726,370,0,44,DL_Guitar,-1,-1
50,100,0.13636363636363635,523,0,44,DL_Guitar,-1,-1
59,100,0.12272727272727273,254,1,45,DL_Guitar,-1,-1
55,100,0.5181818181818182,303,0,45,DL_Guitar,-1,-1
62,100,0.2409090909090909,641,1,45,DL_Guitar,-1,-1
50,100,2.481818181818182,694,0,45,DL_Guitar,-1,-1
52,100,1.9181818181818182,383,1,46,DL_Guitar,-1,-1
62,100,0.1409090909090909,21,1,47,DL_Guitar,-1,-1
55,100,0.17727272727272728,348,1,47,DL_Guitar,-1,-1
55,100,1.018181818181818,391,0,47,DL_Guitar,-1,-1
48,100,0.1,716,1,47,DL_Guitar,-1,-1
60,100,0.1590909090909091,813,0,47,DL_Guitar,-1,-1
48,100,0.6227272727272727,26,1,48,DL_Guitar,-1,-1
62,100,0.23636363636363636,238,1,48,DL_Guitar,-1,-1
50,100,2.6,298,0,48,DL_Guitar,-1,-1
62,100,0.4,871,1,48,DL_Guitar,-1,-1
62,100,1.6,101,1,49,DL_Guitar,-1,-1
43,100,0.4590909090909091,550,1,49,DL_Guitar,-1,-1
43,100,0.11818181818181818,700,0,49,DL_Guitar,-1,-1
43,100,0.2,748,0,49,DL_Guitar,-1,-1
62,100,0.18181818181818182,791,0,49,DL_Guitar,-1,-1
43,100,0.21818181818181817,831,0,49,DL_Guitar,-1,-1
62,100,1.040909090909091,0,1,50,DL_Guitar,-1,-1
62,100,0.1,43,1,77,DL_Guitar,-1,-1
43,100,0.38181818181818183,66,0,77,DL_Guitar,-1,-1
62,100,0.35909090909090907,150,0,77,DL_Guitar,-1,-1
43,100,0.4590909090909091,237,0,77,DL_Guitar,-1,-1
55,100,0.11818181818181818,360,0,77,DL_Guitar,-1,-1
55,100,0.17727272727272728,392,0,77,DL_Guitar,-1,-1
62,100,0.3409090909090909,690,1,77,DL_Guitar,-1,-1
62,100,0.32272727272727275,69,1,78,DL_Guitar,-1,-1
62,100,0.16363636363636364,422,1,78,DL_Guitar,-1,-1
55,100,0.4590909090909091,475,0,78,DL_Guitar,-1,-1
55,100,0.5227272727272727,597,0,78,DL_Guitar,-1,-1
55,100,0.1590909090909091,22,1,79,DL_Guitar,-1,-1
52,100,0.13636363636363635,62,0,79,DL_Guitar,-1,-1
55,100,0.759090909090909,110,0,79,DL_Guitar,-1,-1
55,100,0.5,286,0,79,DL_Guitar,-1,-1
55,100,0.2772727272727273,480,0,79,DL_Guitar,-1,-1
43,100,0.740909090909091,559,0,79,DL_Guitar,-1,-1
43,100,0.18181818181818182,739,0,79,DL_Guitar,-1,-1
43,100,0.1590909090909091,783,0,79,DL_Guitar,-1,-1
55,100,0.2636363636363636,839,0,79,DL_Guitar,-1,-1
43,100,0.13636363636363635,17,1,80,DL_Guitar,-1,-1
55,100,0.16363636363636364,47,0,80,DL_Guitar,-1,-1
62,100,0.9409090909090909,233,0,80,DL_Guitar,-1,-1
62,100,0.5181818181818182,523,1,80,DL_Guitar,-1,-1
62,100,0.13636363636363635,810,1,80,DL_Guitar,-1,-1
43,100,0.11818181818181818,857,0,80,DL_Guitar,-1,-1
55,100,0.3181818181818182,40,1,81,DL_Guitar,-1,-1
43,100,0.4818181818181818,202,0,81,DL_Guitar,-1,-1
55,100,0.2772727272727273,470,1,81,DL_Guitar,-1,-1
55,100,1.3590909090909091,590,0,81,DL_Guitar,-1,-1
55,100,0.3,87,1,82,DL_Guitar,-1,-1
62,100,0.5,312,1,82,DL_Guitar,-1,-1
62,100,0.5590909090909091,436,0,82,DL_Guitar,-1,-1
62,100,0.2,722,1,82,DL_Guitar,-1,-1
62,100,0.13636363636363635,810,0,82,DL_Guitar,-1,-1
57,100,0.2409090909090909,839,0,82,DL_Guitar,-1,-1
57,100,1.3227272727272728,386,1,83,DL_Guitar,-1,-1
62,100,0.13636363636363635,787,1,83,DL_Guitar,-1,-1
59,100,0.37727272727272726,83,1,84,DL_Guitar,-1,-1
59,100,0.2590909090909091,303,1,84,DL_Guitar,-1,-1
59,100,0.2772727272727273,404,0,84,DL_Guitar,-1,-1
59,100,0.41818181818181815,502,0,84,DL_Guitar,-1,-1
43,100,0.2590909090909091,646,0,84,DL_Guitar,-1,-1
62,100,0.9,716,0,84,DL_Guitar,-1,-1
43,100,0.1,56,1,85,DL_Guitar,-1,-1
55,100,0.17727272727272728,127,0,85,DL_Guitar,-1,-1
50,100,0.7,453,1,85,DL_Guitar,-1,-1
57,100,0.2590909090909091,616,0,85,DL_Guitar,-1,-1
57,100,0.17727272727272728,700,0,85,DL_Guitar,-1,-1
55,100,0.5409090909090909,0,1,86,DL_Guitar,-1,-1
55,100,0.1409090909090909,377,1,86,DL_Guitar,-1,-1
55,100,1.6181818181818182,449,0,86,DL_Guitar,-1,-1
55,100,0.6,853,1,86,DL_Guitar,-1,-1
50,100,0.33636363636363636,347,1,87,DL_Guitar,-1,-1
50,100,0.7227272727272728,553,1,87,DL_Guitar,-1,-1
50,100,0.2409090909090909,729,0,87,DL_Guitar,-1,-1
50,100,0.7,53,1,88,DL_Guitar,-1,-1
57,100,0.5818181818181818,220,0,88,DL_Guitar,-1,-1
55,100,0.13636363636363635,612,1,88,DL_Guitar,-1,-1
59,100,0.2590909090909091,106,1,89,DL_Guitar,-1,-1
59,100,0.6,176,0,89,DL_Guitar,-1,-1
59,100,0.1590909090909091,320,0,89,DL_Guitar,-1,-1
55,100,0.42272727272727273,354,1,0,DL_Guitar_1,-1,-1
46,100,0.4909090909090909,42,1,1,DL_Guitar_1,-1,-1
46,100,0.20454545454545456,302,1,1,DL_Guitar_1,-1,-1
46,100,0.5545454545454546,466,0,1,DL_Guitar_1,-1,-1
53,100,0.6227272727272727,730,1,1,DL_Guitar_1,-1,-1
53,100,0.2681818181818182,76,1,2,DL_Guitar_1,-1,-1
51,100,0.13636363636363635,207,1,3,DL_Guitar_1,-1,-1
58,100,0.22272727272727272,336,0,3,DL_Guitar_1,-1,-1
58,100,0.18181818181818182,537,1,3,DL_Guitar_1,-1,-1
46,100,0.7772727272727272,577,0,3,DL_Guitar_1,-1,-1
46,100,0.2681818181818182,114,1,4,DL_Guitar_1,-1,-1
53,100,0.5590909090909091,368,1,4,DL_Guitar_1,-1,-1
53,100,0.24545454545454545,594,1,4,DL_Guitar_1,-1,-1
53,100,0.22727272727272727,741,0,4,DL_Guitar_1,-1,-1
53,100,0.24545454545454545,806,0,4,DL_Guitar_1,-1,-1
48,100,0.22272727272727272,14,1,5,DL_Guitar_1,-1,-1
53,100,0.2,220,1,5,DL_Guitar_1,-1,-1
53,100,0.1318181818181818,392,0,5,DL_Guitar_1,-1,-1
58,100,0.11363636363636363,205,1,6,DL_Guitar_1,-1,-1
46,100,0.5818181818181818,484,1,6,DL_Guitar_1,-1,-1
46,100,0.1318181818181818,686,1,6,DL_Guitar_1,-1,-1
41,100,0.2909090909090909,257,1,7,DL_Guitar_1,-1,-1
41,100,0.33181818181818185,459,1,7,DL_Guitar_1,-1,-1
41,100,0.2909090909090909,30,1,8,DL_Guitar_1,-1,-1
43,100,0.35454545454545455,280,1,9,DL_Guitar_1,-1,-1
58,100,0.10909090909090909,118,1,10,DL_Guitar_1,-1,-1
58,100,0.33636363636363636,544,1,10,DL_Guitar_1,-1,-1
58,100,0.22272727272727272,653,0,10,DL_Guitar_1,-1,-1
58,100,0.13636363636363635,706,0,10,DL_Guitar_1,-1,-1
46,100,0.7363636363636363,840,0,10,DL_Guitar_1,-1,-1
58,100,0.17727272727272728,338,1,11,DL_Guitar_1,-1,-1
46,100,0.24545454545454545,474,0,11,DL_Guitar_1,-1,-1
46,100,0.6272727272727273,651,0,11,DL_Guitar_1,-1,-1
46,100,0.13636363636363635,32,1,12,DL_Guitar_1,-1,-1
53,100,0.4909090909090909,194,0,12,DL_Guitar_1,-1,-1
53,100,0.4,352,0,12,DL_Guitar_1,-1,-1
41,100,0.22272727272727272,440,0,12,DL_Guitar_1,-1,-1
41,100,0.2909090909090909,558,0,12,DL_Guitar_1,-1,-1
53,100,0.15454545454545454,632,0,12,DL_Guitar_1,-1,-1
41,100,0.17727272727272728,665,0,12,DL_Guitar_1,-1,-1
60,100,0.37727272727272726,768,0,12,DL_Guitar_1,-1,-1
41,100,0.1590909090909091,852,0,12,DL_Guitar_1,-1,-1
53,100,0.22272727272727272,183,1,13,DL_Guitar_1,-1,-1
60,100,0.13636363636363635,316,0,13,DL_Guitar_1,-1,-1
55,100,0.10909090909090909,458,0,13,DL_Guitar_1,-1,-1
55,100,0.37727272727272726,462,1,14,DL_Guitar_1,-1,-1
51,100,0.42272727272727273,737,1,14,DL_Guitar_1,-1,-1
51,100,0.31363636363636366,82,1,15,DL_Guitar_1,-1,-1
53,100,0.1590909090909091,145,1,16,DL_Guitar_1,-1,-1
48,100,0.2909090909090909,602,1,16,DL_Guitar_1,-1,-1
43,100,0.17727272727272728,849,1,16,DL_Guitar_1,-1,-1
57,100,0.42727272727272725,425,1,17,DL_Guitar_1,-1,-1
41,100,0.15454545454545454,626,1,17,DL_Guitar_1,-1,-1
41,100,0.24545454545454545,700,0,17,DL_Guitar_1,-1,-1
53,100,0.22272727272727272,807,0,17,DL_Guitar_1,-1,-1
53,100,0.2,148,1,18,DL_Guitar_1,-1,-1
53,100,0.22272727272727272,227,0,18,DL_Guitar_1,-1,-1
41,100,0.22272727272727272,302,0,18,DL_Guitar_1,-1,-1
53,100,0.1318181818181818,356,0,18,DL_Guitar_1,-1,-1
57,100,0.33636363636363636,433,0,18,DL_Guitar_1,-1,-1
58,100,0.40454545454545454,588,1,20,DL_Guitar_1,-1,-1
58,100,0.17727272727272728,52,1,21,DL_Guitar_1,-1,-1
58,100,0.24545454545454545,161,0,21,DL_Guitar_1,-1,-1
57,100,0.22272727272727272,515,1,21,DL_Guitar_1,-1,-1
53,100,0.15454545454545454,169,1,22,DL_Guitar_1,-1,-1
53,100,0.2909090909090909,302,0,22,DL_Guitar_1,-1,-1
53,100,0.31363636363636366,587,1,22,DL_Guitar_1,-1,-1
58,100,0.1318181818181818,686,0,22,DL_Guitar_1,-1,-1
58,100,0.2681818181818182,45,1,23,DL_Guitar_1,-1,-1
50,100,0.22272727272727272,144,0,23,DL_Guitar_1,-1,-1
50,100,0.20454545454545456,198,0,23,DL_Guitar_1,-1,-1
53,100,0.2,336,0,23,DL_Guitar_1,-1,-1
57,100,0.6454545454545455,388,1,24,DL_Guitar_1,-1,-1
57,100,0.2,536,0,24,DL_Guitar_1,-1,-1
51,100,1.0045454545454546,632,1,25,DL_Guitar_1,-1,-1
51,100,0.2,48,1,26,DL_Guitar_1,-1,-1
58,100,0.24545454545454545,185,0,26,DL_Guitar_1,-1,-1
51,100,0.13636363636363635,377,0,26,DL_Guitar_1,-1,-1
58,100,0.11363636363636363,436,0,26,DL_Guitar_1,-1,-1
53,100,0.1590909090909091,705,1,26,DL_Guitar_1,-1,-1
57,100,0.22272727272727272,774,0,26,DL_Guitar_1,-1,-1
57,100,0.6909090909090909,61,1,27,DL_Guitar_1,-1,-1
53,100,0.1318181818181818,278,1,27,DL_Guitar_1,-1,-1
41,100,0.4681818181818182,336,0,27,DL_Guitar_1,-1,-1
41,100,0.24545454545454545,494,0,27,DL_Guitar_1,-1,-1
60,100,0.15454545454545454,547,0,27,DL_Guitar_1,-1,-1
43,100,0.17727272727272728,51,1,28,DL_Guitar_1,-1,-1
55,100,0.35454545454545455,846,1,28,DL_Guitar_1,-1,-1
53,100,0.2,123,1,29,DL_Guitar_1,-1,-1
53,100,0.2681818181818182,172,0,29,DL_Guitar_1,-1,-1
53,100,0.1590909090909091,358,0,29,DL_Guitar_1,-1,-1
53,100,0.18181818181818182,584,1,29,DL_Guitar_1,-1,-1
53,100,0.2909090909090909,772,0,29,DL_Guitar_1,-1,-1
41,100,0.2681818181818182,14,1,30,DL_Guitar_1,-1,-1
41,100,0.2,113,0,30,DL_Guitar_1,-1,-1
41,100,0.13636363636363635,161,0,30,DL_Guitar_1,-1,-1
41,100,0.24545454545454545,246,0,30,DL_Guitar_1,-1,-1
63,100,0.24545454545454545,436,0,30,DL_Guitar_1,-1,-1
63,100,0.22272727272727272,521,0,30,DL_Guitar_1,-1,-1
63,100,0.5818181818181818,721,1,30,DL_Guitar_1,-1,-1
51,100,1.3590909090909091,849,0,30,DL_Guitar_1,-1,-1
63,100,0.35909090909090907,268,1,31,DL_Guitar_1,-1,-1
51,100,0.38181818181818183,371,0,31,DL_Guitar_1,-1,-1
63,100,0.5136363636363637,470,0,31,DL_Guitar_1,-1,-1
53,100,0.22272727272727272,587,0,31,DL_Guitar_1,-1,-1
41,100,0.1318181818181818,666,0,31,DL_Guitar_1,-1,-1
48,100,1.1136363636363635,116,1,32,DL_Guitar_1,-1,-1
51,100,0.40454545454545454,46,1,33,DL_Guitar_1,-1,-1
51,100,0.1590909090909091,321,1,33,DL_Guitar_1,-1,-1
53,100,0.24545454545454545,685,1,33,DL_Guitar_1,-1,-1
53,100,0.22272727272727272,241,1,34,DL_Guitar_1,-1,-1
53,100,0.13636363636363635,315,0,34,DL_Guitar_1,-1,-1
51,100,1.1409090909090909,598,1,35,DL_Guitar_1,-1,-1
51,100,0.1318181818181818,19,1,36,DL_Guitar_1,-1,-1
48,100,0.2681818181818182,263,1,36,DL_Guitar_1,-1,-1
41,100,0.2681818181818182,337,0,36,DL_Guitar_1,-1,-1
53,100,0.10909090909090909,397,0,36,DL_Guitar_1,-1,-1
41,100,0.15454545454545454,710,1,36,DL_Guitar_1,-1,-1
53,100,0.2681818181818182,744,0,36,DL_Guitar_1,-1,-1
53,100,0.4681818181818182,809,0,36,DL_Guitar_1,-1,-1
53,100,0.24545454545454545,174,1,37,DL_Guitar_1,-1,-1
53,100,0.2,243,0,37,DL_Guitar_1,-1,-1
53,100,0.2909090909090909,307,0,37,DL_Guitar_1,-1,-1
53,100,0.6045454545454545,380,0,37,DL_Guitar_1,-1,-1
53,100,0.2681818181818182,602,1,37,DL_Guitar_1,-1,-1
53,100,0.2681818181818182,680,0,37,DL_Guitar_1,-1,-1
53,100,0.1590909090909091,860,1,38,DL_Guitar_1,-1,-1
50,100,0.2,561,1,39,DL_Guitar_1,-1,-1
50,100,0.10909090909090909,610,0,39,DL_Guitar_1,-1,-1
50,100,0.2909090909090909,698,0,39,DL_Guitar_1,-1,-1
50,100,0.44545454545454544,786,0,39,DL_Guitar_1,-1,-1
50,100,0.42727272727272725,200,1,40,DL_Guitar_1,-1,-1
55,100,0.2909090909090909,383,0,40,DL_Guitar_1,-1,-1
60,100,0.5136363636363637,830,1,40,DL_Guitar_1,-1,-1
60,100,0.6227272727272727,352,1,41,DL_Guitar_1,-1,-1
53,100,0.35909090909090907,56,1,42,DL_Guitar_1,-1,-1
41,100,0.22272727272727272,165,0,42,DL_Guitar_1,-1,-1
41,100,0.22272727272727272,219,0,42,DL_Guitar_1,-1,-1
41,100,0.17727272727272728,282,0,42,DL_Guitar_1,-1,-1
53,100,0.45,414,0,42,DL_Guitar_1,-1,-1
53,100,0.33181818181818185,632,1,42,DL_Guitar_1,-1,-1
53,100,0.24545454545454545,832,1,42,DL_Guitar_1,-1,-1
51,100,0.17727272727272728,272,1,43,DL_Guitar_1,-1,-1
51,100,1.2954545454545454,321,0,43,DL_Guitar_1,-1,-1
51,100,0.15454545454545454,665,1,43,DL_Guitar_1,-1,-1
51,100,0.4909090909090909,703,0,43,DL_Guitar_1,-1,-1
41,100,0.15454545454545454,837,0,43,DL_Guitar_1,-1,-1
41,100,0.2,158,1,44,DL_Guitar_1,-1,-1
41,100,0.22272727272727272,378,1,44,DL_Guitar_1,-1,-1
60,100,0.22272727272727272,458,0,44,DL_Guitar_1,-1,-1
53,100,0.22272727272727272,576,0,44,DL_Guitar_1,-1,-1
53,100,0.2909090909090909,0,1,45,DL_Guitar_1,-1,-1
53,100,0.1590909090909091,206,1,45,DL_Guitar_1,-1,-1
58,100,0.4909090909090909,300,0,45,DL_Guitar_1,-1,-1
53,100,0.17727272727272728,432,0,45,DL_Guitar_1,-1,-1
53,100,0.5590909090909091,638,1,45,DL_Guitar_1,-1,-1
51,100,0.7136363636363636,102,1,46,DL_Guitar_1,-1,-1
51,100,0.1590909090909091,377,1,46,DL_Guitar_1,-1,-1
53,100,0.2909090909090909,691,1,46,DL_Guitar_1,-1,-1
53,100,0.3090909090909091,22,1,47,DL_Guitar_1,-1,-1
41,100,0.22272727272727272,170,0,47,DL_Guitar_1,-1,-1
48,100,2.4136363636363636,581,1,48,DL_Guitar_1,-1,-1
48,100,0.24545454545454545,358,1,49,DL_Guitar_1,-1,-1
48,100,0.31363636363636366,453,0,49,DL_Guitar_1,-1,-1
60,100,0.6909090909090909,522,0,49,DL_Guitar_1,-1,-1
48,100,0.2,708,0,49,DL_Guitar_1,-1,-1
51,100,0.3090909090909091,791,0,49,DL_Guitar_1,-1,-1
51,100,1.3409090909090908,214,1,51,DL_Guitar_1,-1,-1
51,100,0.13636363636363635,543,1,51,DL_Guitar_1,-1,-1
53,100,0.13636363636363635,361,1,52,DL_Guitar_1,-1,-1
41,100,0.22272727272727272,494,0,52,DL_Guitar_1,-1,-1
55,100,0.2681818181818182,831,1,53,DL_Guitar_1,-1,-1
45,100,0.22272727272727272,339,1,54,DL_Guitar_1,-1,-1
57,100,0.7818181818181819,545,1,54,DL_Guitar_1,-1,-1
57,100,0.20454545454545456,805,1,54,DL_Guitar_1,-1,-1
55,100,0.2909090909090909,343,1,55,DL_Guitar_1,-1,-1
48,100,0.13636363636363635,632,1,55,DL_Guitar_1,-1,-1
48,100,0.2681818181818182,701,0,55,DL_Guitar_1,-1,-1
53,100,0.3090909090909091,845,0,55,DL_Guitar_1,-1,-1
48,100,0.17727272727272728,53,1,56,DL_Guitar_1,-1,-1
53,100,0.31363636363636366,111,0,56,DL_Guitar_1,-1,-1
53,100,0.13636363636363635,248,0,56,DL_Guitar_1,-1,-1
55,100,3.036363636363636,386,0,56,DL_Guitar_1,-1,-1
51,100,0.6272727272727273,806,1,63,DL_Guitar_1,-1,-1
51,100,0.2,69,1,64,DL_Guitar_1,-1,-1
41,100,0.31363636363636366,432,1,64,DL_Guitar_1,-1,-1
41,100,0.759090909090909,767,1,64,DL_Guitar_1,-1,-1
53,100,0.10909090909090909,58,1,65,DL_Guitar_1,-1,-1
41,100,0.13636363636363635,82,0,65,DL_Guitar_1,-1,-1
50,100,0.8227272727272728,521,1,65,DL_Guitar_1,-1,-1
50,100,0.42272727272727273,820,1,65,DL_Guitar_1,-1,-1
50,100,1.1818181818181819,47,1,66,DL_Guitar_1,-1,-1
50,100,0.42727272727272725,357,1,66,DL_Guitar_1,-1,-1
61,100,0.41818181818181815,39,1,15,DL_deepemotion_Guitar,-1,-1
54,100,0.2,712,1,17,DL_deepemotion_Guitar,-1,-1
56,100,0.7,801,0,17,DL_deepemotion_Guitar,-1,-1
56,100,0.2,83,1,18,DL_deepemotion_Guitar,-1,-1
51,100,0.5,461,1,18,DL_deepemotion_Guitar,-1,-1
51,100,0.3409090909090909,650,0,18,DL_deepemotion_Guitar,-1,-1
51,100,0.7818181818181819,223,1,19,DL_deepemotion_Guitar,-1,-1
42,100,0.2772727272727273,853,1,19,DL_deepemotion_Guitar,-1,-1
54,100,0.4818181818181818,34,1,20,DL_deepemotion_Guitar,-1,-1
54,100,0.22272727272727272,179,0,20,DL_deepemotion_Guitar,-1,-1
47,100,1.459090909090909,528,1,20,DL_deepemotion_Guitar,-1,-1
47,100,0.1,853,1,20,DL_deepemotion_Guitar,-1,-1
47,100,0.6409090909090909,0,1,21,DL_deepemotion_Guitar,-1,-1
54,100,0.32272727272727275,409,1,21,DL_deepemotion_Guitar,-1,-1
42,100,2.077272727272727,536,0,21,DL_deepemotion_Guitar,-1,-1
42,100,0.759090909090909,119,1,22,DL_deepemotion_Guitar,-1,-1
54,100,0.11818181818181818,326,1,22,DL_deepemotion_Guitar,-1,-1
51,100,1.440909090909091,563,1,22,DL_deepemotion_Guitar,-1,-1
63,100,0.2818181818181818,189,1,23,DL_deepemotion_Guitar,-1,-1
51,100,0.5636363636363636,268,0,23,DL_deepemotion_Guitar,-1,-1
51,100,0.6818181818181818,461,0,23,DL_deepemotion_Guitar,-1,-1
51,100,0.1,615,0,23,DL_deepemotion_Guitar,-1,-1
51,100,0.6,642,0,23,DL_deepemotion_Guitar,-1,-1
51,100,0.11818181818181818,801,0,23,DL_deepemotion_Guitar,-1,-1
61,100,0.1409090909090909,866,0,23,DL_deepemotion_Guitar,-1,-1
47,100,0.41818181818181815,44,1,24,DL_deepemotion_Guitar,-1,-1
54,100,0.11818181818181818,326,1,24,DL_deepemotion_Guitar,-1,-1
47,100,0.8590909090909091,492,0,24,DL_deepemotion_Guitar,-1,-1
47,100,0.3181818181818182,704,1,24,DL_deepemotion_Guitar,-1,-1
47,100,0.4,839,0,24,DL_deepemotion_Guitar,-1,-1
59,100,0.740909090909091,65,1,25,DL_deepemotion_Guitar,-1,-1
47,100,0.3,229,0,25,DL_deepemotion_Guitar,-1,-1
59,100,0.11818181818181818,295,0,25,DL_deepemotion_Guitar,-1,-1
56,100,0.11818181818181818,656,1,25,DL_deepemotion_Guitar,-1,-1
56,100,0.2818181818181818,818,0,25,DL_deepemotion_Guitar,-1,-1
56,100,0.37727272727272726,61,1,26,DL_deepemotion_Guitar,-1,-1
56,100,0.2409090909090909,223,0,26,DL_deepemotion_Guitar,-1,-1
62,100,0.18181818181818182,202,1,27,DL_deepemotion_Guitar,-1,-1
51,100,2.140909090909091,100,1,28,DL_deepemotion_Guitar,-1,-1
51,100,0.9363636363636364,590,1,28,DL_deepemotion_Guitar,-1,-1
63,100,0.23636363636363636,810,1,28,DL_deepemotion_Guitar,-1,-1
51,100,0.5772727272727273,876,0,28,DL_deepemotion_Guitar,-1,-1
51,100,0.8,127,1,29,DL_deepemotion_Guitar,-1,-1
51,100,0.3409090909090909,308,0,29,DL_deepemotion_Guitar,-1,-1
52,100,0.11818181818181818,382,0,29,DL_deepemotion_Guitar,-1,-1
54,100,0.12272727272727273,422,0,29,DL_deepemotion_Guitar,-1,-1
54,100,0.2,567,0,29,DL_deepemotion_Guitar,-1,-1
52,100,0.37727272727272726,414,1,0,Dl_Nostalgic_2_Guitar,-1,-1
54,100,0.3181818181818182,502,0,0,Dl_Nostalgic_2_Guitar,-1,-1
57,100,0.2818181818181818,585,0,0,Dl_Nostalgic_2_Guitar,-1,-1
45,100,0.4409090909090909,664,0,0,Dl_Nostalgic_2_Guitar,-1,-1
45,100,0.4772727272727273,788,0,0,Dl_Nostalgic_2_Guitar,-1,-1
61,100,0.2,157,1,1,Dl_Nostalgic_2_Guitar,-1,-1
61,100,0.17727272727272728,206,0,1,Dl_Nostalgic_2_Guitar,-1,-1
45,100,0.33636363636363636,348,0,1,Dl_Nostalgic_2_Guitar,-1,-1
45,100,0.1409090909090909,559,1,1,Dl_Nostalgic_2_Guitar,-1,-1
45,100,0.2409090909090909,603,0,1,Dl_Nostalgic_2_Guitar,-1,-1
52,100,0.2,752,0,1,Dl_Nostalgic_2_Guitar,-1,-1
45,100,0.2772727272727273,30,1,2,Dl_Nostalgic_2_Guitar,-1,-1
61,100,0.1409090909090909,220,0,2,Dl_Nostalgic_2_Guitar,-1,-1
52,100,0.12272727272727273,342,0,2,Dl_Nostalgic_2_Guitar,-1,-1
61,100,0.2,440,0,2,Dl_Nostalgic_2_Guitar,-1,-1
47,100,0.2,761,1,2,Dl_Nostalgic_2_Guitar,-1,-1
54,100,1.1590909090909092,804,0,2,Dl_Nostalgic_2_Guitar,-1,-1
54,100,0.2409090909090909,421,1,3,Dl_Nostalgic_2_Guitar,-1,-1
49,100,0.4818181818181818,483,0,3,Dl_Nostalgic_2_Guitar,-1,-1
49,100,0.22272727272727272,598,0,3,Dl_Nostalgic_2_Guitar,-1,-1
54,100,0.21818181818181817,703,0,3,Dl_Nostalgic_2_Guitar,-1,-1
49,100,0.2409090909090909,757,0,3,Dl_Nostalgic_2_Guitar,-1,-1
54,100,0.12272727272727273,48,1,4,Dl_Nostalgic_2_Guitar,-1,-1
49,100,0.32272727272727275,342,1,4,Dl_Nostalgic_2_Guitar,-1,-1
54,100,0.4,435,0,4,Dl_Nostalgic_2_Guitar,-1,-1
57,100,0.17727272727272728,524,0,4,Dl_Nostalgic_2_Guitar,-1,-1
57,100,0.2409090909090909,606,0,4,Dl_Nostalgic_2_Guitar,-1,-1
57,100,0.21818181818181817,691,0,4,Dl_Nostalgic_2_Guitar,-1,-1
57,100,0.1409090909090909,813,0,4,Dl_Nostalgic_2_Guitar,-1,-1
52,100,0.1409090909090909,8,1,5,Dl_Nostalgic_2_Guitar,-1,-1
50,100,1.0,118,0,5,Dl_Nostalgic_2_Guitar,-1,-1
57,100,0.2409090909090909,338,1,5,Dl_Nostalgic_2_Guitar,-1,-1
50,100,0.11818181818181818,396,0,5,Dl_Nostalgic_2_Guitar,-1,-1
50,100,0.5818181818181818,488,0,5,Dl_Nostalgic_2_Guitar,-1,-1
50,100,0.6590909090909091,660,0,5,Dl_Nostalgic_2_Guitar,-1,-1
57,100,0.2772727272727273,810,0,5,Dl_Nostalgic_2_Guitar,-1,-1
57,100,0.16363636363636364,4,1,6,Dl_Nostalgic_2_Guitar,-1,-1
50,100,0.3181818181818182,40,0,6,Dl_Nostalgic_2_Guitar,-1,-1
49,100,1.059090909090909,176,0,6,Dl_Nostalgic_2_Guitar,-1,-1
49,100,0.8409090909090909,475,1,6,Dl_Nostalgic_2_Guitar,-1,-1
49,100,1.0,668,0,6,Dl_Nostalgic_2_Guitar,-1,-1
57,100,0.1590909090909091,74,1,7,Dl_Nostalgic_2_Guitar,-1,-1
61,100,0.22272727272727272,158,0,7,Dl_Nostalgic_2_Guitar,-1,-1
47,100,0.11818181818181818,242,0,7,Dl_Nostalgic_2_Guitar,-1,-1
47,100,0.7,342,0,7,Dl_Nostalgic_2_Guitar,-1,-1
47,100,0.2409090909090909,562,1,7,Dl_Nostalgic_2_Guitar,-1,-1
47,100,0.4636363636363636,619,0,7,Dl_Nostalgic_2_Guitar,-1,-1
54,100,0.9409090909090909,761,0,7,Dl_Nostalgic_2_Guitar,-1,-1
57,100,0.2,110,1,8,Dl_Nostalgic_2_Guitar,-1,-1
54,100,0.2,154,0,8,Dl_Nostalgic_2_Guitar,-1,-1
52,100,0.13636363636363635,326,0,8,Dl_Nostalgic_2_Guitar,-1,-1
52,100,0.8636363636363636,378,0,8,Dl_Nostalgic_2_Guitar,-1,-1
54,100,0.1590909090909091,625,1,8,Dl_Nostalgic_2_Guitar,-1,-1
52,100,0.9,792,0,8,Dl_Nostalgic_2_Guitar,-1,-1
64,100,0.22272727272727272,123,1,9,Dl_Nostalgic_2_Guitar,-1,-1
57,100,0.1409090909090909,202,0,9,Dl_Nostalgic_2_Guitar,-1,-1
52,100,0.2,259,0,9,Dl_Nostalgic_2_Guitar,-1,-1
59,100,0.33636363636363636,326,0,9,Dl_Nostalgic_2_Guitar,-1,-1
57,100,1.1818181818181819,400,0,9,Dl_Nostalgic_2_Guitar,-1,-1
57,100,0.22272727272727272,761,1,9,Dl_Nostalgic_2_Guitar,-1,-1
57,100,0.12272727272727273,25,1,10,Dl_Nostalgic_2_Guitar,-1,-1
57,100,0.6409090909090909,276,1,10,Dl_Nostalgic_2_Guitar,-1,-1
57,100,0.1,470,0,10,Dl_Nostalgic_2_Guitar,-1,-1
57,100,0.740909090909091,735,1,10,Dl_Nostalgic_2_Guitar,-1,-1
57,100,0.2590909090909091,233,1,11,Dl_Nostalgic_2_Guitar,-1,-1
57,100,0.5,295,0,11,Dl_Nostalgic_2_Guitar,-1,-1
57,100,0.5363636363636364,414,0,11,Dl_Nostalgic_2_Guitar,-1,-1
54,100,1.240909090909091,541,0,11,Dl_Nostalgic_2_Guitar,-1,-1
57,100,0.2818181818181818,818,1,11,Dl_Nostalgic_2_Guitar,-1,-1
42,100,0.2,22,1,12,Dl_Nostalgic_2_Guitar,-1,-1
54,100,0.4,175,0,12,Dl_Nostalgic_2_Guitar,-1,-1
54,100,0.1,268,0,12,Dl_Nostalgic_2_Guitar,-1,-1
57,100,0.4590909090909091,414,0,12,Dl_Nostalgic_2_Guitar,-1,-1
61,100,0.17727272727272728,536,0,12,Dl_Nostalgic_2_Guitar,-1,-1
54,100,0.5409090909090909,660,0,12,Dl_Nostalgic_2_Guitar,-1,-1
57,100,0.1,809,0,12,Dl_Nostalgic_2_Guitar,-1,-1
57,100,0.1590909090909091,13,1,13,Dl_Nostalgic_2_Guitar,-1,-1
57,100,0.2636363636363636,290,1,13,Dl_Nostalgic_2_Guitar,-1,-1
57,100,0.6818181818181818,527,1,13,Dl_Nostalgic_2_Guitar,-1,-1
50,100,0.4,721,0,13,Dl_Nostalgic_2_Guitar,-1,-1
50,100,0.35909090909090907,13,1,14,Dl_Nostalgic_2_Guitar,-1,-1
57,100,0.3409090909090909,96,0,14,Dl_Nostalgic_2_Guitar,-1,-1
50,100,0.6590909090909091,189,0,14,Dl_Nostalgic_2_Guitar,-1,-1
50,100,0.12272727272727273,343,0,14,Dl_Nostalgic_2_Guitar,-1,-1
50,100,0.2636363636363636,378,0,14,Dl_Nostalgic_2_Guitar,-1,-1
50,100,0.2590909090909091,448,0,14,Dl_Nostalgic_2_Guitar,-1,-1
57,100,0.8363636363636363,567,0,14,Dl_Nostalgic_2_Guitar,-1,-1
57,100,0.35909090909090907,171,1,15,Dl_Nostalgic_2_Guitar,-1,-1
57,100,0.2590909090909091,254,0,15,Dl_Nostalgic_2_Guitar,-1,-1
57,100,0.38181818181818183,321,0,15,Dl_Nostalgic_2_Guitar,-1,-1
57,100,0.1409090909090909,558,1,15,Dl_Nostalgic_2_Guitar,-1,-1
57,100,0.42272727272727273,651,0,15,Dl_Nostalgic_2_Guitar,-1,-1
57,100,0.38181818181818183,804,0,15,Dl_Nostalgic_2_Guitar,-1,-1
57,100,0.1,100,1,16,Dl_Nostalgic_2_Guitar,-1,-1
57,100,0.38181818181818183,254,0,16,Dl_Nostalgic_2_Guitar,-1,-1
57,100,0.21818181818181817,347,0,16,Dl_Nostalgic_2_Guitar,-1,-1
57,100,0.3,426,0,16,Dl_Nostalgic_2_Guitar,-1,-1
57,100,0.2818181818181818,550,0,16,Dl_Nostalgic_2_Guitar,-1,-1
57,100,0.6409090909090909,729,0,16,Dl_Nostalgic_2_Guitar,-1,-1
57,100,1.3818181818181818,3,1,17,Dl_Nostalgic_2_Guitar,-1,-1
57,100,0.5590909090909091,326,1,17,Dl_Nostalgic_2_Guitar,-1,-1
57,100,0.4590909090909091,457,0,17,Dl_Nostalgic_2_Guitar,-1,-1
57,100,0.2409090909090909,594,0,17,Dl_Nostalgic_2_Guitar,-1,-1
57,100,0.1409090909090909,660,0,17,Dl_Nostalgic_2_Guitar,-1,-1
57,100,0.2,700,0,17,Dl_Nostalgic_2_Guitar,-1,-1
57,100,0.38181818181818183,804,0,17,Dl_Nostalgic_2_Guitar,-1,-1
57,100,0.5,52,1,18,Dl_Nostalgic_2_Guitar,-1,-1
52,100,0.3409090909090909,185,0,18,Dl_Nostalgic_2_Guitar,-1,-1
57,100,0.3409090909090909,409,1,18,Dl_Nostalgic_2_Guitar,-1,-1
47,100,0.2,619,1,18,Dl_Nostalgic_2_Guitar,-1,-1
47,100,0.3,712,0,18,Dl_Nostalgic_2_Guitar,-1,-1
47,100,0.2772727272727273,822,0,18,Dl_Nostalgic_2_Guitar,-1,-1
59,100,0.22272727272727272,3,1,19,Dl_Nostalgic_2_Guitar,-1,-1
64,100,0.2818181818181818,110,0,19,Dl_Nostalgic_2_Guitar,-1,-1
61,100,0.2590909090909091,189,0,19,Dl_Nostalgic_2_Guitar,-1,-1
50,100,0.35909090909090907,351,0,19,Dl_Nostalgic_2_Guitar,-1,-1
50,100,0.1409090909090909,440,0,19,Dl_Nostalgic_2_Guitar,-1,-1
50,100,0.2772727272727273,581,0,19,Dl_Nostalgic_2_Guitar,-1,-1
61,100,0.2409090909090909,673,0,19,Dl_Nostalgic_2_Guitar,-1,-1
59,100,0.2,752,0,19,Dl_Nostalgic_2_Guitar,-1,-1
59,100,0.9,814,0,19,Dl_Nostalgic_2_Guitar,-1,-1
59,100,0.1409090909090909,136,1,20,Dl_Nostalgic_2_Guitar,-1,-1
59,100,0.21818181818181817,175,0,20,Dl_Nostalgic_2_Guitar,-1,-1
64,100,0.1409090909090909,295,0,20,Dl_Nostalgic_2_Guitar,-1,-1
61,100,0.2409090909090909,409,0,20,Dl_Nostalgic_2_Guitar,-1,-1
64,100,0.18181818181818182,488,0,20,Dl_Nostalgic_2_Guitar,-1,-1
61,100,0.3,638,0,20,Dl_Nostalgic_2_Guitar,-1,-1
61,100,0.2590909090909091,756,0,20,Dl_Nostalgic_2_Guitar,-1,-1
61,100,0.2772727272727273,866,0,20,Dl_Nostalgic_2_Guitar,-1,-1
61,100,0.3181818181818182,162,1,21,Dl_Nostalgic_2_Guitar,-1,-1
45,100,0.12272727272727273,246,0,21,Dl_Nostalgic_2_Guitar,-1,-1
61,100,0.35909090909090907,330,0,21,Dl_Nostalgic_2_Guitar,-1,-1
61,100,0.4818181818181818,430,0,21,Dl_Nostalgic_2_Guitar,-1,-1
50,100,0.1,540,0,21,Dl_Nostalgic_2_Guitar,-1,-1
61,100,0.1590909090909091,611,0,21,Dl_Nostalgic_2_Guitar,-1,-1
61,100,0.43636363636363634,656,0,21,Dl_Nostalgic_2_Guitar,-1,-1
61,100,0.37727272727272726,810,0,21,Dl_Nostalgic_2_Guitar,-1,-1
40,100,0.1,65,1,22,Dl_Nostalgic_2_Guitar,-1,-1
40,100,0.18181818181818182,123,0,22,Dl_Nostalgic_2_Guitar,-1,-1
52,100,0.1409090909090909,220,0,22,Dl_Nostalgic_2_Guitar,-1,-1
40,100,0.4590909090909091,308,0,22,Dl_Nostalgic_2_Guitar,-1,-1
45,100,0.1590909090909091,590,1,22,Dl_Nostalgic_2_Guitar,-1,-1
57,100,0.11818181818181818,748,0,22,Dl_Nostalgic_2_Guitar,-1,-1
52,100,0.1,21,1,23,Dl_Nostalgic_2_Guitar,-1,-1
45,100,0.2409090909090909,202,0,23,Dl_Nostalgic_2_Guitar,-1,-1
61,100,0.759090909090909,339,0,23,Dl_Nostalgic_2_Guitar,-1,-1
62,100,0.3,584,1,23,Dl_Nostalgic_2_Guitar,-1,-1
62,100,0.8590909090909091,673,0,23,Dl_Nostalgic_2_Guitar,-1,-1
62,100,0.1409090909090909,870,0,23,Dl_Nostalgic_2_Guitar,-1,-1
62,100,0.12272727272727273,144,1,24,Dl_Nostalgic_2_Guitar,-1,-1
47,100,0.22272727272727272,254,0,24,Dl_Nostalgic_2_Guitar,-1,-1
59,100,0.1590909090909091,320,0,24,Dl_Nostalgic_2_Guitar,-1,-1
59,100,0.6,436,0,24,Dl_Nostalgic_2_Guitar,-1,-1
61,100,0.4,717,1,24,Dl_Nostalgic_2_Guitar,-1,-1
57,100,0.4590909090909091,30,1,25,Dl_Nostalgic_2_Guitar,-1,-1
58,100,0.2818181818181818,179,0,25,Dl_Nostalgic_2_Guitar,-1,-1
61,100,0.21818181818181817,339,0,25,Dl_Nostalgic_2_Guitar,-1,-1
62,100,0.6181818181818182,756,1,25,Dl_Nostalgic_2_Guitar,-1,-1
57,100,0.12272727272727273,48,1,26,Dl_Nostalgic_2_Guitar,-1,-1
62,100,0.2,100,0,26,Dl_Nostalgic_2_Guitar,-1,-1
57,100,0.6181818181818182,150,0,26,Dl_Nostalgic_2_Guitar,-1,-1
47,100,0.7,333,0,26,Dl_Nostalgic_2_Guitar,-1,-1
59,100,0.1590909090909091,656,1,26,Dl_Nostalgic_2_Guitar,-1,-1
59,100,0.12272727272727273,708,0,26,Dl_Nostalgic_2_Guitar,-1,-1
57,100,0.1590909090909091,822,0,26,Dl_Nostalgic_2_Guitar,-1,-1
45,100,0.4,858,0,26,Dl_Nostalgic_2_Guitar,-1,-1
61,100,0.3409090909090909,92,1,27,Dl_Nostalgic_2_Guitar,-1,-1
61,100,0.3,316,1,27,Dl_Nostalgic_2_Guitar,-1,-1
52,100,0.4,488,0,27,Dl_Nostalgic_2_Guitar,-1,-1
52,100,0.11818181818181818,602,0,27,Dl_Nostalgic_2_Guitar,-1,-1
61,100,0.2590909090909091,700,0,27,Dl_Nostalgic_2_Guitar,-1,-1
64,100,0.12272727272727273,862,0,27,Dl_Nostalgic_2_Guitar,-1,-1
61,100,0.11818181818181818,9,1,28,Dl_Nostalgic_2_Guitar,-1,-1
61,100,0.1409090909090909,44,0,28,Dl_Nostalgic_2_Guitar,-1,-1
57,100,0.3181818181818182,281,1,28,Dl_Nostalgic_2_Guitar,-1,-1
57,100,0.2409090909090909,387,0,28,Dl_Nostalgic_2_Guitar,-1,-1
45,100,0.2818181818181818,440,0,28,Dl_Nostalgic_2_Guitar,-1,-1
45,100,0.38181818181818183,550,0,28,Dl_Nostalgic_2_Guitar,-1,-1
61,100,0.1590909090909091,691,0,28,Dl_Nostalgic_2_Guitar,-1,-1
57,100,0.5409090909090909,791,0,28,Dl_Nostalgic_2_Guitar,-1,-1
45,100,0.12272727272727273,57,1,29,Dl_Nostalgic_2_Guitar,-1,-1
61,100,0.2409090909090909,123,0,29,Dl_Nostalgic_2_Guitar,-1,-1
52,100,0.11818181818181818,501,1,29,Dl_Nostalgic_2_Guitar,-1,-1
49,100,0.1,633,0,29,Dl_Nostalgic_2_Guitar,-1,-1
57,100,0.1409090909090909,167,1,30,Dl_Nostalgic_2_Guitar,-1,-1
57,100,0.2,202,0,30,Dl_Nostalgic_2_Guitar,-1,-1
49,100,0.32272727272727275,333,0,30,Dl_Nostalgic_2_Guitar,-1,-1
57,100,0.1409090909090909,466,0,30,Dl_Nostalgic_2_Guitar,-1,-1
49,100,0.3,646,0,30,Dl_Nostalgic_2_Guitar,-1,-1
49,100,0.1,743,0,30,Dl_Nostalgic_2_Guitar,-1,-1
49,100,0.5,770,0,30,Dl_Nostalgic_2_Guitar,-1,-1
57,100,0.1409090909090909,48,1,31,Dl_Nostalgic_2_Guitar,-1,-1
49,100,0.1590909090909091,106,0,31,Dl_Nostalgic_2_Guitar,-1,-1
49,100,0.3181818181818182,185,0,31,Dl_Nostalgic_2_Guitar,-1,-1
49,100,0.35909090909090907,326,0,31,Dl_Nostalgic_2_Guitar,-1,-1
61,100,0.1409090909090909,532,1,31,Dl_Nostalgic_2_Guitar,-1,-1
61,100,0.17727272727272728,567,0,31,Dl_Nostalgic_2_Guitar,-1,-1
61,100,0.1,646,0,31,Dl_Nostalgic_2_Guitar,-1,-1
49,100,0.2590909090909091,760,0,31,Dl_Nostalgic_2_Guitar,-1,-1
42,100,0.18181818181818182,26,1,32,Dl_Nostalgic_2_Guitar,-1,-1
49,100,0.3181818181818182,193,0,32,Dl_Nostalgic_2_Guitar,-1,-1
57,100,0.7227272727272728,334,0,32,Dl_Nostalgic_2_Guitar,-1,-1
57,100,1.8227272727272728,651,1,32,Dl_Nostalgic_2_Guitar,-1,-1
57,100,0.9181818181818182,215,1,33,Dl_Nostalgic_2_Guitar,-1,-1
57,100,0.6227272727272727,509,1,33,Dl_Nostalgic_2_Guitar,-1,-1
57,100,0.33636363636363636,655,0,33,Dl_Nostalgic_2_Guitar,-1,-1
64,100,0.2,765,0,33,Dl_Nostalgic_2_Guitar,-1,-1
61,100,0.11818181818181818,0,1,34,Dl_Nostalgic_2_Guitar,-1,-1
49,100,0.21818181818181817,198,1,34,Dl_Nostalgic_2_Guitar,-1,-1
57,100,1.018181818181818,263,0,34,Dl_Nostalgic_2_Guitar,-1,-1
54,100,0.2409090909090909,496,1,34,Dl_Nostalgic_2_Guitar,-1,-1
54,100,0.12272727272727273,619,0,34,Dl_Nostalgic_2_Guitar,-1,-1
54,100,0.2409090909090909,804,0,34,Dl_Nostalgic_2_Guitar,-1,-1
54,100,0.3409090909090909,21,1,35,Dl_Nostalgic_2_Guitar,-1,-1
54,100,0.42272727272727273,399,1,35,Dl_Nostalgic_2_Guitar,-1,-1
54,100,0.11818181818181818,506,0,35,Dl_Nostalgic_2_Guitar,-1,-1
52,100,0.4,576,0,35,Dl_Nostalgic_2_Guitar,-1,-1
61,100,0.16363636363636364,664,0,35,Dl_Nostalgic_2_Guitar,-1,-1
52,100,0.3409090909090909,729,0,35,Dl_Nostalgic_2_Guitar,-1,-1
52,100,0.2590909090909091,810,0,35,Dl_Nostalgic_2_Guitar,-1,-1
52,100,0.4,8,1,36,Dl_Nostalgic_2_Guitar,-1,-1
61,100,0.21818181818181817,96,0,36,Dl_Nostalgic_2_Guitar,-1,-1
52,100,0.2,185,0,36,Dl_Nostalgic_2_Guitar,-1,-1
40,100,0.11818181818181818,260,0,36,Dl_Nostalgic_2_Guitar,-1,-1
52,100,0.3181818181818182,308,0,36,Dl_Nostalgic_2_Guitar,-1,-1
57,100,0.1409090909090909,421,0,36,Dl_Nostalgic_2_Guitar,-1,-1
47,100,0.2409090909090909,471,0,36,Dl_Nostalgic_2_Guitar,-1,-1
52,100,0.1409090909090909,619,0,36,Dl_Nostalgic_2_Guitar,-1,-1
61,100,0.13636363636363635,700,0,36,Dl_Nostalgic_2_Guitar,-1,-1
52,100,0.2,778,0,36,Dl_Nostalgic_2_Guitar,-1,-1
52,100,0.17727272727272728,845,0,36,Dl_Nostalgic_2_Guitar,-1,-1
47,100,0.4818181818181818,56,1,37,Dl_Nostalgic_2_Guitar,-1,-1
52,100,0.1409090909090909,185,0,37,Dl_Nostalgic_2_Guitar,-1,-1
59,100,0.2772727272727273,238,0,37,Dl_Nostalgic_2_Guitar,-1,-1
59,100,0.3,348,0,37,Dl_Nostalgic_2_Guitar,-1,-1
52,100,0.2,426,0,37,Dl_Nostalgic_2_Guitar,-1,-1
52,100,0.2,506,0,37,Dl_Nostalgic_2_Guitar,-1,-1
40,100,0.4,558,0,37,Dl_Nostalgic_2_Guitar,-1,-1
61,100,0.2590909090909091,660,0,37,Dl_Nostalgic_2_Guitar,-1,-1
61,100,0.3181818181818182,823,0,37,Dl_Nostalgic_2_Guitar,-1,-1
61,100,0.2,179,1,38,Dl_Nostalgic_2_Guitar,-1,-1
57,100,0.1,263,0,38,Dl_Nostalgic_2_Guitar,-1,-1
61,100,0.1409090909090909,298,0,38,Dl_Nostalgic_2_Guitar,-1,-1
56,100,0.4,338,0,38,Dl_Nostalgic_2_Guitar,-1,-1
56,100,0.3,431,0,38,Dl_Nostalgic_2_Guitar,-1,-1
59,100,0.11818181818181818,536,0,38,Dl_Nostalgic_2_Guitar,-1,-1
64,100,0.18181818181818182,783,1,38,Dl_Nostalgic_2_Guitar,-1,-1
52,100,0.11818181818181818,831,0,38,Dl_Nostalgic_2_Guitar,-1,-1
57,100,0.8227272727272728,871,0,38,Dl_Nostalgic_2_Guitar,-1,-1
57,100,0.2,246,1,39,Dl_Nostalgic_2_Guitar,-1,-1
57,100,0.11818181818181818,295,0,39,Dl_Nostalgic_2_Guitar,-1,-1
57,100,0.7818181818181819,364,0,39,Dl_Nostalgic_2_Guitar,-1,-1
61,100,0.17727272727272728,611,1,39,Dl_Nostalgic_2_Guitar,-1,-1
57,100,1.040909090909091,664,0,39,Dl_Nostalgic_2_Guitar,-1,-1
61,100,0.21818181818181817,118,1,40,Dl_Nostalgic_2_Guitar,-1,-1
61,100,0.41818181818181815,418,1,40,Dl_Nostalgic_2_Guitar,-1,-1
56,100,0.6,515,0,40,Dl_Nostalgic_2_Guitar,-1,-1
64,100,0.1409090909090909,686,0,40,Dl_Nostalgic_2_Guitar,-1,-1
57,100,0.2,748,0,40,Dl_Nostalgic_2_Guitar,-1,-1
64,100,0.5,796,0,40,Dl_Nostalgic_2_Guitar,-1,-1
57,100,0.2590909090909091,131,1,41,Dl_Nostalgic_2_Guitar,-1,-1
45,100,0.6227272727272727,188,0,41,Dl_Nostalgic_2_Guitar,-1,-1
45,100,0.12272727272727273,399,1,41,Dl_Nostalgic_2_Guitar,-1,-1
45,100,0.3,431,0,41,Dl_Nostalgic_2_Guitar,-1,-1
57,100,0.1590909090909091,506,0,41,Dl_Nostalgic_2_Guitar,-1,-1
57,100,1.0,598,0,41,Dl_Nostalgic_2_Guitar,-1,-1
61,100,0.12272727272727273,839,1,41,Dl_Nostalgic_2_Guitar,-1,-1
57,100,0.23636363636363636,40,1,42,Dl_Nostalgic_2_Guitar,-1,-1
45,100,0.2590909090909091,105,0,42,Dl_Nostalgic_2_Guitar,-1,-1
62,100,0.35909090909090907,330,1,42,Dl_Nostalgic_2_Guitar,-1,-1
62,100,0.38181818181818183,571,1,42,Dl_Nostalgic_2_Guitar,-1,-1
59,100,0.36363636363636365,664,0,42,Dl_Nostalgic_2_Guitar,-1,-1
64,100,0.11818181818181818,858,0,42,Dl_Nostalgic_2_Guitar,-1,-1
45,100,0.1409090909090909,211,1,43,Dl_Nostalgic_2_Guitar,-1,-1
57,100,0.9227272727272727,254,0,43,Dl_Nostalgic_2_Guitar,-1,-1
57,100,0.2,506,1,43,Dl_Nostalgic_2_Guitar,-1,-1
58,100,0.740909090909091,651,0,43,Dl_Nostalgic_2_Guitar,-1,-1
58,100,0.37727272727272726,875,1,43,Dl_Nostalgic_2_Guitar,-1,-1
54,100,0.12272727272727273,364,1,44,Dl_Nostalgic_2_Guitar,-1,-1
57,100,0.2590909090909091,625,1,44,Dl_Nostalgic_2_Guitar,-1,-1
57,100,0.2590909090909091,756,0,44,Dl_Nostalgic_2_Guitar,-1,-1
59,100,0.21818181818181817,823,0,44,Dl_Nostalgic_2_Guitar,-1,-1
52,100,0.35909090909090907,298,1,45,Dl_Nostalgic_2_Guitar,-1,-1
61,100,1.1,418,0,45,Dl_Nostalgic_2_Guitar,-1,-1
52,100,0.1409090909090909,716,1,45,Dl_Nostalgic_2_Guitar,-1,-1
45,100,0.17727272727272728,765,0,45,Dl_Nostalgic_2_Guitar,-1,-1
61,100,0.2590909090909091,813,0,45,Dl_Nostalgic_2_Guitar,-1,-1
45,100,0.18181818181818182,43,1,46,Dl_Nostalgic_2_Guitar,-1,-1
61,100,0.2409090909090909,166,0,46,Dl_Nostalgic_2_Guitar,-1,-1
61,100,0.1,496,1,46,Dl_Nostalgic_2_Guitar,-1,-1
61,100,0.4,523,0,46,Dl_Nostalgic_2_Guitar,-1,-1
61,100,0.17727272727272728,655,0,46,Dl_Nostalgic_2_Guitar,-1,-1
62,100,0.41818181818181815,813,0,46,Dl_Nostalgic_2_Guitar,-1,-1
61,100,0.32272727272727275,26,1,47,Dl_Nostalgic_2_Guitar,-1,-1
56,100,0.9,110,0,47,Dl_Nostalgic_2_Guitar,-1,-1
52,100,0.1590909090909091,528,1,47,Dl_Nostalgic_2_Guitar,-1,-1
52,100,0.11818181818181818,568,0,47,Dl_Nostalgic_2_Guitar,-1,-1
57,100,0.11818181818181818,625,0,47,Dl_Nostalgic_2_Guitar,-1,-1
57,100,0.4,678,0,47,Dl_Nostalgic_2_Guitar,-1,-1
57,100,0.3,31,1,48,Dl_Nostalgic_2_Guitar,-1,-1
57,100,0.6590909090909091,101,0,48,Dl_Nostalgic_2_Guitar,-1,-1
57,100,0.8590909090909091,343,1,48,Dl_Nostalgic_2_Guitar,-1,-1
45,100,0.3409090909090909,541,1,48,Dl_Nostalgic_2_Guitar,-1,-1
61,100,1.0,646,0,48,Dl_Nostalgic_2_Guitar,-1,-1
61,100,0.12272727272727273,871,1,48,Dl_Nostalgic_2_Guitar,-1,-1
61,100,0.1409090909090909,53,1,49,Dl_Nostalgic_2_Guitar,-1,-1
62,100,0.1409090909090909,179,0,49,Dl_Nostalgic_2_Guitar,-1,-1
62,100,0.1,215,0,49,Dl_Nostalgic_2_Guitar,-1,-1
56,100,0.32272727272727275,268,0,49,Dl_Nostalgic_2_Guitar,-1,-1
59,100,1.1409090909090909,383,0,49,Dl_Nostalgic_2_Guitar,-1,-1
52,100,0.18181818181818182,694,1,49,Dl_Nostalgic_2_Guitar,-1,-1
61,100,1.1227272727272728,738,0,49,Dl_Nostalgic_2_Guitar,-1,-1
57,100,0.1590909090909091,123,1,50,Dl_Nostalgic_2_Guitar,-1,-1
61,100,0.2409090909090909,268,0,50,Dl_Nostalgic_2_Guitar,-1,-1
57,100,0.5181818181818182,325,0,50,Dl_Nostalgic_2_Guitar,-1,-1
52,100,0.17727272727272728,448,0,50,Dl_Nostalgic_2_Guitar,-1,-1
52,100,0.11818181818181818,743,1,50,Dl_Nostalgic_2_Guitar,-1,-1
62,100,0.3,144,1,51,Dl_Nostalgic_2_Guitar,-1,-1
62,100,0.1590909090909091,316,0,51,Dl_Nostalgic_2_Guitar,-1,-1
56,100,0.4,483,0,51,Dl_Nostalgic_2_Guitar,-1,-1
64,100,0.12272727272727273,686,1,51,Dl_Nostalgic_2_Guitar,-1,-1
61,100,0.22272727272727272,839,0,51,Dl_Nostalgic_2_Guitar,-1,-1
57,100,0.11818181818181818,31,1,52,Dl_Nostalgic_2_Guitar,-1,-1
57,100,0.13636363636363635,61,0,52,Dl_Nostalgic_2_Guitar,-1,-1
57,100,0.5227272727272727,123,0,52,Dl_Nostalgic_2_Guitar,-1,-1
61,100,0.37727272727272726,238,0,52,Dl_Nostalgic_2_Guitar,-1,-1
61,100,0.36363636363636365,421,0,52,Dl_Nostalgic_2_Guitar,-1,-1
61,100,0.41818181818181815,545,0,52,Dl_Nostalgic_2_Guitar,-1,-1
49,100,0.1409090909090909,729,0,52,Dl_Nostalgic_2_Guitar,-1,-1
57,100,0.1409090909090909,13,1,53,Dl_Nostalgic_2_Guitar,-1,-1
61,100,0.1,43,0,53,Dl_Nostalgic_2_Guitar,-1,-1
54,100,0.35909090909090907,101,0,53,Dl_Nostalgic_2_Guitar,-1,-1
57,100,0.1409090909090909,220,0,53,Dl_Nostalgic_2_Guitar,-1,-1
57,100,0.1,276,0,53,Dl_Nostalgic_2_Guitar,-1,-1
57,100,0.1409090909090909,506,1,53,Dl_Nostalgic_2_Guitar,-1,-1
56,100,0.11818181818181818,590,0,53,Dl_Nostalgic_2_Guitar,-1,-1
56,100,0.8409090909090909,619,0,53,Dl_Nostalgic_2_Guitar,-1,-1
61,100,0.2590909090909091,96,1,54,Dl_Nostalgic_2_Guitar,-1,-1
57,100,0.5590909090909091,163,0,54,Dl_Nostalgic_2_Guitar,-1,-1
57,100,0.3,480,1,54,Dl_Nostalgic_2_Guitar,-1,-1
57,100,1.0,584,0,54,Dl_Nostalgic_2_Guitar,-1,-1
57,100,0.21818181818181817,40,1,55,Dl_Nostalgic_2_Guitar,-1,-1
50,100,0.2,466,1,55,Dl_Nostalgic_2_Guitar,-1,-1
50,100,0.17727272727272728,515,0,55,Dl_Nostalgic_2_Guitar,-1,-1
52,100,0.13636363636363635,875,1,55,Dl_Nostalgic_2_Guitar,-1,-1
52,100,0.6,31,1,56,Dl_Nostalgic_2_Guitar,-1,-1
52,100,0.4818181818181818,188,0,56,Dl_Nostalgic_2_Guitar,-1,-1
61,100,0.5363636363636364,325,0,56,Dl_Nostalgic_2_Guitar,-1,-1
61,100,0.1590909090909091,448,0,56,Dl_Nostalgic_2_Guitar,-1,-1
49,100,0.3,515,0,56,Dl_Nostalgic_2_Guitar,-1,-1
49,100,0.740909090909091,584,0,56,Dl_Nostalgic_2_Guitar,-1,-1
49,100,0.2409090909090909,751,0,56,Dl_Nostalgic_2_Guitar,-1,-1
61,100,0.9590909090909091,866,0,56,Dl_Nostalgic_2_Guitar,-1,-1
61,100,0.2,211,1,57,Dl_Nostalgic_2_Guitar,-1,-1
64,100,0.21818181818181817,273,0,57,Dl_Nostalgic_2_Guitar,-1,-1
61,100,0.2590909090909091,321,0,57,Dl_Nostalgic_2_Guitar,-1,-1
50,100,0.8181818181818182,515,0,57,Dl_Nostalgic_2_Guitar,-1,-1
50,100,0.2590909090909091,738,1,57,Dl_Nostalgic_2_Guitar,-1,-1
62,100,0.1409090909090909,848,0,57,Dl_Nostalgic_2_Guitar,-1,-1
52,100,0.32272727272727275,188,1,58,Dl_Nostalgic_2_Guitar,-1,-1
40,100,0.12272727272727273,334,0,58,Dl_Nostalgic_2_Guitar,-1,-1
52,100,0.5590909090909091,386,0,58,Dl_Nostalgic_2_Guitar,-1,-1
57,100,1.540909090909091,515,0,58,Dl_Nostalgic_2_Guitar,-1,-1
45,100,0.17727272727272728,853,1,58,Dl_Nostalgic_2_Guitar,-1,-1
57,100,0.3181818181818182,21,1,59,Dl_Nostalgic_2_Guitar,-1,-1
61,100,0.6181818181818182,96,0,59,Dl_Nostalgic_2_Guitar,-1,-1
52,100,0.1409090909090909,431,1,59,Dl_Nostalgic_2_Guitar,-1,-1
61,100,0.2,506,0,59,Dl_Nostalgic_2_Guitar,-1,-1
47,100,1.259090909090909,681,0,59,Dl_Nostalgic_2_Guitar,-1,-1
62,100,0.18181818181818182,91,1,60,Dl_Nostalgic_2_Guitar,-1,-1
56,100,0.4409090909090909,166,0,60,Dl_Nostalgic_2_Guitar,-1,-1
56,100,0.1409090909090909,273,0,60,Dl_Nostalgic_2_Guitar,-1,-1
56,100,0.3181818181818182,308,0,60,Dl_Nostalgic_2_Guitar,-1,-1
59,100,0.9409090909090909,638,1,60,Dl_Nostalgic_2_Guitar,-1,-1
59,100,0.11818181818181818,866,1,60,Dl_Nostalgic_2_Guitar,-1,-1
61,100,0.5,105,1,61,Dl_Nostalgic_2_Guitar,-1,-1
61,100,0.3409090909090909,251,0,61,Dl_Nostalgic_2_Guitar,-1,-1
49,100,0.2590909090909091,338,0,61,Dl_Nostalgic_2_Guitar,-1,-1
61,100,0.11818181818181818,536,1,61,Dl_Nostalgic_2_Guitar,-1,-1
57,100,0.12272727272727273,686,0,61,Dl_Nostalgic_2_Guitar,-1,-1
62,100,1.5818181818181818,729,0,61,Dl_Nostalgic_2_Guitar,-1,-1
62,100,0.4409090909090909,220,1,62,Dl_Nostalgic_2_Guitar,-1,-1
52,100,1.1772727272727272,338,0,62,Dl_Nostalgic_2_Guitar,-1,-1
40,100,0.1409090909090909,606,1,62,Dl_Nostalgic_2_Guitar,-1,-1
40,100,0.1,641,0,62,Dl_Nostalgic_2_Guitar,-1,-1
40,100,0.4,668,0,62,Dl_Nostalgic_2_Guitar,-1,-1
40,100,0.18181818181818182,761,0,62,Dl_Nostalgic_2_Guitar,-1,-1
64,100,0.42272727272727273,804,0,62,Dl_Nostalgic_2_Guitar,-1,-1
59,100,0.3,96,1,63,Dl_Nostalgic_2_Guitar,-1,-1
52,100,0.4409090909090909,201,0,63,Dl_Nostalgic_2_Guitar,-1,-1
52,100,0.43636363636363634,303,0,63,Dl_Nostalgic_2_Guitar,-1,-1
47,100,0.2,426,0,63,Dl_Nostalgic_2_Guitar,-1,-1
47,100,0.12272727272727273,686,1,63,Dl_Nostalgic_2_Guitar,-1,-1
59,100,0.21818181818181817,546,1,64,Dl_Nostalgic_2_Guitar,-1,-1
50,100,0.32272727272727275,255,1,65,Dl_Nostalgic_2_Guitar,-1,-1
61,100,0.22272727272727272,377,0,65,Dl_Nostalgic_2_Guitar,-1,-1
56,100,1.0,585,1,65,Dl_Nostalgic_2_Guitar,-1,-1
47,100,0.18181818181818182,870,1,65,Dl_Nostalgic_2_Guitar,-1,-1
61,100,0.1409090909090909,202,1,66,Dl_Nostalgic_2_Guitar,-1,-1
64,100,0.41818181818181815,260,0,66,Dl_Nostalgic_2_Guitar,-1,-1
61,100,0.35909090909090907,352,0,66,Dl_Nostalgic_2_Guitar,-1,-1
57,100,0.12272727272727273,443,0,66,Dl_Nostalgic_2_Guitar,-1,-1
61,100,0.11818181818181818,590,0,66,Dl_Nostalgic_2_Guitar,-1,-1
64,100,0.1,673,0,66,Dl_Nostalgic_2_Guitar,-1,-1
59,100,0.21818181818181817,722,0,66,Dl_Nostalgic_2_Guitar,-1,-1
61,100,0.5409090909090909,817,0,66,Dl_Nostalgic_2_Guitar,-1,-1
50,100,0.1409090909090909,299,1,67,Dl_Nostalgic_2_Guitar,-1,-1
50,100,0.17727272727272728,404,0,67,Dl_Nostalgic_2_Guitar,-1,-1
50,100,0.1409090909090909,453,0,67,Dl_Nostalgic_2_Guitar,-1,-1
62,100,0.7181818181818181,567,0,67,Dl_Nostalgic_2_Guitar,-1,-1
56,100,0.9590909090909091,726,0,67,Dl_Nostalgic_2_Guitar,-1,-1
59,100,0.12272727272727273,136,1,68,Dl_Nostalgic_2_Guitar,-1,-1
52,100,0.12272727272727273,255,0,68,Dl_Nostalgic_2_Guitar,-1,-1
52,100,0.1,294,0,68,Dl_Nostalgic_2_Guitar,-1,-1
64,100,0.1,316,0,68,Dl_Nostalgic_2_Guitar,-1,-1
61,100,0.22272727272727272,343,0,68,Dl_Nostalgic_2_Guitar,-1,-1
61,100,0.21818181818181817,457,0,68,Dl_Nostalgic_2_Guitar,-1,-1
61,100,0.2409090909090909,509,0,68,Dl_Nostalgic_2_Guitar,-1,-1
61,100,0.12272727272727273,576,0,68,Dl_Nostalgic_2_Guitar,-1,-1
57,100,0.7,792,1,68,Dl_Nostalgic_2_Guitar,-1,-1
57,100,0.13636363636363635,83,1,69,Dl_Nostalgic_2_Guitar,-1,-1
57,100,0.17727272727272728,119,0,69,Dl_Nostalgic_2_Guitar,-1,-1
57,100,0.2,650,1,69,Dl_Nostalgic_2_Guitar,-1,-1
47,100,0.2,743,0,69,Dl_Nostalgic_2_Guitar,-1,-1
52,100,0.21818181818181817,440,1,70,Dl_Nostalgic_2_Guitar,-1,-1
61,100,1.1,502,0,70,Dl_Nostalgic_2_Guitar,-1,-1
61,100,0.1409090909090909,770,1,70,Dl_Nostalgic_2_Guitar,-1,-1
61,100,0.1590909090909091,805,0,70,Dl_Nostalgic_2_Guitar,-1,-1
61,100,0.1409090909090909,844,0,70,Dl_Nostalgic_2_Guitar,-1,-1
61,100,0.4590909090909091,87,1,71,Dl_Nostalgic_2_Guitar,-1,-1
57,100,0.5409090909090909,210,0,71,Dl_Nostalgic_2_Guitar,-1,-1
61,100,0.7,413,1,71,Dl_Nostalgic_2_Guitar,-1,-1
62,100,0.2818181818181818,619,1,71,Dl_Nostalgic_2_Guitar,-1,-1
62,100,0.1,787,0,71,Dl_Nostalgic_2_Guitar,-1,-1
62,100,0.12272727272727273,56,1,72,Dl_Nostalgic_2_Guitar,-1,-1
52,100,0.12272727272727273,166,0,72,Dl_Nostalgic_2_Guitar,-1,-1
59,100,0.3181818181818182,347,0,72,Dl_Nostalgic_2_Guitar,-1,-1
56,100,0.1,483,0,72,Dl_Nostalgic_2_Guitar,-1,-1
57,100,0.11818181818181818,656,0,72,Dl_Nostalgic_2_Guitar,-1,-1
59,100,0.17727272727272728,216,1,73,Dl_Nostalgic_2_Guitar,-1,-1
61,100,0.8772727272727273,260,0,73,Dl_Nostalgic_2_Guitar,-1,-1
61,100,0.18181818181818182,466,1,73,Dl_Nostalgic_2_Guitar,-1,-1
57,100,0.4818181818181818,553,0,73,Dl_Nostalgic_2_Guitar,-1,-1
64,100,0.1409090909090909,703,0,73,Dl_Nostalgic_2_Guitar,-1,-1
61,100,0.5590909090909091,743,0,73,Dl_Nostalgic_2_Guitar,-1,-1
50,100,0.13636363636363635,17,1,74,Dl_Nostalgic_2_Guitar,-1,-1
57,100,0.11818181818181818,119,0,74,Dl_Nostalgic_2_Guitar,-1,-1
61,100,0.7181818181818181,163,0,74,Dl_Nostalgic_2_Guitar,-1,-1
59,100,0.2409090909090909,752,1,74,Dl_Nostalgic_2_Guitar,-1,-1
57,100,0.3,832,0,74,Dl_Nostalgic_2_Guitar,-1,-1
61,100,0.38181818181818183,87,1,75,Dl_Nostalgic_2_Guitar,-1,-1
57,100,0.2818181818181818,286,1,75,Dl_Nostalgic_2_Guitar,-1,-1
59,100,0.5590909090909091,370,0,75,Dl_Nostalgic_2_Guitar,-1,-1
57,100,0.2772727272727273,502,0,75,Dl_Nostalgic_2_Guitar,-1,-1
59,100,0.9,677,0,75,Dl_Nostalgic_2_Guitar,-1,-1
61,100,1.0636363636363637,3,1,76,Dl_Nostalgic_2_Guitar,-1,-1
61,100,0.9409090909090909,276,1,76,Dl_Nostalgic_2_Guitar,-1,-1
56,100,0.2590909090909091,493,1,76,Dl_Nostalgic_2_Guitar,-1,-1
52,100,0.2,603,0,76,Dl_Nostalgic_2_Guitar,-1,-1
52,100,0.11818181818181818,660,0,76,Dl_Nostalgic_2_Guitar,-1,-1
56,100,0.6181818181818182,779,0,76,Dl_Nostalgic_2_Guitar,-1,-1
61,100,0.7181818181818181,110,1,77,Dl_Nostalgic_2_Guitar,-1,-1
61,100,0.4,399,1,77,Dl_Nostalgic_2_Guitar,-1,-1
57,100,0.4,493,0,77,Dl_Nostalgic_2_Guitar,-1,-1
57,100,0.37727272727272726,656,0,77,Dl_Nostalgic_2_Guitar,-1,-1
57,100,0.41818181818181815,184,1,78,Dl_Nostalgic_2_Guitar,-1,-1
57,100,0.1409090909090909,440,1,78,Dl_Nostalgic_2_Guitar,-1,-1
47,100,0.5590909090909091,502,0,78,Dl_Nostalgic_2_Guitar,-1,-1
52,100,0.1,796,1,78,Dl_Nostalgic_2_Guitar,-1,-1
59,100,0.16363636363636364,69,1,79,Dl_Nostalgic_2_Guitar,-1,-1
56,100,0.38181818181818183,145,0,79,Dl_Nostalgic_2_Guitar,-1,-1
61,100,0.759090909090909,263,0,79,Dl_Nostalgic_2_Guitar,-1,-1
61,100,0.21818181818181817,436,0,79,Dl_Nostalgic_2_Guitar,-1,-1
61,100,0.5409090909090909,506,0,79,Dl_Nostalgic_2_Guitar,-1,-1
61,100,0.5181818181818182,633,0,79,Dl_Nostalgic_2_Guitar,-1,-1
54,100,0.4818181818181818,747,0,79,Dl_Nostalgic_2_Guitar,-1,-1
62,100,0.8,333,1,80,Dl_Nostalgic_2_Guitar,-1,-1
62,100,0.5590909090909091,563,1,80,Dl_Nostalgic_2_Guitar,-1,-1
59,100,0.1409090909090909,734,0,80,Dl_Nostalgic_2_Guitar,-1,-1
59,100,0.1590909090909091,770,0,80,Dl_Nostalgic_2_Guitar,-1,-1
47,100,0.18181818181818182,299,1,81,Dl_Nostalgic_2_Guitar,-1,-1
64,100,0.2409090909090909,343,0,81,Dl_Nostalgic_2_Guitar,-1,-1
61,100,0.2818181818181818,396,0,81,Dl_Nostalgic_2_Guitar,-1,-1
61,100,0.33636363636363636,502,0,81,Dl_Nostalgic_2_Guitar,-1,-1
57,100,0.11818181818181818,669,0,81,Dl_Nostalgic_2_Guitar,-1,-1
57,100,0.41818181818181815,713,0,81,Dl_Nostalgic_2_Guitar,-1,-1
57,100,0.2,202,1,82,Dl_Nostalgic_2_Guitar,-1,-1
59,100,1.240909090909091,255,0,82,Dl_Nostalgic_2_Guitar,-1,-1
43,100,0.4590909090909091,581,1,0,DL_warmFolk_Guitar,-1,-1
59,100,0.1409090909090909,686,0,0,DL_warmFolk_Guitar,-1,-1
43,100,0.2409090909090909,761,0,0,DL_warmFolk_Guitar,-1,-1
45,100,1.0636363636363637,70,1,1,DL_warmFolk_Guitar,-1,-1
45,100,0.1590909090909091,369,1,1,DL_warmFolk_Guitar,-1,-1
57,100,0.22272727272727272,554,0,1,DL_warmFolk_Guitar,-1,-1
56,100,0.1409090909090909,603,0,1,DL_warmFolk_Guitar,-1,-1
50,100,0.6363636363636364,678,0,1,DL_warmFolk_Guitar,-1,-1
50,100,0.17727272727272728,854,0,1,DL_warmFolk_Guitar,-1,-1
50,100,0.12272727272727273,100,1,2,DL_warmFolk_Guitar,-1,-1
50,100,1.1409090909090909,167,0,2,DL_warmFolk_Guitar,-1,-1
50,100,0.16363636363636364,598,1,2,DL_warmFolk_Guitar,-1,-1
59,100,0.18181818181818182,672,0,2,DL_warmFolk_Guitar,-1,-1
43,100,0.4818181818181818,804,0,2,DL_warmFolk_Guitar,-1,-1
43,100,0.22272727272727272,113,1,3,DL_warmFolk_Guitar,-1,-1
55,100,0.35909090909090907,198,0,3,DL_warmFolk_Guitar,-1,-1
45,100,1.059090909090909,308,0,3,DL_warmFolk_Guitar,-1,-1
45,100,0.2,602,1,3,DL_warmFolk_Guitar,-1,-1
61,100,0.1590909090909091,739,0,3,DL_warmFolk_Guitar,-1,-1
57,100,0.2590909090909091,782,0,3,DL_warmFolk_Guitar,-1,-1
56,100,0.18181818181818182,840,0,3,DL_warmFolk_Guitar,-1,-1
50,100,0.6227272727272727,25,1,4,DL_warmFolk_Guitar,-1,-1
50,100,0.5818181818181818,399,1,4,DL_warmFolk_Guitar,-1,-1
64,100,0.22272727272727272,532,0,4,DL_warmFolk_Guitar,-1,-1
57,100,0.17727272727272728,655,0,4,DL_warmFolk_Guitar,-1,-1
50,100,0.3181818181818182,836,0,4,DL_warmFolk_Guitar,-1,-1
50,100,0.11818181818181818,84,1,5,DL_warmFolk_Guitar,-1,-1
57,100,0.1,114,0,5,DL_warmFolk_Guitar,-1,-1
55,100,0.1590909090909091,145,0,5,DL_warmFolk_Guitar,-1,-1
43,100,0.38181818181818183,179,0,5,DL_warmFolk_Guitar,-1,-1
59,100,0.32272727272727275,268,0,5,DL_warmFolk_Guitar,-1,-1
43,100,0.17727272727272728,360,0,5,DL_warmFolk_Guitar,-1,-1
55,100,0.2,435,0,5,DL_warmFolk_Guitar,-1,-1
43,100,0.1,480,0,5,DL_warmFolk_Guitar,-1,-1
45,100,0.8181818181818182,537,0,5,DL_warmFolk_Guitar,-1,-1
45,100,0.18181818181818182,726,0,5,DL_warmFolk_Guitar,-1,-1
45,100,0.12272727272727273,805,0,5,DL_warmFolk_Guitar,-1,-1
57,100,0.2636363636363636,135,1,6,DL_warmFolk_Guitar,-1,-1
56,100,0.2,201,0,6,DL_warmFolk_Guitar,-1,-1
50,100,0.8818181818181818,263,0,6,DL_warmFolk_Guitar,-1,-1
50,100,0.9590909090909091,637,1,6,DL_warmFolk_Guitar,-1,-1
50,100,0.5,135,1,7,DL_warmFolk_Guitar,-1,-1
54,100,0.5409090909090909,255,0,7,DL_warmFolk_Guitar,-1,-1
43,100,0.4818181818181818,396,0,7,DL_warmFolk_Guitar,-1,-1
59,100,0.3,506,0,7,DL_warmFolk_Guitar,-1,-1
43,100,0.2409090909090909,575,0,7,DL_warmFolk_Guitar,-1,-1
43,100,0.17727272727272728,678,0,7,DL_warmFolk_Guitar,-1,-1
45,100,1.0227272727272727,774,0,7,DL_warmFolk_Guitar,-1,-1
57,100,0.2818181818181818,378,1,8,DL_warmFolk_Guitar,-1,-1
56,100,0.2,440,0,8,DL_warmFolk_Guitar,-1,-1
47,100,0.4636363636363636,510,0,8,DL_warmFolk_Guitar,-1,-1
54,100,0.1409090909090909,615,0,8,DL_warmFolk_Guitar,-1,-1
47,100,0.8,13,1,9,DL_warmFolk_Guitar,-1,-1
47,100,0.1590909090909091,259,1,9,DL_warmFolk_Guitar,-1,-1
62,100,0.22272727272727272,312,0,9,DL_warmFolk_Guitar,-1,-1
57,100,0.8772727272727273,369,0,9,DL_warmFolk_Guitar,-1,-1
57,100,0.1,572,1,9,DL_warmFolk_Guitar,-1,-1
55,100,0.1,615,0,9,DL_warmFolk_Guitar,-1,-1
43,100,0.41818181818181815,637,0,9,DL_warmFolk_Guitar,-1,-1
59,100,0.2772727272727273,735,0,9,DL_warmFolk_Guitar,-1,-1
62,100,0.2,809,0,9,DL_warmFolk_Guitar,-1,-1
55,100,0.21818181818181817,30,1,10,DL_warmFolk_Guitar,-1,-1
55,100,0.23636363636363636,106,0,10,DL_warmFolk_Guitar,-1,-1
45,100,0.4818181818181818,245,0,10,DL_warmFolk_Guitar,-1,-1
57,100,0.2,527,1,10,DL_warmFolk_Guitar,-1,-1
61,100,0.1,694,0,10,DL_warmFolk_Guitar,-1,-1
50,100,4.540909090909091,739,0,10,DL_warmFolk_Guitar,-1,-1
50,100,0.4409090909090909,53,1,12,DL_warmFolk_Guitar,-1,-1
50,100,0.6772727272727272,383,1,12,DL_warmFolk_Guitar,-1,-1
62,100,0.11818181818181818,615,1,12,DL_warmFolk_Guitar,-1,-1
57,100,0.1409090909090909,730,0,12,DL_warmFolk_Guitar,-1,-1
59,100,0.21818181818181817,787,0,12,DL_warmFolk_Guitar,-1,-1
62,100,0.1409090909090909,845,0,12,DL_warmFolk_Guitar,-1,-1
57,100,0.2818181818181818,268,1,13,DL_warmFolk_Guitar,-1,-1
57,100,0.13636363636363635,414,0,13,DL_warmFolk_Guitar,-1,-1
59,100,0.2409090909090909,581,0,13,DL_warmFolk_Guitar,-1,-1
61,100,0.2409090909090909,835,1,13,DL_warmFolk_Guitar,-1,-1
57,100,0.2,25,1,14,DL_warmFolk_Guitar,-1,-1
52,100,0.11818181818181818,87,0,14,DL_warmFolk_Guitar,-1,-1
62,100,0.22272727272727272,386,1,14,DL_warmFolk_Guitar,-1,-1
43,100,0.1409090909090909,496,0,14,DL_warmFolk_Guitar,-1,-1
55,100,0.1,527,0,14,DL_warmFolk_Guitar,-1,-1
57,100,0.5590909090909091,519,1,80,DL_warmFolk_Guitar,-1,-1
62,100,0.5590909090909091,646,0,80,DL_warmFolk_Guitar,-1,-1
64,100,0.2590909090909091,770,0,80,DL_warmFolk_Guitar,-1,-1
62,100,2.9,502,1,82,DL_warmFolk_Guitar,-1,-1
62,100,0.4818181818181818,320,1,83,DL_warmFolk_Guitar,-1,-1
57,100,0.5409090909090909,713,1,85,DL_warmFolk_Guitar,-1,-1
57,100,0.38181818181818183,132,1,86,DL_warmFolk_Guitar,-1,-1
57,100,0.4409090909090909,862,1,86,DL_warmFolk_Guitar,-1,-1
62,100,0.43636363636363634,722,1,87,DL_warmFolk_Guitar,-1,-1
64,100,0.740909090909091,836,0,87,DL_warmFolk_Guitar,-1,-1
61,100,0.5590909090909091,299,1,88,DL_warmFolk_Guitar,-1,-1
62,100,0.32272727272727275,453,0,88,DL_warmFolk_Guitar,-1,-1
62,100,0.1590909090909091,536,0,88,DL_warmFolk_Guitar,-1,-1
61,100,0.5590909090909091,572,0,88,DL_warmFolk_Guitar,-1,-1
62,100,2.459090909090909,700,0,88,DL_warmFolk_Guitar,-1,-1
45,100,0.2409090909090909,220,1,0,_Guitar,-1,-1
45,100,0.32272727272727275,299,0,0,_Guitar,-1,-1
45,100,0.3409090909090909,383,0,0,_Guitar,-1,-1
45,100,0.3,568,0,0,_Guitar,-1,-1
57,100,0.11818181818181818,638,0,0,_Guitar,-1,-1
45,100,0.2409090909090909,664,0,0,_Guitar,-1,-1
45,100,0.3181818181818182,735,0,0,_Guitar,-1,-1
45,100,0.37727272727272726,810,0,0,_Guitar,-1,-1
44,100,0.3409090909090909,119,1,1,_Guitar,-1,-1
44,100,0.36363636363636365,201,0,1,_Guitar,-1,-1
44,100,0.740909090909091,374,0,1,_Guitar,-1,-1
44,100,0.36363636363636365,554,0,1,_Guitar,-1,-1
44,100,0.3409090909090909,646,0,1,_Guitar,-1,-1
49,100,0.759090909090909,823,0,1,_Guitar,-1,-1
49,100,0.5818181818181818,153,1,2,_Guitar,-1,-1
49,100,0.759090909090909,286,0,2,_Guitar,-1,-1
49,100,0.32272727272727275,466,0,2,_Guitar,-1,-1
49,100,0.759090909090909,647,0,2,_Guitar,-1,-1
49,100,1.5636363636363637,26,1,3,_Guitar,-1,-1
45,100,0.3181818181818182,396,1,3,_Guitar,-1,-1
45,100,0.3409090909090909,470,0,3,_Guitar,-1,-1
45,100,0.3,562,0,3,_Guitar,-1,-1
45,100,0.7227272727272728,651,0,3,_Guitar,-1,-1
45,100,0.3409090909090909,822,0,3,_Guitar,-1,-1
45,100,0.3181818181818182,30,1,4,_Guitar,-1,-1
45,100,0.3181818181818182,118,0,4,_Guitar,-1,-1
47,100,1.1590909090909092,207,0,4,_Guitar,-1,-1
47,100,1.1227272727272728,475,1,4,_Guitar,-1,-1
47,100,0.3,729,1,4,_Guitar,-1,-1
47,100,0.35909090909090907,813,0,4,_Guitar,-1,-1
52,100,0.32272727272727275,122,1,5,_Guitar,-1,-1
52,100,0.36363636363636365,201,0,5,_Guitar,-1,-1
53,100,0.1,373,0,5,_Guitar,-1,-1
52,100,0.2818181818181818,396,0,5,_Guitar,-1,-1
52,100,0.3409090909090909,475,0,5,_Guitar,-1,-1
52,100,0.3,568,0,5,_Guitar,-1,-1
52,100,0.3,647,0,5,_Guitar,-1,-1
59,100,0.5590909090909091,79,1,6,_Guitar,-1,-1
40,100,0.1409090909090909,220,0,6,_Guitar,-1,-1
59,100,0.1590909090909091,276,0,6,_Guitar,-1,-1
40,100,0.1409090909090909,572,1,6,_Guitar,-1,-1
52,100,0.8181818181818182,634,0,6,_Guitar,-1,-1
52,100,0.2772727272727273,823,0,6,_Guitar,-1,-1
52,100,0.4409090909090909,12,1,7,_Guitar,-1,-1
52,100,1.1409090909090909,118,0,7,_Guitar,-1,-1
52,100,1.459090909090909,383,1,7,_Guitar,-1,-1
40,100,0.1,703,1,7,_Guitar,-1,-1
52,100,0.4409090909090909,726,0,7,_Guitar,-1,-1
52,100,0.7,836,0,7,_Guitar,-1,-1
52,100,0.1409090909090909,113,1,8,_Guitar,-1,-1
49,100,0.8227272727272728,276,0,8,_Guitar,-1,-1
49,100,0.13636363636363635,479,1,8,_Guitar,-1,-1
49,100,0.32272727272727275,563,0,8,_Guitar,-1,-1
49,100,0.759090909090909,646,0,8,_Guitar,-1,-1
49,100,0.5,818,0,8,_Guitar,-1,-1
59,100,0.16363636363636364,70,1,9,_Guitar,-1,-1
49,100,0.5409090909090909,118,0,9,_Guitar,-1,-1
49,100,0.3181818181818182,383,1,9,_Guitar,-1,-1
49,100,0.3409090909090909,470,0,9,_Guitar,-1,-1
49,100,0.759090909090909,550,0,9,_Guitar,-1,-1
45,100,0.35909090909090907,744,0,9,_Guitar,-1,-1
45,100,0.2772727272727273,831,0,9,_Guitar,-1,-1
45,100,0.2772727272727273,39,1,10,_Guitar,-1,-1
45,100,0.3,211,0,10,_Guitar,-1,-1
45,100,0.740909090909091,295,0,10,_Guitar,-1,-1
45,100,0.2590909090909091,470,0,10,_Guitar,-1,-1
45,100,0.3,567,0,10,_Guitar,-1,-1
45,100,0.3409090909090909,651,0,10,_Guitar,-1,-1
45,100,0.3,735,0,10,_Guitar,-1,-1
45,100,0.2818181818181818,44,1,11,_Guitar,-1,-1
45,100,0.36363636363636365,113,0,11,_Guitar,-1,-1
45,100,0.35909090909090907,197,0,11,_Guitar,-1,-1
45,100,0.3,295,0,11,_Guitar,-1,-1
47,100,0.2,417,0,11,_Guitar,-1,-1
47,100,0.7227272727272728,474,0,11,_Guitar,-1,-1
47,100,0.8409090909090909,716,1,11,_Guitar,-1,-1
59,100,0.11818181818181818,44,1,12,_Guitar,-1,-1
47,100,0.5227272727272727,92,0,12,_Guitar,-1,-1
47,100,0.1590909090909091,216,0,12,_Guitar,-1,-1
47,100,0.5227272727272727,254,0,12,_Guitar,-1,-1
47,100,0.3181818181818182,383,0,12,_Guitar,-1,-1
47,100,0.1,465,0,12,_Guitar,-1,-1
47,100,0.1,519,0,12,_Guitar,-1,-1
47,100,1.4227272727272726,553,0,12,_Guitar,-1,-1
45,100,0.1,30,1,13,_Guitar,-1,-1
57,100,0.37727272727272726,53,0,13,_Guitar,-1,-1
45,100,0.1,135,0,13,_Guitar,-1,-1
45,100,0.11818181818181818,163,0,13,_Guitar,-1,-1
57,100,0.22272727272727272,409,1,13,_Guitar,-1,-1
47,100,0.35909090909090907,563,0,13,_Guitar,-1,-1
47,100,0.22272727272727272,708,0,13,_Guitar,-1,-1
59,100,0.11818181818181818,766,0,13,_Guitar,-1,-1
59,100,0.2409090909090909,840,0,13,_Guitar,-1,-1
64,100,0.11818181818181818,53,1,14,_Guitar,-1,-1
59,100,0.1,92,0,14,_Guitar,-1,-1
47,100,0.2818181818181818,220,0,14,_Guitar,-1,-1
59,100,0.4,285,0,14,_Guitar,-1,-1
64,100,0.2409090909090909,383,0,14,_Guitar,-1,-1
64,100,0.17727272727272728,536,0,14,_Guitar,-1,-1
64,100,0.6227272727272727,598,0,14,_Guitar,-1,-1
52,100,0.21818181818181817,823,1,14,_Guitar,-1,-1
40,100,0.1,34,1,15,_Guitar,-1,-1
52,100,0.1,56,0,15,_Guitar,-1,-1
52,100,0.3,132,0,15,_Guitar,-1,-1
64,100,0.8818181818181818,197,0,15,_Guitar,-1,-1
59,100,0.2,395,0,15,_Guitar,-1,-1
59,100,0.11818181818181818,493,0,15,_Guitar,-1,-1
64,100,0.18181818181818182,553,0,15,_Guitar,-1,-1
47,100,0.12272727272727273,663,0,15,_Guitar,-1,-1
47,100,0.42272727272727273,730,0,15,_Guitar,-1,-1
47,100,0.1409090909090909,69,1,16,_Guitar,-1,-1
59,100,0.2,123,0,16,_Guitar,-1,-1
59,100,0.2409090909090909,175,0,16,_Guitar,-1,-1
52,100,0.2,326,0,16,_Guitar,-1,-1
64,100,0.1,413,0,16,_Guitar,-1,-1
45,100,0.2409090909090909,581,0,16,_Guitar,-1,-1
45,100,0.22272727272727272,673,0,16,_Guitar,-1,-1
64,100,0.12272727272727273,729,0,16,_Guitar,-1,-1
47,100,0.35909090909090907,123,1,17,_Guitar,-1,-1
47,100,0.3181818181818182,220,0,17,_Guitar,-1,-1
59,100,0.1,303,0,17,_Guitar,-1,-1
59,100,0.18181818181818182,333,0,17,_Guitar,-1,-1
47,100,0.11818181818181818,382,0,17,_Guitar,-1,-1
47,100,0.1409090909090909,488,0,17,_Guitar,-1,-1
59,100,0.22272727272727272,519,0,17,_Guitar,-1,-1
47,100,0.33636363636363636,567,0,17,_Guitar,-1,-1
59,100,0.4,646,0,17,_Guitar,-1,-1
59,100,0.18181818181818182,739,0,17,_Guitar,-1,-1
59,100,0.21818181818181817,845,0,17,_Guitar,-1,-1
64,100,0.12272727272727273,113,1,18,_Guitar,-1,-1
52,100,0.2590909090909091,140,0,18,_Guitar,-1,-1
52,100,0.11818181818181818,220,0,18,_Guitar,-1,-1
52,100,0.35909090909090907,308,0,18,_Guitar,-1,-1
52,100,0.17727272727272728,413,0,18,_Guitar,-1,-1
64,100,0.2,752,1,18,_Guitar,-1,-1
61,100,0.1409090909090909,870,0,18,_Guitar,-1,-1
64,100,0.4,26,1,19,_Guitar,-1,-1
64,100,0.1590909090909091,140,0,19,_Guitar,-1,-1
64,100,0.32272727272727275,210,0,19,_Guitar,-1,-1
59,100,0.1,351,0,19,_Guitar,-1,-1
52,100,0.21818181818181817,505,0,19,_Guitar,-1,-1
64,100,0.35909090909090907,563,0,19,_Guitar,-1,-1
57,100,0.2,766,1,19,_Guitar,-1,-1
57,100,0.17727272727272728,30,1,20,_Guitar,-1,-1
64,100,0.1409090909090909,113,0,20,_Guitar,-1,-1
59,100,0.11818181818181818,162,0,20,_Guitar,-1,-1
59,100,0.11818181818181818,206,0,20,_Guitar,-1,-1
47,100,0.38181818181818183,308,0,20,_Guitar,-1,-1
59,100,0.3181818181818182,492,0,20,_Guitar,-1,-1
47,100,0.41818181818181815,656,0,20,_Guitar,-1,-1
47,100,0.2409090909090909,760,0,20,_Guitar,-1,-1
47,100,0.1409090909090909,827,0,20,_Guitar,-1,-1
47,100,0.1,870,0,20,_Guitar,-1,-1
52,100,0.3,136,1,21,_Guitar,-1,-1
64,100,0.11818181818181818,241,0,21,_Guitar,-1,-1
59,100,0.13636363636363635,326,0,21,_Guitar,-1,-1
64,100,0.2409090909090909,364,0,21,_Guitar,-1,-1
52,100,0.38181818181818183,466,0,21,_Guitar,-1,-1
64,100,0.2772727272727273,766,1,21,_Guitar,-1,-1
52,100,0.22272727272727272,752,1,22,_Guitar,-1,-1
64,100,0.1409090909090909,801,0,22,_Guitar,-1,-1
64,100,0.3409090909090909,839,0,22,_Guitar,-1,-1
64,100,0.1409090909090909,382,1,23,_Guitar,-1,-1
64,100,0.21818181818181817,436,0,23,_Guitar,-1,-1
64,100,0.1409090909090909,571,0,23,_Guitar,-1,-1
64,100,0.11818181818181818,615,0,23,_Guitar,-1,-1
52,100,0.35909090909090907,681,0,23,_Guitar,-1,-1
52,100,0.1409090909090909,791,0,23,_Guitar,-1,-1
59,100,0.18181818181818182,839,0,23,_Guitar,-1,-1
64,100,0.11818181818181818,40,1,24,_Guitar,-1,-1
64,100,0.1409090909090909,69,0,24,_Guitar,-1,-1
64,100,0.1409090909090909,233,0,24,_Guitar,-1,-1
45,100,0.17727272727272728,326,0,24,_Guitar,-1,-1
57,100,0.22272727272727272,364,0,24,_Guitar,-1,-1
45,100,0.21818181818181817,413,0,24,_Guitar,-1,-1
45,100,0.1590909090909091,563,0,24,_Guitar,-1,-1
47,100,0.2409090909090909,144,1,25,_Guitar,-1,-1
59,100,0.2590909090909091,233,0,25,_Guitar,-1,-1
59,100,0.2,378,0,25,_Guitar,-1,-1
59,100,0.3409090909090909,466,0,25,_Guitar,-1,-1
47,100,0.2590909090909091,594,0,25,_Guitar,-1,-1
47,100,0.3,669,0,25,_Guitar,-1,-1
47,100,0.2,783,0,25,_Guitar,-1,-1
47,100,0.759090909090909,34,1,26,_Guitar,-1,-1
47,100,0.2818181818181818,220,0,26,_Guitar,-1,-1
40,100,0.4,656,1,26,_Guitar,-1,-1
40,100,0.16363636363636364,752,0,26,_Guitar,-1,-1
40,100,0.1409090909090909,0,1,27,_Guitar,-1,-1
52,100,0.11818181818181818,61,0,27,_Guitar,-1,-1
40,100,0.1590909090909091,154,0,27,_Guitar,-1,-1
40,100,0.2636363636363636,202,0,27,_Guitar,-1,-1
52,100,0.3,299,0,27,_Guitar,-1,-1
59,100,0.13636363636363635,391,0,27,_Guitar,-1,-1
59,100,0.2590909090909091,430,0,27,_Guitar,-1,-1
59,100,0.18181818181818182,497,0,27,_Guitar,-1,-1
59,100,0.1,584,0,27,_Guitar,-1,-1
59,100,0.1409090909090909,691,0,27,_Guitar,-1,-1
64,100,0.1590909090909091,756,0,27,_Guitar,-1,-1
64,100,0.2,853,0,27,_Guitar,-1,-1
59,100,0.21818181818181817,131,1,28,_Guitar,-1,-1
59,100,0.1409090909090909,289,0,28,_Guitar,-1,-1
47,100,0.18181818181818182,333,0,28,_Guitar,-1,-1
59,100,0.4,378,0,28,_Guitar,-1,-1
59,100,0.5,474,0,28,_Guitar,-1,-1
59,100,0.1590909090909091,590,0,28,_Guitar,-1,-1
59,100,0.3,656,0,28,_Guitar,-1,-1
64,100,0.2636363636363636,729,0,28,_Guitar,-1,-1
59,100,0.2,57,1,29,_Guitar,-1,-1
59,100,0.41818181818181815,127,0,29,_Guitar,-1,-1
47,100,0.2772727272727273,590,1,29,_Guitar,-1,-1
47,100,0.1590909090909091,725,0,29,_Guitar,-1,-1
59,100,0.1409090909090909,818,0,29,_Guitar,-1,-1
49,100,0.2818181818181818,48,1,30,_Guitar,-1,-1
61,100,0.2409090909090909,223,0,30,_Guitar,-1,-1
49,100,0.1590909090909091,326,0,30,_Guitar,-1,-1
64,100,0.2409090909090909,576,1,30,_Guitar,-1,-1
59,100,0.17727272727272728,721,0,30,_Guitar,-1,-1
59,100,0.1409090909090909,796,0,30,_Guitar,-1,-1
54,100,0.5181818181818182,831,0,30,_Guitar,-1,-1
59,100,0.4590909090909091,96,1,31,_Guitar,-1,-1
64,100,0.11818181818181818,440,1,31,_Guitar,-1,-1
45,100,0.35909090909090907,646,1,31,_Guitar,-1,-1
45,100,0.1409090909090909,69,1,32,_Guitar,-1,-1
57,100,0.2409090909090909,123,0,32,_Guitar,-1,-1
59,100,0.1590909090909091,590,1,32,_Guitar,-1,-1
47,100,0.11818181818181818,703,0,32,_Guitar,-1,-1
64,100,0.11818181818181818,18,1,33,_Guitar,-1,-1
57,100,0.1590909090909091,233,1,33,_Guitar,-1,-1
52,100,0.3,303,0,33,_Guitar,-1,-1
64,100,0.2409090909090909,664,1,33,_Guitar,-1,-1
47,100,0.2772727272727273,260,1,34,_Guitar,-1,-1
59,100,0.1590909090909091,330,0,34,_Guitar,-1,-1
47,100,0.38181818181818183,386,0,34,_Guitar,-1,-1
59,100,0.3409090909090909,471,0,34,_Guitar,-1,-1
47,100,0.13636363636363635,545,0,34,_Guitar,-1,-1
59,100,0.12272727272727273,686,0,34,_Guitar,-1,-1
59,100,0.18181818181818182,386,1,35,_Guitar,-1,-1
49,100,0.8181818181818182,735,1,35,_Guitar,-1,-1
64,100,0.22272727272727272,201,1,36,_Guitar,-1,-1
49,100,0.21818181818181817,303,0,36,_Guitar,-1,-1
64,100,0.12272727272727273,783,1,36,_Guitar,-1,-1
57,100,0.2818181818181818,836,0,36,_Guitar,-1,-1
64,100,0.2590909090909091,761,1,37,_Guitar,-1,-1
52,100,0.3181818181818182,831,0,37,_Guitar,-1,-1
45,100,0.2409090909090909,43,1,38,_Guitar,-1,-1
52,100,0.13636363636363635,238,0,38,_Guitar,-1,-1
45,100,0.12272727272727273,378,0,38,_Guitar,-1,-1
64,100,0.35909090909090907,383,1,39,_Guitar,-1,-1
40,100,0.3181818181818182,480,0,39,_Guitar,-1,-1
40,100,0.2818181818181818,571,0,39,_Guitar,-1,-1
52,100,0.17727272727272728,646,0,39,_Guitar,-1,-1
40,100,0.1409090909090909,694,0,39,_Guitar,-1,-1
40,100,0.3,751,0,39,_Guitar,-1,-1
52,100,0.12272727272727273,826,0,39,_Guitar,-1,-1
40,100,0.2,853,0,39,_Guitar,-1,-1
40,100,0.2590909090909091,56,1,40,_Guitar,-1,-1
40,100,0.2,150,0,40,_Guitar,-1,-1
52,100,0.2,206,0,40,_Guitar,-1,-1
40,100,0.1409090909090909,251,0,40,_Guitar,-1,-1
40,100,0.21818181818181817,316,0,40,_Guitar,-1,-1
40,100,0.21818181818181817,413,0,40,_Guitar,-1,-1
52,100,0.12272727272727273,474,0,40,_Guitar,-1,-1
40,100,0.2,501,0,40,_Guitar,-1,-1
40,100,0.2818181818181818,571,0,40,_Guitar,-1,-1
40,100,0.2,681,0,40,_Guitar,-1,-1
52,100,0.13636363636363635,743,0,40,_Guitar,-1,-1
40,100,0.16363636363636364,774,0,40,_Guitar,-1,-1
40,100,0.23636363636363636,853,0,40,_Guitar,-1,-1
47,100,0.38181818181818183,179,1,41,_Guitar,-1,-1
47,100,0.1590909090909091,295,0,41,_Guitar,-1,-1
47,100,0.38181818181818183,466,0,41,_Guitar,-1,-1
47,100,0.7181818181818181,646,0,41,_Guitar,-1,-1
47,100,0.3409090909090909,34,1,42,_Guitar,-1,-1
47,100,0.35909090909090907,123,0,42,_Guitar,-1,-1
47,100,0.32272727272727275,298,0,42,_Guitar,-1,-1
47,100,0.35909090909090907,471,0,42,_Guitar,-1,-1
59,100,0.16363636363636364,554,0,42,_Guitar,-1,-1
47,100,0.1590909090909091,590,0,42,_Guitar,-1,-1
49,100,0.4,721,0,42,_Guitar,-1,-1
49,100,0.36363636363636365,818,0,42,_Guitar,-1,-1
61,100,0.11818181818181818,110,1,43,_Guitar,-1,-1
49,100,1.0636363636363637,136,0,43,_Guitar,-1,-1
49,100,0.3,391,1,43,_Guitar,-1,-1
49,100,0.38181818181818183,554,0,43,_Guitar,-1,-1
49,100,0.36363636363636365,641,0,43,_Guitar,-1,-1
49,100,0.35909090909090907,836,0,43,_Guitar,-1,-1
49,100,0.2772727272727273,40,1,44,_Guitar,-1,-1
61,100,0.2,114,0,44,_Guitar,-1,-1
61,100,0.33636363636363636,171,0,44,_Guitar,-1,-1
57,100,0.21818181818181817,330,0,44,_Guitar,-1,-1
45,100,0.3181818181818182,396,0,44,_Guitar,-1,-1
45,100,0.2818181818181818,488,0,44,_Guitar,-1,-1
57,100,0.42272727272727273,584,0,44,_Guitar,-1,-1
57,100,0.11818181818181818,691,0,44,_Guitar,-1,-1
57,100,0.12272727272727273,738,0,44,_Guitar,-1,-1
45,100,0.3181818181818182,831,0,44,_Guitar,-1,-1
45,100,0.2,40,1,45,_Guitar,-1,-1
45,100,0.35909090909090907,295,1,45,_Guitar,-1,-1
57,100,0.2,408,0,45,_Guitar,-1,-1
45,100,0.2590909090909091,496,0,45,_Guitar,-1,-1
57,100,0.2818181818181818,576,0,45,_Guitar,-1,-1
45,100,0.35909090909090907,646,0,45,_Guitar,-1,-1
45,100,0.22272727272727272,738,0,45,_Guitar,-1,-1
64,100,0.35909090909090907,364,1,46,_Guitar,-1,-1
45,100,0.13636363636363635,523,0,46,_Guitar,-1,-1
59,100,0.2772727272727273,646,0,46,_Guitar,-1,-1
47,100,0.4772727272727273,735,0,46,_Guitar,-1,-1
59,100,0.1590909090909091,845,0,46,_Guitar,-1,-1
47,100,0.2772727272727273,31,1,47,_Guitar,-1,-1
59,100,0.16363636363636364,91,0,47,_Guitar,-1,-1
47,100,0.4772727272727273,128,0,47,_Guitar,-1,-1
59,100,0.4,466,1,47,_Guitar,-1,-1
49,100,0.17727272727272728,141,1,48,_Guitar,-1,-1
61,100,0.1590909090909091,211,0,48,_Guitar,-1,-1
59,100,0.2,334,0,48,_Guitar,-1,-1
49,100,0.32272727272727275,386,0,48,_Guitar,-1,-1
49,100,0.2590909090909091,584,1,48,_Guitar,-1,-1
49,100,0.13636363636363635,810,1,48,_Guitar,-1,-1
61,100,0.12272727272727273,48,1,49,_Guitar,-1,-1
57,100,0.22272727272727272,224,0,49,_Guitar,-1,-1
59,100,0.2,496,1,49,_Guitar,-1,-1
45,100,0.2409090909090909,651,0,49,_Guitar,-1,-1
57,100,0.17727272727272728,735,0,49,_Guitar,-1,-1
54,100,0.21818181818181817,61,1,50,_Guitar,-1,-1
57,100,0.2409090909090909,131,0,50,_Guitar,-1,-1
45,100,0.2409090909090909,408,1,50,_Guitar,-1,-1
54,100,0.2409090909090909,576,0,50,_Guitar,-1,-1
47,100,0.1590909090909091,703,0,50,_Guitar,-1,-1
47,100,0.1409090909090909,748,0,50,_Guitar,-1,-1
47,100,0.3409090909090909,826,0,50,_Guitar,-1,-1
47,100,0.3,123,1,51,_Guitar,-1,-1
47,100,0.35909090909090907,206,0,51,_Guitar,-1,-1
47,100,0.4,295,0,51,_Guitar,-1,-1
47,100,0.2409090909090909,584,1,51,_Guitar,-1,-1
59,100,0.12272727272727273,861,1,51,_Guitar,-1,-1
40,100,0.7818181818181819,298,1,52,_Guitar,-1,-1
40,100,0.18181818181818182,483,0,52,_Guitar,-1,-1
52,100,0.13636363636363635,523,0,52,_Guitar,-1,-1
40,100,0.36363636363636365,554,0,52,_Guitar,-1,-1
52,100,0.1590909090909091,633,0,52,_Guitar,-1,-1
40,100,0.4409090909090909,668,0,52,_Guitar,-1,-1
40,100,0.6181818181818182,831,0,52,_Guitar,-1,-1
52,100,0.1590909090909091,88,1,53,_Guitar,-1,-1
40,100,0.4818181818181818,123,0,53,_Guitar,-1,-1
40,100,0.21818181818181817,241,0,53,_Guitar,-1,-1
40,100,0.11818181818181818,330,0,53,_Guitar,-1,-1
64,100,0.1,386,0,53,_Guitar,-1,-1
40,100,0.2818181818181818,408,0,53,_Guitar,-1,-1
40,100,0.6227272727272727,474,0,53,_Guitar,-1,-1
52,100,0.17727272727272728,633,0,53,_Guitar,-1,-1
40,100,0.18181818181818182,673,0,53,_Guitar,-1,-1
64,100,0.13636363636363635,721,0,53,_Guitar,-1,-1
52,100,0.3,765,0,53,_Guitar,-1,-1
64,100,0.11818181818181818,831,0,53,_Guitar,-1,-1
52,100,0.2590909090909091,858,0,53,_Guitar,-1,-1
52,100,0.3,40,1,54,_Guitar,-1,-1
52,100,0.17727272727272728,215,0,54,_Guitar,-1,-1
57,100,0.2409090909090909,295,0,54,_Guitar,-1,-1
64,100,0.1590909090909091,550,1,54,_Guitar,-1,-1
52,100,0.35909090909090907,593,0,54,_Guitar,-1,-1
52,100,0.21818181818181817,128,1,55,_Guitar,-1,-1
47,100,0.36363636363636365,466,1,56,_Guitar,-1,-1
47,100,0.1409090909090909,593,0,56,_Guitar,-1,-1
59,100,0.43636363636363634,633,0,56,_Guitar,-1,-1
47,100,0.1409090909090909,738,0,56,_Guitar,-1,-1
47,100,0.4818181818181818,804,0,56,_Guitar,-1,-1
47,100,0.2409090909090909,48,1,57,_Guitar,-1,-1
40,100,0.17727272727272728,128,0,57,_Guitar,-1,-1
52,100,0.18181818181818182,166,0,57,_Guitar,-1,-1
40,100,0.35909090909090907,206,0,57,_Guitar,-1,-1
40,100,0.4,295,0,57,_Guitar,-1,-1
40,100,0.3409090909090909,396,0,57,_Guitar,-1,-1
40,100,0.6818181818181818,488,0,57,_Guitar,-1,-1
40,100,0.5,641,0,57,_Guitar,-1,-1
40,100,0.11818181818181818,778,0,57,_Guitar,-1,-1
40,100,0.21818181818181817,853,0,57,_Guitar,-1,-1
40,100,0.38181818181818183,198,1,58,_Guitar,-1,-1
40,100,0.3181818181818182,316,0,58,_Guitar,-1,-1
52,100,0.1590909090909091,413,0,58,_Guitar,-1,-1
40,100,0.1590909090909091,474,0,58,_Guitar,-1,-1
52,100,0.13636363636363635,853,1,58,_Guitar,-1,-1
52,100,0.1590909090909091,78,1,59,_Guitar,-1,-1
52,100,0.1409090909090909,153,0,59,_Guitar,-1,-1
52,100,0.1409090909090909,220,0,59,_Guitar,-1,-1
52,100,0.2,308,0,59,_Guitar,-1,-1
64,100,0.1590909090909091,351,0,59,_Guitar,-1,-1
59,100,0.11818181818181818,480,0,59,_Guitar,-1,-1
47,100,0.3409090909090909,131,1,60,_Guitar,-1,-1
49,100,0.2590909090909091,584,1,61,_Guitar,-1,-1
61,100,0.2818181818181818,748,0,61,_Guitar,-1,-1
59,100,0.1,655,1,62,_Guitar,-1,-1
64,100,0.22272727272727272,123,1,63,_Guitar,-1,-1
54,100,0.2590909090909091,298,0,63,_Guitar,-1,-1
64,100,0.12272727272727273,408,0,63,_Guitar,-1,-1
64,100,0.22272727272727272,488,0,63,_Guitar,-1,-1
40,100,0.7227272727272728,563,0,63,_Guitar,-1,-1
40,100,0.1590909090909091,761,1,63,_Guitar,-1,-1
40,100,0.4,823,0,63,_Guitar,-1,-1
59,100,0.2,62,1,64,_Guitar,-1,-1
40,100,0.41818181818181815,106,0,64,_Guitar,-1,-1
40,100,1.1181818181818182,220,0,64,_Guitar,-1,-1
40,100,0.7181818181818181,480,1,64,_Guitar,-1,-1
40,100,0.1590909090909091,650,0,64,_Guitar,-1,-1
59,100,0.17727272727272728,713,0,64,_Guitar,-1,-1
40,100,0.16363636363636364,752,0,64,_Guitar,-1,-1
40,100,0.2818181818181818,836,0,64,_Guitar,-1,-1
40,100,0.38181818181818183,22,1,65,_Guitar,-1,-1
64,100,0.3409090909090909,289,1,65,_Guitar,-1,-1
57,100,0.3,377,0,65,_Guitar,-1,-1
45,100,0.32272727272727275,475,0,65,_Guitar,-1,-1
47,100,0.2590909090909091,766,1,65,_Guitar,-1,-1
47,100,0.1,870,0,65,_Guitar,-1,-1
47,100,0.3409090909090909,35,1,66,_Guitar,-1,-1
47,100,0.4590909090909091,123,0,66,_Guitar,-1,-1
47,100,0.38181818181818183,289,0,66,_Guitar,-1,-1
47,100,0.38181818181818183,377,0,66,_Guitar,-1,-1
47,100,0.21818181818181817,470,0,66,_Guitar,-1,-1
49,100,1.4,682,1,66,_Guitar,-1,-1
49,100,0.35909090909090907,119,1,67,_Guitar,-1,-1
49,100,0.3,330,1,67,_Guitar,-1,-1
49,100,0.42272727272727273,509,0,67,_Guitar,-1,-1
61,100,0.17727272727272728,656,0,67,_Guitar,-1,-1
49,100,0.1,734,0,67,_Guitar,-1,-1
61,100,0.18181818181818182,826,0,67,_Guitar,-1,-1
49,100,0.37727272727272726,30,1,68,_Guitar,-1,-1
49,100,0.13636363636363635,127,0,68,_Guitar,-1,-1
52,100,0.11818181818181818,417,1,68,_Guitar,-1,-1
45,100,0.1590909090909091,629,1,68,_Guitar,-1,-1
64,100,0.4590909090909091,726,0,68,_Guitar,-1,-1
59,100,0.1,140,1,69,_Guitar,-1,-1
59,100,0.22272727272727272,166,0,69,_Guitar,-1,-1
47,100,0.1590909090909091,216,0,69,_Guitar,-1,-1
47,100,0.1409090909090909,286,0,69,_Guitar,-1,-1
47,100,0.2,326,0,69,_Guitar,-1,-1
59,100,0.33636363636363636,392,0,69,_Guitar,-1,-1
59,100,0.1,496,0,69,_Guitar,-1,-1
59,100,0.21818181818181817,567,0,69,_Guitar,-1,-1
59,100,0.1409090909090909,779,1,69,_Guitar,-1,-1
49,100,0.1409090909090909,857,0,69,_Guitar,-1,-1
49,100,0.4590909090909091,17,1,70,_Guitar,-1,-1
61,100,0.17727272727272728,229,1,70,_Guitar,-1,-1
49,100,0.1409090909090909,294,0,70,_Guitar,-1,-1
49,100,0.35909090909090907,426,0,70,_Guitar,-1,-1
49,100,0.1590909090909091,540,0,70,_Guitar,-1,-1
56,100,0.1590909090909091,660,0,70,_Guitar,-1,-1
49,100,0.11818181818181818,813,0,70,_Guitar,-1,-1
49,100,0.5590909090909091,857,0,70,_Guitar,-1,-1
49,100,0.12272727272727273,157,1,71,_Guitar,-1,-1
56,100,0.2,303,0,71,_Guitar,-1,-1
45,100,0.1409090909090909,673,1,71,_Guitar,-1,-1
52,100,0.13636363636363635,787,0,71,_Guitar,-1,-1
57,100,0.11818181818181818,127,1,72,_Guitar,-1,-1
47,100,0.18181818181818182,246,0,72,_Guitar,-1,-1
47,100,0.35909090909090907,326,0,72,_Guitar,-1,-1
47,100,0.6,417,0,72,_Guitar,-1,-1
49,100,0.4,197,1,73,_Guitar,-1,-1
61,100,0.1590909090909091,307,0,73,_Guitar,-1,-1
49,100,0.1,343,0,73,_Guitar,-1,-1
49,100,0.1409090909090909,422,0,73,_Guitar,-1,-1
61,100,0.33636363636363636,480,0,73,_Guitar,-1,-1
61,100,0.11818181818181818,590,0,73,_Guitar,-1,-1
49,100,0.11818181818181818,616,0,73,_Guitar,-1,-1
61,100,0.18181818181818182,739,0,73,_Guitar,-1,-1
49,100,0.43636363636363634,17,1,74,_Guitar,-1,-1
49,100,0.18181818181818182,166,0,74,_Guitar,-1,-1
49,100,0.4409090909090909,286,0,74,_Guitar,-1,-1
59,100,0.18181818181818182,572,1,74,_Guitar,-1,-1
61,100,0.4590909090909091,726,0,74,_Guitar,-1,-1
61,100,0.11818181818181818,74,1,75,_Guitar,-1,-1
54,100,0.2590909090909091,233,0,75,_Guitar,-1,-1
56,100,0.3,483,1,75,_Guitar,-1,-1
52,100,0.2,409,1,76,_Guitar,-1,-1
59,100,0.17727272727272728,493,0,76,_Guitar,-1,-1
64,100,0.2409090909090909,576,0,76,_Guitar,-1,-1
45,100,0.18181818181818182,673,0,76,_Guitar,-1,-1
40,100,0.11818181818181818,832,0,76,_Guitar,-1,-1
47,100,0.18181818181818182,246,1,77,_Guitar,-1,-1
59,100,0.1,289,0,77,_Guitar,-1,-1
47,100,0.2772727272727273,523,1,77,_Guitar,-1,-1
47,100,0.21818181818181817,713,0,77,_Guitar,-1,-1
59,100,0.1,813,0,77,_Guitar,-1,-1
47,100,0.3409090909090909,132,1,78,_Guitar,-1,-1
47,100,0.3,399,1,78,_Guitar,-1,-1
59,100,0.18181818181818182,475,0,78,_Guitar,-1,-1
64,100,0.1409090909090909,475,1,79,_Guitar,-1,-1
64,100,0.1590909090909091,519,0,79,_Guitar,-1,-1
59,100,0.4590909090909091,572,0,79,_Guitar,-1,-1
40,100,0.4409090909090909,756,0,79,_Guitar,-1,-1
52,100,0.1409090909090909,0,1,80,_Guitar,-1,-1
52,100,0.1,62,0,80,_Guitar,-1,-1
52,100,0.12272727272727273,233,0,80,_Guitar,-1,-1
64,100,0.2,422,0,80,_Guitar,-1,-1
52,100,0.4772727272727273,546,0,80,_Guitar,-1,-1
52,100,0.17727272727272728,743,0,80,_Guitar,-1,-1
59,100,0.42272727272727273,805,0,80,_Guitar,-1,-1
47,100,0.6,242,1,81,_Guitar,-1,-1
47,100,0.11818181818181818,493,1,81,_Guitar,-1,-1
47,100,0.11818181818181818,527,0,81,_Guitar,-1,-1
59,100,0.38181818181818183,637,0,81,_Guitar,-1,-1
47,100,0.2,866,1,81,_Guitar,-1,-1
47,100,0.1,179,1,82,_Guitar,-1,-1
59,100,0.18181818181818182,299,0,82,_Guitar,-1,-1
59,100,0.2772727272727273,404,0,82,_Guitar,-1,-1
59,100,0.2772727272727273,470,0,82,_Guitar,-1,-1
64,100,0.3409090909090909,734,1,82,_Guitar,-1,-1
64,100,0.5,26,1,83,_Guitar,-1,-1
64,100,0.6,157,0,83,_Guitar,-1,-1
64,100,0.1590909090909091,559,1,83,_Guitar,-1,-1
64,100,0.2,646,0,83,_Guitar,-1,-1
64,100,0.11818181818181818,743,0,83,_Guitar,-1,-1
64,100,0.2,123,1,84,_Guitar,-1,-1
64,100,0.13636363636363635,172,0,84,_Guitar,-1,-1
64,100,0.3,242,0,84,_Guitar,-1,-1
64,100,0.2409090909090909,312,0,84,_Guitar,-1,-1
64,100,0.3181818181818182,373,0,84,_Guitar,-1,-1
59,100,0.1,470,0,84,_Guitar,-1,-1
52,100,0.3,663,0,84,_Guitar,-1,-1
52,100,0.11818181818181818,787,0,84,_Guitar,-1,-1
59,100,0.18181818181818182,839,0,84,_Guitar,-1,-1
59,100,0.1,30,1,85,_Guitar,-1,-1
47,100,0.32272727272727275,136,0,85,_Guitar,-1,-1
47,100,0.22272727272727272,365,1,85,_Guitar,-1,-1
47,100,0.6818181818181818,417,0,85,_Guitar,-1,-1
59,100,0.2409090909090909,756,1,85,_Guitar,-1,-1
64,100,0.22272727272727272,826,0,85,_Guitar,-1,-1
64,100,0.11818181818181818,30,1,86,_Guitar,-1,-1
64,100,0.1409090909090909,74,0,86,_Guitar,-1,-1
52,100,0.32272727272727275,377,1,86,_Guitar,-1,-1
59,100,0.41818181818181815,470,0,86,_Guitar,-1,-1
59,100,0.1,663,0,86,_Guitar,-1,-1
47,100,0.22272727272727272,686,0,86,_Guitar,-1,-1
59,100,0.2409090909090909,813,0,86,_Guitar,-1,-1
59,100,0.22272727272727272,13,1,87,_Guitar,-1,-1
59,100,0.2409090909090909,74,0,87,_Guitar,-1,-1
59,100,0.1,197,0,87,_Guitar,-1,-1
59,100,0.1,294,0,87,_Guitar,-1,-1
47,100,0.18181818181818182,330,0,87,_Guitar,-1,-1
47,100,0.1,404,0,87,_Guitar,-1,-1
64,100,0.35909090909090907,483,0,87,_Guitar,-1,-1
61,100,0.2409090909090909,747,1,87,_Guitar,-1,-1
49,100,0.3,229,1,88,_Guitar,-1,-1
49,100,0.3181818181818182,392,0,88,_Guitar,-1,-1
49,100,0.21818181818181817,523,0,88,_Guitar,-1,-1
59,100,0.32272727272727275,453,1,89,_Guitar,-1,-1
59,100,0.22272727272727272,145,1,90,_Guitar,-1,-1
59,100,0.2,352,1,90,_Guitar,-1,-1
59,100,0.1590909090909091,404,0,90,_Guitar,-1,-1
59,100,0.2590909090909091,590,0,90,_Guitar,-1,-1
64,100,0.2590909090909091,87,1,91,_Guitar,-1,-1
59,100,0.21818181818181817,392,1,91,_Guitar,-1,-1
64,100,0.1409090909090909,483,0,91,_Guitar,-1,-1
47,100,0.38181818181818183,826,1,91,_Guitar,-1,-1
52,100,0.1,62,1,92,_Guitar,-1,-1
64,100,0.1,140,0,92,_Guitar,-1,-1
59,100,0.1409090909090909,197,0,92,_Guitar,-1,-1
59,100,0.2409090909090909,233,0,92,_Guitar,-1,-1
52,100,0.2818181818181818,299,0,92,_Guitar,-1,-1
64,100,0.1590909090909091,360,0,92,_Guitar,-1,-1
52,100,0.16363636363636364,399,0,92,_Guitar,-1,-1
64,100,0.22272727272727272,553,0,92,_Guitar,-1,-1
59,100,0.4409090909090909,210,1,93,_Guitar,-1,-1
59,100,0.22272727272727272,377,0,93,_Guitar,-1,-1
59,100,0.1590909090909091,603,1,93,_Guitar,-1,-1
59,100,0.2409090909090909,770,0,93,_Guitar,-1,-1
64,100,0.2818181818181818,132,1,94,_Guitar,-1,-1
64,100,0.1409090909090909,220,0,94,_Guitar,-1,-1
64,100,0.22272727272727272,430,1,94,_Guitar,-1,-1
49,100,0.2,509,0,94,_Guitar,-1,-1
49,100,0.11818181818181818,792,1,94,_Guitar,-1,-1
49,100,0.11818181818181818,9,1,95,_Guitar,-1,-1
64,100,0.1590909090909091,123,0,95,_Guitar,-1,-1
64,100,0.11818181818181818,303,0,95,_Guitar,-1,-1
52,100,0.12272727272727273,650,1,95,_Guitar,-1,-1
59,100,0.42272727272727273,356,1,96,_Guitar,-1,-1
59,100,0.3409090909090909,585,1,96,_Guitar,-1,-1
59,100,0.13636363636363635,83,1,97,_Guitar,-1,-1
49,100,0.3409090909090909,123,0,97,_Guitar,-1,-1
64,100,0.13636363636363635,260,0,97,_Guitar,-1,-1
64,100,0.1409090909090909,496,1,97,_Guitar,-1,-1
64,100,0.2636363636363636,597,0,97,_Guitar,-1,-1
49,100,0.4818181818181818,663,0,97,_Guitar,-1,-1
64,100,0.5818181818181818,826,0,97,_Guitar,-1,-1
64,100,0.2590909090909091,100,1,98,_Guitar,-1,-1
52,100,0.1409090909090909,157,0,98,_Guitar,-1,-1
64,100,0.22272727272727272,189,0,98,_Guitar,-1,-1
57,100,0.12272727272727273,783,1,98,_Guitar,-1,-1
64,100,0.1,197,1,99,_Guitar,-1,-1
52,100,0.35909090909090907,220,0,99,_Guitar,-1,-1
52,100,0.13636363636363635,326,0,99,_Guitar,-1,-1
59,100,0.1,690,1,99,_Guitar,-1,-1
59,100,0.1590909090909091,716,0,99,_Guitar,-1,-1
47,100,0.35909090909090907,123,1,100,_Guitar,-1,-1
64,100,0.11818181818181818,514,1,100,_Guitar,-1,-1
59,100,0.12272727272727273,695,0,100,_Guitar,-1,-1
64,100,0.2,832,0,100,_Guitar,-1,-1
59,100,0.11818181818181818,612,1,101,_Guitar,-1,-1
59,100,0.1590909090909091,787,0,101,_Guitar,-1,-1
59,100,0.1590909090909091,172,1,102,_Guitar,-1,-1
56,100,0.6818181818181818,660,1,102,_Guitar,-1,-1
59,100,0.1409090909090909,255,1,103,_Guitar,-1,-1
59,100,0.1590909090909091,470,1,103,_Guitar,-1,-1
47,100,0.18181818181818182,509,0,103,_Guitar,-1,-1
59,100,0.1409090909090909,69,1,104,_Guitar,-1,-1
59,100,0.4409090909090909,343,1,104,_Guitar,-1,-1
47,100,0.38181818181818183,145,1,105,_Guitar,-1,-1
45,100,0.5590909090909091,770,1,106,_Guitar,-1,-1
59,100,0.7,62,1,107,_Guitar,-1,-1
59,100,0.32272727272727275,233,0,107,_Guitar,-1,-1
47,100,0.2,585,1,107,_Guitar,-1,-1
47,100,0.3,660,0,107,_Guitar,-1,-1
47,100,0.22272727272727272,862,1,107,_Guitar,-1,-1
47,100,0.4409090909090909,189,1,108,_Guitar,-1,-1
49,100,0.5,576,1,108,_Guitar,-1,-1
49,100,0.1590909090909091,703,0,108,_Guitar,-1,-1
59,100,0.2590909090909091,779,0,108,_Guitar,-1,-1
49,100,0.2409090909090909,157,1,109,_Guitar,-1,-1
49,100,0.33636363636363636,216,0,109,_Guitar,-1,-1
54,100,0.1,857,1,109,_Guitar,-1,-1
49,100,0.5772727272727273,30,1,110,_Guitar,-1,-1
54,100,1.7,179,0,110,_Guitar,-1,-1
56,100,0.1590909090909091,572,1,110,_Guitar,-1,-1
47,100,0.36363636363636365,707,0,110,_Guitar,-1,-1
47,100,0.11818181818181818,792,0,110,_Guitar,-1,-1
59,100,0.12272727272727273,255,1,111,_Guitar,-1,-1
47,100,0.6,326,0,111,_Guitar,-1,-1
49,100,0.1,646,1,111,_Guitar,-1,-1
49,100,0.2,673,0,111,_Guitar,-1,-1
59,100,0.17727272727272728,83,1,112,_Guitar,-1,-1
49,100,0.1409090909090909,642,1,112,_Guitar,-1,-1
64,100,1.1636363636363636,729,0,112,_Guitar,-1,-1
52,100,0.2,210,1,113,_Guitar,-1,-1
59,100,0.2818181818181818,747,1,113,_Guitar,-1,-1
47,100,0.4590909090909091,22,1,114,_Guitar,-1,-1
59,100,0.3181818181818182,127,0,114,_Guitar,-1,-1
59,100,0.1,606,1,114,_Guitar,-1,-1
64,100,0.18181818181818182,66,1,115,_Guitar,-1,-1
64,100,0.4409090909090909,206,0,115,_Guitar,-1,-1
64,100,0.3,386,0,115,_Guitar,-1,-1
64,100,0.4409090909090909,726,1,115,_Guitar,-1,-1
64,100,0.2,832,0,115,_Guitar,-1,-1
64,100,0.3409090909090909,22,1,116,_Guitar,-1,-1
64,100,0.1,127,0,116,_Guitar,-1,-1
64,100,0.1,197,0,116,_Guitar,-1,-1
59,100,0.22272727272727272,233,0,116,_Guitar,-1,-1
54,100,0.1409090909090909,646,1,116,_Guitar,-1,-1
59,100,0.42272727272727273,35,1,117,_Guitar,-1,-1
59,100,0.3,132,0,117,_Guitar,-1,-1
47,100,0.38181818181818183,202,0,117,_Guitar,-1,-1
47,100,0.1,307,0,117,_Guitar,-1,-1
47,100,0.11818181818181818,352,0,117,_Guitar,-1,-1
59,100,0.1,716,1,117,_Guitar,-1,-1
59,100,0.37727272727272726,119,1,118,_Guitar,-1,-1
64,100,0.2409090909090909,233,0,118,_Guitar,-1,-1
59,100,0.3409090909090909,383,0,118,_Guitar,-1,-1
52,100,0.22272727272727272,496,0,118,_Guitar,-1,-1
64,100,0.1409090909090909,660,0,118,_Guitar,-1,-1
40,100,0.18181818181818182,862,1,118,_Guitar,-1,-1
40,100,0.3,40,1,119,_Guitar,-1,-1
59,100,0.2590909090909091,756,1,119,_Guitar,-1,-1
52,100,0.2409090909090909,56,1,120,_Guitar,-1,-1
59,100,0.2636363636363636,202,0,120,_Guitar,-1,-1
59,100,0.21818181818181817,426,1,120,_Guitar,-1,-1
47,100,0.1409090909090909,536,0,120,_Guitar,-1,-1
59,100,0.1409090909090909,739,1,120,_Guitar,-1,-1
59,100,0.1,796,0,120,_Guitar,-1,-1
59,100,0.4409090909090909,823,0,120,_Guitar,-1,-1
64,100,0.23636363636363636,392,1,121,_Guitar,-1,-1
64,100,0.1590909090909091,475,0,121,_Guitar,-1,-1
49,100,0.3181818181818182,656,0,121,_Guitar,-1,-1
59,100,0.3181818181818182,43,1,122,_Guitar,-1,-1
64,100,0.18181818181818182,123,0,122,_Guitar,-1,-1
64,100,0.36363636363636365,289,0,122,_Guitar,-1,-1
64,100,0.21818181818181817,404,0,122,_Guitar,-1,-1
59,100,0.2,695,1,122,_Guitar,-1,-1
59,100,0.2,752,0,122,_Guitar,-1,-1
59,100,0.2636363636363636,399,1,123,_Guitar,-1,-1
64,100,0.1590909090909091,800,1,123,_Guitar,-1,-1
64,100,0.2590909090909091,849,0,123,_Guitar,-1,-1
59,100,0.1,30,1,124,_Guitar,-1,-1
59,100,0.2590909090909091,62,0,124,_Guitar,-1,-1
59,100,0.21818181818181817,417,1,124,_Guitar,-1,-1
59,100,0.11818181818181818,483,0,124,_Guitar,-1,-1
59,100,0.1,576,0,124,_Guitar,-1,-1
59,100,0.5772727272727273,603,0,124,_Guitar,-1,-1
59,100,0.2772727272727273,756,0,124,_Guitar,-1,-1
59,100,0.2,153,1,125,_Guitar,-1,-1
47,100,0.2,294,0,125,_Guitar,-1,-1
47,100,0.2,509,1,125,_Guitar,-1,-1
47,100,0.2409090909090909,716,1,125,_Guitar,-1,-1
59,100,0.6590909090909091,172,1,126,_Guitar,-1,-1
59,100,0.5409090909090909,365,0,126,_Guitar,-1,-1
54,100,0.6363636363636364,722,1,126,_Guitar,-1,-1
47,100,0.8227272727272728,210,1,127,_Guitar,-1,-1
59,100,1.4772727272727273,546,1,128,_Guitar,-1,-1
47,100,0.1590909090909091,0,1,129,_Guitar,-1,-1
59,100,0.12272727272727273,70,0,129,_Guitar,-1,-1
52,100,1.940909090909091,118,0,129,_Guitar,-1,-1
52,100,0.1590909090909091,580,1,129,_Guitar,-1,-1
52,100,0.13636363636363635,743,0,129,_Guitar,-1,-1
47,100,2.577272727272727,823,0,129,_Guitar,-1,-1
59,100,0.1,527,1,130,_Guitar,-1,-1
47,100,0.3,550,0,130,_Guitar,-1,-1
49,100,1.540909090909091,641,0,130,_Guitar,-1,-1
64,100,0.6818181818181818,232,1,131,_Guitar,-1,-1
64,100,0.13636363636363635,436,1,131,_Guitar,-1,-1
45,100,0.7818181818181819,474,0,131,_Guitar,-1,-1
64,100,0.35909090909090907,656,0,131,_Guitar,-1,-1
59,100,0.2,751,0,131,_Guitar,-1,-1
64,100,0.4409090909090909,189,1,132,_Guitar,-1,-1
52,100,1.3,285,0,132,_Guitar,-1,-1
40,100,0.2,589,1,132,_Guitar,-1,-1
52,100,0.3,633,0,132,_Guitar,-1,-1
47,100,2.5,118,1,133,_Guitar,-1,-1
47,100,0.5590909090909091,694,1,133,_Guitar,-1,-1
52,100,0.2818181818181818,197,1,134,_Guitar,-1,-1
47,100,0.2,637,1,134,_Guitar,-1,-1
59,100,0.11818181818181818,690,0,134,_Guitar,-1,-1
47,100,0.1590909090909091,761,0,134,_Guitar,-1,-1
47,100,0.2,0,1,135,_Guitar,-1,-1
47,100,0.5181818181818182,128,0,135,_Guitar,-1,-1
47,100,0.13636363636363635,413,1,135,_Guitar,-1,-1
47,100,0.13636363636363635,589,0,135,_Guitar,-1,-1
47,100,0.18181818181818182,716,0,135,_Guitar,-1,-1
64,100,0.6818181818181818,770,0,135,_Guitar,-1,-1
64,100,0.1409090909090909,44,1,136,_Guitar,-1,-1
47,100,0.759090909090909,75,0,136,_Guitar,-1,-1
59,100,0.3,840,1,136,_Guitar,-1,-1
52,100,0.35909090909090907,207,1,137,_Guitar,-1,-1
40,100,0.11818181818181818,348,0,137,_Guitar,-1,-1
59,100,0.21818181818181817,458,0,137,_Guitar,-1,-1
59,100,0.1409090909090909,510,0,137,_Guitar,-1,-1
56,100,0.13636363636363635,678,0,137,_Guitar,-1,-1
56,100,0.1590909090909091,747,0,137,_Guitar,-1,-1
57,100,0.4590909090909091,53,1,138,_Guitar,-1,-1
57,100,0.3409090909090909,207,0,138,_Guitar,-1,-1
52,100,0.21818181818181817,835,1,138,_Guitar,-1,-1
57,100,0.17727272727272728,118,1,139,_Guitar,-1,-1
57,100,0.41818181818181815,197,0,139,_Guitar,-1,-1
59,100,0.2818181818181818,311,0,139,_Guitar,-1,-1
59,100,0.1590909090909091,562,1,139,_Guitar,-1,-1
59,100,0.11818181818181818,603,0,139,_Guitar,-1,-1
52,100,0.11818181818181818,678,0,139,_Guitar,-1,-1
64,100,0.1,735,0,139,_Guitar,-1,-1
52,100,0.11818181818181818,800,0,139,_Guitar,-1,-1
52,100,0.7,106,1,140,_Guitar,-1,-1
56,100,0.2409090909090909,299,0,140,_Guitar,-1,-1
59,100,0.18181818181818182,826,1,140,_Guitar,-1,-1
45,100,0.2,254,1,141,_Guitar,-1,-1
52,100,0.4590909090909091,391,0,141,_Guitar,-1,-1
52,100,0.1409090909090909,505,0,141,_Guitar,-1,-1
57,100,0.1,589,0,141,_Guitar,-1,-1
45,100,0.3409090909090909,735,0,141,_Guitar,-1,-1
59,100,0.42272727272727273,246,1,142,_Guitar,-1,-1
45,100,0.4,470,1,142,_Guitar,-1,-1
52,100,0.1,699,1,142,_Guitar,-1,-1
52,100,0.1,804,0,142,_Guitar,-1,-1
52,100,0.759090909090909,849,0,142,_Guitar,-1,-1
52,100,0.1409090909090909,158,1,143,_Guitar,-1,-1
52,100,0.11818181818181818,307,0,143,_Guitar,-1,-1
52,100,0.2409090909090909,405,0,143,_Guitar,-1,-1
40,100,0.2590909090909091,458,0,143,_Guitar,-1,-1
52,100,0.38181818181818183,519,0,143,_Guitar,-1,-1
40,100,0.17727272727272728,656,0,143,_Guitar,-1,-1
47,100,0.1,770,0,143,_Guitar,-1,-1
47,100,0.1,8,1,144,_Guitar,-1,-1
64,100,0.1,30,0,144,_Guitar,-1,-1
52,100,0.13636363636363635,479,1,144,_Guitar,-1,-1
52,100,0.2409090909090909,528,1,0,DL_Guitar,-1,-1
52,100,0.3,660,0,0,DL_Guitar,-1,-1
52,100,0.42272727272727273,761,0,0,DL_Guitar,-1,-1
64,100,0.16363636363636364,4,1,1,DL_Guitar,-1,-1
49,100,0.4,224,1,1,DL_Guitar,-1,-1
49,100,0.2409090909090909,377,0,1,DL_Guitar,-1,-1
50,100,0.11818181818181818,528,0,1,DL_Guitar,-1,-1
52,100,0.17727272727272728,229,1,2,DL_Guitar,-1,-1
52,100,0.38181818181818183,409,0,2,DL_Guitar,-1,-1
50,100,0.9590909090909091,660,1,2,DL_Guitar,-1,-1
50,100,0.16363636363636364,48,1,3,DL_Guitar,-1,-1
50,100,0.1409090909090909,88,0,3,DL_Guitar,-1,-1
50,100,0.4818181818181818,122,0,3,DL_Guitar,-1,-1
56,100,0.2,488,1,3,DL_Guitar,-1,-1
56,100,0.1590909090909091,546,0,3,DL_Guitar,-1,-1
50,100,0.2409090909090909,607,0,3,DL_Guitar,-1,-1
47,100,0.6181818181818182,757,0,3,DL_Guitar,-1,-1
52,100,0.17727272727272728,184,1,4,DL_Guitar,-1,-1
52,100,0.17727272727272728,317,0,4,DL_Guitar,-1,-1
52,100,0.1590909090909091,458,0,4,DL_Guitar,-1,-1
45,100,0.2,826,1,4,DL_Guitar,-1,-1
45,100,0.1590909090909091,875,0,4,DL_Guitar,-1,-1
45,100,0.35909090909090907,53,1,5,DL_Guitar,-1,-1
47,100,0.2,550,1,5,DL_Guitar,-1,-1
52,100,0.2772727272727273,700,0,5,DL_Guitar,-1,-1
49,100,0.12272727272727273,145,1,6,DL_Guitar,-1,-1
49,100,0.7181818181818181,242,0,6,DL_Guitar,-1,-1
49,100,0.42272727272727273,585,1,6,DL_Guitar,-1,-1
64,100,0.2,757,0,6,DL_Guitar,-1,-1
64,100,0.12272727272727273,839,0,6,DL_Guitar,-1,-1
57,100,0.13636363636363635,238,1,7,DL_Guitar,-1,-1
50,100,0.8,304,0,7,DL_Guitar,-1,-1
50,100,0.1409090909090909,483,0,7,DL_Guitar,-1,-1
52,100,0.12272727272727273,629,0,7,DL_Guitar,-1,-1
52,100,0.17727272727272728,757,0,7,DL_Guitar,-1,-1
64,100,0.1,8,1,8,DL_Guitar,-1,-1
52,100,0.1,92,0,8,DL_Guitar,-1,-1
52,100,0.2772727272727273,127,0,8,DL_Guitar,-1,-1
52,100,0.11818181818181818,237,0,8,DL_Guitar,-1,-1
57,100,0.2590909090909091,285,0,8,DL_Guitar,-1,-1
57,100,1.0,369,0,8,DL_Guitar,-1,-1
52,100,0.2,708,1,8,DL_Guitar,-1,-1
52,100,0.2590909090909091,857,0,8,DL_Guitar,-1,-1
57,100,0.1590909090909091,34,1,9,DL_Guitar,-1,-1
50,100,0.11818181818181818,185,0,9,DL_Guitar,-1,-1
50,100,0.35909090909090907,457,1,9,DL_Guitar,-1,-1
50,100,0.16363636363636364,620,0,9,DL_Guitar,-1,-1
56,100,0.2590909090909091,835,1,9,DL_Guitar,-1,-1
52,100,0.2,48,1,10,DL_Guitar,-1,-1
52,100,0.1,118,0,10,DL_Guitar,-1,-1
52,100,0.1,144,0,10,DL_Guitar,-1,-1
54,100,0.1,330,0,10,DL_Guitar,-1,-1
49,100,0.36363636363636365,598,1,10,DL_Guitar,-1,-1
54,100,0.1590909090909091,854,1,10,DL_Guitar,-1,-1
54,100,0.2,30,1,11,DL_Guitar,-1,-1
50,100,0.8590909090909091,304,1,11,DL_Guitar,-1,-1
50,100,0.5409090909090909,584,1,11,DL_Guitar,-1,-1
50,100,0.18181818181818182,725,0,11,DL_Guitar,-1,-1
64,100,0.1,770,0,11,DL_Guitar,-1,-1
50,100,0.2590909090909091,175,1,12,DL_Guitar,-1,-1
50,100,0.11818181818181818,264,0,12,DL_Guitar,-1,-1
47,100,0.6636363636363637,422,0,12,DL_Guitar,-1,-1
47,100,0.13636363636363635,721,1,12,DL_Guitar,-1,-1
52,100,0.22272727272727272,826,0,12,DL_Guitar,-1,-1
47,100,0.11818181818181818,185,1,13,DL_Guitar,-1,-1
52,100,0.5,598,1,13,DL_Guitar,-1,-1
52,100,0.42272727272727273,730,0,13,DL_Guitar,-1,-1
52,100,0.18181818181818182,835,0,13,DL_Guitar,-1,-1
52,100,0.21818181818181817,22,1,14,DL_Guitar,-1,-1
47,100,0.1,202,0,14,DL_Guitar,-1,-1
47,100,0.1590909090909091,259,0,14,DL_Guitar,-1,-1
64,100,0.1409090909090909,835,1,14,DL_Guitar,-1,-1
49,100,0.11818181818181818,457,1,15,DL_Guitar,-1,-1
54,100,0.13636363636363635,766,1,15,DL_Guitar,-1,-1
54,100,0.11818181818181818,809,0,15,DL_Guitar,-1,-1
49,100,0.35909090909090907,804,1,16,DL_Guitar,-1,-1
49,100,0.1590909090909091,21,1,17,DL_Guitar,-1,-1
49,100,0.2772727272727273,567,1,17,DL_Guitar,-1,-1
56,100,0.2,663,0,17,DL_Guitar,-1,-1
45,100,0.1409090909090909,804,0,17,DL_Guitar,-1,-1
50,100,0.1,69,1,18,DL_Guitar,-1,-1
50,100,0.42272727272727273,136,0,18,DL_Guitar,-1,-1
50,100,0.11818181818181818,250,0,18,DL_Guitar,-1,-1
47,100,0.42272727272727273,387,0,18,DL_Guitar,-1,-1
47,100,0.18181818181818182,717,1,18,DL_Guitar,-1,-1
60,100,0.37727272727272726,96,1,19,DL_Guitar,-1,-1
49,100,0.42272727272727273,254,0,19,DL_Guitar,-1,-1
49,100,0.2772727272727273,590,1,19,DL_Guitar,-1,-1
54,100,0.4409090909090909,140,1,20,DL_Guitar,-1,-1
54,100,0.4,272,0,20,DL_Guitar,-1,-1
56,100,0.2818181818181818,550,1,20,DL_Guitar,-1,-1
56,100,0.37727272727272726,756,1,20,DL_Guitar,-1,-1
52,100,0.16363636363636364,3,1,21,DL_Guitar,-1,-1
59,100,0.1,241,1,21,DL_Guitar,-1,-1
52,100,0.3,339,0,21,DL_Guitar,-1,-1
57,100,0.17727272727272728,413,0,21,DL_Guitar,-1,-1
52,100,0.3,453,0,21,DL_Guitar,-1,-1
52,100,0.21818181818181817,523,0,21,DL_Guitar,-1,-1
45,100,0.1,650,0,21,DL_Guitar,-1,-1
52,100,0.11818181818181818,712,0,21,DL_Guitar,-1,-1
64,100,0.2,787,0,21,DL_Guitar,-1,-1
52,100,0.13636363636363635,831,0,21,DL_Guitar,-1,-1
52,100,0.21818181818181817,0,1,22,DL_Guitar,-1,-1
52,100,0.1,52,0,22,DL_Guitar,-1,-1
57,100,0.17727272727272728,75,0,22,DL_Guitar,-1,-1
57,100,0.38181818181818183,175,0,22,DL_Guitar,-1,-1
57,100,0.1,567,1,22,DL_Guitar,-1,-1
54,100,0.1409090909090909,308,1,23,DL_Guitar,-1,-1
54,100,0.1409090909090909,550,1,23,DL_Guitar,-1,-1
49,100,0.2409090909090909,650,0,23,DL_Guitar,-1,-1
42,100,0.37727272727272726,96,1,24,DL_Guitar,-1,-1
59,100,0.16363636363636364,466,1,24,DL_Guitar,-1,-1
54,100,0.1409090909090909,571,0,24,DL_Guitar,-1,-1
55,100,0.1409090909090909,691,0,24,DL_Guitar,-1,-1
49,100,0.3409090909090909,818,0,24,DL_Guitar,-1,-1
49,100,0.1,52,1,25,DL_Guitar,-1,-1
49,100,0.12272727272727273,92,0,25,DL_Guitar,-1,-1
64,100,0.3,167,0,25,DL_Guitar,-1,-1
52,100,0.22272727272727272,320,0,25,DL_Guitar,-1,-1
47,100,0.11818181818181818,484,0,25,DL_Guitar,-1,-1
47,100,0.22272727272727272,540,0,25,DL_Guitar,-1,-1
47,100,0.12272727272727273,708,0,25,DL_Guitar,-1,-1
59,100,0.11818181818181818,831,0,25,DL_Guitar,-1,-1
52,100,0.22272727272727272,57,1,26,DL_Guitar,-1,-1
47,100,0.1409090909090909,119,0,26,DL_Guitar,-1,-1
52,100,0.6,206,0,26,DL_Guitar,-1,-1
52,100,0.16363636363636364,3,1,27,DL_Guitar,-1,-1
52,100,0.2636363636363636,48,0,27,DL_Guitar,-1,-1
59,100,0.2636363636363636,223,0,27,DL_Guitar,-1,-1
52,100,0.12272727272727273,299,0,27,DL_Guitar,-1,-1
49,100,0.1409090909090909,34,1,28,DL_Guitar,-1,-1
50,100,0.12272727272727273,57,1,29,DL_Guitar,-1,-1
50,100,0.18181818181818182,144,0,29,DL_Guitar,-1,-1
56,100,0.1409090909090909,246,0,29,DL_Guitar,-1,-1
52,100,0.2409090909090909,607,1,29,DL_Guitar,-1,-1
62,100,0.32272727272727275,752,1,30,DL_Guitar,-1,-1
50,100,0.3,140,1,31,DL_Guitar,-1,-1
50,100,0.17727272727272728,229,0,31,DL_Guitar,-1,-1
50,100,0.18181818181818182,285,0,31,DL_Guitar,-1,-1
50,100,0.2,347,0,31,DL_Guitar,-1,-1
49,100,0.1409090909090909,123,1,32,DL_Guitar,-1,-1
54,100,0.2,215,0,32,DL_Guitar,-1,-1
49,100,0.4636363636363636,641,1,32,DL_Guitar,-1,-1
54,100,0.1,801,1,33,DL_Guitar,-1,-1
52,100,0.18181818181818182,69,1,34,DL_Guitar,-1,-1
64,100,0.2590909090909091,123,0,34,DL_Guitar,-1,-1
59,100,0.12272727272727273,254,0,34,DL_Guitar,-1,-1
40,100,0.2,308,0,34,DL_Guitar,-1,-1
59,100,0.2,373,0,34,DL_Guitar,-1,-1
40,100,0.22272727272727272,421,0,34,DL_Guitar,-1,-1
52,100,0.22272727272727272,716,1,34,DL_Guitar,-1,-1
56,100,0.1590909090909091,831,0,34,DL_Guitar,-1,-1
52,100,0.1590909090909091,13,1,35,DL_Guitar,-1,-1
64,100,0.11818181818181818,105,0,35,DL_Guitar,-1,-1
52,100,0.11818181818181818,150,0,35,DL_Guitar,-1,-1
52,100,0.22272727272727272,378,1,35,DL_Guitar,-1,-1
57,100,0.21818181818181817,483,0,35,DL_Guitar,-1,-1
45,100,0.1,531,0,35,DL_Guitar,-1,-1
52,100,0.1409090909090909,584,0,35,DL_Guitar,-1,-1
64,100,0.1,655,0,35,DL_Guitar,-1,-1
52,100,0.21818181818181817,735,0,35,DL_Guitar,-1,-1
52,100,0.2590909090909091,56,1,36,DL_Guitar,-1,-1
64,100,0.1409090909090909,251,0,36,DL_Guitar,-1,-1
64,100,0.2818181818181818,576,1,36,DL_Guitar,-1,-1
61,100,0.21818181818181817,660,0,36,DL_Guitar,-1,-1
61,100,0.1,716,0,36,DL_Guitar,-1,-1
64,100,0.32272727272727275,738,0,36,DL_Guitar,-1,-1
49,100,0.4,826,0,36,DL_Guitar,-1,-1
64,100,0.18181818181818182,34,1,37,DL_Guitar,-1,-1
64,100,0.1,105,0,37,DL_Guitar,-1,-1
49,100,0.33636363636363636,435,1,37,DL_Guitar,-1,-1
54,100,0.13636363636363635,193,1,38,DL_Guitar,-1,-1
52,100,0.12272727272727273,311,0,38,DL_Guitar,-1,-1
49,100,0.1409090909090909,361,0,38,DL_Guitar,-1,-1
64,100,0.1590909090909091,735,1,38,DL_Guitar,-1,-1
61,100,0.12272727272727273,861,0,38,DL_Guitar,-1,-1
61,100,0.3181818181818182,110,1,39,DL_Guitar,-1,-1
56,100,0.1590909090909091,351,1,39,DL_Guitar,-1,-1
50,100,0.18181818181818182,506,0,39,DL_Guitar,-1,-1
50,100,0.4,571,0,39,DL_Guitar,-1,-1
50,100,0.2409090909090909,796,1,39,DL_Guitar,-1,-1
64,100,0.12272727272727273,91,1,40,DL_Guitar,-1,-1
52,100,0.13636363636363635,150,0,40,DL_Guitar,-1,-1
40,100,0.2636363636363636,179,0,40,DL_Guitar,-1,-1
40,100,0.4,286,0,40,DL_Guitar,-1,-1
49,100,0.11818181818181818,8,1,41,DL_Guitar,-1,-1
54,100,0.5,220,1,41,DL_Guitar,-1,-1
54,100,0.1409090909090909,418,1,41,DL_Guitar,-1,-1
50,100,0.22272727272727272,474,0,41,DL_Guitar,-1,-1
47,100,0.11818181818181818,703,1,41,DL_Guitar,-1,-1
47,100,0.11818181818181818,858,0,41,DL_Guitar,-1,-1
47,100,0.35909090909090907,40,1,42,DL_Guitar,-1,-1
59,100,0.13636363636363635,171,0,42,DL_Guitar,-1,-1
54,100,0.5772727272727273,391,1,42,DL_Guitar,-1,-1
47,100,0.5181818181818182,655,1,42,DL_Guitar,-1,-1
47,100,0.3409090909090909,31,1,43,DL_Guitar,-1,-1
47,100,0.11818181818181818,141,0,43,DL_Guitar,-1,-1
52,100,0.2590909090909091,171,0,43,DL_Guitar,-1,-1
52,100,0.2,260,0,43,DL_Guitar,-1,-1
52,100,0.4772727272727273,480,1,43,DL_Guitar,-1,-1
52,100,0.3409090909090909,593,0,43,DL_Guitar,-1,-1
47,100,0.2590909090909091,845,1,43,DL_Guitar,-1,-1
62,100,0.9181818181818182,31,1,44,DL_Guitar,-1,-1
49,100,0.2409090909090909,351,1,44,DL_Guitar,-1,-1
61,100,0.1590909090909091,448,0,44,DL_Guitar,-1,-1
64,100,0.5590909090909091,493,0,44,DL_Guitar,-1,-1
54,100,0.4409090909090909,26,1,45,DL_Guitar,-1,-1
54,100,0.2,131,0,45,DL_Guitar,-1,-1
51,100,0.7818181818181819,263,0,45,DL_Guitar,-1,-1
52,100,0.13636363636363635,545,1,45,DL_Guitar,-1,-1
59,100,0.12272727272727273,651,0,45,DL_Guitar,-1,-1
40,100,0.12272727272727273,694,0,45,DL_Guitar,-1,-1
52,100,0.33636363636363636,721,0,45,DL_Guitar,-1,-1
54,100,0.2818181818181818,211,1,46,DL_Guitar,-1,-1
47,100,0.1409090909090909,536,1,46,DL_Guitar,-1,-1
52,100,0.1409090909090909,571,0,46,DL_Guitar,-1,-1
40,100,0.2409090909090909,694,0,46,DL_Guitar,-1,-1
52,100,0.1409090909090909,756,0,46,DL_Guitar,-1,-1
40,100,0.1,801,0,46,DL_Guitar,-1,-1
40,100,0.22272727272727272,826,0,46,DL_Guitar,-1,-1
52,100,0.11818181818181818,875,0,46,DL_Guitar,-1,-1
57,100,0.2772727272727273,40,1,47,DL_Guitar,-1,-1
52,100,0.2,101,0,47,DL_Guitar,-1,-1
45,100,0.32272727272727275,211,0,47,DL_Guitar,-1,-1
45,100,0.5,351,0,47,DL_Guitar,-1,-1
45,100,0.12272727272727273,466,0,47,DL_Guitar,-1,-1
52,100,0.11818181818181818,523,0,47,DL_Guitar,-1,-1
52,100,0.2590909090909091,584,0,47,DL_Guitar,-1,-1
45,100,0.12272727272727273,826,1,47,DL_Guitar,-1,-1
52,100,0.42272727272727273,26,1,48,DL_Guitar,-1,-1
50,100,0.6,220,0,48,DL_Guitar,-1,-1
57,100,0.1,361,0,48,DL_Guitar,-1,-1
59,100,0.2772727272727273,251,1,49,DL_Guitar,-1,-1
47,100,0.18181818181818182,421,0,49,DL_Guitar,-1,-1
52,100,0.1,545,0,49,DL_Guitar,-1,-1
56,100,0.11818181818181818,721,0,49,DL_Guitar,-1,-1
52,100,0.2,804,0,49,DL_Guitar,-1,-1
52,100,0.11818181818181818,866,0,49,DL_Guitar,-1,-1
52,100,0.1409090909090909,69,1,50,DL_Guitar,-1,-1
64,100,0.12272727272727273,123,0,50,DL_Guitar,-1,-1
52,100,0.1,166,0,50,DL_Guitar,-1,-1
56,100,0.1590909090909091,506,1,50,DL_Guitar,-1,-1
56,100,0.12272727272727273,554,0,50,DL_Guitar,-1,-1
49,100,0.1409090909090909,651,0,50,DL_Guitar,-1,-1
49,100,0.2,408,1,51,DL_Guitar,-1,-1
54,100,0.6,136,1,52,DL_Guitar,-1,-1
57,100,0.3,325,0,52,DL_Guitar,-1,-1
59,100,0.1590909090909091,515,0,52,DL_Guitar,-1,-1
59,100,0.1590909090909091,568,0,52,DL_Guitar,-1,-1
54,100,0.4590909090909091,703,0,52,DL_Guitar,-1,-1
54,100,0.3409090909090909,826,0,52,DL_Guitar,-1,-1
54,100,0.18181818181818182,408,1,53,DL_Guitar,-1,-1
61,100,0.22272727272727272,651,1,53,DL_Guitar,-1,-1
61,100,0.1590909090909091,721,0,53,DL_Guitar,-1,-1
61,100,0.1,765,0,53,DL_Guitar,-1,-1
59,100,0.2,0,1,54,DL_Guitar,-1,-1
61,100,0.4,206,1,54,DL_Guitar,-1,-1
50,100,0.11818181818181818,681,1,54,DL_Guitar,-1,-1
57,100,0.17727272727272728,743,0,54,DL_Guitar,-1,-1
57,100,0.1,215,1,55,DL_Guitar,-1,-1
52,100,0.5,678,1,55,DL_Guitar,-1,-1
52,100,0.6181818181818182,791,0,55,DL_Guitar,-1,-1
40,100,0.2,48,1,56,DL_Guitar,-1,-1
52,100,0.18181818181818182,136,0,56,DL_Guitar,-1,-1
64,100,0.16363636363636364,179,0,56,DL_Guitar,-1,-1
40,100,0.22272727272727272,268,0,56,DL_Guitar,-1,-1
52,100,0.6363636363636364,391,0,56,DL_Guitar,-1,-1
52,100,0.11818181818181818,568,0,56,DL_Guitar,-1,-1
52,100,0.16363636363636364,598,0,56,DL_Guitar,-1,-1
52,100,0.5590909090909091,700,0,56,DL_Guitar,-1,-1
52,100,0.5818181818181818,839,0,56,DL_Guitar,-1,-1
40,100,0.1409090909090909,188,1,57,DL_Guitar,-1,-1
52,100,1.059090909090909,286,0,57,DL_Guitar,-1,-1
52,100,0.4409090909090909,541,1,57,DL_Guitar,-1,-1
40,100,0.11818181818181818,721,0,57,DL_Guitar,-1,-1
52,100,0.18181818181818182,770,0,57,DL_Guitar,-1,-1
45,100,0.740909090909091,813,0,57,DL_Guitar,-1,-1
52,100,0.12272727272727273,114,1,58,DL_Guitar,-1,-1
40,100,0.41818181818181815,501,1,58,DL_Guitar,-1,-1
52,100,0.2,603,0,58,DL_Guitar,-1,-1
52,100,0.3,678,0,58,DL_Guitar,-1,-1
40,100,0.13636363636363635,743,0,58,DL_Guitar,-1,-1
49,100,0.4818181818181818,88,1,59,DL_Guitar,-1,-1
49,100,0.17727272727272728,260,0,59,DL_Guitar,-1,-1
52,100,0.11818181818181818,523,1,59,DL_Guitar,-1,-1
56,100,0.22272727272727272,606,0,59,DL_Guitar,-1,-1
57,100,0.3,185,1,60,DL_Guitar,-1,-1
52,100,0.18181818181818182,444,1,60,DL_Guitar,-1,-1
52,100,0.18181818181818182,488,0,60,DL_Guitar,-1,-1
40,100,0.13636363636363635,611,0,60,DL_Guitar,-1,-1
52,100,0.4590909090909091,660,0,60,DL_Guitar,-1,-1
52,100,0.11818181818181818,810,0,60,DL_Guitar,-1,-1
40,100,0.2,861,0,60,DL_Guitar,-1,-1
52,100,0.2,176,1,61,DL_Guitar,-1,-1
45,100,0.22272727272727272,224,0,61,DL_Guitar,-1,-1
45,100,0.1409090909090909,289,0,61,DL_Guitar,-1,-1
52,100,0.37727272727272726,361,0,61,DL_Guitar,-1,-1
52,100,0.2590909090909091,458,0,61,DL_Guitar,-1,-1
64,100,0.42272727272727273,563,0,61,DL_Guitar,-1,-1
52,100,0.11818181818181818,655,0,61,DL_Guitar,-1,-1
49,100,0.11818181818181818,700,0,61,DL_Guitar,-1,-1
49,100,0.2818181818181818,818,0,61,DL_Guitar,-1,-1
50,100,0.3409090909090909,158,1,62,DL_Guitar,-1,-1
50,100,0.2,413,1,62,DL_Guitar,-1,-1
64,100,0.2409090909090909,603,0,62,DL_Guitar,-1,-1
64,100,0.11818181818181818,660,0,62,DL_Guitar,-1,-1
52,100,0.18181818181818182,751,0,62,DL_Guitar,-1,-1
52,100,0.11818181818181818,75,1,63,DL_Guitar,-1,-1
57,100,0.3409090909090909,246,0,63,DL_Guitar,-1,-1
45,100,0.4590909090909091,364,0,63,DL_Guitar,-1,-1
56,100,0.1590909090909091,673,1,63,DL_Guitar,-1,-1
49,100,0.2818181818181818,858,0,63,DL_Guitar,-1,-1
54,100,0.21818181818181817,260,1,64,DL_Guitar,-1,-1
54,100,0.4,563,1,64,DL_Guitar,-1,-1
47,100,0.1590909090909091,660,0,64,DL_Guitar,-1,-1
54,100,0.1409090909090909,756,0,64,DL_Guitar,-1,-1
52,100,0.1,373,1,65,DL_Guitar,-1,-1
52,100,0.3181818181818182,770,1,65,DL_Guitar,-1,-1
47,100,0.1409090909090909,35,1,66,DL_Guitar,-1,-1
52,100,0.16363636363636364,92,0,66,DL_Guitar,-1,-1
52,100,0.2772727272727273,184,0,66,DL_Guitar,-1,-1
52,100,0.2409090909090909,273,0,66,DL_Guitar,-1,-1
52,100,0.2409090909090909,356,0,66,DL_Guitar,-1,-1
52,100,0.13636363636363635,413,0,66,DL_Guitar,-1,-1
64,100,0.12272727272727273,509,0,66,DL_Guitar,-1,-1
54,100,0.3409090909090909,576,0,66,DL_Guitar,-1,-1
50,100,0.1409090909090909,352,1,67,DL_Guitar,-1,-1
50,100,0.11818181818181818,436,0,67,DL_Guitar,-1,-1
52,100,0.3409090909090909,563,0,67,DL_Guitar,-1,-1
52,100,0.2818181818181818,686,0,67,DL_Guitar,-1,-1
52,100,0.4590909090909091,766,0,67,DL_Guitar,-1,-1
59,100,0.18181818181818182,79,1,68,DL_Guitar,-1,-1
40,100,0.11818181818181818,140,0,68,DL_Guitar,-1,-1
47,100,0.3181818181818182,273,0,68,DL_Guitar,-1,-1
52,100,0.17727272727272728,523,1,68,DL_Guitar,-1,-1
56,100,0.11818181818181818,74,1,69,DL_Guitar,-1,-1
59,100,0.4590909090909091,189,0,69,DL_Guitar,-1,-1
56,100,0.4409090909090909,430,1,69,DL_Guitar,-1,-1
52,100,0.13636363636363635,612,0,69,DL_Guitar,-1,-1
52,100,0.1409090909090909,35,1,70,DL_Guitar,-1,-1
54,100,0.3,140,0,70,DL_Guitar,-1,-1
49,100,0.23636363636363636,260,0,70,DL_Guitar,-1,-1
54,100,0.2409090909090909,399,0,70,DL_Guitar,-1,-1
54,100,1.3409090909090908,747,1,70,DL_Guitar,-1,-1
54,100,0.2409090909090909,220,1,71,DL_Guitar,-1,-1
54,100,0.18181818181818182,286,0,71,DL_Guitar,-1,-1
54,100,0.1,453,0,71,DL_Guitar,-1,-1
54,100,0.1590909090909091,580,0,71,DL_Guitar,-1,-1
61,100,0.1,796,1,71,DL_Guitar,-1,-1
49,100,0.1,483,1,72,DL_Guitar,-1,-1
61,100,0.42272727272727273,540,0,72,DL_Guitar,-1,-1
57,100,0.21818181818181817,242,1,73,DL_Guitar,-1,-1
50,100,0.1590909090909091,392,0,73,DL_Guitar,-1,-1
52,100,0.11818181818181818,66,1,74,DL_Guitar,-1,-1
52,100,0.2772727272727273,150,0,74,DL_Guitar,-1,-1
52,100,0.12272727272727273,289,0,74,DL_Guitar,-1,-1
64,100,0.1409090909090909,320,0,74,DL_Guitar,-1,-1
52,100,0.12272727272727273,386,0,74,DL_Guitar,-1,-1
64,100,0.13636363636363635,413,0,74,DL_Guitar,-1,-1
40,100,0.1590909090909091,483,0,74,DL_Guitar,-1,-1
52,100,0.1409090909090909,603,0,74,DL_Guitar,-1,-1
52,100,0.2590909090909091,787,0,74,DL_Guitar,-1,-1
40,100,0.1409090909090909,844,0,74,DL_Guitar,-1,-1
52,100,0.2590909090909091,79,1,75,DL_Guitar,-1,-1
52,100,0.11818181818181818,184,0,75,DL_Guitar,-1,-1
52,100,0.1,223,0,75,DL_Guitar,-1,-1
52,100,0.12272727272727273,267,0,75,DL_Guitar,-1,-1
64,100,0.11818181818181818,316,0,75,DL_Guitar,-1,-1
52,100,0.2818181818181818,409,0,75,DL_Guitar,-1,-1
40,100,0.11818181818181818,514,0,75,DL_Guitar,-1,-1
52,100,0.22272727272727272,540,0,75,DL_Guitar,-1,-1
45,100,0.9,242,1,76,DL_Guitar,-1,-1
52,100,0.3409090909090909,462,1,76,DL_Guitar,-1,-1
52,100,0.12272727272727273,650,0,76,DL_Guitar,-1,-1
53,100,0.1,677,0,76,DL_Guitar,-1,-1
64,100,0.1,576,1,77,DL_Guitar,-1,-1
42,100,0.1409090909090909,637,0,77,DL_Guitar,-1,-1
54,100,0.2,360,1,78,DL_Guitar,-1,-1
54,100,0.3,443,1,79,DL_Guitar,-1,-1
54,100,0.3409090909090909,682,1,79,DL_Guitar,-1,-1
50,100,0.1590909090909091,96,1,80,DL_Guitar,-1,-1
54,100,0.12272727272727273,166,0,80,DL_Guitar,-1,-1
54,100,0.4590909090909091,519,1,80,DL_Guitar,-1,-1
54,100,0.1,633,0,80,DL_Guitar,-1,-1
50,100,0.21818181818181817,853,1,80,DL_Guitar,-1,-1
52,100,0.2,106,1,81,DL_Guitar,-1,-1
56,100,0.2590909090909091,220,0,81,DL_Guitar,-1,-1
52,100,0.8818181818181818,333,0,81,DL_Guitar,-1,-1
42,100,0.32272727272727275,673,1,81,DL_Guitar,-1,-1
61,100,0.2590909090909091,760,0,81,DL_Guitar,-1,-1
57,100,0.1409090909090909,136,1,82,DL_Guitar,-1,-1
61,100,0.18181818181818182,246,0,82,DL_Guitar,-1,-1
61,100,0.2772727272727273,347,0,82,DL_Guitar,-1,-1
54,100,0.1409090909090909,553,1,82,DL_Guitar,-1,-1
54,100,0.3,646,0,82,DL_Guitar,-1,-1
54,100,0.1590909090909091,716,0,82,DL_Guitar,-1,-1
57,100,0.18181818181818182,752,0,82,DL_Guitar,-1,-1
62,100,0.1,826,0,82,DL_Guitar,-1,-1
62,100,0.1,853,0,82,DL_Guitar,-1,-1
54,100,0.32272727272727275,136,1,83,DL_Guitar,-1,-1
57,100,0.4,233,0,83,DL_Guitar,-1,-1
50,100,0.2636363636363636,399,0,83,DL_Guitar,-1,-1
52,100,0.1,839,1,83,DL_Guitar,-1,-1
52,100,0.43636363636363634,83,1,84,DL_Guitar,-1,-1
59,100,0.1409090909090909,210,0,84,DL_Guitar,-1,-1
64,100,0.1590909090909091,713,1,84,DL_Guitar,-1,-1
54,100,0.1,787,0,84,DL_Guitar,-1,-1
63,100,0.1409090909090909,836,0,84,DL_Guitar,-1,-1
63,100,0.1,26,1,85,DL_Guitar,-1,-1
54,100,0.1,87,0,85,DL_Guitar,-1,-1
54,100,0.2409090909090909,163,0,85,DL_Guitar,-1,-1
54,100,0.1409090909090909,299,0,85,DL_Guitar,-1,-1
42,100,0.1409090909090909,453,0,85,DL_Guitar,-1,-1
54,100,0.2,729,1,85,DL_Guitar,-1,-1
63,100,0.2818181818181818,35,1,86,DL_Guitar,-1,-1
63,100,0.23636363636363636,106,0,86,DL_Guitar,-1,-1
59,100,0.1409090909090909,267,0,86,DL_Guitar,-1,-1
54,100,0.3,690,1,86,DL_Guitar,-1,-1
42,100,0.12272727272727273,817,0,86,DL_Guitar,-1,-1
52,100,0.4590909090909091,163,1,87,DL_Guitar,-1,-1
52,100,0.1409090909090909,470,1,87,DL_Guitar,-1,-1
42,100,0.1,650,0,87,DL_Guitar,-1,-1
61,100,0.12272727272727273,26,1,88,DL_Guitar,-1,-1
54,100,0.21818181818181817,30,1,89,DL_Guitar,-1,-1
64,100,0.11818181818181818,176,0,89,DL_Guitar,-1,-1
64,100,0.21818181818181817,237,0,89,DL_Guitar,-1,-1
64,100,0.11818181818181818,330,0,89,DL_Guitar,-1,-1
52,100,0.5590909090909091,417,0,89,DL_Guitar,-1,-1
64,100,0.1,593,0,89,DL_Guitar,-1,-1
54,100,0.2,857,1,89,DL_Guitar,-1,-1
63,100,0.2409090909090909,307,1,90,DL_Guitar,-1,-1
63,100,0.37727272727272726,404,0,90,DL_Guitar,-1,-1
59,100,0.3181818181818182,726,1,90,DL_Guitar,-1,-1
63,100,0.1,233,1,91,DL_Guitar,-1,-1
54,100,0.1,276,0,91,DL_Guitar,-1,-1
64,100,0.2818181818181818,333,0,91,DL_Guitar,-1,-1
64,100,0.12272727272727273,443,0,91,DL_Guitar,-1,-1
52,100,0.2590909090909091,502,0,91,DL_Guitar,-1,-1
52,100,0.2409090909090909,572,0,91,DL_Guitar,-1,-1
52,100,0.21818181818181817,747,0,91,DL_Guitar,-1,-1
52,100,0.2,870,0,91,DL_Guitar,-1,-1
47,100,0.1409090909090909,74,1,92,DL_Guitar,-1,-1
64,100,0.1409090909090909,206,0,92,DL_Guitar,-1,-1
59,100,0.1590909090909091,276,0,92,DL_Guitar,-1,-1
54,100,0.3181818181818182,436,0,92,DL_Guitar,-1,-1
54,100,0.2409090909090909,572,0,92,DL_Guitar,-1,-1
52,100,0.5,700,0,92,DL_Guitar,-1,-1
54,100,0.2636363636363636,47,1,93,DL_Guitar,-1,-1
54,100,0.18181818181818182,132,0,93,DL_Guitar,-1,-1
54,100,0.1409090909090909,110,1,94,DL_Guitar,-1,-1
54,100,0.41818181818181815,307,0,94,DL_Guitar,-1,-1
63,100,0.11818181818181818,612,1,94,DL_Guitar,-1,-1
51,100,0.12272727272727273,752,0,94,DL_Guitar,-1,-1
59,100,0.42272727272727273,796,0,94,DL_Guitar,-1,-1
63,100,0.1590909090909091,206,1,95,DL_Guitar,-1,-1
51,100,0.38181818181818183,276,0,95,DL_Guitar,-1,-1
54,100,0.23636363636363636,392,0,95,DL_Guitar,-1,-1
54,100,0.2409090909090909,475,0,95,DL_Guitar,-1,-1
52,100,0.2590909090909091,606,0,95,DL_Guitar,-1,-1
52,100,0.2409090909090909,716,0,95,DL_Guitar,-1,-1
52,100,0.9181818181818182,813,0,95,DL_Guitar,-1,-1
54,100,0.11818181818181818,176,1,96,DL_Guitar,-1,-1
54,100,0.1409090909090909,404,1,96,DL_Guitar,-1,-1
54,100,0.12272727272727273,629,1,96,DL_Guitar,-1,-1
47,100,0.1409090909090909,663,0,96,DL_Guitar,-1,-1
47,100,0.4409090909090909,823,0,96,DL_Guitar,-1,-1
54,100,0.11818181818181818,132,1,97,DL_Guitar,-1,-1
54,100,0.1590909090909091,453,1,97,DL_Guitar,-1,-1
54,100,0.4818181818181818,509,0,97,DL_Guitar,-1,-1
52,100,0.4,805,1,97,DL_Guitar,-1,-1
52,100,0.3181818181818182,153,1,98,DL_Guitar,-1,-1
54,100,0.22272727272727272,475,1,98,DL_Guitar,-1,-1
61,100,0.2409090909090909,650,0,98,DL_Guitar,-1,-1
63,100,0.35909090909090907,779,0,98,DL_Guitar,-1,-1
56,100,0.2409090909090909,9,1,99,DL_Guitar,-1,-1
63,100,0.1409090909090909,74,0,99,DL_Guitar,-1,-1
59,100,0.1590909090909091,119,0,99,DL_Guitar,-1,-1
63,100,0.5818181818181818,176,0,99,DL_Guitar,-1,-1
63,100,0.6181818181818182,527,1,99,DL_Guitar,-1,-1
63,100,0.41818181818181815,722,0,99,DL_Guitar,-1,-1
49,100,0.5590909090909091,62,1,100,DL_Guitar,-1,-1
49,100,0.3,316,1,100,DL_Guitar,-1,-1
49,100,0.1,392,0,100,DL_Guitar,-1,-1
49,100,0.37727272727272726,523,0,100,DL_Guitar,-1,-1
52,100,0.3409090909090909,849,1,100,DL_Guitar,-1,-1
61,100,0.3,136,1,101,DL_Guitar,-1,-1
54,100,0.23636363636363636,282,0,101,DL_Guitar,-1,-1
42,100,0.1590909090909091,352,0,101,DL_Guitar,-1,-1
54,100,0.4590909090909091,624,1,101,DL_Guitar,-1,-1
54,100,0.5590909090909091,787,0,101,DL_Guitar,-1,-1
54,100,0.1,153,1,102,DL_Guitar,-1,-1
54,100,0.1409090909090909,92,1,103,DL_Guitar,-1,-1
63,100,0.38181818181818183,386,1,103,DL_Guitar,-1,-1
54,100,0.21818181818181817,527,0,103,DL_Guitar,-1,-1
54,100,0.11818181818181818,832,1,103,DL_Guitar,-1,-1
59,100,0.12272727272727273,267,1,104,DL_Guitar,-1,-1
59,100,0.7227272727272728,343,0,104,DL_Guitar,-1,-1
54,100,0.1409090909090909,550,1,104,DL_Guitar,-1,-1
54,100,0.3,100,1,105,DL_Guitar,-1,-1
54,100,0.2772727272727273,172,0,105,DL_Guitar,-1,-1
63,100,0.2818181818181818,739,1,105,DL_Guitar,-1,-1
64,100,0.3409090909090909,110,1,106,DL_Guitar,-1,-1
64,100,0.11818181818181818,250,0,106,DL_Guitar,-1,-1
64,100,0.11818181818181818,303,0,106,DL_Guitar,-1,-1
64,100,0.12272727272727273,365,0,106,DL_Guitar,-1,-1
47,100,0.1,839,1,106,DL_Guitar,-1,-1
64,100,0.2818181818181818,386,1,107,DL_Guitar,-1,-1
63,100,0.1,633,1,107,DL_Guitar,-1,-1
54,100,0.4818181818181818,760,0,107,DL_Guitar,-1,-1
54,100,0.12272727272727273,3,1,108,DL_Guitar,-1,-1
54,100,0.759090909090909,123,0,108,DL_Guitar,-1,-1
49,100,0.4590909090909091,603,1,108,DL_Guitar,-1,-1
64,100,0.2409090909090909,726,0,108,DL_Guitar,-1,-1
64,100,0.1409090909090909,792,0,108,DL_Guitar,-1,-1
56,100,0.4,316,1,109,DL_Guitar,-1,-1
63,100,0.3181818181818182,593,1,109,DL_Guitar,-1,-1
63,100,0.13636363636363635,677,0,109,DL_Guitar,-1,-1
54,100,0.11818181818181818,770,0,109,DL_Guitar,-1,-1
63,100,0.1409090909090909,87,1,110,DL_Guitar,-1,-1
63,100,0.18181818181818182,153,0,110,DL_Guitar,-1,-1
54,100,0.12272727272727273,320,0,110,DL_Guitar,-1,-1
63,100,0.1409090909090909,383,0,110,DL_Guitar,-1,-1
59,100,0.1590909090909091,563,0,110,DL_Guitar,-1,-1
63,100,0.12272727272727273,752,0,110,DL_Guitar,-1,-1
54,100,0.2590909090909091,83,1,111,DL_Guitar,-1,-1
54,100,0.5590909090909091,220,0,111,DL_Guitar,-1,-1
61,100,0.38181818181818183,475,1,111,DL_Guitar,-1,-1
54,100,0.18181818181818182,637,0,111,DL_Guitar,-1,-1
54,100,0.32272727272727275,422,1,112,DL_Guitar,-1,-1
54,100,0.18181818181818182,255,1,113,DL_Guitar,-1,-1
54,100,0.18181818181818182,299,0,113,DL_Guitar,-1,-1
54,100,0.22272727272727272,409,0,113,DL_Guitar,-1,-1
59,100,0.12272727272727273,496,0,113,DL_Guitar,-1,-1
47,100,0.1590909090909091,276,1,114,DL_Guitar,-1,-1
53,100,0.11818181818181818,282,1,0,DL_Guitar,-1,-1
55,100,0.4409090909090909,317,0,0,DL_Guitar,-1,-1
58,100,0.13636363636363635,634,1,0,DL_Guitar,-1,-1
46,100,0.6590909090909091,845,1,0,DL_Guitar,-1,-1
58,100,0.36363636363636365,180,1,1,DL_Guitar,-1,-1
46,100,0.17727272727272728,259,0,1,DL_Guitar,-1,-1
46,100,0.4590909090909091,325,0,1,DL_Guitar,-1,-1
53,100,0.3409090909090909,559,1,1,DL_Guitar,-1,-1
43,100,0.1,263,1,2,DL_Guitar,-1,-1
53,100,0.12272727272727273,651,1,2,DL_Guitar,-1,-1
58,100,0.2590909090909091,21,1,3,DL_Guitar,-1,-1
46,100,0.3,326,1,3,DL_Guitar,-1,-1
53,100,0.2409090909090909,0,1,4,DL_Guitar,-1,-1
53,100,0.6227272727272727,79,0,4,DL_Guitar,-1,-1
53,100,0.4590909090909091,299,1,4,DL_Guitar,-1,-1
41,100,0.33636363636363636,414,0,4,DL_Guitar,-1,-1
53,100,0.11818181818181818,493,0,4,DL_Guitar,-1,-1
53,100,0.3181818181818182,527,0,4,DL_Guitar,-1,-1
53,100,0.17727272727272728,611,0,4,DL_Guitar,-1,-1
53,100,0.2,739,0,4,DL_Guitar,-1,-1
53,100,0.1409090909090909,493,1,5,DL_Guitar,-1,-1
58,100,0.2,524,0,5,DL_Guitar,-1,-1
46,100,0.21818181818181817,831,1,5,DL_Guitar,-1,-1
53,100,0.3,255,1,6,DL_Guitar,-1,-1
41,100,0.37727272727272726,470,1,6,DL_Guitar,-1,-1
53,100,0.17727272727272728,647,0,6,DL_Guitar,-1,-1
41,100,0.11818181818181818,844,0,6,DL_Guitar,-1,-1
41,100,0.1409090909090909,166,1,7,DL_Guitar,-1,-1
43,100,0.2818181818181818,431,1,8,DL_Guitar,-1,-1
58,100,0.5181818181818182,457,1,9,DL_Guitar,-1,-1
46,100,0.21818181818181817,316,1,10,DL_Guitar,-1,-1
46,100,0.6181818181818182,581,1,10,DL_Guitar,-1,-1
53,100,0.18181818181818182,783,1,10,DL_Guitar,-1,-1
53,100,0.2590909090909091,835,0,10,DL_Guitar,-1,-1
41,100,0.23636363636363636,171,1,11,DL_Guitar,-1,-1
41,100,0.22272727272727272,290,0,11,DL_Guitar,-1,-1
41,100,0.11818181818181818,391,0,11,DL_Guitar,-1,-1
41,100,0.21818181818181817,550,0,11,DL_Guitar,-1,-1
41,100,0.23636363636363636,634,0,11,DL_Guitar,-1,-1
41,100,0.1,747,0,11,DL_Guitar,-1,-1
43,100,0.13636363636363635,391,1,12,DL_Guitar,-1,-1
43,100,0.1409090909090909,691,1,12,DL_Guitar,-1,-1
43,100,0.1,220,1,13,DL_Guitar,-1,-1
63,100,0.1,259,0,13,DL_Guitar,-1,-1
51,100,0.21818181818181817,281,0,13,DL_Guitar,-1,-1
41,100,0.11818181818181818,347,1,14,DL_Guitar,-1,-1
41,100,0.2409090909090909,606,1,14,DL_Guitar,-1,-1
53,100,0.11818181818181818,668,0,14,DL_Guitar,-1,-1
41,100,0.22272727272727272,730,0,14,DL_Guitar,-1,-1
43,100,0.11818181818181818,39,1,15,DL_Guitar,-1,-1
43,100,0.18181818181818182,110,0,15,DL_Guitar,-1,-1
43,100,0.2409090909090909,166,0,15,DL_Guitar,-1,-1
55,100,0.5636363636363636,290,0,15,DL_Guitar,-1,-1
53,100,0.38181818181818183,519,1,15,DL_Guitar,-1,-1
53,100,0.18181818181818182,739,1,15,DL_Guitar,-1,-1
53,100,0.17727272727272728,801,0,15,DL_Guitar,-1,-1
41,100,0.36363636363636365,840,0,15,DL_Guitar,-1,-1
53,100,0.22272727272727272,48,1,16,DL_Guitar,-1,-1
41,100,0.4409090909090909,96,0,16,DL_Guitar,-1,-1
41,100,0.1590909090909091,233,0,16,DL_Guitar,-1,-1
53,100,0.11818181818181818,308,0,16,DL_Guitar,-1,-1
53,100,0.12272727272727273,343,0,16,DL_Guitar,-1,-1
41,100,0.21818181818181817,370,0,16,DL_Guitar,-1,-1
53,100,0.2590909090909091,436,0,16,DL_Guitar,-1,-1
41,100,0.1590909090909091,492,0,16,DL_Guitar,-1,-1
53,100,0.2772727272727273,700,1,16,DL_Guitar,-1,-1
46,100,0.21818181818181817,845,0,16,DL_Guitar,-1,-1
46,100,0.6227272727272727,312,1,17,DL_Guitar,-1,-1
53,100,0.17727272727272728,546,1,18,DL_Guitar,-1,-1
53,100,0.2409090909090909,505,1,19,DL_Guitar,-1,-1
48,100,0.11818181818181818,625,0,19,DL_Guitar,-1,-1
53,100,0.2590909090909091,681,0,19,DL_Guitar,-1,-1
53,100,0.13636363636363635,150,1,20,DL_Guitar,-1,-1
58,100,0.2818181818181818,461,1,20,DL_Guitar,-1,-1
43,100,0.1590909090909091,409,1,21,DL_Guitar,-1,-1
53,100,0.43636363636363634,810,1,21,DL_Guitar,-1,-1
53,100,0.2,162,1,22,DL_Guitar,-1,-1
53,100,0.2,299,0,22,DL_Guitar,-1,-1
53,100,0.13636363636363635,436,0,22,DL_Guitar,-1,-1
58,100,0.11818181818181818,0,1,23,DL_Guitar,-1,-1
63,100,0.22272727272727272,100,0,23,DL_Guitar,-1,-1
63,100,0.18181818181818182,179,0,23,DL_Guitar,-1,-1
41,100,0.1,756,1,23,DL_Guitar,-1,-1
41,100,0.1409090909090909,827,0,23,DL_Guitar,-1,-1
43,100,0.17727272727272728,845,1,24,DL_Guitar,-1,-1
53,100,0.1590909090909091,430,1,26,DL_Guitar,-1,-1
53,100,0.4818181818181818,474,0,26,DL_Guitar,-1,-1
41,100,0.1409090909090909,581,0,26,DL_Guitar,-1,-1
41,100,0.13636363636363635,633,0,26,DL_Guitar,-1,-1
53,100,0.11818181818181818,700,0,26,DL_Guitar,-1,-1
53,100,0.1,756,0,26,DL_Guitar,-1,-1
53,100,0.2590909090909091,801,0,26,DL_Guitar,-1,-1
53,100,0.2818181818181818,870,0,26,DL_Guitar,-1,-1
53,100,0.21818181818181817,131,1,27,DL_Guitar,-1,-1
51,100,0.9590909090909091,260,0,27,DL_Guitar,-1,-1
51,100,0.1409090909090909,694,1,27,DL_Guitar,-1,-1
63,100,0.33636363636363636,106,1,28,DL_Guitar,-1,-1
53,100,0.1,426,1,28,DL_Guitar,-1,-1
48,100,0.8590909090909091,484,0,28,DL_Guitar,-1,-1
51,100,0.1409090909090909,760,1,29,DL_Guitar,-1,-1
51,100,0.1409090909090909,827,0,29,DL_Guitar,-1,-1
41,100,0.11818181818181818,44,1,30,DL_Guitar,-1,-1
48,100,0.11818181818181818,193,0,30,DL_Guitar,-1,-1
41,100,0.2590909090909091,299,0,30,DL_Guitar,-1,-1
41,100,0.1590909090909091,360,0,30,DL_Guitar,-1,-1
41,100,0.17727272727272728,559,1,30,DL_Guitar,-1,-1
53,100,0.2409090909090909,607,0,30,DL_Guitar,-1,-1
46,100,0.22272727272727272,818,1,30,DL_Guitar,-1,-1
58,100,0.8409090909090909,866,0,30,DL_Guitar,-1,-1
58,100,0.1409090909090909,405,1,31,DL_Guitar,-1,-1
41,100,0.3,603,1,32,DL_Guitar,-1,-1
41,100,0.2,848,1,32,DL_Guitar,-1,-1
58,100,0.11818181818181818,43,1,33,DL_Guitar,-1,-1
58,100,1.0,118,0,33,DL_Guitar,-1,-1
53,100,0.2,364,1,33,DL_Guitar,-1,-1
58,100,0.21818181818181817,616,1,33,DL_Guitar,-1,-1
58,100,0.17727272727272728,765,0,33,DL_Guitar,-1,-1
53,100,0.2818181818181818,123,1,35,DL_Guitar,-1,-1
50,100,0.1409090909090909,515,1,35,DL_Guitar,-1,-1
55,100,0.1409090909090909,483,1,36,DL_Guitar,-1,-1
43,100,0.1590909090909091,735,1,36,DL_Guitar,-1,-1
55,100,0.2,818,0,36,DL_Guitar,-1,-1
55,100,0.2409090909090909,34,1,37,DL_Guitar,-1,-1
55,100,0.1409090909090909,228,0,37,DL_Guitar,-1,-1
53,100,0.1590909090909091,616,1,37,DL_Guitar,-1,-1
53,100,0.2,678,0,37,DL_Guitar,-1,-1
53,100,0.2,866,0,37,DL_Guitar,-1,-1
53,100,0.2,114,1,38,DL_Guitar,-1,-1
53,100,0.2590909090909091,298,0,38,DL_Guitar,-1,-1
53,100,0.32272727272727275,431,0,38,DL_Guitar,-1,-1
51,100,0.2409090909090909,584,0,38,DL_Guitar,-1,-1
51,100,0.32272727272727275,751,0,38,DL_Guitar,-1,-1
53,100,0.22272727272727272,518,1,39,DL_Guitar,-1,-1
41,100,0.1409090909090909,581,0,39,DL_Guitar,-1,-1
41,100,0.11818181818181818,845,1,39,DL_Guitar,-1,-1
53,100,0.3,13,1,40,DL_Guitar,-1,-1
46,100,0.37727272727272726,171,0,40,DL_Guitar,-1,-1
58,100,0.3181818181818182,338,0,40,DL_Guitar,-1,-1
58,100,0.38181818181818183,571,1,40,DL_Guitar,-1,-1
43,100,0.1409090909090909,123,1,41,DL_Guitar,-1,-1
53,100,0.2409090909090909,813,1,41,DL_Guitar,-1,-1
41,100,0.11818181818181818,131,1,42,DL_Guitar,-1,-1
53,100,0.2,298,0,42,DL_Guitar,-1,-1
48,100,1.518181818181818,568,1,43,DL_Guitar,-1,-1
53,100,0.4636363636363636,378,1,44,DL_Guitar,-1,-1
53,100,0.1409090909090909,483,0,44,DL_Guitar,-1,-1
53,100,0.17727272727272728,193,1,46,DL_Guitar,-1,-1
53,100,0.3409090909090909,246,0,46,DL_Guitar,-1,-1
46,100,0.21818181818181817,448,1,46,DL_Guitar,-1,-1
53,100,0.4590909090909091,396,1,47,DL_Guitar,-1,-1
53,100,0.7181818181818181,655,1,47,DL_Guitar,-1,-1
53,100,0.6818181818181818,839,0,47,DL_Guitar,-1,-1
58,100,0.5409090909090909,289,1,48,DL_Guitar,-1,-1
53,100,0.17727272727272728,536,1,48,DL_Guitar,-1,-1
57,100,0.21818181818181817,791,1,48,DL_Guitar,-1,-1
53,100,0.21818181818181817,286,1,49,DL_Guitar,-1,-1
54,100,0.11818181818181818,616,1,49,DL_Guitar,-1,-1
53,100,0.2590909090909091,678,0,49,DL_Guitar,-1,-1
53,100,0.2,128,1,50,DL_Guitar,-1,-1
53,100,0.18181818181818182,286,0,50,DL_Guitar,-1,-1
53,100,0.11818181818181818,330,0,50,DL_Guitar,-1,-1
53,100,0.1590909090909091,370,0,50,DL_Guitar,-1,-1
58,100,0.1409090909090909,681,1,56,DL_Guitar,-1,-1
53,100,0.11818181818181818,396,1,58,DL_Guitar,-1,-1
53,100,0.1409090909090909,509,0,58,DL_Guitar,-1,-1
53,100,0.37727272727272726,646,0,58,DL_Guitar,-1,-1
58,100,0.11818181818181818,858,1,58,DL_Guitar,-1,-1
53,100,0.4,150,1,59,DL_Guitar,-1,-1
58,100,0.12272727272727273,276,0,59,DL_Guitar,-1,-1
63,100,0.4409090909090909,703,1,74,DL_Guitar,-1,-1
63,100,0.3409090909090909,826,0,74,DL_Guitar,-1,-1
53,100,0.3409090909090909,487,1,75,DL_Guitar,-1,-1
48,100,0.11818181818181818,633,0,75,DL_Guitar,-1,-1
53,100,0.12272727272727273,805,0,75,DL_Guitar,-1,-1
41,100,0.2,832,0,75,DL_Guitar,-1,-1
53,100,0.23636363636363636,876,0,75,DL_Guitar,-1,-1
46,100,0.37727272727272726,493,1,76,DL_Guitar,-1,-1
46,100,0.21818181818181817,612,0,76,DL_Guitar,-1,-1
58,100,0.1409090909090909,770,1,86,DL_Guitar,-1,-1
58,100,0.4590909090909091,132,1,87,DL_Guitar,-1,-1
41,100,1.0,267,0,87,DL_Guitar,-1,-1
60,100,0.18181818181818182,487,1,87,DL_Guitar,-1,-1
41,100,0.11818181818181818,536,0,87,DL_Guitar,-1,-1
48,100,0.4818181818181818,619,0,87,DL_Guitar,-1,-1
53,100,0.1590909090909091,153,1,88,DL_Guitar,-1,-1
53,100,0.22272727272727272,202,0,88,DL_Guitar,-1,-1
53,100,0.3,286,0,88,DL_Guitar,-1,-1
62,100,0.33636363636363636,523,1,88,DL_Guitar,-1,-1
53,100,0.16363636363636364,839,1,88,DL_Guitar,-1,-1
48,100,0.1590909090909091,299,1,89,DL_Guitar,-1,-1
41,100,0.8409090909090909,597,1,89,DL_Guitar,-1,-1
48,100,0.21818181818181817,43,1,90,DL_Guitar,-1,-1
48,100,0.11818181818181818,106,0,90,DL_Guitar,-1,-1
58,100,0.5409090909090909,197,0,90,DL_Guitar,-1,-1
58,100,0.1,509,1,90,DL_Guitar,-1,-1
43,100,0.9590909090909091,593,0,90,DL_Guitar,-1,-1
62,100,0.1590909090909091,810,1,90,DL_Guitar,-1,-1
43,100,0.32272727272727275,92,1,91,DL_Guitar,-1,-1
62,100,0.22272727272727272,246,0,91,DL_Guitar,-1,-1
51,100,1.5,303,0,91,DL_Guitar,-1,-1
53,100,1.040909090909091,703,1,91,DL_Guitar,-1,-1
41,100,0.5181818181818182,53,1,92,DL_Guitar,-1,-1
41,100,0.5,179,0,92,DL_Guitar,-1,-1
53,100,0.18181818181818182,289,0,92,DL_Guitar,-1,-1
41,100,0.2590909090909091,360,0,92,DL_Guitar,-1,-1
53,100,0.4,430,0,92,DL_Guitar,-1,-1
44,100,0.2,607,1,0,DL_Guitar,-1,-1
56,100,0.18181818181818182,651,0,0,DL_Guitar,-1,-1
44,100,0.2,752,0,0,DL_Guitar,-1,-1
61,100,0.9,655,1,1,DL_Guitar,-1,-1
43,100,0.2,497,1,2,DL_Guitar,-1,-1
43,100,0.33636363636363636,546,0,2,DL_Guitar,-1,-1
43,100,0.1590909090909091,678,0,2,DL_Guitar,-1,-1
49,100,0.6,436,1,3,DL_Guitar,-1,-1
49,100,0.13636363636363635,788,1,3,DL_Guitar,-1,-1
63,100,0.41818181818181815,140,1,5,DL_Guitar,-1,-1
56,100,0.1409090909090909,541,1,5,DL_Guitar,-1,-1
56,100,0.38181818181818183,575,0,5,DL_Guitar,-1,-1
56,100,0.3181818181818182,721,0,5,DL_Guitar,-1,-1
44,100,0.1590909090909091,66,1,6,DL_Guitar,-1,-1
63,100,0.3409090909090909,153,0,6,DL_Guitar,-1,-1
63,100,0.1409090909090909,311,0,6,DL_Guitar,-1,-1
60,100,0.1590909090909091,386,0,6,DL_Guitar,-1,-1
53,100,0.42272727272727273,695,1,6,DL_Guitar,-1,-1
53,100,0.23636363636363636,810,0,6,DL_Guitar,-1,-1
63,100,0.2772727272727273,325,1,7,DL_Guitar,-1,-1
44,100,0.1,399,0,7,DL_Guitar,-1,-1
51,100,0.6,431,0,7,DL_Guitar,-1,-1
51,100,0.23636363636363636,568,0,7,DL_Guitar,-1,-1
51,100,0.2,713,0,7,DL_Guitar,-1,-1
51,100,0.18181818181818182,774,0,7,DL_Guitar,-1,-1
63,100,0.6,818,0,7,DL_Guitar,-1,-1
63,100,0.32272727272727275,321,1,8,DL_Guitar,-1,-1
63,100,0.17727272727272728,426,0,8,DL_Guitar,-1,-1
53,100,0.12272727272727273,795,1,8,DL_Guitar,-1,-1
48,100,0.35909090909090907,386,1,9,DL_Guitar,-1,-1
48,100,0.2409090909090909,493,0,9,DL_Guitar,-1,-1
63,100,0.2636363636363636,862,1,9,DL_Guitar,-1,-1
56,100,0.1590909090909091,364,1,10,DL_Guitar,-1,-1
51,100,0.2636363636363636,400,0,10,DL_Guitar,-1,-1
56,100,0.13636363636363635,457,0,10,DL_Guitar,-1,-1
56,100,0.740909090909091,527,0,10,DL_Guitar,-1,-1
56,100,0.5590909090909091,716,0,10,DL_Guitar,-1,-1
63,100,0.11818181818181818,110,1,11,DL_Guitar,-1,-1
56,100,0.2409090909090909,250,0,11,DL_Guitar,-1,-1
63,100,0.22272727272727272,443,0,11,DL_Guitar,-1,-1
63,100,0.1,691,1,11,DL_Guitar,-1,-1
63,100,0.3,876,0,11,DL_Guitar,-1,-1
56,100,0.22272727272727272,70,1,12,DL_Guitar,-1,-1
63,100,0.1,144,0,12,DL_Guitar,-1,-1
63,100,0.2,273,0,12,DL_Guitar,-1,-1
56,100,0.2818181818181818,378,0,12,DL_Guitar,-1,-1
51,100,0.32272727272727275,465,0,12,DL_Guitar,-1,-1
63,100,0.3,598,0,12,DL_Guitar,-1,-1
51,100,0.3409090909090909,795,0,12,DL_Guitar,-1,-1
44,100,0.1,127,1,13,DL_Guitar,-1,-1
63,100,0.23636363636363636,149,0,13,DL_Guitar,-1,-1
63,100,0.1409090909090909,333,0,13,DL_Guitar,-1,-1
56,100,0.17727272727272728,436,0,13,DL_Guitar,-1,-1
49,100,0.16363636363636364,553,0,13,DL_Guitar,-1,-1
63,100,0.8,660,0,13,DL_Guitar,-1,-1
51,100,0.1590909090909091,22,1,14,DL_Guitar,-1,-1
63,100,1.6590909090909092,56,0,14,DL_Guitar,-1,-1
63,100,0.3409090909090909,488,1,14,DL_Guitar,-1,-1
56,100,0.22272727272727272,685,0,14,DL_Guitar,-1,-1
51,100,0.12272727272727273,761,0,14,DL_Guitar,-1,-1
63,100,0.42272727272727273,849,0,14,DL_Guitar,-1,-1
44,100,0.33636363636363636,61,1,15,DL_Guitar,-1,-1
63,100,0.2409090909090909,140,0,15,DL_Guitar,-1,-1
44,100,0.17727272727272728,194,0,15,DL_Guitar,-1,-1
44,100,0.21818181818181817,304,0,15,DL_Guitar,-1,-1
63,100,0.22272727272727272,355,0,15,DL_Guitar,-1,-1
44,100,0.1590909090909091,405,0,15,DL_Guitar,-1,-1
44,100,0.2,453,0,15,DL_Guitar,-1,-1
49,100,0.5590909090909091,584,0,15,DL_Guitar,-1,-1
49,100,0.5,716,0,15,DL_Guitar,-1,-1
63,100,0.1,835,0,15,DL_Guitar,-1,-1
56,100,0.1590909090909091,13,1,16,DL_Guitar,-1,-1
63,100,0.6227272727272727,69,0,16,DL_Guitar,-1,-1
63,100,0.18181818181818182,210,0,16,DL_Guitar,-1,-1
63,100,0.1409090909090909,308,0,16,DL_Guitar,-1,-1
51,100,0.17727272727272728,339,0,16,DL_Guitar,-1,-1
63,100,0.16363636363636364,378,0,16,DL_Guitar,-1,-1
63,100,0.4772727272727273,449,0,16,DL_Guitar,-1,-1
63,100,0.36363636363636365,576,0,16,DL_Guitar,-1,-1
56,100,0.2,660,0,16,DL_Guitar,-1,-1
63,100,0.41818181818181815,725,0,16,DL_Guitar,-1,-1
63,100,0.1409090909090909,822,0,16,DL_Guitar,-1,-1
63,100,0.5409090909090909,21,1,17,DL_Guitar,-1,-1
63,100,0.3409090909090909,206,0,17,DL_Guitar,-1,-1
53,100,0.1590909090909091,480,1,17,DL_Guitar,-1,-1
53,100,0.3,532,0,17,DL_Guitar,-1,-1
52,100,0.3,611,0,17,DL_Guitar,-1,-1
52,100,0.2590909090909091,681,0,17,DL_Guitar,-1,-1
53,100,0.2409090909090909,119,1,18,DL_Guitar,-1,-1
63,100,0.2409090909090909,356,1,18,DL_Guitar,-1,-1
63,100,0.23636363636363636,436,0,18,DL_Guitar,-1,-1
63,100,0.22272727272727272,497,0,18,DL_Guitar,-1,-1
63,100,0.7,625,0,18,DL_Guitar,-1,-1
56,100,0.35909090909090907,804,0,18,DL_Guitar,-1,-1
63,100,0.5181818181818182,21,1,19,DL_Guitar,-1,-1
51,100,0.23636363636363636,171,0,19,DL_Guitar,-1,-1
63,100,0.3181818181818182,370,1,19,DL_Guitar,-1,-1
56,100,0.18181818181818182,453,0,19,DL_Guitar,-1,-1
56,100,0.2590909090909091,501,0,19,DL_Guitar,-1,-1
56,100,0.2636363636363636,576,0,19,DL_Guitar,-1,-1
44,100,0.2,638,0,19,DL_Guitar,-1,-1
63,100,0.7818181818181819,791,0,19,DL_Guitar,-1,-1
56,100,0.7818181818181819,88,1,20,DL_Guitar,-1,-1
63,100,0.2409090909090909,272,0,20,DL_Guitar,-1,-1
63,100,0.41818181818181815,449,0,20,DL_Guitar,-1,-1
49,100,0.18181818181818182,642,0,20,DL_Guitar,-1,-1
51,100,0.6227272727272727,783,0,20,DL_Guitar,-1,-1
56,100,0.23636363636363636,40,1,21,DL_Guitar,-1,-1
63,100,0.2590909090909091,106,0,21,DL_Guitar,-1,-1
51,100,0.42272727272727273,223,0,21,DL_Guitar,-1,-1
63,100,0.22272727272727272,422,1,21,DL_Guitar,-1,-1
63,100,0.1409090909090909,550,0,21,DL_Guitar,-1,-1
63,100,0.6181818181818182,700,0,21,DL_Guitar,-1,-1
60,100,0.1409090909090909,198,1,22,DL_Guitar,-1,-1
63,100,0.12272727272727273,246,0,22,DL_Guitar,-1,-1
63,100,0.1409090909090909,285,0,22,DL_Guitar,-1,-1
63,100,0.17727272727272728,326,0,22,DL_Guitar,-1,-1
53,100,0.17727272727272728,370,0,22,DL_Guitar,-1,-1
63,100,0.1,523,0,22,DL_Guitar,-1,-1
49,100,0.2818181818181818,694,0,22,DL_Guitar,-1,-1
63,100,0.1590909090909091,779,0,22,DL_Guitar,-1,-1
63,100,0.11818181818181818,845,0,22,DL_Guitar,-1,-1
49,100,0.21818181818181817,127,1,23,DL_Guitar,-1,-1
51,100,0.4,220,0,23,DL_Guitar,-1,-1
63,100,0.1409090909090909,308,0,23,DL_Guitar,-1,-1
51,100,0.4,339,0,23,DL_Guitar,-1,-1
63,100,0.3,581,1,23,DL_Guitar,-1,-1
56,100,0.1409090909090909,669,0,23,DL_Guitar,-1,-1
44,100,0.1409090909090909,725,0,23,DL_Guitar,-1,-1
56,100,0.1590909090909091,760,0,23,DL_Guitar,-1,-1
63,100,0.2,810,0,23,DL_Guitar,-1,-1
63,100,0.3,3,1,24,DL_Guitar,-1,-1
56,100,0.3409090909090909,79,0,24,DL_Guitar,-1,-1
60,100,0.1590909090909091,175,0,24,DL_Guitar,-1,-1
63,100,0.13636363636363635,391,1,24,DL_Guitar,-1,-1
60,100,0.8590909090909091,453,0,24,DL_Guitar,-1,-1
56,100,0.1409090909090909,717,1,24,DL_Guitar,-1,-1
56,100,0.2590909090909091,876,0,24,DL_Guitar,-1,-1
51,100,0.22272727272727272,123,1,25,DL_Guitar,-1,-1
63,100,0.3181818181818182,171,0,25,DL_Guitar,-1,-1
63,100,0.1,347,0,25,DL_Guitar,-1,-1
63,100,0.2818181818181818,378,0,25,DL_Guitar,-1,-1
63,100,0.2636363636363636,443,0,25,DL_Guitar,-1,-1
61,100,0.3181818181818182,735,1,25,DL_Guitar,-1,-1
63,100,0.4590909090909091,17,1,26,DL_Guitar,-1,-1
51,100,1.440909090909091,123,0,26,DL_Guitar,-1,-1
51,100,0.5181818181818182,505,1,26,DL_Guitar,-1,-1
56,100,0.32272727272727275,642,0,26,DL_Guitar,-1,-1
51,100,0.2818181818181818,3,1,27,DL_Guitar,-1,-1
63,100,0.2,88,0,27,DL_Guitar,-1,-1
51,100,0.1590909090909091,150,0,27,DL_Guitar,-1,-1
51,100,0.21818181818181817,198,0,27,DL_Guitar,-1,-1
60,100,0.2409090909090909,333,0,27,DL_Guitar,-1,-1
60,100,0.3,519,0,27,DL_Guitar,-1,-1
63,100,0.5181818181818182,611,0,27,DL_Guitar,-1,-1
63,100,0.1590909090909091,743,0,27,DL_Guitar,-1,-1
48,100,0.38181818181818183,814,0,27,DL_Guitar,-1,-1
48,100,0.2,154,1,28,DL_Guitar,-1,-1
63,100,0.3,216,0,28,DL_Guitar,-1,-1
63,100,0.17727272727272728,303,0,28,DL_Guitar,-1,-1
49,100,0.4772727272727273,405,0,28,DL_Guitar,-1,-1
49,100,0.2818181818181818,532,0,28,DL_Guitar,-1,-1
49,100,0.35909090909090907,669,0,28,DL_Guitar,-1,-1
63,100,0.1590909090909091,0,1,29,DL_Guitar,-1,-1
51,100,1.8409090909090908,88,0,29,DL_Guitar,-1,-1
49,100,0.12272727272727273,642,1,29,DL_Guitar,-1,-1
63,100,0.9181818181818182,743,0,29,DL_Guitar,-1,-1
56,100,0.3,83,1,30,DL_Guitar,-1,-1
56,100,0.1409090909090909,154,0,30,DL_Guitar,-1,-1
63,100,0.740909090909091,320,0,30,DL_Guitar,-1,-1
56,100,0.13636363636363635,523,1,30,DL_Guitar,-1,-1
63,100,0.17727272727272728,602,0,30,DL_Guitar,-1,-1
60,100,0.11818181818181818,691,0,30,DL_Guitar,-1,-1
48,100,0.18181818181818182,729,0,30,DL_Guitar,-1,-1
63,100,0.3409090909090909,783,0,30,DL_Guitar,-1,-1
63,100,0.3181818181818182,9,1,31,DL_Guitar,-1,-1
63,100,0.3,83,0,31,DL_Guitar,-1,-1
63,100,0.8227272727272728,189,0,31,DL_Guitar,-1,-1
63,100,1.1818181818181819,443,1,31,DL_Guitar,-1,-1
56,100,0.13636363636363635,721,1,31,DL_Guitar,-1,-1
63,100,0.36363636363636365,752,0,31,DL_Guitar,-1,-1
63,100,0.32272727272727275,26,1,32,DL_Guitar,-1,-1
63,100,0.4818181818181818,158,0,32,DL_Guitar,-1,-1
56,100,0.2409090909090909,298,0,32,DL_Guitar,-1,-1
63,100,0.1590909090909091,396,0,32,DL_Guitar,-1,-1
61,100,0.2772727272727273,536,0,32,DL_Guitar,-1,-1
53,100,0.2590909090909091,611,0,32,DL_Guitar,-1,-1
63,100,0.2772727272727273,735,0,32,DL_Guitar,-1,-1
63,100,0.6363636363636364,105,1,33,DL_Guitar,-1,-1
51,100,0.5181818181818182,325,1,33,DL_Guitar,-1,-1
56,100,0.5227272727272727,444,0,33,DL_Guitar,-1,-1
63,100,0.35909090909090907,558,0,33,DL_Guitar,-1,-1
63,100,0.12272727272727273,751,0,33,DL_Guitar,-1,-1
63,100,0.6409090909090909,866,0,33,DL_Guitar,-1,-1
49,100,0.38181818181818183,254,1,34,DL_Guitar,-1,-1
63,100,0.2590909090909091,518,1,34,DL_Guitar,-1,-1
63,100,0.2,619,0,34,DL_Guitar,-1,-1
49,100,0.18181818181818182,716,0,34,DL_Guitar,-1,-1
63,100,0.2,770,0,34,DL_Guitar,-1,-1
61,100,0.4818181818181818,861,0,34,DL_Guitar,-1,-1
49,100,0.2409090909090909,88,1,35,DL_Guitar,-1,-1
61,100,0.1409090909090909,241,0,35,DL_Guitar,-1,-1
63,100,0.1,361,0,35,DL_Guitar,-1,-1
63,100,0.9227272727272727,408,0,35,DL_Guitar,-1,-1
63,100,0.3,738,1,35,DL_Guitar,-1,-1
63,100,0.21818181818181817,8,1,36,DL_Guitar,-1,-1
48,100,0.3,220,1,36,DL_Guitar,-1,-1
48,100,0.2,448,1,36,DL_Guitar,-1,-1
48,100,0.12272727272727273,496,0,36,DL_Guitar,-1,-1
53,100,0.13636363636363635,678,0,36,DL_Guitar,-1,-1
61,100,0.22272727272727272,751,0,36,DL_Guitar,-1,-1
53,100,0.5590909090909091,801,0,36,DL_Guitar,-1,-1
53,100,0.2636363636363636,311,1,37,DL_Guitar,-1,-1
53,100,0.21818181818181817,373,0,37,DL_Guitar,-1,-1
63,100,0.5590909090909091,545,0,37,DL_Guitar,-1,-1
55,100,0.2772727272727273,141,1,38,DL_Guitar,-1,-1
55,100,0.21818181818181817,418,1,38,DL_Guitar,-1,-1
48,100,0.3409090909090909,509,0,38,DL_Guitar,-1,-1
53,100,0.2,163,1,39,DL_Guitar,-1,-1
53,100,0.1590909090909091,211,0,39,DL_Guitar,-1,-1
53,100,0.2818181818181818,276,0,39,DL_Guitar,-1,-1
53,100,0.43636363636363634,348,0,39,DL_Guitar,-1,-1
63,100,0.6227272727272727,474,0,39,DL_Guitar,-1,-1
49,100,0.17727272727272728,678,1,39,DL_Guitar,-1,-1
61,100,0.11818181818181818,765,0,39,DL_Guitar,-1,-1
49,100,0.18181818181818182,804,0,39,DL_Guitar,-1,-1
51,100,1.7,866,0,39,DL_Guitar,-1,-1
63,100,0.1409090909090909,361,1,40,DL_Guitar,-1,-1
63,100,0.1409090909090909,405,0,40,DL_Guitar,-1,-1
51,100,0.2,435,0,40,DL_Guitar,-1,-1
51,100,0.21818181818181817,493,0,40,DL_Guitar,-1,-1
51,100,0.11818181818181818,571,0,40,DL_Guitar,-1,-1
63,100,0.18181818181818182,664,0,40,DL_Guitar,-1,-1
51,100,0.37727272727272726,778,0,40,DL_Guitar,-1,-1
63,100,0.12272727272727273,861,0,40,DL_Guitar,-1,-1
63,100,0.21818181818181817,75,1,41,DL_Guitar,-1,-1
51,100,0.18181818181818182,123,0,41,DL_Guitar,-1,-1
51,100,0.2818181818181818,179,0,41,DL_Guitar,-1,-1
53,100,0.3409090909090909,246,0,41,DL_Guitar,-1,-1
63,100,0.12272727272727273,334,0,41,DL_Guitar,-1,-1
63,100,0.18181818181818182,399,0,41,DL_Guitar,-1,-1
53,100,0.2,448,0,41,DL_Guitar,-1,-1
56,100,0.2,619,0,41,DL_Guitar,-1,-1
63,100,0.1409090909090909,691,0,41,DL_Guitar,-1,-1
63,100,0.11818181818181818,735,0,41,DL_Guitar,-1,-1
63,100,0.33636363636363636,765,0,41,DL_Guitar,-1,-1
63,100,0.21818181818181817,0,1,42,DL_Guitar,-1,-1
63,100,0.2818181818181818,198,1,42,DL_Guitar,-1,-1
49,100,0.6409090909090909,619,1,42,DL_Guitar,-1,-1
63,100,0.16363636363636364,774,0,42,DL_Guitar,-1,-1
49,100,0.5818181818181818,114,1,43,DL_Guitar,-1,-1
63,100,0.3,295,0,43,DL_Guitar,-1,-1
49,100,0.1409090909090909,364,0,43,DL_Guitar,-1,-1
63,100,0.6,399,0,43,DL_Guitar,-1,-1
53,100,0.18181818181818182,673,1,43,DL_Guitar,-1,-1
63,100,0.12272727272727273,136,1,44,DL_Guitar,-1,-1
51,100,0.1,166,0,44,DL_Guitar,-1,-1
63,100,0.12272727272727273,268,0,44,DL_Guitar,-1,-1
51,100,0.5181818181818182,295,0,44,DL_Guitar,-1,-1
63,100,0.1409090909090909,550,1,44,DL_Guitar,-1,-1
51,100,0.1590909090909091,581,0,44,DL_Guitar,-1,-1
63,100,0.2409090909090909,616,0,44,DL_Guitar,-1,-1
51,100,0.3181818181818182,813,0,44,DL_Guitar,-1,-1
58,100,0.18181818181818182,21,1,45,DL_Guitar,-1,-1
51,100,0.2,260,1,45,DL_Guitar,-1,-1
53,100,0.5409090909090909,321,0,45,DL_Guitar,-1,-1
60,100,0.16363636363636364,444,0,45,DL_Guitar,-1,-1
53,100,0.1590909090909091,506,0,45,DL_Guitar,-1,-1
63,100,0.18181818181818182,729,1,45,DL_Guitar,-1,-1
63,100,0.4,861,0,45,DL_Guitar,-1,-1
63,100,0.6818181818181818,254,1,46,DL_Guitar,-1,-1
61,100,0.13636363636363635,458,1,46,DL_Guitar,-1,-1
61,100,0.5,493,0,46,DL_Guitar,-1,-1
49,100,0.2590909090909091,603,0,46,DL_Guitar,-1,-1
61,100,0.21818181818181817,678,0,46,DL_Guitar,-1,-1
61,100,0.16363636363636364,774,0,46,DL_Guitar,-1,-1
49,100,0.1590909090909091,810,0,46,DL_Guitar,-1,-1
49,100,0.1409090909090909,0,1,47,DL_Guitar,-1,-1
64,100,0.1590909090909091,810,1,47,DL_Guitar,-1,-1
53,100,0.18181818181818182,56,1,48,DL_Guitar,-1,-1
53,100,0.2818181818181818,263,1,48,DL_Guitar,-1,-1
56,100,0.1,421,0,48,DL_Guitar,-1,-1
63,100,0.2,483,0,48,DL_Guitar,-1,-1
53,100,0.16363636363636364,554,0,48,DL_Guitar,-1,-1
61,100,0.2,845,1,48,DL_Guitar,-1,-1
49,100,0.11818181818181818,220,1,49,DL_Guitar,-1,-1
56,100,0.5590909090909091,251,0,49,DL_Guitar,-1,-1
63,100,0.9181818181818182,396,0,49,DL_Guitar,-1,-1
63,100,0.11818181818181818,770,1,49,DL_Guitar,-1,-1
51,100,0.1409090909090909,21,1,50,DL_Guitar,-1,-1
63,100,0.41818181818181815,118,0,50,DL_Guitar,-1,-1
51,100,0.1409090909090909,233,0,50,DL_Guitar,-1,-1
63,100,0.6590909090909091,263,0,50,DL_Guitar,-1,-1
53,100,0.18181818181818182,606,1,50,DL_Guitar,-1,-1
63,100,0.35909090909090907,655,0,50,DL_Guitar,-1,-1
63,100,0.1,765,0,50,DL_Guitar,-1,-1
56,100,0.5590909090909091,31,1,51,DL_Guitar,-1,-1
63,100,0.7227272727272728,254,1,51,DL_Guitar,-1,-1
63,100,0.6,531,1,51,DL_Guitar,-1,-1
63,100,0.2409090909090909,668,0,51,DL_Guitar,-1,-1
63,100,0.5818181818181818,110,1,52,DL_Guitar,-1,-1
63,100,0.5181818181818182,435,1,52,DL_Guitar,-1,-1
49,100,0.35909090909090907,558,0,52,DL_Guitar,-1,-1
49,100,0.2,646,0,52,DL_Guitar,-1,-1
63,100,0.37727272727272726,721,0,52,DL_Guitar,-1,-1
63,100,0.1409090909090909,861,0,52,DL_Guitar,-1,-1
63,100,0.9181818181818182,18,1,53,DL_Guitar,-1,-1
56,100,0.1590909090909091,254,1,53,DL_Guitar,-1,-1
63,100,0.18181818181818182,289,0,53,DL_Guitar,-1,-1
63,100,0.3409090909090909,378,0,53,DL_Guitar,-1,-1
63,100,0.5590909090909091,480,0,53,DL_Guitar,-1,-1
53,100,0.3,26,1,54,DL_Guitar,-1,-1
61,100,0.8363636363636363,150,0,54,DL_Guitar,-1,-1
61,100,0.21818181818181817,370,1,54,DL_Guitar,-1,-1
51,100,0.2409090909090909,541,0,54,DL_Guitar,-1,-1
51,100,0.9590909090909091,638,0,54,DL_Guitar,-1,-1
63,100,0.42272727272727273,848,1,54,DL_Guitar,-1,-1
51,100,0.4409090909090909,69,1,55,DL_Guitar,-1,-1
63,100,1.559090909090909,166,0,55,DL_Guitar,-1,-1
60,100,0.21818181818181817,523,1,55,DL_Guitar,-1,-1
48,100,0.3409090909090909,571,0,55,DL_Guitar,-1,-1
53,100,0.1409090909090909,694,0,55,DL_Guitar,-1,-1
53,100,0.21818181818181817,735,0,55,DL_Guitar,-1,-1
56,100,0.1590909090909091,273,1,56,DL_Guitar,-1,-1
61,100,0.9227272727272727,421,0,56,DL_Guitar,-1,-1
51,100,0.1,826,1,56,DL_Guitar,-1,-1
51,100,0.35909090909090907,853,0,56,DL_Guitar,-1,-1
51,100,1.8,56,1,57,DL_Guitar,-1,-1
63,100,0.11818181818181818,593,1,57,DL_Guitar,-1,-1
63,100,0.759090909090909,625,0,57,DL_Guitar,-1,-1
48,100,0.1409090909090909,246,1,58,DL_Guitar,-1,-1
63,100,0.13636363636363635,370,0,58,DL_Guitar,-1,-1
63,100,0.11818181818181818,528,0,58,DL_Guitar,-1,-1
46,100,0.1590909090909091,616,0,58,DL_Guitar,-1,-1
53,100,0.4,655,0,58,DL_Guitar,-1,-1
61,100,0.42272727272727273,774,0,58,DL_Guitar,-1,-1
49,100,0.1409090909090909,4,1,59,DL_Guitar,-1,-1
61,100,0.3,34,0,59,DL_Guitar,-1,-1
49,100,0.18181818181818182,176,0,59,DL_Guitar,-1,-1
51,100,1.259090909090909,251,0,59,DL_Guitar,-1,-1
63,100,1.040909090909091,553,1,64,DL_Guitar,-1,-1
63,100,0.7181818181818181,853,1,64,DL_Guitar,-1,-1
63,100,0.1409090909090909,176,1,65,DL_Guitar,-1,-1
63,100,0.38181818181818183,220,0,65,DL_Guitar,-1,-1
53,100,0.6,113,1,68,DL_Guitar,-1,-1
53,100,0.6409090909090909,307,0,68,DL_Guitar,-1,-1
49,100,0.3,669,1,68,DL_Guitar,-1,-1
49,100,0.1409090909090909,747,0,68,DL_Guitar,-1,-1
49,100,0.16363636363636364,796,0,68,DL_Guitar,-1,-1
49,100,0.1409090909090909,35,1,69,DL_Guitar,-1,-1
63,100,0.35909090909090907,193,0,69,DL_Guitar,-1,-1
63,100,0.5590909090909091,276,0,69,DL_Guitar,-1,-1
51,100,0.2,399,0,69,DL_Guitar,-1,-1
63,100,0.2,443,0,69,DL_Guitar,-1,-1
51,100,0.5636363636363636,487,0,69,DL_Guitar,-1,-1
63,100,0.1,612,0,69,DL_Guitar,-1,-1
63,100,0.1,650,0,69,DL_Guitar,-1,-1
63,100,1.6181818181818182,700,0,69,DL_Guitar,-1,-1
53,100,0.2590909090909091,343,1,70,DL_Guitar,-1,-1
53,100,0.9,462,0,70,DL_Guitar,-1,-1
53,100,0.11818181818181818,766,1,70,DL_Guitar,-1,-1
63,100,0.2636363636363636,509,1,71,DL_Guitar,-1,-1
51,100,0.6590909090909091,567,0,71,DL_Guitar,-1,-1
51,100,0.9409090909090909,747,0,71,DL_Guitar,-1,-1
63,100,0.11818181818181818,96,1,72,DL_Guitar,-1,-1
51,100,1.8227272727272728,123,0,72,DL_Guitar,-1,-1
51,100,0.22272727272727272,540,1,72,DL_Guitar,-1,-1
51,100,0.12272727272727273,673,0,72,DL_Guitar,-1,-1
63,100,0.21818181818181817,700,0,72,DL_Guitar,-1,-1
63,100,0.1,756,0,72,DL_Guitar,-1,-1
63,100,0.3,805,0,72,DL_Guitar,-1,-1
63,100,0.35909090909090907,74,1,73,DL_Guitar,-1,-1
63,100,0.8636363636363636,157,0,73,DL_Guitar,-1,-1
62,100,0.8409090909090909,466,1,74,DL_Guitar,-1,-1
62,100,0.22272727272727272,663,0,74,DL_Guitar,-1,-1
62,100,0.1590909090909091,9,1,75,DL_Guitar,-1,-1
59,100,1.0818181818181818,92,0,75,DL_Guitar,-1,-1
40,100,0.5181818181818182,330,1,75,DL_Guitar,-1,-1
40,100,0.1409090909090909,449,0,75,DL_Guitar,-1,-1
40,100,0.13636363636363635,523,0,75,DL_Guitar,-1,-1
61,100,1.0363636363636364,567,0,75,DL_Guitar,-1,-1
59,100,1.1590909090909092,823,1,75,DL_Guitar,-1,-1
61,100,1.2,202,1,76,DL_Guitar,-1,-1
61,100,3.2,509,1,76,DL_Guitar,-1,-1
62,100,1.2227272727272727,343,1,77,DL_Guitar,-1,-1
50,100,0.2818181818181818,783,1,77,DL_Guitar,-1,-1
62,100,0.5,853,0,77,DL_Guitar,-1,-1
57,100,0.4590909090909091,132,1,78,DL_Guitar,-1,-1
62,100,0.8181818181818182,502,1,78,DL_Guitar,-1,-1
62,100,0.3,826,1,78,DL_Guitar,-1,-1
54,100,0.12272727272727273,26,1,79,DL_Guitar,-1,-1
62,100,0.13636363636363635,83,0,79,DL_Guitar,-1,-1
40,100,0.3181818181818182,172,0,79,DL_Guitar,-1,-1
40,100,0.18181818181818182,263,0,79,DL_Guitar,-1,-1
61,100,0.8363636363636363,633,1,79,DL_Guitar,-1,-1
59,100,0.41818181818181815,9,1,80,DL_Guitar,-1,-1
59,100,0.11818181818181818,132,0,80,DL_Guitar,-1,-1
64,100,0.7363636363636363,303,0,80,DL_Guitar,-1,-1
45,100,0.1590909090909091,475,0,80,DL_Guitar,-1,-1
61,100,0.17727272727272728,646,0,80,DL_Guitar,-1,-1
62,100,0.4409090909090909,779,0,80,DL_Guitar,-1,-1
62,100,0.13636363636363635,17,1,81,DL_Guitar,-1,-1
62,100,0.5772727272727273,53,0,81,DL_Guitar,-1,-1
40,100,0.11818181818181818,457,1,81,DL_Guitar,-1,-1
40,100,0.11818181818181818,559,0,81,DL_Guitar,-1,-1
59,100,0.3,597,0,81,DL_Guitar,-1,-1
52,100,0.12272727272727273,817,1,81,DL_Guitar,-1,-1
57,100,0.3181818181818182,66,1,82,DL_Guitar,-1,-1
61,100,0.2,166,0,82,DL_Guitar,-1,-1
61,100,0.2590909090909091,273,0,82,DL_Guitar,-1,-1
64,100,0.2818181818181818,330,0,82,DL_Guitar,-1,-1
57,100,0.37727272727272726,436,0,82,DL_Guitar,-1,-1
61,100,0.2772727272727273,567,0,82,DL_Guitar,-1,-1
57,100,0.2590909090909091,633,0,82,DL_Guitar,-1,-1
61,100,0.2590909090909091,700,0,82,DL_Guitar,-1,-1
61,100,0.4409090909090909,826,0,82,DL_Guitar,-1,-1
59,100,0.12272727272727273,92,1,83,DL_Guitar,-1,-1
64,100,0.17727272727272728,127,0,83,DL_Guitar,-1,-1
57,100,0.33636363636363636,193,0,83,DL_Guitar,-1,-1
61,100,0.5227272727272727,320,0,83,DL_Guitar,-1,-1
57,100,0.9590909090909091,483,0,83,DL_Guitar,-1,-1
62,100,1.2,703,1,83,DL_Guitar,-1,-1
50,100,0.1409090909090909,163,1,84,DL_Guitar,-1,-1
50,100,0.1,223,0,84,DL_Guitar,-1,-1
62,100,0.1409090909090909,263,0,84,DL_Guitar,-1,-1
40,100,0.13636363636363635,523,1,84,DL_Guitar,-1,-1
52,100,0.1,663,0,84,DL_Guitar,-1,-1
64,100,0.16363636363636364,752,0,84,DL_Guitar,-1,-1
64,100,0.18181818181818182,66,1,85,DL_Guitar,-1,-1
45,100,0.21818181818181817,106,0,85,DL_Guitar,-1,-1
64,100,0.11818181818181818,197,0,85,DL_Guitar,-1,-1
59,100,0.23636363636363636,237,0,85,DL_Guitar,-1,-1
64,100,0.16363636363636364,289,0,85,DL_Guitar,-1,-1
57,100,0.3181818181818182,493,1,85,DL_Guitar,-1,-1
57,100,0.759090909090909,567,0,85,DL_Guitar,-1,-1
57,100,0.8409090909090909,752,0,85,DL_Guitar,-1,-1
61,100,0.32272727272727275,56,1,86,DL_Guitar,-1,-1
61,100,1.0,140,0,86,DL_Guitar,-1,-1
64,100,0.2772727272727273,559,1,86,DL_Guitar,-1,-1
62,100,1.0,624,0,86,DL_Guitar,-1,-1
62,100,0.1409090909090909,849,1,86,DL_Guitar,-1,-1
57,100,0.21818181818181817,17,1,87,DL_Guitar,-1,-1
50,100,0.2,100,0,87,DL_Guitar,-1,-1
62,100,0.6590909090909091,210,0,87,DL_Guitar,-1,-1
50,100,0.1,413,1,87,DL_Guitar,-1,-1
50,100,0.2772727272727273,449,0,87,DL_Guitar,-1,-1
40,100,0.2818181818181818,487,1,88,DL_Guitar,-1,-1
50,100,0.5772727272727273,383,1,89,DL_Guitar,-1,-1
62,100,0.12272727272727273,509,0,89,DL_Guitar,-1,-1
40,100,0.759090909090909,559,0,89,DL_Guitar,-1,-1
40,100,0.2,729,0,89,DL_Guitar,-1,-1
40,100,0.1,826,0,89,DL_Guitar,-1,-1
40,100,0.2409090909090909,96,1,90,DL_Guitar,-1,-1
49,100,0.4,179,0,90,DL_Guitar,-1,-1
49,100,0.9,282,0,90,DL_Guitar,-1,-1
61,100,0.3,480,0,90,DL_Guitar,-1,-1
64,100,0.2818181818181818,553,0,90,DL_Guitar,-1,-1
64,100,0.3,619,0,90,DL_Guitar,-1,-1
61,100,0.5,690,0,90,DL_Guitar,-1,-1
57,100,1.7363636363636363,810,0,90,DL_Guitar,-1,-1
62,100,0.3181818181818182,316,1,91,DL_Guitar,-1,-1
40,100,0.8409090909090909,844,1,91,DL_Guitar,-1,-1
40,100,0.2409090909090909,153,1,92,DL_Guitar,-1,-1
40,100,1.5,216,0,92,DL_Guitar,-1,-1
57,100,0.2,747,1,92,DL_Guitar,-1,-1
64,100,0.2,805,0,92,DL_Guitar,-1,-1
57,100,0.5590909090909091,853,0,92,DL_Guitar,-1,-1
61,100,0.3181818181818182,110,1,93,DL_Guitar,-1,-1
57,100,0.4,229,0,93,DL_Guitar,-1,-1
45,100,0.13636363636363635,326,0,93,DL_Guitar,-1,-1
61,100,0.17727272727272728,383,0,93,DL_Guitar,-1,-1
50,100,0.1590909090909091,140,1,94,DL_Guitar,-1,-1
40,100,0.11818181818181818,316,0,94,DL_Guitar,-1,-1
40,100,0.1590909090909091,567,1,94,DL_Guitar,-1,-1
59,100,0.36363636363636365,663,0,94,DL_Guitar,-1,-1
61,100,0.2409090909090909,773,0,94,DL_Guitar,-1,-1
45,100,0.2,26,1,95,DL_Guitar,-1,-1
45,100,0.11818181818181818,110,0,95,DL_Guitar,-1,-1
64,100,0.3181818181818182,140,0,95,DL_Guitar,-1,-1
57,100,0.5409090909090909,210,0,95,DL_Guitar,-1,-1
64,100,0.2,347,0,95,DL_Guitar,-1,-1
57,100,1.0772727272727274,413,0,95,DL_Guitar,-1,-1
56,100,0.9181818181818182,656,1,95,DL_Guitar,-1,-1
62,100,0.12272727272727273,26,1,96,DL_Guitar,-1,-1
52,100,0.1590909090909091,550,1,96,DL_Guitar,-1,-1
40,100,0.2409090909090909,629,0,96,DL_Guitar,-1,-1
40,100,0.21818181818181817,743,0,96,DL_Guitar,-1,-1
40,100,0.5181818181818182,43,1,97,DL_Guitar,-1,-1
57,100,1.8,233,0,97,DL_Guitar,-1,-1
57,100,0.2590909090909091,823,1,97,DL_Guitar,-1,-1
57,100,0.6590909090909091,166,1,98,DL_Guitar,-1,-1
62,100,0.3,320,0,98,DL_Guitar,-1,-1
62,100,0.2590909090909091,430,0,98,DL_Guitar,-1,-1
57,100,0.2409090909090909,527,0,98,DL_Guitar,-1,-1
62,100,0.11818181818181818,580,0,98,DL_Guitar,-1,-1
62,100,0.1,633,0,98,DL_Guitar,-1,-1
57,100,0.12272727272727273,695,0,98,DL_Guitar,-1,-1
59,100,0.35909090909090907,316,1,99,DL_Guitar,-1,-1
40,100,0.2590909090909091,396,0,99,DL_Guitar,-1,-1
61,100,0.3181818181818182,770,1,99,DL_Guitar,-1,-1
61,100,0.2,876,0,99,DL_Guitar,-1,-1
64,100,0.23636363636363636,40,1,100,DL_Guitar,-1,-1
61,100,0.5,96,0,100,DL_Guitar,-1,-1
61,100,0.6181818181818182,237,0,100,DL_Guitar,-1,-1
49,100,0.4,373,0,100,DL_Guitar,-1,-1
64,100,0.5181818181818182,483,0,100,DL_Guitar,-1,-1
50,100,0.9181818181818182,624,0,100,DL_Guitar,-1,-1
57,100,0.18181818181818182,189,1,101,DL_Guitar,-1,-1
52,100,0.1,282,0,101,DL_Guitar,-1,-1
52,100,0.1,330,0,101,DL_Guitar,-1,-1
40,100,1.940909090909091,377,0,101,DL_Guitar,-1,-1
52,100,0.38181818181818183,813,1,101,DL_Guitar,-1,-1
45,100,3.140909090909091,30,1,102,DL_Guitar,-1,-1
45,100,0.4,734,1,102,DL_Guitar,-1,-1
50,100,0.9409090909090909,13,1,103,DL_Guitar,-1,-1
50,100,0.3,282,1,103,DL_Guitar,-1,-1
50,100,0.21818181818181817,373,0,103,DL_Guitar,-1,-1
40,100,0.6,590,1,103,DL_Guitar,-1,-1
40,100,0.2818181818181818,773,0,103,DL_Guitar,-1,-1
40,100,0.21818181818181817,40,1,104,DL_Guitar,-1,-1
64,100,0.11818181818181818,87,0,104,DL_Guitar,-1,-1
57,100,0.2,255,0,104,DL_Guitar,-1,-1
57,100,0.13636363636363635,370,0,104,DL_Guitar,-1,-1
57,100,0.2590909090909091,413,0,104,DL_Guitar,-1,-1
52,100,0.2590909090909091,480,0,104,DL_Guitar,-1,-1
57,100,0.21818181818181817,536,0,104,DL_Guitar,-1,-1
57,100,0.3,597,0,104,DL_Guitar,-1,-1
57,100,0.8409090909090909,695,0,104,DL_Guitar,-1,-1
42,100,0.11818181818181818,127,1,105,DL_Guitar,-1,-1
64,100,0.18181818181818182,202,0,105,DL_Guitar,-1,-1
54,100,0.759090909090909,189,1,0,DL_EnglishEdition_Remastered_Guitar,-1,-1
54,100,0.2,374,0,0,DL_EnglishEdition_Remastered_Guitar,-1,-1
54,100,0.22272727272727272,466,0,0,DL_EnglishEdition_Remastered_Guitar,-1,-1
47,100,0.12272727272727273,563,0,0,DL_EnglishEdition_Remastered_Guitar,-1,-1
47,100,0.2,594,0,0,DL_EnglishEdition_Remastered_Guitar,-1,-1
59,100,0.12272727272727273,673,0,0,DL_EnglishEdition_Remastered_Guitar,-1,-1
61,100,0.3,770,0,0,DL_EnglishEdition_Remastered_Guitar,-1,-1
61,100,0.3,18,1,1,DL_EnglishEdition_Remastered_Guitar,-1,-1
42,100,0.18181818181818182,175,0,1,DL_EnglishEdition_Remastered_Guitar,-1,-1
59,100,0.1590909090909091,238,0,1,DL_EnglishEdition_Remastered_Guitar,-1,-1
59,100,0.4409090909090909,625,1,1,DL_EnglishEdition_Remastered_Guitar,-1,-1
47,100,0.1,854,1,1,DL_EnglishEdition_Remastered_Guitar,-1,-1
52,100,0.41818181818181815,140,1,2,DL_EnglishEdition_Remastered_Guitar,-1,-1
52,100,0.35909090909090907,364,1,2,DL_EnglishEdition_Remastered_Guitar,-1,-1
47,100,0.1409090909090909,474,0,2,DL_EnglishEdition_Remastered_Guitar,-1,-1
47,100,0.32272727272727275,553,0,2,DL_EnglishEdition_Remastered_Guitar,-1,-1
47,100,0.5818181818181818,638,0,2,DL_EnglishEdition_Remastered_Guitar,-1,-1
54,100,0.6181818181818182,770,0,2,DL_EnglishEdition_Remastered_Guitar,-1,-1
59,100,0.2636363636363636,26,1,3,DL_EnglishEdition_Remastered_Guitar,-1,-1
61,100,0.12272727272727273,210,0,3,DL_EnglishEdition_Remastered_Guitar,-1,-1
61,100,0.5227272727272727,246,0,3,DL_EnglishEdition_Remastered_Guitar,-1,-1
61,100,0.17727272727272728,458,1,3,DL_EnglishEdition_Remastered_Guitar,-1,-1
59,100,1.2,681,1,3,DL_EnglishEdition_Remastered_Guitar,-1,-1
59,100,0.8,87,1,4,DL_EnglishEdition_Remastered_Guitar,-1,-1
59,100,0.22272727272727272,276,0,4,DL_EnglishEdition_Remastered_Guitar,-1,-1
52,100,0.16363636363636364,795,1,4,DL_EnglishEdition_Remastered_Guitar,-1,-1
54,100,0.22272727272727272,849,0,4,DL_EnglishEdition_Remastered_Guitar,-1,-1
54,100,0.5,232,1,5,DL_EnglishEdition_Remastered_Guitar,-1,-1
54,100,0.21818181818181817,370,0,5,DL_EnglishEdition_Remastered_Guitar,-1,-1
61,100,0.12272727272727273,541,0,5,DL_EnglishEdition_Remastered_Guitar,-1,-1
54,100,0.11818181818181818,581,0,5,DL_EnglishEdition_Remastered_Guitar,-1,-1
59,100,0.11818181818181818,18,1,6,DL_EnglishEdition_Remastered_Guitar,-1,-1
59,100,0.13636363636363635,61,0,6,DL_EnglishEdition_Remastered_Guitar,-1,-1
52,100,0.3409090909090909,163,0,6,DL_EnglishEdition_Remastered_Guitar,-1,-1
59,100,0.3,409,1,6,DL_EnglishEdition_Remastered_Guitar,-1,-1
61,100,0.2409090909090909,792,1,6,DL_EnglishEdition_Remastered_Guitar,-1,-1
47,100,0.4,122,1,7,DL_EnglishEdition_Remastered_Guitar,-1,-1
59,100,0.18181818181818182,289,0,7,DL_EnglishEdition_Remastered_Guitar,-1,-1
59,100,0.1409090909090909,360,0,7,DL_EnglishEdition_Remastered_Guitar,-1,-1
54,100,0.1590909090909091,572,1,7,DL_EnglishEdition_Remastered_Guitar,-1,-1
47,100,0.1590909090909091,700,0,7,DL_EnglishEdition_Remastered_Guitar,-1,-1
59,100,0.11818181818181818,734,0,7,DL_EnglishEdition_Remastered_Guitar,-1,-1
59,100,0.1590909090909091,778,0,7,DL_EnglishEdition_Remastered_Guitar,-1,-1
54,100,0.2409090909090909,3,1,8,DL_EnglishEdition_Remastered_Guitar,-1,-1
54,100,0.7,206,1,8,DL_EnglishEdition_Remastered_Guitar,-1,-1
59,100,0.3409090909090909,453,1,8,DL_EnglishEdition_Remastered_Guitar,-1,-1
59,100,0.11818181818181818,589,0,8,DL_EnglishEdition_Remastered_Guitar,-1,-1
59,100,0.1,682,0,8,DL_EnglishEdition_Remastered_Guitar,-1,-1
47,100,0.2409090909090909,730,0,8,DL_EnglishEdition_Remastered_Guitar,-1,-1
47,100,0.1409090909090909,70,1,9,DL_EnglishEdition_Remastered_Guitar,-1,-1
52,100,0.5,245,0,9,DL_EnglishEdition_Remastered_Guitar,-1,-1
54,100,0.11818181818181818,374,0,9,DL_EnglishEdition_Remastered_Guitar,-1,-1
52,100,0.1590909090909091,519,0,9,DL_EnglishEdition_Remastered_Guitar,-1,-1
57,100,0.1,620,0,9,DL_EnglishEdition_Remastered_Guitar,-1,-1
57,100,0.5590909090909091,677,0,9,DL_EnglishEdition_Remastered_Guitar,-1,-1
45,100,0.16363636363636364,818,0,9,DL_EnglishEdition_Remastered_Guitar,-1,-1
61,100,0.18181818181818182,268,1,10,DL_EnglishEdition_Remastered_Guitar,-1,-1
59,100,0.1590909090909091,395,0,10,DL_EnglishEdition_Remastered_Guitar,-1,-1
59,100,0.1590909090909091,457,0,10,DL_EnglishEdition_Remastered_Guitar,-1,-1
59,100,0.38181818181818183,532,0,10,DL_EnglishEdition_Remastered_Guitar,-1,-1
59,100,0.5409090909090909,795,1,10,DL_EnglishEdition_Remastered_Guitar,-1,-1
59,100,0.2409090909090909,110,1,11,DL_EnglishEdition_Remastered_Guitar,-1,-1
52,100,0.2590909090909091,364,1,11,DL_EnglishEdition_Remastered_Guitar,-1,-1
54,100,0.1590909090909091,436,0,11,DL_EnglishEdition_Remastered_Guitar,-1,-1
59,100,0.4,470,0,11,DL_EnglishEdition_Remastered_Guitar,-1,-1
52,100,0.6409090909090909,87,1,12,DL_EnglishEdition_Remastered_Guitar,-1,-1
59,100,0.1,242,0,12,DL_EnglishEdition_Remastered_Guitar,-1,-1
59,100,0.2636363636363636,268,0,12,DL_EnglishEdition_Remastered_Guitar,-1,-1
59,100,0.37727272727272726,347,0,12,DL_EnglishEdition_Remastered_Guitar,-1,-1
64,100,0.1,620,1,12,DL_EnglishEdition_Remastered_Guitar,-1,-1
59,100,0.41818181818181815,656,0,12,DL_EnglishEdition_Remastered_Guitar,-1,-1
59,100,0.8772727272727273,866,1,12,DL_EnglishEdition_Remastered_Guitar,-1,-1
54,100,0.11818181818181818,194,1,13,DL_EnglishEdition_Remastered_Guitar,-1,-1
54,100,0.2772727272727273,250,0,13,DL_EnglishEdition_Remastered_Guitar,-1,-1
47,100,0.8590909090909091,369,0,13,DL_EnglishEdition_Remastered_Guitar,-1,-1
47,100,3.2818181818181817,563,0,13,DL_EnglishEdition_Remastered_Guitar,-1,-1
59,100,0.5409090909090909,496,1,14,DL_EnglishEdition_Remastered_Guitar,-1,-1
47,100,0.2,615,0,14,DL_EnglishEdition_Remastered_Guitar,-1,-1
59,100,0.41818181818181815,660,0,14,DL_EnglishEdition_Remastered_Guitar,-1,-1
59,100,0.1409090909090909,756,0,14,DL_EnglishEdition_Remastered_Guitar,-1,-1
54,100,0.8409090909090909,113,1,15,DL_EnglishEdition_Remastered_Guitar,-1,-1
54,100,0.22272727272727272,333,1,15,DL_EnglishEdition_Remastered_Guitar,-1,-1
61,100,0.17727272727272728,426,0,15,DL_EnglishEdition_Remastered_Guitar,-1,-1
59,100,0.35909090909090907,501,0,15,DL_EnglishEdition_Remastered_Guitar,-1,-1
59,100,0.42272727272727273,673,0,15,DL_EnglishEdition_Remastered_Guitar,-1,-1
47,100,0.21818181818181817,778,0,15,DL_EnglishEdition_Remastered_Guitar,-1,-1
47,100,0.4590909090909091,857,0,15,DL_EnglishEdition_Remastered_Guitar,-1,-1
47,100,0.1,83,1,16,DL_EnglishEdition_Remastered_Guitar,-1,-1
54,100,0.1590909090909091,175,0,16,DL_EnglishEdition_Remastered_Guitar,-1,-1
59,100,0.2409090909090909,594,1,16,DL_EnglishEdition_Remastered_Guitar,-1,-1
54,100,0.2590909090909091,677,0,16,DL_EnglishEdition_Remastered_Guitar,-1,-1
47,100,0.759090909090909,831,0,16,DL_EnglishEdition_Remastered_Guitar,-1,-1
47,100,0.2590909090909091,250,1,17,DL_EnglishEdition_Remastered_Guitar,-1,-1
54,100,0.2,326,0,17,DL_EnglishEdition_Remastered_Guitar,-1,-1
54,100,0.2,457,0,17,DL_EnglishEdition_Remastered_Guitar,-1,-1
61,100,0.12272727272727273,509,0,17,DL_EnglishEdition_Remastered_Guitar,-1,-1
61,100,0.42272727272727273,540,0,17,DL_EnglishEdition_Remastered_Guitar,-1,-1
54,100,0.5772727272727273,646,0,17,DL_EnglishEdition_Remastered_Guitar,-1,-1
59,100,0.11818181818181818,835,0,17,DL_EnglishEdition_Remastered_Guitar,-1,-1
52,100,0.1,866,0,17,DL_EnglishEdition_Remastered_Guitar,-1,-1
59,100,0.5590909090909091,21,1,18,DL_EnglishEdition_Remastered_Guitar,-1,-1
59,100,1.059090909090909,193,0,18,DL_EnglishEdition_Remastered_Guitar,-1,-1
47,100,0.17727272727272728,426,1,18,DL_EnglishEdition_Remastered_Guitar,-1,-1
59,100,0.2,515,0,18,DL_EnglishEdition_Remastered_Guitar,-1,-1
47,100,0.1590909090909091,563,0,18,DL_EnglishEdition_Remastered_Guitar,-1,-1
59,100,0.1590909090909091,677,0,18,DL_EnglishEdition_Remastered_Guitar,-1,-1
54,100,0.4590909090909091,814,0,18,DL_EnglishEdition_Remastered_Guitar,-1,-1
59,100,0.32272727272727275,113,1,19,DL_EnglishEdition_Remastered_Guitar,-1,-1
59,100,0.2,395,1,19,DL_EnglishEdition_Remastered_Guitar,-1,-1
54,100,0.1,461,0,19,DL_EnglishEdition_Remastered_Guitar,-1,-1
47,100,0.1409090909090909,553,0,19,DL_EnglishEdition_Remastered_Guitar,-1,-1
54,100,0.1,646,0,19,DL_EnglishEdition_Remastered_Guitar,-1,-1
59,100,0.4,770,0,19,DL_EnglishEdition_Remastered_Guitar,-1,-1
54,100,0.22272727272727272,862,0,19,DL_EnglishEdition_Remastered_Guitar,-1,-1
59,100,0.11818181818181818,65,1,20,DL_EnglishEdition_Remastered_Guitar,-1,-1
54,100,0.2409090909090909,110,0,20,DL_EnglishEdition_Remastered_Guitar,-1,-1
59,100,0.2818181818181818,220,0,20,DL_EnglishEdition_Remastered_Guitar,-1,-1
59,100,0.21818181818181817,360,0,20,DL_EnglishEdition_Remastered_Guitar,-1,-1
59,100,0.8818181818181818,430,0,20,DL_EnglishEdition_Remastered_Guitar,-1,-1
47,100,0.5409090909090909,629,1,20,DL_EnglishEdition_Remastered_Guitar,-1,-1
52,100,0.2636363636363636,773,0,20,DL_EnglishEdition_Remastered_Guitar,-1,-1
52,100,0.2,9,1,21,DL_EnglishEdition_Remastered_Guitar,-1,-1
52,100,0.2818181818181818,65,0,21,DL_EnglishEdition_Remastered_Guitar,-1,-1
54,100,0.1409090909090909,154,0,21,DL_EnglishEdition_Remastered_Guitar,-1,-1
54,100,0.11818181818181818,480,1,21,DL_EnglishEdition_Remastered_Guitar,-1,-1
47,100,0.4409090909090909,553,0,21,DL_EnglishEdition_Remastered_Guitar,-1,-1
59,100,0.18181818181818182,708,0,21,DL_EnglishEdition_Remastered_Guitar,-1,-1
59,100,0.2590909090909091,866,0,21,DL_EnglishEdition_Remastered_Guitar,-1,-1
47,100,0.2,44,1,22,DL_EnglishEdition_Remastered_Guitar,-1,-1
54,100,0.1,100,0,22,DL_EnglishEdition_Remastered_Guitar,-1,-1
59,100,0.1409090909090909,179,0,22,DL_EnglishEdition_Remastered_Guitar,-1,-1
54,100,0.8,237,0,22,DL_EnglishEdition_Remastered_Guitar,-1,-1
54,100,0.6590909090909091,426,0,22,DL_EnglishEdition_Remastered_Guitar,-1,-1
59,100,0.4,611,0,22,DL_EnglishEdition_Remastered_Guitar,-1,-1
59,100,0.1590909090909091,725,0,22,DL_EnglishEdition_Remastered_Guitar,-1,-1
64,100,0.1,193,1,23,DL_EnglishEdition_Remastered_Guitar,-1,-1
52,100,0.2818181818181818,268,0,23,DL_EnglishEdition_Remastered_Guitar,-1,-1
59,100,0.1409090909090909,387,0,23,DL_EnglishEdition_Remastered_Guitar,-1,-1
52,100,0.4409090909090909,484,0,23,DL_EnglishEdition_Remastered_Guitar,-1,-1
54,100,0.41818181818181815,602,0,23,DL_EnglishEdition_Remastered_Guitar,-1,-1
54,100,0.1590909090909091,814,1,23,DL_EnglishEdition_Remastered_Guitar,-1,-1
52,100,0.1,34,1,24,DL_EnglishEdition_Remastered_Guitar,-1,-1
59,100,0.2409090909090909,382,1,24,DL_EnglishEdition_Remastered_Guitar,-1,-1
59,100,0.2409090909090909,440,0,24,DL_EnglishEdition_Remastered_Guitar,-1,-1
40,100,0.3,532,0,24,DL_EnglishEdition_Remastered_Guitar,-1,-1
59,100,0.5636363636363636,619,0,24,DL_EnglishEdition_Remastered_Guitar,-1,-1
59,100,0.2,773,0,24,DL_EnglishEdition_Remastered_Guitar,-1,-1
59,100,0.4590909090909091,827,0,24,DL_EnglishEdition_Remastered_Guitar,-1,-1
59,100,0.2772727272727273,52,1,25,DL_EnglishEdition_Remastered_Guitar,-1,-1
63,100,0.2590909090909091,216,0,25,DL_EnglishEdition_Remastered_Guitar,-1,-1
59,100,0.6,272,0,25,DL_EnglishEdition_Remastered_Guitar,-1,-1
59,100,0.6,409,0,25,DL_EnglishEdition_Remastered_Guitar,-1,-1
59,100,0.5,686,1,25,DL_EnglishEdition_Remastered_Guitar,-1,-1
54,100,0.2636363636363636,796,0,25,DL_EnglishEdition_Remastered_Guitar,-1,-1
54,100,0.4,52,1,26,DL_EnglishEdition_Remastered_Guitar,-1,-1
52,100,0.4,241,0,26,DL_EnglishEdition_Remastered_Guitar,-1,-1
52,100,0.6772727272727272,382,0,26,DL_EnglishEdition_Remastered_Guitar,-1,-1
59,100,0.3181818181818182,700,1,26,DL_EnglishEdition_Remastered_Guitar,-1,-1
40,100,0.1,804,0,26,DL_EnglishEdition_Remastered_Guitar,-1,-1
59,100,0.4590909090909091,100,1,27,DL_EnglishEdition_Remastered_Guitar,-1,-1
59,100,0.5590909090909091,216,0,27,DL_EnglishEdition_Remastered_Guitar,-1,-1
40,100,0.1,382,0,27,DL_EnglishEdition_Remastered_Guitar,-1,-1
59,100,0.6227272727272727,773,1,27,DL_EnglishEdition_Remastered_Guitar,-1,-1
59,100,0.35909090909090907,65,1,28,DL_EnglishEdition_Remastered_Guitar,-1,-1
47,100,0.12272727272727273,650,1,28,DL_EnglishEdition_Remastered_Guitar,-1,-1
47,100,0.2772727272727273,700,0,28,DL_EnglishEdition_Remastered_Guitar,-1,-1
59,100,0.1409090909090909,791,0,28,DL_EnglishEdition_Remastered_Guitar,-1,-1
59,100,0.16363636363636364,26,1,29,DL_EnglishEdition_Remastered_Guitar,-1,-1
47,100,0.11818181818181818,61,0,29,DL_EnglishEdition_Remastered_Guitar,-1,-1
52,100,0.21818181818181817,154,0,29,DL_EnglishEdition_Remastered_Guitar,-1,-1
52,100,0.2590909090909091,206,0,29,DL_EnglishEdition_Remastered_Guitar,-1,-1
47,100,0.5818181818181818,285,0,29,DL_EnglishEdition_Remastered_Guitar,-1,-1
47,100,0.11818181818181818,501,1,29,DL_EnglishEdition_Remastered_Guitar,-1,-1
54,100,0.6363636363636364,61,1,30,DL_EnglishEdition_Remastered_Guitar,-1,-1
56,100,0.3409090909090909,739,1,30,DL_EnglishEdition_Remastered_Guitar,-1,-1
40,100,0.1409090909090909,131,1,31,DL_EnglishEdition_Remastered_Guitar,-1,-1
40,100,0.17727272727272728,171,0,31,DL_EnglishEdition_Remastered_Guitar,-1,-1
52,100,0.2590909090909091,272,0,31,DL_EnglishEdition_Remastered_Guitar,-1,-1
59,100,0.11818181818181818,501,1,31,DL_EnglishEdition_Remastered_Guitar,-1,-1
47,100,0.1590909090909091,827,1,31,DL_EnglishEdition_Remastered_Guitar,-1,-1
59,100,0.12272727272727273,34,1,32,DL_EnglishEdition_Remastered_Guitar,-1,-1
59,100,0.2409090909090909,141,0,32,DL_EnglishEdition_Remastered_Guitar,-1,-1
61,100,0.22272727272727272,276,0,32,DL_EnglishEdition_Remastered_Guitar,-1,-1
54,100,0.4409090909090909,364,0,32,DL_EnglishEdition_Remastered_Guitar,-1,-1
54,100,0.6409090909090909,518,0,32,DL_EnglishEdition_Remastered_Guitar,-1,-1
42,100,0.2,660,0,32,DL_EnglishEdition_Remastered_Guitar,-1,-1
61,100,0.2,128,1,33,DL_EnglishEdition_Remastered_Guitar,-1,-1
61,100,0.11818181818181818,193,0,33,DL_EnglishEdition_Remastered_Guitar,-1,-1
61,100,0.3,295,0,33,DL_EnglishEdition_Remastered_Guitar,-1,-1
40,100,0.18181818181818182,444,0,33,DL_EnglishEdition_Remastered_Guitar,-1,-1
59,100,0.22272727272727272,509,0,33,DL_EnglishEdition_Remastered_Guitar,-1,-1
59,100,0.4818181818181818,563,0,33,DL_EnglishEdition_Remastered_Guitar,-1,-1
59,100,0.23636363636363636,700,0,33,DL_EnglishEdition_Remastered_Guitar,-1,-1
52,100,0.1590909090909091,761,0,33,DL_EnglishEdition_Remastered_Guitar,-1,-1
59,100,0.4818181818181818,839,0,33,DL_EnglishEdition_Remastered_Guitar,-1,-1
59,100,0.6227272727272727,101,1,34,DL_EnglishEdition_Remastered_Guitar,-1,-1
54,100,0.3,325,1,34,DL_EnglishEdition_Remastered_Guitar,-1,-1
42,100,0.18181818181818182,628,1,34,DL_EnglishEdition_Remastered_Guitar,-1,-1
54,100,0.18181818181818182,681,0,34,DL_EnglishEdition_Remastered_Guitar,-1,-1
54,100,0.4590909090909091,726,0,34,DL_EnglishEdition_Remastered_Guitar,-1,-1
54,100,0.2590909090909091,831,0,34,DL_EnglishEdition_Remastered_Guitar,-1,-1
54,100,0.3409090909090909,13,1,35,DL_EnglishEdition_Remastered_Guitar,-1,-1
54,100,0.2818181818181818,166,0,35,DL_EnglishEdition_Remastered_Guitar,-1,-1
56,100,0.2,391,1,35,DL_EnglishEdition_Remastered_Guitar,-1,-1
59,100,0.2,458,0,35,DL_EnglishEdition_Remastered_Guitar,-1,-1
59,100,0.11818181818181818,536,0,35,DL_EnglishEdition_Remastered_Guitar,-1,-1
59,100,0.32272727272727275,641,0,35,DL_EnglishEdition_Remastered_Guitar,-1,-1
59,100,0.1409090909090909,751,0,35,DL_EnglishEdition_Remastered_Guitar,-1,-1
52,100,0.5818181818181818,871,0,35,DL_EnglishEdition_Remastered_Guitar,-1,-1
59,100,0.5590909090909091,150,1,36,DL_EnglishEdition_Remastered_Guitar,-1,-1
59,100,0.38181818181818183,286,0,36,DL_EnglishEdition_Remastered_Guitar,-1,-1
42,100,0.11818181818181818,413,0,36,DL_EnglishEdition_Remastered_Guitar,-1,-1
61,100,0.12272727272727273,466,0,36,DL_EnglishEdition_Remastered_Guitar,-1,-1
42,100,0.22272727272727272,531,0,36,DL_EnglishEdition_Remastered_Guitar,-1,-1
42,100,0.13636363636363635,611,0,36,DL_EnglishEdition_Remastered_Guitar,-1,-1
54,100,0.6363636363636364,655,0,36,DL_EnglishEdition_Remastered_Guitar,-1,-1
54,100,0.2409090909090909,818,0,36,DL_EnglishEdition_Remastered_Guitar,-1,-1
54,100,0.2590909090909091,875,0,36,DL_EnglishEdition_Remastered_Guitar,-1,-1
59,100,0.2,171,1,37,DL_EnglishEdition_Remastered_Guitar,-1,-1
54,100,0.1409090909090909,426,1,37,DL_EnglishEdition_Remastered_Guitar,-1,-1
54,100,0.38181818181818183,506,0,37,DL_EnglishEdition_Remastered_Guitar,-1,-1
54,100,0.3,603,0,37,DL_EnglishEdition_Remastered_Guitar,-1,-1
54,100,0.2,694,0,37,DL_EnglishEdition_Remastered_Guitar,-1,-1
51,100,0.36363636363636365,311,1,38,DL_EnglishEdition_Remastered_Guitar,-1,-1
54,100,0.1590909090909091,413,0,38,DL_EnglishEdition_Remastered_Guitar,-1,-1
54,100,0.6409090909090909,471,0,38,DL_EnglishEdition_Remastered_Guitar,-1,-1
47,100,1.0,751,1,38,DL_EnglishEdition_Remastered_Guitar,-1,-1
59,100,0.18181818181818182,114,1,39,DL_EnglishEdition_Remastered_Guitar,-1,-1
52,100,0.2818181818181818,188,0,39,DL_EnglishEdition_Remastered_Guitar,-1,-1
47,100,0.6772727272727272,471,1,39,DL_EnglishEdition_Remastered_Guitar,-1,-1
59,100,0.6409090909090909,628,0,39,DL_EnglishEdition_Remastered_Guitar,-1,-1
47,100,0.18181818181818182,770,0,39,DL_EnglishEdition_Remastered_Guitar,-1,-1
59,100,0.13636363636363635,810,0,39,DL_EnglishEdition_Remastered_Guitar,-1,-1
54,100,0.1590909090909091,866,0,39,DL_EnglishEdition_Remastered_Guitar,-1,-1
52,100,0.12272727272727273,144,1,40,DL_EnglishEdition_Remastered_Guitar,-1,-1
47,100,0.6181818181818182,330,0,40,DL_EnglishEdition_Remastered_Guitar,-1,-1
54,100,0.2818181818181818,483,0,40,DL_EnglishEdition_Remastered_Guitar,-1,-1
54,100,0.21818181818181817,550,0,40,DL_EnglishEdition_Remastered_Guitar,-1,-1
59,100,0.1,641,0,40,DL_EnglishEdition_Remastered_Guitar,-1,-1
59,100,0.41818181818181815,853,1,40,DL_EnglishEdition_Remastered_Guitar,-1,-1
52,100,0.5181818181818182,308,1,41,DL_EnglishEdition_Remastered_Guitar,-1,-1
47,100,0.2818181818181818,761,1,41,DL_EnglishEdition_Remastered_Guitar,-1,-1
54,100,0.1409090909090909,88,1,42,DL_EnglishEdition_Remastered_Guitar,-1,-1
47,100,0.4590909090909091,153,0,42,DL_EnglishEdition_Remastered_Guitar,-1,-1
54,100,0.5227272727272727,276,0,42,DL_EnglishEdition_Remastered_Guitar,-1,-1
59,100,1.040909090909091,638,1,42,DL_EnglishEdition_Remastered_Guitar,-1,-1
51,100,0.23636363636363636,128,1,43,DL_EnglishEdition_Remastered_Guitar,-1,-1
54,100,0.4409090909090909,399,1,43,DL_EnglishEdition_Remastered_Guitar,-1,-1
52,100,0.7,509,0,43,DL_EnglishEdition_Remastered_Guitar,-1,-1
52,100,0.37727272727272726,823,1,43,DL_EnglishEdition_Remastered_Guitar,-1,-1
47,100,0.6590909090909091,188,1,44,DL_EnglishEdition_Remastered_Guitar,-1,-1
59,100,0.5181818181818182,413,1,44,DL_EnglishEdition_Remastered_Guitar,-1,-1
59,100,0.11818181818181818,593,0,44,DL_EnglishEdition_Remastered_Guitar,-1,-1
59,100,0.13636363636363635,633,0,44,DL_EnglishEdition_Remastered_Guitar,-1,-1
59,100,0.3409090909090909,220,1,45,DL_EnglishEdition_Remastered_Guitar,-1,-1
59,100,0.5181818181818182,303,0,45,DL_EnglishEdition_Remastered_Guitar,-1,-1
47,100,0.2636363636363636,444,0,45,DL_EnglishEdition_Remastered_Guitar,-1,-1
59,100,0.2772727272727273,501,0,45,DL_EnglishEdition_Remastered_Guitar,-1,-1
47,100,0.18181818181818182,651,0,45,DL_EnglishEdition_Remastered_Guitar,-1,-1
47,100,0.21818181818181817,713,0,45,DL_EnglishEdition_Remastered_Guitar,-1,-1
54,100,0.4,770,0,45,DL_EnglishEdition_Remastered_Guitar,-1,-1
54,100,0.1409090909090909,861,0,45,DL_EnglishEdition_Remastered_Guitar,-1,-1
47,100,0.11818181818181818,185,1,46,DL_EnglishEdition_Remastered_Guitar,-1,-1
54,100,0.16363636363636364,224,0,46,DL_EnglishEdition_Remastered_Guitar,-1,-1
59,100,0.5818181818181818,364,0,46,DL_EnglishEdition_Remastered_Guitar,-1,-1
54,100,0.2,673,1,46,DL_EnglishEdition_Remastered_Guitar,-1,-1
59,100,0.2772727272727273,823,0,46,DL_EnglishEdition_Remastered_Guitar,-1,-1
59,100,0.2409090909090909,53,1,47,DL_EnglishEdition_Remastered_Guitar,-1,-1
47,100,0.3181818181818182,176,0,47,DL_EnglishEdition_Remastered_Guitar,-1,-1
47,100,0.2590909090909091,281,0,47,DL_EnglishEdition_Remastered_Guitar,-1,-1
54,100,0.2818181818181818,506,1,47,DL_EnglishEdition_Remastered_Guitar,-1,-1
59,100,0.2409090909090909,584,0,47,DL_EnglishEdition_Remastered_Guitar,-1,-1
59,100,0.5181818181818182,735,0,47,DL_EnglishEdition_Remastered_Guitar,-1,-1
54,100,0.23636363636363636,853,0,47,DL_EnglishEdition_Remastered_Guitar,-1,-1
59,100,1.0,31,1,48,DL_EnglishEdition_Remastered_Guitar,-1,-1
47,100,0.2,370,1,48,DL_EnglishEdition_Remastered_Guitar,-1,-1
47,100,0.1590909090909091,418,0,48,DL_EnglishEdition_Remastered_Guitar,-1,-1
47,100,0.17727272727272728,458,0,48,DL_EnglishEdition_Remastered_Guitar,-1,-1
47,100,0.1409090909090909,641,0,48,DL_EnglishEdition_Remastered_Guitar,-1,-1
59,100,0.2409090909090909,748,0,48,DL_EnglishEdition_Remastered_Guitar,-1,-1
59,100,0.13636363636363635,150,1,49,DL_EnglishEdition_Remastered_Guitar,-1,-1
54,100,0.3,215,0,49,DL_EnglishEdition_Remastered_Guitar,-1,-1
54,100,0.21818181818181817,286,0,49,DL_EnglishEdition_Remastered_Guitar,-1,-1
47,100,0.3409090909090909,493,1,49,DL_EnglishEdition_Remastered_Guitar,-1,-1
59,100,0.4772727272727273,568,0,49,DL_EnglishEdition_Remastered_Guitar,-1,-1
59,100,0.17727272727272728,678,0,49,DL_EnglishEdition_Remastered_Guitar,-1,-1
59,100,0.3,774,0,49,DL_EnglishEdition_Remastered_Guitar,-1,-1
59,100,0.18181818181818182,48,1,50,DL_EnglishEdition_Remastered_Guitar,-1,-1
59,100,0.5818181818181818,364,1,50,DL_EnglishEdition_Remastered_Guitar,-1,-1
59,100,0.17727272727272728,545,0,50,DL_EnglishEdition_Remastered_Guitar,-1,-1
59,100,0.7,735,0,50,DL_EnglishEdition_Remastered_Guitar,-1,-1
52,100,0.7818181818181819,26,1,51,DL_EnglishEdition_Remastered_Guitar,-1,-1
47,100,0.5,286,1,51,DL_EnglishEdition_Remastered_Guitar,-1,-1
47,100,0.11818181818181818,405,0,51,DL_EnglishEdition_Remastered_Guitar,-1,-1
47,100,0.4409090909090909,550,0,51,DL_EnglishEdition_Remastered_Guitar,-1,-1
47,100,0.1409090909090909,726,0,51,DL_EnglishEdition_Remastered_Guitar,-1,-1
54,100,0.2590909090909091,783,0,51,DL_EnglishEdition_Remastered_Guitar,-1,-1
59,100,0.6409090909090909,26,1,52,DL_EnglishEdition_Remastered_Guitar,-1,-1
54,100,0.23636363636363636,171,0,52,DL_EnglishEdition_Remastered_Guitar,-1,-1
54,100,0.7181818181818181,308,0,52,DL_EnglishEdition_Remastered_Guitar,-1,-1
47,100,0.2590909090909091,550,1,52,DL_EnglishEdition_Remastered_Guitar,-1,-1
54,100,0.3409090909090909,681,0,52,DL_EnglishEdition_Remastered_Guitar,-1,-1
59,100,0.11818181818181818,823,0,52,DL_EnglishEdition_Remastered_Guitar,-1,-1
59,100,0.11818181818181818,198,1,53,DL_EnglishEdition_Remastered_Guitar,-1,-1
52,100,0.4818181818181818,334,0,53,DL_EnglishEdition_Remastered_Guitar,-1,-1
47,100,0.1590909090909091,461,0,53,DL_EnglishEdition_Remastered_Guitar,-1,-1
47,100,0.11818181818181818,691,1,53,DL_EnglishEdition_Remastered_Guitar,-1,-1
54,100,0.3409090909090909,735,0,53,DL_EnglishEdition_Remastered_Guitar,-1,-1
59,100,0.5,875,0,53,DL_EnglishEdition_Remastered_Guitar,-1,-1
54,100,0.18181818181818182,110,1,54,DL_EnglishEdition_Remastered_Guitar,-1,-1
54,100,0.2590909090909091,153,0,54,DL_EnglishEdition_Remastered_Guitar,-1,-1
47,100,0.4772727272727273,251,0,54,DL_EnglishEdition_Remastered_Guitar,-1,-1
47,100,0.4590909090909091,391,0,54,DL_EnglishEdition_Remastered_Guitar,-1,-1
59,100,0.7,536,0,54,DL_EnglishEdition_Remastered_Guitar,-1,-1
54,100,0.2409090909090909,708,0,54,DL_EnglishEdition_Remastered_Guitar,-1,-1
47,100,0.2818181818181818,826,0,54,DL_EnglishEdition_Remastered_Guitar,-1,-1
59,100,0.2,78,1,55,DL_EnglishEdition_Remastered_Guitar,-1,-1
54,100,0.1,141,0,55,DL_EnglishEdition_Remastered_Guitar,-1,-1
54,100,0.2409090909090909,198,0,55,DL_EnglishEdition_Remastered_Guitar,-1,-1
47,100,0.3409090909090909,273,0,55,DL_EnglishEdition_Remastered_Guitar,-1,-1
47,100,0.4590909090909091,435,0,55,DL_EnglishEdition_Remastered_Guitar,-1,-1
59,100,0.35909090909090907,536,0,55,DL_EnglishEdition_Remastered_Guitar,-1,-1
59,100,0.9590909090909091,651,0,55,DL_EnglishEdition_Remastered_Guitar,-1,-1
54,100,0.1,861,1,55,DL_EnglishEdition_Remastered_Guitar,-1,-1
54,100,0.35909090909090907,40,1,56,DL_EnglishEdition_Remastered_Guitar,-1,-1
54,100,0.5227272727272727,166,0,56,DL_EnglishEdition_Remastered_Guitar,-1,-1
56,100,0.21818181818181817,633,1,56,DL_EnglishEdition_Remastered_Guitar,-1,-1
56,100,0.33636363636363636,700,0,56,DL_EnglishEdition_Remastered_Guitar,-1,-1
56,100,0.5636363636363636,818,0,56,DL_EnglishEdition_Remastered_Guitar,-1,-1
63,100,0.2409090909090909,158,1,57,DL_EnglishEdition_Remastered_Guitar,-1,-1
56,100,0.1590909090909091,295,0,57,DL_EnglishEdition_Remastered_Guitar,-1,-1
51,100,0.6636363636363637,466,0,57,DL_EnglishEdition_Remastered_Guitar,-1,-1
59,100,0.42272727272727273,774,1,57,DL_EnglishEdition_Remastered_Guitar,-1,-1
47,100,0.3,43,1,58,DL_EnglishEdition_Remastered_Guitar,-1,-1
47,100,0.11818181818181818,193,0,58,DL_EnglishEdition_Remastered_Guitar,-1,-1
54,100,0.1409090909090909,254,0,58,DL_EnglishEdition_Remastered_Guitar,-1,-1
47,100,0.3181818181818182,308,0,58,DL_EnglishEdition_Remastered_Guitar,-1,-1
47,100,0.5409090909090909,383,0,58,DL_EnglishEdition_Remastered_Guitar,-1,-1
54,100,0.16363636363636364,531,0,58,DL_EnglishEdition_Remastered_Guitar,-1,-1
47,100,0.12272727272727273,598,0,58,DL_EnglishEdition_Remastered_Guitar,-1,-1
54,100,0.22272727272727272,628,0,58,DL_EnglishEdition_Remastered_Guitar,-1,-1
54,100,0.1590909090909091,703,0,58,DL_EnglishEdition_Remastered_Guitar,-1,-1
59,100,0.21818181818181817,31,1,59,DL_EnglishEdition_Remastered_Guitar,-1,-1
59,100,0.2590909090909091,141,0,59,DL_EnglishEdition_Remastered_Guitar,-1,-1
59,100,0.4409090909090909,316,0,59,DL_EnglishEdition_Remastered_Guitar,-1,-1
61,100,0.5181818181818182,198,1,60,DL_EnglishEdition_Remastered_Guitar,-1,-1
61,100,0.6181818181818182,440,1,60,DL_EnglishEdition_Remastered_Guitar,-1,-1
54,100,0.2409090909090909,641,1,60,DL_EnglishEdition_Remastered_Guitar,-1,-1
64,100,0.12272727272727273,729,0,60,DL_EnglishEdition_Remastered_Guitar,-1,-1
59,100,0.1,325,1,61,DL_EnglishEdition_Remastered_Guitar,-1,-1
52,100,0.18181818181818182,606,1,61,DL_EnglishEdition_Remastered_Guitar,-1,-1
47,100,0.1590909090909091,691,0,61,DL_EnglishEdition_Remastered_Guitar,-1,-1
52,100,0.9409090909090909,871,0,61,DL_EnglishEdition_Remastered_Guitar,-1,-1
52,100,0.1409090909090909,211,1,62,DL_EnglishEdition_Remastered_Guitar,-1,-1
52,100,0.6,251,0,62,DL_EnglishEdition_Remastered_Guitar,-1,-1
47,100,0.1409090909090909,603,1,62,DL_EnglishEdition_Remastered_Guitar,-1,-1
59,100,0.6,641,0,62,DL_EnglishEdition_Remastered_Guitar,-1,-1
59,100,0.6,18,1,63,DL_EnglishEdition_Remastered_Guitar,-1,-1
49,100,0.6227272727272727,268,1,63,DL_EnglishEdition_Remastered_Guitar,-1,-1
54,100,0.1590909090909091,606,1,63,DL_EnglishEdition_Remastered_Guitar,-1,-1
56,100,0.9818181818181818,694,0,63,DL_EnglishEdition_Remastered_Guitar,-1,-1
56,100,0.8409090909090909,66,1,64,DL_EnglishEdition_Remastered_Guitar,-1,-1
52,100,0.8818181818181818,320,1,64,DL_EnglishEdition_Remastered_Guitar,-1,-1
59,100,0.22272727272727272,519,1,64,DL_EnglishEdition_Remastered_Guitar,-1,-1
59,100,0.8590909090909091,590,0,64,DL_EnglishEdition_Remastered_Guitar,-1,-1
59,100,0.12272727272727273,817,1,64,DL_EnglishEdition_Remastered_Guitar,-1,-1
54,100,0.4409090909090909,857,0,64,DL_EnglishEdition_Remastered_Guitar,-1,-1
47,100,0.21818181818181817,110,1,65,DL_EnglishEdition_Remastered_Guitar,-1,-1
59,100,0.32272727272727275,157,0,65,DL_EnglishEdition_Remastered_Guitar,-1,-1
59,100,0.4409090909090909,255,0,65,DL_EnglishEdition_Remastered_Guitar,-1,-1
54,100,0.2,480,1,65,DL_EnglishEdition_Remastered_Guitar,-1,-1
54,100,0.12272727272727273,597,0,65,DL_EnglishEdition_Remastered_Guitar,-1,-1
49,100,0.2409090909090909,686,0,65,DL_EnglishEdition_Remastered_Guitar,-1,-1
54,100,0.5772727272727273,756,0,65,DL_EnglishEdition_Remastered_Guitar,-1,-1
54,100,0.5409090909090909,132,1,66,DL_EnglishEdition_Remastered_Guitar,-1,-1
49,100,0.12272727272727273,267,0,66,DL_EnglishEdition_Remastered_Guitar,-1,-1
54,100,0.23636363636363636,326,0,66,DL_EnglishEdition_Remastered_Guitar,-1,-1
54,100,0.2,396,0,66,DL_EnglishEdition_Remastered_Guitar,-1,-1
49,100,0.21818181818181817,462,0,66,DL_EnglishEdition_Remastered_Guitar,-1,-1
54,100,0.5181818181818182,527,0,66,DL_EnglishEdition_Remastered_Guitar,-1,-1
52,100,0.18181818181818182,660,0,66,DL_EnglishEdition_Remastered_Guitar,-1,-1
59,100,0.1409090909090909,726,0,66,DL_EnglishEdition_Remastered_Guitar,-1,-1
59,100,0.5181818181818182,779,0,66,DL_EnglishEdition_Remastered_Guitar,-1,-1
52,100,0.36363636363636365,47,1,67,DL_EnglishEdition_Remastered_Guitar,-1,-1
59,100,0.2,189,0,67,DL_EnglishEdition_Remastered_Guitar,-1,-1
54,100,0.18181818181818182,246,0,67,DL_EnglishEdition_Remastered_Guitar,-1,-1
54,100,0.17727272727272728,294,0,67,DL_EnglishEdition_Remastered_Guitar,-1,-1
47,100,0.2818181818181818,483,0,67,DL_EnglishEdition_Remastered_Guitar,-1,-1
54,100,0.22272727272727272,760,1,67,DL_EnglishEdition_Remastered_Guitar,-1,-1
54,100,0.3,823,0,67,DL_EnglishEdition_Remastered_Guitar,-1,-1
49,100,0.12272727272727273,56,1,68,DL_EnglishEdition_Remastered_Guitar,-1,-1
49,100,0.18181818181818182,100,0,68,DL_EnglishEdition_Remastered_Guitar,-1,-1
49,100,0.22272727272727272,145,0,68,DL_EnglishEdition_Remastered_Guitar,-1,-1
49,100,0.11818181818181818,303,0,68,DL_EnglishEdition_Remastered_Guitar,-1,-1
56,100,2.040909090909091,466,0,68,DL_EnglishEdition_Remastered_Guitar,-1,-1
54,100,0.13636363636363635,40,1,69,DL_EnglishEdition_Remastered_Guitar,-1,-1
52,100,1.7181818181818183,110,0,69,DL_EnglishEdition_Remastered_Guitar,-1,-1
52,100,0.1590909090909091,527,1,69,DL_EnglishEdition_Remastered_Guitar,-1,-1
54,100,0.1590909090909091,616,0,69,DL_EnglishEdition_Remastered_Guitar,-1,-1
54,100,0.2772727272727273,677,0,69,DL_EnglishEdition_Remastered_Guitar,-1,-1
61,100,0.12272727272727273,752,0,69,DL_EnglishEdition_Remastered_Guitar,-1,-1
61,100,0.35909090909090907,783,0,69,DL_EnglishEdition_Remastered_Guitar,-1,-1
54,100,0.6590909090909091,9,1,70,DL_EnglishEdition_Remastered_Guitar,-1,-1
59,100,0.16363636363636364,179,0,70,DL_EnglishEdition_Remastered_Guitar,-1,-1
59,100,0.1,453,1,70,DL_EnglishEdition_Remastered_Guitar,-1,-1
54,100,0.3,590,0,70,DL_EnglishEdition_Remastered_Guitar,-1,-1
54,100,0.2409090909090909,739,0,70,DL_EnglishEdition_Remastered_Guitar,-1,-1
52,100,1.7818181818181817,796,0,70,DL_EnglishEdition_Remastered_Guitar,-1,-1
52,100,0.2590909090909091,316,1,71,DL_EnglishEdition_Remastered_Guitar,-1,-1
52,100,0.740909090909091,399,0,71,DL_EnglishEdition_Remastered_Guitar,-1,-1
52,100,0.4409090909090909,597,0,71,DL_EnglishEdition_Remastered_Guitar,-1,-1
52,100,0.6181818181818182,713,0,71,DL_EnglishEdition_Remastered_Guitar,-1,-1
54,100,0.1,210,1,72,DL_EnglishEdition_Remastered_Guitar,-1,-1
47,100,0.2818181818181818,267,0,72,DL_EnglishEdition_Remastered_Guitar,-1,-1
59,100,0.17727272727272728,457,0,72,DL_EnglishEdition_Remastered_Guitar,-1,-1
59,100,0.2,509,0,72,DL_EnglishEdition_Remastered_Guitar,-1,-1
54,100,0.4590909090909091,612,0,72,DL_EnglishEdition_Remastered_Guitar,-1,-1
54,100,0.1590909090909091,716,0,72,DL_EnglishEdition_Remastered_Guitar,-1,-1
49,100,0.2636363636363636,3,1,73,DL_EnglishEdition_Remastered_Guitar,-1,-1
49,100,0.2,92,0,73,DL_EnglishEdition_Remastered_Guitar,-1,-1
54,100,0.2818181818181818,166,0,73,DL_EnglishEdition_Remastered_Guitar,-1,-1
56,100,0.6409090909090909,242,0,73,DL_EnglishEdition_Remastered_Guitar,-1,-1
56,100,0.7818181818181819,506,1,73,DL_EnglishEdition_Remastered_Guitar,-1,-1
52,100,0.1590909090909091,770,1,73,DL_EnglishEdition_Remastered_Guitar,-1,-1
59,100,0.11818181818181818,30,1,74,DL_EnglishEdition_Remastered_Guitar,-1,-1
52,100,0.3409090909090909,153,0,74,DL_EnglishEdition_Remastered_Guitar,-1,-1
52,100,0.1,233,0,74,DL_EnglishEdition_Remastered_Guitar,-1,-1
59,100,0.12272727272727273,255,0,74,DL_EnglishEdition_Remastered_Guitar,-1,-1
52,100,0.2,303,0,74,DL_EnglishEdition_Remastered_Guitar,-1,-1
47,100,0.16363636363636364,729,1,74,DL_EnglishEdition_Remastered_Guitar,-1,-1
54,100,0.2590909090909091,783,0,74,DL_EnglishEdition_Remastered_Guitar,-1,-1
54,100,0.17727272727272728,876,0,74,DL_EnglishEdition_Remastered_Guitar,-1,-1
54,100,0.5227272727272727,56,1,75,DL_EnglishEdition_Remastered_Guitar,-1,-1
54,100,0.3,202,0,75,DL_EnglishEdition_Remastered_Guitar,-1,-1
54,100,0.18181818181818182,289,0,75,DL_EnglishEdition_Remastered_Guitar,-1,-1
54,100,0.2772727272727273,404,0,75,DL_EnglishEdition_Remastered_Guitar,-1,-1
49,100,0.12272727272727273,540,0,75,DL_EnglishEdition_Remastered_Guitar,-1,-1
54,100,0.7181818181818181,572,0,75,DL_EnglishEdition_Remastered_Guitar,-1,-1
49,100,0.16363636363636364,773,1,75,DL_EnglishEdition_Remastered_Guitar,-1,-1
54,100,0.4409090909090909,849,0,75,DL_EnglishEdition_Remastered_Guitar,-1,-1
54,100,0.5,92,1,76,DL_EnglishEdition_Remastered_Guitar,-1,-1
59,100,0.4590909090909091,242,0,76,DL_EnglishEdition_Remastered_Guitar,-1,-1
54,100,0.2409090909090909,365,0,76,DL_EnglishEdition_Remastered_Guitar,-1,-1
54,100,0.5181818181818182,436,0,76,DL_EnglishEdition_Remastered_Guitar,-1,-1
59,100,0.4818181818181818,629,0,76,DL_EnglishEdition_Remastered_Guitar,-1,-1
54,100,0.22272727272727272,739,0,76,DL_EnglishEdition_Remastered_Guitar,-1,-1
59,100,0.3181818181818182,17,1,77,DL_EnglishEdition_Remastered_Guitar,-1,-1
59,100,0.13636363636363635,216,1,77,DL_EnglishEdition_Remastered_Guitar,-1,-1
54,100,0.12272727272727273,255,0,77,DL_EnglishEdition_Remastered_Guitar,-1,-1
54,100,0.11818181818181818,303,0,77,DL_EnglishEdition_Remastered_Guitar,-1,-1
52,100,0.6,383,0,77,DL_EnglishEdition_Remastered_Guitar,-1,-1
59,100,0.12272727272727273,540,0,77,DL_EnglishEdition_Remastered_Guitar,-1,-1
40,100,0.1590909090909091,593,0,77,DL_EnglishEdition_Remastered_Guitar,-1,-1
52,100,0.9181818181818182,637,0,77,DL_EnglishEdition_Remastered_Guitar,-1,-1
54,100,0.21818181818181817,150,1,78,DL_EnglishEdition_Remastered_Guitar,-1,-1
59,100,0.4,250,0,78,DL_EnglishEdition_Remastered_Guitar,-1,-1
54,100,0.2818181818181818,475,1,78,DL_EnglishEdition_Remastered_Guitar,-1,-1
59,100,0.8363636363636363,612,0,78,DL_EnglishEdition_Remastered_Guitar,-1,-1
54,100,0.18181818181818182,817,1,78,DL_EnglishEdition_Remastered_Guitar,-1,-1
54,100,0.11818181818181818,119,1,79,DL_EnglishEdition_Remastered_Guitar,-1,-1
54,100,0.2772727272727273,193,0,79,DL_EnglishEdition_Remastered_Guitar,-1,-1
59,100,0.2409090909090909,263,0,79,DL_EnglishEdition_Remastered_Guitar,-1,-1
54,100,0.1409090909090909,320,0,79,DL_EnglishEdition_Remastered_Guitar,-1,-1
54,100,0.3409090909090909,365,0,79,DL_EnglishEdition_Remastered_Guitar,-1,-1
59,100,0.17727272727272728,449,0,79,DL_EnglishEdition_Remastered_Guitar,-1,-1
59,100,0.4636363636363636,729,1,79,DL_EnglishEdition_Remastered_Guitar,-1,-1
52,100,0.6409090909090909,79,1,80,DL_EnglishEdition_Remastered_Guitar,-1,-1
40,100,0.11818181818181818,260,0,80,DL_EnglishEdition_Remastered_Guitar,-1,-1
52,100,0.2818181818181818,409,0,80,DL_EnglishEdition_Remastered_Guitar,-1,-1
54,100,0.3181818181818182,747,1,80,DL_EnglishEdition_Remastered_Guitar,-1,-1
54,100,0.11818181818181818,823,0,80,DL_EnglishEdition_Remastered_Guitar,-1,-1
54,100,0.5227272727272727,3,1,81,DL_EnglishEdition_Remastered_Guitar,-1,-1
59,100,0.2409090909090909,163,0,81,DL_EnglishEdition_Remastered_Guitar,-1,-1
54,100,0.6,396,1,81,DL_EnglishEdition_Remastered_Guitar,-1,-1
59,100,0.12272727272727273,629,1,81,DL_EnglishEdition_Remastered_Guitar,-1,-1
59,100,0.4,700,0,81,DL_EnglishEdition_Remastered_Guitar,-1,-1
59,100,0.21818181818181817,853,0,81,DL_EnglishEdition_Remastered_Guitar,-1,-1
54,100,0.3,30,1,82,DL_EnglishEdition_Remastered_Guitar,-1,-1
52,100,0.4409090909090909,163,0,82,DL_EnglishEdition_Remastered_Guitar,-1,-1
59,100,0.35909090909090907,276,0,82,DL_EnglishEdition_Remastered_Guitar,-1,-1
52,100,0.4818181818181818,430,0,82,DL_EnglishEdition_Remastered_Guitar,-1,-1
52,100,0.11818181818181818,660,1,82,DL_EnglishEdition_Remastered_Guitar,-1,-1
52,100,0.1590909090909091,713,0,82,DL_EnglishEdition_Remastered_Guitar,-1,-1
54,100,0.17727272727272728,832,0,82,DL_EnglishEdition_Remastered_Guitar,-1,-1
54,100,0.16363636363636364,3,1,83,DL_EnglishEdition_Remastered_Guitar,-1,-1
54,100,0.3409090909090909,123,0,83,DL_EnglishEdition_Remastered_Guitar,-1,-1
54,100,0.18181818181818182,312,0,83,DL_EnglishEdition_Remastered_Guitar,-1,-1
54,100,0.41818181818181815,426,0,83,DL_EnglishEdition_Remastered_Guitar,-1,-1
54,100,0.4409090909090909,713,1,83,DL_EnglishEdition_Remastered_Guitar,-1,-1
54,100,0.2818181818181818,110,1,84,DL_EnglishEdition_Remastered_Guitar,-1,-1
54,100,0.1590909090909091,347,1,84,DL_EnglishEdition_Remastered_Guitar,-1,-1
59,100,0.4818181818181818,386,0,84,DL_EnglishEdition_Remastered_Guitar,-1,-1
54,100,0.8227272727272728,496,0,84,DL_EnglishEdition_Remastered_Guitar,-1,-1
54,100,0.17727272727272728,470,1,85,DL_EnglishEdition_Remastered_Guitar,-1,-1
47,100,1.3227272727272728,553,0,85,DL_EnglishEdition_Remastered_Guitar,-1,-1
47,100,1.7772727272727273,83,1,86,DL_EnglishEdition_Remastered_Guitar,-1,-1
47,100,2.463636363636364,487,1,86,DL_EnglishEdition_Remastered_Guitar,-1,-1
47,100,0.1590909090909091,172,1,87,DL_EnglishEdition_Remastered_Guitar,-1,-1
47,100,0.23636363636363636,216,0,87,DL_EnglishEdition_Remastered_Guitar,-1,-1
47,100,0.1409090909090909,466,1,87,DL_EnglishEdition_Remastered_Guitar,-1,-1
47,100,0.2,110,1,88,DL_EnglishEdition_Remastered_Guitar,-1,-1
47,100,0.1,237,0,88,DL_EnglishEdition_Remastered_Guitar,-1,-1
47,100,0.11818181818181818,273,0,88,DL_EnglishEdition_Remastered_Guitar,-1,-1
47,100,0.1409090909090909,360,0,88,DL_EnglishEdition_Remastered_Guitar,-1,-1
47,100,0.2590909090909091,436,0,88,DL_EnglishEdition_Remastered_Guitar,-1,-1
47,100,0.2818181818181818,519,0,88,DL_EnglishEdition_Remastered_Guitar,-1,-1
47,100,0.33636363636363636,633,0,88,DL_EnglishEdition_Remastered_Guitar,-1,-1
